# Vengi binary mesh normalized for Tanks of Freedom II

mtllib ../../materials/vox_building.mtl
o ground_hole_4

v 2.8 0.1 3.5
v 2.4 0.1 3.5
v 2.4 0.1 3.6
v 2.8 0.1 3.6
v 2.7 0.2 3.4
v 2.5 0.2 3.4
v 2.5 0.2 3.5
v 2.7 0.2 3.5
v 2.6 0.2 3.3
v 2.5 0.2 3.3
v 2.6 0.2 3.4
v 2.5 0.1 3.3
v 2.4 0.1 3.3
v 2.5 0.1 3.5
v 0.6 0.1 3.3
v 0.5 0.1 3.3
v 0.5 0.1 3.4
v 0.6 0.1 3.4
v 0.4 0.1 3.3
v 0.4 0.1 3.5
v 0.5 0.1 3.5
v 0.7 0.1 3.2
v 0.6 0.1 3.2
v 0.7 0.1 3.4
v 0.6 0.2 3.2
v 0.4 0.2 3.2
v 0.4 0.2 3.3
v 0.6 0.2 3.3
v 0.4 0.1 3.2
v 0.3 0.1 3.2
v 0.3 0.1 3.4
v 0.4 0.1 3.4
v 3 0.1 3.1
v 2.9 0.1 3.1
v 2.9 0.1 3.4
v 3 0.1 3.4
v 2.5 0.2 3.1
v 2.4 0.2 3.1
v 2.4 0.2 3.3
v 2.4 0.1 3.1
v 2.3 0.1 3.1
v 2.3 0.1 3.4
v 2.4 0.1 3.4
v 0.9 0.1 3.1
v 0.8 0.1 3.1
v 0.8 0.1 3.2
v 0.9 0.1 3.2
v 0.7 0.1 3.1
v 0.7 0.1 3.3
v 0.8 0.1 3.3
v 0.7 0.2 3.1
v 0.6 0.2 3.1
v 0.7 0.2 3.2
v 1.1 0.1 3
v 0.9 0.1 3
v 1.1 0.1 3.1
v 0.9 0.2 3
v 0.7 0.2 3
v 0.9 0.2 3.1
v 0.5 0.1 3
v 0.4 0.1 3
v 0.5 0.1 3.2
v 0.4 0.2 3
v 0.3 0.2 3
v 0.3 0.2 3.2
v 1.2 0.1 2.9
v 1.1 0.1 2.9
v 1.2 0.1 3
v 1.1 0.2 2.9
v 0.9 0.2 2.9
v 1.1 0.2 3
v 0.3 0.1 2.9
v 0.2 0.1 2.9
v 0.2 0.1 3.3
v 0.3 0.1 3.3
v 2.4 0.2 2.8
v 2.3 0.2 2.8
v 2.3 0.2 3.1
v 2.3 0.1 2.8
v 2.2 0.1 2.8
v 2.2 0.1 3.2
v 2.3 0.1 3.2
v -1.3 0.1 2.7
v -1.4 0.1 2.7
v -1.4 0.1 2.8
v -1.3 0.1 2.8
v -1.6 0.1 2.7
v -1.6 0.1 2.9
v -1.4 0.1 2.9
v -2 0.1 2.7
v -2 0.1 2.8
v -1.6 0.1 2.8
v 0.6 0.1 2.6
v 0.5 0.1 2.6
v 0.5 0.2 2.6
v 0.4 0.2 2.6
v 0.5 0.2 3
v -1.1 0.1 2.6
v -1.2 0.1 2.6
v -1.2 0.1 2.7
v -1.1 0.1 2.7
v -1.3 0.1 2.6
v -1.2 0.1 2.8
v -1.3 0.2 2.6
v -1.9 0.2 2.6
v -1.9 0.2 2.7
v -1.3 0.2 2.7
v -1.9 0.1 2.6
v -2.1 0.1 2.6
v -2.1 0.1 2.7
v -1.9 0.1 2.7
v 2.3 0.2 2.5
v 2.2 0.2 2.5
v 2.2 0.2 2.8
v 2.2 0.1 2.5
v 2.1 0.1 2.5
v 2.1 0.1 2.8
v 1.3 0.1 2.5
v 1.2 0.1 2.5
v 1.3 0.1 3
v 1.2 0.2 2.5
v 1.1 0.2 2.5
v 1.2 0.2 2.9
v 0.4 0.1 2.5
v 0.3 0.1 2.5
v 0.3 0.1 3
v -1 0.1 2.5
v -1.1 0.1 2.5
v -1 0.1 2.7
v -1.1 0.2 2.5
v -1.3 0.2 2.5
v -1.1 0.2 2.6
v -1.9 0.2 2.5
v -2 0.2 2.5
v -2 0.2 2.6
v -2 0.1 2.5
v -2.2 0.1 2.5
v -2.2 0.1 2.6
v -2 0.1 2.6
v 2.9 0.1 2.4
v 2.8 0.1 2.4
v 2.9 0.1 3.6
v 2.8 0.2 2.4
v 2.7 0.2 2.4
v 2.8 0.2 3.5
v 0.7 0.1 2.4
v 0.6 0.1 2.4
v 0.6 0.1 3.1
v 0.6 0.2 2.4
v 0.5 0.2 2.4
v 0.6 0.2 2.6
v 0.5 0.1 2.4
v 0.4 0.1 2.4
v 0.4 0.1 2.6
v -0.9 0.1 2.4
v -1 0.1 2.4
v -1 0.1 2.6
v -0.9 0.1 2.6
v -1 0.2 2.4
v -1.1 0.2 2.4
v -1 0.2 2.5
v -2 0.2 2.4
v -2.2 0.2 2.4
v -2.2 0.2 2.5
v 0.8 0.1 2.3
v 0.7 0.1 2.3
v 0.7 0.1 3
v 0.8 0.1 3
v 0.7 0.2 2.3
v 0.6 0.2 2.3
v 0.7 0.2 2.4
v -0.8 0.1 2.3
v -0.9 0.1 2.3
v -0.9 0.1 2.5
v -0.8 0.1 2.5
v -0.9 0.2 2.3
v -1 0.2 2.3
v -0.9 0.2 2.4
v 2.2 0.2 2.2
v 2.1 0.2 2.2
v 2.1 0.2 2.5
v 2.1 0.1 2.2
v 2 0.1 2.2
v 2 0.1 2.6
v 2.1 0.1 2.6
v 1.4 0.1 2.2
v 1.3 0.1 2.2
v 1.3 0.1 2.6
v 1.4 0.1 2.6
v 1.3 0.2 2.2
v 1.2 0.2 2.2
v 1.3 0.2 2.5
v 0.9 0.1 2.2
v 0.8 0.1 2.2
v 0.8 0.2 2.2
v 0.7 0.2 2.2
v 0.8 0.2 2.3
v 0.6 0.1 2.2
v 0.5 0.1 2.2
v 3 0.1 2.1
v 2.9 0.1 2.1
v 2.9 0.1 2.5
v 3 0.1 2.5
v 2.9 0.2 2.1
v 2.8 0.2 2.1
v 2.9 0.2 2.4
v 0.7 0.1 2.1
v 0.6 0.1 2.1
v 0.6 0.1 2.3
v -0.7 0.1 2.1
v -0.8 0.1 2.1
v -0.8 0.1 2.4
v -0.7 0.1 2.4
v -0.8 0.2 2.1
v -0.9 0.2 2.1
v -0.8 0.2 2.3
v 1.5 0.1 2
v 1.4 0.1 2
v 1.4 0.1 2.3
v 1.5 0.1 2.3
v 1.4 0.2 2
v 1.3 0.2 2
v 1.4 0.2 2.2
v 2.1 0.2 1.9
v 2 0.2 1.9
v 2 0.2 2.2
v 2 0.1 1.9
v 1.9 0.1 1.9
v 1.9 0.1 2.3
v 2 0.1 2.3
v 1.6 0.1 1.9
v 1.5 0.1 1.9
v 1.5 0.1 2.1
v 1.6 0.1 2.1
v 1.5 0.2 1.9
v 1.4 0.2 1.9
v 1.5 0.2 2
v 2 0.2 1.8
v 1.9 0.2 1.8
v 1.9 0.2 1.9
v 1.9 0.1 1.8
v 1.8 0.1 1.8
v 1.8 0.1 2
v 1.9 0.1 2
v 1.7 0.1 1.8
v 1.7 0.1 1.9
v 1.8 0.1 1.9
v 1.6 0.1 1.8
v 1.6 0.1 2
v 1.7 0.1 2
v 1.6 0.2 1.8
v 1.5 0.2 1.8
v 1.6 0.2 1.9
v 1.9 0.2 1.7
v 1.6 0.2 1.7
v 3.1 0.1 1.5
v 3 0.1 1.5
v 3 0.1 2.2
v 3.1 0.1 2.2
v 3 0.2 1.5
v 2.9 0.2 1.5
v 3 0.2 2.1
v -0.7 0.2 1.5
v -0.8 0.2 1.5
v -0.7 0.2 2.1
v -0.8 0.1 1.5
v -0.9 0.1 1.5
v -0.9 0.1 2.1
v 3.2 0.1 1.4
v 3.1 0.1 1.4
v 3.1 0.1 1.6
v 3.2 0.1 1.6
v 3.1 0.2 1.4
v 3 0.2 1.4
v 3.1 0.2 1.5
v -0.6 0.1 1.4
v -0.7 0.1 1.4
v -0.7 0.1 2.2
v -0.6 0.1 2.2
v 0.9 0.2 1.2
v 0.8 0.2 1.2
v 0.9 0.2 2.2
v 0.8 0.1 1.2
v 0.7 0.1 1.2
v 0.7 0.1 2.2
v -0.8 0.2 1.2
v -0.9 0.2 1.2
v -0.9 0.2 1.5
v -0.9 0.1 1.2
v -1 0.1 1.2
v -1 0.1 2.3
v -0.7 0.1 1.1
v -0.8 0.1 1.1
v -0.7 0.1 1.5
v -0.9 0.2 1.1
v -1 0.2 1.1
v -1 0.2 1.2
v -1 0.1 1.1
v -1.1 0.1 1.1
v -1.1 0.1 2.4
v 3.2 0.2 1
v 3.1 0.2 1
v 3.2 0.2 1.4
v 3.1 0.1 1
v 3 0.1 1
v 3 0.1 1.4
v -0.8 0.1 1
v -0.9 0.1 1
v -0.8 0.1 1.2
v 3.3 0.1 0.9
v 3.2 0.1 0.9
v 3.2 0.1 1.5
v 3.3 0.1 1.5
v -1 0.2 0.9
v -1.1 0.2 0.9
v -1.1 0.2 1.1
v -1.1 0.1 0.9
v -1.3 0.1 0.9
v -1.3 0.1 2.5
v 3.1 0.2 0.8
v 3 0.2 0.8
v 3 0.2 1
v 3 0.1 0.8
v 2.9 0.1 0.8
v 2.9 0.1 1.5
v 0.8 0.2 0.8
v 0.7 0.2 0.8
v 0.7 0.2 1.2
v 0.7 0.1 0.8
v 0.6 0.1 0.8
v 0.6 0.1 1.3
v 0.7 0.1 1.3
v -0.9 0.1 0.8
v -1 0.1 0.8
v -0.9 0.1 1.1
v 3.2 0.1 0.7
v 3.1 0.1 0.7
v 3.2 0.1 1
v -1.1 0.2 0.7
v -1.2 0.2 0.7
v -1.2 0.2 0.9
v -1.2 0.1 0.7
v -1.3 0.1 0.7
v -1.2 0.1 0.9
v 3 0.2 0.6
v 2.9 0.2 0.6
v 2.9 0.2 0.8
v 2.9 0.1 0.6
v 2.8 0.1 0.6
v 2.8 0.1 2.1
v -1 0.1 0.6
v -1.1 0.1 0.6
v -1 0.1 0.9
v 3.1 0.1 0.5
v 3 0.1 0.5
v 3.1 0.1 0.8
v 0.7 0.2 0.4
v 0.6 0.2 0.4
v 0.6 0.2 0.8
v 0.6 0.1 0.4
v 0.5 0.1 0.4
v 0.5 0.1 0.9
v 0.6 0.1 0.9
v -1.1 0.1 0.2
v -1.2 0.1 0.2
v -1.1 0.1 0.7
v -1.2 0.2 0.2
v -1.3 0.2 0.2
v -1.3 0.2 0.7
v 3 0.1 0.1
v 2.9 0.1 0.1
v 3 0.1 0.6
v 2.9 0.2 0.1
v 2.8 0.2 0.1
v 2.8 0.2 0.6
v 3.1 0.1 -0.1
v 3 0.1 -0.1
v 3 0.1 0.2
v 3.1 0.1 0.2
v 3 0.2 -0.1
v 2.9 0.2 -0.1
v 3 0.2 0.1
v -1 0.1 -0.1
v -1.1 0.1 -0.1
v -1.1 0.1 0.3
v -1 0.1 0.3
v -1.1 0.2 -0.1
v -1.2 0.2 -0.1
v -1.1 0.2 0.2
v 0.7 0.1 -0.3
v 0.6 0.1 -0.3
v 0.7 0.1 0.4
v 0.6 0.2 -0.3
v 0.5 0.2 -0.3
v 0.5 0.2 0.4
v -0.9 0.1 -0.3
v -1 0.1 -0.3
v -1 0.1 0
v -0.9 0.1 0
v -1 0.2 -0.3
v -1.1 0.2 -0.3
v -1 0.2 -0.1
v 0.8 0.1 -0.4
v 0.7 0.1 -0.4
v 0.8 0.1 0.8
v 0.7 0.2 -0.4
v 0.6 0.2 -0.4
v 0.7 0.2 -0.3
v 0.5 0.1 -0.4
v 0.4 0.1 -0.4
v 0.4 0.1 0.5
v 0.5 0.1 0.5
v 3.1 0.2 -0.5
v 3 0.2 -0.5
v 3.1 0.2 -0.1
v 3 0.1 -0.5
v 2.9 0.1 -0.5
v 2.9 0.1 -0.1
v 0.6 0.1 -0.5
v 0.5 0.1 -0.5
v 0.5 0.1 -0.3
v 3.2 0.1 -0.6
v 3.1 0.1 -0.6
v 3.1 0.1 0
v 3.2 0.1 0
v -0.8 0.1 -0.6
v -0.9 0.1 -0.6
v -0.9 0.1 -0.2
v -0.8 0.1 -0.2
v -0.9 0.2 -0.6
v -1 0.2 -0.6
v -0.9 0.2 -0.3
v 0.9 0.1 -0.7
v 0.8 0.1 -0.7
v 0.9 0.1 1.2
v 0.8 0.2 -0.7
v 0.7 0.2 -0.7
v 0.8 0.2 -0.4
v 0.7 0.1 -0.8
v 0.6 0.1 -0.8
v 0.6 0.1 -0.4
v 3 0.2 -0.9
v 2.9 0.2 -0.9
v 2.9 0.2 -0.5
v 2.9 0.1 -0.9
v 2.8 0.1 -0.9
v 2.8 0.1 0.1
v -0.7 0.1 -0.9
v -0.8 0.1 -0.9
v -0.8 0.1 -0.5
v -0.7 0.1 -0.5
v -0.8 0.2 -0.9
v -0.9 0.2 -0.9
v -0.8 0.2 -0.6
v 3.1 0.1 -1
v 3 0.1 -1
v 3.1 0.1 -0.5
v 2.9 0.2 -1
v 2.8 0.2 -1
v 2.8 0.2 -0.9
v 2.8 0.1 -1
v 2.7 0.1 -1
v 2.7 0.1 2.4
v 3 0.1 -1.1
v 2.9 0.1 -1.1
v 3 0.1 -0.9
v 2.8 0.2 -1.1
v 2.7 0.2 -1.1
v 2.7 0.2 -1
v 2.7 0.1 -1.1
v 2.6 0.1 -1.1
v 2.6 0.1 3.4
v 2.7 0.1 3.4
v -0.6 0.1 -1.1
v -0.7 0.1 -1.1
v -0.7 0.1 -0.8
v -0.6 0.1 -0.8
v -0.7 0.2 -1.1
v -0.8 0.2 -1.1
v -0.7 0.2 -0.9
v 2.9 0.1 -1.2
v 2.8 0.1 -1.2
v 2.9 0.1 -1
v 2.7 0.2 -1.2
v 2.6 0.2 -1.2
v 2.6 0.2 -1.1
v 2.6 0.1 -1.2
v 2.5 0.1 -1.2
v 2.6 0.1 3.3
v 2.8 0.1 -1.3
v 2.7 0.1 -1.3
v 2.8 0.1 -1.1
v 2.6 0.2 -1.3
v 2.5 0.2 -1.3
v 2.5 0.2 -1.2
v 2.5 0.1 -1.3
v 2.4 0.1 -1.3
v 2.5 0.1 3.1
v 0.9 0.2 -1.3
v 0.8 0.2 -1.3
v 0.9 0.2 -0.7
v 0.8 0.1 -1.3
v 0.7 0.1 -1.3
v 0.7 0.1 -0.7
v 2.7 0.1 -1.4
v 2.6 0.1 -1.4
v 2.7 0.1 -1.2
v 2.5 0.2 -1.5
v 2.4 0.2 -1.5
v 2.4 0.2 -1.3
v 2.4 0.1 -1.5
v 2.3 0.1 -1.5
v 2.4 0.1 2.8
v 2.6 0.1 -1.6
v 2.5 0.1 -1.6
v 2.6 0.1 -1.3
v 2.4 0.2 -1.6
v 2.3 0.2 -1.6
v 2.3 0.2 -1.5
v 2.3 0.1 -1.6
v 2.2 0.1 -1.6
v 2.3 0.1 2.5
v 2.5 0.1 -1.7
v 2.4 0.1 -1.7
v 2.5 0.1 -1.5
v 2.3 0.2 -1.7
v 2.2 0.2 -1.7
v 2.2 0.2 -1.6
v 2.2 0.1 -1.7
v 2.1 0.1 -1.7
v 2.2 0.1 2.2
v 2 0.1 -1.7
v 2.1 0.1 1.9
v -0.5 0.1 -1.7
v -0.6 0.1 -1.7
v -0.6 0.1 -1
v -0.5 0.1 -1
v -0.6 0.2 -1.7
v -0.7 0.2 -1.7
v -0.6 0.2 -1.1
v 2.4 0.1 -1.8
v 2.3 0.1 -1.8
v 2.4 0.1 -1.6
v 2.2 0.2 -1.8
v 2 0.2 -1.8
v 2 0.2 -1.7
v 2 0.1 -1.8
v 1.9 0.1 -1.8
v 2 0.1 1.8
v 2.3 0.1 -1.9
v 2.2 0.1 -1.9
v 2.3 0.1 -1.7
v 2 0.1 -1.9
v 2.2 0.1 -1.8
v 2 0.2 -1.9
v 1.9 0.2 -1.9
v 1.9 0.2 -1.8
v 1.9 0.1 -1.9
v 1.6 0.1 -1.9
v 1.6 0.1 1.7
v 1.9 0.1 1.7
v 0.8 0.2 -1.9
v 0.7 0.2 -1.9
v 0.7 0.2 -1.3
v 0.7 0.1 -1.9
v 0.6 0.1 -1.9
v 0.6 0.1 -1.2
v 0.7 0.1 -1.2
v 2.1 0.1 -2
v 1.9 0.1 -2
v 2.1 0.1 -1.9
v 1.9 0.2 -2
v 1.8 0.2 -2
v 1.8 0.2 -1.9
v 1.8 0.1 -2
v 1.6 0.1 -2
v 1.8 0.1 -1.9
v 2 0.1 -2.1
v 1.8 0.1 -2.1
v 2 0.1 -2
v -0.3 0.1 -2.1
v -0.4 0.1 -2.1
v -0.4 0.1 -1.9
v -0.3 0.1 -1.9
v -0.6 0.1 -2.1
v -0.7 0.1 -2.1
v -0.7 0.1 -1.7
v 1.9 0.1 -2.2
v 1.8 0.1 -2.2
v 1.9 0.1 -2.1
v 1.8 0.2 -2.2
v 1.7 0.2 -2.2
v 1.7 0.2 -2
v 1.7 0.1 -2.2
v 1.6 0.1 -2.2
v 1.7 0.1 -2
v 1.5 0.1 -2.2
v 1.5 0.1 1.8
v 1.4 0.1 -2.2
v 1.4 0.1 1.9
v 1.3 0.1 -2.2
v 1.3 0.1 2
v 1.2 0.1 -2.2
v 1.2 0.1 2.2
v 1.1 0.1 -2.2
v 1.1 0.1 2.5
v 0.9 0.1 -2.2
v 0.9 0.1 2.9
v 0.8 0.1 -2.2
v 0.9 0.1 -1.3
v 0.7 0.1 -2.2
v 0.8 0.1 -1.9
v 0.7 0.2 -2.2
v 0.6 0.2 -2.2
v 0.6 0.2 -1.9
v 0.6 0.1 -2.2
v 0.5 0.1 -2.2
v 0.5 0.1 -1.8
v 0.6 0.1 -1.8
v -0.4 0.1 -2.2
v -0.5 0.1 -2.2
v -0.5 0.1 -1.6
v -0.4 0.1 -1.6
v -0.5 0.2 -2.2
v -0.6 0.2 -2.2
v -0.5 0.2 -1.7
v -0.7 0.2 -2.2
v -0.7 0.2 -2.1
v -0.6 0.2 -2.1
v -0.7 0.1 -2.2
v -0.8 0.1 -2.2
v -0.8 0.1 -1.1
v -0.9 0.1 -2.2
v -0.9 0.1 -0.9
v -1 0.1 -2.2
v -1 0.1 -0.6
v -1.1 0.1 -2.2
v -1.1 0.1 -0.3
v -1.2 0.1 -2.2
v -1.2 0.1 -0.1
v -1.3 0.1 -2.2
v -1.3 0.1 0.2
v -1.9 0.1 -2.2
v -2 0.1 -2.2
v -1.9 0.1 2.5
v -2.2 0.1 -2.2
v -2.2 0.1 2.4
v -2 0.1 2.4
v 2.8 0 3.5
v 2.8 0 3.6
v 2.4 0 3.6
v 2.4 0 3.5
v 2.5 0 3.3
v 2.5 0 3.5
v 2.4 0 3.3
v 0.6 0 3.3
v 0.6 0 3.4
v 0.5 0 3.4
v 0.5 0 3.3
v 0.5 0 3.5
v 0.4 0 3.5
v 0.4 0 3.3
v 0.7 0 3.2
v 0.7 0 3.4
v 0.6 0 3.2
v 0.4 0 3.2
v 0.4 0 3.4
v 0.3 0 3.4
v 0.3 0 3.2
v 3 0 3.1
v 3 0 3.4
v 2.9 0 3.4
v 2.9 0 3.1
v 2.4 0 3.1
v 2.4 0 3.4
v 2.3 0 3.4
v 2.3 0 3.1
v 0.9 0 3.1
v 0.9 0 3.2
v 0.8 0 3.2
v 0.8 0 3.1
v 0.8 0 3.3
v 0.7 0 3.3
v 0.7 0 3.1
v 1.1 0 3
v 1.1 0 3.1
v 0.9 0 3
v 0.4 0 3
v 0.3 0 3
v 1.2 0 2.9
v 1.2 0 3
v 1.1 0 2.9
v 0.3 0 2.9
v 0.3 0 3.3
v 0.2 0 3.3
v 0.2 0 2.9
v 2.3 0 2.8
v 2.3 0 3.2
v 2.2 0 3.2
v 2.2 0 2.8
v -1.3 0 2.7
v -1.3 0 2.8
v -1.4 0 2.8
v -1.4 0 2.7
v -1.4 0 2.9
v -1.6 0 2.9
v -1.6 0 2.7
v -1.6 0 2.8
v -2 0 2.8
v -2 0 2.7
v 0.5 0 2.6
v 0.4 0 2.6
v -1.1 0 2.6
v -1.1 0 2.7
v -1.2 0 2.7
v -1.2 0 2.6
v -1.2 0 2.8
v -1.3 0 2.6
v -1.9 0 2.6
v -1.9 0 2.7
v -2.1 0 2.7
v -2.1 0 2.6
v 2.2 0 2.5
v 2.1 0 2.8
v 2.1 0 2.5
v 1.3 0 2.5
v 1.3 0 3
v 1.2 0 2.5
v 0.4 0 2.5
v 0.3 0 2.5
v -1 0 2.5
v -1 0 2.7
v -1.1 0 2.5
v -2 0 2.5
v -2 0 2.6
v -2.2 0 2.6
v -2.2 0 2.5
v 2.9 0 2.4
v 2.9 0 3.6
v 2.8 0 2.4
v 0.6 0 2.4
v 0.5 0 2.4
v 0.4 0 2.4
v -0.9 0 2.4
v -0.9 0 2.6
v -1 0 2.6
v -1 0 2.4
v 0.7 0 2.3
v 0.6 0 2.3
v -0.8 0 2.3
v -0.8 0 2.5
v -0.9 0 2.5
v -0.9 0 2.3
v 2.1 0 2.2
v 2.1 0 2.6
v 2 0 2.6
v 2 0 2.2
v 1.4 0 2.2
v 1.4 0 2.6
v 1.3 0 2.6
v 1.3 0 2.2
v 0.8 0 2.2
v 0.7 0 2.2
v 0.6 0 2.2
v 0.5 0 2.2
v 3 0 2.1
v 3 0 2.5
v 2.9 0 2.5
v 2.9 0 2.1
v 0.7 0 2.1
v 0.6 0 2.1
v -0.7 0 2.1
v -0.7 0 2.4
v -0.8 0 2.4
v -0.8 0 2.1
v 1.5 0 2
v 1.5 0 2.3
v 1.4 0 2.3
v 1.4 0 2
v 2 0 1.9
v 2 0 2.3
v 1.9 0 2.3
v 1.9 0 1.9
v 1.6 0 1.9
v 1.6 0 2.1
v 1.5 0 2.1
v 1.5 0 1.9
v 1.9 0 1.8
v 1.9 0 2
v 1.8 0 2
v 1.8 0 1.8
v 1.8 0 1.9
v 1.7 0 1.9
v 1.7 0 1.8
v 1.7 0 2
v 1.6 0 2
v 1.6 0 1.8
v 3.1 0 1.5
v 3.1 0 2.2
v 3 0 2.2
v 3 0 1.5
v -0.7 0 1.5
v -0.8 0 1.5
v 3.2 0 1.4
v 3.2 0 1.6
v 3.1 0 1.6
v 3.1 0 1.4
v -0.6 0 1.4
v -0.6 0 2.2
v -0.7 0 2.2
v -0.7 0 1.4
v 0.8 0 1.2
v 0.7 0 1.2
v -0.8 0 1.2
v -0.9 0 1.2
v -0.7 0 1.1
v -0.8 0 1.1
v -0.9 0 1.1
v -1 0 1.1
v 3.2 0 1
v 3.1 0 1
v -0.8 0 1
v -0.9 0 1
v 3.3 0 0.9
v 3.3 0 1.5
v 3.2 0 1.5
v 3.2 0 0.9
v -1 0 0.9
v -1.1 0 0.9
v 3.1 0 0.8
v 3 0 0.8
v 0.7 0 0.8
v 0.7 0 1.3
v 0.6 0 1.3
v 0.6 0 0.8
v -0.9 0 0.8
v -1 0 0.8
v 3.2 0 0.7
v 3.1 0 0.7
v -1.1 0 0.7
v -1.3 0 0.7
v 3 0 0.6
v 2.9 0 0.6
v -1 0 0.6
v -1.1 0 0.6
v 3.1 0 0.5
v 3 0 0.5
v 0.6 0 0.4
v 0.6 0 0.9
v 0.5 0 0.9
v 0.5 0 0.4
v -1.1 0 0.2
v -1.2 0 0.7
v -1.2 0 0.2
v 3 0 0.1
v 2.9 0 0.1
v 3.1 0 -0.1
v 3.1 0 0.2
v 3 0 0.2
v 3 0 -0.1
v -1 0 -0.1
v -1 0 0.3
v -1.1 0 0.3
v -1.1 0 -0.1
v 0.6 0 -0.3
v 0.5 0 -0.3
v -0.9 0 -0.3
v -0.9 0 0
v -1 0 0
v -1 0 -0.3
v 0.7 0 -0.4
v 0.6 0 -0.4
v 0.5 0 -0.4
v 0.5 0 0.5
v 0.4 0 0.5
v 0.4 0 -0.4
v 3.1 0 -0.5
v 3 0 -0.5
v 0.6 0 -0.5
v 0.5 0 -0.5
v 3.2 0 -0.6
v 3.2 0 0
v 3.1 0 0
v 3.1 0 -0.6
v -0.8 0 -0.6
v -0.8 0 -0.2
v -0.9 0 -0.2
v -0.9 0 -0.6
v 0.8 0 -0.7
v 0.7 0 -0.7
v 0.7 0 -0.8
v 0.6 0 -0.8
v 3 0 -0.9
v 2.9 0 -0.9
v -0.7 0 -0.9
v -0.7 0 -0.5
v -0.8 0 -0.5
v -0.8 0 -0.9
v 3.1 0 -1
v 3 0 -1
v 2.9 0 -1
v 2.8 0 -1
v 3 0 -1.1
v 2.9 0 -1.1
v 2.8 0 -1.1
v 2.5 0 -1.1
v -0.6 0 -1.1
v -0.6 0 -0.8
v -0.7 0 -0.8
v -0.7 0 -1.1
v 2.9 0 -1.2
v 2.8 0 -1.2
v 2.7 0 -1.2
v 2.7 0 -1.1
v 2.5 0 -1.2
v 2.8 0 -1.3
v 2.7 0 -1.3
v 2.6 0 -1.3
v 2.6 0 -1.2
v 2.5 0 -1.3
v 0.8 0 -1.3
v 0.7 0 -1.3
v 2.7 0 -1.4
v 2.6 0 -1.4
v 2.5 0 -1.5
v 2.4 0 -1.5
v 2.6 0 -1.6
v 2.5 0 -1.6
v 2.4 0 -1.6
v 2.3 0 -1.6
v 2.5 0 -1.7
v 2.4 0 -1.7
v 2.3 0 -1.7
v 2.2 0 -1.7
v -0.5 0 -1.7
v -0.5 0 -1
v -0.6 0 -1
v -0.6 0 -1.7
v 2.4 0 -1.8
v 2.3 0 -1.8
v 2.2 0 -1.8
v 2.1 0 -1.8
v 2 0 -1.8
v 2.3 0 -1.9
v 2.2 0 -1.9
v 2 0 -1.9
v 1.9 0 -1.9
v 0.7 0 -1.9
v 0.7 0 -1.2
v 0.6 0 -1.2
v 0.6 0 -1.9
v 2.1 0 -2
v 2.1 0 -1.9
v 1.9 0 -2
v 1.6 0 -2
v 2 0 -2.1
v 2 0 -2
v 1.8 0 -2
v 1.8 0 -2.1
v -0.3 0 -2.1
v -0.3 0 -1.9
v -0.4 0 -1.9
v -0.4 0 -2.1
v 1.9 0 -2.2
v 1.9 0 -2.1
v 1.8 0 -2.2
v 1.6 0 -2.2
v 1.5 0 -2.2
v 1.4 0 -2.2
v 1.3 0 -2.2
v 1.2 0 -2.2
v 1.1 0 -2.2
v 0.9 0 -2.2
v 0.8 0 -2.2
v 0.7 0 -2.2
v 0.6 0 -2.2
v 0.6 0 -1.8
v 0.5 0 -1.8
v 0.5 0 -2.2
v -0.4 0 -2.2
v -0.4 0 -1.6
v -0.5 0 -1.6
v -0.5 0 -2.2
v -0.6 0 -2.2
v -0.7 0 -2.2
v -0.8 0 -2.2
v -0.9 0 -2.2
v -1 0 -2.2
v -1.1 0 -2.2
v -1.2 0 -2.2
v -1.3 0 -2.2
v -1.9 0 -2.2
v -2 0 -2.2
v -2.2 0 -2.2
v -2.3 0.1 2.4
v -2.3 0.1 2.6
v -2.5 0.1 2.4
v -2.5 0.1 2.5
v -2.3 0.1 2.5
v -2.2 0.2 2.3
v -2.4 0.2 2.3
v -2.4 0.2 2.4
v -2.4 0.1 2.3
v -2.7 0.1 2.3
v -2.7 0.1 2.4
v -2.4 0.1 2.4
v -2.4 0.2 2.2
v -2.6 0.2 2.2
v -2.6 0.2 2.3
v -2.7 0.1 2
v -2.8 0.1 2
v -2.8 0.1 2.2
v -2.7 0.1 2.2
v -2.5 0.2 1.1
v -2.6 0.2 1.1
v -2.5 0.2 2.2
v -2.6 0.1 1.1
v -2.7 0.1 1.1
v -2.6 0.1 2.3
v -2.6 0.2 1
v -2.7 0.2 1
v -2.7 0.2 1.1
v -2.7 0.1 1
v -2.8 0.1 1
v -2.8 0.1 1.2
v -2.7 0.1 1.2
v -2.7 0.2 0.9
v -2.8 0.2 0.9
v -2.8 0.2 1
v -2.8 0.1 0.9
v -2.9 0.1 0.9
v -2.9 0.1 1.1
v -2.8 0.1 1.1
v -3 0.1 0.9
v -3 0.1 1
v -2.9 0.1 1
v -2.8 0.2 0.8
v -3 0.2 0.8
v -3 0.2 0.9
v -3 0.1 0.8
v -3.2 0.1 0.8
v -3.2 0.1 0.9
v -2.9 0.1 0.3
v -3 0.1 0.3
v -2.9 0.1 0.8
v -3 0.2 0.3
v -3.1 0.2 0.3
v -3.1 0.2 0.8
v -2.8 0.1 0.2
v -2.9 0.1 0.2
v -2.8 0.1 0.8
v -2.9 0.2 0.2
v -3 0.2 0.2
v -2.9 0.2 0.3
v -3.1 0.1 0.2
v -3.2 0.1 0.2
v -3.1 0.1 0.8
v -3 0.1 0.1
v -3.1 0.1 0.1
v -3.1 0.1 0.3
v -2.8 0.2 -0.5
v -2.9 0.2 -0.5
v -2.8 0.2 0.2
v -2.9 0.1 -0.5
v -3 0.1 -0.5
v -3 0.1 0.2
v -2.9 0.2 -0.8
v -3 0.2 -0.8
v -3 0.2 -0.5
v -3 0.1 -0.8
v -3.1 0.1 -0.8
v -3.1 0.1 -0.4
v -3 0.1 -0.4
v -3 0.2 -1
v -3.1 0.2 -1
v -3.1 0.2 -0.8
v -3.1 0.1 -1
v -3.2 0.1 -1
v -3.2 0.1 -0.7
v -3.1 0.1 -0.7
v -3.1 0.2 -1.2
v -3.2 0.2 -1.2
v -3.2 0.2 -1
v -3.2 0.1 -1.2
v -3.3 0.1 -1.2
v -3.3 0.1 -0.9
v -3.2 0.1 -0.9
v -3.1 0.1 -1.4
v -3.2 0.1 -1.4
v -3.1 0.1 -1.2
v -3.2 0.2 -1.4
v -3.3 0.2 -1.4
v -3.3 0.2 -1.2
v -3 0.1 -1.5
v -3.1 0.1 -1.5
v -3 0.1 -1
v -3.1 0.2 -1.5
v -3.2 0.2 -1.5
v -3.1 0.2 -1.4
v -3.3 0.1 -1.5
v -3.4 0.1 -1.5
v -3.4 0.1 -1.1
v -3.3 0.1 -1.1
v -3.2 0.1 -1.6
v -3.3 0.1 -1.6
v -3.3 0.1 -1.4
v -2.9 0.1 -1.7
v -3 0.1 -1.7
v -2.9 0.1 -0.8
v -3 0.2 -1.7
v -3.1 0.2 -1.7
v -3 0.2 -1.5
v -2.8 0.1 -1.8
v -2.9 0.1 -1.8
v -2.8 0.1 -0.5
v -2.9 0.2 -1.8
v -3 0.2 -1.8
v -2.9 0.2 -1.7
v -3.1 0.1 -1.8
v -3.2 0.1 -1.8
v -3.2 0.1 -1.5
v -3 0.1 -1.9
v -3.1 0.1 -1.9
v -3.1 0.1 -1.7
v -2.7 0.1 -2.1
v -2.8 0.1 -2.1
v -2.7 0.1 0.9
v -2.8 0.2 -2.1
v -2.9 0.2 -2.1
v -2.8 0.2 -1.8
v -2.4 0.1 -2.2
v -2.2 0.1 2.3
v -2.5 0.1 -2.2
v -2.5 0.1 2.2
v -2.4 0.1 2.2
v -2.6 0.1 -2.2
v -2.5 0.1 1.1
v -2.7 0.1 -2.2
v -2.6 0.1 1
v -2.7 0.2 -2.2
v -2.8 0.2 -2.2
v -2.7 0.2 -2.1
v -2.8 0.1 -2.2
v -2.9 0.1 -2.2
v -2.9 0.1 -2.1
v -3 0.1 -2.2
v -3 0.1 -1.8
v -2.2 0 2.4
v -2.3 0 2.6
v -2.3 0 2.4
v -2.3 0 2.5
v -2.5 0 2.5
v -2.5 0 2.4
v -2.4 0 2.3
v -2.4 0 2.4
v -2.7 0 2.4
v -2.7 0 2.3
v -2.7 0 2
v -2.7 0 2.2
v -2.8 0 2.2
v -2.8 0 2
v -2.6 0 1.1
v -2.6 0 2.3
v -2.7 0 1.1
v -2.7 0 1
v -2.7 0 1.2
v -2.8 0 1.2
v -2.8 0 1
v -2.8 0 0.9
v -2.8 0 1.1
v -2.9 0 1.1
v -2.9 0 0.9
v -2.9 0 1
v -3 0 1
v -3 0 0.9
v -3 0 0.8
v -3.2 0 0.9
v -3.2 0 0.8
v -3 0 0.3
v -3.1 0 0.8
v -3.1 0 0.3
v -2.9 0 0.2
v -3 0 0.2
v -3.1 0 0.2
v -3.2 0 0.2
v -3 0 0.1
v -3.1 0 0.1
v -2.9 0 -0.5
v -3 0 -0.5
v -3 0 -0.8
v -3 0 -0.4
v -3.1 0 -0.4
v -3.1 0 -0.8
v -3.1 0 -1
v -3.1 0 -0.7
v -3.2 0 -0.7
v -3.2 0 -1
v -3.2 0 -1.2
v -3.2 0 -0.9
v -3.3 0 -0.9
v -3.3 0 -1.2
v -3.2 0 -1.4
v -3.3 0 -1.4
v -3.1 0 -1.5
v -3.2 0 -1.5
v -3.3 0 -1.5
v -3.3 0 -1.1
v -3.4 0 -1.1
v -3.4 0 -1.5
v -3.2 0 -1.6
v -3.3 0 -1.6
v -3 0 -1.7
v -3.1 0 -1.7
v -2.9 0 -1.8
v -3 0 -1.8
v -3.1 0 -1.8
v -3.2 0 -1.8
v -3 0 -1.9
v -3.1 0 -1.9
v -2.8 0 -2.1
v -2.9 0 -2.1
v -2.4 0 -2.2
v -2.6 0 -2.2
v -2.7 0 -2.2
v -2.8 0 -2.2
v -2.9 0 -2.2
v -3 0 -2.2
v -0.5 0.1 -2.3
v -0.7 0.1 -2.3
v -0.7 0.2 -2.3
v -0.9 0.2 -2.3
v -0.9 0.2 -2.2
v -0.9 0.1 -2.3
v -2.2 0.1 -2.3
v 0.8 0.1 -2.4
v 0.7 0.1 -2.4
v -0.6 0.1 -2.4
v -0.9 0.1 -2.4
v -0.6 0.1 -2.3
v -0.9 0.2 -2.4
v -1 0.2 -2.4
v -1 0.2 -2.3
v -1 0.1 -2.4
v -2.2 0.1 -2.4
v -1 0.1 -2.3
v 2 0.1 -2.5
v 1.9 0.1 -2.5
v 1.9 0.1 -2.4
v 2 0.1 -2.4
v 1.8 0.1 -2.5
v 1.8 0.2 -2.5
v 1.7 0.2 -2.5
v 0.9 0.1 -2.5
v 0.8 0.1 -2.5
v 0.8 0.2 -2.5
v 0.7 0.2 -2.5
v 0.7 0.2 -2.4
v 0.8 0.2 -2.4
v 0.6 0.2 -2.5
v -0.8 0.1 -2.5
v -1 0.1 -2.5
v -0.8 0.1 -2.4
v 2.2 0.1 -2.6
v 2.1 0.1 -2.6
v 2.1 0.1 -2.5
v 2.2 0.1 -2.5
v 2 0.1 -2.6
v 2.1 0.1 -2.4
v 2 0.2 -2.6
v 1.8 0.2 -2.6
v 2 0.2 -2.5
v 1 0.1 -2.6
v 0.9 0.1 -2.6
v 1 0.1 -2.2
v 0.9 0.2 -2.6
v 0.8 0.2 -2.6
v 0.9 0.2 -2.5
v 0.7 0.1 -2.6
v 0.6 0.1 -2.6
v 0.6 0.1 -2.5
v 0.7 0.1 -2.5
v 0.5 0.1 -2.6
v 2.3 0.1 -2.7
v 2.2 0.1 -2.7
v 2.3 0.1 -2.5
v 2.2 0.2 -2.7
v 2 0.2 -2.7
v 2.2 0.2 -2.6
v 1.1 0.1 -2.7
v 1 0.1 -2.7
v 1 0.2 -2.7
v 0.9 0.2 -2.7
v 1 0.2 -2.6
v 0.8 0.1 -2.7
v 0.7 0.1 -2.7
v 0.9 0.1 -2.8
v 0.8 0.1 -2.8
v 0.8 0.1 -2.6
v 2.5 0.1 -2.9
v 2.4 0.1 -2.9
v 2.4 0.1 -2.8
v 2.5 0.1 -2.8
v 2.3 0.1 -2.9
v 2.3 0.1 -2.6
v 2.4 0.1 -2.6
v 2.3 0.2 -2.9
v 2.2 0.2 -2.9
v 2.3 0.2 -2.7
v 2.9 0.1 -3
v 2.6 0.1 -3
v 2.6 0.1 -2.9
v 2.9 0.1 -2.9
v 2.5 0.1 -3
v 2.6 0.1 -2.8
v 2.5 0.2 -3
v 2.3 0.2 -3
v 2.5 0.2 -2.9
v 1.2 0.1 -3
v 1.1 0.1 -3
v 1.1 0.2 -3
v 1 0.2 -3
v 1.1 0.2 -2.7
v -1 0.2 -3
v -1.1 0.2 -3
v -1.1 0.2 -2.4
v -1.1 0.1 -3
v -2.2 0.1 -3
v -1.1 0.1 -2.4
v 3.1 0.1 -3.1
v 3 0.1 -3.1
v 3 0.1 -3
v 3.1 0.1 -3
v 2.9 0.1 -3.1
v 3 0.1 -2.9
v 2.9 0.2 -3.1
v 2.5 0.2 -3.1
v 2.9 0.2 -3
v 1 0.1 -3.1
v 0.9 0.1 -3.1
v 0.9 0.1 -2.7
v -0.9 0.1 -3.1
v -1 0.1 -3.1
v -0.9 0.1 -2.5
v -1.1 0.2 -3.1
v -1.2 0.2 -3.1
v -1.2 0.2 -3
v -1.2 0.1 -3.1
v -2.2 0.1 -3.1
v -1.2 0.1 -3
v 3 0.2 -3.2
v 2.9 0.2 -3.2
v 3 0.2 -3.1
v 1.4 0.1 -3.2
v 1.2 0.1 -3.2
v 1.2 0.2 -3.2
v 1.1 0.2 -3.2
v 1.2 0.2 -3
v -1 0.1 -3.2
v -1.1 0.1 -3.2
v -1 0.1 -3
v -1.2 0.2 -3.2
v -1.3 0.2 -3.2
v -1.3 0.2 -3.1
v -1.3 0.1 -3.2
v -1.9 0.1 -3.2
v -1.9 0.1 -3.1
v -1.3 0.1 -3.1
v -1.9 0.2 -3.2
v -2.2 0.2 -3.2
v -2.2 0.2 -3.1
v -1.9 0.2 -3.1
v 3.3 0.1 -3.3
v 3.2 0.1 -3.3
v 3.2 0.1 -3.1
v 3.3 0.1 -3.1
v 2.2 0.1 -3.3
v 2 0.1 -3.3
v 2 0.1 -2.7
v 1.8 0.1 -3.3
v 1.8 0.1 -2.6
v 1.7 0.1 -3.3
v 1.7 0.1 -2.5
v 1.4 0.1 -3.3
v 1.4 0.2 -3.3
v 1.2 0.2 -3.3
v 1.4 0.2 -3.2
v 1.1 0.1 -3.3
v 1 0.1 -3.3
v 1 0.1 -3
v -1.1 0.1 -3.3
v -1.2 0.1 -3.3
v -1.1 0.1 -3.1
v -1.3 0.2 -3.3
v -1.9 0.2 -3.3
v -2 0.1 -3.3
v -2.2 0.1 -3.3
v -2.2 0.1 -3.2
v -2 0.1 -3.2
v 3.1 0.2 -3.4
v 3 0.2 -3.4
v 3.1 0.2 -3.1
v 3 0.1 -3.4
v 2.9 0.1 -3.4
v 2.9 0.1 -3.2
v 3 0.1 -3.2
v 2.5 0.1 -3.4
v 2.3 0.1 -3.4
v 2.3 0.1 -3
v 2.2 0.1 -3.4
v 2.2 0.1 -2.9
v 2.2 0.2 -3.4
v 1.4 0.2 -3.4
v 2.2 0.2 -3.3
v 1.3 0.1 -3.4
v 1.2 0.1 -3.4
v 1.2 0.1 -3.3
v 1.3 0.1 -3.3
v 1.1 0.1 -3.4
v 1.1 0.1 -3.2
v -1.2 0.1 -3.4
v -1.3 0.1 -3.4
v -1.2 0.1 -3.2
v -1.9 0.1 -3.4
v -1.9 0.1 -3.3
v -1.3 0.1 -3.3
v -2 0.1 -3.4
v 3.2 0.1 -3.5
v 3.1 0.1 -3.5
v 3.2 0.1 -3
v 3 0.2 -3.5
v 2.9 0.2 -3.5
v 2.9 0.2 -3.4
v 2.9 0.1 -3.5
v 2.5 0.1 -3.5
v 2.5 0.1 -3.1
v 2.5 0.2 -3.5
v 2.2 0.2 -3.5
v 2.5 0.2 -3.4
v 2.1 0.1 -3.5
v 1.4 0.1 -3.5
v 1.4 0.1 -3.4
v 2.1 0.1 -3.4
v 1.3 0.1 -3.5
v 3.1 0.1 -3.6
v 3 0.1 -3.6
v 3.1 0.1 -3.4
v 2.9 0.2 -3.6
v 2.5 0.2 -3.6
v 2.4 0.1 -3.6
v 2.2 0.1 -3.6
v 2.2 0.1 -3.5
v 2.4 0.1 -3.5
v 2.1 0.1 -3.6
v 3 0.1 -3.7
v 2.9 0.1 -3.7
v 3 0.1 -3.5
v 2.7 0.1 -3.7
v 2.5 0.1 -3.7
v 2.5 0.1 -3.6
v 2.7 0.1 -3.6
v 2.4 0.1 -3.7
v 2.9 0.1 -3.8
v 2.7 0.1 -3.8
v 2.9 0.1 -3.6
v -0.5 0 -2.3
v -0.7 0 -2.3
v -2.2 0 -2.3
v -0.6 0 -2.4
v -0.6 0 -2.3
v -0.9 0 -2.3
v -0.9 0 -2.4
v -2.2 0 -2.4
v 2 0 -2.5
v 2 0 -2.4
v 1.9 0 -2.4
v 1.9 0 -2.5
v 1.8 0 -2.5
v 0.8 0 -2.5
v 0.6 0 -2.5
v -0.8 0 -2.5
v -0.8 0 -2.4
v -1 0 -2.4
v -1 0 -2.5
v 2.2 0 -2.6
v 2.2 0 -2.5
v 2.1 0 -2.5
v 2.1 0 -2.6
v 2.1 0 -2.4
v 2 0 -2.6
v 0.9 0 -2.6
v 0.8 0 -2.6
v 0.7 0 -2.6
v 0.7 0 -2.5
v 0.6 0 -2.6
v 0.5 0 -2.6
v 2.3 0 -2.7
v 2.3 0 -2.5
v 2.2 0 -2.7
v 1 0 -2.7
v 1 0 -2.2
v 0.9 0 -2.7
v 0.8 0 -2.7
v 0.7 0 -2.7
v 0.9 0 -2.8
v 0.8 0 -2.8
v 2.5 0 -2.9
v 2.5 0 -2.8
v 2.4 0 -2.8
v 2.4 0 -2.9
v 2.4 0 -2.6
v 2.3 0 -2.6
v 2.3 0 -2.9
v 2.9 0 -3
v 2.9 0 -2.9
v 2.6 0 -2.9
v 2.6 0 -3
v 2.6 0 -2.8
v 2.5 0 -3
v 1.1 0 -3
v 1 0 -3
v -1 0 -3
v -2.2 0 -3
v 3.1 0 -3.1
v 3.1 0 -3
v 3 0 -3
v 3 0 -3.1
v 3 0 -2.9
v 2.9 0 -3.1
v 1 0 -3.1
v 0.9 0 -3.1
v -0.9 0 -3.1
v -0.9 0 -2.5
v -1 0 -3.1
v -1.1 0 -3.1
v -1.1 0 -3
v -2.2 0 -3.1
v 1.2 0 -3.2
v 1.1 0 -3.2
v -1 0 -3.2
v -1.1 0 -3.2
v -1.2 0 -3.2
v -1.2 0 -3.1
v -2.2 0 -3.2
v 3.3 0 -3.3
v 3.3 0 -3.1
v 3.2 0 -3.1
v 3.2 0 -3.3
v 1.4 0 -3.3
v 1.2 0 -3.3
v 1.1 0 -3.3
v 1 0 -3.3
v -1.1 0 -3.3
v -1.2 0 -3.3
v -1.3 0 -3.3
v -1.3 0 -3.2
v -1.9 0 -3.2
v -1.9 0 -3.3
v -2 0 -3.3
v -2 0 -3.2
v -2.2 0 -3.3
v 3.1 0 -3.4
v 2.9 0 -3.4
v 2.2 0 -3.4
v 2 0 -3.4
v 1.8 0 -3.4
v 1.4 0 -3.4
v 1.3 0 -3.4
v 1.3 0 -3.3
v 1.2 0 -3.4
v 1.1 0 -3.4
v -1.2 0 -3.4
v -1.3 0 -3.4
v -1.9 0 -3.4
v -2 0 -3.4
v 3.2 0 -3.5
v 3.2 0 -3
v 3.1 0 -3.5
v 3 0 -3.5
v 3 0 -3.4
v 2.9 0 -3.5
v 2.5 0 -3.5
v 2.3 0 -3.5
v 2.2 0 -3.5
v 2.1 0 -3.5
v 2.1 0 -3.4
v 1.4 0 -3.5
v 1.3 0 -3.5
v 3.1 0 -3.6
v 3 0 -3.6
v 2.9 0 -3.6
v 2.5 0 -3.6
v 2.4 0 -3.6
v 2.4 0 -3.5
v 2.2 0 -3.6
v 2.1 0 -3.6
v 3 0 -3.7
v 2.9 0 -3.7
v 2.7 0 -3.7
v 2.7 0 -3.6
v 2.5 0 -3.7
v 2.4 0 -3.7
v 2.9 0 -3.8
v 2.7 0 -3.8
v -2.7 0.2 -2.5
v -2.8 0.2 -2.5
v -2.8 0.1 -2.5
v -2.9 0.1 -2.5
v -3.1 0.1 -2.5
v -3.1 0.1 -2.4
v -2.9 0.1 -2.4
v -2.8 0.2 -2.6
v -3 0.2 -2.6
v -3 0.2 -2.5
v -3 0.1 -2.6
v -3.2 0.1 -2.6
v -3.2 0.1 -2.5
v -3 0.1 -2.5
v -2.9 0.1 -2.8
v -3 0.1 -2.8
v -2.9 0.1 -2.6
v -3 0.2 -2.8
v -3.1 0.2 -2.8
v -3.1 0.2 -2.6
v -2.3 0.1 -2.9
v -2.7 0.1 -2.9
v -2.3 0.1 -2.2
v -2.8 0.1 -2.9
v -2.7 0.1 -2.5
v -2.9 0.1 -2.9
v -2.8 0.1 -2.6
v -3.1 0.1 -2.9
v -3.2 0.1 -2.9
v -3.1 0.1 -2.6
v -2.3 0.1 -3
v -2.3 0.2 -3
v -2.9 0.2 -3
v -2.9 0.2 -2.9
v -2.3 0.2 -2.9
v -3 0.2 -3
v -2.9 0.2 -2.8
v -2.3 0.2 -3.1
v -2.2 0.2 -3
v -2.4 0.1 -3.1
v -3 0.1 -3.1
v -3 0.1 -3
v -2.4 0.1 -3
v -3.1 0.1 -3.1
v -3.1 0.1 -2.8
v -2.3 0.1 -3.2
v -2.3 0.1 -3.1
v -2.4 0.1 -3.2
v -2.8 0 -2.5
v -2.9 0 -2.5
v -2.9 0 -2.4
v -3.1 0 -2.4
v -3.1 0 -2.5
v -3 0 -2.6
v -3 0 -2.5
v -3.2 0 -2.5
v -3.2 0 -2.6
v -3 0 -2.8
v -3.1 0 -2.6
v -3.1 0 -2.8
v -3.1 0 -2.9
v -3.2 0 -2.9
v -2.3 0 -3
v -2.3 0 -2.2
v -2.8 0 -3
v -3 0 -3
v -2.3 0 -3.1
v -2.4 0 -3.1
v -2.4 0 -3
v -3 0 -3.1
v -3.1 0 -3.1
v -2.3 0 -3.2
v -2.4 0 -3.2

vt 0.00585938 0.5
vt 0.0839844 0.5

vn 0 1 0
vn 0 -1 0
vn -1 0 0
vn 1 0 0
vn 0 0 -1
vn 0 0 1

usemtl palette
f 1/1/1 2/1/1 4/1/1
f 4/1/1 2/1/1 3/1/1
f 5/1/1 6/1/1 8/1/1
f 8/1/1 6/1/1 7/1/1
f 9/1/1 10/1/1 11/1/1
f 11/1/1 10/1/1 6/1/1
f 12/1/1 13/1/1 14/1/1
f 14/1/1 13/1/1 2/1/1
f 15/1/1 16/1/1 18/1/1
f 18/1/1 16/1/1 17/1/1
f 16/1/1 19/1/1 21/1/1
f 21/1/1 19/1/1 20/1/1
f 22/1/1 23/1/1 24/1/1
f 24/1/1 23/1/1 18/1/1
f 25/1/1 26/1/1 28/1/1
f 28/1/1 26/1/1 27/1/1
f 29/1/1 30/1/1 32/1/1
f 32/1/1 30/1/1 31/1/1
f 33/1/1 34/1/1 36/1/1
f 36/1/1 34/1/1 35/1/1
f 37/1/1 38/1/1 10/1/1
f 10/1/1 38/1/1 39/1/1
f 40/1/1 41/1/1 43/1/1
f 43/1/1 41/1/1 42/1/1
f 44/1/1 45/1/1 47/1/1
f 47/1/1 45/1/1 46/1/1
f 45/1/1 48/1/1 50/1/1
f 50/1/1 48/1/1 49/1/1
f 51/1/1 52/1/1 53/1/1
f 53/1/1 52/1/1 25/1/1
f 54/1/1 55/1/1 56/1/1
f 56/1/1 55/1/1 44/1/1
f 57/1/1 58/1/1 59/1/1
f 59/1/1 58/1/1 51/1/1
f 60/2/1 61/2/1 62/2/1
f 62/2/1 61/2/1 29/2/1
f 63/1/1 64/1/1 26/1/1
f 26/1/1 64/1/1 65/1/1
f 66/1/1 67/1/1 68/1/1
f 68/1/1 67/1/1 54/1/1
f 69/1/1 70/1/1 71/1/1
f 71/1/1 70/1/1 57/1/1
f 72/1/1 73/1/1 75/1/1
f 75/1/1 73/1/1 74/1/1
f 76/1/1 77/1/1 38/1/1
f 38/1/1 77/1/1 78/1/1
f 79/1/1 80/1/1 82/1/1
f 82/1/1 80/1/1 81/1/1
f 83/1/1 84/1/1 86/1/1
f 86/1/1 84/1/1 85/1/1
f 84/1/1 87/1/1 89/1/1
f 89/1/1 87/1/1 88/1/1
f 87/1/1 90/1/1 92/1/1
f 92/1/1 90/1/1 91/1/1
f 93/2/1 94/2/1 23/2/1
f 23/2/1 94/2/1 62/2/1
f 95/1/1 96/1/1 97/1/1
f 97/1/1 96/1/1 63/1/1
f 98/1/1 99/1/1 101/1/1
f 101/1/1 99/1/1 100/1/1
f 99/1/1 102/1/1 103/1/1
f 103/1/1 102/1/1 86/1/1
f 104/1/1 105/1/1 107/1/1
f 107/1/1 105/1/1 106/1/1
f 108/1/1 109/1/1 111/1/1
f 111/1/1 109/1/1 110/1/1
f 112/1/1 113/1/1 77/1/1
f 77/1/1 113/1/1 114/1/1
f 115/1/1 116/1/1 80/1/1
f 80/1/1 116/1/1 117/1/1
f 118/1/1 119/1/1 120/1/1
f 120/1/1 119/1/1 68/1/1
f 121/1/1 122/1/1 123/1/1
f 123/1/1 122/1/1 69/1/1
f 124/1/1 125/1/1 61/1/1
f 61/1/1 125/1/1 126/1/1
f 127/1/1 128/1/1 129/1/1
f 129/1/1 128/1/1 101/1/1
f 130/1/1 131/1/1 132/1/1
f 132/1/1 131/1/1 104/1/1
f 133/1/1 134/1/1 105/1/1
f 105/1/1 134/1/1 135/1/1
f 136/1/1 137/1/1 139/1/1
f 139/1/1 137/1/1 138/1/1
f 140/1/1 141/1/1 142/1/1
f 142/1/1 141/1/1 4/1/1
f 143/1/1 144/1/1 145/1/1
f 145/1/1 144/1/1 8/1/1
f 146/2/1 147/2/1 48/2/1
f 48/2/1 147/2/1 148/2/1
f 149/1/1 150/1/1 151/1/1
f 151/1/1 150/1/1 95/1/1
f 152/1/1 153/1/1 94/1/1
f 94/1/1 153/1/1 154/1/1
f 155/1/1 156/1/1 158/1/1
f 158/1/1 156/1/1 157/1/1
f 159/1/1 160/1/1 161/1/1
f 161/1/1 160/1/1 130/1/1
f 162/1/1 163/1/1 134/1/1
f 134/1/1 163/1/1 164/1/1
f 165/2/1 166/2/1 168/2/1
f 168/2/1 166/2/1 167/2/1
f 169/1/1 170/1/1 171/1/1
f 171/1/1 170/1/1 149/1/1
f 172/1/1 173/1/1 175/1/1
f 175/1/1 173/1/1 174/1/1
f 176/1/1 177/1/1 178/1/1
f 178/1/1 177/1/1 159/1/1
f 179/1/1 180/1/1 113/1/1
f 113/1/1 180/1/1 181/1/1
f 182/1/1 183/1/1 185/1/1
f 185/1/1 183/1/1 184/1/1
f 186/1/1 187/1/1 189/1/1
f 189/1/1 187/1/1 188/1/1
f 190/1/1 191/1/1 192/1/1
f 192/1/1 191/1/1 121/1/1
f 193/2/1 194/2/1 55/2/1
f 55/2/1 194/2/1 168/2/1
f 195/1/1 196/1/1 197/1/1
f 197/1/1 196/1/1 169/1/1
f 198/1/1 199/1/1 147/1/1
f 147/1/1 199/1/1 152/1/1
f 200/1/1 201/1/1 203/1/1
f 203/1/1 201/1/1 202/1/1
f 204/1/1 205/1/1 206/1/1
f 206/1/1 205/1/1 143/1/1
f 207/1/1 208/1/1 166/1/1
f 166/1/1 208/1/1 209/1/1
f 210/1/1 211/1/1 213/1/1
f 213/1/1 211/1/1 212/1/1
f 214/1/1 215/1/1 216/1/1
f 216/1/1 215/1/1 176/1/1
f 217/1/1 218/1/1 220/1/1
f 220/1/1 218/1/1 219/1/1
f 221/1/1 222/1/1 223/1/1
f 223/1/1 222/1/1 190/1/1
f 224/1/1 225/1/1 180/1/1
f 180/1/1 225/1/1 226/1/1
f 227/1/1 228/1/1 230/1/1
f 230/1/1 228/1/1 229/1/1
f 231/1/1 232/1/1 234/1/1
f 234/1/1 232/1/1 233/1/1
f 235/1/1 236/1/1 237/1/1
f 237/1/1 236/1/1 221/1/1
f 238/1/1 239/1/1 225/1/1
f 225/1/1 239/1/1 240/1/1
f 241/1/1 242/1/1 244/1/1
f 244/1/1 242/1/1 243/1/1
f 242/1/1 245/1/1 247/1/1
f 247/1/1 245/1/1 246/1/1
f 245/1/1 248/1/1 250/1/1
f 250/1/1 248/1/1 249/1/1
f 251/1/1 252/1/1 253/1/1
f 253/1/1 252/1/1 235/1/1
f 254/1/1 255/1/1 239/1/1
f 239/1/1 255/1/1 251/1/1
f 256/1/1 257/1/1 259/1/1
f 259/1/1 257/1/1 258/1/1
f 260/1/1 261/1/1 262/1/1
f 262/1/1 261/1/1 204/1/1
f 263/1/1 264/1/1 265/1/1
f 265/1/1 264/1/1 214/1/1
f 266/2/1 267/2/1 211/2/1
f 211/2/1 267/2/1 268/2/1
f 269/1/1 270/1/1 272/1/1
f 272/1/1 270/1/1 271/1/1
f 273/1/1 274/1/1 275/1/1
f 275/1/1 274/1/1 260/1/1
f 276/1/1 277/1/1 279/1/1
f 279/1/1 277/1/1 278/1/1
f 280/1/1 281/1/1 282/1/1
f 282/1/1 281/1/1 195/1/1
f 283/1/1 284/1/1 194/1/1
f 194/1/1 284/1/1 285/1/1
f 286/1/1 287/1/1 264/1/1
f 264/1/1 287/1/1 288/1/1
f 289/2/1 290/2/1 173/2/1
f 173/2/1 290/2/1 291/2/1
f 292/1/1 293/1/1 294/1/1
f 294/1/1 293/1/1 266/1/1
f 295/1/1 296/1/1 287/1/1
f 287/1/1 296/1/1 297/1/1
f 298/2/1 299/2/1 156/2/1
f 156/2/1 299/2/1 300/2/1
f 301/1/1 302/1/1 303/1/1
f 303/1/1 302/1/1 273/1/1
f 304/2/1 305/2/1 270/2/1
f 270/2/1 305/2/1 306/2/1
f 307/1/1 308/1/1 309/1/1
f 309/1/1 308/1/1 289/1/1
f 310/1/1 311/1/1 313/1/1
f 313/1/1 311/1/1 312/1/1
f 314/1/1 315/1/1 296/1/1
f 296/1/1 315/1/1 316/1/1
f 317/2/1 318/2/1 128/2/1
f 128/2/1 318/2/1 319/2/1
f 320/1/1 321/1/1 302/1/1
f 302/1/1 321/1/1 322/1/1
f 323/2/1 324/2/1 257/2/1
f 257/2/1 324/2/1 325/2/1
f 326/1/1 327/1/1 281/1/1
f 281/1/1 327/1/1 328/1/1
f 329/1/1 330/1/1 332/1/1
f 332/1/1 330/1/1 331/1/1
f 333/1/1 334/1/1 335/1/1
f 335/1/1 334/1/1 298/1/1
f 336/1/1 337/1/1 338/1/1
f 338/1/1 337/1/1 304/1/1
f 339/1/1 340/1/1 315/1/1
f 315/1/1 340/1/1 341/1/1
f 342/2/1 343/2/1 344/2/1
f 344/2/1 343/2/1 318/2/1
f 345/1/1 346/1/1 321/1/1
f 321/1/1 346/1/1 347/1/1
f 348/2/1 349/2/1 201/2/1
f 201/2/1 349/2/1 350/2/1
f 351/1/1 352/1/1 353/1/1
f 353/1/1 352/1/1 317/1/1
f 354/1/1 355/1/1 356/1/1
f 356/1/1 355/1/1 323/1/1
f 357/1/1 358/1/1 327/1/1
f 327/1/1 358/1/1 359/1/1
f 360/1/1 361/1/1 363/1/1
f 363/1/1 361/1/1 362/1/1
f 364/1/1 365/1/1 366/1/1
f 366/1/1 365/1/1 342/1/1
f 367/1/1 368/1/1 340/1/1
f 340/1/1 368/1/1 369/1/1
f 370/1/1 371/1/1 372/1/1
f 372/1/1 371/1/1 348/1/1
f 373/1/1 374/1/1 346/1/1
f 346/1/1 374/1/1 375/1/1
f 376/1/1 377/1/1 379/1/1
f 379/1/1 377/1/1 378/1/1
f 380/1/1 381/1/1 382/1/1
f 382/1/1 381/1/1 373/1/1
f 383/1/1 384/1/1 386/1/1
f 386/1/1 384/1/1 385/1/1
f 387/1/1 388/1/1 389/1/1
f 389/1/1 388/1/1 367/1/1
f 390/2/1 391/2/1 392/2/1
f 392/2/1 391/2/1 360/2/1
f 393/1/1 394/1/1 358/1/1
f 358/1/1 394/1/1 395/1/1
f 396/1/1 397/1/1 399/1/1
f 399/1/1 397/1/1 398/1/1
f 400/1/1 401/1/1 402/1/1
f 402/1/1 401/1/1 387/1/1
f 403/2/1 404/2/1 405/2/1
f 405/2/1 404/2/1 329/2/1
f 406/1/1 407/1/1 408/1/1
f 408/1/1 407/1/1 393/1/1
f 409/1/1 410/1/1 412/1/1
f 412/1/1 410/1/1 411/1/1
f 413/1/1 414/1/1 415/1/1
f 415/1/1 414/1/1 380/1/1
f 416/2/1 417/2/1 377/2/1
f 377/2/1 417/2/1 418/2/1
f 419/1/1 420/1/1 391/1/1
f 391/1/1 420/1/1 421/1/1
f 422/1/1 423/1/1 425/1/1
f 425/1/1 423/1/1 424/1/1
f 426/1/1 427/1/1 429/1/1
f 429/1/1 427/1/1 428/1/1
f 430/1/1 431/1/1 432/1/1
f 432/1/1 431/1/1 400/1/1
f 433/2/1 434/2/1 435/2/1
f 435/2/1 434/2/1 283/2/1
f 436/1/1 437/1/1 438/1/1
f 438/1/1 437/1/1 406/1/1
f 439/1/1 440/1/1 404/1/1
f 404/1/1 440/1/1 441/1/1
f 442/1/1 443/1/1 414/1/1
f 414/1/1 443/1/1 444/1/1
f 445/2/1 446/2/1 371/2/1
f 371/2/1 446/2/1 447/2/1
f 448/1/1 449/1/1 451/1/1
f 451/1/1 449/1/1 450/1/1
f 452/1/1 453/1/1 454/1/1
f 454/1/1 453/1/1 430/1/1
f 455/1/1 456/1/1 457/1/1
f 457/1/1 456/1/1 416/1/1
f 458/1/1 459/1/1 443/1/1
f 443/1/1 459/1/1 460/1/1
f 461/2/1 462/2/1 141/2/1
f 141/2/1 462/2/1 463/2/1
f 464/1/1 465/1/1 466/1/1
f 466/1/1 465/1/1 445/1/1
f 467/1/1 468/1/1 459/1/1
f 459/1/1 468/1/1 469/1/1
f 470/2/1 471/2/1 473/2/1
f 473/2/1 471/2/1 472/2/1
f 474/1/1 475/1/1 477/1/1
f 477/1/1 475/1/1 476/1/1
f 478/1/1 479/1/1 480/1/1
f 480/1/1 479/1/1 452/1/1
f 481/1/1 482/1/1 483/1/1
f 483/1/1 482/1/1 461/1/1
f 484/1/1 485/1/1 468/1/1
f 468/1/1 485/1/1 486/1/1
f 487/2/1 488/2/1 489/2/1
f 489/2/1 488/2/1 12/2/1
f 490/1/1 491/1/1 492/1/1
f 492/1/1 491/1/1 470/1/1
f 493/1/1 494/1/1 485/1/1
f 485/1/1 494/1/1 495/1/1
f 496/2/1 497/2/1 498/2/1
f 498/2/1 497/2/1 40/2/1
f 499/1/1 500/1/1 501/1/1
f 501/1/1 500/1/1 436/1/1
f 502/1/1 503/1/1 434/1/1
f 434/1/1 503/1/1 504/1/1
f 505/1/1 506/1/1 507/1/1
f 507/1/1 506/1/1 487/1/1
f 508/1/1 509/1/1 494/1/1
f 494/1/1 509/1/1 510/1/1
f 511/2/1 512/2/1 513/2/1
f 513/2/1 512/2/1 79/2/1
f 514/1/1 515/1/1 516/1/1
f 516/1/1 515/1/1 496/1/1
f 517/1/1 518/1/1 509/1/1
f 509/1/1 518/1/1 519/1/1
f 520/2/1 521/2/1 522/2/1
f 522/2/1 521/2/1 115/2/1
f 523/1/1 524/1/1 525/1/1
f 525/1/1 524/1/1 511/1/1
f 526/1/1 527/1/1 518/1/1
f 518/1/1 527/1/1 528/1/1
f 529/2/1 530/2/1 531/2/1
f 531/2/1 530/2/1 182/2/1
f 530/2/1 532/2/1 533/2/1
f 533/2/1 532/2/1 227/2/1
f 534/1/1 535/1/1 537/1/1
f 537/1/1 535/1/1 536/1/1
f 538/1/1 539/1/1 540/1/1
f 540/1/1 539/1/1 478/1/1
f 541/1/1 542/1/1 543/1/1
f 543/1/1 542/1/1 520/1/1
f 544/1/1 545/1/1 527/1/1
f 527/1/1 545/1/1 546/1/1
f 547/2/1 548/2/1 549/2/1
f 549/2/1 548/2/1 241/2/1
f 550/1/1 551/1/1 552/1/1
f 552/1/1 551/1/1 529/1/1
f 551/1/1 553/1/1 554/1/1
f 554/1/1 553/1/1 547/1/1
f 555/1/1 556/1/1 545/1/1
f 545/1/1 556/1/1 557/1/1
f 558/2/1 559/2/1 561/2/1
f 561/2/1 559/2/1 560/2/1
f 562/1/1 563/1/1 500/1/1
f 500/1/1 563/1/1 564/1/1
f 565/1/1 566/1/1 568/1/1
f 568/1/1 566/1/1 567/1/1
f 569/1/1 570/1/1 571/1/1
f 571/1/1 570/1/1 558/1/1
f 572/1/1 573/1/1 556/1/1
f 556/1/1 573/1/1 574/1/1
f 575/2/1 576/2/1 577/2/1
f 577/2/1 576/2/1 559/2/1
f 578/1/1 579/1/1 580/1/1
f 580/1/1 579/1/1 575/1/1
f 581/1/1 582/1/1 584/1/1
f 584/1/1 582/1/1 583/1/1
f 585/2/1 586/2/1 535/2/1
f 535/2/1 586/2/1 587/2/1
f 588/1/1 589/1/1 590/1/1
f 590/1/1 589/1/1 579/1/1
f 591/1/1 592/1/1 573/1/1
f 573/1/1 592/1/1 593/1/1
f 594/2/1 595/2/1 596/2/1
f 596/2/1 595/2/1 576/2/1
f 595/2/1 597/2/1 248/2/1
f 248/2/1 597/2/1 598/2/1
f 597/2/1 599/2/1 232/2/1
f 232/2/1 599/2/1 600/2/1
f 599/2/1 601/2/1 218/2/1
f 218/2/1 601/2/1 602/2/1
f 601/2/1 603/2/1 187/2/1
f 187/2/1 603/2/1 604/2/1
f 603/2/1 605/2/1 119/2/1
f 119/2/1 605/2/1 606/2/1
f 605/2/1 607/2/1 67/2/1
f 67/2/1 607/2/1 608/2/1
f 607/2/1 609/2/1 610/2/1
f 610/2/1 609/2/1 502/2/1
f 609/2/1 611/2/1 612/2/1
f 612/2/1 611/2/1 565/2/1
f 613/1/1 614/1/1 563/1/1
f 563/1/1 614/1/1 615/1/1
f 616/1/1 617/1/1 619/1/1
f 619/1/1 617/1/1 618/1/1
f 620/1/1 621/1/1 623/1/1
f 623/1/1 621/1/1 622/1/1
f 624/1/1 625/1/1 626/1/1
f 626/1/1 625/1/1 538/1/1
f 625/1/1 627/1/1 629/1/1
f 629/1/1 627/1/1 628/1/1
f 630/2/1 631/2/1 475/2/1
f 475/2/1 631/2/1 632/2/1
f 631/2/1 633/2/1 449/2/1
f 449/2/1 633/2/1 634/2/1
f 633/2/1 635/2/1 427/2/1
f 427/2/1 635/2/1 636/2/1
f 635/2/1 637/2/1 397/2/1
f 397/2/1 637/2/1 638/2/1
f 637/2/1 639/2/1 384/2/1
f 384/2/1 639/2/1 640/2/1
f 639/2/1 641/2/1 365/2/1
f 365/2/1 641/2/1 642/2/1
f 641/2/1 643/2/1 102/2/1
f 102/2/1 643/2/1 108/2/1
f 643/2/1 644/2/1 645/2/1
f 645/2/1 644/2/1 136/2/1
f 644/2/1 646/2/1 648/2/1
f 648/2/1 646/2/1 647/2/1
f 649/1/2 650/1/2 652/1/2
f 652/1/2 650/1/2 651/1/2
f 653/1/2 654/1/2 655/1/2
f 655/1/2 654/1/2 652/1/2
f 656/1/2 657/1/2 659/1/2
f 659/1/2 657/1/2 658/1/2
f 659/1/2 660/1/2 662/1/2
f 662/1/2 660/1/2 661/1/2
f 663/1/2 664/1/2 665/1/2
f 665/1/2 664/1/2 657/1/2
f 666/1/2 667/1/2 669/1/2
f 669/1/2 667/1/2 668/1/2
f 670/1/2 671/1/2 673/1/2
f 673/1/2 671/1/2 672/1/2
f 674/1/2 675/1/2 677/1/2
f 677/1/2 675/1/2 676/1/2
f 678/1/2 679/1/2 681/1/2
f 681/1/2 679/1/2 680/1/2
f 681/1/2 682/1/2 684/1/2
f 684/1/2 682/1/2 683/1/2
f 685/1/2 686/1/2 687/1/2
f 687/1/2 686/1/2 678/1/2
f 688/2/2 666/2/2 689/2/2
f 689/2/2 666/2/2 669/2/2
f 690/1/2 691/1/2 692/1/2
f 692/1/2 691/1/2 685/1/2
f 693/1/2 694/1/2 696/1/2
f 696/1/2 694/1/2 695/1/2
f 697/1/2 698/1/2 700/1/2
f 700/1/2 698/1/2 699/1/2
f 701/1/2 702/1/2 704/1/2
f 704/1/2 702/1/2 703/1/2
f 704/1/2 705/1/2 707/1/2
f 707/1/2 705/1/2 706/1/2
f 707/1/2 708/1/2 710/1/2
f 710/1/2 708/1/2 709/1/2
f 711/2/2 659/2/2 712/2/2
f 712/2/2 659/2/2 662/2/2
f 713/1/2 714/1/2 716/1/2
f 716/1/2 714/1/2 715/1/2
f 716/1/2 717/1/2 718/1/2
f 718/1/2 717/1/2 702/1/2
f 719/1/2 720/1/2 722/1/2
f 722/1/2 720/1/2 721/1/2
f 723/1/2 700/1/2 725/1/2
f 725/1/2 700/1/2 724/1/2
f 726/1/2 727/1/2 728/1/2
f 728/1/2 727/1/2 691/1/2
f 729/1/2 688/1/2 730/1/2
f 730/1/2 688/1/2 689/1/2
f 731/1/2 732/1/2 733/1/2
f 733/1/2 732/1/2 714/1/2
f 734/1/2 735/1/2 737/1/2
f 737/1/2 735/1/2 736/1/2
f 738/1/2 739/1/2 740/1/2
f 740/1/2 739/1/2 650/1/2
f 741/2/2 656/2/2 742/2/2
f 742/2/2 656/2/2 659/2/2
f 742/1/2 711/1/2 743/1/2
f 743/1/2 711/1/2 712/1/2
f 744/1/2 745/1/2 747/1/2
f 747/1/2 745/1/2 746/1/2
f 748/2/2 663/2/2 749/2/2
f 749/2/2 663/2/2 665/2/2
f 750/1/2 751/1/2 753/1/2
f 753/1/2 751/1/2 752/1/2
f 754/1/2 755/1/2 757/1/2
f 757/1/2 755/1/2 756/1/2
f 758/1/2 759/1/2 761/1/2
f 761/1/2 759/1/2 760/1/2
f 762/2/2 681/2/2 763/2/2
f 763/2/2 681/2/2 684/2/2
f 764/1/2 741/1/2 765/1/2
f 765/1/2 741/1/2 742/1/2
f 766/1/2 767/1/2 769/1/2
f 769/1/2 767/1/2 768/1/2
f 770/1/2 748/1/2 771/1/2
f 771/1/2 748/1/2 749/1/2
f 772/1/2 773/1/2 775/1/2
f 775/1/2 773/1/2 774/1/2
f 776/1/2 777/1/2 779/1/2
f 779/1/2 777/1/2 778/1/2
f 780/1/2 781/1/2 783/1/2
f 783/1/2 781/1/2 782/1/2
f 784/1/2 785/1/2 787/1/2
f 787/1/2 785/1/2 786/1/2
f 788/1/2 789/1/2 791/1/2
f 791/1/2 789/1/2 790/1/2
f 791/1/2 792/1/2 794/1/2
f 794/1/2 792/1/2 793/1/2
f 794/1/2 795/1/2 797/1/2
f 797/1/2 795/1/2 796/1/2
f 798/1/2 799/1/2 801/1/2
f 801/1/2 799/1/2 800/1/2
f 802/2/2 772/2/2 803/2/2
f 803/2/2 772/2/2 775/2/2
f 804/1/2 805/1/2 807/1/2
f 807/1/2 805/1/2 806/1/2
f 808/1/2 809/1/2 811/1/2
f 811/1/2 809/1/2 810/1/2
f 812/1/2 762/1/2 813/1/2
f 813/1/2 762/1/2 763/1/2
f 814/2/2 750/2/2 815/2/2
f 815/2/2 750/2/2 753/2/2
f 816/1/2 802/1/2 817/1/2
f 817/1/2 802/1/2 803/1/2
f 818/2/2 744/2/2 819/2/2
f 819/2/2 744/2/2 747/2/2
f 820/2/2 804/2/2 821/2/2
f 821/2/2 804/2/2 807/2/2
f 822/1/2 814/1/2 823/1/2
f 823/1/2 814/1/2 815/1/2
f 824/1/2 825/1/2 827/1/2
f 827/1/2 825/1/2 826/1/2
f 828/2/2 731/2/2 829/2/2
f 829/2/2 731/2/2 733/2/2
f 830/2/2 798/2/2 831/2/2
f 831/2/2 798/2/2 801/2/2
f 832/1/2 833/1/2 835/1/2
f 835/1/2 833/1/2 834/1/2
f 836/1/2 818/1/2 837/1/2
f 837/1/2 818/1/2 819/1/2
f 838/1/2 820/1/2 839/1/2
f 839/1/2 820/1/2 821/1/2
f 840/2/2 713/2/2 841/2/2
f 841/2/2 713/2/2 718/2/2
f 842/2/2 766/2/2 843/2/2
f 843/2/2 766/2/2 769/2/2
f 844/1/2 828/1/2 845/1/2
f 845/1/2 828/1/2 829/1/2
f 846/1/2 830/1/2 847/1/2
f 847/1/2 830/1/2 831/1/2
f 848/1/2 849/1/2 851/1/2
f 851/1/2 849/1/2 850/1/2
f 852/1/2 840/1/2 854/1/2
f 854/1/2 840/1/2 853/1/2
f 855/1/2 842/1/2 856/1/2
f 856/1/2 842/1/2 843/1/2
f 857/1/2 858/1/2 860/1/2
f 860/1/2 858/1/2 859/1/2
f 861/1/2 862/1/2 864/1/2
f 864/1/2 862/1/2 863/1/2
f 865/2/2 848/2/2 866/2/2
f 866/2/2 848/2/2 851/2/2
f 867/1/2 868/1/2 870/1/2
f 870/1/2 868/1/2 869/1/2
f 871/2/2 832/2/2 872/2/2
f 872/2/2 832/2/2 835/2/2
f 873/1/2 874/1/2 876/1/2
f 876/1/2 874/1/2 875/1/2
f 877/2/2 857/2/2 878/2/2
f 878/2/2 857/2/2 860/2/2
f 879/1/2 865/1/2 880/1/2
f 880/1/2 865/1/2 866/1/2
f 881/1/2 882/1/2 884/1/2
f 884/1/2 882/1/2 883/1/2
f 885/1/2 886/1/2 888/1/2
f 888/1/2 886/1/2 887/1/2
f 889/2/2 812/2/2 890/2/2
f 890/2/2 812/2/2 813/2/2
f 891/1/2 871/1/2 892/1/2
f 892/1/2 871/1/2 872/1/2
f 893/2/2 855/2/2 894/2/2
f 894/2/2 855/2/2 856/2/2
f 895/1/2 896/1/2 898/1/2
f 898/1/2 896/1/2 897/1/2
f 899/1/2 877/1/2 900/1/2
f 900/1/2 877/1/2 878/1/2
f 901/2/2 738/2/2 902/2/2
f 902/2/2 738/2/2 740/2/2
f 903/1/2 893/1/2 904/1/2
f 904/1/2 893/1/2 894/1/2
f 905/2/2 649/2/2 906/2/2
f 906/2/2 649/2/2 654/2/2
f 907/1/2 908/1/2 910/1/2
f 910/1/2 908/1/2 909/1/2
f 911/1/2 901/1/2 912/1/2
f 912/1/2 901/1/2 902/1/2
f 913/2/2 914/2/2 915/2/2
f 915/2/2 914/2/2 906/2/2
f 916/1/2 905/1/2 917/1/2
f 917/1/2 905/1/2 914/1/2
f 918/2/2 919/2/2 920/2/2
f 920/2/2 919/2/2 915/2/2
f 921/1/2 889/1/2 922/1/2
f 922/1/2 889/1/2 890/1/2
f 923/1/2 913/1/2 924/1/2
f 924/1/2 913/1/2 919/1/2
f 925/2/2 653/2/2 926/2/2
f 926/2/2 653/2/2 655/2/2
f 927/1/2 918/1/2 928/1/2
f 928/1/2 918/1/2 920/1/2
f 929/2/2 674/2/2 930/2/2
f 930/2/2 674/2/2 677/2/2
f 931/1/2 925/1/2 932/1/2
f 932/1/2 925/1/2 926/1/2
f 933/2/2 697/2/2 934/2/2
f 934/2/2 697/2/2 700/2/2
f 935/1/2 936/1/2 938/1/2
f 938/1/2 936/1/2 937/1/2
f 939/1/2 929/1/2 940/1/2
f 940/1/2 929/1/2 930/1/2
f 941/2/2 723/2/2 942/2/2
f 942/2/2 723/2/2 725/2/2
f 942/2/2 754/2/2 943/2/2
f 943/2/2 754/2/2 757/2/2
f 944/1/2 933/1/2 945/1/2
f 945/1/2 933/1/2 934/1/2
f 945/1/2 941/1/2 946/1/2
f 946/1/2 941/1/2 943/1/2
f 946/2/2 780/2/2 947/2/2
f 947/2/2 780/2/2 783/2/2
f 948/1/2 949/1/2 951/1/2
f 951/1/2 949/1/2 950/1/2
f 952/1/2 953/1/2 954/1/2
f 954/1/2 953/1/2 947/1/2
f 954/2/2 788/2/2 955/2/2
f 955/2/2 788/2/2 797/2/2
f 956/1/2 957/1/2 959/1/2
f 959/1/2 957/1/2 958/1/2
f 960/1/2 961/1/2 963/1/2
f 963/1/2 961/1/2 962/1/2
f 964/1/2 965/1/2 966/1/2
f 966/1/2 965/1/2 959/1/2
f 966/2/2 958/2/2 967/2/2
f 967/2/2 958/2/2 955/2/2
f 967/2/2 784/2/2 968/2/2
f 968/2/2 784/2/2 787/2/2
f 968/2/2 776/2/2 969/2/2
f 969/2/2 776/2/2 779/2/2
f 969/2/2 758/2/2 970/2/2
f 970/2/2 758/2/2 761/2/2
f 970/2/2 726/2/2 971/2/2
f 971/2/2 726/2/2 728/2/2
f 971/2/2 690/2/2 972/2/2
f 972/2/2 690/2/2 692/2/2
f 972/2/2 685/2/2 973/2/2
f 973/2/2 685/2/2 687/2/2
f 973/2/2 678/2/2 974/2/2
f 974/2/2 678/2/2 681/2/2
f 974/2/2 921/2/2 975/2/2
f 975/2/2 921/2/2 922/2/2
f 975/2/2 948/2/2 976/2/2
f 976/2/2 948/2/2 951/2/2
f 976/1/2 977/1/2 979/1/2
f 979/1/2 977/1/2 978/1/2
f 980/1/2 981/1/2 983/1/2
f 983/1/2 981/1/2 982/1/2
f 983/2/2 935/2/2 984/2/2
f 984/2/2 935/2/2 938/2/2
f 984/2/2 907/2/2 985/2/2
f 985/2/2 907/2/2 910/2/2
f 985/2/2 895/2/2 986/2/2
f 986/2/2 895/2/2 898/2/2
f 986/2/2 885/2/2 987/2/2
f 987/2/2 885/2/2 888/2/2
f 987/2/2 867/2/2 988/2/2
f 988/2/2 867/2/2 870/2/2
f 988/2/2 861/2/2 989/2/2
f 989/2/2 861/2/2 864/2/2
f 989/2/2 852/2/2 990/2/2
f 990/2/2 852/2/2 854/2/2
f 990/2/2 853/2/2 991/2/2
f 991/2/2 853/2/2 841/2/2
f 991/2/2 701/2/2 992/2/2
f 992/2/2 701/2/2 720/2/2
f 992/2/2 719/2/2 993/2/2
f 993/2/2 719/2/2 735/2/2
f 993/2/2 734/2/2 994/2/2
f 994/2/2 734/2/2 737/2/2
f 3/1/3 43/1/3 651/1/3
f 651/1/3 43/1/3 675/1/3
f 20/1/3 32/1/3 661/1/3
f 661/1/3 32/1/3 667/1/3
f 31/1/3 75/1/3 668/1/3
f 668/1/3 75/1/3 694/1/3
f 42/1/3 82/1/3 676/1/3
f 676/1/3 82/1/3 698/1/3
f 74/1/3 73/1/3 695/1/3
f 695/1/3 73/1/3 696/1/3
f 81/1/3 80/1/3 699/1/3
f 699/1/3 80/1/3 700/1/3
f 88/1/3 92/1/3 706/1/3
f 706/1/3 92/1/3 708/1/3
f 91/1/3 90/1/3 709/1/3
f 709/1/3 90/1/3 710/1/3
f 117/1/3 185/1/3 724/1/3
f 724/1/3 185/1/3 755/1/3
f 110/1/3 109/1/3 721/1/3
f 721/1/3 109/1/3 722/1/3
f 72/1/3 125/1/3 693/1/3
f 693/1/3 125/1/3 730/1/3
f 124/1/3 153/1/3 729/1/3
f 729/1/3 153/1/3 743/1/3
f 184/1/3 230/1/3 756/1/3
f 756/1/3 230/1/3 781/1/3
f 152/1/3 199/1/3 742/1/3
f 742/1/3 199/1/3 765/1/3
f 198/1/3 208/1/3 764/1/3
f 764/1/3 208/1/3 771/1/3
f 229/1/3 244/1/3 782/1/3
f 782/1/3 244/1/3 789/1/3
f 243/1/3 247/1/3 790/1/3
f 790/1/3 247/1/3 792/1/3
f 207/1/3 332/1/3 770/1/3
f 770/1/3 332/1/3 833/1/3
f 331/1/3 363/1/3 834/1/3
f 834/1/3 363/1/3 849/1/3
f 362/1/3 412/1/3 850/1/3
f 850/1/3 412/1/3 874/1/3
f 411/1/3 410/1/3 875/1/3
f 875/1/3 410/1/3 876/1/3
f 409/1/3 420/1/3 873/1/3
f 873/1/3 420/1/3 880/1/3
f 419/1/3 440/1/3 879/1/3
f 879/1/3 440/1/3 892/1/3
f 439/1/3 568/1/3 891/1/3
f 891/1/3 568/1/3 949/1/3
f 567/1/3 619/1/3 950/1/3
f 950/1/3 619/1/3 977/1/3
f 618/1/3 617/1/3 978/1/3
f 978/1/3 617/1/3 979/1/3
f 7/1/3 10/1/3 14/1/3
f 14/1/3 10/1/3 12/1/3
f 27/1/3 26/1/3 19/1/3
f 19/1/3 26/1/3 29/1/3
f 39/1/3 38/1/3 13/1/3
f 13/1/3 38/1/3 40/1/3
f 25/1/3 52/1/3 23/1/3
f 23/1/3 52/1/3 148/1/3
f 51/1/3 58/1/3 48/1/3
f 48/1/3 58/1/3 167/1/3
f 65/1/3 64/1/3 30/1/3
f 30/1/3 64/1/3 126/1/3
f 57/1/3 70/1/3 55/1/3
f 55/1/3 70/1/3 608/1/3
f 78/1/3 77/1/3 41/1/3
f 41/1/3 77/1/3 79/1/3
f 63/1/3 96/1/3 61/1/3
f 61/1/3 96/1/3 154/1/3
f 106/1/3 105/1/3 111/1/3
f 111/1/3 105/1/3 108/1/3
f 114/1/3 113/1/3 80/1/3
f 80/1/3 113/1/3 115/1/3
f 69/1/3 122/1/3 67/1/3
f 67/1/3 122/1/3 606/1/3
f 104/1/3 131/1/3 102/1/3
f 102/1/3 131/1/3 319/1/3
f 135/1/3 134/1/3 139/1/3
f 139/1/3 134/1/3 136/1/3
f 5/1/3 144/1/3 473/1/3
f 473/1/3 144/1/3 463/1/3
f 95/1/3 150/1/3 94/1/3
f 94/1/3 150/1/3 152/1/3
f 130/1/3 160/1/3 128/1/3
f 128/1/3 160/1/3 300/1/3
f 164/1/3 163/1/3 137/1/3
f 137/1/3 163/1/3 647/1/3
f 149/1/3 170/1/3 147/1/3
f 147/1/3 170/1/3 209/1/3
f 159/1/3 177/1/3 156/1/3
f 156/1/3 177/1/3 291/1/3
f 181/1/3 180/1/3 116/1/3
f 116/1/3 180/1/3 182/1/3
f 121/1/3 191/1/3 119/1/3
f 119/1/3 191/1/3 604/1/3
f 169/1/3 196/1/3 166/1/3
f 166/1/3 196/1/3 285/1/3
f 143/1/3 205/1/3 141/1/3
f 141/1/3 205/1/3 350/1/3
f 176/1/3 215/1/3 173/1/3
f 173/1/3 215/1/3 268/1/3
f 190/1/3 222/1/3 187/1/3
f 187/1/3 222/1/3 602/1/3
f 226/1/3 225/1/3 183/1/3
f 183/1/3 225/1/3 227/1/3
f 221/1/3 236/1/3 218/1/3
f 218/1/3 236/1/3 600/1/3
f 240/1/3 239/1/3 228/1/3
f 228/1/3 239/1/3 241/1/3
f 235/1/3 252/1/3 232/1/3
f 232/1/3 252/1/3 598/1/3
f 251/1/3 255/1/3 248/1/3
f 248/1/3 255/1/3 560/1/3
f 204/1/3 261/1/3 201/1/3
f 201/1/3 261/1/3 325/1/3
f 214/1/3 264/1/3 211/1/3
f 211/1/3 264/1/3 266/1/3
f 260/1/3 274/1/3 257/1/3
f 257/1/3 274/1/3 306/1/3
f 195/1/3 281/1/3 194/1/3
f 194/1/3 281/1/3 283/1/3
f 288/1/3 287/1/3 267/1/3
f 267/1/3 287/1/3 289/1/3
f 297/1/3 296/1/3 290/1/3
f 290/1/3 296/1/3 298/1/3
f 273/1/3 302/1/3 270/1/3
f 270/1/3 302/1/3 304/1/3
f 316/1/3 315/1/3 299/1/3
f 299/1/3 315/1/3 317/1/3
f 322/1/3 321/1/3 305/1/3
f 305/1/3 321/1/3 323/1/3
f 328/1/3 327/1/3 284/1/3
f 284/1/3 327/1/3 329/1/3
f 341/1/3 340/1/3 344/1/3
f 344/1/3 340/1/3 342/1/3
f 347/1/3 346/1/3 324/1/3
f 324/1/3 346/1/3 348/1/3
f 359/1/3 358/1/3 330/1/3
f 330/1/3 358/1/3 360/1/3
f 369/1/3 368/1/3 343/1/3
f 343/1/3 368/1/3 642/1/3
f 375/1/3 374/1/3 349/1/3
f 349/1/3 374/1/3 447/1/3
f 373/1/3 381/1/3 371/1/3
f 371/1/3 381/1/3 418/1/3
f 367/1/3 388/1/3 365/1/3
f 365/1/3 388/1/3 640/1/3
f 395/1/3 394/1/3 361/1/3
f 361/1/3 394/1/3 421/1/3
f 387/1/3 401/1/3 384/1/3
f 384/1/3 401/1/3 638/1/3
f 393/1/3 407/1/3 391/1/3
f 391/1/3 407/1/3 441/1/3
f 380/1/3 414/1/3 377/1/3
f 377/1/3 414/1/3 416/1/3
f 400/1/3 431/1/3 397/1/3
f 397/1/3 431/1/3 636/1/3
f 406/1/3 437/1/3 404/1/3
f 404/1/3 437/1/3 504/1/3
f 444/1/3 443/1/3 417/1/3
f 417/1/3 443/1/3 445/1/3
f 430/1/3 453/1/3 427/1/3
f 427/1/3 453/1/3 634/1/3
f 460/1/3 459/1/3 446/1/3
f 446/1/3 459/1/3 461/1/3
f 469/1/3 468/1/3 462/1/3
f 462/1/3 468/1/3 470/1/3
f 452/1/3 479/1/3 449/1/3
f 449/1/3 479/1/3 632/1/3
f 486/1/3 485/1/3 471/1/3
f 471/1/3 485/1/3 487/1/3
f 495/1/3 494/1/3 488/1/3
f 488/1/3 494/1/3 496/1/3
f 436/1/3 500/1/3 434/1/3
f 434/1/3 500/1/3 502/1/3
f 510/1/3 509/1/3 497/1/3
f 497/1/3 509/1/3 511/1/3
f 519/1/3 518/1/3 512/1/3
f 512/1/3 518/1/3 520/1/3
f 528/1/3 527/1/3 521/1/3
f 521/1/3 527/1/3 529/1/3
f 478/1/3 539/1/3 475/1/3
f 475/1/3 539/1/3 587/1/3
f 546/1/3 545/1/3 532/1/3
f 532/1/3 545/1/3 547/1/3
f 557/1/3 556/1/3 548/1/3
f 548/1/3 556/1/3 558/1/3
f 564/1/3 563/1/3 503/1/3
f 503/1/3 563/1/3 565/1/3
f 574/1/3 573/1/3 577/1/3
f 577/1/3 573/1/3 575/1/3
f 538/1/3 629/1/3 535/1/3
f 535/1/3 629/1/3 585/1/3
f 593/1/3 592/1/3 596/1/3
f 596/1/3 592/1/3 594/1/3
f 615/1/3 614/1/3 566/1/3
f 566/1/3 614/1/3 616/1/3
f 628/1/3 627/1/3 586/1/3
f 586/1/3 627/1/3 630/1/3
f 142/1/4 739/1/4 35/1/4
f 35/1/4 739/1/4 672/1/4
f 21/1/4 660/1/4 17/1/4
f 17/1/4 660/1/4 658/1/4
f 24/1/4 664/1/4 49/1/4
f 49/1/4 664/1/4 683/1/4
f 50/1/4 682/1/4 46/1/4
f 46/1/4 682/1/4 680/1/4
f 36/1/4 671/1/4 33/1/4
f 33/1/4 671/1/4 670/1/4
f 47/1/4 679/1/4 44/1/4
f 44/1/4 679/1/4 678/1/4
f 56/1/4 686/1/4 54/1/4
f 54/1/4 686/1/4 685/1/4
f 89/1/4 705/1/4 85/1/4
f 85/1/4 705/1/4 703/1/4
f 103/1/4 717/1/4 100/1/4
f 100/1/4 717/1/4 715/1/4
f 120/1/4 727/1/4 188/1/4
f 188/1/4 727/1/4 760/1/4
f 129/1/4 732/1/4 157/1/4
f 157/1/4 732/1/4 746/1/4
f 34/1/4 673/1/4 202/1/4
f 202/1/4 673/1/4 768/1/4
f 158/1/4 745/1/4 174/1/4
f 174/1/4 745/1/4 752/1/4
f 175/1/4 751/1/4 212/1/4
f 212/1/4 751/1/4 774/1/4
f 189/1/4 759/1/4 219/1/4
f 219/1/4 759/1/4 778/1/4
f 203/1/4 767/1/4 258/1/4
f 258/1/4 767/1/4 800/1/4
f 213/1/4 773/1/4 278/1/4
f 278/1/4 773/1/4 810/1/4
f 220/1/4 777/1/4 233/1/4
f 233/1/4 777/1/4 786/1/4
f 234/1/4 785/1/4 249/1/4
f 249/1/4 785/1/4 796/1/4
f 250/1/4 795/1/4 246/1/4
f 246/1/4 795/1/4 793/1/4
f 259/1/4 799/1/4 271/1/4
f 271/1/4 799/1/4 806/1/4
f 272/1/4 805/1/4 312/1/4
f 312/1/4 805/1/4 826/1/4
f 279/1/4 809/1/4 276/1/4
f 276/1/4 809/1/4 808/1/4
f 277/1/4 811/1/4 292/1/4
f 292/1/4 811/1/4 816/1/4
f 293/1/4 817/1/4 307/1/4
f 307/1/4 817/1/4 822/1/4
f 313/1/4 825/1/4 310/1/4
f 310/1/4 825/1/4 824/1/4
f 308/1/4 823/1/4 333/1/4
f 333/1/4 823/1/4 836/1/4
f 311/1/4 827/1/4 336/1/4
f 336/1/4 827/1/4 838/1/4
f 334/1/4 837/1/4 351/1/4
f 351/1/4 837/1/4 844/1/4
f 337/1/4 839/1/4 354/1/4
f 354/1/4 839/1/4 846/1/4
f 352/1/4 845/1/4 385/1/4
f 385/1/4 845/1/4 863/1/4
f 355/1/4 847/1/4 378/1/4
f 378/1/4 847/1/4 859/1/4
f 379/1/4 858/1/4 424/1/4
f 424/1/4 858/1/4 883/1/4
f 386/1/4 862/1/4 398/1/4
f 398/1/4 862/1/4 869/1/4
f 399/1/4 868/1/4 428/1/4
f 428/1/4 868/1/4 887/1/4
f 429/1/4 886/1/4 450/1/4
f 450/1/4 886/1/4 897/1/4
f 425/1/4 882/1/4 422/1/4
f 422/1/4 882/1/4 881/1/4
f 451/1/4 896/1/4 476/1/4
f 476/1/4 896/1/4 909/1/4
f 423/1/4 884/1/4 455/1/4
f 455/1/4 884/1/4 899/1/4
f 477/1/4 908/1/4 536/1/4
f 536/1/4 908/1/4 937/1/4
f 456/1/4 900/1/4 464/1/4
f 464/1/4 900/1/4 903/1/4
f 465/1/4 904/1/4 481/1/4
f 481/1/4 904/1/4 911/1/4
f 482/1/4 912/1/4 490/1/4
f 490/1/4 912/1/4 916/1/4
f 491/1/4 917/1/4 505/1/4
f 505/1/4 917/1/4 923/1/4
f 506/1/4 924/1/4 514/1/4
f 514/1/4 924/1/4 927/1/4
f 537/1/4 936/1/4 622/1/4
f 622/1/4 936/1/4 982/1/4
f 515/1/4 928/1/4 523/1/4
f 523/1/4 928/1/4 931/1/4
f 524/1/4 932/1/4 541/1/4
f 541/1/4 932/1/4 939/1/4
f 542/1/4 940/1/4 550/1/4
f 550/1/4 940/1/4 944/1/4
f 623/1/4 981/1/4 583/1/4
f 583/1/4 981/1/4 962/1/4
f 571/1/4 953/1/4 569/1/4
f 569/1/4 953/1/4 952/1/4
f 580/1/4 957/1/4 578/1/4
f 578/1/4 957/1/4 956/1/4
f 584/1/4 961/1/4 581/1/4
f 581/1/4 961/1/4 960/1/4
f 590/1/4 965/1/4 588/1/4
f 588/1/4 965/1/4 964/1/4
f 582/1/4 963/1/4 620/1/4
f 620/1/4 963/1/4 980/1/4
f 11/1/4 472/1/4 9/1/4
f 9/1/4 472/1/4 489/1/4
f 28/1/4 15/1/4 25/1/4
f 25/1/4 15/1/4 23/1/4
f 10/1/4 12/1/4 37/1/4
f 37/1/4 12/1/4 498/1/4
f 53/1/4 22/1/4 51/1/4
f 51/1/4 22/1/4 48/1/4
f 59/1/4 44/1/4 57/1/4
f 57/1/4 44/1/4 55/1/4
f 26/1/4 29/1/4 63/1/4
f 63/1/4 29/1/4 61/1/4
f 71/1/4 54/1/4 69/1/4
f 69/1/4 54/1/4 67/1/4
f 38/1/4 40/1/4 76/1/4
f 76/1/4 40/1/4 513/1/4
f 97/1/4 60/1/4 95/1/4
f 95/1/4 60/1/4 94/1/4
f 107/1/4 83/1/4 104/1/4
f 104/1/4 83/1/4 102/1/4
f 77/1/4 79/1/4 112/1/4
f 112/1/4 79/1/4 522/1/4
f 123/1/4 66/1/4 121/1/4
f 121/1/4 66/1/4 119/1/4
f 132/1/4 98/1/4 130/1/4
f 130/1/4 98/1/4 128/1/4
f 105/1/4 108/1/4 133/1/4
f 133/1/4 108/1/4 645/1/4
f 145/1/4 1/1/4 143/1/4
f 143/1/4 1/1/4 141/1/4
f 151/1/4 93/1/4 149/1/4
f 149/1/4 93/1/4 147/1/4
f 161/1/4 127/1/4 159/1/4
f 159/1/4 127/1/4 156/1/4
f 134/1/4 136/1/4 162/1/4
f 162/1/4 136/1/4 648/1/4
f 171/1/4 146/1/4 169/1/4
f 169/1/4 146/1/4 166/1/4
f 178/1/4 155/1/4 176/1/4
f 176/1/4 155/1/4 173/1/4
f 113/1/4 115/1/4 179/1/4
f 179/1/4 115/1/4 531/1/4
f 192/1/4 118/1/4 190/1/4
f 190/1/4 118/1/4 187/1/4
f 197/1/4 165/1/4 195/1/4
f 195/1/4 165/1/4 194/1/4
f 206/1/4 140/1/4 204/1/4
f 204/1/4 140/1/4 201/1/4
f 216/1/4 172/1/4 214/1/4
f 214/1/4 172/1/4 211/1/4
f 223/1/4 186/1/4 221/1/4
f 221/1/4 186/1/4 218/1/4
f 180/1/4 182/1/4 224/1/4
f 224/1/4 182/1/4 533/1/4
f 237/1/4 217/1/4 235/1/4
f 235/1/4 217/1/4 232/1/4
f 225/1/4 227/1/4 238/1/4
f 238/1/4 227/1/4 549/1/4
f 253/1/4 231/1/4 251/1/4
f 251/1/4 231/1/4 248/1/4
f 239/1/4 241/1/4 254/1/4
f 254/1/4 241/1/4 561/1/4
f 262/1/4 200/1/4 260/1/4
f 260/1/4 200/1/4 257/1/4
f 265/1/4 210/1/4 263/1/4
f 263/1/4 210/1/4 294/1/4
f 275/1/4 256/1/4 273/1/4
f 273/1/4 256/1/4 270/1/4
f 282/1/4 193/1/4 280/1/4
f 280/1/4 193/1/4 435/1/4
f 264/1/4 266/1/4 286/1/4
f 286/1/4 266/1/4 309/1/4
f 287/1/4 289/1/4 295/1/4
f 295/1/4 289/1/4 335/1/4
f 303/1/4 269/1/4 301/1/4
f 301/1/4 269/1/4 338/1/4
f 296/1/4 298/1/4 314/1/4
f 314/1/4 298/1/4 353/1/4
f 302/1/4 304/1/4 320/1/4
f 320/1/4 304/1/4 356/1/4
f 281/1/4 283/1/4 326/1/4
f 326/1/4 283/1/4 405/1/4
f 315/1/4 317/1/4 339/1/4
f 339/1/4 317/1/4 366/1/4
f 321/1/4 323/1/4 345/1/4
f 345/1/4 323/1/4 372/1/4
f 327/1/4 329/1/4 357/1/4
f 357/1/4 329/1/4 392/1/4
f 340/1/4 342/1/4 367/1/4
f 367/1/4 342/1/4 365/1/4
f 346/1/4 348/1/4 373/1/4
f 373/1/4 348/1/4 371/1/4
f 382/1/4 370/1/4 380/1/4
f 380/1/4 370/1/4 377/1/4
f 389/1/4 364/1/4 387/1/4
f 387/1/4 364/1/4 384/1/4
f 358/1/4 360/1/4 393/1/4
f 393/1/4 360/1/4 391/1/4
f 402/1/4 383/1/4 400/1/4
f 400/1/4 383/1/4 397/1/4
f 408/1/4 390/1/4 406/1/4
f 406/1/4 390/1/4 404/1/4
f 415/1/4 376/1/4 413/1/4
f 413/1/4 376/1/4 457/1/4
f 432/1/4 396/1/4 430/1/4
f 430/1/4 396/1/4 427/1/4
f 438/1/4 403/1/4 436/1/4
f 436/1/4 403/1/4 434/1/4
f 414/1/4 416/1/4 442/1/4
f 442/1/4 416/1/4 466/1/4
f 454/1/4 426/1/4 452/1/4
f 452/1/4 426/1/4 449/1/4
f 443/1/4 445/1/4 458/1/4
f 458/1/4 445/1/4 483/1/4
f 459/1/4 461/1/4 467/1/4
f 467/1/4 461/1/4 492/1/4
f 480/1/4 448/1/4 478/1/4
f 478/1/4 448/1/4 475/1/4
f 468/1/4 470/1/4 484/1/4
f 484/1/4 470/1/4 507/1/4
f 485/1/4 487/1/4 493/1/4
f 493/1/4 487/1/4 516/1/4
f 501/1/4 433/1/4 499/1/4
f 499/1/4 433/1/4 610/1/4
f 494/1/4 496/1/4 508/1/4
f 508/1/4 496/1/4 525/1/4
f 509/1/4 511/1/4 517/1/4
f 517/1/4 511/1/4 543/1/4
f 518/1/4 520/1/4 526/1/4
f 526/1/4 520/1/4 552/1/4
f 540/1/4 474/1/4 538/1/4
f 538/1/4 474/1/4 535/1/4
f 527/1/4 529/1/4 544/1/4
f 544/1/4 529/1/4 554/1/4
f 545/1/4 547/1/4 555/1/4
f 555/1/4 547/1/4 553/1/4
f 500/1/4 502/1/4 562/1/4
f 562/1/4 502/1/4 612/1/4
f 556/1/4 558/1/4 572/1/4
f 572/1/4 558/1/4 570/1/4
f 573/1/4 575/1/4 591/1/4
f 591/1/4 575/1/4 589/1/4
f 563/1/4 565/1/4 613/1/4
f 613/1/4 565/1/4 611/1/4
f 626/1/4 534/1/4 624/1/4
f 624/1/4 534/1/4 621/1/4
f 827/1/5 311/1/5 824/1/5
f 824/1/5 311/1/5 310/1/5
f 839/1/5 337/1/5 838/1/5
f 838/1/5 337/1/5 336/1/5
f 884/1/5 423/1/5 881/1/5
f 881/1/5 423/1/5 422/1/5
f 304/1/5 302/1/5 338/1/5
f 338/1/5 302/1/5 301/1/5
f 847/1/5 355/1/5 846/1/5
f 846/1/5 355/1/5 354/1/5
f 900/1/5 456/1/5 899/1/5
f 899/1/5 456/1/5 455/1/5
f 306/1/5 274/1/5 270/1/5
f 270/1/5 274/1/5 273/1/5
f 323/1/5 321/1/5 356/1/5
f 356/1/5 321/1/5 320/1/5
f 416/1/5 414/1/5 457/1/5
f 457/1/5 414/1/5 413/1/5
f 673/1/5 34/1/5 670/1/5
f 670/1/5 34/1/5 33/1/5
f 904/1/5 465/1/5 903/1/5
f 903/1/5 465/1/5 464/1/5
f 325/1/5 261/1/5 257/1/5
f 257/1/5 261/1/5 260/1/5
f 348/1/5 346/1/5 372/1/5
f 372/1/5 346/1/5 345/1/5
f 418/1/5 381/1/5 377/1/5
f 377/1/5 381/1/5 380/1/5
f 445/1/5 443/1/5 466/1/5
f 466/1/5 443/1/5 442/1/5
f 912/1/5 482/1/5 911/1/5
f 911/1/5 482/1/5 481/1/5
f 350/1/5 205/1/5 201/1/5
f 201/1/5 205/1/5 204/1/5
f 447/1/5 374/1/5 371/1/5
f 371/1/5 374/1/5 373/1/5
f 461/1/5 459/1/5 483/1/5
f 483/1/5 459/1/5 458/1/5
f 917/1/5 491/1/5 916/1/5
f 916/1/5 491/1/5 490/1/5
f 463/1/5 144/1/5 141/1/5
f 141/1/5 144/1/5 143/1/5
f 470/1/5 468/1/5 492/1/5
f 492/1/5 468/1/5 467/1/5
f 924/1/5 506/1/5 923/1/5
f 923/1/5 506/1/5 505/1/5
f 472/1/5 11/1/5 473/1/5
f 473/1/5 11/1/5 5/1/5
f 487/1/5 485/1/5 507/1/5
f 507/1/5 485/1/5 484/1/5
f 928/1/5 515/1/5 927/1/5
f 927/1/5 515/1/5 514/1/5
f 12/1/5 10/1/5 489/1/5
f 489/1/5 10/1/5 9/1/5
f 496/1/5 494/1/5 516/1/5
f 516/1/5 494/1/5 493/1/5
f 932/1/5 524/1/5 931/1/5
f 931/1/5 524/1/5 523/1/5
f 40/1/5 38/1/5 498/1/5
f 498/1/5 38/1/5 37/1/5
f 511/1/5 509/1/5 525/1/5
f 525/1/5 509/1/5 508/1/5
f 940/1/5 542/1/5 939/1/5
f 939/1/5 542/1/5 541/1/5
f 79/1/5 77/1/5 513/1/5
f 513/1/5 77/1/5 76/1/5
f 520/1/5 518/1/5 543/1/5
f 543/1/5 518/1/5 517/1/5
f 115/1/5 113/1/5 522/1/5
f 522/1/5 113/1/5 112/1/5
f 529/1/5 527/1/5 552/1/5
f 552/1/5 527/1/5 526/1/5
f 953/1/5 571/1/5 944/1/5
f 944/1/5 571/1/5 550/1/5
f 182/1/5 180/1/5 531/1/5
f 531/1/5 180/1/5 179/1/5
f 957/1/5 580/1/5 952/1/5
f 952/1/5 580/1/5 569/1/5
f 227/1/5 225/1/5 533/1/5
f 533/1/5 225/1/5 224/1/5
f 547/1/5 545/1/5 554/1/5
f 554/1/5 545/1/5 544/1/5
f 965/1/5 590/1/5 956/1/5
f 956/1/5 590/1/5 578/1/5
f 241/1/5 239/1/5 549/1/5
f 549/1/5 239/1/5 238/1/5
f 558/1/5 556/1/5 553/1/5
f 553/1/5 556/1/5 555/1/5
f 575/1/5 573/1/5 570/1/5
f 570/1/5 573/1/5 572/1/5
f 560/1/5 255/1/5 561/1/5
f 561/1/5 255/1/5 254/1/5
f 598/1/5 252/1/5 248/1/5
f 248/1/5 252/1/5 251/1/5
f 600/1/5 236/1/5 232/1/5
f 232/1/5 236/1/5 235/1/5
f 602/1/5 222/1/5 218/1/5
f 218/1/5 222/1/5 221/1/5
f 604/1/5 191/1/5 187/1/5
f 187/1/5 191/1/5 190/1/5
f 606/1/5 122/1/5 119/1/5
f 119/1/5 122/1/5 121/1/5
f 608/1/5 70/1/5 67/1/5
f 67/1/5 70/1/5 69/1/5
f 283/1/5 281/1/5 435/1/5
f 435/1/5 281/1/5 280/1/5
f 502/1/5 500/1/5 610/1/5
f 610/1/5 500/1/5 499/1/5
f 167/1/5 58/1/5 55/1/5
f 55/1/5 58/1/5 57/1/5
f 285/1/5 196/1/5 194/1/5
f 194/1/5 196/1/5 195/1/5
f 329/1/5 327/1/5 405/1/5
f 405/1/5 327/1/5 326/1/5
f 504/1/5 437/1/5 434/1/5
f 434/1/5 437/1/5 436/1/5
f 565/1/5 563/1/5 612/1/5
f 612/1/5 563/1/5 562/1/5
f 771/1/5 208/1/5 770/1/5
f 770/1/5 208/1/5 207/1/5
f 892/1/5 440/1/5 891/1/5
f 891/1/5 440/1/5 439/1/5
f 148/1/5 52/1/5 48/1/5
f 48/1/5 52/1/5 51/1/5
f 209/1/5 170/1/5 166/1/5
f 166/1/5 170/1/5 169/1/5
f 360/1/5 358/1/5 392/1/5
f 392/1/5 358/1/5 357/1/5
f 441/1/5 407/1/5 404/1/5
f 404/1/5 407/1/5 406/1/5
f 765/1/5 199/1/5 764/1/5
f 764/1/5 199/1/5 198/1/5
f 880/1/5 420/1/5 879/1/5
f 879/1/5 420/1/5 419/1/5
f 152/1/5 150/1/5 147/1/5
f 147/1/5 150/1/5 149/1/5
f 421/1/5 394/1/5 391/1/5
f 391/1/5 394/1/5 393/1/5
f 743/1/5 153/1/5 742/1/5
f 742/1/5 153/1/5 152/1/5
f 876/1/5 410/1/5 873/1/5
f 873/1/5 410/1/5 409/1/5
f 29/1/5 26/1/5 23/1/5
f 23/1/5 26/1/5 25/1/5
f 154/1/5 96/1/5 94/1/5
f 94/1/5 96/1/5 95/1/5
f 730/1/5 125/1/5 729/1/5
f 729/1/5 125/1/5 124/1/5
f 126/1/5 64/1/5 61/1/5
f 61/1/5 64/1/5 63/1/5
f 696/1/5 73/1/5 693/1/5
f 693/1/5 73/1/5 72/1/5
f 963/1/5 582/1/5 960/1/5
f 960/1/5 582/1/5 581/1/5
f 983/1/5 621/1/5 980/1/5
f 980/1/5 621/1/5 620/1/5
f 811/1/5 277/1/5 808/1/5
f 808/1/5 277/1/5 276/1/5
f 587/1/5 539/1/5 535/1/5
f 535/1/5 539/1/5 538/1/5
f 630/1/5 627/1/5 621/1/5
f 621/1/5 627/1/5 624/1/5
f 817/1/5 293/1/5 816/1/5
f 816/1/5 293/1/5 292/1/5
f 266/1/5 264/1/5 294/1/5
f 294/1/5 264/1/5 263/1/5
f 632/1/5 479/1/5 475/1/5
f 475/1/5 479/1/5 478/1/5
f 823/1/5 308/1/5 822/1/5
f 822/1/5 308/1/5 307/1/5
f 268/1/5 215/1/5 211/1/5
f 211/1/5 215/1/5 214/1/5
f 289/1/5 287/1/5 309/1/5
f 309/1/5 287/1/5 286/1/5
f 634/1/5 453/1/5 449/1/5
f 449/1/5 453/1/5 452/1/5
f 837/1/5 334/1/5 836/1/5
f 836/1/5 334/1/5 333/1/5
f 291/1/5 177/1/5 173/1/5
f 173/1/5 177/1/5 176/1/5
f 298/1/5 296/1/5 335/1/5
f 335/1/5 296/1/5 295/1/5
f 636/1/5 431/1/5 427/1/5
f 427/1/5 431/1/5 430/1/5
f 845/1/5 352/1/5 844/1/5
f 844/1/5 352/1/5 351/1/5
f 300/1/5 160/1/5 156/1/5
f 156/1/5 160/1/5 159/1/5
f 317/1/5 315/1/5 353/1/5
f 353/1/5 315/1/5 314/1/5
f 638/1/5 401/1/5 397/1/5
f 397/1/5 401/1/5 400/1/5
f 342/1/5 340/1/5 366/1/5
f 366/1/5 340/1/5 339/1/5
f 640/1/5 388/1/5 384/1/5
f 384/1/5 388/1/5 387/1/5
f 319/1/5 131/1/5 128/1/5
f 128/1/5 131/1/5 130/1/5
f 642/1/5 368/1/5 365/1/5
f 365/1/5 368/1/5 367/1/5
f 108/1/5 105/1/5 102/1/5
f 102/1/5 105/1/5 104/1/5
f 136/1/5 134/1/5 645/1/5
f 645/1/5 134/1/5 133/1/5
f 647/1/5 163/1/5 648/1/5
f 648/1/5 163/1/5 162/1/5
f 826/1/6 825/1/6 312/1/6
f 312/1/6 825/1/6 313/1/6
f 806/1/6 805/1/6 271/1/6
f 271/1/6 805/1/6 272/1/6
f 883/1/6 882/1/6 424/1/6
f 424/1/6 882/1/6 425/1/6
f 270/1/6 269/1/6 273/1/6
f 273/1/6 269/1/6 303/1/6
f 800/1/6 799/1/6 258/1/6
f 258/1/6 799/1/6 259/1/6
f 859/1/6 858/1/6 378/1/6
f 378/1/6 858/1/6 379/1/6
f 257/1/6 256/1/6 260/1/6
f 260/1/6 256/1/6 275/1/6
f 305/1/6 304/1/6 322/1/6
f 322/1/6 304/1/6 302/1/6
f 377/1/6 376/1/6 380/1/6
f 380/1/6 376/1/6 415/1/6
f 672/1/6 671/1/6 35/1/6
f 35/1/6 671/1/6 36/1/6
f 768/1/6 767/1/6 202/1/6
f 202/1/6 767/1/6 203/1/6
f 201/1/6 200/1/6 204/1/6
f 204/1/6 200/1/6 262/1/6
f 324/1/6 323/1/6 347/1/6
f 347/1/6 323/1/6 321/1/6
f 371/1/6 370/1/6 373/1/6
f 373/1/6 370/1/6 382/1/6
f 417/1/6 416/1/6 444/1/6
f 444/1/6 416/1/6 414/1/6
f 141/1/6 140/1/6 143/1/6
f 143/1/6 140/1/6 206/1/6
f 349/1/6 348/1/6 375/1/6
f 375/1/6 348/1/6 346/1/6
f 446/1/6 445/1/6 460/1/6
f 460/1/6 445/1/6 443/1/6
f 462/1/6 461/1/6 469/1/6
f 469/1/6 461/1/6 459/1/6
f 471/1/6 470/1/6 486/1/6
f 486/1/6 470/1/6 468/1/6
f 14/1/6 1/1/6 7/1/6
f 7/1/6 1/1/6 145/1/6
f 488/1/6 487/1/6 495/1/6
f 495/1/6 487/1/6 485/1/6
f 651/1/6 739/1/6 3/1/6
f 3/1/6 739/1/6 142/1/6
f 13/1/6 12/1/6 39/1/6
f 39/1/6 12/1/6 10/1/6
f 497/1/6 496/1/6 510/1/6
f 510/1/6 496/1/6 494/1/6
f 676/1/6 675/1/6 42/1/6
f 42/1/6 675/1/6 43/1/6
f 41/1/6 40/1/6 78/1/6
f 78/1/6 40/1/6 38/1/6
f 512/1/6 511/1/6 519/1/6
f 519/1/6 511/1/6 509/1/6
f 699/1/6 698/1/6 81/1/6
f 81/1/6 698/1/6 82/1/6
f 80/1/6 79/1/6 114/1/6
f 114/1/6 79/1/6 77/1/6
f 521/1/6 520/1/6 528/1/6
f 528/1/6 520/1/6 518/1/6
f 724/1/6 700/1/6 117/1/6
f 117/1/6 700/1/6 80/1/6
f 116/1/6 115/1/6 181/1/6
f 181/1/6 115/1/6 113/1/6
f 756/1/6 755/1/6 184/1/6
f 184/1/6 755/1/6 185/1/6
f 183/1/6 182/1/6 226/1/6
f 226/1/6 182/1/6 180/1/6
f 532/1/6 529/1/6 546/1/6
f 546/1/6 529/1/6 527/1/6
f 782/1/6 781/1/6 229/1/6
f 229/1/6 781/1/6 230/1/6
f 228/1/6 227/1/6 240/1/6
f 240/1/6 227/1/6 225/1/6
f 548/1/6 547/1/6 557/1/6
f 557/1/6 547/1/6 545/1/6
f 790/1/6 789/1/6 243/1/6
f 243/1/6 789/1/6 244/1/6
f 577/1/6 558/1/6 574/1/6
f 574/1/6 558/1/6 556/1/6
f 793/1/6 792/1/6 246/1/6
f 246/1/6 792/1/6 247/1/6
f 596/1/6 575/1/6 593/1/6
f 593/1/6 575/1/6 573/1/6
f 796/1/6 795/1/6 249/1/6
f 249/1/6 795/1/6 250/1/6
f 248/1/6 241/1/6 251/1/6
f 251/1/6 241/1/6 239/1/6
f 786/1/6 785/1/6 233/1/6
f 233/1/6 785/1/6 234/1/6
f 232/1/6 231/1/6 235/1/6
f 235/1/6 231/1/6 253/1/6
f 778/1/6 777/1/6 219/1/6
f 219/1/6 777/1/6 220/1/6
f 218/1/6 217/1/6 221/1/6
f 221/1/6 217/1/6 237/1/6
f 760/1/6 759/1/6 188/1/6
f 188/1/6 759/1/6 189/1/6
f 187/1/6 186/1/6 190/1/6
f 190/1/6 186/1/6 223/1/6
f 119/1/6 118/1/6 121/1/6
f 121/1/6 118/1/6 192/1/6
f 685/1/6 727/1/6 54/1/6
f 54/1/6 727/1/6 120/1/6
f 67/1/6 66/1/6 69/1/6
f 69/1/6 66/1/6 123/1/6
f 678/1/6 686/1/6 44/1/6
f 44/1/6 686/1/6 56/1/6
f 55/1/6 54/1/6 57/1/6
f 57/1/6 54/1/6 71/1/6
f 680/1/6 679/1/6 46/1/6
f 46/1/6 679/1/6 47/1/6
f 194/1/6 193/1/6 195/1/6
f 195/1/6 193/1/6 282/1/6
f 434/1/6 433/1/6 436/1/6
f 436/1/6 433/1/6 501/1/6
f 683/1/6 682/1/6 49/1/6
f 49/1/6 682/1/6 50/1/6
f 48/1/6 44/1/6 51/1/6
f 51/1/6 44/1/6 59/1/6
f 166/1/6 165/1/6 169/1/6
f 169/1/6 165/1/6 197/1/6
f 284/1/6 283/1/6 328/1/6
f 328/1/6 283/1/6 281/1/6
f 404/1/6 403/1/6 406/1/6
f 406/1/6 403/1/6 438/1/6
f 503/1/6 502/1/6 564/1/6
f 564/1/6 502/1/6 500/1/6
f 834/1/6 833/1/6 331/1/6
f 331/1/6 833/1/6 332/1/6
f 950/1/6 949/1/6 567/1/6
f 567/1/6 949/1/6 568/1/6
f 23/1/6 22/1/6 25/1/6
f 25/1/6 22/1/6 53/1/6
f 147/1/6 146/1/6 149/1/6
f 149/1/6 146/1/6 171/1/6
f 330/1/6 329/1/6 359/1/6
f 359/1/6 329/1/6 327/1/6
f 391/1/6 390/1/6 393/1/6
f 393/1/6 390/1/6 408/1/6
f 566/1/6 565/1/6 615/1/6
f 615/1/6 565/1/6 563/1/6
f 658/1/6 664/1/6 17/1/6
f 17/1/6 664/1/6 24/1/6
f 850/1/6 849/1/6 362/1/6
f 362/1/6 849/1/6 363/1/6
f 978/1/6 977/1/6 618/1/6
f 618/1/6 977/1/6 619/1/6
f 94/1/6 93/1/6 95/1/6
f 95/1/6 93/1/6 151/1/6
f 361/1/6 360/1/6 395/1/6
f 395/1/6 360/1/6 358/1/6
f 661/1/6 660/1/6 20/1/6
f 20/1/6 660/1/6 21/1/6
f 875/1/6 874/1/6 411/1/6
f 411/1/6 874/1/6 412/1/6
f 19/1/6 15/1/6 27/1/6
f 27/1/6 15/1/6 28/1/6
f 61/1/6 60/1/6 63/1/6
f 63/1/6 60/1/6 97/1/6
f 668/1/6 667/1/6 31/1/6
f 31/1/6 667/1/6 32/1/6
f 30/1/6 29/1/6 65/1/6
f 65/1/6 29/1/6 26/1/6
f 695/1/6 694/1/6 74/1/6
f 74/1/6 694/1/6 75/1/6
f 962/1/6 961/1/6 583/1/6
f 583/1/6 961/1/6 584/1/6
f 982/1/6 981/1/6 622/1/6
f 622/1/6 981/1/6 623/1/6
f 937/1/6 936/1/6 536/1/6
f 536/1/6 936/1/6 537/1/6
f 535/1/6 534/1/6 538/1/6
f 538/1/6 534/1/6 626/1/6
f 810/1/6 809/1/6 278/1/6
f 278/1/6 809/1/6 279/1/6
f 909/1/6 908/1/6 476/1/6
f 476/1/6 908/1/6 477/1/6
f 475/1/6 474/1/6 478/1/6
f 478/1/6 474/1/6 540/1/6
f 586/1/6 585/1/6 628/1/6
f 628/1/6 585/1/6 629/1/6
f 774/1/6 773/1/6 212/1/6
f 212/1/6 773/1/6 213/1/6
f 897/1/6 896/1/6 450/1/6
f 450/1/6 896/1/6 451/1/6
f 211/1/6 210/1/6 214/1/6
f 214/1/6 210/1/6 265/1/6
f 449/1/6 448/1/6 452/1/6
f 452/1/6 448/1/6 480/1/6
f 752/1/6 751/1/6 174/1/6
f 174/1/6 751/1/6 175/1/6
f 887/1/6 886/1/6 428/1/6
f 428/1/6 886/1/6 429/1/6
f 173/1/6 172/1/6 176/1/6
f 176/1/6 172/1/6 216/1/6
f 267/1/6 266/1/6 288/1/6
f 288/1/6 266/1/6 264/1/6
f 427/1/6 426/1/6 430/1/6
f 430/1/6 426/1/6 454/1/6
f 746/1/6 745/1/6 157/1/6
f 157/1/6 745/1/6 158/1/6
f 869/1/6 868/1/6 398/1/6
f 398/1/6 868/1/6 399/1/6
f 156/1/6 155/1/6 159/1/6
f 159/1/6 155/1/6 178/1/6
f 290/1/6 289/1/6 297/1/6
f 297/1/6 289/1/6 287/1/6
f 397/1/6 396/1/6 400/1/6
f 400/1/6 396/1/6 432/1/6
f 863/1/6 862/1/6 385/1/6
f 385/1/6 862/1/6 386/1/6
f 128/1/6 127/1/6 130/1/6
f 130/1/6 127/1/6 161/1/6
f 299/1/6 298/1/6 316/1/6
f 316/1/6 298/1/6 296/1/6
f 384/1/6 383/1/6 387/1/6
f 387/1/6 383/1/6 402/1/6
f 715/1/6 732/1/6 100/1/6
f 100/1/6 732/1/6 129/1/6
f 344/1/6 317/1/6 341/1/6
f 341/1/6 317/1/6 315/1/6
f 365/1/6 364/1/6 367/1/6
f 367/1/6 364/1/6 389/1/6
f 102/1/6 98/1/6 104/1/6
f 104/1/6 98/1/6 132/1/6
f 343/1/6 342/1/6 369/1/6
f 369/1/6 342/1/6 340/1/6
f 703/1/6 717/1/6 85/1/6
f 85/1/6 717/1/6 103/1/6
f 706/1/6 705/1/6 88/1/6
f 88/1/6 705/1/6 89/1/6
f 111/1/6 83/1/6 106/1/6
f 106/1/6 83/1/6 107/1/6
f 709/1/6 708/1/6 91/1/6
f 91/1/6 708/1/6 92/1/6
f 139/1/6 108/1/6 135/1/6
f 135/1/6 108/1/6 105/1/6
f 721/1/6 710/1/6 110/1/6
f 110/1/6 710/1/6 90/1/6
f 736/1/6 722/1/6 138/1/6
f 138/1/6 722/1/6 109/1/6
f 137/1/6 136/1/6 164/1/6
f 164/1/6 136/1/6 134/1/6
f 647/1/1 995/1/1 138/1/1
f 138/1/1 995/1/1 996/1/1
f 995/1/1 997/1/1 999/1/1
f 999/1/1 997/1/1 998/1/1
f 1000/1/1 1001/1/1 163/1/1
f 163/1/1 1001/1/1 1002/1/1
f 1003/1/1 1004/1/1 1006/1/1
f 1006/1/1 1004/1/1 1005/1/1
f 1007/1/1 1008/1/1 1001/1/1
f 1001/1/1 1008/1/1 1009/1/1
f 1010/1/1 1011/1/1 1013/1/1
f 1013/1/1 1011/1/1 1012/1/1
f 1014/1/1 1015/1/1 1016/1/1
f 1016/1/1 1015/1/1 1008/1/1
f 1017/1/1 1018/1/1 1019/1/1
f 1019/1/1 1018/1/1 1004/1/1
f 1020/1/1 1021/1/1 1015/1/1
f 1015/1/1 1021/1/1 1022/1/1
f 1023/1/1 1024/1/1 1026/1/1
f 1026/1/1 1024/1/1 1025/1/1
f 1027/1/1 1028/1/1 1021/1/1
f 1021/1/1 1028/1/1 1029/1/1
f 1030/1/1 1031/1/1 1033/1/1
f 1033/1/1 1031/1/1 1032/1/1
f 1031/1/1 1034/1/1 1036/1/1
f 1036/1/1 1034/1/1 1035/1/1
f 1037/1/1 1038/1/1 1028/1/1
f 1028/1/1 1038/1/1 1039/1/1
f 1040/1/1 1041/1/1 1034/1/1
f 1034/1/1 1041/1/1 1042/1/1
f 1043/2/1 1044/2/1 1045/2/1
f 1045/2/1 1044/2/1 1040/2/1
f 1046/1/1 1047/1/1 1038/1/1
f 1038/1/1 1047/1/1 1048/1/1
f 1049/2/1 1050/2/1 1051/2/1
f 1051/2/1 1050/2/1 1045/2/1
f 1052/1/1 1053/1/1 1054/1/1
f 1054/1/1 1053/1/1 1046/1/1
f 1055/1/1 1056/1/1 1057/1/1
f 1057/1/1 1056/1/1 1041/1/1
f 1058/1/1 1059/1/1 1044/1/1
f 1044/1/1 1059/1/1 1060/1/1
f 1061/1/1 1062/1/1 1063/1/1
f 1063/1/1 1062/1/1 1052/1/1
f 1064/1/1 1065/1/1 1050/1/1
f 1050/1/1 1065/1/1 1066/1/1
f 1067/1/1 1068/1/1 1062/1/1
f 1062/1/1 1068/1/1 1069/1/1
f 1070/1/1 1071/1/1 1073/1/1
f 1073/1/1 1071/1/1 1072/1/1
f 1074/1/1 1075/1/1 1068/1/1
f 1068/1/1 1075/1/1 1076/1/1
f 1077/1/1 1078/1/1 1080/1/1
f 1080/1/1 1078/1/1 1079/1/1
f 1081/1/1 1082/1/1 1075/1/1
f 1075/1/1 1082/1/1 1083/1/1
f 1084/1/1 1085/1/1 1087/1/1
f 1087/1/1 1085/1/1 1086/1/1
f 1088/2/1 1089/2/1 1090/2/1
f 1090/2/1 1089/2/1 1084/2/1
f 1091/1/1 1092/1/1 1082/1/1
f 1082/1/1 1092/1/1 1093/1/1
f 1094/2/1 1095/2/1 1096/2/1
f 1096/2/1 1095/2/1 1077/2/1
f 1097/1/1 1098/1/1 1099/1/1
f 1099/1/1 1098/1/1 1091/1/1
f 1100/1/1 1101/1/1 1103/1/1
f 1103/1/1 1101/1/1 1102/1/1
f 1104/1/1 1105/1/1 1089/1/1
f 1089/1/1 1105/1/1 1106/1/1
f 1107/2/1 1108/2/1 1109/2/1
f 1109/2/1 1108/2/1 1070/2/1
f 1110/1/1 1111/1/1 1112/1/1
f 1112/1/1 1111/1/1 1097/1/1
f 1113/2/1 1114/2/1 1115/2/1
f 1115/2/1 1114/2/1 1064/2/1
f 1116/1/1 1117/1/1 1118/1/1
f 1118/1/1 1117/1/1 1110/1/1
f 1119/1/1 1120/1/1 1095/1/1
f 1095/1/1 1120/1/1 1121/1/1
f 1122/1/1 1123/1/1 1108/1/1
f 1108/1/1 1123/1/1 1124/1/1
f 1125/2/1 1126/2/1 1127/2/1
f 1127/2/1 1126/2/1 1030/2/1
f 1128/1/1 1129/1/1 1130/1/1
f 1130/1/1 1129/1/1 1116/1/1
f 646/2/1 1131/2/1 1132/2/1
f 1132/2/1 1131/2/1 1003/2/1
f 1131/2/1 1133/2/1 1135/2/1
f 1135/2/1 1133/2/1 1134/2/1
f 1133/2/1 1136/2/1 1137/2/1
f 1137/2/1 1136/2/1 1017/2/1
f 1136/2/1 1138/2/1 1139/2/1
f 1139/2/1 1138/2/1 1023/2/1
f 1140/1/1 1141/1/1 1142/1/1
f 1142/1/1 1141/1/1 1128/1/1
f 1143/1/1 1144/1/1 1126/1/1
f 1126/1/1 1144/1/1 1145/1/1
f 1144/1/1 1146/1/1 1114/1/1
f 1114/1/1 1146/1/1 1147/1/1
f 1148/1/2 736/1/2 1150/1/2
f 1150/1/2 736/1/2 1149/1/2
f 1150/1/2 1151/1/2 1153/1/2
f 1153/1/2 1151/1/2 1152/1/2
f 1154/1/2 1155/1/2 1157/1/2
f 1157/1/2 1155/1/2 1156/1/2
f 1158/1/2 1159/1/2 1161/1/2
f 1161/1/2 1159/1/2 1160/1/2
f 1162/1/2 1163/1/2 1164/1/2
f 1164/1/2 1163/1/2 1157/1/2
f 1165/1/2 1166/1/2 1168/1/2
f 1168/1/2 1166/1/2 1167/1/2
f 1169/1/2 1170/1/2 1172/1/2
f 1172/1/2 1170/1/2 1171/1/2
f 1172/1/2 1173/1/2 1175/1/2
f 1175/1/2 1173/1/2 1174/1/2
f 1176/1/2 1175/1/2 1178/1/2
f 1178/1/2 1175/1/2 1177/1/2
f 1179/2/2 1176/2/2 1181/2/2
f 1181/2/2 1176/2/2 1180/2/2
f 1182/2/2 1172/2/2 1183/2/2
f 1183/2/2 1172/2/2 1175/2/2
f 1184/1/2 1180/1/2 1185/1/2
f 1185/1/2 1180/1/2 1178/1/2
f 1186/1/2 1179/1/2 1187/1/2
f 1187/1/2 1179/1/2 1181/1/2
f 1188/1/2 1182/1/2 1189/1/2
f 1189/1/2 1182/1/2 1183/1/2
f 1190/1/2 1191/1/2 1193/1/2
f 1193/1/2 1191/1/2 1192/1/2
f 1194/1/2 1195/1/2 1197/1/2
f 1197/1/2 1195/1/2 1196/1/2
f 1198/1/2 1199/1/2 1201/1/2
f 1201/1/2 1199/1/2 1200/1/2
f 1202/2/2 1198/2/2 1203/2/2
f 1203/2/2 1198/2/2 1201/2/2
f 1204/2/2 1194/2/2 1205/2/2
f 1205/2/2 1194/2/2 1197/2/2
f 1206/1/2 1207/1/2 1209/1/2
f 1209/1/2 1207/1/2 1208/1/2
f 1210/1/2 1202/1/2 1211/1/2
f 1211/1/2 1202/1/2 1203/1/2
f 1212/2/2 1190/2/2 1213/2/2
f 1213/2/2 1190/2/2 1193/2/2
f 1214/2/2 1188/2/2 1215/2/2
f 1215/2/2 1188/2/2 1189/2/2
f 1216/1/2 1204/1/2 1217/1/2
f 1217/1/2 1204/1/2 1205/1/2
f 1218/1/2 1212/1/2 1219/1/2
f 1219/1/2 1212/1/2 1213/1/2
f 1220/2/2 1169/2/2 1221/2/2
f 1221/2/2 1169/2/2 1172/2/2
f 994/2/2 1148/2/2 1222/2/2
f 1222/2/2 1148/2/2 1155/2/2
f 1222/2/2 1154/2/2 1223/2/2
f 1223/2/2 1154/2/2 1163/2/2
f 1223/2/2 1162/2/2 1224/2/2
f 1224/2/2 1162/2/2 1164/2/2
f 1224/2/2 1165/2/2 1225/2/2
f 1225/2/2 1165/2/2 1168/2/2
f 1225/1/2 1220/1/2 1226/1/2
f 1226/1/2 1220/1/2 1221/1/2
f 1226/1/2 1214/1/2 1227/1/2
f 1227/1/2 1214/1/2 1215/1/2
f 996/1/3 999/1/3 1149/1/3
f 1149/1/3 999/1/3 1151/1/3
f 998/1/3 997/1/3 1152/1/3
f 1152/1/3 997/1/3 1153/1/3
f 1005/1/3 1013/1/3 1156/1/3
f 1156/1/3 1013/1/3 1159/1/3
f 1012/1/3 1011/1/3 1160/1/3
f 1160/1/3 1011/1/3 1161/1/3
f 1010/1/3 1026/1/3 1158/1/3
f 1158/1/3 1026/1/3 1166/1/3
f 1025/1/3 1033/1/3 1167/1/3
f 1167/1/3 1033/1/3 1170/1/3
f 1032/1/3 1036/1/3 1171/1/3
f 1171/1/3 1036/1/3 1173/1/3
f 1035/1/3 1034/1/3 1174/1/3
f 1174/1/3 1034/1/3 1175/1/3
f 1042/1/3 1056/1/3 1177/1/3
f 1177/1/3 1056/1/3 1185/1/3
f 1055/1/3 1059/1/3 1184/1/3
f 1184/1/3 1059/1/3 1187/1/3
f 1058/1/3 1073/1/3 1186/1/3
f 1186/1/3 1073/1/3 1191/1/3
f 1072/1/3 1080/1/3 1192/1/3
f 1192/1/3 1080/1/3 1195/1/3
f 1079/1/3 1087/1/3 1196/1/3
f 1196/1/3 1087/1/3 1199/1/3
f 1086/1/3 1103/1/3 1200/1/3
f 1200/1/3 1103/1/3 1207/1/3
f 1102/1/3 1101/1/3 1208/1/3
f 1208/1/3 1101/1/3 1209/1/3
f 1100/1/3 1105/1/3 1206/1/3
f 1206/1/3 1105/1/3 1211/1/3
f 1104/1/3 1120/1/3 1210/1/3
f 1210/1/3 1120/1/3 1217/1/3
f 1119/1/3 1123/1/3 1216/1/3
f 1216/1/3 1123/1/3 1219/1/3
f 1122/1/3 1146/1/3 1218/1/3
f 1218/1/3 1146/1/3 1227/1/3
f 1002/1/3 1001/1/3 1006/1/3
f 1006/1/3 1001/1/3 1003/1/3
f 1009/1/3 1015/1/3 1019/1/3
f 1019/1/3 1015/1/3 1017/1/3
f 1022/1/3 1021/1/3 1018/1/3
f 1018/1/3 1021/1/3 1023/1/3
f 1029/1/3 1028/1/3 1024/1/3
f 1024/1/3 1028/1/3 1030/1/3
f 1039/1/3 1038/1/3 1034/1/3
f 1034/1/3 1038/1/3 1040/1/3
f 1048/1/3 1047/1/3 1057/1/3
f 1057/1/3 1047/1/3 1060/1/3
f 1046/1/3 1053/1/3 1044/1/3
f 1044/1/3 1053/1/3 1066/1/3
f 1052/1/3 1062/1/3 1050/1/3
f 1050/1/3 1062/1/3 1064/1/3
f 1069/1/3 1068/1/3 1065/1/3
f 1065/1/3 1068/1/3 1070/1/3
f 1076/1/3 1075/1/3 1071/1/3
f 1071/1/3 1075/1/3 1077/1/3
f 1083/1/3 1082/1/3 1078/1/3
f 1078/1/3 1082/1/3 1084/1/3
f 1093/1/3 1092/1/3 1085/1/3
f 1085/1/3 1092/1/3 1106/1/3
f 1091/1/3 1098/1/3 1089/1/3
f 1089/1/3 1098/1/3 1121/1/3
f 1097/1/3 1111/1/3 1095/1/3
f 1095/1/3 1111/1/3 1124/1/3
f 1110/1/3 1117/1/3 1108/1/3
f 1108/1/3 1117/1/3 1147/1/3
f 1116/1/3 1129/1/3 1114/1/3
f 1114/1/3 1129/1/3 1145/1/3
f 1128/1/3 1141/1/3 1126/1/3
f 1126/1/3 1141/1/3 1143/1/3
f 163/1/4 647/1/4 1000/1/4
f 1000/1/4 647/1/4 1132/1/4
f 1001/1/4 1003/1/4 1007/1/4
f 1007/1/4 1003/1/4 1135/1/4
f 1016/1/4 1134/1/4 1014/1/4
f 1014/1/4 1134/1/4 1137/1/4
f 1015/1/4 1017/1/4 1020/1/4
f 1020/1/4 1017/1/4 1139/1/4
f 1021/1/4 1023/1/4 1027/1/4
f 1027/1/4 1023/1/4 1127/1/4
f 1028/1/4 1030/1/4 1037/1/4
f 1037/1/4 1030/1/4 1051/1/4
f 1038/1/4 1040/1/4 1046/1/4
f 1046/1/4 1040/1/4 1044/1/4
f 1054/1/4 1043/1/4 1052/1/4
f 1052/1/4 1043/1/4 1050/1/4
f 1063/1/4 1049/1/4 1061/1/4
f 1061/1/4 1049/1/4 1115/1/4
f 1062/1/4 1064/1/4 1067/1/4
f 1067/1/4 1064/1/4 1109/1/4
f 1068/1/4 1070/1/4 1074/1/4
f 1074/1/4 1070/1/4 1096/1/4
f 1075/1/4 1077/1/4 1081/1/4
f 1081/1/4 1077/1/4 1090/1/4
f 1082/1/4 1084/1/4 1091/1/4
f 1091/1/4 1084/1/4 1089/1/4
f 1099/1/4 1088/1/4 1097/1/4
f 1097/1/4 1088/1/4 1095/1/4
f 1112/1/4 1094/1/4 1110/1/4
f 1110/1/4 1094/1/4 1108/1/4
f 1118/1/4 1107/1/4 1116/1/4
f 1116/1/4 1107/1/4 1114/1/4
f 1130/1/4 1113/1/4 1128/1/4
f 1128/1/4 1113/1/4 1126/1/4
f 1142/1/4 1125/1/4 1140/1/4
f 1140/1/4 1125/1/4 1138/1/4
f 1003/1/5 1001/1/5 1132/1/5
f 1132/1/5 1001/1/5 1000/1/5
f 1134/1/5 1016/1/5 1135/1/5
f 1135/1/5 1016/1/5 1007/1/5
f 1017/1/5 1015/1/5 1137/1/5
f 1137/1/5 1015/1/5 1014/1/5
f 1023/1/5 1021/1/5 1139/1/5
f 1139/1/5 1021/1/5 1020/1/5
f 1161/1/5 1011/1/5 1158/1/5
f 1158/1/5 1011/1/5 1010/1/5
f 1030/1/5 1028/1/5 1127/1/5
f 1127/1/5 1028/1/5 1027/1/5
f 1064/1/5 1062/1/5 1115/1/5
f 1115/1/5 1062/1/5 1061/1/5
f 1145/1/5 1129/1/5 1126/1/5
f 1126/1/5 1129/1/5 1128/1/5
f 1227/1/5 1146/1/5 1226/1/5
f 1226/1/5 1146/1/5 1144/1/5
f 1040/1/5 1038/1/5 1051/1/5
f 1051/1/5 1038/1/5 1037/1/5
f 1066/1/5 1053/1/5 1050/1/5
f 1050/1/5 1053/1/5 1052/1/5
f 1070/1/5 1068/1/5 1109/1/5
f 1109/1/5 1068/1/5 1067/1/5
f 1147/1/5 1117/1/5 1114/1/5
f 1114/1/5 1117/1/5 1116/1/5
f 1187/1/5 1059/1/5 1186/1/5
f 1186/1/5 1059/1/5 1058/1/5
f 1219/1/5 1123/1/5 1218/1/5
f 1218/1/5 1123/1/5 1122/1/5
f 1060/1/5 1047/1/5 1044/1/5
f 1044/1/5 1047/1/5 1046/1/5
f 1077/1/5 1075/1/5 1096/1/5
f 1096/1/5 1075/1/5 1074/1/5
f 1124/1/5 1111/1/5 1108/1/5
f 1108/1/5 1111/1/5 1110/1/5
f 1185/1/5 1056/1/5 1184/1/5
f 1184/1/5 1056/1/5 1055/1/5
f 1217/1/5 1120/1/5 1216/1/5
f 1216/1/5 1120/1/5 1119/1/5
f 1084/1/5 1082/1/5 1090/1/5
f 1090/1/5 1082/1/5 1081/1/5
f 1121/1/5 1098/1/5 1095/1/5
f 1095/1/5 1098/1/5 1097/1/5
f 1211/1/5 1105/1/5 1210/1/5
f 1210/1/5 1105/1/5 1104/1/5
f 1106/1/5 1092/1/5 1089/1/5
f 1089/1/5 1092/1/5 1091/1/5
f 1209/1/5 1101/1/5 1206/1/5
f 1206/1/5 1101/1/5 1100/1/5
f 1149/1/6 736/1/6 996/1/6
f 996/1/6 736/1/6 138/1/6
f 1006/1/6 647/1/6 1002/1/6
f 1002/1/6 647/1/6 163/1/6
f 1152/1/6 1151/1/6 998/1/6
f 998/1/6 1151/1/6 999/1/6
f 1019/1/6 1003/1/6 1009/1/6
f 1009/1/6 1003/1/6 1001/1/6
f 1156/1/6 1153/1/6 1005/1/6
f 1005/1/6 1153/1/6 997/1/6
f 1018/1/6 1017/1/6 1022/1/6
f 1022/1/6 1017/1/6 1015/1/6
f 1160/1/6 1159/1/6 1012/1/6
f 1012/1/6 1159/1/6 1013/1/6
f 1167/1/6 1166/1/6 1025/1/6
f 1025/1/6 1166/1/6 1026/1/6
f 1024/1/6 1023/1/6 1029/1/6
f 1029/1/6 1023/1/6 1021/1/6
f 1126/1/6 1125/1/6 1128/1/6
f 1128/1/6 1125/1/6 1142/1/6
f 1171/1/6 1170/1/6 1032/1/6
f 1032/1/6 1170/1/6 1033/1/6
f 1050/1/6 1049/1/6 1052/1/6
f 1052/1/6 1049/1/6 1063/1/6
f 1114/1/6 1113/1/6 1116/1/6
f 1116/1/6 1113/1/6 1130/1/6
f 1174/1/6 1173/1/6 1035/1/6
f 1035/1/6 1173/1/6 1036/1/6
f 1034/1/6 1030/1/6 1039/1/6
f 1039/1/6 1030/1/6 1028/1/6
f 1044/1/6 1043/1/6 1046/1/6
f 1046/1/6 1043/1/6 1054/1/6
f 1065/1/6 1064/1/6 1069/1/6
f 1069/1/6 1064/1/6 1062/1/6
f 1108/1/6 1107/1/6 1110/1/6
f 1110/1/6 1107/1/6 1118/1/6
f 1192/1/6 1191/1/6 1072/1/6
f 1072/1/6 1191/1/6 1073/1/6
f 1057/1/6 1040/1/6 1048/1/6
f 1048/1/6 1040/1/6 1038/1/6
f 1071/1/6 1070/1/6 1076/1/6
f 1076/1/6 1070/1/6 1068/1/6
f 1095/1/6 1094/1/6 1097/1/6
f 1097/1/6 1094/1/6 1112/1/6
f 1177/1/6 1175/1/6 1042/1/6
f 1042/1/6 1175/1/6 1034/1/6
f 1196/1/6 1195/1/6 1079/1/6
f 1079/1/6 1195/1/6 1080/1/6
f 1078/1/6 1077/1/6 1083/1/6
f 1083/1/6 1077/1/6 1075/1/6
f 1089/1/6 1088/1/6 1091/1/6
f 1091/1/6 1088/1/6 1099/1/6
f 1200/1/6 1199/1/6 1086/1/6
f 1086/1/6 1199/1/6 1087/1/6
f 1085/1/6 1084/1/6 1093/1/6
f 1093/1/6 1084/1/6 1082/1/6
f 1208/1/6 1207/1/6 1102/1/6
f 1102/1/6 1207/1/6 1103/1/6
f 1228/1/1 1229/1/1 621/1/1
f 621/1/1 1229/1/1 630/1/1
f 1230/1/1 1231/1/1 627/1/1
f 627/1/1 1231/1/1 1232/1/1
f 1233/2/1 1234/2/1 633/2/1
f 633/2/1 1234/2/1 646/2/1
f 1235/2/1 1236/2/1 609/2/1
f 609/2/1 1236/2/1 611/2/1
f 1237/1/1 1238/1/1 1239/1/1
f 1239/1/1 1238/1/1 1233/1/1
f 1240/1/1 1241/1/1 1231/1/1
f 1231/1/1 1241/1/1 1242/1/1
f 1243/2/1 1244/2/1 1245/2/1
f 1245/2/1 1244/2/1 1234/2/1
f 1246/1/1 1247/1/1 1249/1/1
f 1249/1/1 1247/1/1 1248/1/1
f 1247/1/1 1250/1/1 588/1/1
f 588/1/1 1250/1/1 589/1/1
f 1251/1/1 1252/1/1 591/1/1
f 591/1/1 1252/1/1 592/1/1
f 1253/2/1 1254/2/1 607/2/1
f 607/2/1 1254/2/1 609/2/1
f 1255/1/1 1256/1/1 1258/1/1
f 1258/1/1 1256/1/1 1257/1/1
f 1256/1/1 1259/1/1 613/1/1
f 613/1/1 1259/1/1 614/1/1
f 1260/1/1 1261/1/1 1262/1/1
f 1262/1/1 1261/1/1 1243/1/1
f 1263/1/1 1264/1/1 1266/1/1
f 1266/1/1 1264/1/1 1265/1/1
f 1264/1/1 1267/1/1 1268/1/1
f 1268/1/1 1267/1/1 1249/1/1
f 1269/1/1 1270/1/1 1271/1/1
f 1271/1/1 1270/1/1 1251/1/1
f 1272/2/1 1273/2/1 1274/2/1
f 1274/2/1 1273/2/1 607/2/1
f 1275/1/1 1276/1/1 1277/1/1
f 1277/1/1 1276/1/1 1255/1/1
f 1278/1/1 1279/1/1 1281/1/1
f 1281/1/1 1279/1/1 1280/1/1
f 1279/1/1 1282/1/1 616/1/1
f 616/1/1 1282/1/1 617/1/1
f 1283/1/1 1284/1/1 1285/1/1
f 1285/1/1 1284/1/1 1266/1/1
f 1286/1/1 1287/1/1 1288/1/1
f 1288/1/1 1287/1/1 1269/1/1
f 1289/2/1 1290/2/1 605/2/1
f 605/2/1 1290/2/1 1274/2/1
f 1291/1/1 1292/1/1 1293/1/1
f 1293/1/1 1292/1/1 1275/1/1
f 1294/1/1 1295/1/1 1254/1/1
f 1254/1/1 1295/1/1 1281/1/1
f 1296/1/1 1297/1/1 1273/1/1
f 1273/1/1 1297/1/1 1298/1/1
f 1299/1/1 1300/1/1 1302/1/1
f 1302/1/1 1300/1/1 1301/1/1
f 1300/1/1 1303/1/1 1305/1/1
f 1305/1/1 1303/1/1 1304/1/1
f 1306/1/1 1307/1/1 1308/1/1
f 1308/1/1 1307/1/1 1286/1/1
f 1309/1/1 1310/1/1 1312/1/1
f 1312/1/1 1310/1/1 1311/1/1
f 1310/1/1 1313/1/1 1314/1/1
f 1314/1/1 1313/1/1 1302/1/1
f 1315/1/1 1316/1/1 1317/1/1
f 1317/1/1 1316/1/1 1306/1/1
f 1318/2/1 1319/2/1 603/2/1
f 603/2/1 1319/2/1 605/2/1
f 1320/1/1 1321/1/1 1322/1/1
f 1322/1/1 1321/1/1 1291/1/1
f 1323/1/1 1324/1/1 1241/1/1
f 1241/1/1 1324/1/1 1325/1/1
f 1326/2/1 1327/2/1 1328/2/1
f 1328/2/1 1327/2/1 1244/2/1
f 1329/1/1 1330/1/1 1332/1/1
f 1332/1/1 1330/1/1 1331/1/1
f 1330/1/1 1333/1/1 1334/1/1
f 1334/1/1 1333/1/1 1312/1/1
f 1335/1/1 1336/1/1 1337/1/1
f 1337/1/1 1336/1/1 1315/1/1
f 1338/1/1 1339/1/1 1290/1/1
f 1290/1/1 1339/1/1 1340/1/1
f 1341/1/1 1342/1/1 1343/1/1
f 1343/1/1 1342/1/1 1261/1/1
f 1344/1/1 1345/1/1 1324/1/1
f 1324/1/1 1345/1/1 1346/1/1
f 1347/2/1 1348/2/1 1349/2/1
f 1349/2/1 1348/2/1 1327/2/1
f 1350/1/1 1351/1/1 1352/1/1
f 1352/1/1 1351/1/1 1335/1/1
f 1353/2/1 1354/2/1 599/2/1
f 599/2/1 1354/2/1 603/2/1
f 1355/1/1 1356/1/1 1357/1/1
f 1357/1/1 1356/1/1 1320/1/1
f 1358/1/1 1359/1/1 1360/1/1
f 1360/1/1 1359/1/1 1326/1/1
f 1361/1/1 1362/1/1 1345/1/1
f 1345/1/1 1362/1/1 1363/1/1
f 1364/2/1 1365/2/1 1367/2/1
f 1367/2/1 1365/2/1 1366/2/1
f 1368/1/1 1369/1/1 1371/1/1
f 1371/1/1 1369/1/1 1370/1/1
f 1372/1/1 1373/1/1 1375/1/1
f 1375/1/1 1373/1/1 1374/1/1
f 1376/2/1 1377/2/1 1284/2/1
f 1284/2/1 1377/2/1 1378/2/1
f 1377/2/1 1379/2/1 1267/2/1
f 1267/2/1 1379/2/1 1380/2/1
f 1379/2/1 1381/2/1 1250/2/1
f 1250/2/1 1381/2/1 1382/2/1
f 1381/2/1 1383/2/1 594/2/1
f 594/2/1 1383/2/1 599/2/1
f 1384/1/1 1385/1/1 1386/1/1
f 1386/1/1 1385/1/1 1355/1/1
f 1387/1/1 1388/1/1 1319/1/1
f 1319/1/1 1388/1/1 1389/1/1
f 1390/1/1 1391/1/1 1392/1/1
f 1392/1/1 1391/1/1 1347/1/1
f 1393/1/1 1394/1/1 1362/1/1
f 1362/1/1 1394/1/1 1368/1/1
f 1395/1/1 1396/1/1 1398/1/1
f 1398/1/1 1396/1/1 1397/1/1
f 1399/1/1 1400/1/1 1401/1/1
f 1401/1/1 1400/1/1 1352/1/1
f 1402/2/1 1403/2/1 1405/2/1
f 1405/2/1 1403/2/1 1404/2/1
f 1406/2/1 1407/2/1 1313/2/1
f 1313/2/1 1407/2/1 1408/2/1
f 1407/2/1 1409/2/1 1303/2/1
f 1303/2/1 1409/2/1 1410/2/1
f 1411/1/1 1412/1/1 1413/1/1
f 1413/1/1 1412/1/1 1384/1/1
f 1414/1/1 1415/1/1 1417/1/1
f 1417/1/1 1415/1/1 1416/1/1
f 1415/1/1 1418/1/1 1354/1/1
f 1354/1/1 1418/1/1 1419/1/1
f 1420/1/1 1421/1/1 1422/1/1
f 1422/1/1 1421/1/1 1364/1/1
f 1421/1/1 1423/1/1 1425/1/1
f 1425/1/1 1423/1/1 1424/1/1
f 1423/1/1 1426/1/1 1365/1/1
f 1365/1/1 1426/1/1 1398/1/1
f 1427/1/1 1428/1/1 1429/1/1
f 1429/1/1 1428/1/1 1332/1/1
f 1430/1/1 1431/1/1 1400/1/1
f 1400/1/1 1431/1/1 1432/1/1
f 1433/2/1 1434/2/1 1333/2/1
f 1333/2/1 1434/2/1 1435/2/1
f 1436/1/1 1437/1/1 1438/1/1
f 1438/1/1 1437/1/1 1411/1/1
f 1439/1/1 1440/1/1 1442/1/1
f 1442/1/1 1440/1/1 1441/1/1
f 1440/1/1 1443/1/1 1383/1/1
f 1383/1/1 1443/1/1 1417/1/1
f 1444/1/1 1445/1/1 1446/1/1
f 1446/1/1 1445/1/1 1402/1/1
f 1447/1/1 1448/1/1 1431/1/1
f 1431/1/1 1448/1/1 1436/1/1
f 1449/1/1 1450/1/1 1452/1/1
f 1452/1/1 1450/1/1 1451/1/1
f 1450/1/1 1453/1/1 1409/1/1
f 1409/1/1 1453/1/1 1442/1/1
f 1454/1/1 1455/1/1 1456/1/1
f 1456/1/1 1455/1/1 1433/1/1
f 1457/1/1 1458/1/1 1460/1/1
f 1460/1/1 1458/1/1 1459/1/1
f 1458/1/1 1461/1/1 1434/1/1
f 1434/1/1 1461/1/1 1452/1/1
f 1462/1/1 1463/1/1 1464/1/1
f 1464/1/1 1463/1/1 1460/1/1
f 1465/1/2 983/1/2 1466/1/2
f 1466/1/2 983/1/2 985/1/2
f 1466/2/2 985/2/2 1467/2/2
f 1467/2/2 985/2/2 994/2/2
f 1468/1/2 1469/1/2 1471/1/2
f 1471/1/2 1469/1/2 1470/1/2
f 1471/2/2 1470/2/2 1472/2/2
f 1472/2/2 1470/2/2 1467/2/2
f 1473/1/2 1474/1/2 1476/1/2
f 1476/1/2 1474/1/2 1475/1/2
f 1476/1/2 964/1/2 1477/1/2
f 1477/1/2 964/1/2 966/1/2
f 1478/2/2 974/2/2 1479/2/2
f 1479/2/2 974/2/2 976/2/2
f 1480/1/2 1481/1/2 1483/1/2
f 1483/1/2 1481/1/2 1482/1/2
f 1484/1/2 1485/1/2 1487/1/2
f 1487/1/2 1485/1/2 1486/1/2
f 1487/1/2 1488/1/2 1489/1/2
f 1489/1/2 1488/1/2 1474/1/2
f 1490/2/2 973/2/2 1491/2/2
f 1491/2/2 973/2/2 974/2/2
f 1492/1/2 1493/1/2 1494/1/2
f 1494/1/2 1493/1/2 1479/1/2
f 1494/1/2 976/1/2 1495/1/2
f 1495/1/2 976/1/2 979/1/2
f 1496/1/2 1497/1/2 1498/1/2
f 1498/1/2 1497/1/2 1485/1/2
f 1499/2/2 1500/2/2 1501/2/2
f 1501/2/2 1500/2/2 973/2/2
f 1502/1/2 1478/1/2 1503/1/2
f 1503/1/2 1478/1/2 1493/1/2
f 1504/1/2 1490/1/2 1505/1/2
f 1505/1/2 1490/1/2 1491/1/2
f 1506/1/2 1507/1/2 1509/1/2
f 1509/1/2 1507/1/2 1508/1/2
f 1509/1/2 1510/1/2 1512/1/2
f 1512/1/2 1510/1/2 1511/1/2
f 1513/1/2 1514/1/2 1516/1/2
f 1516/1/2 1514/1/2 1515/1/2
f 1516/1/2 1517/1/2 1518/1/2
f 1518/1/2 1517/1/2 1507/1/2
f 1519/2/2 972/2/2 1520/2/2
f 1520/2/2 972/2/2 1500/2/2
f 1521/2/2 1482/2/2 1522/2/2
f 1522/2/2 1482/2/2 1472/2/2
f 1523/1/2 1524/1/2 1526/1/2
f 1526/1/2 1524/1/2 1525/1/2
f 1526/1/2 1527/1/2 1528/1/2
f 1528/1/2 1527/1/2 1514/1/2
f 1529/1/2 1499/1/2 1530/1/2
f 1530/1/2 1499/1/2 1501/1/2
f 1531/1/2 1532/1/2 1533/1/2
f 1533/1/2 1532/1/2 1483/1/2
f 1534/2/2 1535/2/2 1536/2/2
f 1536/2/2 1535/2/2 1522/2/2
f 1537/2/2 971/2/2 1538/2/2
f 1538/2/2 971/2/2 972/2/2
f 1539/1/2 1521/1/2 1540/1/2
f 1540/1/2 1521/1/2 1535/1/2
f 1541/2/2 1542/2/2 1543/2/2
f 1543/2/2 1542/2/2 1536/2/2
f 1544/1/2 1545/1/2 1547/1/2
f 1547/1/2 1545/1/2 1546/1/2
f 1548/2/2 969/2/2 1549/2/2
f 1549/2/2 969/2/2 971/2/2
f 1550/1/2 1519/1/2 1551/1/2
f 1551/1/2 1519/1/2 1520/1/2
f 1552/1/2 1534/1/2 1553/1/2
f 1553/1/2 1534/1/2 1542/1/2
f 1554/2/2 1555/2/2 1557/2/2
f 1557/2/2 1555/2/2 1556/2/2
f 1558/1/2 1559/1/2 1560/1/2
f 1560/1/2 1559/1/2 1543/1/2
f 1561/2/2 1523/2/2 1562/2/2
f 1562/2/2 1523/2/2 1528/2/2
f 1563/2/2 1484/2/2 1564/2/2
f 1564/2/2 1484/2/2 1489/2/2
f 1564/2/2 1473/2/2 1565/2/2
f 1565/2/2 1473/2/2 1477/2/2
f 1565/2/2 966/2/2 1566/2/2
f 1566/2/2 966/2/2 969/2/2
f 1567/1/2 1568/1/2 1569/1/2
f 1569/1/2 1568/1/2 1549/1/2
f 1569/1/2 1537/1/2 1570/1/2
f 1570/1/2 1537/1/2 1538/1/2
f 1571/1/2 1541/1/2 1572/1/2
f 1572/1/2 1541/1/2 1555/1/2
f 1572/1/2 1554/1/2 1573/1/2
f 1573/1/2 1554/1/2 1557/1/2
f 1573/1/2 1556/1/2 1574/1/2
f 1574/1/2 1556/1/2 1559/1/2
f 1575/1/2 1576/1/2 1577/1/2
f 1577/1/2 1576/1/2 1524/1/2
f 1578/2/2 1579/2/2 1580/2/2
f 1580/2/2 1579/2/2 1562/2/2
f 1581/2/2 1506/2/2 1582/2/2
f 1582/2/2 1506/2/2 1512/2/2
f 1582/2/2 1496/2/2 1583/2/2
f 1583/2/2 1496/2/2 1498/2/2
f 1584/1/2 1585/1/2 1586/1/2
f 1586/1/2 1585/1/2 1566/1/2
f 1586/1/2 1548/1/2 1587/1/2
f 1587/1/2 1548/1/2 1568/1/2
f 1588/1/2 1561/1/2 1589/1/2
f 1589/1/2 1561/1/2 1579/1/2
f 1590/2/2 1513/2/2 1591/2/2
f 1591/2/2 1513/2/2 1518/2/2
f 1592/1/2 1593/1/2 1594/1/2
f 1594/1/2 1593/1/2 1583/1/2
f 1594/1/2 1563/1/2 1595/1/2
f 1595/1/2 1563/1/2 1585/1/2
f 1596/1/2 1578/1/2 1597/1/2
f 1597/1/2 1578/1/2 1580/1/2
f 1598/1/2 1599/1/2 1600/1/2
f 1600/1/2 1599/1/2 1591/1/2
f 1600/1/2 1581/1/2 1601/1/2
f 1601/1/2 1581/1/2 1593/1/2
f 1602/1/2 1590/1/2 1603/1/2
f 1603/1/2 1590/1/2 1599/1/2
f 617/1/3 1282/1/3 979/1/3
f 979/1/3 1282/1/3 1495/1/3
f 1278/1/3 1295/1/3 1492/1/3
f 1492/1/3 1295/1/3 1503/1/3
f 1294/1/3 1297/1/3 1502/1/3
f 1502/1/3 1297/1/3 1505/1/3
f 1296/1/3 1339/1/3 1504/1/3
f 1504/1/3 1339/1/3 1530/1/3
f 1338/1/3 1388/1/3 1529/1/3
f 1529/1/3 1388/1/3 1551/1/3
f 1397/1/3 1396/1/3 1543/1/3
f 1543/1/3 1396/1/3 1560/1/3
f 1387/1/3 1418/1/3 1550/1/3
f 1550/1/3 1418/1/3 1570/1/3
f 1395/1/3 1426/1/3 1558/1/3
f 1558/1/3 1426/1/3 1574/1/3
f 1414/1/3 1443/1/3 1567/1/3
f 1567/1/3 1443/1/3 1587/1/3
f 1439/1/3 1453/1/3 1584/1/3
f 1584/1/3 1453/1/3 1595/1/3
f 1449/1/3 1461/1/3 1592/1/3
f 1592/1/3 1461/1/3 1601/1/3
f 1457/1/3 1463/1/3 1598/1/3
f 1598/1/3 1463/1/3 1603/1/3
f 1232/1/3 1231/1/3 633/1/3
f 633/1/3 1231/1/3 1233/1/3
f 1242/1/3 1241/1/3 1245/1/3
f 1245/1/3 1241/1/3 1243/1/3
f 592/1/3 1252/1/3 594/1/3
f 594/1/3 1252/1/3 1382/1/3
f 614/1/3 1259/1/3 616/1/3
f 616/1/3 1259/1/3 1280/1/3
f 1251/1/3 1270/1/3 1250/1/3
f 1250/1/3 1270/1/3 1380/1/3
f 1255/1/3 1276/1/3 1254/1/3
f 1254/1/3 1276/1/3 1298/1/3
f 1269/1/3 1287/1/3 1267/1/3
f 1267/1/3 1287/1/3 1378/1/3
f 1275/1/3 1292/1/3 1273/1/3
f 1273/1/3 1292/1/3 1340/1/3
f 1286/1/3 1307/1/3 1284/1/3
f 1284/1/3 1307/1/3 1410/1/3
f 1306/1/3 1316/1/3 1303/1/3
f 1303/1/3 1316/1/3 1408/1/3
f 1291/1/3 1321/1/3 1290/1/3
f 1290/1/3 1321/1/3 1389/1/3
f 1325/1/3 1324/1/3 1328/1/3
f 1328/1/3 1324/1/3 1326/1/3
f 1315/1/3 1336/1/3 1313/1/3
f 1313/1/3 1336/1/3 1435/1/3
f 1346/1/3 1345/1/3 1349/1/3
f 1349/1/3 1345/1/3 1347/1/3
f 1335/1/3 1351/1/3 1333/1/3
f 1333/1/3 1351/1/3 1404/1/3
f 1320/1/3 1356/1/3 1319/1/3
f 1319/1/3 1356/1/3 1419/1/3
f 1363/1/3 1362/1/3 1367/1/3
f 1367/1/3 1362/1/3 1364/1/3
f 1370/1/3 1369/1/3 1348/1/3
f 1348/1/3 1369/1/3 1397/1/3
f 1355/1/3 1385/1/3 1354/1/3
f 1354/1/3 1385/1/3 1416/1/3
f 1368/1/3 1394/1/3 1365/1/3
f 1365/1/3 1394/1/3 1424/1/3
f 1350/1/3 1400/1/3 1405/1/3
f 1405/1/3 1400/1/3 1402/1/3
f 1384/1/3 1412/1/3 1383/1/3
f 1383/1/3 1412/1/3 1441/1/3
f 1432/1/3 1431/1/3 1403/1/3
f 1403/1/3 1431/1/3 1433/1/3
f 1411/1/3 1437/1/3 1409/1/3
f 1409/1/3 1437/1/3 1451/1/3
f 1436/1/3 1448/1/3 1434/1/3
f 1434/1/3 1448/1/3 1459/1/3
f 621/1/4 983/1/4 1228/1/4
f 1228/1/4 983/1/4 1465/1/4
f 588/1/4 964/1/4 1248/1/4
f 1248/1/4 964/1/4 1475/1/4
f 1239/1/4 1469/1/4 1237/1/4
f 1237/1/4 1469/1/4 1468/1/4
f 1268/1/4 1488/1/4 1265/1/4
f 1265/1/4 1488/1/4 1486/1/4
f 1262/1/4 1481/1/4 1260/1/4
f 1260/1/4 1481/1/4 1480/1/4
f 1285/1/4 1497/1/4 1304/1/4
f 1304/1/4 1497/1/4 1511/1/4
f 1305/1/4 1510/1/4 1301/1/4
f 1301/1/4 1510/1/4 1508/1/4
f 1314/1/4 1517/1/4 1311/1/4
f 1311/1/4 1517/1/4 1515/1/4
f 1334/1/4 1527/1/4 1331/1/4
f 1331/1/4 1527/1/4 1525/1/4
f 1429/1/4 1576/1/4 1374/1/4
f 1374/1/4 1576/1/4 1546/1/4
f 1343/1/4 1532/1/4 1341/1/4
f 1341/1/4 1532/1/4 1531/1/4
f 1342/1/4 1533/1/4 1358/1/4
f 1358/1/4 1533/1/4 1539/1/4
f 1375/1/4 1545/1/4 1372/1/4
f 1372/1/4 1545/1/4 1544/1/4
f 1359/1/4 1540/1/4 1390/1/4
f 1390/1/4 1540/1/4 1552/1/4
f 1391/1/4 1553/1/4 1420/1/4
f 1420/1/4 1553/1/4 1571/1/4
f 1373/1/4 1547/1/4 1427/1/4
f 1427/1/4 1547/1/4 1575/1/4
f 1428/1/4 1577/1/4 1444/1/4
f 1444/1/4 1577/1/4 1588/1/4
f 1445/1/4 1589/1/4 1454/1/4
f 1454/1/4 1589/1/4 1596/1/4
f 1455/1/4 1597/1/4 1462/1/4
f 1462/1/4 1597/1/4 1602/1/4
f 627/1/4 630/1/4 1230/1/4
f 1230/1/4 630/1/4 1229/1/4
f 613/1/4 611/1/4 1257/1/4
f 1257/1/4 611/1/4 1236/1/4
f 1231/1/4 1233/1/4 1240/1/4
f 1240/1/4 1233/1/4 1238/1/4
f 591/1/4 589/1/4 1251/1/4
f 1251/1/4 589/1/4 1250/1/4
f 1258/1/4 1235/1/4 1255/1/4
f 1255/1/4 1235/1/4 1254/1/4
f 1271/1/4 1246/1/4 1269/1/4
f 1269/1/4 1246/1/4 1267/1/4
f 1277/1/4 1253/1/4 1275/1/4
f 1275/1/4 1253/1/4 1273/1/4
f 1288/1/4 1263/1/4 1286/1/4
f 1286/1/4 1263/1/4 1284/1/4
f 1293/1/4 1272/1/4 1291/1/4
f 1291/1/4 1272/1/4 1290/1/4
f 1308/1/4 1283/1/4 1306/1/4
f 1306/1/4 1283/1/4 1303/1/4
f 1317/1/4 1299/1/4 1315/1/4
f 1315/1/4 1299/1/4 1313/1/4
f 1322/1/4 1289/1/4 1320/1/4
f 1320/1/4 1289/1/4 1319/1/4
f 1241/1/4 1243/1/4 1323/1/4
f 1323/1/4 1243/1/4 1360/1/4
f 1337/1/4 1309/1/4 1335/1/4
f 1335/1/4 1309/1/4 1333/1/4
f 1324/1/4 1326/1/4 1344/1/4
f 1344/1/4 1326/1/4 1392/1/4
f 1357/1/4 1318/1/4 1355/1/4
f 1355/1/4 1318/1/4 1354/1/4
f 1345/1/4 1347/1/4 1361/1/4
f 1361/1/4 1347/1/4 1422/1/4
f 1371/1/4 1366/1/4 1368/1/4
f 1368/1/4 1366/1/4 1365/1/4
f 1386/1/4 1353/1/4 1384/1/4
f 1384/1/4 1353/1/4 1383/1/4
f 1362/1/4 1364/1/4 1393/1/4
f 1393/1/4 1364/1/4 1425/1/4
f 1401/1/4 1329/1/4 1399/1/4
f 1399/1/4 1329/1/4 1446/1/4
f 1413/1/4 1376/1/4 1411/1/4
f 1411/1/4 1376/1/4 1409/1/4
f 1400/1/4 1402/1/4 1430/1/4
f 1430/1/4 1402/1/4 1456/1/4
f 1438/1/4 1406/1/4 1436/1/4
f 1436/1/4 1406/1/4 1434/1/4
f 1431/1/4 1433/1/4 1447/1/4
f 1447/1/4 1433/1/4 1464/1/4
f 1547/1/5 1373/1/5 1544/1/5
f 1544/1/5 1373/1/5 1372/1/5
f 1577/1/5 1428/1/5 1575/1/5
f 1575/1/5 1428/1/5 1427/1/5
f 1589/1/5 1445/1/5 1588/1/5
f 1588/1/5 1445/1/5 1444/1/5
f 1402/1/5 1400/1/5 1446/1/5
f 1446/1/5 1400/1/5 1399/1/5
f 1597/1/5 1455/1/5 1596/1/5
f 1596/1/5 1455/1/5 1454/1/5
f 1404/1/5 1351/1/5 1405/1/5
f 1405/1/5 1351/1/5 1350/1/5
f 1433/1/5 1431/1/5 1456/1/5
f 1456/1/5 1431/1/5 1430/1/5
f 1603/1/5 1463/1/5 1602/1/5
f 1602/1/5 1463/1/5 1462/1/5
f 1435/1/5 1336/1/5 1333/1/5
f 1333/1/5 1336/1/5 1335/1/5
f 1459/1/5 1448/1/5 1464/1/5
f 1464/1/5 1448/1/5 1447/1/5
f 1601/1/5 1461/1/5 1598/1/5
f 1598/1/5 1461/1/5 1457/1/5
f 1408/1/5 1316/1/5 1313/1/5
f 1313/1/5 1316/1/5 1315/1/5
f 1410/1/5 1307/1/5 1303/1/5
f 1303/1/5 1307/1/5 1306/1/5
f 1451/1/5 1437/1/5 1434/1/5
f 1434/1/5 1437/1/5 1436/1/5
f 1595/1/5 1453/1/5 1592/1/5
f 1592/1/5 1453/1/5 1449/1/5
f 1378/1/5 1287/1/5 1284/1/5
f 1284/1/5 1287/1/5 1286/1/5
f 1380/1/5 1270/1/5 1267/1/5
f 1267/1/5 1270/1/5 1269/1/5
f 1382/1/5 1252/1/5 1250/1/5
f 1250/1/5 1252/1/5 1251/1/5
f 1441/1/5 1412/1/5 1409/1/5
f 1409/1/5 1412/1/5 1411/1/5
f 1587/1/5 1443/1/5 1584/1/5
f 1584/1/5 1443/1/5 1439/1/5
f 1416/1/5 1385/1/5 1383/1/5
f 1383/1/5 1385/1/5 1384/1/5
f 1570/1/5 1418/1/5 1567/1/5
f 1567/1/5 1418/1/5 1414/1/5
f 1419/1/5 1356/1/5 1354/1/5
f 1354/1/5 1356/1/5 1355/1/5
f 1551/1/5 1388/1/5 1550/1/5
f 1550/1/5 1388/1/5 1387/1/5
f 1389/1/5 1321/1/5 1319/1/5
f 1319/1/5 1321/1/5 1320/1/5
f 1530/1/5 1339/1/5 1529/1/5
f 1529/1/5 1339/1/5 1338/1/5
f 1340/1/5 1292/1/5 1290/1/5
f 1290/1/5 1292/1/5 1291/1/5
f 1505/1/5 1297/1/5 1504/1/5
f 1504/1/5 1297/1/5 1296/1/5
f 1298/1/5 1276/1/5 1273/1/5
f 1273/1/5 1276/1/5 1275/1/5
f 1503/1/5 1295/1/5 1502/1/5
f 1502/1/5 1295/1/5 1294/1/5
f 1280/1/5 1259/1/5 1254/1/5
f 1254/1/5 1259/1/5 1255/1/5
f 1495/1/5 1282/1/5 1492/1/5
f 1492/1/5 1282/1/5 1278/1/5
f 1469/1/5 1239/1/5 1465/1/5
f 1465/1/5 1239/1/5 1228/1/5
f 1481/1/5 1262/1/5 1468/1/5
f 1468/1/5 1262/1/5 1237/1/5
f 1532/1/5 1343/1/5 1480/1/5
f 1480/1/5 1343/1/5 1260/1/5
f 1233/1/5 1231/1/5 1229/1/5
f 1229/1/5 1231/1/5 1230/1/5
f 1533/1/5 1342/1/5 1531/1/5
f 1531/1/5 1342/1/5 1341/1/5
f 1243/1/5 1241/1/5 1238/1/5
f 1238/1/5 1241/1/5 1240/1/5
f 1540/1/5 1359/1/5 1539/1/5
f 1539/1/5 1359/1/5 1358/1/5
f 1326/1/5 1324/1/5 1360/1/5
f 1360/1/5 1324/1/5 1323/1/5
f 1553/1/5 1391/1/5 1552/1/5
f 1552/1/5 1391/1/5 1390/1/5
f 1347/1/5 1345/1/5 1392/1/5
f 1392/1/5 1345/1/5 1344/1/5
f 1364/1/5 1362/1/5 1422/1/5
f 1422/1/5 1362/1/5 1361/1/5
f 1424/1/5 1394/1/5 1425/1/5
f 1425/1/5 1394/1/5 1393/1/5
f 1574/1/5 1426/1/5 1571/1/5
f 1571/1/5 1426/1/5 1420/1/5
f 1560/1/5 1396/1/5 1558/1/5
f 1558/1/5 1396/1/5 1395/1/5
f 1397/1/5 1369/1/5 1365/1/5
f 1365/1/5 1369/1/5 1368/1/5
f 1546/1/6 1545/1/6 1374/1/6
f 1374/1/6 1545/1/6 1375/1/6
f 1525/1/6 1576/1/6 1331/1/6
f 1331/1/6 1576/1/6 1429/1/6
f 1333/1/6 1329/1/6 1335/1/6
f 1335/1/6 1329/1/6 1401/1/6
f 1403/1/6 1402/1/6 1432/1/6
f 1432/1/6 1402/1/6 1400/1/6
f 1515/1/6 1527/1/6 1311/1/6
f 1311/1/6 1527/1/6 1334/1/6
f 1313/1/6 1309/1/6 1315/1/6
f 1315/1/6 1309/1/6 1337/1/6
f 1434/1/6 1433/1/6 1436/1/6
f 1436/1/6 1433/1/6 1431/1/6
f 1508/1/6 1517/1/6 1301/1/6
f 1301/1/6 1517/1/6 1314/1/6
f 1511/1/6 1510/1/6 1304/1/6
f 1304/1/6 1510/1/6 1305/1/6
f 1303/1/6 1299/1/6 1306/1/6
f 1306/1/6 1299/1/6 1317/1/6
f 1284/1/6 1283/1/6 1286/1/6
f 1286/1/6 1283/1/6 1308/1/6
f 1409/1/6 1406/1/6 1411/1/6
f 1411/1/6 1406/1/6 1438/1/6
f 1486/1/6 1497/1/6 1265/1/6
f 1265/1/6 1497/1/6 1285/1/6
f 1267/1/6 1263/1/6 1269/1/6
f 1269/1/6 1263/1/6 1288/1/6
f 1475/1/6 1488/1/6 1248/1/6
f 1248/1/6 1488/1/6 1268/1/6
f 1250/1/6 1246/1/6 1251/1/6
f 1251/1/6 1246/1/6 1271/1/6
f 1383/1/6 1376/1/6 1384/1/6
f 1384/1/6 1376/1/6 1413/1/6
f 1354/1/6 1353/1/6 1355/1/6
f 1355/1/6 1353/1/6 1386/1/6
f 1319/1/6 1318/1/6 1320/1/6
f 1320/1/6 1318/1/6 1357/1/6
f 1290/1/6 1289/1/6 1291/1/6
f 1291/1/6 1289/1/6 1322/1/6
f 1273/1/6 1272/1/6 1275/1/6
f 1275/1/6 1272/1/6 1293/1/6
f 1254/1/6 1253/1/6 1255/1/6
f 1255/1/6 1253/1/6 1277/1/6
f 1236/1/6 1235/1/6 1257/1/6
f 1257/1/6 1235/1/6 1258/1/6
f 633/1/6 630/1/6 1232/1/6
f 1232/1/6 630/1/6 627/1/6
f 1245/1/6 1233/1/6 1242/1/6
f 1242/1/6 1233/1/6 1231/1/6
f 1328/1/6 1243/1/6 1325/1/6
f 1325/1/6 1243/1/6 1241/1/6
f 1349/1/6 1326/1/6 1346/1/6
f 1346/1/6 1326/1/6 1324/1/6
f 1367/1/6 1347/1/6 1363/1/6
f 1363/1/6 1347/1/6 1345/1/6
f 1365/1/6 1364/1/6 1368/1/6
f 1368/1/6 1364/1/6 1362/1/6
f 1348/1/6 1366/1/6 1370/1/6
f 1370/1/6 1366/1/6 1371/1/6
f 1604/1/1 1605/1/1 1140/1/1
f 1140/1/1 1605/1/1 1141/1/1
f 1606/1/1 1607/1/1 1143/1/1
f 1143/1/1 1607/1/1 1144/1/1
f 1607/1/1 1608/1/1 1610/1/1
f 1610/1/1 1608/1/1 1609/1/1
f 1611/1/1 1612/1/1 1605/1/1
f 1605/1/1 1612/1/1 1613/1/1
f 1614/1/1 1615/1/1 1617/1/1
f 1617/1/1 1615/1/1 1616/1/1
f 1618/2/1 1619/2/1 1620/2/1
f 1620/2/1 1619/2/1 1614/2/1
f 1621/1/1 1622/1/1 1612/1/1
f 1612/1/1 1622/1/1 1623/1/1
f 1624/2/1 1625/2/1 1626/2/1
f 1626/2/1 1625/2/1 1138/2/1
f 1625/2/1 1627/2/1 1628/2/1
f 1628/2/1 1627/2/1 1606/2/1
f 1627/2/1 1629/2/1 1630/2/1
f 1630/2/1 1629/2/1 1620/2/1
f 1631/1/1 1632/1/1 1633/1/1
f 1633/1/1 1632/1/1 1615/1/1
f 1327/2/1 1634/2/1 646/2/1
f 646/2/1 1634/2/1 1626/2/1
f 1635/1/1 1636/1/1 1638/1/1
f 1638/1/1 1636/1/1 1637/1/1
f 1636/1/1 1639/1/1 1640/1/1
f 1640/1/1 1639/1/1 1621/1/1
f 1370/1/1 1641/1/1 1642/1/1
f 1642/1/1 1641/1/1 1635/1/1
f 1643/1/1 1644/1/1 1646/1/1
f 1646/1/1 1644/1/1 1645/1/1
f 1644/1/1 1647/1/1 1619/1/1
f 1619/1/1 1647/1/1 1648/1/1
f 1397/1/1 1649/1/1 1348/1/1
f 1348/1/1 1649/1/1 1650/1/1
f 1649/1/1 1651/1/1 1634/1/1
f 1634/1/1 1651/1/1 1646/1/1
f 1652/1/2 1225/1/2 1653/1/2
f 1653/1/2 1225/1/2 1226/1/2
f 1653/1/2 1654/1/2 1656/1/2
f 1656/1/2 1654/1/2 1655/1/2
f 1657/1/2 1658/1/2 1660/1/2
f 1660/1/2 1658/1/2 1659/1/2
f 1661/2/2 1657/2/2 1663/2/2
f 1663/2/2 1657/2/2 1662/2/2
f 1664/1/2 1662/1/2 1665/1/2
f 1665/1/2 1662/1/2 1660/1/2
f 1666/2/2 1667/2/2 1668/2/2
f 1668/2/2 1667/2/2 1225/2/2
f 1668/2/2 1652/2/2 1669/2/2
f 1669/2/2 1652/2/2 1658/2/2
f 1536/2/2 994/2/2 1670/2/2
f 1670/2/2 994/2/2 1667/2/2
f 1671/1/2 1672/1/2 1673/1/2
f 1673/1/2 1672/1/2 1669/1/2
f 1673/1/2 1661/1/2 1674/1/2
f 1674/1/2 1661/1/2 1663/1/2
f 1543/1/2 1536/1/2 1675/1/2
f 1675/1/2 1536/1/2 1670/1/2
f 1675/1/2 1666/1/2 1676/1/2
f 1676/1/2 1666/1/2 1672/1/2
f 1144/1/3 1610/1/3 1226/1/3
f 1226/1/3 1610/1/3 1654/1/3
f 1609/1/3 1608/1/3 1655/1/3
f 1655/1/3 1608/1/3 1656/1/3
f 1616/1/3 1632/1/3 1659/1/3
f 1659/1/3 1632/1/3 1665/1/3
f 1631/1/3 1647/1/3 1664/1/3
f 1664/1/3 1647/1/3 1674/1/3
f 1643/1/3 1651/1/3 1671/1/3
f 1671/1/3 1651/1/3 1676/1/3
f 1141/1/3 1605/1/3 1143/1/3
f 1143/1/3 1605/1/3 1606/1/3
f 1613/1/3 1612/1/3 1617/1/3
f 1617/1/3 1612/1/3 1614/1/3
f 1623/1/3 1622/1/3 1633/1/3
f 1633/1/3 1622/1/3 1648/1/3
f 1621/1/3 1639/1/3 1619/1/3
f 1619/1/3 1639/1/3 1645/1/3
f 1635/1/3 1641/1/3 1634/1/3
f 1634/1/3 1641/1/3 1650/1/3
f 1140/1/4 1138/1/4 1604/1/4
f 1604/1/4 1138/1/4 1628/1/4
f 1605/1/4 1606/1/4 1611/1/4
f 1611/1/4 1606/1/4 1630/1/4
f 1612/1/4 1614/1/4 1621/1/4
f 1621/1/4 1614/1/4 1619/1/4
f 1640/1/4 1618/1/4 1637/1/4
f 1637/1/4 1618/1/4 1629/1/4
f 1638/1/4 1624/1/4 1635/1/4
f 1635/1/4 1624/1/4 1634/1/4
f 1642/1/4 1327/1/4 1370/1/4
f 1370/1/4 1327/1/4 1348/1/4
f 1650/1/5 1641/1/5 1348/1/5
f 1348/1/5 1641/1/5 1370/1/5
f 1676/1/5 1651/1/5 1543/1/5
f 1543/1/5 1651/1/5 1397/1/5
f 1606/1/5 1605/1/5 1628/1/5
f 1628/1/5 1605/1/5 1604/1/5
f 1614/1/5 1612/1/5 1630/1/5
f 1630/1/5 1612/1/5 1611/1/5
f 1645/1/5 1639/1/5 1634/1/5
f 1634/1/5 1639/1/5 1635/1/5
f 1674/1/5 1647/1/5 1671/1/5
f 1671/1/5 1647/1/5 1643/1/5
f 1648/1/5 1622/1/5 1619/1/5
f 1619/1/5 1622/1/5 1621/1/5
f 1665/1/5 1632/1/5 1664/1/5
f 1664/1/5 1632/1/5 1631/1/5
f 1634/1/6 1327/1/6 1635/1/6
f 1635/1/6 1327/1/6 1642/1/6
f 1629/1/6 1624/1/6 1637/1/6
f 1637/1/6 1624/1/6 1638/1/6
f 1617/1/6 1606/1/6 1613/1/6
f 1613/1/6 1606/1/6 1605/1/6
f 1619/1/6 1618/1/6 1621/1/6
f 1621/1/6 1618/1/6 1640/1/6
f 1655/1/6 1654/1/6 1609/1/6
f 1609/1/6 1654/1/6 1610/1/6
f 1633/1/6 1614/1/6 1623/1/6
f 1623/1/6 1614/1/6 1612/1/6
f 1659/1/6 1656/1/6 1616/1/6
f 1616/1/6 1656/1/6 1608/1/6
