# Vengi binary mesh normalized for Tanks of Freedom II

mtllib ../../materials/vox_building.mtl
o heli_rotor

v 0.1 0.6 1.4
v 0 0.6 1.4
v 0 0.6 1.5
v 0.1 0.6 1.5
v 0 0.6 1
v -0.1 0.6 1
v -0.1 0.6 1.4
v 1.4 0.6 0
v 1 0.6 0
v 1 0.6 0.1
v 1.4 0.6 0.1
v 0.1 0.1 0
v 0 0.1 0
v 0 0.1 0.1
v 0.1 0.1 0.1
v 0.1 0.3 0
v 0 0.3 0
v 0 0.3 0.1
v 0.1 0.3 0.1
v 0 0.2 0
v -0.1 0.2 0
v -0.1 0.2 0.1
v 0 0.2 0.1
v 0 0.4 0
v -0.1 0.4 0
v -0.1 0.4 0.1
v 0 0.4 0.1
v -0.1 0.6 0
v -1.4 0.6 0
v -1.4 0.6 0.1
v -0.1 0.6 0.1
v -1.5 0.6 0
v -1.5 0.6 0.1
v 1.5 0.6 -0.1
v 1.4 0.6 -0.1
v 1.5 0.6 0
v 0.1 0.6 -0.1
v 0.1 0.6 0
v 0.1 0.2 -0.1
v 0 0.2 -0.1
v 0.1 0.2 0
v 0.1 0.4 -0.1
v 0 0.4 -0.1
v 0.1 0.4 0
v 0 0.6 -0.1
v 0 0.1 -0.1
v -0.1 0.1 -0.1
v -0.1 0.1 0
v 0 0.3 -0.1
v -0.1 0.3 -0.1
v -0.1 0.3 0
v -1 0.6 -0.1
v -1.4 0.6 -0.1
v -1 0.6 0
v 0.1 0.6 -1.4
v 0 0.6 -1.4
v 0 0.6 -1
v 0.1 0.6 -1
v -0.1 0.6 -1.4
v 0 0.6 0.1
v 0 0.6 -1.5
v -0.1 0.6 -1.5
v 0.1 0.5 1.4
v 0.1 0.5 1.5
v 0 0.5 1.5
v 0 0.5 1.4
v 0 0.5 1
v -0.1 0.5 1.4
v -0.1 0.5 1
v 0.1 0.5 0.1
v 0 0.5 0.1
v 1.4 0.5 0
v 1.4 0.5 0.1
v 1 0.5 0.1
v 1 0.5 0
v 0.1 0 0
v 0.1 0 0.1
v 0 0 0.1
v 0 0 0
v 0.1 0.2 0.1
v 0.1 0.4 0.1
v -0.1 0.1 0.1
v -0.1 0.3 0.1
v 0 0.5 0
v -1.4 0.5 0.1
v -1.4 0.5 0
v -1.5 0.5 0.1
v -1.5 0.5 0
v 1.5 0.5 -0.1
v 1.5 0.5 0
v 1.4 0.5 -0.1
v 0.1 0.1 -0.1
v 0.1 0.3 -0.1
v 0 0.5 -0.1
v 0 0 -0.1
v -0.1 0 0
v -0.1 0 -0.1
v -0.1 0.2 -0.1
v -0.1 0.4 -0.1
v -1 0.5 -0.1
v -1 0.5 0
v -1.4 0.5 -0.1
v 0.1 0.5 -1.4
v 0.1 0.5 -1
v 0 0.5 -1
v 0 0.5 -1.4
v -0.1 0.5 -0.1
v -0.1 0.5 -1.4
v 0 0.5 -1.5
v -0.1 0.5 -1.5
v -0.1 0.5 0
v 0.1 0.5 0

vt 0.00585938 0.5
vt 0.0839844 0.5

vn 0 1 0
vn 0 -1 0
vn -1 0 0
vn 1 0 0
vn 0 0 -1
vn 0 0 1

usemtl palette
f 1/2/1 2/2/1 4/2/1
f 4/2/1 2/2/1 3/2/1
f 5/2/1 6/2/1 2/2/1
f 2/2/1 6/2/1 7/2/1
f 8/2/1 9/2/1 11/2/1
f 11/2/1 9/2/1 10/2/1
f 12/2/1 13/2/1 15/2/1
f 15/2/1 13/2/1 14/2/1
f 16/2/1 17/2/1 19/2/1
f 19/2/1 17/2/1 18/2/1
f 20/2/1 21/2/1 23/2/1
f 23/2/1 21/2/1 22/2/1
f 24/2/1 25/2/1 27/2/1
f 27/2/1 25/2/1 26/2/1
f 28/1/1 29/1/1 31/1/1
f 31/1/1 29/1/1 30/1/1
f 29/2/1 32/2/1 30/2/1
f 30/2/1 32/2/1 33/2/1
f 34/2/1 35/2/1 36/2/1
f 36/2/1 35/2/1 8/2/1
f 35/1/1 37/1/1 8/1/1
f 8/1/1 37/1/1 38/1/1
f 39/2/1 40/2/1 41/2/1
f 41/2/1 40/2/1 20/2/1
f 42/2/1 43/2/1 44/2/1
f 44/2/1 43/2/1 24/2/1
f 37/1/1 45/1/1 1/1/1
f 1/1/1 45/1/1 2/1/1
f 46/2/1 47/2/1 13/2/1
f 13/2/1 47/2/1 48/2/1
f 49/2/1 50/2/1 17/2/1
f 17/2/1 50/2/1 51/2/1
f 52/2/1 53/2/1 54/2/1
f 54/2/1 53/2/1 29/2/1
f 55/2/1 56/2/1 58/2/1
f 58/2/1 56/2/1 57/2/1
f 56/1/1 59/1/1 60/1/1
f 60/1/1 59/1/1 31/1/1
f 61/2/1 62/2/1 56/2/1
f 56/2/1 62/2/1 59/2/1
f 63/2/2 64/2/2 66/2/2
f 66/2/2 64/2/2 65/2/2
f 67/2/2 66/2/2 69/2/2
f 69/2/2 66/2/2 68/2/2
f 70/1/2 63/1/2 71/1/2
f 71/1/2 63/1/2 66/1/2
f 72/2/2 73/2/2 75/2/2
f 75/2/2 73/2/2 74/2/2
f 76/2/2 77/2/2 79/2/2
f 79/2/2 77/2/2 78/2/2
f 41/2/2 80/2/2 20/2/2
f 20/2/2 80/2/2 23/2/2
f 44/2/2 81/2/2 24/2/2
f 24/2/2 81/2/2 27/2/2
f 13/2/2 14/2/2 48/2/2
f 48/2/2 14/2/2 82/2/2
f 17/2/2 18/2/2 51/2/2
f 51/2/2 18/2/2 83/2/2
f 84/1/2 71/1/2 86/1/2
f 86/1/2 71/1/2 85/1/2
f 86/2/2 85/2/2 88/2/2
f 88/2/2 85/2/2 87/2/2
f 89/2/2 90/2/2 91/2/2
f 91/2/2 90/2/2 72/2/2
f 92/2/2 12/2/2 46/2/2
f 46/2/2 12/2/2 13/2/2
f 93/2/2 16/2/2 49/2/2
f 49/2/2 16/2/2 17/2/2
f 91/1/2 72/1/2 94/1/2
f 94/1/2 72/1/2 84/1/2
f 95/2/2 79/2/2 97/2/2
f 97/2/2 79/2/2 96/2/2
f 40/2/2 20/2/2 98/2/2
f 98/2/2 20/2/2 21/2/2
f 43/2/2 24/2/2 99/2/2
f 99/2/2 24/2/2 25/2/2
f 100/2/2 101/2/2 102/2/2
f 102/2/2 101/2/2 86/2/2
f 103/2/2 104/2/2 106/2/2
f 106/2/2 104/2/2 105/2/2
f 106/1/2 94/1/2 108/1/2
f 108/1/2 94/1/2 107/1/2
f 109/2/2 106/2/2 110/2/2
f 110/2/2 106/2/2 108/2/2
f 14/2/3 13/2/3 78/2/3
f 78/2/3 13/2/3 79/2/3
f 48/2/3 47/2/3 96/2/3
f 96/2/3 47/2/3 97/2/3
f 22/2/3 21/2/3 82/2/3
f 82/2/3 21/2/3 48/2/3
f 20/2/3 40/2/3 13/2/3
f 13/2/3 40/2/3 46/2/3
f 18/2/3 17/2/3 23/2/3
f 23/2/3 17/2/3 20/2/3
f 51/2/3 50/2/3 21/2/3
f 21/2/3 50/2/3 98/2/3
f 26/2/3 25/2/3 83/2/3
f 83/2/3 25/2/3 51/2/3
f 24/2/3 43/2/3 17/2/3
f 17/2/3 43/2/3 49/2/3
f 71/2/3 84/2/3 27/2/3
f 27/2/3 84/2/3 24/2/3
f 111/2/3 107/2/3 25/2/3
f 25/2/3 107/2/3 99/2/3
f 3/2/3 2/2/3 65/2/3
f 65/2/3 2/2/3 66/2/3
f 7/2/3 6/2/3 68/2/3
f 68/2/3 6/2/3 69/2/3
f 5/1/3 60/1/3 67/1/3
f 67/1/3 60/1/3 71/1/3
f 10/2/3 9/2/3 74/2/3
f 74/2/3 9/2/3 75/2/3
f 33/2/3 32/2/3 87/2/3
f 87/2/3 32/2/3 88/2/3
f 29/2/3 53/2/3 86/2/3
f 86/2/3 53/2/3 102/2/3
f 28/1/3 59/1/3 111/1/3
f 111/1/3 59/1/3 108/1/3
f 59/2/3 62/2/3 108/2/3
f 108/2/3 62/2/3 110/2/3
f 15/2/4 77/2/4 12/2/4
f 12/2/4 77/2/4 76/2/4
f 13/2/4 79/2/4 46/2/4
f 46/2/4 79/2/4 95/2/4
f 23/2/4 14/2/4 20/2/4
f 20/2/4 14/2/4 13/2/4
f 41/2/4 12/2/4 39/2/4
f 39/2/4 12/2/4 92/2/4
f 19/2/4 80/2/4 16/2/4
f 16/2/4 80/2/4 41/2/4
f 17/2/4 20/2/4 49/2/4
f 49/2/4 20/2/4 40/2/4
f 27/2/4 18/2/4 24/2/4
f 24/2/4 18/2/4 17/2/4
f 44/2/4 16/2/4 42/2/4
f 42/2/4 16/2/4 93/2/4
f 70/2/4 81/2/4 112/2/4
f 112/2/4 81/2/4 44/2/4
f 84/2/4 24/2/4 94/2/4
f 94/2/4 24/2/4 43/2/4
f 4/2/4 64/2/4 1/2/4
f 1/2/4 64/2/4 63/2/4
f 11/2/4 73/2/4 8/2/4
f 8/2/4 73/2/4 72/2/4
f 1/1/4 63/1/4 38/1/4
f 38/1/4 63/1/4 112/1/4
f 36/2/4 90/2/4 34/2/4
f 34/2/4 90/2/4 89/2/4
f 54/2/4 101/2/4 52/2/4
f 52/2/4 101/2/4 100/2/4
f 45/1/4 94/1/4 57/1/4
f 57/1/4 94/1/4 105/1/4
f 58/2/4 104/2/4 55/2/4
f 55/2/4 104/2/4 103/2/4
f 56/2/4 106/2/4 61/2/4
f 61/2/4 106/2/4 109/2/4
f 91/2/5 35/2/5 89/2/5
f 89/2/5 35/2/5 34/2/5
f 79/2/5 13/2/5 76/2/5
f 76/2/5 13/2/5 12/2/5
f 46/2/5 40/2/5 92/2/5
f 92/2/5 40/2/5 39/2/5
f 20/2/5 17/2/5 41/2/5
f 41/2/5 17/2/5 16/2/5
f 49/2/5 43/2/5 93/2/5
f 93/2/5 43/2/5 42/2/5
f 24/2/5 84/2/5 44/2/5
f 44/2/5 84/2/5 112/2/5
f 94/1/5 45/1/5 91/1/5
f 91/1/5 45/1/5 35/1/5
f 106/2/5 56/2/5 103/2/5
f 103/2/5 56/2/5 55/2/5
f 97/2/5 47/2/5 95/2/5
f 95/2/5 47/2/5 46/2/5
f 48/2/5 21/2/5 13/2/5
f 13/2/5 21/2/5 20/2/5
f 98/2/5 50/2/5 40/2/5
f 40/2/5 50/2/5 49/2/5
f 51/2/5 25/2/5 17/2/5
f 17/2/5 25/2/5 24/2/5
f 99/2/5 107/2/5 43/2/5
f 43/2/5 107/2/5 94/2/5
f 69/2/5 6/2/5 67/2/5
f 67/2/5 6/2/5 5/2/5
f 110/2/5 62/2/5 109/2/5
f 109/2/5 62/2/5 61/2/5
f 101/1/5 54/1/5 111/1/5
f 111/1/5 54/1/5 28/1/5
f 102/2/5 53/2/5 100/2/5
f 100/2/5 53/2/5 52/2/5
f 88/2/5 32/2/5 86/2/5
f 86/2/5 32/2/5 29/2/5
f 72/2/6 90/2/6 8/2/6
f 8/2/6 90/2/6 36/2/6
f 74/2/6 73/2/6 10/2/6
f 10/2/6 73/2/6 11/2/6
f 112/1/6 75/1/6 38/1/6
f 38/1/6 75/1/6 9/1/6
f 78/2/6 77/2/6 14/2/6
f 14/2/6 77/2/6 15/2/6
f 13/2/6 12/2/6 20/2/6
f 20/2/6 12/2/6 41/2/6
f 23/2/6 80/2/6 18/2/6
f 18/2/6 80/2/6 19/2/6
f 17/2/6 16/2/6 24/2/6
f 24/2/6 16/2/6 44/2/6
f 27/2/6 81/2/6 71/2/6
f 71/2/6 81/2/6 70/2/6
f 65/2/6 64/2/6 3/2/6
f 3/2/6 64/2/6 4/2/6
f 105/2/6 104/2/6 57/2/6
f 57/2/6 104/2/6 58/2/6
f 96/2/6 79/2/6 48/2/6
f 48/2/6 79/2/6 13/2/6
f 82/2/6 14/2/6 22/2/6
f 22/2/6 14/2/6 23/2/6
f 21/2/6 20/2/6 51/2/6
f 51/2/6 20/2/6 17/2/6
f 83/2/6 18/2/6 26/2/6
f 26/2/6 18/2/6 27/2/6
f 25/2/6 24/2/6 111/2/6
f 111/2/6 24/2/6 84/2/6
f 68/2/6 66/2/6 7/2/6
f 7/2/6 66/2/6 2/2/6
f 85/1/6 71/1/6 30/1/6
f 30/1/6 71/1/6 60/1/6
f 87/2/6 85/2/6 33/2/6
f 33/2/6 85/2/6 30/2/6
