# Vengi binary mesh normalized for Tanks of Freedom II

mtllib ../../materials/vox_building.mtl
o infantry

v 0.7 0.5 0.2
v 0.6 0.5 0.2
v 0.6 0.5 0.3
v 0.7 0.5 0.3
v 0.3 1 0.2
v 0.2 1 0.2
v 0.2 1 0.3
v 0.3 1 0.3
v 0.2 1.1 0.2
v 0.1 1.1 0.2
v 0.1 1.1 0.3
v 0.2 1.1 0.3
v -0.1 1.1 0.2
v -0.1 1.1 0.3
v -0.2 1.1 0.2
v -0.2 1.1 0.3
v -0.2 1 0.2
v -0.3 1 0.2
v -0.3 1 0.3
v -0.2 1 0.3
v 0.3 0.8 0.1
v 0.2 0.8 0.1
v 0.2 0.8 0.2
v 0.3 0.8 0.2
v -0.2 0.8 0.1
v -0.3 0.8 0.1
v -0.3 0.8 0.2
v -0.2 0.8 0.2
v 0.4 0.6 0
v 0.3 0.6 0
v 0.3 0.6 0.1
v 0.4 0.6 0.1
v 0.3 0.4 0
v 0.2 0.4 0
v 0.2 0.4 0.1
v 0.3 0.4 0.1
v 0.3 1.1 0
v 0.2 1.1 0
v 0.3 1.1 0.2
v -0.2 1.1 0
v -0.3 1.1 0
v -0.3 1.1 0.2
v -0.3 0.6 0
v -0.4 0.6 0
v -0.4 0.6 0.1
v -0.3 0.6 0.1
v -0.4 0.5 0
v -0.5 0.5 0
v -0.5 0.5 0.1
v -0.4 0.5 0.1
v -0.5 0.4 0
v -0.6 0.4 0
v -0.6 0.4 0.1
v -0.5 0.4 0.1
v -0.5 1.2 0
v -0.6 1.2 0
v -0.6 1.2 0.1
v -0.5 1.2 0.1
v -0.6 1.3 0
v -0.7 1.3 0
v -0.7 1.3 0.1
v -0.6 1.3 0.1
v -0.7 0.1 0
v -0.8 0.1 0
v -0.8 0.1 0.1
v -0.7 0.1 0.1
v -0.7 0.9 0
v -0.8 0.9 0
v -0.8 0.9 0.1
v -0.7 0.9 0.1
v 0.3 0.8 -0.1
v 0.2 0.8 -0.1
v 0.2 0.8 0
v 0.3 0.8 0
v 0.2 1.4 -0.1
v -0.2 1.4 -0.1
v -0.2 1.4 0.2
v 0.2 1.4 0.2
v -0.2 0.8 -0.1
v -0.3 0.8 -0.1
v -0.3 0.8 0
v -0.2 0.8 0
v 1 0.5 -0.2
v 0.9 0.5 -0.2
v 0.9 0.5 -0.1
v 1 0.5 -0.1
v 0.4 0.5 -0.2
v 0.3 0.5 -0.2
v 0.3 0.5 -0.1
v 0.4 0.5 -0.1
v 0.3 1 -0.2
v 0.2 1 -0.2
v 0.2 1 0
v 0.3 1 0
v -0.2 1 -0.2
v -0.2 1 -0.1
v 0.2 1 -0.1
v -0.3 1 -0.2
v -0.3 1 0
v -0.2 1 0
v 1 0.3 -0.3
v 0.9 0.3 -0.3
v 0.9 0.3 -0.2
v 1 0.3 -0.2
v 1 0.6 -0.3
v 0.9 0.6 -0.3
v 0.9 0.6 -0.2
v 1 0.6 -0.2
v 0.8 0.6 -0.3
v 0.7 0.6 -0.3
v 0.7 0.6 0.3
v 0.8 0.6 0.3
v 0.7 0.7 -0.3
v 0.6 0.7 -0.3
v 0.6 0.7 0.3
v 0.7 0.7 0.3
v 0.6 0.6 -0.3
v 0.5 0.6 -0.3
v 0.5 0.6 0.3
v 0.6 0.6 0.3
v 0.4 0.3 -0.3
v 0.3 0.3 -0.3
v 0.3 0.3 -0.2
v 0.4 0.3 -0.2
v 0.4 0.6 -0.3
v 0.3 0.6 -0.3
v 0.3 0.6 -0.2
v 0.4 0.6 -0.2
v 0.9 0.7 -0.4
v 0.8 0.7 -0.4
v 0.8 0.7 -0.3
v 0.9 0.7 -0.3
v 0.8 0.8 -0.4
v 0.5 0.8 -0.4
v 0.5 0.8 -0.3
v 0.8 0.8 -0.3
v 0.5 0.7 -0.4
v 0.4 0.7 -0.4
v 0.4 0.7 -0.3
v 0.5 0.7 -0.3
v 1 0.1 -0.5
v 0.9 0.1 -0.5
v 0.9 0.1 -0.4
v 1 0.1 -0.4
v 1 0.5 -0.5
v 0.9 0.5 -0.5
v 0.9 0.5 -0.4
v 1 0.5 -0.4
v 0.9 0.4 -0.5
v 0.7 0.4 -0.5
v 0.7 0.4 -0.4
v 0.9 0.4 -0.4
v 0.6 0.4 -0.5
v 0.4 0.4 -0.5
v 0.4 0.4 -0.4
v 0.6 0.4 -0.4
v 0.4 0.1 -0.5
v 0.3 0.1 -0.5
v 0.3 0.1 -0.4
v 0.4 0.1 -0.4
v 0.4 0.3 -0.5
v 0.3 0.3 -0.5
v 0.3 0.3 -0.4
v 0.4 0.3 -0.4
v 0.4 0.5 -0.5
v 0.3 0.5 -0.5
v 0.3 0.5 -0.4
v 0.4 0.5 -0.4
v 1 0.7 -0.6
v 0.9 0.7 -0.6
v 1 0.7 -0.3
v 0.8 0.6 -0.6
v 0.7 0.6 -0.6
v 0.7 0.6 -0.4
v 0.8 0.6 -0.4
v 0.6 0.6 -0.6
v 0.5 0.6 -0.6
v 0.5 0.6 -0.4
v 0.6 0.6 -0.4
v 0.4 0.7 -0.6
v 0.3 0.7 -0.6
v 0.3 0.7 -0.3
v 1 0.3 -0.7
v 0.9 0.3 -0.7
v 0.9 0.3 -0.6
v 1 0.3 -0.6
v 1 0.6 -0.7
v 0.9 0.6 -0.7
v 0.9 0.6 -0.6
v 1 0.6 -0.6
v 0.8 0.7 -0.7
v 0.7 0.7 -0.7
v 0.7 0.7 -0.6
v 0.8 0.7 -0.6
v 0.6 0.7 -0.7
v 0.6 0.7 -0.4
v 0.7 0.7 -0.4
v 0.5 0.7 -0.7
v 0.5 0.7 -0.6
v 0.6 0.7 -0.6
v 0.8 0.3 -0.7
v 0.4 0.3 -0.7
v 0.8 0.3 -0.5
v 0.3 0.3 -0.7
v 0.3 0.3 -0.6
v 0.4 0.3 -0.6
v 0.4 0.6 -0.7
v 0.3 0.6 -0.7
v 0.3 0.6 -0.6
v 0.4 0.6 -0.6
v 1 0.5 -0.8
v 0.9 0.5 -0.8
v 0.9 0.5 -0.7
v 1 0.5 -0.7
v 0.9 0.3 -0.8
v 0.8 0.3 -0.8
v 0.9 0.3 -0.5
v 0.8 0.6 -0.8
v 0.7 0.6 -0.8
v 0.7 0.6 -0.7
v 0.8 0.6 -0.7
v 0.7 0.5 -0.8
v 0.6 0.5 -0.8
v 0.6 0.5 -0.6
v 0.7 0.5 -0.6
v 0.6 0.6 -0.8
v 0.5 0.6 -0.8
v 0.5 0.6 -0.7
v 0.6 0.6 -0.7
v 0.5 0.3 -0.8
v 0.4 0.3 -0.8
v 0.5 0.3 -0.7
v 0.4 0.5 -0.8
v 0.3 0.5 -0.8
v 0.3 0.5 -0.7
v 0.4 0.5 -0.7
v 0.8 0.2 -0.9
v 0.5 0.2 -0.9
v 0.5 0.2 -0.8
v 0.8 0.2 -0.8
v 0.8 0.1 -1
v 0.5 0.1 -1
v 0.5 0.1 -0.9
v 0.8 0.1 -0.9
v 0.7 0.6 0.2
v 0.6 0.6 0.2
v 0.2 0.9 0.2
v 0.2 0.9 0.3
v -0.3 0.9 0.3
v -0.3 0.9 0.2
v 0.3 0.7 0.1
v 0.3 0.7 0.2
v 0.2 0.7 0.2
v 0.2 0.7 0.1
v 0.3 0.9 0.1
v 0.3 0.9 0.3
v 0.2 0.9 0.1
v 0.2 0.3 0.1
v 0.2 0.3 0.2
v 0.1 0.3 0.2
v 0.1 0.3 0.1
v -0.1 0.3 0.2
v -0.1 0.3 0.1
v -0.2 0.3 0.2
v -0.2 0.3 0.1
v -0.2 0.7 0.1
v -0.2 0.7 0.2
v -0.3 0.7 0.2
v -0.3 0.7 0.1
v -0.2 0.9 0.1
v -0.2 0.9 0.2
v -0.3 0.9 0.1
v 0.4 0.4 0
v 0.4 0.4 0.1
v 0.3 0.3 0
v 0.3 0.3 0.1
v 0.2 0.3 0
v 0.2 0.6 0.1
v 0.2 0.6 0
v 0.2 0 0
v 0.2 0 0.1
v 0.1 0 0.1
v 0.1 0 0
v -0.1 0 0
v -0.1 0 0.1
v -0.2 0 0.1
v -0.2 0 0
v -0.2 0.6 0
v -0.2 0.6 0.1
v -0.3 0.5 0
v -0.3 0.5 0.1
v -0.4 0.4 0
v -0.4 0.4 0.1
v -0.5 0.3 0
v -0.5 0.3 0.1
v -0.6 0.3 0.1
v -0.6 0.3 0
v -0.5 1.1 0
v -0.5 1.1 0.1
v -0.6 1.1 0.1
v -0.6 1.1 0
v -0.6 0.1 0
v -0.6 0.1 0.1
v -0.7 0 0
v -0.7 0 0.1
v -0.8 0 0.1
v -0.8 0 0
v -0.7 0.4 0
v -0.7 0.4 0.1
v -0.8 0.4 0.1
v -0.8 0.4 0
v 0.3 0.7 -0.1
v 0.3 0.7 0
v 0.2 0.7 0
v 0.2 0.7 -0.1
v 0.2 0.3 -0.1
v 0.1 0.3 0
v 0.1 0.3 -0.1
v -0.1 0.3 -0.1
v -0.1 0.3 0
v -0.2 0.3 0
v -0.2 0.3 -0.1
v -0.2 0.7 -0.1
v -0.2 0.7 0
v -0.3 0.7 0
v -0.3 0.7 -0.1
v 1 0.2 -0.2
v 1 0.2 -0.1
v 0.9 0.2 -0.1
v 0.9 0.2 -0.2
v 0.4 0.2 -0.2
v 0.4 0.2 -0.1
v 0.3 0.2 -0.1
v 0.3 0.2 -0.2
v 0.3 0.9 -0.2
v 0.3 0.9 0
v 0.2 0.9 0
v 0.2 0.9 -0.2
v 0.2 0.9 -0.1
v -0.2 0.9 -0.1
v -0.2 0.9 -0.2
v -0.2 0.9 0
v -0.3 0.9 0
v -0.3 0.9 -0.2
v 1 0.1 -0.3
v 1 0.1 -0.2
v 0.9 0.1 -0.2
v 0.9 0.1 -0.3
v 1 0.4 -0.3
v 1 0.4 -0.2
v 0.9 0.4 -0.2
v 0.9 0.4 -0.3
v 0.8 0.5 -0.3
v 0.8 0.5 0.3
v 0.7 0.5 -0.3
v 0.7 0.4 -0.3
v 0.7 0.4 0.3
v 0.6 0.4 0.3
v 0.6 0.4 -0.3
v 0.6 0.5 -0.3
v 0.5 0.5 0.3
v 0.5 0.5 -0.3
v 0.4 0.1 -0.3
v 0.4 0.1 -0.2
v 0.3 0.1 -0.2
v 0.3 0.1 -0.3
v 0.4 0.4 -0.3
v 0.4 0.4 -0.2
v 0.3 0.4 -0.2
v 0.3 0.4 -0.3
v 1 0.2 -0.5
v 1 0.2 -0.4
v 0.9 0.2 -0.4
v 0.9 0.2 -0.5
v 1 0.6 -0.5
v 1 0.6 -0.4
v 0.9 0.6 -0.4
v 0.9 0.6 -0.5
v 0.4 0.2 -0.5
v 0.4 0.2 -0.4
v 0.3 0.2 -0.4
v 0.3 0.2 -0.5
v 0.3 0.4 -0.4
v 0.3 0.4 -0.5
v 0.4 0.6 -0.5
v 0.4 0.6 -0.4
v 0.3 0.6 -0.4
v 0.3 0.6 -0.5
v 1 0 -0.6
v 1 0 -0.3
v 0.9 0 -0.3
v 0.9 0 -0.6
v 0.8 0.5 -0.6
v 0.8 0.5 -0.4
v 0.7 0.5 -0.4
v 0.6 0.5 -0.4
v 0.5 0.5 -0.4
v 0.5 0.5 -0.6
v 0.4 0 -0.6
v 0.4 0 -0.3
v 0.3 0 -0.3
v 0.3 0 -0.6
v 1 0.1 -0.7
v 1 0.1 -0.6
v 0.9 0.1 -0.6
v 0.9 0.1 -0.7
v 1 0.4 -0.7
v 1 0.4 -0.6
v 0.9 0.4 -0.6
v 0.9 0.4 -0.7
v 0.8 0.4 -0.7
v 0.8 0.4 -0.6
v 0.7 0.4 -0.6
v 0.7 0.4 -0.7
v 0.6 0.4 -0.7
v 0.6 0.4 -0.6
v 0.5 0.4 -0.6
v 0.5 0.4 -0.7
v 0.4 0.1 -0.7
v 0.4 0.1 -0.6
v 0.3 0.1 -0.6
v 0.3 0.1 -0.7
v 0.4 0.4 -0.7
v 0.4 0.4 -0.6
v 0.3 0.4 -0.6
v 0.3 0.4 -0.7
v 1 0.2 -0.8
v 1 0.2 -0.7
v 0.9 0.2 -0.7
v 0.9 0.2 -0.8
v 0.9 0.2 -0.3
v 0.4 0.2 -0.3
v 0.4 0.2 -0.8
v 0.4 0.2 -0.7
v 0.3 0.2 -0.7
v 0.3 0.2 -0.8
v 0.8 0.1 -0.8
v 0.5 0.1 -0.8
v 0.8 0 -1
v 0.8 0 -0.9
v 0.5 0 -0.9
v 0.5 0 -1
v 0.1 0.1 0.1
v 0.1 0.1 0
v -0.2 0.1 0.1
v -0.2 0.1 0
v 0.9 0 -0.4
v 0.3 0 -0.4
v 0.3 0.2 -0.3
v 0.3 0.2 -0.6
v 0.3 0.3 -0.8
v 0.3 0.5 -0.3
v 0.9 0.5 -0.6
v 0.3 0.5 -0.6
v -0.2 0.6 0.2
v -0.2 0.6 -0.1
v 0.3 0.7 -0.4
v 0.9 0.7 -0.5
v 0.3 0.7 -0.5
v -0.2 1.1 -0.1
v 0.2 0.1 0.1
v 0.2 0.1 0
v -0.1 0.1 0.1
v -0.1 0.1 0
v 1 0 -0.4
v 0.4 0 -0.4
v 1 0.2 -0.3
v 1 0.3 -0.4
v 1 0.2 -0.6
v 1 0.3 -0.8
v 1 0.4 -0.4
v 1 0.3 -0.5
v 1 0.4 -0.5
v -0.6 0.5 0.1
v -0.6 0.5 0
v 1 0.5 -0.3
v 1 0.5 -0.6
v 0.4 0.5 -0.6
v 0.2 0.6 0.2
v 0.2 0.6 -0.1
v 1 0.7 -0.4
v 1 0.7 -0.5
v 0.4 0.7 -0.5
v 0.2 1.1 -0.1
v 0.8 0.5 -0.8
v 0.7 0.8 -0.4
v 0.5 0.5 -0.8
v -0.7 0.5 0
v 0.9 0.5 -0.3
v 0.7 0.8 -0.3
v 0.4 0.5 -0.3
v 0.1 0.6 0.2
v 0.1 0.7 0.2
v 0.1 0.8 0.2
v 0.1 0.9 0.2
v 0.1 1 0.3
v 0 0.7 0.2
v 0 0.8 0.2
v -0.1 0.6 0.2
v -0.1 0.7 0.2
v -0.1 0.8 0.2
v -0.1 0.9 0.2
v -0.1 1 0.3
v -0.7 0.5 0.1

vt 0.00195313 0.5
vt 0.00585938 0.5
vt 0.0136719 0.5
vt 0.0292969 0.5
vt 0.0332031 0.5
vt 0.0371094 0.5
vt 0.0410156 0.5
vt 0.0527344 0.5
vt 0.0683594 0.5
vt 0.0839844 0.5
vt 0.123047 0.5
vt 0.158203 0.5
vt 0.162109 0.5

vn 0 1 0
vn 0 -1 0
vn -1 0 0
vn 1 0 0
vn 0 0 -1
vn 0 0 1

usemtl palette
f 1/7/1 2/7/1 4/7/1
f 4/7/1 2/7/1 3/7/1
f 5/13/1 6/13/1 8/13/1
f 8/13/1 6/13/1 7/13/1
f 9/8/1 10/8/1 12/8/1
f 12/8/1 10/8/1 11/8/1
f 10/2/1 13/2/1 11/2/1
f 11/2/1 13/2/1 14/2/1
f 13/8/1 15/8/1 14/8/1
f 14/8/1 15/8/1 16/8/1
f 17/13/1 18/13/1 20/13/1
f 20/13/1 18/13/1 19/13/1
f 21/10/1 22/10/1 24/10/1
f 24/10/1 22/10/1 23/10/1
f 25/10/1 26/10/1 28/10/1
f 28/10/1 26/10/1 27/10/1
f 29/4/1 30/4/1 32/4/1
f 32/4/1 30/4/1 31/4/1
f 33/11/1 34/11/1 36/11/1
f 36/11/1 34/11/1 35/11/1
f 37/2/1 38/2/1 39/2/1
f 39/2/1 38/2/1 9/2/1
f 40/2/1 41/2/1 15/2/1
f 15/2/1 41/2/1 42/2/1
f 43/4/1 44/4/1 46/4/1
f 46/4/1 44/4/1 45/4/1
f 47/4/1 48/4/1 50/4/1
f 50/4/1 48/4/1 49/4/1
f 51/11/1 52/11/1 54/11/1
f 54/11/1 52/11/1 53/11/1
f 55/5/1 56/5/1 58/5/1
f 58/5/1 56/5/1 57/5/1
f 59/9/1 60/9/1 62/9/1
f 62/9/1 60/9/1 61/9/1
f 63/2/1 64/2/1 66/2/1
f 66/2/1 64/2/1 65/2/1
f 67/2/1 68/2/1 70/2/1
f 70/2/1 68/2/1 69/2/1
f 71/10/1 72/10/1 74/10/1
f 74/10/1 72/10/1 73/10/1
f 75/13/1 76/13/1 78/13/1
f 78/13/1 76/13/1 77/13/1
f 79/10/1 80/10/1 82/10/1
f 82/10/1 80/10/1 81/10/1
f 83/2/1 84/2/1 86/2/1
f 86/2/1 84/2/1 85/2/1
f 87/2/1 88/2/1 90/2/1
f 90/2/1 88/2/1 89/2/1
f 91/13/1 92/13/1 94/13/1
f 94/13/1 92/13/1 93/13/1
f 92/13/1 95/13/1 97/13/1
f 97/13/1 95/13/1 96/13/1
f 95/13/1 98/13/1 100/13/1
f 100/13/1 98/13/1 99/13/1
f 101/2/1 102/2/1 104/2/1
f 104/2/1 102/2/1 103/2/1
f 105/2/1 106/2/1 108/2/1
f 108/2/1 106/2/1 107/2/1
f 109/7/1 110/7/1 112/7/1
f 112/7/1 110/7/1 111/7/1
f 113/7/1 114/7/1 116/7/1
f 116/7/1 114/7/1 115/7/1
f 117/7/1 118/7/1 120/7/1
f 120/7/1 118/7/1 119/7/1
f 121/2/1 122/2/1 124/2/1
f 124/2/1 122/2/1 123/2/1
f 125/2/1 126/2/1 128/2/1
f 128/2/1 126/2/1 127/2/1
f 129/6/1 130/6/1 132/6/1
f 132/6/1 130/6/1 131/6/1
f 133/6/1 134/6/1 136/6/1
f 136/6/1 134/6/1 135/6/1
f 137/6/1 138/6/1 140/6/1
f 140/6/1 138/6/1 139/6/1
f 141/2/1 142/2/1 144/2/1
f 144/2/1 142/2/1 143/2/1
f 145/10/1 146/10/1 148/10/1
f 148/10/1 146/10/1 147/10/1
f 149/9/1 150/9/1 152/9/1
f 152/9/1 150/9/1 151/9/1
f 153/9/1 154/9/1 156/9/1
f 156/9/1 154/9/1 155/9/1
f 157/2/1 158/2/1 160/2/1
f 160/2/1 158/2/1 159/2/1
f 161/10/1 162/10/1 164/10/1
f 164/10/1 162/10/1 163/10/1
f 165/10/1 166/10/1 168/10/1
f 168/10/1 166/10/1 167/10/1
f 169/2/1 170/2/1 171/2/1
f 171/2/1 170/2/1 132/2/1
f 172/7/1 173/7/1 175/7/1
f 175/7/1 173/7/1 174/7/1
f 176/7/1 177/7/1 179/7/1
f 179/7/1 177/7/1 178/7/1
f 180/2/1 181/2/1 139/2/1
f 139/2/1 181/2/1 182/2/1
f 183/2/1 184/2/1 186/2/1
f 186/2/1 184/2/1 185/2/1
f 187/2/1 188/2/1 190/2/1
f 190/2/1 188/2/1 189/2/1
f 191/7/1 192/7/1 194/7/1
f 194/7/1 192/7/1 193/7/1
f 192/7/1 195/7/1 197/7/1
f 197/7/1 195/7/1 196/7/1
f 195/7/1 198/7/1 200/7/1
f 200/7/1 198/7/1 199/7/1
f 201/6/1 202/6/1 203/6/1
f 203/6/1 202/6/1 161/6/1
f 202/2/1 204/2/1 206/2/1
f 206/2/1 204/2/1 205/2/1
f 207/2/1 208/2/1 210/2/1
f 210/2/1 208/2/1 209/2/1
f 211/2/1 212/2/1 214/2/1
f 214/2/1 212/2/1 213/2/1
f 215/6/1 216/6/1 217/6/1
f 217/6/1 216/6/1 203/6/1
f 218/7/1 219/7/1 221/7/1
f 221/7/1 219/7/1 220/7/1
f 222/7/1 223/7/1 225/7/1
f 225/7/1 223/7/1 224/7/1
f 226/7/1 227/7/1 229/7/1
f 229/7/1 227/7/1 228/7/1
f 230/6/1 231/6/1 232/6/1
f 232/6/1 231/6/1 202/6/1
f 233/2/1 234/2/1 236/2/1
f 236/2/1 234/2/1 235/2/1
f 237/6/1 238/6/1 240/6/1
f 240/6/1 238/6/1 239/6/1
f 241/6/1 242/6/1 244/6/1
f 244/6/1 242/6/1 243/6/1
f 245/7/2 111/7/2 246/7/2
f 246/7/2 111/7/2 120/7/2
f 247/13/2 248/13/2 250/13/2
f 250/13/2 248/13/2 249/13/2
f 251/10/2 252/10/2 254/10/2
f 254/10/2 252/10/2 253/10/2
f 255/13/2 256/13/2 257/13/2
f 257/13/2 256/13/2 248/13/2
f 258/2/2 259/2/2 261/2/2
f 261/2/2 259/2/2 260/2/2
f 261/12/2 260/12/2 263/12/2
f 263/12/2 260/12/2 262/12/2
f 263/2/2 262/2/2 265/2/2
f 265/2/2 262/2/2 264/2/2
f 266/10/2 267/10/2 269/10/2
f 269/10/2 267/10/2 268/10/2
f 270/13/2 271/13/2 272/13/2
f 272/13/2 271/13/2 250/13/2
f 273/4/2 274/4/2 33/4/2
f 33/4/2 274/4/2 36/4/2
f 275/11/2 276/11/2 277/11/2
f 277/11/2 276/11/2 258/11/2
f 30/4/2 31/4/2 279/4/2
f 279/4/2 31/4/2 278/4/2
f 280/2/2 281/2/2 283/2/2
f 283/2/2 281/2/2 282/2/2
f 284/2/2 285/2/2 287/2/2
f 287/2/2 285/2/2 286/2/2
f 288/4/2 289/4/2 43/4/2
f 43/4/2 289/4/2 46/4/2
f 290/4/2 291/4/2 47/4/2
f 47/4/2 291/4/2 50/4/2
f 292/4/2 293/4/2 51/4/2
f 51/4/2 293/4/2 54/4/2
f 294/11/2 295/11/2 297/11/2
f 297/11/2 295/11/2 296/11/2
f 298/5/2 299/5/2 301/5/2
f 301/5/2 299/5/2 300/5/2
f 302/2/2 303/2/2 63/2/2
f 63/2/2 303/2/2 66/2/2
f 304/2/2 305/2/2 307/2/2
f 307/2/2 305/2/2 306/2/2
f 308/2/2 309/2/2 311/2/2
f 311/2/2 309/2/2 310/2/2
f 312/10/2 313/10/2 315/10/2
f 315/10/2 313/10/2 314/10/2
f 316/2/2 277/2/2 318/2/2
f 318/2/2 277/2/2 317/2/2
f 318/2/2 261/2/2 319/2/2
f 319/2/2 261/2/2 263/2/2
f 319/2/2 320/2/2 322/2/2
f 322/2/2 320/2/2 321/2/2
f 323/10/2 324/10/2 326/10/2
f 326/10/2 324/10/2 325/10/2
f 327/2/2 328/2/2 330/2/2
f 330/2/2 328/2/2 329/2/2
f 331/2/2 332/2/2 334/2/2
f 334/2/2 332/2/2 333/2/2
f 335/13/2 336/13/2 338/13/2
f 338/13/2 336/13/2 337/13/2
f 338/13/2 339/13/2 341/13/2
f 341/13/2 339/13/2 340/13/2
f 341/13/2 342/13/2 344/13/2
f 344/13/2 342/13/2 343/13/2
f 345/2/2 346/2/2 348/2/2
f 348/2/2 346/2/2 347/2/2
f 349/2/2 350/2/2 352/2/2
f 352/2/2 350/2/2 351/2/2
f 353/7/2 354/7/2 355/7/2
f 355/7/2 354/7/2 4/7/2
f 356/7/2 357/7/2 359/7/2
f 359/7/2 357/7/2 358/7/2
f 360/7/2 3/7/2 362/7/2
f 362/7/2 3/7/2 361/7/2
f 363/2/2 364/2/2 366/2/2
f 366/2/2 364/2/2 365/2/2
f 367/2/2 368/2/2 370/2/2
f 370/2/2 368/2/2 369/2/2
f 371/10/2 372/10/2 374/10/2
f 374/10/2 372/10/2 373/10/2
f 375/2/2 376/2/2 378/2/2
f 378/2/2 376/2/2 377/2/2
f 379/10/2 380/10/2 382/10/2
f 382/10/2 380/10/2 381/10/2
f 154/10/2 155/10/2 384/10/2
f 384/10/2 155/10/2 383/10/2
f 385/2/2 386/2/2 388/2/2
f 388/2/2 386/2/2 387/2/2
f 389/2/2 390/2/2 392/2/2
f 392/2/2 390/2/2 391/2/2
f 393/7/2 394/7/2 225/7/2
f 225/7/2 394/7/2 395/7/2
f 224/7/2 396/7/2 398/7/2
f 398/7/2 396/7/2 397/7/2
f 399/2/2 400/2/2 402/2/2
f 402/2/2 400/2/2 401/2/2
f 403/2/2 404/2/2 406/2/2
f 406/2/2 404/2/2 405/2/2
f 407/2/2 408/2/2 410/2/2
f 410/2/2 408/2/2 409/2/2
f 411/7/2 412/7/2 414/7/2
f 414/7/2 412/7/2 413/7/2
f 414/7/2 150/7/2 415/7/2
f 415/7/2 150/7/2 153/7/2
f 220/7/2 173/7/2 229/7/2
f 229/7/2 173/7/2 176/7/2
f 415/7/2 416/7/2 418/7/2
f 418/7/2 416/7/2 417/7/2
f 419/2/2 420/2/2 422/2/2
f 422/2/2 420/2/2 421/2/2
f 423/2/2 424/2/2 426/2/2
f 426/2/2 424/2/2 425/2/2
f 427/2/2 428/2/2 430/2/2
f 430/2/2 428/2/2 429/2/2
f 430/6/2 431/6/2 433/6/2
f 433/6/2 431/6/2 432/6/2
f 433/2/2 434/2/2 436/2/2
f 436/2/2 434/2/2 435/2/2
f 244/6/2 437/6/2 243/6/2
f 243/6/2 437/6/2 438/6/2
f 439/6/2 440/6/2 442/6/2
f 442/6/2 440/6/2 441/6/2
f 443/2/3 444/2/3 282/2/3
f 282/2/3 444/2/3 283/2/3
f 445/2/3 446/2/3 286/2/3
f 286/2/3 446/2/3 287/2/3
f 65/2/3 64/2/3 306/2/3
f 306/2/3 64/2/3 307/2/3
f 143/2/3 405/2/3 447/2/3
f 447/2/3 405/2/3 392/2/3
f 159/2/3 421/2/3 448/2/3
f 448/2/3 421/2/3 402/2/3
f 243/6/3 242/6/3 441/6/3
f 441/6/3 242/6/3 442/6/3
f 431/2/3 373/2/3 391/2/3
f 391/2/3 373/2/3 447/2/3
f 449/2/3 381/2/3 401/2/3
f 401/2/3 381/2/3 448/2/3
f 374/2/3 429/2/3 142/2/3
f 142/2/3 429/2/3 406/2/3
f 382/2/3 435/2/3 158/2/3
f 158/2/3 435/2/3 422/2/3
f 239/6/3 238/6/3 438/6/3
f 438/6/3 238/6/3 243/6/3
f 261/12/3 317/12/3 443/12/3
f 443/12/3 317/12/3 444/12/3
f 265/12/3 321/12/3 445/12/3
f 445/12/3 321/12/3 446/12/3
f 103/2/3 102/2/3 347/2/3
f 347/2/3 102/2/3 348/2/3
f 123/2/3 122/2/3 365/2/3
f 365/2/3 122/2/3 366/2/3
f 163/10/3 205/10/3 381/10/3
f 381/10/3 205/10/3 450/10/3
f 205/2/3 451/2/3 450/2/3
f 450/2/3 451/2/3 436/2/3
f 309/2/3 308/2/3 66/2/3
f 66/2/3 308/2/3 63/2/3
f 155/9/3 154/9/3 164/9/3
f 164/9/3 154/9/3 161/9/3
f 49/4/3 48/4/3 54/4/3
f 54/4/3 48/4/3 51/4/3
f 85/2/3 84/2/3 329/2/3
f 329/2/3 84/2/3 330/2/3
f 89/2/3 88/2/3 333/2/3
f 333/2/3 88/2/3 334/2/3
f 3/7/3 360/7/3 358/7/3
f 358/7/3 360/7/3 359/7/3
f 452/10/3 167/10/3 449/10/3
f 449/10/3 167/10/3 381/10/3
f 147/10/3 146/10/3 152/10/3
f 152/10/3 146/10/3 149/10/3
f 167/10/3 166/10/3 383/10/3
f 383/10/3 166/10/3 384/10/3
f 146/10/3 453/10/3 217/10/3
f 217/10/3 453/10/3 185/10/3
f 396/7/3 224/7/3 156/7/3
f 156/7/3 224/7/3 416/7/3
f 166/10/3 454/10/3 162/10/3
f 162/10/3 454/10/3 205/10/3
f 213/2/3 212/2/3 184/2/3
f 184/2/3 212/2/3 215/2/3
f 235/2/3 234/2/3 204/2/3
f 204/2/3 234/2/3 451/2/3
f 111/7/3 245/7/3 4/7/3
f 4/7/3 245/7/3 1/7/3
f 31/4/3 30/4/3 36/4/3
f 36/4/3 30/4/3 33/4/3
f 45/4/3 44/4/3 50/4/3
f 50/4/3 44/4/3 47/4/3
f 455/2/3 456/2/3 264/2/3
f 264/2/3 456/2/3 322/2/3
f 107/2/3 106/2/3 351/2/3
f 351/2/3 106/2/3 352/2/3
f 119/7/3 118/7/3 361/7/3
f 361/7/3 118/7/3 362/7/3
f 127/2/3 126/2/3 369/2/3
f 369/2/3 126/2/3 370/2/3
f 178/7/3 177/7/3 397/7/3
f 397/7/3 177/7/3 398/7/3
f 189/2/3 188/2/3 409/2/3
f 409/2/3 188/2/3 410/2/3
f 209/2/3 208/2/3 425/2/3
f 425/2/3 208/2/3 426/2/3
f 173/7/3 219/7/3 225/7/3
f 225/7/3 219/7/3 222/7/3
f 228/7/3 227/7/3 232/7/3
f 232/7/3 227/7/3 230/7/3
f 267/12/3 266/12/3 455/12/3
f 455/12/3 266/12/3 289/12/3
f 269/4/3 325/4/3 46/4/3
f 46/4/3 325/4/3 43/4/3
f 324/12/3 323/12/3 288/12/3
f 288/12/3 323/12/3 456/12/3
f 115/7/3 114/7/3 120/7/3
f 120/7/3 114/7/3 117/7/3
f 182/2/3 457/2/3 452/2/3
f 452/2/3 457/2/3 167/2/3
f 129/2/3 458/2/3 377/2/3
f 377/2/3 458/2/3 378/2/3
f 457/2/3 459/2/3 387/2/3
f 387/2/3 459/2/3 388/2/3
f 458/2/3 170/2/3 146/2/3
f 146/2/3 170/2/3 453/2/3
f 196/7/3 200/7/3 179/7/3
f 179/7/3 200/7/3 176/7/3
f 459/2/3 181/2/3 166/2/3
f 166/2/3 181/2/3 454/2/3
f 199/7/3 198/7/3 417/7/3
f 417/7/3 198/7/3 418/7/3
f 27/10/3 80/10/3 268/10/3
f 268/10/3 80/10/3 326/10/3
f 135/6/3 134/6/3 140/6/3
f 140/6/3 134/6/3 137/6/3
f 271/1/3 270/1/3 28/1/3
f 28/1/3 270/1/3 25/1/3
f 272/10/3 343/10/3 26/10/3
f 26/10/3 343/10/3 81/10/3
f 69/2/3 68/2/3 310/2/3
f 310/2/3 68/2/3 311/2/3
f 342/11/3 340/11/3 82/11/3
f 82/11/3 340/11/3 79/11/3
f 19/13/3 98/13/3 249/13/3
f 249/13/3 98/13/3 344/13/3
f 16/8/3 15/8/3 20/8/3
f 20/8/3 15/8/3 17/8/3
f 42/2/3 41/2/3 18/2/3
f 18/2/3 41/2/3 99/2/3
f 40/2/3 460/2/3 100/2/3
f 100/2/3 460/2/3 96/2/3
f 61/9/3 60/9/3 70/9/3
f 70/9/3 60/9/3 67/9/3
f 77/13/3 76/13/3 15/13/3
f 15/13/3 76/13/3 460/13/3
f 461/2/4 281/2/4 462/2/4
f 462/2/4 281/2/4 280/2/4
f 463/2/4 285/2/4 464/2/4
f 464/2/4 285/2/4 284/2/4
f 66/2/4 305/2/4 63/2/4
f 63/2/4 305/2/4 304/2/4
f 144/2/4 465/2/4 404/2/4
f 404/2/4 465/2/4 389/2/4
f 160/2/4 466/2/4 420/2/4
f 420/2/4 466/2/4 399/2/4
f 244/6/4 440/6/4 241/6/4
f 241/6/4 440/6/4 439/6/4
f 467/2/4 390/2/4 372/2/4
f 372/2/4 390/2/4 465/2/4
f 432/2/4 400/2/4 380/2/4
f 380/2/4 400/2/4 466/2/4
f 371/2/4 141/2/4 428/2/4
f 428/2/4 141/2/4 403/2/4
f 379/2/4 157/2/4 434/2/4
f 434/2/4 157/2/4 419/2/4
f 240/6/4 437/6/4 237/6/4
f 237/6/4 437/6/4 244/6/4
f 258/12/4 461/12/4 277/12/4
f 277/12/4 461/12/4 462/12/4
f 263/12/4 463/12/4 320/12/4
f 320/12/4 463/12/4 464/12/4
f 296/2/4 303/2/4 297/2/4
f 297/2/4 303/2/4 302/2/4
f 104/2/4 346/2/4 101/2/4
f 101/2/4 346/2/4 345/2/4
f 124/2/4 364/2/4 121/2/4
f 121/2/4 364/2/4 363/2/4
f 468/10/4 372/10/4 186/10/4
f 186/10/4 372/10/4 469/10/4
f 186/2/4 469/2/4 470/2/4
f 470/2/4 469/2/4 427/2/4
f 36/11/4 276/11/4 33/11/4
f 33/11/4 276/11/4 275/11/4
f 54/11/4 295/11/4 51/11/4
f 51/11/4 295/11/4 294/11/4
f 471/9/4 468/9/4 473/9/4
f 473/9/4 468/9/4 472/9/4
f 50/4/4 293/4/4 47/4/4
f 47/4/4 293/4/4 292/4/4
f 474/10/4 53/10/4 475/10/4
f 475/10/4 53/10/4 52/10/4
f 86/2/4 328/2/4 83/2/4
f 83/2/4 328/2/4 327/2/4
f 90/2/4 332/2/4 87/2/4
f 87/2/4 332/2/4 331/2/4
f 4/7/4 357/7/4 355/7/4
f 355/7/4 357/7/4 356/7/4
f 476/10/4 467/10/4 148/10/4
f 148/10/4 467/10/4 372/10/4
f 148/10/4 471/10/4 145/10/4
f 145/10/4 471/10/4 473/10/4
f 168/10/4 155/10/4 165/10/4
f 165/10/4 155/10/4 154/10/4
f 145/10/4 472/10/4 477/10/4
f 477/10/4 472/10/4 186/10/4
f 395/7/4 151/7/4 225/7/4
f 225/7/4 151/7/4 413/7/4
f 165/10/4 161/10/4 478/10/4
f 478/10/4 161/10/4 206/10/4
f 214/2/4 183/2/4 211/2/4
f 211/2/4 183/2/4 470/2/4
f 236/2/4 202/2/4 233/2/4
f 233/2/4 202/2/4 231/2/4
f 120/7/4 3/7/4 246/7/4
f 246/7/4 3/7/4 2/7/4
f 479/2/4 259/2/4 278/2/4
f 278/2/4 259/2/4 258/2/4
f 32/4/4 274/4/4 29/4/4
f 29/4/4 274/4/4 273/4/4
f 278/2/4 35/2/4 279/2/4
f 279/2/4 35/2/4 34/2/4
f 46/4/4 291/4/4 43/4/4
f 43/4/4 291/4/4 290/4/4
f 279/2/4 277/2/4 480/2/4
f 480/2/4 277/2/4 316/2/4
f 108/2/4 350/2/4 105/2/4
f 105/2/4 350/2/4 349/2/4
f 112/7/4 354/7/4 109/7/4
f 109/7/4 354/7/4 353/7/4
f 128/2/4 368/2/4 125/2/4
f 125/2/4 368/2/4 367/2/4
f 175/7/4 394/7/4 172/7/4
f 172/7/4 394/7/4 393/7/4
f 190/2/4 408/2/4 187/2/4
f 187/2/4 408/2/4 407/2/4
f 210/2/4 424/2/4 207/2/4
f 207/2/4 424/2/4 423/2/4
f 221/7/4 201/7/4 218/7/4
f 218/7/4 201/7/4 216/7/4
f 176/7/4 224/7/4 226/7/4
f 226/7/4 224/7/4 223/7/4
f 253/12/4 479/12/4 254/12/4
f 254/12/4 479/12/4 278/12/4
f 251/4/4 31/4/4 313/4/4
f 313/4/4 31/4/4 30/4/4
f 314/12/4 279/12/4 315/12/4
f 315/12/4 279/12/4 480/12/4
f 116/7/4 111/7/4 113/7/4
f 113/7/4 111/7/4 110/7/4
f 171/2/4 476/2/4 481/2/4
f 481/2/4 476/2/4 148/2/4
f 481/2/4 376/2/4 482/2/4
f 482/2/4 376/2/4 375/2/4
f 138/2/4 386/2/4 483/2/4
f 483/2/4 386/2/4 385/2/4
f 482/2/4 145/2/4 169/2/4
f 169/2/4 145/2/4 477/2/4
f 197/7/4 174/7/4 193/7/4
f 193/7/4 174/7/4 173/7/4
f 483/2/4 165/2/4 180/2/4
f 180/2/4 165/2/4 478/2/4
f 194/7/4 412/7/4 191/7/4
f 191/7/4 412/7/4 411/7/4
f 24/10/4 252/10/4 71/10/4
f 71/10/4 252/10/4 312/10/4
f 136/6/4 131/6/4 133/6/4
f 133/6/4 131/6/4 130/6/4
f 247/1/4 23/1/4 257/1/4
f 257/1/4 23/1/4 22/1/4
f 255/10/4 21/10/4 336/10/4
f 336/10/4 21/10/4 74/10/4
f 337/11/4 73/11/4 339/11/4
f 339/11/4 73/11/4 72/11/4
f 8/13/4 256/13/4 91/13/4
f 91/13/4 256/13/4 335/13/4
f 12/8/4 7/8/4 9/8/4
f 9/8/4 7/8/4 6/8/4
f 39/2/4 5/2/4 37/2/4
f 37/2/4 5/2/4 94/2/4
f 300/9/4 474/9/4 301/9/4
f 301/9/4 474/9/4 475/9/4
f 38/2/4 93/2/4 484/2/4
f 484/2/4 93/2/4 97/2/4
f 58/5/4 299/5/4 55/5/4
f 55/5/4 299/5/4 298/5/4
f 62/9/4 57/9/4 59/9/4
f 59/9/4 57/9/4 56/9/4
f 78/13/4 9/13/4 75/13/4
f 75/13/4 9/13/4 484/13/4
f 392/2/5 405/2/5 389/2/5
f 389/2/5 405/2/5 404/2/5
f 143/2/5 373/2/5 144/2/5
f 144/2/5 373/2/5 372/2/5
f 406/2/5 429/2/5 403/2/5
f 403/2/5 429/2/5 428/2/5
f 103/2/5 351/2/5 104/2/5
f 104/2/5 351/2/5 350/2/5
f 185/10/5 409/10/5 186/10/5
f 186/10/5 409/10/5 408/10/5
f 430/2/5 212/2/5 427/2/5
f 427/2/5 212/2/5 211/2/5
f 147/2/5 377/2/5 148/2/5
f 148/2/5 377/2/5 376/2/5
f 213/2/5 188/2/5 214/2/5
f 214/2/5 188/2/5 187/2/5
f 189/2/5 170/2/5 190/2/5
f 190/2/5 170/2/5 169/2/5
f 394/6/5 130/6/5 147/6/5
f 147/6/5 130/6/5 129/6/5
f 151/6/5 395/6/5 152/6/5
f 152/6/5 395/6/5 147/6/5
f 222/7/5 219/7/5 485/7/5
f 485/7/5 219/7/5 218/7/5
f 174/6/5 486/6/5 175/6/5
f 175/6/5 486/6/5 133/6/5
f 224/1/5 176/1/5 225/1/5
f 225/1/5 176/1/5 173/1/5
f 442/6/5 242/6/5 439/6/5
f 439/6/5 242/6/5 241/6/5
f 243/6/5 238/6/5 244/6/5
f 244/6/5 238/6/5 237/6/5
f 230/7/5 487/7/5 216/7/5
f 216/7/5 487/7/5 485/7/5
f 487/7/5 227/7/5 223/7/5
f 223/7/5 227/7/5 226/7/5
f 228/7/5 198/7/5 221/7/5
f 221/7/5 198/7/5 191/7/5
f 137/6/5 134/6/5 197/6/5
f 197/6/5 134/6/5 486/6/5
f 433/6/5 231/6/5 430/6/5
f 430/6/5 231/6/5 215/6/5
f 161/9/5 154/9/5 217/9/5
f 217/9/5 154/9/5 149/9/5
f 155/6/5 168/6/5 156/6/5
f 156/6/5 168/6/5 396/6/5
f 168/6/5 386/6/5 397/6/5
f 397/6/5 386/6/5 178/6/5
f 386/6/5 138/6/5 179/6/5
f 179/6/5 138/6/5 196/6/5
f 402/2/5 421/2/5 399/2/5
f 399/2/5 421/2/5 420/2/5
f 159/2/5 381/2/5 160/2/5
f 160/2/5 381/2/5 380/2/5
f 422/2/5 435/2/5 419/2/5
f 419/2/5 435/2/5 434/2/5
f 123/2/5 369/2/5 124/2/5
f 124/2/5 369/2/5 368/2/5
f 163/10/5 383/10/5 164/10/5
f 164/10/5 383/10/5 155/10/5
f 205/10/5 425/10/5 206/10/5
f 206/10/5 425/10/5 424/10/5
f 436/2/5 234/2/5 433/2/5
f 433/2/5 234/2/5 233/2/5
f 33/4/5 30/4/5 273/4/5
f 273/4/5 30/4/5 29/4/5
f 167/2/5 387/2/5 168/2/5
f 168/2/5 387/2/5 386/2/5
f 235/2/5 208/2/5 236/2/5
f 236/2/5 208/2/5 207/2/5
f 209/2/5 181/2/5 210/2/5
f 210/2/5 181/2/5 180/2/5
f 277/11/5 34/11/5 275/11/5
f 275/11/5 34/11/5 33/11/5
f 279/4/5 314/4/5 30/4/5
f 30/4/5 314/4/5 313/4/5
f 315/10/5 72/10/5 312/10/5
f 312/10/5 72/10/5 71/10/5
f 73/10/5 337/10/5 74/10/5
f 74/10/5 337/10/5 336/10/5
f 93/2/5 38/2/5 94/2/5
f 94/2/5 38/2/5 37/2/5
f 283/2/5 444/2/5 280/2/5
f 280/2/5 444/2/5 462/2/5
f 444/12/5 317/12/5 462/12/5
f 462/12/5 317/12/5 277/12/5
f 287/2/5 446/2/5 284/2/5
f 284/2/5 446/2/5 464/2/5
f 446/12/5 321/12/5 464/12/5
f 464/12/5 321/12/5 320/12/5
f 322/2/5 456/2/5 316/2/5
f 316/2/5 456/2/5 480/2/5
f 456/12/5 323/12/5 480/12/5
f 480/12/5 323/12/5 315/12/5
f 323/11/5 340/11/5 315/11/5
f 315/11/5 340/11/5 339/11/5
f 96/2/5 460/2/5 97/2/5
f 97/2/5 460/2/5 484/2/5
f 460/13/5 76/13/5 484/13/5
f 484/13/5 76/13/5 75/13/5
f 43/4/5 325/4/5 288/4/5
f 288/4/5 325/4/5 324/4/5
f 326/10/5 80/10/5 323/10/5
f 323/10/5 80/10/5 79/10/5
f 81/10/5 343/10/5 82/10/5
f 82/10/5 343/10/5 342/10/5
f 344/13/5 98/13/5 335/13/5
f 335/13/5 98/13/5 91/13/5
f 99/2/5 41/2/5 100/2/5
f 100/2/5 41/2/5 40/2/5
f 47/4/5 44/4/5 290/4/5
f 290/4/5 44/4/5 43/4/5
f 51/4/5 48/4/5 292/4/5
f 292/4/5 48/4/5 47/4/5
f 297/11/5 52/11/5 294/11/5
f 294/11/5 52/11/5 51/11/5
f 301/5/5 56/5/5 298/5/5
f 298/5/5 56/5/5 55/5/5
f 63/2/5 308/2/5 302/2/5
f 302/2/5 308/2/5 52/2/5
f 308/10/5 488/10/5 52/10/5
f 52/10/5 488/10/5 475/10/5
f 488/9/5 60/9/5 475/9/5
f 475/9/5 60/9/5 59/9/5
f 307/2/5 64/2/5 304/2/5
f 304/2/5 64/2/5 63/2/5
f 311/2/5 68/2/5 308/2/5
f 308/2/5 68/2/5 67/2/5
f 391/2/6 390/2/6 348/2/6
f 348/2/6 390/2/6 345/2/6
f 347/2/6 346/2/6 330/2/6
f 330/2/6 346/2/6 327/2/6
f 142/2/6 141/2/6 374/2/6
f 374/2/6 141/2/6 371/2/6
f 102/10/6 101/10/6 352/10/6
f 352/10/6 101/10/6 349/10/6
f 184/2/6 183/2/6 410/2/6
f 410/2/6 183/2/6 407/2/6
f 329/2/6 328/2/6 85/2/6
f 85/2/6 328/2/6 86/2/6
f 84/2/6 83/2/6 107/2/6
f 107/2/6 83/2/6 108/2/6
f 146/2/6 145/2/6 378/2/6
f 378/2/6 145/2/6 375/2/6
f 106/2/6 105/2/6 132/2/6
f 132/2/6 105/2/6 171/2/6
f 353/6/6 489/6/6 131/6/6
f 131/6/6 489/6/6 132/6/6
f 356/6/6 352/6/6 355/6/6
f 355/6/6 352/6/6 489/6/6
f 413/7/6 412/7/6 225/7/6
f 225/7/6 412/7/6 393/7/6
f 4/7/6 354/7/6 111/7/6
f 111/7/6 354/7/6 112/7/6
f 173/7/6 172/7/6 193/7/6
f 193/7/6 172/7/6 194/7/6
f 110/6/6 109/6/6 490/6/6
f 490/6/6 109/6/6 136/6/6
f 358/7/6 357/7/6 3/7/6
f 3/7/6 357/7/6 4/7/6
f 2/1/6 1/1/6 246/1/6
f 246/1/6 1/1/6 245/1/6
f 120/7/6 111/7/6 115/7/6
f 115/7/6 111/7/6 116/7/6
f 441/6/6 440/6/6 243/6/6
f 243/6/6 440/6/6 244/6/6
f 438/6/6 437/6/6 239/6/6
f 239/6/6 437/6/6 240/6/6
f 232/7/6 201/7/6 418/7/6
f 418/7/6 201/7/6 411/7/6
f 417/7/6 416/7/6 398/7/6
f 398/7/6 416/7/6 224/7/6
f 361/7/6 3/7/6 119/7/6
f 119/7/6 3/7/6 120/7/6
f 177/7/6 176/7/6 199/7/6
f 199/7/6 176/7/6 200/7/6
f 140/6/6 113/6/6 135/6/6
f 135/6/6 113/6/6 490/6/6
f 432/6/6 431/6/6 367/6/6
f 367/6/6 431/6/6 352/6/6
f 367/6/6 359/6/6 491/6/6
f 491/6/6 359/6/6 360/6/6
f 491/6/6 362/6/6 125/6/6
f 125/6/6 362/6/6 118/6/6
f 125/6/6 117/6/6 139/6/6
f 139/6/6 117/6/6 114/6/6
f 401/2/6 400/2/6 366/2/6
f 366/2/6 400/2/6 363/2/6
f 365/2/6 364/2/6 334/2/6
f 334/2/6 364/2/6 331/2/6
f 158/2/6 157/2/6 382/2/6
f 382/2/6 157/2/6 379/2/6
f 122/10/6 121/10/6 370/10/6
f 370/10/6 121/10/6 367/10/6
f 162/10/6 161/10/6 384/10/6
f 384/10/6 161/10/6 154/10/6
f 204/2/6 202/2/6 426/2/6
f 426/2/6 202/2/6 423/2/6
f 333/2/6 332/2/6 89/2/6
f 89/2/6 332/2/6 90/2/6
f 36/4/6 274/4/6 31/4/6
f 31/4/6 274/4/6 32/4/6
f 88/2/6 87/2/6 127/2/6
f 127/2/6 87/2/6 128/2/6
f 166/2/6 165/2/6 388/2/6
f 388/2/6 165/2/6 385/2/6
f 126/2/6 125/2/6 182/2/6
f 182/2/6 125/2/6 139/2/6
f 258/11/6 276/11/6 35/11/6
f 35/11/6 276/11/6 36/11/6
f 278/4/6 31/4/6 254/4/6
f 254/4/6 31/4/6 251/4/6
f 253/10/6 252/10/6 23/10/6
f 23/10/6 252/10/6 24/10/6
f 22/10/6 21/10/6 257/10/6
f 257/10/6 21/10/6 255/10/6
f 6/2/6 5/2/6 9/2/6
f 9/2/6 5/2/6 39/2/6
f 282/2/6 281/2/6 443/2/6
f 443/2/6 281/2/6 461/2/6
f 443/12/6 461/12/6 261/12/6
f 261/12/6 461/12/6 258/12/6
f 260/2/6 259/2/6 492/2/6
f 492/2/6 259/2/6 479/2/6
f 492/12/6 479/12/6 493/12/6
f 493/12/6 479/12/6 253/12/6
f 494/1/6 23/1/6 495/1/6
f 495/1/6 23/1/6 247/1/6
f 496/8/6 7/8/6 11/8/6
f 11/8/6 7/8/6 12/8/6
f 497/11/6 253/11/6 498/11/6
f 498/11/6 253/11/6 23/11/6
f 262/12/6 260/12/6 499/12/6
f 499/12/6 260/12/6 492/12/6
f 499/4/6 492/4/6 500/4/6
f 500/4/6 492/4/6 493/4/6
f 501/11/6 494/11/6 502/11/6
f 502/11/6 494/11/6 495/11/6
f 503/2/6 496/2/6 14/2/6
f 14/2/6 496/2/6 11/2/6
f 286/2/6 285/2/6 445/2/6
f 445/2/6 285/2/6 463/2/6
f 445/12/6 463/12/6 265/12/6
f 265/12/6 463/12/6 263/12/6
f 264/2/6 262/2/6 455/2/6
f 455/2/6 262/2/6 499/2/6
f 455/12/6 499/12/6 267/12/6
f 267/12/6 499/12/6 500/12/6
f 267/3/6 497/3/6 28/3/6
f 28/3/6 497/3/6 498/3/6
f 28/1/6 501/1/6 271/1/6
f 271/1/6 501/1/6 502/1/6
f 20/8/6 503/8/6 16/8/6
f 16/8/6 503/8/6 14/8/6
f 15/13/6 9/13/6 77/13/6
f 77/13/6 9/13/6 78/13/6
f 46/4/6 289/4/6 269/4/6
f 269/4/6 289/4/6 266/4/6
f 268/10/6 267/10/6 27/10/6
f 27/10/6 267/10/6 28/10/6
f 26/10/6 25/10/6 272/10/6
f 272/10/6 25/10/6 270/10/6
f 249/13/6 256/13/6 19/13/6
f 19/13/6 256/13/6 8/13/6
f 18/2/6 17/2/6 42/2/6
f 42/2/6 17/2/6 15/2/6
f 50/4/6 291/4/6 45/4/6
f 45/4/6 291/4/6 46/4/6
f 54/4/6 293/4/6 49/4/6
f 49/4/6 293/4/6 50/4/6
f 296/11/6 295/11/6 53/11/6
f 53/11/6 295/11/6 54/11/6
f 300/5/6 299/5/6 57/5/6
f 57/5/6 299/5/6 58/5/6
f 66/2/6 303/2/6 309/2/6
f 309/2/6 303/2/6 53/2/6
f 309/10/6 53/10/6 504/10/6
f 504/10/6 53/10/6 474/10/6
f 504/9/6 474/9/6 61/9/6
f 61/9/6 474/9/6 62/9/6
f 306/2/6 305/2/6 65/2/6
f 65/2/6 305/2/6 66/2/6
f 310/2/6 309/2/6 69/2/6
f 69/2/6 309/2/6 70/2/6
