# Vengi binary mesh normalized for Tanks of Freedom II

mtllib ../../materials/vox_building.mtl
o mobile_infantry

v 0.1 0.5 1.3
v -0.1 0.5 1.3
v -0.1 0.5 1.4
v 0.1 0.5 1.4
v 0.1 0.6 1.2
v -0.1 0.6 1.2
v -0.1 0.6 1.3
v 0.1 0.6 1.3
v 0.1 0.2 1.1
v -0.1 0.2 1.1
v -0.1 0.2 1.2
v 0.1 0.2 1.2
v 0.1 0.4 1.1
v -0.1 0.4 1.1
v -0.1 0.4 1.2
v 0.1 0.4 1.2
v 0.2 0.4 1
v 0.1 0.4 1
v 0.2 0.4 1.1
v -0.1 0.4 1
v -0.2 0.4 1
v -0.2 0.4 1.1
v 0.2 0.5 0.9
v 0.1 0.5 0.9
v 0.1 0.5 1
v 0.2 0.5 1
v 0.1 0.2 0.9
v -0.1 0.2 0.9
v -0.1 0.2 1
v 0.1 0.2 1
v 0.1 0.4 0.9
v -0.1 0.4 0.9
v 0.1 0.7 0.9
v -0.1 0.7 0.9
v -0.1 0.7 1.2
v 0.1 0.7 1.2
v -0.1 0.5 0.9
v -0.2 0.5 0.9
v -0.2 0.5 1
v -0.1 0.5 1
v 0.2 0.6 0.8
v 0.1 0.6 0.8
v 0.1 0.6 0.9
v 0.2 0.6 0.9
v 0.2 0.9 0.8
v 0.1 0.9 0.8
v 0.1 0.9 0.9
v 0.2 0.9 0.9
v -0.1 0.6 0.8
v -0.1 0.6 0.9
v 0.1 1 0.8
v -0.1 1 0.8
v -0.1 1 0.9
v 0.1 1 0.9
v -0.2 0.6 0.8
v -0.2 0.6 0.9
v -0.1 0.9 0.8
v -0.2 0.9 0.8
v -0.2 0.9 0.9
v -0.1 0.9 0.9
v 0.3 1 0.7
v 0.2 1 0.7
v 0.2 1 0.9
v 0.3 1 0.9
v 0.2 1.1 0.7
v 0.1 1.1 0.7
v 0.1 1.1 0.9
v 0.2 1.1 0.9
v 0.1 0.5 0.7
v -0.1 0.5 0.7
v -0.1 0.5 0.8
v 0.1 0.5 0.8
v -0.1 1.1 0.7
v -0.2 1.1 0.7
v -0.2 1.1 0.9
v -0.1 1.1 0.9
v -0.2 1 0.7
v -0.3 1 0.7
v -0.3 1 0.9
v -0.2 1 0.9
v 0.2 1 0.6
v 0.1 1 0.6
v 0.1 1 0.7
v -0.1 1 0.6
v -0.2 1 0.6
v -0.1 1 0.7
v 0.1 0.5 0.5
v -0.1 0.5 0.5
v -0.1 0.5 0.6
v 0.1 0.5 0.6
v 0.2 0.9 0.4
v 0.1 0.9 0.4
v 0.1 0.9 0.6
v 0.2 0.9 0.6
v -0.1 0.9 0.4
v -0.2 0.9 0.4
v -0.2 0.9 0.6
v -0.1 0.9 0.6
v 0.2 1 0.3
v 0.1 1 0.3
v 0.1 1 0.4
v 0.2 1 0.4
v -0.1 1 0.3
v -0.2 1 0.3
v -0.2 1 0.4
v -0.1 1 0.4
v 0.3 0.8 0.2
v 0.2 0.8 0.2
v 0.2 0.8 0.5
v 0.3 0.8 0.5
v 0.3 1 0.2
v 0.2 1 0.2
v 0.3 1 0.3
v 0.1 0.8 0.2
v 0.1 0.8 0.3
v 0.2 0.8 0.3
v 0.1 0.9 0.2
v -0.1 0.9 0.2
v -0.1 0.9 0.3
v 0.1 0.9 0.3
v -0.1 0.8 0.2
v -0.2 0.8 0.2
v -0.2 0.8 0.3
v -0.1 0.8 0.3
v -0.3 0.8 0.2
v -0.3 0.8 0.5
v -0.2 0.8 0.5
v -0.2 1 0.2
v -0.3 1 0.2
v -0.3 1 0.3
v 0.4 1 0.1
v 0.3 1 0.1
v 0.4 1 0.2
v 0.2 0.5 0.1
v 0.1 0.5 0.1
v 0.2 0.5 0.5
v 0.1 0.6 0.1
v -0.1 0.6 0.1
v -0.1 0.6 0.3
v 0.1 0.6 0.3
v -0.1 0.5 0.1
v -0.2 0.5 0.1
v -0.2 0.5 0.5
v -0.3 1 0.1
v -0.4 1 0.1
v -0.4 1 0.2
v 0.4 1 0
v 0.3 1 0
v -0.3 1 0
v -0.4 1 0
v 0.3 0.4 -0.1
v 0.2 0.4 -0.1
v 0.2 0.4 0
v 0.3 0.4 0
v 0.3 1.3 -0.1
v 0.2 1.3 -0.1
v 0.2 1.3 0
v 0.3 1.3 0
v 0.2 0.6 -0.1
v 0.1 0.6 -0.1
v 0.2 0.6 0.1
v 0.2 1.4 -0.1
v 0.1 1.4 -0.1
v 0.1 1.4 0
v 0.2 1.4 0
v 0.1 0.7 -0.1
v -0.1 0.7 -0.1
v -0.1 0.7 0.1
v 0.1 0.7 0.1
v -0.1 1.4 -0.1
v -0.1 1.4 0
v -0.1 0.6 -0.1
v -0.2 0.6 -0.1
v -0.2 0.6 0.1
v -0.2 1.4 -0.1
v -0.2 1.4 0
v -0.2 0.4 -0.1
v -0.3 0.4 -0.1
v -0.3 0.4 0
v -0.2 0.4 0
v -0.2 1.3 -0.1
v -0.3 1.3 -0.1
v -0.3 1.3 0
v -0.2 1.3 0
v 0.4 1 -0.2
v 0.3 1 -0.2
v 0.3 0.5 -0.2
v 0.2 0.5 -0.2
v 0.2 0.5 -0.1
v 0.3 0.5 -0.1
v 0.3 1.1 -0.2
v 0.2 1.1 -0.2
v 0.2 1.1 -0.1
v 0.3 1.1 -0.1
v -0.2 0.5 -0.2
v -0.3 0.5 -0.2
v -0.3 0.5 -0.1
v -0.2 0.5 -0.1
v -0.2 1.1 -0.2
v -0.3 1.1 -0.2
v -0.3 1.1 -0.1
v -0.2 1.1 -0.1
v -0.3 1 -0.2
v -0.4 1 -0.2
v 0.3 0.6 -0.3
v 0.2 0.6 -0.3
v 0.2 0.6 -0.2
v 0.3 0.6 -0.2
v 0.3 1.4 -0.3
v 0.2 1.4 -0.3
v 0.3 1.4 -0.1
v -0.2 0.6 -0.3
v -0.3 0.6 -0.3
v -0.3 0.6 -0.2
v -0.2 0.6 -0.2
v -0.2 1.4 -0.3
v -0.3 1.4 -0.3
v -0.3 1.4 -0.1
v 0.3 1.1 -0.4
v 0.2 1.1 -0.4
v 0.2 1.1 -0.3
v 0.3 1.1 -0.3
v 0.2 1.7 -0.4
v -0.2 1.7 -0.4
v -0.2 1.7 -0.1
v 0.2 1.7 -0.1
v -0.2 1.1 -0.4
v -0.3 1.1 -0.4
v -0.3 1.1 -0.3
v -0.2 1.1 -0.3
v 0.3 1.3 -0.5
v 0.2 1.3 -0.5
v 0.2 1.3 -0.3
v 0.3 1.3 -0.3
v 0.2 0.5 -0.5
v 0.1 0.5 -0.5
v 0.1 0.5 -0.4
v 0.2 0.5 -0.4
v 0.1 0.7 -0.5
v -0.1 0.7 -0.5
v -0.1 0.7 -0.4
v 0.1 0.7 -0.4
v -0.1 0.5 -0.5
v -0.2 0.5 -0.5
v -0.2 0.5 -0.4
v -0.1 0.5 -0.4
v -0.2 1.3 -0.5
v -0.2 1.3 -0.4
v 0.2 1.3 -0.4
v -0.3 1.3 -0.5
v -0.3 1.3 -0.3
v -0.2 1.3 -0.3
v 0.2 1.8 -0.6
v 0.1 1.8 -0.6
v 0.1 1.8 -0.5
v 0.2 1.8 -0.5
v 0.1 1.9 -0.6
v 0 1.9 -0.6
v 0 1.9 -0.5
v 0.1 1.9 -0.5
v 0 0.7 -0.6
v -0.1 0.7 -0.6
v 0 0.7 -0.5
v 0 1.5 -0.6
v -0.1 1.5 -0.6
v -0.1 1.5 -0.5
v 0 1.5 -0.5
v 0.4 0.7 -0.7
v 0.3 0.7 -0.7
v 0.3 0.7 -0.6
v 0.4 0.7 -0.6
v 0.3 0.6 -0.7
v 0.2 0.6 -0.7
v 0.2 0.6 -0.6
v 0.3 0.6 -0.6
v 0.1 0.5 -0.7
v -0.1 0.5 -0.7
v -0.1 0.5 -0.6
v 0.1 0.5 -0.6
v -0.2 0.5 -0.7
v -0.3 0.5 -0.7
v -0.3 0.5 -0.6
v -0.2 0.5 -0.6
v 0.1 0.6 -0.8
v -0.1 0.6 -0.8
v -0.1 0.6 -0.7
v 0.1 0.6 -0.7
v -0.2 0.5 -0.8
v -0.3 0.5 -0.8
v 0.5 0.5 -0.9
v 0.4 0.5 -0.9
v 0.4 0.5 -0.6
v 0.5 0.5 -0.6
v 0.4 0.6 -0.9
v 0.3 0.6 -0.9
v 0.4 0.6 -0.7
v 0.3 0.7 -0.9
v 0.2 0.7 -0.9
v 0.2 0.7 -0.7
v 0.1 0.2 -0.9
v -0.1 0.2 -0.9
v -0.1 0.2 -0.8
v 0.1 0.2 -0.8
v 0.1 0.4 -0.9
v -0.1 0.4 -0.9
v -0.1 0.4 -0.8
v 0.1 0.4 -0.8
v -0.2 0.5 -0.9
v -0.3 0.5 -0.9
v 0.3 0.5 -1
v 0.2 0.5 -1
v 0.2 0.5 -0.9
v 0.3 0.5 -0.9
v 0.1 0.5 -1
v -0.1 0.5 -1
v -0.2 0.5 -1
v 0.2 0.4 -1.1
v 0.1 0.4 -1.1
v 0.1 0.4 -1
v 0.2 0.4 -1
v 0.1 0.2 -1.1
v -0.1 0.2 -1.1
v -0.1 0.2 -1
v 0.1 0.2 -1
v -0.1 0.4 -1.1
v -0.1 0.4 -1
v 0.1 0.7 -1.1
v -0.1 0.7 -1.1
v -0.1 0.7 -0.8
v 0.1 0.7 -0.8
v -0.2 0.4 -1.1
v -0.2 0.4 -1
v 0.1 0.6 -1.2
v -0.1 0.6 -1.2
v -0.1 0.6 -1.1
v 0.1 0.6 -1.1
v 0.1 0.5 -1.3
v -0.1 0.5 -1.3
v -0.1 0.5 -1.2
v 0.1 0.5 -1.2
v 0.1 0.2 1.3
v 0.1 0.2 1.4
v -0.1 0.2 1.4
v -0.1 0.2 1.3
v 0.1 0.1 1.2
v 0.1 0.1 1.3
v -0.1 0.1 1.3
v -0.1 0.1 1.2
v 0.1 0.3 1.1
v 0.1 0.3 1.2
v -0.1 0.3 1.2
v -0.1 0.3 1.1
v 0.1 0.5 1.1
v 0.1 0.5 1.2
v -0.1 0.5 1.2
v -0.1 0.5 1.1
v 0.2 0.3 1
v 0.2 0.3 1.1
v 0.1 0.3 1
v -0.1 0.3 1
v -0.2 0.3 1.1
v -0.2 0.3 1
v 0.2 0.4 0.9
v 0.1 0 0.9
v 0.1 0 1.2
v -0.1 0 1.2
v -0.1 0 0.9
v 0.1 0.3 0.9
v -0.1 0.3 0.9
v -0.2 0.4 0.9
v 0.2 0.5 0.8
v 0.2 0.8 0.8
v 0.2 0.8 0.9
v 0.1 0.8 0.9
v 0.1 0.8 0.8
v 0.2 1 0.8
v 0.1 0.1 0.8
v 0.1 0.1 0.9
v -0.1 0.1 0.9
v -0.1 0.1 0.8
v 0.1 0.7 0.8
v -0.1 0.7 0.8
v -0.2 0.5 0.8
v -0.1 0.8 0.8
v -0.1 0.8 0.9
v -0.2 0.8 0.9
v -0.2 0.8 0.8
v -0.2 1 0.8
v 0.3 0.9 0.7
v 0.3 0.9 0.9
v 0.2 0.9 0.7
v 0.2 0.6 0.7
v 0.1 0.6 0.7
v 0.1 0.2 0.7
v 0.1 0.2 0.8
v -0.1 0.2 0.8
v -0.1 0.2 0.7
v -0.1 0.6 0.7
v -0.2 0.6 0.7
v -0.2 0.9 0.7
v -0.3 0.9 0.9
v -0.3 0.9 0.7
v 0.2 0.7 0.5
v 0.2 0.7 0.7
v 0.1 0.7 0.7
v 0.1 0.7 0.5
v 0.1 0.3 0.5
v 0.1 0.3 0.6
v -0.1 0.3 0.6
v -0.1 0.3 0.5
v 0.1 0.6 0.5
v -0.1 0.6 0.5
v -0.1 0.7 0.5
v -0.1 0.7 0.7
v -0.2 0.7 0.7
v -0.2 0.7 0.5
v 0.3 0.9 0.2
v 0.3 0.9 0.3
v 0.2 0.9 0.3
v 0.2 0.9 0.2
v 0.3 0.6 0.2
v 0.3 0.6 0.5
v 0.1 0.6 0.2
v 0.1 0.7 0.2
v 0.1 0.7 0.3
v -0.1 0.7 0.3
v -0.1 0.7 0.2
v -0.1 0.6 0.2
v -0.3 0.6 0.5
v -0.3 0.6 0.2
v -0.2 0.9 0.2
v -0.2 0.9 0.3
v -0.3 0.9 0.3
v -0.3 0.9 0.2
v 0.4 0.9 0.1
v 0.4 0.9 0.2
v 0.3 0.9 0.1
v -0.3 0.9 0.1
v -0.4 0.9 0.2
v -0.4 0.9 0.1
v 0.4 0.9 0
v 0.3 0.9 0
v 0.2 0.3 0
v 0.2 0.3 0.5
v 0.1 0.3 0
v -0.1 0.3 0
v -0.2 0.3 0.5
v -0.2 0.3 0
v -0.3 0.9 0
v -0.4 0.9 0
v 0.3 0.2 -0.1
v 0.3 0.2 0
v 0.1 0.2 0
v 0.1 0.2 -0.1
v -0.1 0.2 -0.1
v -0.1 0.2 0
v -0.3 0.2 0
v -0.3 0.2 -0.1
v 0.2 1.2 -0.1
v 0.2 1.2 0
v -0.3 1.2 0
v -0.3 1.2 -0.1
v 0.4 0.9 -0.2
v 0.3 0.9 -0.2
v 0.3 0.4 -0.2
v 0.2 0.4 -0.2
v 0.3 1 -0.1
v 0.2 1 -0.1
v 0.2 1 -0.2
v 0.3 1.2 -0.2
v 0.3 1.2 0
v 0.2 1.2 -0.2
v -0.2 0.4 -0.2
v -0.3 0.4 -0.2
v -0.2 1 -0.2
v -0.2 1 -0.1
v -0.3 1 -0.1
v -0.2 1.2 -0.2
v -0.2 1.2 -0.1
v -0.3 1.2 -0.2
v -0.3 0.9 -0.2
v -0.4 0.9 -0.2
v 0.3 0.5 -0.3
v 0.2 0.5 -0.3
v 0.3 0.9 -0.3
v 0.2 0.9 -0.2
v 0.2 0.9 -0.3
v 0.2 0.3 -0.3
v 0.2 0.3 -0.1
v 0.1 0.3 -0.1
v 0.1 0.3 -0.3
v -0.1 0.3 -0.3
v -0.1 0.3 -0.1
v -0.2 0.3 -0.1
v -0.2 0.3 -0.3
v -0.2 0.5 -0.3
v -0.3 0.5 -0.3
v -0.2 0.9 -0.3
v -0.2 0.9 -0.2
v -0.3 0.9 -0.3
v 0.3 1 -0.4
v 0.3 1 -0.3
v 0.2 1 -0.3
v 0.2 1 -0.4
v -0.2 1 -0.4
v -0.2 1 -0.3
v -0.3 1 -0.3
v -0.3 1 -0.4
v 0.3 1.2 -0.5
v 0.3 1.2 -0.3
v 0.2 1.2 -0.3
v 0.2 1.2 -0.5
v 0.2 0.2 -0.5
v 0.2 0.2 -0.3
v 0.1 0.2 -0.3
v 0.1 0.2 -0.5
v 0.1 0.2 0.5
v -0.1 0.2 0.5
v -0.1 0.2 -0.5
v -0.1 0.2 -0.3
v -0.2 0.2 -0.3
v -0.2 0.2 -0.5
v 0.2 1.2 -0.4
v -0.2 1.2 -0.4
v -0.2 1.2 -0.5
v -0.2 1.2 -0.3
v -0.3 1.2 -0.3
v -0.3 1.2 -0.5
v 0.2 1.7 -0.6
v 0.2 1.7 -0.5
v 0.1 1.7 -0.5
v 0.1 1.7 -0.6
v 0.1 0.7 -0.6
v 0 0.6 -0.6
v 0 0.6 -0.5
v -0.1 0.6 -0.5
v -0.1 0.6 -0.6
v 0 1 -0.6
v 0 1 -0.5
v -0.1 1 -0.5
v -0.1 1 -0.6
v 0.5 0.4 -0.7
v 0.5 0.4 -0.6
v 0.4 0.4 -0.6
v 0.4 0.4 -0.7
v 0.1 0.2 -0.7
v 0.1 0.2 -0.6
v -0.1 0.2 -0.6
v -0.1 0.2 -0.7
v -0.2 0.2 -0.7
v -0.2 0.2 -0.6
v -0.3 0.2 -0.6
v -0.3 0.2 -0.7
v 0.5 0.2 -0.8
v 0.5 0.2 -0.7
v 0.4 0.2 -0.7
v 0.4 0.2 -0.8
v 0.1 0.1 -0.8
v 0.1 0.1 -0.7
v -0.1 0.1 -0.7
v -0.1 0.1 -0.8
v -0.2 0.2 -0.8
v -0.3 0.2 -0.8
v 0.5 0.4 -0.9
v 0.5 0.4 -0.8
v 0.4 0.4 -0.8
v 0.4 0.4 -0.9
v 0.4 0.1 -0.9
v 0.4 0.1 -0.6
v 0.2 0.1 -0.6
v 0.2 0.1 -0.9
v 0.1 0.3 -0.9
v 0.1 0.3 -0.8
v -0.1 0.3 -0.8
v -0.1 0.3 -0.9
v 0.1 0.5 -0.9
v 0.1 0.5 -0.8
v -0.1 0.5 -0.8
v -0.1 0.5 -0.9
v -0.2 0.2 -0.9
v -0.3 0.2 -0.9
v 0.3 0.1 -1
v 0.3 0.1 -0.9
v 0.2 0.1 -1
v 0.2 0.2 -1
v -0.2 0.2 -1
v 0.2 0.3 -1.1
v 0.2 0.3 -1
v 0.1 0.3 -1
v 0.1 0.3 -1.1
v 0.1 0 -1.1
v 0.1 0 -0.8
v -0.1 0 -0.8
v -0.1 0 -1.1
v -0.1 0.3 -1
v -0.1 0.3 -1.1
v 0.1 0.5 -1.1
v -0.1 0.5 -1.1
v -0.2 0.3 -1
v -0.2 0.3 -1.1
v 0.1 0.1 -1.2
v 0.1 0.1 -1.1
v -0.1 0.1 -1.1
v -0.1 0.1 -1.2
v 0.1 0.2 -1.3
v 0.1 0.2 -1.2
v -0.1 0.2 -1.2
v -0.1 0.2 -1.3
v 0.2 0.2 -0.6
v 0.2 0.2 -0.9
v -0.3 0.3 0
v -0.3 0.3 -0.1
v -0.2 0.3 -0.4
v -0.2 0.3 -0.5
v -0.2 0.2 -0.4
v -0.3 0.3 -0.6
v -0.3 0.3 -0.7
v -0.3 0.3 -0.8
v -0.3 0.3 -0.9
v -0.2 0.4 -0.3
v -0.2 0.4 -0.4
v -0.2 0.4 -0.5
v -0.3 0.4 -0.6
v -0.3 0.4 -0.7
v -0.3 0.4 -0.8
v -0.3 0.4 -0.9
v -0.2 0.5 0
v -0.2 0.6 -0.4
v -0.1 0.6 -0.4
v 0.2 0.6 -0.9
v 0.2 0.5 -0.6
v -0.2 0.7 0.8
v -0.2 0.9 0.5
v -0.2 0.9 -0.1
v -0.2 0.9 -0.4
v -0.2 1.4 -0.4
v 0.4 0.1 -0.7
v 0.4 0.2 -0.9
v 0.3 0.3 0
v 0.3 0.3 -0.1
v 0.2 0.3 -0.4
v 0.2 0.2 -0.4
v 0.2 0.3 -0.5
v 0.3 0.3 -0.9
v 0.3 0.3 -1
v 0.2 0.4 -0.3
v 0.2 0.4 -0.4
v 0.2 0.4 -0.5
v 0.2 0.5 0
v 0.2 0.6 -0.4
v 0.1 0.6 -0.4
v 0.1 0.6 -0.5
v 0.4 0.6 -0.6
v 0.2 0.7 0.8
v 0.2 0.9 0.5
v 0.2 0.9 -0.1
v 0.2 0.9 -0.4
v 0.1 1 -0.5
v 0.1 1 -0.6
v 0.1 1.1 -0.5
v 0.1 1.1 -0.6
v 0.2 1.4 -0.4
v 0.3 0.4 -0.9
v 0.1 0.9 -0.4
v 0.1 1.2 -0.5
v 0.1 1.3 -0.5
v 0 1.1 -0.6
v -0.2 0.7 -0.4
v -0.2 0.3 -0.9
v -0.2 0.4 -0.9
v -0.1 1.3 -0.5
v -0.1 1.2 -0.5
v 0.2 0.4 -0.6
v 0.3 0.7 0.5
v 0.1 0.9 -0.1
v 0.1 1 -0.1
v 0.1 1.1 -0.1
v 0.1 1.2 -0.1
v 0.1 1.3 0
v 0 1 -0.1
v 0 1.1 -0.1
v 0 1.1 -0.5
v 0 1.2 -0.5
v 0 1.3 -0.5
v -0.1 0.9 -0.1
v -0.1 1 -0.1
v -0.1 1.1 -0.1
v -0.1 1.2 -0.1
v -0.1 1.3 0
v -0.2 0.3 -0.6
v -0.2 0.4 -0.6
v -0.3 0.7 0.5

vt 0.00195313 0.5
vt 0.00585938 0.5
vt 0.0136719 0.5
vt 0.0175781 0.5
vt 0.0292969 0.5
vt 0.0332031 0.5
vt 0.0527344 0.5
vt 0.0683594 0.5
vt 0.0839844 0.5
vt 0.0996094 0.5
vt 0.123047 0.5
vt 0.158203 0.5
vt 0.162109 0.5

vn 0 1 0
vn 0 -1 0
vn -1 0 0
vn 1 0 0
vn 0 0 -1
vn 0 0 1

usemtl palette
f 1/1/1 2/1/1 4/1/1
f 4/1/1 2/1/1 3/1/1
f 5/1/1 6/1/1 8/1/1
f 8/1/1 6/1/1 7/1/1
f 9/12/1 10/12/1 12/12/1
f 12/12/1 10/12/1 11/12/1
f 13/13/1 14/13/1 16/13/1
f 16/13/1 14/13/1 15/13/1
f 17/2/1 18/2/1 19/2/1
f 19/2/1 18/2/1 13/2/1
f 20/2/1 21/2/1 14/2/1
f 14/2/1 21/2/1 22/2/1
f 23/2/1 24/2/1 26/2/1
f 26/2/1 24/2/1 25/2/1
f 27/12/1 28/12/1 30/12/1
f 30/12/1 28/12/1 29/12/1
f 31/13/1 32/13/1 18/13/1
f 18/13/1 32/13/1 20/13/1
f 33/1/1 34/1/1 36/1/1
f 36/1/1 34/1/1 35/1/1
f 37/2/1 38/2/1 40/2/1
f 40/2/1 38/2/1 39/2/1
f 41/2/1 42/2/1 44/2/1
f 44/2/1 42/2/1 43/2/1
f 45/2/1 46/2/1 48/2/1
f 48/2/1 46/2/1 47/2/1
f 42/1/1 49/1/1 43/1/1
f 43/1/1 49/1/1 50/1/1
f 51/2/1 52/2/1 54/2/1
f 54/2/1 52/2/1 53/2/1
f 49/2/1 55/2/1 50/2/1
f 50/2/1 55/2/1 56/2/1
f 57/2/1 58/2/1 60/2/1
f 60/2/1 58/2/1 59/2/1
f 61/2/1 62/2/1 64/2/1
f 64/2/1 62/2/1 63/2/1
f 65/2/1 66/2/1 68/2/1
f 68/2/1 66/2/1 67/2/1
f 69/1/1 70/1/1 72/1/1
f 72/1/1 70/1/1 71/1/1
f 73/2/1 74/2/1 76/2/1
f 76/2/1 74/2/1 75/2/1
f 77/2/1 78/2/1 80/2/1
f 80/2/1 78/2/1 79/2/1
f 81/2/1 82/2/1 62/2/1
f 62/2/1 82/2/1 83/2/1
f 84/2/1 85/2/1 86/2/1
f 86/2/1 85/2/1 77/2/1
f 87/12/1 88/12/1 90/12/1
f 90/12/1 88/12/1 89/12/1
f 91/13/1 92/13/1 94/13/1
f 94/13/1 92/13/1 93/13/1
f 95/13/1 96/13/1 98/13/1
f 98/13/1 96/13/1 97/13/1
f 99/9/1 100/9/1 102/9/1
f 102/9/1 100/9/1 101/9/1
f 100/13/1 103/13/1 51/13/1
f 51/13/1 103/13/1 52/13/1
f 103/9/1 104/9/1 106/9/1
f 106/9/1 104/9/1 105/9/1
f 107/2/1 108/2/1 110/2/1
f 110/2/1 108/2/1 109/2/1
f 111/9/1 112/9/1 113/9/1
f 113/9/1 112/9/1 99/9/1
f 108/2/1 114/2/1 116/2/1
f 116/2/1 114/2/1 115/2/1
f 117/13/1 118/13/1 120/13/1
f 120/13/1 118/13/1 119/13/1
f 121/2/1 122/2/1 124/2/1
f 124/2/1 122/2/1 123/2/1
f 122/2/1 125/2/1 127/2/1
f 127/2/1 125/2/1 126/2/1
f 128/9/1 129/9/1 104/9/1
f 104/9/1 129/9/1 130/9/1
f 131/9/1 132/9/1 133/9/1
f 133/9/1 132/9/1 111/9/1
f 134/13/1 135/13/1 136/13/1
f 136/13/1 135/13/1 87/13/1
f 137/13/1 138/13/1 140/13/1
f 140/13/1 138/13/1 139/13/1
f 141/13/1 142/13/1 88/13/1
f 88/13/1 142/13/1 143/13/1
f 144/9/1 145/9/1 129/9/1
f 129/9/1 145/9/1 146/9/1
f 147/11/1 148/11/1 131/11/1
f 131/11/1 148/11/1 132/11/1
f 149/11/1 150/11/1 144/11/1
f 144/11/1 150/11/1 145/11/1
f 151/2/1 152/2/1 154/2/1
f 154/2/1 152/2/1 153/2/1
f 155/13/1 156/13/1 158/13/1
f 158/13/1 156/13/1 157/13/1
f 159/9/1 160/9/1 161/9/1
f 161/9/1 160/9/1 137/9/1
f 162/7/1 163/7/1 165/7/1
f 165/7/1 163/7/1 164/7/1
f 166/9/1 167/9/1 169/9/1
f 169/9/1 167/9/1 168/9/1
f 163/2/1 170/2/1 164/2/1
f 164/2/1 170/2/1 171/2/1
f 172/9/1 173/9/1 138/9/1
f 138/9/1 173/9/1 174/9/1
f 170/7/1 175/7/1 171/7/1
f 171/7/1 175/7/1 176/7/1
f 177/2/1 178/2/1 180/2/1
f 180/2/1 178/2/1 179/2/1
f 181/13/1 182/13/1 184/13/1
f 184/13/1 182/13/1 183/13/1
f 185/5/1 186/5/1 147/5/1
f 147/5/1 186/5/1 148/5/1
f 187/12/1 188/12/1 190/12/1
f 190/12/1 188/12/1 189/12/1
f 191/9/1 192/9/1 194/9/1
f 194/9/1 192/9/1 193/9/1
f 195/12/1 196/12/1 198/12/1
f 198/12/1 196/12/1 197/12/1
f 199/9/1 200/9/1 202/9/1
f 202/9/1 200/9/1 201/9/1
f 203/5/1 204/5/1 149/5/1
f 149/5/1 204/5/1 150/5/1
f 205/12/1 206/12/1 208/12/1
f 208/12/1 206/12/1 207/12/1
f 209/2/1 210/2/1 211/2/1
f 211/2/1 210/2/1 162/2/1
f 212/12/1 213/12/1 215/12/1
f 215/12/1 213/12/1 214/12/1
f 216/2/1 217/2/1 175/2/1
f 175/2/1 217/2/1 218/2/1
f 219/9/1 220/9/1 222/9/1
f 222/9/1 220/9/1 221/9/1
f 223/13/1 224/13/1 226/13/1
f 226/13/1 224/13/1 225/13/1
f 227/9/1 228/9/1 230/9/1
f 230/9/1 228/9/1 229/9/1
f 231/13/1 232/13/1 234/13/1
f 234/13/1 232/13/1 233/13/1
f 235/13/1 236/13/1 238/13/1
f 238/13/1 236/13/1 237/13/1
f 239/9/1 240/9/1 242/9/1
f 242/9/1 240/9/1 241/9/1
f 243/13/1 244/13/1 246/13/1
f 246/13/1 244/13/1 245/13/1
f 232/13/1 247/13/1 249/13/1
f 249/13/1 247/13/1 248/13/1
f 247/13/1 250/13/1 252/13/1
f 252/13/1 250/13/1 251/13/1
f 253/6/1 254/6/1 256/6/1
f 256/6/1 254/6/1 255/6/1
f 257/8/1 258/8/1 260/8/1
f 260/8/1 258/8/1 259/8/1
f 261/2/1 262/2/1 263/2/1
f 263/2/1 262/2/1 240/2/1
f 264/2/1 265/2/1 267/2/1
f 267/2/1 265/2/1 266/2/1
f 268/6/1 269/6/1 271/6/1
f 271/6/1 269/6/1 270/6/1
f 272/9/1 273/9/1 275/9/1
f 275/9/1 273/9/1 274/9/1
f 276/1/1 277/1/1 279/1/1
f 279/1/1 277/1/1 278/1/1
f 280/5/1 281/5/1 283/5/1
f 283/5/1 281/5/1 282/5/1
f 284/1/1 285/1/1 287/1/1
f 287/1/1 285/1/1 286/1/1
f 288/10/1 289/10/1 280/10/1
f 280/10/1 289/10/1 281/10/1
f 290/6/1 291/6/1 293/6/1
f 293/6/1 291/6/1 292/6/1
f 294/9/1 295/9/1 296/9/1
f 296/9/1 295/9/1 272/9/1
f 297/6/1 298/6/1 269/6/1
f 269/6/1 298/6/1 299/6/1
f 300/12/1 301/12/1 303/12/1
f 303/12/1 301/12/1 302/12/1
f 304/13/1 305/13/1 307/13/1
f 307/13/1 305/13/1 306/13/1
f 308/5/1 309/5/1 288/5/1
f 288/5/1 309/5/1 289/5/1
f 310/6/1 311/6/1 313/6/1
f 313/6/1 311/6/1 312/6/1
f 311/12/1 314/12/1 235/12/1
f 235/12/1 314/12/1 236/12/1
f 315/12/1 316/12/1 243/12/1
f 243/12/1 316/12/1 244/12/1
f 317/12/1 318/12/1 320/12/1
f 320/12/1 318/12/1 319/12/1
f 321/12/1 322/12/1 324/12/1
f 324/12/1 322/12/1 323/12/1
f 318/13/1 325/13/1 319/13/1
f 319/13/1 325/13/1 326/13/1
f 327/1/1 328/1/1 330/1/1
f 330/1/1 328/1/1 329/1/1
f 325/12/1 331/12/1 326/12/1
f 326/12/1 331/12/1 332/12/1
f 333/1/1 334/1/1 336/1/1
f 336/1/1 334/1/1 335/1/1
f 337/1/1 338/1/1 340/1/1
f 340/1/1 338/1/1 339/1/1
f 341/1/2 342/1/2 344/1/2
f 344/1/2 342/1/2 343/1/2
f 345/1/2 346/1/2 348/1/2
f 348/1/2 346/1/2 347/1/2
f 349/13/2 350/13/2 352/13/2
f 352/13/2 350/13/2 351/13/2
f 353/12/2 354/12/2 356/12/2
f 356/12/2 354/12/2 355/12/2
f 357/2/2 358/2/2 359/2/2
f 359/2/2 358/2/2 349/2/2
f 360/2/2 352/2/2 362/2/2
f 362/2/2 352/2/2 361/2/2
f 363/2/2 17/2/2 31/2/2
f 31/2/2 17/2/2 18/2/2
f 364/1/2 365/1/2 367/1/2
f 367/1/2 365/1/2 366/1/2
f 368/13/2 359/13/2 369/13/2
f 369/13/2 359/13/2 360/13/2
f 24/12/2 25/12/2 37/12/2
f 37/12/2 25/12/2 40/12/2
f 32/2/2 20/2/2 370/2/2
f 370/2/2 20/2/2 21/2/2
f 371/2/2 23/2/2 72/2/2
f 72/2/2 23/2/2 24/2/2
f 372/2/2 373/2/2 375/2/2
f 375/2/2 373/2/2 374/2/2
f 376/2/2 63/2/2 51/2/2
f 51/2/2 63/2/2 54/2/2
f 377/1/2 378/1/2 380/1/2
f 380/1/2 378/1/2 379/1/2
f 381/12/2 33/12/2 382/12/2
f 382/12/2 33/12/2 34/12/2
f 71/2/2 37/2/2 383/2/2
f 383/2/2 37/2/2 38/2/2
f 384/2/2 385/2/2 387/2/2
f 387/2/2 385/2/2 386/2/2
f 52/2/2 53/2/2 388/2/2
f 388/2/2 53/2/2 80/2/2
f 389/2/2 390/2/2 391/2/2
f 391/2/2 390/2/2 48/2/2
f 392/2/2 41/2/2 393/2/2
f 393/2/2 41/2/2 42/2/2
f 394/1/2 395/1/2 397/1/2
f 397/1/2 395/1/2 396/1/2
f 398/2/2 49/2/2 399/2/2
f 399/2/2 49/2/2 55/2/2
f 400/2/2 59/2/2 402/2/2
f 402/2/2 59/2/2 401/2/2
f 403/13/2 404/13/2 406/13/2
f 406/13/2 404/13/2 405/13/2
f 407/12/2 408/12/2 410/12/2
f 410/12/2 408/12/2 409/12/2
f 411/13/2 42/13/2 412/13/2
f 412/13/2 42/13/2 49/13/2
f 413/13/2 414/13/2 416/13/2
f 416/13/2 414/13/2 415/13/2
f 417/9/2 418/9/2 420/9/2
f 420/9/2 418/9/2 419/9/2
f 421/2/2 422/2/2 423/2/2
f 423/2/2 422/2/2 411/2/2
f 424/13/2 425/13/2 427/13/2
f 427/13/2 425/13/2 426/13/2
f 428/2/2 412/2/2 430/2/2
f 430/2/2 412/2/2 429/2/2
f 431/9/2 432/9/2 434/9/2
f 434/9/2 432/9/2 433/9/2
f 435/9/2 436/9/2 437/9/2
f 437/9/2 436/9/2 417/9/2
f 438/9/2 434/9/2 440/9/2
f 440/9/2 434/9/2 439/9/2
f 441/11/2 435/11/2 442/11/2
f 442/11/2 435/11/2 437/11/2
f 443/13/2 444/13/2 445/13/2
f 445/13/2 444/13/2 407/13/2
f 446/13/2 410/13/2 448/13/2
f 448/13/2 410/13/2 447/13/2
f 449/11/2 438/11/2 450/11/2
f 450/11/2 438/11/2 440/11/2
f 451/8/2 452/8/2 454/8/2
f 454/8/2 452/8/2 453/8/2
f 455/8/2 456/8/2 458/8/2
f 458/8/2 456/8/2 457/8/2
f 459/13/2 460/13/2 462/13/2
f 462/13/2 460/13/2 461/13/2
f 463/5/2 441/5/2 464/5/2
f 464/5/2 441/5/2 442/5/2
f 465/12/2 151/12/2 466/12/2
f 466/12/2 151/12/2 152/12/2
f 186/9/2 467/9/2 469/9/2
f 469/9/2 467/9/2 468/9/2
f 470/13/2 471/13/2 472/13/2
f 472/13/2 471/13/2 460/13/2
f 473/12/2 177/12/2 474/12/2
f 474/12/2 177/12/2 178/12/2
f 475/9/2 476/9/2 203/9/2
f 203/9/2 476/9/2 477/9/2
f 478/13/2 479/13/2 480/13/2
f 480/13/2 479/13/2 462/13/2
f 481/5/2 449/5/2 482/5/2
f 482/5/2 449/5/2 450/5/2
f 483/12/2 187/12/2 484/12/2
f 484/12/2 187/12/2 188/12/2
f 485/5/2 464/5/2 487/5/2
f 487/5/2 464/5/2 486/5/2
f 488/13/2 489/13/2 491/13/2
f 491/13/2 489/13/2 490/13/2
f 492/13/2 493/13/2 495/13/2
f 495/13/2 493/13/2 494/13/2
f 496/12/2 195/12/2 497/12/2
f 497/12/2 195/12/2 196/12/2
f 498/5/2 499/5/2 500/5/2
f 500/5/2 499/5/2 481/5/2
f 501/9/2 502/9/2 504/9/2
f 504/9/2 502/9/2 503/9/2
f 505/9/2 506/9/2 508/9/2
f 508/9/2 506/9/2 507/9/2
f 509/13/2 510/13/2 512/13/2
f 512/13/2 510/13/2 511/13/2
f 513/13/2 514/13/2 516/13/2
f 516/13/2 514/13/2 515/13/2
f 516/13/2 517/13/2 519/13/2
f 519/13/2 517/13/2 518/13/2
f 519/13/2 520/13/2 522/13/2
f 522/13/2 520/13/2 521/13/2
f 512/13/2 523/13/2 525/13/2
f 525/13/2 523/13/2 524/13/2
f 525/13/2 526/13/2 528/13/2
f 528/13/2 526/13/2 527/13/2
f 529/6/2 530/6/2 532/6/2
f 532/6/2 530/6/2 531/6/2
f 533/2/2 239/2/2 261/2/2
f 261/2/2 239/2/2 263/2/2
f 534/2/2 535/2/2 537/2/2
f 537/2/2 535/2/2 536/2/2
f 538/2/2 539/2/2 541/2/2
f 541/2/2 539/2/2 540/2/2
f 542/6/2 543/6/2 545/6/2
f 545/6/2 543/6/2 544/6/2
f 546/1/2 547/1/2 549/1/2
f 549/1/2 547/1/2 548/1/2
f 550/5/2 551/5/2 553/5/2
f 553/5/2 551/5/2 552/5/2
f 554/4/2 555/4/2 557/4/2
f 557/4/2 555/4/2 556/4/2
f 558/1/2 559/1/2 561/1/2
f 561/1/2 559/1/2 560/1/2
f 562/10/2 550/10/2 563/10/2
f 563/10/2 550/10/2 553/10/2
f 564/6/2 565/6/2 567/6/2
f 567/6/2 565/6/2 566/6/2
f 568/2/2 569/2/2 571/2/2
f 571/2/2 569/2/2 570/2/2
f 572/13/2 573/13/2 575/13/2
f 575/13/2 573/13/2 574/13/2
f 576/12/2 577/12/2 579/12/2
f 579/12/2 577/12/2 578/12/2
f 580/5/2 562/5/2 581/5/2
f 581/5/2 562/5/2 563/5/2
f 582/4/2 583/4/2 584/4/2
f 584/4/2 583/4/2 571/4/2
f 585/12/2 513/12/2 324/12/2
f 324/12/2 513/12/2 516/12/2
f 323/12/2 519/12/2 586/12/2
f 586/12/2 519/12/2 522/12/2
f 587/12/2 588/12/2 590/12/2
f 590/12/2 588/12/2 589/12/2
f 591/1/2 592/1/2 594/1/2
f 594/1/2 592/1/2 593/1/2
f 590/13/2 589/13/2 596/13/2
f 596/13/2 589/13/2 595/13/2
f 597/12/2 314/12/2 598/12/2
f 598/12/2 314/12/2 315/12/2
f 596/12/2 595/12/2 600/12/2
f 600/12/2 595/12/2 599/12/2
f 601/1/2 602/1/2 604/1/2
f 604/1/2 602/1/2 603/1/2
f 605/1/2 606/1/2 608/1/2
f 608/1/2 606/1/2 607/1/2
f 348/1/3 379/1/3 366/1/3
f 366/1/3 379/1/3 367/1/3
f 561/1/3 603/1/3 593/1/3
f 593/1/3 603/1/3 594/1/3
f 344/1/3 11/1/3 347/1/3
f 347/1/3 11/1/3 348/1/3
f 11/12/3 28/12/3 348/12/3
f 348/12/3 28/12/3 379/12/3
f 28/1/3 396/1/3 379/1/3
f 379/1/3 396/1/3 380/1/3
f 549/1/3 302/1/3 560/1/3
f 560/1/3 302/1/3 561/1/3
f 609/2/3 610/2/3 570/2/3
f 570/2/3 610/2/3 571/2/3
f 610/4/3 585/4/3 571/4/3
f 571/4/3 585/4/3 584/4/3
f 302/12/3 322/12/3 561/12/3
f 561/12/3 322/12/3 603/12/3
f 322/1/3 607/1/3 603/1/3
f 603/1/3 607/1/3 604/1/3
f 352/13/3 360/13/3 10/13/3
f 10/13/3 360/13/3 29/13/3
f 410/13/3 446/13/3 518/13/3
f 518/13/3 446/13/3 456/13/3
f 611/8/3 612/8/3 457/8/3
f 457/8/3 612/8/3 458/8/3
f 493/13/3 492/13/3 455/13/3
f 455/13/3 492/13/3 520/13/3
f 613/13/3 614/13/3 615/13/3
f 615/13/3 614/13/3 522/13/3
f 616/5/3 617/5/3 552/5/3
f 552/5/3 617/5/3 553/5/3
f 573/12/3 572/12/3 303/12/3
f 303/12/3 572/12/3 300/12/3
f 618/5/3 619/5/3 563/5/3
f 563/5/3 619/5/3 581/5/3
f 15/13/3 14/13/3 351/13/3
f 351/13/3 14/13/3 352/13/3
f 22/2/3 21/2/3 361/2/3
f 361/2/3 21/2/3 362/2/3
f 20/13/3 32/13/3 360/13/3
f 360/13/3 32/13/3 369/13/3
f 179/2/3 178/2/3 611/2/3
f 611/2/3 178/2/3 612/2/3
f 177/13/3 620/13/3 494/13/3
f 494/13/3 620/13/3 495/13/3
f 621/12/3 622/12/3 613/12/3
f 613/12/3 622/12/3 614/12/3
f 623/10/3 624/10/3 616/10/3
f 616/10/3 624/10/3 617/10/3
f 625/10/3 626/10/3 618/10/3
f 618/10/3 626/10/3 619/10/3
f 332/12/3 331/12/3 599/12/3
f 599/12/3 331/12/3 600/12/3
f 3/1/3 2/1/3 343/1/3
f 343/1/3 2/1/3 344/1/3
f 2/12/3 355/12/3 344/12/3
f 344/12/3 355/12/3 11/12/3
f 356/13/3 40/13/3 14/13/3
f 14/13/3 40/13/3 20/13/3
f 25/2/3 24/2/3 18/2/3
f 18/2/3 24/2/3 31/2/3
f 39/2/3 38/2/3 21/2/3
f 21/2/3 38/2/3 370/2/3
f 37/12/3 71/12/3 28/12/3
f 28/12/3 71/12/3 396/12/3
f 71/1/3 70/1/3 396/1/3
f 396/1/3 70/1/3 397/1/3
f 89/12/3 88/12/3 409/12/3
f 409/12/3 88/12/3 410/12/3
f 143/13/3 627/13/3 447/13/3
f 447/13/3 627/13/3 448/13/3
f 627/13/3 198/13/3 180/13/3
f 180/13/3 198/13/3 177/13/3
f 197/12/3 196/12/3 178/12/3
f 178/12/3 196/12/3 474/12/3
f 195/13/3 496/13/3 473/13/3
f 473/13/3 496/13/3 620/13/3
f 496/13/3 245/13/3 521/13/3
f 521/13/3 245/13/3 615/13/3
f 245/13/3 244/13/3 621/13/3
f 621/13/3 244/13/3 622/13/3
f 236/12/3 279/12/3 516/12/3
f 516/12/3 279/12/3 547/12/3
f 244/12/3 283/12/3 522/12/3
f 522/12/3 283/12/3 551/12/3
f 282/5/3 281/5/3 623/5/3
f 623/5/3 281/5/3 624/5/3
f 281/10/3 289/10/3 553/10/3
f 553/10/3 289/10/3 563/10/3
f 577/12/3 576/12/3 307/12/3
f 307/12/3 576/12/3 304/12/3
f 289/5/3 309/5/3 625/5/3
f 625/5/3 309/5/3 626/5/3
f 308/12/3 316/12/3 580/12/3
f 580/12/3 316/12/3 586/12/3
f 598/12/3 339/12/3 322/12/3
f 322/12/3 339/12/3 607/12/3
f 339/1/3 338/1/3 607/1/3
f 607/1/3 338/1/3 608/1/3
f 7/1/3 6/1/3 2/1/3
f 2/1/3 6/1/3 355/1/3
f 6/12/3 50/12/3 355/12/3
f 355/12/3 50/12/3 37/12/3
f 56/2/3 55/2/3 38/2/3
f 38/2/3 55/2/3 383/2/3
f 412/13/3 138/13/3 88/13/3
f 88/13/3 138/13/3 141/13/3
f 174/9/3 215/9/3 142/9/3
f 142/9/3 215/9/3 195/9/3
f 214/12/3 213/12/3 196/12/3
f 196/12/3 213/12/3 497/12/3
f 212/9/3 628/9/3 496/9/3
f 496/9/3 628/9/3 245/9/3
f 629/13/3 536/13/3 246/13/3
f 246/13/3 536/13/3 243/13/3
f 286/1/3 285/1/3 277/1/3
f 277/1/3 285/1/3 578/1/3
f 274/9/3 630/9/3 631/9/3
f 631/9/3 630/9/3 312/9/3
f 285/12/3 335/12/3 578/12/3
f 578/12/3 335/12/3 598/12/3
f 335/1/3 334/1/3 598/1/3
f 598/1/3 334/1/3 339/1/3
f 35/1/3 34/1/3 6/1/3
f 6/1/3 34/1/3 50/1/3
f 632/2/3 415/2/3 55/2/3
f 55/2/3 415/2/3 399/2/3
f 414/13/3 413/13/3 398/13/3
f 398/13/3 413/13/3 412/13/3
f 425/2/3 424/2/3 140/2/3
f 140/2/3 424/2/3 423/2/3
f 168/9/3 167/9/3 138/9/3
f 138/9/3 167/9/3 172/9/3
f 241/9/3 240/9/3 629/9/3
f 629/9/3 240/9/3 536/9/3
f 240/2/3 262/2/3 536/2/3
f 536/2/3 262/2/3 537/2/3
f 270/6/3 269/6/3 275/6/3
f 275/6/3 269/6/3 272/6/3
f 299/6/3 298/6/3 273/6/3
f 273/6/3 298/6/3 630/6/3
f 329/1/3 328/1/3 285/1/3
f 285/1/3 328/1/3 335/1/3
f 385/12/3 384/12/3 34/12/3
f 34/12/3 384/12/3 382/12/3
f 126/2/3 125/2/3 429/2/3
f 429/2/3 125/2/3 430/2/3
f 59/2/3 58/2/3 386/2/3
f 386/2/3 58/2/3 387/2/3
f 58/13/3 633/13/3 632/13/3
f 632/13/3 633/13/3 416/13/3
f 633/13/3 432/13/3 127/13/3
f 127/13/3 432/13/3 123/13/3
f 119/13/3 118/13/3 124/13/3
f 124/13/3 118/13/3 121/13/3
f 634/2/3 635/2/3 173/2/3
f 173/2/3 635/2/3 628/2/3
f 63/2/3 376/2/3 48/2/3
f 48/2/3 376/2/3 45/2/3
f 53/2/3 52/2/3 60/2/3
f 60/2/3 52/2/3 57/2/3
f 79/2/3 78/2/3 401/2/3
f 401/2/3 78/2/3 402/2/3
f 77/2/3 85/2/3 400/2/3
f 400/2/3 85/2/3 97/2/3
f 84/13/3 106/13/3 98/13/3
f 98/13/3 106/13/3 95/13/3
f 105/9/3 104/9/3 96/9/3
f 96/9/3 104/9/3 432/9/3
f 99/9/3 112/9/3 419/9/3
f 419/9/3 112/9/3 420/9/3
f 130/9/3 129/9/3 433/9/3
f 433/9/3 129/9/3 434/9/3
f 111/9/3 132/9/3 417/9/3
f 417/9/3 132/9/3 437/9/3
f 146/9/3 145/9/3 439/9/3
f 439/9/3 145/9/3 440/9/3
f 132/11/3 148/11/3 437/11/3
f 437/11/3 148/11/3 442/11/3
f 145/11/3 150/11/3 440/11/3
f 440/11/3 150/11/3 450/11/3
f 148/5/3 186/5/3 442/5/3
f 442/5/3 186/5/3 464/5/3
f 476/12/3 475/12/3 634/12/3
f 634/12/3 475/12/3 499/12/3
f 150/5/3 204/5/3 450/5/3
f 450/5/3 204/5/3 482/5/3
f 203/5/3 507/5/3 481/5/3
f 481/5/3 507/5/3 500/5/3
f 506/12/3 505/12/3 498/12/3
f 498/12/3 505/12/3 635/12/3
f 539/2/3 538/2/3 263/2/3
f 263/2/3 538/2/3 261/2/3
f 67/2/3 66/2/3 54/2/3
f 54/2/3 66/2/3 83/2/3
f 75/2/3 74/2/3 80/2/3
f 80/2/3 74/2/3 77/2/3
f 201/9/3 228/9/3 477/9/3
f 477/9/3 228/9/3 508/9/3
f 479/1/3 478/1/3 202/1/3
f 202/1/3 478/1/3 199/1/3
f 480/9/3 527/9/3 200/9/3
f 200/9/3 527/9/3 229/9/3
f 526/11/3 524/11/3 230/11/3
f 230/11/3 524/11/3 227/11/3
f 183/13/3 250/13/3 461/13/3
f 461/13/3 250/13/3 528/13/3
f 176/7/3 175/7/3 184/7/3
f 184/7/3 175/7/3 181/7/3
f 218/2/3 217/2/3 182/2/3
f 182/2/3 217/2/3 251/2/3
f 216/2/3 636/2/3 252/2/3
f 252/2/3 636/2/3 248/2/3
f 266/2/3 265/2/3 540/2/3
f 540/2/3 265/2/3 541/2/3
f 225/13/3 224/13/3 175/13/3
f 175/13/3 224/13/3 636/13/3
f 259/8/3 258/8/3 267/8/3
f 267/8/3 258/8/3 264/8/3
f 345/1/4 365/1/4 378/1/4
f 378/1/4 365/1/4 364/1/4
f 558/1/4 592/1/4 602/1/4
f 602/1/4 592/1/4 591/1/4
f 341/1/4 346/1/4 12/1/4
f 12/1/4 346/1/4 345/1/4
f 12/12/4 345/12/4 27/12/4
f 27/12/4 345/12/4 378/12/4
f 27/1/4 378/1/4 395/1/4
f 395/1/4 378/1/4 377/1/4
f 546/1/4 559/1/4 303/1/4
f 303/1/4 559/1/4 558/1/4
f 556/2/4 637/2/4 638/2/4
f 638/2/4 637/2/4 568/2/4
f 303/12/4 558/12/4 321/12/4
f 321/12/4 558/12/4 602/12/4
f 321/1/4 602/1/4 606/1/4
f 606/1/4 602/1/4 601/1/4
f 349/13/4 9/13/4 359/13/4
f 359/13/4 9/13/4 30/13/4
f 407/13/4 517/13/4 445/13/4
f 445/13/4 517/13/4 453/13/4
f 639/8/4 452/8/4 640/8/4
f 640/8/4 452/8/4 451/8/4
f 490/13/4 454/13/4 491/13/4
f 491/13/4 454/13/4 515/13/4
f 641/13/4 642/13/4 643/13/4
f 643/13/4 642/13/4 513/13/4
f 574/12/4 302/12/4 575/12/4
f 575/12/4 302/12/4 301/12/4
f 644/4/4 583/4/4 645/4/4
f 645/4/4 583/4/4 582/4/4
f 16/13/4 350/13/4 13/13/4
f 13/13/4 350/13/4 349/13/4
f 19/2/4 358/2/4 17/2/4
f 17/2/4 358/2/4 357/2/4
f 18/13/4 359/13/4 31/13/4
f 31/13/4 359/13/4 368/13/4
f 154/2/4 639/2/4 151/2/4
f 151/2/4 639/2/4 640/2/4
f 152/13/4 489/13/4 646/13/4
f 646/13/4 489/13/4 488/13/4
f 647/12/4 641/12/4 648/12/4
f 648/12/4 641/12/4 643/12/4
f 544/2/4 569/2/4 545/2/4
f 545/2/4 569/2/4 637/2/4
f 542/4/4 555/4/4 565/4/4
f 565/4/4 555/4/4 554/4/4
f 566/2/4 557/2/4 567/2/4
f 567/2/4 557/2/4 638/2/4
f 320/12/4 588/12/4 317/12/4
f 317/12/4 588/12/4 587/12/4
f 4/1/4 342/1/4 1/1/4
f 1/1/4 342/1/4 341/1/4
f 1/12/4 341/12/4 354/12/4
f 354/12/4 341/12/4 12/12/4
f 353/13/4 13/13/4 25/13/4
f 25/13/4 13/13/4 18/13/4
f 26/2/4 17/2/4 23/2/4
f 23/2/4 17/2/4 363/2/4
f 40/2/4 20/2/4 37/2/4
f 37/2/4 20/2/4 32/2/4
f 24/12/4 27/12/4 72/12/4
f 72/12/4 27/12/4 395/12/4
f 72/1/4 395/1/4 69/1/4
f 69/1/4 395/1/4 394/1/4
f 90/12/4 408/12/4 87/12/4
f 87/12/4 408/12/4 407/12/4
f 136/13/4 444/13/4 649/13/4
f 649/13/4 444/13/4 443/13/4
f 649/13/4 153/13/4 189/13/4
f 189/13/4 153/13/4 152/13/4
f 190/12/4 151/12/4 187/12/4
f 187/12/4 151/12/4 465/12/4
f 188/13/4 466/13/4 484/13/4
f 484/13/4 466/13/4 646/13/4
f 484/13/4 514/13/4 238/13/4
f 238/13/4 514/13/4 642/13/4
f 238/13/4 647/13/4 235/13/4
f 235/13/4 647/13/4 648/13/4
f 235/12/4 513/12/4 631/12/4
f 631/12/4 513/12/4 609/12/4
f 243/12/4 519/12/4 278/12/4
f 278/12/4 519/12/4 548/12/4
f 293/6/4 543/6/4 290/6/4
f 290/6/4 543/6/4 564/6/4
f 578/12/4 306/12/4 579/12/4
f 579/12/4 306/12/4 305/12/4
f 313/6/4 644/6/4 310/6/4
f 310/6/4 644/6/4 645/6/4
f 597/12/4 321/12/4 340/12/4
f 340/12/4 321/12/4 606/12/4
f 340/1/4 606/1/4 337/1/4
f 337/1/4 606/1/4 605/1/4
f 8/1/4 1/1/4 5/1/4
f 5/1/4 1/1/4 354/1/4
f 5/12/4 354/12/4 43/12/4
f 43/12/4 354/12/4 24/12/4
f 44/2/4 23/2/4 41/2/4
f 41/2/4 23/2/4 371/2/4
f 411/13/4 87/13/4 137/13/4
f 137/13/4 87/13/4 135/13/4
f 161/9/4 134/9/4 207/9/4
f 207/9/4 134/9/4 188/9/4
f 208/12/4 187/12/4 205/12/4
f 205/12/4 187/12/4 483/12/4
f 206/9/4 484/9/4 650/9/4
f 650/9/4 484/9/4 238/9/4
f 651/13/4 237/13/4 652/13/4
f 652/13/4 237/13/4 236/13/4
f 287/1/4 276/1/4 284/1/4
f 284/1/4 276/1/4 577/1/4
f 653/9/4 292/9/4 294/9/4
f 294/9/4 292/9/4 291/9/4
f 284/12/4 577/12/4 336/12/4
f 336/12/4 577/12/4 597/12/4
f 336/1/4 597/1/4 333/1/4
f 333/1/4 597/1/4 340/1/4
f 36/1/4 5/1/4 33/1/4
f 33/1/4 5/1/4 43/1/4
f 654/2/4 41/2/4 404/2/4
f 404/2/4 41/2/4 392/2/4
f 405/13/4 393/13/4 406/13/4
f 406/13/4 393/13/4 411/13/4
f 426/2/4 139/2/4 427/2/4
f 427/2/4 139/2/4 428/2/4
f 169/9/4 137/9/4 166/9/4
f 166/9/4 137/9/4 160/9/4
f 242/9/4 651/9/4 239/9/4
f 239/9/4 651/9/4 652/9/4
f 263/2/4 535/2/4 261/2/4
f 261/2/4 535/2/4 534/2/4
f 271/6/4 653/6/4 268/6/4
f 268/6/4 653/6/4 296/6/4
f 269/6/4 272/6/4 297/6/4
f 297/6/4 272/6/4 295/6/4
f 330/1/4 284/1/4 327/1/4
f 327/1/4 284/1/4 336/1/4
f 374/12/4 33/12/4 375/12/4
f 375/12/4 33/12/4 381/12/4
f 110/2/4 422/2/4 107/2/4
f 107/2/4 422/2/4 421/2/4
f 48/2/4 373/2/4 45/2/4
f 45/2/4 373/2/4 372/2/4
f 45/13/4 654/13/4 655/13/4
f 655/13/4 654/13/4 403/13/4
f 655/13/4 109/13/4 419/13/4
f 419/13/4 109/13/4 116/13/4
f 120/13/4 115/13/4 117/13/4
f 117/13/4 115/13/4 114/13/4
f 656/2/4 159/2/4 657/2/4
f 657/2/4 159/2/4 650/2/4
f 54/2/4 47/2/4 51/2/4
f 51/2/4 47/2/4 46/2/4
f 80/2/4 59/2/4 388/2/4
f 388/2/4 59/2/4 58/2/4
f 64/2/4 390/2/4 61/2/4
f 61/2/4 390/2/4 389/2/4
f 62/2/4 391/2/4 81/2/4
f 81/2/4 391/2/4 94/2/4
f 82/13/4 93/13/4 101/13/4
f 101/13/4 93/13/4 92/13/4
f 102/9/4 91/9/4 99/9/4
f 99/9/4 91/9/4 419/9/4
f 113/9/4 418/9/4 111/9/4
f 111/9/4 418/9/4 417/9/4
f 104/9/4 432/9/4 128/9/4
f 128/9/4 432/9/4 431/9/4
f 133/9/4 436/9/4 131/9/4
f 131/9/4 436/9/4 435/9/4
f 129/9/4 434/9/4 144/9/4
f 144/9/4 434/9/4 438/9/4
f 131/11/4 435/11/4 147/11/4
f 147/11/4 435/11/4 441/11/4
f 144/11/4 438/11/4 149/11/4
f 149/11/4 438/11/4 449/11/4
f 147/5/4 441/5/4 185/5/4
f 185/5/4 441/5/4 463/5/4
f 468/12/4 656/12/4 469/12/4
f 469/12/4 656/12/4 486/12/4
f 149/5/4 449/5/4 203/5/4
f 203/5/4 449/5/4 481/5/4
f 186/5/4 464/5/4 502/5/4
f 502/5/4 464/5/4 485/5/4
f 503/12/4 487/12/4 504/12/4
f 504/12/4 487/12/4 657/12/4
f 658/2/4 239/2/4 659/2/4
f 659/2/4 239/2/4 533/2/4
f 68/2/4 63/2/4 65/2/4
f 65/2/4 63/2/4 62/2/4
f 76/2/4 53/2/4 73/2/4
f 73/2/4 53/2/4 86/2/4
f 194/9/4 467/9/4 219/9/4
f 219/9/4 467/9/4 501/9/4
f 660/9/4 658/9/4 661/9/4
f 661/9/4 658/9/4 659/9/4
f 459/1/4 193/1/4 472/1/4
f 472/1/4 193/1/4 192/1/4
f 470/9/4 191/9/4 510/9/4
f 510/9/4 191/9/4 222/9/4
f 511/11/4 221/11/4 523/11/4
f 523/11/4 221/11/4 220/11/4
f 158/13/4 471/13/4 231/13/4
f 231/13/4 471/13/4 509/13/4
f 165/7/4 157/7/4 162/7/4
f 162/7/4 157/7/4 156/7/4
f 211/2/4 155/2/4 209/2/4
f 209/2/4 155/2/4 234/2/4
f 210/2/4 233/2/4 662/2/4
f 662/2/4 233/2/4 249/2/4
f 226/13/4 162/13/4 223/13/4
f 223/13/4 162/13/4 662/13/4
f 531/8/4 660/8/4 532/8/4
f 532/8/4 660/8/4 661/8/4
f 256/6/4 530/6/4 253/6/4
f 253/6/4 530/6/4 529/6/4
f 260/8/4 255/8/4 257/8/4
f 257/8/4 255/8/4 254/8/4
f 557/4/5 566/4/5 554/4/5
f 554/4/5 566/4/5 565/4/5
f 567/6/5 291/6/5 564/6/5
f 564/6/5 291/6/5 290/6/5
f 583/2/5 663/2/5 568/2/5
f 568/2/5 663/2/5 567/2/5
f 663/9/5 295/9/5 567/9/5
f 567/9/5 295/9/5 294/9/5
f 272/6/5 269/6/5 296/6/5
f 296/6/5 269/6/5 268/6/5
f 464/5/5 186/5/5 463/5/5
f 463/5/5 186/5/5 185/5/5
f 584/4/5 588/4/5 582/4/5
f 582/4/5 588/4/5 645/4/5
f 489/2/5 152/2/5 640/2/5
f 640/2/5 152/2/5 151/2/5
f 466/12/5 188/12/5 465/12/5
f 465/12/5 188/12/5 187/12/5
f 588/6/5 311/6/5 645/6/5
f 645/6/5 311/6/5 310/6/5
f 484/12/5 206/12/5 483/12/5
f 483/12/5 206/12/5 205/12/5
f 312/9/5 630/9/5 313/9/5
f 313/9/5 630/9/5 295/9/5
f 630/6/5 298/6/5 295/6/5
f 295/6/5 298/6/5 297/6/5
f 391/2/5 62/2/5 389/2/5
f 389/2/5 62/2/5 61/2/5
f 420/9/5 112/9/5 417/9/5
f 417/9/5 112/9/5 111/9/5
f 487/5/5 503/5/5 485/5/5
f 485/5/5 503/5/5 502/5/5
f 504/9/5 220/9/5 501/9/5
f 501/9/5 220/9/5 219/9/5
f 221/9/5 511/9/5 222/9/5
f 222/9/5 511/9/5 510/9/5
f 233/2/5 210/2/5 234/2/5
f 234/2/5 210/2/5 209/2/5
f 454/8/5 490/8/5 451/8/5
f 451/8/5 490/8/5 640/8/5
f 324/12/5 589/12/5 585/12/5
f 585/12/5 589/12/5 588/12/5
f 359/2/5 18/2/5 357/2/5
f 357/2/5 18/2/5 17/2/5
f 590/12/5 318/12/5 587/12/5
f 587/12/5 318/12/5 317/12/5
f 31/2/5 24/2/5 363/2/5
f 363/2/5 24/2/5 23/2/5
f 319/12/5 314/12/5 320/12/5
f 320/12/5 314/12/5 311/12/5
f 72/2/5 42/2/5 371/2/5
f 371/2/5 42/2/5 41/2/5
f 237/9/5 651/9/5 238/9/5
f 238/9/5 651/9/5 650/9/5
f 393/2/5 405/2/5 392/2/5
f 392/2/5 405/2/5 404/2/5
f 423/2/5 114/2/5 421/2/5
f 421/2/5 114/2/5 107/2/5
f 115/13/5 120/13/5 116/13/5
f 116/13/5 120/13/5 419/13/5
f 651/2/5 664/2/5 650/2/5
f 650/2/5 664/2/5 657/2/5
f 93/2/5 82/2/5 94/2/5
f 94/2/5 82/2/5 81/2/5
f 120/9/5 100/9/5 419/9/5
f 419/9/5 100/9/5 99/9/5
f 83/2/5 66/2/5 62/2/5
f 62/2/5 66/2/5 65/2/5
f 665/13/5 666/13/5 509/13/5
f 509/13/5 666/13/5 231/13/5
f 532/6/5 254/6/5 529/6/5
f 529/6/5 254/6/5 253/6/5
f 535/9/5 263/9/5 652/9/5
f 652/9/5 263/9/5 239/9/5
f 261/2/5 538/2/5 533/2/5
f 533/2/5 538/2/5 659/2/5
f 538/9/5 667/9/5 659/9/5
f 659/9/5 667/9/5 661/9/5
f 667/8/5 258/8/5 661/8/5
f 661/8/5 258/8/5 257/8/5
f 367/1/5 379/1/5 364/1/5
f 364/1/5 379/1/5 378/1/5
f 594/1/5 603/1/5 591/1/5
f 591/1/5 603/1/5 602/1/5
f 380/1/5 396/1/5 377/1/5
f 377/1/5 396/1/5 395/1/5
f 604/1/5 607/1/5 601/1/5
f 601/1/5 607/1/5 606/1/5
f 11/12/5 351/12/5 12/12/5
f 12/12/5 351/12/5 350/12/5
f 29/13/5 360/13/5 30/13/5
f 30/13/5 360/13/5 359/13/5
f 302/12/5 574/12/5 303/12/5
f 303/12/5 574/12/5 573/12/5
f 323/13/5 595/13/5 324/13/5
f 324/13/5 595/13/5 589/13/5
f 15/12/5 355/12/5 16/12/5
f 16/12/5 355/12/5 354/12/5
f 20/13/5 40/13/5 18/13/5
f 18/13/5 40/13/5 25/13/5
f 397/1/5 70/1/5 394/1/5
f 394/1/5 70/1/5 69/1/5
f 306/12/5 578/12/5 307/12/5
f 307/12/5 578/12/5 577/12/5
f 326/13/5 315/13/5 319/13/5
f 319/13/5 315/13/5 314/13/5
f 608/1/5 338/1/5 605/1/5
f 605/1/5 338/1/5 337/1/5
f 71/1/5 49/1/5 72/1/5
f 72/1/5 49/1/5 42/1/5
f 519/13/5 536/13/5 516/13/5
f 516/13/5 536/13/5 652/13/5
f 339/1/5 334/1/5 340/1/5
f 340/1/5 334/1/5 333/1/5
f 50/1/5 34/1/5 43/1/5
f 43/1/5 34/1/5 33/1/5
f 139/13/5 426/13/5 140/13/5
f 140/13/5 426/13/5 425/13/5
f 537/2/5 262/2/5 534/2/5
f 534/2/5 262/2/5 261/2/5
f 335/1/5 328/1/5 336/1/5
f 336/1/5 328/1/5 327/1/5
f 427/13/5 118/13/5 424/13/5
f 424/13/5 118/13/5 117/13/5
f 119/13/5 103/13/5 120/13/5
f 120/13/5 103/13/5 100/13/5
f 541/2/5 265/2/5 538/2/5
f 538/2/5 265/2/5 264/2/5
f 586/12/5 599/12/5 323/12/5
f 323/12/5 599/12/5 595/12/5
f 362/2/5 21/2/5 360/2/5
f 360/2/5 21/2/5 20/2/5
f 600/12/5 331/12/5 596/12/5
f 596/12/5 331/12/5 325/12/5
f 370/2/5 38/2/5 32/2/5
f 32/2/5 38/2/5 37/2/5
f 332/12/5 316/12/5 326/12/5
f 326/12/5 316/12/5 315/12/5
f 383/2/5 55/2/5 71/2/5
f 71/2/5 55/2/5 49/2/5
f 245/9/5 628/9/5 246/9/5
f 246/9/5 628/9/5 629/9/5
f 399/2/5 415/2/5 398/2/5
f 398/2/5 415/2/5 414/2/5
f 628/2/5 668/2/5 629/2/5
f 629/2/5 668/2/5 241/2/5
f 123/13/5 432/13/5 124/13/5
f 124/13/5 432/13/5 119/13/5
f 668/2/5 635/2/5 242/2/5
f 242/2/5 635/2/5 664/2/5
f 97/2/5 85/2/5 98/2/5
f 98/2/5 85/2/5 84/2/5
f 432/9/5 104/9/5 119/9/5
f 119/9/5 104/9/5 103/9/5
f 635/12/5 505/12/5 657/12/5
f 657/12/5 505/12/5 504/12/5
f 77/2/5 74/2/5 86/2/5
f 86/2/5 74/2/5 73/2/5
f 505/11/5 524/11/5 504/11/5
f 504/11/5 524/11/5 523/11/5
f 248/2/5 636/2/5 249/2/5
f 249/2/5 636/2/5 662/2/5
f 636/13/5 224/13/5 662/13/5
f 662/13/5 224/13/5 223/13/5
f 458/8/5 612/8/5 455/8/5
f 455/8/5 612/8/5 493/8/5
f 581/5/5 619/5/5 580/5/5
f 580/5/5 619/5/5 669/5/5
f 612/2/5 178/2/5 494/2/5
f 494/2/5 178/2/5 177/2/5
f 619/10/5 626/10/5 669/10/5
f 669/10/5 626/10/5 670/10/5
f 474/12/5 196/12/5 473/12/5
f 473/12/5 196/12/5 195/12/5
f 626/5/5 309/5/5 670/5/5
f 670/5/5 309/5/5 308/5/5
f 497/12/5 213/12/5 496/12/5
f 496/12/5 213/12/5 212/12/5
f 430/2/5 125/2/5 428/2/5
f 428/2/5 125/2/5 121/2/5
f 402/2/5 78/2/5 400/2/5
f 400/2/5 78/2/5 77/2/5
f 434/9/5 129/9/5 431/9/5
f 431/9/5 129/9/5 128/9/5
f 500/5/5 507/5/5 498/5/5
f 498/5/5 507/5/5 506/5/5
f 508/9/5 228/9/5 505/9/5
f 505/9/5 228/9/5 227/9/5
f 229/9/5 527/9/5 230/9/5
f 230/9/5 527/9/5 526/9/5
f 528/13/5 250/13/5 672/13/5
f 672/13/5 250/13/5 671/13/5
f 251/2/5 217/2/5 252/2/5
f 252/2/5 217/2/5 216/2/5
f 482/5/5 204/5/5 481/5/5
f 481/5/5 204/5/5 203/5/5
f 556/4/6 555/4/6 545/4/6
f 545/4/6 555/4/6 542/4/6
f 544/6/6 543/6/6 292/6/6
f 292/6/6 543/6/6 293/6/6
f 275/6/6 653/6/6 270/6/6
f 270/6/6 653/6/6 271/6/6
f 417/9/6 436/9/6 111/9/6
f 111/9/6 436/9/6 133/9/6
f 443/2/6 639/2/6 153/2/6
f 153/2/6 639/2/6 154/2/6
f 570/2/6 569/2/6 673/2/6
f 673/2/6 569/2/6 544/2/6
f 152/12/6 151/12/6 189/12/6
f 189/12/6 151/12/6 190/12/6
f 188/12/6 187/12/6 207/12/6
f 207/12/6 187/12/6 208/12/6
f 673/9/6 544/9/6 274/9/6
f 274/9/6 544/9/6 653/9/6
f 273/6/6 272/6/6 299/6/6
f 299/6/6 272/6/6 269/6/6
f 403/2/6 674/2/6 109/2/6
f 109/2/6 674/2/6 110/2/6
f 48/2/6 390/2/6 63/2/6
f 63/2/6 390/2/6 64/2/6
f 419/9/6 418/9/6 99/9/6
f 99/9/6 418/9/6 113/9/6
f 486/5/6 464/5/6 469/5/6
f 469/5/6 464/5/6 186/5/6
f 468/9/6 467/9/6 193/9/6
f 193/9/6 467/9/6 194/9/6
f 192/9/6 191/9/6 472/9/6
f 472/9/6 191/9/6 470/9/6
f 156/2/6 155/2/6 162/2/6
f 162/2/6 155/2/6 211/2/6
f 453/8/6 452/8/6 445/8/6
f 445/8/6 452/8/6 639/8/6
f 515/13/6 514/13/6 491/13/6
f 491/13/6 514/13/6 488/13/6
f 349/2/6 358/2/6 13/2/6
f 13/2/6 358/2/6 19/2/6
f 18/2/6 17/2/6 25/2/6
f 25/2/6 17/2/6 26/2/6
f 407/13/6 444/13/6 87/13/6
f 87/13/6 444/13/6 136/13/6
f 24/2/6 23/2/6 43/2/6
f 43/2/6 23/2/6 44/2/6
f 135/9/6 134/9/6 137/9/6
f 137/9/6 134/9/6 161/9/6
f 42/2/6 41/2/6 381/2/6
f 381/2/6 41/2/6 654/2/6
f 411/2/6 422/2/6 406/2/6
f 406/2/6 422/2/6 674/2/6
f 381/13/6 654/13/6 375/13/6
f 375/13/6 654/13/6 372/13/6
f 374/2/6 373/2/6 47/2/6
f 47/2/6 373/2/6 48/2/6
f 160/2/6 159/2/6 675/2/6
f 675/2/6 159/2/6 656/2/6
f 46/5/6 45/5/6 51/5/6
f 51/5/6 45/5/6 376/5/6
f 92/9/6 91/9/6 101/9/6
f 101/9/6 91/9/6 102/9/6
f 675/12/6 656/12/6 676/12/6
f 676/12/6 656/12/6 468/12/6
f 54/2/6 63/2/6 67/2/6
f 67/2/6 63/2/6 68/2/6
f 677/1/6 193/1/6 678/1/6
f 678/1/6 193/1/6 459/1/6
f 679/7/6 157/7/6 164/7/6
f 164/7/6 157/7/6 165/7/6
f 531/6/6 530/6/6 255/6/6
f 255/6/6 530/6/6 256/6/6
f 263/2/6 239/2/6 539/2/6
f 539/2/6 239/2/6 658/2/6
f 680/11/6 468/11/6 681/11/6
f 681/11/6 468/11/6 193/11/6
f 539/9/6 658/9/6 682/9/6
f 682/9/6 658/9/6 660/9/6
f 682/8/6 660/8/6 683/8/6
f 683/8/6 660/8/6 665/8/6
f 684/8/6 666/8/6 259/8/6
f 259/8/6 666/8/6 260/8/6
f 366/1/6 365/1/6 348/1/6
f 348/1/6 365/1/6 345/1/6
f 593/1/6 592/1/6 561/1/6
f 561/1/6 592/1/6 558/1/6
f 347/1/6 346/1/6 344/1/6
f 344/1/6 346/1/6 341/1/6
f 560/1/6 559/1/6 549/1/6
f 549/1/6 559/1/6 546/1/6
f 10/13/6 9/13/6 352/13/6
f 352/13/6 9/13/6 349/13/6
f 28/12/6 27/12/6 369/12/6
f 369/12/6 27/12/6 368/12/6
f 518/13/6 517/13/6 410/13/6
f 410/13/6 517/13/6 407/13/6
f 301/13/6 300/13/6 575/13/6
f 575/13/6 300/13/6 572/13/6
f 322/12/6 321/12/6 596/12/6
f 596/12/6 321/12/6 590/12/6
f 343/1/6 342/1/6 3/1/6
f 3/1/6 342/1/6 4/1/6
f 14/13/6 13/13/6 356/13/6
f 356/13/6 13/13/6 353/13/6
f 32/12/6 31/12/6 37/12/6
f 37/12/6 31/12/6 24/12/6
f 409/12/6 408/12/6 89/12/6
f 89/12/6 408/12/6 90/12/6
f 548/1/6 547/1/6 278/1/6
f 278/1/6 547/1/6 279/1/6
f 305/13/6 304/13/6 579/13/6
f 579/13/6 304/13/6 576/13/6
f 325/12/6 318/12/6 598/12/6
f 598/12/6 318/12/6 597/12/6
f 2/1/6 1/1/6 7/1/6
f 7/1/6 1/1/6 8/1/6
f 88/13/6 87/13/6 412/13/6
f 412/13/6 87/13/6 411/13/6
f 277/1/6 276/1/6 286/1/6
f 286/1/6 276/1/6 287/1/6
f 6/1/6 5/1/6 35/1/6
f 35/1/6 5/1/6 36/1/6
f 49/13/6 42/13/6 382/13/6
f 382/13/6 42/13/6 381/13/6
f 138/9/6 137/9/6 168/9/6
f 168/9/6 137/9/6 169/9/6
f 285/1/6 284/1/6 329/1/6
f 329/1/6 284/1/6 330/1/6
f 34/12/6 33/12/6 60/12/6
f 60/12/6 33/12/6 47/12/6
f 167/12/6 166/12/6 685/12/6
f 685/12/6 166/12/6 675/12/6
f 60/2/6 47/2/6 53/2/6
f 53/2/6 47/2/6 54/2/6
f 685/5/6 675/5/6 686/5/6
f 686/5/6 675/5/6 676/5/6
f 687/11/6 677/11/6 688/11/6
f 688/11/6 677/11/6 678/11/6
f 540/2/6 539/2/6 672/2/6
f 672/2/6 539/2/6 683/2/6
f 689/2/6 679/2/6 171/2/6
f 171/2/6 679/2/6 164/2/6
f 671/2/6 684/2/6 266/2/6
f 266/2/6 684/2/6 267/2/6
f 521/13/6 520/13/6 495/13/6
f 495/13/6 520/13/6 492/13/6
f 361/2/6 352/2/6 22/2/6
f 22/2/6 352/2/6 14/2/6
f 21/2/6 20/2/6 39/2/6
f 39/2/6 20/2/6 40/2/6
f 447/13/6 410/13/6 143/13/6
f 143/13/6 410/13/6 88/13/6
f 38/2/6 37/2/6 56/2/6
f 56/2/6 37/2/6 50/2/6
f 142/9/6 141/9/6 174/9/6
f 174/9/6 141/9/6 138/9/6
f 55/2/6 49/2/6 632/2/6
f 632/2/6 49/2/6 382/2/6
f 632/13/6 382/13/6 387/13/6
f 387/13/6 382/13/6 384/13/6
f 386/2/6 385/2/6 59/2/6
f 59/2/6 385/2/6 60/2/6
f 173/2/6 172/2/6 634/2/6
f 634/2/6 172/2/6 685/2/6
f 58/5/6 57/5/6 388/5/6
f 388/5/6 57/5/6 52/5/6
f 96/9/6 95/9/6 105/9/6
f 105/9/6 95/9/6 106/9/6
f 634/12/6 685/12/6 476/12/6
f 476/12/6 685/12/6 686/12/6
f 80/2/6 53/2/6 75/2/6
f 75/2/6 53/2/6 76/2/6
f 476/3/6 680/3/6 202/3/6
f 202/3/6 680/3/6 681/3/6
f 202/1/6 687/1/6 479/1/6
f 479/1/6 687/1/6 688/1/6
f 184/7/6 689/7/6 176/7/6
f 176/7/6 689/7/6 171/7/6
f 175/13/6 162/13/6 225/13/6
f 225/13/6 162/13/6 226/13/6
f 457/8/6 456/8/6 611/8/6
f 611/8/6 456/8/6 446/8/6
f 552/5/6 551/5/6 616/5/6
f 616/5/6 551/5/6 690/5/6
f 611/2/6 448/2/6 179/2/6
f 179/2/6 448/2/6 180/2/6
f 616/10/6 690/10/6 623/10/6
f 623/10/6 690/10/6 691/10/6
f 178/12/6 177/12/6 197/12/6
f 197/12/6 177/12/6 198/12/6
f 623/5/6 691/5/6 282/5/6
f 282/5/6 691/5/6 283/5/6
f 196/12/6 195/12/6 214/12/6
f 214/12/6 195/12/6 215/12/6
f 429/2/6 412/2/6 692/2/6
f 692/2/6 412/2/6 413/2/6
f 692/2/6 416/2/6 126/2/6
f 126/2/6 416/2/6 127/2/6
f 401/2/6 59/2/6 79/2/6
f 79/2/6 59/2/6 80/2/6
f 433/9/6 432/9/6 130/9/6
f 130/9/6 432/9/6 104/9/6
f 481/5/6 499/5/6 203/5/6
f 203/5/6 499/5/6 475/5/6
f 477/9/6 476/9/6 201/9/6
f 201/9/6 476/9/6 202/9/6
f 200/9/6 199/9/6 480/9/6
f 480/9/6 199/9/6 478/9/6
f 461/13/6 471/13/6 183/13/6
f 183/13/6 471/13/6 158/13/6
f 182/2/6 181/2/6 218/2/6
f 218/2/6 181/2/6 175/2/6
f 439/9/6 434/9/6 146/9/6
f 146/9/6 434/9/6 129/9/6
