# Vengi binary mesh normalized for Tanks of Freedom II

mtllib ../../materials/vox_building.mtl
o scout_heli

v 0.2 0.7 1
v 0.1 0.7 1
v 0.1 0.7 1.4
v 0.2 0.7 1.4
v 0.1 0.8 1
v -0.1 0.8 1
v -0.1 0.8 1.1
v 0.1 0.8 1.1
v -0.1 0.7 1
v -0.2 0.7 1
v -0.2 0.7 1.4
v -0.1 0.7 1.4
v 0.3 0.8 0.9
v 0.2 0.8 0.9
v 0.2 0.8 1
v 0.3 0.8 1
v 0.1 0.8 0.9
v 0.1 0.9 0.9
v -0.1 0.9 0.9
v -0.1 0.9 1
v 0.1 0.9 1
v -0.1 0.8 0.9
v -0.2 0.8 0.9
v -0.2 0.8 1
v -0.3 0.8 0.9
v -0.3 0.8 1
v 0.4 0.3 0.8
v 0.3 0.3 0.8
v 0.3 0.3 0.9
v 0.4 0.3 0.9
v 0.3 0.8 0.8
v 0.2 0.8 0.8
v 0.3 1.3 0.8
v 0.2 1.3 0.8
v 0.2 1.3 0.9
v 0.3 1.3 0.9
v 0.2 0.5 0.8
v 0.1 0.5 0.8
v 0.1 0.5 0.9
v 0.2 0.5 0.9
v 0.2 1.4 0.8
v 0.1 1.4 0.8
v 0.1 1.4 0.9
v 0.2 1.4 0.9
v 0.1 0.6 0.8
v -0.1 0.6 0.8
v -0.1 0.6 0.9
v 0.1 0.6 0.9
v -0.1 1.4 0.8
v -0.1 1.4 0.9
v -0.1 0.5 0.8
v -0.2 0.5 0.8
v -0.2 0.5 0.9
v -0.1 0.5 0.9
v -0.2 1.4 0.8
v -0.2 1.4 0.9
v -0.2 0.8 0.8
v -0.3 0.8 0.8
v -0.2 1.3 0.8
v -0.3 1.3 0.8
v -0.3 1.3 0.9
v -0.2 1.3 0.9
v -0.3 0.3 0.8
v -0.4 0.3 0.8
v -0.4 0.3 0.9
v -0.3 0.3 0.9
v 0.4 0.4 0.7
v 0.3 0.4 0.7
v 0.3 0.4 0.8
v 0.4 0.4 0.8
v 0.3 0.3 0.7
v 0.2 0.3 0.7
v 0.2 0.3 0.8
v 0.3 0.9 0.7
v 0.2 0.9 0.7
v 0.2 0.9 0.8
v 0.3 0.9 0.8
v 0.3 1.1 0.7
v 0.2 1.1 0.7
v 0.2 1.1 0.8
v 0.3 1.1 0.8
v -0.2 0.3 0.7
v -0.3 0.3 0.7
v -0.2 0.3 0.8
v -0.2 0.9 0.7
v -0.3 0.9 0.7
v -0.3 0.9 0.8
v -0.2 0.9 0.8
v -0.2 1.1 0.7
v -0.3 1.1 0.7
v -0.3 1.1 0.8
v -0.2 1.1 0.8
v -0.3 0.4 0.7
v -0.4 0.4 0.7
v -0.4 0.4 0.8
v -0.3 0.4 0.8
v 0.4 0.5 0.6
v 0.3 0.5 0.6
v 0.3 0.5 0.7
v 0.4 0.5 0.7
v 0.3 1.4 0.6
v 0.2 1.4 0.6
v 0.3 1.4 0.8
v -0.2 1.4 0.6
v -0.3 1.4 0.6
v -0.3 1.4 0.8
v -0.3 0.5 0.6
v -0.4 0.5 0.6
v -0.4 0.5 0.7
v -0.3 0.5 0.7
v 0.4 0.4 0.5
v 0.3 0.4 0.5
v 0.3 0.4 0.6
v 0.4 0.4 0.6
v 0.3 0.3 0.5
v 0.2 0.3 0.5
v 0.2 0.3 0.6
v 0.3 0.3 0.6
v 0.3 1.1 0.5
v 0.2 1.1 0.5
v 0.2 1.1 0.6
v 0.3 1.1 0.6
v 0.2 1.7 0.5
v -0.2 1.7 0.5
v -0.2 1.7 0.8
v 0.2 1.7 0.8
v -0.2 0.3 0.5
v -0.3 0.3 0.5
v -0.3 0.3 0.6
v -0.2 0.3 0.6
v -0.2 1.1 0.5
v -0.3 1.1 0.5
v -0.3 1.1 0.6
v -0.2 1.1 0.6
v -0.3 0.4 0.5
v -0.4 0.4 0.5
v -0.4 0.4 0.6
v -0.3 0.4 0.6
v 0.4 0.3 0.4
v 0.3 0.3 0.4
v 0.4 0.3 0.5
v 0.3 1.3 0.4
v 0.2 1.3 0.4
v 0.2 1.3 0.6
v 0.3 1.3 0.6
v 0.2 1 0.4
v 0.1 1 0.4
v 0.1 1 0.5
v 0.2 1 0.5
v 0.1 1.1 0.4
v -0.1 1.1 0.4
v -0.1 1.1 0.5
v 0.1 1.1 0.5
v -0.1 1 0.4
v -0.2 1 0.4
v -0.2 1 0.5
v -0.1 1 0.5
v -0.2 1.3 0.4
v -0.2 1.3 0.5
v 0.2 1.3 0.5
v -0.3 1.3 0.4
v -0.3 1.3 0.6
v -0.2 1.3 0.6
v -0.3 0.3 0.4
v -0.4 0.3 0.4
v -0.4 0.3 0.5
v 0.2 0.7 0.3
v 0.1 0.7 0.3
v 0.1 0.7 0.4
v 0.2 0.7 0.4
v 0.1 0.9 0.3
v -0.1 0.9 0.3
v -0.1 0.9 0.4
v 0.1 0.9 0.4
v -0.1 0.7 0.3
v -0.2 0.7 0.3
v -0.2 0.7 0.4
v -0.1 0.7 0.4
v 0.2 0.8 0.2
v 0.1 0.8 0.2
v 0.1 0.8 0.3
v 0.2 0.8 0.3
v 0.1 1.2 0.2
v -0.1 1.2 0.2
v -0.1 1.2 0.3
v 0.1 1.2 0.3
v -0.1 0.8 0.2
v -0.2 0.8 0.2
v -0.2 0.8 0.3
v -0.1 0.8 0.3
v 0.2 1.2 0.1
v 0.1 1.2 0.1
v 0.2 1.2 0.2
v 0.1 0.2 0.1
v -0.1 0.2 0.1
v -0.1 0.2 0.2
v 0.1 0.2 0.2
v -0.1 1.2 0.1
v -0.2 1.2 0.1
v -0.2 1.2 0.2
v 0.2 1.2 0
v 0.1 1.2 0
v 0.1 0.1 0
v -0.1 0.1 0
v -0.1 0.1 0.1
v 0.1 0.1 0.1
v 0.1 1.3 0
v -0.1 1.3 0
v -0.1 1.3 0.2
v 0.1 1.3 0.2
v -0.1 1.2 0
v -0.2 1.2 0
v 0.1 1.2 -0.1
v -0.1 1.2 -0.1
v 0.2 0.7 -0.2
v 0.1 0.7 -0.2
v 0.1 0.7 0
v 0.2 0.7 0
v -0.1 0.7 -0.2
v -0.2 0.7 -0.2
v -0.2 0.7 0
v -0.1 0.7 0
v 0.2 0.8 -0.4
v 0.1 0.8 -0.4
v 0.1 0.8 -0.2
v 0.2 0.8 -0.2
v 0.2 1 -0.4
v 0.1 1 -0.4
v 0.1 1 0
v 0.2 1 0
v -0.1 0.8 -0.4
v -0.2 0.8 -0.4
v -0.2 0.8 -0.2
v -0.1 0.8 -0.2
v -0.1 1 -0.4
v -0.2 1 -0.4
v -0.2 1 0
v -0.1 1 0
v 0.1 1 -0.6
v -0.1 1 -0.6
v 0.2 1 -0.7
v 0.1 1 -0.7
v 0.2 1 -0.6
v 0.1 1.1 -0.7
v 0 1.1 -0.7
v 0 1.1 -0.6
v 0.1 1.1 -0.6
v -0.1 1 -0.7
v -0.2 1 -0.7
v -0.2 1 -0.6
v 0.3 1 -0.8
v 0.2 1 -0.8
v 0.3 1 -0.7
v 0.1 1.2 -0.8
v 0 1.2 -0.8
v 0 1.2 -0.7
v 0.1 1.2 -0.7
v 0 1 -0.8
v -0.1 1 -0.8
v 0 1 -0.6
v -0.2 1 -0.8
v -0.3 1 -0.8
v -0.3 1 -0.7
v 0.2 1 -0.9
v 0.1 1 -0.9
v 0 0.9 -0.9
v -0.1 0.9 -0.9
v -0.1 0.9 -0.8
v 0 0.9 -0.8
v -0.1 1 -0.9
v -0.2 1 -0.9
v 0.4 1 -1
v 0.3 1 -1
v 0.4 1 -0.8
v 0.2 1 -1
v 0.1 1.3 -1
v 0 1.3 -1
v 0 1.3 -0.8
v 0.1 1.3 -0.8
v 0 0.8 -1
v -0.1 0.8 -1
v -0.1 0.8 -0.9
v 0 0.8 -0.9
v -0.2 1 -1
v -0.3 1 -1
v -0.4 1 -1
v -0.4 1 -0.8
v 0.1 0.5 1
v 0.1 0.5 1.1
v -0.1 0.5 1.1
v -0.1 0.5 1
v 0.3 0.7 0.9
v 0.3 0.7 1
v 0.2 0.7 0.9
v 0.2 0.6 0.9
v 0.2 0.6 1.4
v 0.1 0.6 1.4
v 0.1 0.4 0.9
v 0.1 0.4 1
v -0.1 0.4 1
v -0.1 0.4 0.9
v -0.1 0.6 1.4
v -0.2 0.6 1.4
v -0.2 0.6 0.9
v -0.2 0.7 0.9
v -0.3 0.7 1
v -0.3 0.7 0.9
v 0.4 0.2 0.8
v 0.4 0.2 0.9
v 0.3 0.2 0.9
v 0.3 0.2 0.8
v 0.3 0.7 0.8
v 0.2 0.7 0.8
v 0.2 0.2 0.8
v 0.2 0.2 0.9
v -0.2 0.2 0.9
v -0.2 0.2 0.8
v -0.2 0.7 0.8
v -0.3 0.7 0.8
v 0.2 1.2 0.8
v 0.2 1.2 0.9
v -0.3 1.2 0.9
v -0.3 1.2 0.8
v -0.3 0.2 0.8
v -0.3 0.2 0.9
v -0.4 0.2 0.9
v -0.4 0.2 0.8
v 0.4 0.1 0.7
v 0.4 0.1 0.8
v 0.3 0.1 0.8
v 0.3 0.1 0.7
v 0.3 0.2 0.7
v 0.2 0.2 0.7
v 0.3 0.8 0.7
v 0.2 0.8 0.7
v 0.3 1 0.7
v 0.3 1 0.8
v 0.2 1 0.8
v 0.2 1 0.7
v 0.3 1.2 0.7
v 0.3 1.2 0.9
v 0.2 1.2 0.7
v 0.2 0.5 0.7
v 0.1 0.5 0.7
v -0.1 0.5 0.7
v -0.2 0.5 0.7
v -0.2 0.2 0.7
v -0.3 0.2 0.7
v -0.2 0.8 0.7
v -0.3 0.8 0.7
v -0.2 1 0.7
v -0.2 1 0.8
v -0.3 1 0.8
v -0.3 1 0.7
v -0.2 1.2 0.7
v -0.2 1.2 0.8
v -0.3 1.2 0.7
v -0.3 0.1 0.7
v -0.3 0.1 0.8
v -0.4 0.1 0.8
v -0.4 0.1 0.7
v 0.4 0 0.6
v 0.4 0 0.7
v 0.3 0 0.7
v 0.3 0 0.6
v 0.3 0.9 0.6
v 0.2 0.9 0.6
v 0.2 0.5 0.6
v 0.1 0.5 0.6
v -0.1 0.5 0.6
v -0.2 0.5 0.6
v -0.2 0.9 0.6
v -0.3 0.9 0.6
v -0.3 0 0.6
v -0.3 0 0.7
v -0.4 0 0.7
v -0.4 0 0.6
v 0.4 0.1 0.5
v 0.4 0.1 0.6
v 0.3 0.1 0.6
v 0.3 0.1 0.5
v 0.3 0.2 0.5
v 0.3 0.2 0.6
v 0.2 0.2 0.6
v 0.2 0.2 0.5
v 0.3 1 0.5
v 0.3 1 0.6
v 0.2 1 0.6
v 0.1 0.3 0.6
v 0.1 0.3 0.5
v -0.1 0.3 0.5
v -0.1 0.3 0.6
v -0.2 0.2 0.5
v -0.2 0.2 0.6
v -0.3 0.2 0.6
v -0.3 0.2 0.5
v -0.2 1 0.6
v -0.3 1 0.6
v -0.3 1 0.5
v -0.3 0.1 0.5
v -0.3 0.1 0.6
v -0.4 0.1 0.6
v -0.4 0.1 0.5
v 0.4 0.2 0.4
v 0.4 0.2 0.5
v 0.3 0.2 0.4
v 0.3 1.2 0.4
v 0.3 1.2 0.6
v 0.2 1.2 0.6
v 0.2 1.2 0.4
v 0.2 1.2 0.5
v -0.2 1.2 0.5
v -0.2 1.2 0.4
v -0.2 1.2 0.6
v -0.3 1.2 0.6
v -0.3 1.2 0.4
v -0.3 0.2 0.4
v -0.4 0.2 0.5
v -0.4 0.2 0.4
v 0.1 0.3 0.3
v 0.1 0.3 0.8
v -0.1 0.3 0.8
v -0.1 0.3 0.3
v 0.2 0.4 0.2
v 0.2 0.4 0.5
v 0.1 0.4 0.5
v 0.1 0.4 0.2
v 0.1 0.2 0.3
v -0.1 0.2 0.3
v -0.1 0.4 0.2
v -0.1 0.4 0.5
v -0.2 0.4 0.5
v -0.2 0.4 0.2
v 0.2 0.5 0.1
v 0.2 0.5 0.2
v 0.1 0.5 0.2
v 0.1 0.5 0.1
v 0.1 0.1 0.2
v -0.1 0.1 0.2
v 0.1 0.4 0.1
v -0.1 0.4 0.1
v -0.1 0.5 0.1
v -0.1 0.5 0.2
v -0.2 0.5 0.2
v -0.2 0.5 0.1
v 0.1 0 0
v 0.1 0 0.1
v -0.1 0 0.1
v -0.1 0 0
v 0.1 0.5 0
v -0.1 0.5 0
v 0.1 0.6 -0.1
v 0.1 0.6 0
v -0.1 0.6 0
v -0.1 0.6 -0.1
v 0.2 0.6 -0.2
v 0.2 0.6 0.1
v 0.1 0.6 0.1
v 0.1 0.6 -0.2
v -0.1 0.6 -0.2
v -0.1 0.6 0.1
v -0.2 0.6 0.1
v -0.2 0.6 -0.2
v 0.2 0.7 -0.4
v 0.1 0.7 -0.4
v 0.2 0.9 -0.4
v 0.2 0.9 0
v 0.1 0.9 0
v 0.1 0.9 -0.4
v -0.1 0.7 -0.4
v -0.2 0.7 -0.4
v -0.1 0.9 -0.4
v -0.1 0.9 0
v -0.2 0.9 0
v -0.2 0.9 -0.4
v 0.1 0.8 -0.6
v -0.1 0.8 -0.6
v 0.2 0.9 -0.7
v 0.2 0.9 -0.6
v 0.1 0.9 -0.6
v 0.1 0.9 -0.7
v 0 0.8 -0.7
v 0 0.8 -0.6
v -0.1 0.8 -0.7
v -0.1 0.9 -0.7
v -0.1 0.9 -0.6
v -0.2 0.9 -0.6
v -0.2 0.9 -0.7
v 0.3 0.9 -0.8
v 0.3 0.9 -0.7
v 0.2 0.9 -0.8
v 0.1 0.9 -0.8
v 0 0.9 -0.6
v 0 0.7 -0.8
v 0 0.7 -0.7
v -0.1 0.7 -0.7
v -0.1 0.7 -0.8
v -0.2 0.9 -0.8
v -0.3 0.9 -0.7
v -0.3 0.9 -0.8
v 0.2 0.9 -0.9
v 0.1 0.9 -0.9
v 0.1 1 -0.8
v 0 1 -0.9
v -0.2 0.9 -0.9
v 0.4 0.9 -1
v 0.4 0.9 -0.8
v 0.3 0.9 -1
v 0.2 0.9 -1
v 0.1 1.1 -1
v 0.1 1.1 -0.9
v 0 1.1 -0.9
v 0 1.1 -1
v 0 0.6 -1
v 0 0.6 -0.8
v -0.1 0.6 -0.8
v -0.1 0.6 -1
v -0.2 0.9 -1
v -0.3 0.9 -1
v -0.4 0.9 -0.8
v -0.4 0.9 -1
v -0.4 0.2 0.7
v -0.4 0.2 0.6
v -0.2 0.3 0.9
v -0.4 0.3 0.7
v -0.4 0.3 0.6
v -0.1 0.3 0.2
v -0.2 0.4 0.9
v -0.2 0.4 0.8
v -0.2 0.4 0.6
v -0.1 0.6 1.1
v -0.1 0.6 1
v -0.2 0.6 0.8
v -0.2 0.6 0.7
v -0.2 0.6 0.4
v -0.2 0.5 0.4
v 0.1 0.7 1.1
v 0.1 0.6 1.1
v -0.2 0.7 0.2
v -0.2 0.7 0.1
v 0.1 0.7 -0.1
v -0.1 0.7 -1
v -0.1 0.7 1.1
v -0.2 0.8 0.5
v -0.2 0.6 0.5
v -0.2 0.8 0.1
v -0.1 0.8 -0.8
v -0.1 0.7 -0.9
v -0.2 0.9 0.5
v -0.1 0.9 -0.1
v -0.1 0.7 -0.1
v 0.1 1 -0.1
v 0.1 0.9 -0.1
v 0 1 -0.7
v -0.1 1 -0.1
v 0 1.1 -0.8
v 0 1.2 -1
v -0.2 1.4 0.5
v 0.4 0.2 0.7
v 0.4 0.2 0.6
v 0.2 0.3 0.9
v 0.4 0.3 0.7
v 0.4 0.3 0.6
v 0.1 0.3 0.2
v 0.2 0.4 0.9
v 0.2 0.4 0.8
v 0.2 0.4 0.6
v 0.1 0.6 1
v 0.2 0.6 0.8
v 0.2 0.6 0.7
v 0.2 0.5 0.4
v 0.2 0.6 0.4
v 0.2 0.7 0.2
v 0.2 0.7 0.1
v 0 0.7 -1
v 0.2 0.6 0.5
v 0.2 0.8 0.5
v 0.2 0.8 0.1
v 0 0.8 -0.8
v 0 0.7 -0.9
v 0.2 0.9 0.5
v 0 0.9 -0.7
v 0.1 1.1 -0.8
v 0.1 1.2 -1
v 0.2 1.4 0.5
v 0.1 0.4 0.8
v 0.1 0.7 0.9
v 0.1 1.2 0.5
v -0.1 0.4 0.8
v -0.1 0.7 0.9
v -0.2 0.9 0.4
v 0.1 0.3 0.9
v 0.1 0.4 0.6
v 0.1 0.9 0.8
v 0.1 1 0.8
v 0.1 1.1 0.8
v 0.1 1.2 0.8
v 0.1 1.3 0.9
v 0 1 0.8
v 0 1.1 0.8
v -0.1 0.3 0.9
v -0.1 0.9 0.8
v -0.1 1 0.8
v -0.1 1.1 0.8
v -0.1 1.2 0.8
v -0.1 1.3 0.9
v -0.1 0.4 0.6

vt 0.00195313 0.5
vt 0.00585938 0.5
vt 0.0136719 0.5
vt 0.0292969 0.5
vt 0.0527344 0.5
vt 0.0605469 0.5
vt 0.0683594 0.5
vt 0.0839844 0.5
vt 0.123047 0.5
vt 0.158203 0.5
vt 0.162109 0.5

vn 0 1 0
vn 0 -1 0
vn -1 0 0
vn 1 0 0
vn 0 0 -1
vn 0 0 1

usemtl palette
f 1/7/1 2/7/1 4/7/1
f 4/7/1 2/7/1 3/7/1
f 5/11/1 6/11/1 8/11/1
f 8/11/1 6/11/1 7/11/1
f 9/7/1 10/7/1 12/7/1
f 12/7/1 10/7/1 11/7/1
f 13/9/1 14/9/1 16/9/1
f 16/9/1 14/9/1 15/9/1
f 14/8/1 17/8/1 15/8/1
f 15/8/1 17/8/1 5/8/1
f 18/6/1 19/6/1 21/6/1
f 21/6/1 19/6/1 20/6/1
f 22/8/1 23/8/1 6/8/1
f 6/8/1 23/8/1 24/8/1
f 23/9/1 25/9/1 24/9/1
f 24/9/1 25/9/1 26/9/1
f 27/1/1 28/1/1 30/1/1
f 30/1/1 28/1/1 29/1/1
f 31/4/1 32/4/1 13/4/1
f 13/4/1 32/4/1 14/4/1
f 33/11/1 34/11/1 36/11/1
f 36/11/1 34/11/1 35/11/1
f 37/10/1 38/10/1 40/10/1
f 40/10/1 38/10/1 39/10/1
f 41/5/1 42/5/1 44/5/1
f 44/5/1 42/5/1 43/5/1
f 45/11/1 46/11/1 48/11/1
f 48/11/1 46/11/1 47/11/1
f 42/2/1 49/2/1 43/2/1
f 43/2/1 49/2/1 50/2/1
f 51/10/1 52/10/1 54/10/1
f 54/10/1 52/10/1 53/10/1
f 49/5/1 55/5/1 50/5/1
f 50/5/1 55/5/1 56/5/1
f 57/4/1 58/4/1 23/4/1
f 23/4/1 58/4/1 25/4/1
f 59/11/1 60/11/1 62/11/1
f 62/11/1 60/11/1 61/11/1
f 63/1/1 64/1/1 66/1/1
f 66/1/1 64/1/1 65/1/1
f 67/1/1 68/1/1 70/1/1
f 70/1/1 68/1/1 69/1/1
f 71/8/1 72/8/1 28/8/1
f 28/8/1 72/8/1 73/8/1
f 74/4/1 75/4/1 77/4/1
f 77/4/1 75/4/1 76/4/1
f 78/8/1 79/8/1 81/8/1
f 81/8/1 79/8/1 80/8/1
f 82/8/1 83/8/1 84/8/1
f 84/8/1 83/8/1 63/8/1
f 85/4/1 86/4/1 88/4/1
f 88/4/1 86/4/1 87/4/1
f 89/8/1 90/8/1 92/8/1
f 92/8/1 90/8/1 91/8/1
f 93/1/1 94/1/1 96/1/1
f 96/1/1 94/1/1 95/1/1
f 97/1/1 98/1/1 100/1/1
f 100/1/1 98/1/1 99/1/1
f 101/2/1 102/2/1 103/2/1
f 103/2/1 102/2/1 41/2/1
f 104/2/1 105/2/1 55/2/1
f 55/2/1 105/2/1 106/2/1
f 107/1/1 108/1/1 110/1/1
f 110/1/1 108/1/1 109/1/1
f 111/1/1 112/1/1 114/1/1
f 114/1/1 112/1/1 113/1/1
f 115/8/1 116/8/1 118/8/1
f 118/8/1 116/8/1 117/8/1
f 119/8/1 120/8/1 122/8/1
f 122/8/1 120/8/1 121/8/1
f 123/11/1 124/11/1 126/11/1
f 126/11/1 124/11/1 125/11/1
f 127/8/1 128/8/1 130/8/1
f 130/8/1 128/8/1 129/8/1
f 131/8/1 132/8/1 134/8/1
f 134/8/1 132/8/1 133/8/1
f 135/1/1 136/1/1 138/1/1
f 138/1/1 136/1/1 137/1/1
f 139/1/1 140/1/1 141/1/1
f 141/1/1 140/1/1 115/1/1
f 142/11/1 143/11/1 145/11/1
f 145/11/1 143/11/1 144/11/1
f 146/8/1 147/8/1 149/8/1
f 149/8/1 147/8/1 148/8/1
f 150/8/1 151/8/1 153/8/1
f 153/8/1 151/8/1 152/8/1
f 154/8/1 155/8/1 157/8/1
f 157/8/1 155/8/1 156/8/1
f 143/11/1 158/11/1 160/11/1
f 160/11/1 158/11/1 159/11/1
f 158/11/1 161/11/1 163/11/1
f 163/11/1 161/11/1 162/11/1
f 164/1/1 165/1/1 128/1/1
f 128/1/1 165/1/1 166/1/1
f 167/11/1 168/11/1 170/11/1
f 170/11/1 168/11/1 169/11/1
f 171/10/1 172/10/1 174/10/1
f 174/10/1 172/10/1 173/10/1
f 175/11/1 176/11/1 178/11/1
f 178/11/1 176/11/1 177/11/1
f 179/11/1 180/11/1 182/11/1
f 182/11/1 180/11/1 181/11/1
f 183/10/1 184/10/1 186/10/1
f 186/10/1 184/10/1 185/10/1
f 187/11/1 188/11/1 190/11/1
f 190/11/1 188/11/1 189/11/1
f 191/11/1 192/11/1 193/11/1
f 193/11/1 192/11/1 183/11/1
f 194/8/1 195/8/1 197/8/1
f 197/8/1 195/8/1 196/8/1
f 198/11/1 199/11/1 184/11/1
f 184/11/1 199/11/1 200/11/1
f 201/10/1 202/10/1 191/10/1
f 191/10/1 202/10/1 192/10/1
f 203/8/1 204/8/1 206/8/1
f 206/8/1 204/8/1 205/8/1
f 207/10/1 208/10/1 210/10/1
f 210/10/1 208/10/1 209/10/1
f 211/10/1 212/10/1 198/10/1
f 198/10/1 212/10/1 199/10/1
f 213/11/1 214/11/1 202/11/1
f 202/11/1 214/11/1 211/11/1
f 215/8/1 216/8/1 218/8/1
f 218/8/1 216/8/1 217/8/1
f 219/8/1 220/8/1 222/8/1
f 222/8/1 220/8/1 221/8/1
f 223/8/1 224/8/1 226/8/1
f 226/8/1 224/8/1 225/8/1
f 227/8/1 228/8/1 230/8/1
f 230/8/1 228/8/1 229/8/1
f 231/8/1 232/8/1 234/8/1
f 234/8/1 232/8/1 233/8/1
f 235/8/1 236/8/1 238/8/1
f 238/8/1 236/8/1 237/8/1
f 239/8/1 240/8/1 228/8/1
f 228/8/1 240/8/1 235/8/1
f 241/10/1 242/10/1 243/10/1
f 243/10/1 242/10/1 239/10/1
f 244/10/1 245/10/1 247/10/1
f 247/10/1 245/10/1 246/10/1
f 248/10/1 249/10/1 240/10/1
f 240/10/1 249/10/1 250/10/1
f 251/10/1 252/10/1 253/10/1
f 253/10/1 252/10/1 241/10/1
f 254/10/1 255/10/1 257/10/1
f 257/10/1 255/10/1 256/10/1
f 258/8/1 259/8/1 260/8/1
f 260/8/1 259/8/1 240/8/1
f 261/10/1 262/10/1 249/10/1
f 249/10/1 262/10/1 263/10/1
f 264/11/1 265/11/1 241/11/1
f 241/11/1 265/11/1 242/11/1
f 266/11/1 267/11/1 269/11/1
f 269/11/1 267/11/1 268/11/1
f 270/11/1 271/11/1 248/11/1
f 248/11/1 271/11/1 249/11/1
f 272/10/1 273/10/1 274/10/1
f 274/10/1 273/10/1 251/10/1
f 273/11/1 275/11/1 251/11/1
f 251/11/1 275/11/1 252/11/1
f 276/10/1 277/10/1 279/10/1
f 279/10/1 277/10/1 278/10/1
f 280/11/1 281/11/1 283/11/1
f 283/11/1 281/11/1 282/11/1
f 284/11/1 285/11/1 261/11/1
f 261/11/1 285/11/1 262/11/1
f 285/10/1 286/10/1 262/10/1
f 262/10/1 286/10/1 287/10/1
f 288/11/2 289/11/2 291/11/2
f 291/11/2 289/11/2 290/11/2
f 292/9/2 293/9/2 294/9/2
f 294/9/2 293/9/2 1/9/2
f 295/7/2 296/7/2 48/7/2
f 48/7/2 296/7/2 297/7/2
f 298/11/2 299/11/2 301/11/2
f 301/11/2 299/11/2 300/11/2
f 47/7/2 302/7/2 304/7/2
f 304/7/2 302/7/2 303/7/2
f 305/9/2 10/9/2 307/9/2
f 307/9/2 10/9/2 306/9/2
f 308/1/2 309/1/2 311/1/2
f 311/1/2 309/1/2 310/1/2
f 312/4/2 292/4/2 313/4/2
f 313/4/2 292/4/2 294/4/2
f 314/8/2 315/8/2 317/8/2
f 317/8/2 315/8/2 316/8/2
f 318/4/2 305/4/2 319/4/2
f 319/4/2 305/4/2 307/4/2
f 320/11/2 321/11/2 323/11/2
f 323/11/2 321/11/2 322/11/2
f 324/1/2 325/1/2 327/1/2
f 327/1/2 325/1/2 326/1/2
f 328/1/2 329/1/2 331/1/2
f 331/1/2 329/1/2 330/1/2
f 332/8/2 311/8/2 333/8/2
f 333/8/2 311/8/2 314/8/2
f 334/4/2 31/4/2 335/4/2
f 335/4/2 31/4/2 32/4/2
f 336/8/2 337/8/2 339/8/2
f 339/8/2 337/8/2 338/8/2
f 340/11/2 341/11/2 342/11/2
f 342/11/2 341/11/2 321/11/2
f 343/10/2 37/10/2 344/10/2
f 344/10/2 37/10/2 38/10/2
f 345/10/2 51/10/2 346/10/2
f 346/10/2 51/10/2 52/10/2
f 347/8/2 317/8/2 348/8/2
f 348/8/2 317/8/2 324/8/2
f 349/4/2 57/4/2 350/4/2
f 350/4/2 57/4/2 58/4/2
f 351/8/2 352/8/2 354/8/2
f 354/8/2 352/8/2 353/8/2
f 355/11/2 356/11/2 357/11/2
f 357/11/2 356/11/2 323/11/2
f 358/1/2 359/1/2 361/1/2
f 361/1/2 359/1/2 360/1/2
f 362/1/2 363/1/2 365/1/2
f 365/1/2 363/1/2 364/1/2
f 366/4/2 74/4/2 367/4/2
f 367/4/2 74/4/2 75/4/2
f 368/8/2 343/8/2 369/8/2
f 369/8/2 343/8/2 344/8/2
f 370/8/2 345/8/2 371/8/2
f 371/8/2 345/8/2 346/8/2
f 372/4/2 85/4/2 373/4/2
f 373/4/2 85/4/2 86/4/2
f 374/1/2 375/1/2 377/1/2
f 377/1/2 375/1/2 376/1/2
f 378/1/2 379/1/2 381/1/2
f 381/1/2 379/1/2 380/1/2
f 382/8/2 383/8/2 385/8/2
f 385/8/2 383/8/2 384/8/2
f 386/8/2 387/8/2 149/8/2
f 149/8/2 387/8/2 388/8/2
f 116/8/2 117/8/2 390/8/2
f 390/8/2 117/8/2 389/8/2
f 391/8/2 392/8/2 127/8/2
f 127/8/2 392/8/2 130/8/2
f 393/8/2 394/8/2 396/8/2
f 396/8/2 394/8/2 395/8/2
f 156/8/2 397/8/2 399/8/2
f 399/8/2 397/8/2 398/8/2
f 400/1/2 401/1/2 403/1/2
f 403/1/2 401/1/2 402/1/2
f 404/1/2 405/1/2 406/1/2
f 406/1/2 405/1/2 382/1/2
f 407/11/2 408/11/2 410/11/2
f 410/11/2 408/11/2 409/11/2
f 410/11/2 411/11/2 413/11/2
f 413/11/2 411/11/2 412/11/2
f 413/11/2 414/11/2 416/11/2
f 416/11/2 414/11/2 415/11/2
f 417/1/2 396/1/2 419/1/2
f 419/1/2 396/1/2 418/1/2
f 420/11/2 421/11/2 423/11/2
f 423/11/2 421/11/2 422/11/2
f 424/10/2 425/10/2 427/10/2
f 427/10/2 425/10/2 426/10/2
f 197/8/2 428/8/2 196/8/2
f 196/8/2 428/8/2 429/8/2
f 430/10/2 431/10/2 433/10/2
f 433/10/2 431/10/2 432/10/2
f 434/10/2 435/10/2 437/10/2
f 437/10/2 435/10/2 436/10/2
f 206/8/2 438/8/2 205/8/2
f 205/8/2 438/8/2 439/8/2
f 440/11/2 427/11/2 441/11/2
f 441/11/2 427/11/2 430/11/2
f 442/10/2 443/10/2 445/10/2
f 445/10/2 443/10/2 444/10/2
f 446/8/2 447/8/2 449/8/2
f 449/8/2 447/8/2 448/8/2
f 450/11/2 437/11/2 451/11/2
f 451/11/2 437/11/2 442/11/2
f 452/11/2 453/11/2 455/11/2
f 455/11/2 453/11/2 454/11/2
f 456/8/2 457/8/2 459/8/2
f 459/8/2 457/8/2 458/8/2
f 460/8/2 461/8/2 463/8/2
f 463/8/2 461/8/2 462/8/2
f 464/8/2 215/8/2 465/8/2
f 465/8/2 215/8/2 216/8/2
f 466/8/2 467/8/2 469/8/2
f 469/8/2 467/8/2 468/8/2
f 470/8/2 219/8/2 471/8/2
f 471/8/2 219/8/2 220/8/2
f 472/8/2 473/8/2 475/8/2
f 475/8/2 473/8/2 474/8/2
f 476/8/2 224/8/2 477/8/2
f 477/8/2 224/8/2 231/8/2
f 478/10/2 479/10/2 481/10/2
f 481/10/2 479/10/2 480/10/2
f 482/10/2 483/10/2 484/10/2
f 484/10/2 483/10/2 477/10/2
f 485/10/2 486/10/2 488/10/2
f 488/10/2 486/10/2 487/10/2
f 489/10/2 490/10/2 491/10/2
f 491/10/2 490/10/2 478/10/2
f 492/8/2 480/8/2 269/8/2
f 269/8/2 480/8/2 493/8/2
f 494/10/2 495/10/2 497/10/2
f 497/10/2 495/10/2 496/10/2
f 498/10/2 488/10/2 500/10/2
f 500/10/2 488/10/2 499/10/2
f 501/11/2 478/11/2 502/11/2
f 502/11/2 478/11/2 481/11/2
f 265/11/2 503/11/2 504/11/2
f 504/11/2 503/11/2 258/11/2
f 267/11/2 485/11/2 505/11/2
f 505/11/2 485/11/2 488/11/2
f 506/10/2 507/10/2 508/10/2
f 508/10/2 507/10/2 489/10/2
f 508/11/2 489/11/2 509/11/2
f 509/11/2 489/11/2 491/11/2
f 510/11/2 511/11/2 513/11/2
f 513/11/2 511/11/2 512/11/2
f 514/10/2 515/10/2 517/10/2
f 517/10/2 515/10/2 516/10/2
f 518/11/2 498/11/2 519/11/2
f 519/11/2 498/11/2 500/11/2
f 519/10/2 500/10/2 521/10/2
f 521/10/2 500/10/2 520/10/2
f 331/1/3 380/1/3 364/1/3
f 364/1/3 380/1/3 365/1/3
f 361/1/3 402/1/3 376/1/3
f 376/1/3 402/1/3 377/1/3
f 205/8/3 204/8/3 448/8/3
f 448/8/3 204/8/3 449/8/3
f 311/1/3 332/1/3 330/1/3
f 330/1/3 332/1/3 331/1/3
f 327/1/3 522/1/3 360/1/3
f 360/1/3 522/1/3 361/1/3
f 383/1/3 382/1/3 380/1/3
f 380/1/3 382/1/3 381/1/3
f 523/1/3 418/1/3 402/1/3
f 402/1/3 418/1/3 403/1/3
f 196/8/3 195/8/3 439/8/3
f 439/8/3 195/8/3 205/8/3
f 29/1/3 28/1/3 310/1/3
f 310/1/3 28/1/3 311/1/3
f 524/8/3 84/8/3 316/8/3
f 316/8/3 84/8/3 317/8/3
f 65/1/3 64/1/3 326/1/3
f 326/1/3 64/1/3 327/1/3
f 73/8/3 72/8/3 314/8/3
f 314/8/3 72/8/3 333/8/3
f 64/2/3 525/2/3 327/2/3
f 327/2/3 525/2/3 522/2/3
f 117/8/3 116/8/3 384/8/3
f 384/8/3 116/8/3 385/8/3
f 526/2/3 166/2/3 523/2/3
f 523/2/3 166/2/3 418/2/3
f 115/1/3 140/1/3 382/1/3
f 382/1/3 140/1/3 406/1/3
f 166/1/3 165/1/3 418/1/3
f 418/1/3 165/1/3 419/1/3
f 423/8/3 527/8/3 429/8/3
f 429/8/3 527/8/3 196/8/3
f 528/2/3 529/2/3 524/2/3
f 524/2/3 529/2/3 84/2/3
f 69/1/3 68/1/3 28/1/3
f 28/1/3 68/1/3 71/1/3
f 95/1/3 94/1/3 64/1/3
f 64/1/3 94/1/3 525/1/3
f 68/2/3 113/2/3 331/2/3
f 331/2/3 113/2/3 380/2/3
f 94/2/3 137/2/3 361/2/3
f 361/2/3 137/2/3 402/2/3
f 113/1/3 112/1/3 118/1/3
f 118/1/3 112/1/3 115/1/3
f 530/8/3 432/8/3 130/8/3
f 130/8/3 432/8/3 127/8/3
f 137/1/3 136/1/3 526/1/3
f 526/1/3 136/1/3 166/1/3
f 431/11/3 430/11/3 391/11/3
f 391/11/3 430/11/3 527/11/3
f 53/10/3 52/10/3 528/10/3
f 528/10/3 52/10/3 529/10/3
f 99/1/3 98/1/3 68/1/3
f 68/1/3 98/1/3 113/1/3
f 51/11/3 370/11/3 422/11/3
f 422/11/3 370/11/3 392/11/3
f 109/1/3 108/1/3 94/1/3
f 94/1/3 108/1/3 137/1/3
f 371/10/3 444/10/3 530/10/3
f 530/10/3 444/10/3 433/10/3
f 443/11/3 442/11/3 430/11/3
f 430/11/3 442/11/3 441/11/3
f 531/11/3 532/11/3 290/11/3
f 290/11/3 532/11/3 291/11/3
f 532/11/3 47/11/3 300/11/3
f 300/11/3 47/11/3 301/11/3
f 47/11/3 46/11/3 54/11/3
f 54/11/3 46/11/3 51/11/3
f 533/10/3 534/10/3 52/10/3
f 52/10/3 534/10/3 346/10/3
f 534/8/3 535/8/3 346/8/3
f 346/8/3 535/8/3 536/8/3
f 461/11/3 454/11/3 442/11/3
f 442/11/3 454/11/3 451/11/3
f 3/7/3 537/7/3 297/7/3
f 297/7/3 537/7/3 538/7/3
f 11/7/3 305/7/3 303/7/3
f 303/7/3 305/7/3 304/7/3
f 177/11/3 539/11/3 536/11/3
f 536/11/3 539/11/3 444/11/3
f 539/10/3 540/10/3 444/10/3
f 444/10/3 540/10/3 445/10/3
f 541/8/3 216/8/3 452/8/3
f 452/8/3 216/8/3 459/8/3
f 540/8/3 220/8/3 462/8/3
f 462/8/3 220/8/3 463/8/3
f 497/10/3 542/10/3 516/10/3
f 516/10/3 542/10/3 517/10/3
f 7/11/3 6/11/3 543/11/3
f 543/11/3 6/11/3 9/11/3
f 26/9/3 25/9/3 306/9/3
f 306/9/3 25/9/3 307/9/3
f 14/4/3 32/4/3 294/4/3
f 294/4/3 32/4/3 313/4/3
f 25/4/3 58/4/3 307/4/3
f 307/4/3 58/4/3 319/4/3
f 57/2/3 544/2/3 533/2/3
f 533/2/3 544/2/3 545/2/3
f 189/11/3 546/11/3 176/11/3
f 176/11/3 546/11/3 540/11/3
f 225/8/3 224/8/3 216/8/3
f 216/8/3 224/8/3 465/8/3
f 233/8/3 232/8/3 220/8/3
f 220/8/3 232/8/3 471/8/3
f 484/10/3 547/10/3 496/10/3
f 496/10/3 547/10/3 497/10/3
f 282/11/3 281/11/3 548/11/3
f 548/11/3 281/11/3 542/11/3
f 20/6/3 19/6/3 6/6/3
f 6/6/3 19/6/3 22/6/3
f 87/4/3 86/4/3 58/4/3
f 58/4/3 86/4/3 350/4/3
f 85/2/3 549/2/3 349/2/3
f 349/2/3 549/2/3 544/2/3
f 173/10/3 172/10/3 178/10/3
f 178/10/3 172/10/3 175/10/3
f 473/11/3 550/11/3 222/11/3
f 222/11/3 550/11/3 551/11/3
f 486/10/3 485/10/3 477/10/3
f 477/10/3 485/10/3 484/10/3
f 485/11/3 268/11/3 484/11/3
f 484/11/3 268/11/3 547/11/3
f 268/11/3 267/11/3 497/11/3
f 497/11/3 267/11/3 548/11/3
f 352/10/3 351/10/3 88/10/3
f 88/10/3 351/10/3 85/10/3
f 354/4/3 398/4/3 86/4/3
f 86/4/3 398/4/3 373/4/3
f 397/10/3 156/10/3 372/10/3
f 372/10/3 156/10/3 549/10/3
f 156/8/3 155/8/3 545/8/3
f 545/8/3 155/8/3 535/8/3
f 552/8/3 228/8/3 553/8/3
f 553/8/3 228/8/3 469/8/3
f 237/8/3 236/8/3 474/8/3
f 474/8/3 236/8/3 475/8/3
f 235/8/3 240/8/3 231/8/3
f 231/8/3 240/8/3 477/8/3
f 250/10/3 249/10/3 487/10/3
f 487/10/3 249/10/3 488/10/3
f 263/10/3 262/10/3 499/10/3
f 499/10/3 262/10/3 500/10/3
f 503/11/3 265/11/3 492/11/3
f 492/11/3 265/11/3 502/11/3
f 264/11/3 275/11/3 501/11/3
f 501/11/3 275/11/3 509/11/3
f 287/10/3 286/10/3 520/10/3
f 520/10/3 286/10/3 521/10/3
f 91/8/3 132/8/3 353/8/3
f 353/8/3 132/8/3 399/8/3
f 152/8/3 151/8/3 157/8/3
f 157/8/3 151/8/3 154/8/3
f 246/10/3 245/10/3 260/10/3
f 260/10/3 245/10/3 554/10/3
f 245/11/3 512/11/3 554/11/3
f 554/11/3 512/11/3 504/11/3
f 356/1/3 355/1/3 92/1/3
f 92/1/3 355/1/3 89/1/3
f 357/8/3 415/8/3 90/8/3
f 90/8/3 415/8/3 133/8/3
f 414/9/3 412/9/3 134/9/3
f 134/9/3 412/9/3 131/9/3
f 185/10/3 184/10/3 190/10/3
f 190/10/3 184/10/3 187/10/3
f 200/11/3 199/11/3 188/11/3
f 188/11/3 199/11/3 546/11/3
f 199/10/3 212/10/3 540/10/3
f 540/10/3 212/10/3 221/10/3
f 211/11/3 214/11/3 238/11/3
f 238/11/3 214/11/3 555/11/3
f 256/10/3 255/10/3 245/10/3
f 245/10/3 255/10/3 556/10/3
f 255/11/3 557/11/3 556/11/3
f 556/11/3 557/11/3 513/11/3
f 61/11/3 161/11/3 322/11/3
f 322/11/3 161/11/3 416/11/3
f 209/10/3 208/10/3 184/10/3
f 184/10/3 208/10/3 211/10/3
f 278/10/3 277/10/3 255/10/3
f 255/10/3 277/10/3 557/10/3
f 56/5/3 55/5/3 62/5/3
f 62/5/3 55/5/3 59/5/3
f 106/2/3 105/2/3 60/2/3
f 60/2/3 105/2/3 162/2/3
f 104/2/3 558/2/3 163/2/3
f 163/2/3 558/2/3 159/2/3
f 125/11/3 124/11/3 55/11/3
f 55/11/3 124/11/3 558/11/3
f 328/1/4 363/1/4 379/1/4
f 379/1/4 363/1/4 362/1/4
f 358/1/4 375/1/4 401/1/4
f 401/1/4 375/1/4 374/1/4
f 206/8/4 447/8/4 203/8/4
f 203/8/4 447/8/4 446/8/4
f 308/1/4 329/1/4 559/1/4
f 559/1/4 329/1/4 328/1/4
f 324/1/4 359/1/4 348/1/4
f 348/1/4 359/1/4 358/1/4
f 560/1/4 379/1/4 405/1/4
f 405/1/4 379/1/4 378/1/4
f 395/1/4 401/1/4 396/1/4
f 396/1/4 401/1/4 400/1/4
f 197/8/4 438/8/4 194/8/4
f 194/8/4 438/8/4 206/8/4
f 30/1/4 309/1/4 27/1/4
f 27/1/4 309/1/4 308/1/4
f 561/8/4 315/8/4 73/8/4
f 73/8/4 315/8/4 314/8/4
f 66/1/4 325/1/4 63/1/4
f 63/1/4 325/1/4 324/1/4
f 27/2/4 308/2/4 562/2/4
f 562/2/4 308/2/4 559/2/4
f 84/8/4 317/8/4 82/8/4
f 82/8/4 317/8/4 347/8/4
f 563/2/4 560/2/4 141/2/4
f 141/2/4 560/2/4 405/2/4
f 130/8/4 394/8/4 127/8/4
f 127/8/4 394/8/4 393/8/4
f 141/1/4 405/1/4 139/1/4
f 139/1/4 405/1/4 404/1/4
f 128/1/4 396/1/4 164/1/4
f 164/1/4 396/1/4 417/1/4
f 420/8/4 428/8/4 564/8/4
f 564/8/4 428/8/4 197/8/4
f 565/2/4 561/2/4 566/2/4
f 566/2/4 561/2/4 73/2/4
f 70/1/4 27/1/4 67/1/4
f 67/1/4 27/1/4 562/1/4
f 96/1/4 63/1/4 93/1/4
f 93/1/4 63/1/4 83/1/4
f 67/2/4 328/2/4 114/2/4
f 114/2/4 328/2/4 379/2/4
f 93/2/4 358/2/4 138/2/4
f 138/2/4 358/2/4 401/2/4
f 114/1/4 563/1/4 111/1/4
f 111/1/4 563/1/4 141/1/4
f 567/8/4 117/8/4 425/8/4
f 425/8/4 117/8/4 116/8/4
f 138/1/4 129/1/4 135/1/4
f 135/1/4 129/1/4 128/1/4
f 426/11/4 390/11/4 427/11/4
f 427/11/4 390/11/4 564/11/4
f 40/10/4 565/10/4 37/10/4
f 37/10/4 565/10/4 566/10/4
f 100/1/4 67/1/4 97/1/4
f 97/1/4 67/1/4 114/1/4
f 38/11/4 421/11/4 369/11/4
f 369/11/4 421/11/4 389/11/4
f 110/1/4 93/1/4 107/1/4
f 107/1/4 93/1/4 138/1/4
f 368/10/4 567/10/4 435/10/4
f 435/10/4 567/10/4 424/10/4
f 436/11/4 427/11/4 437/11/4
f 437/11/4 427/11/4 440/11/4
f 538/11/4 289/11/4 568/11/4
f 568/11/4 289/11/4 288/11/4
f 568/11/4 299/11/4 48/11/4
f 48/11/4 299/11/4 298/11/4
f 48/11/4 39/11/4 45/11/4
f 45/11/4 39/11/4 38/11/4
f 569/10/4 37/10/4 570/10/4
f 570/10/4 37/10/4 343/10/4
f 570/8/4 343/8/4 572/8/4
f 572/8/4 343/8/4 571/8/4
f 458/11/4 437/11/4 453/11/4
f 453/11/4 437/11/4 450/11/4
f 12/7/4 302/7/4 543/7/4
f 543/7/4 302/7/4 531/7/4
f 4/7/4 296/7/4 294/7/4
f 294/7/4 296/7/4 295/7/4
f 170/11/4 571/11/4 573/11/4
f 573/11/4 571/11/4 435/11/4
f 573/10/4 435/10/4 574/10/4
f 574/10/4 435/10/4 434/10/4
f 574/8/4 457/8/4 215/8/4
f 215/8/4 457/8/4 456/8/4
f 551/8/4 455/8/4 219/8/4
f 219/8/4 455/8/4 460/8/4
f 494/10/4 515/10/4 575/10/4
f 575/10/4 515/10/4 514/10/4
f 8/11/4 537/11/4 5/11/4
f 5/11/4 537/11/4 2/11/4
f 16/9/4 293/9/4 13/9/4
f 13/9/4 293/9/4 292/9/4
f 13/4/4 292/4/4 31/4/4
f 31/4/4 292/4/4 312/4/4
f 23/4/4 305/4/4 57/4/4
f 57/4/4 305/4/4 318/4/4
f 32/2/4 569/2/4 577/2/4
f 577/2/4 569/2/4 576/2/4
f 182/11/4 167/11/4 578/11/4
f 578/11/4 167/11/4 574/11/4
f 226/8/4 215/8/4 223/8/4
f 223/8/4 215/8/4 464/8/4
f 234/8/4 219/8/4 231/8/4
f 231/8/4 219/8/4 470/8/4
f 482/10/4 495/10/4 579/10/4
f 579/10/4 495/10/4 494/10/4
f 283/11/4 580/11/4 280/11/4
f 280/11/4 580/11/4 575/11/4
f 21/6/4 5/6/4 18/6/4
f 18/6/4 5/6/4 17/6/4
f 77/4/4 31/4/4 74/4/4
f 74/4/4 31/4/4 334/4/4
f 75/2/4 335/2/4 581/2/4
f 581/2/4 335/2/4 577/2/4
f 174/10/4 169/10/4 171/10/4
f 171/10/4 169/10/4 168/10/4
f 468/11/4 217/11/4 553/11/4
f 553/11/4 217/11/4 541/11/4
f 493/10/4 483/10/4 582/10/4
f 582/10/4 483/10/4 482/10/4
f 582/11/4 482/11/4 269/11/4
f 269/11/4 482/11/4 579/11/4
f 269/11/4 494/11/4 266/11/4
f 266/11/4 494/11/4 580/11/4
f 338/10/4 76/10/4 339/10/4
f 339/10/4 76/10/4 75/10/4
f 336/4/4 74/4/4 387/4/4
f 387/4/4 74/4/4 366/4/4
f 388/10/4 367/10/4 149/10/4
f 149/10/4 367/10/4 581/10/4
f 149/8/4 576/8/4 146/8/4
f 146/8/4 576/8/4 572/8/4
f 230/8/4 467/8/4 227/8/4
f 227/8/4 467/8/4 466/8/4
f 555/8/4 550/8/4 235/8/4
f 235/8/4 550/8/4 472/8/4
f 228/8/4 224/8/4 239/8/4
f 239/8/4 224/8/4 476/8/4
f 243/10/4 479/10/4 241/10/4
f 241/10/4 479/10/4 478/10/4
f 253/10/4 490/10/4 251/10/4
f 251/10/4 490/10/4 489/10/4
f 259/11/4 268/11/4 270/11/4
f 270/11/4 268/11/4 267/11/4
f 274/10/4 507/10/4 272/10/4
f 272/10/4 507/10/4 506/10/4
f 271/11/4 505/11/4 284/11/4
f 284/11/4 505/11/4 518/11/4
f 81/8/4 337/8/4 119/8/4
f 119/8/4 337/8/4 386/8/4
f 153/8/4 148/8/4 150/8/4
f 150/8/4 148/8/4 147/8/4
f 247/10/4 239/10/4 244/10/4
f 244/10/4 239/10/4 242/10/4
f 244/11/4 242/11/4 511/11/4
f 511/11/4 242/11/4 265/11/4
f 320/1/4 80/1/4 342/1/4
f 342/1/4 80/1/4 79/1/4
f 340/8/4 78/8/4 408/8/4
f 408/8/4 78/8/4 122/8/4
f 409/9/4 121/9/4 411/9/4
f 411/9/4 121/9/4 120/9/4
f 186/10/4 181/10/4 183/10/4
f 183/10/4 181/10/4 180/10/4
f 193/11/4 179/11/4 191/11/4
f 191/11/4 179/11/4 578/11/4
f 191/10/4 574/10/4 201/10/4
f 201/10/4 574/10/4 218/10/4
f 202/11/4 229/11/4 213/11/4
f 213/11/4 229/11/4 552/11/4
f 257/10/4 244/10/4 254/10/4
f 254/10/4 244/10/4 583/10/4
f 254/11/4 583/11/4 584/11/4
f 584/11/4 583/11/4 510/11/4
f 36/11/4 341/11/4 142/11/4
f 142/11/4 341/11/4 407/11/4
f 210/10/4 183/10/4 207/10/4
f 207/10/4 183/10/4 202/10/4
f 279/10/4 254/10/4 276/10/4
f 276/10/4 254/10/4 584/10/4
f 44/5/4 35/5/4 41/5/4
f 41/5/4 35/5/4 34/5/4
f 103/2/4 33/2/4 101/2/4
f 101/2/4 33/2/4 145/2/4
f 102/2/4 144/2/4 585/2/4
f 585/2/4 144/2/4 160/2/4
f 126/11/4 41/11/4 123/11/4
f 123/11/4 41/11/4 585/11/4
f 365/1/5 380/1/5 362/1/5
f 362/1/5 380/1/5 379/1/5
f 381/1/5 382/1/5 378/1/5
f 378/1/5 382/1/5 405/1/5
f 406/1/5 140/1/5 404/1/5
f 404/1/5 140/1/5 139/1/5
f 115/1/5 112/1/5 141/1/5
f 141/1/5 112/1/5 111/1/5
f 113/1/5 98/1/5 114/1/5
f 114/1/5 98/1/5 97/1/5
f 508/10/5 273/10/5 506/10/5
f 506/10/5 273/10/5 272/10/5
f 333/8/5 72/8/5 332/8/5
f 332/8/5 72/8/5 71/8/5
f 385/8/5 116/8/5 382/8/5
f 382/8/5 116/8/5 115/8/5
f 313/4/5 32/4/5 312/4/5
f 312/4/5 32/4/5 31/4/5
f 335/4/5 75/4/5 334/4/5
f 334/4/5 75/4/5 74/4/5
f 367/4/5 388/4/5 366/4/5
f 366/4/5 388/4/5 387/4/5
f 509/11/5 275/11/5 508/11/5
f 508/11/5 275/11/5 273/11/5
f 149/8/5 120/8/5 386/8/5
f 386/8/5 120/8/5 119/8/5
f 121/8/5 409/8/5 122/8/5
f 122/8/5 409/8/5 408/8/5
f 144/2/5 102/2/5 145/2/5
f 145/2/5 102/2/5 101/2/5
f 421/2/5 586/2/5 73/2/5
f 73/2/5 586/2/5 566/2/5
f 390/8/5 426/8/5 116/8/5
f 116/8/5 426/8/5 425/8/5
f 586/10/5 38/10/5 566/10/5
f 566/10/5 38/10/5 37/10/5
f 427/10/5 436/10/5 424/10/5
f 424/10/5 436/10/5 435/10/5
f 437/10/5 458/10/5 434/10/5
f 434/10/5 458/10/5 457/10/5
f 48/7/5 587/7/5 295/7/5
f 295/7/5 587/7/5 294/7/5
f 459/8/5 216/8/5 456/8/5
f 456/8/5 216/8/5 215/8/5
f 587/8/5 17/8/5 294/8/5
f 294/8/5 17/8/5 14/8/5
f 465/8/5 224/8/5 464/8/5
f 464/8/5 224/8/5 223/8/5
f 217/10/5 468/10/5 218/10/5
f 218/10/5 468/10/5 467/10/5
f 169/8/5 147/8/5 170/8/5
f 170/8/5 147/8/5 146/8/5
f 469/8/5 228/8/5 466/8/5
f 466/8/5 228/8/5 227/8/5
f 502/11/5 265/11/5 501/11/5
f 501/11/5 265/11/5 264/11/5
f 148/9/5 588/9/5 149/9/5
f 149/9/5 588/9/5 411/9/5
f 229/10/5 202/10/5 230/10/5
f 230/10/5 202/10/5 201/10/5
f 483/8/5 493/8/5 476/8/5
f 476/8/5 493/8/5 480/8/5
f 504/11/5 512/11/5 265/11/5
f 265/11/5 512/11/5 511/11/5
f 513/11/5 557/11/5 510/11/5
f 510/11/5 557/11/5 584/11/5
f 557/10/5 277/10/5 584/10/5
f 584/10/5 277/10/5 276/10/5
f 449/8/5 204/8/5 446/8/5
f 446/8/5 204/8/5 203/8/5
f 205/8/5 195/8/5 206/8/5
f 206/8/5 195/8/5 194/8/5
f 196/8/5 527/8/5 197/8/5
f 197/8/5 527/8/5 564/8/5
f 527/11/5 430/11/5 564/11/5
f 564/11/5 430/11/5 427/11/5
f 441/11/5 442/11/5 440/11/5
f 440/11/5 442/11/5 437/11/5
f 451/11/5 454/11/5 450/11/5
f 450/11/5 454/11/5 453/11/5
f 517/10/5 542/10/5 514/10/5
f 514/10/5 542/10/5 575/10/5
f 47/11/5 22/11/5 48/11/5
f 48/11/5 22/11/5 17/11/5
f 542/11/5 281/11/5 575/11/5
f 575/11/5 281/11/5 280/11/5
f 22/6/5 19/6/5 17/6/5
f 17/6/5 19/6/5 18/6/5
f 282/11/5 267/11/5 283/11/5
f 283/11/5 267/11/5 266/11/5
f 268/8/5 259/8/5 492/8/5
f 492/8/5 259/8/5 503/8/5
f 154/8/5 151/8/5 147/8/5
f 147/8/5 151/8/5 150/8/5
f 455/11/5 214/11/5 452/11/5
f 452/11/5 214/11/5 213/11/5
f 211/10/5 208/10/5 202/10/5
f 202/10/5 208/10/5 207/10/5
f 317/8/5 84/8/5 314/8/5
f 314/8/5 84/8/5 73/8/5
f 84/2/5 529/2/5 422/2/5
f 422/2/5 529/2/5 589/2/5
f 127/8/5 432/8/5 391/8/5
f 391/8/5 432/8/5 431/8/5
f 529/10/5 52/10/5 589/10/5
f 589/10/5 52/10/5 51/10/5
f 433/10/5 444/10/5 430/10/5
f 430/10/5 444/10/5 443/10/5
f 445/10/5 462/10/5 442/10/5
f 442/10/5 462/10/5 461/10/5
f 304/7/5 305/7/5 47/7/5
f 47/7/5 305/7/5 590/7/5
f 463/8/5 220/8/5 460/8/5
f 460/8/5 220/8/5 219/8/5
f 305/8/5 23/8/5 590/8/5
f 590/8/5 23/8/5 22/8/5
f 471/8/5 232/8/5 470/8/5
f 470/8/5 232/8/5 231/8/5
f 177/8/5 591/8/5 178/8/5
f 178/8/5 591/8/5 173/8/5
f 221/10/5 474/10/5 222/10/5
f 222/10/5 474/10/5 473/10/5
f 591/8/5 155/8/5 174/8/5
f 174/8/5 155/8/5 147/8/5
f 475/8/5 236/8/5 472/8/5
f 472/8/5 236/8/5 235/8/5
f 505/11/5 271/11/5 267/11/5
f 267/11/5 271/11/5 270/11/5
f 156/9/5 131/9/5 157/9/5
f 157/9/5 131/9/5 152/9/5
f 131/9/5 412/9/5 153/9/5
f 153/9/5 412/9/5 588/9/5
f 237/10/5 212/10/5 238/10/5
f 238/10/5 212/10/5 211/10/5
f 159/2/5 558/2/5 160/2/5
f 160/2/5 558/2/5 585/2/5
f 558/11/5 124/11/5 585/11/5
f 585/11/5 124/11/5 123/11/5
f 348/8/5 83/8/5 347/8/5
f 347/8/5 83/8/5 82/8/5
f 396/8/5 128/8/5 393/8/5
f 393/8/5 128/8/5 127/8/5
f 319/4/5 58/4/5 318/4/5
f 318/4/5 58/4/5 57/4/5
f 350/4/5 86/4/5 349/4/5
f 349/4/5 86/4/5 85/4/5
f 373/4/5 398/4/5 372/4/5
f 372/4/5 398/4/5 397/4/5
f 519/11/5 285/11/5 518/11/5
f 518/11/5 285/11/5 284/11/5
f 399/8/5 132/8/5 156/8/5
f 156/8/5 132/8/5 131/8/5
f 133/8/5 415/8/5 134/8/5
f 134/8/5 415/8/5 414/8/5
f 416/11/5 161/11/5 407/11/5
f 407/11/5 161/11/5 142/11/5
f 162/2/5 105/2/5 163/2/5
f 163/2/5 105/2/5 104/2/5
f 377/1/5 402/1/5 374/1/5
f 374/1/5 402/1/5 401/1/5
f 403/1/5 418/1/5 400/1/5
f 400/1/5 418/1/5 396/1/5
f 419/1/5 165/1/5 417/1/5
f 417/1/5 165/1/5 164/1/5
f 166/1/5 136/1/5 128/1/5
f 128/1/5 136/1/5 135/1/5
f 137/1/5 108/1/5 138/1/5
f 138/1/5 108/1/5 107/1/5
f 521/10/5 286/10/5 519/10/5
f 519/10/5 286/10/5 285/10/5
f 364/1/6 363/1/6 331/1/6
f 331/1/6 363/1/6 328/1/6
f 330/1/6 329/1/6 311/1/6
f 311/1/6 329/1/6 308/1/6
f 310/1/6 309/1/6 29/1/6
f 29/1/6 309/1/6 30/1/6
f 28/1/6 27/1/6 69/1/6
f 69/1/6 27/1/6 70/1/6
f 68/1/6 67/1/6 99/1/6
f 99/1/6 67/1/6 100/1/6
f 489/10/6 507/10/6 251/10/6
f 251/10/6 507/10/6 274/10/6
f 314/8/6 311/8/6 73/8/6
f 73/8/6 311/8/6 28/8/6
f 384/8/6 383/8/6 117/8/6
f 117/8/6 383/8/6 118/8/6
f 1/9/6 293/9/6 15/9/6
f 15/9/6 293/9/6 16/9/6
f 32/4/6 31/4/6 76/4/6
f 76/4/6 31/4/6 77/4/6
f 75/4/6 74/4/6 339/4/6
f 339/4/6 74/4/6 336/4/6
f 478/10/6 490/10/6 241/10/6
f 241/10/6 490/10/6 253/10/6
f 338/8/6 337/8/6 80/8/6
f 80/8/6 337/8/6 81/8/6
f 79/8/6 78/8/6 342/8/6
f 342/8/6 78/8/6 340/8/6
f 34/2/6 33/2/6 41/2/6
f 41/2/6 33/2/6 103/2/6
f 592/2/6 561/2/6 298/2/6
f 298/2/6 561/2/6 565/2/6
f 389/8/6 117/8/6 593/8/6
f 593/8/6 117/8/6 567/8/6
f 298/10/6 565/10/6 39/10/6
f 39/10/6 565/10/6 40/10/6
f 593/10/6 567/10/6 369/10/6
f 369/10/6 567/10/6 368/10/6
f 38/10/6 37/10/6 45/10/6
f 45/10/6 37/10/6 569/10/6
f 297/7/6 296/7/6 3/7/6
f 3/7/6 296/7/6 4/7/6
f 2/8/6 1/8/6 5/8/6
f 5/8/6 1/8/6 15/8/6
f 168/11/6 167/11/6 181/11/6
f 181/11/6 167/11/6 182/11/6
f 216/8/6 215/8/6 225/8/6
f 225/8/6 215/8/6 226/8/6
f 45/2/6 569/2/6 594/2/6
f 594/2/6 569/2/6 76/2/6
f 594/10/6 76/10/6 595/10/6
f 595/10/6 76/10/6 338/10/6
f 480/10/6 479/10/6 239/10/6
f 239/10/6 479/10/6 243/10/6
f 596/1/6 80/1/6 597/1/6
f 597/1/6 80/1/6 320/1/6
f 180/11/6 179/11/6 183/11/6
f 183/11/6 179/11/6 193/11/6
f 598/5/6 35/5/6 43/5/6
f 43/5/6 35/5/6 44/5/6
f 599/9/6 338/9/6 600/9/6
f 600/9/6 338/9/6 80/9/6
f 260/10/6 239/10/6 246/10/6
f 246/10/6 239/10/6 247/10/6
f 245/10/6 244/10/6 256/10/6
f 256/10/6 244/10/6 257/10/6
f 255/10/6 254/10/6 278/10/6
f 278/10/6 254/10/6 279/10/6
f 448/8/6 447/8/6 205/8/6
f 205/8/6 447/8/6 206/8/6
f 439/8/6 438/8/6 196/8/6
f 196/8/6 438/8/6 197/8/6
f 429/8/6 428/8/6 423/8/6
f 423/8/6 428/8/6 420/8/6
f 601/11/6 592/11/6 301/11/6
f 301/11/6 592/11/6 298/11/6
f 300/11/6 299/11/6 291/11/6
f 291/11/6 299/11/6 288/11/6
f 516/10/6 515/10/6 497/10/6
f 497/10/6 515/10/6 494/10/6
f 290/11/6 289/11/6 7/11/6
f 7/11/6 289/11/6 8/11/6
f 496/10/6 495/10/6 484/10/6
f 484/10/6 495/10/6 482/10/6
f 6/6/6 5/6/6 20/6/6
f 20/6/6 5/6/6 21/6/6
f 46/10/6 45/10/6 602/10/6
f 602/10/6 45/10/6 594/10/6
f 602/4/6 594/4/6 603/4/6
f 603/4/6 594/4/6 595/4/6
f 231/8/6 224/8/6 235/8/6
f 235/8/6 224/8/6 228/8/6
f 604/9/6 596/9/6 605/9/6
f 605/9/6 596/9/6 597/9/6
f 172/10/6 171/10/6 185/10/6
f 185/10/6 171/10/6 186/10/6
f 184/10/6 183/10/6 209/10/6
f 209/10/6 183/10/6 210/10/6
f 606/2/6 598/2/6 50/2/6
f 50/2/6 598/2/6 43/2/6
f 316/8/6 315/8/6 524/8/6
f 524/8/6 315/8/6 561/8/6
f 524/2/6 601/2/6 528/2/6
f 528/2/6 601/2/6 301/2/6
f 130/8/6 392/8/6 530/8/6
f 530/8/6 392/8/6 607/8/6
f 528/10/6 301/10/6 53/10/6
f 53/10/6 301/10/6 54/10/6
f 530/10/6 607/10/6 371/10/6
f 371/10/6 607/10/6 370/10/6
f 52/10/6 51/10/6 533/10/6
f 533/10/6 51/10/6 46/10/6
f 303/7/6 302/7/6 11/7/6
f 11/7/6 302/7/6 12/7/6
f 10/8/6 9/8/6 24/8/6
f 24/8/6 9/8/6 6/8/6
f 176/11/6 175/11/6 189/11/6
f 189/11/6 175/11/6 190/11/6
f 220/8/6 219/8/6 233/8/6
f 233/8/6 219/8/6 234/8/6
f 533/2/6 46/2/6 88/2/6
f 88/2/6 46/2/6 602/2/6
f 88/10/6 602/10/6 352/10/6
f 352/10/6 602/10/6 603/10/6
f 487/10/6 486/10/6 250/10/6
f 250/10/6 486/10/6 240/10/6
f 352/3/6 599/3/6 92/3/6
f 92/3/6 599/3/6 600/3/6
f 92/1/6 604/1/6 356/1/6
f 356/1/6 604/1/6 605/1/6
f 188/11/6 187/11/6 200/11/6
f 200/11/6 187/11/6 184/11/6
f 62/5/6 606/5/6 56/5/6
f 56/5/6 606/5/6 50/5/6
f 55/11/6 41/11/6 125/11/6
f 125/11/6 41/11/6 126/11/6
f 324/8/6 317/8/6 63/8/6
f 63/8/6 317/8/6 84/8/6
f 395/8/6 394/8/6 129/8/6
f 129/8/6 394/8/6 130/8/6
f 306/9/6 10/9/6 26/9/6
f 26/9/6 10/9/6 24/9/6
f 58/4/6 57/4/6 87/4/6
f 87/4/6 57/4/6 88/4/6
f 86/4/6 85/4/6 354/4/6
f 354/4/6 85/4/6 351/4/6
f 499/10/6 488/10/6 263/10/6
f 263/10/6 488/10/6 249/10/6
f 353/8/6 352/8/6 91/8/6
f 91/8/6 352/8/6 92/8/6
f 90/8/6 89/8/6 357/8/6
f 357/8/6 89/8/6 355/8/6
f 322/11/6 341/11/6 61/11/6
f 61/11/6 341/11/6 36/11/6
f 60/2/6 59/2/6 106/2/6
f 106/2/6 59/2/6 55/2/6
f 376/1/6 375/1/6 361/1/6
f 361/1/6 375/1/6 358/1/6
f 360/1/6 359/1/6 327/1/6
f 327/1/6 359/1/6 324/1/6
f 326/1/6 325/1/6 65/1/6
f 65/1/6 325/1/6 66/1/6
f 64/1/6 63/1/6 95/1/6
f 95/1/6 63/1/6 96/1/6
f 94/1/6 93/1/6 109/1/6
f 109/1/6 93/1/6 110/1/6
f 520/10/6 500/10/6 287/10/6
f 287/10/6 500/10/6 262/10/6
