# Vengi binary mesh normalized for Tanks of Freedom II

mtllib ../../materials/vox_building.mtl
o scout_heli_rotor

v 1.4 0.7 0
v 1 0.7 0
v 1 0.7 0.1
v 1.4 0.7 0.1
v 0.1 0.2 0
v 0 0.2 0
v 0 0.2 0.1
v 0.1 0.2 0.1
v 0.1 0.4 0
v 0 0.4 0
v 0 0.4 0.1
v 0.1 0.4 0.1
v 0 0.1 0
v -0.1 0.1 0
v -0.1 0.1 0.1
v 0 0.1 0.1
v 0 0.3 0
v -0.1 0.3 0
v -0.1 0.3 0.1
v 0 0.3 0.1
v 0 0.5 0
v -0.1 0.5 0
v -0.1 0.5 0.1
v 0 0.5 0.1
v -0.1 0.7 0
v -1.4 0.7 0
v -1.4 0.7 0.1
v -0.1 0.7 0.1
v -1.5 0.7 0
v -1.5 0.7 0.1
v 1.5 0.7 -0.1
v 1.4 0.7 -0.1
v 1.5 0.7 0
v 0.1 0.7 -0.1
v 0.1 0.7 0
v 0.1 0.1 -0.1
v 0 0.1 -0.1
v 0.1 0.1 0
v 0.1 0.3 -0.1
v 0 0.3 -0.1
v 0.1 0.3 0
v 0.1 0.5 -0.1
v 0 0.5 -0.1
v 0.1 0.5 0
v 0 0.2 -0.1
v -0.1 0.2 -0.1
v -0.1 0.2 0
v 0 0.4 -0.1
v -0.1 0.4 -0.1
v -0.1 0.4 0
v -0.1 0.7 -0.1
v 0.1 0.7 0.1
v -1 0.7 -0.1
v -1.4 0.7 -0.1
v -1 0.7 0
v 1.4 0.6 0
v 1.4 0.6 0.1
v 1 0.6 0.1
v 1 0.6 0
v 0.1 0.1 0.1
v 0.1 0.3 0.1
v 0.1 0.5 0.1
v 0 0 0
v 0 0 0.1
v -0.1 0 0.1
v -0.1 0 0
v -0.1 0.2 0.1
v -0.1 0.4 0.1
v 0 0.6 0
v 0 0.6 0.1
v -1.4 0.6 0.1
v -1.4 0.6 0
v -1.5 0.6 0.1
v -1.5 0.6 0
v 1.5 0.6 -0.1
v 1.5 0.6 0
v 1.4 0.6 -0.1
v 0.1 0 -0.1
v 0.1 0 0
v 0 0 -0.1
v 0.1 0.2 -0.1
v 0.1 0.4 -0.1
v 0 0.6 -0.1
v -0.1 0.1 -0.1
v -0.1 0.3 -0.1
v -0.1 0.5 -0.1
v -1 0.6 -0.1
v -1 0.6 0
v -1.4 0.6 -0.1
v -0.1 0.6 0
v -0.1 0.6 -0.1
v 0.1 0.6 0.1
v 0.1 0.6 0

vt 0.00585938 0.5
vt 0.0839844 0.5

vn 0 1 0
vn 0 -1 0
vn -1 0 0
vn 1 0 0
vn 0 0 -1
vn 0 0 1

usemtl palette
f 1/2/1 2/2/1 4/2/1
f 4/2/1 2/2/1 3/2/1
f 5/2/1 6/2/1 8/2/1
f 8/2/1 6/2/1 7/2/1
f 9/2/1 10/2/1 12/2/1
f 12/2/1 10/2/1 11/2/1
f 13/2/1 14/2/1 16/2/1
f 16/2/1 14/2/1 15/2/1
f 17/2/1 18/2/1 20/2/1
f 20/2/1 18/2/1 19/2/1
f 21/2/1 22/2/1 24/2/1
f 24/2/1 22/2/1 23/2/1
f 25/1/1 26/1/1 28/1/1
f 28/1/1 26/1/1 27/1/1
f 26/2/1 29/2/1 27/2/1
f 27/2/1 29/2/1 30/2/1
f 31/2/1 32/2/1 33/2/1
f 33/2/1 32/2/1 1/2/1
f 32/1/1 34/1/1 1/1/1
f 1/1/1 34/1/1 35/1/1
f 36/2/1 37/2/1 38/2/1
f 38/2/1 37/2/1 13/2/1
f 39/2/1 40/2/1 41/2/1
f 41/2/1 40/2/1 17/2/1
f 42/2/1 43/2/1 44/2/1
f 44/2/1 43/2/1 21/2/1
f 45/2/1 46/2/1 6/2/1
f 6/2/1 46/2/1 47/2/1
f 48/2/1 49/2/1 10/2/1
f 10/2/1 49/2/1 50/2/1
f 34/1/1 51/1/1 52/1/1
f 52/1/1 51/1/1 28/1/1
f 53/2/1 54/2/1 55/2/1
f 55/2/1 54/2/1 26/2/1
f 56/2/2 57/2/2 59/2/2
f 59/2/2 57/2/2 58/2/2
f 38/2/2 60/2/2 13/2/2
f 13/2/2 60/2/2 16/2/2
f 41/2/2 61/2/2 17/2/2
f 17/2/2 61/2/2 20/2/2
f 44/2/2 62/2/2 21/2/2
f 21/2/2 62/2/2 24/2/2
f 63/2/2 64/2/2 66/2/2
f 66/2/2 64/2/2 65/2/2
f 6/2/2 7/2/2 47/2/2
f 47/2/2 7/2/2 67/2/2
f 10/2/2 11/2/2 50/2/2
f 50/2/2 11/2/2 68/2/2
f 69/1/2 70/1/2 72/1/2
f 72/1/2 70/1/2 71/1/2
f 72/2/2 71/2/2 74/2/2
f 74/2/2 71/2/2 73/2/2
f 75/2/2 76/2/2 77/2/2
f 77/2/2 76/2/2 56/2/2
f 78/2/2 79/2/2 80/2/2
f 80/2/2 79/2/2 63/2/2
f 81/2/2 5/2/2 45/2/2
f 45/2/2 5/2/2 6/2/2
f 82/2/2 9/2/2 48/2/2
f 48/2/2 9/2/2 10/2/2
f 77/1/2 56/1/2 83/1/2
f 83/1/2 56/1/2 69/1/2
f 37/2/2 13/2/2 84/2/2
f 84/2/2 13/2/2 14/2/2
f 40/2/2 17/2/2 85/2/2
f 85/2/2 17/2/2 18/2/2
f 43/2/2 21/2/2 86/2/2
f 86/2/2 21/2/2 22/2/2
f 87/2/2 88/2/2 89/2/2
f 89/2/2 88/2/2 72/2/2
f 15/2/3 14/2/3 65/2/3
f 65/2/3 14/2/3 66/2/3
f 13/2/3 37/2/3 63/2/3
f 63/2/3 37/2/3 80/2/3
f 7/2/3 6/2/3 16/2/3
f 16/2/3 6/2/3 13/2/3
f 47/2/3 46/2/3 14/2/3
f 14/2/3 46/2/3 84/2/3
f 19/2/3 18/2/3 67/2/3
f 67/2/3 18/2/3 47/2/3
f 17/2/3 40/2/3 6/2/3
f 6/2/3 40/2/3 45/2/3
f 11/2/3 10/2/3 20/2/3
f 20/2/3 10/2/3 17/2/3
f 50/2/3 49/2/3 18/2/3
f 18/2/3 49/2/3 85/2/3
f 23/2/3 22/2/3 68/2/3
f 68/2/3 22/2/3 50/2/3
f 21/2/3 43/2/3 10/2/3
f 10/2/3 43/2/3 48/2/3
f 70/2/3 69/2/3 24/2/3
f 24/2/3 69/2/3 21/2/3
f 90/2/3 91/2/3 22/2/3
f 22/2/3 91/2/3 86/2/3
f 3/2/3 2/2/3 58/2/3
f 58/2/3 2/2/3 59/2/3
f 30/2/3 29/2/3 73/2/3
f 73/2/3 29/2/3 74/2/3
f 25/1/3 51/1/3 90/1/3
f 90/1/3 51/1/3 91/1/3
f 26/2/3 54/2/3 72/2/3
f 72/2/3 54/2/3 89/2/3
f 16/2/4 64/2/4 13/2/4
f 13/2/4 64/2/4 63/2/4
f 38/2/4 79/2/4 36/2/4
f 36/2/4 79/2/4 78/2/4
f 8/2/4 60/2/4 5/2/4
f 5/2/4 60/2/4 38/2/4
f 6/2/4 13/2/4 45/2/4
f 45/2/4 13/2/4 37/2/4
f 20/2/4 7/2/4 17/2/4
f 17/2/4 7/2/4 6/2/4
f 41/2/4 5/2/4 39/2/4
f 39/2/4 5/2/4 81/2/4
f 12/2/4 61/2/4 9/2/4
f 9/2/4 61/2/4 41/2/4
f 10/2/4 17/2/4 48/2/4
f 48/2/4 17/2/4 40/2/4
f 24/2/4 11/2/4 21/2/4
f 21/2/4 11/2/4 10/2/4
f 44/2/4 9/2/4 42/2/4
f 42/2/4 9/2/4 82/2/4
f 92/2/4 62/2/4 93/2/4
f 93/2/4 62/2/4 44/2/4
f 69/2/4 21/2/4 83/2/4
f 83/2/4 21/2/4 43/2/4
f 4/2/4 57/2/4 1/2/4
f 1/2/4 57/2/4 56/2/4
f 52/1/4 92/1/4 35/1/4
f 35/1/4 92/1/4 93/1/4
f 33/2/4 76/2/4 31/2/4
f 31/2/4 76/2/4 75/2/4
f 55/2/4 88/2/4 53/2/4
f 53/2/4 88/2/4 87/2/4
f 77/2/5 32/2/5 75/2/5
f 75/2/5 32/2/5 31/2/5
f 80/2/5 37/2/5 78/2/5
f 78/2/5 37/2/5 36/2/5
f 13/2/5 6/2/5 38/2/5
f 38/2/5 6/2/5 5/2/5
f 45/2/5 40/2/5 81/2/5
f 81/2/5 40/2/5 39/2/5
f 17/2/5 10/2/5 41/2/5
f 41/2/5 10/2/5 9/2/5
f 48/2/5 43/2/5 82/2/5
f 82/2/5 43/2/5 42/2/5
f 21/2/5 69/2/5 44/2/5
f 44/2/5 69/2/5 93/2/5
f 66/2/5 14/2/5 63/2/5
f 63/2/5 14/2/5 13/2/5
f 84/2/5 46/2/5 37/2/5
f 37/2/5 46/2/5 45/2/5
f 47/2/5 18/2/5 6/2/5
f 6/2/5 18/2/5 17/2/5
f 85/2/5 49/2/5 40/2/5
f 40/2/5 49/2/5 48/2/5
f 50/2/5 22/2/5 10/2/5
f 10/2/5 22/2/5 21/2/5
f 86/2/5 91/2/5 43/2/5
f 43/2/5 91/2/5 83/2/5
f 91/1/5 51/1/5 77/1/5
f 77/1/5 51/1/5 32/1/5
f 88/1/5 55/1/5 90/1/5
f 90/1/5 55/1/5 25/1/5
f 89/2/5 54/2/5 87/2/5
f 87/2/5 54/2/5 53/2/5
f 74/2/5 29/2/5 72/2/5
f 72/2/5 29/2/5 26/2/5
f 56/2/6 76/2/6 1/2/6
f 1/2/6 76/2/6 33/2/6
f 58/2/6 57/2/6 3/2/6
f 3/2/6 57/2/6 4/2/6
f 93/1/6 59/1/6 35/1/6
f 35/1/6 59/1/6 2/1/6
f 63/2/6 79/2/6 13/2/6
f 13/2/6 79/2/6 38/2/6
f 16/2/6 60/2/6 7/2/6
f 7/2/6 60/2/6 8/2/6
f 6/2/6 5/2/6 17/2/6
f 17/2/6 5/2/6 41/2/6
f 20/2/6 61/2/6 11/2/6
f 11/2/6 61/2/6 12/2/6
f 10/2/6 9/2/6 21/2/6
f 21/2/6 9/2/6 44/2/6
f 24/2/6 62/2/6 70/2/6
f 70/2/6 62/2/6 92/2/6
f 65/2/6 64/2/6 15/2/6
f 15/2/6 64/2/6 16/2/6
f 14/2/6 13/2/6 47/2/6
f 47/2/6 13/2/6 6/2/6
f 67/2/6 7/2/6 19/2/6
f 19/2/6 7/2/6 20/2/6
f 18/2/6 17/2/6 50/2/6
f 50/2/6 17/2/6 10/2/6
f 68/2/6 11/2/6 23/2/6
f 23/2/6 11/2/6 24/2/6
f 22/2/6 21/2/6 90/2/6
f 90/2/6 21/2/6 69/2/6
f 71/1/6 92/1/6 27/1/6
f 27/1/6 92/1/6 52/1/6
f 73/2/6 71/2/6 30/2/6
f 30/2/6 71/2/6 27/2/6
