# Vengi binary mesh normalized for Tanks of Freedom II

mtllib ../../materials/vox_grass.mtl
o river_2_reflection

v 1.5 3.9 3.9
v -1.5 3.9 3.9
v -1.5 3.9 4
v 1.5 3.9 4
v 1.4 3.9 3.8
v -1.4 3.9 3.8
v -1.4 3.9 3.9
v 1.4 3.9 3.9
v 1.3 3.9 3.6
v -1.4 3.9 3.6
v 1.3 3.9 3.8
v -1.3 3.9 3.4
v -1.4 3.9 3.4
v -1.3 3.9 3.6
v -1.2 3.9 3.3
v -1.3 3.9 3.3
v -1.2 3.9 3.6
v 1.4 3.9 3.1
v 1.3 3.9 3.1
v 1.3 3.9 3.5
v 1.4 3.9 3.5
v 1.5 3.9 2.9
v 1.4 3.9 2.9
v 1.4 3.9 3.7
v 1.5 3.9 3.7
v 1.4 3.9 2.6
v 1.3 3.9 2.6
v 1.3 3.9 2.8
v 1.4 3.9 2.8
v -1.4 3.9 2.6
v -1.5 3.9 2.6
v -1.5 3.9 3.3
v -1.4 3.9 3.3
v 1.5 3.9 2.3
v 1.4 3.9 2.3
v 1.4 3.9 2.5
v 1.5 3.9 2.5
v -1.3 3.9 2.1
v -1.4 3.9 2.1
v -1.4 3.9 2.5
v -1.3 3.9 2.5
v 3.9 3.9 1.4
v 3.1 3.9 1.4
v 3.1 3.9 1.5
v 3.9 3.9 1.5
v 2.7 3.9 1.4
v 2.1 3.9 1.4
v 2.1 3.9 1.5
v 2.7 3.9 1.5
v 3.5 3.9 1.3
v 3.2 3.9 1.3
v 3.2 3.9 1.4
v 3.5 3.9 1.4
v 2.6 3.9 1.3
v 2.4 3.9 1.3
v 2.4 3.9 1.4
v 2.6 3.9 1.4
v -1.3 3.9 0.4
v -1.4 3.9 0.4
v -1.4 3.9 1.1
v -1.3 3.9 1.1
v -1.2 3.9 0.1
v -1.3 3.9 0.1
v -1.3 3.9 2.6
v -1.2 3.9 2.6
v -1.3 3.9 -0.6
v -1.4 3.9 -0.6
v -1.4 3.9 -0.5
v -1.3 3.9 -0.5
v -1.2 3.9 -0.7
v -1.3 3.9 -0.7
v -1.3 3.9 -0.4
v -1.2 3.9 -0.4
v -1.1 3.9 -0.9
v -1.2 3.9 -0.9
v -1.1 3.9 3.6
v -0.9 3.9 -1
v -1.1 3.9 -1
v -0.9 3.9 3.6
v 2.9 3.9 -1.1
v 2.8 3.9 -1.1
v 2.8 3.9 1.4
v 2.9 3.9 1.4
v 2.7 3.9 -1.1
v 2.7 3.9 1.3
v 2.8 3.9 1.3
v 2.3 3.9 -1.1
v 2.3 3.9 1.2
v 2.7 3.9 1.2
v -0.5 3.9 -1.1
v -0.9 3.9 -1.1
v -0.5 3.9 3.6
v 3.4 3.9 -1.2
v 3.1 3.9 -1.2
v 3.1 3.9 1.2
v 3.4 3.9 1.2
v 3 3.9 -1.2
v 3 3.9 1.3
v 3.1 3.9 1.3
v 2.9 3.9 -1.2
v 3 3.9 1.4
v 2.5 3.9 -1.2
v 2.3 3.9 -1.2
v 2.5 3.9 -1.1
v 1.7 3.9 -1.2
v 1.6 3.9 -1.2
v 1.6 3.9 1.6
v 1.7 3.9 1.6
v 1.5 3.9 -1.2
v 1.5 3.9 1.7
v 1.6 3.9 1.7
v 1.4 3.9 -1.2
v 1.4 3.9 1.9
v 1.5 3.9 1.9
v 1.3 3.9 -1.2
v 1.3 3.9 2.2
v 1.4 3.9 2.2
v 1.2 3.9 -1.2
v 1.2 3.9 3
v 1.3 3.9 3
v 0.2 3.9 -1.2
v -0.5 3.9 -1.2
v 0.2 3.9 3.6
v 3.5 3.9 -1.3
v 3.4 3.9 -1.3
v 3.5 3.9 1.2
v 2.3 3.9 -1.3
v 2 3.9 -1.3
v 2 3.9 1.3
v 2.3 3.9 1.3
v 1.8 3.9 -1.3
v 1.7 3.9 -1.3
v 1.7 3.9 1.5
v 1.8 3.9 1.5
v 1.2 3.9 -1.3
v 0.2 3.9 -1.3
v 1.2 3.9 3.6
v -0.2 3.9 -1.3
v -0.3 3.9 -1.3
v -0.3 3.9 -1.2
v -0.2 3.9 -1.2
v 3.9 3.9 -1.4
v 3.6 3.9 -1.4
v 3.6 3.9 1.3
v 3.9 3.9 1.3
v 3.5 3.9 -1.4
v 3.6 3.9 1.2
v 2.1 3.9 -1.4
v 2 3.9 -1.4
v 2.1 3.9 -1.3
v 1.9 3.9 -1.4
v 1.9 3.9 1.4
v 2 3.9 1.4
v 1.8 3.9 -1.4
v 1.9 3.9 1.5
v 1 3.9 -1.4
v 0.8 3.9 -1.4
v 0.8 3.9 -1.3
v 1 3.9 -1.3
v 4 3.9 -1.5
v 3.9 3.9 -1.5
v 4 3.9 1.5
v 0.1 3.9 -1.5
v -0.4 3.9 -1.5
v -0.4 3.9 -1.4
v 0.1 3.9 -1.4
v -0.6 3.9 -1.5
v -0.6 3.9 -1.3
v -0.4 3.9 -1.3
v -1.1 3.9 -1.5
v -1.1 3.9 -1.2
v -0.6 3.9 -1.2
v -1.2 3.9 -1.5
v -1.2 3.9 -1.1
v -1.1 3.9 -1.1
v -1.3 3.9 -1.5
v -1.3 3.9 -1
v -1.2 3.9 -1
v 1.5 3.8 3.9
v 1.5 3.8 4
v -1.5 3.8 4
v -1.5 3.8 3.9
v 1.4 3.8 3.8
v 1.4 3.8 3.9
v -1.4 3.8 3.9
v -1.4 3.8 3.8
v 1.3 3.8 3.6
v 1.3 3.8 3.8
v -1.4 3.8 3.6
v -1.3 3.8 3.4
v -1.3 3.8 3.6
v -1.4 3.8 3.4
v -1.2 3.8 3.3
v -1.2 3.8 3.6
v -1.3 3.8 3.3
v 1.4 3.8 3.1
v 1.4 3.8 3.5
v 1.3 3.8 3.5
v 1.3 3.8 3.1
v 1.5 3.8 2.9
v 1.5 3.8 3.7
v 1.4 3.8 3.7
v 1.4 3.8 2.9
v 1.4 3.8 2.6
v 1.4 3.8 2.8
v 1.3 3.8 2.8
v 1.3 3.8 2.6
v -1.4 3.8 2.6
v -1.4 3.8 3.3
v -1.5 3.8 3.3
v -1.5 3.8 2.6
v 1.5 3.8 2.3
v 1.5 3.8 2.5
v 1.4 3.8 2.5
v 1.4 3.8 2.3
v -1.3 3.8 2.1
v -1.3 3.8 2.5
v -1.4 3.8 2.5
v -1.4 3.8 2.1
v 3.9 3.8 1.4
v 3.9 3.8 1.5
v 3.1 3.8 1.5
v 3.1 3.8 1.4
v 2.7 3.8 1.4
v 2.7 3.8 1.5
v 2.1 3.8 1.5
v 2.1 3.8 1.4
v 3.5 3.8 1.3
v 3.5 3.8 1.4
v 3.2 3.8 1.4
v 3.2 3.8 1.3
v 2.6 3.8 1.3
v 2.6 3.8 1.4
v 2.4 3.8 1.4
v 2.4 3.8 1.3
v -1.3 3.8 0.4
v -1.3 3.8 1.1
v -1.4 3.8 1.1
v -1.4 3.8 0.4
v -1.2 3.8 0.1
v -1.2 3.8 2.6
v -1.3 3.8 2.6
v -1.3 3.8 0.1
v -1.3 3.8 -0.6
v -1.3 3.8 -0.5
v -1.4 3.8 -0.5
v -1.4 3.8 -0.6
v -1.2 3.8 -0.7
v -1.2 3.8 -0.4
v -1.3 3.8 -0.4
v -1.3 3.8 -0.7
v -1.1 3.8 -0.9
v -1.1 3.8 3.6
v -1.2 3.8 -0.9
v -0.9 3.8 -1
v -0.9 3.8 3.6
v -1.1 3.8 -1
v 2.9 3.8 -1.1
v 2.9 3.8 1.4
v 2.8 3.8 1.4
v 2.8 3.8 -1.1
v 2.8 3.8 1.3
v 2.7 3.8 1.3
v 2.7 3.8 -1.1
v 2.7 3.8 1.2
v 2.3 3.8 1.2
v 2.3 3.8 -1.1
v -0.5 3.8 -1.1
v -0.5 3.8 3.6
v -0.9 3.8 -1.1
v 3.4 3.8 -1.2
v 3.4 3.8 1.2
v 3.1 3.8 1.2
v 3.1 3.8 -1.2
v 3.1 3.8 1.3
v 3 3.8 1.3
v 3 3.8 -1.2
v 3 3.8 1.4
v 2.9 3.8 -1.2
v 2.5 3.8 -1.2
v 2.5 3.8 -1.1
v 2.3 3.8 -1.2
v 1.7 3.8 -1.2
v 1.7 3.8 1.6
v 1.6 3.8 1.6
v 1.6 3.8 -1.2
v 1.6 3.8 1.7
v 1.5 3.8 1.7
v 1.5 3.8 -1.2
v 1.5 3.8 1.9
v 1.4 3.8 1.9
v 1.4 3.8 -1.2
v 1.4 3.8 2.2
v 1.3 3.8 2.2
v 1.3 3.8 -1.2
v 1.3 3.8 3
v 1.2 3.8 3
v 1.2 3.8 -1.2
v 0.2 3.8 -1.2
v 0.2 3.8 3.6
v -0.5 3.8 -1.2
v 3.5 3.8 -1.3
v 3.5 3.8 1.2
v 3.4 3.8 -1.3
v 2.3 3.8 -1.3
v 2.3 3.8 1.3
v 2 3.8 1.3
v 2 3.8 -1.3
v 1.8 3.8 -1.3
v 1.8 3.8 1.5
v 1.7 3.8 1.5
v 1.7 3.8 -1.3
v 1.2 3.8 -1.3
v 1.2 3.8 3.6
v 0.2 3.8 -1.3
v -0.2 3.8 -1.3
v -0.2 3.8 -1.2
v -0.3 3.8 -1.2
v -0.3 3.8 -1.3
v 3.9 3.8 -1.4
v 3.9 3.8 1.3
v 3.6 3.8 1.3
v 3.6 3.8 -1.4
v 3.6 3.8 1.2
v 3.5 3.8 -1.4
v 2.1 3.8 -1.4
v 2.1 3.8 -1.3
v 2 3.8 -1.4
v 2 3.8 1.4
v 1.9 3.8 1.4
v 1.9 3.8 -1.4
v 1.9 3.8 1.5
v 1.8 3.8 -1.4
v 1 3.8 -1.4
v 1 3.8 -1.3
v 0.8 3.8 -1.3
v 0.8 3.8 -1.4
v 4 3.8 -1.5
v 4 3.8 1.5
v 3.9 3.8 -1.5
v 0.1 3.8 -1.5
v 0.1 3.8 -1.4
v -0.4 3.8 -1.4
v -0.4 3.8 -1.5
v -0.4 3.8 -1.3
v -0.6 3.8 -1.3
v -0.6 3.8 -1.5
v -0.6 3.8 -1.2
v -1.1 3.8 -1.2
v -1.1 3.8 -1.5
v -1.1 3.8 -1.1
v -1.2 3.8 -1.1
v -1.2 3.8 -1.5
v -1.2 3.8 -1
v -1.3 3.8 -1
v -1.3 3.8 -1.5

vt 0.0566406 0.5

vn 0 1 0
vn 0 -1 0
vn -1 0 0
vn 1 0 0
vn 0 0 -1
vn 0 0 1

usemtl palette
f 1/1/1 2/1/1 4/1/1
f 4/1/1 2/1/1 3/1/1
f 5/1/1 6/1/1 8/1/1
f 8/1/1 6/1/1 7/1/1
f 9/1/1 10/1/1 11/1/1
f 11/1/1 10/1/1 6/1/1
f 12/1/1 13/1/1 14/1/1
f 14/1/1 13/1/1 10/1/1
f 15/1/1 16/1/1 17/1/1
f 17/1/1 16/1/1 14/1/1
f 18/1/1 19/1/1 21/1/1
f 21/1/1 19/1/1 20/1/1
f 22/1/1 23/1/1 25/1/1
f 25/1/1 23/1/1 24/1/1
f 26/1/1 27/1/1 29/1/1
f 29/1/1 27/1/1 28/1/1
f 30/1/1 31/1/1 33/1/1
f 33/1/1 31/1/1 32/1/1
f 34/1/1 35/1/1 37/1/1
f 37/1/1 35/1/1 36/1/1
f 38/1/1 39/1/1 41/1/1
f 41/1/1 39/1/1 40/1/1
f 42/1/1 43/1/1 45/1/1
f 45/1/1 43/1/1 44/1/1
f 46/1/1 47/1/1 49/1/1
f 49/1/1 47/1/1 48/1/1
f 50/1/1 51/1/1 53/1/1
f 53/1/1 51/1/1 52/1/1
f 54/1/1 55/1/1 57/1/1
f 57/1/1 55/1/1 56/1/1
f 58/1/1 59/1/1 61/1/1
f 61/1/1 59/1/1 60/1/1
f 62/1/1 63/1/1 65/1/1
f 65/1/1 63/1/1 64/1/1
f 66/1/1 67/1/1 69/1/1
f 69/1/1 67/1/1 68/1/1
f 70/1/1 71/1/1 73/1/1
f 73/1/1 71/1/1 72/1/1
f 74/1/1 75/1/1 76/1/1
f 76/1/1 75/1/1 17/1/1
f 77/1/1 78/1/1 79/1/1
f 79/1/1 78/1/1 76/1/1
f 80/1/1 81/1/1 83/1/1
f 83/1/1 81/1/1 82/1/1
f 81/1/1 84/1/1 86/1/1
f 86/1/1 84/1/1 85/1/1
f 84/1/1 87/1/1 89/1/1
f 89/1/1 87/1/1 88/1/1
f 90/1/1 91/1/1 92/1/1
f 92/1/1 91/1/1 79/1/1
f 93/1/1 94/1/1 96/1/1
f 96/1/1 94/1/1 95/1/1
f 94/1/1 97/1/1 99/1/1
f 99/1/1 97/1/1 98/1/1
f 97/1/1 100/1/1 101/1/1
f 101/1/1 100/1/1 83/1/1
f 102/1/1 103/1/1 104/1/1
f 104/1/1 103/1/1 87/1/1
f 105/1/1 106/1/1 108/1/1
f 108/1/1 106/1/1 107/1/1
f 106/1/1 109/1/1 111/1/1
f 111/1/1 109/1/1 110/1/1
f 109/1/1 112/1/1 114/1/1
f 114/1/1 112/1/1 113/1/1
f 112/1/1 115/1/1 117/1/1
f 117/1/1 115/1/1 116/1/1
f 115/1/1 118/1/1 120/1/1
f 120/1/1 118/1/1 119/1/1
f 121/1/1 122/1/1 123/1/1
f 123/1/1 122/1/1 92/1/1
f 124/1/1 125/1/1 126/1/1
f 126/1/1 125/1/1 96/1/1
f 127/1/1 128/1/1 130/1/1
f 130/1/1 128/1/1 129/1/1
f 131/1/1 132/1/1 134/1/1
f 134/1/1 132/1/1 133/1/1
f 135/1/1 136/1/1 137/1/1
f 137/1/1 136/1/1 123/1/1
f 138/1/1 139/1/1 141/1/1
f 141/1/1 139/1/1 140/1/1
f 142/1/1 143/1/1 145/1/1
f 145/1/1 143/1/1 144/1/1
f 143/1/1 146/1/1 147/1/1
f 147/1/1 146/1/1 126/1/1
f 148/1/1 149/1/1 150/1/1
f 150/1/1 149/1/1 128/1/1
f 149/1/1 151/1/1 153/1/1
f 153/1/1 151/1/1 152/1/1
f 151/1/1 154/1/1 155/1/1
f 155/1/1 154/1/1 134/1/1
f 156/1/1 157/1/1 159/1/1
f 159/1/1 157/1/1 158/1/1
f 160/1/1 161/1/1 162/1/1
f 162/1/1 161/1/1 45/1/1
f 163/1/1 164/1/1 166/1/1
f 166/1/1 164/1/1 165/1/1
f 164/1/1 167/1/1 169/1/1
f 169/1/1 167/1/1 168/1/1
f 167/1/1 170/1/1 172/1/1
f 172/1/1 170/1/1 171/1/1
f 170/1/1 173/1/1 175/1/1
f 175/1/1 173/1/1 174/1/1
f 173/1/1 176/1/1 178/1/1
f 178/1/1 176/1/1 177/1/1
f 179/1/2 180/1/2 182/1/2
f 182/1/2 180/1/2 181/1/2
f 183/1/2 184/1/2 186/1/2
f 186/1/2 184/1/2 185/1/2
f 187/1/2 188/1/2 189/1/2
f 189/1/2 188/1/2 186/1/2
f 190/1/2 191/1/2 192/1/2
f 192/1/2 191/1/2 189/1/2
f 193/1/2 194/1/2 195/1/2
f 195/1/2 194/1/2 191/1/2
f 196/1/2 197/1/2 199/1/2
f 199/1/2 197/1/2 198/1/2
f 200/1/2 201/1/2 203/1/2
f 203/1/2 201/1/2 202/1/2
f 204/1/2 205/1/2 207/1/2
f 207/1/2 205/1/2 206/1/2
f 208/1/2 209/1/2 211/1/2
f 211/1/2 209/1/2 210/1/2
f 212/1/2 213/1/2 215/1/2
f 215/1/2 213/1/2 214/1/2
f 216/1/2 217/1/2 219/1/2
f 219/1/2 217/1/2 218/1/2
f 220/1/2 221/1/2 223/1/2
f 223/1/2 221/1/2 222/1/2
f 224/1/2 225/1/2 227/1/2
f 227/1/2 225/1/2 226/1/2
f 228/1/2 229/1/2 231/1/2
f 231/1/2 229/1/2 230/1/2
f 232/1/2 233/1/2 235/1/2
f 235/1/2 233/1/2 234/1/2
f 236/1/2 237/1/2 239/1/2
f 239/1/2 237/1/2 238/1/2
f 240/1/2 241/1/2 243/1/2
f 243/1/2 241/1/2 242/1/2
f 244/1/2 245/1/2 247/1/2
f 247/1/2 245/1/2 246/1/2
f 248/1/2 249/1/2 251/1/2
f 251/1/2 249/1/2 250/1/2
f 252/1/2 253/1/2 254/1/2
f 254/1/2 253/1/2 194/1/2
f 255/1/2 256/1/2 257/1/2
f 257/1/2 256/1/2 253/1/2
f 258/1/2 259/1/2 261/1/2
f 261/1/2 259/1/2 260/1/2
f 261/1/2 262/1/2 264/1/2
f 264/1/2 262/1/2 263/1/2
f 264/1/2 265/1/2 267/1/2
f 267/1/2 265/1/2 266/1/2
f 268/1/2 269/1/2 270/1/2
f 270/1/2 269/1/2 256/1/2
f 271/1/2 272/1/2 274/1/2
f 274/1/2 272/1/2 273/1/2
f 274/1/2 275/1/2 277/1/2
f 277/1/2 275/1/2 276/1/2
f 277/1/2 278/1/2 279/1/2
f 279/1/2 278/1/2 259/1/2
f 280/1/2 281/1/2 282/1/2
f 282/1/2 281/1/2 267/1/2
f 283/1/2 284/1/2 286/1/2
f 286/1/2 284/1/2 285/1/2
f 286/1/2 287/1/2 289/1/2
f 289/1/2 287/1/2 288/1/2
f 289/1/2 290/1/2 292/1/2
f 292/1/2 290/1/2 291/1/2
f 292/1/2 293/1/2 295/1/2
f 295/1/2 293/1/2 294/1/2
f 295/1/2 296/1/2 298/1/2
f 298/1/2 296/1/2 297/1/2
f 299/1/2 300/1/2 301/1/2
f 301/1/2 300/1/2 269/1/2
f 302/1/2 303/1/2 304/1/2
f 304/1/2 303/1/2 272/1/2
f 305/1/2 306/1/2 308/1/2
f 308/1/2 306/1/2 307/1/2
f 309/1/2 310/1/2 312/1/2
f 312/1/2 310/1/2 311/1/2
f 313/1/2 314/1/2 315/1/2
f 315/1/2 314/1/2 300/1/2
f 316/1/2 317/1/2 319/1/2
f 319/1/2 317/1/2 318/1/2
f 320/1/2 321/1/2 323/1/2
f 323/1/2 321/1/2 322/1/2
f 323/1/2 324/1/2 325/1/2
f 325/1/2 324/1/2 303/1/2
f 326/1/2 327/1/2 328/1/2
f 328/1/2 327/1/2 308/1/2
f 328/1/2 329/1/2 331/1/2
f 331/1/2 329/1/2 330/1/2
f 331/1/2 332/1/2 333/1/2
f 333/1/2 332/1/2 310/1/2
f 334/1/2 335/1/2 337/1/2
f 337/1/2 335/1/2 336/1/2
f 338/1/2 339/1/2 340/1/2
f 340/1/2 339/1/2 221/1/2
f 341/1/2 342/1/2 344/1/2
f 344/1/2 342/1/2 343/1/2
f 344/1/2 345/1/2 347/1/2
f 347/1/2 345/1/2 346/1/2
f 347/1/2 348/1/2 350/1/2
f 350/1/2 348/1/2 349/1/2
f 350/1/2 351/1/2 353/1/2
f 353/1/2 351/1/2 352/1/2
f 353/1/2 354/1/2 356/1/2
f 356/1/2 354/1/2 355/1/2
f 3/1/3 2/1/3 181/1/3
f 181/1/3 2/1/3 182/1/3
f 24/1/3 21/1/3 202/1/3
f 202/1/3 21/1/3 197/1/3
f 7/1/3 13/1/3 185/1/3
f 185/1/3 13/1/3 192/1/3
f 12/1/3 16/1/3 190/1/3
f 190/1/3 16/1/3 195/1/3
f 20/1/3 19/1/3 198/1/3
f 198/1/3 19/1/3 199/1/3
f 18/1/3 23/1/3 196/1/3
f 196/1/3 23/1/3 203/1/3
f 15/1/3 65/1/3 193/1/3
f 193/1/3 65/1/3 241/1/3
f 32/1/3 31/1/3 210/1/3
f 210/1/3 31/1/3 211/1/3
f 64/1/3 41/1/3 242/1/3
f 242/1/3 41/1/3 217/1/3
f 36/1/3 35/1/3 214/1/3
f 214/1/3 35/1/3 215/1/3
f 40/1/3 39/1/3 218/1/3
f 218/1/3 39/1/3 219/1/3
f 44/1/3 43/1/3 222/1/3
f 222/1/3 43/1/3 223/1/3
f 48/1/3 47/1/3 226/1/3
f 226/1/3 47/1/3 227/1/3
f 42/1/3 145/1/3 220/1/3
f 220/1/3 145/1/3 321/1/3
f 52/1/3 51/1/3 230/1/3
f 230/1/3 51/1/3 231/1/3
f 82/1/3 86/1/3 260/1/3
f 260/1/3 86/1/3 262/1/3
f 56/1/3 55/1/3 234/1/3
f 234/1/3 55/1/3 235/1/3
f 144/1/3 147/1/3 322/1/3
f 322/1/3 147/1/3 324/1/3
f 85/1/3 89/1/3 263/1/3
f 263/1/3 89/1/3 265/1/3
f 38/1/3 61/1/3 216/1/3
f 216/1/3 61/1/3 237/1/3
f 60/1/3 59/1/3 238/1/3
f 238/1/3 59/1/3 239/1/3
f 58/1/3 63/1/3 236/1/3
f 236/1/3 63/1/3 243/1/3
f 62/1/3 73/1/3 240/1/3
f 240/1/3 73/1/3 249/1/3
f 72/1/3 69/1/3 250/1/3
f 250/1/3 69/1/3 245/1/3
f 68/1/3 67/1/3 246/1/3
f 246/1/3 67/1/3 247/1/3
f 66/1/3 71/1/3 244/1/3
f 244/1/3 71/1/3 251/1/3
f 70/1/3 75/1/3 248/1/3
f 248/1/3 75/1/3 254/1/3
f 74/1/3 78/1/3 252/1/3
f 252/1/3 78/1/3 257/1/3
f 77/1/3 91/1/3 255/1/3
f 255/1/3 91/1/3 270/1/3
f 80/1/3 100/1/3 258/1/3
f 258/1/3 100/1/3 279/1/3
f 90/1/3 122/1/3 268/1/3
f 268/1/3 122/1/3 301/1/3
f 93/1/3 125/1/3 271/1/3
f 271/1/3 125/1/3 304/1/3
f 105/1/3 132/1/3 283/1/3
f 283/1/3 132/1/3 312/1/3
f 121/1/3 136/1/3 299/1/3
f 299/1/3 136/1/3 315/1/3
f 140/1/3 139/1/3 318/1/3
f 318/1/3 139/1/3 319/1/3
f 124/1/3 146/1/3 302/1/3
f 302/1/3 146/1/3 325/1/3
f 131/1/3 154/1/3 309/1/3
f 309/1/3 154/1/3 333/1/3
f 158/1/3 157/1/3 336/1/3
f 336/1/3 157/1/3 337/1/3
f 142/1/3 161/1/3 320/1/3
f 320/1/3 161/1/3 340/1/3
f 177/1/3 176/1/3 355/1/3
f 355/1/3 176/1/3 356/1/3
f 4/1/4 180/1/4 1/1/4
f 1/1/4 180/1/4 179/1/4
f 8/1/4 184/1/4 5/1/4
f 5/1/4 184/1/4 183/1/4
f 11/1/4 188/1/4 9/1/4
f 9/1/4 188/1/4 187/1/4
f 137/1/4 314/1/4 119/1/4
f 119/1/4 314/1/4 297/1/4
f 25/1/4 201/1/4 22/1/4
f 22/1/4 201/1/4 200/1/4
f 120/1/4 296/1/4 28/1/4
f 28/1/4 296/1/4 206/1/4
f 29/1/4 205/1/4 26/1/4
f 26/1/4 205/1/4 204/1/4
f 33/1/4 209/1/4 30/1/4
f 30/1/4 209/1/4 208/1/4
f 37/1/4 213/1/4 34/1/4
f 34/1/4 213/1/4 212/1/4
f 27/1/4 207/1/4 116/1/4
f 116/1/4 207/1/4 294/1/4
f 117/1/4 293/1/4 113/1/4
f 113/1/4 293/1/4 291/1/4
f 114/1/4 290/1/4 110/1/4
f 110/1/4 290/1/4 288/1/4
f 111/1/4 287/1/4 107/1/4
f 107/1/4 287/1/4 285/1/4
f 108/1/4 284/1/4 133/1/4
f 133/1/4 284/1/4 311/1/4
f 49/1/4 225/1/4 46/1/4
f 46/1/4 225/1/4 224/1/4
f 155/1/4 332/1/4 152/1/4
f 152/1/4 332/1/4 330/1/4
f 53/1/4 229/1/4 50/1/4
f 50/1/4 229/1/4 228/1/4
f 101/1/4 278/1/4 98/1/4
f 98/1/4 278/1/4 276/1/4
f 57/1/4 233/1/4 54/1/4
f 54/1/4 233/1/4 232/1/4
f 153/1/4 329/1/4 129/1/4
f 129/1/4 329/1/4 307/1/4
f 99/1/4 275/1/4 95/1/4
f 95/1/4 275/1/4 273/1/4
f 130/1/4 306/1/4 88/1/4
f 88/1/4 306/1/4 266/1/4
f 178/1/4 354/1/4 174/1/4
f 174/1/4 354/1/4 352/1/4
f 104/1/4 281/1/4 102/1/4
f 102/1/4 281/1/4 280/1/4
f 175/1/4 351/1/4 171/1/4
f 171/1/4 351/1/4 349/1/4
f 103/1/4 282/1/4 127/1/4
f 127/1/4 282/1/4 305/1/4
f 118/1/4 298/1/4 135/1/4
f 135/1/4 298/1/4 313/1/4
f 141/1/4 317/1/4 138/1/4
f 138/1/4 317/1/4 316/1/4
f 172/1/4 348/1/4 168/1/4
f 168/1/4 348/1/4 346/1/4
f 150/1/4 327/1/4 148/1/4
f 148/1/4 327/1/4 326/1/4
f 159/1/4 335/1/4 156/1/4
f 156/1/4 335/1/4 334/1/4
f 169/1/4 345/1/4 165/1/4
f 165/1/4 345/1/4 343/1/4
f 162/1/4 339/1/4 160/1/4
f 160/1/4 339/1/4 338/1/4
f 166/1/4 342/1/4 163/1/4
f 163/1/4 342/1/4 341/1/4
f 340/1/5 161/1/5 338/1/5
f 338/1/5 161/1/5 160/1/5
f 229/1/5 53/1/5 220/1/5
f 220/1/5 53/1/5 42/1/5
f 325/1/5 146/1/5 320/1/5
f 320/1/5 146/1/5 142/1/5
f 304/1/5 125/1/5 302/1/5
f 302/1/5 125/1/5 124/1/5
f 231/1/5 51/1/5 228/1/5
f 228/1/5 51/1/5 50/1/5
f 223/1/5 43/1/5 230/1/5
f 230/1/5 43/1/5 52/1/5
f 279/1/5 100/1/5 271/1/5
f 271/1/5 100/1/5 93/1/5
f 233/1/5 57/1/5 224/1/5
f 224/1/5 57/1/5 46/1/5
f 281/1/5 104/1/5 258/1/5
f 258/1/5 104/1/5 80/1/5
f 235/1/5 55/1/5 232/1/5
f 232/1/5 55/1/5 54/1/5
f 282/1/5 103/1/5 280/1/5
f 280/1/5 103/1/5 102/1/5
f 227/1/5 47/1/5 234/1/5
f 234/1/5 47/1/5 56/1/5
f 327/1/5 150/1/5 305/1/5
f 305/1/5 150/1/5 127/1/5
f 333/1/5 154/1/5 326/1/5
f 326/1/5 154/1/5 148/1/5
f 312/1/5 132/1/5 309/1/5
f 309/1/5 132/1/5 131/1/5
f 184/1/5 8/1/5 179/1/5
f 179/1/5 8/1/5 1/1/5
f 203/1/5 23/1/5 200/1/5
f 200/1/5 23/1/5 22/1/5
f 215/1/5 35/1/5 212/1/5
f 212/1/5 35/1/5 34/1/5
f 188/1/5 11/1/5 183/1/5
f 183/1/5 11/1/5 5/1/5
f 199/1/5 19/1/5 196/1/5
f 196/1/5 19/1/5 18/1/5
f 207/1/5 27/1/5 204/1/5
f 204/1/5 27/1/5 26/1/5
f 314/1/5 137/1/5 187/1/5
f 187/1/5 137/1/5 9/1/5
f 298/1/5 118/1/5 283/1/5
f 283/1/5 118/1/5 105/1/5
f 335/1/5 159/1/5 313/1/5
f 313/1/5 159/1/5 135/1/5
f 337/1/5 157/1/5 334/1/5
f 334/1/5 157/1/5 156/1/5
f 315/1/5 136/1/5 336/1/5
f 336/1/5 136/1/5 158/1/5
f 317/1/5 141/1/5 299/1/5
f 299/1/5 141/1/5 121/1/5
f 319/1/5 139/1/5 316/1/5
f 316/1/5 139/1/5 138/1/5
f 301/1/5 122/1/5 318/1/5
f 318/1/5 122/1/5 140/1/5
f 270/1/5 91/1/5 268/1/5
f 268/1/5 91/1/5 90/1/5
f 257/1/5 78/1/5 255/1/5
f 255/1/5 78/1/5 77/1/5
f 254/1/5 75/1/5 252/1/5
f 252/1/5 75/1/5 74/1/5
f 195/1/5 16/1/5 193/1/5
f 193/1/5 16/1/5 15/1/5
f 243/1/5 63/1/5 240/1/5
f 240/1/5 63/1/5 62/1/5
f 251/1/5 71/1/5 248/1/5
f 248/1/5 71/1/5 70/1/5
f 356/1/5 176/1/5 341/1/5
f 341/1/5 176/1/5 163/1/5
f 192/1/5 13/1/5 190/1/5
f 190/1/5 13/1/5 12/1/5
f 219/1/5 39/1/5 216/1/5
f 216/1/5 39/1/5 38/1/5
f 239/1/5 59/1/5 236/1/5
f 236/1/5 59/1/5 58/1/5
f 247/1/5 67/1/5 244/1/5
f 244/1/5 67/1/5 66/1/5
f 182/1/5 2/1/5 185/1/5
f 185/1/5 2/1/5 7/1/5
f 211/1/5 31/1/5 208/1/5
f 208/1/5 31/1/5 30/1/5
f 322/1/6 321/1/6 144/1/6
f 144/1/6 321/1/6 145/1/6
f 222/1/6 339/1/6 44/1/6
f 44/1/6 339/1/6 162/1/6
f 273/1/6 324/1/6 95/1/6
f 95/1/6 324/1/6 147/1/6
f 276/1/6 275/1/6 98/1/6
f 98/1/6 275/1/6 99/1/6
f 260/1/6 278/1/6 82/1/6
f 82/1/6 278/1/6 101/1/6
f 263/1/6 262/1/6 85/1/6
f 85/1/6 262/1/6 86/1/6
f 266/1/6 265/1/6 88/1/6
f 88/1/6 265/1/6 89/1/6
f 226/1/6 225/1/6 48/1/6
f 48/1/6 225/1/6 49/1/6
f 307/1/6 306/1/6 129/1/6
f 129/1/6 306/1/6 130/1/6
f 330/1/6 329/1/6 152/1/6
f 152/1/6 329/1/6 153/1/6
f 311/1/6 332/1/6 133/1/6
f 133/1/6 332/1/6 155/1/6
f 285/1/6 284/1/6 107/1/6
f 107/1/6 284/1/6 108/1/6
f 288/1/6 287/1/6 110/1/6
f 110/1/6 287/1/6 111/1/6
f 202/1/6 201/1/6 24/1/6
f 24/1/6 201/1/6 25/1/6
f 214/1/6 213/1/6 36/1/6
f 36/1/6 213/1/6 37/1/6
f 291/1/6 290/1/6 113/1/6
f 113/1/6 290/1/6 114/1/6
f 198/1/6 197/1/6 20/1/6
f 20/1/6 197/1/6 21/1/6
f 206/1/6 205/1/6 28/1/6
f 28/1/6 205/1/6 29/1/6
f 294/1/6 293/1/6 116/1/6
f 116/1/6 293/1/6 117/1/6
f 297/1/6 296/1/6 119/1/6
f 119/1/6 296/1/6 120/1/6
f 343/1/6 342/1/6 165/1/6
f 165/1/6 342/1/6 166/1/6
f 346/1/6 345/1/6 168/1/6
f 168/1/6 345/1/6 169/1/6
f 349/1/6 348/1/6 171/1/6
f 171/1/6 348/1/6 172/1/6
f 352/1/6 351/1/6 174/1/6
f 174/1/6 351/1/6 175/1/6
f 242/1/6 241/1/6 64/1/6
f 64/1/6 241/1/6 65/1/6
f 250/1/6 249/1/6 72/1/6
f 72/1/6 249/1/6 73/1/6
f 355/1/6 354/1/6 177/1/6
f 177/1/6 354/1/6 178/1/6
f 218/1/6 217/1/6 40/1/6
f 40/1/6 217/1/6 41/1/6
f 238/1/6 237/1/6 60/1/6
f 60/1/6 237/1/6 61/1/6
f 246/1/6 245/1/6 68/1/6
f 68/1/6 245/1/6 69/1/6
f 181/1/6 180/1/6 3/1/6
f 3/1/6 180/1/6 4/1/6
f 210/1/6 209/1/6 32/1/6
f 32/1/6 209/1/6 33/1/6
