# Vengi binary mesh normalized for Tanks of Freedom II

mtllib ../../materials/vox_grass.mtl
o river_1_reflection

v 1.5 3.9 3.9
v -1.5 3.9 3.9
v -1.5 3.9 4
v 1.5 3.9 4
v 1.4 3.9 3.8
v -1.4 3.9 3.8
v -1.4 3.9 3.9
v 1.4 3.9 3.9
v 1.3 3.9 3.6
v -1.4 3.9 3.6
v 1.3 3.9 3.8
v -1.3 3.9 3.4
v -1.4 3.9 3.4
v -1.3 3.9 3.6
v -1.2 3.9 3.3
v -1.3 3.9 3.3
v -1.2 3.9 3.6
v 1.4 3.9 3.1
v 1.3 3.9 3.1
v 1.3 3.9 3.5
v 1.4 3.9 3.5
v 1.5 3.9 2.9
v 1.4 3.9 2.9
v 1.4 3.9 3.7
v 1.5 3.9 3.7
v 1.4 3.9 2.6
v 1.3 3.9 2.6
v 1.3 3.9 2.8
v 1.4 3.9 2.8
v -1.4 3.9 2.6
v -1.5 3.9 2.6
v -1.5 3.9 3.3
v -1.4 3.9 3.3
v 1.5 3.9 2.3
v 1.4 3.9 2.3
v 1.4 3.9 2.5
v 1.5 3.9 2.5
v -1.3 3.9 2.1
v -1.4 3.9 2.1
v -1.4 3.9 2.5
v -1.3 3.9 2.5
v 1.4 3.9 2
v 1.3 3.9 2
v 1.3 3.9 2.2
v 1.4 3.9 2.2
v 1.5 3.9 1.4
v 1.4 3.9 1.4
v 1.4 3.9 1.9
v 1.5 3.9 1.9
v 1.4 3.9 1.1
v 1.3 3.9 1.1
v 1.3 3.9 1.3
v 1.4 3.9 1.3
v 1.3 3.9 0.8
v 1.2 3.9 0.8
v 1.2 3.9 3
v 1.3 3.9 3
v 1.5 3.9 0.5
v 1.4 3.9 0.5
v 1.4 3.9 1
v 1.5 3.9 1
v -1.3 3.9 0.4
v -1.4 3.9 0.4
v -1.4 3.9 1.1
v -1.3 3.9 1.1
v 1.4 3.9 0.3
v 1.3 3.9 0.3
v 1.3 3.9 0.7
v 1.4 3.9 0.7
v -1.2 3.9 0.1
v -1.3 3.9 0.1
v -1.3 3.9 2.6
v -1.2 3.9 2.6
v 1.4 3.9 -0.1
v 1.2 3.9 -0.1
v 1.2 3.9 0.2
v 1.4 3.9 0.2
v 1.3 3.9 -0.2
v 1.2 3.9 -0.2
v 1.3 3.9 -0.1
v 1.4 3.9 -0.7
v 1.3 3.9 -0.7
v 1.3 3.9 -0.3
v 1.4 3.9 -0.3
v 1.5 3.9 -0.8
v 1.4 3.9 -0.8
v 1.4 3.9 -0.2
v 1.5 3.9 -0.2
v -1.3 3.9 -0.9
v -1.4 3.9 -0.9
v -1.4 3.9 -0.5
v -1.3 3.9 -0.5
v 1.4 3.9 -1.4
v 1.3 3.9 -1.4
v 1.3 3.9 -0.9
v 1.4 3.9 -0.9
v -1.2 3.9 -1.4
v -1.3 3.9 -1.4
v -1.3 3.9 -0.4
v -1.2 3.9 -0.4
v -1.2 3.9 -2.1
v -1.3 3.9 -2.1
v -1.3 3.9 -2
v -1.2 3.9 -2
v 1.5 3.9 -2.2
v 1.4 3.9 -2.2
v 1.4 3.9 -1.5
v 1.5 3.9 -1.5
v 1.3 3.9 -2.2
v 1.2 3.9 -2.2
v 1.2 3.9 -0.8
v 1.3 3.9 -0.8
v -1.2 3.9 -2.2
v 1.2 3.9 3.6
v 1.5 3.8 3.9
v 1.5 3.8 4
v -1.5 3.8 4
v -1.5 3.8 3.9
v 1.4 3.8 3.8
v 1.4 3.8 3.9
v -1.4 3.8 3.9
v -1.4 3.8 3.8
v 1.3 3.8 3.6
v 1.3 3.8 3.8
v -1.4 3.8 3.6
v -1.3 3.8 3.4
v -1.3 3.8 3.6
v -1.4 3.8 3.4
v -1.2 3.8 3.3
v -1.2 3.8 3.6
v -1.3 3.8 3.3
v 1.4 3.8 3.1
v 1.4 3.8 3.5
v 1.3 3.8 3.5
v 1.3 3.8 3.1
v 1.5 3.8 2.9
v 1.5 3.8 3.7
v 1.4 3.8 3.7
v 1.4 3.8 2.9
v 1.4 3.8 2.6
v 1.4 3.8 2.8
v 1.3 3.8 2.8
v 1.3 3.8 2.6
v -1.4 3.8 2.6
v -1.4 3.8 3.3
v -1.5 3.8 3.3
v -1.5 3.8 2.6
v 1.5 3.8 2.3
v 1.5 3.8 2.5
v 1.4 3.8 2.5
v 1.4 3.8 2.3
v -1.3 3.8 2.1
v -1.3 3.8 2.5
v -1.4 3.8 2.5
v -1.4 3.8 2.1
v 1.4 3.8 2
v 1.4 3.8 2.2
v 1.3 3.8 2.2
v 1.3 3.8 2
v 1.5 3.8 1.4
v 1.5 3.8 1.9
v 1.4 3.8 1.9
v 1.4 3.8 1.4
v 1.4 3.8 1.1
v 1.4 3.8 1.3
v 1.3 3.8 1.3
v 1.3 3.8 1.1
v 1.3 3.8 0.8
v 1.3 3.8 3
v 1.2 3.8 3
v 1.2 3.8 0.8
v 1.5 3.8 0.5
v 1.5 3.8 1
v 1.4 3.8 1
v 1.4 3.8 0.5
v -1.3 3.8 0.4
v -1.3 3.8 1.1
v -1.4 3.8 1.1
v -1.4 3.8 0.4
v 1.4 3.8 0.3
v 1.4 3.8 0.7
v 1.3 3.8 0.7
v 1.3 3.8 0.3
v -1.2 3.8 0.1
v -1.2 3.8 2.6
v -1.3 3.8 2.6
v -1.3 3.8 0.1
v 1.4 3.8 -0.1
v 1.4 3.8 0.2
v 1.2 3.8 0.2
v 1.2 3.8 -0.1
v 1.3 3.8 -0.2
v 1.3 3.8 -0.1
v 1.2 3.8 -0.2
v 1.4 3.8 -0.7
v 1.4 3.8 -0.3
v 1.3 3.8 -0.3
v 1.3 3.8 -0.7
v 1.5 3.8 -0.8
v 1.5 3.8 -0.2
v 1.4 3.8 -0.2
v 1.4 3.8 -0.8
v -1.3 3.8 -0.9
v -1.3 3.8 -0.5
v -1.4 3.8 -0.5
v -1.4 3.8 -0.9
v 1.4 3.8 -1.4
v 1.4 3.8 -0.9
v 1.3 3.8 -0.9
v 1.3 3.8 -1.4
v -1.2 3.8 -1.4
v -1.2 3.8 -0.4
v -1.3 3.8 -0.4
v -1.3 3.8 -1.4
v -1.2 3.8 -2.1
v -1.2 3.8 -2
v -1.3 3.8 -2
v -1.3 3.8 -2.1
v 1.5 3.8 -2.2
v 1.5 3.8 -1.5
v 1.4 3.8 -1.5
v 1.4 3.8 -2.2
v 1.3 3.8 -2.2
v 1.3 3.8 -0.8
v 1.2 3.8 -0.8
v 1.2 3.8 -2.2
v 1.2 3.8 3.6
v -1.2 3.8 -2.2
v 1.3 3.9 -2.4
v -1.2 3.9 -2.4
v 1.4 3.9 -3
v 1.3 3.9 -3
v 1.3 3.9 -2.5
v 1.4 3.9 -2.5
v -1.2 3.9 -3.1
v -1.3 3.9 -3.1
v -1.3 3.9 -2.8
v -1.2 3.9 -2.8
v 1.5 3.9 -3.2
v 1.4 3.9 -3.2
v 1.4 3.9 -3.6
v 1.3 3.9 -3.6
v 1.3 3.9 -3.3
v 1.4 3.9 -3.3
v 1.5 3.9 -4
v 1.4 3.9 -4
v 1.4 3.9 -3.7
v 1.5 3.9 -3.7
v 1.3 3.9 -4
v 1.3 3.9 -3.9
v 1.4 3.9 -3.9
v 1.2 3.9 -4
v 1.2 3.9 -3.1
v 1.3 3.9 -3.1
v -1.2 3.9 -4
v 1.2 3.9 -2.4
v -1.3 3.9 -4
v -1.3 3.9 -3.5
v -1.2 3.9 -3.5
v -1.4 3.9 -4
v -1.4 3.9 -3.6
v -1.3 3.9 -3.6
v -1.5 3.9 -4
v -1.5 3.9 -3.9
v -1.4 3.9 -3.9
v 1.3 3.8 -2.4
v -1.2 3.8 -2.4
v 1.4 3.8 -3
v 1.4 3.8 -2.5
v 1.3 3.8 -2.5
v 1.3 3.8 -3
v -1.2 3.8 -3.1
v -1.2 3.8 -2.8
v -1.3 3.8 -2.8
v -1.3 3.8 -3.1
v 1.5 3.8 -3.2
v 1.4 3.8 -3.2
v 1.4 3.8 -3.6
v 1.4 3.8 -3.3
v 1.3 3.8 -3.3
v 1.3 3.8 -3.6
v 1.5 3.8 -4
v 1.5 3.8 -3.7
v 1.4 3.8 -3.7
v 1.4 3.8 -4
v 1.4 3.8 -3.9
v 1.3 3.8 -3.9
v 1.3 3.8 -4
v 1.3 3.8 -3.1
v 1.2 3.8 -3.1
v 1.2 3.8 -4
v 1.2 3.8 -2.4
v -1.2 3.8 -4
v -1.2 3.8 -3.5
v -1.3 3.8 -3.5
v -1.3 3.8 -4
v -1.3 3.8 -3.6
v -1.4 3.8 -3.6
v -1.4 3.8 -4
v -1.4 3.8 -3.9
v -1.5 3.8 -3.9
v -1.5 3.8 -4

vt 0.0566406 0.5

vn 0 1 0
vn 0 -1 0
vn -1 0 0
vn 1 0 0
vn 0 0 -1
vn 0 0 1

usemtl palette
f 1/1/1 2/1/1 4/1/1
f 4/1/1 2/1/1 3/1/1
f 5/1/1 6/1/1 8/1/1
f 8/1/1 6/1/1 7/1/1
f 9/1/1 10/1/1 11/1/1
f 11/1/1 10/1/1 6/1/1
f 12/1/1 13/1/1 14/1/1
f 14/1/1 13/1/1 10/1/1
f 15/1/1 16/1/1 17/1/1
f 17/1/1 16/1/1 14/1/1
f 18/1/1 19/1/1 21/1/1
f 21/1/1 19/1/1 20/1/1
f 22/1/1 23/1/1 25/1/1
f 25/1/1 23/1/1 24/1/1
f 26/1/1 27/1/1 29/1/1
f 29/1/1 27/1/1 28/1/1
f 30/1/1 31/1/1 33/1/1
f 33/1/1 31/1/1 32/1/1
f 34/1/1 35/1/1 37/1/1
f 37/1/1 35/1/1 36/1/1
f 38/1/1 39/1/1 41/1/1
f 41/1/1 39/1/1 40/1/1
f 42/1/1 43/1/1 45/1/1
f 45/1/1 43/1/1 44/1/1
f 46/1/1 47/1/1 49/1/1
f 49/1/1 47/1/1 48/1/1
f 50/1/1 51/1/1 53/1/1
f 53/1/1 51/1/1 52/1/1
f 54/1/1 55/1/1 57/1/1
f 57/1/1 55/1/1 56/1/1
f 58/1/1 59/1/1 61/1/1
f 61/1/1 59/1/1 60/1/1
f 62/1/1 63/1/1 65/1/1
f 65/1/1 63/1/1 64/1/1
f 66/1/1 67/1/1 69/1/1
f 69/1/1 67/1/1 68/1/1
f 70/1/1 71/1/1 73/1/1
f 73/1/1 71/1/1 72/1/1
f 74/1/1 75/1/1 77/1/1
f 77/1/1 75/1/1 76/1/1
f 78/1/1 79/1/1 80/1/1
f 80/1/1 79/1/1 75/1/1
f 81/1/1 82/1/1 84/1/1
f 84/1/1 82/1/1 83/1/1
f 85/1/1 86/1/1 88/1/1
f 88/1/1 86/1/1 87/1/1
f 89/1/1 90/1/1 92/1/1
f 92/1/1 90/1/1 91/1/1
f 93/1/1 94/1/1 96/1/1
f 96/1/1 94/1/1 95/1/1
f 97/1/1 98/1/1 100/1/1
f 100/1/1 98/1/1 99/1/1
f 101/1/1 102/1/1 104/1/1
f 104/1/1 102/1/1 103/1/1
f 105/1/1 106/1/1 108/1/1
f 108/1/1 106/1/1 107/1/1
f 109/1/1 110/1/1 112/1/1
f 112/1/1 110/1/1 111/1/1
f 110/1/1 113/1/1 114/1/1
f 114/1/1 113/1/1 17/1/1
f 115/1/2 116/1/2 118/1/2
f 118/1/2 116/1/2 117/1/2
f 119/1/2 120/1/2 122/1/2
f 122/1/2 120/1/2 121/1/2
f 123/1/2 124/1/2 125/1/2
f 125/1/2 124/1/2 122/1/2
f 126/1/2 127/1/2 128/1/2
f 128/1/2 127/1/2 125/1/2
f 129/1/2 130/1/2 131/1/2
f 131/1/2 130/1/2 127/1/2
f 132/1/2 133/1/2 135/1/2
f 135/1/2 133/1/2 134/1/2
f 136/1/2 137/1/2 139/1/2
f 139/1/2 137/1/2 138/1/2
f 140/1/2 141/1/2 143/1/2
f 143/1/2 141/1/2 142/1/2
f 144/1/2 145/1/2 147/1/2
f 147/1/2 145/1/2 146/1/2
f 148/1/2 149/1/2 151/1/2
f 151/1/2 149/1/2 150/1/2
f 152/1/2 153/1/2 155/1/2
f 155/1/2 153/1/2 154/1/2
f 156/1/2 157/1/2 159/1/2
f 159/1/2 157/1/2 158/1/2
f 160/1/2 161/1/2 163/1/2
f 163/1/2 161/1/2 162/1/2
f 164/1/2 165/1/2 167/1/2
f 167/1/2 165/1/2 166/1/2
f 168/1/2 169/1/2 171/1/2
f 171/1/2 169/1/2 170/1/2
f 172/1/2 173/1/2 175/1/2
f 175/1/2 173/1/2 174/1/2
f 176/1/2 177/1/2 179/1/2
f 179/1/2 177/1/2 178/1/2
f 180/1/2 181/1/2 183/1/2
f 183/1/2 181/1/2 182/1/2
f 184/1/2 185/1/2 187/1/2
f 187/1/2 185/1/2 186/1/2
f 188/1/2 189/1/2 191/1/2
f 191/1/2 189/1/2 190/1/2
f 192/1/2 193/1/2 194/1/2
f 194/1/2 193/1/2 191/1/2
f 195/1/2 196/1/2 198/1/2
f 198/1/2 196/1/2 197/1/2
f 199/1/2 200/1/2 202/1/2
f 202/1/2 200/1/2 201/1/2
f 203/1/2 204/1/2 206/1/2
f 206/1/2 204/1/2 205/1/2
f 207/1/2 208/1/2 210/1/2
f 210/1/2 208/1/2 209/1/2
f 211/1/2 212/1/2 214/1/2
f 214/1/2 212/1/2 213/1/2
f 215/1/2 216/1/2 218/1/2
f 218/1/2 216/1/2 217/1/2
f 219/1/2 220/1/2 222/1/2
f 222/1/2 220/1/2 221/1/2
f 223/1/2 224/1/2 226/1/2
f 226/1/2 224/1/2 225/1/2
f 226/1/2 227/1/2 228/1/2
f 228/1/2 227/1/2 130/1/2
f 3/1/3 2/1/3 117/1/3
f 117/1/3 2/1/3 118/1/3
f 24/1/3 21/1/3 138/1/3
f 138/1/3 21/1/3 133/1/3
f 7/1/3 13/1/3 121/1/3
f 121/1/3 13/1/3 128/1/3
f 12/1/3 16/1/3 126/1/3
f 126/1/3 16/1/3 131/1/3
f 20/1/3 19/1/3 134/1/3
f 134/1/3 19/1/3 135/1/3
f 18/1/3 23/1/3 132/1/3
f 132/1/3 23/1/3 139/1/3
f 15/1/3 73/1/3 129/1/3
f 129/1/3 73/1/3 185/1/3
f 32/1/3 31/1/3 146/1/3
f 146/1/3 31/1/3 147/1/3
f 72/1/3 41/1/3 186/1/3
f 186/1/3 41/1/3 153/1/3
f 36/1/3 35/1/3 150/1/3
f 150/1/3 35/1/3 151/1/3
f 40/1/3 39/1/3 154/1/3
f 154/1/3 39/1/3 155/1/3
f 48/1/3 47/1/3 162/1/3
f 162/1/3 47/1/3 163/1/3
f 38/1/3 65/1/3 152/1/3
f 152/1/3 65/1/3 177/1/3
f 60/1/3 69/1/3 174/1/3
f 174/1/3 69/1/3 181/1/3
f 64/1/3 63/1/3 178/1/3
f 178/1/3 63/1/3 179/1/3
f 68/1/3 67/1/3 182/1/3
f 182/1/3 67/1/3 183/1/3
f 62/1/3 71/1/3 176/1/3
f 176/1/3 71/1/3 187/1/3
f 87/1/3 84/1/3 201/1/3
f 201/1/3 84/1/3 196/1/3
f 70/1/3 100/1/3 184/1/3
f 184/1/3 100/1/3 212/1/3
f 99/1/3 92/1/3 213/1/3
f 213/1/3 92/1/3 204/1/3
f 83/1/3 82/1/3 197/1/3
f 197/1/3 82/1/3 198/1/3
f 81/1/3 86/1/3 195/1/3
f 195/1/3 86/1/3 202/1/3
f 91/1/3 90/1/3 205/1/3
f 205/1/3 90/1/3 206/1/3
f 89/1/3 98/1/3 203/1/3
f 203/1/3 98/1/3 214/1/3
f 97/1/3 104/1/3 211/1/3
f 211/1/3 104/1/3 216/1/3
f 103/1/3 102/1/3 217/1/3
f 217/1/3 102/1/3 218/1/3
f 107/1/3 106/1/3 221/1/3
f 221/1/3 106/1/3 222/1/3
f 101/1/3 113/1/3 215/1/3
f 215/1/3 113/1/3 228/1/3
f 4/1/4 116/1/4 1/1/4
f 1/1/4 116/1/4 115/1/4
f 8/1/4 120/1/4 5/1/4
f 5/1/4 120/1/4 119/1/4
f 11/1/4 124/1/4 9/1/4
f 9/1/4 124/1/4 123/1/4
f 114/1/4 227/1/4 56/1/4
f 56/1/4 227/1/4 170/1/4
f 25/1/4 137/1/4 22/1/4
f 22/1/4 137/1/4 136/1/4
f 57/1/4 169/1/4 28/1/4
f 28/1/4 169/1/4 142/1/4
f 29/1/4 141/1/4 26/1/4
f 26/1/4 141/1/4 140/1/4
f 33/1/4 145/1/4 30/1/4
f 30/1/4 145/1/4 144/1/4
f 37/1/4 149/1/4 34/1/4
f 34/1/4 149/1/4 148/1/4
f 27/1/4 143/1/4 44/1/4
f 44/1/4 143/1/4 158/1/4
f 45/1/4 157/1/4 42/1/4
f 42/1/4 157/1/4 156/1/4
f 49/1/4 161/1/4 46/1/4
f 46/1/4 161/1/4 160/1/4
f 43/1/4 159/1/4 52/1/4
f 52/1/4 159/1/4 166/1/4
f 53/1/4 165/1/4 50/1/4
f 50/1/4 165/1/4 164/1/4
f 51/1/4 167/1/4 54/1/4
f 54/1/4 167/1/4 168/1/4
f 61/1/4 173/1/4 58/1/4
f 58/1/4 173/1/4 172/1/4
f 59/1/4 175/1/4 66/1/4
f 66/1/4 175/1/4 180/1/4
f 55/1/4 171/1/4 76/1/4
f 76/1/4 171/1/4 190/1/4
f 77/1/4 189/1/4 74/1/4
f 74/1/4 189/1/4 188/1/4
f 80/1/4 193/1/4 78/1/4
f 78/1/4 193/1/4 192/1/4
f 88/1/4 200/1/4 85/1/4
f 85/1/4 200/1/4 199/1/4
f 79/1/4 194/1/4 111/1/4
f 111/1/4 194/1/4 225/1/4
f 112/1/4 224/1/4 95/1/4
f 95/1/4 224/1/4 209/1/4
f 96/1/4 208/1/4 93/1/4
f 93/1/4 208/1/4 207/1/4
f 108/1/4 220/1/4 105/1/4
f 105/1/4 220/1/4 219/1/4
f 94/1/4 210/1/4 109/1/4
f 109/1/4 210/1/4 223/1/4
f 120/1/5 8/1/5 115/1/5
f 115/1/5 8/1/5 1/1/5
f 139/1/5 23/1/5 136/1/5
f 136/1/5 23/1/5 22/1/5
f 151/1/5 35/1/5 148/1/5
f 148/1/5 35/1/5 34/1/5
f 163/1/5 47/1/5 160/1/5
f 160/1/5 47/1/5 46/1/5
f 175/1/5 59/1/5 172/1/5
f 172/1/5 59/1/5 58/1/5
f 202/1/5 86/1/5 199/1/5
f 199/1/5 86/1/5 85/1/5
f 124/1/5 11/1/5 119/1/5
f 119/1/5 11/1/5 5/1/5
f 135/1/5 19/1/5 132/1/5
f 132/1/5 19/1/5 18/1/5
f 143/1/5 27/1/5 140/1/5
f 140/1/5 27/1/5 26/1/5
f 159/1/5 43/1/5 156/1/5
f 156/1/5 43/1/5 42/1/5
f 167/1/5 51/1/5 164/1/5
f 164/1/5 51/1/5 50/1/5
f 183/1/5 67/1/5 180/1/5
f 180/1/5 67/1/5 66/1/5
f 193/1/5 80/1/5 188/1/5
f 188/1/5 80/1/5 74/1/5
f 198/1/5 82/1/5 195/1/5
f 195/1/5 82/1/5 81/1/5
f 210/1/5 94/1/5 207/1/5
f 207/1/5 94/1/5 93/1/5
f 227/1/5 114/1/5 123/1/5
f 123/1/5 114/1/5 9/1/5
f 171/1/5 55/1/5 168/1/5
f 168/1/5 55/1/5 54/1/5
f 194/1/5 79/1/5 192/1/5
f 192/1/5 79/1/5 78/1/5
f 131/1/5 16/1/5 129/1/5
f 129/1/5 16/1/5 15/1/5
f 187/1/5 71/1/5 184/1/5
f 184/1/5 71/1/5 70/1/5
f 214/1/5 98/1/5 211/1/5
f 211/1/5 98/1/5 97/1/5
f 218/1/5 102/1/5 215/1/5
f 215/1/5 102/1/5 101/1/5
f 128/1/5 13/1/5 126/1/5
f 126/1/5 13/1/5 12/1/5
f 155/1/5 39/1/5 152/1/5
f 152/1/5 39/1/5 38/1/5
f 179/1/5 63/1/5 176/1/5
f 176/1/5 63/1/5 62/1/5
f 206/1/5 90/1/5 203/1/5
f 203/1/5 90/1/5 89/1/5
f 118/1/5 2/1/5 121/1/5
f 121/1/5 2/1/5 7/1/5
f 147/1/5 31/1/5 144/1/5
f 144/1/5 31/1/5 30/1/5
f 138/1/6 137/1/6 24/1/6
f 24/1/6 137/1/6 25/1/6
f 150/1/6 149/1/6 36/1/6
f 36/1/6 149/1/6 37/1/6
f 162/1/6 161/1/6 48/1/6
f 48/1/6 161/1/6 49/1/6
f 174/1/6 173/1/6 60/1/6
f 60/1/6 173/1/6 61/1/6
f 201/1/6 200/1/6 87/1/6
f 87/1/6 200/1/6 88/1/6
f 221/1/6 220/1/6 107/1/6
f 107/1/6 220/1/6 108/1/6
f 134/1/6 133/1/6 20/1/6
f 20/1/6 133/1/6 21/1/6
f 142/1/6 141/1/6 28/1/6
f 28/1/6 141/1/6 29/1/6
f 158/1/6 157/1/6 44/1/6
f 44/1/6 157/1/6 45/1/6
f 166/1/6 165/1/6 52/1/6
f 52/1/6 165/1/6 53/1/6
f 182/1/6 181/1/6 68/1/6
f 68/1/6 181/1/6 69/1/6
f 197/1/6 196/1/6 83/1/6
f 83/1/6 196/1/6 84/1/6
f 209/1/6 208/1/6 95/1/6
f 95/1/6 208/1/6 96/1/6
f 170/1/6 169/1/6 56/1/6
f 56/1/6 169/1/6 57/1/6
f 190/1/6 189/1/6 76/1/6
f 76/1/6 189/1/6 77/1/6
f 225/1/6 224/1/6 111/1/6
f 111/1/6 224/1/6 112/1/6
f 186/1/6 185/1/6 72/1/6
f 72/1/6 185/1/6 73/1/6
f 213/1/6 212/1/6 99/1/6
f 99/1/6 212/1/6 100/1/6
f 217/1/6 216/1/6 103/1/6
f 103/1/6 216/1/6 104/1/6
f 154/1/6 153/1/6 40/1/6
f 40/1/6 153/1/6 41/1/6
f 178/1/6 177/1/6 64/1/6
f 64/1/6 177/1/6 65/1/6
f 205/1/6 204/1/6 91/1/6
f 91/1/6 204/1/6 92/1/6
f 117/1/6 116/1/6 3/1/6
f 3/1/6 116/1/6 4/1/6
f 146/1/6 145/1/6 32/1/6
f 32/1/6 145/1/6 33/1/6
f 229/1/1 230/1/1 109/1/1
f 109/1/1 230/1/1 113/1/1
f 231/1/1 232/1/1 234/1/1
f 234/1/1 232/1/1 233/1/1
f 235/1/1 236/1/1 238/1/1
f 238/1/1 236/1/1 237/1/1
f 239/1/1 240/1/1 105/1/1
f 105/1/1 240/1/1 106/1/1
f 241/1/1 242/1/1 244/1/1
f 244/1/1 242/1/1 243/1/1
f 245/1/1 246/1/1 248/1/1
f 248/1/1 246/1/1 247/1/1
f 246/1/1 249/1/1 251/1/1
f 251/1/1 249/1/1 250/1/1
f 249/1/1 252/1/1 254/1/1
f 254/1/1 252/1/1 253/1/1
f 252/1/1 255/1/1 256/1/1
f 256/1/1 255/1/1 230/1/1
f 255/1/1 257/1/1 259/1/1
f 259/1/1 257/1/1 258/1/1
f 257/1/1 260/1/1 262/1/1
f 262/1/1 260/1/1 261/1/1
f 260/1/1 263/1/1 265/1/1
f 265/1/1 263/1/1 264/1/1
f 266/1/2 223/1/2 267/1/2
f 267/1/2 223/1/2 228/1/2
f 268/1/2 269/1/2 271/1/2
f 271/1/2 269/1/2 270/1/2
f 272/1/2 273/1/2 275/1/2
f 275/1/2 273/1/2 274/1/2
f 276/1/2 219/1/2 277/1/2
f 277/1/2 219/1/2 222/1/2
f 278/1/2 279/1/2 281/1/2
f 281/1/2 279/1/2 280/1/2
f 282/1/2 283/1/2 285/1/2
f 285/1/2 283/1/2 284/1/2
f 285/1/2 286/1/2 288/1/2
f 288/1/2 286/1/2 287/1/2
f 288/1/2 289/1/2 291/1/2
f 291/1/2 289/1/2 290/1/2
f 291/1/2 292/1/2 293/1/2
f 293/1/2 292/1/2 267/1/2
f 293/1/2 294/1/2 296/1/2
f 296/1/2 294/1/2 295/1/2
f 296/1/2 297/1/2 299/1/2
f 299/1/2 297/1/2 298/1/2
f 299/1/2 300/1/2 302/1/2
f 302/1/2 300/1/2 301/1/2
f 106/1/3 234/1/3 222/1/3
f 222/1/3 234/1/3 269/1/3
f 113/1/3 238/1/3 228/1/3
f 228/1/3 238/1/3 273/1/3
f 233/1/3 232/1/3 270/1/3
f 270/1/3 232/1/3 271/1/3
f 237/1/3 236/1/3 274/1/3
f 274/1/3 236/1/3 275/1/3
f 231/1/3 240/1/3 268/1/3
f 268/1/3 240/1/3 277/1/3
f 235/1/3 259/1/3 272/1/3
f 272/1/3 259/1/3 294/1/3
f 258/1/3 262/1/3 295/1/3
f 295/1/3 262/1/3 297/1/3
f 247/1/3 251/1/3 284/1/3
f 284/1/3 251/1/3 286/1/3
f 261/1/3 265/1/3 298/1/3
f 298/1/3 265/1/3 300/1/3
f 264/1/3 263/1/3 301/1/3
f 301/1/3 263/1/3 302/1/3
f 109/1/4 223/1/4 229/1/4
f 229/1/4 223/1/4 266/1/4
f 256/1/4 292/1/4 253/1/4
f 253/1/4 292/1/4 290/1/4
f 105/1/4 219/1/4 239/1/4
f 239/1/4 219/1/4 276/1/4
f 254/1/4 289/1/4 243/1/4
f 243/1/4 289/1/4 280/1/4
f 244/1/4 279/1/4 241/1/4
f 241/1/4 279/1/4 278/1/4
f 242/1/4 281/1/4 250/1/4
f 250/1/4 281/1/4 287/1/4
f 248/1/4 283/1/4 245/1/4
f 245/1/4 283/1/4 282/1/4
f 277/1/5 240/1/5 276/1/5
f 276/1/5 240/1/5 239/1/5
f 271/1/5 232/1/5 268/1/5
f 268/1/5 232/1/5 231/1/5
f 281/1/5 242/1/5 278/1/5
f 278/1/5 242/1/5 241/1/5
f 292/1/5 256/1/5 266/1/5
f 266/1/5 256/1/5 229/1/5
f 275/1/5 236/1/5 272/1/5
f 272/1/5 236/1/5 235/1/5
f 302/1/5 263/1/5 282/1/5
f 282/1/5 263/1/5 245/1/5
f 284/1/6 283/1/6 247/1/6
f 247/1/6 283/1/6 248/1/6
f 270/1/6 269/1/6 233/1/6
f 233/1/6 269/1/6 234/1/6
f 280/1/6 279/1/6 243/1/6
f 243/1/6 279/1/6 244/1/6
f 287/1/6 286/1/6 250/1/6
f 250/1/6 286/1/6 251/1/6
f 290/1/6 289/1/6 253/1/6
f 253/1/6 289/1/6 254/1/6
f 274/1/6 273/1/6 237/1/6
f 237/1/6 273/1/6 238/1/6
f 295/1/6 294/1/6 258/1/6
f 258/1/6 294/1/6 259/1/6
f 298/1/6 297/1/6 261/1/6
f 261/1/6 297/1/6 262/1/6
f 301/1/6 300/1/6 264/1/6
f 264/1/6 300/1/6 265/1/6
