# Vengi binary mesh normalized for Tanks of Freedom II

mtllib ../../../materials/vox_grass.mtl
o cactus_4

v 0.1 0.4 0.2
v 0 0.4 0.2
v 0 0.4 0.3
v 0.1 0.4 0.3
v 0.1 0.9 0.2
v 0 0.9 0.2
v 0 0.9 0.3
v 0.1 0.9 0.3
v -0.1 0.6 0.2
v -0.2 0.6 0.2
v -0.2 0.6 0.3
v -0.1 0.6 0.3
v 0.2 0.2 0.1
v 0.1 0.2 0.1
v 0.1 0.2 0.2
v 0.2 0.2 0.2
v 0.2 0.7 0.1
v 0.1 0.7 0.1
v 0.1 0.7 0.2
v 0.2 0.7 0.2
v 0.2 1.1 0.1
v 0.1 1.1 0.1
v 0.1 1.1 0.2
v 0.2 1.1 0.2
v -0.1 1.1 0.1
v -0.1 1.1 0.2
v -0.1 0.2 0.1
v -0.2 0.2 0.1
v -0.2 0.2 0.2
v -0.1 0.2 0.2
v -0.1 1 0.1
v -0.2 1 0.1
v -0.2 1 0.2
v -0.1 1 0.2
v -0.1 0.6 0.1
v -0.3 0.6 0.1
v -0.3 0.6 0.2
v 0.3 0.4 0
v 0.2 0.4 0
v 0.2 0.4 0.1
v 0.3 0.4 0.1
v 0.3 0.9 0
v 0.2 0.9 0
v 0.2 0.9 0.1
v 0.3 0.9 0.1
v 0 1.2 0
v -0.1 1.2 0
v -0.1 1.2 0.1
v 0 1.2 0.1
v -0.2 0.9 0
v -0.3 0.9 0
v -0.3 0.9 0.1
v -0.2 0.9 0.1
v -0.3 0.6 0
v -0.4 0.6 0
v -0.4 0.6 0.1
v -0.4 0.5 0
v -0.5 0.5 0
v -0.5 0.5 0.1
v -0.4 0.5 0.1
v 0.3 0.8 -0.1
v 0.2 0.8 -0.1
v 0.2 0.8 0
v 0.3 0.8 0
v 0.2 1.1 -0.1
v 0.1 1.1 -0.1
v 0.1 1.2 -0.1
v 0 1.2 -0.1
v 0.1 1.2 0.1
v 0 1.3 -0.1
v -0.1 1.3 -0.1
v -0.1 1.3 0
v 0 1.3 0
v -0.1 1.1 -0.1
v -0.2 1.1 -0.1
v -0.2 1.1 0.1
v -0.2 0.2 -0.1
v -0.3 0.2 -0.1
v -0.3 0.2 0
v -0.2 0.2 0
v -0.2 0.7 -0.1
v -0.3 0.7 -0.1
v -0.3 0.7 0.1
v -0.2 0.7 0.1
v -0.3 1.1 -0.1
v -0.3 1.1 0
v -0.2 1.1 0
v -0.4 0.7 -0.1
v -0.4 0.7 0
v -0.3 0.7 0
v 0.2 0.3 -0.2
v 0.1 0.3 -0.2
v 0.1 0.3 -0.1
v 0.2 0.3 -0.1
v 0.2 1 -0.2
v 0.1 1 -0.2
v 0.1 1 -0.1
v 0.2 1 -0.1
v 0.1 1.1 -0.2
v -0.1 1.1 -0.2
v -0.1 0.6 -0.2
v -0.3 0.6 -0.2
v -0.3 0.6 -0.1
v -0.1 0.6 -0.1
v 0.1 0.5 -0.3
v 0 0.5 -0.3
v 0 0.5 -0.2
v 0.1 0.5 -0.2
v 0.1 0.8 -0.3
v 0 0.8 -0.3
v 0 0.8 -0.2
v 0.1 0.8 -0.2
v 0 0.2 -0.3
v -0.1 0.2 -0.3
v -0.1 0.2 -0.2
v 0 0.2 -0.2
v 0 1 -0.3
v -0.1 1 -0.3
v -0.1 1 -0.2
v 0 1 -0.2
v -0.1 0.6 -0.3
v -0.2 0.6 -0.3
v -0.2 0.6 -0.2
v 0.1 0.3 0.2
v 0.1 0.3 0.3
v 0 0.3 0.3
v 0 0.3 0.2
v 0.1 0.8 0.2
v 0.1 0.8 0.3
v 0 0.8 0.3
v 0 0.8 0.2
v -0.1 0.5 0.2
v -0.1 0.5 0.3
v -0.2 0.5 0.3
v -0.2 0.5 0.2
v 0.2 0.1 0.1
v 0.2 0.1 0.2
v 0.1 0.1 0.2
v 0.1 0.1 0.1
v 0.2 0.6 0.1
v 0.2 0.6 0.2
v 0.1 0.6 0.2
v 0.1 0.6 0.1
v 0.2 1 0.1
v 0.2 1 0.2
v 0.1 1 0.2
v 0.1 1 0.1
v -0.1 0.1 0.1
v -0.1 0.1 0.2
v -0.2 0.1 0.2
v -0.2 0.1 0.1
v -0.1 0.9 0.1
v -0.1 0.9 0.2
v -0.2 0.9 0.2
v -0.1 0.4 0.1
v -0.1 0.4 0.2
v -0.3 0.4 0.2
v -0.3 0.4 0.1
v 0.3 0.3 0
v 0.3 0.3 0.1
v 0.2 0.3 0.1
v 0.2 0.3 0
v 0.3 0.8 0.1
v 0.2 0.8 0.1
v -0.2 0.8 0
v -0.2 0.8 0.1
v -0.3 0.8 0.1
v -0.3 0.8 0
v -0.4 0.4 0
v -0.4 0.4 0.1
v -0.5 0.4 0.1
v -0.5 0.4 0
v 0.3 0.7 -0.1
v 0.3 0.7 0
v 0.2 0.7 0
v 0.2 0.7 -0.1
v 0.2 0 -0.1
v 0.2 0 0.1
v 0.1 0 0.1
v 0.1 0 -0.1
v -0.1 0 -0.1
v -0.1 0 0.1
v -0.2 0 0.1
v -0.2 0 -0.1
v -0.2 0.1 -0.1
v -0.2 0.1 0
v -0.3 0.1 0
v -0.3 0.1 -0.1
v -0.2 0.3 -0.1
v -0.2 0.3 0.1
v -0.3 0.3 0.1
v -0.3 0.3 -0.1
v -0.2 1 -0.1
v -0.2 1 0
v -0.3 1 0
v -0.3 1 -0.1
v -0.3 0.4 -0.1
v -0.4 0.4 -0.1
v 0.2 0.2 -0.2
v 0.2 0.2 -0.1
v 0.1 0.2 -0.1
v 0.1 0.2 -0.2
v 0.2 0.9 -0.2
v 0.2 0.9 -0.1
v 0.1 0.9 -0.1
v 0.1 0.9 -0.2
v 0.1 0 -0.2
v 0.1 0 0.2
v -0.1 0 0.2
v -0.1 0 -0.2
v -0.1 0.4 -0.2
v -0.1 0.4 -0.1
v -0.3 0.4 -0.2
v 0.1 0.4 -0.3
v 0.1 0.4 -0.2
v 0 0.4 -0.2
v 0 0.4 -0.3
v 0.1 0.7 -0.3
v 0.1 0.7 -0.2
v 0 0.7 -0.2
v 0 0.7 -0.3
v 0 0.1 -0.3
v 0 0.1 -0.2
v -0.1 0.1 -0.2
v -0.1 0.1 -0.3
v 0 0.9 -0.3
v 0 0.9 -0.2
v -0.1 0.9 -0.2
v -0.1 0.9 -0.3
v -0.1 0.5 -0.3
v -0.1 0.5 -0.2
v -0.2 0.5 -0.2
v -0.2 0.5 -0.3
v -0.2 0 0
v -0.2 0.3 0
v -0.4 0.6 -0.1
v -0.2 0.8 -0.1
v -0.1 1.2 -0.1
v 0.2 1.1 0
v 0.1 0.1 -0.2
v 0 1.1 -0.2
v -0.1 0.7 -0.2
v -0.1 0.8 -0.2
v -0.2 0.4 -0.1
v -0.1 0.7 -0.1
v -0.3 0.5 -0.2
v -0.1 0.3 0.2
v 0.1 0.5 0.2
v -0.1 0.8 0.2
v -0.2 0.4 0.1
v -0.1 0.7 0.1
v -0.3 0.5 0.2

vt 0.0488281 0.5
vt 0.0996094 0.5

vn 0 1 0
vn 0 -1 0
vn -1 0 0
vn 1 0 0
vn 0 0 -1
vn 0 0 1

usemtl palette
f 1/2/1 2/2/1 4/2/1
f 4/2/1 2/2/1 3/2/1
f 5/2/1 6/2/1 8/2/1
f 8/2/1 6/2/1 7/2/1
f 9/2/1 10/2/1 12/2/1
f 12/2/1 10/2/1 11/2/1
f 13/2/1 14/2/1 16/2/1
f 16/2/1 14/2/1 15/2/1
f 17/2/1 18/2/1 20/2/1
f 20/2/1 18/2/1 19/2/1
f 21/2/1 22/2/1 24/2/1
f 24/2/1 22/2/1 23/2/1
f 22/1/1 25/1/1 23/1/1
f 23/1/1 25/1/1 26/1/1
f 27/2/1 28/2/1 30/2/1
f 30/2/1 28/2/1 29/2/1
f 31/2/1 32/2/1 34/2/1
f 34/2/1 32/2/1 33/2/1
f 35/1/1 36/1/1 9/1/1
f 9/1/1 36/1/1 37/1/1
f 38/2/1 39/2/1 41/2/1
f 41/2/1 39/2/1 40/2/1
f 42/2/1 43/2/1 45/2/1
f 45/2/1 43/2/1 44/2/1
f 46/1/1 47/1/1 49/1/1
f 49/1/1 47/1/1 48/1/1
f 50/2/1 51/2/1 53/2/1
f 53/2/1 51/2/1 52/2/1
f 54/1/1 55/1/1 36/1/1
f 36/1/1 55/1/1 56/1/1
f 57/2/1 58/2/1 60/2/1
f 60/2/1 58/2/1 59/2/1
f 61/2/1 62/2/1 64/2/1
f 64/2/1 62/2/1 63/2/1
f 65/1/1 66/1/1 21/1/1
f 21/1/1 66/1/1 22/1/1
f 67/1/1 68/1/1 69/1/1
f 69/1/1 68/1/1 49/1/1
f 70/2/1 71/2/1 73/2/1
f 73/2/1 71/2/1 72/2/1
f 74/1/1 75/1/1 25/1/1
f 25/1/1 75/1/1 76/1/1
f 77/2/1 78/2/1 80/2/1
f 80/2/1 78/2/1 79/2/1
f 81/1/1 82/1/1 84/1/1
f 84/1/1 82/1/1 83/1/1
f 75/2/1 85/2/1 87/2/1
f 87/2/1 85/2/1 86/2/1
f 82/2/1 88/2/1 90/2/1
f 90/2/1 88/2/1 89/2/1
f 91/2/1 92/2/1 94/2/1
f 94/2/1 92/2/1 93/2/1
f 95/2/1 96/2/1 98/2/1
f 98/2/1 96/2/1 97/2/1
f 99/1/1 100/1/1 66/1/1
f 66/1/1 100/1/1 74/1/1
f 101/1/1 102/1/1 104/1/1
f 104/1/1 102/1/1 103/1/1
f 105/2/1 106/2/1 108/2/1
f 108/2/1 106/2/1 107/2/1
f 109/2/1 110/2/1 112/2/1
f 112/2/1 110/2/1 111/2/1
f 113/2/1 114/2/1 116/2/1
f 116/2/1 114/2/1 115/2/1
f 117/2/1 118/2/1 120/2/1
f 120/2/1 118/2/1 119/2/1
f 121/2/1 122/2/1 101/2/1
f 101/2/1 122/2/1 123/2/1
f 124/2/2 125/2/2 127/2/2
f 127/2/2 125/2/2 126/2/2
f 128/2/2 129/2/2 131/2/2
f 131/2/2 129/2/2 130/2/2
f 132/2/2 133/2/2 135/2/2
f 135/2/2 133/2/2 134/2/2
f 136/2/2 137/2/2 139/2/2
f 139/2/2 137/2/2 138/2/2
f 140/2/2 141/2/2 143/2/2
f 143/2/2 141/2/2 142/2/2
f 144/2/2 145/2/2 147/2/2
f 147/2/2 145/2/2 146/2/2
f 148/2/2 149/2/2 151/2/2
f 151/2/2 149/2/2 150/2/2
f 152/2/2 153/2/2 53/2/2
f 53/2/2 153/2/2 154/2/2
f 155/1/2 156/1/2 158/1/2
f 158/1/2 156/1/2 157/1/2
f 159/2/2 160/2/2 162/2/2
f 162/2/2 160/2/2 161/2/2
f 64/2/2 163/2/2 63/2/2
f 63/2/2 163/2/2 164/2/2
f 165/2/2 166/2/2 168/2/2
f 168/2/2 166/2/2 167/2/2
f 169/2/2 170/2/2 172/2/2
f 172/2/2 170/2/2 171/2/2
f 173/2/2 174/2/2 176/2/2
f 176/2/2 174/2/2 175/2/2
f 177/1/2 178/1/2 180/1/2
f 180/1/2 178/1/2 179/1/2
f 181/1/2 182/1/2 184/1/2
f 184/1/2 182/1/2 183/1/2
f 185/2/2 186/2/2 188/2/2
f 188/2/2 186/2/2 187/2/2
f 189/1/2 190/1/2 192/1/2
f 192/1/2 190/1/2 191/1/2
f 193/2/2 194/2/2 196/2/2
f 196/2/2 194/2/2 195/2/2
f 197/1/2 158/1/2 198/1/2
f 198/1/2 158/1/2 170/1/2
f 199/2/2 200/2/2 202/2/2
f 202/2/2 200/2/2 201/2/2
f 203/2/2 204/2/2 206/2/2
f 206/2/2 204/2/2 205/2/2
f 207/1/2 208/1/2 210/1/2
f 210/1/2 208/1/2 209/1/2
f 211/1/2 212/1/2 213/1/2
f 213/1/2 212/1/2 197/1/2
f 214/2/2 215/2/2 217/2/2
f 217/2/2 215/2/2 216/2/2
f 218/2/2 219/2/2 221/2/2
f 221/2/2 219/2/2 220/2/2
f 222/2/2 223/2/2 225/2/2
f 225/2/2 223/2/2 224/2/2
f 226/2/2 227/2/2 229/2/2
f 229/2/2 227/2/2 228/2/2
f 230/2/2 231/2/2 233/2/2
f 233/2/2 231/2/2 232/2/2
f 149/1/3 148/1/3 209/1/3
f 209/1/3 148/1/3 182/1/3
f 186/1/3 185/1/3 234/1/3
f 234/1/3 185/1/3 184/1/3
f 29/2/3 28/2/3 150/2/3
f 150/2/3 28/2/3 151/2/3
f 79/2/3 78/2/3 187/2/3
f 187/2/3 78/2/3 188/2/3
f 115/2/3 114/2/3 224/2/3
f 224/2/3 114/2/3 225/2/3
f 190/1/3 235/1/3 183/1/3
f 183/1/3 235/1/3 234/1/3
f 235/1/3 189/1/3 80/1/3
f 80/1/3 189/1/3 77/1/3
f 3/2/3 2/2/3 126/2/3
f 126/2/3 2/2/3 127/2/3
f 156/1/3 155/1/3 30/1/3
f 30/1/3 155/1/3 27/1/3
f 158/1/3 197/1/3 191/1/3
f 191/1/3 197/1/3 192/1/3
f 212/1/3 211/1/3 181/1/3
f 181/1/3 211/1/3 210/1/3
f 59/2/3 58/2/3 171/2/3
f 171/2/3 58/2/3 172/2/3
f 107/2/3 106/2/3 216/2/3
f 216/2/3 106/2/3 217/2/3
f 11/2/3 10/2/3 134/2/3
f 134/2/3 10/2/3 135/2/3
f 37/1/3 36/1/3 157/1/3
f 157/1/3 36/1/3 158/1/3
f 56/1/3 55/1/3 60/1/3
f 60/1/3 55/1/3 57/1/3
f 55/1/3 236/1/3 169/1/3
f 169/1/3 236/1/3 198/1/3
f 103/1/3 102/1/3 197/1/3
f 197/1/3 102/1/3 213/1/3
f 123/2/3 122/2/3 232/2/3
f 232/2/3 122/2/3 233/2/3
f 83/1/3 90/1/3 36/1/3
f 36/1/3 90/1/3 54/1/3
f 89/2/3 88/2/3 55/2/3
f 55/2/3 88/2/3 236/2/3
f 166/1/3 237/1/3 84/1/3
f 84/1/3 237/1/3 81/1/3
f 111/2/3 110/2/3 220/2/3
f 220/2/3 110/2/3 221/2/3
f 7/2/3 6/2/3 130/2/3
f 130/2/3 6/2/3 131/2/3
f 153/1/3 152/1/3 9/1/3
f 9/1/3 152/1/3 35/1/3
f 52/2/3 51/2/3 167/2/3
f 167/2/3 51/2/3 168/2/3
f 33/2/3 32/2/3 154/2/3
f 154/2/3 32/2/3 53/2/3
f 194/1/3 193/1/3 165/1/3
f 165/1/3 193/1/3 237/1/3
f 119/2/3 118/2/3 228/2/3
f 228/2/3 118/2/3 229/2/3
f 26/1/3 25/1/3 34/1/3
f 34/1/3 25/1/3 31/1/3
f 76/1/3 87/1/3 53/1/3
f 53/1/3 87/1/3 50/1/3
f 86/2/3 85/2/3 195/2/3
f 195/2/3 85/2/3 196/2/3
f 74/1/3 100/1/3 104/1/3
f 104/1/3 100/1/3 101/1/3
f 48/1/3 238/1/3 25/1/3
f 25/1/3 238/1/3 74/1/3
f 72/2/3 71/2/3 47/2/3
f 47/2/3 71/2/3 238/2/3
f 138/1/4 208/1/4 139/1/4
f 139/1/4 208/1/4 179/1/4
f 16/2/4 137/2/4 13/2/4
f 13/2/4 137/2/4 136/2/4
f 201/1/4 180/1/4 202/1/4
f 202/1/4 180/1/4 207/1/4
f 116/2/4 223/2/4 113/2/4
f 113/2/4 223/2/4 222/2/4
f 161/1/4 178/1/4 94/1/4
f 94/1/4 178/1/4 177/1/4
f 94/2/4 200/2/4 91/2/4
f 91/2/4 200/2/4 199/2/4
f 4/2/4 125/2/4 1/2/4
f 1/2/4 125/2/4 124/2/4
f 41/2/4 160/2/4 38/2/4
f 38/2/4 160/2/4 159/2/4
f 108/2/4 215/2/4 105/2/4
f 105/2/4 215/2/4 214/2/4
f 12/2/4 133/2/4 9/2/4
f 9/2/4 133/2/4 132/2/4
f 142/1/4 15/1/4 143/1/4
f 143/1/4 15/1/4 14/1/4
f 101/2/4 231/2/4 121/2/4
f 121/2/4 231/2/4 230/2/4
f 20/2/4 141/2/4 17/2/4
f 17/2/4 141/2/4 140/2/4
f 175/1/4 162/1/4 176/1/4
f 176/1/4 162/1/4 94/1/4
f 164/1/4 40/1/4 63/1/4
f 63/1/4 40/1/4 39/1/4
f 64/2/4 174/2/4 61/2/4
f 61/2/4 174/2/4 173/2/4
f 112/2/4 219/2/4 109/2/4
f 109/2/4 219/2/4 218/2/4
f 8/2/4 129/2/4 5/2/4
f 5/2/4 129/2/4 128/2/4
f 45/2/4 163/2/4 42/2/4
f 42/2/4 163/2/4 64/2/4
f 205/1/4 93/1/4 206/1/4
f 206/1/4 93/1/4 92/1/4
f 146/1/4 19/1/4 147/1/4
f 147/1/4 19/1/4 18/1/4
f 98/2/4 204/2/4 95/2/4
f 95/2/4 204/2/4 203/2/4
f 120/2/4 227/2/4 117/2/4
f 117/2/4 227/2/4 226/2/4
f 24/2/4 145/2/4 21/2/4
f 21/2/4 145/2/4 144/2/4
f 21/1/4 44/1/4 239/1/4
f 239/1/4 44/1/4 43/1/4
f 239/1/4 63/1/4 65/1/4
f 65/1/4 63/1/4 62/1/4
f 66/1/4 97/1/4 99/1/4
f 99/1/4 97/1/4 96/1/4
f 69/1/4 22/1/4 67/1/4
f 67/1/4 22/1/4 66/1/4
f 73/2/4 46/2/4 70/2/4
f 70/2/4 46/2/4 68/2/4
f 162/2/5 39/2/5 159/2/5
f 159/2/5 39/2/5 38/2/5
f 176/2/5 62/2/5 173/2/5
f 173/2/5 62/2/5 61/2/5
f 63/2/5 43/2/5 64/2/5
f 64/2/5 43/2/5 42/2/5
f 180/1/5 201/1/5 177/1/5
f 177/1/5 201/1/5 200/1/5
f 202/2/5 92/2/5 199/2/5
f 199/2/5 92/2/5 91/2/5
f 93/1/5 205/1/5 94/1/5
f 94/1/5 205/1/5 204/1/5
f 206/2/5 96/2/5 203/2/5
f 203/2/5 96/2/5 95/2/5
f 97/1/5 66/1/5 98/1/5
f 98/1/5 66/1/5 65/1/5
f 223/1/5 216/1/5 240/1/5
f 240/1/5 216/1/5 215/1/5
f 217/2/5 106/2/5 214/2/5
f 214/2/5 106/2/5 105/2/5
f 221/2/5 110/2/5 218/2/5
f 218/2/5 110/2/5 109/2/5
f 227/1/5 241/1/5 206/1/5
f 206/1/5 241/1/5 99/1/5
f 210/1/5 224/1/5 207/1/5
f 207/1/5 224/1/5 240/1/5
f 225/2/5 114/2/5 222/2/5
f 222/2/5 114/2/5 113/2/5
f 115/1/5 231/1/5 116/1/5
f 116/1/5 231/1/5 107/1/5
f 231/1/5 242/1/5 108/1/5
f 108/1/5 242/1/5 219/1/5
f 242/1/5 243/1/5 220/1/5
f 220/1/5 243/1/5 111/1/5
f 243/1/5 228/1/5 112/1/5
f 112/1/5 228/1/5 206/1/5
f 229/2/5 118/2/5 226/2/5
f 226/2/5 118/2/5 117/2/5
f 119/1/5 100/1/5 120/1/5
f 120/1/5 100/1/5 241/1/5
f 74/1/5 238/1/5 66/1/5
f 66/1/5 238/1/5 67/1/5
f 238/2/5 71/2/5 68/2/5
f 68/2/5 71/2/5 70/2/5
f 184/1/5 244/1/5 181/1/5
f 181/1/5 244/1/5 212/1/5
f 233/2/5 122/2/5 230/2/5
f 230/2/5 122/2/5 121/2/5
f 81/1/5 75/1/5 245/1/5
f 245/1/5 75/1/5 74/1/5
f 188/2/5 78/2/5 185/2/5
f 185/2/5 78/2/5 77/2/5
f 192/1/5 197/1/5 189/1/5
f 189/1/5 197/1/5 244/1/5
f 213/1/5 246/1/5 211/1/5
f 211/1/5 246/1/5 231/1/5
f 246/1/5 102/1/5 232/1/5
f 232/1/5 102/1/5 123/1/5
f 103/1/5 82/1/5 104/1/5
f 104/1/5 82/1/5 245/1/5
f 168/2/5 51/2/5 165/2/5
f 165/2/5 51/2/5 50/2/5
f 196/2/5 85/2/5 193/2/5
f 193/2/5 85/2/5 75/2/5
f 198/1/5 236/1/5 197/1/5
f 197/1/5 236/1/5 103/1/5
f 236/2/5 88/2/5 103/2/5
f 103/2/5 88/2/5 82/2/5
f 172/2/5 58/2/5 169/2/5
f 169/2/5 58/2/5 57/2/5
f 161/2/6 160/2/6 40/2/6
f 40/2/6 160/2/6 41/2/6
f 175/2/6 174/2/6 63/2/6
f 63/2/6 174/2/6 64/2/6
f 164/2/6 163/2/6 44/2/6
f 44/2/6 163/2/6 45/2/6
f 179/1/6 178/1/6 139/1/6
f 139/1/6 178/1/6 136/1/6
f 138/2/6 137/2/6 15/2/6
f 15/2/6 137/2/6 16/2/6
f 14/1/6 13/1/6 143/1/6
f 143/1/6 13/1/6 140/1/6
f 142/2/6 141/2/6 19/2/6
f 19/2/6 141/2/6 20/2/6
f 18/1/6 17/1/6 147/1/6
f 147/1/6 17/1/6 144/1/6
f 146/2/6 145/2/6 23/2/6
f 23/2/6 145/2/6 24/2/6
f 126/2/6 125/2/6 3/2/6
f 3/2/6 125/2/6 4/2/6
f 130/2/6 129/2/6 7/2/6
f 7/2/6 129/2/6 8/2/6
f 209/1/6 208/1/6 247/1/6
f 247/1/6 208/1/6 124/1/6
f 247/1/6 127/1/6 156/1/6
f 156/1/6 127/1/6 2/1/6
f 132/1/6 248/1/6 249/1/6
f 249/1/6 248/1/6 128/1/6
f 249/1/6 131/1/6 153/1/6
f 153/1/6 131/1/6 6/1/6
f 153/1/6 5/1/6 26/1/6
f 26/1/6 5/1/6 23/1/6
f 25/1/6 22/1/6 48/1/6
f 48/1/6 22/1/6 69/1/6
f 47/2/6 46/2/6 72/2/6
f 72/2/6 46/2/6 73/2/6
f 183/1/6 182/1/6 151/1/6
f 151/1/6 182/1/6 148/1/6
f 150/2/6 149/2/6 29/2/6
f 29/2/6 149/2/6 30/2/6
f 28/1/6 27/1/6 250/1/6
f 250/1/6 27/1/6 155/1/6
f 134/2/6 133/2/6 11/2/6
f 11/2/6 133/2/6 12/2/6
f 84/1/6 251/1/6 53/1/6
f 53/1/6 251/1/6 152/1/6
f 154/2/6 153/2/6 33/2/6
f 33/2/6 153/2/6 34/2/6
f 32/1/6 31/1/6 76/1/6
f 76/1/6 31/1/6 25/1/6
f 187/2/6 186/2/6 79/2/6
f 79/2/6 186/2/6 80/2/6
f 191/1/6 190/1/6 158/1/6
f 158/1/6 190/1/6 250/1/6
f 157/1/6 1/1/6 252/1/6
f 252/1/6 1/1/6 248/1/6
f 252/1/6 135/1/6 37/1/6
f 37/1/6 135/1/6 10/1/6
f 36/1/6 35/1/6 83/1/6
f 83/1/6 35/1/6 251/1/6
f 167/2/6 166/2/6 52/2/6
f 52/2/6 166/2/6 53/2/6
f 195/2/6 194/2/6 86/2/6
f 86/2/6 194/2/6 87/2/6
f 170/1/6 158/1/6 56/1/6
f 56/1/6 158/1/6 36/1/6
f 55/2/6 54/2/6 89/2/6
f 89/2/6 54/2/6 90/2/6
f 171/2/6 170/2/6 59/2/6
f 59/2/6 170/2/6 60/2/6
