# Vengi binary mesh normalized for Tanks of Freedom II

mtllib ../../../materials/vox_grass.mtl
o cactus_2

v 0.1 0.3 0.2
v 0 0.3 0.2
v 0 0.3 0.3
v 0.1 0.3 0.3
v 0.1 1 0.2
v 0 1 0.2
v 0 1 0.3
v 0.1 1 0.3
v 0.1 1.4 0.2
v 0 1.4 0.2
v 0 1.4 0.3
v 0.1 1.4 0.3
v 0.1 1.8 0.2
v 0 1.8 0.2
v 0 1.8 0.3
v 0.1 1.8 0.3
v 0 0.5 0.2
v -0.1 0.5 0.2
v -0.1 0.5 0.3
v 0 0.5 0.3
v 0 0.9 0.2
v -0.1 0.9 0.2
v -0.1 0.9 0.3
v 0 0.9 0.3
v 0 1.5 0.2
v -0.1 1.5 0.2
v -0.1 1.5 0.3
v 0 1.5 0.3
v 0 1.9 0.2
v -0.1 1.9 0.2
v -0.1 1.9 0.3
v 0 1.9 0.3
v 0 2.1 0.2
v -0.1 2.1 0.2
v -0.1 2.1 0.3
v 0 2.1 0.3
v -0.1 0.2 0.2
v -0.2 0.2 0.2
v -0.2 0.2 0.3
v -0.1 0.2 0.3
v -0.1 0.7 0.2
v -0.2 0.7 0.2
v -0.2 0.7 0.3
v -0.1 0.7 0.3
v -0.1 1.2 0.2
v -0.2 1.2 0.2
v -0.2 1.2 0.3
v -0.1 1.2 0.3
v -0.1 1.7 0.2
v -0.2 1.7 0.2
v -0.2 1.7 0.3
v -0.1 1.7 0.3
v 0.7 1.9 0.1
v 0.6 1.9 0.1
v 0.6 1.9 0.2
v 0.7 1.9 0.2
v 0.6 1.6 0.1
v 0.5 1.6 0.1
v 0.5 1.6 0.2
v 0.6 1.6 0.2
v 0.6 2 0.1
v 0.5 2 0.1
v 0.5 2 0.2
v 0.6 2 0.2
v 0.5 1.8 0.1
v 0.4 1.8 0.1
v 0.4 1.8 0.2
v 0.5 1.8 0.2
v 0.4 1.4 0.1
v 0.3 1.4 0.1
v 0.3 1.4 0.2
v 0.4 1.4 0.2
v 0.1 2 0.1
v -0.2 2 0.1
v -0.2 2 0.2
v 0.1 2 0.2
v -0.3 0.7 0.1
v -0.4 0.7 0.1
v -0.4 0.7 0.2
v -0.3 0.7 0.2
v -0.4 0.8 0.1
v -0.5 0.8 0.1
v -0.5 0.8 0.2
v -0.4 0.8 0.2
v -0.5 1 0.1
v -0.6 1 0.1
v -0.6 1 0.2
v -0.5 1 0.2
v -0.5 1.6 0.1
v -0.6 1.6 0.1
v -0.6 1.6 0.2
v -0.5 1.6 0.2
v -0.6 0.8 0.1
v -0.7 0.8 0.1
v -0.7 0.8 0.2
v -0.6 0.8 0.2
v -0.6 1.2 0.1
v -0.7 1.2 0.1
v -0.7 1.2 0.2
v -0.6 1.2 0.2
v -0.6 1.4 0.1
v -0.7 1.4 0.1
v -0.7 1.4 0.2
v -0.6 1.4 0.2
v -0.7 1.1 0.1
v -0.8 1.1 0.1
v -0.8 1.1 0.2
v -0.7 1.1 0.2
v -0.7 1.7 0.1
v -0.8 1.7 0.1
v -0.8 1.7 0.2
v -0.7 1.7 0.2
v 0.8 1.9 0
v 0.7 1.9 0
v 0.8 1.9 0.1
v 0.6 2 0
v 0.4 2 0
v 0.4 2 0.1
v 0.3 0.4 0
v 0.2 0.4 0
v 0.2 0.4 0.1
v 0.3 0.4 0.1
v 0.3 0.7 0
v 0.2 0.7 0
v 0.2 0.7 0.1
v 0.3 0.7 0.1
v 0.3 1.6 0
v 0.2 1.6 0
v 0.2 1.6 0.1
v 0.3 1.6 0.1
v 0.3 2 0
v 0.2 2 0
v 0.2 2 0.1
v 0.3 2 0.1
v 0.1 2 0
v 0 2.2 0
v -0.1 2.2 0
v -0.1 2.2 0.1
v 0 2.2 0.1
v -0.1 2.3 0
v -0.2 2.3 0
v -0.2 2.3 0.1
v -0.1 2.3 0.1
v -0.3 0.3 0
v -0.4 0.3 0
v -0.4 0.3 0.1
v -0.3 0.3 0.1
v -0.3 1.3 0
v -0.4 1.3 0
v -0.4 1.3 0.1
v -0.3 1.3 0.1
v -0.3 2 0
v -0.4 2 0
v -0.4 2 0.1
v -0.3 2 0.1
v -0.4 1.2 0
v -0.5 1.2 0
v -0.5 1.2 0.1
v -0.4 1.2 0.1
v -0.4 1.7 0
v -0.5 1.7 0
v -0.5 1.7 0.1
v -0.4 1.7 0.1
v -0.6 1.8 0
v -0.8 1.8 0
v -0.8 1.8 0.1
v -0.6 1.8 0.1
v -0.8 1.3 0
v -0.9 1.3 0
v -0.9 1.3 0.1
v -0.8 1.3 0.1
v 0.8 1.6 -0.1
v 0.7 1.6 -0.1
v 0.7 1.6 0
v 0.8 1.6 0
v 0.8 1.8 -0.1
v 0.7 1.8 -0.1
v 0.7 1.8 0
v 0.8 1.8 0
v 0.6 2.1 -0.1
v 0.5 2.1 -0.1
v 0.5 2.1 0
v 0.6 2.1 0
v 0.4 1.9 -0.1
v 0.3 1.9 -0.1
v 0.3 1.9 0
v 0.4 1.9 0
v 0.3 0.2 -0.1
v 0.2 0.2 -0.1
v 0.2 0.2 0
v 0.3 0.2 0
v 0.3 0.9 -0.1
v 0.2 0.9 -0.1
v 0.2 0.9 0
v 0.3 0.9 0
v 0.3 1.1 -0.1
v 0.2 1.1 -0.1
v 0.2 1.1 0
v 0.3 1.1 0
v 0.3 1.8 -0.1
v 0.2 1.8 -0.1
v 0.2 1.8 0
v 0.3 1.8 0
v 0.2 2.1 -0.1
v 0.1 2.1 -0.1
v 0.1 2.1 0
v 0.2 2.1 0
v 0 2.3 -0.1
v -0.1 2.3 -0.1
v 0 2.3 0
v -0.3 1.1 -0.1
v -0.4 1.1 -0.1
v -0.4 1.1 0
v -0.3 1.1 0
v -0.3 1.6 -0.1
v -0.4 1.6 -0.1
v -0.4 1.6 0
v -0.3 1.6 0
v -0.6 1.9 -0.1
v -0.7 1.9 -0.1
v -0.7 1.9 0
v -0.6 1.9 0
v -0.8 1.1 -0.1
v -0.9 1.1 -0.1
v -0.9 1.1 0
v -0.8 1.1 0
v -0.8 1.6 -0.1
v -0.9 1.6 -0.1
v -0.9 1.6 0
v -0.8 1.6 0
v 0.8 2 -0.2
v 0.7 2 -0.2
v 0.7 2 -0.1
v 0.8 2 -0.1
v 0.6 2 -0.2
v 0.7 2 0.1
v 0.5 2 -0.2
v 0.5 2 -0.1
v 0.6 2 -0.1
v 0.4 2 -0.2
v 0.5 2 0
v 0.4 1.6 -0.2
v 0.3 1.6 -0.2
v 0.4 1.6 0.1
v 0.3 0.5 -0.2
v 0.2 0.5 -0.2
v 0.2 0.5 -0.1
v 0.3 0.5 -0.1
v 0.3 0.7 -0.2
v 0.2 0.7 -0.2
v 0.2 0.7 -0.1
v 0.3 0.7 -0.1
v 0.3 1.5 -0.2
v 0.2 1.5 -0.2
v 0.2 1.5 0
v 0.3 1.5 0
v 0.3 1.7 -0.2
v 0.2 1.7 -0.2
v 0.2 1.7 -0.1
v 0.3 1.7 -0.1
v 0.3 2 -0.2
v 0.2 2 -0.2
v 0.2 2 -0.1
v 0.3 2 -0.1
v 0.1 2 -0.2
v 0.1 2 -0.1
v 0.1 2.2 -0.2
v 0 2.2 -0.2
v 0.1 2.2 0.1
v -0.1 2.2 -0.2
v -0.1 2.2 -0.1
v 0 2.2 -0.1
v -0.2 2.2 -0.2
v -0.2 2.2 0
v -0.2 2 -0.2
v -0.3 2 -0.2
v -0.3 0.2 -0.2
v -0.4 0.2 -0.2
v -0.4 0.2 -0.1
v -0.3 0.2 -0.1
v -0.3 0.8 -0.2
v -0.4 0.8 -0.2
v -0.3 0.8 0.1
v -0.3 1.3 -0.2
v -0.4 1.3 -0.2
v -0.4 1.3 -0.1
v -0.3 1.3 -0.1
v -0.3 1.8 -0.2
v -0.4 1.8 -0.2
v -0.4 1.8 -0.1
v -0.3 1.8 -0.1
v -0.4 0.9 -0.2
v -0.5 0.9 -0.2
v -0.5 0.9 0.1
v -0.4 0.9 0.1
v -0.4 1.4 -0.2
v -0.5 1.4 -0.2
v -0.5 1.4 -0.1
v -0.4 1.4 -0.1
v -0.5 1.8 -0.2
v -0.6 1.8 -0.2
v -0.5 1.8 0.1
v -0.7 1.8 -0.2
v -0.7 1.8 -0.1
v -0.6 1.8 -0.1
v -0.8 1.8 -0.2
v -0.7 1.8 0
v -0.8 0.9 -0.2
v -0.9 0.9 -0.2
v -0.9 0.9 -0.1
v -0.8 0.9 -0.1
v -0.8 1.4 -0.2
v -0.9 1.4 -0.2
v -0.9 1.4 -0.1
v -0.8 1.4 -0.1
v -0.9 1.8 -0.2
v -0.9 1.8 -0.1
v -0.8 1.8 -0.1
v 0.7 1.8 -0.3
v 0.6 1.8 -0.3
v 0.6 1.8 -0.2
v 0.7 1.8 -0.2
v 0.7 2 -0.3
v 0.6 2 -0.3
v 0.6 1.6 -0.3
v 0.5 1.6 -0.3
v 0.5 1.6 -0.2
v 0.6 1.6 -0.2
v 0.5 1.5 -0.3
v 0.4 1.5 -0.3
v 0.4 1.5 -0.2
v 0.5 1.5 -0.2
v 0.5 1.9 -0.3
v 0.4 1.9 -0.3
v 0.4 1.9 -0.2
v 0.5 1.9 -0.2
v 0.3 1.4 -0.3
v 0.2 1.4 -0.3
v 0.2 1.4 -0.2
v 0.3 1.4 -0.2
v 0 2.2 -0.3
v -0.1 2.2 -0.3
v 0.1 2 -0.3
v -0.2 2 -0.3
v -0.2 1.1 -0.3
v -0.3 1.1 -0.3
v -0.3 1.1 -0.2
v -0.2 1.1 -0.2
v -0.3 0.7 -0.3
v -0.4 0.7 -0.3
v -0.4 0.7 -0.2
v -0.3 0.7 -0.2
v -0.5 0.9 -0.3
v -0.6 0.9 -0.3
v -0.6 0.9 -0.2
v -0.5 1.1 -0.3
v -0.6 1.1 -0.3
v -0.6 1.1 -0.2
v -0.5 1.1 -0.2
v -0.6 1.4 -0.3
v -0.7 1.4 -0.3
v -0.7 1.4 -0.2
v -0.6 1.4 -0.2
v -0.6 1.7 -0.3
v -0.7 1.7 -0.3
v -0.7 1.7 -0.2
v -0.6 1.7 -0.2
v -0.7 1 -0.3
v -0.8 1 -0.3
v -0.8 1 -0.2
v -0.7 1 -0.2
v 0.1 0.3 -0.4
v 0 0.3 -0.4
v 0 0.3 -0.3
v 0.1 0.3 -0.3
v 0.1 0.8 -0.4
v 0 0.8 -0.4
v 0 0.8 -0.3
v 0.1 0.8 -0.3
v 0.1 1.2 -0.4
v 0 1.2 -0.4
v 0 1.2 -0.3
v 0.1 1.2 -0.3
v 0.1 1.5 -0.4
v 0 1.5 -0.4
v 0 1.5 -0.3
v 0.1 1.5 -0.3
v 0.1 1.8 -0.4
v 0 1.8 -0.4
v 0 1.8 -0.3
v 0.1 1.8 -0.3
v 0 0.5 -0.4
v -0.1 0.5 -0.4
v -0.1 0.5 -0.3
v 0 0.5 -0.3
v -0.1 0.2 -0.4
v -0.2 0.2 -0.4
v -0.2 0.2 -0.3
v -0.1 0.2 -0.3
v -0.1 0.7 -0.4
v -0.2 0.7 -0.4
v -0.2 0.7 -0.3
v -0.1 0.7 -0.3
v -0.1 1 -0.4
v -0.2 1 -0.4
v -0.2 1 -0.3
v -0.1 1 -0.3
v -0.1 1.4 -0.4
v -0.2 1.4 -0.4
v -0.2 1.4 -0.3
v -0.1 1.4 -0.3
v -0.1 1.7 -0.4
v -0.2 1.7 -0.4
v -0.2 1.7 -0.3
v -0.1 1.7 -0.3
v -0.1 2 -0.4
v -0.2 2 -0.4
v -0.1 2 -0.3
v 0.1 0.2 0.2
v 0.1 0.2 0.3
v 0 0.2 0.3
v 0 0.2 0.2
v 0.1 0.9 0.2
v 0.1 0.9 0.3
v 0.1 1.3 0.2
v 0.1 1.3 0.3
v 0 1.3 0.3
v 0 1.3 0.2
v 0.1 1.7 0.2
v 0.1 1.7 0.3
v 0 1.7 0.3
v 0 1.7 0.2
v 0 0.4 0.2
v 0 0.4 0.3
v -0.1 0.4 0.3
v -0.1 0.4 0.2
v 0 0.8 0.2
v 0 0.8 0.3
v -0.1 0.8 0.3
v -0.1 0.8 0.2
v -0.1 1.4 0.3
v -0.1 1.4 0.2
v -0.1 1.8 0.3
v -0.1 1.8 0.2
v 0 2 0.2
v 0 2 0.3
v -0.1 2 0.3
v -0.1 2 0.2
v -0.1 0.1 0.2
v -0.1 0.1 0.3
v -0.2 0.1 0.3
v -0.2 0.1 0.2
v -0.1 0.6 0.2
v -0.1 0.6 0.3
v -0.2 0.6 0.3
v -0.2 0.6 0.2
v -0.1 1.1 0.2
v -0.1 1.1 0.3
v -0.2 1.1 0.3
v -0.2 1.1 0.2
v -0.1 1.6 0.2
v -0.1 1.6 0.3
v -0.2 1.6 0.3
v -0.2 1.6 0.2
v 0.7 1.8 0.1
v 0.7 1.8 0.2
v 0.6 1.8 0.2
v 0.6 1.8 0.1
v 0.6 1.5 0.1
v 0.6 1.5 0.2
v 0.5 1.5 0.2
v 0.5 1.5 0.1
v 0.5 1.9 0.2
v 0.5 1.9 0.1
v 0.5 1.7 0.1
v 0.5 1.7 0.2
v 0.4 1.7 0.2
v 0.4 1.7 0.1
v 0.4 1.3 0.1
v 0.4 1.3 0.2
v 0.3 1.3 0.2
v 0.3 1.3 0.1
v -0.3 0.6 0.1
v -0.3 0.6 0.2
v -0.4 0.6 0.2
v -0.4 0.6 0.1
v -0.5 0.7 0.2
v -0.5 0.7 0.1
v -0.5 0.9 0.2
v -0.6 0.9 0.2
v -0.6 0.9 0.1
v -0.5 1.5 0.1
v -0.5 1.5 0.2
v -0.6 1.5 0.2
v -0.6 1.5 0.1
v -0.6 0.7 0.1
v -0.6 0.7 0.2
v -0.7 0.7 0.2
v -0.7 0.7 0.1
v -0.6 1.1 0.1
v -0.6 1.1 0.2
v -0.6 1.3 0.1
v -0.6 1.3 0.2
v -0.7 1.3 0.2
v -0.7 1.3 0.1
v -0.7 1 0.1
v -0.7 1 0.2
v -0.8 1 0.2
v -0.8 1 0.1
v -0.7 1.6 0.1
v -0.7 1.6 0.2
v -0.8 1.6 0.2
v -0.8 1.6 0.1
v 0.8 1.8 0.1
v 0.3 0.3 0
v 0.3 0.3 0.1
v 0.2 0.3 0.1
v 0.2 0.3 0
v 0.3 0.6 0
v 0.3 0.6 0.1
v 0.2 0.6 0.1
v 0.2 0.6 0
v 0.3 1.9 0.1
v 0.2 1.9 0.1
v 0.2 1.9 0
v -0.3 0.2 0
v -0.3 0.2 0.1
v -0.4 0.2 0.1
v -0.4 0.2 0
v -0.3 1.2 0
v -0.3 1.2 0.1
v -0.3 1.9 0
v -0.3 1.9 0.1
v -0.4 1.9 0.1
v -0.4 1.9 0
v -0.3 0.5 0
v -0.3 0.5 0.1
v -0.5 0.5 0.1
v -0.5 0.5 0
v -0.4 1.1 0.1
v -0.5 1.1 0.1
v -0.5 1.1 0
v -0.4 1.6 0.1
v -0.5 1.6 0
v -0.8 1.2 0
v -0.8 1.2 0.1
v -0.9 1.2 0.1
v -0.9 1.2 0
v 0.8 1.5 -0.1
v 0.8 1.5 0
v 0.7 1.5 0
v 0.7 1.5 -0.1
v 0.8 1.7 -0.1
v 0.8 1.7 0
v 0.7 1.7 0
v 0.7 1.7 -0.1
v 0.4 1.8 -0.1
v 0.4 1.8 0
v 0.3 0.1 -0.1
v 0.3 0.1 0
v 0.2 0.1 0
v 0.2 0.1 -0.1
v 0.3 0.8 -0.1
v 0.3 0.8 0
v 0.2 0.8 0
v 0.2 0.8 -0.1
v 0.3 1 -0.1
v 0.3 1 0
v 0.2 1 0
v 0.2 1 -0.1
v 0.3 1.7 0
v 0.2 1.7 0
v -0.3 0.4 -0.1
v -0.3 0.4 0
v -0.4 0.4 0
v -0.4 0.4 -0.1
v -0.3 1 -0.1
v -0.3 1 0
v -0.4 1 0
v -0.4 1 -0.1
v -0.3 1.5 -0.1
v -0.3 1.5 0
v -0.4 1.5 0
v -0.4 1.5 -0.1
v -0.8 1 -0.1
v -0.8 1 0
v -0.9 1 0
v -0.9 1 -0.1
v -0.8 1.5 -0.1
v -0.8 1.5 0
v -0.9 1.5 0
v -0.9 1.5 -0.1
v 0.8 1.9 -0.2
v 0.8 1.9 -0.1
v 0.7 1.9 -0.1
v 0.7 1.9 -0.2
v 0.7 1.4 -0.2
v 0.7 1.4 0.1
v 0.6 1.4 0.1
v 0.6 1.4 -0.2
v 0.6 1.3 -0.2
v 0.6 1.3 0.1
v 0.4 1.3 -0.2
v 0.3 0.4 -0.2
v 0.3 0.4 -0.1
v 0.2 0.4 -0.1
v 0.2 0.4 -0.2
v 0.3 0.6 -0.2
v 0.3 0.6 -0.1
v 0.2 0.6 -0.1
v 0.2 0.6 -0.2
v 0.4 1.2 -0.2
v 0.4 1.2 0.1
v 0.2 1.2 0.1
v 0.2 1.2 -0.2
v 0.3 1.6 -0.1
v 0.2 1.6 -0.1
v 0.2 1.6 -0.2
v 0.3 1.9 -0.2
v 0.2 1.9 -0.1
v 0.2 1.9 -0.2
v 0.2 0 -0.2
v 0.2 0 0.1
v 0.1 0 0.1
v 0.1 0 -0.2
v -0.2 0 -0.2
v -0.2 0 0.1
v -0.3 0 0.1
v -0.3 0 -0.2
v -0.3 0.1 -0.2
v -0.3 0.1 -0.1
v -0.4 0.1 -0.1
v -0.4 0.1 -0.2
v -0.3 0.5 -0.2
v -0.3 0.5 -0.1
v -0.4 0.5 -0.1
v -0.4 0.5 -0.2
v -0.3 1.2 -0.2
v -0.3 1.2 -0.1
v -0.4 1.2 -0.1
v -0.4 1.2 -0.2
v -0.3 1.7 -0.2
v -0.3 1.7 -0.1
v -0.4 1.7 -0.1
v -0.4 1.7 -0.2
v -0.4 0.5 0
v -0.5 0.5 -0.2
v -0.5 1.3 -0.1
v -0.5 1.3 -0.2
v -0.5 0.6 -0.2
v -0.5 0.6 0.1
v -0.7 0.6 0.1
v -0.7 0.6 -0.2
v -0.7 0.7 -0.2
v -0.8 0.7 0.1
v -0.8 0.7 -0.2
v -0.8 0.8 -0.2
v -0.8 0.8 -0.1
v -0.9 0.8 -0.1
v -0.9 0.8 -0.2
v -0.8 1.3 -0.2
v -0.8 1.3 -0.1
v -0.9 1.3 -0.1
v -0.9 1.3 -0.2
v -0.8 1.7 -0.2
v -0.8 1.7 -0.1
v -0.9 1.7 -0.1
v -0.9 1.7 -0.2
v 0.7 1.7 -0.3
v 0.7 1.7 -0.2
v 0.6 1.7 -0.2
v 0.6 1.7 -0.3
v 0.7 1.9 -0.3
v 0.6 1.9 -0.2
v 0.6 1.9 -0.3
v 0.6 1.5 -0.3
v 0.6 1.5 -0.2
v 0.5 1.4 -0.3
v 0.5 1.4 -0.2
v 0.4 1.4 -0.2
v 0.4 1.4 -0.3
v 0.5 1.8 -0.3
v 0.5 1.8 -0.2
v 0.4 1.8 -0.2
v 0.4 1.8 -0.3
v 0.3 1.3 -0.3
v 0.3 1.3 -0.2
v 0.2 1.3 -0.2
v 0.2 1.3 -0.3
v 0 2.1 -0.3
v 0 2.1 -0.2
v -0.1 2.1 -0.2
v -0.1 2.1 -0.3
v 0.1 0 -0.3
v 0.1 0 0.2
v -0.2 0 0.2
v -0.2 0 -0.3
v -0.2 1 -0.2
v -0.3 1 -0.2
v -0.3 1 -0.3
v -0.3 0.6 -0.3
v -0.3 0.6 -0.2
v -0.4 0.6 -0.2
v -0.4 0.6 -0.3
v -0.5 0.8 -0.3
v -0.5 0.8 -0.2
v -0.6 0.8 -0.2
v -0.6 0.8 -0.3
v -0.5 1 -0.3
v -0.5 1 -0.2
v -0.6 1 -0.2
v -0.6 1 -0.3
v -0.6 1.3 -0.3
v -0.6 1.3 -0.2
v -0.7 1.3 -0.2
v -0.7 1.3 -0.3
v -0.6 1.6 -0.3
v -0.6 1.6 -0.2
v -0.7 1.6 -0.2
v -0.7 1.6 -0.3
v -0.7 0.9 -0.3
v -0.7 0.9 -0.2
v -0.8 0.9 -0.3
v 0.1 0.2 -0.4
v 0.1 0.2 -0.3
v 0 0.2 -0.3
v 0 0.2 -0.4
v 0.1 0.7 -0.4
v 0.1 0.7 -0.3
v 0 0.7 -0.3
v 0 0.7 -0.4
v 0.1 1.1 -0.4
v 0.1 1.1 -0.3
v 0 1.1 -0.3
v 0 1.1 -0.4
v 0.1 1.4 -0.4
v 0.1 1.4 -0.3
v 0 1.4 -0.3
v 0 1.4 -0.4
v 0.1 1.7 -0.4
v 0.1 1.7 -0.3
v 0 1.7 -0.3
v 0 1.7 -0.4
v 0 0.4 -0.4
v 0 0.4 -0.3
v -0.1 0.4 -0.3
v -0.1 0.4 -0.4
v -0.1 0.1 -0.4
v -0.1 0.1 -0.3
v -0.2 0.1 -0.3
v -0.2 0.1 -0.4
v -0.1 0.6 -0.4
v -0.1 0.6 -0.3
v -0.2 0.6 -0.3
v -0.2 0.6 -0.4
v -0.1 0.9 -0.4
v -0.1 0.9 -0.3
v -0.2 0.9 -0.3
v -0.2 0.9 -0.4
v -0.1 1.3 -0.4
v -0.1 1.3 -0.3
v -0.2 1.3 -0.3
v -0.2 1.3 -0.4
v -0.1 1.6 -0.4
v -0.1 1.6 -0.3
v -0.2 1.6 -0.3
v -0.2 1.6 -0.4
v -0.1 1.9 -0.4
v -0.1 1.9 -0.3
v -0.2 1.9 -0.3
v -0.2 1.9 -0.4
v -0.3 0 -0.1
v -0.3 0.4 -0.2
v -0.8 0.7 -0.1
v -0.8 0.7 0
v -0.3 0.8 0
v 0.4 1.6 0
v 0.4 2 -0.1
v -0.3 2 -0.1
v -0.2 2.2 0.1
v 0.2 0 0
v 0.2 0.1 -0.2
v 0.2 1.2 0
v 0.2 1.2 -0.1
v -0.5 1.1 -0.1
v 0.7 1.4 0
v 0.7 1.5 -0.2
v 0.2 1.5 -0.1
v -0.5 1.8 0
v -0.5 1.8 -0.1
v 0.7 2 0
v 0.1 2.2 0
v 0.1 2.2 -0.1
v 0.1 1.2 -0.2
v 0.1 1.3 -0.2
v 0.1 1.4 -0.2
v 0.1 1.5 -0.2
v 0.1 0.4 -0.3
v 0.1 2.1 -0.2
v 0.1 0.1 -0.3
v -0.1 0.8 -0.3
v 0 0.6 -0.3
v -0.1 1.1 -0.3
v 0.1 0.9 -0.3
v 0.1 1.3 -0.3
v 0.1 1.6 -0.3
v 0.1 1.9 -0.3
v -0.2 0.3 -0.3
v -0.2 0.4 -0.3
v -0.2 0.5 -0.3
v -0.2 0.8 -0.3
v -0.2 1.2 -0.3
v -0.2 1.5 -0.3
v -0.2 1.8 -0.3
v -0.2 2.1 -0.2
v -0.8 1.1 -0.2
v -0.8 1.6 -0.2
v 0.7 1.5 0.1
v 0.6 1.7 0.1
v 0.3 1.5 0.1
v 0.2 1.5 0.1
v 0.1 1.2 0.1
v 0.1 1.3 0.1
v 0.1 1.4 0.1
v 0.1 1.5 0.1
v 0.1 0.4 0.2
v 0.1 0.1 0.2
v 0 0.6 0.2
v 0.1 1.1 0.2
v -0.1 1.3 0.2
v 0 1.6 0.2
v -0.2 0.3 0.2
v -0.2 0.4 0.2
v -0.2 0.5 0.2
v -0.2 0.9 0.2
v -0.2 1 0.2
v -0.2 1.3 0.2
v -0.2 1.4 0.2
v -0.2 1.5 0.2
v -0.2 1.9 0.2
v -0.7 1.8 0.1
v -0.8 0.8 0.1
v -0.8 0.9 0.1
v -0.8 1.4 0.1

vt 0.0449219 0.5
vt 0.0878906 0.5

vn 0 1 0
vn 0 -1 0
vn -1 0 0
vn 1 0 0
vn 0 0 -1
vn 0 0 1

usemtl palette
f 1/2/1 2/2/1 4/2/1
f 4/2/1 2/2/1 3/2/1
f 5/2/1 6/2/1 8/2/1
f 8/2/1 6/2/1 7/2/1
f 9/2/1 10/2/1 12/2/1
f 12/2/1 10/2/1 11/2/1
f 13/2/1 14/2/1 16/2/1
f 16/2/1 14/2/1 15/2/1
f 17/2/1 18/2/1 20/2/1
f 20/2/1 18/2/1 19/2/1
f 21/2/1 22/2/1 24/2/1
f 24/2/1 22/2/1 23/2/1
f 25/2/1 26/2/1 28/2/1
f 28/2/1 26/2/1 27/2/1
f 29/2/1 30/2/1 32/2/1
f 32/2/1 30/2/1 31/2/1
f 33/2/1 34/2/1 36/2/1
f 36/2/1 34/2/1 35/2/1
f 37/2/1 38/2/1 40/2/1
f 40/2/1 38/2/1 39/2/1
f 41/2/1 42/2/1 44/2/1
f 44/2/1 42/2/1 43/2/1
f 45/2/1 46/2/1 48/2/1
f 48/2/1 46/2/1 47/2/1
f 49/2/1 50/2/1 52/2/1
f 52/2/1 50/2/1 51/2/1
f 53/2/1 54/2/1 56/2/1
f 56/2/1 54/2/1 55/2/1
f 57/2/1 58/2/1 60/2/1
f 60/2/1 58/2/1 59/2/1
f 61/2/1 62/2/1 64/2/1
f 64/2/1 62/2/1 63/2/1
f 65/2/1 66/2/1 68/2/1
f 68/2/1 66/2/1 67/2/1
f 69/2/1 70/2/1 72/2/1
f 72/2/1 70/2/1 71/2/1
f 73/1/1 74/1/1 76/1/1
f 76/1/1 74/1/1 75/1/1
f 77/2/1 78/2/1 80/2/1
f 80/2/1 78/2/1 79/2/1
f 81/2/1 82/2/1 84/2/1
f 84/2/1 82/2/1 83/2/1
f 85/2/1 86/2/1 88/2/1
f 88/2/1 86/2/1 87/2/1
f 89/2/1 90/2/1 92/2/1
f 92/2/1 90/2/1 91/2/1
f 93/2/1 94/2/1 96/2/1
f 96/2/1 94/2/1 95/2/1
f 97/2/1 98/2/1 100/2/1
f 100/2/1 98/2/1 99/2/1
f 101/2/1 102/2/1 104/2/1
f 104/2/1 102/2/1 103/2/1
f 105/2/1 106/2/1 108/2/1
f 108/2/1 106/2/1 107/2/1
f 109/2/1 110/2/1 112/2/1
f 112/2/1 110/2/1 111/2/1
f 113/2/1 114/2/1 115/2/1
f 115/2/1 114/2/1 53/2/1
f 116/1/1 117/1/1 61/1/1
f 61/1/1 117/1/1 118/1/1
f 119/2/1 120/2/1 122/2/1
f 122/2/1 120/2/1 121/2/1
f 123/2/1 124/2/1 126/2/1
f 126/2/1 124/2/1 125/2/1
f 127/2/1 128/2/1 130/2/1
f 130/2/1 128/2/1 129/2/1
f 131/2/1 132/2/1 134/2/1
f 134/2/1 132/2/1 133/2/1
f 132/1/1 135/1/1 133/1/1
f 133/1/1 135/1/1 73/1/1
f 136/1/1 137/1/1 139/1/1
f 139/1/1 137/1/1 138/1/1
f 140/2/1 141/2/1 143/2/1
f 143/2/1 141/2/1 142/2/1
f 144/2/1 145/2/1 147/2/1
f 147/2/1 145/2/1 146/2/1
f 148/2/1 149/2/1 151/2/1
f 151/2/1 149/2/1 150/2/1
f 152/2/1 153/2/1 155/2/1
f 155/2/1 153/2/1 154/2/1
f 156/2/1 157/2/1 159/2/1
f 159/2/1 157/2/1 158/2/1
f 160/2/1 161/2/1 163/2/1
f 163/2/1 161/2/1 162/2/1
f 164/1/1 165/1/1 167/1/1
f 167/1/1 165/1/1 166/1/1
f 168/2/1 169/2/1 171/2/1
f 171/2/1 169/2/1 170/2/1
f 172/2/1 173/2/1 175/2/1
f 175/2/1 173/2/1 174/2/1
f 176/2/1 177/2/1 179/2/1
f 179/2/1 177/2/1 178/2/1
f 180/1/1 181/1/1 183/1/1
f 183/1/1 181/1/1 182/1/1
f 184/2/1 185/2/1 187/2/1
f 187/2/1 185/2/1 186/2/1
f 188/2/1 189/2/1 191/2/1
f 191/2/1 189/2/1 190/2/1
f 192/2/1 193/2/1 195/2/1
f 195/2/1 193/2/1 194/2/1
f 196/2/1 197/2/1 199/2/1
f 199/2/1 197/2/1 198/2/1
f 200/2/1 201/2/1 203/2/1
f 203/2/1 201/2/1 202/2/1
f 204/2/1 205/2/1 207/2/1
f 207/2/1 205/2/1 206/2/1
f 208/1/1 209/1/1 210/1/1
f 210/1/1 209/1/1 140/1/1
f 211/2/1 212/2/1 214/2/1
f 214/2/1 212/2/1 213/2/1
f 215/2/1 216/2/1 218/2/1
f 218/2/1 216/2/1 217/2/1
f 219/1/1 220/1/1 222/1/1
f 222/1/1 220/1/1 221/1/1
f 223/2/1 224/2/1 226/2/1
f 226/2/1 224/2/1 225/2/1
f 227/2/1 228/2/1 230/2/1
f 230/2/1 228/2/1 229/2/1
f 231/2/1 232/2/1 234/2/1
f 234/2/1 232/2/1 233/2/1
f 232/1/1 235/1/1 236/1/1
f 236/1/1 235/1/1 61/1/1
f 235/1/1 237/1/1 239/1/1
f 239/1/1 237/1/1 238/1/1
f 237/1/1 240/1/1 241/1/1
f 241/1/1 240/1/1 117/1/1
f 242/1/1 243/1/1 244/1/1
f 244/1/1 243/1/1 130/1/1
f 245/2/1 246/2/1 248/2/1
f 248/2/1 246/2/1 247/2/1
f 249/2/1 250/2/1 252/2/1
f 252/2/1 250/2/1 251/2/1
f 253/1/1 254/1/1 256/1/1
f 256/1/1 254/1/1 255/1/1
f 257/2/1 258/2/1 260/2/1
f 260/2/1 258/2/1 259/2/1
f 261/2/1 262/2/1 264/2/1
f 264/2/1 262/2/1 263/2/1
f 262/1/1 265/1/1 263/1/1
f 263/1/1 265/1/1 266/1/1
f 267/1/1 268/1/1 269/1/1
f 269/1/1 268/1/1 139/1/1
f 268/1/1 270/1/1 272/1/1
f 272/1/1 270/1/1 271/1/1
f 270/1/1 273/1/1 137/1/1
f 137/1/1 273/1/1 274/1/1
f 275/1/1 276/1/1 74/1/1
f 74/1/1 276/1/1 155/1/1
f 277/2/1 278/2/1 280/2/1
f 280/2/1 278/2/1 279/2/1
f 281/1/1 282/1/1 283/1/1
f 283/1/1 282/1/1 81/1/1
f 284/2/1 285/2/1 287/2/1
f 287/2/1 285/2/1 286/2/1
f 288/2/1 289/2/1 291/2/1
f 291/2/1 289/2/1 290/2/1
f 292/1/1 293/1/1 295/1/1
f 295/1/1 293/1/1 294/1/1
f 296/2/1 297/2/1 299/2/1
f 299/2/1 297/2/1 298/2/1
f 300/1/1 301/1/1 302/1/1
f 302/1/1 301/1/1 167/1/1
f 301/1/1 303/1/1 305/1/1
f 305/1/1 303/1/1 304/1/1
f 303/1/1 306/1/1 307/1/1
f 307/1/1 306/1/1 165/1/1
f 308/2/1 309/2/1 311/2/1
f 311/2/1 309/2/1 310/2/1
f 312/2/1 313/2/1 315/2/1
f 315/2/1 313/2/1 314/2/1
f 306/2/1 316/2/1 318/2/1
f 318/2/1 316/2/1 317/2/1
f 319/2/1 320/2/1 322/2/1
f 322/2/1 320/2/1 321/2/1
f 323/2/1 324/2/1 232/2/1
f 232/2/1 324/2/1 235/2/1
f 325/2/1 326/2/1 328/2/1
f 328/2/1 326/2/1 327/2/1
f 329/2/1 330/2/1 332/2/1
f 332/2/1 330/2/1 331/2/1
f 333/2/1 334/2/1 336/2/1
f 336/2/1 334/2/1 335/2/1
f 337/2/1 338/2/1 340/2/1
f 340/2/1 338/2/1 339/2/1
f 341/2/1 342/2/1 268/2/1
f 268/2/1 342/2/1 270/2/1
f 343/1/1 344/1/1 265/1/1
f 265/1/1 344/1/1 275/1/1
f 345/2/1 346/2/1 348/2/1
f 348/2/1 346/2/1 347/2/1
f 349/2/1 350/2/1 352/2/1
f 352/2/1 350/2/1 351/2/1
f 353/2/1 354/2/1 293/2/1
f 293/2/1 354/2/1 355/2/1
f 356/2/1 357/2/1 359/2/1
f 359/2/1 357/2/1 358/2/1
f 360/2/1 361/2/1 363/2/1
f 363/2/1 361/2/1 362/2/1
f 364/2/1 365/2/1 367/2/1
f 367/2/1 365/2/1 366/2/1
f 368/2/1 369/2/1 371/2/1
f 371/2/1 369/2/1 370/2/1
f 372/2/1 373/2/1 375/2/1
f 375/2/1 373/2/1 374/2/1
f 376/2/1 377/2/1 379/2/1
f 379/2/1 377/2/1 378/2/1
f 380/2/1 381/2/1 383/2/1
f 383/2/1 381/2/1 382/2/1
f 384/2/1 385/2/1 387/2/1
f 387/2/1 385/2/1 386/2/1
f 388/2/1 389/2/1 391/2/1
f 391/2/1 389/2/1 390/2/1
f 392/2/1 393/2/1 395/2/1
f 395/2/1 393/2/1 394/2/1
f 396/2/1 397/2/1 399/2/1
f 399/2/1 397/2/1 398/2/1
f 400/2/1 401/2/1 403/2/1
f 403/2/1 401/2/1 402/2/1
f 404/2/1 405/2/1 407/2/1
f 407/2/1 405/2/1 406/2/1
f 408/2/1 409/2/1 411/2/1
f 411/2/1 409/2/1 410/2/1
f 412/2/1 413/2/1 415/2/1
f 415/2/1 413/2/1 414/2/1
f 416/2/1 417/2/1 418/2/1
f 418/2/1 417/2/1 344/2/1
f 419/2/2 420/2/2 422/2/2
f 422/2/2 420/2/2 421/2/2
f 423/2/2 424/2/2 21/2/2
f 21/2/2 424/2/2 24/2/2
f 425/2/2 426/2/2 428/2/2
f 428/2/2 426/2/2 427/2/2
f 429/2/2 430/2/2 432/2/2
f 432/2/2 430/2/2 431/2/2
f 433/2/2 434/2/2 436/2/2
f 436/2/2 434/2/2 435/2/2
f 437/2/2 438/2/2 440/2/2
f 440/2/2 438/2/2 439/2/2
f 10/2/2 11/2/2 442/2/2
f 442/2/2 11/2/2 441/2/2
f 14/2/2 15/2/2 444/2/2
f 444/2/2 15/2/2 443/2/2
f 445/2/2 446/2/2 448/2/2
f 448/2/2 446/2/2 447/2/2
f 449/2/2 450/2/2 452/2/2
f 452/2/2 450/2/2 451/2/2
f 453/2/2 454/2/2 456/2/2
f 456/2/2 454/2/2 455/2/2
f 457/2/2 458/2/2 460/2/2
f 460/2/2 458/2/2 459/2/2
f 461/2/2 462/2/2 464/2/2
f 464/2/2 462/2/2 463/2/2
f 465/2/2 466/2/2 468/2/2
f 468/2/2 466/2/2 467/2/2
f 469/2/2 470/2/2 472/2/2
f 472/2/2 470/2/2 471/2/2
f 54/2/2 55/2/2 474/2/2
f 474/2/2 55/2/2 473/2/2
f 475/2/2 476/2/2 478/2/2
f 478/2/2 476/2/2 477/2/2
f 479/2/2 480/2/2 482/2/2
f 482/2/2 480/2/2 481/2/2
f 483/2/2 484/2/2 486/2/2
f 486/2/2 484/2/2 485/2/2
f 78/2/2 79/2/2 488/2/2
f 488/2/2 79/2/2 487/2/2
f 294/2/2 489/2/2 491/2/2
f 491/2/2 489/2/2 490/2/2
f 492/2/2 493/2/2 495/2/2
f 495/2/2 493/2/2 494/2/2
f 496/2/2 497/2/2 499/2/2
f 499/2/2 497/2/2 498/2/2
f 500/2/2 501/2/2 105/2/2
f 105/2/2 501/2/2 108/2/2
f 502/2/2 503/2/2 505/2/2
f 505/2/2 503/2/2 504/2/2
f 506/2/2 507/2/2 509/2/2
f 509/2/2 507/2/2 508/2/2
f 510/2/2 511/2/2 513/2/2
f 513/2/2 511/2/2 512/2/2
f 179/2/2 514/2/2 178/2/2
f 178/2/2 514/2/2 465/2/2
f 515/2/2 516/2/2 518/2/2
f 518/2/2 516/2/2 517/2/2
f 519/2/2 520/2/2 522/2/2
f 522/2/2 520/2/2 521/2/2
f 186/2/2 523/2/2 525/2/2
f 525/2/2 523/2/2 524/2/2
f 526/2/2 527/2/2 529/2/2
f 529/2/2 527/2/2 528/2/2
f 530/2/2 531/2/2 156/2/2
f 156/2/2 531/2/2 159/2/2
f 532/2/2 533/2/2 535/2/2
f 535/2/2 533/2/2 534/2/2
f 536/1/2 537/1/2 539/1/2
f 539/1/2 537/1/2 538/1/2
f 213/2/2 540/2/2 542/2/2
f 542/2/2 540/2/2 541/2/2
f 217/2/2 543/2/2 544/2/2
f 544/2/2 543/2/2 89/2/2
f 545/2/2 546/2/2 548/2/2
f 548/2/2 546/2/2 547/2/2
f 549/2/2 550/2/2 552/2/2
f 552/2/2 550/2/2 551/2/2
f 553/2/2 554/2/2 556/2/2
f 556/2/2 554/2/2 555/2/2
f 557/2/2 558/2/2 200/2/2
f 200/2/2 558/2/2 203/2/2
f 559/2/2 560/2/2 562/2/2
f 562/2/2 560/2/2 561/2/2
f 563/2/2 564/2/2 566/2/2
f 566/2/2 564/2/2 565/2/2
f 567/2/2 568/2/2 570/2/2
f 570/2/2 568/2/2 569/2/2
f 260/2/2 571/2/2 259/2/2
f 259/2/2 571/2/2 572/2/2
f 573/2/2 574/2/2 576/2/2
f 576/2/2 574/2/2 575/2/2
f 577/2/2 578/2/2 580/2/2
f 580/2/2 578/2/2 579/2/2
f 581/2/2 582/2/2 584/2/2
f 584/2/2 582/2/2 583/2/2
f 585/2/2 586/2/2 588/2/2
f 588/2/2 586/2/2 587/2/2
f 589/2/2 590/2/2 592/2/2
f 592/2/2 590/2/2 591/2/2
f 593/2/2 594/2/2 596/2/2
f 596/2/2 594/2/2 595/2/2
f 597/1/2 598/1/2 600/1/2
f 600/1/2 598/1/2 599/1/2
f 601/1/2 602/1/2 603/1/2
f 603/1/2 602/1/2 479/1/2
f 604/2/2 605/2/2 607/2/2
f 607/2/2 605/2/2 606/2/2
f 608/2/2 609/2/2 611/2/2
f 611/2/2 609/2/2 610/2/2
f 612/1/2 613/1/2 615/1/2
f 615/1/2 613/1/2 614/1/2
f 243/2/2 616/2/2 618/2/2
f 618/2/2 616/2/2 617/2/2
f 619/2/2 185/2/2 621/2/2
f 621/2/2 185/2/2 620/2/2
f 622/1/2 623/1/2 625/1/2
f 625/1/2 623/1/2 624/1/2
f 626/1/2 627/1/2 629/1/2
f 629/1/2 627/1/2 628/1/2
f 630/2/2 631/2/2 633/2/2
f 633/2/2 631/2/2 632/2/2
f 634/1/2 635/1/2 637/1/2
f 637/1/2 635/1/2 636/1/2
f 638/2/2 639/2/2 641/2/2
f 641/2/2 639/2/2 640/2/2
f 642/2/2 643/2/2 645/2/2
f 645/2/2 643/2/2 644/2/2
f 637/1/2 646/1/2 647/1/2
f 647/1/2 646/1/2 539/1/2
f 285/2/2 286/2/2 649/2/2
f 649/2/2 286/2/2 648/2/2
f 650/1/2 651/1/2 653/1/2
f 653/1/2 651/1/2 652/1/2
f 654/1/2 499/1/2 656/1/2
f 656/1/2 499/1/2 655/1/2
f 657/2/2 658/2/2 660/2/2
f 660/2/2 658/2/2 659/2/2
f 661/2/2 662/2/2 664/2/2
f 664/2/2 662/2/2 663/2/2
f 665/2/2 666/2/2 668/2/2
f 668/2/2 666/2/2 667/2/2
f 669/2/2 670/2/2 672/2/2
f 672/2/2 670/2/2 671/2/2
f 673/2/2 596/2/2 675/2/2
f 675/2/2 596/2/2 674/2/2
f 676/2/2 677/2/2 329/2/2
f 329/2/2 677/2/2 332/2/2
f 678/2/2 679/2/2 681/2/2
f 681/2/2 679/2/2 680/2/2
f 682/2/2 683/2/2 685/2/2
f 685/2/2 683/2/2 684/2/2
f 686/2/2 687/2/2 689/2/2
f 689/2/2 687/2/2 688/2/2
f 690/2/2 691/2/2 693/2/2
f 693/2/2 691/2/2 692/2/2
f 694/1/2 695/1/2 697/1/2
f 697/1/2 695/1/2 696/1/2
f 406/2/2 698/2/2 700/2/2
f 700/2/2 698/2/2 699/2/2
f 701/2/2 702/2/2 704/2/2
f 704/2/2 702/2/2 703/2/2
f 705/2/2 706/2/2 708/2/2
f 708/2/2 706/2/2 707/2/2
f 709/2/2 710/2/2 712/2/2
f 712/2/2 710/2/2 711/2/2
f 713/2/2 714/2/2 716/2/2
f 716/2/2 714/2/2 715/2/2
f 717/2/2 718/2/2 720/2/2
f 720/2/2 718/2/2 719/2/2
f 721/2/2 722/2/2 723/2/2
f 723/2/2 722/2/2 308/2/2
f 724/2/2 725/2/2 727/2/2
f 727/2/2 725/2/2 726/2/2
f 728/2/2 729/2/2 731/2/2
f 731/2/2 729/2/2 730/2/2
f 732/2/2 733/2/2 735/2/2
f 735/2/2 733/2/2 734/2/2
f 736/2/2 737/2/2 739/2/2
f 739/2/2 737/2/2 738/2/2
f 740/2/2 741/2/2 743/2/2
f 743/2/2 741/2/2 742/2/2
f 744/2/2 745/2/2 747/2/2
f 747/2/2 745/2/2 746/2/2
f 748/2/2 749/2/2 751/2/2
f 751/2/2 749/2/2 750/2/2
f 752/2/2 753/2/2 755/2/2
f 755/2/2 753/2/2 754/2/2
f 756/2/2 757/2/2 759/2/2
f 759/2/2 757/2/2 758/2/2
f 760/2/2 761/2/2 763/2/2
f 763/2/2 761/2/2 762/2/2
f 764/2/2 765/2/2 767/2/2
f 767/2/2 765/2/2 766/2/2
f 768/2/2 769/2/2 771/2/2
f 771/2/2 769/2/2 770/2/2
f 631/1/3 630/1/3 772/1/3
f 772/1/3 630/1/3 629/1/3
f 39/2/3 38/2/3 451/2/3
f 451/2/3 38/2/3 452/2/3
f 527/1/3 280/1/3 628/1/3
f 628/1/3 280/1/3 772/1/3
f 279/2/3 278/2/3 632/2/3
f 632/2/3 278/2/3 633/2/3
f 398/2/3 397/2/3 750/2/3
f 750/2/3 397/2/3 751/2/3
f 3/2/3 2/2/3 421/2/3
f 421/2/3 2/2/3 422/2/3
f 146/2/3 145/2/3 528/2/3
f 528/2/3 145/2/3 529/2/3
f 374/2/3 373/2/3 726/2/3
f 726/2/3 373/2/3 727/2/3
f 574/1/3 773/1/3 526/1/3
f 526/1/3 773/1/3 277/1/3
f 19/2/3 18/2/3 435/2/3
f 435/2/3 18/2/3 436/2/3
f 537/1/3 536/1/3 147/1/3
f 147/1/3 536/1/3 144/1/3
f 646/2/3 636/2/3 575/2/3
f 575/2/3 636/2/3 576/2/3
f 635/1/3 634/1/3 573/1/3
f 573/1/3 634/1/3 773/1/3
f 394/2/3 393/2/3 746/2/3
f 746/2/3 393/2/3 747/2/3
f 651/1/3 650/1/3 538/1/3
f 538/1/3 650/1/3 647/1/3
f 43/2/3 42/2/3 455/2/3
f 455/2/3 42/2/3 456/2/3
f 79/2/3 78/2/3 485/2/3
f 485/2/3 78/2/3 486/2/3
f 499/1/3 654/1/3 652/1/3
f 652/1/3 654/1/3 653/1/3
f 351/2/3 350/2/3 703/2/3
f 703/2/3 350/2/3 704/2/3
f 402/2/3 401/2/3 754/2/3
f 754/2/3 401/2/3 755/2/3
f 83/2/3 82/2/3 487/2/3
f 487/2/3 82/2/3 488/2/3
f 95/2/3 94/2/3 498/2/3
f 498/2/3 94/2/3 499/2/3
f 658/1/3 657/1/3 774/1/3
f 774/1/3 657/1/3 656/1/3
f 378/2/3 377/2/3 730/2/3
f 730/2/3 377/2/3 731/2/3
f 23/2/3 22/2/3 439/2/3
f 439/2/3 22/2/3 440/2/3
f 310/2/3 309/2/3 659/2/3
f 659/2/3 309/2/3 660/2/3
f 355/2/3 354/2/3 707/2/3
f 707/2/3 354/2/3 708/2/3
f 7/2/3 6/2/3 24/2/3
f 24/2/3 6/2/3 21/2/3
f 87/2/3 86/2/3 490/2/3
f 490/2/3 86/2/3 491/2/3
f 586/1/3 585/1/3 775/1/3
f 775/1/3 585/1/3 774/1/3
f 578/1/3 699/1/3 776/1/3
f 776/1/3 699/1/3 281/1/3
f 698/1/3 406/1/3 626/1/3
f 626/1/3 406/1/3 697/1/3
f 370/2/3 369/2/3 308/2/3
f 308/2/3 369/2/3 723/2/3
f 406/2/3 405/2/3 758/2/3
f 758/2/3 405/2/3 759/2/3
f 107/2/3 106/2/3 508/2/3
f 508/2/3 106/2/3 509/2/3
f 213/2/3 212/2/3 579/2/3
f 579/2/3 212/2/3 580/2/3
f 225/2/3 224/2/3 587/2/3
f 587/2/3 224/2/3 588/2/3
f 347/2/3 346/2/3 699/2/3
f 699/2/3 346/2/3 700/2/3
f 358/2/3 357/2/3 711/2/3
f 711/2/3 357/2/3 712/2/3
f 47/2/3 46/2/3 459/2/3
f 459/2/3 46/2/3 460/2/3
f 99/2/3 98/2/3 108/2/3
f 108/2/3 98/2/3 105/2/3
f 531/1/3 530/1/3 283/1/3
f 283/1/3 530/1/3 776/1/3
f 546/1/3 545/1/3 655/1/3
f 655/1/3 545/1/3 775/1/3
f 639/1/3 638/1/3 577/1/3
f 577/1/3 638/1/3 699/1/3
f 382/2/3 381/2/3 734/2/3
f 734/2/3 381/2/3 735/2/3
f 150/2/3 149/2/3 159/2/3
f 159/2/3 149/2/3 156/2/3
f 170/2/3 169/2/3 547/2/3
f 547/2/3 169/2/3 548/2/3
f 286/2/3 285/2/3 640/2/3
f 640/2/3 285/2/3 641/2/3
f 662/1/3 661/1/3 311/1/3
f 311/1/3 661/1/3 308/1/3
f 11/2/3 10/2/3 427/2/3
f 427/2/3 10/2/3 428/2/3
f 71/2/3 70/2/3 481/2/3
f 481/2/3 70/2/3 482/2/3
f 103/2/3 102/2/3 504/2/3
f 504/2/3 102/2/3 505/2/3
f 314/2/3 313/2/3 663/2/3
f 663/2/3 313/2/3 664/2/3
f 339/2/3 338/2/3 688/2/3
f 688/2/3 338/2/3 689/2/3
f 362/2/3 361/2/3 715/2/3
f 715/2/3 361/2/3 716/2/3
f 410/2/3 409/2/3 762/2/3
f 762/2/3 409/2/3 763/2/3
f 27/2/3 26/2/3 441/2/3
f 441/2/3 26/2/3 442/2/3
f 582/1/3 581/1/3 214/1/3
f 214/1/3 581/1/3 211/1/3
f 590/1/3 589/1/3 226/1/3
f 226/1/3 589/1/3 223/1/3
f 331/2/3 330/2/3 680/2/3
f 680/2/3 330/2/3 681/2/3
f 386/2/3 385/2/3 738/2/3
f 738/2/3 385/2/3 739/2/3
f 59/2/3 58/2/3 471/2/3
f 471/2/3 58/2/3 472/2/3
f 91/2/3 90/2/3 494/2/3
f 494/2/3 90/2/3 495/2/3
f 217/2/3 216/2/3 583/2/3
f 583/2/3 216/2/3 584/2/3
f 229/2/3 228/2/3 591/2/3
f 591/2/3 228/2/3 592/2/3
f 127/1/3 243/1/3 256/1/3
f 256/1/3 243/1/3 253/1/3
f 327/2/3 326/2/3 332/2/3
f 332/2/3 326/2/3 329/2/3
f 51/2/3 50/2/3 463/2/3
f 463/2/3 50/2/3 464/2/3
f 111/2/3 110/2/3 512/2/3
f 512/2/3 110/2/3 513/2/3
f 643/1/3 642/1/3 287/1/3
f 287/1/3 642/1/3 284/1/3
f 666/1/3 665/1/3 315/1/3
f 315/1/3 665/1/3 312/1/3
f 366/2/3 365/2/3 719/2/3
f 719/2/3 365/2/3 720/2/3
f 414/2/3 413/2/3 766/2/3
f 766/2/3 413/2/3 767/2/3
f 15/2/3 14/2/3 431/2/3
f 431/2/3 14/2/3 432/2/3
f 67/2/3 66/2/3 477/2/3
f 477/2/3 66/2/3 478/2/3
f 166/1/3 165/1/3 171/1/3
f 171/1/3 165/1/3 168/1/3
f 165/1/3 318/1/3 230/1/3
f 230/1/3 318/1/3 227/1/3
f 558/1/3 684/1/3 777/1/3
f 777/1/3 684/1/3 242/1/3
f 290/2/3 289/2/3 644/2/3
f 644/2/3 289/2/3 645/2/3
f 317/2/3 316/2/3 667/2/3
f 667/2/3 316/2/3 668/2/3
f 321/2/3 320/2/3 671/2/3
f 671/2/3 320/2/3 672/2/3
f 390/2/3 389/2/3 742/2/3
f 742/2/3 389/2/3 743/2/3
f 31/2/3 30/2/3 443/2/3
f 443/2/3 30/2/3 444/2/3
f 55/2/3 54/2/3 467/2/3
f 467/2/3 54/2/3 468/2/3
f 533/1/3 532/1/3 151/1/3
f 151/1/3 532/1/3 148/1/3
f 186/2/3 185/2/3 203/2/3
f 203/2/3 185/2/3 200/2/3
f 221/1/3 220/1/3 307/1/3
f 307/1/3 220/1/3 304/1/3
f 335/2/3 334/2/3 684/2/3
f 684/2/3 334/2/3 685/2/3
f 63/2/3 62/2/3 473/2/3
f 473/2/3 62/2/3 474/2/3
f 75/1/3 74/1/3 696/1/3
f 696/1/3 74/1/3 627/1/3
f 118/1/3 117/1/3 244/1/3
f 244/1/3 117/1/3 777/1/3
f 154/2/3 153/2/3 534/2/3
f 534/2/3 153/2/3 535/2/3
f 117/1/3 778/1/3 187/1/3
f 187/1/3 778/1/3 184/1/3
f 152/1/3 779/1/3 218/1/3
f 218/1/3 779/1/3 215/1/3
f 778/1/3 240/1/3 557/1/3
f 557/1/3 240/1/3 684/1/3
f 779/1/3 276/1/3 291/1/3
f 291/1/3 276/1/3 288/1/3
f 235/2/3 324/2/3 674/2/3
f 674/2/3 324/2/3 675/2/3
f 275/1/3 344/1/3 348/1/3
f 348/1/3 344/1/3 345/1/3
f 344/2/3 417/2/3 770/2/3
f 770/2/3 417/2/3 771/2/3
f 35/2/3 34/2/3 447/2/3
f 447/2/3 34/2/3 448/2/3
f 182/1/3 181/1/3 241/1/3
f 241/1/3 181/1/3 238/1/3
f 780/1/3 273/1/3 74/1/3
f 74/1/3 273/1/3 275/1/3
f 270/2/3 342/2/3 692/2/3
f 692/2/3 342/2/3 693/2/3
f 142/2/3 141/2/3 780/2/3
f 780/2/3 141/2/3 274/2/3
f 140/1/3 209/1/3 137/1/3
f 137/1/3 209/1/3 271/1/3
f 561/1/4 781/1/4 782/1/4
f 782/1/4 781/1/4 622/1/4
f 40/2/4 450/2/4 37/2/4
f 37/2/4 450/2/4 449/2/4
f 191/2/4 560/2/4 188/2/4
f 188/2/4 560/2/4 559/2/4
f 399/2/4 749/2/4 396/2/4
f 396/2/4 749/2/4 748/2/4
f 4/2/4 420/2/4 1/2/4
f 1/2/4 420/2/4 419/2/4
f 517/1/4 623/1/4 518/1/4
f 518/1/4 623/1/4 781/1/4
f 375/2/4 725/2/4 372/2/4
f 372/2/4 725/2/4 724/2/4
f 122/2/4 516/2/4 119/2/4
f 119/2/4 516/2/4 515/2/4
f 606/1/4 562/1/4 607/1/4
f 607/1/4 562/1/4 782/1/4
f 20/2/4 434/2/4 17/2/4
f 17/2/4 434/2/4 433/2/4
f 248/2/4 605/2/4 245/2/4
f 245/2/4 605/2/4 604/2/4
f 395/2/4 745/2/4 392/2/4
f 392/2/4 745/2/4 744/2/4
f 521/1/4 121/1/4 522/1/4
f 522/1/4 121/1/4 120/1/4
f 610/1/4 247/1/4 611/1/4
f 611/1/4 247/1/4 246/1/4
f 44/2/4 454/2/4 41/2/4
f 41/2/4 454/2/4 453/2/4
f 80/2/4 484/2/4 77/2/4
f 77/2/4 484/2/4 483/2/4
f 126/2/4 520/2/4 123/2/4
f 123/2/4 520/2/4 519/2/4
f 252/2/4 609/2/4 249/2/4
f 249/2/4 609/2/4 608/2/4
f 352/2/4 702/2/4 349/2/4
f 349/2/4 702/2/4 701/2/4
f 403/2/4 753/2/4 400/2/4
f 400/2/4 753/2/4 752/2/4
f 84/2/4 79/2/4 81/2/4
f 81/2/4 79/2/4 78/2/4
f 96/2/4 497/2/4 93/2/4
f 93/2/4 497/2/4 496/2/4
f 565/1/4 190/1/4 566/1/4
f 566/1/4 190/1/4 189/1/4
f 379/2/4 729/2/4 376/2/4
f 376/2/4 729/2/4 728/2/4
f 24/2/4 438/2/4 21/2/4
f 21/2/4 438/2/4 437/2/4
f 195/2/4 564/2/4 192/2/4
f 192/2/4 564/2/4 563/2/4
f 295/1/4 81/1/4 292/1/4
f 292/1/4 81/1/4 282/1/4
f 293/2/4 706/2/4 353/2/4
f 353/2/4 706/2/4 705/2/4
f 8/2/4 424/2/4 5/2/4
f 5/2/4 424/2/4 423/2/4
f 88/2/4 489/2/4 85/2/4
f 85/2/4 489/2/4 294/2/4
f 569/1/4 194/1/4 570/1/4
f 570/1/4 194/1/4 193/1/4
f 371/2/4 722/2/4 368/2/4
f 368/2/4 722/2/4 721/2/4
f 407/2/4 757/2/4 404/2/4
f 404/2/4 757/2/4 756/2/4
f 108/2/4 507/2/4 105/2/4
f 105/2/4 507/2/4 506/2/4
f 199/2/4 568/2/4 196/2/4
f 196/2/4 568/2/4 567/2/4
f 541/1/4 294/1/4 359/1/4
f 359/1/4 294/1/4 293/1/4
f 359/2/4 710/2/4 356/2/4
f 356/2/4 710/2/4 709/2/4
f 48/2/4 458/2/4 45/2/4
f 45/2/4 458/2/4 457/2/4
f 100/2/4 501/2/4 97/2/4
f 97/2/4 501/2/4 500/2/4
f 614/1/4 125/1/4 783/1/4
f 783/1/4 125/1/4 124/1/4
f 159/2/4 540/2/4 156/2/4
f 156/2/4 540/2/4 213/2/4
f 783/1/4 198/1/4 784/1/4
f 784/1/4 198/1/4 197/1/4
f 784/1/4 251/1/4 615/1/4
f 615/1/4 251/1/4 250/1/4
f 383/2/4 733/2/4 380/2/4
f 380/2/4 733/2/4 732/2/4
f 479/1/4 613/1/4 603/1/4
f 603/1/4 613/1/4 612/1/4
f 648/1/4 785/1/4 649/1/4
f 649/1/4 785/1/4 359/1/4
f 12/2/4 426/2/4 9/2/4
f 9/2/4 426/2/4 425/2/4
f 72/2/4 480/2/4 69/2/4
f 69/2/4 480/2/4 479/2/4
f 104/2/4 503/2/4 101/2/4
f 101/2/4 503/2/4 502/2/4
f 599/1/4 602/1/4 600/1/4
f 600/1/4 602/1/4 601/1/4
f 299/2/4 286/2/4 296/2/4
f 296/2/4 286/2/4 285/2/4
f 340/2/4 687/2/4 337/2/4
f 337/2/4 687/2/4 686/2/4
f 363/2/4 714/2/4 360/2/4
f 360/2/4 714/2/4 713/2/4
f 411/2/4 761/2/4 408/2/4
f 408/2/4 761/2/4 760/2/4
f 28/2/4 11/2/4 25/2/4
f 25/2/4 11/2/4 10/2/4
f 551/1/4 786/1/4 787/1/4
f 787/1/4 786/1/4 597/1/4
f 332/2/4 679/2/4 329/2/4
f 329/2/4 679/2/4 678/2/4
f 387/2/4 737/2/4 384/2/4
f 384/2/4 737/2/4 736/2/4
f 60/2/4 470/2/4 57/2/4
f 57/2/4 470/2/4 469/2/4
f 92/2/4 493/2/4 89/2/4
f 89/2/4 493/2/4 492/2/4
f 89/1/4 158/1/4 544/1/4
f 544/1/4 158/1/4 157/1/4
f 175/2/4 550/2/4 172/2/4
f 172/2/4 550/2/4 549/2/4
f 617/1/4 788/1/4 618/1/4
f 618/1/4 788/1/4 254/1/4
f 328/2/4 677/2/4 325/2/4
f 325/2/4 677/2/4 676/2/4
f 52/2/4 462/2/4 49/2/4
f 49/2/4 462/2/4 461/2/4
f 112/2/4 511/2/4 109/2/4
f 109/2/4 511/2/4 510/2/4
f 163/2/4 543/2/4 160/2/4
f 160/2/4 543/2/4 217/2/4
f 555/1/4 174/1/4 556/1/4
f 556/1/4 174/1/4 173/1/4
f 572/1/4 255/1/4 259/1/4
f 259/1/4 255/1/4 788/1/4
f 260/2/4 616/2/4 257/2/4
f 257/2/4 616/2/4 243/2/4
f 367/2/4 718/2/4 364/2/4
f 364/2/4 718/2/4 717/2/4
f 415/2/4 765/2/4 412/2/4
f 412/2/4 765/2/4 764/2/4
f 16/2/4 430/2/4 13/2/4
f 13/2/4 430/2/4 429/2/4
f 68/2/4 476/2/4 65/2/4
f 65/2/4 476/2/4 475/2/4
f 465/1/4 598/1/4 178/1/4
f 178/1/4 598/1/4 786/1/4
f 302/1/4 162/1/4 789/1/4
f 789/1/4 162/1/4 161/1/4
f 179/2/4 554/2/4 176/2/4
f 176/2/4 554/2/4 553/2/4
f 203/2/4 571/2/4 200/2/4
f 200/2/4 571/2/4 260/2/4
f 789/1/4 542/1/4 790/1/4
f 790/1/4 542/1/4 785/1/4
f 790/1/4 298/1/4 300/1/4
f 300/1/4 298/1/4 297/1/4
f 322/2/4 670/2/4 319/2/4
f 319/2/4 670/2/4 669/2/4
f 391/2/4 741/2/4 388/2/4
f 388/2/4 741/2/4 740/2/4
f 32/2/4 15/2/4 29/2/4
f 29/2/4 15/2/4 14/2/4
f 56/2/4 466/2/4 53/2/4
f 53/2/4 466/2/4 465/2/4
f 115/2/4 514/2/4 113/2/4
f 113/2/4 514/2/4 179/2/4
f 524/1/4 129/1/4 525/1/4
f 525/1/4 129/1/4 128/1/4
f 222/1/4 164/1/4 219/1/4
f 219/1/4 164/1/4 305/1/4
f 595/1/4 552/1/4 596/1/4
f 596/1/4 552/1/4 787/1/4
f 620/1/4 259/1/4 621/1/4
f 621/1/4 259/1/4 258/1/4
f 336/2/4 683/2/4 333/2/4
f 333/2/4 683/2/4 682/2/4
f 64/2/4 55/2/4 61/2/4
f 61/2/4 55/2/4 54/2/4
f 76/1/4 695/1/4 73/1/4
f 73/1/4 695/1/4 624/1/4
f 236/1/4 53/1/4 791/1/4
f 791/1/4 53/1/4 114/1/4
f 134/2/4 523/2/4 131/2/4
f 131/2/4 523/2/4 186/2/4
f 791/1/4 178/1/4 233/1/4
f 233/1/4 178/1/4 177/1/4
f 132/1/4 202/1/4 263/1/4
f 263/1/4 202/1/4 201/1/4
f 234/2/4 594/2/4 231/2/4
f 231/2/4 594/2/4 593/2/4
f 264/2/4 185/2/4 261/2/4
f 261/2/4 185/2/4 619/2/4
f 232/2/4 596/2/4 323/2/4
f 323/2/4 596/2/4 673/2/4
f 265/1/4 625/1/4 343/1/4
f 343/1/4 625/1/4 694/1/4
f 418/2/4 769/2/4 416/2/4
f 416/2/4 769/2/4 768/2/4
f 36/2/4 446/2/4 33/2/4
f 33/2/4 446/2/4 445/2/4
f 183/1/4 116/1/4 180/1/4
f 180/1/4 116/1/4 239/1/4
f 207/2/4 132/2/4 204/2/4
f 204/2/4 132/2/4 263/2/4
f 269/1/4 73/1/4 792/1/4
f 792/1/4 73/1/4 135/1/4
f 792/1/4 206/1/4 793/1/4
f 793/1/4 206/1/4 205/1/4
f 793/1/4 266/1/4 267/1/4
f 267/1/4 266/1/4 265/1/4
f 268/2/4 691/2/4 341/2/4
f 341/2/4 691/2/4 690/2/4
f 143/2/4 138/2/4 140/2/4
f 140/2/4 138/2/4 137/2/4
f 210/1/4 136/1/4 208/1/4
f 208/1/4 136/1/4 272/1/4
f 552/2/5 173/2/5 549/2/5
f 549/2/5 173/2/5 172/2/5
f 556/2/5 177/2/5 553/2/5
f 553/2/5 177/2/5 176/2/5
f 178/2/5 114/2/5 179/2/5
f 179/2/5 114/2/5 113/2/5
f 596/2/5 232/2/5 593/2/5
f 593/2/5 232/2/5 231/2/5
f 677/1/5 671/1/5 787/1/5
f 787/1/5 671/1/5 670/1/5
f 672/2/5 320/2/5 669/2/5
f 669/2/5 320/2/5 319/2/5
f 675/2/5 324/2/5 673/2/5
f 673/2/5 324/2/5 323/2/5
f 679/1/5 332/1/5 597/1/5
f 597/1/5 332/1/5 787/1/5
f 329/2/5 326/2/5 676/2/5
f 676/2/5 326/2/5 325/2/5
f 683/1/5 336/1/5 322/1/5
f 322/1/5 336/1/5 596/1/5
f 238/1/5 181/1/5 239/1/5
f 239/1/5 181/1/5 180/1/5
f 681/2/5 330/2/5 678/2/5
f 678/2/5 330/2/5 329/2/5
f 242/1/5 684/1/5 328/1/5
f 328/1/5 684/1/5 321/1/5
f 685/2/5 334/2/5 682/2/5
f 682/2/5 334/2/5 333/2/5
f 335/1/5 240/1/5 674/1/5
f 674/1/5 240/1/5 235/1/5
f 687/1/5 340/1/5 601/1/5
f 601/1/5 340/1/5 600/1/5
f 253/1/5 243/1/5 332/1/5
f 332/1/5 243/1/5 327/1/5
f 200/2/5 185/2/5 557/2/5
f 557/2/5 185/2/5 184/2/5
f 562/2/5 189/2/5 559/2/5
f 559/2/5 189/2/5 188/2/5
f 518/2/5 120/2/5 515/2/5
f 515/2/5 120/2/5 119/2/5
f 607/2/5 246/2/5 604/2/5
f 604/2/5 246/2/5 245/2/5
f 522/2/5 124/2/5 519/2/5
f 519/2/5 124/2/5 123/2/5
f 611/2/5 250/2/5 608/2/5
f 608/2/5 250/2/5 249/2/5
f 566/2/5 193/2/5 563/2/5
f 563/2/5 193/2/5 192/2/5
f 570/2/5 197/2/5 567/2/5
f 567/2/5 197/2/5 196/2/5
f 689/2/5 338/2/5 686/2/5
f 686/2/5 338/2/5 337/2/5
f 255/2/5 128/2/5 256/2/5
f 256/2/5 128/2/5 127/2/5
f 618/2/5 258/2/5 243/2/5
f 243/2/5 258/2/5 257/2/5
f 259/2/5 201/2/5 260/2/5
f 260/2/5 201/2/5 200/2/5
f 525/2/5 132/2/5 186/2/5
f 186/2/5 132/2/5 131/2/5
f 621/2/5 262/2/5 619/2/5
f 619/2/5 262/2/5 261/2/5
f 625/1/5 794/1/5 622/1/5
f 622/1/5 794/1/5 615/1/5
f 794/1/5 795/1/5 612/1/5
f 612/1/5 795/1/5 603/1/5
f 795/1/5 796/1/5 688/1/5
f 688/1/5 796/1/5 339/1/5
f 796/1/5 797/1/5 680/1/5
f 680/1/5 797/1/5 331/1/5
f 797/1/5 265/1/5 254/1/5
f 254/1/5 265/1/5 262/1/5
f 266/2/5 205/2/5 263/2/5
f 263/2/5 205/2/5 204/2/5
f 727/2/5 373/2/5 724/2/5
f 724/2/5 373/2/5 372/2/5
f 745/1/5 730/1/5 798/1/5
f 798/1/5 730/1/5 729/1/5
f 731/2/5 377/2/5 728/2/5
f 728/2/5 377/2/5 376/2/5
f 735/2/5 381/2/5 732/2/5
f 732/2/5 381/2/5 380/2/5
f 739/2/5 385/2/5 736/2/5
f 736/2/5 385/2/5 384/2/5
f 743/2/5 389/2/5 740/2/5
f 740/2/5 389/2/5 388/2/5
f 691/1/5 268/1/5 799/1/5
f 799/1/5 268/1/5 267/1/5
f 749/1/5 399/1/5 800/1/5
f 800/1/5 399/1/5 725/1/5
f 747/2/5 393/2/5 744/2/5
f 744/2/5 393/2/5 392/2/5
f 753/1/5 801/1/5 802/1/5
f 802/1/5 801/1/5 378/1/5
f 757/1/5 803/1/5 804/1/5
f 804/1/5 803/1/5 733/1/5
f 761/1/5 411/1/5 805/1/5
f 805/1/5 411/1/5 737/1/5
f 765/1/5 415/1/5 806/1/5
f 806/1/5 415/1/5 741/1/5
f 769/1/5 418/1/5 807/1/5
f 807/1/5 418/1/5 343/1/5
f 448/2/5 34/2/5 445/2/5
f 445/2/5 34/2/5 33/2/5
f 693/2/5 342/2/5 690/2/5
f 690/2/5 342/2/5 341/2/5
f 271/1/5 209/1/5 272/1/5
f 272/1/5 209/1/5 208/1/5
f 697/1/5 750/1/5 694/1/5
f 694/1/5 750/1/5 800/1/5
f 751/2/5 397/2/5 748/2/5
f 748/2/5 397/2/5 396/2/5
f 398/1/5 808/1/5 726/1/5
f 726/1/5 808/1/5 374/1/5
f 808/1/5 809/1/5 375/1/5
f 375/1/5 809/1/5 798/1/5
f 809/1/5 810/1/5 746/1/5
f 746/1/5 810/1/5 394/1/5
f 810/1/5 754/1/5 395/1/5
f 395/1/5 754/1/5 802/1/5
f 755/2/5 401/2/5 752/2/5
f 752/2/5 401/2/5 400/2/5
f 402/1/5 811/1/5 403/1/5
f 403/1/5 811/1/5 801/1/5
f 811/1/5 758/1/5 379/1/5
f 379/1/5 758/1/5 804/1/5
f 759/2/5 405/2/5 756/2/5
f 756/2/5 405/2/5 404/2/5
f 406/1/5 345/1/5 407/1/5
f 407/1/5 345/1/5 803/1/5
f 345/1/5 812/1/5 734/1/5
f 734/1/5 812/1/5 382/1/5
f 812/1/5 762/1/5 383/1/5
f 383/1/5 762/1/5 805/1/5
f 763/2/5 409/2/5 760/2/5
f 760/2/5 409/2/5 408/2/5
f 410/1/5 813/1/5 738/1/5
f 738/1/5 813/1/5 386/1/5
f 813/1/5 766/1/5 387/1/5
f 387/1/5 766/1/5 806/1/5
f 767/2/5 413/2/5 764/2/5
f 764/2/5 413/2/5 412/2/5
f 414/1/5 814/1/5 742/1/5
f 742/1/5 814/1/5 390/1/5
f 814/1/5 770/1/5 391/1/5
f 391/1/5 770/1/5 807/1/5
f 771/2/5 417/2/5 768/2/5
f 768/2/5 417/2/5 416/2/5
f 275/1/5 815/1/5 265/1/5
f 265/1/5 815/1/5 799/1/5
f 815/1/5 273/1/5 692/1/5
f 692/1/5 273/1/5 270/1/5
f 274/2/5 141/2/5 137/2/5
f 137/2/5 141/2/5 140/2/5
f 629/1/5 699/1/5 626/1/5
f 626/1/5 699/1/5 698/1/5
f 700/2/5 346/2/5 406/2/5
f 406/2/5 346/2/5 345/2/5
f 347/1/5 276/1/5 348/1/5
f 348/1/5 276/1/5 275/1/5
f 633/2/5 278/2/5 630/2/5
f 630/2/5 278/2/5 277/2/5
f 529/2/5 145/2/5 526/2/5
f 526/2/5 145/2/5 144/2/5
f 576/2/5 636/2/5 573/2/5
f 573/2/5 636/2/5 635/2/5
f 704/2/5 350/2/5 701/2/5
f 701/2/5 350/2/5 349/2/5
f 580/2/5 212/2/5 577/2/5
f 577/2/5 212/2/5 211/2/5
f 156/2/5 149/2/5 530/2/5
f 530/2/5 149/2/5 148/2/5
f 641/2/5 285/2/5 638/2/5
f 638/2/5 285/2/5 284/2/5
f 584/2/5 216/2/5 581/2/5
f 581/2/5 216/2/5 215/2/5
f 645/2/5 289/2/5 642/2/5
f 642/2/5 289/2/5 288/2/5
f 535/2/5 153/2/5 532/2/5
f 532/2/5 153/2/5 152/2/5
f 647/1/5 650/1/5 634/1/5
f 634/1/5 650/1/5 702/1/5
f 706/1/5 293/1/5 282/1/5
f 282/1/5 293/1/5 292/1/5
f 542/2/5 157/2/5 213/2/5
f 213/2/5 157/2/5 156/2/5
f 649/2/5 297/2/5 285/2/5
f 285/2/5 297/2/5 296/2/5
f 544/2/5 161/2/5 217/2/5
f 217/2/5 161/2/5 160/2/5
f 708/2/5 354/2/5 705/2/5
f 705/2/5 354/2/5 353/2/5
f 712/2/5 357/2/5 709/2/5
f 709/2/5 357/2/5 356/2/5
f 714/1/5 301/1/5 649/1/5
f 649/1/5 301/1/5 300/1/5
f 653/1/5 654/1/5 703/1/5
f 703/1/5 654/1/5 351/1/5
f 722/1/5 371/1/5 293/1/5
f 293/1/5 371/1/5 710/1/5
f 716/2/5 361/2/5 713/2/5
f 713/2/5 361/2/5 360/2/5
f 720/2/5 365/2/5 717/2/5
f 717/2/5 365/2/5 364/2/5
f 304/1/5 220/1/5 305/1/5
f 305/1/5 220/1/5 219/1/5
f 656/1/5 657/1/5 352/1/5
f 352/1/5 657/1/5 281/1/5
f 657/1/5 308/1/5 707/1/5
f 707/1/5 308/1/5 355/1/5
f 723/2/5 369/2/5 721/2/5
f 721/2/5 369/2/5 368/2/5
f 370/1/5 816/1/5 711/1/5
f 711/1/5 816/1/5 358/1/5
f 816/1/5 661/1/5 359/1/5
f 359/1/5 661/1/5 649/1/5
f 661/1/5 312/1/5 715/1/5
f 715/1/5 312/1/5 362/1/5
f 312/1/5 817/1/5 363/1/5
f 363/1/5 817/1/5 718/1/5
f 817/1/5 665/1/5 719/1/5
f 719/1/5 665/1/5 366/1/5
f 665/1/5 306/1/5 367/1/5
f 367/1/5 306/1/5 301/1/5
f 660/2/5 309/2/5 657/2/5
f 657/2/5 309/2/5 308/2/5
f 588/2/5 224/2/5 585/2/5
f 585/2/5 224/2/5 223/2/5
f 548/2/5 169/2/5 545/2/5
f 545/2/5 169/2/5 168/2/5
f 664/2/5 313/2/5 661/2/5
f 661/2/5 313/2/5 312/2/5
f 592/2/5 228/2/5 589/2/5
f 589/2/5 228/2/5 227/2/5
f 668/2/5 316/2/5 665/2/5
f 665/2/5 316/2/5 306/2/5
f 551/2/6 550/2/6 174/2/6
f 174/2/6 550/2/6 175/2/6
f 555/2/6 554/2/6 178/2/6
f 178/2/6 554/2/6 179/2/6
f 465/2/6 514/2/6 53/2/6
f 53/2/6 514/2/6 115/2/6
f 595/2/6 594/2/6 233/2/6
f 233/2/6 594/2/6 234/2/6
f 469/1/6 818/1/6 468/1/6
f 468/1/6 818/1/6 465/1/6
f 467/2/6 466/2/6 55/2/6
f 55/2/6 466/2/6 56/2/6
f 54/1/6 53/1/6 61/1/6
f 61/1/6 53/1/6 236/1/6
f 471/2/6 470/2/6 59/2/6
f 59/2/6 470/2/6 60/2/6
f 475/1/6 819/1/6 474/1/6
f 474/1/6 819/1/6 54/1/6
f 473/2/6 55/2/6 63/2/6
f 63/2/6 55/2/6 64/2/6
f 241/1/6 116/1/6 182/1/6
f 182/1/6 116/1/6 183/1/6
f 479/1/6 602/1/6 69/1/6
f 69/1/6 602/1/6 599/1/6
f 244/1/6 57/1/6 478/1/6
f 478/1/6 57/1/6 819/1/6
f 477/2/6 476/2/6 67/2/6
f 67/2/6 476/2/6 68/2/6
f 66/1/6 65/1/6 118/1/6
f 118/1/6 65/1/6 62/1/6
f 481/2/6 480/2/6 71/2/6
f 71/2/6 480/2/6 72/2/6
f 820/1/6 472/1/6 130/1/6
f 130/1/6 472/1/6 58/1/6
f 203/2/6 558/2/6 186/2/6
f 186/2/6 558/2/6 187/2/6
f 561/2/6 560/2/6 190/2/6
f 190/2/6 560/2/6 191/2/6
f 517/2/6 516/2/6 121/2/6
f 121/2/6 516/2/6 122/2/6
f 606/2/6 605/2/6 247/2/6
f 247/2/6 605/2/6 248/2/6
f 521/2/6 520/2/6 125/2/6
f 125/2/6 520/2/6 126/2/6
f 610/2/6 609/2/6 251/2/6
f 251/2/6 609/2/6 252/2/6
f 565/2/6 564/2/6 194/2/6
f 194/2/6 564/2/6 195/2/6
f 569/2/6 568/2/6 198/2/6
f 198/2/6 568/2/6 199/2/6
f 821/2/6 820/2/6 129/2/6
f 129/2/6 820/2/6 130/2/6
f 617/2/6 616/2/6 259/2/6
f 259/2/6 616/2/6 260/2/6
f 572/2/6 571/2/6 202/2/6
f 202/2/6 571/2/6 203/2/6
f 524/2/6 523/2/6 133/2/6
f 133/2/6 523/2/6 134/2/6
f 620/2/6 185/2/6 263/2/6
f 263/2/6 185/2/6 264/2/6
f 624/1/6 623/1/6 822/1/6
f 822/1/6 623/1/6 614/1/6
f 822/1/6 613/1/6 823/1/6
f 823/1/6 613/1/6 479/1/6
f 823/1/6 482/1/6 824/1/6
f 824/1/6 482/1/6 70/1/6
f 824/1/6 598/1/6 825/1/6
f 825/1/6 598/1/6 818/1/6
f 825/1/6 821/1/6 73/1/6
f 73/1/6 821/1/6 133/1/6
f 135/2/6 132/2/6 206/2/6
f 206/2/6 132/2/6 207/2/6
f 421/2/6 420/2/6 3/2/6
f 3/2/6 420/2/6 4/2/6
f 433/1/6 826/1/6 21/1/6
f 21/1/6 826/1/6 423/1/6
f 24/2/6 424/2/6 7/2/6
f 7/2/6 424/2/6 8/2/6
f 427/2/6 426/2/6 11/2/6
f 11/2/6 426/2/6 12/2/6
f 10/1/6 9/1/6 432/1/6
f 432/1/6 9/1/6 429/1/6
f 431/2/6 430/2/6 15/2/6
f 15/2/6 430/2/6 16/2/6
f 14/1/6 13/1/6 445/1/6
f 445/1/6 13/1/6 76/1/6
f 449/1/6 827/1/6 37/1/6
f 37/1/6 827/1/6 419/1/6
f 435/2/6 434/2/6 19/2/6
f 19/2/6 434/2/6 20/2/6
f 453/1/6 828/1/6 440/1/6
f 440/1/6 828/1/6 437/1/6
f 439/2/6 438/2/6 23/2/6
f 23/2/6 438/2/6 24/2/6
f 457/1/6 829/1/6 830/1/6
f 830/1/6 829/1/6 425/1/6
f 441/2/6 11/2/6 27/2/6
f 27/2/6 11/2/6 28/2/6
f 461/1/6 831/1/6 444/1/6
f 444/1/6 831/1/6 14/1/6
f 443/2/6 15/2/6 31/2/6
f 31/2/6 15/2/6 32/2/6
f 447/2/6 446/2/6 35/2/6
f 35/2/6 446/2/6 36/2/6
f 137/1/6 136/1/6 140/1/6
f 140/1/6 136/1/6 210/1/6
f 696/1/6 695/1/6 452/1/6
f 452/1/6 695/1/6 827/1/6
f 451/2/6 450/2/6 39/2/6
f 39/2/6 450/2/6 40/2/6
f 38/1/6 422/1/6 832/1/6
f 832/1/6 422/1/6 2/1/6
f 832/1/6 1/1/6 833/1/6
f 833/1/6 1/1/6 826/1/6
f 833/1/6 436/1/6 834/1/6
f 834/1/6 436/1/6 18/1/6
f 834/1/6 17/1/6 456/1/6
f 456/1/6 17/1/6 828/1/6
f 455/2/6 454/2/6 43/2/6
f 43/2/6 454/2/6 44/2/6
f 42/1/6 41/1/6 835/1/6
f 835/1/6 41/1/6 22/1/6
f 835/1/6 21/1/6 836/1/6
f 836/1/6 21/1/6 6/1/6
f 836/1/6 5/1/6 460/1/6
f 460/1/6 5/1/6 829/1/6
f 459/2/6 458/2/6 47/2/6
f 47/2/6 458/2/6 48/2/6
f 46/1/6 45/1/6 837/1/6
f 837/1/6 45/1/6 830/1/6
f 837/1/6 428/1/6 838/1/6
f 838/1/6 428/1/6 10/1/6
f 838/1/6 442/1/6 839/1/6
f 839/1/6 442/1/6 26/1/6
f 839/1/6 25/1/6 464/1/6
f 464/1/6 25/1/6 831/1/6
f 463/2/6 462/2/6 51/2/6
f 51/2/6 462/2/6 52/2/6
f 50/1/6 49/1/6 840/1/6
f 840/1/6 49/1/6 30/1/6
f 840/1/6 29/1/6 75/1/6
f 75/1/6 29/1/6 445/1/6
f 74/1/6 73/1/6 780/1/6
f 780/1/6 73/1/6 269/1/6
f 780/2/6 138/2/6 142/2/6
f 142/2/6 138/2/6 143/2/6
f 628/1/6 627/1/6 155/1/6
f 155/1/6 627/1/6 74/1/6
f 632/2/6 631/2/6 279/2/6
f 279/2/6 631/2/6 280/2/6
f 528/2/6 527/2/6 146/2/6
f 146/2/6 527/2/6 147/2/6
f 575/2/6 574/2/6 646/2/6
f 646/2/6 574/2/6 536/2/6
f 485/2/6 484/2/6 79/2/6
f 79/2/6 484/2/6 80/2/6
f 78/1/6 77/1/6 81/1/6
f 81/1/6 77/1/6 283/1/6
f 579/2/6 578/2/6 213/2/6
f 213/2/6 578/2/6 214/2/6
f 159/2/6 531/2/6 150/2/6
f 150/2/6 531/2/6 151/2/6
f 640/2/6 639/2/6 286/2/6
f 286/2/6 639/2/6 287/2/6
f 583/2/6 582/2/6 217/2/6
f 217/2/6 582/2/6 218/2/6
f 644/2/6 643/2/6 290/2/6
f 290/2/6 643/2/6 291/2/6
f 534/2/6 533/2/6 154/2/6
f 154/2/6 533/2/6 155/2/6
f 538/1/6 537/1/6 651/1/6
f 651/1/6 537/1/6 483/1/6
f 487/2/6 79/2/6 83/2/6
f 83/2/6 79/2/6 84/2/6
f 541/2/6 540/2/6 158/2/6
f 158/2/6 540/2/6 159/2/6
f 648/2/6 286/2/6 298/2/6
f 298/2/6 286/2/6 299/2/6
f 89/2/6 543/2/6 162/2/6
f 162/2/6 543/2/6 163/2/6
f 496/1/6 488/1/6 93/1/6
f 93/1/6 488/1/6 82/1/6
f 490/2/6 489/2/6 87/2/6
f 87/2/6 489/2/6 88/2/6
f 500/1/6 541/1/6 495/1/6
f 495/1/6 541/1/6 492/1/6
f 494/2/6 493/2/6 91/2/6
f 91/2/6 493/2/6 92/2/6
f 652/1/6 486/1/6 499/1/6
f 499/1/6 486/1/6 78/1/6
f 498/2/6 497/2/6 95/2/6
f 95/2/6 497/2/6 96/2/6
f 506/1/6 85/1/6 105/1/6
f 105/1/6 85/1/6 541/1/6
f 108/2/6 501/2/6 99/2/6
f 99/2/6 501/2/6 100/2/6
f 504/2/6 503/2/6 103/2/6
f 103/2/6 503/2/6 104/2/6
f 510/1/6 89/1/6 841/1/6
f 841/1/6 89/1/6 302/1/6
f 307/1/6 164/1/6 221/1/6
f 221/1/6 164/1/6 222/1/6
f 655/1/6 499/1/6 842/1/6
f 842/1/6 499/1/6 94/1/6
f 842/1/6 81/1/6 843/1/6
f 843/1/6 81/1/6 295/1/6
f 843/1/6 491/1/6 509/1/6
f 509/1/6 491/1/6 86/1/6
f 508/2/6 507/2/6 107/2/6
f 107/2/6 507/2/6 108/2/6
f 106/1/6 105/1/6 546/1/6
f 546/1/6 105/1/6 98/1/6
f 546/1/6 97/1/6 171/1/6
f 171/1/6 97/1/6 502/1/6
f 171/1/6 505/1/6 844/1/6
f 844/1/6 505/1/6 102/1/6
f 844/1/6 101/1/6 513/1/6
f 513/1/6 101/1/6 90/1/6
f 512/2/6 511/2/6 111/2/6
f 111/2/6 511/2/6 112/2/6
f 110/1/6 109/1/6 166/1/6
f 166/1/6 109/1/6 841/1/6
f 659/2/6 658/2/6 310/2/6
f 310/2/6 658/2/6 311/2/6
f 587/2/6 586/2/6 225/2/6
f 225/2/6 586/2/6 226/2/6
f 547/2/6 546/2/6 170/2/6
f 170/2/6 546/2/6 171/2/6
f 663/2/6 662/2/6 314/2/6
f 314/2/6 662/2/6 315/2/6
f 591/2/6 590/2/6 229/2/6
f 229/2/6 590/2/6 230/2/6
f 667/2/6 666/2/6 317/2/6
f 317/2/6 666/2/6 318/2/6
