# Vengi binary mesh normalized for Tanks of Freedom II

mtllib ../../../materials/vox_grass.mtl
o cactus_3

v -0.2 0.7 0.4
v -0.3 0.7 0.4
v -0.3 0.7 0.5
v -0.2 0.7 0.5
v 0.2 1 0.2
v 0.1 1 0.2
v 0.1 1 0.3
v 0.2 1 0.3
v 0.1 0.5 0.2
v 0 0.5 0.2
v 0 0.5 0.3
v 0.1 0.5 0.3
v 0.1 0.9 0.2
v -0.1 0.9 0.2
v -0.1 0.9 0.3
v 0.1 0.9 0.3
v -0.2 0.5 0.2
v -0.2 0.5 0.3
v -0.2 0.6 0.2
v -0.3 0.6 0.2
v -0.3 0.6 0.4
v -0.2 0.6 0.4
v 0 0.4 0.1
v -0.1 0.4 0.1
v -0.1 0.4 0.2
v 0 0.4 0.2
v 0 0.8 0.1
v -0.1 0.8 0.1
v -0.1 0.8 0.2
v 0 0.8 0.2
v 0.1 0.5 0
v 0 0.5 0
v 0 0.5 0.1
v 0.1 0.5 0.1
v 0 1 0
v -0.1 1 0
v -0.1 1 0.1
v 0 1 0.1
v -0.1 0.6 0
v -0.2 0.6 0
v -0.2 0.6 0.1
v -0.1 0.6 0.1
v -0.3 0.8 0
v -0.4 0.8 0
v -0.4 0.8 0.1
v -0.3 0.8 0.1
v 0.2 0.6 -0.1
v 0.1 0.6 -0.1
v 0.1 0.6 0.1
v 0.2 0.6 0.1
v 0 0.4 -0.1
v -0.1 0.4 -0.1
v -0.1 0.4 0
v 0 0.4 0
v -0.2 0.7 -0.1
v -0.3 0.7 -0.1
v -0.3 0.7 0.1
v -0.2 0.7 0.1
v 0.2 0.7 -0.2
v 0.1 0.7 -0.2
v 0.1 0.7 -0.1
v 0.2 0.7 -0.1
v 0 0.9 -0.2
v -0.1 0.9 -0.2
v -0.1 0.9 0
v 0 0.9 0
v -0.2 0.8 -0.2
v -0.3 0.8 -0.2
v -0.3 0.8 -0.1
v -0.2 0.8 -0.1
v 0 0.5 -0.3
v -0.1 0.5 -0.3
v -0.1 0.5 -0.1
v 0 0.5 -0.1
v 0 1 -0.3
v -0.1 1 -0.3
v -0.1 1 -0.2
v 0 1 -0.2
v 0 0.6 -0.4
v -0.1 0.6 -0.4
v -0.1 0.6 -0.3
v 0 0.6 -0.3
v -0.2 0.6 0.5
v -0.3 0.6 0.5
v -0.2 0.4 0.3
v -0.2 0.4 0.4
v -0.3 0.4 0.4
v -0.3 0.4 0.3
v 0.2 0.9 0.2
v 0.2 0.9 0.3
v 0.1 0.4 0.2
v 0.1 0.4 0.3
v 0 0.4 0.3
v 0.1 0.7 0.2
v 0.1 0.7 0.3
v 0 0.7 0.3
v 0 0.7 0.2
v -0.1 0.3 0.2
v -0.1 0.3 0.3
v -0.3 0.3 0.3
v -0.3 0.3 0.2
v 0 0.2 0.1
v 0 0.2 0.3
v -0.1 0.2 0.3
v -0.1 0.2 0.1
v 0 0.6 0.1
v 0 0.6 0.3
v -0.1 0.6 0.3
v 0.2 0.3 0
v 0.2 0.3 0.1
v 0 0.3 0.1
v 0 0.3 0
v 0 0 0
v 0 0 0.1
v -0.1 0 0.1
v -0.1 0 0
v -0.3 0.4 0.1
v -0.3 0.4 0
v -0.3 0.7 0
v -0.4 0.7 0.1
v -0.4 0.7 0
v 0.2 0.4 -0.1
v 0.2 0.4 0
v 0.1 0.4 0
v 0.1 0.4 -0.1
v -0.2 0.5 -0.1
v -0.2 0.5 0
v -0.3 0.5 0
v -0.3 0.5 -0.1
v 0.2 0.6 -0.2
v 0.1 0.6 -0.2
v 0 0.2 -0.2
v 0 0.2 0
v -0.1 0.2 0
v -0.1 0.2 -0.2
v 0 0.7 -0.2
v 0 0.7 0
v -0.1 0.7 0
v -0.1 0.7 -0.2
v -0.2 0.7 -0.2
v -0.3 0.7 -0.2
v 0 0.3 -0.3
v 0 0.3 -0.2
v -0.1 0.3 -0.2
v -0.1 0.3 -0.3
v 0 0.9 -0.3
v -0.1 0.9 -0.3
v 0 0.5 -0.4
v -0.1 0.5 -0.4
v -0.1 0.3 0.1
v -0.1 0.4 -0.2
v -0.1 0.5 -0.2
v -0.3 0.6 0.3
v 0.1 0.6 0
v -0.1 0.8 0
v -0.1 0.6 0.2
v -0.1 0.9 0.1
v 0 0.4 -0.2
v 0 0.5 -0.2
v -0.2 0.6 0.3
v 0.2 0.6 0
v 0 0.7 0.1
v -0.2 0.7 0
v 0 0.9 0.1
v 0 0.9 0.2
v 0 0.6 0
v -0.3 0.4 0.2
v -0.3 0.5 0.2
v 0.2 0.5 0.1
v -0.1 0.5 0.3
v -0.1 0.7 0.3
v -0.1 0.4 0.3
v -0.3 0.6 0.1

vt 0.0449219 0.5
vt 0.119141 0.5

vn 0 1 0
vn 0 -1 0
vn -1 0 0
vn 1 0 0
vn 0 0 -1
vn 0 0 1

usemtl palette
f 1/2/1 2/2/1 4/2/1
f 4/2/1 2/2/1 3/2/1
f 5/2/1 6/2/1 8/2/1
f 8/2/1 6/2/1 7/2/1
f 9/2/1 10/2/1 12/2/1
f 12/2/1 10/2/1 11/2/1
f 13/1/1 14/1/1 16/1/1
f 16/1/1 14/1/1 15/1/1
f 10/1/1 17/1/1 11/1/1
f 11/1/1 17/1/1 18/1/1
f 19/1/1 20/1/1 22/1/1
f 22/1/1 20/1/1 21/1/1
f 23/1/1 24/1/1 26/1/1
f 26/1/1 24/1/1 25/1/1
f 27/1/1 28/1/1 30/1/1
f 30/1/1 28/1/1 29/1/1
f 31/1/1 32/1/1 34/1/1
f 34/1/1 32/1/1 33/1/1
f 35/2/1 36/2/1 38/2/1
f 38/2/1 36/2/1 37/2/1
f 39/1/1 40/1/1 42/1/1
f 42/1/1 40/1/1 41/1/1
f 43/2/1 44/2/1 46/2/1
f 46/2/1 44/2/1 45/2/1
f 47/1/1 48/1/1 50/1/1
f 50/1/1 48/1/1 49/1/1
f 51/1/1 52/1/1 54/1/1
f 54/1/1 52/1/1 53/1/1
f 55/1/1 56/1/1 58/1/1
f 58/1/1 56/1/1 57/1/1
f 59/2/1 60/2/1 62/2/1
f 62/2/1 60/2/1 61/2/1
f 63/1/1 64/1/1 66/1/1
f 66/1/1 64/1/1 65/1/1
f 67/2/1 68/2/1 70/2/1
f 70/2/1 68/2/1 69/2/1
f 71/1/1 72/1/1 74/1/1
f 74/1/1 72/1/1 73/1/1
f 75/2/1 76/2/1 78/2/1
f 78/2/1 76/2/1 77/2/1
f 79/2/1 80/2/1 82/2/1
f 82/2/1 80/2/1 81/2/1
f 22/2/2 83/2/2 21/2/2
f 21/2/2 83/2/2 84/2/2
f 85/1/2 86/1/2 88/1/2
f 88/1/2 86/1/2 87/1/2
f 89/2/2 90/2/2 13/2/2
f 13/2/2 90/2/2 16/2/2
f 91/2/2 92/2/2 26/2/2
f 26/2/2 92/2/2 93/2/2
f 94/1/2 95/1/2 97/1/2
f 97/1/2 95/1/2 96/1/2
f 98/1/2 99/1/2 101/1/2
f 101/1/2 99/1/2 100/1/2
f 102/1/2 103/1/2 105/1/2
f 105/1/2 103/1/2 104/1/2
f 106/1/2 107/1/2 42/1/2
f 42/1/2 107/1/2 108/1/2
f 109/1/2 110/1/2 112/1/2
f 112/1/2 110/1/2 111/1/2
f 113/1/2 114/1/2 116/1/2
f 116/1/2 114/1/2 115/1/2
f 53/1/2 24/1/2 118/1/2
f 118/1/2 24/1/2 117/1/2
f 119/2/2 57/2/2 121/2/2
f 121/2/2 57/2/2 120/2/2
f 122/1/2 123/1/2 125/1/2
f 125/1/2 123/1/2 124/1/2
f 126/1/2 127/1/2 129/1/2
f 129/1/2 127/1/2 128/1/2
f 130/2/2 47/2/2 131/2/2
f 131/2/2 47/2/2 48/2/2
f 132/1/2 133/1/2 135/1/2
f 135/1/2 133/1/2 134/1/2
f 136/1/2 137/1/2 139/1/2
f 139/1/2 137/1/2 138/1/2
f 140/2/2 55/2/2 141/2/2
f 141/2/2 55/2/2 56/2/2
f 142/1/2 143/1/2 145/1/2
f 145/1/2 143/1/2 144/1/2
f 146/2/2 63/2/2 147/2/2
f 147/2/2 63/2/2 64/2/2
f 148/2/2 71/2/2 149/2/2
f 149/2/2 71/2/2 72/2/2
f 99/1/3 150/1/3 104/1/3
f 104/1/3 150/1/3 105/1/3
f 25/1/3 24/1/3 98/1/3
f 98/1/3 24/1/3 150/1/3
f 24/1/3 53/1/3 115/1/3
f 115/1/3 53/1/3 116/1/3
f 53/1/3 151/1/3 134/1/3
f 134/1/3 151/1/3 135/1/3
f 73/1/3 152/1/3 52/1/3
f 52/1/3 152/1/3 151/1/3
f 152/1/3 72/1/3 144/1/3
f 144/1/3 72/1/3 145/1/3
f 21/1/3 153/1/3 87/1/3
f 87/1/3 153/1/3 88/1/3
f 153/1/3 20/1/3 100/1/3
f 100/1/3 20/1/3 101/1/3
f 49/1/3 154/1/3 34/1/3
f 34/1/3 154/1/3 31/1/3
f 154/1/3 48/1/3 124/1/3
f 124/1/3 48/1/3 125/1/3
f 81/2/3 80/2/3 72/2/3
f 72/2/3 80/2/3 149/2/3
f 3/2/3 2/2/3 84/2/3
f 84/2/3 2/2/3 21/2/3
f 57/1/3 119/1/3 117/1/3
f 117/1/3 119/1/3 118/1/3
f 119/1/3 56/1/3 128/1/3
f 128/1/3 56/1/3 129/1/3
f 61/2/3 60/2/3 48/2/3
f 48/2/3 60/2/3 131/2/3
f 29/1/3 155/1/3 156/1/3
f 156/1/3 155/1/3 39/1/3
f 45/2/3 44/2/3 120/2/3
f 120/2/3 44/2/3 121/2/3
f 69/2/3 68/2/3 56/2/3
f 56/2/3 68/2/3 141/2/3
f 15/1/3 14/1/3 108/1/3
f 108/1/3 14/1/3 156/1/3
f 157/1/3 65/1/3 28/1/3
f 28/1/3 65/1/3 155/1/3
f 65/1/3 64/1/3 138/1/3
f 138/1/3 64/1/3 139/1/3
f 7/2/3 6/2/3 16/2/3
f 16/2/3 6/2/3 13/2/3
f 37/2/3 36/2/3 157/2/3
f 157/2/3 36/2/3 65/2/3
f 77/2/3 76/2/3 64/2/3
f 64/2/3 76/2/3 147/2/3
f 111/1/4 114/1/4 112/1/4
f 112/1/4 114/1/4 113/1/4
f 93/1/4 103/1/4 23/1/4
f 23/1/4 103/1/4 102/1/4
f 54/1/4 133/1/4 158/1/4
f 158/1/4 133/1/4 132/1/4
f 12/2/4 92/2/4 9/2/4
f 9/2/4 92/2/4 91/2/4
f 74/1/4 51/1/4 159/1/4
f 159/1/4 51/1/4 158/1/4
f 159/1/4 143/1/4 71/1/4
f 71/1/4 143/1/4 142/1/4
f 22/1/4 86/1/4 160/1/4
f 160/1/4 86/1/4 85/1/4
f 160/1/4 18/1/4 19/1/4
f 19/1/4 18/1/4 17/1/4
f 50/1/4 110/1/4 161/1/4
f 161/1/4 110/1/4 109/1/4
f 161/1/4 123/1/4 47/1/4
f 47/1/4 123/1/4 122/1/4
f 82/2/4 71/2/4 79/2/4
f 79/2/4 71/2/4 148/2/4
f 4/2/4 83/2/4 1/2/4
f 1/2/4 83/2/4 22/2/4
f 96/1/4 107/1/4 162/1/4
f 162/1/4 107/1/4 106/1/4
f 58/1/4 41/1/4 163/1/4
f 163/1/4 41/1/4 40/1/4
f 163/1/4 127/1/4 55/1/4
f 55/1/4 127/1/4 126/1/4
f 62/2/4 47/2/4 59/2/4
f 59/2/4 47/2/4 130/2/4
f 30/1/4 97/1/4 27/1/4
f 27/1/4 97/1/4 162/1/4
f 46/2/4 57/2/4 43/2/4
f 43/2/4 57/2/4 119/2/4
f 70/2/4 55/2/4 67/2/4
f 67/2/4 55/2/4 140/2/4
f 16/1/4 95/1/4 13/1/4
f 13/1/4 95/1/4 94/1/4
f 164/1/4 33/1/4 66/1/4
f 66/1/4 33/1/4 32/1/4
f 66/1/4 137/1/4 63/1/4
f 63/1/4 137/1/4 136/1/4
f 8/2/4 90/2/4 5/2/4
f 5/2/4 90/2/4 89/2/4
f 38/2/4 164/2/4 35/2/4
f 35/2/4 164/2/4 66/2/4
f 78/2/4 63/2/4 75/2/4
f 75/2/4 63/2/4 146/2/4
f 125/1/5 48/1/5 122/1/5
f 122/1/5 48/1/5 47/1/5
f 131/2/5 60/2/5 130/2/5
f 130/2/5 60/2/5 59/2/5
f 13/2/5 6/2/5 89/2/5
f 89/2/5 6/2/5 5/2/5
f 112/1/5 54/1/5 109/1/5
f 109/1/5 54/1/5 123/1/5
f 26/2/5 10/2/5 91/2/5
f 91/2/5 10/2/5 9/2/5
f 97/1/5 165/1/5 94/1/5
f 94/1/5 165/1/5 13/1/5
f 116/1/5 134/1/5 113/1/5
f 113/1/5 134/1/5 133/1/5
f 135/1/5 144/1/5 132/1/5
f 132/1/5 144/1/5 143/1/5
f 145/1/5 72/1/5 142/1/5
f 142/1/5 72/1/5 71/1/5
f 149/2/5 80/2/5 148/2/5
f 148/2/5 80/2/5 79/2/5
f 39/1/5 138/1/5 166/1/5
f 166/1/5 138/1/5 137/1/5
f 29/1/5 14/1/5 30/1/5
f 30/1/5 14/1/5 165/1/5
f 139/1/5 64/1/5 136/1/5
f 136/1/5 64/1/5 63/1/5
f 65/2/5 36/2/5 66/2/5
f 66/2/5 36/2/5 35/2/5
f 147/2/5 76/2/5 146/2/5
f 146/2/5 76/2/5 75/2/5
f 127/1/5 40/1/5 32/1/5
f 32/1/5 40/1/5 166/1/5
f 101/1/5 167/1/5 98/1/5
f 98/1/5 167/1/5 25/1/5
f 167/1/5 168/1/5 26/1/5
f 26/1/5 168/1/5 10/1/5
f 118/1/5 128/1/5 124/1/5
f 124/1/5 128/1/5 31/1/5
f 168/1/5 20/1/5 17/1/5
f 17/1/5 20/1/5 19/1/5
f 21/2/5 2/2/5 22/2/5
f 22/2/5 2/2/5 1/2/5
f 129/1/5 56/1/5 126/1/5
f 126/1/5 56/1/5 55/1/5
f 141/2/5 68/2/5 140/2/5
f 140/2/5 68/2/5 67/2/5
f 121/2/5 44/2/5 119/2/5
f 119/2/5 44/2/5 43/2/5
f 34/1/6 169/1/6 49/1/6
f 49/1/6 169/1/6 50/1/6
f 48/2/6 47/2/6 61/2/6
f 61/2/6 47/2/6 62/2/6
f 16/2/6 90/2/6 7/2/6
f 7/2/6 90/2/6 8/2/6
f 93/2/6 92/2/6 11/2/6
f 11/2/6 92/2/6 12/2/6
f 111/1/6 110/1/6 33/1/6
f 33/1/6 110/1/6 169/1/6
f 115/1/6 114/1/6 105/1/6
f 105/1/6 114/1/6 102/1/6
f 104/1/6 103/1/6 170/1/6
f 170/1/6 103/1/6 11/1/6
f 52/1/6 51/1/6 73/1/6
f 73/1/6 51/1/6 74/1/6
f 72/2/6 71/2/6 81/2/6
f 81/2/6 71/2/6 82/2/6
f 108/1/6 107/1/6 171/1/6
f 171/1/6 107/1/6 96/1/6
f 171/1/6 95/1/6 15/1/6
f 15/1/6 95/1/6 16/1/6
f 28/1/6 27/1/6 157/1/6
f 157/1/6 27/1/6 164/1/6
f 157/2/6 164/2/6 37/2/6
f 37/2/6 164/2/6 38/2/6
f 64/2/6 63/2/6 77/2/6
f 77/2/6 63/2/6 78/2/6
f 85/1/6 172/1/6 18/1/6
f 18/1/6 172/1/6 170/1/6
f 100/1/6 99/1/6 88/1/6
f 88/1/6 99/1/6 172/1/6
f 87/1/6 86/1/6 21/1/6
f 21/1/6 86/1/6 22/1/6
f 117/1/6 23/1/6 173/1/6
f 173/1/6 23/1/6 106/1/6
f 84/2/6 83/2/6 3/2/6
f 3/2/6 83/2/6 4/2/6
f 173/1/6 41/1/6 57/1/6
f 57/1/6 41/1/6 58/1/6
f 56/2/6 55/2/6 69/2/6
f 69/2/6 55/2/6 70/2/6
f 120/2/6 57/2/6 45/2/6
f 45/2/6 57/2/6 46/2/6
