# Vengi binary mesh normalized for Tanks of Freedom II

mtllib ../../../materials/vox_grass.mtl
o cactus_1

v 0.2 0.4 0.4
v 0.1 0.4 0.4
v 0.1 0.4 0.5
v 0.2 0.4 0.5
v 0.1 1.9 0.4
v 0 1.9 0.4
v 0 1.9 0.5
v 0.1 1.9 0.5
v 0 1.1 0.4
v -0.1 1.1 0.4
v -0.1 1.1 0.5
v 0 1.1 0.5
v -0.1 0.5 0.4
v -0.2 0.5 0.4
v -0.2 0.5 0.5
v -0.1 0.5 0.5
v -0.1 1.8 0.4
v -0.2 1.8 0.4
v -0.2 1.8 0.5
v -0.1 1.8 0.5
v 0.3 1.1 0.3
v 0.2 1.1 0.3
v 0.2 1.1 0.4
v 0.3 1.1 0.4
v 0.3 1.9 0.3
v 0.2 1.9 0.3
v 0.2 1.9 0.4
v 0.3 1.9 0.4
v 0.2 1.2 0.3
v 0.1 1.2 0.3
v 0.1 1.2 0.4
v 0.2 1.2 0.4
v 0.1 0.9 0.3
v 0 0.9 0.3
v 0 0.9 0.4
v 0.1 0.9 0.4
v 0.1 1.3 0.3
v 0 1.3 0.3
v 0 1.3 0.4
v 0.1 1.3 0.4
v 0 0.7 0.3
v -0.1 0.7 0.3
v -0.1 0.7 0.4
v 0 0.7 0.4
v 0 1.4 0.3
v -0.1 1.4 0.3
v -0.1 1.4 0.4
v 0 1.4 0.4
v 0.2 0.5 0.3
v -0.2 0.5 0.3
v 0.2 0.5 0.4
v 0 1.2 0.3
v -0.2 1.2 0.3
v -0.2 1.2 0.4
v 0 1.2 0.4
v -0.2 1.9 0.3
v -0.2 1.9 0.4
v 0.3 0.5 0.2
v 0.2 0.5 0.2
v 0.3 0.5 0.3
v 0.3 1.2 0.2
v 0.2 1.2 0.2
v 0.3 1.2 0.3
v 0.3 1.9 0.2
v 0.2 1.9 0.2
v 0.2 0.6 0.2
v 0.1 0.6 0.2
v 0.1 0.6 0.3
v 0.2 0.6 0.3
v 0.2 1.3 0.2
v 0.1 1.3 0.2
v 0.2 1.3 0.3
v 0.2 2 0.2
v 0.1 2 0.2
v 0.1 2 0.3
v 0.2 2 0.3
v 0.1 2.1 0.2
v 0 2.1 0.2
v 0 2.1 0.3
v 0.1 2.1 0.3
v 0.1 0.7 0.2
v -0.1 0.7 0.2
v 0.1 0.7 0.3
v 0.1 1.4 0.2
v -0.1 1.4 0.2
v 0.1 1.4 0.3
v 0 2.2 0.2
v -0.1 2.2 0.2
v -0.1 2.2 0.3
v 0 2.2 0.3
v -0.1 0.6 0.2
v -0.2 0.6 0.2
v -0.2 0.6 0.3
v -0.1 0.6 0.3
v -0.1 1.3 0.2
v -0.2 1.3 0.2
v -0.2 1.3 0.3
v -0.1 1.3 0.3
v -0.1 2 0.2
v -0.2 2 0.2
v -0.2 2 0.3
v -0.1 2 0.3
v -0.2 0.5 0.2
v -0.3 0.5 0.2
v -0.3 0.5 0.3
v -0.2 1.2 0.2
v -0.3 1.2 0.2
v -0.3 1.2 0.3
v -0.2 1.9 0.2
v -0.3 1.9 0.2
v -0.3 1.9 0.3
v 0.4 0.5 0.1
v 0.3 0.5 0.1
v 0.4 0.5 0.2
v 0.3 0.6 0.1
v 0.2 0.6 0.1
v 0.3 0.6 0.2
v 0.3 1.3 0.1
v 0.2 1.3 0.1
v 0.3 1.3 0.2
v 0.3 2.1 0.1
v 0.2 2.1 0.1
v 0.2 2.1 0.2
v 0.3 2.1 0.2
v 0.2 0.7 0.1
v 0.1 0.7 0.1
v 0.2 0.7 0.2
v 0.2 1.4 0.1
v 0.1 1.4 0.1
v 0.2 1.4 0.2
v 0.1 2.1 0.1
v 0.1 2.2 0.1
v -0.1 2.2 0.1
v 0.1 2.2 0.2
v 0.1 2.4 0.1
v -0.1 2.4 0.1
v -0.1 2.4 0.2
v 0.1 2.4 0.2
v -0.1 0.7 0.1
v -0.2 0.7 0.1
v -0.2 0.7 0.2
v -0.1 1.4 0.1
v -0.2 1.4 0.1
v -0.2 1.4 0.2
v -0.1 2.1 0.1
v -0.2 2.1 0.1
v -0.2 2.1 0.2
v -0.1 2.1 0.2
v -0.2 0.6 0.1
v -0.3 0.6 0.1
v -0.3 0.6 0.2
v -0.2 1.3 0.1
v -0.3 1.3 0.1
v -0.3 1.3 0.2
v -0.2 2 0.1
v -0.3 2 0.1
v -0.3 2 0.2
v -0.3 0.5 0.1
v -0.4 0.5 0.1
v -0.4 0.5 0.2
v -0.4 0.4 0.1
v -0.5 0.4 0.1
v -0.5 0.4 0.2
v -0.4 0.4 0.2
v -0.4 1.9 0.1
v -0.5 1.9 0.1
v -0.5 1.9 0.2
v -0.4 1.9 0.2
v 0.5 1.2 0
v 0.4 1.2 0
v 0.4 1.2 0.1
v 0.5 1.2 0.1
v 0.4 0.6 0
v 0.3 0.6 0
v 0.4 0.6 0.1
v 0.4 1.4 0
v 0.3 1.4 0
v 0.3 1.4 0.1
v 0.4 1.4 0.1
v -0.3 0.6 0
v -0.4 0.6 0
v -0.4 0.6 0.1
v -0.3 0.9 0
v -0.4 0.9 0
v -0.4 0.9 0.1
v -0.3 0.9 0.1
v -0.3 1.4 0
v -0.4 1.4 0
v -0.4 1.4 0.1
v -0.3 1.4 0.1
v -0.3 1.9 0
v -0.4 1.9 0
v 0.5 0.4 -0.1
v 0.4 0.4 -0.1
v 0.4 0.4 0
v 0.5 0.4 0
v 0.5 1.9 -0.1
v 0.4 1.9 -0.1
v 0.4 1.9 0
v 0.5 1.9 0
v 0.4 0.9 -0.1
v 0.3 0.9 -0.1
v 0.3 0.9 0
v 0.4 0.9 0
v 0.3 0.7 -0.1
v 0.2 0.7 -0.1
v 0.3 0.7 0.1
v 0.3 1.4 -0.1
v 0.2 1.4 -0.1
v 0.3 2.1 -0.1
v 0.2 2.1 -0.1
v 0.2 2.2 -0.1
v 0.1 2.2 -0.1
v 0.2 2.2 0.1
v 0.2 2.4 -0.1
v 0.1 2.4 -0.1
v 0.2 2.4 0.1
v -0.1 2.4 -0.1
v -0.1 2.2 -0.1
v -0.2 2.2 -0.1
v -0.2 2.2 0.1
v -0.2 2.4 -0.1
v -0.2 2.4 0.1
v -0.2 0.7 -0.1
v -0.3 0.7 -0.1
v -0.3 0.7 0.1
v -0.2 1.4 -0.1
v -0.3 1.4 -0.1
v -0.2 2.1 -0.1
v -0.3 2.1 -0.1
v -0.3 2.1 0.1
v -0.3 2 -0.1
v -0.4 2 -0.1
v -0.4 2 0
v -0.3 2 0
v -0.4 0.5 -0.1
v -0.5 0.5 -0.1
v -0.5 0.5 0
v -0.4 0.5 0
v -0.4 1.2 -0.1
v -0.5 1.2 -0.1
v -0.5 1.2 0
v -0.4 1.2 0
v -0.4 1.8 -0.1
v -0.5 1.8 -0.1
v -0.5 1.8 0
v -0.4 1.8 0
v 0.5 1.2 -0.2
v 0.4 1.2 -0.2
v 0.4 1.2 -0.1
v 0.5 1.2 -0.1
v 0.4 0.5 -0.2
v 0.3 0.5 -0.2
v 0.3 0.5 0
v 0.4 0.5 0
v 0.3 1.2 -0.2
v 0.4 1.2 0.2
v 0.4 1.9 -0.2
v 0.3 1.9 -0.2
v 0.4 1.9 0.2
v 0.3 0.6 -0.2
v 0.2 0.6 -0.2
v 0.2 0.6 -0.1
v 0.3 0.6 -0.1
v 0.3 1.3 -0.2
v 0.2 1.3 -0.2
v 0.2 1.3 -0.1
v 0.3 1.3 -0.1
v 0.3 2 -0.2
v 0.2 2 -0.2
v 0.2 2 -0.1
v 0.3 2 -0.1
v 0.2 0.7 -0.2
v 0.1 0.7 -0.2
v 0.1 0.7 -0.1
v 0.2 1.4 -0.2
v 0.1 1.4 -0.2
v 0.1 1.4 -0.1
v 0.2 2.1 -0.2
v 0.1 2.1 -0.2
v 0.1 2.1 -0.1
v 0.1 2.2 -0.2
v -0.1 2.2 -0.2
v 0.1 2.4 -0.2
v -0.1 2.4 -0.2
v -0.1 1.4 -0.2
v -0.2 1.4 -0.2
v -0.1 1.4 -0.1
v -0.1 2.1 -0.2
v -0.2 2.1 -0.2
v -0.1 2.1 -0.1
v -0.2 0.6 -0.2
v -0.3 0.6 -0.2
v -0.3 0.6 -0.1
v -0.2 0.6 -0.1
v -0.2 1.3 -0.2
v -0.3 1.3 -0.2
v -0.3 1.3 -0.1
v -0.2 1.3 -0.1
v -0.3 2.1 -0.2
v -0.3 0.5 -0.2
v -0.4 0.5 -0.2
v -0.3 0.5 0
v -0.3 1.2 -0.2
v -0.4 1.2 -0.2
v -0.4 1.2 0.2
v -0.3 1.9 -0.2
v -0.4 1.9 -0.2
v -0.4 1.9 -0.1
v -0.3 1.9 -0.1
v 0.4 1.8 -0.3
v 0.3 1.8 -0.3
v 0.3 1.8 -0.2
v 0.4 1.8 -0.2
v 0.3 0.5 -0.3
v 0.2 0.5 -0.3
v 0.2 0.5 -0.2
v 0.3 1.3 -0.3
v 0.2 1.3 -0.3
v 0.3 1.9 -0.3
v 0.2 1.9 -0.3
v 0.2 1.9 -0.2
v 0.2 0.6 -0.3
v 0.1 0.6 -0.3
v 0.1 0.6 -0.2
v 0.1 1.3 -0.3
v 0.1 1.3 -0.2
v 0.2 2.1 -0.3
v 0.1 2.1 -0.3
v 0.1 0.7 -0.3
v -0.1 0.7 -0.3
v -0.1 0.7 -0.2
v 0.1 1.4 -0.3
v -0.1 1.4 -0.3
v -0.1 2.1 -0.3
v -0.1 0.6 -0.3
v -0.2 0.6 -0.3
v -0.1 0.6 -0.2
v -0.1 1.3 -0.3
v -0.2 1.3 -0.3
v -0.1 1.3 -0.2
v -0.1 2 -0.3
v -0.2 2 -0.3
v -0.2 2 -0.2
v -0.1 2 -0.2
v -0.2 0.5 -0.3
v -0.3 0.5 -0.3
v -0.2 0.5 -0.2
v -0.2 1.2 -0.3
v -0.3 1.2 -0.3
v -0.2 1.2 -0.2
v -0.2 1.9 -0.3
v -0.3 1.9 -0.3
v -0.2 1.9 -0.2
v 0.2 0.6 -0.4
v 0.1 0.6 -0.4
v 0 1.4 -0.4
v -0.1 1.4 -0.4
v 0 1.4 -0.3
v 0.1 0.5 -0.4
v -0.2 0.5 -0.4
v 0.1 0.5 -0.3
v 0.2 1.2 -0.4
v -0.2 1.2 -0.4
v 0.2 1.2 -0.3
v 0.2 1.9 -0.4
v -0.2 1.9 -0.4
v 0.2 0.4 -0.5
v 0.1 0.4 -0.5
v 0.1 0.4 -0.4
v 0.2 0.4 -0.4
v 0.1 1.1 -0.5
v 0 1.1 -0.5
v 0 1.1 -0.4
v 0.1 1.1 -0.4
v 0.1 1.9 -0.5
v 0 1.9 -0.5
v 0 1.9 -0.4
v 0.1 1.9 -0.4
v -0.1 0.5 -0.5
v -0.2 0.5 -0.5
v -0.1 0.5 -0.4
v -0.1 1.2 -0.5
v -0.2 1.2 -0.5
v -0.1 1.2 -0.4
v -0.1 1.8 -0.5
v -0.2 1.8 -0.5
v -0.2 1.8 -0.4
v -0.1 1.8 -0.4
v 0.2 0.3 0.4
v 0.2 0.3 0.5
v 0.1 0.3 0.5
v 0.1 0.3 0.4
v 0.1 1.8 0.4
v 0.1 1.8 0.5
v 0 1.8 0.5
v 0 1.8 0.4
v 0 1 0.4
v 0 1 0.5
v -0.1 1 0.5
v -0.1 1 0.4
v -0.1 0.4 0.4
v -0.1 0.4 0.5
v -0.2 0.4 0.5
v -0.2 0.4 0.4
v -0.1 1.7 0.4
v -0.1 1.7 0.5
v -0.2 1.7 0.5
v -0.2 1.7 0.4
v 0.3 1 0.3
v 0.3 1 0.4
v 0.2 1 0.4
v 0.2 1 0.3
v 0.3 1.8 0.3
v 0.3 1.8 0.4
v 0.2 1.8 0.4
v 0.2 1.8 0.3
v 0.2 1.6 0.3
v 0.2 1.6 0.4
v 0.1 1.6 0.4
v 0.1 1.6 0.3
v 0.2 0.3 0.3
v 0 0.3 0.4
v 0 0.3 0.3
v 0.1 0.8 0.3
v 0.1 0.8 0.4
v 0 0.8 0.4
v 0 0.8 0.3
v 0 0.2 0.3
v 0 0.2 0.4
v -0.1 0.2 0.4
v -0.1 0.2 0.3
v 0 0.6 0.3
v 0 0.6 0.4
v -0.1 0.6 0.4
v -0.1 1.3 0.4
v -0.1 0.3 0.3
v -0.1 0.3 0.4
v -0.2 0.3 0.4
v -0.2 0.3 0.3
v -0.2 1 0.4
v -0.2 1 0.3
v 0.1 1.7 0.3
v 0.1 1.7 0.4
v -0.2 1.7 0.3
v 0.3 0.3 0.2
v 0.3 0.3 0.3
v 0.2 0.3 0.2
v 0.3 1 0.2
v 0.2 1 0.2
v 0.3 1.7 0.2
v 0.3 1.7 0.3
v 0.2 1.7 0.3
v 0.2 1.7 0.2
v 0.2 0.2 0.2
v 0.2 0.2 0.3
v 0.1 0.2 0.3
v 0.1 0.2 0.2
v 0.2 0.9 0.2
v 0.2 0.9 0.3
v 0.1 0.9 0.2
v 0.2 1.6 0.2
v 0.1 1.6 0.2
v 0.1 0.1 0.2
v 0.1 0.1 0.3
v -0.1 0.1 0.3
v -0.1 0.1 0.2
v 0.1 0.8 0.2
v -0.1 0.8 0.3
v -0.1 0.8 0.2
v 0.1 1.5 0.2
v 0.1 1.5 0.3
v -0.1 1.5 0.3
v -0.1 1.5 0.2
v -0.1 0.2 0.2
v -0.2 0.2 0.3
v -0.2 0.2 0.2
v -0.1 0.9 0.2
v -0.1 0.9 0.3
v -0.2 0.9 0.3
v -0.2 0.9 0.2
v -0.1 1.6 0.2
v -0.1 1.6 0.3
v -0.2 1.6 0.3
v -0.2 1.6 0.2
v -0.2 0.3 0.2
v -0.3 0.3 0.3
v -0.3 0.3 0.2
v -0.2 1 0.2
v -0.3 1 0.3
v -0.3 1 0.2
v -0.3 1.6 0.3
v -0.3 1.6 0.2
v 0.3 0.2 0.1
v 0.3 0.2 0.2
v 0.2 0.2 0.1
v 0.3 0.9 0.1
v 0.3 0.9 0.2
v 0.2 0.9 0.1
v 0.3 1.6 0.1
v 0.3 1.6 0.2
v 0.2 1.6 0.1
v 0.2 0.1 0.1
v 0.2 0.1 0.2
v 0.1 0.1 0.1
v 0.2 0.8 0.1
v 0.2 0.8 0.2
v 0.1 0.8 0.1
v 0.2 1.5 0.1
v 0.2 1.5 0.2
v 0.1 1.5 0.1
v 0.1 2.3 0.1
v 0.1 2.3 0.2
v -0.1 2.3 0.2
v -0.1 2.3 0.1
v -0.1 0.1 0.1
v -0.2 0.1 0.2
v -0.2 0.1 0.1
v -0.1 0.8 0.1
v -0.2 0.8 0.2
v -0.2 0.8 0.1
v -0.1 1.5 0.1
v -0.2 1.5 0.2
v -0.2 1.5 0.1
v -0.2 0.2 0.1
v -0.3 0.2 0.2
v -0.3 0.2 0.1
v -0.2 0.9 0.1
v -0.3 0.9 0.2
v -0.2 1.6 0.1
v -0.3 1.6 0.1
v -0.4 0.3 0.1
v -0.4 0.3 0.2
v -0.5 0.3 0.2
v -0.5 0.3 0.1
v -0.4 1.8 0.1
v -0.4 1.8 0.2
v -0.5 1.8 0.2
v -0.5 1.8 0.1
v 0.5 1.1 0
v 0.5 1.1 0.1
v 0.4 1.1 0.1
v 0.4 1.1 0
v 0.4 1.3 0
v 0.4 1.3 0.1
v 0.3 1.3 0
v -0.3 0.3 0
v -0.4 0.3 0
v -0.3 0.8 0
v -0.3 0.8 0.1
v -0.4 0.8 0.1
v -0.4 0.8 0
v -0.3 1.3 0
v -0.4 1.3 0.1
v -0.4 1.3 0
v 0.5 0.3 -0.1
v 0.5 0.3 0
v 0.4 0.3 0
v 0.4 0.3 -0.1
v 0.5 1.8 -0.1
v 0.5 1.8 0
v 0.4 1.8 0
v 0.4 1.8 -0.1
v 0.4 0.8 -0.1
v 0.4 0.8 0
v 0.3 0.8 0
v 0.3 0.8 -0.1
v 0.3 0.1 -0.1
v 0.3 0.1 0.1
v 0.2 0.1 -0.1
v 0.3 0.8 0.1
v 0.2 0.8 -0.1
v 0.3 1.5 -0.1
v 0.3 1.5 0.1
v 0.2 1.5 -0.1
v 0.2 0 -0.1
v 0.2 0 0.1
v 0.1 0 0.1
v 0.1 0 -0.1
v 0.2 2.3 -0.1
v 0.2 2.3 0.1
v 0.1 2.3 -0.1
v -0.1 0 -0.1
v -0.1 0 0.1
v -0.2 0 0.1
v -0.2 0 -0.1
v -0.1 2.3 -0.1
v -0.2 2.3 0.1
v -0.2 2.3 -0.1
v -0.2 0.1 -0.1
v -0.3 0.1 0.1
v -0.3 0.1 -0.1
v -0.2 0.8 -0.1
v -0.3 0.8 -0.1
v -0.2 1.5 -0.1
v -0.3 1.5 0.1
v -0.3 1.5 -0.1
v -0.3 0.2 -0.1
v -0.3 0.2 0
v -0.4 0.2 0
v -0.4 0.2 -0.1
v -0.4 0.4 -0.1
v -0.4 0.4 0
v -0.5 0.4 0
v -0.5 0.4 -0.1
v -0.4 1.1 -0.1
v -0.4 1.1 0
v -0.5 1.1 0
v -0.5 1.1 -0.1
v -0.4 1.7 -0.1
v -0.4 1.7 0
v -0.5 1.7 0
v -0.5 1.7 -0.1
v 0.5 1.1 -0.2
v 0.5 1.1 -0.1
v 0.4 1.1 -0.1
v 0.4 1.1 -0.2
v 0.4 0.3 -0.2
v 0.4 0.3 0.2
v 0.3 0.3 -0.2
v 0.4 1 -0.2
v 0.4 1 0.2
v 0.3 1 -0.2
v 0.4 1.7 -0.2
v 0.4 1.7 0.2
v 0.3 1.7 -0.2
v 0.3 0.2 -0.2
v 0.3 0.2 -0.1
v 0.2 0.2 -0.1
v 0.2 0.2 -0.2
v 0.3 0.9 -0.2
v 0.2 0.9 -0.1
v 0.2 0.9 -0.2
v 0.3 1.6 -0.2
v 0.3 1.6 -0.1
v 0.2 1.6 -0.1
v 0.2 1.6 -0.2
v 0.2 0.1 -0.2
v 0.1 0.1 -0.1
v 0.1 0.1 -0.2
v 0.2 0.8 -0.2
v 0.1 0.8 -0.1
v 0.1 0.8 -0.2
v 0.2 1.5 -0.2
v 0.1 1.5 -0.1
v 0.1 1.5 -0.2
v 0.1 0 -0.2
v 0.1 0 0.2
v -0.1 0 0.2
v -0.1 0 -0.2
v 0.1 2.3 -0.2
v -0.1 2.3 -0.2
v -0.1 0.1 -0.2
v -0.1 0.1 -0.1
v -0.2 0.1 -0.2
v -0.1 1.5 -0.2
v -0.1 1.5 -0.1
v -0.2 1.5 -0.2
v -0.2 0.2 -0.2
v -0.2 0.2 -0.1
v -0.3 0.2 -0.2
v -0.2 0.9 -0.2
v -0.2 0.9 -0.1
v -0.3 0.9 -0.1
v -0.3 0.9 -0.2
v -0.2 1.6 -0.2
v -0.2 1.6 -0.1
v -0.3 1.6 -0.1
v -0.3 1.6 -0.2
v -0.3 0.3 -0.2
v -0.3 0.3 -0.1
v -0.4 0.3 -0.1
v -0.4 0.3 -0.2
v -0.3 1 -0.2
v -0.4 1 0.2
v -0.4 1 -0.2
v -0.3 1.7 -0.2
v -0.3 1.7 0.2
v -0.4 1.7 0.2
v -0.4 1.7 -0.2
v 0.4 1.7 -0.3
v 0.3 1.7 -0.3
v 0.3 0.3 -0.3
v 0.2 0.3 -0.2
v 0.2 0.3 -0.3
v 0.3 0.9 -0.3
v 0.2 0.9 -0.3
v 0.2 1.7 -0.2
v 0.2 1.7 -0.3
v 0.2 0.2 -0.3
v 0.1 0.2 -0.2
v 0.1 0.2 -0.3
v 0.1 0.9 -0.2
v 0.1 0.9 -0.3
v 0.2 1.6 -0.3
v 0.1 1.6 -0.2
v 0.1 1.6 -0.3
v 0.1 0.1 -0.3
v -0.1 0.1 -0.3
v 0.1 0.8 -0.3
v -0.1 0.8 -0.2
v -0.1 0.8 -0.3
v 0.1 1.5 -0.3
v -0.1 1.5 -0.3
v -0.1 0.2 -0.3
v -0.1 0.2 -0.2
v -0.2 0.2 -0.3
v -0.1 0.9 -0.3
v -0.1 0.9 -0.2
v -0.2 0.9 -0.3
v -0.1 1.6 -0.3
v -0.1 1.6 -0.2
v -0.2 1.6 -0.3
v -0.2 0.3 -0.3
v -0.2 0.3 -0.2
v -0.3 0.3 -0.3
v -0.2 1 -0.3
v -0.2 1 -0.2
v -0.3 1 -0.3
v -0.2 1.7 -0.3
v -0.2 1.7 -0.2
v -0.3 1.7 -0.3
v 0.2 0.3 -0.4
v 0 0.3 -0.3
v 0 0.3 -0.4
v 0 0.2 -0.4
v 0 0.2 -0.3
v -0.1 0.2 -0.4
v 0 1.3 -0.4
v 0 1.3 -0.3
v -0.1 1.3 -0.4
v -0.1 0.3 -0.4
v -0.1 0.3 -0.3
v -0.2 0.3 -0.4
v 0.2 1 -0.4
v 0.2 1 -0.3
v -0.2 1 -0.4
v 0.2 1.7 -0.4
v -0.2 1.7 -0.4
v 0.2 0.3 -0.5
v 0.1 0.3 -0.4
v 0.1 0.3 -0.5
v 0.1 1 -0.5
v 0.1 1 -0.4
v 0 1 -0.4
v 0 1 -0.5
v 0.1 1.8 -0.5
v 0.1 1.8 -0.4
v 0 1.8 -0.4
v 0 1.8 -0.5
v -0.1 0.4 -0.5
v -0.1 0.4 -0.4
v -0.2 0.4 -0.4
v -0.2 0.4 -0.5
v -0.1 1.1 -0.5
v -0.1 1.1 -0.4
v -0.2 1.1 -0.4
v -0.2 1.1 -0.5
v -0.1 1.7 -0.5
v -0.1 1.7 -0.4
v -0.2 1.7 -0.5
v -0.3 0.1 0
v -0.3 0.3 0.1
v -0.4 0.4 -0.2
v -0.3 0.5 -0.1
v -0.3 0.7 0
v -0.2 0.7 -0.2
v -0.2 0.8 -0.2
v -0.3 1 0
v -0.3 1 -0.1
v -0.4 1.1 -0.2
v -0.4 1 0
v -0.3 1.7 0.3
v -0.3 1.7 0.1
v -0.3 1.7 -0.1
v -0.3 2 -0.2
v -0.1 2.1 0.3
v 0.3 0.3 0.1
v 0.3 0.3 -0.1
v 0.4 0.5 -0.1
v 0.2 0.5 -0.4
v 0.3 0.5 -0.1
v 0.3 0.7 0
v 0.3 1 0.1
v 0.3 1 0
v 0.3 1 -0.3
v 0.4 1 0.1
v 0.3 1.2 -0.3
v 0.2 1.7 0.4
v 0.3 1.7 0.1
v 0.3 1.7 -0.1
v 0.4 1.7 0
v 0.3 2 0.2
v 0.2 2 -0.3
v 0.3 2 0.1
v 0.1 1.2 -0.4
v 0.2 1.8 -0.4
v 0.1 2 -0.3
v -0.1 1.7 0.3
v -0.2 1.1 0.4

vt 0.00585938 0.5
vt 0.0761719 0.5
vt 0.0800781 0.5
vt 0.0996094 0.5

vn 0 1 0
vn 0 -1 0
vn -1 0 0
vn 1 0 0
vn 0 0 -1
vn 0 0 1

usemtl palette
f 1/1/1 2/1/1 4/1/1
f 4/1/1 2/1/1 3/1/1
f 5/1/1 6/1/1 8/1/1
f 8/1/1 6/1/1 7/1/1
f 9/1/1 10/1/1 12/1/1
f 12/1/1 10/1/1 11/1/1
f 13/1/1 14/1/1 16/1/1
f 16/1/1 14/1/1 15/1/1
f 17/1/1 18/1/1 20/1/1
f 20/1/1 18/1/1 19/1/1
f 21/1/1 22/1/1 24/1/1
f 24/1/1 22/1/1 23/1/1
f 25/1/1 26/1/1 28/1/1
f 28/1/1 26/1/1 27/1/1
f 29/4/1 30/4/1 32/4/1
f 32/4/1 30/4/1 31/4/1
f 33/1/1 34/1/1 36/1/1
f 36/1/1 34/1/1 35/1/1
f 37/1/1 38/1/1 40/1/1
f 40/1/1 38/1/1 39/1/1
f 41/1/1 42/1/1 44/1/1
f 44/1/1 42/1/1 43/1/1
f 45/1/1 46/1/1 48/1/1
f 48/1/1 46/1/1 47/1/1
f 49/4/1 50/4/1 51/4/1
f 51/4/1 50/4/1 14/4/1
f 52/4/1 53/4/1 55/4/1
f 55/4/1 53/4/1 54/4/1
f 26/4/1 56/4/1 27/4/1
f 27/4/1 56/4/1 57/4/1
f 58/4/1 59/4/1 60/4/1
f 60/4/1 59/4/1 49/4/1
f 61/4/1 62/4/1 63/4/1
f 63/4/1 62/4/1 29/4/1
f 64/4/1 65/4/1 25/4/1
f 25/4/1 65/4/1 26/4/1
f 66/4/1 67/4/1 69/4/1
f 69/4/1 67/4/1 68/4/1
f 70/4/1 71/4/1 72/4/1
f 72/4/1 71/4/1 37/4/1
f 73/4/1 74/4/1 76/4/1
f 76/4/1 74/4/1 75/4/1
f 77/4/1 78/4/1 80/4/1
f 80/4/1 78/4/1 79/4/1
f 81/4/1 82/4/1 83/4/1
f 83/4/1 82/4/1 42/4/1
f 84/4/1 85/4/1 86/4/1
f 86/4/1 85/4/1 46/4/1
f 87/1/1 88/1/1 90/1/1
f 90/1/1 88/1/1 89/1/1
f 91/4/1 92/4/1 94/4/1
f 94/4/1 92/4/1 93/4/1
f 95/4/1 96/4/1 98/4/1
f 98/4/1 96/4/1 97/4/1
f 99/4/1 100/4/1 102/4/1
f 102/4/1 100/4/1 101/4/1
f 103/4/1 104/4/1 50/4/1
f 50/4/1 104/4/1 105/4/1
f 106/4/1 107/4/1 53/4/1
f 53/4/1 107/4/1 108/4/1
f 109/4/1 110/4/1 56/4/1
f 56/4/1 110/4/1 111/4/1
f 112/4/1 113/4/1 114/4/1
f 114/4/1 113/4/1 58/4/1
f 115/4/1 116/4/1 117/4/1
f 117/4/1 116/4/1 66/4/1
f 118/4/1 119/4/1 120/4/1
f 120/4/1 119/4/1 70/4/1
f 121/1/1 122/1/1 124/1/1
f 124/1/1 122/1/1 123/1/1
f 125/4/1 126/4/1 127/4/1
f 127/4/1 126/4/1 81/4/1
f 128/4/1 129/4/1 130/4/1
f 130/4/1 129/4/1 84/4/1
f 122/4/1 131/4/1 123/4/1
f 123/4/1 131/4/1 77/4/1
f 132/4/1 133/4/1 134/4/1
f 134/4/1 133/4/1 88/4/1
f 135/2/1 136/2/1 138/2/1
f 138/2/1 136/2/1 137/2/1
f 139/4/1 140/4/1 82/4/1
f 82/4/1 140/4/1 141/4/1
f 142/4/1 143/4/1 85/4/1
f 85/4/1 143/4/1 144/4/1
f 145/4/1 146/4/1 148/4/1
f 148/4/1 146/4/1 147/4/1
f 149/4/1 150/4/1 92/4/1
f 92/4/1 150/4/1 151/4/1
f 152/4/1 153/4/1 96/4/1
f 96/4/1 153/4/1 154/4/1
f 155/4/1 156/4/1 100/4/1
f 100/4/1 156/4/1 157/4/1
f 158/4/1 159/4/1 104/4/1
f 104/4/1 159/4/1 160/4/1
f 161/1/1 162/1/1 164/1/1
f 164/1/1 162/1/1 163/1/1
f 165/1/1 166/1/1 168/1/1
f 168/1/1 166/1/1 167/1/1
f 169/1/1 170/1/1 172/1/1
f 172/1/1 170/1/1 171/1/1
f 173/1/1 174/1/1 175/1/1
f 175/1/1 174/1/1 115/1/1
f 176/1/1 177/1/1 179/1/1
f 179/1/1 177/1/1 178/1/1
f 180/1/1 181/1/1 150/1/1
f 150/1/1 181/1/1 182/1/1
f 183/1/1 184/1/1 186/1/1
f 186/1/1 184/1/1 185/1/1
f 187/1/1 188/1/1 190/1/1
f 190/1/1 188/1/1 189/1/1
f 191/4/1 192/4/1 110/4/1
f 110/4/1 192/4/1 168/4/1
f 193/1/1 194/1/1 196/1/1
f 196/1/1 194/1/1 195/1/1
f 197/1/1 198/1/1 200/1/1
f 200/1/1 198/1/1 199/1/1
f 201/1/1 202/1/1 204/1/1
f 204/1/1 202/1/1 203/1/1
f 205/4/1 206/4/1 207/4/1
f 207/4/1 206/4/1 125/4/1
f 208/4/1 209/4/1 178/4/1
f 178/4/1 209/4/1 128/4/1
f 210/4/1 211/4/1 121/4/1
f 121/4/1 211/4/1 122/4/1
f 212/4/1 213/4/1 214/4/1
f 214/4/1 213/4/1 132/4/1
f 215/2/1 216/2/1 217/2/1
f 217/2/1 216/2/1 135/2/1
f 216/3/1 218/3/1 135/3/1
f 135/3/1 218/3/1 136/3/1
f 219/4/1 220/4/1 133/4/1
f 133/4/1 220/4/1 221/4/1
f 218/2/1 222/2/1 136/2/1
f 136/2/1 222/2/1 223/2/1
f 224/4/1 225/4/1 140/4/1
f 140/4/1 225/4/1 226/4/1
f 227/4/1 228/4/1 143/4/1
f 143/4/1 228/4/1 190/4/1
f 229/4/1 230/4/1 146/4/1
f 146/4/1 230/4/1 231/4/1
f 232/1/1 233/1/1 235/1/1
f 235/1/1 233/1/1 234/1/1
f 236/1/1 237/1/1 239/1/1
f 239/1/1 237/1/1 238/1/1
f 240/1/1 241/1/1 243/1/1
f 243/1/1 241/1/1 242/1/1
f 244/1/1 245/1/1 247/1/1
f 247/1/1 245/1/1 246/1/1
f 248/1/1 249/1/1 251/1/1
f 251/1/1 249/1/1 250/1/1
f 252/4/1 253/4/1 255/4/1
f 255/4/1 253/4/1 254/4/1
f 249/4/1 256/4/1 257/4/1
f 257/4/1 256/4/1 61/4/1
f 258/4/1 259/4/1 260/4/1
f 260/4/1 259/4/1 64/4/1
f 261/4/1 262/4/1 264/4/1
f 264/4/1 262/4/1 263/4/1
f 265/4/1 266/4/1 268/4/1
f 268/4/1 266/4/1 267/4/1
f 269/4/1 270/4/1 272/4/1
f 272/4/1 270/4/1 271/4/1
f 273/4/1 274/4/1 206/4/1
f 206/4/1 274/4/1 275/4/1
f 276/4/1 277/4/1 209/4/1
f 209/4/1 277/4/1 278/4/1
f 279/4/1 280/4/1 211/4/1
f 211/4/1 280/4/1 281/4/1
f 282/4/1 283/4/1 213/4/1
f 213/4/1 283/4/1 219/4/1
f 284/2/1 285/2/1 216/2/1
f 216/2/1 285/2/1 218/2/1
f 286/4/1 287/4/1 288/4/1
f 288/4/1 287/4/1 227/4/1
f 289/4/1 290/4/1 291/4/1
f 291/4/1 290/4/1 229/4/1
f 292/4/1 293/4/1 295/4/1
f 295/4/1 293/4/1 294/4/1
f 296/4/1 297/4/1 299/4/1
f 299/4/1 297/4/1 298/4/1
f 290/1/1 300/1/1 229/1/1
f 229/1/1 300/1/1 230/1/1
f 301/4/1 302/4/1 303/4/1
f 303/4/1 302/4/1 239/4/1
f 304/4/1 305/4/1 107/4/1
f 107/4/1 305/4/1 306/4/1
f 307/4/1 308/4/1 310/4/1
f 310/4/1 308/4/1 309/4/1
f 311/1/1 312/1/1 314/1/1
f 314/1/1 312/1/1 313/1/1
f 315/4/1 316/4/1 253/4/1
f 253/4/1 316/4/1 317/4/1
f 318/1/1 319/1/1 265/1/1
f 265/1/1 319/1/1 266/1/1
f 320/4/1 321/4/1 259/4/1
f 259/4/1 321/4/1 322/4/1
f 323/4/1 324/4/1 262/4/1
f 262/4/1 324/4/1 325/4/1
f 319/4/1 326/4/1 266/4/1
f 266/4/1 326/4/1 327/4/1
f 328/1/1 329/1/1 279/1/1
f 279/1/1 329/1/1 280/1/1
f 330/4/1 331/4/1 274/4/1
f 274/4/1 331/4/1 332/4/1
f 333/4/1 334/4/1 277/4/1
f 277/4/1 334/4/1 286/4/1
f 329/4/1 335/4/1 280/4/1
f 280/4/1 335/4/1 289/4/1
f 336/4/1 337/4/1 338/4/1
f 338/4/1 337/4/1 292/4/1
f 339/4/1 340/4/1 341/4/1
f 341/4/1 340/4/1 296/4/1
f 342/4/1 343/4/1 345/4/1
f 345/4/1 343/4/1 344/4/1
f 346/4/1 347/4/1 348/4/1
f 348/4/1 347/4/1 301/4/1
f 349/4/1 350/4/1 351/4/1
f 351/4/1 350/4/1 304/4/1
f 352/4/1 353/4/1 354/4/1
f 354/4/1 353/4/1 307/4/1
f 355/1/1 356/1/1 323/1/1
f 323/1/1 356/1/1 324/1/1
f 357/1/1 358/1/1 359/1/1
f 359/1/1 358/1/1 334/1/1
f 360/4/1 361/4/1 362/4/1
f 362/4/1 361/4/1 346/4/1
f 363/4/1 364/4/1 365/4/1
f 365/4/1 364/4/1 349/4/1
f 366/4/1 367/4/1 321/4/1
f 321/4/1 367/4/1 352/4/1
f 368/1/1 369/1/1 371/1/1
f 371/1/1 369/1/1 370/1/1
f 372/1/1 373/1/1 375/1/1
f 375/1/1 373/1/1 374/1/1
f 376/1/1 377/1/1 379/1/1
f 379/1/1 377/1/1 378/1/1
f 380/1/1 381/1/1 382/1/1
f 382/1/1 381/1/1 361/1/1
f 383/1/1 384/1/1 385/1/1
f 385/1/1 384/1/1 364/1/1
f 386/1/1 387/1/1 389/1/1
f 389/1/1 387/1/1 388/1/1
f 390/1/2 391/1/2 393/1/2
f 393/1/2 391/1/2 392/1/2
f 394/1/2 395/1/2 397/1/2
f 397/1/2 395/1/2 396/1/2
f 398/1/2 399/1/2 401/1/2
f 401/1/2 399/1/2 400/1/2
f 402/1/2 403/1/2 405/1/2
f 405/1/2 403/1/2 404/1/2
f 406/1/2 407/1/2 409/1/2
f 409/1/2 407/1/2 408/1/2
f 410/1/2 411/1/2 413/1/2
f 413/1/2 411/1/2 412/1/2
f 414/1/2 415/1/2 417/1/2
f 417/1/2 415/1/2 416/1/2
f 418/1/2 419/1/2 421/1/2
f 421/1/2 419/1/2 420/1/2
f 422/4/2 390/4/2 424/4/2
f 424/4/2 390/4/2 423/4/2
f 425/1/2 426/1/2 428/1/2
f 428/1/2 426/1/2 427/1/2
f 429/1/2 430/1/2 432/1/2
f 432/1/2 430/1/2 431/1/2
f 433/1/2 434/1/2 94/1/2
f 94/1/2 434/1/2 435/1/2
f 38/1/2 39/1/2 98/1/2
f 98/1/2 39/1/2 436/1/2
f 437/4/2 438/4/2 440/4/2
f 440/4/2 438/4/2 439/4/2
f 413/4/2 412/4/2 442/4/2
f 442/4/2 412/4/2 441/4/2
f 443/4/2 444/4/2 445/4/2
f 445/4/2 444/4/2 409/4/2
f 446/4/2 447/4/2 448/4/2
f 448/4/2 447/4/2 422/4/2
f 449/4/2 410/4/2 450/4/2
f 450/4/2 410/4/2 413/4/2
f 451/4/2 452/4/2 454/4/2
f 454/4/2 452/4/2 453/4/2
f 455/4/2 456/4/2 458/4/2
f 458/4/2 456/4/2 457/4/2
f 459/4/2 460/4/2 461/4/2
f 461/4/2 460/4/2 33/4/2
f 462/4/2 418/4/2 463/4/2
f 463/4/2 418/4/2 421/4/2
f 464/4/2 465/4/2 467/4/2
f 467/4/2 465/4/2 466/4/2
f 468/4/2 425/4/2 470/4/2
f 470/4/2 425/4/2 469/4/2
f 471/4/2 472/4/2 474/4/2
f 474/4/2 472/4/2 473/4/2
f 475/4/2 432/4/2 477/4/2
f 477/4/2 432/4/2 476/4/2
f 478/4/2 479/4/2 481/4/2
f 481/4/2 479/4/2 480/4/2
f 482/4/2 483/4/2 485/4/2
f 485/4/2 483/4/2 484/4/2
f 486/4/2 440/4/2 488/4/2
f 488/4/2 440/4/2 487/4/2
f 489/4/2 442/4/2 491/4/2
f 491/4/2 442/4/2 490/4/2
f 485/1/2 484/1/2 493/1/2
f 493/1/2 484/1/2 492/1/2
f 494/4/2 495/4/2 496/4/2
f 496/4/2 495/4/2 455/4/2
f 497/4/2 498/4/2 499/4/2
f 499/4/2 498/4/2 459/4/2
f 500/4/2 501/4/2 502/4/2
f 502/4/2 501/4/2 462/4/2
f 503/4/2 504/4/2 505/4/2
f 505/4/2 504/4/2 464/4/2
f 506/4/2 507/4/2 508/4/2
f 508/4/2 507/4/2 468/4/2
f 509/4/2 510/4/2 511/4/2
f 511/4/2 510/4/2 471/4/2
f 512/2/2 513/2/2 515/2/2
f 515/2/2 513/2/2 514/2/2
f 516/4/2 467/4/2 518/4/2
f 518/4/2 467/4/2 517/4/2
f 519/4/2 470/4/2 521/4/2
f 521/4/2 470/4/2 520/4/2
f 522/4/2 474/4/2 524/4/2
f 524/4/2 474/4/2 523/4/2
f 525/4/2 477/4/2 527/4/2
f 527/4/2 477/4/2 526/4/2
f 528/4/2 481/4/2 186/4/2
f 186/4/2 481/4/2 529/4/2
f 530/4/2 485/4/2 531/4/2
f 531/4/2 485/4/2 493/4/2
f 532/1/2 533/1/2 535/1/2
f 535/1/2 533/1/2 534/1/2
f 536/1/2 537/1/2 539/1/2
f 539/1/2 537/1/2 538/1/2
f 540/1/2 541/1/2 543/1/2
f 543/1/2 541/1/2 542/1/2
f 544/1/2 545/1/2 546/1/2
f 546/1/2 545/1/2 118/1/2
f 547/4/2 488/4/2 548/4/2
f 548/4/2 488/4/2 533/4/2
f 549/1/2 550/1/2 552/1/2
f 552/1/2 550/1/2 551/1/2
f 553/1/2 153/1/2 555/1/2
f 555/1/2 153/1/2 554/1/2
f 556/1/2 557/1/2 559/1/2
f 559/1/2 557/1/2 558/1/2
f 560/1/2 561/1/2 563/1/2
f 563/1/2 561/1/2 562/1/2
f 564/1/2 565/1/2 567/1/2
f 567/1/2 565/1/2 566/1/2
f 568/4/2 569/4/2 570/4/2
f 570/4/2 569/4/2 503/4/2
f 567/4/2 571/4/2 572/4/2
f 572/4/2 571/4/2 506/4/2
f 573/4/2 574/4/2 575/4/2
f 575/4/2 574/4/2 509/4/2
f 576/4/2 577/4/2 579/4/2
f 579/4/2 577/4/2 578/4/2
f 580/2/2 581/2/2 582/2/2
f 582/2/2 581/2/2 512/2/2
f 583/4/2 584/4/2 586/4/2
f 586/4/2 584/4/2 585/4/2
f 587/2/2 515/2/2 589/2/2
f 589/2/2 515/2/2 588/2/2
f 590/4/2 518/4/2 592/4/2
f 592/4/2 518/4/2 591/4/2
f 593/4/2 521/4/2 594/4/2
f 594/4/2 521/4/2 550/4/2
f 595/4/2 524/4/2 597/4/2
f 597/4/2 524/4/2 596/4/2
f 598/1/2 599/1/2 601/1/2
f 601/1/2 599/1/2 600/1/2
f 602/1/2 603/1/2 605/1/2
f 605/1/2 603/1/2 604/1/2
f 606/1/2 607/1/2 609/1/2
f 609/1/2 607/1/2 608/1/2
f 610/1/2 611/1/2 613/1/2
f 613/1/2 611/1/2 612/1/2
f 614/1/2 615/1/2 617/1/2
f 617/1/2 615/1/2 616/1/2
f 618/4/2 619/4/2 620/4/2
f 620/4/2 619/4/2 446/4/2
f 621/4/2 622/4/2 623/4/2
f 623/4/2 622/4/2 449/4/2
f 624/4/2 625/4/2 626/4/2
f 626/4/2 625/4/2 451/4/2
f 627/4/2 628/4/2 630/4/2
f 630/4/2 628/4/2 629/4/2
f 631/4/2 202/4/2 633/4/2
f 633/4/2 202/4/2 632/4/2
f 634/4/2 635/4/2 637/4/2
f 637/4/2 635/4/2 636/4/2
f 638/4/2 570/4/2 640/4/2
f 640/4/2 570/4/2 639/4/2
f 641/4/2 572/4/2 643/4/2
f 643/4/2 572/4/2 642/4/2
f 644/4/2 575/4/2 646/4/2
f 646/4/2 575/4/2 645/4/2
f 647/4/2 648/4/2 650/4/2
f 650/4/2 648/4/2 649/4/2
f 651/2/2 582/2/2 652/2/2
f 652/2/2 582/2/2 587/2/2
f 653/4/2 654/4/2 655/4/2
f 655/4/2 654/4/2 590/4/2
f 656/4/2 657/4/2 658/4/2
f 658/4/2 657/4/2 595/4/2
f 659/4/2 660/4/2 661/4/2
f 661/4/2 660/4/2 598/4/2
f 662/4/2 663/4/2 665/4/2
f 665/4/2 663/4/2 664/4/2
f 666/4/2 667/4/2 669/4/2
f 669/4/2 667/4/2 668/4/2
f 670/4/2 671/4/2 673/4/2
f 673/4/2 671/4/2 672/4/2
f 674/4/2 491/4/2 676/4/2
f 676/4/2 491/4/2 675/4/2
f 677/4/2 678/4/2 680/4/2
f 680/4/2 678/4/2 679/4/2
f 681/1/2 624/1/2 682/1/2
f 682/1/2 624/1/2 626/1/2
f 683/4/2 620/4/2 685/4/2
f 685/4/2 620/4/2 684/4/2
f 686/1/2 631/1/2 687/1/2
f 687/1/2 631/1/2 633/1/2
f 682/4/2 626/4/2 689/4/2
f 689/4/2 626/4/2 688/4/2
f 690/4/2 630/4/2 692/4/2
f 692/4/2 630/4/2 691/4/2
f 687/4/2 633/4/2 694/4/2
f 694/4/2 633/4/2 693/4/2
f 695/4/2 637/4/2 697/4/2
f 697/4/2 637/4/2 696/4/2
f 698/4/2 640/4/2 699/4/2
f 699/4/2 640/4/2 653/4/2
f 700/4/2 643/4/2 702/4/2
f 702/4/2 643/4/2 701/4/2
f 703/4/2 646/4/2 704/4/2
f 704/4/2 646/4/2 656/4/2
f 705/4/2 706/4/2 707/4/2
f 707/4/2 706/4/2 659/4/2
f 708/4/2 709/4/2 710/4/2
f 710/4/2 709/4/2 662/4/2
f 711/4/2 712/4/2 713/4/2
f 713/4/2 712/4/2 666/4/2
f 714/4/2 715/4/2 716/4/2
f 716/4/2 715/4/2 670/4/2
f 717/4/2 718/4/2 719/4/2
f 719/4/2 718/4/2 674/4/2
f 720/4/2 721/4/2 722/4/2
f 722/4/2 721/4/2 677/4/2
f 723/4/2 685/4/2 725/4/2
f 725/4/2 685/4/2 724/4/2
f 726/1/2 727/1/2 728/1/2
f 728/1/2 727/1/2 705/1/2
f 729/1/2 730/1/2 731/1/2
f 731/1/2 730/1/2 339/1/2
f 732/4/2 733/4/2 734/4/2
f 734/4/2 733/4/2 714/4/2
f 735/4/2 736/4/2 737/4/2
f 737/4/2 736/4/2 717/4/2
f 738/4/2 689/4/2 739/4/2
f 739/4/2 689/4/2 720/4/2
f 740/1/2 723/1/2 742/1/2
f 742/1/2 723/1/2 741/1/2
f 743/1/2 744/1/2 746/1/2
f 746/1/2 744/1/2 745/1/2
f 747/1/2 748/1/2 750/1/2
f 750/1/2 748/1/2 749/1/2
f 751/1/2 752/1/2 754/1/2
f 754/1/2 752/1/2 753/1/2
f 755/1/2 756/1/2 758/1/2
f 758/1/2 756/1/2 757/1/2
f 759/1/2 760/1/2 761/1/2
f 761/1/2 760/1/2 739/1/2
f 467/4/3 516/4/3 649/4/3
f 649/4/3 516/4/3 584/4/3
f 518/4/3 590/4/3 585/4/3
f 585/4/3 590/4/3 586/4/3
f 654/4/3 653/4/3 583/4/3
f 583/4/3 653/4/3 650/4/3
f 432/4/3 475/4/3 466/4/3
f 466/4/3 475/4/3 467/4/3
f 477/4/3 525/4/3 517/4/3
f 517/4/3 525/4/3 518/4/3
f 599/4/3 598/4/3 762/4/3
f 762/4/3 598/4/3 592/4/3
f 660/4/3 659/4/3 590/4/3
f 590/4/3 659/4/3 655/4/3
f 706/4/3 705/4/3 653/4/3
f 653/4/3 705/4/3 699/4/3
f 438/1/3 437/1/3 431/1/3
f 431/1/3 437/1/3 432/1/3
f 440/4/3 486/4/3 476/4/3
f 476/4/3 486/4/3 477/4/3
f 488/4/3 763/4/3 526/4/3
f 526/4/3 763/4/3 527/4/3
f 763/4/3 547/4/3 591/4/3
f 591/4/3 547/4/3 762/4/3
f 548/1/3 672/1/3 600/1/3
f 600/1/3 672/1/3 601/1/3
f 671/4/3 670/4/3 598/4/3
f 598/4/3 670/4/3 661/4/3
f 715/4/3 714/4/3 659/4/3
f 659/4/3 714/4/3 707/4/3
f 733/1/3 732/1/3 705/1/3
f 705/1/3 732/1/3 728/1/3
f 3/1/3 2/1/3 392/1/3
f 392/1/3 2/1/3 393/1/3
f 163/1/3 162/1/3 534/1/3
f 534/1/3 162/1/3 535/1/3
f 603/4/3 764/4/3 548/4/3
f 548/4/3 764/4/3 673/4/3
f 370/1/3 369/1/3 741/1/3
f 741/1/3 369/1/3 742/1/3
f 15/1/3 14/1/3 404/1/3
f 404/1/3 14/1/3 405/1/3
f 14/4/3 50/4/3 439/4/3
f 439/4/3 50/4/3 440/4/3
f 105/4/3 104/4/3 487/4/3
f 487/4/3 104/4/3 488/4/3
f 160/4/3 159/4/3 164/4/3
f 164/4/3 159/4/3 161/4/3
f 159/4/3 239/4/3 532/4/3
f 532/4/3 239/4/3 548/4/3
f 238/1/3 237/1/3 604/1/3
f 604/1/3 237/1/3 605/1/3
f 236/4/3 302/4/3 602/4/3
f 602/4/3 302/4/3 764/4/3
f 301/4/3 347/4/3 670/4/3
f 670/4/3 347/4/3 716/4/3
f 346/4/3 361/4/3 714/4/3
f 714/4/3 361/4/3 734/4/3
f 361/1/3 381/1/3 753/1/3
f 753/1/3 381/1/3 754/1/3
f 93/4/3 92/4/3 50/4/3
f 50/4/3 92/4/3 103/4/3
f 151/4/3 150/4/3 104/4/3
f 104/4/3 150/4/3 158/4/3
f 182/1/3 181/1/3 159/1/3
f 159/1/3 181/1/3 239/1/3
f 294/4/3 293/4/3 765/4/3
f 765/4/3 293/4/3 301/4/3
f 292/4/3 337/4/3 348/4/3
f 348/4/3 337/4/3 346/4/3
f 324/1/3 356/1/3 362/1/3
f 362/1/3 356/1/3 360/1/3
f 43/1/3 42/1/3 435/1/3
f 435/1/3 42/1/3 94/1/3
f 42/4/3 82/4/3 94/4/3
f 94/4/3 82/4/3 91/4/3
f 141/4/3 140/4/3 92/4/3
f 92/4/3 140/4/3 149/4/3
f 226/4/3 766/4/3 150/4/3
f 150/4/3 766/4/3 180/4/3
f 766/4/3 225/4/3 303/4/3
f 303/4/3 225/4/3 765/4/3
f 224/4/3 767/4/3 295/4/3
f 295/4/3 767/4/3 292/4/3
f 332/4/3 331/4/3 338/4/3
f 338/4/3 331/4/3 336/4/3
f 470/4/3 519/4/3 82/4/3
f 82/4/3 519/4/3 139/4/3
f 521/4/3 593/4/3 140/4/3
f 140/4/3 593/4/3 224/4/3
f 593/1/3 768/1/3 224/1/3
f 224/1/3 768/1/3 767/1/3
f 35/1/3 34/1/3 427/1/3
f 427/1/3 34/1/3 428/1/3
f 479/4/3 478/4/3 469/4/3
f 469/4/3 478/4/3 470/4/3
f 481/4/3 528/4/3 520/4/3
f 520/4/3 528/4/3 521/4/3
f 185/1/3 184/1/3 551/1/3
f 551/1/3 184/1/3 552/1/3
f 663/4/3 662/4/3 593/4/3
f 593/4/3 662/4/3 768/4/3
f 709/4/3 708/4/3 701/4/3
f 701/4/3 708/4/3 702/4/3
f 442/4/3 489/4/3 480/4/3
f 480/4/3 489/4/3 481/4/3
f 491/4/3 769/4/3 529/4/3
f 529/4/3 769/4/3 183/4/3
f 769/4/3 770/4/3 549/4/3
f 549/4/3 770/4/3 594/4/3
f 770/4/3 674/4/3 664/4/3
f 664/4/3 674/4/3 665/4/3
f 718/4/3 717/4/3 662/4/3
f 662/4/3 717/4/3 710/4/3
f 11/1/3 10/1/3 400/1/3
f 400/1/3 10/1/3 401/1/3
f 607/4/3 771/4/3 772/4/3
f 772/4/3 771/4/3 676/4/3
f 374/1/3 373/1/3 745/1/3
f 745/1/3 373/1/3 746/1/3
f 54/4/3 53/4/3 441/4/3
f 441/4/3 53/4/3 442/4/3
f 108/4/3 107/4/3 490/4/3
f 490/4/3 107/4/3 491/4/3
f 306/4/3 243/4/3 675/4/3
f 675/4/3 243/4/3 772/4/3
f 242/1/3 241/1/3 608/1/3
f 608/1/3 241/1/3 609/1/3
f 240/4/3 305/4/3 606/4/3
f 606/4/3 305/4/3 771/4/3
f 304/4/3 350/4/3 674/4/3
f 674/4/3 350/4/3 719/4/3
f 349/4/3 364/4/3 717/4/3
f 717/4/3 364/4/3 737/4/3
f 364/1/3 384/1/3 757/1/3
f 757/1/3 384/1/3 758/1/3
f 39/1/3 38/1/3 55/1/3
f 55/1/3 38/1/3 52/1/3
f 97/4/3 96/4/3 53/4/3
f 53/4/3 96/4/3 106/4/3
f 154/4/3 297/4/3 107/4/3
f 107/4/3 297/4/3 304/4/3
f 296/4/3 340/4/3 351/4/3
f 351/4/3 340/4/3 349/4/3
f 47/1/3 46/1/3 436/1/3
f 436/1/3 46/1/3 98/1/3
f 46/4/3 85/4/3 98/4/3
f 98/4/3 85/4/3 95/4/3
f 144/4/3 143/4/3 96/4/3
f 96/4/3 143/4/3 152/4/3
f 189/1/3 188/1/3 554/1/3
f 554/1/3 188/1/3 555/1/3
f 187/4/3 228/4/3 553/4/3
f 553/4/3 228/4/3 298/4/3
f 227/4/3 287/4/3 299/4/3
f 299/4/3 287/4/3 296/4/3
f 286/4/3 334/4/3 341/4/3
f 341/4/3 334/4/3 339/4/3
f 334/1/3 358/1/3 339/1/3
f 339/1/3 358/1/3 731/1/3
f 474/4/3 522/4/3 85/4/3
f 85/4/3 522/4/3 142/4/3
f 524/4/3 595/4/3 143/4/3
f 143/4/3 595/4/3 227/4/3
f 657/4/3 656/4/3 288/4/3
f 288/4/3 656/4/3 286/4/3
f 483/4/3 482/4/3 473/4/3
f 473/4/3 482/4/3 474/4/3
f 485/4/3 530/4/3 523/4/3
f 523/4/3 530/4/3 524/4/3
f 667/4/3 666/4/3 595/4/3
f 595/4/3 666/4/3 658/4/3
f 712/4/3 711/4/3 656/4/3
f 656/4/3 711/4/3 704/4/3
f 444/1/3 443/1/3 420/1/3
f 420/1/3 443/1/3 421/1/3
f 773/1/3 678/1/3 492/1/3
f 492/1/3 678/1/3 493/1/3
f 678/4/3 774/4/3 493/4/3
f 493/4/3 774/4/3 531/4/3
f 774/4/3 775/4/3 596/4/3
f 596/4/3 775/4/3 597/4/3
f 775/4/3 677/4/3 668/4/3
f 668/4/3 677/4/3 669/4/3
f 721/4/3 720/4/3 666/4/3
f 666/4/3 720/4/3 713/4/3
f 19/1/3 18/1/3 408/1/3
f 408/1/3 18/1/3 409/1/3
f 537/4/3 247/4/3 679/4/3
f 679/4/3 247/4/3 611/4/3
f 246/1/3 245/1/3 612/1/3
f 612/1/3 245/1/3 613/1/3
f 388/1/3 387/1/3 739/1/3
f 739/1/3 387/1/3 761/1/3
f 7/1/3 6/1/3 396/1/3
f 396/1/3 6/1/3 397/1/3
f 57/4/3 56/4/3 409/4/3
f 409/4/3 56/4/3 445/4/3
f 111/4/3 110/4/3 773/4/3
f 773/4/3 110/4/3 678/4/3
f 167/1/3 166/1/3 538/1/3
f 538/1/3 166/1/3 539/1/3
f 165/4/3 309/4/3 536/4/3
f 536/4/3 309/4/3 244/4/3
f 309/4/3 308/4/3 610/4/3
f 610/4/3 308/4/3 680/4/3
f 307/4/3 353/4/3 677/4/3
f 677/4/3 353/4/3 722/4/3
f 352/4/3 367/4/3 720/4/3
f 720/4/3 367/4/3 739/4/3
f 378/1/3 377/1/3 749/1/3
f 749/1/3 377/1/3 750/1/3
f 101/4/3 100/4/3 56/4/3
f 56/4/3 100/4/3 109/4/3
f 157/4/3 235/4/3 110/4/3
f 110/4/3 235/4/3 191/4/3
f 234/1/3 233/1/3 192/1/3
f 192/1/3 233/1/3 309/1/3
f 232/4/3 776/4/3 310/4/3
f 310/4/3 776/4/3 307/4/3
f 344/4/3 343/4/3 354/4/3
f 354/4/3 343/4/3 352/4/3
f 777/4/3 148/4/3 102/4/3
f 102/4/3 148/4/3 99/4/3
f 147/4/3 146/4/3 100/4/3
f 100/4/3 146/4/3 155/4/3
f 231/4/3 230/4/3 156/4/3
f 156/4/3 230/4/3 232/4/3
f 230/1/3 300/1/3 232/1/3
f 232/1/3 300/1/3 776/1/3
f 289/4/3 335/4/3 345/4/3
f 345/4/3 335/4/3 342/4/3
f 89/1/3 88/1/3 777/1/3
f 777/1/3 88/1/3 148/1/3
f 88/4/3 133/4/3 148/4/3
f 148/4/3 133/4/3 145/4/3
f 221/4/3 220/4/3 146/4/3
f 146/4/3 220/4/3 229/4/3
f 219/4/3 283/4/3 291/4/3
f 291/4/3 283/4/3 289/4/3
f 515/2/3 587/2/3 133/2/3
f 133/2/3 587/2/3 219/2/3
f 137/2/3 136/2/3 514/2/3
f 514/2/3 136/2/3 515/2/3
f 223/2/3 222/2/3 588/2/3
f 588/2/3 222/2/3 589/2/3
f 218/2/3 285/2/3 587/2/3
f 587/2/3 285/2/3 652/2/3
f 464/4/4 648/4/4 505/4/4
f 505/4/4 648/4/4 578/4/4
f 503/4/4 577/4/4 570/4/4
f 570/4/4 577/4/4 576/4/4
f 639/4/4 579/4/4 640/4/4
f 640/4/4 579/4/4 647/4/4
f 457/4/4 465/4/4 458/4/4
f 458/4/4 465/4/4 464/4/4
f 455/4/4 504/4/4 496/4/4
f 496/4/4 504/4/4 503/4/4
f 629/4/4 570/4/4 630/4/4
f 630/4/4 570/4/4 638/4/4
f 691/4/4 640/4/4 692/4/4
f 692/4/4 640/4/4 698/4/4
f 423/1/4 430/1/4 424/1/4
f 424/1/4 430/1/4 429/1/4
f 422/4/4 456/4/4 448/4/4
f 448/4/4 456/4/4 455/4/4
f 446/4/4 495/4/4 778/4/4
f 778/4/4 495/4/4 494/4/4
f 778/4/4 569/4/4 779/4/4
f 779/4/4 569/4/4 568/4/4
f 779/4/4 628/4/4 620/4/4
f 620/4/4 628/4/4 627/4/4
f 684/4/4 630/4/4 685/4/4
f 685/4/4 630/4/4 690/4/4
f 724/1/4 727/1/4 725/1/4
f 725/1/4 727/1/4 726/1/4
f 4/1/4 391/1/4 1/1/4
f 1/1/4 391/1/4 390/1/4
f 196/1/4 557/1/4 193/1/4
f 193/1/4 557/1/4 556/1/4
f 371/1/4 723/1/4 368/1/4
f 368/1/4 723/1/4 740/1/4
f 16/1/4 403/1/4 13/1/4
f 13/1/4 403/1/4 402/1/4
f 51/4/4 390/4/4 49/4/4
f 49/4/4 390/4/4 422/4/4
f 60/4/4 447/4/4 58/4/4
f 58/4/4 447/4/4 446/4/4
f 114/4/4 619/4/4 255/4/4
f 255/4/4 619/4/4 558/4/4
f 255/4/4 195/4/4 780/4/4
f 780/4/4 195/4/4 194/4/4
f 780/4/4 559/4/4 252/4/4
f 252/4/4 559/4/4 618/4/4
f 253/4/4 620/4/4 315/4/4
f 315/4/4 620/4/4 683/4/4
f 316/4/4 685/4/4 781/4/4
f 781/4/4 685/4/4 723/4/4
f 382/1/4 752/1/4 380/1/4
f 380/1/4 752/1/4 751/1/4
f 69/4/4 49/4/4 66/4/4
f 66/4/4 49/4/4 59/4/4
f 117/4/4 58/4/4 115/4/4
f 115/4/4 58/4/4 113/4/4
f 175/1/4 112/1/4 173/1/4
f 173/1/4 112/1/4 255/1/4
f 264/4/4 782/4/4 261/4/4
f 261/4/4 782/4/4 253/4/4
f 262/4/4 317/4/4 323/4/4
f 323/4/4 317/4/4 316/4/4
f 323/1/4 316/1/4 355/1/4
f 355/1/4 316/1/4 781/1/4
f 44/1/4 434/1/4 41/1/4
f 41/1/4 434/1/4 433/1/4
f 83/4/4 68/4/4 81/4/4
f 81/4/4 68/4/4 67/4/4
f 127/4/4 66/4/4 125/4/4
f 125/4/4 66/4/4 116/4/4
f 207/4/4 115/4/4 783/4/4
f 783/4/4 115/4/4 174/4/4
f 783/4/4 254/4/4 205/4/4
f 205/4/4 254/4/4 782/4/4
f 206/4/4 263/4/4 273/4/4
f 273/4/4 263/4/4 262/4/4
f 274/4/4 325/4/4 330/4/4
f 330/4/4 325/4/4 324/4/4
f 468/4/4 81/4/4 508/4/4
f 508/4/4 81/4/4 126/4/4
f 506/4/4 125/4/4 572/4/4
f 572/4/4 125/4/4 206/4/4
f 642/4/4 275/4/4 643/4/4
f 643/4/4 275/4/4 274/4/4
f 36/1/4 426/1/4 33/1/4
f 33/1/4 426/1/4 425/1/4
f 33/4/4 425/4/4 461/4/4
f 461/4/4 425/4/4 468/4/4
f 459/4/4 507/4/4 499/4/4
f 499/4/4 507/4/4 506/4/4
f 204/1/4 565/1/4 201/1/4
f 201/1/4 565/1/4 564/1/4
f 632/4/4 572/4/4 633/4/4
f 633/4/4 572/4/4 641/4/4
f 693/4/4 643/4/4 694/4/4
f 694/4/4 643/4/4 700/4/4
f 413/4/4 460/4/4 450/4/4
f 450/4/4 460/4/4 459/4/4
f 449/4/4 498/4/4 784/4/4
f 784/4/4 498/4/4 497/4/4
f 784/4/4 571/4/4 785/4/4
f 785/4/4 571/4/4 566/4/4
f 785/4/4 203/4/4 623/4/4
f 623/4/4 203/4/4 631/4/4
f 623/1/4 631/1/4 786/1/4
f 786/1/4 631/1/4 686/1/4
f 12/1/4 399/1/4 9/1/4
f 9/1/4 399/1/4 398/1/4
f 24/1/4 411/1/4 21/1/4
f 21/1/4 411/1/4 410/1/4
f 542/4/4 787/4/4 617/4/4
f 617/4/4 787/4/4 621/4/4
f 375/1/4 744/1/4 372/1/4
f 372/1/4 744/1/4 743/1/4
f 32/4/4 23/4/4 29/4/4
f 29/4/4 23/4/4 22/4/4
f 63/4/4 410/4/4 61/4/4
f 61/4/4 410/4/4 449/4/4
f 257/4/4 622/4/4 171/4/4
f 171/4/4 622/4/4 787/4/4
f 172/1/4 541/1/4 169/1/4
f 169/1/4 541/1/4 540/1/4
f 170/4/4 543/4/4 250/4/4
f 250/4/4 543/4/4 616/4/4
f 251/1/4 615/1/4 248/1/4
f 248/1/4 615/1/4 614/1/4
f 256/4/4 623/4/4 788/4/4
f 788/4/4 623/4/4 786/4/4
f 365/4/4 736/4/4 363/4/4
f 363/4/4 736/4/4 735/4/4
f 385/1/4 756/1/4 383/1/4
f 383/1/4 756/1/4 755/1/4
f 40/1/4 31/1/4 37/1/4
f 37/1/4 31/1/4 30/1/4
f 72/4/4 29/4/4 70/4/4
f 70/4/4 29/4/4 62/4/4
f 120/4/4 61/4/4 265/4/4
f 265/4/4 61/4/4 256/4/4
f 265/1/4 256/1/4 318/1/4
f 318/1/4 256/1/4 788/1/4
f 48/1/4 39/1/4 45/1/4
f 45/1/4 39/1/4 38/1/4
f 86/4/4 37/4/4 84/4/4
f 84/4/4 37/4/4 71/4/4
f 130/4/4 70/4/4 128/4/4
f 128/4/4 70/4/4 119/4/4
f 179/1/4 545/1/4 176/1/4
f 176/1/4 545/1/4 544/1/4
f 177/4/4 546/4/4 208/4/4
f 208/4/4 546/4/4 268/4/4
f 209/4/4 267/4/4 276/4/4
f 276/4/4 267/4/4 266/4/4
f 277/4/4 327/4/4 333/4/4
f 333/4/4 327/4/4 326/4/4
f 359/1/4 730/1/4 357/1/4
f 357/1/4 730/1/4 729/1/4
f 471/4/4 84/4/4 511/4/4
f 511/4/4 84/4/4 129/4/4
f 509/4/4 128/4/4 575/4/4
f 575/4/4 128/4/4 209/4/4
f 645/4/4 278/4/4 646/4/4
f 646/4/4 278/4/4 277/4/4
f 421/4/4 472/4/4 463/4/4
f 463/4/4 472/4/4 471/4/4
f 462/4/4 510/4/4 502/4/4
f 502/4/4 510/4/4 509/4/4
f 636/4/4 575/4/4 637/4/4
f 637/4/4 575/4/4 644/4/4
f 696/4/4 646/4/4 697/4/4
f 697/4/4 646/4/4 703/4/4
f 789/1/4 419/1/4 453/1/4
f 453/1/4 419/1/4 418/1/4
f 453/4/4 418/4/4 454/4/4
f 454/4/4 418/4/4 462/4/4
f 451/4/4 501/4/4 790/4/4
f 790/4/4 501/4/4 500/4/4
f 790/4/4 574/4/4 791/4/4
f 791/4/4 574/4/4 573/4/4
f 791/4/4 635/4/4 626/4/4
f 626/4/4 635/4/4 634/4/4
f 688/4/4 637/4/4 689/4/4
f 689/4/4 637/4/4 695/4/4
f 20/1/4 407/1/4 17/1/4
f 17/1/4 407/1/4 406/1/4
f 416/4/4 789/4/4 417/4/4
f 417/4/4 789/4/4 453/4/4
f 562/4/4 792/4/4 314/4/4
f 314/4/4 792/4/4 624/4/4
f 314/1/4 624/1/4 311/1/4
f 311/1/4 624/1/4 681/1/4
f 389/1/4 760/1/4 386/1/4
f 386/1/4 760/1/4 759/1/4
f 8/1/4 395/1/4 5/1/4
f 5/1/4 395/1/4 394/1/4
f 28/1/4 415/1/4 25/1/4
f 25/1/4 415/1/4 414/1/4
f 25/4/4 452/4/4 64/4/4
f 64/4/4 452/4/4 451/4/4
f 260/4/4 625/4/4 199/4/4
f 199/4/4 625/4/4 792/4/4
f 200/1/4 561/1/4 197/1/4
f 197/1/4 561/1/4 560/1/4
f 198/4/4 563/4/4 258/4/4
f 258/4/4 563/4/4 314/4/4
f 259/4/4 313/4/4 320/4/4
f 320/4/4 313/4/4 312/4/4
f 321/4/4 689/4/4 366/4/4
f 366/4/4 689/4/4 738/4/4
f 379/1/4 748/1/4 376/1/4
f 376/1/4 748/1/4 747/1/4
f 76/4/4 26/4/4 73/4/4
f 73/4/4 26/4/4 65/4/4
f 793/4/4 64/4/4 269/4/4
f 269/4/4 64/4/4 259/4/4
f 270/4/4 322/4/4 794/4/4
f 794/4/4 322/4/4 321/4/4
f 80/4/4 75/4/4 77/4/4
f 77/4/4 75/4/4 74/4/4
f 124/1/4 793/1/4 121/1/4
f 121/1/4 793/1/4 795/1/4
f 121/4/4 795/4/4 210/4/4
f 210/4/4 795/4/4 272/4/4
f 211/4/4 271/4/4 279/4/4
f 279/4/4 271/4/4 270/4/4
f 279/1/4 270/1/4 328/1/4
f 328/1/4 270/1/4 794/1/4
f 90/1/4 79/1/4 87/1/4
f 87/1/4 79/1/4 78/1/4
f 134/4/4 77/4/4 132/4/4
f 132/4/4 77/4/4 131/4/4
f 214/4/4 122/4/4 212/4/4
f 212/4/4 122/4/4 211/4/4
f 213/4/4 281/4/4 282/4/4
f 282/4/4 281/4/4 280/4/4
f 512/2/4 132/2/4 582/2/4
f 582/2/4 132/2/4 213/2/4
f 138/2/4 513/2/4 135/2/4
f 135/2/4 513/2/4 512/2/4
f 217/2/4 581/2/4 215/2/4
f 215/2/4 581/2/4 580/2/4
f 216/2/4 582/2/4 284/2/4
f 284/2/4 582/2/4 651/2/4
f 559/1/5 194/1/5 556/1/5
f 556/1/5 194/1/5 193/1/5
f 543/1/5 170/1/5 540/1/5
f 540/1/5 170/1/5 169/1/5
f 617/1/5 249/1/5 614/1/5
f 614/1/5 249/1/5 248/1/5
f 563/1/5 198/1/5 560/1/5
f 560/1/5 198/1/5 197/1/5
f 620/4/5 253/4/5 618/4/5
f 618/4/5 253/4/5 252/4/5
f 254/1/5 174/1/5 255/1/5
f 255/1/5 174/1/5 173/1/5
f 567/1/5 202/1/5 564/1/5
f 564/1/5 202/1/5 201/1/5
f 623/4/5 256/4/5 621/4/5
f 621/4/5 256/4/5 249/4/5
f 546/1/5 177/1/5 544/1/5
f 544/1/5 177/1/5 176/1/5
f 682/1/5 312/1/5 681/1/5
f 681/1/5 312/1/5 311/1/5
f 313/4/5 259/4/5 314/4/5
f 314/4/5 259/4/5 258/4/5
f 570/4/5 629/4/5 568/4/5
f 568/4/5 629/4/5 628/4/5
f 630/4/5 684/4/5 627/4/5
f 627/4/5 684/4/5 620/4/5
f 685/4/5 316/4/5 683/4/5
f 683/4/5 316/4/5 315/4/5
f 317/4/5 262/4/5 253/4/5
f 253/4/5 262/4/5 261/4/5
f 263/4/5 206/4/5 264/4/5
f 264/4/5 206/4/5 205/4/5
f 572/4/5 632/4/5 567/4/5
f 567/4/5 632/4/5 202/4/5
f 687/1/5 736/1/5 686/1/5
f 686/1/5 736/1/5 786/1/5
f 736/4/5 365/4/5 786/4/5
f 786/4/5 365/4/5 788/4/5
f 365/1/5 319/1/5 788/1/5
f 788/1/5 319/1/5 318/1/5
f 267/4/5 209/4/5 268/4/5
f 268/4/5 209/4/5 208/4/5
f 575/4/5 636/4/5 573/4/5
f 573/4/5 636/4/5 635/4/5
f 637/4/5 688/4/5 634/4/5
f 634/4/5 688/4/5 626/4/5
f 689/4/5 321/4/5 682/4/5
f 682/4/5 321/4/5 320/4/5
f 322/4/5 270/4/5 259/4/5
f 259/4/5 270/4/5 269/4/5
f 271/4/5 211/4/5 272/4/5
f 272/4/5 211/4/5 210/4/5
f 579/4/5 639/4/5 576/4/5
f 576/4/5 639/4/5 570/4/5
f 640/4/5 691/4/5 638/4/5
f 638/4/5 691/4/5 630/4/5
f 742/1/5 369/1/5 740/1/5
f 740/1/5 369/1/5 368/1/5
f 360/1/5 356/1/5 781/1/5
f 781/1/5 356/1/5 355/1/5
f 325/4/5 274/4/5 262/4/5
f 262/4/5 274/4/5 273/4/5
f 275/4/5 642/4/5 206/4/5
f 206/4/5 642/4/5 572/4/5
f 643/4/5 693/4/5 641/4/5
f 641/4/5 693/4/5 633/4/5
f 744/4/5 796/4/5 735/4/5
f 735/4/5 796/4/5 363/4/5
f 327/4/5 277/4/5 266/4/5
f 266/4/5 277/4/5 276/4/5
f 278/4/5 645/4/5 209/4/5
f 209/4/5 645/4/5 575/4/5
f 646/4/5 696/4/5 644/4/5
f 644/4/5 696/4/5 637/4/5
f 748/4/5 379/4/5 797/4/5
f 797/4/5 379/4/5 366/4/5
f 798/1/5 329/1/5 794/1/5
f 794/1/5 329/1/5 328/1/5
f 281/4/5 213/4/5 211/4/5
f 211/4/5 213/4/5 212/4/5
f 582/2/5 216/2/5 580/2/5
f 580/2/5 216/2/5 215/2/5
f 727/4/5 724/4/5 690/4/5
f 690/4/5 724/4/5 685/4/5
f 746/1/5 373/1/5 743/1/5
f 743/1/5 373/1/5 372/1/5
f 730/4/5 359/4/5 326/4/5
f 326/4/5 359/4/5 333/4/5
f 750/1/5 377/1/5 747/1/5
f 747/1/5 377/1/5 376/1/5
f 650/4/5 653/4/5 647/4/5
f 647/4/5 653/4/5 640/4/5
f 699/4/5 705/4/5 698/4/5
f 698/4/5 705/4/5 692/4/5
f 728/1/5 732/1/5 726/1/5
f 726/1/5 732/1/5 725/1/5
f 752/4/5 382/4/5 371/4/5
f 371/4/5 382/4/5 781/4/5
f 336/4/5 331/4/5 324/4/5
f 324/4/5 331/4/5 330/4/5
f 332/4/5 701/4/5 274/4/5
f 274/4/5 701/4/5 643/4/5
f 702/4/5 708/4/5 700/4/5
f 700/4/5 708/4/5 694/4/5
f 756/4/5 385/4/5 375/4/5
f 375/4/5 385/4/5 796/4/5
f 731/1/5 358/1/5 729/1/5
f 729/1/5 358/1/5 357/1/5
f 286/4/5 656/4/5 277/4/5
f 277/4/5 656/4/5 646/4/5
f 704/4/5 711/4/5 703/4/5
f 703/4/5 711/4/5 697/4/5
f 760/4/5 389/4/5 738/4/5
f 738/4/5 389/4/5 797/4/5
f 342/4/5 335/4/5 798/4/5
f 798/4/5 335/4/5 329/4/5
f 289/4/5 283/4/5 280/4/5
f 280/4/5 283/4/5 282/4/5
f 219/2/5 587/2/5 213/2/5
f 213/2/5 587/2/5 582/2/5
f 652/2/5 285/2/5 651/2/5
f 651/2/5 285/2/5 284/2/5
f 586/4/5 590/4/5 583/4/5
f 583/4/5 590/4/5 654/4/5
f 655/4/5 659/4/5 653/4/5
f 653/4/5 659/4/5 706/4/5
f 707/4/5 714/4/5 705/4/5
f 705/4/5 714/4/5 733/4/5
f 734/4/5 753/4/5 741/4/5
f 741/4/5 753/4/5 370/4/5
f 754/1/5 381/1/5 751/1/5
f 751/1/5 381/1/5 380/1/5
f 346/4/5 337/4/5 362/4/5
f 362/4/5 337/4/5 324/4/5
f 292/4/5 767/4/5 338/4/5
f 338/4/5 767/4/5 332/4/5
f 767/1/5 768/1/5 332/1/5
f 332/1/5 768/1/5 701/1/5
f 768/4/5 662/4/5 701/4/5
f 701/4/5 662/4/5 709/4/5
f 710/4/5 717/4/5 687/4/5
f 687/4/5 717/4/5 736/4/5
f 737/4/5 757/4/5 745/4/5
f 745/4/5 757/4/5 374/4/5
f 758/1/5 384/1/5 755/1/5
f 755/1/5 384/1/5 383/1/5
f 349/4/5 340/4/5 365/4/5
f 365/4/5 340/4/5 319/4/5
f 296/4/5 287/4/5 341/4/5
f 341/4/5 287/4/5 286/4/5
f 227/4/5 595/4/5 288/4/5
f 288/4/5 595/4/5 657/4/5
f 658/4/5 666/4/5 656/4/5
f 656/4/5 666/4/5 712/4/5
f 713/4/5 720/4/5 695/4/5
f 695/4/5 720/4/5 689/4/5
f 761/1/5 387/1/5 759/1/5
f 759/1/5 387/1/5 386/1/5
f 388/4/5 367/4/5 749/4/5
f 749/4/5 367/4/5 378/4/5
f 352/4/5 343/4/5 321/4/5
f 321/4/5 343/4/5 794/4/5
f 344/4/5 290/4/5 345/4/5
f 345/4/5 290/4/5 289/4/5
f 229/4/5 220/4/5 291/4/5
f 291/4/5 220/4/5 219/4/5
f 589/2/5 222/2/5 587/2/5
f 587/2/5 222/2/5 218/2/5
f 592/4/5 598/4/5 590/4/5
f 590/4/5 598/4/5 660/4/5
f 661/4/5 670/4/5 659/4/5
f 659/4/5 670/4/5 715/4/5
f 716/4/5 347/4/5 714/4/5
f 714/4/5 347/4/5 346/4/5
f 301/4/5 293/4/5 348/4/5
f 348/4/5 293/4/5 292/4/5
f 294/4/5 225/4/5 295/4/5
f 295/4/5 225/4/5 224/4/5
f 594/4/5 664/4/5 593/4/5
f 593/4/5 664/4/5 663/4/5
f 665/4/5 674/4/5 662/4/5
f 662/4/5 674/4/5 718/4/5
f 719/4/5 350/4/5 717/4/5
f 717/4/5 350/4/5 349/4/5
f 304/4/5 297/4/5 351/4/5
f 351/4/5 297/4/5 296/4/5
f 298/4/5 228/4/5 299/4/5
f 299/4/5 228/4/5 227/4/5
f 597/4/5 668/4/5 595/4/5
f 595/4/5 668/4/5 667/4/5
f 669/4/5 677/4/5 666/4/5
f 666/4/5 677/4/5 721/4/5
f 722/4/5 353/4/5 720/4/5
f 720/4/5 353/4/5 352/4/5
f 307/4/5 776/4/5 354/4/5
f 354/4/5 776/4/5 344/4/5
f 776/1/5 300/1/5 344/1/5
f 344/1/5 300/1/5 290/1/5
f 601/1/5 672/1/5 598/1/5
f 598/1/5 672/1/5 671/1/5
f 673/4/5 302/4/5 670/4/5
f 670/4/5 302/4/5 301/4/5
f 239/1/5 181/1/5 303/1/5
f 303/1/5 181/1/5 180/1/5
f 552/1/5 184/1/5 549/1/5
f 549/1/5 184/1/5 183/1/5
f 676/4/5 305/4/5 674/4/5
f 674/4/5 305/4/5 304/4/5
f 555/1/5 188/1/5 553/1/5
f 553/1/5 188/1/5 187/1/5
f 680/4/5 308/4/5 677/4/5
f 677/4/5 308/4/5 307/4/5
f 309/1/5 233/1/5 310/1/5
f 310/1/5 233/1/5 232/1/5
f 535/1/5 162/1/5 532/1/5
f 532/1/5 162/1/5 161/1/5
f 605/1/5 237/1/5 602/1/5
f 602/1/5 237/1/5 236/1/5
f 609/1/5 241/1/5 606/1/5
f 606/1/5 241/1/5 240/1/5
f 613/1/5 245/1/5 610/1/5
f 610/1/5 245/1/5 244/1/5
f 539/1/5 166/1/5 536/1/5
f 536/1/5 166/1/5 165/1/5
f 558/1/6 557/1/6 195/1/6
f 195/1/6 557/1/6 196/1/6
f 542/1/6 541/1/6 171/1/6
f 171/1/6 541/1/6 172/1/6
f 616/1/6 615/1/6 250/1/6
f 250/1/6 615/1/6 251/1/6
f 562/1/6 561/1/6 199/1/6
f 199/1/6 561/1/6 200/1/6
f 446/4/6 619/4/6 58/4/6
f 58/4/6 619/4/6 114/4/6
f 113/1/6 112/1/6 115/1/6
f 115/1/6 112/1/6 175/1/6
f 566/1/6 565/1/6 203/1/6
f 203/1/6 565/1/6 204/1/6
f 449/4/6 622/4/6 61/4/6
f 61/4/6 622/4/6 257/4/6
f 118/1/6 545/1/6 178/1/6
f 178/1/6 545/1/6 179/1/6
f 451/4/6 625/4/6 64/4/6
f 64/4/6 625/4/6 260/4/6
f 503/4/6 569/4/6 496/4/6
f 496/4/6 569/4/6 494/4/6
f 455/4/6 495/4/6 448/4/6
f 448/4/6 495/4/6 446/4/6
f 422/4/6 447/4/6 49/4/6
f 49/4/6 447/4/6 60/4/6
f 59/4/6 58/4/6 66/4/6
f 66/4/6 58/4/6 117/4/6
f 116/4/6 115/4/6 125/4/6
f 125/4/6 115/4/6 207/4/6
f 506/4/6 571/4/6 499/4/6
f 499/4/6 571/4/6 497/4/6
f 459/4/6 498/4/6 450/4/6
f 450/4/6 498/4/6 449/4/6
f 412/1/6 411/1/6 23/1/6
f 23/1/6 411/1/6 24/1/6
f 22/4/6 21/4/6 29/4/6
f 29/4/6 21/4/6 63/4/6
f 62/4/6 61/4/6 70/4/6
f 70/4/6 61/4/6 120/4/6
f 119/4/6 118/4/6 128/4/6
f 128/4/6 118/4/6 178/4/6
f 509/4/6 574/4/6 502/4/6
f 502/4/6 574/4/6 500/4/6
f 462/4/6 501/4/6 454/4/6
f 454/4/6 501/4/6 451/4/6
f 453/4/6 452/4/6 417/4/6
f 417/4/6 452/4/6 414/4/6
f 416/1/6 415/1/6 27/1/6
f 27/1/6 415/1/6 28/1/6
f 65/4/6 64/4/6 73/4/6
f 73/4/6 64/4/6 793/4/6
f 73/1/6 793/1/6 123/1/6
f 123/1/6 793/1/6 124/1/6
f 578/4/6 577/4/6 505/4/6
f 505/4/6 577/4/6 503/4/6
f 464/4/6 504/4/6 458/4/6
f 458/4/6 504/4/6 455/4/6
f 392/1/6 391/1/6 3/1/6
f 3/1/6 391/1/6 4/1/6
f 67/4/6 66/4/6 81/4/6
f 81/4/6 66/4/6 127/4/6
f 126/4/6 125/4/6 508/4/6
f 508/4/6 125/4/6 506/4/6
f 468/4/6 507/4/6 461/4/6
f 461/4/6 507/4/6 459/4/6
f 30/4/6 29/4/6 37/4/6
f 37/4/6 29/4/6 72/4/6
f 71/4/6 70/4/6 84/4/6
f 84/4/6 70/4/6 130/4/6
f 129/4/6 128/4/6 511/4/6
f 511/4/6 128/4/6 509/4/6
f 471/4/6 510/4/6 463/4/6
f 463/4/6 510/4/6 462/4/6
f 420/1/6 419/1/6 444/1/6
f 444/1/6 419/1/6 789/1/6
f 394/4/6 416/4/6 5/4/6
f 5/4/6 416/4/6 27/4/6
f 74/4/6 73/4/6 77/4/6
f 77/4/6 73/4/6 123/4/6
f 131/4/6 122/4/6 132/4/6
f 132/4/6 122/4/6 214/4/6
f 512/2/6 581/2/6 135/2/6
f 135/2/6 581/2/6 217/2/6
f 429/4/6 456/4/6 424/4/6
f 424/4/6 456/4/6 422/4/6
f 433/4/6 68/4/6 41/4/6
f 41/4/6 68/4/6 83/4/6
f 427/1/6 426/1/6 35/1/6
f 35/1/6 426/1/6 36/1/6
f 398/4/6 412/4/6 55/4/6
f 55/4/6 412/4/6 32/4/6
f 55/1/6 31/1/6 39/1/6
f 39/1/6 31/1/6 40/1/6
f 38/4/6 37/4/6 45/4/6
f 45/4/6 37/4/6 86/4/6
f 396/1/6 395/1/6 7/1/6
f 7/1/6 395/1/6 8/1/6
f 78/4/6 77/4/6 87/4/6
f 87/4/6 77/4/6 134/4/6
f 649/4/6 648/4/6 467/4/6
f 467/4/6 648/4/6 464/4/6
f 466/4/6 465/4/6 432/4/6
f 432/4/6 465/4/6 457/4/6
f 431/1/6 430/1/6 438/1/6
f 438/1/6 430/1/6 423/1/6
f 402/4/6 1/4/6 13/4/6
f 13/4/6 1/4/6 51/4/6
f 435/1/6 434/1/6 43/1/6
f 43/1/6 434/1/6 44/1/6
f 82/4/6 81/4/6 470/4/6
f 470/4/6 81/4/6 468/4/6
f 469/4/6 428/4/6 479/4/6
f 479/4/6 428/4/6 34/4/6
f 400/1/6 399/1/6 11/1/6
f 11/1/6 399/1/6 12/1/6
f 436/1/6 39/1/6 47/1/6
f 47/1/6 39/1/6 48/1/6
f 85/4/6 84/4/6 474/4/6
f 474/4/6 84/4/6 471/4/6
f 473/4/6 472/4/6 799/4/6
f 799/4/6 472/4/6 443/4/6
f 406/4/6 789/4/6 17/4/6
f 17/4/6 789/4/6 416/4/6
f 102/4/6 75/4/6 777/4/6
f 777/4/6 75/4/6 80/4/6
f 777/1/6 79/1/6 89/1/6
f 89/1/6 79/1/6 90/1/6
f 133/2/6 132/2/6 515/2/6
f 515/2/6 132/2/6 512/2/6
f 514/2/6 513/2/6 137/2/6
f 137/2/6 513/2/6 138/2/6
f 585/4/6 584/4/6 518/4/6
f 518/4/6 584/4/6 516/4/6
f 517/4/6 467/4/6 477/4/6
f 477/4/6 467/4/6 475/4/6
f 476/4/6 432/4/6 440/4/6
f 440/4/6 432/4/6 437/4/6
f 439/4/6 393/4/6 405/4/6
f 405/4/6 393/4/6 2/4/6
f 404/1/6 403/1/6 15/1/6
f 15/1/6 403/1/6 16/1/6
f 50/4/6 49/4/6 93/4/6
f 93/4/6 49/4/6 69/4/6
f 92/4/6 91/4/6 141/4/6
f 141/4/6 91/4/6 82/4/6
f 140/4/6 139/4/6 521/4/6
f 521/4/6 139/4/6 519/4/6
f 520/4/6 470/4/6 481/4/6
f 481/4/6 470/4/6 478/4/6
f 480/4/6 460/4/6 442/4/6
f 442/4/6 460/4/6 413/4/6
f 441/4/6 401/4/6 800/4/6
f 800/4/6 401/4/6 10/4/6
f 800/4/6 9/4/6 54/4/6
f 54/4/6 9/4/6 55/4/6
f 53/4/6 52/4/6 97/4/6
f 97/4/6 52/4/6 38/4/6
f 96/4/6 95/4/6 144/4/6
f 144/4/6 95/4/6 85/4/6
f 143/4/6 142/4/6 524/4/6
f 524/4/6 142/4/6 522/4/6
f 523/4/6 474/4/6 485/4/6
f 485/4/6 474/4/6 482/4/6
f 484/4/6 483/4/6 445/4/6
f 445/4/6 483/4/6 799/4/6
f 408/1/6 407/1/6 19/1/6
f 19/1/6 407/1/6 20/1/6
f 18/4/6 397/4/6 57/4/6
f 57/4/6 397/4/6 6/4/6
f 56/4/6 26/4/6 101/4/6
f 101/4/6 26/4/6 76/4/6
f 100/4/6 99/4/6 147/4/6
f 147/4/6 99/4/6 148/4/6
f 146/4/6 145/4/6 221/4/6
f 221/4/6 145/4/6 133/4/6
f 588/2/6 515/2/6 223/2/6
f 223/2/6 515/2/6 136/2/6
f 591/4/6 518/4/6 527/4/6
f 527/4/6 518/4/6 525/4/6
f 526/4/6 477/4/6 488/4/6
f 488/4/6 477/4/6 486/4/6
f 487/4/6 440/4/6 105/4/6
f 105/4/6 440/4/6 50/4/6
f 104/4/6 103/4/6 151/4/6
f 151/4/6 103/4/6 92/4/6
f 150/4/6 149/4/6 226/4/6
f 226/4/6 149/4/6 140/4/6
f 550/4/6 521/4/6 186/4/6
f 186/4/6 521/4/6 528/4/6
f 529/4/6 481/4/6 491/4/6
f 491/4/6 481/4/6 489/4/6
f 490/4/6 442/4/6 108/4/6
f 108/4/6 442/4/6 53/4/6
f 107/4/6 106/4/6 154/4/6
f 154/4/6 106/4/6 96/4/6
f 153/4/6 152/4/6 190/4/6
f 190/4/6 152/4/6 143/4/6
f 596/4/6 524/4/6 531/4/6
f 531/4/6 524/4/6 530/4/6
f 492/1/6 484/1/6 773/1/6
f 773/1/6 484/1/6 445/1/6
f 773/4/6 445/4/6 111/4/6
f 111/4/6 445/4/6 56/4/6
f 110/4/6 109/4/6 157/4/6
f 157/4/6 109/4/6 100/4/6
f 156/4/6 155/4/6 231/4/6
f 231/4/6 155/4/6 146/4/6
f 600/1/6 599/1/6 548/1/6
f 548/1/6 599/1/6 547/1/6
f 533/4/6 488/4/6 160/4/6
f 160/4/6 488/4/6 104/4/6
f 159/1/6 158/1/6 182/1/6
f 182/1/6 158/1/6 150/1/6
f 551/1/6 550/1/6 185/1/6
f 185/1/6 550/1/6 186/1/6
f 675/4/6 491/4/6 306/4/6
f 306/4/6 491/4/6 107/4/6
f 554/1/6 153/1/6 189/1/6
f 189/1/6 153/1/6 190/1/6
f 679/4/6 678/4/6 168/4/6
f 168/4/6 678/4/6 110/4/6
f 192/1/6 191/1/6 234/1/6
f 234/1/6 191/1/6 235/1/6
f 534/1/6 533/1/6 163/1/6
f 163/1/6 533/1/6 164/1/6
f 604/1/6 603/1/6 238/1/6
f 238/1/6 603/1/6 239/1/6
f 608/1/6 607/1/6 242/1/6
f 242/1/6 607/1/6 243/1/6
f 612/1/6 611/1/6 246/1/6
f 246/1/6 611/1/6 247/1/6
f 538/1/6 537/1/6 167/1/6
f 167/1/6 537/1/6 168/1/6
