# Vengi binary mesh normalized for Tanks of Freedom II

mtllib ../../../materials/vox_grass.mtl
o palm_3

v 0.2 1 1
v 0.1 1 1
v 0.1 1 1.1
v 0.2 1 1.1
v 0.2 1.2 1
v 0.1 1.2 1
v 0.1 1.2 1.1
v 0.2 1.2 1.1
v 0.1 1.3 1
v -0.1 1.3 1
v -0.1 1.3 1.1
v 0.1 1.3 1.1
v -0.1 1 1
v -0.2 1 1
v -0.2 1 1.1
v -0.1 1 1.1
v -0.1 1.2 1
v -0.2 1.2 1
v -0.2 1.2 1.1
v -0.1 1.2 1.1
v 0.3 1.5 0.9
v 0.2 1.5 0.9
v 0.2 1.5 1
v 0.3 1.5 1
v 0.2 1.6 0.9
v 0.1 1.6 0.9
v 0.1 1.6 1
v 0.2 1.6 1
v -0.1 1.6 0.9
v -0.1 1.6 1
v -0.2 1.6 0.9
v -0.2 1.6 1
v -0.2 1.5 0.9
v -0.3 1.5 0.9
v -0.3 1.5 1
v -0.2 1.5 1
v 0.4 1.7 0.8
v 0.3 1.7 0.8
v 0.3 1.7 0.9
v 0.4 1.7 0.9
v 0.3 1.8 0.8
v 0.2 1.8 0.8
v 0.2 1.8 0.9
v 0.3 1.8 0.9
v -0.2 1.8 0.8
v -0.2 1.8 0.9
v -0.3 1.8 0.8
v -0.3 1.8 0.9
v -0.3 1.7 0.8
v -0.4 1.7 0.8
v -0.4 1.7 0.9
v -0.3 1.7 0.9
v 0.4 1.9 0.7
v 0.2 1.9 0.7
v 0.2 1.9 0.8
v 0.4 1.9 0.8
v -0.2 1.9 0.7
v -0.2 1.9 0.8
v -0.4 1.9 0.7
v -0.4 1.9 0.8
v 0.4 2 0.5
v 0.3 2 0.5
v 0.3 2 0.6
v 0.4 2 0.6
v 0.2 2 0.5
v 0.2 2 0.7
v 0.3 2 0.7
v -0.2 2 0.5
v -0.2 2 0.7
v -0.3 2 0.5
v -0.3 2 0.7
v -0.4 2 0.5
v -0.4 2 0.6
v -0.3 2 0.6
v 0.8 1.7 0.4
v 0.7 1.7 0.4
v 0.7 1.7 0.5
v 0.8 1.7 0.5
v -0.7 1.7 0.4
v -0.8 1.7 0.4
v -0.8 1.7 0.5
v -0.7 1.7 0.5
v 0.9 1.5 0.3
v 0.8 1.5 0.3
v 0.8 1.5 0.4
v 0.9 1.5 0.4
v 0.8 1.8 0.3
v 0.7 1.8 0.3
v 0.7 1.8 0.4
v 0.8 1.8 0.4
v 0.7 1.9 0.3
v 0.6 1.9 0.3
v 0.6 1.9 0.5
v 0.7 1.9 0.5
v 0.6 2 0.3
v 0.5 2 0.3
v 0.5 2 0.4
v 0.6 2 0.4
v 0.4 2 0.3
v 0.5 2 0.5
v 0.3 2.1 0.3
v 0.2 2.1 0.3
v 0.2 2.1 0.4
v 0.3 2.1 0.4
v -0.2 2.1 0.3
v -0.2 2.1 0.5
v 0.2 2.1 0.5
v -0.3 2.1 0.3
v -0.3 2.1 0.4
v -0.2 2.1 0.4
v -0.4 2 0.3
v -0.5 2 0.3
v -0.5 2 0.5
v -0.6 2 0.3
v -0.6 2 0.4
v -0.5 2 0.4
v -0.6 1.9 0.3
v -0.7 1.9 0.3
v -0.7 1.9 0.5
v -0.6 1.9 0.5
v -0.7 1.8 0.3
v -0.8 1.8 0.3
v -0.8 1.8 0.4
v -0.7 1.8 0.4
v -0.8 1.5 0.3
v -0.9 1.5 0.3
v -0.9 1.5 0.4
v -0.8 1.5 0.4
v 1 1 0.2
v 0.9 1 0.2
v 0.9 1 0.3
v 1 1 0.3
v 1 1.2 0.2
v 0.9 1.2 0.2
v 0.9 1.2 0.3
v 1 1.2 0.3
v 0.9 1.6 0.2
v 0.8 1.6 0.2
v 0.8 1.6 0.3
v 0.9 1.6 0.3
v -0.8 1.6 0.2
v -0.9 1.6 0.2
v -0.9 1.6 0.3
v -0.8 1.6 0.3
v -0.9 1 0.2
v -1 1 0.2
v -1 1 0.3
v -0.9 1 0.3
v -0.9 1.2 0.2
v -1 1.2 0.2
v -1 1.2 0.3
v -0.9 1.2 0.3
v 0.1 0.4 0.1
v -0.2 0.4 0.1
v -0.2 0.4 0.2
v 0.1 0.4 0.2
v 1 1.3 0
v 0.9 1.3 0
v 0.9 1.3 0.2
v 1 1.3 0.2
v 0.9 1.6 0
v 0.8 1.6 0
v 0.2 2.2 0
v 0.1 2.2 0
v 0.1 2.2 0.2
v 0.2 2.2 0.2
v 0.1 0.8 0
v -0.1 0.8 0
v -0.1 0.8 0.1
v 0.1 0.8 0.1
v -0.1 2.2 0
v -0.2 2.2 0
v -0.2 2.2 0.2
v -0.1 2.2 0.2
v -0.8 1.6 0
v -0.9 1.6 0
v -0.9 1.3 0
v -1 1.3 0
v -1 1.3 0.2
v -0.9 1.3 0.2
v 1 1 -0.1
v 0.9 1 -0.1
v 0.9 1 0
v 1 1 0
v 1 1.2 -0.1
v 0.9 1.2 -0.1
v 0.9 1.2 0
v 1 1.2 0
v 0.9 1.6 -0.1
v 0.8 1.6 -0.1
v 0.8 1.8 -0.1
v 0.7 1.8 -0.1
v 0.7 1.9 -0.1
v 0.6 1.9 -0.1
v 0.6 2 -0.1
v 0.4 2 -0.1
v 0.4 2.1 -0.1
v 0.2 2.1 -0.1
v 0.4 2.1 0.3
v 0.1 1.4 -0.1
v -0.1 1.4 -0.1
v -0.1 1.4 0
v 0.1 1.4 0
v 0.1 2.2 -0.1
v -0.1 2.2 -0.1
v -0.1 2.2 0.3
v 0.1 2.2 0.3
v -0.2 2.1 -0.1
v -0.4 2.1 -0.1
v -0.4 2.1 0.3
v -0.4 2 -0.1
v -0.6 2 -0.1
v -0.6 1.9 -0.1
v -0.7 1.9 -0.1
v -0.7 1.8 -0.1
v -0.8 1.8 -0.1
v -0.8 1.6 -0.1
v -0.9 1.6 -0.1
v -0.9 1 -0.1
v -1 1 -0.1
v -1 1 0
v -0.9 1 0
v -0.9 1.2 -0.1
v -1 1.2 -0.1
v -1 1.2 0
v -0.9 1.2 0
v 0.9 1.5 -0.2
v 0.8 1.5 -0.2
v 0.8 1.5 -0.1
v 0.9 1.5 -0.1
v 0.8 1.8 -0.2
v 0.7 1.8 -0.2
v 0.6 2 -0.2
v 0.4 2 -0.2
v 0.3 2.1 -0.2
v 0.2 2.1 -0.2
v 0.3 2.1 -0.1
v 0.2 0.4 -0.2
v 0.1 0.4 -0.2
v 0.2 0.4 0.2
v -0.1 0.4 -0.2
v -0.1 0.4 -0.1
v 0.1 0.4 -0.1
v 0.1 1 -0.2
v -0.1 1 -0.2
v -0.1 1 -0.1
v 0.1 1 -0.1
v -0.2 0.4 -0.2
v -0.1 0.4 0.1
v -0.2 2.1 -0.2
v -0.3 2.1 -0.2
v -0.3 2.1 -0.1
v -0.5 2 -0.2
v -0.6 2 -0.2
v -0.5 2 -0.1
v -0.7 1.8 -0.2
v -0.8 1.8 -0.2
v -0.8 1.5 -0.2
v -0.9 1.5 -0.2
v -0.9 1.5 -0.1
v -0.8 1.5 -0.1
v 0.8 1.7 -0.3
v 0.7 1.7 -0.3
v 0.7 1.7 -0.2
v 0.8 1.7 -0.2
v 0.7 1.9 -0.3
v 0.6 1.9 -0.3
v 0.5 2 -0.3
v 0.4 2 -0.3
v 0.5 2 -0.2
v 0.2 2.1 -0.3
v -0.2 2.1 -0.3
v -0.4 2 -0.3
v -0.5 2 -0.3
v -0.6 1.9 -0.3
v -0.7 1.9 -0.3
v -0.7 1.7 -0.3
v -0.8 1.7 -0.3
v -0.8 1.7 -0.2
v -0.7 1.7 -0.2
v 0.4 2 -0.4
v 0.2 2 -0.4
v 0.2 2 -0.3
v -0.3 2 -0.4
v -0.4 2 -0.4
v -0.3 2 -0.3
v 0.3 2 -0.5
v 0.2 2 -0.5
v 0.3 2 -0.4
v -0.2 2 -0.5
v -0.2 2 -0.3
v -0.3 2 -0.5
v 0.4 1.9 -0.6
v 0.2 1.9 -0.6
v 0.2 1.9 -0.5
v 0.4 1.9 -0.5
v -0.2 1.9 -0.6
v -0.2 1.9 -0.5
v -0.4 1.9 -0.6
v -0.4 1.9 -0.5
v 0.4 1.7 -0.7
v 0.3 1.7 -0.7
v 0.3 1.7 -0.6
v 0.4 1.7 -0.6
v 0.3 1.8 -0.7
v 0.2 1.8 -0.7
v 0.2 1.8 -0.6
v 0.3 1.8 -0.6
v -0.2 1.8 -0.7
v -0.2 1.8 -0.6
v -0.3 1.8 -0.7
v -0.3 1.8 -0.6
v -0.3 1.7 -0.7
v -0.4 1.7 -0.7
v -0.4 1.7 -0.6
v -0.3 1.7 -0.6
v 0.3 1.5 -0.8
v 0.2 1.5 -0.8
v 0.2 1.5 -0.7
v 0.3 1.5 -0.7
v 0.2 1.6 -0.8
v 0.1 1.6 -0.8
v 0.1 1.6 -0.7
v 0.2 1.6 -0.7
v -0.1 1.6 -0.8
v -0.1 1.6 -0.7
v -0.2 1.6 -0.8
v -0.2 1.6 -0.7
v -0.2 1.5 -0.8
v -0.3 1.5 -0.8
v -0.3 1.5 -0.7
v -0.2 1.5 -0.7
v 0.2 1 -0.9
v 0.1 1 -0.9
v 0.1 1 -0.8
v 0.2 1 -0.8
v 0.2 1.2 -0.9
v 0.1 1.2 -0.9
v 0.1 1.2 -0.8
v 0.2 1.2 -0.8
v 0.1 1.3 -0.9
v -0.1 1.3 -0.9
v -0.1 1.3 -0.8
v 0.1 1.3 -0.8
v -0.1 1 -0.9
v -0.2 1 -0.9
v -0.2 1 -0.8
v -0.1 1 -0.8
v -0.1 1.2 -0.9
v -0.2 1.2 -0.9
v -0.2 1.2 -0.8
v -0.1 1.2 -0.8
v 0.2 0.9 1
v 0.2 0.9 1.1
v 0.1 0.9 1.1
v 0.1 0.9 1
v 0.2 1.1 1
v 0.2 1.1 1.1
v 0.1 1.1 1.1
v 0.1 1.1 1
v 0.1 0.8 1
v 0.1 0.8 1.1
v -0.1 0.8 1.1
v -0.1 0.8 1
v -0.1 0.9 1
v -0.1 0.9 1.1
v -0.2 0.9 1.1
v -0.2 0.9 1
v -0.1 1.1 1
v -0.1 1.1 1.1
v -0.2 1.1 1.1
v -0.2 1.1 1
v 0.3 1.4 0.9
v 0.3 1.4 1
v 0.2 1.4 1
v 0.2 1.4 0.9
v 0.2 1.3 0.9
v 0.2 1.3 1
v 0.1 1.3 0.9
v -0.1 1.3 0.9
v -0.2 1.3 1
v -0.2 1.3 0.9
v -0.2 1.4 0.9
v -0.2 1.4 1
v -0.3 1.4 1
v -0.3 1.4 0.9
v 0.4 1.6 0.8
v 0.4 1.6 0.9
v 0.2 1.6 0.8
v -0.2 1.6 0.8
v -0.4 1.6 0.9
v -0.4 1.6 0.8
v 0.4 1.8 0.7
v 0.4 1.8 0.8
v 0.2 1.8 0.7
v -0.2 1.8 0.7
v -0.4 1.8 0.8
v -0.4 1.8 0.7
v 0.4 1.9 0.5
v 0.4 1.9 0.6
v 0.3 1.9 0.6
v 0.3 1.9 0.5
v 0.3 1.9 0.7
v 0.2 1.9 0.5
v -0.2 1.9 0.5
v -0.3 1.9 0.7
v -0.3 1.9 0.5
v -0.3 1.9 0.6
v -0.4 1.9 0.6
v -0.4 1.9 0.5
v 0.9 1.4 0.3
v 0.9 1.4 0.4
v 0.8 1.4 0.4
v 0.8 1.4 0.3
v 0.8 1.6 0.5
v 0.7 1.6 0.5
v 0.7 1.6 0.3
v 0.7 1.8 0.5
v 0.6 1.8 0.5
v 0.6 1.8 0.3
v 0.6 1.9 0.4
v 0.5 1.9 0.4
v 0.5 1.9 0.3
v 0.5 1.9 0.5
v 0.4 1.9 0.3
v 0.3 2 0.3
v 0.3 2 0.4
v 0.2 2 0.4
v 0.2 2 0.3
v -0.2 2 0.3
v -0.2 2 0.4
v -0.3 2 0.4
v -0.3 2 0.3
v -0.4 1.9 0.3
v -0.5 1.9 0.5
v -0.5 1.9 0.3
v -0.5 1.9 0.4
v -0.6 1.9 0.4
v -0.6 1.8 0.3
v -0.6 1.8 0.5
v -0.7 1.8 0.5
v -0.7 1.6 0.3
v -0.7 1.6 0.5
v -0.8 1.6 0.5
v -0.8 1.4 0.3
v -0.8 1.4 0.4
v -0.9 1.4 0.4
v -0.9 1.4 0.3
v 1 0.9 0.2
v 1 0.9 0.3
v 0.9 0.9 0.3
v 0.9 0.9 0.2
v 1 1.1 0.2
v 1 1.1 0.3
v 0.9 1.1 0.3
v 0.9 1.1 0.2
v 0.9 1.3 0.3
v 0.8 1.3 0.3
v 0.8 1.3 0.2
v 0.1 1.8 0.2
v 0.1 1.8 0.3
v 0 1.8 0.3
v 0 1.8 0.2
v -0.1 1.8 0.3
v -0.1 1.8 0.2
v -0.8 1.3 0.2
v -0.8 1.3 0.3
v -0.9 1.3 0.3
v -0.9 0.9 0.2
v -0.9 0.9 0.3
v -1 0.9 0.3
v -1 0.9 0.2
v -0.9 1.1 0.2
v -0.9 1.1 0.3
v -1 1.1 0.3
v -1 1.1 0.2
v 0.1 1.4 0.1
v 0.1 1.4 0.2
v -0.1 1.4 0.2
v -0.1 1.4 0.1
v 1 0.8 0
v 1 0.8 0.2
v 0.9 0.8 0.2
v 0.9 0.8 0
v 0.8 1.3 0
v 0.2 1.8 0
v 0.2 1.8 0.2
v 0.1 1.8 0
v 0.1 1 0
v 0.1 1 0.1
v 0 1 0.1
v 0 1 0
v -0.1 1 0.1
v -0.1 1 0
v -0.1 1.8 0
v -0.2 1.8 0.2
v -0.2 1.8 0
v -0.8 1.3 0
v -0.9 0.8 0
v -0.9 0.8 0.2
v -1 0.8 0.2
v -1 0.8 0
v 1 0.9 -0.1
v 1 0.9 0
v 0.9 0.9 0
v 0.9 0.9 -0.1
v 1 1.1 -0.1
v 1 1.1 0
v 0.9 1.1 0
v 0.9 1.1 -0.1
v 0.9 1.3 -0.1
v 0.8 1.3 -0.1
v 0.7 1.6 -0.1
v 0.6 1.8 -0.1
v 0.4 1.9 -0.1
v 0.2 2 -0.1
v 0.1 1.8 -0.1
v -0.1 1.8 -0.1
v -0.2 2 -0.1
v -0.4 1.9 -0.1
v -0.6 1.8 -0.1
v -0.7 1.6 -0.1
v -0.8 1.3 -0.1
v -0.9 1.3 -0.1
v -0.9 0.9 -0.1
v -0.9 0.9 0
v -1 0.9 0
v -1 0.9 -0.1
v -0.9 1.1 -0.1
v -0.9 1.1 0
v -1 1.1 0
v -1 1.1 -0.1
v 0.9 1.4 -0.2
v 0.9 1.4 -0.1
v 0.8 1.4 -0.1
v 0.8 1.4 -0.2
v 0.6 1.9 -0.2
v 0.4 1.9 -0.2
v 0.3 2 -0.2
v 0.3 2 -0.1
v 0.2 2 -0.2
v 0.1 0.7 -0.2
v 0.1 0.7 -0.1
v 0 0.7 -0.1
v 0 0.7 -0.2
v -0.1 0.7 -0.1
v -0.1 0.7 -0.2
v 0.2 0 -0.2
v 0.2 0 0.2
v -0.2 0 0.2
v -0.2 0 -0.2
v -0.2 2 -0.2
v -0.3 2 -0.1
v -0.3 2 -0.2
v -0.5 1.9 -0.2
v -0.5 1.9 -0.1
v -0.6 1.9 -0.2
v -0.8 1.4 -0.2
v -0.8 1.4 -0.1
v -0.9 1.4 -0.1
v -0.9 1.4 -0.2
v 0.8 1.6 -0.3
v 0.7 1.6 -0.3
v 0.7 1.8 -0.3
v 0.6 1.8 -0.3
v 0.5 1.9 -0.3
v 0.5 1.9 -0.2
v 0.4 1.9 -0.3
v -0.4 1.9 -0.3
v -0.5 1.9 -0.3
v -0.6 1.8 -0.3
v -0.7 1.8 -0.3
v -0.7 1.6 -0.3
v -0.8 1.6 -0.3
v 0.4 1.9 -0.4
v 0.2 1.9 -0.3
v 0.2 1.9 -0.4
v -0.3 1.9 -0.4
v -0.3 1.9 -0.3
v -0.4 1.9 -0.4
v 0.3 1.9 -0.5
v 0.3 1.9 -0.4
v -0.2 1.9 -0.3
v -0.3 1.9 -0.5
v 0.4 1.8 -0.6
v 0.4 1.8 -0.5
v 0.2 1.8 -0.5
v -0.2 1.8 -0.5
v -0.4 1.8 -0.5
v -0.4 1.8 -0.6
v 0.4 1.6 -0.7
v 0.4 1.6 -0.6
v 0.2 1.6 -0.6
v -0.2 1.6 -0.6
v -0.4 1.6 -0.6
v -0.4 1.6 -0.7
v 0.3 1.4 -0.8
v 0.3 1.4 -0.7
v 0.2 1.4 -0.7
v 0.2 1.4 -0.8
v 0.2 1.3 -0.8
v 0.2 1.3 -0.7
v 0.1 1.3 -0.7
v -0.1 1.3 -0.7
v -0.2 1.3 -0.7
v -0.2 1.3 -0.8
v -0.2 1.4 -0.8
v -0.2 1.4 -0.7
v -0.3 1.4 -0.7
v -0.3 1.4 -0.8
v 0.2 0.9 -0.9
v 0.2 0.9 -0.8
v 0.1 0.9 -0.8
v 0.1 0.9 -0.9
v 0.2 1.1 -0.9
v 0.2 1.1 -0.8
v 0.1 1.1 -0.8
v 0.1 1.1 -0.9
v 0.1 0.8 -0.9
v 0.1 0.8 -0.8
v -0.1 0.8 -0.8
v -0.1 0.8 -0.9
v -0.1 0.9 -0.9
v -0.1 0.9 -0.8
v -0.2 0.9 -0.8
v -0.2 0.9 -0.9
v -0.1 1.1 -0.9
v -0.1 1.1 -0.8
v -0.2 1.1 -0.8
v -0.2 1.1 -0.9
v -0.2 0.2 0.2
v -0.2 0.2 -0.2
v -0.2 0.3 0.2
v -0.2 0.3 -0.2
v -0.1 0.5 0.1
v -0.1 0.5 0
v -0.1 0.4 0
v -0.1 0.6 0
v -0.1 0.6 -0.1
v -0.1 0.7 0.1
v -0.1 0.7 0
v -0.1 1.1 0.1
v -0.1 1.1 -0.1
v -0.1 1.3 0.1
v -0.1 1.3 -0.1
v 0.7 1.7 0.3
v -0.8 1.7 0.3
v 0.7 1.6 -0.2
v -0.8 1.6 -0.2
v -0.1 1.9 0.3
v -0.1 1.9 0.2
v -0.2 1.9 0.2
v -0.2 1.9 0
v -0.1 1.9 0
v -0.1 1.9 -0.1
v -0.1 2 0.3
v -0.1 2 0.2
v -0.2 2 0.2
v -0.2 2 0
v -0.1 2 0
v -0.1 2 -0.1
v 0.2 2.1 0.2
v 0.2 2 0.2
v -0.1 2.1 0.3
v -0.1 2.1 0.2
v 0.2 2.1 0
v 0.2 2 0
v -0.1 2.1 0
v -0.1 2.1 -0.1
v -0.2 2.1 0
v -0.2 2.1 0.2
v 0.2 0.1 0.2
v 0.2 0.1 -0.2
v 0.2 0.2 0.2
v 0.2 0.2 -0.2
v 0.1 0.5 0.1
v 0.1 0.5 -0.1
v 0.1 0.6 0
v 0.1 0.5 0
v 0.1 0.6 -0.1
v 0.1 0.7 0.1
v 0.1 0.7 0
v 0.1 0.8 -0.1
v 0.1 0.8 -0.2
v 0.1 0.9 0
v 0.1 0.9 -0.2
v 0.1 0.9 -0.1
v 0.1 1.1 0.1
v 0.1 1.1 0
v 0.1 1.1 -0.1
v 0.1 1.2 0.1
v 0.1 1.2 0
v 0.1 1.3 0.1
v 0.1 1.3 0
v 0.1 1.3 -0.1
v 0.8 1.7 0.3
v -0.7 1.7 0.3
v 0.8 1.6 -0.2
v -0.7 1.6 -0.2
v 0.1 1.9 0.3
v 0.1 1.9 0.2
v 0.2 1.9 0.2
v 0.2 1.9 0
v 0.1 1.9 0
v 0.1 1.9 -0.1
v 0.1 2 0.3
v 0.1 2 0.2
v 0.1 2 0
v 0.1 2 -0.1
v 0.1 2.1 0.3
v 0.1 2.1 0.2
v 0.1 2.1 0
v 0.1 2.1 -0.1
v 0.2 1.7 0.8
v 0.2 1.7 -0.7
v 0.1 0.1 -0.2
v 0.1 0.2 -0.2
v 0.1 1.4 0.9
v 0.1 1.4 -0.8
v 0.1 1.5 0.9
v 0.1 1.5 -0.8
v 0 0.4 -0.1
v 0 0.5 -0.1
v 0 0.8 -0.2
v -0.1 0.5 -0.1
v -0.1 0.8 -0.2
v -0.2 0.1 -0.2
v 0.1 0.3 -0.2
v -0.2 1.7 0.8
v -0.2 1.7 -0.7
v 0.2 1.7 0.9
v 0.2 1.7 -0.6
v 0.1 1.4 1
v 0.1 1.4 -0.7
v 0.1 1.5 1
v 0.1 1.5 -0.7
v 0 0.1 0.2
v 0 0.2 0.2
v 0 0.4 0.2
v 0 0.9 0
v 0 1.1 0.1
v 0 1.2 0.1
v 0 1.9 0.3
v -0.1 0.9 0
v -0.1 1.2 0.1
v -0.2 0.1 0.2
v 0 0.3 0.2
v -0.2 1.7 0.9
v -0.2 1.7 -0.6

vt 0.00585938 0.5
vt 0.0449219 0.5
vt 0.0488281 0.5
vt 0.0683594 0.5
vt 0.0839844 0.5
vt 0.0996094 0.5

vn 0 1 0
vn 0 -1 0
vn -1 0 0
vn 1 0 0
vn 0 0 -1
vn 0 0 1

usemtl palette
f 1/3/1 2/3/1 4/3/1
f 4/3/1 2/3/1 3/3/1
f 5/3/1 6/3/1 8/3/1
f 8/3/1 6/3/1 7/3/1
f 9/3/1 10/3/1 12/3/1
f 12/3/1 10/3/1 11/3/1
f 13/3/1 14/3/1 16/3/1
f 16/3/1 14/3/1 15/3/1
f 17/3/1 18/3/1 20/3/1
f 20/3/1 18/3/1 19/3/1
f 21/3/1 22/3/1 24/3/1
f 24/3/1 22/3/1 23/3/1
f 25/3/1 26/3/1 28/3/1
f 28/3/1 26/3/1 27/3/1
f 26/2/1 29/2/1 27/2/1
f 27/2/1 29/2/1 30/2/1
f 29/3/1 31/3/1 30/3/1
f 30/3/1 31/3/1 32/3/1
f 33/3/1 34/3/1 36/3/1
f 36/3/1 34/3/1 35/3/1
f 37/3/1 38/3/1 40/3/1
f 40/3/1 38/3/1 39/3/1
f 41/3/1 42/3/1 44/3/1
f 44/3/1 42/3/1 43/3/1
f 42/2/1 45/2/1 43/2/1
f 43/2/1 45/2/1 46/2/1
f 45/3/1 47/3/1 46/3/1
f 46/3/1 47/3/1 48/3/1
f 49/3/1 50/3/1 52/3/1
f 52/3/1 50/3/1 51/3/1
f 53/3/1 54/3/1 56/3/1
f 56/3/1 54/3/1 55/3/1
f 54/2/1 57/2/1 55/2/1
f 55/2/1 57/2/1 58/2/1
f 57/3/1 59/3/1 58/3/1
f 58/3/1 59/3/1 60/3/1
f 61/3/1 62/3/1 64/3/1
f 64/3/1 62/3/1 63/3/1
f 62/3/1 65/3/1 67/3/1
f 67/3/1 65/3/1 66/3/1
f 65/2/1 68/2/1 66/2/1
f 66/2/1 68/2/1 69/2/1
f 68/3/1 70/3/1 69/3/1
f 69/3/1 70/3/1 71/3/1
f 70/3/1 72/3/1 74/3/1
f 74/3/1 72/3/1 73/3/1
f 75/3/1 76/3/1 78/3/1
f 78/3/1 76/3/1 77/3/1
f 79/3/1 80/3/1 82/3/1
f 82/3/1 80/3/1 81/3/1
f 83/3/1 84/3/1 86/3/1
f 86/3/1 84/3/1 85/3/1
f 87/3/1 88/3/1 90/3/1
f 90/3/1 88/3/1 89/3/1
f 91/3/1 92/3/1 94/3/1
f 94/3/1 92/3/1 93/3/1
f 95/3/1 96/3/1 98/3/1
f 98/3/1 96/3/1 97/3/1
f 96/3/1 99/3/1 100/3/1
f 100/3/1 99/3/1 61/3/1
f 101/3/1 102/3/1 104/3/1
f 104/3/1 102/3/1 103/3/1
f 102/2/1 105/2/1 107/2/1
f 107/2/1 105/2/1 106/2/1
f 105/3/1 108/3/1 110/3/1
f 110/3/1 108/3/1 109/3/1
f 111/3/1 112/3/1 72/3/1
f 72/3/1 112/3/1 113/3/1
f 112/3/1 114/3/1 116/3/1
f 116/3/1 114/3/1 115/3/1
f 117/3/1 118/3/1 120/3/1
f 120/3/1 118/3/1 119/3/1
f 121/3/1 122/3/1 124/3/1
f 124/3/1 122/3/1 123/3/1
f 125/3/1 126/3/1 128/3/1
f 128/3/1 126/3/1 127/3/1
f 129/3/1 130/3/1 132/3/1
f 132/3/1 130/3/1 131/3/1
f 133/3/1 134/3/1 136/3/1
f 136/3/1 134/3/1 135/3/1
f 137/3/1 138/3/1 140/3/1
f 140/3/1 138/3/1 139/3/1
f 141/3/1 142/3/1 144/3/1
f 144/3/1 142/3/1 143/3/1
f 145/3/1 146/3/1 148/3/1
f 148/3/1 146/3/1 147/3/1
f 149/3/1 150/3/1 152/3/1
f 152/3/1 150/3/1 151/3/1
f 153/5/1 154/5/1 156/5/1
f 156/5/1 154/5/1 155/5/1
f 157/3/1 158/3/1 160/3/1
f 160/3/1 158/3/1 159/3/1
f 161/2/1 162/2/1 137/2/1
f 137/2/1 162/2/1 138/2/1
f 163/6/1 164/6/1 166/6/1
f 166/6/1 164/6/1 165/6/1
f 167/1/1 168/1/1 170/1/1
f 170/1/1 168/1/1 169/1/1
f 171/6/1 172/6/1 174/6/1
f 174/6/1 172/6/1 173/6/1
f 175/2/1 176/2/1 141/2/1
f 141/2/1 176/2/1 142/2/1
f 177/3/1 178/3/1 180/3/1
f 180/3/1 178/3/1 179/3/1
f 181/3/1 182/3/1 184/3/1
f 184/3/1 182/3/1 183/3/1
f 185/3/1 186/3/1 188/3/1
f 188/3/1 186/3/1 187/3/1
f 189/3/1 190/3/1 161/3/1
f 161/3/1 190/3/1 162/3/1
f 191/2/1 192/2/1 87/2/1
f 87/2/1 192/2/1 88/2/1
f 193/2/1 194/2/1 91/2/1
f 91/2/1 194/2/1 92/2/1
f 195/2/1 196/2/1 95/2/1
f 95/2/1 196/2/1 99/2/1
f 197/2/1 198/2/1 199/2/1
f 199/2/1 198/2/1 102/2/1
f 200/1/1 201/1/1 203/1/1
f 203/1/1 201/1/1 202/1/1
f 204/6/1 205/6/1 207/6/1
f 207/6/1 205/6/1 206/6/1
f 208/2/1 209/2/1 105/2/1
f 105/2/1 209/2/1 210/2/1
f 211/2/1 212/2/1 111/2/1
f 111/2/1 212/2/1 114/2/1
f 213/2/1 214/2/1 117/2/1
f 117/2/1 214/2/1 118/2/1
f 215/2/1 216/2/1 121/2/1
f 121/2/1 216/2/1 122/2/1
f 217/3/1 218/3/1 175/3/1
f 175/3/1 218/3/1 176/3/1
f 219/3/1 220/3/1 222/3/1
f 222/3/1 220/3/1 221/3/1
f 223/3/1 224/3/1 226/3/1
f 226/3/1 224/3/1 225/3/1
f 227/3/1 228/3/1 230/3/1
f 230/3/1 228/3/1 229/3/1
f 231/3/1 232/3/1 191/3/1
f 191/3/1 232/3/1 192/3/1
f 233/3/1 234/3/1 195/3/1
f 195/3/1 234/3/1 196/3/1
f 235/3/1 236/3/1 237/3/1
f 237/3/1 236/3/1 198/3/1
f 238/5/1 239/5/1 240/5/1
f 240/5/1 239/5/1 156/5/1
f 239/5/1 241/5/1 243/5/1
f 243/5/1 241/5/1 242/5/1
f 244/5/1 245/5/1 247/5/1
f 247/5/1 245/5/1 246/5/1
f 241/5/1 248/5/1 249/5/1
f 249/5/1 248/5/1 154/5/1
f 250/3/1 251/3/1 208/3/1
f 208/3/1 251/3/1 252/3/1
f 253/3/1 254/3/1 255/3/1
f 255/3/1 254/3/1 212/3/1
f 256/3/1 257/3/1 215/3/1
f 215/3/1 257/3/1 216/3/1
f 258/3/1 259/3/1 261/3/1
f 261/3/1 259/3/1 260/3/1
f 262/3/1 263/3/1 265/3/1
f 265/3/1 263/3/1 264/3/1
f 266/3/1 267/3/1 193/3/1
f 193/3/1 267/3/1 194/3/1
f 268/3/1 269/3/1 270/3/1
f 270/3/1 269/3/1 234/3/1
f 271/2/1 272/2/1 198/2/1
f 198/2/1 272/2/1 208/2/1
f 273/3/1 274/3/1 211/3/1
f 211/3/1 274/3/1 255/3/1
f 275/3/1 276/3/1 213/3/1
f 213/3/1 276/3/1 214/3/1
f 277/3/1 278/3/1 280/3/1
f 280/3/1 278/3/1 279/3/1
f 281/3/1 282/3/1 269/3/1
f 269/3/1 282/3/1 283/3/1
f 284/3/1 285/3/1 286/3/1
f 286/3/1 285/3/1 273/3/1
f 287/3/1 288/3/1 289/3/1
f 289/3/1 288/3/1 282/3/1
f 288/2/1 290/2/1 283/2/1
f 283/2/1 290/2/1 291/2/1
f 290/3/1 292/3/1 291/3/1
f 291/3/1 292/3/1 286/3/1
f 293/3/1 294/3/1 296/3/1
f 296/3/1 294/3/1 295/3/1
f 294/2/1 297/2/1 295/2/1
f 295/2/1 297/2/1 298/2/1
f 297/3/1 299/3/1 298/3/1
f 298/3/1 299/3/1 300/3/1
f 301/3/1 302/3/1 304/3/1
f 304/3/1 302/3/1 303/3/1
f 305/3/1 306/3/1 308/3/1
f 308/3/1 306/3/1 307/3/1
f 306/2/1 309/2/1 307/2/1
f 307/2/1 309/2/1 310/2/1
f 309/3/1 311/3/1 310/3/1
f 310/3/1 311/3/1 312/3/1
f 313/3/1 314/3/1 316/3/1
f 316/3/1 314/3/1 315/3/1
f 317/3/1 318/3/1 320/3/1
f 320/3/1 318/3/1 319/3/1
f 321/3/1 322/3/1 324/3/1
f 324/3/1 322/3/1 323/3/1
f 322/2/1 325/2/1 323/2/1
f 323/2/1 325/2/1 326/2/1
f 325/3/1 327/3/1 326/3/1
f 326/3/1 327/3/1 328/3/1
f 329/3/1 330/3/1 332/3/1
f 332/3/1 330/3/1 331/3/1
f 333/3/1 334/3/1 336/3/1
f 336/3/1 334/3/1 335/3/1
f 337/3/1 338/3/1 340/3/1
f 340/3/1 338/3/1 339/3/1
f 341/3/1 342/3/1 344/3/1
f 344/3/1 342/3/1 343/3/1
f 345/3/1 346/3/1 348/3/1
f 348/3/1 346/3/1 347/3/1
f 349/3/1 350/3/1 352/3/1
f 352/3/1 350/3/1 351/3/1
f 353/3/2 354/3/2 356/3/2
f 356/3/2 354/3/2 355/3/2
f 357/3/2 358/3/2 360/3/2
f 360/3/2 358/3/2 359/3/2
f 361/3/2 362/3/2 364/3/2
f 364/3/2 362/3/2 363/3/2
f 365/3/2 366/3/2 368/3/2
f 368/3/2 366/3/2 367/3/2
f 369/3/2 370/3/2 372/3/2
f 372/3/2 370/3/2 371/3/2
f 373/3/2 374/3/2 376/3/2
f 376/3/2 374/3/2 375/3/2
f 377/3/2 378/3/2 379/3/2
f 379/3/2 378/3/2 9/3/2
f 379/2/2 9/2/2 380/2/2
f 380/2/2 9/2/2 10/2/2
f 380/3/2 10/3/2 382/3/2
f 382/3/2 10/3/2 381/3/2
f 383/3/2 384/3/2 386/3/2
f 386/3/2 384/3/2 385/3/2
f 387/3/2 388/3/2 389/3/2
f 389/3/2 388/3/2 25/3/2
f 389/2/2 25/2/2 390/2/2
f 390/2/2 25/2/2 31/2/2
f 390/3/2 31/3/2 392/3/2
f 392/3/2 31/3/2 391/3/2
f 393/3/2 394/3/2 395/3/2
f 395/3/2 394/3/2 42/3/2
f 395/2/2 42/2/2 396/2/2
f 396/2/2 42/2/2 45/2/2
f 396/3/2 45/3/2 398/3/2
f 398/3/2 45/3/2 397/3/2
f 399/3/2 400/3/2 402/3/2
f 402/3/2 400/3/2 401/3/2
f 402/3/2 403/3/2 404/3/2
f 404/3/2 403/3/2 54/3/2
f 404/2/2 54/2/2 405/2/2
f 405/2/2 54/2/2 57/2/2
f 405/3/2 57/3/2 407/3/2
f 407/3/2 57/3/2 406/3/2
f 407/3/2 408/3/2 410/3/2
f 410/3/2 408/3/2 409/3/2
f 411/3/2 412/3/2 414/3/2
f 414/3/2 412/3/2 413/3/2
f 139/3/2 415/3/2 417/3/2
f 417/3/2 415/3/2 416/3/2
f 88/3/2 418/3/2 420/3/2
f 420/3/2 418/3/2 419/3/2
f 92/3/2 421/3/2 423/3/2
f 423/3/2 421/3/2 422/3/2
f 423/3/2 424/3/2 425/3/2
f 425/3/2 424/3/2 399/3/2
f 426/3/2 427/3/2 429/3/2
f 429/3/2 427/3/2 428/3/2
f 429/2/2 65/2/2 430/2/2
f 430/2/2 65/2/2 68/2/2
f 430/3/2 431/3/2 433/3/2
f 433/3/2 431/3/2 432/3/2
f 434/3/2 410/3/2 436/3/2
f 436/3/2 410/3/2 435/3/2
f 436/3/2 437/3/2 117/3/2
f 117/3/2 437/3/2 438/3/2
f 439/3/2 440/3/2 121/3/2
f 121/3/2 440/3/2 441/3/2
f 442/3/2 443/3/2 144/3/2
f 144/3/2 443/3/2 444/3/2
f 445/3/2 446/3/2 448/3/2
f 448/3/2 446/3/2 447/3/2
f 449/3/2 450/3/2 452/3/2
f 452/3/2 450/3/2 451/3/2
f 453/3/2 454/3/2 456/3/2
f 456/3/2 454/3/2 455/3/2
f 159/3/2 457/3/2 459/3/2
f 459/3/2 457/3/2 458/3/2
f 460/4/2 461/4/2 463/4/2
f 463/4/2 461/4/2 462/4/2
f 463/5/2 462/5/2 465/5/2
f 465/5/2 462/5/2 464/5/2
f 466/3/2 467/3/2 180/3/2
f 180/3/2 467/3/2 468/3/2
f 469/3/2 470/3/2 472/3/2
f 472/3/2 470/3/2 471/3/2
f 473/3/2 474/3/2 476/3/2
f 476/3/2 474/3/2 475/3/2
f 477/5/2 478/5/2 480/5/2
f 480/5/2 478/5/2 479/5/2
f 481/3/2 482/3/2 484/3/2
f 484/3/2 482/3/2 483/3/2
f 158/2/2 159/2/2 485/2/2
f 485/2/2 159/2/2 459/2/2
f 486/4/2 487/4/2 488/4/2
f 488/4/2 487/4/2 460/4/2
f 489/5/2 490/5/2 492/5/2
f 492/5/2 490/5/2 491/5/2
f 492/1/2 491/1/2 494/1/2
f 494/1/2 491/1/2 493/1/2
f 495/5/2 465/5/2 497/5/2
f 497/5/2 465/5/2 496/5/2
f 498/2/2 466/2/2 177/2/2
f 177/2/2 466/2/2 180/2/2
f 499/3/2 500/3/2 502/3/2
f 502/3/2 500/3/2 501/3/2
f 503/3/2 504/3/2 506/3/2
f 506/3/2 504/3/2 505/3/2
f 507/3/2 508/3/2 510/3/2
f 510/3/2 508/3/2 509/3/2
f 511/3/2 158/3/2 512/3/2
f 512/3/2 158/3/2 485/3/2
f 190/2/2 139/2/2 513/2/2
f 513/2/2 139/2/2 417/2/2
f 192/2/2 88/2/2 514/2/2
f 514/2/2 88/2/2 420/2/2
f 194/2/2 92/2/2 515/2/2
f 515/2/2 92/2/2 425/2/2
f 196/2/2 99/2/2 516/2/2
f 516/2/2 99/2/2 429/2/2
f 517/5/2 488/5/2 518/5/2
f 518/5/2 488/5/2 495/5/2
f 519/2/2 430/2/2 211/2/2
f 211/2/2 430/2/2 111/2/2
f 520/2/2 434/2/2 213/2/2
f 213/2/2 434/2/2 117/2/2
f 521/2/2 439/2/2 215/2/2
f 215/2/2 439/2/2 121/2/2
f 522/2/2 442/2/2 217/2/2
f 217/2/2 442/2/2 144/2/2
f 523/3/2 498/3/2 524/3/2
f 524/3/2 498/3/2 177/3/2
f 525/3/2 526/3/2 528/3/2
f 528/3/2 526/3/2 527/3/2
f 529/3/2 530/3/2 532/3/2
f 532/3/2 530/3/2 531/3/2
f 533/3/2 534/3/2 536/3/2
f 536/3/2 534/3/2 535/3/2
f 537/3/2 194/3/2 538/3/2
f 538/3/2 194/3/2 515/3/2
f 539/3/2 540/3/2 541/3/2
f 541/3/2 540/3/2 516/3/2
f 542/1/2 543/1/2 545/1/2
f 545/1/2 543/1/2 544/1/2
f 545/5/2 544/5/2 547/5/2
f 547/5/2 544/5/2 546/5/2
f 548/5/2 549/5/2 551/5/2
f 551/5/2 549/5/2 550/5/2
f 552/3/2 519/3/2 554/3/2
f 554/3/2 519/3/2 553/3/2
f 555/3/2 556/3/2 557/3/2
f 557/3/2 556/3/2 213/3/2
f 558/3/2 559/3/2 561/3/2
f 561/3/2 559/3/2 560/3/2
f 562/3/2 190/3/2 563/3/2
f 563/3/2 190/3/2 513/3/2
f 564/3/2 192/3/2 565/3/2
f 565/3/2 192/3/2 514/3/2
f 566/3/2 567/3/2 568/3/2
f 568/3/2 567/3/2 538/3/2
f 283/2/2 516/2/2 291/2/2
f 291/2/2 516/2/2 519/2/2
f 569/3/2 520/3/2 570/3/2
f 570/3/2 520/3/2 556/3/2
f 571/3/2 521/3/2 572/3/2
f 572/3/2 521/3/2 215/3/2
f 573/3/2 522/3/2 574/3/2
f 574/3/2 522/3/2 217/3/2
f 575/3/2 568/3/2 577/3/2
f 577/3/2 568/3/2 576/3/2
f 578/3/2 579/3/2 580/3/2
f 580/3/2 579/3/2 569/3/2
f 581/3/2 582/3/2 295/3/2
f 295/3/2 582/3/2 577/3/2
f 295/2/2 576/2/2 298/2/2
f 298/2/2 576/2/2 583/2/2
f 298/3/2 583/3/2 584/3/2
f 584/3/2 583/3/2 579/3/2
f 585/3/2 586/3/2 307/3/2
f 307/3/2 586/3/2 587/3/2
f 307/2/2 587/2/2 310/2/2
f 310/2/2 587/2/2 588/2/2
f 310/3/2 588/3/2 590/3/2
f 590/3/2 588/3/2 589/3/2
f 591/3/2 592/3/2 324/3/2
f 324/3/2 592/3/2 593/3/2
f 324/2/2 593/2/2 328/2/2
f 328/2/2 593/2/2 594/2/2
f 328/3/2 594/3/2 596/3/2
f 596/3/2 594/3/2 595/3/2
f 597/3/2 598/3/2 600/3/2
f 600/3/2 598/3/2 599/3/2
f 601/3/2 602/3/2 344/3/2
f 344/3/2 602/3/2 603/3/2
f 344/2/2 603/2/2 343/2/2
f 343/2/2 603/2/2 604/2/2
f 343/3/2 604/3/2 606/3/2
f 606/3/2 604/3/2 605/3/2
f 607/3/2 608/3/2 610/3/2
f 610/3/2 608/3/2 609/3/2
f 611/3/2 612/3/2 614/3/2
f 614/3/2 612/3/2 613/3/2
f 615/3/2 616/3/2 618/3/2
f 618/3/2 616/3/2 617/3/2
f 619/3/2 620/3/2 622/3/2
f 622/3/2 620/3/2 621/3/2
f 623/3/2 624/3/2 626/3/2
f 626/3/2 624/3/2 625/3/2
f 627/3/2 628/3/2 630/3/2
f 630/3/2 628/3/2 629/3/2
f 631/5/3 632/5/3 550/5/3
f 550/5/3 632/5/3 551/5/3
f 633/1/3 634/1/3 631/1/3
f 631/1/3 634/1/3 632/1/3
f 155/5/3 248/5/3 633/5/3
f 633/5/3 248/5/3 634/5/3
f 635/1/3 636/1/3 249/1/3
f 249/1/3 636/1/3 637/1/3
f 638/5/3 639/5/3 637/5/3
f 637/5/3 639/5/3 242/5/3
f 640/5/3 641/5/3 635/5/3
f 635/5/3 641/5/3 636/5/3
f 641/1/3 546/1/3 638/1/3
f 638/1/3 546/1/3 639/1/3
f 169/1/3 168/1/3 640/1/3
f 640/1/3 168/1/3 641/1/3
f 366/3/3 365/3/3 363/3/3
f 363/3/3 365/3/3 364/3/3
f 624/3/3 623/3/3 621/3/3
f 621/3/3 623/3/3 622/3/3
f 15/3/3 14/3/3 367/3/3
f 367/3/3 14/3/3 368/3/3
f 131/3/3 130/3/3 451/3/3
f 451/3/3 130/3/3 452/3/3
f 147/3/3 146/3/3 471/3/3
f 471/3/3 146/3/3 472/3/3
f 183/3/3 182/3/3 505/3/3
f 505/3/3 182/3/3 506/3/3
f 221/3/3 220/3/3 527/3/3
f 527/3/3 220/3/3 528/3/3
f 494/5/3 245/5/3 641/5/3
f 641/5/3 245/5/3 547/5/3
f 347/3/3 346/3/3 625/3/3
f 625/3/3 346/3/3 626/3/3
f 370/3/3 369/3/3 16/3/3
f 16/3/3 369/3/3 13/3/3
f 642/1/3 643/1/3 493/1/3
f 493/1/3 643/1/3 246/1/3
f 628/3/3 627/3/3 348/3/3
f 348/3/3 627/3/3 345/3/3
f 19/3/3 18/3/3 371/3/3
f 371/3/3 18/3/3 372/3/3
f 135/3/3 134/3/3 455/3/3
f 455/3/3 134/3/3 456/3/3
f 151/3/3 150/3/3 475/3/3
f 475/3/3 150/3/3 476/3/3
f 187/3/3 186/3/3 509/3/3
f 509/3/3 186/3/3 510/3/3
f 225/3/3 224/3/3 531/3/3
f 531/3/3 224/3/3 532/3/3
f 351/3/3 350/3/3 629/3/3
f 629/3/3 350/3/3 630/3/3
f 11/3/3 10/3/3 20/3/3
f 20/3/3 10/3/3 17/3/3
f 159/3/3 158/3/3 483/3/3
f 483/3/3 158/3/3 484/3/3
f 179/3/3 178/3/3 501/3/3
f 501/3/3 178/3/3 502/3/3
f 644/5/3 645/5/3 642/5/3
f 642/5/3 645/5/3 643/5/3
f 343/3/3 342/3/3 352/3/3
f 352/3/3 342/3/3 349/3/3
f 384/3/3 383/3/3 381/3/3
f 381/3/3 383/3/3 382/3/3
f 480/1/3 201/1/3 644/1/3
f 644/1/3 201/1/3 645/1/3
f 608/3/3 607/3/3 605/3/3
f 605/3/3 607/3/3 606/3/3
f 35/3/3 34/3/3 385/3/3
f 385/3/3 34/3/3 386/3/3
f 85/3/3 84/3/3 413/3/3
f 413/3/3 84/3/3 414/3/3
f 127/3/3 126/3/3 447/3/3
f 447/3/3 126/3/3 448/3/3
f 229/3/3 228/3/3 535/3/3
f 535/3/3 228/3/3 536/3/3
f 260/3/3 259/3/3 560/3/3
f 560/3/3 259/3/3 561/3/3
f 331/3/3 330/3/3 609/3/3
f 609/3/3 330/3/3 610/3/3
f 32/3/3 31/3/3 36/3/3
f 36/3/3 31/3/3 33/3/3
f 139/3/3 138/3/3 458/3/3
f 458/3/3 138/3/3 459/3/3
f 143/3/3 142/3/3 468/3/3
f 468/3/3 142/3/3 180/3/3
f 138/2/3 162/2/3 459/2/3
f 459/2/3 162/2/3 485/2/3
f 142/2/3 176/2/3 180/2/3
f 180/2/3 176/2/3 177/2/3
f 162/3/3 190/3/3 485/3/3
f 485/3/3 190/3/3 512/3/3
f 176/3/3 218/3/3 177/3/3
f 177/3/3 218/3/3 524/3/3
f 328/3/3 327/3/3 332/3/3
f 332/3/3 327/3/3 329/3/3
f 51/3/3 50/3/3 391/3/3
f 391/3/3 50/3/3 392/3/3
f 77/3/3 646/3/3 416/3/3
f 416/3/3 646/3/3 417/3/3
f 81/3/3 647/3/3 444/3/3
f 444/3/3 647/3/3 144/3/3
f 264/3/3 263/3/3 648/3/3
f 648/3/3 263/3/3 563/3/3
f 279/3/3 278/3/3 649/3/3
f 649/3/3 278/3/3 574/3/3
f 315/3/3 314/3/3 595/3/3
f 595/3/3 314/3/3 596/3/3
f 48/3/3 47/3/3 52/3/3
f 52/3/3 47/3/3 49/3/3
f 89/3/3 88/3/3 76/3/3
f 76/3/3 88/3/3 646/3/3
f 123/3/3 122/3/3 80/3/3
f 80/3/3 122/3/3 647/3/3
f 465/5/3 495/5/3 479/5/3
f 479/5/3 495/5/3 202/5/3
f 88/2/3 192/2/3 417/2/3
f 417/2/3 192/2/3 513/2/3
f 122/2/3 216/2/3 144/2/3
f 144/2/3 216/2/3 217/2/3
f 192/3/3 232/3/3 513/3/3
f 513/3/3 232/3/3 648/3/3
f 216/3/3 257/3/3 217/3/3
f 217/3/3 257/3/3 649/3/3
f 312/3/3 311/3/3 316/3/3
f 316/3/3 311/3/3 313/3/3
f 60/3/3 59/3/3 397/3/3
f 397/3/3 59/3/3 398/3/3
f 93/3/3 92/3/3 419/3/3
f 419/3/3 92/3/3 420/3/3
f 119/3/3 118/3/3 441/3/3
f 441/3/3 118/3/3 121/3/3
f 650/5/3 651/5/3 464/5/3
f 464/5/3 651/5/3 465/5/3
f 652/5/3 653/5/3 496/5/3
f 496/5/3 653/5/3 497/5/3
f 92/2/3 194/2/3 420/2/3
f 420/2/3 194/2/3 514/2/3
f 654/5/3 655/5/3 495/5/3
f 495/5/3 655/5/3 518/5/3
f 118/2/3 214/2/3 121/2/3
f 121/2/3 214/2/3 215/2/3
f 194/3/3 267/3/3 514/3/3
f 514/3/3 267/3/3 565/3/3
f 214/3/3 276/3/3 215/3/3
f 215/3/3 276/3/3 572/3/3
f 300/3/3 299/3/3 589/3/3
f 589/3/3 299/3/3 590/3/3
f 71/3/3 74/3/3 406/3/3
f 406/3/3 74/3/3 408/3/3
f 73/3/3 72/3/3 409/3/3
f 409/3/3 72/3/3 410/3/3
f 113/3/3 116/3/3 435/3/3
f 435/3/3 116/3/3 437/3/3
f 61/3/3 99/3/3 399/3/3
f 399/3/3 99/3/3 425/3/3
f 115/3/3 114/3/3 438/3/3
f 438/3/3 114/3/3 117/3/3
f 656/1/3 657/1/3 650/1/3
f 650/1/3 657/1/3 651/1/3
f 658/1/3 659/1/3 652/1/3
f 652/1/3 659/1/3 653/1/3
f 99/2/3 196/2/3 425/2/3
f 425/2/3 196/2/3 515/2/3
f 660/1/3 661/1/3 654/1/3
f 654/1/3 661/1/3 655/1/3
f 114/2/3 212/2/3 117/2/3
f 117/2/3 212/2/3 213/2/3
f 212/3/3 254/3/3 213/3/3
f 213/3/3 254/3/3 557/3/3
f 196/3/3 269/3/3 515/3/3
f 515/3/3 269/3/3 568/3/3
f 253/3/3 274/3/3 555/3/3
f 555/3/3 274/3/3 570/3/3
f 273/3/3 285/3/3 569/3/3
f 569/3/3 285/3/3 580/3/3
f 284/3/3 292/3/3 578/3/3
f 578/3/3 292/3/3 584/3/3
f 106/2/3 110/2/3 68/2/3
f 68/2/3 110/2/3 431/2/3
f 109/3/3 108/3/3 432/3/3
f 432/3/3 108/3/3 433/3/3
f 102/2/3 662/2/3 429/2/3
f 429/2/3 662/2/3 663/2/3
f 664/2/3 665/2/3 656/2/3
f 656/2/3 665/2/3 657/2/3
f 666/2/3 198/2/3 667/2/3
f 667/2/3 198/2/3 516/2/3
f 668/2/3 669/2/3 660/2/3
f 660/2/3 669/2/3 661/2/3
f 210/2/3 209/2/3 111/2/3
f 111/2/3 209/2/3 211/2/3
f 252/3/3 251/3/3 553/3/3
f 553/3/3 251/3/3 554/3/3
f 250/2/3 272/2/3 552/2/3
f 552/2/3 272/2/3 291/2/3
f 206/6/3 174/6/3 664/6/3
f 664/6/3 174/6/3 665/6/3
f 173/6/3 172/6/3 671/6/3
f 671/6/3 172/6/3 670/6/3
f 171/6/3 205/6/3 668/6/3
f 668/6/3 205/6/3 669/6/3
f 672/5/4 549/5/4 673/5/4
f 673/5/4 549/5/4 548/5/4
f 674/1/4 672/1/4 675/1/4
f 675/1/4 672/1/4 673/1/4
f 240/5/4 674/5/4 238/5/4
f 238/5/4 674/5/4 675/5/4
f 676/1/4 153/1/4 677/1/4
f 677/1/4 153/1/4 243/1/4
f 678/5/4 679/5/4 680/5/4
f 680/5/4 679/5/4 677/5/4
f 681/5/4 676/5/4 682/5/4
f 682/5/4 676/5/4 679/5/4
f 170/1/4 681/1/4 167/1/4
f 167/1/4 681/1/4 682/1/4
f 167/1/4 678/1/4 683/1/4
f 683/1/4 678/1/4 680/1/4
f 683/1/4 543/1/4 684/1/4
f 684/1/4 543/1/4 542/1/4
f 355/3/4 362/3/4 356/3/4
f 356/3/4 362/3/4 361/3/4
f 685/5/4 167/5/4 686/5/4
f 686/5/4 167/5/4 684/5/4
f 613/3/4 620/3/4 614/3/4
f 614/3/4 620/3/4 619/3/4
f 4/3/4 354/3/4 1/3/4
f 1/3/4 354/3/4 353/3/4
f 132/3/4 450/3/4 129/3/4
f 129/3/4 450/3/4 449/3/4
f 148/3/4 470/3/4 145/3/4
f 145/3/4 470/3/4 469/3/4
f 184/3/4 504/3/4 181/3/4
f 181/3/4 504/3/4 503/3/4
f 222/3/4 526/3/4 219/3/4
f 219/3/4 526/3/4 525/3/4
f 247/5/4 687/5/4 244/5/4
f 244/5/4 687/5/4 686/5/4
f 336/3/4 612/3/4 333/3/4
f 333/3/4 612/3/4 611/3/4
f 359/3/4 3/3/4 360/3/4
f 360/3/4 3/3/4 2/3/4
f 688/5/4 490/5/4 689/5/4
f 689/5/4 490/5/4 489/5/4
f 689/1/4 685/1/4 690/1/4
f 690/1/4 685/1/4 687/1/4
f 617/3/4 335/3/4 618/3/4
f 618/3/4 335/3/4 334/3/4
f 8/3/4 358/3/4 5/3/4
f 5/3/4 358/3/4 357/3/4
f 136/3/4 454/3/4 133/3/4
f 133/3/4 454/3/4 453/3/4
f 152/3/4 474/3/4 149/3/4
f 149/3/4 474/3/4 473/3/4
f 691/1/4 688/1/4 692/1/4
f 692/1/4 688/1/4 689/1/4
f 188/3/4 508/3/4 185/3/4
f 185/3/4 508/3/4 507/3/4
f 226/3/4 530/3/4 223/3/4
f 223/3/4 530/3/4 529/3/4
f 340/3/4 616/3/4 337/3/4
f 337/3/4 616/3/4 615/3/4
f 12/3/4 7/3/4 9/3/4
f 9/3/4 7/3/4 6/3/4
f 160/3/4 482/3/4 157/3/4
f 157/3/4 482/3/4 481/3/4
f 693/5/4 691/5/4 694/5/4
f 694/5/4 691/5/4 692/5/4
f 180/3/4 500/3/4 177/3/4
f 177/3/4 500/3/4 499/3/4
f 694/5/4 689/5/4 695/5/4
f 695/5/4 689/5/4 690/5/4
f 344/3/4 339/3/4 341/3/4
f 341/3/4 339/3/4 338/3/4
f 375/3/4 378/3/4 376/3/4
f 376/3/4 378/3/4 377/3/4
f 477/1/4 693/1/4 200/1/4
f 200/1/4 693/1/4 695/1/4
f 599/3/4 602/3/4 600/3/4
f 600/3/4 602/3/4 601/3/4
f 24/3/4 374/3/4 21/3/4
f 21/3/4 374/3/4 373/3/4
f 86/3/4 412/3/4 83/3/4
f 83/3/4 412/3/4 411/3/4
f 128/3/4 446/3/4 125/3/4
f 125/3/4 446/3/4 445/3/4
f 230/3/4 534/3/4 227/3/4
f 227/3/4 534/3/4 533/3/4
f 261/3/4 559/3/4 258/3/4
f 258/3/4 559/3/4 558/3/4
f 320/3/4 598/3/4 317/3/4
f 317/3/4 598/3/4 597/3/4
f 28/3/4 23/3/4 25/3/4
f 25/3/4 23/3/4 22/3/4
f 140/3/4 457/3/4 137/3/4
f 137/3/4 457/3/4 159/3/4
f 144/3/4 467/3/4 141/3/4
f 141/3/4 467/3/4 466/3/4
f 137/2/4 159/2/4 161/2/4
f 161/2/4 159/2/4 158/2/4
f 141/2/4 466/2/4 175/2/4
f 175/2/4 466/2/4 498/2/4
f 161/3/4 158/3/4 189/3/4
f 189/3/4 158/3/4 511/3/4
f 175/3/4 498/3/4 217/3/4
f 217/3/4 498/3/4 523/3/4
f 324/3/4 319/3/4 321/3/4
f 321/3/4 319/3/4 318/3/4
f 40/3/4 388/3/4 37/3/4
f 37/3/4 388/3/4 387/3/4
f 78/3/4 415/3/4 696/3/4
f 696/3/4 415/3/4 139/3/4
f 82/3/4 443/3/4 697/3/4
f 697/3/4 443/3/4 442/3/4
f 265/3/4 698/3/4 262/3/4
f 262/3/4 698/3/4 562/3/4
f 280/3/4 699/3/4 277/3/4
f 277/3/4 699/3/4 573/3/4
f 304/3/4 592/3/4 301/3/4
f 301/3/4 592/3/4 591/3/4
f 44/3/4 39/3/4 41/3/4
f 41/3/4 39/3/4 38/3/4
f 90/3/4 75/3/4 87/3/4
f 87/3/4 75/3/4 696/3/4
f 124/3/4 79/3/4 121/3/4
f 121/3/4 79/3/4 697/3/4
f 460/5/4 478/5/4 488/5/4
f 488/5/4 478/5/4 203/5/4
f 87/2/4 139/2/4 191/2/4
f 191/2/4 139/2/4 190/2/4
f 121/2/4 442/2/4 215/2/4
f 215/2/4 442/2/4 522/2/4
f 191/3/4 190/3/4 231/3/4
f 231/3/4 190/3/4 698/3/4
f 215/3/4 522/3/4 256/3/4
f 256/3/4 522/3/4 699/3/4
f 308/3/4 303/3/4 305/3/4
f 305/3/4 303/3/4 302/3/4
f 56/3/4 394/3/4 53/3/4
f 53/3/4 394/3/4 393/3/4
f 94/3/4 418/3/4 91/3/4
f 91/3/4 418/3/4 88/3/4
f 120/3/4 440/3/4 117/3/4
f 117/3/4 440/3/4 439/3/4
f 700/4/4 461/4/4 701/4/4
f 701/4/4 461/4/4 460/4/4
f 702/4/4 487/4/4 703/4/4
f 703/4/4 487/4/4 486/4/4
f 91/2/4 88/2/4 193/2/4
f 193/2/4 88/2/4 192/2/4
f 704/5/4 488/5/4 705/5/4
f 705/5/4 488/5/4 517/5/4
f 117/2/4 439/2/4 213/2/4
f 213/2/4 439/2/4 521/2/4
f 193/3/4 192/3/4 266/3/4
f 266/3/4 192/3/4 564/3/4
f 213/3/4 521/3/4 275/3/4
f 275/3/4 521/3/4 571/3/4
f 296/3/4 586/3/4 293/3/4
f 293/3/4 586/3/4 585/3/4
f 67/3/4 403/3/4 63/3/4
f 63/3/4 403/3/4 401/3/4
f 64/3/4 400/3/4 61/3/4
f 61/3/4 400/3/4 399/3/4
f 100/3/4 424/3/4 97/3/4
f 97/3/4 424/3/4 422/3/4
f 98/3/4 421/3/4 95/3/4
f 95/3/4 421/3/4 92/3/4
f 72/3/4 410/3/4 111/3/4
f 111/3/4 410/3/4 434/3/4
f 706/1/4 700/1/4 707/1/4
f 707/1/4 700/1/4 701/1/4
f 663/1/4 702/1/4 667/1/4
f 667/1/4 702/1/4 703/1/4
f 95/2/4 92/2/4 195/2/4
f 195/2/4 92/2/4 194/2/4
f 708/1/4 704/1/4 709/1/4
f 709/1/4 704/1/4 705/1/4
f 111/2/4 434/2/4 211/2/4
f 211/2/4 434/2/4 520/2/4
f 195/3/4 194/3/4 233/3/4
f 233/3/4 194/3/4 537/3/4
f 270/3/4 567/3/4 268/3/4
f 268/3/4 567/3/4 566/3/4
f 211/3/4 520/3/4 273/3/4
f 273/3/4 520/3/4 569/3/4
f 269/3/4 568/3/4 281/3/4
f 281/3/4 568/3/4 575/3/4
f 289/3/4 582/3/4 287/3/4
f 287/3/4 582/3/4 581/3/4
f 107/2/4 65/2/4 103/2/4
f 103/2/4 65/2/4 428/2/4
f 104/3/4 427/3/4 101/3/4
f 101/3/4 427/3/4 426/3/4
f 710/2/4 706/2/4 711/2/4
f 711/2/4 706/2/4 707/2/4
f 105/2/4 430/2/4 671/2/4
f 671/2/4 430/2/4 658/2/4
f 199/2/4 99/2/4 197/2/4
f 197/2/4 99/2/4 196/2/4
f 712/2/4 708/2/4 713/2/4
f 713/2/4 708/2/4 709/2/4
f 670/2/4 659/2/4 208/2/4
f 208/2/4 659/2/4 519/2/4
f 237/3/4 540/3/4 235/3/4
f 235/3/4 540/3/4 539/3/4
f 236/2/4 541/2/4 271/2/4
f 271/2/4 541/2/4 283/2/4
f 207/6/4 710/6/4 165/6/4
f 165/6/4 710/6/4 711/6/4
f 166/6/4 662/6/4 163/6/4
f 163/6/4 662/6/4 666/6/4
f 164/6/4 712/6/4 204/6/4
f 204/6/4 712/6/4 713/6/4
f 484/3/5 505/3/5 481/3/5
f 481/3/5 505/3/5 504/3/5
f 506/3/5 182/3/5 503/3/5
f 503/3/5 182/3/5 181/3/5
f 183/3/5 509/3/5 184/3/5
f 184/3/5 509/3/5 508/3/5
f 510/3/5 186/3/5 507/3/5
f 507/3/5 186/3/5 185/3/5
f 187/3/5 158/3/5 188/3/5
f 188/3/5 158/3/5 157/3/5
f 512/3/5 535/3/5 511/3/5
f 511/3/5 535/3/5 534/3/5
f 536/3/5 228/3/5 533/3/5
f 533/3/5 228/3/5 227/3/5
f 229/3/5 190/3/5 230/3/5
f 230/3/5 190/3/5 189/3/5
f 563/3/5 263/3/5 562/3/5
f 562/3/5 263/3/5 262/3/5
f 264/3/5 232/3/5 265/3/5
f 265/3/5 232/3/5 231/3/5
f 565/3/5 267/3/5 564/3/5
f 564/3/5 267/3/5 266/3/5
f 567/3/5 270/3/5 537/3/5
f 537/3/5 270/3/5 233/3/5
f 568/3/5 269/3/5 566/3/5
f 566/3/5 269/3/5 268/3/5
f 582/3/5 289/3/5 575/3/5
f 575/3/5 289/3/5 281/3/5
f 540/2/5 237/2/5 196/2/5
f 196/2/5 237/2/5 197/2/5
f 389/3/5 714/3/5 387/3/5
f 387/3/5 714/3/5 37/3/5
f 324/3/5 715/3/5 591/3/5
f 591/3/5 715/3/5 301/3/5
f 714/3/5 42/3/5 38/3/5
f 38/3/5 42/3/5 41/3/5
f 715/3/5 306/3/5 302/3/5
f 302/3/5 306/3/5 305/3/5
f 395/3/5 54/3/5 393/3/5
f 393/3/5 54/3/5 53/3/5
f 307/3/5 294/3/5 585/3/5
f 585/3/5 294/3/5 293/3/5
f 404/3/5 65/3/5 399/3/5
f 399/3/5 65/3/5 61/3/5
f 295/3/5 288/3/5 581/3/5
f 581/3/5 288/3/5 287/3/5
f 541/3/5 236/3/5 539/3/5
f 539/3/5 236/3/5 235/3/5
f 716/1/5 717/1/5 673/1/5
f 673/1/5 717/1/5 675/1/5
f 717/5/5 239/5/5 675/5/5
f 675/5/5 239/5/5 238/5/5
f 379/3/5 718/3/5 377/3/5
f 377/3/5 718/3/5 376/3/5
f 344/3/5 719/3/5 601/3/5
f 601/3/5 719/3/5 600/3/5
f 718/3/5 720/3/5 373/3/5
f 373/3/5 720/3/5 21/3/5
f 719/3/5 721/3/5 597/3/5
f 597/3/5 721/3/5 317/3/5
f 720/3/5 26/3/5 22/3/5
f 22/3/5 26/3/5 25/3/5
f 721/3/5 322/3/5 318/3/5
f 318/3/5 322/3/5 321/3/5
f 488/4/5 704/4/5 486/4/5
f 486/4/5 704/4/5 703/4/5
f 704/1/5 708/1/5 703/1/5
f 703/1/5 708/1/5 667/1/5
f 706/2/5 710/2/5 429/2/5
f 429/2/5 710/2/5 102/2/5
f 708/2/5 712/2/5 667/2/5
f 667/2/5 712/2/5 666/2/5
f 712/6/5 164/6/5 666/6/5
f 666/6/5 164/6/5 163/6/5
f 722/1/5 723/1/5 243/1/5
f 243/1/5 723/1/5 677/1/5
f 545/1/5 724/1/5 542/1/5
f 542/1/5 724/1/5 684/1/5
f 242/5/5 725/5/5 722/5/5
f 722/5/5 725/5/5 723/5/5
f 725/5/5 639/5/5 677/5/5
f 677/5/5 639/5/5 680/5/5
f 639/1/5 546/1/5 680/1/5
f 680/1/5 546/1/5 543/1/5
f 547/5/5 726/5/5 545/5/5
f 545/5/5 726/5/5 724/5/5
f 364/3/5 365/3/5 361/3/5
f 361/3/5 365/3/5 356/3/5
f 622/3/5 623/3/5 619/3/5
f 619/3/5 623/3/5 614/3/5
f 726/5/5 245/5/5 684/5/5
f 684/5/5 245/5/5 244/5/5
f 13/3/5 369/3/5 2/3/5
f 2/3/5 369/3/5 360/3/5
f 246/1/5 643/1/5 247/1/5
f 247/1/5 643/1/5 690/1/5
f 345/3/5 627/3/5 334/3/5
f 334/3/5 627/3/5 618/3/5
f 17/3/5 10/3/5 6/3/5
f 6/3/5 10/3/5 9/3/5
f 643/5/5 645/5/5 690/5/5
f 690/5/5 645/5/5 695/5/5
f 349/3/5 342/3/5 338/3/5
f 338/3/5 342/3/5 341/3/5
f 645/1/5 201/1/5 695/1/5
f 695/1/5 201/1/5 200/1/5
f 380/2/5 29/2/5 379/2/5
f 379/2/5 29/2/5 26/2/5
f 343/2/5 325/2/5 344/2/5
f 344/2/5 325/2/5 322/2/5
f 202/5/5 495/5/5 203/5/5
f 203/5/5 495/5/5 488/5/5
f 518/5/5 655/5/5 517/5/5
f 517/5/5 655/5/5 705/5/5
f 655/1/5 661/1/5 705/1/5
f 705/1/5 661/1/5 709/1/5
f 669/6/5 205/6/5 713/6/5
f 713/6/5 205/6/5 204/6/5
f 551/5/5 727/5/5 548/5/5
f 548/5/5 727/5/5 673/5/5
f 727/5/5 632/5/5 716/5/5
f 716/5/5 632/5/5 717/5/5
f 632/1/5 634/1/5 717/1/5
f 717/1/5 634/1/5 728/1/5
f 634/5/5 248/5/5 728/5/5
f 728/5/5 248/5/5 239/5/5
f 368/3/5 14/3/5 353/3/5
f 353/3/5 14/3/5 1/3/5
f 626/3/5 346/3/5 611/3/5
f 611/3/5 346/3/5 333/3/5
f 372/3/5 18/3/5 357/3/5
f 357/3/5 18/3/5 5/3/5
f 630/3/5 350/3/5 615/3/5
f 615/3/5 350/3/5 337/3/5
f 382/3/5 31/3/5 380/3/5
f 380/3/5 31/3/5 29/3/5
f 606/3/5 327/3/5 343/3/5
f 343/3/5 327/3/5 325/3/5
f 390/2/5 45/2/5 389/2/5
f 389/2/5 45/2/5 42/2/5
f 328/2/5 309/2/5 324/2/5
f 324/2/5 309/2/5 306/2/5
f 396/2/5 57/2/5 395/2/5
f 395/2/5 57/2/5 54/2/5
f 497/5/5 653/5/5 495/5/5
f 495/5/5 653/5/5 654/5/5
f 310/2/5 297/2/5 307/2/5
f 307/2/5 297/2/5 294/2/5
f 405/2/5 68/2/5 404/2/5
f 404/2/5 68/2/5 65/2/5
f 653/1/5 659/1/5 654/1/5
f 654/1/5 659/1/5 660/1/5
f 298/2/5 290/2/5 295/2/5
f 295/2/5 290/2/5 288/2/5
f 430/2/5 105/2/5 656/2/5
f 656/2/5 105/2/5 664/2/5
f 659/2/5 670/2/5 660/2/5
f 660/2/5 670/2/5 668/2/5
f 291/2/5 272/2/5 283/2/5
f 283/2/5 272/2/5 271/2/5
f 670/6/5 172/6/5 668/6/5
f 668/6/5 172/6/5 171/6/5
f 386/3/5 34/3/5 383/3/5
f 383/3/5 34/3/5 33/3/5
f 610/3/5 330/3/5 607/3/5
f 607/3/5 330/3/5 329/3/5
f 49/3/5 47/3/5 729/3/5
f 729/3/5 47/3/5 45/3/5
f 313/3/5 311/3/5 730/3/5
f 730/3/5 311/3/5 309/3/5
f 584/3/5 292/3/5 298/3/5
f 298/3/5 292/3/5 290/3/5
f 554/3/5 251/3/5 552/3/5
f 552/3/5 251/3/5 250/3/5
f 392/3/5 50/3/5 390/3/5
f 390/3/5 50/3/5 729/3/5
f 596/3/5 314/3/5 328/3/5
f 328/3/5 314/3/5 730/3/5
f 398/3/5 59/3/5 396/3/5
f 396/3/5 59/3/5 57/3/5
f 590/3/5 299/3/5 310/3/5
f 310/3/5 299/3/5 297/3/5
f 410/3/5 72/3/5 405/3/5
f 405/3/5 72/3/5 68/3/5
f 580/3/5 285/3/5 578/3/5
f 578/3/5 285/3/5 284/3/5
f 211/2/5 209/2/5 553/2/5
f 553/2/5 209/2/5 252/2/5
f 570/3/5 274/3/5 569/3/5
f 569/3/5 274/3/5 273/3/5
f 557/3/5 254/3/5 555/3/5
f 555/3/5 254/3/5 253/3/5
f 572/3/5 276/3/5 571/3/5
f 571/3/5 276/3/5 275/3/5
f 574/3/5 278/3/5 573/3/5
f 573/3/5 278/3/5 277/3/5
f 279/3/5 257/3/5 280/3/5
f 280/3/5 257/3/5 256/3/5
f 524/3/5 560/3/5 523/3/5
f 523/3/5 560/3/5 559/3/5
f 561/3/5 259/3/5 558/3/5
f 558/3/5 259/3/5 258/3/5
f 260/3/5 218/3/5 261/3/5
f 261/3/5 218/3/5 217/3/5
f 502/3/5 527/3/5 499/3/5
f 499/3/5 527/3/5 526/3/5
f 528/3/5 220/3/5 525/3/5
f 525/3/5 220/3/5 219/3/5
f 221/3/5 531/3/5 222/3/5
f 222/3/5 531/3/5 530/3/5
f 532/3/5 224/3/5 529/3/5
f 529/3/5 224/3/5 223/3/5
f 225/3/5 178/3/5 226/3/5
f 226/3/5 178/3/5 177/3/5
f 483/3/6 482/3/6 452/3/6
f 452/3/6 482/3/6 449/3/6
f 451/3/6 450/3/6 131/3/6
f 131/3/6 450/3/6 132/3/6
f 130/3/6 129/3/6 456/3/6
f 456/3/6 129/3/6 453/3/6
f 455/3/6 454/3/6 135/3/6
f 135/3/6 454/3/6 136/3/6
f 134/3/6 133/3/6 159/3/6
f 159/3/6 133/3/6 160/3/6
f 458/3/6 457/3/6 414/3/6
f 414/3/6 457/3/6 411/3/6
f 413/3/6 412/3/6 85/3/6
f 85/3/6 412/3/6 86/3/6
f 84/3/6 83/3/6 139/3/6
f 139/3/6 83/3/6 140/3/6
f 416/3/6 415/3/6 77/3/6
f 77/3/6 415/3/6 78/3/6
f 76/3/6 75/3/6 89/3/6
f 89/3/6 75/3/6 90/3/6
f 419/3/6 418/3/6 93/3/6
f 93/3/6 418/3/6 94/3/6
f 422/3/6 421/3/6 97/3/6
f 97/3/6 421/3/6 98/3/6
f 399/3/6 424/3/6 61/3/6
f 61/3/6 424/3/6 100/3/6
f 401/3/6 400/3/6 63/3/6
f 63/3/6 400/3/6 64/3/6
f 426/2/6 99/2/6 101/2/6
f 101/2/6 99/2/6 199/2/6
f 25/3/6 388/3/6 731/3/6
f 731/3/6 388/3/6 40/3/6
f 593/3/6 592/3/6 732/3/6
f 732/3/6 592/3/6 304/3/6
f 731/3/6 39/3/6 43/3/6
f 43/3/6 39/3/6 44/3/6
f 732/3/6 303/3/6 307/3/6
f 307/3/6 303/3/6 308/3/6
f 42/3/6 394/3/6 55/3/6
f 55/3/6 394/3/6 56/3/6
f 587/3/6 586/3/6 295/3/6
f 295/3/6 586/3/6 296/3/6
f 54/3/6 403/3/6 66/3/6
f 66/3/6 403/3/6 67/3/6
f 576/3/6 568/3/6 283/3/6
f 283/3/6 568/3/6 269/3/6
f 428/3/6 427/3/6 103/3/6
f 103/3/6 427/3/6 104/3/6
f 9/3/6 378/3/6 733/3/6
f 733/3/6 378/3/6 375/3/6
f 603/3/6 602/3/6 734/3/6
f 734/3/6 602/3/6 599/3/6
f 733/3/6 374/3/6 735/3/6
f 735/3/6 374/3/6 24/3/6
f 734/3/6 598/3/6 736/3/6
f 736/3/6 598/3/6 320/3/6
f 735/3/6 23/3/6 27/3/6
f 27/3/6 23/3/6 28/3/6
f 736/3/6 319/3/6 323/3/6
f 323/3/6 319/3/6 324/3/6
f 460/4/6 487/4/6 701/4/6
f 701/4/6 487/4/6 702/4/6
f 701/1/6 702/1/6 707/1/6
f 707/1/6 702/1/6 663/1/6
f 707/2/6 663/2/6 711/2/6
f 711/2/6 663/2/6 662/2/6
f 709/2/6 516/2/6 713/2/6
f 713/2/6 516/2/6 198/2/6
f 711/6/6 662/6/6 165/6/6
f 165/6/6 662/6/6 166/6/6
f 737/1/6 672/1/6 738/1/6
f 738/1/6 672/1/6 674/1/6
f 738/5/6 674/5/6 739/5/6
f 739/5/6 674/5/6 240/5/6
f 740/1/6 685/1/6 492/1/6
f 492/1/6 685/1/6 489/1/6
f 491/5/6 490/5/6 741/5/6
f 741/5/6 490/5/6 688/5/6
f 741/1/6 688/1/6 742/1/6
f 742/1/6 688/1/6 691/1/6
f 462/4/6 461/4/6 743/4/6
f 743/4/6 461/4/6 700/4/6
f 249/1/6 153/1/6 635/1/6
f 635/1/6 153/1/6 676/1/6
f 635/5/6 676/5/6 640/5/6
f 640/5/6 676/5/6 681/5/6
f 640/1/6 681/1/6 169/1/6
f 169/1/6 681/1/6 170/1/6
f 363/3/6 362/3/6 366/3/6
f 366/3/6 362/3/6 355/3/6
f 168/5/6 167/5/6 744/5/6
f 744/5/6 167/5/6 685/5/6
f 621/3/6 620/3/6 624/3/6
f 624/3/6 620/3/6 613/3/6
f 744/5/6 740/5/6 494/5/6
f 494/5/6 740/5/6 492/5/6
f 16/3/6 3/3/6 370/3/6
f 370/3/6 3/3/6 359/3/6
f 493/1/6 491/1/6 642/1/6
f 642/1/6 491/1/6 741/1/6
f 348/3/6 335/3/6 628/3/6
f 628/3/6 335/3/6 617/3/6
f 642/5/6 741/5/6 745/5/6
f 745/5/6 741/5/6 742/5/6
f 20/3/6 7/3/6 11/3/6
f 11/3/6 7/3/6 12/3/6
f 745/5/6 691/5/6 644/5/6
f 644/5/6 691/5/6 693/5/6
f 352/3/6 339/3/6 343/3/6
f 343/3/6 339/3/6 344/3/6
f 644/1/6 693/1/6 480/1/6
f 480/1/6 693/1/6 477/1/6
f 10/2/6 9/2/6 30/2/6
f 30/2/6 9/2/6 27/2/6
f 604/2/6 603/2/6 326/2/6
f 326/2/6 603/2/6 323/2/6
f 479/5/6 478/5/6 465/5/6
f 465/5/6 478/5/6 460/5/6
f 464/5/6 462/5/6 650/5/6
f 650/5/6 462/5/6 743/5/6
f 650/1/6 700/1/6 656/1/6
f 656/1/6 700/1/6 706/1/6
f 664/6/6 710/6/6 206/6/6
f 206/6/6 710/6/6 207/6/6
f 550/5/6 549/5/6 746/5/6
f 746/5/6 549/5/6 672/5/6
f 746/5/6 737/5/6 631/5/6
f 631/5/6 737/5/6 738/5/6
f 631/1/6 738/1/6 633/1/6
f 633/1/6 738/1/6 747/1/6
f 633/5/6 747/5/6 155/5/6
f 155/5/6 747/5/6 739/5/6
f 367/3/6 354/3/6 15/3/6
f 15/3/6 354/3/6 4/3/6
f 625/3/6 612/3/6 347/3/6
f 347/3/6 612/3/6 336/3/6
f 371/3/6 358/3/6 19/3/6
f 19/3/6 358/3/6 8/3/6
f 629/3/6 616/3/6 351/3/6
f 351/3/6 616/3/6 340/3/6
f 381/3/6 10/3/6 32/3/6
f 32/3/6 10/3/6 30/3/6
f 605/3/6 604/3/6 328/3/6
f 328/3/6 604/3/6 326/3/6
f 31/2/6 25/2/6 46/2/6
f 46/2/6 25/2/6 43/2/6
f 594/2/6 593/2/6 310/2/6
f 310/2/6 593/2/6 307/2/6
f 45/2/6 42/2/6 58/2/6
f 58/2/6 42/2/6 55/2/6
f 496/5/6 465/5/6 652/5/6
f 652/5/6 465/5/6 651/5/6
f 588/2/6 587/2/6 298/2/6
f 298/2/6 587/2/6 295/2/6
f 57/2/6 54/2/6 69/2/6
f 69/2/6 54/2/6 66/2/6
f 652/1/6 651/1/6 658/1/6
f 658/1/6 651/1/6 657/1/6
f 583/2/6 576/2/6 291/2/6
f 291/2/6 576/2/6 283/2/6
f 68/2/6 65/2/6 106/2/6
f 106/2/6 65/2/6 107/2/6
f 658/2/6 657/2/6 671/2/6
f 671/2/6 657/2/6 665/2/6
f 519/2/6 661/2/6 208/2/6
f 208/2/6 661/2/6 669/2/6
f 671/6/6 665/6/6 173/6/6
f 173/6/6 665/6/6 174/6/6
f 385/3/6 384/3/6 35/3/6
f 35/3/6 384/3/6 36/3/6
f 609/3/6 608/3/6 331/3/6
f 331/3/6 608/3/6 332/3/6
f 52/3/6 748/3/6 48/3/6
f 48/3/6 748/3/6 46/3/6
f 316/3/6 749/3/6 312/3/6
f 312/3/6 749/3/6 310/3/6
f 406/3/6 57/3/6 71/3/6
f 71/3/6 57/3/6 69/3/6
f 432/3/6 431/3/6 109/3/6
f 109/3/6 431/3/6 110/3/6
f 391/3/6 31/3/6 51/3/6
f 51/3/6 31/3/6 748/3/6
f 595/3/6 594/3/6 315/3/6
f 315/3/6 594/3/6 749/3/6
f 397/3/6 45/3/6 60/3/6
f 60/3/6 45/3/6 58/3/6
f 589/3/6 588/3/6 300/3/6
f 300/3/6 588/3/6 298/3/6
f 409/3/6 408/3/6 73/3/6
f 73/3/6 408/3/6 74/3/6
f 569/3/6 583/3/6 273/3/6
f 273/3/6 583/3/6 291/3/6
f 111/2/6 433/2/6 210/2/6
f 210/2/6 433/2/6 108/2/6
f 435/3/6 410/3/6 113/3/6
f 113/3/6 410/3/6 72/3/6
f 438/3/6 437/3/6 115/3/6
f 115/3/6 437/3/6 116/3/6
f 441/3/6 440/3/6 119/3/6
f 119/3/6 440/3/6 120/3/6
f 444/3/6 443/3/6 81/3/6
f 81/3/6 443/3/6 82/3/6
f 80/3/6 79/3/6 123/3/6
f 123/3/6 79/3/6 124/3/6
f 468/3/6 467/3/6 448/3/6
f 448/3/6 467/3/6 445/3/6
f 447/3/6 446/3/6 127/3/6
f 127/3/6 446/3/6 128/3/6
f 126/3/6 125/3/6 143/3/6
f 143/3/6 125/3/6 144/3/6
f 501/3/6 500/3/6 472/3/6
f 472/3/6 500/3/6 469/3/6
f 471/3/6 470/3/6 147/3/6
f 147/3/6 470/3/6 148/3/6
f 146/3/6 145/3/6 476/3/6
f 476/3/6 145/3/6 473/3/6
f 475/3/6 474/3/6 151/3/6
f 151/3/6 474/3/6 152/3/6
f 150/3/6 149/3/6 179/3/6
f 179/3/6 149/3/6 180/3/6
