# Vengi binary mesh normalized for Tanks of Freedom II

mtllib ../../../materials/vox_grass.mtl
o palm_4

v 0.3 1.4 0.9
v 0.2 1.4 0.9
v 0.2 1.4 1
v 0.3 1.4 1
v 0.3 1.6 0.9
v 0.2 1.6 0.9
v 0.2 1.6 1
v 0.3 1.6 1
v 0.2 1.7 0.9
v 0 1.7 0.9
v 0 1.7 1
v 0.2 1.7 1
v 0 1.4 0.9
v -0.1 1.4 0.9
v -0.1 1.4 1
v 0 1.4 1
v 0 1.6 0.9
v -0.1 1.6 0.9
v -0.1 1.6 1
v 0 1.6 1
v 0.4 1.9 0.8
v 0.3 1.9 0.8
v 0.3 1.9 0.9
v 0.4 1.9 0.9
v 0.3 2 0.8
v 0.2 2 0.8
v 0.2 2 0.9
v 0.3 2 0.9
v 0 2 0.8
v 0 2 0.9
v -0.1 2 0.8
v -0.1 2 0.9
v -0.1 1.9 0.8
v -0.2 1.9 0.8
v -0.2 1.9 0.9
v -0.1 1.9 0.9
v 0.5 2.1 0.7
v 0.4 2.1 0.7
v 0.4 2.1 0.8
v 0.5 2.1 0.8
v 0.4 2.2 0.7
v 0.3 2.2 0.7
v 0.3 2.2 0.8
v 0.4 2.2 0.8
v -0.1 2.2 0.7
v -0.1 2.2 0.8
v -0.2 2.2 0.7
v -0.2 2.2 0.8
v -0.2 2.1 0.7
v -0.3 2.1 0.7
v -0.3 2.1 0.8
v -0.2 2.1 0.8
v 0.5 2.3 0.6
v 0.3 2.3 0.6
v 0.3 2.3 0.7
v 0.5 2.3 0.7
v -0.1 2.3 0.6
v -0.1 2.3 0.7
v -0.3 2.3 0.6
v -0.3 2.3 0.7
v 0.5 2.4 0.4
v 0.4 2.4 0.4
v 0.4 2.4 0.5
v 0.5 2.4 0.5
v 0.3 2.4 0.4
v 0.3 2.4 0.6
v 0.4 2.4 0.6
v -0.1 2.4 0.4
v -0.1 2.4 0.6
v -0.2 2.4 0.4
v -0.2 2.4 0.6
v -0.3 2.4 0.4
v -0.3 2.4 0.5
v -0.2 2.4 0.5
v 0.9 2.1 0.3
v 0.8 2.1 0.3
v 0.8 2.1 0.4
v 0.9 2.1 0.4
v -0.6 2.1 0.3
v -0.7 2.1 0.3
v -0.7 2.1 0.4
v -0.6 2.1 0.4
v 1 1.9 0.2
v 0.9 1.9 0.2
v 0.9 1.9 0.3
v 1 1.9 0.3
v 0.9 2.2 0.2
v 0.8 2.2 0.2
v 0.8 2.2 0.3
v 0.9 2.2 0.3
v 0.8 2.3 0.2
v 0.7 2.3 0.2
v 0.7 2.3 0.4
v 0.8 2.3 0.4
v 0.7 2.4 0.2
v 0.6 2.4 0.2
v 0.6 2.4 0.3
v 0.7 2.4 0.3
v 0.5 2.4 0.2
v 0.6 2.4 0.4
v 0.4 2.5 0.2
v 0.3 2.5 0.2
v 0.3 2.5 0.3
v 0.4 2.5 0.3
v -0.1 2.5 0.2
v -0.1 2.5 0.4
v 0.3 2.5 0.4
v -0.2 2.5 0.2
v -0.2 2.5 0.3
v -0.1 2.5 0.3
v -0.3 2.4 0.2
v -0.4 2.4 0.2
v -0.4 2.4 0.4
v -0.5 2.4 0.2
v -0.5 2.4 0.3
v -0.4 2.4 0.3
v -0.5 2.3 0.2
v -0.6 2.3 0.2
v -0.6 2.3 0.4
v -0.5 2.3 0.4
v -0.6 2.2 0.2
v -0.7 2.2 0.2
v -0.7 2.2 0.3
v -0.6 2.2 0.3
v -0.7 1.9 0.2
v -0.8 1.9 0.2
v -0.8 1.9 0.3
v -0.7 1.9 0.3
v 1.1 1.4 0.1
v 1 1.4 0.1
v 1 1.4 0.2
v 1.1 1.4 0.2
v 1.1 1.6 0.1
v 1 1.6 0.1
v 1 1.6 0.2
v 1.1 1.6 0.2
v 1 2 0.1
v 0.9 2 0.1
v 0.9 2 0.2
v 1 2 0.2
v 0.1 0.4 0.1
v -0.2 0.4 0.1
v -0.2 0.4 0.2
v 0.1 0.4 0.2
v -0.7 2 0.1
v -0.8 2 0.1
v -0.8 2 0.2
v -0.7 2 0.2
v -0.8 1.4 0.1
v -0.9 1.4 0.1
v -0.9 1.4 0.2
v -0.8 1.4 0.2
v -0.8 1.6 0.1
v -0.9 1.6 0.1
v -0.9 1.6 0.2
v -0.8 1.6 0.2
v 1.1 1.7 -0.1
v 1 1.7 -0.1
v 1 1.7 0.1
v 1.1 1.7 0.1
v 1 2 -0.1
v 0.9 2 -0.1
v 0.3 2.6 -0.1
v 0.2 2.6 -0.1
v 0.2 2.6 0.1
v 0.3 2.6 0.1
v 0.1 0.8 -0.1
v 0 0.8 -0.1
v 0 0.8 0.1
v 0.1 0.8 0.1
v 0 1.6 -0.1
v -0.1 1.6 -0.1
v -0.1 1.6 0.1
v 0 1.6 0.1
v 0 2.6 -0.1
v -0.1 2.6 -0.1
v -0.1 2.6 0.1
v 0 2.6 0.1
v -0.1 1.2 -0.1
v -0.2 1.2 -0.1
v -0.2 1.2 0.1
v -0.1 1.2 0.1
v -0.7 2 -0.1
v -0.8 2 -0.1
v -0.8 1.7 -0.1
v -0.9 1.7 -0.1
v -0.9 1.7 0.1
v -0.8 1.7 0.1
v 1.1 1.4 -0.2
v 1 1.4 -0.2
v 1 1.4 -0.1
v 1.1 1.4 -0.1
v 1.1 1.6 -0.2
v 1 1.6 -0.2
v 1 1.6 -0.1
v 1.1 1.6 -0.1
v 1 2 -0.2
v 0.9 2 -0.2
v 0.9 2.2 -0.2
v 0.8 2.2 -0.2
v 0.8 2.3 -0.2
v 0.7 2.3 -0.2
v 0.7 2.4 -0.2
v 0.5 2.4 -0.2
v 0.5 2.5 -0.2
v 0.3 2.5 -0.2
v 0.5 2.5 0.2
v 0.2 0.4 -0.2
v 0.1 0.4 -0.2
v 0.2 0.4 0.2
v 0.2 2.6 -0.2
v 0 2.6 -0.2
v 0 2.6 0.2
v 0.2 2.6 0.2
v -0.1 0.4 -0.2
v -0.1 0.4 -0.1
v 0.1 0.4 -0.1
v -0.2 0.4 -0.2
v -0.1 0.4 0.1
v -0.1 2.5 -0.2
v -0.3 2.5 -0.2
v -0.3 2.5 0.2
v -0.3 2.4 -0.2
v -0.5 2.4 -0.2
v -0.5 2.3 -0.2
v -0.6 2.3 -0.2
v -0.6 2.2 -0.2
v -0.7 2.2 -0.2
v -0.7 2 -0.2
v -0.8 2 -0.2
v -0.8 1.4 -0.2
v -0.9 1.4 -0.2
v -0.9 1.4 -0.1
v -0.8 1.4 -0.1
v -0.8 1.6 -0.2
v -0.9 1.6 -0.2
v -0.9 1.6 -0.1
v -0.8 1.6 -0.1
v 1 1.9 -0.3
v 0.9 1.9 -0.3
v 0.9 1.9 -0.2
v 1 1.9 -0.2
v 0.9 2.2 -0.3
v 0.8 2.2 -0.3
v 0.7 2.4 -0.3
v 0.5 2.4 -0.3
v 0.4 2.5 -0.3
v 0.3 2.5 -0.3
v 0.4 2.5 -0.2
v -0.1 2.5 -0.3
v -0.2 2.5 -0.3
v -0.2 2.5 -0.2
v -0.4 2.4 -0.3
v -0.5 2.4 -0.3
v -0.4 2.4 -0.2
v -0.6 2.2 -0.3
v -0.7 2.2 -0.3
v -0.7 1.9 -0.3
v -0.8 1.9 -0.3
v -0.8 1.9 -0.2
v -0.7 1.9 -0.2
v 0.9 2.1 -0.4
v 0.8 2.1 -0.4
v 0.8 2.1 -0.3
v 0.9 2.1 -0.3
v 0.8 2.3 -0.4
v 0.7 2.3 -0.4
v 0.6 2.4 -0.4
v 0.5 2.4 -0.4
v 0.6 2.4 -0.3
v 0.3 2.5 -0.4
v -0.1 2.5 -0.4
v -0.3 2.4 -0.4
v -0.4 2.4 -0.4
v -0.5 2.3 -0.4
v -0.6 2.3 -0.4
v -0.6 2.1 -0.4
v -0.7 2.1 -0.4
v -0.7 2.1 -0.3
v -0.6 2.1 -0.3
v 0.5 2.4 -0.5
v 0.3 2.4 -0.5
v 0.3 2.4 -0.4
v -0.2 2.4 -0.5
v -0.3 2.4 -0.5
v -0.2 2.4 -0.4
v 0.4 2.4 -0.6
v 0.3 2.4 -0.6
v 0.4 2.4 -0.5
v -0.1 2.4 -0.6
v -0.1 2.4 -0.4
v -0.2 2.4 -0.6
v 0.5 2.3 -0.7
v 0.3 2.3 -0.7
v 0.3 2.3 -0.6
v 0.5 2.3 -0.6
v -0.1 2.3 -0.7
v -0.1 2.3 -0.6
v -0.3 2.3 -0.7
v -0.3 2.3 -0.6
v 0.5 2.1 -0.8
v 0.4 2.1 -0.8
v 0.4 2.1 -0.7
v 0.5 2.1 -0.7
v 0.4 2.2 -0.8
v 0.3 2.2 -0.8
v 0.3 2.2 -0.7
v 0.4 2.2 -0.7
v -0.1 2.2 -0.8
v -0.1 2.2 -0.7
v -0.2 2.2 -0.8
v -0.2 2.2 -0.7
v -0.2 2.1 -0.8
v -0.3 2.1 -0.8
v -0.3 2.1 -0.7
v -0.2 2.1 -0.7
v 0.4 1.9 -0.9
v 0.3 1.9 -0.9
v 0.3 1.9 -0.8
v 0.4 1.9 -0.8
v 0.3 2 -0.9
v 0.2 2 -0.9
v 0.2 2 -0.8
v 0.3 2 -0.8
v 0 2 -0.9
v 0 2 -0.8
v -0.1 2 -0.9
v -0.1 2 -0.8
v -0.1 1.9 -0.9
v -0.2 1.9 -0.9
v -0.2 1.9 -0.8
v -0.1 1.9 -0.8
v 0.3 1.4 -1
v 0.2 1.4 -1
v 0.2 1.4 -0.9
v 0.3 1.4 -0.9
v 0.3 1.6 -1
v 0.2 1.6 -1
v 0.2 1.6 -0.9
v 0.3 1.6 -0.9
v 0.2 1.7 -1
v 0 1.7 -1
v 0 1.7 -0.9
v 0.2 1.7 -0.9
v 0 1.4 -1
v -0.1 1.4 -1
v -0.1 1.4 -0.9
v 0 1.4 -0.9
v 0 1.6 -1
v -0.1 1.6 -1
v -0.1 1.6 -0.9
v 0 1.6 -0.9
v 0.3 1.3 0.9
v 0.3 1.3 1
v 0.2 1.3 1
v 0.2 1.3 0.9
v 0.3 1.5 0.9
v 0.3 1.5 1
v 0.2 1.5 1
v 0.2 1.5 0.9
v 0.2 1.2 0.9
v 0.2 1.2 1
v 0 1.2 1
v 0 1.2 0.9
v 0 1.3 0.9
v 0 1.3 1
v -0.1 1.3 1
v -0.1 1.3 0.9
v 0 1.5 0.9
v 0 1.5 1
v -0.1 1.5 1
v -0.1 1.5 0.9
v 0.4 1.8 0.8
v 0.4 1.8 0.9
v 0.3 1.8 0.9
v 0.3 1.8 0.8
v 0.3 1.7 0.8
v 0.3 1.7 0.9
v 0.2 1.7 0.8
v 0 1.7 0.8
v -0.1 1.7 0.9
v -0.1 1.7 0.8
v -0.1 1.8 0.8
v -0.1 1.8 0.9
v -0.2 1.8 0.9
v -0.2 1.8 0.8
v 0.5 2 0.7
v 0.5 2 0.8
v 0.3 2 0.7
v -0.1 2 0.7
v -0.3 2 0.8
v -0.3 2 0.7
v 0.5 2.2 0.6
v 0.5 2.2 0.7
v 0.3 2.2 0.6
v -0.1 2.2 0.6
v -0.3 2.2 0.7
v -0.3 2.2 0.6
v 0.5 2.3 0.4
v 0.5 2.3 0.5
v 0.4 2.3 0.5
v 0.4 2.3 0.4
v 0.4 2.3 0.6
v 0.3 2.3 0.4
v -0.1 2.3 0.4
v -0.2 2.3 0.6
v -0.2 2.3 0.4
v -0.2 2.3 0.5
v -0.3 2.3 0.5
v -0.3 2.3 0.4
v 1 1.8 0.2
v 1 1.8 0.3
v 0.9 1.8 0.3
v 0.9 1.8 0.2
v 0.9 2 0.4
v 0.8 2 0.4
v 0.8 2 0.2
v 0.8 2.2 0.4
v 0.7 2.2 0.4
v 0.7 2.2 0.2
v 0.7 2.3 0.3
v 0.6 2.3 0.3
v 0.6 2.3 0.2
v 0.6 2.3 0.4
v 0.5 2.3 0.2
v 0.4 2.4 0.2
v 0.4 2.4 0.3
v 0.3 2.4 0.3
v 0.3 2.4 0.2
v -0.1 2.4 0.2
v -0.1 2.4 0.3
v -0.2 2.4 0.3
v -0.2 2.4 0.2
v -0.3 2.3 0.2
v -0.4 2.3 0.4
v -0.4 2.3 0.2
v -0.4 2.3 0.3
v -0.5 2.3 0.3
v -0.5 2.2 0.2
v -0.5 2.2 0.4
v -0.6 2.2 0.4
v -0.6 2 0.2
v -0.6 2 0.4
v -0.7 2 0.4
v -0.7 1.8 0.2
v -0.7 1.8 0.3
v -0.8 1.8 0.3
v -0.8 1.8 0.2
v 1.1 1.3 0.1
v 1.1 1.3 0.2
v 1 1.3 0.2
v 1 1.3 0.1
v 1.1 1.5 0.1
v 1.1 1.5 0.2
v 1 1.5 0.2
v 1 1.5 0.1
v 1 1.7 0.2
v 0.9 1.7 0.2
v 0.9 1.7 0.1
v 0.2 2.2 0.1
v 0.2 2.2 0.2
v 0.1 2.2 0.2
v 0.1 2.2 0.1
v 0 2.2 0.2
v 0 2.2 0.1
v 0.1 0 0.1
v 0.1 0 0.2
v -0.2 0 0.2
v -0.2 0 0.1
v -0.7 1.7 0.1
v -0.7 1.7 0.2
v -0.8 1.7 0.2
v -0.8 1.3 0.1
v -0.8 1.3 0.2
v -0.9 1.3 0.2
v -0.9 1.3 0.1
v -0.8 1.5 0.1
v -0.8 1.5 0.2
v -0.9 1.5 0.2
v -0.9 1.5 0.1
v 1.1 1.2 -0.1
v 1.1 1.2 0.1
v 1 1.2 0.1
v 1 1.2 -0.1
v 0.9 1.7 -0.1
v 0.3 2.2 -0.1
v 0.3 2.2 0.1
v 0.2 2.2 -0.1
v 0.2 1.6 -0.1
v 0.2 1.6 0.1
v 0.1 1.6 0.1
v 0.1 1.6 -0.1
v 0.1 1.2 -0.1
v 0.1 1.2 0.1
v 0 1.2 0.1
v 0 1.2 -0.1
v 0.1 0 -0.1
v -0.1 0 0.1
v -0.1 0 -0.1
v 0 2.2 -0.1
v -0.1 2.2 0.1
v -0.1 2.2 -0.1
v -0.1 0.8 -0.1
v -0.1 0.8 0.1
v -0.2 0.8 0.1
v -0.2 0.8 -0.1
v -0.7 1.7 -0.1
v -0.8 1.2 -0.1
v -0.8 1.2 0.1
v -0.9 1.2 0.1
v -0.9 1.2 -0.1
v 1.1 1.3 -0.2
v 1.1 1.3 -0.1
v 1 1.3 -0.1
v 1 1.3 -0.2
v 1.1 1.5 -0.2
v 1.1 1.5 -0.1
v 1 1.5 -0.1
v 1 1.5 -0.2
v 1 1.7 -0.2
v 0.9 1.7 -0.2
v 0.8 2 -0.2
v 0.7 2.2 -0.2
v 0.5 2.3 -0.2
v 0.3 2.4 -0.2
v 0.2 0 -0.2
v 0.2 0 0.2
v 0.1 0 -0.2
v 0.2 2.2 -0.2
v 0 2.2 -0.2
v -0.1 0 -0.2
v -0.2 0 -0.2
v -0.1 2.4 -0.2
v -0.3 2.3 -0.2
v -0.5 2.2 -0.2
v -0.6 2 -0.2
v -0.7 1.7 -0.2
v -0.8 1.7 -0.2
v -0.8 1.3 -0.2
v -0.8 1.3 -0.1
v -0.9 1.3 -0.1
v -0.9 1.3 -0.2
v -0.8 1.5 -0.2
v -0.8 1.5 -0.1
v -0.9 1.5 -0.1
v -0.9 1.5 -0.2
v 1 1.8 -0.3
v 1 1.8 -0.2
v 0.9 1.8 -0.2
v 0.9 1.8 -0.3
v 0.7 2.3 -0.3
v 0.5 2.3 -0.3
v 0.4 2.4 -0.3
v 0.4 2.4 -0.2
v 0.3 2.4 -0.3
v -0.1 2.4 -0.3
v -0.2 2.4 -0.2
v -0.2 2.4 -0.3
v -0.4 2.3 -0.3
v -0.4 2.3 -0.2
v -0.5 2.3 -0.3
v -0.7 1.8 -0.3
v -0.7 1.8 -0.2
v -0.8 1.8 -0.2
v -0.8 1.8 -0.3
v 0.9 2 -0.4
v 0.8 2 -0.4
v 0.8 2.2 -0.4
v 0.7 2.2 -0.4
v 0.6 2.3 -0.4
v 0.6 2.3 -0.3
v 0.5 2.3 -0.4
v -0.3 2.3 -0.4
v -0.4 2.3 -0.4
v -0.5 2.2 -0.4
v -0.6 2.2 -0.4
v -0.6 2 -0.4
v -0.7 2 -0.4
v 0.5 2.3 -0.5
v 0.3 2.3 -0.4
v 0.3 2.3 -0.5
v -0.2 2.3 -0.5
v -0.2 2.3 -0.4
v -0.3 2.3 -0.5
v 0.4 2.3 -0.6
v 0.4 2.3 -0.5
v -0.1 2.3 -0.4
v -0.2 2.3 -0.6
v 0.5 2.2 -0.7
v 0.5 2.2 -0.6
v 0.3 2.2 -0.6
v -0.1 2.2 -0.6
v -0.3 2.2 -0.6
v -0.3 2.2 -0.7
v 0.5 2 -0.8
v 0.5 2 -0.7
v 0.3 2 -0.7
v -0.1 2 -0.7
v -0.3 2 -0.7
v -0.3 2 -0.8
v 0.4 1.8 -0.9
v 0.4 1.8 -0.8
v 0.3 1.8 -0.8
v 0.3 1.8 -0.9
v 0.3 1.7 -0.9
v 0.3 1.7 -0.8
v 0.2 1.7 -0.8
v 0 1.7 -0.8
v -0.1 1.7 -0.8
v -0.1 1.7 -0.9
v -0.1 1.8 -0.9
v -0.1 1.8 -0.8
v -0.2 1.8 -0.8
v -0.2 1.8 -0.9
v 0.3 1.3 -1
v 0.3 1.3 -0.9
v 0.2 1.3 -0.9
v 0.2 1.3 -1
v 0.3 1.5 -1
v 0.3 1.5 -0.9
v 0.2 1.5 -0.9
v 0.2 1.5 -1
v 0.2 1.2 -1
v 0.2 1.2 -0.9
v 0 1.2 -0.9
v 0 1.2 -1
v 0 1.3 -1
v 0 1.3 -0.9
v -0.1 1.3 -0.9
v -0.1 1.3 -1
v 0 1.5 -1
v 0 1.5 -0.9
v -0.1 1.5 -0.9
v -0.1 1.5 -1
v -0.2 0.1 0.2
v -0.2 0.1 -0.2
v -0.2 0.2 0.2
v -0.2 0.2 0
v -0.2 0.1 0
v -0.2 0.2 -0.1
v -0.2 0.2 -0.2
v -0.2 0.1 -0.1
v -0.2 0.3 0.2
v -0.2 0.3 0
v -0.2 0.3 -0.1
v -0.2 0.4 -0.1
v -0.1 0.5 0.1
v -0.1 0.5 0
v -0.1 0.4 0
v -0.1 0.5 -0.1
v -0.1 0.6 0.1
v -0.1 0.6 0
v -0.1 0.6 -0.1
v -0.1 0.7 0.1
v -0.1 0.7 0
v -0.1 0.8 0
v -0.2 0.9 0
v -0.2 0.9 -0.1
v -0.2 0.8 0
v -0.2 1 0.1
v -0.2 1 0
v -0.2 1 -0.1
v -0.2 1.1 0.1
v -0.2 1.1 0
v -0.2 1.1 -0.1
v -0.1 1.3 0.1
v -0.1 1.3 -0.1
v -0.1 1.4 0.1
v -0.1 1.4 -0.1
v -0.1 1.5 0.1
v -0.1 1.5 -0.1
v 0 1.7 0
v 0 1.7 -0.1
v 0 1.6 0
v 0 1.8 0.1
v 0 1.8 0
v 0 1.8 -0.1
v 0 1.9 0.1
v 0 1.9 -0.1
v 0 2 0.1
v 0 2 -0.1
v 0.8 2.1 0.2
v -0.7 2.1 0.2
v 0 2.1 0.1
v 0 2.1 -0.1
v 0.8 2 -0.3
v -0.7 2 -0.3
v 0 2.3 0.2
v 0 2.3 0.1
v -0.1 2.3 0.1
v -0.1 2.3 -0.1
v 0 2.3 -0.1
v 0 2.3 -0.2
v 0 2.4 0.2
v 0 2.4 0.1
v -0.1 2.4 0.1
v -0.1 2.4 -0.1
v 0 2.4 -0.1
v 0 2.4 -0.2
v 0.3 2.5 0.1
v 0.3 2.4 0.1
v 0 2.5 0.2
v 0 2.5 0.1
v 0.3 2.5 -0.1
v 0.3 2.4 -0.1
v 0 2.5 -0.1
v 0 2.5 -0.2
v -0.1 2.5 -0.1
v -0.1 2.5 0.1
v 0.2 0.1 0.2
v 0.2 0.1 -0.2
v 0.2 0.2 0.1
v 0.2 0.1 0.1
v 0.2 0.2 -0.2
v 0.2 0.3 0.2
v 0.2 0.3 0.1
v 0.2 0.3 0
v 0.2 0.2 0
v 0.2 0.3 -0.2
v 0.2 0.4 0.1
v 0.2 0.4 0
v 0.1 0.5 0.1
v 0.1 0.5 -0.1
v 0.1 0.6 0.1
v 0.1 0.5 0
v 0.1 0.6 0
v 0.1 0.6 -0.1
v 0.1 0.7 0.1
v 0.1 0.7 0
v 0.1 0.8 0
v 0 0.9 0.1
v 0 0.9 -0.1
v 0 1 0.1
v 0 1 -0.1
v 0 1.1 0.1
v 0 1.1 -0.1
v 0.1 1.3 0.1
v 0.1 1.3 -0.1
v 0.1 1.4 0.1
v 0.1 1.4 -0.1
v 0.1 1.5 0.1
v 0.1 1.5 -0.1
v 0.2 1.7 0.1
v 0.2 1.7 -0.1
v 0.2 1.8 0.1
v 0.2 1.8 -0.1
v 0.2 1.9 0.1
v 0.2 1.8 0
v 0.2 1.9 0
v 0.2 1.9 -0.1
v 0.2 2 0.1
v 0.2 2 -0.1
v 0.9 2.1 0.2
v -0.6 2.1 0.2
v 0.2 2.1 0.1
v 0.2 2.1 -0.1
v 0.9 2 -0.3
v -0.6 2 -0.3
v 0.2 2.1 0
v 0.2 2.2 0
v 0.2 2.3 0.2
v 0.2 2.3 0.1
v 0.3 2.3 0.1
v 0.3 2.3 -0.1
v 0.2 2.3 -0.1
v 0.2 2.3 -0.2
v 0.2 2.4 0.2
v 0.2 2.4 0.1
v 0.2 2.4 -0.1
v 0.2 2.4 -0.2
v 0.2 2.5 0.2
v 0.2 2.5 0.1
v 0.2 2.5 -0.1
v 0.2 2.5 -0.2
v 0.3 2.1 0.7
v 0.3 2.1 -0.8
v 0.2 1.8 0.8
v 0.2 1.8 -0.9
v 0.2 1.9 0.8
v 0.2 1.9 -0.9
v 0.1 1.8 -0.1
v 0.1 1.9 -0.1
v 0.1 2 -0.1
v 0.1 2.1 -0.1
v 0 0.4 -0.1
v 0 0.5 -0.1
v 0 1.3 -0.1
v 0 1.4 -0.1
v 0 1.5 -0.1
v -0.1 0.2 -0.2
v -0.1 0.3 -0.2
v -0.2 0.3 -0.2
v -0.1 2.1 0.7
v -0.1 2.1 -0.8
v 0.3 2.1 0.8
v 0.3 2.1 -0.7
v 0.2 1.8 0.9
v 0.2 1.8 -0.8
v 0.2 1.9 0.9
v 0.2 1.9 -0.8
v 0.1 0.2 0.2
v 0.2 0.2 0.2
v 0.1 0.3 0.2
v 0.1 1.7 0.1
v 0.1 1.9 0.1
v 0.1 2 0.1
v 0.1 2.1 0.1
v 0.1 2.3 0.2
v 0 0.1 0.2
v 0 0.2 0.2
v 0 0.3 0.2
v 0 1.3 0.1
v 0 1.4 0.1
v 0 1.5 0.1
v 0 1.7 0.1
v -0.1 0.9 0.1
v -0.1 1 0.1
v -0.1 1.1 0.1
v -0.2 0.9 0.1
v -0.1 2.1 0.8
v -0.1 2.1 -0.7

vt 0.00585938 0.5
vt 0.0449219 0.5
vt 0.0488281 0.5
vt 0.0683594 0.5
vt 0.0839844 0.5
vt 0.0996094 0.5

vn 0 1 0
vn 0 -1 0
vn -1 0 0
vn 1 0 0
vn 0 0 -1
vn 0 0 1

usemtl palette
f 1/3/1 2/3/1 4/3/1
f 4/3/1 2/3/1 3/3/1
f 5/3/1 6/3/1 8/3/1
f 8/3/1 6/3/1 7/3/1
f 9/3/1 10/3/1 12/3/1
f 12/3/1 10/3/1 11/3/1
f 13/3/1 14/3/1 16/3/1
f 16/3/1 14/3/1 15/3/1
f 17/3/1 18/3/1 20/3/1
f 20/3/1 18/3/1 19/3/1
f 21/3/1 22/3/1 24/3/1
f 24/3/1 22/3/1 23/3/1
f 25/3/1 26/3/1 28/3/1
f 28/3/1 26/3/1 27/3/1
f 26/2/1 29/2/1 27/2/1
f 27/2/1 29/2/1 30/2/1
f 29/3/1 31/3/1 30/3/1
f 30/3/1 31/3/1 32/3/1
f 33/3/1 34/3/1 36/3/1
f 36/3/1 34/3/1 35/3/1
f 37/3/1 38/3/1 40/3/1
f 40/3/1 38/3/1 39/3/1
f 41/3/1 42/3/1 44/3/1
f 44/3/1 42/3/1 43/3/1
f 42/2/1 45/2/1 43/2/1
f 43/2/1 45/2/1 46/2/1
f 45/3/1 47/3/1 46/3/1
f 46/3/1 47/3/1 48/3/1
f 49/3/1 50/3/1 52/3/1
f 52/3/1 50/3/1 51/3/1
f 53/3/1 54/3/1 56/3/1
f 56/3/1 54/3/1 55/3/1
f 54/2/1 57/2/1 55/2/1
f 55/2/1 57/2/1 58/2/1
f 57/3/1 59/3/1 58/3/1
f 58/3/1 59/3/1 60/3/1
f 61/3/1 62/3/1 64/3/1
f 64/3/1 62/3/1 63/3/1
f 62/3/1 65/3/1 67/3/1
f 67/3/1 65/3/1 66/3/1
f 65/2/1 68/2/1 66/2/1
f 66/2/1 68/2/1 69/2/1
f 68/3/1 70/3/1 69/3/1
f 69/3/1 70/3/1 71/3/1
f 70/3/1 72/3/1 74/3/1
f 74/3/1 72/3/1 73/3/1
f 75/3/1 76/3/1 78/3/1
f 78/3/1 76/3/1 77/3/1
f 79/3/1 80/3/1 82/3/1
f 82/3/1 80/3/1 81/3/1
f 83/3/1 84/3/1 86/3/1
f 86/3/1 84/3/1 85/3/1
f 87/3/1 88/3/1 90/3/1
f 90/3/1 88/3/1 89/3/1
f 91/3/1 92/3/1 94/3/1
f 94/3/1 92/3/1 93/3/1
f 95/3/1 96/3/1 98/3/1
f 98/3/1 96/3/1 97/3/1
f 96/3/1 99/3/1 100/3/1
f 100/3/1 99/3/1 61/3/1
f 101/3/1 102/3/1 104/3/1
f 104/3/1 102/3/1 103/3/1
f 102/2/1 105/2/1 107/2/1
f 107/2/1 105/2/1 106/2/1
f 105/3/1 108/3/1 110/3/1
f 110/3/1 108/3/1 109/3/1
f 111/3/1 112/3/1 72/3/1
f 72/3/1 112/3/1 113/3/1
f 112/3/1 114/3/1 116/3/1
f 116/3/1 114/3/1 115/3/1
f 117/3/1 118/3/1 120/3/1
f 120/3/1 118/3/1 119/3/1
f 121/3/1 122/3/1 124/3/1
f 124/3/1 122/3/1 123/3/1
f 125/3/1 126/3/1 128/3/1
f 128/3/1 126/3/1 127/3/1
f 129/3/1 130/3/1 132/3/1
f 132/3/1 130/3/1 131/3/1
f 133/3/1 134/3/1 136/3/1
f 136/3/1 134/3/1 135/3/1
f 137/3/1 138/3/1 140/3/1
f 140/3/1 138/3/1 139/3/1
f 141/1/1 142/1/1 144/1/1
f 144/1/1 142/1/1 143/1/1
f 145/3/1 146/3/1 148/3/1
f 148/3/1 146/3/1 147/3/1
f 149/3/1 150/3/1 152/3/1
f 152/3/1 150/3/1 151/3/1
f 153/3/1 154/3/1 156/3/1
f 156/3/1 154/3/1 155/3/1
f 157/3/1 158/3/1 160/3/1
f 160/3/1 158/3/1 159/3/1
f 161/2/1 162/2/1 137/2/1
f 137/2/1 162/2/1 138/2/1
f 163/6/1 164/6/1 166/6/1
f 166/6/1 164/6/1 165/6/1
f 167/5/1 168/5/1 170/5/1
f 170/5/1 168/5/1 169/5/1
f 171/1/1 172/1/1 174/1/1
f 174/1/1 172/1/1 173/1/1
f 175/6/1 176/6/1 178/6/1
f 178/6/1 176/6/1 177/6/1
f 179/4/1 180/4/1 182/4/1
f 182/4/1 180/4/1 181/4/1
f 183/2/1 184/2/1 145/2/1
f 145/2/1 184/2/1 146/2/1
f 185/3/1 186/3/1 188/3/1
f 188/3/1 186/3/1 187/3/1
f 189/3/1 190/3/1 192/3/1
f 192/3/1 190/3/1 191/3/1
f 193/3/1 194/3/1 196/3/1
f 196/3/1 194/3/1 195/3/1
f 197/3/1 198/3/1 161/3/1
f 161/3/1 198/3/1 162/3/1
f 199/2/1 200/2/1 87/2/1
f 87/2/1 200/2/1 88/2/1
f 201/2/1 202/2/1 91/2/1
f 91/2/1 202/2/1 92/2/1
f 203/2/1 204/2/1 95/2/1
f 95/2/1 204/2/1 99/2/1
f 205/2/1 206/2/1 207/2/1
f 207/2/1 206/2/1 102/2/1
f 208/1/1 209/1/1 210/1/1
f 210/1/1 209/1/1 144/1/1
f 211/6/1 212/6/1 214/6/1
f 214/6/1 212/6/1 213/6/1
f 209/1/1 215/1/1 217/1/1
f 217/1/1 215/1/1 216/1/1
f 215/1/1 218/1/1 219/1/1
f 219/1/1 218/1/1 142/1/1
f 220/2/1 221/2/1 105/2/1
f 105/2/1 221/2/1 222/2/1
f 223/2/1 224/2/1 111/2/1
f 111/2/1 224/2/1 114/2/1
f 225/2/1 226/2/1 117/2/1
f 117/2/1 226/2/1 118/2/1
f 227/2/1 228/2/1 121/2/1
f 121/2/1 228/2/1 122/2/1
f 229/3/1 230/3/1 183/3/1
f 183/3/1 230/3/1 184/3/1
f 231/3/1 232/3/1 234/3/1
f 234/3/1 232/3/1 233/3/1
f 235/3/1 236/3/1 238/3/1
f 238/3/1 236/3/1 237/3/1
f 239/3/1 240/3/1 242/3/1
f 242/3/1 240/3/1 241/3/1
f 243/3/1 244/3/1 199/3/1
f 199/3/1 244/3/1 200/3/1
f 245/3/1 246/3/1 203/3/1
f 203/3/1 246/3/1 204/3/1
f 247/3/1 248/3/1 249/3/1
f 249/3/1 248/3/1 206/3/1
f 250/3/1 251/3/1 220/3/1
f 220/3/1 251/3/1 252/3/1
f 253/3/1 254/3/1 255/3/1
f 255/3/1 254/3/1 224/3/1
f 256/3/1 257/3/1 227/3/1
f 227/3/1 257/3/1 228/3/1
f 258/3/1 259/3/1 261/3/1
f 261/3/1 259/3/1 260/3/1
f 262/3/1 263/3/1 265/3/1
f 265/3/1 263/3/1 264/3/1
f 266/3/1 267/3/1 201/3/1
f 201/3/1 267/3/1 202/3/1
f 268/3/1 269/3/1 270/3/1
f 270/3/1 269/3/1 246/3/1
f 271/2/1 272/2/1 206/2/1
f 206/2/1 272/2/1 220/2/1
f 273/3/1 274/3/1 223/3/1
f 223/3/1 274/3/1 255/3/1
f 275/3/1 276/3/1 225/3/1
f 225/3/1 276/3/1 226/3/1
f 277/3/1 278/3/1 280/3/1
f 280/3/1 278/3/1 279/3/1
f 281/3/1 282/3/1 269/3/1
f 269/3/1 282/3/1 283/3/1
f 284/3/1 285/3/1 286/3/1
f 286/3/1 285/3/1 273/3/1
f 287/3/1 288/3/1 289/3/1
f 289/3/1 288/3/1 282/3/1
f 288/2/1 290/2/1 283/2/1
f 283/2/1 290/2/1 291/2/1
f 290/3/1 292/3/1 291/3/1
f 291/3/1 292/3/1 286/3/1
f 293/3/1 294/3/1 296/3/1
f 296/3/1 294/3/1 295/3/1
f 294/2/1 297/2/1 295/2/1
f 295/2/1 297/2/1 298/2/1
f 297/3/1 299/3/1 298/3/1
f 298/3/1 299/3/1 300/3/1
f 301/3/1 302/3/1 304/3/1
f 304/3/1 302/3/1 303/3/1
f 305/3/1 306/3/1 308/3/1
f 308/3/1 306/3/1 307/3/1
f 306/2/1 309/2/1 307/2/1
f 307/2/1 309/2/1 310/2/1
f 309/3/1 311/3/1 310/3/1
f 310/3/1 311/3/1 312/3/1
f 313/3/1 314/3/1 316/3/1
f 316/3/1 314/3/1 315/3/1
f 317/3/1 318/3/1 320/3/1
f 320/3/1 318/3/1 319/3/1
f 321/3/1 322/3/1 324/3/1
f 324/3/1 322/3/1 323/3/1
f 322/2/1 325/2/1 323/2/1
f 323/2/1 325/2/1 326/2/1
f 325/3/1 327/3/1 326/3/1
f 326/3/1 327/3/1 328/3/1
f 329/3/1 330/3/1 332/3/1
f 332/3/1 330/3/1 331/3/1
f 333/3/1 334/3/1 336/3/1
f 336/3/1 334/3/1 335/3/1
f 337/3/1 338/3/1 340/3/1
f 340/3/1 338/3/1 339/3/1
f 341/3/1 342/3/1 344/3/1
f 344/3/1 342/3/1 343/3/1
f 345/3/1 346/3/1 348/3/1
f 348/3/1 346/3/1 347/3/1
f 349/3/1 350/3/1 352/3/1
f 352/3/1 350/3/1 351/3/1
f 353/3/2 354/3/2 356/3/2
f 356/3/2 354/3/2 355/3/2
f 357/3/2 358/3/2 360/3/2
f 360/3/2 358/3/2 359/3/2
f 361/3/2 362/3/2 364/3/2
f 364/3/2 362/3/2 363/3/2
f 365/3/2 366/3/2 368/3/2
f 368/3/2 366/3/2 367/3/2
f 369/3/2 370/3/2 372/3/2
f 372/3/2 370/3/2 371/3/2
f 373/3/2 374/3/2 376/3/2
f 376/3/2 374/3/2 375/3/2
f 377/3/2 378/3/2 379/3/2
f 379/3/2 378/3/2 9/3/2
f 379/2/2 9/2/2 380/2/2
f 380/2/2 9/2/2 10/2/2
f 380/3/2 10/3/2 382/3/2
f 382/3/2 10/3/2 381/3/2
f 383/3/2 384/3/2 386/3/2
f 386/3/2 384/3/2 385/3/2
f 387/3/2 388/3/2 389/3/2
f 389/3/2 388/3/2 25/3/2
f 389/2/2 25/2/2 390/2/2
f 390/2/2 25/2/2 31/2/2
f 390/3/2 31/3/2 392/3/2
f 392/3/2 31/3/2 391/3/2
f 393/3/2 394/3/2 395/3/2
f 395/3/2 394/3/2 42/3/2
f 395/2/2 42/2/2 396/2/2
f 396/2/2 42/2/2 45/2/2
f 396/3/2 45/3/2 398/3/2
f 398/3/2 45/3/2 397/3/2
f 399/3/2 400/3/2 402/3/2
f 402/3/2 400/3/2 401/3/2
f 402/3/2 403/3/2 404/3/2
f 404/3/2 403/3/2 54/3/2
f 404/2/2 54/2/2 405/2/2
f 405/2/2 54/2/2 57/2/2
f 405/3/2 57/3/2 407/3/2
f 407/3/2 57/3/2 406/3/2
f 407/3/2 408/3/2 410/3/2
f 410/3/2 408/3/2 409/3/2
f 411/3/2 412/3/2 414/3/2
f 414/3/2 412/3/2 413/3/2
f 139/3/2 415/3/2 417/3/2
f 417/3/2 415/3/2 416/3/2
f 88/3/2 418/3/2 420/3/2
f 420/3/2 418/3/2 419/3/2
f 92/3/2 421/3/2 423/3/2
f 423/3/2 421/3/2 422/3/2
f 423/3/2 424/3/2 425/3/2
f 425/3/2 424/3/2 399/3/2
f 426/3/2 427/3/2 429/3/2
f 429/3/2 427/3/2 428/3/2
f 429/2/2 65/2/2 430/2/2
f 430/2/2 65/2/2 68/2/2
f 430/3/2 431/3/2 433/3/2
f 433/3/2 431/3/2 432/3/2
f 434/3/2 410/3/2 436/3/2
f 436/3/2 410/3/2 435/3/2
f 436/3/2 437/3/2 117/3/2
f 117/3/2 437/3/2 438/3/2
f 439/3/2 440/3/2 121/3/2
f 121/3/2 440/3/2 441/3/2
f 442/3/2 443/3/2 148/3/2
f 148/3/2 443/3/2 444/3/2
f 445/3/2 446/3/2 448/3/2
f 448/3/2 446/3/2 447/3/2
f 449/3/2 450/3/2 452/3/2
f 452/3/2 450/3/2 451/3/2
f 453/3/2 454/3/2 456/3/2
f 456/3/2 454/3/2 455/3/2
f 159/3/2 457/3/2 459/3/2
f 459/3/2 457/3/2 458/3/2
f 460/4/2 461/4/2 463/4/2
f 463/4/2 461/4/2 462/4/2
f 463/5/2 462/5/2 465/5/2
f 465/5/2 462/5/2 464/5/2
f 466/1/2 467/1/2 469/1/2
f 469/1/2 467/1/2 468/1/2
f 470/3/2 471/3/2 188/3/2
f 188/3/2 471/3/2 472/3/2
f 473/3/2 474/3/2 476/3/2
f 476/3/2 474/3/2 475/3/2
f 477/3/2 478/3/2 480/3/2
f 480/3/2 478/3/2 479/3/2
f 481/3/2 482/3/2 484/3/2
f 484/3/2 482/3/2 483/3/2
f 158/2/2 159/2/2 485/2/2
f 485/2/2 159/2/2 459/2/2
f 486/4/2 487/4/2 488/4/2
f 488/4/2 487/4/2 460/4/2
f 489/1/2 490/1/2 492/1/2
f 492/1/2 490/1/2 491/1/2
f 493/1/2 494/1/2 496/1/2
f 496/1/2 494/1/2 495/1/2
f 497/5/2 466/5/2 499/5/2
f 499/5/2 466/5/2 498/5/2
f 500/5/2 465/5/2 502/5/2
f 502/5/2 465/5/2 501/5/2
f 503/5/2 504/5/2 506/5/2
f 506/5/2 504/5/2 505/5/2
f 507/2/2 470/2/2 185/2/2
f 185/2/2 470/2/2 188/2/2
f 508/3/2 509/3/2 511/3/2
f 511/3/2 509/3/2 510/3/2
f 512/3/2 513/3/2 515/3/2
f 515/3/2 513/3/2 514/3/2
f 516/3/2 517/3/2 519/3/2
f 519/3/2 517/3/2 518/3/2
f 520/3/2 158/3/2 521/3/2
f 521/3/2 158/3/2 485/3/2
f 198/2/2 139/2/2 522/2/2
f 522/2/2 139/2/2 417/2/2
f 200/2/2 88/2/2 523/2/2
f 523/2/2 88/2/2 420/2/2
f 202/2/2 92/2/2 524/2/2
f 524/2/2 92/2/2 425/2/2
f 204/2/2 99/2/2 525/2/2
f 525/2/2 99/2/2 429/2/2
f 526/1/2 527/1/2 528/1/2
f 528/1/2 527/1/2 467/1/2
f 529/5/2 488/5/2 530/5/2
f 530/5/2 488/5/2 500/5/2
f 528/1/2 497/1/2 531/1/2
f 531/1/2 497/1/2 499/1/2
f 531/1/2 498/1/2 532/1/2
f 532/1/2 498/1/2 469/1/2
f 533/2/2 430/2/2 223/2/2
f 223/2/2 430/2/2 111/2/2
f 534/2/2 434/2/2 225/2/2
f 225/2/2 434/2/2 117/2/2
f 535/2/2 439/2/2 227/2/2
f 227/2/2 439/2/2 121/2/2
f 536/2/2 442/2/2 229/2/2
f 229/2/2 442/2/2 148/2/2
f 537/3/2 507/3/2 538/3/2
f 538/3/2 507/3/2 185/3/2
f 539/3/2 540/3/2 542/3/2
f 542/3/2 540/3/2 541/3/2
f 543/3/2 544/3/2 546/3/2
f 546/3/2 544/3/2 545/3/2
f 547/3/2 548/3/2 550/3/2
f 550/3/2 548/3/2 549/3/2
f 551/3/2 202/3/2 552/3/2
f 552/3/2 202/3/2 524/3/2
f 553/3/2 554/3/2 555/3/2
f 555/3/2 554/3/2 525/3/2
f 556/3/2 533/3/2 558/3/2
f 558/3/2 533/3/2 557/3/2
f 559/3/2 560/3/2 561/3/2
f 561/3/2 560/3/2 225/3/2
f 562/3/2 563/3/2 565/3/2
f 565/3/2 563/3/2 564/3/2
f 566/3/2 198/3/2 567/3/2
f 567/3/2 198/3/2 522/3/2
f 568/3/2 200/3/2 569/3/2
f 569/3/2 200/3/2 523/3/2
f 570/3/2 571/3/2 572/3/2
f 572/3/2 571/3/2 552/3/2
f 283/2/2 525/2/2 291/2/2
f 291/2/2 525/2/2 533/2/2
f 573/3/2 534/3/2 574/3/2
f 574/3/2 534/3/2 560/3/2
f 575/3/2 535/3/2 576/3/2
f 576/3/2 535/3/2 227/3/2
f 577/3/2 536/3/2 578/3/2
f 578/3/2 536/3/2 229/3/2
f 579/3/2 572/3/2 581/3/2
f 581/3/2 572/3/2 580/3/2
f 582/3/2 583/3/2 584/3/2
f 584/3/2 583/3/2 573/3/2
f 585/3/2 586/3/2 295/3/2
f 295/3/2 586/3/2 581/3/2
f 295/2/2 580/2/2 298/2/2
f 298/2/2 580/2/2 587/2/2
f 298/3/2 587/3/2 588/3/2
f 588/3/2 587/3/2 583/3/2
f 589/3/2 590/3/2 307/3/2
f 307/3/2 590/3/2 591/3/2
f 307/2/2 591/2/2 310/2/2
f 310/2/2 591/2/2 592/2/2
f 310/3/2 592/3/2 594/3/2
f 594/3/2 592/3/2 593/3/2
f 595/3/2 596/3/2 324/3/2
f 324/3/2 596/3/2 597/3/2
f 324/2/2 597/2/2 328/2/2
f 328/2/2 597/2/2 598/2/2
f 328/3/2 598/3/2 600/3/2
f 600/3/2 598/3/2 599/3/2
f 601/3/2 602/3/2 604/3/2
f 604/3/2 602/3/2 603/3/2
f 605/3/2 606/3/2 344/3/2
f 344/3/2 606/3/2 607/3/2
f 344/2/2 607/2/2 343/2/2
f 343/2/2 607/2/2 608/2/2
f 343/3/2 608/3/2 610/3/2
f 610/3/2 608/3/2 609/3/2
f 611/3/2 612/3/2 614/3/2
f 614/3/2 612/3/2 613/3/2
f 615/3/2 616/3/2 618/3/2
f 618/3/2 616/3/2 617/3/2
f 619/3/2 620/3/2 622/3/2
f 622/3/2 620/3/2 621/3/2
f 623/3/2 624/3/2 626/3/2
f 626/3/2 624/3/2 625/3/2
f 627/3/2 628/3/2 630/3/2
f 630/3/2 628/3/2 629/3/2
f 631/3/2 632/3/2 634/3/2
f 634/3/2 632/3/2 633/3/2
f 635/1/3 636/1/3 468/1/3
f 468/1/3 636/1/3 532/1/3
f 637/4/3 638/4/3 635/4/3
f 635/4/3 638/4/3 639/4/3
f 640/5/3 641/5/3 642/5/3
f 642/5/3 641/5/3 636/5/3
f 643/5/3 644/5/3 637/5/3
f 637/5/3 644/5/3 638/5/3
f 644/5/3 645/5/3 639/5/3
f 639/5/3 645/5/3 642/5/3
f 143/1/3 646/1/3 643/1/3
f 643/1/3 646/1/3 645/1/3
f 646/1/3 218/1/3 640/1/3
f 640/1/3 218/1/3 641/1/3
f 647/4/3 648/4/3 219/4/3
f 219/4/3 648/4/3 649/4/3
f 648/5/3 650/5/3 649/5/3
f 649/5/3 650/5/3 216/5/3
f 651/5/3 652/5/3 647/5/3
f 647/5/3 652/5/3 648/5/3
f 652/1/3 653/1/3 648/1/3
f 648/1/3 653/1/3 650/1/3
f 654/1/3 655/1/3 651/1/3
f 651/1/3 655/1/3 652/1/3
f 504/5/3 656/5/3 654/5/3
f 654/5/3 656/5/3 655/5/3
f 656/5/3 503/5/3 652/5/3
f 652/5/3 503/5/3 653/5/3
f 657/5/3 658/5/3 659/5/3
f 659/5/3 658/5/3 506/5/3
f 660/5/3 661/5/3 505/5/3
f 505/5/3 661/5/3 659/5/3
f 661/1/3 662/1/3 657/1/3
f 657/1/3 662/1/3 658/1/3
f 663/1/3 664/1/3 660/1/3
f 660/1/3 664/1/3 661/1/3
f 664/5/3 665/5/3 661/5/3
f 661/5/3 665/5/3 662/5/3
f 181/4/3 180/4/3 663/4/3
f 663/4/3 180/4/3 665/4/3
f 366/3/3 365/3/3 363/3/3
f 363/3/3 365/3/3 364/3/3
f 666/1/3 667/1/3 182/1/3
f 182/1/3 667/1/3 179/1/3
f 628/3/3 627/3/3 625/3/3
f 625/3/3 627/3/3 626/3/3
f 15/3/3 14/3/3 367/3/3
f 367/3/3 14/3/3 368/3/3
f 131/3/3 130/3/3 451/3/3
f 451/3/3 130/3/3 452/3/3
f 151/3/3 150/3/3 475/3/3
f 475/3/3 150/3/3 476/3/3
f 668/5/3 669/5/3 666/5/3
f 666/5/3 669/5/3 667/5/3
f 191/3/3 190/3/3 514/3/3
f 514/3/3 190/3/3 515/3/3
f 233/3/3 232/3/3 541/3/3
f 541/3/3 232/3/3 542/3/3
f 347/3/3 346/3/3 629/3/3
f 629/3/3 346/3/3 630/3/3
f 370/3/3 369/3/3 16/3/3
f 16/3/3 369/3/3 13/3/3
f 670/4/3 671/4/3 668/4/3
f 668/4/3 671/4/3 669/4/3
f 632/3/3 631/3/3 348/3/3
f 348/3/3 631/3/3 345/3/3
f 19/3/3 18/3/3 371/3/3
f 371/3/3 18/3/3 372/3/3
f 135/3/3 134/3/3 455/3/3
f 455/3/3 134/3/3 456/3/3
f 155/3/3 154/3/3 479/3/3
f 479/3/3 154/3/3 480/3/3
f 173/1/3 172/1/3 670/1/3
f 670/1/3 172/1/3 671/1/3
f 195/3/3 194/3/3 518/3/3
f 518/3/3 194/3/3 519/3/3
f 237/3/3 236/3/3 545/3/3
f 545/3/3 236/3/3 546/3/3
f 351/3/3 350/3/3 633/3/3
f 633/3/3 350/3/3 634/3/3
f 11/3/3 10/3/3 20/3/3
f 20/3/3 10/3/3 17/3/3
f 159/3/3 158/3/3 483/3/3
f 483/3/3 158/3/3 484/3/3
f 672/1/3 673/1/3 674/1/3
f 674/1/3 673/1/3 171/1/3
f 187/3/3 186/3/3 510/3/3
f 510/3/3 186/3/3 511/3/3
f 343/3/3 342/3/3 352/3/3
f 352/3/3 342/3/3 349/3/3
f 384/3/3 383/3/3 381/3/3
f 381/3/3 383/3/3 382/3/3
f 675/5/3 676/5/3 174/5/3
f 174/5/3 676/5/3 674/5/3
f 676/5/3 677/5/3 672/5/3
f 672/5/3 677/5/3 673/5/3
f 612/3/3 611/3/3 609/3/3
f 609/3/3 611/3/3 610/3/3
f 35/3/3 34/3/3 385/3/3
f 385/3/3 34/3/3 386/3/3
f 85/3/3 84/3/3 413/3/3
f 413/3/3 84/3/3 414/3/3
f 127/3/3 126/3/3 447/3/3
f 447/3/3 126/3/3 448/3/3
f 678/4/3 679/4/3 675/4/3
f 675/4/3 679/4/3 677/4/3
f 241/3/3 240/3/3 549/3/3
f 549/3/3 240/3/3 550/3/3
f 260/3/3 259/3/3 564/3/3
f 564/3/3 259/3/3 565/3/3
f 331/3/3 330/3/3 613/3/3
f 613/3/3 330/3/3 614/3/3
f 32/3/3 31/3/3 36/3/3
f 36/3/3 31/3/3 33/3/3
f 139/3/3 138/3/3 458/3/3
f 458/3/3 138/3/3 459/3/3
f 147/3/3 146/3/3 472/3/3
f 472/3/3 146/3/3 188/3/3
f 138/2/3 162/2/3 459/2/3
f 459/2/3 162/2/3 485/2/3
f 680/1/3 681/1/3 678/1/3
f 678/1/3 681/1/3 679/1/3
f 146/2/3 184/2/3 188/2/3
f 188/2/3 184/2/3 185/2/3
f 162/3/3 198/3/3 485/3/3
f 485/3/3 198/3/3 521/3/3
f 184/3/3 230/3/3 185/3/3
f 185/3/3 230/3/3 538/3/3
f 328/3/3 327/3/3 332/3/3
f 332/3/3 327/3/3 329/3/3
f 51/3/3 50/3/3 391/3/3
f 391/3/3 50/3/3 392/3/3
f 77/3/3 682/3/3 416/3/3
f 416/3/3 682/3/3 417/3/3
f 81/3/3 683/3/3 444/3/3
f 444/3/3 683/3/3 148/3/3
f 684/5/3 685/5/3 680/5/3
f 680/5/3 685/5/3 681/5/3
f 264/3/3 263/3/3 686/3/3
f 686/3/3 263/3/3 567/3/3
f 279/3/3 278/3/3 687/3/3
f 687/3/3 278/3/3 578/3/3
f 315/3/3 314/3/3 599/3/3
f 599/3/3 314/3/3 600/3/3
f 48/3/3 47/3/3 52/3/3
f 52/3/3 47/3/3 49/3/3
f 89/3/3 88/3/3 76/3/3
f 76/3/3 88/3/3 682/3/3
f 123/3/3 122/3/3 80/3/3
f 80/3/3 122/3/3 683/3/3
f 465/4/3 500/4/3 684/4/3
f 684/4/3 500/4/3 685/4/3
f 88/2/3 200/2/3 417/2/3
f 417/2/3 200/2/3 522/2/3
f 122/2/3 228/2/3 148/2/3
f 148/2/3 228/2/3 229/2/3
f 200/3/3 244/3/3 522/3/3
f 522/3/3 244/3/3 686/3/3
f 228/3/3 257/3/3 229/3/3
f 229/3/3 257/3/3 687/3/3
f 312/3/3 311/3/3 316/3/3
f 316/3/3 311/3/3 313/3/3
f 60/3/3 59/3/3 397/3/3
f 397/3/3 59/3/3 398/3/3
f 93/3/3 92/3/3 419/3/3
f 419/3/3 92/3/3 420/3/3
f 119/3/3 118/3/3 441/3/3
f 441/3/3 118/3/3 121/3/3
f 688/5/3 689/5/3 464/5/3
f 464/5/3 689/5/3 465/5/3
f 690/5/3 691/5/3 501/5/3
f 501/5/3 691/5/3 502/5/3
f 92/2/3 202/2/3 420/2/3
f 420/2/3 202/2/3 523/2/3
f 692/5/3 693/5/3 500/5/3
f 500/5/3 693/5/3 530/5/3
f 118/2/3 226/2/3 121/2/3
f 121/2/3 226/2/3 227/2/3
f 202/3/3 267/3/3 523/3/3
f 523/3/3 267/3/3 569/3/3
f 226/3/3 276/3/3 227/3/3
f 227/3/3 276/3/3 576/3/3
f 300/3/3 299/3/3 593/3/3
f 593/3/3 299/3/3 594/3/3
f 71/3/3 74/3/3 406/3/3
f 406/3/3 74/3/3 408/3/3
f 73/3/3 72/3/3 409/3/3
f 409/3/3 72/3/3 410/3/3
f 113/3/3 116/3/3 435/3/3
f 435/3/3 116/3/3 437/3/3
f 61/3/3 99/3/3 399/3/3
f 399/3/3 99/3/3 425/3/3
f 115/3/3 114/3/3 438/3/3
f 438/3/3 114/3/3 117/3/3
f 694/1/3 695/1/3 688/1/3
f 688/1/3 695/1/3 689/1/3
f 696/1/3 697/1/3 690/1/3
f 690/1/3 697/1/3 691/1/3
f 99/2/3 204/2/3 425/2/3
f 425/2/3 204/2/3 524/2/3
f 698/1/3 699/1/3 692/1/3
f 692/1/3 699/1/3 693/1/3
f 114/2/3 224/2/3 117/2/3
f 117/2/3 224/2/3 225/2/3
f 224/3/3 254/3/3 225/3/3
f 225/3/3 254/3/3 561/3/3
f 204/3/3 269/3/3 524/3/3
f 524/3/3 269/3/3 572/3/3
f 253/3/3 274/3/3 559/3/3
f 559/3/3 274/3/3 574/3/3
f 273/3/3 285/3/3 573/3/3
f 573/3/3 285/3/3 584/3/3
f 284/3/3 292/3/3 582/3/3
f 582/3/3 292/3/3 588/3/3
f 106/2/3 110/2/3 68/2/3
f 68/2/3 110/2/3 431/2/3
f 109/3/3 108/3/3 432/3/3
f 432/3/3 108/3/3 433/3/3
f 102/2/3 700/2/3 429/2/3
f 429/2/3 700/2/3 701/2/3
f 702/2/3 703/2/3 694/2/3
f 694/2/3 703/2/3 695/2/3
f 704/2/3 206/2/3 705/2/3
f 705/2/3 206/2/3 525/2/3
f 706/2/3 707/2/3 698/2/3
f 698/2/3 707/2/3 699/2/3
f 222/2/3 221/2/3 111/2/3
f 111/2/3 221/2/3 223/2/3
f 252/3/3 251/3/3 557/3/3
f 557/3/3 251/3/3 558/3/3
f 250/2/3 272/2/3 556/2/3
f 556/2/3 272/2/3 291/2/3
f 213/6/3 178/6/3 702/6/3
f 702/6/3 178/6/3 703/6/3
f 177/6/3 176/6/3 709/6/3
f 709/6/3 176/6/3 708/6/3
f 175/6/3 212/6/3 706/6/3
f 706/6/3 212/6/3 707/6/3
f 710/1/4 527/1/4 711/1/4
f 711/1/4 527/1/4 526/1/4
f 712/5/4 713/5/4 714/5/4
f 714/5/4 713/5/4 711/5/4
f 715/5/4 710/5/4 716/5/4
f 716/5/4 710/5/4 713/5/4
f 717/5/4 718/5/4 719/5/4
f 719/5/4 718/5/4 714/5/4
f 210/1/4 715/1/4 720/1/4
f 720/1/4 715/1/4 716/1/4
f 720/1/4 712/1/4 721/1/4
f 721/1/4 712/1/4 718/1/4
f 721/1/4 717/1/4 208/1/4
f 208/1/4 717/1/4 719/1/4
f 722/4/4 141/4/4 723/4/4
f 723/4/4 141/4/4 217/4/4
f 724/5/4 722/5/4 726/5/4
f 726/5/4 722/5/4 725/5/4
f 726/1/4 725/1/4 727/1/4
f 727/1/4 725/1/4 723/1/4
f 728/1/4 724/1/4 729/1/4
f 729/1/4 724/1/4 726/1/4
f 170/5/4 728/5/4 730/5/4
f 730/5/4 728/5/4 729/5/4
f 730/5/4 726/5/4 167/5/4
f 167/5/4 726/5/4 727/5/4
f 731/5/4 169/5/4 732/5/4
f 732/5/4 169/5/4 168/5/4
f 733/1/4 731/1/4 734/1/4
f 734/1/4 731/1/4 732/1/4
f 735/5/4 733/5/4 736/5/4
f 736/5/4 733/5/4 734/5/4
f 495/4/4 735/4/4 496/4/4
f 496/4/4 735/4/4 736/4/4
f 355/3/4 362/3/4 356/3/4
f 356/3/4 362/3/4 361/3/4
f 737/1/4 494/1/4 738/1/4
f 738/1/4 494/1/4 493/1/4
f 617/3/4 624/3/4 618/3/4
f 618/3/4 624/3/4 623/3/4
f 4/3/4 354/3/4 1/3/4
f 1/3/4 354/3/4 353/3/4
f 132/3/4 450/3/4 129/3/4
f 129/3/4 450/3/4 449/3/4
f 152/3/4 474/3/4 149/3/4
f 149/3/4 474/3/4 473/3/4
f 739/4/4 737/4/4 740/4/4
f 740/4/4 737/4/4 738/4/4
f 192/3/4 513/3/4 189/3/4
f 189/3/4 513/3/4 512/3/4
f 234/3/4 540/3/4 231/3/4
f 231/3/4 540/3/4 539/3/4
f 336/3/4 616/3/4 333/3/4
f 333/3/4 616/3/4 615/3/4
f 359/3/4 3/3/4 360/3/4
f 360/3/4 3/3/4 2/3/4
f 741/5/4 739/5/4 742/5/4
f 742/5/4 739/5/4 740/5/4
f 621/3/4 335/3/4 622/3/4
f 622/3/4 335/3/4 334/3/4
f 8/3/4 358/3/4 5/3/4
f 5/3/4 358/3/4 357/3/4
f 136/3/4 454/3/4 133/3/4
f 133/3/4 454/3/4 453/3/4
f 156/3/4 478/3/4 153/3/4
f 153/3/4 478/3/4 477/3/4
f 491/1/4 741/1/4 492/1/4
f 492/1/4 741/1/4 742/1/4
f 196/3/4 517/3/4 193/3/4
f 193/3/4 517/3/4 516/3/4
f 238/3/4 544/3/4 235/3/4
f 235/3/4 544/3/4 543/3/4
f 340/3/4 620/3/4 337/3/4
f 337/3/4 620/3/4 619/3/4
f 12/3/4 7/3/4 9/3/4
f 9/3/4 7/3/4 6/3/4
f 160/3/4 482/3/4 157/3/4
f 157/3/4 482/3/4 481/3/4
f 743/1/4 490/1/4 744/1/4
f 744/1/4 490/1/4 489/1/4
f 188/3/4 509/3/4 185/3/4
f 185/3/4 509/3/4 508/3/4
f 344/3/4 339/3/4 341/3/4
f 341/3/4 339/3/4 338/3/4
f 375/3/4 378/3/4 376/3/4
f 376/3/4 378/3/4 377/3/4
f 745/5/4 743/5/4 746/5/4
f 746/5/4 743/5/4 744/5/4
f 603/3/4 606/3/4 604/3/4
f 604/3/4 606/3/4 605/3/4
f 24/3/4 374/3/4 21/3/4
f 21/3/4 374/3/4 373/3/4
f 86/3/4 412/3/4 83/3/4
f 83/3/4 412/3/4 411/3/4
f 128/3/4 446/3/4 125/3/4
f 125/3/4 446/3/4 445/3/4
f 747/4/4 745/4/4 749/4/4
f 749/4/4 745/4/4 748/4/4
f 749/1/4 748/1/4 750/1/4
f 750/1/4 748/1/4 746/1/4
f 242/3/4 548/3/4 239/3/4
f 239/3/4 548/3/4 547/3/4
f 261/3/4 563/3/4 258/3/4
f 258/3/4 563/3/4 562/3/4
f 320/3/4 602/3/4 317/3/4
f 317/3/4 602/3/4 601/3/4
f 28/3/4 23/3/4 25/3/4
f 25/3/4 23/3/4 22/3/4
f 140/3/4 457/3/4 137/3/4
f 137/3/4 457/3/4 159/3/4
f 148/3/4 471/3/4 145/3/4
f 145/3/4 471/3/4 470/3/4
f 137/2/4 159/2/4 161/2/4
f 161/2/4 159/2/4 158/2/4
f 751/5/4 747/5/4 752/5/4
f 752/5/4 747/5/4 750/5/4
f 145/2/4 470/2/4 183/2/4
f 183/2/4 470/2/4 507/2/4
f 161/3/4 158/3/4 197/3/4
f 197/3/4 158/3/4 520/3/4
f 183/3/4 507/3/4 229/3/4
f 229/3/4 507/3/4 537/3/4
f 324/3/4 319/3/4 321/3/4
f 321/3/4 319/3/4 318/3/4
f 40/3/4 388/3/4 37/3/4
f 37/3/4 388/3/4 387/3/4
f 78/3/4 415/3/4 753/3/4
f 753/3/4 415/3/4 139/3/4
f 82/3/4 443/3/4 754/3/4
f 754/3/4 443/3/4 442/3/4
f 755/1/4 751/1/4 756/1/4
f 756/1/4 751/1/4 752/1/4
f 265/3/4 757/3/4 262/3/4
f 262/3/4 757/3/4 566/3/4
f 280/3/4 758/3/4 277/3/4
f 277/3/4 758/3/4 577/3/4
f 304/3/4 596/3/4 301/3/4
f 301/3/4 596/3/4 595/3/4
f 44/3/4 39/3/4 41/3/4
f 41/3/4 39/3/4 38/3/4
f 90/3/4 75/3/4 87/3/4
f 87/3/4 75/3/4 753/3/4
f 124/3/4 79/3/4 121/3/4
f 121/3/4 79/3/4 754/3/4
f 460/5/4 755/5/4 760/5/4
f 760/5/4 755/5/4 759/5/4
f 760/4/4 759/4/4 488/4/4
f 488/4/4 759/4/4 756/4/4
f 87/2/4 139/2/4 199/2/4
f 199/2/4 139/2/4 198/2/4
f 121/2/4 442/2/4 227/2/4
f 227/2/4 442/2/4 536/2/4
f 199/3/4 198/3/4 243/3/4
f 243/3/4 198/3/4 757/3/4
f 227/3/4 536/3/4 256/3/4
f 256/3/4 536/3/4 758/3/4
f 308/3/4 303/3/4 305/3/4
f 305/3/4 303/3/4 302/3/4
f 56/3/4 394/3/4 53/3/4
f 53/3/4 394/3/4 393/3/4
f 94/3/4 418/3/4 91/3/4
f 91/3/4 418/3/4 88/3/4
f 120/3/4 440/3/4 117/3/4
f 117/3/4 440/3/4 439/3/4
f 761/4/4 461/4/4 762/4/4
f 762/4/4 461/4/4 460/4/4
f 763/4/4 487/4/4 764/4/4
f 764/4/4 487/4/4 486/4/4
f 91/2/4 88/2/4 201/2/4
f 201/2/4 88/2/4 200/2/4
f 765/5/4 488/5/4 766/5/4
f 766/5/4 488/5/4 529/5/4
f 117/2/4 439/2/4 225/2/4
f 225/2/4 439/2/4 535/2/4
f 201/3/4 200/3/4 266/3/4
f 266/3/4 200/3/4 568/3/4
f 225/3/4 535/3/4 275/3/4
f 275/3/4 535/3/4 575/3/4
f 296/3/4 590/3/4 293/3/4
f 293/3/4 590/3/4 589/3/4
f 67/3/4 403/3/4 63/3/4
f 63/3/4 403/3/4 401/3/4
f 64/3/4 400/3/4 61/3/4
f 61/3/4 400/3/4 399/3/4
f 100/3/4 424/3/4 97/3/4
f 97/3/4 424/3/4 422/3/4
f 98/3/4 421/3/4 95/3/4
f 95/3/4 421/3/4 92/3/4
f 72/3/4 410/3/4 111/3/4
f 111/3/4 410/3/4 434/3/4
f 767/1/4 761/1/4 768/1/4
f 768/1/4 761/1/4 762/1/4
f 701/1/4 763/1/4 705/1/4
f 705/1/4 763/1/4 764/1/4
f 95/2/4 92/2/4 203/2/4
f 203/2/4 92/2/4 202/2/4
f 769/1/4 765/1/4 770/1/4
f 770/1/4 765/1/4 766/1/4
f 111/2/4 434/2/4 223/2/4
f 223/2/4 434/2/4 534/2/4
f 203/3/4 202/3/4 245/3/4
f 245/3/4 202/3/4 551/3/4
f 270/3/4 571/3/4 268/3/4
f 268/3/4 571/3/4 570/3/4
f 223/3/4 534/3/4 273/3/4
f 273/3/4 534/3/4 573/3/4
f 269/3/4 572/3/4 281/3/4
f 281/3/4 572/3/4 579/3/4
f 289/3/4 586/3/4 287/3/4
f 287/3/4 586/3/4 585/3/4
f 107/2/4 65/2/4 103/2/4
f 103/2/4 65/2/4 428/2/4
f 104/3/4 427/3/4 101/3/4
f 101/3/4 427/3/4 426/3/4
f 771/2/4 767/2/4 772/2/4
f 772/2/4 767/2/4 768/2/4
f 105/2/4 430/2/4 709/2/4
f 709/2/4 430/2/4 696/2/4
f 207/2/4 99/2/4 205/2/4
f 205/2/4 99/2/4 204/2/4
f 773/2/4 769/2/4 774/2/4
f 774/2/4 769/2/4 770/2/4
f 708/2/4 697/2/4 220/2/4
f 220/2/4 697/2/4 533/2/4
f 249/3/4 554/3/4 247/3/4
f 247/3/4 554/3/4 553/3/4
f 248/2/4 555/2/4 271/2/4
f 271/2/4 555/2/4 283/2/4
f 214/6/4 771/6/4 165/6/4
f 165/6/4 771/6/4 772/6/4
f 166/6/4 700/6/4 163/6/4
f 163/6/4 700/6/4 704/6/4
f 164/6/4 773/6/4 211/6/4
f 211/6/4 773/6/4 774/6/4
f 484/3/5 514/3/5 481/3/5
f 481/3/5 514/3/5 513/3/5
f 515/3/5 190/3/5 512/3/5
f 512/3/5 190/3/5 189/3/5
f 191/3/5 518/3/5 192/3/5
f 192/3/5 518/3/5 517/3/5
f 519/3/5 194/3/5 516/3/5
f 516/3/5 194/3/5 193/3/5
f 195/3/5 158/3/5 196/3/5
f 196/3/5 158/3/5 157/3/5
f 521/3/5 549/3/5 520/3/5
f 520/3/5 549/3/5 548/3/5
f 550/3/5 240/3/5 547/3/5
f 547/3/5 240/3/5 239/3/5
f 241/3/5 198/3/5 242/3/5
f 242/3/5 198/3/5 197/3/5
f 567/3/5 263/3/5 566/3/5
f 566/3/5 263/3/5 262/3/5
f 264/3/5 244/3/5 265/3/5
f 265/3/5 244/3/5 243/3/5
f 569/3/5 267/3/5 568/3/5
f 568/3/5 267/3/5 266/3/5
f 571/3/5 270/3/5 551/3/5
f 551/3/5 270/3/5 245/3/5
f 572/3/5 269/3/5 570/3/5
f 570/3/5 269/3/5 268/3/5
f 586/3/5 289/3/5 579/3/5
f 579/3/5 289/3/5 281/3/5
f 554/2/5 249/2/5 204/2/5
f 204/2/5 249/2/5 205/2/5
f 389/3/5 775/3/5 387/3/5
f 387/3/5 775/3/5 37/3/5
f 324/3/5 776/3/5 595/3/5
f 595/3/5 776/3/5 301/3/5
f 775/3/5 42/3/5 38/3/5
f 38/3/5 42/3/5 41/3/5
f 776/3/5 306/3/5 302/3/5
f 302/3/5 306/3/5 305/3/5
f 395/3/5 54/3/5 393/3/5
f 393/3/5 54/3/5 53/3/5
f 307/3/5 294/3/5 589/3/5
f 589/3/5 294/3/5 293/3/5
f 404/3/5 65/3/5 399/3/5
f 399/3/5 65/3/5 61/3/5
f 295/3/5 288/3/5 585/3/5
f 585/3/5 288/3/5 287/3/5
f 555/3/5 248/3/5 553/3/5
f 553/3/5 248/3/5 247/3/5
f 379/3/5 777/3/5 377/3/5
f 377/3/5 777/3/5 376/3/5
f 344/3/5 778/3/5 605/3/5
f 605/3/5 778/3/5 604/3/5
f 777/3/5 779/3/5 373/3/5
f 373/3/5 779/3/5 21/3/5
f 778/3/5 780/3/5 601/3/5
f 601/3/5 780/3/5 317/3/5
f 779/3/5 26/3/5 22/3/5
f 22/3/5 26/3/5 25/3/5
f 780/3/5 322/3/5 318/3/5
f 318/3/5 322/3/5 321/3/5
f 488/4/5 765/4/5 486/4/5
f 486/4/5 765/4/5 764/4/5
f 765/1/5 769/1/5 764/1/5
f 764/1/5 769/1/5 705/1/5
f 767/2/5 771/2/5 429/2/5
f 429/2/5 771/2/5 102/2/5
f 769/2/5 773/2/5 705/2/5
f 705/2/5 773/2/5 704/2/5
f 773/6/5 164/6/5 704/6/5
f 704/6/5 164/6/5 163/6/5
f 781/1/5 782/1/5 746/1/5
f 746/1/5 782/1/5 750/1/5
f 782/5/5 783/5/5 750/5/5
f 750/5/5 783/5/5 752/5/5
f 783/1/5 784/1/5 752/1/5
f 752/1/5 784/1/5 756/1/5
f 785/4/5 786/4/5 217/4/5
f 217/4/5 786/4/5 723/4/5
f 364/3/5 365/3/5 361/3/5
f 361/3/5 365/3/5 356/3/5
f 626/3/5 627/3/5 623/3/5
f 623/3/5 627/3/5 618/3/5
f 787/4/5 788/4/5 738/4/5
f 738/4/5 788/4/5 740/4/5
f 13/3/5 369/3/5 2/3/5
f 2/3/5 369/3/5 360/3/5
f 788/5/5 789/5/5 740/5/5
f 740/5/5 789/5/5 742/5/5
f 345/3/5 631/3/5 334/3/5
f 334/3/5 631/3/5 622/3/5
f 17/3/5 10/3/5 6/3/5
f 6/3/5 10/3/5 9/3/5
f 171/1/5 673/1/5 489/1/5
f 489/1/5 673/1/5 744/1/5
f 349/3/5 342/3/5 338/3/5
f 338/3/5 342/3/5 341/3/5
f 673/5/5 677/5/5 744/5/5
f 744/5/5 677/5/5 746/5/5
f 677/4/5 679/4/5 781/4/5
f 781/4/5 679/4/5 782/4/5
f 380/2/5 29/2/5 379/2/5
f 379/2/5 29/2/5 26/2/5
f 679/1/5 681/1/5 782/1/5
f 782/1/5 681/1/5 783/1/5
f 343/2/5 325/2/5 344/2/5
f 344/2/5 325/2/5 322/2/5
f 681/5/5 685/5/5 783/5/5
f 783/5/5 685/5/5 784/5/5
f 685/4/5 500/4/5 756/4/5
f 756/4/5 500/4/5 488/4/5
f 530/5/5 693/5/5 529/5/5
f 529/5/5 693/5/5 766/5/5
f 693/1/5 699/1/5 766/1/5
f 766/1/5 699/1/5 770/1/5
f 707/6/5 212/6/5 774/6/5
f 774/6/5 212/6/5 211/6/5
f 790/5/5 791/5/5 714/5/5
f 714/5/5 791/5/5 719/5/5
f 216/5/5 650/5/5 785/5/5
f 785/5/5 650/5/5 786/5/5
f 650/1/5 653/1/5 723/1/5
f 723/1/5 653/1/5 727/1/5
f 653/5/5 503/5/5 727/5/5
f 727/5/5 503/5/5 167/5/5
f 179/1/5 667/1/5 493/1/5
f 493/1/5 667/1/5 738/1/5
f 368/3/5 14/3/5 353/3/5
f 353/3/5 14/3/5 1/3/5
f 667/5/5 669/5/5 787/5/5
f 787/5/5 669/5/5 788/5/5
f 630/3/5 346/3/5 615/3/5
f 615/3/5 346/3/5 333/3/5
f 669/4/5 671/4/5 788/4/5
f 788/4/5 671/4/5 789/4/5
f 372/3/5 18/3/5 357/3/5
f 357/3/5 18/3/5 5/3/5
f 671/1/5 172/1/5 742/1/5
f 742/1/5 172/1/5 492/1/5
f 634/3/5 350/3/5 619/3/5
f 619/3/5 350/3/5 337/3/5
f 382/3/5 31/3/5 380/3/5
f 380/3/5 31/3/5 29/3/5
f 610/3/5 327/3/5 343/3/5
f 343/3/5 327/3/5 325/3/5
f 390/2/5 45/2/5 389/2/5
f 389/2/5 45/2/5 42/2/5
f 328/2/5 309/2/5 324/2/5
f 324/2/5 309/2/5 306/2/5
f 396/2/5 57/2/5 395/2/5
f 395/2/5 57/2/5 54/2/5
f 502/5/5 691/5/5 500/5/5
f 500/5/5 691/5/5 692/5/5
f 310/2/5 297/2/5 307/2/5
f 307/2/5 297/2/5 294/2/5
f 405/2/5 68/2/5 404/2/5
f 404/2/5 68/2/5 65/2/5
f 691/1/5 697/1/5 692/1/5
f 692/1/5 697/1/5 698/1/5
f 298/2/5 290/2/5 295/2/5
f 295/2/5 290/2/5 288/2/5
f 430/2/5 105/2/5 694/2/5
f 694/2/5 105/2/5 702/2/5
f 697/2/5 708/2/5 698/2/5
f 698/2/5 708/2/5 706/2/5
f 291/2/5 272/2/5 283/2/5
f 283/2/5 272/2/5 271/2/5
f 708/6/5 176/6/5 706/6/5
f 706/6/5 176/6/5 175/6/5
f 532/1/5 636/1/5 526/1/5
f 526/1/5 636/1/5 711/1/5
f 636/5/5 641/5/5 711/5/5
f 711/5/5 641/5/5 714/5/5
f 641/1/5 792/1/5 790/1/5
f 790/1/5 792/1/5 791/1/5
f 792/1/5 218/1/5 719/1/5
f 719/1/5 218/1/5 208/1/5
f 506/5/5 658/5/5 168/5/5
f 168/5/5 658/5/5 732/5/5
f 658/1/5 662/1/5 732/1/5
f 732/1/5 662/1/5 734/1/5
f 662/5/5 665/5/5 734/5/5
f 734/5/5 665/5/5 736/5/5
f 665/4/5 180/4/5 736/4/5
f 736/4/5 180/4/5 496/4/5
f 386/3/5 34/3/5 383/3/5
f 383/3/5 34/3/5 33/3/5
f 614/3/5 330/3/5 611/3/5
f 611/3/5 330/3/5 329/3/5
f 49/3/5 47/3/5 793/3/5
f 793/3/5 47/3/5 45/3/5
f 313/3/5 311/3/5 794/3/5
f 794/3/5 311/3/5 309/3/5
f 588/3/5 292/3/5 298/3/5
f 298/3/5 292/3/5 290/3/5
f 558/3/5 251/3/5 556/3/5
f 556/3/5 251/3/5 250/3/5
f 392/3/5 50/3/5 390/3/5
f 390/3/5 50/3/5 793/3/5
f 600/3/5 314/3/5 328/3/5
f 328/3/5 314/3/5 794/3/5
f 398/3/5 59/3/5 396/3/5
f 396/3/5 59/3/5 57/3/5
f 594/3/5 299/3/5 310/3/5
f 310/3/5 299/3/5 297/3/5
f 410/3/5 72/3/5 405/3/5
f 405/3/5 72/3/5 68/3/5
f 584/3/5 285/3/5 582/3/5
f 582/3/5 285/3/5 284/3/5
f 223/2/5 221/2/5 557/2/5
f 557/2/5 221/2/5 252/2/5
f 574/3/5 274/3/5 573/3/5
f 573/3/5 274/3/5 273/3/5
f 561/3/5 254/3/5 559/3/5
f 559/3/5 254/3/5 253/3/5
f 576/3/5 276/3/5 575/3/5
f 575/3/5 276/3/5 275/3/5
f 578/3/5 278/3/5 577/3/5
f 577/3/5 278/3/5 277/3/5
f 279/3/5 257/3/5 280/3/5
f 280/3/5 257/3/5 256/3/5
f 538/3/5 564/3/5 537/3/5
f 537/3/5 564/3/5 563/3/5
f 565/3/5 259/3/5 562/3/5
f 562/3/5 259/3/5 258/3/5
f 260/3/5 230/3/5 261/3/5
f 261/3/5 230/3/5 229/3/5
f 511/3/5 541/3/5 508/3/5
f 508/3/5 541/3/5 540/3/5
f 542/3/5 232/3/5 539/3/5
f 539/3/5 232/3/5 231/3/5
f 233/3/5 545/3/5 234/3/5
f 234/3/5 545/3/5 544/3/5
f 546/3/5 236/3/5 543/3/5
f 543/3/5 236/3/5 235/3/5
f 237/3/5 186/3/5 238/3/5
f 238/3/5 186/3/5 185/3/5
f 483/3/6 482/3/6 452/3/6
f 452/3/6 482/3/6 449/3/6
f 451/3/6 450/3/6 131/3/6
f 131/3/6 450/3/6 132/3/6
f 130/3/6 129/3/6 456/3/6
f 456/3/6 129/3/6 453/3/6
f 455/3/6 454/3/6 135/3/6
f 135/3/6 454/3/6 136/3/6
f 134/3/6 133/3/6 159/3/6
f 159/3/6 133/3/6 160/3/6
f 458/3/6 457/3/6 414/3/6
f 414/3/6 457/3/6 411/3/6
f 413/3/6 412/3/6 85/3/6
f 85/3/6 412/3/6 86/3/6
f 84/3/6 83/3/6 139/3/6
f 139/3/6 83/3/6 140/3/6
f 416/3/6 415/3/6 77/3/6
f 77/3/6 415/3/6 78/3/6
f 76/3/6 75/3/6 89/3/6
f 89/3/6 75/3/6 90/3/6
f 419/3/6 418/3/6 93/3/6
f 93/3/6 418/3/6 94/3/6
f 422/3/6 421/3/6 97/3/6
f 97/3/6 421/3/6 98/3/6
f 399/3/6 424/3/6 61/3/6
f 61/3/6 424/3/6 100/3/6
f 401/3/6 400/3/6 63/3/6
f 63/3/6 400/3/6 64/3/6
f 426/2/6 99/2/6 101/2/6
f 101/2/6 99/2/6 207/2/6
f 25/3/6 388/3/6 795/3/6
f 795/3/6 388/3/6 40/3/6
f 597/3/6 596/3/6 796/3/6
f 796/3/6 596/3/6 304/3/6
f 795/3/6 39/3/6 43/3/6
f 43/3/6 39/3/6 44/3/6
f 796/3/6 303/3/6 307/3/6
f 307/3/6 303/3/6 308/3/6
f 42/3/6 394/3/6 55/3/6
f 55/3/6 394/3/6 56/3/6
f 591/3/6 590/3/6 295/3/6
f 295/3/6 590/3/6 296/3/6
f 54/3/6 403/3/6 66/3/6
f 66/3/6 403/3/6 67/3/6
f 580/3/6 572/3/6 283/3/6
f 283/3/6 572/3/6 269/3/6
f 428/3/6 427/3/6 103/3/6
f 103/3/6 427/3/6 104/3/6
f 9/3/6 378/3/6 797/3/6
f 797/3/6 378/3/6 375/3/6
f 607/3/6 606/3/6 798/3/6
f 798/3/6 606/3/6 603/3/6
f 797/3/6 374/3/6 799/3/6
f 799/3/6 374/3/6 24/3/6
f 798/3/6 602/3/6 800/3/6
f 800/3/6 602/3/6 320/3/6
f 799/3/6 23/3/6 27/3/6
f 27/3/6 23/3/6 28/3/6
f 800/3/6 319/3/6 323/3/6
f 323/3/6 319/3/6 324/3/6
f 460/4/6 487/4/6 762/4/6
f 762/4/6 487/4/6 763/4/6
f 762/1/6 763/1/6 768/1/6
f 768/1/6 763/1/6 701/1/6
f 768/2/6 701/2/6 772/2/6
f 772/2/6 701/2/6 700/2/6
f 770/2/6 525/2/6 774/2/6
f 774/2/6 525/2/6 206/2/6
f 772/6/6 700/6/6 165/6/6
f 165/6/6 700/6/6 166/6/6
f 801/5/6 802/5/6 803/5/6
f 803/5/6 802/5/6 715/5/6
f 491/1/6 490/1/6 804/1/6
f 804/1/6 490/1/6 743/1/6
f 805/5/6 747/5/6 806/5/6
f 806/5/6 747/5/6 751/5/6
f 806/1/6 751/1/6 807/1/6
f 807/1/6 751/1/6 755/1/6
f 807/5/6 755/5/6 463/5/6
f 463/5/6 755/5/6 460/5/6
f 462/4/6 461/4/6 808/4/6
f 808/4/6 461/4/6 761/4/6
f 809/5/6 710/5/6 810/5/6
f 810/5/6 710/5/6 802/5/6
f 810/1/6 801/1/6 811/1/6
f 811/1/6 801/1/6 803/1/6
f 363/3/6 362/3/6 366/3/6
f 366/3/6 362/3/6 355/3/6
f 625/3/6 624/3/6 628/3/6
f 628/3/6 624/3/6 617/3/6
f 812/4/6 737/4/6 813/4/6
f 813/4/6 737/4/6 739/4/6
f 16/3/6 3/3/6 370/3/6
f 370/3/6 3/3/6 359/3/6
f 813/5/6 739/5/6 814/5/6
f 814/5/6 739/5/6 741/5/6
f 348/3/6 335/3/6 632/3/6
f 632/3/6 335/3/6 621/3/6
f 20/3/6 7/3/6 11/3/6
f 11/3/6 7/3/6 12/3/6
f 174/5/6 491/5/6 815/5/6
f 815/5/6 491/5/6 804/5/6
f 352/3/6 339/3/6 343/3/6
f 343/3/6 339/3/6 344/3/6
f 815/5/6 743/5/6 675/5/6
f 675/5/6 743/5/6 745/5/6
f 675/4/6 745/4/6 678/4/6
f 678/4/6 745/4/6 747/4/6
f 10/2/6 9/2/6 30/2/6
f 30/2/6 9/2/6 27/2/6
f 678/1/6 805/1/6 680/1/6
f 680/1/6 805/1/6 806/1/6
f 608/2/6 607/2/6 326/2/6
f 326/2/6 607/2/6 323/2/6
f 680/5/6 806/5/6 684/5/6
f 684/5/6 806/5/6 807/5/6
f 684/4/6 807/4/6 465/4/6
f 465/4/6 807/4/6 463/4/6
f 464/5/6 462/5/6 688/5/6
f 688/5/6 462/5/6 808/5/6
f 688/1/6 761/1/6 694/1/6
f 694/1/6 761/1/6 767/1/6
f 702/6/6 771/6/6 213/6/6
f 213/6/6 771/6/6 214/6/6
f 219/4/6 141/4/6 647/4/6
f 647/4/6 141/4/6 722/4/6
f 647/5/6 722/5/6 651/5/6
f 651/5/6 722/5/6 724/5/6
f 651/1/6 724/1/6 654/1/6
f 654/1/6 724/1/6 728/1/6
f 654/5/6 728/5/6 504/5/6
f 504/5/6 728/5/6 170/5/6
f 816/1/6 731/1/6 817/1/6
f 817/1/6 731/1/6 733/1/6
f 817/5/6 733/5/6 818/5/6
f 818/5/6 733/5/6 735/5/6
f 182/1/6 494/1/6 666/1/6
f 666/1/6 494/1/6 737/1/6
f 367/3/6 354/3/6 15/3/6
f 15/3/6 354/3/6 4/3/6
f 666/5/6 812/5/6 668/5/6
f 668/5/6 812/5/6 813/5/6
f 629/3/6 616/3/6 347/3/6
f 347/3/6 616/3/6 336/3/6
f 668/4/6 813/4/6 670/4/6
f 670/4/6 813/4/6 814/4/6
f 371/3/6 358/3/6 19/3/6
f 19/3/6 358/3/6 8/3/6
f 670/1/6 741/1/6 173/1/6
f 173/1/6 741/1/6 491/1/6
f 633/3/6 620/3/6 351/3/6
f 351/3/6 620/3/6 340/3/6
f 381/3/6 10/3/6 32/3/6
f 32/3/6 10/3/6 30/3/6
f 609/3/6 608/3/6 328/3/6
f 328/3/6 608/3/6 326/3/6
f 31/2/6 25/2/6 46/2/6
f 46/2/6 25/2/6 43/2/6
f 598/2/6 597/2/6 310/2/6
f 310/2/6 597/2/6 307/2/6
f 45/2/6 42/2/6 58/2/6
f 58/2/6 42/2/6 55/2/6
f 501/5/6 465/5/6 690/5/6
f 690/5/6 465/5/6 689/5/6
f 592/2/6 591/2/6 298/2/6
f 298/2/6 591/2/6 295/2/6
f 57/2/6 54/2/6 69/2/6
f 69/2/6 54/2/6 66/2/6
f 690/1/6 689/1/6 696/1/6
f 696/1/6 689/1/6 695/1/6
f 587/2/6 580/2/6 291/2/6
f 291/2/6 580/2/6 283/2/6
f 68/2/6 65/2/6 106/2/6
f 106/2/6 65/2/6 107/2/6
f 696/2/6 695/2/6 709/2/6
f 709/2/6 695/2/6 703/2/6
f 533/2/6 699/2/6 220/2/6
f 220/2/6 699/2/6 707/2/6
f 709/6/6 703/6/6 177/6/6
f 177/6/6 703/6/6 178/6/6
f 468/1/6 527/1/6 635/1/6
f 635/1/6 527/1/6 710/1/6
f 635/4/6 809/4/6 637/4/6
f 637/4/6 809/4/6 810/4/6
f 637/5/6 810/5/6 643/5/6
f 643/5/6 810/5/6 811/5/6
f 643/1/6 715/1/6 143/1/6
f 143/1/6 715/1/6 210/1/6
f 505/5/6 169/5/6 819/5/6
f 819/5/6 169/5/6 731/5/6
f 819/5/6 816/5/6 660/5/6
f 660/5/6 816/5/6 817/5/6
f 660/1/6 817/1/6 663/1/6
f 663/1/6 817/1/6 818/1/6
f 663/4/6 735/4/6 181/4/6
f 181/4/6 735/4/6 495/4/6
f 385/3/6 384/3/6 35/3/6
f 35/3/6 384/3/6 36/3/6
f 613/3/6 612/3/6 331/3/6
f 331/3/6 612/3/6 332/3/6
f 52/3/6 820/3/6 48/3/6
f 48/3/6 820/3/6 46/3/6
f 316/3/6 821/3/6 312/3/6
f 312/3/6 821/3/6 310/3/6
f 406/3/6 57/3/6 71/3/6
f 71/3/6 57/3/6 69/3/6
f 432/3/6 431/3/6 109/3/6
f 109/3/6 431/3/6 110/3/6
f 391/3/6 31/3/6 51/3/6
f 51/3/6 31/3/6 820/3/6
f 599/3/6 598/3/6 315/3/6
f 315/3/6 598/3/6 821/3/6
f 397/3/6 45/3/6 60/3/6
f 60/3/6 45/3/6 58/3/6
f 593/3/6 592/3/6 300/3/6
f 300/3/6 592/3/6 298/3/6
f 409/3/6 408/3/6 73/3/6
f 73/3/6 408/3/6 74/3/6
f 573/3/6 587/3/6 273/3/6
f 273/3/6 587/3/6 291/3/6
f 111/2/6 433/2/6 222/2/6
f 222/2/6 433/2/6 108/2/6
f 435/3/6 410/3/6 113/3/6
f 113/3/6 410/3/6 72/3/6
f 438/3/6 437/3/6 115/3/6
f 115/3/6 437/3/6 116/3/6
f 441/3/6 440/3/6 119/3/6
f 119/3/6 440/3/6 120/3/6
f 444/3/6 443/3/6 81/3/6
f 81/3/6 443/3/6 82/3/6
f 80/3/6 79/3/6 123/3/6
f 123/3/6 79/3/6 124/3/6
f 472/3/6 471/3/6 448/3/6
f 448/3/6 471/3/6 445/3/6
f 447/3/6 446/3/6 127/3/6
f 127/3/6 446/3/6 128/3/6
f 126/3/6 125/3/6 147/3/6
f 147/3/6 125/3/6 148/3/6
f 510/3/6 509/3/6 476/3/6
f 476/3/6 509/3/6 473/3/6
f 475/3/6 474/3/6 151/3/6
f 151/3/6 474/3/6 152/3/6
f 150/3/6 149/3/6 480/3/6
f 480/3/6 149/3/6 477/3/6
f 479/3/6 478/3/6 155/3/6
f 155/3/6 478/3/6 156/3/6
f 154/3/6 153/3/6 187/3/6
f 187/3/6 153/3/6 188/3/6
