# Vengi binary mesh normalized for Tanks of Freedom II

mtllib ../../../materials/vox_grass.mtl
o palm_2

v 0.2 1.6 1.3
v 0.1 1.6 1.3
v 0.1 1.6 1.4
v 0.2 1.6 1.4
v 0.2 1.8 1.3
v 0.1 1.8 1.3
v 0.1 1.8 1.4
v 0.2 1.8 1.4
v 0.1 1.9 1.3
v -0.1 1.9 1.3
v -0.1 1.9 1.4
v 0.1 1.9 1.4
v -0.1 1.6 1.3
v -0.2 1.6 1.3
v -0.2 1.6 1.4
v -0.1 1.6 1.4
v -0.1 1.8 1.3
v -0.2 1.8 1.3
v -0.2 1.8 1.4
v -0.1 1.8 1.4
v 0.3 2.1 1.2
v 0.2 2.1 1.2
v 0.2 2.1 1.3
v 0.3 2.1 1.3
v 0.2 2.2 1.2
v 0.1 2.2 1.2
v 0.1 2.2 1.3
v 0.2 2.2 1.3
v -0.1 2.2 1.2
v -0.1 2.2 1.3
v -0.2 2.2 1.2
v -0.2 2.2 1.3
v -0.2 2.1 1.2
v -0.3 2.1 1.2
v -0.3 2.1 1.3
v -0.2 2.1 1.3
v 0.4 2.3 1.1
v 0.3 2.3 1.1
v 0.3 2.3 1.2
v 0.4 2.3 1.2
v 0.3 2.4 1.1
v 0.2 2.4 1.1
v 0.2 2.4 1.2
v 0.3 2.4 1.2
v -0.2 2.4 1.1
v -0.2 2.4 1.2
v -0.3 2.4 1.1
v -0.3 2.4 1.2
v -0.3 2.3 1.1
v -0.4 2.3 1.1
v -0.4 2.3 1.2
v -0.3 2.3 1.2
v 0.4 2.5 1
v 0.2 2.5 1
v 0.2 2.5 1.1
v 0.4 2.5 1.1
v -0.2 2.5 1
v -0.2 2.5 1.1
v -0.4 2.5 1
v -0.4 2.5 1.1
v 0.4 2.6 0.8
v 0.3 2.6 0.8
v 0.3 2.6 0.9
v 0.4 2.6 0.9
v 0.2 2.6 0.8
v 0.2 2.6 1
v 0.3 2.6 1
v -0.2 2.6 0.8
v -0.2 2.6 1
v -0.3 2.6 0.8
v -0.3 2.6 1
v -0.4 2.6 0.8
v -0.4 2.6 0.9
v -0.3 2.6 0.9
v 0.8 2.3 0.7
v 0.7 2.3 0.7
v 0.7 2.3 0.8
v 0.8 2.3 0.8
v -0.7 2.3 0.7
v -0.8 2.3 0.7
v -0.8 2.3 0.8
v -0.7 2.3 0.8
v 0.9 2.1 0.6
v 0.8 2.1 0.6
v 0.8 2.1 0.7
v 0.9 2.1 0.7
v 0.8 2.4 0.6
v 0.7 2.4 0.6
v 0.7 2.4 0.7
v 0.8 2.4 0.7
v 0.7 2.5 0.6
v 0.6 2.5 0.6
v 0.6 2.5 0.8
v 0.7 2.5 0.8
v 0.6 2.6 0.6
v 0.5 2.6 0.6
v 0.5 2.6 0.7
v 0.6 2.6 0.7
v 0.4 2.6 0.6
v 0.5 2.6 0.8
v 0.3 2.7 0.6
v 0.2 2.7 0.6
v 0.2 2.7 0.7
v 0.3 2.7 0.7
v -0.2 2.7 0.6
v -0.2 2.7 0.8
v 0.2 2.7 0.8
v -0.3 2.7 0.6
v -0.3 2.7 0.7
v -0.2 2.7 0.7
v -0.4 2.6 0.6
v -0.5 2.6 0.6
v -0.5 2.6 0.8
v -0.6 2.6 0.6
v -0.6 2.6 0.7
v -0.5 2.6 0.7
v -0.6 2.5 0.6
v -0.7 2.5 0.6
v -0.7 2.5 0.8
v -0.6 2.5 0.8
v -0.7 2.4 0.6
v -0.8 2.4 0.6
v -0.8 2.4 0.7
v -0.7 2.4 0.7
v -0.8 2.1 0.6
v -0.9 2.1 0.6
v -0.9 2.1 0.7
v -0.8 2.1 0.7
v 1 1.6 0.5
v 0.9 1.6 0.5
v 0.9 1.6 0.6
v 1 1.6 0.6
v 1 1.8 0.5
v 0.9 1.8 0.5
v 0.9 1.8 0.6
v 1 1.8 0.6
v 0.9 2.2 0.5
v 0.8 2.2 0.5
v 0.8 2.2 0.6
v 0.9 2.2 0.6
v -0.8 2.2 0.5
v -0.9 2.2 0.5
v -0.9 2.2 0.6
v -0.8 2.2 0.6
v -0.9 1.6 0.5
v -1 1.6 0.5
v -1 1.6 0.6
v -0.9 1.6 0.6
v -0.9 1.8 0.5
v -1 1.8 0.5
v -1 1.8 0.6
v -0.9 1.8 0.6
v 1 1.9 0.3
v 0.9 1.9 0.3
v 0.9 1.9 0.5
v 1 1.9 0.5
v 0.9 2.2 0.3
v 0.8 2.2 0.3
v 0.2 2.8 0.3
v 0.1 2.8 0.3
v 0.1 2.8 0.5
v 0.2 2.8 0.5
v -0.1 2.8 0.3
v -0.2 2.8 0.3
v -0.2 2.8 0.5
v -0.1 2.8 0.5
v -0.8 2.2 0.3
v -0.9 2.2 0.3
v -0.9 1.9 0.3
v -1 1.9 0.3
v -1 1.9 0.5
v -0.9 1.9 0.5
v 1 1.6 0.2
v 0.9 1.6 0.2
v 0.9 1.6 0.3
v 1 1.6 0.3
v 1 1.8 0.2
v 0.9 1.8 0.2
v 0.9 1.8 0.3
v 1 1.8 0.3
v 0.9 2.2 0.2
v 0.8 2.2 0.2
v 0.8 2.4 0.2
v 0.7 2.4 0.2
v 0.7 2.5 0.2
v 0.6 2.5 0.2
v 0.6 2.6 0.2
v 0.4 2.6 0.2
v 0.4 2.7 0.2
v 0.2 2.7 0.2
v 0.4 2.7 0.6
v 0.1 2 0.2
v -0.1 2 0.2
v -0.1 2 0.3
v 0.1 2 0.3
v 0.1 2.8 0.2
v -0.1 2.8 0.2
v -0.1 2.8 0.6
v 0.1 2.8 0.6
v -0.2 2.7 0.2
v -0.4 2.7 0.2
v -0.4 2.7 0.6
v -0.4 2.6 0.2
v -0.6 2.6 0.2
v -0.6 2.5 0.2
v -0.7 2.5 0.2
v -0.7 2.4 0.2
v -0.8 2.4 0.2
v -0.8 2.2 0.2
v -0.9 2.2 0.2
v -0.9 1.6 0.2
v -1 1.6 0.2
v -1 1.6 0.3
v -0.9 1.6 0.3
v -0.9 1.8 0.2
v -1 1.8 0.2
v -1 1.8 0.3
v -0.9 1.8 0.3
v 0.9 2.1 0.1
v 0.8 2.1 0.1
v 0.8 2.1 0.2
v 0.9 2.1 0.2
v 0.8 2.4 0.1
v 0.7 2.4 0.1
v 0.6 2.6 0.1
v 0.4 2.6 0.1
v 0.3 2.7 0.1
v 0.2 2.7 0.1
v 0.3 2.7 0.2
v 0.1 1.6 0.1
v -0.1 1.6 0.1
v -0.1 1.6 0.2
v 0.1 1.6 0.2
v 0.1 0.4 0.1
v -0.2 0.4 0.1
v -0.2 0.4 0.2
v 0.1 0.4 0.2
v -0.2 2.7 0.1
v -0.3 2.7 0.1
v -0.3 2.7 0.2
v -0.5 2.6 0.1
v -0.6 2.6 0.1
v -0.5 2.6 0.2
v -0.7 2.4 0.1
v -0.8 2.4 0.1
v -0.8 2.1 0.1
v -0.9 2.1 0.1
v -0.9 2.1 0.2
v -0.8 2.1 0.2
v 0.8 2.3 0
v 0.7 2.3 0
v 0.7 2.3 0.1
v 0.8 2.3 0.1
v 0.7 2.5 0
v 0.6 2.5 0
v 0.5 2.6 0
v 0.4 2.6 0
v 0.5 2.6 0.1
v 0.1 1.2 0
v -0.1 1.2 0
v -0.1 1.2 0.1
v 0.1 1.2 0.1
v 0.2 2.7 0
v -0.2 2.7 0
v -0.4 2.6 0
v -0.5 2.6 0
v -0.6 2.5 0
v -0.7 2.5 0
v -0.7 2.3 0
v -0.8 2.3 0
v -0.8 2.3 0.1
v -0.7 2.3 0.1
v 0.4 2.6 -0.1
v 0.2 2.6 -0.1
v 0.2 2.6 0
v 0.1 0.8 -0.1
v -0.1 0.8 -0.1
v -0.1 0.8 0
v 0.1 0.8 0
v -0.3 2.6 -0.1
v -0.4 2.6 -0.1
v -0.3 2.6 0
v 0.3 2.6 -0.2
v 0.2 2.6 -0.2
v 0.3 2.6 -0.1
v 0.2 0.4 -0.2
v 0.1 0.4 -0.2
v 0.2 0.4 0.2
v -0.1 0.4 -0.2
v -0.1 0.4 -0.1
v 0.1 0.4 -0.1
v -0.2 0.4 -0.2
v -0.1 0.4 0.1
v -0.2 2.6 -0.2
v -0.2 2.6 0
v -0.3 2.6 -0.2
v 0.4 2.5 -0.3
v 0.2 2.5 -0.3
v 0.2 2.5 -0.2
v 0.4 2.5 -0.2
v -0.2 2.5 -0.3
v -0.2 2.5 -0.2
v -0.4 2.5 -0.3
v -0.4 2.5 -0.2
v 0.4 2.3 -0.4
v 0.3 2.3 -0.4
v 0.3 2.3 -0.3
v 0.4 2.3 -0.3
v 0.3 2.4 -0.4
v 0.2 2.4 -0.4
v 0.2 2.4 -0.3
v 0.3 2.4 -0.3
v -0.2 2.4 -0.4
v -0.2 2.4 -0.3
v -0.3 2.4 -0.4
v -0.3 2.4 -0.3
v -0.3 2.3 -0.4
v -0.4 2.3 -0.4
v -0.4 2.3 -0.3
v -0.3 2.3 -0.3
v 0.3 2.1 -0.5
v 0.2 2.1 -0.5
v 0.2 2.1 -0.4
v 0.3 2.1 -0.4
v 0.2 2.2 -0.5
v 0.1 2.2 -0.5
v 0.1 2.2 -0.4
v 0.2 2.2 -0.4
v -0.1 2.2 -0.5
v -0.1 2.2 -0.4
v -0.2 2.2 -0.5
v -0.2 2.2 -0.4
v -0.2 2.1 -0.5
v -0.3 2.1 -0.5
v -0.3 2.1 -0.4
v -0.2 2.1 -0.4
v 0.2 1.6 -0.6
v 0.1 1.6 -0.6
v 0.1 1.6 -0.5
v 0.2 1.6 -0.5
v 0.2 1.8 -0.6
v 0.1 1.8 -0.6
v 0.1 1.8 -0.5
v 0.2 1.8 -0.5
v 0.1 1.9 -0.6
v -0.1 1.9 -0.6
v -0.1 1.9 -0.5
v 0.1 1.9 -0.5
v -0.1 1.6 -0.6
v -0.2 1.6 -0.6
v -0.2 1.6 -0.5
v -0.1 1.6 -0.5
v -0.1 1.8 -0.6
v -0.2 1.8 -0.6
v -0.2 1.8 -0.5
v -0.1 1.8 -0.5
v 0.2 1.5 1.3
v 0.2 1.5 1.4
v 0.1 1.5 1.4
v 0.1 1.5 1.3
v 0.2 1.7 1.3
v 0.2 1.7 1.4
v 0.1 1.7 1.4
v 0.1 1.7 1.3
v 0.1 1.4 1.3
v 0.1 1.4 1.4
v -0.1 1.4 1.4
v -0.1 1.4 1.3
v -0.1 1.5 1.3
v -0.1 1.5 1.4
v -0.2 1.5 1.4
v -0.2 1.5 1.3
v -0.1 1.7 1.3
v -0.1 1.7 1.4
v -0.2 1.7 1.4
v -0.2 1.7 1.3
v 0.3 2 1.2
v 0.3 2 1.3
v 0.2 2 1.3
v 0.2 2 1.2
v 0.2 1.9 1.2
v 0.2 1.9 1.3
v 0.1 1.9 1.2
v -0.1 1.9 1.2
v -0.2 1.9 1.3
v -0.2 1.9 1.2
v -0.2 2 1.2
v -0.2 2 1.3
v -0.3 2 1.3
v -0.3 2 1.2
v 0.4 2.2 1.1
v 0.4 2.2 1.2
v 0.2 2.2 1.1
v -0.2 2.2 1.1
v -0.4 2.2 1.2
v -0.4 2.2 1.1
v 0.4 2.4 1
v 0.4 2.4 1.1
v 0.2 2.4 1
v -0.2 2.4 1
v -0.4 2.4 1.1
v -0.4 2.4 1
v 0.4 2.5 0.8
v 0.4 2.5 0.9
v 0.3 2.5 0.9
v 0.3 2.5 0.8
v 0.3 2.5 1
v 0.2 2.5 0.8
v -0.2 2.5 0.8
v -0.3 2.5 1
v -0.3 2.5 0.8
v -0.3 2.5 0.9
v -0.4 2.5 0.9
v -0.4 2.5 0.8
v 0.9 2 0.6
v 0.9 2 0.7
v 0.8 2 0.7
v 0.8 2 0.6
v 0.8 2.2 0.8
v 0.7 2.2 0.8
v 0.7 2.2 0.6
v 0.7 2.4 0.8
v 0.6 2.4 0.8
v 0.6 2.4 0.6
v 0.6 2.5 0.7
v 0.5 2.5 0.7
v 0.5 2.5 0.6
v 0.5 2.5 0.8
v 0.4 2.5 0.6
v 0.3 2.6 0.6
v 0.3 2.6 0.7
v 0.2 2.6 0.7
v 0.2 2.6 0.6
v -0.2 2.6 0.6
v -0.2 2.6 0.7
v -0.3 2.6 0.7
v -0.3 2.6 0.6
v -0.4 2.5 0.6
v -0.5 2.5 0.8
v -0.5 2.5 0.6
v -0.5 2.5 0.7
v -0.6 2.5 0.7
v -0.6 2.4 0.6
v -0.6 2.4 0.8
v -0.7 2.4 0.8
v -0.7 2.2 0.6
v -0.7 2.2 0.8
v -0.8 2.2 0.8
v -0.8 2 0.6
v -0.8 2 0.7
v -0.9 2 0.7
v -0.9 2 0.6
v 1 1.5 0.5
v 1 1.5 0.6
v 0.9 1.5 0.6
v 0.9 1.5 0.5
v 1 1.7 0.5
v 1 1.7 0.6
v 0.9 1.7 0.6
v 0.9 1.7 0.5
v 0.9 1.9 0.6
v 0.8 1.9 0.6
v 0.8 1.9 0.5
v 0.1 2.4 0.5
v 0.1 2.4 0.6
v 0 2.4 0.6
v 0 2.4 0.5
v -0.1 2.4 0.6
v -0.1 2.4 0.5
v -0.8 1.9 0.5
v -0.8 1.9 0.6
v -0.9 1.9 0.6
v -0.9 1.5 0.5
v -0.9 1.5 0.6
v -1 1.5 0.6
v -1 1.5 0.5
v -0.9 1.7 0.5
v -0.9 1.7 0.6
v -1 1.7 0.6
v -1 1.7 0.5
v 0.1 2 0.4
v 0.1 2 0.5
v -0.1 2 0.5
v -0.1 2 0.4
v 1 1.4 0.3
v 1 1.4 0.5
v 0.9 1.4 0.5
v 0.9 1.4 0.3
v 0.8 1.9 0.3
v 0.2 2.4 0.3
v 0.2 2.4 0.5
v 0.1 2.4 0.3
v 0.1 1.6 0.3
v 0.1 1.6 0.4
v 0 1.6 0.4
v 0 1.6 0.3
v -0.1 1.6 0.4
v -0.1 1.6 0.3
v -0.1 2.4 0.3
v -0.2 2.4 0.5
v -0.2 2.4 0.3
v -0.8 1.9 0.3
v -0.9 1.4 0.3
v -0.9 1.4 0.5
v -1 1.4 0.5
v -1 1.4 0.3
v 1 1.5 0.2
v 1 1.5 0.3
v 0.9 1.5 0.3
v 0.9 1.5 0.2
v 1 1.7 0.2
v 1 1.7 0.3
v 0.9 1.7 0.3
v 0.9 1.7 0.2
v 0.9 1.9 0.2
v 0.8 1.9 0.2
v 0.7 2.2 0.2
v 0.6 2.4 0.2
v 0.4 2.5 0.2
v 0.2 2.6 0.2
v 0.1 1.2 0.2
v 0.1 1.2 0.3
v 0 1.2 0.3
v 0 1.2 0.2
v -0.1 1.2 0.3
v -0.1 1.2 0.2
v 0.1 2.4 0.2
v -0.1 2.4 0.2
v -0.2 2.6 0.2
v -0.4 2.5 0.2
v -0.6 2.4 0.2
v -0.7 2.2 0.2
v -0.8 1.9 0.2
v -0.9 1.9 0.2
v -0.9 1.5 0.2
v -0.9 1.5 0.3
v -1 1.5 0.3
v -1 1.5 0.2
v -0.9 1.7 0.2
v -0.9 1.7 0.3
v -1 1.7 0.3
v -1 1.7 0.2
v 0.9 2 0.1
v 0.9 2 0.2
v 0.8 2 0.2
v 0.8 2 0.1
v 0.6 2.5 0.1
v 0.4 2.5 0.1
v 0.3 2.6 0.1
v 0.3 2.6 0.2
v 0.2 2.6 0.1
v 0.1 0.8 0.1
v 0.1 0.8 0.2
v -0.1 0.8 0.2
v -0.1 0.8 0.1
v -0.2 2.6 0.1
v -0.3 2.6 0.2
v -0.3 2.6 0.1
v -0.5 2.5 0.1
v -0.5 2.5 0.2
v -0.6 2.5 0.1
v -0.8 2 0.1
v -0.8 2 0.2
v -0.9 2 0.2
v -0.9 2 0.1
v 0.8 2.2 0
v 0.7 2.2 0
v 0.7 2.4 0
v 0.6 2.4 0
v 0.5 2.5 0
v 0.5 2.5 0.1
v 0.4 2.5 0
v -0.4 2.5 0
v -0.5 2.5 0
v -0.6 2.4 0
v -0.7 2.4 0
v -0.7 2.2 0
v -0.8 2.2 0
v 0.4 2.5 -0.1
v 0.2 2.5 0
v 0.2 2.5 -0.1
v -0.3 2.5 -0.1
v -0.3 2.5 0
v -0.4 2.5 -0.1
v 0.3 2.5 -0.2
v 0.3 2.5 -0.1
v 0.2 0 -0.2
v 0.2 0 0.2
v -0.2 0 0.2
v -0.2 0 -0.2
v -0.2 2.5 0
v -0.3 2.5 -0.2
v 0.4 2.4 -0.3
v 0.4 2.4 -0.2
v 0.2 2.4 -0.2
v -0.2 2.4 -0.2
v -0.4 2.4 -0.2
v -0.4 2.4 -0.3
v 0.4 2.2 -0.4
v 0.4 2.2 -0.3
v 0.2 2.2 -0.3
v -0.2 2.2 -0.3
v -0.4 2.2 -0.3
v -0.4 2.2 -0.4
v 0.3 2 -0.5
v 0.3 2 -0.4
v 0.2 2 -0.4
v 0.2 2 -0.5
v 0.2 1.9 -0.5
v 0.2 1.9 -0.4
v 0.1 1.9 -0.4
v -0.1 1.9 -0.4
v -0.2 1.9 -0.4
v -0.2 1.9 -0.5
v -0.2 2 -0.5
v -0.2 2 -0.4
v -0.3 2 -0.4
v -0.3 2 -0.5
v 0.2 1.5 -0.6
v 0.2 1.5 -0.5
v 0.1 1.5 -0.5
v 0.1 1.5 -0.6
v 0.2 1.7 -0.6
v 0.2 1.7 -0.5
v 0.1 1.7 -0.5
v 0.1 1.7 -0.6
v 0.1 1.4 -0.6
v 0.1 1.4 -0.5
v -0.1 1.4 -0.5
v -0.1 1.4 -0.6
v -0.1 1.5 -0.6
v -0.1 1.5 -0.5
v -0.2 1.5 -0.5
v -0.2 1.5 -0.6
v -0.1 1.7 -0.6
v -0.1 1.7 -0.5
v -0.2 1.7 -0.5
v -0.2 1.7 -0.6
v -0.2 0.2 0.2
v -0.2 0.2 -0.2
v -0.2 0.3 0.2
v -0.2 0.3 -0.2
v -0.1 0.5 0.1
v -0.1 0.5 0
v -0.1 0.4 0
v -0.1 0.6 0
v -0.1 0.6 -0.1
v -0.1 0.7 0.1
v -0.1 0.7 0
v -0.1 0.7 -0.1
v -0.1 0.9 0.2
v -0.1 0.9 0
v -0.1 1 0.2
v -0.1 1 0
v -0.1 1.3 0.3
v -0.1 1.3 0.1
v -0.1 1.7 0.4
v -0.1 1.7 0.2
v -0.1 1.9 0.4
v -0.1 1.9 0.2
v 0.7 2.3 0.6
v -0.8 2.3 0.6
v 0.7 2.2 0.1
v -0.8 2.2 0.1
v -0.1 2.5 0.6
v -0.1 2.5 0.5
v -0.2 2.5 0.5
v -0.2 2.5 0.3
v -0.1 2.5 0.3
v -0.1 2.5 0.2
v -0.1 2.6 0.6
v -0.1 2.6 0.5
v -0.2 2.6 0.5
v -0.2 2.6 0.3
v -0.1 2.6 0.3
v -0.1 2.6 0.2
v 0.2 2.7 0.5
v 0.2 2.6 0.5
v -0.1 2.7 0.6
v -0.1 2.7 0.5
v 0.2 2.7 0.3
v 0.2 2.6 0.3
v -0.1 2.7 0.3
v -0.1 2.7 0.2
v -0.2 2.7 0.3
v -0.2 2.7 0.5
v 0.2 0.1 0.2
v 0.2 0.1 -0.2
v 0.2 0.2 0.2
v 0.2 0.2 -0.2
v 0.1 0.5 0.1
v 0.1 0.5 -0.1
v 0.1 0.6 0
v 0.1 0.5 0
v 0.1 0.6 -0.1
v 0.1 0.7 0.1
v 0.1 0.7 0
v 0.1 0.7 -0.1
v 0.1 0.9 0.2
v 0.1 0.9 0
v 0.1 1 0.2
v 0.1 1 0
v 0.1 1 0.1
v 0.1 1.3 0.3
v 0.1 1.3 0.2
v 0.1 1.3 0.1
v 0.1 1.4 0.3
v 0.1 1.4 0.1
v 0.1 1.5 0.3
v 0.1 1.5 0.1
v 0.1 1.5 0.2
v 0.1 1.7 0.4
v 0.1 1.7 0.3
v 0.1 1.7 0.2
v 0.1 1.8 0.4
v 0.1 1.8 0.3
v 0.1 1.9 0.4
v 0.1 1.9 0.3
v 0.1 1.9 0.2
v 0.8 2.3 0.6
v -0.7 2.3 0.6
v 0.8 2.2 0.1
v -0.7 2.2 0.1
v 0.1 2.5 0.6
v 0.1 2.5 0.5
v 0.2 2.5 0.5
v 0.2 2.5 0.3
v 0.1 2.5 0.3
v 0.1 2.5 0.2
v 0.1 2.6 0.6
v 0.1 2.6 0.5
v 0.1 2.6 0.3
v 0.1 2.6 0.2
v 0.1 2.7 0.6
v 0.1 2.7 0.5
v 0.1 2.7 0.3
v 0.1 2.7 0.2
v 0.2 2.3 1.1
v 0.2 2.3 -0.4
v 0.1 0.1 -0.2
v 0.1 0.2 -0.2
v 0.1 2 1.2
v 0.1 2 -0.5
v 0.1 2.1 1.2
v 0.1 2.1 -0.5
v 0 0.4 -0.1
v 0 0.5 -0.1
v 0 1.2 0.1
v 0 1.3 0.1
v 0 1.4 0.1
v -0.1 0.5 -0.1
v -0.1 1.4 0.1
v -0.2 0.1 -0.2
v 0.1 0.3 -0.2
v -0.2 2.3 1.1
v -0.2 2.3 -0.4
v 0.2 2.3 1.2
v 0.2 2.3 -0.3
v 0.1 2 1.3
v 0.1 2 -0.4
v 0.1 2.1 1.3
v 0.1 2.1 -0.4
v 0 0.1 0.2
v 0 0.2 0.2
v 0 0.4 0.2
v 0 1.3 0.3
v 0 1.4 0.3
v 0 1.5 0.3
v 0 1.7 0.4
v 0 1.8 0.4
v 0 2.5 0.6
v -0.1 1.4 0.3
v -0.1 1.5 0.3
v -0.1 1.8 0.4
v -0.2 0.1 0.2
v 0 0.3 0.2
v -0.2 2.3 1.2
v -0.2 2.3 -0.3

vt 0.00585938 0.5
vt 0.0449219 0.5
vt 0.0488281 0.5
vt 0.0683594 0.5
vt 0.0839844 0.5
vt 0.0996094 0.5

vn 0 1 0
vn 0 -1 0
vn -1 0 0
vn 1 0 0
vn 0 0 -1
vn 0 0 1

usemtl palette
f 1/3/1 2/3/1 4/3/1
f 4/3/1 2/3/1 3/3/1
f 5/3/1 6/3/1 8/3/1
f 8/3/1 6/3/1 7/3/1
f 9/3/1 10/3/1 12/3/1
f 12/3/1 10/3/1 11/3/1
f 13/3/1 14/3/1 16/3/1
f 16/3/1 14/3/1 15/3/1
f 17/3/1 18/3/1 20/3/1
f 20/3/1 18/3/1 19/3/1
f 21/3/1 22/3/1 24/3/1
f 24/3/1 22/3/1 23/3/1
f 25/3/1 26/3/1 28/3/1
f 28/3/1 26/3/1 27/3/1
f 26/2/1 29/2/1 27/2/1
f 27/2/1 29/2/1 30/2/1
f 29/3/1 31/3/1 30/3/1
f 30/3/1 31/3/1 32/3/1
f 33/3/1 34/3/1 36/3/1
f 36/3/1 34/3/1 35/3/1
f 37/3/1 38/3/1 40/3/1
f 40/3/1 38/3/1 39/3/1
f 41/3/1 42/3/1 44/3/1
f 44/3/1 42/3/1 43/3/1
f 42/2/1 45/2/1 43/2/1
f 43/2/1 45/2/1 46/2/1
f 45/3/1 47/3/1 46/3/1
f 46/3/1 47/3/1 48/3/1
f 49/3/1 50/3/1 52/3/1
f 52/3/1 50/3/1 51/3/1
f 53/3/1 54/3/1 56/3/1
f 56/3/1 54/3/1 55/3/1
f 54/2/1 57/2/1 55/2/1
f 55/2/1 57/2/1 58/2/1
f 57/3/1 59/3/1 58/3/1
f 58/3/1 59/3/1 60/3/1
f 61/3/1 62/3/1 64/3/1
f 64/3/1 62/3/1 63/3/1
f 62/3/1 65/3/1 67/3/1
f 67/3/1 65/3/1 66/3/1
f 65/2/1 68/2/1 66/2/1
f 66/2/1 68/2/1 69/2/1
f 68/3/1 70/3/1 69/3/1
f 69/3/1 70/3/1 71/3/1
f 70/3/1 72/3/1 74/3/1
f 74/3/1 72/3/1 73/3/1
f 75/3/1 76/3/1 78/3/1
f 78/3/1 76/3/1 77/3/1
f 79/3/1 80/3/1 82/3/1
f 82/3/1 80/3/1 81/3/1
f 83/3/1 84/3/1 86/3/1
f 86/3/1 84/3/1 85/3/1
f 87/3/1 88/3/1 90/3/1
f 90/3/1 88/3/1 89/3/1
f 91/3/1 92/3/1 94/3/1
f 94/3/1 92/3/1 93/3/1
f 95/3/1 96/3/1 98/3/1
f 98/3/1 96/3/1 97/3/1
f 96/3/1 99/3/1 100/3/1
f 100/3/1 99/3/1 61/3/1
f 101/3/1 102/3/1 104/3/1
f 104/3/1 102/3/1 103/3/1
f 102/2/1 105/2/1 107/2/1
f 107/2/1 105/2/1 106/2/1
f 105/3/1 108/3/1 110/3/1
f 110/3/1 108/3/1 109/3/1
f 111/3/1 112/3/1 72/3/1
f 72/3/1 112/3/1 113/3/1
f 112/3/1 114/3/1 116/3/1
f 116/3/1 114/3/1 115/3/1
f 117/3/1 118/3/1 120/3/1
f 120/3/1 118/3/1 119/3/1
f 121/3/1 122/3/1 124/3/1
f 124/3/1 122/3/1 123/3/1
f 125/3/1 126/3/1 128/3/1
f 128/3/1 126/3/1 127/3/1
f 129/3/1 130/3/1 132/3/1
f 132/3/1 130/3/1 131/3/1
f 133/3/1 134/3/1 136/3/1
f 136/3/1 134/3/1 135/3/1
f 137/3/1 138/3/1 140/3/1
f 140/3/1 138/3/1 139/3/1
f 141/3/1 142/3/1 144/3/1
f 144/3/1 142/3/1 143/3/1
f 145/3/1 146/3/1 148/3/1
f 148/3/1 146/3/1 147/3/1
f 149/3/1 150/3/1 152/3/1
f 152/3/1 150/3/1 151/3/1
f 153/3/1 154/3/1 156/3/1
f 156/3/1 154/3/1 155/3/1
f 157/2/1 158/2/1 137/2/1
f 137/2/1 158/2/1 138/2/1
f 159/6/1 160/6/1 162/6/1
f 162/6/1 160/6/1 161/6/1
f 163/6/1 164/6/1 166/6/1
f 166/6/1 164/6/1 165/6/1
f 167/2/1 168/2/1 141/2/1
f 141/2/1 168/2/1 142/2/1
f 169/3/1 170/3/1 172/3/1
f 172/3/1 170/3/1 171/3/1
f 173/3/1 174/3/1 176/3/1
f 176/3/1 174/3/1 175/3/1
f 177/3/1 178/3/1 180/3/1
f 180/3/1 178/3/1 179/3/1
f 181/3/1 182/3/1 157/3/1
f 157/3/1 182/3/1 158/3/1
f 183/2/1 184/2/1 87/2/1
f 87/2/1 184/2/1 88/2/1
f 185/2/1 186/2/1 91/2/1
f 91/2/1 186/2/1 92/2/1
f 187/2/1 188/2/1 95/2/1
f 95/2/1 188/2/1 99/2/1
f 189/2/1 190/2/1 191/2/1
f 191/2/1 190/2/1 102/2/1
f 192/1/1 193/1/1 195/1/1
f 195/1/1 193/1/1 194/1/1
f 196/6/1 197/6/1 199/6/1
f 199/6/1 197/6/1 198/6/1
f 200/2/1 201/2/1 105/2/1
f 105/2/1 201/2/1 202/2/1
f 203/2/1 204/2/1 111/2/1
f 111/2/1 204/2/1 114/2/1
f 205/2/1 206/2/1 117/2/1
f 117/2/1 206/2/1 118/2/1
f 207/2/1 208/2/1 121/2/1
f 121/2/1 208/2/1 122/2/1
f 209/3/1 210/3/1 167/3/1
f 167/3/1 210/3/1 168/3/1
f 211/3/1 212/3/1 214/3/1
f 214/3/1 212/3/1 213/3/1
f 215/3/1 216/3/1 218/3/1
f 218/3/1 216/3/1 217/3/1
f 219/3/1 220/3/1 222/3/1
f 222/3/1 220/3/1 221/3/1
f 223/3/1 224/3/1 183/3/1
f 183/3/1 224/3/1 184/3/1
f 225/3/1 226/3/1 187/3/1
f 187/3/1 226/3/1 188/3/1
f 227/3/1 228/3/1 229/3/1
f 229/3/1 228/3/1 190/3/1
f 230/5/1 231/5/1 233/5/1
f 233/5/1 231/5/1 232/5/1
f 234/5/1 235/5/1 237/5/1
f 237/5/1 235/5/1 236/5/1
f 238/3/1 239/3/1 200/3/1
f 200/3/1 239/3/1 240/3/1
f 241/3/1 242/3/1 243/3/1
f 243/3/1 242/3/1 204/3/1
f 244/3/1 245/3/1 207/3/1
f 207/3/1 245/3/1 208/3/1
f 246/3/1 247/3/1 249/3/1
f 249/3/1 247/3/1 248/3/1
f 250/3/1 251/3/1 253/3/1
f 253/3/1 251/3/1 252/3/1
f 254/3/1 255/3/1 185/3/1
f 185/3/1 255/3/1 186/3/1
f 256/3/1 257/3/1 258/3/1
f 258/3/1 257/3/1 226/3/1
f 259/5/1 260/5/1 262/5/1
f 262/5/1 260/5/1 261/5/1
f 263/2/1 264/2/1 190/2/1
f 190/2/1 264/2/1 200/2/1
f 265/3/1 266/3/1 203/3/1
f 203/3/1 266/3/1 243/3/1
f 267/3/1 268/3/1 205/3/1
f 205/3/1 268/3/1 206/3/1
f 269/3/1 270/3/1 272/3/1
f 272/3/1 270/3/1 271/3/1
f 273/3/1 274/3/1 257/3/1
f 257/3/1 274/3/1 275/3/1
f 276/5/1 277/5/1 279/5/1
f 279/5/1 277/5/1 278/5/1
f 280/3/1 281/3/1 282/3/1
f 282/3/1 281/3/1 265/3/1
f 283/3/1 284/3/1 285/3/1
f 285/3/1 284/3/1 274/3/1
f 286/5/1 287/5/1 288/5/1
f 288/5/1 287/5/1 237/5/1
f 287/5/1 289/5/1 291/5/1
f 291/5/1 289/5/1 290/5/1
f 289/5/1 292/5/1 293/5/1
f 293/5/1 292/5/1 235/5/1
f 284/2/1 294/2/1 275/2/1
f 275/2/1 294/2/1 295/2/1
f 294/3/1 296/3/1 295/3/1
f 295/3/1 296/3/1 282/3/1
f 297/3/1 298/3/1 300/3/1
f 300/3/1 298/3/1 299/3/1
f 298/2/1 301/2/1 299/2/1
f 299/2/1 301/2/1 302/2/1
f 301/3/1 303/3/1 302/3/1
f 302/3/1 303/3/1 304/3/1
f 305/3/1 306/3/1 308/3/1
f 308/3/1 306/3/1 307/3/1
f 309/3/1 310/3/1 312/3/1
f 312/3/1 310/3/1 311/3/1
f 310/2/1 313/2/1 311/2/1
f 311/2/1 313/2/1 314/2/1
f 313/3/1 315/3/1 314/3/1
f 314/3/1 315/3/1 316/3/1
f 317/3/1 318/3/1 320/3/1
f 320/3/1 318/3/1 319/3/1
f 321/3/1 322/3/1 324/3/1
f 324/3/1 322/3/1 323/3/1
f 325/3/1 326/3/1 328/3/1
f 328/3/1 326/3/1 327/3/1
f 326/2/1 329/2/1 327/2/1
f 327/2/1 329/2/1 330/2/1
f 329/3/1 331/3/1 330/3/1
f 330/3/1 331/3/1 332/3/1
f 333/3/1 334/3/1 336/3/1
f 336/3/1 334/3/1 335/3/1
f 337/3/1 338/3/1 340/3/1
f 340/3/1 338/3/1 339/3/1
f 341/3/1 342/3/1 344/3/1
f 344/3/1 342/3/1 343/3/1
f 345/3/1 346/3/1 348/3/1
f 348/3/1 346/3/1 347/3/1
f 349/3/1 350/3/1 352/3/1
f 352/3/1 350/3/1 351/3/1
f 353/3/1 354/3/1 356/3/1
f 356/3/1 354/3/1 355/3/1
f 357/3/2 358/3/2 360/3/2
f 360/3/2 358/3/2 359/3/2
f 361/3/2 362/3/2 364/3/2
f 364/3/2 362/3/2 363/3/2
f 365/3/2 366/3/2 368/3/2
f 368/3/2 366/3/2 367/3/2
f 369/3/2 370/3/2 372/3/2
f 372/3/2 370/3/2 371/3/2
f 373/3/2 374/3/2 376/3/2
f 376/3/2 374/3/2 375/3/2
f 377/3/2 378/3/2 380/3/2
f 380/3/2 378/3/2 379/3/2
f 381/3/2 382/3/2 383/3/2
f 383/3/2 382/3/2 9/3/2
f 383/2/2 9/2/2 384/2/2
f 384/2/2 9/2/2 10/2/2
f 384/3/2 10/3/2 386/3/2
f 386/3/2 10/3/2 385/3/2
f 387/3/2 388/3/2 390/3/2
f 390/3/2 388/3/2 389/3/2
f 391/3/2 392/3/2 393/3/2
f 393/3/2 392/3/2 25/3/2
f 393/2/2 25/2/2 394/2/2
f 394/2/2 25/2/2 31/2/2
f 394/3/2 31/3/2 396/3/2
f 396/3/2 31/3/2 395/3/2
f 397/3/2 398/3/2 399/3/2
f 399/3/2 398/3/2 42/3/2
f 399/2/2 42/2/2 400/2/2
f 400/2/2 42/2/2 45/2/2
f 400/3/2 45/3/2 402/3/2
f 402/3/2 45/3/2 401/3/2
f 403/3/2 404/3/2 406/3/2
f 406/3/2 404/3/2 405/3/2
f 406/3/2 407/3/2 408/3/2
f 408/3/2 407/3/2 54/3/2
f 408/2/2 54/2/2 409/2/2
f 409/2/2 54/2/2 57/2/2
f 409/3/2 57/3/2 411/3/2
f 411/3/2 57/3/2 410/3/2
f 411/3/2 412/3/2 414/3/2
f 414/3/2 412/3/2 413/3/2
f 415/3/2 416/3/2 418/3/2
f 418/3/2 416/3/2 417/3/2
f 139/3/2 419/3/2 421/3/2
f 421/3/2 419/3/2 420/3/2
f 88/3/2 422/3/2 424/3/2
f 424/3/2 422/3/2 423/3/2
f 92/3/2 425/3/2 427/3/2
f 427/3/2 425/3/2 426/3/2
f 427/3/2 428/3/2 429/3/2
f 429/3/2 428/3/2 403/3/2
f 430/3/2 431/3/2 433/3/2
f 433/3/2 431/3/2 432/3/2
f 433/2/2 65/2/2 434/2/2
f 434/2/2 65/2/2 68/2/2
f 434/3/2 435/3/2 437/3/2
f 437/3/2 435/3/2 436/3/2
f 438/3/2 414/3/2 440/3/2
f 440/3/2 414/3/2 439/3/2
f 440/3/2 441/3/2 117/3/2
f 117/3/2 441/3/2 442/3/2
f 443/3/2 444/3/2 121/3/2
f 121/3/2 444/3/2 445/3/2
f 446/3/2 447/3/2 144/3/2
f 144/3/2 447/3/2 448/3/2
f 449/3/2 450/3/2 452/3/2
f 452/3/2 450/3/2 451/3/2
f 453/3/2 454/3/2 456/3/2
f 456/3/2 454/3/2 455/3/2
f 457/3/2 458/3/2 460/3/2
f 460/3/2 458/3/2 459/3/2
f 155/3/2 461/3/2 463/3/2
f 463/3/2 461/3/2 462/3/2
f 464/4/2 465/4/2 467/4/2
f 467/4/2 465/4/2 466/4/2
f 467/5/2 466/5/2 469/5/2
f 469/5/2 466/5/2 468/5/2
f 470/3/2 471/3/2 172/3/2
f 172/3/2 471/3/2 472/3/2
f 473/3/2 474/3/2 476/3/2
f 476/3/2 474/3/2 475/3/2
f 477/3/2 478/3/2 480/3/2
f 480/3/2 478/3/2 479/3/2
f 481/5/2 482/5/2 484/5/2
f 484/5/2 482/5/2 483/5/2
f 485/3/2 486/3/2 488/3/2
f 488/3/2 486/3/2 487/3/2
f 154/2/2 155/2/2 489/2/2
f 489/2/2 155/2/2 463/2/2
f 490/4/2 491/4/2 492/4/2
f 492/4/2 491/4/2 464/4/2
f 493/5/2 494/5/2 496/5/2
f 496/5/2 494/5/2 495/5/2
f 496/1/2 495/1/2 498/1/2
f 498/1/2 495/1/2 497/1/2
f 499/5/2 469/5/2 501/5/2
f 501/5/2 469/5/2 500/5/2
f 502/2/2 470/2/2 169/2/2
f 169/2/2 470/2/2 172/2/2
f 503/3/2 504/3/2 506/3/2
f 506/3/2 504/3/2 505/3/2
f 507/3/2 508/3/2 510/3/2
f 510/3/2 508/3/2 509/3/2
f 511/3/2 512/3/2 514/3/2
f 514/3/2 512/3/2 513/3/2
f 515/3/2 154/3/2 516/3/2
f 516/3/2 154/3/2 489/3/2
f 182/2/2 139/2/2 517/2/2
f 517/2/2 139/2/2 421/2/2
f 184/2/2 88/2/2 518/2/2
f 518/2/2 88/2/2 424/2/2
f 186/2/2 92/2/2 519/2/2
f 519/2/2 92/2/2 429/2/2
f 188/2/2 99/2/2 520/2/2
f 520/2/2 99/2/2 433/2/2
f 521/5/2 522/5/2 524/5/2
f 524/5/2 522/5/2 523/5/2
f 524/1/2 523/1/2 526/1/2
f 526/1/2 523/1/2 525/1/2
f 527/5/2 492/5/2 528/5/2
f 528/5/2 492/5/2 499/5/2
f 529/2/2 434/2/2 203/2/2
f 203/2/2 434/2/2 111/2/2
f 530/2/2 438/2/2 205/2/2
f 205/2/2 438/2/2 117/2/2
f 531/2/2 443/2/2 207/2/2
f 207/2/2 443/2/2 121/2/2
f 532/2/2 446/2/2 209/2/2
f 209/2/2 446/2/2 144/2/2
f 533/3/2 502/3/2 534/3/2
f 534/3/2 502/3/2 169/3/2
f 535/3/2 536/3/2 538/3/2
f 538/3/2 536/3/2 537/3/2
f 539/3/2 540/3/2 542/3/2
f 542/3/2 540/3/2 541/3/2
f 543/3/2 544/3/2 546/3/2
f 546/3/2 544/3/2 545/3/2
f 547/3/2 186/3/2 548/3/2
f 548/3/2 186/3/2 519/3/2
f 549/3/2 550/3/2 551/3/2
f 551/3/2 550/3/2 520/3/2
f 552/5/2 553/5/2 555/5/2
f 555/5/2 553/5/2 554/5/2
f 556/3/2 529/3/2 558/3/2
f 558/3/2 529/3/2 557/3/2
f 559/3/2 560/3/2 561/3/2
f 561/3/2 560/3/2 205/3/2
f 562/3/2 563/3/2 565/3/2
f 565/3/2 563/3/2 564/3/2
f 566/3/2 182/3/2 567/3/2
f 567/3/2 182/3/2 517/3/2
f 568/3/2 184/3/2 569/3/2
f 569/3/2 184/3/2 518/3/2
f 570/3/2 571/3/2 572/3/2
f 572/3/2 571/3/2 548/3/2
f 275/2/2 520/2/2 295/2/2
f 295/2/2 520/2/2 529/2/2
f 573/3/2 530/3/2 574/3/2
f 574/3/2 530/3/2 560/3/2
f 575/3/2 531/3/2 576/3/2
f 576/3/2 531/3/2 207/3/2
f 577/3/2 532/3/2 578/3/2
f 578/3/2 532/3/2 209/3/2
f 579/3/2 572/3/2 581/3/2
f 581/3/2 572/3/2 580/3/2
f 582/3/2 583/3/2 584/3/2
f 584/3/2 583/3/2 573/3/2
f 585/3/2 586/3/2 299/3/2
f 299/3/2 586/3/2 581/3/2
f 587/5/2 588/5/2 590/5/2
f 590/5/2 588/5/2 589/5/2
f 299/2/2 580/2/2 302/2/2
f 302/2/2 580/2/2 591/2/2
f 302/3/2 591/3/2 592/3/2
f 592/3/2 591/3/2 583/3/2
f 593/3/2 594/3/2 311/3/2
f 311/3/2 594/3/2 595/3/2
f 311/2/2 595/2/2 314/2/2
f 314/2/2 595/2/2 596/2/2
f 314/3/2 596/3/2 598/3/2
f 598/3/2 596/3/2 597/3/2
f 599/3/2 600/3/2 328/3/2
f 328/3/2 600/3/2 601/3/2
f 328/2/2 601/2/2 332/2/2
f 332/2/2 601/2/2 602/2/2
f 332/3/2 602/3/2 604/3/2
f 604/3/2 602/3/2 603/3/2
f 605/3/2 606/3/2 608/3/2
f 608/3/2 606/3/2 607/3/2
f 609/3/2 610/3/2 348/3/2
f 348/3/2 610/3/2 611/3/2
f 348/2/2 611/2/2 347/2/2
f 347/2/2 611/2/2 612/2/2
f 347/3/2 612/3/2 614/3/2
f 614/3/2 612/3/2 613/3/2
f 615/3/2 616/3/2 618/3/2
f 618/3/2 616/3/2 617/3/2
f 619/3/2 620/3/2 622/3/2
f 622/3/2 620/3/2 621/3/2
f 623/3/2 624/3/2 626/3/2
f 626/3/2 624/3/2 625/3/2
f 627/3/2 628/3/2 630/3/2
f 630/3/2 628/3/2 629/3/2
f 631/3/2 632/3/2 634/3/2
f 634/3/2 632/3/2 633/3/2
f 635/3/2 636/3/2 638/3/2
f 638/3/2 636/3/2 637/3/2
f 639/5/3 640/5/3 589/5/3
f 589/5/3 640/5/3 590/5/3
f 641/1/3 642/1/3 639/1/3
f 639/1/3 642/1/3 640/1/3
f 236/5/3 292/5/3 641/5/3
f 641/5/3 292/5/3 642/5/3
f 643/1/3 644/1/3 293/1/3
f 293/1/3 644/1/3 645/1/3
f 646/5/3 647/5/3 645/5/3
f 645/5/3 647/5/3 290/5/3
f 648/5/3 649/5/3 643/5/3
f 643/5/3 649/5/3 644/5/3
f 649/1/3 650/1/3 646/1/3
f 646/1/3 650/1/3 647/1/3
f 555/1/3 278/1/3 648/1/3
f 648/1/3 278/1/3 649/1/3
f 278/5/3 277/5/3 649/5/3
f 649/5/3 277/5/3 650/5/3
f 651/5/3 652/5/3 554/5/3
f 554/5/3 652/5/3 278/5/3
f 653/1/3 654/1/3 651/1/3
f 651/1/3 654/1/3 652/1/3
f 526/5/3 260/5/3 653/5/3
f 653/5/3 260/5/3 654/5/3
f 655/1/3 656/1/3 525/1/3
f 525/1/3 656/1/3 261/1/3
f 370/3/3 369/3/3 367/3/3
f 367/3/3 369/3/3 368/3/3
f 632/3/3 631/3/3 629/3/3
f 629/3/3 631/3/3 630/3/3
f 15/3/3 14/3/3 371/3/3
f 371/3/3 14/3/3 372/3/3
f 131/3/3 130/3/3 455/3/3
f 455/3/3 130/3/3 456/3/3
f 147/3/3 146/3/3 475/3/3
f 475/3/3 146/3/3 476/3/3
f 175/3/3 174/3/3 509/3/3
f 509/3/3 174/3/3 510/3/3
f 213/3/3 212/3/3 537/3/3
f 537/3/3 212/3/3 538/3/3
f 498/5/3 231/5/3 655/5/3
f 655/5/3 231/5/3 656/5/3
f 351/3/3 350/3/3 633/3/3
f 633/3/3 350/3/3 634/3/3
f 374/3/3 373/3/3 16/3/3
f 16/3/3 373/3/3 13/3/3
f 657/1/3 658/1/3 497/1/3
f 497/1/3 658/1/3 232/1/3
f 636/3/3 635/3/3 352/3/3
f 352/3/3 635/3/3 349/3/3
f 19/3/3 18/3/3 375/3/3
f 375/3/3 18/3/3 376/3/3
f 135/3/3 134/3/3 459/3/3
f 459/3/3 134/3/3 460/3/3
f 151/3/3 150/3/3 479/3/3
f 479/3/3 150/3/3 480/3/3
f 179/3/3 178/3/3 513/3/3
f 513/3/3 178/3/3 514/3/3
f 217/3/3 216/3/3 541/3/3
f 541/3/3 216/3/3 542/3/3
f 355/3/3 354/3/3 637/3/3
f 637/3/3 354/3/3 638/3/3
f 11/3/3 10/3/3 20/3/3
f 20/3/3 10/3/3 17/3/3
f 155/3/3 154/3/3 487/3/3
f 487/3/3 154/3/3 488/3/3
f 171/3/3 170/3/3 505/3/3
f 505/3/3 170/3/3 506/3/3
f 659/5/3 660/5/3 657/5/3
f 657/5/3 660/5/3 658/5/3
f 347/3/3 346/3/3 356/3/3
f 356/3/3 346/3/3 353/3/3
f 388/3/3 387/3/3 385/3/3
f 385/3/3 387/3/3 386/3/3
f 484/1/3 193/1/3 659/1/3
f 659/1/3 193/1/3 660/1/3
f 616/3/3 615/3/3 613/3/3
f 613/3/3 615/3/3 614/3/3
f 35/3/3 34/3/3 389/3/3
f 389/3/3 34/3/3 390/3/3
f 85/3/3 84/3/3 417/3/3
f 417/3/3 84/3/3 418/3/3
f 127/3/3 126/3/3 451/3/3
f 451/3/3 126/3/3 452/3/3
f 221/3/3 220/3/3 545/3/3
f 545/3/3 220/3/3 546/3/3
f 248/3/3 247/3/3 564/3/3
f 564/3/3 247/3/3 565/3/3
f 335/3/3 334/3/3 617/3/3
f 617/3/3 334/3/3 618/3/3
f 32/3/3 31/3/3 36/3/3
f 36/3/3 31/3/3 33/3/3
f 139/3/3 138/3/3 462/3/3
f 462/3/3 138/3/3 463/3/3
f 143/3/3 142/3/3 472/3/3
f 472/3/3 142/3/3 172/3/3
f 138/2/3 158/2/3 463/2/3
f 463/2/3 158/2/3 489/2/3
f 142/2/3 168/2/3 172/2/3
f 172/2/3 168/2/3 169/2/3
f 158/3/3 182/3/3 489/3/3
f 489/3/3 182/3/3 516/3/3
f 168/3/3 210/3/3 169/3/3
f 169/3/3 210/3/3 534/3/3
f 332/3/3 331/3/3 336/3/3
f 336/3/3 331/3/3 333/3/3
f 51/3/3 50/3/3 395/3/3
f 395/3/3 50/3/3 396/3/3
f 77/3/3 661/3/3 420/3/3
f 420/3/3 661/3/3 421/3/3
f 81/3/3 662/3/3 448/3/3
f 448/3/3 662/3/3 144/3/3
f 252/3/3 251/3/3 663/3/3
f 663/3/3 251/3/3 567/3/3
f 271/3/3 270/3/3 664/3/3
f 664/3/3 270/3/3 578/3/3
f 319/3/3 318/3/3 603/3/3
f 603/3/3 318/3/3 604/3/3
f 48/3/3 47/3/3 52/3/3
f 52/3/3 47/3/3 49/3/3
f 89/3/3 88/3/3 76/3/3
f 76/3/3 88/3/3 661/3/3
f 123/3/3 122/3/3 80/3/3
f 80/3/3 122/3/3 662/3/3
f 469/5/3 499/5/3 483/5/3
f 483/5/3 499/5/3 194/5/3
f 88/2/3 184/2/3 421/2/3
f 421/2/3 184/2/3 517/2/3
f 122/2/3 208/2/3 144/2/3
f 144/2/3 208/2/3 209/2/3
f 184/3/3 224/3/3 517/3/3
f 517/3/3 224/3/3 663/3/3
f 208/3/3 245/3/3 209/3/3
f 209/3/3 245/3/3 664/3/3
f 316/3/3 315/3/3 320/3/3
f 320/3/3 315/3/3 317/3/3
f 60/3/3 59/3/3 401/3/3
f 401/3/3 59/3/3 402/3/3
f 93/3/3 92/3/3 423/3/3
f 423/3/3 92/3/3 424/3/3
f 119/3/3 118/3/3 445/3/3
f 445/3/3 118/3/3 121/3/3
f 665/5/3 666/5/3 468/5/3
f 468/5/3 666/5/3 469/5/3
f 667/5/3 668/5/3 500/5/3
f 500/5/3 668/5/3 501/5/3
f 92/2/3 186/2/3 424/2/3
f 424/2/3 186/2/3 518/2/3
f 669/5/3 670/5/3 499/5/3
f 499/5/3 670/5/3 528/5/3
f 118/2/3 206/2/3 121/2/3
f 121/2/3 206/2/3 207/2/3
f 186/3/3 255/3/3 518/3/3
f 518/3/3 255/3/3 569/3/3
f 206/3/3 268/3/3 207/3/3
f 207/3/3 268/3/3 576/3/3
f 304/3/3 303/3/3 597/3/3
f 597/3/3 303/3/3 598/3/3
f 71/3/3 74/3/3 410/3/3
f 410/3/3 74/3/3 412/3/3
f 73/3/3 72/3/3 413/3/3
f 413/3/3 72/3/3 414/3/3
f 113/3/3 116/3/3 439/3/3
f 439/3/3 116/3/3 441/3/3
f 61/3/3 99/3/3 403/3/3
f 403/3/3 99/3/3 429/3/3
f 115/3/3 114/3/3 442/3/3
f 442/3/3 114/3/3 117/3/3
f 671/1/3 672/1/3 665/1/3
f 665/1/3 672/1/3 666/1/3
f 673/1/3 674/1/3 667/1/3
f 667/1/3 674/1/3 668/1/3
f 99/2/3 188/2/3 429/2/3
f 429/2/3 188/2/3 519/2/3
f 675/1/3 676/1/3 669/1/3
f 669/1/3 676/1/3 670/1/3
f 114/2/3 204/2/3 117/2/3
f 117/2/3 204/2/3 205/2/3
f 204/3/3 242/3/3 205/3/3
f 205/3/3 242/3/3 561/3/3
f 188/3/3 257/3/3 519/3/3
f 519/3/3 257/3/3 572/3/3
f 241/3/3 266/3/3 559/3/3
f 559/3/3 266/3/3 574/3/3
f 265/3/3 281/3/3 573/3/3
f 573/3/3 281/3/3 584/3/3
f 280/3/3 296/3/3 582/3/3
f 582/3/3 296/3/3 592/3/3
f 106/2/3 110/2/3 68/2/3
f 68/2/3 110/2/3 435/2/3
f 109/3/3 108/3/3 436/3/3
f 436/3/3 108/3/3 437/3/3
f 102/2/3 677/2/3 433/2/3
f 433/2/3 677/2/3 678/2/3
f 679/2/3 680/2/3 671/2/3
f 671/2/3 680/2/3 672/2/3
f 681/2/3 190/2/3 682/2/3
f 682/2/3 190/2/3 520/2/3
f 683/2/3 684/2/3 675/2/3
f 675/2/3 684/2/3 676/2/3
f 202/2/3 201/2/3 111/2/3
f 111/2/3 201/2/3 203/2/3
f 240/3/3 239/3/3 557/3/3
f 557/3/3 239/3/3 558/3/3
f 238/2/3 264/2/3 556/2/3
f 556/2/3 264/2/3 295/2/3
f 198/6/3 166/6/3 679/6/3
f 679/6/3 166/6/3 680/6/3
f 165/6/3 164/6/3 686/6/3
f 686/6/3 164/6/3 685/6/3
f 163/6/3 197/6/3 683/6/3
f 683/6/3 197/6/3 684/6/3
f 687/5/4 588/5/4 688/5/4
f 688/5/4 588/5/4 587/5/4
f 689/1/4 687/1/4 690/1/4
f 690/1/4 687/1/4 688/1/4
f 288/5/4 689/5/4 286/5/4
f 286/5/4 689/5/4 690/5/4
f 691/1/4 234/1/4 692/1/4
f 692/1/4 234/1/4 291/1/4
f 693/5/4 694/5/4 695/5/4
f 695/5/4 694/5/4 692/5/4
f 696/5/4 691/5/4 697/5/4
f 697/5/4 691/5/4 694/5/4
f 697/1/4 693/1/4 698/1/4
f 698/1/4 693/1/4 695/1/4
f 552/1/4 696/1/4 279/1/4
f 279/1/4 696/1/4 697/1/4
f 279/5/4 697/5/4 276/5/4
f 276/5/4 697/5/4 698/5/4
f 699/5/4 553/5/4 700/5/4
f 700/5/4 553/5/4 279/5/4
f 701/1/4 699/1/4 702/1/4
f 702/1/4 699/1/4 700/1/4
f 262/5/4 703/5/4 259/5/4
f 259/5/4 703/5/4 702/5/4
f 704/5/4 522/5/4 705/5/4
f 705/5/4 522/5/4 521/5/4
f 705/5/4 701/5/4 706/5/4
f 706/5/4 701/5/4 703/5/4
f 707/1/4 704/1/4 708/1/4
f 708/1/4 704/1/4 706/1/4
f 359/3/4 366/3/4 360/3/4
f 360/3/4 366/3/4 365/3/4
f 709/5/4 707/5/4 710/5/4
f 710/5/4 707/5/4 708/5/4
f 621/3/4 628/3/4 622/3/4
f 622/3/4 628/3/4 627/3/4
f 4/3/4 358/3/4 1/3/4
f 1/3/4 358/3/4 357/3/4
f 132/3/4 454/3/4 129/3/4
f 129/3/4 454/3/4 453/3/4
f 148/3/4 474/3/4 145/3/4
f 145/3/4 474/3/4 473/3/4
f 176/3/4 508/3/4 173/3/4
f 173/3/4 508/3/4 507/3/4
f 214/3/4 536/3/4 211/3/4
f 211/3/4 536/3/4 535/3/4
f 233/5/4 711/5/4 230/5/4
f 230/5/4 711/5/4 710/5/4
f 340/3/4 620/3/4 337/3/4
f 337/3/4 620/3/4 619/3/4
f 363/3/4 3/3/4 364/3/4
f 364/3/4 3/3/4 2/3/4
f 712/5/4 494/5/4 713/5/4
f 713/5/4 494/5/4 493/5/4
f 713/1/4 709/1/4 714/1/4
f 714/1/4 709/1/4 711/1/4
f 625/3/4 339/3/4 626/3/4
f 626/3/4 339/3/4 338/3/4
f 8/3/4 362/3/4 5/3/4
f 5/3/4 362/3/4 361/3/4
f 136/3/4 458/3/4 133/3/4
f 133/3/4 458/3/4 457/3/4
f 152/3/4 478/3/4 149/3/4
f 149/3/4 478/3/4 477/3/4
f 715/1/4 712/1/4 716/1/4
f 716/1/4 712/1/4 713/1/4
f 180/3/4 512/3/4 177/3/4
f 177/3/4 512/3/4 511/3/4
f 218/3/4 540/3/4 215/3/4
f 215/3/4 540/3/4 539/3/4
f 344/3/4 624/3/4 341/3/4
f 341/3/4 624/3/4 623/3/4
f 12/3/4 7/3/4 9/3/4
f 9/3/4 7/3/4 6/3/4
f 156/3/4 486/3/4 153/3/4
f 153/3/4 486/3/4 485/3/4
f 717/5/4 715/5/4 718/5/4
f 718/5/4 715/5/4 716/5/4
f 172/3/4 504/3/4 169/3/4
f 169/3/4 504/3/4 503/3/4
f 718/5/4 713/5/4 719/5/4
f 719/5/4 713/5/4 714/5/4
f 348/3/4 343/3/4 345/3/4
f 345/3/4 343/3/4 342/3/4
f 379/3/4 382/3/4 380/3/4
f 380/3/4 382/3/4 381/3/4
f 481/1/4 717/1/4 192/1/4
f 192/1/4 717/1/4 719/1/4
f 607/3/4 610/3/4 608/3/4
f 608/3/4 610/3/4 609/3/4
f 24/3/4 378/3/4 21/3/4
f 21/3/4 378/3/4 377/3/4
f 86/3/4 416/3/4 83/3/4
f 83/3/4 416/3/4 415/3/4
f 128/3/4 450/3/4 125/3/4
f 125/3/4 450/3/4 449/3/4
f 222/3/4 544/3/4 219/3/4
f 219/3/4 544/3/4 543/3/4
f 249/3/4 563/3/4 246/3/4
f 246/3/4 563/3/4 562/3/4
f 324/3/4 606/3/4 321/3/4
f 321/3/4 606/3/4 605/3/4
f 28/3/4 23/3/4 25/3/4
f 25/3/4 23/3/4 22/3/4
f 140/3/4 461/3/4 137/3/4
f 137/3/4 461/3/4 155/3/4
f 144/3/4 471/3/4 141/3/4
f 141/3/4 471/3/4 470/3/4
f 137/2/4 155/2/4 157/2/4
f 157/2/4 155/2/4 154/2/4
f 141/2/4 470/2/4 167/2/4
f 167/2/4 470/2/4 502/2/4
f 157/3/4 154/3/4 181/3/4
f 181/3/4 154/3/4 515/3/4
f 167/3/4 502/3/4 209/3/4
f 209/3/4 502/3/4 533/3/4
f 328/3/4 323/3/4 325/3/4
f 325/3/4 323/3/4 322/3/4
f 40/3/4 392/3/4 37/3/4
f 37/3/4 392/3/4 391/3/4
f 78/3/4 419/3/4 720/3/4
f 720/3/4 419/3/4 139/3/4
f 82/3/4 447/3/4 721/3/4
f 721/3/4 447/3/4 446/3/4
f 253/3/4 722/3/4 250/3/4
f 250/3/4 722/3/4 566/3/4
f 272/3/4 723/3/4 269/3/4
f 269/3/4 723/3/4 577/3/4
f 308/3/4 600/3/4 305/3/4
f 305/3/4 600/3/4 599/3/4
f 44/3/4 39/3/4 41/3/4
f 41/3/4 39/3/4 38/3/4
f 90/3/4 75/3/4 87/3/4
f 87/3/4 75/3/4 720/3/4
f 124/3/4 79/3/4 121/3/4
f 121/3/4 79/3/4 721/3/4
f 464/5/4 482/5/4 492/5/4
f 492/5/4 482/5/4 195/5/4
f 87/2/4 139/2/4 183/2/4
f 183/2/4 139/2/4 182/2/4
f 121/2/4 446/2/4 207/2/4
f 207/2/4 446/2/4 532/2/4
f 183/3/4 182/3/4 223/3/4
f 223/3/4 182/3/4 722/3/4
f 207/3/4 532/3/4 244/3/4
f 244/3/4 532/3/4 723/3/4
f 312/3/4 307/3/4 309/3/4
f 309/3/4 307/3/4 306/3/4
f 56/3/4 398/3/4 53/3/4
f 53/3/4 398/3/4 397/3/4
f 94/3/4 422/3/4 91/3/4
f 91/3/4 422/3/4 88/3/4
f 120/3/4 444/3/4 117/3/4
f 117/3/4 444/3/4 443/3/4
f 724/4/4 465/4/4 725/4/4
f 725/4/4 465/4/4 464/4/4
f 726/4/4 491/4/4 727/4/4
f 727/4/4 491/4/4 490/4/4
f 91/2/4 88/2/4 185/2/4
f 185/2/4 88/2/4 184/2/4
f 728/5/4 492/5/4 729/5/4
f 729/5/4 492/5/4 527/5/4
f 117/2/4 443/2/4 205/2/4
f 205/2/4 443/2/4 531/2/4
f 185/3/4 184/3/4 254/3/4
f 254/3/4 184/3/4 568/3/4
f 205/3/4 531/3/4 267/3/4
f 267/3/4 531/3/4 575/3/4
f 300/3/4 594/3/4 297/3/4
f 297/3/4 594/3/4 593/3/4
f 67/3/4 407/3/4 63/3/4
f 63/3/4 407/3/4 405/3/4
f 64/3/4 404/3/4 61/3/4
f 61/3/4 404/3/4 403/3/4
f 100/3/4 428/3/4 97/3/4
f 97/3/4 428/3/4 426/3/4
f 98/3/4 425/3/4 95/3/4
f 95/3/4 425/3/4 92/3/4
f 72/3/4 414/3/4 111/3/4
f 111/3/4 414/3/4 438/3/4
f 730/1/4 724/1/4 731/1/4
f 731/1/4 724/1/4 725/1/4
f 678/1/4 726/1/4 682/1/4
f 682/1/4 726/1/4 727/1/4
f 95/2/4 92/2/4 187/2/4
f 187/2/4 92/2/4 186/2/4
f 732/1/4 728/1/4 733/1/4
f 733/1/4 728/1/4 729/1/4
f 111/2/4 438/2/4 203/2/4
f 203/2/4 438/2/4 530/2/4
f 187/3/4 186/3/4 225/3/4
f 225/3/4 186/3/4 547/3/4
f 258/3/4 571/3/4 256/3/4
f 256/3/4 571/3/4 570/3/4
f 203/3/4 530/3/4 265/3/4
f 265/3/4 530/3/4 573/3/4
f 257/3/4 572/3/4 273/3/4
f 273/3/4 572/3/4 579/3/4
f 285/3/4 586/3/4 283/3/4
f 283/3/4 586/3/4 585/3/4
f 107/2/4 65/2/4 103/2/4
f 103/2/4 65/2/4 432/2/4
f 104/3/4 431/3/4 101/3/4
f 101/3/4 431/3/4 430/3/4
f 734/2/4 730/2/4 735/2/4
f 735/2/4 730/2/4 731/2/4
f 105/2/4 434/2/4 686/2/4
f 686/2/4 434/2/4 673/2/4
f 191/2/4 99/2/4 189/2/4
f 189/2/4 99/2/4 188/2/4
f 736/2/4 732/2/4 737/2/4
f 737/2/4 732/2/4 733/2/4
f 685/2/4 674/2/4 200/2/4
f 200/2/4 674/2/4 529/2/4
f 229/3/4 550/3/4 227/3/4
f 227/3/4 550/3/4 549/3/4
f 228/2/4 551/2/4 263/2/4
f 263/2/4 551/2/4 275/2/4
f 199/6/4 734/6/4 161/6/4
f 161/6/4 734/6/4 735/6/4
f 162/6/4 677/6/4 159/6/4
f 159/6/4 677/6/4 681/6/4
f 160/6/4 736/6/4 196/6/4
f 196/6/4 736/6/4 737/6/4
f 488/3/5 509/3/5 485/3/5
f 485/3/5 509/3/5 508/3/5
f 510/3/5 174/3/5 507/3/5
f 507/3/5 174/3/5 173/3/5
f 175/3/5 513/3/5 176/3/5
f 176/3/5 513/3/5 512/3/5
f 514/3/5 178/3/5 511/3/5
f 511/3/5 178/3/5 177/3/5
f 179/3/5 154/3/5 180/3/5
f 180/3/5 154/3/5 153/3/5
f 516/3/5 545/3/5 515/3/5
f 515/3/5 545/3/5 544/3/5
f 546/3/5 220/3/5 543/3/5
f 543/3/5 220/3/5 219/3/5
f 221/3/5 182/3/5 222/3/5
f 222/3/5 182/3/5 181/3/5
f 567/3/5 251/3/5 566/3/5
f 566/3/5 251/3/5 250/3/5
f 252/3/5 224/3/5 253/3/5
f 253/3/5 224/3/5 223/3/5
f 569/3/5 255/3/5 568/3/5
f 568/3/5 255/3/5 254/3/5
f 571/3/5 258/3/5 547/3/5
f 547/3/5 258/3/5 225/3/5
f 572/3/5 257/3/5 570/3/5
f 570/3/5 257/3/5 256/3/5
f 586/3/5 285/3/5 579/3/5
f 579/3/5 285/3/5 273/3/5
f 550/2/5 229/2/5 188/2/5
f 188/2/5 229/2/5 189/2/5
f 393/3/5 738/3/5 391/3/5
f 391/3/5 738/3/5 37/3/5
f 328/3/5 739/3/5 599/3/5
f 599/3/5 739/3/5 305/3/5
f 738/3/5 42/3/5 38/3/5
f 38/3/5 42/3/5 41/3/5
f 739/3/5 310/3/5 306/3/5
f 306/3/5 310/3/5 309/3/5
f 399/3/5 54/3/5 397/3/5
f 397/3/5 54/3/5 53/3/5
f 311/3/5 298/3/5 593/3/5
f 593/3/5 298/3/5 297/3/5
f 408/3/5 65/3/5 403/3/5
f 403/3/5 65/3/5 61/3/5
f 299/3/5 284/3/5 585/3/5
f 585/3/5 284/3/5 283/3/5
f 551/3/5 228/3/5 549/3/5
f 549/3/5 228/3/5 227/3/5
f 740/1/5 741/1/5 688/1/5
f 688/1/5 741/1/5 690/1/5
f 741/5/5 287/5/5 690/5/5
f 690/5/5 287/5/5 286/5/5
f 383/3/5 742/3/5 381/3/5
f 381/3/5 742/3/5 380/3/5
f 348/3/5 743/3/5 609/3/5
f 609/3/5 743/3/5 608/3/5
f 742/3/5 744/3/5 377/3/5
f 377/3/5 744/3/5 21/3/5
f 743/3/5 745/3/5 605/3/5
f 605/3/5 745/3/5 321/3/5
f 744/3/5 26/3/5 22/3/5
f 22/3/5 26/3/5 25/3/5
f 745/3/5 326/3/5 322/3/5
f 322/3/5 326/3/5 325/3/5
f 492/4/5 728/4/5 490/4/5
f 490/4/5 728/4/5 727/4/5
f 728/1/5 732/1/5 727/1/5
f 727/1/5 732/1/5 682/1/5
f 730/2/5 734/2/5 433/2/5
f 433/2/5 734/2/5 102/2/5
f 732/2/5 736/2/5 682/2/5
f 682/2/5 736/2/5 681/2/5
f 736/6/5 160/6/5 681/6/5
f 681/6/5 160/6/5 159/6/5
f 746/1/5 747/1/5 291/1/5
f 291/1/5 747/1/5 692/1/5
f 748/5/5 749/5/5 262/5/5
f 262/5/5 749/5/5 706/5/5
f 749/1/5 750/1/5 706/1/5
f 706/1/5 750/1/5 708/1/5
f 290/5/5 751/5/5 746/5/5
f 746/5/5 751/5/5 747/5/5
f 751/5/5 647/5/5 692/5/5
f 692/5/5 647/5/5 695/5/5
f 647/1/5 650/1/5 695/1/5
f 695/1/5 650/1/5 698/1/5
f 650/5/5 277/5/5 698/5/5
f 698/5/5 277/5/5 276/5/5
f 278/5/5 652/5/5 279/5/5
f 279/5/5 652/5/5 700/5/5
f 652/1/5 654/1/5 700/1/5
f 700/1/5 654/1/5 702/1/5
f 654/5/5 260/5/5 702/5/5
f 702/5/5 260/5/5 259/5/5
f 261/1/5 656/1/5 748/1/5
f 748/1/5 656/1/5 749/1/5
f 656/5/5 752/5/5 749/5/5
f 749/5/5 752/5/5 750/5/5
f 368/3/5 369/3/5 365/3/5
f 365/3/5 369/3/5 360/3/5
f 630/3/5 631/3/5 627/3/5
f 627/3/5 631/3/5 622/3/5
f 752/5/5 231/5/5 708/5/5
f 708/5/5 231/5/5 230/5/5
f 13/3/5 373/3/5 2/3/5
f 2/3/5 373/3/5 364/3/5
f 232/1/5 658/1/5 233/1/5
f 233/1/5 658/1/5 714/1/5
f 349/3/5 635/3/5 338/3/5
f 338/3/5 635/3/5 626/3/5
f 17/3/5 10/3/5 6/3/5
f 6/3/5 10/3/5 9/3/5
f 658/5/5 660/5/5 714/5/5
f 714/5/5 660/5/5 719/5/5
f 353/3/5 346/3/5 342/3/5
f 342/3/5 346/3/5 345/3/5
f 660/1/5 193/1/5 719/1/5
f 719/1/5 193/1/5 192/1/5
f 384/2/5 29/2/5 383/2/5
f 383/2/5 29/2/5 26/2/5
f 347/2/5 329/2/5 348/2/5
f 348/2/5 329/2/5 326/2/5
f 194/5/5 499/5/5 195/5/5
f 195/5/5 499/5/5 492/5/5
f 528/5/5 670/5/5 527/5/5
f 527/5/5 670/5/5 729/5/5
f 670/1/5 676/1/5 729/1/5
f 729/1/5 676/1/5 733/1/5
f 684/6/5 197/6/5 737/6/5
f 737/6/5 197/6/5 196/6/5
f 590/5/5 753/5/5 587/5/5
f 587/5/5 753/5/5 688/5/5
f 753/5/5 640/5/5 740/5/5
f 740/5/5 640/5/5 741/5/5
f 640/1/5 642/1/5 741/1/5
f 741/1/5 642/1/5 754/1/5
f 642/5/5 292/5/5 754/5/5
f 754/5/5 292/5/5 287/5/5
f 372/3/5 14/3/5 357/3/5
f 357/3/5 14/3/5 1/3/5
f 634/3/5 350/3/5 619/3/5
f 619/3/5 350/3/5 337/3/5
f 376/3/5 18/3/5 361/3/5
f 361/3/5 18/3/5 5/3/5
f 638/3/5 354/3/5 623/3/5
f 623/3/5 354/3/5 341/3/5
f 386/3/5 31/3/5 384/3/5
f 384/3/5 31/3/5 29/3/5
f 614/3/5 331/3/5 347/3/5
f 347/3/5 331/3/5 329/3/5
f 394/2/5 45/2/5 393/2/5
f 393/2/5 45/2/5 42/2/5
f 332/2/5 313/2/5 328/2/5
f 328/2/5 313/2/5 310/2/5
f 400/2/5 57/2/5 399/2/5
f 399/2/5 57/2/5 54/2/5
f 501/5/5 668/5/5 499/5/5
f 499/5/5 668/5/5 669/5/5
f 314/2/5 301/2/5 311/2/5
f 311/2/5 301/2/5 298/2/5
f 409/2/5 68/2/5 408/2/5
f 408/2/5 68/2/5 65/2/5
f 668/1/5 674/1/5 669/1/5
f 669/1/5 674/1/5 675/1/5
f 302/2/5 294/2/5 299/2/5
f 299/2/5 294/2/5 284/2/5
f 434/2/5 105/2/5 671/2/5
f 671/2/5 105/2/5 679/2/5
f 674/2/5 685/2/5 675/2/5
f 675/2/5 685/2/5 683/2/5
f 295/2/5 264/2/5 275/2/5
f 275/2/5 264/2/5 263/2/5
f 685/6/5 164/6/5 683/6/5
f 683/6/5 164/6/5 163/6/5
f 390/3/5 34/3/5 387/3/5
f 387/3/5 34/3/5 33/3/5
f 618/3/5 334/3/5 615/3/5
f 615/3/5 334/3/5 333/3/5
f 49/3/5 47/3/5 755/3/5
f 755/3/5 47/3/5 45/3/5
f 317/3/5 315/3/5 756/3/5
f 756/3/5 315/3/5 313/3/5
f 592/3/5 296/3/5 302/3/5
f 302/3/5 296/3/5 294/3/5
f 558/3/5 239/3/5 556/3/5
f 556/3/5 239/3/5 238/3/5
f 396/3/5 50/3/5 394/3/5
f 394/3/5 50/3/5 755/3/5
f 604/3/5 318/3/5 332/3/5
f 332/3/5 318/3/5 756/3/5
f 402/3/5 59/3/5 400/3/5
f 400/3/5 59/3/5 57/3/5
f 598/3/5 303/3/5 314/3/5
f 314/3/5 303/3/5 301/3/5
f 414/3/5 72/3/5 409/3/5
f 409/3/5 72/3/5 68/3/5
f 584/3/5 281/3/5 582/3/5
f 582/3/5 281/3/5 280/3/5
f 203/2/5 201/2/5 557/2/5
f 557/2/5 201/2/5 240/2/5
f 574/3/5 266/3/5 573/3/5
f 573/3/5 266/3/5 265/3/5
f 561/3/5 242/3/5 559/3/5
f 559/3/5 242/3/5 241/3/5
f 576/3/5 268/3/5 575/3/5
f 575/3/5 268/3/5 267/3/5
f 578/3/5 270/3/5 577/3/5
f 577/3/5 270/3/5 269/3/5
f 271/3/5 245/3/5 272/3/5
f 272/3/5 245/3/5 244/3/5
f 534/3/5 564/3/5 533/3/5
f 533/3/5 564/3/5 563/3/5
f 565/3/5 247/3/5 562/3/5
f 562/3/5 247/3/5 246/3/5
f 248/3/5 210/3/5 249/3/5
f 249/3/5 210/3/5 209/3/5
f 506/3/5 537/3/5 503/3/5
f 503/3/5 537/3/5 536/3/5
f 538/3/5 212/3/5 535/3/5
f 535/3/5 212/3/5 211/3/5
f 213/3/5 541/3/5 214/3/5
f 214/3/5 541/3/5 540/3/5
f 542/3/5 216/3/5 539/3/5
f 539/3/5 216/3/5 215/3/5
f 217/3/5 170/3/5 218/3/5
f 218/3/5 170/3/5 169/3/5
f 487/3/6 486/3/6 456/3/6
f 456/3/6 486/3/6 453/3/6
f 455/3/6 454/3/6 131/3/6
f 131/3/6 454/3/6 132/3/6
f 130/3/6 129/3/6 460/3/6
f 460/3/6 129/3/6 457/3/6
f 459/3/6 458/3/6 135/3/6
f 135/3/6 458/3/6 136/3/6
f 134/3/6 133/3/6 155/3/6
f 155/3/6 133/3/6 156/3/6
f 462/3/6 461/3/6 418/3/6
f 418/3/6 461/3/6 415/3/6
f 417/3/6 416/3/6 85/3/6
f 85/3/6 416/3/6 86/3/6
f 84/3/6 83/3/6 139/3/6
f 139/3/6 83/3/6 140/3/6
f 420/3/6 419/3/6 77/3/6
f 77/3/6 419/3/6 78/3/6
f 76/3/6 75/3/6 89/3/6
f 89/3/6 75/3/6 90/3/6
f 423/3/6 422/3/6 93/3/6
f 93/3/6 422/3/6 94/3/6
f 426/3/6 425/3/6 97/3/6
f 97/3/6 425/3/6 98/3/6
f 403/3/6 428/3/6 61/3/6
f 61/3/6 428/3/6 100/3/6
f 405/3/6 404/3/6 63/3/6
f 63/3/6 404/3/6 64/3/6
f 430/2/6 99/2/6 101/2/6
f 101/2/6 99/2/6 191/2/6
f 25/3/6 392/3/6 757/3/6
f 757/3/6 392/3/6 40/3/6
f 601/3/6 600/3/6 758/3/6
f 758/3/6 600/3/6 308/3/6
f 757/3/6 39/3/6 43/3/6
f 43/3/6 39/3/6 44/3/6
f 758/3/6 307/3/6 311/3/6
f 311/3/6 307/3/6 312/3/6
f 42/3/6 398/3/6 55/3/6
f 55/3/6 398/3/6 56/3/6
f 595/3/6 594/3/6 299/3/6
f 299/3/6 594/3/6 300/3/6
f 54/3/6 407/3/6 66/3/6
f 66/3/6 407/3/6 67/3/6
f 580/3/6 572/3/6 275/3/6
f 275/3/6 572/3/6 257/3/6
f 432/3/6 431/3/6 103/3/6
f 103/3/6 431/3/6 104/3/6
f 9/3/6 382/3/6 759/3/6
f 759/3/6 382/3/6 379/3/6
f 611/3/6 610/3/6 760/3/6
f 760/3/6 610/3/6 607/3/6
f 759/3/6 378/3/6 761/3/6
f 761/3/6 378/3/6 24/3/6
f 760/3/6 606/3/6 762/3/6
f 762/3/6 606/3/6 324/3/6
f 761/3/6 23/3/6 27/3/6
f 27/3/6 23/3/6 28/3/6
f 762/3/6 323/3/6 327/3/6
f 327/3/6 323/3/6 328/3/6
f 464/4/6 491/4/6 725/4/6
f 725/4/6 491/4/6 726/4/6
f 725/1/6 726/1/6 731/1/6
f 731/1/6 726/1/6 678/1/6
f 731/2/6 678/2/6 735/2/6
f 735/2/6 678/2/6 677/2/6
f 733/2/6 520/2/6 737/2/6
f 737/2/6 520/2/6 190/2/6
f 735/6/6 677/6/6 161/6/6
f 161/6/6 677/6/6 162/6/6
f 763/1/6 687/1/6 764/1/6
f 764/1/6 687/1/6 689/1/6
f 764/5/6 689/5/6 765/5/6
f 765/5/6 689/5/6 288/5/6
f 523/5/6 522/5/6 766/5/6
f 766/5/6 522/5/6 704/5/6
f 766/1/6 704/1/6 767/1/6
f 767/1/6 704/1/6 707/1/6
f 768/1/6 709/1/6 496/1/6
f 496/1/6 709/1/6 493/1/6
f 495/5/6 494/5/6 769/5/6
f 769/5/6 494/5/6 712/5/6
f 769/1/6 712/1/6 770/1/6
f 770/1/6 712/1/6 715/1/6
f 466/4/6 465/4/6 771/4/6
f 771/4/6 465/4/6 724/4/6
f 293/1/6 234/1/6 643/1/6
f 643/1/6 234/1/6 691/1/6
f 643/5/6 691/5/6 648/5/6
f 648/5/6 691/5/6 696/5/6
f 648/1/6 696/1/6 555/1/6
f 555/1/6 696/1/6 552/1/6
f 554/5/6 553/5/6 651/5/6
f 651/5/6 553/5/6 699/5/6
f 651/1/6 699/1/6 653/1/6
f 653/1/6 699/1/6 701/1/6
f 653/5/6 701/5/6 526/5/6
f 526/5/6 701/5/6 521/5/6
f 525/1/6 523/1/6 655/1/6
f 655/1/6 523/1/6 766/1/6
f 655/5/6 766/5/6 772/5/6
f 772/5/6 766/5/6 767/5/6
f 367/3/6 366/3/6 370/3/6
f 370/3/6 366/3/6 359/3/6
f 772/5/6 707/5/6 773/5/6
f 773/5/6 707/5/6 709/5/6
f 629/3/6 628/3/6 632/3/6
f 632/3/6 628/3/6 621/3/6
f 773/5/6 768/5/6 498/5/6
f 498/5/6 768/5/6 496/5/6
f 16/3/6 3/3/6 374/3/6
f 374/3/6 3/3/6 363/3/6
f 497/1/6 495/1/6 657/1/6
f 657/1/6 495/1/6 769/1/6
f 352/3/6 339/3/6 636/3/6
f 636/3/6 339/3/6 625/3/6
f 657/5/6 769/5/6 774/5/6
f 774/5/6 769/5/6 770/5/6
f 20/3/6 7/3/6 11/3/6
f 11/3/6 7/3/6 12/3/6
f 774/5/6 715/5/6 659/5/6
f 659/5/6 715/5/6 717/5/6
f 356/3/6 343/3/6 347/3/6
f 347/3/6 343/3/6 348/3/6
f 659/1/6 717/1/6 484/1/6
f 484/1/6 717/1/6 481/1/6
f 10/2/6 9/2/6 30/2/6
f 30/2/6 9/2/6 27/2/6
f 612/2/6 611/2/6 330/2/6
f 330/2/6 611/2/6 327/2/6
f 483/5/6 482/5/6 469/5/6
f 469/5/6 482/5/6 464/5/6
f 468/5/6 466/5/6 665/5/6
f 665/5/6 466/5/6 771/5/6
f 665/1/6 724/1/6 671/1/6
f 671/1/6 724/1/6 730/1/6
f 679/6/6 734/6/6 198/6/6
f 198/6/6 734/6/6 199/6/6
f 589/5/6 588/5/6 775/5/6
f 775/5/6 588/5/6 687/5/6
f 775/5/6 763/5/6 639/5/6
f 639/5/6 763/5/6 764/5/6
f 639/1/6 764/1/6 641/1/6
f 641/1/6 764/1/6 776/1/6
f 641/5/6 776/5/6 236/5/6
f 236/5/6 776/5/6 765/5/6
f 371/3/6 358/3/6 15/3/6
f 15/3/6 358/3/6 4/3/6
f 633/3/6 620/3/6 351/3/6
f 351/3/6 620/3/6 340/3/6
f 375/3/6 362/3/6 19/3/6
f 19/3/6 362/3/6 8/3/6
f 637/3/6 624/3/6 355/3/6
f 355/3/6 624/3/6 344/3/6
f 385/3/6 10/3/6 32/3/6
f 32/3/6 10/3/6 30/3/6
f 613/3/6 612/3/6 332/3/6
f 332/3/6 612/3/6 330/3/6
f 31/2/6 25/2/6 46/2/6
f 46/2/6 25/2/6 43/2/6
f 602/2/6 601/2/6 314/2/6
f 314/2/6 601/2/6 311/2/6
f 45/2/6 42/2/6 58/2/6
f 58/2/6 42/2/6 55/2/6
f 500/5/6 469/5/6 667/5/6
f 667/5/6 469/5/6 666/5/6
f 596/2/6 595/2/6 302/2/6
f 302/2/6 595/2/6 299/2/6
f 57/2/6 54/2/6 69/2/6
f 69/2/6 54/2/6 66/2/6
f 667/1/6 666/1/6 673/1/6
f 673/1/6 666/1/6 672/1/6
f 591/2/6 580/2/6 295/2/6
f 295/2/6 580/2/6 275/2/6
f 68/2/6 65/2/6 106/2/6
f 106/2/6 65/2/6 107/2/6
f 673/2/6 672/2/6 686/2/6
f 686/2/6 672/2/6 680/2/6
f 529/2/6 676/2/6 200/2/6
f 200/2/6 676/2/6 684/2/6
f 686/6/6 680/6/6 165/6/6
f 165/6/6 680/6/6 166/6/6
f 389/3/6 388/3/6 35/3/6
f 35/3/6 388/3/6 36/3/6
f 617/3/6 616/3/6 335/3/6
f 335/3/6 616/3/6 336/3/6
f 52/3/6 777/3/6 48/3/6
f 48/3/6 777/3/6 46/3/6
f 320/3/6 778/3/6 316/3/6
f 316/3/6 778/3/6 314/3/6
f 410/3/6 57/3/6 71/3/6
f 71/3/6 57/3/6 69/3/6
f 436/3/6 435/3/6 109/3/6
f 109/3/6 435/3/6 110/3/6
f 395/3/6 31/3/6 51/3/6
f 51/3/6 31/3/6 777/3/6
f 603/3/6 602/3/6 319/3/6
f 319/3/6 602/3/6 778/3/6
f 401/3/6 45/3/6 60/3/6
f 60/3/6 45/3/6 58/3/6
f 597/3/6 596/3/6 304/3/6
f 304/3/6 596/3/6 302/3/6
f 413/3/6 412/3/6 73/3/6
f 73/3/6 412/3/6 74/3/6
f 573/3/6 591/3/6 265/3/6
f 265/3/6 591/3/6 295/3/6
f 111/2/6 437/2/6 202/2/6
f 202/2/6 437/2/6 108/2/6
f 439/3/6 414/3/6 113/3/6
f 113/3/6 414/3/6 72/3/6
f 442/3/6 441/3/6 115/3/6
f 115/3/6 441/3/6 116/3/6
f 445/3/6 444/3/6 119/3/6
f 119/3/6 444/3/6 120/3/6
f 448/3/6 447/3/6 81/3/6
f 81/3/6 447/3/6 82/3/6
f 80/3/6 79/3/6 123/3/6
f 123/3/6 79/3/6 124/3/6
f 472/3/6 471/3/6 452/3/6
f 452/3/6 471/3/6 449/3/6
f 451/3/6 450/3/6 127/3/6
f 127/3/6 450/3/6 128/3/6
f 126/3/6 125/3/6 143/3/6
f 143/3/6 125/3/6 144/3/6
f 505/3/6 504/3/6 476/3/6
f 476/3/6 504/3/6 473/3/6
f 475/3/6 474/3/6 147/3/6
f 147/3/6 474/3/6 148/3/6
f 146/3/6 145/3/6 480/3/6
f 480/3/6 145/3/6 477/3/6
f 479/3/6 478/3/6 151/3/6
f 151/3/6 478/3/6 152/3/6
f 150/3/6 149/3/6 171/3/6
f 171/3/6 149/3/6 172/3/6
