# Vengi binary mesh normalized for Tanks of Freedom II

mtllib ../../materials/vox_grass.mtl
o river_snow_3_overtile

v 3 0.1 3.9
v 2.9 0.1 3.9
v 2.9 0.1 4
v 3 0.1 4
v 2.5 0.1 3.9
v 2.4 0.1 3.9
v 2.4 0.1 4
v 2.5 0.1 4
v -2.1 0.1 3.9
v -2.2 0.1 3.9
v -2.2 0.1 4
v -2.1 0.1 4
v 3.9 0.1 3.8
v 3.8 0.1 3.8
v 3.8 0.1 3.9
v 3.9 0.1 3.9
v 3.4 0.1 3.8
v 3.3 0.1 3.8
v 3.3 0.1 3.9
v 3.4 0.1 3.9
v 2.2 0.2 3.8
v 2.1 0.2 3.8
v 2.1 0.2 3.9
v 2.2 0.2 3.9
v 3.7 0.2 3.7
v 3.6 0.2 3.7
v 3.6 0.2 3.8
v 3.7 0.2 3.8
v 3.2 0.2 3.7
v 3.1 0.2 3.7
v 3.1 0.2 3.8
v 3.2 0.2 3.8
v 2.7 0.3 3.7
v 2.6 0.3 3.7
v 2.6 0.3 3.8
v 2.7 0.3 3.8
v -1.9 0.2 3.7
v -2 0.2 3.7
v -2 0.2 3.8
v -1.9 0.2 3.8
v 2.9 0.1 3.6
v 2.8 0.1 3.6
v 2.8 0.1 3.7
v 2.9 0.1 3.7
v 2.3 0.3 3.6
v 2.2 0.3 3.6
v 2.2 0.3 3.7
v 2.3 0.3 3.7
v 3.8 0.3 3.5
v 3.7 0.3 3.5
v 3.7 0.3 3.6
v 3.8 0.3 3.6
v 3.5 0.2 3.5
v 3.4 0.2 3.5
v 3.4 0.2 3.6
v 3.5 0.2 3.6
v 3.3 0.1 3.5
v 3.2 0.1 3.5
v 3.2 0.1 3.6
v 3.3 0.1 3.6
v 2.5 0.2 3.5
v 2.4 0.2 3.5
v 2.4 0.2 3.6
v 2.5 0.2 3.6
v 2.7 0.2 3.4
v 2.6 0.2 3.4
v 2.6 0.2 3.5
v 2.7 0.2 3.5
v 2.2 0.1 3.4
v 2.1 0.1 3.4
v 2.1 0.1 3.5
v 2.2 0.1 3.5
v -2 0.3 3.4
v -2.1 0.3 3.4
v -2.1 0.3 3.5
v -2 0.3 3.5
v 3.6 0.2 3.3
v 3.5 0.2 3.3
v 3.5 0.2 3.4
v 3.6 0.2 3.4
v 3.1 0.4 3.3
v 3 0.4 3.3
v 3 0.4 3.4
v 3.1 0.4 3.4
v 3.8 0.1 3.2
v 3.7 0.1 3.2
v 3.7 0.1 3.3
v 3.8 0.1 3.3
v 2.9 0.2 3.2
v 2.8 0.2 3.2
v 2.8 0.2 3.3
v 2.9 0.2 3.3
v 2.4 0.3 3.2
v 2.3 0.3 3.2
v 2.3 0.3 3.3
v 2.4 0.3 3.3
v -2.1 0.1 3.2
v -2.2 0.1 3.2
v -2.2 0.1 3.3
v -2.1 0.1 3.3
v 3.3 0.1 3.1
v 3.2 0.1 3.1
v 3.2 0.1 3.2
v 3.3 0.1 3.2
v 2.6 0.1 3.1
v 2.5 0.1 3.1
v 2.5 0.1 3.2
v 2.6 0.1 3.2
v 2.1 0.1 3.1
v 2 0.1 3.1
v 2 0.1 3.2
v 2.1 0.1 3.2
v 3.6 0.3 3
v 3.5 0.3 3
v 3.5 0.3 3.1
v 3.6 0.3 3.1
v 3.1 0.2 3
v 3 0.2 3
v 3 0.2 3.1
v 3.1 0.2 3.1
v 2.6 0.2 2.9
v 2.5 0.2 2.9
v 2.5 0.2 3
v 2.6 0.2 3
v 3.9 0.2 2.8
v 3.8 0.2 2.8
v 3.8 0.2 2.9
v 3.9 0.2 2.9
v 3.5 0.2 2.8
v 3.4 0.2 2.8
v 3.4 0.2 2.9
v 3.5 0.2 2.9
v 3.2 0.1 2.8
v 3.1 0.1 2.8
v 3.1 0.1 2.9
v 3.2 0.1 2.9
v 2.9 0.1 2.8
v 2.8 0.1 2.8
v 2.8 0.1 2.9
v 2.9 0.1 2.9
v -2.1 0.1 2.7
v -2.2 0.1 2.7
v -2.2 0.1 2.8
v -2.1 0.1 2.8
v 3.7 0.2 2.6
v 3.6 0.2 2.6
v 3.6 0.2 2.7
v 3.7 0.2 2.7
v 3 0.2 2.6
v 2.9 0.2 2.6
v 2.9 0.2 2.7
v 3 0.2 2.7
v 2.7 0.1 2.6
v 2.6 0.1 2.6
v 2.6 0.1 2.7
v 2.7 0.1 2.7
v 3.6 0.3 2.5
v 3.5 0.3 2.5
v 3.5 0.3 2.6
v 3.6 0.3 2.6
v 3.3 0.3 2.5
v 3.2 0.3 2.5
v 3.2 0.3 2.6
v 3.3 0.3 2.6
v 3 0.1 2.4
v 2.9 0.1 2.4
v 2.9 0.1 2.5
v 3 0.1 2.5
v 3.8 0.1 2.3
v 3.7 0.1 2.3
v 3.7 0.1 2.4
v 3.8 0.1 2.4
v 3.4 0.2 2.3
v 3.3 0.2 2.3
v 3.3 0.2 2.4
v 3.4 0.2 2.4
v 3.2 0.1 2.3
v 3.1 0.1 2.3
v 3.1 0.1 2.4
v 3.2 0.1 2.4
v 3.9 0.2 2.1
v 3.8 0.2 2.1
v 3.8 0.2 2.2
v 3.9 0.2 2.2
v 3.5 0.4 2.1
v 3.4 0.4 2.1
v 3.4 0.4 2.2
v 3.5 0.4 2.2
v 3.2 0.1 2.1
v 3.1 0.1 2.1
v 3.1 0.1 2.2
v 3.2 0.1 2.2
v 3.8 0.2 1.9
v 3.7 0.2 1.9
v 3.7 0.2 2
v 3.8 0.2 2
v 3.6 0.2 -2.1
v 3.5 0.2 -2.1
v 3.5 0.2 -2
v 3.6 0.2 -2
v 3.3 0.2 -2.2
v 3.2 0.2 -2.2
v 3.2 0.2 -2.1
v 3.3 0.2 -2.1
v 2.8 0.2 -2.2
v 2.7 0.2 -2.2
v 2.7 0.2 -2.1
v 2.8 0.2 -2.1
v 3 0 3.9
v 3 0 4
v 2.9 0 4
v 2.9 0 3.9
v 2.5 0 3.9
v 2.5 0 4
v 2.4 0 4
v 2.4 0 3.9
v -2.1 0 3.9
v -2.1 0 4
v -2.2 0 4
v -2.2 0 3.9
v 3.9 0 3.8
v 3.9 0 3.9
v 3.8 0 3.9
v 3.8 0 3.8
v 3.4 0 3.8
v 3.4 0 3.9
v 3.3 0 3.9
v 3.3 0 3.8
v 2.2 0 3.8
v 2.2 0 3.9
v 2.1 0 3.9
v 2.1 0 3.8
v 3.7 0 3.7
v 3.7 0 3.8
v 3.6 0 3.8
v 3.6 0 3.7
v 3.2 0 3.7
v 3.2 0 3.8
v 3.1 0 3.8
v 3.1 0 3.7
v 2.7 0 3.7
v 2.7 0 3.8
v 2.6 0 3.8
v 2.6 0 3.7
v -1.9 0 3.7
v -1.9 0 3.8
v -2 0 3.8
v -2 0 3.7
v 2.9 0 3.6
v 2.9 0 3.7
v 2.8 0 3.7
v 2.8 0 3.6
v 2.3 0 3.6
v 2.3 0 3.7
v 2.2 0 3.7
v 2.2 0 3.6
v 3.8 0 3.5
v 3.8 0 3.6
v 3.7 0 3.6
v 3.7 0 3.5
v 3.5 0 3.5
v 3.5 0 3.6
v 3.4 0 3.6
v 3.4 0 3.5
v 3.3 0 3.5
v 3.3 0 3.6
v 3.2 0 3.6
v 3.2 0 3.5
v 2.5 0 3.5
v 2.5 0 3.6
v 2.4 0 3.6
v 2.4 0 3.5
v 2.7 0 3.4
v 2.7 0 3.5
v 2.6 0 3.5
v 2.6 0 3.4
v 2.2 0 3.4
v 2.2 0 3.5
v 2.1 0 3.5
v 2.1 0 3.4
v -2 0 3.4
v -2 0 3.5
v -2.1 0 3.5
v -2.1 0 3.4
v 3.6 0 3.3
v 3.6 0 3.4
v 3.5 0 3.4
v 3.5 0 3.3
v 3.1 0 3.3
v 3.1 0 3.4
v 3 0 3.4
v 3 0 3.3
v 3.8 0 3.2
v 3.8 0 3.3
v 3.7 0 3.3
v 3.7 0 3.2
v 2.9 0 3.2
v 2.9 0 3.3
v 2.8 0 3.3
v 2.8 0 3.2
v 2.4 0 3.2
v 2.4 0 3.3
v 2.3 0 3.3
v 2.3 0 3.2
v -2.1 0 3.2
v -2.1 0 3.3
v -2.2 0 3.3
v -2.2 0 3.2
v 3.3 0 3.1
v 3.3 0 3.2
v 3.2 0 3.2
v 3.2 0 3.1
v 2.6 0 3.1
v 2.6 0 3.2
v 2.5 0 3.2
v 2.5 0 3.1
v 2.1 0 3.1
v 2.1 0 3.2
v 2 0 3.2
v 2 0 3.1
v 3.6 0 3
v 3.6 0 3.1
v 3.5 0 3.1
v 3.5 0 3
v 3.1 0 3
v 3.1 0 3.1
v 3 0 3.1
v 3 0 3
v 2.6 0 2.9
v 2.6 0 3
v 2.5 0 3
v 2.5 0 2.9
v 3.9 0 2.8
v 3.9 0 2.9
v 3.8 0 2.9
v 3.8 0 2.8
v 3.5 0 2.8
v 3.5 0 2.9
v 3.4 0 2.9
v 3.4 0 2.8
v 3.2 0 2.8
v 3.2 0 2.9
v 3.1 0 2.9
v 3.1 0 2.8
v 2.9 0 2.8
v 2.9 0 2.9
v 2.8 0 2.9
v 2.8 0 2.8
v -2.1 0 2.7
v -2.1 0 2.8
v -2.2 0 2.8
v -2.2 0 2.7
v 3.7 0 2.6
v 3.7 0 2.7
v 3.6 0 2.7
v 3.6 0 2.6
v 3 0 2.6
v 3 0 2.7
v 2.9 0 2.7
v 2.9 0 2.6
v 2.7 0 2.6
v 2.7 0 2.7
v 2.6 0 2.7
v 2.6 0 2.6
v 3.6 0 2.5
v 3.5 0 2.6
v 3.5 0 2.5
v 3.3 0 2.5
v 3.3 0 2.6
v 3.2 0 2.6
v 3.2 0 2.5
v 3 0 2.4
v 3 0 2.5
v 2.9 0 2.5
v 2.9 0 2.4
v 3.8 0 2.3
v 3.8 0 2.4
v 3.7 0 2.4
v 3.7 0 2.3
v 3.4 0 2.3
v 3.4 0 2.4
v 3.3 0 2.4
v 3.3 0 2.3
v 3.2 0 2.3
v 3.2 0 2.4
v 3.1 0 2.4
v 3.1 0 2.3
v 3.9 0 2.1
v 3.9 0 2.2
v 3.8 0 2.2
v 3.8 0 2.1
v 3.5 0 2.1
v 3.5 0 2.2
v 3.4 0 2.2
v 3.4 0 2.1
v 3.2 0 2.1
v 3.2 0 2.2
v 3.1 0 2.2
v 3.1 0 2.1
v 3.8 0 1.9
v 3.8 0 2
v 3.7 0 2
v 3.7 0 1.9
v 3.6 0.1 -2.1
v 3.6 0.1 -2
v 3.5 0.1 -2
v 3.5 0.1 -2.1
v 3.3 0 -2.2
v 3.3 0 -2.1
v 3.2 0 -2.1
v 3.2 0 -2.2
v 2.8 0 -2.2
v 2.8 0 -2.1
v 2.7 0 -2.1
v 2.7 0 -2.2
v -3.1 0.1 3.9
v -3.2 0.1 3.9
v -3.2 0.1 4
v -3.1 0.1 4
v -3.6 0.1 3.9
v -3.7 0.1 3.9
v -3.7 0.1 4
v -3.6 0.1 4
v -2.6 0.1 3.8
v -2.7 0.1 3.8
v -2.7 0.1 3.9
v -2.6 0.1 3.9
v -2.9 0.2 3.8
v -3 0.2 3.8
v -3 0.2 3.9
v -2.9 0.2 3.9
v -3.8 0.1 3.8
v -3.9 0.1 3.8
v -3.9 0.1 3.9
v -3.8 0.1 3.9
v -2.4 0.2 3.7
v -2.5 0.2 3.7
v -2.5 0.2 3.8
v -2.4 0.2 3.8
v -2.7 0.2 3.7
v -2.8 0.2 3.7
v -2.8 0.2 3.8
v -2.7 0.2 3.8
v -3.4 0.1 3.7
v -3.5 0.1 3.7
v -3.5 0.1 3.8
v -3.4 0.1 3.8
v -3.1 0.2 3.6
v -3.2 0.2 3.6
v -3.2 0.2 3.7
v -3.1 0.2 3.7
v -3.5 0.2 3.6
v -3.6 0.2 3.6
v -3.6 0.2 3.7
v -3.5 0.2 3.7
v -3.8 0.3 3.6
v -3.9 0.3 3.6
v -3.9 0.3 3.7
v -3.8 0.3 3.7
v -2.2 0.2 3.5
v -2.3 0.2 3.5
v -2.3 0.2 3.6
v -2.2 0.2 3.6
v -2.9 0.1 3.5
v -3 0.1 3.5
v -3 0.1 3.6
v -2.9 0.1 3.6
v -2.6 0.4 3.4
v -2.7 0.4 3.4
v -2.7 0.4 3.5
v -2.6 0.4 3.5
v -3.5 0.1 3.4
v -3.6 0.1 3.4
v -3.6 0.1 3.5
v -3.5 0.1 3.5
v -3 0.3 3.3
v -3.1 0.3 3.3
v -3.1 0.3 3.4
v -3 0.3 3.4
v -3.3 0.3 3.3
v -3.4 0.3 3.3
v -3.4 0.3 3.4
v -3.3 0.3 3.4
v -2.3 0.2 3.2
v -2.4 0.2 3.2
v -2.4 0.2 3.3
v -2.3 0.2 3.3
v -2.6 0.1 3.2
v -2.7 0.1 3.2
v -2.7 0.1 3.3
v -2.6 0.1 3.3
v -3.7 0.2 3.2
v -3.8 0.2 3.2
v -3.8 0.2 3.3
v -3.7 0.2 3.3
v -2.8 0.1 3.1
v -2.9 0.1 3.1
v -2.9 0.1 3.2
v -2.8 0.1 3.2
v -3.3 0.2 3
v -3.4 0.2 3
v -3.4 0.2 3.1
v -3.3 0.2 3.1
v -3.6 0.1 3
v -3.7 0.1 3
v -3.7 0.1 3.1
v -3.6 0.1 3.1
v -3.8 0.1 3
v -3.9 0.1 3
v -3.9 0.1 3.1
v -3.8 0.1 3.1
v -2.4 0.1 2.9
v -2.5 0.1 2.9
v -2.5 0.1 3
v -2.4 0.1 3
v -2.7 0.2 2.9
v -2.8 0.2 2.9
v -2.8 0.2 3
v -2.7 0.2 3
v -2.9 0.1 2.8
v -3 0.1 2.8
v -3 0.1 2.9
v -2.9 0.1 2.9
v -3.1 0.3 2.8
v -3.2 0.3 2.8
v -3.2 0.3 2.9
v -3.1 0.3 2.9
v -3.5 0.3 2.8
v -3.6 0.3 2.8
v -3.6 0.3 2.9
v -3.5 0.3 2.9
v -3.7 0.1 2.8
v -3.8 0.1 2.8
v -3.8 0.1 2.9
v -3.7 0.1 2.9
v -2.5 0.1 2.6
v -2.6 0.1 2.6
v -2.6 0.1 2.7
v -2.5 0.1 2.7
v -3.8 0.1 2.6
v -3.9 0.1 2.6
v -3.9 0.1 2.7
v -3.8 0.1 2.7
v -2.9 0.2 2.5
v -3 0.2 2.5
v -3 0.2 2.6
v -2.9 0.2 2.6
v -3.3 0.1 2.5
v -3.4 0.1 2.5
v -3.4 0.1 2.6
v -3.3 0.1 2.6
v -3.6 0.2 2.5
v -3.7 0.2 2.5
v -3.7 0.2 2.6
v -3.6 0.2 2.6
v -2.7 0.1 2.3
v -2.8 0.1 2.3
v -2.8 0.1 2.4
v -2.7 0.1 2.4
v -3.2 0.2 2.3
v -3.3 0.2 2.3
v -3.3 0.2 2.4
v -3.2 0.2 2.4
v -3.4 0.1 2.3
v -3.5 0.1 2.3
v -3.5 0.1 2.4
v -3.4 0.1 2.4
v -3.8 0.2 2.3
v -3.9 0.2 2.3
v -3.9 0.2 2.4
v -3.8 0.2 2.4
v -3.6 0.4 2.2
v -3.7 0.4 2.2
v -3.7 0.4 2.3
v -3.6 0.4 2.3
v -3 0.2 2.1
v -3.1 0.2 2.1
v -3.1 0.2 2.2
v -3 0.2 2.2
v -3.2 0.3 2.1
v -3.3 0.3 2.1
v -3.3 0.3 2.2
v -3.2 0.3 2.2
v -3.8 0.1 2.1
v -3.9 0.1 2.1
v -3.9 0.1 2.2
v -3.8 0.1 2.2
v -3.6 0.2 2
v -3.7 0.2 2
v -3.7 0.2 2.1
v -3.6 0.2 2.1
v -2.8 0.1 1.9
v -2.9 0.1 1.9
v -2.9 0.1 2
v -2.8 0.1 2
v -3.1 0.2 1.9
v -3.2 0.2 1.9
v -3.2 0.2 2
v -3.1 0.2 2
v -3.3 0.1 1.9
v -3.4 0.1 1.9
v -3.4 0.1 2
v -3.3 0.1 2
v -3.9 0.2 1.8
v -4 0.2 1.8
v -4 0.2 1.9
v -3.9 0.2 1.9
v -3.4 0.2 1.7
v -3.5 0.2 1.7
v -3.5 0.2 1.8
v -3.4 0.2 1.8
v -3.7 0.1 1.7
v -3.8 0.1 1.7
v -3.8 0.1 1.8
v -3.7 0.1 1.8
v -3.3 0.1 1.5
v -3.4 0.1 1.5
v -3.4 0.1 1.6
v -3.3 0.1 1.6
v -3.6 0.2 1.5
v -3.7 0.2 1.5
v -3.7 0.2 1.6
v -3.6 0.2 1.6
v -3.8 0.2 1.5
v -3.9 0.2 1.5
v -3.9 0.2 1.6
v -3.8 0.2 1.6
v -3.5 0.3 1.3
v -3.6 0.3 1.3
v -3.6 0.3 1.4
v -3.5 0.3 1.4
v -3.8 0.1 1.2
v -3.9 0.1 1.2
v -3.9 0.1 1.3
v -3.8 0.1 1.3
v -3.3 0.1 -2.1
v -3.4 0.1 -2.1
v -3.4 0.1 -2
v -3.3 0.1 -2
v -3.1 0 3.9
v -3.1 0 4
v -3.2 0 4
v -3.2 0 3.9
v -3.6 0 3.9
v -3.6 0 4
v -3.7 0 4
v -3.7 0 3.9
v -2.6 0 3.8
v -2.6 0 3.9
v -2.7 0 3.9
v -2.7 0 3.8
v -2.9 0 3.8
v -2.9 0 3.9
v -3 0 3.9
v -3 0 3.8
v -3.8 0 3.8
v -3.8 0 3.9
v -3.9 0 3.9
v -3.9 0 3.8
v -2.4 0 3.7
v -2.4 0 3.8
v -2.5 0 3.8
v -2.5 0 3.7
v -2.7 0 3.7
v -2.8 0 3.8
v -2.8 0 3.7
v -3.4 0 3.7
v -3.4 0 3.8
v -3.5 0 3.8
v -3.5 0 3.7
v -3.1 0 3.6
v -3.1 0 3.7
v -3.2 0 3.7
v -3.2 0 3.6
v -3.5 0 3.6
v -3.6 0 3.7
v -3.6 0 3.6
v -3.8 0 3.6
v -3.8 0 3.7
v -3.9 0 3.7
v -3.9 0 3.6
v -2.2 0 3.5
v -2.2 0 3.6
v -2.3 0 3.6
v -2.3 0 3.5
v -2.9 0 3.5
v -2.9 0 3.6
v -3 0 3.6
v -3 0 3.5
v -2.6 0 3.4
v -2.6 0 3.5
v -2.7 0 3.5
v -2.7 0 3.4
v -3.5 0 3.4
v -3.5 0 3.5
v -3.6 0 3.5
v -3.6 0 3.4
v -3 0 3.3
v -3 0 3.4
v -3.1 0 3.4
v -3.1 0 3.3
v -3.3 0 3.3
v -3.3 0 3.4
v -3.4 0 3.4
v -3.4 0 3.3
v -2.3 0 3.2
v -2.3 0 3.3
v -2.4 0 3.3
v -2.4 0 3.2
v -2.6 0 3.2
v -2.6 0 3.3
v -2.7 0 3.3
v -2.7 0 3.2
v -3.7 0 3.2
v -3.7 0 3.3
v -3.8 0 3.3
v -3.8 0 3.2
v -2.8 0 3.1
v -2.8 0 3.2
v -2.9 0 3.2
v -2.9 0 3.1
v -3.3 0 3
v -3.3 0 3.1
v -3.4 0 3.1
v -3.4 0 3
v -3.6 0 3
v -3.6 0 3.1
v -3.7 0 3.1
v -3.7 0 3
v -3.8 0 3
v -3.8 0 3.1
v -3.9 0 3.1
v -3.9 0 3
v -2.4 0 2.9
v -2.4 0 3
v -2.5 0 3
v -2.5 0 2.9
v -2.7 0 2.9
v -2.7 0 3
v -2.8 0 3
v -2.8 0 2.9
v -2.9 0 2.8
v -2.9 0 2.9
v -3 0 2.9
v -3 0 2.8
v -3.1 0 2.8
v -3.1 0 2.9
v -3.2 0 2.9
v -3.2 0 2.8
v -3.5 0 2.8
v -3.5 0 2.9
v -3.6 0 2.9
v -3.6 0 2.8
v -3.7 0 2.8
v -3.7 0 2.9
v -3.8 0 2.9
v -3.8 0 2.8
v -2.5 0 2.6
v -2.5 0 2.7
v -2.6 0 2.7
v -2.6 0 2.6
v -3.8 0 2.6
v -3.8 0 2.7
v -3.9 0 2.7
v -3.9 0 2.6
v -2.9 0 2.5
v -2.9 0 2.6
v -3 0 2.6
v -3 0 2.5
v -3.3 0 2.5
v -3.3 0 2.6
v -3.4 0 2.6
v -3.4 0 2.5
v -3.6 0 2.5
v -3.6 0 2.6
v -3.7 0 2.6
v -3.7 0 2.5
v -2.7 0 2.3
v -2.7 0 2.4
v -2.8 0 2.4
v -2.8 0 2.3
v -3.2 0 2.3
v -3.2 0 2.4
v -3.3 0 2.4
v -3.3 0 2.3
v -3.4 0 2.3
v -3.4 0 2.4
v -3.5 0 2.4
v -3.5 0 2.3
v -3.8 0 2.3
v -3.8 0 2.4
v -3.9 0 2.4
v -3.9 0 2.3
v -3.6 0 2.2
v -3.6 0 2.3
v -3.7 0 2.3
v -3.7 0 2.2
v -3 0 2.1
v -3 0 2.2
v -3.1 0 2.2
v -3.1 0 2.1
v -3.2 0 2.1
v -3.2 0 2.2
v -3.3 0 2.2
v -3.3 0 2.1
v -3.8 0 2.1
v -3.8 0 2.2
v -3.9 0 2.2
v -3.9 0 2.1
v -3.6 0 2
v -3.6 0 2.1
v -3.7 0 2.1
v -3.7 0 2
v -2.8 0 1.9
v -2.8 0 2
v -2.9 0 2
v -2.9 0 1.9
v -3.1 0 1.9
v -3.1 0 2
v -3.2 0 2
v -3.2 0 1.9
v -3.3 0 1.9
v -3.3 0 2
v -3.4 0 2
v -3.4 0 1.9
v -3.9 0 1.8
v -3.9 0 1.9
v -4 0 1.9
v -4 0 1.8
v -3.4 0 1.7
v -3.4 0 1.8
v -3.5 0 1.8
v -3.5 0 1.7
v -3.7 0 1.7
v -3.7 0 1.8
v -3.8 0 1.8
v -3.8 0 1.7
v -3.3 0 1.5
v -3.3 0 1.6
v -3.4 0 1.6
v -3.4 0 1.5
v -3.6 0 1.5
v -3.6 0 1.6
v -3.7 0 1.6
v -3.7 0 1.5
v -3.8 0 1.5
v -3.8 0 1.6
v -3.9 0 1.6
v -3.9 0 1.5
v -3.5 0 1.3
v -3.5 0 1.4
v -3.6 0 1.4
v -3.6 0 1.3
v -3.8 0 1.2
v -3.8 0 1.3
v -3.9 0 1.3
v -3.9 0 1.2
v -3.3 0 -2.1
v -3.3 0 -2
v -3.4 0 -2
v -3.4 0 -2.1
v 3.9 0.1 -2.3
v 3.8 0.1 -2.3
v 3.8 0.1 -2.2
v 3.9 0.1 -2.2
v 3.6 0.2 -2.3
v 3.5 0.2 -2.3
v 3.5 0.2 -2.2
v 3.6 0.2 -2.2
v 3.1 0.1 -2.3
v 3 0.1 -2.3
v 3 0.1 -2.2
v 3.1 0.1 -2.2
v 3.7 0.3 -2.4
v 3.6 0.3 -2.4
v 3.6 0.3 -2.3
v 3.7 0.3 -2.3
v 3.3 0.1 -2.5
v 3.2 0.1 -2.5
v 3.2 0.1 -2.4
v 3.3 0.1 -2.4
v 1.3 0.1 -2.5
v 1.2 0.1 -2.5
v 1.2 0.1 -2.4
v 1.3 0.1 -2.4
v 3.9 0.3 -2.6
v 3.8 0.3 -2.6
v 3.8 0.3 -2.5
v 3.9 0.3 -2.5
v 3.6 0.1 -2.6
v 3.5 0.1 -2.6
v 3.5 0.1 -2.5
v 3.6 0.1 -2.5
v 2.9 0.2 -2.6
v 2.8 0.2 -2.6
v 2.8 0.2 -2.5
v 2.9 0.2 -2.5
v 2 0.1 -2.6
v 1.9 0.1 -2.6
v 1.9 0.1 -2.5
v 2 0.1 -2.5
v 3.3 0.2 -2.7
v 3.2 0.2 -2.7
v 3.2 0.2 -2.6
v 3.3 0.2 -2.6
v 2.6 0.1 -2.7
v 2.5 0.1 -2.7
v 2.5 0.1 -2.6
v 2.6 0.1 -2.6
v 1.7 0.1 -2.7
v 1.6 0.1 -2.7
v 1.6 0.1 -2.6
v 1.7 0.1 -2.6
v 3.9 0.1 -2.8
v 3.8 0.1 -2.8
v 3.8 0.1 -2.7
v 3.9 0.1 -2.7
v 2.3 0.1 -2.8
v 2.2 0.1 -2.8
v 2.2 0.1 -2.7
v 2.3 0.1 -2.7
v 1.9 0.2 -2.8
v 1.8 0.2 -2.8
v 1.8 0.2 -2.7
v 1.9 0.2 -2.7
v 1.1 0.2 -2.8
v 1 0.2 -2.8
v 1 0.2 -2.7
v 1.1 0.2 -2.7
v 0.7 0.1 -2.8
v 0.6 0.1 -2.8
v 0.6 0.1 -2.7
v 0.7 0.1 -2.7
v 3.7 0.2 -2.9
v 3.6 0.2 -2.9
v 3.6 0.2 -2.8
v 3.7 0.2 -2.8
v 3.4 0.1 -2.9
v 3.3 0.1 -2.9
v 3.3 0.1 -2.8
v 3.4 0.1 -2.8
v 3.1 0.2 -2.9
v 3 0.2 -2.9
v 3 0.2 -2.8
v 3.1 0.2 -2.8
v 2.8 0.1 -2.9
v 2.7 0.1 -2.9
v 2.7 0.1 -2.8
v 2.8 0.1 -2.8
v 1.4 0.1 -2.9
v 1.3 0.1 -2.9
v 1.3 0.1 -2.8
v 1.4 0.1 -2.8
v 2.6 0.2 -3
v 2.5 0.2 -3
v 2.5 0.2 -2.9
v 2.6 0.2 -2.9
v 0.6 0.1 -3
v 0.5 0.1 -3
v 0.5 0.1 -2.9
v 0.6 0.1 -2.9
v 3.4 0.2 -3.1
v 3.3 0.2 -3.1
v 3.3 0.2 -3
v 3.4 0.2 -3
v 2.4 0.2 -3.1
v 2.3 0.2 -3.1
v 2.3 0.2 -3
v 2.4 0.2 -3
v 1.7 0.1 -3.1
v 1.6 0.1 -3.1
v 1.6 0.1 -3
v 1.7 0.1 -3
v 1.4 0.2 -3.1
v 1.3 0.2 -3.1
v 1.3 0.2 -3
v 1.4 0.2 -3
v 0.9 0.2 -3.1
v 0.8 0.2 -3.1
v 0.8 0.2 -3
v 0.9 0.2 -3
v 4 0.2 -3.2
v 3.9 0.2 -3.2
v 3.9 0.2 -3.1
v 4 0.2 -3.1
v 3.8 0.1 -3.2
v 3.7 0.1 -3.2
v 3.7 0.1 -3.1
v 3.8 0.1 -3.1
v 2.1 0.2 -3.2
v 2 0.2 -3.2
v 2 0.2 -3.1
v 2.1 0.2 -3.1
v 1.9 0.1 -3.2
v 1.8 0.1 -3.2
v 1.8 0.1 -3.1
v 1.9 0.1 -3.1
v 0.2 0.2 -3.2
v 0.1 0.2 -3.2
v 0.1 0.2 -3.1
v 0.2 0.2 -3.1
v 3.5 0.3 -3.3
v 3.4 0.3 -3.3
v 3.4 0.3 -3.2
v 3.5 0.3 -3.2
v 3.2 0.1 -3.3
v 3.1 0.1 -3.3
v 3.1 0.1 -3.2
v 3.2 0.1 -3.2
v 2.7 0.1 -3.3
v 2.6 0.1 -3.3
v 2.6 0.1 -3.2
v 2.7 0.1 -3.2
v 1.2 0.1 -3.3
v 1.1 0.1 -3.3
v 1.1 0.1 -3.2
v 1.2 0.1 -3.2
v 2.3 0.1 -3.4
v 2.2 0.1 -3.4
v 2.2 0.1 -3.3
v 2.3 0.1 -3.3
v 1.8 0.2 -3.4
v 1.7 0.2 -3.4
v 1.7 0.2 -3.3
v 1.8 0.2 -3.3
v 1.5 0.3 -3.4
v 1.4 0.3 -3.4
v 1.4 0.3 -3.3
v 1.5 0.3 -3.3
v 0.8 0.3 -3.4
v 0.7 0.3 -3.4
v 0.7 0.3 -3.3
v 0.8 0.3 -3.3
v 0.5 0.2 -3.4
v 0.4 0.2 -3.4
v 0.4 0.2 -3.3
v 0.5 0.2 -3.3
v 0.3 0.1 -3.4
v 0.2 0.1 -3.4
v 0.2 0.1 -3.3
v 0.3 0.1 -3.3
v -2.1 0.1 -3.4
v -2.2 0.1 -3.4
v -2.2 0.1 -3.3
v -2.1 0.1 -3.3
v 3.9 0.1 -3.5
v 3.8 0.1 -3.5
v 3.8 0.1 -3.4
v 3.9 0.1 -3.4
v 3.7 0.3 -3.5
v 3.6 0.3 -3.5
v 3.6 0.3 -3.4
v 3.7 0.3 -3.4
v 3.3 0.2 -3.5
v 3.2 0.2 -3.5
v 3.2 0.2 -3.4
v 3.3 0.2 -3.4
v 2.9 0.2 -3.5
v 2.8 0.2 -3.5
v 2.8 0.2 -3.4
v 2.9 0.2 -3.4
v 2.6 0.3 -3.5
v 2.5 0.3 -3.5
v 2.5 0.3 -3.4
v 2.6 0.3 -3.4
v 1 0.1 -3.5
v 0.9 0.1 -3.5
v 0.9 0.1 -3.4
v 1 0.1 -3.4
v 3.1 0.1 -3.6
v 3 0.1 -3.6
v 3 0.1 -3.5
v 3.1 0.1 -3.5
v 1.9 0.2 -3.6
v 1.8 0.2 -3.6
v 1.8 0.2 -3.5
v 1.9 0.2 -3.5
v 1.6 0.2 -3.6
v 1.5 0.2 -3.6
v 1.5 0.2 -3.5
v 1.6 0.2 -3.5
v 1.3 0.2 -3.6
v 1.2 0.2 -3.6
v 1.2 0.2 -3.5
v 1.3 0.2 -3.5
v 3.9 0.2 -3.7
v 3.8 0.2 -3.7
v 3.8 0.2 -3.6
v 3.9 0.2 -3.6
v 3.5 0.1 -3.7
v 3.4 0.1 -3.7
v 3.4 0.1 -3.6
v 3.5 0.1 -3.6
v 2.4 0.1 -3.7
v 2.3 0.1 -3.7
v 2.3 0.1 -3.6
v 2.4 0.1 -3.6
v 2.1 0.3 -3.7
v 2 0.3 -3.7
v 2 0.3 -3.6
v 2.1 0.3 -3.6
v 0.6 0.2 -3.7
v 0.5 0.2 -3.7
v 0.5 0.2 -3.6
v 0.6 0.2 -3.6
v 0 0.1 -3.7
v -0.1 0.1 -3.7
v -0.1 0.1 -3.6
v 0 0.1 -3.6
v 3.2 0.3 -3.8
v 3.1 0.3 -3.8
v 3.1 0.3 -3.7
v 3.2 0.3 -3.7
v 2.6 0.2 -3.8
v 2.5 0.2 -3.8
v 2.5 0.2 -3.7
v 2.6 0.2 -3.7
v 1.7 0.2 -3.8
v 1.6 0.2 -3.8
v 1.6 0.2 -3.7
v 1.7 0.2 -3.7
v 1.2 0.3 -3.8
v 1.1 0.3 -3.8
v 1.1 0.3 -3.7
v 1.2 0.3 -3.7
v 0.3 0.3 -3.8
v 0.2 0.3 -3.8
v 0.2 0.3 -3.7
v 0.3 0.3 -3.7
v 3.7 0.1 -3.9
v 3.6 0.1 -3.9
v 3.6 0.1 -3.8
v 3.7 0.1 -3.8
v 2.8 0.1 -3.9
v 2.7 0.1 -3.9
v 2.7 0.1 -3.8
v 2.8 0.1 -3.8
v 2.3 0.2 -3.9
v 2.2 0.2 -3.9
v 2.2 0.2 -3.8
v 2.3 0.2 -3.8
v 1.9 0.1 -3.9
v 1.8 0.1 -3.9
v 1.8 0.1 -3.8
v 1.9 0.1 -3.8
v 1.4 0.1 -3.9
v 1.3 0.1 -3.9
v 1.3 0.1 -3.8
v 1.4 0.1 -3.8
v 0.5 0.1 -3.9
v 0.4 0.1 -3.9
v 0.4 0.1 -3.8
v 0.5 0.1 -3.8
v 0.1 0.2 -3.9
v 0 0.2 -3.9
v 0 0.2 -3.8
v 0.1 0.2 -3.8
v 3.9 0 -2.3
v 3.9 0 -2.2
v 3.8 0 -2.2
v 3.8 0 -2.3
v 3.6 0 -2.3
v 3.6 0 -2.2
v 3.5 0 -2.2
v 3.5 0 -2.3
v 3.1 0 -2.3
v 3.1 0 -2.2
v 3 0 -2.2
v 3 0 -2.3
v 3.7 0 -2.4
v 3.7 0 -2.3
v 3.6 0 -2.4
v 3.3 0 -2.5
v 3.3 0 -2.4
v 3.2 0 -2.4
v 3.2 0 -2.5
v 1.3 0 -2.5
v 1.3 0 -2.4
v 1.2 0 -2.4
v 1.2 0 -2.5
v 3.9 0 -2.6
v 3.9 0 -2.5
v 3.8 0 -2.5
v 3.8 0 -2.6
v 3.6 0 -2.6
v 3.6 0 -2.5
v 3.5 0 -2.5
v 3.5 0 -2.6
v 2.9 0 -2.6
v 2.9 0 -2.5
v 2.8 0 -2.5
v 2.8 0 -2.6
v 2 0 -2.6
v 2 0 -2.5
v 1.9 0 -2.5
v 1.9 0 -2.6
v 3.3 0 -2.7
v 3.3 0 -2.6
v 3.2 0 -2.6
v 3.2 0 -2.7
v 2.6 0 -2.7
v 2.6 0 -2.6
v 2.5 0 -2.6
v 2.5 0 -2.7
v 1.7 0 -2.7
v 1.7 0 -2.6
v 1.6 0 -2.6
v 1.6 0 -2.7
v 3.9 0 -2.8
v 3.9 0 -2.7
v 3.8 0 -2.7
v 3.8 0 -2.8
v 2.3 0 -2.8
v 2.3 0 -2.7
v 2.2 0 -2.7
v 2.2 0 -2.8
v 1.9 0 -2.8
v 1.9 0 -2.7
v 1.8 0 -2.7
v 1.8 0 -2.8
v 1.1 0 -2.8
v 1.1 0 -2.7
v 1 0 -2.7
v 1 0 -2.8
v 0.7 0 -2.8
v 0.7 0 -2.7
v 0.6 0 -2.7
v 0.6 0 -2.8
v 3.7 0 -2.9
v 3.7 0 -2.8
v 3.6 0 -2.8
v 3.6 0 -2.9
v 3.4 0 -2.9
v 3.4 0 -2.8
v 3.3 0 -2.8
v 3.3 0 -2.9
v 3.1 0 -2.9
v 3.1 0 -2.8
v 3 0 -2.8
v 3 0 -2.9
v 2.8 0 -2.9
v 2.8 0 -2.8
v 2.7 0 -2.8
v 2.7 0 -2.9
v 1.4 0 -2.9
v 1.4 0 -2.8
v 1.3 0 -2.8
v 1.3 0 -2.9
v 2.6 0 -3
v 2.6 0 -2.9
v 2.5 0 -2.9
v 2.5 0 -3
v 0.6 0 -3
v 0.6 0 -2.9
v 0.5 0 -2.9
v 0.5 0 -3
v 3.4 0 -3.1
v 3.4 0 -3
v 3.3 0 -3
v 3.3 0 -3.1
v 2.4 0 -3.1
v 2.4 0 -3
v 2.3 0 -3
v 2.3 0 -3.1
v 1.7 0 -3.1
v 1.7 0 -3
v 1.6 0 -3
v 1.6 0 -3.1
v 1.4 0 -3.1
v 1.4 0 -3
v 1.3 0 -3
v 1.3 0 -3.1
v 0.9 0 -3.1
v 0.9 0 -3
v 0.8 0 -3
v 0.8 0 -3.1
v 4 0 -3.2
v 4 0 -3.1
v 3.9 0 -3.1
v 3.9 0 -3.2
v 3.8 0 -3.2
v 3.8 0 -3.1
v 3.7 0 -3.1
v 3.7 0 -3.2
v 2.1 0 -3.2
v 2.1 0 -3.1
v 2 0 -3.1
v 2 0 -3.2
v 1.9 0 -3.2
v 1.9 0 -3.1
v 1.8 0 -3.1
v 1.8 0 -3.2
v 0.2 0 -3.2
v 0.2 0 -3.1
v 0.1 0 -3.1
v 0.1 0 -3.2
v 3.5 0 -3.3
v 3.5 0 -3.2
v 3.4 0 -3.2
v 3.4 0 -3.3
v 3.2 0 -3.3
v 3.2 0 -3.2
v 3.1 0 -3.2
v 3.1 0 -3.3
v 2.7 0 -3.3
v 2.7 0 -3.2
v 2.6 0 -3.2
v 2.6 0 -3.3
v 1.2 0 -3.3
v 1.2 0 -3.2
v 1.1 0 -3.2
v 1.1 0 -3.3
v 2.3 0 -3.4
v 2.3 0 -3.3
v 2.2 0 -3.3
v 2.2 0 -3.4
v 1.8 0 -3.4
v 1.8 0 -3.3
v 1.7 0 -3.3
v 1.7 0 -3.4
v 1.5 0 -3.4
v 1.5 0 -3.3
v 1.4 0 -3.3
v 1.4 0 -3.4
v 0.8 0 -3.4
v 0.8 0 -3.3
v 0.7 0 -3.3
v 0.7 0 -3.4
v 0.5 0 -3.4
v 0.5 0 -3.3
v 0.4 0 -3.3
v 0.4 0 -3.4
v 0.3 0 -3.4
v 0.3 0 -3.3
v 0.2 0 -3.3
v 0.2 0 -3.4
v -2.1 0 -3.4
v -2.1 0 -3.3
v -2.2 0 -3.3
v -2.2 0 -3.4
v 3.9 0 -3.5
v 3.9 0 -3.4
v 3.8 0 -3.4
v 3.8 0 -3.5
v 3.7 0 -3.5
v 3.7 0 -3.4
v 3.6 0 -3.4
v 3.6 0 -3.5
v 3.3 0 -3.5
v 3.3 0 -3.4
v 3.2 0 -3.4
v 3.2 0 -3.5
v 2.9 0 -3.5
v 2.9 0 -3.4
v 2.8 0 -3.4
v 2.8 0 -3.5
v 2.6 0 -3.5
v 2.6 0 -3.4
v 2.5 0 -3.4
v 2.5 0 -3.5
v 1 0 -3.5
v 1 0 -3.4
v 0.9 0 -3.4
v 0.9 0 -3.5
v 3.1 0 -3.6
v 3.1 0 -3.5
v 3 0 -3.5
v 3 0 -3.6
v 1.9 0 -3.6
v 1.9 0 -3.5
v 1.8 0 -3.5
v 1.8 0 -3.6
v 1.6 0 -3.6
v 1.6 0 -3.5
v 1.5 0 -3.5
v 1.5 0 -3.6
v 1.3 0 -3.6
v 1.3 0 -3.5
v 1.2 0 -3.5
v 1.2 0 -3.6
v 3.9 0 -3.7
v 3.9 0 -3.6
v 3.8 0 -3.6
v 3.8 0 -3.7
v 3.5 0 -3.7
v 3.5 0 -3.6
v 3.4 0 -3.6
v 3.4 0 -3.7
v 2.4 0 -3.7
v 2.4 0 -3.6
v 2.3 0 -3.6
v 2.3 0 -3.7
v 2.1 0 -3.7
v 2.1 0 -3.6
v 2 0 -3.6
v 2 0 -3.7
v 0.6 0 -3.7
v 0.6 0 -3.6
v 0.5 0 -3.6
v 0.5 0 -3.7
v 0 0 -3.7
v 0 0 -3.6
v -0.1 0 -3.6
v -0.1 0 -3.7
v 3.2 0 -3.8
v 3.2 0 -3.7
v 3.1 0 -3.7
v 3.1 0 -3.8
v 2.6 0 -3.8
v 2.6 0 -3.7
v 2.5 0 -3.7
v 2.5 0 -3.8
v 1.7 0 -3.8
v 1.7 0 -3.7
v 1.6 0 -3.7
v 1.6 0 -3.8
v 1.2 0 -3.8
v 1.2 0 -3.7
v 1.1 0 -3.7
v 1.1 0 -3.8
v 0.3 0 -3.8
v 0.3 0 -3.7
v 0.2 0 -3.7
v 0.2 0 -3.8
v 3.7 0 -3.9
v 3.7 0 -3.8
v 3.6 0 -3.8
v 3.6 0 -3.9
v 2.8 0 -3.9
v 2.8 0 -3.8
v 2.7 0 -3.8
v 2.7 0 -3.9
v 2.3 0 -3.9
v 2.3 0 -3.8
v 2.2 0 -3.8
v 2.2 0 -3.9
v 1.9 0 -3.9
v 1.9 0 -3.8
v 1.8 0 -3.8
v 1.8 0 -3.9
v 1.4 0 -3.9
v 1.4 0 -3.8
v 1.3 0 -3.8
v 1.3 0 -3.9
v 0.5 0 -3.9
v 0.5 0 -3.8
v 0.4 0 -3.8
v 0.4 0 -3.9
v 0.1 0 -3.9
v 0.1 0 -3.8
v 0 0 -3.8
v 0 0 -3.9
v -3 0.1 -2.3
v -3.1 0.1 -2.3
v -3.1 0.1 -2.2
v -3 0.1 -2.2
v -3.7 0.1 -2.3
v -3.8 0.1 -2.3
v -3.8 0.1 -2.2
v -3.7 0.1 -2.2
v -3.4 0.2 -2.4
v -3.5 0.2 -2.4
v -3.5 0.2 -2.3
v -3.4 0.2 -2.3
v -2.7 0.1 -2.5
v -2.8 0.1 -2.5
v -2.8 0.1 -2.4
v -2.7 0.1 -2.4
v -3 0.2 -2.6
v -3.1 0.2 -2.6
v -3.1 0.2 -2.5
v -3 0.2 -2.5
v -3.3 0.2 -2.6
v -3.4 0.2 -2.6
v -3.4 0.2 -2.5
v -3.3 0.2 -2.5
v -2.5 0.2 -2.7
v -2.6 0.2 -2.7
v -2.6 0.2 -2.6
v -2.5 0.2 -2.6
v -3.6 0.2 -2.7
v -3.7 0.2 -2.7
v -3.7 0.2 -2.6
v -3.6 0.2 -2.6
v -2.8 0.1 -2.8
v -2.9 0.1 -2.8
v -2.9 0.1 -2.7
v -2.8 0.1 -2.7
v -3.1 0.1 -2.8
v -3.2 0.1 -2.8
v -3.2 0.1 -2.7
v -3.1 0.1 -2.7
v -2.3 0.1 -2.9
v -2.4 0.1 -2.9
v -2.4 0.1 -2.8
v -2.3 0.1 -2.8
v -2.5 0.3 -2.9
v -2.6 0.3 -2.9
v -2.6 0.3 -2.8
v -2.5 0.3 -2.8
v -3.8 0.1 -2.9
v -3.9 0.1 -2.9
v -3.9 0.1 -2.8
v -3.8 0.1 -2.8
v -3.4 0.2 -3
v -3.5 0.2 -3
v -3.5 0.2 -2.9
v -3.4 0.2 -2.9
v -3.7 0.4 -3.1
v -3.8 0.4 -3.1
v -3.8 0.4 -3
v -3.7 0.4 -3
v -2.3 0.2 -3.2
v -2.4 0.2 -3.2
v -2.4 0.2 -3.1
v -2.3 0.2 -3.1
v -2.6 0.2 -3.2
v -2.7 0.2 -3.2
v -2.7 0.2 -3.1
v -2.6 0.2 -3.1
v -3.1 0.3 -3.2
v -3.2 0.3 -3.2
v -3.2 0.3 -3.1
v -3.1 0.3 -3.1
v -2.8 0.1 -3.3
v -2.9 0.1 -3.3
v -2.9 0.1 -3.2
v -2.8 0.1 -3.2
v -3.5 0.2 -3.3
v -3.6 0.2 -3.3
v -3.6 0.2 -3.2
v -3.5 0.2 -3.2
v -2.4 0.2 -3.5
v -2.5 0.2 -3.5
v -2.5 0.2 -3.4
v -2.4 0.2 -3.4
v -2.7 0.2 -3.5
v -2.8 0.2 -3.5
v -2.8 0.2 -3.4
v -2.7 0.2 -3.4
v -3.4 0.3 -3.5
v -3.5 0.3 -3.5
v -3.5 0.3 -3.4
v -3.4 0.3 -3.4
v -3.7 0.1 -3.5
v -3.8 0.1 -3.5
v -3.8 0.1 -3.4
v -3.7 0.1 -3.4
v -3.2 0.2 -3.6
v -3.3 0.2 -3.6
v -3.3 0.2 -3.5
v -3.2 0.2 -3.5
v -2.2 0.1 -3.7
v -2.3 0.1 -3.7
v -2.3 0.1 -3.6
v -2.2 0.1 -3.6
v -2.9 0.1 -3.7
v -3 0.1 -3.7
v -3 0.1 -3.6
v -2.9 0.1 -3.6
v -2.4 0.2 -3.8
v -2.5 0.2 -3.8
v -2.5 0.2 -3.7
v -2.4 0.2 -3.7
v -2.6 0.1 -3.8
v -2.7 0.1 -3.8
v -2.7 0.1 -3.7
v -2.6 0.1 -3.7
v -3.6 0.2 -3.8
v -3.7 0.2 -3.8
v -3.7 0.2 -3.7
v -3.6 0.2 -3.7
v -2.8 0.1 -3.9
v -2.9 0.1 -3.9
v -2.9 0.1 -3.8
v -2.8 0.1 -3.8
v -3.3 0.1 -3.9
v -3.4 0.1 -3.9
v -3.4 0.1 -3.8
v -3.3 0.1 -3.8
v -3 0 -2.3
v -3 0 -2.2
v -3.1 0 -2.2
v -3.1 0 -2.3
v -3.7 0 -2.3
v -3.7 0 -2.2
v -3.8 0 -2.2
v -3.8 0 -2.3
v -3.4 0 -2.4
v -3.4 0 -2.3
v -3.5 0 -2.3
v -3.5 0 -2.4
v -2.7 0 -2.5
v -2.7 0 -2.4
v -2.8 0 -2.4
v -2.8 0 -2.5
v -3 0 -2.6
v -3 0 -2.5
v -3.1 0 -2.5
v -3.1 0 -2.6
v -3.3 0 -2.6
v -3.3 0 -2.5
v -3.4 0 -2.5
v -3.4 0 -2.6
v -2.5 0 -2.7
v -2.5 0 -2.6
v -2.6 0 -2.6
v -2.6 0 -2.7
v -3.6 0 -2.7
v -3.6 0 -2.6
v -3.7 0 -2.6
v -3.7 0 -2.7
v -2.8 0 -2.8
v -2.8 0 -2.7
v -2.9 0 -2.7
v -2.9 0 -2.8
v -3.1 0 -2.8
v -3.1 0 -2.7
v -3.2 0 -2.7
v -3.2 0 -2.8
v -2.3 0 -2.9
v -2.3 0 -2.8
v -2.4 0 -2.8
v -2.4 0 -2.9
v -2.5 0 -2.9
v -2.5 0 -2.8
v -2.6 0 -2.8
v -2.6 0 -2.9
v -3.8 0 -2.9
v -3.8 0 -2.8
v -3.9 0 -2.8
v -3.9 0 -2.9
v -3.4 0 -3
v -3.4 0 -2.9
v -3.5 0 -2.9
v -3.5 0 -3
v -3.7 0 -3.1
v -3.7 0 -3
v -3.8 0 -3
v -3.8 0 -3.1
v -2.3 0 -3.2
v -2.3 0 -3.1
v -2.4 0 -3.1
v -2.4 0 -3.2
v -2.6 0 -3.2
v -2.6 0 -3.1
v -2.7 0 -3.1
v -2.7 0 -3.2
v -3.1 0 -3.2
v -3.1 0 -3.1
v -3.2 0 -3.1
v -3.2 0 -3.2
v -2.8 0 -3.3
v -2.8 0 -3.2
v -2.9 0 -3.2
v -2.9 0 -3.3
v -3.5 0 -3.3
v -3.5 0 -3.2
v -3.6 0 -3.2
v -3.6 0 -3.3
v -2.4 0 -3.5
v -2.4 0 -3.4
v -2.5 0 -3.4
v -2.5 0 -3.5
v -2.7 0 -3.5
v -2.7 0 -3.4
v -2.8 0 -3.4
v -2.8 0 -3.5
v -3.4 0 -3.5
v -3.4 0 -3.4
v -3.5 0 -3.4
v -3.5 0 -3.5
v -3.7 0 -3.5
v -3.7 0 -3.4
v -3.8 0 -3.4
v -3.8 0 -3.5
v -3.2 0 -3.6
v -3.2 0 -3.5
v -3.3 0 -3.5
v -3.3 0 -3.6
v -2.2 0 -3.7
v -2.2 0 -3.6
v -2.3 0 -3.6
v -2.3 0 -3.7
v -2.9 0 -3.7
v -2.9 0 -3.6
v -3 0 -3.6
v -3 0 -3.7
v -2.4 0 -3.8
v -2.4 0 -3.7
v -2.5 0 -3.7
v -2.5 0 -3.8
v -2.6 0 -3.8
v -2.6 0 -3.7
v -2.7 0 -3.7
v -2.7 0 -3.8
v -3.6 0 -3.8
v -3.6 0 -3.7
v -3.7 0 -3.7
v -3.7 0 -3.8
v -2.8 0 -3.9
v -2.8 0 -3.8
v -2.9 0 -3.8
v -2.9 0 -3.9
v -3.3 0 -3.9
v -3.3 0 -3.8
v -3.4 0 -3.8
v -3.4 0 -3.9

vt 0.0722656 0.5

vn 0 1 0
vn 0 -1 0
vn -1 0 0
vn 1 0 0
vn 0 0 -1
vn 0 0 1

usemtl palette
f 1/1/1 2/1/1 4/1/1
f 4/1/1 2/1/1 3/1/1
f 5/1/1 6/1/1 8/1/1
f 8/1/1 6/1/1 7/1/1
f 9/1/1 10/1/1 12/1/1
f 12/1/1 10/1/1 11/1/1
f 13/1/1 14/1/1 16/1/1
f 16/1/1 14/1/1 15/1/1
f 17/1/1 18/1/1 20/1/1
f 20/1/1 18/1/1 19/1/1
f 21/1/1 22/1/1 24/1/1
f 24/1/1 22/1/1 23/1/1
f 25/1/1 26/1/1 28/1/1
f 28/1/1 26/1/1 27/1/1
f 29/1/1 30/1/1 32/1/1
f 32/1/1 30/1/1 31/1/1
f 33/1/1 34/1/1 36/1/1
f 36/1/1 34/1/1 35/1/1
f 37/1/1 38/1/1 40/1/1
f 40/1/1 38/1/1 39/1/1
f 41/1/1 42/1/1 44/1/1
f 44/1/1 42/1/1 43/1/1
f 45/1/1 46/1/1 48/1/1
f 48/1/1 46/1/1 47/1/1
f 49/1/1 50/1/1 52/1/1
f 52/1/1 50/1/1 51/1/1
f 53/1/1 54/1/1 56/1/1
f 56/1/1 54/1/1 55/1/1
f 57/1/1 58/1/1 60/1/1
f 60/1/1 58/1/1 59/1/1
f 61/1/1 62/1/1 64/1/1
f 64/1/1 62/1/1 63/1/1
f 65/1/1 66/1/1 68/1/1
f 68/1/1 66/1/1 67/1/1
f 69/1/1 70/1/1 72/1/1
f 72/1/1 70/1/1 71/1/1
f 73/1/1 74/1/1 76/1/1
f 76/1/1 74/1/1 75/1/1
f 77/1/1 78/1/1 80/1/1
f 80/1/1 78/1/1 79/1/1
f 81/1/1 82/1/1 84/1/1
f 84/1/1 82/1/1 83/1/1
f 85/1/1 86/1/1 88/1/1
f 88/1/1 86/1/1 87/1/1
f 89/1/1 90/1/1 92/1/1
f 92/1/1 90/1/1 91/1/1
f 93/1/1 94/1/1 96/1/1
f 96/1/1 94/1/1 95/1/1
f 97/1/1 98/1/1 100/1/1
f 100/1/1 98/1/1 99/1/1
f 101/1/1 102/1/1 104/1/1
f 104/1/1 102/1/1 103/1/1
f 105/1/1 106/1/1 108/1/1
f 108/1/1 106/1/1 107/1/1
f 109/1/1 110/1/1 112/1/1
f 112/1/1 110/1/1 111/1/1
f 113/1/1 114/1/1 116/1/1
f 116/1/1 114/1/1 115/1/1
f 117/1/1 118/1/1 120/1/1
f 120/1/1 118/1/1 119/1/1
f 121/1/1 122/1/1 124/1/1
f 124/1/1 122/1/1 123/1/1
f 125/1/1 126/1/1 128/1/1
f 128/1/1 126/1/1 127/1/1
f 129/1/1 130/1/1 132/1/1
f 132/1/1 130/1/1 131/1/1
f 133/1/1 134/1/1 136/1/1
f 136/1/1 134/1/1 135/1/1
f 137/1/1 138/1/1 140/1/1
f 140/1/1 138/1/1 139/1/1
f 141/1/1 142/1/1 144/1/1
f 144/1/1 142/1/1 143/1/1
f 145/1/1 146/1/1 148/1/1
f 148/1/1 146/1/1 147/1/1
f 149/1/1 150/1/1 152/1/1
f 152/1/1 150/1/1 151/1/1
f 153/1/1 154/1/1 156/1/1
f 156/1/1 154/1/1 155/1/1
f 157/1/1 158/1/1 160/1/1
f 160/1/1 158/1/1 159/1/1
f 161/1/1 162/1/1 164/1/1
f 164/1/1 162/1/1 163/1/1
f 165/1/1 166/1/1 168/1/1
f 168/1/1 166/1/1 167/1/1
f 169/1/1 170/1/1 172/1/1
f 172/1/1 170/1/1 171/1/1
f 173/1/1 174/1/1 176/1/1
f 176/1/1 174/1/1 175/1/1
f 177/1/1 178/1/1 180/1/1
f 180/1/1 178/1/1 179/1/1
f 181/1/1 182/1/1 184/1/1
f 184/1/1 182/1/1 183/1/1
f 185/1/1 186/1/1 188/1/1
f 188/1/1 186/1/1 187/1/1
f 189/1/1 190/1/1 192/1/1
f 192/1/1 190/1/1 191/1/1
f 193/1/1 194/1/1 196/1/1
f 196/1/1 194/1/1 195/1/1
f 197/1/1 198/1/1 200/1/1
f 200/1/1 198/1/1 199/1/1
f 201/1/1 202/1/1 204/1/1
f 204/1/1 202/1/1 203/1/1
f 205/1/1 206/1/1 208/1/1
f 208/1/1 206/1/1 207/1/1
f 209/1/2 210/1/2 212/1/2
f 212/1/2 210/1/2 211/1/2
f 213/1/2 214/1/2 216/1/2
f 216/1/2 214/1/2 215/1/2
f 217/1/2 218/1/2 220/1/2
f 220/1/2 218/1/2 219/1/2
f 221/1/2 222/1/2 224/1/2
f 224/1/2 222/1/2 223/1/2
f 225/1/2 226/1/2 228/1/2
f 228/1/2 226/1/2 227/1/2
f 229/1/2 230/1/2 232/1/2
f 232/1/2 230/1/2 231/1/2
f 233/1/2 234/1/2 236/1/2
f 236/1/2 234/1/2 235/1/2
f 237/1/2 238/1/2 240/1/2
f 240/1/2 238/1/2 239/1/2
f 241/1/2 242/1/2 244/1/2
f 244/1/2 242/1/2 243/1/2
f 245/1/2 246/1/2 248/1/2
f 248/1/2 246/1/2 247/1/2
f 249/1/2 250/1/2 252/1/2
f 252/1/2 250/1/2 251/1/2
f 253/1/2 254/1/2 256/1/2
f 256/1/2 254/1/2 255/1/2
f 257/1/2 258/1/2 260/1/2
f 260/1/2 258/1/2 259/1/2
f 261/1/2 262/1/2 264/1/2
f 264/1/2 262/1/2 263/1/2
f 265/1/2 266/1/2 268/1/2
f 268/1/2 266/1/2 267/1/2
f 269/1/2 270/1/2 272/1/2
f 272/1/2 270/1/2 271/1/2
f 273/1/2 274/1/2 276/1/2
f 276/1/2 274/1/2 275/1/2
f 277/1/2 278/1/2 280/1/2
f 280/1/2 278/1/2 279/1/2
f 281/1/2 282/1/2 284/1/2
f 284/1/2 282/1/2 283/1/2
f 285/1/2 286/1/2 288/1/2
f 288/1/2 286/1/2 287/1/2
f 289/1/2 290/1/2 292/1/2
f 292/1/2 290/1/2 291/1/2
f 293/1/2 294/1/2 296/1/2
f 296/1/2 294/1/2 295/1/2
f 297/1/2 298/1/2 300/1/2
f 300/1/2 298/1/2 299/1/2
f 301/1/2 302/1/2 304/1/2
f 304/1/2 302/1/2 303/1/2
f 305/1/2 306/1/2 308/1/2
f 308/1/2 306/1/2 307/1/2
f 309/1/2 310/1/2 312/1/2
f 312/1/2 310/1/2 311/1/2
f 313/1/2 314/1/2 316/1/2
f 316/1/2 314/1/2 315/1/2
f 317/1/2 318/1/2 320/1/2
f 320/1/2 318/1/2 319/1/2
f 321/1/2 322/1/2 324/1/2
f 324/1/2 322/1/2 323/1/2
f 325/1/2 326/1/2 328/1/2
f 328/1/2 326/1/2 327/1/2
f 329/1/2 330/1/2 332/1/2
f 332/1/2 330/1/2 331/1/2
f 333/1/2 334/1/2 336/1/2
f 336/1/2 334/1/2 335/1/2
f 337/1/2 338/1/2 340/1/2
f 340/1/2 338/1/2 339/1/2
f 341/1/2 342/1/2 344/1/2
f 344/1/2 342/1/2 343/1/2
f 345/1/2 346/1/2 348/1/2
f 348/1/2 346/1/2 347/1/2
f 349/1/2 350/1/2 352/1/2
f 352/1/2 350/1/2 351/1/2
f 353/1/2 354/1/2 356/1/2
f 356/1/2 354/1/2 355/1/2
f 357/1/2 358/1/2 360/1/2
f 360/1/2 358/1/2 359/1/2
f 361/1/2 362/1/2 364/1/2
f 364/1/2 362/1/2 363/1/2
f 365/1/2 356/1/2 367/1/2
f 367/1/2 356/1/2 366/1/2
f 368/1/2 369/1/2 371/1/2
f 371/1/2 369/1/2 370/1/2
f 372/1/2 373/1/2 375/1/2
f 375/1/2 373/1/2 374/1/2
f 376/1/2 377/1/2 379/1/2
f 379/1/2 377/1/2 378/1/2
f 380/1/2 381/1/2 383/1/2
f 383/1/2 381/1/2 382/1/2
f 384/1/2 385/1/2 387/1/2
f 387/1/2 385/1/2 386/1/2
f 388/1/2 389/1/2 391/1/2
f 391/1/2 389/1/2 390/1/2
f 392/1/2 393/1/2 395/1/2
f 395/1/2 393/1/2 394/1/2
f 396/1/2 397/1/2 399/1/2
f 399/1/2 397/1/2 398/1/2
f 400/1/2 401/1/2 403/1/2
f 403/1/2 401/1/2 402/1/2
f 404/1/2 405/1/2 407/1/2
f 407/1/2 405/1/2 406/1/2
f 408/1/2 409/1/2 411/1/2
f 411/1/2 409/1/2 410/1/2
f 412/1/2 413/1/2 415/1/2
f 415/1/2 413/1/2 414/1/2
f 3/1/3 2/1/3 211/1/3
f 211/1/3 2/1/3 212/1/3
f 7/1/3 6/1/3 215/1/3
f 215/1/3 6/1/3 216/1/3
f 11/1/3 10/1/3 219/1/3
f 219/1/3 10/1/3 220/1/3
f 15/1/3 14/1/3 223/1/3
f 223/1/3 14/1/3 224/1/3
f 19/1/3 18/1/3 227/1/3
f 227/1/3 18/1/3 228/1/3
f 43/1/3 42/1/3 251/1/3
f 251/1/3 42/1/3 252/1/3
f 59/1/3 58/1/3 267/1/3
f 267/1/3 58/1/3 268/1/3
f 71/1/3 70/1/3 279/1/3
f 279/1/3 70/1/3 280/1/3
f 87/1/3 86/1/3 295/1/3
f 295/1/3 86/1/3 296/1/3
f 99/1/3 98/1/3 307/1/3
f 307/1/3 98/1/3 308/1/3
f 103/1/3 102/1/3 311/1/3
f 311/1/3 102/1/3 312/1/3
f 107/1/3 106/1/3 315/1/3
f 315/1/3 106/1/3 316/1/3
f 111/1/3 110/1/3 319/1/3
f 319/1/3 110/1/3 320/1/3
f 135/1/3 134/1/3 343/1/3
f 343/1/3 134/1/3 344/1/3
f 139/1/3 138/1/3 347/1/3
f 347/1/3 138/1/3 348/1/3
f 143/1/3 142/1/3 351/1/3
f 351/1/3 142/1/3 352/1/3
f 155/1/3 154/1/3 363/1/3
f 363/1/3 154/1/3 364/1/3
f 167/1/3 166/1/3 374/1/3
f 374/1/3 166/1/3 375/1/3
f 171/1/3 170/1/3 378/1/3
f 378/1/3 170/1/3 379/1/3
f 179/1/3 178/1/3 386/1/3
f 386/1/3 178/1/3 387/1/3
f 191/1/3 190/1/3 398/1/3
f 398/1/3 190/1/3 399/1/3
f 23/1/3 22/1/3 231/1/3
f 231/1/3 22/1/3 232/1/3
f 27/1/3 26/1/3 235/1/3
f 235/1/3 26/1/3 236/1/3
f 31/1/3 30/1/3 239/1/3
f 239/1/3 30/1/3 240/1/3
f 39/1/3 38/1/3 247/1/3
f 247/1/3 38/1/3 248/1/3
f 55/1/3 54/1/3 263/1/3
f 263/1/3 54/1/3 264/1/3
f 63/1/3 62/1/3 271/1/3
f 271/1/3 62/1/3 272/1/3
f 67/1/3 66/1/3 275/1/3
f 275/1/3 66/1/3 276/1/3
f 79/1/3 78/1/3 287/1/3
f 287/1/3 78/1/3 288/1/3
f 91/1/3 90/1/3 299/1/3
f 299/1/3 90/1/3 300/1/3
f 119/1/3 118/1/3 327/1/3
f 327/1/3 118/1/3 328/1/3
f 123/1/3 122/1/3 331/1/3
f 331/1/3 122/1/3 332/1/3
f 127/1/3 126/1/3 335/1/3
f 335/1/3 126/1/3 336/1/3
f 131/1/3 130/1/3 339/1/3
f 339/1/3 130/1/3 340/1/3
f 147/1/3 146/1/3 355/1/3
f 355/1/3 146/1/3 356/1/3
f 151/1/3 150/1/3 359/1/3
f 359/1/3 150/1/3 360/1/3
f 175/1/3 174/1/3 382/1/3
f 382/1/3 174/1/3 383/1/3
f 183/1/3 182/1/3 390/1/3
f 390/1/3 182/1/3 391/1/3
f 195/1/3 194/1/3 402/1/3
f 402/1/3 194/1/3 403/1/3
f 199/1/3 198/1/3 406/1/3
f 406/1/3 198/1/3 407/1/3
f 203/1/3 202/1/3 410/1/3
f 410/1/3 202/1/3 411/1/3
f 207/1/3 206/1/3 414/1/3
f 414/1/3 206/1/3 415/1/3
f 35/1/3 34/1/3 243/1/3
f 243/1/3 34/1/3 244/1/3
f 47/1/3 46/1/3 255/1/3
f 255/1/3 46/1/3 256/1/3
f 51/1/3 50/1/3 259/1/3
f 259/1/3 50/1/3 260/1/3
f 75/1/3 74/1/3 283/1/3
f 283/1/3 74/1/3 284/1/3
f 95/1/3 94/1/3 303/1/3
f 303/1/3 94/1/3 304/1/3
f 115/1/3 114/1/3 323/1/3
f 323/1/3 114/1/3 324/1/3
f 159/1/3 158/1/3 366/1/3
f 366/1/3 158/1/3 367/1/3
f 163/1/3 162/1/3 370/1/3
f 370/1/3 162/1/3 371/1/3
f 83/1/3 82/1/3 291/1/3
f 291/1/3 82/1/3 292/1/3
f 187/1/3 186/1/3 394/1/3
f 394/1/3 186/1/3 395/1/3
f 4/1/4 210/1/4 1/1/4
f 1/1/4 210/1/4 209/1/4
f 8/1/4 214/1/4 5/1/4
f 5/1/4 214/1/4 213/1/4
f 12/1/4 218/1/4 9/1/4
f 9/1/4 218/1/4 217/1/4
f 16/1/4 222/1/4 13/1/4
f 13/1/4 222/1/4 221/1/4
f 20/1/4 226/1/4 17/1/4
f 17/1/4 226/1/4 225/1/4
f 44/1/4 250/1/4 41/1/4
f 41/1/4 250/1/4 249/1/4
f 60/1/4 266/1/4 57/1/4
f 57/1/4 266/1/4 265/1/4
f 72/1/4 278/1/4 69/1/4
f 69/1/4 278/1/4 277/1/4
f 88/1/4 294/1/4 85/1/4
f 85/1/4 294/1/4 293/1/4
f 100/1/4 306/1/4 97/1/4
f 97/1/4 306/1/4 305/1/4
f 104/1/4 310/1/4 101/1/4
f 101/1/4 310/1/4 309/1/4
f 108/1/4 314/1/4 105/1/4
f 105/1/4 314/1/4 313/1/4
f 112/1/4 318/1/4 109/1/4
f 109/1/4 318/1/4 317/1/4
f 136/1/4 342/1/4 133/1/4
f 133/1/4 342/1/4 341/1/4
f 140/1/4 346/1/4 137/1/4
f 137/1/4 346/1/4 345/1/4
f 144/1/4 350/1/4 141/1/4
f 141/1/4 350/1/4 349/1/4
f 156/1/4 362/1/4 153/1/4
f 153/1/4 362/1/4 361/1/4
f 168/1/4 373/1/4 165/1/4
f 165/1/4 373/1/4 372/1/4
f 172/1/4 377/1/4 169/1/4
f 169/1/4 377/1/4 376/1/4
f 180/1/4 385/1/4 177/1/4
f 177/1/4 385/1/4 384/1/4
f 192/1/4 397/1/4 189/1/4
f 189/1/4 397/1/4 396/1/4
f 24/1/4 230/1/4 21/1/4
f 21/1/4 230/1/4 229/1/4
f 28/1/4 234/1/4 25/1/4
f 25/1/4 234/1/4 233/1/4
f 32/1/4 238/1/4 29/1/4
f 29/1/4 238/1/4 237/1/4
f 40/1/4 246/1/4 37/1/4
f 37/1/4 246/1/4 245/1/4
f 56/1/4 262/1/4 53/1/4
f 53/1/4 262/1/4 261/1/4
f 64/1/4 270/1/4 61/1/4
f 61/1/4 270/1/4 269/1/4
f 68/1/4 274/1/4 65/1/4
f 65/1/4 274/1/4 273/1/4
f 80/1/4 286/1/4 77/1/4
f 77/1/4 286/1/4 285/1/4
f 92/1/4 298/1/4 89/1/4
f 89/1/4 298/1/4 297/1/4
f 120/1/4 326/1/4 117/1/4
f 117/1/4 326/1/4 325/1/4
f 124/1/4 330/1/4 121/1/4
f 121/1/4 330/1/4 329/1/4
f 128/1/4 334/1/4 125/1/4
f 125/1/4 334/1/4 333/1/4
f 132/1/4 338/1/4 129/1/4
f 129/1/4 338/1/4 337/1/4
f 148/1/4 354/1/4 145/1/4
f 145/1/4 354/1/4 353/1/4
f 152/1/4 358/1/4 149/1/4
f 149/1/4 358/1/4 357/1/4
f 176/1/4 381/1/4 173/1/4
f 173/1/4 381/1/4 380/1/4
f 184/1/4 389/1/4 181/1/4
f 181/1/4 389/1/4 388/1/4
f 196/1/4 401/1/4 193/1/4
f 193/1/4 401/1/4 400/1/4
f 200/1/4 405/1/4 197/1/4
f 197/1/4 405/1/4 404/1/4
f 204/1/4 409/1/4 201/1/4
f 201/1/4 409/1/4 408/1/4
f 208/1/4 413/1/4 205/1/4
f 205/1/4 413/1/4 412/1/4
f 36/1/4 242/1/4 33/1/4
f 33/1/4 242/1/4 241/1/4
f 48/1/4 254/1/4 45/1/4
f 45/1/4 254/1/4 253/1/4
f 52/1/4 258/1/4 49/1/4
f 49/1/4 258/1/4 257/1/4
f 76/1/4 282/1/4 73/1/4
f 73/1/4 282/1/4 281/1/4
f 96/1/4 302/1/4 93/1/4
f 93/1/4 302/1/4 301/1/4
f 116/1/4 322/1/4 113/1/4
f 113/1/4 322/1/4 321/1/4
f 160/1/4 356/1/4 157/1/4
f 157/1/4 356/1/4 365/1/4
f 164/1/4 369/1/4 161/1/4
f 161/1/4 369/1/4 368/1/4
f 84/1/4 290/1/4 81/1/4
f 81/1/4 290/1/4 289/1/4
f 188/1/4 393/1/4 185/1/4
f 185/1/4 393/1/4 392/1/4
f 224/1/5 14/1/5 221/1/5
f 221/1/5 14/1/5 13/1/5
f 336/1/5 126/1/5 333/1/5
f 333/1/5 126/1/5 125/1/5
f 391/1/5 182/1/5 388/1/5
f 388/1/5 182/1/5 181/1/5
f 296/1/5 86/1/5 293/1/5
f 293/1/5 86/1/5 85/1/5
f 379/1/5 170/1/5 376/1/5
f 376/1/5 170/1/5 169/1/5
f 403/1/5 194/1/5 400/1/5
f 400/1/5 194/1/5 193/1/5
f 260/1/5 50/1/5 257/1/5
f 257/1/5 50/1/5 49/1/5
f 236/1/5 26/1/5 233/1/5
f 233/1/5 26/1/5 25/1/5
f 356/1/5 146/1/5 353/1/5
f 353/1/5 146/1/5 145/1/5
f 288/1/5 78/1/5 285/1/5
f 285/1/5 78/1/5 77/1/5
f 407/1/5 198/1/5 404/1/5
f 404/1/5 198/1/5 197/1/5
f 324/1/5 114/1/5 321/1/5
f 321/1/5 114/1/5 113/1/5
f 367/1/5 158/1/5 365/1/5
f 365/1/5 158/1/5 157/1/5
f 264/1/5 54/1/5 261/1/5
f 261/1/5 54/1/5 53/1/5
f 340/1/5 130/1/5 337/1/5
f 337/1/5 130/1/5 129/1/5
f 395/1/5 186/1/5 392/1/5
f 392/1/5 186/1/5 185/1/5
f 228/1/5 18/1/5 225/1/5
f 225/1/5 18/1/5 17/1/5
f 383/1/5 174/1/5 380/1/5
f 380/1/5 174/1/5 173/1/5
f 268/1/5 58/1/5 265/1/5
f 265/1/5 58/1/5 57/1/5
f 312/1/5 102/1/5 309/1/5
f 309/1/5 102/1/5 101/1/5
f 411/1/5 202/1/5 408/1/5
f 408/1/5 202/1/5 201/1/5
f 371/1/5 162/1/5 368/1/5
f 368/1/5 162/1/5 161/1/5
f 344/1/5 134/1/5 341/1/5
f 341/1/5 134/1/5 133/1/5
f 387/1/5 178/1/5 384/1/5
f 384/1/5 178/1/5 177/1/5
f 399/1/5 190/1/5 396/1/5
f 396/1/5 190/1/5 189/1/5
f 240/1/5 30/1/5 237/1/5
f 237/1/5 30/1/5 29/1/5
f 328/1/5 118/1/5 325/1/5
f 325/1/5 118/1/5 117/1/5
f 292/1/5 82/1/5 289/1/5
f 289/1/5 82/1/5 81/1/5
f 212/1/5 2/1/5 209/1/5
f 209/1/5 2/1/5 1/1/5
f 375/1/5 166/1/5 372/1/5
f 372/1/5 166/1/5 165/1/5
f 360/1/5 150/1/5 357/1/5
f 357/1/5 150/1/5 149/1/5
f 252/1/5 42/1/5 249/1/5
f 249/1/5 42/1/5 41/1/5
f 348/1/5 138/1/5 345/1/5
f 345/1/5 138/1/5 137/1/5
f 300/1/5 90/1/5 297/1/5
f 297/1/5 90/1/5 89/1/5
f 415/1/5 206/1/5 412/1/5
f 412/1/5 206/1/5 205/1/5
f 364/1/5 154/1/5 361/1/5
f 361/1/5 154/1/5 153/1/5
f 276/1/5 66/1/5 273/1/5
f 273/1/5 66/1/5 65/1/5
f 244/1/5 34/1/5 241/1/5
f 241/1/5 34/1/5 33/1/5
f 316/1/5 106/1/5 313/1/5
f 313/1/5 106/1/5 105/1/5
f 332/1/5 122/1/5 329/1/5
f 329/1/5 122/1/5 121/1/5
f 216/1/5 6/1/5 213/1/5
f 213/1/5 6/1/5 5/1/5
f 272/1/5 62/1/5 269/1/5
f 269/1/5 62/1/5 61/1/5
f 304/1/5 94/1/5 301/1/5
f 301/1/5 94/1/5 93/1/5
f 256/1/5 46/1/5 253/1/5
f 253/1/5 46/1/5 45/1/5
f 280/1/5 70/1/5 277/1/5
f 277/1/5 70/1/5 69/1/5
f 232/1/5 22/1/5 229/1/5
f 229/1/5 22/1/5 21/1/5
f 320/1/5 110/1/5 317/1/5
f 317/1/5 110/1/5 109/1/5
f 248/1/5 38/1/5 245/1/5
f 245/1/5 38/1/5 37/1/5
f 284/1/5 74/1/5 281/1/5
f 281/1/5 74/1/5 73/1/5
f 220/1/5 10/1/5 217/1/5
f 217/1/5 10/1/5 9/1/5
f 308/1/5 98/1/5 305/1/5
f 305/1/5 98/1/5 97/1/5
f 352/1/5 142/1/5 349/1/5
f 349/1/5 142/1/5 141/1/5
f 223/1/6 222/1/6 15/1/6
f 15/1/6 222/1/6 16/1/6
f 335/1/6 334/1/6 127/1/6
f 127/1/6 334/1/6 128/1/6
f 390/1/6 389/1/6 183/1/6
f 183/1/6 389/1/6 184/1/6
f 295/1/6 294/1/6 87/1/6
f 87/1/6 294/1/6 88/1/6
f 378/1/6 377/1/6 171/1/6
f 171/1/6 377/1/6 172/1/6
f 402/1/6 401/1/6 195/1/6
f 195/1/6 401/1/6 196/1/6
f 259/1/6 258/1/6 51/1/6
f 51/1/6 258/1/6 52/1/6
f 235/1/6 234/1/6 27/1/6
f 27/1/6 234/1/6 28/1/6
f 355/1/6 354/1/6 147/1/6
f 147/1/6 354/1/6 148/1/6
f 287/1/6 286/1/6 79/1/6
f 79/1/6 286/1/6 80/1/6
f 406/1/6 405/1/6 199/1/6
f 199/1/6 405/1/6 200/1/6
f 323/1/6 322/1/6 115/1/6
f 115/1/6 322/1/6 116/1/6
f 366/1/6 356/1/6 159/1/6
f 159/1/6 356/1/6 160/1/6
f 263/1/6 262/1/6 55/1/6
f 55/1/6 262/1/6 56/1/6
f 339/1/6 338/1/6 131/1/6
f 131/1/6 338/1/6 132/1/6
f 394/1/6 393/1/6 187/1/6
f 187/1/6 393/1/6 188/1/6
f 227/1/6 226/1/6 19/1/6
f 19/1/6 226/1/6 20/1/6
f 382/1/6 381/1/6 175/1/6
f 175/1/6 381/1/6 176/1/6
f 267/1/6 266/1/6 59/1/6
f 59/1/6 266/1/6 60/1/6
f 311/1/6 310/1/6 103/1/6
f 103/1/6 310/1/6 104/1/6
f 410/1/6 409/1/6 203/1/6
f 203/1/6 409/1/6 204/1/6
f 370/1/6 369/1/6 163/1/6
f 163/1/6 369/1/6 164/1/6
f 343/1/6 342/1/6 135/1/6
f 135/1/6 342/1/6 136/1/6
f 386/1/6 385/1/6 179/1/6
f 179/1/6 385/1/6 180/1/6
f 398/1/6 397/1/6 191/1/6
f 191/1/6 397/1/6 192/1/6
f 239/1/6 238/1/6 31/1/6
f 31/1/6 238/1/6 32/1/6
f 327/1/6 326/1/6 119/1/6
f 119/1/6 326/1/6 120/1/6
f 291/1/6 290/1/6 83/1/6
f 83/1/6 290/1/6 84/1/6
f 211/1/6 210/1/6 3/1/6
f 3/1/6 210/1/6 4/1/6
f 374/1/6 373/1/6 167/1/6
f 167/1/6 373/1/6 168/1/6
f 359/1/6 358/1/6 151/1/6
f 151/1/6 358/1/6 152/1/6
f 251/1/6 250/1/6 43/1/6
f 43/1/6 250/1/6 44/1/6
f 347/1/6 346/1/6 139/1/6
f 139/1/6 346/1/6 140/1/6
f 299/1/6 298/1/6 91/1/6
f 91/1/6 298/1/6 92/1/6
f 414/1/6 413/1/6 207/1/6
f 207/1/6 413/1/6 208/1/6
f 363/1/6 362/1/6 155/1/6
f 155/1/6 362/1/6 156/1/6
f 275/1/6 274/1/6 67/1/6
f 67/1/6 274/1/6 68/1/6
f 243/1/6 242/1/6 35/1/6
f 35/1/6 242/1/6 36/1/6
f 315/1/6 314/1/6 107/1/6
f 107/1/6 314/1/6 108/1/6
f 331/1/6 330/1/6 123/1/6
f 123/1/6 330/1/6 124/1/6
f 215/1/6 214/1/6 7/1/6
f 7/1/6 214/1/6 8/1/6
f 271/1/6 270/1/6 63/1/6
f 63/1/6 270/1/6 64/1/6
f 303/1/6 302/1/6 95/1/6
f 95/1/6 302/1/6 96/1/6
f 255/1/6 254/1/6 47/1/6
f 47/1/6 254/1/6 48/1/6
f 279/1/6 278/1/6 71/1/6
f 71/1/6 278/1/6 72/1/6
f 231/1/6 230/1/6 23/1/6
f 23/1/6 230/1/6 24/1/6
f 319/1/6 318/1/6 111/1/6
f 111/1/6 318/1/6 112/1/6
f 247/1/6 246/1/6 39/1/6
f 39/1/6 246/1/6 40/1/6
f 283/1/6 282/1/6 75/1/6
f 75/1/6 282/1/6 76/1/6
f 219/1/6 218/1/6 11/1/6
f 11/1/6 218/1/6 12/1/6
f 307/1/6 306/1/6 99/1/6
f 99/1/6 306/1/6 100/1/6
f 351/1/6 350/1/6 143/1/6
f 143/1/6 350/1/6 144/1/6
f 416/1/1 417/1/1 419/1/1
f 419/1/1 417/1/1 418/1/1
f 420/1/1 421/1/1 423/1/1
f 423/1/1 421/1/1 422/1/1
f 424/1/1 425/1/1 427/1/1
f 427/1/1 425/1/1 426/1/1
f 428/1/1 429/1/1 431/1/1
f 431/1/1 429/1/1 430/1/1
f 432/1/1 433/1/1 435/1/1
f 435/1/1 433/1/1 434/1/1
f 436/1/1 437/1/1 439/1/1
f 439/1/1 437/1/1 438/1/1
f 440/1/1 441/1/1 443/1/1
f 443/1/1 441/1/1 442/1/1
f 444/1/1 445/1/1 447/1/1
f 447/1/1 445/1/1 446/1/1
f 448/1/1 449/1/1 451/1/1
f 451/1/1 449/1/1 450/1/1
f 452/1/1 453/1/1 455/1/1
f 455/1/1 453/1/1 454/1/1
f 456/1/1 457/1/1 459/1/1
f 459/1/1 457/1/1 458/1/1
f 460/1/1 461/1/1 463/1/1
f 463/1/1 461/1/1 462/1/1
f 464/1/1 465/1/1 467/1/1
f 467/1/1 465/1/1 466/1/1
f 468/1/1 469/1/1 471/1/1
f 471/1/1 469/1/1 470/1/1
f 472/1/1 473/1/1 475/1/1
f 475/1/1 473/1/1 474/1/1
f 476/1/1 477/1/1 479/1/1
f 479/1/1 477/1/1 478/1/1
f 480/1/1 481/1/1 483/1/1
f 483/1/1 481/1/1 482/1/1
f 484/1/1 485/1/1 487/1/1
f 487/1/1 485/1/1 486/1/1
f 488/1/1 489/1/1 491/1/1
f 491/1/1 489/1/1 490/1/1
f 492/1/1 493/1/1 495/1/1
f 495/1/1 493/1/1 494/1/1
f 496/1/1 497/1/1 499/1/1
f 499/1/1 497/1/1 498/1/1
f 500/1/1 501/1/1 503/1/1
f 503/1/1 501/1/1 502/1/1
f 504/1/1 505/1/1 507/1/1
f 507/1/1 505/1/1 506/1/1
f 508/1/1 509/1/1 511/1/1
f 511/1/1 509/1/1 510/1/1
f 512/1/1 513/1/1 515/1/1
f 515/1/1 513/1/1 514/1/1
f 516/1/1 517/1/1 519/1/1
f 519/1/1 517/1/1 518/1/1
f 520/1/1 521/1/1 523/1/1
f 523/1/1 521/1/1 522/1/1
f 524/1/1 525/1/1 527/1/1
f 527/1/1 525/1/1 526/1/1
f 528/1/1 529/1/1 531/1/1
f 531/1/1 529/1/1 530/1/1
f 532/1/1 533/1/1 535/1/1
f 535/1/1 533/1/1 534/1/1
f 536/1/1 537/1/1 539/1/1
f 539/1/1 537/1/1 538/1/1
f 540/1/1 541/1/1 543/1/1
f 543/1/1 541/1/1 542/1/1
f 544/1/1 545/1/1 547/1/1
f 547/1/1 545/1/1 546/1/1
f 548/1/1 549/1/1 551/1/1
f 551/1/1 549/1/1 550/1/1
f 552/1/1 553/1/1 555/1/1
f 555/1/1 553/1/1 554/1/1
f 556/1/1 557/1/1 559/1/1
f 559/1/1 557/1/1 558/1/1
f 560/1/1 561/1/1 563/1/1
f 563/1/1 561/1/1 562/1/1
f 564/1/1 565/1/1 567/1/1
f 567/1/1 565/1/1 566/1/1
f 568/1/1 569/1/1 571/1/1
f 571/1/1 569/1/1 570/1/1
f 572/1/1 573/1/1 575/1/1
f 575/1/1 573/1/1 574/1/1
f 576/1/1 577/1/1 579/1/1
f 579/1/1 577/1/1 578/1/1
f 580/1/1 581/1/1 583/1/1
f 583/1/1 581/1/1 582/1/1
f 584/1/1 585/1/1 587/1/1
f 587/1/1 585/1/1 586/1/1
f 588/1/1 589/1/1 591/1/1
f 591/1/1 589/1/1 590/1/1
f 592/1/1 593/1/1 595/1/1
f 595/1/1 593/1/1 594/1/1
f 596/1/1 597/1/1 599/1/1
f 599/1/1 597/1/1 598/1/1
f 600/1/1 601/1/1 603/1/1
f 603/1/1 601/1/1 602/1/1
f 604/1/1 605/1/1 607/1/1
f 607/1/1 605/1/1 606/1/1
f 608/1/1 609/1/1 611/1/1
f 611/1/1 609/1/1 610/1/1
f 612/1/1 613/1/1 615/1/1
f 615/1/1 613/1/1 614/1/1
f 616/1/1 617/1/1 619/1/1
f 619/1/1 617/1/1 618/1/1
f 620/1/1 621/1/1 623/1/1
f 623/1/1 621/1/1 622/1/1
f 624/1/1 625/1/1 627/1/1
f 627/1/1 625/1/1 626/1/1
f 628/1/1 629/1/1 631/1/1
f 631/1/1 629/1/1 630/1/1
f 632/1/1 633/1/1 635/1/1
f 635/1/1 633/1/1 634/1/1
f 636/1/1 637/1/1 639/1/1
f 639/1/1 637/1/1 638/1/1
f 640/1/2 641/1/2 643/1/2
f 643/1/2 641/1/2 642/1/2
f 644/1/2 645/1/2 647/1/2
f 647/1/2 645/1/2 646/1/2
f 648/1/2 649/1/2 651/1/2
f 651/1/2 649/1/2 650/1/2
f 652/1/2 653/1/2 655/1/2
f 655/1/2 653/1/2 654/1/2
f 656/1/2 657/1/2 659/1/2
f 659/1/2 657/1/2 658/1/2
f 660/1/2 661/1/2 663/1/2
f 663/1/2 661/1/2 662/1/2
f 664/1/2 651/1/2 666/1/2
f 666/1/2 651/1/2 665/1/2
f 667/1/2 668/1/2 670/1/2
f 670/1/2 668/1/2 669/1/2
f 671/1/2 672/1/2 674/1/2
f 674/1/2 672/1/2 673/1/2
f 675/1/2 670/1/2 677/1/2
f 677/1/2 670/1/2 676/1/2
f 678/1/2 679/1/2 681/1/2
f 681/1/2 679/1/2 680/1/2
f 682/1/2 683/1/2 685/1/2
f 685/1/2 683/1/2 684/1/2
f 686/1/2 687/1/2 689/1/2
f 689/1/2 687/1/2 688/1/2
f 690/1/2 691/1/2 693/1/2
f 693/1/2 691/1/2 692/1/2
f 694/1/2 695/1/2 697/1/2
f 697/1/2 695/1/2 696/1/2
f 698/1/2 699/1/2 701/1/2
f 701/1/2 699/1/2 700/1/2
f 702/1/2 703/1/2 705/1/2
f 705/1/2 703/1/2 704/1/2
f 706/1/2 707/1/2 709/1/2
f 709/1/2 707/1/2 708/1/2
f 710/1/2 711/1/2 713/1/2
f 713/1/2 711/1/2 712/1/2
f 714/1/2 715/1/2 717/1/2
f 717/1/2 715/1/2 716/1/2
f 718/1/2 719/1/2 721/1/2
f 721/1/2 719/1/2 720/1/2
f 722/1/2 723/1/2 725/1/2
f 725/1/2 723/1/2 724/1/2
f 726/1/2 727/1/2 729/1/2
f 729/1/2 727/1/2 728/1/2
f 730/1/2 731/1/2 733/1/2
f 733/1/2 731/1/2 732/1/2
f 734/1/2 735/1/2 737/1/2
f 737/1/2 735/1/2 736/1/2
f 738/1/2 739/1/2 741/1/2
f 741/1/2 739/1/2 740/1/2
f 742/1/2 743/1/2 745/1/2
f 745/1/2 743/1/2 744/1/2
f 746/1/2 747/1/2 749/1/2
f 749/1/2 747/1/2 748/1/2
f 750/1/2 751/1/2 753/1/2
f 753/1/2 751/1/2 752/1/2
f 754/1/2 755/1/2 757/1/2
f 757/1/2 755/1/2 756/1/2
f 758/1/2 759/1/2 761/1/2
f 761/1/2 759/1/2 760/1/2
f 762/1/2 763/1/2 765/1/2
f 765/1/2 763/1/2 764/1/2
f 766/1/2 767/1/2 769/1/2
f 769/1/2 767/1/2 768/1/2
f 770/1/2 771/1/2 773/1/2
f 773/1/2 771/1/2 772/1/2
f 774/1/2 775/1/2 777/1/2
f 777/1/2 775/1/2 776/1/2
f 778/1/2 779/1/2 781/1/2
f 781/1/2 779/1/2 780/1/2
f 782/1/2 783/1/2 785/1/2
f 785/1/2 783/1/2 784/1/2
f 786/1/2 787/1/2 789/1/2
f 789/1/2 787/1/2 788/1/2
f 790/1/2 791/1/2 793/1/2
f 793/1/2 791/1/2 792/1/2
f 794/1/2 795/1/2 797/1/2
f 797/1/2 795/1/2 796/1/2
f 798/1/2 799/1/2 801/1/2
f 801/1/2 799/1/2 800/1/2
f 802/1/2 803/1/2 805/1/2
f 805/1/2 803/1/2 804/1/2
f 806/1/2 807/1/2 809/1/2
f 809/1/2 807/1/2 808/1/2
f 810/1/2 811/1/2 813/1/2
f 813/1/2 811/1/2 812/1/2
f 814/1/2 815/1/2 817/1/2
f 817/1/2 815/1/2 816/1/2
f 818/1/2 819/1/2 821/1/2
f 821/1/2 819/1/2 820/1/2
f 822/1/2 823/1/2 825/1/2
f 825/1/2 823/1/2 824/1/2
f 826/1/2 827/1/2 829/1/2
f 829/1/2 827/1/2 828/1/2
f 830/1/2 831/1/2 833/1/2
f 833/1/2 831/1/2 832/1/2
f 834/1/2 835/1/2 837/1/2
f 837/1/2 835/1/2 836/1/2
f 838/1/2 839/1/2 841/1/2
f 841/1/2 839/1/2 840/1/2
f 842/1/2 843/1/2 845/1/2
f 845/1/2 843/1/2 844/1/2
f 846/1/2 847/1/2 849/1/2
f 849/1/2 847/1/2 848/1/2
f 850/1/2 851/1/2 853/1/2
f 853/1/2 851/1/2 852/1/2
f 854/1/2 855/1/2 857/1/2
f 857/1/2 855/1/2 856/1/2
f 858/1/2 859/1/2 861/1/2
f 861/1/2 859/1/2 860/1/2
f 418/1/3 417/1/3 642/1/3
f 642/1/3 417/1/3 643/1/3
f 422/1/3 421/1/3 646/1/3
f 646/1/3 421/1/3 647/1/3
f 426/1/3 425/1/3 650/1/3
f 650/1/3 425/1/3 651/1/3
f 434/1/3 433/1/3 658/1/3
f 658/1/3 433/1/3 659/1/3
f 446/1/3 445/1/3 669/1/3
f 669/1/3 445/1/3 670/1/3
f 466/1/3 465/1/3 688/1/3
f 688/1/3 465/1/3 689/1/3
f 474/1/3 473/1/3 696/1/3
f 696/1/3 473/1/3 697/1/3
f 490/1/3 489/1/3 712/1/3
f 712/1/3 489/1/3 713/1/3
f 498/1/3 497/1/3 720/1/3
f 720/1/3 497/1/3 721/1/3
f 506/1/3 505/1/3 728/1/3
f 728/1/3 505/1/3 729/1/3
f 510/1/3 509/1/3 732/1/3
f 732/1/3 509/1/3 733/1/3
f 514/1/3 513/1/3 736/1/3
f 736/1/3 513/1/3 737/1/3
f 522/1/3 521/1/3 744/1/3
f 744/1/3 521/1/3 745/1/3
f 534/1/3 533/1/3 756/1/3
f 756/1/3 533/1/3 757/1/3
f 538/1/3 537/1/3 760/1/3
f 760/1/3 537/1/3 761/1/3
f 542/1/3 541/1/3 764/1/3
f 764/1/3 541/1/3 765/1/3
f 550/1/3 549/1/3 772/1/3
f 772/1/3 549/1/3 773/1/3
f 558/1/3 557/1/3 780/1/3
f 780/1/3 557/1/3 781/1/3
f 566/1/3 565/1/3 788/1/3
f 788/1/3 565/1/3 789/1/3
f 586/1/3 585/1/3 808/1/3
f 808/1/3 585/1/3 809/1/3
f 594/1/3 593/1/3 816/1/3
f 816/1/3 593/1/3 817/1/3
f 602/1/3 601/1/3 824/1/3
f 824/1/3 601/1/3 825/1/3
f 614/1/3 613/1/3 836/1/3
f 836/1/3 613/1/3 837/1/3
f 618/1/3 617/1/3 840/1/3
f 840/1/3 617/1/3 841/1/3
f 634/1/3 633/1/3 856/1/3
f 856/1/3 633/1/3 857/1/3
f 638/1/3 637/1/3 860/1/3
f 860/1/3 637/1/3 861/1/3
f 430/1/3 429/1/3 654/1/3
f 654/1/3 429/1/3 655/1/3
f 438/1/3 437/1/3 662/1/3
f 662/1/3 437/1/3 663/1/3
f 442/1/3 441/1/3 665/1/3
f 665/1/3 441/1/3 666/1/3
f 450/1/3 449/1/3 673/1/3
f 673/1/3 449/1/3 674/1/3
f 454/1/3 453/1/3 676/1/3
f 676/1/3 453/1/3 677/1/3
f 462/1/3 461/1/3 684/1/3
f 684/1/3 461/1/3 685/1/3
f 486/1/3 485/1/3 708/1/3
f 708/1/3 485/1/3 709/1/3
f 494/1/3 493/1/3 716/1/3
f 716/1/3 493/1/3 717/1/3
f 502/1/3 501/1/3 724/1/3
f 724/1/3 501/1/3 725/1/3
f 518/1/3 517/1/3 740/1/3
f 740/1/3 517/1/3 741/1/3
f 546/1/3 545/1/3 768/1/3
f 768/1/3 545/1/3 769/1/3
f 554/1/3 553/1/3 776/1/3
f 776/1/3 553/1/3 777/1/3
f 562/1/3 561/1/3 784/1/3
f 784/1/3 561/1/3 785/1/3
f 570/1/3 569/1/3 792/1/3
f 792/1/3 569/1/3 793/1/3
f 578/1/3 577/1/3 800/1/3
f 800/1/3 577/1/3 801/1/3
f 590/1/3 589/1/3 812/1/3
f 812/1/3 589/1/3 813/1/3
f 598/1/3 597/1/3 820/1/3
f 820/1/3 597/1/3 821/1/3
f 606/1/3 605/1/3 828/1/3
f 828/1/3 605/1/3 829/1/3
f 610/1/3 609/1/3 832/1/3
f 832/1/3 609/1/3 833/1/3
f 622/1/3 621/1/3 844/1/3
f 844/1/3 621/1/3 845/1/3
f 626/1/3 625/1/3 848/1/3
f 848/1/3 625/1/3 849/1/3
f 458/1/3 457/1/3 680/1/3
f 680/1/3 457/1/3 681/1/3
f 478/1/3 477/1/3 700/1/3
f 700/1/3 477/1/3 701/1/3
f 482/1/3 481/1/3 704/1/3
f 704/1/3 481/1/3 705/1/3
f 526/1/3 525/1/3 748/1/3
f 748/1/3 525/1/3 749/1/3
f 530/1/3 529/1/3 752/1/3
f 752/1/3 529/1/3 753/1/3
f 582/1/3 581/1/3 804/1/3
f 804/1/3 581/1/3 805/1/3
f 630/1/3 629/1/3 852/1/3
f 852/1/3 629/1/3 853/1/3
f 470/1/3 469/1/3 692/1/3
f 692/1/3 469/1/3 693/1/3
f 574/1/3 573/1/3 796/1/3
f 796/1/3 573/1/3 797/1/3
f 419/1/4 641/1/4 416/1/4
f 416/1/4 641/1/4 640/1/4
f 423/1/4 645/1/4 420/1/4
f 420/1/4 645/1/4 644/1/4
f 427/1/4 649/1/4 424/1/4
f 424/1/4 649/1/4 648/1/4
f 435/1/4 657/1/4 432/1/4
f 432/1/4 657/1/4 656/1/4
f 447/1/4 668/1/4 444/1/4
f 444/1/4 668/1/4 667/1/4
f 467/1/4 687/1/4 464/1/4
f 464/1/4 687/1/4 686/1/4
f 475/1/4 695/1/4 472/1/4
f 472/1/4 695/1/4 694/1/4
f 491/1/4 711/1/4 488/1/4
f 488/1/4 711/1/4 710/1/4
f 499/1/4 719/1/4 496/1/4
f 496/1/4 719/1/4 718/1/4
f 507/1/4 727/1/4 504/1/4
f 504/1/4 727/1/4 726/1/4
f 511/1/4 731/1/4 508/1/4
f 508/1/4 731/1/4 730/1/4
f 515/1/4 735/1/4 512/1/4
f 512/1/4 735/1/4 734/1/4
f 523/1/4 743/1/4 520/1/4
f 520/1/4 743/1/4 742/1/4
f 535/1/4 755/1/4 532/1/4
f 532/1/4 755/1/4 754/1/4
f 539/1/4 759/1/4 536/1/4
f 536/1/4 759/1/4 758/1/4
f 543/1/4 763/1/4 540/1/4
f 540/1/4 763/1/4 762/1/4
f 551/1/4 771/1/4 548/1/4
f 548/1/4 771/1/4 770/1/4
f 559/1/4 779/1/4 556/1/4
f 556/1/4 779/1/4 778/1/4
f 567/1/4 787/1/4 564/1/4
f 564/1/4 787/1/4 786/1/4
f 587/1/4 807/1/4 584/1/4
f 584/1/4 807/1/4 806/1/4
f 595/1/4 815/1/4 592/1/4
f 592/1/4 815/1/4 814/1/4
f 603/1/4 823/1/4 600/1/4
f 600/1/4 823/1/4 822/1/4
f 615/1/4 835/1/4 612/1/4
f 612/1/4 835/1/4 834/1/4
f 619/1/4 839/1/4 616/1/4
f 616/1/4 839/1/4 838/1/4
f 635/1/4 855/1/4 632/1/4
f 632/1/4 855/1/4 854/1/4
f 639/1/4 859/1/4 636/1/4
f 636/1/4 859/1/4 858/1/4
f 431/1/4 653/1/4 428/1/4
f 428/1/4 653/1/4 652/1/4
f 439/1/4 661/1/4 436/1/4
f 436/1/4 661/1/4 660/1/4
f 443/1/4 651/1/4 440/1/4
f 440/1/4 651/1/4 664/1/4
f 451/1/4 672/1/4 448/1/4
f 448/1/4 672/1/4 671/1/4
f 455/1/4 670/1/4 452/1/4
f 452/1/4 670/1/4 675/1/4
f 463/1/4 683/1/4 460/1/4
f 460/1/4 683/1/4 682/1/4
f 487/1/4 707/1/4 484/1/4
f 484/1/4 707/1/4 706/1/4
f 495/1/4 715/1/4 492/1/4
f 492/1/4 715/1/4 714/1/4
f 503/1/4 723/1/4 500/1/4
f 500/1/4 723/1/4 722/1/4
f 519/1/4 739/1/4 516/1/4
f 516/1/4 739/1/4 738/1/4
f 547/1/4 767/1/4 544/1/4
f 544/1/4 767/1/4 766/1/4
f 555/1/4 775/1/4 552/1/4
f 552/1/4 775/1/4 774/1/4
f 563/1/4 783/1/4 560/1/4
f 560/1/4 783/1/4 782/1/4
f 571/1/4 791/1/4 568/1/4
f 568/1/4 791/1/4 790/1/4
f 579/1/4 799/1/4 576/1/4
f 576/1/4 799/1/4 798/1/4
f 591/1/4 811/1/4 588/1/4
f 588/1/4 811/1/4 810/1/4
f 599/1/4 819/1/4 596/1/4
f 596/1/4 819/1/4 818/1/4
f 607/1/4 827/1/4 604/1/4
f 604/1/4 827/1/4 826/1/4
f 611/1/4 831/1/4 608/1/4
f 608/1/4 831/1/4 830/1/4
f 623/1/4 843/1/4 620/1/4
f 620/1/4 843/1/4 842/1/4
f 627/1/4 847/1/4 624/1/4
f 624/1/4 847/1/4 846/1/4
f 459/1/4 679/1/4 456/1/4
f 456/1/4 679/1/4 678/1/4
f 479/1/4 699/1/4 476/1/4
f 476/1/4 699/1/4 698/1/4
f 483/1/4 703/1/4 480/1/4
f 480/1/4 703/1/4 702/1/4
f 527/1/4 747/1/4 524/1/4
f 524/1/4 747/1/4 746/1/4
f 531/1/4 751/1/4 528/1/4
f 528/1/4 751/1/4 750/1/4
f 583/1/4 803/1/4 580/1/4
f 580/1/4 803/1/4 802/1/4
f 631/1/4 851/1/4 628/1/4
f 628/1/4 851/1/4 850/1/4
f 471/1/4 691/1/4 468/1/4
f 468/1/4 691/1/4 690/1/4
f 575/1/4 795/1/4 572/1/4
f 572/1/4 795/1/4 794/1/4
f 685/1/5 461/1/5 682/1/5
f 682/1/5 461/1/5 460/1/5
f 709/1/5 485/1/5 706/1/5
f 706/1/5 485/1/5 484/1/5
f 737/1/5 513/1/5 734/1/5
f 734/1/5 513/1/5 512/1/5
f 663/1/5 437/1/5 660/1/5
f 660/1/5 437/1/5 436/1/5
f 761/1/5 537/1/5 758/1/5
f 758/1/5 537/1/5 536/1/5
f 651/1/5 425/1/5 648/1/5
f 648/1/5 425/1/5 424/1/5
f 713/1/5 489/1/5 710/1/5
f 710/1/5 489/1/5 488/1/5
f 693/1/5 469/1/5 690/1/5
f 690/1/5 469/1/5 468/1/5
f 781/1/5 557/1/5 778/1/5
f 778/1/5 557/1/5 556/1/5
f 666/1/5 441/1/5 664/1/5
f 664/1/5 441/1/5 440/1/5
f 741/1/5 517/1/5 738/1/5
f 738/1/5 517/1/5 516/1/5
f 721/1/5 497/1/5 718/1/5
f 718/1/5 497/1/5 496/1/5
f 817/1/5 593/1/5 814/1/5
f 814/1/5 593/1/5 592/1/5
f 689/1/5 465/1/5 686/1/5
f 686/1/5 465/1/5 464/1/5
f 745/1/5 521/1/5 742/1/5
f 742/1/5 521/1/5 520/1/5
f 655/1/5 429/1/5 652/1/5
f 652/1/5 429/1/5 428/1/5
f 769/1/5 545/1/5 766/1/5
f 766/1/5 545/1/5 544/1/5
f 801/1/5 577/1/5 798/1/5
f 798/1/5 577/1/5 576/1/5
f 701/1/5 477/1/5 698/1/5
f 698/1/5 477/1/5 476/1/5
f 643/1/5 417/1/5 640/1/5
f 640/1/5 417/1/5 416/1/5
f 674/1/5 449/1/5 671/1/5
f 671/1/5 449/1/5 448/1/5
f 821/1/5 597/1/5 818/1/5
f 818/1/5 597/1/5 596/1/5
f 749/1/5 525/1/5 746/1/5
f 746/1/5 525/1/5 524/1/5
f 785/1/5 561/1/5 782/1/5
f 782/1/5 561/1/5 560/1/5
f 805/1/5 581/1/5 802/1/5
f 802/1/5 581/1/5 580/1/5
f 773/1/5 549/1/5 770/1/5
f 770/1/5 549/1/5 548/1/5
f 825/1/5 601/1/5 822/1/5
f 822/1/5 601/1/5 600/1/5
f 841/1/5 617/1/5 838/1/5
f 838/1/5 617/1/5 616/1/5
f 861/1/5 637/1/5 858/1/5
f 858/1/5 637/1/5 636/1/5
f 725/1/5 501/1/5 722/1/5
f 722/1/5 501/1/5 500/1/5
f 705/1/5 481/1/5 702/1/5
f 702/1/5 481/1/5 480/1/5
f 670/1/5 445/1/5 667/1/5
f 667/1/5 445/1/5 444/1/5
f 789/1/5 565/1/5 786/1/5
f 786/1/5 565/1/5 564/1/5
f 833/1/5 609/1/5 830/1/5
f 830/1/5 609/1/5 608/1/5
f 697/1/5 473/1/5 694/1/5
f 694/1/5 473/1/5 472/1/5
f 677/1/5 453/1/5 675/1/5
f 675/1/5 453/1/5 452/1/5
f 753/1/5 529/1/5 750/1/5
f 750/1/5 529/1/5 528/1/5
f 853/1/5 629/1/5 850/1/5
f 850/1/5 629/1/5 628/1/5
f 647/1/5 421/1/5 644/1/5
f 644/1/5 421/1/5 420/1/5
f 729/1/5 505/1/5 726/1/5
f 726/1/5 505/1/5 504/1/5
f 777/1/5 553/1/5 774/1/5
f 774/1/5 553/1/5 552/1/5
f 813/1/5 589/1/5 810/1/5
f 810/1/5 589/1/5 588/1/5
f 845/1/5 621/1/5 842/1/5
f 842/1/5 621/1/5 620/1/5
f 797/1/5 573/1/5 794/1/5
f 794/1/5 573/1/5 572/1/5
f 757/1/5 533/1/5 754/1/5
f 754/1/5 533/1/5 532/1/5
f 837/1/5 613/1/5 834/1/5
f 834/1/5 613/1/5 612/1/5
f 717/1/5 493/1/5 714/1/5
f 714/1/5 493/1/5 492/1/5
f 659/1/5 433/1/5 656/1/5
f 656/1/5 433/1/5 432/1/5
f 733/1/5 509/1/5 730/1/5
f 730/1/5 509/1/5 508/1/5
f 765/1/5 541/1/5 762/1/5
f 762/1/5 541/1/5 540/1/5
f 809/1/5 585/1/5 806/1/5
f 806/1/5 585/1/5 584/1/5
f 857/1/5 633/1/5 854/1/5
f 854/1/5 633/1/5 632/1/5
f 793/1/5 569/1/5 790/1/5
f 790/1/5 569/1/5 568/1/5
f 849/1/5 625/1/5 846/1/5
f 846/1/5 625/1/5 624/1/5
f 681/1/5 457/1/5 678/1/5
f 678/1/5 457/1/5 456/1/5
f 829/1/5 605/1/5 826/1/5
f 826/1/5 605/1/5 604/1/5
f 684/1/6 683/1/6 462/1/6
f 462/1/6 683/1/6 463/1/6
f 708/1/6 707/1/6 486/1/6
f 486/1/6 707/1/6 487/1/6
f 736/1/6 735/1/6 514/1/6
f 514/1/6 735/1/6 515/1/6
f 662/1/6 661/1/6 438/1/6
f 438/1/6 661/1/6 439/1/6
f 760/1/6 759/1/6 538/1/6
f 538/1/6 759/1/6 539/1/6
f 650/1/6 649/1/6 426/1/6
f 426/1/6 649/1/6 427/1/6
f 712/1/6 711/1/6 490/1/6
f 490/1/6 711/1/6 491/1/6
f 692/1/6 691/1/6 470/1/6
f 470/1/6 691/1/6 471/1/6
f 780/1/6 779/1/6 558/1/6
f 558/1/6 779/1/6 559/1/6
f 665/1/6 651/1/6 442/1/6
f 442/1/6 651/1/6 443/1/6
f 740/1/6 739/1/6 518/1/6
f 518/1/6 739/1/6 519/1/6
f 720/1/6 719/1/6 498/1/6
f 498/1/6 719/1/6 499/1/6
f 816/1/6 815/1/6 594/1/6
f 594/1/6 815/1/6 595/1/6
f 688/1/6 687/1/6 466/1/6
f 466/1/6 687/1/6 467/1/6
f 744/1/6 743/1/6 522/1/6
f 522/1/6 743/1/6 523/1/6
f 654/1/6 653/1/6 430/1/6
f 430/1/6 653/1/6 431/1/6
f 768/1/6 767/1/6 546/1/6
f 546/1/6 767/1/6 547/1/6
f 800/1/6 799/1/6 578/1/6
f 578/1/6 799/1/6 579/1/6
f 700/1/6 699/1/6 478/1/6
f 478/1/6 699/1/6 479/1/6
f 642/1/6 641/1/6 418/1/6
f 418/1/6 641/1/6 419/1/6
f 673/1/6 672/1/6 450/1/6
f 450/1/6 672/1/6 451/1/6
f 820/1/6 819/1/6 598/1/6
f 598/1/6 819/1/6 599/1/6
f 748/1/6 747/1/6 526/1/6
f 526/1/6 747/1/6 527/1/6
f 784/1/6 783/1/6 562/1/6
f 562/1/6 783/1/6 563/1/6
f 804/1/6 803/1/6 582/1/6
f 582/1/6 803/1/6 583/1/6
f 772/1/6 771/1/6 550/1/6
f 550/1/6 771/1/6 551/1/6
f 824/1/6 823/1/6 602/1/6
f 602/1/6 823/1/6 603/1/6
f 840/1/6 839/1/6 618/1/6
f 618/1/6 839/1/6 619/1/6
f 860/1/6 859/1/6 638/1/6
f 638/1/6 859/1/6 639/1/6
f 724/1/6 723/1/6 502/1/6
f 502/1/6 723/1/6 503/1/6
f 704/1/6 703/1/6 482/1/6
f 482/1/6 703/1/6 483/1/6
f 669/1/6 668/1/6 446/1/6
f 446/1/6 668/1/6 447/1/6
f 788/1/6 787/1/6 566/1/6
f 566/1/6 787/1/6 567/1/6
f 832/1/6 831/1/6 610/1/6
f 610/1/6 831/1/6 611/1/6
f 696/1/6 695/1/6 474/1/6
f 474/1/6 695/1/6 475/1/6
f 676/1/6 670/1/6 454/1/6
f 454/1/6 670/1/6 455/1/6
f 752/1/6 751/1/6 530/1/6
f 530/1/6 751/1/6 531/1/6
f 852/1/6 851/1/6 630/1/6
f 630/1/6 851/1/6 631/1/6
f 646/1/6 645/1/6 422/1/6
f 422/1/6 645/1/6 423/1/6
f 728/1/6 727/1/6 506/1/6
f 506/1/6 727/1/6 507/1/6
f 776/1/6 775/1/6 554/1/6
f 554/1/6 775/1/6 555/1/6
f 812/1/6 811/1/6 590/1/6
f 590/1/6 811/1/6 591/1/6
f 844/1/6 843/1/6 622/1/6
f 622/1/6 843/1/6 623/1/6
f 796/1/6 795/1/6 574/1/6
f 574/1/6 795/1/6 575/1/6
f 756/1/6 755/1/6 534/1/6
f 534/1/6 755/1/6 535/1/6
f 836/1/6 835/1/6 614/1/6
f 614/1/6 835/1/6 615/1/6
f 716/1/6 715/1/6 494/1/6
f 494/1/6 715/1/6 495/1/6
f 658/1/6 657/1/6 434/1/6
f 434/1/6 657/1/6 435/1/6
f 732/1/6 731/1/6 510/1/6
f 510/1/6 731/1/6 511/1/6
f 764/1/6 763/1/6 542/1/6
f 542/1/6 763/1/6 543/1/6
f 808/1/6 807/1/6 586/1/6
f 586/1/6 807/1/6 587/1/6
f 856/1/6 855/1/6 634/1/6
f 634/1/6 855/1/6 635/1/6
f 792/1/6 791/1/6 570/1/6
f 570/1/6 791/1/6 571/1/6
f 848/1/6 847/1/6 626/1/6
f 626/1/6 847/1/6 627/1/6
f 680/1/6 679/1/6 458/1/6
f 458/1/6 679/1/6 459/1/6
f 828/1/6 827/1/6 606/1/6
f 606/1/6 827/1/6 607/1/6
f 862/1/1 863/1/1 865/1/1
f 865/1/1 863/1/1 864/1/1
f 866/1/1 867/1/1 869/1/1
f 869/1/1 867/1/1 868/1/1
f 870/1/1 871/1/1 873/1/1
f 873/1/1 871/1/1 872/1/1
f 874/1/1 875/1/1 877/1/1
f 877/1/1 875/1/1 876/1/1
f 878/1/1 879/1/1 881/1/1
f 881/1/1 879/1/1 880/1/1
f 882/1/1 883/1/1 885/1/1
f 885/1/1 883/1/1 884/1/1
f 886/1/1 887/1/1 889/1/1
f 889/1/1 887/1/1 888/1/1
f 890/1/1 891/1/1 893/1/1
f 893/1/1 891/1/1 892/1/1
f 894/1/1 895/1/1 897/1/1
f 897/1/1 895/1/1 896/1/1
f 898/1/1 899/1/1 901/1/1
f 901/1/1 899/1/1 900/1/1
f 902/1/1 903/1/1 905/1/1
f 905/1/1 903/1/1 904/1/1
f 906/1/1 907/1/1 909/1/1
f 909/1/1 907/1/1 908/1/1
f 910/1/1 911/1/1 913/1/1
f 913/1/1 911/1/1 912/1/1
f 914/1/1 915/1/1 917/1/1
f 917/1/1 915/1/1 916/1/1
f 918/1/1 919/1/1 921/1/1
f 921/1/1 919/1/1 920/1/1
f 922/1/1 923/1/1 925/1/1
f 925/1/1 923/1/1 924/1/1
f 926/1/1 927/1/1 929/1/1
f 929/1/1 927/1/1 928/1/1
f 930/1/1 931/1/1 933/1/1
f 933/1/1 931/1/1 932/1/1
f 934/1/1 935/1/1 937/1/1
f 937/1/1 935/1/1 936/1/1
f 938/1/1 939/1/1 941/1/1
f 941/1/1 939/1/1 940/1/1
f 942/1/1 943/1/1 945/1/1
f 945/1/1 943/1/1 944/1/1
f 946/1/1 947/1/1 949/1/1
f 949/1/1 947/1/1 948/1/1
f 950/1/1 951/1/1 953/1/1
f 953/1/1 951/1/1 952/1/1
f 954/1/1 955/1/1 957/1/1
f 957/1/1 955/1/1 956/1/1
f 958/1/1 959/1/1 961/1/1
f 961/1/1 959/1/1 960/1/1
f 962/1/1 963/1/1 965/1/1
f 965/1/1 963/1/1 964/1/1
f 966/1/1 967/1/1 969/1/1
f 969/1/1 967/1/1 968/1/1
f 970/1/1 971/1/1 973/1/1
f 973/1/1 971/1/1 972/1/1
f 974/1/1 975/1/1 977/1/1
f 977/1/1 975/1/1 976/1/1
f 978/1/1 979/1/1 981/1/1
f 981/1/1 979/1/1 980/1/1
f 982/1/1 983/1/1 985/1/1
f 985/1/1 983/1/1 984/1/1
f 986/1/1 987/1/1 989/1/1
f 989/1/1 987/1/1 988/1/1
f 990/1/1 991/1/1 993/1/1
f 993/1/1 991/1/1 992/1/1
f 994/1/1 995/1/1 997/1/1
f 997/1/1 995/1/1 996/1/1
f 998/1/1 999/1/1 1001/1/1
f 1001/1/1 999/1/1 1000/1/1
f 1002/1/1 1003/1/1 1005/1/1
f 1005/1/1 1003/1/1 1004/1/1
f 1006/1/1 1007/1/1 1009/1/1
f 1009/1/1 1007/1/1 1008/1/1
f 1010/1/1 1011/1/1 1013/1/1
f 1013/1/1 1011/1/1 1012/1/1
f 1014/1/1 1015/1/1 1017/1/1
f 1017/1/1 1015/1/1 1016/1/1
f 1018/1/1 1019/1/1 1021/1/1
f 1021/1/1 1019/1/1 1020/1/1
f 1022/1/1 1023/1/1 1025/1/1
f 1025/1/1 1023/1/1 1024/1/1
f 1026/1/1 1027/1/1 1029/1/1
f 1029/1/1 1027/1/1 1028/1/1
f 1030/1/1 1031/1/1 1033/1/1
f 1033/1/1 1031/1/1 1032/1/1
f 1034/1/1 1035/1/1 1037/1/1
f 1037/1/1 1035/1/1 1036/1/1
f 1038/1/1 1039/1/1 1041/1/1
f 1041/1/1 1039/1/1 1040/1/1
f 1042/1/1 1043/1/1 1045/1/1
f 1045/1/1 1043/1/1 1044/1/1
f 1046/1/1 1047/1/1 1049/1/1
f 1049/1/1 1047/1/1 1048/1/1
f 1050/1/1 1051/1/1 1053/1/1
f 1053/1/1 1051/1/1 1052/1/1
f 1054/1/1 1055/1/1 1057/1/1
f 1057/1/1 1055/1/1 1056/1/1
f 1058/1/1 1059/1/1 1061/1/1
f 1061/1/1 1059/1/1 1060/1/1
f 1062/1/1 1063/1/1 1065/1/1
f 1065/1/1 1063/1/1 1064/1/1
f 1066/1/1 1067/1/1 1069/1/1
f 1069/1/1 1067/1/1 1068/1/1
f 1070/1/1 1071/1/1 1073/1/1
f 1073/1/1 1071/1/1 1072/1/1
f 1074/1/1 1075/1/1 1077/1/1
f 1077/1/1 1075/1/1 1076/1/1
f 1078/1/1 1079/1/1 1081/1/1
f 1081/1/1 1079/1/1 1080/1/1
f 1082/1/1 1083/1/1 1085/1/1
f 1085/1/1 1083/1/1 1084/1/1
f 1086/1/1 1087/1/1 1089/1/1
f 1089/1/1 1087/1/1 1088/1/1
f 1090/1/1 1091/1/1 1093/1/1
f 1093/1/1 1091/1/1 1092/1/1
f 1094/1/1 1095/1/1 1097/1/1
f 1097/1/1 1095/1/1 1096/1/1
f 1098/1/1 1099/1/1 1101/1/1
f 1101/1/1 1099/1/1 1100/1/1
f 1102/1/1 1103/1/1 1105/1/1
f 1105/1/1 1103/1/1 1104/1/1
f 1106/1/1 1107/1/1 1109/1/1
f 1109/1/1 1107/1/1 1108/1/1
f 1110/1/1 1111/1/1 1113/1/1
f 1113/1/1 1111/1/1 1112/1/1
f 1114/1/1 1115/1/1 1117/1/1
f 1117/1/1 1115/1/1 1116/1/1
f 1118/1/1 1119/1/1 1121/1/1
f 1121/1/1 1119/1/1 1120/1/1
f 1122/1/1 1123/1/1 1125/1/1
f 1125/1/1 1123/1/1 1124/1/1
f 1126/1/1 1127/1/1 1129/1/1
f 1129/1/1 1127/1/1 1128/1/1
f 1130/1/1 1131/1/1 1133/1/1
f 1133/1/1 1131/1/1 1132/1/1
f 1134/1/1 1135/1/1 1137/1/1
f 1137/1/1 1135/1/1 1136/1/1
f 1138/1/1 1139/1/1 1141/1/1
f 1141/1/1 1139/1/1 1140/1/1
f 1142/1/1 1143/1/1 1145/1/1
f 1145/1/1 1143/1/1 1144/1/1
f 1146/1/1 1147/1/1 1149/1/1
f 1149/1/1 1147/1/1 1148/1/1
f 1150/1/1 1151/1/1 1153/1/1
f 1153/1/1 1151/1/1 1152/1/1
f 1154/1/1 1155/1/1 1157/1/1
f 1157/1/1 1155/1/1 1156/1/1
f 1158/1/2 1159/1/2 1161/1/2
f 1161/1/2 1159/1/2 1160/1/2
f 1162/1/2 1163/1/2 1165/1/2
f 1165/1/2 1163/1/2 1164/1/2
f 1166/1/2 1167/1/2 1169/1/2
f 1169/1/2 1167/1/2 1168/1/2
f 1170/1/2 1171/1/2 1172/1/2
f 1172/1/2 1171/1/2 1162/1/2
f 1173/1/2 1174/1/2 1176/1/2
f 1176/1/2 1174/1/2 1175/1/2
f 1177/1/2 1178/1/2 1180/1/2
f 1180/1/2 1178/1/2 1179/1/2
f 1181/1/2 1182/1/2 1184/1/2
f 1184/1/2 1182/1/2 1183/1/2
f 1185/1/2 1186/1/2 1188/1/2
f 1188/1/2 1186/1/2 1187/1/2
f 1189/1/2 1190/1/2 1192/1/2
f 1192/1/2 1190/1/2 1191/1/2
f 1193/1/2 1194/1/2 1196/1/2
f 1196/1/2 1194/1/2 1195/1/2
f 1197/1/2 1198/1/2 1200/1/2
f 1200/1/2 1198/1/2 1199/1/2
f 1201/1/2 1202/1/2 1204/1/2
f 1204/1/2 1202/1/2 1203/1/2
f 1205/1/2 1206/1/2 1208/1/2
f 1208/1/2 1206/1/2 1207/1/2
f 1209/1/2 1210/1/2 1212/1/2
f 1212/1/2 1210/1/2 1211/1/2
f 1213/1/2 1214/1/2 1216/1/2
f 1216/1/2 1214/1/2 1215/1/2
f 1217/1/2 1218/1/2 1220/1/2
f 1220/1/2 1218/1/2 1219/1/2
f 1221/1/2 1222/1/2 1224/1/2
f 1224/1/2 1222/1/2 1223/1/2
f 1225/1/2 1226/1/2 1228/1/2
f 1228/1/2 1226/1/2 1227/1/2
f 1229/1/2 1230/1/2 1232/1/2
f 1232/1/2 1230/1/2 1231/1/2
f 1233/1/2 1234/1/2 1236/1/2
f 1236/1/2 1234/1/2 1235/1/2
f 1237/1/2 1238/1/2 1240/1/2
f 1240/1/2 1238/1/2 1239/1/2
f 1241/1/2 1242/1/2 1244/1/2
f 1244/1/2 1242/1/2 1243/1/2
f 1245/1/2 1246/1/2 1248/1/2
f 1248/1/2 1246/1/2 1247/1/2
f 1249/1/2 1250/1/2 1252/1/2
f 1252/1/2 1250/1/2 1251/1/2
f 1253/1/2 1254/1/2 1256/1/2
f 1256/1/2 1254/1/2 1255/1/2
f 1257/1/2 1258/1/2 1260/1/2
f 1260/1/2 1258/1/2 1259/1/2
f 1261/1/2 1262/1/2 1264/1/2
f 1264/1/2 1262/1/2 1263/1/2
f 1265/1/2 1266/1/2 1268/1/2
f 1268/1/2 1266/1/2 1267/1/2
f 1269/1/2 1270/1/2 1272/1/2
f 1272/1/2 1270/1/2 1271/1/2
f 1273/1/2 1274/1/2 1276/1/2
f 1276/1/2 1274/1/2 1275/1/2
f 1277/1/2 1278/1/2 1280/1/2
f 1280/1/2 1278/1/2 1279/1/2
f 1281/1/2 1282/1/2 1284/1/2
f 1284/1/2 1282/1/2 1283/1/2
f 1285/1/2 1286/1/2 1288/1/2
f 1288/1/2 1286/1/2 1287/1/2
f 1289/1/2 1290/1/2 1292/1/2
f 1292/1/2 1290/1/2 1291/1/2
f 1293/1/2 1294/1/2 1296/1/2
f 1296/1/2 1294/1/2 1295/1/2
f 1297/1/2 1298/1/2 1300/1/2
f 1300/1/2 1298/1/2 1299/1/2
f 1301/1/2 1302/1/2 1304/1/2
f 1304/1/2 1302/1/2 1303/1/2
f 1305/1/2 1306/1/2 1308/1/2
f 1308/1/2 1306/1/2 1307/1/2
f 1309/1/2 1310/1/2 1312/1/2
f 1312/1/2 1310/1/2 1311/1/2
f 1313/1/2 1314/1/2 1316/1/2
f 1316/1/2 1314/1/2 1315/1/2
f 1317/1/2 1318/1/2 1320/1/2
f 1320/1/2 1318/1/2 1319/1/2
f 1321/1/2 1322/1/2 1324/1/2
f 1324/1/2 1322/1/2 1323/1/2
f 1325/1/2 1326/1/2 1328/1/2
f 1328/1/2 1326/1/2 1327/1/2
f 1329/1/2 1330/1/2 1332/1/2
f 1332/1/2 1330/1/2 1331/1/2
f 1333/1/2 1334/1/2 1336/1/2
f 1336/1/2 1334/1/2 1335/1/2
f 1337/1/2 1338/1/2 1340/1/2
f 1340/1/2 1338/1/2 1339/1/2
f 1341/1/2 1342/1/2 1344/1/2
f 1344/1/2 1342/1/2 1343/1/2
f 1345/1/2 1346/1/2 1348/1/2
f 1348/1/2 1346/1/2 1347/1/2
f 1349/1/2 1350/1/2 1352/1/2
f 1352/1/2 1350/1/2 1351/1/2
f 1353/1/2 1354/1/2 1356/1/2
f 1356/1/2 1354/1/2 1355/1/2
f 1357/1/2 1358/1/2 1360/1/2
f 1360/1/2 1358/1/2 1359/1/2
f 1361/1/2 1362/1/2 1364/1/2
f 1364/1/2 1362/1/2 1363/1/2
f 1365/1/2 1366/1/2 1368/1/2
f 1368/1/2 1366/1/2 1367/1/2
f 1369/1/2 1370/1/2 1372/1/2
f 1372/1/2 1370/1/2 1371/1/2
f 1373/1/2 1374/1/2 1376/1/2
f 1376/1/2 1374/1/2 1375/1/2
f 1377/1/2 1378/1/2 1380/1/2
f 1380/1/2 1378/1/2 1379/1/2
f 1381/1/2 1382/1/2 1384/1/2
f 1384/1/2 1382/1/2 1383/1/2
f 1385/1/2 1386/1/2 1388/1/2
f 1388/1/2 1386/1/2 1387/1/2
f 1389/1/2 1390/1/2 1392/1/2
f 1392/1/2 1390/1/2 1391/1/2
f 1393/1/2 1394/1/2 1396/1/2
f 1396/1/2 1394/1/2 1395/1/2
f 1397/1/2 1398/1/2 1400/1/2
f 1400/1/2 1398/1/2 1399/1/2
f 1401/1/2 1402/1/2 1404/1/2
f 1404/1/2 1402/1/2 1403/1/2
f 1405/1/2 1406/1/2 1408/1/2
f 1408/1/2 1406/1/2 1407/1/2
f 1409/1/2 1410/1/2 1412/1/2
f 1412/1/2 1410/1/2 1411/1/2
f 1413/1/2 1414/1/2 1416/1/2
f 1416/1/2 1414/1/2 1415/1/2
f 1417/1/2 1418/1/2 1420/1/2
f 1420/1/2 1418/1/2 1419/1/2
f 1421/1/2 1422/1/2 1424/1/2
f 1424/1/2 1422/1/2 1423/1/2
f 1425/1/2 1426/1/2 1428/1/2
f 1428/1/2 1426/1/2 1427/1/2
f 1429/1/2 1430/1/2 1432/1/2
f 1432/1/2 1430/1/2 1431/1/2
f 1433/1/2 1434/1/2 1436/1/2
f 1436/1/2 1434/1/2 1435/1/2
f 1437/1/2 1438/1/2 1440/1/2
f 1440/1/2 1438/1/2 1439/1/2
f 1441/1/2 1442/1/2 1444/1/2
f 1444/1/2 1442/1/2 1443/1/2
f 1445/1/2 1446/1/2 1448/1/2
f 1448/1/2 1446/1/2 1447/1/2
f 1449/1/2 1450/1/2 1452/1/2
f 1452/1/2 1450/1/2 1451/1/2
f 864/1/3 863/1/3 1160/1/3
f 1160/1/3 863/1/3 1161/1/3
f 872/1/3 871/1/3 1168/1/3
f 1168/1/3 871/1/3 1169/1/3
f 880/1/3 879/1/3 1175/1/3
f 1175/1/3 879/1/3 1176/1/3
f 884/1/3 883/1/3 1179/1/3
f 1179/1/3 883/1/3 1180/1/3
f 892/1/3 891/1/3 1187/1/3
f 1187/1/3 891/1/3 1188/1/3
f 900/1/3 899/1/3 1195/1/3
f 1195/1/3 899/1/3 1196/1/3
f 908/1/3 907/1/3 1203/1/3
f 1203/1/3 907/1/3 1204/1/3
f 912/1/3 911/1/3 1207/1/3
f 1207/1/3 911/1/3 1208/1/3
f 916/1/3 915/1/3 1211/1/3
f 1211/1/3 915/1/3 1212/1/3
f 920/1/3 919/1/3 1215/1/3
f 1215/1/3 919/1/3 1216/1/3
f 932/1/3 931/1/3 1227/1/3
f 1227/1/3 931/1/3 1228/1/3
f 940/1/3 939/1/3 1235/1/3
f 1235/1/3 939/1/3 1236/1/3
f 948/1/3 947/1/3 1243/1/3
f 1243/1/3 947/1/3 1244/1/3
f 952/1/3 951/1/3 1247/1/3
f 1247/1/3 951/1/3 1248/1/3
f 960/1/3 959/1/3 1255/1/3
f 1255/1/3 959/1/3 1256/1/3
f 972/1/3 971/1/3 1267/1/3
f 1267/1/3 971/1/3 1268/1/3
f 988/1/3 987/1/3 1283/1/3
f 1283/1/3 987/1/3 1284/1/3
f 996/1/3 995/1/3 1291/1/3
f 1291/1/3 995/1/3 1292/1/3
f 1008/1/3 1007/1/3 1303/1/3
f 1303/1/3 1007/1/3 1304/1/3
f 1012/1/3 1011/1/3 1307/1/3
f 1307/1/3 1011/1/3 1308/1/3
f 1016/1/3 1015/1/3 1311/1/3
f 1311/1/3 1015/1/3 1312/1/3
f 1020/1/3 1019/1/3 1315/1/3
f 1315/1/3 1019/1/3 1316/1/3
f 1040/1/3 1039/1/3 1335/1/3
f 1335/1/3 1039/1/3 1336/1/3
f 1044/1/3 1043/1/3 1339/1/3
f 1339/1/3 1043/1/3 1340/1/3
f 1048/1/3 1047/1/3 1343/1/3
f 1343/1/3 1047/1/3 1344/1/3
f 1068/1/3 1067/1/3 1363/1/3
f 1363/1/3 1067/1/3 1364/1/3
f 1072/1/3 1071/1/3 1367/1/3
f 1367/1/3 1071/1/3 1368/1/3
f 1092/1/3 1091/1/3 1387/1/3
f 1387/1/3 1091/1/3 1388/1/3
f 1096/1/3 1095/1/3 1391/1/3
f 1391/1/3 1095/1/3 1392/1/3
f 1108/1/3 1107/1/3 1403/1/3
f 1403/1/3 1107/1/3 1404/1/3
f 1132/1/3 1131/1/3 1427/1/3
f 1427/1/3 1131/1/3 1428/1/3
f 1136/1/3 1135/1/3 1431/1/3
f 1431/1/3 1135/1/3 1432/1/3
f 1144/1/3 1143/1/3 1439/1/3
f 1439/1/3 1143/1/3 1440/1/3
f 1148/1/3 1147/1/3 1443/1/3
f 1443/1/3 1147/1/3 1444/1/3
f 1152/1/3 1151/1/3 1447/1/3
f 1447/1/3 1151/1/3 1448/1/3
f 868/1/3 867/1/3 1164/1/3
f 1164/1/3 867/1/3 1165/1/3
f 896/1/3 895/1/3 1191/1/3
f 1191/1/3 895/1/3 1192/1/3
f 904/1/3 903/1/3 1199/1/3
f 1199/1/3 903/1/3 1200/1/3
f 924/1/3 923/1/3 1219/1/3
f 1219/1/3 923/1/3 1220/1/3
f 928/1/3 927/1/3 1223/1/3
f 1223/1/3 927/1/3 1224/1/3
f 936/1/3 935/1/3 1231/1/3
f 1231/1/3 935/1/3 1232/1/3
f 944/1/3 943/1/3 1239/1/3
f 1239/1/3 943/1/3 1240/1/3
f 956/1/3 955/1/3 1251/1/3
f 1251/1/3 955/1/3 1252/1/3
f 964/1/3 963/1/3 1259/1/3
f 1259/1/3 963/1/3 1260/1/3
f 968/1/3 967/1/3 1263/1/3
f 1263/1/3 967/1/3 1264/1/3
f 976/1/3 975/1/3 1271/1/3
f 1271/1/3 975/1/3 1272/1/3
f 980/1/3 979/1/3 1275/1/3
f 1275/1/3 979/1/3 1276/1/3
f 984/1/3 983/1/3 1279/1/3
f 1279/1/3 983/1/3 1280/1/3
f 992/1/3 991/1/3 1287/1/3
f 1287/1/3 991/1/3 1288/1/3
f 1000/1/3 999/1/3 1295/1/3
f 1295/1/3 999/1/3 1296/1/3
f 1024/1/3 1023/1/3 1319/1/3
f 1319/1/3 1023/1/3 1320/1/3
f 1036/1/3 1035/1/3 1331/1/3
f 1331/1/3 1035/1/3 1332/1/3
f 1056/1/3 1055/1/3 1351/1/3
f 1351/1/3 1055/1/3 1352/1/3
f 1060/1/3 1059/1/3 1355/1/3
f 1355/1/3 1059/1/3 1356/1/3
f 1076/1/3 1075/1/3 1371/1/3
f 1371/1/3 1075/1/3 1372/1/3
f 1080/1/3 1079/1/3 1375/1/3
f 1375/1/3 1079/1/3 1376/1/3
f 1084/1/3 1083/1/3 1379/1/3
f 1379/1/3 1083/1/3 1380/1/3
f 1088/1/3 1087/1/3 1383/1/3
f 1383/1/3 1087/1/3 1384/1/3
f 1104/1/3 1103/1/3 1399/1/3
f 1399/1/3 1103/1/3 1400/1/3
f 1116/1/3 1115/1/3 1411/1/3
f 1411/1/3 1115/1/3 1412/1/3
f 1120/1/3 1119/1/3 1415/1/3
f 1415/1/3 1119/1/3 1416/1/3
f 1140/1/3 1139/1/3 1435/1/3
f 1435/1/3 1139/1/3 1436/1/3
f 1156/1/3 1155/1/3 1451/1/3
f 1451/1/3 1155/1/3 1452/1/3
f 876/1/3 875/1/3 1162/1/3
f 1162/1/3 875/1/3 1172/1/3
f 888/1/3 887/1/3 1183/1/3
f 1183/1/3 887/1/3 1184/1/3
f 1004/1/3 1003/1/3 1299/1/3
f 1299/1/3 1003/1/3 1300/1/3
f 1028/1/3 1027/1/3 1323/1/3
f 1323/1/3 1027/1/3 1324/1/3
f 1032/1/3 1031/1/3 1327/1/3
f 1327/1/3 1031/1/3 1328/1/3
f 1052/1/3 1051/1/3 1347/1/3
f 1347/1/3 1051/1/3 1348/1/3
f 1064/1/3 1063/1/3 1359/1/3
f 1359/1/3 1063/1/3 1360/1/3
f 1100/1/3 1099/1/3 1395/1/3
f 1395/1/3 1099/1/3 1396/1/3
f 1112/1/3 1111/1/3 1407/1/3
f 1407/1/3 1111/1/3 1408/1/3
f 1124/1/3 1123/1/3 1419/1/3
f 1419/1/3 1123/1/3 1420/1/3
f 1128/1/3 1127/1/3 1423/1/3
f 1423/1/3 1127/1/3 1424/1/3
f 865/1/4 1159/1/4 862/1/4
f 862/1/4 1159/1/4 1158/1/4
f 873/1/4 1167/1/4 870/1/4
f 870/1/4 1167/1/4 1166/1/4
f 881/1/4 1174/1/4 878/1/4
f 878/1/4 1174/1/4 1173/1/4
f 885/1/4 1178/1/4 882/1/4
f 882/1/4 1178/1/4 1177/1/4
f 893/1/4 1186/1/4 890/1/4
f 890/1/4 1186/1/4 1185/1/4
f 901/1/4 1194/1/4 898/1/4
f 898/1/4 1194/1/4 1193/1/4
f 909/1/4 1202/1/4 906/1/4
f 906/1/4 1202/1/4 1201/1/4
f 913/1/4 1206/1/4 910/1/4
f 910/1/4 1206/1/4 1205/1/4
f 917/1/4 1210/1/4 914/1/4
f 914/1/4 1210/1/4 1209/1/4
f 921/1/4 1214/1/4 918/1/4
f 918/1/4 1214/1/4 1213/1/4
f 933/1/4 1226/1/4 930/1/4
f 930/1/4 1226/1/4 1225/1/4
f 941/1/4 1234/1/4 938/1/4
f 938/1/4 1234/1/4 1233/1/4
f 949/1/4 1242/1/4 946/1/4
f 946/1/4 1242/1/4 1241/1/4
f 953/1/4 1246/1/4 950/1/4
f 950/1/4 1246/1/4 1245/1/4
f 961/1/4 1254/1/4 958/1/4
f 958/1/4 1254/1/4 1253/1/4
f 973/1/4 1266/1/4 970/1/4
f 970/1/4 1266/1/4 1265/1/4
f 989/1/4 1282/1/4 986/1/4
f 986/1/4 1282/1/4 1281/1/4
f 997/1/4 1290/1/4 994/1/4
f 994/1/4 1290/1/4 1289/1/4
f 1009/1/4 1302/1/4 1006/1/4
f 1006/1/4 1302/1/4 1301/1/4
f 1013/1/4 1306/1/4 1010/1/4
f 1010/1/4 1306/1/4 1305/1/4
f 1017/1/4 1310/1/4 1014/1/4
f 1014/1/4 1310/1/4 1309/1/4
f 1021/1/4 1314/1/4 1018/1/4
f 1018/1/4 1314/1/4 1313/1/4
f 1041/1/4 1334/1/4 1038/1/4
f 1038/1/4 1334/1/4 1333/1/4
f 1045/1/4 1338/1/4 1042/1/4
f 1042/1/4 1338/1/4 1337/1/4
f 1049/1/4 1342/1/4 1046/1/4
f 1046/1/4 1342/1/4 1341/1/4
f 1069/1/4 1362/1/4 1066/1/4
f 1066/1/4 1362/1/4 1361/1/4
f 1073/1/4 1366/1/4 1070/1/4
f 1070/1/4 1366/1/4 1365/1/4
f 1093/1/4 1386/1/4 1090/1/4
f 1090/1/4 1386/1/4 1385/1/4
f 1097/1/4 1390/1/4 1094/1/4
f 1094/1/4 1390/1/4 1389/1/4
f 1109/1/4 1402/1/4 1106/1/4
f 1106/1/4 1402/1/4 1401/1/4
f 1133/1/4 1426/1/4 1130/1/4
f 1130/1/4 1426/1/4 1425/1/4
f 1137/1/4 1430/1/4 1134/1/4
f 1134/1/4 1430/1/4 1429/1/4
f 1145/1/4 1438/1/4 1142/1/4
f 1142/1/4 1438/1/4 1437/1/4
f 1149/1/4 1442/1/4 1146/1/4
f 1146/1/4 1442/1/4 1441/1/4
f 1153/1/4 1446/1/4 1150/1/4
f 1150/1/4 1446/1/4 1445/1/4
f 869/1/4 1163/1/4 866/1/4
f 866/1/4 1163/1/4 1162/1/4
f 897/1/4 1190/1/4 894/1/4
f 894/1/4 1190/1/4 1189/1/4
f 905/1/4 1198/1/4 902/1/4
f 902/1/4 1198/1/4 1197/1/4
f 925/1/4 1218/1/4 922/1/4
f 922/1/4 1218/1/4 1217/1/4
f 929/1/4 1222/1/4 926/1/4
f 926/1/4 1222/1/4 1221/1/4
f 937/1/4 1230/1/4 934/1/4
f 934/1/4 1230/1/4 1229/1/4
f 945/1/4 1238/1/4 942/1/4
f 942/1/4 1238/1/4 1237/1/4
f 957/1/4 1250/1/4 954/1/4
f 954/1/4 1250/1/4 1249/1/4
f 965/1/4 1258/1/4 962/1/4
f 962/1/4 1258/1/4 1257/1/4
f 969/1/4 1262/1/4 966/1/4
f 966/1/4 1262/1/4 1261/1/4
f 977/1/4 1270/1/4 974/1/4
f 974/1/4 1270/1/4 1269/1/4
f 981/1/4 1274/1/4 978/1/4
f 978/1/4 1274/1/4 1273/1/4
f 985/1/4 1278/1/4 982/1/4
f 982/1/4 1278/1/4 1277/1/4
f 993/1/4 1286/1/4 990/1/4
f 990/1/4 1286/1/4 1285/1/4
f 1001/1/4 1294/1/4 998/1/4
f 998/1/4 1294/1/4 1293/1/4
f 1025/1/4 1318/1/4 1022/1/4
f 1022/1/4 1318/1/4 1317/1/4
f 1037/1/4 1330/1/4 1034/1/4
f 1034/1/4 1330/1/4 1329/1/4
f 1057/1/4 1350/1/4 1054/1/4
f 1054/1/4 1350/1/4 1349/1/4
f 1061/1/4 1354/1/4 1058/1/4
f 1058/1/4 1354/1/4 1353/1/4
f 1077/1/4 1370/1/4 1074/1/4
f 1074/1/4 1370/1/4 1369/1/4
f 1081/1/4 1374/1/4 1078/1/4
f 1078/1/4 1374/1/4 1373/1/4
f 1085/1/4 1378/1/4 1082/1/4
f 1082/1/4 1378/1/4 1377/1/4
f 1089/1/4 1382/1/4 1086/1/4
f 1086/1/4 1382/1/4 1381/1/4
f 1105/1/4 1398/1/4 1102/1/4
f 1102/1/4 1398/1/4 1397/1/4
f 1117/1/4 1410/1/4 1114/1/4
f 1114/1/4 1410/1/4 1409/1/4
f 1121/1/4 1414/1/4 1118/1/4
f 1118/1/4 1414/1/4 1413/1/4
f 1141/1/4 1434/1/4 1138/1/4
f 1138/1/4 1434/1/4 1433/1/4
f 1157/1/4 1450/1/4 1154/1/4
f 1154/1/4 1450/1/4 1449/1/4
f 877/1/4 1171/1/4 874/1/4
f 874/1/4 1171/1/4 1170/1/4
f 889/1/4 1182/1/4 886/1/4
f 886/1/4 1182/1/4 1181/1/4
f 1005/1/4 1298/1/4 1002/1/4
f 1002/1/4 1298/1/4 1297/1/4
f 1029/1/4 1322/1/4 1026/1/4
f 1026/1/4 1322/1/4 1321/1/4
f 1033/1/4 1326/1/4 1030/1/4
f 1030/1/4 1326/1/4 1325/1/4
f 1053/1/4 1346/1/4 1050/1/4
f 1050/1/4 1346/1/4 1345/1/4
f 1065/1/4 1358/1/4 1062/1/4
f 1062/1/4 1358/1/4 1357/1/4
f 1101/1/4 1394/1/4 1098/1/4
f 1098/1/4 1394/1/4 1393/1/4
f 1113/1/4 1406/1/4 1110/1/4
f 1110/1/4 1406/1/4 1405/1/4
f 1125/1/4 1418/1/4 1122/1/4
f 1122/1/4 1418/1/4 1417/1/4
f 1129/1/4 1422/1/4 1126/1/4
f 1126/1/4 1422/1/4 1421/1/4
f 1280/1/5 983/1/5 1277/1/5
f 1277/1/5 983/1/5 982/1/5
f 1161/1/5 863/1/5 1158/1/5
f 1158/1/5 863/1/5 862/1/5
f 1212/1/5 915/1/5 1209/1/5
f 1209/1/5 915/1/5 914/1/5
f 1344/1/5 1047/1/5 1341/1/5
f 1341/1/5 1047/1/5 1046/1/5
f 1384/1/5 1087/1/5 1381/1/5
f 1381/1/5 1087/1/5 1086/1/5
f 1184/1/5 887/1/5 1181/1/5
f 1181/1/5 887/1/5 886/1/5
f 1284/1/5 987/1/5 1281/1/5
f 1281/1/5 987/1/5 986/1/5
f 1428/1/5 1131/1/5 1425/1/5
f 1425/1/5 1131/1/5 1130/1/5
f 1232/1/5 935/1/5 1229/1/5
f 1229/1/5 935/1/5 934/1/5
f 1172/1/5 875/1/5 1170/1/5
f 1170/1/5 875/1/5 874/1/5
f 1348/1/5 1051/1/5 1345/1/5
f 1345/1/5 1051/1/5 1050/1/5
f 1188/1/5 891/1/5 1185/1/5
f 1185/1/5 891/1/5 890/1/5
f 1165/1/5 867/1/5 1162/1/5
f 1162/1/5 867/1/5 866/1/5
f 1388/1/5 1091/1/5 1385/1/5
f 1385/1/5 1091/1/5 1090/1/5
f 1300/1/5 1003/1/5 1297/1/5
f 1297/1/5 1003/1/5 1002/1/5
f 1236/1/5 939/1/5 1233/1/5
f 1233/1/5 939/1/5 938/1/5
f 1260/1/5 963/1/5 1257/1/5
f 1257/1/5 963/1/5 962/1/5
f 1176/1/5 879/1/5 1173/1/5
f 1173/1/5 879/1/5 878/1/5
f 1200/1/5 903/1/5 1197/1/5
f 1197/1/5 903/1/5 902/1/5
f 1352/1/5 1055/1/5 1349/1/5
f 1349/1/5 1055/1/5 1054/1/5
f 1304/1/5 1007/1/5 1301/1/5
f 1301/1/5 1007/1/5 1006/1/5
f 1408/1/5 1111/1/5 1405/1/5
f 1405/1/5 1111/1/5 1110/1/5
f 1169/1/5 871/1/5 1166/1/5
f 1166/1/5 871/1/5 870/1/5
f 1368/1/5 1071/1/5 1365/1/5
f 1365/1/5 1071/1/5 1070/1/5
f 1240/1/5 943/1/5 1237/1/5
f 1237/1/5 943/1/5 942/1/5
f 1192/1/5 895/1/5 1189/1/5
f 1189/1/5 895/1/5 894/1/5
f 1356/1/5 1059/1/5 1353/1/5
f 1353/1/5 1059/1/5 1058/1/5
f 1244/1/5 947/1/5 1241/1/5
f 1241/1/5 947/1/5 946/1/5
f 1432/1/5 1135/1/5 1429/1/5
f 1429/1/5 1135/1/5 1134/1/5
f 1308/1/5 1011/1/5 1305/1/5
f 1305/1/5 1011/1/5 1010/1/5
f 1204/1/5 907/1/5 1201/1/5
f 1201/1/5 907/1/5 906/1/5
f 1252/1/5 955/1/5 1249/1/5
f 1249/1/5 955/1/5 954/1/5
f 1412/1/5 1115/1/5 1409/1/5
f 1409/1/5 1115/1/5 1114/1/5
f 1360/1/5 1063/1/5 1357/1/5
f 1357/1/5 1063/1/5 1062/1/5
f 1392/1/5 1095/1/5 1389/1/5
f 1389/1/5 1095/1/5 1094/1/5
f 1264/1/5 967/1/5 1261/1/5
f 1261/1/5 967/1/5 966/1/5
f 1216/1/5 919/1/5 1213/1/5
f 1213/1/5 919/1/5 918/1/5
f 1316/1/5 1019/1/5 1313/1/5
f 1313/1/5 1019/1/5 1018/1/5
f 1436/1/5 1139/1/5 1433/1/5
f 1433/1/5 1139/1/5 1138/1/5
f 1288/1/5 991/1/5 1285/1/5
f 1285/1/5 991/1/5 990/1/5
f 1396/1/5 1099/1/5 1393/1/5
f 1393/1/5 1099/1/5 1098/1/5
f 1196/1/5 899/1/5 1193/1/5
f 1193/1/5 899/1/5 898/1/5
f 1292/1/5 995/1/5 1289/1/5
f 1289/1/5 995/1/5 994/1/5
f 1440/1/5 1143/1/5 1437/1/5
f 1437/1/5 1143/1/5 1142/1/5
f 1220/1/5 923/1/5 1217/1/5
f 1217/1/5 923/1/5 922/1/5
f 1372/1/5 1075/1/5 1369/1/5
f 1369/1/5 1075/1/5 1074/1/5
f 1320/1/5 1023/1/5 1317/1/5
f 1317/1/5 1023/1/5 1022/1/5
f 1208/1/5 911/1/5 1205/1/5
f 1205/1/5 911/1/5 910/1/5
f 1268/1/5 971/1/5 1265/1/5
f 1265/1/5 971/1/5 970/1/5
f 1416/1/5 1119/1/5 1413/1/5
f 1413/1/5 1119/1/5 1118/1/5
f 1376/1/5 1079/1/5 1373/1/5
f 1373/1/5 1079/1/5 1078/1/5
f 1324/1/5 1027/1/5 1321/1/5
f 1321/1/5 1027/1/5 1026/1/5
f 1248/1/5 951/1/5 1245/1/5
f 1245/1/5 951/1/5 950/1/5
f 1444/1/5 1147/1/5 1441/1/5
f 1441/1/5 1147/1/5 1146/1/5
f 1272/1/5 975/1/5 1269/1/5
f 1269/1/5 975/1/5 974/1/5
f 1180/1/5 883/1/5 1177/1/5
f 1177/1/5 883/1/5 882/1/5
f 1380/1/5 1083/1/5 1377/1/5
f 1377/1/5 1083/1/5 1082/1/5
f 1312/1/5 1015/1/5 1309/1/5
f 1309/1/5 1015/1/5 1014/1/5
f 1420/1/5 1123/1/5 1417/1/5
f 1417/1/5 1123/1/5 1122/1/5
f 1224/1/5 927/1/5 1221/1/5
f 1221/1/5 927/1/5 926/1/5
f 1364/1/5 1067/1/5 1361/1/5
f 1361/1/5 1067/1/5 1066/1/5
f 1276/1/5 979/1/5 1273/1/5
f 1273/1/5 979/1/5 978/1/5
f 1328/1/5 1031/1/5 1325/1/5
f 1325/1/5 1031/1/5 1030/1/5
f 1228/1/5 931/1/5 1225/1/5
f 1225/1/5 931/1/5 930/1/5
f 1256/1/5 959/1/5 1253/1/5
f 1253/1/5 959/1/5 958/1/5
f 1400/1/5 1103/1/5 1397/1/5
f 1397/1/5 1103/1/5 1102/1/5
f 1448/1/5 1151/1/5 1445/1/5
f 1445/1/5 1151/1/5 1150/1/5
f 1332/1/5 1035/1/5 1329/1/5
f 1329/1/5 1035/1/5 1034/1/5
f 1336/1/5 1039/1/5 1333/1/5
f 1333/1/5 1039/1/5 1038/1/5
f 1424/1/5 1127/1/5 1421/1/5
f 1421/1/5 1127/1/5 1126/1/5
f 1296/1/5 999/1/5 1293/1/5
f 1293/1/5 999/1/5 998/1/5
f 1452/1/5 1155/1/5 1449/1/5
f 1449/1/5 1155/1/5 1154/1/5
f 1404/1/5 1107/1/5 1401/1/5
f 1401/1/5 1107/1/5 1106/1/5
f 1340/1/5 1043/1/5 1337/1/5
f 1337/1/5 1043/1/5 1042/1/5
f 1279/1/6 1278/1/6 984/1/6
f 984/1/6 1278/1/6 985/1/6
f 1160/1/6 1159/1/6 864/1/6
f 864/1/6 1159/1/6 865/1/6
f 1211/1/6 1210/1/6 916/1/6
f 916/1/6 1210/1/6 917/1/6
f 1343/1/6 1342/1/6 1048/1/6
f 1048/1/6 1342/1/6 1049/1/6
f 1383/1/6 1382/1/6 1088/1/6
f 1088/1/6 1382/1/6 1089/1/6
f 1183/1/6 1182/1/6 888/1/6
f 888/1/6 1182/1/6 889/1/6
f 1283/1/6 1282/1/6 988/1/6
f 988/1/6 1282/1/6 989/1/6
f 1427/1/6 1426/1/6 1132/1/6
f 1132/1/6 1426/1/6 1133/1/6
f 1231/1/6 1230/1/6 936/1/6
f 936/1/6 1230/1/6 937/1/6
f 1162/1/6 1171/1/6 876/1/6
f 876/1/6 1171/1/6 877/1/6
f 1347/1/6 1346/1/6 1052/1/6
f 1052/1/6 1346/1/6 1053/1/6
f 1187/1/6 1186/1/6 892/1/6
f 892/1/6 1186/1/6 893/1/6
f 1164/1/6 1163/1/6 868/1/6
f 868/1/6 1163/1/6 869/1/6
f 1387/1/6 1386/1/6 1092/1/6
f 1092/1/6 1386/1/6 1093/1/6
f 1299/1/6 1298/1/6 1004/1/6
f 1004/1/6 1298/1/6 1005/1/6
f 1235/1/6 1234/1/6 940/1/6
f 940/1/6 1234/1/6 941/1/6
f 1259/1/6 1258/1/6 964/1/6
f 964/1/6 1258/1/6 965/1/6
f 1175/1/6 1174/1/6 880/1/6
f 880/1/6 1174/1/6 881/1/6
f 1199/1/6 1198/1/6 904/1/6
f 904/1/6 1198/1/6 905/1/6
f 1351/1/6 1350/1/6 1056/1/6
f 1056/1/6 1350/1/6 1057/1/6
f 1303/1/6 1302/1/6 1008/1/6
f 1008/1/6 1302/1/6 1009/1/6
f 1407/1/6 1406/1/6 1112/1/6
f 1112/1/6 1406/1/6 1113/1/6
f 1168/1/6 1167/1/6 872/1/6
f 872/1/6 1167/1/6 873/1/6
f 1367/1/6 1366/1/6 1072/1/6
f 1072/1/6 1366/1/6 1073/1/6
f 1239/1/6 1238/1/6 944/1/6
f 944/1/6 1238/1/6 945/1/6
f 1191/1/6 1190/1/6 896/1/6
f 896/1/6 1190/1/6 897/1/6
f 1355/1/6 1354/1/6 1060/1/6
f 1060/1/6 1354/1/6 1061/1/6
f 1243/1/6 1242/1/6 948/1/6
f 948/1/6 1242/1/6 949/1/6
f 1431/1/6 1430/1/6 1136/1/6
f 1136/1/6 1430/1/6 1137/1/6
f 1307/1/6 1306/1/6 1012/1/6
f 1012/1/6 1306/1/6 1013/1/6
f 1203/1/6 1202/1/6 908/1/6
f 908/1/6 1202/1/6 909/1/6
f 1251/1/6 1250/1/6 956/1/6
f 956/1/6 1250/1/6 957/1/6
f 1411/1/6 1410/1/6 1116/1/6
f 1116/1/6 1410/1/6 1117/1/6
f 1359/1/6 1358/1/6 1064/1/6
f 1064/1/6 1358/1/6 1065/1/6
f 1391/1/6 1390/1/6 1096/1/6
f 1096/1/6 1390/1/6 1097/1/6
f 1263/1/6 1262/1/6 968/1/6
f 968/1/6 1262/1/6 969/1/6
f 1215/1/6 1214/1/6 920/1/6
f 920/1/6 1214/1/6 921/1/6
f 1315/1/6 1314/1/6 1020/1/6
f 1020/1/6 1314/1/6 1021/1/6
f 1435/1/6 1434/1/6 1140/1/6
f 1140/1/6 1434/1/6 1141/1/6
f 1287/1/6 1286/1/6 992/1/6
f 992/1/6 1286/1/6 993/1/6
f 1395/1/6 1394/1/6 1100/1/6
f 1100/1/6 1394/1/6 1101/1/6
f 1195/1/6 1194/1/6 900/1/6
f 900/1/6 1194/1/6 901/1/6
f 1291/1/6 1290/1/6 996/1/6
f 996/1/6 1290/1/6 997/1/6
f 1439/1/6 1438/1/6 1144/1/6
f 1144/1/6 1438/1/6 1145/1/6
f 1219/1/6 1218/1/6 924/1/6
f 924/1/6 1218/1/6 925/1/6
f 1371/1/6 1370/1/6 1076/1/6
f 1076/1/6 1370/1/6 1077/1/6
f 1319/1/6 1318/1/6 1024/1/6
f 1024/1/6 1318/1/6 1025/1/6
f 1207/1/6 1206/1/6 912/1/6
f 912/1/6 1206/1/6 913/1/6
f 1267/1/6 1266/1/6 972/1/6
f 972/1/6 1266/1/6 973/1/6
f 1415/1/6 1414/1/6 1120/1/6
f 1120/1/6 1414/1/6 1121/1/6
f 1375/1/6 1374/1/6 1080/1/6
f 1080/1/6 1374/1/6 1081/1/6
f 1323/1/6 1322/1/6 1028/1/6
f 1028/1/6 1322/1/6 1029/1/6
f 1247/1/6 1246/1/6 952/1/6
f 952/1/6 1246/1/6 953/1/6
f 1443/1/6 1442/1/6 1148/1/6
f 1148/1/6 1442/1/6 1149/1/6
f 1271/1/6 1270/1/6 976/1/6
f 976/1/6 1270/1/6 977/1/6
f 1179/1/6 1178/1/6 884/1/6
f 884/1/6 1178/1/6 885/1/6
f 1379/1/6 1378/1/6 1084/1/6
f 1084/1/6 1378/1/6 1085/1/6
f 1311/1/6 1310/1/6 1016/1/6
f 1016/1/6 1310/1/6 1017/1/6
f 1419/1/6 1418/1/6 1124/1/6
f 1124/1/6 1418/1/6 1125/1/6
f 1223/1/6 1222/1/6 928/1/6
f 928/1/6 1222/1/6 929/1/6
f 1363/1/6 1362/1/6 1068/1/6
f 1068/1/6 1362/1/6 1069/1/6
f 1275/1/6 1274/1/6 980/1/6
f 980/1/6 1274/1/6 981/1/6
f 1327/1/6 1326/1/6 1032/1/6
f 1032/1/6 1326/1/6 1033/1/6
f 1227/1/6 1226/1/6 932/1/6
f 932/1/6 1226/1/6 933/1/6
f 1255/1/6 1254/1/6 960/1/6
f 960/1/6 1254/1/6 961/1/6
f 1399/1/6 1398/1/6 1104/1/6
f 1104/1/6 1398/1/6 1105/1/6
f 1447/1/6 1446/1/6 1152/1/6
f 1152/1/6 1446/1/6 1153/1/6
f 1331/1/6 1330/1/6 1036/1/6
f 1036/1/6 1330/1/6 1037/1/6
f 1335/1/6 1334/1/6 1040/1/6
f 1040/1/6 1334/1/6 1041/1/6
f 1423/1/6 1422/1/6 1128/1/6
f 1128/1/6 1422/1/6 1129/1/6
f 1295/1/6 1294/1/6 1000/1/6
f 1000/1/6 1294/1/6 1001/1/6
f 1451/1/6 1450/1/6 1156/1/6
f 1156/1/6 1450/1/6 1157/1/6
f 1403/1/6 1402/1/6 1108/1/6
f 1108/1/6 1402/1/6 1109/1/6
f 1339/1/6 1338/1/6 1044/1/6
f 1044/1/6 1338/1/6 1045/1/6
f 1453/1/1 1454/1/1 1456/1/1
f 1456/1/1 1454/1/1 1455/1/1
f 1457/1/1 1458/1/1 1460/1/1
f 1460/1/1 1458/1/1 1459/1/1
f 1461/1/1 1462/1/1 1464/1/1
f 1464/1/1 1462/1/1 1463/1/1
f 1465/1/1 1466/1/1 1468/1/1
f 1468/1/1 1466/1/1 1467/1/1
f 1469/1/1 1470/1/1 1472/1/1
f 1472/1/1 1470/1/1 1471/1/1
f 1473/1/1 1474/1/1 1476/1/1
f 1476/1/1 1474/1/1 1475/1/1
f 1477/1/1 1478/1/1 1480/1/1
f 1480/1/1 1478/1/1 1479/1/1
f 1481/1/1 1482/1/1 1484/1/1
f 1484/1/1 1482/1/1 1483/1/1
f 1485/1/1 1486/1/1 1488/1/1
f 1488/1/1 1486/1/1 1487/1/1
f 1489/1/1 1490/1/1 1492/1/1
f 1492/1/1 1490/1/1 1491/1/1
f 1493/1/1 1494/1/1 1496/1/1
f 1496/1/1 1494/1/1 1495/1/1
f 1497/1/1 1498/1/1 1500/1/1
f 1500/1/1 1498/1/1 1499/1/1
f 1501/1/1 1502/1/1 1504/1/1
f 1504/1/1 1502/1/1 1503/1/1
f 1505/1/1 1506/1/1 1508/1/1
f 1508/1/1 1506/1/1 1507/1/1
f 1509/1/1 1510/1/1 1512/1/1
f 1512/1/1 1510/1/1 1511/1/1
f 1513/1/1 1514/1/1 1516/1/1
f 1516/1/1 1514/1/1 1515/1/1
f 1517/1/1 1518/1/1 1520/1/1
f 1520/1/1 1518/1/1 1519/1/1
f 1521/1/1 1522/1/1 1524/1/1
f 1524/1/1 1522/1/1 1523/1/1
f 1525/1/1 1526/1/1 1528/1/1
f 1528/1/1 1526/1/1 1527/1/1
f 1529/1/1 1530/1/1 1532/1/1
f 1532/1/1 1530/1/1 1531/1/1
f 1533/1/1 1534/1/1 1536/1/1
f 1536/1/1 1534/1/1 1535/1/1
f 1537/1/1 1538/1/1 1540/1/1
f 1540/1/1 1538/1/1 1539/1/1
f 1541/1/1 1542/1/1 1544/1/1
f 1544/1/1 1542/1/1 1543/1/1
f 1545/1/1 1546/1/1 1548/1/1
f 1548/1/1 1546/1/1 1547/1/1
f 1549/1/1 1550/1/1 1552/1/1
f 1552/1/1 1550/1/1 1551/1/1
f 1553/1/1 1554/1/1 1556/1/1
f 1556/1/1 1554/1/1 1555/1/1
f 1557/1/1 1558/1/1 1560/1/1
f 1560/1/1 1558/1/1 1559/1/1
f 1561/1/1 1562/1/1 1564/1/1
f 1564/1/1 1562/1/1 1563/1/1
f 1565/1/1 1566/1/1 1568/1/1
f 1568/1/1 1566/1/1 1567/1/1
f 1569/1/1 1570/1/1 1572/1/1
f 1572/1/1 1570/1/1 1571/1/1
f 1573/1/1 1574/1/1 1576/1/1
f 1576/1/1 1574/1/1 1575/1/1
f 1577/1/1 1578/1/1 1580/1/1
f 1580/1/1 1578/1/1 1579/1/1
f 1581/1/2 1582/1/2 1584/1/2
f 1584/1/2 1582/1/2 1583/1/2
f 1585/1/2 1586/1/2 1588/1/2
f 1588/1/2 1586/1/2 1587/1/2
f 1589/1/2 1590/1/2 1592/1/2
f 1592/1/2 1590/1/2 1591/1/2
f 1593/1/2 1594/1/2 1596/1/2
f 1596/1/2 1594/1/2 1595/1/2
f 1597/1/2 1598/1/2 1600/1/2
f 1600/1/2 1598/1/2 1599/1/2
f 1601/1/2 1602/1/2 1604/1/2
f 1604/1/2 1602/1/2 1603/1/2
f 1605/1/2 1606/1/2 1608/1/2
f 1608/1/2 1606/1/2 1607/1/2
f 1609/1/2 1610/1/2 1612/1/2
f 1612/1/2 1610/1/2 1611/1/2
f 1613/1/2 1614/1/2 1616/1/2
f 1616/1/2 1614/1/2 1615/1/2
f 1617/1/2 1618/1/2 1620/1/2
f 1620/1/2 1618/1/2 1619/1/2
f 1621/1/2 1622/1/2 1624/1/2
f 1624/1/2 1622/1/2 1623/1/2
f 1625/1/2 1626/1/2 1628/1/2
f 1628/1/2 1626/1/2 1627/1/2
f 1629/1/2 1630/1/2 1632/1/2
f 1632/1/2 1630/1/2 1631/1/2
f 1633/1/2 1634/1/2 1636/1/2
f 1636/1/2 1634/1/2 1635/1/2
f 1637/1/2 1638/1/2 1640/1/2
f 1640/1/2 1638/1/2 1639/1/2
f 1641/1/2 1642/1/2 1644/1/2
f 1644/1/2 1642/1/2 1643/1/2
f 1645/1/2 1646/1/2 1648/1/2
f 1648/1/2 1646/1/2 1647/1/2
f 1649/1/2 1650/1/2 1652/1/2
f 1652/1/2 1650/1/2 1651/1/2
f 1653/1/2 1654/1/2 1656/1/2
f 1656/1/2 1654/1/2 1655/1/2
f 1657/1/2 1658/1/2 1660/1/2
f 1660/1/2 1658/1/2 1659/1/2
f 1661/1/2 1662/1/2 1664/1/2
f 1664/1/2 1662/1/2 1663/1/2
f 1665/1/2 1666/1/2 1668/1/2
f 1668/1/2 1666/1/2 1667/1/2
f 1669/1/2 1670/1/2 1672/1/2
f 1672/1/2 1670/1/2 1671/1/2
f 1673/1/2 1674/1/2 1676/1/2
f 1676/1/2 1674/1/2 1675/1/2
f 1677/1/2 1678/1/2 1680/1/2
f 1680/1/2 1678/1/2 1679/1/2
f 1681/1/2 1682/1/2 1684/1/2
f 1684/1/2 1682/1/2 1683/1/2
f 1685/1/2 1686/1/2 1688/1/2
f 1688/1/2 1686/1/2 1687/1/2
f 1689/1/2 1690/1/2 1692/1/2
f 1692/1/2 1690/1/2 1691/1/2
f 1693/1/2 1694/1/2 1696/1/2
f 1696/1/2 1694/1/2 1695/1/2
f 1697/1/2 1698/1/2 1700/1/2
f 1700/1/2 1698/1/2 1699/1/2
f 1701/1/2 1702/1/2 1704/1/2
f 1704/1/2 1702/1/2 1703/1/2
f 1705/1/2 1706/1/2 1708/1/2
f 1708/1/2 1706/1/2 1707/1/2
f 1455/1/3 1454/1/3 1583/1/3
f 1583/1/3 1454/1/3 1584/1/3
f 1459/1/3 1458/1/3 1587/1/3
f 1587/1/3 1458/1/3 1588/1/3
f 1467/1/3 1466/1/3 1595/1/3
f 1595/1/3 1466/1/3 1596/1/3
f 1487/1/3 1486/1/3 1615/1/3
f 1615/1/3 1486/1/3 1616/1/3
f 1491/1/3 1490/1/3 1619/1/3
f 1619/1/3 1490/1/3 1620/1/3
f 1495/1/3 1494/1/3 1623/1/3
f 1623/1/3 1494/1/3 1624/1/3
f 1503/1/3 1502/1/3 1631/1/3
f 1631/1/3 1502/1/3 1632/1/3
f 1527/1/3 1526/1/3 1655/1/3
f 1655/1/3 1526/1/3 1656/1/3
f 1547/1/3 1546/1/3 1675/1/3
f 1675/1/3 1546/1/3 1676/1/3
f 1555/1/3 1554/1/3 1683/1/3
f 1683/1/3 1554/1/3 1684/1/3
f 1559/1/3 1558/1/3 1687/1/3
f 1687/1/3 1558/1/3 1688/1/3
f 1567/1/3 1566/1/3 1695/1/3
f 1695/1/3 1566/1/3 1696/1/3
f 1575/1/3 1574/1/3 1703/1/3
f 1703/1/3 1574/1/3 1704/1/3
f 1579/1/3 1578/1/3 1707/1/3
f 1707/1/3 1578/1/3 1708/1/3
f 1463/1/3 1462/1/3 1591/1/3
f 1591/1/3 1462/1/3 1592/1/3
f 1471/1/3 1470/1/3 1599/1/3
f 1599/1/3 1470/1/3 1600/1/3
f 1475/1/3 1474/1/3 1603/1/3
f 1603/1/3 1474/1/3 1604/1/3
f 1479/1/3 1478/1/3 1607/1/3
f 1607/1/3 1478/1/3 1608/1/3
f 1483/1/3 1482/1/3 1611/1/3
f 1611/1/3 1482/1/3 1612/1/3
f 1507/1/3 1506/1/3 1635/1/3
f 1635/1/3 1506/1/3 1636/1/3
f 1515/1/3 1514/1/3 1643/1/3
f 1643/1/3 1514/1/3 1644/1/3
f 1519/1/3 1518/1/3 1647/1/3
f 1647/1/3 1518/1/3 1648/1/3
f 1531/1/3 1530/1/3 1659/1/3
f 1659/1/3 1530/1/3 1660/1/3
f 1535/1/3 1534/1/3 1663/1/3
f 1663/1/3 1534/1/3 1664/1/3
f 1539/1/3 1538/1/3 1667/1/3
f 1667/1/3 1538/1/3 1668/1/3
f 1551/1/3 1550/1/3 1679/1/3
f 1679/1/3 1550/1/3 1680/1/3
f 1563/1/3 1562/1/3 1691/1/3
f 1691/1/3 1562/1/3 1692/1/3
f 1571/1/3 1570/1/3 1699/1/3
f 1699/1/3 1570/1/3 1700/1/3
f 1499/1/3 1498/1/3 1627/1/3
f 1627/1/3 1498/1/3 1628/1/3
f 1523/1/3 1522/1/3 1651/1/3
f 1651/1/3 1522/1/3 1652/1/3
f 1543/1/3 1542/1/3 1671/1/3
f 1671/1/3 1542/1/3 1672/1/3
f 1511/1/3 1510/1/3 1639/1/3
f 1639/1/3 1510/1/3 1640/1/3
f 1456/1/4 1582/1/4 1453/1/4
f 1453/1/4 1582/1/4 1581/1/4
f 1460/1/4 1586/1/4 1457/1/4
f 1457/1/4 1586/1/4 1585/1/4
f 1468/1/4 1594/1/4 1465/1/4
f 1465/1/4 1594/1/4 1593/1/4
f 1488/1/4 1614/1/4 1485/1/4
f 1485/1/4 1614/1/4 1613/1/4
f 1492/1/4 1618/1/4 1489/1/4
f 1489/1/4 1618/1/4 1617/1/4
f 1496/1/4 1622/1/4 1493/1/4
f 1493/1/4 1622/1/4 1621/1/4
f 1504/1/4 1630/1/4 1501/1/4
f 1501/1/4 1630/1/4 1629/1/4
f 1528/1/4 1654/1/4 1525/1/4
f 1525/1/4 1654/1/4 1653/1/4
f 1548/1/4 1674/1/4 1545/1/4
f 1545/1/4 1674/1/4 1673/1/4
f 1556/1/4 1682/1/4 1553/1/4
f 1553/1/4 1682/1/4 1681/1/4
f 1560/1/4 1686/1/4 1557/1/4
f 1557/1/4 1686/1/4 1685/1/4
f 1568/1/4 1694/1/4 1565/1/4
f 1565/1/4 1694/1/4 1693/1/4
f 1576/1/4 1702/1/4 1573/1/4
f 1573/1/4 1702/1/4 1701/1/4
f 1580/1/4 1706/1/4 1577/1/4
f 1577/1/4 1706/1/4 1705/1/4
f 1464/1/4 1590/1/4 1461/1/4
f 1461/1/4 1590/1/4 1589/1/4
f 1472/1/4 1598/1/4 1469/1/4
f 1469/1/4 1598/1/4 1597/1/4
f 1476/1/4 1602/1/4 1473/1/4
f 1473/1/4 1602/1/4 1601/1/4
f 1480/1/4 1606/1/4 1477/1/4
f 1477/1/4 1606/1/4 1605/1/4
f 1484/1/4 1610/1/4 1481/1/4
f 1481/1/4 1610/1/4 1609/1/4
f 1508/1/4 1634/1/4 1505/1/4
f 1505/1/4 1634/1/4 1633/1/4
f 1516/1/4 1642/1/4 1513/1/4
f 1513/1/4 1642/1/4 1641/1/4
f 1520/1/4 1646/1/4 1517/1/4
f 1517/1/4 1646/1/4 1645/1/4
f 1532/1/4 1658/1/4 1529/1/4
f 1529/1/4 1658/1/4 1657/1/4
f 1536/1/4 1662/1/4 1533/1/4
f 1533/1/4 1662/1/4 1661/1/4
f 1540/1/4 1666/1/4 1537/1/4
f 1537/1/4 1666/1/4 1665/1/4
f 1552/1/4 1678/1/4 1549/1/4
f 1549/1/4 1678/1/4 1677/1/4
f 1564/1/4 1690/1/4 1561/1/4
f 1561/1/4 1690/1/4 1689/1/4
f 1572/1/4 1698/1/4 1569/1/4
f 1569/1/4 1698/1/4 1697/1/4
f 1500/1/4 1626/1/4 1497/1/4
f 1497/1/4 1626/1/4 1625/1/4
f 1524/1/4 1650/1/4 1521/1/4
f 1521/1/4 1650/1/4 1649/1/4
f 1544/1/4 1670/1/4 1541/1/4
f 1541/1/4 1670/1/4 1669/1/4
f 1512/1/4 1638/1/4 1509/1/4
f 1509/1/4 1638/1/4 1637/1/4
f 1684/1/5 1554/1/5 1681/1/5
f 1681/1/5 1554/1/5 1553/1/5
f 1624/1/5 1494/1/5 1621/1/5
f 1621/1/5 1494/1/5 1493/1/5
f 1644/1/5 1514/1/5 1641/1/5
f 1641/1/5 1514/1/5 1513/1/5
f 1664/1/5 1534/1/5 1661/1/5
f 1661/1/5 1534/1/5 1533/1/5
f 1692/1/5 1562/1/5 1689/1/5
f 1689/1/5 1562/1/5 1561/1/5
f 1608/1/5 1478/1/5 1605/1/5
f 1605/1/5 1478/1/5 1477/1/5
f 1628/1/5 1498/1/5 1625/1/5
f 1625/1/5 1498/1/5 1497/1/5
f 1696/1/5 1566/1/5 1693/1/5
f 1693/1/5 1566/1/5 1565/1/5
f 1648/1/5 1518/1/5 1645/1/5
f 1645/1/5 1518/1/5 1517/1/5
f 1596/1/5 1466/1/5 1593/1/5
f 1593/1/5 1466/1/5 1465/1/5
f 1668/1/5 1538/1/5 1665/1/5
f 1665/1/5 1538/1/5 1537/1/5
f 1616/1/5 1486/1/5 1613/1/5
f 1613/1/5 1486/1/5 1485/1/5
f 1656/1/5 1526/1/5 1653/1/5
f 1653/1/5 1526/1/5 1525/1/5
f 1704/1/5 1574/1/5 1701/1/5
f 1701/1/5 1574/1/5 1573/1/5
f 1688/1/5 1558/1/5 1685/1/5
f 1685/1/5 1558/1/5 1557/1/5
f 1584/1/5 1454/1/5 1581/1/5
f 1581/1/5 1454/1/5 1453/1/5
f 1600/1/5 1470/1/5 1597/1/5
f 1597/1/5 1470/1/5 1469/1/5
f 1620/1/5 1490/1/5 1617/1/5
f 1617/1/5 1490/1/5 1489/1/5
f 1652/1/5 1522/1/5 1649/1/5
f 1649/1/5 1522/1/5 1521/1/5
f 1680/1/5 1550/1/5 1677/1/5
f 1677/1/5 1550/1/5 1549/1/5
f 1708/1/5 1578/1/5 1705/1/5
f 1705/1/5 1578/1/5 1577/1/5
f 1604/1/5 1474/1/5 1601/1/5
f 1601/1/5 1474/1/5 1473/1/5
f 1592/1/5 1462/1/5 1589/1/5
f 1589/1/5 1462/1/5 1461/1/5
f 1636/1/5 1506/1/5 1633/1/5
f 1633/1/5 1506/1/5 1505/1/5
f 1672/1/5 1542/1/5 1669/1/5
f 1669/1/5 1542/1/5 1541/1/5
f 1660/1/5 1530/1/5 1657/1/5
f 1657/1/5 1530/1/5 1529/1/5
f 1612/1/5 1482/1/5 1609/1/5
f 1609/1/5 1482/1/5 1481/1/5
f 1700/1/5 1570/1/5 1697/1/5
f 1697/1/5 1570/1/5 1569/1/5
f 1588/1/5 1458/1/5 1585/1/5
f 1585/1/5 1458/1/5 1457/1/5
f 1676/1/5 1546/1/5 1673/1/5
f 1673/1/5 1546/1/5 1545/1/5
f 1640/1/5 1510/1/5 1637/1/5
f 1637/1/5 1510/1/5 1509/1/5
f 1632/1/5 1502/1/5 1629/1/5
f 1629/1/5 1502/1/5 1501/1/5
f 1683/1/6 1682/1/6 1555/1/6
f 1555/1/6 1682/1/6 1556/1/6
f 1623/1/6 1622/1/6 1495/1/6
f 1495/1/6 1622/1/6 1496/1/6
f 1643/1/6 1642/1/6 1515/1/6
f 1515/1/6 1642/1/6 1516/1/6
f 1663/1/6 1662/1/6 1535/1/6
f 1535/1/6 1662/1/6 1536/1/6
f 1691/1/6 1690/1/6 1563/1/6
f 1563/1/6 1690/1/6 1564/1/6
f 1607/1/6 1606/1/6 1479/1/6
f 1479/1/6 1606/1/6 1480/1/6
f 1627/1/6 1626/1/6 1499/1/6
f 1499/1/6 1626/1/6 1500/1/6
f 1695/1/6 1694/1/6 1567/1/6
f 1567/1/6 1694/1/6 1568/1/6
f 1647/1/6 1646/1/6 1519/1/6
f 1519/1/6 1646/1/6 1520/1/6
f 1595/1/6 1594/1/6 1467/1/6
f 1467/1/6 1594/1/6 1468/1/6
f 1667/1/6 1666/1/6 1539/1/6
f 1539/1/6 1666/1/6 1540/1/6
f 1615/1/6 1614/1/6 1487/1/6
f 1487/1/6 1614/1/6 1488/1/6
f 1655/1/6 1654/1/6 1527/1/6
f 1527/1/6 1654/1/6 1528/1/6
f 1703/1/6 1702/1/6 1575/1/6
f 1575/1/6 1702/1/6 1576/1/6
f 1687/1/6 1686/1/6 1559/1/6
f 1559/1/6 1686/1/6 1560/1/6
f 1583/1/6 1582/1/6 1455/1/6
f 1455/1/6 1582/1/6 1456/1/6
f 1599/1/6 1598/1/6 1471/1/6
f 1471/1/6 1598/1/6 1472/1/6
f 1619/1/6 1618/1/6 1491/1/6
f 1491/1/6 1618/1/6 1492/1/6
f 1651/1/6 1650/1/6 1523/1/6
f 1523/1/6 1650/1/6 1524/1/6
f 1679/1/6 1678/1/6 1551/1/6
f 1551/1/6 1678/1/6 1552/1/6
f 1707/1/6 1706/1/6 1579/1/6
f 1579/1/6 1706/1/6 1580/1/6
f 1603/1/6 1602/1/6 1475/1/6
f 1475/1/6 1602/1/6 1476/1/6
f 1591/1/6 1590/1/6 1463/1/6
f 1463/1/6 1590/1/6 1464/1/6
f 1635/1/6 1634/1/6 1507/1/6
f 1507/1/6 1634/1/6 1508/1/6
f 1671/1/6 1670/1/6 1543/1/6
f 1543/1/6 1670/1/6 1544/1/6
f 1659/1/6 1658/1/6 1531/1/6
f 1531/1/6 1658/1/6 1532/1/6
f 1611/1/6 1610/1/6 1483/1/6
f 1483/1/6 1610/1/6 1484/1/6
f 1699/1/6 1698/1/6 1571/1/6
f 1571/1/6 1698/1/6 1572/1/6
f 1587/1/6 1586/1/6 1459/1/6
f 1459/1/6 1586/1/6 1460/1/6
f 1675/1/6 1674/1/6 1547/1/6
f 1547/1/6 1674/1/6 1548/1/6
f 1639/1/6 1638/1/6 1511/1/6
f 1511/1/6 1638/1/6 1512/1/6
f 1631/1/6 1630/1/6 1503/1/6
f 1503/1/6 1630/1/6 1504/1/6
