# Vengi binary mesh normalized for Tanks of Freedom II

mtllib ../../materials/vox_grass.mtl
o snow_road_1_tile

v 4 4 3.9
v 3.9 4 3.9
v 3.9 4 4
v 4 4 4
v 3.8 4 3.9
v 3.8 4 4
v 3.7 4 3.9
v 3.6 4 3.9
v 3.6 4 4
v 3.7 4 4
v 3.5 4 3.9
v 3.4 4 3.9
v 3.4 4 4
v 3.5 4 4
v 3.3 4 3.9
v 3.2 4 3.9
v 3.2 4 4
v 3.3 4 4
v 3.1 4 3.9
v 3 4 3.9
v 3 4 4
v 3.1 4 4
v 2.9 4 3.9
v 2.8 4 3.9
v 2.8 4 4
v 2.9 4 4
v 2.7 4 3.9
v 2.6 4 3.9
v 2.6 4 4
v 2.7 4 4
v 2.5 4 3.9
v 2.4 4 3.9
v 2.4 4 4
v 2.5 4 4
v 2.3 4 3.9
v 2.2 4 3.9
v 2.2 4 4
v 2.3 4 4
v 2.1 4 3.9
v 2 4 3.9
v 2 4 4
v 2.1 4 4
v 1.9 4 3.9
v 1.8 4 3.9
v 1.8 4 4
v 1.9 4 4
v 1.7 4 3.9
v 1.6 4 3.9
v 1.6 4 4
v 1.7 4 4
v 1.5 4 3.9
v 1.4 4 3.9
v 1.4 4 4
v 1.5 4 4
v 1.3 4 3.9
v 1.2 4 3.9
v 1.2 4 4
v 1.3 4 4
v 1.1 4 3.9
v 1 4 3.9
v 1 4 4
v 1.1 4 4
v 0.9 4 3.9
v 0.8 4 3.9
v 0.8 4 4
v 0.9 4 4
v 0.7 4 3.9
v 0.6 4 3.9
v 0.6 4 4
v 0.7 4 4
v 0.5 4 3.9
v 0.4 4 3.9
v 0.4 4 4
v 0.5 4 4
v 0.3 4 3.9
v 0.2 4 3.9
v 0.2 4 4
v 0.3 4 4
v 0.1 4 3.9
v 0 4 3.9
v 0 4 4
v 0.1 4 4
v -0.1 4 3.9
v -0.2 4 3.9
v -0.2 4 4
v -0.1 4 4
v -0.3 4 3.9
v -0.4 4 3.9
v -0.4 4 4
v -0.3 4 4
v -0.5 4 3.9
v -0.6 4 3.9
v -0.6 4 4
v -0.5 4 4
v -0.7 4 3.9
v -0.8 4 3.9
v -0.8 4 4
v -0.7 4 4
v -0.9 4 3.9
v -1 4 3.9
v -1 4 4
v -0.9 4 4
v -1.1 4 3.9
v -1.2 4 3.9
v -1.2 4 4
v -1.1 4 4
v -1.3 4 3.9
v -1.4 4 3.9
v -1.4 4 4
v -1.3 4 4
v -1.5 4 3.9
v -1.6 4 3.9
v -1.6 4 4
v -1.5 4 4
v -1.7 4 3.9
v -1.8 4 3.9
v -1.8 4 4
v -1.7 4 4
v -1.9 4 3.9
v -2 4 3.9
v -2 4 4
v -1.9 4 4
v -2.1 4 3.9
v -2.2 4 3.9
v -2.2 4 4
v -2.1 4 4
v 4 4 3.8
v 3.9 4 3.8
v 3.8 4 3.8
v 3.7 4 3.8
v 3.6 4 3.8
v 3.5 4 3.8
v 3.4 4 3.8
v 3.3 4 3.8
v 3.2 4 3.8
v 3.1 4 3.8
v 3 4 3.8
v 2.9 4 3.8
v 2.8 4 3.8
v 2.7 4 3.8
v 2.6 4 3.8
v 2.5 4 3.8
v 2.4 4 3.8
v 2.3 4 3.8
v 2.2 4 3.8
v 2.1 4 3.8
v -2.1 4 3.8
v -2.2 4 3.8
v 4 4 3.7
v 3.9 4 3.7
v 3.8 4 3.7
v 3.7 4 3.7
v 3.6 4 3.7
v 3.5 4 3.7
v 3.4 4 3.7
v 3.3 4 3.7
v 3.2 4 3.7
v 3.1 4 3.7
v 3 4 3.7
v 2.9 4 3.7
v 2.8 4 3.7
v 2.7 4 3.7
v 2.6 4 3.7
v 2.5 4 3.7
v 2.4 4 3.7
v 2.3 4 3.7
v 2.2 4 3.7
v 2.1 4 3.7
v 2 4 3.7
v -2 4 3.7
v -2.1 4 3.7
v -2.2 4 3.7
v 4 4 3.6
v 3.9 4 3.6
v 3.8 4 3.6
v 3.7 4 3.6
v 3.6 4 3.6
v 3.5 4 3.6
v 3.4 4 3.6
v 3.3 4 3.6
v 3.2 4 3.6
v 3.1 4 3.6
v 3 4 3.6
v 2.9 4 3.6
v 2.8 4 3.6
v 2.7 4 3.6
v 2.6 4 3.6
v 2.5 4 3.6
v 2.4 4 3.6
v 2.3 4 3.6
v 2.2 4 3.6
v 2.1 4 3.6
v -2.1 4 3.6
v -2.2 4 3.6
v 4 4 3.5
v 3.9 4 3.5
v 3.8 4 3.5
v 3.7 4 3.5
v 3.6 4 3.5
v 3.5 4 3.5
v 3.4 4 3.5
v 3.3 4 3.5
v 3.2 4 3.5
v 3.1 4 3.5
v 3 4 3.5
v 2.9 4 3.5
v 2.8 4 3.5
v 2.7 4 3.5
v 2.6 4 3.5
v 2.5 4 3.5
v 2.4 4 3.5
v 4 4 3.4
v 3.9 4 3.4
v 3.8 4 3.4
v 3.7 4 3.4
v 3.6 4 3.4
v 3.5 4 3.4
v 3.4 4 3.4
v 3.3 4 3.4
v 3.2 4 3.4
v 3.1 4 3.4
v 3 4 3.4
v 2.9 4 3.4
v 2.8 4 3.4
v 2.7 4 3.4
v 4 4 3.3
v 3.9 4 3.3
v 3.8 4 3.3
v 3.7 4 3.3
v 3.6 4 3.3
v 3.5 4 3.3
v 3.4 4 3.3
v 3.3 4 3.3
v 3.2 4 3.3
v 3.1 4 3.3
v 3 4 3.3
v 4 4 3.2
v 3.9 4 3.2
v 3.8 4 3.2
v 3.7 4 3.2
v 3.6 4 3.2
v 3.5 4 3.2
v 3.4 4 3.2
v 3.3 4 3.2
v 3.2 4 3.2
v 3.1 4 3.2
v 4 4 3.1
v 3.9 4 3.1
v 3.8 4 3.1
v 3.7 4 3.1
v 3.6 4 3.1
v 3.5 4 3.1
v 3.4 4 3.1
v 3.3 4 3.1
v 3.2 4 3.1
v 4 4 3
v 3.9 4 3
v 3.8 4 3
v 3.7 4 3
v 3.6 4 3
v 3.5 4 3
v 3.4 4 3
v 3.3 4 3
v 0.1 4 3
v 0 4 3
v -0.1 4 3
v -1.5 4 3
v -1.6 4 3
v -1.7 4 3
v -1.8 4 3
v 4 4 2.9
v 3.9 4 2.9
v 3.8 4 2.9
v 3.7 4 2.9
v 3.6 4 2.9
v 3.5 4 2.9
v 3.4 4 2.9
v -1.6 4 2.9
v -1.8 4 2.9
v 4 4 2.8
v 3.9 4 2.8
v 3.8 4 2.8
v 3.7 4 2.8
v 3.6 4 2.8
v 3.5 4 2.8
v 3.4 4 2.8
v -1.6 4 2.8
v -1.8 4 2.8
v 4 4 2.7
v 3.9 4 2.7
v 3.8 4 2.7
v 3.7 4 2.7
v 3.6 4 2.7
v 3.5 4 2.7
v 3.4 4 2.7
v -1.6 4 2.7
v -1.8 4 2.7
v 4 4 2.6
v 3.9 4 2.6
v 3.8 4 2.6
v 3.7 4 2.6
v 3.6 4 2.6
v 3.5 4 2.6
v -1.6 4 2.6
v -1.8 4 2.6
v 4 4 2.5
v 3.9 4 2.5
v 3.8 4 2.5
v 3.7 4 2.5
v 3.6 4 2.5
v 3.5 4 2.5
v -1.5 4 2.5
v -1.6 4 2.5
v -1.8 4 2.5
v 4 4 2.4
v 3.9 4 2.4
v 3.8 4 2.4
v 3.7 4 2.4
v 3.6 4 2.4
v 3.5 4 2.4
v 4 4 2.3
v 3.9 4 2.3
v 3.8 4 2.3
v 3.7 4 2.3
v 3.6 4 2.3
v 4 4 2.2
v 3.9 4 2.2
v 3.8 4 2.2
v 3.7 4 2.2
v 3.6 4 2.2
v 4 4 2.1
v 3.9 4 2.1
v 3.8 4 2.1
v 3.7 4 2.1
v 3.6 4 2.1
v 4 4 2
v 3.9 4 2
v 3.8 4 2
v 3.7 4 2
v 3.6 4 2
v 0.1 4 2
v -0.1 4 2
v 4 4 1.9
v 3.9 4 1.9
v 3.8 4 1.9
v 3.7 4 1.9
v 3.6 4 1.9
v 4 4 1.8
v 3.9 4 1.8
v 3.8 4 1.8
v 3.7 4 1.8
v 4 4 1.7
v 3.9 4 1.7
v 3.8 4 1.7
v 3.7 4 1.7
v 4 4 1.6
v 3.9 4 1.6
v 3.8 4 1.6
v 3.7 4 1.6
v 4 4 1.5
v 3.9 4 1.5
v 3.8 4 1.5
v 3.7 4 1.5
v 4 4 1.4
v 3.9 4 1.4
v 3.8 4 1.4
v 3.7 4 1.4
v 4 4 1.3
v 3.9 4 1.3
v 3.8 4 1.3
v 3.7 4 1.3
v 4 4 1.2
v 3.9 4 1.2
v 3.8 4 1.2
v 3.7 4 1.2
v 4 4 1.1
v 3.9 4 1.1
v 3.8 4 1.1
v 3.7 4 1.1
v 4 4 1
v 3.9 4 1
v 3.8 4 1
v 3.7 4 1
v 0.1 4 1
v -0.1 4 1
v 4 4 0.9
v 3.9 4 0.9
v 3.8 4 0.9
v 3.7 4 0.9
v 4 4 0.8
v 3.9 4 0.8
v 3.8 4 0.8
v 3.7 4 0.8
v 0.1 4 0.8
v -0.1 4 0.8
v 4 4 0.7
v 3.9 4 0.7
v 3.8 4 0.7
v 3.7 4 0.7
v 0.2 4 0.7
v 0.1 4 0.7
v -0.1 4 0.7
v -0.2 4 0.7
v 4 4 0.6
v 3.9 4 0.6
v 3.8 4 0.6
v 3.7 4 0.6
v 0.3 4 0.6
v 0.2 4 0.6
v 0.1 4 0.6
v -0.1 4 0.6
v -0.2 4 0.6
v -0.3 4 0.6
v 4 4 0.5
v 3.9 4 0.5
v 3.8 4 0.5
v 3.7 4 0.5
v 4 4 0.4
v 3.9 4 0.4
v 3.8 4 0.4
v 3.7 4 0.4
v 0.3 4 0.4
v 0.2 4 0.4
v 0.1 4 0.4
v -0.1 4 0.4
v -0.2 4 0.4
v -0.3 4 0.4
v 4 4 0.3
v 3.9 4 0.3
v 0.2 4 0.3
v 0.1 4 0.3
v -0.1 4 0.3
v -0.2 4 0.3
v 4 4 0.2
v 3.9 4 0.2
v 3.8 4 0.2
v 3.7 4 0.2
v 0.1 4 0.2
v -0.1 4 0.2
v 4 4 0.1
v 3.9 4 0.1
v 3.8 4 0.1
v 3.7 4 0.1
v 4 4 0
v 3.9 4 0
v 0.1 4 0
v -0.1 4 0
v 4 4 -0.1
v 3.9 4 -0.1
v 3.8 4 -0.1
v 3.7 4 -0.1
v 4 4 -0.2
v 3.9 4 -0.2
v 3.8 4 -0.2
v 3.7 4 -0.2
v 4 4 -0.3
v 3.9 4 -0.3
v 4 4 -0.4
v 3.9 4 -0.4
v 3.8 4 -0.4
v 3.7 4 -0.4
v 4 4 -0.5
v 3.9 4 -0.5
v 3.8 4 -0.5
v 3.7 4 -0.5
v 4 4 -0.6
v 3.9 4 -0.6
v 3.8 4 -0.6
v 3.7 4 -0.6
v 4 4 -0.7
v 3.9 4 -0.7
v 3.8 4 -0.7
v 3.7 4 -0.7
v 4 4 -0.8
v 3.9 4 -0.8
v 3.8 4 -0.8
v 3.7 4 -0.8
v 4 4 -0.9
v 3.9 4 -0.9
v 3.8 4 -0.9
v 3.7 4 -0.9
v 4 4 -1
v 3.9 4 -1
v 3.8 4 -1
v 3.7 4 -1
v 0.1 4 -1
v -0.1 4 -1
v 4 4 -1.1
v 3.9 4 -1.1
v 3.8 4 -1.1
v 3.7 4 -1.1
v 4 4 -1.2
v 3.9 4 -1.2
v 3.8 4 -1.2
v 3.7 4 -1.2
v 4 4 -1.3
v 3.9 4 -1.3
v 3.8 4 -1.3
v 3.7 4 -1.3
v 4 4 -1.4
v 3.9 4 -1.4
v 3.8 4 -1.4
v 3.7 4 -1.4
v 4 4 -1.5
v 3.9 4 -1.5
v 3.8 4 -1.5
v 3.7 4 -1.5
v 4 4 -1.6
v 3.9 4 -1.6
v 3.8 4 -1.6
v 3.7 4 -1.6
v 4 4 -1.7
v 3.9 4 -1.7
v 3.8 4 -1.7
v 3.7 4 -1.7
v 4 4 -1.8
v 3.9 4 -1.8
v 3.8 4 -1.8
v 3.7 4 -1.8
v 4 4 -1.9
v 3.9 4 -1.9
v 3.8 4 -1.9
v 3.7 4 -1.9
v 3.6 4 -1.9
v 4 4 -2
v 3.9 4 -2
v 3.8 4 -2
v 3.7 4 -2
v 3.6 4 -2
v 0.1 4 -2
v -0.1 4 -2
v 4 4 -2.1
v 3.9 4 -2.1
v 3.8 4 -2.1
v 3.7 4 -2.1
v 3.6 4 -2.1
v 4 4 -2.2
v 3.9 4 -2.2
v 3.8 4 -2.2
v 3.7 4 -2.2
v 3.6 4 -2.2
v 3.5 4 -2.2
v 3.4 4 -2.2
v 3.3 4 -2.2
v 3.2 4 -2.2
v 3.1 4 -2.2
v 3 4 -2.2
v 2.9 4 -2.2
v 2.8 4 -2.2
v 2.7 4 -2.2
v 2.6 4 -2.2
v 2.5 4 -2.2
v 2.4 4 -2.2
v 2.3 4 -2.2
v 2.2 4 -2.2
v 2.1 4 -2.2
v 2 4 -2.2
v 1.9 4 -2.2
v 1.8 4 -2.2
v 1.7 4 -2.2
v 1.6 4 -2.2
v 1.5 4 -2.2
v 1.4 4 -2.2
v 1.3 4 -2.2
v 1.2 4 -2.2
v 1.1 4 -2.2
v 1 4 -2.2
v 0.9 4 -2.2
v 0.8 4 -2.2
v 0.7 4 -2.2
v 0.6 4 -2.2
v 0.5 4 -2.2
v 0.4 4 -2.2
v 0.3 4 -2.2
v 0.2 4 -2.2
v 0.1 4 -2.2
v -0.1 4 -2.2
v -0.2 4 -2.2
v -0.3 4 -2.2
v -0.4 4 -2.2
v -0.5 4 -2.2
v -0.6 4 -2.2
v -0.7 4 -2.2
v -0.8 4 -2.2
v -0.9 4 -2.2
v -1 4 -2.2
v -1.1 4 -2.2
v -1.2 4 -2.2
v -1.3 4 -2.2
v -1.4 4 -2.2
v -1.5 4 -2.2
v -1.8 4 -2.2
v -1.9 4 -2.2
v -2 4 -2.2
v -2.1 4 -2.2
v -2.2 4 -2.2
v 4 0 -2.2
v 4 0 4
v -2.2 0 4
v -2.2 0 -2.2
v 4 3 4
v 4 3 -2.2
v 4 3.1 4
v 4 3.1 -2.2
v 4 3.2 4
v 4 3.2 -2.2
v 4 3.3 4
v 4 3.3 -2.2
v 4 3.4 4
v 4 3.4 -2.2
v 4 3.5 4
v 4 3.5 -2.2
v 4 3.6 4
v 4 3.6 -2.2
v 4 3.7 4
v 4 3.7 -2.2
v 4 3.8 4
v 4 3.8 -2.2
v 4 3.9 4
v 4 3.9 -2.2
v 4 3.9 3.9
v 4 3.9 3.8
v 4 3.9 3.7
v 4 3.9 3.6
v 4 3.9 3.5
v 4 3.9 3.4
v 4 3.9 3.3
v 4 3.9 3.2
v 4 3.9 3.1
v 4 3.9 3
v 4 3.9 2.9
v 4 3.9 2.8
v 4 3.9 2.7
v 4 3.9 2.6
v 4 3.9 2.5
v 4 3.9 2.4
v 4 3.9 2.3
v 4 3.9 2.2
v 4 3.9 2.1
v 4 3.9 2
v 4 3.9 1.9
v 4 3.9 1.8
v 4 3.9 1.7
v 4 3.9 1.6
v 4 3.9 1.5
v 4 3.9 1.4
v 4 3.9 1.3
v 4 3.9 1.2
v 4 3.9 1.1
v 4 3.9 1
v 4 3.9 0.9
v 4 3.9 0.8
v 4 3.9 0.7
v 4 3.9 0.6
v 4 3.9 0.5
v 4 3.9 0.4
v 4 3.9 0.3
v 4 3.9 0.2
v 4 3.9 0.1
v 4 3.9 0
v 4 3.9 -0.1
v 4 3.9 -0.2
v 4 3.9 -0.3
v 4 3.9 -0.4
v 4 3.9 -0.5
v 4 3.9 -0.6
v 4 3.9 -0.7
v 4 3.9 -0.8
v 4 3.9 -0.9
v 4 3.9 -1
v 4 3.9 -1.1
v 4 3.9 -1.2
v 4 3.9 -1.3
v 4 3.9 -1.4
v 4 3.9 -1.5
v 4 3.9 -1.6
v 4 3.9 -1.7
v 4 3.9 -1.8
v 4 3.9 -1.9
v 4 3.9 -2
v 4 3.9 -2.1
v 3.9 3.9 4
v 3.8 3.9 4
v 3.7 3.9 4
v 3.6 3.9 4
v 3.5 3.9 4
v 3.4 3.9 4
v 3.3 3.9 4
v 3.2 3.9 4
v 3.1 3.9 4
v 3 3.9 4
v 2.9 3.9 4
v 2.8 3.9 4
v 2.7 3.9 4
v 2.6 3.9 4
v 2.5 3.9 4
v 2.4 3.9 4
v 2.3 3.9 4
v 2.2 3.9 4
v 2.1 3.9 4
v 2 3.9 4
v 1.9 3.9 4
v 1.8 3.9 4
v 1.7 3.9 4
v 1.6 3.9 4
v 1.5 3.9 4
v 1.4 3.9 4
v 1.3 3.9 4
v 1.2 3.9 4
v 1.1 3.9 4
v 1 3.9 4
v 0.9 3.9 4
v 0.8 3.9 4
v 0.7 3.9 4
v 0.6 3.9 4
v 0.5 3.9 4
v 0.4 3.9 4
v 0.3 3.9 4
v 0.2 3.9 4
v 0.1 3.9 4
v 0 3.9 4
v -0.1 3.9 4
v -0.2 3.9 4
v -0.3 3.9 4
v -0.4 3.9 4
v -0.5 3.9 4
v -0.6 3.9 4
v -0.7 3.9 4
v -0.8 3.9 4
v -0.9 3.9 4
v -1 3.9 4
v -1.1 3.9 4
v -1.2 3.9 4
v -1.3 3.9 4
v -1.4 3.9 4
v -1.5 3.9 4
v -1.6 3.9 4
v -1.7 3.9 4
v -1.8 3.9 4
v -1.9 3.9 4
v -2 3.9 4
v -2.1 3.9 4
v -2.2 3 4
v -2.2 3.1 4
v -2.2 3.2 4
v -2.2 3.3 4
v -2.2 3.4 4
v -2.2 3.5 4
v -2.2 3.6 4
v -2.2 3.7 4
v -2.2 3.8 4
v -2.2 3.9 4
v -2.3 4 3.9
v -2.4 4 3.9
v -2.4 4 4
v -2.3 4 4
v -2.5 4 3.9
v -2.6 4 3.9
v -2.6 4 4
v -2.5 4 4
v -2.7 4 3.9
v -2.8 4 3.9
v -2.8 4 4
v -2.7 4 4
v -2.9 4 3.9
v -3 4 3.9
v -3 4 4
v -2.9 4 4
v -3.1 4 3.9
v -3.2 4 3.9
v -3.2 4 4
v -3.1 4 4
v -3.3 4 3.9
v -3.4 4 3.9
v -3.4 4 4
v -3.3 4 4
v -3.5 4 3.9
v -3.6 4 3.9
v -3.6 4 4
v -3.5 4 4
v -3.7 4 3.9
v -3.8 4 3.9
v -3.8 4 4
v -3.7 4 4
v -3.9 4 3.9
v -4 4 3.9
v -4 4 4
v -3.9 4 4
v -2.3 4 3.8
v -2.4 4 3.8
v -2.5 4 3.8
v -2.6 4 3.8
v -2.7 4 3.8
v -2.8 4 3.8
v -2.9 4 3.8
v -3 4 3.8
v -3.1 4 3.8
v -3.2 4 3.8
v -3.3 4 3.8
v -3.4 4 3.8
v -3.5 4 3.8
v -3.6 4 3.8
v -3.7 4 3.8
v -3.8 4 3.8
v -3.9 4 3.8
v -4 4 3.8
v -2.3 4 3.7
v -2.4 4 3.7
v -2.5 4 3.7
v -2.6 4 3.7
v -2.7 4 3.7
v -2.8 4 3.7
v -2.9 4 3.7
v -3 4 3.7
v -3.1 4 3.7
v -3.2 4 3.7
v -3.3 4 3.7
v -3.4 4 3.7
v -3.5 4 3.7
v -3.6 4 3.7
v -3.7 4 3.7
v -3.8 4 3.7
v -3.9 4 3.7
v -4 4 3.7
v -2.3 4 3.6
v -2.4 4 3.6
v -2.5 4 3.6
v -2.6 4 3.6
v -2.7 4 3.6
v -2.8 4 3.6
v -2.9 4 3.6
v -3 4 3.6
v -3.1 4 3.6
v -3.2 4 3.6
v -3.3 4 3.6
v -3.4 4 3.6
v -3.5 4 3.6
v -3.6 4 3.6
v -3.7 4 3.6
v -3.8 4 3.6
v -3.9 4 3.6
v -4 4 3.6
v -2.4 4 3.5
v -2.5 4 3.5
v -2.6 4 3.5
v -2.7 4 3.5
v -2.8 4 3.5
v -2.9 4 3.5
v -3 4 3.5
v -3.1 4 3.5
v -3.2 4 3.5
v -3.3 4 3.5
v -3.4 4 3.5
v -3.5 4 3.5
v -3.6 4 3.5
v -3.7 4 3.5
v -3.8 4 3.5
v -3.9 4 3.5
v -4 4 3.5
v -2.7 4 3.4
v -2.8 4 3.4
v -2.9 4 3.4
v -3 4 3.4
v -3.1 4 3.4
v -3.2 4 3.4
v -3.3 4 3.4
v -3.4 4 3.4
v -3.5 4 3.4
v -3.6 4 3.4
v -3.7 4 3.4
v -3.8 4 3.4
v -3.9 4 3.4
v -4 4 3.4
v -3 4 3.3
v -3.1 4 3.3
v -3.2 4 3.3
v -3.3 4 3.3
v -3.4 4 3.3
v -3.5 4 3.3
v -3.6 4 3.3
v -3.7 4 3.3
v -3.8 4 3.3
v -3.9 4 3.3
v -4 4 3.3
v -3.1 4 3.2
v -3.2 4 3.2
v -3.3 4 3.2
v -3.4 4 3.2
v -3.5 4 3.2
v -3.6 4 3.2
v -3.7 4 3.2
v -3.8 4 3.2
v -3.9 4 3.2
v -4 4 3.2
v -3.2 4 3.1
v -3.3 4 3.1
v -3.4 4 3.1
v -3.5 4 3.1
v -3.6 4 3.1
v -3.7 4 3.1
v -3.8 4 3.1
v -3.9 4 3.1
v -4 4 3.1
v -3.3 4 3
v -3.4 4 3
v -3.5 4 3
v -3.6 4 3
v -3.7 4 3
v -3.8 4 3
v -3.9 4 3
v -4 4 3
v -3.4 4 2.9
v -3.5 4 2.9
v -3.6 4 2.9
v -3.7 4 2.9
v -3.8 4 2.9
v -3.9 4 2.9
v -4 4 2.9
v -3.4 4 2.8
v -3.5 4 2.8
v -3.6 4 2.8
v -3.7 4 2.8
v -3.8 4 2.8
v -3.9 4 2.8
v -4 4 2.8
v -3.4 4 2.7
v -3.5 4 2.7
v -3.6 4 2.7
v -3.7 4 2.7
v -3.8 4 2.7
v -3.9 4 2.7
v -4 4 2.7
v -3.5 4 2.6
v -3.6 4 2.6
v -3.7 4 2.6
v -3.8 4 2.6
v -3.9 4 2.6
v -4 4 2.6
v -3.5 4 2.5
v -3.6 4 2.5
v -3.7 4 2.5
v -3.8 4 2.5
v -3.9 4 2.5
v -4 4 2.5
v -3.5 4 2.4
v -3.6 4 2.4
v -3.7 4 2.4
v -3.8 4 2.4
v -3.9 4 2.4
v -4 4 2.4
v -3.6 4 2.3
v -3.7 4 2.3
v -3.8 4 2.3
v -3.9 4 2.3
v -4 4 2.3
v -3.6 4 2.2
v -3.7 4 2.2
v -3.8 4 2.2
v -3.9 4 2.2
v -4 4 2.2
v -3.6 4 2.1
v -3.7 4 2.1
v -3.8 4 2.1
v -3.9 4 2.1
v -4 4 2.1
v -3.6 4 2
v -3.7 4 2
v -3.8 4 2
v -3.9 4 2
v -4 4 2
v -3.6 4 1.9
v -3.7 4 1.9
v -3.8 4 1.9
v -3.9 4 1.9
v -4 4 1.9
v -3.7 4 1.8
v -3.8 4 1.8
v -3.9 4 1.8
v -4 4 1.8
v -3.7 4 1.7
v -3.8 4 1.7
v -3.9 4 1.7
v -4 4 1.7
v -3.7 4 1.6
v -3.8 4 1.6
v -3.9 4 1.6
v -4 4 1.6
v -3.7 4 1.5
v -3.8 4 1.5
v -3.9 4 1.5
v -4 4 1.5
v -3.7 4 1.4
v -3.8 4 1.4
v -3.9 4 1.4
v -4 4 1.4
v -3.7 4 1.3
v -3.8 4 1.3
v -3.9 4 1.3
v -4 4 1.3
v -3.7 4 1.2
v -3.8 4 1.2
v -3.9 4 1.2
v -4 4 1.2
v -3.7 4 1.1
v -3.8 4 1.1
v -3.9 4 1.1
v -4 4 1.1
v -3.7 4 1
v -3.8 4 1
v -3.9 4 1
v -4 4 1
v -3.7 4 0.9
v -3.8 4 0.9
v -3.9 4 0.9
v -4 4 0.9
v -3.7 4 0.8
v -3.8 4 0.8
v -3.9 4 0.8
v -4 4 0.8
v -3.7 4 0.7
v -3.8 4 0.7
v -3.9 4 0.7
v -4 4 0.7
v -3.7 4 0.6
v -3.8 4 0.6
v -3.9 4 0.6
v -4 4 0.6
v -3.7 4 0.5
v -3.8 4 0.5
v -3.9 4 0.5
v -4 4 0.5
v -3.7 4 0.4
v -3.8 4 0.4
v -3.9 4 0.4
v -4 4 0.4
v -3.9 4 0.3
v -4 4 0.3
v -3.7 4 0.2
v -3.8 4 0.2
v -3.9 4 0.2
v -4 4 0.2
v -3.7 4 0.1
v -3.8 4 0.1
v -3.9 4 0.1
v -4 4 0.1
v -3.9 4 0
v -4 4 0
v -3.7 4 -0.1
v -3.8 4 -0.1
v -3.9 4 -0.1
v -4 4 -0.1
v -3.7 4 -0.2
v -3.8 4 -0.2
v -3.9 4 -0.2
v -4 4 -0.2
v -3.9 4 -0.3
v -4 4 -0.3
v -3.7 4 -0.4
v -3.8 4 -0.4
v -3.9 4 -0.4
v -4 4 -0.4
v -3.7 4 -0.5
v -3.8 4 -0.5
v -3.9 4 -0.5
v -4 4 -0.5
v -3.7 4 -0.6
v -3.8 4 -0.6
v -3.9 4 -0.6
v -4 4 -0.6
v -3.7 4 -0.7
v -3.8 4 -0.7
v -3.9 4 -0.7
v -4 4 -0.7
v -3.7 4 -0.8
v -3.8 4 -0.8
v -3.9 4 -0.8
v -4 4 -0.8
v -3.7 4 -0.9
v -3.8 4 -0.9
v -3.9 4 -0.9
v -4 4 -0.9
v -3.7 4 -1
v -3.8 4 -1
v -3.9 4 -1
v -4 4 -1
v -3.7 4 -1.1
v -3.8 4 -1.1
v -3.9 4 -1.1
v -4 4 -1.1
v -3.7 4 -1.2
v -3.8 4 -1.2
v -3.9 4 -1.2
v -4 4 -1.2
v -3.7 4 -1.3
v -3.8 4 -1.3
v -3.9 4 -1.3
v -4 4 -1.3
v -3.7 4 -1.4
v -3.8 4 -1.4
v -3.9 4 -1.4
v -4 4 -1.4
v -3.7 4 -1.5
v -3.8 4 -1.5
v -3.9 4 -1.5
v -4 4 -1.5
v -3.7 4 -1.6
v -3.8 4 -1.6
v -3.9 4 -1.6
v -4 4 -1.6
v -3.7 4 -1.7
v -3.8 4 -1.7
v -3.9 4 -1.7
v -4 4 -1.7
v -3.7 4 -1.8
v -3.8 4 -1.8
v -3.9 4 -1.8
v -4 4 -1.8
v -3.6 4 -1.9
v -3.7 4 -1.9
v -3.8 4 -1.9
v -3.9 4 -1.9
v -4 4 -1.9
v -3.6 4 -2
v -3.7 4 -2
v -3.8 4 -2
v -3.9 4 -2
v -4 4 -2
v -3.6 4 -2.1
v -3.7 4 -2.1
v -3.8 4 -2.1
v -3.9 4 -2.1
v -4 4 -2.1
v -2.3 4 -2.2
v -2.4 4 -2.2
v -2.5 4 -2.2
v -2.6 4 -2.2
v -2.7 4 -2.2
v -2.8 4 -2.2
v -2.9 4 -2.2
v -3 4 -2.2
v -3.1 4 -2.2
v -3.2 4 -2.2
v -3.3 4 -2.2
v -3.4 4 -2.2
v -3.5 4 -2.2
v -3.6 4 -2.2
v -3.7 4 -2.2
v -3.8 4 -2.2
v -3.9 4 -2.2
v -4 4 -2.2
v -4 0 4
v -4 0 -2.2
v -4 3 4
v -4 3 -2.2
v -4 3.1 4
v -4 3.1 -2.2
v -4 3.2 4
v -4 3.2 -2.2
v -4 3.3 4
v -4 3.3 -2.2
v -4 3.4 4
v -4 3.4 -2.2
v -4 3.5 4
v -4 3.5 -2.2
v -4 3.6 4
v -4 3.6 -2.2
v -4 3.7 4
v -4 3.7 -2.2
v -4 3.8 4
v -4 3.8 -2.2
v -4 3.9 4
v -4 3.9 -2.2
v -4 3.9 3.9
v -4 3.9 3.8
v -4 3.9 3.7
v -4 3.9 3.6
v -4 3.9 3.5
v -4 3.9 3.4
v -4 3.9 3.3
v -4 3.9 3.2
v -4 3.9 3.1
v -4 3.9 3
v -4 3.9 2.9
v -4 3.9 2.8
v -4 3.9 2.7
v -4 3.9 2.6
v -4 3.9 2.5
v -4 3.9 2.4
v -4 3.9 2.3
v -4 3.9 2.2
v -4 3.9 2.1
v -4 3.9 2
v -4 3.9 1.9
v -4 3.9 1.8
v -4 3.9 1.7
v -4 3.9 1.6
v -4 3.9 1.5
v -4 3.9 1.4
v -4 3.9 1.3
v -4 3.9 1.2
v -4 3.9 1.1
v -4 3.9 1
v -4 3.9 0.9
v -4 3.9 0.8
v -4 3.9 0.7
v -4 3.9 0.6
v -4 3.9 0.5
v -4 3.9 0.4
v -4 3.9 0.3
v -4 3.9 0.2
v -4 3.9 0.1
v -4 3.9 0
v -4 3.9 -0.1
v -4 3.9 -0.2
v -4 3.9 -0.3
v -4 3.9 -0.4
v -4 3.9 -0.5
v -4 3.9 -0.6
v -4 3.9 -0.7
v -4 3.9 -0.8
v -4 3.9 -0.9
v -4 3.9 -1
v -4 3.9 -1.1
v -4 3.9 -1.2
v -4 3.9 -1.3
v -4 3.9 -1.4
v -4 3.9 -1.5
v -4 3.9 -1.6
v -4 3.9 -1.7
v -4 3.9 -1.8
v -4 3.9 -1.9
v -4 3.9 -2
v -4 3.9 -2.1
v -2.3 3.9 4
v -2.4 3.9 4
v -2.5 3.9 4
v -2.6 3.9 4
v -2.7 3.9 4
v -2.8 3.9 4
v -2.9 3.9 4
v -3 3.9 4
v -3.1 3.9 4
v -3.2 3.9 4
v -3.3 3.9 4
v -3.4 3.9 4
v -3.5 3.9 4
v -3.6 3.9 4
v -3.7 3.9 4
v -3.8 3.9 4
v -3.9 3.9 4
v 4 4 -2.3
v 3.7 4 -2.3
v 2 4 -2.3
v 4 4 -2.4
v 3.9 4 -2.4
v 3.9 4 -2.3
v 3.8 4 -2.4
v 3.7 4 -2.4
v 3.8 4 -2.3
v 3.6 4 -2.4
v 3.6 4 -2.3
v 2 4 -2.4
v 4 4 -2.5
v 3.9 4 -2.5
v 3.8 4 -2.5
v 3.7 4 -2.5
v 3.6 4 -2.5
v 3.5 4 -2.5
v 3.5 4 -2.4
v 1.8 4 -2.5
v 0.1 4 -2.5
v 4 4 -2.6
v 3.9 4 -2.6
v 3.8 4 -2.6
v 3.7 4 -2.6
v 3.6 4 -2.6
v 3.5 4 -2.6
v 1.8 4 -2.6
v 1.5 4 -2.6
v 1.5 4 -2.5
v 4 4 -2.7
v 3.9 4 -2.7
v 3.8 4 -2.7
v 3.7 4 -2.7
v 3.6 4 -2.7
v 3.5 4 -2.7
v 2 4 -2.7
v 1.8 4 -2.7
v 1.6 4 -2.7
v 1.6 4 -2.6
v 4 4 -2.8
v 3.9 4 -2.8
v 3.8 4 -2.8
v 3.7 4 -2.8
v 3.6 4 -2.8
v 3.5 4 -2.8
v 3.4 4 -2.8
v 3.4 4 -2.7
v 1.8 4 -2.8
v 1.6 4 -2.8
v 4 4 -2.9
v 3.9 4 -2.9
v 3.8 4 -2.9
v 3.7 4 -2.9
v 3.6 4 -2.9
v 3.5 4 -2.9
v 3.4 4 -2.9
v 1.8 4 -2.9
v 1.6 4 -2.9
v 4 4 -3
v 3.9 4 -3
v 3.8 4 -3
v 3.7 4 -3
v 3.6 4 -3
v 3.5 4 -3
v 3.4 4 -3
v 2 4 -3
v 1.8 4 -3
v 1.6 4 -3
v 1.5 4 -3
v 0.1 4 -3
v -0.1 4 -3
v 4 4 -3.1
v 3.9 4 -3.1
v 3.8 4 -3.1
v 3.7 4 -3.1
v 3.6 4 -3.1
v 3.5 4 -3.1
v 3.4 4 -3.1
v 3.3 4 -3.1
v 3.3 4 -3
v 2 4 -3.1
v 4 4 -3.2
v 3.9 4 -3.2
v 3.8 4 -3.2
v 3.7 4 -3.2
v 3.6 4 -3.2
v 3.5 4 -3.2
v 3.4 4 -3.2
v 3.3 4 -3.2
v 3.2 4 -3.2
v 3.2 4 -3.1
v 2 4 -3.2
v 4 4 -3.3
v 3.9 4 -3.3
v 3.8 4 -3.3
v 3.7 4 -3.3
v 3.6 4 -3.3
v 3.5 4 -3.3
v 3.4 4 -3.3
v 3.3 4 -3.3
v 3.2 4 -3.3
v 3.1 4 -3.3
v 3.1 4 -3.2
v 2 4 -3.3
v 4 4 -3.4
v 3.9 4 -3.4
v 3.8 4 -3.4
v 3.7 4 -3.4
v 3.6 4 -3.4
v 3.5 4 -3.4
v 3.4 4 -3.4
v 3.3 4 -3.4
v 3.2 4 -3.4
v 3.1 4 -3.4
v 3 4 -3.4
v 3 4 -3.3
v 2 4 -3.4
v 4 4 -3.5
v 3.9 4 -3.5
v 3.8 4 -3.5
v 3.7 4 -3.5
v 3.6 4 -3.5
v 3.5 4 -3.5
v 3.4 4 -3.5
v 3.3 4 -3.5
v 3.2 4 -3.5
v 3.1 4 -3.5
v 3 4 -3.5
v 2.9 4 -3.5
v 2.9 4 -3.4
v 2.8 4 -3.5
v 2.8 4 -3.4
v 2.7 4 -3.5
v 2.7 4 -3.4
v 2 4 -3.5
v 4 4 -3.6
v 3.9 4 -3.6
v 3.8 4 -3.6
v 3.7 4 -3.6
v 3.6 4 -3.6
v 3.5 4 -3.6
v 3.4 4 -3.6
v 3.3 4 -3.6
v 3.2 4 -3.6
v 3.1 4 -3.6
v 3 4 -3.6
v 2.9 4 -3.6
v 2.8 4 -3.6
v 2.7 4 -3.6
v 2.6 4 -3.6
v 2.6 4 -3.5
v 2.5 4 -3.6
v 2.5 4 -3.5
v 2.4 4 -3.6
v 2.4 4 -3.5
v 2 4 -3.6
v -2.1 4 -3.6
v -2.2 4 -3.6
v 4 4 -3.7
v 3.9 4 -3.7
v 3.8 4 -3.7
v 3.7 4 -3.7
v 3.6 4 -3.7
v 3.5 4 -3.7
v 3.4 4 -3.7
v 3.3 4 -3.7
v 3.2 4 -3.7
v 3.1 4 -3.7
v 3 4 -3.7
v 2.9 4 -3.7
v 2.8 4 -3.7
v 2.7 4 -3.7
v 2.6 4 -3.7
v 2.5 4 -3.7
v 2.4 4 -3.7
v 2.3 4 -3.7
v 2.3 4 -3.6
v 2.2 4 -3.7
v 2.2 4 -3.6
v 2.1 4 -3.7
v 2.1 4 -3.6
v 2 4 -3.7
v -2 4 -3.7
v -2.1 4 -3.7
v -2.2 4 -3.7
v 4 4 -3.8
v 3.9 4 -3.8
v 3.8 4 -3.8
v 3.7 4 -3.8
v 3.6 4 -3.8
v 3.5 4 -3.8
v 3.4 4 -3.8
v 3.3 4 -3.8
v 3.2 4 -3.8
v 3.1 4 -3.8
v 3 4 -3.8
v 2.9 4 -3.8
v 2.8 4 -3.8
v 2.7 4 -3.8
v 2.6 4 -3.8
v 2.5 4 -3.8
v 2.4 4 -3.8
v 2.3 4 -3.8
v 2.2 4 -3.8
v 2.1 4 -3.8
v -2.1 4 -3.8
v -2.2 4 -3.8
v 4 4 -3.9
v 3.9 4 -3.9
v 3.8 4 -3.9
v 3.7 4 -3.9
v 3.6 4 -3.9
v 3.5 4 -3.9
v 3.4 4 -3.9
v 3.3 4 -3.9
v 3.2 4 -3.9
v 3.1 4 -3.9
v 3 4 -3.9
v 2.9 4 -3.9
v 2.8 4 -3.9
v 2.7 4 -3.9
v 2.6 4 -3.9
v 2.5 4 -3.9
v 2.4 4 -3.9
v 2.3 4 -3.9
v 2.2 4 -3.9
v 2.1 4 -3.9
v 2 4 -3.9
v 1.8 4 -3.9
v 1.5 4 -3.9
v 1.4 4 -3.9
v 0.1 4 -3.9
v 1.4 4 -2.5
v 0 4 -3.9
v -0.1 4 -3.9
v 0 4 -3
v -0.2 4 -3.9
v -1.8 4 -3.9
v -2 4 -3.9
v -2.1 4 -3.9
v 4 4 -4
v 3.9 4 -4
v 3.8 4 -4
v 3.7 4 -4
v 3.6 4 -4
v 3.5 4 -4
v 3.4 4 -4
v 3.3 4 -4
v 3.2 4 -4
v 3.1 4 -4
v 3 4 -4
v 2.9 4 -4
v 2.8 4 -4
v 2.7 4 -4
v 2.6 4 -4
v 2.5 4 -4
v 2.4 4 -4
v 2.3 4 -4
v 2.2 4 -4
v 2.1 4 -4
v 2 4 -4
v 1.9 4 -4
v 1.9 4 -3.9
v 1.8 4 -4
v 1.7 4 -4
v 1.7 4 -3.9
v 1.6 4 -4
v 1.6 4 -3.9
v 1.5 4 -4
v 1.4 4 -4
v 1.3 4 -4
v 1.3 4 -3.9
v 1.2 4 -4
v 1.2 4 -3.9
v 1.1 4 -4
v 1.1 4 -3.9
v 1 4 -4
v 1 4 -3.9
v 0.9 4 -4
v 0.9 4 -3.9
v 0.8 4 -4
v 0.8 4 -3.9
v 0.7 4 -4
v 0.7 4 -3.9
v 0.6 4 -4
v 0.6 4 -3.9
v 0.5 4 -4
v 0.5 4 -3.9
v 0.4 4 -4
v 0.4 4 -3.9
v 0.3 4 -4
v 0.3 4 -3.9
v 0.2 4 -4
v 0.2 4 -3.9
v 0.1 4 -4
v 0 4 -4
v -0.1 4 -4
v -0.2 4 -4
v -0.3 4 -4
v -0.3 4 -3.9
v -0.4 4 -4
v -0.4 4 -3.9
v -0.5 4 -4
v -0.5 4 -3.9
v -0.6 4 -4
v -0.6 4 -3.9
v -0.7 4 -4
v -0.7 4 -3.9
v -0.8 4 -4
v -0.8 4 -3.9
v -0.9 4 -4
v -0.9 4 -3.9
v -1 4 -4
v -1 4 -3.9
v -1.1 4 -4
v -1.1 4 -3.9
v -1.2 4 -4
v -1.2 4 -3.9
v -1.3 4 -4
v -1.3 4 -3.9
v -1.4 4 -4
v -1.4 4 -3.9
v -1.5 4 -4
v -1.5 4 -3.9
v -1.6 4 -4
v -1.6 4 -3.9
v -1.7 4 -4
v -1.7 4 -3.9
v -1.8 4 -4
v -1.9 4 -4
v -1.9 4 -3.9
v -2 4 -4
v -2.1 4 -4
v -2.2 4 -4
v 4 0 -4
v -2.2 0 -4
v 4 3 -4
v 4 3.1 -4
v 4 3.2 -4
v 4 3.3 -4
v 4 3.4 -4
v 4 3.5 -4
v 4 3.6 -4
v 4 3.7 -4
v 4 3.8 -4
v 4 3.9 -4
v 4 3.9 -2.3
v 4 3.9 -2.4
v 4 3.9 -2.5
v 4 3.9 -2.6
v 4 3.9 -2.7
v 4 3.9 -2.8
v 4 3.9 -2.9
v 4 3.9 -3
v 4 3.9 -3.1
v 4 3.9 -3.2
v 4 3.9 -3.3
v 4 3.9 -3.4
v 4 3.9 -3.5
v 4 3.9 -3.6
v 4 3.9 -3.7
v 4 3.9 -3.8
v 4 3.9 -3.9
v 3.9 3.9 -4
v 3.8 3.9 -4
v 3.7 3.9 -4
v 3.6 3.9 -4
v 3.5 3.9 -4
v 3.4 3.9 -4
v 3.3 3.9 -4
v 3.2 3.9 -4
v 3.1 3.9 -4
v 3 3.9 -4
v 2.9 3.9 -4
v 2.8 3.9 -4
v 2.7 3.9 -4
v 2.6 3.9 -4
v 2.5 3.9 -4
v 2.4 3.9 -4
v 2.3 3.9 -4
v 2.2 3.9 -4
v 2.1 3.9 -4
v 2 3.9 -4
v 1.9 3.9 -4
v 1.8 3.9 -4
v 1.7 3.9 -4
v 1.6 3.9 -4
v 1.5 3.9 -4
v 1.4 3.9 -4
v 1.3 3.9 -4
v 1.2 3.9 -4
v 1.1 3.9 -4
v 1 3.9 -4
v 0.9 3.9 -4
v 0.8 3.9 -4
v 0.7 3.9 -4
v 0.6 3.9 -4
v 0.5 3.9 -4
v 0.4 3.9 -4
v 0.3 3.9 -4
v 0.2 3.9 -4
v 0.1 3.9 -4
v 0 3.9 -4
v -0.1 3.9 -4
v -0.2 3.9 -4
v -0.3 3.9 -4
v -0.4 3.9 -4
v -0.5 3.9 -4
v -0.6 3.9 -4
v -0.7 3.9 -4
v -0.8 3.9 -4
v -0.9 3.9 -4
v -1 3.9 -4
v -1.1 3.9 -4
v -1.2 3.9 -4
v -1.3 3.9 -4
v -1.4 3.9 -4
v -1.5 3.9 -4
v -1.6 3.9 -4
v -1.7 3.9 -4
v -1.8 3.9 -4
v -1.9 3.9 -4
v -2 3.9 -4
v -2.1 3.9 -4
v -2.2 3 -4
v -2.2 3.1 -4
v -2.2 3.2 -4
v -2.2 3.3 -4
v -2.2 3.4 -4
v -2.2 3.5 -4
v -2.2 3.6 -4
v -2.2 3.7 -4
v -2.2 3.8 -4
v -2.2 3.9 -4
v -3.6 4 -2.3
v -3.7 4 -2.3
v -3.9 4 -2.3
v -4 4 -2.3
v -3.5 4 -2.4
v -3.6 4 -2.4
v -3.7 4 -2.4
v -3.8 4 -2.4
v -3.8 4 -2.3
v -3.9 4 -2.4
v -4 4 -2.4
v -3.5 4 -2.5
v -3.6 4 -2.5
v -3.7 4 -2.5
v -3.8 4 -2.5
v -3.9 4 -2.5
v -4 4 -2.5
v -3.5 4 -2.6
v -3.6 4 -2.6
v -3.7 4 -2.6
v -3.8 4 -2.6
v -3.9 4 -2.6
v -4 4 -2.6
v -3.4 4 -2.7
v -3.5 4 -2.7
v -3.6 4 -2.7
v -3.7 4 -2.7
v -3.8 4 -2.7
v -3.9 4 -2.7
v -4 4 -2.7
v -3.4 4 -2.8
v -3.5 4 -2.8
v -3.6 4 -2.8
v -3.7 4 -2.8
v -3.8 4 -2.8
v -3.9 4 -2.8
v -4 4 -2.8
v -3.4 4 -2.9
v -3.5 4 -2.9
v -3.6 4 -2.9
v -3.7 4 -2.9
v -3.8 4 -2.9
v -3.9 4 -2.9
v -4 4 -2.9
v -3.3 4 -3
v -3.4 4 -3
v -3.5 4 -3
v -3.6 4 -3
v -3.7 4 -3
v -3.8 4 -3
v -3.9 4 -3
v -4 4 -3
v -3.2 4 -3.1
v -3.3 4 -3.1
v -3.4 4 -3.1
v -3.5 4 -3.1
v -3.6 4 -3.1
v -3.7 4 -3.1
v -3.8 4 -3.1
v -3.9 4 -3.1
v -4 4 -3.1
v -3.1 4 -3.2
v -3.2 4 -3.2
v -3.3 4 -3.2
v -3.4 4 -3.2
v -3.5 4 -3.2
v -3.6 4 -3.2
v -3.7 4 -3.2
v -3.8 4 -3.2
v -3.9 4 -3.2
v -4 4 -3.2
v -3 4 -3.3
v -3.1 4 -3.3
v -3.2 4 -3.3
v -3.3 4 -3.3
v -3.4 4 -3.3
v -3.5 4 -3.3
v -3.6 4 -3.3
v -3.7 4 -3.3
v -3.8 4 -3.3
v -3.9 4 -3.3
v -4 4 -3.3
v -2.7 4 -3.4
v -3 4 -3.4
v -3.1 4 -3.4
v -3.2 4 -3.4
v -3.3 4 -3.4
v -3.4 4 -3.4
v -3.5 4 -3.4
v -3.6 4 -3.4
v -3.7 4 -3.4
v -3.8 4 -3.4
v -3.9 4 -3.4
v -4 4 -3.4
v -2.4 4 -3.5
v -2.7 4 -3.5
v -2.8 4 -3.5
v -2.8 4 -3.4
v -2.9 4 -3.5
v -2.9 4 -3.4
v -3 4 -3.5
v -3.1 4 -3.5
v -3.2 4 -3.5
v -3.3 4 -3.5
v -3.4 4 -3.5
v -3.5 4 -3.5
v -3.6 4 -3.5
v -3.7 4 -3.5
v -3.8 4 -3.5
v -3.9 4 -3.5
v -4 4 -3.5
v -2.3 4 -3.6
v -2.4 4 -3.6
v -2.5 4 -3.6
v -2.5 4 -3.5
v -2.6 4 -3.6
v -2.6 4 -3.5
v -2.7 4 -3.6
v -2.8 4 -3.6
v -2.9 4 -3.6
v -3 4 -3.6
v -3.1 4 -3.6
v -3.2 4 -3.6
v -3.3 4 -3.6
v -3.4 4 -3.6
v -3.5 4 -3.6
v -3.6 4 -3.6
v -3.7 4 -3.6
v -3.8 4 -3.6
v -3.9 4 -3.6
v -4 4 -3.6
v -2.3 4 -3.7
v -2.4 4 -3.7
v -2.5 4 -3.7
v -2.6 4 -3.7
v -2.7 4 -3.7
v -2.8 4 -3.7
v -2.9 4 -3.7
v -3 4 -3.7
v -3.1 4 -3.7
v -3.2 4 -3.7
v -3.3 4 -3.7
v -3.4 4 -3.7
v -3.5 4 -3.7
v -3.6 4 -3.7
v -3.7 4 -3.7
v -3.8 4 -3.7
v -3.9 4 -3.7
v -4 4 -3.7
v -2.3 4 -3.8
v -2.4 4 -3.8
v -2.5 4 -3.8
v -2.6 4 -3.8
v -2.7 4 -3.8
v -2.8 4 -3.8
v -2.9 4 -3.8
v -3 4 -3.8
v -3.1 4 -3.8
v -3.2 4 -3.8
v -3.3 4 -3.8
v -3.4 4 -3.8
v -3.5 4 -3.8
v -3.6 4 -3.8
v -3.7 4 -3.8
v -3.8 4 -3.8
v -3.9 4 -3.8
v -4 4 -3.8
v -2.2 4 -3.9
v -2.3 4 -3.9
v -2.4 4 -3.9
v -2.5 4 -3.9
v -2.6 4 -3.9
v -2.7 4 -3.9
v -2.8 4 -3.9
v -2.9 4 -3.9
v -3 4 -3.9
v -3.1 4 -3.9
v -3.2 4 -3.9
v -3.3 4 -3.9
v -3.4 4 -3.9
v -3.5 4 -3.9
v -3.6 4 -3.9
v -3.7 4 -3.9
v -3.8 4 -3.9
v -3.9 4 -3.9
v -4 4 -3.9
v -2.3 4 -4
v -2.4 4 -4
v -2.5 4 -4
v -2.6 4 -4
v -2.7 4 -4
v -2.8 4 -4
v -2.9 4 -4
v -3 4 -4
v -3.1 4 -4
v -3.2 4 -4
v -3.3 4 -4
v -3.4 4 -4
v -3.5 4 -4
v -3.6 4 -4
v -3.7 4 -4
v -3.8 4 -4
v -3.9 4 -4
v -4 4 -4
v -4 0 -4
v -4 3 -4
v -4 3.1 -4
v -4 3.2 -4
v -4 3.3 -4
v -4 3.4 -4
v -4 3.5 -4
v -4 3.6 -4
v -4 3.7 -4
v -4 3.8 -4
v -4 3.9 -4
v -4 3.9 -2.3
v -4 3.9 -2.4
v -4 3.9 -2.5
v -4 3.9 -2.6
v -4 3.9 -2.7
v -4 3.9 -2.8
v -4 3.9 -2.9
v -4 3.9 -3
v -4 3.9 -3.1
v -4 3.9 -3.2
v -4 3.9 -3.3
v -4 3.9 -3.4
v -4 3.9 -3.5
v -4 3.9 -3.6
v -4 3.9 -3.7
v -4 3.9 -3.8
v -4 3.9 -3.9
v -2.3 3.9 -4
v -2.4 3.9 -4
v -2.5 3.9 -4
v -2.6 3.9 -4
v -2.7 3.9 -4
v -2.8 3.9 -4
v -2.9 3.9 -4
v -3 3.9 -4
v -3.1 3.9 -4
v -3.2 3.9 -4
v -3.3 3.9 -4
v -3.4 3.9 -4
v -3.5 3.9 -4
v -3.6 3.9 -4
v -3.7 3.9 -4
v -3.8 3.9 -4
v -3.9 3.9 -4

vt 0.00195313 0.5
vt 0.0214844 0.5
vt 0.0292969 0.5
vt 0.0332031 0.5
vt 0.0371094 0.5
vt 0.0449219 0.5
vt 0.0683594 0.5
vt 0.0722656 0.5
vt 0.0761719 0.5
vt 0.0957031 0.5

vn 0 1 0
vn 0 -1 0
vn 1 0 0
vn 0 0 1
vn -1 0 0
vn 0 0 -1

usemtl palette
f 1/4/1 2/4/1 4/4/1
f 4/4/1 2/4/1 3/4/1
f 2/5/1 5/5/1 3/5/1
f 3/5/1 5/5/1 6/5/1
f 7/5/1 8/5/1 10/5/1
f 10/5/1 8/5/1 9/5/1
f 11/5/1 12/5/1 14/5/1
f 14/5/1 12/5/1 13/5/1
f 15/5/1 16/5/1 18/5/1
f 18/5/1 16/5/1 17/5/1
f 19/5/1 20/5/1 22/5/1
f 22/5/1 20/5/1 21/5/1
f 23/5/1 24/5/1 26/5/1
f 26/5/1 24/5/1 25/5/1
f 27/5/1 28/5/1 30/5/1
f 30/5/1 28/5/1 29/5/1
f 31/5/1 32/5/1 34/5/1
f 34/5/1 32/5/1 33/5/1
f 35/5/1 36/5/1 38/5/1
f 38/5/1 36/5/1 37/5/1
f 39/5/1 40/5/1 42/5/1
f 42/5/1 40/5/1 41/5/1
f 43/5/1 44/5/1 46/5/1
f 46/5/1 44/5/1 45/5/1
f 47/5/1 48/5/1 50/5/1
f 50/5/1 48/5/1 49/5/1
f 51/5/1 52/5/1 54/5/1
f 54/5/1 52/5/1 53/5/1
f 55/5/1 56/5/1 58/5/1
f 58/5/1 56/5/1 57/5/1
f 59/5/1 60/5/1 62/5/1
f 62/5/1 60/5/1 61/5/1
f 63/5/1 64/5/1 66/5/1
f 66/5/1 64/5/1 65/5/1
f 67/5/1 68/5/1 70/5/1
f 70/5/1 68/5/1 69/5/1
f 71/5/1 72/5/1 74/5/1
f 74/5/1 72/5/1 73/5/1
f 75/5/1 76/5/1 78/5/1
f 78/5/1 76/5/1 77/5/1
f 79/5/1 80/5/1 82/5/1
f 82/5/1 80/5/1 81/5/1
f 83/5/1 84/5/1 86/5/1
f 86/5/1 84/5/1 85/5/1
f 87/5/1 88/5/1 90/5/1
f 90/5/1 88/5/1 89/5/1
f 91/5/1 92/5/1 94/5/1
f 94/5/1 92/5/1 93/5/1
f 95/5/1 96/5/1 98/5/1
f 98/5/1 96/5/1 97/5/1
f 99/5/1 100/5/1 102/5/1
f 102/5/1 100/5/1 101/5/1
f 103/5/1 104/5/1 106/5/1
f 106/5/1 104/5/1 105/5/1
f 107/5/1 108/5/1 110/5/1
f 110/5/1 108/5/1 109/5/1
f 111/5/1 112/5/1 114/5/1
f 114/5/1 112/5/1 113/5/1
f 115/5/1 116/5/1 118/5/1
f 118/5/1 116/5/1 117/5/1
f 119/5/1 120/5/1 122/5/1
f 122/5/1 120/5/1 121/5/1
f 123/5/1 124/5/1 126/5/1
f 126/5/1 124/5/1 125/5/1
f 127/5/1 128/5/1 1/5/1
f 1/5/1 128/5/1 2/5/1
f 129/4/1 130/4/1 6/4/1
f 6/4/1 130/4/1 10/4/1
f 131/4/1 132/4/1 9/4/1
f 9/4/1 132/4/1 14/4/1
f 133/4/1 134/4/1 13/4/1
f 13/4/1 134/4/1 18/4/1
f 135/4/1 136/4/1 17/4/1
f 17/4/1 136/4/1 22/4/1
f 137/4/1 138/4/1 21/4/1
f 21/4/1 138/4/1 26/4/1
f 139/4/1 140/4/1 25/4/1
f 25/4/1 140/4/1 30/4/1
f 141/4/1 142/4/1 29/4/1
f 29/4/1 142/4/1 34/4/1
f 143/4/1 144/4/1 33/4/1
f 33/4/1 144/4/1 38/4/1
f 145/4/1 146/4/1 37/4/1
f 37/4/1 146/4/1 42/4/1
f 147/4/1 148/4/1 123/4/1
f 123/4/1 148/4/1 124/4/1
f 149/4/1 150/4/1 127/4/1
f 127/4/1 150/4/1 128/4/1
f 151/8/1 152/8/1 129/8/1
f 129/8/1 152/8/1 130/8/1
f 152/4/1 153/4/1 7/4/1
f 7/4/1 153/4/1 8/4/1
f 153/8/1 154/8/1 131/8/1
f 131/8/1 154/8/1 132/8/1
f 154/4/1 155/4/1 11/4/1
f 11/4/1 155/4/1 12/4/1
f 155/8/1 156/8/1 133/8/1
f 133/8/1 156/8/1 134/8/1
f 156/4/1 157/4/1 15/4/1
f 15/4/1 157/4/1 16/4/1
f 157/8/1 158/8/1 135/8/1
f 135/8/1 158/8/1 136/8/1
f 158/4/1 159/4/1 19/4/1
f 19/4/1 159/4/1 20/4/1
f 159/8/1 160/8/1 137/8/1
f 137/8/1 160/8/1 138/8/1
f 160/4/1 161/4/1 23/4/1
f 23/4/1 161/4/1 24/4/1
f 161/8/1 162/8/1 139/8/1
f 139/8/1 162/8/1 140/8/1
f 162/4/1 163/4/1 27/4/1
f 27/4/1 163/4/1 28/4/1
f 163/8/1 164/8/1 141/8/1
f 141/8/1 164/8/1 142/8/1
f 164/4/1 165/4/1 31/4/1
f 31/4/1 165/4/1 32/4/1
f 165/8/1 166/8/1 143/8/1
f 143/8/1 166/8/1 144/8/1
f 166/4/1 167/4/1 35/4/1
f 35/4/1 167/4/1 36/4/1
f 167/8/1 168/8/1 145/8/1
f 145/8/1 168/8/1 146/8/1
f 168/4/1 169/4/1 39/4/1
f 39/4/1 169/4/1 40/4/1
f 170/4/1 171/4/1 121/4/1
f 121/4/1 171/4/1 126/4/1
f 171/8/1 172/8/1 147/8/1
f 147/8/1 172/8/1 148/8/1
f 173/5/1 174/5/1 149/5/1
f 149/5/1 174/5/1 150/5/1
f 175/4/1 176/4/1 151/4/1
f 151/4/1 176/4/1 152/4/1
f 176/8/1 177/8/1 152/8/1
f 152/8/1 177/8/1 153/8/1
f 177/4/1 178/4/1 153/4/1
f 153/4/1 178/4/1 154/4/1
f 178/8/1 179/8/1 154/8/1
f 154/8/1 179/8/1 155/8/1
f 179/4/1 180/4/1 155/4/1
f 155/4/1 180/4/1 156/4/1
f 180/8/1 181/8/1 156/8/1
f 156/8/1 181/8/1 157/8/1
f 181/4/1 182/4/1 157/4/1
f 157/4/1 182/4/1 158/4/1
f 182/8/1 183/8/1 158/8/1
f 158/8/1 183/8/1 159/8/1
f 183/4/1 184/4/1 159/4/1
f 159/4/1 184/4/1 160/4/1
f 184/8/1 185/8/1 160/8/1
f 160/8/1 185/8/1 161/8/1
f 185/4/1 186/4/1 161/4/1
f 161/4/1 186/4/1 162/4/1
f 186/8/1 187/8/1 162/8/1
f 162/8/1 187/8/1 163/8/1
f 187/4/1 188/4/1 163/4/1
f 163/4/1 188/4/1 164/4/1
f 188/8/1 189/8/1 164/8/1
f 164/8/1 189/8/1 165/8/1
f 189/4/1 190/4/1 165/4/1
f 165/4/1 190/4/1 166/4/1
f 191/4/1 192/4/1 167/4/1
f 167/4/1 192/4/1 168/4/1
f 193/4/1 194/4/1 171/4/1
f 171/4/1 194/4/1 172/4/1
f 195/4/1 196/4/1 173/4/1
f 173/4/1 196/4/1 174/4/1
f 197/8/1 198/8/1 175/8/1
f 175/8/1 198/8/1 176/8/1
f 198/4/1 199/4/1 176/4/1
f 176/4/1 199/4/1 177/4/1
f 199/8/1 200/8/1 177/8/1
f 177/8/1 200/8/1 178/8/1
f 200/4/1 201/4/1 178/4/1
f 178/4/1 201/4/1 179/4/1
f 201/8/1 202/8/1 179/8/1
f 179/8/1 202/8/1 180/8/1
f 202/4/1 203/4/1 180/4/1
f 180/4/1 203/4/1 181/4/1
f 203/8/1 204/8/1 181/8/1
f 181/8/1 204/8/1 182/8/1
f 204/4/1 205/4/1 182/4/1
f 182/4/1 205/4/1 183/4/1
f 205/8/1 206/8/1 183/8/1
f 183/8/1 206/8/1 184/8/1
f 206/4/1 207/4/1 184/4/1
f 184/4/1 207/4/1 185/4/1
f 207/8/1 208/8/1 185/8/1
f 185/8/1 208/8/1 186/8/1
f 208/4/1 209/4/1 186/4/1
f 186/4/1 209/4/1 187/4/1
f 210/4/1 211/4/1 188/4/1
f 188/4/1 211/4/1 189/4/1
f 212/5/1 213/5/1 195/5/1
f 195/5/1 213/5/1 196/5/1
f 214/4/1 215/4/1 197/4/1
f 197/4/1 215/4/1 198/4/1
f 215/8/1 216/8/1 198/8/1
f 198/8/1 216/8/1 199/8/1
f 216/4/1 217/4/1 199/4/1
f 199/4/1 217/4/1 200/4/1
f 217/8/1 218/8/1 200/8/1
f 200/8/1 218/8/1 201/8/1
f 218/4/1 219/4/1 201/4/1
f 201/4/1 219/4/1 202/4/1
f 219/8/1 220/8/1 202/8/1
f 202/8/1 220/8/1 203/8/1
f 220/4/1 221/4/1 203/4/1
f 203/4/1 221/4/1 204/4/1
f 221/8/1 222/8/1 204/8/1
f 204/8/1 222/8/1 205/8/1
f 222/4/1 223/4/1 205/4/1
f 205/4/1 223/4/1 206/4/1
f 224/4/1 225/4/1 207/4/1
f 207/4/1 225/4/1 208/4/1
f 226/4/1 227/4/1 212/4/1
f 212/4/1 227/4/1 213/4/1
f 228/8/1 229/8/1 214/8/1
f 214/8/1 229/8/1 215/8/1
f 229/4/1 230/4/1 215/4/1
f 215/4/1 230/4/1 216/4/1
f 230/8/1 231/8/1 216/8/1
f 216/8/1 231/8/1 217/8/1
f 231/4/1 232/4/1 217/4/1
f 217/4/1 232/4/1 218/4/1
f 232/8/1 233/8/1 218/8/1
f 218/8/1 233/8/1 219/8/1
f 233/4/1 234/4/1 219/4/1
f 219/4/1 234/4/1 220/4/1
f 234/8/1 235/8/1 220/8/1
f 220/8/1 235/8/1 221/8/1
f 235/4/1 236/4/1 221/4/1
f 221/4/1 236/4/1 222/4/1
f 237/5/1 238/5/1 226/5/1
f 226/5/1 238/5/1 227/5/1
f 239/4/1 240/4/1 228/4/1
f 228/4/1 240/4/1 229/4/1
f 240/8/1 241/8/1 229/8/1
f 229/8/1 241/8/1 230/8/1
f 241/4/1 242/4/1 230/4/1
f 230/4/1 242/4/1 231/4/1
f 242/8/1 243/8/1 231/8/1
f 231/8/1 243/8/1 232/8/1
f 243/4/1 244/4/1 232/4/1
f 232/4/1 244/4/1 233/4/1
f 244/8/1 245/8/1 233/8/1
f 233/8/1 245/8/1 234/8/1
f 245/4/1 246/4/1 234/4/1
f 234/4/1 246/4/1 235/4/1
f 247/4/1 248/4/1 237/4/1
f 237/4/1 248/4/1 238/4/1
f 249/8/1 250/8/1 239/8/1
f 239/8/1 250/8/1 240/8/1
f 250/4/1 251/4/1 240/4/1
f 240/4/1 251/4/1 241/4/1
f 251/8/1 252/8/1 241/8/1
f 241/8/1 252/8/1 242/8/1
f 252/4/1 253/4/1 242/4/1
f 242/4/1 253/4/1 243/4/1
f 253/8/1 254/8/1 243/8/1
f 243/8/1 254/8/1 244/8/1
f 254/4/1 255/4/1 244/4/1
f 244/4/1 255/4/1 245/4/1
f 256/5/1 257/5/1 247/5/1
f 247/5/1 257/5/1 248/5/1
f 258/4/1 259/4/1 249/4/1
f 249/4/1 259/4/1 250/4/1
f 259/8/1 260/8/1 250/8/1
f 250/8/1 260/8/1 251/8/1
f 260/4/1 261/4/1 251/4/1
f 251/4/1 261/4/1 252/4/1
f 261/8/1 262/8/1 252/8/1
f 252/8/1 262/8/1 253/8/1
f 262/4/1 263/4/1 253/4/1
f 253/4/1 263/4/1 254/4/1
f 264/3/1 265/3/1 79/3/1
f 79/3/1 265/3/1 80/3/1
f 265/3/1 266/3/1 81/3/1
f 81/3/1 266/3/1 86/3/1
f 267/7/1 268/7/1 111/7/1
f 111/7/1 268/7/1 112/7/1
f 268/7/1 269/7/1 113/7/1
f 113/7/1 269/7/1 118/7/1
f 269/7/1 270/7/1 115/7/1
f 115/7/1 270/7/1 116/7/1
f 271/4/1 272/4/1 256/4/1
f 256/4/1 272/4/1 257/4/1
f 273/8/1 274/8/1 258/8/1
f 258/8/1 274/8/1 259/8/1
f 274/4/1 275/4/1 259/4/1
f 259/4/1 275/4/1 260/4/1
f 275/8/1 276/8/1 260/8/1
f 260/8/1 276/8/1 261/8/1
f 276/4/1 277/4/1 261/4/1
f 261/4/1 277/4/1 262/4/1
f 278/4/1 279/4/1 268/4/1
f 268/4/1 279/4/1 270/4/1
f 280/5/1 281/5/1 271/5/1
f 271/5/1 281/5/1 272/5/1
f 282/4/1 283/4/1 273/4/1
f 273/4/1 283/4/1 274/4/1
f 283/8/1 284/8/1 274/8/1
f 274/8/1 284/8/1 275/8/1
f 284/4/1 285/4/1 275/4/1
f 275/4/1 285/4/1 276/4/1
f 285/8/1 286/8/1 276/8/1
f 276/8/1 286/8/1 277/8/1
f 287/1/1 288/1/1 278/1/1
f 278/1/1 288/1/1 279/1/1
f 289/4/1 290/4/1 280/4/1
f 280/4/1 290/4/1 281/4/1
f 291/8/1 292/8/1 282/8/1
f 282/8/1 292/8/1 283/8/1
f 292/4/1 293/4/1 283/4/1
f 283/4/1 293/4/1 284/4/1
f 293/8/1 294/8/1 284/8/1
f 284/8/1 294/8/1 285/8/1
f 294/4/1 295/4/1 285/4/1
f 285/4/1 295/4/1 286/4/1
f 296/4/1 297/4/1 287/4/1
f 287/4/1 297/4/1 288/4/1
f 298/5/1 299/5/1 289/5/1
f 289/5/1 299/5/1 290/5/1
f 300/4/1 301/4/1 291/4/1
f 291/4/1 301/4/1 292/4/1
f 301/8/1 302/8/1 292/8/1
f 292/8/1 302/8/1 293/8/1
f 302/4/1 303/4/1 293/4/1
f 293/4/1 303/4/1 294/4/1
f 304/1/1 305/1/1 296/1/1
f 296/1/1 305/1/1 297/1/1
f 306/4/1 307/4/1 298/4/1
f 298/4/1 307/4/1 299/4/1
f 308/8/1 309/8/1 300/8/1
f 300/8/1 309/8/1 301/8/1
f 309/4/1 310/4/1 301/4/1
f 301/4/1 310/4/1 302/4/1
f 310/8/1 311/8/1 302/8/1
f 302/8/1 311/8/1 303/8/1
f 312/4/1 313/4/1 267/4/1
f 267/4/1 313/4/1 268/4/1
f 313/4/1 314/4/1 304/4/1
f 304/4/1 314/4/1 305/4/1
f 315/5/1 316/5/1 306/5/1
f 306/5/1 316/5/1 307/5/1
f 317/4/1 318/4/1 308/4/1
f 308/4/1 318/4/1 309/4/1
f 318/8/1 319/8/1 309/8/1
f 309/8/1 319/8/1 310/8/1
f 319/4/1 320/4/1 310/4/1
f 310/4/1 320/4/1 311/4/1
f 321/4/1 322/4/1 315/4/1
f 315/4/1 322/4/1 316/4/1
f 323/8/1 324/8/1 317/8/1
f 317/8/1 324/8/1 318/8/1
f 324/4/1 325/4/1 318/4/1
f 318/4/1 325/4/1 319/4/1
f 326/5/1 327/5/1 321/5/1
f 321/5/1 327/5/1 322/5/1
f 328/4/1 329/4/1 323/4/1
f 323/4/1 329/4/1 324/4/1
f 329/8/1 330/8/1 324/8/1
f 324/8/1 330/8/1 325/8/1
f 331/4/1 332/4/1 326/4/1
f 326/4/1 332/4/1 327/4/1
f 333/8/1 334/8/1 328/8/1
f 328/8/1 334/8/1 329/8/1
f 334/4/1 335/4/1 329/4/1
f 329/4/1 335/4/1 330/4/1
f 336/5/1 337/5/1 331/5/1
f 331/5/1 337/5/1 332/5/1
f 338/4/1 339/4/1 333/4/1
f 333/4/1 339/4/1 334/4/1
f 339/8/1 340/8/1 334/8/1
f 334/8/1 340/8/1 335/8/1
f 341/7/1 342/7/1 264/7/1
f 264/7/1 342/7/1 266/7/1
f 343/4/1 344/4/1 336/4/1
f 336/4/1 344/4/1 337/4/1
f 345/8/1 346/8/1 338/8/1
f 338/8/1 346/8/1 339/8/1
f 346/4/1 347/4/1 339/4/1
f 339/4/1 347/4/1 340/4/1
f 348/5/1 349/5/1 343/5/1
f 343/5/1 349/5/1 344/5/1
f 350/4/1 351/4/1 345/4/1
f 345/4/1 351/4/1 346/4/1
f 352/4/1 353/4/1 348/4/1
f 348/4/1 353/4/1 349/4/1
f 354/8/1 355/8/1 350/8/1
f 350/8/1 355/8/1 351/8/1
f 356/5/1 357/5/1 352/5/1
f 352/5/1 357/5/1 353/5/1
f 358/4/1 359/4/1 354/4/1
f 354/4/1 359/4/1 355/4/1
f 360/4/1 361/4/1 356/4/1
f 356/4/1 361/4/1 357/4/1
f 362/8/1 363/8/1 358/8/1
f 358/8/1 363/8/1 359/8/1
f 364/5/1 365/5/1 360/5/1
f 360/5/1 365/5/1 361/5/1
f 366/4/1 367/4/1 362/4/1
f 362/4/1 367/4/1 363/4/1
f 368/4/1 369/4/1 364/4/1
f 364/4/1 369/4/1 365/4/1
f 370/8/1 371/8/1 366/8/1
f 366/8/1 371/8/1 367/8/1
f 372/5/1 373/5/1 368/5/1
f 368/5/1 373/5/1 369/5/1
f 374/4/1 375/4/1 370/4/1
f 370/4/1 375/4/1 371/4/1
f 376/4/1 377/4/1 372/4/1
f 372/4/1 377/4/1 373/4/1
f 378/8/1 379/8/1 374/8/1
f 374/8/1 379/8/1 375/8/1
f 380/5/1 381/5/1 376/5/1
f 376/5/1 381/5/1 377/5/1
f 382/4/1 383/4/1 378/4/1
f 378/4/1 383/4/1 379/4/1
f 384/3/1 385/3/1 341/3/1
f 341/3/1 385/3/1 342/3/1
f 386/4/1 387/4/1 380/4/1
f 380/4/1 387/4/1 381/4/1
f 388/8/1 389/8/1 382/8/1
f 382/8/1 389/8/1 383/8/1
f 390/5/1 391/5/1 386/5/1
f 386/5/1 391/5/1 387/5/1
f 392/4/1 393/4/1 388/4/1
f 388/4/1 393/4/1 389/4/1
f 394/7/1 395/7/1 384/7/1
f 384/7/1 395/7/1 385/7/1
f 396/4/1 397/4/1 390/4/1
f 390/4/1 397/4/1 391/4/1
f 398/8/1 399/8/1 392/8/1
f 392/8/1 399/8/1 393/8/1
f 400/7/1 401/7/1 77/7/1
f 77/7/1 401/7/1 82/7/1
f 401/5/1 402/5/1 394/5/1
f 394/5/1 402/5/1 395/5/1
f 402/7/1 403/7/1 83/7/1
f 83/7/1 403/7/1 84/7/1
f 404/5/1 405/5/1 396/5/1
f 396/5/1 405/5/1 397/5/1
f 406/4/1 407/4/1 398/4/1
f 398/4/1 407/4/1 399/4/1
f 408/7/1 409/7/1 75/7/1
f 75/7/1 409/7/1 76/7/1
f 409/5/1 410/5/1 400/5/1
f 400/5/1 410/5/1 401/5/1
f 411/5/1 412/5/1 402/5/1
f 402/5/1 412/5/1 403/5/1
f 412/7/1 413/7/1 85/7/1
f 85/7/1 413/7/1 90/7/1
f 414/4/1 415/4/1 404/4/1
f 404/4/1 415/4/1 405/4/1
f 416/8/1 417/8/1 406/8/1
f 406/8/1 417/8/1 407/8/1
f 418/5/1 419/5/1 414/5/1
f 414/5/1 419/5/1 415/5/1
f 420/4/1 421/4/1 416/4/1
f 416/4/1 421/4/1 417/4/1
f 422/5/1 423/5/1 408/5/1
f 408/5/1 423/5/1 409/5/1
f 423/4/1 424/4/1 409/4/1
f 409/4/1 424/4/1 410/4/1
f 425/4/1 426/4/1 411/4/1
f 411/4/1 426/4/1 412/4/1
f 426/5/1 427/5/1 412/5/1
f 412/5/1 427/5/1 413/5/1
f 428/4/1 429/4/1 418/4/1
f 418/4/1 429/4/1 419/4/1
f 430/5/1 431/5/1 423/5/1
f 423/5/1 431/5/1 424/5/1
f 431/4/1 432/4/1 401/4/1
f 401/4/1 432/4/1 402/4/1
f 432/5/1 433/5/1 425/5/1
f 425/5/1 433/5/1 426/5/1
f 434/5/1 435/5/1 428/5/1
f 428/5/1 435/5/1 429/5/1
f 436/8/1 437/8/1 420/8/1
f 420/8/1 437/8/1 421/8/1
f 438/5/1 439/5/1 431/5/1
f 431/5/1 439/5/1 432/5/1
f 440/4/1 441/4/1 434/4/1
f 434/4/1 441/4/1 435/4/1
f 442/4/1 443/4/1 436/4/1
f 436/4/1 443/4/1 437/4/1
f 444/5/1 445/5/1 440/5/1
f 440/5/1 445/5/1 441/5/1
f 446/7/1 447/7/1 438/7/1
f 438/7/1 447/7/1 439/7/1
f 448/4/1 449/4/1 444/4/1
f 444/4/1 449/4/1 445/4/1
f 450/8/1 451/8/1 442/8/1
f 442/8/1 451/8/1 443/8/1
f 452/5/1 453/5/1 448/5/1
f 448/5/1 453/5/1 449/5/1
f 454/4/1 455/4/1 450/4/1
f 450/4/1 455/4/1 451/4/1
f 456/4/1 457/4/1 452/4/1
f 452/4/1 457/4/1 453/4/1
f 458/5/1 459/5/1 456/5/1
f 456/5/1 459/5/1 457/5/1
f 460/8/1 461/8/1 454/8/1
f 454/8/1 461/8/1 455/8/1
f 462/4/1 463/4/1 458/4/1
f 458/4/1 463/4/1 459/4/1
f 464/4/1 465/4/1 460/4/1
f 460/4/1 465/4/1 461/4/1
f 466/5/1 467/5/1 462/5/1
f 462/5/1 467/5/1 463/5/1
f 468/8/1 469/8/1 464/8/1
f 464/8/1 469/8/1 465/8/1
f 470/4/1 471/4/1 466/4/1
f 466/4/1 471/4/1 467/4/1
f 472/4/1 473/4/1 468/4/1
f 468/4/1 473/4/1 469/4/1
f 474/5/1 475/5/1 470/5/1
f 470/5/1 475/5/1 471/5/1
f 476/8/1 477/8/1 472/8/1
f 472/8/1 477/8/1 473/8/1
f 478/4/1 479/4/1 474/4/1
f 474/4/1 479/4/1 475/4/1
f 480/4/1 481/4/1 476/4/1
f 476/4/1 481/4/1 477/4/1
f 482/5/1 483/5/1 478/5/1
f 478/5/1 483/5/1 479/5/1
f 484/8/1 485/8/1 480/8/1
f 480/8/1 485/8/1 481/8/1
f 486/3/1 487/3/1 446/3/1
f 446/3/1 487/3/1 447/3/1
f 488/4/1 489/4/1 482/4/1
f 482/4/1 489/4/1 483/4/1
f 490/4/1 491/4/1 484/4/1
f 484/4/1 491/4/1 485/4/1
f 492/5/1 493/5/1 488/5/1
f 488/5/1 493/5/1 489/5/1
f 494/8/1 495/8/1 490/8/1
f 490/8/1 495/8/1 491/8/1
f 496/4/1 497/4/1 492/4/1
f 492/4/1 497/4/1 493/4/1
f 498/4/1 499/4/1 494/4/1
f 494/4/1 499/4/1 495/4/1
f 500/5/1 501/5/1 496/5/1
f 496/5/1 501/5/1 497/5/1
f 502/8/1 503/8/1 498/8/1
f 498/8/1 503/8/1 499/8/1
f 504/4/1 505/4/1 500/4/1
f 500/4/1 505/4/1 501/4/1
f 506/4/1 507/4/1 502/4/1
f 502/4/1 507/4/1 503/4/1
f 508/5/1 509/5/1 504/5/1
f 504/5/1 509/5/1 505/5/1
f 510/8/1 511/8/1 506/8/1
f 506/8/1 511/8/1 507/8/1
f 512/4/1 513/4/1 508/4/1
f 508/4/1 513/4/1 509/4/1
f 514/4/1 515/4/1 510/4/1
f 510/4/1 515/4/1 511/4/1
f 516/5/1 517/5/1 512/5/1
f 512/5/1 517/5/1 513/5/1
f 518/8/1 519/8/1 514/8/1
f 514/8/1 519/8/1 515/8/1
f 520/4/1 521/4/1 516/4/1
f 516/4/1 521/4/1 517/4/1
f 522/4/1 523/4/1 518/4/1
f 518/4/1 523/4/1 519/4/1
f 523/8/1 524/8/1 346/8/1
f 346/8/1 524/8/1 347/8/1
f 525/5/1 526/5/1 520/5/1
f 520/5/1 526/5/1 521/5/1
f 527/8/1 528/8/1 522/8/1
f 522/8/1 528/8/1 523/8/1
f 528/4/1 529/4/1 523/4/1
f 523/4/1 529/4/1 524/4/1
f 530/7/1 531/7/1 486/7/1
f 486/7/1 531/7/1 487/7/1
f 532/4/1 533/4/1 525/4/1
f 525/4/1 533/4/1 526/4/1
f 534/4/1 535/4/1 527/4/1
f 527/4/1 535/4/1 528/4/1
f 535/8/1 536/8/1 528/8/1
f 528/8/1 536/8/1 529/8/1
f 537/5/1 538/5/1 532/5/1
f 532/5/1 538/5/1 533/5/1
f 538/4/1 539/4/1 2/4/1
f 2/4/1 539/4/1 5/4/1
f 539/8/1 540/8/1 534/8/1
f 534/8/1 540/8/1 535/8/1
f 540/4/1 541/4/1 535/4/1
f 535/4/1 541/4/1 536/4/1
f 541/8/1 542/8/1 319/8/1
f 319/8/1 542/8/1 320/8/1
f 542/8/1 543/8/1 294/8/1
f 294/8/1 543/8/1 295/8/1
f 543/8/1 544/8/1 262/8/1
f 262/8/1 544/8/1 263/8/1
f 544/8/1 545/8/1 254/8/1
f 254/8/1 545/8/1 255/8/1
f 545/8/1 546/8/1 245/8/1
f 245/8/1 546/8/1 246/8/1
f 546/8/1 547/8/1 235/8/1
f 235/8/1 547/8/1 236/8/1
f 547/8/1 548/8/1 222/8/1
f 222/8/1 548/8/1 223/8/1
f 548/8/1 549/8/1 206/8/1
f 206/8/1 549/8/1 207/8/1
f 549/8/1 550/8/1 224/8/1
f 224/8/1 550/8/1 225/8/1
f 550/8/1 551/8/1 208/8/1
f 208/8/1 551/8/1 209/8/1
f 551/8/1 552/8/1 187/8/1
f 187/8/1 552/8/1 188/8/1
f 552/8/1 553/8/1 210/8/1
f 210/8/1 553/8/1 211/8/1
f 553/8/1 554/8/1 189/8/1
f 189/8/1 554/8/1 190/8/1
f 554/8/1 555/8/1 166/8/1
f 166/8/1 555/8/1 167/8/1
f 555/8/1 556/8/1 191/8/1
f 191/8/1 556/8/1 192/8/1
f 556/8/1 557/8/1 168/8/1
f 168/8/1 557/8/1 169/8/1
f 557/3/1 558/3/1 41/3/1
f 41/3/1 558/3/1 46/3/1
f 558/3/1 559/3/1 43/3/1
f 43/3/1 559/3/1 44/3/1
f 559/7/1 560/7/1 45/7/1
f 45/7/1 560/7/1 50/7/1
f 560/7/1 561/7/1 47/7/1
f 47/7/1 561/7/1 48/7/1
f 561/7/1 562/7/1 49/7/1
f 49/7/1 562/7/1 54/7/1
f 562/7/1 563/7/1 51/7/1
f 51/7/1 563/7/1 52/7/1
f 563/7/1 564/7/1 53/7/1
f 53/7/1 564/7/1 58/7/1
f 564/7/1 565/7/1 55/7/1
f 55/7/1 565/7/1 56/7/1
f 565/7/1 566/7/1 57/7/1
f 57/7/1 566/7/1 62/7/1
f 566/7/1 567/7/1 59/7/1
f 59/7/1 567/7/1 60/7/1
f 567/7/1 568/7/1 61/7/1
f 61/7/1 568/7/1 66/7/1
f 568/7/1 569/7/1 63/7/1
f 63/7/1 569/7/1 64/7/1
f 569/7/1 570/7/1 65/7/1
f 65/7/1 570/7/1 70/7/1
f 570/7/1 571/7/1 67/7/1
f 67/7/1 571/7/1 68/7/1
f 571/7/1 572/7/1 69/7/1
f 69/7/1 572/7/1 74/7/1
f 572/7/1 573/7/1 71/7/1
f 71/7/1 573/7/1 72/7/1
f 573/7/1 574/7/1 73/7/1
f 73/7/1 574/7/1 78/7/1
f 574/7/1 575/7/1 422/7/1
f 422/7/1 575/7/1 423/7/1
f 575/7/1 576/7/1 430/7/1
f 430/7/1 576/7/1 431/7/1
f 576/3/1 577/3/1 530/3/1
f 530/3/1 577/3/1 531/3/1
f 577/7/1 578/7/1 432/7/1
f 432/7/1 578/7/1 433/7/1
f 578/7/1 579/7/1 426/7/1
f 426/7/1 579/7/1 427/7/1
f 579/7/1 580/7/1 87/7/1
f 87/7/1 580/7/1 88/7/1
f 580/7/1 581/7/1 89/7/1
f 89/7/1 581/7/1 94/7/1
f 581/7/1 582/7/1 91/7/1
f 91/7/1 582/7/1 92/7/1
f 582/7/1 583/7/1 93/7/1
f 93/7/1 583/7/1 98/7/1
f 583/7/1 584/7/1 95/7/1
f 95/7/1 584/7/1 96/7/1
f 584/7/1 585/7/1 97/7/1
f 97/7/1 585/7/1 102/7/1
f 585/7/1 586/7/1 99/7/1
f 99/7/1 586/7/1 100/7/1
f 586/7/1 587/7/1 101/7/1
f 101/7/1 587/7/1 106/7/1
f 587/7/1 588/7/1 103/7/1
f 103/7/1 588/7/1 104/7/1
f 588/7/1 589/7/1 105/7/1
f 105/7/1 589/7/1 110/7/1
f 589/7/1 590/7/1 107/7/1
f 107/7/1 590/7/1 108/7/1
f 590/7/1 591/7/1 109/7/1
f 109/7/1 591/7/1 114/7/1
f 591/7/1 592/7/1 312/7/1
f 312/7/1 592/7/1 314/7/1
f 592/3/1 593/3/1 117/3/1
f 117/3/1 593/3/1 122/3/1
f 593/3/1 594/3/1 119/3/1
f 119/3/1 594/3/1 120/3/1
f 594/8/1 595/8/1 170/8/1
f 170/8/1 595/8/1 171/8/1
f 595/8/1 596/8/1 193/8/1
f 193/8/1 596/8/1 194/8/1
f 597/2/2 598/2/2 600/2/2
f 600/2/2 598/2/2 599/2/2
f 601/2/3 598/2/3 602/2/3
f 602/2/3 598/2/3 597/2/3
f 603/9/3 601/9/3 604/9/3
f 604/9/3 601/9/3 602/9/3
f 605/2/3 603/2/3 606/2/3
f 606/2/3 603/2/3 604/2/3
f 607/9/3 605/9/3 608/9/3
f 608/9/3 605/9/3 606/9/3
f 609/2/3 607/2/3 610/2/3
f 610/2/3 607/2/3 608/2/3
f 611/6/3 609/6/3 612/6/3
f 612/6/3 609/6/3 610/6/3
f 613/2/3 611/2/3 614/2/3
f 614/2/3 611/2/3 612/2/3
f 615/6/3 613/6/3 616/6/3
f 616/6/3 613/6/3 614/6/3
f 617/2/3 615/2/3 618/2/3
f 618/2/3 615/2/3 616/2/3
f 619/10/3 617/10/3 620/10/3
f 620/10/3 617/10/3 618/10/3
f 4/4/3 619/4/3 1/4/3
f 1/4/3 619/4/3 621/4/3
f 1/5/3 621/5/3 127/5/3
f 127/5/3 621/5/3 622/5/3
f 127/4/3 622/4/3 149/4/3
f 149/4/3 622/4/3 623/4/3
f 149/5/3 623/5/3 173/5/3
f 173/5/3 623/5/3 624/5/3
f 173/4/3 624/4/3 195/4/3
f 195/4/3 624/4/3 625/4/3
f 195/5/3 625/5/3 212/5/3
f 212/5/3 625/5/3 626/5/3
f 212/4/3 626/4/3 226/4/3
f 226/4/3 626/4/3 627/4/3
f 226/5/3 627/5/3 237/5/3
f 237/5/3 627/5/3 628/5/3
f 237/4/3 628/4/3 247/4/3
f 247/4/3 628/4/3 629/4/3
f 247/5/3 629/5/3 256/5/3
f 256/5/3 629/5/3 630/5/3
f 256/4/3 630/4/3 271/4/3
f 271/4/3 630/4/3 631/4/3
f 271/5/3 631/5/3 280/5/3
f 280/5/3 631/5/3 632/5/3
f 280/4/3 632/4/3 289/4/3
f 289/4/3 632/4/3 633/4/3
f 289/5/3 633/5/3 298/5/3
f 298/5/3 633/5/3 634/5/3
f 298/4/3 634/4/3 306/4/3
f 306/4/3 634/4/3 635/4/3
f 306/5/3 635/5/3 315/5/3
f 315/5/3 635/5/3 636/5/3
f 315/4/3 636/4/3 321/4/3
f 321/4/3 636/4/3 637/4/3
f 321/5/3 637/5/3 326/5/3
f 326/5/3 637/5/3 638/5/3
f 326/4/3 638/4/3 331/4/3
f 331/4/3 638/4/3 639/4/3
f 331/5/3 639/5/3 336/5/3
f 336/5/3 639/5/3 640/5/3
f 336/4/3 640/4/3 343/4/3
f 343/4/3 640/4/3 641/4/3
f 343/5/3 641/5/3 348/5/3
f 348/5/3 641/5/3 642/5/3
f 348/4/3 642/4/3 352/4/3
f 352/4/3 642/4/3 643/4/3
f 352/5/3 643/5/3 356/5/3
f 356/5/3 643/5/3 644/5/3
f 356/4/3 644/4/3 360/4/3
f 360/4/3 644/4/3 645/4/3
f 360/5/3 645/5/3 364/5/3
f 364/5/3 645/5/3 646/5/3
f 364/4/3 646/4/3 368/4/3
f 368/4/3 646/4/3 647/4/3
f 368/5/3 647/5/3 372/5/3
f 372/5/3 647/5/3 648/5/3
f 372/4/3 648/4/3 376/4/3
f 376/4/3 648/4/3 649/4/3
f 376/5/3 649/5/3 380/5/3
f 380/5/3 649/5/3 650/5/3
f 380/4/3 650/4/3 386/4/3
f 386/4/3 650/4/3 651/4/3
f 386/5/3 651/5/3 390/5/3
f 390/5/3 651/5/3 652/5/3
f 390/4/3 652/4/3 396/4/3
f 396/4/3 652/4/3 653/4/3
f 396/5/3 653/5/3 404/5/3
f 404/5/3 653/5/3 654/5/3
f 404/4/3 654/4/3 414/4/3
f 414/4/3 654/4/3 655/4/3
f 414/5/3 655/5/3 418/5/3
f 418/5/3 655/5/3 656/5/3
f 418/4/3 656/4/3 428/4/3
f 428/4/3 656/4/3 657/4/3
f 428/5/3 657/5/3 434/5/3
f 434/5/3 657/5/3 658/5/3
f 434/4/3 658/4/3 440/4/3
f 440/4/3 658/4/3 659/4/3
f 440/5/3 659/5/3 444/5/3
f 444/5/3 659/5/3 660/5/3
f 444/4/3 660/4/3 448/4/3
f 448/4/3 660/4/3 661/4/3
f 448/5/3 661/5/3 452/5/3
f 452/5/3 661/5/3 662/5/3
f 452/4/3 662/4/3 456/4/3
f 456/4/3 662/4/3 663/4/3
f 456/5/3 663/5/3 458/5/3
f 458/5/3 663/5/3 664/5/3
f 458/4/3 664/4/3 462/4/3
f 462/4/3 664/4/3 665/4/3
f 462/5/3 665/5/3 466/5/3
f 466/5/3 665/5/3 666/5/3
f 466/4/3 666/4/3 470/4/3
f 470/4/3 666/4/3 667/4/3
f 470/5/3 667/5/3 474/5/3
f 474/5/3 667/5/3 668/5/3
f 474/4/3 668/4/3 478/4/3
f 478/4/3 668/4/3 669/4/3
f 478/5/3 669/5/3 482/5/3
f 482/5/3 669/5/3 670/5/3
f 482/4/3 670/4/3 488/4/3
f 488/4/3 670/4/3 671/4/3
f 488/5/3 671/5/3 492/5/3
f 492/5/3 671/5/3 672/5/3
f 492/4/3 672/4/3 496/4/3
f 496/4/3 672/4/3 673/4/3
f 496/5/3 673/5/3 500/5/3
f 500/5/3 673/5/3 674/5/3
f 500/4/3 674/4/3 504/4/3
f 504/4/3 674/4/3 675/4/3
f 504/5/3 675/5/3 508/5/3
f 508/5/3 675/5/3 676/5/3
f 508/4/3 676/4/3 512/4/3
f 512/4/3 676/4/3 677/4/3
f 512/5/3 677/5/3 516/5/3
f 516/5/3 677/5/3 678/5/3
f 516/4/3 678/4/3 520/4/3
f 520/4/3 678/4/3 679/4/3
f 520/5/3 679/5/3 525/5/3
f 525/5/3 679/5/3 680/5/3
f 525/4/3 680/4/3 532/4/3
f 532/4/3 680/4/3 681/4/3
f 532/5/3 681/5/3 537/5/3
f 537/5/3 681/5/3 620/5/3
f 682/4/4 619/4/4 3/4/4
f 3/4/4 619/4/4 4/4/4
f 683/5/4 682/5/4 6/5/4
f 6/5/4 682/5/4 3/5/4
f 684/4/4 683/4/4 10/4/4
f 10/4/4 683/4/4 6/4/4
f 685/5/4 684/5/4 9/5/4
f 9/5/4 684/5/4 10/5/4
f 686/4/4 685/4/4 14/4/4
f 14/4/4 685/4/4 9/4/4
f 687/5/4 686/5/4 13/5/4
f 13/5/4 686/5/4 14/5/4
f 688/4/4 687/4/4 18/4/4
f 18/4/4 687/4/4 13/4/4
f 689/5/4 688/5/4 17/5/4
f 17/5/4 688/5/4 18/5/4
f 690/4/4 689/4/4 22/4/4
f 22/4/4 689/4/4 17/4/4
f 691/5/4 690/5/4 21/5/4
f 21/5/4 690/5/4 22/5/4
f 692/4/4 691/4/4 26/4/4
f 26/4/4 691/4/4 21/4/4
f 693/5/4 692/5/4 25/5/4
f 25/5/4 692/5/4 26/5/4
f 694/4/4 693/4/4 30/4/4
f 30/4/4 693/4/4 25/4/4
f 695/5/4 694/5/4 29/5/4
f 29/5/4 694/5/4 30/5/4
f 696/4/4 695/4/4 34/4/4
f 34/4/4 695/4/4 29/4/4
f 697/5/4 696/5/4 33/5/4
f 33/5/4 696/5/4 34/5/4
f 698/4/4 697/4/4 38/4/4
f 38/4/4 697/4/4 33/4/4
f 699/5/4 698/5/4 37/5/4
f 37/5/4 698/5/4 38/5/4
f 700/4/4 699/4/4 42/4/4
f 42/4/4 699/4/4 37/4/4
f 701/5/4 700/5/4 41/5/4
f 41/5/4 700/5/4 42/5/4
f 702/3/4 701/3/4 46/3/4
f 46/3/4 701/3/4 41/3/4
f 703/5/4 702/5/4 45/5/4
f 45/5/4 702/5/4 46/5/4
f 704/7/4 703/7/4 50/7/4
f 50/7/4 703/7/4 45/7/4
f 705/5/4 704/5/4 49/5/4
f 49/5/4 704/5/4 50/5/4
f 706/7/4 705/7/4 54/7/4
f 54/7/4 705/7/4 49/7/4
f 707/5/4 706/5/4 53/5/4
f 53/5/4 706/5/4 54/5/4
f 708/7/4 707/7/4 58/7/4
f 58/7/4 707/7/4 53/7/4
f 709/5/4 708/5/4 57/5/4
f 57/5/4 708/5/4 58/5/4
f 710/7/4 709/7/4 62/7/4
f 62/7/4 709/7/4 57/7/4
f 711/5/4 710/5/4 61/5/4
f 61/5/4 710/5/4 62/5/4
f 712/7/4 711/7/4 66/7/4
f 66/7/4 711/7/4 61/7/4
f 713/5/4 712/5/4 65/5/4
f 65/5/4 712/5/4 66/5/4
f 714/7/4 713/7/4 70/7/4
f 70/7/4 713/7/4 65/7/4
f 715/5/4 714/5/4 69/5/4
f 69/5/4 714/5/4 70/5/4
f 716/7/4 715/7/4 74/7/4
f 74/7/4 715/7/4 69/7/4
f 717/5/4 716/5/4 73/5/4
f 73/5/4 716/5/4 74/5/4
f 718/7/4 717/7/4 78/7/4
f 78/7/4 717/7/4 73/7/4
f 719/5/4 718/5/4 77/5/4
f 77/5/4 718/5/4 78/5/4
f 720/7/4 719/7/4 82/7/4
f 82/7/4 719/7/4 77/7/4
f 721/5/4 720/5/4 81/5/4
f 81/5/4 720/5/4 82/5/4
f 722/3/4 721/3/4 86/3/4
f 86/3/4 721/3/4 81/3/4
f 723/5/4 722/5/4 85/5/4
f 85/5/4 722/5/4 86/5/4
f 724/7/4 723/7/4 90/7/4
f 90/7/4 723/7/4 85/7/4
f 725/5/4 724/5/4 89/5/4
f 89/5/4 724/5/4 90/5/4
f 726/7/4 725/7/4 94/7/4
f 94/7/4 725/7/4 89/7/4
f 727/5/4 726/5/4 93/5/4
f 93/5/4 726/5/4 94/5/4
f 728/7/4 727/7/4 98/7/4
f 98/7/4 727/7/4 93/7/4
f 729/5/4 728/5/4 97/5/4
f 97/5/4 728/5/4 98/5/4
f 730/7/4 729/7/4 102/7/4
f 102/7/4 729/7/4 97/7/4
f 731/5/4 730/5/4 101/5/4
f 101/5/4 730/5/4 102/5/4
f 732/7/4 731/7/4 106/7/4
f 106/7/4 731/7/4 101/7/4
f 733/5/4 732/5/4 105/5/4
f 105/5/4 732/5/4 106/5/4
f 734/7/4 733/7/4 110/7/4
f 110/7/4 733/7/4 105/7/4
f 735/5/4 734/5/4 109/5/4
f 109/5/4 734/5/4 110/5/4
f 736/7/4 735/7/4 114/7/4
f 114/7/4 735/7/4 109/7/4
f 737/5/4 736/5/4 113/5/4
f 113/5/4 736/5/4 114/5/4
f 738/7/4 737/7/4 118/7/4
f 118/7/4 737/7/4 113/7/4
f 739/5/4 738/5/4 117/5/4
f 117/5/4 738/5/4 118/5/4
f 740/3/4 739/3/4 122/3/4
f 122/3/4 739/3/4 117/3/4
f 741/5/4 740/5/4 121/5/4
f 121/5/4 740/5/4 122/5/4
f 742/4/4 741/4/4 126/4/4
f 126/4/4 741/4/4 121/4/4
f 599/2/4 598/2/4 743/2/4
f 743/2/4 598/2/4 601/2/4
f 743/9/4 601/9/4 744/9/4
f 744/9/4 601/9/4 603/9/4
f 744/2/4 603/2/4 745/2/4
f 745/2/4 603/2/4 605/2/4
f 745/9/4 605/9/4 746/9/4
f 746/9/4 605/9/4 607/9/4
f 746/2/4 607/2/4 747/2/4
f 747/2/4 607/2/4 609/2/4
f 747/6/4 609/6/4 748/6/4
f 748/6/4 609/6/4 611/6/4
f 748/2/4 611/2/4 749/2/4
f 749/2/4 611/2/4 613/2/4
f 749/6/4 613/6/4 750/6/4
f 750/6/4 613/6/4 615/6/4
f 750/2/4 615/2/4 751/2/4
f 751/2/4 615/2/4 617/2/4
f 751/10/4 617/10/4 752/10/4
f 752/10/4 617/10/4 619/10/4
f 752/5/4 742/5/4 125/5/4
f 125/5/4 742/5/4 126/5/4
f 753/5/1 754/5/1 756/5/1
f 756/5/1 754/5/1 755/5/1
f 757/5/1 758/5/1 760/5/1
f 760/5/1 758/5/1 759/5/1
f 761/5/1 762/5/1 764/5/1
f 764/5/1 762/5/1 763/5/1
f 765/5/1 766/5/1 768/5/1
f 768/5/1 766/5/1 767/5/1
f 769/5/1 770/5/1 772/5/1
f 772/5/1 770/5/1 771/5/1
f 773/5/1 774/5/1 776/5/1
f 776/5/1 774/5/1 775/5/1
f 777/5/1 778/5/1 780/5/1
f 780/5/1 778/5/1 779/5/1
f 781/5/1 782/5/1 784/5/1
f 784/5/1 782/5/1 783/5/1
f 785/5/1 786/5/1 788/5/1
f 788/5/1 786/5/1 787/5/1
f 789/4/1 790/4/1 753/4/1
f 753/4/1 790/4/1 754/4/1
f 791/4/1 792/4/1 757/4/1
f 757/4/1 792/4/1 758/4/1
f 793/4/1 794/4/1 761/4/1
f 761/4/1 794/4/1 762/4/1
f 795/4/1 796/4/1 765/4/1
f 765/4/1 796/4/1 766/4/1
f 797/4/1 798/4/1 769/4/1
f 769/4/1 798/4/1 770/4/1
f 799/4/1 800/4/1 773/4/1
f 773/4/1 800/4/1 774/4/1
f 801/4/1 802/4/1 777/4/1
f 777/4/1 802/4/1 778/4/1
f 803/4/1 804/4/1 781/4/1
f 781/4/1 804/4/1 782/4/1
f 805/4/1 806/4/1 785/4/1
f 785/4/1 806/4/1 786/4/1
f 172/4/1 807/4/1 125/4/1
f 125/4/1 807/4/1 756/4/1
f 807/8/1 808/8/1 789/8/1
f 789/8/1 808/8/1 790/8/1
f 808/4/1 809/4/1 755/4/1
f 755/4/1 809/4/1 760/4/1
f 809/8/1 810/8/1 791/8/1
f 791/8/1 810/8/1 792/8/1
f 810/4/1 811/4/1 759/4/1
f 759/4/1 811/4/1 764/4/1
f 811/8/1 812/8/1 793/8/1
f 793/8/1 812/8/1 794/8/1
f 812/4/1 813/4/1 763/4/1
f 763/4/1 813/4/1 768/4/1
f 813/8/1 814/8/1 795/8/1
f 795/8/1 814/8/1 796/8/1
f 814/4/1 815/4/1 767/4/1
f 767/4/1 815/4/1 772/4/1
f 815/8/1 816/8/1 797/8/1
f 797/8/1 816/8/1 798/8/1
f 816/4/1 817/4/1 771/4/1
f 771/4/1 817/4/1 776/4/1
f 817/8/1 818/8/1 799/8/1
f 799/8/1 818/8/1 800/8/1
f 818/4/1 819/4/1 775/4/1
f 775/4/1 819/4/1 780/4/1
f 819/8/1 820/8/1 801/8/1
f 801/8/1 820/8/1 802/8/1
f 820/4/1 821/4/1 779/4/1
f 779/4/1 821/4/1 784/4/1
f 821/8/1 822/8/1 803/8/1
f 803/8/1 822/8/1 804/8/1
f 823/5/1 824/5/1 805/5/1
f 805/5/1 824/5/1 806/5/1
f 825/4/1 826/4/1 807/4/1
f 807/4/1 826/4/1 808/4/1
f 826/8/1 827/8/1 808/8/1
f 808/8/1 827/8/1 809/8/1
f 827/4/1 828/4/1 809/4/1
f 809/4/1 828/4/1 810/4/1
f 828/8/1 829/8/1 810/8/1
f 810/8/1 829/8/1 811/8/1
f 829/4/1 830/4/1 811/4/1
f 811/4/1 830/4/1 812/4/1
f 830/8/1 831/8/1 812/8/1
f 812/8/1 831/8/1 813/8/1
f 831/4/1 832/4/1 813/4/1
f 813/4/1 832/4/1 814/4/1
f 832/8/1 833/8/1 814/8/1
f 814/8/1 833/8/1 815/8/1
f 833/4/1 834/4/1 815/4/1
f 815/4/1 834/4/1 816/4/1
f 834/8/1 835/8/1 816/8/1
f 816/8/1 835/8/1 817/8/1
f 835/4/1 836/4/1 817/4/1
f 817/4/1 836/4/1 818/4/1
f 836/8/1 837/8/1 818/8/1
f 818/8/1 837/8/1 819/8/1
f 837/4/1 838/4/1 819/4/1
f 819/4/1 838/4/1 820/4/1
f 838/8/1 839/8/1 820/8/1
f 820/8/1 839/8/1 821/8/1
f 839/4/1 840/4/1 821/4/1
f 821/4/1 840/4/1 822/4/1
f 841/4/1 842/4/1 823/4/1
f 823/4/1 842/4/1 824/4/1
f 843/4/1 844/4/1 826/4/1
f 826/4/1 844/4/1 827/4/1
f 845/4/1 846/4/1 828/4/1
f 828/4/1 846/4/1 829/4/1
f 846/8/1 847/8/1 829/8/1
f 829/8/1 847/8/1 830/8/1
f 847/4/1 848/4/1 830/4/1
f 830/4/1 848/4/1 831/4/1
f 848/8/1 849/8/1 831/8/1
f 831/8/1 849/8/1 832/8/1
f 849/4/1 850/4/1 832/4/1
f 832/4/1 850/4/1 833/4/1
f 850/8/1 851/8/1 833/8/1
f 833/8/1 851/8/1 834/8/1
f 851/4/1 852/4/1 834/4/1
f 834/4/1 852/4/1 835/4/1
f 852/8/1 853/8/1 835/8/1
f 835/8/1 853/8/1 836/8/1
f 853/4/1 854/4/1 836/4/1
f 836/4/1 854/4/1 837/4/1
f 854/8/1 855/8/1 837/8/1
f 837/8/1 855/8/1 838/8/1
f 855/4/1 856/4/1 838/4/1
f 838/4/1 856/4/1 839/4/1
f 856/8/1 857/8/1 839/8/1
f 839/8/1 857/8/1 840/8/1
f 858/5/1 859/5/1 841/5/1
f 841/5/1 859/5/1 842/5/1
f 860/4/1 861/4/1 846/4/1
f 846/4/1 861/4/1 847/4/1
f 862/4/1 863/4/1 848/4/1
f 848/4/1 863/4/1 849/4/1
f 863/8/1 864/8/1 849/8/1
f 849/8/1 864/8/1 850/8/1
f 864/4/1 865/4/1 850/4/1
f 850/4/1 865/4/1 851/4/1
f 865/8/1 866/8/1 851/8/1
f 851/8/1 866/8/1 852/8/1
f 866/4/1 867/4/1 852/4/1
f 852/4/1 867/4/1 853/4/1
f 867/8/1 868/8/1 853/8/1
f 853/8/1 868/8/1 854/8/1
f 868/4/1 869/4/1 854/4/1
f 854/4/1 869/4/1 855/4/1
f 869/8/1 870/8/1 855/8/1
f 855/8/1 870/8/1 856/8/1
f 870/4/1 871/4/1 856/4/1
f 856/4/1 871/4/1 857/4/1
f 872/4/1 873/4/1 858/4/1
f 858/4/1 873/4/1 859/4/1
f 874/4/1 875/4/1 863/4/1
f 863/4/1 875/4/1 864/4/1
f 875/8/1 876/8/1 864/8/1
f 864/8/1 876/8/1 865/8/1
f 876/4/1 877/4/1 865/4/1
f 865/4/1 877/4/1 866/4/1
f 877/8/1 878/8/1 866/8/1
f 866/8/1 878/8/1 867/8/1
f 878/4/1 879/4/1 867/4/1
f 867/4/1 879/4/1 868/4/1
f 879/8/1 880/8/1 868/8/1
f 868/8/1 880/8/1 869/8/1
f 880/4/1 881/4/1 869/4/1
f 869/4/1 881/4/1 870/4/1
f 881/8/1 882/8/1 870/8/1
f 870/8/1 882/8/1 871/8/1
f 883/5/1 884/5/1 872/5/1
f 872/5/1 884/5/1 873/5/1
f 885/4/1 886/4/1 875/4/1
f 875/4/1 886/4/1 876/4/1
f 886/8/1 887/8/1 876/8/1
f 876/8/1 887/8/1 877/8/1
f 887/4/1 888/4/1 877/4/1
f 877/4/1 888/4/1 878/4/1
f 888/8/1 889/8/1 878/8/1
f 878/8/1 889/8/1 879/8/1
f 889/4/1 890/4/1 879/4/1
f 879/4/1 890/4/1 880/4/1
f 890/8/1 891/8/1 880/8/1
f 880/8/1 891/8/1 881/8/1
f 891/4/1 892/4/1 881/4/1
f 881/4/1 892/4/1 882/4/1
f 893/4/1 894/4/1 883/4/1
f 883/4/1 894/4/1 884/4/1
f 895/4/1 896/4/1 886/4/1
f 886/4/1 896/4/1 887/4/1
f 896/8/1 897/8/1 887/8/1
f 887/8/1 897/8/1 888/8/1
f 897/4/1 898/4/1 888/4/1
f 888/4/1 898/4/1 889/4/1
f 898/8/1 899/8/1 889/8/1
f 889/8/1 899/8/1 890/8/1
f 899/4/1 900/4/1 890/4/1
f 890/4/1 900/4/1 891/4/1
f 900/8/1 901/8/1 891/8/1
f 891/8/1 901/8/1 892/8/1
f 902/5/1 903/5/1 893/5/1
f 893/5/1 903/5/1 894/5/1
f 904/4/1 905/4/1 896/4/1
f 896/4/1 905/4/1 897/4/1
f 905/8/1 906/8/1 897/8/1
f 897/8/1 906/8/1 898/8/1
f 906/4/1 907/4/1 898/4/1
f 898/4/1 907/4/1 899/4/1
f 907/8/1 908/8/1 899/8/1
f 899/8/1 908/8/1 900/8/1
f 908/4/1 909/4/1 900/4/1
f 900/4/1 909/4/1 901/4/1
f 910/4/1 911/4/1 902/4/1
f 902/4/1 911/4/1 903/4/1
f 912/4/1 913/4/1 905/4/1
f 905/4/1 913/4/1 906/4/1
f 913/8/1 914/8/1 906/8/1
f 906/8/1 914/8/1 907/8/1
f 914/4/1 915/4/1 907/4/1
f 907/4/1 915/4/1 908/4/1
f 915/8/1 916/8/1 908/8/1
f 908/8/1 916/8/1 909/8/1
f 917/5/1 918/5/1 910/5/1
f 910/5/1 918/5/1 911/5/1
f 919/8/1 920/8/1 912/8/1
f 912/8/1 920/8/1 913/8/1
f 920/4/1 921/4/1 913/4/1
f 913/4/1 921/4/1 914/4/1
f 921/8/1 922/8/1 914/8/1
f 914/8/1 922/8/1 915/8/1
f 922/4/1 923/4/1 915/4/1
f 915/4/1 923/4/1 916/4/1
f 924/4/1 925/4/1 917/4/1
f 917/4/1 925/4/1 918/4/1
f 926/4/1 927/4/1 919/4/1
f 919/4/1 927/4/1 920/4/1
f 927/8/1 928/8/1 920/8/1
f 920/8/1 928/8/1 921/8/1
f 928/4/1 929/4/1 921/4/1
f 921/4/1 929/4/1 922/4/1
f 929/8/1 930/8/1 922/8/1
f 922/8/1 930/8/1 923/8/1
f 931/5/1 932/5/1 924/5/1
f 924/5/1 932/5/1 925/5/1
f 933/4/1 934/4/1 927/4/1
f 927/4/1 934/4/1 928/4/1
f 934/8/1 935/8/1 928/8/1
f 928/8/1 935/8/1 929/8/1
f 935/4/1 936/4/1 929/4/1
f 929/4/1 936/4/1 930/4/1
f 937/4/1 938/4/1 931/4/1
f 931/4/1 938/4/1 932/4/1
f 939/8/1 940/8/1 933/8/1
f 933/8/1 940/8/1 934/8/1
f 940/4/1 941/4/1 934/4/1
f 934/4/1 941/4/1 935/4/1
f 941/8/1 942/8/1 935/8/1
f 935/8/1 942/8/1 936/8/1
f 943/5/1 944/5/1 937/5/1
f 937/5/1 944/5/1 938/5/1
f 945/4/1 946/4/1 939/4/1
f 939/4/1 946/4/1 940/4/1
f 946/8/1 947/8/1 940/8/1
f 940/8/1 947/8/1 941/8/1
f 947/4/1 948/4/1 941/4/1
f 941/4/1 948/4/1 942/4/1
f 949/4/1 950/4/1 943/4/1
f 943/4/1 950/4/1 944/4/1
f 951/4/1 952/4/1 946/4/1
f 946/4/1 952/4/1 947/4/1
f 952/8/1 953/8/1 947/8/1
f 947/8/1 953/8/1 948/8/1
f 954/5/1 955/5/1 949/5/1
f 949/5/1 955/5/1 950/5/1
f 956/8/1 957/8/1 951/8/1
f 951/8/1 957/8/1 952/8/1
f 957/4/1 958/4/1 952/4/1
f 952/4/1 958/4/1 953/4/1
f 959/4/1 960/4/1 954/4/1
f 954/4/1 960/4/1 955/4/1
f 961/4/1 962/4/1 956/4/1
f 956/4/1 962/4/1 957/4/1
f 962/8/1 963/8/1 957/8/1
f 957/8/1 963/8/1 958/8/1
f 964/5/1 965/5/1 959/5/1
f 959/5/1 965/5/1 960/5/1
f 966/8/1 967/8/1 961/8/1
f 961/8/1 967/8/1 962/8/1
f 967/4/1 968/4/1 962/4/1
f 962/4/1 968/4/1 963/4/1
f 969/4/1 970/4/1 964/4/1
f 964/4/1 970/4/1 965/4/1
f 971/4/1 972/4/1 966/4/1
f 966/4/1 972/4/1 967/4/1
f 972/8/1 973/8/1 967/8/1
f 967/8/1 973/8/1 968/8/1
f 974/5/1 975/5/1 969/5/1
f 969/5/1 975/5/1 970/5/1
f 976/4/1 977/4/1 972/4/1
f 972/4/1 977/4/1 973/4/1
f 978/4/1 979/4/1 974/4/1
f 974/4/1 979/4/1 975/4/1
f 980/8/1 981/8/1 976/8/1
f 976/8/1 981/8/1 977/8/1
f 982/5/1 983/5/1 978/5/1
f 978/5/1 983/5/1 979/5/1
f 984/4/1 985/4/1 980/4/1
f 980/4/1 985/4/1 981/4/1
f 986/4/1 987/4/1 982/4/1
f 982/4/1 987/4/1 983/4/1
f 988/8/1 989/8/1 984/8/1
f 984/8/1 989/8/1 985/8/1
f 990/5/1 991/5/1 986/5/1
f 986/5/1 991/5/1 987/5/1
f 992/4/1 993/4/1 988/4/1
f 988/4/1 993/4/1 989/4/1
f 994/4/1 995/4/1 990/4/1
f 990/4/1 995/4/1 991/4/1
f 996/8/1 997/8/1 992/8/1
f 992/8/1 997/8/1 993/8/1
f 998/5/1 999/5/1 994/5/1
f 994/5/1 999/5/1 995/5/1
f 1000/4/1 1001/4/1 996/4/1
f 996/4/1 1001/4/1 997/4/1
f 1002/4/1 1003/4/1 998/4/1
f 998/4/1 1003/4/1 999/4/1
f 1004/8/1 1005/8/1 1000/8/1
f 1000/8/1 1005/8/1 1001/8/1
f 1006/5/1 1007/5/1 1002/5/1
f 1002/5/1 1007/5/1 1003/5/1
f 1008/4/1 1009/4/1 1004/4/1
f 1004/4/1 1009/4/1 1005/4/1
f 1010/4/1 1011/4/1 1006/4/1
f 1006/4/1 1011/4/1 1007/4/1
f 1012/8/1 1013/8/1 1008/8/1
f 1008/8/1 1013/8/1 1009/8/1
f 1014/5/1 1015/5/1 1010/5/1
f 1010/5/1 1015/5/1 1011/5/1
f 1016/4/1 1017/4/1 1012/4/1
f 1012/4/1 1017/4/1 1013/4/1
f 1018/4/1 1019/4/1 1014/4/1
f 1014/4/1 1019/4/1 1015/4/1
f 1020/8/1 1021/8/1 1016/8/1
f 1016/8/1 1021/8/1 1017/8/1
f 1022/5/1 1023/5/1 1018/5/1
f 1018/5/1 1023/5/1 1019/5/1
f 1024/4/1 1025/4/1 1020/4/1
f 1020/4/1 1025/4/1 1021/4/1
f 1026/4/1 1027/4/1 1022/4/1
f 1022/4/1 1027/4/1 1023/4/1
f 1028/8/1 1029/8/1 1024/8/1
f 1024/8/1 1029/8/1 1025/8/1
f 1030/5/1 1031/5/1 1026/5/1
f 1026/5/1 1031/5/1 1027/5/1
f 1032/4/1 1033/4/1 1028/4/1
f 1028/4/1 1033/4/1 1029/4/1
f 1034/4/1 1035/4/1 1030/4/1
f 1030/4/1 1035/4/1 1031/4/1
f 1036/5/1 1037/5/1 1034/5/1
f 1034/5/1 1037/5/1 1035/5/1
f 1038/8/1 1039/8/1 1032/8/1
f 1032/8/1 1039/8/1 1033/8/1
f 1040/4/1 1041/4/1 1036/4/1
f 1036/4/1 1041/4/1 1037/4/1
f 1042/4/1 1043/4/1 1038/4/1
f 1038/4/1 1043/4/1 1039/4/1
f 1044/5/1 1045/5/1 1040/5/1
f 1040/5/1 1045/5/1 1041/5/1
f 1046/4/1 1047/4/1 1044/4/1
f 1044/4/1 1047/4/1 1045/4/1
f 1048/8/1 1049/8/1 1042/8/1
f 1042/8/1 1049/8/1 1043/8/1
f 1050/5/1 1051/5/1 1046/5/1
f 1046/5/1 1051/5/1 1047/5/1
f 1052/4/1 1053/4/1 1048/4/1
f 1048/4/1 1053/4/1 1049/4/1
f 1054/4/1 1055/4/1 1050/4/1
f 1050/4/1 1055/4/1 1051/4/1
f 1056/5/1 1057/5/1 1054/5/1
f 1054/5/1 1057/5/1 1055/5/1
f 1058/8/1 1059/8/1 1052/8/1
f 1052/8/1 1059/8/1 1053/8/1
f 1060/4/1 1061/4/1 1056/4/1
f 1056/4/1 1061/4/1 1057/4/1
f 1062/4/1 1063/4/1 1058/4/1
f 1058/4/1 1063/4/1 1059/4/1
f 1064/5/1 1065/5/1 1060/5/1
f 1060/5/1 1065/5/1 1061/5/1
f 1066/8/1 1067/8/1 1062/8/1
f 1062/8/1 1067/8/1 1063/8/1
f 1068/4/1 1069/4/1 1064/4/1
f 1064/4/1 1069/4/1 1065/4/1
f 1070/4/1 1071/4/1 1066/4/1
f 1066/4/1 1071/4/1 1067/4/1
f 1072/5/1 1073/5/1 1068/5/1
f 1068/5/1 1073/5/1 1069/5/1
f 1074/8/1 1075/8/1 1070/8/1
f 1070/8/1 1075/8/1 1071/8/1
f 1076/4/1 1077/4/1 1072/4/1
f 1072/4/1 1077/4/1 1073/4/1
f 1078/4/1 1079/4/1 1074/4/1
f 1074/4/1 1079/4/1 1075/4/1
f 1080/5/1 1081/5/1 1076/5/1
f 1076/5/1 1081/5/1 1077/5/1
f 1082/8/1 1083/8/1 1078/8/1
f 1078/8/1 1083/8/1 1079/8/1
f 1084/4/1 1085/4/1 1080/4/1
f 1080/4/1 1085/4/1 1081/4/1
f 1086/4/1 1087/4/1 1082/4/1
f 1082/4/1 1087/4/1 1083/4/1
f 1088/5/1 1089/5/1 1084/5/1
f 1084/5/1 1089/5/1 1085/5/1
f 1090/8/1 1091/8/1 1086/8/1
f 1086/8/1 1091/8/1 1087/8/1
f 1092/4/1 1093/4/1 1088/4/1
f 1088/4/1 1093/4/1 1089/4/1
f 1094/4/1 1095/4/1 1090/4/1
f 1090/4/1 1095/4/1 1091/4/1
f 1096/5/1 1097/5/1 1092/5/1
f 1092/5/1 1097/5/1 1093/5/1
f 1098/8/1 1099/8/1 1094/8/1
f 1094/8/1 1099/8/1 1095/8/1
f 1100/4/1 1101/4/1 1096/4/1
f 1096/4/1 1101/4/1 1097/4/1
f 1102/4/1 1103/4/1 1098/4/1
f 1098/4/1 1103/4/1 1099/4/1
f 1104/5/1 1105/5/1 1100/5/1
f 1100/5/1 1105/5/1 1101/5/1
f 1106/8/1 1107/8/1 1102/8/1
f 1102/8/1 1107/8/1 1103/8/1
f 1108/4/1 1109/4/1 1104/4/1
f 1104/4/1 1109/4/1 1105/4/1
f 1110/4/1 1111/4/1 1106/4/1
f 1106/4/1 1111/4/1 1107/4/1
f 1112/5/1 1113/5/1 1108/5/1
f 1108/5/1 1113/5/1 1109/5/1
f 1114/8/1 1115/8/1 1110/8/1
f 1110/8/1 1115/8/1 1111/8/1
f 1116/4/1 1117/4/1 1112/4/1
f 1112/4/1 1117/4/1 1113/4/1
f 1118/8/1 1119/8/1 971/8/1
f 971/8/1 1119/8/1 972/8/1
f 1119/4/1 1120/4/1 1114/4/1
f 1114/4/1 1120/4/1 1115/4/1
f 1121/5/1 1122/5/1 1116/5/1
f 1116/5/1 1122/5/1 1117/5/1
f 1123/4/1 1124/4/1 1118/4/1
f 1118/4/1 1124/4/1 1119/4/1
f 1124/8/1 1125/8/1 1119/8/1
f 1119/8/1 1125/8/1 1120/8/1
f 1126/4/1 1127/4/1 1121/4/1
f 1121/4/1 1127/4/1 1122/4/1
f 1128/8/1 1129/8/1 1123/8/1
f 1123/8/1 1129/8/1 1124/8/1
f 1129/4/1 1130/4/1 1124/4/1
f 1124/4/1 1130/4/1 1125/4/1
f 1131/5/1 1132/5/1 1126/5/1
f 1126/5/1 1132/5/1 1127/5/1
f 596/8/1 1133/8/1 172/8/1
f 172/8/1 1133/8/1 807/8/1
f 1133/8/1 1134/8/1 825/8/1
f 825/8/1 1134/8/1 826/8/1
f 1134/8/1 1135/8/1 843/8/1
f 843/8/1 1135/8/1 844/8/1
f 1135/8/1 1136/8/1 827/8/1
f 827/8/1 1136/8/1 828/8/1
f 1136/8/1 1137/8/1 845/8/1
f 845/8/1 1137/8/1 846/8/1
f 1137/8/1 1138/8/1 860/8/1
f 860/8/1 1138/8/1 861/8/1
f 1138/8/1 1139/8/1 847/8/1
f 847/8/1 1139/8/1 848/8/1
f 1139/8/1 1140/8/1 862/8/1
f 862/8/1 1140/8/1 863/8/1
f 1140/8/1 1141/8/1 874/8/1
f 874/8/1 1141/8/1 875/8/1
f 1141/8/1 1142/8/1 885/8/1
f 885/8/1 1142/8/1 886/8/1
f 1142/8/1 1143/8/1 895/8/1
f 895/8/1 1143/8/1 896/8/1
f 1143/8/1 1144/8/1 904/8/1
f 904/8/1 1144/8/1 905/8/1
f 1144/8/1 1145/8/1 926/8/1
f 926/8/1 1145/8/1 927/8/1
f 1145/8/1 1146/8/1 945/8/1
f 945/8/1 1146/8/1 946/8/1
f 1146/4/1 1147/4/1 1128/4/1
f 1128/4/1 1147/4/1 1129/4/1
f 1147/8/1 1148/8/1 1129/8/1
f 1129/8/1 1148/8/1 1130/8/1
f 1148/4/1 1149/4/1 783/4/1
f 783/4/1 1149/4/1 788/4/1
f 1149/4/1 1150/4/1 1131/4/1
f 1131/4/1 1150/4/1 1132/4/1
f 600/2/2 599/2/2 1152/2/2
f 1152/2/2 599/2/2 1151/2/2
f 1153/2/5 1154/2/5 1151/2/5
f 1151/2/5 1154/2/5 1152/2/5
f 1155/9/5 1156/9/5 1153/9/5
f 1153/9/5 1156/9/5 1154/9/5
f 1157/2/5 1158/2/5 1155/2/5
f 1155/2/5 1158/2/5 1156/2/5
f 1159/9/5 1160/9/5 1157/9/5
f 1157/9/5 1160/9/5 1158/9/5
f 1161/2/5 1162/2/5 1159/2/5
f 1159/2/5 1162/2/5 1160/2/5
f 1163/6/5 1164/6/5 1161/6/5
f 1161/6/5 1164/6/5 1162/6/5
f 1165/2/5 1166/2/5 1163/2/5
f 1163/2/5 1166/2/5 1164/2/5
f 1167/6/5 1168/6/5 1165/6/5
f 1165/6/5 1168/6/5 1166/6/5
f 1169/2/5 1170/2/5 1167/2/5
f 1167/2/5 1170/2/5 1168/2/5
f 1171/10/5 1172/10/5 1169/10/5
f 1169/10/5 1172/10/5 1170/10/5
f 787/5/5 786/5/5 1171/5/5
f 1171/5/5 786/5/5 1173/5/5
f 786/4/5 806/4/5 1173/4/5
f 1173/4/5 806/4/5 1174/4/5
f 806/5/5 824/5/5 1174/5/5
f 1174/5/5 824/5/5 1175/5/5
f 824/4/5 842/4/5 1175/4/5
f 1175/4/5 842/4/5 1176/4/5
f 842/5/5 859/5/5 1176/5/5
f 1176/5/5 859/5/5 1177/5/5
f 859/4/5 873/4/5 1177/4/5
f 1177/4/5 873/4/5 1178/4/5
f 873/5/5 884/5/5 1178/5/5
f 1178/5/5 884/5/5 1179/5/5
f 884/4/5 894/4/5 1179/4/5
f 1179/4/5 894/4/5 1180/4/5
f 894/5/5 903/5/5 1180/5/5
f 1180/5/5 903/5/5 1181/5/5
f 903/4/5 911/4/5 1181/4/5
f 1181/4/5 911/4/5 1182/4/5
f 911/5/5 918/5/5 1182/5/5
f 1182/5/5 918/5/5 1183/5/5
f 918/4/5 925/4/5 1183/4/5
f 1183/4/5 925/4/5 1184/4/5
f 925/5/5 932/5/5 1184/5/5
f 1184/5/5 932/5/5 1185/5/5
f 932/4/5 938/4/5 1185/4/5
f 1185/4/5 938/4/5 1186/4/5
f 938/5/5 944/5/5 1186/5/5
f 1186/5/5 944/5/5 1187/5/5
f 944/4/5 950/4/5 1187/4/5
f 1187/4/5 950/4/5 1188/4/5
f 950/5/5 955/5/5 1188/5/5
f 1188/5/5 955/5/5 1189/5/5
f 955/4/5 960/4/5 1189/4/5
f 1189/4/5 960/4/5 1190/4/5
f 960/5/5 965/5/5 1190/5/5
f 1190/5/5 965/5/5 1191/5/5
f 965/4/5 970/4/5 1191/4/5
f 1191/4/5 970/4/5 1192/4/5
f 970/5/5 975/5/5 1192/5/5
f 1192/5/5 975/5/5 1193/5/5
f 975/4/5 979/4/5 1193/4/5
f 1193/4/5 979/4/5 1194/4/5
f 979/5/5 983/5/5 1194/5/5
f 1194/5/5 983/5/5 1195/5/5
f 983/4/5 987/4/5 1195/4/5
f 1195/4/5 987/4/5 1196/4/5
f 987/5/5 991/5/5 1196/5/5
f 1196/5/5 991/5/5 1197/5/5
f 991/4/5 995/4/5 1197/4/5
f 1197/4/5 995/4/5 1198/4/5
f 995/5/5 999/5/5 1198/5/5
f 1198/5/5 999/5/5 1199/5/5
f 999/4/5 1003/4/5 1199/4/5
f 1199/4/5 1003/4/5 1200/4/5
f 1003/5/5 1007/5/5 1200/5/5
f 1200/5/5 1007/5/5 1201/5/5
f 1007/4/5 1011/4/5 1201/4/5
f 1201/4/5 1011/4/5 1202/4/5
f 1011/5/5 1015/5/5 1202/5/5
f 1202/5/5 1015/5/5 1203/5/5
f 1015/4/5 1019/4/5 1203/4/5
f 1203/4/5 1019/4/5 1204/4/5
f 1019/5/5 1023/5/5 1204/5/5
f 1204/5/5 1023/5/5 1205/5/5
f 1023/4/5 1027/4/5 1205/4/5
f 1205/4/5 1027/4/5 1206/4/5
f 1027/5/5 1031/5/5 1206/5/5
f 1206/5/5 1031/5/5 1207/5/5
f 1031/4/5 1035/4/5 1207/4/5
f 1207/4/5 1035/4/5 1208/4/5
f 1035/5/5 1037/5/5 1208/5/5
f 1208/5/5 1037/5/5 1209/5/5
f 1037/4/5 1041/4/5 1209/4/5
f 1209/4/5 1041/4/5 1210/4/5
f 1041/5/5 1045/5/5 1210/5/5
f 1210/5/5 1045/5/5 1211/5/5
f 1045/4/5 1047/4/5 1211/4/5
f 1211/4/5 1047/4/5 1212/4/5
f 1047/5/5 1051/5/5 1212/5/5
f 1212/5/5 1051/5/5 1213/5/5
f 1051/4/5 1055/4/5 1213/4/5
f 1213/4/5 1055/4/5 1214/4/5
f 1055/5/5 1057/5/5 1214/5/5
f 1214/5/5 1057/5/5 1215/5/5
f 1057/4/5 1061/4/5 1215/4/5
f 1215/4/5 1061/4/5 1216/4/5
f 1061/5/5 1065/5/5 1216/5/5
f 1216/5/5 1065/5/5 1217/5/5
f 1065/4/5 1069/4/5 1217/4/5
f 1217/4/5 1069/4/5 1218/4/5
f 1069/5/5 1073/5/5 1218/5/5
f 1218/5/5 1073/5/5 1219/5/5
f 1073/4/5 1077/4/5 1219/4/5
f 1219/4/5 1077/4/5 1220/4/5
f 1077/5/5 1081/5/5 1220/5/5
f 1220/5/5 1081/5/5 1221/5/5
f 1081/4/5 1085/4/5 1221/4/5
f 1221/4/5 1085/4/5 1222/4/5
f 1085/5/5 1089/5/5 1222/5/5
f 1222/5/5 1089/5/5 1223/5/5
f 1089/4/5 1093/4/5 1223/4/5
f 1223/4/5 1093/4/5 1224/4/5
f 1093/5/5 1097/5/5 1224/5/5
f 1224/5/5 1097/5/5 1225/5/5
f 1097/4/5 1101/4/5 1225/4/5
f 1225/4/5 1101/4/5 1226/4/5
f 1101/5/5 1105/5/5 1226/5/5
f 1226/5/5 1105/5/5 1227/5/5
f 1105/4/5 1109/4/5 1227/4/5
f 1227/4/5 1109/4/5 1228/4/5
f 1109/5/5 1113/5/5 1228/5/5
f 1228/5/5 1113/5/5 1229/5/5
f 1113/4/5 1117/4/5 1229/4/5
f 1229/4/5 1117/4/5 1230/4/5
f 1117/5/5 1122/5/5 1230/5/5
f 1230/5/5 1122/5/5 1231/5/5
f 1122/4/5 1127/4/5 1231/4/5
f 1231/4/5 1127/4/5 1232/4/5
f 1127/5/5 1132/5/5 1232/5/5
f 1232/5/5 1132/5/5 1233/5/5
f 1132/4/5 1150/4/5 1233/4/5
f 1233/4/5 1150/4/5 1172/4/5
f 1234/4/4 752/4/4 756/4/4
f 756/4/4 752/4/4 125/4/4
f 1235/5/4 1234/5/4 755/5/4
f 755/5/4 1234/5/4 756/5/4
f 1236/4/4 1235/4/4 760/4/4
f 760/4/4 1235/4/4 755/4/4
f 1237/5/4 1236/5/4 759/5/4
f 759/5/4 1236/5/4 760/5/4
f 1238/4/4 1237/4/4 764/4/4
f 764/4/4 1237/4/4 759/4/4
f 1239/5/4 1238/5/4 763/5/4
f 763/5/4 1238/5/4 764/5/4
f 1240/4/4 1239/4/4 768/4/4
f 768/4/4 1239/4/4 763/4/4
f 1241/5/4 1240/5/4 767/5/4
f 767/5/4 1240/5/4 768/5/4
f 1242/4/4 1241/4/4 772/4/4
f 772/4/4 1241/4/4 767/4/4
f 1243/5/4 1242/5/4 771/5/4
f 771/5/4 1242/5/4 772/5/4
f 1244/4/4 1243/4/4 776/4/4
f 776/4/4 1243/4/4 771/4/4
f 1245/5/4 1244/5/4 775/5/4
f 775/5/4 1244/5/4 776/5/4
f 1246/4/4 1245/4/4 780/4/4
f 780/4/4 1245/4/4 775/4/4
f 1247/5/4 1246/5/4 779/5/4
f 779/5/4 1246/5/4 780/5/4
f 1248/4/4 1247/4/4 784/4/4
f 784/4/4 1247/4/4 779/4/4
f 1249/5/4 1248/5/4 783/5/4
f 783/5/4 1248/5/4 784/5/4
f 1250/4/4 1249/4/4 788/4/4
f 788/4/4 1249/4/4 783/4/4
f 1151/2/4 599/2/4 1153/2/4
f 1153/2/4 599/2/4 743/2/4
f 1153/9/4 743/9/4 1155/9/4
f 1155/9/4 743/9/4 744/9/4
f 1155/2/4 744/2/4 1157/2/4
f 1157/2/4 744/2/4 745/2/4
f 1157/9/4 745/9/4 1159/9/4
f 1159/9/4 745/9/4 746/9/4
f 1159/2/4 746/2/4 1161/2/4
f 1161/2/4 746/2/4 747/2/4
f 1161/6/4 747/6/4 1163/6/4
f 1163/6/4 747/6/4 748/6/4
f 1163/2/4 748/2/4 1165/2/4
f 1165/2/4 748/2/4 749/2/4
f 1165/6/4 749/6/4 1167/6/4
f 1167/6/4 749/6/4 750/6/4
f 1167/2/4 750/2/4 1169/2/4
f 1169/2/4 750/2/4 751/2/4
f 1169/10/4 751/10/4 1171/10/4
f 1171/10/4 751/10/4 752/10/4
f 1171/5/4 1250/5/4 787/5/4
f 787/5/4 1250/5/4 788/5/4
f 1251/4/1 1252/4/1 537/4/1
f 537/4/1 1252/4/1 540/4/1
f 1252/8/1 1253/8/1 540/8/1
f 540/8/1 1253/8/1 557/8/1
f 1254/5/1 1255/5/1 1251/5/1
f 1251/5/1 1255/5/1 1256/5/1
f 1257/8/1 1258/8/1 1259/8/1
f 1259/8/1 1258/8/1 1252/8/1
f 1258/4/1 1260/4/1 1252/4/1
f 1252/4/1 1260/4/1 1261/4/1
f 1260/8/1 1262/8/1 1261/8/1
f 1261/8/1 1262/8/1 1253/8/1
f 1263/4/1 1264/4/1 1254/4/1
f 1254/4/1 1264/4/1 1255/4/1
f 1265/4/1 1266/4/1 1257/4/1
f 1257/4/1 1266/4/1 1258/4/1
f 1266/8/1 1267/8/1 1258/8/1
f 1258/8/1 1267/8/1 1260/8/1
f 1267/4/1 1268/4/1 1260/4/1
f 1260/4/1 1268/4/1 1269/4/1
f 1270/7/1 1271/7/1 559/7/1
f 559/7/1 1271/7/1 576/7/1
f 1272/5/1 1273/5/1 1263/5/1
f 1263/5/1 1273/5/1 1264/5/1
f 1274/8/1 1275/8/1 1265/8/1
f 1265/8/1 1275/8/1 1266/8/1
f 1275/4/1 1276/4/1 1266/4/1
f 1266/4/1 1276/4/1 1267/4/1
f 1276/8/1 1277/8/1 1267/8/1
f 1267/8/1 1277/8/1 1268/8/1
f 1278/4/1 1279/4/1 1270/4/1
f 1270/4/1 1279/4/1 1280/4/1
f 1281/4/1 1282/4/1 1272/4/1
f 1272/4/1 1282/4/1 1273/4/1
f 1283/4/1 1284/4/1 1274/4/1
f 1274/4/1 1284/4/1 1275/4/1
f 1284/8/1 1285/8/1 1275/8/1
f 1275/8/1 1285/8/1 1276/8/1
f 1285/4/1 1286/4/1 1276/4/1
f 1276/4/1 1286/4/1 1277/4/1
f 1286/8/1 1287/8/1 1269/8/1
f 1269/8/1 1287/8/1 1262/8/1
f 1288/1/1 1289/1/1 1278/1/1
f 1278/1/1 1289/1/1 1290/1/1
f 1291/5/1 1292/5/1 1281/5/1
f 1281/5/1 1292/5/1 1282/5/1
f 1293/8/1 1294/8/1 1283/8/1
f 1283/8/1 1294/8/1 1284/8/1
f 1294/4/1 1295/4/1 1284/4/1
f 1284/4/1 1295/4/1 1285/4/1
f 1295/8/1 1296/8/1 1285/8/1
f 1285/8/1 1296/8/1 1286/8/1
f 1296/4/1 1297/4/1 1286/4/1
f 1286/4/1 1297/4/1 1298/4/1
f 1299/4/1 1300/4/1 1288/4/1
f 1288/4/1 1300/4/1 1289/4/1
f 1301/4/1 1302/4/1 1291/4/1
f 1291/4/1 1302/4/1 1292/4/1
f 1303/4/1 1304/4/1 1293/4/1
f 1293/4/1 1304/4/1 1294/4/1
f 1304/8/1 1305/8/1 1294/8/1
f 1294/8/1 1305/8/1 1295/8/1
f 1305/4/1 1306/4/1 1295/4/1
f 1295/4/1 1306/4/1 1296/4/1
f 1306/8/1 1307/8/1 1296/8/1
f 1296/8/1 1307/8/1 1297/8/1
f 1308/1/1 1309/1/1 1299/1/1
f 1299/1/1 1309/1/1 1300/1/1
f 1310/5/1 1311/5/1 1301/5/1
f 1301/5/1 1311/5/1 1302/5/1
f 1312/8/1 1313/8/1 1303/8/1
f 1303/8/1 1313/8/1 1304/8/1
f 1313/4/1 1314/4/1 1304/4/1
f 1304/4/1 1314/4/1 1305/4/1
f 1314/8/1 1315/8/1 1305/8/1
f 1305/8/1 1315/8/1 1306/8/1
f 1315/4/1 1316/4/1 1306/4/1
f 1306/4/1 1316/4/1 1307/4/1
f 1316/8/1 1317/8/1 1298/8/1
f 1298/8/1 1317/8/1 1287/8/1
f 1318/4/1 1319/4/1 1308/4/1
f 1308/4/1 1319/4/1 1309/4/1
f 1319/4/1 1320/4/1 1290/4/1
f 1290/4/1 1320/4/1 1279/4/1
f 1321/3/1 1322/3/1 576/3/1
f 576/3/1 1322/3/1 577/3/1
f 1323/4/1 1324/4/1 1310/4/1
f 1310/4/1 1324/4/1 1311/4/1
f 1325/4/1 1326/4/1 1312/4/1
f 1312/4/1 1326/4/1 1313/4/1
f 1326/8/1 1327/8/1 1313/8/1
f 1313/8/1 1327/8/1 1314/8/1
f 1327/4/1 1328/4/1 1314/4/1
f 1314/4/1 1328/4/1 1315/4/1
f 1328/8/1 1329/8/1 1315/8/1
f 1315/8/1 1329/8/1 1316/8/1
f 1329/4/1 1330/4/1 1316/4/1
f 1316/4/1 1330/4/1 1331/4/1
f 1330/8/1 1332/8/1 1331/8/1
f 1331/8/1 1332/8/1 1317/8/1
f 1333/5/1 1334/5/1 1323/5/1
f 1323/5/1 1334/5/1 1324/5/1
f 1335/8/1 1336/8/1 1325/8/1
f 1325/8/1 1336/8/1 1326/8/1
f 1336/4/1 1337/4/1 1326/4/1
f 1326/4/1 1337/4/1 1327/4/1
f 1337/8/1 1338/8/1 1327/8/1
f 1327/8/1 1338/8/1 1328/8/1
f 1338/4/1 1339/4/1 1328/4/1
f 1328/4/1 1339/4/1 1329/4/1
f 1339/8/1 1340/8/1 1329/8/1
f 1329/8/1 1340/8/1 1330/8/1
f 1340/4/1 1341/4/1 1330/4/1
f 1330/4/1 1341/4/1 1342/4/1
f 1341/8/1 1343/8/1 1342/8/1
f 1342/8/1 1343/8/1 1332/8/1
f 1344/4/1 1345/4/1 1333/4/1
f 1333/4/1 1345/4/1 1334/4/1
f 1346/4/1 1347/4/1 1335/4/1
f 1335/4/1 1347/4/1 1336/4/1
f 1347/8/1 1348/8/1 1336/8/1
f 1336/8/1 1348/8/1 1337/8/1
f 1348/4/1 1349/4/1 1337/4/1
f 1337/4/1 1349/4/1 1338/4/1
f 1349/8/1 1350/8/1 1338/8/1
f 1338/8/1 1350/8/1 1339/8/1
f 1350/4/1 1351/4/1 1339/4/1
f 1339/4/1 1351/4/1 1340/4/1
f 1351/8/1 1352/8/1 1340/8/1
f 1340/8/1 1352/8/1 1341/8/1
f 1352/4/1 1353/4/1 1341/4/1
f 1341/4/1 1353/4/1 1354/4/1
f 1353/8/1 1355/8/1 1354/8/1
f 1354/8/1 1355/8/1 1343/8/1
f 1356/5/1 1357/5/1 1344/5/1
f 1344/5/1 1357/5/1 1345/5/1
f 1358/8/1 1359/8/1 1346/8/1
f 1346/8/1 1359/8/1 1347/8/1
f 1359/4/1 1360/4/1 1347/4/1
f 1347/4/1 1360/4/1 1348/4/1
f 1360/8/1 1361/8/1 1348/8/1
f 1348/8/1 1361/8/1 1349/8/1
f 1361/4/1 1362/4/1 1349/4/1
f 1349/4/1 1362/4/1 1350/4/1
f 1362/8/1 1363/8/1 1350/8/1
f 1350/8/1 1363/8/1 1351/8/1
f 1363/4/1 1364/4/1 1351/4/1
f 1351/4/1 1364/4/1 1352/4/1
f 1364/8/1 1365/8/1 1352/8/1
f 1352/8/1 1365/8/1 1353/8/1
f 1365/4/1 1366/4/1 1353/4/1
f 1353/4/1 1366/4/1 1367/4/1
f 1366/8/1 1368/8/1 1367/8/1
f 1367/8/1 1368/8/1 1355/8/1
f 1369/4/1 1370/4/1 1356/4/1
f 1356/4/1 1370/4/1 1357/4/1
f 1371/4/1 1372/4/1 1358/4/1
f 1358/4/1 1372/4/1 1359/4/1
f 1372/8/1 1373/8/1 1359/8/1
f 1359/8/1 1373/8/1 1360/8/1
f 1373/4/1 1374/4/1 1360/4/1
f 1360/4/1 1374/4/1 1361/4/1
f 1374/8/1 1375/8/1 1361/8/1
f 1361/8/1 1375/8/1 1362/8/1
f 1375/4/1 1376/4/1 1362/4/1
f 1362/4/1 1376/4/1 1363/4/1
f 1376/8/1 1377/8/1 1363/8/1
f 1363/8/1 1377/8/1 1364/8/1
f 1377/4/1 1378/4/1 1364/4/1
f 1364/4/1 1378/4/1 1365/4/1
f 1378/8/1 1379/8/1 1365/8/1
f 1365/8/1 1379/8/1 1366/8/1
f 1379/4/1 1380/4/1 1366/4/1
f 1366/4/1 1380/4/1 1381/4/1
f 1380/8/1 1382/8/1 1381/8/1
f 1381/8/1 1382/8/1 1383/8/1
f 1382/4/1 1384/4/1 1383/4/1
f 1383/4/1 1384/4/1 1385/4/1
f 1384/8/1 1386/8/1 1385/8/1
f 1385/8/1 1386/8/1 1368/8/1
f 1387/5/1 1388/5/1 1369/5/1
f 1369/5/1 1388/5/1 1370/5/1
f 1389/8/1 1390/8/1 1371/8/1
f 1371/8/1 1390/8/1 1372/8/1
f 1390/4/1 1391/4/1 1372/4/1
f 1372/4/1 1391/4/1 1373/4/1
f 1391/8/1 1392/8/1 1373/8/1
f 1373/8/1 1392/8/1 1374/8/1
f 1392/4/1 1393/4/1 1374/4/1
f 1374/4/1 1393/4/1 1375/4/1
f 1393/8/1 1394/8/1 1375/8/1
f 1375/8/1 1394/8/1 1376/8/1
f 1394/4/1 1395/4/1 1376/4/1
f 1376/4/1 1395/4/1 1377/4/1
f 1395/8/1 1396/8/1 1377/8/1
f 1377/8/1 1396/8/1 1378/8/1
f 1396/4/1 1397/4/1 1378/4/1
f 1378/4/1 1397/4/1 1379/4/1
f 1397/8/1 1398/8/1 1379/8/1
f 1379/8/1 1398/8/1 1380/8/1
f 1398/4/1 1399/4/1 1380/4/1
f 1380/4/1 1399/4/1 1382/4/1
f 1399/8/1 1400/8/1 1382/8/1
f 1382/8/1 1400/8/1 1384/8/1
f 1400/4/1 1401/4/1 1384/4/1
f 1384/4/1 1401/4/1 1402/4/1
f 1401/8/1 1403/8/1 1402/8/1
f 1402/8/1 1403/8/1 1404/8/1
f 1403/4/1 1405/4/1 1404/4/1
f 1404/4/1 1405/4/1 1406/4/1
f 1405/8/1 1407/8/1 1406/8/1
f 1406/8/1 1407/8/1 1386/8/1
f 1408/8/1 1409/8/1 595/8/1
f 595/8/1 1409/8/1 596/8/1
f 1410/4/1 1411/4/1 1387/4/1
f 1387/4/1 1411/4/1 1388/4/1
f 1412/4/1 1413/4/1 1389/4/1
f 1389/4/1 1413/4/1 1390/4/1
f 1413/8/1 1414/8/1 1390/8/1
f 1390/8/1 1414/8/1 1391/8/1
f 1414/4/1 1415/4/1 1391/4/1
f 1391/4/1 1415/4/1 1392/4/1
f 1415/8/1 1416/8/1 1392/8/1
f 1392/8/1 1416/8/1 1393/8/1
f 1416/4/1 1417/4/1 1393/4/1
f 1393/4/1 1417/4/1 1394/4/1
f 1417/8/1 1418/8/1 1394/8/1
f 1394/8/1 1418/8/1 1395/8/1
f 1418/4/1 1419/4/1 1395/4/1
f 1395/4/1 1419/4/1 1396/4/1
f 1419/8/1 1420/8/1 1396/8/1
f 1396/8/1 1420/8/1 1397/8/1
f 1420/4/1 1421/4/1 1397/4/1
f 1397/4/1 1421/4/1 1398/4/1
f 1421/8/1 1422/8/1 1398/8/1
f 1398/8/1 1422/8/1 1399/8/1
f 1422/4/1 1423/4/1 1399/4/1
f 1399/4/1 1423/4/1 1400/4/1
f 1423/8/1 1424/8/1 1400/8/1
f 1400/8/1 1424/8/1 1401/8/1
f 1424/4/1 1425/4/1 1401/4/1
f 1401/4/1 1425/4/1 1403/4/1
f 1425/8/1 1426/8/1 1403/8/1
f 1403/8/1 1426/8/1 1405/8/1
f 1426/4/1 1427/4/1 1405/4/1
f 1405/4/1 1427/4/1 1428/4/1
f 1427/8/1 1429/8/1 1428/8/1
f 1428/8/1 1429/8/1 1430/8/1
f 1429/4/1 1431/4/1 1430/4/1
f 1430/4/1 1431/4/1 1432/4/1
f 1431/8/1 1433/8/1 1432/8/1
f 1432/8/1 1433/8/1 1407/8/1
f 1434/8/1 1435/8/1 594/8/1
f 594/8/1 1435/8/1 595/8/1
f 1435/4/1 1436/4/1 1408/4/1
f 1408/4/1 1436/4/1 1409/4/1
f 1437/5/1 1438/5/1 1410/5/1
f 1410/5/1 1438/5/1 1411/5/1
f 1439/8/1 1440/8/1 1412/8/1
f 1412/8/1 1440/8/1 1413/8/1
f 1441/8/1 1442/8/1 1414/8/1
f 1414/8/1 1442/8/1 1415/8/1
f 1443/8/1 1444/8/1 1416/8/1
f 1416/8/1 1444/8/1 1417/8/1
f 1445/8/1 1446/8/1 1418/8/1
f 1418/8/1 1446/8/1 1419/8/1
f 1447/8/1 1448/8/1 1420/8/1
f 1420/8/1 1448/8/1 1421/8/1
f 1449/8/1 1450/8/1 1422/8/1
f 1422/8/1 1450/8/1 1423/8/1
f 1451/8/1 1452/8/1 1424/8/1
f 1424/8/1 1452/8/1 1425/8/1
f 1453/8/1 1454/8/1 1426/8/1
f 1426/8/1 1454/8/1 1427/8/1
f 1455/8/1 1456/8/1 1429/8/1
f 1429/8/1 1456/8/1 1431/8/1
f 1457/8/1 1458/8/1 1435/8/1
f 1435/8/1 1458/8/1 1436/8/1
f 1459/4/1 1460/4/1 1437/4/1
f 1437/4/1 1460/4/1 1438/4/1
f 1461/4/1 1462/4/1 1439/4/1
f 1439/4/1 1462/4/1 1440/4/1
f 1463/4/1 1464/4/1 1441/4/1
f 1441/4/1 1464/4/1 1442/4/1
f 1465/4/1 1466/4/1 1443/4/1
f 1443/4/1 1466/4/1 1444/4/1
f 1467/4/1 1468/4/1 1445/4/1
f 1445/4/1 1468/4/1 1446/4/1
f 1469/4/1 1470/4/1 1447/4/1
f 1447/4/1 1470/4/1 1448/4/1
f 1471/4/1 1472/4/1 1449/4/1
f 1449/4/1 1472/4/1 1450/4/1
f 1473/4/1 1474/4/1 1451/4/1
f 1451/4/1 1474/4/1 1452/4/1
f 1475/4/1 1476/4/1 1453/4/1
f 1453/4/1 1476/4/1 1454/4/1
f 1477/4/1 1478/4/1 1455/4/1
f 1455/4/1 1478/4/1 1456/4/1
f 1479/3/1 1480/3/1 557/3/1
f 557/3/1 1480/3/1 559/3/1
f 1480/7/1 1481/7/1 1318/7/1
f 1318/7/1 1481/7/1 1320/7/1
f 1482/7/1 1483/7/1 1484/7/1
f 1484/7/1 1483/7/1 1271/7/1
f 1485/7/1 1486/7/1 1487/7/1
f 1487/7/1 1486/7/1 1322/7/1
f 1488/7/1 1489/7/1 578/7/1
f 578/7/1 1489/7/1 592/7/1
f 1489/3/1 1490/3/1 592/3/1
f 592/3/1 1490/3/1 594/3/1
f 1490/4/1 1491/4/1 1434/4/1
f 1434/4/1 1491/4/1 1435/4/1
f 1492/5/1 1493/5/1 1459/5/1
f 1459/5/1 1493/5/1 1460/5/1
f 1493/4/1 1494/4/1 1256/4/1
f 1256/4/1 1494/4/1 1259/4/1
f 1494/5/1 1495/5/1 1461/5/1
f 1461/5/1 1495/5/1 1462/5/1
f 1495/4/1 1496/4/1 1413/4/1
f 1413/4/1 1496/4/1 1414/4/1
f 1496/5/1 1497/5/1 1463/5/1
f 1463/5/1 1497/5/1 1464/5/1
f 1497/4/1 1498/4/1 1415/4/1
f 1415/4/1 1498/4/1 1416/4/1
f 1498/5/1 1499/5/1 1465/5/1
f 1465/5/1 1499/5/1 1466/5/1
f 1499/4/1 1500/4/1 1417/4/1
f 1417/4/1 1500/4/1 1418/4/1
f 1500/5/1 1501/5/1 1467/5/1
f 1467/5/1 1501/5/1 1468/5/1
f 1501/4/1 1502/4/1 1419/4/1
f 1419/4/1 1502/4/1 1420/4/1
f 1502/5/1 1503/5/1 1469/5/1
f 1469/5/1 1503/5/1 1470/5/1
f 1503/4/1 1504/4/1 1421/4/1
f 1421/4/1 1504/4/1 1422/4/1
f 1504/5/1 1505/5/1 1471/5/1
f 1471/5/1 1505/5/1 1472/5/1
f 1505/4/1 1506/4/1 1423/4/1
f 1423/4/1 1506/4/1 1424/4/1
f 1506/5/1 1507/5/1 1473/5/1
f 1473/5/1 1507/5/1 1474/5/1
f 1507/4/1 1508/4/1 1425/4/1
f 1425/4/1 1508/4/1 1426/4/1
f 1508/5/1 1509/5/1 1475/5/1
f 1475/5/1 1509/5/1 1476/5/1
f 1509/4/1 1510/4/1 1427/4/1
f 1427/4/1 1510/4/1 1429/4/1
f 1510/5/1 1511/5/1 1477/5/1
f 1477/5/1 1511/5/1 1478/5/1
f 1511/4/1 1512/4/1 1431/4/1
f 1431/4/1 1512/4/1 1433/4/1
f 1512/5/1 1513/5/1 1479/5/1
f 1479/5/1 1513/5/1 1514/5/1
f 1513/3/1 1515/3/1 1514/3/1
f 1514/3/1 1515/3/1 1480/3/1
f 1515/5/1 1516/5/1 1480/5/1
f 1480/5/1 1516/5/1 1517/5/1
f 1516/7/1 1518/7/1 1517/7/1
f 1517/7/1 1518/7/1 1519/7/1
f 1518/5/1 1520/5/1 1519/5/1
f 1519/5/1 1520/5/1 1481/5/1
f 1520/7/1 1521/7/1 1280/7/1
f 1280/7/1 1521/7/1 1484/7/1
f 1521/5/1 1522/5/1 1482/5/1
f 1482/5/1 1522/5/1 1523/5/1
f 1522/7/1 1524/7/1 1523/7/1
f 1523/7/1 1524/7/1 1525/7/1
f 1524/5/1 1526/5/1 1525/5/1
f 1525/5/1 1526/5/1 1527/5/1
f 1526/7/1 1528/7/1 1527/7/1
f 1527/7/1 1528/7/1 1529/7/1
f 1528/5/1 1530/5/1 1529/5/1
f 1529/5/1 1530/5/1 1531/5/1
f 1530/7/1 1532/7/1 1531/7/1
f 1531/7/1 1532/7/1 1533/7/1
f 1532/5/1 1534/5/1 1533/5/1
f 1533/5/1 1534/5/1 1535/5/1
f 1534/7/1 1536/7/1 1535/7/1
f 1535/7/1 1536/7/1 1537/7/1
f 1536/5/1 1538/5/1 1537/5/1
f 1537/5/1 1538/5/1 1539/5/1
f 1538/7/1 1540/7/1 1539/7/1
f 1539/7/1 1540/7/1 1541/7/1
f 1540/5/1 1542/5/1 1541/5/1
f 1541/5/1 1542/5/1 1543/5/1
f 1542/7/1 1544/7/1 1543/7/1
f 1543/7/1 1544/7/1 1545/7/1
f 1544/5/1 1546/5/1 1545/5/1
f 1545/5/1 1546/5/1 1483/5/1
f 1546/7/1 1547/7/1 1321/7/1
f 1321/7/1 1547/7/1 1487/7/1
f 1547/5/1 1548/5/1 1485/5/1
f 1485/5/1 1548/5/1 1486/5/1
f 1548/7/1 1549/7/1 577/7/1
f 577/7/1 1549/7/1 578/7/1
f 1549/5/1 1550/5/1 1488/5/1
f 1488/5/1 1550/5/1 1551/5/1
f 1550/7/1 1552/7/1 1551/7/1
f 1551/7/1 1552/7/1 1553/7/1
f 1552/5/1 1554/5/1 1553/5/1
f 1553/5/1 1554/5/1 1555/5/1
f 1554/7/1 1556/7/1 1555/7/1
f 1555/7/1 1556/7/1 1557/7/1
f 1556/5/1 1558/5/1 1557/5/1
f 1557/5/1 1558/5/1 1559/5/1
f 1558/7/1 1560/7/1 1559/7/1
f 1559/7/1 1560/7/1 1561/7/1
f 1560/5/1 1562/5/1 1561/5/1
f 1561/5/1 1562/5/1 1563/5/1
f 1562/7/1 1564/7/1 1563/7/1
f 1563/7/1 1564/7/1 1565/7/1
f 1564/5/1 1566/5/1 1565/5/1
f 1565/5/1 1566/5/1 1567/5/1
f 1566/7/1 1568/7/1 1567/7/1
f 1567/7/1 1568/7/1 1569/7/1
f 1568/5/1 1570/5/1 1569/5/1
f 1569/5/1 1570/5/1 1571/5/1
f 1570/7/1 1572/7/1 1571/7/1
f 1571/7/1 1572/7/1 1573/7/1
f 1572/5/1 1574/5/1 1573/5/1
f 1573/5/1 1574/5/1 1575/5/1
f 1574/7/1 1576/7/1 1575/7/1
f 1575/7/1 1576/7/1 1577/7/1
f 1576/5/1 1578/5/1 1577/5/1
f 1577/5/1 1578/5/1 1579/5/1
f 1578/7/1 1580/7/1 1579/7/1
f 1579/7/1 1580/7/1 1489/7/1
f 1580/5/1 1581/5/1 1489/5/1
f 1489/5/1 1581/5/1 1582/5/1
f 1581/3/1 1583/3/1 1582/3/1
f 1582/3/1 1583/3/1 1490/3/1
f 1583/5/1 1584/5/1 1490/5/1
f 1490/5/1 1584/5/1 1491/5/1
f 1584/4/1 1585/4/1 1457/4/1
f 1457/4/1 1585/4/1 1458/4/1
f 1586/2/2 597/2/2 1587/2/2
f 1587/2/2 597/2/2 600/2/2
f 602/2/3 597/2/3 1588/2/3
f 1588/2/3 597/2/3 1586/2/3
f 604/9/3 602/9/3 1589/9/3
f 1589/9/3 602/9/3 1588/9/3
f 606/2/3 604/2/3 1590/2/3
f 1590/2/3 604/2/3 1589/2/3
f 608/9/3 606/9/3 1591/9/3
f 1591/9/3 606/9/3 1590/9/3
f 610/2/3 608/2/3 1592/2/3
f 1592/2/3 608/2/3 1591/2/3
f 612/6/3 610/6/3 1593/6/3
f 1593/6/3 610/6/3 1592/6/3
f 614/2/3 612/2/3 1594/2/3
f 1594/2/3 612/2/3 1593/2/3
f 616/6/3 614/6/3 1595/6/3
f 1595/6/3 614/6/3 1594/6/3
f 618/2/3 616/2/3 1596/2/3
f 1596/2/3 616/2/3 1595/2/3
f 620/10/3 618/10/3 1597/10/3
f 1597/10/3 618/10/3 1596/10/3
f 537/4/3 620/4/3 1251/4/3
f 1251/4/3 620/4/3 1598/4/3
f 1251/5/3 1598/5/3 1254/5/3
f 1254/5/3 1598/5/3 1599/5/3
f 1254/4/3 1599/4/3 1263/4/3
f 1263/4/3 1599/4/3 1600/4/3
f 1263/5/3 1600/5/3 1272/5/3
f 1272/5/3 1600/5/3 1601/5/3
f 1272/4/3 1601/4/3 1281/4/3
f 1281/4/3 1601/4/3 1602/4/3
f 1281/5/3 1602/5/3 1291/5/3
f 1291/5/3 1602/5/3 1603/5/3
f 1291/4/3 1603/4/3 1301/4/3
f 1301/4/3 1603/4/3 1604/4/3
f 1301/5/3 1604/5/3 1310/5/3
f 1310/5/3 1604/5/3 1605/5/3
f 1310/4/3 1605/4/3 1323/4/3
f 1323/4/3 1605/4/3 1606/4/3
f 1323/5/3 1606/5/3 1333/5/3
f 1333/5/3 1606/5/3 1607/5/3
f 1333/4/3 1607/4/3 1344/4/3
f 1344/4/3 1607/4/3 1608/4/3
f 1344/5/3 1608/5/3 1356/5/3
f 1356/5/3 1608/5/3 1609/5/3
f 1356/4/3 1609/4/3 1369/4/3
f 1369/4/3 1609/4/3 1610/4/3
f 1369/5/3 1610/5/3 1387/5/3
f 1387/5/3 1610/5/3 1611/5/3
f 1387/4/3 1611/4/3 1410/4/3
f 1410/4/3 1611/4/3 1612/4/3
f 1410/5/3 1612/5/3 1437/5/3
f 1437/5/3 1612/5/3 1613/5/3
f 1437/4/3 1613/4/3 1459/4/3
f 1459/4/3 1613/4/3 1614/4/3
f 1459/5/3 1614/5/3 1492/5/3
f 1492/5/3 1614/5/3 1597/5/3
f 1615/5/6 1493/5/6 1597/5/6
f 1597/5/6 1493/5/6 1492/5/6
f 1616/4/6 1494/4/6 1615/4/6
f 1615/4/6 1494/4/6 1493/4/6
f 1617/5/6 1495/5/6 1616/5/6
f 1616/5/6 1495/5/6 1494/5/6
f 1618/4/6 1496/4/6 1617/4/6
f 1617/4/6 1496/4/6 1495/4/6
f 1619/5/6 1497/5/6 1618/5/6
f 1618/5/6 1497/5/6 1496/5/6
f 1620/4/6 1498/4/6 1619/4/6
f 1619/4/6 1498/4/6 1497/4/6
f 1621/5/6 1499/5/6 1620/5/6
f 1620/5/6 1499/5/6 1498/5/6
f 1622/4/6 1500/4/6 1621/4/6
f 1621/4/6 1500/4/6 1499/4/6
f 1623/5/6 1501/5/6 1622/5/6
f 1622/5/6 1501/5/6 1500/5/6
f 1624/4/6 1502/4/6 1623/4/6
f 1623/4/6 1502/4/6 1501/4/6
f 1625/5/6 1503/5/6 1624/5/6
f 1624/5/6 1503/5/6 1502/5/6
f 1626/4/6 1504/4/6 1625/4/6
f 1625/4/6 1504/4/6 1503/4/6
f 1627/5/6 1505/5/6 1626/5/6
f 1626/5/6 1505/5/6 1504/5/6
f 1628/4/6 1506/4/6 1627/4/6
f 1627/4/6 1506/4/6 1505/4/6
f 1629/5/6 1507/5/6 1628/5/6
f 1628/5/6 1507/5/6 1506/5/6
f 1630/4/6 1508/4/6 1629/4/6
f 1629/4/6 1508/4/6 1507/4/6
f 1631/5/6 1509/5/6 1630/5/6
f 1630/5/6 1509/5/6 1508/5/6
f 1632/4/6 1510/4/6 1631/4/6
f 1631/4/6 1510/4/6 1509/4/6
f 1633/5/6 1511/5/6 1632/5/6
f 1632/5/6 1511/5/6 1510/5/6
f 1634/4/6 1512/4/6 1633/4/6
f 1633/4/6 1512/4/6 1511/4/6
f 1635/5/6 1513/5/6 1634/5/6
f 1634/5/6 1513/5/6 1512/5/6
f 1636/3/6 1515/3/6 1635/3/6
f 1635/3/6 1515/3/6 1513/3/6
f 1637/5/6 1516/5/6 1636/5/6
f 1636/5/6 1516/5/6 1515/5/6
f 1638/7/6 1518/7/6 1637/7/6
f 1637/7/6 1518/7/6 1516/7/6
f 1639/5/6 1520/5/6 1638/5/6
f 1638/5/6 1520/5/6 1518/5/6
f 1640/7/6 1521/7/6 1639/7/6
f 1639/7/6 1521/7/6 1520/7/6
f 1641/5/6 1522/5/6 1640/5/6
f 1640/5/6 1522/5/6 1521/5/6
f 1642/7/6 1524/7/6 1641/7/6
f 1641/7/6 1524/7/6 1522/7/6
f 1643/5/6 1526/5/6 1642/5/6
f 1642/5/6 1526/5/6 1524/5/6
f 1644/7/6 1528/7/6 1643/7/6
f 1643/7/6 1528/7/6 1526/7/6
f 1645/5/6 1530/5/6 1644/5/6
f 1644/5/6 1530/5/6 1528/5/6
f 1646/7/6 1532/7/6 1645/7/6
f 1645/7/6 1532/7/6 1530/7/6
f 1647/5/6 1534/5/6 1646/5/6
f 1646/5/6 1534/5/6 1532/5/6
f 1648/7/6 1536/7/6 1647/7/6
f 1647/7/6 1536/7/6 1534/7/6
f 1649/5/6 1538/5/6 1648/5/6
f 1648/5/6 1538/5/6 1536/5/6
f 1650/7/6 1540/7/6 1649/7/6
f 1649/7/6 1540/7/6 1538/7/6
f 1651/5/6 1542/5/6 1650/5/6
f 1650/5/6 1542/5/6 1540/5/6
f 1652/7/6 1544/7/6 1651/7/6
f 1651/7/6 1544/7/6 1542/7/6
f 1653/5/6 1546/5/6 1652/5/6
f 1652/5/6 1546/5/6 1544/5/6
f 1654/7/6 1547/7/6 1653/7/6
f 1653/7/6 1547/7/6 1546/7/6
f 1655/5/6 1548/5/6 1654/5/6
f 1654/5/6 1548/5/6 1547/5/6
f 1656/7/6 1549/7/6 1655/7/6
f 1655/7/6 1549/7/6 1548/7/6
f 1657/5/6 1550/5/6 1656/5/6
f 1656/5/6 1550/5/6 1549/5/6
f 1658/7/6 1552/7/6 1657/7/6
f 1657/7/6 1552/7/6 1550/7/6
f 1659/5/6 1554/5/6 1658/5/6
f 1658/5/6 1554/5/6 1552/5/6
f 1660/7/6 1556/7/6 1659/7/6
f 1659/7/6 1556/7/6 1554/7/6
f 1661/5/6 1558/5/6 1660/5/6
f 1660/5/6 1558/5/6 1556/5/6
f 1662/7/6 1560/7/6 1661/7/6
f 1661/7/6 1560/7/6 1558/7/6
f 1663/5/6 1562/5/6 1662/5/6
f 1662/5/6 1562/5/6 1560/5/6
f 1664/7/6 1564/7/6 1663/7/6
f 1663/7/6 1564/7/6 1562/7/6
f 1665/5/6 1566/5/6 1664/5/6
f 1664/5/6 1566/5/6 1564/5/6
f 1666/7/6 1568/7/6 1665/7/6
f 1665/7/6 1568/7/6 1566/7/6
f 1667/5/6 1570/5/6 1666/5/6
f 1666/5/6 1570/5/6 1568/5/6
f 1668/7/6 1572/7/6 1667/7/6
f 1667/7/6 1572/7/6 1570/7/6
f 1669/5/6 1574/5/6 1668/5/6
f 1668/5/6 1574/5/6 1572/5/6
f 1670/7/6 1576/7/6 1669/7/6
f 1669/7/6 1576/7/6 1574/7/6
f 1671/5/6 1578/5/6 1670/5/6
f 1670/5/6 1578/5/6 1576/5/6
f 1672/7/6 1580/7/6 1671/7/6
f 1671/7/6 1580/7/6 1578/7/6
f 1673/5/6 1581/5/6 1672/5/6
f 1672/5/6 1581/5/6 1580/5/6
f 1674/3/6 1583/3/6 1673/3/6
f 1673/3/6 1583/3/6 1581/3/6
f 1675/5/6 1584/5/6 1674/5/6
f 1674/5/6 1584/5/6 1583/5/6
f 1587/2/6 1676/2/6 1586/2/6
f 1586/2/6 1676/2/6 1588/2/6
f 1676/9/6 1677/9/6 1588/9/6
f 1588/9/6 1677/9/6 1589/9/6
f 1677/2/6 1678/2/6 1589/2/6
f 1589/2/6 1678/2/6 1590/2/6
f 1678/9/6 1679/9/6 1590/9/6
f 1590/9/6 1679/9/6 1591/9/6
f 1679/2/6 1680/2/6 1591/2/6
f 1591/2/6 1680/2/6 1592/2/6
f 1680/6/6 1681/6/6 1592/6/6
f 1592/6/6 1681/6/6 1593/6/6
f 1681/2/6 1682/2/6 1593/2/6
f 1593/2/6 1682/2/6 1594/2/6
f 1682/6/6 1683/6/6 1594/6/6
f 1594/6/6 1683/6/6 1595/6/6
f 1683/2/6 1684/2/6 1595/2/6
f 1595/2/6 1684/2/6 1596/2/6
f 1684/10/6 1685/10/6 1596/10/6
f 1596/10/6 1685/10/6 1597/10/6
f 1685/4/6 1585/4/6 1675/4/6
f 1675/4/6 1585/4/6 1584/4/6
f 1686/8/1 1687/8/1 1146/8/1
f 1146/8/1 1687/8/1 1147/8/1
f 1687/4/1 1688/4/1 1147/4/1
f 1147/4/1 1688/4/1 1149/4/1
f 1688/5/1 1689/5/1 1149/5/1
f 1149/5/1 1689/5/1 1150/5/1
f 1690/8/1 1691/8/1 1145/8/1
f 1145/8/1 1691/8/1 1146/8/1
f 1691/4/1 1692/4/1 1686/4/1
f 1686/4/1 1692/4/1 1687/4/1
f 1692/8/1 1693/8/1 1687/8/1
f 1687/8/1 1693/8/1 1694/8/1
f 1695/4/1 1696/4/1 1688/4/1
f 1688/4/1 1696/4/1 1689/4/1
f 1697/4/1 1698/4/1 1690/4/1
f 1690/4/1 1698/4/1 1691/4/1
f 1698/8/1 1699/8/1 1691/8/1
f 1691/8/1 1699/8/1 1692/8/1
f 1699/4/1 1700/4/1 1692/4/1
f 1692/4/1 1700/4/1 1693/4/1
f 1701/5/1 1702/5/1 1695/5/1
f 1695/5/1 1702/5/1 1696/5/1
f 1703/8/1 1704/8/1 1697/8/1
f 1697/8/1 1704/8/1 1698/8/1
f 1704/4/1 1705/4/1 1698/4/1
f 1698/4/1 1705/4/1 1699/4/1
f 1705/8/1 1706/8/1 1699/8/1
f 1699/8/1 1706/8/1 1700/8/1
f 1707/4/1 1708/4/1 1701/4/1
f 1701/4/1 1708/4/1 1702/4/1
f 1709/8/1 1710/8/1 1144/8/1
f 1144/8/1 1710/8/1 1145/8/1
f 1710/4/1 1711/4/1 1703/4/1
f 1703/4/1 1711/4/1 1704/4/1
f 1711/8/1 1712/8/1 1704/8/1
f 1704/8/1 1712/8/1 1705/8/1
f 1712/4/1 1713/4/1 1705/4/1
f 1705/4/1 1713/4/1 1706/4/1
f 1714/5/1 1715/5/1 1707/5/1
f 1707/5/1 1715/5/1 1708/5/1
f 1716/4/1 1717/4/1 1709/4/1
f 1709/4/1 1717/4/1 1710/4/1
f 1717/8/1 1718/8/1 1710/8/1
f 1710/8/1 1718/8/1 1711/8/1
f 1718/4/1 1719/4/1 1711/4/1
f 1711/4/1 1719/4/1 1712/4/1
f 1719/8/1 1720/8/1 1712/8/1
f 1712/8/1 1720/8/1 1713/8/1
f 1721/4/1 1722/4/1 1714/4/1
f 1714/4/1 1722/4/1 1715/4/1
f 1723/8/1 1724/8/1 1716/8/1
f 1716/8/1 1724/8/1 1717/8/1
f 1724/4/1 1725/4/1 1717/4/1
f 1717/4/1 1725/4/1 1718/4/1
f 1725/8/1 1726/8/1 1718/8/1
f 1718/8/1 1726/8/1 1719/8/1
f 1726/4/1 1727/4/1 1719/4/1
f 1719/4/1 1727/4/1 1720/4/1
f 1728/5/1 1729/5/1 1721/5/1
f 1721/5/1 1729/5/1 1722/5/1
f 1730/8/1 1731/8/1 1143/8/1
f 1143/8/1 1731/8/1 1144/8/1
f 1731/4/1 1732/4/1 1723/4/1
f 1723/4/1 1732/4/1 1724/4/1
f 1732/8/1 1733/8/1 1724/8/1
f 1724/8/1 1733/8/1 1725/8/1
f 1733/4/1 1734/4/1 1725/4/1
f 1725/4/1 1734/4/1 1726/4/1
f 1734/8/1 1735/8/1 1726/8/1
f 1726/8/1 1735/8/1 1727/8/1
f 1736/4/1 1737/4/1 1728/4/1
f 1728/4/1 1737/4/1 1729/4/1
f 1738/8/1 1739/8/1 1142/8/1
f 1142/8/1 1739/8/1 1143/8/1
f 1739/4/1 1740/4/1 1730/4/1
f 1730/4/1 1740/4/1 1731/4/1
f 1740/8/1 1741/8/1 1731/8/1
f 1731/8/1 1741/8/1 1732/8/1
f 1741/4/1 1742/4/1 1732/4/1
f 1732/4/1 1742/4/1 1733/4/1
f 1742/8/1 1743/8/1 1733/8/1
f 1733/8/1 1743/8/1 1734/8/1
f 1743/4/1 1744/4/1 1734/4/1
f 1734/4/1 1744/4/1 1735/4/1
f 1745/5/1 1746/5/1 1736/5/1
f 1736/5/1 1746/5/1 1737/5/1
f 1747/8/1 1748/8/1 1141/8/1
f 1141/8/1 1748/8/1 1142/8/1
f 1748/4/1 1749/4/1 1738/4/1
f 1738/4/1 1749/4/1 1739/4/1
f 1749/8/1 1750/8/1 1739/8/1
f 1739/8/1 1750/8/1 1740/8/1
f 1750/4/1 1751/4/1 1740/4/1
f 1740/4/1 1751/4/1 1741/4/1
f 1751/8/1 1752/8/1 1741/8/1
f 1741/8/1 1752/8/1 1742/8/1
f 1752/4/1 1753/4/1 1742/4/1
f 1742/4/1 1753/4/1 1743/4/1
f 1753/8/1 1754/8/1 1743/8/1
f 1743/8/1 1754/8/1 1744/8/1
f 1755/4/1 1756/4/1 1745/4/1
f 1745/4/1 1756/4/1 1746/4/1
f 1757/8/1 1758/8/1 1140/8/1
f 1140/8/1 1758/8/1 1141/8/1
f 1758/4/1 1759/4/1 1747/4/1
f 1747/4/1 1759/4/1 1748/4/1
f 1759/8/1 1760/8/1 1748/8/1
f 1748/8/1 1760/8/1 1749/8/1
f 1760/4/1 1761/4/1 1749/4/1
f 1749/4/1 1761/4/1 1750/4/1
f 1761/8/1 1762/8/1 1750/8/1
f 1750/8/1 1762/8/1 1751/8/1
f 1762/4/1 1763/4/1 1751/4/1
f 1751/4/1 1763/4/1 1752/4/1
f 1763/8/1 1764/8/1 1752/8/1
f 1752/8/1 1764/8/1 1753/8/1
f 1764/4/1 1765/4/1 1753/4/1
f 1753/4/1 1765/4/1 1754/4/1
f 1766/5/1 1767/5/1 1755/5/1
f 1755/5/1 1767/5/1 1756/5/1
f 1768/8/1 1769/8/1 1137/8/1
f 1137/8/1 1769/8/1 1140/8/1
f 1769/4/1 1770/4/1 1757/4/1
f 1757/4/1 1770/4/1 1758/4/1
f 1770/8/1 1771/8/1 1758/8/1
f 1758/8/1 1771/8/1 1759/8/1
f 1771/4/1 1772/4/1 1759/4/1
f 1759/4/1 1772/4/1 1760/4/1
f 1772/8/1 1773/8/1 1760/8/1
f 1760/8/1 1773/8/1 1761/8/1
f 1773/4/1 1774/4/1 1761/4/1
f 1761/4/1 1774/4/1 1762/4/1
f 1774/8/1 1775/8/1 1762/8/1
f 1762/8/1 1775/8/1 1763/8/1
f 1775/4/1 1776/4/1 1763/4/1
f 1763/4/1 1776/4/1 1764/4/1
f 1776/8/1 1777/8/1 1764/8/1
f 1764/8/1 1777/8/1 1765/8/1
f 1778/4/1 1779/4/1 1766/4/1
f 1766/4/1 1779/4/1 1767/4/1
f 1780/8/1 1781/8/1 1134/8/1
f 1134/8/1 1781/8/1 1137/8/1
f 1781/4/1 1782/4/1 1768/4/1
f 1768/4/1 1782/4/1 1783/4/1
f 1782/8/1 1784/8/1 1783/8/1
f 1783/8/1 1784/8/1 1785/8/1
f 1784/4/1 1786/4/1 1785/4/1
f 1785/4/1 1786/4/1 1769/4/1
f 1786/8/1 1787/8/1 1769/8/1
f 1769/8/1 1787/8/1 1770/8/1
f 1787/4/1 1788/4/1 1770/4/1
f 1770/4/1 1788/4/1 1771/4/1
f 1788/8/1 1789/8/1 1771/8/1
f 1771/8/1 1789/8/1 1772/8/1
f 1789/4/1 1790/4/1 1772/4/1
f 1772/4/1 1790/4/1 1773/4/1
f 1790/8/1 1791/8/1 1773/8/1
f 1773/8/1 1791/8/1 1774/8/1
f 1791/4/1 1792/4/1 1774/4/1
f 1774/4/1 1792/4/1 1775/4/1
f 1792/8/1 1793/8/1 1775/8/1
f 1775/8/1 1793/8/1 1776/8/1
f 1793/4/1 1794/4/1 1776/4/1
f 1776/4/1 1794/4/1 1777/4/1
f 1795/5/1 1796/5/1 1778/5/1
f 1778/5/1 1796/5/1 1779/5/1
f 1797/8/1 1798/8/1 1133/8/1
f 1133/8/1 1798/8/1 1134/8/1
f 1798/4/1 1799/4/1 1780/4/1
f 1780/4/1 1799/4/1 1800/4/1
f 1799/8/1 1801/8/1 1800/8/1
f 1800/8/1 1801/8/1 1802/8/1
f 1801/4/1 1803/4/1 1802/4/1
f 1802/4/1 1803/4/1 1781/4/1
f 1803/8/1 1804/8/1 1781/8/1
f 1781/8/1 1804/8/1 1782/8/1
f 1804/4/1 1805/4/1 1782/4/1
f 1782/4/1 1805/4/1 1784/4/1
f 1805/8/1 1806/8/1 1784/8/1
f 1784/8/1 1806/8/1 1786/8/1
f 1806/4/1 1807/4/1 1786/4/1
f 1786/4/1 1807/4/1 1787/4/1
f 1807/8/1 1808/8/1 1787/8/1
f 1787/8/1 1808/8/1 1788/8/1
f 1808/4/1 1809/4/1 1788/4/1
f 1788/4/1 1809/4/1 1789/4/1
f 1809/8/1 1810/8/1 1789/8/1
f 1789/8/1 1810/8/1 1790/8/1
f 1810/4/1 1811/4/1 1790/4/1
f 1790/4/1 1811/4/1 1791/4/1
f 1811/8/1 1812/8/1 1791/8/1
f 1791/8/1 1812/8/1 1792/8/1
f 1812/4/1 1813/4/1 1792/4/1
f 1792/4/1 1813/4/1 1793/4/1
f 1813/8/1 1814/8/1 1793/8/1
f 1793/8/1 1814/8/1 1794/8/1
f 1815/4/1 1816/4/1 1795/4/1
f 1795/4/1 1816/4/1 1796/4/1
f 1436/8/1 1817/8/1 596/8/1
f 596/8/1 1817/8/1 1133/8/1
f 1817/4/1 1818/4/1 1797/4/1
f 1797/4/1 1818/4/1 1798/4/1
f 1818/8/1 1819/8/1 1798/8/1
f 1798/8/1 1819/8/1 1799/8/1
f 1819/4/1 1820/4/1 1799/4/1
f 1799/4/1 1820/4/1 1801/4/1
f 1820/8/1 1821/8/1 1801/8/1
f 1801/8/1 1821/8/1 1803/8/1
f 1821/4/1 1822/4/1 1803/4/1
f 1803/4/1 1822/4/1 1804/4/1
f 1822/8/1 1823/8/1 1804/8/1
f 1804/8/1 1823/8/1 1805/8/1
f 1823/4/1 1824/4/1 1805/4/1
f 1805/4/1 1824/4/1 1806/4/1
f 1824/8/1 1825/8/1 1806/8/1
f 1806/8/1 1825/8/1 1807/8/1
f 1825/4/1 1826/4/1 1807/4/1
f 1807/4/1 1826/4/1 1808/4/1
f 1826/8/1 1827/8/1 1808/8/1
f 1808/8/1 1827/8/1 1809/8/1
f 1827/4/1 1828/4/1 1809/4/1
f 1809/4/1 1828/4/1 1810/4/1
f 1828/8/1 1829/8/1 1810/8/1
f 1810/8/1 1829/8/1 1811/8/1
f 1829/4/1 1830/4/1 1811/4/1
f 1811/4/1 1830/4/1 1812/4/1
f 1830/8/1 1831/8/1 1812/8/1
f 1812/8/1 1831/8/1 1813/8/1
f 1831/4/1 1832/4/1 1813/4/1
f 1813/4/1 1832/4/1 1814/4/1
f 1833/5/1 1834/5/1 1815/5/1
f 1815/5/1 1834/5/1 1816/5/1
f 1835/8/1 1836/8/1 1817/8/1
f 1817/8/1 1836/8/1 1818/8/1
f 1837/8/1 1838/8/1 1819/8/1
f 1819/8/1 1838/8/1 1820/8/1
f 1839/8/1 1840/8/1 1821/8/1
f 1821/8/1 1840/8/1 1822/8/1
f 1841/8/1 1842/8/1 1823/8/1
f 1823/8/1 1842/8/1 1824/8/1
f 1843/8/1 1844/8/1 1825/8/1
f 1825/8/1 1844/8/1 1826/8/1
f 1845/8/1 1846/8/1 1827/8/1
f 1827/8/1 1846/8/1 1828/8/1
f 1847/8/1 1848/8/1 1829/8/1
f 1829/8/1 1848/8/1 1830/8/1
f 1849/8/1 1850/8/1 1831/8/1
f 1831/8/1 1850/8/1 1832/8/1
f 1851/4/1 1852/4/1 1833/4/1
f 1833/4/1 1852/4/1 1834/4/1
f 1853/4/1 1854/4/1 1436/4/1
f 1436/4/1 1854/4/1 1817/4/1
f 1855/4/1 1856/4/1 1818/4/1
f 1818/4/1 1856/4/1 1819/4/1
f 1857/4/1 1858/4/1 1820/4/1
f 1820/4/1 1858/4/1 1821/4/1
f 1859/4/1 1860/4/1 1822/4/1
f 1822/4/1 1860/4/1 1823/4/1
f 1861/4/1 1862/4/1 1824/4/1
f 1824/4/1 1862/4/1 1825/4/1
f 1863/4/1 1864/4/1 1826/4/1
f 1826/4/1 1864/4/1 1827/4/1
f 1865/4/1 1866/4/1 1828/4/1
f 1828/4/1 1866/4/1 1829/4/1
f 1867/4/1 1868/4/1 1830/4/1
f 1830/4/1 1868/4/1 1831/4/1
f 1869/4/1 1870/4/1 1694/4/1
f 1694/4/1 1870/4/1 1688/4/1
f 1870/5/1 1871/5/1 1851/5/1
f 1851/5/1 1871/5/1 1852/5/1
f 1585/5/1 1872/5/1 1853/5/1
f 1853/5/1 1872/5/1 1854/5/1
f 1872/4/1 1873/4/1 1835/4/1
f 1835/4/1 1873/4/1 1836/4/1
f 1873/5/1 1874/5/1 1855/5/1
f 1855/5/1 1874/5/1 1856/5/1
f 1874/4/1 1875/4/1 1837/4/1
f 1837/4/1 1875/4/1 1838/4/1
f 1875/5/1 1876/5/1 1857/5/1
f 1857/5/1 1876/5/1 1858/5/1
f 1876/4/1 1877/4/1 1839/4/1
f 1839/4/1 1877/4/1 1840/4/1
f 1877/5/1 1878/5/1 1859/5/1
f 1859/5/1 1878/5/1 1860/5/1
f 1878/4/1 1879/4/1 1841/4/1
f 1841/4/1 1879/4/1 1842/4/1
f 1879/5/1 1880/5/1 1861/5/1
f 1861/5/1 1880/5/1 1862/5/1
f 1880/4/1 1881/4/1 1843/4/1
f 1843/4/1 1881/4/1 1844/4/1
f 1881/5/1 1882/5/1 1863/5/1
f 1863/5/1 1882/5/1 1864/5/1
f 1882/4/1 1883/4/1 1845/4/1
f 1845/4/1 1883/4/1 1846/4/1
f 1883/5/1 1884/5/1 1865/5/1
f 1865/5/1 1884/5/1 1866/5/1
f 1884/4/1 1885/4/1 1847/4/1
f 1847/4/1 1885/4/1 1848/4/1
f 1885/5/1 1886/5/1 1867/5/1
f 1867/5/1 1886/5/1 1868/5/1
f 1886/4/1 1887/4/1 1849/4/1
f 1849/4/1 1887/4/1 1850/4/1
f 1887/5/1 1888/5/1 1869/5/1
f 1869/5/1 1888/5/1 1870/5/1
f 1888/4/1 1889/4/1 1870/4/1
f 1870/4/1 1889/4/1 1871/4/1
f 1587/2/2 600/2/2 1890/2/2
f 1890/2/2 600/2/2 1152/2/2
f 1154/2/5 1891/2/5 1152/2/5
f 1152/2/5 1891/2/5 1890/2/5
f 1156/9/5 1892/9/5 1154/9/5
f 1154/9/5 1892/9/5 1891/9/5
f 1158/2/5 1893/2/5 1156/2/5
f 1156/2/5 1893/2/5 1892/2/5
f 1160/9/5 1894/9/5 1158/9/5
f 1158/9/5 1894/9/5 1893/9/5
f 1162/2/5 1895/2/5 1160/2/5
f 1160/2/5 1895/2/5 1894/2/5
f 1164/6/5 1896/6/5 1162/6/5
f 1162/6/5 1896/6/5 1895/6/5
f 1166/2/5 1897/2/5 1164/2/5
f 1164/2/5 1897/2/5 1896/2/5
f 1168/6/5 1898/6/5 1166/6/5
f 1166/6/5 1898/6/5 1897/6/5
f 1170/2/5 1899/2/5 1168/2/5
f 1168/2/5 1899/2/5 1898/2/5
f 1172/10/5 1900/10/5 1170/10/5
f 1170/10/5 1900/10/5 1899/10/5
f 1150/5/5 1689/5/5 1172/5/5
f 1172/5/5 1689/5/5 1901/5/5
f 1689/4/5 1696/4/5 1901/4/5
f 1901/4/5 1696/4/5 1902/4/5
f 1696/5/5 1702/5/5 1902/5/5
f 1902/5/5 1702/5/5 1903/5/5
f 1702/4/5 1708/4/5 1903/4/5
f 1903/4/5 1708/4/5 1904/4/5
f 1708/5/5 1715/5/5 1904/5/5
f 1904/5/5 1715/5/5 1905/5/5
f 1715/4/5 1722/4/5 1905/4/5
f 1905/4/5 1722/4/5 1906/4/5
f 1722/5/5 1729/5/5 1906/5/5
f 1906/5/5 1729/5/5 1907/5/5
f 1729/4/5 1737/4/5 1907/4/5
f 1907/4/5 1737/4/5 1908/4/5
f 1737/5/5 1746/5/5 1908/5/5
f 1908/5/5 1746/5/5 1909/5/5
f 1746/4/5 1756/4/5 1909/4/5
f 1909/4/5 1756/4/5 1910/4/5
f 1756/5/5 1767/5/5 1910/5/5
f 1910/5/5 1767/5/5 1911/5/5
f 1767/4/5 1779/4/5 1911/4/5
f 1911/4/5 1779/4/5 1912/4/5
f 1779/5/5 1796/5/5 1912/5/5
f 1912/5/5 1796/5/5 1913/5/5
f 1796/4/5 1816/4/5 1913/4/5
f 1913/4/5 1816/4/5 1914/4/5
f 1816/5/5 1834/5/5 1914/5/5
f 1914/5/5 1834/5/5 1915/5/5
f 1834/4/5 1852/4/5 1915/4/5
f 1915/4/5 1852/4/5 1916/4/5
f 1852/5/5 1871/5/5 1916/5/5
f 1916/5/5 1871/5/5 1917/5/5
f 1871/4/5 1889/4/5 1917/4/5
f 1917/4/5 1889/4/5 1900/4/5
f 1918/5/6 1872/5/6 1685/5/6
f 1685/5/6 1872/5/6 1585/5/6
f 1919/4/6 1873/4/6 1918/4/6
f 1918/4/6 1873/4/6 1872/4/6
f 1920/5/6 1874/5/6 1919/5/6
f 1919/5/6 1874/5/6 1873/5/6
f 1921/4/6 1875/4/6 1920/4/6
f 1920/4/6 1875/4/6 1874/4/6
f 1922/5/6 1876/5/6 1921/5/6
f 1921/5/6 1876/5/6 1875/5/6
f 1923/4/6 1877/4/6 1922/4/6
f 1922/4/6 1877/4/6 1876/4/6
f 1924/5/6 1878/5/6 1923/5/6
f 1923/5/6 1878/5/6 1877/5/6
f 1925/4/6 1879/4/6 1924/4/6
f 1924/4/6 1879/4/6 1878/4/6
f 1926/5/6 1880/5/6 1925/5/6
f 1925/5/6 1880/5/6 1879/5/6
f 1927/4/6 1881/4/6 1926/4/6
f 1926/4/6 1881/4/6 1880/4/6
f 1928/5/6 1882/5/6 1927/5/6
f 1927/5/6 1882/5/6 1881/5/6
f 1929/4/6 1883/4/6 1928/4/6
f 1928/4/6 1883/4/6 1882/4/6
f 1930/5/6 1884/5/6 1929/5/6
f 1929/5/6 1884/5/6 1883/5/6
f 1931/4/6 1885/4/6 1930/4/6
f 1930/4/6 1885/4/6 1884/4/6
f 1932/5/6 1886/5/6 1931/5/6
f 1931/5/6 1886/5/6 1885/5/6
f 1933/4/6 1887/4/6 1932/4/6
f 1932/4/6 1887/4/6 1886/4/6
f 1934/5/6 1888/5/6 1933/5/6
f 1933/5/6 1888/5/6 1887/5/6
f 1890/2/6 1891/2/6 1587/2/6
f 1587/2/6 1891/2/6 1676/2/6
f 1891/9/6 1892/9/6 1676/9/6
f 1676/9/6 1892/9/6 1677/9/6
f 1892/2/6 1893/2/6 1677/2/6
f 1677/2/6 1893/2/6 1678/2/6
f 1893/9/6 1894/9/6 1678/9/6
f 1678/9/6 1894/9/6 1679/9/6
f 1894/2/6 1895/2/6 1679/2/6
f 1679/2/6 1895/2/6 1680/2/6
f 1895/6/6 1896/6/6 1680/6/6
f 1680/6/6 1896/6/6 1681/6/6
f 1896/2/6 1897/2/6 1681/2/6
f 1681/2/6 1897/2/6 1682/2/6
f 1897/6/6 1898/6/6 1682/6/6
f 1682/6/6 1898/6/6 1683/6/6
f 1898/2/6 1899/2/6 1683/2/6
f 1683/2/6 1899/2/6 1684/2/6
f 1899/10/6 1900/10/6 1684/10/6
f 1684/10/6 1900/10/6 1685/10/6
f 1900/4/6 1889/4/6 1934/4/6
f 1934/4/6 1889/4/6 1888/4/6
