# Vengi binary mesh normalized for Tanks of Freedom II

mtllib ../../materials/vox_grass.mtl
o snow_road_4_tile

v 4 4 3.9
v 3.9 4 3.9
v 3.9 4 4
v 4 4 4
v 3.8 4 3.9
v 3.8 4 4
v 3.7 4 3.9
v 3.6 4 3.9
v 3.6 4 4
v 3.7 4 4
v 3.5 4 3.9
v 3.4 4 3.9
v 3.4 4 4
v 3.5 4 4
v 3.3 4 3.9
v 3.2 4 3.9
v 3.2 4 4
v 3.3 4 4
v 3.1 4 3.9
v 3 4 3.9
v 3 4 4
v 3.1 4 4
v 2.9 4 3.9
v 2.8 4 3.9
v 2.8 4 4
v 2.9 4 4
v 2.7 4 3.9
v 2.6 4 3.9
v 2.6 4 4
v 2.7 4 4
v 2.5 4 3.9
v 2.4 4 3.9
v 2.4 4 4
v 2.5 4 4
v 2.3 4 3.9
v 2.2 4 3.9
v 2.2 4 4
v 2.3 4 4
v 2.1 4 3.9
v 2 4 3.9
v 2 4 4
v 2.1 4 4
v 1.9 4 3.9
v 1.8 4 3.9
v 1.8 4 4
v 1.9 4 4
v 1.7 4 3.9
v 1.6 4 3.9
v 1.6 4 4
v 1.7 4 4
v 1.5 4 3.9
v 1.4 4 3.9
v 1.4 4 4
v 1.5 4 4
v 1.3 4 3.9
v 1.2 4 3.9
v 1.2 4 4
v 1.3 4 4
v 1.1 4 3.9
v 1 4 3.9
v 1 4 4
v 1.1 4 4
v 0.9 4 3.9
v 0.8 4 3.9
v 0.8 4 4
v 0.9 4 4
v 0.7 4 3.9
v 0.6 4 3.9
v 0.6 4 4
v 0.7 4 4
v 0.5 4 3.9
v 0.4 4 3.9
v 0.4 4 4
v 0.5 4 4
v 0.3 4 3.9
v 0.2 4 3.9
v 0.2 4 4
v 0.3 4 4
v 0.1 4 3.9
v 0 4 3.9
v 0 4 4
v 0.1 4 4
v -0.1 4 3.9
v -0.2 4 3.9
v -0.2 4 4
v -0.1 4 4
v -0.3 4 3.9
v -0.4 4 3.9
v -0.4 4 4
v -0.3 4 4
v -0.5 4 3.9
v -0.6 4 3.9
v -0.6 4 4
v -0.5 4 4
v -0.7 4 3.9
v -0.8 4 3.9
v -0.8 4 4
v -0.7 4 4
v -0.9 4 3.9
v -1 4 3.9
v -1 4 4
v -0.9 4 4
v -1.1 4 3.9
v -1.2 4 3.9
v -1.2 4 4
v -1.1 4 4
v -1.3 4 3.9
v -1.4 4 3.9
v -1.4 4 4
v -1.3 4 4
v -1.5 4 3.9
v -1.6 4 3.9
v -1.6 4 4
v -1.5 4 4
v -1.7 4 3.9
v -1.8 4 3.9
v -1.8 4 4
v -1.7 4 4
v -1.9 4 3.9
v -2 4 3.9
v -2 4 4
v -1.9 4 4
v -2.1 4 3.9
v -2.2 4 3.9
v -2.2 4 4
v -2.1 4 4
v 4 4 3.8
v 3.9 4 3.8
v 3.8 4 3.8
v 3.7 4 3.8
v 3.6 4 3.8
v 3.5 4 3.8
v 3.4 4 3.8
v 3.3 4 3.8
v 3.2 4 3.8
v 3.1 4 3.8
v 3 4 3.8
v 2.9 4 3.8
v 2.8 4 3.8
v 2.7 4 3.8
v 2.6 4 3.8
v 2.5 4 3.8
v 2.4 4 3.8
v 2.3 4 3.8
v 2.2 4 3.8
v 2.1 4 3.8
v -2.1 4 3.8
v -2.2 4 3.8
v 4 4 3.7
v 3.9 4 3.7
v 3.8 4 3.7
v 3.7 4 3.7
v 3.6 4 3.7
v 3.5 4 3.7
v 3.4 4 3.7
v 3.3 4 3.7
v 3.2 4 3.7
v 3.1 4 3.7
v 3 4 3.7
v 2.9 4 3.7
v 2.8 4 3.7
v 2.7 4 3.7
v 2.6 4 3.7
v 2.5 4 3.7
v 2.4 4 3.7
v 2.3 4 3.7
v 2.2 4 3.7
v 2.1 4 3.7
v 2 4 3.7
v -2 4 3.7
v -2.1 4 3.7
v -2.2 4 3.7
v 4 4 3.6
v 3.9 4 3.6
v 3.8 4 3.6
v 3.7 4 3.6
v 3.6 4 3.6
v 3.5 4 3.6
v 3.4 4 3.6
v 3.3 4 3.6
v 3.2 4 3.6
v 3.1 4 3.6
v 3 4 3.6
v 2.9 4 3.6
v 2.8 4 3.6
v 2.7 4 3.6
v 2.6 4 3.6
v 2.5 4 3.6
v 2.4 4 3.6
v 2.3 4 3.6
v 2.2 4 3.6
v 2.1 4 3.6
v -2.1 4 3.6
v -2.2 4 3.6
v 4 4 3.5
v 3.9 4 3.5
v 3.8 4 3.5
v 3.7 4 3.5
v 3.6 4 3.5
v 3.5 4 3.5
v 3.4 4 3.5
v 3.3 4 3.5
v 3.2 4 3.5
v 3.1 4 3.5
v 3 4 3.5
v 2.9 4 3.5
v 2.8 4 3.5
v 2.7 4 3.5
v 2.6 4 3.5
v 2.5 4 3.5
v 2.4 4 3.5
v 4 4 3.4
v 3.9 4 3.4
v 3.8 4 3.4
v 3.7 4 3.4
v 3.6 4 3.4
v 3.5 4 3.4
v 3.4 4 3.4
v 3.3 4 3.4
v 3.2 4 3.4
v 3.1 4 3.4
v 3 4 3.4
v 2.9 4 3.4
v 2.8 4 3.4
v 2.7 4 3.4
v 4 4 3.3
v 3.9 4 3.3
v 3.8 4 3.3
v 3.7 4 3.3
v 3.6 4 3.3
v 3.5 4 3.3
v 3.4 4 3.3
v 3.3 4 3.3
v 3.2 4 3.3
v 3.1 4 3.3
v 3 4 3.3
v 4 4 3.2
v 3.9 4 3.2
v 3.8 4 3.2
v 3.7 4 3.2
v 3.6 4 3.2
v 3.5 4 3.2
v 3.4 4 3.2
v 3.3 4 3.2
v 3.2 4 3.2
v 3.1 4 3.2
v 0.1 4 3.2
v 0 4 3.2
v -0.1 4 3.2
v 4 4 3.1
v 3.9 4 3.1
v 3.8 4 3.1
v 3.7 4 3.1
v 3.6 4 3.1
v 3.5 4 3.1
v 3.4 4 3.1
v 3.3 4 3.1
v 3.2 4 3.1
v 4 4 3
v 3.9 4 3
v 3.8 4 3
v 3.7 4 3
v 3.6 4 3
v 3.5 4 3
v 3.4 4 3
v 3.3 4 3
v -1.5 4 3
v -1.6 4 3
v -1.7 4 3
v -1.8 4 3
v 4 4 2.9
v 3.9 4 2.9
v 3.8 4 2.9
v 3.7 4 2.9
v 3.6 4 2.9
v 3.5 4 2.9
v 3.4 4 2.9
v -1.6 4 2.9
v -1.8 4 2.9
v 4 4 2.8
v 3.9 4 2.8
v 3.8 4 2.8
v 3.7 4 2.8
v 3.6 4 2.8
v 3.5 4 2.8
v 3.4 4 2.8
v -1.6 4 2.8
v -1.8 4 2.8
v 4 4 2.7
v 3.9 4 2.7
v 3.8 4 2.7
v 3.7 4 2.7
v 3.6 4 2.7
v 3.5 4 2.7
v 3.4 4 2.7
v -1.6 4 2.7
v -1.8 4 2.7
v 4 4 2.6
v 3.9 4 2.6
v 3.8 4 2.6
v 3.7 4 2.6
v 3.6 4 2.6
v 3.5 4 2.6
v 2.1 4 2.6
v 2 4 2.6
v -1.6 4 2.6
v -1.8 4 2.6
v -2 4 2.6
v -2.1 4 2.6
v 4 4 2.5
v 3.9 4 2.5
v 3.8 4 2.5
v 3.7 4 2.5
v 3.6 4 2.5
v 3.5 4 2.5
v -1.5 4 2.5
v -1.6 4 2.5
v -1.8 4 2.5
v 4 4 2.4
v 3.9 4 2.4
v 3.8 4 2.4
v 3.7 4 2.4
v 3.6 4 2.4
v 3.5 4 2.4
v 1.9 4 2.4
v 1.8 4 2.4
v -1.8 4 2.4
v -1.9 4 2.4
v 4 4 2.3
v 3.9 4 2.3
v 3.8 4 2.3
v 3.7 4 2.3
v 3.6 4 2.3
v 4 4 2.2
v 3.9 4 2.2
v 3.8 4 2.2
v 3.7 4 2.2
v 3.6 4 2.2
v 2.2 4 2.2
v 2.1 4 2.2
v 2 4 2.2
v 1.9 4 2.2
v 0.1 4 2.2
v -0.1 4 2.2
v -1.9 4 2.2
v -2 4 2.2
v -2.1 4 2.2
v -2.2 4 2.2
v 4 4 2.1
v 3.9 4 2.1
v 3.8 4 2.1
v 3.7 4 2.1
v 3.6 4 2.1
v 2.6 4 2.1
v 2.5 4 2.1
v 2.4 4 2.1
v 2.3 4 2.1
v 2.2 4 2.1
v 4 4 2
v 3.9 4 2
v 3.8 4 2
v 3.7 4 2
v 3.6 4 2
v 3.5 4 2
v 3.4 4 2
v 3.3 4 2
v 3.2 4 2
v 3.1 4 2
v 3 4 2
v 2.9 4 2
v 2.8 4 2
v 2.7 4 2
v 2.6 4 2
v 2.2 4 2
v 2.1 4 2
v 2 4 2
v 0.5 4 2
v 0.4 4 2
v 0.3 4 2
v 0.2 4 2
v 0.1 4 2
v -0.1 4 2
v -0.2 4 2
v -0.3 4 2
v -0.4 4 2
v -0.5 4 2
v -2 4 2
v -2.1 4 2
v -2.2 4 2
v 4 4 1.9
v 2.6 4 1.9
v 2.4 4 1.9
v 2.2 4 1.9
v 4 4 1.8
v 3.9 4 1.8
v 3.9 4 1.9
v 2.6 4 1.8
v 2.4 4 1.8
v 0.5 4 1.8
v -0.5 4 1.8
v 4 4 1.7
v 3 4 1.7
v 3 4 1.8
v 4 4 1.6
v 3.9 4 1.6
v 3.9 4 1.7
v 2.9 4 1.6
v 2.8 4 1.6
v 2.8 4 1.8
v 2.9 4 1.8
v 2.7 4 1.6
v 2.6 4 1.6
v 2.7 4 1.8
v 4 4 1.5
v 3.9 4 1.5
v 3 4 1.5
v 2.9 4 1.5
v 2.8 4 1.5
v 2.7 4 1.5
v 2.6 4 1.5
v 2.5 4 1.5
v 2.5 4 1.8
v 4 4 1.4
v 3.9 4 1.4
v 4 4 1.3
v 3.9 4 1.3
v 4 4 1.2
v 3.9 4 1.2
v 4 4 1.1
v 3.9 4 1.1
v 4 4 1
v 3.9 4 1
v 4 4 0.9
v 3.9 4 0.9
v 4 4 0.8
v 3.9 4 0.8
v 4 4 0.7
v 3.9 4 0.7
v 4 4 0.6
v 3.9 4 0.6
v 4 4 0.5
v 3.9 4 0.5
v 2 4 0.5
v 1.9 4 0.5
v 1.8 4 0.5
v -1.8 4 0.5
v -1.9 4 0.5
v -2 4 0.5
v 4 4 0.4
v 3.9 4 0.4
v 4 4 0.3
v 3.9 4 0.3
v 0.1 4 0.3
v -0.5 4 0.3
v 0.1 4 1.8
v 4 4 0.2
v 3.9 4 0.2
v 0.2 4 0.2
v 0.1 4 0.2
v 0.2 4 1.8
v -0.1 4 0.2
v -0.1 4 0.3
v -0.5 4 0.2
v 4 4 0.1
v 3.9 4 0.1
v 3.2 4 0.1
v 3 4 0.1
v 3.2 4 1.7
v 2.5 4 0.1
v 2.4 4 0.1
v 2.2 4 0.1
v 0.3 4 0.1
v 0.2 4 0.1
v 0.3 4 1.8
v 0.1 4 0.1
v -0.1 4 0.1
v -0.2 4 0.1
v -0.2 4 0.2
v -0.5 4 0.1
v 4 4 0
v 3.9 4 0
v 4 4 -0.1
v 3.9 4 -0.1
v 3.2 4 -0.1
v 2.2 4 -0.1
v 0.3 4 -0.1
v 0.2 4 -0.1
v 0.1 4 -0.1
v -0.1 4 -0.1
v -0.2 4 -0.1
v -0.3 4 -0.1
v -0.3 4 0.1
v 4 4 -0.2
v 3.9 4 -0.2
v 0.2 4 -0.2
v 0.1 4 -0.2
v -0.1 4 -0.2
v -0.2 4 -0.2
v 4 4 -0.3
v 3.9 4 -0.3
v 0.1 4 -0.3
v -0.1 4 -0.3
v 4 4 -0.4
v 3.9 4 -0.4
v 4 4 -0.5
v 3.9 4 -0.5
v 2 4 -0.5
v 1.8 4 -0.5
v -1.8 4 -0.5
v -2 4 -0.5
v 4 4 -0.6
v 3.9 4 -0.6
v 4 4 -0.7
v 3.9 4 -0.7
v 4 4 -0.8
v 3.9 4 -0.8
v 4 4 -0.9
v 3.9 4 -0.9
v 4 4 -1
v 3.9 4 -1
v 4 4 -1.1
v 3.9 4 -1.1
v 4 4 -1.2
v 3.9 4 -1.2
v 4 4 -1.3
v 3.9 4 -1.3
v 4 4 -1.4
v 3.9 4 -1.4
v 4 4 -1.5
v 3.9 4 -1.5
v 4 4 -1.6
v 3.9 4 -1.6
v 4 4 -1.7
v 3.9 4 -1.7
v 4 4 -1.8
v 3.9 4 -1.8
v 3.2 4 -1.8
v 2.2 4 -1.8
v 0.5 4 -1.8
v 0.3 4 -1.8
v 0.2 4 -1.8
v 0.1 4 -1.8
v -0.1 4 -1.8
v -0.2 4 -1.8
v -0.3 4 -1.8
v -0.5 4 -1.8
v 4 4 -1.9
v 2.4 4 -1.9
v 2.4 4 -1.8
v 2.2 4 -1.9
v 4 4 -2
v 3.9 4 -2
v 3.9 4 -1.9
v 2.2 4 -2
v 2 4 -2
v 0.5 4 -2
v -0.5 4 -2
v -2 4 -2
v -2.2 4 -2
v 4 4 -2.1
v 3.7 4 -2.1
v 3.7 4 -2
v 2.6 4 -2.1
v 2.6 4 -2
v 2 4 -2.1
v 4 4 -2.2
v 3.9 4 -2.2
v 3.9 4 -2.1
v 3.8 4 -2.2
v 3.8 4 -2.1
v 3.7 4 -2.2
v 3.6 4 -2.2
v 3.6 4 -2.1
v 2.2 4 -2.2
v 2.2 4 -2.1
v 2 4 -2.2
v 1.8 4 -2.2
v 1.7 4 -2.2
v 1.6 4 -2.2
v 1.5 4 -2.2
v 1.4 4 -2.2
v 1.3 4 -2.2
v 1.2 4 -2.2
v 1.1 4 -2.2
v 1 4 -2.2
v 0.9 4 -2.2
v 0.8 4 -2.2
v 0.7 4 -2.2
v 0.6 4 -2.2
v 0.5 4 -2.2
v -0.5 4 -2.2
v -0.6 4 -2.2
v -0.7 4 -2.2
v -0.8 4 -2.2
v -0.9 4 -2.2
v -1 4 -2.2
v -1.1 4 -2.2
v -1.2 4 -2.2
v -1.3 4 -2.2
v -1.4 4 -2.2
v -1.5 4 -2.2
v -1.8 4 -2.2
v -2 4 -2.2
v -2.2 4 -2.2
v 4 0 -2.2
v 4 0 4
v -2.2 0 4
v -2.2 0 -2.2
v 4 3 4
v 4 3 -2.2
v 4 3.1 4
v 4 3.1 -2.2
v 4 3.2 4
v 4 3.2 -2.2
v 4 3.3 4
v 4 3.3 -2.2
v 4 3.4 4
v 4 3.4 -2.2
v 4 3.5 4
v 4 3.5 -2.2
v 4 3.6 4
v 4 3.6 -2.2
v 4 3.7 4
v 4 3.7 -2.2
v 4 3.8 4
v 4 3.8 -2.2
v 4 3.9 4
v 4 3.9 -2.2
v 4 3.9 3.9
v 4 3.9 3.8
v 4 3.9 3.7
v 4 3.9 3.6
v 4 3.9 3.5
v 4 3.9 3.4
v 4 3.9 3.3
v 4 3.9 3.2
v 4 3.9 3.1
v 4 3.9 3
v 4 3.9 2.9
v 4 3.9 2.8
v 4 3.9 2.7
v 4 3.9 2.6
v 4 3.9 2.5
v 4 3.9 2.4
v 4 3.9 2.3
v 4 3.9 2.2
v 4 3.9 2.1
v 4 3.9 2
v 4 3.9 1.9
v 4 3.9 1.8
v 4 3.9 1.7
v 4 3.9 1.6
v 4 3.9 1.5
v 4 3.9 1.4
v 4 3.9 1.3
v 4 3.9 1.2
v 4 3.9 1.1
v 4 3.9 1
v 4 3.9 0.9
v 4 3.9 0.8
v 4 3.9 0.7
v 4 3.9 0.6
v 4 3.9 0.5
v 4 3.9 0.4
v 4 3.9 0.3
v 4 3.9 0.2
v 4 3.9 0.1
v 4 3.9 0
v 4 3.9 -0.1
v 4 3.9 -0.2
v 4 3.9 -0.3
v 4 3.9 -0.4
v 4 3.9 -0.5
v 4 3.9 -0.6
v 4 3.9 -0.7
v 4 3.9 -0.8
v 4 3.9 -0.9
v 4 3.9 -1
v 4 3.9 -1.1
v 4 3.9 -1.2
v 4 3.9 -1.3
v 4 3.9 -1.4
v 4 3.9 -1.5
v 4 3.9 -1.6
v 4 3.9 -1.7
v 4 3.9 -1.8
v 4 3.9 -1.9
v 4 3.9 -2
v 4 3.9 -2.1
v 3.9 3.9 4
v 3.8 3.9 4
v 3.7 3.9 4
v 3.6 3.9 4
v 3.5 3.9 4
v 3.4 3.9 4
v 3.3 3.9 4
v 3.2 3.9 4
v 3.1 3.9 4
v 3 3.9 4
v 2.9 3.9 4
v 2.8 3.9 4
v 2.7 3.9 4
v 2.6 3.9 4
v 2.5 3.9 4
v 2.4 3.9 4
v 2.3 3.9 4
v 2.2 3.9 4
v 2.1 3.9 4
v 2 3.9 4
v 1.9 3.9 4
v 1.8 3.9 4
v 1.7 3.9 4
v 1.6 3.9 4
v 1.5 3.9 4
v 1.4 3.9 4
v 1.3 3.9 4
v 1.2 3.9 4
v 1.1 3.9 4
v 1 3.9 4
v 0.9 3.9 4
v 0.8 3.9 4
v 0.7 3.9 4
v 0.6 3.9 4
v 0.5 3.9 4
v 0.4 3.9 4
v 0.3 3.9 4
v 0.2 3.9 4
v 0.1 3.9 4
v 0 3.9 4
v -0.1 3.9 4
v -0.2 3.9 4
v -0.3 3.9 4
v -0.4 3.9 4
v -0.5 3.9 4
v -0.6 3.9 4
v -0.7 3.9 4
v -0.8 3.9 4
v -0.9 3.9 4
v -1 3.9 4
v -1.1 3.9 4
v -1.2 3.9 4
v -1.3 3.9 4
v -1.4 3.9 4
v -1.5 3.9 4
v -1.6 3.9 4
v -1.7 3.9 4
v -1.8 3.9 4
v -1.9 3.9 4
v -2 3.9 4
v -2.1 3.9 4
v -2.2 3 4
v -2.2 3.1 4
v -2.2 3.2 4
v -2.2 3.3 4
v -2.2 3.4 4
v -2.2 3.5 4
v -2.2 3.6 4
v -2.2 3.7 4
v -2.2 3.8 4
v -2.2 3.9 4
v -2.3 4 3.9
v -2.4 4 3.9
v -2.4 4 4
v -2.3 4 4
v -2.5 4 3.9
v -2.6 4 3.9
v -2.6 4 4
v -2.5 4 4
v -2.7 4 3.9
v -2.8 4 3.9
v -2.8 4 4
v -2.7 4 4
v -2.9 4 3.9
v -3 4 3.9
v -3 4 4
v -2.9 4 4
v -3.1 4 3.9
v -3.2 4 3.9
v -3.2 4 4
v -3.1 4 4
v -3.3 4 3.9
v -3.4 4 3.9
v -3.4 4 4
v -3.3 4 4
v -3.5 4 3.9
v -3.6 4 3.9
v -3.6 4 4
v -3.5 4 4
v -3.7 4 3.9
v -3.8 4 3.9
v -3.8 4 4
v -3.7 4 4
v -3.9 4 3.9
v -4 4 3.9
v -4 4 4
v -3.9 4 4
v -2.3 4 3.8
v -2.4 4 3.8
v -2.5 4 3.8
v -2.6 4 3.8
v -2.7 4 3.8
v -2.8 4 3.8
v -2.9 4 3.8
v -3 4 3.8
v -3.1 4 3.8
v -3.2 4 3.8
v -3.3 4 3.8
v -3.4 4 3.8
v -3.5 4 3.8
v -3.6 4 3.8
v -3.7 4 3.8
v -3.8 4 3.8
v -3.9 4 3.8
v -4 4 3.8
v -2.3 4 3.7
v -2.4 4 3.7
v -2.5 4 3.7
v -2.6 4 3.7
v -2.7 4 3.7
v -2.8 4 3.7
v -2.9 4 3.7
v -3 4 3.7
v -3.1 4 3.7
v -3.2 4 3.7
v -3.3 4 3.7
v -3.4 4 3.7
v -3.5 4 3.7
v -3.6 4 3.7
v -3.7 4 3.7
v -3.8 4 3.7
v -3.9 4 3.7
v -4 4 3.7
v -2.3 4 3.6
v -2.4 4 3.6
v -2.5 4 3.6
v -2.6 4 3.6
v -2.7 4 3.6
v -2.8 4 3.6
v -2.9 4 3.6
v -3 4 3.6
v -3.1 4 3.6
v -3.2 4 3.6
v -3.3 4 3.6
v -3.4 4 3.6
v -3.5 4 3.6
v -3.6 4 3.6
v -3.7 4 3.6
v -3.8 4 3.6
v -3.9 4 3.6
v -4 4 3.6
v -2.4 4 3.5
v -2.5 4 3.5
v -2.6 4 3.5
v -2.7 4 3.5
v -2.8 4 3.5
v -2.9 4 3.5
v -3 4 3.5
v -3.1 4 3.5
v -3.2 4 3.5
v -3.3 4 3.5
v -3.4 4 3.5
v -3.5 4 3.5
v -3.6 4 3.5
v -3.7 4 3.5
v -3.8 4 3.5
v -3.9 4 3.5
v -4 4 3.5
v -2.7 4 3.4
v -2.8 4 3.4
v -2.9 4 3.4
v -3 4 3.4
v -3.1 4 3.4
v -3.2 4 3.4
v -3.3 4 3.4
v -3.4 4 3.4
v -3.5 4 3.4
v -3.6 4 3.4
v -3.7 4 3.4
v -3.8 4 3.4
v -3.9 4 3.4
v -4 4 3.4
v -3 4 3.3
v -3.1 4 3.3
v -3.2 4 3.3
v -3.3 4 3.3
v -3.4 4 3.3
v -3.5 4 3.3
v -3.6 4 3.3
v -3.7 4 3.3
v -3.8 4 3.3
v -3.9 4 3.3
v -4 4 3.3
v -3.1 4 3.2
v -3.2 4 3.2
v -3.3 4 3.2
v -3.4 4 3.2
v -3.5 4 3.2
v -3.6 4 3.2
v -3.7 4 3.2
v -3.8 4 3.2
v -3.9 4 3.2
v -4 4 3.2
v -3.2 4 3.1
v -3.3 4 3.1
v -3.4 4 3.1
v -3.5 4 3.1
v -3.6 4 3.1
v -3.7 4 3.1
v -3.8 4 3.1
v -3.9 4 3.1
v -4 4 3.1
v -3.3 4 3
v -3.4 4 3
v -3.5 4 3
v -3.6 4 3
v -3.7 4 3
v -3.8 4 3
v -3.9 4 3
v -4 4 3
v -3.4 4 2.9
v -3.5 4 2.9
v -3.6 4 2.9
v -3.7 4 2.9
v -3.8 4 2.9
v -3.9 4 2.9
v -4 4 2.9
v -3.4 4 2.8
v -3.5 4 2.8
v -3.6 4 2.8
v -3.7 4 2.8
v -3.8 4 2.8
v -3.9 4 2.8
v -4 4 2.8
v -3.4 4 2.7
v -3.5 4 2.7
v -3.6 4 2.7
v -3.7 4 2.7
v -3.8 4 2.7
v -3.9 4 2.7
v -4 4 2.7
v -3.5 4 2.6
v -3.6 4 2.6
v -3.7 4 2.6
v -3.8 4 2.6
v -3.9 4 2.6
v -4 4 2.6
v -3.5 4 2.5
v -3.6 4 2.5
v -3.7 4 2.5
v -3.8 4 2.5
v -3.9 4 2.5
v -4 4 2.5
v -3.5 4 2.4
v -3.6 4 2.4
v -3.7 4 2.4
v -3.8 4 2.4
v -3.9 4 2.4
v -4 4 2.4
v -3.6 4 2.3
v -3.7 4 2.3
v -3.8 4 2.3
v -3.9 4 2.3
v -4 4 2.3
v -3.6 4 2.2
v -3.7 4 2.2
v -3.8 4 2.2
v -3.9 4 2.2
v -4 4 2.2
v -2.2 4 2.1
v -2.3 4 2.1
v -2.4 4 2.1
v -2.5 4 2.1
v -2.6 4 2.1
v -3.6 4 2.1
v -3.7 4 2.1
v -3.8 4 2.1
v -3.9 4 2.1
v -4 4 2.1
v -2.6 4 2
v -2.7 4 2
v -2.8 4 2
v -2.9 4 2
v -3 4 2
v -3.1 4 2
v -3.2 4 2
v -3.3 4 2
v -3.4 4 2
v -3.5 4 2
v -3.6 4 2
v -3.7 4 2
v -3.8 4 2
v -3.9 4 2
v -4 4 2
v -2.2 4 1.9
v -2.6 4 1.9
v -3.9 4 1.9
v -4 4 1.9
v -2.4 4 1.8
v -2.6 4 1.8
v -2.4 4 1.9
v -3.9 4 1.8
v -4 4 1.8
v -3.9 4 1.7
v -4 4 1.7
v -3.9 4 1.6
v -4 4 1.6
v -3.9 4 1.5
v -4 4 1.5
v -3.9 4 1.4
v -4 4 1.4
v -3.9 4 1.3
v -4 4 1.3
v -3.9 4 1.2
v -4 4 1.2
v -3.9 4 1.1
v -4 4 1.1
v -3.9 4 1
v -4 4 1
v -3.9 4 0.9
v -4 4 0.9
v -3.9 4 0.8
v -4 4 0.8
v -3.9 4 0.7
v -4 4 0.7
v -3.9 4 0.6
v -4 4 0.6
v -3.9 4 0.5
v -4 4 0.5
v -3.9 4 0.4
v -4 4 0.4
v -3.9 4 0.3
v -4 4 0.3
v -3.9 4 0.2
v -4 4 0.2
v -2.2 4 0.1
v -2.4 4 0.1
v -3.9 4 0.1
v -4 4 0.1
v -3.9 4 0
v -4 4 0
v -2.2 4 -0.1
v -3.2 4 -0.1
v -3.2 4 0.1
v -3.9 4 -0.1
v -4 4 -0.1
v -3.9 4 -0.2
v -4 4 -0.2
v -3.9 4 -0.3
v -4 4 -0.3
v -3.9 4 -0.4
v -4 4 -0.4
v -3.9 4 -0.5
v -4 4 -0.5
v -3.9 4 -0.6
v -4 4 -0.6
v -3.9 4 -0.7
v -4 4 -0.7
v -3.9 4 -0.8
v -4 4 -0.8
v -3.9 4 -0.9
v -4 4 -0.9
v -3.9 4 -1
v -4 4 -1
v -3.9 4 -1.1
v -4 4 -1.1
v -3.9 4 -1.2
v -4 4 -1.2
v -3.9 4 -1.3
v -4 4 -1.3
v -3.9 4 -1.4
v -4 4 -1.4
v -2.5 4 -1.5
v -3.2 4 -1.5
v -2.5 4 -0.1
v -3.9 4 -1.5
v -4 4 -1.5
v -2.6 4 -1.6
v -3 4 -1.6
v -3 4 -1.5
v -2.6 4 -1.5
v -3.9 4 -1.6
v -4 4 -1.6
v -3.9 4 -1.7
v -4 4 -1.7
v -2.4 4 -1.8
v -2.5 4 -1.8
v -2.4 4 -0.1
v -2.6 4 -1.8
v -2.7 4 -1.8
v -2.7 4 -1.6
v -2.8 4 -1.8
v -2.8 4 -1.6
v -2.9 4 -1.8
v -2.9 4 -1.6
v -3 4 -1.8
v -3.2 4 -1.8
v -3.9 4 -1.8
v -4 4 -1.8
v -2.2 4 -1.9
v -2.4 4 -1.9
v -3.9 4 -1.9
v -4 4 -1.9
v -2.6 4 -2
v -3.9 4 -2
v -4 4 -2
v -2.2 4 -2.1
v -2.4 4 -2.1
v -2.6 4 -2.1
v -3.6 4 -2.1
v -3.7 4 -2.1
v -3.7 4 -2
v -3.6 4 -2
v -3.9 4 -2.1
v -4 4 -2.1
v -2.6 4 -2.2
v -3.6 4 -2.2
v -3.7 4 -2.2
v -3.8 4 -2.2
v -3.8 4 -2.1
v -4 4 -2.2
v -4 0 4
v -4 0 -2.2
v -4 3 4
v -4 3 -2.2
v -4 3.1 4
v -4 3.1 -2.2
v -4 3.2 4
v -4 3.2 -2.2
v -4 3.3 4
v -4 3.3 -2.2
v -4 3.4 4
v -4 3.4 -2.2
v -4 3.5 4
v -4 3.5 -2.2
v -4 3.6 4
v -4 3.6 -2.2
v -4 3.7 4
v -4 3.7 -2.2
v -4 3.8 4
v -4 3.8 -2.2
v -4 3.9 4
v -4 3.9 -2.2
v -4 3.9 3.9
v -4 3.9 3.8
v -4 3.9 3.7
v -4 3.9 3.6
v -4 3.9 3.5
v -4 3.9 3.4
v -4 3.9 3.3
v -4 3.9 3.2
v -4 3.9 3.1
v -4 3.9 3
v -4 3.9 2.9
v -4 3.9 2.8
v -4 3.9 2.7
v -4 3.9 2.6
v -4 3.9 2.5
v -4 3.9 2.4
v -4 3.9 2.3
v -4 3.9 2.2
v -4 3.9 2.1
v -4 3.9 2
v -4 3.9 1.9
v -4 3.9 1.8
v -4 3.9 1.7
v -4 3.9 1.6
v -4 3.9 1.5
v -4 3.9 1.4
v -4 3.9 1.3
v -4 3.9 1.2
v -4 3.9 1.1
v -4 3.9 1
v -4 3.9 0.9
v -4 3.9 0.8
v -4 3.9 0.7
v -4 3.9 0.6
v -4 3.9 0.5
v -4 3.9 0.4
v -4 3.9 0.3
v -4 3.9 0.2
v -4 3.9 0.1
v -4 3.9 0
v -4 3.9 -0.1
v -4 3.9 -0.2
v -4 3.9 -0.3
v -4 3.9 -0.4
v -4 3.9 -0.5
v -4 3.9 -0.6
v -4 3.9 -0.7
v -4 3.9 -0.8
v -4 3.9 -0.9
v -4 3.9 -1
v -4 3.9 -1.1
v -4 3.9 -1.2
v -4 3.9 -1.3
v -4 3.9 -1.4
v -4 3.9 -1.5
v -4 3.9 -1.6
v -4 3.9 -1.7
v -4 3.9 -1.8
v -4 3.9 -1.9
v -4 3.9 -2
v -4 3.9 -2.1
v -2.3 3.9 4
v -2.4 3.9 4
v -2.5 3.9 4
v -2.6 3.9 4
v -2.7 3.9 4
v -2.8 3.9 4
v -2.9 3.9 4
v -3 3.9 4
v -3.1 3.9 4
v -3.2 3.9 4
v -3.3 3.9 4
v -3.4 3.9 4
v -3.5 3.9 4
v -3.6 3.9 4
v -3.7 3.9 4
v -3.8 3.9 4
v -3.9 3.9 4
v 4 4 -2.3
v 3.7 4 -2.3
v 2.1 4 -2.3
v 2.1 4 -2.2
v 4 4 -2.4
v 3.9 4 -2.4
v 3.9 4 -2.3
v 3.8 4 -2.4
v 3.7 4 -2.4
v 3.8 4 -2.3
v 3.6 4 -2.4
v 3.6 4 -2.3
v 2.1 4 -2.4
v 1.9 4 -2.4
v 0.1 4 -2.4
v 0.1 4 -2.2
v 1.9 4 -2.2
v -1.8 4 -2.4
v -1.9 4 -2.4
v -1.9 4 -2.2
v 4 4 -2.5
v 3.9 4 -2.5
v 3.8 4 -2.5
v 3.7 4 -2.5
v 3.6 4 -2.5
v 3.5 4 -2.5
v 3.5 4 -2.4
v 1.8 4 -2.5
v 0.1 4 -2.5
v 1.8 4 -2.4
v 4 4 -2.6
v 3.9 4 -2.6
v 3.8 4 -2.6
v 3.7 4 -2.6
v 3.6 4 -2.6
v 3.5 4 -2.6
v 2.1 4 -2.6
v 1.9 4 -2.6
v 1.8 4 -2.6
v 1.5 4 -2.6
v 1.5 4 -2.5
v -2 4 -2.6
v -2.1 4 -2.6
v -2.1 4 -2.2
v 4 4 -2.7
v 3.9 4 -2.7
v 3.8 4 -2.7
v 3.7 4 -2.7
v 3.6 4 -2.7
v 3.5 4 -2.7
v 2.1 4 -2.7
v 1.8 4 -2.7
v 1.6 4 -2.7
v 1.6 4 -2.6
v 4 4 -2.8
v 3.9 4 -2.8
v 3.8 4 -2.8
v 3.7 4 -2.8
v 3.6 4 -2.8
v 3.5 4 -2.8
v 3.4 4 -2.8
v 3.4 4 -2.7
v 1.8 4 -2.8
v 1.6 4 -2.8
v 4 4 -2.9
v 3.9 4 -2.9
v 3.8 4 -2.9
v 3.7 4 -2.9
v 3.6 4 -2.9
v 3.5 4 -2.9
v 3.4 4 -2.9
v 1.8 4 -2.9
v 1.6 4 -2.9
v 4 4 -3
v 3.9 4 -3
v 3.8 4 -3
v 3.7 4 -3
v 3.6 4 -3
v 3.5 4 -3
v 3.4 4 -3
v 2.1 4 -3
v 1.8 4 -3
v 1.6 4 -3
v 1.5 4 -3
v 4 4 -3.1
v 3.9 4 -3.1
v 3.8 4 -3.1
v 3.7 4 -3.1
v 3.6 4 -3.1
v 3.5 4 -3.1
v 3.4 4 -3.1
v 3.3 4 -3.1
v 3.3 4 -3
v 2.1 4 -3.1
v 4 4 -3.2
v 3.9 4 -3.2
v 3.8 4 -3.2
v 3.7 4 -3.2
v 3.6 4 -3.2
v 3.5 4 -3.2
v 3.4 4 -3.2
v 3.3 4 -3.2
v 3.2 4 -3.2
v 3.2 4 -3.1
v 2.1 4 -3.2
v 0.1 4 -3.2
v -0.1 4 -3.2
v -0.1 4 -2.2
v 4 4 -3.3
v 3.9 4 -3.3
v 3.8 4 -3.3
v 3.7 4 -3.3
v 3.6 4 -3.3
v 3.5 4 -3.3
v 3.4 4 -3.3
v 3.3 4 -3.3
v 3.2 4 -3.3
v 3.1 4 -3.3
v 3.1 4 -3.2
v 2.1 4 -3.3
v 4 4 -3.4
v 3.9 4 -3.4
v 3.8 4 -3.4
v 3.7 4 -3.4
v 3.6 4 -3.4
v 3.5 4 -3.4
v 3.4 4 -3.4
v 3.3 4 -3.4
v 3.2 4 -3.4
v 3.1 4 -3.4
v 3 4 -3.4
v 3 4 -3.3
v 2.1 4 -3.4
v 4 4 -3.5
v 3.9 4 -3.5
v 3.8 4 -3.5
v 3.7 4 -3.5
v 3.6 4 -3.5
v 3.5 4 -3.5
v 3.4 4 -3.5
v 3.3 4 -3.5
v 3.2 4 -3.5
v 3.1 4 -3.5
v 3 4 -3.5
v 2.9 4 -3.5
v 2.9 4 -3.4
v 2.8 4 -3.5
v 2.8 4 -3.4
v 2.7 4 -3.5
v 2.7 4 -3.4
v 2.1 4 -3.5
v 4 4 -3.6
v 3.9 4 -3.6
v 3.8 4 -3.6
v 3.7 4 -3.6
v 3.6 4 -3.6
v 3.5 4 -3.6
v 3.4 4 -3.6
v 3.3 4 -3.6
v 3.2 4 -3.6
v 3.1 4 -3.6
v 3 4 -3.6
v 2.9 4 -3.6
v 2.8 4 -3.6
v 2.7 4 -3.6
v 2.6 4 -3.6
v 2.6 4 -3.5
v 2.5 4 -3.6
v 2.5 4 -3.5
v 2.4 4 -3.6
v 2.4 4 -3.5
v 2.1 4 -3.6
v -2.1 4 -3.6
v -2.2 4 -3.6
v 4 4 -3.7
v 3.9 4 -3.7
v 3.8 4 -3.7
v 3.7 4 -3.7
v 3.6 4 -3.7
v 3.5 4 -3.7
v 3.4 4 -3.7
v 3.3 4 -3.7
v 3.2 4 -3.7
v 3.1 4 -3.7
v 3 4 -3.7
v 2.9 4 -3.7
v 2.8 4 -3.7
v 2.7 4 -3.7
v 2.6 4 -3.7
v 2.5 4 -3.7
v 2.4 4 -3.7
v 2.3 4 -3.7
v 2.3 4 -3.6
v 2.2 4 -3.7
v 2.2 4 -3.6
v 2.1 4 -3.7
v 2 4 -3.7
v 2 4 -2.6
v -2 4 -3.7
v -2.1 4 -3.7
v -2.2 4 -3.7
v 4 4 -3.8
v 3.9 4 -3.8
v 3.8 4 -3.8
v 3.7 4 -3.8
v 3.6 4 -3.8
v 3.5 4 -3.8
v 3.4 4 -3.8
v 3.3 4 -3.8
v 3.2 4 -3.8
v 3.1 4 -3.8
v 3 4 -3.8
v 2.9 4 -3.8
v 2.8 4 -3.8
v 2.7 4 -3.8
v 2.6 4 -3.8
v 2.5 4 -3.8
v 2.4 4 -3.8
v 2.3 4 -3.8
v 2.2 4 -3.8
v 2.1 4 -3.8
v -2.1 4 -3.8
v -2.2 4 -3.8
v 4 4 -3.9
v 3.9 4 -3.9
v 3.8 4 -3.9
v 3.7 4 -3.9
v 3.6 4 -3.9
v 3.5 4 -3.9
v 3.4 4 -3.9
v 3.3 4 -3.9
v 3.2 4 -3.9
v 3.1 4 -3.9
v 3 4 -3.9
v 2.9 4 -3.9
v 2.8 4 -3.9
v 2.7 4 -3.9
v 2.6 4 -3.9
v 2.5 4 -3.9
v 2.4 4 -3.9
v 2.3 4 -3.9
v 2.2 4 -3.9
v 2.1 4 -3.9
v 2 4 -3.9
v 1.9 4 -3.9
v 1.8 4 -3.9
v 1.5 4 -3.9
v 1.4 4 -3.9
v 0.1 4 -3.9
v 1.4 4 -2.5
v 0 4 -3.9
v -0.1 4 -3.9
v 0 4 -3.2
v -0.2 4 -3.9
v -1.8 4 -3.9
v -0.2 4 -2.2
v -1.9 4 -3.9
v -2 4 -3.9
v -2.1 4 -3.9
v 4 4 -4
v 3.9 4 -4
v 3.8 4 -4
v 3.7 4 -4
v 3.6 4 -4
v 3.5 4 -4
v 3.4 4 -4
v 3.3 4 -4
v 3.2 4 -4
v 3.1 4 -4
v 3 4 -4
v 2.9 4 -4
v 2.8 4 -4
v 2.7 4 -4
v 2.6 4 -4
v 2.5 4 -4
v 2.4 4 -4
v 2.3 4 -4
v 2.2 4 -4
v 2.1 4 -4
v 2 4 -4
v 1.9 4 -4
v 1.8 4 -4
v 1.7 4 -4
v 1.7 4 -3.9
v 1.6 4 -4
v 1.6 4 -3.9
v 1.5 4 -4
v 1.4 4 -4
v 1.3 4 -4
v 1.3 4 -3.9
v 1.2 4 -4
v 1.2 4 -3.9
v 1.1 4 -4
v 1.1 4 -3.9
v 1 4 -4
v 1 4 -3.9
v 0.9 4 -4
v 0.9 4 -3.9
v 0.8 4 -4
v 0.8 4 -3.9
v 0.7 4 -4
v 0.7 4 -3.9
v 0.6 4 -4
v 0.6 4 -3.9
v 0.5 4 -4
v 0.5 4 -3.9
v 0.4 4 -4
v 0.4 4 -3.9
v 0.3 4 -4
v 0.3 4 -3.9
v 0.2 4 -4
v 0.2 4 -3.9
v 0.1 4 -4
v 0 4 -4
v -0.1 4 -4
v -0.2 4 -4
v -0.3 4 -4
v -0.3 4 -3.9
v -0.4 4 -4
v -0.4 4 -3.9
v -0.5 4 -4
v -0.5 4 -3.9
v -0.6 4 -4
v -0.6 4 -3.9
v -0.7 4 -4
v -0.7 4 -3.9
v -0.8 4 -4
v -0.8 4 -3.9
v -0.9 4 -4
v -0.9 4 -3.9
v -1 4 -4
v -1 4 -3.9
v -1.1 4 -4
v -1.1 4 -3.9
v -1.2 4 -4
v -1.2 4 -3.9
v -1.3 4 -4
v -1.3 4 -3.9
v -1.4 4 -4
v -1.4 4 -3.9
v -1.5 4 -4
v -1.5 4 -3.9
v -1.6 4 -4
v -1.6 4 -3.9
v -1.7 4 -4
v -1.7 4 -3.9
v -1.8 4 -4
v -1.9 4 -4
v -2 4 -4
v -2.1 4 -4
v -2.2 4 -4
v 4 0 -4
v -2.2 0 -4
v 4 3 -4
v 4 3.1 -4
v 4 3.2 -4
v 4 3.3 -4
v 4 3.4 -4
v 4 3.5 -4
v 4 3.6 -4
v 4 3.7 -4
v 4 3.8 -4
v 4 3.9 -4
v 4 3.9 -2.3
v 4 3.9 -2.4
v 4 3.9 -2.5
v 4 3.9 -2.6
v 4 3.9 -2.7
v 4 3.9 -2.8
v 4 3.9 -2.9
v 4 3.9 -3
v 4 3.9 -3.1
v 4 3.9 -3.2
v 4 3.9 -3.3
v 4 3.9 -3.4
v 4 3.9 -3.5
v 4 3.9 -3.6
v 4 3.9 -3.7
v 4 3.9 -3.8
v 4 3.9 -3.9
v 3.9 3.9 -4
v 3.8 3.9 -4
v 3.7 3.9 -4
v 3.6 3.9 -4
v 3.5 3.9 -4
v 3.4 3.9 -4
v 3.3 3.9 -4
v 3.2 3.9 -4
v 3.1 3.9 -4
v 3 3.9 -4
v 2.9 3.9 -4
v 2.8 3.9 -4
v 2.7 3.9 -4
v 2.6 3.9 -4
v 2.5 3.9 -4
v 2.4 3.9 -4
v 2.3 3.9 -4
v 2.2 3.9 -4
v 2.1 3.9 -4
v 2 3.9 -4
v 1.9 3.9 -4
v 1.8 3.9 -4
v 1.7 3.9 -4
v 1.6 3.9 -4
v 1.5 3.9 -4
v 1.4 3.9 -4
v 1.3 3.9 -4
v 1.2 3.9 -4
v 1.1 3.9 -4
v 1 3.9 -4
v 0.9 3.9 -4
v 0.8 3.9 -4
v 0.7 3.9 -4
v 0.6 3.9 -4
v 0.5 3.9 -4
v 0.4 3.9 -4
v 0.3 3.9 -4
v 0.2 3.9 -4
v 0.1 3.9 -4
v 0 3.9 -4
v -0.1 3.9 -4
v -0.2 3.9 -4
v -0.3 3.9 -4
v -0.4 3.9 -4
v -0.5 3.9 -4
v -0.6 3.9 -4
v -0.7 3.9 -4
v -0.8 3.9 -4
v -0.9 3.9 -4
v -1 3.9 -4
v -1.1 3.9 -4
v -1.2 3.9 -4
v -1.3 3.9 -4
v -1.4 3.9 -4
v -1.5 3.9 -4
v -1.6 3.9 -4
v -1.7 3.9 -4
v -1.8 3.9 -4
v -1.9 3.9 -4
v -2 3.9 -4
v -2.1 3.9 -4
v -2.2 3 -4
v -2.2 3.1 -4
v -2.2 3.2 -4
v -2.2 3.3 -4
v -2.2 3.4 -4
v -2.2 3.5 -4
v -2.2 3.6 -4
v -2.2 3.7 -4
v -2.2 3.8 -4
v -2.2 3.9 -4
v -3.6 4 -2.3
v -3.7 4 -2.3
v -3.9 4 -2.3
v -3.9 4 -2.2
v -4 4 -2.3
v -3.5 4 -2.4
v -3.6 4 -2.4
v -3.5 4 -2.2
v -3.7 4 -2.4
v -3.8 4 -2.4
v -3.8 4 -2.3
v -3.9 4 -2.4
v -4 4 -2.4
v -3.5 4 -2.5
v -3.6 4 -2.5
v -3.7 4 -2.5
v -3.8 4 -2.5
v -3.9 4 -2.5
v -4 4 -2.5
v -3.5 4 -2.6
v -3.6 4 -2.6
v -3.7 4 -2.6
v -3.8 4 -2.6
v -3.9 4 -2.6
v -4 4 -2.6
v -3.4 4 -2.7
v -3.5 4 -2.7
v -3.4 4 -2.2
v -3.6 4 -2.7
v -3.7 4 -2.7
v -3.8 4 -2.7
v -3.9 4 -2.7
v -4 4 -2.7
v -3.4 4 -2.8
v -3.5 4 -2.8
v -3.6 4 -2.8
v -3.7 4 -2.8
v -3.8 4 -2.8
v -3.9 4 -2.8
v -4 4 -2.8
v -3.4 4 -2.9
v -3.5 4 -2.9
v -3.6 4 -2.9
v -3.7 4 -2.9
v -3.8 4 -2.9
v -3.9 4 -2.9
v -4 4 -2.9
v -3.3 4 -3
v -3.4 4 -3
v -3.3 4 -2.2
v -3.5 4 -3
v -3.6 4 -3
v -3.7 4 -3
v -3.8 4 -3
v -3.9 4 -3
v -4 4 -3
v -3.2 4 -3.1
v -3.3 4 -3.1
v -3.2 4 -2.2
v -3.4 4 -3.1
v -3.5 4 -3.1
v -3.6 4 -3.1
v -3.7 4 -3.1
v -3.8 4 -3.1
v -3.9 4 -3.1
v -4 4 -3.1
v -3.1 4 -3.2
v -3.2 4 -3.2
v -3.1 4 -2.2
v -3.3 4 -3.2
v -3.4 4 -3.2
v -3.5 4 -3.2
v -3.6 4 -3.2
v -3.7 4 -3.2
v -3.8 4 -3.2
v -3.9 4 -3.2
v -4 4 -3.2
v -3 4 -3.3
v -3.1 4 -3.3
v -3 4 -2.2
v -3.2 4 -3.3
v -3.3 4 -3.3
v -3.4 4 -3.3
v -3.5 4 -3.3
v -3.6 4 -3.3
v -3.7 4 -3.3
v -3.8 4 -3.3
v -3.9 4 -3.3
v -4 4 -3.3
v -2.7 4 -3.4
v -3 4 -3.4
v -2.7 4 -2.2
v -3.1 4 -3.4
v -3.2 4 -3.4
v -3.3 4 -3.4
v -3.4 4 -3.4
v -3.5 4 -3.4
v -3.6 4 -3.4
v -3.7 4 -3.4
v -3.8 4 -3.4
v -3.9 4 -3.4
v -4 4 -3.4
v -2.4 4 -3.5
v -2.7 4 -3.5
v -2.4 4 -2.2
v -2.8 4 -3.5
v -2.8 4 -3.4
v -2.9 4 -3.5
v -2.9 4 -3.4
v -3 4 -3.5
v -3.1 4 -3.5
v -3.2 4 -3.5
v -3.3 4 -3.5
v -3.4 4 -3.5
v -3.5 4 -3.5
v -3.6 4 -3.5
v -3.7 4 -3.5
v -3.8 4 -3.5
v -3.9 4 -3.5
v -4 4 -3.5
v -2.3 4 -3.6
v -2.4 4 -3.6
v -2.3 4 -2.2
v -2.5 4 -3.6
v -2.5 4 -3.5
v -2.6 4 -3.6
v -2.6 4 -3.5
v -2.7 4 -3.6
v -2.8 4 -3.6
v -2.9 4 -3.6
v -3 4 -3.6
v -3.1 4 -3.6
v -3.2 4 -3.6
v -3.3 4 -3.6
v -3.4 4 -3.6
v -3.5 4 -3.6
v -3.6 4 -3.6
v -3.7 4 -3.6
v -3.8 4 -3.6
v -3.9 4 -3.6
v -4 4 -3.6
v -2.3 4 -3.7
v -2.4 4 -3.7
v -2.5 4 -3.7
v -2.6 4 -3.7
v -2.7 4 -3.7
v -2.8 4 -3.7
v -2.9 4 -3.7
v -3 4 -3.7
v -3.1 4 -3.7
v -3.2 4 -3.7
v -3.3 4 -3.7
v -3.4 4 -3.7
v -3.5 4 -3.7
v -3.6 4 -3.7
v -3.7 4 -3.7
v -3.8 4 -3.7
v -3.9 4 -3.7
v -4 4 -3.7
v -2.3 4 -3.8
v -2.4 4 -3.8
v -2.5 4 -3.8
v -2.6 4 -3.8
v -2.7 4 -3.8
v -2.8 4 -3.8
v -2.9 4 -3.8
v -3 4 -3.8
v -3.1 4 -3.8
v -3.2 4 -3.8
v -3.3 4 -3.8
v -3.4 4 -3.8
v -3.5 4 -3.8
v -3.6 4 -3.8
v -3.7 4 -3.8
v -3.8 4 -3.8
v -3.9 4 -3.8
v -4 4 -3.8
v -2.2 4 -3.9
v -2.3 4 -3.9
v -2.4 4 -3.9
v -2.5 4 -3.9
v -2.6 4 -3.9
v -2.7 4 -3.9
v -2.8 4 -3.9
v -2.9 4 -3.9
v -3 4 -3.9
v -3.1 4 -3.9
v -3.2 4 -3.9
v -3.3 4 -3.9
v -3.4 4 -3.9
v -3.5 4 -3.9
v -3.6 4 -3.9
v -3.7 4 -3.9
v -3.8 4 -3.9
v -3.9 4 -3.9
v -4 4 -3.9
v -2.3 4 -4
v -2.4 4 -4
v -2.5 4 -4
v -2.6 4 -4
v -2.7 4 -4
v -2.8 4 -4
v -2.9 4 -4
v -3 4 -4
v -3.1 4 -4
v -3.2 4 -4
v -3.3 4 -4
v -3.4 4 -4
v -3.5 4 -4
v -3.6 4 -4
v -3.7 4 -4
v -3.8 4 -4
v -3.9 4 -4
v -4 4 -4
v -4 0 -4
v -4 3 -4
v -4 3.1 -4
v -4 3.2 -4
v -4 3.3 -4
v -4 3.4 -4
v -4 3.5 -4
v -4 3.6 -4
v -4 3.7 -4
v -4 3.8 -4
v -4 3.9 -4
v -4 3.9 -2.3
v -4 3.9 -2.4
v -4 3.9 -2.5
v -4 3.9 -2.6
v -4 3.9 -2.7
v -4 3.9 -2.8
v -4 3.9 -2.9
v -4 3.9 -3
v -4 3.9 -3.1
v -4 3.9 -3.2
v -4 3.9 -3.3
v -4 3.9 -3.4
v -4 3.9 -3.5
v -4 3.9 -3.6
v -4 3.9 -3.7
v -4 3.9 -3.8
v -4 3.9 -3.9
v -2.3 3.9 -4
v -2.4 3.9 -4
v -2.5 3.9 -4
v -2.6 3.9 -4
v -2.7 3.9 -4
v -2.8 3.9 -4
v -2.9 3.9 -4
v -3 3.9 -4
v -3.1 3.9 -4
v -3.2 3.9 -4
v -3.3 3.9 -4
v -3.4 3.9 -4
v -3.5 3.9 -4
v -3.6 3.9 -4
v -3.7 3.9 -4
v -3.8 3.9 -4
v -3.9 3.9 -4

vt 0.00195313 0.5
vt 0.0214844 0.5
vt 0.0292969 0.5
vt 0.0332031 0.5
vt 0.0371094 0.5
vt 0.0449219 0.5
vt 0.0683594 0.5
vt 0.0722656 0.5
vt 0.0761719 0.5
vt 0.0957031 0.5

vn 0 1 0
vn 0 -1 0
vn 1 0 0
vn 0 0 1
vn -1 0 0
vn 0 0 -1

usemtl palette
f 1/4/1 2/4/1 4/4/1
f 4/4/1 2/4/1 3/4/1
f 2/5/1 5/5/1 3/5/1
f 3/5/1 5/5/1 6/5/1
f 7/5/1 8/5/1 10/5/1
f 10/5/1 8/5/1 9/5/1
f 11/5/1 12/5/1 14/5/1
f 14/5/1 12/5/1 13/5/1
f 15/5/1 16/5/1 18/5/1
f 18/5/1 16/5/1 17/5/1
f 19/5/1 20/5/1 22/5/1
f 22/5/1 20/5/1 21/5/1
f 23/5/1 24/5/1 26/5/1
f 26/5/1 24/5/1 25/5/1
f 27/5/1 28/5/1 30/5/1
f 30/5/1 28/5/1 29/5/1
f 31/5/1 32/5/1 34/5/1
f 34/5/1 32/5/1 33/5/1
f 35/5/1 36/5/1 38/5/1
f 38/5/1 36/5/1 37/5/1
f 39/5/1 40/5/1 42/5/1
f 42/5/1 40/5/1 41/5/1
f 43/5/1 44/5/1 46/5/1
f 46/5/1 44/5/1 45/5/1
f 47/5/1 48/5/1 50/5/1
f 50/5/1 48/5/1 49/5/1
f 51/5/1 52/5/1 54/5/1
f 54/5/1 52/5/1 53/5/1
f 55/5/1 56/5/1 58/5/1
f 58/5/1 56/5/1 57/5/1
f 59/5/1 60/5/1 62/5/1
f 62/5/1 60/5/1 61/5/1
f 63/5/1 64/5/1 66/5/1
f 66/5/1 64/5/1 65/5/1
f 67/5/1 68/5/1 70/5/1
f 70/5/1 68/5/1 69/5/1
f 71/5/1 72/5/1 74/5/1
f 74/5/1 72/5/1 73/5/1
f 75/5/1 76/5/1 78/5/1
f 78/5/1 76/5/1 77/5/1
f 79/5/1 80/5/1 82/5/1
f 82/5/1 80/5/1 81/5/1
f 83/5/1 84/5/1 86/5/1
f 86/5/1 84/5/1 85/5/1
f 87/5/1 88/5/1 90/5/1
f 90/5/1 88/5/1 89/5/1
f 91/5/1 92/5/1 94/5/1
f 94/5/1 92/5/1 93/5/1
f 95/5/1 96/5/1 98/5/1
f 98/5/1 96/5/1 97/5/1
f 99/5/1 100/5/1 102/5/1
f 102/5/1 100/5/1 101/5/1
f 103/5/1 104/5/1 106/5/1
f 106/5/1 104/5/1 105/5/1
f 107/5/1 108/5/1 110/5/1
f 110/5/1 108/5/1 109/5/1
f 111/5/1 112/5/1 114/5/1
f 114/5/1 112/5/1 113/5/1
f 115/5/1 116/5/1 118/5/1
f 118/5/1 116/5/1 117/5/1
f 119/5/1 120/5/1 122/5/1
f 122/5/1 120/5/1 121/5/1
f 123/5/1 124/5/1 126/5/1
f 126/5/1 124/5/1 125/5/1
f 127/5/1 128/5/1 1/5/1
f 1/5/1 128/5/1 2/5/1
f 129/4/1 130/4/1 6/4/1
f 6/4/1 130/4/1 10/4/1
f 131/4/1 132/4/1 9/4/1
f 9/4/1 132/4/1 14/4/1
f 133/4/1 134/4/1 13/4/1
f 13/4/1 134/4/1 18/4/1
f 135/4/1 136/4/1 17/4/1
f 17/4/1 136/4/1 22/4/1
f 137/4/1 138/4/1 21/4/1
f 21/4/1 138/4/1 26/4/1
f 139/4/1 140/4/1 25/4/1
f 25/4/1 140/4/1 30/4/1
f 141/4/1 142/4/1 29/4/1
f 29/4/1 142/4/1 34/4/1
f 143/4/1 144/4/1 33/4/1
f 33/4/1 144/4/1 38/4/1
f 145/4/1 146/4/1 37/4/1
f 37/4/1 146/4/1 42/4/1
f 147/4/1 148/4/1 123/4/1
f 123/4/1 148/4/1 124/4/1
f 149/4/1 150/4/1 127/4/1
f 127/4/1 150/4/1 128/4/1
f 151/8/1 152/8/1 129/8/1
f 129/8/1 152/8/1 130/8/1
f 152/4/1 153/4/1 7/4/1
f 7/4/1 153/4/1 8/4/1
f 153/8/1 154/8/1 131/8/1
f 131/8/1 154/8/1 132/8/1
f 154/4/1 155/4/1 11/4/1
f 11/4/1 155/4/1 12/4/1
f 155/8/1 156/8/1 133/8/1
f 133/8/1 156/8/1 134/8/1
f 156/4/1 157/4/1 15/4/1
f 15/4/1 157/4/1 16/4/1
f 157/8/1 158/8/1 135/8/1
f 135/8/1 158/8/1 136/8/1
f 158/4/1 159/4/1 19/4/1
f 19/4/1 159/4/1 20/4/1
f 159/8/1 160/8/1 137/8/1
f 137/8/1 160/8/1 138/8/1
f 160/4/1 161/4/1 23/4/1
f 23/4/1 161/4/1 24/4/1
f 161/8/1 162/8/1 139/8/1
f 139/8/1 162/8/1 140/8/1
f 162/4/1 163/4/1 27/4/1
f 27/4/1 163/4/1 28/4/1
f 163/8/1 164/8/1 141/8/1
f 141/8/1 164/8/1 142/8/1
f 164/4/1 165/4/1 31/4/1
f 31/4/1 165/4/1 32/4/1
f 165/8/1 166/8/1 143/8/1
f 143/8/1 166/8/1 144/8/1
f 166/4/1 167/4/1 35/4/1
f 35/4/1 167/4/1 36/4/1
f 167/8/1 168/8/1 145/8/1
f 145/8/1 168/8/1 146/8/1
f 168/4/1 169/4/1 39/4/1
f 39/4/1 169/4/1 40/4/1
f 170/4/1 171/4/1 121/4/1
f 121/4/1 171/4/1 126/4/1
f 171/8/1 172/8/1 147/8/1
f 147/8/1 172/8/1 148/8/1
f 173/5/1 174/5/1 149/5/1
f 149/5/1 174/5/1 150/5/1
f 175/4/1 176/4/1 151/4/1
f 151/4/1 176/4/1 152/4/1
f 176/8/1 177/8/1 152/8/1
f 152/8/1 177/8/1 153/8/1
f 177/4/1 178/4/1 153/4/1
f 153/4/1 178/4/1 154/4/1
f 178/8/1 179/8/1 154/8/1
f 154/8/1 179/8/1 155/8/1
f 179/4/1 180/4/1 155/4/1
f 155/4/1 180/4/1 156/4/1
f 180/8/1 181/8/1 156/8/1
f 156/8/1 181/8/1 157/8/1
f 181/4/1 182/4/1 157/4/1
f 157/4/1 182/4/1 158/4/1
f 182/8/1 183/8/1 158/8/1
f 158/8/1 183/8/1 159/8/1
f 183/4/1 184/4/1 159/4/1
f 159/4/1 184/4/1 160/4/1
f 184/8/1 185/8/1 160/8/1
f 160/8/1 185/8/1 161/8/1
f 185/4/1 186/4/1 161/4/1
f 161/4/1 186/4/1 162/4/1
f 186/8/1 187/8/1 162/8/1
f 162/8/1 187/8/1 163/8/1
f 187/4/1 188/4/1 163/4/1
f 163/4/1 188/4/1 164/4/1
f 188/8/1 189/8/1 164/8/1
f 164/8/1 189/8/1 165/8/1
f 189/4/1 190/4/1 165/4/1
f 165/4/1 190/4/1 166/4/1
f 191/4/1 192/4/1 167/4/1
f 167/4/1 192/4/1 168/4/1
f 193/4/1 194/4/1 171/4/1
f 171/4/1 194/4/1 172/4/1
f 195/4/1 196/4/1 173/4/1
f 173/4/1 196/4/1 174/4/1
f 197/8/1 198/8/1 175/8/1
f 175/8/1 198/8/1 176/8/1
f 198/4/1 199/4/1 176/4/1
f 176/4/1 199/4/1 177/4/1
f 199/8/1 200/8/1 177/8/1
f 177/8/1 200/8/1 178/8/1
f 200/4/1 201/4/1 178/4/1
f 178/4/1 201/4/1 179/4/1
f 201/8/1 202/8/1 179/8/1
f 179/8/1 202/8/1 180/8/1
f 202/4/1 203/4/1 180/4/1
f 180/4/1 203/4/1 181/4/1
f 203/8/1 204/8/1 181/8/1
f 181/8/1 204/8/1 182/8/1
f 204/4/1 205/4/1 182/4/1
f 182/4/1 205/4/1 183/4/1
f 205/8/1 206/8/1 183/8/1
f 183/8/1 206/8/1 184/8/1
f 206/4/1 207/4/1 184/4/1
f 184/4/1 207/4/1 185/4/1
f 207/8/1 208/8/1 185/8/1
f 185/8/1 208/8/1 186/8/1
f 208/4/1 209/4/1 186/4/1
f 186/4/1 209/4/1 187/4/1
f 210/4/1 211/4/1 188/4/1
f 188/4/1 211/4/1 189/4/1
f 212/5/1 213/5/1 195/5/1
f 195/5/1 213/5/1 196/5/1
f 214/4/1 215/4/1 197/4/1
f 197/4/1 215/4/1 198/4/1
f 215/8/1 216/8/1 198/8/1
f 198/8/1 216/8/1 199/8/1
f 216/4/1 217/4/1 199/4/1
f 199/4/1 217/4/1 200/4/1
f 217/8/1 218/8/1 200/8/1
f 200/8/1 218/8/1 201/8/1
f 218/4/1 219/4/1 201/4/1
f 201/4/1 219/4/1 202/4/1
f 219/8/1 220/8/1 202/8/1
f 202/8/1 220/8/1 203/8/1
f 220/4/1 221/4/1 203/4/1
f 203/4/1 221/4/1 204/4/1
f 221/8/1 222/8/1 204/8/1
f 204/8/1 222/8/1 205/8/1
f 222/4/1 223/4/1 205/4/1
f 205/4/1 223/4/1 206/4/1
f 224/4/1 225/4/1 207/4/1
f 207/4/1 225/4/1 208/4/1
f 226/4/1 227/4/1 212/4/1
f 212/4/1 227/4/1 213/4/1
f 228/8/1 229/8/1 214/8/1
f 214/8/1 229/8/1 215/8/1
f 229/4/1 230/4/1 215/4/1
f 215/4/1 230/4/1 216/4/1
f 230/8/1 231/8/1 216/8/1
f 216/8/1 231/8/1 217/8/1
f 231/4/1 232/4/1 217/4/1
f 217/4/1 232/4/1 218/4/1
f 232/8/1 233/8/1 218/8/1
f 218/8/1 233/8/1 219/8/1
f 233/4/1 234/4/1 219/4/1
f 219/4/1 234/4/1 220/4/1
f 234/8/1 235/8/1 220/8/1
f 220/8/1 235/8/1 221/8/1
f 235/4/1 236/4/1 221/4/1
f 221/4/1 236/4/1 222/4/1
f 237/5/1 238/5/1 226/5/1
f 226/5/1 238/5/1 227/5/1
f 239/4/1 240/4/1 228/4/1
f 228/4/1 240/4/1 229/4/1
f 240/8/1 241/8/1 229/8/1
f 229/8/1 241/8/1 230/8/1
f 241/4/1 242/4/1 230/4/1
f 230/4/1 242/4/1 231/4/1
f 242/8/1 243/8/1 231/8/1
f 231/8/1 243/8/1 232/8/1
f 243/4/1 244/4/1 232/4/1
f 232/4/1 244/4/1 233/4/1
f 244/8/1 245/8/1 233/8/1
f 233/8/1 245/8/1 234/8/1
f 245/4/1 246/4/1 234/4/1
f 234/4/1 246/4/1 235/4/1
f 247/7/1 248/7/1 79/7/1
f 79/7/1 248/7/1 80/7/1
f 248/7/1 249/7/1 81/7/1
f 81/7/1 249/7/1 86/7/1
f 250/4/1 251/4/1 237/4/1
f 237/4/1 251/4/1 238/4/1
f 252/8/1 253/8/1 239/8/1
f 239/8/1 253/8/1 240/8/1
f 253/4/1 254/4/1 240/4/1
f 240/4/1 254/4/1 241/4/1
f 254/8/1 255/8/1 241/8/1
f 241/8/1 255/8/1 242/8/1
f 255/4/1 256/4/1 242/4/1
f 242/4/1 256/4/1 243/4/1
f 256/8/1 257/8/1 243/8/1
f 243/8/1 257/8/1 244/8/1
f 257/4/1 258/4/1 244/4/1
f 244/4/1 258/4/1 245/4/1
f 259/5/1 260/5/1 250/5/1
f 250/5/1 260/5/1 251/5/1
f 261/4/1 262/4/1 252/4/1
f 252/4/1 262/4/1 253/4/1
f 262/8/1 263/8/1 253/8/1
f 253/8/1 263/8/1 254/8/1
f 263/4/1 264/4/1 254/4/1
f 254/4/1 264/4/1 255/4/1
f 264/8/1 265/8/1 255/8/1
f 255/8/1 265/8/1 256/8/1
f 265/4/1 266/4/1 256/4/1
f 256/4/1 266/4/1 257/4/1
f 267/7/1 268/7/1 111/7/1
f 111/7/1 268/7/1 112/7/1
f 268/7/1 269/7/1 113/7/1
f 113/7/1 269/7/1 118/7/1
f 269/7/1 270/7/1 115/7/1
f 115/7/1 270/7/1 116/7/1
f 271/4/1 272/4/1 259/4/1
f 259/4/1 272/4/1 260/4/1
f 273/8/1 274/8/1 261/8/1
f 261/8/1 274/8/1 262/8/1
f 274/4/1 275/4/1 262/4/1
f 262/4/1 275/4/1 263/4/1
f 275/8/1 276/8/1 263/8/1
f 263/8/1 276/8/1 264/8/1
f 276/4/1 277/4/1 264/4/1
f 264/4/1 277/4/1 265/4/1
f 278/4/1 279/4/1 268/4/1
f 268/4/1 279/4/1 270/4/1
f 280/5/1 281/5/1 271/5/1
f 271/5/1 281/5/1 272/5/1
f 282/4/1 283/4/1 273/4/1
f 273/4/1 283/4/1 274/4/1
f 283/8/1 284/8/1 274/8/1
f 274/8/1 284/8/1 275/8/1
f 284/4/1 285/4/1 275/4/1
f 275/4/1 285/4/1 276/4/1
f 285/8/1 286/8/1 276/8/1
f 276/8/1 286/8/1 277/8/1
f 287/1/1 288/1/1 278/1/1
f 278/1/1 288/1/1 279/1/1
f 289/4/1 290/4/1 280/4/1
f 280/4/1 290/4/1 281/4/1
f 291/8/1 292/8/1 282/8/1
f 282/8/1 292/8/1 283/8/1
f 292/4/1 293/4/1 283/4/1
f 283/4/1 293/4/1 284/4/1
f 293/8/1 294/8/1 284/8/1
f 284/8/1 294/8/1 285/8/1
f 294/4/1 295/4/1 285/4/1
f 285/4/1 295/4/1 286/4/1
f 296/4/1 297/4/1 287/4/1
f 287/4/1 297/4/1 288/4/1
f 298/5/1 299/5/1 289/5/1
f 289/5/1 299/5/1 290/5/1
f 300/4/1 301/4/1 291/4/1
f 291/4/1 301/4/1 292/4/1
f 301/8/1 302/8/1 292/8/1
f 292/8/1 302/8/1 293/8/1
f 302/4/1 303/4/1 293/4/1
f 293/4/1 303/4/1 294/4/1
f 304/8/1 305/8/1 168/8/1
f 168/8/1 305/8/1 169/8/1
f 306/1/1 307/1/1 296/1/1
f 296/1/1 307/1/1 297/1/1
f 308/8/1 309/8/1 170/8/1
f 170/8/1 309/8/1 171/8/1
f 310/4/1 311/4/1 298/4/1
f 298/4/1 311/4/1 299/4/1
f 312/8/1 313/8/1 300/8/1
f 300/8/1 313/8/1 301/8/1
f 313/4/1 314/4/1 301/4/1
f 301/4/1 314/4/1 302/4/1
f 314/8/1 315/8/1 302/8/1
f 302/8/1 315/8/1 303/8/1
f 316/4/1 317/4/1 267/4/1
f 267/4/1 317/4/1 268/4/1
f 317/4/1 318/4/1 306/4/1
f 306/4/1 318/4/1 307/4/1
f 319/5/1 320/5/1 310/5/1
f 310/5/1 320/5/1 311/5/1
f 321/4/1 322/4/1 312/4/1
f 312/4/1 322/4/1 313/4/1
f 322/8/1 323/8/1 313/8/1
f 313/8/1 323/8/1 314/8/1
f 323/4/1 324/4/1 314/4/1
f 314/4/1 324/4/1 315/4/1
f 325/3/1 326/3/1 43/3/1
f 43/3/1 326/3/1 44/3/1
f 327/3/1 328/3/1 117/3/1
f 117/3/1 328/3/1 122/3/1
f 329/4/1 330/4/1 319/4/1
f 319/4/1 330/4/1 320/4/1
f 331/8/1 332/8/1 321/8/1
f 321/8/1 332/8/1 322/8/1
f 332/4/1 333/4/1 322/4/1
f 322/4/1 333/4/1 323/4/1
f 334/5/1 335/5/1 329/5/1
f 329/5/1 335/5/1 330/5/1
f 336/4/1 337/4/1 331/4/1
f 331/4/1 337/4/1 332/4/1
f 337/8/1 338/8/1 332/8/1
f 332/8/1 338/8/1 333/8/1
f 339/8/1 340/8/1 191/8/1
f 191/8/1 340/8/1 192/8/1
f 341/3/1 342/3/1 41/3/1
f 41/3/1 342/3/1 46/3/1
f 343/3/1 344/3/1 247/3/1
f 247/3/1 344/3/1 249/3/1
f 345/3/1 346/3/1 119/3/1
f 119/3/1 346/3/1 120/3/1
f 347/8/1 348/8/1 193/8/1
f 193/8/1 348/8/1 194/8/1
f 349/4/1 350/4/1 334/4/1
f 334/4/1 350/4/1 335/4/1
f 351/8/1 352/8/1 336/8/1
f 336/8/1 352/8/1 337/8/1
f 352/4/1 353/4/1 337/4/1
f 337/4/1 353/4/1 338/4/1
f 354/8/1 355/8/1 187/8/1
f 187/8/1 355/8/1 188/8/1
f 355/8/1 356/8/1 210/8/1
f 210/8/1 356/8/1 211/8/1
f 356/8/1 357/8/1 189/8/1
f 189/8/1 357/8/1 190/8/1
f 357/8/1 358/8/1 166/8/1
f 166/8/1 358/8/1 167/8/1
f 359/5/1 360/5/1 349/5/1
f 349/5/1 360/5/1 350/5/1
f 360/4/1 361/4/1 2/4/1
f 2/4/1 361/4/1 5/4/1
f 361/4/1 362/4/1 351/4/1
f 351/4/1 362/4/1 352/4/1
f 362/8/1 363/8/1 352/8/1
f 352/8/1 363/8/1 353/8/1
f 363/8/1 364/8/1 323/8/1
f 323/8/1 364/8/1 324/8/1
f 364/8/1 365/8/1 294/8/1
f 294/8/1 365/8/1 295/8/1
f 365/8/1 366/8/1 265/8/1
f 265/8/1 366/8/1 266/8/1
f 366/8/1 367/8/1 257/8/1
f 257/8/1 367/8/1 258/8/1
f 367/8/1 368/8/1 245/8/1
f 245/8/1 368/8/1 246/8/1
f 368/8/1 369/8/1 235/8/1
f 235/8/1 369/8/1 236/8/1
f 369/8/1 370/8/1 222/8/1
f 222/8/1 370/8/1 223/8/1
f 370/8/1 371/8/1 206/8/1
f 206/8/1 371/8/1 207/8/1
f 371/8/1 372/8/1 224/8/1
f 224/8/1 372/8/1 225/8/1
f 372/8/1 373/8/1 208/8/1
f 208/8/1 373/8/1 209/8/1
f 374/3/1 375/3/1 339/3/1
f 339/3/1 375/3/1 340/3/1
f 375/3/1 376/3/1 304/3/1
f 304/3/1 376/3/1 305/3/1
f 377/7/1 378/7/1 71/7/1
f 71/7/1 378/7/1 72/7/1
f 378/7/1 379/7/1 73/7/1
f 73/7/1 379/7/1 78/7/1
f 379/7/1 380/7/1 75/7/1
f 75/7/1 380/7/1 76/7/1
f 380/7/1 381/7/1 77/7/1
f 77/7/1 381/7/1 82/7/1
f 381/7/1 382/7/1 343/7/1
f 343/7/1 382/7/1 344/7/1
f 382/7/1 383/7/1 83/7/1
f 83/7/1 383/7/1 84/7/1
f 383/7/1 384/7/1 85/7/1
f 85/7/1 384/7/1 90/7/1
f 384/7/1 385/7/1 87/7/1
f 87/7/1 385/7/1 88/7/1
f 385/7/1 386/7/1 89/7/1
f 89/7/1 386/7/1 94/7/1
f 387/3/1 388/3/1 308/3/1
f 308/3/1 388/3/1 309/3/1
f 388/3/1 389/3/1 347/3/1
f 347/3/1 389/3/1 348/3/1
f 390/3/1 391/3/1 359/3/1
f 359/3/1 391/3/1 373/3/1
f 392/3/1 393/3/1 356/3/1
f 356/3/1 393/3/1 358/3/1
f 394/5/1 395/5/1 390/5/1
f 390/5/1 395/5/1 396/5/1
f 395/3/1 397/3/1 396/3/1
f 396/3/1 397/3/1 391/3/1
f 397/3/1 398/3/1 354/3/1
f 354/3/1 398/3/1 356/3/1
f 399/3/1 400/3/1 377/3/1
f 377/3/1 400/3/1 386/3/1
f 401/7/1 402/7/1 394/7/1
f 394/7/1 402/7/1 403/7/1
f 404/5/1 405/5/1 401/5/1
f 401/5/1 405/5/1 406/5/1
f 407/1/1 408/1/1 410/1/1
f 410/1/1 408/1/1 409/1/1
f 411/1/1 412/1/1 413/1/1
f 413/1/1 412/1/1 397/1/1
f 414/7/1 415/7/1 404/7/1
f 404/7/1 415/7/1 405/7/1
f 416/4/1 417/4/1 403/4/1
f 403/4/1 417/4/1 410/4/1
f 417/4/1 418/4/1 407/4/1
f 407/4/1 418/4/1 408/4/1
f 418/4/1 419/4/1 409/4/1
f 409/4/1 419/4/1 413/4/1
f 419/4/1 420/4/1 411/4/1
f 411/4/1 420/4/1 412/4/1
f 420/4/1 421/4/1 397/4/1
f 397/4/1 421/4/1 422/4/1
f 423/5/1 424/5/1 414/5/1
f 414/5/1 424/5/1 415/5/1
f 425/7/1 426/7/1 423/7/1
f 423/7/1 426/7/1 424/7/1
f 427/5/1 428/5/1 425/5/1
f 425/5/1 428/5/1 426/5/1
f 429/7/1 430/7/1 427/7/1
f 427/7/1 430/7/1 428/7/1
f 431/5/1 432/5/1 429/5/1
f 429/5/1 432/5/1 430/5/1
f 433/7/1 434/7/1 431/7/1
f 431/7/1 434/7/1 432/7/1
f 435/5/1 436/5/1 433/5/1
f 433/5/1 436/5/1 434/5/1
f 437/7/1 438/7/1 435/7/1
f 435/7/1 438/7/1 436/7/1
f 439/5/1 440/5/1 437/5/1
f 437/5/1 440/5/1 438/5/1
f 441/7/1 442/7/1 439/7/1
f 439/7/1 442/7/1 440/7/1
f 443/7/1 444/7/1 341/7/1
f 341/7/1 444/7/1 342/7/1
f 444/7/1 445/7/1 325/7/1
f 325/7/1 445/7/1 326/7/1
f 446/7/1 447/7/1 327/7/1
f 327/7/1 447/7/1 328/7/1
f 447/7/1 448/7/1 345/7/1
f 345/7/1 448/7/1 346/7/1
f 449/5/1 450/5/1 441/5/1
f 441/5/1 450/5/1 442/5/1
f 451/7/1 452/7/1 449/7/1
f 449/7/1 452/7/1 450/7/1
f 453/7/1 454/7/1 455/7/1
f 455/7/1 454/7/1 400/7/1
f 456/5/1 457/5/1 451/5/1
f 451/5/1 457/5/1 452/5/1
f 458/7/1 459/7/1 460/7/1
f 460/7/1 459/7/1 455/7/1
f 459/5/1 461/5/1 453/5/1
f 453/5/1 461/5/1 462/5/1
f 461/7/1 463/7/1 462/7/1
f 462/7/1 463/7/1 454/7/1
f 464/7/1 465/7/1 456/7/1
f 456/7/1 465/7/1 457/7/1
f 466/7/1 467/7/1 468/7/1
f 468/7/1 467/7/1 402/7/1
f 467/7/1 469/7/1 416/7/1
f 416/7/1 469/7/1 421/7/1
f 469/7/1 470/7/1 422/7/1
f 422/7/1 470/7/1 398/7/1
f 470/7/1 471/7/1 392/7/1
f 392/7/1 471/7/1 393/7/1
f 472/7/1 473/7/1 474/7/1
f 474/7/1 473/7/1 460/7/1
f 473/5/1 475/5/1 458/5/1
f 458/5/1 475/5/1 459/5/1
f 476/5/1 477/5/1 461/5/1
f 461/5/1 477/5/1 478/5/1
f 477/7/1 479/7/1 478/7/1
f 478/7/1 479/7/1 463/7/1
f 480/5/1 481/5/1 464/5/1
f 464/5/1 481/5/1 465/5/1
f 482/7/1 483/7/1 480/7/1
f 480/7/1 483/7/1 481/7/1
f 484/3/1 485/3/1 466/3/1
f 466/3/1 485/3/1 471/3/1
f 486/5/1 487/5/1 472/5/1
f 472/5/1 487/5/1 473/5/1
f 487/4/1 488/4/1 473/4/1
f 473/4/1 488/4/1 475/4/1
f 489/4/1 490/4/1 476/4/1
f 476/4/1 490/4/1 477/4/1
f 490/5/1 491/5/1 477/5/1
f 477/5/1 491/5/1 492/5/1
f 493/5/1 494/5/1 482/5/1
f 482/5/1 494/5/1 483/5/1
f 495/5/1 496/5/1 487/5/1
f 487/5/1 496/5/1 488/5/1
f 496/4/1 497/4/1 459/4/1
f 459/4/1 497/4/1 461/4/1
f 497/5/1 498/5/1 489/5/1
f 489/5/1 498/5/1 490/5/1
f 499/7/1 500/7/1 493/7/1
f 493/7/1 500/7/1 494/7/1
f 501/5/1 502/5/1 496/5/1
f 496/5/1 502/5/1 497/5/1
f 503/5/1 504/5/1 499/5/1
f 499/5/1 504/5/1 500/5/1
f 505/7/1 506/7/1 503/7/1
f 503/7/1 506/7/1 504/7/1
f 507/3/1 508/3/1 443/3/1
f 443/3/1 508/3/1 445/3/1
f 509/3/1 510/3/1 446/3/1
f 446/3/1 510/3/1 448/3/1
f 511/5/1 512/5/1 505/5/1
f 505/5/1 512/5/1 506/5/1
f 513/7/1 514/7/1 511/7/1
f 511/7/1 514/7/1 512/7/1
f 515/5/1 516/5/1 513/5/1
f 513/5/1 516/5/1 514/5/1
f 517/7/1 518/7/1 515/7/1
f 515/7/1 518/7/1 516/7/1
f 519/5/1 520/5/1 517/5/1
f 517/5/1 520/5/1 518/5/1
f 521/7/1 522/7/1 519/7/1
f 519/7/1 522/7/1 520/7/1
f 523/5/1 524/5/1 521/5/1
f 521/5/1 524/5/1 522/5/1
f 525/7/1 526/7/1 523/7/1
f 523/7/1 526/7/1 524/7/1
f 527/5/1 528/5/1 525/5/1
f 525/5/1 528/5/1 526/5/1
f 529/7/1 530/7/1 527/7/1
f 527/7/1 530/7/1 528/7/1
f 531/5/1 532/5/1 529/5/1
f 529/5/1 532/5/1 530/5/1
f 533/7/1 534/7/1 531/7/1
f 531/7/1 534/7/1 532/7/1
f 535/5/1 536/5/1 533/5/1
f 533/5/1 536/5/1 534/5/1
f 536/7/1 537/7/1 406/7/1
f 406/7/1 537/7/1 468/7/1
f 537/7/1 538/7/1 484/7/1
f 484/7/1 538/7/1 485/7/1
f 539/7/1 540/7/1 399/7/1
f 399/7/1 540/7/1 474/7/1
f 540/7/1 541/7/1 486/7/1
f 486/7/1 541/7/1 487/7/1
f 541/7/1 542/7/1 495/7/1
f 495/7/1 542/7/1 496/7/1
f 542/7/1 543/7/1 501/7/1
f 501/7/1 543/7/1 502/7/1
f 543/7/1 544/7/1 497/7/1
f 497/7/1 544/7/1 498/7/1
f 544/7/1 545/7/1 490/7/1
f 490/7/1 545/7/1 491/7/1
f 545/7/1 546/7/1 492/7/1
f 492/7/1 546/7/1 479/7/1
f 547/3/1 548/3/1 535/3/1
f 535/3/1 548/3/1 549/3/1
f 548/7/1 550/7/1 549/7/1
f 549/7/1 550/7/1 538/7/1
f 551/5/1 552/5/1 547/5/1
f 547/5/1 552/5/1 553/5/1
f 552/3/1 554/3/1 553/3/1
f 553/3/1 554/3/1 550/3/1
f 554/7/1 555/7/1 374/7/1
f 374/7/1 555/7/1 376/7/1
f 556/3/1 557/3/1 539/3/1
f 539/3/1 557/3/1 546/3/1
f 558/7/1 559/7/1 387/7/1
f 387/7/1 559/7/1 389/7/1
f 560/4/1 561/4/1 551/4/1
f 551/4/1 561/4/1 562/4/1
f 561/8/1 563/8/1 562/8/1
f 562/8/1 563/8/1 564/8/1
f 563/3/1 565/3/1 564/3/1
f 564/3/1 565/3/1 555/3/1
f 566/5/1 567/5/1 560/5/1
f 560/5/1 567/5/1 568/5/1
f 567/4/1 569/4/1 568/4/1
f 568/4/1 569/4/1 570/4/1
f 569/8/1 571/8/1 570/8/1
f 570/8/1 571/8/1 561/8/1
f 571/4/1 572/4/1 561/4/1
f 561/4/1 572/4/1 573/4/1
f 572/8/1 574/8/1 573/8/1
f 573/8/1 574/8/1 575/8/1
f 574/3/1 576/3/1 575/3/1
f 575/3/1 576/3/1 565/3/1
f 576/7/1 577/7/1 507/7/1
f 507/7/1 577/7/1 508/7/1
f 577/7/1 578/7/1 45/7/1
f 45/7/1 578/7/1 50/7/1
f 578/7/1 579/7/1 47/7/1
f 47/7/1 579/7/1 48/7/1
f 579/7/1 580/7/1 49/7/1
f 49/7/1 580/7/1 54/7/1
f 580/7/1 581/7/1 51/7/1
f 51/7/1 581/7/1 52/7/1
f 581/7/1 582/7/1 53/7/1
f 53/7/1 582/7/1 58/7/1
f 582/7/1 583/7/1 55/7/1
f 55/7/1 583/7/1 56/7/1
f 583/7/1 584/7/1 57/7/1
f 57/7/1 584/7/1 62/7/1
f 584/7/1 585/7/1 59/7/1
f 59/7/1 585/7/1 60/7/1
f 585/7/1 586/7/1 61/7/1
f 61/7/1 586/7/1 66/7/1
f 586/7/1 587/7/1 63/7/1
f 63/7/1 587/7/1 64/7/1
f 587/7/1 588/7/1 65/7/1
f 65/7/1 588/7/1 70/7/1
f 588/7/1 589/7/1 67/7/1
f 67/7/1 589/7/1 68/7/1
f 589/7/1 590/7/1 69/7/1
f 69/7/1 590/7/1 74/7/1
f 590/7/1 591/7/1 556/7/1
f 556/7/1 591/7/1 557/7/1
f 591/7/1 592/7/1 91/7/1
f 91/7/1 592/7/1 92/7/1
f 592/7/1 593/7/1 93/7/1
f 93/7/1 593/7/1 98/7/1
f 593/7/1 594/7/1 95/7/1
f 95/7/1 594/7/1 96/7/1
f 594/7/1 595/7/1 97/7/1
f 97/7/1 595/7/1 102/7/1
f 595/7/1 596/7/1 99/7/1
f 99/7/1 596/7/1 100/7/1
f 596/7/1 597/7/1 101/7/1
f 101/7/1 597/7/1 106/7/1
f 597/7/1 598/7/1 103/7/1
f 103/7/1 598/7/1 104/7/1
f 598/7/1 599/7/1 105/7/1
f 105/7/1 599/7/1 110/7/1
f 599/7/1 600/7/1 107/7/1
f 107/7/1 600/7/1 108/7/1
f 600/7/1 601/7/1 109/7/1
f 109/7/1 601/7/1 114/7/1
f 601/7/1 602/7/1 316/7/1
f 316/7/1 602/7/1 318/7/1
f 602/7/1 603/7/1 509/7/1
f 509/7/1 603/7/1 510/7/1
f 603/3/1 604/3/1 558/3/1
f 558/3/1 604/3/1 559/3/1
f 605/2/2 606/2/2 608/2/2
f 608/2/2 606/2/2 607/2/2
f 609/2/3 606/2/3 610/2/3
f 610/2/3 606/2/3 605/2/3
f 611/9/3 609/9/3 612/9/3
f 612/9/3 609/9/3 610/9/3
f 613/2/3 611/2/3 614/2/3
f 614/2/3 611/2/3 612/2/3
f 615/9/3 613/9/3 616/9/3
f 616/9/3 613/9/3 614/9/3
f 617/2/3 615/2/3 618/2/3
f 618/2/3 615/2/3 616/2/3
f 619/6/3 617/6/3 620/6/3
f 620/6/3 617/6/3 618/6/3
f 621/2/3 619/2/3 622/2/3
f 622/2/3 619/2/3 620/2/3
f 623/6/3 621/6/3 624/6/3
f 624/6/3 621/6/3 622/6/3
f 625/2/3 623/2/3 626/2/3
f 626/2/3 623/2/3 624/2/3
f 627/10/3 625/10/3 628/10/3
f 628/10/3 625/10/3 626/10/3
f 4/4/3 627/4/3 1/4/3
f 1/4/3 627/4/3 629/4/3
f 1/5/3 629/5/3 127/5/3
f 127/5/3 629/5/3 630/5/3
f 127/4/3 630/4/3 149/4/3
f 149/4/3 630/4/3 631/4/3
f 149/5/3 631/5/3 173/5/3
f 173/5/3 631/5/3 632/5/3
f 173/4/3 632/4/3 195/4/3
f 195/4/3 632/4/3 633/4/3
f 195/5/3 633/5/3 212/5/3
f 212/5/3 633/5/3 634/5/3
f 212/4/3 634/4/3 226/4/3
f 226/4/3 634/4/3 635/4/3
f 226/5/3 635/5/3 237/5/3
f 237/5/3 635/5/3 636/5/3
f 237/4/3 636/4/3 250/4/3
f 250/4/3 636/4/3 637/4/3
f 250/5/3 637/5/3 259/5/3
f 259/5/3 637/5/3 638/5/3
f 259/4/3 638/4/3 271/4/3
f 271/4/3 638/4/3 639/4/3
f 271/5/3 639/5/3 280/5/3
f 280/5/3 639/5/3 640/5/3
f 280/4/3 640/4/3 289/4/3
f 289/4/3 640/4/3 641/4/3
f 289/5/3 641/5/3 298/5/3
f 298/5/3 641/5/3 642/5/3
f 298/4/3 642/4/3 310/4/3
f 310/4/3 642/4/3 643/4/3
f 310/5/3 643/5/3 319/5/3
f 319/5/3 643/5/3 644/5/3
f 319/4/3 644/4/3 329/4/3
f 329/4/3 644/4/3 645/4/3
f 329/5/3 645/5/3 334/5/3
f 334/5/3 645/5/3 646/5/3
f 334/4/3 646/4/3 349/4/3
f 349/4/3 646/4/3 647/4/3
f 349/5/3 647/5/3 359/5/3
f 359/5/3 647/5/3 648/5/3
f 359/3/3 648/3/3 390/3/3
f 390/3/3 648/3/3 649/3/3
f 390/5/3 649/5/3 394/5/3
f 394/5/3 649/5/3 650/5/3
f 394/7/3 650/7/3 401/7/3
f 401/7/3 650/7/3 651/7/3
f 401/5/3 651/5/3 404/5/3
f 404/5/3 651/5/3 652/5/3
f 404/7/3 652/7/3 414/7/3
f 414/7/3 652/7/3 653/7/3
f 414/5/3 653/5/3 423/5/3
f 423/5/3 653/5/3 654/5/3
f 423/7/3 654/7/3 425/7/3
f 425/7/3 654/7/3 655/7/3
f 425/5/3 655/5/3 427/5/3
f 427/5/3 655/5/3 656/5/3
f 427/7/3 656/7/3 429/7/3
f 429/7/3 656/7/3 657/7/3
f 429/5/3 657/5/3 431/5/3
f 431/5/3 657/5/3 658/5/3
f 431/7/3 658/7/3 433/7/3
f 433/7/3 658/7/3 659/7/3
f 433/5/3 659/5/3 435/5/3
f 435/5/3 659/5/3 660/5/3
f 435/7/3 660/7/3 437/7/3
f 437/7/3 660/7/3 661/7/3
f 437/5/3 661/5/3 439/5/3
f 439/5/3 661/5/3 662/5/3
f 439/7/3 662/7/3 441/7/3
f 441/7/3 662/7/3 663/7/3
f 441/5/3 663/5/3 449/5/3
f 449/5/3 663/5/3 664/5/3
f 449/7/3 664/7/3 451/7/3
f 451/7/3 664/7/3 665/7/3
f 451/5/3 665/5/3 456/5/3
f 456/5/3 665/5/3 666/5/3
f 456/7/3 666/7/3 464/7/3
f 464/7/3 666/7/3 667/7/3
f 464/5/3 667/5/3 480/5/3
f 480/5/3 667/5/3 668/5/3
f 480/7/3 668/7/3 482/7/3
f 482/7/3 668/7/3 669/7/3
f 482/5/3 669/5/3 493/5/3
f 493/5/3 669/5/3 670/5/3
f 493/7/3 670/7/3 499/7/3
f 499/7/3 670/7/3 671/7/3
f 499/5/3 671/5/3 503/5/3
f 503/5/3 671/5/3 672/5/3
f 503/7/3 672/7/3 505/7/3
f 505/7/3 672/7/3 673/7/3
f 505/5/3 673/5/3 511/5/3
f 511/5/3 673/5/3 674/5/3
f 511/7/3 674/7/3 513/7/3
f 513/7/3 674/7/3 675/7/3
f 513/5/3 675/5/3 515/5/3
f 515/5/3 675/5/3 676/5/3
f 515/7/3 676/7/3 517/7/3
f 517/7/3 676/7/3 677/7/3
f 517/5/3 677/5/3 519/5/3
f 519/5/3 677/5/3 678/5/3
f 519/7/3 678/7/3 521/7/3
f 521/7/3 678/7/3 679/7/3
f 521/5/3 679/5/3 523/5/3
f 523/5/3 679/5/3 680/5/3
f 523/7/3 680/7/3 525/7/3
f 525/7/3 680/7/3 681/7/3
f 525/5/3 681/5/3 527/5/3
f 527/5/3 681/5/3 682/5/3
f 527/7/3 682/7/3 529/7/3
f 529/7/3 682/7/3 683/7/3
f 529/5/3 683/5/3 531/5/3
f 531/5/3 683/5/3 684/5/3
f 531/7/3 684/7/3 533/7/3
f 533/7/3 684/7/3 685/7/3
f 533/5/3 685/5/3 535/5/3
f 535/5/3 685/5/3 686/5/3
f 535/3/3 686/3/3 547/3/3
f 547/3/3 686/3/3 687/3/3
f 547/5/3 687/5/3 551/5/3
f 551/5/3 687/5/3 688/5/3
f 551/4/3 688/4/3 560/4/3
f 560/4/3 688/4/3 689/4/3
f 560/5/3 689/5/3 566/5/3
f 566/5/3 689/5/3 628/5/3
f 690/4/4 627/4/4 3/4/4
f 3/4/4 627/4/4 4/4/4
f 691/5/4 690/5/4 6/5/4
f 6/5/4 690/5/4 3/5/4
f 692/4/4 691/4/4 10/4/4
f 10/4/4 691/4/4 6/4/4
f 693/5/4 692/5/4 9/5/4
f 9/5/4 692/5/4 10/5/4
f 694/4/4 693/4/4 14/4/4
f 14/4/4 693/4/4 9/4/4
f 695/5/4 694/5/4 13/5/4
f 13/5/4 694/5/4 14/5/4
f 696/4/4 695/4/4 18/4/4
f 18/4/4 695/4/4 13/4/4
f 697/5/4 696/5/4 17/5/4
f 17/5/4 696/5/4 18/5/4
f 698/4/4 697/4/4 22/4/4
f 22/4/4 697/4/4 17/4/4
f 699/5/4 698/5/4 21/5/4
f 21/5/4 698/5/4 22/5/4
f 700/4/4 699/4/4 26/4/4
f 26/4/4 699/4/4 21/4/4
f 701/5/4 700/5/4 25/5/4
f 25/5/4 700/5/4 26/5/4
f 702/4/4 701/4/4 30/4/4
f 30/4/4 701/4/4 25/4/4
f 703/5/4 702/5/4 29/5/4
f 29/5/4 702/5/4 30/5/4
f 704/4/4 703/4/4 34/4/4
f 34/4/4 703/4/4 29/4/4
f 705/5/4 704/5/4 33/5/4
f 33/5/4 704/5/4 34/5/4
f 706/4/4 705/4/4 38/4/4
f 38/4/4 705/4/4 33/4/4
f 707/5/4 706/5/4 37/5/4
f 37/5/4 706/5/4 38/5/4
f 708/4/4 707/4/4 42/4/4
f 42/4/4 707/4/4 37/4/4
f 709/5/4 708/5/4 41/5/4
f 41/5/4 708/5/4 42/5/4
f 710/3/4 709/3/4 46/3/4
f 46/3/4 709/3/4 41/3/4
f 711/5/4 710/5/4 45/5/4
f 45/5/4 710/5/4 46/5/4
f 712/7/4 711/7/4 50/7/4
f 50/7/4 711/7/4 45/7/4
f 713/5/4 712/5/4 49/5/4
f 49/5/4 712/5/4 50/5/4
f 714/7/4 713/7/4 54/7/4
f 54/7/4 713/7/4 49/7/4
f 715/5/4 714/5/4 53/5/4
f 53/5/4 714/5/4 54/5/4
f 716/7/4 715/7/4 58/7/4
f 58/7/4 715/7/4 53/7/4
f 717/5/4 716/5/4 57/5/4
f 57/5/4 716/5/4 58/5/4
f 718/7/4 717/7/4 62/7/4
f 62/7/4 717/7/4 57/7/4
f 719/5/4 718/5/4 61/5/4
f 61/5/4 718/5/4 62/5/4
f 720/7/4 719/7/4 66/7/4
f 66/7/4 719/7/4 61/7/4
f 721/5/4 720/5/4 65/5/4
f 65/5/4 720/5/4 66/5/4
f 722/7/4 721/7/4 70/7/4
f 70/7/4 721/7/4 65/7/4
f 723/5/4 722/5/4 69/5/4
f 69/5/4 722/5/4 70/5/4
f 724/7/4 723/7/4 74/7/4
f 74/7/4 723/7/4 69/7/4
f 725/5/4 724/5/4 73/5/4
f 73/5/4 724/5/4 74/5/4
f 726/7/4 725/7/4 78/7/4
f 78/7/4 725/7/4 73/7/4
f 727/5/4 726/5/4 77/5/4
f 77/5/4 726/5/4 78/5/4
f 728/7/4 727/7/4 82/7/4
f 82/7/4 727/7/4 77/7/4
f 729/5/4 728/5/4 81/5/4
f 81/5/4 728/5/4 82/5/4
f 730/7/4 729/7/4 86/7/4
f 86/7/4 729/7/4 81/7/4
f 731/5/4 730/5/4 85/5/4
f 85/5/4 730/5/4 86/5/4
f 732/7/4 731/7/4 90/7/4
f 90/7/4 731/7/4 85/7/4
f 733/5/4 732/5/4 89/5/4
f 89/5/4 732/5/4 90/5/4
f 734/7/4 733/7/4 94/7/4
f 94/7/4 733/7/4 89/7/4
f 735/5/4 734/5/4 93/5/4
f 93/5/4 734/5/4 94/5/4
f 736/7/4 735/7/4 98/7/4
f 98/7/4 735/7/4 93/7/4
f 737/5/4 736/5/4 97/5/4
f 97/5/4 736/5/4 98/5/4
f 738/7/4 737/7/4 102/7/4
f 102/7/4 737/7/4 97/7/4
f 739/5/4 738/5/4 101/5/4
f 101/5/4 738/5/4 102/5/4
f 740/7/4 739/7/4 106/7/4
f 106/7/4 739/7/4 101/7/4
f 741/5/4 740/5/4 105/5/4
f 105/5/4 740/5/4 106/5/4
f 742/7/4 741/7/4 110/7/4
f 110/7/4 741/7/4 105/7/4
f 743/5/4 742/5/4 109/5/4
f 109/5/4 742/5/4 110/5/4
f 744/7/4 743/7/4 114/7/4
f 114/7/4 743/7/4 109/7/4
f 745/5/4 744/5/4 113/5/4
f 113/5/4 744/5/4 114/5/4
f 746/7/4 745/7/4 118/7/4
f 118/7/4 745/7/4 113/7/4
f 747/5/4 746/5/4 117/5/4
f 117/5/4 746/5/4 118/5/4
f 748/3/4 747/3/4 122/3/4
f 122/3/4 747/3/4 117/3/4
f 749/5/4 748/5/4 121/5/4
f 121/5/4 748/5/4 122/5/4
f 750/4/4 749/4/4 126/4/4
f 126/4/4 749/4/4 121/4/4
f 607/2/4 606/2/4 751/2/4
f 751/2/4 606/2/4 609/2/4
f 751/9/4 609/9/4 752/9/4
f 752/9/4 609/9/4 611/9/4
f 752/2/4 611/2/4 753/2/4
f 753/2/4 611/2/4 613/2/4
f 753/9/4 613/9/4 754/9/4
f 754/9/4 613/9/4 615/9/4
f 754/2/4 615/2/4 755/2/4
f 755/2/4 615/2/4 617/2/4
f 755/6/4 617/6/4 756/6/4
f 756/6/4 617/6/4 619/6/4
f 756/2/4 619/2/4 757/2/4
f 757/2/4 619/2/4 621/2/4
f 757/6/4 621/6/4 758/6/4
f 758/6/4 621/6/4 623/6/4
f 758/2/4 623/2/4 759/2/4
f 759/2/4 623/2/4 625/2/4
f 759/10/4 625/10/4 760/10/4
f 760/10/4 625/10/4 627/10/4
f 760/5/4 750/5/4 125/5/4
f 125/5/4 750/5/4 126/5/4
f 761/5/1 762/5/1 764/5/1
f 764/5/1 762/5/1 763/5/1
f 765/5/1 766/5/1 768/5/1
f 768/5/1 766/5/1 767/5/1
f 769/5/1 770/5/1 772/5/1
f 772/5/1 770/5/1 771/5/1
f 773/5/1 774/5/1 776/5/1
f 776/5/1 774/5/1 775/5/1
f 777/5/1 778/5/1 780/5/1
f 780/5/1 778/5/1 779/5/1
f 781/5/1 782/5/1 784/5/1
f 784/5/1 782/5/1 783/5/1
f 785/5/1 786/5/1 788/5/1
f 788/5/1 786/5/1 787/5/1
f 789/5/1 790/5/1 792/5/1
f 792/5/1 790/5/1 791/5/1
f 793/5/1 794/5/1 796/5/1
f 796/5/1 794/5/1 795/5/1
f 797/4/1 798/4/1 761/4/1
f 761/4/1 798/4/1 762/4/1
f 799/4/1 800/4/1 765/4/1
f 765/4/1 800/4/1 766/4/1
f 801/4/1 802/4/1 769/4/1
f 769/4/1 802/4/1 770/4/1
f 803/4/1 804/4/1 773/4/1
f 773/4/1 804/4/1 774/4/1
f 805/4/1 806/4/1 777/4/1
f 777/4/1 806/4/1 778/4/1
f 807/4/1 808/4/1 781/4/1
f 781/4/1 808/4/1 782/4/1
f 809/4/1 810/4/1 785/4/1
f 785/4/1 810/4/1 786/4/1
f 811/4/1 812/4/1 789/4/1
f 789/4/1 812/4/1 790/4/1
f 813/4/1 814/4/1 793/4/1
f 793/4/1 814/4/1 794/4/1
f 172/4/1 815/4/1 125/4/1
f 125/4/1 815/4/1 764/4/1
f 815/8/1 816/8/1 797/8/1
f 797/8/1 816/8/1 798/8/1
f 816/4/1 817/4/1 763/4/1
f 763/4/1 817/4/1 768/4/1
f 817/8/1 818/8/1 799/8/1
f 799/8/1 818/8/1 800/8/1
f 818/4/1 819/4/1 767/4/1
f 767/4/1 819/4/1 772/4/1
f 819/8/1 820/8/1 801/8/1
f 801/8/1 820/8/1 802/8/1
f 820/4/1 821/4/1 771/4/1
f 771/4/1 821/4/1 776/4/1
f 821/8/1 822/8/1 803/8/1
f 803/8/1 822/8/1 804/8/1
f 822/4/1 823/4/1 775/4/1
f 775/4/1 823/4/1 780/4/1
f 823/8/1 824/8/1 805/8/1
f 805/8/1 824/8/1 806/8/1
f 824/4/1 825/4/1 779/4/1
f 779/4/1 825/4/1 784/4/1
f 825/8/1 826/8/1 807/8/1
f 807/8/1 826/8/1 808/8/1
f 826/4/1 827/4/1 783/4/1
f 783/4/1 827/4/1 788/4/1
f 827/8/1 828/8/1 809/8/1
f 809/8/1 828/8/1 810/8/1
f 828/4/1 829/4/1 787/4/1
f 787/4/1 829/4/1 792/4/1
f 829/8/1 830/8/1 811/8/1
f 811/8/1 830/8/1 812/8/1
f 831/5/1 832/5/1 813/5/1
f 813/5/1 832/5/1 814/5/1
f 833/4/1 834/4/1 815/4/1
f 815/4/1 834/4/1 816/4/1
f 834/8/1 835/8/1 816/8/1
f 816/8/1 835/8/1 817/8/1
f 835/4/1 836/4/1 817/4/1
f 817/4/1 836/4/1 818/4/1
f 836/8/1 837/8/1 818/8/1
f 818/8/1 837/8/1 819/8/1
f 837/4/1 838/4/1 819/4/1
f 819/4/1 838/4/1 820/4/1
f 838/8/1 839/8/1 820/8/1
f 820/8/1 839/8/1 821/8/1
f 839/4/1 840/4/1 821/4/1
f 821/4/1 840/4/1 822/4/1
f 840/8/1 841/8/1 822/8/1
f 822/8/1 841/8/1 823/8/1
f 841/4/1 842/4/1 823/4/1
f 823/4/1 842/4/1 824/4/1
f 842/8/1 843/8/1 824/8/1
f 824/8/1 843/8/1 825/8/1
f 843/4/1 844/4/1 825/4/1
f 825/4/1 844/4/1 826/4/1
f 844/8/1 845/8/1 826/8/1
f 826/8/1 845/8/1 827/8/1
f 845/4/1 846/4/1 827/4/1
f 827/4/1 846/4/1 828/4/1
f 846/8/1 847/8/1 828/8/1
f 828/8/1 847/8/1 829/8/1
f 847/4/1 848/4/1 829/4/1
f 829/4/1 848/4/1 830/4/1
f 849/4/1 850/4/1 831/4/1
f 831/4/1 850/4/1 832/4/1
f 851/4/1 852/4/1 834/4/1
f 834/4/1 852/4/1 835/4/1
f 853/4/1 854/4/1 836/4/1
f 836/4/1 854/4/1 837/4/1
f 854/8/1 855/8/1 837/8/1
f 837/8/1 855/8/1 838/8/1
f 855/4/1 856/4/1 838/4/1
f 838/4/1 856/4/1 839/4/1
f 856/8/1 857/8/1 839/8/1
f 839/8/1 857/8/1 840/8/1
f 857/4/1 858/4/1 840/4/1
f 840/4/1 858/4/1 841/4/1
f 858/8/1 859/8/1 841/8/1
f 841/8/1 859/8/1 842/8/1
f 859/4/1 860/4/1 842/4/1
f 842/4/1 860/4/1 843/4/1
f 860/8/1 861/8/1 843/8/1
f 843/8/1 861/8/1 844/8/1
f 861/4/1 862/4/1 844/4/1
f 844/4/1 862/4/1 845/4/1
f 862/8/1 863/8/1 845/8/1
f 845/8/1 863/8/1 846/8/1
f 863/4/1 864/4/1 846/4/1
f 846/4/1 864/4/1 847/4/1
f 864/8/1 865/8/1 847/8/1
f 847/8/1 865/8/1 848/8/1
f 866/5/1 867/5/1 849/5/1
f 849/5/1 867/5/1 850/5/1
f 868/4/1 869/4/1 854/4/1
f 854/4/1 869/4/1 855/4/1
f 870/4/1 871/4/1 856/4/1
f 856/4/1 871/4/1 857/4/1
f 871/8/1 872/8/1 857/8/1
f 857/8/1 872/8/1 858/8/1
f 872/4/1 873/4/1 858/4/1
f 858/4/1 873/4/1 859/4/1
f 873/8/1 874/8/1 859/8/1
f 859/8/1 874/8/1 860/8/1
f 874/4/1 875/4/1 860/4/1
f 860/4/1 875/4/1 861/4/1
f 875/8/1 876/8/1 861/8/1
f 861/8/1 876/8/1 862/8/1
f 876/4/1 877/4/1 862/4/1
f 862/4/1 877/4/1 863/4/1
f 877/8/1 878/8/1 863/8/1
f 863/8/1 878/8/1 864/8/1
f 878/4/1 879/4/1 864/4/1
f 864/4/1 879/4/1 865/4/1
f 880/4/1 881/4/1 866/4/1
f 866/4/1 881/4/1 867/4/1
f 882/4/1 883/4/1 871/4/1
f 871/4/1 883/4/1 872/4/1
f 883/8/1 884/8/1 872/8/1
f 872/8/1 884/8/1 873/8/1
f 884/4/1 885/4/1 873/4/1
f 873/4/1 885/4/1 874/4/1
f 885/8/1 886/8/1 874/8/1
f 874/8/1 886/8/1 875/8/1
f 886/4/1 887/4/1 875/4/1
f 875/4/1 887/4/1 876/4/1
f 887/8/1 888/8/1 876/8/1
f 876/8/1 888/8/1 877/8/1
f 888/4/1 889/4/1 877/4/1
f 877/4/1 889/4/1 878/4/1
f 889/8/1 890/8/1 878/8/1
f 878/8/1 890/8/1 879/8/1
f 891/5/1 892/5/1 880/5/1
f 880/5/1 892/5/1 881/5/1
f 893/4/1 894/4/1 883/4/1
f 883/4/1 894/4/1 884/4/1
f 894/8/1 895/8/1 884/8/1
f 884/8/1 895/8/1 885/8/1
f 895/4/1 896/4/1 885/4/1
f 885/4/1 896/4/1 886/4/1
f 896/8/1 897/8/1 886/8/1
f 886/8/1 897/8/1 887/8/1
f 897/4/1 898/4/1 887/4/1
f 887/4/1 898/4/1 888/4/1
f 898/8/1 899/8/1 888/8/1
f 888/8/1 899/8/1 889/8/1
f 899/4/1 900/4/1 889/4/1
f 889/4/1 900/4/1 890/4/1
f 901/4/1 902/4/1 891/4/1
f 891/4/1 902/4/1 892/4/1
f 903/4/1 904/4/1 894/4/1
f 894/4/1 904/4/1 895/4/1
f 904/8/1 905/8/1 895/8/1
f 895/8/1 905/8/1 896/8/1
f 905/4/1 906/4/1 896/4/1
f 896/4/1 906/4/1 897/4/1
f 906/8/1 907/8/1 897/8/1
f 897/8/1 907/8/1 898/8/1
f 907/4/1 908/4/1 898/4/1
f 898/4/1 908/4/1 899/4/1
f 908/8/1 909/8/1 899/8/1
f 899/8/1 909/8/1 900/8/1
f 910/5/1 911/5/1 901/5/1
f 901/5/1 911/5/1 902/5/1
f 912/4/1 913/4/1 904/4/1
f 904/4/1 913/4/1 905/4/1
f 913/8/1 914/8/1 905/8/1
f 905/8/1 914/8/1 906/8/1
f 914/4/1 915/4/1 906/4/1
f 906/4/1 915/4/1 907/4/1
f 915/8/1 916/8/1 907/8/1
f 907/8/1 916/8/1 908/8/1
f 916/4/1 917/4/1 908/4/1
f 908/4/1 917/4/1 909/4/1
f 918/4/1 919/4/1 910/4/1
f 910/4/1 919/4/1 911/4/1
f 920/4/1 921/4/1 913/4/1
f 913/4/1 921/4/1 914/4/1
f 921/8/1 922/8/1 914/8/1
f 914/8/1 922/8/1 915/8/1
f 922/4/1 923/4/1 915/4/1
f 915/4/1 923/4/1 916/4/1
f 923/8/1 924/8/1 916/8/1
f 916/8/1 924/8/1 917/8/1
f 925/5/1 926/5/1 918/5/1
f 918/5/1 926/5/1 919/5/1
f 927/8/1 928/8/1 920/8/1
f 920/8/1 928/8/1 921/8/1
f 928/4/1 929/4/1 921/4/1
f 921/4/1 929/4/1 922/4/1
f 929/8/1 930/8/1 922/8/1
f 922/8/1 930/8/1 923/8/1
f 930/4/1 931/4/1 923/4/1
f 923/4/1 931/4/1 924/4/1
f 932/4/1 933/4/1 925/4/1
f 925/4/1 933/4/1 926/4/1
f 934/4/1 935/4/1 927/4/1
f 927/4/1 935/4/1 928/4/1
f 935/8/1 936/8/1 928/8/1
f 928/8/1 936/8/1 929/8/1
f 936/4/1 937/4/1 929/4/1
f 929/4/1 937/4/1 930/4/1
f 937/8/1 938/8/1 930/8/1
f 930/8/1 938/8/1 931/8/1
f 939/5/1 940/5/1 932/5/1
f 932/5/1 940/5/1 933/5/1
f 941/4/1 942/4/1 935/4/1
f 935/4/1 942/4/1 936/4/1
f 942/8/1 943/8/1 936/8/1
f 936/8/1 943/8/1 937/8/1
f 943/4/1 944/4/1 937/4/1
f 937/4/1 944/4/1 938/4/1
f 945/4/1 946/4/1 939/4/1
f 939/4/1 946/4/1 940/4/1
f 947/8/1 948/8/1 941/8/1
f 941/8/1 948/8/1 942/8/1
f 948/4/1 949/4/1 942/4/1
f 942/4/1 949/4/1 943/4/1
f 949/8/1 950/8/1 943/8/1
f 943/8/1 950/8/1 944/8/1
f 951/5/1 952/5/1 945/5/1
f 945/5/1 952/5/1 946/5/1
f 953/4/1 954/4/1 947/4/1
f 947/4/1 954/4/1 948/4/1
f 954/8/1 955/8/1 948/8/1
f 948/8/1 955/8/1 949/8/1
f 955/4/1 956/4/1 949/4/1
f 949/4/1 956/4/1 950/4/1
f 957/4/1 958/4/1 951/4/1
f 951/4/1 958/4/1 952/4/1
f 959/4/1 960/4/1 954/4/1
f 954/4/1 960/4/1 955/4/1
f 960/8/1 961/8/1 955/8/1
f 955/8/1 961/8/1 956/8/1
f 962/5/1 963/5/1 957/5/1
f 957/5/1 963/5/1 958/5/1
f 964/8/1 965/8/1 959/8/1
f 959/8/1 965/8/1 960/8/1
f 965/4/1 966/4/1 960/4/1
f 960/4/1 966/4/1 961/4/1
f 967/4/1 968/4/1 962/4/1
f 962/4/1 968/4/1 963/4/1
f 969/8/1 970/8/1 172/8/1
f 172/8/1 970/8/1 815/8/1
f 970/8/1 971/8/1 833/8/1
f 833/8/1 971/8/1 834/8/1
f 971/8/1 972/8/1 851/8/1
f 851/8/1 972/8/1 852/8/1
f 972/8/1 973/8/1 835/8/1
f 835/8/1 973/8/1 836/8/1
f 974/4/1 975/4/1 964/4/1
f 964/4/1 975/4/1 965/4/1
f 975/8/1 976/8/1 965/8/1
f 965/8/1 976/8/1 966/8/1
f 977/5/1 978/5/1 967/5/1
f 967/5/1 978/5/1 968/5/1
f 979/8/1 980/8/1 853/8/1
f 853/8/1 980/8/1 854/8/1
f 980/8/1 981/8/1 868/8/1
f 868/8/1 981/8/1 869/8/1
f 981/8/1 982/8/1 855/8/1
f 855/8/1 982/8/1 856/8/1
f 982/8/1 983/8/1 870/8/1
f 870/8/1 983/8/1 871/8/1
f 983/8/1 984/8/1 882/8/1
f 882/8/1 984/8/1 883/8/1
f 984/8/1 985/8/1 893/8/1
f 893/8/1 985/8/1 894/8/1
f 985/8/1 986/8/1 903/8/1
f 903/8/1 986/8/1 904/8/1
f 986/8/1 987/8/1 912/8/1
f 912/8/1 987/8/1 913/8/1
f 987/8/1 988/8/1 934/8/1
f 934/8/1 988/8/1 935/8/1
f 988/8/1 989/8/1 953/8/1
f 953/8/1 989/8/1 954/8/1
f 989/8/1 990/8/1 974/8/1
f 974/8/1 990/8/1 975/8/1
f 990/4/1 991/4/1 975/4/1
f 975/4/1 991/4/1 976/4/1
f 991/4/1 992/4/1 791/4/1
f 791/4/1 992/4/1 796/4/1
f 992/4/1 993/4/1 977/4/1
f 977/4/1 993/4/1 978/4/1
f 994/3/1 995/3/1 969/3/1
f 969/3/1 995/3/1 973/3/1
f 996/5/1 997/5/1 992/5/1
f 992/5/1 997/5/1 993/5/1
f 998/3/1 999/3/1 1000/3/1
f 1000/3/1 999/3/1 995/3/1
f 999/3/1 1001/3/1 979/3/1
f 979/3/1 1001/3/1 992/3/1
f 1001/3/1 1002/3/1 996/3/1
f 996/3/1 1002/3/1 997/3/1
f 1003/5/1 1004/5/1 1001/5/1
f 1001/5/1 1004/5/1 1002/5/1
f 1005/7/1 1006/7/1 1003/7/1
f 1003/7/1 1006/7/1 1004/7/1
f 1007/5/1 1008/5/1 1005/5/1
f 1005/5/1 1008/5/1 1006/5/1
f 1009/7/1 1010/7/1 1007/7/1
f 1007/7/1 1010/7/1 1008/7/1
f 1011/5/1 1012/5/1 1009/5/1
f 1009/5/1 1012/5/1 1010/5/1
f 1013/7/1 1014/7/1 1011/7/1
f 1011/7/1 1014/7/1 1012/7/1
f 1015/5/1 1016/5/1 1013/5/1
f 1013/5/1 1016/5/1 1014/5/1
f 1017/7/1 1018/7/1 1015/7/1
f 1015/7/1 1018/7/1 1016/7/1
f 1019/5/1 1020/5/1 1017/5/1
f 1017/5/1 1020/5/1 1018/5/1
f 1021/7/1 1022/7/1 1019/7/1
f 1019/7/1 1022/7/1 1020/7/1
f 1023/5/1 1024/5/1 1021/5/1
f 1021/5/1 1024/5/1 1022/5/1
f 1025/7/1 1026/7/1 1023/7/1
f 1023/7/1 1026/7/1 1024/7/1
f 1027/5/1 1028/5/1 1025/5/1
f 1025/5/1 1028/5/1 1026/5/1
f 1029/7/1 1030/7/1 1027/7/1
f 1027/7/1 1030/7/1 1028/7/1
f 1031/5/1 1032/5/1 1029/5/1
f 1029/5/1 1032/5/1 1030/5/1
f 1033/7/1 1034/7/1 1031/7/1
f 1031/7/1 1034/7/1 1032/7/1
f 1035/7/1 1036/7/1 994/7/1
f 994/7/1 1036/7/1 1000/7/1
f 1036/7/1 1037/7/1 998/7/1
f 998/7/1 1037/7/1 1001/7/1
f 1037/5/1 1038/5/1 1033/5/1
f 1033/5/1 1038/5/1 1034/5/1
f 1039/7/1 1040/7/1 1037/7/1
f 1037/7/1 1040/7/1 1038/7/1
f 1041/3/1 1042/3/1 1035/3/1
f 1035/3/1 1042/3/1 1043/3/1
f 1044/5/1 1045/5/1 1039/5/1
f 1039/5/1 1045/5/1 1040/5/1
f 1046/7/1 1047/7/1 1044/7/1
f 1044/7/1 1047/7/1 1045/7/1
f 1048/5/1 1049/5/1 1046/5/1
f 1046/5/1 1049/5/1 1047/5/1
f 1050/7/1 1051/7/1 1048/7/1
f 1048/7/1 1051/7/1 1049/7/1
f 1052/5/1 1053/5/1 1050/5/1
f 1050/5/1 1053/5/1 1051/5/1
f 1054/7/1 1055/7/1 1052/7/1
f 1052/7/1 1055/7/1 1053/7/1
f 1056/5/1 1057/5/1 1054/5/1
f 1054/5/1 1057/5/1 1055/5/1
f 1058/7/1 1059/7/1 1056/7/1
f 1056/7/1 1059/7/1 1057/7/1
f 1060/5/1 1061/5/1 1058/5/1
f 1058/5/1 1061/5/1 1059/5/1
f 1062/7/1 1063/7/1 1060/7/1
f 1060/7/1 1063/7/1 1061/7/1
f 1064/5/1 1065/5/1 1062/5/1
f 1062/5/1 1065/5/1 1063/5/1
f 1066/7/1 1067/7/1 1064/7/1
f 1064/7/1 1067/7/1 1065/7/1
f 1068/5/1 1069/5/1 1066/5/1
f 1066/5/1 1069/5/1 1067/5/1
f 1070/7/1 1071/7/1 1068/7/1
f 1068/7/1 1071/7/1 1069/7/1
f 1072/7/1 1073/7/1 1074/7/1
f 1074/7/1 1073/7/1 1042/7/1
f 1075/5/1 1076/5/1 1070/5/1
f 1070/5/1 1076/5/1 1071/5/1
f 1077/4/1 1078/4/1 1080/4/1
f 1080/4/1 1078/4/1 1079/4/1
f 1081/7/1 1082/7/1 1075/7/1
f 1075/7/1 1082/7/1 1076/7/1
f 1083/5/1 1084/5/1 1081/5/1
f 1081/5/1 1084/5/1 1082/5/1
f 1085/7/1 1086/7/1 1087/7/1
f 1087/7/1 1086/7/1 1074/7/1
f 1086/4/1 1088/4/1 1072/4/1
f 1072/4/1 1088/4/1 1080/4/1
f 1088/1/1 1089/1/1 1077/1/1
f 1077/1/1 1089/1/1 1090/1/1
f 1089/4/1 1091/4/1 1090/4/1
f 1090/4/1 1091/4/1 1092/4/1
f 1091/1/1 1093/1/1 1092/1/1
f 1092/1/1 1093/1/1 1094/1/1
f 1093/4/1 1095/4/1 1094/4/1
f 1094/4/1 1095/4/1 1078/4/1
f 1095/7/1 1096/7/1 1079/7/1
f 1079/7/1 1096/7/1 1073/7/1
f 1096/7/1 1097/7/1 1043/7/1
f 1043/7/1 1097/7/1 1037/7/1
f 1097/7/1 1098/7/1 1083/7/1
f 1083/7/1 1098/7/1 1084/7/1
f 1099/7/1 1100/7/1 1041/7/1
f 1041/7/1 1100/7/1 1087/7/1
f 1101/5/1 1102/5/1 1097/5/1
f 1097/5/1 1102/5/1 1098/5/1
f 1103/3/1 1104/3/1 1088/3/1
f 1088/3/1 1104/3/1 1097/3/1
f 1104/3/1 1105/3/1 1101/3/1
f 1101/3/1 1105/3/1 1102/3/1
f 1106/3/1 1107/3/1 1099/3/1
f 1099/3/1 1107/3/1 1100/3/1
f 1107/3/1 1108/3/1 1085/3/1
f 1085/3/1 1108/3/1 1088/3/1
f 1109/8/1 1110/8/1 1112/8/1
f 1112/8/1 1110/8/1 1111/8/1
f 1110/4/1 1113/4/1 1111/4/1
f 1111/4/1 1113/4/1 1104/4/1
f 1113/5/1 1114/5/1 1104/5/1
f 1104/5/1 1114/5/1 1105/5/1
f 604/8/1 1115/8/1 1106/8/1
f 1106/8/1 1115/8/1 1108/8/1
f 1115/8/1 1116/8/1 1103/8/1
f 1103/8/1 1116/8/1 1112/8/1
f 1116/4/1 1117/4/1 1109/4/1
f 1109/4/1 1117/4/1 1110/4/1
f 1117/8/1 1118/8/1 1110/8/1
f 1110/8/1 1118/8/1 1119/8/1
f 1118/4/1 1120/4/1 1119/4/1
f 1119/4/1 1120/4/1 1114/4/1
f 608/2/2 607/2/2 1122/2/2
f 1122/2/2 607/2/2 1121/2/2
f 1123/2/5 1124/2/5 1121/2/5
f 1121/2/5 1124/2/5 1122/2/5
f 1125/9/5 1126/9/5 1123/9/5
f 1123/9/5 1126/9/5 1124/9/5
f 1127/2/5 1128/2/5 1125/2/5
f 1125/2/5 1128/2/5 1126/2/5
f 1129/9/5 1130/9/5 1127/9/5
f 1127/9/5 1130/9/5 1128/9/5
f 1131/2/5 1132/2/5 1129/2/5
f 1129/2/5 1132/2/5 1130/2/5
f 1133/6/5 1134/6/5 1131/6/5
f 1131/6/5 1134/6/5 1132/6/5
f 1135/2/5 1136/2/5 1133/2/5
f 1133/2/5 1136/2/5 1134/2/5
f 1137/6/5 1138/6/5 1135/6/5
f 1135/6/5 1138/6/5 1136/6/5
f 1139/2/5 1140/2/5 1137/2/5
f 1137/2/5 1140/2/5 1138/2/5
f 1141/10/5 1142/10/5 1139/10/5
f 1139/10/5 1142/10/5 1140/10/5
f 795/5/5 794/5/5 1141/5/5
f 1141/5/5 794/5/5 1143/5/5
f 794/4/5 814/4/5 1143/4/5
f 1143/4/5 814/4/5 1144/4/5
f 814/5/5 832/5/5 1144/5/5
f 1144/5/5 832/5/5 1145/5/5
f 832/4/5 850/4/5 1145/4/5
f 1145/4/5 850/4/5 1146/4/5
f 850/5/5 867/5/5 1146/5/5
f 1146/5/5 867/5/5 1147/5/5
f 867/4/5 881/4/5 1147/4/5
f 1147/4/5 881/4/5 1148/4/5
f 881/5/5 892/5/5 1148/5/5
f 1148/5/5 892/5/5 1149/5/5
f 892/4/5 902/4/5 1149/4/5
f 1149/4/5 902/4/5 1150/4/5
f 902/5/5 911/5/5 1150/5/5
f 1150/5/5 911/5/5 1151/5/5
f 911/4/5 919/4/5 1151/4/5
f 1151/4/5 919/4/5 1152/4/5
f 919/5/5 926/5/5 1152/5/5
f 1152/5/5 926/5/5 1153/5/5
f 926/4/5 933/4/5 1153/4/5
f 1153/4/5 933/4/5 1154/4/5
f 933/5/5 940/5/5 1154/5/5
f 1154/5/5 940/5/5 1155/5/5
f 940/4/5 946/4/5 1155/4/5
f 1155/4/5 946/4/5 1156/4/5
f 946/5/5 952/5/5 1156/5/5
f 1156/5/5 952/5/5 1157/5/5
f 952/4/5 958/4/5 1157/4/5
f 1157/4/5 958/4/5 1158/4/5
f 958/5/5 963/5/5 1158/5/5
f 1158/5/5 963/5/5 1159/5/5
f 963/4/5 968/4/5 1159/4/5
f 1159/4/5 968/4/5 1160/4/5
f 968/5/5 978/5/5 1160/5/5
f 1160/5/5 978/5/5 1161/5/5
f 978/4/5 993/4/5 1161/4/5
f 1161/4/5 993/4/5 1162/4/5
f 993/5/5 997/5/5 1162/5/5
f 1162/5/5 997/5/5 1163/5/5
f 997/3/5 1002/3/5 1163/3/5
f 1163/3/5 1002/3/5 1164/3/5
f 1002/5/5 1004/5/5 1164/5/5
f 1164/5/5 1004/5/5 1165/5/5
f 1004/7/5 1006/7/5 1165/7/5
f 1165/7/5 1006/7/5 1166/7/5
f 1006/5/5 1008/5/5 1166/5/5
f 1166/5/5 1008/5/5 1167/5/5
f 1008/7/5 1010/7/5 1167/7/5
f 1167/7/5 1010/7/5 1168/7/5
f 1010/5/5 1012/5/5 1168/5/5
f 1168/5/5 1012/5/5 1169/5/5
f 1012/7/5 1014/7/5 1169/7/5
f 1169/7/5 1014/7/5 1170/7/5
f 1014/5/5 1016/5/5 1170/5/5
f 1170/5/5 1016/5/5 1171/5/5
f 1016/7/5 1018/7/5 1171/7/5
f 1171/7/5 1018/7/5 1172/7/5
f 1018/5/5 1020/5/5 1172/5/5
f 1172/5/5 1020/5/5 1173/5/5
f 1020/7/5 1022/7/5 1173/7/5
f 1173/7/5 1022/7/5 1174/7/5
f 1022/5/5 1024/5/5 1174/5/5
f 1174/5/5 1024/5/5 1175/5/5
f 1024/7/5 1026/7/5 1175/7/5
f 1175/7/5 1026/7/5 1176/7/5
f 1026/5/5 1028/5/5 1176/5/5
f 1176/5/5 1028/5/5 1177/5/5
f 1028/7/5 1030/7/5 1177/7/5
f 1177/7/5 1030/7/5 1178/7/5
f 1030/5/5 1032/5/5 1178/5/5
f 1178/5/5 1032/5/5 1179/5/5
f 1032/7/5 1034/7/5 1179/7/5
f 1179/7/5 1034/7/5 1180/7/5
f 1034/5/5 1038/5/5 1180/5/5
f 1180/5/5 1038/5/5 1181/5/5
f 1038/7/5 1040/7/5 1181/7/5
f 1181/7/5 1040/7/5 1182/7/5
f 1040/5/5 1045/5/5 1182/5/5
f 1182/5/5 1045/5/5 1183/5/5
f 1045/7/5 1047/7/5 1183/7/5
f 1183/7/5 1047/7/5 1184/7/5
f 1047/5/5 1049/5/5 1184/5/5
f 1184/5/5 1049/5/5 1185/5/5
f 1049/7/5 1051/7/5 1185/7/5
f 1185/7/5 1051/7/5 1186/7/5
f 1051/5/5 1053/5/5 1186/5/5
f 1186/5/5 1053/5/5 1187/5/5
f 1053/7/5 1055/7/5 1187/7/5
f 1187/7/5 1055/7/5 1188/7/5
f 1055/5/5 1057/5/5 1188/5/5
f 1188/5/5 1057/5/5 1189/5/5
f 1057/7/5 1059/7/5 1189/7/5
f 1189/7/5 1059/7/5 1190/7/5
f 1059/5/5 1061/5/5 1190/5/5
f 1190/5/5 1061/5/5 1191/5/5
f 1061/7/5 1063/7/5 1191/7/5
f 1191/7/5 1063/7/5 1192/7/5
f 1063/5/5 1065/5/5 1192/5/5
f 1192/5/5 1065/5/5 1193/5/5
f 1065/7/5 1067/7/5 1193/7/5
f 1193/7/5 1067/7/5 1194/7/5
f 1067/5/5 1069/5/5 1194/5/5
f 1194/5/5 1069/5/5 1195/5/5
f 1069/7/5 1071/7/5 1195/7/5
f 1195/7/5 1071/7/5 1196/7/5
f 1071/5/5 1076/5/5 1196/5/5
f 1196/5/5 1076/5/5 1197/5/5
f 1076/7/5 1082/7/5 1197/7/5
f 1197/7/5 1082/7/5 1198/7/5
f 1082/5/5 1084/5/5 1198/5/5
f 1198/5/5 1084/5/5 1199/5/5
f 1084/7/5 1098/7/5 1199/7/5
f 1199/7/5 1098/7/5 1200/7/5
f 1098/5/5 1102/5/5 1200/5/5
f 1200/5/5 1102/5/5 1201/5/5
f 1102/3/5 1105/3/5 1201/3/5
f 1201/3/5 1105/3/5 1202/3/5
f 1105/5/5 1114/5/5 1202/5/5
f 1202/5/5 1114/5/5 1203/5/5
f 1114/4/5 1120/4/5 1203/4/5
f 1203/4/5 1120/4/5 1142/4/5
f 1204/4/4 760/4/4 764/4/4
f 764/4/4 760/4/4 125/4/4
f 1205/5/4 1204/5/4 763/5/4
f 763/5/4 1204/5/4 764/5/4
f 1206/4/4 1205/4/4 768/4/4
f 768/4/4 1205/4/4 763/4/4
f 1207/5/4 1206/5/4 767/5/4
f 767/5/4 1206/5/4 768/5/4
f 1208/4/4 1207/4/4 772/4/4
f 772/4/4 1207/4/4 767/4/4
f 1209/5/4 1208/5/4 771/5/4
f 771/5/4 1208/5/4 772/5/4
f 1210/4/4 1209/4/4 776/4/4
f 776/4/4 1209/4/4 771/4/4
f 1211/5/4 1210/5/4 775/5/4
f 775/5/4 1210/5/4 776/5/4
f 1212/4/4 1211/4/4 780/4/4
f 780/4/4 1211/4/4 775/4/4
f 1213/5/4 1212/5/4 779/5/4
f 779/5/4 1212/5/4 780/5/4
f 1214/4/4 1213/4/4 784/4/4
f 784/4/4 1213/4/4 779/4/4
f 1215/5/4 1214/5/4 783/5/4
f 783/5/4 1214/5/4 784/5/4
f 1216/4/4 1215/4/4 788/4/4
f 788/4/4 1215/4/4 783/4/4
f 1217/5/4 1216/5/4 787/5/4
f 787/5/4 1216/5/4 788/5/4
f 1218/4/4 1217/4/4 792/4/4
f 792/4/4 1217/4/4 787/4/4
f 1219/5/4 1218/5/4 791/5/4
f 791/5/4 1218/5/4 792/5/4
f 1220/4/4 1219/4/4 796/4/4
f 796/4/4 1219/4/4 791/4/4
f 1121/2/4 607/2/4 1123/2/4
f 1123/2/4 607/2/4 751/2/4
f 1123/9/4 751/9/4 1125/9/4
f 1125/9/4 751/9/4 752/9/4
f 1125/2/4 752/2/4 1127/2/4
f 1127/2/4 752/2/4 753/2/4
f 1127/9/4 753/9/4 1129/9/4
f 1129/9/4 753/9/4 754/9/4
f 1129/2/4 754/2/4 1131/2/4
f 1131/2/4 754/2/4 755/2/4
f 1131/6/4 755/6/4 1133/6/4
f 1133/6/4 755/6/4 756/6/4
f 1133/2/4 756/2/4 1135/2/4
f 1135/2/4 756/2/4 757/2/4
f 1135/6/4 757/6/4 1137/6/4
f 1137/6/4 757/6/4 758/6/4
f 1137/2/4 758/2/4 1139/2/4
f 1139/2/4 758/2/4 759/2/4
f 1139/10/4 759/10/4 1141/10/4
f 1141/10/4 759/10/4 760/10/4
f 1141/5/4 1220/5/4 795/5/4
f 795/5/4 1220/5/4 796/5/4
f 1221/4/1 1222/4/1 566/4/1
f 566/4/1 1222/4/1 571/4/1
f 1222/8/1 1223/8/1 571/8/1
f 571/8/1 1223/8/1 1224/8/1
f 1225/5/1 1226/5/1 1221/5/1
f 1221/5/1 1226/5/1 1227/5/1
f 1228/8/1 1229/8/1 1230/8/1
f 1230/8/1 1229/8/1 1222/8/1
f 1229/4/1 1231/4/1 1222/4/1
f 1222/4/1 1231/4/1 1232/4/1
f 1231/8/1 1233/8/1 1232/8/1
f 1232/8/1 1233/8/1 1223/8/1
f 1234/7/1 1235/7/1 1237/7/1
f 1237/7/1 1235/7/1 1236/7/1
f 1238/7/1 1239/7/1 602/7/1
f 602/7/1 1239/7/1 1240/7/1
f 1241/4/1 1242/4/1 1225/4/1
f 1225/4/1 1242/4/1 1226/4/1
f 1243/4/1 1244/4/1 1228/4/1
f 1228/4/1 1244/4/1 1229/4/1
f 1244/8/1 1245/8/1 1229/8/1
f 1229/8/1 1245/8/1 1231/8/1
f 1245/4/1 1246/4/1 1231/4/1
f 1231/4/1 1246/4/1 1247/4/1
f 1248/7/1 1249/7/1 1250/7/1
f 1250/7/1 1249/7/1 1235/7/1
f 1251/5/1 1252/5/1 1241/5/1
f 1241/5/1 1252/5/1 1242/5/1
f 1253/8/1 1254/8/1 1243/8/1
f 1243/8/1 1254/8/1 1244/8/1
f 1254/4/1 1255/4/1 1244/4/1
f 1244/4/1 1255/4/1 1245/4/1
f 1255/8/1 1256/8/1 1245/8/1
f 1245/8/1 1256/8/1 1246/8/1
f 1257/3/1 1258/3/1 1224/3/1
f 1224/3/1 1258/3/1 1237/3/1
f 1259/4/1 1260/4/1 1248/4/1
f 1248/4/1 1260/4/1 1261/4/1
f 1262/3/1 1263/3/1 603/3/1
f 603/3/1 1263/3/1 1264/3/1
f 1265/4/1 1266/4/1 1251/4/1
f 1251/4/1 1266/4/1 1252/4/1
f 1267/4/1 1268/4/1 1253/4/1
f 1253/4/1 1268/4/1 1254/4/1
f 1268/8/1 1269/8/1 1254/8/1
f 1254/8/1 1269/8/1 1255/8/1
f 1269/4/1 1270/4/1 1255/4/1
f 1255/4/1 1270/4/1 1256/4/1
f 1270/8/1 1271/8/1 1247/8/1
f 1247/8/1 1271/8/1 1233/8/1
f 1272/1/1 1273/1/1 1259/1/1
f 1259/1/1 1273/1/1 1274/1/1
f 1275/5/1 1276/5/1 1265/5/1
f 1265/5/1 1276/5/1 1266/5/1
f 1277/8/1 1278/8/1 1267/8/1
f 1267/8/1 1278/8/1 1268/8/1
f 1278/4/1 1279/4/1 1268/4/1
f 1268/4/1 1279/4/1 1269/4/1
f 1279/8/1 1280/8/1 1269/8/1
f 1269/8/1 1280/8/1 1270/8/1
f 1280/4/1 1281/4/1 1270/4/1
f 1270/4/1 1281/4/1 1282/4/1
f 1283/4/1 1284/4/1 1272/4/1
f 1272/4/1 1284/4/1 1273/4/1
f 1285/4/1 1286/4/1 1275/4/1
f 1275/4/1 1286/4/1 1276/4/1
f 1287/4/1 1288/4/1 1277/4/1
f 1277/4/1 1288/4/1 1278/4/1
f 1288/8/1 1289/8/1 1278/8/1
f 1278/8/1 1289/8/1 1279/8/1
f 1289/4/1 1290/4/1 1279/4/1
f 1279/4/1 1290/4/1 1280/4/1
f 1290/8/1 1291/8/1 1280/8/1
f 1280/8/1 1291/8/1 1281/8/1
f 1292/1/1 1293/1/1 1283/1/1
f 1283/1/1 1293/1/1 1284/1/1
f 1294/5/1 1295/5/1 1285/5/1
f 1285/5/1 1295/5/1 1286/5/1
f 1296/8/1 1297/8/1 1287/8/1
f 1287/8/1 1297/8/1 1288/8/1
f 1297/4/1 1298/4/1 1288/4/1
f 1288/4/1 1298/4/1 1289/4/1
f 1298/8/1 1299/8/1 1289/8/1
f 1289/8/1 1299/8/1 1290/8/1
f 1299/4/1 1300/4/1 1290/4/1
f 1290/4/1 1300/4/1 1291/4/1
f 1300/8/1 1301/8/1 1282/8/1
f 1282/8/1 1301/8/1 1271/8/1
f 1302/4/1 1303/4/1 1292/4/1
f 1292/4/1 1303/4/1 1293/4/1
f 1303/4/1 1304/4/1 1274/4/1
f 1274/4/1 1304/4/1 1260/4/1
f 1305/4/1 1306/4/1 1294/4/1
f 1294/4/1 1306/4/1 1295/4/1
f 1307/4/1 1308/4/1 1296/4/1
f 1296/4/1 1308/4/1 1297/4/1
f 1308/8/1 1309/8/1 1297/8/1
f 1297/8/1 1309/8/1 1298/8/1
f 1309/4/1 1310/4/1 1298/4/1
f 1298/4/1 1310/4/1 1299/4/1
f 1310/8/1 1311/8/1 1299/8/1
f 1299/8/1 1311/8/1 1300/8/1
f 1311/4/1 1312/4/1 1300/4/1
f 1300/4/1 1312/4/1 1313/4/1
f 1312/8/1 1314/8/1 1313/8/1
f 1313/8/1 1314/8/1 1301/8/1
f 1315/5/1 1316/5/1 1305/5/1
f 1305/5/1 1316/5/1 1306/5/1
f 1317/8/1 1318/8/1 1307/8/1
f 1307/8/1 1318/8/1 1308/8/1
f 1318/4/1 1319/4/1 1308/4/1
f 1308/4/1 1319/4/1 1309/4/1
f 1319/8/1 1320/8/1 1309/8/1
f 1309/8/1 1320/8/1 1310/8/1
f 1320/4/1 1321/4/1 1310/4/1
f 1310/4/1 1321/4/1 1311/4/1
f 1321/8/1 1322/8/1 1311/8/1
f 1311/8/1 1322/8/1 1312/8/1
f 1322/4/1 1323/4/1 1312/4/1
f 1312/4/1 1323/4/1 1324/4/1
f 1323/8/1 1325/8/1 1324/8/1
f 1324/8/1 1325/8/1 1314/8/1
f 1326/3/1 1327/3/1 1236/3/1
f 1236/3/1 1327/3/1 1328/3/1
f 1329/4/1 1330/4/1 1315/4/1
f 1315/4/1 1330/4/1 1316/4/1
f 1331/4/1 1332/4/1 1317/4/1
f 1317/4/1 1332/4/1 1318/4/1
f 1332/8/1 1333/8/1 1318/8/1
f 1318/8/1 1333/8/1 1319/8/1
f 1333/4/1 1334/4/1 1319/4/1
f 1319/4/1 1334/4/1 1320/4/1
f 1334/8/1 1335/8/1 1320/8/1
f 1320/8/1 1335/8/1 1321/8/1
f 1335/4/1 1336/4/1 1321/4/1
f 1321/4/1 1336/4/1 1322/4/1
f 1336/8/1 1337/8/1 1322/8/1
f 1322/8/1 1337/8/1 1323/8/1
f 1337/4/1 1338/4/1 1323/4/1
f 1323/4/1 1338/4/1 1339/4/1
f 1338/8/1 1340/8/1 1339/8/1
f 1339/8/1 1340/8/1 1325/8/1
f 1341/5/1 1342/5/1 1329/5/1
f 1329/5/1 1342/5/1 1330/5/1
f 1343/8/1 1344/8/1 1331/8/1
f 1331/8/1 1344/8/1 1332/8/1
f 1344/4/1 1345/4/1 1332/4/1
f 1332/4/1 1345/4/1 1333/4/1
f 1345/8/1 1346/8/1 1333/8/1
f 1333/8/1 1346/8/1 1334/8/1
f 1346/4/1 1347/4/1 1334/4/1
f 1334/4/1 1347/4/1 1335/4/1
f 1347/8/1 1348/8/1 1335/8/1
f 1335/8/1 1348/8/1 1336/8/1
f 1348/4/1 1349/4/1 1336/4/1
f 1336/4/1 1349/4/1 1337/4/1
f 1349/8/1 1350/8/1 1337/8/1
f 1337/8/1 1350/8/1 1338/8/1
f 1350/4/1 1351/4/1 1338/4/1
f 1338/4/1 1351/4/1 1352/4/1
f 1351/8/1 1353/8/1 1352/8/1
f 1352/8/1 1353/8/1 1340/8/1
f 1354/4/1 1355/4/1 1341/4/1
f 1341/4/1 1355/4/1 1342/4/1
f 1356/4/1 1357/4/1 1343/4/1
f 1343/4/1 1357/4/1 1344/4/1
f 1357/8/1 1358/8/1 1344/8/1
f 1344/8/1 1358/8/1 1345/8/1
f 1358/4/1 1359/4/1 1345/4/1
f 1345/4/1 1359/4/1 1346/4/1
f 1359/8/1 1360/8/1 1346/8/1
f 1346/8/1 1360/8/1 1347/8/1
f 1360/4/1 1361/4/1 1347/4/1
f 1347/4/1 1361/4/1 1348/4/1
f 1361/8/1 1362/8/1 1348/8/1
f 1348/8/1 1362/8/1 1349/8/1
f 1362/4/1 1363/4/1 1349/4/1
f 1349/4/1 1363/4/1 1350/4/1
f 1363/8/1 1364/8/1 1350/8/1
f 1350/8/1 1364/8/1 1351/8/1
f 1364/4/1 1365/4/1 1351/4/1
f 1351/4/1 1365/4/1 1366/4/1
f 1365/8/1 1367/8/1 1366/8/1
f 1366/8/1 1367/8/1 1368/8/1
f 1367/4/1 1369/4/1 1368/4/1
f 1368/4/1 1369/4/1 1370/4/1
f 1369/8/1 1371/8/1 1370/8/1
f 1370/8/1 1371/8/1 1353/8/1
f 1372/5/1 1373/5/1 1354/5/1
f 1354/5/1 1373/5/1 1355/5/1
f 1374/8/1 1375/8/1 1356/8/1
f 1356/8/1 1375/8/1 1357/8/1
f 1375/4/1 1376/4/1 1357/4/1
f 1357/4/1 1376/4/1 1358/4/1
f 1376/8/1 1377/8/1 1358/8/1
f 1358/8/1 1377/8/1 1359/8/1
f 1377/4/1 1378/4/1 1359/4/1
f 1359/4/1 1378/4/1 1360/4/1
f 1378/8/1 1379/8/1 1360/8/1
f 1360/8/1 1379/8/1 1361/8/1
f 1379/4/1 1380/4/1 1361/4/1
f 1361/4/1 1380/4/1 1362/4/1
f 1380/8/1 1381/8/1 1362/8/1
f 1362/8/1 1381/8/1 1363/8/1
f 1381/4/1 1382/4/1 1363/4/1
f 1363/4/1 1382/4/1 1364/4/1
f 1382/8/1 1383/8/1 1364/8/1
f 1364/8/1 1383/8/1 1365/8/1
f 1383/4/1 1384/4/1 1365/4/1
f 1365/4/1 1384/4/1 1367/4/1
f 1384/8/1 1385/8/1 1367/8/1
f 1367/8/1 1385/8/1 1369/8/1
f 1385/4/1 1386/4/1 1369/4/1
f 1369/4/1 1386/4/1 1387/4/1
f 1386/8/1 1388/8/1 1387/8/1
f 1387/8/1 1388/8/1 1389/8/1
f 1388/4/1 1390/4/1 1389/4/1
f 1389/4/1 1390/4/1 1391/4/1
f 1390/8/1 1392/8/1 1391/8/1
f 1391/8/1 1392/8/1 1371/8/1
f 1393/8/1 1394/8/1 1264/8/1
f 1264/8/1 1394/8/1 604/8/1
f 1395/4/1 1396/4/1 1372/4/1
f 1372/4/1 1396/4/1 1373/4/1
f 1397/4/1 1398/4/1 1374/4/1
f 1374/4/1 1398/4/1 1375/4/1
f 1398/8/1 1399/8/1 1375/8/1
f 1375/8/1 1399/8/1 1376/8/1
f 1399/4/1 1400/4/1 1376/4/1
f 1376/4/1 1400/4/1 1377/4/1
f 1400/8/1 1401/8/1 1377/8/1
f 1377/8/1 1401/8/1 1378/8/1
f 1401/4/1 1402/4/1 1378/4/1
f 1378/4/1 1402/4/1 1379/4/1
f 1402/8/1 1403/8/1 1379/8/1
f 1379/8/1 1403/8/1 1380/8/1
f 1403/4/1 1404/4/1 1380/4/1
f 1380/4/1 1404/4/1 1381/4/1
f 1404/8/1 1405/8/1 1381/8/1
f 1381/8/1 1405/8/1 1382/8/1
f 1405/4/1 1406/4/1 1382/4/1
f 1382/4/1 1406/4/1 1383/4/1
f 1406/8/1 1407/8/1 1383/8/1
f 1383/8/1 1407/8/1 1384/8/1
f 1407/4/1 1408/4/1 1384/4/1
f 1384/4/1 1408/4/1 1385/4/1
f 1408/8/1 1409/8/1 1385/8/1
f 1385/8/1 1409/8/1 1386/8/1
f 1409/4/1 1410/4/1 1386/4/1
f 1386/4/1 1410/4/1 1388/4/1
f 1410/8/1 1411/8/1 1388/8/1
f 1388/8/1 1411/8/1 1390/8/1
f 1411/4/1 1412/4/1 1390/4/1
f 1390/4/1 1412/4/1 1413/4/1
f 1412/8/1 1414/8/1 1413/8/1
f 1413/8/1 1414/8/1 1415/8/1
f 1414/4/1 1416/4/1 1415/4/1
f 1415/4/1 1416/4/1 1392/4/1
f 1416/8/1 1417/8/1 1257/8/1
f 1257/8/1 1417/8/1 1418/8/1
f 1419/8/1 1420/8/1 1262/8/1
f 1262/8/1 1420/8/1 1263/8/1
f 1420/4/1 1421/4/1 1393/4/1
f 1393/4/1 1421/4/1 1394/4/1
f 1422/5/1 1423/5/1 1395/5/1
f 1395/5/1 1423/5/1 1396/5/1
f 1424/8/1 1425/8/1 1397/8/1
f 1397/8/1 1425/8/1 1398/8/1
f 1426/8/1 1427/8/1 1399/8/1
f 1399/8/1 1427/8/1 1400/8/1
f 1428/8/1 1429/8/1 1401/8/1
f 1401/8/1 1429/8/1 1402/8/1
f 1430/8/1 1431/8/1 1403/8/1
f 1403/8/1 1431/8/1 1404/8/1
f 1432/8/1 1433/8/1 1405/8/1
f 1405/8/1 1433/8/1 1406/8/1
f 1434/8/1 1435/8/1 1407/8/1
f 1407/8/1 1435/8/1 1408/8/1
f 1436/8/1 1437/8/1 1409/8/1
f 1409/8/1 1437/8/1 1410/8/1
f 1438/8/1 1439/8/1 1411/8/1
f 1411/8/1 1439/8/1 1412/8/1
f 1440/8/1 1441/8/1 1414/8/1
f 1414/8/1 1441/8/1 1416/8/1
f 1442/8/1 1443/8/1 1420/8/1
f 1420/8/1 1443/8/1 1421/8/1
f 1444/4/1 1445/4/1 1422/4/1
f 1422/4/1 1445/4/1 1423/4/1
f 1446/4/1 1447/4/1 1424/4/1
f 1424/4/1 1447/4/1 1425/4/1
f 1448/4/1 1449/4/1 1426/4/1
f 1426/4/1 1449/4/1 1427/4/1
f 1450/4/1 1451/4/1 1428/4/1
f 1428/4/1 1451/4/1 1429/4/1
f 1452/4/1 1453/4/1 1430/4/1
f 1430/4/1 1453/4/1 1431/4/1
f 1454/4/1 1455/4/1 1432/4/1
f 1432/4/1 1455/4/1 1433/4/1
f 1456/4/1 1457/4/1 1434/4/1
f 1434/4/1 1457/4/1 1435/4/1
f 1458/4/1 1459/4/1 1436/4/1
f 1436/4/1 1459/4/1 1437/4/1
f 1460/4/1 1461/4/1 1438/4/1
f 1438/4/1 1461/4/1 1439/4/1
f 1462/4/1 1463/4/1 1440/4/1
f 1440/4/1 1463/4/1 1441/4/1
f 1464/3/1 1465/3/1 1418/3/1
f 1418/3/1 1465/3/1 1258/3/1
f 1466/7/1 1467/7/1 1302/7/1
f 1302/7/1 1467/7/1 1304/7/1
f 1468/7/1 1469/7/1 1470/7/1
f 1470/7/1 1469/7/1 1249/7/1
f 1471/7/1 1472/7/1 1473/7/1
f 1473/7/1 1472/7/1 1327/7/1
f 1474/7/1 1475/7/1 1476/7/1
f 1476/7/1 1475/7/1 602/7/1
f 1475/3/1 1477/3/1 1238/3/1
f 1238/3/1 1477/3/1 1239/3/1
f 1478/4/1 1479/4/1 1419/4/1
f 1419/4/1 1479/4/1 1420/4/1
f 1480/5/1 1481/5/1 1444/5/1
f 1444/5/1 1481/5/1 1445/5/1
f 1481/4/1 1482/4/1 1227/4/1
f 1227/4/1 1482/4/1 1230/4/1
f 1482/5/1 1483/5/1 1446/5/1
f 1446/5/1 1483/5/1 1447/5/1
f 1483/4/1 1484/4/1 1398/4/1
f 1398/4/1 1484/4/1 1399/4/1
f 1484/5/1 1485/5/1 1448/5/1
f 1448/5/1 1485/5/1 1449/5/1
f 1485/4/1 1486/4/1 1400/4/1
f 1400/4/1 1486/4/1 1401/4/1
f 1486/5/1 1487/5/1 1450/5/1
f 1450/5/1 1487/5/1 1451/5/1
f 1487/4/1 1488/4/1 1402/4/1
f 1402/4/1 1488/4/1 1403/4/1
f 1488/5/1 1489/5/1 1452/5/1
f 1452/5/1 1489/5/1 1453/5/1
f 1489/4/1 1490/4/1 1404/4/1
f 1404/4/1 1490/4/1 1405/4/1
f 1490/5/1 1491/5/1 1454/5/1
f 1454/5/1 1491/5/1 1455/5/1
f 1491/4/1 1492/4/1 1406/4/1
f 1406/4/1 1492/4/1 1407/4/1
f 1492/5/1 1493/5/1 1456/5/1
f 1456/5/1 1493/5/1 1457/5/1
f 1493/4/1 1494/4/1 1408/4/1
f 1408/4/1 1494/4/1 1409/4/1
f 1494/5/1 1495/5/1 1458/5/1
f 1458/5/1 1495/5/1 1459/5/1
f 1495/4/1 1496/4/1 1410/4/1
f 1410/4/1 1496/4/1 1411/4/1
f 1496/5/1 1497/5/1 1460/5/1
f 1460/5/1 1497/5/1 1461/5/1
f 1497/4/1 1498/4/1 1412/4/1
f 1412/4/1 1498/4/1 1414/4/1
f 1498/5/1 1499/5/1 1462/5/1
f 1462/5/1 1499/5/1 1463/5/1
f 1499/4/1 1500/4/1 1416/4/1
f 1416/4/1 1500/4/1 1417/4/1
f 1500/5/1 1501/5/1 1464/5/1
f 1464/5/1 1501/5/1 1465/5/1
f 1501/3/1 1502/3/1 1234/3/1
f 1234/3/1 1502/3/1 1250/3/1
f 1502/5/1 1503/5/1 1466/5/1
f 1466/5/1 1503/5/1 1504/5/1
f 1503/7/1 1505/7/1 1504/7/1
f 1504/7/1 1505/7/1 1506/7/1
f 1505/5/1 1507/5/1 1506/5/1
f 1506/5/1 1507/5/1 1467/5/1
f 1507/7/1 1508/7/1 1261/7/1
f 1261/7/1 1508/7/1 1470/7/1
f 1508/5/1 1509/5/1 1468/5/1
f 1468/5/1 1509/5/1 1510/5/1
f 1509/7/1 1511/7/1 1510/7/1
f 1510/7/1 1511/7/1 1512/7/1
f 1511/5/1 1513/5/1 1512/5/1
f 1512/5/1 1513/5/1 1514/5/1
f 1513/7/1 1515/7/1 1514/7/1
f 1514/7/1 1515/7/1 1516/7/1
f 1515/5/1 1517/5/1 1516/5/1
f 1516/5/1 1517/5/1 1518/5/1
f 1517/7/1 1519/7/1 1518/7/1
f 1518/7/1 1519/7/1 1520/7/1
f 1519/5/1 1521/5/1 1520/5/1
f 1520/5/1 1521/5/1 1522/5/1
f 1521/7/1 1523/7/1 1522/7/1
f 1522/7/1 1523/7/1 1524/7/1
f 1523/5/1 1525/5/1 1524/5/1
f 1524/5/1 1525/5/1 1526/5/1
f 1525/7/1 1527/7/1 1526/7/1
f 1526/7/1 1527/7/1 1528/7/1
f 1527/5/1 1529/5/1 1528/5/1
f 1528/5/1 1529/5/1 1530/5/1
f 1529/7/1 1531/7/1 1530/7/1
f 1530/7/1 1531/7/1 1532/7/1
f 1531/5/1 1533/5/1 1532/5/1
f 1532/5/1 1533/5/1 1469/5/1
f 1533/7/1 1534/7/1 1326/7/1
f 1326/7/1 1534/7/1 1473/7/1
f 1534/5/1 1535/5/1 1471/5/1
f 1471/5/1 1535/5/1 1472/5/1
f 1535/7/1 1536/7/1 1328/7/1
f 1328/7/1 1536/7/1 1476/7/1
f 1536/5/1 1537/5/1 1474/5/1
f 1474/5/1 1537/5/1 1538/5/1
f 1537/7/1 1539/7/1 1538/7/1
f 1538/7/1 1539/7/1 1540/7/1
f 1539/5/1 1541/5/1 1540/5/1
f 1540/5/1 1541/5/1 1542/5/1
f 1541/7/1 1543/7/1 1542/7/1
f 1542/7/1 1543/7/1 1544/7/1
f 1543/5/1 1545/5/1 1544/5/1
f 1544/5/1 1545/5/1 1546/5/1
f 1545/7/1 1547/7/1 1546/7/1
f 1546/7/1 1547/7/1 1548/7/1
f 1547/5/1 1549/5/1 1548/5/1
f 1548/5/1 1549/5/1 1550/5/1
f 1549/7/1 1551/7/1 1550/7/1
f 1550/7/1 1551/7/1 1552/7/1
f 1551/5/1 1553/5/1 1552/5/1
f 1552/5/1 1553/5/1 1554/5/1
f 1553/7/1 1555/7/1 1554/7/1
f 1554/7/1 1555/7/1 1556/7/1
f 1555/5/1 1557/5/1 1556/5/1
f 1556/5/1 1557/5/1 1558/5/1
f 1557/7/1 1559/7/1 1558/7/1
f 1558/7/1 1559/7/1 1560/7/1
f 1559/5/1 1561/5/1 1560/5/1
f 1560/5/1 1561/5/1 1562/5/1
f 1561/7/1 1563/7/1 1562/7/1
f 1562/7/1 1563/7/1 1564/7/1
f 1563/5/1 1565/5/1 1564/5/1
f 1564/5/1 1565/5/1 1566/5/1
f 1565/7/1 1567/7/1 1566/7/1
f 1566/7/1 1567/7/1 1475/7/1
f 1567/5/1 1568/5/1 1475/5/1
f 1475/5/1 1568/5/1 1477/5/1
f 1568/3/1 1569/3/1 1240/3/1
f 1240/3/1 1569/3/1 603/3/1
f 1569/5/1 1570/5/1 1478/5/1
f 1478/5/1 1570/5/1 1479/5/1
f 1570/4/1 1571/4/1 1442/4/1
f 1442/4/1 1571/4/1 1443/4/1
f 1572/2/2 605/2/2 1573/2/2
f 1573/2/2 605/2/2 608/2/2
f 610/2/3 605/2/3 1574/2/3
f 1574/2/3 605/2/3 1572/2/3
f 612/9/3 610/9/3 1575/9/3
f 1575/9/3 610/9/3 1574/9/3
f 614/2/3 612/2/3 1576/2/3
f 1576/2/3 612/2/3 1575/2/3
f 616/9/3 614/9/3 1577/9/3
f 1577/9/3 614/9/3 1576/9/3
f 618/2/3 616/2/3 1578/2/3
f 1578/2/3 616/2/3 1577/2/3
f 620/6/3 618/6/3 1579/6/3
f 1579/6/3 618/6/3 1578/6/3
f 622/2/3 620/2/3 1580/2/3
f 1580/2/3 620/2/3 1579/2/3
f 624/6/3 622/6/3 1581/6/3
f 1581/6/3 622/6/3 1580/6/3
f 626/2/3 624/2/3 1582/2/3
f 1582/2/3 624/2/3 1581/2/3
f 628/10/3 626/10/3 1583/10/3
f 1583/10/3 626/10/3 1582/10/3
f 566/4/3 628/4/3 1221/4/3
f 1221/4/3 628/4/3 1584/4/3
f 1221/5/3 1584/5/3 1225/5/3
f 1225/5/3 1584/5/3 1585/5/3
f 1225/4/3 1585/4/3 1241/4/3
f 1241/4/3 1585/4/3 1586/4/3
f 1241/5/3 1586/5/3 1251/5/3
f 1251/5/3 1586/5/3 1587/5/3
f 1251/4/3 1587/4/3 1265/4/3
f 1265/4/3 1587/4/3 1588/4/3
f 1265/5/3 1588/5/3 1275/5/3
f 1275/5/3 1588/5/3 1589/5/3
f 1275/4/3 1589/4/3 1285/4/3
f 1285/4/3 1589/4/3 1590/4/3
f 1285/5/3 1590/5/3 1294/5/3
f 1294/5/3 1590/5/3 1591/5/3
f 1294/4/3 1591/4/3 1305/4/3
f 1305/4/3 1591/4/3 1592/4/3
f 1305/5/3 1592/5/3 1315/5/3
f 1315/5/3 1592/5/3 1593/5/3
f 1315/4/3 1593/4/3 1329/4/3
f 1329/4/3 1593/4/3 1594/4/3
f 1329/5/3 1594/5/3 1341/5/3
f 1341/5/3 1594/5/3 1595/5/3
f 1341/4/3 1595/4/3 1354/4/3
f 1354/4/3 1595/4/3 1596/4/3
f 1354/5/3 1596/5/3 1372/5/3
f 1372/5/3 1596/5/3 1597/5/3
f 1372/4/3 1597/4/3 1395/4/3
f 1395/4/3 1597/4/3 1598/4/3
f 1395/5/3 1598/5/3 1422/5/3
f 1422/5/3 1598/5/3 1599/5/3
f 1422/4/3 1599/4/3 1444/4/3
f 1444/4/3 1599/4/3 1600/4/3
f 1444/5/3 1600/5/3 1480/5/3
f 1480/5/3 1600/5/3 1583/5/3
f 1601/5/6 1481/5/6 1583/5/6
f 1583/5/6 1481/5/6 1480/5/6
f 1602/4/6 1482/4/6 1601/4/6
f 1601/4/6 1482/4/6 1481/4/6
f 1603/5/6 1483/5/6 1602/5/6
f 1602/5/6 1483/5/6 1482/5/6
f 1604/4/6 1484/4/6 1603/4/6
f 1603/4/6 1484/4/6 1483/4/6
f 1605/5/6 1485/5/6 1604/5/6
f 1604/5/6 1485/5/6 1484/5/6
f 1606/4/6 1486/4/6 1605/4/6
f 1605/4/6 1486/4/6 1485/4/6
f 1607/5/6 1487/5/6 1606/5/6
f 1606/5/6 1487/5/6 1486/5/6
f 1608/4/6 1488/4/6 1607/4/6
f 1607/4/6 1488/4/6 1487/4/6
f 1609/5/6 1489/5/6 1608/5/6
f 1608/5/6 1489/5/6 1488/5/6
f 1610/4/6 1490/4/6 1609/4/6
f 1609/4/6 1490/4/6 1489/4/6
f 1611/5/6 1491/5/6 1610/5/6
f 1610/5/6 1491/5/6 1490/5/6
f 1612/4/6 1492/4/6 1611/4/6
f 1611/4/6 1492/4/6 1491/4/6
f 1613/5/6 1493/5/6 1612/5/6
f 1612/5/6 1493/5/6 1492/5/6
f 1614/4/6 1494/4/6 1613/4/6
f 1613/4/6 1494/4/6 1493/4/6
f 1615/5/6 1495/5/6 1614/5/6
f 1614/5/6 1495/5/6 1494/5/6
f 1616/4/6 1496/4/6 1615/4/6
f 1615/4/6 1496/4/6 1495/4/6
f 1617/5/6 1497/5/6 1616/5/6
f 1616/5/6 1497/5/6 1496/5/6
f 1618/4/6 1498/4/6 1617/4/6
f 1617/4/6 1498/4/6 1497/4/6
f 1619/5/6 1499/5/6 1618/5/6
f 1618/5/6 1499/5/6 1498/5/6
f 1620/4/6 1500/4/6 1619/4/6
f 1619/4/6 1500/4/6 1499/4/6
f 1621/5/6 1501/5/6 1620/5/6
f 1620/5/6 1501/5/6 1500/5/6
f 1622/3/6 1502/3/6 1621/3/6
f 1621/3/6 1502/3/6 1501/3/6
f 1623/5/6 1503/5/6 1622/5/6
f 1622/5/6 1503/5/6 1502/5/6
f 1624/7/6 1505/7/6 1623/7/6
f 1623/7/6 1505/7/6 1503/7/6
f 1625/5/6 1507/5/6 1624/5/6
f 1624/5/6 1507/5/6 1505/5/6
f 1626/7/6 1508/7/6 1625/7/6
f 1625/7/6 1508/7/6 1507/7/6
f 1627/5/6 1509/5/6 1626/5/6
f 1626/5/6 1509/5/6 1508/5/6
f 1628/7/6 1511/7/6 1627/7/6
f 1627/7/6 1511/7/6 1509/7/6
f 1629/5/6 1513/5/6 1628/5/6
f 1628/5/6 1513/5/6 1511/5/6
f 1630/7/6 1515/7/6 1629/7/6
f 1629/7/6 1515/7/6 1513/7/6
f 1631/5/6 1517/5/6 1630/5/6
f 1630/5/6 1517/5/6 1515/5/6
f 1632/7/6 1519/7/6 1631/7/6
f 1631/7/6 1519/7/6 1517/7/6
f 1633/5/6 1521/5/6 1632/5/6
f 1632/5/6 1521/5/6 1519/5/6
f 1634/7/6 1523/7/6 1633/7/6
f 1633/7/6 1523/7/6 1521/7/6
f 1635/5/6 1525/5/6 1634/5/6
f 1634/5/6 1525/5/6 1523/5/6
f 1636/7/6 1527/7/6 1635/7/6
f 1635/7/6 1527/7/6 1525/7/6
f 1637/5/6 1529/5/6 1636/5/6
f 1636/5/6 1529/5/6 1527/5/6
f 1638/7/6 1531/7/6 1637/7/6
f 1637/7/6 1531/7/6 1529/7/6
f 1639/5/6 1533/5/6 1638/5/6
f 1638/5/6 1533/5/6 1531/5/6
f 1640/7/6 1534/7/6 1639/7/6
f 1639/7/6 1534/7/6 1533/7/6
f 1641/5/6 1535/5/6 1640/5/6
f 1640/5/6 1535/5/6 1534/5/6
f 1642/7/6 1536/7/6 1641/7/6
f 1641/7/6 1536/7/6 1535/7/6
f 1643/5/6 1537/5/6 1642/5/6
f 1642/5/6 1537/5/6 1536/5/6
f 1644/7/6 1539/7/6 1643/7/6
f 1643/7/6 1539/7/6 1537/7/6
f 1645/5/6 1541/5/6 1644/5/6
f 1644/5/6 1541/5/6 1539/5/6
f 1646/7/6 1543/7/6 1645/7/6
f 1645/7/6 1543/7/6 1541/7/6
f 1647/5/6 1545/5/6 1646/5/6
f 1646/5/6 1545/5/6 1543/5/6
f 1648/7/6 1547/7/6 1647/7/6
f 1647/7/6 1547/7/6 1545/7/6
f 1649/5/6 1549/5/6 1648/5/6
f 1648/5/6 1549/5/6 1547/5/6
f 1650/7/6 1551/7/6 1649/7/6
f 1649/7/6 1551/7/6 1549/7/6
f 1651/5/6 1553/5/6 1650/5/6
f 1650/5/6 1553/5/6 1551/5/6
f 1652/7/6 1555/7/6 1651/7/6
f 1651/7/6 1555/7/6 1553/7/6
f 1653/5/6 1557/5/6 1652/5/6
f 1652/5/6 1557/5/6 1555/5/6
f 1654/7/6 1559/7/6 1653/7/6
f 1653/7/6 1559/7/6 1557/7/6
f 1655/5/6 1561/5/6 1654/5/6
f 1654/5/6 1561/5/6 1559/5/6
f 1656/7/6 1563/7/6 1655/7/6
f 1655/7/6 1563/7/6 1561/7/6
f 1657/5/6 1565/5/6 1656/5/6
f 1656/5/6 1565/5/6 1563/5/6
f 1658/7/6 1567/7/6 1657/7/6
f 1657/7/6 1567/7/6 1565/7/6
f 1659/5/6 1568/5/6 1658/5/6
f 1658/5/6 1568/5/6 1567/5/6
f 1660/3/6 1569/3/6 1659/3/6
f 1659/3/6 1569/3/6 1568/3/6
f 1661/5/6 1570/5/6 1660/5/6
f 1660/5/6 1570/5/6 1569/5/6
f 1573/2/6 1662/2/6 1572/2/6
f 1572/2/6 1662/2/6 1574/2/6
f 1662/9/6 1663/9/6 1574/9/6
f 1574/9/6 1663/9/6 1575/9/6
f 1663/2/6 1664/2/6 1575/2/6
f 1575/2/6 1664/2/6 1576/2/6
f 1664/9/6 1665/9/6 1576/9/6
f 1576/9/6 1665/9/6 1577/9/6
f 1665/2/6 1666/2/6 1577/2/6
f 1577/2/6 1666/2/6 1578/2/6
f 1666/6/6 1667/6/6 1578/6/6
f 1578/6/6 1667/6/6 1579/6/6
f 1667/2/6 1668/2/6 1579/2/6
f 1579/2/6 1668/2/6 1580/2/6
f 1668/6/6 1669/6/6 1580/6/6
f 1580/6/6 1669/6/6 1581/6/6
f 1669/2/6 1670/2/6 1581/2/6
f 1581/2/6 1670/2/6 1582/2/6
f 1670/10/6 1671/10/6 1582/10/6
f 1582/10/6 1671/10/6 1583/10/6
f 1671/4/6 1571/4/6 1661/4/6
f 1661/4/6 1571/4/6 1570/4/6
f 1672/8/1 1673/8/1 1116/8/1
f 1116/8/1 1673/8/1 1117/8/1
f 1673/4/1 1674/4/1 1117/4/1
f 1117/4/1 1674/4/1 1675/4/1
f 1674/5/1 1676/5/1 1675/5/1
f 1675/5/1 1676/5/1 1120/5/1
f 1677/8/1 1678/8/1 1679/8/1
f 1679/8/1 1678/8/1 1116/8/1
f 1678/4/1 1680/4/1 1672/4/1
f 1672/4/1 1680/4/1 1673/4/1
f 1680/8/1 1681/8/1 1673/8/1
f 1673/8/1 1681/8/1 1682/8/1
f 1683/4/1 1684/4/1 1674/4/1
f 1674/4/1 1684/4/1 1676/4/1
f 1685/4/1 1686/4/1 1677/4/1
f 1677/4/1 1686/4/1 1678/4/1
f 1686/8/1 1687/8/1 1678/8/1
f 1678/8/1 1687/8/1 1680/8/1
f 1687/4/1 1688/4/1 1680/4/1
f 1680/4/1 1688/4/1 1681/4/1
f 1689/5/1 1690/5/1 1683/5/1
f 1683/5/1 1690/5/1 1684/5/1
f 1691/8/1 1692/8/1 1685/8/1
f 1685/8/1 1692/8/1 1686/8/1
f 1692/4/1 1693/4/1 1686/4/1
f 1686/4/1 1693/4/1 1687/4/1
f 1693/8/1 1694/8/1 1687/8/1
f 1687/8/1 1694/8/1 1688/8/1
f 1695/4/1 1696/4/1 1689/4/1
f 1689/4/1 1696/4/1 1690/4/1
f 1697/8/1 1698/8/1 1699/8/1
f 1699/8/1 1698/8/1 1679/8/1
f 1698/4/1 1700/4/1 1691/4/1
f 1691/4/1 1700/4/1 1692/4/1
f 1700/8/1 1701/8/1 1692/8/1
f 1692/8/1 1701/8/1 1693/8/1
f 1701/4/1 1702/4/1 1693/4/1
f 1693/4/1 1702/4/1 1694/4/1
f 1703/5/1 1704/5/1 1695/5/1
f 1695/5/1 1704/5/1 1696/5/1
f 1705/4/1 1706/4/1 1697/4/1
f 1697/4/1 1706/4/1 1698/4/1
f 1706/8/1 1707/8/1 1698/8/1
f 1698/8/1 1707/8/1 1700/8/1
f 1707/4/1 1708/4/1 1700/4/1
f 1700/4/1 1708/4/1 1701/4/1
f 1708/8/1 1709/8/1 1701/8/1
f 1701/8/1 1709/8/1 1702/8/1
f 1710/4/1 1711/4/1 1703/4/1
f 1703/4/1 1711/4/1 1704/4/1
f 1712/8/1 1713/8/1 1705/8/1
f 1705/8/1 1713/8/1 1706/8/1
f 1713/4/1 1714/4/1 1706/4/1
f 1706/4/1 1714/4/1 1707/4/1
f 1714/8/1 1715/8/1 1707/8/1
f 1707/8/1 1715/8/1 1708/8/1
f 1715/4/1 1716/4/1 1708/4/1
f 1708/4/1 1716/4/1 1709/4/1
f 1717/5/1 1718/5/1 1710/5/1
f 1710/5/1 1718/5/1 1711/5/1
f 1719/8/1 1720/8/1 1721/8/1
f 1721/8/1 1720/8/1 1699/8/1
f 1720/4/1 1722/4/1 1712/4/1
f 1712/4/1 1722/4/1 1713/4/1
f 1722/8/1 1723/8/1 1713/8/1
f 1713/8/1 1723/8/1 1714/8/1
f 1723/4/1 1724/4/1 1714/4/1
f 1714/4/1 1724/4/1 1715/4/1
f 1724/8/1 1725/8/1 1715/8/1
f 1715/8/1 1725/8/1 1716/8/1
f 1726/4/1 1727/4/1 1717/4/1
f 1717/4/1 1727/4/1 1718/4/1
f 1728/8/1 1729/8/1 1730/8/1
f 1730/8/1 1729/8/1 1721/8/1
f 1729/4/1 1731/4/1 1719/4/1
f 1719/4/1 1731/4/1 1720/4/1
f 1731/8/1 1732/8/1 1720/8/1
f 1720/8/1 1732/8/1 1722/8/1
f 1732/4/1 1733/4/1 1722/4/1
f 1722/4/1 1733/4/1 1723/4/1
f 1733/8/1 1734/8/1 1723/8/1
f 1723/8/1 1734/8/1 1724/8/1
f 1734/4/1 1735/4/1 1724/4/1
f 1724/4/1 1735/4/1 1725/4/1
f 1736/5/1 1737/5/1 1726/5/1
f 1726/5/1 1737/5/1 1727/5/1
f 1738/8/1 1739/8/1 1740/8/1
f 1740/8/1 1739/8/1 1730/8/1
f 1739/4/1 1741/4/1 1728/4/1
f 1728/4/1 1741/4/1 1729/4/1
f 1741/8/1 1742/8/1 1729/8/1
f 1729/8/1 1742/8/1 1731/8/1
f 1742/4/1 1743/4/1 1731/4/1
f 1731/4/1 1743/4/1 1732/4/1
f 1743/8/1 1744/8/1 1732/8/1
f 1732/8/1 1744/8/1 1733/8/1
f 1744/4/1 1745/4/1 1733/4/1
f 1733/4/1 1745/4/1 1734/4/1
f 1745/8/1 1746/8/1 1734/8/1
f 1734/8/1 1746/8/1 1735/8/1
f 1747/4/1 1748/4/1 1736/4/1
f 1736/4/1 1748/4/1 1737/4/1
f 1749/8/1 1750/8/1 1751/8/1
f 1751/8/1 1750/8/1 1740/8/1
f 1750/4/1 1752/4/1 1738/4/1
f 1738/4/1 1752/4/1 1739/4/1
f 1752/8/1 1753/8/1 1739/8/1
f 1739/8/1 1753/8/1 1741/8/1
f 1753/4/1 1754/4/1 1741/4/1
f 1741/4/1 1754/4/1 1742/4/1
f 1754/8/1 1755/8/1 1742/8/1
f 1742/8/1 1755/8/1 1743/8/1
f 1755/4/1 1756/4/1 1743/4/1
f 1743/4/1 1756/4/1 1744/4/1
f 1756/8/1 1757/8/1 1744/8/1
f 1744/8/1 1757/8/1 1745/8/1
f 1757/4/1 1758/4/1 1745/4/1
f 1745/4/1 1758/4/1 1746/4/1
f 1759/5/1 1760/5/1 1747/5/1
f 1747/5/1 1760/5/1 1748/5/1
f 1761/8/1 1762/8/1 1763/8/1
f 1763/8/1 1762/8/1 1751/8/1
f 1762/4/1 1764/4/1 1749/4/1
f 1749/4/1 1764/4/1 1750/4/1
f 1764/8/1 1765/8/1 1750/8/1
f 1750/8/1 1765/8/1 1752/8/1
f 1765/4/1 1766/4/1 1752/4/1
f 1752/4/1 1766/4/1 1753/4/1
f 1766/8/1 1767/8/1 1753/8/1
f 1753/8/1 1767/8/1 1754/8/1
f 1767/4/1 1768/4/1 1754/4/1
f 1754/4/1 1768/4/1 1755/4/1
f 1768/8/1 1769/8/1 1755/8/1
f 1755/8/1 1769/8/1 1756/8/1
f 1769/4/1 1770/4/1 1756/4/1
f 1756/4/1 1770/4/1 1757/4/1
f 1770/8/1 1771/8/1 1757/8/1
f 1757/8/1 1771/8/1 1758/8/1
f 1772/4/1 1773/4/1 1759/4/1
f 1759/4/1 1773/4/1 1760/4/1
f 1774/8/1 1775/8/1 1776/8/1
f 1776/8/1 1775/8/1 1763/8/1
f 1775/4/1 1777/4/1 1761/4/1
f 1761/4/1 1777/4/1 1778/4/1
f 1777/8/1 1779/8/1 1778/8/1
f 1778/8/1 1779/8/1 1780/8/1
f 1779/4/1 1781/4/1 1780/4/1
f 1780/4/1 1781/4/1 1762/4/1
f 1781/8/1 1782/8/1 1762/8/1
f 1762/8/1 1782/8/1 1764/8/1
f 1782/4/1 1783/4/1 1764/4/1
f 1764/4/1 1783/4/1 1765/4/1
f 1783/8/1 1784/8/1 1765/8/1
f 1765/8/1 1784/8/1 1766/8/1
f 1784/4/1 1785/4/1 1766/4/1
f 1766/4/1 1785/4/1 1767/4/1
f 1785/8/1 1786/8/1 1767/8/1
f 1767/8/1 1786/8/1 1768/8/1
f 1786/4/1 1787/4/1 1768/4/1
f 1768/4/1 1787/4/1 1769/4/1
f 1787/8/1 1788/8/1 1769/8/1
f 1769/8/1 1788/8/1 1770/8/1
f 1788/4/1 1789/4/1 1770/4/1
f 1770/4/1 1789/4/1 1771/4/1
f 1790/5/1 1791/5/1 1772/5/1
f 1772/5/1 1791/5/1 1773/5/1
f 1792/8/1 1793/8/1 1794/8/1
f 1794/8/1 1793/8/1 1776/8/1
f 1793/4/1 1795/4/1 1774/4/1
f 1774/4/1 1795/4/1 1796/4/1
f 1795/8/1 1797/8/1 1796/8/1
f 1796/8/1 1797/8/1 1798/8/1
f 1797/4/1 1799/4/1 1798/4/1
f 1798/4/1 1799/4/1 1775/4/1
f 1799/8/1 1800/8/1 1775/8/1
f 1775/8/1 1800/8/1 1777/8/1
f 1800/4/1 1801/4/1 1777/4/1
f 1777/4/1 1801/4/1 1779/4/1
f 1801/8/1 1802/8/1 1779/8/1
f 1779/8/1 1802/8/1 1781/8/1
f 1802/4/1 1803/4/1 1781/4/1
f 1781/4/1 1803/4/1 1782/4/1
f 1803/8/1 1804/8/1 1782/8/1
f 1782/8/1 1804/8/1 1783/8/1
f 1804/4/1 1805/4/1 1783/4/1
f 1783/4/1 1805/4/1 1784/4/1
f 1805/8/1 1806/8/1 1784/8/1
f 1784/8/1 1806/8/1 1785/8/1
f 1806/4/1 1807/4/1 1785/4/1
f 1785/4/1 1807/4/1 1786/4/1
f 1807/8/1 1808/8/1 1786/8/1
f 1786/8/1 1808/8/1 1787/8/1
f 1808/4/1 1809/4/1 1787/4/1
f 1787/4/1 1809/4/1 1788/4/1
f 1809/8/1 1810/8/1 1788/8/1
f 1788/8/1 1810/8/1 1789/8/1
f 1811/4/1 1812/4/1 1790/4/1
f 1790/4/1 1812/4/1 1791/4/1
f 1421/8/1 1813/8/1 604/8/1
f 604/8/1 1813/8/1 1794/8/1
f 1813/4/1 1814/4/1 1792/4/1
f 1792/4/1 1814/4/1 1793/4/1
f 1814/8/1 1815/8/1 1793/8/1
f 1793/8/1 1815/8/1 1795/8/1
f 1815/4/1 1816/4/1 1795/4/1
f 1795/4/1 1816/4/1 1797/4/1
f 1816/8/1 1817/8/1 1797/8/1
f 1797/8/1 1817/8/1 1799/8/1
f 1817/4/1 1818/4/1 1799/4/1
f 1799/4/1 1818/4/1 1800/4/1
f 1818/8/1 1819/8/1 1800/8/1
f 1800/8/1 1819/8/1 1801/8/1
f 1819/4/1 1820/4/1 1801/4/1
f 1801/4/1 1820/4/1 1802/4/1
f 1820/8/1 1821/8/1 1802/8/1
f 1802/8/1 1821/8/1 1803/8/1
f 1821/4/1 1822/4/1 1803/4/1
f 1803/4/1 1822/4/1 1804/4/1
f 1822/8/1 1823/8/1 1804/8/1
f 1804/8/1 1823/8/1 1805/8/1
f 1823/4/1 1824/4/1 1805/4/1
f 1805/4/1 1824/4/1 1806/4/1
f 1824/8/1 1825/8/1 1806/8/1
f 1806/8/1 1825/8/1 1807/8/1
f 1825/4/1 1826/4/1 1807/4/1
f 1807/4/1 1826/4/1 1808/4/1
f 1826/8/1 1827/8/1 1808/8/1
f 1808/8/1 1827/8/1 1809/8/1
f 1827/4/1 1828/4/1 1809/4/1
f 1809/4/1 1828/4/1 1810/4/1
f 1829/5/1 1830/5/1 1811/5/1
f 1811/5/1 1830/5/1 1812/5/1
f 1831/8/1 1832/8/1 1813/8/1
f 1813/8/1 1832/8/1 1814/8/1
f 1833/8/1 1834/8/1 1815/8/1
f 1815/8/1 1834/8/1 1816/8/1
f 1835/8/1 1836/8/1 1817/8/1
f 1817/8/1 1836/8/1 1818/8/1
f 1837/8/1 1838/8/1 1819/8/1
f 1819/8/1 1838/8/1 1820/8/1
f 1839/8/1 1840/8/1 1821/8/1
f 1821/8/1 1840/8/1 1822/8/1
f 1841/8/1 1842/8/1 1823/8/1
f 1823/8/1 1842/8/1 1824/8/1
f 1843/8/1 1844/8/1 1825/8/1
f 1825/8/1 1844/8/1 1826/8/1
f 1845/8/1 1846/8/1 1827/8/1
f 1827/8/1 1846/8/1 1828/8/1
f 1847/4/1 1848/4/1 1829/4/1
f 1829/4/1 1848/4/1 1830/4/1
f 1849/4/1 1850/4/1 1421/4/1
f 1421/4/1 1850/4/1 1813/4/1
f 1851/4/1 1852/4/1 1814/4/1
f 1814/4/1 1852/4/1 1815/4/1
f 1853/4/1 1854/4/1 1816/4/1
f 1816/4/1 1854/4/1 1817/4/1
f 1855/4/1 1856/4/1 1818/4/1
f 1818/4/1 1856/4/1 1819/4/1
f 1857/4/1 1858/4/1 1820/4/1
f 1820/4/1 1858/4/1 1821/4/1
f 1859/4/1 1860/4/1 1822/4/1
f 1822/4/1 1860/4/1 1823/4/1
f 1861/4/1 1862/4/1 1824/4/1
f 1824/4/1 1862/4/1 1825/4/1
f 1863/4/1 1864/4/1 1826/4/1
f 1826/4/1 1864/4/1 1827/4/1
f 1865/4/1 1866/4/1 1682/4/1
f 1682/4/1 1866/4/1 1674/4/1
f 1866/5/1 1867/5/1 1847/5/1
f 1847/5/1 1867/5/1 1848/5/1
f 1571/5/1 1868/5/1 1849/5/1
f 1849/5/1 1868/5/1 1850/5/1
f 1868/4/1 1869/4/1 1831/4/1
f 1831/4/1 1869/4/1 1832/4/1
f 1869/5/1 1870/5/1 1851/5/1
f 1851/5/1 1870/5/1 1852/5/1
f 1870/4/1 1871/4/1 1833/4/1
f 1833/4/1 1871/4/1 1834/4/1
f 1871/5/1 1872/5/1 1853/5/1
f 1853/5/1 1872/5/1 1854/5/1
f 1872/4/1 1873/4/1 1835/4/1
f 1835/4/1 1873/4/1 1836/4/1
f 1873/5/1 1874/5/1 1855/5/1
f 1855/5/1 1874/5/1 1856/5/1
f 1874/4/1 1875/4/1 1837/4/1
f 1837/4/1 1875/4/1 1838/4/1
f 1875/5/1 1876/5/1 1857/5/1
f 1857/5/1 1876/5/1 1858/5/1
f 1876/4/1 1877/4/1 1839/4/1
f 1839/4/1 1877/4/1 1840/4/1
f 1877/5/1 1878/5/1 1859/5/1
f 1859/5/1 1878/5/1 1860/5/1
f 1878/4/1 1879/4/1 1841/4/1
f 1841/4/1 1879/4/1 1842/4/1
f 1879/5/1 1880/5/1 1861/5/1
f 1861/5/1 1880/5/1 1862/5/1
f 1880/4/1 1881/4/1 1843/4/1
f 1843/4/1 1881/4/1 1844/4/1
f 1881/5/1 1882/5/1 1863/5/1
f 1863/5/1 1882/5/1 1864/5/1
f 1882/4/1 1883/4/1 1845/4/1
f 1845/4/1 1883/4/1 1846/4/1
f 1883/5/1 1884/5/1 1865/5/1
f 1865/5/1 1884/5/1 1866/5/1
f 1884/4/1 1885/4/1 1866/4/1
f 1866/4/1 1885/4/1 1867/4/1
f 1573/2/2 608/2/2 1886/2/2
f 1886/2/2 608/2/2 1122/2/2
f 1124/2/5 1887/2/5 1122/2/5
f 1122/2/5 1887/2/5 1886/2/5
f 1126/9/5 1888/9/5 1124/9/5
f 1124/9/5 1888/9/5 1887/9/5
f 1128/2/5 1889/2/5 1126/2/5
f 1126/2/5 1889/2/5 1888/2/5
f 1130/9/5 1890/9/5 1128/9/5
f 1128/9/5 1890/9/5 1889/9/5
f 1132/2/5 1891/2/5 1130/2/5
f 1130/2/5 1891/2/5 1890/2/5
f 1134/6/5 1892/6/5 1132/6/5
f 1132/6/5 1892/6/5 1891/6/5
f 1136/2/5 1893/2/5 1134/2/5
f 1134/2/5 1893/2/5 1892/2/5
f 1138/6/5 1894/6/5 1136/6/5
f 1136/6/5 1894/6/5 1893/6/5
f 1140/2/5 1895/2/5 1138/2/5
f 1138/2/5 1895/2/5 1894/2/5
f 1142/10/5 1896/10/5 1140/10/5
f 1140/10/5 1896/10/5 1895/10/5
f 1120/5/5 1676/5/5 1142/5/5
f 1142/5/5 1676/5/5 1897/5/5
f 1676/4/5 1684/4/5 1897/4/5
f 1897/4/5 1684/4/5 1898/4/5
f 1684/5/5 1690/5/5 1898/5/5
f 1898/5/5 1690/5/5 1899/5/5
f 1690/4/5 1696/4/5 1899/4/5
f 1899/4/5 1696/4/5 1900/4/5
f 1696/5/5 1704/5/5 1900/5/5
f 1900/5/5 1704/5/5 1901/5/5
f 1704/4/5 1711/4/5 1901/4/5
f 1901/4/5 1711/4/5 1902/4/5
f 1711/5/5 1718/5/5 1902/5/5
f 1902/5/5 1718/5/5 1903/5/5
f 1718/4/5 1727/4/5 1903/4/5
f 1903/4/5 1727/4/5 1904/4/5
f 1727/5/5 1737/5/5 1904/5/5
f 1904/5/5 1737/5/5 1905/5/5
f 1737/4/5 1748/4/5 1905/4/5
f 1905/4/5 1748/4/5 1906/4/5
f 1748/5/5 1760/5/5 1906/5/5
f 1906/5/5 1760/5/5 1907/5/5
f 1760/4/5 1773/4/5 1907/4/5
f 1907/4/5 1773/4/5 1908/4/5
f 1773/5/5 1791/5/5 1908/5/5
f 1908/5/5 1791/5/5 1909/5/5
f 1791/4/5 1812/4/5 1909/4/5
f 1909/4/5 1812/4/5 1910/4/5
f 1812/5/5 1830/5/5 1910/5/5
f 1910/5/5 1830/5/5 1911/5/5
f 1830/4/5 1848/4/5 1911/4/5
f 1911/4/5 1848/4/5 1912/4/5
f 1848/5/5 1867/5/5 1912/5/5
f 1912/5/5 1867/5/5 1913/5/5
f 1867/4/5 1885/4/5 1913/4/5
f 1913/4/5 1885/4/5 1896/4/5
f 1914/5/6 1868/5/6 1671/5/6
f 1671/5/6 1868/5/6 1571/5/6
f 1915/4/6 1869/4/6 1914/4/6
f 1914/4/6 1869/4/6 1868/4/6
f 1916/5/6 1870/5/6 1915/5/6
f 1915/5/6 1870/5/6 1869/5/6
f 1917/4/6 1871/4/6 1916/4/6
f 1916/4/6 1871/4/6 1870/4/6
f 1918/5/6 1872/5/6 1917/5/6
f 1917/5/6 1872/5/6 1871/5/6
f 1919/4/6 1873/4/6 1918/4/6
f 1918/4/6 1873/4/6 1872/4/6
f 1920/5/6 1874/5/6 1919/5/6
f 1919/5/6 1874/5/6 1873/5/6
f 1921/4/6 1875/4/6 1920/4/6
f 1920/4/6 1875/4/6 1874/4/6
f 1922/5/6 1876/5/6 1921/5/6
f 1921/5/6 1876/5/6 1875/5/6
f 1923/4/6 1877/4/6 1922/4/6
f 1922/4/6 1877/4/6 1876/4/6
f 1924/5/6 1878/5/6 1923/5/6
f 1923/5/6 1878/5/6 1877/5/6
f 1925/4/6 1879/4/6 1924/4/6
f 1924/4/6 1879/4/6 1878/4/6
f 1926/5/6 1880/5/6 1925/5/6
f 1925/5/6 1880/5/6 1879/5/6
f 1927/4/6 1881/4/6 1926/4/6
f 1926/4/6 1881/4/6 1880/4/6
f 1928/5/6 1882/5/6 1927/5/6
f 1927/5/6 1882/5/6 1881/5/6
f 1929/4/6 1883/4/6 1928/4/6
f 1928/4/6 1883/4/6 1882/4/6
f 1930/5/6 1884/5/6 1929/5/6
f 1929/5/6 1884/5/6 1883/5/6
f 1886/2/6 1887/2/6 1573/2/6
f 1573/2/6 1887/2/6 1662/2/6
f 1887/9/6 1888/9/6 1662/9/6
f 1662/9/6 1888/9/6 1663/9/6
f 1888/2/6 1889/2/6 1663/2/6
f 1663/2/6 1889/2/6 1664/2/6
f 1889/9/6 1890/9/6 1664/9/6
f 1664/9/6 1890/9/6 1665/9/6
f 1890/2/6 1891/2/6 1665/2/6
f 1665/2/6 1891/2/6 1666/2/6
f 1891/6/6 1892/6/6 1666/6/6
f 1666/6/6 1892/6/6 1667/6/6
f 1892/2/6 1893/2/6 1667/2/6
f 1667/2/6 1893/2/6 1668/2/6
f 1893/6/6 1894/6/6 1668/6/6
f 1668/6/6 1894/6/6 1669/6/6
f 1894/2/6 1895/2/6 1669/2/6
f 1669/2/6 1895/2/6 1670/2/6
f 1895/10/6 1896/10/6 1670/10/6
f 1670/10/6 1896/10/6 1671/10/6
f 1896/4/6 1885/4/6 1930/4/6
f 1930/4/6 1885/4/6 1884/4/6
