# Vengi binary mesh normalized for Tanks of Freedom II

mtllib ../../materials/vox_building.mtl
o heli_rotor

v -1.7 1.6 0.1
v -1.8 1.6 0.1
v -1.8 1.6 0.2
v -1.7 1.6 0.2
v 1.8 1.6 0
v 1.7 1.6 0
v 1.7 1.6 0.1
v 1.8 1.6 0.1
v 0.1 1.6 0
v 0.1 1.6 0.2
v 1.7 1.6 0.2
v -0.1 1.6 0
v -1.7 1.6 0
v -0.1 1.6 0.2
v 0.1 1.6 -1.6
v 0 1.6 -1.6
v 0 1.6 1.9
v 0.1 1.6 1.9
v 0 1.6 -1.7
v -0.1 1.6 -1.7
v -0.1 1.6 1.8
v 0 1.6 1.8
v -1.7 1.5 0.1
v -1.7 1.5 0.2
v -1.8 1.5 0.2
v -1.8 1.5 0.1
v 1.8 1.5 0
v 1.8 1.5 0.1
v 1.7 1.5 0.1
v 1.7 1.5 0
v 1.7 1.5 0.2
v 0.1 1.5 0.2
v 0.1 1.5 0
v -0.1 1.5 0
v -0.1 1.5 0.2
v -1.7 1.5 0
v 0.1 1.5 -1.6
v 0.1 1.5 1.9
v 0 1.5 1.9
v 0 1.5 -1.6
v 0 1.5 -1.7
v 0 1.5 1.8
v -0.1 1.5 1.8
v -0.1 1.5 -1.7

vt 0.0683594 0.5

vn 0 1 0
vn 0 -1 0
vn -1 0 0
vn 1 0 0
vn 0 0 -1
vn 0 0 1

usemtl palette
f 1/1/1 2/1/1 4/1/1
f 4/1/1 2/1/1 3/1/1
f 5/1/1 6/1/1 8/1/1
f 8/1/1 6/1/1 7/1/1
f 6/1/1 9/1/1 11/1/1
f 11/1/1 9/1/1 10/1/1
f 12/1/1 13/1/1 14/1/1
f 14/1/1 13/1/1 4/1/1
f 15/1/1 16/1/1 18/1/1
f 18/1/1 16/1/1 17/1/1
f 19/1/1 20/1/1 22/1/1
f 22/1/1 20/1/1 21/1/1
f 23/1/2 24/1/2 26/1/2
f 26/1/2 24/1/2 25/1/2
f 27/1/2 28/1/2 30/1/2
f 30/1/2 28/1/2 29/1/2
f 30/1/2 31/1/2 33/1/2
f 33/1/2 31/1/2 32/1/2
f 34/1/2 35/1/2 36/1/2
f 36/1/2 35/1/2 24/1/2
f 37/1/2 38/1/2 40/1/2
f 40/1/2 38/1/2 39/1/2
f 41/1/2 42/1/2 44/1/2
f 44/1/2 42/1/2 43/1/2
f 17/1/3 22/1/3 39/1/3
f 39/1/3 22/1/3 42/1/3
f 21/1/3 14/1/3 43/1/3
f 43/1/3 14/1/3 35/1/3
f 3/1/3 2/1/3 25/1/3
f 25/1/3 2/1/3 26/1/3
f 1/1/3 13/1/3 23/1/3
f 23/1/3 13/1/3 36/1/3
f 12/1/3 20/1/3 34/1/3
f 34/1/3 20/1/3 44/1/3
f 18/1/4 38/1/4 10/1/4
f 10/1/4 38/1/4 32/1/4
f 11/1/4 31/1/4 7/1/4
f 7/1/4 31/1/4 29/1/4
f 8/1/4 28/1/4 5/1/4
f 5/1/4 28/1/4 27/1/4
f 9/1/4 33/1/4 15/1/4
f 15/1/4 33/1/4 37/1/4
f 16/1/4 40/1/4 19/1/4
f 19/1/4 40/1/4 41/1/4
f 33/1/5 9/1/5 27/1/5
f 27/1/5 9/1/5 5/1/5
f 40/1/5 16/1/5 37/1/5
f 37/1/5 16/1/5 15/1/5
f 44/1/5 20/1/5 41/1/5
f 41/1/5 20/1/5 19/1/5
f 36/1/5 13/1/5 34/1/5
f 34/1/5 13/1/5 12/1/5
f 26/1/5 2/1/5 23/1/5
f 23/1/5 2/1/5 1/1/5
f 29/1/6 28/1/6 7/1/6
f 7/1/6 28/1/6 8/1/6
f 32/1/6 31/1/6 10/1/6
f 10/1/6 31/1/6 11/1/6
f 39/1/6 38/1/6 17/1/6
f 17/1/6 38/1/6 18/1/6
f 43/1/6 42/1/6 21/1/6
f 21/1/6 42/1/6 22/1/6
f 25/1/6 35/1/6 3/1/6
f 3/1/6 35/1/6 14/1/6
