# Vengi binary mesh normalized for Tanks of Freedom II

mtllib ../../materials/vox_building.mtl
o infantry_modern

v 0.2 1.1 0.2
v -0.3 1.1 0.2
v -0.3 1.1 0.3
v 0.2 1.1 0.3
v 0.4 1 0.1
v 0.3 1 0.1
v 0.3 1 0.2
v 0.4 1 0.2
v 0.3 1.1 0.1
v 0.2 1.1 0.1
v 0.3 1.1 0.3
v 0.2 1.2 0.1
v -0.2 1.2 0.1
v -0.2 1.2 0.2
v 0.2 1.2 0.2
v -0.2 1.1 0.1
v -0.3 1.1 0.1
v -0.2 1.1 0.2
v -0.3 1 0.1
v -0.4 1 0.1
v -0.4 1 0.2
v -0.3 1 0.2
v 0.4 0.6 0
v 0.3 0.6 0
v 0.3 0.6 0.1
v 0.4 0.6 0.1
v 0.4 1.1 0
v 0.3 1.1 0
v 0.4 1.1 0.1
v 0.3 0.4 0
v 0.2 0.4 0
v 0.2 0.4 0.1
v 0.3 0.4 0.1
v 0.3 1.2 0
v 0.2 1.2 0
v 0.3 1.2 0.1
v 0.2 1.3 0
v -0.2 1.3 0
v -0.2 1.3 0.1
v 0.2 1.3 0.1
v -0.2 1.2 0
v -0.3 1.2 0
v -0.3 1.2 0.1
v -0.3 0.6 0
v -0.4 0.6 0
v -0.4 0.6 0.1
v -0.3 0.6 0.1
v -0.3 1.1 0
v -0.4 1.1 0
v -0.4 1.1 0.1
v -0.4 0.5 0
v -0.5 0.5 0
v -0.5 0.5 0.1
v -0.4 0.5 0.1
v -0.5 0.4 0
v -0.6 0.4 0
v -0.6 0.4 0.1
v -0.5 0.4 0.1
v -0.5 0.9 0
v -0.6 0.9 0
v -0.6 0.9 0.1
v -0.5 0.9 0.1
v -0.6 1.2 0
v -0.7 1.2 0
v -0.7 1.2 0.1
v -0.6 1.2 0.1
v -0.7 0.1 0
v -0.8 0.1 0
v -0.8 0.1 0.1
v -0.7 0.1 0.1
v -0.8 0.4 0
v -0.9 0.4 0
v -0.9 0.4 0.1
v -0.8 0.4 0.1
v -0.7 0.7 0
v -0.9 0.7 0
v -0.9 0.7 0.1
v -0.7 0.7 0.1
v 0.4 1 -0.1
v 0.3 1 -0.1
v 0.3 1 0
v 0.4 1 0
v 0.2 1.2 -0.1
v -0.2 1.2 -0.1
v -0.3 1.5 -0.1
v -0.4 1.5 -0.1
v -0.4 1.5 0
v -0.3 1.5 0
v 0.3 1.1 -0.2
v 0.2 1.1 -0.2
v 0.2 1.1 0
v 0.1 1.1 -0.2
v 0.1 1.1 -0.1
v 0.2 1.1 -0.1
v 0.2 0.3 -0.2
v 0 0.3 -0.2
v 0 0.3 -0.1
v 0.2 0.3 -0.1
v 0.1 0.6 -0.2
v 0 0.6 -0.2
v 0 0.6 -0.1
v 0.1 0.6 -0.1
v 0.1 1.2 -0.2
v -0.1 1.2 -0.2
v -0.1 1.2 -0.1
v 0.1 1.2 -0.1
v -0.1 1.1 -0.2
v -0.2 1.1 -0.2
v -0.2 1.1 -0.1
v -0.1 1.1 -0.1
v -0.3 1.1 -0.2
v -0.2 1.1 0
v 0 1.1 -0.3
v -0.1 1.1 -0.3
v 0 1.1 -0.2
v -0.1 0.9 -0.3
v -0.2 0.9 -0.3
v -0.2 0.9 -0.2
v -0.1 0.9 -0.2
v 0.3 0.3 -0.4
v 0.2 0.3 -0.4
v 0.3 0.3 -0.2
v 0.2 1.3 -0.4
v 0 1.3 -0.4
v 0 1.3 -0.2
v 0.2 1.3 -0.2
v 0 0.3 -0.4
v -0.1 0.3 -0.4
v -0.1 0.3 -0.2
v 0 0.6 -0.4
v -0.1 0.6 -0.4
v -0.1 0.6 -0.2
v 0.2 0.3 -0.5
v 0 0.3 -0.5
v 0.3 0.8 0.2
v 0.3 0.8 0.3
v 0.2 0.8 0.3
v 0.2 0.8 0.2
v 0.2 1 0.2
v 0.2 1 0.3
v -0.2 1 0.3
v -0.2 1 0.2
v -0.2 0.8 0.2
v -0.2 0.8 0.3
v -0.3 0.8 0.3
v -0.3 0.8 0.2
v 0.3 0.7 0.1
v 0.3 0.7 0.2
v 0.2 0.7 0.2
v 0.2 0.7 0.1
v 0.2 0.3 0.1
v 0.2 0.3 0.2
v -0.2 0.3 0.2
v -0.2 0.3 0.1
v -0.2 0.7 0.1
v -0.2 0.7 0.2
v -0.3 0.7 0.2
v -0.3 0.7 0.1
v 0.4 0.4 0
v 0.4 0.4 0.1
v 0.3 0.3 0
v 0.3 0.3 0.1
v 0.2 0.3 0
v 0.2 0.6 0.1
v 0.2 0.6 0
v 0.2 0 0
v 0.2 0 0.1
v 0.1 0 0.1
v 0.1 0 0
v -0.1 0 0
v -0.1 0 0.1
v -0.2 0 0.1
v -0.2 0 0
v -0.2 0.6 0
v -0.2 0.6 0.1
v -0.3 0.5 0
v -0.3 0.5 0.1
v -0.4 0.4 0
v -0.4 0.4 0.1
v -0.5 0.3 0
v -0.5 0.3 0.1
v -0.6 0.3 0.1
v -0.6 0.3 0
v -0.6 0.5 0.1
v -0.6 0.5 0
v -0.6 0 0
v -0.6 0 0.1
v -0.8 0 0.1
v -0.8 0 0
v -0.7 0.3 0
v -0.7 0.3 0.1
v -0.9 0.3 0.1
v -0.9 0.3 0
v -0.8 0.6 0
v -0.8 0.6 0.1
v -0.9 0.6 0.1
v -0.9 0.6 0
v 0.4 0.8 -0.1
v 0.4 0.8 0.2
v 0.3 0.8 -0.1
v 0.3 0.7 -0.1
v 0.3 0.7 0
v 0.2 0.7 0
v 0.2 0.7 -0.1
v 0.1 0.3 0
v 0.1 0.3 -0.1
v 0.1 0.3 0.1
v -0.1 0.3 0.1
v -0.1 0.3 -0.1
v -0.1 0.3 0
v -0.2 0.3 0
v -0.2 0.3 -0.1
v -0.2 0.7 -0.1
v -0.2 0.7 0
v -0.3 0.7 0
v -0.3 0.7 -0.1
v -0.3 0.8 -0.1
v -0.4 0.8 0.2
v -0.4 0.8 -0.1
v 0.3 0.8 -0.2
v 0.2 0.8 -0.1
v 0.2 0.8 -0.2
v 0.1 0.4 -0.2
v 0.1 0.4 -0.1
v 0 0.4 -0.1
v 0 0.4 -0.2
v 0.2 0.7 -0.2
v -0.2 0.7 -0.2
v -0.2 0.8 -0.2
v -0.2 0.8 -0.1
v -0.3 0.8 -0.2
v 0 0.8 -0.3
v 0 0.8 -0.2
v -0.2 0.8 -0.3
v 0.3 0.2 -0.4
v 0.3 0.2 -0.2
v 0.2 0.2 -0.2
v 0.2 0.2 -0.4
v 0 0.2 -0.4
v 0 0.2 -0.2
v -0.1 0.2 -0.2
v -0.1 0.2 -0.4
v 0 0.4 -0.4
v -0.1 0.4 -0.2
v -0.1 0.4 -0.4
v 0.2 0.2 -0.5
v 0.2 0.2 -0.1
v 0 0.2 -0.1
v 0 0.2 -0.5
v 0.1 0.1 0.1
v 0.1 0.1 0
v -0.2 0.1 0.1
v -0.2 0.1 0
v -0.2 0.6 0.2
v -0.2 0.6 -0.1
v 0 0.8 -0.4
v -0.4 1 -0.1
v -0.4 1 0
v -0.3 1.1 -0.1
v 0 1.2 -0.2
v 0 1.2 -0.3
v 0 1.2 -0.4
v -0.4 1.4 0
v -0.4 1.4 -0.1
v 0.2 0.1 0.1
v 0.2 0.1 0
v -0.1 0.1 0.1
v -0.1 0.1 0
v 0.2 0.6 0.2
v 0.2 0.6 -0.1
v -0.5 0.8 0.1
v -0.5 0.8 0
v 0.3 1.1 0.2
v 0.3 1.1 -0.1
v 0.2 1.2 -0.2
v 0.2 1.2 -0.4
v -0.3 1.4 0
v -0.3 1.4 -0.1
v 0.2 0.4 -0.1
v 0 0.9 -0.3
v -0.2 0.4 -0.1
v 0 0.7 -0.2
v -0.3 0.9 -0.2
v -0.3 1 -0.1
v -0.6 0.8 0
v -0.6 0.1 0
v -0.6 0.7 0
v -0.7 0.6 0
v -0.7 0.4 0
v 0.1 0.5 0.2
v 0.2 0.5 0.2
v 0.1 0.6 0.2
v 0.2 0.4 -0.2
v 0.1 0.7 -0.2
v 0.1 0.8 0.2
v 0.2 0.9 0.2
v 0.1 0.9 0.2
v 0 0.4 0.2
v 0.2 0.4 0.2
v 0 0.5 0.2
v 0 0.6 0.2
v 0 0.7 0.2
v 0 0.8 0.2
v -0.1 0.4 0.2
v -0.1 0.6 0.2
v -0.1 0.8 0.2
v -0.1 0.9 0.2
v -0.2 0.4 0.2
v -0.2 0.9 0.2
v -0.3 1 0.3
v -0.6 0.8 0.1
v -0.6 0.1 0.1
v -0.6 0.7 0.1
v -0.7 0.4 0.1
v -0.7 0.6 0.1

vt 0.00195313 0.5
vt 0.00585938 0.5
vt 0.0136719 0.5
vt 0.0332031 0.5
vt 0.0371094 0.5
vt 0.0683594 0.5
vt 0.0839844 0.5
vt 0.0957031 0.5
vt 0.0996094 0.5
vt 0.123047 0.5
vt 0.158203 0.5
vt 0.162109 0.5

vn 0 1 0
vn 0 -1 0
vn -1 0 0
vn 1 0 0
vn 0 0 -1
vn 0 0 1

usemtl palette
f 1/12/1 2/12/1 4/12/1
f 4/12/1 2/12/1 3/12/1
f 5/12/1 6/12/1 8/12/1
f 8/12/1 6/12/1 7/12/1
f 9/12/1 10/12/1 11/12/1
f 11/12/1 10/12/1 4/12/1
f 12/12/1 13/12/1 15/12/1
f 15/12/1 13/12/1 14/12/1
f 16/12/1 17/12/1 18/12/1
f 18/12/1 17/12/1 2/12/1
f 19/11/1 20/11/1 22/11/1
f 22/11/1 20/11/1 21/11/1
f 23/7/1 24/7/1 26/7/1
f 26/7/1 24/7/1 25/7/1
f 27/12/1 28/12/1 29/12/1
f 29/12/1 28/12/1 9/12/1
f 30/10/1 31/10/1 33/10/1
f 33/10/1 31/10/1 32/10/1
f 34/12/1 35/12/1 36/12/1
f 36/12/1 35/12/1 12/12/1
f 37/12/1 38/12/1 40/12/1
f 40/12/1 38/12/1 39/12/1
f 41/12/1 42/12/1 13/12/1
f 13/12/1 42/12/1 43/12/1
f 44/7/1 45/7/1 47/7/1
f 47/7/1 45/7/1 46/7/1
f 48/11/1 49/11/1 17/11/1
f 17/11/1 49/11/1 50/11/1
f 51/7/1 52/7/1 54/7/1
f 54/7/1 52/7/1 53/7/1
f 55/10/1 56/10/1 58/10/1
f 58/10/1 56/10/1 57/10/1
f 59/1/1 60/1/1 62/1/1
f 62/1/1 60/1/1 61/1/1
f 63/4/1 64/4/1 66/4/1
f 66/4/1 64/4/1 65/4/1
f 67/2/1 68/2/1 70/2/1
f 70/2/1 68/2/1 69/2/1
f 71/5/1 72/5/1 74/5/1
f 74/5/1 72/5/1 73/5/1
f 75/11/1 76/11/1 78/11/1
f 78/11/1 76/11/1 77/11/1
f 79/12/1 80/12/1 82/12/1
f 82/12/1 80/12/1 81/12/1
f 83/12/1 84/12/1 35/12/1
f 35/12/1 84/12/1 41/12/1
f 85/1/1 86/1/1 88/1/1
f 88/1/1 86/1/1 87/1/1
f 89/12/1 90/12/1 28/12/1
f 28/12/1 90/12/1 91/12/1
f 90/12/1 92/12/1 94/12/1
f 94/12/1 92/12/1 93/12/1
f 95/9/1 96/9/1 98/9/1
f 98/9/1 96/9/1 97/9/1
f 99/2/1 100/2/1 102/2/1
f 102/2/1 100/2/1 101/2/1
f 103/12/1 104/12/1 106/12/1
f 106/12/1 104/12/1 105/12/1
f 107/12/1 108/12/1 110/12/1
f 110/12/1 108/12/1 109/12/1
f 108/12/1 111/12/1 112/12/1
f 112/12/1 111/12/1 48/12/1
f 113/2/1 114/2/1 115/2/1
f 115/2/1 114/2/1 107/2/1
f 116/2/1 117/2/1 119/2/1
f 119/2/1 117/2/1 118/2/1
f 120/9/1 121/9/1 122/9/1
f 122/9/1 121/9/1 95/9/1
f 123/6/1 124/6/1 126/6/1
f 126/6/1 124/6/1 125/6/1
f 127/9/1 128/9/1 96/9/1
f 96/9/1 128/9/1 129/9/1
f 130/2/1 131/2/1 100/2/1
f 100/2/1 131/2/1 132/2/1
f 133/9/1 134/9/1 121/9/1
f 121/9/1 134/9/1 127/9/1
f 135/12/2 136/12/2 138/12/2
f 138/12/2 136/12/2 137/12/2
f 139/12/2 140/12/2 142/12/2
f 142/12/2 140/12/2 141/12/2
f 143/12/2 144/12/2 146/12/2
f 146/12/2 144/12/2 145/12/2
f 147/12/2 148/12/2 150/12/2
f 150/12/2 148/12/2 149/12/2
f 151/7/2 152/7/2 154/7/2
f 154/7/2 152/7/2 153/7/2
f 155/12/2 156/12/2 158/12/2
f 158/12/2 156/12/2 157/12/2
f 159/7/2 160/7/2 30/7/2
f 30/7/2 160/7/2 33/7/2
f 161/10/2 162/10/2 163/10/2
f 163/10/2 162/10/2 151/10/2
f 24/7/2 25/7/2 165/7/2
f 165/7/2 25/7/2 164/7/2
f 166/2/2 167/2/2 169/2/2
f 169/2/2 167/2/2 168/2/2
f 170/2/2 171/2/2 173/2/2
f 173/2/2 171/2/2 172/2/2
f 174/7/2 175/7/2 44/7/2
f 44/7/2 175/7/2 47/7/2
f 176/7/2 177/7/2 51/7/2
f 51/7/2 177/7/2 54/7/2
f 178/7/2 179/7/2 55/7/2
f 55/7/2 179/7/2 58/7/2
f 180/10/2 181/10/2 183/10/2
f 183/10/2 181/10/2 182/10/2
f 52/5/2 53/5/2 185/5/2
f 185/5/2 53/5/2 184/5/2
f 186/2/2 187/2/2 189/2/2
f 189/2/2 187/2/2 188/2/2
f 190/5/2 191/5/2 193/5/2
f 193/5/2 191/5/2 192/5/2
f 194/11/2 195/11/2 197/11/2
f 197/11/2 195/11/2 196/11/2
f 198/12/2 199/12/2 200/12/2
f 200/12/2 199/12/2 135/12/2
f 201/12/2 202/12/2 204/12/2
f 204/12/2 202/12/2 203/12/2
f 98/7/2 163/7/2 206/7/2
f 206/7/2 163/7/2 205/7/2
f 206/7/2 207/7/2 209/7/2
f 209/7/2 207/7/2 208/7/2
f 209/7/2 210/7/2 212/7/2
f 212/7/2 210/7/2 211/7/2
f 213/12/2 214/12/2 216/12/2
f 216/12/2 214/12/2 215/12/2
f 217/11/2 146/11/2 219/11/2
f 219/11/2 146/11/2 218/11/2
f 220/12/2 200/12/2 222/12/2
f 222/12/2 200/12/2 221/12/2
f 223/2/2 224/2/2 226/2/2
f 226/2/2 224/2/2 225/2/2
f 227/12/2 204/12/2 228/12/2
f 228/12/2 204/12/2 213/12/2
f 229/12/2 230/12/2 231/12/2
f 231/12/2 230/12/2 217/12/2
f 232/2/2 233/2/2 234/2/2
f 234/2/2 233/2/2 229/2/2
f 235/9/2 236/9/2 238/9/2
f 238/9/2 236/9/2 237/9/2
f 239/9/2 240/9/2 242/9/2
f 242/9/2 240/9/2 241/9/2
f 243/2/2 226/2/2 245/2/2
f 245/2/2 226/2/2 244/2/2
f 246/9/2 247/9/2 249/9/2
f 249/9/2 247/9/2 248/9/2
f 250/2/3 251/2/3 168/2/3
f 168/2/3 251/2/3 169/2/3
f 252/2/3 253/2/3 172/2/3
f 172/2/3 253/2/3 173/2/3
f 69/2/3 68/2/3 188/2/3
f 188/2/3 68/2/3 189/2/3
f 207/11/3 205/11/3 250/11/3
f 250/11/3 205/11/3 251/11/3
f 154/11/3 211/11/3 252/11/3
f 252/11/3 211/11/3 253/11/3
f 191/2/3 190/2/3 70/2/3
f 70/2/3 190/2/3 67/2/3
f 97/9/3 96/9/3 248/9/3
f 248/9/3 96/9/3 240/9/3
f 129/9/3 128/9/3 241/9/3
f 241/9/3 128/9/3 242/9/3
f 127/9/3 134/9/3 239/9/3
f 239/9/3 134/9/3 249/9/3
f 73/5/3 72/5/3 192/5/3
f 192/5/3 72/5/3 193/5/3
f 226/9/3 243/9/3 96/9/3
f 96/9/3 243/9/3 127/9/3
f 53/7/3 52/7/3 58/7/3
f 58/7/3 52/7/3 55/7/3
f 25/7/3 24/7/3 33/7/3
f 33/7/3 24/7/3 30/7/3
f 46/7/3 45/7/3 54/7/3
f 54/7/3 45/7/3 51/7/3
f 195/5/3 194/5/3 74/5/3
f 74/5/3 194/5/3 71/5/3
f 254/7/3 255/7/3 153/7/3
f 153/7/3 255/7/3 212/7/3
f 101/2/3 100/2/3 225/2/3
f 225/2/3 100/2/3 226/2/3
f 132/2/3 131/2/3 244/2/3
f 244/2/3 131/2/3 245/2/3
f 156/11/3 155/11/3 254/11/3
f 254/11/3 155/11/3 175/11/3
f 158/7/3 215/7/3 47/7/3
f 47/7/3 215/7/3 44/7/3
f 77/11/3 76/11/3 196/11/3
f 196/11/3 76/11/3 197/11/3
f 214/11/3 213/11/3 174/11/3
f 174/11/3 213/11/3 255/11/3
f 146/12/3 217/12/3 157/12/3
f 157/12/3 217/12/3 216/12/3
f 230/12/3 229/12/3 213/12/3
f 213/12/3 229/12/3 228/12/3
f 233/9/3 256/9/3 100/9/3
f 100/9/3 256/9/3 130/9/3
f 118/2/3 117/2/3 229/2/3
f 229/2/3 117/2/3 234/2/3
f 140/12/3 139/12/3 137/12/3
f 137/12/3 139/12/3 138/12/3
f 21/11/3 257/11/3 218/11/3
f 218/11/3 257/11/3 219/11/3
f 3/12/3 2/12/3 145/12/3
f 145/12/3 2/12/3 146/12/3
f 2/12/3 17/12/3 22/12/3
f 22/12/3 17/12/3 19/12/3
f 50/11/3 49/11/3 20/11/3
f 20/11/3 49/11/3 258/11/3
f 259/12/3 111/12/3 217/12/3
f 217/12/3 111/12/3 231/12/3
f 107/2/3 114/2/3 119/2/3
f 119/2/3 114/2/3 116/2/3
f 14/12/3 13/12/3 18/12/3
f 18/12/3 13/12/3 16/12/3
f 43/12/3 42/12/3 17/12/3
f 17/12/3 42/12/3 48/12/3
f 65/4/3 64/4/3 78/4/3
f 78/4/3 64/4/3 75/4/3
f 41/12/3 84/12/3 112/12/3
f 112/12/3 84/12/3 109/12/3
f 105/12/3 104/12/3 110/12/3
f 110/12/3 104/12/3 107/12/3
f 260/9/3 261/9/3 115/9/3
f 115/9/3 261/9/3 113/9/3
f 261/9/3 262/9/3 232/9/3
f 232/9/3 262/9/3 256/9/3
f 39/12/3 38/12/3 13/12/3
f 13/12/3 38/12/3 41/12/3
f 125/6/3 124/6/3 260/6/3
f 260/6/3 124/6/3 262/6/3
f 263/4/3 264/4/3 258/4/3
f 258/4/3 264/4/3 257/4/3
f 87/1/3 86/1/3 263/1/3
f 263/1/3 86/1/3 264/1/3
f 265/2/4 167/2/4 266/2/4
f 266/2/4 167/2/4 166/2/4
f 267/2/4 171/2/4 268/2/4
f 268/2/4 171/2/4 170/2/4
f 151/11/4 265/11/4 163/11/4
f 163/11/4 265/11/4 266/11/4
f 208/11/4 267/11/4 210/11/4
f 210/11/4 267/11/4 268/11/4
f 182/2/4 187/2/4 183/2/4
f 183/2/4 187/2/4 186/2/4
f 98/9/4 247/9/4 95/9/4
f 95/9/4 247/9/4 237/9/4
f 122/9/4 236/9/4 120/9/4
f 120/9/4 236/9/4 235/9/4
f 121/9/4 238/9/4 133/9/4
f 133/9/4 238/9/4 246/9/4
f 33/10/4 162/10/4 30/10/4
f 30/10/4 162/10/4 161/10/4
f 58/10/4 181/10/4 55/10/4
f 55/10/4 181/10/4 180/10/4
f 54/7/4 179/7/4 51/7/4
f 51/7/4 179/7/4 178/7/4
f 184/6/4 57/6/4 185/6/4
f 185/6/4 57/6/4 56/6/4
f 269/7/4 152/7/4 164/7/4
f 164/7/4 152/7/4 151/7/4
f 26/7/4 160/7/4 23/7/4
f 23/7/4 160/7/4 159/7/4
f 164/7/4 32/7/4 165/7/4
f 165/7/4 32/7/4 31/7/4
f 47/7/4 177/7/4 44/7/4
f 44/7/4 177/7/4 176/7/4
f 165/7/4 163/7/4 270/7/4
f 270/7/4 163/7/4 98/7/4
f 102/2/4 224/2/4 99/2/4
f 99/2/4 224/2/4 223/2/4
f 149/11/4 269/11/4 150/11/4
f 150/11/4 269/11/4 164/11/4
f 147/7/4 25/7/4 202/7/4
f 202/7/4 25/7/4 24/7/4
f 203/11/4 165/11/4 204/11/4
f 204/11/4 165/11/4 270/11/4
f 271/5/4 53/5/4 272/5/4
f 272/5/4 53/5/4 52/5/4
f 135/12/4 148/12/4 200/12/4
f 200/12/4 148/12/4 201/12/4
f 221/12/4 204/12/4 222/12/4
f 222/12/4 204/12/4 227/12/4
f 62/1/4 271/1/4 59/1/4
f 59/1/4 271/1/4 272/1/4
f 141/12/4 144/12/4 142/12/4
f 142/12/4 144/12/4 143/12/4
f 8/12/4 199/12/4 79/12/4
f 79/12/4 199/12/4 198/12/4
f 11/12/4 136/12/4 273/12/4
f 273/12/4 136/12/4 135/12/4
f 273/12/4 7/12/4 9/12/4
f 9/12/4 7/12/4 6/12/4
f 29/12/4 5/12/4 27/12/4
f 27/12/4 5/12/4 82/12/4
f 28/12/4 81/12/4 274/12/4
f 274/12/4 81/12/4 80/12/4
f 274/12/4 200/12/4 89/12/4
f 89/12/4 200/12/4 220/12/4
f 15/12/4 1/12/4 12/12/4
f 12/12/4 1/12/4 10/12/4
f 36/12/4 9/12/4 34/12/4
f 34/12/4 9/12/4 28/12/4
f 66/4/4 61/4/4 63/4/4
f 63/4/4 61/4/4 60/4/4
f 35/12/4 91/12/4 83/12/4
f 83/12/4 91/12/4 94/12/4
f 106/12/4 93/12/4 103/12/4
f 103/12/4 93/12/4 92/12/4
f 275/9/4 95/9/4 276/9/4
f 276/9/4 95/9/4 121/9/4
f 40/12/4 12/12/4 37/12/4
f 37/12/4 12/12/4 35/12/4
f 126/6/4 275/6/4 123/6/4
f 123/6/4 275/6/4 276/6/4
f 277/4/4 48/4/4 278/4/4
f 278/4/4 48/4/4 259/4/4
f 88/1/4 277/1/4 85/1/4
f 85/1/4 277/1/4 278/1/4
f 30/7/5 24/7/5 159/7/5
f 159/7/5 24/7/5 23/7/5
f 200/12/5 80/12/5 198/12/5
f 198/12/5 80/12/5 79/12/5
f 81/12/5 28/12/5 82/12/5
f 82/12/5 28/12/5 27/12/5
f 238/9/5 121/9/5 235/9/5
f 235/9/5 121/9/5 120/9/5
f 163/10/5 31/10/5 161/10/5
f 161/10/5 31/10/5 30/10/5
f 165/7/5 203/7/5 24/7/5
f 24/7/5 203/7/5 202/7/5
f 204/12/5 221/12/5 201/12/5
f 201/12/5 221/12/5 200/12/5
f 222/12/5 90/12/5 220/12/5
f 220/12/5 90/12/5 89/12/5
f 91/12/5 35/12/5 28/12/5
f 28/12/5 35/12/5 34/12/5
f 169/2/5 251/2/5 166/2/5
f 166/2/5 251/2/5 266/2/5
f 251/11/5 205/11/5 266/11/5
f 266/11/5 205/11/5 163/11/5
f 224/7/5 102/7/5 279/7/5
f 279/7/5 102/7/5 270/7/5
f 93/12/5 106/12/5 94/12/5
f 94/12/5 106/12/5 83/12/5
f 249/9/5 134/9/5 246/9/5
f 246/9/5 134/9/5 133/9/5
f 127/9/5 262/9/5 121/9/5
f 121/9/5 262/9/5 276/9/5
f 262/6/5 124/6/5 276/6/5
f 276/6/5 124/6/5 123/6/5
f 242/9/5 128/9/5 239/9/5
f 239/9/5 128/9/5 127/9/5
f 245/2/5 131/2/5 243/2/5
f 243/2/5 131/2/5 130/2/5
f 116/2/5 114/2/5 280/2/5
f 280/2/5 114/2/5 113/2/5
f 107/12/5 104/12/5 115/12/5
f 115/12/5 104/12/5 260/12/5
f 173/2/5 253/2/5 170/2/5
f 170/2/5 253/2/5 268/2/5
f 253/11/5 211/11/5 268/11/5
f 268/11/5 211/11/5 210/11/5
f 212/7/5 281/7/5 98/7/5
f 98/7/5 281/7/5 279/7/5
f 281/7/5 255/7/5 225/7/5
f 225/7/5 255/7/5 101/7/5
f 255/11/5 213/11/5 270/11/5
f 270/11/5 213/11/5 204/11/5
f 228/12/5 229/12/5 282/12/5
f 282/12/5 229/12/5 233/12/5
f 234/2/5 117/2/5 232/2/5
f 232/2/5 117/2/5 280/2/5
f 109/12/5 84/12/5 110/12/5
f 110/12/5 84/12/5 105/12/5
f 41/12/5 38/12/5 35/12/5
f 35/12/5 38/12/5 37/12/5
f 44/7/5 215/7/5 174/7/5
f 174/7/5 215/7/5 214/7/5
f 216/12/5 217/12/5 213/12/5
f 213/12/5 217/12/5 230/12/5
f 231/12/5 283/12/5 229/12/5
f 229/12/5 283/12/5 118/12/5
f 283/12/5 111/12/5 119/12/5
f 119/12/5 111/12/5 107/12/5
f 48/12/5 42/12/5 112/12/5
f 112/12/5 42/12/5 41/12/5
f 51/7/5 45/7/5 176/7/5
f 176/7/5 45/7/5 44/7/5
f 219/11/5 257/11/5 217/11/5
f 217/11/5 257/11/5 284/11/5
f 257/4/5 264/4/5 284/4/5
f 284/4/5 264/4/5 278/4/5
f 264/1/5 86/1/5 278/1/5
f 278/1/5 86/1/5 85/1/5
f 55/7/5 52/7/5 178/7/5
f 178/7/5 52/7/5 51/7/5
f 183/10/5 56/10/5 180/10/5
f 180/10/5 56/10/5 55/10/5
f 185/5/5 285/5/5 52/5/5
f 52/5/5 285/5/5 272/5/5
f 285/1/5 60/1/5 272/1/5
f 272/1/5 60/1/5 59/1/5
f 67/2/5 190/2/5 286/2/5
f 286/2/5 190/2/5 183/2/5
f 190/6/5 75/6/5 183/6/5
f 183/6/5 75/6/5 287/6/5
f 75/4/5 64/4/5 287/4/5
f 287/4/5 64/4/5 63/4/5
f 189/2/5 68/2/5 186/2/5
f 186/2/5 68/2/5 286/2/5
f 71/5/5 194/5/5 289/5/5
f 289/5/5 194/5/5 288/5/5
f 193/5/5 72/5/5 190/5/5
f 190/5/5 72/5/5 289/5/5
f 197/11/5 76/11/5 288/11/5
f 288/11/5 76/11/5 75/11/5
f 33/7/6 160/7/6 25/7/6
f 25/7/6 160/7/6 26/7/6
f 135/12/6 199/12/6 7/12/6
f 7/12/6 199/12/6 8/12/6
f 6/12/6 5/12/6 9/12/6
f 9/12/6 5/12/6 29/12/6
f 237/9/6 236/9/6 95/9/6
f 95/9/6 236/9/6 122/9/6
f 151/10/6 162/10/6 32/10/6
f 32/10/6 162/10/6 33/10/6
f 164/7/6 25/7/6 150/7/6
f 150/7/6 25/7/6 147/7/6
f 149/12/6 148/12/6 138/12/6
f 138/12/6 148/12/6 135/12/6
f 137/12/6 136/12/6 4/12/6
f 4/12/6 136/12/6 11/12/6
f 10/12/6 9/12/6 12/12/6
f 12/12/6 9/12/6 36/12/6
f 168/2/6 167/2/6 250/2/6
f 250/2/6 167/2/6 265/2/6
f 250/11/6 265/11/6 207/11/6
f 207/11/6 265/11/6 151/11/6
f 290/7/6 291/7/6 292/7/6
f 292/7/6 291/7/6 269/7/6
f 223/9/6 293/9/6 294/9/6
f 294/9/6 293/9/6 227/9/6
f 295/1/6 138/1/6 297/1/6
f 297/1/6 138/1/6 296/1/6
f 92/9/6 90/9/6 103/9/6
f 103/9/6 90/9/6 275/9/6
f 248/9/6 247/9/6 97/9/6
f 97/9/6 247/9/6 98/9/6
f 96/9/6 95/9/6 226/9/6
f 226/9/6 95/9/6 293/9/6
f 298/7/6 299/7/6 300/7/6
f 300/7/6 299/7/6 291/7/6
f 300/8/6 290/8/6 301/8/6
f 301/8/6 290/8/6 292/8/6
f 100/9/6 99/9/6 282/9/6
f 282/9/6 99/9/6 294/9/6
f 302/10/6 149/10/6 303/10/6
f 303/10/6 149/10/6 138/10/6
f 260/6/6 275/6/6 125/6/6
f 125/6/6 275/6/6 126/6/6
f 241/9/6 240/9/6 129/9/6
f 129/9/6 240/9/6 96/9/6
f 304/11/6 298/11/6 305/11/6
f 305/11/6 298/11/6 301/11/6
f 244/2/6 226/2/6 132/2/6
f 132/2/6 226/2/6 100/2/6
f 306/10/6 295/10/6 307/10/6
f 307/10/6 295/10/6 297/10/6
f 172/2/6 171/2/6 252/2/6
f 252/2/6 171/2/6 267/2/6
f 252/11/6 267/11/6 154/11/6
f 154/11/6 267/11/6 208/11/6
f 153/7/6 152/7/6 308/7/6
f 308/7/6 152/7/6 299/7/6
f 308/7/6 304/7/6 254/7/6
f 254/7/6 304/7/6 305/7/6
f 254/11/6 269/11/6 156/11/6
f 156/11/6 269/11/6 149/11/6
f 156/3/6 302/3/6 143/3/6
f 143/3/6 302/3/6 303/3/6
f 143/1/6 306/1/6 309/1/6
f 309/1/6 306/1/6 307/1/6
f 309/12/6 296/12/6 142/12/6
f 142/12/6 296/12/6 139/12/6
f 18/12/6 1/12/6 14/12/6
f 14/12/6 1/12/6 15/12/6
f 13/12/6 12/12/6 39/12/6
f 39/12/6 12/12/6 40/12/6
f 47/7/6 175/7/6 158/7/6
f 158/7/6 175/7/6 155/7/6
f 157/12/6 156/12/6 146/12/6
f 146/12/6 156/12/6 143/12/6
f 145/12/6 144/12/6 310/12/6
f 310/12/6 144/12/6 141/12/6
f 310/12/6 140/12/6 3/12/6
f 3/12/6 140/12/6 4/12/6
f 17/12/6 16/12/6 43/12/6
f 43/12/6 16/12/6 13/12/6
f 54/7/6 177/7/6 46/7/6
f 46/7/6 177/7/6 47/7/6
f 218/11/6 146/11/6 21/11/6
f 21/11/6 146/11/6 22/11/6
f 20/11/6 19/11/6 50/11/6
f 50/11/6 19/11/6 17/11/6
f 49/4/6 48/4/6 263/4/6
f 263/4/6 48/4/6 277/4/6
f 263/1/6 277/1/6 87/1/6
f 87/1/6 277/1/6 88/1/6
f 58/7/6 179/7/6 53/7/6
f 53/7/6 179/7/6 54/7/6
f 182/10/6 181/10/6 57/10/6
f 57/10/6 181/10/6 58/10/6
f 184/5/6 53/5/6 311/5/6
f 311/5/6 53/5/6 271/5/6
f 311/1/6 271/1/6 61/1/6
f 61/1/6 271/1/6 62/1/6
f 70/2/6 312/2/6 191/2/6
f 191/2/6 312/2/6 182/2/6
f 191/6/6 182/6/6 78/6/6
f 78/6/6 182/6/6 313/6/6
f 78/4/6 313/4/6 65/4/6
f 65/4/6 313/4/6 66/4/6
f 188/2/6 187/2/6 69/2/6
f 69/2/6 187/2/6 312/2/6
f 74/5/6 314/5/6 195/5/6
f 195/5/6 314/5/6 315/5/6
f 192/5/6 191/5/6 73/5/6
f 73/5/6 191/5/6 314/5/6
f 196/11/6 315/11/6 77/11/6
f 77/11/6 315/11/6 78/11/6
