# Vengi binary mesh normalized for Tanks of Freedom II

mtllib ../../materials/vox_building.mtl
o scout_heli

v 0.1 0.5 1.5
v 0 0.5 1.5
v 0 0.5 1.8
v 0.1 0.5 1.8
v 0.2 0.9 1.5
v -0.2 0.9 1.5
v -0.2 0.9 1.6
v 0.2 0.9 1.6
v 0.4 0.9 1.4
v 0.3 0.9 1.4
v 0.3 0.9 1.5
v 0.4 0.9 1.5
v 0.2 0.5 1.4
v 0.1 0.5 1.4
v 0.2 0.5 1.5
v 0 0.5 1.4
v -0.1 0.5 1.4
v -0.1 0.5 1.5
v 0.2 1 1.4
v -0.3 1 1.4
v -0.3 1 1.5
v 0.2 1 1.5
v -0.3 0.9 1.4
v -0.4 0.9 1.4
v -0.4 0.9 1.5
v -0.3 0.9 1.5
v 0.6 0.2 1.3
v 0.5 0.2 1.3
v 0.5 0.2 1.4
v 0.6 0.2 1.4
v 0.4 1 1.3
v 0.3 1 1.3
v 0.3 1 1.4
v 0.4 1 1.4
v 0.2 1 1.3
v 0.3 1 1.5
v -0.2 1 1.3
v -0.3 1 1.3
v -0.2 1 1.4
v -0.4 1 1.3
v -0.4 1 1.4
v -0.5 0.2 1.3
v -0.6 0.2 1.3
v -0.6 0.2 1.4
v -0.5 0.2 1.4
v 0.2 1.1 1.2
v -0.2 1.1 1.2
v -0.2 1.1 1.4
v 0.2 1.1 1.4
v 0.1 1.2 1.1
v -0.2 1.2 1.1
v -0.2 1.2 1.2
v 0.1 1.2 1.2
v 0.5 0.9 1
v 0.4 0.9 1
v 0.4 0.9 1.3
v 0.5 0.9 1.3
v 0.4 1.1 1
v 0.3 1.1 1
v 0.3 1.1 1.3
v 0.4 1.1 1.3
v 0.2 1.1 1
v 0.2 1.1 1.3
v 0.2 1.2 1
v 0.1 1.2 1
v 0.2 1.2 1.2
v -0.1 1.2 1
v -0.2 1.2 1
v -0.1 1.2 1.1
v -0.2 1.1 1
v -0.3 1.1 1
v -0.3 1.1 1.3
v -0.2 1.1 1.3
v -0.4 1.1 1
v -0.4 1.1 1.3
v -0.4 0.9 1
v -0.5 0.9 1
v -0.5 0.9 1.3
v -0.4 0.9 1.3
v 0.5 0.2 0.9
v 0.4 0.2 0.9
v 0.4 0.2 1
v 0.5 0.2 1
v 0.4 0.4 0.9
v 0.3 0.4 0.9
v 0.3 0.4 1
v 0.4 0.4 1
v 0.3 1.2 0.9
v 0.2 1.2 0.9
v 0.3 1.2 1
v 0.2 1.3 0.9
v 0.1 1.3 0.9
v 0.1 1.3 1
v 0.2 1.3 1
v -0.1 1.3 0.9
v -0.1 1.3 1.1
v 0.1 1.3 1.1
v -0.2 1.3 0.9
v -0.2 1.3 1
v -0.1 1.3 1
v -0.3 0.4 0.9
v -0.4 0.4 0.9
v -0.4 0.4 1
v -0.3 0.4 1
v -0.2 1.2 0.9
v -0.4 1.2 0.9
v -0.4 1.2 1
v -0.4 0.2 0.9
v -0.5 0.2 0.9
v -0.5 0.2 1
v -0.4 0.2 1
v 0.2 1.4 0.8
v -0.2 1.4 0.8
v -0.2 1.4 0.9
v 0.2 1.4 0.9
v 0.2 1.4 0.7
v 0.1 1.4 0.7
v 0.1 1.4 0.8
v -0.1 1.4 0.7
v -0.1 1.4 0.8
v -0.2 1.4 0.7
v 0.2 1.4 0.6
v 0.1 1.4 0.6
v 0.1 1.7 0.6
v 0 1.7 0.6
v 0 1.7 0.7
v 0.1 1.7 0.7
v 0 1.6 0.6
v -0.1 1.6 0.6
v -0.1 1.6 0.7
v 0 1.6 0.7
v -0.1 1.4 0.6
v -0.2 1.4 0.6
v 0.5 1 0.5
v 0.4 1 0.5
v 0.4 1 1
v 0.5 1 1
v 0.4 0.5 0.5
v 0.3 0.5 0.5
v 0.3 0.5 0.6
v 0.4 0.5 0.6
v 0.4 1.2 0.5
v 0.3 1.2 0.5
v 0.4 1.2 1
v 0.2 1.4 0.5
v 0.1 1.4 0.5
v 0.1 1.6 0.5
v 0 1.6 0.5
v 0.1 1.6 0.6
v 0 1.7 0.5
v -0.1 1.7 0.5
v -0.1 1.7 0.6
v -0.1 1.4 0.5
v -0.2 1.4 0.5
v -0.3 0.5 0.5
v -0.4 0.5 0.5
v -0.4 0.5 0.6
v -0.3 0.5 0.6
v -0.3 1.2 0.5
v -0.4 1.2 0.5
v -0.3 1.2 0.9
v -0.4 1 0.5
v -0.5 1 0.5
v -0.5 1 1
v -0.4 1 1
v 0.5 0.2 0.4
v 0.4 0.2 0.4
v 0.4 0.2 0.5
v 0.5 0.2 0.5
v 0.4 0.4 0.4
v 0.3 0.4 0.4
v 0.3 0.4 0.5
v 0.4 0.4 0.5
v 0.2 1.4 0.4
v -0.2 1.4 0.4
v -0.3 0.4 0.4
v -0.4 0.4 0.4
v -0.4 0.4 0.5
v -0.3 0.4 0.5
v -0.4 0.2 0.4
v -0.5 0.2 0.4
v -0.5 0.2 0.5
v -0.4 0.2 0.5
v 0.4 1.1 0.3
v 0.3 1.1 0.3
v 0.3 1.1 0.5
v 0.4 1.1 0.5
v 0.3 1.3 0.3
v 0.2 1.3 0.3
v 0.3 1.3 0.9
v 0.2 1.4 0.3
v 0.1 1.4 0.3
v 0.1 1.4 0.4
v -0.1 1.4 0.3
v -0.2 1.4 0.3
v -0.1 1.4 0.4
v -0.2 1.3 0.3
v -0.3 1.3 0.3
v -0.3 1.3 0.9
v -0.3 1.1 0.3
v -0.4 1.1 0.3
v -0.4 1.1 0.5
v -0.3 1.1 0.5
v 0.4 1 0.2
v 0.3 1 0.2
v 0.3 1 0.3
v 0.4 1 0.3
v 0.2 1.3 0.2
v 0.1 1.3 0.2
v 0.1 1.3 0.3
v 0.1 1.4 0.2
v -0.1 1.4 0.2
v -0.1 1.3 0.2
v -0.2 1.3 0.2
v -0.1 1.3 0.3
v -0.3 1 0.2
v -0.4 1 0.2
v -0.4 1 0.3
v -0.3 1 0.3
v 0.6 0.1 0.1
v 0.5 0.1 0.1
v 0.5 0.1 1.3
v 0.6 0.1 1.3
v 0.3 1.2 0.1
v 0.2 1.2 0.1
v 0.2 1.2 0.3
v 0.3 1.2 0.3
v 0.1 1.2 0.1
v 0.1 1.2 0.2
v 0.2 1.2 0.2
v 0.1 1.3 0.1
v -0.1 1.3 0.1
v -0.1 1.2 0.1
v -0.2 1.2 0.1
v -0.2 1.2 0.2
v -0.1 1.2 0.2
v -0.3 1.2 0.1
v -0.3 1.2 0.3
v -0.2 1.2 0.3
v -0.5 0.1 0.1
v -0.6 0.1 0.1
v -0.6 0.1 1.3
v -0.5 0.1 1.3
v 0.1 1.2 -0.1
v -0.1 1.2 -0.1
v 0.2 1.1 -0.3
v 0.1 1.1 -0.3
v 0.1 1.1 0.1
v 0.2 1.1 0.1
v -0.1 1.1 -0.3
v -0.2 1.1 -0.3
v -0.2 1.1 0.1
v -0.1 1.1 0.1
v 0.3 0.7 -1.1
v 0.2 0.7 -1.1
v 0.2 0.7 -1
v 0.3 0.7 -1
v 0.3 0.8 -1.2
v 0.2 0.8 -1.2
v 0.2 0.8 -1.1
v 0.3 0.8 -1.1
v 0.3 0.9 -1.3
v 0.2 0.9 -1.3
v 0.2 0.9 -1.2
v 0.3 0.9 -1.2
v 0.1 1.1 -1.3
v -0.1 1.1 -1.3
v -0.1 1.1 -0.1
v 0.1 1.1 -0.1
v 0.3 1 -1.4
v 0.2 1 -1.4
v 0.2 1 -1.3
v 0.3 1 -1.3
v 0.1 1 -1.4
v 0.1 1 -1.3
v 0.1 1.2 -1.4
v -0.1 1.2 -1.4
v -0.1 1.2 -1.3
v 0.1 1.2 -1.3
v 0.3 1.1 -1.5
v 0.2 1.1 -1.5
v 0.2 1.1 -1.4
v 0.3 1.1 -1.4
v 0.1 1.1 -1.5
v 0.1 1.1 -1.4
v 0.1 1.3 -1.5
v -0.1 1.3 -1.5
v -0.1 1.3 -1.4
v 0.1 1.3 -1.4
v 0.3 1.2 -1.6
v 0.2 1.2 -1.6
v 0.2 1.2 -1.5
v 0.3 1.2 -1.5
v 0.1 0.8 -1.6
v -0.1 0.8 -1.6
v -0.1 0.8 -1.5
v 0.1 0.8 -1.5
v 0.3 1.3 -1.7
v 0.2 1.3 -1.7
v 0.2 1.3 -1.6
v 0.3 1.3 -1.6
v 0.1 0.7 -1.7
v -0.1 0.7 -1.7
v -0.1 0.7 -1.6
v 0.1 0.7 -1.6
v 0.1 1.4 -1.7
v -0.1 1.4 -1.7
v -0.1 1.4 -1.5
v 0.1 1.4 -1.5
v 0.3 1.4 -1.8
v 0.2 1.4 -1.8
v 0.2 1.4 -1.7
v 0.3 1.4 -1.7
v 0.1 0.4 1.5
v 0.1 0.4 1.8
v 0 0.4 1.8
v 0 0.4 1.5
v 0.2 0.7 1.5
v 0.2 0.7 1.6
v -0.2 0.7 1.6
v -0.2 0.7 1.5
v 0.4 0.7 1.4
v 0.4 0.7 1.5
v 0.3 0.7 1.5
v 0.3 0.7 1.4
v 0.2 0.6 1.4
v 0.2 0.6 1.5
v 0.1 0.6 1.5
v 0.1 0.6 1.4
v 0 0.6 1.4
v 0 0.6 1.5
v -0.3 0.6 1.5
v -0.3 0.6 1.4
v -0.3 0.7 1.4
v -0.3 0.7 1.5
v -0.4 0.7 1.5
v -0.4 0.7 1.4
v 0.6 0.1 1.4
v 0.5 0.1 1.4
v 0.4 0.6 1.3
v 0.4 0.6 1.4
v 0.3 0.6 1.4
v 0.3 0.6 1.3
v 0.3 0.6 1.5
v 0.2 0.6 1.3
v 0.2 0.4 1.3
v 0.2 0.4 1.5
v 0.1 0.4 1.3
v 0 0.4 1.3
v -0.1 0.4 1.5
v -0.1 0.4 1.3
v -0.1 0.5 1.3
v -0.2 0.5 1.4
v -0.2 0.5 1.3
v -0.2 0.6 1.3
v -0.2 0.6 1.4
v -0.3 0.6 1.3
v -0.4 0.6 1.4
v -0.4 0.6 1.3
v -0.5 0.1 1.4
v -0.6 0.1 1.4
v 0.3 0.5 1.2
v 0.3 0.5 1.3
v 0.2 0.5 1.3
v 0.2 0.5 1.2
v 0.2 0.3 1.2
v 0.2 0.3 1.3
v 0.1 0.3 1.3
v 0.1 0.3 1.2
v 0.1 0.3 1.5
v 0 0.3 1.5
v 0 0.3 1.2
v 0 0.3 1.3
v -0.1 0.3 1.3
v -0.1 0.3 1.2
v -0.1 0.4 1.2
v -0.2 0.4 1.3
v -0.2 0.4 1.2
v -0.2 0.5 1.2
v -0.3 0.5 1.3
v -0.3 0.5 1.2
v 0.4 0.5 1.1
v 0.4 0.5 1.3
v 0.3 0.5 1.1
v -0.3 0.5 1.1
v -0.4 0.5 1.3
v -0.4 0.5 1.1
v 0.4 0.4 1.1
v 0.3 0.4 1.1
v -0.3 0.4 1.1
v -0.4 0.4 1.1
v 0.5 0.1 0.9
v 0.5 0.1 1
v 0.4 0.1 1
v 0.4 0.1 0.9
v 0.3 0.2 1
v 0.3 0.2 0.9
v -0.3 0.2 0.9
v -0.3 0.2 1
v -0.4 0.1 0.9
v -0.4 0.1 1
v -0.5 0.1 1
v -0.5 0.1 0.9
v 0.5 0.7 0.8
v 0.5 0.7 1.3
v 0.4 0.7 1.3
v 0.4 0.7 0.8
v 0.4 0.5 0.8
v 0.4 0.5 1
v 0.3 0.5 1
v 0.3 0.5 0.8
v -0.3 0.5 0.8
v -0.3 0.5 1
v -0.4 0.5 1
v -0.4 0.5 0.8
v -0.4 0.7 0.8
v -0.4 0.7 1.3
v -0.5 0.7 1.3
v -0.5 0.7 0.8
v 0.5 0.8 0.5
v 0.5 0.8 0.8
v 0.4 0.8 0.8
v 0.4 0.8 0.5
v 0.4 0.4 0.6
v 0.3 0.4 0.6
v 0.4 0.6 0.5
v 0.4 0.6 0.8
v 0.3 0.6 0.8
v 0.3 0.6 0.5
v -0.3 0.4 0.6
v -0.4 0.4 0.6
v -0.3 0.6 0.5
v -0.3 0.6 0.8
v -0.4 0.6 0.8
v -0.4 0.6 0.5
v -0.4 0.8 0.5
v -0.4 0.8 0.8
v -0.5 0.8 0.8
v -0.5 0.8 0.5
v 0.5 0.1 0.4
v 0.5 0.1 0.5
v 0.4 0.1 0.5
v 0.4 0.1 0.4
v 0.3 0.2 0.5
v 0.3 0.2 0.4
v 0.3 0.4 1.2
v 0.1 0.4 1.2
v 0.1 0.4 0.4
v -0.2 0.4 0.4
v -0.3 0.4 1.2
v -0.3 0.2 0.4
v -0.3 0.2 0.5
v -0.4 0.1 0.4
v -0.4 0.1 0.5
v -0.5 0.1 0.5
v -0.5 0.1 0.4
v 0.4 0.7 0.3
v 0.4 0.7 0.5
v 0.3 0.7 0.5
v 0.3 0.7 0.3
v 0.3 0.5 0.3
v 0.3 0.5 0.4
v 0.2 0.5 0.4
v 0.2 0.5 0.3
v 0.2 0.4 0.3
v 0.2 0.4 0.4
v 0.1 0.4 0.3
v -0.1 0.4 0.3
v -0.2 0.4 0.3
v -0.2 0.5 0.3
v -0.2 0.5 0.4
v -0.3 0.5 0.4
v -0.3 0.5 0.3
v -0.3 0.7 0.3
v -0.3 0.7 0.5
v -0.4 0.7 0.5
v -0.4 0.7 0.3
v 0.4 0.8 0.2
v 0.4 0.8 0.3
v 0.3 0.8 0.3
v 0.3 0.8 0.2
v 0.3 0.6 0.2
v 0.3 0.6 0.3
v 0.2 0.6 0.3
v 0.2 0.6 0.2
v 0.2 0.5 0.2
v 0.1 0.5 0.3
v 0.1 0.5 0.2
v 0.1 0.4 0.2
v -0.1 0.4 0.2
v -0.1 0.5 0.2
v -0.1 0.5 0.3
v -0.2 0.5 0.2
v -0.2 0.6 0.2
v -0.2 0.6 0.3
v -0.3 0.6 0.3
v -0.3 0.6 0.2
v -0.3 0.8 0.2
v -0.3 0.8 0.3
v -0.4 0.8 0.3
v -0.4 0.8 0.2
v 0.6 0 0.1
v 0.6 0 1.3
v 0.5 0 1.3
v 0.5 0 0.1
v 0.3 0.7 0.1
v 0.3 0.7 0.2
v 0.2 0.7 0.2
v 0.2 0.7 0.1
v 0.2 0.6 0.1
v 0.1 0.6 0.2
v 0.1 0.6 0.1
v 0.1 0.5 0.1
v -0.1 0.5 0.1
v -0.1 0.6 0.1
v -0.1 0.6 0.2
v -0.2 0.6 0.1
v -0.2 0.7 0.1
v -0.2 0.7 0.2
v -0.3 0.7 0.2
v -0.3 0.7 0.1
v -0.5 0 0.1
v -0.5 0 1.3
v -0.6 0 1.3
v -0.6 0 0.1
v 0.2 0.7 0
v 0.1 0.7 0.1
v 0.1 0.7 0
v 0.1 0.6 0
v -0.1 0.6 0
v -0.1 0.7 0
v -0.1 0.7 0.1
v -0.2 0.7 0
v 0.2 0.9 -0.1
v 0.2 0.9 0
v 0.1 0.9 0
v 0.1 0.9 -0.1
v 0.1 0.7 -0.1
v -0.1 0.7 -0.1
v -0.1 0.9 -0.1
v -0.1 0.9 0
v -0.2 0.9 0
v -0.2 0.9 -0.1
v 0.2 1 -0.3
v 0.2 1 -0.1
v 0.1 1 -0.1
v 0.1 1 -0.3
v -0.1 1 -0.3
v -0.1 1 -0.1
v -0.2 1 -0.1
v -0.2 1 -0.3
v 0.1 0.8 -0.4
v 0.1 0.8 -0.1
v -0.1 0.8 -0.1
v -0.1 0.8 -0.4
v 0.3 0.6 -1.1
v 0.3 0.6 -1
v 0.2 0.6 -1
v 0.2 0.6 -1.1
v 0.3 0.7 -1.2
v 0.2 0.7 -1.2
v 0.3 0.8 -1.3
v 0.2 0.8 -1.3
v 0.1 0.9 -1.3
v 0.1 0.9 -0.4
v -0.1 0.9 -0.4
v -0.1 0.9 -1.3
v 0.3 0.9 -1.4
v 0.2 0.9 -1.4
v 0.1 0.9 -1.4
v 0.1 0.8 -1.4
v 0.1 0.8 -1.3
v -0.1 0.8 -1.3
v -0.1 0.8 -1.4
v 0.3 1 -1.5
v 0.2 1 -1.5
v 0.1 1 -1.5
v 0.1 0.7 -1.5
v 0.1 0.7 -1.4
v -0.1 0.7 -1.4
v -0.1 0.7 -1.5
v 0.3 1.1 -1.6
v 0.2 1.1 -1.6
v 0.1 1.2 -1.6
v 0.1 1.2 -1.5
v -0.1 1.2 -1.5
v -0.1 1.2 -1.6
v 0.3 1.2 -1.7
v 0.2 1.2 -1.7
v 0.1 0.6 -1.7
v 0.1 0.6 -1.5
v -0.1 0.6 -1.5
v -0.1 0.6 -1.7
v 0.1 1.3 -1.7
v 0.1 1.3 -1.6
v -0.1 1.3 -1.6
v -0.1 1.3 -1.7
v 0.3 1.3 -1.8
v 0.2 1.3 -1.8
v -0.4 0.6 1.1
v -0.4 0.6 1
v -0.1 0.6 -1.6
v -0.3 0.8 0.1
v -0.1 0.8 0
v -0.5 0.9 0.8
v -0.5 1 0.8
v -0.1 1 -0.4
v -0.1 1 -1.3
v -0.2 1.1 0
v -0.2 1.1 -0.1
v -0.3 1.2 0.2
v -0.3 1.3 0.5
v -0.2 1.3 0.8
v -0.2 1.3 0.7
v -0.2 1.3 0.6
v -0.2 1.3 0.5
v -0.2 1.3 0.4
v -0.1 1.4 -1.6
v -0.1 1.5 0.6
v -0.1 1.5 0.5
v 0.2 0.4 1.2
v 0.4 0.6 1.1
v 0.4 0.6 1
v 0.1 0.6 -1.6
v 0.3 0.8 0.1
v 0.1 0.8 0
v 0.5 0.9 0.8
v 0.5 1 0.8
v 0.1 1 -0.4
v 0.2 1.1 0
v 0.2 1.1 -0.1
v 0.3 1.2 0.2
v 0.3 1.3 0.5
v 0.2 1.3 0.8
v 0.2 1.3 0.7
v 0.2 1.3 0.6
v 0.2 1.3 0.5
v 0.2 1.3 0.4
v 0.1 1.5 0.7
v 0.1 1.5 0.5
v 0.1 1.5 0.6
v 0 1.5 0.5
v -0.3 1.1 0.1
v 0 1.5 0.7
v -0.1 1.5 0.7

vt 0.0292969 0.5
vt 0.0605469 0.5
vt 0.0683594 0.5
vt 0.158203 0.5
vt 0.162109 0.5
vt 0.166016 0.5

vn 0 1 0
vn 0 -1 0
vn -1 0 0
vn 1 0 0
vn 0 0 -1
vn 0 0 1

usemtl palette
f 1/3/1 2/3/1 4/3/1
f 4/3/1 2/3/1 3/3/1
f 5/2/1 6/2/1 8/2/1
f 8/2/1 6/2/1 7/2/1
f 9/4/1 10/4/1 12/4/1
f 12/4/1 10/4/1 11/4/1
f 13/4/1 14/4/1 15/4/1
f 15/4/1 14/4/1 1/4/1
f 16/4/1 17/4/1 2/4/1
f 2/4/1 17/4/1 18/4/1
f 19/2/1 20/2/1 22/2/1
f 22/2/1 20/2/1 21/2/1
f 23/4/1 24/4/1 26/4/1
f 26/4/1 24/4/1 25/4/1
f 27/4/1 28/4/1 30/4/1
f 30/4/1 28/4/1 29/4/1
f 31/4/1 32/4/1 34/4/1
f 34/4/1 32/4/1 33/4/1
f 32/2/1 35/2/1 36/2/1
f 36/2/1 35/2/1 22/2/1
f 37/2/1 38/2/1 39/2/1
f 39/2/1 38/2/1 20/2/1
f 38/4/1 40/4/1 20/4/1
f 20/4/1 40/4/1 41/4/1
f 42/4/1 43/4/1 45/4/1
f 45/4/1 43/4/1 44/4/1
f 46/2/1 47/2/1 49/2/1
f 49/2/1 47/2/1 48/2/1
f 50/4/1 51/4/1 53/4/1
f 53/4/1 51/4/1 52/4/1
f 54/2/1 55/2/1 57/2/1
f 57/2/1 55/2/1 56/2/1
f 58/4/1 59/4/1 61/4/1
f 61/4/1 59/4/1 60/4/1
f 59/2/1 62/2/1 60/2/1
f 60/2/1 62/2/1 63/2/1
f 64/4/1 65/4/1 66/4/1
f 66/4/1 65/4/1 53/4/1
f 67/4/1 68/4/1 69/4/1
f 69/4/1 68/4/1 51/4/1
f 70/2/1 71/2/1 73/2/1
f 73/2/1 71/2/1 72/2/1
f 71/4/1 74/4/1 72/4/1
f 72/4/1 74/4/1 75/4/1
f 76/2/1 77/2/1 79/2/1
f 79/2/1 77/2/1 78/2/1
f 80/4/1 81/4/1 83/4/1
f 83/4/1 81/4/1 82/4/1
f 84/4/1 85/4/1 87/4/1
f 87/4/1 85/4/1 86/4/1
f 88/4/1 89/4/1 90/4/1
f 90/4/1 89/4/1 64/4/1
f 91/5/1 92/5/1 94/5/1
f 94/5/1 92/5/1 93/5/1
f 92/5/1 95/5/1 97/5/1
f 97/5/1 95/5/1 96/5/1
f 95/5/1 98/5/1 100/5/1
f 100/5/1 98/5/1 99/5/1
f 101/4/1 102/4/1 104/4/1
f 104/4/1 102/4/1 103/4/1
f 105/4/1 106/4/1 68/4/1
f 68/4/1 106/4/1 107/4/1
f 108/4/1 109/4/1 111/4/1
f 111/4/1 109/4/1 110/4/1
f 112/5/1 113/5/1 115/5/1
f 115/5/1 113/5/1 114/5/1
f 116/6/1 117/6/1 112/6/1
f 112/6/1 117/6/1 118/6/1
f 117/5/1 119/5/1 118/5/1
f 118/5/1 119/5/1 120/5/1
f 119/6/1 121/6/1 120/6/1
f 120/6/1 121/6/1 113/6/1
f 122/5/1 123/5/1 116/5/1
f 116/5/1 123/5/1 117/5/1
f 124/4/1 125/4/1 127/4/1
f 127/4/1 125/4/1 126/4/1
f 128/5/1 129/5/1 131/5/1
f 131/5/1 129/5/1 130/5/1
f 132/5/1 133/5/1 119/5/1
f 119/5/1 133/5/1 121/5/1
f 134/2/1 135/2/1 137/2/1
f 137/2/1 135/2/1 136/2/1
f 138/4/1 139/4/1 141/4/1
f 141/4/1 139/4/1 140/4/1
f 142/4/1 143/4/1 144/4/1
f 144/4/1 143/4/1 90/4/1
f 145/6/1 146/6/1 122/6/1
f 122/6/1 146/6/1 123/6/1
f 147/5/1 148/5/1 149/5/1
f 149/5/1 148/5/1 128/5/1
f 150/4/1 151/4/1 125/4/1
f 125/4/1 151/4/1 152/4/1
f 153/6/1 154/6/1 132/6/1
f 132/6/1 154/6/1 133/6/1
f 155/4/1 156/4/1 158/4/1
f 158/4/1 156/4/1 157/4/1
f 159/4/1 160/4/1 161/4/1
f 161/4/1 160/4/1 106/4/1
f 162/2/1 163/2/1 165/2/1
f 165/2/1 163/2/1 164/2/1
f 166/4/1 167/4/1 169/4/1
f 169/4/1 167/4/1 168/4/1
f 170/4/1 171/4/1 173/4/1
f 173/4/1 171/4/1 172/4/1
f 174/5/1 175/5/1 145/5/1
f 145/5/1 175/5/1 154/5/1
f 176/4/1 177/4/1 179/4/1
f 179/4/1 177/4/1 178/4/1
f 180/4/1 181/4/1 183/4/1
f 183/4/1 181/4/1 182/4/1
f 184/4/1 185/4/1 187/4/1
f 187/4/1 185/4/1 186/4/1
f 188/5/1 189/5/1 190/5/1
f 190/5/1 189/5/1 91/5/1
f 191/6/1 192/6/1 174/6/1
f 174/6/1 192/6/1 193/6/1
f 194/6/1 195/6/1 196/6/1
f 196/6/1 195/6/1 175/6/1
f 197/5/1 198/5/1 98/5/1
f 98/5/1 198/5/1 199/5/1
f 200/4/1 201/4/1 203/4/1
f 203/4/1 201/4/1 202/4/1
f 204/4/1 205/4/1 207/4/1
f 207/4/1 205/4/1 206/4/1
f 208/5/1 209/5/1 189/5/1
f 189/5/1 209/5/1 210/5/1
f 211/5/1 212/5/1 193/5/1
f 193/5/1 212/5/1 196/5/1
f 213/5/1 214/5/1 215/5/1
f 215/5/1 214/5/1 197/5/1
f 216/4/1 217/4/1 219/4/1
f 219/4/1 217/4/1 218/4/1
f 220/4/1 221/4/1 223/4/1
f 223/4/1 221/4/1 222/4/1
f 224/5/1 225/5/1 227/5/1
f 227/5/1 225/5/1 226/5/1
f 225/5/1 228/5/1 230/5/1
f 230/5/1 228/5/1 229/5/1
f 231/5/1 232/5/1 209/5/1
f 209/5/1 232/5/1 213/5/1
f 233/5/1 234/5/1 236/5/1
f 236/5/1 234/5/1 235/5/1
f 234/5/1 237/5/1 239/5/1
f 239/5/1 237/5/1 238/5/1
f 240/4/1 241/4/1 243/4/1
f 243/4/1 241/4/1 242/4/1
f 244/5/1 245/5/1 228/5/1
f 228/5/1 245/5/1 233/5/1
f 246/5/1 247/5/1 249/5/1
f 249/5/1 247/5/1 248/5/1
f 250/5/1 251/5/1 253/5/1
f 253/5/1 251/5/1 252/5/1
f 254/1/1 255/1/1 257/1/1
f 257/1/1 255/1/1 256/1/1
f 258/3/1 259/3/1 261/3/1
f 261/3/1 259/3/1 260/3/1
f 262/3/1 263/3/1 265/3/1
f 265/3/1 263/3/1 264/3/1
f 266/5/1 267/5/1 269/5/1
f 269/5/1 267/5/1 268/5/1
f 270/3/1 271/3/1 273/3/1
f 273/3/1 271/3/1 272/3/1
f 271/4/1 274/4/1 272/4/1
f 272/4/1 274/4/1 275/4/1
f 276/5/1 277/5/1 279/5/1
f 279/5/1 277/5/1 278/5/1
f 280/3/1 281/3/1 283/3/1
f 283/3/1 281/3/1 282/3/1
f 281/4/1 284/4/1 282/4/1
f 282/4/1 284/4/1 285/4/1
f 286/5/1 287/5/1 289/5/1
f 289/5/1 287/5/1 288/5/1
f 290/3/1 291/3/1 293/3/1
f 293/3/1 291/3/1 292/3/1
f 294/5/1 295/5/1 297/5/1
f 297/5/1 295/5/1 296/5/1
f 298/3/1 299/3/1 301/3/1
f 301/3/1 299/3/1 300/3/1
f 302/5/1 303/5/1 305/5/1
f 305/5/1 303/5/1 304/5/1
f 306/5/1 307/5/1 309/5/1
f 309/5/1 307/5/1 308/5/1
f 310/1/1 311/1/1 313/1/1
f 313/1/1 311/1/1 312/1/1
f 314/3/2 315/3/2 317/3/2
f 317/3/2 315/3/2 316/3/2
f 318/2/2 319/2/2 321/2/2
f 321/2/2 319/2/2 320/2/2
f 322/4/2 323/4/2 325/4/2
f 325/4/2 323/4/2 324/4/2
f 326/2/2 327/2/2 329/2/2
f 329/2/2 327/2/2 328/2/2
f 330/2/2 331/2/2 333/2/2
f 333/2/2 331/2/2 332/2/2
f 334/4/2 335/4/2 337/4/2
f 337/4/2 335/4/2 336/4/2
f 223/4/2 338/4/2 222/4/2
f 222/4/2 338/4/2 339/4/2
f 340/4/2 341/4/2 343/4/2
f 343/4/2 341/4/2 342/4/2
f 343/2/2 344/2/2 345/2/2
f 345/2/2 344/2/2 327/2/2
f 346/4/2 347/4/2 348/4/2
f 348/4/2 347/4/2 314/4/2
f 349/4/2 317/4/2 351/4/2
f 351/4/2 317/4/2 350/4/2
f 352/2/2 17/2/2 354/2/2
f 354/2/2 17/2/2 353/2/2
f 355/2/2 356/2/2 357/2/2
f 357/2/2 356/2/2 333/2/2
f 357/4/2 333/4/2 359/4/2
f 359/4/2 333/4/2 358/4/2
f 243/4/2 360/4/2 242/4/2
f 242/4/2 360/4/2 361/4/2
f 362/2/2 363/2/2 365/2/2
f 365/2/2 363/2/2 364/2/2
f 366/4/2 367/4/2 369/4/2
f 369/4/2 367/4/2 368/4/2
f 369/4/2 370/4/2 372/4/2
f 372/4/2 370/4/2 371/4/2
f 372/4/2 373/4/2 375/4/2
f 375/4/2 373/4/2 374/4/2
f 376/5/2 351/5/2 378/5/2
f 378/5/2 351/5/2 377/5/2
f 379/2/2 354/2/2 381/2/2
f 381/2/2 354/2/2 380/2/2
f 382/4/2 383/4/2 384/4/2
f 384/4/2 383/4/2 363/4/2
f 385/4/2 380/4/2 387/4/2
f 387/4/2 380/4/2 386/4/2
f 87/4/2 388/4/2 86/4/2
f 86/4/2 388/4/2 389/4/2
f 104/4/2 390/4/2 103/4/2
f 103/4/2 390/4/2 391/4/2
f 392/4/2 393/4/2 395/4/2
f 395/4/2 393/4/2 394/4/2
f 81/4/2 82/4/2 397/4/2
f 397/4/2 82/4/2 396/4/2
f 398/4/2 399/4/2 108/4/2
f 108/4/2 399/4/2 111/4/2
f 400/4/2 401/4/2 403/4/2
f 403/4/2 401/4/2 402/4/2
f 404/2/2 405/2/2 407/2/2
f 407/2/2 405/2/2 406/2/2
f 408/4/2 409/4/2 411/4/2
f 411/4/2 409/4/2 410/4/2
f 412/4/2 413/4/2 415/4/2
f 415/4/2 413/4/2 414/4/2
f 416/2/2 417/2/2 419/2/2
f 419/2/2 417/2/2 418/2/2
f 420/2/2 421/2/2 423/2/2
f 423/2/2 421/2/2 422/2/2
f 173/4/2 424/4/2 172/4/2
f 172/4/2 424/4/2 425/4/2
f 426/4/2 427/4/2 429/4/2
f 429/4/2 427/4/2 428/4/2
f 179/4/2 430/4/2 178/4/2
f 178/4/2 430/4/2 431/4/2
f 432/4/2 433/4/2 435/4/2
f 435/4/2 433/4/2 434/4/2
f 436/2/2 437/2/2 439/2/2
f 439/2/2 437/2/2 438/2/2
f 440/4/2 441/4/2 443/4/2
f 443/4/2 441/4/2 442/4/2
f 167/4/2 168/4/2 445/4/2
f 445/4/2 168/4/2 444/4/2
f 171/6/2 446/6/2 448/6/2
f 448/6/2 446/6/2 447/6/2
f 449/6/2 378/6/2 176/6/2
f 176/6/2 378/6/2 450/6/2
f 451/4/2 452/4/2 180/4/2
f 180/4/2 452/4/2 183/4/2
f 453/4/2 454/4/2 456/4/2
f 456/4/2 454/4/2 455/4/2
f 457/4/2 458/4/2 460/4/2
f 460/4/2 458/4/2 459/4/2
f 461/5/2 462/5/2 464/5/2
f 464/5/2 462/5/2 463/5/2
f 465/6/2 466/6/2 467/6/2
f 467/6/2 466/6/2 448/6/2
f 467/5/2 447/5/2 468/5/2
f 468/5/2 447/5/2 376/5/2
f 468/6/2 376/6/2 469/6/2
f 469/6/2 376/6/2 378/6/2
f 470/5/2 471/5/2 473/5/2
f 473/5/2 471/5/2 472/5/2
f 474/4/2 475/4/2 477/4/2
f 477/4/2 475/4/2 476/4/2
f 478/4/2 479/4/2 481/4/2
f 481/4/2 479/4/2 480/4/2
f 482/5/2 483/5/2 485/5/2
f 485/5/2 483/5/2 484/5/2
f 486/5/2 464/5/2 488/5/2
f 488/5/2 464/5/2 487/5/2
f 489/6/2 467/6/2 490/6/2
f 490/6/2 467/6/2 468/6/2
f 491/5/2 492/5/2 493/5/2
f 493/5/2 492/5/2 470/5/2
f 494/5/2 495/5/2 497/5/2
f 497/5/2 495/5/2 496/5/2
f 498/4/2 499/4/2 501/4/2
f 501/4/2 499/4/2 500/4/2
f 502/4/2 503/4/2 505/4/2
f 505/4/2 503/4/2 504/4/2
f 506/5/2 507/5/2 509/5/2
f 509/5/2 507/5/2 508/5/2
f 510/5/2 485/5/2 512/5/2
f 512/5/2 485/5/2 511/5/2
f 513/6/2 488/6/2 514/6/2
f 514/6/2 488/6/2 491/6/2
f 515/5/2 516/5/2 517/5/2
f 517/5/2 516/5/2 494/5/2
f 518/5/2 519/5/2 521/5/2
f 521/5/2 519/5/2 520/5/2
f 522/4/2 523/4/2 525/4/2
f 525/4/2 523/4/2 524/4/2
f 526/5/2 509/5/2 528/5/2
f 528/5/2 509/5/2 527/5/2
f 529/6/2 512/6/2 530/6/2
f 530/6/2 512/6/2 515/6/2
f 531/5/2 532/5/2 533/5/2
f 533/5/2 532/5/2 518/5/2
f 534/5/2 535/5/2 537/5/2
f 537/5/2 535/5/2 536/5/2
f 538/6/2 528/6/2 539/6/2
f 539/6/2 528/6/2 531/6/2
f 540/5/2 541/5/2 543/5/2
f 543/5/2 541/5/2 542/5/2
f 544/5/2 545/5/2 547/5/2
f 547/5/2 545/5/2 546/5/2
f 548/5/2 549/5/2 551/5/2
f 551/5/2 549/5/2 550/5/2
f 552/6/2 553/6/2 555/6/2
f 555/6/2 553/6/2 554/6/2
f 556/1/2 557/1/2 559/1/2
f 559/1/2 557/1/2 558/1/2
f 560/3/2 254/3/2 561/3/2
f 561/3/2 254/3/2 255/3/2
f 562/3/2 258/3/2 563/3/2
f 563/3/2 258/3/2 259/3/2
f 564/6/2 565/6/2 567/6/2
f 567/6/2 565/6/2 566/6/2
f 568/3/2 262/3/2 569/3/2
f 569/3/2 262/3/2 263/3/2
f 569/4/2 263/4/2 570/4/2
f 570/4/2 263/4/2 564/4/2
f 571/5/2 572/5/2 574/5/2
f 574/5/2 572/5/2 573/5/2
f 575/3/2 270/3/2 576/3/2
f 576/3/2 270/3/2 271/3/2
f 576/4/2 271/4/2 577/4/2
f 577/4/2 271/4/2 274/4/2
f 578/5/2 579/5/2 581/5/2
f 581/5/2 579/5/2 580/5/2
f 582/3/2 280/3/2 583/3/2
f 583/3/2 280/3/2 281/3/2
f 584/5/2 585/5/2 587/5/2
f 587/5/2 585/5/2 586/5/2
f 588/3/2 290/3/2 589/3/2
f 589/3/2 290/3/2 291/3/2
f 590/5/2 591/5/2 593/5/2
f 593/5/2 591/5/2 592/5/2
f 594/5/2 595/5/2 597/5/2
f 597/5/2 595/5/2 596/5/2
f 598/1/2 298/1/2 599/1/2
f 599/1/2 298/1/2 299/1/2
f 222/4/3 221/4/3 504/4/3
f 504/4/3 221/4/3 505/4/3
f 242/4/3 241/4/3 524/4/3
f 524/4/3 241/4/3 525/4/3
f 29/4/3 28/4/3 339/4/3
f 339/4/3 28/4/3 222/4/3
f 44/4/3 43/4/3 361/4/3
f 361/4/3 43/4/3 242/4/3
f 82/4/3 81/4/3 394/4/3
f 394/4/3 81/4/3 395/4/3
f 110/4/3 109/4/3 402/4/3
f 402/4/3 109/4/3 403/4/3
f 168/4/3 167/4/3 442/4/3
f 442/4/3 167/4/3 443/4/3
f 182/4/3 181/4/3 455/4/3
f 455/4/3 181/4/3 456/4/3
f 317/4/3 349/4/3 371/4/3
f 371/4/3 349/4/3 373/4/3
f 351/4/3 376/4/3 374/4/3
f 374/4/3 376/4/3 375/4/3
f 86/4/3 85/4/3 396/4/3
f 396/4/3 85/4/3 397/4/3
f 103/4/3 102/4/3 111/4/3
f 111/4/3 102/4/3 108/4/3
f 172/4/3 171/4/3 444/4/3
f 444/4/3 171/4/3 445/4/3
f 178/4/3 177/4/3 183/4/3
f 183/4/3 177/4/3 180/4/3
f 3/3/3 2/3/3 316/3/3
f 316/3/3 2/3/3 317/3/3
f 18/4/3 352/4/3 350/4/3
f 350/4/3 352/4/3 351/4/3
f 354/5/3 379/5/3 377/5/3
f 377/5/3 379/5/3 378/5/3
f 381/6/3 385/6/3 450/6/3
f 450/6/3 385/6/3 390/6/3
f 413/6/3 158/6/3 104/6/3
f 104/6/3 158/6/3 430/6/3
f 157/4/3 156/4/3 431/4/3
f 431/4/3 156/4/3 178/4/3
f 155/6/3 472/6/3 179/6/3
f 179/6/3 472/6/3 176/6/3
f 471/6/3 470/6/3 449/6/3
f 449/6/3 470/6/3 469/6/3
f 492/6/3 491/6/3 468/6/3
f 468/6/3 491/6/3 490/6/3
f 331/4/3 330/4/3 2/4/3
f 2/4/3 330/4/3 16/4/3
f 356/2/3 355/2/3 353/2/3
f 353/2/3 355/2/3 354/2/3
f 359/4/3 600/4/3 386/4/3
f 386/4/3 600/4/3 387/4/3
f 600/4/3 601/4/3 391/4/3
f 391/4/3 601/4/3 103/4/3
f 601/4/3 434/4/3 414/4/3
f 414/4/3 434/4/3 415/4/3
f 433/5/3 496/5/3 412/5/3
f 412/5/3 496/5/3 473/5/3
f 495/5/3 494/5/3 470/5/3
f 470/5/3 494/5/3 493/5/3
f 516/6/3 515/6/3 491/6/3
f 491/6/3 515/6/3 514/6/3
f 335/2/3 334/2/3 332/2/3
f 332/2/3 334/2/3 333/2/3
f 337/4/3 417/4/3 358/4/3
f 358/4/3 417/4/3 359/4/3
f 417/2/3 416/2/3 359/2/3
f 359/2/3 416/2/3 434/2/3
f 416/4/3 476/4/3 434/4/3
f 434/4/3 476/4/3 435/4/3
f 475/5/3 520/5/3 432/5/3
f 432/5/3 520/5/3 497/5/3
f 519/5/3 518/5/3 494/5/3
f 494/5/3 518/5/3 517/5/3
f 532/6/3 531/6/3 515/6/3
f 515/6/3 531/6/3 530/6/3
f 256/1/3 255/1/3 558/1/3
f 558/1/3 255/1/3 559/1/3
f 304/5/3 303/5/3 602/5/3
f 602/5/3 303/5/3 593/5/3
f 437/2/3 436/2/3 416/2/3
f 416/2/3 436/2/3 476/2/3
f 436/4/3 500/4/3 476/4/3
f 476/4/3 500/4/3 477/4/3
f 499/5/3 603/5/3 474/5/3
f 474/5/3 603/5/3 521/5/3
f 604/6/3 554/6/3 531/6/3
f 531/6/3 554/6/3 539/6/3
f 260/3/3 259/3/3 255/3/3
f 255/3/3 259/3/3 561/3/3
f 296/5/3 295/5/3 592/5/3
f 592/5/3 295/5/3 602/5/3
f 7/2/3 6/2/3 320/2/3
f 320/2/3 6/2/3 321/2/3
f 25/4/3 24/4/3 336/4/3
f 336/4/3 24/4/3 337/4/3
f 24/2/3 79/2/3 337/2/3
f 337/2/3 79/2/3 417/2/3
f 78/2/3 605/2/3 418/2/3
f 418/2/3 605/2/3 419/2/3
f 541/5/3 540/5/3 604/5/3
f 604/5/3 540/5/3 554/5/3
f 540/6/3 566/6/3 554/6/3
f 554/6/3 566/6/3 555/6/3
f 264/3/3 263/3/3 259/3/3
f 259/3/3 263/3/3 563/3/3
f 21/2/3 20/2/3 26/2/3
f 26/2/3 20/2/3 23/2/3
f 41/4/3 40/4/3 24/4/3
f 24/4/3 40/4/3 79/4/3
f 40/2/3 165/2/3 79/2/3
f 79/2/3 165/2/3 76/2/3
f 164/2/3 606/2/3 77/2/3
f 77/2/3 606/2/3 605/2/3
f 606/2/3 163/2/3 438/2/3
f 438/2/3 163/2/3 439/2/3
f 162/2/3 218/2/3 436/2/3
f 436/2/3 218/2/3 500/2/3
f 218/4/3 217/4/3 500/4/3
f 500/4/3 217/4/3 501/4/3
f 549/5/3 607/5/3 540/5/3
f 540/5/3 607/5/3 566/5/3
f 607/6/3 608/6/3 566/6/3
f 566/6/3 608/6/3 567/6/3
f 48/2/3 73/2/3 39/2/3
f 39/2/3 73/2/3 37/2/3
f 75/4/3 74/4/3 40/4/3
f 40/4/3 74/4/3 165/4/3
f 74/2/3 202/2/3 165/2/3
f 165/2/3 202/2/3 162/2/3
f 202/4/3 201/4/3 162/4/3
f 162/4/3 201/4/3 218/4/3
f 252/5/3 609/5/3 518/5/3
f 518/5/3 609/5/3 533/5/3
f 609/5/3 610/5/3 542/5/3
f 542/5/3 610/5/3 543/5/3
f 610/5/3 251/5/3 550/5/3
f 550/5/3 251/5/3 551/5/3
f 250/5/3 267/5/3 548/5/3
f 548/5/3 267/5/3 608/5/3
f 52/4/3 68/4/3 47/4/3
f 47/4/3 68/4/3 70/4/3
f 107/4/3 160/4/3 74/4/3
f 74/4/3 160/4/3 202/4/3
f 238/5/3 611/5/3 219/5/3
f 219/5/3 611/5/3 216/5/3
f 611/5/3 237/5/3 498/5/3
f 498/5/3 237/5/3 603/5/3
f 233/5/3 245/5/3 253/5/3
f 253/5/3 245/5/3 268/5/3
f 278/5/3 277/5/3 573/5/3
f 573/5/3 277/5/3 574/5/3
f 292/3/3 291/3/3 281/3/3
f 281/3/3 291/3/3 583/3/3
f 96/5/3 100/5/3 69/5/3
f 69/5/3 100/5/3 67/5/3
f 99/5/3 98/5/3 68/5/3
f 68/5/3 98/5/3 105/5/3
f 199/5/3 612/5/3 161/5/3
f 161/5/3 612/5/3 159/5/3
f 612/5/3 198/5/3 203/5/3
f 203/5/3 198/5/3 200/5/3
f 197/5/3 214/5/3 239/5/3
f 239/5/3 214/5/3 235/5/3
f 213/5/3 232/5/3 236/5/3
f 236/5/3 232/5/3 233/5/3
f 288/5/3 287/5/3 580/5/3
f 580/5/3 287/5/3 581/5/3
f 300/3/3 299/3/3 291/3/3
f 291/3/3 299/3/3 589/3/3
f 114/5/3 113/5/3 98/5/3
f 98/5/3 113/5/3 613/5/3
f 113/6/3 121/6/3 613/6/3
f 613/6/3 121/6/3 614/6/3
f 121/5/3 133/5/3 614/5/3
f 614/5/3 133/5/3 615/5/3
f 133/6/3 154/6/3 615/6/3
f 615/6/3 154/6/3 616/6/3
f 154/5/3 175/5/3 616/5/3
f 616/5/3 175/5/3 617/5/3
f 175/6/3 195/6/3 617/6/3
f 617/6/3 195/6/3 197/6/3
f 194/5/3 212/5/3 215/5/3
f 215/5/3 212/5/3 213/5/3
f 308/5/3 618/5/3 586/5/3
f 586/5/3 618/5/3 587/5/3
f 618/5/3 307/5/3 596/5/3
f 596/5/3 307/5/3 597/5/3
f 312/1/3 311/1/3 299/1/3
f 299/1/3 311/1/3 599/1/3
f 619/5/3 620/5/3 132/5/3
f 132/5/3 620/5/3 153/5/3
f 130/5/3 129/5/3 119/5/3
f 119/5/3 129/5/3 132/5/3
f 126/4/3 125/4/3 131/4/3
f 131/4/3 125/4/3 128/4/3
f 152/4/3 151/4/3 619/4/3
f 619/4/3 151/4/3 620/4/3
f 223/4/4 503/4/4 220/4/4
f 220/4/4 503/4/4 502/4/4
f 243/4/4 523/4/4 240/4/4
f 240/4/4 523/4/4 522/4/4
f 30/4/4 338/4/4 27/4/4
f 27/4/4 338/4/4 223/4/4
f 45/4/4 360/4/4 42/4/4
f 42/4/4 360/4/4 243/4/4
f 83/4/4 393/4/4 80/4/4
f 80/4/4 393/4/4 392/4/4
f 111/4/4 401/4/4 108/4/4
f 108/4/4 401/4/4 400/4/4
f 169/4/4 441/4/4 166/4/4
f 166/4/4 441/4/4 440/4/4
f 183/4/4 454/4/4 180/4/4
f 180/4/4 454/4/4 453/4/4
f 314/4/4 370/4/4 348/4/4
f 348/4/4 370/4/4 368/4/4
f 346/4/4 367/4/4 621/4/4
f 621/4/4 367/4/4 366/4/4
f 87/4/4 82/4/4 84/4/4
f 84/4/4 82/4/4 81/4/4
f 104/4/4 399/4/4 101/4/4
f 101/4/4 399/4/4 398/4/4
f 173/4/4 168/4/4 170/4/4
f 170/4/4 168/4/4 167/4/4
f 179/4/4 452/4/4 176/4/4
f 176/4/4 452/4/4 451/4/4
f 4/3/4 315/3/4 1/3/4
f 1/3/4 315/3/4 314/3/4
f 15/4/4 347/4/4 364/4/4
f 364/4/4 347/4/4 346/4/4
f 364/5/4 346/5/4 365/5/4
f 365/5/4 346/5/4 621/5/4
f 362/6/4 446/6/4 384/6/4
f 384/6/4 446/6/4 389/6/4
f 410/6/4 86/6/4 140/6/4
f 140/6/4 86/6/4 425/6/4
f 141/4/4 424/4/4 138/4/4
f 138/4/4 424/4/4 173/4/4
f 139/6/4 172/6/4 462/6/4
f 462/6/4 172/6/4 171/6/4
f 463/6/4 466/6/4 464/6/4
f 464/6/4 466/6/4 465/6/4
f 487/6/4 467/6/4 488/6/4
f 488/6/4 467/6/4 489/6/4
f 328/4/4 1/4/4 329/4/4
f 329/4/4 1/4/4 14/4/4
f 326/2/4 13/2/4 345/2/4
f 345/2/4 13/2/4 364/2/4
f 340/4/4 383/4/4 622/4/4
f 622/4/4 383/4/4 382/4/4
f 622/4/4 388/4/4 623/4/4
f 623/4/4 388/4/4 87/4/4
f 623/4/4 409/4/4 427/4/4
f 427/4/4 409/4/4 408/4/4
f 428/5/4 411/5/4 483/5/4
f 483/5/4 411/5/4 461/5/4
f 484/5/4 464/5/4 485/5/4
f 485/5/4 464/5/4 486/5/4
f 511/6/4 488/6/4 512/6/4
f 512/6/4 488/6/4 513/6/4
f 324/2/4 344/2/4 325/2/4
f 325/2/4 344/2/4 342/2/4
f 322/4/4 341/4/4 406/4/4
f 406/4/4 341/4/4 340/4/4
f 406/2/4 340/2/4 407/2/4
f 407/2/4 340/2/4 427/2/4
f 407/4/4 427/4/4 458/4/4
f 458/4/4 427/4/4 426/4/4
f 459/5/4 429/5/4 507/5/4
f 507/5/4 429/5/4 482/5/4
f 508/5/4 485/5/4 509/5/4
f 509/5/4 485/5/4 510/5/4
f 527/6/4 512/6/4 528/6/4
f 528/6/4 512/6/4 529/6/4
f 257/1/4 557/1/4 254/1/4
f 254/1/4 557/1/4 556/1/4
f 305/5/4 624/5/4 302/5/4
f 302/5/4 624/5/4 590/5/4
f 422/2/4 407/2/4 423/2/4
f 423/2/4 407/2/4 458/2/4
f 423/4/4 458/4/4 479/4/4
f 479/4/4 458/4/4 457/4/4
f 480/5/4 460/5/4 625/5/4
f 625/5/4 460/5/4 506/5/4
f 626/6/4 528/6/4 553/6/4
f 553/6/4 528/6/4 538/6/4
f 261/3/4 254/3/4 258/3/4
f 258/3/4 254/3/4 560/3/4
f 297/5/4 591/5/4 294/5/4
f 294/5/4 591/5/4 624/5/4
f 8/2/4 319/2/4 5/2/4
f 5/2/4 319/2/4 318/2/4
f 12/4/4 323/4/4 9/4/4
f 9/4/4 323/4/4 322/4/4
f 9/2/4 322/2/4 56/2/4
f 56/2/4 322/2/4 406/2/4
f 57/2/4 405/2/4 627/2/4
f 627/2/4 405/2/4 404/2/4
f 536/5/4 626/5/4 537/5/4
f 537/5/4 626/5/4 553/5/4
f 537/6/4 553/6/4 565/6/4
f 565/6/4 553/6/4 552/6/4
f 265/3/4 258/3/4 262/3/4
f 262/3/4 258/3/4 562/3/4
f 564/5/4 572/5/4 570/5/4
f 570/5/4 572/5/4 571/5/4
f 36/2/4 11/2/4 33/2/4
f 33/2/4 11/2/4 10/2/4
f 34/4/4 9/4/4 31/4/4
f 31/4/4 9/4/4 56/4/4
f 31/2/4 56/2/4 136/2/4
f 136/2/4 56/2/4 55/2/4
f 137/2/4 54/2/4 628/2/4
f 628/2/4 54/2/4 627/2/4
f 628/2/4 421/2/4 134/2/4
f 134/2/4 421/2/4 420/2/4
f 135/2/4 423/2/4 207/2/4
f 207/2/4 423/2/4 479/2/4
f 207/4/4 479/4/4 204/4/4
f 204/4/4 479/4/4 478/4/4
f 546/5/4 537/5/4 629/5/4
f 629/5/4 537/5/4 565/5/4
f 629/6/4 565/6/4 275/6/4
f 275/6/4 565/6/4 564/6/4
f 273/3/4 262/3/4 270/3/4
f 270/3/4 262/3/4 568/3/4
f 274/5/4 579/5/4 577/5/4
f 577/5/4 579/5/4 578/5/4
f 49/2/4 19/2/4 63/2/4
f 63/2/4 19/2/4 35/2/4
f 61/4/4 31/4/4 58/4/4
f 58/4/4 31/4/4 136/4/4
f 58/2/4 136/2/4 187/2/4
f 187/2/4 136/2/4 135/2/4
f 187/4/4 135/4/4 184/4/4
f 184/4/4 135/4/4 207/4/4
f 249/5/4 509/5/4 630/5/4
f 630/5/4 509/5/4 526/5/4
f 630/5/4 535/5/4 631/5/4
f 631/5/4 535/5/4 534/5/4
f 631/5/4 545/5/4 246/5/4
f 246/5/4 545/5/4 544/5/4
f 247/5/4 547/5/4 285/5/4
f 285/5/4 547/5/4 274/5/4
f 283/3/4 270/3/4 280/3/4
f 280/3/4 270/3/4 575/3/4
f 66/4/4 46/4/4 64/4/4
f 64/4/4 46/4/4 62/4/4
f 144/4/4 58/4/4 142/4/4
f 142/4/4 58/4/4 187/4/4
f 227/5/4 206/5/4 632/5/4
f 632/5/4 206/5/4 205/5/4
f 632/5/4 481/5/4 224/5/4
f 224/5/4 481/5/4 625/5/4
f 228/5/4 248/5/4 244/5/4
f 244/5/4 248/5/4 269/5/4
f 279/5/4 266/5/4 585/5/4
f 585/5/4 266/5/4 284/5/4
f 293/3/4 280/3/4 290/3/4
f 290/3/4 280/3/4 582/3/4
f 97/5/4 50/5/4 93/5/4
f 93/5/4 50/5/4 65/5/4
f 94/5/4 64/5/4 91/5/4
f 91/5/4 64/5/4 89/5/4
f 190/5/4 88/5/4 633/5/4
f 633/5/4 88/5/4 143/5/4
f 633/5/4 186/5/4 188/5/4
f 188/5/4 186/5/4 185/5/4
f 189/5/4 226/5/4 208/5/4
f 208/5/4 226/5/4 230/5/4
f 209/5/4 229/5/4 231/5/4
f 231/5/4 229/5/4 228/5/4
f 289/5/4 276/5/4 595/5/4
f 595/5/4 276/5/4 584/5/4
f 301/3/4 290/3/4 298/3/4
f 298/3/4 290/3/4 588/3/4
f 115/5/4 91/5/4 112/5/4
f 112/5/4 91/5/4 634/5/4
f 112/6/4 634/6/4 116/6/4
f 116/6/4 634/6/4 635/6/4
f 116/5/4 635/5/4 122/5/4
f 122/5/4 635/5/4 636/5/4
f 122/6/4 636/6/4 145/6/4
f 145/6/4 636/6/4 637/6/4
f 145/5/4 637/5/4 174/5/4
f 174/5/4 637/5/4 638/5/4
f 174/6/4 638/6/4 191/6/4
f 191/6/4 638/6/4 189/6/4
f 192/5/4 210/5/4 211/5/4
f 211/5/4 210/5/4 209/5/4
f 309/5/4 286/5/4 306/5/4
f 306/5/4 286/5/4 594/5/4
f 313/1/4 298/1/4 310/1/4
f 310/1/4 298/1/4 598/1/4
f 639/5/4 117/5/4 640/5/4
f 640/5/4 117/5/4 146/5/4
f 149/5/4 641/5/4 147/5/4
f 147/5/4 641/5/4 640/5/4
f 127/4/4 639/4/4 124/4/4
f 124/4/4 639/4/4 641/4/4
f 125/4/4 128/4/4 150/4/4
f 150/4/4 128/4/4 148/4/4
f 505/4/5 221/4/5 502/4/5
f 502/4/5 221/4/5 220/4/5
f 222/4/5 28/4/5 223/4/5
f 223/4/5 28/4/5 27/4/5
f 395/4/5 81/4/5 392/4/5
f 392/4/5 81/4/5 80/4/5
f 443/4/5 167/4/5 440/4/5
f 440/4/5 167/4/5 166/4/5
f 407/2/5 422/2/5 404/2/5
f 404/2/5 422/2/5 421/2/5
f 423/2/5 135/2/5 420/2/5
f 420/2/5 135/2/5 134/2/5
f 397/4/5 85/4/5 81/4/5
f 81/4/5 85/4/5 84/4/5
f 445/4/5 171/4/5 167/4/5
f 167/4/5 171/4/5 170/4/5
f 86/4/5 410/4/5 87/4/5
f 87/4/5 410/4/5 409/4/5
f 172/4/5 139/4/5 173/4/5
f 173/4/5 139/4/5 138/4/5
f 411/4/5 428/4/5 408/4/5
f 408/4/5 428/4/5 427/4/5
f 429/4/5 459/4/5 426/4/5
f 426/4/5 459/4/5 458/4/5
f 460/4/5 480/4/5 457/4/5
f 457/4/5 480/4/5 479/4/5
f 481/4/5 205/4/5 478/4/5
f 478/4/5 205/4/5 204/4/5
f 206/4/5 185/4/5 207/4/5
f 207/4/5 185/4/5 184/4/5
f 186/4/5 143/4/5 187/4/5
f 187/4/5 143/4/5 142/4/5
f 466/6/5 463/6/5 171/6/5
f 171/6/5 463/6/5 462/6/5
f 464/5/5 484/5/5 461/5/5
f 461/5/5 484/5/5 483/5/5
f 485/5/5 508/5/5 482/5/5
f 482/5/5 508/5/5 507/5/5
f 559/1/5 255/1/5 556/1/5
f 556/1/5 255/1/5 254/1/5
f 561/3/5 259/3/5 560/3/5
f 560/3/5 259/3/5 258/3/5
f 563/3/5 263/3/5 562/3/5
f 562/3/5 263/3/5 262/3/5
f 569/3/5 271/3/5 568/3/5
f 568/3/5 271/3/5 270/3/5
f 576/3/5 281/3/5 575/3/5
f 575/3/5 281/3/5 280/3/5
f 509/5/5 225/5/5 506/5/5
f 506/5/5 225/5/5 224/5/5
f 583/3/5 291/3/5 582/3/5
f 582/3/5 291/3/5 290/3/5
f 226/5/5 189/5/5 227/5/5
f 227/5/5 189/5/5 188/5/5
f 589/3/5 299/3/5 588/3/5
f 588/3/5 299/3/5 298/3/5
f 599/1/5 311/1/5 598/1/5
f 598/1/5 311/1/5 310/1/5
f 467/6/5 487/6/5 465/6/5
f 465/6/5 487/6/5 464/6/5
f 488/5/5 511/5/5 486/5/5
f 486/5/5 511/5/5 485/5/5
f 512/5/5 527/5/5 510/5/5
f 510/5/5 527/5/5 509/5/5
f 528/5/5 536/5/5 526/5/5
f 526/5/5 536/5/5 535/5/5
f 537/5/5 546/5/5 534/5/5
f 534/5/5 546/5/5 545/5/5
f 570/4/5 274/4/5 569/4/5
f 569/4/5 274/4/5 271/4/5
f 547/5/5 247/5/5 544/5/5
f 544/5/5 247/5/5 246/5/5
f 577/4/5 284/4/5 576/4/5
f 576/4/5 284/4/5 281/4/5
f 248/5/5 228/5/5 249/5/5
f 249/5/5 228/5/5 225/5/5
f 229/5/5 209/5/5 230/5/5
f 230/5/5 209/5/5 208/5/5
f 210/6/5 192/6/5 189/6/5
f 189/6/5 192/6/5 191/6/5
f 642/5/5 148/5/5 640/5/5
f 640/5/5 148/5/5 147/5/5
f 128/4/5 125/4/5 149/4/5
f 149/4/5 125/4/5 124/4/5
f 375/4/5 376/4/5 366/4/5
f 366/4/5 376/4/5 621/4/5
f 490/6/5 491/6/5 489/6/5
f 489/6/5 491/6/5 488/6/5
f 514/6/5 515/6/5 513/6/5
f 513/6/5 515/6/5 512/6/5
f 530/6/5 531/6/5 529/6/5
f 529/6/5 531/6/5 528/6/5
f 593/5/5 303/5/5 590/5/5
f 590/5/5 303/5/5 302/5/5
f 539/6/5 554/6/5 538/6/5
f 538/6/5 554/6/5 553/6/5
f 304/5/5 295/5/5 305/5/5
f 305/5/5 295/5/5 294/5/5
f 555/6/5 566/6/5 552/6/5
f 552/6/5 566/6/5 565/6/5
f 268/5/5 245/5/5 269/5/5
f 269/5/5 245/5/5 244/5/5
f 296/5/5 586/5/5 297/5/5
f 297/5/5 586/5/5 585/5/5
f 233/5/5 232/5/5 228/5/5
f 228/5/5 232/5/5 231/5/5
f 587/5/5 596/5/5 584/5/5
f 584/5/5 596/5/5 595/5/5
f 213/5/5 212/5/5 209/5/5
f 209/5/5 212/5/5 211/5/5
f 597/5/5 307/5/5 594/5/5
f 594/5/5 307/5/5 306/5/5
f 153/5/5 620/5/5 146/5/5
f 146/5/5 620/5/5 640/5/5
f 620/4/5 151/4/5 642/4/5
f 642/4/5 151/4/5 150/4/5
f 469/6/5 470/6/5 468/6/5
f 468/6/5 470/6/5 492/6/5
f 493/5/5 494/5/5 491/5/5
f 491/5/5 494/5/5 516/5/5
f 517/5/5 518/5/5 515/5/5
f 515/5/5 518/5/5 532/5/5
f 533/5/5 542/5/5 531/5/5
f 531/5/5 542/5/5 541/5/5
f 543/5/5 550/5/5 540/5/5
f 540/5/5 550/5/5 549/5/5
f 551/5/5 251/5/5 548/5/5
f 548/5/5 251/5/5 250/5/5
f 235/5/5 214/5/5 236/5/5
f 236/5/5 214/5/5 213/5/5
f 197/6/5 195/6/5 215/6/5
f 215/6/5 195/6/5 194/6/5
f 176/6/5 472/6/5 449/6/5
f 449/6/5 472/6/5 471/6/5
f 473/5/5 496/5/5 470/5/5
f 470/5/5 496/5/5 495/5/5
f 497/5/5 520/5/5 494/5/5
f 494/5/5 520/5/5 519/5/5
f 521/5/5 643/5/5 518/5/5
f 518/5/5 643/5/5 252/5/5
f 643/5/5 237/5/5 253/5/5
f 253/5/5 237/5/5 233/5/5
f 238/5/5 198/5/5 239/5/5
f 239/5/5 198/5/5 197/5/5
f 108/4/5 102/4/5 398/4/5
f 398/4/5 102/4/5 101/4/5
f 180/4/5 177/4/5 451/4/5
f 451/4/5 177/4/5 176/4/5
f 103/4/5 414/4/5 104/4/5
f 104/4/5 414/4/5 413/4/5
f 178/4/5 156/4/5 179/4/5
f 179/4/5 156/4/5 155/4/5
f 415/4/5 434/4/5 412/4/5
f 412/4/5 434/4/5 433/4/5
f 435/4/5 476/4/5 432/4/5
f 432/4/5 476/4/5 475/4/5
f 477/4/5 500/4/5 474/4/5
f 474/4/5 500/4/5 499/4/5
f 501/4/5 217/4/5 498/4/5
f 498/4/5 217/4/5 216/4/5
f 218/4/5 201/4/5 219/4/5
f 219/4/5 201/4/5 200/4/5
f 202/4/5 160/4/5 203/4/5
f 203/4/5 160/4/5 159/4/5
f 403/4/5 109/4/5 400/4/5
f 400/4/5 109/4/5 108/4/5
f 456/4/5 181/4/5 453/4/5
f 453/4/5 181/4/5 180/4/5
f 419/2/5 438/2/5 416/2/5
f 416/2/5 438/2/5 437/2/5
f 439/2/5 163/2/5 436/2/5
f 436/2/5 163/2/5 162/2/5
f 525/4/5 241/4/5 522/4/5
f 522/4/5 241/4/5 240/4/5
f 242/4/5 43/4/5 243/4/5
f 243/4/5 43/4/5 42/4/5
f 504/4/6 503/4/6 222/4/6
f 222/4/6 503/4/6 223/4/6
f 339/4/6 338/4/6 29/4/6
f 29/4/6 338/4/6 30/4/6
f 394/4/6 393/4/6 82/4/6
f 82/4/6 393/4/6 83/4/6
f 442/4/6 441/4/6 168/4/6
f 168/4/6 441/4/6 169/4/6
f 406/2/6 405/2/6 56/2/6
f 56/2/6 405/2/6 57/2/6
f 55/2/6 54/2/6 136/2/6
f 136/2/6 54/2/6 137/2/6
f 396/4/6 82/4/6 86/4/6
f 86/4/6 82/4/6 87/4/6
f 444/4/6 168/4/6 172/4/6
f 172/4/6 168/4/6 173/4/6
f 389/4/6 388/4/6 384/4/6
f 384/4/6 388/4/6 382/4/6
f 425/4/6 424/4/6 140/4/6
f 140/4/6 424/4/6 141/4/6
f 363/4/6 383/4/6 343/4/6
f 343/4/6 383/4/6 340/4/6
f 342/4/6 341/4/6 325/4/6
f 325/4/6 341/4/6 322/4/6
f 324/4/6 323/4/6 11/4/6
f 11/4/6 323/4/6 12/4/6
f 10/4/6 9/4/6 33/4/6
f 33/4/6 9/4/6 34/4/6
f 32/4/6 31/4/6 60/4/6
f 60/4/6 31/4/6 61/4/6
f 621/6/6 446/6/6 365/6/6
f 365/6/6 446/6/6 362/6/6
f 364/2/6 363/2/6 345/2/6
f 345/2/6 363/2/6 343/2/6
f 558/1/6 557/1/6 256/1/6
f 256/1/6 557/1/6 257/1/6
f 255/3/6 254/3/6 260/3/6
f 260/3/6 254/3/6 261/3/6
f 259/3/6 258/3/6 264/3/6
f 264/3/6 258/3/6 265/3/6
f 318/2/6 324/2/6 22/2/6
f 22/2/6 324/2/6 36/2/6
f 263/3/6 262/3/6 272/3/6
f 272/3/6 262/3/6 273/3/6
f 35/2/6 32/2/6 63/2/6
f 63/2/6 32/2/6 60/2/6
f 271/3/6 270/3/6 282/3/6
f 282/3/6 270/3/6 283/3/6
f 62/4/6 58/4/6 64/4/6
f 64/4/6 58/4/6 144/4/6
f 281/3/6 280/3/6 292/3/6
f 292/3/6 280/3/6 293/3/6
f 89/5/6 88/5/6 91/5/6
f 91/5/6 88/5/6 190/5/6
f 291/3/6 290/3/6 300/3/6
f 300/3/6 290/3/6 301/3/6
f 299/1/6 298/1/6 312/1/6
f 312/1/6 298/1/6 313/1/6
f 368/4/6 367/4/6 348/4/6
f 348/4/6 367/4/6 346/4/6
f 314/4/6 347/4/6 1/4/6
f 1/4/6 347/4/6 15/4/6
f 14/2/6 13/2/6 329/2/6
f 329/2/6 13/2/6 326/2/6
f 564/4/6 263/4/6 275/4/6
f 275/4/6 263/4/6 272/4/6
f 274/4/6 271/4/6 285/4/6
f 285/4/6 271/4/6 282/4/6
f 65/5/6 64/5/6 93/5/6
f 93/5/6 64/5/6 94/5/6
f 371/4/6 370/4/6 317/4/6
f 317/4/6 370/4/6 314/4/6
f 316/3/6 315/3/6 3/3/6
f 3/3/6 315/3/6 4/3/6
f 2/4/6 1/4/6 331/4/6
f 331/4/6 1/4/6 328/4/6
f 644/4/6 639/4/6 126/4/6
f 126/4/6 639/4/6 127/4/6
f 374/4/6 373/4/6 351/4/6
f 351/4/6 373/4/6 349/4/6
f 350/4/6 317/4/6 18/4/6
f 18/4/6 317/4/6 2/4/6
f 592/5/6 591/5/6 581/5/6
f 581/5/6 591/5/6 578/5/6
f 580/5/6 579/5/6 574/5/6
f 574/5/6 579/5/6 571/5/6
f 573/5/6 572/5/6 567/5/6
f 567/5/6 572/5/6 564/5/6
f 267/5/6 266/5/6 278/5/6
f 278/5/6 266/5/6 279/5/6
f 69/5/6 50/5/6 96/5/6
f 96/5/6 50/5/6 97/5/6
f 277/5/6 276/5/6 288/5/6
f 288/5/6 276/5/6 289/5/6
f 287/5/6 286/5/6 308/5/6
f 308/5/6 286/5/6 309/5/6
f 119/5/6 117/5/6 645/5/6
f 645/5/6 117/5/6 639/5/6
f 645/5/6 644/5/6 130/5/6
f 130/5/6 644/5/6 131/5/6
f 129/4/6 128/4/6 152/4/6
f 152/4/6 128/4/6 125/4/6
f 377/5/6 351/5/6 354/5/6
f 354/5/6 351/5/6 352/5/6
f 353/2/6 16/2/6 356/2/6
f 356/2/6 16/2/6 330/2/6
f 320/2/6 319/2/6 7/2/6
f 7/2/6 319/2/6 8/2/6
f 39/2/6 19/2/6 48/2/6
f 48/2/6 19/2/6 49/2/6
f 47/4/6 46/4/6 52/4/6
f 52/4/6 46/4/6 66/4/6
f 68/5/6 67/5/6 99/5/6
f 99/5/6 67/5/6 100/5/6
f 98/5/6 91/5/6 114/5/6
f 114/5/6 91/5/6 115/5/6
f 450/6/6 378/6/6 381/6/6
f 381/6/6 378/6/6 379/6/6
f 380/2/6 354/2/6 357/2/6
f 357/2/6 354/2/6 355/2/6
f 332/2/6 344/2/6 335/2/6
f 335/2/6 344/2/6 324/2/6
f 335/2/6 321/2/6 26/2/6
f 26/2/6 321/2/6 6/2/6
f 26/2/6 5/2/6 21/2/6
f 21/2/6 5/2/6 22/2/6
f 38/2/6 37/2/6 72/2/6
f 72/2/6 37/2/6 73/2/6
f 161/5/6 105/5/6 199/5/6
f 199/5/6 105/5/6 98/5/6
f 111/4/6 399/4/6 103/4/6
f 103/4/6 399/4/6 104/4/6
f 183/4/6 452/4/6 178/4/6
f 178/4/6 452/4/6 179/4/6
f 391/4/6 390/4/6 387/4/6
f 387/4/6 390/4/6 385/4/6
f 431/4/6 430/4/6 157/4/6
f 157/4/6 430/4/6 158/4/6
f 386/4/6 380/4/6 359/4/6
f 359/4/6 380/4/6 357/4/6
f 358/4/6 333/4/6 337/4/6
f 337/4/6 333/4/6 334/4/6
f 336/4/6 335/4/6 25/4/6
f 25/4/6 335/4/6 26/4/6
f 24/4/6 23/4/6 41/4/6
f 41/4/6 23/4/6 20/4/6
f 40/4/6 38/4/6 75/4/6
f 75/4/6 38/4/6 72/4/6
f 74/4/6 70/4/6 107/4/6
f 107/4/6 70/4/6 68/4/6
f 402/4/6 401/4/6 110/4/6
f 110/4/6 401/4/6 111/4/6
f 455/4/6 454/4/6 182/4/6
f 182/4/6 454/4/6 183/4/6
f 418/2/6 417/2/6 78/2/6
f 78/2/6 417/2/6 79/2/6
f 77/2/6 76/2/6 164/2/6
f 164/2/6 76/2/6 165/2/6
f 524/4/6 523/4/6 242/4/6
f 242/4/6 523/4/6 243/4/6
f 361/4/6 360/4/6 44/4/6
f 44/4/6 360/4/6 45/4/6
