# Vengi binary mesh normalized for Tanks of Freedom II

mtllib ../../materials/vox_building.mtl
o barracks

v 2.8 0.1 2.9
v -2.2 0.1 2.9
v -2.2 0.1 3
v 2.8 0.1 3
v -1.3 0.4 2.8
v -1.4 0.4 2.8
v -1.4 0.4 2.9
v -1.3 0.4 2.9
v -1.5 0.4 2.8
v -1.6 0.4 2.8
v -1.6 0.4 2.9
v -1.5 0.4 2.9
v -1.7 0.4 2.8
v -1.8 0.4 2.8
v -1.8 0.4 2.9
v -1.7 0.4 2.9
v -1.9 0.4 2.8
v -2 0.4 2.8
v -2 0.4 2.9
v -1.9 0.4 2.9
v -1.3 0.2 2.8
v -2.1 0.2 2.8
v -2.1 0.2 2.9
v -1.3 0.2 2.9
v -1.1 0.7 2.8
v -2.2 0.7 2.8
v -2.2 0.7 2.9
v -1.1 0.7 2.9
v -1.1 0.2 2.7
v -1.2 0.2 2.7
v -1.2 0.2 2.8
v -1.1 0.2 2.8
v -1.3 0.2 2.7
v -1.2 0.2 2.9
v -1.3 1 2.7
v -1.4 1 2.7
v -1.4 1 2.8
v -1.3 1 2.8
v -1.4 0.2 2.7
v -1.5 0.2 2.7
v -1.5 0.2 2.8
v -1.4 0.2 2.8
v -1.5 1 2.7
v -1.6 1 2.7
v -1.6 1 2.8
v -1.5 1 2.8
v -1.6 0.2 2.7
v -1.7 0.2 2.7
v -1.7 0.2 2.8
v -1.6 0.2 2.8
v -1.7 1 2.7
v -1.8 1 2.7
v -1.8 1 2.8
v -1.7 1 2.8
v -1.8 0.2 2.7
v -1.9 0.2 2.7
v -1.9 0.2 2.8
v -1.8 0.2 2.8
v -1.9 1 2.7
v -2 1 2.7
v -2 1 2.8
v -1.9 1 2.8
v -2 0.2 2.7
v -2.2 0.2 2.7
v -2.2 0.2 2.8
v -2 0.2 2.8
v -1.3 0.6 2.6
v -1.4 0.6 2.6
v -1.4 0.6 2.7
v -1.3 0.6 2.7
v -1.5 0.6 2.6
v -1.6 0.6 2.6
v -1.6 0.6 2.7
v -1.5 0.6 2.7
v -1.7 0.6 2.6
v -1.8 0.6 2.6
v -1.8 0.6 2.7
v -1.7 0.6 2.7
v -1.9 0.6 2.6
v -2 0.6 2.6
v -2 0.6 2.7
v -1.9 0.6 2.7
v 2.4 0.1 2.5
v -1.1 0.1 2.5
v -1.1 0.1 2.9
v 2.4 0.1 2.9
v -2.2 0.1 2.5
v -2.2 0.1 2.7
v -1.1 0.1 2.7
v 2.7 0.9 2.4
v 2.6 0.9 2.4
v 2.6 0.9 2.9
v 2.7 0.9 2.9
v 2.6 0.1 2.4
v 2.4 0.1 2.4
v 2.6 0.1 2.9
v 1.8 0.1 2.4
v 0.4 0.1 2.4
v 0.4 0.1 2.5
v 1.8 0.1 2.5
v 0.2 0.1 2.4
v 0.2 0.1 2.5
v -0.5 0.1 2.4
v -1.5 0.1 2.4
v -1.5 0.1 2.5
v -0.5 0.1 2.5
v -1.9 0.1 2.4
v -1.9 0.1 2.5
v 2.8 0.1 2.3
v 2.7 0.1 2.3
v 2.7 0.1 2.8
v 2.8 0.1 2.8
v 2.6 0.1 2.3
v 2.7 0.1 2.9
v 1.8 0.1 2.3
v 1.4 0.1 2.3
v 1.4 0.1 2.4
v 1.2 0.1 2.3
v 0.8 0.1 2.3
v 0.8 0.1 2.4
v 1.2 0.1 2.4
v -0.7 0.1 2.3
v -1.9 0.1 2.3
v -0.7 0.1 2.4
v -2.2 0.1 2.3
v 2.1 0.1 2.2
v 1.8 0.1 2.2
v 2.1 0.1 2.5
v 1.5 0.1 2.2
v 1.4 0.1 2.2
v 1.5 0.1 2.3
v 1.2 0.1 2.2
v 0.8 0.1 2.2
v 0.5 0.1 2.2
v 0.2 0.1 2.2
v 0.5 0.1 2.4
v 0.1 0.1 2.2
v -0.5 0.1 2.2
v 0.1 0.1 2.5
v -0.7 0.1 2.2
v -0.8 0.1 2.2
v -0.8 0.1 2.3
v -2 0.1 2.2
v -2.2 0.1 2.2
v -2 0.1 2.3
v 2.5 0.1 2.1
v 2.4 0.1 2.1
v 2.5 0.1 2.4
v 2.1 0.1 2.1
v 1.5 0.1 2.1
v 1 0.1 2.1
v 1 0.1 2.2
v 0.5 0.1 2.1
v 0.3 0.1 2.1
v 0.3 0.1 2.2
v 0 0.1 2.1
v -0.2 0.1 2.1
v -0.2 0.1 2.2
v 0 0.1 2.2
v -1.2 0.1 2.1
v -1.3 0.1 2.1
v -1.3 0.1 2.3
v -1.2 0.1 2.3
v -1.4 0.1 2.1
v -1.8 0.1 2.1
v -1.8 0.1 2.3
v -1.4 0.1 2.3
v -2 0.1 2.1
v -2.2 0.1 2.1
v 2.5 0.1 2
v 2.1 0.1 2
v 1.9 0.1 2
v 1.9 0.1 2.2
v 0.1 0.1 2
v 0 0.1 2
v -0.1 0.1 2
v -0.2 0.1 2
v -0.1 0.1 2.1
v -1.4 0.1 2
v -1.5 0.1 2
v -1.5 0.1 2.1
v -1.8 0.1 2
v -2 0.1 2
v -2.1 0.1 2
v -2.1 0.1 2.1
v 2.8 0.1 1.9
v 2.6 0.1 1.9
v 2 0.1 1.9
v 1.9 0.1 1.9
v 2 0.1 2
v 1.8 0.1 1.9
v 1.5 0.1 1.9
v 1 0.1 1.9
v 0.9 0.1 1.9
v 0.8 0.1 1.9
v 0.9 0.1 2.2
v 0.5 0.1 1.9
v 0.3 0.1 1.9
v 0.2 0.1 1.9
v 0.1 0.1 1.9
v 0 0.1 1.9
v -0.1 0.1 1.9
v -0.4 0.1 1.9
v -0.8 0.1 1.9
v -0.4 0.1 2.2
v -1.2 0.1 1.9
v -1.5 0.1 1.9
v -1.8 0.1 1.9
v 2.8 0.1 1.8
v 2.6 0.1 1.8
v 2.5 0.1 1.8
v 2 0.1 1.8
v 1.2 0.1 1.8
v 1 0.1 1.8
v 1.2 0.1 1.9
v 0.9 0.1 1.8
v 0.7 0.1 1.8
v 0.5 0.1 1.8
v 0.7 0.1 1.9
v 0.3 0.1 1.8
v -0.9 0.1 1.8
v -1.2 0.1 1.8
v -0.9 0.1 1.9
v -1.3 0.1 1.8
v -1.4 0.1 1.8
v -1.5 0.1 1.8
v -1.8 0.1 1.8
v -2.1 0.1 1.8
v -2.2 0.1 1.8
v 3 0.1 1.7
v 2.9 0.1 1.7
v 2.9 0.1 2.9
v 3 0.1 2.9
v 2.8 0.5 1.7
v 2.7 0.5 1.7
v 2.7 0.5 2.9
v 2.8 0.5 2.9
v 2.7 0.9 1.7
v 2.6 0.9 1.7
v 2.6 0.9 2.2
v 2.7 0.9 2.2
v -0.1 0.1 1.7
v -0.2 0.1 1.7
v -0.4 0.1 1.7
v 2.9 0.1 1.6
v 2.8 0.1 1.6
v 2.9 0.1 3
v 2.7 0.1 1.6
v 2.7 0.1 1.7
v 2.8 0.1 1.7
v 2 0.1 1.6
v 2.7 0.1 1.8
v 1.6 0.1 1.6
v 1.2 0.1 1.6
v 1.6 0.1 1.9
v 0.9 0.1 1.6
v 0.7 0.1 1.6
v 0.3 0.1 1.6
v -0.4 0.1 1.6
v -0.9 0.1 1.6
v -1.5 0.1 1.6
v -1.8 0.1 1.6
v 2.4 0.1 1.5
v 2 0.1 1.5
v 2.4 0.1 1.6
v 1.6 0.1 1.5
v 0.4 0.1 1.5
v 0.3 0.1 1.5
v 0.4 0.1 1.6
v -0.3 0.1 1.5
v -0.4 0.1 1.5
v -0.3 0.1 1.7
v -1.6 0.1 1.5
v -1.8 0.1 1.5
v -1.6 0.1 1.6
v -1.9 0.1 1.5
v -2.2 0.1 1.5
v -1.9 0.1 1.8
v 0.1 0.1 1.4
v -0.1 0.1 1.4
v 0.1 0.1 1.1
v -0.1 0.1 1.1
v -1.9 0.1 1.1
v -2.2 0.1 1.1
v 2.2 0.1 0.9
v 1.9 0.1 0.9
v 1.9 0.1 1.5
v 2.2 0.1 1.5
v -1.8 0.1 0.9
v -1.9 0.1 0.9
v -2.2 0.1 0.9
v -1.8 0.1 0.7
v -2 0.1 0.7
v -2 0.1 0.9
v 2.6 0.1 0.6
v 2.3 0.1 0.6
v 2.3 0.1 0.7
v 2.6 0.1 0.7
v 2.2 0.1 0.6
v 2.3 0.1 1.5
v 1.8 0.1 0.6
v 1.7 0.1 0.6
v 1.7 0.1 1.5
v 1.8 0.1 1.5
v 1.3 0.1 0.6
v 1.3 0.1 0.7
v 1.7 0.1 0.7
v 0.6 0.1 0.6
v 0.3 0.1 0.6
v 0.3 0.1 0.7
v 0.6 0.1 0.7
v 0.1 0.1 0.6
v -0.2 0.1 0.6
v -0.3 0.1 0.6
v -0.7 0.1 0.6
v -0.7 0.1 0.7
v -0.3 0.1 0.7
v -1.4 0.1 0.6
v -1.7 0.1 0.6
v -1.7 0.1 0.7
v -1.4 0.1 0.7
v -1.8 0.1 0.6
v -1.7 0.1 1.5
v 2.2 0.1 0.5
v 1.9 0.1 0.5
v 1.8 0.1 0.5
v 0.2 0.1 0.5
v 0.1 0.1 0.5
v 0.2 0.1 0.6
v -0.1 0.1 0.5
v -0.2 0.1 0.5
v -1.8 0.1 0.5
v -2 0.1 0.5
v -2.2 0.1 0.5
v 2.6 0.3 -0.1
v 2.5 0.3 -0.1
v 2.5 0.3 0.3
v 2.6 0.3 0.3
v 1.5 0.3 -0.1
v 1.4 0.3 -0.1
v 1.4 0.3 0.3
v 1.5 0.3 0.3
v 0.6 0.3 -0.1
v 0.5 0.3 -0.1
v 0.5 0.3 0.3
v 0.6 0.3 0.3
v -0.5 0.3 -0.1
v -0.6 0.3 -0.1
v -0.6 0.3 0.3
v -0.5 0.3 0.3
v -1.4 0.3 -0.1
v -1.5 0.3 -0.1
v -1.5 0.3 0.3
v -1.4 0.3 0.3
v 2.6 0.3 -1.1
v 2.5 0.3 -1.1
v 2.5 0.3 -0.7
v 2.6 0.3 -0.7
v 1.5 0.3 -1.1
v 1.4 0.3 -1.1
v 1.4 0.3 -0.7
v 1.5 0.3 -0.7
v 0.6 0.3 -1.1
v 0.5 0.3 -1.1
v 0.5 0.3 -0.7
v 0.6 0.3 -0.7
v -0.5 0.3 -1.1
v -0.6 0.3 -1.1
v -0.6 0.3 -0.7
v -0.5 0.3 -0.7
v -1.4 0.3 -1.1
v -1.5 0.3 -1.1
v -1.5 0.3 -0.7
v -1.4 0.3 -0.7
v 2.6 0.3 -2.1
v 2.5 0.3 -2.1
v 2.5 0.3 -1.7
v 2.6 0.3 -1.7
v 1.5 0.3 -2.1
v 1.4 0.3 -2.1
v 1.4 0.3 -1.7
v 1.5 0.3 -1.7
v 0.6 0.3 -2.1
v 0.5 0.3 -2.1
v 0.5 0.3 -1.7
v 0.6 0.3 -1.7
v -0.5 0.3 -2.1
v -0.6 0.3 -2.1
v -0.6 0.3 -1.7
v -0.5 0.3 -1.7
v -1.4 0.3 -2.1
v -1.5 0.3 -2.1
v -1.5 0.3 -1.7
v -1.4 0.3 -1.7
v 2.7 0.1 -2.2
v 2.6 0.1 -2.2
v 2.7 0.1 0.7
v 2.7 1 -2.2
v 2.6 1 -2.2
v 2.6 1 0.7
v 2.7 1 0.7
v 2.6 1.1 -2.2
v 2.5 1.1 -2.2
v 2.5 1.1 0.7
v 2.6 1.1 0.7
v 2.5 1.2 -2.2
v 2.4 1.2 -2.2
v 2.4 1.2 0.7
v 2.5 1.2 0.7
v 2.4 1.3 -2.2
v 1.6 1.3 -2.2
v 1.6 1.3 0.7
v 2.4 1.3 0.7
v 1.6 1.2 -2.2
v 1.5 1.2 -2.2
v 1.5 1.2 0.7
v 1.6 1.2 0.7
v 1.5 1.1 -2.2
v 1.4 1.1 -2.2
v 1.4 1.1 0.7
v 1.5 1.1 0.7
v 1.4 0.1 -2.2
v 1.3 0.1 -2.2
v 1.4 0.1 0.6
v 1.4 1 -2.2
v 1.3 1 -2.2
v 1.3 1 0.7
v 1.4 1 0.7
v 0.7 0.1 -2.2
v 0.6 0.1 -2.2
v 0.7 0.1 0.7
v 0.7 1 -2.2
v 0.6 1 -2.2
v 0.6 1 0.7
v 0.7 1 0.7
v 0.6 1.1 -2.2
v 0.5 1.1 -2.2
v 0.5 1.1 0.7
v 0.6 1.1 0.7
v 0.5 1.2 -2.2
v 0.4 1.2 -2.2
v 0.4 1.2 0.7
v 0.5 1.2 0.7
v 0.4 1.3 -2.2
v -0.4 1.3 -2.2
v -0.4 1.3 0.7
v 0.4 1.3 0.7
v -0.4 1.2 -2.2
v -0.5 1.2 -2.2
v -0.5 1.2 0.7
v -0.4 1.2 0.7
v -0.5 1.1 -2.2
v -0.6 1.1 -2.2
v -0.6 1.1 0.7
v -0.5 1.1 0.7
v -0.6 0.1 -2.2
v -0.7 0.1 -2.2
v -0.6 0.1 0.6
v -0.6 1 -2.2
v -0.7 1 -2.2
v -0.7 1 0.7
v -0.6 1 0.7
v -1.3 0.1 -2.2
v -1.4 0.1 -2.2
v -1.3 0.1 0.7
v -1.3 1 -2.2
v -1.4 1 -2.2
v -1.4 1 0.7
v -1.3 1 0.7
v -1.4 1.1 -2.2
v -1.5 1.1 -2.2
v -1.5 1.1 0.7
v -1.4 1.1 0.7
v -1.5 1.2 -2.2
v -1.6 1.2 -2.2
v -1.6 1.2 0.7
v -1.5 1.2 0.7
v -1.6 1.3 -2.2
v -2.2 1.3 -2.2
v -2.2 1.3 0.7
v -1.6 1.3 0.7
v -1.2 0.6 2.8
v -1.2 0.6 2.9
v -1.3 0.6 2.9
v -1.3 0.6 2.8
v -1.3 0.3 2.8
v -1.3 0.3 2.9
v -1.4 0.3 2.9
v -1.4 0.3 2.8
v -1.3 0.5 2.8
v -1.3 0.5 2.9
v -1.4 0.5 2.9
v -1.4 0.5 2.8
v -1.4 0.6 2.8
v -1.4 0.6 2.9
v -1.5 0.6 2.9
v -1.5 0.6 2.8
v -1.5 0.3 2.8
v -1.5 0.3 2.9
v -1.6 0.3 2.9
v -1.6 0.3 2.8
v -1.5 0.5 2.8
v -1.5 0.5 2.9
v -1.6 0.5 2.9
v -1.6 0.5 2.8
v -1.6 0.6 2.8
v -1.6 0.6 2.9
v -1.7 0.6 2.9
v -1.7 0.6 2.8
v -1.7 0.3 2.8
v -1.7 0.3 2.9
v -1.8 0.3 2.9
v -1.8 0.3 2.8
v -1.7 0.5 2.8
v -1.7 0.5 2.9
v -1.8 0.5 2.9
v -1.8 0.5 2.8
v -1.8 0.6 2.8
v -1.8 0.6 2.9
v -1.9 0.6 2.9
v -1.9 0.6 2.8
v -1.9 0.3 2.8
v -1.9 0.3 2.9
v -2 0.3 2.9
v -2 0.3 2.8
v -1.9 0.5 2.8
v -1.9 0.5 2.9
v -2 0.5 2.9
v -2 0.5 2.8
v -2 0.6 2.8
v -2 0.6 2.9
v -2.1 0.6 2.9
v -2.1 0.6 2.8
v -1.3 0.4 2.6
v -1.3 0.4 2.7
v -1.4 0.4 2.7
v -1.4 0.4 2.6
v -1.5 0.4 2.6
v -1.5 0.4 2.7
v -1.6 0.4 2.7
v -1.6 0.4 2.6
v -1.7 0.4 2.6
v -1.7 0.4 2.7
v -1.8 0.4 2.7
v -1.8 0.4 2.6
v -1.9 0.4 2.6
v -1.9 0.4 2.7
v -2 0.4 2.7
v -2 0.4 2.6
v 2.4 0 2.5
v 2.4 0 3
v -2.2 0 3
v -2.2 0 2.5
v 2.7 0.2 2.4
v 2.7 0.2 2.9
v 2.6 0.2 2.9
v 2.6 0.2 2.4
v 2.6 0 2.4
v 2.6 0 3
v 2.4 0 2.4
v 1.8 0 2.4
v 1.8 0 2.5
v 0.4 0 2.5
v 0.4 0 2.4
v 0.2 0 2.5
v 0.2 0 2.4
v -0.5 0 2.4
v -0.5 0 2.5
v -1.5 0 2.5
v -1.5 0 2.4
v -1.9 0 2.5
v -1.9 0 2.4
v 2.8 0 2.3
v 2.8 0 3
v 2.6 0 2.3
v 1.8 0 2.3
v 1.4 0 2.4
v 1.4 0 2.3
v 1.2 0 2.3
v 1.2 0 2.4
v 0.8 0 2.4
v 0.8 0 2.3
v -0.7 0 2.3
v -0.7 0 2.4
v -1.9 0 2.3
v -2.2 0 2.3
v 2.1 0 2.2
v 2.1 0 2.5
v 1.8 0 2.2
v 1.5 0 2.2
v 1.5 0 2.3
v 1.4 0 2.2
v 1.2 0 2.2
v 0.8 0 2.2
v 0.5 0 2.2
v 0.5 0 2.4
v 0.2 0 2.2
v 0.1 0 2.2
v 0.1 0 2.5
v -0.5 0 2.2
v -0.7 0 2.2
v -0.8 0 2.3
v -0.8 0 2.2
v -2 0 2.2
v -2 0 2.3
v -2.2 0 2.2
v 2.5 0 2.1
v 2.5 0 2.4
v 2.4 0 2.1
v 2.1 0 2.1
v 1.5 0 2.1
v 1 0 2.2
v 1 0 2.1
v 0.5 0 2.1
v 0.3 0 2.2
v 0.3 0 2.1
v 0 0 2.1
v 0 0 2.2
v -0.2 0 2.2
v -0.2 0 2.1
v -1.2 0 2.1
v -1.2 0 2.3
v -1.3 0 2.3
v -1.3 0 2.1
v -1.4 0 2.1
v -1.4 0 2.3
v -1.8 0 2.3
v -1.8 0 2.1
v -2 0 2.1
v -2.2 0 2.1
v 2.5 0 2
v 2.1 0 2
v 1.9 0 2.2
v 1.9 0 2
v 0.1 0 2
v 0 0 2
v -0.1 0 2
v -0.1 0 2.1
v -0.2 0 2
v -1.4 0 2
v -1.5 0 2.1
v -1.5 0 2
v -1.8 0 2
v -2 0 2
v -2.1 0 2.1
v -2.1 0 2
v 2.8 0 1.9
v 2.6 0 1.9
v 2 0 1.9
v 2 0 2
v 1.9 0 1.9
v 1.8 0 1.9
v 1.5 0 1.9
v 1 0 1.9
v 0.9 0 1.9
v 0.9 0 2.2
v 0.8 0 1.9
v 0.5 0 1.9
v 0.3 0 1.9
v 0.2 0 1.9
v 0.1 0 1.9
v 0 0 1.9
v -0.1 0 1.9
v -0.4 0 1.9
v -0.4 0 2.2
v -0.8 0 1.9
v -1.2 0 1.9
v -1.5 0 1.9
v -1.8 0 1.9
v 2.8 0.4 1.8
v 2.8 0.4 2.8
v 2.7 0.4 2.8
v 2.7 0.4 1.8
v 2.6 0 1.8
v 2.5 0 1.8
v 2 0 1.8
v 1.2 0 1.8
v 1.2 0 1.9
v 1 0 1.8
v 0.9 0 1.8
v 0.7 0 1.8
v 0.7 0 1.9
v 0.5 0 1.8
v 0.3 0 1.8
v -0.9 0 1.8
v -0.9 0 1.9
v -1.2 0 1.8
v -1.3 0 1.8
v -1.4 0 1.8
v -1.5 0 1.8
v -1.8 0 1.8
v -2.1 0 1.8
v -2.2 0 1.8
v 3 0 1.7
v 3 0 2.9
v 2.9 0 2.9
v 2.9 0 1.7
v 2.7 0.2 1.7
v 2.7 0.2 2.2
v 2.6 0.2 2.2
v 2.6 0.2 1.7
v -0.1 0 1.7
v -0.2 0 1.7
v -0.4 0 1.7
v 2.9 0 1.6
v 2.9 0 3
v 2.8 0 1.6
v 2.6 0 1.6
v 2 0 1.6
v 1.6 0 1.6
v 1.6 0 1.9
v 1.2 0 1.6
v 0.9 0 1.6
v 0.7 0 1.6
v 0.3 0 1.6
v -0.4 0 1.6
v -0.9 0 1.6
v -1.5 0 1.6
v -1.8 0 1.6
v 2.4 0 1.5
v 2.4 0 1.6
v 2 0 1.5
v 1.6 0 1.5
v 0.4 0 1.5
v 0.4 0 1.6
v 0.3 0 1.5
v -0.3 0 1.5
v -0.3 0 1.7
v -0.4 0 1.5
v -1.6 0 1.5
v -1.6 0 1.6
v -1.8 0 1.5
v -1.9 0 1.5
v -1.9 0 1.8
v -2.2 0 1.5
v 0.1 0 1.4
v -0.1 0 1.4
v 0.1 0 1.1
v -0.1 0 1.1
v -1.9 0 1.1
v -2.2 0 1.1
v 2.2 0 0.9
v 2.2 0 1.5
v 1.9 0 1.5
v 1.9 0 0.9
v -1.8 0 0.9
v -1.9 0 0.9
v -2.2 0 0.9
v -1.8 0 0.7
v -2 0 0.9
v -2 0 0.7
v 2.6 0.9 0.6
v 2.6 0.9 0.7
v 2.5 0.9 0.7
v 2.5 0.9 0.6
v 2.5 1 0.6
v 2.5 1 0.7
v 2.4 1 0.7
v 2.4 1 0.6
v 2.6 0 0.6
v 2.6 0 0.7
v 2.3 0 0.7
v 2.3 0 0.6
v 2.4 1.1 0.6
v 2.4 1.1 0.7
v 2.3 1.1 0.7
v 2.3 1.1 0.6
v 2.3 0 1.5
v 2.2 0 0.6
v 1.8 0 0.6
v 1.8 0 1.5
v 1.7 0 1.5
v 1.7 0 0.6
v 2.3 1.2 0.6
v 2.3 1.2 0.7
v 1.7 1.2 0.7
v 1.7 1.2 0.6
v 1.7 1.1 0.6
v 1.7 1.1 0.7
v 1.6 1.1 0.7
v 1.6 1.1 0.6
v 1.6 1 0.6
v 1.6 1 0.7
v 1.5 1 0.7
v 1.5 1 0.6
v 1.7 0 0.7
v 1.3 0 0.7
v 1.3 0 0.6
v 1.5 0.9 0.6
v 1.5 0.9 0.7
v 1.3 0.9 0.7
v 1.3 0.9 0.6
v 0.6 0.9 0.6
v 0.6 0.9 0.7
v 0.5 0.9 0.7
v 0.5 0.9 0.6
v 0.5 1 0.6
v 0.5 1 0.7
v 0.4 1 0.7
v 0.4 1 0.6
v 0.6 0 0.6
v 0.6 0 0.7
v 0.3 0 0.7
v 0.3 0 0.6
v 0.4 1.1 0.6
v 0.4 1.1 0.7
v 0.3 1.1 0.7
v 0.3 1.1 0.6
v 0.1 0 0.6
v -0.2 0 0.6
v -0.3 0 0.6
v 0.3 1.2 0.6
v 0.3 1.2 0.7
v -0.3 1.2 0.7
v -0.3 1.2 0.6
v -0.3 1.1 0.6
v -0.3 1.1 0.7
v -0.4 1.1 0.7
v -0.4 1.1 0.6
v -0.4 1 0.6
v -0.4 1 0.7
v -0.5 1 0.7
v -0.5 1 0.6
v -0.3 0 0.7
v -0.7 0 0.7
v -0.7 0 0.6
v -0.5 0.9 0.6
v -0.5 0.9 0.7
v -0.7 0.9 0.7
v -0.7 0.9 0.6
v -1.4 0.9 0.6
v -1.4 0.9 0.7
v -1.5 0.9 0.7
v -1.5 0.9 0.6
v -1.5 1 0.6
v -1.5 1 0.7
v -1.6 1 0.7
v -1.6 1 0.6
v -1.4 0 0.6
v -1.4 0 0.7
v -1.7 0 0.7
v -1.7 0 0.6
v -1.6 1.1 0.6
v -1.6 1.1 0.7
v -1.7 1.1 0.7
v -1.7 1.1 0.6
v -1.7 0 1.5
v -1.8 0 0.6
v -1.7 1.2 0.6
v -1.7 1.2 0.7
v -2.2 1.2 0.7
v -2.2 1.2 0.6
v 2.3 0 0.5
v 2.2 0 0.5
v 2.2 0.7 0.5
v 2.2 0.7 0.6
v 1.8 0.7 0.6
v 1.8 0.7 0.5
v 1.8 0 0.5
v 1.7 0 0.5
v 0.3 0 0.5
v 0.2 0 0.6
v 0.2 0 0.5
v 0.2 0.7 0.5
v 0.2 0.7 0.6
v -0.2 0.7 0.6
v -0.2 0.7 0.5
v -0.2 0 0.5
v -0.3 0 0.5
v -1.7 0 0.5
v -1.8 0 0.5
v -1.8 0.7 0.5
v -1.8 0.7 0.6
v -2.2 0.7 0.6
v -2.2 0.7 0.5
v 2.2 0 0.4
v 1.9 0 0.4
v 1.8 0 0.4
v 0.2 0 0.4
v 0.1 0 0.4
v -0.1 0 0.4
v -0.2 0 0.4
v -1.8 0 0.4
v -2 0 0.4
v -2.2 0 0.4
v 2.6 0.7 -0.1
v 2.6 0.7 0.3
v 2.5 0.7 0.3
v 2.5 0.7 -0.1
v 1.5 0.7 -0.1
v 1.5 0.7 0.3
v 1.4 0.7 0.3
v 1.4 0.7 -0.1
v 0.6 0.7 -0.1
v 0.6 0.7 0.3
v 0.5 0.7 0.3
v 0.5 0.7 -0.1
v -0.5 0.7 -0.1
v -0.5 0.7 0.3
v -0.6 0.7 0.3
v -0.6 0.7 -0.1
v -1.4 0.7 -0.1
v -1.4 0.7 0.3
v -1.5 0.7 0.3
v -1.5 0.7 -0.1
v 2.6 0.7 -1.1
v 2.6 0.7 -0.7
v 2.5 0.7 -0.7
v 2.5 0.7 -1.1
v 1.5 0.7 -1.1
v 1.5 0.7 -0.7
v 1.4 0.7 -0.7
v 1.4 0.7 -1.1
v 0.6 0.7 -1.1
v 0.6 0.7 -0.7
v 0.5 0.7 -0.7
v 0.5 0.7 -1.1
v -0.5 0.7 -1.1
v -0.5 0.7 -0.7
v -0.6 0.7 -0.7
v -0.6 0.7 -1.1
v -1.4 0.7 -1.1
v -1.4 0.7 -0.7
v -1.5 0.7 -0.7
v -1.5 0.7 -1.1
v 2.6 0.7 -2.1
v 2.6 0.7 -1.7
v 2.5 0.7 -1.7
v 2.5 0.7 -2.1
v 1.5 0.7 -2.1
v 1.5 0.7 -1.7
v 1.4 0.7 -1.7
v 1.4 0.7 -2.1
v 0.6 0.7 -2.1
v 0.6 0.7 -1.7
v 0.5 0.7 -1.7
v 0.5 0.7 -2.1
v -0.5 0.7 -2.1
v -0.5 0.7 -1.7
v -0.6 0.7 -1.7
v -0.6 0.7 -2.1
v -1.4 0.7 -2.1
v -1.4 0.7 -1.7
v -1.5 0.7 -1.7
v -1.5 0.7 -2.1
v 2.7 0 -2.2
v 2.7 0 0.7
v 2.6 0 -2.2
v 2.7 0.9 -2.2
v 2.7 0.9 0.7
v 2.6 0.9 -2.2
v 2.3 0 -2.2
v 2.2 0 -2.2
v 1.8 0 -2.2
v 1.7 0 -2.2
v 1.4 0 0.6
v 1.4 0 -2.2
v 1.3 0 -2.2
v 1.4 0.9 -2.2
v 1.4 0.9 0.6
v 1.3 0.9 -2.2
v 0.7 0 -2.2
v 0.7 0 0.7
v 0.6 0 -2.2
v 0.7 0.9 -2.2
v 0.7 0.9 0.7
v 0.6 0.9 -2.2
v 0.3 0 -2.2
v 0.2 0 -2.2
v -0.2 0 -2.2
v -0.3 0 -2.2
v -0.6 0 0.6
v -0.6 0 -2.2
v -0.7 0 -2.2
v -0.6 0.9 -2.2
v -0.6 0.9 0.6
v -0.7 0.9 -2.2
v -1.3 0 -2.2
v -1.3 0 0.7
v -1.4 0 -2.2
v -1.3 0.9 -2.2
v -1.3 0.9 0.7
v -1.4 0.9 -2.2
v -1.7 0 -2.2
v -1.8 0 -2.2
v -2.2 0 -2.2
v 2.7 0.2 2.8
v -2.2 0.1 2.8
v 2.7 0.2 1.8
v 1.4 0.2 0.4
v 1.4 0.2 -2.2
v 1.4 0.1 0.4
v -0.6 0.2 0.4
v -0.6 0.2 -2.2
v -0.6 0.1 0.4
v 2.6 0.3 2.7
v 2.6 0.3 2.4
v 2.6 0.2 2.7
v 2.6 0.3 2
v 2.6 0.3 1.7
v 2.6 0.2 2
v 1.4 0.3 -0.2
v 1.4 0.2 -0.2
v 1.4 0.2 0.3
v -0.6 0.3 -0.2
v -0.6 0.2 -0.2
v -0.6 0.2 0.3
v 1.4 0.3 -1.2
v 1.4 0.2 -1.2
v 1.4 0.2 -0.7
v -0.6 0.3 -1.2
v -0.6 0.2 -1.2
v -0.6 0.2 -0.7
v 1.4 0.3 -2.2
v 1.4 0.2 -1.7
v -0.6 0.3 -2.2
v -0.6 0.2 -1.7
v 2.6 0.5 2.8
v 2.6 0.5 2.7
v 2.6 0.2 2.8
v 2.6 0.5 2.6
v 2.6 0.5 2.4
v 2.6 0.3 2.6
v 2.7 0.5 2.4
v 2.7 0.5 2.2
v 2.7 0.4 2.2
v 2.7 0.4 2.4
v 2.6 0.5 2.1
v 2.6 0.5 2
v 2.6 0.2 2.1
v 2.6 0.5 1.9
v 2.6 0.5 1.7
v 2.6 0.3 1.9
v 2.6 0.7 2.8
v 2.6 0.7 2.7
v 2.6 0.7 2.6
v 2.6 0.7 2.5
v 2.6 0.5 2.5
v 2.6 0.7 2.1
v 2.6 0.7 2
v 2.6 0.7 1.9
v 2.6 0.7 1.8
v 2.6 0.5 1.8
v 2.6 0.8 2.7
v 2.6 0.8 2.6
v 2.6 0.8 2
v 2.6 0.8 1.9
v 1.4 0.8 0.4
v 1.4 0.8 0.3
v -0.6 0.8 0.4
v -0.6 0.8 0.3
v 1.4 0.8 -0.1
v -0.6 0.8 -0.1
v 1.4 0.8 -0.2
v -0.6 0.8 -0.2
v 1.4 0.8 -0.6
v 1.4 0.8 -0.7
v 1.4 0.2 -0.6
v -0.6 0.8 -0.6
v -0.6 0.8 -0.7
v -0.6 0.2 -0.6
v 1.4 0.8 -1.1
v -0.6 0.8 -1.1
v 1.4 0.8 -1.2
v -0.6 0.8 -1.2
v 1.4 0.8 -1.6
v 1.4 0.8 -1.7
v 1.4 0.2 -1.6
v -0.6 0.8 -1.6
v -0.6 0.8 -1.7
v -0.6 0.2 -1.6
v 1.4 0.8 -2.1
v -0.6 0.8 -2.1
v 1.4 0.8 -2.2
v -0.6 0.8 -2.2
v 2.6 0.9 2.8
v 2.6 0.9 2.7
v 2.6 0.9 2.6
v 2.6 0.9 2.5
v 2.6 0.9 2.1
v 2.6 0.9 2
v 2.6 0.9 1.9
v 2.6 0.9 1.8
v 1.4 0.9 0.5
v 1.4 0.1 0.5
v -0.6 0.9 0.5
v -0.6 0.1 0.5
v 1.4 0.9 0.4
v -0.6 0.9 0.4
v 1.4 0.9 -0.2
v -0.6 0.9 -0.2
v 1.4 0.9 -0.6
v -0.6 0.9 -0.6
v 1.4 0.9 -1.2
v -0.6 0.9 -1.2
v 1.4 0.9 -1.6
v -0.6 0.9 -1.6
v -1.1 0.1 2.8
v 2.6 0.2 0.4
v 2.6 0.1 0.4
v 2.6 0.2 -2.2
v 0.6 0.2 0.4
v 0.6 0.1 0.4
v 0.6 0.2 -2.2
v -1.4 0.2 0.4
v -1.4 0.1 0.4
v -1.4 0.2 -2.2
v 2.7 0.3 2.7
v 2.7 0.2 2.7
v 2.7 0.3 2.4
v 2.7 0.3 2
v 2.7 0.2 2
v 2.7 0.3 1.8
v 2.6 0.2 0.3
v 2.6 0.2 -0.2
v 2.6 0.3 -0.2
v 0.6 0.2 0.3
v 0.6 0.2 -0.2
v 0.6 0.3 -0.2
v -1.4 0.2 0.3
v -1.4 0.2 -0.2
v -1.4 0.3 -0.2
v 2.6 0.2 -0.7
v 2.6 0.2 -1.2
v 2.6 0.3 -1.2
v 0.6 0.2 -0.7
v 0.6 0.2 -1.2
v 0.6 0.3 -1.2
v -1.4 0.2 -0.7
v -1.4 0.2 -1.2
v -1.4 0.3 -1.2
v 2.6 0.2 -1.7
v 2.6 0.3 -2.2
v 0.6 0.2 -1.7
v 0.6 0.3 -2.2
v -1.4 0.2 -1.7
v -1.4 0.3 -2.2
v 2.7 0.4 2.7
v 2.7 0.3 2.6
v 2.7 0.4 2.6
v 2.7 0.4 2
v 2.7 0.3 1.9
v 2.7 0.4 1.9
v 2.8 0.5 2.8
v 2.8 0.5 1.8
v 2.7 0.7 2.8
v 2.7 0.5 2.8
v 2.7 0.5 2.5
v 2.7 0.7 2.5
v 2.7 0.7 2.1
v 2.7 0.5 2.1
v 2.7 0.5 1.8
v 2.7 0.7 1.8
v 2.7 0.8 2.7
v 2.7 0.7 2.7
v 2.7 0.7 2.6
v 2.7 0.8 2.6
v 2.7 0.8 2
v 2.7 0.7 2
v 2.7 0.7 1.9
v 2.7 0.8 1.9
v 2.6 0.8 0.4
v 2.6 0.8 0.3
v 0.6 0.8 0.4
v 0.6 0.8 0.3
v -1.4 0.8 0.4
v -1.4 0.8 0.3
v 2.6 0.8 -0.1
v 0.6 0.8 -0.1
v -1.4 0.8 -0.1
v 2.6 0.8 -0.2
v 0.6 0.8 -0.2
v -1.4 0.8 -0.2
v 2.6 0.8 -0.6
v 2.6 0.2 -0.6
v 2.6 0.8 -0.7
v 0.6 0.8 -0.6
v 0.6 0.2 -0.6
v 0.6 0.8 -0.7
v -1.4 0.8 -0.6
v -1.4 0.2 -0.6
v -1.4 0.8 -0.7
v 2.6 0.8 -1.1
v 0.6 0.8 -1.1
v -1.4 0.8 -1.1
v 2.6 0.8 -1.2
v 0.6 0.8 -1.2
v -1.4 0.8 -1.2
v 2.6 0.8 -1.6
v 2.6 0.2 -1.6
v 2.6 0.8 -1.7
v 0.6 0.8 -1.6
v 0.6 0.2 -1.6
v 0.6 0.8 -1.7
v -1.4 0.8 -1.6
v -1.4 0.2 -1.6
v -1.4 0.8 -1.7
v 2.6 0.8 -2.1
v 0.6 0.8 -2.1
v -1.4 0.8 -2.1
v 2.6 0.8 -2.2
v 0.6 0.8 -2.2
v -1.4 0.8 -2.2
v 2.7 0.9 2.8
v 2.7 0.9 2.7
v 2.7 0.9 2.6
v 2.7 0.9 2.5
v 2.7 0.9 2.1
v 2.7 0.9 2
v 2.7 0.9 1.9
v 2.7 0.9 1.8
v 2.6 0.1 0.5
v 2.6 0.9 0.5
v 0.6 0.1 0.5
v 0.6 0.9 0.5
v -1.4 0.1 0.5
v -1.4 0.9 0.5
v 2.6 0.9 0.4
v 0.6 0.9 0.4
v -1.4 0.9 0.4
v 2.6 0.9 -0.2
v 0.6 0.9 -0.2
v -1.4 0.9 -0.2
v 2.6 0.9 -0.6
v 0.6 0.9 -0.6
v -1.4 0.9 -0.6
v 2.6 0.9 -1.2
v 0.6 0.9 -1.2
v -1.4 0.9 -1.2
v 2.6 0.9 -1.6
v 0.6 0.9 -1.6
v -1.4 0.9 -1.6
v -1.2 0.7 2.8
v -1.3 0.7 2.8
v -1.5 0.7 2.8
v -1.4 0.7 2.8
v -1.7 0.7 2.8
v -1.6 0.7 2.8
v -1.9 0.7 2.8
v -1.8 0.7 2.8
v -2.2 0.6 2.8
v -2 0.7 2.8
v 2.5 0.1 0.6
v 2.3 0.9 0.6
v 2.3 0.8 0.6
v 2.2 0.8 0.6
v 1.7 0.7 0.6
v 1.7 0.8 0.6
v 1.5 0.1 0.6
v 1.5 0.8 0.6
v 0.5 0.1 0.6
v 0.3 0.9 0.6
v 0.3 0.8 0.6
v 0.2 0.8 0.6
v -0.3 0.7 0.6
v -0.3 0.8 0.6
v -0.5 0.1 0.6
v -0.5 0.8 0.6
v -1.1 0.2 2.9
v -1.2 0.7 2.9
v -1.5 0.1 0.6
v -1.7 0.9 0.6
v -1.7 0.8 0.6
v -1.8 0.8 0.6
v -2.2 0.2 2.9
v -2.2 0.6 2.9
v -2.2 0.8 0.6
v -2.2 0.9 0.6
v -2.2 1 0.6
v -2.2 1.1 0.6
v -2.4 0.1 2.8
v -2.9 0.1 2.8
v -2.9 0.1 3
v -2.4 0.1 3
v -2.4 0.1 2.5
v -2.5 0.1 2.5
v -2.5 0.1 2.7
v -2.4 0.1 2.7
v -2.4 0.4 2.4
v -2.5 0.4 2.4
v -2.5 0.4 2.8
v -2.4 0.4 2.8
v -2.5 0.5 2.4
v -2.6 0.5 2.4
v -2.6 0.5 2.8
v -2.5 0.5 2.8
v -2.6 0.4 2.4
v -2.7 0.4 2.4
v -2.7 0.4 2.8
v -2.6 0.4 2.8
v -2.6 0.5 2.3
v -2.7 0.5 2.3
v -2.7 0.5 2.4
v -2.4 0.5 2.2
v -2.5 0.5 2.2
v -2.4 0.5 2.4
v -2.5 0.1 2.2
v -2.6 0.1 2.2
v -2.6 0.1 2.8
v -2.5 0.1 2.8
v -2.6 0.5 2.2
v -2.7 0.1 2.2
v -2.7 0.1 2.7
v -2.6 0.1 2.7
v -2.6 0.4 2.2
v -2.7 0.4 2.2
v -2.7 0.4 2.3
v -2.6 0.4 2.3
v -2.9 0.1 2.2
v -2.7 0.1 2.8
v -2.6 0.5 2.1
v -2.7 0.5 2.1
v -2.7 0.5 2.2
v -2.7 0.1 2.1
v -2.8 0.1 2.1
v -2.8 0.1 2.2
v -2.5 0.5 2
v -2.6 0.5 2
v -2.2 0.1 1.9
v -2.5 0.1 1.9
v -2.6 0.1 1.9
v -2.7 0.1 1.9
v -2.4 0.4 1.8
v -2.5 0.4 1.8
v -2.5 0.4 2.2
v -2.4 0.4 2.2
v -2.5 0.1 1.8
v -2.6 0.1 1.8
v -2.6 0.4 1.8
v -2.6 0.4 2
v -2.5 0.4 2
v -2.7 0.4 1.8
v -2.7 0.4 2.1
v -2.6 0.4 2.1
v -2.9 0.1 1.7
v -3 0.1 1.7
v -3 0.1 2.9
v -2.9 0.1 2.9
v -2.4 0.1 1.6
v -2.7 0.1 1.6
v -2.7 0.1 1.8
v -2.4 0.1 1.8
v -2.8 0.1 1.6
v -2.9 0.1 1.6
v -2.3 0.1 1.5
v -2.4 0.1 1.5
v -2.4 0.1 1.9
v -2.3 0.1 1.9
v -2.2 0.1 0.6
v -2.3 0.1 0.6
v -2.7 0.1 0.6
v -2.7 0.1 0.7
v -2.3 0.1 0.7
v -2.5 0.3 -0.1
v -2.6 0.3 -0.1
v -2.6 0.3 0.3
v -2.5 0.3 0.3
v -2.5 0.3 -1.1
v -2.6 0.3 -1.1
v -2.6 0.3 -0.7
v -2.5 0.3 -0.7
v -2.5 0.3 -2.1
v -2.6 0.3 -2.1
v -2.6 0.3 -1.7
v -2.5 0.3 -1.7
v -2.4 1.3 -2.2
v -2.4 1.3 0.7
v -2.4 1.2 -2.2
v -2.5 1.2 -2.2
v -2.5 1.2 0.7
v -2.4 1.2 0.7
v -2.5 1.1 -2.2
v -2.6 1.1 -2.2
v -2.6 1.1 0.7
v -2.5 1.1 0.7
v -2.6 0.1 -2.2
v -2.7 0.1 -2.2
v -2.6 0.1 0.6
v -2.6 1 -2.2
v -2.7 1 -2.2
v -2.7 1 0.7
v -2.6 1 0.7
v -2.9 0 3
v -2.9 0 2.5
v -2.5 0 2.2
v -2.5 0 2.5
v -2.9 0 2.2
v -2.7 0 2.1
v -2.7 0 2.2
v -2.8 0 2.2
v -2.8 0 2.1
v -2.2 0 1.9
v -2.5 0 1.9
v -2.4 0.3 1.9
v -2.4 0.3 2.7
v -2.5 0.3 2.7
v -2.5 0.3 1.9
v -2.6 0.3 1.9
v -2.6 0.3 2.7
v -2.7 0.3 2.7
v -2.7 0.3 1.9
v -2.5 0.3 1.8
v -2.5 0.3 2.8
v -2.6 0.3 2.8
v -2.6 0.3 1.8
v -2.5 0 1.8
v -2.7 0 1.8
v -2.9 0 1.7
v -2.9 0 2.9
v -3 0 2.9
v -3 0 1.7
v -2.4 0 1.6
v -2.4 0 1.9
v -2.5 0 1.6
v -2.7 0 1.6
v -2.8 0 1.6
v -2.9 0 1.6
v -2.3 0 1.5
v -2.3 0 1.9
v -2.4 0 1.5
v -2.2 0 0.6
v -2.3 0 0.6
v -2.3 1.2 0.7
v -2.3 1.2 0.6
v -2.3 1.1 0.6
v -2.3 1.1 0.7
v -2.4 1.1 0.7
v -2.4 1.1 0.6
v -2.4 1 0.6
v -2.4 1 0.7
v -2.5 1 0.7
v -2.5 1 0.6
v -2.3 0 0.7
v -2.7 0 0.7
v -2.7 0 0.6
v -2.5 0.9 0.6
v -2.5 0.9 0.7
v -2.7 0.9 0.7
v -2.7 0.9 0.6
v -2.2 0 0.5
v -2.3 0 0.5
v -2.5 0.7 -0.1
v -2.5 0.7 0.3
v -2.6 0.7 0.3
v -2.6 0.7 -0.1
v -2.5 0.7 -1.1
v -2.5 0.7 -0.7
v -2.6 0.7 -0.7
v -2.6 0.7 -1.1
v -2.5 0.7 -2.1
v -2.5 0.7 -1.7
v -2.6 0.7 -1.7
v -2.6 0.7 -2.1
v -2.3 0 -2.2
v -2.6 0 0.6
v -2.6 0 -2.2
v -2.7 0 -2.2
v -2.6 0.9 -2.2
v -2.6 0.9 0.6
v -2.7 0.9 -2.2
v -2.6 0.2 0.4
v -2.6 0.2 -2.2
v -2.6 0.1 0.4
v -2.7 0.3 2.8
v -2.7 0.3 1.8
v -2.6 0.3 -0.2
v -2.6 0.2 -0.2
v -2.6 0.2 0.3
v -2.6 0.3 -1.2
v -2.6 0.2 -1.2
v -2.6 0.2 -0.7
v -2.6 0.3 -2.2
v -2.6 0.2 -1.7
v -2.6 0.8 0.4
v -2.6 0.8 0.3
v -2.6 0.8 -0.1
v -2.6 0.8 -0.2
v -2.6 0.8 -0.6
v -2.6 0.8 -0.7
v -2.6 0.2 -0.6
v -2.6 0.8 -1.1
v -2.6 0.8 -1.2
v -2.6 0.8 -1.6
v -2.6 0.8 -1.7
v -2.6 0.2 -1.6
v -2.6 0.8 -2.1
v -2.6 0.8 -2.2
v -2.6 0.9 0.5
v -2.6 0.1 0.5
v -2.6 0.9 0.4
v -2.6 0.9 -0.2
v -2.6 0.9 -0.6
v -2.6 0.9 -1.2
v -2.6 0.9 -1.6
v -2.4 0.3 2.8
v -2.4 0.3 1.8
v -2.3 0.8 0.6
v -2.5 0.1 0.6
v -2.5 0.8 0.6
v 2.7 0.1 -2.5
v 2.6 0.1 -2.5
v 2.7 1 -2.5
v 2.6 1 -2.5
v 2.6 1.1 -2.5
v 2.5 1.1 -2.5
v 2.5 1.2 -2.5
v 2.4 1.2 -2.5
v 2.4 1.3 -2.5
v 1.6 1.3 -2.5
v 1.6 1.2 -2.5
v 1.5 1.2 -2.5
v 1.4 0.1 -2.5
v 1.4 0.1 -2.4
v 2.6 0.1 -2.4
v 1.5 1.1 -2.5
v 1.4 1.1 -2.5
v 1.3 0.1 -2.5
v 1.4 1 -2.5
v 1.3 1 -2.5
v 0.7 0.1 -2.5
v 0.6 0.1 -2.5
v 0.7 1 -2.5
v 0.6 1 -2.5
v 0.6 1.1 -2.5
v 0.5 1.1 -2.5
v 0.5 1.2 -2.5
v 0.4 1.2 -2.5
v 0.4 1.3 -2.5
v -0.4 1.3 -2.5
v -0.4 1.2 -2.5
v -0.5 1.2 -2.5
v -0.6 0.1 -2.5
v -0.6 0.1 -2.4
v 0.6 0.1 -2.4
v -0.5 1.1 -2.5
v -0.6 1.1 -2.5
v -0.7 0.1 -2.5
v -0.6 1 -2.5
v -0.7 1 -2.5
v -1.3 0.1 -2.5
v -1.4 0.1 -2.5
v -1.3 1 -2.5
v -1.4 1 -2.5
v -1.4 1.1 -2.5
v -1.5 1.1 -2.5
v -1.5 1.2 -2.5
v -1.6 1.2 -2.5
v -2.2 0.1 -2.5
v -2.2 0.1 -2.4
v -1.4 0.1 -2.4
v -1.6 1.3 -2.5
v -2.2 1.3 -2.5
v 2.6 0 -2.4
v 1.4 0 -2.4
v 0.6 0 -2.4
v -0.6 0 -2.4
v -1.4 0 -2.4
v -2.2 0 -2.4
v 2.7 0 -2.5
v 2.6 0 -2.5
v 2.7 0.9 -2.5
v 2.6 0.9 -2.5
v 2.6 0.9 -2.4
v 2.5 0.9 -2.4
v 2.5 0.9 -2.5
v 2.5 1 -2.5
v 2.5 1 -2.4
v 2.4 1 -2.4
v 2.4 1 -2.5
v 2.4 1.1 -2.5
v 2.4 1.1 -2.4
v 2.3 1.1 -2.4
v 2.3 1.1 -2.5
v 2.3 1.2 -2.5
v 2.3 1.2 -2.4
v 1.7 1.2 -2.4
v 1.7 1.2 -2.5
v 1.7 1.1 -2.5
v 1.7 1.1 -2.4
v 1.6 1.1 -2.4
v 1.6 1.1 -2.5
v 1.6 1 -2.5
v 1.6 1 -2.4
v 1.5 1 -2.4
v 1.5 1 -2.5
v 1.4 0 -2.5
v 1.5 0.9 -2.5
v 1.5 0.9 -2.4
v 1.4 0.9 -2.4
v 1.4 0.9 -2.5
v 1.3 0 -2.5
v 1.3 0.9 -2.5
v 0.7 0 -2.5
v 0.6 0 -2.5
v 0.7 0.9 -2.5
v 0.6 0.9 -2.5
v 0.6 0.9 -2.4
v 0.5 0.9 -2.4
v 0.5 0.9 -2.5
v 0.5 1 -2.5
v 0.5 1 -2.4
v 0.4 1 -2.4
v 0.4 1 -2.5
v 0.4 1.1 -2.5
v 0.4 1.1 -2.4
v 0.3 1.1 -2.4
v 0.3 1.1 -2.5
v 0.3 1.2 -2.5
v 0.3 1.2 -2.4
v -0.3 1.2 -2.4
v -0.3 1.2 -2.5
v -0.3 1.1 -2.5
v -0.3 1.1 -2.4
v -0.4 1.1 -2.4
v -0.4 1.1 -2.5
v -0.4 1 -2.5
v -0.4 1 -2.4
v -0.5 1 -2.4
v -0.5 1 -2.5
v -0.6 0 -2.5
v -0.5 0.9 -2.5
v -0.5 0.9 -2.4
v -0.6 0.9 -2.4
v -0.6 0.9 -2.5
v -0.7 0 -2.5
v -0.7 0.9 -2.5
v -1.3 0 -2.5
v -1.4 0 -2.5
v -1.3 0.9 -2.5
v -1.4 0.9 -2.5
v -1.4 0.9 -2.4
v -1.5 0.9 -2.4
v -1.5 0.9 -2.5
v -1.5 1 -2.5
v -1.5 1 -2.4
v -1.6 1 -2.4
v -1.6 1 -2.5
v -1.6 1.1 -2.5
v -1.6 1.1 -2.4
v -1.7 1.1 -2.4
v -1.7 1.1 -2.5
v -2.2 0 -2.5
v -1.7 1.2 -2.5
v -1.7 1.2 -2.4
v -2.2 1.2 -2.4
v -2.2 1.2 -2.5
v 1.4 0.9 -2.3
v 1.4 0.1 -2.3
v -0.6 0.9 -2.3
v -0.6 0.1 -2.3
v 2.6 0.1 -2.3
v 2.6 0.9 -2.3
v 0.6 0.1 -2.3
v 0.6 0.9 -2.3
v -1.4 0.1 -2.3
v -1.4 0.9 -2.3
v 2.5 0.1 -2.4
v 1.5 0.1 -2.4
v 0.5 0.1 -2.4
v -0.5 0.1 -2.4
v -1.5 0.1 -2.4
v -2.2 0.9 -2.4
v -2.2 1 -2.4
v -2.2 1.1 -2.4
v -2.4 1.3 -2.5
v -2.4 1.2 -2.5
v -2.5 1.2 -2.5
v -2.6 0.1 -2.5
v -2.6 0.1 -2.4
v -2.5 1.1 -2.5
v -2.6 1.1 -2.5
v -2.7 0.1 -2.5
v -2.6 1 -2.5
v -2.7 1 -2.5
v -2.6 0 -2.4
v -2.3 1.2 -2.4
v -2.3 1.2 -2.5
v -2.3 1.1 -2.5
v -2.3 1.1 -2.4
v -2.4 1.1 -2.4
v -2.4 1.1 -2.5
v -2.4 1 -2.5
v -2.4 1 -2.4
v -2.5 1 -2.4
v -2.5 1 -2.5
v -2.6 0 -2.5
v -2.5 0.9 -2.5
v -2.5 0.9 -2.4
v -2.6 0.9 -2.4
v -2.6 0.9 -2.5
v -2.7 0 -2.5
v -2.7 0.9 -2.5
v -2.6 0.9 -2.3
v -2.6 0.1 -2.3
v -2.5 0.1 -2.4

vt 0.00195313 0.5
vt 0.00585938 0.5
vt 0.0175781 0.5
vt 0.0292969 0.5
vt 0.0332031 0.5
vt 0.0371094 0.5
vt 0.0410156 0.5
vt 0.0566406 0.5
vt 0.0683594 0.5
vt 0.0839844 0.5
vt 0.158203 0.5
vt 0.162109 0.5

vn 0 1 0
vn 0 -1 0
vn -1 0 0
vn 1 0 0
vn 0 0 -1
vn 0 0 1

usemtl palette
f 1/2/1 2/2/1 4/2/1
f 4/2/1 2/2/1 3/2/1
f 5/6/1 6/6/1 8/6/1
f 8/6/1 6/6/1 7/6/1
f 9/6/1 10/6/1 12/6/1
f 12/6/1 10/6/1 11/6/1
f 13/6/1 14/6/1 16/6/1
f 16/6/1 14/6/1 15/6/1
f 17/6/1 18/6/1 20/6/1
f 20/6/1 18/6/1 19/6/1
f 21/10/1 22/10/1 24/10/1
f 24/10/1 22/10/1 23/10/1
f 25/10/1 26/10/1 28/10/1
f 28/10/1 26/10/1 27/10/1
f 29/10/1 30/10/1 32/10/1
f 32/10/1 30/10/1 31/10/1
f 30/10/1 33/10/1 34/10/1
f 34/10/1 33/10/1 24/10/1
f 35/5/1 36/5/1 38/5/1
f 38/5/1 36/5/1 37/5/1
f 39/10/1 40/10/1 42/10/1
f 42/10/1 40/10/1 41/10/1
f 43/5/1 44/5/1 46/5/1
f 46/5/1 44/5/1 45/5/1
f 47/10/1 48/10/1 50/10/1
f 50/10/1 48/10/1 49/10/1
f 51/5/1 52/5/1 54/5/1
f 54/5/1 52/5/1 53/5/1
f 55/10/1 56/10/1 58/10/1
f 58/10/1 56/10/1 57/10/1
f 59/5/1 60/5/1 62/5/1
f 62/5/1 60/5/1 61/5/1
f 63/10/1 64/10/1 66/10/1
f 66/10/1 64/10/1 65/10/1
f 67/6/1 68/6/1 70/6/1
f 70/6/1 68/6/1 69/6/1
f 71/6/1 72/6/1 74/6/1
f 74/6/1 72/6/1 73/6/1
f 75/6/1 76/6/1 78/6/1
f 78/6/1 76/6/1 77/6/1
f 79/6/1 80/6/1 82/6/1
f 82/6/1 80/6/1 81/6/1
f 83/2/1 84/2/1 86/2/1
f 86/2/1 84/2/1 85/2/1
f 84/2/1 87/2/1 89/2/1
f 89/2/1 87/2/1 88/2/1
f 90/4/1 91/4/1 93/4/1
f 93/4/1 91/4/1 92/4/1
f 94/2/1 95/2/1 96/2/1
f 96/2/1 95/2/1 86/2/1
f 97/10/1 98/10/1 100/10/1
f 100/10/1 98/10/1 99/10/1
f 98/2/1 101/2/1 99/2/1
f 99/2/1 101/2/1 102/2/1
f 103/10/1 104/10/1 106/10/1
f 106/10/1 104/10/1 105/10/1
f 104/2/1 107/2/1 105/2/1
f 105/2/1 107/2/1 108/2/1
f 109/2/1 110/2/1 112/2/1
f 112/2/1 110/2/1 111/2/1
f 110/2/1 113/2/1 114/2/1
f 114/2/1 113/2/1 96/2/1
f 115/2/1 116/2/1 97/2/1
f 97/2/1 116/2/1 117/2/1
f 118/2/1 119/2/1 121/2/1
f 121/2/1 119/2/1 120/2/1
f 122/10/1 123/10/1 124/10/1
f 124/10/1 123/10/1 107/10/1
f 123/10/1 125/10/1 108/10/1
f 108/10/1 125/10/1 87/10/1
f 126/10/1 127/10/1 128/10/1
f 128/10/1 127/10/1 100/10/1
f 129/10/1 130/10/1 131/10/1
f 131/10/1 130/10/1 116/10/1
f 130/10/1 132/10/1 117/10/1
f 117/10/1 132/10/1 121/10/1
f 132/10/1 133/10/1 118/10/1
f 118/10/1 133/10/1 119/10/1
f 134/10/1 135/10/1 136/10/1
f 136/10/1 135/10/1 101/10/1
f 137/10/1 138/10/1 139/10/1
f 139/10/1 138/10/1 106/10/1
f 138/2/1 140/2/1 103/2/1
f 103/2/1 140/2/1 124/2/1
f 140/2/1 141/2/1 122/2/1
f 122/2/1 141/2/1 142/2/1
f 143/2/1 144/2/1 145/2/1
f 145/2/1 144/2/1 125/2/1
f 146/10/1 147/10/1 148/10/1
f 148/10/1 147/10/1 95/10/1
f 147/10/1 149/10/1 83/10/1
f 83/10/1 149/10/1 128/10/1
f 150/2/1 151/2/1 129/2/1
f 129/2/1 151/2/1 152/2/1
f 153/2/1 154/2/1 134/2/1
f 134/2/1 154/2/1 155/2/1
f 156/2/1 157/2/1 159/2/1
f 159/2/1 157/2/1 158/2/1
f 160/2/1 161/2/1 163/2/1
f 163/2/1 161/2/1 162/2/1
f 164/10/1 165/10/1 167/10/1
f 167/10/1 165/10/1 166/10/1
f 168/10/1 169/10/1 143/10/1
f 143/10/1 169/10/1 144/10/1
f 170/2/1 171/2/1 146/2/1
f 146/2/1 171/2/1 149/2/1
f 171/2/1 172/2/1 126/2/1
f 126/2/1 172/2/1 173/2/1
f 174/2/1 175/2/1 137/2/1
f 137/2/1 175/2/1 159/2/1
f 176/2/1 177/2/1 178/2/1
f 178/2/1 177/2/1 157/2/1
f 179/2/1 180/2/1 164/2/1
f 164/2/1 180/2/1 181/2/1
f 182/2/1 183/2/1 166/2/1
f 166/2/1 183/2/1 145/2/1
f 183/2/1 184/2/1 168/2/1
f 168/2/1 184/2/1 185/2/1
f 186/10/1 187/10/1 109/10/1
f 109/10/1 187/10/1 113/10/1
f 188/10/1 189/10/1 190/10/1
f 190/10/1 189/10/1 172/10/1
f 189/10/1 191/10/1 173/10/1
f 173/10/1 191/10/1 127/10/1
f 191/10/1 192/10/1 115/10/1
f 115/10/1 192/10/1 131/10/1
f 192/10/1 193/10/1 150/10/1
f 150/10/1 193/10/1 151/10/1
f 194/10/1 195/10/1 196/10/1
f 196/10/1 195/10/1 133/10/1
f 195/10/1 197/10/1 120/10/1
f 120/10/1 197/10/1 136/10/1
f 198/10/1 199/10/1 155/10/1
f 155/10/1 199/10/1 135/10/1
f 199/10/1 200/10/1 102/10/1
f 102/10/1 200/10/1 139/10/1
f 200/10/1 201/10/1 174/10/1
f 174/10/1 201/10/1 175/10/1
f 201/10/1 202/10/1 156/10/1
f 156/10/1 202/10/1 178/10/1
f 203/10/1 204/10/1 205/10/1
f 205/10/1 204/10/1 141/10/1
f 204/10/1 206/10/1 142/10/1
f 142/10/1 206/10/1 163/10/1
f 207/10/1 208/10/1 181/10/1
f 181/10/1 208/10/1 165/10/1
f 209/2/1 210/2/1 186/2/1
f 186/2/1 210/2/1 187/2/1
f 210/10/1 211/10/1 94/10/1
f 94/10/1 211/10/1 148/10/1
f 211/10/1 212/10/1 170/10/1
f 170/10/1 212/10/1 190/10/1
f 213/10/1 214/10/1 215/10/1
f 215/10/1 214/10/1 193/10/1
f 214/10/1 216/10/1 152/10/1
f 152/10/1 216/10/1 196/10/1
f 217/10/1 218/10/1 219/10/1
f 219/10/1 218/10/1 197/10/1
f 218/10/1 220/10/1 153/10/1
f 153/10/1 220/10/1 154/10/1
f 221/10/1 222/10/1 223/10/1
f 223/10/1 222/10/1 206/10/1
f 222/10/1 224/10/1 160/10/1
f 160/10/1 224/10/1 161/10/1
f 224/10/1 225/10/1 162/10/1
f 162/10/1 225/10/1 167/10/1
f 225/10/1 226/10/1 179/10/1
f 179/10/1 226/10/1 180/10/1
f 227/10/1 228/10/1 182/10/1
f 182/10/1 228/10/1 184/10/1
f 228/10/1 229/10/1 185/10/1
f 185/10/1 229/10/1 169/10/1
f 230/2/1 231/2/1 233/2/1
f 233/2/1 231/2/1 232/2/1
f 234/3/1 235/3/1 237/3/1
f 237/3/1 235/3/1 236/3/1
f 238/4/1 239/4/1 241/4/1
f 241/4/1 239/4/1 240/4/1
f 242/10/1 243/10/1 176/10/1
f 176/10/1 243/10/1 177/10/1
f 243/10/1 244/10/1 158/10/1
f 158/10/1 244/10/1 205/10/1
f 245/2/1 246/2/1 247/2/1
f 247/2/1 246/2/1 4/2/1
f 246/2/1 248/2/1 250/2/1
f 250/2/1 248/2/1 249/2/1
f 248/2/1 251/2/1 252/2/1
f 252/2/1 251/2/1 212/2/1
f 253/2/1 254/2/1 255/2/1
f 255/2/1 254/2/1 215/2/1
f 254/2/1 256/2/1 213/2/1
f 213/2/1 256/2/1 216/2/1
f 256/2/1 257/2/1 194/2/1
f 194/2/1 257/2/1 219/2/1
f 257/2/1 258/2/1 217/2/1
f 217/2/1 258/2/1 220/2/1
f 259/2/1 260/2/1 203/2/1
f 203/2/1 260/2/1 223/2/1
f 260/2/1 261/2/1 221/2/1
f 221/2/1 261/2/1 226/2/1
f 261/2/1 262/2/1 207/2/1
f 207/2/1 262/2/1 208/2/1
f 263/2/1 264/2/1 265/2/1
f 265/2/1 264/2/1 251/2/1
f 264/2/1 266/2/1 188/2/1
f 188/2/1 266/2/1 255/2/1
f 267/2/1 268/2/1 269/2/1
f 269/2/1 268/2/1 258/2/1
f 270/2/1 271/2/1 272/2/1
f 272/2/1 271/2/1 244/2/1
f 273/2/1 274/2/1 275/2/1
f 275/2/1 274/2/1 262/2/1
f 276/2/1 277/2/1 278/2/1
f 278/2/1 277/2/1 229/2/1
f 279/2/1 280/2/1 200/2/1
f 200/2/1 280/2/1 202/2/1
f 281/10/1 282/10/1 279/10/1
f 279/10/1 282/10/1 280/10/1
f 283/10/1 284/10/1 276/10/1
f 276/10/1 284/10/1 277/10/1
f 285/10/1 286/10/1 288/10/1
f 288/10/1 286/10/1 287/10/1
f 289/2/1 290/2/1 227/2/1
f 227/2/1 290/2/1 278/2/1
f 290/2/1 291/2/1 283/2/1
f 283/2/1 291/2/1 284/2/1
f 292/10/1 293/10/1 289/10/1
f 289/10/1 293/10/1 294/10/1
f 295/9/1 296/9/1 298/9/1
f 298/9/1 296/9/1 297/9/1
f 296/2/1 299/2/1 300/2/1
f 300/2/1 299/2/1 288/2/1
f 301/2/1 302/2/1 304/2/1
f 304/2/1 302/2/1 303/2/1
f 302/9/1 305/9/1 307/9/1
f 307/9/1 305/9/1 306/9/1
f 308/9/1 309/9/1 311/9/1
f 311/9/1 309/9/1 310/9/1
f 309/2/1 312/2/1 198/2/1
f 198/2/1 312/2/1 200/2/1
f 313/2/1 314/2/1 243/2/1
f 243/2/1 314/2/1 272/2/1
f 314/9/1 315/9/1 317/9/1
f 317/9/1 315/9/1 316/9/1
f 318/9/1 319/9/1 321/9/1
f 321/9/1 319/9/1 320/9/1
f 319/2/1 322/2/1 323/2/1
f 323/2/1 322/2/1 274/2/1
f 324/2/1 325/2/1 285/2/1
f 285/2/1 325/2/1 286/2/1
f 325/2/1 326/2/1 287/2/1
f 287/2/1 326/2/1 304/2/1
f 327/2/1 328/2/1 329/2/1
f 329/2/1 328/2/1 312/2/1
f 328/2/1 330/2/1 281/2/1
f 281/2/1 330/2/1 282/2/1
f 330/2/1 331/2/1 242/2/1
f 242/2/1 331/2/1 243/2/1
f 332/2/1 333/2/1 292/2/1
f 292/2/1 333/2/1 293/2/1
f 333/2/1 334/2/1 294/2/1
f 294/2/1 334/2/1 291/2/1
f 335/10/1 336/10/1 338/10/1
f 338/10/1 336/10/1 337/10/1
f 339/10/1 340/10/1 342/10/1
f 342/10/1 340/10/1 341/10/1
f 343/10/1 344/10/1 346/10/1
f 346/10/1 344/10/1 345/10/1
f 347/10/1 348/10/1 350/10/1
f 350/10/1 348/10/1 349/10/1
f 351/10/1 352/10/1 354/10/1
f 354/10/1 352/10/1 353/10/1
f 355/10/1 356/10/1 358/10/1
f 358/10/1 356/10/1 357/10/1
f 359/10/1 360/10/1 362/10/1
f 362/10/1 360/10/1 361/10/1
f 363/10/1 364/10/1 366/10/1
f 366/10/1 364/10/1 365/10/1
f 367/10/1 368/10/1 370/10/1
f 370/10/1 368/10/1 369/10/1
f 371/10/1 372/10/1 374/10/1
f 374/10/1 372/10/1 373/10/1
f 375/10/1 376/10/1 378/10/1
f 378/10/1 376/10/1 377/10/1
f 379/10/1 380/10/1 382/10/1
f 382/10/1 380/10/1 381/10/1
f 383/10/1 384/10/1 386/10/1
f 386/10/1 384/10/1 385/10/1
f 387/10/1 388/10/1 390/10/1
f 390/10/1 388/10/1 389/10/1
f 391/10/1 392/10/1 394/10/1
f 394/10/1 392/10/1 393/10/1
f 395/9/1 396/9/1 397/9/1
f 397/9/1 396/9/1 298/9/1
f 398/2/1 399/2/1 401/2/1
f 401/2/1 399/2/1 400/2/1
f 402/2/1 403/2/1 405/2/1
f 405/2/1 403/2/1 404/2/1
f 406/2/1 407/2/1 409/2/1
f 409/2/1 407/2/1 408/2/1
f 410/2/1 411/2/1 413/2/1
f 413/2/1 411/2/1 412/2/1
f 414/2/1 415/2/1 417/2/1
f 417/2/1 415/2/1 416/2/1
f 418/2/1 419/2/1 421/2/1
f 421/2/1 419/2/1 420/2/1
f 422/9/1 423/9/1 424/9/1
f 424/9/1 423/9/1 305/9/1
f 425/2/1 426/2/1 428/2/1
f 428/2/1 426/2/1 427/2/1
f 429/9/1 430/9/1 431/9/1
f 431/9/1 430/9/1 311/9/1
f 432/2/1 433/2/1 435/2/1
f 435/2/1 433/2/1 434/2/1
f 436/2/1 437/2/1 439/2/1
f 439/2/1 437/2/1 438/2/1
f 440/2/1 441/2/1 443/2/1
f 443/2/1 441/2/1 442/2/1
f 444/2/1 445/2/1 447/2/1
f 447/2/1 445/2/1 446/2/1
f 448/2/1 449/2/1 451/2/1
f 451/2/1 449/2/1 450/2/1
f 452/2/1 453/2/1 455/2/1
f 455/2/1 453/2/1 454/2/1
f 456/9/1 457/9/1 458/9/1
f 458/9/1 457/9/1 315/9/1
f 459/2/1 460/2/1 462/2/1
f 462/2/1 460/2/1 461/2/1
f 463/9/1 464/9/1 465/9/1
f 465/9/1 464/9/1 321/9/1
f 466/2/1 467/2/1 469/2/1
f 469/2/1 467/2/1 468/2/1
f 470/2/1 471/2/1 473/2/1
f 473/2/1 471/2/1 472/2/1
f 474/2/1 475/2/1 477/2/1
f 477/2/1 475/2/1 476/2/1
f 478/2/1 479/2/1 481/2/1
f 481/2/1 479/2/1 480/2/1
f 482/10/2 483/10/2 485/10/2
f 485/10/2 483/10/2 484/10/2
f 486/6/2 487/6/2 489/6/2
f 489/6/2 487/6/2 488/6/2
f 490/7/2 491/7/2 493/7/2
f 493/7/2 491/7/2 492/7/2
f 494/10/2 495/10/2 497/10/2
f 497/10/2 495/10/2 496/10/2
f 498/6/2 499/6/2 501/6/2
f 501/6/2 499/6/2 500/6/2
f 502/7/2 503/7/2 505/7/2
f 505/7/2 503/7/2 504/7/2
f 506/10/2 507/10/2 509/10/2
f 509/10/2 507/10/2 508/10/2
f 510/6/2 511/6/2 513/6/2
f 513/6/2 511/6/2 512/6/2
f 514/7/2 515/7/2 517/7/2
f 517/7/2 515/7/2 516/7/2
f 518/10/2 519/10/2 521/10/2
f 521/10/2 519/10/2 520/10/2
f 522/6/2 523/6/2 525/6/2
f 525/6/2 523/6/2 524/6/2
f 526/7/2 527/7/2 529/7/2
f 529/7/2 527/7/2 528/7/2
f 530/10/2 531/10/2 533/10/2
f 533/10/2 531/10/2 532/10/2
f 534/6/2 535/6/2 537/6/2
f 537/6/2 535/6/2 536/6/2
f 538/6/2 539/6/2 541/6/2
f 541/6/2 539/6/2 540/6/2
f 542/6/2 543/6/2 545/6/2
f 545/6/2 543/6/2 544/6/2
f 546/6/2 547/6/2 549/6/2
f 549/6/2 547/6/2 548/6/2
f 550/2/2 551/2/2 553/2/2
f 553/2/2 551/2/2 552/2/2
f 554/4/2 555/4/2 557/4/2
f 557/4/2 555/4/2 556/4/2
f 558/2/2 559/2/2 560/2/2
f 560/2/2 559/2/2 551/2/2
f 561/10/2 562/10/2 564/10/2
f 564/10/2 562/10/2 563/10/2
f 564/2/2 563/2/2 566/2/2
f 566/2/2 563/2/2 565/2/2
f 567/10/2 568/10/2 570/10/2
f 570/10/2 568/10/2 569/10/2
f 570/2/2 569/2/2 572/2/2
f 572/2/2 569/2/2 571/2/2
f 573/2/2 574/2/2 575/2/2
f 575/2/2 574/2/2 559/2/2
f 576/2/2 561/2/2 578/2/2
f 578/2/2 561/2/2 577/2/2
f 579/2/2 580/2/2 582/2/2
f 582/2/2 580/2/2 581/2/2
f 583/10/2 584/10/2 585/10/2
f 585/10/2 584/10/2 572/10/2
f 585/10/2 571/10/2 586/10/2
f 586/10/2 571/10/2 553/10/2
f 587/10/2 588/10/2 589/10/2
f 589/10/2 588/10/2 562/10/2
f 590/10/2 591/10/2 592/10/2
f 592/10/2 591/10/2 578/10/2
f 592/10/2 577/10/2 593/10/2
f 593/10/2 577/10/2 580/10/2
f 593/10/2 579/10/2 594/10/2
f 594/10/2 579/10/2 582/10/2
f 595/10/2 596/10/2 597/10/2
f 597/10/2 596/10/2 566/10/2
f 598/10/2 599/10/2 600/10/2
f 600/10/2 599/10/2 568/10/2
f 600/2/2 567/2/2 601/2/2
f 601/2/2 567/2/2 584/2/2
f 601/2/2 583/2/2 603/2/2
f 603/2/2 583/2/2 602/2/2
f 604/2/2 605/2/2 606/2/2
f 606/2/2 605/2/2 586/2/2
f 607/10/2 608/10/2 609/10/2
f 609/10/2 608/10/2 560/10/2
f 609/10/2 550/10/2 610/10/2
f 610/10/2 550/10/2 588/10/2
f 611/2/2 590/2/2 613/2/2
f 613/2/2 590/2/2 612/2/2
f 614/2/2 595/2/2 616/2/2
f 616/2/2 595/2/2 615/2/2
f 617/2/2 618/2/2 620/2/2
f 620/2/2 618/2/2 619/2/2
f 621/2/2 622/2/2 624/2/2
f 624/2/2 622/2/2 623/2/2
f 625/10/2 626/10/2 628/10/2
f 628/10/2 626/10/2 627/10/2
f 629/10/2 604/10/2 630/10/2
f 630/10/2 604/10/2 606/10/2
f 631/2/2 607/2/2 632/2/2
f 632/2/2 607/2/2 610/2/2
f 632/2/2 587/2/2 634/2/2
f 634/2/2 587/2/2 633/2/2
f 635/2/2 598/2/2 636/2/2
f 636/2/2 598/2/2 618/2/2
f 637/2/2 638/2/2 639/2/2
f 639/2/2 638/2/2 620/2/2
f 640/2/2 625/2/2 642/2/2
f 642/2/2 625/2/2 641/2/2
f 643/2/2 627/2/2 644/2/2
f 644/2/2 627/2/2 605/2/2
f 644/2/2 629/2/2 646/2/2
f 646/2/2 629/2/2 645/2/2
f 647/10/2 573/10/2 648/10/2
f 648/10/2 573/10/2 575/10/2
f 649/10/2 650/10/2 651/10/2
f 651/10/2 650/10/2 634/10/2
f 651/10/2 633/10/2 652/10/2
f 652/10/2 633/10/2 589/10/2
f 652/10/2 576/10/2 653/10/2
f 653/10/2 576/10/2 591/10/2
f 653/10/2 611/10/2 654/10/2
f 654/10/2 611/10/2 613/10/2
f 655/10/2 656/10/2 657/10/2
f 657/10/2 656/10/2 594/10/2
f 657/10/2 581/10/2 658/10/2
f 658/10/2 581/10/2 596/10/2
f 659/10/2 615/10/2 660/10/2
f 660/10/2 615/10/2 597/10/2
f 660/10/2 565/10/2 661/10/2
f 661/10/2 565/10/2 599/10/2
f 661/10/2 635/10/2 662/10/2
f 662/10/2 635/10/2 636/10/2
f 662/10/2 617/10/2 663/10/2
f 663/10/2 617/10/2 638/10/2
f 664/10/2 665/10/2 666/10/2
f 666/10/2 665/10/2 603/10/2
f 666/10/2 602/10/2 667/10/2
f 667/10/2 602/10/2 622/10/2
f 668/10/2 641/10/2 669/10/2
f 669/10/2 641/10/2 628/10/2
f 670/3/2 671/3/2 673/3/2
f 673/3/2 671/3/2 672/3/2
f 674/10/2 558/10/2 675/10/2
f 675/10/2 558/10/2 608/10/2
f 675/10/2 631/10/2 676/10/2
f 676/10/2 631/10/2 650/10/2
f 677/10/2 678/10/2 679/10/2
f 679/10/2 678/10/2 654/10/2
f 679/10/2 612/10/2 680/10/2
f 680/10/2 612/10/2 656/10/2
f 681/10/2 682/10/2 683/10/2
f 683/10/2 682/10/2 658/10/2
f 683/10/2 614/10/2 684/10/2
f 684/10/2 614/10/2 616/10/2
f 685/10/2 686/10/2 687/10/2
f 687/10/2 686/10/2 667/10/2
f 687/10/2 621/10/2 688/10/2
f 688/10/2 621/10/2 624/10/2
f 688/10/2 623/10/2 689/10/2
f 689/10/2 623/10/2 626/10/2
f 689/10/2 640/10/2 690/10/2
f 690/10/2 640/10/2 642/10/2
f 691/10/2 643/10/2 692/10/2
f 692/10/2 643/10/2 646/10/2
f 692/10/2 645/10/2 693/10/2
f 693/10/2 645/10/2 630/10/2
f 694/2/2 695/2/2 697/2/2
f 697/2/2 695/2/2 696/2/2
f 698/4/2 699/4/2 701/4/2
f 701/4/2 699/4/2 700/4/2
f 702/10/2 637/10/2 703/10/2
f 703/10/2 637/10/2 639/10/2
f 703/10/2 619/10/2 704/10/2
f 704/10/2 619/10/2 665/10/2
f 705/2/2 706/2/2 707/2/2
f 707/2/2 706/2/2 574/2/2
f 707/2/2 647/2/2 708/2/2
f 708/2/2 647/2/2 648/2/2
f 708/2/2 674/2/2 709/2/2
f 709/2/2 674/2/2 676/2/2
f 710/2/2 711/2/2 712/2/2
f 712/2/2 711/2/2 678/2/2
f 712/2/2 677/2/2 713/2/2
f 713/2/2 677/2/2 680/2/2
f 713/2/2 655/2/2 714/2/2
f 714/2/2 655/2/2 682/2/2
f 714/2/2 681/2/2 715/2/2
f 715/2/2 681/2/2 684/2/2
f 716/2/2 664/2/2 717/2/2
f 717/2/2 664/2/2 686/2/2
f 717/2/2 685/2/2 718/2/2
f 718/2/2 685/2/2 690/2/2
f 718/2/2 668/2/2 719/2/2
f 719/2/2 668/2/2 669/2/2
f 720/2/2 721/2/2 722/2/2
f 722/2/2 721/2/2 709/2/2
f 722/2/2 649/2/2 723/2/2
f 723/2/2 649/2/2 711/2/2
f 724/2/2 725/2/2 726/2/2
f 726/2/2 725/2/2 715/2/2
f 727/2/2 728/2/2 729/2/2
f 729/2/2 728/2/2 704/2/2
f 730/2/2 731/2/2 732/2/2
f 732/2/2 731/2/2 719/2/2
f 733/2/2 734/2/2 735/2/2
f 735/2/2 734/2/2 693/2/2
f 736/2/2 661/2/2 737/2/2
f 737/2/2 661/2/2 663/2/2
f 738/10/2 736/10/2 739/10/2
f 739/10/2 736/10/2 737/10/2
f 740/10/2 733/10/2 741/10/2
f 741/10/2 733/10/2 735/10/2
f 742/10/2 743/10/2 745/10/2
f 745/10/2 743/10/2 744/10/2
f 746/2/2 691/2/2 747/2/2
f 747/2/2 691/2/2 734/2/2
f 747/2/2 740/2/2 748/2/2
f 748/2/2 740/2/2 741/2/2
f 749/10/2 746/10/2 751/10/2
f 751/10/2 746/10/2 750/10/2
f 752/2/2 753/2/2 755/2/2
f 755/2/2 753/2/2 754/2/2
f 756/2/2 757/2/2 759/2/2
f 759/2/2 757/2/2 758/2/2
f 760/9/2 761/9/2 763/9/2
f 763/9/2 761/9/2 762/9/2
f 764/2/2 765/2/2 767/2/2
f 767/2/2 765/2/2 766/2/2
f 763/2/2 768/2/2 769/2/2
f 769/2/2 768/2/2 743/2/2
f 770/2/2 771/2/2 773/2/2
f 773/2/2 771/2/2 772/2/2
f 774/2/2 775/2/2 777/2/2
f 777/2/2 775/2/2 776/2/2
f 778/2/2 779/2/2 781/2/2
f 781/2/2 779/2/2 780/2/2
f 782/2/2 783/2/2 785/2/2
f 785/2/2 783/2/2 784/2/2
f 773/9/2 786/9/2 788/9/2
f 788/9/2 786/9/2 787/9/2
f 789/2/2 790/2/2 792/2/2
f 792/2/2 790/2/2 791/2/2
f 793/2/2 794/2/2 796/2/2
f 796/2/2 794/2/2 795/2/2
f 797/2/2 798/2/2 800/2/2
f 800/2/2 798/2/2 799/2/2
f 801/9/2 802/9/2 804/9/2
f 804/9/2 802/9/2 803/9/2
f 805/2/2 806/2/2 808/2/2
f 808/2/2 806/2/2 807/2/2
f 804/2/2 659/2/2 809/2/2
f 809/2/2 659/2/2 661/2/2
f 810/2/2 703/2/2 811/2/2
f 811/2/2 703/2/2 728/2/2
f 812/2/2 813/2/2 815/2/2
f 815/2/2 813/2/2 814/2/2
f 816/2/2 817/2/2 819/2/2
f 819/2/2 817/2/2 818/2/2
f 820/2/2 821/2/2 823/2/2
f 823/2/2 821/2/2 822/2/2
f 811/9/2 824/9/2 826/9/2
f 826/9/2 824/9/2 825/9/2
f 827/2/2 828/2/2 830/2/2
f 830/2/2 828/2/2 829/2/2
f 831/2/2 832/2/2 834/2/2
f 834/2/2 832/2/2 833/2/2
f 835/2/2 836/2/2 838/2/2
f 838/2/2 836/2/2 837/2/2
f 839/9/2 840/9/2 842/9/2
f 842/9/2 840/9/2 841/9/2
f 843/2/2 844/2/2 846/2/2
f 846/2/2 844/2/2 845/2/2
f 842/2/2 847/2/2 848/2/2
f 848/2/2 847/2/2 732/2/2
f 849/2/2 850/2/2 852/2/2
f 852/2/2 850/2/2 851/2/2
f 853/10/2 763/10/2 854/10/2
f 854/10/2 763/10/2 769/10/2
f 855/10/2 856/10/2 858/10/2
f 858/10/2 856/10/2 857/10/2
f 859/10/2 770/10/2 860/10/2
f 860/10/2 770/10/2 773/10/2
f 861/10/2 804/10/2 863/10/2
f 863/10/2 804/10/2 862/10/2
f 864/10/2 865/10/2 867/10/2
f 867/10/2 865/10/2 866/10/2
f 868/10/2 810/10/2 869/10/2
f 869/10/2 810/10/2 811/10/2
f 870/10/2 842/10/2 871/10/2
f 871/10/2 842/10/2 848/10/2
f 872/10/2 873/10/2 875/10/2
f 875/10/2 873/10/2 874/10/2
f 876/2/2 742/2/2 877/2/2
f 877/2/2 742/2/2 745/2/2
f 877/2/2 744/2/2 878/2/2
f 878/2/2 744/2/2 771/2/2
f 879/2/2 862/2/2 880/2/2
f 880/2/2 862/2/2 809/2/2
f 880/2/2 738/2/2 881/2/2
f 881/2/2 738/2/2 739/2/2
f 881/2/2 702/2/2 882/2/2
f 882/2/2 702/2/2 703/2/2
f 883/2/2 749/2/2 884/2/2
f 884/2/2 749/2/2 751/2/2
f 884/2/2 750/2/2 885/2/2
f 885/2/2 750/2/2 748/2/2
f 886/10/2 887/10/2 889/10/2
f 889/10/2 887/10/2 888/10/2
f 890/10/2 891/10/2 893/10/2
f 893/10/2 891/10/2 892/10/2
f 894/10/2 895/10/2 897/10/2
f 897/10/2 895/10/2 896/10/2
f 898/10/2 899/10/2 901/10/2
f 901/10/2 899/10/2 900/10/2
f 902/10/2 903/10/2 905/10/2
f 905/10/2 903/10/2 904/10/2
f 906/10/2 907/10/2 909/10/2
f 909/10/2 907/10/2 908/10/2
f 910/10/2 911/10/2 913/10/2
f 913/10/2 911/10/2 912/10/2
f 914/10/2 915/10/2 917/10/2
f 917/10/2 915/10/2 916/10/2
f 918/10/2 919/10/2 921/10/2
f 921/10/2 919/10/2 920/10/2
f 922/10/2 923/10/2 925/10/2
f 925/10/2 923/10/2 924/10/2
f 926/10/2 927/10/2 929/10/2
f 929/10/2 927/10/2 928/10/2
f 930/10/2 931/10/2 933/10/2
f 933/10/2 931/10/2 932/10/2
f 934/10/2 935/10/2 937/10/2
f 937/10/2 935/10/2 936/10/2
f 938/10/2 939/10/2 941/10/2
f 941/10/2 939/10/2 940/10/2
f 942/10/2 943/10/2 945/10/2
f 945/10/2 943/10/2 944/10/2
f 946/9/2 947/9/2 948/9/2
f 948/9/2 947/9/2 761/9/2
f 949/2/2 950/2/2 951/2/2
f 951/2/2 950/2/2 753/2/2
f 948/11/2 760/11/2 952/11/2
f 952/11/2 760/11/2 763/11/2
f 952/11/2 853/11/2 953/11/2
f 953/11/2 853/11/2 854/11/2
f 953/11/2 876/11/2 954/11/2
f 954/11/2 876/11/2 878/11/2
f 954/11/2 859/11/2 955/11/2
f 955/11/2 859/11/2 860/11/2
f 955/11/2 773/11/2 957/11/2
f 957/11/2 773/11/2 956/11/2
f 957/9/2 956/9/2 958/9/2
f 958/9/2 956/9/2 788/9/2
f 959/2/2 960/2/2 961/2/2
f 961/2/2 960/2/2 792/2/2
f 962/9/2 963/9/2 964/9/2
f 964/9/2 963/9/2 802/9/2
f 965/2/2 966/2/2 967/2/2
f 967/2/2 966/2/2 794/2/2
f 964/11/2 801/11/2 968/11/2
f 968/11/2 801/11/2 804/11/2
f 968/11/2 861/11/2 969/11/2
f 969/11/2 861/11/2 863/11/2
f 969/11/2 879/11/2 970/11/2
f 970/11/2 879/11/2 882/11/2
f 970/11/2 868/11/2 971/11/2
f 971/11/2 868/11/2 869/11/2
f 971/11/2 811/11/2 973/11/2
f 973/11/2 811/11/2 972/11/2
f 973/9/2 972/9/2 974/9/2
f 974/9/2 972/9/2 826/9/2
f 975/2/2 976/2/2 977/2/2
f 977/2/2 976/2/2 830/2/2
f 978/9/2 979/9/2 980/9/2
f 980/9/2 979/9/2 840/9/2
f 981/2/2 982/2/2 983/2/2
f 983/2/2 982/2/2 832/2/2
f 980/11/2 839/11/2 984/11/2
f 984/11/2 839/11/2 842/11/2
f 984/11/2 870/11/2 985/11/2
f 985/11/2 870/11/2 871/11/2
f 985/11/2 883/11/2 986/11/2
f 986/11/2 883/11/2 885/11/2
f 253/2/3 266/2/3 710/2/3
f 710/2/3 266/2/3 723/2/3
f 259/2/3 271/2/3 716/2/3
f 716/2/3 271/2/3 729/2/3
f 303/2/3 307/2/3 772/2/3
f 772/2/3 307/2/3 786/2/3
f 270/2/3 317/2/3 727/2/3
f 727/2/3 317/2/3 824/2/3
f 306/9/3 423/9/3 787/9/3
f 787/9/3 423/9/3 958/9/3
f 316/9/3 457/9/3 825/9/3
f 825/9/3 457/9/3 974/9/3
f 555/3/3 987/3/3 114/3/3
f 114/3/3 987/3/3 111/3/3
f 65/10/3 64/10/3 988/10/3
f 988/10/3 64/10/3 88/10/3
f 989/3/3 698/3/3 252/3/3
f 252/3/3 698/3/3 249/3/3
f 990/12/3 991/12/3 992/12/3
f 992/12/3 991/12/3 422/12/3
f 993/12/3 994/12/3 995/12/3
f 995/12/3 994/12/3 456/12/3
f 996/4/3 997/4/3 998/4/3
f 998/4/3 997/4/3 557/4/3
f 999/4/3 1000/4/3 1001/4/3
f 1001/4/3 1000/4/3 701/4/3
f 341/10/3 1002/10/3 1004/10/3
f 1004/10/3 1002/10/3 1003/10/3
f 349/10/3 1005/10/3 1007/10/3
f 1007/10/3 1005/10/3 1006/10/3
f 361/10/3 1008/10/3 1010/10/3
f 1010/10/3 1008/10/3 1009/10/3
f 369/10/3 1011/10/3 1013/10/3
f 1013/10/3 1011/10/3 1012/10/3
f 381/10/3 1014/10/3 1015/10/3
f 1015/10/3 1014/10/3 991/10/3
f 389/10/3 1016/10/3 1017/10/3
f 1017/10/3 1016/10/3 994/10/3
f 7/6/3 6/6/3 488/6/3
f 488/6/3 6/6/3 489/6/3
f 11/6/3 10/6/3 500/6/3
f 500/6/3 10/6/3 501/6/3
f 15/6/3 14/6/3 512/6/3
f 512/6/3 14/6/3 513/6/3
f 19/6/3 18/6/3 524/6/3
f 524/6/3 18/6/3 525/6/3
f 6/2/3 536/2/3 42/2/3
f 42/2/3 536/2/3 39/2/3
f 10/2/3 540/2/3 50/2/3
f 50/2/3 540/2/3 47/2/3
f 14/2/3 544/2/3 58/2/3
f 58/2/3 544/2/3 55/2/3
f 18/2/3 548/2/3 66/2/3
f 66/2/3 548/2/3 63/2/3
f 1018/4/3 1019/4/3 1020/4/3
f 1020/4/3 1019/4/3 998/4/3
f 1021/4/3 1022/4/3 1023/4/3
f 1023/4/3 1022/4/3 997/4/3
f 1024/3/3 1025/3/3 1027/3/3
f 1027/3/3 1025/3/3 1026/3/3
f 1028/4/3 1029/4/3 1030/4/3
f 1030/4/3 1029/4/3 1001/4/3
f 1031/4/3 1032/4/3 1033/4/3
f 1033/4/3 1032/4/3 1000/4/3
f 483/10/3 482/10/3 34/10/3
f 34/10/3 482/10/3 31/10/3
f 495/7/3 494/7/3 492/7/3
f 492/7/3 494/7/3 493/7/3
f 507/7/3 506/7/3 504/7/3
f 504/7/3 506/7/3 505/7/3
f 519/7/3 518/7/3 516/7/3
f 516/7/3 518/7/3 517/7/3
f 531/7/3 530/7/3 528/7/3
f 528/7/3 530/7/3 529/7/3
f 494/9/3 69/9/3 6/9/3
f 6/9/3 69/9/3 536/9/3
f 506/9/3 73/9/3 10/9/3
f 10/9/3 73/9/3 540/9/3
f 518/9/3 77/9/3 14/9/3
f 14/9/3 77/9/3 544/9/3
f 530/9/3 81/9/3 18/9/3
f 18/9/3 81/9/3 548/9/3
f 69/6/3 68/6/3 536/6/3
f 536/6/3 68/6/3 537/6/3
f 73/6/3 72/6/3 540/6/3
f 540/6/3 72/6/3 541/6/3
f 77/6/3 76/6/3 544/6/3
f 544/6/3 76/6/3 545/6/3
f 81/6/3 80/6/3 548/6/3
f 548/6/3 80/6/3 549/6/3
f 27/10/3 26/10/3 2/10/3
f 2/10/3 26/10/3 988/10/3
f 1034/1/3 1035/1/3 1018/1/3
f 1018/1/3 1035/1/3 1019/1/3
f 1036/1/3 1037/1/3 1021/1/3
f 1021/1/3 1037/1/3 1038/1/3
f 1039/1/3 1040/1/3 1028/1/3
f 1028/1/3 1040/1/3 1029/1/3
f 1041/1/3 1042/1/3 1031/1/3
f 1031/1/3 1042/1/3 1043/1/3
f 856/10/3 855/10/3 299/10/3
f 299/10/3 855/10/3 324/10/3
f 865/10/3 864/10/3 329/10/3
f 329/10/3 864/10/3 327/10/3
f 873/10/3 872/10/3 322/10/3
f 322/10/3 872/10/3 332/10/3
f 891/8/3 890/8/3 342/8/3
f 342/8/3 890/8/3 339/8/3
f 899/8/3 898/8/3 350/8/3
f 350/8/3 898/8/3 347/8/3
f 911/8/3 910/8/3 362/8/3
f 362/8/3 910/8/3 359/8/3
f 919/8/3 918/8/3 370/8/3
f 370/8/3 918/8/3 367/8/3
f 931/8/3 930/8/3 382/8/3
f 382/8/3 930/8/3 379/8/3
f 939/8/3 938/8/3 390/8/3
f 390/8/3 938/8/3 387/8/3
f 1044/1/3 1045/1/3 996/1/3
f 996/1/3 1045/1/3 1023/1/3
f 1046/1/3 1047/1/3 999/1/3
f 999/1/3 1047/1/3 1033/1/3
f 1048/10/3 1049/10/3 990/10/3
f 990/10/3 1049/10/3 1004/10/3
f 1050/10/3 1051/10/3 993/10/3
f 993/10/3 1051/10/3 1007/10/3
f 1049/10/3 1052/10/3 892/10/3
f 892/10/3 1052/10/3 893/10/3
f 1051/10/3 1053/10/3 900/10/3
f 900/10/3 1053/10/3 901/10/3
f 1052/10/3 1054/10/3 340/10/3
f 340/10/3 1054/10/3 1002/10/3
f 1053/10/3 1055/10/3 348/10/3
f 348/10/3 1055/10/3 1005/10/3
f 1056/10/3 1057/10/3 1058/10/3
f 1058/10/3 1057/10/3 1010/10/3
f 1059/10/3 1060/10/3 1061/10/3
f 1061/10/3 1060/10/3 1013/10/3
f 1057/10/3 1062/10/3 912/10/3
f 912/10/3 1062/10/3 913/10/3
f 1060/10/3 1063/10/3 920/10/3
f 920/10/3 1063/10/3 921/10/3
f 1062/10/3 1064/10/3 360/10/3
f 360/10/3 1064/10/3 1008/10/3
f 1063/10/3 1065/10/3 368/10/3
f 368/10/3 1065/10/3 1011/10/3
f 1066/10/3 1067/10/3 1068/10/3
f 1068/10/3 1067/10/3 1015/10/3
f 1069/10/3 1070/10/3 1071/10/3
f 1071/10/3 1070/10/3 1017/10/3
f 1067/10/3 1072/10/3 932/10/3
f 932/10/3 1072/10/3 933/10/3
f 1070/10/3 1073/10/3 940/10/3
f 940/10/3 1073/10/3 941/10/3
f 1072/10/3 1074/10/3 380/10/3
f 380/10/3 1074/10/3 1014/10/3
f 1073/10/3 1075/10/3 388/10/3
f 388/10/3 1075/10/3 1016/10/3
f 92/4/3 1076/4/3 556/4/3
f 556/4/3 1076/4/3 1020/4/3
f 1076/4/3 1077/4/3 1034/4/3
f 1034/4/3 1077/4/3 1035/4/3
f 1077/4/3 1078/4/3 1044/4/3
f 1044/4/3 1078/4/3 1045/4/3
f 1078/4/3 1079/4/3 1036/4/3
f 1036/4/3 1079/4/3 1037/4/3
f 1079/4/3 91/4/3 1038/4/3
f 1038/4/3 91/4/3 1022/4/3
f 240/4/3 1080/4/3 700/4/3
f 700/4/3 1080/4/3 1030/4/3
f 1080/4/3 1081/4/3 1039/4/3
f 1039/4/3 1081/4/3 1040/4/3
f 1081/4/3 1082/4/3 1046/4/3
f 1046/4/3 1082/4/3 1047/4/3
f 1082/4/3 1083/4/3 1041/4/3
f 1041/4/3 1083/4/3 1042/4/3
f 1083/4/3 239/4/3 1043/4/3
f 1043/4/3 239/4/3 1032/4/3
f 960/11/3 1084/11/3 424/11/3
f 424/11/3 1084/11/3 1085/11/3
f 976/11/3 1086/11/3 458/11/3
f 458/11/3 1086/11/3 1087/11/3
f 1084/12/3 1088/12/3 1085/12/3
f 1085/12/3 1088/12/3 992/12/3
f 1086/12/3 1089/12/3 1087/12/3
f 1087/12/3 1089/12/3 995/12/3
f 1088/12/3 1090/12/3 1048/12/3
f 1048/12/3 1090/12/3 1054/12/3
f 1089/12/3 1091/12/3 1050/12/3
f 1050/12/3 1091/12/3 1055/12/3
f 1090/12/3 1092/12/3 1003/12/3
f 1003/12/3 1092/12/3 1058/12/3
f 1091/12/3 1093/12/3 1006/12/3
f 1006/12/3 1093/12/3 1061/12/3
f 1092/12/3 1094/12/3 1056/12/3
f 1056/12/3 1094/12/3 1064/12/3
f 1093/12/3 1095/12/3 1059/12/3
f 1059/12/3 1095/12/3 1065/12/3
f 1094/12/3 1096/12/3 1009/12/3
f 1009/12/3 1096/12/3 1068/12/3
f 1095/12/3 1097/12/3 1012/12/3
f 1012/12/3 1097/12/3 1071/12/3
f 1096/12/3 959/12/3 1066/12/3
f 1066/12/3 959/12/3 1074/12/3
f 1097/12/3 975/12/3 1069/12/3
f 1069/12/3 975/12/3 1075/12/3
f 37/5/3 36/5/3 494/5/3
f 494/5/3 36/5/3 69/5/3
f 45/5/3 44/5/3 506/5/3
f 506/5/3 44/5/3 73/5/3
f 53/5/3 52/5/3 518/5/3
f 518/5/3 52/5/3 77/5/3
f 61/5/3 60/5/3 530/5/3
f 530/5/3 60/5/3 81/5/3
f 757/2/3 756/2/3 754/2/3
f 754/2/3 756/2/3 755/2/3
f 798/2/3 797/2/3 795/2/3
f 795/2/3 797/2/3 796/2/3
f 836/2/3 835/2/3 833/2/3
f 833/2/3 835/2/3 834/2/3
f 427/2/3 426/2/3 791/2/3
f 791/2/3 426/2/3 961/2/3
f 461/2/3 460/2/3 829/2/3
f 829/2/3 460/2/3 977/2/3
f 765/2/3 764/2/3 758/2/3
f 758/2/3 764/2/3 759/2/3
f 806/2/3 805/2/3 799/2/3
f 799/2/3 805/2/3 800/2/3
f 844/2/3 843/2/3 837/2/3
f 837/2/3 843/2/3 838/2/3
f 420/2/3 419/2/3 428/2/3
f 428/2/3 419/2/3 425/2/3
f 454/2/3 453/2/3 462/2/3
f 462/2/3 453/2/3 459/2/3
f 775/2/3 774/2/3 766/2/3
f 766/2/3 774/2/3 767/2/3
f 813/2/3 812/2/3 807/2/3
f 807/2/3 812/2/3 808/2/3
f 850/2/3 849/2/3 845/2/3
f 845/2/3 849/2/3 846/2/3
f 416/2/3 415/2/3 421/2/3
f 421/2/3 415/2/3 418/2/3
f 450/2/3 449/2/3 455/2/3
f 455/2/3 449/2/3 452/2/3
f 412/2/3 411/2/3 417/2/3
f 417/2/3 411/2/3 414/2/3
f 446/2/3 445/2/3 451/2/3
f 451/2/3 445/2/3 448/2/3
f 247/2/4 706/2/4 232/2/4
f 232/2/4 706/2/4 696/2/4
f 233/2/4 695/2/4 230/2/4
f 230/2/4 695/2/4 694/2/4
f 231/2/4 697/2/4 245/2/4
f 245/2/4 697/2/4 705/2/4
f 265/2/4 721/2/4 263/2/4
f 263/2/4 721/2/4 720/2/4
f 269/2/4 725/2/4 267/2/4
f 267/2/4 725/2/4 724/2/4
f 275/2/4 731/2/4 273/2/4
f 273/2/4 731/2/4 730/2/4
f 300/2/4 768/2/4 297/2/4
f 297/2/4 768/2/4 762/2/4
f 268/2/4 726/2/4 310/2/4
f 310/2/4 726/2/4 803/2/4
f 323/2/4 847/2/4 320/2/4
f 320/2/4 847/2/4 841/2/4
f 397/9/4 947/9/4 395/9/4
f 395/9/4 947/9/4 946/9/4
f 431/9/4 963/9/4 429/9/4
f 429/9/4 963/9/4 962/9/4
f 465/9/4 979/9/4 463/9/4
f 463/9/4 979/9/4 978/9/4
f 32/10/4 1098/10/4 29/10/4
f 29/10/4 1098/10/4 89/10/4
f 1099/12/4 1100/12/4 1101/12/4
f 1101/12/4 1100/12/4 396/12/4
f 1102/12/4 1103/12/4 1104/12/4
f 1104/12/4 1103/12/4 430/12/4
f 1105/12/4 1106/12/4 1107/12/4
f 1107/12/4 1106/12/4 464/12/4
f 1108/4/4 1109/4/4 1110/4/4
f 1110/4/4 1109/4/4 554/4/4
f 1111/4/4 1112/4/4 1113/4/4
f 1113/4/4 1112/4/4 989/4/4
f 338/10/4 1114/10/4 1116/10/4
f 1116/10/4 1114/10/4 1115/10/4
f 346/10/4 1117/10/4 1119/10/4
f 1119/10/4 1117/10/4 1118/10/4
f 354/10/4 1120/10/4 1122/10/4
f 1122/10/4 1120/10/4 1121/10/4
f 358/10/4 1123/10/4 1125/10/4
f 1125/10/4 1123/10/4 1124/10/4
f 366/10/4 1126/10/4 1128/10/4
f 1128/10/4 1126/10/4 1127/10/4
f 374/10/4 1129/10/4 1131/10/4
f 1131/10/4 1129/10/4 1130/10/4
f 378/10/4 1132/10/4 1133/10/4
f 1133/10/4 1132/10/4 1101/10/4
f 386/10/4 1134/10/4 1135/10/4
f 1135/10/4 1134/10/4 1104/10/4
f 394/10/4 1136/10/4 1137/10/4
f 1137/10/4 1136/10/4 1107/10/4
f 8/6/4 487/6/4 5/6/4
f 5/6/4 487/6/4 486/6/4
f 12/6/4 499/6/4 9/6/4
f 9/6/4 499/6/4 498/6/4
f 16/6/4 511/6/4 13/6/4
f 13/6/4 511/6/4 510/6/4
f 20/6/4 523/6/4 17/6/4
f 17/6/4 523/6/4 522/6/4
f 672/4/4 987/4/4 1138/4/4
f 1138/4/4 987/4/4 1109/4/4
f 5/2/4 21/2/4 535/2/4
f 535/2/4 21/2/4 33/2/4
f 9/2/4 41/2/4 539/2/4
f 539/2/4 41/2/4 40/2/4
f 13/2/4 49/2/4 543/2/4
f 543/2/4 49/2/4 48/2/4
f 17/2/4 57/2/4 547/2/4
f 547/2/4 57/2/4 56/2/4
f 1138/1/4 1108/1/4 1140/1/4
f 1140/1/4 1108/1/4 1139/1/4
f 1140/4/4 1139/4/4 1027/4/4
f 1027/4/4 1139/4/4 1110/4/4
f 1026/4/4 699/4/4 1141/4/4
f 1141/4/4 699/4/4 1112/4/4
f 1141/1/4 1111/1/4 1143/1/4
f 1143/1/4 1111/1/4 1142/1/4
f 1143/4/4 1142/4/4 673/4/4
f 673/4/4 1142/4/4 1113/4/4
f 237/3/4 1/3/4 1144/3/4
f 1144/3/4 1/3/4 112/3/4
f 1144/3/4 671/3/4 1145/3/4
f 1145/3/4 671/3/4 670/3/4
f 1145/3/4 209/3/4 234/3/4
f 234/3/4 209/3/4 250/3/4
f 484/7/4 491/7/4 485/7/4
f 485/7/4 491/7/4 490/7/4
f 496/7/4 503/7/4 497/7/4
f 497/7/4 503/7/4 502/7/4
f 508/7/4 515/7/4 509/7/4
f 509/7/4 515/7/4 514/7/4
f 520/7/4 527/7/4 521/7/4
f 521/7/4 527/7/4 526/7/4
f 532/10/4 23/10/4 533/10/4
f 533/10/4 23/10/4 22/10/4
f 485/9/4 5/9/4 70/9/4
f 70/9/4 5/9/4 535/9/4
f 497/9/4 9/9/4 74/9/4
f 74/9/4 9/9/4 539/9/4
f 509/9/4 13/9/4 78/9/4
f 78/9/4 13/9/4 543/9/4
f 521/9/4 17/9/4 82/9/4
f 82/9/4 17/9/4 547/9/4
f 70/6/4 535/6/4 67/6/4
f 67/6/4 535/6/4 534/6/4
f 74/6/4 539/6/4 71/6/4
f 71/6/4 539/6/4 538/6/4
f 78/6/4 543/6/4 75/6/4
f 75/6/4 543/6/4 542/6/4
f 82/6/4 547/6/4 79/6/4
f 79/6/4 547/6/4 546/6/4
f 28/10/4 85/10/4 25/10/4
f 25/10/4 85/10/4 1098/10/4
f 1146/1/4 1147/1/4 1149/1/4
f 1149/1/4 1147/1/4 1148/1/4
f 1150/1/4 1151/1/4 1153/1/4
f 1153/1/4 1151/1/4 1152/1/4
f 857/10/4 301/10/4 858/10/4
f 858/10/4 301/10/4 326/10/4
f 866/10/4 313/10/4 867/10/4
f 867/10/4 313/10/4 331/10/4
f 888/8/4 337/8/4 889/8/4
f 889/8/4 337/8/4 336/8/4
f 896/8/4 345/8/4 897/8/4
f 897/8/4 345/8/4 344/8/4
f 904/8/4 353/8/4 905/8/4
f 905/8/4 353/8/4 352/8/4
f 908/8/4 357/8/4 909/8/4
f 909/8/4 357/8/4 356/8/4
f 916/8/4 365/8/4 917/8/4
f 917/8/4 365/8/4 364/8/4
f 924/8/4 373/8/4 925/8/4
f 925/8/4 373/8/4 372/8/4
f 928/8/4 377/8/4 929/8/4
f 929/8/4 377/8/4 376/8/4
f 936/8/4 385/8/4 937/8/4
f 937/8/4 385/8/4 384/8/4
f 944/8/4 393/8/4 945/8/4
f 945/8/4 393/8/4 392/8/4
f 1154/1/4 1155/1/4 1157/1/4
f 1157/1/4 1155/1/4 1156/1/4
f 1158/1/4 1159/1/4 1161/1/4
f 1161/1/4 1159/1/4 1160/1/4
f 1162/10/4 1099/10/4 1163/10/4
f 1163/10/4 1099/10/4 1114/10/4
f 1164/10/4 1102/10/4 1165/10/4
f 1165/10/4 1102/10/4 1117/10/4
f 1166/10/4 1105/10/4 1167/10/4
f 1167/10/4 1105/10/4 1120/10/4
f 1163/10/4 887/10/4 1168/10/4
f 1168/10/4 887/10/4 886/10/4
f 1165/10/4 895/10/4 1169/10/4
f 1169/10/4 895/10/4 894/10/4
f 1167/10/4 903/10/4 1170/10/4
f 1170/10/4 903/10/4 902/10/4
f 1168/10/4 335/10/4 1171/10/4
f 1171/10/4 335/10/4 1116/10/4
f 1169/10/4 343/10/4 1172/10/4
f 1172/10/4 343/10/4 1119/10/4
f 1170/10/4 351/10/4 1173/10/4
f 1173/10/4 351/10/4 1122/10/4
f 1174/10/4 1175/10/4 1176/10/4
f 1176/10/4 1175/10/4 1123/10/4
f 1177/10/4 1178/10/4 1179/10/4
f 1179/10/4 1178/10/4 1126/10/4
f 1180/10/4 1181/10/4 1182/10/4
f 1182/10/4 1181/10/4 1129/10/4
f 1176/10/4 907/10/4 1183/10/4
f 1183/10/4 907/10/4 906/10/4
f 1179/10/4 915/10/4 1184/10/4
f 1184/10/4 915/10/4 914/10/4
f 1182/10/4 923/10/4 1185/10/4
f 1185/10/4 923/10/4 922/10/4
f 1183/10/4 355/10/4 1186/10/4
f 1186/10/4 355/10/4 1125/10/4
f 1184/10/4 363/10/4 1187/10/4
f 1187/10/4 363/10/4 1128/10/4
f 1185/10/4 371/10/4 1188/10/4
f 1188/10/4 371/10/4 1131/10/4
f 1189/10/4 1190/10/4 1191/10/4
f 1191/10/4 1190/10/4 1132/10/4
f 1192/10/4 1193/10/4 1194/10/4
f 1194/10/4 1193/10/4 1134/10/4
f 1195/10/4 1196/10/4 1197/10/4
f 1197/10/4 1196/10/4 1136/10/4
f 1191/10/4 927/10/4 1198/10/4
f 1198/10/4 927/10/4 926/10/4
f 1194/10/4 935/10/4 1199/10/4
f 1199/10/4 935/10/4 934/10/4
f 1197/10/4 943/10/4 1200/10/4
f 1200/10/4 943/10/4 942/10/4
f 1198/10/4 375/10/4 1201/10/4
f 1201/10/4 375/10/4 1133/10/4
f 1199/10/4 383/10/4 1202/10/4
f 1202/10/4 383/10/4 1135/10/4
f 1200/10/4 391/10/4 1203/10/4
f 1203/10/4 391/10/4 1137/10/4
f 93/4/4 236/4/4 1204/4/4
f 1204/4/4 236/4/4 1147/4/4
f 1204/4/4 1146/4/4 1205/4/4
f 1205/4/4 1146/4/4 1155/4/4
f 1205/4/4 1154/4/4 1206/4/4
f 1206/4/4 1154/4/4 1157/4/4
f 1206/4/4 1156/4/4 1207/4/4
f 1207/4/4 1156/4/4 1149/4/4
f 1207/4/4 1148/4/4 90/4/4
f 90/4/4 1148/4/4 1024/4/4
f 241/4/4 1025/4/4 1208/4/4
f 1208/4/4 1025/4/4 1151/4/4
f 1208/4/4 1150/4/4 1209/4/4
f 1209/4/4 1150/4/4 1159/4/4
f 1209/4/4 1158/4/4 1210/4/4
f 1210/4/4 1158/4/4 1161/4/4
f 1210/4/4 1160/4/4 1211/4/4
f 1211/4/4 1160/4/4 1153/4/4
f 1211/4/4 1152/4/4 238/4/4
f 238/4/4 1152/4/4 235/4/4
f 752/11/4 295/11/4 1213/11/4
f 1213/11/4 295/11/4 1212/11/4
f 793/11/4 308/11/4 1215/11/4
f 1215/11/4 308/11/4 1214/11/4
f 831/11/4 318/11/4 1217/11/4
f 1217/11/4 318/11/4 1216/11/4
f 1213/12/4 1212/12/4 1218/12/4
f 1218/12/4 1212/12/4 1100/12/4
f 1215/12/4 1214/12/4 1219/12/4
f 1219/12/4 1214/12/4 1103/12/4
f 1217/12/4 1216/12/4 1220/12/4
f 1220/12/4 1216/12/4 1106/12/4
f 1218/12/4 1162/12/4 1221/12/4
f 1221/12/4 1162/12/4 1171/12/4
f 1219/12/4 1164/12/4 1222/12/4
f 1222/12/4 1164/12/4 1172/12/4
f 1220/12/4 1166/12/4 1223/12/4
f 1223/12/4 1166/12/4 1173/12/4
f 1221/12/4 1115/12/4 1224/12/4
f 1224/12/4 1115/12/4 1175/12/4
f 1222/12/4 1118/12/4 1225/12/4
f 1225/12/4 1118/12/4 1178/12/4
f 1223/12/4 1121/12/4 1226/12/4
f 1226/12/4 1121/12/4 1181/12/4
f 1224/12/4 1174/12/4 1227/12/4
f 1227/12/4 1174/12/4 1186/12/4
f 1225/12/4 1177/12/4 1228/12/4
f 1228/12/4 1177/12/4 1187/12/4
f 1226/12/4 1180/12/4 1229/12/4
f 1229/12/4 1180/12/4 1188/12/4
f 1227/12/4 1124/12/4 1230/12/4
f 1230/12/4 1124/12/4 1190/12/4
f 1228/12/4 1127/12/4 1231/12/4
f 1231/12/4 1127/12/4 1193/12/4
f 1229/12/4 1130/12/4 1232/12/4
f 1232/12/4 1130/12/4 1196/12/4
f 1230/12/4 1189/12/4 951/12/4
f 951/12/4 1189/12/4 1201/12/4
f 1231/12/4 1192/12/4 967/12/4
f 967/12/4 1192/12/4 1202/12/4
f 1232/12/4 1195/12/4 983/12/4
f 983/12/4 1195/12/4 1203/12/4
f 38/5/4 485/5/4 35/5/4
f 35/5/4 485/5/4 70/5/4
f 46/5/4 497/5/4 43/5/4
f 43/5/4 497/5/4 74/5/4
f 54/5/4 509/5/4 51/5/4
f 51/5/4 509/5/4 78/5/4
f 62/5/4 521/5/4 59/5/4
f 59/5/4 521/5/4 82/5/4
f 784/2/4 790/2/4 785/2/4
f 785/2/4 790/2/4 789/2/4
f 822/2/4 828/2/4 823/2/4
f 823/2/4 828/2/4 827/2/4
f 401/2/4 950/2/4 398/2/4
f 398/2/4 950/2/4 949/2/4
f 435/2/4 966/2/4 432/2/4
f 432/2/4 966/2/4 965/2/4
f 469/2/4 982/2/4 466/2/4
f 466/2/4 982/2/4 981/2/4
f 780/2/4 783/2/4 781/2/4
f 781/2/4 783/2/4 782/2/4
f 818/2/4 821/2/4 819/2/4
f 819/2/4 821/2/4 820/2/4
f 405/2/4 400/2/4 402/2/4
f 402/2/4 400/2/4 399/2/4
f 439/2/4 434/2/4 436/2/4
f 436/2/4 434/2/4 433/2/4
f 473/2/4 468/2/4 470/2/4
f 470/2/4 468/2/4 467/2/4
f 776/2/4 779/2/4 777/2/4
f 777/2/4 779/2/4 778/2/4
f 814/2/4 817/2/4 815/2/4
f 815/2/4 817/2/4 816/2/4
f 409/2/4 404/2/4 406/2/4
f 406/2/4 404/2/4 403/2/4
f 443/2/4 438/2/4 440/2/4
f 440/2/4 438/2/4 437/2/4
f 477/2/4 472/2/4 474/2/4
f 474/2/4 472/2/4 471/2/4
f 413/2/4 408/2/4 410/2/4
f 410/2/4 408/2/4 407/2/4
f 447/2/4 442/2/4 444/2/4
f 444/2/4 442/2/4 441/2/4
f 481/2/4 476/2/4 478/2/4
f 478/2/4 476/2/4 475/2/4
f 697/2/5 231/2/5 694/2/5
f 694/2/5 231/2/5 230/2/5
f 111/3/5 672/3/5 112/3/5
f 112/3/5 672/3/5 671/3/5
f 249/3/5 235/3/5 250/3/5
f 250/3/5 235/3/5 234/3/5
f 557/4/5 91/4/5 554/4/5
f 554/4/5 91/4/5 90/4/5
f 701/4/5 239/4/5 698/4/5
f 698/4/5 239/4/5 238/4/5
f 337/10/5 888/10/5 338/10/5
f 338/10/5 888/10/5 887/10/5
f 357/10/5 908/10/5 358/10/5
f 358/10/5 908/10/5 907/10/5
f 377/10/5 928/10/5 378/10/5
f 378/10/5 928/10/5 927/10/5
f 721/2/5 265/2/5 705/2/5
f 705/2/5 265/2/5 245/2/5
f 768/2/5 300/2/5 720/2/5
f 720/2/5 300/2/5 263/2/5
f 723/2/5 266/2/5 772/2/5
f 772/2/5 266/2/5 303/2/5
f 341/10/5 892/10/5 342/10/5
f 342/10/5 892/10/5 891/10/5
f 361/10/5 912/10/5 362/10/5
f 362/10/5 912/10/5 911/10/5
f 381/10/5 932/10/5 382/10/5
f 382/10/5 932/10/5 931/10/5
f 345/10/5 896/10/5 346/10/5
f 346/10/5 896/10/5 895/10/5
f 365/10/5 916/10/5 366/10/5
f 366/10/5 916/10/5 915/10/5
f 385/10/5 936/10/5 386/10/5
f 386/10/5 936/10/5 935/10/5
f 725/2/5 269/2/5 710/2/5
f 710/2/5 269/2/5 253/2/5
f 726/2/5 268/2/5 724/2/5
f 724/2/5 268/2/5 267/2/5
f 729/2/5 271/2/5 727/2/5
f 727/2/5 271/2/5 270/2/5
f 349/10/5 900/10/5 350/10/5
f 350/10/5 900/10/5 899/10/5
f 369/10/5 920/10/5 370/10/5
f 370/10/5 920/10/5 919/10/5
f 389/10/5 940/10/5 390/10/5
f 390/10/5 940/10/5 939/10/5
f 31/10/5 1233/10/5 32/10/5
f 32/10/5 1233/10/5 25/10/5
f 485/10/5 1234/10/5 482/10/5
f 482/10/5 1234/10/5 1233/10/5
f 39/2/5 536/2/5 33/2/5
f 33/2/5 536/2/5 535/2/5
f 537/6/5 68/6/5 534/6/5
f 534/6/5 68/6/5 67/6/5
f 69/5/5 36/5/5 70/5/5
f 70/5/5 36/5/5 35/5/5
f 497/10/5 1235/10/5 494/10/5
f 494/10/5 1235/10/5 1236/10/5
f 353/10/5 904/10/5 354/10/5
f 354/10/5 904/10/5 903/10/5
f 373/10/5 924/10/5 374/10/5
f 374/10/5 924/10/5 923/10/5
f 393/10/5 944/10/5 394/10/5
f 394/10/5 944/10/5 943/10/5
f 731/2/5 275/2/5 716/2/5
f 716/2/5 275/2/5 259/2/5
f 47/2/5 540/2/5 40/2/5
f 40/2/5 540/2/5 539/2/5
f 541/6/5 72/6/5 538/6/5
f 538/6/5 72/6/5 71/6/5
f 73/5/5 44/5/5 74/5/5
f 74/5/5 44/5/5 43/5/5
f 847/2/5 323/2/5 730/2/5
f 730/2/5 323/2/5 273/2/5
f 509/10/5 1237/10/5 506/10/5
f 506/10/5 1237/10/5 1238/10/5
f 55/2/5 544/2/5 48/2/5
f 48/2/5 544/2/5 543/2/5
f 545/6/5 76/6/5 542/6/5
f 542/6/5 76/6/5 75/6/5
f 77/5/5 52/5/5 78/5/5
f 78/5/5 52/5/5 51/5/5
f 521/10/5 1239/10/5 518/10/5
f 518/10/5 1239/10/5 1240/10/5
f 63/2/5 548/2/5 56/2/5
f 56/2/5 548/2/5 547/2/5
f 549/6/5 80/6/5 546/6/5
f 546/6/5 80/6/5 79/6/5
f 81/5/5 60/5/5 82/5/5
f 82/5/5 60/5/5 59/5/5
f 88/10/5 64/10/5 89/10/5
f 89/10/5 64/10/5 29/10/5
f 65/10/5 1241/10/5 22/10/5
f 22/10/5 1241/10/5 533/10/5
f 1241/10/5 26/10/5 530/10/5
f 530/10/5 26/10/5 1242/10/5
f 696/2/6 695/2/6 232/2/6
f 232/2/6 695/2/6 233/2/6
f 252/3/6 209/3/6 673/3/6
f 673/3/6 209/3/6 670/3/6
f 114/3/6 1/3/6 236/3/6
f 236/3/6 1/3/6 237/3/6
f 556/4/6 555/4/6 92/4/6
f 92/4/6 555/4/6 93/4/6
f 700/4/6 699/4/6 240/4/6
f 240/4/6 699/4/6 241/4/6
f 336/10/6 335/10/6 889/10/6
f 889/10/6 335/10/6 886/10/6
f 356/10/6 355/10/6 909/10/6
f 909/10/6 355/10/6 906/10/6
f 376/10/6 375/10/6 929/10/6
f 929/10/6 375/10/6 926/10/6
f 1243/11/6 295/11/6 755/11/6
f 755/11/6 295/11/6 752/11/6
f 754/2/6 950/2/6 757/2/6
f 757/2/6 950/2/6 401/2/6
f 758/2/6 400/2/6 765/2/6
f 765/2/6 400/2/6 405/2/6
f 762/9/6 947/9/6 297/9/6
f 297/9/6 947/9/6 397/9/6
f 296/12/6 1243/12/6 1244/12/6
f 1244/12/6 1243/12/6 755/12/6
f 766/2/6 404/2/6 775/2/6
f 775/2/6 404/2/6 409/2/6
f 299/10/6 296/10/6 1246/10/6
f 1246/10/6 296/10/6 1245/10/6
f 326/2/6 324/2/6 858/2/6
f 858/2/6 324/2/6 855/2/6
f 302/10/6 301/10/6 1247/10/6
f 1247/10/6 301/10/6 857/10/6
f 1247/10/6 856/10/6 1248/10/6
f 1248/10/6 856/10/6 1246/10/6
f 778/12/6 767/12/6 777/12/6
f 777/12/6 767/12/6 774/12/6
f 782/12/6 759/12/6 781/12/6
f 781/12/6 759/12/6 764/12/6
f 417/2/6 408/2/6 412/2/6
f 412/2/6 408/2/6 413/2/6
f 1249/12/6 302/12/6 1250/12/6
f 1250/12/6 302/12/6 1248/12/6
f 1250/12/6 1245/12/6 789/12/6
f 789/12/6 1245/12/6 1244/12/6
f 789/11/6 755/11/6 785/11/6
f 785/11/6 755/11/6 756/11/6
f 421/2/6 779/2/6 416/2/6
f 416/2/6 779/2/6 776/2/6
f 340/10/6 339/10/6 893/10/6
f 893/10/6 339/10/6 890/10/6
f 360/10/6 359/10/6 913/10/6
f 913/10/6 359/10/6 910/10/6
f 380/10/6 379/10/6 933/10/6
f 933/10/6 379/10/6 930/10/6
f 424/11/6 1249/11/6 960/11/6
f 960/11/6 1249/11/6 789/11/6
f 428/2/6 783/2/6 420/2/6
f 420/2/6 783/2/6 780/2/6
f 787/9/6 786/9/6 306/9/6
f 306/9/6 786/9/6 307/9/6
f 791/2/6 790/2/6 427/2/6
f 427/2/6 790/2/6 784/2/6
f 344/10/6 343/10/6 897/10/6
f 897/10/6 343/10/6 894/10/6
f 364/10/6 363/10/6 917/10/6
f 917/10/6 363/10/6 914/10/6
f 384/10/6 383/10/6 937/10/6
f 937/10/6 383/10/6 934/10/6
f 1251/11/6 308/11/6 796/11/6
f 796/11/6 308/11/6 793/11/6
f 795/2/6 966/2/6 798/2/6
f 798/2/6 966/2/6 435/2/6
f 799/2/6 434/2/6 806/2/6
f 806/2/6 434/2/6 439/2/6
f 803/9/6 963/9/6 310/9/6
f 310/9/6 963/9/6 431/9/6
f 309/12/6 1251/12/6 1252/12/6
f 1252/12/6 1251/12/6 796/12/6
f 807/2/6 438/2/6 813/2/6
f 813/2/6 438/2/6 443/2/6
f 329/10/6 309/10/6 1254/10/6
f 1254/10/6 309/10/6 1253/10/6
f 331/2/6 327/2/6 867/2/6
f 867/2/6 327/2/6 864/2/6
f 314/10/6 313/10/6 1255/10/6
f 1255/10/6 313/10/6 866/10/6
f 1255/10/6 865/10/6 1256/10/6
f 1256/10/6 865/10/6 1254/10/6
f 816/12/6 808/12/6 815/12/6
f 815/12/6 808/12/6 812/12/6
f 820/12/6 800/12/6 819/12/6
f 819/12/6 800/12/6 805/12/6
f 451/2/6 442/2/6 446/2/6
f 446/2/6 442/2/6 447/2/6
f 1257/12/6 314/12/6 1258/12/6
f 1258/12/6 314/12/6 1256/12/6
f 1258/12/6 1253/12/6 827/12/6
f 827/12/6 1253/12/6 1252/12/6
f 827/11/6 796/11/6 823/11/6
f 823/11/6 796/11/6 797/11/6
f 455/2/6 817/2/6 450/2/6
f 450/2/6 817/2/6 814/2/6
f 348/10/6 347/10/6 901/10/6
f 901/10/6 347/10/6 898/10/6
f 368/10/6 367/10/6 921/10/6
f 921/10/6 367/10/6 918/10/6
f 388/10/6 387/10/6 941/10/6
f 941/10/6 387/10/6 938/10/6
f 458/11/6 1257/11/6 976/11/6
f 976/11/6 1257/11/6 827/11/6
f 462/2/6 821/2/6 454/2/6
f 454/2/6 821/2/6 818/2/6
f 825/9/6 824/9/6 316/9/6
f 316/9/6 824/9/6 317/9/6
f 829/2/6 828/2/6 461/2/6
f 461/2/6 828/2/6 822/2/6
f 34/10/6 1259/10/6 1260/10/6
f 1260/10/6 1259/10/6 28/10/6
f 42/2/6 21/2/6 489/2/6
f 489/2/6 21/2/6 486/2/6
f 488/6/6 487/6/6 7/6/6
f 7/6/6 487/6/6 8/6/6
f 6/9/6 5/9/6 493/9/6
f 493/9/6 5/9/6 490/9/6
f 492/7/6 491/7/6 495/7/6
f 495/7/6 491/7/6 484/7/6
f 1236/5/6 1234/5/6 37/5/6
f 37/5/6 1234/5/6 38/5/6
f 352/10/6 351/10/6 905/10/6
f 905/10/6 351/10/6 902/10/6
f 372/10/6 371/10/6 925/10/6
f 925/10/6 371/10/6 922/10/6
f 392/10/6 391/10/6 945/10/6
f 945/10/6 391/10/6 942/10/6
f 1261/11/6 318/11/6 834/11/6
f 834/11/6 318/11/6 831/11/6
f 833/2/6 982/2/6 836/2/6
f 836/2/6 982/2/6 469/2/6
f 50/2/6 41/2/6 501/2/6
f 501/2/6 41/2/6 498/2/6
f 500/6/6 499/6/6 11/6/6
f 11/6/6 499/6/6 12/6/6
f 10/9/6 9/9/6 505/9/6
f 505/9/6 9/9/6 502/9/6
f 504/7/6 503/7/6 507/7/6
f 507/7/6 503/7/6 496/7/6
f 1238/5/6 1235/5/6 45/5/6
f 45/5/6 1235/5/6 46/5/6
f 837/2/6 468/2/6 844/2/6
f 844/2/6 468/2/6 473/2/6
f 841/9/6 979/9/6 320/9/6
f 320/9/6 979/9/6 465/9/6
f 319/12/6 1261/12/6 1262/12/6
f 1262/12/6 1261/12/6 834/12/6
f 845/2/6 472/2/6 850/2/6
f 850/2/6 472/2/6 477/2/6
f 58/2/6 49/2/6 513/2/6
f 513/2/6 49/2/6 510/2/6
f 512/6/6 511/6/6 15/6/6
f 15/6/6 511/6/6 16/6/6
f 14/9/6 13/9/6 517/9/6
f 517/9/6 13/9/6 514/9/6
f 516/7/6 515/7/6 519/7/6
f 519/7/6 515/7/6 508/7/6
f 322/10/6 319/10/6 1264/10/6
f 1264/10/6 319/10/6 1263/10/6
f 1240/5/6 1237/5/6 53/5/6
f 53/5/6 1237/5/6 54/5/6
f 66/2/6 57/2/6 525/2/6
f 525/2/6 57/2/6 522/2/6
f 524/6/6 523/6/6 19/6/6
f 19/6/6 523/6/6 20/6/6
f 18/9/6 17/9/6 529/9/6
f 529/9/6 17/9/6 526/9/6
f 528/7/6 527/7/6 531/7/6
f 531/7/6 527/7/6 520/7/6
f 1242/5/6 1239/5/6 61/5/6
f 61/5/6 1239/5/6 62/5/6
f 552/2/6 706/2/6 3/2/6
f 3/2/6 706/2/6 247/2/6
f 2/10/6 85/10/6 1265/10/6
f 1265/10/6 85/10/6 1259/10/6
f 1265/10/6 23/10/6 1266/10/6
f 1266/10/6 23/10/6 532/10/6
f 1266/10/6 483/10/6 27/10/6
f 27/10/6 483/10/6 1260/10/6
f 334/2/6 332/2/6 875/2/6
f 875/2/6 332/2/6 872/2/6
f 874/10/6 873/10/6 1267/10/6
f 1267/10/6 873/10/6 1264/10/6
f 1267/12/6 1263/12/6 1268/12/6
f 1268/12/6 1263/12/6 1262/12/6
f 1268/11/6 834/11/6 1269/11/6
f 1269/11/6 834/11/6 835/11/6
f 1269/12/6 838/12/6 1270/12/6
f 1270/12/6 838/12/6 843/12/6
f 1270/12/6 846/12/6 852/12/6
f 852/12/6 846/12/6 849/12/6
f 851/2/6 476/2/6 480/2/6
f 480/2/6 476/2/6 481/2/6
f 1271/2/1 1272/2/1 1274/2/1
f 1274/2/1 1272/2/1 1273/2/1
f 87/2/1 1275/2/1 3/2/1
f 3/2/1 1275/2/1 1274/2/1
f 1275/2/1 1276/2/1 1278/2/1
f 1278/2/1 1276/2/1 1277/2/1
f 1279/10/1 1280/10/1 1282/10/1
f 1282/10/1 1280/10/1 1281/10/1
f 1283/5/1 1284/5/1 1286/5/1
f 1286/5/1 1284/5/1 1285/5/1
f 1287/10/1 1288/10/1 1290/10/1
f 1290/10/1 1288/10/1 1289/10/1
f 1291/7/1 1292/7/1 1284/7/1
f 1284/7/1 1292/7/1 1293/7/1
f 1294/6/1 1295/6/1 1296/6/1
f 1296/6/1 1295/6/1 1283/6/1
f 1297/2/1 1298/2/1 1300/2/1
f 1300/2/1 1298/2/1 1299/2/1
f 1295/9/1 1301/9/1 1283/9/1
f 1283/9/1 1301/9/1 1284/9/1
f 1298/2/1 1302/2/1 1304/2/1
f 1304/2/1 1302/2/1 1303/2/1
f 1305/10/1 1306/10/1 1308/10/1
f 1308/10/1 1306/10/1 1307/10/1
f 1302/2/1 1309/2/1 1310/2/1
f 1310/2/1 1309/2/1 1272/2/1
f 1311/6/1 1312/6/1 1301/6/1
f 1301/6/1 1312/6/1 1313/6/1
f 1314/10/1 1315/10/1 1302/10/1
f 1302/10/1 1315/10/1 1316/10/1
f 1317/2/1 1318/2/1 1295/2/1
f 1295/2/1 1318/2/1 1301/2/1
f 1319/10/1 1320/10/1 87/10/1
f 87/10/1 1320/10/1 1276/10/1
f 1321/10/1 1322/10/1 1298/10/1
f 1298/10/1 1322/10/1 1302/10/1
f 1323/10/1 1324/10/1 1326/10/1
f 1326/10/1 1324/10/1 1325/10/1
f 1327/10/1 1328/10/1 1297/10/1
f 1297/10/1 1328/10/1 1298/10/1
f 1324/10/1 1329/10/1 1331/10/1
f 1331/10/1 1329/10/1 1330/10/1
f 1329/10/1 1332/10/1 1334/10/1
f 1334/10/1 1332/10/1 1333/10/1
f 1335/2/1 1336/2/1 1338/2/1
f 1338/2/1 1336/2/1 1337/2/1
f 1339/2/1 1340/2/1 1342/2/1
f 1342/2/1 1340/2/1 1341/2/1
f 1340/2/1 1343/2/1 1314/2/1
f 1314/2/1 1343/2/1 1315/2/1
f 1343/2/1 1344/2/1 1316/2/1
f 1316/2/1 1344/2/1 1309/2/1
f 1345/2/1 1346/2/1 1348/2/1
f 1348/2/1 1346/2/1 1347/2/1
f 1349/2/1 1350/2/1 1319/2/1
f 1319/2/1 1350/2/1 1348/2/1
f 1350/9/1 1351/9/1 1353/9/1
f 1353/9/1 1351/9/1 1352/9/1
f 1354/10/1 1355/10/1 1357/10/1
f 1357/10/1 1355/10/1 1356/10/1
f 1358/10/1 1359/10/1 1361/10/1
f 1361/10/1 1359/10/1 1360/10/1
f 1362/10/1 1363/10/1 1365/10/1
f 1365/10/1 1363/10/1 1364/10/1
f 479/2/1 1366/2/1 480/2/1
f 480/2/1 1366/2/1 1367/2/1
f 1368/2/1 1369/2/1 1371/2/1
f 1371/2/1 1369/2/1 1370/2/1
f 1372/2/1 1373/2/1 1375/2/1
f 1375/2/1 1373/2/1 1374/2/1
f 1376/9/1 1377/9/1 1378/9/1
f 1378/9/1 1377/9/1 1351/9/1
f 1379/2/1 1380/2/1 1382/2/1
f 1382/2/1 1380/2/1 1381/2/1
f 553/2/2 552/2/2 1384/2/2
f 1384/2/2 552/2/2 1383/2/2
f 1385/2/2 1386/2/2 1387/2/2
f 1387/2/2 1386/2/2 1384/2/2
f 1388/10/2 1389/10/2 1391/10/2
f 1391/10/2 1389/10/2 1390/10/2
f 1392/10/2 553/10/2 1393/10/2
f 1393/10/2 553/10/2 1386/10/2
f 1394/10/2 1395/10/2 1397/10/2
f 1397/10/2 1395/10/2 1396/10/2
f 1398/10/2 1399/10/2 1401/10/2
f 1401/10/2 1399/10/2 1400/10/2
f 1402/10/2 1403/10/2 1405/10/2
f 1405/10/2 1403/10/2 1404/10/2
f 1406/10/2 1385/10/2 1407/10/2
f 1407/10/2 1385/10/2 1389/10/2
f 1408/2/2 1409/2/2 1411/2/2
f 1411/2/2 1409/2/2 1410/2/2
f 1412/2/2 1413/2/2 1414/2/2
f 1414/2/2 1413/2/2 1393/2/2
f 1414/2/2 1406/2/2 1415/2/2
f 1415/2/2 1406/2/2 1407/2/2
f 1415/2/2 1388/2/2 1416/2/2
f 1416/2/2 1388/2/2 1391/2/2
f 1416/2/2 1390/2/2 1417/2/2
f 1417/2/2 1390/2/2 1387/2/2
f 1418/2/2 1419/2/2 1420/2/2
f 1420/2/2 1419/2/2 1413/2/2
f 1421/2/2 1392/2/2 1422/2/2
f 1422/2/2 1392/2/2 1419/2/2
f 852/2/2 851/2/2 1424/2/2
f 1424/2/2 851/2/2 1423/2/2
f 1425/2/2 1426/2/2 1428/2/2
f 1428/2/2 1426/2/2 1427/2/2
f 1429/2/2 1430/2/2 1432/2/2
f 1432/2/2 1430/2/2 1431/2/2
f 1422/9/2 1433/9/2 1435/9/2
f 1435/9/2 1433/9/2 1434/9/2
f 1436/2/2 1437/2/2 1439/2/2
f 1439/2/2 1437/2/2 1438/2/2
f 1440/10/2 1421/10/2 1441/10/2
f 1441/10/2 1421/10/2 1422/10/2
f 1442/10/2 1443/10/2 1445/10/2
f 1445/10/2 1443/10/2 1444/10/2
f 1446/10/2 1447/10/2 1449/10/2
f 1449/10/2 1447/10/2 1448/10/2
f 1450/10/2 1451/10/2 1453/10/2
f 1453/10/2 1451/10/2 1452/10/2
f 986/11/2 1440/11/2 1454/11/2
f 1454/11/2 1440/11/2 1441/11/2
f 1454/11/2 1422/11/2 1456/11/2
f 1456/11/2 1422/11/2 1455/11/2
f 1456/9/2 1455/9/2 1457/9/2
f 1457/9/2 1455/9/2 1435/9/2
f 1458/2/2 1459/2/2 1460/2/2
f 1460/2/2 1459/2/2 1439/2/2
f 1273/2/3 1338/2/3 1383/2/3
f 1383/2/3 1338/2/3 1409/2/3
f 1337/2/3 1336/2/3 1410/2/3
f 1410/2/3 1336/2/3 1411/2/3
f 1335/2/3 1344/2/3 1408/2/3
f 1408/2/3 1344/2/3 1417/2/3
f 1339/2/3 1346/2/3 1412/2/3
f 1412/2/3 1346/2/3 1420/2/3
f 1345/2/3 1353/2/3 1418/2/3
f 1418/2/3 1353/2/3 1433/2/3
f 1352/9/3 1377/9/3 1434/9/3
f 1434/9/3 1377/9/3 1457/9/3
f 1461/12/3 1462/12/3 1463/12/3
f 1463/12/3 1462/12/3 1376/12/3
f 1403/7/3 1396/7/3 1300/7/3
f 1300/7/3 1396/7/3 1277/7/3
f 1464/7/3 1400/7/3 1310/7/3
f 1310/7/3 1400/7/3 1303/7/3
f 1397/7/3 1402/7/3 1320/7/3
f 1320/7/3 1402/7/3 1327/7/3
f 1401/7/3 1465/7/3 1322/7/3
f 1322/7/3 1465/7/3 1341/7/3
f 1356/10/3 1466/10/3 1468/10/3
f 1468/10/3 1466/10/3 1467/10/3
f 1360/10/3 1469/10/3 1471/10/3
f 1471/10/3 1469/10/3 1470/10/3
f 1364/10/3 1472/10/3 1473/10/3
f 1473/10/3 1472/10/3 1462/10/3
f 1289/10/3 1332/10/3 1464/10/3
f 1464/10/3 1332/10/3 1465/10/3
f 1285/5/3 1284/5/3 1290/5/3
f 1290/5/3 1284/5/3 1287/5/3
f 1293/7/3 1292/7/3 1288/7/3
f 1288/7/3 1292/7/3 1307/7/3
f 1291/9/3 1301/9/3 1308/9/3
f 1308/9/3 1301/9/3 1305/9/3
f 1313/6/3 1312/6/3 1306/6/3
f 1306/6/3 1312/6/3 1333/6/3
f 1311/2/3 1318/2/3 1334/2/3
f 1334/2/3 1318/2/3 1330/2/3
f 1443/8/3 1442/8/3 1357/8/3
f 1357/8/3 1442/8/3 1354/8/3
f 1447/8/3 1446/8/3 1361/8/3
f 1361/8/3 1446/8/3 1358/8/3
f 1451/8/3 1450/8/3 1365/8/3
f 1365/8/3 1450/8/3 1362/8/3
f 1474/10/3 1475/10/3 1461/10/3
f 1461/10/3 1475/10/3 1468/10/3
f 1475/10/3 1476/10/3 1444/10/3
f 1444/10/3 1476/10/3 1445/10/3
f 1476/10/3 1477/10/3 1355/10/3
f 1355/10/3 1477/10/3 1466/10/3
f 1478/10/3 1479/10/3 1480/10/3
f 1480/10/3 1479/10/3 1471/10/3
f 1479/10/3 1481/10/3 1448/10/3
f 1448/10/3 1481/10/3 1449/10/3
f 1481/10/3 1482/10/3 1359/10/3
f 1359/10/3 1482/10/3 1469/10/3
f 1483/10/3 1484/10/3 1485/10/3
f 1485/10/3 1484/10/3 1473/10/3
f 1484/10/3 1486/10/3 1452/10/3
f 1452/10/3 1486/10/3 1453/10/3
f 1486/10/3 1487/10/3 1363/10/3
f 1363/10/3 1487/10/3 1472/10/3
f 1459/11/3 1488/11/3 1378/11/3
f 1378/11/3 1488/11/3 1489/11/3
f 1488/12/3 1490/12/3 1489/12/3
f 1489/12/3 1490/12/3 1463/12/3
f 1490/12/3 1491/12/3 1474/12/3
f 1474/12/3 1491/12/3 1477/12/3
f 1491/12/3 1492/12/3 1467/12/3
f 1467/12/3 1492/12/3 1480/12/3
f 1492/12/3 1493/12/3 1478/12/3
f 1478/12/3 1493/12/3 1482/12/3
f 1493/12/3 1494/12/3 1470/12/3
f 1470/12/3 1494/12/3 1485/12/3
f 1494/12/3 1458/12/3 1483/12/3
f 1483/12/3 1458/12/3 1487/12/3
f 1381/2/3 1380/2/3 1438/2/3
f 1438/2/3 1380/2/3 1460/2/3
f 1374/2/3 1373/2/3 1382/2/3
f 1382/2/3 1373/2/3 1379/2/3
f 1370/2/3 1369/2/3 1375/2/3
f 1375/2/3 1369/2/3 1372/2/3
f 1367/2/3 1366/2/3 1371/2/3
f 1371/2/3 1366/2/3 1368/2/3
f 1495/7/4 1271/7/4 1395/7/4
f 1395/7/4 1271/7/4 1278/7/4
f 1404/7/4 1299/7/4 1399/7/4
f 1399/7/4 1299/7/4 1304/7/4
f 1394/7/4 1347/7/4 1496/7/4
f 1496/7/4 1347/7/4 1342/7/4
f 1398/7/4 1321/7/4 1405/7/4
f 1405/7/4 1321/7/4 1328/7/4
f 1282/10/4 1495/10/4 1323/10/4
f 1323/10/4 1495/10/4 1496/10/4
f 1286/5/4 1281/5/4 1283/5/4
f 1283/5/4 1281/5/4 1280/5/4
f 1296/6/4 1279/6/4 1294/6/4
f 1294/6/4 1279/6/4 1326/6/4
f 1295/2/4 1325/2/4 1317/2/4
f 1317/2/4 1325/2/4 1331/2/4
f 874/10/4 1349/10/4 875/10/4
f 875/10/4 1349/10/4 334/10/4
f 1431/2/4 1437/2/4 1432/2/4
f 1432/2/4 1437/2/4 1436/2/4
f 1427/2/4 1430/2/4 1428/2/4
f 1428/2/4 1430/2/4 1429/2/4
f 1423/2/4 1426/2/4 1424/2/4
f 1424/2/4 1426/2/4 1425/2/4
f 1420/2/5 1346/2/5 1418/2/5
f 1418/2/5 1346/2/5 1345/2/5
f 1277/7/5 1396/7/5 1278/7/5
f 1278/7/5 1396/7/5 1395/7/5
f 1327/7/5 1402/7/5 1342/7/5
f 1342/7/5 1402/7/5 1496/7/5
f 1325/6/5 1295/6/5 1326/6/5
f 1326/6/5 1295/6/5 1294/6/5
f 1330/2/5 1318/2/5 1331/2/5
f 1331/2/5 1318/2/5 1317/2/5
f 1356/10/5 1444/10/5 1357/10/5
f 1357/10/5 1444/10/5 1443/10/5
f 1360/10/5 1448/10/5 1361/10/5
f 1361/10/5 1448/10/5 1447/10/5
f 1364/10/5 1452/10/5 1365/10/5
f 1365/10/5 1452/10/5 1451/10/5
f 1303/7/5 1400/7/5 1304/7/5
f 1304/7/5 1400/7/5 1399/7/5
f 1341/7/5 1465/7/5 1328/7/5
f 1328/7/5 1465/7/5 1405/7/5
f 1465/10/5 1332/10/5 1496/10/5
f 1496/10/5 1332/10/5 1323/10/5
f 1307/7/5 1292/7/5 1308/7/5
f 1308/7/5 1292/7/5 1291/7/5
f 1333/6/5 1312/6/5 1334/6/5
f 1334/6/5 1312/6/5 1311/6/5
f 1417/2/5 1344/2/5 1412/2/5
f 1412/2/5 1344/2/5 1339/2/5
f 1411/2/5 1336/2/5 1408/2/5
f 1408/2/5 1336/2/5 1335/2/5
f 1350/10/6 1349/10/6 1497/10/6
f 1497/10/6 1349/10/6 1267/10/6
f 1425/12/6 1270/12/6 1424/12/6
f 1424/12/6 1270/12/6 852/12/6
f 1429/12/6 1269/12/6 1428/12/6
f 1428/12/6 1269/12/6 1270/12/6
f 1371/2/6 851/2/6 1367/2/6
f 1367/2/6 851/2/6 480/2/6
f 1300/7/6 1271/7/6 1403/7/6
f 1403/7/6 1271/7/6 1495/7/6
f 1320/7/6 1347/7/6 1397/7/6
f 1397/7/6 1347/7/6 1394/7/6
f 1280/6/6 1279/6/6 1283/6/6
f 1283/6/6 1279/6/6 1296/6/6
f 1498/12/6 1350/12/6 1499/12/6
f 1499/12/6 1350/12/6 1497/12/6
f 1499/12/6 1267/12/6 1436/12/6
f 1436/12/6 1267/12/6 1268/12/6
f 1436/11/6 1268/11/6 1432/11/6
f 1432/11/6 1268/11/6 1269/11/6
f 1375/2/6 1426/2/6 1370/2/6
f 1370/2/6 1426/2/6 1423/2/6
f 1290/5/6 1281/5/6 1285/5/6
f 1285/5/6 1281/5/6 1286/5/6
f 1355/10/6 1354/10/6 1445/10/6
f 1445/10/6 1354/10/6 1442/10/6
f 1359/10/6 1358/10/6 1449/10/6
f 1449/10/6 1358/10/6 1446/10/6
f 1363/10/6 1362/10/6 1453/10/6
f 1453/10/6 1362/10/6 1450/10/6
f 1378/11/6 1498/11/6 1459/11/6
f 1459/11/6 1498/11/6 1436/11/6
f 1382/2/6 1430/2/6 1374/2/6
f 1374/2/6 1430/2/6 1427/2/6
f 1434/9/6 1433/9/6 1352/9/6
f 1352/9/6 1433/9/6 1353/9/6
f 1310/7/6 1299/7/6 1464/7/6
f 1464/7/6 1299/7/6 1404/7/6
f 1322/7/6 1321/7/6 1401/7/6
f 1401/7/6 1321/7/6 1398/7/6
f 1464/10/6 1495/10/6 1289/10/6
f 1289/10/6 1495/10/6 1282/10/6
f 1288/7/6 1287/7/6 1293/7/6
f 1293/7/6 1287/7/6 1284/7/6
f 1306/6/6 1305/6/6 1313/6/6
f 1313/6/6 1305/6/6 1301/6/6
f 1438/2/6 1437/2/6 1381/2/6
f 1381/2/6 1437/2/6 1431/2/6
f 1383/2/6 552/2/6 1273/2/6
f 1273/2/6 552/2/6 3/2/6
f 1410/2/6 1409/2/6 1337/2/6
f 1337/2/6 1409/2/6 1338/2/6
f 1500/9/1 1501/9/1 395/9/1
f 395/9/1 1501/9/1 396/9/1
f 1502/2/1 1503/2/1 398/2/1
f 398/2/1 1503/2/1 399/2/1
f 1504/2/1 1505/2/1 402/2/1
f 402/2/1 1505/2/1 403/2/1
f 1506/2/1 1507/2/1 406/2/1
f 406/2/1 1507/2/1 407/2/1
f 1508/2/1 1509/2/1 410/2/1
f 410/2/1 1509/2/1 411/2/1
f 1510/2/1 1511/2/1 414/2/1
f 414/2/1 1511/2/1 415/2/1
f 1501/9/1 1512/9/1 1514/9/1
f 1514/9/1 1512/9/1 1513/9/1
f 1515/2/1 1516/2/1 418/2/1
f 418/2/1 1516/2/1 419/2/1
f 1512/9/1 1517/9/1 422/9/1
f 422/9/1 1517/9/1 423/9/1
f 1518/2/1 1519/2/1 425/2/1
f 425/2/1 1519/2/1 426/2/1
f 1520/9/1 1521/9/1 429/9/1
f 429/9/1 1521/9/1 430/9/1
f 1522/2/1 1523/2/1 432/2/1
f 432/2/1 1523/2/1 433/2/1
f 1524/2/1 1525/2/1 436/2/1
f 436/2/1 1525/2/1 437/2/1
f 1526/2/1 1527/2/1 440/2/1
f 440/2/1 1527/2/1 441/2/1
f 1528/2/1 1529/2/1 444/2/1
f 444/2/1 1529/2/1 445/2/1
f 1530/2/1 1531/2/1 448/2/1
f 448/2/1 1531/2/1 449/2/1
f 1521/9/1 1532/9/1 1534/9/1
f 1534/9/1 1532/9/1 1533/9/1
f 1535/2/1 1536/2/1 452/2/1
f 452/2/1 1536/2/1 453/2/1
f 1532/9/1 1537/9/1 456/9/1
f 456/9/1 1537/9/1 457/9/1
f 1538/2/1 1539/2/1 459/2/1
f 459/2/1 1539/2/1 460/2/1
f 1540/9/1 1541/9/1 463/9/1
f 463/9/1 1541/9/1 464/9/1
f 1542/2/1 1543/2/1 466/2/1
f 466/2/1 1543/2/1 467/2/1
f 1544/2/1 1545/2/1 470/2/1
f 470/2/1 1545/2/1 471/2/1
f 1546/2/1 1547/2/1 474/2/1
f 474/2/1 1547/2/1 475/2/1
f 1541/9/1 1548/9/1 1550/9/1
f 1550/9/1 1548/9/1 1549/9/1
f 1551/2/1 1552/2/1 478/2/1
f 478/2/1 1552/2/1 479/2/1
f 1553/11/2 948/11/2 1554/11/2
f 1554/11/2 948/11/2 957/11/2
f 1555/11/2 964/11/2 1556/11/2
f 1556/11/2 964/11/2 973/11/2
f 1557/11/2 980/11/2 1558/11/2
f 1558/11/2 980/11/2 986/11/2
f 1559/9/2 946/9/2 1560/9/2
f 1560/9/2 946/9/2 948/9/2
f 1561/2/2 949/2/2 1562/2/2
f 1562/2/2 949/2/2 951/2/2
f 1562/2/2 1563/2/2 1565/2/2
f 1565/2/2 1563/2/2 1564/2/2
f 1566/2/2 1567/2/2 1569/2/2
f 1569/2/2 1567/2/2 1568/2/2
f 1570/2/2 1571/2/2 1573/2/2
f 1573/2/2 1571/2/2 1572/2/2
f 1574/2/2 1575/2/2 1577/2/2
f 1577/2/2 1575/2/2 1576/2/2
f 1578/2/2 1579/2/2 1581/2/2
f 1581/2/2 1579/2/2 1580/2/2
f 1582/2/2 1583/2/2 1585/2/2
f 1585/2/2 1583/2/2 1584/2/2
f 1560/9/2 1553/9/2 1586/9/2
f 1586/9/2 1553/9/2 1554/9/2
f 1587/2/2 1588/2/2 1590/2/2
f 1590/2/2 1588/2/2 1589/2/2
f 1586/9/2 957/9/2 1591/9/2
f 1591/9/2 957/9/2 958/9/2
f 1590/2/2 959/2/2 1592/2/2
f 1592/2/2 959/2/2 961/2/2
f 1593/9/2 962/9/2 1594/9/2
f 1594/9/2 962/9/2 964/9/2
f 1595/2/2 965/2/2 1596/2/2
f 1596/2/2 965/2/2 967/2/2
f 1596/2/2 1597/2/2 1599/2/2
f 1599/2/2 1597/2/2 1598/2/2
f 1600/2/2 1601/2/2 1603/2/2
f 1603/2/2 1601/2/2 1602/2/2
f 1604/2/2 1605/2/2 1607/2/2
f 1607/2/2 1605/2/2 1606/2/2
f 1608/2/2 1609/2/2 1611/2/2
f 1611/2/2 1609/2/2 1610/2/2
f 1612/2/2 1613/2/2 1615/2/2
f 1615/2/2 1613/2/2 1614/2/2
f 1616/2/2 1617/2/2 1619/2/2
f 1619/2/2 1617/2/2 1618/2/2
f 1594/9/2 1555/9/2 1620/9/2
f 1620/9/2 1555/9/2 1556/9/2
f 1621/2/2 1622/2/2 1624/2/2
f 1624/2/2 1622/2/2 1623/2/2
f 1620/9/2 973/9/2 1625/9/2
f 1625/9/2 973/9/2 974/9/2
f 1624/2/2 975/2/2 1626/2/2
f 1626/2/2 975/2/2 977/2/2
f 1627/9/2 978/9/2 1628/9/2
f 1628/9/2 978/9/2 980/9/2
f 1629/2/2 981/2/2 1630/2/2
f 1630/2/2 981/2/2 983/2/2
f 1630/2/2 1631/2/2 1633/2/2
f 1633/2/2 1631/2/2 1632/2/2
f 1634/2/2 1635/2/2 1637/2/2
f 1637/2/2 1635/2/2 1636/2/2
f 1638/2/2 1639/2/2 1641/2/2
f 1641/2/2 1639/2/2 1640/2/2
f 1628/9/2 1557/9/2 1642/9/2
f 1642/9/2 1557/9/2 1558/9/2
f 1643/2/2 1644/2/2 1646/2/2
f 1646/2/2 1644/2/2 1645/2/2
f 423/9/3 1517/9/3 958/9/3
f 958/9/3 1517/9/3 1591/9/3
f 457/9/3 1537/9/3 974/9/3
f 974/9/3 1537/9/3 1625/9/3
f 959/12/3 1647/12/3 422/12/3
f 422/12/3 1647/12/3 1648/12/3
f 975/12/3 1649/12/3 456/12/3
f 456/12/3 1649/12/3 1650/12/3
f 1647/11/3 1589/11/3 1648/11/3
f 1648/11/3 1589/11/3 1513/11/3
f 1649/11/3 1623/11/3 1650/11/3
f 1650/11/3 1623/11/3 1533/11/3
f 1567/2/3 1566/2/3 1564/2/3
f 1564/2/3 1566/2/3 1565/2/3
f 426/2/3 1519/2/3 961/2/3
f 961/2/3 1519/2/3 1592/2/3
f 1601/2/3 1600/2/3 1598/2/3
f 1598/2/3 1600/2/3 1599/2/3
f 460/2/3 1539/2/3 977/2/3
f 977/2/3 1539/2/3 1626/2/3
f 1635/2/3 1634/2/3 1632/2/3
f 1632/2/3 1634/2/3 1633/2/3
f 1571/2/3 1570/2/3 1568/2/3
f 1568/2/3 1570/2/3 1569/2/3
f 419/2/3 1516/2/3 425/2/3
f 425/2/3 1516/2/3 1518/2/3
f 1605/2/3 1604/2/3 1602/2/3
f 1602/2/3 1604/2/3 1603/2/3
f 453/2/3 1536/2/3 459/2/3
f 459/2/3 1536/2/3 1538/2/3
f 1639/2/3 1638/2/3 1636/2/3
f 1636/2/3 1638/2/3 1637/2/3
f 1575/2/3 1574/2/3 1572/2/3
f 1572/2/3 1574/2/3 1573/2/3
f 415/2/3 1511/2/3 418/2/3
f 418/2/3 1511/2/3 1515/2/3
f 1609/2/3 1608/2/3 1606/2/3
f 1606/2/3 1608/2/3 1607/2/3
f 449/2/3 1531/2/3 452/2/3
f 452/2/3 1531/2/3 1535/2/3
f 1644/2/3 1643/2/3 1640/2/3
f 1640/2/3 1643/2/3 1641/2/3
f 411/2/3 1509/2/3 414/2/3
f 414/2/3 1509/2/3 1510/2/3
f 445/2/3 1529/2/3 448/2/3
f 448/2/3 1529/2/3 1530/2/3
f 395/9/4 946/9/4 1500/9/4
f 1500/9/4 946/9/4 1559/9/4
f 429/9/4 962/9/4 1520/9/4
f 1520/9/4 962/9/4 1593/9/4
f 463/9/4 978/9/4 1540/9/4
f 1540/9/4 978/9/4 1627/9/4
f 951/12/4 396/12/4 1652/12/4
f 1652/12/4 396/12/4 1651/12/4
f 967/12/4 430/12/4 1654/12/4
f 1654/12/4 430/12/4 1653/12/4
f 983/12/4 464/12/4 1656/12/4
f 1656/12/4 464/12/4 1655/12/4
f 1652/11/4 1651/11/4 1563/11/4
f 1563/11/4 1651/11/4 1514/11/4
f 1654/11/4 1653/11/4 1597/11/4
f 1597/11/4 1653/11/4 1534/11/4
f 1656/11/4 1655/11/4 1631/11/4
f 1631/11/4 1655/11/4 1550/11/4
f 398/2/4 949/2/4 1502/2/4
f 1502/2/4 949/2/4 1561/2/4
f 1584/2/4 1588/2/4 1585/2/4
f 1585/2/4 1588/2/4 1587/2/4
f 432/2/4 965/2/4 1522/2/4
f 1522/2/4 965/2/4 1595/2/4
f 1618/2/4 1622/2/4 1619/2/4
f 1619/2/4 1622/2/4 1621/2/4
f 466/2/4 981/2/4 1542/2/4
f 1542/2/4 981/2/4 1629/2/4
f 402/2/4 399/2/4 1504/2/4
f 1504/2/4 399/2/4 1503/2/4
f 1580/2/4 1583/2/4 1581/2/4
f 1581/2/4 1583/2/4 1582/2/4
f 436/2/4 433/2/4 1524/2/4
f 1524/2/4 433/2/4 1523/2/4
f 1614/2/4 1617/2/4 1615/2/4
f 1615/2/4 1617/2/4 1616/2/4
f 470/2/4 467/2/4 1544/2/4
f 1544/2/4 467/2/4 1543/2/4
f 406/2/4 403/2/4 1506/2/4
f 1506/2/4 403/2/4 1505/2/4
f 1576/2/4 1579/2/4 1577/2/4
f 1577/2/4 1579/2/4 1578/2/4
f 440/2/4 437/2/4 1526/2/4
f 1526/2/4 437/2/4 1525/2/4
f 1610/2/4 1613/2/4 1611/2/4
f 1611/2/4 1613/2/4 1612/2/4
f 474/2/4 471/2/4 1546/2/4
f 1546/2/4 471/2/4 1545/2/4
f 410/2/4 407/2/4 1508/2/4
f 1508/2/4 407/2/4 1507/2/4
f 444/2/4 441/2/4 1528/2/4
f 1528/2/4 441/2/4 1527/2/4
f 478/2/4 475/2/4 1551/2/4
f 1551/2/4 475/2/4 1547/2/4
f 1657/11/5 1564/11/5 1514/11/5
f 1514/11/5 1564/11/5 1563/11/5
f 1565/2/5 1566/2/5 1561/2/5
f 1561/2/5 1566/2/5 1502/2/5
f 1569/2/5 1570/2/5 1503/2/5
f 1503/2/5 1570/2/5 1504/2/5
f 1573/2/5 1574/2/5 1505/2/5
f 1505/2/5 1574/2/5 1506/2/5
f 1579/12/5 1576/12/5 1572/12/5
f 1572/12/5 1576/12/5 1575/12/5
f 1583/12/5 1580/12/5 1568/12/5
f 1568/12/5 1580/12/5 1571/12/5
f 1510/2/5 1509/2/5 1507/2/5
f 1507/2/5 1509/2/5 1508/2/5
f 1658/12/5 1588/12/5 1657/12/5
f 1657/12/5 1588/12/5 1564/12/5
f 1588/11/5 1584/11/5 1564/11/5
f 1564/11/5 1584/11/5 1567/11/5
f 1515/2/5 1511/2/5 1578/2/5
f 1578/2/5 1511/2/5 1577/2/5
f 1513/11/5 1589/11/5 1658/11/5
f 1658/11/5 1589/11/5 1588/11/5
f 1518/2/5 1516/2/5 1582/2/5
f 1582/2/5 1516/2/5 1581/2/5
f 1591/9/5 1517/9/5 1559/9/5
f 1559/9/5 1517/9/5 1500/9/5
f 1592/2/5 1519/2/5 1587/2/5
f 1587/2/5 1519/2/5 1585/2/5
f 1659/11/5 1598/11/5 1534/11/5
f 1534/11/5 1598/11/5 1597/11/5
f 1599/2/5 1600/2/5 1595/2/5
f 1595/2/5 1600/2/5 1522/2/5
f 1603/2/5 1604/2/5 1523/2/5
f 1523/2/5 1604/2/5 1524/2/5
f 1607/2/5 1608/2/5 1525/2/5
f 1525/2/5 1608/2/5 1526/2/5
f 1613/12/5 1610/12/5 1606/12/5
f 1606/12/5 1610/12/5 1609/12/5
f 1617/12/5 1614/12/5 1602/12/5
f 1602/12/5 1614/12/5 1605/12/5
f 1530/2/5 1529/2/5 1527/2/5
f 1527/2/5 1529/2/5 1528/2/5
f 1660/12/5 1622/12/5 1659/12/5
f 1659/12/5 1622/12/5 1598/12/5
f 1622/11/5 1618/11/5 1598/11/5
f 1598/11/5 1618/11/5 1601/11/5
f 1535/2/5 1531/2/5 1612/2/5
f 1612/2/5 1531/2/5 1611/2/5
f 1533/11/5 1623/11/5 1660/11/5
f 1660/11/5 1623/11/5 1622/11/5
f 1538/2/5 1536/2/5 1616/2/5
f 1616/2/5 1536/2/5 1615/2/5
f 1625/9/5 1537/9/5 1593/9/5
f 1593/9/5 1537/9/5 1520/9/5
f 1626/2/5 1539/2/5 1621/2/5
f 1621/2/5 1539/2/5 1619/2/5
f 1661/11/5 1632/11/5 1550/11/5
f 1550/11/5 1632/11/5 1631/11/5
f 1633/2/5 1634/2/5 1629/2/5
f 1629/2/5 1634/2/5 1542/2/5
f 1637/2/5 1638/2/5 1543/2/5
f 1543/2/5 1638/2/5 1544/2/5
f 1641/2/5 1643/2/5 1545/2/5
f 1545/2/5 1643/2/5 1546/2/5
f 1642/9/5 1548/9/5 1627/9/5
f 1627/9/5 1548/9/5 1540/9/5
f 1549/12/5 1662/12/5 1661/12/5
f 1661/12/5 1662/12/5 1632/12/5
f 1662/11/5 1663/11/5 1632/11/5
f 1632/11/5 1663/11/5 1635/11/5
f 1663/12/5 1664/12/5 1636/12/5
f 1636/12/5 1664/12/5 1639/12/5
f 1664/12/5 1645/12/5 1640/12/5
f 1640/12/5 1645/12/5 1644/12/5
f 1646/2/5 1552/2/5 1547/2/5
f 1547/2/5 1552/2/5 1551/2/5
f 1552/2/1 1665/2/1 479/2/1
f 479/2/1 1665/2/1 1366/2/1
f 1666/2/1 1667/2/1 1368/2/1
f 1368/2/1 1667/2/1 1369/2/1
f 1548/9/1 1668/9/1 1549/9/1
f 1549/9/1 1668/9/1 1669/9/1
f 1670/2/1 1671/2/1 1372/2/1
f 1372/2/1 1671/2/1 1373/2/1
f 1668/9/1 1672/9/1 1376/9/1
f 1376/9/1 1672/9/1 1377/9/1
f 1673/2/1 1674/2/1 1379/2/1
f 1379/2/1 1674/2/1 1380/2/1
f 1558/11/2 986/11/2 1675/11/2
f 1675/11/2 986/11/2 1456/11/2
f 1646/2/2 1645/2/2 1677/2/2
f 1677/2/2 1645/2/2 1676/2/2
f 1678/2/2 1679/2/2 1681/2/2
f 1681/2/2 1679/2/2 1680/2/2
f 1682/2/2 1683/2/2 1685/2/2
f 1685/2/2 1683/2/2 1684/2/2
f 1642/9/2 1558/9/2 1686/9/2
f 1686/9/2 1558/9/2 1675/9/2
f 1687/2/2 1688/2/2 1690/2/2
f 1690/2/2 1688/2/2 1689/2/2
f 1686/9/2 1456/9/2 1691/9/2
f 1691/9/2 1456/9/2 1457/9/2
f 1690/2/2 1458/2/2 1692/2/2
f 1692/2/2 1458/2/2 1460/2/2
f 1377/9/3 1672/9/3 1457/9/3
f 1457/9/3 1672/9/3 1691/9/3
f 1458/12/3 1693/12/3 1376/12/3
f 1376/12/3 1693/12/3 1694/12/3
f 1693/11/3 1689/11/3 1694/11/3
f 1694/11/3 1689/11/3 1669/11/3
f 1380/2/3 1674/2/3 1460/2/3
f 1460/2/3 1674/2/3 1692/2/3
f 1373/2/3 1671/2/3 1379/2/3
f 1379/2/3 1671/2/3 1673/2/3
f 1369/2/3 1667/2/3 1372/2/3
f 1372/2/3 1667/2/3 1670/2/3
f 1366/2/3 1665/2/3 1368/2/3
f 1368/2/3 1665/2/3 1666/2/3
f 1684/2/4 1688/2/4 1685/2/4
f 1685/2/4 1688/2/4 1687/2/4
f 1680/2/4 1683/2/4 1681/2/4
f 1681/2/4 1683/2/4 1682/2/4
f 1676/2/4 1679/2/4 1677/2/4
f 1677/2/4 1679/2/4 1678/2/4
f 1679/12/5 1676/12/5 1664/12/5
f 1664/12/5 1676/12/5 1645/12/5
f 1683/12/5 1680/12/5 1663/12/5
f 1663/12/5 1680/12/5 1664/12/5
f 1666/2/5 1665/2/5 1646/2/5
f 1646/2/5 1665/2/5 1552/2/5
f 1695/12/5 1688/12/5 1549/12/5
f 1549/12/5 1688/12/5 1662/12/5
f 1688/11/5 1684/11/5 1662/11/5
f 1662/11/5 1684/11/5 1663/11/5
f 1670/2/5 1667/2/5 1678/2/5
f 1678/2/5 1667/2/5 1677/2/5
f 1669/11/5 1689/11/5 1695/11/5
f 1695/11/5 1689/11/5 1688/11/5
f 1673/2/5 1671/2/5 1682/2/5
f 1682/2/5 1671/2/5 1681/2/5
f 1691/9/5 1672/9/5 1642/9/5
f 1642/9/5 1672/9/5 1548/9/5
f 1692/2/5 1674/2/5 1687/2/5
f 1687/2/5 1674/2/5 1685/2/5
