# Vengi binary mesh normalized for Tanks of Freedom II

mtllib ../../../materials/vox_grass.mtl
o deckchair_1

v 0.5 0.2 0.1
v -0.2 0.2 0.1
v -0.2 0.2 0.2
v 0.5 0.2 0.2
v -0.2 0.3 0.1
v -0.3 0.3 0.1
v -0.3 0.3 0.2
v -0.2 0.3 0.2
v -0.3 0.4 0.1
v -0.4 0.4 0.1
v -0.4 0.4 0.2
v -0.3 0.4 0.2
v 0.5 0.2 0
v -0.2 0.2 0
v -0.2 0.3 0
v -0.3 0.3 0
v -0.3 0.4 0
v -0.4 0.4 0
v 0.5 0.2 -0.1
v -0.2 0.2 -0.1
v -0.2 0.3 -0.1
v -0.3 0.3 -0.1
v -0.3 0.4 -0.1
v -0.4 0.4 -0.1
v 0.5 0.2 -0.2
v -0.2 0.2 -0.2
v -0.2 0.3 -0.2
v -0.3 0.3 -0.2
v -0.3 0.4 -0.2
v -0.4 0.4 -0.2
v 0.5 0 0.1
v 0.5 0 0.2
v 0.4 0 0.2
v 0.4 0 0.1
v 0.4 0.1 0.1
v 0.4 0.1 0.2
v 0.1 0.1 0.2
v 0.1 0.1 0.1
v 0.1 0 0.1
v 0.1 0 0.2
v 0 0 0.2
v 0 0 0.1
v 0 0.1 0.1
v 0 0.1 0.2
v -0.2 0.1 0.2
v -0.2 0.1 0.1
v -0.3 0.2 0.2
v -0.3 0.2 0.1
v -0.3 0 0.1
v -0.3 0 0.2
v -0.4 0 0.2
v -0.4 0 0.1
v 0.5 0.1 0
v 0.5 0.1 0.1
v -0.2 0.1 0
v -0.3 0.2 0
v -0.4 0.3 0.1
v -0.4 0.3 0
v 0.5 0.1 -0.1
v -0.2 0.1 -0.1
v -0.3 0.2 -0.1
v -0.4 0.3 -0.1
v 0.5 0 -0.2
v 0.5 0 -0.1
v 0.4 0 -0.1
v 0.4 0 -0.2
v 0.4 0.1 -0.2
v 0.4 0.1 -0.1
v 0.1 0.1 -0.1
v 0.1 0.1 -0.2
v 0.1 0 -0.2
v 0.1 0 -0.1
v 0 0 -0.1
v 0 0 -0.2
v 0 0.1 -0.2
v 0 0.1 -0.1
v -0.2 0.1 -0.2
v -0.3 0.2 -0.2
v -0.3 0 -0.2
v -0.3 0 -0.1
v -0.4 0 -0.1
v -0.4 0 -0.2
v -0.4 0.3 0.2
v -0.4 0.3 -0.2
v 0.5 0.1 0.2
v 0.5 0.1 -0.2

vt 0.00585938 0.5
vt 0.0292969 0.5
vt 0.107422 0.5

vn 0 1 0
vn 0 -1 0
vn -1 0 0
vn 1 0 0
vn 0 0 -1
vn 0 0 1

usemtl palette
f 1/3/1 2/3/1 4/3/1
f 4/3/1 2/3/1 3/3/1
f 5/3/1 6/3/1 8/3/1
f 8/3/1 6/3/1 7/3/1
f 9/3/1 10/3/1 12/3/1
f 12/3/1 10/3/1 11/3/1
f 13/2/1 14/2/1 1/2/1
f 1/2/1 14/2/1 2/2/1
f 15/2/1 16/2/1 5/2/1
f 5/2/1 16/2/1 6/2/1
f 17/2/1 18/2/1 9/2/1
f 9/2/1 18/2/1 10/2/1
f 19/3/1 20/3/1 13/3/1
f 13/3/1 20/3/1 14/3/1
f 21/3/1 22/3/1 15/3/1
f 15/3/1 22/3/1 16/3/1
f 23/3/1 24/3/1 17/3/1
f 17/3/1 24/3/1 18/3/1
f 25/2/1 26/2/1 19/2/1
f 19/2/1 26/2/1 20/2/1
f 27/2/1 28/2/1 21/2/1
f 21/2/1 28/2/1 22/2/1
f 29/2/1 30/2/1 23/2/1
f 23/2/1 30/2/1 24/2/1
f 31/1/2 32/1/2 34/1/2
f 34/1/2 32/1/2 33/1/2
f 35/3/2 36/3/2 38/3/2
f 38/3/2 36/3/2 37/3/2
f 39/1/2 40/1/2 42/1/2
f 42/1/2 40/1/2 41/1/2
f 43/3/2 44/3/2 46/3/2
f 46/3/2 44/3/2 45/3/2
f 2/3/2 3/3/2 48/3/2
f 48/3/2 3/3/2 47/3/2
f 49/1/2 50/1/2 52/1/2
f 52/1/2 50/1/2 51/1/2
f 53/2/2 54/2/2 55/2/2
f 55/2/2 54/2/2 46/2/2
f 14/2/2 2/2/2 56/2/2
f 56/2/2 2/2/2 48/2/2
f 16/2/2 6/2/2 58/2/2
f 58/2/2 6/2/2 57/2/2
f 59/3/2 53/3/2 60/3/2
f 60/3/2 53/3/2 55/3/2
f 20/3/2 14/3/2 61/3/2
f 61/3/2 14/3/2 56/3/2
f 22/3/2 16/3/2 62/3/2
f 62/3/2 16/3/2 58/3/2
f 63/1/2 64/1/2 66/1/2
f 66/1/2 64/1/2 65/1/2
f 67/2/2 68/2/2 70/2/2
f 70/2/2 68/2/2 69/2/2
f 71/1/2 72/1/2 74/1/2
f 74/1/2 72/1/2 73/1/2
f 75/2/2 76/2/2 77/2/2
f 77/2/2 76/2/2 60/2/2
f 26/2/2 20/2/2 78/2/2
f 78/2/2 20/2/2 61/2/2
f 79/1/2 80/1/2 82/1/2
f 82/1/2 80/1/2 81/1/2
f 36/1/3 35/1/3 33/1/3
f 33/1/3 35/1/3 34/1/3
f 44/1/3 43/1/3 41/1/3
f 41/1/3 43/1/3 42/1/3
f 68/1/3 67/1/3 65/1/3
f 65/1/3 67/1/3 66/1/3
f 76/1/3 75/1/3 73/1/3
f 73/1/3 75/1/3 74/1/3
f 3/3/3 2/3/3 45/3/3
f 45/3/3 2/3/3 46/3/3
f 2/2/3 14/2/3 46/2/3
f 46/2/3 14/2/3 55/2/3
f 14/3/3 20/3/3 55/3/3
f 55/3/3 20/3/3 60/3/3
f 20/2/3 26/2/3 60/2/3
f 60/2/3 26/2/3 77/2/3
f 83/1/3 57/1/3 51/1/3
f 51/1/3 57/1/3 52/1/3
f 6/2/3 16/2/3 48/2/3
f 48/2/3 16/2/3 56/2/3
f 16/3/3 22/3/3 56/3/3
f 56/3/3 22/3/3 61/3/3
f 62/1/3 84/1/3 81/1/3
f 81/1/3 84/1/3 82/1/3
f 11/3/3 10/3/3 83/3/3
f 83/3/3 10/3/3 57/3/3
f 10/2/3 18/2/3 57/2/3
f 57/2/3 18/2/3 58/2/3
f 18/3/3 24/3/3 58/3/3
f 58/3/3 24/3/3 62/3/3
f 24/2/3 30/2/3 62/2/3
f 62/2/3 30/2/3 84/2/3
f 85/1/4 32/1/4 54/1/4
f 54/1/4 32/1/4 31/1/4
f 37/1/4 40/1/4 38/1/4
f 38/1/4 40/1/4 39/1/4
f 59/1/4 64/1/4 86/1/4
f 86/1/4 64/1/4 63/1/4
f 69/1/4 72/1/4 70/1/4
f 70/1/4 72/1/4 71/1/4
f 4/3/4 85/3/4 1/3/4
f 1/3/4 85/3/4 54/3/4
f 47/1/4 50/1/4 48/1/4
f 48/1/4 50/1/4 49/1/4
f 1/2/4 54/2/4 13/2/4
f 13/2/4 54/2/4 53/2/4
f 13/3/4 53/3/4 19/3/4
f 19/3/4 53/3/4 59/3/4
f 19/2/4 59/2/4 25/2/4
f 25/2/4 59/2/4 86/2/4
f 61/1/4 80/1/4 78/1/4
f 78/1/4 80/1/4 79/1/4
f 8/3/4 3/3/4 5/3/4
f 5/3/4 3/3/4 2/3/4
f 5/2/4 2/2/4 15/2/4
f 15/2/4 2/2/4 14/2/4
f 15/3/4 14/3/4 21/3/4
f 21/3/4 14/3/4 20/3/4
f 21/2/4 20/2/4 27/2/4
f 27/2/4 20/2/4 26/2/4
f 12/3/4 7/3/4 9/3/4
f 9/3/4 7/3/4 6/3/4
f 9/2/4 6/2/4 17/2/4
f 17/2/4 6/2/4 16/2/4
f 17/3/4 16/3/4 23/3/4
f 23/3/4 16/3/4 22/3/4
f 23/2/4 22/2/4 29/2/4
f 29/2/4 22/2/4 28/2/4
f 34/1/5 35/1/5 31/1/5
f 31/1/5 35/1/5 54/1/5
f 66/1/5 67/1/5 63/1/5
f 63/1/5 67/1/5 86/1/5
f 42/1/5 43/1/5 39/1/5
f 39/1/5 43/1/5 38/1/5
f 74/1/5 75/1/5 71/1/5
f 71/1/5 75/1/5 70/1/5
f 77/2/5 26/2/5 86/2/5
f 86/2/5 26/2/5 25/2/5
f 78/2/5 28/2/5 26/2/5
f 26/2/5 28/2/5 27/2/5
f 52/1/5 57/1/5 49/1/5
f 49/1/5 57/1/5 6/1/5
f 82/1/5 84/1/5 79/1/5
f 79/1/5 84/1/5 28/1/5
f 84/2/5 30/2/5 28/2/5
f 28/2/5 30/2/5 29/2/5
f 33/1/6 32/1/6 36/1/6
f 36/1/6 32/1/6 85/1/6
f 65/1/6 64/1/6 68/1/6
f 68/1/6 64/1/6 59/1/6
f 41/1/6 40/1/6 44/1/6
f 44/1/6 40/1/6 37/1/6
f 73/1/6 72/1/6 76/1/6
f 76/1/6 72/1/6 69/1/6
f 45/3/6 85/3/6 3/3/6
f 3/3/6 85/3/6 4/3/6
f 47/3/6 3/3/6 7/3/6
f 7/3/6 3/3/6 8/3/6
f 51/1/6 50/1/6 83/1/6
f 83/1/6 50/1/6 7/1/6
f 81/1/6 80/1/6 62/1/6
f 62/1/6 80/1/6 22/1/6
f 83/3/6 7/3/6 11/3/6
f 11/3/6 7/3/6 12/3/6
