# Vengi binary mesh normalized for Tanks of Freedom II

mtllib ../../../materials/vox_grass.mtl
o umbrella_2

v 0.2 0.8 0.4
v -0.6 0.8 0.4
v -0.6 0.8 0.5
v 0.2 0.8 0.5
v 0.3 0.8 0.3
v 0.2 0.8 0.3
v 0.3 0.8 0.5
v 0.1 0.9 0.3
v -0.5 0.9 0.3
v -0.5 0.9 0.4
v 0.1 0.9 0.4
v -0.5 0.8 0.3
v -0.7 0.8 0.3
v -0.7 0.8 0.4
v -0.5 0.8 0.4
v 0.2 0.9 0.2
v 0.1 0.9 0.2
v 0.2 0.9 0.4
v 0 1 0.2
v -0.4 1 0.2
v -0.4 1 0.3
v 0 1 0.3
v -0.4 0.9 0.2
v -0.6 0.9 0.2
v -0.6 0.9 0.3
v -0.4 0.9 0.3
v 0.1 1 0.1
v 0 1 0.1
v 0.1 1 0.3
v -0.3 1 0.1
v -0.5 1 0.1
v -0.5 1 0.2
v -0.3 1 0.2
v -0.1 1.1 0
v -0.3 1.1 0
v -0.3 1.1 0.2
v -0.1 1.1 0.2
v 0.1 0.4 -0.1
v 0 0.4 -0.1
v 0 0.4 0
v 0.1 0.4 0
v 0 0.8 -0.1
v -0.1 0.8 -0.1
v -0.1 0.8 0
v 0 0.8 0
v -0.1 1.2 -0.1
v -0.2 1.2 -0.1
v -0.2 1.2 0
v -0.1 1.2 0
v 0.1 1.1 -0.2
v 0 1.1 -0.2
v 0 1.1 0.1
v 0.1 1.1 0.1
v -0.3 1.1 -0.2
v -0.4 1.1 -0.2
v -0.4 1.1 0.1
v -0.3 1.1 0.1
v 0.2 1 -0.3
v 0.1 1 -0.3
v 0.1 1 0.2
v 0.2 1 0.2
v 0 1.1 -0.3
v -0.1 1.1 -0.3
v 0 1.1 0.2
v -0.2 1.1 -0.3
v -0.2 1.1 -0.1
v -0.1 1.1 -0.1
v -0.3 1.1 -0.3
v -0.2 1.1 0
v -0.4 1 -0.3
v -0.5 1 -0.3
v -0.4 1 0.1
v 0.3 0.9 -0.4
v 0.2 0.9 -0.4
v 0.2 0.9 0.3
v 0.3 0.9 0.3
v 0.1 1 -0.4
v 0 1 -0.4
v 0 1 -0.2
v 0.1 1 -0.2
v -0.3 1 -0.4
v -0.3 1 -0.3
v 0 1 -0.3
v -0.4 1 -0.4
v -0.4 1 -0.2
v -0.3 1 -0.2
v -0.5 0.9 -0.4
v -0.6 0.9 -0.4
v -0.5 0.9 0.2
v 0.4 0.8 -0.5
v 0.3 0.8 -0.5
v 0.3 0.8 0.4
v 0.4 0.8 0.4
v 0.2 0.9 -0.5
v 0.1 0.9 -0.5
v 0.1 0.9 -0.3
v 0.2 0.9 -0.3
v -0.4 0.9 -0.5
v -0.4 0.9 -0.4
v 0.1 0.9 -0.4
v -0.5 0.9 -0.5
v -0.5 0.9 -0.3
v -0.4 0.9 -0.3
v -0.6 0.8 -0.5
v -0.7 0.8 -0.5
v -0.6 0.8 0.3
v 0.3 0.8 -0.6
v 0.2 0.8 -0.6
v 0.2 0.8 -0.4
v 0.3 0.8 -0.4
v -0.5 0.8 -0.6
v -0.5 0.8 -0.5
v 0.2 0.8 -0.5
v -0.6 0.8 -0.6
v -0.6 0.8 -0.4
v -0.5 0.8 -0.4
v 0.2 0.7 0.4
v 0.2 0.7 0.5
v -0.6 0.7 0.5
v -0.6 0.7 0.4
v 0.3 0.7 0.3
v 0.3 0.7 0.5
v 0.2 0.7 0.3
v 0.1 0.8 0.3
v 0.1 0.8 0.4
v -0.5 0.7 0.3
v -0.5 0.7 0.4
v -0.7 0.7 0.4
v -0.7 0.7 0.3
v 0.2 0.8 0.2
v 0.1 0.8 0.2
v 0 0.9 0.2
v 0 0.9 0.3
v -0.4 0.8 0.2
v -0.4 0.8 0.3
v -0.6 0.8 0.2
v 0.1 0.9 0.1
v 0 0.9 0.1
v -0.3 0.9 0.1
v -0.3 0.9 0.2
v -0.5 0.9 0.1
v -0.1 1 0
v -0.1 1 0.2
v -0.3 1 0
v 0.1 0 -0.1
v 0.1 0 0
v 0 0 0
v 0 0 -0.1
v -0.1 0.4 0
v -0.1 0.4 -0.1
v -0.2 0.8 0
v -0.2 0.8 -0.1
v -0.1 1 -0.3
v -0.1 1 -0.1
v -0.2 1 -0.1
v -0.2 1 -0.3
v -0.2 1 0
v -0.4 0.9 0.1
v 0.1 0.9 -0.2
v 0 0.9 -0.2
v 0 0.9 -0.4
v 0 0.9 -0.3
v -0.3 0.9 -0.3
v -0.3 0.9 -0.4
v -0.3 0.9 -0.2
v -0.4 0.9 -0.2
v -0.5 0.8 0.2
v 0.4 0.7 -0.5
v 0.4 0.7 0.4
v 0.3 0.7 0.4
v 0.3 0.7 -0.5
v 0.2 0.8 -0.3
v 0.1 0.8 -0.3
v 0.1 0.8 -0.5
v 0.1 0.8 -0.4
v -0.4 0.8 -0.4
v -0.4 0.8 -0.5
v -0.4 0.8 -0.3
v -0.5 0.8 -0.3
v -0.6 0.7 -0.5
v -0.6 0.7 0.3
v -0.7 0.7 -0.5
v 0.3 0.7 -0.6
v 0.3 0.7 -0.4
v 0.2 0.7 -0.4
v 0.2 0.7 -0.6
v 0.2 0.7 -0.5
v -0.5 0.7 -0.5
v -0.5 0.7 -0.6
v -0.5 0.7 -0.4
v -0.6 0.7 -0.4
v -0.6 0.7 -0.6

vt 0.00585938 0.5
vt 0.0488281 0.5
vt 0.0996094 0.5

vn 0 1 0
vn 0 -1 0
vn -1 0 0
vn 1 0 0
vn 0 0 -1
vn 0 0 1

usemtl palette
f 1/3/1 2/3/1 4/3/1
f 4/3/1 2/3/1 3/3/1
f 5/3/1 6/3/1 7/3/1
f 7/3/1 6/3/1 4/3/1
f 8/2/1 9/2/1 11/2/1
f 11/2/1 9/2/1 10/2/1
f 12/3/1 13/3/1 15/3/1
f 15/3/1 13/3/1 14/3/1
f 16/2/1 17/2/1 18/2/1
f 18/2/1 17/2/1 11/2/1
f 19/3/1 20/3/1 22/3/1
f 22/3/1 20/3/1 21/3/1
f 23/2/1 24/2/1 26/2/1
f 26/2/1 24/2/1 25/2/1
f 27/3/1 28/3/1 29/3/1
f 29/3/1 28/3/1 22/3/1
f 30/3/1 31/3/1 33/3/1
f 33/3/1 31/3/1 32/3/1
f 34/2/1 35/2/1 37/2/1
f 37/2/1 35/2/1 36/2/1
f 38/1/1 39/1/1 41/1/1
f 41/1/1 39/1/1 40/1/1
f 42/1/1 43/1/1 45/1/1
f 45/1/1 43/1/1 44/1/1
f 46/1/1 47/1/1 49/1/1
f 49/1/1 47/1/1 48/1/1
f 50/2/1 51/2/1 53/2/1
f 53/2/1 51/2/1 52/2/1
f 54/2/1 55/2/1 57/2/1
f 57/2/1 55/2/1 56/2/1
f 58/3/1 59/3/1 61/3/1
f 61/3/1 59/3/1 60/3/1
f 62/2/1 63/2/1 64/2/1
f 64/2/1 63/2/1 37/2/1
f 63/2/1 65/2/1 67/2/1
f 67/2/1 65/2/1 66/2/1
f 65/2/1 68/2/1 69/2/1
f 69/2/1 68/2/1 35/2/1
f 70/3/1 71/3/1 72/3/1
f 72/3/1 71/3/1 31/3/1
f 73/2/1 74/2/1 76/2/1
f 76/2/1 74/2/1 75/2/1
f 77/3/1 78/3/1 80/3/1
f 80/3/1 78/3/1 79/3/1
f 78/3/1 81/3/1 83/3/1
f 83/3/1 81/3/1 82/3/1
f 81/3/1 84/3/1 86/3/1
f 86/3/1 84/3/1 85/3/1
f 87/2/1 88/2/1 89/2/1
f 89/2/1 88/2/1 24/2/1
f 90/3/1 91/3/1 93/3/1
f 93/3/1 91/3/1 92/3/1
f 94/2/1 95/2/1 97/2/1
f 97/2/1 95/2/1 96/2/1
f 95/2/1 98/2/1 100/2/1
f 100/2/1 98/2/1 99/2/1
f 98/2/1 101/2/1 103/2/1
f 103/2/1 101/2/1 102/2/1
f 104/3/1 105/3/1 106/3/1
f 106/3/1 105/3/1 13/3/1
f 107/3/1 108/3/1 110/3/1
f 110/3/1 108/3/1 109/3/1
f 108/3/1 111/3/1 113/3/1
f 113/3/1 111/3/1 112/3/1
f 111/3/1 114/3/1 116/3/1
f 116/3/1 114/3/1 115/3/1
f 117/3/2 118/3/2 120/3/2
f 120/3/2 118/3/2 119/3/2
f 121/3/2 122/3/2 123/3/2
f 123/3/2 122/3/2 118/3/2
f 124/2/2 125/2/2 12/2/2
f 12/2/2 125/2/2 15/2/2
f 126/3/2 127/3/2 129/3/2
f 129/3/2 127/3/2 128/3/2
f 130/2/2 1/2/2 131/2/2
f 131/2/2 1/2/2 125/2/2
f 132/3/2 133/3/2 23/3/2
f 23/3/2 133/3/2 26/3/2
f 134/2/2 135/2/2 136/2/2
f 136/2/2 135/2/2 106/2/2
f 137/3/2 8/3/2 138/3/2
f 138/3/2 8/3/2 133/3/2
f 139/3/2 140/3/2 141/3/2
f 141/3/2 140/3/2 89/3/2
f 142/2/2 143/2/2 144/2/2
f 144/2/2 143/2/2 33/2/2
f 145/1/2 146/1/2 148/1/2
f 148/1/2 146/1/2 147/1/2
f 39/1/2 40/1/2 150/1/2
f 150/1/2 40/1/2 149/1/2
f 43/1/2 44/1/2 152/1/2
f 152/1/2 44/1/2 151/1/2
f 80/2/2 27/2/2 79/2/2
f 79/2/2 27/2/2 28/2/2
f 86/2/2 30/2/2 85/2/2
f 85/2/2 30/2/2 72/2/2
f 97/3/2 16/3/2 96/3/2
f 96/3/2 16/3/2 17/3/2
f 83/2/2 19/2/2 153/2/2
f 153/2/2 19/2/2 143/2/2
f 153/2/2 154/2/2 156/2/2
f 156/2/2 154/2/2 155/2/2
f 156/2/2 157/2/2 82/2/2
f 82/2/2 157/2/2 144/2/2
f 103/3/2 158/3/2 102/3/2
f 102/3/2 158/3/2 141/3/2
f 110/2/2 5/2/2 109/2/2
f 109/2/2 5/2/2 6/2/2
f 100/3/2 159/3/2 161/3/2
f 161/3/2 159/3/2 160/3/2
f 161/3/2 162/3/2 164/3/2
f 164/3/2 162/3/2 163/3/2
f 164/3/2 165/3/2 99/3/2
f 99/3/2 165/3/2 166/3/2
f 116/2/2 167/2/2 115/2/2
f 115/2/2 167/2/2 136/2/2
f 168/3/2 169/3/2 171/3/2
f 171/3/2 169/3/2 170/3/2
f 113/2/2 172/2/2 174/2/2
f 174/2/2 172/2/2 173/2/2
f 174/2/2 175/2/2 177/2/2
f 177/2/2 175/2/2 176/2/2
f 177/2/2 178/2/2 112/2/2
f 112/2/2 178/2/2 179/2/2
f 180/3/2 181/3/2 182/3/2
f 182/3/2 181/3/2 129/3/2
f 183/3/2 184/3/2 186/3/2
f 186/3/2 184/3/2 185/3/2
f 186/3/2 187/3/2 189/3/2
f 189/3/2 187/3/2 188/3/2
f 189/3/2 190/3/2 192/3/2
f 192/3/2 190/3/2 191/3/2
f 40/1/3 39/1/3 147/1/3
f 147/1/3 39/1/3 148/1/3
f 3/3/3 2/3/3 119/3/3
f 119/3/3 2/3/3 120/3/3
f 1/3/3 6/3/3 117/3/3
f 117/3/3 6/3/3 123/3/3
f 44/1/3 43/1/3 149/1/3
f 149/1/3 43/1/3 150/1/3
f 5/3/3 110/3/3 121/3/3
f 121/3/3 110/3/3 184/3/3
f 109/3/3 113/3/3 185/3/3
f 185/3/3 113/3/3 187/3/3
f 14/3/3 105/3/3 128/3/3
f 128/3/3 105/3/3 182/3/3
f 104/3/3 114/3/3 180/3/3
f 180/3/3 114/3/3 192/3/3
f 10/2/3 9/2/3 15/2/3
f 15/2/3 9/2/3 12/2/3
f 8/2/3 17/2/3 124/2/3
f 124/2/3 17/2/3 131/2/3
f 16/2/3 97/2/3 130/2/3
f 130/2/3 97/2/3 172/2/3
f 96/2/3 100/2/3 173/2/3
f 173/2/3 100/2/3 175/2/3
f 25/2/3 88/2/3 106/2/3
f 106/2/3 88/2/3 115/2/3
f 87/2/3 101/2/3 116/2/3
f 116/2/3 101/2/3 112/2/3
f 21/3/3 20/3/3 26/3/3
f 26/3/3 20/3/3 23/3/3
f 19/3/3 28/3/3 132/3/3
f 132/3/3 28/3/3 138/3/3
f 157/1/3 155/1/3 151/1/3
f 151/1/3 155/1/3 152/1/3
f 27/3/3 80/3/3 137/3/3
f 137/3/3 80/3/3 159/3/3
f 79/3/3 83/3/3 160/3/3
f 160/3/3 83/3/3 162/3/3
f 32/3/3 71/3/3 89/3/3
f 89/3/3 71/3/3 102/3/3
f 70/3/3 84/3/3 103/3/3
f 103/3/3 84/3/3 99/3/3
f 36/2/3 57/2/3 33/2/3
f 33/2/3 57/2/3 30/2/3
f 56/2/3 55/2/3 72/2/3
f 72/2/3 55/2/3 85/2/3
f 54/2/3 68/2/3 86/2/3
f 86/2/3 68/2/3 82/2/3
f 48/1/3 47/1/3 69/1/3
f 69/1/3 47/1/3 66/1/3
f 41/1/4 146/1/4 38/1/4
f 38/1/4 146/1/4 145/1/4
f 7/3/4 122/3/4 92/3/4
f 92/3/4 122/3/4 170/3/4
f 15/3/4 127/3/4 12/3/4
f 12/3/4 127/3/4 126/3/4
f 45/1/4 40/1/4 42/1/4
f 42/1/4 40/1/4 39/1/4
f 106/3/4 181/3/4 115/3/4
f 115/3/4 181/3/4 191/3/4
f 93/3/4 169/3/4 90/3/4
f 90/3/4 169/3/4 168/3/4
f 116/3/4 190/3/4 112/3/4
f 112/3/4 190/3/4 188/3/4
f 91/3/4 171/3/4 107/3/4
f 107/3/4 171/3/4 183/3/4
f 18/2/4 1/2/4 75/2/4
f 75/2/4 1/2/4 6/2/4
f 26/2/4 135/2/4 23/2/4
f 23/2/4 135/2/4 134/2/4
f 89/2/4 167/2/4 102/2/4
f 102/2/4 167/2/4 179/2/4
f 76/2/4 5/2/4 73/2/4
f 73/2/4 5/2/4 110/2/4
f 103/2/4 178/2/4 99/2/4
f 99/2/4 178/2/4 176/2/4
f 74/2/4 109/2/4 94/2/4
f 94/2/4 109/2/4 113/2/4
f 29/3/4 8/3/4 60/3/4
f 60/3/4 8/3/4 17/3/4
f 33/3/4 140/3/4 30/3/4
f 30/3/4 140/3/4 139/3/4
f 142/1/4 44/1/4 154/1/4
f 154/1/4 44/1/4 43/1/4
f 72/3/4 158/3/4 85/3/4
f 85/3/4 158/3/4 166/3/4
f 61/3/4 16/3/4 58/3/4
f 58/3/4 16/3/4 97/3/4
f 86/3/4 165/3/4 82/3/4
f 82/3/4 165/3/4 163/3/4
f 59/3/4 96/3/4 77/3/4
f 77/3/4 96/3/4 100/3/4
f 64/2/4 19/2/4 52/2/4
f 52/2/4 19/2/4 28/2/4
f 53/2/4 27/2/4 50/2/4
f 50/2/4 27/2/4 80/2/4
f 51/2/4 79/2/4 62/2/4
f 62/2/4 79/2/4 83/2/4
f 49/1/4 34/1/4 46/1/4
f 46/1/4 34/1/4 67/1/4
f 171/3/5 91/3/5 168/3/5
f 168/3/5 91/3/5 90/3/5
f 123/3/5 6/3/5 121/3/5
f 121/3/5 6/3/5 5/3/5
f 109/2/5 74/2/5 110/2/5
f 110/2/5 74/2/5 73/2/5
f 131/2/5 17/2/5 130/2/5
f 130/2/5 17/2/5 16/2/5
f 96/3/5 59/3/5 97/3/5
f 97/3/5 59/3/5 58/3/5
f 148/1/5 39/1/5 145/1/5
f 145/1/5 39/1/5 38/1/5
f 138/3/5 28/3/5 137/3/5
f 137/3/5 28/3/5 27/3/5
f 79/2/5 51/2/5 80/2/5
f 80/2/5 51/2/5 50/2/5
f 150/1/5 43/1/5 39/1/5
f 39/1/5 43/1/5 42/1/5
f 152/1/5 155/1/5 43/1/5
f 43/1/5 155/1/5 154/1/5
f 66/1/5 47/1/5 67/1/5
f 67/1/5 47/1/5 46/1/5
f 140/3/5 33/3/5 132/3/5
f 132/3/5 33/3/5 19/3/5
f 82/2/5 68/2/5 83/2/5
f 83/2/5 68/2/5 62/2/5
f 135/2/5 26/2/5 124/2/5
f 124/2/5 26/2/5 8/2/5
f 158/3/5 72/3/5 139/3/5
f 139/3/5 72/3/5 30/3/5
f 99/3/5 84/3/5 100/3/5
f 100/3/5 84/3/5 77/3/5
f 85/2/5 55/2/5 86/2/5
f 86/2/5 55/2/5 54/2/5
f 127/3/5 15/3/5 117/3/5
f 117/3/5 15/3/5 1/3/5
f 167/2/5 89/2/5 134/2/5
f 134/2/5 89/2/5 23/2/5
f 112/2/5 101/2/5 113/2/5
f 113/2/5 101/2/5 94/2/5
f 102/3/5 71/3/5 103/3/5
f 103/3/5 71/3/5 70/3/5
f 181/3/5 106/3/5 126/3/5
f 126/3/5 106/3/5 12/3/5
f 192/3/5 114/3/5 183/3/5
f 183/3/5 114/3/5 107/3/5
f 115/2/5 88/2/5 116/2/5
f 116/2/5 88/2/5 87/2/5
f 182/3/5 105/3/5 180/3/5
f 180/3/5 105/3/5 104/3/5
f 170/3/6 169/3/6 92/3/6
f 92/3/6 169/3/6 93/3/6
f 185/3/6 184/3/6 109/3/6
f 109/3/6 184/3/6 110/3/6
f 6/2/6 5/2/6 75/2/6
f 75/2/6 5/2/6 76/2/6
f 173/2/6 172/2/6 96/2/6
f 96/2/6 172/2/6 97/2/6
f 17/3/6 16/3/6 60/3/6
f 60/3/6 16/3/6 61/3/6
f 147/1/6 146/1/6 40/1/6
f 40/1/6 146/1/6 41/1/6
f 160/3/6 159/3/6 79/3/6
f 79/3/6 159/3/6 80/3/6
f 28/2/6 27/2/6 52/2/6
f 52/2/6 27/2/6 53/2/6
f 149/1/6 40/1/6 44/1/6
f 44/1/6 40/1/6 45/1/6
f 151/1/6 44/1/6 157/1/6
f 157/1/6 44/1/6 142/1/6
f 69/1/6 34/1/6 48/1/6
f 48/1/6 34/1/6 49/1/6
f 163/3/6 162/3/6 82/3/6
f 82/3/6 162/3/6 83/3/6
f 33/2/6 19/2/6 36/2/6
f 36/2/6 19/2/6 64/2/6
f 176/2/6 175/2/6 99/2/6
f 99/2/6 175/2/6 100/2/6
f 26/3/6 8/3/6 21/3/6
f 21/3/6 8/3/6 29/3/6
f 166/3/6 165/3/6 85/3/6
f 85/3/6 165/3/6 86/3/6
f 72/2/6 30/2/6 56/2/6
f 56/2/6 30/2/6 57/2/6
f 188/3/6 187/3/6 112/3/6
f 112/3/6 187/3/6 113/3/6
f 15/2/6 1/2/6 10/2/6
f 10/2/6 1/2/6 18/2/6
f 179/2/6 178/2/6 102/2/6
f 102/2/6 178/2/6 103/2/6
f 89/3/6 23/3/6 32/3/6
f 32/3/6 23/3/6 20/3/6
f 119/3/6 122/3/6 3/3/6
f 3/3/6 122/3/6 7/3/6
f 191/3/6 190/3/6 115/3/6
f 115/3/6 190/3/6 116/3/6
f 106/2/6 12/2/6 25/2/6
f 25/2/6 12/2/6 9/2/6
f 128/3/6 120/3/6 14/3/6
f 14/3/6 120/3/6 2/3/6
