# Vengi binary mesh normalized for Tanks of Freedom II

mtllib ../../../materials/vox_grass.mtl
o umbrella_3

v 0.2 0.8 0.4
v -0.6 0.8 0.4
v -0.6 0.8 0.5
v 0.2 0.8 0.5
v 0.3 0.8 0.3
v 0.2 0.8 0.3
v 0.3 0.8 0.5
v 0.1 0.9 0.3
v -0.5 0.9 0.3
v -0.5 0.9 0.4
v 0.1 0.9 0.4
v -0.5 0.8 0.3
v -0.7 0.8 0.3
v -0.7 0.8 0.4
v -0.5 0.8 0.4
v 0.2 0.9 0.2
v 0.1 0.9 0.2
v 0.2 0.9 0.4
v 0 1 0.2
v -0.4 1 0.2
v -0.4 1 0.3
v 0 1 0.3
v -0.4 0.9 0.2
v -0.6 0.9 0.2
v -0.6 0.9 0.3
v -0.4 0.9 0.3
v 0.1 1 0.1
v 0 1 0.1
v 0.1 1 0.3
v -0.3 1 0.1
v -0.5 1 0.1
v -0.5 1 0.2
v -0.3 1 0.2
v -0.1 1.1 0
v -0.3 1.1 0
v -0.3 1.1 0.2
v -0.1 1.1 0.2
v 0.1 0.4 -0.1
v 0 0.4 -0.1
v 0 0.4 0
v 0.1 0.4 0
v 0 0.8 -0.1
v -0.1 0.8 -0.1
v -0.1 0.8 0
v 0 0.8 0
v -0.1 1.2 -0.1
v -0.2 1.2 -0.1
v -0.2 1.2 0
v -0.1 1.2 0
v 0.1 1.1 -0.2
v 0 1.1 -0.2
v 0 1.1 0.1
v 0.1 1.1 0.1
v -0.3 1.1 -0.2
v -0.4 1.1 -0.2
v -0.4 1.1 0.1
v -0.3 1.1 0.1
v 0.2 1 -0.3
v 0.1 1 -0.3
v 0.1 1 0.2
v 0.2 1 0.2
v 0 1.1 -0.3
v -0.1 1.1 -0.3
v 0 1.1 0.2
v -0.2 1.1 -0.3
v -0.2 1.1 -0.1
v -0.1 1.1 -0.1
v -0.3 1.1 -0.3
v -0.2 1.1 0
v -0.4 1 -0.3
v -0.5 1 -0.3
v -0.4 1 0.1
v 0.3 0.9 -0.4
v 0.2 0.9 -0.4
v 0.2 0.9 0.3
v 0.3 0.9 0.3
v 0.1 1 -0.4
v 0 1 -0.4
v 0 1 -0.2
v 0.1 1 -0.2
v -0.3 1 -0.4
v -0.3 1 -0.3
v 0 1 -0.3
v -0.4 1 -0.4
v -0.4 1 -0.2
v -0.3 1 -0.2
v -0.5 0.9 -0.4
v -0.6 0.9 -0.4
v -0.5 0.9 0.2
v 0.4 0.8 -0.5
v 0.3 0.8 -0.5
v 0.3 0.8 0.4
v 0.4 0.8 0.4
v 0.2 0.9 -0.5
v 0.1 0.9 -0.5
v 0.1 0.9 -0.3
v 0.2 0.9 -0.3
v -0.4 0.9 -0.5
v -0.4 0.9 -0.4
v 0.1 0.9 -0.4
v -0.5 0.9 -0.5
v -0.5 0.9 -0.3
v -0.4 0.9 -0.3
v -0.6 0.8 -0.5
v -0.7 0.8 -0.5
v -0.6 0.8 0.3
v 0.3 0.8 -0.6
v 0.2 0.8 -0.6
v 0.2 0.8 -0.4
v 0.3 0.8 -0.4
v -0.5 0.8 -0.6
v -0.5 0.8 -0.5
v 0.2 0.8 -0.5
v -0.6 0.8 -0.6
v -0.6 0.8 -0.4
v -0.5 0.8 -0.4
v 0.2 0.7 0.4
v 0.2 0.7 0.5
v -0.6 0.7 0.5
v -0.6 0.7 0.4
v 0.3 0.7 0.3
v 0.3 0.7 0.5
v 0.2 0.7 0.3
v 0.1 0.8 0.3
v 0.1 0.8 0.4
v -0.5 0.7 0.3
v -0.5 0.7 0.4
v -0.7 0.7 0.4
v -0.7 0.7 0.3
v 0.2 0.8 0.2
v 0.1 0.8 0.2
v 0 0.9 0.2
v 0 0.9 0.3
v -0.4 0.8 0.2
v -0.4 0.8 0.3
v -0.6 0.8 0.2
v 0.1 0.9 0.1
v 0 0.9 0.1
v -0.3 0.9 0.1
v -0.3 0.9 0.2
v -0.5 0.9 0.1
v -0.1 1 0
v -0.1 1 0.2
v -0.3 1 0
v 0.1 0 -0.1
v 0.1 0 0
v 0 0 0
v 0 0 -0.1
v -0.1 0.4 0
v -0.1 0.4 -0.1
v -0.2 0.8 0
v -0.2 0.8 -0.1
v -0.1 1 -0.3
v -0.1 1 -0.1
v -0.2 1 -0.1
v -0.2 1 -0.3
v -0.2 1 0
v -0.4 0.9 0.1
v 0.1 0.9 -0.2
v 0 0.9 -0.2
v 0 0.9 -0.4
v 0 0.9 -0.3
v -0.3 0.9 -0.3
v -0.3 0.9 -0.4
v -0.3 0.9 -0.2
v -0.4 0.9 -0.2
v -0.5 0.8 0.2
v 0.4 0.7 -0.5
v 0.4 0.7 0.4
v 0.3 0.7 0.4
v 0.3 0.7 -0.5
v 0.2 0.8 -0.3
v 0.1 0.8 -0.3
v 0.1 0.8 -0.5
v 0.1 0.8 -0.4
v -0.4 0.8 -0.4
v -0.4 0.8 -0.5
v -0.4 0.8 -0.3
v -0.5 0.8 -0.3
v -0.6 0.7 -0.5
v -0.6 0.7 0.3
v -0.7 0.7 -0.5
v 0.3 0.7 -0.6
v 0.3 0.7 -0.4
v 0.2 0.7 -0.4
v 0.2 0.7 -0.6
v 0.2 0.7 -0.5
v -0.5 0.7 -0.5
v -0.5 0.7 -0.6
v -0.5 0.7 -0.4
v -0.6 0.7 -0.4
v -0.6 0.7 -0.6

vt 0.00585938 0.5
vt 0.0878906 0.5
vt 0.103516 0.5

vn 0 1 0
vn 0 -1 0
vn -1 0 0
vn 1 0 0
vn 0 0 -1
vn 0 0 1

usemtl palette
f 1/2/1 2/2/1 4/2/1
f 4/2/1 2/2/1 3/2/1
f 5/2/1 6/2/1 7/2/1
f 7/2/1 6/2/1 4/2/1
f 8/3/1 9/3/1 11/3/1
f 11/3/1 9/3/1 10/3/1
f 12/2/1 13/2/1 15/2/1
f 15/2/1 13/2/1 14/2/1
f 16/3/1 17/3/1 18/3/1
f 18/3/1 17/3/1 11/3/1
f 19/2/1 20/2/1 22/2/1
f 22/2/1 20/2/1 21/2/1
f 23/3/1 24/3/1 26/3/1
f 26/3/1 24/3/1 25/3/1
f 27/2/1 28/2/1 29/2/1
f 29/2/1 28/2/1 22/2/1
f 30/2/1 31/2/1 33/2/1
f 33/2/1 31/2/1 32/2/1
f 34/3/1 35/3/1 37/3/1
f 37/3/1 35/3/1 36/3/1
f 38/1/1 39/1/1 41/1/1
f 41/1/1 39/1/1 40/1/1
f 42/1/1 43/1/1 45/1/1
f 45/1/1 43/1/1 44/1/1
f 46/1/1 47/1/1 49/1/1
f 49/1/1 47/1/1 48/1/1
f 50/3/1 51/3/1 53/3/1
f 53/3/1 51/3/1 52/3/1
f 54/3/1 55/3/1 57/3/1
f 57/3/1 55/3/1 56/3/1
f 58/2/1 59/2/1 61/2/1
f 61/2/1 59/2/1 60/2/1
f 62/3/1 63/3/1 64/3/1
f 64/3/1 63/3/1 37/3/1
f 63/3/1 65/3/1 67/3/1
f 67/3/1 65/3/1 66/3/1
f 65/3/1 68/3/1 69/3/1
f 69/3/1 68/3/1 35/3/1
f 70/2/1 71/2/1 72/2/1
f 72/2/1 71/2/1 31/2/1
f 73/3/1 74/3/1 76/3/1
f 76/3/1 74/3/1 75/3/1
f 77/2/1 78/2/1 80/2/1
f 80/2/1 78/2/1 79/2/1
f 78/2/1 81/2/1 83/2/1
f 83/2/1 81/2/1 82/2/1
f 81/2/1 84/2/1 86/2/1
f 86/2/1 84/2/1 85/2/1
f 87/3/1 88/3/1 89/3/1
f 89/3/1 88/3/1 24/3/1
f 90/2/1 91/2/1 93/2/1
f 93/2/1 91/2/1 92/2/1
f 94/3/1 95/3/1 97/3/1
f 97/3/1 95/3/1 96/3/1
f 95/3/1 98/3/1 100/3/1
f 100/3/1 98/3/1 99/3/1
f 98/3/1 101/3/1 103/3/1
f 103/3/1 101/3/1 102/3/1
f 104/2/1 105/2/1 106/2/1
f 106/2/1 105/2/1 13/2/1
f 107/2/1 108/2/1 110/2/1
f 110/2/1 108/2/1 109/2/1
f 108/2/1 111/2/1 113/2/1
f 113/2/1 111/2/1 112/2/1
f 111/2/1 114/2/1 116/2/1
f 116/2/1 114/2/1 115/2/1
f 117/2/2 118/2/2 120/2/2
f 120/2/2 118/2/2 119/2/2
f 121/2/2 122/2/2 123/2/2
f 123/2/2 122/2/2 118/2/2
f 124/3/2 125/3/2 12/3/2
f 12/3/2 125/3/2 15/3/2
f 126/2/2 127/2/2 129/2/2
f 129/2/2 127/2/2 128/2/2
f 130/3/2 1/3/2 131/3/2
f 131/3/2 1/3/2 125/3/2
f 132/2/2 133/2/2 23/2/2
f 23/2/2 133/2/2 26/2/2
f 134/3/2 135/3/2 136/3/2
f 136/3/2 135/3/2 106/3/2
f 137/2/2 8/2/2 138/2/2
f 138/2/2 8/2/2 133/2/2
f 139/2/2 140/2/2 141/2/2
f 141/2/2 140/2/2 89/2/2
f 142/3/2 143/3/2 144/3/2
f 144/3/2 143/3/2 33/3/2
f 145/1/2 146/1/2 148/1/2
f 148/1/2 146/1/2 147/1/2
f 39/1/2 40/1/2 150/1/2
f 150/1/2 40/1/2 149/1/2
f 43/1/2 44/1/2 152/1/2
f 152/1/2 44/1/2 151/1/2
f 80/3/2 27/3/2 79/3/2
f 79/3/2 27/3/2 28/3/2
f 86/3/2 30/3/2 85/3/2
f 85/3/2 30/3/2 72/3/2
f 97/2/2 16/2/2 96/2/2
f 96/2/2 16/2/2 17/2/2
f 83/3/2 19/3/2 153/3/2
f 153/3/2 19/3/2 143/3/2
f 153/3/2 154/3/2 156/3/2
f 156/3/2 154/3/2 155/3/2
f 156/3/2 157/3/2 82/3/2
f 82/3/2 157/3/2 144/3/2
f 103/2/2 158/2/2 102/2/2
f 102/2/2 158/2/2 141/2/2
f 110/3/2 5/3/2 109/3/2
f 109/3/2 5/3/2 6/3/2
f 100/2/2 159/2/2 161/2/2
f 161/2/2 159/2/2 160/2/2
f 161/2/2 162/2/2 164/2/2
f 164/2/2 162/2/2 163/2/2
f 164/2/2 165/2/2 99/2/2
f 99/2/2 165/2/2 166/2/2
f 116/3/2 167/3/2 115/3/2
f 115/3/2 167/3/2 136/3/2
f 168/2/2 169/2/2 171/2/2
f 171/2/2 169/2/2 170/2/2
f 113/3/2 172/3/2 174/3/2
f 174/3/2 172/3/2 173/3/2
f 174/3/2 175/3/2 177/3/2
f 177/3/2 175/3/2 176/3/2
f 177/3/2 178/3/2 112/3/2
f 112/3/2 178/3/2 179/3/2
f 180/2/2 181/2/2 182/2/2
f 182/2/2 181/2/2 129/2/2
f 183/2/2 184/2/2 186/2/2
f 186/2/2 184/2/2 185/2/2
f 186/2/2 187/2/2 189/2/2
f 189/2/2 187/2/2 188/2/2
f 189/2/2 190/2/2 192/2/2
f 192/2/2 190/2/2 191/2/2
f 40/1/3 39/1/3 147/1/3
f 147/1/3 39/1/3 148/1/3
f 3/2/3 2/2/3 119/2/3
f 119/2/3 2/2/3 120/2/3
f 1/2/3 6/2/3 117/2/3
f 117/2/3 6/2/3 123/2/3
f 44/1/3 43/1/3 149/1/3
f 149/1/3 43/1/3 150/1/3
f 5/2/3 110/2/3 121/2/3
f 121/2/3 110/2/3 184/2/3
f 109/2/3 113/2/3 185/2/3
f 185/2/3 113/2/3 187/2/3
f 14/2/3 105/2/3 128/2/3
f 128/2/3 105/2/3 182/2/3
f 104/2/3 114/2/3 180/2/3
f 180/2/3 114/2/3 192/2/3
f 10/3/3 9/3/3 15/3/3
f 15/3/3 9/3/3 12/3/3
f 8/3/3 17/3/3 124/3/3
f 124/3/3 17/3/3 131/3/3
f 16/3/3 97/3/3 130/3/3
f 130/3/3 97/3/3 172/3/3
f 96/3/3 100/3/3 173/3/3
f 173/3/3 100/3/3 175/3/3
f 25/3/3 88/3/3 106/3/3
f 106/3/3 88/3/3 115/3/3
f 87/3/3 101/3/3 116/3/3
f 116/3/3 101/3/3 112/3/3
f 21/2/3 20/2/3 26/2/3
f 26/2/3 20/2/3 23/2/3
f 19/2/3 28/2/3 132/2/3
f 132/2/3 28/2/3 138/2/3
f 157/1/3 155/1/3 151/1/3
f 151/1/3 155/1/3 152/1/3
f 27/2/3 80/2/3 137/2/3
f 137/2/3 80/2/3 159/2/3
f 79/2/3 83/2/3 160/2/3
f 160/2/3 83/2/3 162/2/3
f 32/2/3 71/2/3 89/2/3
f 89/2/3 71/2/3 102/2/3
f 70/2/3 84/2/3 103/2/3
f 103/2/3 84/2/3 99/2/3
f 36/3/3 57/3/3 33/3/3
f 33/3/3 57/3/3 30/3/3
f 56/3/3 55/3/3 72/3/3
f 72/3/3 55/3/3 85/3/3
f 54/3/3 68/3/3 86/3/3
f 86/3/3 68/3/3 82/3/3
f 48/1/3 47/1/3 69/1/3
f 69/1/3 47/1/3 66/1/3
f 41/1/4 146/1/4 38/1/4
f 38/1/4 146/1/4 145/1/4
f 7/2/4 122/2/4 92/2/4
f 92/2/4 122/2/4 170/2/4
f 15/2/4 127/2/4 12/2/4
f 12/2/4 127/2/4 126/2/4
f 45/1/4 40/1/4 42/1/4
f 42/1/4 40/1/4 39/1/4
f 106/2/4 181/2/4 115/2/4
f 115/2/4 181/2/4 191/2/4
f 93/2/4 169/2/4 90/2/4
f 90/2/4 169/2/4 168/2/4
f 116/2/4 190/2/4 112/2/4
f 112/2/4 190/2/4 188/2/4
f 91/2/4 171/2/4 107/2/4
f 107/2/4 171/2/4 183/2/4
f 18/3/4 1/3/4 75/3/4
f 75/3/4 1/3/4 6/3/4
f 26/3/4 135/3/4 23/3/4
f 23/3/4 135/3/4 134/3/4
f 89/3/4 167/3/4 102/3/4
f 102/3/4 167/3/4 179/3/4
f 76/3/4 5/3/4 73/3/4
f 73/3/4 5/3/4 110/3/4
f 103/3/4 178/3/4 99/3/4
f 99/3/4 178/3/4 176/3/4
f 74/3/4 109/3/4 94/3/4
f 94/3/4 109/3/4 113/3/4
f 29/2/4 8/2/4 60/2/4
f 60/2/4 8/2/4 17/2/4
f 33/2/4 140/2/4 30/2/4
f 30/2/4 140/2/4 139/2/4
f 142/1/4 44/1/4 154/1/4
f 154/1/4 44/1/4 43/1/4
f 72/2/4 158/2/4 85/2/4
f 85/2/4 158/2/4 166/2/4
f 61/2/4 16/2/4 58/2/4
f 58/2/4 16/2/4 97/2/4
f 86/2/4 165/2/4 82/2/4
f 82/2/4 165/2/4 163/2/4
f 59/2/4 96/2/4 77/2/4
f 77/2/4 96/2/4 100/2/4
f 64/3/4 19/3/4 52/3/4
f 52/3/4 19/3/4 28/3/4
f 53/3/4 27/3/4 50/3/4
f 50/3/4 27/3/4 80/3/4
f 51/3/4 79/3/4 62/3/4
f 62/3/4 79/3/4 83/3/4
f 49/1/4 34/1/4 46/1/4
f 46/1/4 34/1/4 67/1/4
f 171/2/5 91/2/5 168/2/5
f 168/2/5 91/2/5 90/2/5
f 123/2/5 6/2/5 121/2/5
f 121/2/5 6/2/5 5/2/5
f 109/3/5 74/3/5 110/3/5
f 110/3/5 74/3/5 73/3/5
f 131/3/5 17/3/5 130/3/5
f 130/3/5 17/3/5 16/3/5
f 96/2/5 59/2/5 97/2/5
f 97/2/5 59/2/5 58/2/5
f 148/1/5 39/1/5 145/1/5
f 145/1/5 39/1/5 38/1/5
f 138/2/5 28/2/5 137/2/5
f 137/2/5 28/2/5 27/2/5
f 79/3/5 51/3/5 80/3/5
f 80/3/5 51/3/5 50/3/5
f 150/1/5 43/1/5 39/1/5
f 39/1/5 43/1/5 42/1/5
f 152/1/5 155/1/5 43/1/5
f 43/1/5 155/1/5 154/1/5
f 66/1/5 47/1/5 67/1/5
f 67/1/5 47/1/5 46/1/5
f 140/2/5 33/2/5 132/2/5
f 132/2/5 33/2/5 19/2/5
f 82/3/5 68/3/5 83/3/5
f 83/3/5 68/3/5 62/3/5
f 135/3/5 26/3/5 124/3/5
f 124/3/5 26/3/5 8/3/5
f 158/2/5 72/2/5 139/2/5
f 139/2/5 72/2/5 30/2/5
f 99/2/5 84/2/5 100/2/5
f 100/2/5 84/2/5 77/2/5
f 85/3/5 55/3/5 86/3/5
f 86/3/5 55/3/5 54/3/5
f 127/2/5 15/2/5 117/2/5
f 117/2/5 15/2/5 1/2/5
f 167/3/5 89/3/5 134/3/5
f 134/3/5 89/3/5 23/3/5
f 112/3/5 101/3/5 113/3/5
f 113/3/5 101/3/5 94/3/5
f 102/2/5 71/2/5 103/2/5
f 103/2/5 71/2/5 70/2/5
f 181/2/5 106/2/5 126/2/5
f 126/2/5 106/2/5 12/2/5
f 192/2/5 114/2/5 183/2/5
f 183/2/5 114/2/5 107/2/5
f 115/3/5 88/3/5 116/3/5
f 116/3/5 88/3/5 87/3/5
f 182/2/5 105/2/5 180/2/5
f 180/2/5 105/2/5 104/2/5
f 170/2/6 169/2/6 92/2/6
f 92/2/6 169/2/6 93/2/6
f 185/2/6 184/2/6 109/2/6
f 109/2/6 184/2/6 110/2/6
f 6/3/6 5/3/6 75/3/6
f 75/3/6 5/3/6 76/3/6
f 173/3/6 172/3/6 96/3/6
f 96/3/6 172/3/6 97/3/6
f 17/2/6 16/2/6 60/2/6
f 60/2/6 16/2/6 61/2/6
f 147/1/6 146/1/6 40/1/6
f 40/1/6 146/1/6 41/1/6
f 160/2/6 159/2/6 79/2/6
f 79/2/6 159/2/6 80/2/6
f 28/3/6 27/3/6 52/3/6
f 52/3/6 27/3/6 53/3/6
f 149/1/6 40/1/6 44/1/6
f 44/1/6 40/1/6 45/1/6
f 151/1/6 44/1/6 157/1/6
f 157/1/6 44/1/6 142/1/6
f 69/1/6 34/1/6 48/1/6
f 48/1/6 34/1/6 49/1/6
f 163/2/6 162/2/6 82/2/6
f 82/2/6 162/2/6 83/2/6
f 33/3/6 19/3/6 36/3/6
f 36/3/6 19/3/6 64/3/6
f 176/3/6 175/3/6 99/3/6
f 99/3/6 175/3/6 100/3/6
f 26/2/6 8/2/6 21/2/6
f 21/2/6 8/2/6 29/2/6
f 166/2/6 165/2/6 85/2/6
f 85/2/6 165/2/6 86/2/6
f 72/3/6 30/3/6 56/3/6
f 56/3/6 30/3/6 57/3/6
f 188/2/6 187/2/6 112/2/6
f 112/2/6 187/2/6 113/2/6
f 15/3/6 1/3/6 10/3/6
f 10/3/6 1/3/6 18/3/6
f 179/3/6 178/3/6 102/3/6
f 102/3/6 178/3/6 103/3/6
f 89/2/6 23/2/6 32/2/6
f 32/2/6 23/2/6 20/2/6
f 119/2/6 122/2/6 3/2/6
f 3/2/6 122/2/6 7/2/6
f 191/2/6 190/2/6 115/2/6
f 115/2/6 190/2/6 116/2/6
f 106/3/6 12/3/6 25/3/6
f 25/3/6 12/3/6 9/3/6
f 128/2/6 120/2/6 14/2/6
f 14/2/6 120/2/6 2/2/6
