# Vengi binary mesh normalized for Tanks of Freedom II

mtllib ../../materials/vox_building.mtl
o heli_rotor_vertical

v 0.1 0.5 0.5
v 0 0.5 0.5
v 0 0.5 0.7
v 0.1 0.5 0.7
v 0.1 0.6 0.4
v 0 0.6 0.4
v 0 0.6 0.5
v 0.1 0.6 0.5
v 0.1 0.3 0.3
v 0 0.3 0.3
v 0 0.3 0.4
v 0.1 0.3 0.4
v 0.1 0.7 0.3
v 0 0.7 0.3
v 0 0.7 0.4
v 0.1 0.7 0.4
v 0.2 0.6 0.2
v 0.1 0.6 0.2
v 0.1 0.6 0.8
v 0.2 0.6 0.8
v 0.1 0.2 0.2
v 0 0.2 0.2
v 0 0.2 0.3
v 0.1 0.2 0.3
v 0.1 0.8 0.2
v 0 0.8 0.2
v 0 0.8 0.3
v 0.1 0.8 0.3
v 0 0.4 0.2
v -0.1 0.4 0.2
v -0.1 0.4 0.6
v 0 0.4 0.6
v 0.6 0.4 0.1
v 0.2 0.4 0.1
v 0.2 0.4 0.2
v 0.6 0.4 0.2
v 0.1 0.1 0.1
v 0 0.1 0.1
v 0 0.1 0.2
v 0.1 0.1 0.2
v 0.1 0.5 0.1
v 0 0.5 0.1
v 0 0.5 0.4
v 0.1 0.5 0.4
v 0.1 0.9 0.1
v 0 0.9 0.1
v 0 0.9 0.2
v 0.1 0.9 0.2
v -0.1 0.6 0.1
v -0.7 0.6 0.1
v -0.7 0.6 0.2
v -0.1 0.6 0.2
v 0.7 0.5 0
v 0.5 0.5 0
v 0.5 0.5 0.1
v 0.7 0.5 0.1
v 0.5 0.6 0
v 0.4 0.6 0
v 0.4 0.6 0.1
v 0.5 0.6 0.1
v 0.4 0.3 0
v 0.3 0.3 0
v 0.3 0.3 0.1
v 0.4 0.3 0.1
v 0.4 0.7 0
v 0.3 0.7 0
v 0.3 0.7 0.1
v 0.4 0.7 0.1
v 0.3 0.2 0
v 0.2 0.2 0
v 0.2 0.2 0.1
v 0.3 0.2 0.1
v 0.3 0.8 0
v 0.2 0.8 0
v 0.2 0.8 0.1
v 0.3 0.8 0.1
v 0.2 0.1 0
v 0.1 0.1 0
v 0.2 0.1 0.1
v 0.4 0.5 0
v 0.1 0.5 0
v 0.4 0.5 0.1
v 0.2 0.9 0
v 0.1 0.9 0
v 0.2 0.9 0.1
v 0.1 0.8 0
v 0 0.8 0
v 0 0.8 0.1
v 0.1 0.8 0.1
v 0 0.1 0
v -0.1 0.1 0
v -0.1 0.1 0.1
v 0 0.9 0
v -0.1 0.9 0
v -0.1 0.9 0.1
v -0.1 0.2 0
v -0.2 0.2 0
v -0.2 0.2 0.1
v -0.1 0.2 0.1
v -0.1 0.8 0
v -0.2 0.8 0
v -0.2 0.8 0.1
v -0.1 0.8 0.1
v -0.2 0.3 0
v -0.3 0.3 0
v -0.3 0.3 0.1
v -0.2 0.3 0.1
v 0 0.5 0
v -0.3 0.5 0
v -0.3 0.5 0.1
v -0.2 0.7 0
v -0.3 0.7 0
v -0.3 0.7 0.1
v -0.2 0.7 0.1
v -0.3 0.6 0
v -0.4 0.6 0
v -0.4 0.6 0.1
v -0.3 0.6 0.1
v -0.4 0.5 0
v -0.6 0.5 0
v -0.6 0.5 0.1
v -0.4 0.5 0.1
v 0.8 0.6 -0.1
v 0.2 0.6 -0.1
v 0.2 0.6 0
v 0.8 0.6 0
v 0.1 0.1 -0.1
v 0 0.1 -0.1
v 0.1 0.9 -0.1
v 0 0.9 -0.1
v -0.1 0.4 -0.1
v -0.5 0.4 -0.1
v -0.5 0.4 0
v -0.1 0.4 0
v 0.1 0.2 -0.2
v 0 0.2 -0.2
v 0 0.2 -0.1
v 0.1 0.2 -0.1
v 0.1 0.8 -0.2
v 0 0.8 -0.2
v 0 0.8 -0.1
v 0.1 0.8 -0.1
v 0.1 0.3 -0.3
v 0 0.3 -0.3
v 0 0.3 -0.2
v 0.1 0.3 -0.2
v 0.1 0.5 -0.3
v 0 0.5 -0.3
v 0.1 0.7 -0.3
v 0 0.7 -0.3
v 0 0.7 -0.2
v 0.1 0.7 -0.2
v 0.1 0.6 -0.4
v 0 0.6 -0.4
v 0 0.6 -0.3
v 0.1 0.6 -0.3
v 0.2 0.4 -0.5
v 0.1 0.4 -0.5
v 0.1 0.4 -0.1
v 0.2 0.4 -0.1
v 0.1 0.5 -0.6
v 0 0.5 -0.6
v 0 0.5 -0.4
v 0.1 0.5 -0.4
v 0 0.6 -0.7
v -0.1 0.6 -0.7
v -0.1 0.6 -0.1
v 0 0.6 -0.1
v 0.1 0.4 0.5
v 0.1 0.4 0.7
v 0 0.4 0.7
v 0 0.4 0.5
v 0.1 0.3 0.5
v 0 0.3 0.5
v 0.1 0.2 0.4
v 0 0.2 0.4
v 0.1 0.6 0.3
v 0 0.6 0.3
v 0.2 0.5 0.2
v 0.2 0.5 0.8
v 0.1 0.5 0.8
v 0.1 0.5 0.2
v 0.1 0.1 0.3
v 0 0.1 0.3
v 0.1 0.7 0.2
v 0 0.7 0.2
v 0 0.3 0.2
v 0 0.3 0.6
v -0.1 0.3 0.6
v -0.1 0.3 0.2
v 0.6 0.3 0.1
v 0.6 0.3 0.2
v 0.2 0.3 0.2
v 0.2 0.3 0.1
v 0.1 0 0.1
v 0.1 0 0.2
v 0 0 0.2
v 0 0 0.1
v 0.1 0.4 0.1
v 0.1 0.4 0.4
v 0 0.4 0.4
v 0 0.4 0.1
v -0.1 0.5 0.1
v -0.1 0.5 0.2
v -0.7 0.5 0.2
v -0.7 0.5 0.1
v 0.7 0.4 0
v 0.7 0.4 0.1
v 0.5 0.4 0.1
v 0.5 0.4 0
v 0.5 0.3 0
v 0.5 0.3 0.1
v 0.4 0.2 0
v 0.4 0.2 0.1
v 0.3 0.6 0.1
v 0.3 0.6 0
v 0.3 0.1 0
v 0.3 0.1 0.1
v 0.2 0.7 0.1
v 0.2 0.7 0
v 0.2 0 0
v 0.2 0 0.1
v 0.1 0 0
v 0.4 0.4 0
v 0.4 0.4 0.1
v 0.1 0.4 0
v 0 0 0
v -0.1 0 0.1
v -0.1 0 0
v -0.2 0.1 0.1
v -0.2 0.1 0
v -0.1 0.7 0
v -0.1 0.7 0.1
v -0.3 0.2 0.1
v -0.3 0.2 0
v 0 0.4 0
v -0.3 0.4 0.1
v -0.3 0.4 0
v -0.2 0.6 0
v -0.2 0.6 0.1
v -0.4 0.3 0.1
v -0.4 0.3 0
v -0.4 0.4 0
v -0.4 0.4 0.1
v -0.6 0.4 0.1
v -0.6 0.4 0
v 0.8 0.5 -0.1
v 0.8 0.5 0
v 0.2 0.5 0
v 0.2 0.5 -0.1
v 0.1 0 -0.1
v 0 0 -0.1
v -0.1 0.3 -0.1
v -0.1 0.3 0
v -0.5 0.3 0
v -0.5 0.3 -0.1
v 0.1 0.1 -0.2
v 0 0.1 -0.2
v 0.1 0.7 -0.1
v 0 0.7 -0.1
v 0.1 0.2 -0.3
v 0 0.2 -0.3
v 0.1 0.4 -0.3
v 0 0.4 -0.3
v 0.1 0.6 -0.2
v 0 0.6 -0.2
v 0.1 0.3 -0.4
v 0 0.3 -0.4
v 0.2 0.3 -0.5
v 0.2 0.3 -0.1
v 0.1 0.3 -0.1
v 0.1 0.3 -0.5
v 0.1 0.4 -0.6
v 0.1 0.4 -0.4
v 0 0.4 -0.4
v 0 0.4 -0.6
v 0 0.5 -0.7
v 0 0.5 -0.1
v -0.1 0.5 -0.1
v -0.1 0.5 -0.7

vt 0.00585938 0.5
vt 0.0332031 0.5
vt 0.0410156 0.5
vt 0.0683594 0.5

vn 0 1 0
vn 0 -1 0
vn -1 0 0
vn 1 0 0
vn 0 0 -1
vn 0 0 1

usemtl palette
f 1/2/1 2/2/1 4/2/1
f 4/2/1 2/2/1 3/2/1
f 5/4/1 6/4/1 8/4/1
f 8/4/1 6/4/1 7/4/1
f 9/4/1 10/4/1 12/4/1
f 12/4/1 10/4/1 11/4/1
f 13/4/1 14/4/1 16/4/1
f 16/4/1 14/4/1 15/4/1
f 17/2/1 18/2/1 20/2/1
f 20/2/1 18/2/1 19/2/1
f 21/4/1 22/4/1 24/4/1
f 24/4/1 22/4/1 23/4/1
f 25/4/1 26/4/1 28/4/1
f 28/4/1 26/4/1 27/4/1
f 29/2/1 30/2/1 32/2/1
f 32/2/1 30/2/1 31/2/1
f 33/2/1 34/2/1 36/2/1
f 36/2/1 34/2/1 35/2/1
f 37/3/1 38/3/1 40/3/1
f 40/3/1 38/3/1 39/3/1
f 41/2/1 42/2/1 44/2/1
f 44/2/1 42/2/1 43/2/1
f 45/3/1 46/3/1 48/3/1
f 48/3/1 46/3/1 47/3/1
f 49/2/1 50/2/1 52/2/1
f 52/2/1 50/2/1 51/2/1
f 53/2/1 54/2/1 56/2/1
f 56/2/1 54/2/1 55/2/1
f 57/4/1 58/4/1 60/4/1
f 60/4/1 58/4/1 59/4/1
f 61/4/1 62/4/1 64/4/1
f 64/4/1 62/4/1 63/4/1
f 65/4/1 66/4/1 68/4/1
f 68/4/1 66/4/1 67/4/1
f 69/4/1 70/4/1 72/4/1
f 72/4/1 70/4/1 71/4/1
f 73/4/1 74/4/1 76/4/1
f 76/4/1 74/4/1 75/4/1
f 77/3/1 78/3/1 79/3/1
f 79/3/1 78/3/1 37/3/1
f 80/2/1 81/2/1 82/2/1
f 82/2/1 81/2/1 41/2/1
f 83/3/1 84/3/1 85/3/1
f 85/3/1 84/3/1 45/3/1
f 86/1/1 87/1/1 89/1/1
f 89/1/1 87/1/1 88/1/1
f 90/3/1 91/3/1 38/3/1
f 38/3/1 91/3/1 92/3/1
f 93/3/1 94/3/1 46/3/1
f 46/3/1 94/3/1 95/3/1
f 96/4/1 97/4/1 99/4/1
f 99/4/1 97/4/1 98/4/1
f 100/4/1 101/4/1 103/4/1
f 103/4/1 101/4/1 102/4/1
f 104/4/1 105/4/1 107/4/1
f 107/4/1 105/4/1 106/4/1
f 108/2/1 109/2/1 42/2/1
f 42/2/1 109/2/1 110/2/1
f 111/4/1 112/4/1 114/4/1
f 114/4/1 112/4/1 113/4/1
f 115/4/1 116/4/1 118/4/1
f 118/4/1 116/4/1 117/4/1
f 119/2/1 120/2/1 122/2/1
f 122/2/1 120/2/1 121/2/1
f 123/2/1 124/2/1 126/2/1
f 126/2/1 124/2/1 125/2/1
f 127/3/1 128/3/1 78/3/1
f 78/3/1 128/3/1 90/3/1
f 129/3/1 130/3/1 84/3/1
f 84/3/1 130/3/1 93/3/1
f 131/2/1 132/2/1 134/2/1
f 134/2/1 132/2/1 133/2/1
f 135/4/1 136/4/1 138/4/1
f 138/4/1 136/4/1 137/4/1
f 139/4/1 140/4/1 142/4/1
f 142/4/1 140/4/1 141/4/1
f 143/4/1 144/4/1 146/4/1
f 146/4/1 144/4/1 145/4/1
f 147/2/1 148/2/1 81/2/1
f 81/2/1 148/2/1 108/2/1
f 149/4/1 150/4/1 152/4/1
f 152/4/1 150/4/1 151/4/1
f 153/4/1 154/4/1 156/4/1
f 156/4/1 154/4/1 155/4/1
f 157/2/1 158/2/1 160/2/1
f 160/2/1 158/2/1 159/2/1
f 161/2/1 162/2/1 164/2/1
f 164/2/1 162/2/1 163/2/1
f 165/2/1 166/2/1 168/2/1
f 168/2/1 166/2/1 167/2/1
f 169/2/2 170/2/2 172/2/2
f 172/2/2 170/2/2 171/2/2
f 12/4/2 173/4/2 11/4/2
f 11/4/2 173/4/2 174/4/2
f 24/4/2 175/4/2 23/4/2
f 23/4/2 175/4/2 176/4/2
f 177/4/2 5/4/2 178/4/2
f 178/4/2 5/4/2 6/4/2
f 179/2/2 180/2/2 182/2/2
f 182/2/2 180/2/2 181/2/2
f 40/4/2 183/4/2 39/4/2
f 39/4/2 183/4/2 184/4/2
f 185/4/2 13/4/2 186/4/2
f 186/4/2 13/4/2 14/4/2
f 187/2/2 188/2/2 190/2/2
f 190/2/2 188/2/2 189/2/2
f 191/2/2 192/2/2 194/2/2
f 194/2/2 192/2/2 193/2/2
f 195/3/2 196/3/2 198/3/2
f 198/3/2 196/3/2 197/3/2
f 199/2/2 200/2/2 202/2/2
f 202/2/2 200/2/2 201/2/2
f 89/3/2 25/3/2 88/3/2
f 88/3/2 25/3/2 26/3/2
f 203/2/2 204/2/2 206/2/2
f 206/2/2 204/2/2 205/2/2
f 207/2/2 208/2/2 210/2/2
f 210/2/2 208/2/2 209/2/2
f 211/4/2 212/4/2 61/4/2
f 61/4/2 212/4/2 64/4/2
f 213/4/2 214/4/2 69/4/2
f 69/4/2 214/4/2 72/4/2
f 58/4/2 59/4/2 216/4/2
f 216/4/2 59/4/2 215/4/2
f 217/4/2 218/4/2 77/4/2
f 77/4/2 218/4/2 79/4/2
f 66/4/2 67/4/2 220/4/2
f 220/4/2 67/4/2 219/4/2
f 221/3/2 222/3/2 223/3/2
f 223/3/2 222/3/2 195/3/2
f 224/2/2 225/2/2 226/2/2
f 226/2/2 225/2/2 199/2/2
f 74/3/2 75/3/2 86/3/2
f 86/3/2 75/3/2 89/3/2
f 223/1/2 195/1/2 227/1/2
f 227/1/2 195/1/2 198/1/2
f 227/3/2 198/3/2 229/3/2
f 229/3/2 198/3/2 228/3/2
f 87/3/2 88/3/2 100/3/2
f 100/3/2 88/3/2 103/3/2
f 91/4/2 92/4/2 231/4/2
f 231/4/2 92/4/2 230/4/2
f 232/4/2 233/4/2 111/4/2
f 111/4/2 233/4/2 114/4/2
f 97/4/2 98/4/2 235/4/2
f 235/4/2 98/4/2 234/4/2
f 236/2/2 202/2/2 238/2/2
f 238/2/2 202/2/2 237/2/2
f 239/4/2 240/4/2 115/4/2
f 115/4/2 240/4/2 118/4/2
f 105/4/2 106/4/2 242/4/2
f 242/4/2 106/4/2 241/4/2
f 243/2/2 244/2/2 246/2/2
f 246/2/2 244/2/2 245/2/2
f 247/2/2 248/2/2 250/2/2
f 250/2/2 248/2/2 249/2/2
f 251/3/2 223/3/2 252/3/2
f 252/3/2 223/3/2 227/3/2
f 142/3/2 86/3/2 141/3/2
f 141/3/2 86/3/2 87/3/2
f 253/2/2 254/2/2 256/2/2
f 256/2/2 254/2/2 255/2/2
f 257/4/2 127/4/2 258/4/2
f 258/4/2 127/4/2 128/4/2
f 152/4/2 259/4/2 151/4/2
f 151/4/2 259/4/2 260/4/2
f 261/4/2 135/4/2 262/4/2
f 262/4/2 135/4/2 136/4/2
f 263/2/2 226/2/2 264/2/2
f 264/2/2 226/2/2 236/2/2
f 156/4/2 265/4/2 155/4/2
f 155/4/2 265/4/2 266/4/2
f 267/4/2 143/4/2 268/4/2
f 268/4/2 143/4/2 144/4/2
f 269/2/2 270/2/2 272/2/2
f 272/2/2 270/2/2 271/2/2
f 273/2/2 274/2/2 276/2/2
f 276/2/2 274/2/2 275/2/2
f 277/2/2 278/2/2 280/2/2
f 280/2/2 278/2/2 279/2/2
f 39/3/3 38/3/3 197/3/3
f 197/3/3 38/3/3 198/3/3
f 92/3/3 91/3/3 228/3/3
f 228/3/3 91/3/3 229/3/3
f 90/3/3 128/3/3 227/3/3
f 227/3/3 128/3/3 252/3/3
f 23/4/3 22/4/3 184/4/3
f 184/4/3 22/4/3 39/4/3
f 71/4/3 70/4/3 79/4/3
f 79/4/3 70/4/3 77/4/3
f 98/4/3 97/4/3 230/4/3
f 230/4/3 97/4/3 231/4/3
f 137/4/3 136/4/3 128/4/3
f 128/4/3 136/4/3 258/4/3
f 11/4/3 10/4/3 176/4/3
f 176/4/3 10/4/3 23/4/3
f 63/4/3 62/4/3 72/4/3
f 72/4/3 62/4/3 69/4/3
f 106/4/3 105/4/3 234/4/3
f 234/4/3 105/4/3 235/4/3
f 145/4/3 144/4/3 136/4/3
f 136/4/3 144/4/3 262/4/3
f 31/2/3 30/2/3 189/2/3
f 189/2/3 30/2/3 190/2/3
f 35/2/3 34/2/3 193/2/3
f 193/2/3 34/2/3 194/2/3
f 225/4/3 224/4/3 64/4/3
f 64/4/3 224/4/3 61/4/3
f 202/1/3 236/1/3 38/1/3
f 38/1/3 236/1/3 90/1/3
f 244/4/3 243/4/3 241/4/3
f 241/4/3 243/4/3 242/4/3
f 133/2/3 132/2/3 255/2/3
f 255/2/3 132/2/3 256/2/3
f 159/2/3 263/2/3 271/2/3
f 271/2/3 263/2/3 143/2/3
f 264/4/3 275/4/3 144/4/3
f 144/4/3 275/4/3 268/4/3
f 274/2/3 158/2/3 267/2/3
f 267/2/3 158/2/3 272/2/3
f 3/2/3 42/2/3 171/2/3
f 171/2/3 42/2/3 202/2/3
f 121/2/3 120/2/3 245/2/3
f 245/2/3 120/2/3 246/2/3
f 108/2/3 162/2/3 236/2/3
f 236/2/3 162/2/3 276/2/3
f 19/2/3 8/2/3 181/2/3
f 181/2/3 8/2/3 1/2/3
f 7/4/3 6/4/3 2/4/3
f 2/4/3 6/4/3 43/4/3
f 5/2/3 18/2/3 44/2/3
f 44/2/3 18/2/3 182/2/3
f 51/2/3 50/2/3 205/2/3
f 205/2/3 50/2/3 206/2/3
f 59/4/3 58/4/3 82/4/3
f 82/4/3 58/4/3 80/4/3
f 117/4/3 116/4/3 122/4/3
f 122/4/3 116/4/3 119/4/3
f 125/2/3 124/2/3 249/2/3
f 249/2/3 124/2/3 250/2/3
f 167/2/3 166/2/3 279/2/3
f 279/2/3 166/2/3 280/2/3
f 15/4/3 14/4/3 6/4/3
f 6/4/3 14/4/3 178/4/3
f 67/4/3 66/4/3 215/4/3
f 215/4/3 66/4/3 216/4/3
f 113/4/3 112/4/3 118/4/3
f 118/4/3 112/4/3 115/4/3
f 151/4/3 150/4/3 266/4/3
f 266/4/3 150/4/3 155/4/3
f 27/4/3 26/4/3 14/4/3
f 14/4/3 26/4/3 186/4/3
f 75/4/3 74/4/3 219/4/3
f 219/4/3 74/4/3 220/4/3
f 88/1/3 87/1/3 42/1/3
f 42/1/3 87/1/3 108/1/3
f 102/4/3 101/4/3 114/4/3
f 114/4/3 101/4/3 111/4/3
f 141/4/3 140/4/3 260/4/3
f 260/4/3 140/4/3 151/4/3
f 47/3/3 46/3/3 26/3/3
f 26/3/3 46/3/3 88/3/3
f 45/3/3 84/3/3 89/3/3
f 89/3/3 84/3/3 86/3/3
f 95/3/3 94/3/3 103/3/3
f 103/3/3 94/3/3 100/3/3
f 93/3/3 130/3/3 87/3/3
f 87/3/3 130/3/3 141/3/3
f 40/3/4 196/3/4 37/3/4
f 37/3/4 196/3/4 195/3/4
f 79/3/4 222/3/4 77/3/4
f 77/3/4 222/3/4 221/3/4
f 78/3/4 223/3/4 127/3/4
f 127/3/4 223/3/4 251/3/4
f 24/4/4 183/4/4 21/4/4
f 21/4/4 183/4/4 40/4/4
f 72/4/4 218/4/4 69/4/4
f 69/4/4 218/4/4 217/4/4
f 99/4/4 92/4/4 96/4/4
f 96/4/4 92/4/4 91/4/4
f 138/4/4 127/4/4 135/4/4
f 135/4/4 127/4/4 257/4/4
f 12/4/4 175/4/4 9/4/4
f 9/4/4 175/4/4 24/4/4
f 64/4/4 214/4/4 61/4/4
f 61/4/4 214/4/4 213/4/4
f 107/4/4 98/4/4 104/4/4
f 104/4/4 98/4/4 97/4/4
f 146/4/4 135/4/4 143/4/4
f 143/4/4 135/4/4 261/4/4
f 32/2/4 188/2/4 172/2/4
f 172/2/4 188/2/4 174/2/4
f 169/4/4 173/4/4 200/4/4
f 200/4/4 173/4/4 12/4/4
f 201/2/4 11/2/4 29/2/4
f 29/2/4 11/2/4 187/2/4
f 36/2/4 192/2/4 33/2/4
f 33/2/4 192/2/4 191/2/4
f 209/4/4 212/4/4 210/4/4
f 210/4/4 212/4/4 211/4/4
f 199/1/4 37/1/4 226/1/4
f 226/1/4 37/1/4 78/1/4
f 237/4/4 106/4/4 238/4/4
f 238/4/4 106/4/4 105/4/4
f 134/2/4 254/2/4 131/2/4
f 131/2/4 254/2/4 253/2/4
f 160/2/4 270/2/4 157/2/4
f 157/2/4 270/2/4 269/2/4
f 4/2/4 170/2/4 41/2/4
f 41/2/4 170/2/4 199/2/4
f 56/2/4 208/2/4 53/2/4
f 53/2/4 208/2/4 207/2/4
f 81/2/4 226/2/4 161/2/4
f 161/2/4 226/2/4 273/2/4
f 20/2/4 180/2/4 17/2/4
f 17/2/4 180/2/4 179/2/4
f 52/2/4 204/2/4 49/2/4
f 49/2/4 204/2/4 203/2/4
f 60/4/4 55/4/4 57/4/4
f 57/4/4 55/4/4 54/4/4
f 118/4/4 110/4/4 115/4/4
f 115/4/4 110/4/4 109/4/4
f 126/2/4 248/2/4 123/2/4
f 123/2/4 248/2/4 247/2/4
f 168/2/4 278/2/4 155/2/4
f 155/2/4 278/2/4 148/2/4
f 156/4/4 147/4/4 153/4/4
f 153/4/4 147/4/4 164/4/4
f 154/2/4 163/2/4 165/2/4
f 165/2/4 163/2/4 277/2/4
f 16/4/4 5/4/4 13/4/4
f 13/4/4 5/4/4 177/4/4
f 68/4/4 59/4/4 65/4/4
f 65/4/4 59/4/4 58/4/4
f 114/4/4 240/4/4 111/4/4
f 111/4/4 240/4/4 239/4/4
f 152/4/4 265/4/4 149/4/4
f 149/4/4 265/4/4 156/4/4
f 28/4/4 13/4/4 25/4/4
f 25/4/4 13/4/4 185/4/4
f 76/4/4 67/4/4 73/4/4
f 73/4/4 67/4/4 66/4/4
f 89/1/4 41/1/4 86/1/4
f 86/1/4 41/1/4 81/1/4
f 103/4/4 233/4/4 100/4/4
f 100/4/4 233/4/4 232/4/4
f 142/4/4 259/4/4 139/4/4
f 139/4/4 259/4/4 152/4/4
f 48/3/4 25/3/4 45/3/4
f 45/3/4 25/3/4 89/3/4
f 85/3/4 75/3/4 83/3/4
f 83/3/4 75/3/4 74/3/4
f 46/3/4 88/3/4 93/3/4
f 93/3/4 88/3/4 87/3/4
f 84/3/4 86/3/4 129/3/4
f 129/3/4 86/3/4 142/3/4
f 212/2/5 209/2/5 191/2/5
f 191/2/5 209/2/5 33/2/5
f 61/4/5 224/4/5 211/4/5
f 211/4/5 224/4/5 210/4/5
f 69/4/5 62/4/5 213/4/5
f 213/4/5 62/4/5 61/4/5
f 216/4/5 66/4/5 58/4/5
f 58/4/5 66/4/5 65/4/5
f 77/4/5 70/4/5 217/4/5
f 217/4/5 70/4/5 69/4/5
f 194/2/5 34/2/5 64/2/5
f 64/2/5 34/2/5 225/2/5
f 250/2/5 124/2/5 247/2/5
f 247/2/5 124/2/5 123/2/5
f 220/4/5 74/4/5 66/4/5
f 66/4/5 74/4/5 73/4/5
f 223/3/5 78/3/5 221/3/5
f 221/3/5 78/3/5 77/3/5
f 272/2/5 158/2/5 269/2/5
f 269/2/5 158/2/5 157/2/5
f 226/2/5 81/2/5 207/2/5
f 207/2/5 81/2/5 53/2/5
f 182/2/5 18/2/5 179/2/5
f 179/2/5 18/2/5 17/2/5
f 86/3/5 84/3/5 74/3/5
f 74/3/5 84/3/5 83/3/5
f 252/3/5 128/3/5 251/3/5
f 251/3/5 128/3/5 127/3/5
f 39/4/5 22/4/5 40/4/5
f 40/4/5 22/4/5 21/4/5
f 258/4/5 136/4/5 257/4/5
f 257/4/5 136/4/5 135/4/5
f 23/4/5 10/4/5 24/4/5
f 24/4/5 10/4/5 9/4/5
f 262/4/5 144/4/5 261/4/5
f 261/4/5 144/4/5 143/4/5
f 11/4/5 201/4/5 12/4/5
f 12/4/5 201/4/5 200/4/5
f 90/1/5 236/1/5 78/1/5
f 78/1/5 236/1/5 226/1/5
f 268/4/5 275/4/5 267/4/5
f 267/4/5 275/4/5 274/4/5
f 276/2/5 162/2/5 273/2/5
f 273/2/5 162/2/5 161/2/5
f 43/4/5 6/4/5 44/4/5
f 44/4/5 6/4/5 5/4/5
f 163/4/5 154/4/5 164/4/5
f 164/4/5 154/4/5 153/4/5
f 178/4/5 14/4/5 177/4/5
f 177/4/5 14/4/5 13/4/5
f 155/4/5 150/4/5 156/4/5
f 156/4/5 150/4/5 149/4/5
f 186/4/5 26/4/5 185/4/5
f 185/4/5 26/4/5 25/4/5
f 108/1/5 87/1/5 81/1/5
f 81/1/5 87/1/5 86/1/5
f 151/4/5 140/4/5 152/4/5
f 152/4/5 140/4/5 139/4/5
f 88/3/5 46/3/5 89/3/5
f 89/3/5 46/3/5 45/3/5
f 141/3/5 130/3/5 142/3/5
f 142/3/5 130/3/5 129/3/5
f 229/3/5 91/3/5 227/3/5
f 227/3/5 91/3/5 90/3/5
f 190/2/5 30/2/5 187/2/5
f 187/2/5 30/2/5 29/2/5
f 280/2/5 166/2/5 277/2/5
f 277/2/5 166/2/5 165/2/5
f 100/3/5 94/3/5 87/3/5
f 87/3/5 94/3/5 93/3/5
f 231/4/5 97/4/5 91/4/5
f 91/4/5 97/4/5 96/4/5
f 111/4/5 101/4/5 232/4/5
f 232/4/5 101/4/5 100/4/5
f 235/4/5 105/4/5 97/4/5
f 97/4/5 105/4/5 104/4/5
f 110/2/5 118/2/5 203/2/5
f 203/2/5 118/2/5 49/2/5
f 115/4/5 112/4/5 239/4/5
f 239/4/5 112/4/5 111/4/5
f 119/4/5 116/4/5 109/4/5
f 109/4/5 116/4/5 115/4/5
f 256/2/5 132/2/5 253/2/5
f 253/2/5 132/2/5 131/2/5
f 246/2/5 120/2/5 236/2/5
f 236/2/5 120/2/5 108/2/5
f 206/2/5 50/2/5 122/2/5
f 122/2/5 50/2/5 117/2/5
f 54/2/6 248/2/6 57/2/6
f 57/2/6 248/2/6 126/2/6
f 82/4/6 55/4/6 59/4/6
f 59/4/6 55/4/6 60/4/6
f 72/4/6 214/4/6 63/4/6
f 63/4/6 214/4/6 64/4/6
f 215/4/6 59/4/6 67/4/6
f 67/4/6 59/4/6 68/4/6
f 79/4/6 218/4/6 71/4/6
f 71/4/6 218/4/6 72/4/6
f 193/2/6 192/2/6 35/2/6
f 35/2/6 192/2/6 36/2/6
f 249/2/6 80/2/6 125/2/6
f 125/2/6 80/2/6 58/2/6
f 219/4/6 67/4/6 75/4/6
f 75/4/6 67/4/6 76/4/6
f 195/3/6 222/3/6 37/3/6
f 37/3/6 222/3/6 79/3/6
f 271/2/6 270/2/6 159/2/6
f 159/2/6 270/2/6 160/2/6
f 199/2/6 208/2/6 41/2/6
f 41/2/6 208/2/6 56/2/6
f 181/2/6 180/2/6 19/2/6
f 19/2/6 180/2/6 20/2/6
f 89/3/6 75/3/6 45/3/6
f 45/3/6 75/3/6 85/3/6
f 197/3/6 196/3/6 39/3/6
f 39/3/6 196/3/6 40/3/6
f 184/4/6 183/4/6 23/4/6
f 23/4/6 183/4/6 24/4/6
f 128/4/6 127/4/6 137/4/6
f 137/4/6 127/4/6 138/4/6
f 176/4/6 175/4/6 11/4/6
f 11/4/6 175/4/6 12/4/6
f 136/4/6 135/4/6 145/4/6
f 145/4/6 135/4/6 146/4/6
f 174/4/6 173/4/6 172/4/6
f 172/4/6 173/4/6 169/4/6
f 38/1/6 37/1/6 202/1/6
f 202/1/6 37/1/6 199/1/6
f 144/4/6 143/4/6 264/4/6
f 264/4/6 143/4/6 263/4/6
f 171/2/6 170/2/6 3/2/6
f 3/2/6 170/2/6 4/2/6
f 2/4/6 1/4/6 7/4/6
f 7/4/6 1/4/6 8/4/6
f 148/4/6 147/4/6 155/4/6
f 155/4/6 147/4/6 156/4/6
f 6/4/6 5/4/6 15/4/6
f 15/4/6 5/4/6 16/4/6
f 266/4/6 265/4/6 151/4/6
f 151/4/6 265/4/6 152/4/6
f 14/4/6 13/4/6 27/4/6
f 27/4/6 13/4/6 28/4/6
f 42/1/6 41/1/6 88/1/6
f 88/1/6 41/1/6 89/1/6
f 260/4/6 259/4/6 141/4/6
f 141/4/6 259/4/6 142/4/6
f 26/3/6 25/3/6 47/3/6
f 47/3/6 25/3/6 48/3/6
f 87/3/6 86/3/6 93/3/6
f 93/3/6 86/3/6 84/3/6
f 228/3/6 198/3/6 92/3/6
f 92/3/6 198/3/6 38/3/6
f 189/2/6 188/2/6 31/2/6
f 31/2/6 188/2/6 32/2/6
f 279/2/6 278/2/6 167/2/6
f 167/2/6 278/2/6 168/2/6
f 103/3/6 88/3/6 95/3/6
f 95/3/6 88/3/6 46/3/6
f 230/4/6 92/4/6 98/4/6
f 98/4/6 92/4/6 99/4/6
f 114/4/6 233/4/6 102/4/6
f 102/4/6 233/4/6 103/4/6
f 234/4/6 98/4/6 106/4/6
f 106/4/6 98/4/6 107/4/6
f 105/2/6 254/2/6 238/2/6
f 238/2/6 254/2/6 134/2/6
f 118/4/6 240/4/6 113/4/6
f 113/4/6 240/4/6 114/4/6
f 241/4/6 106/4/6 244/4/6
f 244/4/6 106/4/6 237/4/6
f 255/2/6 242/2/6 133/2/6
f 133/2/6 242/2/6 243/2/6
f 245/2/6 202/2/6 121/2/6
f 121/2/6 202/2/6 42/2/6
f 205/2/6 204/2/6 51/2/6
f 51/2/6 204/2/6 52/2/6
