# Vengi binary mesh normalized for Tanks of Freedom II

mtllib ../../materials/vox_building.mtl
o heli_rotor_horizontal

v 0.1 0.1 1
v 0 0.1 1
v 0 0.1 1.1
v 0.1 0.1 1.1
v 0 0 1
v -0.1 0 1
v -0.1 0 1.1
v 0 0 1.1
v 0.1 0 0.9
v 0 0 0.9
v 0.1 0 1
v 0 0.1 0.9
v -0.1 0.1 0.9
v -0.1 0.1 1
v 0.1 0.1 0.8
v 0 0.1 0.8
v 0.1 0.1 0.9
v 0 0 0.8
v -0.1 0 0.8
v -0.1 0 0.9
v 0.1 0 0.7
v 0 0 0.7
v 0.1 0 0.8
v 0 0.1 0.7
v -0.1 0.1 0.7
v -0.1 0.1 0.8
v 0.1 0.1 0.6
v 0 0.1 0.6
v 0.1 0.1 0.7
v 0 0 0.6
v -0.1 0 0.6
v -0.1 0 0.7
v 0.1 0 0.5
v 0 0 0.5
v 0.1 0 0.6
v 0 0.1 0.5
v -0.1 0.1 0.5
v -0.1 0.1 0.6
v 0.1 0.1 0.4
v 0 0.1 0.4
v 0.1 0.1 0.5
v 0 0 0.4
v -0.1 0 0.4
v -0.1 0 0.5
v 0.1 0 0.3
v 0 0 0.3
v 0.1 0 0.4
v 0 0.1 0.3
v -0.1 0.1 0.3
v -0.1 0.1 0.4
v 0.1 0.1 0.2
v 0 0.1 0.2
v 0.1 0.1 0.3
v 0 0 0.2
v -0.1 0 0.2
v -0.1 0 0.3
v 0.1 0 0.1
v 0 0 0.1
v 0.1 0 0.2
v 0 0.1 0.1
v -0.1 0.1 0.1
v -0.1 0.1 0.2
v 0.1 0.1 0
v 0 0.1 0
v 0.1 0.1 0.1
v 0 0 0
v -0.1 0 0
v -0.1 0 0.1
v 0.1 0 -0.1
v 0 0 -0.1
v 0.1 0 0
v 0 0.1 -0.1
v -0.1 0.1 -0.1
v -0.1 0.1 0
v 0.1 0.1 -0.2
v 0 0.1 -0.2
v 0.1 0.1 -0.1
v 0 0 -0.2
v -0.1 0 -0.2
v -0.1 0 -0.1
v 0.1 0 -0.3
v 0 0 -0.3
v 0.1 0 -0.2
v 0 0.1 -0.3
v -0.1 0.1 -0.3
v -0.1 0.1 -0.2
v 0.1 0.1 -0.4
v 0 0.1 -0.4
v 0.1 0.1 -0.3
v 0 0 -0.4
v -0.1 0 -0.4
v -0.1 0 -0.3
v 0.1 0 -0.5
v 0 0 -0.5
v 0.1 0 -0.4
v 0 0.1 -0.5
v -0.1 0.1 -0.5
v -0.1 0.1 -0.4
v 0.1 0.1 -0.6
v 0 0.1 -0.6
v 0.1 0.1 -0.5
v 0 0 -0.6
v -0.1 0 -0.6
v -0.1 0 -0.5
v 0.1 0 -0.7
v 0 0 -0.7
v 0.1 0 -0.6
v 0 0.1 -0.7
v -0.1 0.1 -0.7
v -0.1 0.1 -0.6
v 0.1 0.1 -0.8
v 0 0.1 -0.8
v 0.1 0.1 -0.7
v 0 0 -0.8
v -0.1 0 -0.8
v -0.1 0 -0.7
v 0.1 0 -0.9
v 0 0 -0.9
v 0.1 0 -0.8
v 0 0.1 -0.9
v -0.1 0.1 -0.9
v -0.1 0.1 -0.8
v 0.1 0.1 -1
v 0 0.1 -1
v 0.1 0.1 -0.9
v 0 0 -1
v -0.1 0 -1
v -0.1 0 -0.9
v 0.4 0.1 -1.1
v 0.1 0.1 -1.1
v 0.4 0.1 -1
v 0.1 -0.1 -1.1
v -0.1 -0.1 -1.1
v -0.1 -0.1 -1
v 0.1 -0.1 -1
v 0.1 0.4 -1.1
v -0.1 0.4 -1.1
v -0.1 0.4 -1
v 0.1 0.4 -1
v -0.1 0.1 -1.1
v -0.4 0.1 -1.1
v -0.4 0.1 -1
v -0.1 0.1 -1
v 0.1 0 1.1
v 0 -0.1 1
v 0 -0.1 1.1
v -0.1 -0.1 1.1
v -0.1 -0.1 1
v 0.1 -0.1 0.9
v 0.1 -0.1 1
v 0 -0.1 0.9
v 0 -0.1 0.8
v -0.1 -0.1 0.9
v -0.1 -0.1 0.8
v 0.1 -0.1 0.7
v 0.1 -0.1 0.8
v 0 -0.1 0.7
v 0 -0.1 0.6
v -0.1 -0.1 0.7
v -0.1 -0.1 0.6
v 0.1 -0.1 0.5
v 0.1 -0.1 0.6
v 0 -0.1 0.5
v 0 -0.1 0.4
v -0.1 -0.1 0.5
v -0.1 -0.1 0.4
v 0.1 -0.1 0.3
v 0.1 -0.1 0.4
v 0 -0.1 0.3
v 0 -0.1 0.2
v -0.1 -0.1 0.3
v -0.1 -0.1 0.2
v 0.1 -0.1 0.1
v 0.1 -0.1 0.2
v 0 -0.1 0.1
v 0 -0.1 0
v -0.1 -0.1 0.1
v -0.1 -0.1 0
v 0.1 -0.1 -0.1
v 0.1 -0.1 0
v 0 -0.1 -0.1
v 0 -0.1 -0.2
v -0.1 -0.1 -0.1
v -0.1 -0.1 -0.2
v 0.1 -0.1 -0.3
v 0.1 -0.1 -0.2
v 0 -0.1 -0.3
v 0 -0.1 -0.4
v -0.1 -0.1 -0.3
v -0.1 -0.1 -0.4
v 0.1 -0.1 -0.5
v 0.1 -0.1 -0.4
v 0 -0.1 -0.5
v 0 -0.1 -0.6
v -0.1 -0.1 -0.5
v -0.1 -0.1 -0.6
v 0.1 -0.1 -0.7
v 0.1 -0.1 -0.6
v 0 -0.1 -0.7
v 0 -0.1 -0.8
v -0.1 -0.1 -0.7
v -0.1 -0.1 -0.8
v 0.1 -0.1 -0.9
v 0.1 -0.1 -0.8
v 0 -0.1 -0.9
v 0.1 0 -1
v 0 -0.1 -1
v -0.1 -0.1 -0.9
v 0.4 -0.1 -1.1
v 0.4 -0.1 -1
v 0.1 -0.4 -1.1
v 0.1 -0.4 -1
v -0.1 -0.4 -1
v -0.1 -0.4 -1.1
v -0.4 -0.1 -1
v -0.4 -0.1 -1.1

vt 0.00585938 0.5
vt 0.0332031 0.5

vn 0 1 0
vn 0 -1 0
vn -1 0 0
vn 1 0 0
vn 0 0 -1
vn 0 0 1

usemtl palette
f 1/1/1 2/1/1 4/1/1
f 4/1/1 2/1/1 3/1/1
f 5/1/1 6/1/1 8/1/1
f 8/1/1 6/1/1 7/1/1
f 9/1/1 10/1/1 11/1/1
f 11/1/1 10/1/1 5/1/1
f 12/1/1 13/1/1 2/1/1
f 2/1/1 13/1/1 14/1/1
f 15/1/1 16/1/1 17/1/1
f 17/1/1 16/1/1 12/1/1
f 18/1/1 19/1/1 10/1/1
f 10/1/1 19/1/1 20/1/1
f 21/1/1 22/1/1 23/1/1
f 23/1/1 22/1/1 18/1/1
f 24/1/1 25/1/1 16/1/1
f 16/1/1 25/1/1 26/1/1
f 27/1/1 28/1/1 29/1/1
f 29/1/1 28/1/1 24/1/1
f 30/1/1 31/1/1 22/1/1
f 22/1/1 31/1/1 32/1/1
f 33/1/1 34/1/1 35/1/1
f 35/1/1 34/1/1 30/1/1
f 36/1/1 37/1/1 28/1/1
f 28/1/1 37/1/1 38/1/1
f 39/1/1 40/1/1 41/1/1
f 41/1/1 40/1/1 36/1/1
f 42/1/1 43/1/1 34/1/1
f 34/1/1 43/1/1 44/1/1
f 45/1/1 46/1/1 47/1/1
f 47/1/1 46/1/1 42/1/1
f 48/1/1 49/1/1 40/1/1
f 40/1/1 49/1/1 50/1/1
f 51/1/1 52/1/1 53/1/1
f 53/1/1 52/1/1 48/1/1
f 54/1/1 55/1/1 46/1/1
f 46/1/1 55/1/1 56/1/1
f 57/1/1 58/1/1 59/1/1
f 59/1/1 58/1/1 54/1/1
f 60/1/1 61/1/1 52/1/1
f 52/1/1 61/1/1 62/1/1
f 63/1/1 64/1/1 65/1/1
f 65/1/1 64/1/1 60/1/1
f 66/1/1 67/1/1 58/1/1
f 58/1/1 67/1/1 68/1/1
f 69/1/1 70/1/1 71/1/1
f 71/1/1 70/1/1 66/1/1
f 72/1/1 73/1/1 64/1/1
f 64/1/1 73/1/1 74/1/1
f 75/1/1 76/1/1 77/1/1
f 77/1/1 76/1/1 72/1/1
f 78/1/1 79/1/1 70/1/1
f 70/1/1 79/1/1 80/1/1
f 81/1/1 82/1/1 83/1/1
f 83/1/1 82/1/1 78/1/1
f 84/1/1 85/1/1 76/1/1
f 76/1/1 85/1/1 86/1/1
f 87/1/1 88/1/1 89/1/1
f 89/1/1 88/1/1 84/1/1
f 90/1/1 91/1/1 82/1/1
f 82/1/1 91/1/1 92/1/1
f 93/1/1 94/1/1 95/1/1
f 95/1/1 94/1/1 90/1/1
f 96/1/1 97/1/1 88/1/1
f 88/1/1 97/1/1 98/1/1
f 99/1/1 100/1/1 101/1/1
f 101/1/1 100/1/1 96/1/1
f 102/1/1 103/1/1 94/1/1
f 94/1/1 103/1/1 104/1/1
f 105/1/1 106/1/1 107/1/1
f 107/1/1 106/1/1 102/1/1
f 108/1/1 109/1/1 100/1/1
f 100/1/1 109/1/1 110/1/1
f 111/1/1 112/1/1 113/1/1
f 113/1/1 112/1/1 108/1/1
f 114/1/1 115/1/1 106/1/1
f 106/1/1 115/1/1 116/1/1
f 117/1/1 118/1/1 119/1/1
f 119/1/1 118/1/1 114/1/1
f 120/1/1 121/1/1 112/1/1
f 112/1/1 121/1/1 122/1/1
f 123/1/1 124/1/1 125/1/1
f 125/1/1 124/1/1 120/1/1
f 126/1/1 127/1/1 118/1/1
f 118/1/1 127/1/1 128/1/1
f 129/2/1 130/2/1 131/2/1
f 131/2/1 130/2/1 123/2/1
f 132/2/1 133/2/1 135/2/1
f 135/2/1 133/2/1 134/2/1
f 136/2/1 137/2/1 139/2/1
f 139/2/1 137/2/1 138/2/1
f 140/2/1 141/2/1 143/2/1
f 143/2/1 141/2/1 142/2/1
f 11/1/2 144/1/2 5/1/2
f 5/1/2 144/1/2 8/1/2
f 145/1/2 146/1/2 148/1/2
f 148/1/2 146/1/2 147/1/2
f 149/1/2 150/1/2 151/1/2
f 151/1/2 150/1/2 145/1/2
f 10/1/2 5/1/2 20/1/2
f 20/1/2 5/1/2 6/1/2
f 23/1/2 9/1/2 18/1/2
f 18/1/2 9/1/2 10/1/2
f 152/1/2 151/1/2 154/1/2
f 154/1/2 151/1/2 153/1/2
f 155/1/2 156/1/2 157/1/2
f 157/1/2 156/1/2 152/1/2
f 22/1/2 18/1/2 32/1/2
f 32/1/2 18/1/2 19/1/2
f 35/1/2 21/1/2 30/1/2
f 30/1/2 21/1/2 22/1/2
f 158/1/2 157/1/2 160/1/2
f 160/1/2 157/1/2 159/1/2
f 161/1/2 162/1/2 163/1/2
f 163/1/2 162/1/2 158/1/2
f 34/1/2 30/1/2 44/1/2
f 44/1/2 30/1/2 31/1/2
f 47/1/2 33/1/2 42/1/2
f 42/1/2 33/1/2 34/1/2
f 164/1/2 163/1/2 166/1/2
f 166/1/2 163/1/2 165/1/2
f 167/1/2 168/1/2 169/1/2
f 169/1/2 168/1/2 164/1/2
f 46/1/2 42/1/2 56/1/2
f 56/1/2 42/1/2 43/1/2
f 59/1/2 45/1/2 54/1/2
f 54/1/2 45/1/2 46/1/2
f 170/1/2 169/1/2 172/1/2
f 172/1/2 169/1/2 171/1/2
f 173/1/2 174/1/2 175/1/2
f 175/1/2 174/1/2 170/1/2
f 58/1/2 54/1/2 68/1/2
f 68/1/2 54/1/2 55/1/2
f 71/1/2 57/1/2 66/1/2
f 66/1/2 57/1/2 58/1/2
f 176/1/2 175/1/2 178/1/2
f 178/1/2 175/1/2 177/1/2
f 179/1/2 180/1/2 181/1/2
f 181/1/2 180/1/2 176/1/2
f 70/1/2 66/1/2 80/1/2
f 80/1/2 66/1/2 67/1/2
f 83/1/2 69/1/2 78/1/2
f 78/1/2 69/1/2 70/1/2
f 182/1/2 181/1/2 184/1/2
f 184/1/2 181/1/2 183/1/2
f 185/1/2 186/1/2 187/1/2
f 187/1/2 186/1/2 182/1/2
f 82/1/2 78/1/2 92/1/2
f 92/1/2 78/1/2 79/1/2
f 95/1/2 81/1/2 90/1/2
f 90/1/2 81/1/2 82/1/2
f 188/1/2 187/1/2 190/1/2
f 190/1/2 187/1/2 189/1/2
f 191/1/2 192/1/2 193/1/2
f 193/1/2 192/1/2 188/1/2
f 94/1/2 90/1/2 104/1/2
f 104/1/2 90/1/2 91/1/2
f 107/1/2 93/1/2 102/1/2
f 102/1/2 93/1/2 94/1/2
f 194/1/2 193/1/2 196/1/2
f 196/1/2 193/1/2 195/1/2
f 197/1/2 198/1/2 199/1/2
f 199/1/2 198/1/2 194/1/2
f 106/1/2 102/1/2 116/1/2
f 116/1/2 102/1/2 103/1/2
f 119/1/2 105/1/2 114/1/2
f 114/1/2 105/1/2 106/1/2
f 200/1/2 199/1/2 202/1/2
f 202/1/2 199/1/2 201/1/2
f 203/1/2 204/1/2 205/1/2
f 205/1/2 204/1/2 200/1/2
f 118/1/2 114/1/2 128/1/2
f 128/1/2 114/1/2 115/1/2
f 206/1/2 117/1/2 126/1/2
f 126/1/2 117/1/2 118/1/2
f 207/1/2 205/1/2 134/1/2
f 134/1/2 205/1/2 208/1/2
f 209/2/2 210/2/2 132/2/2
f 132/2/2 210/2/2 135/2/2
f 211/2/2 212/2/2 214/2/2
f 214/2/2 212/2/2 213/2/2
f 130/2/2 123/2/2 140/2/2
f 140/2/2 123/2/2 143/2/2
f 133/2/2 134/2/2 216/2/2
f 216/2/2 134/2/2 215/2/2
f 134/2/3 133/2/3 213/2/3
f 213/2/3 133/2/3 214/2/3
f 7/1/3 6/1/3 147/1/3
f 147/1/3 6/1/3 148/1/3
f 5/1/3 10/1/3 145/1/3
f 145/1/3 10/1/3 151/1/3
f 20/1/3 19/1/3 153/1/3
f 153/1/3 19/1/3 154/1/3
f 18/1/3 22/1/3 152/1/3
f 152/1/3 22/1/3 157/1/3
f 32/1/3 31/1/3 159/1/3
f 159/1/3 31/1/3 160/1/3
f 30/1/3 34/1/3 158/1/3
f 158/1/3 34/1/3 163/1/3
f 44/1/3 43/1/3 165/1/3
f 165/1/3 43/1/3 166/1/3
f 42/1/3 46/1/3 164/1/3
f 164/1/3 46/1/3 169/1/3
f 56/1/3 55/1/3 171/1/3
f 171/1/3 55/1/3 172/1/3
f 54/1/3 58/1/3 170/1/3
f 170/1/3 58/1/3 175/1/3
f 68/1/3 67/1/3 177/1/3
f 177/1/3 67/1/3 178/1/3
f 66/1/3 70/1/3 176/1/3
f 176/1/3 70/1/3 181/1/3
f 80/1/3 79/1/3 183/1/3
f 183/1/3 79/1/3 184/1/3
f 78/1/3 82/1/3 182/1/3
f 182/1/3 82/1/3 187/1/3
f 92/1/3 91/1/3 189/1/3
f 189/1/3 91/1/3 190/1/3
f 90/1/3 94/1/3 188/1/3
f 188/1/3 94/1/3 193/1/3
f 104/1/3 103/1/3 195/1/3
f 195/1/3 103/1/3 196/1/3
f 102/1/3 106/1/3 194/1/3
f 194/1/3 106/1/3 199/1/3
f 116/1/3 115/1/3 201/1/3
f 201/1/3 115/1/3 202/1/3
f 114/1/3 118/1/3 200/1/3
f 200/1/3 118/1/3 205/1/3
f 128/1/3 127/1/3 208/1/3
f 208/1/3 127/1/3 134/1/3
f 3/1/3 2/1/3 8/1/3
f 8/1/3 2/1/3 5/1/3
f 14/1/3 13/1/3 6/1/3
f 6/1/3 13/1/3 20/1/3
f 12/1/3 16/1/3 10/1/3
f 10/1/3 16/1/3 18/1/3
f 26/1/3 25/1/3 19/1/3
f 19/1/3 25/1/3 32/1/3
f 24/1/3 28/1/3 22/1/3
f 22/1/3 28/1/3 30/1/3
f 38/1/3 37/1/3 31/1/3
f 31/1/3 37/1/3 44/1/3
f 36/1/3 40/1/3 34/1/3
f 34/1/3 40/1/3 42/1/3
f 50/1/3 49/1/3 43/1/3
f 43/1/3 49/1/3 56/1/3
f 48/1/3 52/1/3 46/1/3
f 46/1/3 52/1/3 54/1/3
f 62/1/3 61/1/3 55/1/3
f 55/1/3 61/1/3 68/1/3
f 60/1/3 64/1/3 58/1/3
f 58/1/3 64/1/3 66/1/3
f 74/1/3 73/1/3 67/1/3
f 67/1/3 73/1/3 80/1/3
f 72/1/3 76/1/3 70/1/3
f 70/1/3 76/1/3 78/1/3
f 86/1/3 85/1/3 79/1/3
f 79/1/3 85/1/3 92/1/3
f 84/1/3 88/1/3 82/1/3
f 82/1/3 88/1/3 90/1/3
f 98/1/3 97/1/3 91/1/3
f 91/1/3 97/1/3 104/1/3
f 96/1/3 100/1/3 94/1/3
f 94/1/3 100/1/3 102/1/3
f 110/1/3 109/1/3 103/1/3
f 103/1/3 109/1/3 116/1/3
f 108/1/3 112/1/3 106/1/3
f 106/1/3 112/1/3 114/1/3
f 122/1/3 121/1/3 115/1/3
f 115/1/3 121/1/3 128/1/3
f 120/1/3 124/1/3 118/1/3
f 118/1/3 124/1/3 126/1/3
f 123/2/3 130/2/3 135/2/3
f 135/2/3 130/2/3 132/2/3
f 142/2/3 141/2/3 215/2/3
f 215/2/3 141/2/3 216/2/3
f 138/2/3 137/2/3 143/2/3
f 143/2/3 137/2/3 140/2/3
f 135/2/4 212/2/4 132/2/4
f 132/2/4 212/2/4 211/2/4
f 8/1/4 146/1/4 5/1/4
f 5/1/4 146/1/4 145/1/4
f 11/1/4 150/1/4 9/1/4
f 9/1/4 150/1/4 149/1/4
f 10/1/4 151/1/4 18/1/4
f 18/1/4 151/1/4 152/1/4
f 23/1/4 156/1/4 21/1/4
f 21/1/4 156/1/4 155/1/4
f 22/1/4 157/1/4 30/1/4
f 30/1/4 157/1/4 158/1/4
f 35/1/4 162/1/4 33/1/4
f 33/1/4 162/1/4 161/1/4
f 34/1/4 163/1/4 42/1/4
f 42/1/4 163/1/4 164/1/4
f 47/1/4 168/1/4 45/1/4
f 45/1/4 168/1/4 167/1/4
f 46/1/4 169/1/4 54/1/4
f 54/1/4 169/1/4 170/1/4
f 59/1/4 174/1/4 57/1/4
f 57/1/4 174/1/4 173/1/4
f 58/1/4 175/1/4 66/1/4
f 66/1/4 175/1/4 176/1/4
f 71/1/4 180/1/4 69/1/4
f 69/1/4 180/1/4 179/1/4
f 70/1/4 181/1/4 78/1/4
f 78/1/4 181/1/4 182/1/4
f 83/1/4 186/1/4 81/1/4
f 81/1/4 186/1/4 185/1/4
f 82/1/4 187/1/4 90/1/4
f 90/1/4 187/1/4 188/1/4
f 95/1/4 192/1/4 93/1/4
f 93/1/4 192/1/4 191/1/4
f 94/1/4 193/1/4 102/1/4
f 102/1/4 193/1/4 194/1/4
f 107/1/4 198/1/4 105/1/4
f 105/1/4 198/1/4 197/1/4
f 106/1/4 199/1/4 114/1/4
f 114/1/4 199/1/4 200/1/4
f 119/1/4 204/1/4 117/1/4
f 117/1/4 204/1/4 203/1/4
f 118/1/4 205/1/4 126/1/4
f 126/1/4 205/1/4 207/1/4
f 4/1/4 144/1/4 1/1/4
f 1/1/4 144/1/4 11/1/4
f 2/1/4 5/1/4 12/1/4
f 12/1/4 5/1/4 10/1/4
f 17/1/4 9/1/4 15/1/4
f 15/1/4 9/1/4 23/1/4
f 16/1/4 18/1/4 24/1/4
f 24/1/4 18/1/4 22/1/4
f 29/1/4 21/1/4 27/1/4
f 27/1/4 21/1/4 35/1/4
f 28/1/4 30/1/4 36/1/4
f 36/1/4 30/1/4 34/1/4
f 41/1/4 33/1/4 39/1/4
f 39/1/4 33/1/4 47/1/4
f 40/1/4 42/1/4 48/1/4
f 48/1/4 42/1/4 46/1/4
f 53/1/4 45/1/4 51/1/4
f 51/1/4 45/1/4 59/1/4
f 52/1/4 54/1/4 60/1/4
f 60/1/4 54/1/4 58/1/4
f 65/1/4 57/1/4 63/1/4
f 63/1/4 57/1/4 71/1/4
f 64/1/4 66/1/4 72/1/4
f 72/1/4 66/1/4 70/1/4
f 77/1/4 69/1/4 75/1/4
f 75/1/4 69/1/4 83/1/4
f 76/1/4 78/1/4 84/1/4
f 84/1/4 78/1/4 82/1/4
f 89/1/4 81/1/4 87/1/4
f 87/1/4 81/1/4 95/1/4
f 88/1/4 90/1/4 96/1/4
f 96/1/4 90/1/4 94/1/4
f 101/1/4 93/1/4 99/1/4
f 99/1/4 93/1/4 107/1/4
f 100/1/4 102/1/4 108/1/4
f 108/1/4 102/1/4 106/1/4
f 113/1/4 105/1/4 111/1/4
f 111/1/4 105/1/4 119/1/4
f 112/1/4 114/1/4 120/1/4
f 120/1/4 114/1/4 118/1/4
f 125/1/4 117/1/4 123/1/4
f 123/1/4 117/1/4 206/1/4
f 131/2/4 210/2/4 129/2/4
f 129/2/4 210/2/4 209/2/4
f 143/2/4 134/2/4 140/2/4
f 140/2/4 134/2/4 133/2/4
f 139/2/4 123/2/4 136/2/4
f 136/2/4 123/2/4 130/2/4
f 132/2/5 130/2/5 209/2/5
f 209/2/5 130/2/5 129/2/5
f 151/1/5 10/1/5 149/1/5
f 149/1/5 10/1/5 9/1/5
f 157/1/5 22/1/5 155/1/5
f 155/1/5 22/1/5 21/1/5
f 163/1/5 34/1/5 161/1/5
f 161/1/5 34/1/5 33/1/5
f 169/1/5 46/1/5 167/1/5
f 167/1/5 46/1/5 45/1/5
f 175/1/5 58/1/5 173/1/5
f 173/1/5 58/1/5 57/1/5
f 181/1/5 70/1/5 179/1/5
f 179/1/5 70/1/5 69/1/5
f 187/1/5 82/1/5 185/1/5
f 185/1/5 82/1/5 81/1/5
f 193/1/5 94/1/5 191/1/5
f 191/1/5 94/1/5 93/1/5
f 199/1/5 106/1/5 197/1/5
f 197/1/5 106/1/5 105/1/5
f 205/1/5 118/1/5 203/1/5
f 203/1/5 118/1/5 117/1/5
f 5/1/5 2/1/5 11/1/5
f 11/1/5 2/1/5 1/1/5
f 18/1/5 16/1/5 23/1/5
f 23/1/5 16/1/5 15/1/5
f 30/1/5 28/1/5 35/1/5
f 35/1/5 28/1/5 27/1/5
f 42/1/5 40/1/5 47/1/5
f 47/1/5 40/1/5 39/1/5
f 54/1/5 52/1/5 59/1/5
f 59/1/5 52/1/5 51/1/5
f 66/1/5 64/1/5 71/1/5
f 71/1/5 64/1/5 63/1/5
f 78/1/5 76/1/5 83/1/5
f 83/1/5 76/1/5 75/1/5
f 90/1/5 88/1/5 95/1/5
f 95/1/5 88/1/5 87/1/5
f 102/1/5 100/1/5 107/1/5
f 107/1/5 100/1/5 99/1/5
f 114/1/5 112/1/5 119/1/5
f 119/1/5 112/1/5 111/1/5
f 126/1/5 124/1/5 206/1/5
f 206/1/5 124/1/5 123/1/5
f 214/2/5 133/2/5 211/2/5
f 211/2/5 133/2/5 132/2/5
f 148/1/5 6/1/5 145/1/5
f 145/1/5 6/1/5 5/1/5
f 154/1/5 19/1/5 152/1/5
f 152/1/5 19/1/5 18/1/5
f 160/1/5 31/1/5 158/1/5
f 158/1/5 31/1/5 30/1/5
f 166/1/5 43/1/5 164/1/5
f 164/1/5 43/1/5 42/1/5
f 172/1/5 55/1/5 170/1/5
f 170/1/5 55/1/5 54/1/5
f 178/1/5 67/1/5 176/1/5
f 176/1/5 67/1/5 66/1/5
f 184/1/5 79/1/5 182/1/5
f 182/1/5 79/1/5 78/1/5
f 190/1/5 91/1/5 188/1/5
f 188/1/5 91/1/5 90/1/5
f 196/1/5 103/1/5 194/1/5
f 194/1/5 103/1/5 102/1/5
f 202/1/5 115/1/5 200/1/5
f 200/1/5 115/1/5 114/1/5
f 134/1/5 127/1/5 207/1/5
f 207/1/5 127/1/5 126/1/5
f 20/1/5 13/1/5 10/1/5
f 10/1/5 13/1/5 12/1/5
f 32/1/5 25/1/5 22/1/5
f 22/1/5 25/1/5 24/1/5
f 44/1/5 37/1/5 34/1/5
f 34/1/5 37/1/5 36/1/5
f 56/1/5 49/1/5 46/1/5
f 46/1/5 49/1/5 48/1/5
f 68/1/5 61/1/5 58/1/5
f 58/1/5 61/1/5 60/1/5
f 80/1/5 73/1/5 70/1/5
f 70/1/5 73/1/5 72/1/5
f 92/1/5 85/1/5 82/1/5
f 82/1/5 85/1/5 84/1/5
f 104/1/5 97/1/5 94/1/5
f 94/1/5 97/1/5 96/1/5
f 116/1/5 109/1/5 106/1/5
f 106/1/5 109/1/5 108/1/5
f 128/1/5 121/1/5 118/1/5
f 118/1/5 121/1/5 120/1/5
f 140/2/5 137/2/5 130/2/5
f 130/2/5 137/2/5 136/2/5
f 216/2/5 141/2/5 133/2/5
f 133/2/5 141/2/5 140/2/5
f 135/2/6 210/2/6 123/2/6
f 123/2/6 210/2/6 131/2/6
f 145/1/6 150/1/6 5/1/6
f 5/1/6 150/1/6 11/1/6
f 152/1/6 156/1/6 18/1/6
f 18/1/6 156/1/6 23/1/6
f 158/1/6 162/1/6 30/1/6
f 30/1/6 162/1/6 35/1/6
f 164/1/6 168/1/6 42/1/6
f 42/1/6 168/1/6 47/1/6
f 170/1/6 174/1/6 54/1/6
f 54/1/6 174/1/6 59/1/6
f 176/1/6 180/1/6 66/1/6
f 66/1/6 180/1/6 71/1/6
f 182/1/6 186/1/6 78/1/6
f 78/1/6 186/1/6 83/1/6
f 188/1/6 192/1/6 90/1/6
f 90/1/6 192/1/6 95/1/6
f 194/1/6 198/1/6 102/1/6
f 102/1/6 198/1/6 107/1/6
f 200/1/6 204/1/6 114/1/6
f 114/1/6 204/1/6 119/1/6
f 8/1/6 144/1/6 3/1/6
f 3/1/6 144/1/6 4/1/6
f 10/1/6 9/1/6 12/1/6
f 12/1/6 9/1/6 17/1/6
f 22/1/6 21/1/6 24/1/6
f 24/1/6 21/1/6 29/1/6
f 34/1/6 33/1/6 36/1/6
f 36/1/6 33/1/6 41/1/6
f 46/1/6 45/1/6 48/1/6
f 48/1/6 45/1/6 53/1/6
f 58/1/6 57/1/6 60/1/6
f 60/1/6 57/1/6 65/1/6
f 70/1/6 69/1/6 72/1/6
f 72/1/6 69/1/6 77/1/6
f 82/1/6 81/1/6 84/1/6
f 84/1/6 81/1/6 89/1/6
f 94/1/6 93/1/6 96/1/6
f 96/1/6 93/1/6 101/1/6
f 106/1/6 105/1/6 108/1/6
f 108/1/6 105/1/6 113/1/6
f 118/1/6 117/1/6 120/1/6
f 120/1/6 117/1/6 125/1/6
f 213/2/6 212/2/6 134/2/6
f 134/2/6 212/2/6 135/2/6
f 147/1/6 146/1/6 7/1/6
f 7/1/6 146/1/6 8/1/6
f 153/1/6 151/1/6 20/1/6
f 20/1/6 151/1/6 10/1/6
f 159/1/6 157/1/6 32/1/6
f 32/1/6 157/1/6 22/1/6
f 165/1/6 163/1/6 44/1/6
f 44/1/6 163/1/6 34/1/6
f 171/1/6 169/1/6 56/1/6
f 56/1/6 169/1/6 46/1/6
f 177/1/6 175/1/6 68/1/6
f 68/1/6 175/1/6 58/1/6
f 183/1/6 181/1/6 80/1/6
f 80/1/6 181/1/6 70/1/6
f 189/1/6 187/1/6 92/1/6
f 92/1/6 187/1/6 82/1/6
f 195/1/6 193/1/6 104/1/6
f 104/1/6 193/1/6 94/1/6
f 201/1/6 199/1/6 116/1/6
f 116/1/6 199/1/6 106/1/6
f 208/1/6 205/1/6 128/1/6
f 128/1/6 205/1/6 118/1/6
f 6/1/6 5/1/6 14/1/6
f 14/1/6 5/1/6 2/1/6
f 19/1/6 18/1/6 26/1/6
f 26/1/6 18/1/6 16/1/6
f 31/1/6 30/1/6 38/1/6
f 38/1/6 30/1/6 28/1/6
f 43/1/6 42/1/6 50/1/6
f 50/1/6 42/1/6 40/1/6
f 55/1/6 54/1/6 62/1/6
f 62/1/6 54/1/6 52/1/6
f 67/1/6 66/1/6 74/1/6
f 74/1/6 66/1/6 64/1/6
f 79/1/6 78/1/6 86/1/6
f 86/1/6 78/1/6 76/1/6
f 91/1/6 90/1/6 98/1/6
f 98/1/6 90/1/6 88/1/6
f 103/1/6 102/1/6 110/1/6
f 110/1/6 102/1/6 100/1/6
f 115/1/6 114/1/6 122/1/6
f 122/1/6 114/1/6 112/1/6
f 143/2/6 123/2/6 138/2/6
f 138/2/6 123/2/6 139/2/6
f 215/2/6 134/2/6 142/2/6
f 142/2/6 134/2/6 143/2/6
