# Vengi binary mesh normalized for Tanks of Freedom II

mtllib ../../materials/vox_building.mtl
o infantry

v -0.6 0.6 0.6
v -0.7 0.6 0.6
v -0.7 0.6 0.7
v -0.6 0.6 0.7
v -0.6 0.5 0.4
v -0.7 0.5 0.4
v -0.7 0.5 0.6
v -0.6 0.5 0.6
v -0.6 0.7 0.3
v -0.7 0.7 0.3
v -0.7 0.7 0.6
v -0.6 0.7 0.6
v 0.2 0.8 0.2
v 0.1 0.8 0.2
v 0.1 0.8 0.3
v 0.2 0.8 0.3
v 0.2 1 0.2
v 0.1 1 0.2
v 0.1 1 0.3
v 0.2 1 0.3
v 0.1 0.9 0.2
v -0.1 0.9 0.2
v -0.1 0.9 0.3
v 0.1 0.9 0.3
v -0.1 0.8 0.2
v -0.2 0.8 0.2
v -0.2 0.8 0.3
v -0.1 0.8 0.3
v -0.1 1 0.2
v -0.2 1 0.2
v -0.2 1 0.3
v -0.1 1 0.3
v -0.6 0.4 0.2
v -0.7 0.4 0.2
v -0.7 0.4 0.4
v -0.6 0.4 0.4
v -0.6 0.8 0.2
v -0.7 0.8 0.2
v -0.7 0.8 0.3
v -0.6 0.8 0.3
v -0.7 0.2 0.2
v -0.8 0.2 0.2
v -0.8 0.2 0.3
v -0.7 0.2 0.3
v 0.3 0.9 0.1
v 0.2 0.9 0.1
v 0.2 0.9 0.2
v 0.3 0.9 0.2
v -0.1 1.1 0.1
v -0.2 1.1 0.1
v -0.2 1.1 0.2
v -0.1 1.1 0.2
v -0.2 0.9 0.1
v -0.3 0.9 0.1
v -0.3 0.9 0.2
v -0.2 0.9 0.2
v -0.6 1 0.1
v -0.7 1 0.1
v -0.7 1 0.2
v -0.6 1 0.2
v -0.7 0.9 0.1
v -0.8 0.9 0.1
v -0.8 0.9 0.2
v -0.7 0.9 0.2
v -0.8 0.4 0.1
v -0.9 0.4 0.1
v -0.9 0.4 0.2
v -0.8 0.4 0.2
v 0.4 0.6 0
v 0.3 0.6 0
v 0.3 0.6 0.1
v 0.4 0.6 0.1
v 0.3 0.4 0
v 0.2 0.4 0
v 0.2 0.4 0.1
v 0.3 0.4 0.1
v 0.3 1 0
v 0.2 1 0
v 0.2 1 0.1
v 0.3 1 0.1
v 0.2 1.1 0
v -0.1 1.1 0
v 0.2 1.1 0.2
v -0.1 1.3 0
v -0.2 1.3 0
v -0.2 1.3 0.1
v -0.1 1.3 0.1
v -0.2 1 0
v -0.3 1 0
v -0.3 1 0.1
v -0.2 1 0.1
v -0.3 0.6 0
v -0.4 0.6 0
v -0.4 0.6 0.1
v -0.3 0.6 0.1
v -0.4 0.5 0
v -0.5 0.5 0
v -0.5 0.5 0.1
v -0.4 0.5 0.1
v -0.5 0.4 0
v -0.6 0.4 0
v -0.6 0.4 0.1
v -0.5 0.4 0.1
v -0.6 0.8 0
v -0.7 0.8 0
v -0.7 0.8 0.1
v -0.6 0.8 0.1
v -0.7 0.2 0
v -0.8 0.2 0
v -0.8 0.2 0.1
v -0.7 0.2 0.1
v 0.8 0.3 -0.1
v 0.6 0.3 -0.1
v 0.6 0.3 0
v 0.8 0.3 0
v 0.3 0.9 -0.1
v 0.2 0.9 -0.1
v 0.2 0.9 0
v 0.3 0.9 0
v 0.2 1 -0.1
v 0.1 1 -0.1
v 0.1 1 0
v 0.1 1.1 -0.1
v -0.1 1.1 -0.1
v 0.1 1.1 0
v -0.1 1 -0.1
v -0.2 1 -0.1
v -0.1 1 0
v -0.1 1.4 -0.1
v -0.2 1.4 -0.1
v -0.2 1.4 0
v -0.1 1.4 0
v -0.2 0.9 -0.1
v -0.3 0.9 -0.1
v -0.3 0.9 0
v -0.2 0.9 0
v -0.6 0.4 -0.1
v -0.7 0.4 -0.1
v -0.7 0.4 0.1
v 0.2 0.6 -0.2
v 0.1 0.6 -0.2
v 0.1 0.6 -0.1
v 0.2 0.6 -0.1
v 0.2 0.9 -0.2
v 0.1 0.9 -0.2
v 0.1 0.9 -0.1
v 0.1 0.5 -0.2
v -0.1 0.5 -0.2
v -0.1 0.5 -0.1
v 0.1 0.5 -0.1
v 0.1 1 -0.2
v -0.1 1 -0.2
v -0.1 0.6 -0.2
v -0.2 0.6 -0.2
v -0.2 0.6 -0.1
v -0.1 0.6 -0.1
v -0.1 0.9 -0.2
v -0.2 0.9 -0.2
v -0.1 0.9 -0.1
v 0.2 0.2 -0.3
v 0.1 0.2 -0.3
v 0.1 0.2 -0.2
v 0.2 0.2 -0.2
v -0.1 0.2 -0.3
v -0.1 0.2 -0.2
v -0.2 0.2 -0.3
v -0.2 0.2 -0.2
v -0.1 1.5 -0.3
v -0.2 1.5 -0.3
v -0.2 1.5 -0.1
v -0.1 1.5 -0.1
v -0.6 0.5 -0.3
v -0.7 0.5 -0.3
v -0.7 0.5 -0.1
v -0.6 0.5 -0.1
v -0.6 0.7 -0.3
v -0.7 0.7 -0.3
v -0.7 0.7 0
v -0.6 0.7 0
v 1 0.3 -0.4
v 0.9 0.3 -0.4
v 0.9 0.3 -0.3
v 1 0.3 -0.3
v 0.7 0.6 -0.4
v 0.6 0.6 -0.4
v 0.6 0.6 0
v 0.7 0.6 0
v 0.5 0.3 -0.4
v 0.4 0.3 -0.4
v 0.4 0.3 -0.3
v 0.5 0.3 -0.3
v -0.6 0.6 -0.4
v -0.7 0.6 -0.4
v -0.7 0.6 -0.3
v -0.6 0.6 -0.3
v 0.7 0.7 -0.5
v 0.6 0.7 -0.5
v 0.6 0.7 -0.4
v 0.7 0.7 -0.4
v 1 0.5 -0.6
v 0.9 0.5 -0.6
v 0.9 0.5 -0.4
v 1 0.5 -0.4
v 0.8 0.5 -0.6
v 0.8 0.5 0
v 0.9 0.5 0
v 0.8 0.6 -0.6
v 0.7 0.6 -0.6
v 0.8 0.6 0
v 0.6 0.6 -0.6
v 0.6 0.6 -0.5
v 0.7 0.6 -0.5
v 0.6 0.5 -0.6
v 0.5 0.5 -0.6
v 0.5 0.5 0
v 0.6 0.5 0
v 0.4 0.5 -0.6
v 0.4 0.5 -0.4
v 0.5 0.5 -0.4
v 0.4 0.9 -0.6
v 0.3 0.9 -0.6
v 0.3 0.9 -0.5
v 0.4 0.9 -0.5
v 1 0.3 -0.7
v 0.9 0.3 -0.7
v 0.9 0.3 -0.6
v 1 0.3 -0.6
v 0.8 0.1 -0.7
v 0.6 0.1 -0.7
v 0.6 0.1 -0.3
v 0.8 0.1 -0.3
v 0.8 0.5 -0.7
v 0.6 0.5 -0.7
v 0.5 0.3 -0.7
v 0.4 0.3 -0.7
v 0.4 0.3 -0.6
v 0.5 0.3 -0.6
v 0.9 0.1 -0.8
v 0.8 0.1 -0.8
v 0.8 0.1 -0.2
v 0.9 0.1 -0.2
v 0.6 0.1 -0.8
v 0.5 0.1 -0.8
v 0.5 0.1 -0.2
v 0.6 0.1 -0.2
v -0.6 0.5 0.7
v -0.7 0.5 0.7
v -0.6 0.4 0.6
v -0.7 0.4 0.6
v -0.6 0.6 0.3
v -0.7 0.6 0.3
v 0.2 0.7 0.2
v 0.2 0.7 0.3
v 0.1 0.7 0.3
v 0.1 0.7 0.2
v 0.2 0.9 0.3
v 0.1 0.6 0.2
v 0.1 0.6 0.3
v -0.1 0.6 0.3
v -0.1 0.6 0.2
v -0.1 0.7 0.2
v -0.1 0.7 0.3
v -0.2 0.7 0.3
v -0.2 0.7 0.2
v -0.2 0.9 0.3
v -0.6 0.3 0.2
v -0.6 0.3 0.4
v -0.7 0.3 0.4
v -0.7 0.3 0.2
v -0.6 0.7 0.2
v -0.7 0.7 0.2
v -0.7 0 0.2
v -0.7 0 0.3
v -0.8 0 0.3
v -0.8 0 0.2
v 0.3 0.7 0.1
v 0.3 0.7 0.2
v 0.2 0.7 0.1
v 0.2 0.3 0.1
v 0.2 0.3 0.2
v -0.2 0.3 0.2
v -0.2 0.3 0.1
v -0.2 0.7 0.1
v -0.3 0.7 0.2
v -0.3 0.7 0.1
v -0.6 0.2 0.1
v -0.6 0.2 0.2
v -0.8 0.3 0.1
v -0.8 0.3 0.2
v -0.9 0.3 0.2
v -0.9 0.3 0.1
v 0.4 0.4 0
v 0.4 0.4 0.1
v 0.3 0.3 0
v 0.3 0.3 0.1
v 0.2 0.3 0
v 0.2 0.6 0.1
v 0.2 0.6 0
v 0.2 0 0
v 0.2 0 0.1
v 0.1 0 0.1
v 0.1 0 0
v -0.1 0 0
v -0.1 0 0.1
v -0.2 0 0.1
v -0.2 0 0
v -0.2 0.6 0
v -0.2 0.6 0.1
v -0.3 0.5 0
v -0.3 0.5 0.1
v -0.4 0.4 0
v -0.4 0.4 0.1
v -0.5 0.3 0
v -0.5 0.3 0.1
v -0.6 0.3 0.1
v -0.6 0.3 0
v -0.6 0.7 0.1
v -0.7 0.7 0.1
v -0.7 0 0
v -0.7 0 0.1
v -0.8 0 0.1
v -0.8 0 0
v 0.8 0.5 -0.1
v 0.6 0.5 -0.1
v 0.3 0.6 -0.1
v 0.2 0.3 -0.1
v 0.1 0.3 0
v 0.1 0.3 -0.1
v 0.1 0.3 0.1
v -0.1 0.3 0.1
v -0.1 0.3 -0.1
v -0.1 0.3 0
v -0.2 0.3 0
v -0.2 0.3 -0.1
v -0.1 1.3 -0.1
v -0.2 1.3 -0.1
v -0.3 0.6 -0.1
v -0.6 0.3 -0.1
v -0.7 0.3 0.1
v -0.7 0.3 -0.1
v 0.2 0.2 -0.1
v 0.1 0.2 -0.1
v 0.2 0.7 -0.2
v 0.2 0.7 -0.1
v 0.1 0.7 -0.1
v 0.1 0.7 -0.2
v -0.1 0.2 -0.1
v -0.2 0.2 -0.1
v -0.1 0.7 -0.2
v -0.1 0.7 -0.1
v -0.2 0.7 -0.1
v -0.2 0.7 -0.2
v 0.2 0.1 -0.3
v 0.2 0.1 -0.2
v 0.1 0.1 -0.2
v 0.1 0.1 -0.3
v -0.1 0.1 -0.2
v -0.1 0.1 -0.3
v -0.2 0.1 -0.2
v -0.2 0.1 -0.3
v -0.1 1.4 -0.3
v -0.2 1.4 -0.3
v -0.6 0.4 -0.3
v -0.7 0.4 -0.3
v -0.6 0.6 0
v -0.7 0.6 0
v -0.6 0.5 -0.4
v -0.7 0.5 -0.4
v 0.9 0.3 0
v 0.8 0.3 -0.6
v 0.8 0.2 -0.6
v 0.8 0.2 0
v 0.6 0.2 0
v 0.6 0.2 -0.6
v 0.6 0.3 -0.6
v 0.5 0.3 0
v 0.4 0.1 -0.6
v 0.4 0.1 -0.5
v 0.3 0.1 -0.5
v 0.3 0.1 -0.6
v 1 0 -0.7
v 1 0 -0.3
v 0.9 0 -0.3
v 0.9 0 -0.7
v 0.8 0 -0.7
v 0.8 0 -0.3
v 0.6 0 -0.3
v 0.6 0 -0.7
v 0.8 0.3 -0.7
v 0.6 0.3 -0.7
v 0.5 0 -0.7
v 0.5 0 -0.3
v 0.4 0 -0.3
v 0.4 0 -0.7
v 0.9 0 -0.8
v 0.9 0 -0.2
v 0.8 0 -0.2
v 0.8 0 -0.8
v 0.6 0 -0.8
v 0.6 0 -0.2
v 0.5 0 -0.2
v 0.5 0 -0.8
v 0.1 0.1 0.1
v 0.1 0.1 0
v -0.2 0.1 0.1
v -0.2 0.1 0
v 0.5 0.1 -0.3
v 0.4 0.1 -0.7
v 0.4 0 -0.5
v 0.5 0.1 -0.7
v -0.2 0.3 -0.2
v 0.4 0.3 -0.5
v 0.9 0.1 -0.7
v 0.9 0.1 -0.3
v -0.2 0.4 0.2
v -0.2 0.4 -0.1
v -0.2 0.4 -0.2
v 0.4 0.5 -0.5
v -0.2 0.6 0.2
v -0.8 0.7 0.2
v -0.8 0.7 0.1
v -0.3 0.7 0
v -0.3 0.7 -0.1
v -0.8 0.8 0.2
v -0.8 0.8 0.1
v 0.3 0.8 -0.5
v 0.3 0.8 -0.6
v 0.2 0.1 0.1
v 0.2 0.1 0
v -0.1 0.1 0.1
v -0.1 0.1 0
v 0.2 0.3 -0.2
v 0.2 0.4 0.2
v 0.2 0.4 -0.1
v 0.2 0.4 -0.2
v 0.2 0.6 0.2
v 0.3 0.7 0
v 0.3 0.7 -0.1
v 0.4 0.8 -0.5
v 0.4 0.8 -0.6
v -0.6 0.9 0.2
v -0.6 0.9 0.1
v 0.1 0.3 -0.2
v 0.1 0.4 -0.2
v 0.2 0.5 -0.2
v -0.1 0.3 -0.2
v -0.1 0.4 -0.2
v -0.2 0.5 -0.2
v 0.1 0.5 0.2
v 0.2 0.5 0.2
v -0.1 0.5 0.2
v -0.2 0.5 0.2

vt 0.00195313 0.5
vt 0.00585938 0.5
vt 0.00976563 0.5
vt 0.0136719 0.5
vt 0.0292969 0.5
vt 0.0332031 0.5
vt 0.0683594 0.5
vt 0.0839844 0.5
vt 0.123047 0.5
vt 0.158203 0.5
vt 0.162109 0.5
vt 0.166016 0.5

vn 0 1 0
vn 0 -1 0
vn -1 0 0
vn 1 0 0
vn 0 0 -1
vn 0 0 1

usemtl palette
f 1/2/1 2/2/1 4/2/1
f 4/2/1 2/2/1 3/2/1
f 5/7/1 6/7/1 8/7/1
f 8/7/1 6/7/1 7/7/1
f 9/2/1 10/2/1 12/2/1
f 12/2/1 10/2/1 11/2/1
f 13/11/1 14/11/1 16/11/1
f 16/11/1 14/11/1 15/11/1
f 17/11/1 18/11/1 20/11/1
f 20/11/1 18/11/1 19/11/1
f 21/11/1 22/11/1 24/11/1
f 24/11/1 22/11/1 23/11/1
f 25/11/1 26/11/1 28/11/1
f 28/11/1 26/11/1 27/11/1
f 29/11/1 30/11/1 32/11/1
f 32/11/1 30/11/1 31/11/1
f 33/7/1 34/7/1 36/7/1
f 36/7/1 34/7/1 35/7/1
f 37/2/1 38/2/1 40/2/1
f 40/2/1 38/2/1 39/2/1
f 41/10/1 42/10/1 44/10/1
f 44/10/1 42/10/1 43/10/1
f 45/11/1 46/11/1 48/11/1
f 48/11/1 46/11/1 47/11/1
f 49/11/1 50/11/1 52/11/1
f 52/11/1 50/11/1 51/11/1
f 53/11/1 54/11/1 56/11/1
f 56/11/1 54/11/1 55/11/1
f 57/7/1 58/7/1 60/7/1
f 60/7/1 58/7/1 59/7/1
f 61/10/1 62/10/1 64/10/1
f 64/10/1 62/10/1 63/10/1
f 65/2/1 66/2/1 68/2/1
f 68/2/1 66/2/1 67/2/1
f 69/7/1 70/7/1 72/7/1
f 72/7/1 70/7/1 71/7/1
f 73/10/1 74/10/1 76/10/1
f 76/10/1 74/10/1 75/10/1
f 77/11/1 78/11/1 80/11/1
f 80/11/1 78/11/1 79/11/1
f 81/11/1 82/11/1 83/11/1
f 83/11/1 82/11/1 52/11/1
f 84/5/1 85/5/1 87/5/1
f 87/5/1 85/5/1 86/5/1
f 88/11/1 89/11/1 91/11/1
f 91/11/1 89/11/1 90/11/1
f 92/7/1 93/7/1 95/7/1
f 95/7/1 93/7/1 94/7/1
f 96/7/1 97/7/1 99/7/1
f 99/7/1 97/7/1 98/7/1
f 100/10/1 101/10/1 103/10/1
f 103/10/1 101/10/1 102/10/1
f 104/2/1 105/2/1 107/2/1
f 107/2/1 105/2/1 106/2/1
f 108/10/1 109/10/1 111/10/1
f 111/10/1 109/10/1 110/10/1
f 112/7/1 113/7/1 115/7/1
f 115/7/1 113/7/1 114/7/1
f 116/11/1 117/11/1 119/11/1
f 119/11/1 117/11/1 118/11/1
f 120/11/1 121/11/1 78/11/1
f 78/11/1 121/11/1 122/11/1
f 123/11/1 124/11/1 125/11/1
f 125/11/1 124/11/1 82/11/1
f 126/11/1 127/11/1 128/11/1
f 128/11/1 127/11/1 88/11/1
f 129/10/1 130/10/1 132/10/1
f 132/10/1 130/10/1 131/10/1
f 133/11/1 134/11/1 136/11/1
f 136/11/1 134/11/1 135/11/1
f 137/7/1 138/7/1 102/7/1
f 102/7/1 138/7/1 139/7/1
f 140/12/1 141/12/1 143/12/1
f 143/12/1 141/12/1 142/12/1
f 144/11/1 145/11/1 117/11/1
f 117/11/1 145/11/1 146/11/1
f 147/12/1 148/12/1 150/12/1
f 150/12/1 148/12/1 149/12/1
f 151/11/1 152/11/1 121/11/1
f 121/11/1 152/11/1 126/11/1
f 153/12/1 154/12/1 156/12/1
f 156/12/1 154/12/1 155/12/1
f 157/11/1 158/11/1 159/11/1
f 159/11/1 158/11/1 133/11/1
f 160/11/1 161/11/1 163/11/1
f 163/11/1 161/11/1 162/11/1
f 161/12/1 164/12/1 162/12/1
f 162/12/1 164/12/1 165/12/1
f 164/11/1 166/11/1 165/11/1
f 165/11/1 166/11/1 167/11/1
f 168/10/1 169/10/1 171/10/1
f 171/10/1 169/10/1 170/10/1
f 172/7/1 173/7/1 175/7/1
f 175/7/1 173/7/1 174/7/1
f 176/2/1 177/2/1 179/2/1
f 179/2/1 177/2/1 178/2/1
f 180/2/1 181/2/1 183/2/1
f 183/2/1 181/2/1 182/2/1
f 184/7/1 185/7/1 187/7/1
f 187/7/1 185/7/1 186/7/1
f 188/2/1 189/2/1 191/2/1
f 191/2/1 189/2/1 190/2/1
f 192/2/1 193/2/1 195/2/1
f 195/2/1 193/2/1 194/2/1
f 196/6/1 197/6/1 199/6/1
f 199/6/1 197/6/1 198/6/1
f 200/2/1 201/2/1 203/2/1
f 203/2/1 201/2/1 202/2/1
f 201/7/1 204/7/1 206/7/1
f 206/7/1 204/7/1 205/7/1
f 207/7/1 208/7/1 209/7/1
f 209/7/1 208/7/1 187/7/1
f 208/7/1 210/7/1 212/7/1
f 212/7/1 210/7/1 211/7/1
f 213/7/1 214/7/1 216/7/1
f 216/7/1 214/7/1 215/7/1
f 214/2/1 217/2/1 219/2/1
f 219/2/1 217/2/1 218/2/1
f 220/3/1 221/3/1 223/3/1
f 223/3/1 221/3/1 222/3/1
f 224/2/1 225/2/1 227/2/1
f 227/2/1 225/2/1 226/2/1
f 228/2/1 229/2/1 231/2/1
f 231/2/1 229/2/1 230/2/1
f 232/7/1 233/7/1 204/7/1
f 204/7/1 233/7/1 213/7/1
f 234/2/1 235/2/1 237/2/1
f 237/2/1 235/2/1 236/2/1
f 238/2/1 239/2/1 241/2/1
f 241/2/1 239/2/1 240/2/1
f 242/2/1 243/2/1 245/2/1
f 245/2/1 243/2/1 244/2/1
f 8/2/2 246/2/2 7/2/2
f 7/2/2 246/2/2 247/2/2
f 36/7/2 248/7/2 35/7/2
f 35/7/2 248/7/2 249/7/2
f 250/2/2 1/2/2 251/2/2
f 251/2/2 1/2/2 2/2/2
f 252/11/2 253/11/2 255/11/2
f 255/11/2 253/11/2 254/11/2
f 47/11/2 256/11/2 21/11/2
f 21/11/2 256/11/2 24/11/2
f 257/11/2 258/11/2 260/11/2
f 260/11/2 258/11/2 259/11/2
f 261/11/2 262/11/2 264/11/2
f 264/11/2 262/11/2 263/11/2
f 22/11/2 23/11/2 56/11/2
f 56/11/2 23/11/2 265/11/2
f 266/7/2 267/7/2 269/7/2
f 269/7/2 267/7/2 268/7/2
f 270/2/2 9/2/2 271/2/2
f 271/2/2 9/2/2 10/2/2
f 272/10/2 273/10/2 275/10/2
f 275/10/2 273/10/2 274/10/2
f 276/11/2 277/11/2 278/11/2
f 278/11/2 277/11/2 252/11/2
f 279/2/2 280/2/2 282/2/2
f 282/2/2 280/2/2 281/2/2
f 283/11/2 264/11/2 285/11/2
f 285/11/2 264/11/2 284/11/2
f 286/7/2 287/7/2 111/7/2
f 111/7/2 287/7/2 41/7/2
f 111/10/2 41/10/2 110/10/2
f 110/10/2 41/10/2 42/10/2
f 288/2/2 289/2/2 291/2/2
f 291/2/2 289/2/2 290/2/2
f 292/7/2 293/7/2 73/7/2
f 73/7/2 293/7/2 76/7/2
f 294/10/2 295/10/2 296/10/2
f 296/10/2 295/10/2 279/10/2
f 70/7/2 71/7/2 298/7/2
f 298/7/2 71/7/2 297/7/2
f 299/6/2 300/6/2 302/6/2
f 302/6/2 300/6/2 301/6/2
f 303/6/2 304/6/2 306/6/2
f 306/6/2 304/6/2 305/6/2
f 307/7/2 308/7/2 92/7/2
f 92/7/2 308/7/2 95/7/2
f 309/7/2 310/7/2 96/7/2
f 96/7/2 310/7/2 99/7/2
f 311/7/2 312/7/2 100/7/2
f 100/7/2 312/7/2 103/7/2
f 313/10/2 314/10/2 316/10/2
f 316/10/2 314/10/2 315/10/2
f 179/2/2 317/2/2 178/2/2
f 178/2/2 317/2/2 318/2/2
f 319/10/2 320/10/2 322/10/2
f 322/10/2 320/10/2 321/10/2
f 323/7/2 205/7/2 324/7/2
f 324/7/2 205/7/2 216/7/2
f 325/12/2 70/12/2 143/12/2
f 143/12/2 70/12/2 298/12/2
f 326/2/2 296/2/2 328/2/2
f 328/2/2 296/2/2 327/2/2
f 328/2/2 329/2/2 331/2/2
f 331/2/2 329/2/2 330/2/2
f 331/2/2 332/2/2 334/2/2
f 334/2/2 332/2/2 333/2/2
f 335/10/2 84/10/2 336/10/2
f 336/10/2 84/10/2 85/10/2
f 155/12/2 307/12/2 337/12/2
f 337/12/2 307/12/2 92/12/2
f 338/7/2 315/7/2 340/7/2
f 340/7/2 315/7/2 339/7/2
f 163/12/2 341/12/2 162/12/2
f 162/12/2 341/12/2 342/12/2
f 343/11/2 344/11/2 346/11/2
f 346/11/2 344/11/2 345/11/2
f 162/11/2 342/11/2 165/11/2
f 165/11/2 342/11/2 347/11/2
f 141/11/2 142/11/2 153/11/2
f 153/11/2 142/11/2 156/11/2
f 165/12/2 347/12/2 167/12/2
f 167/12/2 347/12/2 348/12/2
f 349/11/2 350/11/2 352/11/2
f 352/11/2 350/11/2 351/11/2
f 353/11/2 354/11/2 356/11/2
f 356/11/2 354/11/2 355/11/2
f 356/12/2 355/12/2 358/12/2
f 358/12/2 355/12/2 357/12/2
f 358/11/2 357/11/2 360/11/2
f 360/11/2 357/11/2 359/11/2
f 361/10/2 129/10/2 362/10/2
f 362/10/2 129/10/2 130/10/2
f 363/7/2 137/7/2 364/7/2
f 364/7/2 137/7/2 138/7/2
f 195/2/2 365/2/2 194/2/2
f 194/2/2 365/2/2 366/2/2
f 367/2/2 172/2/2 368/2/2
f 368/2/2 172/2/2 173/2/2
f 226/7/2 369/7/2 370/7/2
f 370/7/2 369/7/2 115/7/2
f 371/7/2 372/7/2 374/7/2
f 374/7/2 372/7/2 373/7/2
f 375/7/2 114/7/2 237/7/2
f 237/7/2 114/7/2 376/7/2
f 377/8/2 378/8/2 380/8/2
f 380/8/2 378/8/2 379/8/2
f 381/2/2 382/2/2 384/2/2
f 384/2/2 382/2/2 383/2/2
f 385/2/2 386/2/2 388/2/2
f 388/2/2 386/2/2 387/2/2
f 389/7/2 370/7/2 390/7/2
f 390/7/2 370/7/2 375/7/2
f 391/2/2 392/2/2 394/2/2
f 394/2/2 392/2/2 393/2/2
f 395/2/2 396/2/2 398/2/2
f 398/2/2 396/2/2 397/2/2
f 399/2/2 400/2/2 402/2/2
f 402/2/2 400/2/2 401/2/2
f 403/6/3 404/6/3 301/6/3
f 301/6/3 404/6/3 302/6/3
f 405/6/3 406/6/3 305/6/3
f 305/6/3 406/6/3 306/6/3
f 240/2/3 231/2/3 397/2/3
f 397/2/3 231/2/3 386/2/3
f 244/2/3 407/2/3 401/2/3
f 401/2/3 407/2/3 392/2/3
f 378/2/3 408/2/3 409/2/3
f 409/2/3 408/2/3 394/2/3
f 228/2/3 239/2/3 385/2/3
f 385/2/3 239/2/3 398/2/3
f 410/2/3 243/2/3 391/2/3
f 391/2/3 243/2/3 402/2/3
f 43/10/3 42/10/3 274/10/3
f 274/10/3 42/10/3 275/10/3
f 110/10/3 109/10/3 321/10/3
f 321/10/3 109/10/3 322/10/3
f 167/11/3 166/11/3 359/11/3
f 359/11/3 166/11/3 360/11/3
f 289/10/3 288/10/3 42/10/3
f 42/10/3 288/10/3 110/10/3
f 329/10/3 327/10/3 403/10/3
f 403/10/3 327/10/3 404/10/3
f 282/10/3 333/10/3 405/10/3
f 405/10/3 333/10/3 406/10/3
f 334/12/3 411/12/3 348/12/3
f 348/12/3 411/12/3 167/12/3
f 190/2/3 412/2/3 393/2/3
f 393/2/3 412/2/3 409/2/3
f 114/7/3 375/7/3 373/7/3
f 373/7/3 375/7/3 374/7/3
f 182/2/3 225/2/3 414/2/3
f 414/2/3 225/2/3 413/2/3
f 236/2/3 235/2/3 377/2/3
f 377/2/3 235/2/3 408/2/3
f 35/7/3 34/7/3 268/7/3
f 268/7/3 34/7/3 269/7/3
f 67/2/3 66/2/3 290/2/3
f 290/2/3 66/2/3 291/2/3
f 415/2/3 416/2/3 281/2/3
f 281/2/3 416/2/3 334/2/3
f 139/7/3 138/7/3 339/7/3
f 339/7/3 138/7/3 340/7/3
f 416/11/3 417/11/3 334/11/3
f 334/11/3 417/11/3 411/11/3
f 7/7/3 6/7/3 249/7/3
f 249/7/3 6/7/3 35/7/3
f 98/7/3 97/7/3 103/7/3
f 103/7/3 97/7/3 100/7/3
f 205/7/3 323/7/3 115/7/3
f 115/7/3 323/7/3 112/7/3
f 174/7/3 173/7/3 138/7/3
f 138/7/3 173/7/3 364/7/3
f 215/7/3 219/7/3 376/7/3
f 376/7/3 219/7/3 188/7/3
f 218/2/3 418/2/3 189/2/3
f 189/2/3 418/2/3 412/2/3
f 213/7/3 233/7/3 375/7/3
f 375/7/3 233/7/3 390/7/3
f 3/2/3 2/2/3 247/2/3
f 247/2/3 2/2/3 7/2/3
f 71/7/3 70/7/3 76/7/3
f 76/7/3 70/7/3 73/7/3
f 94/7/3 93/7/3 99/7/3
f 99/7/3 93/7/3 96/7/3
f 419/6/3 155/6/3 415/6/3
f 415/6/3 155/6/3 416/6/3
f 142/12/3 141/12/3 150/12/3
f 150/12/3 141/12/3 147/12/3
f 155/12/3 154/12/3 416/12/3
f 416/12/3 154/12/3 417/12/3
f 194/2/3 193/2/3 173/2/3
f 173/2/3 193/2/3 368/2/3
f 186/7/3 210/7/3 216/7/3
f 216/7/3 210/7/3 213/7/3
f 11/2/3 10/2/3 2/2/3
f 2/2/3 10/2/3 251/2/3
f 262/11/3 261/11/3 259/11/3
f 259/11/3 261/11/3 260/11/3
f 264/7/3 283/7/3 419/7/3
f 419/7/3 283/7/3 308/7/3
f 420/10/3 421/10/3 68/10/3
f 68/10/3 421/10/3 65/10/3
f 285/7/3 422/7/3 95/7/3
f 95/7/3 422/7/3 92/7/3
f 422/12/3 423/12/3 92/12/3
f 92/12/3 423/12/3 337/12/3
f 350/11/3 349/11/3 156/11/3
f 156/11/3 349/11/3 153/11/3
f 178/2/3 177/2/3 366/2/3
f 366/2/3 177/2/3 194/2/3
f 198/6/3 197/6/3 185/6/3
f 185/6/3 197/6/3 211/6/3
f 27/11/3 26/11/3 263/11/3
f 263/11/3 26/11/3 264/11/3
f 39/2/3 38/2/3 10/2/3
f 10/2/3 38/2/3 271/2/3
f 424/2/3 425/2/3 420/2/3
f 420/2/3 425/2/3 421/2/3
f 106/2/3 105/2/3 318/2/3
f 318/2/3 105/2/3 178/2/3
f 426/8/3 427/8/3 379/8/3
f 379/8/3 427/8/3 380/8/3
f 23/11/3 22/11/3 28/11/3
f 28/11/3 22/11/3 25/11/3
f 63/10/3 62/10/3 424/10/3
f 424/10/3 62/10/3 425/10/3
f 55/11/3 134/11/3 284/11/3
f 284/11/3 134/11/3 423/11/3
f 133/11/3 158/11/3 351/11/3
f 351/11/3 158/11/3 352/11/3
f 222/3/3 221/3/3 426/3/3
f 426/3/3 221/3/3 427/3/3
f 19/11/3 18/11/3 24/11/3
f 24/11/3 18/11/3 21/11/3
f 31/11/3 91/11/3 265/11/3
f 265/11/3 91/11/3 53/11/3
f 59/7/3 58/7/3 64/7/3
f 64/7/3 58/7/3 61/7/3
f 90/11/3 89/11/3 54/11/3
f 54/11/3 89/11/3 135/11/3
f 88/11/3 127/11/3 136/11/3
f 136/11/3 127/11/3 133/11/3
f 126/11/3 152/11/3 159/11/3
f 159/11/3 152/11/3 157/11/3
f 51/11/3 50/11/3 30/11/3
f 30/11/3 50/11/3 91/11/3
f 82/11/3 124/11/3 128/11/3
f 128/11/3 124/11/3 126/11/3
f 86/5/3 85/5/3 91/5/3
f 91/5/3 85/5/3 88/5/3
f 131/10/3 130/10/3 85/10/3
f 85/10/3 130/10/3 336/10/3
f 170/10/3 169/10/3 130/10/3
f 130/10/3 169/10/3 362/10/3
f 428/6/4 300/6/4 429/6/4
f 429/6/4 300/6/4 299/6/4
f 430/6/4 304/6/4 431/6/4
f 431/6/4 304/6/4 303/6/4
f 241/2/4 396/2/4 414/2/4
f 414/2/4 396/2/4 383/2/4
f 245/2/4 400/2/4 230/2/4
f 230/2/4 400/2/4 387/2/4
f 413/2/4 384/2/4 238/2/4
f 238/2/4 384/2/4 395/2/4
f 229/2/4 388/2/4 242/2/4
f 242/2/4 388/2/4 399/2/4
f 44/10/4 273/10/4 41/10/4
f 41/10/4 273/10/4 272/10/4
f 111/10/4 320/10/4 108/10/4
f 108/10/4 320/10/4 319/10/4
f 163/11/4 354/11/4 160/11/4
f 160/11/4 354/11/4 353/11/4
f 266/7/4 287/7/4 315/7/4
f 315/7/4 287/7/4 286/7/4
f 279/10/4 428/10/4 296/10/4
f 296/10/4 428/10/4 429/10/4
f 330/10/4 430/10/4 332/10/4
f 332/10/4 430/10/4 431/10/4
f 326/12/4 341/12/4 432/12/4
f 432/12/4 341/12/4 163/12/4
f 115/7/4 372/7/4 370/7/4
f 370/7/4 372/7/4 371/7/4
f 183/2/4 382/2/4 224/2/4
f 224/2/4 382/2/4 381/2/4
f 191/2/4 407/2/4 234/2/4
f 234/2/4 407/2/4 410/2/4
f 36/7/4 267/7/4 33/7/4
f 33/7/4 267/7/4 266/7/4
f 433/2/4 280/2/4 75/2/4
f 75/2/4 280/2/4 279/2/4
f 33/5/4 266/5/4 102/5/4
f 102/5/4 266/5/4 315/5/4
f 76/10/4 295/10/4 73/10/4
f 73/10/4 295/10/4 294/10/4
f 103/10/4 314/10/4 100/10/4
f 100/10/4 314/10/4 313/10/4
f 74/2/4 296/2/4 434/2/4
f 434/2/4 296/2/4 326/2/4
f 101/7/4 316/7/4 137/7/4
f 137/7/4 316/7/4 338/7/4
f 434/11/4 326/11/4 435/11/4
f 435/11/4 326/11/4 432/11/4
f 8/7/4 248/7/4 5/7/4
f 5/7/4 248/7/4 36/7/4
f 99/7/4 312/7/4 96/7/4
f 96/7/4 312/7/4 311/7/4
f 216/7/4 114/7/4 324/7/4
f 324/7/4 114/7/4 113/7/4
f 175/7/4 137/7/4 172/7/4
f 172/7/4 137/7/4 363/7/4
f 206/7/4 369/7/4 202/7/4
f 202/7/4 369/7/4 181/7/4
f 203/2/4 180/2/4 200/2/4
f 200/2/4 180/2/4 227/2/4
f 204/7/4 370/7/4 232/7/4
f 232/7/4 370/7/4 389/7/4
f 4/2/4 246/2/4 1/2/4
f 1/2/4 246/2/4 8/2/4
f 72/7/4 293/7/4 69/7/4
f 69/7/4 293/7/4 292/7/4
f 95/7/4 310/7/4 92/7/4
f 92/7/4 310/7/4 309/7/4
f 436/6/4 433/6/4 143/6/4
f 143/6/4 433/6/4 434/6/4
f 143/12/4 434/12/4 140/12/4
f 140/12/4 434/12/4 435/12/4
f 156/12/4 149/12/4 153/12/4
f 153/12/4 149/12/4 148/12/4
f 195/2/4 172/2/4 192/2/4
f 192/2/4 172/2/4 367/2/4
f 209/7/4 205/7/4 207/7/4
f 207/7/4 205/7/4 204/7/4
f 12/2/4 1/2/4 9/2/4
f 9/2/4 1/2/4 250/2/4
f 254/11/4 258/11/4 255/11/4
f 255/11/4 258/11/4 257/11/4
f 252/7/4 436/7/4 278/7/4
f 278/7/4 436/7/4 297/7/4
f 276/7/4 71/7/4 437/7/4
f 437/7/4 71/7/4 70/7/4
f 437/12/4 70/12/4 438/12/4
f 438/12/4 70/12/4 325/12/4
f 345/11/4 142/11/4 346/11/4
f 346/11/4 142/11/4 141/11/4
f 179/2/4 365/2/4 176/2/4
f 176/2/4 365/2/4 195/2/4
f 199/6/4 184/6/4 196/6/4
f 196/6/4 184/6/4 212/6/4
f 16/11/4 253/11/4 13/11/4
f 13/11/4 253/11/4 252/11/4
f 40/2/4 9/2/4 37/2/4
f 37/2/4 9/2/4 270/2/4
f 107/2/4 317/2/4 104/2/4
f 104/2/4 317/2/4 179/2/4
f 439/8/4 418/8/4 440/8/4
f 440/8/4 418/8/4 217/8/4
f 24/11/4 15/11/4 21/11/4
f 21/11/4 15/11/4 14/11/4
f 441/8/4 33/8/4 442/8/4
f 442/8/4 33/8/4 102/8/4
f 48/11/4 277/11/4 116/11/4
f 116/11/4 277/11/4 438/11/4
f 117/11/4 344/11/4 144/11/4
f 144/11/4 344/11/4 343/11/4
f 223/3/4 439/3/4 220/3/4
f 220/3/4 439/3/4 440/3/4
f 32/11/4 23/11/4 29/11/4
f 29/11/4 23/11/4 22/11/4
f 20/11/4 256/11/4 79/11/4
f 79/11/4 256/11/4 46/11/4
f 60/7/4 441/7/4 57/7/4
f 57/7/4 441/7/4 442/7/4
f 80/11/4 45/11/4 77/11/4
f 77/11/4 45/11/4 119/11/4
f 78/11/4 118/11/4 120/11/4
f 120/11/4 118/11/4 117/11/4
f 121/11/4 146/11/4 151/11/4
f 151/11/4 146/11/4 145/11/4
f 83/11/4 17/11/4 81/11/4
f 81/11/4 17/11/4 78/11/4
f 125/11/4 122/11/4 123/11/4
f 123/11/4 122/11/4 121/11/4
f 87/5/4 49/5/4 84/5/4
f 84/5/4 49/5/4 82/5/4
f 132/10/4 84/10/4 129/10/4
f 129/10/4 84/10/4 335/10/4
f 171/10/4 129/10/4 168/10/4
f 168/10/4 129/10/4 361/10/4
f 384/2/5 225/2/5 381/2/5
f 381/2/5 225/2/5 224/2/5
f 226/2/5 201/2/5 227/2/5
f 227/2/5 201/2/5 200/2/5
f 398/2/5 239/2/5 395/2/5
f 395/2/5 239/2/5 238/2/5
f 370/7/5 204/7/5 226/7/5
f 226/7/5 204/7/5 201/7/5
f 388/2/5 229/2/5 385/2/5
f 385/2/5 229/2/5 228/2/5
f 374/7/5 375/7/5 371/7/5
f 371/7/5 375/7/5 370/7/5
f 390/7/5 233/7/5 389/7/5
f 389/7/5 233/7/5 232/7/5
f 213/7/5 210/7/5 204/7/5
f 204/7/5 210/7/5 207/7/5
f 211/6/5 197/6/5 212/6/5
f 212/6/5 197/6/5 196/6/5
f 402/2/5 243/2/5 399/2/5
f 399/2/5 243/2/5 242/2/5
f 237/7/5 214/7/5 375/7/5
f 375/7/5 214/7/5 213/7/5
f 394/2/5 235/2/5 391/2/5
f 391/2/5 235/2/5 234/2/5
f 236/2/5 217/2/5 237/2/5
f 237/2/5 217/2/5 214/2/5
f 73/7/5 70/7/5 292/7/5
f 292/7/5 70/7/5 69/7/5
f 380/8/5 427/8/5 377/8/5
f 377/8/5 427/8/5 440/8/5
f 427/3/5 221/3/5 440/3/5
f 440/3/5 221/3/5 220/3/5
f 296/10/5 74/10/5 294/10/5
f 294/10/5 74/10/5 73/10/5
f 143/12/5 344/12/5 325/12/5
f 325/12/5 344/12/5 438/12/5
f 344/11/5 117/11/5 438/11/5
f 438/11/5 117/11/5 116/11/5
f 118/11/5 78/11/5 119/11/5
f 119/11/5 78/11/5 77/11/5
f 302/6/5 404/6/5 299/6/5
f 299/6/5 404/6/5 429/6/5
f 356/11/5 161/11/5 353/11/5
f 353/11/5 161/11/5 160/11/5
f 404/10/5 327/10/5 429/10/5
f 429/10/5 327/10/5 296/10/5
f 162/12/5 443/12/5 163/12/5
f 163/12/5 443/12/5 432/12/5
f 443/11/5 444/11/5 432/11/5
f 432/11/5 444/11/5 435/11/5
f 147/12/5 141/12/5 445/12/5
f 445/12/5 141/12/5 140/12/5
f 142/7/5 345/7/5 143/7/5
f 143/7/5 345/7/5 344/7/5
f 146/11/5 121/11/5 117/11/5
f 117/11/5 121/11/5 120/11/5
f 122/11/5 125/11/5 78/11/5
f 78/11/5 125/11/5 81/11/5
f 358/12/5 164/12/5 356/12/5
f 356/12/5 164/12/5 161/12/5
f 165/11/5 446/11/5 162/11/5
f 162/11/5 446/11/5 443/11/5
f 446/12/5 447/12/5 443/12/5
f 443/12/5 447/12/5 444/12/5
f 149/7/5 156/7/5 150/7/5
f 150/7/5 156/7/5 142/7/5
f 153/11/5 349/11/5 141/11/5
f 141/11/5 349/11/5 346/11/5
f 157/11/5 152/11/5 145/11/5
f 145/11/5 152/11/5 151/11/5
f 126/11/5 124/11/5 121/11/5
f 121/11/5 124/11/5 123/11/5
f 306/6/5 406/6/5 303/6/5
f 303/6/5 406/6/5 431/6/5
f 360/11/5 166/11/5 358/11/5
f 358/11/5 166/11/5 164/11/5
f 406/10/5 333/10/5 431/10/5
f 431/10/5 333/10/5 332/10/5
f 167/12/5 411/12/5 165/12/5
f 165/12/5 411/12/5 446/12/5
f 411/11/5 417/11/5 446/11/5
f 446/11/5 417/11/5 447/11/5
f 417/12/5 448/12/5 435/12/5
f 435/12/5 448/12/5 445/12/5
f 448/12/5 154/12/5 148/12/5
f 148/12/5 154/12/5 153/12/5
f 155/7/5 351/7/5 156/7/5
f 156/7/5 351/7/5 350/7/5
f 352/11/5 158/11/5 343/11/5
f 343/11/5 158/11/5 144/11/5
f 133/11/5 127/11/5 159/11/5
f 159/11/5 127/11/5 126/11/5
f 88/5/5 85/5/5 128/5/5
f 128/5/5 85/5/5 84/5/5
f 336/10/5 130/10/5 335/10/5
f 335/10/5 130/10/5 129/10/5
f 362/10/5 169/10/5 361/10/5
f 361/10/5 169/10/5 168/10/5
f 337/12/5 423/12/5 155/12/5
f 155/12/5 423/12/5 351/12/5
f 423/11/5 134/11/5 351/11/5
f 351/11/5 134/11/5 133/11/5
f 135/11/5 89/11/5 136/11/5
f 136/11/5 89/11/5 88/11/5
f 96/7/5 93/7/5 309/7/5
f 309/7/5 93/7/5 92/7/5
f 100/7/5 97/7/5 311/7/5
f 311/7/5 97/7/5 96/7/5
f 316/10/5 101/10/5 313/10/5
f 313/10/5 101/10/5 100/10/5
f 111/7/5 339/7/5 286/7/5
f 286/7/5 339/7/5 315/7/5
f 340/7/5 138/7/5 338/7/5
f 338/7/5 138/7/5 137/7/5
f 35/7/5 6/7/5 36/7/5
f 36/7/5 6/7/5 5/7/5
f 364/7/5 173/7/5 363/7/5
f 363/7/5 173/7/5 172/7/5
f 7/2/5 2/2/5 8/2/5
f 8/2/5 2/2/5 1/2/5
f 368/2/5 193/2/5 367/2/5
f 367/2/5 193/2/5 192/2/5
f 251/2/5 10/2/5 250/2/5
f 250/2/5 10/2/5 9/2/5
f 139/8/5 318/8/5 102/8/5
f 102/8/5 318/8/5 317/8/5
f 194/2/5 177/2/5 195/2/5
f 195/2/5 177/2/5 176/2/5
f 178/2/5 105/2/5 179/2/5
f 179/2/5 105/2/5 104/2/5
f 106/8/5 61/8/5 107/8/5
f 107/8/5 61/8/5 442/8/5
f 61/7/5 58/7/5 442/7/5
f 442/7/5 58/7/5 57/7/5
f 275/10/5 42/10/5 272/10/5
f 272/10/5 42/10/5 41/10/5
f 322/10/5 109/10/5 319/10/5
f 319/10/5 109/10/5 108/10/5
f 110/10/5 421/10/5 111/10/5
f 111/10/5 421/10/5 318/10/5
f 421/2/5 425/2/5 318/2/5
f 318/2/5 425/2/5 106/2/5
f 425/10/5 62/10/5 106/10/5
f 106/10/5 62/10/5 61/10/5
f 291/2/5 66/2/5 288/2/5
f 288/2/5 66/2/5 65/2/5
f 383/2/6 382/2/6 182/2/6
f 182/2/6 382/2/6 183/2/6
f 181/2/6 180/2/6 202/2/6
f 202/2/6 180/2/6 203/2/6
f 397/2/6 396/2/6 240/2/6
f 240/2/6 396/2/6 241/2/6
f 115/7/6 369/7/6 205/7/6
f 205/7/6 369/7/6 206/7/6
f 387/2/6 386/2/6 230/2/6
f 230/2/6 386/2/6 231/2/6
f 373/7/6 372/7/6 114/7/6
f 114/7/6 372/7/6 115/7/6
f 113/1/6 112/1/6 324/1/6
f 324/1/6 112/1/6 323/1/6
f 216/7/6 205/7/6 186/7/6
f 186/7/6 205/7/6 209/7/6
f 185/6/6 184/6/6 198/6/6
f 198/6/6 184/6/6 199/6/6
f 401/2/6 400/2/6 244/2/6
f 244/2/6 400/2/6 245/2/6
f 376/7/6 114/7/6 215/7/6
f 215/7/6 114/7/6 216/7/6
f 393/2/6 392/2/6 190/2/6
f 190/2/6 392/2/6 191/2/6
f 189/2/6 188/2/6 218/2/6
f 218/2/6 188/2/6 219/2/6
f 76/7/6 293/7/6 71/7/6
f 71/7/6 293/7/6 72/7/6
f 379/8/6 378/8/6 426/8/6
f 426/8/6 378/8/6 439/8/6
f 426/3/6 439/3/6 222/3/6
f 222/3/6 439/3/6 223/3/6
f 279/10/6 295/10/6 75/10/6
f 75/10/6 295/10/6 76/10/6
f 297/7/6 71/7/6 278/7/6
f 278/7/6 71/7/6 276/7/6
f 252/11/6 277/11/6 47/11/6
f 47/11/6 277/11/6 48/11/6
f 46/11/6 45/11/6 79/11/6
f 79/11/6 45/11/6 80/11/6
f 301/6/6 300/6/6 403/6/6
f 403/6/6 300/6/6 428/6/6
f 355/11/6 354/11/6 162/11/6
f 162/11/6 354/11/6 163/11/6
f 403/10/6 428/10/6 329/10/6
f 329/10/6 428/10/6 279/10/6
f 342/12/6 341/12/6 328/12/6
f 328/12/6 341/12/6 326/12/6
f 449/6/6 450/6/6 257/6/6
f 257/6/6 450/6/6 436/6/6
f 257/7/6 436/7/6 255/7/6
f 255/7/6 436/7/6 252/7/6
f 14/1/6 13/1/6 21/1/6
f 21/1/6 13/1/6 47/1/6
f 24/11/6 256/11/6 19/11/6
f 19/11/6 256/11/6 20/11/6
f 357/12/6 355/12/6 165/12/6
f 165/12/6 355/12/6 162/12/6
f 347/11/6 342/11/6 331/11/6
f 331/11/6 342/11/6 328/11/6
f 451/7/6 449/7/6 260/7/6
f 260/7/6 449/7/6 257/7/6
f 259/11/6 258/11/6 262/11/6
f 262/11/6 258/11/6 254/11/6
f 28/11/6 15/11/6 23/11/6
f 23/11/6 15/11/6 24/11/6
f 22/11/6 21/11/6 29/11/6
f 29/11/6 21/11/6 18/11/6
f 305/6/6 304/6/6 405/6/6
f 405/6/6 304/6/6 430/6/6
f 359/11/6 357/11/6 167/11/6
f 167/11/6 357/11/6 165/11/6
f 405/10/6 430/10/6 282/10/6
f 282/10/6 430/10/6 330/10/6
f 348/12/6 347/12/6 334/12/6
f 334/12/6 347/12/6 331/12/6
f 281/2/6 280/2/6 415/2/6
f 415/2/6 280/2/6 433/2/6
f 415/6/6 433/6/6 452/6/6
f 452/6/6 433/6/6 450/6/6
f 452/6/6 451/6/6 419/6/6
f 419/6/6 451/6/6 260/6/6
f 419/7/6 260/7/6 264/7/6
f 264/7/6 260/7/6 261/7/6
f 263/11/6 253/11/6 27/11/6
f 27/11/6 253/11/6 16/11/6
f 26/1/6 25/1/6 56/1/6
f 56/1/6 25/1/6 22/1/6
f 265/11/6 23/11/6 31/11/6
f 31/11/6 23/11/6 32/11/6
f 30/11/6 17/11/6 51/11/6
f 51/11/6 17/11/6 83/11/6
f 50/5/6 49/5/6 86/5/6
f 86/5/6 49/5/6 87/5/6
f 85/10/6 84/10/6 131/10/6
f 131/10/6 84/10/6 132/10/6
f 130/10/6 129/10/6 170/10/6
f 170/10/6 129/10/6 171/10/6
f 95/7/6 308/7/6 285/7/6
f 285/7/6 308/7/6 283/7/6
f 284/11/6 264/11/6 55/11/6
f 55/11/6 264/11/6 56/11/6
f 54/11/6 53/11/6 90/11/6
f 90/11/6 53/11/6 91/11/6
f 99/7/6 310/7/6 94/7/6
f 94/7/6 310/7/6 95/7/6
f 103/7/6 312/7/6 98/7/6
f 98/7/6 312/7/6 99/7/6
f 315/10/6 314/10/6 102/10/6
f 102/10/6 314/10/6 103/10/6
f 41/7/6 287/7/6 269/7/6
f 269/7/6 287/7/6 266/7/6
f 268/7/6 267/7/6 35/7/6
f 35/7/6 267/7/6 36/7/6
f 249/7/6 248/7/6 7/7/6
f 7/7/6 248/7/6 8/7/6
f 138/7/6 137/7/6 174/7/6
f 174/7/6 137/7/6 175/7/6
f 247/2/6 246/2/6 3/2/6
f 3/2/6 246/2/6 4/2/6
f 173/2/6 172/2/6 194/2/6
f 194/2/6 172/2/6 195/2/6
f 2/2/6 1/2/6 11/2/6
f 11/2/6 1/2/6 12/2/6
f 34/8/6 33/8/6 271/8/6
f 271/8/6 33/8/6 270/8/6
f 366/2/6 365/2/6 178/2/6
f 178/2/6 365/2/6 179/2/6
f 10/2/6 9/2/6 39/2/6
f 39/2/6 9/2/6 40/2/6
f 38/8/6 37/8/6 64/8/6
f 64/8/6 37/8/6 441/8/6
f 64/7/6 441/7/6 59/7/6
f 59/7/6 441/7/6 60/7/6
f 274/10/6 273/10/6 43/10/6
f 43/10/6 273/10/6 44/10/6
f 321/10/6 320/10/6 110/10/6
f 110/10/6 320/10/6 111/10/6
f 42/10/6 41/10/6 420/10/6
f 420/10/6 41/10/6 271/10/6
f 420/2/6 271/2/6 424/2/6
f 424/2/6 271/2/6 38/2/6
f 424/10/6 38/10/6 63/10/6
f 63/10/6 38/10/6 64/10/6
f 290/2/6 289/2/6 67/2/6
f 67/2/6 289/2/6 68/2/6
