# Vengi binary mesh normalized for Tanks of Freedom II

mtllib ../../materials/vox_grass.mtl
o beach_2_overtile

v 0.6 0.1 3.6
v 0 0.1 3.6
v 0 0.1 3.7
v 0.6 0.1 3.7
v 3.3 0.1 3.5
v 2.9 0.1 3.5
v 2.9 0.1 3.6
v 3.3 0.1 3.6
v 0.7 0.1 3.5
v 0.6 0.1 3.5
v 0.7 0.1 3.7
v 0.1 0.1 3.5
v -0.6 0.1 3.5
v -0.6 0.1 3.6
v 0.1 0.1 3.6
v -1.6 0.1 3.5
v -2.1 0.1 3.5
v -2.1 0.1 3.6
v -1.6 0.1 3.6
v -2.2 0.1 3.5
v -2.2 0.1 3.7
v -2.1 0.1 3.7
v 3.4 0.1 3.4
v 3.3 0.1 3.4
v 3.4 0.1 3.5
v 3 0.1 3.4
v 2.5 0.1 3.4
v 2.5 0.1 3.5
v 3 0.1 3.5
v 0.8 0.1 3.4
v 0.7 0.1 3.4
v 0.7 0.1 3.6
v 0.8 0.1 3.6
v -0.5 0.1 3.4
v -1 0.1 3.4
v -1 0.1 3.5
v -0.5 0.1 3.5
v -1.3 0.1 3.4
v -1.5 0.1 3.4
v -1.5 0.1 3.5
v -1.3 0.1 3.5
v -1.6 0.1 3.4
v -1.5 0.1 3.6
v 3.6 0.1 3.3
v 3.5 0.1 3.3
v 3.5 0.1 3.4
v 3.6 0.1 3.4
v 3.4 0.1 3.3
v 3.5 0.1 3.5
v 2.6 0.1 3.3
v 2.1 0.1 3.3
v 2.1 0.1 3.4
v 2.6 0.1 3.4
v 0.9 0.1 3.3
v 0.8 0.1 3.3
v 0.8 0.1 3.5
v 0.9 0.1 3.5
v -0.9 0.1 3.3
v -1.2 0.1 3.3
v -1.2 0.1 3.4
v -0.9 0.1 3.4
v -1.3 0.1 3.3
v -1.2 0.1 3.5
v 3.7 0.1 3.2
v 3.6 0.1 3.2
v 3.7 0.1 3.4
v 2.2 0.1 3.2
v 1.7 0.1 3.2
v 1.7 0.1 3.3
v 2.2 0.1 3.3
v 1.1 0.1 3.2
v 1 0.1 3.2
v 1 0.1 3.3
v 1.1 0.1 3.3
v 0.9 0.1 3.2
v 0.9 0.1 3.4
v 1 0.1 3.4
v 3.8 0.1 3.1
v 3.7 0.1 3.1
v 3.7 0.1 3.3
v 3.8 0.1 3.3
v 1.8 0.1 3.1
v 1.2 0.1 3.1
v 1.2 0.1 3.2
v 1.8 0.1 3.2
v 1.1 0.1 3.1
v 1.2 0.1 3.3
v 4 0.1 2.7
v 3.9 0.1 2.7
v 3.9 0.1 3
v 4 0.1 3
v 3.9 0.1 2.4
v 3.8 0.1 2.4
v 3.8 0.1 3.2
v 3.9 0.1 3.2
v 3.8 0.1 2.2
v 3.7 0.1 2.2
v 3.7 0.1 2.5
v 3.8 0.1 2.5
v 3.7 0.1 2
v 3.6 0.1 2
v 3.6 0.1 2.3
v 3.7 0.1 2.3
v 3.6 0.1 1.9
v 3.5 0.1 1.9
v 3.5 0.1 2.1
v 3.6 0.1 2.1
v 3.5 0.1 1.7
v 3.4 0.1 1.7
v 3.4 0.1 2
v 3.5 0.1 2
v 3.4 0.1 1.5
v 3.3 0.1 1.5
v 3.3 0.1 1.8
v 3.4 0.1 1.8
v 3.3 0.1 1.4
v 3.2 0.1 1.4
v 3.2 0.1 1.6
v 3.3 0.1 1.6
v 3.2 0.1 0.7
v 3.1 0.1 0.7
v 3.1 0.1 1.5
v 3.2 0.1 1.5
v 3.3 0.1 0.4
v 3.2 0.1 0.4
v 3.2 0.1 0.8
v 3.3 0.1 0.8
v 3.4 0.1 0.2
v 3.3 0.1 0.2
v 3.3 0.1 0.5
v 3.4 0.1 0.5
v 3.5 0.1 -0.2
v 3.4 0.1 -0.2
v 3.4 0.1 0.3
v 3.5 0.1 0.3
v 3.6 0.1 -0.6
v 3.5 0.1 -0.6
v 3.5 0.1 -0.1
v 3.6 0.1 -0.1
v 3.7 0.1 -1.5
v 3.6 0.1 -1.5
v 3.6 0.1 -0.5
v 3.7 0.1 -0.5
v 3.6 0.1 -1.6
v 3.5 0.1 -1.6
v 3.5 0.1 -1.4
v 3.6 0.1 -1.4
v 3.5 0.1 -1.8
v 3.4 0.1 -1.8
v 3.4 0.1 -1.5
v 3.5 0.1 -1.5
v 3.4 0.1 -1.9
v 3.3 0.1 -1.9
v 3.3 0.1 -1.7
v 3.4 0.1 -1.7
v 3.3 0.1 -2.1
v 3.2 0.1 -2.1
v 3.2 0.1 -1.8
v 3.3 0.1 -1.8
v 3.2 0.1 -2.2
v 3.1 0.1 -2.2
v 3.1 0.1 -2
v 3.2 0.1 -2
v 0.6 0 3.6
v 0.6 0 3.7
v 0 0 3.7
v 0 0 3.6
v 3.3 0 3.5
v 3.3 0 3.6
v 2.9 0 3.6
v 2.9 0 3.5
v 0.7 0 3.5
v 0.7 0 3.7
v 0.6 0 3.5
v 0.1 0 3.5
v 0.1 0 3.6
v -0.6 0 3.6
v -0.6 0 3.5
v -1.6 0 3.5
v -1.6 0 3.6
v -2.1 0 3.6
v -2.1 0 3.5
v -2.1 0 3.7
v -2.2 0 3.7
v -2.2 0 3.5
v 3.4 0 3.4
v 3.4 0 3.5
v 3.3 0 3.4
v 3 0 3.4
v 3 0 3.5
v 2.5 0 3.5
v 2.5 0 3.4
v 0.8 0 3.4
v 0.8 0 3.6
v 0.7 0 3.6
v 0.7 0 3.4
v -0.5 0 3.4
v -0.5 0 3.5
v -1 0 3.5
v -1 0 3.4
v -1.3 0 3.4
v -1.3 0 3.5
v -1.5 0 3.5
v -1.5 0 3.4
v -1.5 0 3.6
v -1.6 0 3.4
v 3.6 0 3.3
v 3.6 0 3.4
v 3.5 0 3.4
v 3.5 0 3.3
v 3.5 0 3.5
v 3.4 0 3.3
v 2.6 0 3.3
v 2.6 0 3.4
v 2.1 0 3.4
v 2.1 0 3.3
v 0.9 0 3.3
v 0.9 0 3.5
v 0.8 0 3.5
v 0.8 0 3.3
v -0.9 0 3.3
v -0.9 0 3.4
v -1.2 0 3.4
v -1.2 0 3.3
v -1.2 0 3.5
v -1.3 0 3.3
v 3.7 0 3.2
v 3.7 0 3.4
v 3.6 0 3.2
v 2.2 0 3.2
v 2.2 0 3.3
v 1.7 0 3.3
v 1.7 0 3.2
v 1.1 0 3.2
v 1.1 0 3.3
v 1 0 3.3
v 1 0 3.2
v 1 0 3.4
v 0.9 0 3.4
v 0.9 0 3.2
v 3.8 0 3.1
v 3.8 0 3.3
v 3.7 0 3.3
v 3.7 0 3.1
v 1.8 0 3.1
v 1.8 0 3.2
v 1.2 0 3.2
v 1.2 0 3.1
v 1.2 0 3.3
v 1.1 0 3.1
v 4 0 2.7
v 4 0 3
v 3.9 0 3
v 3.9 0 2.7
v 3.9 0 2.4
v 3.9 0 3.2
v 3.8 0 3.2
v 3.8 0 2.4
v 3.8 0 2.2
v 3.8 0 2.5
v 3.7 0 2.5
v 3.7 0 2.2
v 3.7 0 2
v 3.7 0 2.3
v 3.6 0 2.3
v 3.6 0 2
v 3.6 0 1.9
v 3.6 0 2.1
v 3.5 0 2.1
v 3.5 0 1.9
v 3.5 0 1.7
v 3.5 0 2
v 3.4 0 2
v 3.4 0 1.7
v 3.4 0 1.5
v 3.4 0 1.8
v 3.3 0 1.8
v 3.3 0 1.5
v 3.3 0 1.4
v 3.3 0 1.6
v 3.2 0 1.6
v 3.2 0 1.4
v 3.2 0 0.7
v 3.2 0 1.5
v 3.1 0 1.5
v 3.1 0 0.7
v 3.3 0 0.4
v 3.3 0 0.8
v 3.2 0 0.8
v 3.2 0 0.4
v 3.4 0 0.2
v 3.4 0 0.5
v 3.3 0 0.5
v 3.3 0 0.2
v 3.5 0 -0.2
v 3.5 0 0.3
v 3.4 0 0.3
v 3.4 0 -0.2
v 3.6 0 -0.6
v 3.6 0 -0.1
v 3.5 0 -0.1
v 3.5 0 -0.6
v 3.7 0 -1.5
v 3.7 0 -0.5
v 3.6 0 -0.5
v 3.6 0 -1.5
v 3.6 0 -1.6
v 3.6 0 -1.4
v 3.5 0 -1.4
v 3.5 0 -1.6
v 3.5 0 -1.8
v 3.5 0 -1.5
v 3.4 0 -1.5
v 3.4 0 -1.8
v 3.4 0 -1.9
v 3.4 0 -1.7
v 3.3 0 -1.7
v 3.3 0 -1.9
v 3.3 0 -2.1
v 3.3 0 -1.8
v 3.2 0 -1.8
v 3.2 0 -2.1
v 3.2 0 -2.2
v 3.2 0 -2
v 3.1 0 -2
v 3.1 0 -2.2
v -2.2 0.1 3.6
v -2.2 0 3.6
v -2.5 0.1 3.7
v -2.7 0.1 3.7
v -2.7 0.1 3.8
v -2.5 0.1 3.8
v -2.4 0.1 3.6
v -2.4 0.1 3.7
v -2.5 0.1 3.6
v -2.4 0.1 3.8
v -2.6 0.1 3.6
v -3.1 0.1 3.6
v -3.1 0.1 3.7
v -2.6 0.1 3.7
v -3 0.1 3.5
v -3.3 0.1 3.5
v -3.3 0.1 3.6
v -3 0.1 3.6
v -3.2 0.1 3.4
v -3.5 0.1 3.4
v -3.5 0.1 3.5
v -3.2 0.1 3.5
v -3.4 0.1 3.3
v -3.6 0.1 3.3
v -3.6 0.1 3.4
v -3.4 0.1 3.4
v -3.5 0.1 2.5
v -3.6 0.1 2.5
v -3.5 0.1 3.3
v -3.4 0.1 2.1
v -3.5 0.1 2.1
v -3.5 0.1 2.6
v -3.4 0.1 2.6
v -3.3 0.1 1.9
v -3.4 0.1 1.9
v -3.4 0.1 2.2
v -3.3 0.1 2.2
v -3.2 0.1 1.3
v -3.3 0.1 1.3
v -3.3 0.1 2
v -3.2 0.1 2
v -3.3 0.1 1.2
v -3.4 0.1 1.2
v -3.4 0.1 1.4
v -3.3 0.1 1.4
v -3.4 0.1 0.9
v -3.5 0.1 0.9
v -3.5 0.1 1.3
v -3.4 0.1 1.3
v -3.5 0.1 0
v -3.6 0.1 0
v -3.6 0.1 1
v -3.5 0.1 1
v -3.4 0.1 -0.6
v -3.5 0.1 -0.6
v -3.5 0.1 0.1
v -3.4 0.1 0.1
v -3.3 0.1 -0.8
v -3.4 0.1 -0.8
v -3.4 0.1 -0.4
v -3.3 0.1 -0.4
v -3.2 0.1 -0.9
v -3.3 0.1 -0.9
v -3.3 0.1 -0.7
v -3.2 0.1 -0.7
v -3.1 0.1 -1.1
v -3.2 0.1 -1.1
v -3.2 0.1 -0.8
v -3.1 0.1 -0.8
v -3 0.1 -2
v -3.1 0.1 -2
v -3.1 0.1 -1
v -3 0.1 -1
v -3.1 0.1 -2.2
v -3.2 0.1 -2.2
v -3.2 0.1 -1.9
v -3.1 0.1 -1.9
v -3.3 0.1 -2.2
v -3.3 0.1 -2.1
v -3.2 0.1 -2.1
v -2.5 0 3.7
v -2.5 0 3.8
v -2.7 0 3.8
v -2.7 0 3.7
v -2.4 0 3.7
v -2.4 0 3.6
v -2.4 0 3.8
v -2.5 0 3.6
v -2.6 0 3.6
v -2.6 0 3.7
v -3.1 0 3.7
v -3.1 0 3.6
v -3 0 3.5
v -3 0 3.6
v -3.3 0 3.6
v -3.3 0 3.5
v -3.2 0 3.4
v -3.2 0 3.5
v -3.5 0 3.5
v -3.5 0 3.4
v -3.4 0 3.3
v -3.4 0 3.4
v -3.6 0 3.4
v -3.6 0 3.3
v -3.5 0 2.5
v -3.5 0 3.3
v -3.6 0 2.5
v -3.4 0 2.1
v -3.4 0 2.6
v -3.5 0 2.6
v -3.5 0 2.1
v -3.3 0 1.9
v -3.3 0 2.2
v -3.4 0 2.2
v -3.4 0 1.9
v -3.2 0 1.3
v -3.2 0 2
v -3.3 0 2
v -3.3 0 1.3
v -3.3 0 1.2
v -3.3 0 1.4
v -3.4 0 1.4
v -3.4 0 1.2
v -3.4 0 0.9
v -3.4 0 1.3
v -3.5 0 1.3
v -3.5 0 0.9
v -3.5 0 0
v -3.5 0 1
v -3.6 0 1
v -3.6 0 0
v -3.4 0 -0.6
v -3.4 0 0.1
v -3.5 0 0.1
v -3.5 0 -0.6
v -3.3 0 -0.8
v -3.3 0 -0.4
v -3.4 0 -0.4
v -3.4 0 -0.8
v -3.2 0 -0.9
v -3.2 0 -0.7
v -3.3 0 -0.7
v -3.3 0 -0.9
v -3.1 0 -1.1
v -3.1 0 -0.8
v -3.2 0 -0.8
v -3.2 0 -1.1
v -3 0 -2
v -3 0 -1
v -3.1 0 -1
v -3.1 0 -2
v -3.1 0 -2.2
v -3.1 0 -1.9
v -3.2 0 -1.9
v -3.2 0 -2.2
v -3.2 0 -2.1
v -3.3 0 -2.1
v -3.3 0 -2.2
v 3.3 0.1 -3.1
v 3.2 0.1 -3.1
v 3.2 0.1 -3
v 3.3 0.1 -3
v 3.2 0.1 -3.2
v 3.1 0.1 -3.2
v 3.1 0.1 -3.3
v 3 0.1 -3.3
v 3 0.1 -3.1
v 3.1 0.1 -3.1
v 3 0.1 -3.4
v 2.9 0.1 -3.4
v 2.9 0.1 -3.2
v 3 0.1 -3.2
v 2.7 0.1 -3.4
v 2.7 0.1 -3.3
v 2.9 0.1 -3.3
v 1.4 0.1 -3.4
v 0.8 0.1 -3.4
v 0.8 0.1 -3.3
v 1.4 0.1 -3.3
v 2.8 0.1 -3.5
v 2.6 0.1 -3.5
v 2.6 0.1 -3.4
v 2.8 0.1 -3.4
v 1.6 0.1 -3.5
v 1.5 0.1 -3.5
v 1.5 0.1 -3.4
v 1.6 0.1 -3.4
v 1.4 0.1 -3.5
v 1.5 0.1 -3.3
v 0.9 0.1 -3.5
v -0.6 0.1 -3.5
v -0.6 0.1 -3.4
v 0.9 0.1 -3.4
v -2.1 0.1 -3.5
v -2.2 0.1 -3.5
v -2.2 0.1 -3.4
v -2.1 0.1 -3.4
v 2.7 0.1 -3.6
v 2.2 0.1 -3.6
v 2.2 0.1 -3.5
v 2.7 0.1 -3.5
v 1.9 0.1 -3.6
v 1.7 0.1 -3.6
v 1.7 0.1 -3.5
v 1.9 0.1 -3.5
v 1.6 0.1 -3.6
v 1.7 0.1 -3.4
v -0.5 0.1 -3.6
v -1.1 0.1 -3.6
v -1.1 0.1 -3.5
v -0.5 0.1 -3.5
v -1.9 0.1 -3.6
v -2 0.1 -3.6
v -2 0.1 -3.5
v -1.9 0.1 -3.5
v -2.1 0.1 -3.6
v -2 0.1 -3.4
v 2.3 0.1 -3.7
v 2 0.1 -3.7
v 2 0.1 -3.6
v 2.3 0.1 -3.6
v 1.9 0.1 -3.7
v 2 0.1 -3.5
v -1 0.1 -3.7
v -1.8 0.1 -3.7
v -1.8 0.1 -3.6
v -1 0.1 -3.6
v -1.9 0.1 -3.7
v -1.8 0.1 -3.5
v 3.3 0 -3.1
v 3.3 0 -3
v 3.2 0 -3
v 3.2 0 -3.1
v 3.2 0 -3.2
v 3.1 0 -3.2
v 3.1 0 -3.3
v 3.1 0 -3.1
v 3 0 -3.1
v 3 0 -3.3
v 3 0 -3.4
v 3 0 -3.2
v 2.9 0 -3.2
v 2.9 0 -3.4
v 2.9 0 -3.3
v 2.7 0 -3.3
v 2.7 0 -3.4
v 1.4 0 -3.4
v 1.4 0 -3.3
v 0.8 0 -3.3
v 0.8 0 -3.4
v 2.8 0 -3.5
v 2.8 0 -3.4
v 2.6 0 -3.4
v 2.6 0 -3.5
v 1.6 0 -3.5
v 1.6 0 -3.4
v 1.5 0 -3.4
v 1.5 0 -3.5
v 1.5 0 -3.3
v 1.4 0 -3.5
v 0.9 0 -3.5
v 0.9 0 -3.4
v -0.6 0 -3.4
v -0.6 0 -3.5
v -2.1 0 -3.5
v -2.1 0 -3.4
v -2.2 0 -3.4
v -2.2 0 -3.5
v 2.7 0 -3.6
v 2.7 0 -3.5
v 2.2 0 -3.5
v 2.2 0 -3.6
v 1.9 0 -3.6
v 1.9 0 -3.5
v 1.7 0 -3.5
v 1.7 0 -3.6
v 1.7 0 -3.4
v 1.6 0 -3.6
v -0.5 0 -3.6
v -0.5 0 -3.5
v -1.1 0 -3.5
v -1.1 0 -3.6
v -1.9 0 -3.6
v -1.9 0 -3.5
v -2 0 -3.5
v -2 0 -3.6
v -2 0 -3.4
v -2.1 0 -3.6
v 2.3 0 -3.7
v 2.3 0 -3.6
v 2 0 -3.6
v 2 0 -3.7
v 2 0 -3.5
v 1.9 0 -3.7
v -1 0 -3.7
v -1 0 -3.6
v -1.8 0 -3.6
v -1.8 0 -3.7
v -1.8 0 -3.5
v -1.9 0 -3.7
v -3.2 0.1 -2.6
v -3.3 0.1 -2.6
v -3.1 0.1 -2.8
v -3.2 0.1 -2.8
v -3.2 0.1 -2.5
v -3.1 0.1 -2.5
v -3 0.1 -2.9
v -3.1 0.1 -2.9
v -3.1 0.1 -2.7
v -3 0.1 -2.7
v -2.8 0.1 -3
v -2.9 0.1 -3
v -2.9 0.1 -2.9
v -2.8 0.1 -2.9
v -3 0.1 -3
v -3 0.1 -2.8
v -2.9 0.1 -2.8
v -2.7 0.1 -3.1
v -2.8 0.1 -3.1
v -2.7 0.1 -2.9
v -2.6 0.1 -3.2
v -2.7 0.1 -3.2
v -2.7 0.1 -3
v -2.6 0.1 -3
v -2.5 0.1 -3.3
v -2.6 0.1 -3.3
v -2.6 0.1 -3.1
v -2.5 0.1 -3.1
v -2.4 0.1 -3.4
v -2.5 0.1 -3.4
v -2.5 0.1 -3.2
v -2.4 0.1 -3.2
v -2.3 0.1 -3.5
v -2.3 0.1 -3.4
v -2.4 0.1 -3.5
v -2.4 0.1 -3.3
v -2.3 0.1 -3.3
v -3.2 0 -2.6
v -3.3 0 -2.6
v -3.1 0 -2.8
v -3.1 0 -2.5
v -3.2 0 -2.5
v -3.2 0 -2.8
v -3 0 -2.9
v -3 0 -2.7
v -3.1 0 -2.7
v -3.1 0 -2.9
v -2.8 0 -3
v -2.8 0 -2.9
v -2.9 0 -2.9
v -2.9 0 -3
v -2.9 0 -2.8
v -3 0 -2.8
v -3 0 -3
v -2.7 0 -3.1
v -2.7 0 -2.9
v -2.8 0 -3.1
v -2.6 0 -3.2
v -2.6 0 -3
v -2.7 0 -3
v -2.7 0 -3.2
v -2.5 0 -3.3
v -2.5 0 -3.1
v -2.6 0 -3.1
v -2.6 0 -3.3
v -2.4 0 -3.4
v -2.4 0 -3.2
v -2.5 0 -3.2
v -2.5 0 -3.4
v -2.3 0 -3.4
v -2.3 0 -3.5
v -2.3 0 -3.3
v -2.4 0 -3.3
v -2.4 0 -3.5

vt 0.0253906 0.5

vn 0 1 0
vn 0 -1 0
vn -1 0 0
vn 1 0 0
vn 0 0 -1
vn 0 0 1

usemtl palette
f 1/1/1 2/1/1 4/1/1
f 4/1/1 2/1/1 3/1/1
f 5/1/1 6/1/1 8/1/1
f 8/1/1 6/1/1 7/1/1
f 9/1/1 10/1/1 11/1/1
f 11/1/1 10/1/1 4/1/1
f 12/1/1 13/1/1 15/1/1
f 15/1/1 13/1/1 14/1/1
f 16/1/1 17/1/1 19/1/1
f 19/1/1 17/1/1 18/1/1
f 17/1/1 20/1/1 22/1/1
f 22/1/1 20/1/1 21/1/1
f 23/1/1 24/1/1 25/1/1
f 25/1/1 24/1/1 5/1/1
f 26/1/1 27/1/1 29/1/1
f 29/1/1 27/1/1 28/1/1
f 30/1/1 31/1/1 33/1/1
f 33/1/1 31/1/1 32/1/1
f 34/1/1 35/1/1 37/1/1
f 37/1/1 35/1/1 36/1/1
f 38/1/1 39/1/1 41/1/1
f 41/1/1 39/1/1 40/1/1
f 39/1/1 42/1/1 43/1/1
f 43/1/1 42/1/1 19/1/1
f 44/1/1 45/1/1 47/1/1
f 47/1/1 45/1/1 46/1/1
f 45/1/1 48/1/1 49/1/1
f 49/1/1 48/1/1 25/1/1
f 50/1/1 51/1/1 53/1/1
f 53/1/1 51/1/1 52/1/1
f 54/1/1 55/1/1 57/1/1
f 57/1/1 55/1/1 56/1/1
f 58/1/1 59/1/1 61/1/1
f 61/1/1 59/1/1 60/1/1
f 59/1/1 62/1/1 63/1/1
f 63/1/1 62/1/1 41/1/1
f 64/1/1 65/1/1 66/1/1
f 66/1/1 65/1/1 47/1/1
f 67/1/1 68/1/1 70/1/1
f 70/1/1 68/1/1 69/1/1
f 71/1/1 72/1/1 74/1/1
f 74/1/1 72/1/1 73/1/1
f 72/1/1 75/1/1 77/1/1
f 77/1/1 75/1/1 76/1/1
f 78/1/1 79/1/1 81/1/1
f 81/1/1 79/1/1 80/1/1
f 82/1/1 83/1/1 85/1/1
f 85/1/1 83/1/1 84/1/1
f 83/1/1 86/1/1 87/1/1
f 87/1/1 86/1/1 74/1/1
f 88/1/1 89/1/1 91/1/1
f 91/1/1 89/1/1 90/1/1
f 92/1/1 93/1/1 95/1/1
f 95/1/1 93/1/1 94/1/1
f 96/1/1 97/1/1 99/1/1
f 99/1/1 97/1/1 98/1/1
f 100/1/1 101/1/1 103/1/1
f 103/1/1 101/1/1 102/1/1
f 104/1/1 105/1/1 107/1/1
f 107/1/1 105/1/1 106/1/1
f 108/1/1 109/1/1 111/1/1
f 111/1/1 109/1/1 110/1/1
f 112/1/1 113/1/1 115/1/1
f 115/1/1 113/1/1 114/1/1
f 116/1/1 117/1/1 119/1/1
f 119/1/1 117/1/1 118/1/1
f 120/1/1 121/1/1 123/1/1
f 123/1/1 121/1/1 122/1/1
f 124/1/1 125/1/1 127/1/1
f 127/1/1 125/1/1 126/1/1
f 128/1/1 129/1/1 131/1/1
f 131/1/1 129/1/1 130/1/1
f 132/1/1 133/1/1 135/1/1
f 135/1/1 133/1/1 134/1/1
f 136/1/1 137/1/1 139/1/1
f 139/1/1 137/1/1 138/1/1
f 140/1/1 141/1/1 143/1/1
f 143/1/1 141/1/1 142/1/1
f 144/1/1 145/1/1 147/1/1
f 147/1/1 145/1/1 146/1/1
f 148/1/1 149/1/1 151/1/1
f 151/1/1 149/1/1 150/1/1
f 152/1/1 153/1/1 155/1/1
f 155/1/1 153/1/1 154/1/1
f 156/1/1 157/1/1 159/1/1
f 159/1/1 157/1/1 158/1/1
f 160/1/1 161/1/1 163/1/1
f 163/1/1 161/1/1 162/1/1
f 164/1/2 165/1/2 167/1/2
f 167/1/2 165/1/2 166/1/2
f 168/1/2 169/1/2 171/1/2
f 171/1/2 169/1/2 170/1/2
f 172/1/2 173/1/2 174/1/2
f 174/1/2 173/1/2 165/1/2
f 175/1/2 176/1/2 178/1/2
f 178/1/2 176/1/2 177/1/2
f 179/1/2 180/1/2 182/1/2
f 182/1/2 180/1/2 181/1/2
f 182/1/2 183/1/2 185/1/2
f 185/1/2 183/1/2 184/1/2
f 186/1/2 187/1/2 188/1/2
f 188/1/2 187/1/2 168/1/2
f 189/1/2 190/1/2 192/1/2
f 192/1/2 190/1/2 191/1/2
f 193/1/2 194/1/2 196/1/2
f 196/1/2 194/1/2 195/1/2
f 197/1/2 198/1/2 200/1/2
f 200/1/2 198/1/2 199/1/2
f 201/1/2 202/1/2 204/1/2
f 204/1/2 202/1/2 203/1/2
f 204/1/2 205/1/2 206/1/2
f 206/1/2 205/1/2 180/1/2
f 207/1/2 208/1/2 210/1/2
f 210/1/2 208/1/2 209/1/2
f 210/1/2 211/1/2 212/1/2
f 212/1/2 211/1/2 187/1/2
f 213/1/2 214/1/2 216/1/2
f 216/1/2 214/1/2 215/1/2
f 217/1/2 218/1/2 220/1/2
f 220/1/2 218/1/2 219/1/2
f 221/1/2 222/1/2 224/1/2
f 224/1/2 222/1/2 223/1/2
f 224/1/2 225/1/2 226/1/2
f 226/1/2 225/1/2 202/1/2
f 227/1/2 228/1/2 229/1/2
f 229/1/2 228/1/2 208/1/2
f 230/1/2 231/1/2 233/1/2
f 233/1/2 231/1/2 232/1/2
f 234/1/2 235/1/2 237/1/2
f 237/1/2 235/1/2 236/1/2
f 237/1/2 238/1/2 240/1/2
f 240/1/2 238/1/2 239/1/2
f 241/1/2 242/1/2 244/1/2
f 244/1/2 242/1/2 243/1/2
f 245/1/2 246/1/2 248/1/2
f 248/1/2 246/1/2 247/1/2
f 248/1/2 249/1/2 250/1/2
f 250/1/2 249/1/2 235/1/2
f 251/1/2 252/1/2 254/1/2
f 254/1/2 252/1/2 253/1/2
f 255/1/2 256/1/2 258/1/2
f 258/1/2 256/1/2 257/1/2
f 259/1/2 260/1/2 262/1/2
f 262/1/2 260/1/2 261/1/2
f 263/1/2 264/1/2 266/1/2
f 266/1/2 264/1/2 265/1/2
f 267/1/2 268/1/2 270/1/2
f 270/1/2 268/1/2 269/1/2
f 271/1/2 272/1/2 274/1/2
f 274/1/2 272/1/2 273/1/2
f 275/1/2 276/1/2 278/1/2
f 278/1/2 276/1/2 277/1/2
f 279/1/2 280/1/2 282/1/2
f 282/1/2 280/1/2 281/1/2
f 283/1/2 284/1/2 286/1/2
f 286/1/2 284/1/2 285/1/2
f 287/1/2 288/1/2 290/1/2
f 290/1/2 288/1/2 289/1/2
f 291/1/2 292/1/2 294/1/2
f 294/1/2 292/1/2 293/1/2
f 295/1/2 296/1/2 298/1/2
f 298/1/2 296/1/2 297/1/2
f 299/1/2 300/1/2 302/1/2
f 302/1/2 300/1/2 301/1/2
f 303/1/2 304/1/2 306/1/2
f 306/1/2 304/1/2 305/1/2
f 307/1/2 308/1/2 310/1/2
f 310/1/2 308/1/2 309/1/2
f 311/1/2 312/1/2 314/1/2
f 314/1/2 312/1/2 313/1/2
f 315/1/2 316/1/2 318/1/2
f 318/1/2 316/1/2 317/1/2
f 319/1/2 320/1/2 322/1/2
f 322/1/2 320/1/2 321/1/2
f 323/1/2 324/1/2 326/1/2
f 326/1/2 324/1/2 325/1/2
f 3/1/3 2/1/3 166/1/3
f 166/1/3 2/1/3 167/1/3
f 7/1/3 6/1/3 170/1/3
f 170/1/3 6/1/3 171/1/3
f 1/1/3 10/1/3 164/1/3
f 164/1/3 10/1/3 174/1/3
f 14/1/3 13/1/3 177/1/3
f 177/1/3 13/1/3 178/1/3
f 327/1/3 20/1/3 328/1/3
f 328/1/3 20/1/3 185/1/3
f 5/1/3 24/1/3 168/1/3
f 168/1/3 24/1/3 188/1/3
f 28/1/3 27/1/3 191/1/3
f 191/1/3 27/1/3 192/1/3
f 9/1/3 31/1/3 172/1/3
f 172/1/3 31/1/3 196/1/3
f 36/1/3 35/1/3 199/1/3
f 199/1/3 35/1/3 200/1/3
f 16/1/3 42/1/3 179/1/3
f 179/1/3 42/1/3 206/1/3
f 23/1/3 48/1/3 186/1/3
f 186/1/3 48/1/3 212/1/3
f 52/1/3 51/1/3 215/1/3
f 215/1/3 51/1/3 216/1/3
f 30/1/3 55/1/3 193/1/3
f 193/1/3 55/1/3 220/1/3
f 38/1/3 62/1/3 201/1/3
f 201/1/3 62/1/3 226/1/3
f 44/1/3 65/1/3 207/1/3
f 207/1/3 65/1/3 229/1/3
f 69/1/3 68/1/3 232/1/3
f 232/1/3 68/1/3 233/1/3
f 54/1/3 75/1/3 217/1/3
f 217/1/3 75/1/3 240/1/3
f 64/1/3 79/1/3 227/1/3
f 227/1/3 79/1/3 244/1/3
f 71/1/3 86/1/3 234/1/3
f 234/1/3 86/1/3 250/1/3
f 78/1/3 99/1/3 241/1/3
f 241/1/3 99/1/3 260/1/3
f 98/1/3 103/1/3 261/1/3
f 261/1/3 103/1/3 264/1/3
f 102/1/3 107/1/3 265/1/3
f 265/1/3 107/1/3 268/1/3
f 106/1/3 111/1/3 269/1/3
f 269/1/3 111/1/3 272/1/3
f 110/1/3 115/1/3 273/1/3
f 273/1/3 115/1/3 276/1/3
f 114/1/3 119/1/3 277/1/3
f 277/1/3 119/1/3 280/1/3
f 118/1/3 123/1/3 281/1/3
f 281/1/3 123/1/3 284/1/3
f 122/1/3 121/1/3 285/1/3
f 285/1/3 121/1/3 286/1/3
f 120/1/3 125/1/3 283/1/3
f 283/1/3 125/1/3 290/1/3
f 124/1/3 129/1/3 287/1/3
f 287/1/3 129/1/3 294/1/3
f 128/1/3 133/1/3 291/1/3
f 291/1/3 133/1/3 298/1/3
f 132/1/3 137/1/3 295/1/3
f 295/1/3 137/1/3 302/1/3
f 136/1/3 147/1/3 299/1/3
f 299/1/3 147/1/3 308/1/3
f 146/1/3 151/1/3 309/1/3
f 309/1/3 151/1/3 312/1/3
f 150/1/3 155/1/3 313/1/3
f 313/1/3 155/1/3 316/1/3
f 154/1/3 159/1/3 317/1/3
f 317/1/3 159/1/3 320/1/3
f 158/1/3 163/1/3 321/1/3
f 321/1/3 163/1/3 324/1/3
f 162/1/3 161/1/3 325/1/3
f 325/1/3 161/1/3 326/1/3
f 11/1/4 173/1/4 32/1/4
f 32/1/4 173/1/4 195/1/4
f 22/1/4 183/1/4 18/1/4
f 18/1/4 183/1/4 181/1/4
f 8/1/4 169/1/4 5/1/4
f 5/1/4 169/1/4 168/1/4
f 33/1/4 194/1/4 56/1/4
f 56/1/4 194/1/4 219/1/4
f 15/1/4 176/1/4 12/1/4
f 12/1/4 176/1/4 175/1/4
f 43/1/4 205/1/4 40/1/4
f 40/1/4 205/1/4 203/1/4
f 49/1/4 211/1/4 46/1/4
f 46/1/4 211/1/4 209/1/4
f 29/1/4 190/1/4 26/1/4
f 26/1/4 190/1/4 189/1/4
f 57/1/4 218/1/4 76/1/4
f 76/1/4 218/1/4 239/1/4
f 37/1/4 198/1/4 34/1/4
f 34/1/4 198/1/4 197/1/4
f 63/1/4 225/1/4 60/1/4
f 60/1/4 225/1/4 223/1/4
f 66/1/4 228/1/4 80/1/4
f 80/1/4 228/1/4 243/1/4
f 53/1/4 214/1/4 50/1/4
f 50/1/4 214/1/4 213/1/4
f 77/1/4 238/1/4 73/1/4
f 73/1/4 238/1/4 236/1/4
f 61/1/4 222/1/4 58/1/4
f 58/1/4 222/1/4 221/1/4
f 81/1/4 242/1/4 94/1/4
f 94/1/4 242/1/4 257/1/4
f 70/1/4 231/1/4 67/1/4
f 67/1/4 231/1/4 230/1/4
f 87/1/4 249/1/4 84/1/4
f 84/1/4 249/1/4 247/1/4
f 85/1/4 246/1/4 82/1/4
f 82/1/4 246/1/4 245/1/4
f 95/1/4 256/1/4 90/1/4
f 90/1/4 256/1/4 253/1/4
f 91/1/4 252/1/4 88/1/4
f 88/1/4 252/1/4 251/1/4
f 89/1/4 254/1/4 92/1/4
f 92/1/4 254/1/4 255/1/4
f 93/1/4 258/1/4 96/1/4
f 96/1/4 258/1/4 259/1/4
f 97/1/4 262/1/4 100/1/4
f 100/1/4 262/1/4 263/1/4
f 101/1/4 266/1/4 104/1/4
f 104/1/4 266/1/4 267/1/4
f 105/1/4 270/1/4 108/1/4
f 108/1/4 270/1/4 271/1/4
f 109/1/4 274/1/4 112/1/4
f 112/1/4 274/1/4 275/1/4
f 113/1/4 278/1/4 116/1/4
f 116/1/4 278/1/4 279/1/4
f 117/1/4 282/1/4 126/1/4
f 126/1/4 282/1/4 289/1/4
f 127/1/4 288/1/4 130/1/4
f 130/1/4 288/1/4 293/1/4
f 131/1/4 292/1/4 134/1/4
f 134/1/4 292/1/4 297/1/4
f 135/1/4 296/1/4 138/1/4
f 138/1/4 296/1/4 301/1/4
f 139/1/4 300/1/4 142/1/4
f 142/1/4 300/1/4 305/1/4
f 143/1/4 304/1/4 140/1/4
f 140/1/4 304/1/4 303/1/4
f 141/1/4 306/1/4 144/1/4
f 144/1/4 306/1/4 307/1/4
f 145/1/4 310/1/4 148/1/4
f 148/1/4 310/1/4 311/1/4
f 149/1/4 314/1/4 152/1/4
f 152/1/4 314/1/4 315/1/4
f 153/1/4 318/1/4 156/1/4
f 156/1/4 318/1/4 319/1/4
f 157/1/4 322/1/4 160/1/4
f 160/1/4 322/1/4 323/1/4
f 254/1/5 89/1/5 251/1/5
f 251/1/5 89/1/5 88/1/5
f 258/1/5 93/1/5 255/1/5
f 255/1/5 93/1/5 92/1/5
f 244/1/5 79/1/5 241/1/5
f 241/1/5 79/1/5 78/1/5
f 262/1/5 97/1/5 259/1/5
f 259/1/5 97/1/5 96/1/5
f 229/1/5 65/1/5 227/1/5
f 227/1/5 65/1/5 64/1/5
f 266/1/5 101/1/5 263/1/5
f 263/1/5 101/1/5 100/1/5
f 306/1/5 141/1/5 303/1/5
f 303/1/5 141/1/5 140/1/5
f 270/1/5 105/1/5 267/1/5
f 267/1/5 105/1/5 104/1/5
f 302/1/5 137/1/5 299/1/5
f 299/1/5 137/1/5 136/1/5
f 310/1/5 145/1/5 307/1/5
f 307/1/5 145/1/5 144/1/5
f 212/1/5 48/1/5 207/1/5
f 207/1/5 48/1/5 44/1/5
f 274/1/5 109/1/5 271/1/5
f 271/1/5 109/1/5 108/1/5
f 298/1/5 133/1/5 295/1/5
f 295/1/5 133/1/5 132/1/5
f 314/1/5 149/1/5 311/1/5
f 311/1/5 149/1/5 148/1/5
f 188/1/5 24/1/5 186/1/5
f 186/1/5 24/1/5 23/1/5
f 278/1/5 113/1/5 275/1/5
f 275/1/5 113/1/5 112/1/5
f 294/1/5 129/1/5 291/1/5
f 291/1/5 129/1/5 128/1/5
f 318/1/5 153/1/5 315/1/5
f 315/1/5 153/1/5 152/1/5
f 282/1/5 117/1/5 279/1/5
f 279/1/5 117/1/5 116/1/5
f 290/1/5 125/1/5 287/1/5
f 287/1/5 125/1/5 124/1/5
f 322/1/5 157/1/5 319/1/5
f 319/1/5 157/1/5 156/1/5
f 286/1/5 121/1/5 283/1/5
f 283/1/5 121/1/5 120/1/5
f 190/1/5 29/1/5 168/1/5
f 168/1/5 29/1/5 5/1/5
f 214/1/5 53/1/5 189/1/5
f 189/1/5 53/1/5 26/1/5
f 231/1/5 70/1/5 213/1/5
f 213/1/5 70/1/5 50/1/5
f 246/1/5 85/1/5 230/1/5
f 230/1/5 85/1/5 67/1/5
f 250/1/5 86/1/5 245/1/5
f 245/1/5 86/1/5 82/1/5
f 240/1/5 75/1/5 234/1/5
f 234/1/5 75/1/5 71/1/5
f 220/1/5 55/1/5 217/1/5
f 217/1/5 55/1/5 54/1/5
f 196/1/5 31/1/5 193/1/5
f 193/1/5 31/1/5 30/1/5
f 174/1/5 10/1/5 172/1/5
f 172/1/5 10/1/5 9/1/5
f 176/1/5 15/1/5 164/1/5
f 164/1/5 15/1/5 1/1/5
f 198/1/5 37/1/5 175/1/5
f 175/1/5 37/1/5 12/1/5
f 222/1/5 61/1/5 197/1/5
f 197/1/5 61/1/5 34/1/5
f 226/1/5 62/1/5 221/1/5
f 221/1/5 62/1/5 58/1/5
f 206/1/5 42/1/5 201/1/5
f 201/1/5 42/1/5 38/1/5
f 185/1/5 20/1/5 179/1/5
f 179/1/5 20/1/5 16/1/5
f 253/1/6 252/1/6 90/1/6
f 90/1/6 252/1/6 91/1/6
f 257/1/6 256/1/6 94/1/6
f 94/1/6 256/1/6 95/1/6
f 243/1/6 242/1/6 80/1/6
f 80/1/6 242/1/6 81/1/6
f 261/1/6 260/1/6 98/1/6
f 98/1/6 260/1/6 99/1/6
f 265/1/6 264/1/6 102/1/6
f 102/1/6 264/1/6 103/1/6
f 305/1/6 304/1/6 142/1/6
f 142/1/6 304/1/6 143/1/6
f 209/1/6 228/1/6 46/1/6
f 46/1/6 228/1/6 66/1/6
f 269/1/6 268/1/6 106/1/6
f 106/1/6 268/1/6 107/1/6
f 301/1/6 300/1/6 138/1/6
f 138/1/6 300/1/6 139/1/6
f 309/1/6 308/1/6 146/1/6
f 146/1/6 308/1/6 147/1/6
f 273/1/6 272/1/6 110/1/6
f 110/1/6 272/1/6 111/1/6
f 297/1/6 296/1/6 134/1/6
f 134/1/6 296/1/6 135/1/6
f 313/1/6 312/1/6 150/1/6
f 150/1/6 312/1/6 151/1/6
f 168/1/6 211/1/6 5/1/6
f 5/1/6 211/1/6 49/1/6
f 277/1/6 276/1/6 114/1/6
f 114/1/6 276/1/6 115/1/6
f 293/1/6 292/1/6 130/1/6
f 130/1/6 292/1/6 131/1/6
f 317/1/6 316/1/6 154/1/6
f 154/1/6 316/1/6 155/1/6
f 281/1/6 280/1/6 118/1/6
f 118/1/6 280/1/6 119/1/6
f 289/1/6 288/1/6 126/1/6
f 126/1/6 288/1/6 127/1/6
f 321/1/6 320/1/6 158/1/6
f 158/1/6 320/1/6 159/1/6
f 285/1/6 284/1/6 122/1/6
f 122/1/6 284/1/6 123/1/6
f 325/1/6 324/1/6 162/1/6
f 162/1/6 324/1/6 163/1/6
f 170/1/6 169/1/6 7/1/6
f 7/1/6 169/1/6 8/1/6
f 191/1/6 171/1/6 28/1/6
f 28/1/6 171/1/6 6/1/6
f 215/1/6 192/1/6 52/1/6
f 52/1/6 192/1/6 27/1/6
f 232/1/6 216/1/6 69/1/6
f 69/1/6 216/1/6 51/1/6
f 247/1/6 233/1/6 84/1/6
f 84/1/6 233/1/6 68/1/6
f 236/1/6 249/1/6 73/1/6
f 73/1/6 249/1/6 87/1/6
f 239/1/6 238/1/6 76/1/6
f 76/1/6 238/1/6 77/1/6
f 219/1/6 218/1/6 56/1/6
f 56/1/6 218/1/6 57/1/6
f 195/1/6 194/1/6 32/1/6
f 32/1/6 194/1/6 33/1/6
f 166/1/6 173/1/6 3/1/6
f 3/1/6 173/1/6 11/1/6
f 177/1/6 167/1/6 14/1/6
f 14/1/6 167/1/6 2/1/6
f 199/1/6 178/1/6 36/1/6
f 36/1/6 178/1/6 13/1/6
f 223/1/6 200/1/6 60/1/6
f 60/1/6 200/1/6 35/1/6
f 203/1/6 225/1/6 40/1/6
f 40/1/6 225/1/6 63/1/6
f 181/1/6 205/1/6 18/1/6
f 18/1/6 205/1/6 43/1/6
f 184/1/6 183/1/6 21/1/6
f 21/1/6 183/1/6 22/1/6
f 329/1/1 330/1/1 332/1/1
f 332/1/1 330/1/1 331/1/1
f 327/1/1 333/1/1 21/1/1
f 21/1/1 333/1/1 334/1/1
f 333/1/1 335/1/1 336/1/1
f 336/1/1 335/1/1 332/1/1
f 337/1/1 338/1/1 340/1/1
f 340/1/1 338/1/1 339/1/1
f 341/1/1 342/1/1 344/1/1
f 344/1/1 342/1/1 343/1/1
f 345/1/1 346/1/1 348/1/1
f 348/1/1 346/1/1 347/1/1
f 349/1/1 350/1/1 352/1/1
f 352/1/1 350/1/1 351/1/1
f 353/1/1 354/1/1 355/1/1
f 355/1/1 354/1/1 350/1/1
f 356/1/1 357/1/1 359/1/1
f 359/1/1 357/1/1 358/1/1
f 360/1/1 361/1/1 363/1/1
f 363/1/1 361/1/1 362/1/1
f 364/1/1 365/1/1 367/1/1
f 367/1/1 365/1/1 366/1/1
f 368/1/1 369/1/1 371/1/1
f 371/1/1 369/1/1 370/1/1
f 372/1/1 373/1/1 375/1/1
f 375/1/1 373/1/1 374/1/1
f 376/1/1 377/1/1 379/1/1
f 379/1/1 377/1/1 378/1/1
f 380/1/1 381/1/1 383/1/1
f 383/1/1 381/1/1 382/1/1
f 384/1/1 385/1/1 387/1/1
f 387/1/1 385/1/1 386/1/1
f 388/1/1 389/1/1 391/1/1
f 391/1/1 389/1/1 390/1/1
f 392/1/1 393/1/1 395/1/1
f 395/1/1 393/1/1 394/1/1
f 396/1/1 397/1/1 399/1/1
f 399/1/1 397/1/1 398/1/1
f 400/1/1 401/1/1 403/1/1
f 403/1/1 401/1/1 402/1/1
f 401/1/1 404/1/1 406/1/1
f 406/1/1 404/1/1 405/1/1
f 407/1/2 408/1/2 410/1/2
f 410/1/2 408/1/2 409/1/2
f 328/1/2 184/1/2 412/1/2
f 412/1/2 184/1/2 411/1/2
f 412/1/2 413/1/2 414/1/2
f 414/1/2 413/1/2 408/1/2
f 415/1/2 416/1/2 418/1/2
f 418/1/2 416/1/2 417/1/2
f 419/1/2 420/1/2 422/1/2
f 422/1/2 420/1/2 421/1/2
f 423/1/2 424/1/2 426/1/2
f 426/1/2 424/1/2 425/1/2
f 427/1/2 428/1/2 430/1/2
f 430/1/2 428/1/2 429/1/2
f 431/1/2 432/1/2 433/1/2
f 433/1/2 432/1/2 430/1/2
f 434/1/2 435/1/2 437/1/2
f 437/1/2 435/1/2 436/1/2
f 438/1/2 439/1/2 441/1/2
f 441/1/2 439/1/2 440/1/2
f 442/1/2 443/1/2 445/1/2
f 445/1/2 443/1/2 444/1/2
f 446/1/2 447/1/2 449/1/2
f 449/1/2 447/1/2 448/1/2
f 450/1/2 451/1/2 453/1/2
f 453/1/2 451/1/2 452/1/2
f 454/1/2 455/1/2 457/1/2
f 457/1/2 455/1/2 456/1/2
f 458/1/2 459/1/2 461/1/2
f 461/1/2 459/1/2 460/1/2
f 462/1/2 463/1/2 465/1/2
f 465/1/2 463/1/2 464/1/2
f 466/1/2 467/1/2 469/1/2
f 469/1/2 467/1/2 468/1/2
f 470/1/2 471/1/2 473/1/2
f 473/1/2 471/1/2 472/1/2
f 474/1/2 475/1/2 477/1/2
f 477/1/2 475/1/2 476/1/2
f 478/1/2 479/1/2 481/1/2
f 481/1/2 479/1/2 480/1/2
f 481/1/2 482/1/2 484/1/2
f 484/1/2 482/1/2 483/1/2
f 331/1/3 330/1/3 409/1/3
f 409/1/3 330/1/3 410/1/3
f 329/1/3 335/1/3 407/1/3
f 407/1/3 335/1/3 414/1/3
f 339/1/3 338/1/3 417/1/3
f 417/1/3 338/1/3 418/1/3
f 343/1/3 342/1/3 421/1/3
f 421/1/3 342/1/3 422/1/3
f 347/1/3 346/1/3 425/1/3
f 425/1/3 346/1/3 426/1/3
f 351/1/3 354/1/3 429/1/3
f 429/1/3 354/1/3 433/1/3
f 353/1/3 357/1/3 431/1/3
f 431/1/3 357/1/3 437/1/3
f 356/1/3 361/1/3 434/1/3
f 434/1/3 361/1/3 441/1/3
f 360/1/3 371/1/3 438/1/3
f 438/1/3 371/1/3 447/1/3
f 370/1/3 375/1/3 448/1/3
f 448/1/3 375/1/3 451/1/3
f 374/1/3 379/1/3 452/1/3
f 452/1/3 379/1/3 455/1/3
f 378/1/3 377/1/3 456/1/3
f 456/1/3 377/1/3 457/1/3
f 376/1/3 381/1/3 454/1/3
f 454/1/3 381/1/3 461/1/3
f 380/1/3 385/1/3 458/1/3
f 458/1/3 385/1/3 465/1/3
f 384/1/3 389/1/3 462/1/3
f 462/1/3 389/1/3 469/1/3
f 388/1/3 393/1/3 466/1/3
f 466/1/3 393/1/3 473/1/3
f 392/1/3 403/1/3 470/1/3
f 470/1/3 403/1/3 479/1/3
f 402/1/3 406/1/3 480/1/3
f 480/1/3 406/1/3 482/1/3
f 405/1/3 404/1/3 483/1/3
f 483/1/3 404/1/3 484/1/3
f 336/1/4 413/1/4 334/1/4
f 334/1/4 413/1/4 411/1/4
f 340/1/4 416/1/4 337/1/4
f 337/1/4 416/1/4 415/1/4
f 344/1/4 420/1/4 341/1/4
f 341/1/4 420/1/4 419/1/4
f 348/1/4 424/1/4 345/1/4
f 345/1/4 424/1/4 423/1/4
f 352/1/4 428/1/4 349/1/4
f 349/1/4 428/1/4 427/1/4
f 355/1/4 432/1/4 358/1/4
f 358/1/4 432/1/4 436/1/4
f 359/1/4 435/1/4 362/1/4
f 362/1/4 435/1/4 440/1/4
f 363/1/4 439/1/4 366/1/4
f 366/1/4 439/1/4 444/1/4
f 367/1/4 443/1/4 364/1/4
f 364/1/4 443/1/4 442/1/4
f 365/1/4 445/1/4 368/1/4
f 368/1/4 445/1/4 446/1/4
f 369/1/4 449/1/4 372/1/4
f 372/1/4 449/1/4 450/1/4
f 373/1/4 453/1/4 382/1/4
f 382/1/4 453/1/4 460/1/4
f 383/1/4 459/1/4 386/1/4
f 386/1/4 459/1/4 464/1/4
f 387/1/4 463/1/4 390/1/4
f 390/1/4 463/1/4 468/1/4
f 391/1/4 467/1/4 394/1/4
f 394/1/4 467/1/4 472/1/4
f 395/1/4 471/1/4 398/1/4
f 398/1/4 471/1/4 476/1/4
f 399/1/4 475/1/4 396/1/4
f 396/1/4 475/1/4 474/1/4
f 397/1/4 477/1/4 400/1/4
f 400/1/4 477/1/4 478/1/4
f 414/1/5 335/1/5 328/1/5
f 328/1/5 335/1/5 327/1/5
f 416/1/5 340/1/5 407/1/5
f 407/1/5 340/1/5 329/1/5
f 420/1/5 344/1/5 415/1/5
f 415/1/5 344/1/5 337/1/5
f 477/1/5 397/1/5 474/1/5
f 474/1/5 397/1/5 396/1/5
f 424/1/5 348/1/5 419/1/5
f 419/1/5 348/1/5 341/1/5
f 473/1/5 393/1/5 470/1/5
f 470/1/5 393/1/5 392/1/5
f 481/1/5 401/1/5 478/1/5
f 478/1/5 401/1/5 400/1/5
f 445/1/5 365/1/5 442/1/5
f 442/1/5 365/1/5 364/1/5
f 469/1/5 389/1/5 466/1/5
f 466/1/5 389/1/5 388/1/5
f 428/1/5 352/1/5 423/1/5
f 423/1/5 352/1/5 345/1/5
f 441/1/5 361/1/5 438/1/5
f 438/1/5 361/1/5 360/1/5
f 449/1/5 369/1/5 446/1/5
f 446/1/5 369/1/5 368/1/5
f 465/1/5 385/1/5 462/1/5
f 462/1/5 385/1/5 384/1/5
f 432/1/5 355/1/5 427/1/5
f 427/1/5 355/1/5 349/1/5
f 437/1/5 357/1/5 434/1/5
f 434/1/5 357/1/5 356/1/5
f 453/1/5 373/1/5 450/1/5
f 450/1/5 373/1/5 372/1/5
f 461/1/5 381/1/5 458/1/5
f 458/1/5 381/1/5 380/1/5
f 433/1/5 354/1/5 431/1/5
f 431/1/5 354/1/5 353/1/5
f 457/1/5 377/1/5 454/1/5
f 454/1/5 377/1/5 376/1/5
f 411/1/6 184/1/6 334/1/6
f 334/1/6 184/1/6 21/1/6
f 409/1/6 413/1/6 331/1/6
f 331/1/6 413/1/6 336/1/6
f 417/1/6 410/1/6 339/1/6
f 339/1/6 410/1/6 330/1/6
f 476/1/6 475/1/6 398/1/6
f 398/1/6 475/1/6 399/1/6
f 472/1/6 471/1/6 394/1/6
f 394/1/6 471/1/6 395/1/6
f 480/1/6 479/1/6 402/1/6
f 402/1/6 479/1/6 403/1/6
f 421/1/6 418/1/6 343/1/6
f 343/1/6 418/1/6 338/1/6
f 444/1/6 443/1/6 366/1/6
f 366/1/6 443/1/6 367/1/6
f 468/1/6 467/1/6 390/1/6
f 390/1/6 467/1/6 391/1/6
f 483/1/6 482/1/6 405/1/6
f 405/1/6 482/1/6 406/1/6
f 440/1/6 439/1/6 362/1/6
f 362/1/6 439/1/6 363/1/6
f 448/1/6 447/1/6 370/1/6
f 370/1/6 447/1/6 371/1/6
f 464/1/6 463/1/6 386/1/6
f 386/1/6 463/1/6 387/1/6
f 425/1/6 422/1/6 347/1/6
f 347/1/6 422/1/6 342/1/6
f 436/1/6 435/1/6 358/1/6
f 358/1/6 435/1/6 359/1/6
f 452/1/6 451/1/6 374/1/6
f 374/1/6 451/1/6 375/1/6
f 460/1/6 459/1/6 382/1/6
f 382/1/6 459/1/6 383/1/6
f 429/1/6 426/1/6 351/1/6
f 351/1/6 426/1/6 346/1/6
f 456/1/6 455/1/6 378/1/6
f 378/1/6 455/1/6 379/1/6
f 485/1/1 486/1/1 488/1/1
f 488/1/1 486/1/1 487/1/1
f 489/1/1 490/1/1 160/1/1
f 160/1/1 490/1/1 161/1/1
f 491/1/1 492/1/1 494/1/1
f 494/1/1 492/1/1 493/1/1
f 495/1/1 496/1/1 498/1/1
f 498/1/1 496/1/1 497/1/1
f 496/1/1 499/1/1 501/1/1
f 501/1/1 499/1/1 500/1/1
f 502/1/1 503/1/1 505/1/1
f 505/1/1 503/1/1 504/1/1
f 506/1/1 507/1/1 509/1/1
f 509/1/1 507/1/1 508/1/1
f 510/1/1 511/1/1 513/1/1
f 513/1/1 511/1/1 512/1/1
f 511/1/1 514/1/1 515/1/1
f 515/1/1 514/1/1 505/1/1
f 516/1/1 517/1/1 519/1/1
f 519/1/1 517/1/1 518/1/1
f 520/1/1 521/1/1 523/1/1
f 523/1/1 521/1/1 522/1/1
f 524/1/1 525/1/1 527/1/1
f 527/1/1 525/1/1 526/1/1
f 528/1/1 529/1/1 531/1/1
f 531/1/1 529/1/1 530/1/1
f 529/1/1 532/1/1 533/1/1
f 533/1/1 532/1/1 513/1/1
f 534/1/1 535/1/1 537/1/1
f 537/1/1 535/1/1 536/1/1
f 538/1/1 539/1/1 541/1/1
f 541/1/1 539/1/1 540/1/1
f 539/1/1 542/1/1 543/1/1
f 543/1/1 542/1/1 523/1/1
f 544/1/1 545/1/1 547/1/1
f 547/1/1 545/1/1 546/1/1
f 545/1/1 548/1/1 549/1/1
f 549/1/1 548/1/1 531/1/1
f 550/1/1 551/1/1 553/1/1
f 553/1/1 551/1/1 552/1/1
f 551/1/1 554/1/1 555/1/1
f 555/1/1 554/1/1 541/1/1
f 556/1/2 557/1/2 559/1/2
f 559/1/2 557/1/2 558/1/2
f 560/1/2 323/1/2 561/1/2
f 561/1/2 323/1/2 326/1/2
f 562/1/2 563/1/2 565/1/2
f 565/1/2 563/1/2 564/1/2
f 566/1/2 567/1/2 569/1/2
f 569/1/2 567/1/2 568/1/2
f 569/1/2 570/1/2 572/1/2
f 572/1/2 570/1/2 571/1/2
f 573/1/2 574/1/2 576/1/2
f 576/1/2 574/1/2 575/1/2
f 577/1/2 578/1/2 580/1/2
f 580/1/2 578/1/2 579/1/2
f 581/1/2 582/1/2 584/1/2
f 584/1/2 582/1/2 583/1/2
f 584/1/2 585/1/2 586/1/2
f 586/1/2 585/1/2 574/1/2
f 587/1/2 588/1/2 590/1/2
f 590/1/2 588/1/2 589/1/2
f 591/1/2 592/1/2 594/1/2
f 594/1/2 592/1/2 593/1/2
f 595/1/2 596/1/2 598/1/2
f 598/1/2 596/1/2 597/1/2
f 599/1/2 600/1/2 602/1/2
f 602/1/2 600/1/2 601/1/2
f 602/1/2 603/1/2 604/1/2
f 604/1/2 603/1/2 582/1/2
f 605/1/2 606/1/2 608/1/2
f 608/1/2 606/1/2 607/1/2
f 609/1/2 610/1/2 612/1/2
f 612/1/2 610/1/2 611/1/2
f 612/1/2 613/1/2 614/1/2
f 614/1/2 613/1/2 592/1/2
f 615/1/2 616/1/2 618/1/2
f 618/1/2 616/1/2 617/1/2
f 618/1/2 619/1/2 620/1/2
f 620/1/2 619/1/2 600/1/2
f 621/1/2 622/1/2 624/1/2
f 624/1/2 622/1/2 623/1/2
f 624/1/2 625/1/2 626/1/2
f 626/1/2 625/1/2 610/1/2
f 161/1/3 494/1/3 326/1/3
f 326/1/3 494/1/3 563/1/3
f 493/1/3 498/1/3 564/1/3
f 564/1/3 498/1/3 567/1/3
f 497/1/3 501/1/3 568/1/3
f 568/1/3 501/1/3 570/1/3
f 500/1/3 499/1/3 571/1/3
f 571/1/3 499/1/3 572/1/3
f 504/1/3 503/1/3 575/1/3
f 575/1/3 503/1/3 576/1/3
f 508/1/3 507/1/3 579/1/3
f 579/1/3 507/1/3 580/1/3
f 502/1/3 514/1/3 573/1/3
f 573/1/3 514/1/3 586/1/3
f 518/1/3 517/1/3 589/1/3
f 589/1/3 517/1/3 590/1/3
f 526/1/3 525/1/3 597/1/3
f 597/1/3 525/1/3 598/1/3
f 510/1/3 532/1/3 581/1/3
f 581/1/3 532/1/3 604/1/3
f 536/1/3 535/1/3 607/1/3
f 607/1/3 535/1/3 608/1/3
f 520/1/3 542/1/3 591/1/3
f 591/1/3 542/1/3 614/1/3
f 528/1/3 548/1/3 599/1/3
f 599/1/3 548/1/3 620/1/3
f 538/1/3 554/1/3 609/1/3
f 609/1/3 554/1/3 626/1/3
f 160/1/4 323/1/4 487/1/4
f 487/1/4 323/1/4 558/1/4
f 488/1/4 557/1/4 485/1/4
f 485/1/4 557/1/4 556/1/4
f 486/1/4 559/1/4 489/1/4
f 489/1/4 559/1/4 560/1/4
f 490/1/4 561/1/4 491/1/4
f 491/1/4 561/1/4 562/1/4
f 492/1/4 565/1/4 495/1/4
f 495/1/4 565/1/4 566/1/4
f 515/1/4 585/1/4 512/1/4
f 512/1/4 585/1/4 583/1/4
f 509/1/4 578/1/4 506/1/4
f 506/1/4 578/1/4 577/1/4
f 533/1/4 603/1/4 530/1/4
f 530/1/4 603/1/4 601/1/4
f 519/1/4 588/1/4 516/1/4
f 516/1/4 588/1/4 587/1/4
f 543/1/4 613/1/4 540/1/4
f 540/1/4 613/1/4 611/1/4
f 527/1/4 596/1/4 524/1/4
f 524/1/4 596/1/4 595/1/4
f 549/1/4 619/1/4 546/1/4
f 546/1/4 619/1/4 617/1/4
f 537/1/4 606/1/4 534/1/4
f 534/1/4 606/1/4 605/1/4
f 555/1/4 625/1/4 552/1/4
f 552/1/4 625/1/4 623/1/4
f 547/1/4 616/1/4 544/1/4
f 544/1/4 616/1/4 615/1/4
f 553/1/4 622/1/4 550/1/4
f 550/1/4 622/1/4 621/1/4
f 559/1/5 486/1/5 556/1/5
f 556/1/5 486/1/5 485/1/5
f 561/1/5 490/1/5 560/1/5
f 560/1/5 490/1/5 489/1/5
f 565/1/5 492/1/5 562/1/5
f 562/1/5 492/1/5 491/1/5
f 578/1/5 509/1/5 566/1/5
f 566/1/5 509/1/5 495/1/5
f 596/1/5 527/1/5 577/1/5
f 577/1/5 527/1/5 506/1/5
f 616/1/5 547/1/5 595/1/5
f 595/1/5 547/1/5 524/1/5
f 620/1/5 548/1/5 615/1/5
f 615/1/5 548/1/5 544/1/5
f 604/1/5 532/1/5 599/1/5
f 599/1/5 532/1/5 528/1/5
f 586/1/5 514/1/5 581/1/5
f 581/1/5 514/1/5 510/1/5
f 588/1/5 519/1/5 573/1/5
f 573/1/5 519/1/5 502/1/5
f 606/1/5 537/1/5 587/1/5
f 587/1/5 537/1/5 516/1/5
f 622/1/5 553/1/5 605/1/5
f 605/1/5 553/1/5 534/1/5
f 626/1/5 554/1/5 621/1/5
f 621/1/5 554/1/5 550/1/5
f 614/1/5 542/1/5 609/1/5
f 609/1/5 542/1/5 538/1/5
f 594/1/5 521/1/5 591/1/5
f 591/1/5 521/1/5 520/1/5
f 558/1/6 557/1/6 487/1/6
f 487/1/6 557/1/6 488/1/6
f 564/1/6 563/1/6 493/1/6
f 493/1/6 563/1/6 494/1/6
f 568/1/6 567/1/6 497/1/6
f 497/1/6 567/1/6 498/1/6
f 571/1/6 570/1/6 500/1/6
f 500/1/6 570/1/6 501/1/6
f 579/1/6 572/1/6 508/1/6
f 508/1/6 572/1/6 499/1/6
f 597/1/6 580/1/6 526/1/6
f 526/1/6 580/1/6 507/1/6
f 617/1/6 598/1/6 546/1/6
f 546/1/6 598/1/6 525/1/6
f 601/1/6 619/1/6 530/1/6
f 530/1/6 619/1/6 549/1/6
f 583/1/6 603/1/6 512/1/6
f 512/1/6 603/1/6 533/1/6
f 575/1/6 585/1/6 504/1/6
f 504/1/6 585/1/6 515/1/6
f 589/1/6 576/1/6 518/1/6
f 518/1/6 576/1/6 503/1/6
f 607/1/6 590/1/6 536/1/6
f 536/1/6 590/1/6 517/1/6
f 623/1/6 608/1/6 552/1/6
f 552/1/6 608/1/6 535/1/6
f 611/1/6 625/1/6 540/1/6
f 540/1/6 625/1/6 555/1/6
f 593/1/6 613/1/6 522/1/6
f 522/1/6 613/1/6 543/1/6
f 627/1/1 628/1/1 401/1/1
f 401/1/1 628/1/1 404/1/1
f 629/1/1 630/1/1 632/1/1
f 632/1/1 630/1/1 631/1/1
f 633/1/1 634/1/1 636/1/1
f 636/1/1 634/1/1 635/1/1
f 637/1/1 638/1/1 640/1/1
f 640/1/1 638/1/1 639/1/1
f 638/1/1 641/1/1 643/1/1
f 643/1/1 641/1/1 642/1/1
f 644/1/1 645/1/1 646/1/1
f 646/1/1 645/1/1 640/1/1
f 647/1/1 648/1/1 650/1/1
f 650/1/1 648/1/1 649/1/1
f 651/1/1 652/1/1 654/1/1
f 654/1/1 652/1/1 653/1/1
f 655/1/1 656/1/1 658/1/1
f 658/1/1 656/1/1 657/1/1
f 521/1/1 659/1/1 522/1/1
f 522/1/1 659/1/1 660/1/1
f 659/1/1 661/1/1 663/1/1
f 663/1/1 661/1/1 662/1/1
f 664/1/2 481/1/2 665/1/2
f 665/1/2 481/1/2 484/1/2
f 666/1/2 667/1/2 669/1/2
f 669/1/2 667/1/2 668/1/2
f 670/1/2 671/1/2 673/1/2
f 673/1/2 671/1/2 672/1/2
f 674/1/2 675/1/2 677/1/2
f 677/1/2 675/1/2 676/1/2
f 677/1/2 678/1/2 680/1/2
f 680/1/2 678/1/2 679/1/2
f 681/1/2 682/1/2 683/1/2
f 683/1/2 682/1/2 675/1/2
f 684/1/2 685/1/2 687/1/2
f 687/1/2 685/1/2 686/1/2
f 688/1/2 689/1/2 691/1/2
f 691/1/2 689/1/2 690/1/2
f 692/1/2 693/1/2 695/1/2
f 695/1/2 693/1/2 694/1/2
f 594/1/2 593/1/2 697/1/2
f 697/1/2 593/1/2 696/1/2
f 697/1/2 698/1/2 700/1/2
f 700/1/2 698/1/2 699/1/2
f 404/1/3 628/1/3 484/1/3
f 484/1/3 628/1/3 665/1/3
f 627/1/3 630/1/3 664/1/3
f 664/1/3 630/1/3 669/1/3
f 629/1/3 634/1/3 666/1/3
f 666/1/3 634/1/3 673/1/3
f 633/1/3 641/1/3 670/1/3
f 670/1/3 641/1/3 680/1/3
f 637/1/3 645/1/3 674/1/3
f 674/1/3 645/1/3 683/1/3
f 644/1/3 648/1/3 681/1/3
f 681/1/3 648/1/3 687/1/3
f 647/1/3 652/1/3 684/1/3
f 684/1/3 652/1/3 691/1/3
f 651/1/3 656/1/3 688/1/3
f 688/1/3 656/1/3 695/1/3
f 655/1/3 661/1/3 692/1/3
f 692/1/3 661/1/3 700/1/3
f 401/1/4 481/1/4 631/1/4
f 631/1/4 481/1/4 668/1/4
f 632/1/4 667/1/4 635/1/4
f 635/1/4 667/1/4 672/1/4
f 636/1/4 671/1/4 642/1/4
f 642/1/4 671/1/4 679/1/4
f 643/1/4 678/1/4 639/1/4
f 639/1/4 678/1/4 676/1/4
f 646/1/4 682/1/4 649/1/4
f 649/1/4 682/1/4 686/1/4
f 650/1/4 685/1/4 653/1/4
f 653/1/4 685/1/4 690/1/4
f 654/1/4 689/1/4 657/1/4
f 657/1/4 689/1/4 694/1/4
f 658/1/4 693/1/4 662/1/4
f 662/1/4 693/1/4 699/1/4
f 663/1/4 698/1/4 660/1/4
f 660/1/4 698/1/4 696/1/4
f 700/1/5 661/1/5 594/1/5
f 594/1/5 661/1/5 521/1/5
f 695/1/5 656/1/5 692/1/5
f 692/1/5 656/1/5 655/1/5
f 691/1/5 652/1/5 688/1/5
f 688/1/5 652/1/5 651/1/5
f 687/1/5 648/1/5 684/1/5
f 684/1/5 648/1/5 647/1/5
f 683/1/5 645/1/5 681/1/5
f 681/1/5 645/1/5 644/1/5
f 680/1/5 641/1/5 674/1/5
f 674/1/5 641/1/5 637/1/5
f 673/1/5 634/1/5 670/1/5
f 670/1/5 634/1/5 633/1/5
f 669/1/5 630/1/5 666/1/5
f 666/1/5 630/1/5 629/1/5
f 665/1/5 628/1/5 664/1/5
f 664/1/5 628/1/5 627/1/5
f 696/1/6 593/1/6 660/1/6
f 660/1/6 593/1/6 522/1/6
f 699/1/6 698/1/6 662/1/6
f 662/1/6 698/1/6 663/1/6
f 694/1/6 693/1/6 657/1/6
f 657/1/6 693/1/6 658/1/6
f 690/1/6 689/1/6 653/1/6
f 653/1/6 689/1/6 654/1/6
f 686/1/6 685/1/6 649/1/6
f 649/1/6 685/1/6 650/1/6
f 676/1/6 682/1/6 639/1/6
f 639/1/6 682/1/6 646/1/6
f 679/1/6 678/1/6 642/1/6
f 642/1/6 678/1/6 643/1/6
f 672/1/6 671/1/6 635/1/6
f 635/1/6 671/1/6 636/1/6
f 668/1/6 667/1/6 631/1/6
f 631/1/6 667/1/6 632/1/6
