# Vengi binary mesh normalized for Tanks of Freedom II

mtllib ../../../materials/vox_grass.mtl
o rat_statue_overtile

v 1.4 0.1 1.4
v -1.5 0.1 1.4
v -1.5 0.1 1.5
v 1.4 0.1 1.5
v 1.3 0.2 1.3
v -1.4 0.2 1.3
v -1.4 0.2 1.4
v 1.3 0.2 1.4
v 1.2 0.3 1.2
v -1.3 0.3 1.2
v -1.3 0.3 1.3
v 1.2 0.3 1.3
v 1.1 0.4 1.1
v -1.2 0.4 1.1
v -1.2 0.4 1.2
v 1.1 0.4 1.2
v 0 3.4 0.7
v -0.1 3.4 0.7
v -0.1 3.4 0.8
v 0 3.4 0.8
v 0 3.4 0.6
v -0.1 3.4 0.6
v 0.1 2.1 0.6
v -0.2 2.1 0.6
v -0.2 2.1 0.7
v 0.1 2.1 0.7
v 0.1 3.7 0.6
v -0.2 3.7 0.6
v -0.2 3.7 0.7
v 0.1 3.7 0.7
v 0.6 0.5 0.6
v -1.1 0.5 0.6
v -1.1 0.5 1.1
v 0.6 0.5 1.1
v 0.4 0.5 0.5
v 0.3 0.5 0.5
v 0.3 0.5 0.6
v 0.4 0.5 0.6
v 0.3 2.2 0.5
v 0.2 2.2 0.5
v 0.2 2.2 0.6
v 0.3 2.2 0.6
v 0.2 0.5 0.5
v 0.1 0.5 0.5
v 0.1 0.5 0.6
v 0.2 0.5 0.6
v 0.2 2.1 0.5
v 0.1 2.1 0.5
v 0.2 2.1 0.7
v 0.2 3.7 0.5
v 0.1 3.7 0.5
v 0.2 3.7 0.6
v 0.1 2.2 0.5
v 0 2.2 0.5
v 0 2.2 0.6
v 0.1 2.2 0.6
v 0.2 2.5 0.5
v 0 2.5 0.5
v 0 2.5 0.6
v 0.2 2.5 0.6
v 0.1 3.4 0.5
v 0 3.4 0.5
v 0.1 3.4 0.6
v -0.1 0.5 0.5
v -0.2 0.5 0.5
v -0.2 0.5 0.6
v -0.1 0.5 0.6
v -0.1 3.4 0.5
v -0.2 3.4 0.5
v -0.2 3.4 0.6
v 0.1 3.6 0.5
v -0.2 3.6 0.5
v -0.2 3.6 0.6
v 0.1 3.6 0.6
v -0.2 3.7 0.5
v -0.3 3.7 0.5
v -0.3 3.7 0.6
v -0.3 0.5 0.5
v -0.4 0.5 0.5
v -0.4 0.5 0.6
v -0.3 0.5 0.6
v 0.7 2.1 0.4
v 0.4 2.1 0.4
v 0.4 2.1 0.7
v 0.7 2.1 0.7
v 0.1 3.7 0.4
v 0 3.7 0.4
v 0 3.7 0.5
v 0 3.8 0.4
v -0.1 3.8 0.4
v -0.1 3.8 0.5
v 0 3.8 0.5
v -0.1 3.7 0.4
v -0.2 3.7 0.4
v -0.1 3.7 0.5
v -0.6 2.1 0.4
v -0.7 2.1 0.4
v -0.7 2.1 0.7
v -0.6 2.1 0.7
v 0.6 0.5 0.3
v 0.5 0.5 0.3
v 0.5 0.5 0.4
v 0.6 0.5 0.4
v 0.2 2.3 0.3
v 0 2.3 0.3
v 0 2.3 0.4
v 0.2 2.3 0.4
v 0.2 2.7 0.3
v 0 2.7 0.3
v 0 2.7 0.5
v 0.2 2.7 0.5
v 0.1 3.8 0.3
v 0 3.8 0.3
v 0.1 3.8 0.4
v 0 3.9 0.3
v -0.1 3.9 0.3
v -0.1 3.9 0.4
v 0 3.9 0.4
v -0.1 3.8 0.3
v -0.2 3.8 0.3
v -0.2 3.8 0.4
v -0.1 2.5 0.3
v -0.3 2.5 0.3
v -0.3 2.5 0.4
v -0.1 2.5 0.4
v -0.1 2.1 0.3
v -0.4 2.1 0.3
v -0.4 2.1 0.6
v -0.1 2.1 0.6
v -0.5 0.5 0.3
v -0.6 0.5 0.3
v -0.6 0.5 0.4
v -0.5 0.5 0.4
v 0.7 2.9 0.2
v 0.6 2.9 0.2
v 0.6 2.9 0.3
v 0.7 2.9 0.3
v 0.5 3 0.2
v 0.4 3 0.2
v 0.4 3 0.3
v 0.5 3 0.3
v 0.3 2.7 0.2
v 0.2 2.7 0.2
v 0.3 2.7 0.3
v 0.3 3.1 0.2
v 0.2 3.1 0.2
v 0.2 3.1 0.3
v 0.3 3.1 0.3
v 0.3 3.7 0.2
v 0.2 3.7 0.2
v 0.3 3.7 0.5
v 0.2 3.2 0.2
v 0.1 3.2 0.2
v 0.1 3.2 0.3
v 0.2 3.2 0.3
v 0.2 3.6 0.2
v 0.1 3.6 0.2
v 0.2 3.6 0.5
v 0.1 3.7 0.2
v 0 3.7 0.2
v 0 3.7 0.3
v 0.1 3.7 0.3
v 0 3.8 0.2
v -0.1 3.8 0.2
v -0.1 2.2 0.2
v -0.2 2.2 0.2
v -0.2 2.2 0.3
v -0.1 2.2 0.3
v -0.1 3.7 0.2
v -0.2 3.7 0.2
v -0.2 3.7 0.3
v -0.1 3.7 0.3
v -0.2 2.1 0.2
v -0.3 2.1 0.2
v -0.3 2.1 0.3
v -0.2 2.1 0.3
v -0.2 3.2 0.2
v -0.3 3.2 0.2
v -0.3 3.2 0.3
v -0.2 3.2 0.3
v -0.2 3.6 0.2
v -0.3 3.6 0.2
v -0.3 3.6 0.5
v -0.3 2.2 0.2
v -0.4 2.2 0.2
v -0.4 2.2 0.3
v -0.3 2.2 0.3
v -0.3 2.7 0.2
v -0.4 2.7 0.2
v -0.4 2.7 0.3
v -0.3 2.7 0.3
v -0.3 3.7 0.2
v -0.4 3.7 0.2
v -0.4 3.7 0.5
v -0.3 3.1 0.2
v -0.5 3.1 0.2
v -0.5 3.1 0.3
v -0.3 3.1 0.3
v -0.5 3 0.2
v -0.6 3 0.2
v -0.6 3 0.3
v -0.5 3 0.3
v -0.7 2.9 0.2
v -0.8 2.9 0.2
v -0.8 2.9 0.3
v -0.7 2.9 0.3
v 0.6 0.5 0.1
v 0.5 0.5 0.1
v 0.5 0.5 0.2
v 0.6 0.5 0.2
v 0.6 3 0.1
v 0.5 3 0.1
v 0.6 3 0.2
v 0.5 3.1 0.1
v 0.4 3.1 0.1
v 0.4 3.1 0.2
v 0.5 3.1 0.2
v 0.3 2.8 0.1
v 0.2 2.8 0.1
v 0.2 2.8 0.2
v 0.3 2.8 0.2
v 0.3 3.2 0.1
v 0.2 3.2 0.1
v 0.3 3.2 0.2
v 0.3 3.5 0.1
v 0.2 3.5 0.1
v 0.2 3.5 0.2
v 0.3 3.5 0.2
v 0.2 3.3 0.1
v 0.1 3.3 0.1
v 0.1 3.3 0.2
v 0.2 3.3 0.2
v 0.2 3.7 0.1
v 0.1 3.7 0.1
v 0.1 3.4 0.1
v -0.2 3.4 0.1
v -0.2 3.4 0.2
v 0.1 3.4 0.2
v 0.1 3.6 0.1
v -0.2 3.6 0.1
v -0.1 2.4 0.1
v -0.3 2.4 0.1
v -0.3 2.4 0.2
v -0.1 2.4 0.2
v -0.2 3.3 0.1
v -0.3 3.3 0.1
v -0.3 3.3 0.2
v -0.2 3.3 0.2
v -0.2 3.7 0.1
v -0.3 3.7 0.1
v -0.3 2.8 0.1
v -0.4 2.8 0.1
v -0.4 2.8 0.2
v -0.3 2.8 0.2
v -0.3 3.5 0.1
v -0.4 3.5 0.1
v -0.4 3.5 0.2
v -0.3 3.5 0.2
v -0.3 3.2 0.1
v -0.5 3.2 0.1
v -0.5 3.2 0.2
v -0.5 0.5 0.1
v -0.6 0.5 0.1
v -0.6 0.5 0.2
v -0.5 0.5 0.2
v -0.5 3.1 0.1
v -0.6 3.1 0.1
v -0.6 3.1 0.2
v -0.6 3 0.1
v -0.7 3 0.1
v -0.7 3 0.2
v 0.7 2.9 0
v 0.6 2.9 0
v 0.6 2.9 0.1
v 0.7 2.9 0.1
v 0.5 3 0
v 0.4 3 0
v 0.4 3 0.1
v 0.4 3.1 0
v 0.3 3.1 0
v 0.4 3.1 0.3
v 0.3 2.7 0
v 0.2 2.7 0
v 0.2 2.7 0.1
v 0.3 2.7 0.1
v 0.2 3.1 0
v 0.2 3.1 0.1
v 0.3 3.1 0.1
v 0.2 3.2 0
v 0.1 3.2 0
v 0.1 3.2 0.1
v 0.1 3.3 0
v -0.2 3.3 0
v 0.1 3.7 0
v -0.2 3.7 0
v -0.1 2.3 0
v -0.3 2.3 0
v -0.3 2.3 0.1
v -0.1 2.3 0.1
v -0.2 3.2 0
v -0.3 3.2 0
v -0.2 3.2 0.1
v -0.3 2.7 0
v -0.4 2.7 0
v -0.4 2.7 0.1
v -0.3 2.7 0.1
v -0.3 3.1 0
v -0.5 3.1 0
v -0.3 3.1 0.1
v -0.5 3 0
v -0.6 3 0
v -0.5 3 0.1
v -0.7 2.9 0
v -0.8 2.9 0
v -0.8 2.9 0.1
v -0.7 2.9 0.1
v 0.2 2.7 -0.1
v 0.1 2.7 -0.1
v 0.1 2.7 0
v 0.1 3.2 -0.1
v -0.2 3.2 -0.1
v -0.2 2.7 -0.1
v -0.3 2.7 -0.1
v -0.2 2.7 0
v 0.7 2.1 -0.2
v 0.6 2.1 -0.2
v 0.6 2.1 0.2
v 0.7 2.1 0.2
v 0.6 0.5 -0.2
v 0.5 0.5 -0.2
v 0.5 0.5 -0.1
v 0.6 0.5 -0.1
v 0.1 2.6 -0.2
v 0 2.6 -0.2
v 0 2.6 -0.1
v 0.1 2.6 -0.1
v 0 2.8 -0.2
v -0.1 2.8 -0.2
v -0.1 2.8 -0.1
v 0 2.8 -0.1
v -0.1 2.6 -0.2
v -0.2 2.6 -0.2
v -0.2 2.6 -0.1
v -0.1 2.6 -0.1
v -0.5 0.5 -0.2
v -0.6 0.5 -0.2
v -0.6 0.5 -0.1
v -0.5 0.5 -0.1
v -0.6 2.1 -0.2
v -0.7 2.1 -0.2
v -0.7 2.1 0.2
v -0.6 2.1 0.2
v 0 2.6 -0.3
v -0.1 2.6 -0.3
v -0.1 2.4 -0.3
v -0.2 2.4 -0.3
v -0.2 2.4 -0.2
v -0.1 2.4 -0.2
v -0.2 2.1 -0.3
v -0.3 2.1 -0.3
v -0.3 2.1 0.1
v -0.2 2.1 0.1
v -0.4 2.1 -0.3
v -0.4 2.1 0.2
v 0.6 0.5 -0.4
v 0.5 0.5 -0.4
v 0.5 0.5 -0.3
v 0.6 0.5 -0.3
v 0 2.5 -0.4
v -0.2 2.5 -0.4
v -0.2 2.5 -0.3
v 0 2.5 -0.3
v -0.2 2.4 -0.4
v -0.3 2.4 -0.4
v -0.3 2.4 -0.3
v -0.3 2.3 -0.4
v -0.4 2.3 -0.4
v -0.4 2.3 -0.3
v -0.3 2.3 -0.3
v -0.5 0.5 -0.4
v -0.6 0.5 -0.4
v -0.6 0.5 -0.3
v -0.5 0.5 -0.3
v 0 2.1 -0.5
v -0.1 2.1 -0.5
v 0 2.1 0.6
v -0.2 2.1 -0.5
v -0.1 2.1 0.1
v -0.3 2.1 -0.5
v -0.3 2.1 -0.4
v -0.2 2.1 -0.4
v -0.3 2.2 -0.5
v -0.4 2.2 -0.5
v -0.4 2.2 -0.4
v -0.3 2.2 -0.4
v 0.4 2.1 -0.6
v 0.3 2.1 -0.6
v 0.3 2.1 0.6
v 0.4 2.1 0.6
v 0.2 2.1 -0.6
v 0.3 2.1 0.5
v 0 2.2 -0.6
v -0.3 2.2 -0.6
v 0 2.2 -0.5
v -0.3 2.1 -0.6
v -0.4 2.1 -0.6
v -0.4 2.1 -0.5
v 0.7 2.1 -0.7
v 0.6 2.1 -0.7
v 0.6 2.1 -0.4
v 0.7 2.1 -0.4
v 0.4 2.1 -0.7
v 0.6 2.1 0.4
v 0.2 2.1 -0.7
v 0 2.1 -0.7
v 0 2.1 0.3
v 0.2 2.1 0.3
v -0.2 2.1 -0.7
v -0.2 2.1 -0.6
v 0 2.1 -0.6
v -0.4 2.1 -0.7
v -0.6 2.1 -0.7
v -0.4 2.1 0.7
v -0.7 2.1 -0.7
v -0.7 2.1 -0.4
v -0.6 2.1 -0.4
v 1.1 0.5 -1.1
v 0.6 0.5 -1.1
v 1.1 0.5 1.1
v 0.4 0.5 -1.1
v 0.4 0.5 -0.6
v 0.6 0.5 -0.6
v 0.3 0.5 -1.1
v 0.3 0.5 -0.5
v 0.4 0.5 -0.5
v 0.2 0.5 -1.1
v 0.2 0.5 -0.6
v 0.3 0.5 -0.6
v 0.1 0.5 -1.1
v 0.1 0.5 -0.5
v 0.2 0.5 -0.5
v -0.1 0.5 -1.1
v -0.1 0.5 -0.6
v 0.1 0.5 -0.6
v -0.2 0.5 -1.1
v -0.2 0.5 -0.5
v -0.1 0.5 -0.5
v -0.3 0.5 -1.1
v -0.3 0.5 -0.6
v -0.2 0.5 -0.6
v -0.4 0.5 -1.1
v -0.4 0.5 -0.5
v -0.3 0.5 -0.5
v -0.6 0.5 -1.1
v -0.6 0.5 -0.6
v -0.4 0.5 -0.6
v -1.1 0.5 -1.1
v -0.6 0.5 0.6
v 1.2 0.4 -1.2
v 1.1 0.4 -1.2
v 1.2 0.4 1.2
v -1.1 0.4 -1.2
v -1.1 0.4 -1.1
v 1.1 0.4 -1.1
v -1.2 0.4 -1.2
v -1.1 0.4 1.1
v 1.3 0.3 -1.3
v 1.2 0.3 -1.3
v 1.3 0.3 1.3
v -1.2 0.3 -1.3
v -1.2 0.3 -1.2
v 1.2 0.3 -1.2
v -1.3 0.3 -1.3
v -1.2 0.3 1.2
v 1.4 0.2 -1.4
v 1.3 0.2 -1.4
v 1.4 0.2 1.4
v -1.3 0.2 -1.4
v -1.3 0.2 -1.3
v 1.3 0.2 -1.3
v -1.4 0.2 -1.4
v -1.3 0.2 1.3
v 1.5 0.1 -1.5
v 1.4 0.1 -1.5
v 1.5 0.1 1.5
v -1.4 0.1 -1.5
v -1.4 0.1 -1.4
v 1.4 0.1 -1.4
v -1.5 0.1 -1.5
v -1.4 0.1 1.4
v 0 3.3 0.7
v 0 3.3 0.8
v -0.1 3.3 0.8
v -0.1 3.3 0.7
v 0.6 2 0.6
v 0.6 2 0.7
v 0.4 2 0.7
v 0.4 2 0.6
v 0.1 2 0.6
v 0.1 2 0.7
v -0.2 2 0.7
v -0.2 2 0.6
v 0.1 3.6 0.7
v -0.2 3.6 0.7
v -0.4 2 0.6
v -0.4 2 0.7
v -0.7 2 0.7
v -0.7 2 0.6
v 0.4 2 0.5
v 0.3 2 0.6
v 0.3 2 0.5
v 0.2 2 0.5
v 0.2 2 0.7
v 0.1 2 0.5
v 0.2 3.6 0.6
v 0.2 2.3 0.5
v 0.2 2.3 0.6
v 0 2.3 0.6
v 0 2.3 0.5
v 0.1 3.5 0.5
v 0.1 3.5 0.6
v 0 3.5 0.6
v 0 3.5 0.5
v 0 3.2 0.5
v 0 3.2 0.7
v -0.1 3.2 0.7
v -0.1 3.2 0.5
v -0.1 2 0.5
v -0.1 2 0.6
v -0.2 2 0.5
v -0.1 3.5 0.5
v -0.1 3.5 0.6
v -0.2 3.5 0.6
v -0.2 3.5 0.5
v -0.3 3.6 0.6
v -0.3 2 0.5
v -0.3 2 0.6
v -0.4 2 0.5
v 0.7 2 0.4
v 0.7 2 0.7
v 0.6 2 0.4
v 0.1 3.3 0.4
v 0.1 3.3 0.6
v 0 3.3 0.6
v 0 3.3 0.4
v 0 3.1 0.4
v 0 3.1 0.5
v -0.1 3.1 0.5
v -0.1 3.1 0.4
v -0.1 3.3 0.4
v -0.1 3.3 0.6
v -0.2 3.3 0.6
v -0.2 3.3 0.4
v -0.6 2 0.4
v -0.6 2 0.6
v -0.7 2 0.4
v 0.6 2 0.3
v 0.5 2 0.4
v 0.5 2 0.3
v 0.2 3.5 0.3
v 0.2 3.5 0.5
v 0.1 3.5 0.3
v 0.2 2.4 0.3
v 0.2 2.4 0.4
v 0 2.4 0.4
v 0 2.4 0.3
v 0.1 2.9 0.3
v 0.1 2.9 0.4
v 0 2.9 0.4
v 0 2.9 0.3
v 0 2.6 0.3
v 0 2.6 0.4
v -0.1 2.6 0.4
v -0.1 2.6 0.3
v -0.1 2.9 0.3
v -0.1 2.9 0.4
v -0.2 2.9 0.4
v -0.2 2.9 0.3
v -0.1 2.4 0.3
v -0.1 2.4 0.4
v -0.3 2.4 0.4
v -0.3 2.4 0.3
v -0.2 3.5 0.3
v -0.3 3.5 0.5
v -0.3 3.5 0.3
v -0.5 2 0.3
v -0.5 2 0.4
v -0.6 2 0.3
v 0.7 2.8 0.2
v 0.7 2.8 0.3
v 0.6 2.8 0.3
v 0.6 2.8 0.2
v 0.2 3 0.3
v 0.2 3 0.2
v 0.3 3.6 0.2
v 0.3 3.6 0.5
v 0.2 3.4 0.2
v 0.2 3.4 0.3
v 0.1 3.4 0.3
v -0.1 2.3 0.2
v -0.1 2.3 0.3
v -0.3 2.3 0.3
v -0.3 2.3 0.2
v -0.2 3.4 0.3
v -0.3 3.4 0.3
v -0.3 3.4 0.2
v -0.4 3.6 0.5
v -0.4 3.6 0.2
v -0.3 3 0.2
v -0.3 3 0.3
v -0.7 2.8 0.2
v -0.7 2.8 0.3
v -0.8 2.8 0.3
v -0.8 2.8 0.2
v 0.6 2 0.1
v 0.6 2 0.2
v 0.5 2 0.2
v 0.5 2 0.1
v 0.5 2.9 0.2
v 0.5 2.9 0.1
v 0.4 2.9 0.1
v 0.4 2.9 0.2
v 0.2 2.9 0.2
v 0.2 2.9 0.1
v 0.3 3.4 0.1
v 0.3 3.4 0.2
v 0.2 3.4 0.1
v 0.2 3.6 0.1
v 0.3 2.5 0.1
v 0.3 2.5 0.3
v -0.1 2.5 0.1
v 0.1 3.5 0.1
v 0.1 3.5 0.2
v -0.2 3.5 0.2
v -0.2 3.5 0.1
v -0.3 3.6 0.1
v -0.3 2.5 0.1
v -0.4 2.5 0.3
v -0.4 2.5 0.1
v -0.3 3.4 0.1
v -0.4 3.4 0.2
v -0.4 3.4 0.1
v -0.3 2.9 0.1
v -0.3 2.9 0.2
v -0.5 2.9 0.2
v -0.5 2.9 0.1
v -0.5 2 0.1
v -0.5 2 0.2
v -0.7 2 0.2
v -0.7 2 0.1
v -0.6 2.9 0.1
v -0.6 2.9 0.2
v 0.7 2.8 0
v 0.7 2.8 0.1
v 0.6 2.8 0.1
v 0.6 2.8 0
v 0.5 2.9 0
v 0.5 2.9 0.3
v 0.4 2.9 0.3
v 0.4 2.9 0
v 0.3 2.6 0
v 0.3 2.6 0.1
v 0.2 2.6 0.1
v 0.2 2.6 0
v 0.2 3 0.1
v 0.2 3 0
v 0.2 2.5 0
v 0.2 2.5 0.1
v 0 2.5 0.1
v 0 2.5 0
v 0.1 3.6 0
v -0.2 3.6 0
v -0.1 2.2 0
v -0.1 2.2 0.1
v -0.3 2.2 0.1
v -0.3 2.2 0
v -0.1 2.5 0
v -0.1 2.5 0.2
v -0.3 2.5 0.2
v -0.3 2.5 0
v -0.3 2.6 0
v -0.3 2.6 0.1
v -0.4 2.6 0.1
v -0.4 2.6 0
v -0.3 3 0
v -0.3 3 0.1
v -0.5 2.9 0
v -0.5 2.9 0.3
v -0.6 2.9 0.3
v -0.6 2.9 0
v -0.7 2.8 0
v -0.7 2.8 0.1
v -0.8 2.8 0.1
v -0.8 2.8 0
v 0.2 2.6 -0.1
v 0.1 2.6 0
v 0.1 2.4 -0.1
v 0.1 2.4 0
v 0 2.4 0
v 0 2.4 -0.1
v 0 2.4 0.1
v -0.1 2.4 -0.1
v -0.1 2.4 0
v -0.2 2.4 0
v -0.2 2.4 -0.1
v -0.2 2.6 0
v -0.3 2.6 -0.1
v 0.7 2 -0.2
v 0.7 2 0.2
v 0.6 2 -0.2
v 0.6 2 -0.1
v 0.5 2 -0.1
v 0.5 2 -0.2
v 0.1 2.5 -0.2
v 0.1 2.5 -0.1
v 0 2.5 -0.1
v 0 2.5 -0.2
v -0.1 2.5 -0.2
v -0.1 2.5 -0.1
v -0.2 2.5 -0.1
v -0.2 2.5 -0.2
v -0.5 2 -0.2
v -0.5 2 -0.1
v -0.6 2 -0.1
v -0.6 2 -0.2
v -0.6 2 0.1
v -0.7 2 -0.2
v -0.1 2.3 -0.3
v -0.1 2.3 -0.2
v -0.2 2.3 -0.2
v -0.2 2.3 -0.3
v 0.6 2 -0.4
v 0.6 2 -0.3
v 0.5 2 -0.3
v 0.5 2 -0.4
v 0 2.3 -0.4
v 0 2.3 -0.1
v -0.1 2.3 -0.1
v -0.1 2.3 -0.4
v -0.1 2.2 -0.4
v -0.1 2.2 -0.3
v -0.2 2.2 -0.3
v -0.2 2.2 -0.4
v -0.5 2 -0.4
v -0.5 2 -0.3
v -0.6 2 -0.3
v -0.6 2 -0.4
v 0.4 2 -0.6
v 0.4 2 -0.5
v 0.3 2 -0.5
v 0.3 2 -0.6
v -0.3 2 -0.6
v -0.3 2 -0.5
v -0.4 2 -0.5
v -0.4 2 -0.6
v 0.7 2 -0.7
v 0.7 2 -0.4
v 0.6 2 -0.7
v 0.6 2 -0.6
v 0.4 2 -0.7
v 0.2 2 -0.7
v 0.2 2 -0.5
v 0.1 2 -0.5
v 0.1 2 -0.7
v 0.1 2 -0.6
v -0.1 2 -0.6
v -0.1 2 -0.7
v -0.1 2 -0.5
v -0.2 2 -0.5
v -0.2 2 -0.7
v -0.4 2 -0.7
v -0.6 2 -0.6
v -0.6 2 -0.7
v -0.7 2 -0.4
v -0.7 2 -0.7
v 1.5 0 -1.5
v 1.5 0 1.5
v -1.5 0 1.5
v -1.5 0 -1.5
v 0.2 2 0.6
v -0.6 2 0.2
v 0.2 2 -0.6
v -0.2 2 -0.6
v 0.2 2.1 0.6
v 0 2.2 0.3
v -0.4 2.1 -0.4
v 0 2.2 0.4
v 0 2.7 0.4
v -0.1 3.3 0.5
v -0.1 3.2 0.6
v -0.2 3.4 0.4
v -0.2 3.5 0.4
v 0.2 2.2 0.3
v 0.2 2.2 0.4
v 0.2 2.7 0.4
v 0 3.2 0.6
v 0 3.3 0.5
v 0.1 3.4 0.4
v 0.1 3.5 0.4
v 0.1 2.5 0
v 0.1 3 0
v 0.1 3.1 0
v 0 2.5 0.3
v 0.2 2.5 0.3
v 0 2.7 -0.1
v 0 3.2 -0.1
v -0.1 2.5 -0.3
v 0 2.4 -0.4
v -0.2 2.8 -0.1
v -0.1 2.7 -0.1
v -0.2 2.5 0
v 0.2 2.9 0.3
v 0.1 3 0.3
v 0.1 3.1 0.3
v 0.1 3.1 0.4
v -0.2 3.1 0.4
v -0.1 2.7 0.3
v -0.3 2.9 0.3
v -0.4 2.2 -0.3
v -0.4 2.6 0.3

vt 0.00195313 0.5
vt 0.0332031 0.5
vt 0.0371094 0.5
vt 0.0410156 0.5
vt 0.0683594 0.5

vn 0 1 0
vn 0 -1 0
vn -1 0 0
vn 1 0 0
vn 0 0 -1
vn 0 0 1

usemtl palette
f 1/3/1 2/3/1 4/3/1
f 4/3/1 2/3/1 3/3/1
f 5/3/1 6/3/1 8/3/1
f 8/3/1 6/3/1 7/3/1
f 9/3/1 10/3/1 12/3/1
f 12/3/1 10/3/1 11/3/1
f 13/3/1 14/3/1 16/3/1
f 16/3/1 14/3/1 15/3/1
f 17/5/1 18/5/1 20/5/1
f 20/5/1 18/5/1 19/5/1
f 21/3/1 22/3/1 17/3/1
f 17/3/1 22/3/1 18/3/1
f 23/5/1 24/5/1 26/5/1
f 26/5/1 24/5/1 25/5/1
f 27/4/1 28/4/1 30/4/1
f 30/4/1 28/4/1 29/4/1
f 31/3/1 32/3/1 34/3/1
f 34/3/1 32/3/1 33/3/1
f 35/3/1 36/3/1 38/3/1
f 38/3/1 36/3/1 37/3/1
f 39/4/1 40/4/1 42/4/1
f 42/4/1 40/4/1 41/4/1
f 43/3/1 44/3/1 46/3/1
f 46/3/1 44/3/1 45/3/1
f 47/5/1 48/5/1 49/5/1
f 49/5/1 48/5/1 26/5/1
f 50/4/1 51/4/1 52/4/1
f 52/4/1 51/4/1 27/4/1
f 53/4/1 54/4/1 56/4/1
f 56/4/1 54/4/1 55/4/1
f 57/3/1 58/3/1 60/3/1
f 60/3/1 58/3/1 59/3/1
f 61/3/1 62/3/1 63/3/1
f 63/3/1 62/3/1 21/3/1
f 64/3/1 65/3/1 67/3/1
f 67/3/1 65/3/1 66/3/1
f 68/3/1 69/3/1 22/3/1
f 22/3/1 69/3/1 70/3/1
f 71/4/1 72/4/1 74/4/1
f 74/4/1 72/4/1 73/4/1
f 75/4/1 76/4/1 28/4/1
f 28/4/1 76/4/1 77/4/1
f 78/3/1 79/3/1 81/3/1
f 81/3/1 79/3/1 80/3/1
f 82/5/1 83/5/1 85/5/1
f 85/5/1 83/5/1 84/5/1
f 86/4/1 87/4/1 51/4/1
f 51/4/1 87/4/1 88/4/1
f 89/4/1 90/4/1 92/4/1
f 92/4/1 90/4/1 91/4/1
f 93/4/1 94/4/1 95/4/1
f 95/4/1 94/4/1 75/4/1
f 96/5/1 97/5/1 99/5/1
f 99/5/1 97/5/1 98/5/1
f 100/3/1 101/3/1 103/3/1
f 103/3/1 101/3/1 102/3/1
f 104/3/1 105/3/1 107/3/1
f 107/3/1 105/3/1 106/3/1
f 108/3/1 109/3/1 111/3/1
f 111/3/1 109/3/1 110/3/1
f 112/4/1 113/4/1 114/4/1
f 114/4/1 113/4/1 89/4/1
f 115/4/1 116/4/1 118/4/1
f 118/4/1 116/4/1 117/4/1
f 119/4/1 120/4/1 90/4/1
f 90/4/1 120/4/1 121/4/1
f 122/3/1 123/3/1 125/3/1
f 125/3/1 123/3/1 124/3/1
f 126/5/1 127/5/1 129/5/1
f 129/5/1 127/5/1 128/5/1
f 130/3/1 131/3/1 133/3/1
f 133/3/1 131/3/1 132/3/1
f 134/4/1 135/4/1 137/4/1
f 137/4/1 135/4/1 136/4/1
f 138/3/1 139/3/1 141/3/1
f 141/3/1 139/3/1 140/3/1
f 142/3/1 143/3/1 144/3/1
f 144/3/1 143/3/1 108/3/1
f 145/3/1 146/3/1 148/3/1
f 148/3/1 146/3/1 147/3/1
f 149/4/1 150/4/1 151/4/1
f 151/4/1 150/4/1 50/4/1
f 152/3/1 153/3/1 155/3/1
f 155/3/1 153/3/1 154/3/1
f 156/4/1 157/4/1 158/4/1
f 158/4/1 157/4/1 71/4/1
f 159/4/1 160/4/1 162/4/1
f 162/4/1 160/4/1 161/4/1
f 163/4/1 164/4/1 113/4/1
f 113/4/1 164/4/1 119/4/1
f 165/4/1 166/4/1 168/4/1
f 168/4/1 166/4/1 167/4/1
f 169/4/1 170/4/1 172/4/1
f 172/4/1 170/4/1 171/4/1
f 173/5/1 174/5/1 176/5/1
f 176/5/1 174/5/1 175/5/1
f 177/3/1 178/3/1 180/3/1
f 180/3/1 178/3/1 179/3/1
f 181/4/1 182/4/1 72/4/1
f 72/4/1 182/4/1 183/4/1
f 184/4/1 185/4/1 187/4/1
f 187/4/1 185/4/1 186/4/1
f 188/3/1 189/3/1 191/3/1
f 191/3/1 189/3/1 190/3/1
f 192/4/1 193/4/1 76/4/1
f 76/4/1 193/4/1 194/4/1
f 195/3/1 196/3/1 198/3/1
f 198/3/1 196/3/1 197/3/1
f 199/3/1 200/3/1 202/3/1
f 202/3/1 200/3/1 201/3/1
f 203/4/1 204/4/1 206/4/1
f 206/4/1 204/4/1 205/4/1
f 207/3/1 208/3/1 210/3/1
f 210/3/1 208/3/1 209/3/1
f 211/4/1 212/4/1 213/4/1
f 213/4/1 212/4/1 138/4/1
f 214/3/1 215/3/1 217/3/1
f 217/3/1 215/3/1 216/3/1
f 218/3/1 219/3/1 221/3/1
f 221/3/1 219/3/1 220/3/1
f 222/3/1 223/3/1 224/3/1
f 224/3/1 223/3/1 152/3/1
f 225/5/1 226/5/1 228/5/1
f 228/5/1 226/5/1 227/5/1
f 229/3/1 230/3/1 232/3/1
f 232/3/1 230/3/1 231/3/1
f 233/4/1 234/4/1 150/4/1
f 150/4/1 234/4/1 159/4/1
f 235/3/1 236/3/1 238/3/1
f 238/3/1 236/3/1 237/3/1
f 239/4/1 240/4/1 157/4/1
f 157/4/1 240/4/1 181/4/1
f 241/3/1 242/3/1 244/3/1
f 244/3/1 242/3/1 243/3/1
f 245/3/1 246/3/1 248/3/1
f 248/3/1 246/3/1 247/3/1
f 249/4/1 250/4/1 170/4/1
f 170/4/1 250/4/1 192/4/1
f 251/3/1 252/3/1 254/3/1
f 254/3/1 252/3/1 253/3/1
f 255/5/1 256/5/1 258/5/1
f 258/5/1 256/5/1 257/5/1
f 259/3/1 260/3/1 178/3/1
f 178/3/1 260/3/1 261/3/1
f 262/3/1 263/3/1 265/3/1
f 265/3/1 263/3/1 264/3/1
f 266/3/1 267/3/1 196/3/1
f 196/3/1 267/3/1 268/3/1
f 269/4/1 270/4/1 200/4/1
f 200/4/1 270/4/1 271/4/1
f 272/4/1 273/4/1 275/4/1
f 275/4/1 273/4/1 274/4/1
f 276/3/1 277/3/1 212/3/1
f 212/3/1 277/3/1 278/3/1
f 279/3/1 280/3/1 281/3/1
f 281/3/1 280/3/1 148/3/1
f 282/3/1 283/3/1 285/3/1
f 285/3/1 283/3/1 284/3/1
f 280/3/1 286/3/1 288/3/1
f 288/3/1 286/3/1 287/3/1
f 289/3/1 290/3/1 223/3/1
f 223/3/1 290/3/1 291/3/1
f 292/3/1 293/3/1 230/3/1
f 230/3/1 293/3/1 245/3/1
f 294/4/1 295/4/1 234/4/1
f 234/4/1 295/4/1 249/4/1
f 296/3/1 297/3/1 299/3/1
f 299/3/1 297/3/1 298/3/1
f 300/3/1 301/3/1 302/3/1
f 302/3/1 301/3/1 259/3/1
f 303/3/1 304/3/1 306/3/1
f 306/3/1 304/3/1 305/3/1
f 307/3/1 308/3/1 309/3/1
f 309/3/1 308/3/1 266/3/1
f 310/3/1 311/3/1 312/3/1
f 312/3/1 311/3/1 269/3/1
f 313/4/1 314/4/1 316/4/1
f 316/4/1 314/4/1 315/4/1
f 317/3/1 318/3/1 283/3/1
f 283/3/1 318/3/1 319/3/1
f 320/3/1 321/3/1 290/3/1
f 290/3/1 321/3/1 300/3/1
f 322/3/1 323/3/1 324/3/1
f 324/3/1 323/3/1 303/3/1
f 325/5/1 326/5/1 328/5/1
f 328/5/1 326/5/1 327/5/1
f 329/3/1 330/3/1 332/3/1
f 332/3/1 330/3/1 331/3/1
f 333/4/1 334/4/1 336/4/1
f 336/4/1 334/4/1 335/4/1
f 337/4/1 338/4/1 340/4/1
f 340/4/1 338/4/1 339/4/1
f 341/4/1 342/4/1 344/4/1
f 344/4/1 342/4/1 343/4/1
f 345/3/1 346/3/1 348/3/1
f 348/3/1 346/3/1 347/3/1
f 349/5/1 350/5/1 352/5/1
f 352/5/1 350/5/1 351/5/1
f 353/4/1 354/4/1 334/4/1
f 334/4/1 354/4/1 341/4/1
f 355/4/1 356/4/1 358/4/1
f 358/4/1 356/4/1 357/4/1
f 359/5/1 360/5/1 362/5/1
f 362/5/1 360/5/1 361/5/1
f 360/5/1 363/5/1 174/5/1
f 174/5/1 363/5/1 364/5/1
f 365/3/1 366/3/1 368/3/1
f 368/3/1 366/3/1 367/3/1
f 369/4/1 370/4/1 372/4/1
f 372/4/1 370/4/1 371/4/1
f 373/4/1 374/4/1 356/4/1
f 356/4/1 374/4/1 375/4/1
f 376/4/1 377/4/1 379/4/1
f 379/4/1 377/4/1 378/4/1
f 380/3/1 381/3/1 383/3/1
f 383/3/1 381/3/1 382/3/1
f 384/5/1 385/5/1 386/5/1
f 386/5/1 385/5/1 129/5/1
f 385/5/1 387/5/1 388/5/1
f 388/5/1 387/5/1 362/5/1
f 387/5/1 389/5/1 391/5/1
f 391/5/1 389/5/1 390/5/1
f 392/4/1 393/4/1 395/4/1
f 395/4/1 393/4/1 394/4/1
f 396/5/1 397/5/1 399/5/1
f 399/5/1 397/5/1 398/5/1
f 397/5/1 400/5/1 401/5/1
f 401/5/1 400/5/1 47/5/1
f 402/4/1 403/4/1 404/4/1
f 404/4/1 403/4/1 392/4/1
f 405/5/1 406/5/1 389/5/1
f 389/5/1 406/5/1 407/5/1
f 408/5/1 409/5/1 411/5/1
f 411/5/1 409/5/1 410/5/1
f 409/5/1 412/5/1 413/5/1
f 413/5/1 412/5/1 83/5/1
f 414/5/1 415/5/1 417/5/1
f 417/5/1 415/5/1 416/5/1
f 415/5/1 418/5/1 420/5/1
f 420/5/1 418/5/1 419/5/1
f 421/5/1 422/5/1 423/5/1
f 423/5/1 422/5/1 99/5/1
f 422/5/1 424/5/1 426/5/1
f 426/5/1 424/5/1 425/5/1
f 427/3/1 428/3/1 429/3/1
f 429/3/1 428/3/1 34/3/1
f 428/3/1 430/3/1 432/3/1
f 432/3/1 430/3/1 431/3/1
f 430/3/1 433/3/1 435/3/1
f 435/3/1 433/3/1 434/3/1
f 433/3/1 436/3/1 438/3/1
f 438/3/1 436/3/1 437/3/1
f 436/3/1 439/3/1 441/3/1
f 441/3/1 439/3/1 440/3/1
f 439/3/1 442/3/1 444/3/1
f 444/3/1 442/3/1 443/3/1
f 442/3/1 445/3/1 447/3/1
f 447/3/1 445/3/1 446/3/1
f 445/3/1 448/3/1 450/3/1
f 450/3/1 448/3/1 449/3/1
f 448/3/1 451/3/1 453/3/1
f 453/3/1 451/3/1 452/3/1
f 451/3/1 454/3/1 456/3/1
f 456/3/1 454/3/1 455/3/1
f 454/3/1 457/3/1 458/3/1
f 458/3/1 457/3/1 32/3/1
f 459/3/1 460/3/1 461/3/1
f 461/3/1 460/3/1 16/3/1
f 460/3/1 462/3/1 464/3/1
f 464/3/1 462/3/1 463/3/1
f 462/3/1 465/3/1 466/3/1
f 466/3/1 465/3/1 14/3/1
f 467/3/1 468/3/1 469/3/1
f 469/3/1 468/3/1 12/3/1
f 468/3/1 470/3/1 472/3/1
f 472/3/1 470/3/1 471/3/1
f 470/3/1 473/3/1 474/3/1
f 474/3/1 473/3/1 10/3/1
f 475/3/1 476/3/1 477/3/1
f 477/3/1 476/3/1 8/3/1
f 476/3/1 478/3/1 480/3/1
f 480/3/1 478/3/1 479/3/1
f 478/3/1 481/3/1 482/3/1
f 482/3/1 481/3/1 6/3/1
f 483/3/1 484/3/1 485/3/1
f 485/3/1 484/3/1 4/3/1
f 484/3/1 486/3/1 488/3/1
f 488/3/1 486/3/1 487/3/1
f 486/3/1 489/3/1 490/3/1
f 490/3/1 489/3/1 2/3/1
f 491/5/2 492/5/2 494/5/2
f 494/5/2 492/5/2 493/5/2
f 495/5/2 496/5/2 498/5/2
f 498/5/2 496/5/2 497/5/2
f 499/5/2 500/5/2 502/5/2
f 502/5/2 500/5/2 501/5/2
f 74/4/2 503/4/2 73/4/2
f 73/4/2 503/4/2 504/4/2
f 505/5/2 506/5/2 508/5/2
f 508/5/2 506/5/2 507/5/2
f 509/5/2 498/5/2 511/5/2
f 511/5/2 498/5/2 510/5/2
f 512/5/2 513/5/2 514/5/2
f 514/5/2 513/5/2 500/5/2
f 158/4/2 515/4/2 71/4/2
f 71/4/2 515/4/2 74/4/2
f 516/3/2 517/3/2 519/3/2
f 519/3/2 517/3/2 518/3/2
f 520/4/2 521/4/2 523/4/2
f 523/4/2 521/4/2 522/4/2
f 524/3/2 525/3/2 527/3/2
f 527/3/2 525/3/2 526/3/2
f 528/5/2 529/5/2 530/5/2
f 530/5/2 529/5/2 502/5/2
f 531/4/2 532/4/2 534/4/2
f 534/4/2 532/4/2 533/4/2
f 72/4/2 73/4/2 183/4/2
f 183/4/2 73/4/2 535/4/2
f 536/5/2 537/5/2 538/5/2
f 538/5/2 537/5/2 505/5/2
f 539/5/2 540/5/2 541/5/2
f 541/5/2 540/5/2 496/5/2
f 542/3/2 543/3/2 545/3/2
f 545/3/2 543/3/2 544/3/2
f 546/3/2 547/3/2 549/3/2
f 549/3/2 547/3/2 548/3/2
f 550/3/2 551/3/2 553/3/2
f 553/3/2 551/3/2 552/3/2
f 554/5/2 555/5/2 556/5/2
f 556/5/2 555/5/2 508/5/2
f 557/5/2 541/5/2 559/5/2
f 559/5/2 541/5/2 558/5/2
f 560/4/2 561/4/2 562/4/2
f 562/4/2 561/4/2 520/4/2
f 563/3/2 564/3/2 566/3/2
f 566/3/2 564/3/2 565/3/2
f 567/3/2 568/3/2 570/3/2
f 570/3/2 568/3/2 569/3/2
f 571/3/2 572/3/2 574/3/2
f 574/3/2 572/3/2 573/3/2
f 575/3/2 576/3/2 578/3/2
f 578/3/2 576/3/2 577/3/2
f 579/3/2 580/3/2 582/3/2
f 582/3/2 580/3/2 581/3/2
f 583/4/2 534/4/2 585/4/2
f 585/4/2 534/4/2 584/4/2
f 586/5/2 587/5/2 588/5/2
f 588/5/2 587/5/2 554/5/2
f 589/4/2 590/4/2 592/4/2
f 592/4/2 590/4/2 591/4/2
f 139/3/2 140/3/2 594/3/2
f 594/3/2 140/3/2 593/3/2
f 595/4/2 596/4/2 156/4/2
f 156/4/2 596/4/2 158/4/2
f 597/5/2 598/5/2 238/5/2
f 238/5/2 598/5/2 599/5/2
f 600/3/2 601/3/2 603/3/2
f 603/3/2 601/3/2 602/3/2
f 237/5/2 604/5/2 606/5/2
f 606/5/2 604/5/2 605/5/2
f 182/4/2 183/4/2 608/4/2
f 608/4/2 183/4/2 607/4/2
f 609/3/2 610/3/2 199/3/2
f 199/3/2 610/3/2 202/3/2
f 611/4/2 612/4/2 614/4/2
f 614/4/2 612/4/2 613/4/2
f 615/5/2 616/5/2 618/5/2
f 618/5/2 616/5/2 617/5/2
f 274/4/2 135/4/2 620/4/2
f 620/4/2 135/4/2 619/4/2
f 621/3/2 622/3/2 624/3/2
f 624/3/2 622/3/2 623/3/2
f 625/5/2 626/5/2 627/5/2
f 627/5/2 626/5/2 597/5/2
f 628/4/2 156/4/2 239/4/2
f 239/4/2 156/4/2 157/4/2
f 629/3/2 630/3/2 631/3/2
f 631/3/2 630/3/2 122/3/2
f 632/4/2 633/4/2 635/4/2
f 635/4/2 633/4/2 634/4/2
f 240/4/2 181/4/2 636/4/2
f 636/4/2 181/4/2 182/4/2
f 637/3/2 123/3/2 639/3/2
f 639/3/2 123/3/2 638/3/2
f 640/5/2 606/5/2 642/5/2
f 642/5/2 606/5/2 641/5/2
f 643/3/2 644/3/2 646/3/2
f 646/3/2 644/3/2 645/3/2
f 647/5/2 648/5/2 650/5/2
f 650/5/2 648/5/2 649/5/2
f 651/4/2 652/4/2 316/4/2
f 316/4/2 652/4/2 203/4/2
f 653/4/2 654/4/2 656/4/2
f 656/4/2 654/4/2 655/4/2
f 657/3/2 658/3/2 660/3/2
f 660/3/2 658/3/2 659/3/2
f 661/3/2 662/3/2 664/3/2
f 664/3/2 662/3/2 663/3/2
f 277/3/2 278/3/2 666/3/2
f 666/3/2 278/3/2 665/3/2
f 667/3/2 668/3/2 670/3/2
f 670/3/2 668/3/2 669/3/2
f 671/4/2 239/4/2 672/4/2
f 672/4/2 239/4/2 240/4/2
f 673/3/2 674/3/2 676/3/2
f 676/3/2 674/3/2 675/3/2
f 677/3/2 678/3/2 680/3/2
f 680/3/2 678/3/2 679/3/2
f 681/3/2 682/3/2 684/3/2
f 684/3/2 682/3/2 683/3/2
f 685/3/2 686/3/2 310/3/2
f 310/3/2 686/3/2 312/3/2
f 687/3/2 688/3/2 690/3/2
f 690/3/2 688/3/2 689/3/2
f 691/4/2 692/4/2 694/4/2
f 694/4/2 692/4/2 693/4/2
f 695/3/2 664/3/2 336/3/2
f 336/3/2 664/3/2 696/3/2
f 697/3/2 698/3/2 700/3/2
f 700/3/2 698/3/2 699/3/2
f 700/3/2 701/3/2 702/3/2
f 702/3/2 701/3/2 241/3/2
f 702/3/2 703/3/2 705/3/2
f 705/3/2 703/3/2 704/3/2
f 343/3/2 706/3/2 707/3/2
f 707/3/2 706/3/2 681/3/2
f 708/5/2 709/5/2 710/5/2
f 710/5/2 709/5/2 616/5/2
f 710/5/2 711/5/2 713/5/2
f 713/5/2 711/5/2 712/5/2
f 714/4/2 715/4/2 717/4/2
f 717/4/2 715/4/2 716/4/2
f 718/4/2 719/4/2 721/4/2
f 721/4/2 719/4/2 720/4/2
f 722/5/2 723/5/2 725/5/2
f 725/5/2 723/5/2 724/5/2
f 725/5/2 726/5/2 727/5/2
f 727/5/2 726/5/2 650/5/2
f 728/4/2 729/4/2 731/4/2
f 731/4/2 729/4/2 730/4/2
f 732/5/2 733/5/2 735/5/2
f 735/5/2 733/5/2 734/5/2
f 736/4/2 737/4/2 739/4/2
f 739/4/2 737/4/2 738/4/2
f 740/4/2 741/4/2 743/4/2
f 743/4/2 741/4/2 742/4/2
f 744/5/2 745/5/2 747/5/2
f 747/5/2 745/5/2 746/5/2
f 748/5/2 749/5/2 751/5/2
f 751/5/2 749/5/2 750/5/2
f 752/5/2 753/5/2 755/5/2
f 755/5/2 753/5/2 754/5/2
f 756/5/2 757/5/2 758/5/2
f 758/5/2 757/5/2 732/5/2
f 758/5/2 759/5/2 760/5/2
f 760/5/2 759/5/2 748/5/2
f 761/5/2 762/5/2 764/5/2
f 764/5/2 762/5/2 763/5/2
f 764/5/2 765/5/2 767/5/2
f 767/5/2 765/5/2 766/5/2
f 767/5/2 768/5/2 770/5/2
f 770/5/2 768/5/2 769/5/2
f 771/5/2 755/5/2 773/5/2
f 773/5/2 755/5/2 772/5/2
f 773/5/2 747/5/2 775/5/2
f 775/5/2 747/5/2 774/5/2
f 776/3/2 777/3/2 779/3/2
f 779/3/2 777/3/2 778/3/2
f 3/3/3 489/3/3 778/3/3
f 778/3/3 489/3/3 779/3/3
f 7/3/3 481/3/3 490/3/3
f 490/3/3 481/3/3 487/3/3
f 11/3/3 473/3/3 482/3/3
f 482/3/3 473/3/3 479/3/3
f 15/3/3 465/3/3 474/3/3
f 474/3/3 465/3/3 471/3/3
f 33/3/3 457/3/3 466/3/3
f 466/3/3 457/3/3 463/3/3
f 498/2/3 509/2/3 38/2/3
f 38/2/3 509/2/3 35/2/3
f 780/2/3 512/2/3 46/2/3
f 46/2/3 512/2/3 43/2/3
f 529/2/3 528/2/3 67/2/3
f 67/2/3 528/2/3 64/2/3
f 537/2/3 536/2/3 81/2/3
f 81/2/3 536/2/3 78/2/3
f 555/2/3 554/2/3 458/2/3
f 458/2/3 554/2/3 132/2/3
f 587/5/3 586/5/3 133/5/3
f 133/5/3 586/5/3 130/5/3
f 588/2/3 781/2/3 131/2/3
f 131/2/3 781/2/3 264/2/3
f 648/5/3 647/5/3 265/5/3
f 265/5/3 647/5/3 262/5/3
f 726/2/3 724/2/3 263/2/3
f 263/2/3 724/2/3 347/2/3
f 723/5/3 722/5/3 348/5/3
f 348/5/3 722/5/3 345/5/3
f 725/2/3 746/2/3 346/2/3
f 346/2/3 746/2/3 382/2/3
f 745/5/3 744/5/3 383/5/3
f 383/5/3 744/5/3 380/5/3
f 749/2/3 748/2/3 435/2/3
f 435/2/3 748/2/3 431/2/3
f 762/2/3 782/2/3 441/2/3
f 441/2/3 782/2/3 437/2/3
f 768/2/3 766/2/3 447/2/3
f 447/2/3 766/2/3 443/2/3
f 753/2/3 752/2/3 453/2/3
f 453/2/3 752/2/3 449/2/3
f 747/2/3 772/2/3 381/2/3
f 381/2/3 772/2/3 455/2/3
f 84/5/3 399/5/3 497/5/3
f 497/5/3 399/5/3 498/5/3
f 25/5/3 24/5/3 501/5/3
f 501/5/3 24/5/3 502/5/3
f 98/5/3 97/5/3 507/5/3
f 507/5/3 97/5/3 556/5/3
f 96/5/3 352/5/3 554/5/3
f 554/5/3 352/5/3 781/5/3
f 351/5/3 350/5/3 649/5/3
f 649/5/3 350/5/3 727/5/3
f 349/5/3 426/5/3 725/5/3
f 725/5/3 426/5/3 747/5/3
f 396/5/3 412/5/3 748/5/3
f 748/5/3 412/5/3 760/5/3
f 419/5/3 418/5/3 783/5/3
f 783/5/3 418/5/3 770/5/3
f 425/5/3 424/5/3 774/5/3
f 774/5/3 424/5/3 775/5/3
f 41/4/3 40/4/3 784/4/3
f 784/4/3 40/4/3 47/4/3
f 55/4/3 785/4/3 386/4/3
f 386/4/3 785/4/3 416/4/3
f 167/4/3 166/4/3 176/4/3
f 176/4/3 166/4/3 173/4/3
f 186/4/3 185/4/3 127/4/3
f 127/4/3 185/4/3 364/4/3
f 184/4/3 675/4/3 174/4/3
f 174/4/3 675/4/3 361/4/3
f 394/4/3 393/4/3 786/4/3
f 786/4/3 393/4/3 407/4/3
f 392/4/3 403/4/3 389/4/3
f 389/4/3 403/4/3 405/4/3
f 106/3/3 105/3/3 787/3/3
f 787/3/3 105/3/3 785/3/3
f 298/3/3 297/3/3 675/3/3
f 675/3/3 297/3/3 676/3/3
f 378/4/3 377/4/3 363/4/3
f 363/4/3 377/4/3 786/4/3
f 243/3/3 242/3/3 184/3/3
f 184/3/3 242/3/3 675/3/3
f 357/4/3 356/4/3 730/4/3
f 730/4/3 356/4/3 731/4/3
f 375/4/3 374/4/3 379/4/3
f 379/4/3 374/4/3 376/4/3
f 59/3/3 58/3/3 518/3/3
f 518/3/3 58/3/3 519/3/3
f 124/3/3 123/3/3 581/3/3
f 581/3/3 123/3/3 582/3/3
f 123/3/3 679/3/3 602/3/3
f 602/3/3 679/3/3 603/3/3
f 631/3/3 677/3/3 241/3/3
f 241/3/3 677/3/3 703/3/3
f 719/4/3 718/4/3 738/4/3
f 738/4/3 718/4/3 729/4/3
f 371/4/3 370/4/3 356/4/3
f 356/4/3 370/4/3 373/4/3
f 572/3/3 571/3/3 565/3/3
f 565/3/3 571/3/3 566/3/3
f 682/3/3 681/3/3 637/3/3
f 637/3/3 681/3/3 680/3/3
f 706/3/3 343/3/3 704/3/3
f 704/3/3 343/3/3 705/3/3
f 343/4/3 342/4/3 720/4/3
f 720/4/3 342/4/3 721/4/3
f 341/4/3 354/4/3 358/4/3
f 358/4/3 354/4/3 355/4/3
f 110/3/3 788/3/3 54/3/3
f 54/3/3 788/3/3 787/3/3
f 190/3/3 305/3/3 638/3/3
f 638/3/3 305/3/3 639/3/3
f 305/3/3 304/3/3 683/3/3
f 683/3/3 304/3/3 684/3/3
f 303/3/3 323/3/3 681/3/3
f 681/3/3 323/3/3 707/3/3
f 253/3/3 252/3/3 189/3/3
f 189/3/3 252/3/3 305/3/3
f 339/4/3 338/4/3 344/4/3
f 344/4/3 338/4/3 341/4/3
f 576/3/3 575/3/3 573/3/3
f 573/3/3 575/3/3 574/3/3
f 136/4/3 135/4/3 591/4/3
f 591/4/3 135/4/3 592/4/3
f 205/4/3 204/4/3 613/4/3
f 613/4/3 204/4/3 614/4/3
f 644/3/3 643/3/3 254/3/3
f 254/3/3 643/3/3 251/3/3
f 274/4/3 273/4/3 655/4/3
f 655/4/3 273/4/3 656/4/3
f 315/4/3 314/4/3 693/4/3
f 693/4/3 314/4/3 694/4/3
f 140/3/3 139/3/3 659/3/3
f 659/3/3 139/3/3 622/3/3
f 610/3/3 609/3/3 191/3/3
f 191/3/3 609/3/3 188/3/3
f 201/3/3 200/3/3 689/3/3
f 689/3/3 200/3/3 652/3/3
f 271/4/3 270/4/3 203/4/3
f 203/4/3 270/4/3 316/4/3
f 278/3/3 277/3/3 621/3/3
f 621/3/3 277/3/3 660/3/3
f 686/3/3 685/3/3 306/3/3
f 306/3/3 685/3/3 303/3/3
f 269/3/3 311/3/3 651/3/3
f 651/3/3 311/3/3 690/3/3
f 197/3/3 196/3/3 202/3/3
f 202/3/3 196/3/3 199/3/3
f 268/3/3 267/3/3 200/3/3
f 200/3/3 267/3/3 269/3/3
f 266/3/3 308/3/3 312/3/3
f 312/3/3 308/3/3 310/3/3
f 179/3/3 178/3/3 198/3/3
f 198/3/3 178/3/3 195/3/3
f 261/3/3 260/3/3 196/3/3
f 196/3/3 260/3/3 266/3/3
f 259/3/3 301/3/3 309/3/3
f 309/3/3 301/3/3 307/3/3
f 300/3/3 321/3/3 324/3/3
f 324/3/3 321/3/3 322/3/3
f 551/3/3 789/3/3 790/3/3
f 790/3/3 789/3/3 527/3/3
f 789/3/3 550/3/3 548/3/3
f 548/3/3 550/3/3 549/3/3
f 247/3/3 246/3/3 178/3/3
f 178/3/3 246/3/3 259/3/3
f 245/3/3 293/3/3 302/3/3
f 302/3/3 293/3/3 300/3/3
f 19/5/3 18/5/3 493/5/3
f 493/5/3 18/5/3 494/5/3
f 18/3/3 22/3/3 526/3/3
f 526/3/3 22/3/3 790/3/3
f 70/3/3 791/3/3 552/3/3
f 552/3/3 791/3/3 553/3/3
f 604/3/3 237/3/3 180/3/3
f 180/3/3 237/3/3 177/3/3
f 237/3/3 236/3/3 248/3/3
f 248/3/3 236/3/3 245/3/3
f 532/3/3 531/3/3 22/3/3
f 22/3/3 531/3/3 68/3/3
f 534/1/3 792/1/3 69/1/3
f 69/1/3 792/1/3 791/1/3
f 792/3/3 583/3/3 577/3/3
f 577/3/3 583/3/3 578/3/3
f 585/5/3 258/5/3 605/5/3
f 605/5/3 258/5/3 606/5/3
f 227/5/3 226/5/3 597/5/3
f 597/5/3 226/5/3 627/5/3
f 257/5/3 256/5/3 641/5/3
f 641/5/3 256/5/3 642/5/3
f 73/4/3 72/4/3 533/4/3
f 533/4/3 72/4/3 534/4/3
f 183/4/3 182/4/3 584/4/3
f 584/4/3 182/4/3 258/4/3
f 181/4/3 240/4/3 634/4/3
f 634/4/3 240/4/3 635/4/3
f 29/4/3 28/4/3 504/4/3
f 504/4/3 28/4/3 73/4/3
f 27/4/3 51/4/3 74/4/3
f 74/4/3 51/4/3 71/4/3
f 77/4/3 76/4/3 535/4/3
f 535/4/3 76/4/3 183/4/3
f 50/4/3 150/4/3 158/4/3
f 158/4/3 150/4/3 156/4/3
f 75/4/3 170/4/3 72/4/3
f 72/4/3 170/4/3 181/4/3
f 194/4/3 193/4/3 607/4/3
f 607/4/3 193/4/3 608/4/3
f 159/4/3 234/4/3 157/4/3
f 157/4/3 234/4/3 239/4/3
f 192/4/3 250/4/3 182/4/3
f 182/4/3 250/4/3 636/4/3
f 249/4/3 295/4/3 240/4/3
f 240/4/3 295/4/3 672/4/3
f 91/4/3 90/4/3 95/4/3
f 95/4/3 90/4/3 93/4/3
f 121/4/3 120/4/3 94/4/3
f 94/4/3 120/4/3 171/4/3
f 119/4/3 164/4/3 172/4/3
f 172/4/3 164/4/3 169/4/3
f 117/4/3 116/4/3 90/4/3
f 90/4/3 116/4/3 119/4/3
f 485/3/4 777/3/4 483/3/4
f 483/3/4 777/3/4 776/3/4
f 477/3/4 1/3/4 475/3/4
f 475/3/4 1/3/4 488/3/4
f 469/3/4 5/3/4 467/3/4
f 467/3/4 5/3/4 480/3/4
f 461/3/4 9/3/4 459/3/4
f 459/3/4 9/3/4 472/3/4
f 429/3/4 13/3/4 427/3/4
f 427/3/4 13/3/4 464/3/4
f 510/2/4 37/2/4 511/2/4
f 511/2/4 37/2/4 36/2/4
f 499/2/4 45/2/4 514/2/4
f 514/2/4 45/2/4 44/2/4
f 502/2/4 66/2/4 530/2/4
f 530/2/4 66/2/4 65/2/4
f 505/2/4 80/2/4 538/2/4
f 538/2/4 80/2/4 79/2/4
f 495/2/4 31/2/4 541/2/4
f 541/2/4 31/2/4 103/2/4
f 558/5/4 102/5/4 559/5/4
f 559/5/4 102/5/4 101/5/4
f 557/2/4 100/2/4 616/2/4
f 616/2/4 100/2/4 210/2/4
f 617/5/4 209/5/4 618/5/4
f 618/5/4 209/5/4 208/5/4
f 615/2/4 207/2/4 711/2/4
f 711/2/4 207/2/4 332/2/4
f 712/5/4 331/5/4 713/5/4
f 713/5/4 331/5/4 330/5/4
f 710/2/4 329/2/4 733/2/4
f 733/2/4 329/2/4 368/2/4
f 734/5/4 367/5/4 735/5/4
f 735/5/4 367/5/4 366/5/4
f 732/2/4 365/2/4 759/2/4
f 759/2/4 365/2/4 432/2/4
f 750/2/4 434/2/4 751/2/4
f 751/2/4 434/2/4 438/2/4
f 763/2/4 440/2/4 765/2/4
f 765/2/4 440/2/4 444/2/4
f 769/2/4 446/2/4 783/2/4
f 783/2/4 446/2/4 450/2/4
f 754/2/4 452/2/4 755/2/4
f 755/2/4 452/2/4 456/2/4
f 49/5/4 513/5/4 784/5/4
f 784/5/4 513/5/4 780/5/4
f 423/5/4 506/5/4 128/5/4
f 128/5/4 506/5/4 505/5/4
f 85/5/4 540/5/4 82/5/4
f 82/5/4 540/5/4 539/5/4
f 413/5/4 541/5/4 327/5/4
f 327/5/4 541/5/4 616/5/4
f 328/5/4 709/5/4 325/5/4
f 325/5/4 709/5/4 708/5/4
f 326/5/4 710/5/4 410/5/4
f 410/5/4 710/5/4 732/5/4
f 411/5/4 757/5/4 408/5/4
f 408/5/4 757/5/4 756/5/4
f 400/5/4 782/5/4 414/5/4
f 414/5/4 782/5/4 761/5/4
f 406/5/4 755/5/4 421/5/4
f 421/5/4 755/5/4 771/5/4
f 42/4/4 398/4/4 39/4/4
f 39/4/4 398/4/4 401/4/4
f 56/4/4 23/4/4 53/4/4
f 53/4/4 23/4/4 48/4/4
f 40/4/4 47/4/4 793/4/4
f 793/4/4 47/4/4 417/4/4
f 187/4/4 175/4/4 184/4/4
f 184/4/4 175/4/4 174/4/4
f 168/4/4 126/4/4 674/4/4
f 674/4/4 126/4/4 388/4/4
f 742/4/4 359/4/4 743/4/4
f 743/4/4 359/4/4 391/4/4
f 395/4/4 390/4/4 392/4/4
f 392/4/4 390/4/4 389/4/4
f 404/4/4 384/4/4 402/4/4
f 402/4/4 384/4/4 420/4/4
f 107/3/4 794/3/4 104/3/4
f 104/3/4 794/3/4 793/3/4
f 299/3/4 674/3/4 296/3/4
f 296/3/4 674/3/4 673/3/4
f 728/4/4 741/4/4 739/4/4
f 739/4/4 741/4/4 740/4/4
f 244/3/4 165/3/4 241/3/4
f 241/3/4 165/3/4 674/3/4
f 60/3/4 517/3/4 57/3/4
f 57/3/4 517/3/4 516/3/4
f 125/3/4 580/3/4 122/3/4
f 122/3/4 580/3/4 579/3/4
f 122/3/4 601/3/4 678/3/4
f 678/3/4 601/3/4 600/3/4
f 669/3/4 701/3/4 670/3/4
f 670/3/4 701/3/4 699/3/4
f 716/4/4 737/4/4 369/4/4
f 369/4/4 737/4/4 736/4/4
f 663/3/4 668/3/4 664/3/4
f 664/3/4 668/3/4 667/3/4
f 696/3/4 698/3/4 336/3/4
f 336/3/4 698/3/4 697/3/4
f 336/4/4 715/4/4 333/4/4
f 333/4/4 715/4/4 714/4/4
f 334/4/4 717/4/4 353/4/4
f 353/4/4 717/4/4 372/4/4
f 111/3/4 40/3/4 795/3/4
f 795/3/4 40/3/4 794/3/4
f 795/3/4 564/3/4 108/3/4
f 108/3/4 564/3/4 563/3/4
f 144/3/4 630/3/4 285/3/4
f 285/3/4 630/3/4 629/3/4
f 285/3/4 662/3/4 282/3/4
f 282/3/4 662/3/4 661/3/4
f 283/3/4 664/3/4 317/3/4
f 317/3/4 664/3/4 695/3/4
f 221/3/4 142/3/4 218/3/4
f 218/3/4 142/3/4 285/3/4
f 340/4/4 335/4/4 337/4/4
f 337/4/4 335/4/4 334/4/4
f 569/3/4 788/3/4 570/3/4
f 570/3/4 788/3/4 109/3/4
f 137/4/4 590/4/4 134/4/4
f 134/4/4 590/4/4 589/4/4
f 206/4/4 612/4/4 203/4/4
f 203/4/4 612/4/4 611/4/4
f 623/3/4 220/3/4 624/3/4
f 624/3/4 220/3/4 219/3/4
f 275/4/4 654/4/4 272/4/4
f 272/4/4 654/4/4 653/4/4
f 316/4/4 692/4/4 313/4/4
f 313/4/4 692/4/4 691/4/4
f 141/3/4 658/3/4 138/3/4
f 138/3/4 658/3/4 619/3/4
f 593/3/4 108/3/4 594/3/4
f 594/3/4 108/3/4 143/3/4
f 202/3/4 688/3/4 199/3/4
f 199/3/4 688/3/4 645/3/4
f 213/4/4 135/4/4 211/4/4
f 211/4/4 135/4/4 274/4/4
f 212/3/4 620/3/4 276/3/4
f 276/3/4 620/3/4 657/3/4
f 665/3/4 284/3/4 666/3/4
f 666/3/4 284/3/4 283/3/4
f 312/3/4 646/3/4 310/3/4
f 310/3/4 646/3/4 687/3/4
f 281/3/4 140/3/4 216/3/4
f 216/3/4 140/3/4 139/3/4
f 217/3/4 138/3/4 214/3/4
f 214/3/4 138/3/4 212/3/4
f 215/3/4 278/3/4 279/3/4
f 279/3/4 278/3/4 277/3/4
f 155/3/4 147/3/4 152/3/4
f 152/3/4 147/3/4 146/3/4
f 224/3/4 145/3/4 222/3/4
f 222/3/4 145/3/4 288/3/4
f 223/3/4 287/3/4 289/3/4
f 289/3/4 287/3/4 286/3/4
f 290/3/4 319/3/4 320/3/4
f 320/3/4 319/3/4 318/3/4
f 544/3/4 796/3/4 797/3/4
f 797/3/4 796/3/4 524/3/4
f 797/3/4 547/3/4 545/3/4
f 545/3/4 547/3/4 546/3/4
f 232/3/4 152/3/4 229/3/4
f 229/3/4 152/3/4 223/3/4
f 230/3/4 291/3/4 292/3/4
f 292/3/4 291/3/4 290/3/4
f 20/5/4 492/5/4 17/5/4
f 17/5/4 492/5/4 491/5/4
f 17/3/4 525/3/4 21/3/4
f 21/3/4 525/3/4 796/3/4
f 63/3/4 543/3/4 798/3/4
f 798/3/4 543/3/4 542/3/4
f 599/3/4 154/3/4 238/3/4
f 238/3/4 154/3/4 153/3/4
f 238/3/4 231/3/4 235/3/4
f 235/3/4 231/3/4 230/3/4
f 522/3/4 21/3/4 523/3/4
f 523/3/4 21/3/4 62/3/4
f 520/1/4 61/1/4 799/1/4
f 799/1/4 61/1/4 798/1/4
f 799/3/4 568/3/4 562/3/4
f 562/3/4 568/3/4 567/3/4
f 560/5/4 598/5/4 227/5/4
f 227/5/4 598/5/4 597/5/4
f 228/5/4 626/5/4 225/5/4
f 225/5/4 626/5/4 625/5/4
f 258/5/4 606/5/4 255/5/4
f 255/5/4 606/5/4 640/5/4
f 74/4/4 521/4/4 71/4/4
f 71/4/4 521/4/4 520/4/4
f 158/4/4 561/4/4 156/4/4
f 156/4/4 561/4/4 227/4/4
f 157/4/4 633/4/4 239/4/4
f 239/4/4 633/4/4 632/4/4
f 30/4/4 503/4/4 27/4/4
f 27/4/4 503/4/4 74/4/4
f 52/4/4 515/4/4 50/4/4
f 50/4/4 515/4/4 158/4/4
f 28/4/4 73/4/4 75/4/4
f 75/4/4 73/4/4 72/4/4
f 151/4/4 596/4/4 149/4/4
f 149/4/4 596/4/4 595/4/4
f 51/4/4 71/4/4 159/4/4
f 159/4/4 71/4/4 157/4/4
f 76/4/4 183/4/4 192/4/4
f 192/4/4 183/4/4 182/4/4
f 150/4/4 156/4/4 233/4/4
f 233/4/4 156/4/4 628/4/4
f 170/4/4 181/4/4 249/4/4
f 249/4/4 181/4/4 240/4/4
f 234/4/4 239/4/4 294/4/4
f 294/4/4 239/4/4 671/4/4
f 92/4/4 88/4/4 89/4/4
f 89/4/4 88/4/4 87/4/4
f 114/4/4 86/4/4 112/4/4
f 112/4/4 86/4/4 162/4/4
f 113/4/4 161/4/4 163/4/4
f 163/4/4 161/4/4 160/4/4
f 118/4/4 89/4/4 115/4/4
f 115/4/4 89/4/4 113/4/4
f 541/5/5 413/5/5 539/5/5
f 539/5/5 413/5/5 82/5/5
f 710/5/5 326/5/5 708/5/5
f 708/5/5 326/5/5 325/5/5
f 592/4/5 135/4/5 589/4/5
f 589/4/5 135/4/5 134/4/5
f 656/4/5 273/4/5 653/4/5
f 653/4/5 273/4/5 272/4/5
f 102/2/5 558/2/5 103/2/5
f 103/2/5 558/2/5 541/2/5
f 209/2/5 617/2/5 210/2/5
f 210/2/5 617/2/5 616/2/5
f 331/2/5 712/2/5 332/2/5
f 332/2/5 712/2/5 711/2/5
f 367/2/5 734/2/5 368/2/5
f 368/2/5 734/2/5 733/2/5
f 620/4/5 212/4/5 274/4/5
f 274/4/5 212/4/5 211/4/5
f 431/2/5 748/2/5 432/2/5
f 432/2/5 748/2/5 759/2/5
f 760/5/5 412/5/5 756/5/5
f 756/5/5 412/5/5 408/5/5
f 660/3/5 277/3/5 657/3/5
f 657/3/5 277/3/5 276/3/5
f 278/3/5 215/3/5 212/3/5
f 212/3/5 215/3/5 214/3/5
f 434/5/5 750/5/5 435/5/5
f 435/5/5 750/5/5 749/5/5
f 437/2/5 782/2/5 438/2/5
f 438/2/5 782/2/5 751/2/5
f 782/5/5 400/5/5 748/5/5
f 748/5/5 400/5/5 396/5/5
f 47/4/5 40/4/5 401/4/5
f 401/4/5 40/4/5 39/4/5
f 668/3/5 663/3/5 629/3/5
f 629/3/5 663/3/5 662/3/5
f 664/3/5 283/3/5 661/3/5
f 661/3/5 283/3/5 282/3/5
f 284/3/5 219/3/5 285/3/5
f 285/3/5 219/3/5 218/3/5
f 624/3/5 665/3/5 621/3/5
f 621/3/5 665/3/5 278/3/5
f 287/3/5 223/3/5 288/3/5
f 288/3/5 223/3/5 222/3/5
f 627/5/5 226/5/5 625/5/5
f 625/5/5 226/5/5 225/5/5
f 156/4/5 150/4/5 595/4/5
f 595/4/5 150/4/5 149/4/5
f 440/5/5 763/5/5 441/5/5
f 441/5/5 763/5/5 762/5/5
f 800/3/5 696/3/5 667/3/5
f 667/3/5 696/3/5 664/3/5
f 319/3/5 801/3/5 283/3/5
f 283/3/5 801/3/5 666/3/5
f 801/3/5 802/3/5 277/3/5
f 277/3/5 802/3/5 279/3/5
f 802/3/5 290/3/5 286/3/5
f 286/3/5 290/3/5 289/3/5
f 291/3/5 230/3/5 223/3/5
f 223/3/5 230/3/5 229/3/5
f 238/5/5 633/5/5 597/5/5
f 597/5/5 633/5/5 227/5/5
f 633/4/5 157/4/5 227/4/5
f 227/4/5 157/4/5 156/4/5
f 71/4/5 51/4/5 158/4/5
f 158/4/5 51/4/5 50/4/5
f 239/4/5 234/4/5 628/4/5
f 628/4/5 234/4/5 233/4/5
f 416/4/5 785/4/5 417/4/5
f 417/4/5 785/4/5 793/4/5
f 785/3/5 105/3/5 793/3/5
f 793/3/5 105/3/5 104/3/5
f 106/3/5 565/3/5 107/3/5
f 107/3/5 565/3/5 564/3/5
f 566/3/5 803/3/5 563/3/5
f 563/3/5 803/3/5 804/3/5
f 700/3/5 716/3/5 697/3/5
f 697/3/5 716/3/5 715/3/5
f 717/4/5 334/4/5 714/4/5
f 714/4/5 334/4/5 333/4/5
f 335/3/5 805/3/5 695/3/5
f 695/3/5 805/3/5 317/3/5
f 805/3/5 806/3/5 318/3/5
f 318/3/5 806/3/5 320/3/5
f 161/4/5 113/4/5 162/4/5
f 162/4/5 113/4/5 112/4/5
f 443/2/5 766/2/5 444/2/5
f 444/2/5 766/2/5 765/2/5
f 807/4/5 354/4/5 372/4/5
f 372/4/5 354/4/5 353/4/5
f 341/4/5 338/4/5 334/4/5
f 334/4/5 338/4/5 337/4/5
f 169/4/5 164/4/5 160/4/5
f 160/4/5 164/4/5 163/4/5
f 119/4/5 116/4/5 113/4/5
f 113/4/5 116/4/5 115/4/5
f 446/5/5 769/5/5 447/5/5
f 447/5/5 769/5/5 768/5/5
f 770/5/5 418/5/5 761/5/5
f 761/5/5 418/5/5 414/5/5
f 705/3/5 720/3/5 702/3/5
f 702/3/5 720/3/5 719/3/5
f 373/4/5 370/4/5 808/4/5
f 808/4/5 370/4/5 369/4/5
f 721/4/5 342/4/5 718/4/5
f 718/4/5 342/4/5 341/4/5
f 322/3/5 809/3/5 810/3/5
f 810/3/5 809/3/5 339/3/5
f 809/3/5 321/3/5 340/3/5
f 340/3/5 321/3/5 806/3/5
f 300/3/5 293/3/5 290/3/5
f 290/3/5 293/3/5 292/3/5
f 245/3/5 236/3/5 230/3/5
f 230/3/5 236/3/5 235/3/5
f 237/3/5 634/3/5 238/3/5
f 238/3/5 634/3/5 633/3/5
f 635/4/5 240/4/5 632/4/5
f 632/4/5 240/4/5 239/4/5
f 73/4/5 28/4/5 74/4/5
f 74/4/5 28/4/5 27/4/5
f 181/4/5 170/4/5 157/4/5
f 157/4/5 170/4/5 159/4/5
f 672/4/5 295/4/5 671/4/5
f 671/4/5 295/4/5 294/4/5
f 171/4/5 120/4/5 172/4/5
f 172/4/5 120/4/5 119/4/5
f 449/2/5 752/2/5 450/2/5
f 450/2/5 752/2/5 783/2/5
f 361/4/5 675/4/5 388/4/5
f 388/4/5 675/4/5 674/4/5
f 390/4/5 395/4/5 391/4/5
f 391/4/5 395/4/5 743/4/5
f 405/4/5 403/4/5 420/4/5
f 420/4/5 403/4/5 402/4/5
f 676/3/5 297/3/5 673/3/5
f 673/3/5 297/3/5 296/3/5
f 298/3/5 242/3/5 299/3/5
f 299/3/5 242/3/5 241/3/5
f 376/4/5 374/4/5 736/4/5
f 736/4/5 374/4/5 808/4/5
f 243/3/5 679/3/5 244/3/5
f 244/3/5 679/3/5 678/3/5
f 680/3/5 681/3/5 811/3/5
f 811/3/5 681/3/5 706/3/5
f 707/3/5 323/3/5 344/3/5
f 344/3/5 323/3/5 810/3/5
f 303/3/5 301/3/5 324/3/5
f 324/3/5 301/3/5 300/3/5
f 259/3/5 246/3/5 302/3/5
f 302/3/5 246/3/5 245/3/5
f 606/5/5 258/5/5 237/5/5
f 237/5/5 258/5/5 634/5/5
f 258/4/5 182/4/5 634/4/5
f 634/4/5 182/4/5 181/4/5
f 183/4/5 76/4/5 72/4/5
f 72/4/5 76/4/5 75/4/5
f 636/4/5 250/4/5 240/4/5
f 240/4/5 250/4/5 249/4/5
f 452/5/5 754/5/5 453/5/5
f 453/5/5 754/5/5 753/5/5
f 755/5/5 406/5/5 783/5/5
f 783/5/5 406/5/5 419/5/5
f 364/4/5 185/4/5 174/4/5
f 174/4/5 185/4/5 184/4/5
f 407/4/5 393/4/5 389/4/5
f 389/4/5 393/4/5 392/4/5
f 394/4/5 377/4/5 740/4/5
f 740/4/5 377/4/5 739/4/5
f 639/3/5 683/3/5 637/3/5
f 637/3/5 683/3/5 682/3/5
f 684/3/5 304/3/5 681/3/5
f 681/3/5 304/3/5 303/3/5
f 305/3/5 252/3/5 306/3/5
f 306/3/5 252/3/5 251/3/5
f 642/5/5 256/5/5 640/5/5
f 640/5/5 256/5/5 255/5/5
f 608/4/5 193/4/5 182/4/5
f 182/4/5 193/4/5 192/4/5
f 646/3/5 312/3/5 643/3/5
f 643/3/5 312/3/5 686/3/5
f 310/3/5 308/3/5 685/3/5
f 685/3/5 308/3/5 307/3/5
f 266/3/5 260/3/5 309/3/5
f 309/3/5 260/3/5 259/3/5
f 132/2/5 554/2/5 133/2/5
f 133/2/5 554/2/5 587/2/5
f 264/2/5 781/2/5 265/2/5
f 265/2/5 781/2/5 648/2/5
f 347/2/5 724/2/5 348/2/5
f 348/2/5 724/2/5 723/2/5
f 382/2/5 746/2/5 383/2/5
f 383/2/5 746/2/5 745/2/5
f 455/2/5 772/2/5 456/2/5
f 456/2/5 772/2/5 755/2/5
f 690/3/5 311/3/5 687/3/5
f 687/3/5 311/3/5 310/3/5
f 269/3/5 267/3/5 312/3/5
f 312/3/5 267/3/5 266/3/5
f 556/5/5 97/5/5 554/5/5
f 554/5/5 97/5/5 96/5/5
f 727/5/5 350/5/5 725/5/5
f 725/5/5 350/5/5 349/5/5
f 775/5/5 424/5/5 771/5/5
f 771/5/5 424/5/5 421/5/5
f 316/4/5 270/4/5 651/4/5
f 651/4/5 270/4/5 269/4/5
f 614/4/5 204/4/5 611/4/5
f 611/4/5 204/4/5 203/4/5
f 694/4/5 314/4/5 691/4/5
f 691/4/5 314/4/5 313/4/5
f 463/3/5 457/3/5 464/3/5
f 464/3/5 457/3/5 427/3/5
f 471/3/5 465/3/5 472/3/5
f 472/3/5 465/3/5 459/3/5
f 479/3/5 473/3/5 480/3/5
f 480/3/5 473/3/5 467/3/5
f 487/3/5 481/3/5 488/3/5
f 488/3/5 481/3/5 475/3/5
f 779/3/5 489/3/5 776/3/5
f 776/3/5 489/3/5 483/3/5
f 616/5/6 709/5/6 327/5/6
f 327/5/6 709/5/6 328/5/6
f 732/5/6 757/5/6 410/5/6
f 410/5/6 757/5/6 411/5/6
f 591/4/6 590/4/6 136/4/6
f 136/4/6 590/4/6 137/4/6
f 655/4/6 654/4/6 274/4/6
f 274/4/6 654/4/6 275/4/6
f 101/2/6 100/2/6 559/2/6
f 559/2/6 100/2/6 557/2/6
f 208/2/6 207/2/6 618/2/6
f 618/2/6 207/2/6 615/2/6
f 330/2/6 329/2/6 713/2/6
f 713/2/6 329/2/6 710/2/6
f 366/2/6 365/2/6 735/2/6
f 735/2/6 365/2/6 732/2/6
f 619/4/6 135/4/6 138/4/6
f 138/4/6 135/4/6 213/4/6
f 38/2/6 31/2/6 498/2/6
f 498/2/6 31/2/6 495/2/6
f 497/5/6 540/5/6 84/5/6
f 84/5/6 540/5/6 85/5/6
f 659/3/6 658/3/6 140/3/6
f 140/3/6 658/3/6 141/3/6
f 139/3/6 138/3/6 216/3/6
f 216/3/6 138/3/6 217/3/6
f 36/5/6 35/5/6 511/5/6
f 511/5/6 35/5/6 509/5/6
f 46/2/6 37/2/6 780/2/6
f 780/2/6 37/2/6 510/2/6
f 780/5/6 498/5/6 784/5/6
f 784/5/6 498/5/6 399/5/6
f 784/4/6 398/4/6 41/4/6
f 41/4/6 398/4/6 42/4/6
f 804/3/6 630/3/6 108/3/6
f 108/3/6 630/3/6 144/3/6
f 143/3/6 142/3/6 220/3/6
f 220/3/6 142/3/6 221/3/6
f 623/3/6 622/3/6 594/3/6
f 594/3/6 622/3/6 139/3/6
f 146/3/6 145/3/6 152/3/6
f 152/3/6 145/3/6 224/3/6
f 597/5/6 626/5/6 227/5/6
f 227/5/6 626/5/6 228/5/6
f 158/4/6 596/4/6 50/4/6
f 50/4/6 596/4/6 151/4/6
f 44/5/6 43/5/6 514/5/6
f 514/5/6 43/5/6 512/5/6
f 48/4/6 47/4/6 53/4/6
f 53/4/6 47/4/6 40/4/6
f 567/3/6 812/3/6 813/3/6
f 813/3/6 812/3/6 593/3/6
f 813/3/6 140/3/6 814/3/6
f 814/3/6 140/3/6 281/3/6
f 814/3/6 147/3/6 154/3/6
f 154/3/6 147/3/6 155/3/6
f 153/3/6 152/3/6 231/3/6
f 231/3/6 152/3/6 232/3/6
f 599/5/6 598/5/6 562/5/6
f 562/5/6 598/5/6 560/5/6
f 520/4/6 561/4/6 71/4/6
f 71/4/6 561/4/6 158/4/6
f 74/4/6 515/4/6 27/4/6
f 27/4/6 515/4/6 52/4/6
f 157/4/6 156/4/6 159/4/6
f 159/4/6 156/4/6 150/4/6
f 386/4/6 23/4/6 55/4/6
f 55/4/6 23/4/6 56/4/6
f 54/3/6 40/3/6 519/3/6
f 519/3/6 40/3/6 516/3/6
f 518/3/6 517/3/6 59/3/6
f 59/3/6 517/3/6 60/3/6
f 699/3/6 698/3/6 670/3/6
f 670/3/6 698/3/6 800/3/6
f 58/3/6 57/3/6 110/3/6
f 110/3/6 57/3/6 111/3/6
f 109/3/6 108/3/6 570/3/6
f 570/3/6 108/3/6 812/3/6
f 546/3/6 815/3/6 545/3/6
f 545/3/6 815/3/6 542/3/6
f 544/3/6 543/3/6 21/3/6
f 21/3/6 543/3/6 63/3/6
f 62/1/6 61/1/6 523/1/6
f 523/1/6 61/1/6 520/1/6
f 87/4/6 86/4/6 89/4/6
f 89/4/6 86/4/6 114/4/6
f 67/2/6 45/2/6 529/2/6
f 529/2/6 45/2/6 499/2/6
f 738/4/6 737/4/6 702/4/6
f 702/4/6 737/4/6 700/4/6
f 241/3/6 701/3/6 631/3/6
f 631/3/6 701/3/6 669/3/6
f 573/3/6 572/3/6 576/3/6
f 576/3/6 572/3/6 569/3/6
f 548/3/6 547/3/6 527/3/6
f 527/3/6 547/3/6 524/3/6
f 526/3/6 525/3/6 494/3/6
f 494/3/6 525/3/6 491/3/6
f 493/5/6 492/5/6 19/5/6
f 19/5/6 492/5/6 20/5/6
f 22/3/6 21/3/6 532/3/6
f 532/3/6 21/3/6 522/3/6
f 95/4/6 88/4/6 91/4/6
f 91/4/6 88/4/6 92/4/6
f 90/4/6 89/4/6 117/4/6
f 117/4/6 89/4/6 118/4/6
f 65/5/6 64/5/6 530/5/6
f 530/5/6 64/5/6 528/5/6
f 501/5/6 513/5/6 25/5/6
f 25/5/6 513/5/6 49/5/6
f 176/4/6 126/4/6 167/4/6
f 167/4/6 126/4/6 168/4/6
f 730/4/6 729/4/6 357/4/6
f 357/4/6 729/4/6 358/4/6
f 704/3/6 703/3/6 811/3/6
f 811/3/6 703/3/6 677/3/6
f 356/4/6 355/4/6 371/4/6
f 371/4/6 355/4/6 807/4/6
f 577/3/6 568/3/6 816/3/6
f 816/3/6 568/3/6 815/3/6
f 816/3/6 549/3/6 553/3/6
f 553/3/6 549/3/6 550/3/6
f 552/3/6 551/3/6 70/3/6
f 70/3/6 551/3/6 22/3/6
f 69/1/6 68/1/6 534/1/6
f 534/1/6 68/1/6 531/1/6
f 533/4/6 521/4/6 73/4/6
f 73/4/6 521/4/6 74/4/6
f 504/4/6 503/4/6 29/4/6
f 29/4/6 503/4/6 30/4/6
f 72/4/6 71/4/6 75/4/6
f 75/4/6 71/4/6 51/4/6
f 240/4/6 239/4/6 249/4/6
f 249/4/6 239/4/6 234/4/6
f 94/4/6 93/4/6 121/4/6
f 121/4/6 93/4/6 90/4/6
f 81/2/6 66/2/6 537/2/6
f 537/2/6 66/2/6 502/2/6
f 174/4/6 173/4/6 184/4/6
f 184/4/6 173/4/6 166/4/6
f 389/4/6 384/4/6 392/4/6
f 392/4/6 384/4/6 404/4/6
f 184/3/6 165/3/6 603/3/6
f 603/3/6 165/3/6 600/3/6
f 602/3/6 601/3/6 582/3/6
f 582/3/6 601/3/6 579/3/6
f 379/4/6 731/4/6 375/4/6
f 375/4/6 731/4/6 356/4/6
f 581/3/6 580/3/6 124/3/6
f 124/3/6 580/3/6 125/3/6
f 191/3/6 817/3/6 818/3/6
f 818/3/6 817/3/6 575/3/6
f 818/3/6 578/3/6 179/3/6
f 179/3/6 578/3/6 180/3/6
f 178/3/6 177/3/6 247/3/6
f 247/3/6 177/3/6 248/3/6
f 605/5/6 604/5/6 585/5/6
f 585/5/6 604/5/6 583/5/6
f 584/4/6 534/4/6 183/4/6
f 183/4/6 534/4/6 72/4/6
f 535/4/6 73/4/6 77/4/6
f 77/4/6 73/4/6 28/4/6
f 182/4/6 181/4/6 192/4/6
f 192/4/6 181/4/6 170/4/6
f 79/5/6 78/5/6 538/5/6
f 538/5/6 78/5/6 536/5/6
f 505/5/6 502/5/6 128/5/6
f 128/5/6 502/5/6 24/5/6
f 127/4/6 175/4/6 186/4/6
f 186/4/6 175/4/6 187/4/6
f 363/4/6 359/4/6 819/4/6
f 819/4/6 359/4/6 742/4/6
f 819/4/6 741/4/6 378/4/6
f 378/4/6 741/4/6 728/4/6
f 638/3/6 803/3/6 820/3/6
f 820/3/6 803/3/6 571/3/6
f 820/3/6 574/3/6 190/3/6
f 190/3/6 574/3/6 817/3/6
f 189/3/6 188/3/6 253/3/6
f 253/3/6 188/3/6 254/3/6
f 641/5/6 606/5/6 257/5/6
f 257/5/6 606/5/6 258/5/6
f 607/4/6 183/4/6 194/4/6
f 194/4/6 183/4/6 76/4/6
f 645/3/6 644/3/6 199/3/6
f 199/3/6 644/3/6 609/3/6
f 202/3/6 610/3/6 197/3/6
f 197/3/6 610/3/6 198/3/6
f 196/3/6 195/3/6 261/3/6
f 261/3/6 195/3/6 178/3/6
f 458/2/6 80/2/6 555/2/6
f 555/2/6 80/2/6 505/2/6
f 131/2/6 130/2/6 588/2/6
f 588/2/6 130/2/6 586/2/6
f 263/2/6 262/2/6 726/2/6
f 726/2/6 262/2/6 647/2/6
f 346/2/6 345/2/6 725/2/6
f 725/2/6 345/2/6 722/2/6
f 381/2/6 380/2/6 747/2/6
f 747/2/6 380/2/6 744/2/6
f 689/3/6 688/3/6 201/3/6
f 201/3/6 688/3/6 202/3/6
f 200/3/6 199/3/6 268/3/6
f 268/3/6 199/3/6 196/3/6
f 507/5/6 506/5/6 98/5/6
f 98/5/6 506/5/6 423/5/6
f 649/5/6 781/5/6 351/5/6
f 351/5/6 781/5/6 352/5/6
f 774/5/6 747/5/6 425/5/6
f 425/5/6 747/5/6 426/5/6
f 203/4/6 652/4/6 271/4/6
f 271/4/6 652/4/6 200/4/6
f 613/4/6 612/4/6 205/4/6
f 205/4/6 612/4/6 206/4/6
f 693/4/6 692/4/6 315/4/6
f 315/4/6 692/4/6 316/4/6
f 466/3/6 13/3/6 33/3/6
f 33/3/6 13/3/6 429/3/6
f 474/3/6 9/3/6 15/3/6
f 15/3/6 9/3/6 461/3/6
f 482/3/6 5/3/6 11/3/6
f 11/3/6 5/3/6 469/3/6
f 490/3/6 1/3/6 7/3/6
f 7/3/6 1/3/6 477/3/6
f 778/3/6 777/3/6 3/3/6
f 3/3/6 777/3/6 485/3/6
