# Vengi binary mesh normalized for Tanks of Freedom II

mtllib ../../materials/vox_building.mtl
o heli_rotor

v 0.5 0.1 0.4
v 0.4 0.1 0.4
v 0.4 0.1 0.5
v 0.5 0.1 0.5
v -0.3 0.1 0.4
v -0.4 0.1 0.4
v -0.4 0.1 0.5
v -0.3 0.1 0.5
v 0.4 0.1 0.3
v 0.3 0.1 0.3
v 0.3 0.1 0.4
v -0.2 0.1 0.3
v -0.3 0.1 0.3
v -0.2 0.1 0.4
v 0.3 0.1 0.2
v 0.2 0.1 0.2
v 0.2 0.1 0.3
v -0.1 0.1 0.2
v -0.2 0.1 0.2
v -0.1 0.1 0.3
v 0.6 0.1 0
v 0.2 0.1 0
v 0.2 0.1 0.1
v 0.6 0.1 0.1
v -0.1 0.1 0
v -0.5 0.1 0
v -0.5 0.1 0.1
v -0.1 0.1 0.1
v 0.2 0.1 -0.1
v 0.1 0.1 -0.1
v 0.1 0.1 0.2
v 0 0.1 -0.1
v -0.1 0.1 -0.1
v 0 0.1 0.2
v 0.3 0.1 -0.2
v 0.2 0.1 -0.2
v 0.3 0.1 -0.1
v -0.1 0.1 -0.2
v -0.2 0.1 -0.2
v -0.2 0.1 -0.1
v 0.4 0.1 -0.3
v 0.3 0.1 -0.3
v 0.4 0.1 -0.2
v -0.2 0.1 -0.3
v -0.3 0.1 -0.3
v -0.3 0.1 -0.2
v 0.5 0.1 -0.4
v 0.4 0.1 -0.4
v 0.5 0.1 -0.3
v -0.3 0.1 -0.4
v -0.4 0.1 -0.4
v -0.4 0.1 -0.3
v 0.1 0.1 -0.5
v 0 0.1 -0.5
v 0 0.1 0.6
v 0.1 0.1 0.6
v 0.5 0 0.4
v 0.5 0 0.5
v 0.4 0 0.5
v 0.4 0 0.4
v -0.3 0 0.4
v -0.3 0 0.5
v -0.4 0 0.5
v -0.4 0 0.4
v 0.4 0 0.3
v 0.3 0 0.4
v 0.3 0 0.3
v -0.2 0 0.3
v -0.2 0 0.4
v -0.3 0 0.3
v 0.3 0 0.2
v 0.2 0 0.3
v 0.2 0 0.2
v -0.1 0 0.2
v -0.1 0 0.3
v -0.2 0 0.2
v 0.6 0 0
v 0.6 0 0.1
v 0.2 0 0.1
v 0.2 0 0
v -0.1 0 0
v -0.1 0 0.1
v -0.5 0 0.1
v -0.5 0 0
v 0.2 0 -0.1
v 0.1 0 0.2
v 0.1 0 -0.1
v 0 0 -0.1
v 0 0 0.2
v -0.1 0 -0.1
v 0.3 0 -0.2
v 0.3 0 -0.1
v 0.2 0 -0.2
v -0.1 0 -0.2
v -0.2 0 -0.1
v -0.2 0 -0.2
v 0.4 0 -0.3
v 0.4 0 -0.2
v 0.3 0 -0.3
v -0.2 0 -0.3
v -0.3 0 -0.2
v -0.3 0 -0.3
v 0.5 0 -0.4
v 0.5 0 -0.3
v 0.4 0 -0.4
v -0.3 0 -0.4
v -0.4 0 -0.3
v -0.4 0 -0.4
v 0.1 0 -0.5
v 0.1 0 0.6
v 0 0 0.6
v 0 0 -0.5

vt 0.0371094 0.5

vn 0 1 0
vn 0 -1 0
vn -1 0 0
vn 1 0 0
vn 0 0 -1
vn 0 0 1

usemtl palette
f 1/1/1 2/1/1 4/1/1
f 4/1/1 2/1/1 3/1/1
f 5/1/1 6/1/1 8/1/1
f 8/1/1 6/1/1 7/1/1
f 9/1/1 10/1/1 2/1/1
f 2/1/1 10/1/1 11/1/1
f 12/1/1 13/1/1 14/1/1
f 14/1/1 13/1/1 5/1/1
f 15/1/1 16/1/1 10/1/1
f 10/1/1 16/1/1 17/1/1
f 18/1/1 19/1/1 20/1/1
f 20/1/1 19/1/1 12/1/1
f 21/1/1 22/1/1 24/1/1
f 24/1/1 22/1/1 23/1/1
f 25/1/1 26/1/1 28/1/1
f 28/1/1 26/1/1 27/1/1
f 29/1/1 30/1/1 16/1/1
f 16/1/1 30/1/1 31/1/1
f 32/1/1 33/1/1 34/1/1
f 34/1/1 33/1/1 18/1/1
f 35/1/1 36/1/1 37/1/1
f 37/1/1 36/1/1 29/1/1
f 38/1/1 39/1/1 33/1/1
f 33/1/1 39/1/1 40/1/1
f 41/1/1 42/1/1 43/1/1
f 43/1/1 42/1/1 35/1/1
f 44/1/1 45/1/1 39/1/1
f 39/1/1 45/1/1 46/1/1
f 47/1/1 48/1/1 49/1/1
f 49/1/1 48/1/1 41/1/1
f 50/1/1 51/1/1 45/1/1
f 45/1/1 51/1/1 52/1/1
f 53/1/1 54/1/1 56/1/1
f 56/1/1 54/1/1 55/1/1
f 57/1/2 58/1/2 60/1/2
f 60/1/2 58/1/2 59/1/2
f 61/1/2 62/1/2 64/1/2
f 64/1/2 62/1/2 63/1/2
f 65/1/2 60/1/2 67/1/2
f 67/1/2 60/1/2 66/1/2
f 68/1/2 69/1/2 70/1/2
f 70/1/2 69/1/2 61/1/2
f 71/1/2 67/1/2 73/1/2
f 73/1/2 67/1/2 72/1/2
f 74/1/2 75/1/2 76/1/2
f 76/1/2 75/1/2 68/1/2
f 77/1/2 78/1/2 80/1/2
f 80/1/2 78/1/2 79/1/2
f 81/1/2 82/1/2 84/1/2
f 84/1/2 82/1/2 83/1/2
f 85/1/2 73/1/2 87/1/2
f 87/1/2 73/1/2 86/1/2
f 88/1/2 89/1/2 90/1/2
f 90/1/2 89/1/2 74/1/2
f 91/1/2 92/1/2 93/1/2
f 93/1/2 92/1/2 85/1/2
f 94/1/2 90/1/2 96/1/2
f 96/1/2 90/1/2 95/1/2
f 97/1/2 98/1/2 99/1/2
f 99/1/2 98/1/2 91/1/2
f 100/1/2 96/1/2 102/1/2
f 102/1/2 96/1/2 101/1/2
f 103/1/2 104/1/2 105/1/2
f 105/1/2 104/1/2 97/1/2
f 106/1/2 102/1/2 108/1/2
f 108/1/2 102/1/2 107/1/2
f 109/1/2 110/1/2 112/1/2
f 112/1/2 110/1/2 111/1/2
f 3/1/3 2/1/3 59/1/3
f 59/1/3 2/1/3 60/1/3
f 7/1/3 6/1/3 63/1/3
f 63/1/3 6/1/3 64/1/3
f 11/1/3 10/1/3 66/1/3
f 66/1/3 10/1/3 67/1/3
f 5/1/3 13/1/3 61/1/3
f 61/1/3 13/1/3 70/1/3
f 17/1/3 16/1/3 72/1/3
f 72/1/3 16/1/3 73/1/3
f 55/1/3 34/1/3 111/1/3
f 111/1/3 34/1/3 89/1/3
f 12/1/3 19/1/3 68/1/3
f 68/1/3 19/1/3 76/1/3
f 18/1/3 28/1/3 74/1/3
f 74/1/3 28/1/3 82/1/3
f 27/1/3 26/1/3 83/1/3
f 83/1/3 26/1/3 84/1/3
f 25/1/3 33/1/3 81/1/3
f 81/1/3 33/1/3 90/1/3
f 29/1/3 36/1/3 85/1/3
f 85/1/3 36/1/3 93/1/3
f 40/1/3 39/1/3 95/1/3
f 95/1/3 39/1/3 96/1/3
f 35/1/3 42/1/3 91/1/3
f 91/1/3 42/1/3 99/1/3
f 46/1/3 45/1/3 101/1/3
f 101/1/3 45/1/3 102/1/3
f 41/1/3 48/1/3 97/1/3
f 97/1/3 48/1/3 105/1/3
f 52/1/3 51/1/3 107/1/3
f 107/1/3 51/1/3 108/1/3
f 32/1/3 54/1/3 88/1/3
f 88/1/3 54/1/3 112/1/3
f 4/1/4 58/1/4 1/1/4
f 1/1/4 58/1/4 57/1/4
f 8/1/4 62/1/4 5/1/4
f 5/1/4 62/1/4 61/1/4
f 2/1/4 60/1/4 9/1/4
f 9/1/4 60/1/4 65/1/4
f 14/1/4 69/1/4 12/1/4
f 12/1/4 69/1/4 68/1/4
f 10/1/4 67/1/4 15/1/4
f 15/1/4 67/1/4 71/1/4
f 56/1/4 110/1/4 31/1/4
f 31/1/4 110/1/4 86/1/4
f 20/1/4 75/1/4 18/1/4
f 18/1/4 75/1/4 74/1/4
f 16/1/4 73/1/4 23/1/4
f 23/1/4 73/1/4 79/1/4
f 24/1/4 78/1/4 21/1/4
f 21/1/4 78/1/4 77/1/4
f 22/1/4 80/1/4 29/1/4
f 29/1/4 80/1/4 85/1/4
f 37/1/4 92/1/4 35/1/4
f 35/1/4 92/1/4 91/1/4
f 33/1/4 90/1/4 38/1/4
f 38/1/4 90/1/4 94/1/4
f 43/1/4 98/1/4 41/1/4
f 41/1/4 98/1/4 97/1/4
f 39/1/4 96/1/4 44/1/4
f 44/1/4 96/1/4 100/1/4
f 49/1/4 104/1/4 47/1/4
f 47/1/4 104/1/4 103/1/4
f 45/1/4 102/1/4 50/1/4
f 50/1/4 102/1/4 106/1/4
f 30/1/4 87/1/4 53/1/4
f 53/1/4 87/1/4 109/1/4
f 60/1/5 2/1/5 57/1/5
f 57/1/5 2/1/5 1/1/5
f 105/1/5 48/1/5 103/1/5
f 103/1/5 48/1/5 47/1/5
f 67/1/5 10/1/5 65/1/5
f 65/1/5 10/1/5 9/1/5
f 99/1/5 42/1/5 97/1/5
f 97/1/5 42/1/5 41/1/5
f 73/1/5 16/1/5 71/1/5
f 71/1/5 16/1/5 15/1/5
f 80/1/5 22/1/5 77/1/5
f 77/1/5 22/1/5 21/1/5
f 93/1/5 36/1/5 91/1/5
f 91/1/5 36/1/5 35/1/5
f 87/1/5 30/1/5 85/1/5
f 85/1/5 30/1/5 29/1/5
f 112/1/5 54/1/5 109/1/5
f 109/1/5 54/1/5 53/1/5
f 90/1/5 33/1/5 88/1/5
f 88/1/5 33/1/5 32/1/5
f 76/1/5 19/1/5 74/1/5
f 74/1/5 19/1/5 18/1/5
f 96/1/5 39/1/5 94/1/5
f 94/1/5 39/1/5 38/1/5
f 70/1/5 13/1/5 68/1/5
f 68/1/5 13/1/5 12/1/5
f 102/1/5 45/1/5 100/1/5
f 100/1/5 45/1/5 44/1/5
f 64/1/5 6/1/5 61/1/5
f 61/1/5 6/1/5 5/1/5
f 108/1/5 51/1/5 106/1/5
f 106/1/5 51/1/5 50/1/5
f 84/1/5 26/1/5 81/1/5
f 81/1/5 26/1/5 25/1/5
f 59/1/6 58/1/6 3/1/6
f 3/1/6 58/1/6 4/1/6
f 97/1/6 104/1/6 41/1/6
f 41/1/6 104/1/6 49/1/6
f 66/1/6 60/1/6 11/1/6
f 11/1/6 60/1/6 2/1/6
f 91/1/6 98/1/6 35/1/6
f 35/1/6 98/1/6 43/1/6
f 72/1/6 67/1/6 17/1/6
f 17/1/6 67/1/6 10/1/6
f 79/1/6 78/1/6 23/1/6
f 23/1/6 78/1/6 24/1/6
f 85/1/6 92/1/6 29/1/6
f 29/1/6 92/1/6 37/1/6
f 86/1/6 73/1/6 31/1/6
f 31/1/6 73/1/6 16/1/6
f 111/1/6 110/1/6 55/1/6
f 55/1/6 110/1/6 56/1/6
f 74/1/6 89/1/6 18/1/6
f 18/1/6 89/1/6 34/1/6
f 68/1/6 75/1/6 12/1/6
f 12/1/6 75/1/6 20/1/6
f 95/1/6 90/1/6 40/1/6
f 40/1/6 90/1/6 33/1/6
f 61/1/6 69/1/6 5/1/6
f 5/1/6 69/1/6 14/1/6
f 101/1/6 96/1/6 46/1/6
f 46/1/6 96/1/6 39/1/6
f 63/1/6 62/1/6 7/1/6
f 7/1/6 62/1/6 8/1/6
f 107/1/6 102/1/6 52/1/6
f 52/1/6 102/1/6 45/1/6
f 83/1/6 82/1/6 27/1/6
f 27/1/6 82/1/6 28/1/6
