# Vengi binary mesh normalized for Tanks of Freedom II

mtllib ../../materials/vox_building.mtl
o infantry

v 0.3 0.9 0.2
v 0.2 0.9 0.2
v 0.2 0.9 0.3
v 0.3 0.9 0.3
v 0.2 0.8 0.2
v 0.1 0.8 0.2
v 0.1 0.8 0.3
v 0.2 0.8 0.3
v 0.1 0.7 0.2
v -0.1 0.7 0.2
v -0.1 0.7 0.3
v 0.1 0.7 0.3
v -0.1 0.8 0.2
v -0.2 0.8 0.2
v -0.2 0.8 0.3
v -0.1 0.8 0.3
v 0.2 1 0.2
v -0.2 1 0.2
v -0.2 1 0.3
v 0.2 1 0.3
v -0.2 0.9 0.2
v -0.3 0.9 0.2
v -0.3 0.9 0.3
v -0.2 0.9 0.3
v 0.3 1.1 0.1
v 0.2 1.1 0.1
v 0.2 1.1 0.2
v 0.3 1.1 0.2
v -0.2 1.1 0.1
v -0.3 1.1 0.1
v -0.3 1.1 0.2
v -0.2 1.1 0.2
v 0.4 0.6 0
v 0.3 0.6 0
v 0.3 0.6 0.1
v 0.4 0.6 0.1
v 0.3 0.4 0
v 0.2 0.4 0
v 0.2 0.4 0.1
v 0.3 0.4 0.1
v 0.3 1 0
v 0.2 1 0
v 0.2 1 0.1
v 0.3 1 0.1
v 0.3 1.2 0
v 0.2 1.2 0
v 0.2 1.2 0.1
v 0.3 1.2 0.1
v 0.2 1.1 0
v -0.2 1.1 0
v -0.2 1 0
v -0.3 1 0
v -0.3 1 0.1
v -0.2 1 0.1
v -0.2 1.2 0
v -0.3 1.2 0
v -0.3 1.2 0.1
v -0.2 1.2 0.1
v -0.3 0.6 0
v -0.4 0.6 0
v -0.4 0.6 0.1
v -0.3 0.6 0.1
v -0.4 0.5 0
v -0.5 0.5 0
v -0.5 0.5 0.1
v -0.4 0.5 0.1
v -0.5 0.4 0
v -0.6 0.4 0
v -0.6 0.4 0.1
v -0.5 0.4 0.1
v -0.6 0.8 0
v -0.7 0.8 0
v -0.7 0.8 0.1
v -0.6 0.8 0.1
v -0.7 1 0
v -0.8 1 0
v -0.8 1 0.1
v -0.7 1 0.1
v -0.8 0.7 0
v -0.9 0.7 0
v -0.9 0.7 0.1
v -0.8 0.7 0.1
v 0.3 0.9 -0.1
v 0.2 0.9 -0.1
v 0.2 0.9 0
v 0.3 0.9 0
v 0.3 1.3 -0.1
v 0.2 1.3 -0.1
v 0.2 1.3 0
v 0.3 1.3 0
v 0.2 1 -0.1
v 0.1 1 -0.1
v 0.1 1 0
v 0.1 1.1 -0.1
v -0.1 1.1 -0.1
v -0.1 1.1 0
v 0.1 1.1 0
v 0.2 0.4 -0.1
v -0.2 0.4 -0.1
v -0.2 0.4 0
v -0.1 1 -0.1
v -0.2 1 -0.1
v -0.1 1 0
v -0.2 0.9 -0.1
v -0.3 0.9 -0.1
v -0.3 0.9 0
v -0.2 0.9 0
v -0.2 1.3 -0.1
v -0.3 1.3 -0.1
v -0.3 1.3 0
v -0.2 1.3 0
v 0.3 1.3 -0.2
v 0.2 1.3 -0.2
v 0.2 0.9 -0.2
v 0.1 0.9 -0.2
v 0.1 0.9 -0.1
v 0.1 0.6 -0.2
v -0.1 0.6 -0.2
v -0.1 0.6 -0.1
v 0.1 0.6 -0.1
v 0.1 1 -0.2
v -0.1 1 -0.2
v -0.1 0.9 -0.2
v -0.2 0.9 -0.2
v -0.1 0.9 -0.1
v -0.2 1.3 -0.2
v -0.3 1.3 -0.2
v 0 0.5 -0.3
v -0.1 0.5 -0.3
v -0.1 0.5 -0.2
v 0 0.5 -0.2
v 0 0.7 -0.3
v -0.1 0.7 -0.3
v -0.1 0.7 -0.2
v 0 0.7 -0.2
v 0 0.9 -0.3
v -0.1 0.9 -0.3
v 0 0.9 -0.2
v 0.2 0.4 -0.4
v 0.1 0.4 -0.4
v 0.1 0.4 -0.3
v 0.2 0.4 -0.3
v 0.1 0.5 -0.4
v 0 0.5 -0.4
v 0.1 0.5 -0.3
v 0.1 0.7 -0.4
v 0 0.7 -0.4
v 0.1 0.7 -0.3
v 0.1 0.9 -0.4
v 0 0.9 -0.4
v 0.1 0.9 -0.3
v -0.1 0.5 -0.4
v -0.1 0.9 -0.4
v -0.2 0.9 -0.4
v -0.2 0.9 -0.3
v 0 0.5 -0.5
v -0.1 0.5 -0.5
v 0 0.7 -0.5
v -0.1 0.7 -0.5
v -0.1 0.7 -0.4
v 0 0.9 -0.5
v -0.1 0.9 -0.5
v 0.3 0.8 0.2
v 0.3 0.8 0.3
v 0.2 0.7 0.2
v 0.2 0.7 0.3
v 0.1 0.6 0.2
v 0.1 0.6 0.3
v -0.1 0.6 0.3
v -0.1 0.6 0.2
v -0.2 0.7 0.3
v -0.2 0.7 0.2
v -0.3 0.8 0.3
v -0.3 0.8 0.2
v 0.3 0.7 0.1
v 0.3 0.7 0.2
v 0.2 0.7 0.1
v 0.2 0.1 0.1
v 0.2 0.1 0.2
v 0.1 0.1 0.2
v 0.1 0.1 0.1
v 0.1 0.3 0.1
v 0.1 0.3 0.2
v -0.1 0.3 0.2
v -0.1 0.3 0.1
v -0.1 0.1 0.1
v -0.1 0.1 0.2
v -0.2 0.1 0.2
v -0.2 0.1 0.1
v -0.2 0.7 0.1
v -0.3 0.7 0.2
v -0.3 0.7 0.1
v 0.4 0.4 0
v 0.4 0.4 0.1
v 0.3 0.3 0
v 0.3 0.3 0.1
v 0.2 0.3 0.1
v 0.2 0.3 0
v 0.2 0.6 0.1
v 0.2 0.6 0
v 0.3 1.1 0
v 0.2 0 0
v 0.2 0 0.1
v 0.1 0 0.1
v 0.1 0 0
v 0.1 0.3 0
v -0.1 0.3 0
v -0.1 0 0
v -0.1 0 0.1
v -0.2 0 0.1
v -0.2 0 0
v -0.2 0.6 0
v -0.2 0.6 0.1
v -0.3 1.1 0
v -0.3 0.5 0
v -0.3 0.5 0.1
v -0.4 0.4 0
v -0.4 0.4 0.1
v -0.5 0.3 0
v -0.5 0.3 0.1
v -0.6 0.3 0.1
v -0.6 0.3 0
v -0.6 0.2 0
v -0.6 0.2 0.1
v -0.7 0.2 0.1
v -0.7 0.2 0
v -0.7 0 0
v -0.7 0 0.1
v -0.8 0 0.1
v -0.8 0 0
v -0.8 0.3 0
v -0.8 0.3 0.1
v -0.9 0.3 0.1
v -0.9 0.3 0
v 0.3 0.8 -0.1
v 0.3 0.8 0
v 0.2 0.8 0
v 0.2 0.8 -0.1
v 0.3 1.2 -0.1
v 0.2 1.2 -0.1
v 0.2 0.2 -0.1
v 0.2 0.2 0
v -0.2 0.2 0
v -0.2 0.2 -0.1
v 0.2 0.6 -0.1
v -0.2 0.6 -0.1
v -0.2 0.8 -0.1
v -0.2 0.8 0
v -0.3 0.8 0
v -0.3 0.8 -0.1
v -0.2 1.2 -0.1
v -0.3 1.2 -0.1
v 0.3 1.2 -0.2
v 0.2 1.2 -0.2
v 0.1 0.4 -0.2
v 0.1 0.4 -0.1
v -0.1 0.4 -0.1
v -0.1 0.4 -0.2
v 0.2 0.8 -0.2
v -0.2 0.8 -0.2
v -0.2 1.2 -0.2
v -0.3 1.2 -0.2
v 0 0.3 -0.3
v 0 0.3 -0.2
v -0.1 0.3 -0.2
v -0.1 0.3 -0.3
v 0 0.6 -0.3
v 0 0.6 -0.2
v -0.1 0.6 -0.3
v 0 0.8 -0.3
v 0 0.8 -0.2
v -0.1 0.8 -0.2
v -0.1 0.8 -0.3
v 0.2 0.3 -0.4
v 0.2 0.3 -0.3
v 0.1 0.3 -0.3
v 0.1 0.3 -0.4
v 0.1 0.2 -0.4
v 0.1 0.2 -0.3
v 0 0.2 -0.3
v 0 0.2 -0.4
v 0.1 0.6 -0.4
v 0.1 0.6 -0.3
v 0 0.6 -0.4
v 0.1 0.8 -0.4
v 0.1 0.8 -0.3
v 0 0.8 -0.4
v 0 0.1 -0.4
v 0 0.1 -0.3
v -0.1 0.1 -0.3
v -0.1 0.1 -0.4
v -0.1 0.3 -0.4
v -0.2 0.3 -0.3
v -0.2 0.3 -0.4
v 0 0.3 -0.5
v 0 0.3 -0.4
v -0.1 0.3 -0.5
v 0 0.6 -0.5
v -0.1 0.6 -0.4
v -0.1 0.6 -0.5
v 0 0.8 -0.5
v -0.1 0.8 -0.4
v -0.1 0.8 -0.5
v 0.1 0.1 0
v -0.2 0.1 0
v -0.1 0.2 -0.3
v -0.1 0.2 -0.4
v -0.2 0.3 0.2
v -0.2 0.3 0
v -0.2 0.4 0.1
v -0.2 0.3 0.1
v -0.2 0.5 0.2
v -0.2 0.5 0.1
v -0.2 0.5 0
v -0.2 0.6 0.2
v -0.3 0.7 0
v -0.2 0.7 0
v -0.2 0.7 -0.1
v -0.8 0.9 0.1
v -0.8 0.9 0
v -0.3 1 0.2
v 0.2 0.1 0
v -0.1 0.1 0
v 0.2 0.3 0.2
v 0.2 0.5 0.2
v 0.2 0.5 0.1
v 0.2 0.5 0
v 0.2 0.6 0.2
v 0.3 0.7 0
v -0.6 0.7 0.1
v -0.6 0.7 0
v 0.2 0.7 0
v 0.2 0.7 -0.1
v -0.7 0.9 0.1
v -0.7 0.9 0
v 0.3 1 0.2
v 0.1 0.2 0
v 0 0.4 -0.4
v 0 0.4 -0.2
v -0.1 0.2 0
v -0.7 0.3 0
v -0.7 0.7 0
v -0.8 0.4 0
v -0.7 0.4 0
v 0.1 0.4 0.2
v 0.2 0.4 0.2
v 0.1 0.5 0.2
v 0.1 0.9 0.2
v 0 0.4 -0.3
v 0 0.7 0.2
v 0 0.9 0.2
v -0.1 0.4 0.2
v -0.1 0.5 0.2
v 0 0.8 0.2
v -0.1 0.9 0.2
v -0.2 0.4 0.2
v -0.7 0.3 0.1
v -0.7 0.7 0.1
v -0.7 0.4 0.1
v -0.8 0.4 0.1

vt 0.00195313 0.5
vt 0.0136719 0.5
vt 0.0292969 0.5
vt 0.0332031 0.5
vt 0.0371094 0.5
vt 0.0410156 0.5
vt 0.0605469 0.5
vt 0.0683594 0.5
vt 0.0761719 0.5
vt 0.107422 0.5
vt 0.123047 0.5
vt 0.158203 0.5
vt 0.162109 0.5
vt 0.166016 0.5

vn 0 1 0
vn 0 -1 0
vn -1 0 0
vn 1 0 0
vn 0 0 -1
vn 0 0 1

usemtl palette
f 1/13/1 2/13/1 4/13/1
f 4/13/1 2/13/1 3/13/1
f 5/13/1 6/13/1 8/13/1
f 8/13/1 6/13/1 7/13/1
f 9/13/1 10/13/1 12/13/1
f 12/13/1 10/13/1 11/13/1
f 13/13/1 14/13/1 16/13/1
f 16/13/1 14/13/1 15/13/1
f 17/13/1 18/13/1 20/13/1
f 20/13/1 18/13/1 19/13/1
f 21/13/1 22/13/1 24/13/1
f 24/13/1 22/13/1 23/13/1
f 25/8/1 26/8/1 28/8/1
f 28/8/1 26/8/1 27/8/1
f 29/8/1 30/8/1 32/8/1
f 32/8/1 30/8/1 31/8/1
f 33/3/1 34/3/1 36/3/1
f 36/3/1 34/3/1 35/3/1
f 37/14/1 38/14/1 40/14/1
f 40/14/1 38/14/1 39/14/1
f 41/13/1 42/13/1 44/13/1
f 44/13/1 42/13/1 43/13/1
f 45/8/1 46/8/1 48/8/1
f 48/8/1 46/8/1 47/8/1
f 49/13/1 50/13/1 27/13/1
f 27/13/1 50/13/1 32/13/1
f 51/13/1 52/13/1 54/13/1
f 54/13/1 52/13/1 53/13/1
f 55/8/1 56/8/1 58/8/1
f 58/8/1 56/8/1 57/8/1
f 59/3/1 60/3/1 62/3/1
f 62/3/1 60/3/1 61/3/1
f 63/3/1 64/3/1 66/3/1
f 66/3/1 64/3/1 65/3/1
f 67/14/1 68/14/1 70/14/1
f 70/14/1 68/14/1 69/14/1
f 71/7/1 72/7/1 74/7/1
f 74/7/1 72/7/1 73/7/1
f 75/9/1 76/9/1 78/9/1
f 78/9/1 76/9/1 77/9/1
f 79/3/1 80/3/1 82/3/1
f 82/3/1 80/3/1 81/3/1
f 83/13/1 84/13/1 86/13/1
f 86/13/1 84/13/1 85/13/1
f 87/8/1 88/8/1 90/8/1
f 90/8/1 88/8/1 89/8/1
f 91/13/1 92/13/1 42/13/1
f 42/13/1 92/13/1 93/13/1
f 94/13/1 95/13/1 97/13/1
f 97/13/1 95/13/1 96/13/1
f 98/3/1 99/3/1 38/3/1
f 38/3/1 99/3/1 100/3/1
f 101/13/1 102/13/1 103/13/1
f 103/13/1 102/13/1 51/13/1
f 104/13/1 105/13/1 107/13/1
f 107/13/1 105/13/1 106/13/1
f 108/8/1 109/8/1 111/8/1
f 111/8/1 109/8/1 110/8/1
f 112/12/1 113/12/1 87/12/1
f 87/12/1 113/12/1 88/12/1
f 114/13/1 115/13/1 84/13/1
f 84/13/1 115/13/1 116/13/1
f 117/5/1 118/5/1 120/5/1
f 120/5/1 118/5/1 119/5/1
f 121/13/1 122/13/1 92/13/1
f 92/13/1 122/13/1 101/13/1
f 123/13/1 124/13/1 125/13/1
f 125/13/1 124/13/1 104/13/1
f 126/12/1 127/12/1 108/12/1
f 108/12/1 127/12/1 109/12/1
f 128/6/1 129/6/1 131/6/1
f 131/6/1 129/6/1 130/6/1
f 132/6/1 133/6/1 135/6/1
f 135/6/1 133/6/1 134/6/1
f 136/6/1 137/6/1 138/6/1
f 138/6/1 137/6/1 123/6/1
f 139/5/1 140/5/1 142/5/1
f 142/5/1 140/5/1 141/5/1
f 143/6/1 144/6/1 145/6/1
f 145/6/1 144/6/1 128/6/1
f 146/6/1 147/6/1 148/6/1
f 148/6/1 147/6/1 132/6/1
f 149/6/1 150/6/1 151/6/1
f 151/6/1 150/6/1 136/6/1
f 144/10/1 152/10/1 128/10/1
f 128/10/1 152/10/1 129/10/1
f 153/12/1 154/12/1 137/12/1
f 137/12/1 154/12/1 155/12/1
f 156/6/1 157/6/1 144/6/1
f 144/6/1 157/6/1 152/6/1
f 158/6/1 159/6/1 147/6/1
f 147/6/1 159/6/1 160/6/1
f 161/6/1 162/6/1 150/6/1
f 150/6/1 162/6/1 153/6/1
f 163/13/2 164/13/2 5/13/2
f 5/13/2 164/13/2 8/13/2
f 165/13/2 166/13/2 9/13/2
f 9/13/2 166/13/2 12/13/2
f 167/13/2 168/13/2 170/13/2
f 170/13/2 168/13/2 169/13/2
f 10/13/2 11/13/2 172/13/2
f 172/13/2 11/13/2 171/13/2
f 2/13/2 3/13/2 21/13/2
f 21/13/2 3/13/2 24/13/2
f 14/13/2 15/13/2 174/13/2
f 174/13/2 15/13/2 173/13/2
f 175/13/2 176/13/2 177/13/2
f 177/13/2 176/13/2 165/13/2
f 178/12/2 179/12/2 181/12/2
f 181/12/2 179/12/2 180/12/2
f 182/3/2 183/3/2 185/3/2
f 185/3/2 183/3/2 184/3/2
f 186/12/2 187/12/2 189/12/2
f 189/12/2 187/12/2 188/12/2
f 190/13/2 172/13/2 192/13/2
f 192/13/2 172/13/2 191/13/2
f 193/3/2 194/3/2 37/3/2
f 37/3/2 194/3/2 40/3/2
f 195/14/2 196/14/2 198/14/2
f 198/14/2 196/14/2 197/14/2
f 34/5/2 35/5/2 200/5/2
f 200/5/2 35/5/2 199/5/2
f 201/8/2 25/8/2 49/8/2
f 49/8/2 25/8/2 26/8/2
f 202/3/2 203/3/2 205/3/2
f 205/3/2 203/3/2 204/3/2
f 206/4/2 182/4/2 207/4/2
f 207/4/2 182/4/2 185/4/2
f 208/3/2 209/3/2 211/3/2
f 211/3/2 209/3/2 210/3/2
f 212/5/2 213/5/2 59/5/2
f 59/5/2 213/5/2 62/5/2
f 50/8/2 29/8/2 214/8/2
f 214/8/2 29/8/2 30/8/2
f 215/3/2 216/3/2 63/3/2
f 63/3/2 216/3/2 66/3/2
f 217/3/2 218/3/2 67/3/2
f 67/3/2 218/3/2 70/3/2
f 219/14/2 220/14/2 222/14/2
f 222/14/2 220/14/2 221/14/2
f 223/7/2 224/7/2 226/7/2
f 226/7/2 224/7/2 225/7/2
f 227/4/2 228/4/2 230/4/2
f 230/4/2 228/4/2 229/4/2
f 231/3/2 232/3/2 234/3/2
f 234/3/2 232/3/2 233/3/2
f 235/13/2 236/13/2 238/13/2
f 238/13/2 236/13/2 237/13/2
f 239/8/2 45/8/2 240/8/2
f 240/8/2 45/8/2 46/8/2
f 241/3/2 242/3/2 244/3/2
f 244/3/2 242/3/2 243/3/2
f 245/3/2 200/3/2 246/3/2
f 246/3/2 200/3/2 212/3/2
f 247/13/2 248/13/2 250/13/2
f 250/13/2 248/13/2 249/13/2
f 251/8/2 55/8/2 252/8/2
f 252/8/2 55/8/2 56/8/2
f 253/12/2 239/12/2 254/12/2
f 254/12/2 239/12/2 240/12/2
f 255/5/2 256/5/2 258/5/2
f 258/5/2 256/5/2 257/5/2
f 259/13/2 238/13/2 260/13/2
f 260/13/2 238/13/2 247/13/2
f 261/12/2 251/12/2 262/12/2
f 262/12/2 251/12/2 252/12/2
f 263/6/2 264/6/2 266/6/2
f 266/6/2 264/6/2 265/6/2
f 267/6/2 268/6/2 269/6/2
f 269/6/2 268/6/2 118/6/2
f 270/6/2 271/6/2 273/6/2
f 273/6/2 271/6/2 272/6/2
f 274/5/2 275/5/2 277/5/2
f 277/5/2 275/5/2 276/5/2
f 278/5/2 279/5/2 281/5/2
f 281/5/2 279/5/2 280/5/2
f 282/6/2 283/6/2 284/6/2
f 284/6/2 283/6/2 267/6/2
f 285/6/2 286/6/2 287/6/2
f 287/6/2 286/6/2 270/6/2
f 288/5/2 289/5/2 291/5/2
f 291/5/2 289/5/2 290/5/2
f 292/12/2 266/12/2 294/12/2
f 294/12/2 266/12/2 293/12/2
f 295/6/2 296/6/2 297/6/2
f 297/6/2 296/6/2 292/6/2
f 298/6/2 284/6/2 300/6/2
f 300/6/2 284/6/2 299/6/2
f 301/6/2 287/6/2 303/6/2
f 303/6/2 287/6/2 302/6/2
f 181/3/3 304/3/3 204/3/3
f 204/3/3 304/3/3 205/3/3
f 189/3/3 305/3/3 210/3/3
f 210/3/3 305/3/3 211/3/3
f 306/5/3 307/5/3 290/5/3
f 290/5/3 307/5/3 291/5/3
f 183/12/3 206/12/3 180/12/3
f 180/12/3 206/12/3 304/12/3
f 308/12/3 309/12/3 188/12/3
f 188/12/3 309/12/3 305/12/3
f 232/4/3 231/4/3 229/4/3
f 229/4/3 231/4/3 230/4/3
f 266/12/3 292/12/3 306/12/3
f 306/12/3 292/12/3 307/12/3
f 310/3/3 100/3/3 311/3/3
f 311/3/3 100/3/3 309/3/3
f 100/3/3 99/3/3 243/3/3
f 243/3/3 99/3/3 244/3/3
f 312/3/3 313/3/3 308/3/3
f 308/3/3 313/3/3 311/3/3
f 313/12/3 314/12/3 310/12/3
f 310/12/3 314/12/3 100/12/3
f 65/3/3 64/3/3 70/3/3
f 70/3/3 64/3/3 67/3/3
f 130/6/3 129/6/3 265/6/3
f 265/6/3 129/6/3 266/6/3
f 152/6/3 157/6/3 292/6/3
f 292/6/3 157/6/3 297/6/3
f 315/12/3 213/12/3 312/12/3
f 312/12/3 213/12/3 313/12/3
f 35/3/3 34/3/3 40/3/3
f 40/3/3 34/3/3 37/3/3
f 213/3/3 212/3/3 313/3/3
f 313/3/3 212/3/3 314/3/3
f 61/3/3 60/3/3 66/3/3
f 66/3/3 60/3/3 63/3/3
f 119/5/3 118/5/3 257/5/3
f 257/5/3 118/5/3 258/5/3
f 11/13/3 10/13/3 169/13/3
f 169/13/3 10/13/3 170/13/3
f 172/3/3 190/3/3 315/3/3
f 315/3/3 190/3/3 213/3/3
f 192/5/3 316/5/3 62/5/3
f 62/5/3 316/5/3 59/5/3
f 81/3/3 80/3/3 233/3/3
f 233/3/3 80/3/3 234/3/3
f 317/3/3 318/3/3 212/3/3
f 212/3/3 318/3/3 246/3/3
f 134/6/3 133/6/3 118/6/3
f 118/6/3 133/6/3 269/6/3
f 132/6/3 147/6/3 267/6/3
f 267/6/3 147/6/3 284/6/3
f 160/6/3 159/6/3 299/6/3
f 299/6/3 159/6/3 300/6/3
f 7/13/3 6/13/3 12/13/3
f 12/13/3 6/13/3 9/13/3
f 15/13/3 14/13/3 171/13/3
f 171/13/3 14/13/3 172/13/3
f 248/13/3 247/13/3 317/13/3
f 317/13/3 247/13/3 318/13/3
f 3/13/3 2/13/3 8/13/3
f 8/13/3 2/13/3 5/13/3
f 23/13/3 22/13/3 173/13/3
f 173/13/3 22/13/3 174/13/3
f 319/8/3 320/8/3 82/8/3
f 82/8/3 320/8/3 79/8/3
f 106/13/3 105/13/3 249/13/3
f 249/13/3 105/13/3 250/13/3
f 104/13/3 124/13/3 247/13/3
f 247/13/3 124/13/3 260/13/3
f 123/6/3 137/6/3 272/6/3
f 272/6/3 137/6/3 273/6/3
f 136/6/3 150/6/3 270/6/3
f 270/6/3 150/6/3 287/6/3
f 155/12/3 154/12/3 293/12/3
f 293/12/3 154/12/3 294/12/3
f 153/6/3 162/6/3 302/6/3
f 302/6/3 162/6/3 303/6/3
f 19/13/3 18/13/3 24/13/3
f 24/13/3 18/13/3 21/13/3
f 321/13/3 52/13/3 191/13/3
f 191/13/3 52/13/3 316/13/3
f 77/9/3 76/9/3 319/9/3
f 319/9/3 76/9/3 320/9/3
f 51/13/3 102/13/3 107/13/3
f 107/13/3 102/13/3 104/13/3
f 101/13/3 122/13/3 125/13/3
f 125/13/3 122/13/3 123/13/3
f 31/8/3 30/8/3 321/8/3
f 321/8/3 30/8/3 53/8/3
f 29/13/3 50/13/3 54/13/3
f 54/13/3 50/13/3 51/13/3
f 96/13/3 95/13/3 103/13/3
f 103/13/3 95/13/3 101/13/3
f 47/8/3 46/8/3 26/8/3
f 26/8/3 46/8/3 49/8/3
f 57/8/3 56/8/3 30/8/3
f 30/8/3 56/8/3 214/8/3
f 89/8/3 88/8/3 46/8/3
f 46/8/3 88/8/3 240/8/3
f 110/8/3 109/8/3 56/8/3
f 56/8/3 109/8/3 252/8/3
f 88/12/3 113/12/3 240/12/3
f 240/12/3 113/12/3 254/12/3
f 109/12/3 127/12/3 252/12/3
f 252/12/3 127/12/3 262/12/3
f 178/3/4 203/3/4 322/3/4
f 322/3/4 203/3/4 202/3/4
f 186/3/4 209/3/4 323/3/4
f 323/3/4 209/3/4 208/3/4
f 225/4/4 228/4/4 226/4/4
f 226/4/4 228/4/4 227/4/4
f 280/5/4 289/5/4 281/5/4
f 281/5/4 289/5/4 288/5/4
f 324/12/4 179/12/4 198/12/4
f 198/12/4 179/12/4 322/12/4
f 184/12/4 187/12/4 207/12/4
f 207/12/4 187/12/4 323/12/4
f 221/7/4 224/7/4 222/7/4
f 222/7/4 224/7/4 223/7/4
f 276/5/4 279/5/4 277/5/4
f 277/5/4 279/5/4 278/5/4
f 40/14/4 196/14/4 37/14/4
f 37/14/4 196/14/4 195/14/4
f 70/14/4 220/14/4 67/14/4
f 67/14/4 220/14/4 219/14/4
f 38/3/4 242/3/4 98/3/4
f 98/3/4 242/3/4 241/3/4
f 142/5/4 275/5/4 139/5/4
f 139/5/4 275/5/4 274/5/4
f 325/3/4 324/3/4 326/3/4
f 326/3/4 324/3/4 197/3/4
f 326/12/4 39/12/4 327/12/4
f 327/12/4 39/12/4 38/12/4
f 66/3/4 218/3/4 63/3/4
f 63/3/4 218/3/4 217/3/4
f 131/6/4 264/6/4 128/6/4
f 128/6/4 264/6/4 263/6/4
f 145/6/4 141/6/4 143/6/4
f 143/6/4 141/6/4 140/6/4
f 144/6/4 296/6/4 156/6/4
f 156/6/4 296/6/4 295/6/4
f 328/12/4 325/12/4 199/12/4
f 199/12/4 325/12/4 326/12/4
f 36/3/4 194/3/4 33/3/4
f 33/3/4 194/3/4 193/3/4
f 199/3/4 326/3/4 200/3/4
f 200/3/4 326/3/4 327/3/4
f 62/3/4 216/3/4 59/3/4
f 59/3/4 216/3/4 215/3/4
f 120/5/4 256/5/4 117/5/4
f 117/5/4 256/5/4 255/5/4
f 12/13/4 168/13/4 9/13/4
f 9/13/4 168/13/4 167/13/4
f 165/3/4 328/3/4 177/3/4
f 177/3/4 328/3/4 199/3/4
f 175/5/4 35/5/4 329/5/4
f 329/5/4 35/5/4 34/5/4
f 330/3/4 69/3/4 331/3/4
f 331/3/4 69/3/4 68/3/4
f 332/3/4 200/3/4 333/3/4
f 333/3/4 200/3/4 245/3/4
f 135/6/4 268/6/4 132/6/4
f 132/6/4 268/6/4 267/6/4
f 148/6/4 283/6/4 146/6/4
f 146/6/4 283/6/4 282/6/4
f 147/6/4 284/6/4 158/6/4
f 158/6/4 284/6/4 298/6/4
f 8/13/4 166/13/4 5/13/4
f 5/13/4 166/13/4 165/13/4
f 16/13/4 11/13/4 13/13/4
f 13/13/4 11/13/4 10/13/4
f 74/7/4 330/7/4 71/7/4
f 71/7/4 330/7/4 331/7/4
f 237/13/4 332/13/4 238/13/4
f 238/13/4 332/13/4 333/13/4
f 4/13/4 164/13/4 1/13/4
f 1/13/4 164/13/4 163/13/4
f 24/13/4 15/13/4 21/13/4
f 21/13/4 15/13/4 14/13/4
f 334/8/4 73/8/4 335/8/4
f 335/8/4 73/8/4 72/8/4
f 86/13/4 236/13/4 83/13/4
f 83/13/4 236/13/4 235/13/4
f 84/13/4 238/13/4 114/13/4
f 114/13/4 238/13/4 259/13/4
f 138/6/4 271/6/4 136/6/4
f 136/6/4 271/6/4 270/6/4
f 151/6/4 286/6/4 149/6/4
f 149/6/4 286/6/4 285/6/4
f 137/12/4 129/12/4 153/12/4
f 153/12/4 129/12/4 152/12/4
f 150/6/4 287/6/4 161/6/4
f 161/6/4 287/6/4 301/6/4
f 20/13/4 3/13/4 17/13/4
f 17/13/4 3/13/4 2/13/4
f 336/13/4 176/13/4 41/13/4
f 41/13/4 176/13/4 329/13/4
f 78/9/4 334/9/4 75/9/4
f 75/9/4 334/9/4 335/9/4
f 42/13/4 85/13/4 91/13/4
f 91/13/4 85/13/4 84/13/4
f 92/13/4 116/13/4 121/13/4
f 121/13/4 116/13/4 115/13/4
f 28/8/4 336/8/4 25/8/4
f 25/8/4 336/8/4 44/8/4
f 26/13/4 43/13/4 49/13/4
f 49/13/4 43/13/4 42/13/4
f 97/13/4 93/13/4 94/13/4
f 94/13/4 93/13/4 92/13/4
f 48/8/4 25/8/4 45/8/4
f 45/8/4 25/8/4 201/8/4
f 58/8/4 29/8/4 55/8/4
f 55/8/4 29/8/4 50/8/4
f 90/8/4 45/8/4 87/8/4
f 87/8/4 45/8/4 239/8/4
f 111/8/4 55/8/4 108/8/4
f 108/8/4 55/8/4 251/8/4
f 87/12/4 239/12/4 112/12/4
f 112/12/4 239/12/4 253/12/4
f 108/12/4 251/12/4 126/12/4
f 126/12/4 251/12/4 261/12/4
f 37/3/5 34/3/5 193/3/5
f 193/3/5 34/3/5 33/3/5
f 198/14/5 38/14/5 195/14/5
f 195/14/5 38/14/5 37/14/5
f 200/5/5 332/5/5 34/5/5
f 34/5/5 332/5/5 329/5/5
f 332/13/5 237/13/5 329/13/5
f 329/13/5 237/13/5 236/13/5
f 238/13/5 84/13/5 235/13/5
f 235/13/5 84/13/5 83/13/5
f 85/13/5 42/13/5 86/13/5
f 86/13/5 42/13/5 41/13/5
f 43/8/5 26/8/5 44/8/5
f 44/8/5 26/8/5 25/8/5
f 49/8/5 46/8/5 201/8/5
f 201/8/5 46/8/5 45/8/5
f 254/12/5 113/12/5 253/12/5
f 253/12/5 113/12/5 112/12/5
f 205/3/5 304/3/5 202/3/5
f 202/3/5 304/3/5 322/3/5
f 304/12/5 337/12/5 322/12/5
f 322/12/5 337/12/5 242/12/5
f 116/13/5 92/13/5 84/13/5
f 84/13/5 92/13/5 91/13/5
f 93/13/5 97/13/5 42/13/5
f 42/13/5 97/13/5 49/13/5
f 281/5/5 296/5/5 278/5/5
f 278/5/5 296/5/5 277/5/5
f 296/5/5 338/5/5 274/5/5
f 274/5/5 338/5/5 139/5/5
f 338/6/5 144/6/5 140/6/5
f 140/6/5 144/6/5 143/6/5
f 339/5/5 268/5/5 255/5/5
f 255/5/5 268/5/5 117/5/5
f 284/6/5 147/6/5 282/6/5
f 282/6/5 147/6/5 146/6/5
f 271/13/5 138/13/5 259/13/5
f 259/13/5 138/13/5 114/13/5
f 287/6/5 150/6/5 285/6/5
f 285/6/5 150/6/5 149/6/5
f 291/5/5 307/5/5 288/5/5
f 288/5/5 307/5/5 281/5/5
f 307/12/5 292/12/5 281/12/5
f 281/12/5 292/12/5 296/12/5
f 297/6/5 157/6/5 295/6/5
f 295/6/5 157/6/5 156/6/5
f 130/5/5 118/5/5 131/5/5
f 131/5/5 118/5/5 268/5/5
f 269/6/5 133/6/5 267/6/5
f 267/6/5 133/6/5 132/6/5
f 300/6/5 159/6/5 298/6/5
f 298/6/5 159/6/5 158/6/5
f 273/6/5 137/6/5 270/6/5
f 270/6/5 137/6/5 136/6/5
f 303/6/5 162/6/5 301/6/5
f 301/6/5 162/6/5 161/6/5
f 123/13/5 122/13/5 115/13/5
f 115/13/5 122/13/5 121/13/5
f 101/13/5 95/13/5 92/13/5
f 92/13/5 95/13/5 94/13/5
f 211/3/5 305/3/5 208/3/5
f 208/3/5 305/3/5 323/3/5
f 305/12/5 243/12/5 323/12/5
f 323/12/5 243/12/5 340/12/5
f 244/3/5 99/3/5 241/3/5
f 241/3/5 99/3/5 98/3/5
f 100/12/5 314/12/5 38/12/5
f 38/12/5 314/12/5 327/12/5
f 314/3/5 212/3/5 327/3/5
f 327/3/5 212/3/5 200/3/5
f 246/3/5 318/3/5 245/3/5
f 245/3/5 318/3/5 333/3/5
f 318/13/5 247/13/5 333/13/5
f 333/13/5 247/13/5 238/13/5
f 260/13/5 124/13/5 272/13/5
f 272/13/5 124/13/5 123/13/5
f 294/12/5 154/12/5 292/12/5
f 292/12/5 154/12/5 153/12/5
f 104/13/5 102/13/5 125/13/5
f 125/13/5 102/13/5 101/13/5
f 51/13/5 50/13/5 103/13/5
f 103/13/5 50/13/5 96/13/5
f 59/5/5 316/5/5 212/5/5
f 212/5/5 316/5/5 317/5/5
f 316/13/5 249/13/5 317/13/5
f 317/13/5 249/13/5 248/13/5
f 250/13/5 105/13/5 247/13/5
f 247/13/5 105/13/5 104/13/5
f 106/13/5 52/13/5 107/13/5
f 107/13/5 52/13/5 51/13/5
f 53/8/5 30/8/5 54/8/5
f 54/8/5 30/8/5 29/8/5
f 214/8/5 56/8/5 50/8/5
f 50/8/5 56/8/5 55/8/5
f 262/12/5 127/12/5 261/12/5
f 261/12/5 127/12/5 126/12/5
f 63/3/5 60/3/5 215/3/5
f 215/3/5 60/3/5 59/3/5
f 67/3/5 64/3/5 217/3/5
f 217/3/5 64/3/5 63/3/5
f 222/14/5 68/14/5 219/14/5
f 219/14/5 68/14/5 67/14/5
f 226/7/5 341/7/5 223/7/5
f 223/7/5 341/7/5 222/7/5
f 341/3/5 342/3/5 222/3/5
f 222/3/5 342/3/5 331/3/5
f 342/7/5 72/7/5 331/7/5
f 331/7/5 72/7/5 71/7/5
f 230/4/5 343/4/5 227/4/5
f 227/4/5 343/4/5 344/4/5
f 343/8/5 320/8/5 344/8/5
f 344/8/5 320/8/5 335/8/5
f 320/9/5 76/9/5 335/9/5
f 335/9/5 76/9/5 75/9/5
f 234/3/5 80/3/5 231/3/5
f 231/3/5 80/3/5 79/3/5
f 40/3/6 194/3/6 35/3/6
f 35/3/6 194/3/6 36/3/6
f 197/14/6 196/14/6 39/14/6
f 39/14/6 196/14/6 40/14/6
f 199/5/6 35/5/6 177/5/6
f 177/5/6 35/5/6 175/5/6
f 165/13/6 176/13/6 5/13/6
f 5/13/6 176/13/6 163/13/6
f 8/13/6 164/13/6 3/13/6
f 3/13/6 164/13/6 4/13/6
f 2/13/6 1/13/6 17/13/6
f 17/13/6 1/13/6 336/13/6
f 17/8/6 336/8/6 27/8/6
f 27/8/6 336/8/6 28/8/6
f 26/8/6 25/8/6 47/8/6
f 47/8/6 25/8/6 48/8/6
f 46/8/6 45/8/6 89/8/6
f 89/8/6 45/8/6 90/8/6
f 204/3/6 203/3/6 181/3/6
f 181/3/6 203/3/6 178/3/6
f 180/12/6 179/12/6 183/12/6
f 183/12/6 179/12/6 324/12/6
f 345/3/6 346/3/6 347/3/6
f 347/3/6 346/3/6 325/3/6
f 347/12/6 325/12/6 167/12/6
f 167/12/6 325/12/6 328/12/6
f 167/3/6 328/3/6 9/3/6
f 9/3/6 328/3/6 165/3/6
f 12/13/6 166/13/6 7/13/6
f 7/13/6 166/13/6 8/13/6
f 6/1/6 5/1/6 348/1/6
f 348/1/6 5/1/6 2/1/6
f 280/5/6 279/5/6 263/5/6
f 263/5/6 279/5/6 276/5/6
f 263/5/6 275/5/6 349/5/6
f 349/5/6 275/5/6 142/5/6
f 349/6/6 141/6/6 128/6/6
f 128/6/6 141/6/6 145/6/6
f 267/6/6 283/6/6 132/6/6
f 132/6/6 283/6/6 148/6/6
f 350/11/6 9/11/6 351/11/6
f 351/11/6 9/11/6 348/11/6
f 270/6/6 286/6/6 136/6/6
f 136/6/6 286/6/6 151/6/6
f 290/5/6 289/5/6 306/5/6
f 306/5/6 289/5/6 280/5/6
f 340/3/6 337/3/6 207/3/6
f 207/3/6 337/3/6 206/3/6
f 306/12/6 280/12/6 266/12/6
f 266/12/6 280/12/6 263/12/6
f 265/6/6 264/6/6 258/6/6
f 258/6/6 264/6/6 339/6/6
f 352/12/6 345/12/6 353/12/6
f 353/12/6 345/12/6 347/12/6
f 353/3/6 347/3/6 170/3/6
f 170/3/6 347/3/6 167/3/6
f 257/5/6 256/5/6 119/5/6
f 119/5/6 256/5/6 120/5/6
f 169/13/6 168/13/6 11/13/6
f 11/13/6 168/13/6 12/13/6
f 118/6/6 268/6/6 134/6/6
f 134/6/6 268/6/6 135/6/6
f 299/6/6 284/6/6 160/6/6
f 160/6/6 284/6/6 147/6/6
f 10/2/6 350/2/6 13/2/6
f 13/2/6 350/2/6 354/2/6
f 13/11/6 354/11/6 355/11/6
f 355/11/6 354/11/6 351/11/6
f 302/6/6 287/6/6 153/6/6
f 153/6/6 287/6/6 150/6/6
f 210/3/6 209/3/6 189/3/6
f 189/3/6 209/3/6 186/3/6
f 188/12/6 187/12/6 308/12/6
f 308/12/6 187/12/6 184/12/6
f 308/3/6 324/3/6 356/3/6
f 356/3/6 324/3/6 346/3/6
f 356/3/6 352/3/6 312/3/6
f 312/3/6 352/3/6 353/3/6
f 312/12/6 353/12/6 315/12/6
f 315/12/6 353/12/6 170/12/6
f 315/3/6 170/3/6 172/3/6
f 172/3/6 170/3/6 10/3/6
f 171/13/6 11/13/6 15/13/6
f 15/13/6 11/13/6 16/13/6
f 14/1/6 13/1/6 21/1/6
f 21/1/6 13/1/6 355/1/6
f 293/12/6 266/12/6 155/12/6
f 155/12/6 266/12/6 137/12/6
f 24/13/6 3/13/6 19/13/6
f 19/13/6 3/13/6 20/13/6
f 18/13/6 17/13/6 32/13/6
f 32/13/6 17/13/6 27/13/6
f 62/5/6 213/5/6 192/5/6
f 192/5/6 213/5/6 190/5/6
f 191/13/6 172/13/6 174/13/6
f 174/13/6 172/13/6 14/13/6
f 173/13/6 15/13/6 23/13/6
f 23/13/6 15/13/6 24/13/6
f 22/13/6 21/13/6 321/13/6
f 321/13/6 21/13/6 18/13/6
f 321/8/6 18/8/6 31/8/6
f 31/8/6 18/8/6 32/8/6
f 30/8/6 29/8/6 57/8/6
f 57/8/6 29/8/6 58/8/6
f 56/8/6 55/8/6 110/8/6
f 110/8/6 55/8/6 111/8/6
f 66/3/6 216/3/6 61/3/6
f 61/3/6 216/3/6 62/3/6
f 70/3/6 218/3/6 65/3/6
f 65/3/6 218/3/6 66/3/6
f 221/14/6 220/14/6 69/14/6
f 69/14/6 220/14/6 70/14/6
f 225/7/6 224/7/6 357/7/6
f 357/7/6 224/7/6 221/7/6
f 357/3/6 221/3/6 358/3/6
f 358/3/6 221/3/6 330/3/6
f 358/7/6 330/7/6 73/7/6
f 73/7/6 330/7/6 74/7/6
f 229/4/6 228/4/6 360/4/6
f 360/4/6 228/4/6 359/4/6
f 360/8/6 359/8/6 319/8/6
f 319/8/6 359/8/6 334/8/6
f 319/9/6 334/9/6 77/9/6
f 77/9/6 334/9/6 78/9/6
f 233/3/6 232/3/6 81/3/6
f 81/3/6 232/3/6 82/3/6
