# Vengi binary mesh normalized for Tanks of Freedom II

mtllib ../../materials/vox_building.mtl
o mobile_infantry

v 0.1 0.8 1.2
v -0.1 0.8 1.2
v -0.1 0.8 1.3
v 0.1 0.8 1.3
v 0.2 0.8 1.1
v 0.1 0.8 1.1
v 0.2 0.8 1.2
v -0.1 0.8 1.1
v -0.2 0.8 1.1
v -0.2 0.8 1.2
v 0.3 0.7 1
v 0.2 0.7 1
v 0.2 0.7 1.1
v 0.3 0.7 1.1
v 0.1 0.9 1
v -0.1 0.9 1
v -0.1 0.9 1.2
v 0.1 0.9 1.2
v -0.2 0.7 1
v -0.3 0.7 1
v -0.3 0.7 1.1
v -0.2 0.7 1.1
v 0.2 0.9 0.9
v 0.1 0.9 0.9
v 0.1 0.9 1.1
v 0.2 0.9 1.1
v -0.1 0.9 0.9
v -0.2 0.9 0.9
v -0.2 0.9 1.1
v -0.1 0.9 1.1
v 0.1 1 0.8
v -0.1 1 0.8
v -0.1 1 1
v 0.1 1 1
v 0.2 1 0.7
v 0.1 1 0.7
v 0.1 1 0.9
v 0.2 1 0.9
v -0.1 1 0.7
v -0.2 1 0.7
v -0.2 1 0.9
v -0.1 1 0.9
v 0.1 1.1 0.6
v -0.1 1.1 0.6
v -0.1 1.1 0.8
v 0.1 1.1 0.8
v 0.3 0.5 0.5
v 0.2 0.5 0.5
v 0.2 0.5 0.6
v 0.3 0.5 0.6
v 0.3 0.8 0.5
v 0.2 0.8 0.5
v 0.2 0.8 1
v 0.3 0.8 1
v 0.2 1.1 0.5
v 0.1 1.1 0.5
v 0.1 1.1 0.7
v 0.2 1.1 0.7
v -0.1 1.1 0.5
v -0.2 1.1 0.5
v -0.2 1.1 0.7
v -0.1 1.1 0.7
v -0.2 0.5 0.5
v -0.3 0.5 0.5
v -0.3 0.5 0.6
v -0.2 0.5 0.6
v -0.2 0.8 0.5
v -0.3 0.8 0.5
v -0.3 0.8 1
v -0.2 0.8 1
v 0.2 0.9 0.4
v 0.1 0.9 0.4
v 0.1 0.9 0.5
v 0.2 0.9 0.5
v -0.1 0.9 0.4
v -0.2 0.9 0.4
v -0.2 0.9 0.5
v -0.1 0.9 0.5
v 0.3 0.9 0.3
v 0.2 0.9 0.3
v 0.3 0.9 0.4
v 0.2 1.1 0.3
v 0.1 1.1 0.3
v 0.1 0.9 0.3
v -0.1 0.9 0.3
v 0.1 1.2 0.3
v -0.1 1.2 0.3
v -0.1 1.2 0.6
v 0.1 1.2 0.6
v -0.1 0.6 0.3
v -0.2 0.6 0.3
v -0.2 0.6 0.4
v -0.1 0.6 0.4
v -0.1 1.1 0.3
v -0.2 1.1 0.3
v -0.2 0.9 0.3
v -0.3 0.9 0.3
v -0.3 0.9 0.4
v 0.4 0.9 0.2
v 0.3 0.9 0.2
v 0.4 0.9 0.3
v 0.1 0.9 0.2
v -0.1 0.9 0.2
v -0.1 0.6 0.2
v -0.2 0.6 0.2
v -0.3 0.9 0.2
v -0.4 0.9 0.2
v -0.4 0.9 0.3
v 0.4 0.9 0.1
v 0.3 0.9 0.1
v 0.2 0.6 0.1
v 0.1 0.6 0.1
v 0.1 0.6 0.4
v 0.2 0.6 0.4
v 0.1 0.8 0.1
v -0.1 0.8 0.1
v -0.1 0.8 0.2
v 0.1 0.8 0.2
v -0.1 0.6 0.1
v -0.2 0.6 0.1
v -0.3 0.9 0.1
v -0.4 0.9 0.1
v 0.3 1.2 0
v 0.2 1.2 0
v 0.2 1.2 0.1
v 0.3 1.2 0.1
v 0.2 1.1 0
v 0.1 1.1 0
v 0.1 1.1 0.1
v 0.2 1.1 0.1
v 0.1 0.7 0
v -0.1 0.7 0
v -0.1 0.7 0.1
v 0.1 0.7 0.1
v 0.1 1 0
v -0.1 1 0
v -0.1 1 0.1
v 0.1 1 0.1
v -0.1 1.1 0
v -0.2 1.1 0
v -0.2 1.1 0.1
v -0.1 1.1 0.1
v 0.2 1.3 0
v -0.2 1.3 0
v -0.2 1.3 0.1
v 0.2 1.3 0.1
v -0.2 1.2 0
v -0.3 1.2 0
v -0.3 1.2 0.1
v -0.2 1.2 0.1
v 0.4 0.9 -0.1
v 0.3 0.9 -0.1
v 0.3 1.4 -0.1
v 0.2 1.4 -0.1
v 0.2 1.4 0
v 0.3 1.4 0
v -0.2 1.4 -0.1
v -0.3 1.4 -0.1
v -0.3 1.4 0
v -0.2 1.4 0
v -0.3 0.9 -0.1
v -0.4 0.9 -0.1
v 0.3 1.3 -0.2
v 0.2 1.3 -0.2
v 0.2 1.3 -0.1
v 0.3 1.3 -0.1
v 0.3 1.5 -0.2
v 0.2 1.5 -0.2
v 0.2 1.5 -0.1
v 0.3 1.5 -0.1
v 0.2 1.4 -0.2
v -0.2 1.4 -0.2
v -0.2 1.3 -0.2
v -0.3 1.3 -0.2
v -0.3 1.3 -0.1
v -0.2 1.3 -0.1
v -0.2 1.5 -0.2
v -0.3 1.5 -0.2
v -0.3 1.5 -0.1
v -0.2 1.5 -0.1
v 0.3 1.2 -0.3
v 0.2 1.2 -0.3
v 0.2 1.2 -0.2
v 0.3 1.2 -0.2
v 0.3 1.6 -0.3
v 0.2 1.6 -0.3
v 0.2 1.6 -0.2
v 0.3 1.6 -0.2
v 0.2 0.7 -0.3
v 0.1 0.7 -0.3
v 0.1 0.7 -0.2
v 0.2 0.7 -0.2
v 0.2 1.3 -0.3
v 0.1 1.3 -0.3
v 0.1 1.3 -0.2
v -0.1 0.7 -0.3
v -0.1 0.7 -0.2
v 0.1 1.4 -0.3
v -0.1 1.4 -0.3
v -0.1 1.4 -0.2
v 0.1 1.4 -0.2
v -0.2 0.7 -0.3
v -0.2 0.7 -0.2
v -0.1 1.3 -0.3
v -0.2 1.3 -0.3
v -0.1 1.3 -0.2
v -0.2 1.2 -0.3
v -0.3 1.2 -0.3
v -0.3 1.2 -0.2
v -0.2 1.2 -0.2
v -0.2 1.6 -0.3
v -0.3 1.6 -0.3
v -0.3 1.6 -0.2
v -0.2 1.6 -0.2
v 0.3 1.6 -0.4
v 0.2 1.6 -0.4
v 0.2 0.5 -0.4
v 0.1 0.5 -0.4
v 0.1 0.5 -0.3
v 0.2 0.5 -0.3
v 0.2 1.2 -0.4
v 0.1 1.2 -0.4
v 0.1 1.2 -0.3
v 0.1 0.8 -0.4
v -0.1 0.8 -0.4
v -0.1 0.8 -0.3
v 0.1 0.8 -0.3
v 0.1 1.3 -0.4
v -0.1 1.3 -0.4
v -0.1 0.5 -0.4
v -0.2 0.5 -0.4
v -0.2 0.5 -0.3
v -0.1 0.5 -0.3
v -0.1 1.2 -0.4
v -0.2 1.2 -0.4
v -0.1 1.2 -0.3
v -0.2 1.6 -0.4
v -0.3 1.6 -0.4
v 0.1 0.9 -0.5
v -0.1 0.9 -0.5
v -0.1 0.9 -0.4
v 0.1 0.9 -0.4
v 0.3 0.6 -0.6
v 0.2 0.6 -0.6
v 0.2 0.6 -0.5
v 0.3 0.6 -0.5
v 0.1 0.6 -0.6
v -0.1 0.6 -0.6
v -0.1 0.6 -0.3
v 0.1 0.6 -0.3
v 0.1 1 -0.6
v -0.1 1 -0.6
v -0.1 1 -0.5
v 0.1 1 -0.5
v -0.2 0.6 -0.6
v -0.3 0.6 -0.6
v -0.3 0.6 -0.5
v -0.2 0.6 -0.5
v 0.5 1 -0.7
v 0.4 1 -0.7
v 0.4 1 -0.6
v 0.5 1 -0.6
v 0.3 1 -0.7
v 0.3 1 -0.6
v 0.3 1.1 -0.7
v 0.2 1.1 -0.7
v 0.2 1.1 -0.6
v 0.3 1.1 -0.6
v -0.2 1.1 -0.7
v -0.2 1.1 -0.6
v -0.3 1.1 -0.7
v -0.3 1.1 -0.6
v -0.3 1 -0.7
v -0.5 1 -0.7
v -0.5 1 -0.6
v -0.3 1 -0.6
v 0.3 0.7 -0.8
v 0.2 0.7 -0.8
v 0.2 0.7 -0.6
v 0.3 0.7 -0.6
v 0.2 0.6 -0.8
v 0.1 0.6 -0.8
v 0.1 0.7 -0.8
v -0.1 0.7 -0.8
v -0.1 0.7 -0.6
v 0.1 0.7 -0.6
v -0.1 0.6 -0.8
v -0.2 0.6 -0.8
v -0.2 0.7 -0.8
v -0.3 0.7 -0.8
v -0.3 0.7 -0.6
v -0.2 0.7 -0.6
v 0.1 0.6 -0.9
v -0.1 0.6 -0.9
v 0.4 0.8 -1.1
v 0.3 0.8 -1.1
v 0.3 0.8 -0.8
v 0.4 0.8 -0.8
v -0.3 0.8 -1.1
v -0.4 0.8 -1.1
v -0.4 0.8 -0.8
v -0.3 0.8 -0.8
v 0.4 0.7 -1.2
v 0.3 0.7 -1.2
v 0.3 0.7 -1.1
v 0.4 0.7 -1.1
v -0.3 0.7 -1.2
v -0.4 0.7 -1.2
v -0.4 0.7 -1.1
v -0.3 0.7 -1.1
v 0.1 0.5 1.2
v 0.1 0.5 1.3
v -0.1 0.5 1.3
v -0.1 0.5 1.2
v 0.2 0.5 1.1
v 0.2 0.5 1.2
v 0.1 0.5 1.1
v 0.1 0.4 1.1
v 0.1 0.4 1.2
v -0.1 0.4 1.2
v -0.1 0.4 1.1
v -0.1 0.5 1.1
v -0.2 0.5 1.2
v -0.2 0.5 1.1
v 0.3 0.5 1
v 0.3 0.5 1.1
v 0.2 0.5 1
v 0.2 0.4 1
v 0.2 0.4 1.1
v 0.1 0.4 1
v -0.1 0.4 1
v -0.2 0.4 1.1
v -0.2 0.4 1
v -0.2 0.5 1
v -0.3 0.5 1.1
v -0.3 0.5 1
v 0.3 0.4 0.5
v 0.3 0.4 1
v 0.2 0.4 0.5
v 0.3 0.7 0.5
v 0.3 0.7 0.6
v 0.2 0.7 0.6
v 0.2 0.7 0.5
v 0.1 0.4 0.5
v 0.1 0.3 0.5
v 0.1 0.3 1
v -0.1 0.3 1
v -0.1 0.3 0.5
v -0.1 0.4 0.5
v -0.2 0.4 0.5
v -0.3 0.4 1
v -0.3 0.4 0.5
v -0.2 0.7 0.5
v -0.2 0.7 0.6
v -0.3 0.7 0.6
v -0.3 0.7 0.5
v 0.2 0.6 0.5
v 0.1 0.6 0.5
v 0.1 0.4 0.4
v -0.1 0.4 0.4
v -0.1 0.6 0.5
v -0.2 0.6 0.5
v 0.3 0.8 0.3
v 0.3 0.8 0.4
v 0.2 0.8 0.4
v 0.2 0.8 0.3
v 0.2 0.3 0.3
v 0.2 0.3 0.4
v 0.1 0.3 0.4
v 0.1 0.3 0.3
v 0.2 1 0.3
v 0.2 1 0.5
v 0.1 1 0.5
v 0.1 1 0.3
v 0.1 1.1 0.4
v -0.1 1.1 0.4
v -0.1 0.3 0.3
v -0.1 0.3 0.4
v -0.2 0.3 0.4
v -0.2 0.3 0.3
v -0.1 1 0.3
v -0.1 1 0.5
v -0.2 1 0.5
v -0.2 1 0.3
v -0.2 0.8 0.3
v -0.2 0.8 0.4
v -0.3 0.8 0.4
v -0.3 0.8 0.3
v 0.4 0.8 0.2
v 0.4 0.8 0.3
v 0.3 0.8 0.2
v 0.2 0.3 0.2
v 0.1 0.3 0.2
v 0.1 0.5 0.2
v 0.1 0.5 0.4
v -0.1 0.5 0.4
v -0.1 0.5 0.2
v -0.1 0.3 0.2
v -0.2 0.3 0.2
v -0.3 0.8 0.2
v -0.4 0.8 0.3
v -0.4 0.8 0.2
v 0.4 0.8 0.1
v 0.3 0.8 0.1
v 0.2 0.3 0.1
v 0.1 0.3 0.1
v -0.1 0.3 0.1
v -0.2 0.3 0.1
v -0.3 0.8 0.1
v -0.4 0.8 0.1
v 0.3 1.1 0
v 0.3 1.1 0.1
v 0.2 1 0
v 0.2 1 0.1
v 0.1 0.4 0
v 0.1 0.4 0.2
v -0.1 0.4 0.2
v -0.1 0.4 0
v 0.1 0.9 0
v 0.1 0.9 0.1
v -0.1 0.9 0.1
v -0.1 0.9 0
v -0.2 1 0.1
v -0.2 1 0
v -0.3 1.1 0.1
v -0.3 1.1 0
v 0.4 0.8 -0.1
v 0.3 0.8 -0.1
v 0.3 1 -0.1
v 0.3 1 0
v 0.2 1 -0.1
v 0.2 0.6 -0.1
v 0.2 0.6 0
v 0.1 0.6 0
v 0.1 0.6 -0.1
v -0.1 0.6 -0.1
v -0.1 0.6 0
v -0.2 0.6 0
v -0.2 0.6 -0.1
v -0.2 1 -0.1
v -0.3 1 0
v -0.3 1 -0.1
v -0.3 0.8 -0.1
v -0.4 0.8 -0.1
v 0.3 0.9 -0.2
v 0.2 0.9 -0.1
v 0.2 0.9 -0.2
v 0.3 1.4 -0.2
v 0.2 0.5 -0.2
v 0.2 0.5 -0.1
v 0.1 0.5 -0.1
v 0.1 0.5 -0.2
v -0.1 0.5 -0.2
v -0.1 0.5 -0.1
v -0.2 0.5 -0.1
v -0.2 0.5 -0.2
v -0.2 0.9 -0.2
v -0.2 0.9 -0.1
v -0.3 0.9 -0.2
v -0.3 1.4 -0.2
v 0.3 1.1 -0.3
v 0.3 1.1 -0.2
v 0.2 1.1 -0.2
v 0.2 1.1 -0.3
v 0.3 1.5 -0.3
v 0.2 1.5 -0.3
v 0.2 0.4 -0.3
v 0.2 0.4 -0.2
v 0.1 0.4 -0.2
v 0.1 0.4 -0.3
v -0.1 0.4 -0.3
v -0.1 0.4 -0.2
v -0.2 0.4 -0.2
v -0.2 0.4 -0.3
v 0.2 0.9 -0.3
v -0.2 0.9 -0.3
v -0.2 1.1 -0.3
v -0.2 1.1 -0.2
v -0.3 1.1 -0.2
v -0.3 1.1 -0.3
v -0.2 1.5 -0.3
v -0.3 1.5 -0.3
v 0.3 1.5 -0.4
v 0.2 1.5 -0.4
v 0.2 0.4 -0.4
v 0.1 0.4 -0.4
v 0.1 0.7 -0.4
v -0.1 0.7 -0.4
v -0.1 0.4 -0.4
v -0.2 0.4 -0.4
v 0.2 1.1 -0.4
v -0.2 1.1 -0.4
v -0.2 1.5 -0.4
v -0.3 1.5 -0.4
v 0.1 0.4 -0.5
v -0.1 0.4 -0.5
v 0.1 0.8 -0.5
v -0.1 0.8 -0.5
v 0.3 0.4 -0.6
v 0.3 0.4 -0.5
v 0.2 0.4 -0.5
v 0.2 0.4 -0.6
v 0.1 0.4 -0.6
v -0.1 0.4 -0.6
v 0.1 0.9 -0.6
v -0.1 0.9 -0.6
v -0.2 0.4 -0.6
v -0.2 0.4 -0.5
v -0.3 0.4 -0.5
v -0.3 0.4 -0.6
v 0.5 0.9 -0.7
v 0.5 0.9 -0.6
v 0.4 0.9 -0.6
v 0.4 0.9 -0.7
v 0.2 0.9 -0.6
v 0.2 0.9 -0.7
v 0.2 0.8 -0.7
v 0.2 0.8 -0.6
v -0.2 0.8 -0.6
v -0.2 0.8 -0.7
v -0.2 0.9 -0.7
v -0.2 0.9 -0.6
v -0.5 0.9 -0.6
v -0.5 0.9 -0.7
v 0.3 0.3 -0.8
v 0.3 0.3 -0.6
v 0.2 0.3 -0.6
v 0.2 0.3 -0.8
v 0.2 0.4 -0.8
v 0.1 0.4 -0.8
v 0.1 0.3 -0.8
v 0.1 0.3 -0.6
v -0.1 0.3 -0.6
v -0.1 0.3 -0.8
v -0.1 0.4 -0.8
v -0.2 0.4 -0.8
v -0.2 0.3 -0.8
v -0.2 0.3 -0.6
v -0.3 0.3 -0.6
v -0.3 0.3 -0.8
v 0.1 0.4 -0.9
v -0.1 0.4 -0.9
v 0.4 0.2 -1.1
v 0.4 0.2 -0.8
v 0.3 0.2 -0.8
v 0.3 0.2 -1.1
v -0.3 0.2 -1.1
v -0.3 0.2 -0.8
v -0.4 0.2 -0.8
v -0.4 0.2 -1.1
v 0.4 0.3 -1.2
v 0.4 0.3 -1.1
v 0.3 0.3 -1.1
v 0.3 0.3 -1.2
v -0.3 0.3 -1.2
v -0.3 0.3 -1.1
v -0.4 0.3 -1.1
v -0.4 0.3 -1.2
v -0.4 0.3 -0.8
v -0.2 0.4 0.4
v -0.2 0.4 0.3
v 0.1 0.4 0.1
v -0.2 0.4 0.2
v -0.2 0.4 0.1
v -0.3 0.4 -0.8
v 0.1 0.5 0.3
v -0.2 0.5 0.4
v -0.2 0.5 0.3
v -0.2 0.5 0.2
v -0.2 0.5 0.1
v -0.1 0.5 0.1
v -0.1 0.5 0
v -0.1 0.4 0.1
v -0.1 0.5 -0.5
v -0.2 0.6 -0.3
v -0.1 0.6 -0.5
v -0.3 0.6 -0.8
v -0.1 0.7 0.3
v -0.1 0.7 0.2
v -0.2 0.7 -0.1
v -0.2 0.6 -0.2
v -0.4 0.7 -0.8
v -0.1 0.8 0.4
v -0.1 0.8 0.3
v -0.2 0.8 0
v -0.2 0.8 -0.1
v -0.2 0.8 -0.2
v -0.2 0.8 0.9
v -0.2 0.9 0
v -0.2 0.9 0.7
v -0.1 1 0.4
v -0.3 1 -0.2
v -0.2 1 -0.2
v -0.2 1 -0.3
v 0.1 1 0.4
v -0.3 1.3 0
v 0.4 0.3 -0.8
v -0.1 0.4 0.3
v 0.3 0.4 -0.8
v 0.2 0.5 0.4
v 0.2 0.5 0.3
v -0.1 0.5 0.3
v 0.2 0.5 0.2
v 0.2 0.5 0.1
v 0.1 0.5 0.1
v 0.1 0.5 0
v 0.1 0.5 -0.5
v 0.2 0.6 0.3
v 0.2 0.6 0.2
v 0.2 0.6 -0.3
v 0.1 0.6 -0.5
v 0.3 0.6 -0.8
v 0.1 0.7 0.3
v 0.1 0.6 0.3
v 0.1 0.6 0.2
v 0.1 0.7 0.2
v 0.2 0.7 -0.1
v 0.2 0.6 -0.2
v 0.4 0.7 -0.8
v 0.1 0.8 0.4
v 0.1 0.8 0.3
v 0.2 0.8 0
v 0.2 0.8 -0.1
v 0.2 0.8 -0.2
v 0.2 0.8 0.9
v 0.2 0.9 0
v 0.2 0.9 0.7
v 0.3 1 -0.2
v 0.2 1 -0.2
v 0.2 1 -0.3
v 0.3 1.3 0
v 0.2 1 -0.7
v 0 0.9 0.4
v 0 1 0.4
v -0.1 0.9 -0.7
v -0.1 1 -0.7
v -0.2 1 -0.7
v 0.2 1 -0.6
v 0.1 0.8 0
v 0.1 1.2 0
v 0 1 0
v 0 1.2 0
v -0.1 0.8 0
v 0 1.1 0
v -0.1 1.2 0
v -0.2 1 -0.6

vt 0.00195313 0.5
vt 0.00585938 0.5
vt 0.0136719 0.5
vt 0.0175781 0.5
vt 0.0292969 0.5
vt 0.0332031 0.5
vt 0.0371094 0.5
vt 0.0410156 0.5
vt 0.0605469 0.5
vt 0.0683594 0.5
vt 0.0722656 0.5
vt 0.0761719 0.5
vt 0.0878906 0.5
vt 0.0917969 0.5
vt 0.0996094 0.5
vt 0.107422 0.5
vt 0.123047 0.5
vt 0.158203 0.5
vt 0.162109 0.5

vn 0 1 0
vn 0 -1 0
vn -1 0 0
vn 1 0 0
vn 0 0 -1
vn 0 0 1

usemtl palette
f 1/18/1 2/18/1 4/18/1
f 4/18/1 2/18/1 3/18/1
f 5/19/1 6/19/1 7/19/1
f 7/19/1 6/19/1 1/19/1
f 8/19/1 9/19/1 2/19/1
f 2/19/1 9/19/1 10/19/1
f 11/18/1 12/18/1 14/18/1
f 14/18/1 12/18/1 13/18/1
f 15/18/1 16/18/1 18/18/1
f 18/18/1 16/18/1 17/18/1
f 19/18/1 20/18/1 22/18/1
f 22/18/1 20/18/1 21/18/1
f 23/19/1 24/19/1 26/19/1
f 26/19/1 24/19/1 25/19/1
f 27/19/1 28/19/1 30/19/1
f 30/19/1 28/19/1 29/19/1
f 31/18/1 32/18/1 34/18/1
f 34/18/1 32/18/1 33/18/1
f 35/19/1 36/19/1 38/19/1
f 38/19/1 36/19/1 37/19/1
f 39/19/1 40/19/1 42/19/1
f 42/19/1 40/19/1 41/19/1
f 43/18/1 44/18/1 46/18/1
f 46/18/1 44/18/1 45/18/1
f 47/18/1 48/18/1 50/18/1
f 50/18/1 48/18/1 49/18/1
f 51/18/1 52/18/1 54/18/1
f 54/18/1 52/18/1 53/18/1
f 55/19/1 56/19/1 58/19/1
f 58/19/1 56/19/1 57/19/1
f 59/19/1 60/19/1 62/19/1
f 62/19/1 60/19/1 61/19/1
f 63/18/1 64/18/1 66/18/1
f 66/18/1 64/18/1 65/18/1
f 67/18/1 68/18/1 70/18/1
f 70/18/1 68/18/1 69/18/1
f 71/6/1 72/6/1 74/6/1
f 74/6/1 72/6/1 73/6/1
f 75/6/1 76/6/1 78/6/1
f 78/6/1 76/6/1 77/6/1
f 79/6/1 80/6/1 81/6/1
f 81/6/1 80/6/1 71/6/1
f 82/11/1 83/11/1 55/11/1
f 55/11/1 83/11/1 56/11/1
f 84/18/1 85/18/1 72/18/1
f 72/18/1 85/18/1 75/18/1
f 86/11/1 87/11/1 89/11/1
f 89/11/1 87/11/1 88/11/1
f 90/5/1 91/5/1 93/5/1
f 93/5/1 91/5/1 92/5/1
f 94/11/1 95/11/1 59/11/1
f 59/11/1 95/11/1 60/11/1
f 96/6/1 97/6/1 76/6/1
f 76/6/1 97/6/1 98/6/1
f 99/6/1 100/6/1 101/6/1
f 101/6/1 100/6/1 79/6/1
f 102/11/1 103/11/1 84/11/1
f 84/11/1 103/11/1 85/11/1
f 104/15/1 105/15/1 90/15/1
f 90/15/1 105/15/1 91/15/1
f 106/6/1 107/6/1 97/6/1
f 97/6/1 107/6/1 108/6/1
f 109/19/1 110/19/1 99/19/1
f 99/19/1 110/19/1 100/19/1
f 111/4/1 112/4/1 114/4/1
f 114/4/1 112/4/1 113/4/1
f 115/11/1 116/11/1 118/11/1
f 118/11/1 116/11/1 117/11/1
f 119/5/1 120/5/1 104/5/1
f 104/5/1 120/5/1 105/5/1
f 121/19/1 122/19/1 106/19/1
f 106/19/1 122/19/1 107/19/1
f 123/19/1 124/19/1 126/19/1
f 126/19/1 124/19/1 125/19/1
f 127/19/1 128/19/1 130/19/1
f 130/19/1 128/19/1 129/19/1
f 131/10/1 132/10/1 134/10/1
f 134/10/1 132/10/1 133/10/1
f 135/19/1 136/19/1 138/19/1
f 138/19/1 136/19/1 137/19/1
f 139/19/1 140/19/1 142/19/1
f 142/19/1 140/19/1 141/19/1
f 143/19/1 144/19/1 146/19/1
f 146/19/1 144/19/1 145/19/1
f 147/19/1 148/19/1 150/19/1
f 150/19/1 148/19/1 149/19/1
f 151/5/1 152/5/1 109/5/1
f 109/5/1 152/5/1 110/5/1
f 153/10/1 154/10/1 156/10/1
f 156/10/1 154/10/1 155/10/1
f 157/10/1 158/10/1 160/10/1
f 160/10/1 158/10/1 159/10/1
f 161/5/1 162/5/1 121/5/1
f 121/5/1 162/5/1 122/5/1
f 163/19/1 164/19/1 166/19/1
f 166/19/1 164/19/1 165/19/1
f 167/10/1 168/10/1 170/10/1
f 170/10/1 168/10/1 169/10/1
f 171/19/1 172/19/1 155/19/1
f 155/19/1 172/19/1 160/19/1
f 173/19/1 174/19/1 176/19/1
f 176/19/1 174/19/1 175/19/1
f 177/10/1 178/10/1 180/10/1
f 180/10/1 178/10/1 179/10/1
f 181/19/1 182/19/1 184/19/1
f 184/19/1 182/19/1 183/19/1
f 185/10/1 186/10/1 188/10/1
f 188/10/1 186/10/1 187/10/1
f 189/18/1 190/18/1 192/18/1
f 192/18/1 190/18/1 191/18/1
f 193/19/1 194/19/1 164/19/1
f 164/19/1 194/19/1 195/19/1
f 190/10/1 196/10/1 191/10/1
f 191/10/1 196/10/1 197/10/1
f 198/19/1 199/19/1 201/19/1
f 201/19/1 199/19/1 200/19/1
f 196/18/1 202/18/1 197/18/1
f 197/18/1 202/18/1 203/18/1
f 204/19/1 205/19/1 206/19/1
f 206/19/1 205/19/1 173/19/1
f 207/19/1 208/19/1 210/19/1
f 210/19/1 208/19/1 209/19/1
f 211/10/1 212/10/1 214/10/1
f 214/10/1 212/10/1 213/10/1
f 215/18/1 216/18/1 185/18/1
f 185/18/1 216/18/1 186/18/1
f 217/8/1 218/8/1 220/8/1
f 220/8/1 218/8/1 219/8/1
f 221/19/1 222/19/1 182/19/1
f 182/19/1 222/19/1 223/19/1
f 224/10/1 225/10/1 227/10/1
f 227/10/1 225/10/1 226/10/1
f 228/19/1 229/19/1 194/19/1
f 194/19/1 229/19/1 204/19/1
f 230/8/1 231/8/1 233/8/1
f 233/8/1 231/8/1 232/8/1
f 234/19/1 235/19/1 236/19/1
f 236/19/1 235/19/1 207/19/1
f 237/18/1 238/18/1 211/18/1
f 211/18/1 238/18/1 212/18/1
f 239/10/1 240/10/1 242/10/1
f 242/10/1 240/10/1 241/10/1
f 243/18/1 244/18/1 246/18/1
f 246/18/1 244/18/1 245/18/1
f 247/11/1 248/11/1 250/11/1
f 250/11/1 248/11/1 249/11/1
f 251/10/1 252/10/1 254/10/1
f 254/10/1 252/10/1 253/10/1
f 255/18/1 256/18/1 258/18/1
f 258/18/1 256/18/1 257/18/1
f 259/12/1 260/12/1 262/12/1
f 262/12/1 260/12/1 261/12/1
f 260/10/1 263/10/1 261/10/1
f 261/10/1 263/10/1 264/10/1
f 265/9/1 266/9/1 268/9/1
f 268/9/1 266/9/1 267/9/1
f 266/5/1 269/5/1 267/5/1
f 267/5/1 269/5/1 270/5/1
f 269/9/1 271/9/1 270/9/1
f 270/9/1 271/9/1 272/9/1
f 273/6/1 274/6/1 276/6/1
f 276/6/1 274/6/1 275/6/1
f 277/18/1 278/18/1 280/18/1
f 280/18/1 278/18/1 279/18/1
f 281/11/1 282/11/1 244/11/1
f 244/11/1 282/11/1 247/11/1
f 283/11/1 284/11/1 286/11/1
f 286/11/1 284/11/1 285/11/1
f 287/11/1 288/11/1 248/11/1
f 248/11/1 288/11/1 255/11/1
f 289/18/1 290/18/1 292/18/1
f 292/18/1 290/18/1 291/18/1
f 293/16/1 294/16/1 282/16/1
f 282/16/1 294/16/1 287/16/1
f 295/18/1 296/18/1 298/18/1
f 298/18/1 296/18/1 297/18/1
f 299/18/1 300/18/1 302/18/1
f 302/18/1 300/18/1 301/18/1
f 303/18/1 304/18/1 306/18/1
f 306/18/1 304/18/1 305/18/1
f 307/18/1 308/18/1 310/18/1
f 310/18/1 308/18/1 309/18/1
f 311/18/2 312/18/2 314/18/2
f 314/18/2 312/18/2 313/18/2
f 315/19/2 316/19/2 317/19/2
f 317/19/2 316/19/2 311/19/2
f 318/18/2 319/18/2 321/18/2
f 321/18/2 319/18/2 320/18/2
f 322/19/2 314/19/2 324/19/2
f 324/19/2 314/19/2 323/19/2
f 325/18/2 326/18/2 327/18/2
f 327/18/2 326/18/2 315/18/2
f 328/19/2 329/19/2 330/19/2
f 330/19/2 329/19/2 318/19/2
f 330/11/2 318/11/2 331/11/2
f 331/11/2 318/11/2 321/11/2
f 331/19/2 321/19/2 333/19/2
f 333/19/2 321/19/2 332/19/2
f 334/18/2 324/18/2 336/18/2
f 336/18/2 324/18/2 335/18/2
f 337/18/2 338/18/2 339/18/2
f 339/18/2 338/18/2 328/18/2
f 340/18/2 341/18/2 343/18/2
f 343/18/2 341/18/2 342/18/2
f 339/11/2 328/11/2 344/11/2
f 344/11/2 328/11/2 330/11/2
f 345/16/2 346/16/2 348/16/2
f 348/16/2 346/16/2 347/16/2
f 349/11/2 331/11/2 350/11/2
f 350/11/2 331/11/2 333/11/2
f 350/18/2 333/18/2 352/18/2
f 352/18/2 333/18/2 351/18/2
f 353/18/2 354/18/2 356/18/2
f 356/18/2 354/18/2 355/18/2
f 114/11/2 357/11/2 113/11/2
f 113/11/2 357/11/2 358/11/2
f 359/11/2 344/11/2 360/11/2
f 360/11/2 344/11/2 349/11/2
f 93/11/2 361/11/2 92/11/2
f 92/11/2 361/11/2 362/11/2
f 363/6/2 364/6/2 366/6/2
f 366/6/2 364/6/2 365/6/2
f 367/2/2 368/2/2 370/2/2
f 370/2/2 368/2/2 369/2/2
f 371/11/2 372/11/2 374/11/2
f 374/11/2 372/11/2 373/11/2
f 83/11/2 375/11/2 94/11/2
f 94/11/2 375/11/2 376/11/2
f 377/5/2 378/5/2 380/5/2
f 380/5/2 378/5/2 379/5/2
f 381/11/2 382/11/2 384/11/2
f 384/11/2 382/11/2 383/11/2
f 385/6/2 386/6/2 388/6/2
f 388/6/2 386/6/2 387/6/2
f 389/6/2 390/6/2 391/6/2
f 391/6/2 390/6/2 363/6/2
f 392/4/2 367/4/2 393/4/2
f 393/4/2 367/4/2 370/4/2
f 394/11/2 395/11/2 397/11/2
f 397/11/2 395/11/2 396/11/2
f 398/15/2 377/15/2 399/15/2
f 399/15/2 377/15/2 380/15/2
f 400/6/2 388/6/2 402/6/2
f 402/6/2 388/6/2 401/6/2
f 403/19/2 389/19/2 404/19/2
f 404/19/2 389/19/2 391/19/2
f 405/2/2 392/2/2 406/2/2
f 406/2/2 392/2/2 393/2/2
f 407/5/2 398/5/2 408/5/2
f 408/5/2 398/5/2 399/5/2
f 409/19/2 400/19/2 410/19/2
f 410/19/2 400/19/2 402/19/2
f 411/19/2 412/19/2 127/19/2
f 127/19/2 412/19/2 130/19/2
f 413/19/2 414/19/2 135/19/2
f 135/19/2 414/19/2 138/19/2
f 415/11/2 416/11/2 418/11/2
f 418/11/2 416/11/2 417/11/2
f 419/19/2 420/19/2 422/19/2
f 422/19/2 420/19/2 421/19/2
f 136/19/2 137/19/2 424/19/2
f 424/19/2 137/19/2 423/19/2
f 124/19/2 125/19/2 147/19/2
f 147/19/2 125/19/2 150/19/2
f 140/19/2 141/19/2 426/19/2
f 426/19/2 141/19/2 425/19/2
f 427/5/2 403/5/2 428/5/2
f 428/5/2 403/5/2 404/5/2
f 429/19/2 430/19/2 431/19/2
f 431/19/2 430/19/2 413/19/2
f 432/5/2 433/5/2 435/5/2
f 435/5/2 433/5/2 434/5/2
f 436/5/2 437/5/2 439/5/2
f 439/5/2 437/5/2 438/5/2
f 440/19/2 424/19/2 442/19/2
f 442/19/2 424/19/2 441/19/2
f 443/5/2 409/5/2 444/5/2
f 444/5/2 409/5/2 410/5/2
f 445/7/2 152/7/2 447/7/2
f 447/7/2 152/7/2 446/7/2
f 448/10/2 153/10/2 171/10/2
f 171/10/2 153/10/2 154/10/2
f 449/18/2 450/18/2 452/18/2
f 452/18/2 450/18/2 451/18/2
f 453/18/2 454/18/2 456/18/2
f 456/18/2 454/18/2 455/18/2
f 457/7/2 458/7/2 459/7/2
f 459/7/2 458/7/2 161/7/2
f 172/10/2 157/10/2 460/10/2
f 460/10/2 157/10/2 158/10/2
f 461/19/2 462/19/2 464/19/2
f 464/19/2 462/19/2 463/19/2
f 465/10/2 167/10/2 466/10/2
f 466/10/2 167/10/2 168/10/2
f 467/5/2 468/5/2 470/5/2
f 470/5/2 468/5/2 469/5/2
f 471/5/2 472/5/2 474/5/2
f 474/5/2 472/5/2 473/5/2
f 475/5/2 447/5/2 476/5/2
f 476/5/2 447/5/2 457/5/2
f 477/19/2 478/19/2 480/19/2
f 480/19/2 478/19/2 479/19/2
f 481/10/2 177/10/2 482/10/2
f 482/10/2 177/10/2 178/10/2
f 483/18/2 465/18/2 484/18/2
f 484/18/2 465/18/2 466/18/2
f 485/8/2 467/8/2 486/8/2
f 486/8/2 467/8/2 470/8/2
f 487/10/2 190/10/2 488/10/2
f 488/10/2 190/10/2 196/10/2
f 489/8/2 471/8/2 490/8/2
f 490/8/2 471/8/2 474/8/2
f 491/19/2 464/19/2 492/19/2
f 492/19/2 464/19/2 477/19/2
f 493/18/2 481/18/2 494/18/2
f 494/18/2 481/18/2 482/18/2
f 495/19/2 415/19/2 496/19/2
f 496/19/2 415/19/2 418/19/2
f 497/10/2 224/10/2 498/10/2
f 498/10/2 224/10/2 225/10/2
f 499/18/2 500/18/2 502/18/2
f 502/18/2 500/18/2 501/18/2
f 503/11/2 495/11/2 504/11/2
f 504/11/2 495/11/2 496/11/2
f 505/10/2 239/10/2 506/10/2
f 506/10/2 239/10/2 240/10/2
f 507/18/2 508/18/2 510/18/2
f 510/18/2 508/18/2 509/18/2
f 511/12/2 512/12/2 514/12/2
f 514/12/2 512/12/2 513/12/2
f 514/10/2 513/10/2 516/10/2
f 516/10/2 513/10/2 515/10/2
f 517/5/2 518/5/2 520/5/2
f 520/5/2 518/5/2 519/5/2
f 521/6/2 522/6/2 524/6/2
f 524/6/2 522/6/2 523/6/2
f 525/18/2 526/18/2 528/18/2
f 528/18/2 526/18/2 527/18/2
f 529/11/2 502/11/2 530/11/2
f 530/11/2 502/11/2 503/11/2
f 531/11/2 532/11/2 534/11/2
f 534/11/2 532/11/2 533/11/2
f 535/11/2 504/11/2 536/11/2
f 536/11/2 504/11/2 507/11/2
f 537/18/2 538/18/2 540/18/2
f 540/18/2 538/18/2 539/18/2
f 541/16/2 530/16/2 542/16/2
f 542/16/2 530/16/2 535/16/2
f 543/18/2 544/18/2 546/18/2
f 546/18/2 544/18/2 545/18/2
f 547/18/2 548/18/2 550/18/2
f 550/18/2 548/18/2 549/18/2
f 551/18/2 552/18/2 554/18/2
f 554/18/2 552/18/2 553/18/2
f 555/18/2 556/18/2 558/18/2
f 558/18/2 556/18/2 557/18/2
f 525/18/3 553/18/3 545/18/3
f 545/18/3 553/18/3 546/18/3
f 559/18/3 557/18/3 549/18/3
f 549/18/3 557/18/3 550/18/3
f 331/16/3 349/16/3 347/16/3
f 347/16/3 349/16/3 348/16/3
f 560/5/3 561/5/3 379/5/3
f 379/5/3 561/5/3 380/5/3
f 416/2/3 562/2/3 393/2/3
f 393/2/3 562/2/3 406/2/3
f 563/5/3 564/5/3 399/5/3
f 399/5/3 564/5/3 408/5/3
f 502/18/3 529/18/3 527/18/3
f 527/18/3 529/18/3 528/18/3
f 504/11/3 535/11/3 533/11/3
f 533/11/3 535/11/3 534/11/3
f 510/18/3 565/18/3 539/18/3
f 539/18/3 565/18/3 540/18/3
f 314/18/3 322/18/3 320/18/3
f 320/18/3 322/18/3 321/18/3
f 324/19/3 334/19/3 332/19/3
f 332/19/3 334/19/3 333/19/3
f 336/18/3 64/18/3 351/18/3
f 351/18/3 64/18/3 352/18/3
f 395/2/3 566/2/3 369/2/3
f 369/2/3 566/2/3 370/2/3
f 567/15/3 568/15/3 560/15/3
f 560/15/3 568/15/3 561/15/3
f 566/4/3 394/4/3 370/4/3
f 370/4/3 394/4/3 393/4/3
f 569/15/3 570/15/3 563/15/3
f 563/15/3 570/15/3 564/15/3
f 571/11/3 572/11/3 573/11/3
f 573/11/3 572/11/3 418/11/3
f 572/19/3 453/19/3 418/19/3
f 418/19/3 453/19/3 472/19/3
f 456/5/3 232/5/3 473/5/3
f 473/5/3 232/5/3 474/5/3
f 232/8/3 231/8/3 474/8/3
f 474/8/3 231/8/3 490/8/3
f 230/19/3 574/19/3 489/19/3
f 489/19/3 574/19/3 496/19/3
f 361/11/3 93/11/3 349/11/3
f 349/11/3 93/11/3 360/11/3
f 92/5/3 91/5/3 567/5/3
f 567/5/3 91/5/3 568/5/3
f 91/15/3 105/15/3 380/15/3
f 380/15/3 105/15/3 399/15/3
f 105/5/3 120/5/3 569/5/3
f 569/5/3 120/5/3 570/5/3
f 119/19/3 437/19/3 571/19/3
f 571/19/3 437/19/3 572/19/3
f 437/11/3 436/11/3 572/11/3
f 572/11/3 436/11/3 454/11/3
f 439/18/3 575/18/3 455/18/3
f 455/18/3 575/18/3 232/18/3
f 249/11/3 576/11/3 233/11/3
f 233/11/3 576/11/3 574/11/3
f 245/18/3 244/18/3 501/18/3
f 501/18/3 244/18/3 502/18/3
f 576/11/3 248/11/3 496/11/3
f 496/11/3 248/11/3 504/11/3
f 257/18/3 256/18/3 509/18/3
f 509/18/3 256/18/3 510/18/3
f 256/19/3 577/19/3 510/19/3
f 510/19/3 577/19/3 565/19/3
f 287/16/3 294/16/3 535/16/3
f 535/16/3 294/16/3 542/16/3
f 21/18/3 20/18/3 335/18/3
f 335/18/3 20/18/3 336/18/3
f 20/19/3 355/19/3 336/19/3
f 336/19/3 355/19/3 65/19/3
f 354/11/3 353/11/3 66/11/3
f 66/11/3 353/11/3 63/11/3
f 578/11/3 579/11/3 90/11/3
f 90/11/3 579/11/3 104/11/3
f 579/19/3 133/19/3 104/19/3
f 104/19/3 133/19/3 119/19/3
f 133/10/3 132/10/3 119/10/3
f 119/10/3 132/10/3 437/10/3
f 580/5/3 203/5/3 439/5/3
f 439/5/3 203/5/3 581/5/3
f 203/18/3 202/18/3 581/18/3
f 581/18/3 202/18/3 575/18/3
f 279/18/3 278/18/3 244/18/3
f 244/18/3 278/18/3 281/18/3
f 285/11/3 284/11/3 248/11/3
f 248/11/3 284/11/3 287/11/3
f 291/18/3 290/18/3 256/18/3
f 256/18/3 290/18/3 577/18/3
f 277/19/3 305/19/3 525/19/3
f 525/19/3 305/19/3 553/19/3
f 582/19/3 309/19/3 559/19/3
f 559/19/3 309/19/3 557/19/3
f 305/18/3 304/18/3 553/18/3
f 553/18/3 304/18/3 554/18/3
f 309/18/3 308/18/3 557/18/3
f 557/18/3 308/18/3 558/18/3
f 3/18/3 2/18/3 313/18/3
f 313/18/3 2/18/3 314/18/3
f 10/19/3 9/19/3 323/19/3
f 323/19/3 9/19/3 324/19/3
f 9/11/3 70/11/3 22/11/3
f 22/11/3 70/11/3 19/11/3
f 69/18/3 68/18/3 20/18/3
f 20/18/3 68/18/3 356/18/3
f 67/11/3 386/11/3 362/11/3
f 362/11/3 386/11/3 92/11/3
f 583/11/3 584/11/3 93/11/3
f 93/11/3 584/11/3 90/11/3
f 584/19/3 117/19/3 578/19/3
f 578/19/3 117/19/3 579/19/3
f 117/11/3 116/11/3 579/11/3
f 579/11/3 116/11/3 133/11/3
f 585/5/3 586/5/3 438/5/3
f 438/5/3 586/5/3 439/5/3
f 586/18/3 587/18/3 580/18/3
f 580/18/3 587/18/3 203/18/3
f 226/10/3 225/10/3 196/10/3
f 196/10/3 225/10/3 488/10/3
f 297/18/3 296/18/3 277/18/3
f 277/18/3 296/18/3 305/18/3
f 301/18/3 300/18/3 582/18/3
f 582/18/3 300/18/3 309/18/3
f 17/18/3 30/18/3 2/18/3
f 2/18/3 30/18/3 8/18/3
f 29/19/3 28/19/3 9/19/3
f 9/19/3 28/19/3 588/19/3
f 28/11/3 77/11/3 588/11/3
f 588/11/3 77/11/3 67/11/3
f 77/6/3 76/6/3 67/6/3
f 67/6/3 76/6/3 386/6/3
f 71/6/3 80/6/3 365/6/3
f 365/6/3 80/6/3 366/6/3
f 75/18/3 85/18/3 583/18/3
f 583/18/3 85/18/3 584/18/3
f 98/6/3 97/6/3 387/6/3
f 387/6/3 97/6/3 388/6/3
f 79/6/3 100/6/3 363/6/3
f 363/6/3 100/6/3 391/6/3
f 85/11/3 103/11/3 584/11/3
f 584/11/3 103/11/3 117/11/3
f 108/6/3 107/6/3 401/6/3
f 401/6/3 107/6/3 402/6/3
f 100/19/3 110/19/3 391/19/3
f 391/19/3 110/19/3 404/19/3
f 107/19/3 122/19/3 402/19/3
f 402/19/3 122/19/3 410/19/3
f 110/5/3 152/5/3 404/5/3
f 404/5/3 152/5/3 428/5/3
f 589/18/3 458/18/3 585/18/3
f 585/18/3 458/18/3 586/18/3
f 122/5/3 162/5/3 410/5/3
f 410/5/3 162/5/3 444/5/3
f 458/5/3 457/5/3 586/5/3
f 586/5/3 457/5/3 587/5/3
f 241/10/3 240/10/3 225/10/3
f 225/10/3 240/10/3 498/10/3
f 522/5/3 521/5/3 519/5/3
f 519/5/3 521/5/3 520/5/3
f 33/18/3 42/18/3 16/18/3
f 16/18/3 42/18/3 27/18/3
f 41/19/3 40/19/3 28/19/3
f 28/19/3 40/19/3 590/19/3
f 40/11/3 383/11/3 590/11/3
f 590/11/3 383/11/3 77/11/3
f 382/14/3 591/14/3 78/14/3
f 78/14/3 591/14/3 75/14/3
f 137/19/3 136/19/3 421/19/3
f 421/19/3 136/19/3 422/19/3
f 424/5/3 440/5/3 589/5/3
f 589/5/3 440/5/3 458/5/3
f 442/7/3 592/7/3 161/7/3
f 161/7/3 592/7/3 459/7/3
f 593/5/3 594/5/3 457/5/3
f 457/5/3 594/5/3 476/5/3
f 253/10/3 252/10/3 240/10/3
f 240/10/3 252/10/3 506/10/3
f 275/6/3 274/6/3 523/6/3
f 523/6/3 274/6/3 524/6/3
f 45/18/3 62/18/3 32/18/3
f 32/18/3 62/18/3 39/18/3
f 61/19/3 60/19/3 40/19/3
f 40/19/3 60/19/3 383/19/3
f 375/11/3 83/11/3 595/11/3
f 595/11/3 83/11/3 374/11/3
f 60/11/3 95/11/3 383/11/3
f 383/11/3 95/11/3 384/11/3
f 129/19/3 128/19/3 138/19/3
f 138/19/3 128/19/3 135/19/3
f 141/19/3 140/19/3 423/19/3
f 423/19/3 140/19/3 424/19/3
f 478/19/3 477/19/3 593/19/3
f 593/19/3 477/19/3 594/19/3
f 272/9/3 271/9/3 276/9/3
f 276/9/3 271/9/3 273/9/3
f 88/11/3 87/11/3 44/11/3
f 44/11/3 87/11/3 94/11/3
f 125/19/3 124/19/3 130/19/3
f 130/19/3 124/19/3 127/19/3
f 149/19/3 148/19/3 425/19/3
f 425/19/3 148/19/3 426/19/3
f 209/19/3 208/19/3 479/19/3
f 479/19/3 208/19/3 480/19/3
f 207/19/3 235/19/3 477/19/3
f 477/19/3 235/19/3 492/19/3
f 145/19/3 144/19/3 150/19/3
f 150/19/3 144/19/3 147/19/3
f 596/19/3 174/19/3 441/19/3
f 441/19/3 174/19/3 592/19/3
f 173/19/3 205/19/3 210/19/3
f 210/19/3 205/19/3 207/19/3
f 204/19/3 229/19/3 236/19/3
f 236/19/3 229/19/3 234/19/3
f 159/10/3 158/10/3 596/10/3
f 596/10/3 158/10/3 175/10/3
f 157/19/3 172/19/3 176/19/3
f 176/19/3 172/19/3 173/19/3
f 200/19/3 199/19/3 206/19/3
f 206/19/3 199/19/3 204/19/3
f 169/10/3 168/10/3 154/10/3
f 154/10/3 168/10/3 171/10/3
f 179/10/3 178/10/3 158/10/3
f 158/10/3 178/10/3 460/10/3
f 187/10/3 186/10/3 168/10/3
f 168/10/3 186/10/3 466/10/3
f 213/10/3 212/10/3 178/10/3
f 178/10/3 212/10/3 482/10/3
f 186/18/3 216/18/3 466/18/3
f 466/18/3 216/18/3 484/18/3
f 212/18/3 238/18/3 482/18/3
f 482/18/3 238/18/3 494/18/3
f 597/18/4 544/18/4 552/18/4
f 552/18/4 544/18/4 543/18/4
f 540/18/4 548/18/4 556/18/4
f 556/18/4 548/18/4 547/18/4
f 330/16/4 346/16/4 344/16/4
f 344/16/4 346/16/4 345/16/4
f 360/5/4 378/5/4 598/5/4
f 598/5/4 378/5/4 377/5/4
f 417/5/4 398/5/4 573/5/4
f 573/5/4 398/5/4 407/5/4
f 499/18/4 526/18/4 599/18/4
f 599/18/4 526/18/4 525/18/4
f 503/11/4 532/11/4 530/11/4
f 530/11/4 532/11/4 531/11/4
f 507/18/4 538/18/4 536/18/4
f 536/18/4 538/18/4 537/18/4
f 311/18/4 319/18/4 317/18/4
f 317/18/4 319/18/4 318/18/4
f 315/19/4 329/19/4 327/19/4
f 327/19/4 329/19/4 328/19/4
f 325/18/4 338/18/4 47/18/4
f 47/18/4 338/18/4 337/18/4
f 600/2/4 368/2/4 601/2/4
f 601/2/4 368/2/4 367/2/4
f 396/15/4 360/15/4 602/15/4
f 602/15/4 360/15/4 598/15/4
f 602/15/4 377/15/4 397/15/4
f 397/15/4 377/15/4 398/15/4
f 603/2/4 392/2/4 604/2/4
f 604/2/4 392/2/4 405/2/4
f 605/11/4 562/11/4 606/11/4
f 606/11/4 562/11/4 415/11/4
f 606/19/4 415/19/4 452/19/4
f 452/19/4 415/19/4 469/19/4
f 449/5/4 468/5/4 220/5/4
f 220/5/4 468/5/4 467/5/4
f 220/8/4 467/8/4 217/8/4
f 217/8/4 467/8/4 485/8/4
f 218/19/4 486/19/4 607/19/4
f 607/19/4 486/19/4 495/19/4
f 358/11/4 344/11/4 113/11/4
f 113/11/4 344/11/4 359/11/4
f 114/4/4 600/4/4 608/4/4
f 608/4/4 600/4/4 601/4/4
f 608/4/4 367/4/4 609/4/4
f 609/4/4 367/4/4 392/4/4
f 609/4/4 603/4/4 111/4/4
f 111/4/4 603/4/4 604/4/4
f 112/19/4 605/19/4 434/19/4
f 434/19/4 605/19/4 606/19/4
f 434/11/4 606/11/4 435/11/4
f 435/11/4 606/11/4 451/11/4
f 432/18/4 450/18/4 610/18/4
f 610/18/4 450/18/4 220/18/4
f 250/11/4 219/11/4 611/11/4
f 611/11/4 219/11/4 607/11/4
f 246/18/4 500/18/4 243/18/4
f 243/18/4 500/18/4 499/18/4
f 611/11/4 495/11/4 247/11/4
f 247/11/4 495/11/4 503/11/4
f 258/18/4 508/18/4 255/18/4
f 255/18/4 508/18/4 507/18/4
f 243/19/4 499/19/4 612/19/4
f 612/19/4 499/19/4 599/19/4
f 282/16/4 530/16/4 293/16/4
f 293/16/4 530/16/4 541/16/4
f 14/18/4 326/18/4 11/18/4
f 11/18/4 326/18/4 325/18/4
f 11/19/4 325/19/4 341/19/4
f 341/19/4 325/19/4 50/19/4
f 342/11/4 49/11/4 343/11/4
f 343/11/4 49/11/4 48/11/4
f 613/11/4 614/11/4 616/11/4
f 616/11/4 614/11/4 615/11/4
f 616/19/4 615/19/4 134/19/4
f 134/19/4 615/19/4 112/19/4
f 134/10/4 112/10/4 131/10/4
f 131/10/4 112/10/4 434/10/4
f 617/5/4 432/5/4 192/5/4
f 192/5/4 432/5/4 618/5/4
f 192/18/4 618/18/4 189/18/4
f 189/18/4 618/18/4 610/18/4
f 280/18/4 243/18/4 277/18/4
f 277/18/4 243/18/4 612/18/4
f 286/11/4 247/11/4 283/11/4
f 283/11/4 247/11/4 282/11/4
f 292/18/4 255/18/4 289/18/4
f 289/18/4 255/18/4 288/18/4
f 619/19/4 597/19/4 306/19/4
f 306/19/4 597/19/4 552/19/4
f 290/19/4 540/19/4 310/19/4
f 310/19/4 540/19/4 556/19/4
f 306/18/4 552/18/4 303/18/4
f 303/18/4 552/18/4 551/18/4
f 310/18/4 556/18/4 307/18/4
f 307/18/4 556/18/4 555/18/4
f 4/18/4 312/18/4 1/18/4
f 1/18/4 312/18/4 311/18/4
f 7/19/4 316/19/4 5/19/4
f 5/19/4 316/19/4 315/19/4
f 5/11/4 13/11/4 53/11/4
f 53/11/4 13/11/4 12/11/4
f 54/18/4 11/18/4 51/18/4
f 51/18/4 11/18/4 340/18/4
f 52/11/4 357/11/4 365/11/4
f 365/11/4 357/11/4 114/11/4
f 620/11/4 113/11/4 621/11/4
f 621/11/4 113/11/4 614/11/4
f 621/19/4 613/19/4 118/19/4
f 118/19/4 613/19/4 616/19/4
f 118/11/4 616/11/4 115/11/4
f 115/11/4 616/11/4 134/11/4
f 622/5/4 433/5/4 623/5/4
f 623/5/4 433/5/4 432/5/4
f 623/18/4 617/18/4 624/18/4
f 624/18/4 617/18/4 192/18/4
f 227/10/4 190/10/4 224/10/4
f 224/10/4 190/10/4 487/10/4
f 298/18/4 619/18/4 295/18/4
f 295/18/4 619/18/4 306/18/4
f 302/18/4 290/18/4 299/18/4
f 299/18/4 290/18/4 310/18/4
f 18/18/4 1/18/4 25/18/4
f 25/18/4 1/18/4 6/18/4
f 26/19/4 5/19/4 23/19/4
f 23/19/4 5/19/4 625/19/4
f 23/11/4 625/11/4 74/11/4
f 74/11/4 625/11/4 52/11/4
f 74/6/4 52/6/4 71/6/4
f 71/6/4 52/6/4 365/6/4
f 81/6/4 364/6/4 79/6/4
f 79/6/4 364/6/4 363/6/4
f 72/18/4 620/18/4 84/18/4
f 84/18/4 620/18/4 621/18/4
f 76/6/4 386/6/4 96/6/4
f 96/6/4 386/6/4 385/6/4
f 101/6/4 390/6/4 99/6/4
f 99/6/4 390/6/4 389/6/4
f 84/11/4 621/11/4 102/11/4
f 102/11/4 621/11/4 118/11/4
f 97/6/4 388/6/4 106/6/4
f 106/6/4 388/6/4 400/6/4
f 99/19/4 389/19/4 109/19/4
f 109/19/4 389/19/4 403/19/4
f 106/19/4 400/19/4 121/19/4
f 121/19/4 400/19/4 409/19/4
f 109/5/4 403/5/4 151/5/4
f 151/5/4 403/5/4 427/5/4
f 626/18/4 622/18/4 446/18/4
f 446/18/4 622/18/4 623/18/4
f 121/5/4 409/5/4 161/5/4
f 161/5/4 409/5/4 443/5/4
f 446/5/4 623/5/4 447/5/4
f 447/5/4 623/5/4 624/5/4
f 242/10/4 224/10/4 239/10/4
f 239/10/4 224/10/4 497/10/4
f 515/5/4 518/5/4 516/5/4
f 516/5/4 518/5/4 517/5/4
f 34/18/4 15/18/4 37/18/4
f 37/18/4 15/18/4 24/18/4
f 38/19/4 23/19/4 35/19/4
f 35/19/4 23/19/4 627/19/4
f 35/11/4 627/11/4 372/11/4
f 372/11/4 627/11/4 74/11/4
f 373/13/4 73/13/4 595/13/4
f 595/13/4 73/13/4 72/13/4
f 138/19/4 420/19/4 135/19/4
f 135/19/4 420/19/4 419/19/4
f 413/5/4 626/5/4 431/5/4
f 431/5/4 626/5/4 446/5/4
f 429/7/4 152/7/4 628/7/4
f 628/7/4 152/7/4 445/7/4
f 629/5/4 447/5/4 630/5/4
f 630/5/4 447/5/4 475/5/4
f 254/10/4 239/10/4 251/10/4
f 251/10/4 239/10/4 505/10/4
f 262/12/4 512/12/4 259/12/4
f 259/12/4 512/12/4 511/12/4
f 46/18/4 31/18/4 57/18/4
f 57/18/4 31/18/4 36/18/4
f 58/19/4 35/19/4 55/19/4
f 55/19/4 35/19/4 372/19/4
f 55/11/4 372/11/4 82/11/4
f 82/11/4 372/11/4 371/11/4
f 376/11/4 591/11/4 94/11/4
f 94/11/4 591/11/4 381/11/4
f 130/19/4 414/19/4 127/19/4
f 127/19/4 414/19/4 413/19/4
f 142/19/4 137/19/4 139/19/4
f 139/19/4 137/19/4 136/19/4
f 463/19/4 629/19/4 464/19/4
f 464/19/4 629/19/4 630/19/4
f 268/9/4 264/9/4 265/9/4
f 265/9/4 264/9/4 263/9/4
f 89/11/4 43/11/4 86/11/4
f 86/11/4 43/11/4 83/11/4
f 126/19/4 412/19/4 123/19/4
f 123/19/4 412/19/4 411/19/4
f 150/19/4 141/19/4 147/19/4
f 147/19/4 141/19/4 140/19/4
f 184/19/4 462/19/4 181/19/4
f 181/19/4 462/19/4 461/19/4
f 182/19/4 464/19/4 221/19/4
f 221/19/4 464/19/4 491/19/4
f 146/19/4 125/19/4 143/19/4
f 143/19/4 125/19/4 124/19/4
f 631/19/4 430/19/4 163/19/4
f 163/19/4 430/19/4 628/19/4
f 164/19/4 183/19/4 193/19/4
f 193/19/4 183/19/4 182/19/4
f 194/19/4 223/19/4 228/19/4
f 228/19/4 223/19/4 222/19/4
f 156/10/4 631/10/4 153/10/4
f 153/10/4 631/10/4 166/10/4
f 154/19/4 165/19/4 171/19/4
f 171/19/4 165/19/4 164/19/4
f 201/19/4 195/19/4 198/19/4
f 198/19/4 195/19/4 194/19/4
f 170/10/4 153/10/4 167/10/4
f 167/10/4 153/10/4 448/10/4
f 180/10/4 157/10/4 177/10/4
f 177/10/4 157/10/4 172/10/4
f 188/10/4 167/10/4 185/10/4
f 185/10/4 167/10/4 465/10/4
f 214/10/4 177/10/4 211/10/4
f 211/10/4 177/10/4 481/10/4
f 185/18/4 465/18/4 215/18/4
f 215/18/4 465/18/4 483/18/4
f 211/18/4 481/18/4 237/18/4
f 237/18/4 481/18/4 493/18/4
f 514/12/5 260/12/5 511/12/5
f 511/12/5 260/12/5 259/12/5
f 546/18/5 553/18/5 543/18/5
f 543/18/5 553/18/5 552/18/5
f 554/18/5 304/18/5 551/18/5
f 551/18/5 304/18/5 303/18/5
f 305/18/5 296/18/5 306/18/5
f 306/18/5 296/18/5 295/18/5
f 428/5/5 152/5/5 427/5/5
f 427/5/5 152/5/5 151/5/5
f 528/18/5 529/18/5 525/18/5
f 525/18/5 529/18/5 599/18/5
f 339/18/5 48/18/5 337/18/5
f 337/18/5 48/18/5 47/18/5
f 529/19/5 281/19/5 599/19/5
f 599/19/5 281/19/5 612/19/5
f 49/19/5 342/19/5 50/19/5
f 50/19/5 342/19/5 341/19/5
f 281/18/5 278/18/5 612/18/5
f 612/18/5 278/18/5 277/18/5
f 343/18/5 52/18/5 340/18/5
f 340/18/5 52/18/5 51/18/5
f 366/6/5 80/6/5 363/6/5
f 363/6/5 80/6/5 79/6/5
f 447/7/5 629/7/5 445/7/5
f 445/7/5 629/7/5 628/7/5
f 629/19/5 463/19/5 628/19/5
f 628/19/5 463/19/5 462/19/5
f 632/9/5 266/9/5 263/9/5
f 263/9/5 266/9/5 265/9/5
f 464/19/5 182/19/5 461/19/5
f 461/19/5 182/19/5 181/19/5
f 183/19/5 164/19/5 184/19/5
f 184/19/5 164/19/5 163/19/5
f 165/10/5 154/10/5 166/10/5
f 166/10/5 154/10/5 153/10/5
f 171/10/5 168/10/5 448/10/5
f 448/10/5 168/10/5 167/10/5
f 484/18/5 216/18/5 483/18/5
f 483/18/5 216/18/5 215/18/5
f 406/2/5 605/2/5 405/2/5
f 405/2/5 605/2/5 604/2/5
f 486/8/5 218/8/5 485/8/5
f 485/8/5 218/8/5 217/8/5
f 344/11/5 358/11/5 339/11/5
f 339/11/5 358/11/5 357/11/5
f 605/4/5 112/4/5 604/4/5
f 604/4/5 112/4/5 111/4/5
f 530/11/5 282/11/5 529/11/5
f 529/11/5 282/11/5 281/11/5
f 219/18/5 190/18/5 220/18/5
f 220/18/5 190/18/5 189/18/5
f 113/11/5 620/11/5 114/11/5
f 114/11/5 620/11/5 365/11/5
f 620/6/5 72/6/5 365/6/5
f 365/6/5 72/6/5 71/6/5
f 73/11/5 373/11/5 74/11/5
f 74/11/5 373/11/5 372/11/5
f 374/11/5 83/11/5 371/11/5
f 371/11/5 83/11/5 82/11/5
f 223/19/5 194/19/5 182/19/5
f 182/19/5 194/19/5 193/19/5
f 195/19/5 201/19/5 164/19/5
f 164/19/5 201/19/5 171/19/5
f 633/13/5 634/13/5 72/13/5
f 72/13/5 634/13/5 595/13/5
f 348/16/5 349/16/5 345/16/5
f 345/16/5 349/16/5 344/16/5
f 534/11/5 535/11/5 531/11/5
f 531/11/5 535/11/5 530/11/5
f 360/11/5 396/11/5 359/11/5
f 359/11/5 396/11/5 395/11/5
f 542/16/5 294/16/5 541/16/5
f 541/16/5 294/16/5 293/16/5
f 249/10/5 196/10/5 250/10/5
f 250/10/5 196/10/5 190/10/5
f 287/11/5 284/11/5 282/11/5
f 282/11/5 284/11/5 283/11/5
f 133/11/5 116/11/5 134/11/5
f 134/11/5 116/11/5 115/11/5
f 488/10/5 225/10/5 487/10/5
f 487/10/5 225/10/5 224/10/5
f 117/11/5 103/11/5 118/11/5
f 118/11/5 103/11/5 102/11/5
f 498/10/5 240/10/5 497/10/5
f 497/10/5 240/10/5 239/10/5
f 75/14/5 591/14/5 633/14/5
f 633/14/5 591/14/5 634/14/5
f 635/10/5 636/10/5 514/10/5
f 514/10/5 636/10/5 260/10/5
f 591/9/5 376/9/5 595/9/5
f 595/9/5 376/9/5 375/9/5
f 94/11/5 87/11/5 83/11/5
f 83/11/5 87/11/5 86/11/5
f 234/19/5 229/19/5 222/19/5
f 222/19/5 229/19/5 228/19/5
f 204/19/5 199/19/5 194/19/5
f 194/19/5 199/19/5 198/19/5
f 408/5/5 564/5/5 407/5/5
f 407/5/5 564/5/5 573/5/5
f 564/15/5 570/15/5 573/15/5
f 573/15/5 570/15/5 571/15/5
f 490/8/5 231/8/5 489/8/5
f 489/8/5 231/8/5 230/8/5
f 350/11/5 362/11/5 349/11/5
f 349/11/5 362/11/5 361/11/5
f 570/5/5 120/5/5 571/5/5
f 571/5/5 120/5/5 119/5/5
f 536/11/5 288/11/5 535/11/5
f 535/11/5 288/11/5 287/11/5
f 232/18/5 202/18/5 233/18/5
f 233/18/5 202/18/5 196/18/5
f 92/11/5 386/11/5 93/11/5
f 93/11/5 386/11/5 583/11/5
f 203/18/5 587/18/5 192/18/5
f 192/18/5 587/18/5 624/18/5
f 386/6/5 76/6/5 583/6/5
f 583/6/5 76/6/5 75/6/5
f 587/5/5 457/5/5 624/5/5
f 624/5/5 457/5/5 447/5/5
f 520/5/5 521/5/5 517/5/5
f 517/5/5 521/5/5 516/5/5
f 77/11/5 383/11/5 78/11/5
f 78/11/5 383/11/5 382/11/5
f 476/5/5 594/5/5 475/5/5
f 475/5/5 594/5/5 630/5/5
f 384/11/5 95/11/5 381/11/5
f 381/11/5 95/11/5 94/11/5
f 594/19/5 477/19/5 630/19/5
f 630/19/5 477/19/5 464/19/5
f 637/5/5 269/5/5 632/5/5
f 632/5/5 269/5/5 266/5/5
f 492/19/5 235/19/5 491/19/5
f 491/19/5 235/19/5 221/19/5
f 207/19/5 205/19/5 236/19/5
f 236/19/5 205/19/5 204/19/5
f 173/19/5 172/19/5 206/19/5
f 206/19/5 172/19/5 200/19/5
f 540/18/5 565/18/5 537/18/5
f 537/18/5 565/18/5 536/18/5
f 352/18/5 64/18/5 350/18/5
f 350/18/5 64/18/5 63/18/5
f 565/19/5 577/19/5 536/19/5
f 536/19/5 577/19/5 288/19/5
f 65/19/5 355/19/5 66/19/5
f 66/19/5 355/19/5 354/19/5
f 577/18/5 290/18/5 288/18/5
f 288/18/5 290/18/5 289/18/5
f 356/18/5 68/18/5 353/18/5
f 353/18/5 68/18/5 67/18/5
f 388/6/5 97/6/5 385/6/5
f 385/6/5 97/6/5 96/6/5
f 459/7/5 592/7/5 457/7/5
f 457/7/5 592/7/5 593/7/5
f 592/19/5 479/19/5 593/19/5
f 593/19/5 479/19/5 478/19/5
f 273/9/5 271/9/5 637/9/5
f 637/9/5 271/9/5 269/9/5
f 480/19/5 208/19/5 477/19/5
f 477/19/5 208/19/5 207/19/5
f 209/19/5 174/19/5 210/19/5
f 210/19/5 174/19/5 173/19/5
f 175/10/5 158/10/5 176/10/5
f 176/10/5 158/10/5 157/10/5
f 460/10/5 178/10/5 172/10/5
f 172/10/5 178/10/5 177/10/5
f 494/18/5 238/18/5 493/18/5
f 493/18/5 238/18/5 237/18/5
f 550/18/5 557/18/5 547/18/5
f 547/18/5 557/18/5 556/18/5
f 558/18/5 308/18/5 555/18/5
f 555/18/5 308/18/5 307/18/5
f 309/18/5 300/18/5 310/18/5
f 310/18/5 300/18/5 299/18/5
f 444/5/5 162/5/5 443/5/5
f 443/5/5 162/5/5 161/5/5
f 524/6/5 274/6/5 635/6/5
f 635/6/5 274/6/5 636/6/5
f 513/12/6 512/12/6 261/12/6
f 261/12/6 512/12/6 262/12/6
f 545/18/6 544/18/6 525/18/6
f 525/18/6 544/18/6 597/18/6
f 525/19/6 597/19/6 277/19/6
f 277/19/6 597/19/6 619/19/6
f 277/18/6 619/18/6 297/18/6
f 297/18/6 619/18/6 298/18/6
f 363/6/6 390/6/6 79/6/6
f 79/6/6 390/6/6 101/6/6
f 527/18/6 526/18/6 502/18/6
f 502/18/6 526/18/6 499/18/6
f 328/18/6 338/18/6 327/18/6
f 327/18/6 338/18/6 325/18/6
f 501/18/6 500/18/6 245/18/6
f 245/18/6 500/18/6 246/18/6
f 315/18/6 326/18/6 13/18/6
f 13/18/6 326/18/6 14/18/6
f 244/18/6 243/18/6 279/18/6
f 279/18/6 243/18/6 280/18/6
f 12/18/6 11/18/6 53/18/6
f 53/18/6 11/18/6 54/18/6
f 365/6/6 364/6/6 71/6/6
f 71/6/6 364/6/6 81/6/6
f 446/7/6 152/7/6 431/7/6
f 431/7/6 152/7/6 429/7/6
f 413/19/6 430/19/6 127/19/6
f 127/19/6 430/19/6 411/19/6
f 638/9/6 264/9/6 267/9/6
f 267/9/6 264/9/6 268/9/6
f 130/19/6 412/19/6 125/19/6
f 125/19/6 412/19/6 126/19/6
f 124/19/6 123/19/6 143/19/6
f 143/19/6 123/19/6 631/19/6
f 143/10/6 631/10/6 155/10/6
f 155/10/6 631/10/6 156/10/6
f 154/10/6 153/10/6 169/10/6
f 169/10/6 153/10/6 170/10/6
f 168/10/6 167/10/6 187/10/6
f 187/10/6 167/10/6 188/10/6
f 318/19/6 329/19/6 317/19/6
f 317/19/6 329/19/6 315/19/6
f 369/2/6 368/2/6 395/2/6
f 395/2/6 368/2/6 600/2/6
f 469/5/6 468/5/6 452/5/6
f 452/5/6 468/5/6 449/5/6
f 395/4/6 600/4/6 113/4/6
f 113/4/6 600/4/6 114/4/6
f 451/18/6 450/18/6 435/18/6
f 435/18/6 450/18/6 432/18/6
f 503/11/6 502/11/6 247/11/6
f 247/11/6 502/11/6 244/11/6
f 311/19/6 316/19/6 1/19/6
f 1/19/6 316/19/6 7/19/6
f 434/5/6 433/5/6 639/5/6
f 639/5/6 433/5/6 622/5/6
f 6/19/6 5/19/6 25/19/6
f 25/19/6 5/19/6 26/19/6
f 639/18/6 622/18/6 419/18/6
f 419/18/6 622/18/6 626/18/6
f 24/19/6 23/19/6 37/19/6
f 37/19/6 23/19/6 38/19/6
f 419/5/6 626/5/6 135/5/6
f 135/5/6 626/5/6 413/5/6
f 505/10/6 513/10/6 251/10/6
f 251/10/6 513/10/6 261/10/6
f 36/19/6 35/19/6 57/19/6
f 57/19/6 35/19/6 58/19/6
f 138/19/6 414/19/6 129/19/6
f 129/19/6 414/19/6 130/19/6
f 128/1/6 127/1/6 640/1/6
f 640/1/6 127/1/6 124/1/6
f 641/17/6 135/17/6 642/17/6
f 642/17/6 135/17/6 640/17/6
f 347/16/6 346/16/6 331/16/6
f 331/16/6 346/16/6 330/16/6
f 533/11/6 532/11/6 504/11/6
f 504/11/6 532/11/6 503/11/6
f 320/18/6 319/18/6 314/18/6
f 314/18/6 319/18/6 311/18/6
f 417/11/6 416/11/6 397/11/6
f 397/11/6 416/11/6 394/11/6
f 248/11/6 247/11/6 285/11/6
f 285/11/6 247/11/6 286/11/6
f 313/18/6 312/18/6 3/18/6
f 3/18/6 312/18/6 4/18/6
f 132/18/6 131/18/6 643/18/6
f 643/18/6 131/18/6 639/18/6
f 196/10/6 190/10/6 226/10/6
f 226/10/6 190/10/6 227/10/6
f 2/18/6 1/18/6 17/18/6
f 17/18/6 1/18/6 18/18/6
f 643/5/6 639/5/6 422/5/6
f 422/5/6 639/5/6 419/5/6
f 225/10/6 224/10/6 241/10/6
f 241/10/6 224/10/6 242/10/6
f 16/18/6 15/18/6 33/18/6
f 33/18/6 15/18/6 34/18/6
f 421/19/6 420/19/6 137/19/6
f 137/19/6 420/19/6 138/19/6
f 240/10/6 239/10/6 253/10/6
f 253/10/6 239/10/6 254/10/6
f 32/18/6 31/18/6 45/18/6
f 45/18/6 31/18/6 46/18/6
f 136/3/6 641/3/6 139/3/6
f 139/3/6 641/3/6 644/3/6
f 44/11/6 43/11/6 88/11/6
f 88/11/6 43/11/6 89/11/6
f 139/17/6 644/17/6 645/17/6
f 645/17/6 644/17/6 642/17/6
f 379/5/6 378/5/6 560/5/6
f 560/5/6 378/5/6 360/5/6
f 332/19/6 321/19/6 324/19/6
f 324/19/6 321/19/6 322/19/6
f 560/15/6 360/15/6 567/15/6
f 567/15/6 360/15/6 396/15/6
f 473/5/6 472/5/6 456/5/6
f 456/5/6 472/5/6 453/5/6
f 567/5/6 396/5/6 92/5/6
f 92/5/6 396/5/6 93/5/6
f 455/18/6 454/18/6 439/18/6
f 439/18/6 454/18/6 436/18/6
f 507/11/6 504/11/6 255/11/6
f 255/11/6 504/11/6 248/11/6
f 323/19/6 314/19/6 10/19/6
f 10/19/6 314/19/6 2/19/6
f 438/5/6 437/5/6 585/5/6
f 585/5/6 437/5/6 643/5/6
f 9/19/6 8/19/6 29/19/6
f 29/19/6 8/19/6 30/19/6
f 585/18/6 643/18/6 589/18/6
f 589/18/6 643/18/6 422/18/6
f 519/5/6 518/5/6 522/5/6
f 522/5/6 518/5/6 515/5/6
f 28/19/6 27/19/6 41/19/6
f 41/19/6 27/19/6 42/19/6
f 589/5/6 422/5/6 424/5/6
f 424/5/6 422/5/6 136/5/6
f 40/19/6 39/19/6 61/19/6
f 61/19/6 39/19/6 62/19/6
f 423/19/6 137/19/6 141/19/6
f 141/19/6 137/19/6 142/19/6
f 646/5/6 638/5/6 270/5/6
f 270/5/6 638/5/6 267/5/6
f 140/1/6 139/1/6 147/1/6
f 147/1/6 139/1/6 645/1/6
f 150/19/6 125/19/6 145/19/6
f 145/19/6 125/19/6 146/19/6
f 144/19/6 143/19/6 160/19/6
f 160/19/6 143/19/6 155/19/6
f 539/18/6 538/18/6 510/18/6
f 510/18/6 538/18/6 507/18/6
f 351/18/6 333/18/6 336/18/6
f 336/18/6 333/18/6 334/18/6
f 509/18/6 508/18/6 257/18/6
f 257/18/6 508/18/6 258/18/6
f 335/18/6 324/18/6 21/18/6
f 21/18/6 324/18/6 22/18/6
f 256/18/6 255/18/6 291/18/6
f 291/18/6 255/18/6 292/18/6
f 20/18/6 19/18/6 69/18/6
f 69/18/6 19/18/6 70/18/6
f 387/6/6 386/6/6 98/6/6
f 98/6/6 386/6/6 76/6/6
f 161/7/6 458/7/6 442/7/6
f 442/7/6 458/7/6 440/7/6
f 441/19/6 424/19/6 426/19/6
f 426/19/6 424/19/6 140/19/6
f 276/9/6 646/9/6 272/9/6
f 272/9/6 646/9/6 270/9/6
f 425/19/6 141/19/6 149/19/6
f 149/19/6 141/19/6 150/19/6
f 148/19/6 147/19/6 596/19/6
f 596/19/6 147/19/6 144/19/6
f 596/10/6 144/10/6 159/10/6
f 159/10/6 144/10/6 160/10/6
f 158/10/6 157/10/6 179/10/6
f 179/10/6 157/10/6 180/10/6
f 178/10/6 177/10/6 213/10/6
f 213/10/6 177/10/6 214/10/6
f 549/18/6 548/18/6 559/18/6
f 559/18/6 548/18/6 540/18/6
f 559/19/6 540/19/6 582/19/6
f 582/19/6 540/19/6 290/19/6
f 582/18/6 290/18/6 301/18/6
f 301/18/6 290/18/6 302/18/6
f 401/6/6 388/6/6 108/6/6
f 108/6/6 388/6/6 97/6/6
f 523/6/6 506/6/6 275/6/6
f 275/6/6 506/6/6 252/6/6
