# Vengi binary mesh normalized for Tanks of Freedom II

mtllib ../../materials/vox_building.mtl
o chancellor

v 0.2 0.1 0.3
v -0.2 0.1 0.3
v -0.2 0.1 0.4
v 0.2 0.1 0.4
v 0.3 0.1 0.2
v 0.2 0.1 0.2
v 0.3 0.1 0.3
v 0.2 0.3 0.2
v -0.2 0.3 0.2
v -0.2 0.3 0.3
v 0.2 0.3 0.3
v -0.2 0.1 0.2
v -0.3 0.1 0.2
v -0.3 0.1 0.3
v 0.3 0.3 0.1
v 0.2 0.3 0.1
v 0.3 0.3 0.2
v 0.2 0.4 0.1
v 0.1 0.4 0.1
v 0.1 0.4 0.2
v 0.2 0.4 0.2
v 0.2 1 0.1
v 0.1 1 0.1
v 0.1 1 0.2
v 0.2 1 0.2
v 0.1 0.6 0.1
v -0.1 0.6 0.1
v -0.1 0.6 0.2
v 0.1 0.6 0.2
v -0.1 0.4 0.1
v -0.2 0.4 0.1
v -0.2 0.4 0.2
v -0.1 0.4 0.2
v -0.1 1 0.1
v -0.2 1 0.1
v -0.2 1 0.2
v -0.1 1 0.2
v -0.2 0.3 0.1
v -0.3 0.3 0.1
v -0.3 0.3 0.2
v 0.4 0.6 0
v 0.3 0.6 0
v 0.3 0.6 0.1
v 0.4 0.6 0.1
v 0.3 0.4 0
v 0.2 0.4 0
v 0.3 0.4 0.1
v 0.3 0.7 0
v 0.2 0.7 0
v 0.2 0.7 0.1
v 0.3 0.7 0.1
v -0.2 0.4 0
v -0.3 0.4 0
v -0.3 0.4 0.1
v -0.2 0.7 0
v -0.3 0.7 0
v -0.3 0.7 0.1
v -0.2 0.7 0.1
v -0.2 1.1 0
v -0.3 1.1 0
v -0.3 1.1 0.1
v -0.2 1.1 0.1
v -0.3 0.6 0
v -0.4 0.6 0
v -0.4 0.6 0.1
v -0.3 0.6 0.1
v 0.4 0.1 -0.1
v 0.3 0.1 -0.1
v 0.4 0.1 0.2
v 0.3 0.3 -0.1
v 0.2 0.3 -0.1
v 0.2 0.3 0
v 0.3 0.3 0
v 0.3 1 -0.1
v 0.2 1 -0.1
v 0.3 1 0.1
v 0.2 0.4 -0.1
v 0.1 0.4 -0.1
v 0.1 0.4 0
v 0.2 1.1 -0.1
v 0.1 1.1 -0.1
v 0.1 1.1 0.1
v 0.2 1.1 0.1
v -0.1 0.4 -0.1
v -0.2 0.4 -0.1
v -0.1 0.4 0
v -0.1 1.1 -0.1
v -0.2 1.1 -0.1
v -0.1 1.1 0.1
v -0.2 0.3 -0.1
v -0.3 0.3 -0.1
v -0.3 0.3 0
v -0.2 0.3 0
v -0.2 1 -0.1
v -0.3 1 -0.1
v -0.3 1 0
v -0.2 1 0
v -0.3 0.1 -0.1
v -0.4 0.1 -0.1
v -0.4 0.1 0.2
v 0.3 0.1 -0.2
v 0.2 0.1 -0.2
v 0.2 0.1 -0.1
v 0.2 1 -0.2
v 0.1 1 -0.2
v 0.1 1 -0.1
v 0.2 0.3 -0.2
v 0 0.3 -0.2
v 0 0.3 -0.1
v 0.1 1.1 -0.2
v -0.1 1.1 -0.2
v -0.1 1.1 0.2
v 0.1 1.1 0.2
v -0.1 0.3 -0.2
v -0.2 0.3 -0.2
v -0.1 0.3 -0.1
v -0.1 1 -0.2
v -0.2 1 -0.2
v -0.1 1 -0.1
v -0.2 0.1 -0.2
v -0.3 0.1 -0.2
v -0.2 0.1 -0.1
v 0.1 1 -0.3
v -0.1 1 -0.3
v 0.2 0.1 -0.3
v -0.2 0.1 -0.3
v 0.2 0 0.3
v 0.2 0 0.4
v -0.2 0 0.4
v -0.2 0 0.3
v 0.3 0 0.2
v 0.3 0 0.3
v 0.2 0 0.2
v -0.2 0 0.2
v -0.3 0 0.3
v -0.3 0 0.2
v 0.1 0.3 0.2
v 0.1 0.3 0.1
v 0.2 0.6 0.1
v 0.2 0.6 0.2
v 0.1 0.7 0.1
v 0.1 0.7 0.2
v 0 0.7 0.2
v 0 0.7 0.1
v -0.1 0.7 0.2
v -0.1 0.7 0.1
v -0.1 0.3 0.1
v -0.1 0.3 0.2
v -0.2 0.6 0.2
v -0.2 0.6 0.1
v 0.4 0.4 0
v 0.4 0.4 0.1
v 0.2 0.6 0
v 0.3 0.8 0
v 0.3 0.8 0.1
v 0.2 0.8 0.1
v 0.2 0.8 0
v 0.2 0 0
v 0.2 0 0.1
v 0.1 0 0.1
v 0.1 0 0
v -0.1 0 0
v -0.1 0 0.1
v -0.2 0 0.1
v -0.2 0 0
v -0.2 0.6 0
v -0.2 0.8 0
v -0.2 0.8 0.1
v -0.3 0.8 0.1
v -0.3 0.8 0
v -0.4 0.4 0.1
v -0.4 0.4 0
v 0.4 0 -0.1
v 0.4 0 0.2
v 0.3 0 -0.1
v 0.3 0.7 -0.1
v 0.2 0.7 -0.1
v 0.1 0.3 0
v 0.1 0.3 -0.1
v 0.2 0.6 -0.1
v 0.1 0.6 0
v 0.1 0.6 -0.1
v -0.1 0.3 0
v -0.1 0.6 -0.1
v -0.1 0.6 0
v -0.2 0.6 -0.1
v -0.2 0.7 -0.1
v -0.3 0.7 -0.1
v -0.3 0 -0.1
v -0.4 0 0.2
v -0.4 0 -0.1
v 0.3 0 -0.2
v 0.2 0 -0.1
v 0.2 0 -0.2
v 0.2 0.6 -0.2
v 0.1 0.6 -0.2
v 0.1 0.4 -0.2
v 0 0.4 -0.1
v 0 0.4 -0.2
v -0.1 0.6 -0.2
v -0.2 0.6 -0.2
v -0.2 0 -0.2
v -0.2 0 -0.1
v -0.3 0 -0.2
v 0.1 0.6 -0.3
v -0.1 0.6 -0.3
v 0.2 0 -0.3
v -0.2 0 -0.3
v 0.1 0.1 0.1
v 0.1 0.1 0
v -0.2 0.1 0.1
v -0.2 0.1 0
v 0.2 0.1 0.1
v 0.2 0.1 0
v -0.2 0.7 0.2
v -0.2 0.8 0.2
v -0.2 0.9 0.2
v -0.2 0.9 0.1
v -0.3 1 0.1
v -0.1 0.1 0.1
v -0.1 0.1 0
v 0.2 0.7 0.2
v 0.2 0.8 0.2
v 0.2 0.9 0.2
v 0.2 0.9 0.1
v 0.3 1 0
v -0.1 0.4 -0.2
v 0.1 0.8 0.2
v 0.1 0.9 0.2
v 0 0.8 0.2
v -0.1 0.8 0.2
v -0.1 0.9 0.2

vt 0.00585938 0.5
vt 0.0136719 0.5
vt 0.0488281 0.5
vt 0.0683594 0.5
vt 0.123047 0.5
vt 0.158203 0.5
vt 0.162109 0.5
vt 0.166016 0.5

vn 0 1 0
vn 0 -1 0
vn -1 0 0
vn 1 0 0
vn 0 0 -1
vn 0 0 1

usemtl palette
f 1/8/1 2/8/1 4/8/1
f 4/8/1 2/8/1 3/8/1
f 5/6/1 6/6/1 7/6/1
f 7/6/1 6/6/1 1/6/1
f 8/8/1 9/8/1 11/8/1
f 11/8/1 9/8/1 10/8/1
f 12/6/1 13/6/1 2/6/1
f 2/6/1 13/6/1 14/6/1
f 15/8/1 16/8/1 17/8/1
f 17/8/1 16/8/1 8/8/1
f 18/6/1 19/6/1 21/6/1
f 21/6/1 19/6/1 20/6/1
f 22/4/1 23/4/1 25/4/1
f 25/4/1 23/4/1 24/4/1
f 26/7/1 27/7/1 29/7/1
f 29/7/1 27/7/1 28/7/1
f 30/6/1 31/6/1 33/6/1
f 33/6/1 31/6/1 32/6/1
f 34/4/1 35/4/1 37/4/1
f 37/4/1 35/4/1 36/4/1
f 38/8/1 39/8/1 9/8/1
f 9/8/1 39/8/1 40/8/1
f 41/6/1 42/6/1 44/6/1
f 44/6/1 42/6/1 43/6/1
f 45/5/1 46/5/1 47/5/1
f 47/5/1 46/5/1 18/5/1
f 48/8/1 49/8/1 51/8/1
f 51/8/1 49/8/1 50/8/1
f 52/5/1 53/5/1 31/5/1
f 31/5/1 53/5/1 54/5/1
f 55/8/1 56/8/1 58/8/1
f 58/8/1 56/8/1 57/8/1
f 59/6/1 60/6/1 62/6/1
f 62/6/1 60/6/1 61/6/1
f 63/6/1 64/6/1 66/6/1
f 66/6/1 64/6/1 65/6/1
f 67/8/1 68/8/1 69/8/1
f 69/8/1 68/8/1 5/8/1
f 70/8/1 71/8/1 73/8/1
f 73/8/1 71/8/1 72/8/1
f 74/4/1 75/4/1 76/4/1
f 76/4/1 75/4/1 22/4/1
f 77/6/1 78/6/1 46/6/1
f 46/6/1 78/6/1 79/6/1
f 80/4/1 81/4/1 83/4/1
f 83/4/1 81/4/1 82/4/1
f 84/6/1 85/6/1 86/6/1
f 86/6/1 85/6/1 52/6/1
f 87/4/1 88/4/1 89/4/1
f 89/4/1 88/4/1 62/4/1
f 90/8/1 91/8/1 93/8/1
f 93/8/1 91/8/1 92/8/1
f 94/4/1 95/4/1 97/4/1
f 97/4/1 95/4/1 96/4/1
f 98/8/1 99/8/1 13/8/1
f 13/8/1 99/8/1 100/8/1
f 101/6/1 102/6/1 68/6/1
f 68/6/1 102/6/1 103/6/1
f 104/4/1 105/4/1 75/4/1
f 75/4/1 105/4/1 106/4/1
f 107/8/1 108/8/1 71/8/1
f 71/8/1 108/8/1 109/8/1
f 110/4/1 111/4/1 113/4/1
f 113/4/1 111/4/1 112/4/1
f 114/8/1 115/8/1 116/8/1
f 116/8/1 115/8/1 90/8/1
f 117/4/1 118/4/1 119/4/1
f 119/4/1 118/4/1 94/4/1
f 120/6/1 121/6/1 122/6/1
f 122/6/1 121/6/1 98/6/1
f 123/4/1 124/4/1 105/4/1
f 105/4/1 124/4/1 117/4/1
f 125/8/1 126/8/1 102/8/1
f 102/8/1 126/8/1 120/8/1
f 127/8/2 128/8/2 130/8/2
f 130/8/2 128/8/2 129/8/2
f 131/6/2 132/6/2 133/6/2
f 133/6/2 132/6/2 127/6/2
f 6/8/2 1/8/2 12/8/2
f 12/8/2 1/8/2 2/8/2
f 134/6/2 130/6/2 136/6/2
f 136/6/2 130/6/2 135/6/2
f 16/6/2 8/6/2 138/6/2
f 138/6/2 8/6/2 137/6/2
f 139/6/2 140/6/2 26/6/2
f 26/6/2 140/6/2 29/6/2
f 141/5/2 142/5/2 144/5/2
f 144/5/2 142/5/2 143/5/2
f 144/2/2 143/2/2 146/2/2
f 146/2/2 143/2/2 145/2/2
f 147/6/2 148/6/2 38/6/2
f 38/6/2 148/6/2 9/6/2
f 27/6/2 28/6/2 150/6/2
f 150/6/2 28/6/2 149/6/2
f 151/6/2 152/6/2 45/6/2
f 45/6/2 152/6/2 47/6/2
f 42/8/2 43/8/2 153/8/2
f 153/8/2 43/8/2 139/8/2
f 154/4/2 155/4/2 157/4/2
f 157/4/2 155/4/2 156/4/2
f 158/6/2 159/6/2 161/6/2
f 161/6/2 159/6/2 160/6/2
f 162/6/2 163/6/2 165/6/2
f 165/6/2 163/6/2 164/6/2
f 166/8/2 150/8/2 63/8/2
f 63/8/2 150/8/2 66/8/2
f 167/4/2 168/4/2 170/4/2
f 170/4/2 168/4/2 169/4/2
f 53/6/2 54/6/2 172/6/2
f 172/6/2 54/6/2 171/6/2
f 173/8/2 174/8/2 175/8/2
f 175/8/2 174/8/2 131/8/2
f 68/8/2 5/8/2 103/8/2
f 103/8/2 5/8/2 6/8/2
f 176/4/2 48/4/2 177/4/2
f 177/4/2 48/4/2 49/4/2
f 71/6/2 72/6/2 179/6/2
f 179/6/2 72/6/2 178/6/2
f 180/6/2 153/6/2 182/6/2
f 182/6/2 153/6/2 181/6/2
f 179/8/2 137/8/2 116/8/2
f 116/8/2 137/8/2 148/8/2
f 116/6/2 183/6/2 90/6/2
f 90/6/2 183/6/2 93/6/2
f 184/6/2 185/6/2 186/6/2
f 186/6/2 185/6/2 166/6/2
f 122/8/2 12/8/2 98/8/2
f 98/8/2 12/8/2 13/8/2
f 187/4/2 55/4/2 188/4/2
f 188/4/2 55/4/2 56/4/2
f 189/8/2 136/8/2 191/8/2
f 191/8/2 136/8/2 190/8/2
f 192/6/2 175/6/2 194/6/2
f 194/6/2 175/6/2 193/6/2
f 195/4/2 180/4/2 196/4/2
f 196/4/2 180/4/2 182/4/2
f 197/4/2 78/4/2 199/4/2
f 199/4/2 78/4/2 198/4/2
f 102/8/2 103/8/2 120/8/2
f 120/8/2 103/8/2 122/8/2
f 200/4/2 184/4/2 201/4/2
f 201/4/2 184/4/2 186/4/2
f 202/6/2 203/6/2 204/6/2
f 204/6/2 203/6/2 189/6/2
f 205/4/2 196/4/2 206/4/2
f 206/4/2 196/4/2 200/4/2
f 207/8/2 194/8/2 208/8/2
f 208/8/2 194/8/2 202/8/2
f 3/8/3 2/8/3 129/8/3
f 129/8/3 2/8/3 130/8/3
f 1/6/3 6/6/3 127/6/3
f 127/6/3 6/6/3 133/6/3
f 14/6/3 13/6/3 135/6/3
f 135/6/3 13/6/3 136/6/3
f 209/6/3 210/6/3 160/6/3
f 160/6/3 210/6/3 161/6/3
f 211/6/3 212/6/3 164/6/3
f 164/6/3 212/6/3 165/6/3
f 5/8/3 68/8/3 131/8/3
f 131/8/3 68/8/3 175/8/3
f 100/8/3 99/8/3 190/8/3
f 190/8/3 99/8/3 191/8/3
f 103/6/3 102/6/3 193/6/3
f 193/6/3 102/6/3 194/6/3
f 98/6/3 121/6/3 189/6/3
f 189/6/3 121/6/3 204/6/3
f 120/8/3 126/8/3 202/8/3
f 202/8/3 126/8/3 208/8/3
f 10/8/3 9/8/3 2/8/3
f 2/8/3 9/8/3 12/8/3
f 8/8/3 16/8/3 6/8/3
f 6/8/3 16/8/3 213/8/3
f 138/5/3 178/5/3 209/5/3
f 209/5/3 178/5/3 210/5/3
f 72/8/3 71/8/3 214/8/3
f 214/8/3 71/8/3 103/8/3
f 40/8/3 91/8/3 13/8/3
f 13/8/3 91/8/3 98/8/3
f 90/8/3 115/8/3 122/8/3
f 122/8/3 115/8/3 120/8/3
f 32/6/3 31/6/3 9/6/3
f 9/6/3 31/6/3 38/6/3
f 54/5/3 53/5/3 39/5/3
f 39/5/3 53/5/3 92/5/3
f 52/6/3 85/6/3 93/6/3
f 93/6/3 85/6/3 90/6/3
f 28/7/3 27/7/3 33/7/3
f 33/7/3 27/7/3 30/7/3
f 43/6/3 42/6/3 47/6/3
f 47/6/3 42/6/3 45/6/3
f 150/7/3 166/7/3 31/7/3
f 31/7/3 166/7/3 52/7/3
f 65/6/3 64/6/3 171/6/3
f 171/6/3 64/6/3 172/6/3
f 185/7/3 184/7/3 86/7/3
f 86/7/3 184/7/3 84/7/3
f 184/4/3 200/4/3 116/4/3
f 116/4/3 200/4/3 114/4/3
f 142/6/3 141/6/3 29/6/3
f 29/6/3 141/6/3 26/6/3
f 215/6/3 58/6/3 149/6/3
f 149/6/3 58/6/3 150/6/3
f 57/8/3 56/8/3 66/8/3
f 66/8/3 56/8/3 63/8/3
f 55/6/3 187/6/3 166/6/3
f 166/6/3 187/6/3 186/6/3
f 216/5/3 167/5/3 215/5/3
f 215/5/3 167/5/3 55/5/3
f 217/3/3 218/3/3 216/3/3
f 216/3/3 218/3/3 168/3/3
f 36/4/3 35/4/3 217/4/3
f 217/4/3 35/4/3 218/4/3
f 219/4/3 96/4/3 169/4/3
f 169/4/3 96/4/3 170/4/3
f 96/4/3 95/4/3 56/4/3
f 56/4/3 95/4/3 188/4/3
f 94/4/3 118/4/3 186/4/3
f 186/4/3 118/4/3 201/4/3
f 117/4/3 124/4/3 200/4/3
f 200/4/3 124/4/3 206/4/3
f 112/4/3 89/4/3 37/4/3
f 37/4/3 89/4/3 34/4/3
f 61/6/3 60/6/3 219/6/3
f 219/6/3 60/6/3 96/6/3
f 59/4/3 88/4/3 97/4/3
f 97/4/3 88/4/3 94/4/3
f 87/4/3 111/4/3 119/4/3
f 119/4/3 111/4/3 117/4/3
f 4/8/4 128/8/4 1/8/4
f 1/8/4 128/8/4 127/8/4
f 7/6/4 132/6/4 5/6/4
f 5/6/4 132/6/4 131/6/4
f 2/6/4 130/6/4 12/6/4
f 12/6/4 130/6/4 134/6/4
f 213/6/4 159/6/4 214/6/4
f 214/6/4 159/6/4 158/6/4
f 220/6/4 163/6/4 221/6/4
f 221/6/4 163/6/4 162/6/4
f 69/8/4 174/8/4 67/8/4
f 67/8/4 174/8/4 173/8/4
f 13/8/4 136/8/4 98/8/4
f 98/8/4 136/8/4 189/8/4
f 68/6/4 175/6/4 101/6/4
f 101/6/4 175/6/4 192/6/4
f 122/6/4 203/6/4 120/6/4
f 120/6/4 203/6/4 202/6/4
f 102/8/4 194/8/4 125/8/4
f 125/8/4 194/8/4 207/8/4
f 11/8/4 1/8/4 8/8/4
f 8/8/4 1/8/4 6/8/4
f 9/8/4 12/8/4 38/8/4
f 38/8/4 12/8/4 211/8/4
f 147/5/4 220/5/4 183/5/4
f 183/5/4 220/5/4 221/5/4
f 17/8/4 5/8/4 70/8/4
f 70/8/4 5/8/4 68/8/4
f 93/8/4 212/8/4 90/8/4
f 90/8/4 212/8/4 122/8/4
f 71/8/4 103/8/4 107/8/4
f 107/8/4 103/8/4 102/8/4
f 21/6/4 8/6/4 18/6/4
f 18/6/4 8/6/4 16/6/4
f 47/5/4 15/5/4 45/5/4
f 45/5/4 15/5/4 73/5/4
f 46/6/4 72/6/4 77/6/4
f 77/6/4 72/6/4 71/6/4
f 198/4/4 109/4/4 199/4/4
f 199/4/4 109/4/4 108/4/4
f 29/7/4 20/7/4 26/7/4
f 26/7/4 20/7/4 19/7/4
f 44/6/4 152/6/4 41/6/4
f 41/6/4 152/6/4 151/6/4
f 139/7/4 18/7/4 153/7/4
f 153/7/4 18/7/4 46/7/4
f 66/6/4 54/6/4 63/6/4
f 63/6/4 54/6/4 53/6/4
f 181/7/4 79/7/4 182/7/4
f 182/7/4 79/7/4 78/7/4
f 182/4/4 78/4/4 196/4/4
f 196/4/4 78/4/4 197/4/4
f 222/6/4 140/6/4 50/6/4
f 50/6/4 140/6/4 139/6/4
f 145/6/4 28/6/4 146/6/4
f 146/6/4 28/6/4 27/6/4
f 51/8/4 43/8/4 48/8/4
f 48/8/4 43/8/4 42/8/4
f 49/6/4 153/6/4 177/6/4
f 177/6/4 153/6/4 180/6/4
f 223/5/4 222/5/4 157/5/4
f 157/5/4 222/5/4 49/5/4
f 224/3/4 223/3/4 225/3/4
f 225/3/4 223/3/4 156/3/4
f 25/4/4 224/4/4 22/4/4
f 22/4/4 224/4/4 225/4/4
f 76/4/4 155/4/4 226/4/4
f 226/4/4 155/4/4 154/4/4
f 226/4/4 48/4/4 74/4/4
f 74/4/4 48/4/4 176/4/4
f 75/4/4 180/4/4 104/4/4
f 104/4/4 180/4/4 195/4/4
f 105/4/4 196/4/4 123/4/4
f 123/4/4 196/4/4 205/4/4
f 113/4/4 24/4/4 82/4/4
f 82/4/4 24/4/4 23/4/4
f 83/4/4 22/4/4 80/4/4
f 80/4/4 22/4/4 75/4/4
f 81/4/4 106/4/4 110/4/4
f 110/4/4 106/4/4 105/4/4
f 175/8/5 68/8/5 173/8/5
f 173/8/5 68/8/5 67/8/5
f 45/6/5 42/6/5 151/6/5
f 151/6/5 42/6/5 41/6/5
f 133/6/5 6/6/5 131/6/5
f 131/6/5 6/6/5 5/6/5
f 194/6/5 102/6/5 192/6/5
f 192/6/5 102/6/5 101/6/5
f 103/8/5 71/8/5 68/8/5
f 68/8/5 71/8/5 70/8/5
f 72/5/5 46/5/5 73/5/5
f 73/5/5 46/5/5 45/5/5
f 153/8/5 49/8/5 42/8/5
f 42/8/5 49/8/5 48/8/5
f 177/4/5 75/4/5 176/4/5
f 176/4/5 75/4/5 74/4/5
f 161/6/5 210/6/5 158/6/5
f 158/6/5 210/6/5 214/6/5
f 210/5/5 178/5/5 214/5/5
f 214/5/5 178/5/5 72/5/5
f 179/6/5 78/6/5 71/6/5
f 71/6/5 78/6/5 77/6/5
f 79/7/5 181/7/5 46/7/5
f 46/7/5 181/7/5 153/7/5
f 196/4/5 105/4/5 195/4/5
f 195/4/5 105/4/5 104/4/5
f 106/4/5 81/4/5 75/4/5
f 75/4/5 81/4/5 80/4/5
f 109/8/5 198/8/5 179/8/5
f 179/8/5 198/8/5 78/8/5
f 114/4/5 227/4/5 108/4/5
f 108/4/5 227/4/5 199/4/5
f 227/4/5 200/4/5 197/4/5
f 197/4/5 200/4/5 196/4/5
f 206/4/5 124/4/5 205/4/5
f 205/4/5 124/4/5 123/4/5
f 117/4/5 111/4/5 105/4/5
f 105/4/5 111/4/5 110/4/5
f 130/8/5 2/8/5 127/8/5
f 127/8/5 2/8/5 1/8/5
f 165/6/5 212/6/5 162/6/5
f 162/6/5 212/6/5 221/6/5
f 208/8/5 126/8/5 207/8/5
f 207/8/5 126/8/5 125/8/5
f 12/8/5 9/8/5 6/8/5
f 6/8/5 9/8/5 8/8/5
f 212/5/5 93/5/5 221/5/5
f 221/5/5 93/5/5 183/5/5
f 120/8/5 115/8/5 102/8/5
f 102/8/5 115/8/5 107/8/5
f 90/6/5 85/6/5 116/6/5
f 116/6/5 85/6/5 84/6/5
f 52/7/5 166/7/5 86/7/5
f 86/7/5 166/7/5 185/7/5
f 201/4/5 118/4/5 200/4/5
f 200/4/5 118/4/5 117/4/5
f 94/4/5 88/4/5 119/4/5
f 119/4/5 88/4/5 87/4/5
f 136/6/5 13/6/5 134/6/5
f 134/6/5 13/6/5 12/6/5
f 204/6/5 121/6/5 202/6/5
f 202/6/5 121/6/5 120/6/5
f 98/8/5 91/8/5 122/8/5
f 122/8/5 91/8/5 90/8/5
f 92/5/5 53/5/5 93/5/5
f 93/5/5 53/5/5 52/5/5
f 63/8/5 56/8/5 166/8/5
f 166/8/5 56/8/5 55/8/5
f 188/4/5 95/4/5 187/4/5
f 187/4/5 95/4/5 94/4/5
f 96/6/5 60/6/5 97/6/5
f 97/6/5 60/6/5 59/6/5
f 191/8/5 99/8/5 189/8/5
f 189/8/5 99/8/5 98/8/5
f 172/6/5 64/6/5 53/6/5
f 53/6/5 64/6/5 63/6/5
f 131/8/6 174/8/6 5/8/6
f 5/8/6 174/8/6 69/8/6
f 47/6/6 152/6/6 43/6/6
f 43/6/6 152/6/6 44/6/6
f 127/6/6 132/6/6 1/6/6
f 1/6/6 132/6/6 7/6/6
f 193/6/6 175/6/6 103/6/6
f 103/6/6 175/6/6 68/6/6
f 6/8/6 5/8/6 8/8/6
f 8/8/6 5/8/6 17/8/6
f 16/5/6 15/5/6 18/5/6
f 18/5/6 15/5/6 47/5/6
f 139/8/6 43/8/6 50/8/6
f 50/8/6 43/8/6 51/8/6
f 49/4/6 48/4/6 157/4/6
f 157/4/6 48/4/6 154/4/6
f 156/4/6 155/4/6 22/4/6
f 22/4/6 155/4/6 76/4/6
f 160/6/6 159/6/6 209/6/6
f 209/6/6 159/6/6 213/6/6
f 209/5/6 213/5/6 138/5/6
f 138/5/6 213/5/6 16/5/6
f 137/6/6 8/6/6 20/6/6
f 20/6/6 8/6/6 21/6/6
f 19/7/6 18/7/6 26/7/6
f 26/7/6 18/7/6 139/7/6
f 29/6/6 140/6/6 142/6/6
f 142/6/6 140/6/6 222/6/6
f 228/3/6 223/3/6 229/3/6
f 229/3/6 223/3/6 224/3/6
f 23/4/6 22/4/6 82/4/6
f 82/4/6 22/4/6 83/4/6
f 143/5/6 222/5/6 230/5/6
f 230/5/6 222/5/6 223/5/6
f 148/8/6 137/8/6 33/8/6
f 33/8/6 137/8/6 20/8/6
f 33/7/6 20/7/6 28/7/6
f 28/7/6 20/7/6 29/7/6
f 27/5/6 26/5/6 146/5/6
f 146/5/6 26/5/6 141/5/6
f 145/2/6 143/2/6 231/2/6
f 231/2/6 143/2/6 230/2/6
f 231/5/6 228/5/6 232/5/6
f 232/5/6 228/5/6 229/5/6
f 37/4/6 24/4/6 112/4/6
f 112/4/6 24/4/6 113/4/6
f 129/8/6 128/8/6 3/8/6
f 3/8/6 128/8/6 4/8/6
f 164/6/6 163/6/6 211/6/6
f 211/6/6 163/6/6 220/6/6
f 202/8/6 194/8/6 120/8/6
f 120/8/6 194/8/6 102/8/6
f 2/8/6 1/8/6 10/8/6
f 10/8/6 1/8/6 11/8/6
f 211/5/6 220/5/6 38/5/6
f 38/5/6 220/5/6 147/5/6
f 122/8/6 103/8/6 90/8/6
f 90/8/6 103/8/6 71/8/6
f 9/6/6 148/6/6 32/6/6
f 32/6/6 148/6/6 33/6/6
f 31/7/6 30/7/6 150/7/6
f 150/7/6 30/7/6 27/7/6
f 149/6/6 28/6/6 215/6/6
f 215/6/6 28/6/6 145/6/6
f 215/5/6 145/5/6 216/5/6
f 216/5/6 145/5/6 231/5/6
f 216/3/6 231/3/6 217/3/6
f 217/3/6 231/3/6 232/3/6
f 217/4/6 224/4/6 36/4/6
f 36/4/6 224/4/6 25/4/6
f 35/4/6 34/4/6 62/4/6
f 62/4/6 34/4/6 89/4/6
f 135/6/6 130/6/6 14/6/6
f 14/6/6 130/6/6 2/6/6
f 189/6/6 203/6/6 98/6/6
f 98/6/6 203/6/6 122/6/6
f 13/8/6 12/8/6 40/8/6
f 40/8/6 12/8/6 9/8/6
f 39/5/6 38/5/6 54/5/6
f 54/5/6 38/5/6 31/5/6
f 66/8/6 150/8/6 57/8/6
f 57/8/6 150/8/6 58/8/6
f 56/4/6 55/4/6 170/4/6
f 170/4/6 55/4/6 167/4/6
f 169/4/6 168/4/6 219/4/6
f 219/4/6 168/4/6 35/4/6
f 219/6/6 35/6/6 61/6/6
f 61/6/6 35/6/6 62/6/6
f 190/8/6 136/8/6 100/8/6
f 100/8/6 136/8/6 13/8/6
f 171/6/6 54/6/6 65/6/6
f 65/6/6 54/6/6 66/6/6
