# Vengi binary mesh normalized for Tanks of Freedom II

mtllib ../../materials/vox_building.mtl
o king

v -0.3 0.4 0.4
v -0.4 0.4 0.4
v -0.4 0.4 0.5
v -0.3 0.4 0.5
v -0.2 0.4 0.3
v -0.3 0.4 0.3
v -0.2 0.4 0.4
v -0.3 0.5 0.3
v -0.4 0.5 0.3
v -0.4 0.5 0.4
v -0.3 0.5 0.4
v -0.4 0.4 0.3
v -0.5 0.4 0.3
v -0.5 0.4 0.4
v 0.5 0.1 0.1
v 0.4 0.1 0.1
v 0.4 0.1 0.2
v 0.5 0.1 0.2
v 0.3 0.7 0.1
v 0.2 0.7 0.1
v 0.2 0.7 0.2
v 0.3 0.7 0.2
v 0.2 1.2 0.1
v 0.1 1.2 0.1
v 0.1 1.2 0.2
v 0.2 1.2 0.2
v 0.1 1.1 0.1
v -0.1 1.1 0.1
v -0.1 1.1 0.2
v 0.1 1.1 0.2
v -0.1 1.2 0.1
v -0.2 1.2 0.1
v -0.2 1.2 0.2
v -0.1 1.2 0.2
v -0.2 0.7 0.1
v -0.3 0.7 0.1
v -0.3 0.7 0.2
v -0.2 0.7 0.2
v -0.3 0.4 0.1
v -0.4 0.4 0.1
v -0.4 0.1 0.1
v -0.5 0.1 0.1
v -0.5 0.1 0.2
v -0.4 0.1 0.2
v 0.4 0.6 0
v 0.3 0.6 0
v 0.3 0.6 0.1
v 0.4 0.6 0.1
v 0.3 0.8 0
v 0.2 0.8 0
v 0.2 0.8 0.1
v 0.3 0.8 0.1
v 0.2 1.1 0
v 0.1 1.1 0
v 0.2 1.1 0.1
v 0.1 1 0
v -0.1 1 0
v -0.1 1 0.1
v 0.1 1 0.1
v -0.1 1.1 0
v -0.2 1.1 0
v -0.2 1.1 0.1
v -0.2 0.8 0
v -0.3 0.8 0
v -0.3 0.8 0.1
v -0.2 0.8 0.1
v -0.3 0.6 0
v -0.4 0.6 0
v -0.4 0.6 0.1
v -0.3 0.6 0.1
v 0.3 0.7 -0.1
v 0.2 0.7 -0.1
v 0.2 0.7 0
v 0.3 0.7 0
v 0.3 1 -0.1
v 0.2 1 -0.1
v 0.2 1 0.1
v 0.3 1 0.1
v 0.2 1.2 -0.1
v 0.1 1.2 -0.1
v 0.1 1.2 0
v 0.2 1.2 0
v 0.1 1.1 -0.1
v -0.1 1.1 -0.1
v -0.1 1.2 -0.1
v -0.2 1.2 -0.1
v -0.2 1.2 0
v -0.1 1.2 0
v -0.2 0.7 -0.1
v -0.3 0.7 -0.1
v -0.3 0.7 0
v -0.2 0.7 0
v -0.2 1 -0.1
v -0.3 1 -0.1
v -0.3 1 0.1
v -0.2 1 0.1
v 0.6 0.1 -0.2
v 0.5 0.1 -0.2
v 0.6 0.1 0.1
v 0.4 0.1 -0.2
v 0.4 0.2 -0.2
v 0.3 0.2 -0.2
v 0.3 0.2 0.1
v 0.4 0.2 0.1
v 0.3 0.3 -0.2
v 0.2 0.3 -0.2
v 0.2 0.3 -0.1
v 0.3 0.3 -0.1
v 0.2 0.6 -0.2
v 0.1 0.6 -0.2
v 0.1 0.6 -0.1
v 0.2 0.6 -0.1
v -0.1 0.6 -0.2
v -0.2 0.6 -0.2
v -0.2 0.6 -0.1
v -0.1 0.6 -0.1
v 0.2 1 -0.2
v -0.2 1 -0.2
v -0.2 0.3 -0.2
v -0.3 0.3 -0.2
v -0.3 0.3 -0.1
v -0.2 0.3 -0.1
v -0.3 0.2 -0.2
v -0.4 0.2 -0.2
v -0.4 0.2 0.1
v -0.3 0.2 0.1
v -0.3 0.4 -0.2
v -0.4 0.4 -0.2
v -0.4 0.4 0
v -0.3 0.4 0
v -0.4 0.1 -0.2
v -0.5 0.1 -0.2
v -0.6 0.1 -0.2
v -0.6 0.1 0.1
v 0.5 0.1 -0.3
v 0.4 0.1 -0.3
v 0.3 0.1 -0.3
v 0.3 0.1 -0.2
v 0.3 0.2 -0.3
v 0.2 0.2 -0.3
v 0.2 0.2 -0.2
v 0.2 0.3 -0.3
v -0.2 0.3 -0.3
v -0.2 0.2 -0.3
v -0.3 0.2 -0.3
v -0.2 0.2 -0.2
v -0.3 0.1 -0.3
v -0.4 0.1 -0.3
v -0.3 0.1 -0.2
v -0.5 0.1 -0.3
v 0.4 0.1 -0.4
v 0.3 0.1 -0.4
v 0.2 0.1 -0.4
v 0.2 0.1 -0.3
v 0.2 0.2 -0.4
v -0.2 0.2 -0.4
v -0.2 0.1 -0.4
v -0.3 0.1 -0.4
v -0.2 0.1 -0.3
v -0.4 0.1 -0.4
v 0.3 0.1 -0.5
v 0.2 0.1 -0.5
v -0.2 0.1 -0.5
v -0.3 0.1 -0.5
v 0.2 0.1 -0.6
v -0.2 0.1 -0.6
v -0.3 0.3 0.4
v -0.3 0.3 0.5
v -0.4 0.3 0.5
v -0.4 0.3 0.4
v -0.2 0.3 0.3
v -0.2 0.3 0.4
v -0.3 0.3 0.3
v -0.3 0.2 0.3
v -0.3 0.2 0.4
v -0.4 0.2 0.4
v -0.4 0.2 0.3
v -0.4 0.3 0.3
v -0.5 0.3 0.4
v -0.5 0.3 0.3
v 0.5 0 0.1
v 0.5 0 0.2
v 0.4 0 0.2
v 0.4 0 0.1
v 0.3 0.5 0.1
v 0.3 0.5 0.2
v 0.2 0.5 0.2
v 0.2 0.5 0.1
v 0.2 0.3 0.1
v 0.2 0.3 0.2
v 0.1 0.3 0.2
v 0.1 0.3 0.1
v -0.1 0.3 0.2
v -0.1 0.3 0.1
v -0.2 0.3 0.2
v -0.2 0.3 0.1
v -0.2 0.5 0.1
v -0.2 0.5 0.2
v -0.3 0.5 0.2
v -0.3 0.5 0.1
v -0.3 0.3 0.1
v -0.4 0.3 0.1
v -0.4 0 0.1
v -0.4 0 0.2
v -0.5 0 0.2
v -0.5 0 0.1
v 0.4 0.4 0
v 0.4 0.4 0.1
v 0.3 0.4 0.1
v 0.3 0.4 0
v 0.3 0.3 0
v 0.3 0.3 0.1
v 0.2 0.3 0
v 0.3 0.9 0
v 0.3 0.9 0.1
v 0.2 0.9 0.1
v 0.2 0.9 0
v 0.2 0 0
v 0.2 0 0.1
v 0.1 0 0.1
v 0.1 0 0
v 0.1 0.3 0
v -0.1 0.3 0
v -0.1 0 0
v -0.1 0 0.1
v -0.2 0 0.1
v -0.2 0 0
v -0.2 0.4 0
v -0.2 0.4 0.1
v -0.2 0.9 0
v -0.2 0.9 0.1
v -0.3 0.9 0.1
v -0.3 0.9 0
v -0.3 0.3 0
v -0.4 0.3 0
v 0.3 0.8 -0.1
v 0.2 0.8 -0.1
v 0.1 0.3 -0.1
v -0.1 0.3 -0.1
v -0.2 0.3 0
v -0.2 0.8 -0.1
v -0.3 0.8 -0.1
v 0.6 0 -0.2
v 0.6 0 0.1
v 0.5 0 -0.2
v 0.4 0 -0.2
v 0.3 0.1 0.1
v 0.3 0.2 0
v 0.2 0.2 0
v 0.2 0.8 -0.2
v 0.1 0.8 -0.1
v 0.1 0.8 -0.2
v -0.1 0.8 -0.2
v -0.1 0.8 -0.1
v -0.2 0.8 -0.2
v -0.2 0.2 0
v -0.3 0.2 0
v -0.3 0.1 0.1
v -0.4 0.3 -0.2
v -0.4 0 -0.2
v -0.5 0 -0.2
v -0.6 0 0.1
v -0.6 0 -0.2
v 0.5 0 -0.3
v 0.4 0 -0.3
v 0.3 0 -0.2
v 0.3 0 -0.3
v 0.2 0.1 -0.2
v -0.2 0.1 -0.2
v -0.3 0 -0.3
v -0.3 0 -0.2
v -0.4 0 -0.3
v -0.5 0 -0.3
v 0.4 0 -0.4
v 0.3 0 -0.4
v 0.2 0 -0.3
v 0.2 0 -0.4
v -0.2 0 -0.4
v -0.2 0 -0.3
v -0.3 0 -0.4
v -0.4 0 -0.4
v 0.3 0 -0.5
v 0.2 0 -0.5
v -0.2 0 -0.5
v -0.3 0 -0.5
v 0.2 0 -0.6
v -0.2 0 -0.6
v 0.1 0.1 0.1
v 0.1 0.1 0
v -0.2 0.1 0.1
v -0.2 0.1 0
v -0.2 0.4 0.2
v -0.3 0.4 -0.1
v -0.1 0.7 -0.1
v -0.1 0.7 -0.2
v -0.2 0.8 0.2
v -0.2 0.9 0.2
v -0.2 1 0.2
v -0.3 1 0
v -0.2 1.1 -0.1
v 0.2 0.1 0.1
v 0.2 0.1 0
v -0.1 0.1 0.1
v -0.1 0.1 0
v 0.3 0.2 -0.1
v 0.2 0.4 0.2
v 0.2 0.4 0.1
v 0.1 0.7 -0.1
v 0.1 0.7 -0.2
v 0.2 0.8 0.2
v 0.2 0.9 0.2
v 0.2 1 0.2
v 0.3 1 0
v 0.2 1.1 -0.1
v -0.3 0.6 -0.1
v 0.1 0.4 0.2
v 0.1 0.7 0.2
v 0.1 0.8 0.2
v 0.1 0.9 0.2
v 0.2 1.1 0.2
v -0.1 0.4 0.2
v 0.1 0.6 0.2
v -0.1 0.6 0.2
v -0.1 0.7 0.2
v -0.1 0.8 0.2
v -0.1 0.9 0.2
v -0.2 1.1 0.2

vt 0.00195313 0.5
vt 0.00585938 0.5
vt 0.0292969 0.5
vt 0.0332031 0.5
vt 0.0722656 0.5
vt 0.0957031 0.5
vt 0.123047 0.5
vt 0.158203 0.5
vt 0.162109 0.5
vt 0.166016 0.5

vn 0 1 0
vn 0 -1 0
vn -1 0 0
vn 1 0 0
vn 0 0 -1
vn 0 0 1

usemtl palette
f 1/6/1 2/6/1 4/6/1
f 4/6/1 2/6/1 3/6/1
f 5/6/1 6/6/1 7/6/1
f 7/6/1 6/6/1 1/6/1
f 8/6/1 9/6/1 11/6/1
f 11/6/1 9/6/1 10/6/1
f 12/6/1 13/6/1 2/6/1
f 2/6/1 13/6/1 14/6/1
f 15/8/1 16/8/1 18/8/1
f 18/8/1 16/8/1 17/8/1
f 19/10/1 20/10/1 22/10/1
f 22/10/1 20/10/1 21/10/1
f 23/6/1 24/6/1 26/6/1
f 26/6/1 24/6/1 25/6/1
f 27/6/1 28/6/1 30/6/1
f 30/6/1 28/6/1 29/6/1
f 31/6/1 32/6/1 34/6/1
f 34/6/1 32/6/1 33/6/1
f 35/10/1 36/10/1 38/10/1
f 38/10/1 36/10/1 37/10/1
f 39/6/1 40/6/1 6/6/1
f 6/6/1 40/6/1 12/6/1
f 41/8/1 42/8/1 44/8/1
f 44/8/1 42/8/1 43/8/1
f 45/8/1 46/8/1 48/8/1
f 48/8/1 46/8/1 47/8/1
f 49/10/1 50/10/1 52/10/1
f 52/10/1 50/10/1 51/10/1
f 53/6/1 54/6/1 55/6/1
f 55/6/1 54/6/1 27/6/1
f 56/5/1 57/5/1 59/5/1
f 59/5/1 57/5/1 58/5/1
f 60/6/1 61/6/1 28/6/1
f 28/6/1 61/6/1 62/6/1
f 63/10/1 64/10/1 66/10/1
f 66/10/1 64/10/1 65/10/1
f 67/8/1 68/8/1 70/8/1
f 70/8/1 68/8/1 69/8/1
f 71/10/1 72/10/1 74/10/1
f 74/10/1 72/10/1 73/10/1
f 75/5/1 76/5/1 78/5/1
f 78/5/1 76/5/1 77/5/1
f 79/6/1 80/6/1 82/6/1
f 82/6/1 80/6/1 81/6/1
f 83/6/1 84/6/1 54/6/1
f 54/6/1 84/6/1 60/6/1
f 85/6/1 86/6/1 88/6/1
f 88/6/1 86/6/1 87/6/1
f 89/10/1 90/10/1 92/10/1
f 92/10/1 90/10/1 91/10/1
f 93/5/1 94/5/1 96/5/1
f 96/5/1 94/5/1 95/5/1
f 97/8/1 98/8/1 99/8/1
f 99/8/1 98/8/1 15/8/1
f 98/10/1 100/10/1 15/10/1
f 15/10/1 100/10/1 16/10/1
f 101/10/1 102/10/1 104/10/1
f 104/10/1 102/10/1 103/10/1
f 105/10/1 106/10/1 108/10/1
f 108/10/1 106/10/1 107/10/1
f 109/10/1 110/10/1 112/10/1
f 112/10/1 110/10/1 111/10/1
f 113/10/1 114/10/1 116/10/1
f 116/10/1 114/10/1 115/10/1
f 117/5/1 118/5/1 76/5/1
f 76/5/1 118/5/1 93/5/1
f 119/10/1 120/10/1 122/10/1
f 122/10/1 120/10/1 121/10/1
f 123/10/1 124/10/1 126/10/1
f 126/10/1 124/10/1 125/10/1
f 127/6/1 128/6/1 130/6/1
f 130/6/1 128/6/1 129/6/1
f 131/10/1 132/10/1 41/10/1
f 41/10/1 132/10/1 42/10/1
f 132/8/1 133/8/1 42/8/1
f 42/8/1 133/8/1 134/8/1
f 135/8/1 136/8/1 98/8/1
f 98/8/1 136/8/1 100/8/1
f 136/10/1 137/10/1 100/10/1
f 100/10/1 137/10/1 138/10/1
f 139/10/1 140/10/1 102/10/1
f 102/10/1 140/10/1 141/10/1
f 142/10/1 143/10/1 106/10/1
f 106/10/1 143/10/1 119/10/1
f 144/10/1 145/10/1 146/10/1
f 146/10/1 145/10/1 123/10/1
f 147/10/1 148/10/1 149/10/1
f 149/10/1 148/10/1 131/10/1
f 148/8/1 150/8/1 131/8/1
f 131/8/1 150/8/1 132/8/1
f 151/8/1 152/8/1 136/8/1
f 136/8/1 152/8/1 137/8/1
f 152/10/1 153/10/1 137/10/1
f 137/10/1 153/10/1 154/10/1
f 155/10/1 156/10/1 140/10/1
f 140/10/1 156/10/1 144/10/1
f 157/10/1 158/10/1 159/10/1
f 159/10/1 158/10/1 147/10/1
f 158/8/1 160/8/1 147/8/1
f 147/8/1 160/8/1 148/8/1
f 161/8/1 162/8/1 152/8/1
f 152/8/1 162/8/1 153/8/1
f 162/10/1 163/10/1 153/10/1
f 153/10/1 163/10/1 157/10/1
f 163/8/1 164/8/1 157/8/1
f 157/8/1 164/8/1 158/8/1
f 165/8/1 166/8/1 162/8/1
f 162/8/1 166/8/1 163/8/1
f 167/6/2 168/6/2 170/6/2
f 170/6/2 168/6/2 169/6/2
f 171/6/2 172/6/2 173/6/2
f 173/6/2 172/6/2 167/6/2
f 174/6/2 175/6/2 177/6/2
f 177/6/2 175/6/2 176/6/2
f 178/6/2 170/6/2 180/6/2
f 180/6/2 170/6/2 179/6/2
f 181/8/2 182/8/2 184/8/2
f 184/8/2 182/8/2 183/8/2
f 185/10/2 186/10/2 188/10/2
f 188/10/2 186/10/2 187/10/2
f 189/9/2 190/9/2 192/9/2
f 192/9/2 190/9/2 191/9/2
f 192/8/2 191/8/2 194/8/2
f 194/8/2 191/8/2 193/8/2
f 194/9/2 193/9/2 196/9/2
f 196/9/2 193/9/2 195/9/2
f 197/10/2 198/10/2 200/10/2
f 200/10/2 198/10/2 199/10/2
f 201/6/2 173/6/2 202/6/2
f 202/6/2 173/6/2 178/6/2
f 203/8/2 204/8/2 206/8/2
f 206/8/2 204/8/2 205/8/2
f 207/8/2 208/8/2 210/8/2
f 210/8/2 208/8/2 209/8/2
f 211/7/2 212/7/2 213/7/2
f 213/7/2 212/7/2 189/7/2
f 214/5/2 215/5/2 217/5/2
f 217/5/2 215/5/2 216/5/2
f 218/8/2 219/8/2 221/8/2
f 221/8/2 219/8/2 220/8/2
f 222/9/2 192/9/2 223/9/2
f 223/9/2 192/9/2 194/9/2
f 224/8/2 225/8/2 227/8/2
f 227/8/2 225/8/2 226/8/2
f 228/10/2 229/10/2 130/10/2
f 130/10/2 229/10/2 39/10/2
f 230/5/2 231/5/2 233/5/2
f 233/5/2 231/5/2 232/5/2
f 234/7/2 201/7/2 235/7/2
f 235/7/2 201/7/2 202/7/2
f 236/5/2 49/5/2 237/5/2
f 237/5/2 49/5/2 50/5/2
f 107/9/2 213/9/2 238/9/2
f 238/9/2 213/9/2 222/9/2
f 238/8/2 222/8/2 239/8/2
f 239/8/2 222/8/2 223/8/2
f 239/9/2 223/9/2 122/9/2
f 122/9/2 223/9/2 240/9/2
f 241/5/2 63/5/2 242/5/2
f 242/5/2 63/5/2 64/5/2
f 243/8/2 244/8/2 245/8/2
f 245/8/2 244/8/2 181/8/2
f 245/10/2 181/10/2 246/10/2
f 246/10/2 181/10/2 184/10/2
f 100/10/2 16/10/2 138/10/2
f 138/10/2 16/10/2 247/10/2
f 102/10/2 248/10/2 141/10/2
f 141/10/2 248/10/2 249/10/2
f 250/5/2 237/5/2 252/5/2
f 252/5/2 237/5/2 251/5/2
f 106/10/2 107/10/2 119/10/2
f 119/10/2 107/10/2 122/10/2
f 253/5/2 254/5/2 255/5/2
f 255/5/2 254/5/2 241/5/2
f 146/10/2 256/10/2 123/10/2
f 123/10/2 256/10/2 257/10/2
f 149/10/2 258/10/2 131/10/2
f 131/10/2 258/10/2 41/10/2
f 120/6/2 234/6/2 259/6/2
f 259/6/2 234/6/2 235/6/2
f 260/10/2 203/10/2 261/10/2
f 261/10/2 203/10/2 206/10/2
f 261/8/2 206/8/2 263/8/2
f 263/8/2 206/8/2 262/8/2
f 264/8/2 245/8/2 265/8/2
f 265/8/2 245/8/2 246/8/2
f 265/10/2 246/10/2 267/10/2
f 267/10/2 246/10/2 266/10/2
f 137/10/2 138/10/2 154/10/2
f 154/10/2 138/10/2 268/10/2
f 140/10/2 141/10/2 144/10/2
f 144/10/2 141/10/2 146/10/2
f 159/10/2 269/10/2 147/10/2
f 147/10/2 269/10/2 149/10/2
f 270/10/2 271/10/2 272/10/2
f 272/10/2 271/10/2 260/10/2
f 272/8/2 260/8/2 273/8/2
f 273/8/2 260/8/2 261/8/2
f 274/8/2 265/8/2 275/8/2
f 275/8/2 265/8/2 267/8/2
f 275/10/2 267/10/2 277/10/2
f 277/10/2 267/10/2 276/10/2
f 153/10/2 154/10/2 157/10/2
f 157/10/2 154/10/2 159/10/2
f 278/10/2 279/10/2 280/10/2
f 280/10/2 279/10/2 270/10/2
f 280/8/2 270/8/2 281/8/2
f 281/8/2 270/8/2 272/8/2
f 282/8/2 275/8/2 283/8/2
f 283/8/2 275/8/2 277/8/2
f 283/10/2 277/10/2 284/10/2
f 284/10/2 277/10/2 278/10/2
f 284/8/2 278/8/2 285/8/2
f 285/8/2 278/8/2 280/8/2
f 286/8/2 283/8/2 287/8/2
f 287/8/2 283/8/2 284/8/2
f 17/8/3 16/8/3 183/8/3
f 183/8/3 16/8/3 184/8/3
f 43/8/3 42/8/3 205/8/3
f 205/8/3 42/8/3 206/8/3
f 288/8/3 289/8/3 220/8/3
f 220/8/3 289/8/3 221/8/3
f 290/8/3 291/8/3 226/8/3
f 226/8/3 291/8/3 227/8/3
f 16/10/3 100/10/3 184/10/3
f 184/10/3 100/10/3 246/10/3
f 134/8/3 133/8/3 262/8/3
f 262/8/3 133/8/3 263/8/3
f 138/10/3 137/10/3 266/10/3
f 266/10/3 137/10/3 267/10/3
f 132/8/3 150/8/3 261/8/3
f 261/8/3 150/8/3 273/8/3
f 154/10/3 153/10/3 276/10/3
f 276/10/3 153/10/3 277/10/3
f 148/8/3 160/8/3 272/8/3
f 272/8/3 160/8/3 281/8/3
f 158/8/3 164/8/3 280/8/3
f 280/8/3 164/8/3 285/8/3
f 163/8/3 166/8/3 284/8/3
f 284/8/3 166/8/3 287/8/3
f 103/10/3 102/10/3 247/10/3
f 247/10/3 102/10/3 138/10/3
f 125/10/3 124/10/3 41/10/3
f 41/10/3 124/10/3 131/10/3
f 141/10/3 140/10/3 268/10/3
f 268/10/3 140/10/3 154/10/3
f 123/10/3 145/10/3 149/10/3
f 149/10/3 145/10/3 147/10/3
f 144/10/3 156/10/3 159/10/3
f 159/10/3 156/10/3 157/10/3
f 170/6/3 178/6/3 176/6/3
f 176/6/3 178/6/3 177/6/3
f 192/3/3 222/3/3 288/3/3
f 288/3/3 222/3/3 289/3/3
f 196/3/3 240/3/3 290/3/3
f 290/3/3 240/3/3 291/3/3
f 213/10/3 106/10/3 249/10/3
f 249/10/3 106/10/3 141/10/3
f 234/10/3 120/10/3 257/10/3
f 257/10/3 120/10/3 123/10/3
f 119/10/3 143/10/3 146/10/3
f 146/10/3 143/10/3 144/10/3
f 3/6/3 2/6/3 169/6/3
f 169/6/3 2/6/3 170/6/3
f 14/6/3 13/6/3 179/6/3
f 179/6/3 13/6/3 180/6/3
f 292/9/3 229/9/3 195/9/3
f 195/9/3 229/9/3 196/9/3
f 12/6/3 40/6/3 178/6/3
f 178/6/3 40/6/3 202/6/3
f 229/8/3 228/8/3 196/8/3
f 196/8/3 228/8/3 240/8/3
f 40/7/3 129/7/3 202/7/3
f 202/7/3 129/7/3 235/7/3
f 129/6/3 128/6/3 235/6/3
f 235/6/3 128/6/3 259/6/3
f 10/6/3 9/6/3 2/6/3
f 2/6/3 9/6/3 12/6/3
f 198/8/3 197/8/3 292/8/3
f 292/8/3 197/8/3 229/8/3
f 69/8/3 68/8/3 40/8/3
f 40/8/3 68/8/3 129/8/3
f 115/10/3 114/10/3 122/10/3
f 122/10/3 114/10/3 119/10/3
f 37/10/3 36/10/3 199/10/3
f 199/10/3 36/10/3 200/10/3
f 36/8/3 91/8/3 70/8/3
f 70/8/3 91/8/3 67/8/3
f 91/10/3 90/10/3 130/10/3
f 130/10/3 90/10/3 293/10/3
f 294/10/3 295/10/3 116/10/3
f 116/10/3 295/10/3 113/10/3
f 296/7/3 66/7/3 38/7/3
f 38/7/3 66/7/3 35/7/3
f 65/10/3 64/10/3 36/10/3
f 36/10/3 64/10/3 91/10/3
f 63/7/3 241/7/3 92/7/3
f 92/7/3 241/7/3 89/7/3
f 254/5/3 253/5/3 294/5/3
f 294/5/3 253/5/3 295/5/3
f 297/4/3 231/4/3 296/4/3
f 296/4/3 231/4/3 66/4/3
f 231/7/3 230/7/3 66/7/3
f 66/7/3 230/7/3 63/7/3
f 298/7/3 96/7/3 297/7/3
f 297/7/3 96/7/3 231/7/3
f 95/5/3 299/5/3 232/5/3
f 232/5/3 299/5/3 233/5/3
f 299/5/3 94/5/3 64/5/3
f 64/5/3 94/5/3 242/5/3
f 93/5/3 118/5/3 241/5/3
f 241/5/3 118/5/3 255/5/3
f 27/6/3 54/6/3 59/6/3
f 59/6/3 54/6/3 56/6/3
f 62/6/3 300/6/3 96/6/3
f 96/6/3 300/6/3 93/6/3
f 25/6/3 24/6/3 30/6/3
f 30/6/3 24/6/3 27/6/3
f 33/6/3 32/6/3 298/6/3
f 298/6/3 32/6/3 96/6/3
f 81/6/3 80/6/3 54/6/3
f 54/6/3 80/6/3 83/6/3
f 87/6/3 86/6/3 61/6/3
f 61/6/3 86/6/3 300/6/3
f 18/8/4 182/8/4 15/8/4
f 15/8/4 182/8/4 181/8/4
f 44/8/4 204/8/4 41/8/4
f 41/8/4 204/8/4 203/8/4
f 301/8/4 219/8/4 302/8/4
f 302/8/4 219/8/4 218/8/4
f 303/8/4 225/8/4 304/8/4
f 304/8/4 225/8/4 224/8/4
f 99/8/4 244/8/4 97/8/4
f 97/8/4 244/8/4 243/8/4
f 41/10/4 203/10/4 131/10/4
f 131/10/4 203/10/4 260/10/4
f 98/8/4 245/8/4 135/8/4
f 135/8/4 245/8/4 264/8/4
f 149/10/4 271/10/4 147/10/4
f 147/10/4 271/10/4 270/10/4
f 136/8/4 265/8/4 151/8/4
f 151/8/4 265/8/4 274/8/4
f 159/10/4 279/10/4 157/10/4
f 157/10/4 279/10/4 278/10/4
f 152/8/4 275/8/4 161/8/4
f 161/8/4 275/8/4 282/8/4
f 162/8/4 283/8/4 165/8/4
f 165/8/4 283/8/4 286/8/4
f 104/10/4 16/10/4 101/10/4
f 101/10/4 16/10/4 100/10/4
f 126/10/4 258/10/4 123/10/4
f 123/10/4 258/10/4 149/10/4
f 102/10/4 138/10/4 139/10/4
f 139/10/4 138/10/4 137/10/4
f 146/10/4 269/10/4 144/10/4
f 144/10/4 269/10/4 159/10/4
f 140/10/4 154/10/4 155/10/4
f 155/10/4 154/10/4 153/10/4
f 167/6/4 175/6/4 173/6/4
f 173/6/4 175/6/4 174/6/4
f 189/3/4 301/3/4 213/3/4
f 213/3/4 301/3/4 302/3/4
f 194/3/4 303/3/4 223/3/4
f 223/3/4 303/3/4 304/3/4
f 108/10/4 305/10/4 105/10/4
f 105/10/4 305/10/4 102/10/4
f 240/10/4 256/10/4 119/10/4
f 119/10/4 256/10/4 146/10/4
f 106/10/4 141/10/4 142/10/4
f 142/10/4 141/10/4 140/10/4
f 4/6/4 168/6/4 1/6/4
f 1/6/4 168/6/4 167/6/4
f 7/6/4 172/6/4 5/6/4
f 5/6/4 172/6/4 171/6/4
f 306/9/4 190/9/4 307/9/4
f 307/9/4 190/9/4 189/9/4
f 6/6/4 173/6/4 39/6/4
f 39/6/4 173/6/4 201/6/4
f 209/7/4 212/7/4 210/7/4
f 210/7/4 212/7/4 211/7/4
f 39/7/4 201/7/4 130/7/4
f 130/7/4 201/7/4 234/7/4
f 293/6/4 121/6/4 127/6/4
f 127/6/4 121/6/4 120/6/4
f 11/6/4 1/6/4 8/6/4
f 8/6/4 1/6/4 6/6/4
f 187/8/4 306/8/4 188/8/4
f 188/8/4 306/8/4 307/8/4
f 48/8/4 208/8/4 45/8/4
f 45/8/4 208/8/4 207/8/4
f 112/10/4 107/10/4 109/10/4
f 109/10/4 107/10/4 106/10/4
f 22/10/4 186/10/4 19/10/4
f 19/10/4 186/10/4 185/10/4
f 19/8/4 47/8/4 74/8/4
f 74/8/4 47/8/4 46/8/4
f 74/10/4 248/10/4 71/10/4
f 71/10/4 248/10/4 305/10/4
f 308/10/4 111/10/4 309/10/4
f 309/10/4 111/10/4 110/10/4
f 310/7/4 21/7/4 51/7/4
f 51/7/4 21/7/4 20/7/4
f 52/10/4 19/10/4 49/10/4
f 49/10/4 19/10/4 74/10/4
f 50/7/4 73/7/4 237/7/4
f 237/7/4 73/7/4 72/7/4
f 251/5/4 308/5/4 252/5/4
f 252/5/4 308/5/4 309/5/4
f 311/4/4 310/4/4 216/4/4
f 216/4/4 310/4/4 51/4/4
f 216/7/4 51/7/4 217/7/4
f 217/7/4 51/7/4 50/7/4
f 312/7/4 311/7/4 77/7/4
f 77/7/4 311/7/4 216/7/4
f 78/5/4 215/5/4 313/5/4
f 313/5/4 215/5/4 214/5/4
f 313/5/4 49/5/4 75/5/4
f 75/5/4 49/5/4 236/5/4
f 76/5/4 237/5/4 117/5/4
f 117/5/4 237/5/4 250/5/4
f 28/6/4 58/6/4 60/6/4
f 60/6/4 58/6/4 57/6/4
f 55/6/4 77/6/4 314/6/4
f 314/6/4 77/6/4 76/6/4
f 26/6/4 312/6/4 23/6/4
f 23/6/4 312/6/4 77/6/4
f 34/6/4 29/6/4 31/6/4
f 31/6/4 29/6/4 28/6/4
f 82/6/4 53/6/4 79/6/4
f 79/6/4 53/6/4 314/6/4
f 88/6/4 60/6/4 85/6/4
f 85/6/4 60/6/4 84/6/4
f 245/8/5 98/8/5 243/8/5
f 243/8/5 98/8/5 97/8/5
f 265/8/5 136/8/5 264/8/5
f 264/8/5 136/8/5 135/8/5
f 275/8/5 152/8/5 274/8/5
f 274/8/5 152/8/5 151/8/5
f 138/10/5 102/10/5 100/10/5
f 100/10/5 102/10/5 101/10/5
f 210/8/5 46/8/5 207/8/5
f 207/8/5 46/8/5 45/8/5
f 283/8/5 162/8/5 282/8/5
f 282/8/5 162/8/5 161/8/5
f 154/10/5 140/10/5 137/10/5
f 137/10/5 140/10/5 139/10/5
f 141/10/5 106/10/5 102/10/5
f 102/10/5 106/10/5 105/10/5
f 107/10/5 72/10/5 108/10/5
f 108/10/5 72/10/5 71/10/5
f 73/10/5 50/10/5 74/10/5
f 74/10/5 50/10/5 49/10/5
f 237/5/5 76/5/5 236/5/5
f 236/5/5 76/5/5 75/5/5
f 221/8/5 289/8/5 218/8/5
f 218/8/5 289/8/5 302/8/5
f 289/3/5 222/3/5 302/3/5
f 302/3/5 222/3/5 213/3/5
f 111/10/5 308/10/5 112/10/5
f 112/10/5 308/10/5 72/10/5
f 308/7/5 251/7/5 72/7/5
f 72/7/5 251/7/5 237/7/5
f 27/6/5 24/6/5 55/6/5
f 55/6/5 24/6/5 23/6/5
f 83/6/5 80/6/5 314/6/5
f 314/6/5 80/6/5 79/6/5
f 113/10/5 295/10/5 110/10/5
f 110/10/5 295/10/5 309/10/5
f 295/5/5 253/5/5 309/5/5
f 309/5/5 253/5/5 252/5/5
f 58/6/5 28/6/5 59/6/5
f 59/6/5 28/6/5 27/6/5
f 227/8/5 291/8/5 224/8/5
f 224/8/5 291/8/5 304/8/5
f 287/8/5 166/8/5 286/8/5
f 286/8/5 166/8/5 165/8/5
f 157/10/5 156/10/5 153/10/5
f 153/10/5 156/10/5 155/10/5
f 291/3/5 240/3/5 304/3/5
f 304/3/5 240/3/5 223/3/5
f 144/10/5 143/10/5 140/10/5
f 140/10/5 143/10/5 142/10/5
f 119/10/5 114/10/5 106/10/5
f 106/10/5 114/10/5 109/10/5
f 89/7/5 241/7/5 294/7/5
f 294/7/5 241/7/5 254/7/5
f 255/5/5 118/5/5 250/5/5
f 250/5/5 118/5/5 117/5/5
f 93/6/5 300/6/5 76/6/5
f 76/6/5 300/6/5 314/6/5
f 62/6/5 32/6/5 28/6/5
f 28/6/5 32/6/5 31/6/5
f 300/6/5 86/6/5 84/6/5
f 84/6/5 86/6/5 85/6/5
f 285/8/5 164/8/5 284/8/5
f 284/8/5 164/8/5 163/8/5
f 147/10/5 145/10/5 159/10/5
f 159/10/5 145/10/5 144/10/5
f 123/10/5 120/10/5 146/10/5
f 146/10/5 120/10/5 119/10/5
f 173/6/5 6/6/5 171/6/5
f 171/6/5 6/6/5 5/6/5
f 121/10/5 315/10/5 122/10/5
f 122/10/5 315/10/5 115/10/5
f 315/10/5 90/10/5 116/10/5
f 116/10/5 90/10/5 294/10/5
f 91/10/5 64/10/5 92/10/5
f 92/10/5 64/10/5 63/10/5
f 242/5/5 94/5/5 241/5/5
f 241/5/5 94/5/5 93/5/5
f 281/8/5 160/8/5 280/8/5
f 280/8/5 160/8/5 158/8/5
f 131/10/5 124/10/5 149/10/5
f 149/10/5 124/10/5 123/10/5
f 177/6/5 178/6/5 174/6/5
f 174/6/5 178/6/5 173/6/5
f 259/6/5 128/6/5 120/6/5
f 120/6/5 128/6/5 127/6/5
f 12/6/5 9/6/5 6/6/5
f 6/6/5 9/6/5 8/6/5
f 129/8/5 68/8/5 130/8/5
f 130/8/5 68/8/5 67/8/5
f 273/8/5 150/8/5 272/8/5
f 272/8/5 150/8/5 148/8/5
f 180/6/5 13/6/5 178/6/5
f 178/6/5 13/6/5 12/6/5
f 263/8/5 133/8/5 261/8/5
f 261/8/5 133/8/5 132/8/5
f 181/8/6 244/8/6 15/8/6
f 15/8/6 244/8/6 99/8/6
f 183/8/6 182/8/6 17/8/6
f 17/8/6 182/8/6 18/8/6
f 266/10/6 246/10/6 138/10/6
f 138/10/6 246/10/6 100/10/6
f 247/10/6 16/10/6 103/10/6
f 103/10/6 16/10/6 104/10/6
f 209/8/6 208/8/6 47/8/6
f 47/8/6 208/8/6 48/8/6
f 276/10/6 267/10/6 154/10/6
f 154/10/6 267/10/6 137/10/6
f 268/10/6 138/10/6 141/10/6
f 141/10/6 138/10/6 102/10/6
f 249/10/6 248/10/6 213/10/6
f 213/10/6 248/10/6 211/10/6
f 189/7/6 212/7/6 307/7/6
f 307/7/6 212/7/6 209/7/6
f 307/10/6 209/10/6 188/10/6
f 188/10/6 209/10/6 185/10/6
f 187/10/6 186/10/6 21/10/6
f 21/10/6 186/10/6 22/10/6
f 20/10/6 19/10/6 51/10/6
f 51/10/6 19/10/6 52/10/6
f 50/5/6 49/5/6 217/5/6
f 217/5/6 49/5/6 214/5/6
f 216/5/6 215/5/6 77/5/6
f 77/5/6 215/5/6 78/5/6
f 220/8/6 219/8/6 288/8/6
f 288/8/6 219/8/6 301/8/6
f 288/3/6 301/3/6 192/3/6
f 192/3/6 301/3/6 189/3/6
f 191/9/6 190/9/6 316/9/6
f 316/9/6 190/9/6 306/9/6
f 316/8/6 306/8/6 317/8/6
f 317/8/6 306/8/6 21/8/6
f 317/7/6 21/7/6 318/7/6
f 318/7/6 21/7/6 310/7/6
f 318/4/6 310/4/6 319/4/6
f 319/4/6 310/4/6 311/4/6
f 30/6/6 320/6/6 25/6/6
f 25/6/6 320/6/6 26/6/6
f 54/6/6 53/6/6 81/6/6
f 81/6/6 53/6/6 82/6/6
f 193/8/6 191/8/6 321/8/6
f 321/8/6 191/8/6 316/8/6
f 321/9/6 316/9/6 323/9/6
f 323/9/6 316/9/6 322/9/6
f 323/6/6 322/6/6 324/6/6
f 324/6/6 322/6/6 317/6/6
f 324/1/6 317/1/6 325/1/6
f 325/1/6 317/1/6 318/1/6
f 325/7/6 318/7/6 326/7/6
f 326/7/6 318/7/6 319/7/6
f 57/6/6 56/6/6 60/6/6
f 60/6/6 56/6/6 54/6/6
f 226/8/6 225/8/6 290/8/6
f 290/8/6 225/8/6 303/8/6
f 278/10/6 277/10/6 157/10/6
f 157/10/6 277/10/6 153/10/6
f 159/10/6 154/10/6 144/10/6
f 144/10/6 154/10/6 140/10/6
f 290/3/6 303/3/6 196/3/6
f 196/3/6 303/3/6 194/3/6
f 146/10/6 141/10/6 119/10/6
f 119/10/6 141/10/6 106/10/6
f 195/9/6 193/9/6 292/9/6
f 292/9/6 193/9/6 321/9/6
f 292/8/6 321/8/6 38/8/6
f 38/8/6 321/8/6 324/8/6
f 38/7/6 324/7/6 296/7/6
f 296/7/6 324/7/6 325/7/6
f 296/4/6 325/4/6 297/4/6
f 297/4/6 325/4/6 326/4/6
f 297/7/6 311/7/6 298/7/6
f 298/7/6 311/7/6 312/7/6
f 298/6/6 312/6/6 327/6/6
f 327/6/6 312/6/6 320/6/6
f 327/6/6 29/6/6 33/6/6
f 33/6/6 29/6/6 34/6/6
f 61/6/6 60/6/6 87/6/6
f 87/6/6 60/6/6 88/6/6
f 270/10/6 279/10/6 147/10/6
f 147/10/6 279/10/6 159/10/6
f 149/10/6 269/10/6 123/10/6
f 123/10/6 269/10/6 146/10/6
f 167/6/6 172/6/6 1/6/6
f 1/6/6 172/6/6 7/6/6
f 257/10/6 256/10/6 130/10/6
f 130/10/6 256/10/6 228/10/6
f 39/10/6 229/10/6 200/10/6
f 200/10/6 229/10/6 197/10/6
f 199/10/6 198/10/6 37/10/6
f 37/10/6 198/10/6 38/10/6
f 36/10/6 35/10/6 65/10/6
f 65/10/6 35/10/6 66/10/6
f 64/5/6 63/5/6 233/5/6
f 233/5/6 63/5/6 230/5/6
f 232/5/6 231/5/6 95/5/6
f 95/5/6 231/5/6 96/5/6
f 260/10/6 271/10/6 131/10/6
f 131/10/6 271/10/6 149/10/6
f 41/10/6 258/10/6 125/10/6
f 125/10/6 258/10/6 126/10/6
f 176/6/6 175/6/6 170/6/6
f 170/6/6 175/6/6 167/6/6
f 169/6/6 168/6/6 3/6/6
f 3/6/6 168/6/6 4/6/6
f 2/6/6 1/6/6 10/6/6
f 10/6/6 1/6/6 11/6/6
f 40/8/6 39/8/6 69/8/6
f 69/8/6 39/8/6 70/8/6
f 205/8/6 204/8/6 43/8/6
f 43/8/6 204/8/6 44/8/6
f 179/6/6 170/6/6 14/6/6
f 14/6/6 170/6/6 2/6/6
f 262/8/6 206/8/6 134/8/6
f 134/8/6 206/8/6 42/8/6
