# Vengi binary mesh normalized for Tanks of Freedom II

mtllib ../../materials/vox_building.mtl
o lord

v -0.3 0.8 0.4
v -0.4 0.8 0.4
v -0.4 0.8 0.5
v -0.3 0.8 0.5
v -0.2 0.8 0.3
v -0.3 0.8 0.3
v -0.2 0.8 0.4
v -0.3 0.9 0.3
v -0.4 0.9 0.3
v -0.4 0.9 0.4
v -0.3 0.9 0.4
v -0.4 0.8 0.3
v -0.5 0.8 0.3
v -0.5 0.8 0.4
v -0.3 0.5 0.2
v -0.4 0.5 0.2
v -0.4 0.5 0.3
v -0.3 0.5 0.3
v -0.3 0.8 0.2
v -0.4 0.8 0.2
v 0.3 0.7 0.1
v 0.2 0.7 0.1
v 0.2 0.7 0.2
v 0.3 0.7 0.2
v 0.2 0.1 0.1
v 0.1 0.1 0.1
v 0.1 0.1 0.2
v 0.2 0.1 0.2
v -0.1 0.1 0.1
v -0.2 0.1 0.1
v -0.2 0.1 0.2
v -0.1 0.1 0.2
v -0.2 0.7 0.1
v -0.3 0.7 0.1
v -0.3 0.7 0.2
v -0.2 0.7 0.2
v -0.3 0.5 0.1
v -0.4 0.5 0.1
v 0.4 0.7 0
v 0.3 0.7 0
v 0.4 0.7 0.1
v 0.3 0.4 0
v 0.2 0.4 0
v 0.2 0.4 0.1
v 0.3 0.4 0.1
v 0.3 0.8 0
v 0.2 0.8 0
v 0.2 0.8 0.1
v 0.3 0.8 0.1
v -0.2 0.8 0
v -0.3 0.8 0
v -0.3 0.8 0.1
v -0.2 0.8 0.1
v -0.3 0.7 0
v -0.4 0.7 0
v -0.4 0.7 0.1
v 0.3 0.7 -0.1
v 0.2 0.7 -0.1
v 0.2 0.7 0
v 0.3 1 -0.1
v 0.2 1 -0.1
v 0.2 1 0.1
v 0.3 1 0.1
v 0.2 1.1 -0.1
v -0.2 1.1 -0.1
v -0.2 1.1 0.2
v 0.2 1.1 0.2
v -0.2 0.7 -0.1
v -0.3 0.7 -0.1
v -0.2 0.7 0
v -0.2 1 -0.1
v -0.3 1 -0.1
v -0.3 1 0.1
v -0.2 1 0.1
v 0.2 1 -0.2
v -0.2 1 -0.2
v -0.3 0.7 0.4
v -0.3 0.7 0.5
v -0.4 0.7 0.5
v -0.4 0.7 0.4
v -0.2 0.7 0.3
v -0.2 0.7 0.4
v -0.3 0.7 0.3
v -0.3 0 0.3
v -0.3 0 0.4
v -0.4 0 0.4
v -0.4 0 0.3
v -0.4 0.7 0.3
v -0.5 0.7 0.4
v -0.5 0.7 0.3
v -0.3 0.4 0.2
v -0.3 0.4 0.3
v -0.4 0.4 0.3
v -0.4 0.4 0.2
v -0.4 0.7 0.2
v 0.3 0.6 0.1
v 0.3 0.6 0.2
v 0.2 0.6 0.2
v 0.2 0.6 0.1
v 0.2 0.3 0.1
v 0.2 0.3 0.2
v -0.2 0.3 0.2
v -0.2 0.3 0.1
v -0.2 0.6 0.1
v -0.2 0.6 0.2
v -0.3 0.6 0.2
v -0.3 0.6 0.1
v -0.3 0.4 0.1
v -0.4 0.4 0.1
v 0.4 0.4 0
v 0.4 0.4 0.1
v 0.3 0.3 0
v 0.3 0.3 0.1
v 0.2 0.3 0
v 0.3 0.9 0
v 0.3 0.9 0.1
v 0.2 0.9 0.1
v 0.2 0.9 0
v 0.2 0 0
v 0.2 0 0.2
v 0.1 0 0.2
v 0.1 0 0
v 0.1 0.3 0
v 0.1 0.3 0.1
v -0.1 0.3 0.1
v -0.1 0.3 0
v -0.1 0 0
v -0.1 0 0.2
v -0.2 0 0.2
v -0.2 0 0
v -0.2 0.9 0
v -0.2 0.9 0.1
v -0.3 0.9 0.1
v -0.3 0.9 0
v -0.3 0.5 0
v -0.4 0.5 0
v 0.3 0.6 -0.1
v 0.2 0.6 -0.1
v 0.3 0.8 -0.1
v 0.2 0.8 -0.1
v 0.2 0.3 -0.1
v -0.2 0.3 0
v -0.2 0.3 -0.1
v -0.2 0.6 -0.1
v -0.3 0.6 -0.1
v -0.2 0.8 -0.1
v -0.3 0.8 -0.1
v 0.2 0.7 -0.2
v 0.1 0.7 -0.1
v 0.1 0.7 -0.2
v 0.1 0.6 -0.2
v 0.1 0.6 -0.1
v -0.1 0.6 -0.1
v -0.1 0.6 -0.2
v -0.1 0.7 -0.2
v -0.1 0.7 -0.1
v -0.2 0.7 -0.2
v 0.1 0.1 0
v -0.2 0.1 0
v -0.2 0.4 0.2
v -0.2 0.4 -0.1
v 0.3 0.6 0
v -0.4 0.6 0.1
v -0.4 0.6 0
v -0.3 0.6 0
v -0.2 0.8 0.2
v -0.2 0.9 0.2
v -0.2 1 0.2
v -0.3 1 0
v 0.2 0.1 0
v -0.1 0.1 0
v 0.2 0.4 0.2
v 0.2 0.4 -0.1
v 0.4 0.6 0.1
v 0.4 0.6 0
v 0.2 0.8 0.2
v 0.2 0.9 0.2
v 0.2 1 0.2
v 0.3 1 0
v 0.1 0.4 -0.1
v -0.1 0.4 -0.1
v 0.1 0.4 0.2
v 0.1 0.6 0.2
v 0.1 0.7 0.2
v 0.1 0.8 0.2
v 0.1 0.9 0.2
v 0 0.4 0.2
v 0.1 0.5 0.2
v 0 0.5 0.2
v 0 0.6 0.2
v -0.1 0.4 0.2
v -0.1 0.5 0.2
v -0.1 0.6 0.2
v -0.1 0.7 0.2
v -0.1 0.8 0.2
v -0.1 0.9 0.2

vt 0.00585938 0.5
vt 0.0214844 0.5
vt 0.0371094 0.5
vt 0.0722656 0.5
vt 0.0839844 0.5
vt 0.123047 0.5
vt 0.158203 0.5
vt 0.162109 0.5

vn 0 1 0
vn 0 -1 0
vn -1 0 0
vn 1 0 0
vn 0 0 -1
vn 0 0 1

usemtl palette
f 1/7/1 2/7/1 4/7/1
f 4/7/1 2/7/1 3/7/1
f 5/7/1 6/7/1 7/7/1
f 7/7/1 6/7/1 1/7/1
f 8/7/1 9/7/1 11/7/1
f 11/7/1 9/7/1 10/7/1
f 12/7/1 13/7/1 2/7/1
f 2/7/1 13/7/1 14/7/1
f 15/6/1 16/6/1 18/6/1
f 18/6/1 16/6/1 17/6/1
f 19/7/1 20/7/1 6/7/1
f 6/7/1 20/7/1 12/7/1
f 21/4/1 22/4/1 24/4/1
f 24/4/1 22/4/1 23/4/1
f 25/1/1 26/1/1 28/1/1
f 28/1/1 26/1/1 27/1/1
f 29/1/1 30/1/1 32/1/1
f 32/1/1 30/1/1 31/1/1
f 33/4/1 34/4/1 36/4/1
f 36/4/1 34/4/1 35/4/1
f 37/7/1 38/7/1 15/7/1
f 15/7/1 38/7/1 16/7/1
f 39/2/1 40/2/1 41/2/1
f 41/2/1 40/2/1 21/2/1
f 42/6/1 43/6/1 45/6/1
f 45/6/1 43/6/1 44/6/1
f 46/4/1 47/4/1 49/4/1
f 49/4/1 47/4/1 48/4/1
f 50/4/1 51/4/1 53/4/1
f 53/4/1 51/4/1 52/4/1
f 54/2/1 55/2/1 34/2/1
f 34/2/1 55/2/1 56/2/1
f 57/2/1 58/2/1 40/2/1
f 40/2/1 58/2/1 59/2/1
f 60/4/1 61/4/1 63/4/1
f 63/4/1 61/4/1 62/4/1
f 64/4/1 65/4/1 67/4/1
f 67/4/1 65/4/1 66/4/1
f 68/2/1 69/2/1 70/2/1
f 70/2/1 69/2/1 54/2/1
f 71/4/1 72/4/1 74/4/1
f 74/4/1 72/4/1 73/4/1
f 75/4/1 76/4/1 61/4/1
f 61/4/1 76/4/1 71/4/1
f 77/7/2 78/7/2 80/7/2
f 80/7/2 78/7/2 79/7/2
f 81/7/2 82/7/2 83/7/2
f 83/7/2 82/7/2 77/7/2
f 84/5/2 85/5/2 87/5/2
f 87/5/2 85/5/2 86/5/2
f 88/7/2 80/7/2 90/7/2
f 90/7/2 80/7/2 89/7/2
f 91/6/2 92/6/2 94/6/2
f 94/6/2 92/6/2 93/6/2
f 35/7/2 83/7/2 95/7/2
f 95/7/2 83/7/2 88/7/2
f 96/4/2 97/4/2 99/4/2
f 99/4/2 97/4/2 98/4/2
f 100/1/2 101/1/2 103/1/2
f 103/1/2 101/1/2 102/1/2
f 104/4/2 105/4/2 107/4/2
f 107/4/2 105/4/2 106/4/2
f 108/7/2 91/7/2 109/7/2
f 109/7/2 91/7/2 94/7/2
f 110/7/2 111/7/2 42/7/2
f 42/7/2 111/7/2 45/7/2
f 112/6/2 113/6/2 114/6/2
f 114/6/2 113/6/2 100/6/2
f 115/4/2 116/4/2 118/4/2
f 118/4/2 116/4/2 117/4/2
f 119/1/2 120/1/2 122/1/2
f 122/1/2 120/1/2 121/1/2
f 123/8/2 124/8/2 126/8/2
f 126/8/2 124/8/2 125/8/2
f 127/1/2 128/1/2 130/1/2
f 130/1/2 128/1/2 129/1/2
f 131/4/2 132/4/2 134/4/2
f 134/4/2 132/4/2 133/4/2
f 135/7/2 37/7/2 136/7/2
f 136/7/2 37/7/2 38/7/2
f 137/2/2 96/2/2 138/2/2
f 138/2/2 96/2/2 99/2/2
f 139/4/2 46/4/2 140/4/2
f 140/4/2 46/4/2 47/4/2
f 141/1/2 114/1/2 143/1/2
f 143/1/2 114/1/2 142/1/2
f 144/2/2 104/2/2 145/2/2
f 145/2/2 104/2/2 107/2/2
f 146/4/2 50/4/2 147/4/2
f 147/4/2 50/4/2 51/4/2
f 148/4/2 58/4/2 150/4/2
f 150/4/2 58/4/2 149/4/2
f 151/4/2 152/4/2 154/4/2
f 154/4/2 152/4/2 153/4/2
f 155/4/2 156/4/2 157/4/2
f 157/4/2 156/4/2 68/4/2
f 27/1/3 158/1/3 121/1/3
f 121/1/3 158/1/3 122/1/3
f 31/1/3 159/1/3 129/1/3
f 129/1/3 159/1/3 130/1/3
f 124/7/3 123/7/3 26/7/3
f 26/7/3 123/7/3 158/7/3
f 103/7/3 142/7/3 30/7/3
f 30/7/3 142/7/3 159/7/3
f 160/1/3 161/1/3 102/1/3
f 102/1/3 161/1/3 143/1/3
f 17/6/3 16/6/3 93/6/3
f 93/6/3 16/6/3 94/6/3
f 16/7/3 38/7/3 94/7/3
f 94/7/3 38/7/3 109/7/3
f 96/7/3 162/7/3 45/7/3
f 45/7/3 162/7/3 42/7/3
f 163/7/3 164/7/3 38/7/3
f 38/7/3 164/7/3 136/7/3
f 105/8/3 144/8/3 160/8/3
f 160/8/3 144/8/3 161/8/3
f 80/5/3 88/5/3 86/5/3
f 86/5/3 88/5/3 87/5/3
f 35/4/3 34/4/3 106/4/3
f 106/4/3 34/4/3 107/4/3
f 56/2/3 55/2/3 163/2/3
f 163/2/3 55/2/3 164/2/3
f 54/2/3 69/2/3 165/2/3
f 165/2/3 69/2/3 145/2/3
f 156/4/3 155/4/3 153/4/3
f 153/4/3 155/4/3 154/4/3
f 3/7/3 2/7/3 79/7/3
f 79/7/3 2/7/3 80/7/3
f 14/7/3 13/7/3 89/7/3
f 89/7/3 13/7/3 90/7/3
f 12/7/3 20/7/3 88/7/3
f 88/7/3 20/7/3 95/7/3
f 166/6/3 53/6/3 36/6/3
f 36/6/3 53/6/3 33/6/3
f 52/4/3 51/4/3 34/4/3
f 34/4/3 51/4/3 54/4/3
f 50/6/3 146/6/3 70/6/3
f 70/6/3 146/6/3 68/6/3
f 10/7/3 9/7/3 2/7/3
f 2/7/3 9/7/3 12/7/3
f 167/3/3 132/3/3 166/3/3
f 166/3/3 132/3/3 53/3/3
f 132/6/3 131/6/3 53/6/3
f 53/6/3 131/6/3 50/6/3
f 168/6/3 74/6/3 167/6/3
f 167/6/3 74/6/3 132/6/3
f 73/4/3 169/4/3 133/4/3
f 133/4/3 169/4/3 134/4/3
f 169/4/3 72/4/3 51/4/3
f 51/4/3 72/4/3 147/4/3
f 71/4/3 76/4/3 68/4/3
f 68/4/3 76/4/3 157/4/3
f 66/4/3 65/4/3 168/4/3
f 168/4/3 65/4/3 71/4/3
f 28/1/4 120/1/4 170/1/4
f 170/1/4 120/1/4 119/1/4
f 32/1/4 128/1/4 171/1/4
f 171/1/4 128/1/4 127/1/4
f 100/7/4 25/7/4 114/7/4
f 114/7/4 25/7/4 170/7/4
f 125/7/4 29/7/4 126/7/4
f 126/7/4 29/7/4 171/7/4
f 172/1/4 101/1/4 44/1/4
f 44/1/4 101/1/4 100/1/4
f 45/6/4 113/6/4 42/6/4
f 42/6/4 113/6/4 112/6/4
f 43/1/4 114/1/4 173/1/4
f 173/1/4 114/1/4 141/1/4
f 18/6/4 92/6/4 15/6/4
f 15/6/4 92/6/4 91/6/4
f 15/7/4 91/7/4 37/7/4
f 37/7/4 91/7/4 108/7/4
f 174/7/4 111/7/4 175/7/4
f 175/7/4 111/7/4 110/7/4
f 107/7/4 37/7/4 165/7/4
f 165/7/4 37/7/4 135/7/4
f 98/8/4 172/8/4 138/8/4
f 138/8/4 172/8/4 173/8/4
f 77/5/4 85/5/4 83/5/4
f 83/5/4 85/5/4 84/5/4
f 24/4/4 97/4/4 21/4/4
f 21/4/4 97/4/4 96/4/4
f 41/2/4 174/2/4 39/2/4
f 39/2/4 174/2/4 175/2/4
f 40/2/4 162/2/4 57/2/4
f 57/2/4 162/2/4 137/2/4
f 149/4/4 152/4/4 150/4/4
f 150/4/4 152/4/4 151/4/4
f 4/7/4 78/7/4 1/7/4
f 1/7/4 78/7/4 77/7/4
f 7/7/4 82/7/4 5/7/4
f 5/7/4 82/7/4 81/7/4
f 6/7/4 83/7/4 19/7/4
f 19/7/4 83/7/4 35/7/4
f 176/6/4 23/6/4 48/6/4
f 48/6/4 23/6/4 22/6/4
f 49/4/4 21/4/4 46/4/4
f 46/4/4 21/4/4 40/4/4
f 47/6/4 59/6/4 140/6/4
f 140/6/4 59/6/4 58/6/4
f 11/7/4 1/7/4 8/7/4
f 8/7/4 1/7/4 6/7/4
f 177/3/4 176/3/4 117/3/4
f 117/3/4 176/3/4 48/3/4
f 117/6/4 48/6/4 118/6/4
f 118/6/4 48/6/4 47/6/4
f 178/6/4 177/6/4 62/6/4
f 62/6/4 177/6/4 117/6/4
f 63/4/4 116/4/4 179/4/4
f 179/4/4 116/4/4 115/4/4
f 179/4/4 46/4/4 60/4/4
f 60/4/4 46/4/4 139/4/4
f 61/4/4 58/4/4 75/4/4
f 75/4/4 58/4/4 148/4/4
f 67/4/4 178/4/4 64/4/4
f 64/4/4 178/4/4 61/4/4
f 42/7/5 162/7/5 110/7/5
f 110/7/5 162/7/5 175/7/5
f 162/2/5 40/2/5 175/2/5
f 175/2/5 40/2/5 39/2/5
f 114/6/5 43/6/5 112/6/5
f 112/6/5 43/6/5 42/6/5
f 138/2/5 58/2/5 137/2/5
f 137/2/5 58/2/5 57/2/5
f 59/4/5 47/4/5 40/4/5
f 40/4/5 47/4/5 46/4/5
f 140/4/5 61/4/5 139/4/5
f 139/4/5 61/4/5 60/4/5
f 122/1/5 158/1/5 119/1/5
f 119/1/5 158/1/5 170/1/5
f 158/7/5 123/7/5 170/7/5
f 170/7/5 123/7/5 114/7/5
f 180/8/5 152/8/5 173/8/5
f 173/8/5 152/8/5 138/8/5
f 152/7/5 149/7/5 138/7/5
f 138/7/5 149/7/5 58/7/5
f 181/1/5 153/1/5 180/1/5
f 180/1/5 153/1/5 152/1/5
f 154/4/5 155/4/5 151/4/5
f 151/4/5 155/4/5 150/4/5
f 130/1/5 159/1/5 127/1/5
f 127/1/5 159/1/5 171/1/5
f 159/7/5 142/7/5 171/7/5
f 171/7/5 142/7/5 126/7/5
f 143/1/5 161/1/5 141/1/5
f 141/1/5 161/1/5 173/1/5
f 161/8/5 144/8/5 181/8/5
f 181/8/5 144/8/5 153/8/5
f 144/7/5 68/7/5 153/7/5
f 153/7/5 68/7/5 156/7/5
f 157/4/5 76/4/5 148/4/5
f 148/4/5 76/4/5 75/4/5
f 71/4/5 65/4/5 61/4/5
f 61/4/5 65/4/5 64/4/5
f 145/2/5 69/2/5 144/2/5
f 144/2/5 69/2/5 68/2/5
f 83/7/5 6/7/5 81/7/5
f 81/7/5 6/7/5 5/7/5
f 54/4/5 51/4/5 70/4/5
f 70/4/5 51/4/5 50/4/5
f 147/4/5 72/4/5 146/4/5
f 146/4/5 72/4/5 71/4/5
f 87/5/5 93/5/5 84/5/5
f 84/5/5 93/5/5 92/5/5
f 109/7/5 38/7/5 108/7/5
f 108/7/5 38/7/5 37/7/5
f 136/7/5 164/7/5 135/7/5
f 135/7/5 164/7/5 165/7/5
f 17/5/5 88/5/5 18/5/5
f 18/5/5 88/5/5 83/5/5
f 164/2/5 55/2/5 165/2/5
f 165/2/5 55/2/5 54/2/5
f 95/7/5 20/7/5 35/7/5
f 35/7/5 20/7/5 19/7/5
f 12/7/5 9/7/5 6/7/5
f 6/7/5 9/7/5 8/7/5
f 90/7/5 13/7/5 88/7/5
f 88/7/5 13/7/5 12/7/5
f 45/7/6 111/7/6 96/7/6
f 96/7/6 111/7/6 174/7/6
f 96/2/6 174/2/6 21/2/6
f 21/2/6 174/2/6 41/2/6
f 100/6/6 113/6/6 44/6/6
f 44/6/6 113/6/6 45/6/6
f 98/4/6 97/4/6 23/4/6
f 23/4/6 97/4/6 24/4/6
f 22/4/6 21/4/6 48/4/6
f 48/4/6 21/4/6 49/4/6
f 47/4/6 46/4/6 118/4/6
f 118/4/6 46/4/6 115/4/6
f 117/4/6 116/4/6 62/4/6
f 62/4/6 116/4/6 63/4/6
f 121/1/6 120/1/6 27/1/6
f 27/1/6 120/1/6 28/1/6
f 26/7/6 25/7/6 124/7/6
f 124/7/6 25/7/6 100/7/6
f 182/8/6 172/8/6 183/8/6
f 183/8/6 172/8/6 98/8/6
f 183/7/6 98/7/6 184/7/6
f 184/7/6 98/7/6 23/7/6
f 184/6/6 23/6/6 185/6/6
f 185/6/6 23/6/6 176/6/6
f 185/3/6 176/3/6 186/3/6
f 186/3/6 176/3/6 177/3/6
f 187/7/6 182/7/6 189/7/6
f 189/7/6 182/7/6 188/7/6
f 189/1/6 188/1/6 190/1/6
f 190/1/6 188/1/6 183/1/6
f 191/1/6 187/1/6 192/1/6
f 192/1/6 187/1/6 189/1/6
f 192/7/6 189/7/6 193/7/6
f 193/7/6 189/7/6 190/7/6
f 193/2/6 183/2/6 194/2/6
f 194/2/6 183/2/6 184/2/6
f 194/4/6 184/4/6 195/4/6
f 195/4/6 184/4/6 185/4/6
f 195/6/6 185/6/6 196/6/6
f 196/6/6 185/6/6 186/6/6
f 129/1/6 128/1/6 31/1/6
f 31/1/6 128/1/6 32/1/6
f 30/7/6 29/7/6 103/7/6
f 103/7/6 29/7/6 125/7/6
f 102/1/6 101/1/6 160/1/6
f 160/1/6 101/1/6 172/1/6
f 160/8/6 191/8/6 105/8/6
f 105/8/6 191/8/6 193/8/6
f 105/7/6 193/7/6 36/7/6
f 36/7/6 193/7/6 194/7/6
f 36/6/6 194/6/6 166/6/6
f 166/6/6 194/6/6 195/6/6
f 166/3/6 195/3/6 167/3/6
f 167/3/6 195/3/6 196/3/6
f 167/6/6 177/6/6 168/6/6
f 168/6/6 177/6/6 178/6/6
f 168/4/6 178/4/6 66/4/6
f 66/4/6 178/4/6 67/4/6
f 106/4/6 105/4/6 35/4/6
f 35/4/6 105/4/6 36/4/6
f 77/7/6 82/7/6 1/7/6
f 1/7/6 82/7/6 7/7/6
f 34/4/6 33/4/6 52/4/6
f 52/4/6 33/4/6 53/4/6
f 51/4/6 50/4/6 134/4/6
f 134/4/6 50/4/6 131/4/6
f 133/4/6 132/4/6 73/4/6
f 73/4/6 132/4/6 74/4/6
f 38/7/6 37/7/6 163/7/6
f 163/7/6 37/7/6 107/7/6
f 86/5/6 85/5/6 80/5/6
f 80/5/6 85/5/6 77/5/6
f 163/2/6 107/2/6 56/2/6
f 56/2/6 107/2/6 34/2/6
f 79/7/6 78/7/6 3/7/6
f 3/7/6 78/7/6 4/7/6
f 2/7/6 1/7/6 10/7/6
f 10/7/6 1/7/6 11/7/6
f 89/7/6 80/7/6 14/7/6
f 14/7/6 80/7/6 2/7/6
