# Vengi binary mesh normalized for Tanks of Freedom II

mtllib ../../materials/vox_building.mtl
o president

v -0.2 0.3 0.2
v -0.3 0.3 0.2
v -0.3 0.3 0.3
v -0.2 0.3 0.3
v -0.2 0.4 0.1
v -0.3 0.4 0.1
v -0.3 0.4 0.2
v -0.2 0.4 0.2
v 0.4 0.6 0
v 0.3 0.6 0
v 0.3 0.6 0.1
v 0.4 0.6 0.1
v 0.3 0.4 0
v 0.2 0.4 0
v 0.2 0.4 0.1
v 0.3 0.4 0.1
v 0.3 0.7 0
v 0.2 0.7 0
v 0.2 0.7 0.1
v 0.3 0.7 0.1
v -0.2 0.7 0
v -0.3 0.7 0
v -0.3 0.7 0.1
v -0.2 0.7 0.1
v 0.2 1.1 -0.1
v -0.2 1.1 -0.1
v -0.2 1.1 0.2
v 0.2 1.1 0.2
v -0.2 0.4 -0.1
v -0.3 0.4 -0.1
v -0.3 0.4 0
v -0.2 0.4 0
v -0.2 0.3 -0.2
v -0.3 0.3 -0.2
v -0.3 0.3 -0.1
v -0.2 0.3 -0.1
v -0.2 0 0.2
v -0.2 0 0.3
v -0.3 0 0.3
v -0.3 0 0.2
v 0.2 0.3 0.1
v 0.2 0.3 0.2
v 0.1 0.3 0.2
v 0.1 0.3 0.1
v 0 0.3 0.2
v 0 0.3 0.1
v -0.1 0.3 0.2
v -0.1 0.3 0.1
v -0.2 0.3 0.1
v 0.4 0.4 0
v 0.4 0.4 0.1
v 0.3 0.3 0
v 0.3 0.3 0.1
v 0.2 0.3 0
v 0.2 0.6 0.1
v 0.2 0.6 0
v 0.2 0 0
v 0.2 0 0.1
v 0.1 0 0.1
v 0.1 0 0
v 0 0.3 0
v -0.1 0.3 0
v -0.1 0 0
v -0.1 0 0.1
v -0.2 0 0.1
v -0.2 0 0
v 0.2 0.3 -0.1
v 0.1 0.3 0
v 0.1 0.3 -0.1
v 0 0.3 -0.1
v -0.1 0.3 -0.1
v -0.2 0.3 0
v -0.2 0 -0.1
v -0.3 0 -0.1
v -0.2 0 -0.2
v -0.3 0 -0.2
v -0.3 0.1 0.3
v -0.3 0.1 0.2
v 0.1 0.1 0.1
v 0.1 0.1 0
v -0.3 0.1 -0.1
v -0.3 0.1 -0.2
v -0.3 0.2 0.3
v -0.3 0.2 0.2
v -0.3 0.2 -0.1
v -0.3 0.2 -0.2
v -0.3 0.3 0.1
v -0.3 0.3 0
v -0.2 0.6 0.2
v -0.2 0.6 0.1
v -0.2 0.6 0
v -0.2 0.6 -0.1
v -0.2 0.7 0.2
v -0.2 0.7 -0.1
v -0.2 0.8 0.2
v -0.2 0.8 -0.1
v -0.2 0.9 0.2
v -0.2 0.9 0.1
v -0.2 0.8 0.1
v -0.2 0.9 0
v -0.2 0.8 0
v -0.2 1 0.2
v -0.2 1 0.1
v -0.2 1.1 0.1
v -0.2 1.1 0
v -0.2 0.1 0.3
v -0.2 0.1 0.2
v 0.2 0.1 0.1
v 0.2 0.1 0
v -0.1 0.1 0.1
v -0.1 0.1 0
v -0.2 0.1 -0.1
v -0.2 0.1 -0.2
v -0.2 0.2 0.3
v -0.2 0.2 0.2
v -0.2 0.2 -0.1
v -0.2 0.2 -0.2
v 0.2 0.6 0.2
v 0.2 0.6 -0.1
v 0.2 0.7 0.2
v 0.2 0.7 -0.1
v 0.2 0.8 0.2
v 0.2 0.8 -0.1
v 0.2 0.9 0.2
v 0.2 0.8 0.1
v 0.2 0.9 0.1
v 0.2 0.8 0
v 0.2 0.9 0
v 0.2 1 0.2
v 0.2 1 0.1
v 0.2 1.1 0.1
v 0.2 1.1 0
v 0.1 0.4 -0.1
v 0.1 0.6 -0.1
v 0.2 0.4 -0.1
v 0 0.4 -0.1
v 0 0.5 -0.1
v 0.1 0.5 -0.1
v 0 0.6 -0.1
v -0.1 0.4 -0.1
v -0.1 0.5 -0.1
v -0.1 0.6 -0.1
v -0.2 0.1 0
v -0.2 0.5 -0.1
v 0.1 0.6 0.2
v 0.1 0.7 0.2
v 0.1 0.8 0.2
v 0.1 0.9 0.2
v 0.1 0.4 0.2
v 0 0.4 0.2
v 0 0.5 0.2
v 0.1 0.5 0.2
v 0 0.6 0.2
v -0.1 0.4 0.2
v -0.1 0.5 0.2
v -0.1 0.6 0.2
v -0.1 0.7 0.2
v -0.1 0.8 0.2
v -0.1 0.9 0.2
v -0.2 0.1 0.1

vt 0.00195313 0.5
vt 0.00585938 0.5
vt 0.0136719 0.5
vt 0.0292969 0.5
vt 0.0683594 0.5
vt 0.0839844 0.5
vt 0.103516 0.5
vt 0.123047 0.5
vt 0.158203 0.5
vt 0.162109 0.5

vn 0 1 0
vn 0 -1 0
vn -1 0 0
vn 1 0 0
vn 0 0 -1
vn 0 0 1

usemtl palette
f 1/6/1 2/6/1 4/6/1
f 4/6/1 2/6/1 3/6/1
f 5/5/1 6/5/1 8/5/1
f 8/5/1 6/5/1 7/5/1
f 9/9/1 10/9/1 12/9/1
f 12/9/1 10/9/1 11/9/1
f 13/8/1 14/8/1 16/8/1
f 16/8/1 14/8/1 15/8/1
f 17/9/1 18/9/1 20/9/1
f 20/9/1 18/9/1 19/9/1
f 21/9/1 22/9/1 24/9/1
f 24/9/1 22/9/1 23/9/1
f 25/2/1 26/2/1 28/2/1
f 28/2/1 26/2/1 27/2/1
f 29/5/1 30/5/1 32/5/1
f 32/5/1 30/5/1 31/5/1
f 33/6/1 34/6/1 36/6/1
f 36/6/1 34/6/1 35/6/1
f 37/6/2 38/6/2 40/6/2
f 40/6/2 38/6/2 39/6/2
f 41/10/2 42/10/2 44/10/2
f 44/10/2 42/10/2 43/10/2
f 44/1/2 43/1/2 46/1/2
f 46/1/2 43/1/2 45/1/2
f 46/9/2 45/9/2 48/9/2
f 48/9/2 45/9/2 47/9/2
f 48/10/2 47/10/2 49/10/2
f 49/10/2 47/10/2 1/10/2
f 50/9/2 51/9/2 13/9/2
f 13/9/2 51/9/2 16/9/2
f 52/8/2 53/8/2 54/8/2
f 54/8/2 53/8/2 41/8/2
f 10/9/2 11/9/2 56/9/2
f 56/9/2 11/9/2 55/9/2
f 57/1/2 58/1/2 60/1/2
f 60/1/2 58/1/2 59/1/2
f 61/10/2 46/10/2 62/10/2
f 62/10/2 46/10/2 48/10/2
f 63/1/2 64/1/2 66/1/2
f 66/1/2 64/1/2 65/1/2
f 67/10/2 54/10/2 69/10/2
f 69/10/2 54/10/2 68/10/2
f 69/10/2 44/10/2 70/10/2
f 70/10/2 44/10/2 46/10/2
f 70/1/2 61/1/2 71/1/2
f 71/1/2 61/1/2 62/1/2
f 71/10/2 62/10/2 36/10/2
f 36/10/2 62/10/2 72/10/2
f 73/2/2 37/2/2 74/2/2
f 74/2/2 37/2/2 40/2/2
f 75/6/2 73/6/2 76/6/2
f 76/6/2 73/6/2 74/6/2
f 77/6/3 78/6/3 39/6/3
f 39/6/3 78/6/3 40/6/3
f 79/1/3 80/1/3 59/1/3
f 59/1/3 80/1/3 60/1/3
f 81/6/3 82/6/3 74/6/3
f 74/6/3 82/6/3 76/6/3
f 83/2/3 84/2/3 77/2/3
f 77/2/3 84/2/3 78/2/3
f 85/2/3 86/2/3 81/2/3
f 81/2/3 86/2/3 82/2/3
f 3/6/3 2/6/3 83/6/3
f 83/6/3 2/6/3 84/6/3
f 44/9/3 68/9/3 79/9/3
f 79/9/3 68/9/3 80/9/3
f 2/2/3 35/2/3 40/2/3
f 40/2/3 35/2/3 74/2/3
f 35/6/3 34/6/3 85/6/3
f 85/6/3 34/6/3 86/6/3
f 7/5/3 6/5/3 2/5/3
f 2/5/3 6/5/3 87/5/3
f 6/8/3 31/8/3 87/8/3
f 87/8/3 31/8/3 88/8/3
f 31/5/3 30/5/3 88/5/3
f 88/5/3 30/5/3 35/5/3
f 89/10/3 90/10/3 8/10/3
f 8/10/3 90/10/3 5/10/3
f 11/9/3 10/9/3 16/9/3
f 16/9/3 10/9/3 13/9/3
f 91/10/3 92/10/3 32/10/3
f 32/10/3 92/10/3 29/10/3
f 93/9/3 24/9/3 89/9/3
f 89/9/3 24/9/3 90/9/3
f 23/9/3 22/9/3 6/9/3
f 6/9/3 22/9/3 31/9/3
f 21/9/3 94/9/3 91/9/3
f 91/9/3 94/9/3 92/9/3
f 95/8/3 96/8/3 93/8/3
f 93/8/3 96/8/3 94/8/3
f 97/7/3 98/7/3 95/7/3
f 95/7/3 98/7/3 99/7/3
f 98/8/3 100/8/3 99/8/3
f 99/8/3 100/8/3 101/8/3
f 102/8/3 103/8/3 97/8/3
f 97/8/3 103/8/3 98/8/3
f 27/2/3 104/2/3 102/2/3
f 102/2/3 104/2/3 103/2/3
f 104/2/3 105/2/3 98/2/3
f 98/2/3 105/2/3 100/2/3
f 105/2/3 26/2/3 101/2/3
f 101/2/3 26/2/3 96/2/3
f 106/6/4 38/6/4 107/6/4
f 107/6/4 38/6/4 37/6/4
f 108/1/4 58/1/4 109/1/4
f 109/1/4 58/1/4 57/1/4
f 110/1/4 64/1/4 111/1/4
f 111/1/4 64/1/4 63/1/4
f 112/6/4 73/6/4 113/6/4
f 113/6/4 73/6/4 75/6/4
f 114/2/4 106/2/4 115/2/4
f 115/2/4 106/2/4 107/2/4
f 116/2/4 112/2/4 117/2/4
f 117/2/4 112/2/4 113/2/4
f 4/6/4 114/6/4 1/6/4
f 1/6/4 114/6/4 115/6/4
f 1/2/4 37/2/4 49/2/4
f 49/2/4 37/2/4 65/2/4
f 41/9/4 108/9/4 54/9/4
f 54/9/4 108/9/4 109/9/4
f 48/9/4 110/9/4 62/9/4
f 62/9/4 110/9/4 111/9/4
f 72/2/4 66/2/4 36/2/4
f 36/2/4 66/2/4 73/2/4
f 36/6/4 116/6/4 33/6/4
f 33/6/4 116/6/4 117/6/4
f 16/8/4 53/8/4 13/8/4
f 13/8/4 53/8/4 52/8/4
f 118/10/4 42/10/4 55/10/4
f 55/10/4 42/10/4 41/10/4
f 12/9/4 51/9/4 9/9/4
f 9/9/4 51/9/4 50/9/4
f 55/10/4 15/10/4 56/10/4
f 56/10/4 15/10/4 14/10/4
f 56/10/4 54/10/4 119/10/4
f 119/10/4 54/10/4 67/10/4
f 120/9/4 118/9/4 19/9/4
f 19/9/4 118/9/4 55/9/4
f 20/9/4 11/9/4 17/9/4
f 17/9/4 11/9/4 10/9/4
f 18/9/4 56/9/4 121/9/4
f 121/9/4 56/9/4 119/9/4
f 122/8/4 120/8/4 123/8/4
f 123/8/4 120/8/4 121/8/4
f 124/7/4 122/7/4 126/7/4
f 126/7/4 122/7/4 125/7/4
f 126/8/4 125/8/4 128/8/4
f 128/8/4 125/8/4 127/8/4
f 129/8/4 124/8/4 130/8/4
f 130/8/4 124/8/4 126/8/4
f 28/2/4 129/2/4 131/2/4
f 131/2/4 129/2/4 130/2/4
f 131/2/4 126/2/4 132/2/4
f 132/2/4 126/2/4 128/2/4
f 132/2/4 127/2/4 25/2/4
f 25/2/4 127/2/4 123/2/4
f 13/9/5 10/9/5 50/9/5
f 50/9/5 10/9/5 9/9/5
f 54/8/5 14/8/5 52/8/5
f 52/8/5 14/8/5 13/8/5
f 56/9/5 18/9/5 10/9/5
f 10/9/5 18/9/5 17/9/5
f 60/1/5 80/1/5 57/1/5
f 57/1/5 80/1/5 109/1/5
f 80/9/5 68/9/5 109/9/5
f 109/9/5 68/9/5 54/9/5
f 133/10/5 134/10/5 135/10/5
f 135/10/5 134/10/5 119/10/5
f 70/10/5 136/10/5 67/10/5
f 67/10/5 136/10/5 135/10/5
f 136/1/5 137/1/5 133/1/5
f 133/1/5 137/1/5 138/1/5
f 137/10/5 139/10/5 138/10/5
f 138/10/5 139/10/5 134/10/5
f 71/1/5 140/1/5 70/1/5
f 70/1/5 140/1/5 136/1/5
f 141/1/5 142/1/5 137/1/5
f 137/1/5 142/1/5 139/1/5
f 66/1/5 143/1/5 63/1/5
f 63/1/5 143/1/5 111/1/5
f 143/9/5 72/9/5 111/9/5
f 111/9/5 72/9/5 62/9/5
f 36/10/5 29/10/5 71/10/5
f 71/10/5 29/10/5 140/10/5
f 29/10/5 144/10/5 136/10/5
f 136/10/5 144/10/5 137/10/5
f 144/10/5 92/10/5 141/10/5
f 141/10/5 92/10/5 142/10/5
f 92/9/5 94/9/5 119/9/5
f 119/9/5 94/9/5 121/9/5
f 94/8/5 96/8/5 121/8/5
f 121/8/5 96/8/5 123/8/5
f 96/2/5 26/2/5 123/2/5
f 123/2/5 26/2/5 25/2/5
f 76/6/5 82/6/5 75/6/5
f 75/6/5 82/6/5 113/6/5
f 82/2/5 86/2/5 113/2/5
f 113/2/5 86/2/5 117/2/5
f 86/6/5 34/6/5 117/6/5
f 117/6/5 34/6/5 33/6/5
f 35/5/5 30/5/5 36/5/5
f 36/5/5 30/5/5 29/5/5
f 31/9/5 22/9/5 32/9/5
f 32/9/5 22/9/5 21/9/5
f 16/9/6 51/9/6 11/9/6
f 11/9/6 51/9/6 12/9/6
f 41/8/6 53/8/6 15/8/6
f 15/8/6 53/8/6 16/8/6
f 55/9/6 11/9/6 19/9/6
f 19/9/6 11/9/6 20/9/6
f 59/1/6 58/1/6 79/1/6
f 79/1/6 58/1/6 108/1/6
f 79/9/6 108/9/6 44/9/6
f 44/9/6 108/9/6 41/9/6
f 43/10/6 42/10/6 145/10/6
f 145/10/6 42/10/6 118/10/6
f 145/9/6 118/9/6 146/9/6
f 146/9/6 118/9/6 120/9/6
f 146/8/6 120/8/6 147/8/6
f 147/8/6 120/8/6 122/8/6
f 147/7/6 122/7/6 148/7/6
f 148/7/6 122/7/6 124/7/6
f 45/1/6 43/1/6 150/1/6
f 150/1/6 43/1/6 149/1/6
f 151/1/6 152/1/6 153/1/6
f 153/1/6 152/1/6 145/1/6
f 47/9/6 45/9/6 154/9/6
f 154/9/6 45/9/6 150/9/6
f 154/9/6 149/9/6 155/9/6
f 155/9/6 149/9/6 152/9/6
f 155/9/6 151/9/6 156/9/6
f 156/9/6 151/9/6 153/9/6
f 156/4/6 145/4/6 157/4/6
f 157/4/6 145/4/6 146/4/6
f 157/3/6 146/3/6 158/3/6
f 158/3/6 146/3/6 147/3/6
f 158/8/6 147/8/6 159/8/6
f 159/8/6 147/8/6 148/8/6
f 65/1/6 64/1/6 160/1/6
f 160/1/6 64/1/6 110/1/6
f 160/9/6 110/9/6 49/9/6
f 49/9/6 110/9/6 48/9/6
f 1/10/6 47/10/6 89/10/6
f 89/10/6 47/10/6 156/10/6
f 89/9/6 156/9/6 93/9/6
f 93/9/6 156/9/6 157/9/6
f 93/8/6 157/8/6 95/8/6
f 95/8/6 157/8/6 158/8/6
f 95/7/6 158/7/6 97/7/6
f 97/7/6 158/7/6 159/7/6
f 97/8/6 124/8/6 102/8/6
f 102/8/6 124/8/6 129/8/6
f 102/2/6 129/2/6 27/2/6
f 27/2/6 129/2/6 28/2/6
f 39/6/6 38/6/6 77/6/6
f 77/6/6 38/6/6 106/6/6
f 77/2/6 106/2/6 83/2/6
f 83/2/6 106/2/6 114/2/6
f 83/6/6 114/6/6 3/6/6
f 3/6/6 114/6/6 4/6/6
f 2/5/6 1/5/6 7/5/6
f 7/5/6 1/5/6 8/5/6
f 6/9/6 5/9/6 23/9/6
f 23/9/6 5/9/6 24/9/6
