# Vengi binary mesh normalized for Tanks of Freedom II

mtllib ../../../materials/vox_grass.mtl
o bush_2

v -0.4 0.7 0.4
v -0.5 0.7 0.4
v -0.5 0.7 0.5
v -0.4 0.7 0.5
v -0.2 0.8 0.3
v -0.3 0.8 0.3
v -0.3 0.8 0.4
v -0.2 0.8 0.4
v -0.4 0.8 0.3
v -0.5 0.8 0.3
v -0.5 0.8 0.4
v -0.4 0.8 0.4
v -0.1 0.6 0.2
v -0.2 0.6 0.2
v -0.2 0.6 0.3
v -0.1 0.6 0.3
v -0.2 0.7 0.2
v -0.3 0.7 0.2
v -0.3 0.7 0.3
v -0.2 0.7 0.3
v -0.3 0.8 0.2
v -0.4 0.8 0.2
v -0.4 0.8 0.5
v -0.3 0.8 0.5
v 0.3 0.7 0.1
v 0.2 0.7 0.1
v 0.2 0.7 0.2
v 0.3 0.7 0.2
v 0.2 0.5 0.1
v 0.1 0.5 0.1
v 0.1 0.5 0.2
v 0.2 0.5 0.2
v 0.2 0.1 0.1
v -0.1 0.1 0.1
v -0.1 0.1 0.2
v 0.2 0.1 0.2
v 0 0.5 0.1
v -0.2 0.5 0.1
v -0.2 0.5 0.2
v 0 0.5 0.2
v -0.2 0.6 0.1
v -0.3 0.6 0.1
v -0.3 0.6 0.2
v 0.4 0.8 0
v 0.3 0.8 0
v 0.3 0.8 0.1
v 0.4 0.8 0.1
v 0.2 0.2 0
v 0.1 0.2 0
v 0.1 0.2 0.1
v 0.2 0.2 0.1
v 0.2 0.6 0
v 0.1 0.6 0
v 0.1 0.6 0.1
v 0.2 0.6 0.1
v 0 0.3 0
v -0.1 0.3 0
v -0.1 0.3 0.1
v 0 0.3 0.1
v -0.1 0.5 0
v -0.2 0.5 0
v -0.1 0.5 0.1
v 0.2 0.1 -0.1
v 0.1 0.1 -0.1
v 0.1 0.1 0
v 0.2 0.1 0
v 0.2 0.3 -0.1
v 0.1 0.3 -0.1
v 0.1 0.3 0
v 0.2 0.3 0
v 0.2 0.5 -0.1
v 0.1 0.5 -0.1
v 0.1 0.5 0
v 0.2 0.5 0
v 0 0.3 -0.1
v 0.1 0.3 0.1
v 0 0.2 -0.1
v -0.1 0.2 -0.1
v -0.1 0.2 0
v 0 0.2 0
v 0 0.4 -0.1
v -0.1 0.4 -0.1
v -0.1 0.4 0
v 0 0.4 0
v -0.1 0.1 -0.1
v -0.2 0.1 -0.1
v -0.2 0.1 0
v -0.1 0.1 0
v 0.1 0.6 -0.2
v 0 0.6 -0.2
v 0 0.6 -0.1
v 0.1 0.6 -0.1
v 0.1 0.1 -0.2
v -0.1 0.1 -0.2
v 0 0.5 -0.2
v -0.1 0.5 -0.2
v -0.1 0.5 -0.1
v 0 0.5 -0.1
v 0.2 0.7 -0.3
v 0.1 0.7 -0.3
v 0.1 0.7 -0.2
v 0.2 0.7 -0.2
v 0.1 0.8 -0.3
v -0.1 0.8 -0.3
v -0.1 0.8 -0.2
v 0.1 0.8 -0.2
v -0.1 0.6 -0.3
v -0.2 0.6 -0.3
v -0.2 0.6 -0.2
v -0.1 0.6 -0.2
v 0 0.8 -0.4
v -0.1 0.8 -0.4
v 0 0.8 -0.3
v 0.1 0.9 -0.5
v 0 0.9 -0.5
v 0 0.9 -0.3
v 0.1 0.9 -0.3
v 0.1 0.8 -0.6
v 0 0.8 -0.6
v 0 0.8 -0.5
v 0.1 0.8 -0.5
v 0 0.9 -0.6
v -0.1 0.9 -0.6
v -0.1 0.9 -0.4
v 0 0.9 -0.4
v 0.1 0.7 -0.7
v 0 0.7 -0.7
v 0 0.7 -0.6
v 0.1 0.7 -0.6
v 0 0.6 -0.7
v -0.1 0.6 -0.7
v -0.1 0.6 -0.6
v 0 0.6 -0.6
v 0 0.8 -0.7
v -0.1 0.8 -0.7
v -0.1 0.8 -0.6
v -0.4 0.6 0.4
v -0.4 0.6 0.5
v -0.5 0.6 0.5
v -0.5 0.6 0.4
v -0.4 0.7 0.3
v -0.5 0.7 0.3
v -0.1 0.5 0.2
v -0.1 0.5 0.3
v -0.2 0.5 0.3
v -0.2 0.6 0.4
v -0.3 0.6 0.4
v -0.3 0.7 0.5
v -0.4 0.7 0.2
v 0.3 0.5 0.1
v 0.3 0.5 0.2
v 0.2 0.4 0.1
v 0.2 0.4 0.2
v 0.1 0.4 0.2
v 0.1 0.4 0.1
v 0.1 0 0.1
v 0.1 0 0.2
v -0.1 0 0.2
v -0.1 0 0.1
v 0 0.3 0.2
v -0.1 0.3 0.2
v -0.1 0.4 0.1
v -0.1 0.4 0.2
v -0.2 0.4 0.2
v -0.2 0.4 0.1
v -0.3 0.5 0.2
v -0.3 0.5 0.1
v 0.4 0.6 0
v 0.4 0.6 0.1
v 0.3 0.6 0.1
v 0.3 0.6 0
v 0.2 0.3 0.1
v 0 0 0
v 0 0 0.1
v -0.1 0 0
v -0.2 0.1 0.1
v 0.2 0 -0.1
v 0.2 0 0.2
v 0.1 0 -0.1
v 0.2 0.2 -0.1
v 0.1 0.2 -0.1
v 0.2 0.4 -0.1
v 0.2 0.4 0
v 0.1 0.4 0
v 0.1 0.4 -0.1
v 0 0 -0.1
v -0.1 0 -0.1
v -0.1 0.3 -0.1
v -0.2 0 0
v -0.2 0 -0.1
v 0.1 0.3 -0.2
v 0 0.3 -0.2
v 0.1 0 -0.2
v -0.1 0 -0.2
v 0 0.4 -0.2
v -0.1 0.4 -0.2
v 0.2 0.5 -0.3
v 0.2 0.5 -0.2
v 0.1 0.5 -0.2
v 0.1 0.5 -0.3
v 0.1 0.6 -0.3
v 0 0.6 -0.3
v 0 0.5 -0.3
v -0.2 0.5 -0.2
v -0.2 0.5 -0.3
v 0.1 0.7 -0.4
v -0.1 0.7 -0.3
v -0.1 0.7 -0.4
v 0.1 0.8 -0.4
v -0.1 0.8 -0.5
v 0.1 0.7 -0.5
v -0.1 0.7 -0.5
v -0.1 0.7 -0.6
v 0.1 0.6 -0.7
v 0.1 0.6 -0.6
v 0 0.5 -0.7
v 0 0.5 -0.6
v -0.1 0.5 -0.6
v -0.1 0.5 -0.7
v -0.1 0.7 -0.7
v -0.3 0.7 0.4
v -0.1 0.9 -0.5
v 0 0.1 -0.1
v 0.1 0.1 0.1
v 0 0.1 0.1
v -0.1 0.2 0.1
v 0 0.2 0.1
v -0.2 0.2 0.1

vt 0.0878906 0.5
vt 0.0996094 0.5

vn 0 1 0
vn 0 -1 0
vn -1 0 0
vn 1 0 0
vn 0 0 -1
vn 0 0 1

usemtl palette
f 1/2/1 2/2/1 4/2/1
f 4/2/1 2/2/1 3/2/1
f 5/2/1 6/2/1 8/2/1
f 8/2/1 6/2/1 7/2/1
f 9/2/1 10/2/1 12/2/1
f 12/2/1 10/2/1 11/2/1
f 13/2/1 14/2/1 16/2/1
f 16/2/1 14/2/1 15/2/1
f 17/2/1 18/2/1 20/2/1
f 20/2/1 18/2/1 19/2/1
f 21/2/1 22/2/1 24/2/1
f 24/2/1 22/2/1 23/2/1
f 25/2/1 26/2/1 28/2/1
f 28/2/1 26/2/1 27/2/1
f 29/2/1 30/2/1 32/2/1
f 32/2/1 30/2/1 31/2/1
f 33/1/1 34/1/1 36/1/1
f 36/1/1 34/1/1 35/1/1
f 37/2/1 38/2/1 40/2/1
f 40/2/1 38/2/1 39/2/1
f 41/2/1 42/2/1 14/2/1
f 14/2/1 42/2/1 43/2/1
f 44/2/1 45/2/1 47/2/1
f 47/2/1 45/2/1 46/2/1
f 48/2/1 49/2/1 51/2/1
f 51/2/1 49/2/1 50/2/1
f 52/2/1 53/2/1 55/2/1
f 55/2/1 53/2/1 54/2/1
f 56/1/1 57/1/1 59/1/1
f 59/1/1 57/1/1 58/1/1
f 60/2/1 61/2/1 62/2/1
f 62/2/1 61/2/1 38/2/1
f 63/1/1 64/1/1 66/1/1
f 66/1/1 64/1/1 65/1/1
f 67/2/1 68/2/1 70/2/1
f 70/2/1 68/2/1 69/2/1
f 71/2/1 72/2/1 74/2/1
f 74/2/1 72/2/1 73/2/1
f 68/1/1 75/1/1 76/1/1
f 76/1/1 75/1/1 59/1/1
f 77/2/1 78/2/1 80/2/1
f 80/2/1 78/2/1 79/2/1
f 81/2/1 82/2/1 84/2/1
f 84/2/1 82/2/1 83/2/1
f 85/1/1 86/1/1 88/1/1
f 88/1/1 86/1/1 87/1/1
f 89/2/1 90/2/1 92/2/1
f 92/2/1 90/2/1 91/2/1
f 93/1/1 94/1/1 64/1/1
f 64/1/1 94/1/1 85/1/1
f 95/2/1 96/2/1 98/2/1
f 98/2/1 96/2/1 97/2/1
f 99/2/1 100/2/1 102/2/1
f 102/2/1 100/2/1 101/2/1
f 103/2/1 104/2/1 106/2/1
f 106/2/1 104/2/1 105/2/1
f 107/2/1 108/2/1 110/2/1
f 110/2/1 108/2/1 109/2/1
f 111/2/1 112/2/1 113/2/1
f 113/2/1 112/2/1 104/2/1
f 114/2/1 115/2/1 117/2/1
f 117/2/1 115/2/1 116/2/1
f 118/2/1 119/2/1 121/2/1
f 121/2/1 119/2/1 120/2/1
f 122/2/1 123/2/1 125/2/1
f 125/2/1 123/2/1 124/2/1
f 126/2/1 127/2/1 129/2/1
f 129/2/1 127/2/1 128/2/1
f 130/2/1 131/2/1 133/2/1
f 133/2/1 131/2/1 132/2/1
f 134/2/1 135/2/1 119/2/1
f 119/2/1 135/2/1 136/2/1
f 137/2/2 138/2/2 140/2/2
f 140/2/2 138/2/2 139/2/2
f 141/2/2 1/2/2 142/2/2
f 142/2/2 1/2/2 2/2/2
f 143/2/2 144/2/2 39/2/2
f 39/2/2 144/2/2 145/2/2
f 14/2/2 146/2/2 43/2/2
f 43/2/2 146/2/2 147/2/2
f 18/2/2 148/2/2 149/2/2
f 149/2/2 148/2/2 4/2/2
f 150/2/2 151/2/2 29/2/2
f 29/2/2 151/2/2 32/2/2
f 152/2/2 153/2/2 155/2/2
f 155/2/2 153/2/2 154/2/2
f 156/1/2 157/1/2 159/1/2
f 159/1/2 157/1/2 158/1/2
f 59/2/2 160/2/2 58/2/2
f 58/2/2 160/2/2 161/2/2
f 162/2/2 163/2/2 165/2/2
f 165/2/2 163/2/2 164/2/2
f 38/2/2 39/2/2 167/2/2
f 167/2/2 39/2/2 166/2/2
f 168/2/2 169/2/2 171/2/2
f 171/2/2 169/2/2 170/2/2
f 70/2/2 172/2/2 69/2/2
f 69/2/2 172/2/2 76/2/2
f 173/1/2 174/1/2 175/1/2
f 175/1/2 174/1/2 159/1/2
f 88/2/2 34/2/2 87/2/2
f 87/2/2 34/2/2 176/2/2
f 177/1/2 178/1/2 179/1/2
f 179/1/2 178/1/2 157/1/2
f 180/2/2 48/2/2 181/2/2
f 181/2/2 48/2/2 49/2/2
f 182/2/2 183/2/2 185/2/2
f 185/2/2 183/2/2 184/2/2
f 179/2/2 156/2/2 186/2/2
f 186/2/2 156/2/2 174/2/2
f 186/2/2 173/2/2 187/2/2
f 187/2/2 173/2/2 175/2/2
f 75/2/2 56/2/2 188/2/2
f 188/2/2 56/2/2 57/2/2
f 187/1/2 175/1/2 190/1/2
f 190/1/2 175/1/2 189/1/2
f 191/2/2 68/2/2 192/2/2
f 192/2/2 68/2/2 75/2/2
f 193/1/2 179/1/2 194/1/2
f 194/1/2 179/1/2 187/1/2
f 195/2/2 81/2/2 196/2/2
f 196/2/2 81/2/2 82/2/2
f 197/2/2 198/2/2 200/2/2
f 200/2/2 198/2/2 199/2/2
f 201/2/2 89/2/2 202/2/2
f 202/2/2 89/2/2 90/2/2
f 203/2/2 95/2/2 205/2/2
f 205/2/2 95/2/2 204/2/2
f 206/2/2 100/2/2 208/2/2
f 208/2/2 100/2/2 207/2/2
f 121/2/2 209/2/2 210/2/2
f 210/2/2 209/2/2 112/2/2
f 129/2/2 211/2/2 213/2/2
f 213/2/2 211/2/2 212/2/2
f 214/2/2 215/2/2 130/2/2
f 130/2/2 215/2/2 133/2/2
f 216/2/2 217/2/2 219/2/2
f 219/2/2 217/2/2 218/2/2
f 127/2/2 128/2/2 220/2/2
f 220/2/2 128/2/2 213/2/2
f 35/1/3 88/1/3 158/1/3
f 158/1/3 88/1/3 175/1/3
f 87/1/3 86/1/3 189/1/3
f 189/1/3 86/1/3 190/1/3
f 85/1/3 94/1/3 187/1/3
f 187/1/3 94/1/3 194/1/3
f 79/2/3 78/2/3 88/2/3
f 88/2/3 78/2/3 85/2/3
f 56/1/3 75/1/3 80/1/3
f 80/1/3 75/1/3 77/1/3
f 163/2/3 162/2/3 161/2/3
f 161/2/3 162/2/3 58/2/3
f 83/2/3 82/2/3 57/2/3
f 57/2/3 82/2/3 188/2/3
f 81/2/3 195/2/3 75/2/3
f 75/2/3 195/2/3 192/2/3
f 31/2/3 30/2/3 154/2/3
f 154/2/3 30/2/3 155/2/3
f 39/2/3 38/2/3 164/2/3
f 164/2/3 38/2/3 165/2/3
f 38/2/3 61/2/3 176/2/3
f 176/2/3 61/2/3 87/2/3
f 73/2/3 72/2/3 184/2/3
f 184/2/3 72/2/3 185/2/3
f 97/2/3 96/2/3 82/2/3
f 82/2/3 96/2/3 196/2/3
f 15/2/3 14/2/3 145/2/3
f 145/2/3 14/2/3 39/2/3
f 43/2/3 42/2/3 166/2/3
f 166/2/3 42/2/3 167/2/3
f 54/2/3 53/2/3 76/2/3
f 76/2/3 53/2/3 69/2/3
f 91/2/3 90/2/3 98/2/3
f 98/2/3 90/2/3 95/2/3
f 89/2/3 201/2/3 199/2/3
f 199/2/3 201/2/3 200/2/3
f 109/2/3 108/2/3 204/2/3
f 204/2/3 108/2/3 205/2/3
f 132/2/3 131/2/3 218/2/3
f 218/2/3 131/2/3 219/2/3
f 3/2/3 2/2/3 139/2/3
f 139/2/3 2/2/3 140/2/3
f 221/2/3 18/2/3 147/2/3
f 147/2/3 18/2/3 43/2/3
f 27/2/3 26/2/3 32/2/3
f 32/2/3 26/2/3 29/2/3
f 128/2/3 127/2/3 133/2/3
f 133/2/3 127/2/3 130/2/3
f 23/2/3 12/2/3 4/2/3
f 4/2/3 12/2/3 1/2/3
f 11/2/3 10/2/3 2/2/3
f 2/2/3 10/2/3 142/2/3
f 9/2/3 22/2/3 141/2/3
f 141/2/3 22/2/3 149/2/3
f 46/2/3 45/2/3 170/2/3
f 170/2/3 45/2/3 171/2/3
f 105/2/3 104/2/3 110/2/3
f 110/2/3 104/2/3 107/2/3
f 104/2/3 112/2/3 207/2/3
f 207/2/3 112/2/3 208/2/3
f 136/2/3 135/2/3 213/2/3
f 213/2/3 135/2/3 220/2/3
f 116/2/3 125/2/3 113/2/3
f 113/2/3 125/2/3 111/2/3
f 124/2/3 222/2/3 112/2/3
f 112/2/3 222/2/3 210/2/3
f 222/2/3 123/2/3 212/2/3
f 212/2/3 123/2/3 213/2/3
f 36/1/4 178/1/4 63/1/4
f 63/1/4 178/1/4 177/1/4
f 64/1/4 179/1/4 93/1/4
f 93/1/4 179/1/4 193/1/4
f 51/2/4 33/2/4 48/2/4
f 48/2/4 33/2/4 66/2/4
f 49/1/4 65/1/4 181/1/4
f 181/1/4 65/1/4 64/1/4
f 76/1/4 50/1/4 69/1/4
f 69/1/4 50/1/4 49/1/4
f 70/2/4 48/2/4 67/2/4
f 67/2/4 48/2/4 180/2/4
f 84/2/4 56/2/4 81/2/4
f 81/2/4 56/2/4 75/2/4
f 32/2/4 153/2/4 29/2/4
f 29/2/4 153/2/4 152/2/4
f 40/2/4 160/2/4 37/2/4
f 37/2/4 160/2/4 59/2/4
f 62/2/4 58/2/4 60/2/4
f 60/2/4 58/2/4 57/2/4
f 74/2/4 183/2/4 71/2/4
f 71/2/4 183/2/4 182/2/4
f 16/2/4 144/2/4 13/2/4
f 13/2/4 144/2/4 143/2/4
f 14/2/4 39/2/4 41/2/4
f 41/2/4 39/2/4 38/2/4
f 55/2/4 172/2/4 52/2/4
f 52/2/4 172/2/4 70/2/4
f 92/2/4 68/2/4 89/2/4
f 89/2/4 68/2/4 191/2/4
f 90/2/4 95/2/4 202/2/4
f 202/2/4 95/2/4 203/2/4
f 133/2/4 217/2/4 130/2/4
f 130/2/4 217/2/4 216/2/4
f 4/2/4 138/2/4 1/2/4
f 1/2/4 138/2/4 137/2/4
f 20/2/4 15/2/4 17/2/4
f 17/2/4 15/2/4 14/2/4
f 28/2/4 151/2/4 25/2/4
f 25/2/4 151/2/4 150/2/4
f 102/2/4 198/2/4 99/2/4
f 99/2/4 198/2/4 197/2/4
f 129/2/4 215/2/4 126/2/4
f 126/2/4 215/2/4 214/2/4
f 24/2/4 148/2/4 7/2/4
f 7/2/4 148/2/4 221/2/4
f 8/2/4 146/2/4 5/2/4
f 5/2/4 146/2/4 15/2/4
f 6/2/4 19/2/4 21/2/4
f 21/2/4 19/2/4 18/2/4
f 47/2/4 169/2/4 44/2/4
f 44/2/4 169/2/4 168/2/4
f 106/2/4 101/2/4 209/2/4
f 209/2/4 101/2/4 206/2/4
f 121/2/4 211/2/4 118/2/4
f 118/2/4 211/2/4 129/2/4
f 119/2/4 128/2/4 134/2/4
f 134/2/4 128/2/4 127/2/4
f 117/2/4 103/2/4 114/2/4
f 114/2/4 103/2/4 121/2/4
f 115/2/4 120/2/4 122/2/4
f 122/2/4 120/2/4 119/2/4
f 171/2/5 45/2/5 168/2/5
f 168/2/5 45/2/5 44/2/5
f 29/2/5 26/2/5 150/2/5
f 150/2/5 26/2/5 25/2/5
f 179/1/5 64/1/5 177/1/5
f 177/1/5 64/1/5 63/1/5
f 65/2/5 49/2/5 66/2/5
f 66/2/5 49/2/5 48/2/5
f 181/2/5 68/2/5 180/2/5
f 180/2/5 68/2/5 67/2/5
f 69/2/5 184/2/5 70/2/5
f 70/2/5 184/2/5 183/2/5
f 185/2/5 72/2/5 182/2/5
f 182/2/5 72/2/5 71/2/5
f 73/2/5 53/2/5 74/2/5
f 74/2/5 53/2/5 52/2/5
f 200/2/5 100/2/5 197/2/5
f 197/2/5 100/2/5 99/2/5
f 223/1/5 75/1/5 64/1/5
f 64/1/5 75/1/5 68/1/5
f 192/2/5 90/2/5 191/2/5
f 191/2/5 90/2/5 89/2/5
f 130/2/5 127/2/5 214/2/5
f 214/2/5 127/2/5 126/2/5
f 128/2/5 119/2/5 129/2/5
f 129/2/5 119/2/5 118/2/5
f 120/2/5 115/2/5 121/2/5
f 121/2/5 115/2/5 114/2/5
f 194/1/5 94/1/5 193/1/5
f 193/1/5 94/1/5 93/1/5
f 85/2/5 78/2/5 223/2/5
f 223/2/5 78/2/5 77/2/5
f 79/1/5 57/1/5 80/1/5
f 80/1/5 57/1/5 56/1/5
f 188/2/5 82/2/5 75/2/5
f 75/2/5 82/2/5 81/2/5
f 58/2/5 62/2/5 59/2/5
f 59/2/5 62/2/5 37/2/5
f 196/2/5 96/2/5 195/2/5
f 195/2/5 96/2/5 95/2/5
f 219/2/5 131/2/5 216/2/5
f 216/2/5 131/2/5 130/2/5
f 107/2/5 207/2/5 201/2/5
f 201/2/5 207/2/5 100/2/5
f 208/2/5 112/2/5 206/2/5
f 206/2/5 112/2/5 209/2/5
f 220/2/5 135/2/5 127/2/5
f 127/2/5 135/2/5 134/2/5
f 136/2/5 123/2/5 119/2/5
f 119/2/5 123/2/5 122/2/5
f 190/1/5 86/1/5 187/1/5
f 187/1/5 86/1/5 85/1/5
f 87/2/5 61/2/5 88/2/5
f 88/2/5 61/2/5 60/2/5
f 39/2/5 14/2/5 143/2/5
f 143/2/5 14/2/5 13/2/5
f 205/2/5 108/2/5 203/2/5
f 203/2/5 108/2/5 202/2/5
f 167/2/5 42/2/5 38/2/5
f 38/2/5 42/2/5 41/2/5
f 43/2/5 18/2/5 14/2/5
f 14/2/5 18/2/5 17/2/5
f 19/2/5 6/2/5 20/2/5
f 20/2/5 6/2/5 5/2/5
f 149/2/5 22/2/5 18/2/5
f 18/2/5 22/2/5 21/2/5
f 140/2/5 2/2/5 137/2/5
f 137/2/5 2/2/5 1/2/5
f 142/2/5 10/2/5 141/2/5
f 141/2/5 10/2/5 9/2/5
f 170/2/6 169/2/6 46/2/6
f 46/2/6 169/2/6 47/2/6
f 32/2/6 151/2/6 27/2/6
f 27/2/6 151/2/6 28/2/6
f 224/2/6 33/2/6 50/2/6
f 50/2/6 33/2/6 51/2/6
f 49/2/6 48/2/6 69/2/6
f 69/2/6 48/2/6 70/2/6
f 76/2/6 172/2/6 155/2/6
f 155/2/6 172/2/6 152/2/6
f 154/2/6 153/2/6 31/2/6
f 31/2/6 153/2/6 32/2/6
f 30/2/6 29/2/6 54/2/6
f 54/2/6 29/2/6 55/2/6
f 199/2/6 198/2/6 101/2/6
f 101/2/6 198/2/6 102/2/6
f 225/1/6 224/1/6 59/1/6
f 59/1/6 224/1/6 76/1/6
f 75/2/6 68/2/6 91/2/6
f 91/2/6 68/2/6 92/2/6
f 133/2/6 215/2/6 128/2/6
f 128/2/6 215/2/6 129/2/6
f 113/2/6 103/2/6 116/2/6
f 116/2/6 103/2/6 117/2/6
f 158/1/6 178/1/6 35/1/6
f 35/1/6 178/1/6 36/1/6
f 226/1/6 227/1/6 58/1/6
f 58/1/6 227/1/6 59/1/6
f 57/2/6 56/2/6 83/2/6
f 83/2/6 56/2/6 84/2/6
f 161/2/6 160/2/6 143/2/6
f 143/2/6 160/2/6 40/2/6
f 82/2/6 81/2/6 97/2/6
f 97/2/6 81/2/6 98/2/6
f 218/2/6 217/2/6 132/2/6
f 132/2/6 217/2/6 133/2/6
f 110/2/6 89/2/6 105/2/6
f 105/2/6 89/2/6 106/2/6
f 212/2/6 211/2/6 210/2/6
f 210/2/6 211/2/6 121/2/6
f 112/2/6 111/2/6 124/2/6
f 124/2/6 111/2/6 125/2/6
f 189/1/6 175/1/6 87/1/6
f 87/1/6 175/1/6 88/1/6
f 176/2/6 225/2/6 228/2/6
f 228/2/6 225/2/6 227/2/6
f 228/2/6 226/2/6 165/2/6
f 165/2/6 226/2/6 162/2/6
f 164/2/6 163/2/6 39/2/6
f 39/2/6 163/2/6 143/2/6
f 145/2/6 144/2/6 15/2/6
f 15/2/6 144/2/6 16/2/6
f 204/2/6 95/2/6 109/2/6
f 109/2/6 95/2/6 90/2/6
f 166/2/6 39/2/6 43/2/6
f 43/2/6 39/2/6 14/2/6
f 147/2/6 146/2/6 7/2/6
f 7/2/6 146/2/6 8/2/6
f 4/2/6 148/2/6 23/2/6
f 23/2/6 148/2/6 24/2/6
f 139/2/6 138/2/6 3/2/6
f 3/2/6 138/2/6 4/2/6
f 2/2/6 1/2/6 11/2/6
f 11/2/6 1/2/6 12/2/6
