# Vengi binary mesh normalized for Tanks of Freedom II

mtllib ../../../materials/vox_grass.mtl
o bush_1

v 0.1 0.4 0.3
v 0 0.4 0.3
v 0 0.4 0.4
v 0.1 0.4 0.4
v 0.1 0.4 0.2
v 0 0.4 0.2
v 0 0.3 0.2
v -0.1 0.3 0.2
v -0.1 0.3 0.3
v 0 0.3 0.3
v 0.3 0.4 0.1
v 0.2 0.4 0.1
v 0.2 0.4 0.2
v 0.3 0.4 0.2
v 0.1 0.1 0.1
v 0 0.1 0.1
v 0 0.1 0.2
v 0.1 0.1 0.2
v 0.1 0.3 0.1
v 0 0.3 0.1
v 0.1 0.3 0.2
v 0 0.4 0.1
v -0.1 0.4 0.1
v -0.1 0.4 0.2
v 0.2 0.1 0
v 0.1 0.1 0
v 0.2 0.1 0.1
v 0.1 0.4 0
v 0 0.4 0
v 0.1 0.4 0.1
v 0 0.3 0
v -0.1 0.3 0
v -0.1 0.3 0.1
v -0.1 0.1 0
v -0.2 0.1 0
v -0.2 0.1 0.1
v -0.1 0.1 0.1
v -0.2 0.3 0
v -0.2 0.3 0.1
v -0.2 0.4 0
v -0.3 0.4 0
v -0.3 0.4 0.1
v -0.2 0.4 0.1
v 0.3 0.3 -0.1
v 0.2 0.3 -0.1
v 0.2 0.3 0.1
v 0.3 0.3 0.1
v 0.1 0.3 -0.1
v 0.1 0.3 0
v 0.2 0.3 0
v 0.2 0.7 -0.1
v 0.1 0.7 -0.1
v 0.1 0.7 0
v 0.2 0.7 0
v 0 0.3 -0.1
v 0.1 0.6 -0.1
v 0 0.6 -0.1
v 0 0.6 0
v 0.1 0.6 0
v 0 0.5 -0.1
v -0.1 0.5 -0.1
v -0.1 0.5 0
v 0 0.5 0
v -0.1 0.2 -0.1
v -0.2 0.2 -0.1
v -0.2 0.2 0
v -0.1 0.2 0
v -0.2 0.3 -0.1
v -0.3 0.3 -0.1
v -0.3 0.3 0
v -0.3 0.4 -0.1
v -0.4 0.4 -0.1
v -0.4 0.4 0
v 0.4 0.4 -0.2
v 0.2 0.4 -0.2
v 0.2 0.4 -0.1
v 0.4 0.4 -0.1
v 0.1 0.3 -0.2
v 0 0.3 -0.2
v 0.1 0.1 -0.2
v -0.1 0.1 -0.2
v -0.1 0.1 -0.1
v 0.1 0.1 -0.1
v 0 0.4 -0.2
v -0.1 0.4 -0.2
v -0.1 0.4 -0.1
v 0 0.4 -0.1
v -0.1 0.3 -0.2
v -0.2 0.3 -0.2
v -0.1 0.3 -0.1
v -0.2 0.4 -0.2
v -0.3 0.4 -0.2
v -0.2 0.4 -0.1
v -0.1 0.4 -0.3
v -0.2 0.4 -0.3
v 0.1 0.4 -0.4
v 0 0.4 -0.4
v 0.1 0.4 -0.2
v 0.1 0.3 0.3
v 0.1 0.3 0.4
v 0 0.3 0.4
v 0 0.2 0.2
v 0 0.2 0.3
v -0.1 0.2 0.3
v -0.1 0.2 0.2
v 0.3 0.3 0.2
v 0.2 0.3 0.2
v 0.1 0 0.1
v 0.1 0 0.2
v 0 0 0.2
v 0 0 0.1
v 0.1 0.2 0.1
v 0.1 0.2 0.2
v 0 0.2 0.1
v -0.1 0.1 0.2
v 0.2 0 0
v 0.2 0 0.1
v 0.1 0 0
v 0 0 0
v 0 0.1 0
v -0.1 0 0
v -0.1 0 0.1
v -0.2 0 0.1
v -0.2 0 0
v -0.1 0.2 0.1
v -0.2 0.2 0.1
v -0.3 0.3 0.1
v 0.2 0.6 -0.1
v 0.2 0.6 0
v 0.2 0.1 -0.1
v 0 0.1 -0.1
v 0.1 0.4 -0.1
v -0.2 0.1 -0.1
v -0.3 0.2 0
v -0.3 0.2 -0.1
v -0.4 0.3 0
v -0.4 0.3 -0.1
v 0.4 0.3 -0.2
v 0.4 0.3 -0.1
v 0.3 0.3 -0.2
v 0.3 0.2 -0.2
v 0.3 0.2 0.1
v 0.2 0.2 0.1
v 0.2 0.2 -0.2
v 0.1 0 -0.2
v 0.1 0 -0.1
v 0 0 -0.1
v 0 0 -0.2
v -0.1 0 -0.2
v -0.1 0.2 -0.2
v -0.2 0.2 -0.2
v -0.3 0.3 -0.2
v 0.1 0.2 -0.3
v 0.1 0.2 -0.1
v 0 0.2 -0.1
v 0 0.2 -0.3
v -0.1 0.3 -0.3
v -0.2 0.3 -0.3
v 0.1 0.3 -0.4
v 0.1 0.3 -0.3
v 0 0.3 -0.3
v 0 0.3 -0.4
v 0.2 0.2 0
v 0.2 0.3 -0.2
v 0.2 0.2 -0.1
v -0.1 0.4 0
v 0.1 0.2 0

vt 0.0449219 0.5
vt 0.0761719 0.5
vt 0.0878906 0.5
vt 0.0996094 0.5

vn 0 1 0
vn 0 -1 0
vn -1 0 0
vn 1 0 0
vn 0 0 -1
vn 0 0 1

usemtl palette
f 1/1/1 2/1/1 4/1/1
f 4/1/1 2/1/1 3/1/1
f 5/4/1 6/4/1 1/4/1
f 1/4/1 6/4/1 2/4/1
f 7/1/1 8/1/1 10/1/1
f 10/1/1 8/1/1 9/1/1
f 11/1/1 12/1/1 14/1/1
f 14/1/1 12/1/1 13/1/1
f 15/4/1 16/4/1 18/4/1
f 18/4/1 16/4/1 17/4/1
f 19/4/1 20/4/1 21/4/1
f 21/4/1 20/4/1 7/4/1
f 22/1/1 23/1/1 6/1/1
f 6/1/1 23/1/1 24/1/1
f 25/4/1 26/4/1 27/4/1
f 27/4/1 26/4/1 15/4/1
f 28/4/1 29/4/1 30/4/1
f 30/4/1 29/4/1 22/4/1
f 31/2/1 32/2/1 20/2/1
f 20/2/1 32/2/1 33/2/1
f 34/4/1 35/4/1 37/4/1
f 37/4/1 35/4/1 36/4/1
f 32/4/1 38/4/1 33/4/1
f 33/4/1 38/4/1 39/4/1
f 40/1/1 41/1/1 43/1/1
f 43/1/1 41/1/1 42/1/1
f 44/4/1 45/4/1 47/4/1
f 47/4/1 45/4/1 46/4/1
f 45/4/1 48/4/1 50/4/1
f 50/4/1 48/4/1 49/4/1
f 51/1/1 52/1/1 54/1/1
f 54/1/1 52/1/1 53/1/1
f 48/2/1 55/2/1 49/2/1
f 49/2/1 55/2/1 31/2/1
f 56/4/1 57/4/1 59/4/1
f 59/4/1 57/4/1 58/4/1
f 60/1/1 61/1/1 63/1/1
f 63/1/1 61/1/1 62/1/1
f 64/4/1 65/4/1 67/4/1
f 67/4/1 65/4/1 66/4/1
f 68/4/1 69/4/1 38/4/1
f 38/4/1 69/4/1 70/4/1
f 71/1/1 72/1/1 41/1/1
f 41/1/1 72/1/1 73/1/1
f 74/1/1 75/1/1 77/1/1
f 77/1/1 75/1/1 76/1/1
f 78/4/1 79/4/1 48/4/1
f 48/4/1 79/4/1 55/4/1
f 80/4/1 81/4/1 83/4/1
f 83/4/1 81/4/1 82/4/1
f 84/4/1 85/4/1 87/4/1
f 87/4/1 85/4/1 86/4/1
f 88/4/1 89/4/1 90/4/1
f 90/4/1 89/4/1 68/4/1
f 91/1/1 92/1/1 93/1/1
f 93/1/1 92/1/1 71/1/1
f 94/1/1 95/1/1 85/1/1
f 85/1/1 95/1/1 91/1/1
f 96/1/1 97/1/1 98/1/1
f 98/1/1 97/1/1 84/1/1
f 99/1/2 100/1/2 10/1/2
f 10/1/2 100/1/2 101/1/2
f 21/4/2 99/4/2 7/4/2
f 7/4/2 99/4/2 10/4/2
f 102/1/2 103/1/2 105/1/2
f 105/1/2 103/1/2 104/1/2
f 47/1/2 106/1/2 46/1/2
f 46/1/2 106/1/2 107/1/2
f 108/4/2 109/4/2 111/4/2
f 111/4/2 109/4/2 110/4/2
f 112/4/2 113/4/2 114/4/2
f 114/4/2 113/4/2 102/4/2
f 16/4/2 17/4/2 37/4/2
f 37/4/2 17/4/2 115/4/2
f 116/4/2 117/4/2 118/4/2
f 118/4/2 117/4/2 108/4/2
f 118/3/2 108/3/2 119/3/2
f 119/3/2 108/3/2 111/3/2
f 120/2/2 16/2/2 34/2/2
f 34/2/2 16/2/2 37/2/2
f 121/4/2 122/4/2 124/4/2
f 124/4/2 122/4/2 123/4/2
f 67/4/2 125/4/2 66/4/2
f 66/4/2 125/4/2 126/4/2
f 38/1/2 39/1/2 70/1/2
f 70/1/2 39/1/2 127/1/2
f 128/1/2 129/1/2 56/1/2
f 56/1/2 129/1/2 59/1/2
f 130/4/2 25/4/2 131/4/2
f 131/4/2 25/4/2 120/4/2
f 132/4/2 28/4/2 87/4/2
f 87/4/2 28/4/2 29/4/2
f 82/4/2 34/4/2 133/4/2
f 133/4/2 34/4/2 35/4/2
f 65/4/2 66/4/2 135/4/2
f 135/4/2 66/4/2 134/4/2
f 69/1/2 70/1/2 137/1/2
f 137/1/2 70/1/2 136/1/2
f 138/1/2 139/1/2 140/1/2
f 140/1/2 139/1/2 44/1/2
f 141/4/2 142/4/2 144/4/2
f 144/4/2 142/4/2 143/4/2
f 145/4/2 146/4/2 148/4/2
f 148/4/2 146/4/2 147/4/2
f 148/4/2 119/4/2 149/4/2
f 149/4/2 119/4/2 121/4/2
f 79/4/2 55/4/2 88/4/2
f 88/4/2 55/4/2 90/4/2
f 150/4/2 64/4/2 151/4/2
f 151/4/2 64/4/2 65/4/2
f 89/1/2 68/1/2 152/1/2
f 152/1/2 68/1/2 69/1/2
f 153/4/2 154/4/2 156/4/2
f 156/4/2 154/4/2 155/4/2
f 157/1/2 88/1/2 158/1/2
f 158/1/2 88/1/2 89/1/2
f 159/1/2 160/1/2 162/1/2
f 162/1/2 160/1/2 161/1/2
f 17/4/3 16/4/3 110/4/3
f 110/4/3 16/4/3 111/4/3
f 16/3/3 120/3/3 111/3/3
f 111/3/3 120/3/3 119/3/3
f 36/4/3 35/4/3 123/4/3
f 123/4/3 35/4/3 124/4/3
f 34/4/3 81/4/3 121/4/3
f 121/4/3 81/4/3 149/4/3
f 125/2/3 67/2/3 37/2/3
f 37/2/3 67/2/3 34/2/3
f 66/4/3 65/4/3 35/4/3
f 35/4/3 65/4/3 133/4/3
f 9/1/3 8/1/3 104/1/3
f 104/1/3 8/1/3 105/1/3
f 8/4/3 33/4/3 115/4/3
f 115/4/3 33/4/3 37/4/3
f 46/4/3 50/4/3 143/4/3
f 143/4/3 50/4/3 163/4/3
f 39/4/3 38/4/3 126/4/3
f 126/4/3 38/4/3 66/4/3
f 32/4/3 90/4/3 67/4/3
f 67/4/3 90/4/3 64/4/3
f 70/4/3 69/4/3 134/4/3
f 134/4/3 69/4/3 135/4/3
f 45/4/3 164/4/3 165/4/3
f 165/4/3 164/4/3 144/4/3
f 68/4/3 89/4/3 65/4/3
f 65/4/3 89/4/3 151/4/3
f 55/4/3 161/4/3 155/4/3
f 155/4/3 161/4/3 156/4/3
f 3/1/3 2/1/3 101/1/3
f 101/1/3 2/1/3 10/1/3
f 2/4/3 6/4/3 10/4/3
f 10/4/3 6/4/3 7/4/3
f 13/1/3 12/1/3 107/1/3
f 107/1/3 12/1/3 46/1/3
f 24/1/3 23/1/3 8/1/3
f 8/1/3 23/1/3 33/1/3
f 22/4/3 29/4/3 20/4/3
f 20/4/3 29/4/3 31/4/3
f 42/1/3 41/1/3 127/1/3
f 127/1/3 41/1/3 70/1/3
f 166/2/3 86/2/3 32/2/3
f 32/2/3 86/2/3 90/2/3
f 73/1/3 72/1/3 136/1/3
f 136/1/3 72/1/3 137/1/3
f 76/1/3 75/1/3 45/1/3
f 45/1/3 75/1/3 164/1/3
f 86/4/3 85/4/3 90/4/3
f 90/4/3 85/4/3 88/4/3
f 71/1/3 92/1/3 69/1/3
f 69/1/3 92/1/3 152/1/3
f 91/1/3 95/1/3 89/1/3
f 89/1/3 95/1/3 158/1/3
f 84/1/3 97/1/3 79/1/3
f 79/1/3 97/1/3 162/1/3
f 62/1/3 61/1/3 166/1/3
f 166/1/3 61/1/3 86/1/3
f 58/4/3 57/4/3 63/4/3
f 63/4/3 57/4/3 60/4/3
f 53/1/3 52/1/3 59/1/3
f 59/1/3 52/1/3 56/1/3
f 18/4/4 109/4/4 15/4/4
f 15/4/4 109/4/4 108/4/4
f 27/4/4 117/4/4 25/4/4
f 25/4/4 117/4/4 116/4/4
f 37/4/4 122/4/4 34/4/4
f 34/4/4 122/4/4 121/4/4
f 120/4/4 119/4/4 131/4/4
f 131/4/4 119/4/4 147/4/4
f 83/4/4 146/4/4 80/4/4
f 80/4/4 146/4/4 145/4/4
f 102/4/4 17/4/4 114/4/4
f 114/4/4 17/4/4 16/4/4
f 112/2/4 15/2/4 167/2/4
f 167/2/4 15/2/4 26/2/4
f 163/4/4 25/4/4 165/4/4
f 165/4/4 25/4/4 130/4/4
f 10/1/4 103/1/4 7/1/4
f 7/1/4 103/1/4 102/1/4
f 21/4/4 113/4/4 49/4/4
f 49/4/4 113/4/4 167/4/4
f 38/4/4 66/4/4 68/4/4
f 68/4/4 66/4/4 65/4/4
f 47/4/4 142/4/4 140/4/4
f 140/4/4 142/4/4 141/4/4
f 90/4/4 64/4/4 88/4/4
f 88/4/4 64/4/4 150/4/4
f 48/4/4 154/4/4 160/4/4
f 160/4/4 154/4/4 153/4/4
f 4/1/4 100/1/4 1/1/4
f 1/1/4 100/1/4 99/1/4
f 1/4/4 99/4/4 5/4/4
f 5/4/4 99/4/4 21/4/4
f 14/1/4 106/1/4 11/1/4
f 11/1/4 106/1/4 47/1/4
f 6/1/4 7/1/4 22/1/4
f 22/1/4 7/1/4 20/1/4
f 30/4/4 19/4/4 28/4/4
f 28/4/4 19/4/4 49/4/4
f 43/1/4 39/1/4 40/1/4
f 40/1/4 39/1/4 38/1/4
f 29/2/4 31/2/4 87/2/4
f 87/2/4 31/2/4 55/2/4
f 41/1/4 70/1/4 71/1/4
f 71/1/4 70/1/4 69/1/4
f 77/1/4 139/1/4 74/1/4
f 74/1/4 139/1/4 138/1/4
f 87/4/4 55/4/4 84/4/4
f 84/4/4 55/4/4 79/4/4
f 93/1/4 68/1/4 91/1/4
f 91/1/4 68/1/4 89/1/4
f 85/1/4 88/1/4 94/1/4
f 94/1/4 88/1/4 157/1/4
f 98/1/4 78/1/4 96/1/4
f 96/1/4 78/1/4 159/1/4
f 59/4/4 28/4/4 56/4/4
f 56/4/4 28/4/4 132/4/4
f 54/1/4 129/1/4 51/1/4
f 51/1/4 129/1/4 128/1/4
f 144/4/5 164/4/5 141/4/5
f 141/4/5 164/4/5 140/4/5
f 46/1/5 12/1/5 47/1/5
f 47/1/5 12/1/5 11/1/5
f 164/1/5 75/1/5 138/1/5
f 138/1/5 75/1/5 74/1/5
f 118/4/5 26/4/5 116/4/5
f 116/4/5 26/4/5 25/4/5
f 154/4/5 48/4/5 165/4/5
f 165/4/5 48/4/5 45/4/5
f 56/1/5 52/1/5 128/1/5
f 128/1/5 52/1/5 51/1/5
f 119/3/5 120/3/5 118/3/5
f 118/3/5 120/3/5 26/3/5
f 131/4/5 155/4/5 130/4/5
f 130/4/5 155/4/5 165/4/5
f 156/4/5 161/4/5 153/4/5
f 153/4/5 161/4/5 160/4/5
f 7/4/5 6/4/5 21/4/5
f 21/4/5 6/4/5 5/4/5
f 31/4/5 29/4/5 49/4/5
f 49/4/5 29/4/5 28/4/5
f 162/1/5 97/1/5 159/1/5
f 159/1/5 97/1/5 96/1/5
f 87/4/5 57/4/5 132/4/5
f 132/4/5 57/4/5 56/4/5
f 149/4/5 81/4/5 145/4/5
f 145/4/5 81/4/5 80/4/5
f 82/2/5 64/2/5 131/2/5
f 131/2/5 64/2/5 155/2/5
f 64/4/5 90/4/5 155/4/5
f 155/4/5 90/4/5 55/4/5
f 33/1/5 23/1/5 20/1/5
f 20/1/5 23/1/5 22/1/5
f 88/4/5 85/4/5 79/4/5
f 79/4/5 85/4/5 84/4/5
f 86/1/5 61/1/5 87/1/5
f 87/1/5 61/1/5 60/1/5
f 124/4/5 35/4/5 121/4/5
f 121/4/5 35/4/5 34/4/5
f 133/4/5 65/4/5 82/4/5
f 82/4/5 65/4/5 64/4/5
f 66/4/5 38/4/5 67/4/5
f 67/4/5 38/4/5 32/4/5
f 151/4/5 89/4/5 150/4/5
f 150/4/5 89/4/5 88/4/5
f 158/1/5 95/1/5 157/1/5
f 157/1/5 95/1/5 94/1/5
f 135/4/5 69/4/5 65/4/5
f 65/4/5 69/4/5 68/4/5
f 70/1/5 41/1/5 38/1/5
f 38/1/5 41/1/5 40/1/5
f 152/1/5 92/1/5 89/1/5
f 89/1/5 92/1/5 91/1/5
f 137/1/5 72/1/5 69/1/5
f 69/1/5 72/1/5 71/1/5
f 143/4/6 142/4/6 46/4/6
f 46/4/6 142/4/6 47/4/6
f 107/1/6 106/1/6 13/1/6
f 13/1/6 106/1/6 14/1/6
f 45/1/6 139/1/6 76/1/6
f 76/1/6 139/1/6 77/1/6
f 108/4/6 117/4/6 15/4/6
f 15/4/6 117/4/6 27/4/6
f 26/4/6 25/4/6 49/4/6
f 49/4/6 25/4/6 50/4/6
f 59/1/6 129/1/6 53/1/6
f 53/1/6 129/1/6 54/1/6
f 110/4/6 109/4/6 17/4/6
f 17/4/6 109/4/6 18/4/6
f 147/4/6 146/4/6 131/4/6
f 131/4/6 146/4/6 83/4/6
f 16/2/6 15/2/6 114/2/6
f 114/2/6 15/2/6 112/2/6
f 102/4/6 113/4/6 7/4/6
f 7/4/6 113/4/6 21/4/6
f 101/1/6 100/1/6 3/1/6
f 3/1/6 100/1/6 4/1/6
f 20/4/6 19/4/6 22/4/6
f 22/4/6 19/4/6 30/4/6
f 79/1/6 78/1/6 84/1/6
f 84/1/6 78/1/6 98/1/6
f 29/4/6 28/4/6 58/4/6
f 58/4/6 28/4/6 59/4/6
f 121/4/6 119/4/6 34/4/6
f 34/4/6 119/4/6 120/4/6
f 115/4/6 17/4/6 105/4/6
f 105/4/6 17/4/6 102/4/6
f 104/1/6 103/1/6 9/1/6
f 9/1/6 103/1/6 10/1/6
f 8/1/6 7/1/6 24/1/6
f 24/1/6 7/1/6 6/1/6
f 32/2/6 31/2/6 166/2/6
f 166/2/6 31/2/6 29/2/6
f 166/1/6 29/1/6 62/1/6
f 62/1/6 29/1/6 63/1/6
f 123/4/6 122/4/6 36/4/6
f 36/4/6 122/4/6 37/4/6
f 35/4/6 34/4/6 66/4/6
f 66/4/6 34/4/6 67/4/6
f 126/4/6 125/4/6 39/4/6
f 39/4/6 125/4/6 33/4/6
f 65/4/6 64/4/6 68/4/6
f 68/4/6 64/4/6 90/4/6
f 89/1/6 88/1/6 91/1/6
f 91/1/6 88/1/6 85/1/6
f 134/4/6 66/4/6 70/4/6
f 70/4/6 66/4/6 38/4/6
f 127/1/6 39/1/6 42/1/6
f 42/1/6 39/1/6 43/1/6
f 69/1/6 68/1/6 71/1/6
f 71/1/6 68/1/6 93/1/6
f 136/1/6 70/1/6 73/1/6
f 73/1/6 70/1/6 41/1/6
