# Vengi binary mesh normalized for Tanks of Freedom II

mtllib ../../../materials/vox_grass.mtl
o bush_3

v 0 0.3 0.3
v -0.1 0.3 0.3
v -0.1 0.3 0.4
v 0 0.3 0.4
v 0.3 0.1 0.2
v 0.2 0.1 0.2
v 0.2 0.1 0.3
v 0.3 0.1 0.3
v 0.2 0.4 0.2
v 0.1 0.4 0.2
v 0.1 0.4 0.3
v 0.2 0.4 0.3
v 0 0.4 0.2
v 0 0.4 0.4
v 0.1 0.4 0.4
v 0 0.5 0.2
v -0.1 0.5 0.2
v -0.1 0.5 0.3
v 0 0.5 0.3
v -0.1 0.1 0.2
v -0.2 0.1 0.2
v -0.2 0.1 0.3
v -0.1 0.1 0.3
v 0.3 0.1 0.1
v 0.2 0.1 0.1
v 0.3 0.3 0.1
v 0.2 0.3 0.1
v 0.2 0.3 0.2
v 0.3 0.3 0.2
v 0.3 0.5 0.1
v 0 0.5 0.1
v 0.3 0.5 0.2
v -0.1 0.5 0.1
v -0.2 0.5 0.1
v -0.2 0.5 0.2
v -0.2 0.2 0.1
v -0.3 0.2 0.1
v -0.3 0.2 0.2
v -0.2 0.2 0.2
v -0.2 0.4 0.1
v -0.3 0.4 0.1
v -0.3 0.4 0.2
v -0.2 0.4 0.2
v 0.4 0.1 0
v 0.3 0.1 0
v 0.4 0.1 0.1
v 0.2 0.6 0
v 0.1 0.6 0
v 0.1 0.6 0.1
v 0.2 0.6 0.1
v 0.1 0.7 0
v 0 0.7 0
v 0 0.7 0.1
v 0.1 0.7 0.1
v 0 0.6 0
v -0.1 0.6 0
v -0.1 0.6 0.2
v 0 0.6 0.2
v -0.2 0.6 0
v -0.2 0.6 0.1
v -0.1 0.6 0.1
v -0.2 0.5 0
v -0.3 0.5 0
v -0.3 0.5 0.1
v -0.3 0.3 0
v -0.4 0.3 0
v -0.4 0.3 0.1
v -0.3 0.3 0.1
v 0.4 0.3 -0.1
v 0.3 0.3 -0.1
v 0.3 0.3 0
v 0.4 0.3 0
v 0.2 0.5 -0.1
v 0.1 0.5 -0.1
v 0.1 0.5 0
v 0.2 0.5 0
v 0.1 0.6 -0.1
v 0 0.6 -0.1
v -0.1 0.6 -0.1
v -0.1 0.5 -0.1
v -0.2 0.5 -0.1
v -0.1 0.5 0
v -0.2 0.4 -0.1
v -0.3 0.4 -0.1
v -0.3 0.4 0
v -0.2 0.4 0
v -0.3 0.2 -0.1
v -0.4 0.2 -0.1
v -0.4 0.2 0
v -0.3 0.2 0
v 0.3 0.1 -0.2
v 0.2 0.1 -0.2
v 0.2 0.1 -0.1
v 0.3 0.1 -0.1
v 0.3 0.4 -0.2
v 0.2 0.4 -0.2
v 0.2 0.4 0.1
v 0.3 0.4 0.1
v 0.2 0.5 -0.2
v 0.1 0.5 -0.2
v 0 0.5 -0.2
v 0 0.5 -0.1
v 0 0.6 -0.2
v -0.1 0.6 -0.2
v -0.1 0.5 -0.2
v -0.2 0.5 -0.2
v -0.2 0.1 -0.2
v -0.3 0.1 -0.2
v -0.3 0.1 -0.1
v -0.2 0.1 -0.1
v -0.2 0.3 -0.2
v -0.3 0.3 -0.2
v -0.3 0.3 -0.1
v -0.2 0.3 -0.1
v 0.2 0.2 -0.3
v 0.1 0.2 -0.3
v 0.1 0.2 -0.2
v 0.2 0.2 -0.2
v 0.2 0.5 -0.3
v 0.1 0.5 -0.3
v 0.1 0.4 -0.3
v 0 0.4 -0.3
v 0 0.4 -0.2
v 0.1 0.4 -0.2
v 0 0.5 -0.3
v -0.1 0.5 -0.3
v -0.1 0.2 -0.3
v -0.2 0.2 -0.3
v -0.2 0.2 -0.2
v -0.1 0.2 -0.2
v -0.1 0.4 -0.3
v -0.2 0.4 -0.3
v -0.2 0.4 -0.2
v -0.1 0.4 -0.2
v 0.1 0.1 -0.4
v 0 0.1 -0.4
v 0 0.1 -0.3
v 0.1 0.1 -0.3
v 0.1 0.3 -0.4
v 0 0.3 -0.4
v 0 0.3 -0.3
v 0.1 0.3 -0.3
v 0.1 0.3 0.3
v 0.1 0.3 0.4
v 0 0.1 0.3
v 0 0.1 0.4
v -0.1 0.1 0.4
v 0.3 0 0.2
v 0.3 0 0.3
v 0.2 0 0.3
v 0.2 0 0.2
v 0.2 0.3 0.3
v 0.1 0.3 0.2
v 0 0 0.2
v 0 0 0.3
v -0.1 0 0.3
v -0.1 0 0.2
v 0.3 0 0.1
v 0.2 0 0.1
v 0.3 0.2 0.1
v 0.3 0.2 0.2
v 0.2 0.2 0.2
v 0.2 0.2 0.1
v 0.3 0.4 0.2
v -0.2 0.3 0.1
v -0.2 0.3 0.2
v -0.3 0.3 0.2
v 0.4 0 0
v 0.4 0 0.1
v 0.2 0 0
v -0.3 0 0
v -0.3 0 0.1
v -0.4 0 0.1
v -0.4 0 0
v 0.4 0.1 -0.1
v -0.3 0.1 0
v -0.4 0.1 0
v -0.4 0.1 -0.1
v 0.3 0 -0.2
v 0.3 0 0
v 0.2 0 -0.2
v 0.3 0.3 -0.2
v 0.2 0.3 -0.1
v 0.2 0.3 -0.2
v 0.1 0 0.2
v 0.1 0 -0.2
v -0.1 0 -0.2
v -0.2 0 0.3
v -0.2 0 -0.2
v -0.2 0 0.2
v -0.3 0 0.2
v -0.3 0 -0.2
v -0.2 0.2 -0.1
v -0.3 0.2 -0.2
v 0.2 0.1 -0.3
v 0.1 0.1 -0.2
v 0.2 0.3 -0.3
v 0.1 0.3 -0.2
v 0 0 -0.3
v -0.1 0 -0.3
v -0.1 0.1 -0.3
v -0.1 0.1 -0.2
v -0.2 0.1 -0.3
v -0.1 0.3 -0.3
v -0.1 0.3 -0.2
v -0.2 0.3 -0.3
v 0.1 0 -0.4
v 0.1 0 0.3
v 0 0 -0.4
v 0.1 0.2 -0.4
v 0 0.2 -0.3
v 0 0.2 -0.4
v -0.3 0.1 0.2
v -0.3 0.1 0.1
v -0.1 0.2 0.3
v -0.1 0.2 0.2
v -0.4 0.2 0.1
v -0.1 0.3 0.2
v 0 0.4 0.3
v -0.1 0.4 0.3
v -0.1 0.4 0.2
v 0 0.6 0.1
v 0.1 0.1 0.3
v 0.1 0.1 0.2
v 0.1 0.2 0.3
v 0.1 0.2 0.2
v 0.2 0.2 -0.1
v 0.3 0.4 0
v 0.2 0.4 0
v 0.2 0.4 -0.1
v 0.3 0.2 -0.1
v 0.2 0.5 0.1
v 0.2 0.4 -0.3
v 0 0.2 0.3

vt 0.0449219 0.5
vt 0.0996094 0.5

vn 0 1 0
vn 0 -1 0
vn -1 0 0
vn 1 0 0
vn 0 0 -1
vn 0 0 1

usemtl palette
f 1/2/1 2/2/1 4/2/1
f 4/2/1 2/2/1 3/2/1
f 5/2/1 6/2/1 8/2/1
f 8/2/1 6/2/1 7/2/1
f 9/2/1 10/2/1 12/2/1
f 12/2/1 10/2/1 11/2/1
f 10/2/1 13/2/1 15/2/1
f 15/2/1 13/2/1 14/2/1
f 16/1/1 17/1/1 19/1/1
f 19/1/1 17/1/1 18/1/1
f 20/2/1 21/2/1 23/2/1
f 23/2/1 21/2/1 22/2/1
f 24/1/1 25/1/1 5/1/1
f 5/1/1 25/1/1 6/1/1
f 26/1/1 27/1/1 29/1/1
f 29/1/1 27/1/1 28/1/1
f 30/2/1 31/2/1 32/2/1
f 32/2/1 31/2/1 16/2/1
f 33/2/1 34/2/1 17/2/1
f 17/2/1 34/2/1 35/2/1
f 36/1/1 37/1/1 39/1/1
f 39/1/1 37/1/1 38/1/1
f 40/2/1 41/2/1 43/2/1
f 43/2/1 41/2/1 42/2/1
f 44/2/1 45/2/1 46/2/1
f 46/2/1 45/2/1 24/2/1
f 47/2/1 48/2/1 50/2/1
f 50/2/1 48/2/1 49/2/1
f 51/2/1 52/2/1 54/2/1
f 54/2/1 52/2/1 53/2/1
f 55/2/1 56/2/1 58/2/1
f 58/2/1 56/2/1 57/2/1
f 56/2/1 59/2/1 61/2/1
f 61/2/1 59/2/1 60/2/1
f 62/2/1 63/2/1 34/2/1
f 34/2/1 63/2/1 64/2/1
f 65/1/1 66/1/1 68/1/1
f 68/1/1 66/1/1 67/1/1
f 69/2/1 70/2/1 72/2/1
f 72/2/1 70/2/1 71/2/1
f 73/2/1 74/2/1 76/2/1
f 76/2/1 74/2/1 75/2/1
f 77/2/1 78/2/1 48/2/1
f 48/2/1 78/2/1 55/2/1
f 78/1/1 79/1/1 55/1/1
f 55/1/1 79/1/1 56/1/1
f 80/1/1 81/1/1 82/1/1
f 82/1/1 81/1/1 62/1/1
f 83/2/1 84/2/1 86/2/1
f 86/2/1 84/2/1 85/2/1
f 87/2/1 88/2/1 90/2/1
f 90/2/1 88/2/1 89/2/1
f 91/2/1 92/2/1 94/2/1
f 94/2/1 92/2/1 93/2/1
f 95/2/1 96/2/1 98/2/1
f 98/2/1 96/2/1 97/2/1
f 99/1/1 100/1/1 73/1/1
f 73/1/1 100/1/1 74/1/1
f 100/2/1 101/2/1 74/2/1
f 74/2/1 101/2/1 102/2/1
f 103/2/1 104/2/1 78/2/1
f 78/2/1 104/2/1 79/2/1
f 105/2/1 106/2/1 80/2/1
f 80/2/1 106/2/1 81/2/1
f 107/2/1 108/2/1 110/2/1
f 110/2/1 108/2/1 109/2/1
f 111/2/1 112/2/1 114/2/1
f 114/2/1 112/2/1 113/2/1
f 115/2/1 116/2/1 118/2/1
f 118/2/1 116/2/1 117/2/1
f 119/2/1 120/2/1 99/2/1
f 99/2/1 120/2/1 100/2/1
f 121/2/1 122/2/1 124/2/1
f 124/2/1 122/2/1 123/2/1
f 125/2/1 126/2/1 101/2/1
f 101/2/1 126/2/1 105/2/1
f 127/2/1 128/2/1 130/2/1
f 130/2/1 128/2/1 129/2/1
f 131/2/1 132/2/1 134/2/1
f 134/2/1 132/2/1 133/2/1
f 135/2/1 136/2/1 138/2/1
f 138/2/1 136/2/1 137/2/1
f 139/2/1 140/2/1 142/2/1
f 142/2/1 140/2/1 141/2/1
f 143/2/2 144/2/2 1/2/2
f 1/2/2 144/2/2 4/2/2
f 145/2/2 146/2/2 23/2/2
f 23/2/2 146/2/2 147/2/2
f 148/2/2 149/2/2 151/2/2
f 151/2/2 149/2/2 150/2/2
f 28/2/2 152/2/2 153/2/2
f 153/2/2 152/2/2 143/2/2
f 154/1/2 155/1/2 157/1/2
f 157/1/2 155/1/2 156/1/2
f 158/1/2 148/1/2 159/1/2
f 159/1/2 148/1/2 151/1/2
f 160/1/2 161/1/2 163/1/2
f 163/1/2 161/1/2 162/1/2
f 98/2/2 164/2/2 97/2/2
f 97/2/2 164/2/2 9/2/2
f 165/2/2 166/2/2 68/2/2
f 68/2/2 166/2/2 167/2/2
f 168/2/2 169/2/2 170/2/2
f 170/2/2 169/2/2 159/2/2
f 171/2/2 172/2/2 174/2/2
f 174/2/2 172/2/2 173/2/2
f 175/2/2 44/2/2 94/2/2
f 94/2/2 44/2/2 45/2/2
f 109/2/2 176/2/2 178/2/2
f 178/2/2 176/2/2 177/2/2
f 179/2/2 180/2/2 181/2/2
f 181/2/2 180/2/2 170/2/2
f 182/2/2 70/2/2 184/2/2
f 184/2/2 70/2/2 183/2/2
f 181/2/2 151/2/2 186/2/2
f 186/2/2 151/2/2 185/2/2
f 187/2/2 156/2/2 189/2/2
f 189/2/2 156/2/2 188/2/2
f 189/2/2 190/2/2 192/2/2
f 192/2/2 190/2/2 191/2/2
f 129/2/2 193/2/2 194/2/2
f 194/2/2 193/2/2 87/2/2
f 195/2/2 92/2/2 138/2/2
f 138/2/2 92/2/2 196/2/2
f 197/2/2 184/2/2 142/2/2
f 142/2/2 184/2/2 198/2/2
f 199/2/2 154/2/2 200/2/2
f 200/2/2 154/2/2 157/2/2
f 201/2/2 202/2/2 203/2/2
f 203/2/2 202/2/2 107/2/2
f 204/2/2 205/2/2 206/2/2
f 206/2/2 205/2/2 111/2/2
f 207/2/2 208/2/2 209/2/2
f 209/2/2 208/2/2 155/2/2
f 210/2/2 116/2/2 212/2/2
f 212/2/2 116/2/2 211/2/2
f 7/2/3 6/2/3 150/2/3
f 150/2/3 6/2/3 151/2/3
f 22/2/3 21/2/3 188/2/3
f 188/2/3 21/2/3 190/2/3
f 213/2/3 214/2/3 191/2/3
f 191/2/3 214/2/3 172/2/3
f 176/2/3 108/2/3 171/2/3
f 171/2/3 108/2/3 192/2/3
f 202/2/3 201/2/3 187/2/3
f 187/2/3 201/2/3 200/2/3
f 137/2/3 136/2/3 199/2/3
f 199/2/3 136/2/3 209/2/3
f 215/2/3 216/2/3 23/2/3
f 23/2/3 216/2/3 20/2/3
f 38/1/3 37/1/3 213/1/3
f 213/1/3 37/1/3 214/1/3
f 217/2/3 89/2/3 173/2/3
f 173/2/3 89/2/3 174/2/3
f 89/2/3 88/2/3 177/2/3
f 177/2/3 88/2/3 178/2/3
f 193/2/3 128/2/3 110/2/3
f 110/2/3 128/2/3 203/2/3
f 3/2/3 2/2/3 147/2/3
f 147/2/3 2/2/3 23/2/3
f 2/1/3 218/1/3 215/1/3
f 215/1/3 218/1/3 216/1/3
f 166/2/3 165/2/3 39/2/3
f 39/2/3 165/2/3 36/2/3
f 67/1/3 66/1/3 217/1/3
f 217/1/3 66/1/3 89/1/3
f 113/2/3 112/2/3 87/2/3
f 87/2/3 112/2/3 194/2/3
f 205/2/3 204/2/3 130/2/3
f 130/2/3 204/2/3 127/2/3
f 141/2/3 140/2/3 211/2/3
f 211/2/3 140/2/3 212/2/3
f 14/2/3 219/2/3 4/2/3
f 4/2/3 219/2/3 1/2/3
f 220/2/3 221/2/3 2/2/3
f 2/2/3 221/2/3 218/2/3
f 42/2/3 85/2/3 167/2/3
f 167/2/3 85/2/3 65/2/3
f 85/2/3 84/2/3 90/2/3
f 90/2/3 84/2/3 87/2/3
f 83/1/3 133/1/3 114/1/3
f 114/1/3 133/1/3 111/1/3
f 133/2/3 132/2/3 111/2/3
f 111/2/3 132/2/3 206/2/3
f 18/1/3 17/1/3 220/1/3
f 220/1/3 17/1/3 221/1/3
f 35/2/3 34/2/3 43/2/3
f 43/2/3 34/2/3 40/2/3
f 64/2/3 63/2/3 41/2/3
f 41/2/3 63/2/3 85/2/3
f 62/1/3 81/1/3 86/1/3
f 86/1/3 81/1/3 83/1/3
f 81/2/3 106/2/3 83/2/3
f 83/2/3 106/2/3 133/2/3
f 100/2/3 120/2/3 124/2/3
f 124/2/3 120/2/3 121/2/3
f 105/2/3 126/2/3 134/2/3
f 134/2/3 126/2/3 131/2/3
f 57/2/3 61/2/3 17/2/3
f 17/2/3 61/2/3 33/2/3
f 60/2/3 59/2/3 34/2/3
f 34/2/3 59/2/3 62/2/3
f 56/1/3 79/1/3 82/1/3
f 82/1/3 79/1/3 80/1/3
f 79/2/3 104/2/3 80/2/3
f 80/2/3 104/2/3 105/2/3
f 53/2/3 52/2/3 222/2/3
f 222/2/3 52/2/3 55/2/3
f 8/2/4 149/2/4 5/2/4
f 5/2/4 149/2/4 148/2/4
f 223/2/4 208/2/4 224/2/4
f 224/2/4 208/2/4 185/2/4
f 5/1/4 148/1/4 24/1/4
f 24/1/4 148/1/4 158/1/4
f 46/2/4 169/2/4 44/2/4
f 44/2/4 169/2/4 168/2/4
f 45/2/4 180/2/4 91/2/4
f 91/2/4 180/2/4 179/2/4
f 196/2/4 186/2/4 135/2/4
f 135/2/4 186/2/4 207/2/4
f 225/1/4 223/1/4 226/1/4
f 226/1/4 223/1/4 224/1/4
f 162/2/4 6/2/4 163/2/4
f 163/2/4 6/2/4 25/2/4
f 227/1/4 93/1/4 118/1/4
f 118/1/4 93/1/4 92/1/4
f 118/2/4 92/2/4 115/2/4
f 115/2/4 92/2/4 195/2/4
f 4/2/4 146/2/4 1/2/4
f 1/2/4 146/2/4 145/2/4
f 143/2/4 225/2/4 153/2/4
f 153/2/4 225/2/4 226/2/4
f 29/1/4 161/1/4 26/1/4
f 26/1/4 161/1/4 160/1/4
f 72/2/4 44/2/4 69/2/4
f 69/2/4 44/2/4 175/2/4
f 183/2/4 227/2/4 184/2/4
f 184/2/4 227/2/4 118/2/4
f 198/2/4 117/2/4 139/2/4
f 139/2/4 117/2/4 210/2/4
f 15/2/4 144/2/4 11/2/4
f 11/2/4 144/2/4 143/2/4
f 12/2/4 152/2/4 97/2/4
f 97/2/4 152/2/4 27/2/4
f 98/2/4 24/2/4 228/2/4
f 228/2/4 24/2/4 45/2/4
f 228/2/4 71/2/4 95/2/4
f 95/2/4 71/2/4 182/2/4
f 19/1/4 219/1/4 16/1/4
f 16/1/4 219/1/4 13/1/4
f 32/2/4 164/2/4 30/2/4
f 30/2/4 164/2/4 98/2/4
f 76/2/4 229/2/4 73/2/4
f 73/2/4 229/2/4 230/2/4
f 73/1/4 230/1/4 99/1/4
f 99/1/4 230/1/4 96/1/4
f 99/2/4 184/2/4 119/2/4
f 119/2/4 184/2/4 197/2/4
f 101/2/4 123/2/4 125/2/4
f 125/2/4 123/2/4 122/2/4
f 58/2/4 16/2/4 222/2/4
f 222/2/4 16/2/4 31/2/4
f 50/2/4 97/2/4 47/2/4
f 47/2/4 97/2/4 229/2/4
f 48/2/4 75/2/4 77/2/4
f 77/2/4 75/2/4 74/2/4
f 78/2/4 102/2/4 103/2/4
f 103/2/4 102/2/4 101/2/4
f 54/2/4 49/2/4 51/2/4
f 51/2/4 49/2/4 48/2/4
f 180/2/5 45/2/5 168/2/5
f 168/2/5 45/2/5 44/2/5
f 94/2/5 70/2/5 175/2/5
f 175/2/5 70/2/5 69/2/5
f 93/1/5 227/1/5 94/1/5
f 94/1/5 227/1/5 231/1/5
f 227/2/5 183/2/5 231/2/5
f 231/2/5 183/2/5 70/2/5
f 184/2/5 96/2/5 182/2/5
f 182/2/5 96/2/5 95/2/5
f 97/2/5 232/2/5 98/2/5
f 98/2/5 232/2/5 30/2/5
f 186/2/5 196/2/5 179/2/5
f 179/2/5 196/2/5 91/2/5
f 117/2/5 198/2/5 118/2/5
f 118/2/5 198/2/5 184/2/5
f 121/2/5 120/2/5 233/2/5
f 233/2/5 120/2/5 119/2/5
f 75/2/5 48/2/5 76/2/5
f 76/2/5 48/2/5 47/2/5
f 209/2/5 136/2/5 207/2/5
f 207/2/5 136/2/5 135/2/5
f 137/2/5 211/2/5 195/2/5
f 195/2/5 211/2/5 115/2/5
f 212/2/5 140/2/5 210/2/5
f 210/2/5 140/2/5 139/2/5
f 123/2/5 101/2/5 124/2/5
f 124/2/5 101/2/5 100/2/5
f 102/2/5 78/2/5 74/2/5
f 74/2/5 78/2/5 77/2/5
f 55/2/5 52/2/5 48/2/5
f 48/2/5 52/2/5 51/2/5
f 200/2/5 201/2/5 199/2/5
f 199/2/5 201/2/5 137/2/5
f 201/1/5 127/1/5 137/1/5
f 137/1/5 127/1/5 211/1/5
f 127/2/5 204/2/5 211/2/5
f 211/2/5 204/2/5 141/2/5
f 131/2/5 126/2/5 122/2/5
f 122/2/5 126/2/5 125/2/5
f 105/2/5 104/2/5 101/2/5
f 101/2/5 104/2/5 103/2/5
f 203/2/5 128/2/5 201/2/5
f 201/2/5 128/2/5 127/2/5
f 129/1/5 111/1/5 130/1/5
f 130/1/5 111/1/5 205/1/5
f 206/2/5 132/2/5 197/2/5
f 197/2/5 132/2/5 233/2/5
f 133/2/5 106/2/5 134/2/5
f 134/2/5 106/2/5 105/2/5
f 62/2/5 59/2/5 82/2/5
f 82/2/5 59/2/5 56/2/5
f 192/2/5 108/2/5 187/2/5
f 187/2/5 108/2/5 202/2/5
f 194/2/5 112/2/5 129/2/5
f 129/2/5 112/2/5 111/2/5
f 113/2/5 84/2/5 114/2/5
f 114/2/5 84/2/5 83/2/5
f 85/2/5 63/2/5 86/2/5
f 86/2/5 63/2/5 62/2/5
f 174/2/5 177/2/5 171/2/5
f 171/2/5 177/2/5 176/2/5
f 178/2/5 88/2/5 110/2/5
f 110/2/5 88/2/5 193/2/5
f 89/1/5 66/1/5 90/1/5
f 90/1/5 66/1/5 65/1/5
f 158/2/6 169/2/6 24/2/6
f 24/2/6 169/2/6 46/2/6
f 45/2/6 44/2/6 71/2/6
f 71/2/6 44/2/6 72/2/6
f 150/2/6 149/2/6 7/2/6
f 7/2/6 149/2/6 8/2/6
f 25/2/6 24/2/6 163/2/6
f 163/2/6 24/2/6 160/2/6
f 162/1/6 161/1/6 28/1/6
f 28/1/6 161/1/6 29/1/6
f 27/2/6 26/2/6 97/2/6
f 97/2/6 26/2/6 98/2/6
f 185/2/6 151/2/6 153/2/6
f 153/2/6 151/2/6 28/2/6
f 143/2/6 152/2/6 11/2/6
f 11/2/6 152/2/6 12/2/6
f 155/2/6 208/2/6 145/2/6
f 145/2/6 208/2/6 223/2/6
f 145/1/6 223/1/6 234/1/6
f 234/1/6 223/1/6 225/1/6
f 234/2/6 225/2/6 1/2/6
f 1/2/6 225/2/6 143/2/6
f 4/2/6 144/2/6 14/2/6
f 14/2/6 144/2/6 15/2/6
f 13/2/6 164/2/6 16/2/6
f 16/2/6 164/2/6 32/2/6
f 31/2/6 232/2/6 222/2/6
f 222/2/6 232/2/6 50/2/6
f 222/2/6 49/2/6 53/2/6
f 53/2/6 49/2/6 54/2/6
f 156/1/6 155/1/6 23/1/6
f 23/1/6 155/1/6 145/1/6
f 147/2/6 146/2/6 3/2/6
f 3/2/6 146/2/6 4/2/6
f 2/2/6 1/2/6 220/2/6
f 220/2/6 1/2/6 219/2/6
f 220/1/6 219/1/6 18/1/6
f 18/1/6 219/1/6 19/1/6
f 17/2/6 16/2/6 57/2/6
f 57/2/6 16/2/6 58/2/6
f 188/2/6 156/2/6 22/2/6
f 22/2/6 156/2/6 23/2/6
f 21/2/6 20/2/6 166/2/6
f 166/2/6 20/2/6 218/2/6
f 166/1/6 218/1/6 43/1/6
f 43/1/6 218/1/6 221/1/6
f 43/2/6 221/2/6 35/2/6
f 35/2/6 221/2/6 17/2/6
f 34/2/6 33/2/6 60/2/6
f 60/2/6 33/2/6 61/2/6
f 191/2/6 190/2/6 213/2/6
f 213/2/6 190/2/6 21/2/6
f 213/1/6 21/1/6 38/1/6
f 38/1/6 21/1/6 39/1/6
f 37/2/6 36/2/6 68/2/6
f 68/2/6 36/2/6 165/2/6
f 167/2/6 166/2/6 42/2/6
f 42/2/6 166/2/6 43/2/6
f 41/2/6 40/2/6 64/2/6
f 64/2/6 40/2/6 34/2/6
f 173/2/6 172/2/6 217/2/6
f 217/2/6 172/2/6 37/2/6
f 217/1/6 37/1/6 67/1/6
f 67/1/6 37/1/6 68/1/6
