# Vengi binary mesh normalized for Tanks of Freedom II

mtllib ../../../materials/vox_grass.mtl
o pine_3

v 0.1 2.6 0.4
v 0 2.6 0.4
v 0 2.6 0.6
v 0.1 2.6 0.6
v 0.2 2.6 0.3
v 0.1 2.6 0.3
v 0.2 2.6 0.4
v 0.1 2.7 0.3
v 0 2.7 0.3
v 0 2.7 0.4
v 0.1 2.7 0.4
v 0.1 2.9 0.3
v 0 2.9 0.3
v 0 2.9 0.4
v 0.1 2.9 0.4
v 0.3 2.6 0.2
v 0.2 2.6 0.2
v 0.3 2.6 0.3
v 0.3 2.9 0.2
v 0.2 2.9 0.2
v 0.2 2.9 0.3
v 0.3 2.9 0.3
v 0.2 3 0.2
v 0.1 3 0.2
v 0.1 3 0.3
v 0.2 3 0.3
v 0.1 2.6 0.2
v 0 2.6 0.2
v 0 2.6 0.3
v 0.1 2.9 0.2
v 0 2.9 0.2
v 0.1 3.2 0.2
v 0 3.2 0.2
v 0 3.2 0.3
v 0.1 3.2 0.3
v -0.1 2.9 0.2
v -0.1 2.9 0.3
v -0.2 2.6 0.2
v -0.2 2.6 0.3
v 0.4 2.9 0.1
v 0.3 2.9 0.1
v 0.4 2.9 0.2
v 0.3 3.2 0.1
v 0.2 3.2 0.1
v 0.2 3.2 0.2
v 0.3 3.2 0.2
v 0.2 1.8 0.1
v 0.1 1.8 0.1
v 0.1 1.8 0.2
v 0.2 1.8 0.2
v 0.2 2.6 0.1
v 0.1 2.6 0.1
v 0.2 2.9 0.1
v 0.1 2.9 0.1
v 0.1 0.5 0.1
v 0 0.5 0.1
v 0 0.5 0.2
v 0.1 0.5 0.2
v 0.1 0.8 0.1
v 0 0.8 0.1
v 0 0.8 0.2
v 0.1 0.8 0.2
v 0.1 1.5 0.1
v 0 1.5 0.1
v 0 1.5 0.3
v 0.1 1.5 0.3
v 0.1 2.1 0.1
v 0 2.1 0.1
v 0 2.1 0.2
v 0.1 2.1 0.2
v 0.1 2.7 0.1
v 0 2.7 0.1
v 0 2.7 0.2
v 0.1 2.7 0.2
v 0.1 3 0.1
v 0 3 0.1
v 0 3 0.2
v 0.1 3.2 0.1
v 0 3.2 0.1
v 0.1 3.5 0.1
v 0 3.5 0.1
v 0 3.5 0.2
v 0.1 3.5 0.2
v 0 1.2 0.1
v -0.1 1.2 0.1
v -0.1 1.2 0.2
v 0 1.2 0.2
v -0.1 3.2 0.1
v -0.1 3.2 0.2
v 0.5 2.6 0
v 0.4 2.6 0
v 0.4 2.6 0.2
v 0.5 2.6 0.2
v 0.3 0.9 0
v 0.2 0.9 0
v 0.2 0.9 0.1
v 0.3 0.9 0.1
v 0.3 2.6 0
v 0.2 2.6 0
v 0.3 2.6 0.1
v 0.3 2.9 0
v 0.2 2.9 0
v 0.2 2.8 0
v 0.1 2.8 0
v 0.1 2.8 0.1
v 0.2 2.8 0.1
v 0.2 3.2 0
v 0.1 3.2 0
v 0.2 3.4 0
v 0.1 3.4 0
v 0.1 3.4 0.1
v 0.2 3.4 0.1
v 0.2 3.6 0
v 0.1 3.6 0
v 0.1 3.6 0.1
v 0.2 3.6 0.1
v 0.1 3.3 0
v 0 3.3 0
v 0 3.3 0.1
v 0.1 3.3 0.1
v 0.1 3.5 0
v 0 3.5 0
v 0.1 3.7 0
v 0 3.7 0
v 0 3.7 0.1
v 0.1 3.7 0.1
v 0 0.6 0
v -0.1 0.6 0
v -0.1 0.6 0.1
v 0 0.6 0.1
v 0 2.9 0
v -0.1 2.9 0
v -0.1 2.9 0.1
v 0 2.9 0.1
v 0 3.4 0
v -0.1 3.4 0
v -0.1 3.4 0.1
v 0 3.4 0.1
v 0 3.6 0
v -0.1 3.6 0
v -0.1 3.6 0.1
v 0 3.6 0.1
v 0 1.3 0
v -0.2 1.3 0
v -0.2 1.3 0.1
v 0 1.3 0.1
v -0.1 2.6 0
v -0.2 2.6 0
v -0.2 2.6 0.1
v -0.1 2.6 0.1
v -0.1 3.1 0
v -0.2 3.1 0
v -0.2 3.1 0.1
v -0.1 3.1 0.1
v -0.1 3.3 0
v -0.2 3.3 0
v -0.2 3.3 0.1
v -0.1 3.3 0.1
v -0.3 2.6 0
v -0.4 2.6 0
v -0.4 2.6 0.1
v -0.3 2.6 0.1
v -0.3 2.9 0
v -0.4 2.9 0
v -0.4 2.9 0.1
v -0.3 2.9 0.1
v 0.7 2.6 -0.1
v 0.5 2.6 -0.1
v 0.7 2.6 0
v 0.5 2.7 -0.1
v 0.4 2.7 -0.1
v 0.4 2.7 0
v 0.5 2.7 0
v 0.5 2.9 -0.1
v 0.4 2.9 -0.1
v 0.4 2.9 0
v 0.5 2.9 0
v 0.4 2.6 -0.1
v 0.3 2.6 -0.1
v 0.4 3 -0.1
v 0.3 3 -0.1
v 0.3 3 0
v 0.4 3 0
v 0.4 3.2 -0.1
v 0.3 3.2 -0.1
v 0.3 3.2 0
v 0.4 3.2 0
v 0.3 0.5 -0.1
v 0.2 0.5 -0.1
v 0.2 0.5 0
v 0.3 0.5 0
v 0.4 1.6 -0.1
v 0.2 1.6 -0.1
v 0.2 1.6 0
v 0.4 1.6 0
v 0.3 1.9 -0.1
v 0.2 1.9 -0.1
v 0.2 1.9 0
v 0.3 1.9 0
v 0.3 2.2 -0.1
v 0.2 2.2 -0.1
v 0.2 2.2 0
v 0.3 2.2 0
v 0.3 2.9 -0.1
v 0.2 2.9 -0.1
v 0.2 3.2 -0.1
v 0.3 3.5 -0.1
v 0.2 3.5 -0.1
v 0.2 3.5 0
v 0.3 3.5 0
v 0.2 3.3 -0.1
v 0.1 3.3 -0.1
v 0.2 3.3 0
v 0.1 3.5 -0.1
v 0.2 3.7 -0.1
v 0.1 3.7 -0.1
v 0.2 3.7 0
v 0.1 3.9 -0.1
v 0 3.9 -0.1
v 0 3.9 0
v 0.1 3.9 0
v 0 3.3 -0.1
v -0.1 3.3 -0.1
v 0 3.5 -0.1
v -0.1 3.5 -0.1
v -0.1 3.5 0
v 0 3.7 -0.1
v -0.1 3.7 -0.1
v -0.1 3.7 0
v -0.1 0.5 -0.1
v -0.2 0.5 -0.1
v -0.2 0.5 0
v -0.1 0.5 0
v -0.1 1 -0.1
v -0.2 1 -0.1
v -0.2 1 0
v -0.1 1 0
v -0.1 1.5 -0.1
v -0.2 1.5 -0.1
v -0.2 1.5 0
v -0.1 1.5 0
v -0.1 2.6 -0.1
v -0.2 2.6 -0.1
v -0.1 2.9 -0.1
v -0.2 2.9 -0.1
v -0.2 2.9 0
v -0.1 3.2 -0.1
v -0.2 3.2 -0.1
v -0.2 3.2 0
v -0.1 3.2 0
v -0.2 3.5 -0.1
v -0.2 3.5 0
v -0.1 1.8 -0.1
v -0.3 1.8 -0.1
v -0.3 1.8 0
v -0.1 1.8 0
v -0.2 2.7 -0.1
v -0.3 2.7 -0.1
v -0.3 2.7 0
v -0.2 2.7 0
v -0.2 3 -0.1
v -0.3 3 -0.1
v -0.3 3 0
v -0.2 3 0
v -0.3 3.2 -0.1
v -0.3 3.2 0
v -0.3 2.6 -0.1
v -0.4 2.6 -0.1
v -0.6 2.6 -0.1
v -0.6 2.6 0
v 0.4 2.6 -0.2
v 0.3 2.6 -0.2
v 0.4 2.9 -0.2
v 0.3 2.9 -0.2
v 0.2 0.2 -0.2
v 0.1 0.2 -0.2
v 0.1 0.2 -0.1
v 0.2 0.2 -0.1
v 0.3 0.7 -0.2
v 0.1 0.7 -0.2
v 0.1 0.7 -0.1
v 0.3 0.7 -0.1
v 0.3 1.2 -0.2
v 0.1 1.2 -0.2
v 0.1 1.2 -0.1
v 0.3 1.2 -0.1
v 0.2 2.1 -0.2
v 0.1 2.1 -0.2
v 0.1 2.1 -0.1
v 0.2 2.1 -0.1
v 0.2 2.8 -0.2
v 0.1 2.8 -0.2
v 0.1 2.8 -0.1
v 0.2 2.8 -0.1
v 0.2 3 -0.2
v 0.1 3 -0.2
v 0.1 3 -0.1
v 0.2 3 -0.1
v 0.2 3.2 -0.2
v 0.1 3.2 -0.2
v 0.1 3.2 -0.1
v 0.2 3.4 -0.2
v 0.1 3.4 -0.2
v 0.1 3.4 -0.1
v 0.2 3.4 -0.1
v 0.2 3.6 -0.2
v 0.1 3.6 -0.2
v 0.1 3.6 -0.1
v 0.2 3.6 -0.1
v 0.1 3.3 -0.2
v 0 3.3 -0.2
v 0.1 3.5 -0.2
v 0 3.5 -0.2
v 0.1 3.7 -0.2
v 0 3.7 -0.2
v 0 0.5 -0.2
v -0.1 0.5 -0.2
v 0 0.5 -0.1
v 0 1.9 -0.2
v -0.1 1.9 -0.2
v -0.1 1.9 -0.1
v 0 1.9 -0.1
v 0 2.8 -0.2
v -0.1 2.8 -0.2
v -0.1 2.8 -0.1
v 0 2.8 -0.1
v 0 3.1 -0.2
v -0.1 3.1 -0.2
v -0.1 3.1 -0.1
v 0 3.1 -0.1
v 0 3.4 -0.2
v -0.1 3.4 -0.2
v -0.1 3.4 -0.1
v 0 3.4 -0.1
v 0 3.6 -0.2
v -0.1 3.6 -0.2
v -0.1 3.6 -0.1
v 0 3.6 -0.1
v -0.1 2.9 -0.2
v -0.2 2.9 -0.2
v -0.1 3.2 -0.2
v -0.2 3.2 -0.2
v -0.3 2.6 -0.2
v -0.4 2.6 -0.2
v -0.3 2.9 -0.2
v -0.4 2.9 -0.2
v -0.4 2.9 -0.1
v -0.3 2.9 -0.1
v 0.5 2.6 -0.3
v 0.4 2.6 -0.3
v 0.5 2.6 -0.2
v 0.2 1 -0.3
v 0.1 1 -0.3
v 0.1 1 -0.2
v 0.2 1 -0.2
v 0.2 2 -0.3
v 0.1 2 -0.3
v 0.1 2 -0.2
v 0.2 2 -0.2
v 0.3 2.6 -0.3
v 0.1 2.6 -0.3
v 0.1 2.6 -0.2
v 0.2 3.1 -0.3
v 0.1 3.1 -0.3
v 0.1 3.1 -0.2
v 0.2 3.1 -0.2
v 0.1 0.5 -0.3
v 0 0.5 -0.3
v 0.1 0.5 -0.2
v 0.1 1.7 -0.3
v 0 1.7 -0.3
v 0 1.7 -0.2
v 0.1 1.7 -0.2
v 0 2.6 -0.3
v 0 2.6 -0.2
v 0.1 3.2 -0.3
v 0 3.2 -0.3
v 0 3.2 -0.2
v 0.1 3.5 -0.3
v 0 3.5 -0.3
v 0 1.5 -0.3
v -0.1 1.5 -0.3
v -0.1 1.5 -0.2
v 0 1.5 -0.2
v 0 2.9 -0.3
v -0.1 2.9 -0.3
v 0 2.9 -0.2
v 0 3.3 -0.3
v -0.1 3.3 -0.3
v -0.1 3.3 -0.2
v -0.2 2.6 -0.3
v -0.3 2.6 -0.3
v -0.2 2.6 -0.2
v 0.2 2.9 -0.4
v 0.1 2.9 -0.4
v 0.1 2.9 -0.3
v 0.2 2.9 -0.3
v 0.1 1.2 -0.4
v 0 1.2 -0.4
v 0 1.2 -0.2
v 0.1 2.7 -0.4
v 0 2.7 -0.4
v 0 2.7 -0.3
v 0.1 2.7 -0.3
v 0 2.9 -0.4
v 0.1 2.9 -0.2
v 0.1 3.2 -0.4
v 0 3.2 -0.4
v 0 2.6 -0.4
v -0.1 2.6 -0.4
v -0.1 2.6 -0.3
v 0.3 2.6 -0.5
v 0.1 2.6 -0.5
v 0.1 2.6 -0.4
v 0.3 2.6 -0.4
v 0 2.6 -0.5
v 0.1 2.9 -0.5
v 0 2.9 -0.5
v -0.1 2.6 -0.5
v -0.2 2.6 -0.5
v -0.2 2.6 -0.4
v 0.1 2.6 -0.7
v 0 2.6 -0.7
v 0.1 2.5 0.4
v 0.1 2.5 0.6
v 0 2.5 0.6
v 0 2.5 0.4
v 0.2 2.5 0.3
v 0.2 2.5 0.4
v 0.1 2.5 0.3
v 0 2.5 0.3
v 0.1 2.8 0.3
v 0.1 2.8 0.4
v 0 2.8 0.4
v 0 2.8 0.3
v 0.3 2.5 0.2
v 0.3 2.5 0.3
v 0.2 2.5 0.2
v 0.3 2.8 0.2
v 0.3 2.8 0.3
v 0.2 2.8 0.3
v 0.2 2.8 0.2
v 0.1 2.4 0.2
v 0.1 2.4 0.3
v 0 2.4 0.3
v 0 2.4 0.2
v 0.1 3.1 0.2
v 0.1 3.1 0.3
v 0 3.1 0.3
v 0 3.1 0.2
v 0 2.8 0.2
v -0.1 2.8 0.3
v -0.1 2.8 0.2
v 0 2.5 0.2
v -0.2 2.5 0.3
v -0.2 2.5 0.2
v 0.4 2.8 0.1
v 0.4 2.8 0.2
v 0.3 2.8 0.1
v 0.3 3.1 0.1
v 0.3 3.1 0.2
v 0.2 3.1 0.2
v 0.2 3.1 0.1
v 0.2 1.7 0.1
v 0.2 1.7 0.2
v 0.1 1.7 0.2
v 0.1 1.7 0.1
v 0.2 2.5 0.1
v 0.1 2.5 0.2
v 0.1 2.5 0.1
v 0.1 2.8 0.2
v 0.1 0.7 0.1
v 0.1 0.7 0.2
v 0 0.7 0.2
v 0 0.7 0.1
v 0.1 1.4 0.1
v 0.1 1.4 0.3
v 0 1.4 0.3
v 0 1.4 0.1
v 0.1 2 0.1
v 0.1 2 0.2
v 0 2 0.2
v 0 2 0.1
v 0 2.5 0.1
v 0 2.8 0.1
v 0.1 3.1 0.1
v 0 3.1 0.1
v 0.1 3.4 0.2
v 0 3.4 0.2
v 0 1.1 0.1
v 0 1.1 0.2
v -0.1 1.1 0.2
v -0.1 1.1 0.1
v -0.1 3.1 0.2
v 0.5 2.5 0
v 0.5 2.5 0.2
v 0.4 2.5 0.2
v 0.4 2.5 0
v 0.3 0.8 0
v 0.3 0.8 0.1
v 0.2 0.8 0.1
v 0.2 0.8 0
v 0.3 2.5 0
v 0.3 2.5 0.1
v 0.2 2.5 0
v 0.3 2.8 0
v 0.2 3.1 0
v 0.1 3.1 0
v 0.2 3.3 0.1
v 0.2 3.5 0.1
v 0 1 0
v 0 1 0.1
v -0.1 1 0.1
v 0 2.4 0
v 0 2.4 0.1
v -0.1 2.4 0.1
v -0.1 2.4 0
v -0.1 3.5 0.1
v -0.1 1.2 0
v -0.2 1.2 0.1
v -0.2 1.2 0
v -0.1 2.5 0
v -0.1 2.5 0.1
v -0.2 2.5 0.1
v -0.2 2.5 0
v -0.1 3 0
v -0.1 3 0.1
v -0.2 3 0.1
v -0.2 3.2 0.1
v -0.3 2.5 0
v -0.3 2.5 0.1
v -0.4 2.5 0.1
v -0.4 2.5 0
v -0.3 2.8 0
v -0.3 2.8 0.1
v -0.4 2.8 0.1
v -0.4 2.8 0
v 0.7 2.5 -0.1
v 0.7 2.5 0
v 0.5 2.5 -0.1
v 0.5 2.4 -0.1
v 0.5 2.4 0
v 0.4 2.4 0
v 0.4 2.4 -0.1
v 0.5 2.8 -0.1
v 0.5 2.8 0
v 0.4 2.8 0
v 0.4 2.8 -0.1
v 0.4 2.5 -0.1
v 0.3 2.5 -0.1
v 0.3 2.8 -0.1
v 0.4 3.1 -0.1
v 0.4 3.1 0
v 0.3 3.1 0
v 0.3 3.1 -0.1
v 0.3 0 -0.1
v 0.3 0 0
v 0.2 0 0
v 0.2 0 -0.1
v 0.4 1.5 -0.1
v 0.4 1.5 0
v 0.2 1.5 0
v 0.2 1.5 -0.1
v 0.3 1.8 -0.1
v 0.3 1.8 0
v 0.2 1.8 0
v 0.2 1.8 -0.1
v 0.3 2.1 -0.1
v 0.3 2.1 0
v 0.2 2.1 0
v 0.3 2.4 -0.1
v 0.3 2.4 0
v 0.2 2.4 0
v 0.2 2.4 -0.1
v 0.2 3 0
v 0.3 3.4 -0.1
v 0.3 3.4 0
v -0.1 0 -0.1
v -0.1 0 0
v -0.2 0 0
v -0.2 0 -0.1
v -0.1 0.9 -0.1
v -0.1 0.9 0
v -0.2 0.9 0
v -0.2 0.9 -0.1
v -0.1 1.4 -0.1
v -0.1 1.4 0
v -0.2 1.4 0
v -0.2 1.4 -0.1
v -0.1 2.4 -0.1
v -0.2 2.4 0
v -0.2 2.4 -0.1
v -0.1 2.7 -0.1
v -0.1 2.7 0
v -0.2 3.1 -0.1
v -0.2 3.4 0
v -0.2 3.4 -0.1
v -0.1 1.7 -0.1
v -0.1 1.7 0
v -0.3 1.7 0
v -0.3 1.7 -0.1
v -0.2 2.5 -0.1
v -0.3 2.5 -0.1
v -0.2 2.8 -0.1
v -0.2 2.8 0
v -0.3 2.8 -0.1
v -0.3 3.1 0
v -0.3 3.1 -0.1
v -0.3 2.4 -0.1
v -0.3 2.4 0
v -0.4 2.4 0
v -0.4 2.4 -0.1
v -0.4 2.5 -0.1
v -0.6 2.5 0
v -0.6 2.5 -0.1
v 0.4 2.5 -0.2
v 0.3 2.5 -0.2
v 0.4 2.8 -0.2
v 0.3 2.8 -0.2
v 0.3 0.6 -0.2
v 0.3 0.6 -0.1
v 0.2 0.6 -0.1
v 0.2 0.6 -0.2
v 0.3 1.1 -0.2
v 0.3 1.1 -0.1
v 0.2 1.1 -0.1
v 0.2 1.1 -0.2
v 0.2 0 -0.2
v 0.2 0 0.1
v 0.1 0 0.1
v 0.1 0 -0.2
v 0.2 0.5 -0.2
v 0.1 0.5 -0.1
v 0.2 0.8 -0.2
v 0.2 0.8 -0.1
v 0.1 0.8 -0.1
v 0.1 0.8 -0.2
v 0.2 2.5 -0.2
v 0.2 2.5 -0.1
v 0.1 2.5 -0.1
v 0.1 2.5 -0.2
v 0.2 2.9 -0.2
v 0.1 2.9 -0.1
v 0.2 3.1 -0.1
v 0.1 3.1 -0.1
v 0.2 3.3 -0.2
v 0.2 3.5 -0.2
v 0 0 -0.2
v 0 0 0.1
v -0.1 0 0.1
v -0.1 0 -0.2
v 0 0.9 -0.2
v 0 0.9 -0.1
v -0.1 0.9 -0.2
v 0 2.1 -0.2
v 0 2.1 -0.1
v -0.1 2.1 -0.1
v -0.1 2.1 -0.2
v 0 3 -0.2
v 0 3 -0.1
v -0.1 3 -0.1
v -0.1 3 -0.2
v -0.1 3.5 -0.2
v -0.2 2.8 -0.2
v -0.2 3.1 -0.2
v -0.3 2.5 -0.2
v -0.4 2.5 -0.2
v -0.3 2.8 -0.2
v -0.4 2.8 -0.1
v -0.4 2.8 -0.2
v 0.5 2.5 -0.3
v 0.5 2.5 -0.2
v 0.4 2.5 -0.3
v 0.2 0.9 -0.3
v 0.2 0.9 -0.2
v 0.1 0.9 -0.2
v 0.1 0.9 -0.3
v 0.2 1.9 -0.3
v 0.1 1.9 -0.1
v 0.1 1.9 -0.3
v 0.3 2.5 -0.3
v 0.1 2.5 -0.3
v 0.2 3 -0.3
v 0.1 3 -0.3
v 0.1 0 -0.3
v 0.1 0 0.2
v 0 0 0.2
v 0 0 -0.3
v 0.1 1.6 -0.3
v 0.1 1.6 -0.2
v 0 1.6 -0.2
v 0 1.6 -0.3
v 0 2.5 -0.2
v 0 2.5 -0.3
v 0.1 2.7 -0.2
v 0 2.7 -0.2
v 0 3.1 -0.3
v 0.1 3.4 -0.3
v 0 3.4 -0.3
v 0 1.4 -0.3
v 0 1.4 -0.2
v -0.1 1.4 -0.2
v -0.1 1.4 -0.3
v 0 2.8 -0.3
v -0.1 2.8 -0.3
v -0.1 3.2 -0.3
v -0.2 2.5 -0.3
v -0.2 2.5 -0.2
v -0.3 2.5 -0.3
v 0.2 2.8 -0.4
v 0.2 2.8 -0.3
v 0.1 2.8 -0.3
v 0.1 2.8 -0.4
v 0.1 1.1 -0.4
v 0.1 1.1 -0.2
v 0 1.1 -0.2
v 0 1.1 -0.4
v 0.1 2.4 -0.4
v 0.1 2.4 -0.3
v 0 2.4 -0.3
v 0 2.4 -0.4
v 0 2.8 -0.4
v 0.1 3.1 -0.4
v 0 3.1 -0.4
v 0 2.5 -0.4
v -0.1 2.5 -0.3
v -0.1 2.5 -0.4
v 0.3 2.5 -0.5
v 0.3 2.5 -0.4
v 0.1 2.5 -0.4
v 0.1 2.5 -0.5
v 0 2.5 -0.5
v 0.1 2.8 -0.5
v 0 2.8 -0.5
v -0.1 2.5 -0.5
v -0.2 2.5 -0.4
v -0.2 2.5 -0.5
v 0.1 2.5 -0.7
v 0 2.5 -0.7
v -0.1 1.2 -0.1
v 0.1 1.9 -0.2
v 0 2.6 0.1
v -0.1 2.8 0.1
v -0.1 2.8 0
v 0 3.8 0
v 0 3.8 -0.1
v 0.2 1.9 -0.2
v 0.1 3.8 0
v 0.1 3.8 -0.1
v 0.2 2.6 -0.1
v 0.2 0.7 -0.1
v 0.1 1.5 -0.1
v 0.2 1.2 -0.1
v 0.1 1.6 -0.1
v 0.1 1.8 -0.1
v 0.1 2.2 -0.1
v 0.2 2.7 -0.2
v 0 0.6 -0.2
v 0 0.7 -0.2
v 0 0.8 -0.2
v 0.1 1.4 -0.2
v 0 2 -0.2
v -0.1 1 -0.2
v -0.1 1.1 -0.2
v -0.1 1.2 -0.2
v -0.1 1.7 -0.2
v -0.1 2.5 -0.2
v -0.1 2.6 -0.2
v -0.1 2.7 -0.2
v 0.2 2.6 -0.2
v -0.1 1.3 0
v -0.1 2.5 -0.1
v 0.2 1.4 0.1
v 0.2 2 0.1
v 0.1 0.6 0.1
v 0 0.9 0.1
v 0 1.8 0.1
v -0.1 0.5 0.1
v -0.1 2.7 0.1

vt 0.00585938 0.5
vt 0.0996094 0.5

vn 0 1 0
vn 0 -1 0
vn -1 0 0
vn 1 0 0
vn 0 0 -1
vn 0 0 1

usemtl palette
f 1/2/1 2/2/1 4/2/1
f 4/2/1 2/2/1 3/2/1
f 5/2/1 6/2/1 7/2/1
f 7/2/1 6/2/1 1/2/1
f 8/2/1 9/2/1 11/2/1
f 11/2/1 9/2/1 10/2/1
f 12/2/1 13/2/1 15/2/1
f 15/2/1 13/2/1 14/2/1
f 16/2/1 17/2/1 18/2/1
f 18/2/1 17/2/1 5/2/1
f 19/2/1 20/2/1 22/2/1
f 22/2/1 20/2/1 21/2/1
f 23/2/1 24/2/1 26/2/1
f 26/2/1 24/2/1 25/2/1
f 27/1/1 28/1/1 6/1/1
f 6/1/1 28/1/1 29/1/1
f 30/1/1 31/1/1 12/1/1
f 12/1/1 31/1/1 13/1/1
f 32/2/1 33/2/1 35/2/1
f 35/2/1 33/2/1 34/2/1
f 31/2/1 36/2/1 13/2/1
f 13/2/1 36/2/1 37/2/1
f 28/2/1 38/2/1 29/2/1
f 29/2/1 38/2/1 39/2/1
f 40/2/1 41/2/1 42/2/1
f 42/2/1 41/2/1 19/2/1
f 43/2/1 44/2/1 46/2/1
f 46/2/1 44/2/1 45/2/1
f 47/1/1 48/1/1 50/1/1
f 50/1/1 48/1/1 49/1/1
f 51/2/1 52/2/1 17/2/1
f 17/2/1 52/2/1 27/2/1
f 53/2/1 54/2/1 20/2/1
f 20/2/1 54/2/1 30/2/1
f 55/1/1 56/1/1 58/1/1
f 58/1/1 56/1/1 57/1/1
f 59/1/1 60/1/1 62/1/1
f 62/1/1 60/1/1 61/1/1
f 63/1/1 64/1/1 66/1/1
f 66/1/1 64/1/1 65/1/1
f 67/1/1 68/1/1 70/1/1
f 70/1/1 68/1/1 69/1/1
f 71/2/1 72/2/1 74/2/1
f 74/2/1 72/2/1 73/2/1
f 75/2/1 76/2/1 24/2/1
f 24/2/1 76/2/1 77/2/1
f 78/1/1 79/1/1 32/1/1
f 32/1/1 79/1/1 33/1/1
f 80/2/1 81/2/1 83/2/1
f 83/2/1 81/2/1 82/2/1
f 84/1/1 85/1/1 87/1/1
f 87/1/1 85/1/1 86/1/1
f 79/2/1 88/2/1 33/2/1
f 33/2/1 88/2/1 89/2/1
f 90/2/1 91/2/1 93/2/1
f 93/2/1 91/2/1 92/2/1
f 94/1/1 95/1/1 97/1/1
f 97/1/1 95/1/1 96/1/1
f 98/2/1 99/2/1 100/2/1
f 100/2/1 99/2/1 51/2/1
f 101/2/1 102/2/1 41/2/1
f 41/2/1 102/2/1 53/2/1
f 103/1/1 104/1/1 106/1/1
f 106/1/1 104/1/1 105/1/1
f 107/2/1 108/2/1 44/2/1
f 44/2/1 108/2/1 78/2/1
f 109/2/1 110/2/1 112/2/1
f 112/2/1 110/2/1 111/2/1
f 113/2/1 114/2/1 116/2/1
f 116/2/1 114/2/1 115/2/1
f 117/1/1 118/1/1 120/1/1
f 120/1/1 118/1/1 119/1/1
f 121/1/1 122/1/1 80/1/1
f 80/1/1 122/1/1 81/1/1
f 123/2/1 124/2/1 126/2/1
f 126/2/1 124/2/1 125/2/1
f 127/1/1 128/1/1 130/1/1
f 130/1/1 128/1/1 129/1/1
f 131/2/1 132/2/1 134/2/1
f 134/2/1 132/2/1 133/2/1
f 135/2/1 136/2/1 138/2/1
f 138/2/1 136/2/1 137/2/1
f 139/2/1 140/2/1 142/2/1
f 142/2/1 140/2/1 141/2/1
f 143/1/1 144/1/1 146/1/1
f 146/1/1 144/1/1 145/1/1
f 147/2/1 148/2/1 150/2/1
f 150/2/1 148/2/1 149/2/1
f 151/2/1 152/2/1 154/2/1
f 154/2/1 152/2/1 153/2/1
f 155/2/1 156/2/1 158/2/1
f 158/2/1 156/2/1 157/2/1
f 159/2/1 160/2/1 162/2/1
f 162/2/1 160/2/1 161/2/1
f 163/2/1 164/2/1 166/2/1
f 166/2/1 164/2/1 165/2/1
f 167/2/1 168/2/1 169/2/1
f 169/2/1 168/2/1 90/2/1
f 170/2/1 171/2/1 173/2/1
f 173/2/1 171/2/1 172/2/1
f 174/2/1 175/2/1 177/2/1
f 177/2/1 175/2/1 176/2/1
f 178/1/1 179/1/1 91/1/1
f 91/1/1 179/1/1 98/1/1
f 180/2/1 181/2/1 183/2/1
f 183/2/1 181/2/1 182/2/1
f 184/2/1 185/2/1 187/2/1
f 187/2/1 185/2/1 186/2/1
f 188/1/1 189/1/1 191/1/1
f 191/1/1 189/1/1 190/1/1
f 192/1/1 193/1/1 195/1/1
f 195/1/1 193/1/1 194/1/1
f 196/1/1 197/1/1 199/1/1
f 199/1/1 197/1/1 198/1/1
f 200/1/1 201/1/1 203/1/1
f 203/1/1 201/1/1 202/1/1
f 204/1/1 205/1/1 101/1/1
f 101/1/1 205/1/1 102/1/1
f 185/1/1 206/1/1 186/1/1
f 186/1/1 206/1/1 107/1/1
f 207/2/1 208/2/1 210/2/1
f 210/2/1 208/2/1 209/2/1
f 211/1/1 212/1/1 213/1/1
f 213/1/1 212/1/1 117/1/1
f 208/1/1 214/1/1 209/1/1
f 209/1/1 214/1/1 121/1/1
f 215/2/1 216/2/1 217/2/1
f 217/2/1 216/2/1 123/2/1
f 218/2/1 219/2/1 221/2/1
f 221/2/1 219/2/1 220/2/1
f 222/1/1 223/1/1 118/1/1
f 118/1/1 223/1/1 155/1/1
f 224/1/1 225/1/1 122/1/1
f 122/1/1 225/1/1 226/1/1
f 227/2/1 228/2/1 124/2/1
f 124/2/1 228/2/1 229/2/1
f 230/1/1 231/1/1 233/1/1
f 233/1/1 231/1/1 232/1/1
f 234/1/1 235/1/1 237/1/1
f 237/1/1 235/1/1 236/1/1
f 238/1/1 239/1/1 241/1/1
f 241/1/1 239/1/1 240/1/1
f 242/1/1 243/1/1 147/1/1
f 147/1/1 243/1/1 148/1/1
f 244/1/1 245/1/1 132/1/1
f 132/1/1 245/1/1 246/1/1
f 247/1/1 248/1/1 250/1/1
f 250/1/1 248/1/1 249/1/1
f 225/2/1 251/2/1 226/2/1
f 226/2/1 251/2/1 252/2/1
f 253/1/1 254/1/1 256/1/1
f 256/1/1 254/1/1 255/1/1
f 257/2/1 258/2/1 260/2/1
f 260/2/1 258/2/1 259/2/1
f 261/2/1 262/2/1 264/2/1
f 264/2/1 262/2/1 263/2/1
f 248/2/1 265/2/1 249/2/1
f 249/2/1 265/2/1 266/2/1
f 267/1/1 268/1/1 159/1/1
f 159/1/1 268/1/1 160/1/1
f 268/2/1 269/2/1 160/2/1
f 160/2/1 269/2/1 270/2/1
f 271/2/1 272/2/1 178/2/1
f 178/2/1 272/2/1 179/2/1
f 273/2/1 274/2/1 175/2/1
f 175/2/1 274/2/1 204/2/1
f 275/1/1 276/1/1 278/1/1
f 278/1/1 276/1/1 277/1/1
f 279/1/1 280/1/1 282/1/1
f 282/1/1 280/1/1 281/1/1
f 283/1/1 284/1/1 286/1/1
f 286/1/1 284/1/1 285/1/1
f 287/1/1 288/1/1 290/1/1
f 290/1/1 288/1/1 289/1/1
f 291/1/1 292/1/1 294/1/1
f 294/1/1 292/1/1 293/1/1
f 295/2/1 296/2/1 298/2/1
f 298/2/1 296/2/1 297/2/1
f 299/2/1 300/2/1 206/2/1
f 206/2/1 300/2/1 301/2/1
f 302/2/1 303/2/1 305/2/1
f 305/2/1 303/2/1 304/2/1
f 306/2/1 307/2/1 309/2/1
f 309/2/1 307/2/1 308/2/1
f 310/1/1 311/1/1 212/1/1
f 212/1/1 311/1/1 222/1/1
f 312/1/1 313/1/1 214/1/1
f 214/1/1 313/1/1 224/1/1
f 314/2/1 315/2/1 216/2/1
f 216/2/1 315/2/1 227/2/1
f 316/1/1 317/1/1 318/1/1
f 318/1/1 317/1/1 230/1/1
f 319/1/1 320/1/1 322/1/1
f 322/1/1 320/1/1 321/1/1
f 323/1/1 324/1/1 326/1/1
f 326/1/1 324/1/1 325/1/1
f 327/2/1 328/2/1 330/2/1
f 330/2/1 328/2/1 329/2/1
f 331/2/1 332/2/1 334/2/1
f 334/2/1 332/2/1 333/2/1
f 335/2/1 336/2/1 338/2/1
f 338/2/1 336/2/1 337/2/1
f 339/2/1 340/2/1 244/2/1
f 244/2/1 340/2/1 245/2/1
f 341/2/1 342/2/1 247/2/1
f 247/2/1 342/2/1 248/2/1
f 343/2/1 344/2/1 267/2/1
f 267/2/1 344/2/1 268/2/1
f 345/2/1 346/2/1 348/2/1
f 348/2/1 346/2/1 347/2/1
f 349/2/1 350/2/1 351/2/1
f 351/2/1 350/2/1 271/2/1
f 352/1/1 353/1/1 355/1/1
f 355/1/1 353/1/1 354/1/1
f 356/1/1 357/1/1 359/1/1
f 359/1/1 357/1/1 358/1/1
f 360/2/1 361/2/1 272/2/1
f 272/2/1 361/2/1 362/2/1
f 363/2/1 364/2/1 366/2/1
f 366/2/1 364/2/1 365/2/1
f 367/1/1 368/1/1 369/1/1
f 369/1/1 368/1/1 316/1/1
f 370/1/1 371/1/1 373/1/1
f 373/1/1 371/1/1 372/1/1
f 361/1/1 374/1/1 362/1/1
f 362/1/1 374/1/1 375/1/1
f 376/1/1 377/1/1 300/1/1
f 300/1/1 377/1/1 378/1/1
f 379/2/1 380/2/1 312/2/1
f 312/2/1 380/2/1 313/2/1
f 381/1/1 382/1/1 384/1/1
f 384/1/1 382/1/1 383/1/1
f 385/2/1 386/2/1 387/2/1
f 387/2/1 386/2/1 339/2/1
f 388/2/1 389/2/1 311/2/1
f 311/2/1 389/2/1 390/2/1
f 391/2/1 392/2/1 393/2/1
f 393/2/1 392/2/1 343/2/1
f 394/2/1 395/2/1 397/2/1
f 397/2/1 395/2/1 396/2/1
f 398/1/1 399/1/1 284/1/1
f 284/1/1 399/1/1 400/1/1
f 401/2/1 402/2/1 404/2/1
f 404/2/1 402/2/1 403/2/1
f 395/1/1 405/1/1 406/1/1
f 406/1/1 405/1/1 387/1/1
f 407/2/1 408/2/1 376/2/1
f 376/2/1 408/2/1 377/2/1
f 409/2/1 410/2/1 374/2/1
f 374/2/1 410/2/1 411/2/1
f 412/2/1 413/2/1 415/2/1
f 415/2/1 413/2/1 414/2/1
f 413/1/1 416/1/1 414/1/1
f 414/1/1 416/1/1 409/1/1
f 417/2/1 418/2/1 395/2/1
f 395/2/1 418/2/1 405/2/1
f 419/2/1 420/2/1 410/2/1
f 410/2/1 420/2/1 421/2/1
f 422/2/1 423/2/1 413/2/1
f 413/2/1 423/2/1 416/2/1
f 424/2/2 425/2/2 427/2/2
f 427/2/2 425/2/2 426/2/2
f 428/2/2 429/2/2 430/2/2
f 430/2/2 429/2/2 424/2/2
f 430/1/2 424/1/2 431/1/2
f 431/1/2 424/1/2 427/1/2
f 432/2/2 433/2/2 435/2/2
f 435/2/2 433/2/2 434/2/2
f 436/2/2 437/2/2 438/2/2
f 438/2/2 437/2/2 428/2/2
f 439/2/2 440/2/2 442/2/2
f 442/2/2 440/2/2 441/2/2
f 20/2/2 21/2/2 30/2/2
f 30/2/2 21/2/2 12/2/2
f 443/2/2 444/2/2 446/2/2
f 446/2/2 444/2/2 445/2/2
f 447/2/2 448/2/2 450/2/2
f 450/2/2 448/2/2 449/2/2
f 451/2/2 435/2/2 453/2/2
f 453/2/2 435/2/2 452/2/2
f 454/2/2 431/2/2 456/2/2
f 456/2/2 431/2/2 455/2/2
f 457/2/2 458/2/2 459/2/2
f 459/2/2 458/2/2 439/2/2
f 460/2/2 461/2/2 463/2/2
f 463/2/2 461/2/2 462/2/2
f 464/1/2 465/1/2 467/1/2
f 467/1/2 465/1/2 466/1/2
f 468/2/2 438/2/2 470/2/2
f 470/2/2 438/2/2 469/2/2
f 106/2/2 442/2/2 105/2/2
f 105/2/2 442/2/2 471/2/2
f 472/1/2 473/1/2 475/1/2
f 475/1/2 473/1/2 474/1/2
f 476/1/2 477/1/2 479/1/2
f 479/1/2 477/1/2 478/1/2
f 480/1/2 481/1/2 483/1/2
f 483/1/2 481/1/2 482/1/2
f 470/1/2 469/1/2 484/1/2
f 484/1/2 469/1/2 454/1/2
f 105/1/2 432/1/2 485/1/2
f 485/1/2 432/1/2 435/1/2
f 486/1/2 447/1/2 487/1/2
f 487/1/2 447/1/2 450/1/2
f 111/2/2 488/2/2 138/2/2
f 138/2/2 488/2/2 489/2/2
f 490/1/2 491/1/2 493/1/2
f 493/1/2 491/1/2 492/1/2
f 487/2/2 450/2/2 154/2/2
f 154/2/2 450/2/2 494/2/2
f 495/2/2 496/2/2 498/2/2
f 498/2/2 496/2/2 497/2/2
f 499/1/2 500/1/2 502/1/2
f 502/1/2 500/1/2 501/1/2
f 503/2/2 504/2/2 505/2/2
f 505/2/2 504/2/2 468/2/2
f 506/2/2 459/2/2 103/2/2
f 103/2/2 459/2/2 106/2/2
f 507/2/2 463/2/2 508/2/2
f 508/2/2 463/2/2 486/2/2
f 213/2/2 509/2/2 117/2/2
f 117/2/2 509/2/2 120/2/2
f 209/2/2 510/2/2 121/2/2
f 121/2/2 510/2/2 80/2/2
f 110/1/2 111/1/2 135/1/2
f 135/1/2 111/1/2 138/1/2
f 114/2/2 115/2/2 139/2/2
f 139/2/2 115/2/2 142/2/2
f 511/1/2 512/1/2 237/1/2
f 237/1/2 512/1/2 513/1/2
f 514/1/2 515/1/2 517/1/2
f 517/1/2 515/1/2 516/1/2
f 118/2/2 119/2/2 155/2/2
f 155/2/2 119/2/2 158/2/2
f 122/2/2 81/2/2 226/2/2
f 226/2/2 81/2/2 518/2/2
f 519/1/2 85/1/2 521/1/2
f 521/1/2 85/1/2 520/1/2
f 522/2/2 523/2/2 525/2/2
f 525/2/2 523/2/2 524/2/2
f 526/2/2 527/2/2 264/2/2
f 264/2/2 527/2/2 528/2/2
f 250/2/2 88/2/2 249/2/2
f 249/2/2 88/2/2 529/2/2
f 530/2/2 531/2/2 533/2/2
f 533/2/2 531/2/2 532/2/2
f 534/2/2 535/2/2 537/2/2
f 537/2/2 535/2/2 536/2/2
f 538/2/2 539/2/2 540/2/2
f 540/2/2 539/2/2 495/2/2
f 541/2/2 542/2/2 544/2/2
f 544/2/2 542/2/2 543/2/2
f 545/2/2 546/2/2 548/2/2
f 548/2/2 546/2/2 547/2/2
f 549/1/2 498/1/2 550/1/2
f 550/1/2 498/1/2 503/1/2
f 548/1/2 547/1/2 551/1/2
f 551/1/2 547/1/2 506/1/2
f 552/2/2 553/2/2 555/2/2
f 555/2/2 553/2/2 554/2/2
f 556/1/2 557/1/2 559/1/2
f 559/1/2 557/1/2 558/1/2
f 560/1/2 561/1/2 563/1/2
f 563/1/2 561/1/2 562/1/2
f 564/1/2 565/1/2 567/1/2
f 567/1/2 565/1/2 566/1/2
f 568/1/2 569/1/2 290/1/2
f 290/1/2 569/1/2 570/1/2
f 571/2/2 572/2/2 574/2/2
f 574/2/2 572/2/2 573/2/2
f 181/2/2 182/2/2 298/2/2
f 298/2/2 182/2/2 575/2/2
f 576/2/2 577/2/2 305/2/2
f 305/2/2 577/2/2 109/2/2
f 305/1/2 109/1/2 304/1/2
f 304/1/2 109/1/2 110/1/2
f 309/2/2 113/2/2 308/2/2
f 308/2/2 113/2/2 114/2/2
f 334/1/2 135/1/2 333/1/2
f 333/1/2 135/1/2 136/1/2
f 338/2/2 139/2/2 337/2/2
f 337/2/2 139/2/2 140/2/2
f 578/1/2 579/1/2 581/1/2
f 581/1/2 579/1/2 580/1/2
f 582/1/2 583/1/2 585/1/2
f 585/1/2 583/1/2 584/1/2
f 586/1/2 587/1/2 589/1/2
f 589/1/2 587/1/2 588/1/2
f 590/2/2 517/2/2 592/2/2
f 592/2/2 517/2/2 591/2/2
f 593/2/2 594/2/2 257/2/2
f 257/2/2 594/2/2 260/2/2
f 329/1/2 151/1/2 595/1/2
f 595/1/2 151/1/2 152/1/2
f 333/2/2 136/2/2 597/2/2
f 597/2/2 136/2/2 596/2/2
f 598/1/2 599/1/2 601/1/2
f 601/1/2 599/1/2 600/1/2
f 602/1/2 525/1/2 603/1/2
f 603/1/2 525/1/2 530/1/2
f 604/1/2 605/1/2 606/1/2
f 606/1/2 605/1/2 534/1/2
f 595/2/2 152/2/2 608/2/2
f 608/2/2 152/2/2 607/2/2
f 609/2/2 610/2/2 612/2/2
f 612/2/2 610/2/2 611/2/2
f 613/2/2 533/2/2 615/2/2
f 615/2/2 533/2/2 614/2/2
f 616/2/2 549/2/2 617/2/2
f 617/2/2 549/2/2 550/2/2
f 618/2/2 548/2/2 619/2/2
f 619/2/2 548/2/2 551/2/2
f 620/1/2 621/1/2 623/1/2
f 623/1/2 621/1/2 622/1/2
f 624/1/2 625/1/2 627/1/2
f 627/1/2 625/1/2 626/1/2
f 628/1/2 629/1/2 631/1/2
f 631/1/2 629/1/2 630/1/2
f 632/1/2 189/1/2 369/1/2
f 369/1/2 189/1/2 633/1/2
f 634/1/2 635/1/2 637/1/2
f 637/1/2 635/1/2 636/1/2
f 638/1/2 639/1/2 641/1/2
f 641/1/2 639/1/2 640/1/2
f 642/2/2 205/2/2 406/2/2
f 406/2/2 205/2/2 643/2/2
f 366/2/2 644/2/2 365/2/2
f 365/2/2 644/2/2 645/2/2
f 646/2/2 211/2/2 310/2/2
f 310/2/2 211/2/2 212/2/2
f 647/2/2 208/2/2 312/2/2
f 312/2/2 208/2/2 214/2/2
f 303/1/2 304/1/2 331/1/2
f 331/1/2 304/1/2 334/1/2
f 307/2/2 308/2/2 335/2/2
f 335/2/2 308/2/2 338/2/2
f 648/1/2 649/1/2 651/1/2
f 651/1/2 649/1/2 650/1/2
f 652/1/2 653/1/2 654/1/2
f 654/1/2 653/1/2 582/1/2
f 655/1/2 656/1/2 658/1/2
f 658/1/2 656/1/2 657/1/2
f 659/2/2 660/2/2 662/2/2
f 662/2/2 660/2/2 661/2/2
f 311/2/2 222/2/2 390/2/2
f 390/2/2 222/2/2 223/2/2
f 313/2/2 224/2/2 663/2/2
f 663/2/2 224/2/2 225/2/2
f 324/2/2 325/2/2 664/2/2
f 664/2/2 325/2/2 604/2/2
f 328/2/2 329/2/2 665/2/2
f 665/2/2 329/2/2 595/2/2
f 666/2/2 603/2/2 667/2/2
f 667/2/2 603/2/2 613/2/2
f 668/2/2 606/2/2 670/2/2
f 670/2/2 606/2/2 669/2/2
f 671/2/2 672/2/2 673/2/2
f 673/2/2 672/2/2 616/2/2
f 674/1/2 675/1/2 677/1/2
f 677/1/2 675/1/2 676/1/2
f 678/1/2 197/1/2 680/1/2
f 680/1/2 197/1/2 679/1/2
f 681/2/2 617/2/2 682/2/2
f 682/2/2 617/2/2 641/2/2
f 683/2/2 295/2/2 684/2/2
f 684/2/2 295/2/2 296/2/2
f 685/1/2 686/1/2 688/1/2
f 688/1/2 686/1/2 687/1/2
f 689/1/2 690/1/2 692/1/2
f 692/1/2 690/1/2 691/1/2
f 682/1/2 641/1/2 694/1/2
f 694/1/2 641/1/2 693/1/2
f 404/2/2 695/2/2 403/2/2
f 403/2/2 695/2/2 696/2/2
f 364/1/2 365/1/2 697/1/2
f 697/1/2 365/1/2 327/1/2
f 698/2/2 303/2/2 699/2/2
f 699/2/2 303/2/2 331/2/2
f 700/1/2 701/1/2 703/1/2
f 703/1/2 701/1/2 702/1/2
f 704/2/2 323/2/2 705/2/2
f 705/2/2 323/2/2 324/2/2
f 377/2/2 378/2/2 706/2/2
f 706/2/2 378/2/2 341/2/2
f 707/2/2 708/2/2 709/2/2
f 709/2/2 708/2/2 666/2/2
f 710/2/2 711/2/2 713/2/2
f 713/2/2 711/2/2 712/2/2
f 714/1/2 715/1/2 717/1/2
f 717/1/2 715/1/2 716/1/2
f 718/2/2 719/2/2 721/2/2
f 721/2/2 719/2/2 720/2/2
f 713/1/2 712/1/2 722/1/2
f 722/1/2 712/1/2 704/1/2
f 723/2/2 364/2/2 724/2/2
f 724/2/2 364/2/2 697/2/2
f 725/2/2 694/2/2 727/2/2
f 727/2/2 694/2/2 726/2/2
f 728/2/2 729/2/2 731/2/2
f 731/2/2 729/2/2 730/2/2
f 731/1/2 730/1/2 732/1/2
f 732/1/2 730/1/2 725/1/2
f 733/2/2 713/2/2 734/2/2
f 734/2/2 713/2/2 722/2/2
f 735/2/2 727/2/2 737/2/2
f 737/2/2 727/2/2 736/2/2
f 738/2/2 731/2/2 739/2/2
f 739/2/2 731/2/2 732/2/2
f 57/1/3 56/1/3 687/1/3
f 687/1/3 56/1/3 649/1/3
f 232/1/3 231/1/3 580/1/3
f 580/1/3 231/1/3 581/1/3
f 230/1/3 317/1/3 578/1/3
f 578/1/3 317/1/3 651/1/3
f 316/1/3 368/1/3 648/1/3
f 648/1/3 368/1/3 688/1/3
f 129/1/3 128/1/3 650/1/3
f 650/1/3 128/1/3 579/1/3
f 61/1/3 60/1/3 474/1/3
f 474/1/3 60/1/3 475/1/3
f 583/1/3 582/1/3 233/1/3
f 233/1/3 582/1/3 230/1/3
f 653/1/3 652/1/3 318/1/3
f 318/1/3 652/1/3 316/1/3
f 512/1/3 511/1/3 130/1/3
f 130/1/3 511/1/3 127/1/3
f 236/1/3 235/1/3 584/1/3
f 584/1/3 235/1/3 585/1/3
f 354/1/3 353/1/3 676/1/3
f 676/1/3 353/1/3 677/1/3
f 86/1/3 85/1/3 492/1/3
f 492/1/3 85/1/3 493/1/3
f 85/1/3 740/1/3 513/1/3
f 513/1/3 740/1/3 234/1/3
f 400/1/3 399/1/3 716/1/3
f 716/1/3 399/1/3 717/1/3
f 145/1/3 144/1/3 520/1/3
f 520/1/3 144/1/3 521/1/3
f 587/1/3 586/1/3 519/1/3
f 519/1/3 586/1/3 740/1/3
f 65/1/3 64/1/3 478/1/3
f 478/1/3 64/1/3 479/1/3
f 240/1/3 239/1/3 588/1/3
f 588/1/3 239/1/3 589/1/3
f 383/1/3 382/1/3 702/1/3
f 702/1/3 382/1/3 703/1/3
f 599/1/3 598/1/3 241/1/3
f 241/1/3 598/1/3 238/1/3
f 372/1/3 371/1/3 691/1/3
f 691/1/3 371/1/3 692/1/3
f 49/1/3 48/1/3 466/1/3
f 466/1/3 48/1/3 467/1/3
f 255/1/3 254/1/3 600/1/3
f 600/1/3 254/1/3 601/1/3
f 321/1/3 320/1/3 582/1/3
f 582/1/3 320/1/3 654/1/3
f 358/1/3 357/1/3 741/1/3
f 741/1/3 357/1/3 680/1/3
f 69/1/3 68/1/3 482/1/3
f 482/1/3 68/1/3 483/1/3
f 656/1/3 655/1/3 322/1/3
f 322/1/3 655/1/3 319/1/3
f 515/1/3 514/1/3 146/1/3
f 146/1/3 514/1/3 143/1/3
f 517/1/3 590/1/3 256/1/3
f 256/1/3 590/1/3 253/1/3
f 431/2/3 454/2/3 445/2/3
f 445/2/3 454/2/3 446/2/3
f 523/1/3 522/1/3 516/1/3
f 516/1/3 522/1/3 517/1/3
f 498/2/3 549/2/3 543/2/3
f 543/2/3 549/2/3 544/2/3
f 525/2/3 602/2/3 591/2/3
f 591/2/3 602/2/3 592/2/3
f 533/2/3 613/2/3 611/2/3
f 611/2/3 613/2/3 612/2/3
f 694/2/3 725/2/3 720/2/3
f 720/2/3 725/2/3 721/2/3
f 3/2/3 2/2/3 426/2/3
f 426/2/3 2/2/3 427/2/3
f 2/1/3 29/1/3 427/1/3
f 427/1/3 29/1/3 431/1/3
f 5/2/3 17/2/3 428/2/3
f 428/2/3 17/2/3 438/2/3
f 39/2/3 38/2/3 455/2/3
f 455/2/3 38/2/3 456/2/3
f 28/1/3 742/1/3 454/1/3
f 454/1/3 742/1/3 484/1/3
f 92/2/3 91/2/3 497/2/3
f 497/2/3 91/2/3 498/2/3
f 149/2/3 148/2/3 524/2/3
f 524/2/3 148/2/3 525/2/3
f 161/2/3 160/2/3 532/2/3
f 532/2/3 160/2/3 533/2/3
f 270/2/3 269/2/3 614/2/3
f 614/2/3 269/2/3 615/2/3
f 179/2/3 272/2/3 550/2/3
f 550/2/3 272/2/3 617/2/3
f 268/2/3 344/2/3 613/2/3
f 613/2/3 344/2/3 667/2/3
f 271/2/3 350/2/3 616/2/3
f 616/2/3 350/2/3 673/2/3
f 375/1/3 374/1/3 693/1/3
f 693/1/3 374/1/3 694/1/3
f 343/2/3 392/2/3 666/2/3
f 666/2/3 392/2/3 709/2/3
f 411/2/3 410/2/3 726/2/3
f 726/2/3 410/2/3 727/2/3
f 409/1/3 416/1/3 725/1/3
f 725/1/3 416/1/3 732/1/3
f 421/2/3 420/2/3 736/2/3
f 736/2/3 420/2/3 737/2/3
f 416/2/3 423/2/3 732/2/3
f 732/2/3 423/2/3 739/2/3
f 10/2/3 9/2/3 2/2/3
f 2/2/3 9/2/3 29/2/3
f 73/2/3 72/2/3 28/2/3
f 28/2/3 72/2/3 742/2/3
f 172/2/3 171/2/3 91/2/3
f 91/2/3 171/2/3 178/2/3
f 594/1/3 593/1/3 147/1/3
f 147/1/3 593/1/3 242/1/3
f 259/2/3 258/2/3 159/2/3
f 159/2/3 258/2/3 267/2/3
f 403/2/3 402/2/3 374/2/3
f 374/2/3 402/2/3 409/2/3
f 743/1/3 744/1/3 150/1/3
f 150/1/3 744/1/3 147/1/3
f 605/2/3 604/2/3 260/2/3
f 260/2/3 604/2/3 257/2/3
f 325/1/3 324/1/3 657/1/3
f 657/1/3 324/1/3 658/1/3
f 323/2/3 704/2/3 696/2/3
f 696/2/3 704/2/3 403/2/3
f 14/2/3 13/2/3 434/2/3
f 434/2/3 13/2/3 435/2/3
f 21/2/3 20/2/3 441/2/3
f 441/2/3 20/2/3 442/2/3
f 37/2/3 36/2/3 452/2/3
f 452/2/3 36/2/3 453/2/3
f 19/2/3 41/2/3 439/2/3
f 439/2/3 41/2/3 459/2/3
f 31/1/3 134/1/3 451/1/3
f 451/1/3 134/1/3 485/1/3
f 53/2/3 102/2/3 106/2/3
f 106/2/3 102/2/3 103/2/3
f 133/2/3 132/2/3 743/2/3
f 743/2/3 132/2/3 744/2/3
f 165/2/3 164/2/3 536/2/3
f 536/2/3 164/2/3 537/2/3
f 163/1/3 348/1/3 534/1/3
f 534/1/3 348/1/3 606/1/3
f 204/2/3 274/2/3 551/2/3
f 551/2/3 274/2/3 619/2/3
f 245/2/3 340/2/3 604/2/3
f 604/2/3 340/2/3 664/2/3
f 347/2/3 346/2/3 669/2/3
f 669/2/3 346/2/3 670/2/3
f 339/2/3 386/2/3 324/2/3
f 324/2/3 386/2/3 705/2/3
f 385/1/3 405/1/3 704/1/3
f 704/1/3 405/1/3 722/1/3
f 405/2/3 418/2/3 722/2/3
f 722/2/3 418/2/3 734/2/3
f 25/2/3 24/2/3 12/2/3
f 12/2/3 24/2/3 30/2/3
f 77/2/3 76/2/3 31/2/3
f 31/2/3 76/2/3 134/2/3
f 182/2/3 181/2/3 101/2/3
f 101/2/3 181/2/3 204/2/3
f 263/2/3 262/2/3 163/2/3
f 163/2/3 262/2/3 348/2/3
f 660/1/3 659/1/3 326/1/3
f 326/1/3 659/1/3 323/1/3
f 153/2/3 152/2/3 528/2/3
f 528/2/3 152/2/3 264/2/3
f 151/1/3 329/1/3 132/1/3
f 132/1/3 329/1/3 244/1/3
f 329/2/3 328/2/3 661/2/3
f 661/2/3 328/2/3 662/2/3
f 365/2/3 364/2/3 296/2/3
f 296/2/3 364/2/3 684/2/3
f 34/2/3 33/2/3 449/2/3
f 449/2/3 33/2/3 450/2/3
f 45/2/3 44/2/3 462/2/3
f 462/2/3 44/2/3 463/2/3
f 89/2/3 88/2/3 494/2/3
f 494/2/3 88/2/3 154/2/3
f 266/2/3 265/2/3 607/2/3
f 607/2/3 265/2/3 608/2/3
f 248/2/3 342/2/3 595/2/3
f 595/2/3 342/2/3 665/2/3
f 378/1/3 377/1/3 327/1/3
f 327/1/3 377/1/3 697/1/3
f 377/2/3 408/2/3 697/2/3
f 697/2/3 408/2/3 724/2/3
f 119/1/3 118/1/3 134/1/3
f 134/1/3 118/1/3 131/1/3
f 157/2/3 156/2/3 529/2/3
f 529/2/3 156/2/3 249/2/3
f 155/1/3 223/1/3 250/1/3
f 250/1/3 223/1/3 247/1/3
f 222/1/3 311/1/3 330/1/3
f 330/1/3 311/1/3 327/1/3
f 390/2/3 389/2/3 341/2/3
f 341/2/3 389/2/3 706/2/3
f 111/2/3 110/2/3 120/2/3
f 120/2/3 110/2/3 117/2/3
f 137/2/3 136/2/3 158/2/3
f 158/2/3 136/2/3 155/2/3
f 135/1/3 334/1/3 118/1/3
f 118/1/3 334/1/3 222/1/3
f 304/2/3 303/2/3 212/2/3
f 212/2/3 303/2/3 310/2/3
f 333/2/3 332/2/3 223/2/3
f 223/2/3 332/2/3 390/2/3
f 82/2/3 81/2/3 489/2/3
f 489/2/3 81/2/3 138/2/3
f 81/1/3 122/1/3 138/1/3
f 138/1/3 122/1/3 135/1/3
f 252/2/3 251/2/3 596/2/3
f 596/2/3 251/2/3 597/2/3
f 224/1/3 313/1/3 334/1/3
f 334/1/3 313/1/3 331/1/3
f 313/2/3 380/2/3 331/2/3
f 331/2/3 380/2/3 699/2/3
f 115/2/3 114/2/3 80/2/3
f 80/2/3 114/2/3 121/2/3
f 141/2/3 140/2/3 518/2/3
f 518/2/3 140/2/3 226/2/3
f 139/1/3 338/1/3 122/1/3
f 122/1/3 338/1/3 224/1/3
f 308/2/3 307/2/3 214/2/3
f 214/2/3 307/2/3 312/2/3
f 337/2/3 336/2/3 225/2/3
f 225/2/3 336/2/3 663/2/3
f 125/2/3 124/2/3 142/2/3
f 142/2/3 124/2/3 139/2/3
f 229/2/3 228/2/3 140/2/3
f 140/2/3 228/2/3 337/2/3
f 227/2/3 315/2/3 338/2/3
f 338/2/3 315/2/3 335/2/3
f 745/1/3 746/1/3 124/1/3
f 124/1/3 746/1/3 227/1/3
f 220/2/3 219/2/3 745/2/3
f 745/2/3 219/2/3 746/2/3
f 278/1/4 559/1/4 275/1/4
f 275/1/4 559/1/4 628/1/4
f 58/1/4 686/1/4 55/1/4
f 55/1/4 686/1/4 630/1/4
f 191/1/4 557/1/4 188/1/4
f 188/1/4 557/1/4 556/1/4
f 633/1/4 277/1/4 369/1/4
f 369/1/4 277/1/4 276/1/4
f 369/1/4 631/1/4 367/1/4
f 367/1/4 631/1/4 685/1/4
f 622/1/4 189/1/4 623/1/4
f 623/1/4 189/1/4 632/1/4
f 282/1/4 621/1/4 279/1/4
f 279/1/4 621/1/4 620/1/4
f 62/1/4 473/1/4 59/1/4
f 59/1/4 473/1/4 472/1/4
f 501/1/4 629/1/4 502/1/4
f 502/1/4 629/1/4 558/1/4
f 636/1/4 281/1/4 637/1/4
f 637/1/4 281/1/4 280/1/4
f 97/1/4 500/1/4 94/1/4
f 94/1/4 500/1/4 499/1/4
f 355/1/4 675/1/4 352/1/4
f 352/1/4 675/1/4 674/1/4
f 626/1/4 635/1/4 627/1/4
f 627/1/4 635/1/4 634/1/4
f 87/1/4 491/1/4 84/1/4
f 84/1/4 491/1/4 490/1/4
f 286/1/4 625/1/4 283/1/4
f 283/1/4 625/1/4 624/1/4
f 284/1/4 715/1/4 398/1/4
f 398/1/4 715/1/4 714/1/4
f 66/1/4 477/1/4 63/1/4
f 63/1/4 477/1/4 476/1/4
f 562/1/4 190/1/4 563/1/4
f 563/1/4 190/1/4 189/1/4
f 384/1/4 701/1/4 381/1/4
f 381/1/4 701/1/4 700/1/4
f 195/1/4 561/1/4 192/1/4
f 192/1/4 561/1/4 560/1/4
f 373/1/4 690/1/4 370/1/4
f 370/1/4 690/1/4 689/1/4
f 50/1/4 465/1/4 47/1/4
f 47/1/4 465/1/4 464/1/4
f 566/1/4 194/1/4 567/1/4
f 567/1/4 194/1/4 193/1/4
f 199/1/4 565/1/4 196/1/4
f 196/1/4 565/1/4 564/1/4
f 679/1/4 285/1/4 741/1/4
f 741/1/4 285/1/4 284/1/4
f 359/1/4 747/1/4 356/1/4
f 356/1/4 747/1/4 678/1/4
f 70/1/4 481/1/4 67/1/4
f 67/1/4 481/1/4 480/1/4
f 570/1/4 198/1/4 287/1/4
f 287/1/4 198/1/4 747/1/4
f 203/1/4 569/1/4 200/1/4
f 200/1/4 569/1/4 568/1/4
f 573/1/4 202/1/4 574/1/4
f 574/1/4 202/1/4 201/1/4
f 430/2/4 444/2/4 469/2/4
f 469/2/4 444/2/4 443/2/4
f 468/1/4 96/1/4 505/1/4
f 505/1/4 96/1/4 95/1/4
f 495/2/4 542/2/4 540/2/4
f 540/2/4 542/2/4 541/2/4
f 503/2/4 572/2/4 550/2/4
f 550/2/4 572/2/4 571/2/4
f 530/2/4 610/2/4 603/2/4
f 603/2/4 610/2/4 609/2/4
f 640/1/4 289/1/4 641/1/4
f 641/1/4 289/1/4 288/1/4
f 682/2/4 719/2/4 730/2/4
f 730/2/4 719/2/4 718/2/4
f 4/2/4 425/2/4 1/2/4
f 1/2/4 425/2/4 424/2/4
f 7/2/4 429/2/4 5/2/4
f 5/2/4 429/2/4 428/2/4
f 18/2/4 437/2/4 16/2/4
f 16/2/4 437/2/4 436/2/4
f 6/1/4 430/1/4 27/1/4
f 27/1/4 430/1/4 469/1/4
f 17/2/4 438/2/4 51/2/4
f 51/2/4 438/2/4 468/2/4
f 93/2/4 496/2/4 90/2/4
f 90/2/4 496/2/4 495/2/4
f 100/2/4 504/2/4 98/2/4
f 98/2/4 504/2/4 503/2/4
f 162/2/4 531/2/4 159/2/4
f 159/2/4 531/2/4 530/2/4
f 169/2/4 539/2/4 167/2/4
f 167/2/4 539/2/4 538/2/4
f 178/2/4 549/2/4 271/2/4
f 271/2/4 549/2/4 616/2/4
f 267/2/4 603/2/4 343/2/4
f 343/2/4 603/2/4 666/2/4
f 351/2/4 672/2/4 349/2/4
f 349/2/4 672/2/4 671/2/4
f 272/2/4 617/2/4 360/2/4
f 360/2/4 617/2/4 681/2/4
f 393/2/4 708/2/4 391/2/4
f 391/2/4 708/2/4 707/2/4
f 361/1/4 682/1/4 414/1/4
f 414/1/4 682/1/4 730/1/4
f 415/2/4 729/2/4 412/2/4
f 412/2/4 729/2/4 728/2/4
f 410/2/4 727/2/4 419/2/4
f 419/2/4 727/2/4 735/2/4
f 413/2/4 731/2/4 422/2/4
f 422/2/4 731/2/4 738/2/4
f 11/2/4 1/2/4 8/2/4
f 8/2/4 1/2/4 6/2/4
f 74/2/4 27/2/4 71/2/4
f 71/2/4 27/2/4 52/2/4
f 173/2/4 90/2/4 170/2/4
f 170/2/4 90/2/4 168/2/4
f 260/2/4 148/2/4 257/2/4
f 257/2/4 148/2/4 243/2/4
f 404/2/4 361/2/4 401/2/4
f 401/2/4 361/2/4 414/2/4
f 106/1/4 51/1/4 103/1/4
f 103/1/4 51/1/4 99/1/4
f 506/2/4 98/2/4 551/2/4
f 551/2/4 98/2/4 179/2/4
f 294/1/4 639/1/4 291/1/4
f 291/1/4 639/1/4 638/1/4
f 292/2/4 695/2/4 712/2/4
f 712/2/4 695/2/4 404/2/4
f 15/2/4 433/2/4 12/2/4
f 12/2/4 433/2/4 432/2/4
f 22/2/4 440/2/4 19/2/4
f 19/2/4 440/2/4 439/2/4
f 12/1/4 432/1/4 30/1/4
f 30/1/4 432/1/4 471/1/4
f 42/2/4 458/2/4 40/2/4
f 40/2/4 458/2/4 457/2/4
f 20/2/4 442/2/4 53/2/4
f 53/2/4 442/2/4 106/2/4
f 41/2/4 459/2/4 101/2/4
f 101/2/4 459/2/4 506/2/4
f 166/2/4 535/2/4 163/2/4
f 163/2/4 535/2/4 534/2/4
f 177/2/4 546/2/4 174/2/4
f 174/2/4 546/2/4 545/2/4
f 175/2/4 548/2/4 273/2/4
f 273/2/4 548/2/4 618/2/4
f 244/2/4 325/2/4 339/2/4
f 339/2/4 325/2/4 324/2/4
f 348/2/4 606/2/4 345/2/4
f 345/2/4 606/2/4 668/2/4
f 643/1/4 293/1/4 396/1/4
f 396/1/4 293/1/4 712/1/4
f 397/2/4 711/2/4 394/2/4
f 394/2/4 711/2/4 710/2/4
f 395/2/4 713/2/4 417/2/4
f 417/2/4 713/2/4 733/2/4
f 26/2/4 21/2/4 23/2/4
f 23/2/4 21/2/4 20/2/4
f 24/2/4 30/2/4 75/2/4
f 75/2/4 30/2/4 54/2/4
f 183/2/4 176/2/4 180/2/4
f 180/2/4 176/2/4 175/2/4
f 575/1/4 102/1/4 298/1/4
f 298/1/4 102/1/4 205/1/4
f 264/2/4 246/2/4 261/2/4
f 261/2/4 246/2/4 245/2/4
f 298/2/4 205/2/4 295/2/4
f 295/2/4 205/2/4 642/2/4
f 486/1/4 105/1/4 508/1/4
f 508/1/4 105/1/4 104/1/4
f 154/2/4 527/2/4 151/2/4
f 151/2/4 527/2/4 526/2/4
f 554/2/4 182/2/4 555/2/4
f 555/2/4 182/2/4 181/2/4
f 645/1/4 297/1/4 365/1/4
f 365/1/4 297/1/4 296/1/4
f 366/2/4 295/2/4 363/2/4
f 363/2/4 295/2/4 683/2/4
f 35/2/4 448/2/4 32/2/4
f 32/2/4 448/2/4 447/2/4
f 46/2/4 461/2/4 43/2/4
f 43/2/4 461/2/4 460/2/4
f 32/1/4 447/1/4 78/1/4
f 78/1/4 447/1/4 486/1/4
f 44/2/4 463/2/4 107/2/4
f 107/2/4 463/2/4 507/2/4
f 187/2/4 553/2/4 184/2/4
f 184/2/4 553/2/4 552/2/4
f 206/2/4 644/2/4 299/2/4
f 299/2/4 644/2/4 366/2/4
f 247/2/4 329/2/4 341/2/4
f 341/2/4 329/2/4 328/2/4
f 300/1/4 365/1/4 376/1/4
f 376/1/4 365/1/4 364/1/4
f 376/2/4 364/2/4 407/2/4
f 407/2/4 364/2/4 723/2/4
f 120/1/4 78/1/4 117/1/4
f 117/1/4 78/1/4 108/1/4
f 158/2/4 88/2/4 155/2/4
f 155/2/4 88/2/4 250/2/4
f 213/1/4 107/1/4 211/1/4
f 211/1/4 107/1/4 206/1/4
f 212/1/4 301/1/4 310/1/4
f 310/1/4 301/1/4 300/1/4
f 311/2/4 378/2/4 388/2/4
f 388/2/4 378/2/4 377/2/4
f 112/2/4 509/2/4 109/2/4
f 109/2/4 509/2/4 213/2/4
f 138/2/4 119/2/4 135/2/4
f 135/2/4 119/2/4 118/2/4
f 110/1/4 117/1/4 304/1/4
f 304/1/4 117/1/4 212/1/4
f 305/2/4 211/2/4 302/2/4
f 302/2/4 211/2/4 646/2/4
f 334/2/4 222/2/4 331/2/4
f 331/2/4 222/2/4 311/2/4
f 83/2/4 488/2/4 80/2/4
f 80/2/4 488/2/4 111/2/4
f 80/1/4 111/1/4 121/1/4
f 121/1/4 111/1/4 110/1/4
f 210/2/4 577/2/4 207/2/4
f 207/2/4 577/2/4 576/2/4
f 214/1/4 304/1/4 312/1/4
f 312/1/4 304/1/4 303/1/4
f 312/2/4 303/2/4 379/2/4
f 379/2/4 303/2/4 698/2/4
f 116/2/4 510/2/4 113/2/4
f 113/2/4 510/2/4 209/2/4
f 142/2/4 81/2/4 139/2/4
f 139/2/4 81/2/4 122/2/4
f 114/1/4 121/1/4 308/1/4
f 308/1/4 121/1/4 214/1/4
f 309/2/4 208/2/4 306/2/4
f 306/2/4 208/2/4 647/2/4
f 338/2/4 224/2/4 335/2/4
f 335/2/4 224/2/4 313/2/4
f 126/2/4 115/2/4 123/2/4
f 123/2/4 115/2/4 114/2/4
f 217/2/4 113/2/4 215/2/4
f 215/2/4 113/2/4 309/2/4
f 216/2/4 308/2/4 314/2/4
f 314/2/4 308/2/4 307/2/4
f 748/1/4 123/1/4 749/1/4
f 749/1/4 123/1/4 216/1/4
f 221/2/4 748/2/4 218/2/4
f 218/2/4 748/2/4 749/2/4
f 540/2/5 168/2/5 538/2/5
f 538/2/5 168/2/5 167/2/5
f 544/2/5 549/2/5 541/2/5
f 541/2/5 549/2/5 540/2/5
f 549/1/5 178/1/5 540/1/5
f 540/1/5 178/1/5 168/1/5
f 673/2/5 350/2/5 671/2/5
f 671/2/5 350/2/5 349/2/5
f 178/2/5 171/2/5 168/2/5
f 168/2/5 171/2/5 170/2/5
f 548/2/5 175/2/5 545/2/5
f 545/2/5 175/2/5 174/2/5
f 617/2/5 272/2/5 616/2/5
f 616/2/5 272/2/5 271/2/5
f 459/2/5 41/2/5 457/2/5
f 457/2/5 41/2/5 40/2/5
f 619/2/5 274/2/5 618/2/5
f 618/2/5 274/2/5 273/2/5
f 204/2/5 181/2/5 175/2/5
f 175/2/5 181/2/5 180/2/5
f 555/2/5 185/2/5 552/2/5
f 552/2/5 185/2/5 184/2/5
f 559/1/5 189/1/5 556/1/5
f 556/1/5 189/1/5 188/1/5
f 502/1/5 95/1/5 499/1/5
f 499/1/5 95/1/5 94/1/5
f 574/2/5 639/2/5 571/2/5
f 571/2/5 639/2/5 550/2/5
f 438/2/5 17/2/5 436/2/5
f 436/2/5 17/2/5 16/2/5
f 639/1/5 750/1/5 550/1/5
f 550/1/5 750/1/5 179/1/5
f 750/2/5 294/2/5 179/2/5
f 179/2/5 294/2/5 551/2/5
f 442/2/5 20/2/5 439/2/5
f 439/2/5 20/2/5 19/2/5
f 298/2/5 644/2/5 181/2/5
f 181/2/5 644/2/5 555/2/5
f 463/2/5 44/2/5 460/2/5
f 460/2/5 44/2/5 43/2/5
f 644/1/5 206/1/5 555/1/5
f 555/1/5 206/1/5 185/1/5
f 305/2/5 208/2/5 576/2/5
f 576/2/5 208/2/5 207/2/5
f 631/1/5 276/1/5 628/1/5
f 628/1/5 276/1/5 275/1/5
f 277/1/5 633/1/5 278/1/5
f 278/1/5 633/1/5 189/1/5
f 281/1/5 636/1/5 751/1/5
f 751/1/5 636/1/5 635/1/5
f 677/1/5 353/1/5 674/1/5
f 674/1/5 353/1/5 352/1/5
f 715/1/5 284/1/5 624/1/5
f 624/1/5 284/1/5 283/1/5
f 285/1/5 752/1/5 753/1/5
f 753/1/5 752/1/5 563/1/5
f 752/1/5 754/1/5 560/1/5
f 560/1/5 754/1/5 192/1/5
f 754/1/5 755/1/5 193/1/5
f 193/1/5 755/1/5 567/1/5
f 755/1/5 679/1/5 564/1/5
f 564/1/5 679/1/5 196/1/5
f 680/1/5 357/1/5 678/1/5
f 678/1/5 357/1/5 356/1/5
f 289/1/5 756/1/5 568/1/5
f 568/1/5 756/1/5 200/1/5
f 756/1/5 640/1/5 201/1/5
f 201/1/5 640/1/5 639/1/5
f 430/2/5 6/2/5 428/2/5
f 428/2/5 6/2/5 5/2/5
f 682/2/5 361/2/5 681/2/5
f 681/2/5 361/2/5 360/2/5
f 731/2/5 413/2/5 728/2/5
f 728/2/5 413/2/5 412/2/5
f 695/1/5 292/1/5 757/1/5
f 757/1/5 292/1/5 291/1/5
f 105/2/5 54/2/5 106/2/5
f 106/2/5 54/2/5 53/2/5
f 293/1/5 643/1/5 551/1/5
f 551/1/5 643/1/5 204/1/5
f 713/2/5 395/2/5 710/2/5
f 710/2/5 395/2/5 394/2/5
f 30/2/5 24/2/5 20/2/5
f 20/2/5 24/2/5 23/2/5
f 406/2/5 296/2/5 642/2/5
f 642/2/5 296/2/5 295/2/5
f 297/1/5 645/1/5 298/1/5
f 298/1/5 645/1/5 644/1/5
f 684/2/5 364/2/5 683/2/5
f 683/2/5 364/2/5 363/2/5
f 365/2/5 300/2/5 366/2/5
f 366/2/5 300/2/5 299/2/5
f 301/1/5 212/1/5 206/1/5
f 206/1/5 212/1/5 211/1/5
f 117/2/5 110/2/5 213/2/5
f 213/2/5 110/2/5 109/2/5
f 310/2/5 303/2/5 646/2/5
f 646/2/5 303/2/5 302/2/5
f 304/1/5 214/1/5 305/1/5
f 305/1/5 214/1/5 208/1/5
f 121/2/5 114/2/5 209/2/5
f 209/2/5 114/2/5 113/2/5
f 312/2/5 307/2/5 647/2/5
f 647/2/5 307/2/5 306/2/5
f 308/2/5 216/2/5 309/2/5
f 309/2/5 216/2/5 215/2/5
f 688/1/5 368/1/5 685/1/5
f 685/1/5 368/1/5 367/1/5
f 316/1/5 758/1/5 632/1/5
f 632/1/5 758/1/5 623/1/5
f 758/1/5 759/1/5 620/1/5
f 620/1/5 759/1/5 279/1/5
f 759/1/5 760/1/5 280/1/5
f 280/1/5 760/1/5 637/1/5
f 760/1/5 652/1/5 634/1/5
f 634/1/5 652/1/5 675/1/5
f 717/1/5 399/1/5 714/1/5
f 714/1/5 399/1/5 398/1/5
f 701/1/5 691/1/5 761/1/5
f 761/1/5 691/1/5 690/1/5
f 692/1/5 371/1/5 689/1/5
f 689/1/5 371/1/5 370/1/5
f 319/1/5 762/1/5 741/1/5
f 741/1/5 762/1/5 358/1/5
f 762/1/5 655/1/5 359/1/5
f 359/1/5 655/1/5 287/1/5
f 446/2/5 454/2/5 443/2/5
f 443/2/5 454/2/5 469/2/5
f 721/2/5 725/2/5 718/2/5
f 718/2/5 725/2/5 730/2/5
f 739/2/5 423/2/5 738/2/5
f 738/2/5 423/2/5 422/2/5
f 29/2/5 9/2/5 6/2/5
f 6/2/5 9/2/5 8/2/5
f 409/2/5 402/2/5 414/2/5
f 414/2/5 402/2/5 401/2/5
f 403/2/5 704/2/5 404/2/5
f 404/2/5 704/2/5 712/2/5
f 734/2/5 418/2/5 733/2/5
f 733/2/5 418/2/5 417/2/5
f 387/1/5 327/1/5 406/1/5
f 406/1/5 327/1/5 365/1/5
f 724/2/5 408/2/5 723/2/5
f 723/2/5 408/2/5 407/2/5
f 378/1/5 311/1/5 300/1/5
f 300/1/5 311/1/5 310/1/5
f 222/1/5 334/1/5 212/1/5
f 212/1/5 334/1/5 304/1/5
f 699/2/5 380/2/5 698/2/5
f 698/2/5 380/2/5 379/2/5
f 224/1/5 338/1/5 214/1/5
f 214/1/5 338/1/5 308/1/5
f 335/2/5 315/2/5 307/2/5
f 307/2/5 315/2/5 314/2/5
f 227/1/5 746/1/5 216/1/5
f 216/1/5 746/1/5 749/1/5
f 746/2/5 219/2/5 749/2/5
f 749/2/5 219/2/5 218/2/5
f 651/1/5 317/1/5 648/1/5
f 648/1/5 317/1/5 316/1/5
f 230/1/5 582/1/5 318/1/5
f 318/1/5 582/1/5 653/1/5
f 654/1/5 763/1/5 676/1/5
f 676/1/5 763/1/5 354/1/5
f 763/1/5 764/1/5 355/1/5
f 355/1/5 764/1/5 627/1/5
f 764/1/5 765/1/5 716/1/5
f 716/1/5 765/1/5 400/1/5
f 765/1/5 702/1/5 284/1/5
f 284/1/5 702/1/5 761/1/5
f 703/1/5 382/1/5 700/1/5
f 700/1/5 382/1/5 381/1/5
f 383/1/5 766/1/5 384/1/5
f 384/1/5 766/1/5 372/1/5
f 766/1/5 320/1/5 373/1/5
f 373/1/5 320/1/5 741/1/5
f 321/1/5 657/1/5 322/1/5
f 322/1/5 657/1/5 656/1/5
f 658/1/5 767/1/5 288/1/5
f 288/1/5 767/1/5 641/1/5
f 767/1/5 768/1/5 693/1/5
f 693/1/5 768/1/5 375/1/5
f 727/2/5 410/2/5 725/2/5
f 725/2/5 410/2/5 409/2/5
f 768/1/5 769/1/5 770/1/5
f 770/1/5 769/1/5 757/1/5
f 769/1/5 324/1/5 696/1/5
f 696/1/5 324/1/5 323/1/5
f 453/2/5 36/2/5 451/2/5
f 451/2/5 36/2/5 31/2/5
f 705/2/5 386/2/5 704/2/5
f 704/2/5 386/2/5 385/2/5
f 325/1/5 661/1/5 326/1/5
f 326/1/5 661/1/5 660/1/5
f 662/2/5 328/2/5 659/2/5
f 659/2/5 328/2/5 327/2/5
f 154/2/5 88/2/5 487/2/5
f 487/2/5 88/2/5 79/2/5
f 329/1/5 223/1/5 330/1/5
f 330/1/5 223/1/5 222/1/5
f 706/2/5 389/2/5 377/2/5
f 377/2/5 389/2/5 388/2/5
f 155/2/5 136/2/5 118/2/5
f 118/2/5 136/2/5 135/2/5
f 390/2/5 332/2/5 311/2/5
f 311/2/5 332/2/5 331/2/5
f 333/1/5 225/1/5 334/1/5
f 334/1/5 225/1/5 224/1/5
f 226/2/5 140/2/5 122/2/5
f 122/2/5 140/2/5 139/2/5
f 663/2/5 336/2/5 313/2/5
f 313/2/5 336/2/5 335/2/5
f 337/2/5 228/2/5 338/2/5
f 338/2/5 228/2/5 227/2/5
f 581/1/5 231/1/5 578/1/5
f 578/1/5 231/1/5 230/1/5
f 585/1/5 235/1/5 582/1/5
f 582/1/5 235/1/5 234/1/5
f 521/1/5 144/1/5 519/1/5
f 519/1/5 144/1/5 771/1/5
f 589/1/5 239/1/5 586/1/5
f 586/1/5 239/1/5 238/1/5
f 592/2/5 602/2/5 590/2/5
f 590/2/5 602/2/5 772/2/5
f 456/2/5 38/2/5 454/2/5
f 454/2/5 38/2/5 28/2/5
f 737/2/5 420/2/5 735/2/5
f 735/2/5 420/2/5 419/2/5
f 257/2/5 604/2/5 593/2/5
f 593/2/5 604/2/5 325/2/5
f 664/2/5 340/2/5 324/2/5
f 324/2/5 340/2/5 339/2/5
f 264/2/5 152/2/5 526/2/5
f 526/2/5 152/2/5 151/2/5
f 665/2/5 342/2/5 328/2/5
f 328/2/5 342/2/5 341/2/5
f 249/2/5 156/2/5 250/2/5
f 250/2/5 156/2/5 155/2/5
f 597/2/5 251/2/5 333/2/5
f 333/2/5 251/2/5 225/2/5
f 601/1/5 254/1/5 598/1/5
f 598/1/5 254/1/5 253/1/5
f 603/1/5 267/1/5 772/1/5
f 772/1/5 267/1/5 242/1/5
f 709/2/5 392/2/5 707/2/5
f 707/2/5 392/2/5 391/2/5
f 267/2/5 258/2/5 243/2/5
f 243/2/5 258/2/5 257/2/5
f 606/1/5 348/1/5 604/1/5
f 604/1/5 348/1/5 245/1/5
f 348/2/5 262/2/5 245/2/5
f 245/2/5 262/2/5 261/2/5
f 608/2/5 265/2/5 595/2/5
f 595/2/5 265/2/5 248/2/5
f 612/2/5 613/2/5 609/2/5
f 609/2/5 613/2/5 603/2/5
f 667/2/5 344/2/5 666/2/5
f 666/2/5 344/2/5 343/2/5
f 537/2/5 164/2/5 534/2/5
f 534/2/5 164/2/5 163/2/5
f 670/2/5 346/2/5 668/2/5
f 668/2/5 346/2/5 345/2/5
f 615/2/5 269/2/5 613/2/5
f 613/2/5 269/2/5 268/2/5
f 495/2/6 539/2/6 90/2/6
f 90/2/6 539/2/6 169/2/6
f 543/2/6 542/2/6 498/2/6
f 498/2/6 542/2/6 495/2/6
f 497/2/6 496/2/6 92/2/6
f 92/2/6 496/2/6 93/2/6
f 616/2/6 672/2/6 271/2/6
f 271/2/6 672/2/6 351/2/6
f 91/2/6 90/2/6 172/2/6
f 172/2/6 90/2/6 173/2/6
f 547/2/6 546/2/6 176/2/6
f 176/2/6 546/2/6 177/2/6
f 503/1/6 498/1/6 98/1/6
f 98/1/6 498/1/6 91/1/6
f 439/2/6 458/2/6 19/2/6
f 19/2/6 458/2/6 42/2/6
f 506/1/6 547/1/6 101/1/6
f 101/1/6 547/1/6 176/1/6
f 101/2/6 176/2/6 182/2/6
f 182/2/6 176/2/6 183/2/6
f 554/2/6 553/2/6 186/2/6
f 186/2/6 553/2/6 187/2/6
f 558/1/6 557/1/6 190/1/6
f 190/1/6 557/1/6 191/1/6
f 622/1/6 621/1/6 751/1/6
f 751/1/6 621/1/6 282/1/6
f 626/1/6 625/1/6 753/1/6
f 753/1/6 625/1/6 286/1/6
f 562/1/6 561/1/6 194/1/6
f 194/1/6 561/1/6 195/1/6
f 566/1/6 565/1/6 198/1/6
f 198/1/6 565/1/6 199/1/6
f 570/1/6 569/1/6 202/1/6
f 202/1/6 569/1/6 203/1/6
f 573/2/6 572/2/6 505/2/6
f 505/2/6 572/2/6 503/2/6
f 428/2/6 437/2/6 5/2/6
f 5/2/6 437/2/6 18/2/6
f 468/2/6 504/2/6 51/2/6
f 51/2/6 504/2/6 100/2/6
f 638/2/6 617/2/6 770/2/6
f 770/2/6 617/2/6 272/2/6
f 99/2/6 98/2/6 103/2/6
f 103/2/6 98/2/6 506/2/6
f 441/2/6 440/2/6 21/2/6
f 21/2/6 440/2/6 22/2/6
f 106/2/6 459/2/6 53/2/6
f 53/2/6 459/2/6 41/2/6
f 575/2/6 182/2/6 507/2/6
f 507/2/6 182/2/6 554/2/6
f 462/2/6 461/2/6 45/2/6
f 45/2/6 461/2/6 46/2/6
f 507/1/6 554/1/6 107/1/6
f 107/1/6 554/1/6 186/1/6
f 109/2/6 577/2/6 209/2/6
f 209/2/6 577/2/6 210/2/6
f 630/1/6 629/1/6 59/1/6
f 59/1/6 629/1/6 501/1/6
f 476/1/6 773/1/6 467/1/6
f 467/1/6 773/1/6 464/1/6
f 466/1/6 465/1/6 49/1/6
f 49/1/6 465/1/6 50/1/6
f 480/1/6 774/1/6 470/1/6
f 470/1/6 774/1/6 468/1/6
f 424/2/6 429/2/6 1/2/6
f 1/2/6 429/2/6 7/2/6
f 469/2/6 438/2/6 27/2/6
f 27/2/6 438/2/6 17/2/6
f 730/2/6 729/2/6 414/2/6
f 414/2/6 729/2/6 415/2/6
f 52/1/6 51/1/6 105/1/6
f 105/1/6 51/1/6 106/1/6
f 471/2/6 442/2/6 30/2/6
f 30/2/6 442/2/6 20/2/6
f 712/2/6 711/2/6 396/2/6
f 396/2/6 711/2/6 397/2/6
f 12/2/6 21/2/6 25/2/6
f 25/2/6 21/2/6 26/2/6
f 104/1/6 103/1/6 508/1/6
f 508/1/6 103/1/6 507/1/6
f 296/2/6 295/2/6 365/2/6
f 365/2/6 295/2/6 366/2/6
f 486/2/6 463/2/6 78/2/6
f 78/2/6 463/2/6 44/2/6
f 108/1/6 107/1/6 117/1/6
f 117/1/6 107/1/6 213/1/6
f 120/2/6 509/2/6 111/2/6
f 111/2/6 509/2/6 112/2/6
f 212/2/6 211/2/6 304/2/6
f 304/2/6 211/2/6 305/2/6
f 110/1/6 109/1/6 121/1/6
f 121/1/6 109/1/6 209/1/6
f 80/2/6 510/2/6 115/2/6
f 115/2/6 510/2/6 116/2/6
f 214/2/6 208/2/6 308/2/6
f 308/2/6 208/2/6 309/2/6
f 114/2/6 113/2/6 123/2/6
f 123/2/6 113/2/6 217/2/6
f 687/1/6 686/1/6 57/1/6
f 57/1/6 686/1/6 58/1/6
f 130/1/6 775/1/6 475/1/6
f 475/1/6 775/1/6 472/1/6
f 474/1/6 473/1/6 61/1/6
f 61/1/6 473/1/6 62/1/6
f 60/1/6 500/1/6 776/1/6
f 776/1/6 500/1/6 97/1/6
f 776/1/6 96/1/6 479/1/6
f 479/1/6 96/1/6 773/1/6
f 478/1/6 477/1/6 65/1/6
f 65/1/6 477/1/6 66/1/6
f 64/1/6 63/1/6 777/1/6
f 777/1/6 63/1/6 48/1/6
f 777/1/6 47/1/6 483/1/6
f 483/1/6 47/1/6 774/1/6
f 482/1/6 481/1/6 69/1/6
f 69/1/6 481/1/6 70/1/6
f 445/2/6 444/2/6 431/2/6
f 431/2/6 444/2/6 430/2/6
f 68/1/6 67/1/6 484/1/6
f 484/1/6 67/1/6 470/1/6
f 720/2/6 719/2/6 694/2/6
f 694/2/6 719/2/6 682/2/6
f 426/2/6 425/2/6 3/2/6
f 3/2/6 425/2/6 4/2/6
f 2/2/6 1/2/6 10/2/6
f 10/2/6 1/2/6 11/2/6
f 28/2/6 27/2/6 73/2/6
f 73/2/6 27/2/6 74/2/6
f 374/2/6 361/2/6 403/2/6
f 403/2/6 361/2/6 404/2/6
f 434/2/6 433/2/6 14/2/6
f 14/2/6 433/2/6 15/2/6
f 31/2/6 30/2/6 77/2/6
f 77/2/6 30/2/6 24/2/6
f 76/1/6 75/1/6 487/1/6
f 487/1/6 75/1/6 486/1/6
f 449/2/6 448/2/6 34/2/6
f 34/2/6 448/2/6 35/2/6
f 79/1/6 78/1/6 119/1/6
f 119/1/6 78/1/6 120/1/6
f 118/1/6 117/1/6 135/1/6
f 135/1/6 117/1/6 110/1/6
f 489/2/6 488/2/6 82/2/6
f 82/2/6 488/2/6 83/2/6
f 122/1/6 121/1/6 139/1/6
f 139/1/6 121/1/6 114/1/6
f 142/2/6 115/2/6 125/2/6
f 125/2/6 115/2/6 126/2/6
f 124/1/6 123/1/6 745/1/6
f 745/1/6 123/1/6 748/1/6
f 745/2/6 748/2/6 220/2/6
f 220/2/6 748/2/6 221/2/6
f 650/1/6 649/1/6 778/1/6
f 778/1/6 649/1/6 56/1/6
f 778/1/6 55/1/6 129/1/6
f 129/1/6 55/1/6 775/1/6
f 128/1/6 127/1/6 237/1/6
f 237/1/6 127/1/6 511/1/6
f 513/1/6 512/1/6 493/1/6
f 493/1/6 512/1/6 490/1/6
f 492/1/6 491/1/6 86/1/6
f 86/1/6 491/1/6 87/1/6
f 771/1/6 143/1/6 517/1/6
f 517/1/6 143/1/6 514/1/6
f 726/2/6 694/2/6 411/2/6
f 411/2/6 694/2/6 374/2/6
f 516/1/6 515/1/6 779/1/6
f 779/1/6 515/1/6 72/1/6
f 779/1/6 71/1/6 743/1/6
f 743/1/6 71/1/6 105/1/6
f 452/2/6 435/2/6 37/2/6
f 37/2/6 435/2/6 13/2/6
f 743/2/6 485/2/6 133/2/6
f 133/2/6 485/2/6 134/2/6
f 324/2/6 323/2/6 339/2/6
f 339/2/6 323/2/6 387/2/6
f 494/2/6 450/2/6 89/2/6
f 89/2/6 450/2/6 33/2/6
f 132/1/6 131/1/6 155/1/6
f 155/1/6 131/1/6 118/1/6
f 341/2/6 378/2/6 390/2/6
f 390/2/6 378/2/6 311/2/6
f 158/2/6 119/2/6 137/2/6
f 137/2/6 119/2/6 138/2/6
f 223/2/6 222/2/6 333/2/6
f 333/2/6 222/2/6 334/2/6
f 136/1/6 135/1/6 226/1/6
f 226/1/6 135/1/6 122/1/6
f 518/2/6 81/2/6 141/2/6
f 141/2/6 81/2/6 142/2/6
f 225/2/6 224/2/6 337/2/6
f 337/2/6 224/2/6 338/2/6
f 140/2/6 139/2/6 229/2/6
f 229/2/6 139/2/6 124/2/6
f 580/1/6 579/1/6 232/1/6
f 232/1/6 579/1/6 233/1/6
f 584/1/6 583/1/6 236/1/6
f 236/1/6 583/1/6 237/1/6
f 520/1/6 84/1/6 145/1/6
f 145/1/6 84/1/6 146/1/6
f 588/1/6 587/1/6 240/1/6
f 240/1/6 587/1/6 241/1/6
f 591/2/6 517/2/6 525/2/6
f 525/2/6 517/2/6 522/2/6
f 455/2/6 431/2/6 39/2/6
f 39/2/6 431/2/6 29/2/6
f 524/2/6 523/2/6 149/2/6
f 149/2/6 523/2/6 150/2/6
f 736/2/6 727/2/6 421/2/6
f 421/2/6 727/2/6 410/2/6
f 260/2/6 594/2/6 605/2/6
f 605/2/6 594/2/6 744/2/6
f 528/2/6 527/2/6 153/2/6
f 153/2/6 527/2/6 154/2/6
f 152/1/6 151/1/6 249/1/6
f 249/1/6 151/1/6 250/1/6
f 529/2/6 88/2/6 157/2/6
f 157/2/6 88/2/6 158/2/6
f 596/2/6 136/2/6 252/2/6
f 252/2/6 136/2/6 226/2/6
f 600/1/6 599/1/6 255/1/6
f 255/1/6 599/1/6 256/1/6
f 530/1/6 525/1/6 159/1/6
f 159/1/6 525/1/6 148/1/6
f 666/2/6 708/2/6 343/2/6
f 343/2/6 708/2/6 393/2/6
f 159/2/6 148/2/6 259/2/6
f 259/2/6 148/2/6 260/2/6
f 534/1/6 744/1/6 163/1/6
f 163/1/6 744/1/6 132/1/6
f 163/2/6 246/2/6 263/2/6
f 263/2/6 246/2/6 264/2/6
f 607/2/6 152/2/6 266/2/6
f 266/2/6 152/2/6 249/2/6
f 611/2/6 610/2/6 533/2/6
f 533/2/6 610/2/6 530/2/6
f 532/2/6 531/2/6 161/2/6
f 161/2/6 531/2/6 162/2/6
f 536/2/6 535/2/6 165/2/6
f 165/2/6 535/2/6 166/2/6
f 669/2/6 606/2/6 347/2/6
f 347/2/6 606/2/6 348/2/6
f 614/2/6 533/2/6 270/2/6
f 270/2/6 533/2/6 160/2/6
