# Vengi binary mesh normalized for Tanks of Freedom II

mtllib ../../../materials/vox_grass.mtl
o tree_stump_small_1

v 0.1 0.1 0.1
v 0 0.1 0.1
v 0 0.1 0.2
v 0.1 0.1 0.2
v -0.1 0.1 0.1
v -0.1 0.1 0.2
v 0.2 0.1 0
v 0.1 0.1 0
v 0.2 0.1 0.1
v 0.1 0.2 0
v -0.1 0.2 0
v -0.1 0.2 0.1
v 0.1 0.2 0.1
v -0.1 0.1 0
v -0.3 0.1 0
v -0.3 0.1 0.1
v 0.2 0.1 -0.1
v 0.1 0.1 -0.1
v 0.1 0.2 -0.1
v 0 0.2 -0.1
v 0 0.2 0
v -0.1 0.2 -0.1
v -0.1 0.1 -0.1
v -0.2 0.1 -0.1
v -0.2 0.1 0
v 0.3 0.1 -0.2
v 0.2 0.1 -0.2
v 0.3 0.1 0
v 0 0.1 -0.2
v -0.1 0.1 -0.2
v 0 0.1 -0.1
v 0.1 0.1 -0.3
v 0 0.1 -0.3
v -0.1 0.1 -0.3
v 0.1 0 0.1
v 0.1 0 0.2
v 0 0 0.2
v 0 0 0.1
v 0.2 0 0
v 0.2 0 0.1
v 0 0 0
v -0.1 0 0
v -0.1 0 0.1
v -0.3 0 0.1
v -0.3 0 0
v 0.2 0 -0.1
v 0.1 0 0
v 0.1 0 -0.1
v -0.1 0 -0.1
v -0.2 0 0
v -0.2 0 -0.1
v 0.3 0 -0.2
v 0.3 0 0
v 0.2 0 -0.2
v 0 0 -0.2
v -0.1 0 0.2
v -0.1 0 -0.2
v 0.1 0 -0.3
v 0 0 -0.3
v -0.1 0 -0.3

vt 0.00585938 0.5
vt 0.0839844 0.5

vn 0 1 0
vn 0 -1 0
vn -1 0 0
vn 1 0 0
vn 0 0 -1
vn 0 0 1

usemtl palette
f 1/2/1 2/2/1 4/2/1
f 4/2/1 2/2/1 3/2/1
f 2/1/1 5/1/1 3/1/1
f 3/1/1 5/1/1 6/1/1
f 7/1/1 8/1/1 9/1/1
f 9/1/1 8/1/1 1/1/1
f 10/1/1 11/1/1 13/1/1
f 13/1/1 11/1/1 12/1/1
f 14/1/1 15/1/1 5/1/1
f 5/1/1 15/1/1 16/1/1
f 17/2/1 18/2/1 7/2/1
f 7/2/1 18/2/1 8/2/1
f 19/2/1 20/2/1 10/2/1
f 10/2/1 20/2/1 21/2/1
f 20/1/1 22/1/1 21/1/1
f 21/1/1 22/1/1 11/1/1
f 23/2/1 24/2/1 14/2/1
f 14/2/1 24/2/1 25/2/1
f 26/2/1 27/2/1 28/2/1
f 28/2/1 27/2/1 7/2/1
f 29/1/1 30/1/1 31/1/1
f 31/1/1 30/1/1 23/1/1
f 32/1/1 33/1/1 18/1/1
f 18/1/1 33/1/1 31/1/1
f 33/2/1 34/2/1 29/2/1
f 29/2/1 34/2/1 30/2/1
f 35/2/2 36/2/2 38/2/2
f 38/2/2 36/2/2 37/2/2
f 39/1/2 40/1/2 41/1/2
f 41/1/2 40/1/2 38/1/2
f 42/1/2 43/1/2 45/1/2
f 45/1/2 43/1/2 44/1/2
f 46/2/2 39/2/2 48/2/2
f 48/2/2 39/2/2 47/2/2
f 49/2/2 42/2/2 51/2/2
f 51/2/2 42/2/2 50/2/2
f 52/2/2 53/2/2 54/2/2
f 54/2/2 53/2/2 39/2/2
f 55/1/2 37/1/2 57/1/2
f 57/1/2 37/1/2 56/1/2
f 58/1/2 47/1/2 59/1/2
f 59/1/2 47/1/2 41/1/2
f 59/2/2 55/2/2 60/2/2
f 60/2/2 55/2/2 57/2/2
f 6/1/3 5/1/3 56/1/3
f 56/1/3 5/1/3 43/1/3
f 16/1/3 15/1/3 44/1/3
f 44/1/3 15/1/3 45/1/3
f 25/2/3 24/2/3 50/2/3
f 50/2/3 24/2/3 51/2/3
f 17/2/3 27/2/3 46/2/3
f 46/2/3 27/2/3 54/2/3
f 23/1/3 30/1/3 49/1/3
f 49/1/3 30/1/3 57/1/3
f 30/2/3 34/2/3 57/2/3
f 57/2/3 34/2/3 60/2/3
f 12/1/3 22/1/3 5/1/3
f 5/1/3 22/1/3 23/1/3
f 4/2/4 36/2/4 1/2/4
f 1/2/4 36/2/4 35/2/4
f 9/1/4 40/1/4 7/1/4
f 7/1/4 40/1/4 39/1/4
f 28/2/4 53/2/4 26/2/4
f 26/2/4 53/2/4 52/2/4
f 18/1/4 48/1/4 32/1/4
f 32/1/4 48/1/4 58/1/4
f 13/1/4 1/1/4 10/1/4
f 10/1/4 1/1/4 8/1/4
f 10/2/4 8/2/4 19/2/4
f 19/2/4 8/2/4 18/2/4
f 54/2/5 27/2/5 52/2/5
f 52/2/5 27/2/5 26/2/5
f 48/2/5 18/2/5 46/2/5
f 46/2/5 18/2/5 17/2/5
f 59/1/5 33/1/5 58/1/5
f 58/1/5 33/1/5 32/1/5
f 31/2/5 20/2/5 18/2/5
f 18/2/5 20/2/5 19/2/5
f 60/2/5 34/2/5 59/2/5
f 59/2/5 34/2/5 33/2/5
f 23/1/5 22/1/5 31/1/5
f 31/1/5 22/1/5 20/1/5
f 51/2/5 24/2/5 49/2/5
f 49/2/5 24/2/5 23/2/5
f 45/1/5 15/1/5 50/1/5
f 50/1/5 15/1/5 25/1/5
f 39/2/6 53/2/6 7/2/6
f 7/2/6 53/2/6 28/2/6
f 35/1/6 40/1/6 1/1/6
f 1/1/6 40/1/6 9/1/6
f 37/2/6 36/2/6 3/2/6
f 3/2/6 36/2/6 4/2/6
f 56/1/6 37/1/6 6/1/6
f 6/1/6 37/1/6 3/1/6
f 5/1/6 1/1/6 12/1/6
f 12/1/6 1/1/6 13/1/6
f 44/1/6 43/1/6 16/1/6
f 16/1/6 43/1/6 5/1/6
