# Vengi binary mesh normalized for Tanks of Freedom II

mtllib ../../../materials/vox_grass.mtl
o tree_small_1

v 0.1 1.2 0.4
v 0 1.2 0.4
v 0 1.2 0.5
v 0.1 1.2 0.5
v 0 1.4 0.4
v -0.1 1.4 0.4
v -0.1 1.4 0.5
v 0 1.4 0.5
v -0.1 1.2 0.4
v -0.2 1.2 0.4
v -0.2 1.2 0.5
v -0.1 1.2 0.5
v 0.3 1 0.3
v 0.2 1 0.3
v 0.2 1 0.4
v 0.3 1 0.4
v 0.3 1.2 0.3
v 0.2 1.2 0.3
v 0.2 1.2 0.4
v 0.3 1.2 0.4
v 0.2 1.5 0.3
v 0.1 1.5 0.3
v 0.1 1.5 0.4
v 0.2 1.5 0.4
v 0 1.5 0.3
v 0 1.5 0.4
v -0.2 1.5 0.3
v -0.2 1.5 0.4
v -0.2 1.3 0.3
v -0.3 1.3 0.3
v -0.3 1.3 0.4
v -0.2 1.3 0.4
v 0.4 1.1 0.2
v 0.3 1.1 0.2
v 0.3 1.1 0.3
v 0.4 1.1 0.3
v 0.4 1.3 0.2
v 0.3 1.3 0.2
v 0.3 1.3 0.3
v 0.4 1.3 0.3
v 0.2 1.6 0.2
v 0.1 1.6 0.2
v 0.1 1.6 0.3
v 0.2 1.6 0.3
v 0 1.6 0.2
v -0.1 1.6 0.2
v -0.1 1.6 0.3
v 0 1.6 0.3
v -0.1 1.7 0.2
v -0.2 1.7 0.2
v -0.2 1.7 0.3
v -0.1 1.7 0.3
v -0.2 1.6 0.2
v -0.3 1.6 0.2
v -0.3 1.6 0.3
v -0.2 1.6 0.3
v -0.3 0.9 0.2
v -0.4 0.9 0.2
v -0.4 0.9 0.3
v -0.3 0.9 0.3
v -0.3 1.1 0.2
v -0.4 1.1 0.2
v -0.4 1.1 0.3
v -0.3 1.1 0.3
v 0.5 1 0.1
v 0.4 1 0.1
v 0.4 1 0.2
v 0.5 1 0.2
v 0.5 1.4 0.1
v 0.4 1.4 0.1
v 0.4 1.4 0.2
v 0.5 1.4 0.2
v 0.4 1.6 0.1
v 0.3 1.6 0.1
v 0.3 1.6 0.2
v 0.4 1.6 0.2
v 0.3 1.7 0.1
v 0.2 1.7 0.1
v 0.2 1.7 0.3
v 0.3 1.7 0.3
v 0.1 1.7 0.1
v 0.1 1.7 0.2
v 0.2 1.7 0.2
v 0.1 0.1 0.1
v 0 0.1 0.1
v 0 0.1 0.2
v 0.1 0.1 0.2
v 0 1.7 0.1
v 0 1.7 0.3
v 0.1 1.7 0.3
v -0.1 0.1 0.1
v -0.1 0.1 0.2
v 0 1.8 0.1
v -0.2 1.8 0.1
v -0.2 1.8 0.2
v 0 1.8 0.2
v -0.2 1.7 0.1
v -0.3 1.7 0.1
v -0.3 1.7 0.2
v -0.4 1.5 0.1
v -0.5 1.5 0.1
v -0.5 1.5 0.2
v -0.4 1.5 0.2
v 0.5 1.1 0
v 0.4 1.1 0
v 0.4 1.1 0.1
v 0.5 1.1 0.1
v 0.5 1.5 0
v 0.3 1.5 0
v 0.3 1.5 0.1
v 0.5 1.5 0.1
v 0.3 1.6 0
v 0.2 1.6 0
v 0.2 1.6 0.1
v 0.2 0.1 0
v 0.1 0.1 0
v 0.2 0.1 0.1
v 0.1 1.8 0
v 0 1.8 0
v 0.1 1.8 0.1
v 0 1.7 0
v -0.1 1.7 0
v -0.1 1.7 0.1
v -0.2 1.7 0
v -0.1 0.1 0
v -0.3 0.1 0
v -0.3 0.1 0.1
v -0.2 1.6 0
v -0.3 1.6 0
v -0.3 1.6 0.1
v -0.2 1.6 0.1
v -0.4 1.1 0
v -0.5 1.1 0
v -0.5 1.1 0.1
v -0.4 1.1 0.1
v -0.4 1.4 0
v -0.5 1.4 0
v -0.5 1.4 0.1
v -0.4 1.4 0.1
v 0.5 1 -0.1
v 0.4 1 -0.1
v 0.4 1 0
v 0.5 1 0
v 0.5 1.4 -0.1
v 0.4 1.4 -0.1
v 0.4 1.4 0
v 0.5 1.4 0
v 0.4 1.6 -0.1
v 0.2 1.6 -0.1
v 0.4 1.6 0
v 0.2 0.1 -0.1
v 0.1 0.1 -0.1
v 0.1 1.7 -0.1
v 0 1.7 -0.1
v 0.1 1.7 0
v -0.1 0.1 -0.1
v -0.2 0.1 -0.1
v -0.2 0.1 0
v -0.1 1.8 -0.1
v -0.2 1.8 -0.1
v -0.2 1.8 0
v -0.1 1.8 0
v -0.2 1.6 -0.1
v -0.3 1.6 -0.1
v -0.4 1.2 -0.1
v -0.5 1.2 -0.1
v -0.5 1.2 0
v -0.4 1.2 0
v 0.3 0.1 -0.2
v 0.2 0.1 -0.2
v 0.3 0.1 0
v 0.3 1.6 -0.2
v 0.2 1.6 -0.2
v 0.3 1.6 -0.1
v 0.2 1.7 -0.2
v 0.1 1.7 -0.2
v 0 1.7 -0.2
v 0 0.1 -0.2
v -0.1 0.1 -0.2
v 0 0.1 -0.1
v 0 1.8 -0.2
v -0.1 1.8 -0.2
v -0.1 1.7 -0.2
v -0.3 1.7 -0.2
v -0.3 1.7 -0.1
v -0.1 1.7 -0.1
v -0.3 1.5 -0.2
v -0.4 1.5 -0.2
v -0.4 1.5 0.3
v -0.3 1.5 0.3
v -0.4 1.3 -0.2
v -0.5 1.3 -0.2
v -0.5 1.3 -0.1
v -0.4 1.3 -0.1
v 0.4 1.5 -0.3
v 0.3 1.5 -0.3
v 0.3 1.5 -0.1
v 0.4 1.5 -0.1
v 0.3 1.6 -0.3
v 0.2 1.6 -0.3
v 0.1 0.1 -0.3
v 0 0.1 -0.3
v 0 1.6 -0.3
v 0 1.6 -0.2
v -0.1 0.1 -0.3
v 0 1.7 -0.3
v -0.1 1.7 -0.3
v -0.1 1.6 -0.3
v -0.3 1.6 -0.3
v -0.3 1.6 -0.2
v -0.1 1.6 -0.2
v -0.3 1.2 -0.3
v -0.4 1.2 -0.3
v -0.4 1.2 -0.2
v -0.3 1.2 -0.2
v 0.3 1.1 -0.4
v 0.2 1.1 -0.4
v 0.2 1.1 -0.3
v 0.3 1.1 -0.3
v 0.3 1.4 -0.4
v 0.2 1.4 -0.4
v 0.2 1.4 -0.3
v 0.3 1.4 -0.3
v 0.2 1.5 -0.4
v 0.1 1.5 -0.4
v 0.1 1.5 -0.3
v 0.2 1.5 -0.3
v 0.1 1.6 -0.4
v 0 1.6 -0.4
v 0.1 1.6 -0.3
v 0 1.5 -0.4
v -0.1 1.5 -0.4
v -0.1 1.5 -0.3
v 0 1.5 -0.3
v -0.2 1.5 -0.4
v -0.2 1.5 -0.3
v -0.2 0.9 -0.4
v -0.3 0.9 -0.4
v -0.3 0.9 -0.3
v -0.2 0.9 -0.3
v -0.2 1.1 -0.4
v -0.3 1.1 -0.4
v -0.3 1.1 -0.3
v -0.2 1.1 -0.3
v 0.2 1.3 -0.5
v 0.1 1.3 -0.5
v 0.1 1.3 -0.4
v 0.2 1.3 -0.4
v 0.1 1 -0.5
v 0 1 -0.5
v 0 1 -0.4
v 0.1 1 -0.4
v 0.1 1.5 -0.5
v 0 1.5 -0.5
v 0 1.3 -0.5
v -0.1 1.3 -0.5
v -0.1 1.3 -0.4
v 0 1.3 -0.4
v -0.1 1 -0.5
v -0.2 1 -0.5
v -0.2 1 -0.4
v -0.1 1 -0.4
v -0.1 1.2 -0.5
v -0.2 1.2 -0.5
v -0.2 1.2 -0.4
v -0.1 1.2 -0.4
v 0.1 1.1 0.4
v 0.1 1.1 0.5
v 0 1.1 0.5
v 0 1.1 0.4
v -0.1 1 0.4
v -0.1 1 0.5
v -0.2 1 0.5
v -0.2 1 0.4
v 0.3 0.9 0.3
v 0.3 0.9 0.4
v 0.2 0.9 0.4
v 0.2 0.9 0.3
v 0.3 1.1 0.4
v 0.2 1.1 0.4
v 0.2 1.1 0.3
v 0.1 0.9 0.3
v 0.1 0.9 0.4
v -0.1 0.9 0.4
v -0.1 0.9 0.3
v -0.1 0.8 0.3
v -0.1 0.8 0.4
v -0.2 0.8 0.4
v -0.2 0.8 0.3
v -0.2 1 0.3
v -0.3 1 0.4
v -0.3 1 0.3
v 0.4 1 0.3
v 0.3 1 0.2
v 0.4 1.2 0.2
v 0.4 1.2 0.3
v 0.3 1.2 0.2
v 0.2 0.8 0.2
v 0.2 0.8 0.4
v 0.1 0.8 0.4
v 0.1 0.8 0.2
v 0 0.8 0.2
v 0 0.8 0.3
v -0.1 0.8 0.2
v -0.2 0.8 0.2
v -0.4 0.8 0.3
v -0.4 0.8 0.2
v -0.3 1 0.2
v -0.4 1 0.3
v -0.4 1 0.2
v -0.3 1.4 0.2
v -0.3 1.4 0.3
v -0.4 1.4 0.3
v -0.4 1.4 0.2
v 0.5 0.9 0.1
v 0.5 0.9 0.2
v 0.4 0.9 0.2
v 0.4 0.9 0.1
v 0.3 0.9 0.2
v 0.3 0.9 0.1
v 0.3 0.8 0.1
v 0.3 0.8 0.3
v 0.2 0.8 0.3
v 0.2 0.8 0.1
v 0.2 0.7 0.1
v 0.2 0.7 0.2
v 0.1 0.7 0.2
v 0.1 0.7 0.1
v 0.1 0 0.1
v 0.1 0 0.2
v 0 0 0.2
v 0 0 0.1
v 0.1 0.7 0.3
v 0 0.7 0.3
v 0 0.7 0.1
v 0 0.7 0.2
v -0.1 0.7 0.2
v -0.1 0.7 0.1
v -0.5 1.4 0.2
v 0.5 1.3 0
v 0.5 1.3 0.2
v 0.4 1.3 0
v 0.4 0.8 0
v 0.4 0.8 0.1
v 0.3 0.8 0
v 0.2 0.8 0
v 0.2 0 0
v 0.2 0 0.1
v 0 0 0
v -0.1 0.7 0
v -0.1 0.7 0.3
v -0.2 0.7 0.3
v -0.2 0.7 0
v -0.1 0 0
v -0.1 0 0.1
v -0.3 0 0.1
v -0.3 0 0
v -0.2 0.7 0.2
v -0.3 0.7 0.2
v -0.3 0.7 0
v -0.3 0.9 0
v -0.4 0.9 0
v -0.4 1.2 0.1
v -0.5 1.2 0.1
v 0.5 1.1 -0.1
v 0.4 1.1 -0.1
v 0.5 0.9 -0.1
v 0.5 0.9 0
v 0.3 0.9 0
v 0.3 0.9 -0.1
v 0.3 0.7 -0.1
v 0.3 0.7 0
v 0.2 0.7 0
v 0.2 0.7 -0.1
v 0.2 0 -0.1
v 0.1 0 0
v 0.1 0 -0.1
v -0.1 0 -0.1
v -0.2 0 0
v -0.2 0 -0.1
v -0.1 0.7 -0.1
v -0.2 0.7 -0.1
v -0.3 0.8 -0.1
v -0.3 0.8 0
v -0.4 0.8 0
v -0.4 0.8 -0.1
v -0.4 1 -0.1
v -0.4 1 0.1
v -0.5 1 0.1
v -0.5 1 -0.1
v 0.4 0.9 -0.2
v 0.4 0.9 -0.1
v 0.3 0.9 -0.2
v 0.3 0 -0.2
v 0.3 0 0
v 0.2 0 -0.2
v 0.3 0.8 -0.2
v 0.3 0.8 -0.1
v 0.2 0.8 -0.1
v 0.2 0.8 -0.2
v 0.2 0.7 -0.2
v 0.1 0.7 -0.2
v 0.1 0.7 -0.1
v 0 0.7 -0.1
v 0 0.7 -0.2
v 0 0 -0.2
v -0.1 0 0.2
v -0.1 0 -0.2
v -0.2 0.7 -0.2
v -0.3 0.9 -0.2
v -0.3 0.9 -0.1
v -0.4 0.9 -0.1
v -0.4 0.9 -0.2
v -0.5 1.2 -0.2
v 0.4 1.4 -0.3
v 0.4 1.4 -0.2
v 0.3 1.4 -0.2
v 0.3 0.8 -0.3
v 0.1 0.8 -0.2
v 0.1 0.8 -0.3
v 0.1 0 -0.3
v 0 0 -0.3
v 0.1 0.7 -0.3
v 0 0.7 -0.3
v -0.1 0 -0.3
v 0 0.8 -0.3
v 0 0.8 -0.2
v -0.1 0.8 -0.2
v -0.1 0.8 -0.3
v -0.1 0.7 -0.3
v -0.1 0.7 -0.2
v -0.2 0.7 -0.3
v -0.3 1 -0.3
v -0.3 1 -0.2
v -0.4 1 -0.2
v -0.4 1 -0.3
v 0.3 1 -0.4
v 0.3 1 -0.3
v 0.2 1 -0.3
v 0.2 1 -0.4
v 0.3 1.3 -0.4
v 0.3 1.3 -0.3
v 0.2 1.3 -0.3
v 0.2 0.8 -0.4
v 0.2 0.8 -0.3
v 0.1 0.8 -0.4
v 0 0.9 -0.4
v 0 0.9 -0.3
v -0.2 0.8 -0.4
v -0.2 0.8 0
v -0.3 0.8 -0.4
v -0.2 1 -0.3
v -0.3 1 -0.4
v 0.2 1.1 -0.5
v 0.1 1.1 -0.4
v 0.1 1.1 -0.5
v 0.1 0.9 -0.5
v 0.1 0.9 -0.3
v 0 0.9 -0.5
v -0.1 0.9 -0.5
v -0.1 0.9 -0.4
v -0.2 0.9 -0.5
v -0.1 1.1 -0.5
v -0.1 1.1 -0.4
v -0.2 1.1 -0.5
v -0.1 0.2 0.1
v -0.1 0.2 -0.1
v -0.1 0.5 0.1
v -0.1 0.5 0
v -0.1 0.2 0
v -0.1 0.6 0.1
v -0.1 0.6 0
v -0.3 0.8 0.2
v -0.2 0.8 -0.1
v -0.2 0.8 -0.3
v 0.1 0.8 0.3
v -0.2 0.9 0.4
v -0.2 0.9 0.3
v 0.1 0.9 -0.4
v -0.4 1 0
v -0.5 1.1 -0.1
v -0.4 1.1 -0.1
v -0.4 1.1 -0.2
v -0.3 1.2 0.3
v -0.3 1.2 0.2
v -0.4 1.2 0.2
v -0.2 1.2 -0.3
v -0.4 1.3 0.2
v -0.4 1.3 0.1
v -0.4 1.3 0
v -0.3 1.3 -0.2
v -0.3 1.3 -0.3
v -0.2 1.3 -0.3
v -0.2 1.3 -0.4
v -0.2 1.4 0.4
v -0.2 1.4 0.3
v -0.4 1.4 -0.1
v -0.3 1.4 -0.2
v -0.3 1.4 -0.3
v -0.4 1.5 -0.1
v -0.3 1.5 0.1
v -0.3 1.5 0
v 0 1.7 0.2
v -0.2 1.7 -0.1
v 0.1 0.3 0
v 0.1 0.3 -0.1
v 0.1 0.6 0.1
v 0.1 0.6 0
v 0.1 0.7 0
v 0.3 0.8 0.2
v 0.3 0.9 -0.3
v 0.3 1 -0.2
v 0.3 1.2 -0.2
v 0.3 1.2 -0.3
v 0.2 1.2 -0.3
v 0.2 1.2 -0.4
v 0.4 1.3 -0.1
v 0.4 1.3 -0.2
v 0.3 1.3 -0.2
v 0.3 1.5 0.3
v 0.3 1.5 0.2
v 0.3 1.6 0.3
v 0.3 1.5 -0.2
v 0.4 1.5 0
v 0.4 0.9 0
v 0.4 1.5 0.1
v 0.2 0.9 -0.3
v 0.1 1.4 -0.4
v 0 0.3 -0.1
v 0 1.1 -0.4
v -0.1 0.3 -0.1
v -0.1 0.9 -0.3
v -0.1 1.4 -0.4
v 0 1.4 -0.4
v -0.2 1.4 -0.4
v -0.2 1.4 -0.3
v -0.3 1.5 -0.3
v -0.4 1.1 -0.3
v 0.3 1.4 0.2
v 0.2 1.3 0.3
v 0.1 1 0.4
v 0 0.2 0.1
v 0.1 0.2 0.1
v 0 0.6 0.1
v 0 0.9 0.3
v 0 1 0.4
v 0.1 1.3 0.4
v 0 1.3 0.4
v 0.1 1.4 0.4
v 0 0.5 0.1
v -0.1 1.5 0.3
v -0.1 1.8 0.2
v -0.1 1.3 0.4
v -0.3 1.2 0.4
v -0.3 1.3 0.2

vt 0.00585938 0.5
vt 0.0449219 0.5
vt 0.0839844 0.5
vt 0.0996094 0.5

vn 0 1 0
vn 0 -1 0
vn -1 0 0
vn 1 0 0
vn 0 0 -1
vn 0 0 1

usemtl palette
f 1/4/1 2/4/1 4/4/1
f 4/4/1 2/4/1 3/4/1
f 5/4/1 6/4/1 8/4/1
f 8/4/1 6/4/1 7/4/1
f 9/4/1 10/4/1 12/4/1
f 12/4/1 10/4/1 11/4/1
f 13/4/1 14/4/1 16/4/1
f 16/4/1 14/4/1 15/4/1
f 17/4/1 18/4/1 20/4/1
f 20/4/1 18/4/1 19/4/1
f 21/4/1 22/4/1 24/4/1
f 24/4/1 22/4/1 23/4/1
f 22/2/1 25/2/1 23/2/1
f 23/2/1 25/2/1 26/2/1
f 25/4/1 27/4/1 26/4/1
f 26/4/1 27/4/1 28/4/1
f 29/4/1 30/4/1 32/4/1
f 32/4/1 30/4/1 31/4/1
f 33/4/1 34/4/1 36/4/1
f 36/4/1 34/4/1 35/4/1
f 37/4/1 38/4/1 40/4/1
f 40/4/1 38/4/1 39/4/1
f 41/4/1 42/4/1 44/4/1
f 44/4/1 42/4/1 43/4/1
f 45/2/1 46/2/1 48/2/1
f 48/2/1 46/2/1 47/2/1
f 49/2/1 50/2/1 52/2/1
f 52/2/1 50/2/1 51/2/1
f 53/4/1 54/4/1 56/4/1
f 56/4/1 54/4/1 55/4/1
f 57/4/1 58/4/1 60/4/1
f 60/4/1 58/4/1 59/4/1
f 61/4/1 62/4/1 64/4/1
f 64/4/1 62/4/1 63/4/1
f 65/4/1 66/4/1 68/4/1
f 68/4/1 66/4/1 67/4/1
f 69/4/1 70/4/1 72/4/1
f 72/4/1 70/4/1 71/4/1
f 73/4/1 74/4/1 76/4/1
f 76/4/1 74/4/1 75/4/1
f 77/4/1 78/4/1 80/4/1
f 80/4/1 78/4/1 79/4/1
f 78/2/1 81/2/1 83/2/1
f 83/2/1 81/2/1 82/2/1
f 84/3/1 85/3/1 87/3/1
f 87/3/1 85/3/1 86/3/1
f 81/4/1 88/4/1 90/4/1
f 90/4/1 88/4/1 89/4/1
f 85/1/1 91/1/1 86/1/1
f 86/1/1 91/1/1 92/1/1
f 93/4/1 94/4/1 96/4/1
f 96/4/1 94/4/1 95/4/1
f 97/4/1 98/4/1 50/4/1
f 50/4/1 98/4/1 99/4/1
f 100/4/1 101/4/1 103/4/1
f 103/4/1 101/4/1 102/4/1
f 104/4/1 105/4/1 107/4/1
f 107/4/1 105/4/1 106/4/1
f 108/4/1 109/4/1 111/4/1
f 111/4/1 109/4/1 110/4/1
f 112/2/1 113/2/1 74/2/1
f 74/2/1 113/2/1 114/2/1
f 115/1/1 116/1/1 117/1/1
f 117/1/1 116/1/1 84/1/1
f 118/4/1 119/4/1 120/4/1
f 120/4/1 119/4/1 93/4/1
f 121/2/1 122/2/1 88/2/1
f 88/2/1 122/2/1 123/2/1
f 122/4/1 124/4/1 123/4/1
f 123/4/1 124/4/1 97/4/1
f 125/1/1 126/1/1 91/1/1
f 91/1/1 126/1/1 127/1/1
f 128/2/1 129/2/1 131/2/1
f 131/2/1 129/2/1 130/2/1
f 132/4/1 133/4/1 135/4/1
f 135/4/1 133/4/1 134/4/1
f 136/4/1 137/4/1 139/4/1
f 139/4/1 137/4/1 138/4/1
f 140/4/1 141/4/1 143/4/1
f 143/4/1 141/4/1 142/4/1
f 144/4/1 145/4/1 147/4/1
f 147/4/1 145/4/1 146/4/1
f 148/4/1 149/4/1 150/4/1
f 150/4/1 149/4/1 113/4/1
f 151/3/1 152/3/1 115/3/1
f 115/3/1 152/3/1 116/3/1
f 153/2/1 154/2/1 155/2/1
f 155/2/1 154/2/1 121/2/1
f 156/3/1 157/3/1 125/3/1
f 125/3/1 157/3/1 158/3/1
f 159/4/1 160/4/1 162/4/1
f 162/4/1 160/4/1 161/4/1
f 163/4/1 164/4/1 128/4/1
f 128/4/1 164/4/1 129/4/1
f 165/4/1 166/4/1 168/4/1
f 168/4/1 166/4/1 167/4/1
f 169/3/1 170/3/1 171/3/1
f 171/3/1 170/3/1 115/3/1
f 172/4/1 173/4/1 174/4/1
f 174/4/1 173/4/1 149/4/1
f 175/4/1 176/4/1 78/4/1
f 78/4/1 176/4/1 81/4/1
f 176/4/1 177/4/1 153/4/1
f 153/4/1 177/4/1 154/4/1
f 178/1/1 179/1/1 180/1/1
f 180/1/1 179/1/1 156/1/1
f 181/4/1 182/4/1 119/4/1
f 119/4/1 182/4/1 162/4/1
f 183/4/1 184/4/1 186/4/1
f 186/4/1 184/4/1 185/4/1
f 187/4/1 188/4/1 190/4/1
f 190/4/1 188/4/1 189/4/1
f 191/4/1 192/4/1 194/4/1
f 194/4/1 192/4/1 193/4/1
f 195/4/1 196/4/1 198/4/1
f 198/4/1 196/4/1 197/4/1
f 199/2/1 200/2/1 172/2/1
f 172/2/1 200/2/1 173/2/1
f 201/1/1 202/1/1 152/1/1
f 152/1/1 202/1/1 180/1/1
f 200/4/1 203/4/1 173/4/1
f 173/4/1 203/4/1 204/4/1
f 202/3/1 205/3/1 178/3/1
f 178/3/1 205/3/1 179/3/1
f 206/4/1 207/4/1 177/4/1
f 177/4/1 207/4/1 183/4/1
f 208/4/1 209/4/1 211/4/1
f 211/4/1 209/4/1 210/4/1
f 212/4/1 213/4/1 215/4/1
f 215/4/1 213/4/1 214/4/1
f 216/4/1 217/4/1 219/4/1
f 219/4/1 217/4/1 218/4/1
f 220/4/1 221/4/1 223/4/1
f 223/4/1 221/4/1 222/4/1
f 224/2/1 225/2/1 227/2/1
f 227/2/1 225/2/1 226/2/1
f 228/4/1 229/4/1 230/4/1
f 230/4/1 229/4/1 203/4/1
f 231/2/1 232/2/1 234/2/1
f 234/2/1 232/2/1 233/2/1
f 232/4/1 235/4/1 233/4/1
f 233/4/1 235/4/1 236/4/1
f 237/4/1 238/4/1 240/4/1
f 240/4/1 238/4/1 239/4/1
f 241/4/1 242/4/1 244/4/1
f 244/4/1 242/4/1 243/4/1
f 245/4/1 246/4/1 248/4/1
f 248/4/1 246/4/1 247/4/1
f 249/4/1 250/4/1 252/4/1
f 252/4/1 250/4/1 251/4/1
f 253/4/1 254/4/1 225/4/1
f 225/4/1 254/4/1 231/4/1
f 255/4/1 256/4/1 258/4/1
f 258/4/1 256/4/1 257/4/1
f 259/4/1 260/4/1 262/4/1
f 262/4/1 260/4/1 261/4/1
f 263/4/1 264/4/1 266/4/1
f 266/4/1 264/4/1 265/4/1
f 267/4/2 268/4/2 270/4/2
f 270/4/2 268/4/2 269/4/2
f 2/4/2 3/4/2 9/4/2
f 9/4/2 3/4/2 12/4/2
f 271/4/2 272/4/2 274/4/2
f 274/4/2 272/4/2 273/4/2
f 275/4/2 276/4/2 278/4/2
f 278/4/2 276/4/2 277/4/2
f 35/4/2 279/4/2 281/4/2
f 281/4/2 279/4/2 280/4/2
f 282/4/2 283/4/2 285/4/2
f 285/4/2 283/4/2 284/4/2
f 286/4/2 287/4/2 289/4/2
f 289/4/2 287/4/2 288/4/2
f 290/4/2 274/4/2 292/4/2
f 292/4/2 274/4/2 291/4/2
f 67/4/2 293/4/2 294/4/2
f 294/4/2 293/4/2 13/4/2
f 295/4/2 296/4/2 297/4/2
f 297/4/2 296/4/2 17/4/2
f 298/4/2 299/4/2 301/4/2
f 301/4/2 299/4/2 300/4/2
f 302/4/2 303/4/2 304/4/2
f 304/4/2 303/4/2 286/4/2
f 305/4/2 289/4/2 307/4/2
f 307/4/2 289/4/2 306/4/2
f 308/4/2 292/4/2 310/4/2
f 310/4/2 292/4/2 309/4/2
f 311/4/2 312/4/2 314/4/2
f 314/4/2 312/4/2 313/4/2
f 315/4/2 316/4/2 318/4/2
f 318/4/2 316/4/2 317/4/2
f 318/2/2 317/2/2 320/2/2
f 320/2/2 317/2/2 319/2/2
f 321/4/2 322/4/2 324/4/2
f 324/4/2 322/4/2 323/4/2
f 325/2/2 326/2/2 328/2/2
f 328/2/2 326/2/2 327/2/2
f 329/3/2 330/3/2 332/3/2
f 332/3/2 330/3/2 331/3/2
f 328/4/2 333/4/2 335/4/2
f 335/4/2 333/4/2 334/4/2
f 335/2/2 336/2/2 338/2/2
f 338/2/2 336/2/2 337/2/2
f 139/4/2 314/4/2 138/4/2
f 138/4/2 314/4/2 339/4/2
f 143/4/2 65/4/2 142/4/2
f 142/4/2 65/4/2 66/4/2
f 340/4/2 341/4/2 342/4/2
f 342/4/2 341/4/2 37/4/2
f 343/4/2 344/4/2 345/4/2
f 345/4/2 344/4/2 321/4/2
f 345/2/2 321/2/2 346/2/2
f 346/2/2 321/2/2 324/2/2
f 347/1/2 348/1/2 349/1/2
f 349/1/2 348/1/2 332/1/2
f 350/4/2 351/4/2 353/4/2
f 353/4/2 351/4/2 352/4/2
f 354/1/2 355/1/2 357/1/2
f 357/1/2 355/1/2 356/1/2
f 353/4/2 358/4/2 360/4/2
f 360/4/2 358/4/2 359/4/2
f 361/4/2 57/4/2 362/4/2
f 362/4/2 57/4/2 58/4/2
f 168/4/2 363/4/2 167/4/2
f 167/4/2 363/4/2 364/4/2
f 365/4/2 104/4/2 366/4/2
f 366/4/2 104/4/2 105/4/2
f 367/4/2 368/4/2 370/4/2
f 370/4/2 368/4/2 369/4/2
f 371/4/2 372/4/2 374/4/2
f 374/4/2 372/4/2 373/4/2
f 375/3/2 347/3/2 377/3/2
f 377/3/2 347/3/2 376/3/2
f 378/3/2 354/3/2 380/3/2
f 380/3/2 354/3/2 379/3/2
f 381/2/2 350/2/2 382/2/2
f 382/2/2 350/2/2 353/2/2
f 383/4/2 384/4/2 386/4/2
f 386/4/2 384/4/2 385/4/2
f 387/4/2 388/4/2 390/4/2
f 390/4/2 388/4/2 389/4/2
f 391/4/2 392/4/2 393/4/2
f 393/4/2 392/4/2 370/4/2
f 394/3/2 395/3/2 396/3/2
f 396/3/2 395/3/2 347/3/2
f 397/2/2 398/2/2 400/2/2
f 400/2/2 398/2/2 399/2/2
f 401/4/2 325/4/2 402/4/2
f 402/4/2 325/4/2 328/4/2
f 402/2/2 403/2/2 405/2/2
f 405/2/2 403/2/2 404/2/2
f 406/1/2 331/1/2 408/1/2
f 408/1/2 331/1/2 407/1/2
f 405/4/2 404/4/2 409/4/2
f 409/4/2 404/4/2 382/4/2
f 410/4/2 411/4/2 413/4/2
f 413/4/2 411/4/2 412/4/2
f 214/4/2 165/4/2 414/4/2
f 414/4/2 165/4/2 166/4/2
f 415/4/2 416/4/2 223/4/2
f 223/4/2 416/4/2 417/4/2
f 418/4/2 397/4/2 420/4/2
f 420/4/2 397/4/2 419/4/2
f 421/1/2 376/1/2 422/1/2
f 422/1/2 376/1/2 349/1/2
f 423/4/2 402/4/2 424/4/2
f 424/4/2 402/4/2 405/4/2
f 422/3/2 406/3/2 425/3/2
f 425/3/2 406/3/2 408/3/2
f 426/2/2 427/2/2 429/2/2
f 429/2/2 427/2/2 428/2/2
f 430/4/2 431/4/2 432/4/2
f 432/4/2 431/4/2 409/4/2
f 433/4/2 434/4/2 436/4/2
f 436/4/2 434/4/2 435/4/2
f 437/4/2 438/4/2 440/4/2
f 440/4/2 438/4/2 439/4/2
f 441/4/2 442/4/2 248/4/2
f 248/4/2 442/4/2 443/4/2
f 444/4/2 445/4/2 446/4/2
f 446/4/2 445/4/2 420/4/2
f 447/4/2 448/4/2 237/4/2
f 237/4/2 448/4/2 240/4/2
f 449/4/2 450/4/2 451/4/2
f 451/4/2 450/4/2 384/4/2
f 261/4/2 452/4/2 453/4/2
f 453/4/2 452/4/2 433/4/2
f 454/4/2 217/4/2 456/4/2
f 456/4/2 217/4/2 455/4/2
f 457/4/2 458/4/2 459/4/2
f 459/4/2 458/4/2 448/4/2
f 246/4/2 247/4/2 255/4/2
f 255/4/2 247/4/2 258/4/2
f 250/4/2 251/4/2 259/4/2
f 259/4/2 251/4/2 262/4/2
f 460/4/2 461/4/2 462/4/2
f 462/4/2 461/4/2 237/4/2
f 463/4/2 464/4/2 465/4/2
f 465/4/2 464/4/2 241/4/2
f 92/1/3 91/1/3 407/1/3
f 407/1/3 91/1/3 355/1/3
f 127/1/3 126/1/3 356/1/3
f 356/1/3 126/1/3 357/1/3
f 158/3/3 157/3/3 379/3/3
f 379/3/3 157/3/3 380/3/3
f 151/3/3 170/3/3 375/3/3
f 375/3/3 170/3/3 396/3/3
f 156/1/3 179/1/3 378/1/3
f 378/1/3 179/1/3 408/1/3
f 179/3/3 205/3/3 408/3/3
f 408/3/3 205/3/3 425/3/3
f 466/1/3 467/1/3 91/1/3
f 91/1/3 467/1/3 156/1/3
f 468/3/3 469/3/3 466/3/3
f 466/3/3 469/3/3 470/3/3
f 471/1/3 472/1/3 468/1/3
f 468/1/3 472/1/3 469/1/3
f 338/3/3 350/3/3 471/3/3
f 471/3/3 350/3/3 472/3/3
f 350/1/3 381/1/3 470/1/3
f 470/1/3 381/1/3 467/1/3
f 303/4/3 302/4/3 334/4/3
f 334/4/3 302/4/3 336/4/3
f 289/4/3 305/4/3 352/4/3
f 352/4/3 305/4/3 358/4/3
f 473/4/3 384/4/3 359/4/3
f 359/4/3 384/4/3 360/4/3
f 450/2/3 474/2/3 353/2/3
f 353/2/3 474/2/3 382/2/3
f 427/4/3 426/4/3 405/4/3
f 405/4/3 426/4/3 424/4/3
f 474/4/3 475/4/3 382/4/3
f 382/4/3 475/4/3 432/4/3
f 283/4/3 282/4/3 300/4/3
f 300/4/3 282/4/3 476/4/3
f 477/4/3 478/4/3 288/4/3
f 288/4/3 478/4/3 289/4/3
f 59/4/3 58/4/3 306/4/3
f 306/4/3 58/4/3 307/4/3
f 57/2/3 361/2/3 473/2/3
f 473/2/3 361/2/3 384/2/3
f 458/4/3 479/4/3 420/4/3
f 420/4/3 479/4/3 446/4/3
f 411/4/3 238/4/3 383/4/3
f 383/4/3 238/4/3 451/4/3
f 274/2/3 290/2/3 477/2/3
f 477/2/3 290/2/3 478/2/3
f 292/4/3 308/4/3 60/4/3
f 60/4/3 308/4/3 57/4/3
f 310/4/3 480/4/3 58/4/3
f 58/4/3 480/4/3 362/4/3
f 480/4/3 387/4/3 385/4/3
f 385/4/3 387/4/3 386/4/3
f 387/4/3 435/4/3 412/4/3
f 412/4/3 435/4/3 413/4/3
f 434/2/3 433/2/3 410/2/3
f 410/2/3 433/2/3 239/2/3
f 251/4/3 250/4/3 447/4/3
f 447/4/3 250/4/3 459/4/3
f 452/4/3 260/4/3 240/4/3
f 240/4/3 260/4/3 462/4/3
f 63/4/3 62/4/3 309/4/3
f 309/4/3 62/4/3 310/4/3
f 134/4/3 481/4/3 389/4/3
f 389/4/3 481/4/3 390/4/3
f 482/2/3 483/2/3 387/2/3
f 387/2/3 483/2/3 435/2/3
f 243/4/3 242/4/3 433/4/3
f 433/4/3 242/4/3 453/4/3
f 464/4/3 463/4/3 262/4/3
f 262/4/3 463/4/3 259/4/3
f 3/4/3 2/4/3 269/4/3
f 269/4/3 2/4/3 270/4/3
f 11/4/3 10/4/3 273/4/3
f 273/4/3 10/4/3 274/4/3
f 484/2/3 485/2/3 64/2/3
f 64/2/3 485/2/3 61/2/3
f 486/2/3 363/2/3 310/2/3
f 310/2/3 363/2/3 388/2/3
f 363/2/3 168/2/3 135/2/3
f 135/2/3 168/2/3 132/2/3
f 167/4/3 166/4/3 133/4/3
f 133/4/3 166/4/3 481/4/3
f 165/4/3 214/4/3 482/4/3
f 482/4/3 214/4/3 483/4/3
f 214/4/3 213/4/3 435/4/3
f 435/4/3 213/4/3 436/4/3
f 487/4/3 264/4/3 244/4/3
f 244/4/3 264/4/3 465/4/3
f 31/4/3 30/4/3 291/4/3
f 291/4/3 30/4/3 292/4/3
f 488/4/3 489/4/3 486/4/3
f 486/4/3 489/4/3 363/4/3
f 490/4/3 194/4/3 168/4/3
f 168/4/3 194/4/3 165/4/3
f 193/4/3 192/4/3 166/4/3
f 166/4/3 192/4/3 414/4/3
f 491/4/3 492/4/3 215/4/3
f 215/4/3 492/4/3 212/4/3
f 493/2/3 494/2/3 487/2/3
f 487/2/3 494/2/3 265/2/3
f 247/4/3 246/4/3 455/4/3
f 455/4/3 246/4/3 456/4/3
f 257/4/3 256/4/3 266/4/3
f 266/4/3 256/4/3 263/4/3
f 7/4/3 6/4/3 12/4/3
f 12/4/3 6/4/3 9/4/3
f 495/2/3 496/2/3 32/2/3
f 32/2/3 496/2/3 29/2/3
f 312/4/3 311/4/3 484/4/3
f 484/4/3 311/4/3 485/4/3
f 314/2/3 139/2/3 488/2/3
f 488/2/3 139/2/3 489/2/3
f 138/4/3 137/4/3 364/4/3
f 364/4/3 137/4/3 167/4/3
f 136/2/3 497/2/3 490/2/3
f 490/2/3 497/2/3 194/2/3
f 498/2/3 499/2/3 491/2/3
f 491/2/3 499/2/3 492/2/3
f 28/4/3 27/4/3 495/4/3
f 495/4/3 27/4/3 496/4/3
f 189/4/3 103/4/3 313/4/3
f 313/4/3 103/4/3 314/4/3
f 102/4/3 101/4/3 339/4/3
f 339/4/3 101/4/3 138/4/3
f 100/4/3 500/4/3 139/4/3
f 139/4/3 500/4/3 497/4/3
f 500/4/3 188/4/3 194/4/3
f 194/4/3 188/4/3 191/4/3
f 236/4/3 235/4/3 493/4/3
f 493/4/3 235/4/3 494/4/3
f 231/4/3 254/4/3 258/4/3
f 258/4/3 254/4/3 255/4/3
f 55/4/3 130/4/3 190/4/3
f 190/4/3 130/4/3 501/4/3
f 130/2/3 129/2/3 501/2/3
f 501/2/3 129/2/3 502/2/3
f 129/4/3 210/4/3 502/4/3
f 502/4/3 210/4/3 187/4/3
f 210/4/3 209/4/3 498/4/3
f 498/4/3 209/4/3 499/4/3
f 203/4/3 229/4/3 234/4/3
f 234/4/3 229/4/3 231/4/3
f 79/4/3 83/4/3 44/4/3
f 44/4/3 83/4/3 41/4/3
f 89/4/3 503/4/3 48/4/3
f 48/4/3 503/4/3 45/4/3
f 51/2/3 50/2/3 56/2/3
f 56/2/3 50/2/3 53/2/3
f 99/4/3 98/4/3 54/4/3
f 54/4/3 98/4/3 130/4/3
f 97/4/3 124/4/3 131/4/3
f 131/4/3 124/4/3 128/4/3
f 124/2/3 504/2/3 128/2/3
f 128/2/3 504/2/3 163/2/3
f 185/4/3 184/4/3 164/4/3
f 164/4/3 184/4/3 210/4/3
f 183/4/3 207/4/3 211/4/3
f 211/4/3 207/4/3 208/4/3
f 95/4/3 94/4/3 50/4/3
f 50/4/3 94/4/3 97/4/3
f 93/4/3 119/4/3 88/4/3
f 88/4/3 119/4/3 121/4/3
f 161/4/3 160/4/3 124/4/3
f 124/4/3 160/4/3 504/4/3
f 159/4/3 182/4/3 186/4/3
f 186/4/3 182/4/3 183/4/3
f 87/3/4 330/3/4 84/3/4
f 84/3/4 330/3/4 329/3/4
f 117/1/4 348/1/4 115/1/4
f 115/1/4 348/1/4 347/1/4
f 171/3/4 395/3/4 169/3/4
f 169/3/4 395/3/4 394/3/4
f 152/1/4 377/1/4 201/1/4
f 201/1/4 377/1/4 421/1/4
f 505/3/4 116/3/4 506/3/4
f 506/3/4 116/3/4 152/3/4
f 507/1/4 84/1/4 508/1/4
f 508/1/4 84/1/4 116/1/4
f 328/3/4 507/3/4 509/3/4
f 509/3/4 507/3/4 508/3/4
f 509/1/4 505/1/4 403/1/4
f 403/1/4 505/1/4 506/1/4
f 476/4/4 333/4/4 301/4/4
f 301/4/4 333/4/4 327/4/4
f 286/4/4 351/4/4 304/4/4
f 304/4/4 351/4/4 337/4/4
f 298/2/4 326/2/4 324/2/4
f 324/2/4 326/2/4 325/2/4
f 324/4/4 325/4/4 346/4/4
f 346/4/4 325/4/4 373/4/4
f 399/4/4 374/4/4 400/4/4
f 400/4/4 374/4/4 401/4/4
f 419/4/4 402/4/4 420/4/4
f 420/4/4 402/4/4 423/4/4
f 428/4/4 431/4/4 429/4/4
f 429/4/4 431/4/4 430/4/4
f 277/4/4 299/4/4 278/4/4
f 278/4/4 299/4/4 323/4/4
f 284/4/4 287/4/4 285/4/4
f 285/4/4 287/4/4 286/4/4
f 319/4/4 510/4/4 320/4/4
f 320/4/4 510/4/4 321/4/4
f 369/4/4 372/4/4 370/4/4
f 370/4/4 372/4/4 371/4/4
f 370/2/4 398/2/4 393/2/4
f 393/2/4 398/2/4 397/2/4
f 393/4/4 397/4/4 511/4/4
f 511/4/4 397/4/4 418/4/4
f 240/4/4 475/4/4 237/4/4
f 237/4/4 475/4/4 449/4/4
f 16/4/4 276/4/4 13/4/4
f 13/4/4 276/4/4 275/4/4
f 13/4/4 322/4/4 294/4/4
f 294/4/4 322/4/4 510/4/4
f 68/4/4 316/4/4 65/4/4
f 65/4/4 316/4/4 315/4/4
f 66/4/4 344/4/4 142/4/4
f 142/4/4 344/4/4 343/4/4
f 143/4/4 368/4/4 140/4/4
f 140/4/4 368/4/4 367/4/4
f 512/2/4 393/2/4 438/2/4
f 438/2/4 393/2/4 511/2/4
f 439/4/4 445/4/4 440/4/4
f 440/4/4 445/4/4 444/4/4
f 252/4/4 479/4/4 249/4/4
f 249/4/4 479/4/4 457/4/4
f 262/4/4 461/4/4 259/4/4
f 259/4/4 461/4/4 460/4/4
f 280/4/4 15/4/4 281/4/4
f 281/4/4 15/4/4 14/4/4
f 36/4/4 293/4/4 106/4/4
f 106/4/4 293/4/4 66/4/4
f 107/4/4 65/4/4 104/4/4
f 104/4/4 65/4/4 143/4/4
f 105/2/4 142/2/4 366/2/4
f 366/2/4 142/2/4 141/2/4
f 219/4/4 438/4/4 216/4/4
f 216/4/4 438/4/4 437/4/4
f 4/4/4 268/4/4 1/4/4
f 1/4/4 268/4/4 267/4/4
f 12/4/4 272/4/4 9/4/4
f 9/4/4 272/4/4 271/4/4
f 20/4/4 279/4/4 297/4/4
f 297/4/4 279/4/4 34/4/4
f 513/4/4 512/4/4 514/4/4
f 514/4/4 512/4/4 438/4/4
f 515/2/4 218/2/4 516/2/4
f 516/2/4 218/2/4 217/2/4
f 40/4/4 296/4/4 37/4/4
f 37/4/4 296/4/4 295/4/4
f 37/4/4 33/4/4 342/4/4
f 342/4/4 33/4/4 105/4/4
f 517/4/4 392/4/4 518/4/4
f 518/4/4 392/4/4 391/4/4
f 519/2/4 513/2/4 442/2/4
f 442/2/4 513/2/4 514/2/4
f 443/4/4 515/4/4 248/4/4
f 248/4/4 515/4/4 516/4/4
f 248/4/4 217/4/4 245/4/4
f 245/4/4 217/4/4 454/4/4
f 258/4/4 251/4/4 255/4/4
f 255/4/4 251/4/4 250/4/4
f 8/4/4 3/4/4 5/4/4
f 5/4/4 3/4/4 2/4/4
f 72/4/4 341/4/4 147/4/4
f 147/4/4 341/4/4 340/4/4
f 147/4/4 104/4/4 144/4/4
f 144/4/4 104/4/4 365/4/4
f 145/2/4 517/2/4 416/2/4
f 416/2/4 517/2/4 518/2/4
f 417/4/4 519/4/4 220/4/4
f 220/4/4 519/4/4 441/4/4
f 24/4/4 19/4/4 21/4/4
f 21/4/4 19/4/4 18/4/4
f 520/4/4 39/4/4 521/4/4
f 521/4/4 39/4/4 38/4/4
f 111/4/4 69/4/4 108/4/4
f 108/4/4 69/4/4 147/4/4
f 198/4/4 145/4/4 195/4/4
f 195/4/4 145/4/4 415/4/4
f 227/2/4 222/2/4 224/2/4
f 224/2/4 222/2/4 221/2/4
f 225/4/4 247/4/4 253/4/4
f 253/4/4 247/4/4 246/4/4
f 522/2/4 520/2/4 75/2/4
f 75/2/4 520/2/4 521/2/4
f 76/4/4 71/4/4 73/4/4
f 73/4/4 71/4/4 70/4/4
f 74/2/4 110/2/4 112/2/4
f 112/2/4 110/2/4 109/2/4
f 150/4/4 146/4/4 148/4/4
f 148/4/4 146/4/4 145/4/4
f 174/4/4 197/4/4 172/4/4
f 172/4/4 197/4/4 523/4/4
f 172/2/4 523/2/4 199/2/4
f 199/2/4 523/2/4 196/2/4
f 230/4/4 226/4/4 228/4/4
f 228/4/4 226/4/4 225/4/4
f 90/4/4 43/4/4 82/4/4
f 82/4/4 43/4/4 42/4/4
f 52/2/4 47/2/4 49/2/4
f 49/2/4 47/2/4 46/2/4
f 80/4/4 522/4/4 77/4/4
f 77/4/4 522/4/4 74/4/4
f 78/4/4 114/4/4 175/4/4
f 175/4/4 114/4/4 173/4/4
f 177/4/4 204/4/4 206/4/4
f 206/4/4 204/4/4 203/4/4
f 96/4/4 503/4/4 93/4/4
f 93/4/4 503/4/4 88/4/4
f 120/4/4 81/4/4 118/4/4
f 118/4/4 81/4/4 155/4/4
f 119/4/4 121/4/4 181/4/4
f 181/4/4 121/4/4 177/4/4
f 318/4/5 66/4/5 315/4/5
f 315/4/5 66/4/5 65/4/5
f 392/4/5 141/4/5 367/4/5
f 367/4/5 141/4/5 140/4/5
f 142/4/5 105/4/5 143/4/5
f 143/4/5 105/4/5 104/4/5
f 366/4/5 145/4/5 365/4/5
f 365/4/5 145/4/5 144/4/5
f 146/4/5 524/4/5 147/4/5
f 147/4/5 524/4/5 108/4/5
f 345/4/5 369/4/5 343/4/5
f 343/4/5 369/4/5 525/4/5
f 393/4/5 519/4/5 391/4/5
f 391/4/5 519/4/5 518/4/5
f 519/2/5 417/2/5 518/2/5
f 518/2/5 417/2/5 416/2/5
f 110/4/5 74/4/5 526/4/5
f 526/4/5 74/4/5 73/4/5
f 197/4/5 174/4/5 198/4/5
f 198/4/5 174/4/5 148/4/5
f 396/3/5 170/3/5 394/3/5
f 394/3/5 170/3/5 169/3/5
f 374/4/5 399/4/5 371/4/5
f 371/4/5 399/4/5 398/4/5
f 445/4/5 527/4/5 418/4/5
f 418/4/5 527/4/5 511/4/5
f 527/2/5 439/2/5 511/2/5
f 511/2/5 439/2/5 438/2/5
f 218/4/5 515/4/5 219/4/5
f 219/4/5 515/4/5 514/4/5
f 515/2/5 443/2/5 514/2/5
f 514/2/5 443/2/5 442/2/5
f 222/4/5 227/4/5 415/4/5
f 415/4/5 227/4/5 195/4/5
f 227/2/5 200/2/5 196/2/5
f 196/2/5 200/2/5 199/2/5
f 114/4/5 78/4/5 74/4/5
f 74/4/5 78/4/5 77/4/5
f 377/3/5 152/3/5 375/3/5
f 375/3/5 152/3/5 151/3/5
f 402/4/5 419/4/5 401/4/5
f 401/4/5 419/4/5 400/4/5
f 446/4/5 252/4/5 444/4/5
f 444/4/5 252/4/5 440/4/5
f 252/4/5 455/4/5 437/4/5
f 437/4/5 455/4/5 216/4/5
f 456/4/5 246/4/5 454/4/5
f 454/4/5 246/4/5 245/4/5
f 247/4/5 528/4/5 441/4/5
f 441/4/5 528/4/5 220/4/5
f 528/2/5 225/2/5 221/2/5
f 221/2/5 225/2/5 224/2/5
f 226/4/5 230/4/5 227/4/5
f 227/4/5 230/4/5 200/4/5
f 422/1/5 202/1/5 421/1/5
f 421/1/5 202/1/5 201/1/5
f 180/3/5 529/3/5 152/3/5
f 152/3/5 529/3/5 506/3/5
f 424/4/5 448/4/5 423/4/5
f 423/4/5 448/4/5 458/4/5
f 459/4/5 250/4/5 457/4/5
f 457/4/5 250/4/5 249/4/5
f 251/2/5 530/2/5 252/2/5
f 252/2/5 530/2/5 455/2/5
f 530/4/5 258/4/5 455/4/5
f 455/4/5 258/4/5 247/4/5
f 255/4/5 254/4/5 246/4/5
f 246/4/5 254/4/5 253/4/5
f 231/4/5 229/4/5 225/4/5
f 225/4/5 229/4/5 228/4/5
f 204/4/5 177/4/5 173/4/5
f 173/4/5 177/4/5 175/4/5
f 121/4/5 119/4/5 155/4/5
f 155/4/5 119/4/5 118/4/5
f 425/3/5 205/3/5 422/3/5
f 422/3/5 205/3/5 202/3/5
f 156/1/5 531/1/5 180/1/5
f 180/1/5 531/1/5 529/1/5
f 531/1/5 381/1/5 506/1/5
f 506/1/5 381/1/5 403/1/5
f 431/4/5 428/4/5 405/4/5
f 405/4/5 428/4/5 427/4/5
f 429/2/5 532/2/5 426/2/5
f 426/2/5 532/2/5 448/2/5
f 461/4/5 262/4/5 447/4/5
f 447/4/5 262/4/5 251/4/5
f 259/4/5 256/4/5 250/4/5
f 250/4/5 256/4/5 255/4/5
f 533/2/5 232/2/5 534/2/5
f 534/2/5 232/2/5 231/2/5
f 208/4/5 207/4/5 203/4/5
f 203/4/5 207/4/5 206/4/5
f 183/4/5 182/4/5 177/4/5
f 177/4/5 182/4/5 181/4/5
f 380/3/5 157/3/5 378/3/5
f 378/3/5 157/3/5 156/3/5
f 432/4/5 240/4/5 430/4/5
f 430/4/5 240/4/5 532/4/5
f 462/4/5 260/4/5 460/4/5
f 460/4/5 260/4/5 259/4/5
f 465/4/5 264/4/5 463/4/5
f 463/4/5 264/4/5 263/4/5
f 265/2/5 494/2/5 266/2/5
f 266/2/5 494/2/5 257/2/5
f 494/4/5 535/4/5 258/4/5
f 258/4/5 535/4/5 534/4/5
f 535/4/5 235/4/5 533/4/5
f 533/4/5 235/4/5 232/4/5
f 97/4/5 94/4/5 88/4/5
f 88/4/5 94/4/5 93/4/5
f 504/4/5 160/4/5 186/4/5
f 186/4/5 160/4/5 159/4/5
f 357/1/5 126/1/5 379/1/5
f 379/1/5 126/1/5 158/1/5
f 360/4/5 384/4/5 353/4/5
f 353/4/5 384/4/5 450/4/5
f 451/4/5 238/4/5 449/4/5
f 449/4/5 238/4/5 237/4/5
f 239/2/5 433/2/5 240/2/5
f 240/2/5 433/2/5 452/2/5
f 453/4/5 242/4/5 262/4/5
f 262/4/5 242/4/5 464/4/5
f 212/4/5 492/4/5 487/4/5
f 487/4/5 492/4/5 493/4/5
f 492/2/5 499/2/5 493/2/5
f 493/2/5 499/2/5 536/2/5
f 499/4/5 537/4/5 536/4/5
f 536/4/5 537/4/5 236/4/5
f 537/4/5 209/4/5 234/4/5
f 234/4/5 209/4/5 203/4/5
f 130/4/5 98/4/5 131/4/5
f 131/4/5 98/4/5 97/4/5
f 210/4/5 184/4/5 211/4/5
f 211/4/5 184/4/5 183/4/5
f 307/4/5 58/4/5 473/4/5
f 473/4/5 58/4/5 57/4/5
f 386/4/5 412/4/5 383/4/5
f 383/4/5 412/4/5 411/4/5
f 413/4/5 435/4/5 410/4/5
f 410/4/5 435/4/5 434/4/5
f 436/4/5 538/4/5 433/4/5
f 433/4/5 538/4/5 243/4/5
f 538/4/5 213/4/5 244/4/5
f 244/4/5 213/4/5 487/4/5
f 191/4/5 188/4/5 491/4/5
f 491/4/5 188/4/5 187/4/5
f 390/4/5 166/4/5 387/4/5
f 387/4/5 166/4/5 165/4/5
f 414/4/5 192/4/5 215/4/5
f 215/4/5 192/4/5 491/4/5
f 167/4/5 137/4/5 168/4/5
f 168/4/5 137/4/5 136/4/5
f 138/4/5 101/4/5 139/4/5
f 139/4/5 101/4/5 100/4/5
f 317/4/6 316/4/6 67/4/6
f 67/4/6 316/4/6 68/4/6
f 525/4/6 368/4/6 142/4/6
f 142/4/6 368/4/6 143/4/6
f 66/4/6 65/4/6 106/4/6
f 106/4/6 65/4/6 107/4/6
f 105/4/6 104/4/6 342/4/6
f 342/4/6 104/4/6 340/4/6
f 70/4/6 69/4/6 526/4/6
f 526/4/6 69/4/6 111/4/6
f 321/4/6 344/4/6 320/4/6
f 320/4/6 344/4/6 318/4/6
f 319/2/6 317/2/6 294/2/6
f 294/2/6 317/2/6 67/2/6
f 34/4/6 33/4/6 297/4/6
f 297/4/6 33/4/6 295/4/6
f 17/4/6 296/4/6 39/4/6
f 39/4/6 296/4/6 40/4/6
f 38/4/6 341/4/6 539/4/6
f 539/4/6 341/4/6 72/4/6
f 539/4/6 71/4/6 75/4/6
f 75/4/6 71/4/6 76/4/6
f 109/4/6 524/4/6 112/4/6
f 112/4/6 524/4/6 150/4/6
f 347/3/6 395/3/6 115/3/6
f 115/3/6 395/3/6 171/3/6
f 373/4/6 372/4/6 346/4/6
f 346/4/6 372/4/6 345/4/6
f 323/4/6 322/4/6 278/4/6
f 278/4/6 322/4/6 275/4/6
f 14/4/6 293/4/6 281/4/6
f 281/4/6 293/4/6 36/4/6
f 18/2/6 17/2/6 540/2/6
f 540/2/6 17/2/6 39/2/6
f 540/4/6 39/4/6 21/4/6
f 21/4/6 39/4/6 520/4/6
f 21/2/6 520/2/6 44/2/6
f 44/2/6 520/2/6 522/2/6
f 44/4/6 522/4/6 79/4/6
f 79/4/6 522/4/6 80/4/6
f 329/1/6 348/1/6 84/1/6
f 84/1/6 348/1/6 117/1/6
f 327/2/6 326/2/6 301/2/6
f 301/2/6 326/2/6 298/2/6
f 300/4/6 299/4/6 283/4/6
f 283/4/6 299/4/6 277/4/6
f 541/4/6 15/4/6 267/4/6
f 267/4/6 15/4/6 280/4/6
f 267/4/6 279/4/6 1/4/6
f 1/4/6 279/4/6 20/4/6
f 1/4/6 19/4/6 23/4/6
f 23/4/6 19/4/6 24/4/6
f 42/2/6 41/2/6 82/2/6
f 82/2/6 41/2/6 83/2/6
f 331/3/6 330/3/6 86/3/6
f 86/3/6 330/3/6 87/3/6
f 542/1/6 543/1/6 544/1/6
f 544/1/6 543/1/6 507/1/6
f 334/4/6 333/4/6 545/4/6
f 545/4/6 333/4/6 282/4/6
f 546/2/6 541/2/6 270/2/6
f 270/2/6 541/2/6 267/2/6
f 269/4/6 268/4/6 3/4/6
f 3/4/6 268/4/6 4/4/6
f 2/2/6 1/2/6 548/2/6
f 548/2/6 1/2/6 547/2/6
f 548/4/6 547/4/6 5/4/6
f 5/4/6 547/4/6 549/4/6
f 5/2/6 549/2/6 26/2/6
f 26/2/6 549/2/6 23/2/6
f 25/4/6 21/4/6 48/4/6
f 48/4/6 21/4/6 44/4/6
f 48/4/6 43/4/6 89/4/6
f 89/4/6 43/4/6 90/4/6
f 88/4/6 81/4/6 93/4/6
f 93/4/6 81/4/6 120/4/6
f 407/1/6 331/1/6 92/1/6
f 92/1/6 331/1/6 86/1/6
f 91/1/6 84/1/6 466/1/6
f 466/1/6 84/1/6 543/1/6
f 466/3/6 542/3/6 468/3/6
f 468/3/6 542/3/6 550/3/6
f 468/1/6 550/1/6 471/1/6
f 471/1/6 550/1/6 544/1/6
f 471/3/6 507/3/6 338/3/6
f 338/3/6 507/3/6 328/3/6
f 337/2/6 336/2/6 304/2/6
f 304/2/6 336/2/6 302/2/6
f 286/4/6 303/4/6 285/4/6
f 285/4/6 303/4/6 545/4/6
f 284/4/6 276/4/6 271/4/6
f 271/4/6 276/4/6 16/4/6
f 271/4/6 546/4/6 9/4/6
f 9/4/6 546/4/6 2/4/6
f 12/4/6 3/4/6 7/4/6
f 7/4/6 3/4/6 8/4/6
f 551/2/6 25/2/6 47/2/6
f 47/2/6 25/2/6 48/2/6
f 46/4/6 45/4/6 552/4/6
f 552/4/6 45/4/6 96/4/6
f 352/4/6 351/4/6 289/4/6
f 289/4/6 351/4/6 286/4/6
f 288/4/6 287/4/6 477/4/6
f 477/4/6 287/4/6 284/4/6
f 477/2/6 284/2/6 274/2/6
f 274/2/6 284/2/6 271/2/6
f 273/4/6 272/4/6 11/4/6
f 11/4/6 272/4/6 12/4/6
f 32/2/6 553/2/6 495/2/6
f 495/2/6 553/2/6 6/2/6
f 495/4/6 5/4/6 28/4/6
f 28/4/6 5/4/6 26/4/6
f 56/2/6 47/2/6 51/2/6
f 51/2/6 47/2/6 52/2/6
f 50/4/6 49/4/6 95/4/6
f 95/4/6 49/4/6 552/4/6
f 124/4/6 121/4/6 161/4/6
f 161/4/6 121/4/6 119/4/6
f 356/1/6 355/1/6 127/1/6
f 127/1/6 355/1/6 91/1/6
f 359/4/6 358/4/6 473/4/6
f 473/4/6 358/4/6 305/4/6
f 60/4/6 478/4/6 292/4/6
f 292/4/6 478/4/6 290/4/6
f 291/4/6 274/4/6 554/4/6
f 554/4/6 274/4/6 10/4/6
f 554/4/6 9/4/6 31/4/6
f 31/4/6 9/4/6 553/4/6
f 30/4/6 29/4/6 190/4/6
f 190/4/6 29/4/6 27/4/6
f 190/4/6 551/4/6 55/4/6
f 55/4/6 551/4/6 47/4/6
f 54/4/6 53/4/6 99/4/6
f 99/4/6 53/4/6 50/4/6
f 164/4/6 163/4/6 185/4/6
f 185/4/6 163/4/6 504/4/6
f 306/4/6 289/4/6 59/4/6
f 59/4/6 289/4/6 478/4/6
f 385/4/6 384/4/6 362/4/6
f 362/4/6 384/4/6 361/4/6
f 58/4/6 57/4/6 310/4/6
f 310/4/6 57/4/6 308/4/6
f 309/4/6 292/4/6 63/4/6
f 63/4/6 292/4/6 64/4/6
f 62/2/6 61/2/6 486/2/6
f 486/2/6 61/2/6 485/2/6
f 486/4/6 485/4/6 488/4/6
f 488/4/6 485/4/6 555/4/6
f 488/2/6 555/2/6 314/2/6
f 314/2/6 555/2/6 311/2/6
f 313/4/6 312/4/6 189/4/6
f 189/4/6 312/4/6 190/4/6
f 389/4/6 388/4/6 134/4/6
f 134/4/6 388/4/6 135/4/6
f 133/4/6 132/4/6 167/4/6
f 167/4/6 132/4/6 168/4/6
f 166/4/6 165/4/6 193/4/6
f 193/4/6 165/4/6 194/4/6
f 364/4/6 363/4/6 138/4/6
f 138/4/6 363/4/6 139/4/6
f 339/4/6 314/4/6 102/4/6
f 102/4/6 314/4/6 103/4/6
