# Vengi binary mesh normalized for Tanks of Freedom II

mtllib ../../../materials/vox_grass.mtl
o tree_stump_big_2

v 0.1 0.1 0.2
v 0 0.1 0.2
v 0 0.1 0.3
v 0.1 0.1 0.3
v 0 0.2 0.2
v -0.1 0.2 0.2
v -0.1 0.2 0.3
v 0 0.2 0.3
v 0.2 0.3 0.1
v 0.1 0.3 0.1
v 0.1 0.3 0.2
v 0.2 0.3 0.2
v -0.1 0.3 0.1
v -0.2 0.3 0.1
v -0.2 0.3 0.2
v -0.1 0.3 0.2
v -0.2 0.1 0.1
v -0.3 0.1 0.1
v -0.3 0.1 0.2
v -0.2 0.1 0.2
v 0.3 0.1 0
v 0.2 0.1 0
v 0.2 0.1 0.1
v 0.3 0.1 0.1
v -0.2 0.4 0
v -0.3 0.4 0
v -0.3 0.4 0.1
v -0.2 0.4 0.1
v 0.3 0.3 -0.1
v 0.2 0.3 -0.1
v 0.2 0.3 0
v 0.3 0.3 0
v 0.2 0.4 -0.1
v 0.1 0.4 -0.1
v 0.1 0.4 0.1
v 0.2 0.4 0.1
v -0.1 0.4 -0.1
v -0.2 0.4 -0.1
v -0.1 0.4 0.1
v -0.2 0.2 -0.1
v -0.3 0.2 -0.1
v -0.3 0.2 0
v -0.2 0.2 0
v 0.3 0.1 -0.2
v 0.2 0.1 -0.2
v 0.2 0.1 -0.1
v 0.3 0.1 -0.1
v 0.2 0.3 -0.2
v 0.1 0.3 -0.2
v 0.1 0.3 -0.1
v 0.1 0.4 -0.2
v -0.1 0.4 -0.2
v -0.1 0.4 0.2
v 0.1 0.4 0.2
v -0.1 0.3 -0.2
v -0.2 0.3 -0.2
v -0.2 0.3 -0.1
v -0.1 0.3 -0.1
v 0.2 0.1 -0.3
v 0.1 0.1 -0.3
v 0.1 0.1 -0.2
v 0.1 0.3 -0.3
v 0 0.3 -0.3
v 0 0.3 -0.2
v 0 0.2 -0.3
v -0.1 0.2 -0.3
v -0.1 0.2 -0.2
v 0 0.2 -0.2
v 0 0 0.2
v 0 0 0.3
v -0.1 0 0.3
v -0.1 0 0.2
v 0.2 0 0.1
v 0.2 0 0.2
v 0.1 0 0.2
v 0.1 0 0.1
v -0.2 0 0
v -0.2 0 0.2
v -0.3 0 0.2
v -0.3 0 0
v -0.1 0 -0.1
v -0.2 0 -0.1
v -0.3 0 -0.1
v 0.3 0 -0.2
v 0.3 0 0.1
v 0.1 0 -0.2
v 0 0 -0.2
v -0.1 0 -0.2
v -0.2 0 -0.2
v 0.2 0 -0.3
v 0.2 0 -0.2
v 0.1 0 -0.3
v 0.1 0 0.3
v 0 0 -0.3
v -0.1 0 -0.3
v -0.1 0.1 0.3
v -0.1 0.1 0.2
v -0.3 0.1 0
v -0.3 0.1 -0.1
v -0.2 0.1 -0.1
v -0.2 0.1 -0.2
v -0.1 0.1 -0.2
v -0.1 0.1 -0.3
v 0.2 0.1 0.2
v 0 0.1 -0.3
v 0.1 0.2 -0.3
v -0.2 0.2 -0.2
v 0 0.3 0.2
v -0.2 0.2 0.2
v -0.3 0.3 0.1

vt 0.00585938 0.5
vt 0.0839844 0.5

vn 0 1 0
vn 0 -1 0
vn -1 0 0
vn 1 0 0
vn 0 0 -1
vn 0 0 1

usemtl palette
f 1/2/1 2/2/1 4/2/1
f 4/2/1 2/2/1 3/2/1
f 5/2/1 6/2/1 8/2/1
f 8/2/1 6/2/1 7/2/1
f 9/2/1 10/2/1 12/2/1
f 12/2/1 10/2/1 11/2/1
f 13/2/1 14/2/1 16/2/1
f 16/2/1 14/2/1 15/2/1
f 17/1/1 18/1/1 20/1/1
f 20/1/1 18/1/1 19/1/1
f 21/2/1 22/2/1 24/2/1
f 24/2/1 22/2/1 23/2/1
f 25/2/1 26/2/1 28/2/1
f 28/2/1 26/2/1 27/2/1
f 29/2/1 30/2/1 32/2/1
f 32/2/1 30/2/1 31/2/1
f 33/2/1 34/2/1 36/2/1
f 36/2/1 34/2/1 35/2/1
f 37/2/1 38/2/1 39/2/1
f 39/2/1 38/2/1 28/2/1
f 40/1/1 41/1/1 43/1/1
f 43/1/1 41/1/1 42/1/1
f 44/2/1 45/2/1 47/2/1
f 47/2/1 45/2/1 46/2/1
f 48/1/1 49/1/1 30/1/1
f 30/1/1 49/1/1 50/1/1
f 51/2/1 52/2/1 54/2/1
f 54/2/1 52/2/1 53/2/1
f 55/2/1 56/2/1 58/2/1
f 58/2/1 56/2/1 57/2/1
f 59/2/1 60/2/1 45/2/1
f 45/2/1 60/2/1 61/2/1
f 62/2/1 63/2/1 49/2/1
f 49/2/1 63/2/1 64/2/1
f 65/2/1 66/2/1 68/2/1
f 68/2/1 66/2/1 67/2/1
f 69/1/2 70/1/2 72/1/2
f 72/1/2 70/1/2 71/1/2
f 73/1/2 74/1/2 76/1/2
f 76/1/2 74/1/2 75/1/2
f 77/1/2 78/1/2 80/1/2
f 80/1/2 78/1/2 79/1/2
f 81/2/2 72/2/2 82/2/2
f 82/2/2 72/2/2 78/2/2
f 82/2/2 77/2/2 83/2/2
f 83/2/2 77/2/2 80/2/2
f 84/2/2 85/2/2 86/2/2
f 86/2/2 85/2/2 76/2/2
f 87/2/2 69/2/2 88/2/2
f 88/2/2 69/2/2 72/2/2
f 88/1/2 81/1/2 89/1/2
f 89/1/2 81/1/2 82/1/2
f 90/2/2 91/2/2 92/2/2
f 92/2/2 91/2/2 86/2/2
f 92/2/2 93/2/2 94/2/2
f 94/2/2 93/2/2 70/2/2
f 94/1/2 87/1/2 95/1/2
f 95/1/2 87/1/2 88/1/2
f 96/1/3 97/1/3 71/1/3
f 71/1/3 97/1/3 72/1/3
f 19/1/3 98/1/3 79/1/3
f 79/1/3 98/1/3 80/1/3
f 98/2/3 99/2/3 80/2/3
f 80/2/3 99/2/3 83/2/3
f 100/1/3 101/1/3 82/1/3
f 82/1/3 101/1/3 89/1/3
f 102/1/3 103/1/3 88/1/3
f 88/1/3 103/1/3 95/1/3
f 7/2/3 6/2/3 96/2/3
f 96/2/3 6/2/3 97/2/3
f 42/1/3 41/1/3 98/1/3
f 98/1/3 41/1/3 99/1/3
f 67/2/3 66/2/3 102/2/3
f 102/2/3 66/2/3 103/2/3
f 15/2/3 14/2/3 20/2/3
f 20/2/3 14/2/3 17/2/3
f 57/2/3 56/2/3 100/2/3
f 100/2/3 56/2/3 101/2/3
f 64/2/3 63/2/3 68/2/3
f 68/2/3 63/2/3 65/2/3
f 53/2/3 39/2/3 16/2/3
f 16/2/3 39/2/3 13/2/3
f 27/2/3 26/2/3 18/2/3
f 18/2/3 26/2/3 98/2/3
f 25/2/3 38/2/3 43/2/3
f 43/2/3 38/2/3 40/2/3
f 37/2/3 52/2/3 58/2/3
f 58/2/3 52/2/3 55/2/3
f 4/2/4 93/2/4 1/2/4
f 1/2/4 93/2/4 75/2/4
f 104/1/4 74/1/4 23/1/4
f 23/1/4 74/1/4 73/1/4
f 24/2/4 85/2/4 44/2/4
f 44/2/4 85/2/4 84/2/4
f 45/2/4 91/2/4 59/2/4
f 59/2/4 91/2/4 90/2/4
f 8/2/4 3/2/4 5/2/4
f 5/2/4 3/2/4 2/2/4
f 12/2/4 104/2/4 31/2/4
f 31/2/4 104/2/4 22/2/4
f 32/2/4 21/2/4 29/2/4
f 29/2/4 21/2/4 47/2/4
f 30/1/4 46/1/4 48/1/4
f 48/1/4 46/1/4 45/1/4
f 49/2/4 61/2/4 62/2/4
f 62/2/4 61/2/4 60/2/4
f 54/2/4 11/2/4 35/2/4
f 35/2/4 11/2/4 10/2/4
f 36/2/4 9/2/4 33/2/4
f 33/2/4 9/2/4 30/2/4
f 34/2/4 50/2/4 51/2/4
f 51/2/4 50/2/4 49/2/4
f 91/2/5 45/2/5 84/2/5
f 84/2/5 45/2/5 44/2/5
f 46/2/5 30/2/5 47/2/5
f 47/2/5 30/2/5 29/2/5
f 61/1/5 49/1/5 45/1/5
f 45/1/5 49/1/5 48/1/5
f 50/2/5 34/2/5 30/2/5
f 30/2/5 34/2/5 33/2/5
f 94/2/5 105/2/5 90/2/5
f 90/2/5 105/2/5 59/2/5
f 65/2/5 63/2/5 106/2/5
f 106/2/5 63/2/5 62/2/5
f 95/1/5 103/1/5 94/1/5
f 94/1/5 103/1/5 105/1/5
f 103/2/5 66/2/5 60/2/5
f 60/2/5 66/2/5 106/2/5
f 55/2/5 52/2/5 49/2/5
f 49/2/5 52/2/5 51/2/5
f 89/1/5 101/1/5 88/1/5
f 88/1/5 101/1/5 102/1/5
f 101/2/5 107/2/5 102/2/5
f 102/2/5 107/2/5 67/2/5
f 107/2/5 56/2/5 68/2/5
f 68/2/5 56/2/5 64/2/5
f 57/2/5 38/2/5 58/2/5
f 58/2/5 38/2/5 37/2/5
f 83/2/5 99/2/5 82/2/5
f 82/2/5 99/2/5 100/2/5
f 99/1/5 41/1/5 100/1/5
f 100/1/5 41/1/5 40/1/5
f 42/2/5 26/2/5 43/2/5
f 43/2/5 26/2/5 25/2/5
f 73/2/6 85/2/6 23/2/6
f 23/2/6 85/2/6 24/2/6
f 22/2/6 21/2/6 31/2/6
f 31/2/6 21/2/6 32/2/6
f 75/1/6 74/1/6 1/1/6
f 1/1/6 74/1/6 104/1/6
f 10/2/6 9/2/6 35/2/6
f 35/2/6 9/2/6 36/2/6
f 70/2/6 93/2/6 3/2/6
f 3/2/6 93/2/6 4/2/6
f 2/2/6 104/2/6 108/2/6
f 108/2/6 104/2/6 12/2/6
f 71/1/6 70/1/6 96/1/6
f 96/1/6 70/1/6 3/1/6
f 96/2/6 3/2/6 7/2/6
f 7/2/6 3/2/6 8/2/6
f 16/2/6 11/2/6 53/2/6
f 53/2/6 11/2/6 54/2/6
f 78/2/6 72/2/6 109/2/6
f 109/2/6 72/2/6 6/2/6
f 109/2/6 5/2/6 15/2/6
f 15/2/6 5/2/6 108/2/6
f 79/1/6 78/1/6 19/1/6
f 19/1/6 78/1/6 20/1/6
f 18/2/6 17/2/6 110/2/6
f 110/2/6 17/2/6 14/2/6
f 110/2/6 13/2/6 27/2/6
f 27/2/6 13/2/6 39/2/6
