# Vengi binary mesh normalized for Tanks of Freedom II

mtllib ../../../materials/vox_grass.mtl
o tree_stump_big_1

v 0.2 0.1 0.3
v 0.1 0.1 0.3
v 0.1 0.1 0.4
v 0.2 0.1 0.4
v 0 0.1 0.3
v 0 0.1 0.6
v 0.1 0.1 0.6
v -0.1 0.1 0.3
v -0.1 0.1 0.4
v 0 0.1 0.4
v 0.2 0.1 0.2
v 0.1 0.1 0.2
v 0.1 0.2 0.2
v -0.1 0.2 0.2
v -0.1 0.2 0.3
v 0.1 0.2 0.3
v -0.1 0.1 0.2
v -0.3 0.1 0.2
v -0.3 0.1 0.3
v -0.5 0.1 0.2
v -0.6 0.1 0.2
v -0.6 0.1 0.3
v -0.5 0.1 0.3
v 0.3 0.1 0.1
v 0.2 0.1 0.1
v 0.3 0.1 0.3
v 0.2 0.2 0.1
v 0.1 0.2 0.1
v 0.2 0.2 0.2
v 0.1 0.5 0.1
v 0 0.5 0.1
v 0 0.5 0.2
v 0.1 0.5 0.2
v -0.1 0.2 0.1
v -0.2 0.2 0.1
v -0.2 0.2 0.2
v -0.2 0.1 0.1
v -0.3 0.1 0.1
v -0.2 0.1 0.2
v -0.5 0.1 0.1
v 0.4 0.1 0
v 0.3 0.1 0
v 0.4 0.1 0.1
v 0.2 0.5 0
v 0.1 0.5 0
v 0.2 0.5 0.1
v -0.1 0.5 0
v -0.2 0.5 0
v -0.2 0.5 0.1
v -0.1 0.5 0.1
v 0.6 0.1 -0.1
v 0.3 0.1 -0.1
v 0.6 0.1 0
v 0.3 0.2 -0.1
v 0.2 0.2 -0.1
v 0.3 0.2 0.1
v 0.2 0.5 -0.1
v 0.1 0.5 -0.1
v 0 0.5 -0.1
v -0.1 0.5 -0.1
v -0.1 0.5 0.2
v -0.2 0.5 -0.1
v -0.2 0.2 -0.1
v -0.3 0.2 -0.1
v -0.3 0.2 0.1
v -0.3 0.1 -0.1
v -0.4 0.1 -0.1
v -0.4 0.1 0.1
v 0.4 0.1 -0.2
v 0.2 0.1 -0.2
v 0.2 0.1 -0.1
v 0.4 0.1 -0.1
v 0.2 0.2 -0.2
v 0.1 0.2 -0.2
v 0.1 0.2 -0.1
v 0.1 0.5 -0.2
v 0 0.5 -0.2
v -0.1 0.5 -0.2
v -0.1 0.2 -0.2
v -0.2 0.2 -0.2
v -0.1 0.2 -0.1
v -0.2 0.1 -0.2
v -0.3 0.1 -0.2
v -0.2 0.1 -0.1
v 0.5 0.1 -0.3
v 0.4 0.1 -0.3
v 0.5 0.1 -0.2
v 0.2 0.1 -0.3
v 0.1 0.1 -0.3
v 0.1 0.1 -0.2
v 0.1 0.2 -0.3
v -0.1 0.2 -0.3
v -0.1 0.1 -0.3
v -0.2 0.1 -0.3
v -0.1 0.1 -0.2
v -0.3 0.1 -0.3
v -0.5 0.1 -0.3
v -0.5 0.1 -0.2
v -0.4 0.1 -0.4
v -0.5 0.1 -0.4
v -0.4 0.1 -0.3
v 0.3 0.1 -0.5
v 0.2 0.1 -0.5
v 0.3 0.1 -0.3
v 0 0.1 -0.5
v -0.1 0.1 -0.5
v 0 0.1 -0.3
v 0.1 0.1 -0.6
v 0 0.1 -0.6
v 0.2 0 0.3
v 0.2 0 0.4
v 0.1 0 0.4
v 0.1 0 0.3
v 0.1 0 0.6
v 0 0 0.6
v 0 0 0.3
v 0.2 0 0.2
v 0.1 0 0.2
v -0.5 0 0.2
v -0.5 0 0.3
v -0.6 0 0.3
v -0.6 0 0.2
v -0.3 0 0.1
v -0.3 0 0.2
v -0.5 0 0.1
v 0.4 0 0
v 0.4 0 0.1
v 0.3 0 0.1
v 0.3 0 0
v 0.6 0 -0.1
v 0.6 0 0
v 0.3 0 -0.1
v -0.3 0 -0.1
v -0.4 0 0.1
v -0.4 0 -0.1
v 0.4 0 -0.2
v 0.4 0 -0.1
v 0.3 0 -0.2
v 0.3 0 0.3
v 0.2 0 -0.2
v 0.1 0 -0.2
v -0.2 0 -0.2
v -0.2 0 0.3
v -0.3 0 0.3
v -0.3 0 -0.2
v 0.5 0 -0.3
v 0.5 0 -0.2
v 0.4 0 -0.3
v 0.2 0 -0.3
v 0.1 0 -0.3
v 0 0 -0.3
v 0 0 0.4
v -0.1 0 0.4
v -0.1 0 -0.3
v -0.1 0 0.3
v -0.2 0 -0.3
v -0.3 0 -0.3
v -0.5 0 -0.2
v -0.5 0 -0.3
v -0.4 0 -0.4
v -0.4 0 -0.3
v -0.5 0 -0.4
v 0.3 0 -0.5
v 0.3 0 -0.3
v 0.2 0 -0.5
v 0 0 -0.5
v -0.1 0 -0.5
v 0.1 0 -0.6
v 0 0 -0.6
v -0.2 0.2 0
v 0.1 0.4 0.2
v 0.1 0.4 0.1
v 0.2 0.4 0.1
v 0.2 0.4 -0.1
v 0.2 0.4 0
v 0 0.2 -0.2
v 0 0.4 0.2
v -0.1 0.4 0.2

vt 0.00585938 0.5
vt 0.0839844 0.5

vn 0 1 0
vn 0 -1 0
vn -1 0 0
vn 1 0 0
vn 0 0 -1
vn 0 0 1

usemtl palette
f 1/1/1 2/1/1 4/1/1
f 4/1/1 2/1/1 3/1/1
f 2/2/1 5/2/1 7/2/1
f 7/2/1 5/2/1 6/2/1
f 5/1/1 8/1/1 10/1/1
f 10/1/1 8/1/1 9/1/1
f 11/2/1 12/2/1 1/2/1
f 1/2/1 12/2/1 2/2/1
f 13/1/1 14/1/1 16/1/1
f 16/1/1 14/1/1 15/1/1
f 17/1/1 18/1/1 8/1/1
f 8/1/1 18/1/1 19/1/1
f 20/2/1 21/2/1 23/2/1
f 23/2/1 21/2/1 22/2/1
f 24/1/1 25/1/1 26/1/1
f 26/1/1 25/1/1 1/1/1
f 27/2/1 28/2/1 29/2/1
f 29/2/1 28/2/1 13/2/1
f 30/2/1 31/2/1 33/2/1
f 33/2/1 31/2/1 32/2/1
f 34/2/1 35/2/1 14/2/1
f 14/2/1 35/2/1 36/2/1
f 37/1/1 38/1/1 39/1/1
f 39/1/1 38/1/1 18/1/1
f 38/2/1 40/2/1 18/2/1
f 18/2/1 40/2/1 20/2/1
f 41/1/1 42/1/1 43/1/1
f 43/1/1 42/1/1 24/1/1
f 44/2/1 45/2/1 46/2/1
f 46/2/1 45/2/1 30/2/1
f 47/2/1 48/2/1 50/2/1
f 50/2/1 48/2/1 49/2/1
f 51/2/1 52/2/1 53/2/1
f 53/2/1 52/2/1 42/2/1
f 54/1/1 55/1/1 56/1/1
f 56/1/1 55/1/1 27/1/1
f 57/1/1 58/1/1 44/1/1
f 44/1/1 58/1/1 45/1/1
f 59/1/1 60/1/1 32/1/1
f 32/1/1 60/1/1 61/1/1
f 60/1/1 62/1/1 47/1/1
f 47/1/1 62/1/1 48/1/1
f 63/1/1 64/1/1 35/1/1
f 35/1/1 64/1/1 65/1/1
f 66/1/1 67/1/1 38/1/1
f 38/1/1 67/1/1 68/1/1
f 69/1/1 70/1/1 72/1/1
f 72/1/1 70/1/1 71/1/1
f 73/1/1 74/1/1 55/1/1
f 55/1/1 74/1/1 75/1/1
f 76/1/1 77/1/1 30/1/1
f 30/1/1 77/1/1 31/1/1
f 77/2/1 78/2/1 59/2/1
f 59/2/1 78/2/1 60/2/1
f 79/1/1 80/1/1 81/1/1
f 81/1/1 80/1/1 63/1/1
f 82/1/1 83/1/1 84/1/1
f 84/1/1 83/1/1 66/1/1
f 85/1/1 86/1/1 87/1/1
f 87/1/1 86/1/1 69/1/1
f 88/2/1 89/2/1 70/2/1
f 70/2/1 89/2/1 90/2/1
f 91/1/1 92/1/1 74/1/1
f 74/1/1 92/1/1 79/1/1
f 93/1/1 94/1/1 95/1/1
f 95/1/1 94/1/1 82/1/1
f 96/1/1 97/1/1 83/1/1
f 83/1/1 97/1/1 98/1/1
f 99/1/1 100/1/1 101/1/1
f 101/1/1 100/1/1 97/1/1
f 102/2/1 103/2/1 104/2/1
f 104/2/1 103/2/1 88/2/1
f 105/2/1 106/2/1 107/2/1
f 107/2/1 106/2/1 93/2/1
f 108/1/1 109/1/1 89/1/1
f 89/1/1 109/1/1 107/1/1
f 110/1/2 111/1/2 113/1/2
f 113/1/2 111/1/2 112/1/2
f 113/2/2 114/2/2 116/2/2
f 116/2/2 114/2/2 115/2/2
f 117/2/2 110/2/2 118/2/2
f 118/2/2 110/2/2 113/2/2
f 119/2/2 120/2/2 122/2/2
f 122/2/2 120/2/2 121/2/2
f 123/2/2 124/2/2 125/2/2
f 125/2/2 124/2/2 119/2/2
f 126/1/2 127/1/2 129/1/2
f 129/1/2 127/1/2 128/1/2
f 130/2/2 131/2/2 132/2/2
f 132/2/2 131/2/2 129/2/2
f 133/1/2 123/1/2 135/1/2
f 135/1/2 123/1/2 134/1/2
f 136/1/2 137/1/2 138/1/2
f 138/1/2 137/1/2 132/1/2
f 138/1/2 139/1/2 140/1/2
f 140/1/2 139/1/2 110/1/2
f 140/1/2 117/1/2 141/1/2
f 141/1/2 117/1/2 118/1/2
f 142/1/2 143/1/2 145/1/2
f 145/1/2 143/1/2 144/1/2
f 146/1/2 147/1/2 148/1/2
f 148/1/2 147/1/2 136/1/2
f 149/2/2 140/2/2 150/2/2
f 150/2/2 140/2/2 141/2/2
f 151/1/2 152/1/2 154/1/2
f 154/1/2 152/1/2 153/1/2
f 154/1/2 155/1/2 156/1/2
f 156/1/2 155/1/2 143/1/2
f 157/1/2 145/1/2 159/1/2
f 159/1/2 145/1/2 158/1/2
f 160/1/2 161/1/2 162/1/2
f 162/1/2 161/1/2 159/1/2
f 163/2/2 164/2/2 165/2/2
f 165/2/2 164/2/2 149/2/2
f 166/2/2 151/2/2 167/2/2
f 167/2/2 151/2/2 154/2/2
f 168/1/2 113/1/2 169/1/2
f 169/1/2 113/1/2 116/1/2
f 6/2/3 10/2/3 115/2/3
f 115/2/3 10/2/3 152/2/3
f 9/1/3 8/1/3 153/1/3
f 153/1/3 8/1/3 155/1/3
f 19/1/3 18/1/3 144/1/3
f 144/1/3 18/1/3 124/1/3
f 22/2/3 21/2/3 121/2/3
f 121/2/3 21/2/3 122/2/3
f 20/2/3 40/2/3 119/2/3
f 119/2/3 40/2/3 125/2/3
f 68/1/3 67/1/3 134/1/3
f 134/1/3 67/1/3 135/1/3
f 66/1/3 83/1/3 133/1/3
f 133/1/3 83/1/3 145/1/3
f 69/1/3 86/1/3 136/1/3
f 136/1/3 86/1/3 148/1/3
f 82/1/3 94/1/3 142/1/3
f 142/1/3 94/1/3 156/1/3
f 98/1/3 100/1/3 158/1/3
f 158/1/3 100/1/3 162/1/3
f 88/2/3 103/2/3 149/2/3
f 149/2/3 103/2/3 165/2/3
f 93/2/3 106/2/3 154/2/3
f 154/2/3 106/2/3 167/2/3
f 105/1/3 109/1/3 166/1/3
f 166/1/3 109/1/3 169/1/3
f 15/1/3 14/1/3 8/1/3
f 8/1/3 14/1/3 17/1/3
f 36/2/3 35/2/3 39/2/3
f 39/2/3 35/2/3 37/2/3
f 65/1/3 64/1/3 38/1/3
f 38/1/3 64/1/3 66/1/3
f 63/1/3 80/1/3 84/1/3
f 84/1/3 80/1/3 82/1/3
f 79/1/3 92/1/3 95/1/3
f 95/1/3 92/1/3 93/1/3
f 61/1/3 50/1/3 14/1/3
f 14/1/3 50/1/3 34/1/3
f 49/2/3 48/2/3 35/2/3
f 35/2/3 48/2/3 170/2/3
f 48/1/3 62/1/3 170/1/3
f 170/1/3 62/1/3 63/1/3
f 60/2/3 78/2/3 81/2/3
f 81/2/3 78/2/3 79/2/3
f 7/2/4 114/2/4 3/2/4
f 3/2/4 114/2/4 112/2/4
f 4/1/4 111/1/4 1/1/4
f 1/1/4 111/1/4 110/1/4
f 23/2/4 120/2/4 20/2/4
f 20/2/4 120/2/4 119/2/4
f 26/1/4 139/1/4 24/1/4
f 24/1/4 139/1/4 128/1/4
f 43/1/4 127/1/4 41/1/4
f 41/1/4 127/1/4 126/1/4
f 53/2/4 131/2/4 51/2/4
f 51/2/4 131/2/4 130/2/4
f 72/1/4 137/1/4 69/1/4
f 69/1/4 137/1/4 136/1/4
f 87/1/4 147/1/4 85/1/4
f 85/1/4 147/1/4 146/1/4
f 70/2/4 140/2/4 88/2/4
f 88/2/4 140/2/4 149/2/4
f 83/1/4 145/1/4 96/1/4
f 96/1/4 145/1/4 157/1/4
f 101/1/4 161/1/4 99/1/4
f 99/1/4 161/1/4 160/1/4
f 104/2/4 164/2/4 102/2/4
f 102/2/4 164/2/4 163/2/4
f 89/1/4 150/1/4 108/1/4
f 108/1/4 150/1/4 168/1/4
f 16/1/4 2/1/4 13/1/4
f 13/1/4 2/1/4 12/1/4
f 29/2/4 11/2/4 27/2/4
f 27/2/4 11/2/4 25/2/4
f 56/1/4 24/1/4 54/1/4
f 54/1/4 24/1/4 52/1/4
f 55/1/4 71/1/4 73/1/4
f 73/1/4 71/1/4 70/1/4
f 74/1/4 90/1/4 91/1/4
f 91/1/4 90/1/4 89/1/4
f 171/1/4 13/1/4 172/1/4
f 172/1/4 13/1/4 28/1/4
f 173/1/4 27/1/4 174/1/4
f 174/1/4 27/1/4 55/1/4
f 33/2/4 171/2/4 30/2/4
f 30/2/4 171/2/4 172/2/4
f 46/2/4 173/2/4 44/2/4
f 44/2/4 173/2/4 175/2/4
f 44/1/4 175/1/4 57/1/4
f 57/1/4 175/1/4 174/1/4
f 58/1/4 75/1/4 76/1/4
f 76/1/4 75/1/4 74/1/4
f 137/2/5 72/2/5 130/2/5
f 130/2/5 72/2/5 51/2/5
f 148/1/5 86/1/5 146/1/5
f 146/1/5 86/1/5 85/1/5
f 140/1/5 70/1/5 136/1/5
f 136/1/5 70/1/5 69/1/5
f 165/2/5 103/2/5 163/2/5
f 163/2/5 103/2/5 102/2/5
f 71/1/5 55/1/5 52/1/5
f 52/1/5 55/1/5 54/1/5
f 150/2/5 89/2/5 149/2/5
f 149/2/5 89/2/5 88/2/5
f 90/1/5 74/1/5 70/1/5
f 70/1/5 74/1/5 73/1/5
f 75/1/5 58/1/5 55/1/5
f 55/1/5 58/1/5 57/1/5
f 169/1/5 109/1/5 168/1/5
f 168/1/5 109/1/5 108/1/5
f 176/1/5 77/1/5 74/1/5
f 74/1/5 77/1/5 76/1/5
f 167/2/5 106/2/5 166/2/5
f 166/2/5 106/2/5 105/2/5
f 93/1/5 92/1/5 89/1/5
f 89/1/5 92/1/5 91/1/5
f 79/2/5 78/2/5 176/2/5
f 176/2/5 78/2/5 77/2/5
f 156/1/5 94/1/5 154/1/5
f 154/1/5 94/1/5 93/1/5
f 82/1/5 80/1/5 95/1/5
f 95/1/5 80/1/5 79/1/5
f 63/1/5 62/1/5 81/1/5
f 81/1/5 62/1/5 60/1/5
f 145/1/5 83/1/5 142/1/5
f 142/1/5 83/1/5 82/1/5
f 66/1/5 64/1/5 84/1/5
f 84/1/5 64/1/5 63/1/5
f 135/1/5 67/1/5 133/1/5
f 133/1/5 67/1/5 66/1/5
f 161/1/5 101/1/5 157/1/5
f 157/1/5 101/1/5 96/1/5
f 125/2/5 40/2/5 134/2/5
f 134/2/5 40/2/5 68/2/5
f 162/1/5 100/1/5 160/1/5
f 160/1/5 100/1/5 99/1/5
f 122/2/5 21/2/5 119/2/5
f 119/2/5 21/2/5 20/2/5
f 126/2/6 131/2/6 41/2/6
f 41/2/6 131/2/6 53/2/6
f 136/1/6 147/1/6 69/1/6
f 69/1/6 147/1/6 87/1/6
f 128/1/6 127/1/6 24/1/6
f 24/1/6 127/1/6 43/1/6
f 110/1/6 139/1/6 1/1/6
f 1/1/6 139/1/6 26/1/6
f 149/2/6 164/2/6 88/2/6
f 88/2/6 164/2/6 104/2/6
f 25/1/6 24/1/6 27/1/6
f 27/1/6 24/1/6 56/1/6
f 112/1/6 111/1/6 3/1/6
f 3/1/6 111/1/6 4/1/6
f 12/2/6 11/2/6 13/2/6
f 13/2/6 11/2/6 29/2/6
f 28/1/6 27/1/6 172/1/6
f 172/1/6 27/1/6 173/1/6
f 172/2/6 173/2/6 30/2/6
f 30/2/6 173/2/6 46/2/6
f 115/2/6 114/2/6 6/2/6
f 6/2/6 114/2/6 7/2/6
f 177/2/6 171/2/6 32/2/6
f 32/2/6 171/2/6 33/2/6
f 153/1/6 152/1/6 9/1/6
f 9/1/6 152/1/6 10/1/6
f 8/1/6 2/1/6 15/1/6
f 15/1/6 2/1/6 16/1/6
f 14/1/6 13/1/6 178/1/6
f 178/1/6 13/1/6 171/1/6
f 178/1/6 177/1/6 61/1/6
f 61/1/6 177/1/6 32/1/6
f 39/2/6 17/2/6 36/2/6
f 36/2/6 17/2/6 14/2/6
f 35/2/6 34/2/6 49/2/6
f 49/2/6 34/2/6 50/2/6
f 144/1/6 155/1/6 19/1/6
f 19/1/6 155/1/6 8/1/6
f 38/1/6 37/1/6 65/1/6
f 65/1/6 37/1/6 35/1/6
f 119/2/6 124/2/6 20/2/6
f 20/2/6 124/2/6 18/2/6
f 158/1/6 145/1/6 98/1/6
f 98/1/6 145/1/6 83/1/6
f 121/2/6 120/2/6 22/2/6
f 22/2/6 120/2/6 23/2/6
