# Vengi binary mesh normalized for Tanks of Freedom II

mtllib ../../materials/vox_grass.mtl
o bridge_stone_barrier

v 3.9 0.5 3.9
v 3.5 0.5 3.9
v 3.5 0.5 4
v 3.9 0.5 4
v 3.8 1.4 3.8
v 3.7 1.4 3.8
v 3.7 1.4 3.9
v 3.8 1.4 3.9
v 3.8 0.6 3.8
v 3.6 0.6 3.8
v 3.6 0.6 3.9
v 3.8 0.6 3.9
v 3.8 1.8 3.8
v 3.6 1.8 3.8
v 3.6 1.8 3.9
v 3.8 1.8 3.9
v 3.9 1.4 3.7
v 3.8 1.4 3.7
v 3.9 1.4 3.8
v 3.8 1.9 3.7
v 3.7 1.9 3.7
v 3.7 1.9 3.8
v 3.8 1.9 3.8
v 3.7 1.4 3.7
v 3.6 1.4 3.7
v 3.6 1.4 3.8
v 3.9 0.6 3.6
v 3.8 0.6 3.6
v 3.9 0.6 3.9
v 3.9 1.8 3.6
v 3.8 1.8 3.6
v 3.9 1.8 3.9
v 3.7 0.6 3.6
v 3.7 0.6 3.7
v 3.8 0.6 3.7
v 3.8 1.4 3.6
v 3.7 1.4 3.6
v 3.7 1.8 3.6
v 3.7 1.8 3.7
v 3.8 1.8 3.7
v 3.6 0.6 3.6
v 3.7 0.6 3.8
v 3.6 1.8 3.6
v 3.7 1.8 3.8
v 4 0.5 3.5
v 3.9 0.5 3.5
v 4 0.5 4
v 3.6 0.5 3.5
v 3.6 0.5 3.6
v 3.9 0.5 3.6
v 3.5 0.5 3.5
v 3.6 0.5 3.9
v 4 0.4 3.1
v 3.5 0.4 3.1
v 3.5 0.4 3.5
v 4 0.4 3.5
v 4 0.4 3
v 3.5 0.4 3
v 4 0.4 2.1
v 3.5 0.4 2.1
v 4 0.4 2
v 3.5 0.4 2
v 4 0.4 1.1
v 3.5 0.4 1.1
v 4 0.4 1
v 3.5 0.4 1
v 4 0.4 0.1
v 3.5 0.4 0.1
v 4 0.4 0
v 3.5 0.4 0
v 4 0.4 -0.9
v 3.5 0.4 -0.9
v 4 0.4 -1
v 3.5 0.4 -1
v 4 0.4 -1.9
v 3.5 0.4 -1.9
v 4 0.4 -2
v 3.5 0.4 -2
v 4 0.4 -2.2
v 3.5 0.4 -2.2
v 3.8 1.7 3.8
v 3.8 1.7 3.9
v 3.7 1.7 3.9
v 3.7 1.7 3.8
v 3.8 1.3 3.8
v 3.8 1.3 3.9
v 3.6 1.3 3.9
v 3.6 1.3 3.8
v 3.9 1.7 3.7
v 3.9 1.7 3.8
v 3.8 1.7 3.7
v 3.7 1.7 3.7
v 3.6 1.7 3.8
v 3.6 1.7 3.7
v 3.9 1.3 3.6
v 3.9 1.3 3.9
v 3.8 1.3 3.6
v 3.8 1.3 3.7
v 3.7 1.3 3.7
v 3.7 1.3 3.6
v 3.8 1.7 3.6
v 3.7 1.7 3.6
v 3.7 1.3 3.8
v 3.6 1.3 3.6
v 4 0 3.5
v 4 0 4
v 3.5 0 4
v 3.5 0 3.5
v 4 0.3 3.1
v 4 0.3 3.5
v 3.9 0.3 3.5
v 3.9 0.3 3.1
v 3.9 0 3.1
v 3.9 0 3.5
v 3.6 0 3.5
v 3.6 0 3.1
v 3.6 0.3 3.1
v 3.6 0.3 3.5
v 3.5 0.3 3.5
v 3.5 0.3 3.1
v 4 0.3 3
v 3.9 0.3 3
v 3.9 0 3
v 3.8 0 3.1
v 3.8 0 3
v 3.7 0 3
v 3.7 0 3.1
v 3.6 0 3
v 3.6 0.3 3
v 3.5 0.3 3
v 4 0.3 2.1
v 3.9 0.3 2.1
v 3.9 0 2.1
v 3.8 0 2.1
v 3.7 0 2.1
v 3.6 0 2.1
v 3.6 0.3 2.1
v 3.5 0.3 2.1
v 4 0.3 2
v 3.9 0.3 2
v 3.9 0 2
v 3.8 0 2
v 3.7 0 2
v 3.6 0 2
v 3.6 0.3 2
v 3.5 0.3 2
v 4 0.3 1.1
v 3.9 0.3 1.1
v 3.9 0 1.1
v 3.8 0 1.1
v 3.7 0 1.1
v 3.6 0 1.1
v 3.6 0.3 1.1
v 3.5 0.3 1.1
v 4 0.3 1
v 3.9 0.3 1
v 3.9 0 1
v 3.8 0 1
v 3.7 0 1
v 3.6 0 1
v 3.6 0.3 1
v 3.5 0.3 1
v 4 0.3 0.1
v 3.9 0.3 0.1
v 3.9 0 0.1
v 3.8 0 0.1
v 3.7 0 0.1
v 3.6 0 0.1
v 3.6 0.3 0.1
v 3.5 0.3 0.1
v 4 0.3 0
v 3.9 0.3 0
v 3.9 0 0
v 3.8 0 0
v 3.7 0 0
v 3.6 0 0
v 3.6 0.3 0
v 3.5 0.3 0
v 4 0.3 -0.9
v 3.9 0.3 -0.9
v 3.9 0 -0.9
v 3.8 0 -0.9
v 3.7 0 -0.9
v 3.6 0 -0.9
v 3.6 0.3 -0.9
v 3.5 0.3 -0.9
v 4 0.3 -1
v 3.9 0.3 -1
v 3.9 0 -1
v 3.8 0 -1
v 3.7 0 -1
v 3.6 0 -1
v 3.6 0.3 -1
v 3.5 0.3 -1
v 4 0.3 -1.9
v 3.9 0.3 -1.9
v 3.9 0 -1.9
v 3.8 0 -1.9
v 3.7 0 -1.9
v 3.6 0 -1.9
v 3.6 0.3 -1.9
v 3.5 0.3 -1.9
v 4 0.3 -2
v 3.9 0.3 -2
v 3.9 0 -2
v 3.8 0 -2
v 3.7 0 -2
v 3.6 0 -2
v 3.6 0.3 -2
v 3.5 0.3 -2
v 4 0.3 -2.2
v 3.9 0.3 -2.2
v 3.9 0 -2.2
v 3.8 0 -2.2
v 3.7 0 -2.2
v 3.6 0 -2.2
v 3.6 0.3 -2.2
v 3.5 0.3 -2.2
v 3.6 1.4 3.6
v 3.6 1.8 3.7
v 3.9 1.3 3.8
v 3.9 1.4 3.6
v 3.9 1.8 3.8
v 3.9 1.8 3.7
v 3.6 1.7 3.6
v 3.9 1.4 3.9
v 3.6 1.4 3.9
v 3.6 1.7 3.9
v -3.6 0.5 3.9
v -4 0.5 3.9
v -4 0.5 4
v -3.6 0.5 4
v -3.7 1.4 3.8
v -3.8 1.4 3.8
v -3.8 1.4 3.9
v -3.7 1.4 3.9
v -3.7 0.6 3.8
v -3.9 0.6 3.8
v -3.9 0.6 3.9
v -3.7 0.6 3.9
v -3.7 1.8 3.8
v -3.9 1.8 3.8
v -3.9 1.8 3.9
v -3.7 1.8 3.9
v -3.6 1.4 3.7
v -3.7 1.4 3.7
v -3.6 1.4 3.8
v -3.7 1.9 3.7
v -3.8 1.9 3.7
v -3.8 1.9 3.8
v -3.7 1.9 3.8
v -3.8 1.4 3.7
v -3.9 1.4 3.7
v -3.9 1.4 3.8
v -3.6 0.6 3.6
v -3.7 0.6 3.6
v -3.6 0.6 3.9
v -3.6 1.8 3.6
v -3.7 1.8 3.6
v -3.6 1.8 3.9
v -3.8 0.6 3.6
v -3.8 0.6 3.7
v -3.7 0.6 3.7
v -3.7 1.4 3.6
v -3.8 1.4 3.6
v -3.8 1.8 3.6
v -3.8 1.8 3.7
v -3.7 1.8 3.7
v -3.9 0.6 3.6
v -3.8 0.6 3.8
v -3.9 1.8 3.6
v -3.8 1.8 3.8
v -3.5 0.5 3.5
v -3.6 0.5 3.5
v -3.5 0.5 4
v -3.9 0.5 3.5
v -3.9 0.5 3.6
v -3.6 0.5 3.6
v -4 0.5 3.5
v -3.9 0.5 3.9
v -3.5 0.4 3.1
v -4 0.4 3.1
v -4 0.4 3.5
v -3.5 0.4 3.5
v -3.5 0.4 3
v -4 0.4 3
v -3.5 0.4 2.1
v -4 0.4 2.1
v -3.5 0.4 2
v -4 0.4 2
v -3.5 0.4 1.1
v -4 0.4 1.1
v -3.5 0.4 1
v -4 0.4 1
v -3.5 0.4 0.1
v -4 0.4 0.1
v -3.5 0.4 0
v -4 0.4 0
v -3.5 0.4 -0.9
v -4 0.4 -0.9
v -3.5 0.4 -1
v -4 0.4 -1
v -3.5 0.4 -1.9
v -4 0.4 -1.9
v -3.5 0.4 -2
v -4 0.4 -2
v -3.5 0.4 -2.2
v -4 0.4 -2.2
v -3.7 1.7 3.8
v -3.7 1.7 3.9
v -3.8 1.7 3.9
v -3.8 1.7 3.8
v -3.7 1.3 3.8
v -3.7 1.3 3.9
v -3.9 1.3 3.9
v -3.9 1.3 3.8
v -3.6 1.7 3.7
v -3.6 1.7 3.8
v -3.7 1.7 3.7
v -3.8 1.7 3.7
v -3.9 1.7 3.8
v -3.9 1.7 3.7
v -3.6 1.3 3.6
v -3.6 1.3 3.9
v -3.7 1.3 3.6
v -3.7 1.3 3.7
v -3.8 1.3 3.7
v -3.8 1.3 3.6
v -3.7 1.7 3.6
v -3.8 1.7 3.6
v -3.8 1.3 3.8
v -3.9 1.3 3.6
v -3.5 0 3.5
v -3.5 0 4
v -4 0 4
v -4 0 3.5
v -3.5 0.3 3.1
v -3.5 0.3 3.5
v -3.6 0.3 3.5
v -3.6 0.3 3.1
v -3.6 0 3.1
v -3.6 0 3.5
v -3.9 0 3.5
v -3.9 0 3.1
v -3.9 0.3 3.1
v -3.9 0.3 3.5
v -4 0.3 3.5
v -4 0.3 3.1
v -3.5 0.3 3
v -3.6 0.3 3
v -3.6 0 3
v -3.7 0 3.1
v -3.7 0 3
v -3.8 0 3
v -3.8 0 3.1
v -3.9 0 3
v -3.9 0.3 3
v -4 0.3 3
v -3.5 0.3 2.1
v -3.6 0.3 2.1
v -3.6 0 2.1
v -3.7 0 2.1
v -3.8 0 2.1
v -3.9 0 2.1
v -3.9 0.3 2.1
v -4 0.3 2.1
v -3.5 0.3 2
v -3.6 0.3 2
v -3.6 0 2
v -3.7 0 2
v -3.8 0 2
v -3.9 0 2
v -3.9 0.3 2
v -4 0.3 2
v -3.5 0.3 1.1
v -3.6 0.3 1.1
v -3.6 0 1.1
v -3.7 0 1.1
v -3.8 0 1.1
v -3.9 0 1.1
v -3.9 0.3 1.1
v -4 0.3 1.1
v -3.5 0.3 1
v -3.6 0.3 1
v -3.6 0 1
v -3.7 0 1
v -3.8 0 1
v -3.9 0 1
v -3.9 0.3 1
v -4 0.3 1
v -3.5 0.3 0.1
v -3.6 0.3 0.1
v -3.6 0 0.1
v -3.7 0 0.1
v -3.8 0 0.1
v -3.9 0 0.1
v -3.9 0.3 0.1
v -4 0.3 0.1
v -3.5 0.3 0
v -3.6 0.3 0
v -3.6 0 0
v -3.7 0 0
v -3.8 0 0
v -3.9 0 0
v -3.9 0.3 0
v -4 0.3 0
v -3.5 0.3 -0.9
v -3.6 0.3 -0.9
v -3.6 0 -0.9
v -3.7 0 -0.9
v -3.8 0 -0.9
v -3.9 0 -0.9
v -3.9 0.3 -0.9
v -4 0.3 -0.9
v -3.5 0.3 -1
v -3.6 0.3 -1
v -3.6 0 -1
v -3.7 0 -1
v -3.8 0 -1
v -3.9 0 -1
v -3.9 0.3 -1
v -4 0.3 -1
v -3.5 0.3 -1.9
v -3.6 0.3 -1.9
v -3.6 0 -1.9
v -3.7 0 -1.9
v -3.8 0 -1.9
v -3.9 0 -1.9
v -3.9 0.3 -1.9
v -4 0.3 -1.9
v -3.5 0.3 -2
v -3.6 0.3 -2
v -3.6 0 -2
v -3.7 0 -2
v -3.8 0 -2
v -3.9 0 -2
v -3.9 0.3 -2
v -4 0.3 -2
v -3.5 0.3 -2.2
v -3.6 0.3 -2.2
v -3.6 0 -2.2
v -3.7 0 -2.2
v -3.8 0 -2.2
v -3.9 0 -2.2
v -3.9 0.3 -2.2
v -4 0.3 -2.2
v -3.9 1.4 3.6
v -3.9 1.8 3.7
v -3.6 1.3 3.8
v -3.6 1.4 3.6
v -3.6 1.8 3.8
v -3.6 1.8 3.7
v -3.9 1.7 3.6
v -3.6 1.4 3.9
v -3.9 1.4 3.9
v -3.9 1.7 3.9
v 4 0.4 -2.9
v 3.5 0.4 -2.9
v 4 0.4 -3
v 3.5 0.4 -3
v 4 0.4 -3.5
v 3.5 0.4 -3.5
v 3.9 0.5 -3.6
v 3.5 0.5 -3.6
v 3.5 0.5 -3.5
v 3.9 0.5 -3.5
v 3.8 1.4 -3.7
v 3.7 1.4 -3.7
v 3.7 1.4 -3.6
v 3.8 1.4 -3.6
v 3.8 0.6 -3.7
v 3.6 0.6 -3.7
v 3.6 0.6 -3.6
v 3.8 0.6 -3.6
v 3.8 1.8 -3.7
v 3.6 1.8 -3.7
v 3.6 1.8 -3.6
v 3.8 1.8 -3.6
v 3.9 1.4 -3.8
v 3.8 1.4 -3.8
v 3.9 1.4 -3.7
v 3.8 1.9 -3.8
v 3.7 1.9 -3.8
v 3.7 1.9 -3.7
v 3.8 1.9 -3.7
v 3.7 1.4 -3.8
v 3.6 1.4 -3.8
v 3.6 1.4 -3.7
v 3.9 0.6 -3.9
v 3.8 0.6 -3.9
v 3.9 0.6 -3.6
v 3.9 1.8 -3.9
v 3.8 1.8 -3.9
v 3.9 1.8 -3.6
v 3.7 0.6 -3.9
v 3.7 0.6 -3.8
v 3.8 0.6 -3.8
v 3.8 1.4 -3.9
v 3.7 1.4 -3.9
v 3.7 1.8 -3.9
v 3.7 1.8 -3.8
v 3.8 1.8 -3.8
v 3.6 0.6 -3.9
v 3.7 0.6 -3.7
v 3.6 1.8 -3.9
v 3.7 1.8 -3.7
v 4 0.5 -4
v 3.9 0.5 -4
v 4 0.5 -3.5
v 3.6 0.5 -4
v 3.6 0.5 -3.9
v 3.9 0.5 -3.9
v 3.5 0.5 -4
v 3.6 0.5 -3.6
v 4 0.3 -2.9
v 3.9 0.3 -2.9
v 3.9 0 -2.9
v 3.6 0 -2.9
v 3.6 0.3 -2.9
v 3.5 0.3 -2.9
v 4 0.3 -3
v 3.9 0.3 -3
v 3.9 0 -3
v 3.8 0 -2.9
v 3.8 0 -3
v 3.7 0 -3
v 3.7 0 -2.9
v 3.6 0 -3
v 3.6 0.3 -3
v 3.5 0.3 -3
v 4 0.3 -3.5
v 3.9 0.3 -3.5
v 3.6 0.3 -3.5
v 3.5 0.3 -3.5
v 3.8 1.7 -3.7
v 3.8 1.7 -3.6
v 3.7 1.7 -3.6
v 3.7 1.7 -3.7
v 3.8 1.3 -3.7
v 3.8 1.3 -3.6
v 3.6 1.3 -3.6
v 3.6 1.3 -3.7
v 3.9 1.7 -3.8
v 3.9 1.7 -3.7
v 3.8 1.7 -3.8
v 3.7 1.7 -3.8
v 3.6 1.7 -3.7
v 3.6 1.7 -3.8
v 3.9 1.3 -3.9
v 3.9 1.3 -3.6
v 3.8 1.3 -3.9
v 3.8 1.3 -3.8
v 3.7 1.3 -3.8
v 3.7 1.3 -3.9
v 3.8 1.7 -3.9
v 3.7 1.7 -3.9
v 3.7 1.3 -3.7
v 3.6 1.3 -3.9
v 4 0 -4
v 4 0 -3.5
v 3.9 0 -3.5
v 3.9 0 -4
v 3.8 0 -4
v 3.7 0 -4
v 3.6 0 -4
v 3.6 0 -3.5
v 3.5 0 -3.5
v 3.5 0 -4
v 3.6 1.4 -3.9
v 3.6 1.8 -3.8
v 3.9 1.3 -3.7
v 3.9 1.4 -3.9
v 3.9 1.8 -3.7
v 3.9 1.8 -3.8
v 3.6 1.7 -3.9
v 3.9 1.4 -3.6
v 3.6 1.4 -3.6
v 3.6 1.7 -3.6
v -3.5 0.4 -2.9
v -4 0.4 -2.9
v -3.5 0.4 -3
v -4 0.4 -3
v -3.5 0.4 -3.5
v -4 0.4 -3.5
v -3.6 0.5 -3.6
v -4 0.5 -3.6
v -4 0.5 -3.5
v -3.6 0.5 -3.5
v -3.7 1.4 -3.7
v -3.8 1.4 -3.7
v -3.8 1.4 -3.6
v -3.7 1.4 -3.6
v -3.7 0.6 -3.7
v -3.9 0.6 -3.7
v -3.9 0.6 -3.6
v -3.7 0.6 -3.6
v -3.7 1.8 -3.7
v -3.9 1.8 -3.7
v -3.9 1.8 -3.6
v -3.7 1.8 -3.6
v -3.6 1.4 -3.8
v -3.7 1.4 -3.8
v -3.6 1.4 -3.7
v -3.7 1.9 -3.8
v -3.8 1.9 -3.8
v -3.8 1.9 -3.7
v -3.7 1.9 -3.7
v -3.8 1.4 -3.8
v -3.9 1.4 -3.8
v -3.9 1.4 -3.7
v -3.6 0.6 -3.9
v -3.7 0.6 -3.9
v -3.6 0.6 -3.6
v -3.6 1.8 -3.9
v -3.7 1.8 -3.9
v -3.6 1.8 -3.6
v -3.8 0.6 -3.9
v -3.8 0.6 -3.8
v -3.7 0.6 -3.8
v -3.7 1.4 -3.9
v -3.8 1.4 -3.9
v -3.8 1.8 -3.9
v -3.8 1.8 -3.8
v -3.7 1.8 -3.8
v -3.9 0.6 -3.9
v -3.8 0.6 -3.7
v -3.9 1.8 -3.9
v -3.8 1.8 -3.7
v -3.5 0.5 -4
v -3.6 0.5 -4
v -3.5 0.5 -3.5
v -3.9 0.5 -4
v -3.9 0.5 -3.9
v -3.6 0.5 -3.9
v -4 0.5 -4
v -3.9 0.5 -3.6
v -3.5 0.3 -2.9
v -3.6 0.3 -2.9
v -3.6 0 -2.9
v -3.9 0 -2.9
v -3.9 0.3 -2.9
v -4 0.3 -2.9
v -3.5 0.3 -3
v -3.6 0.3 -3
v -3.6 0 -3
v -3.7 0 -2.9
v -3.7 0 -3
v -3.8 0 -3
v -3.8 0 -2.9
v -3.9 0 -3
v -3.9 0.3 -3
v -4 0.3 -3
v -3.5 0.3 -3.5
v -3.6 0.3 -3.5
v -3.9 0.3 -3.5
v -4 0.3 -3.5
v -3.7 1.7 -3.7
v -3.7 1.7 -3.6
v -3.8 1.7 -3.6
v -3.8 1.7 -3.7
v -3.7 1.3 -3.7
v -3.7 1.3 -3.6
v -3.9 1.3 -3.6
v -3.9 1.3 -3.7
v -3.6 1.7 -3.8
v -3.6 1.7 -3.7
v -3.7 1.7 -3.8
v -3.8 1.7 -3.8
v -3.9 1.7 -3.7
v -3.9 1.7 -3.8
v -3.6 1.3 -3.9
v -3.6 1.3 -3.6
v -3.7 1.3 -3.9
v -3.7 1.3 -3.8
v -3.8 1.3 -3.8
v -3.8 1.3 -3.9
v -3.7 1.7 -3.9
v -3.8 1.7 -3.9
v -3.8 1.3 -3.7
v -3.9 1.3 -3.9
v -3.5 0 -4
v -3.5 0 -3.5
v -3.6 0 -3.5
v -3.6 0 -4
v -3.7 0 -4
v -3.8 0 -4
v -3.9 0 -4
v -3.9 0 -3.5
v -4 0 -3.5
v -4 0 -4
v -3.9 1.4 -3.9
v -3.9 1.8 -3.8
v -3.6 1.3 -3.7
v -3.6 1.4 -3.9
v -3.6 1.8 -3.7
v -3.6 1.8 -3.8
v -3.9 1.7 -3.9
v -3.6 1.4 -3.6
v -3.9 1.4 -3.6
v -3.9 1.7 -3.6

vt 0.0332031 0.5
vt 0.0371094 0.5
vt 0.0410156 0.5
vt 0.0683594 0.5
vt 0.0957031 0.5

vn 0 1 0
vn 0 -1 0
vn -1 0 0
vn 1 0 0
vn 0 0 -1
vn 0 0 1

usemtl palette
f 1/4/1 2/4/1 4/4/1
f 4/4/1 2/4/1 3/4/1
f 5/3/1 6/3/1 8/3/1
f 8/3/1 6/3/1 7/3/1
f 9/4/1 10/4/1 12/4/1
f 12/4/1 10/4/1 11/4/1
f 13/3/1 14/3/1 16/3/1
f 16/3/1 14/3/1 15/3/1
f 17/3/1 18/3/1 19/3/1
f 19/3/1 18/3/1 5/3/1
f 20/2/1 21/2/1 23/2/1
f 23/2/1 21/2/1 22/2/1
f 24/3/1 25/3/1 6/3/1
f 6/3/1 25/3/1 26/3/1
f 27/4/1 28/4/1 29/4/1
f 29/4/1 28/4/1 12/4/1
f 30/3/1 31/3/1 32/3/1
f 32/3/1 31/3/1 16/3/1
f 28/4/1 33/4/1 35/4/1
f 35/4/1 33/4/1 34/4/1
f 36/3/1 37/3/1 18/3/1
f 18/3/1 37/3/1 24/3/1
f 31/3/1 38/3/1 40/3/1
f 40/3/1 38/3/1 39/3/1
f 33/4/1 41/4/1 42/4/1
f 42/4/1 41/4/1 10/4/1
f 38/3/1 43/3/1 44/3/1
f 44/3/1 43/3/1 14/3/1
f 45/4/1 46/4/1 47/4/1
f 47/4/1 46/4/1 4/4/1
f 46/4/1 48/4/1 50/4/1
f 50/4/1 48/4/1 49/4/1
f 48/4/1 51/4/1 52/4/1
f 52/4/1 51/4/1 2/4/1
f 53/4/1 54/4/1 56/4/1
f 56/4/1 54/4/1 55/4/1
f 57/1/1 58/1/1 53/1/1
f 53/1/1 58/1/1 54/1/1
f 59/4/1 60/4/1 57/4/1
f 57/4/1 60/4/1 58/4/1
f 61/1/1 62/1/1 59/1/1
f 59/1/1 62/1/1 60/1/1
f 63/4/1 64/4/1 61/4/1
f 61/4/1 64/4/1 62/4/1
f 65/1/1 66/1/1 63/1/1
f 63/1/1 66/1/1 64/1/1
f 67/4/1 68/4/1 65/4/1
f 65/4/1 68/4/1 66/4/1
f 69/1/1 70/1/1 67/1/1
f 67/1/1 70/1/1 68/1/1
f 71/4/1 72/4/1 69/4/1
f 69/4/1 72/4/1 70/4/1
f 73/1/1 74/1/1 71/1/1
f 71/1/1 74/1/1 72/1/1
f 75/4/1 76/4/1 73/4/1
f 73/4/1 76/4/1 74/4/1
f 77/1/1 78/1/1 75/1/1
f 75/1/1 78/1/1 76/1/1
f 79/4/1 80/4/1 77/4/1
f 77/4/1 80/4/1 78/4/1
f 81/3/2 82/3/2 84/3/2
f 84/3/2 82/3/2 83/3/2
f 85/3/2 86/3/2 88/3/2
f 88/3/2 86/3/2 87/3/2
f 89/3/2 90/3/2 91/3/2
f 91/3/2 90/3/2 81/3/2
f 92/3/2 84/3/2 94/3/2
f 94/3/2 84/3/2 93/3/2
f 95/3/2 96/3/2 97/3/2
f 97/3/2 96/3/2 86/3/2
f 97/3/2 98/3/2 100/3/2
f 100/3/2 98/3/2 99/3/2
f 101/3/2 91/3/2 102/3/2
f 102/3/2 91/3/2 92/3/2
f 100/3/2 103/3/2 104/3/2
f 104/3/2 103/3/2 88/3/2
f 105/4/2 106/4/2 108/4/2
f 108/4/2 106/4/2 107/4/2
f 109/4/2 110/4/2 112/4/2
f 112/4/2 110/4/2 111/4/2
f 113/4/2 114/4/2 116/4/2
f 116/4/2 114/4/2 115/4/2
f 117/4/2 118/4/2 120/4/2
f 120/4/2 118/4/2 119/4/2
f 121/1/2 109/1/2 122/1/2
f 122/1/2 109/1/2 112/1/2
f 123/1/2 113/1/2 125/1/2
f 125/1/2 113/1/2 124/1/2
f 126/1/2 127/1/2 128/1/2
f 128/1/2 127/1/2 116/1/2
f 129/1/2 117/1/2 130/1/2
f 130/1/2 117/1/2 120/1/2
f 131/4/2 121/4/2 132/4/2
f 132/4/2 121/4/2 122/4/2
f 133/4/2 123/4/2 134/4/2
f 134/4/2 123/4/2 125/4/2
f 135/4/2 126/4/2 136/4/2
f 136/4/2 126/4/2 128/4/2
f 137/4/2 129/4/2 138/4/2
f 138/4/2 129/4/2 130/4/2
f 139/1/2 131/1/2 140/1/2
f 140/1/2 131/1/2 132/1/2
f 141/1/2 133/1/2 142/1/2
f 142/1/2 133/1/2 134/1/2
f 143/1/2 135/1/2 144/1/2
f 144/1/2 135/1/2 136/1/2
f 145/1/2 137/1/2 146/1/2
f 146/1/2 137/1/2 138/1/2
f 147/4/2 139/4/2 148/4/2
f 148/4/2 139/4/2 140/4/2
f 149/4/2 141/4/2 150/4/2
f 150/4/2 141/4/2 142/4/2
f 151/4/2 143/4/2 152/4/2
f 152/4/2 143/4/2 144/4/2
f 153/4/2 145/4/2 154/4/2
f 154/4/2 145/4/2 146/4/2
f 155/1/2 147/1/2 156/1/2
f 156/1/2 147/1/2 148/1/2
f 157/1/2 149/1/2 158/1/2
f 158/1/2 149/1/2 150/1/2
f 159/1/2 151/1/2 160/1/2
f 160/1/2 151/1/2 152/1/2
f 161/1/2 153/1/2 162/1/2
f 162/1/2 153/1/2 154/1/2
f 163/4/2 155/4/2 164/4/2
f 164/4/2 155/4/2 156/4/2
f 165/4/2 157/4/2 166/4/2
f 166/4/2 157/4/2 158/4/2
f 167/4/2 159/4/2 168/4/2
f 168/4/2 159/4/2 160/4/2
f 169/4/2 161/4/2 170/4/2
f 170/4/2 161/4/2 162/4/2
f 171/1/2 163/1/2 172/1/2
f 172/1/2 163/1/2 164/1/2
f 173/1/2 165/1/2 174/1/2
f 174/1/2 165/1/2 166/1/2
f 175/1/2 167/1/2 176/1/2
f 176/1/2 167/1/2 168/1/2
f 177/1/2 169/1/2 178/1/2
f 178/1/2 169/1/2 170/1/2
f 179/4/2 171/4/2 180/4/2
f 180/4/2 171/4/2 172/4/2
f 181/4/2 173/4/2 182/4/2
f 182/4/2 173/4/2 174/4/2
f 183/4/2 175/4/2 184/4/2
f 184/4/2 175/4/2 176/4/2
f 185/4/2 177/4/2 186/4/2
f 186/4/2 177/4/2 178/4/2
f 187/1/2 179/1/2 188/1/2
f 188/1/2 179/1/2 180/1/2
f 189/1/2 181/1/2 190/1/2
f 190/1/2 181/1/2 182/1/2
f 191/1/2 183/1/2 192/1/2
f 192/1/2 183/1/2 184/1/2
f 193/1/2 185/1/2 194/1/2
f 194/1/2 185/1/2 186/1/2
f 195/4/2 187/4/2 196/4/2
f 196/4/2 187/4/2 188/4/2
f 197/4/2 189/4/2 198/4/2
f 198/4/2 189/4/2 190/4/2
f 199/4/2 191/4/2 200/4/2
f 200/4/2 191/4/2 192/4/2
f 201/4/2 193/4/2 202/4/2
f 202/4/2 193/4/2 194/4/2
f 203/1/2 195/1/2 204/1/2
f 204/1/2 195/1/2 196/1/2
f 205/1/2 197/1/2 206/1/2
f 206/1/2 197/1/2 198/1/2
f 207/1/2 199/1/2 208/1/2
f 208/1/2 199/1/2 200/1/2
f 209/1/2 201/1/2 210/1/2
f 210/1/2 201/1/2 202/1/2
f 211/4/2 203/4/2 212/4/2
f 212/4/2 203/4/2 204/4/2
f 213/4/2 205/4/2 214/4/2
f 214/4/2 205/4/2 206/4/2
f 214/4/2 124/4/2 215/4/2
f 215/4/2 124/4/2 127/4/2
f 215/4/2 207/4/2 216/4/2
f 216/4/2 207/4/2 208/4/2
f 217/4/2 209/4/2 218/4/2
f 218/4/2 209/4/2 210/4/2
f 118/4/3 117/4/3 115/4/3
f 115/4/3 117/4/3 116/4/3
f 117/1/3 129/1/3 116/1/3
f 116/1/3 129/1/3 128/1/3
f 129/4/3 137/4/3 128/4/3
f 128/4/3 137/4/3 136/4/3
f 137/1/3 145/1/3 136/1/3
f 136/1/3 145/1/3 144/1/3
f 145/4/3 153/4/3 144/4/3
f 144/4/3 153/4/3 152/4/3
f 153/1/3 161/1/3 152/1/3
f 152/1/3 161/1/3 160/1/3
f 161/4/3 169/4/3 160/4/3
f 160/4/3 169/4/3 168/4/3
f 169/1/3 177/1/3 168/1/3
f 168/1/3 177/1/3 176/1/3
f 177/4/3 185/4/3 176/4/3
f 176/4/3 185/4/3 184/4/3
f 185/1/3 193/1/3 184/1/3
f 184/1/3 193/1/3 192/1/3
f 193/4/3 201/4/3 192/4/3
f 192/4/3 201/4/3 200/4/3
f 201/1/3 209/1/3 200/1/3
f 200/1/3 209/1/3 208/1/3
f 209/4/3 217/4/3 208/4/3
f 208/4/3 217/4/3 216/4/3
f 55/4/3 54/4/3 119/4/3
f 119/4/3 54/4/3 120/4/3
f 54/1/3 58/1/3 120/1/3
f 120/1/3 58/1/3 130/1/3
f 58/4/3 60/4/3 130/4/3
f 130/4/3 60/4/3 138/4/3
f 60/1/3 62/1/3 138/1/3
f 138/1/3 62/1/3 146/1/3
f 62/4/3 64/4/3 146/4/3
f 146/4/3 64/4/3 154/4/3
f 64/1/3 66/1/3 154/1/3
f 154/1/3 66/1/3 162/1/3
f 66/4/3 68/4/3 162/4/3
f 162/4/3 68/4/3 170/4/3
f 68/1/3 70/1/3 170/1/3
f 170/1/3 70/1/3 178/1/3
f 70/4/3 72/4/3 178/4/3
f 178/4/3 72/4/3 186/4/3
f 72/1/3 74/1/3 186/1/3
f 186/1/3 74/1/3 194/1/3
f 74/4/3 76/4/3 194/4/3
f 194/4/3 76/4/3 202/4/3
f 76/1/3 78/1/3 202/1/3
f 202/1/3 78/1/3 210/1/3
f 78/4/3 80/4/3 210/4/3
f 210/4/3 80/4/3 218/4/3
f 3/4/3 51/4/3 107/4/3
f 107/4/3 51/4/3 108/4/3
f 11/4/3 41/4/3 52/4/3
f 52/4/3 41/4/3 49/4/3
f 103/2/3 99/2/3 42/2/3
f 42/2/3 99/2/3 34/2/3
f 26/3/3 219/3/3 88/3/3
f 88/3/3 219/3/3 104/3/3
f 82/3/3 81/3/3 8/3/3
f 8/3/3 81/3/3 5/3/3
f 84/5/3 92/5/3 6/5/3
f 6/5/3 92/5/3 24/5/3
f 91/3/3 101/3/3 18/3/3
f 18/3/3 101/3/3 36/3/3
f 15/3/3 14/3/3 87/3/3
f 87/3/3 14/3/3 88/3/3
f 14/3/3 220/3/3 93/3/3
f 93/3/3 220/3/3 94/3/3
f 220/3/3 43/3/3 25/3/3
f 25/3/3 43/3/3 219/3/3
f 22/2/3 21/2/3 44/2/3
f 44/2/3 21/2/3 39/2/3
f 111/4/4 114/4/4 112/4/4
f 112/4/4 114/4/4 113/4/4
f 112/1/4 113/1/4 122/1/4
f 122/1/4 113/1/4 123/1/4
f 122/4/4 123/4/4 132/4/4
f 132/4/4 123/4/4 133/4/4
f 132/1/4 133/1/4 140/1/4
f 140/1/4 133/1/4 141/1/4
f 140/4/4 141/4/4 148/4/4
f 148/4/4 141/4/4 149/4/4
f 148/1/4 149/1/4 156/1/4
f 156/1/4 149/1/4 157/1/4
f 156/4/4 157/4/4 164/4/4
f 164/4/4 157/4/4 165/4/4
f 164/1/4 165/1/4 172/1/4
f 172/1/4 165/1/4 173/1/4
f 172/4/4 173/4/4 180/4/4
f 180/4/4 173/4/4 181/4/4
f 180/1/4 181/1/4 188/1/4
f 188/1/4 181/1/4 189/1/4
f 188/4/4 189/4/4 196/4/4
f 196/4/4 189/4/4 197/4/4
f 196/1/4 197/1/4 204/1/4
f 204/1/4 197/1/4 205/1/4
f 204/4/4 205/4/4 212/4/4
f 212/4/4 205/4/4 213/4/4
f 56/4/4 110/4/4 53/4/4
f 53/4/4 110/4/4 109/4/4
f 53/1/4 109/1/4 57/1/4
f 57/1/4 109/1/4 121/1/4
f 57/4/4 121/4/4 59/4/4
f 59/4/4 121/4/4 131/4/4
f 59/1/4 131/1/4 61/1/4
f 61/1/4 131/1/4 139/1/4
f 61/4/4 139/4/4 63/4/4
f 63/4/4 139/4/4 147/4/4
f 63/1/4 147/1/4 65/1/4
f 65/1/4 147/1/4 155/1/4
f 65/4/4 155/4/4 67/4/4
f 67/4/4 155/4/4 163/4/4
f 67/1/4 163/1/4 69/1/4
f 69/1/4 163/1/4 171/1/4
f 69/4/4 171/4/4 71/4/4
f 71/4/4 171/4/4 179/4/4
f 71/1/4 179/1/4 73/1/4
f 73/1/4 179/1/4 187/1/4
f 73/4/4 187/4/4 75/4/4
f 75/4/4 187/4/4 195/4/4
f 75/1/4 195/1/4 77/1/4
f 77/1/4 195/1/4 203/1/4
f 77/4/4 203/4/4 79/4/4
f 79/4/4 203/4/4 211/4/4
f 47/4/4 106/4/4 45/4/4
f 45/4/4 106/4/4 105/4/4
f 29/4/4 1/4/4 27/4/4
f 27/4/4 1/4/4 50/4/4
f 85/2/4 9/2/4 98/2/4
f 98/2/4 9/2/4 35/2/4
f 19/3/4 221/3/4 222/3/4
f 222/3/4 221/3/4 95/3/4
f 83/3/4 7/3/4 84/3/4
f 84/3/4 7/3/4 6/3/4
f 81/5/4 5/5/4 91/5/4
f 91/5/4 5/5/4 18/5/4
f 92/3/4 24/3/4 102/3/4
f 102/3/4 24/3/4 37/3/4
f 32/3/4 96/3/4 223/3/4
f 223/3/4 96/3/4 221/3/4
f 223/3/4 90/3/4 224/3/4
f 224/3/4 90/3/4 89/3/4
f 224/3/4 17/3/4 30/3/4
f 30/3/4 17/3/4 222/3/4
f 23/2/4 13/2/4 20/2/4
f 20/2/4 13/2/4 40/2/4
f 114/4/5 111/4/5 105/4/5
f 105/4/5 111/4/5 110/4/5
f 5/3/5 81/3/5 19/3/5
f 19/3/5 81/3/5 90/3/5
f 36/3/5 31/3/5 222/3/5
f 222/3/5 31/3/5 30/3/5
f 34/2/5 99/2/5 35/2/5
f 35/2/5 99/2/5 98/2/5
f 24/5/5 92/5/5 18/5/5
f 18/5/5 92/5/5 91/5/5
f 39/2/5 21/2/5 40/2/5
f 40/2/5 21/2/5 20/2/5
f 49/4/5 41/4/5 50/4/5
f 50/4/5 41/4/5 27/4/5
f 104/3/5 219/3/5 95/3/5
f 95/3/5 219/3/5 222/3/5
f 26/3/5 93/3/5 6/3/5
f 6/3/5 93/3/5 84/3/5
f 219/3/5 225/3/5 37/3/5
f 37/3/5 225/3/5 102/3/5
f 225/3/5 43/3/5 101/3/5
f 101/3/5 43/3/5 31/3/5
f 108/4/5 119/4/5 115/4/5
f 115/4/5 119/4/5 118/4/5
f 55/4/5 51/4/5 56/4/5
f 56/4/5 51/4/5 45/4/5
f 18/3/6 17/3/6 91/3/6
f 91/3/6 17/3/6 89/3/6
f 8/3/6 226/3/6 16/3/6
f 16/3/6 226/3/6 32/3/6
f 42/2/6 9/2/6 103/2/6
f 103/2/6 9/2/6 85/2/6
f 6/5/6 5/5/6 84/5/6
f 84/5/6 5/5/6 81/5/6
f 44/2/6 13/2/6 22/2/6
f 22/2/6 13/2/6 23/2/6
f 52/4/6 1/4/6 11/4/6
f 11/4/6 1/4/6 29/4/6
f 87/3/6 96/3/6 227/3/6
f 227/3/6 96/3/6 226/3/6
f 227/3/6 7/3/6 228/3/6
f 228/3/6 7/3/6 83/3/6
f 25/3/6 24/3/6 94/3/6
f 94/3/6 24/3/6 92/3/6
f 228/3/6 82/3/6 15/3/6
f 15/3/6 82/3/6 16/3/6
f 107/4/6 106/4/6 3/4/6
f 3/4/6 106/4/6 47/4/6
f 229/4/1 230/4/1 232/4/1
f 232/4/1 230/4/1 231/4/1
f 233/3/1 234/3/1 236/3/1
f 236/3/1 234/3/1 235/3/1
f 237/4/1 238/4/1 240/4/1
f 240/4/1 238/4/1 239/4/1
f 241/3/1 242/3/1 244/3/1
f 244/3/1 242/3/1 243/3/1
f 245/3/1 246/3/1 247/3/1
f 247/3/1 246/3/1 233/3/1
f 248/2/1 249/2/1 251/2/1
f 251/2/1 249/2/1 250/2/1
f 252/3/1 253/3/1 234/3/1
f 234/3/1 253/3/1 254/3/1
f 255/4/1 256/4/1 257/4/1
f 257/4/1 256/4/1 240/4/1
f 258/3/1 259/3/1 260/3/1
f 260/3/1 259/3/1 244/3/1
f 256/4/1 261/4/1 263/4/1
f 263/4/1 261/4/1 262/4/1
f 264/3/1 265/3/1 246/3/1
f 246/3/1 265/3/1 252/3/1
f 259/3/1 266/3/1 268/3/1
f 268/3/1 266/3/1 267/3/1
f 261/4/1 269/4/1 270/4/1
f 270/4/1 269/4/1 238/4/1
f 266/3/1 271/3/1 272/3/1
f 272/3/1 271/3/1 242/3/1
f 273/4/1 274/4/1 275/4/1
f 275/4/1 274/4/1 232/4/1
f 274/4/1 276/4/1 278/4/1
f 278/4/1 276/4/1 277/4/1
f 276/4/1 279/4/1 280/4/1
f 280/4/1 279/4/1 230/4/1
f 281/4/1 282/4/1 284/4/1
f 284/4/1 282/4/1 283/4/1
f 285/1/1 286/1/1 281/1/1
f 281/1/1 286/1/1 282/1/1
f 287/4/1 288/4/1 285/4/1
f 285/4/1 288/4/1 286/4/1
f 289/1/1 290/1/1 287/1/1
f 287/1/1 290/1/1 288/1/1
f 291/4/1 292/4/1 289/4/1
f 289/4/1 292/4/1 290/4/1
f 293/1/1 294/1/1 291/1/1
f 291/1/1 294/1/1 292/1/1
f 295/4/1 296/4/1 293/4/1
f 293/4/1 296/4/1 294/4/1
f 297/1/1 298/1/1 295/1/1
f 295/1/1 298/1/1 296/1/1
f 299/4/1 300/4/1 297/4/1
f 297/4/1 300/4/1 298/4/1
f 301/1/1 302/1/1 299/1/1
f 299/1/1 302/1/1 300/1/1
f 303/4/1 304/4/1 301/4/1
f 301/4/1 304/4/1 302/4/1
f 305/1/1 306/1/1 303/1/1
f 303/1/1 306/1/1 304/1/1
f 307/4/1 308/4/1 305/4/1
f 305/4/1 308/4/1 306/4/1
f 309/3/2 310/3/2 312/3/2
f 312/3/2 310/3/2 311/3/2
f 313/3/2 314/3/2 316/3/2
f 316/3/2 314/3/2 315/3/2
f 317/3/2 318/3/2 319/3/2
f 319/3/2 318/3/2 309/3/2
f 320/3/2 312/3/2 322/3/2
f 322/3/2 312/3/2 321/3/2
f 323/3/2 324/3/2 325/3/2
f 325/3/2 324/3/2 314/3/2
f 325/3/2 326/3/2 328/3/2
f 328/3/2 326/3/2 327/3/2
f 329/3/2 319/3/2 330/3/2
f 330/3/2 319/3/2 320/3/2
f 328/3/2 331/3/2 332/3/2
f 332/3/2 331/3/2 316/3/2
f 333/4/2 334/4/2 336/4/2
f 336/4/2 334/4/2 335/4/2
f 337/4/2 338/4/2 340/4/2
f 340/4/2 338/4/2 339/4/2
f 341/4/2 342/4/2 344/4/2
f 344/4/2 342/4/2 343/4/2
f 345/4/2 346/4/2 348/4/2
f 348/4/2 346/4/2 347/4/2
f 349/1/2 337/1/2 350/1/2
f 350/1/2 337/1/2 340/1/2
f 351/1/2 341/1/2 353/1/2
f 353/1/2 341/1/2 352/1/2
f 354/1/2 355/1/2 356/1/2
f 356/1/2 355/1/2 344/1/2
f 357/1/2 345/1/2 358/1/2
f 358/1/2 345/1/2 348/1/2
f 359/4/2 349/4/2 360/4/2
f 360/4/2 349/4/2 350/4/2
f 361/4/2 351/4/2 362/4/2
f 362/4/2 351/4/2 353/4/2
f 363/4/2 354/4/2 364/4/2
f 364/4/2 354/4/2 356/4/2
f 365/4/2 357/4/2 366/4/2
f 366/4/2 357/4/2 358/4/2
f 367/1/2 359/1/2 368/1/2
f 368/1/2 359/1/2 360/1/2
f 369/1/2 361/1/2 370/1/2
f 370/1/2 361/1/2 362/1/2
f 371/1/2 363/1/2 372/1/2
f 372/1/2 363/1/2 364/1/2
f 373/1/2 365/1/2 374/1/2
f 374/1/2 365/1/2 366/1/2
f 375/4/2 367/4/2 376/4/2
f 376/4/2 367/4/2 368/4/2
f 377/4/2 369/4/2 378/4/2
f 378/4/2 369/4/2 370/4/2
f 379/4/2 371/4/2 380/4/2
f 380/4/2 371/4/2 372/4/2
f 381/4/2 373/4/2 382/4/2
f 382/4/2 373/4/2 374/4/2
f 383/1/2 375/1/2 384/1/2
f 384/1/2 375/1/2 376/1/2
f 385/1/2 377/1/2 386/1/2
f 386/1/2 377/1/2 378/1/2
f 387/1/2 379/1/2 388/1/2
f 388/1/2 379/1/2 380/1/2
f 389/1/2 381/1/2 390/1/2
f 390/1/2 381/1/2 382/1/2
f 391/4/2 383/4/2 392/4/2
f 392/4/2 383/4/2 384/4/2
f 393/4/2 385/4/2 394/4/2
f 394/4/2 385/4/2 386/4/2
f 395/4/2 387/4/2 396/4/2
f 396/4/2 387/4/2 388/4/2
f 397/4/2 389/4/2 398/4/2
f 398/4/2 389/4/2 390/4/2
f 399/1/2 391/1/2 400/1/2
f 400/1/2 391/1/2 392/1/2
f 401/1/2 393/1/2 402/1/2
f 402/1/2 393/1/2 394/1/2
f 403/1/2 395/1/2 404/1/2
f 404/1/2 395/1/2 396/1/2
f 405/1/2 397/1/2 406/1/2
f 406/1/2 397/1/2 398/1/2
f 407/4/2 399/4/2 408/4/2
f 408/4/2 399/4/2 400/4/2
f 409/4/2 401/4/2 410/4/2
f 410/4/2 401/4/2 402/4/2
f 411/4/2 403/4/2 412/4/2
f 412/4/2 403/4/2 404/4/2
f 413/4/2 405/4/2 414/4/2
f 414/4/2 405/4/2 406/4/2
f 415/1/2 407/1/2 416/1/2
f 416/1/2 407/1/2 408/1/2
f 417/1/2 409/1/2 418/1/2
f 418/1/2 409/1/2 410/1/2
f 419/1/2 411/1/2 420/1/2
f 420/1/2 411/1/2 412/1/2
f 421/1/2 413/1/2 422/1/2
f 422/1/2 413/1/2 414/1/2
f 423/4/2 415/4/2 424/4/2
f 424/4/2 415/4/2 416/4/2
f 425/4/2 417/4/2 426/4/2
f 426/4/2 417/4/2 418/4/2
f 427/4/2 419/4/2 428/4/2
f 428/4/2 419/4/2 420/4/2
f 429/4/2 421/4/2 430/4/2
f 430/4/2 421/4/2 422/4/2
f 431/1/2 423/1/2 432/1/2
f 432/1/2 423/1/2 424/1/2
f 433/1/2 425/1/2 434/1/2
f 434/1/2 425/1/2 426/1/2
f 435/1/2 427/1/2 436/1/2
f 436/1/2 427/1/2 428/1/2
f 437/1/2 429/1/2 438/1/2
f 438/1/2 429/1/2 430/1/2
f 439/4/2 431/4/2 440/4/2
f 440/4/2 431/4/2 432/4/2
f 441/4/2 433/4/2 442/4/2
f 442/4/2 433/4/2 434/4/2
f 442/4/2 352/4/2 443/4/2
f 443/4/2 352/4/2 355/4/2
f 443/4/2 435/4/2 444/4/2
f 444/4/2 435/4/2 436/4/2
f 445/4/2 437/4/2 446/4/2
f 446/4/2 437/4/2 438/4/2
f 346/4/3 345/4/3 343/4/3
f 343/4/3 345/4/3 344/4/3
f 345/1/3 357/1/3 344/1/3
f 344/1/3 357/1/3 356/1/3
f 357/4/3 365/4/3 356/4/3
f 356/4/3 365/4/3 364/4/3
f 365/1/3 373/1/3 364/1/3
f 364/1/3 373/1/3 372/1/3
f 373/4/3 381/4/3 372/4/3
f 372/4/3 381/4/3 380/4/3
f 381/1/3 389/1/3 380/1/3
f 380/1/3 389/1/3 388/1/3
f 389/4/3 397/4/3 388/4/3
f 388/4/3 397/4/3 396/4/3
f 397/1/3 405/1/3 396/1/3
f 396/1/3 405/1/3 404/1/3
f 405/4/3 413/4/3 404/4/3
f 404/4/3 413/4/3 412/4/3
f 413/1/3 421/1/3 412/1/3
f 412/1/3 421/1/3 420/1/3
f 421/4/3 429/4/3 420/4/3
f 420/4/3 429/4/3 428/4/3
f 429/1/3 437/1/3 428/1/3
f 428/1/3 437/1/3 436/1/3
f 437/4/3 445/4/3 436/4/3
f 436/4/3 445/4/3 444/4/3
f 283/4/3 282/4/3 347/4/3
f 347/4/3 282/4/3 348/4/3
f 282/1/3 286/1/3 348/1/3
f 348/1/3 286/1/3 358/1/3
f 286/4/3 288/4/3 358/4/3
f 358/4/3 288/4/3 366/4/3
f 288/1/3 290/1/3 366/1/3
f 366/1/3 290/1/3 374/1/3
f 290/4/3 292/4/3 374/4/3
f 374/4/3 292/4/3 382/4/3
f 292/1/3 294/1/3 382/1/3
f 382/1/3 294/1/3 390/1/3
f 294/4/3 296/4/3 390/4/3
f 390/4/3 296/4/3 398/4/3
f 296/1/3 298/1/3 398/1/3
f 398/1/3 298/1/3 406/1/3
f 298/4/3 300/4/3 406/4/3
f 406/4/3 300/4/3 414/4/3
f 300/1/3 302/1/3 414/1/3
f 414/1/3 302/1/3 422/1/3
f 302/4/3 304/4/3 422/4/3
f 422/4/3 304/4/3 430/4/3
f 304/1/3 306/1/3 430/1/3
f 430/1/3 306/1/3 438/1/3
f 306/4/3 308/4/3 438/4/3
f 438/4/3 308/4/3 446/4/3
f 231/4/3 279/4/3 335/4/3
f 335/4/3 279/4/3 336/4/3
f 239/4/3 269/4/3 280/4/3
f 280/4/3 269/4/3 277/4/3
f 331/2/3 327/2/3 270/2/3
f 270/2/3 327/2/3 262/2/3
f 254/3/3 447/3/3 316/3/3
f 316/3/3 447/3/3 332/3/3
f 310/3/3 309/3/3 236/3/3
f 236/3/3 309/3/3 233/3/3
f 312/5/3 320/5/3 234/5/3
f 234/5/3 320/5/3 252/5/3
f 319/3/3 329/3/3 246/3/3
f 246/3/3 329/3/3 264/3/3
f 243/3/3 242/3/3 315/3/3
f 315/3/3 242/3/3 316/3/3
f 242/3/3 448/3/3 321/3/3
f 321/3/3 448/3/3 322/3/3
f 448/3/3 271/3/3 253/3/3
f 253/3/3 271/3/3 447/3/3
f 250/2/3 249/2/3 272/2/3
f 272/2/3 249/2/3 267/2/3
f 339/4/4 342/4/4 340/4/4
f 340/4/4 342/4/4 341/4/4
f 340/1/4 341/1/4 350/1/4
f 350/1/4 341/1/4 351/1/4
f 350/4/4 351/4/4 360/4/4
f 360/4/4 351/4/4 361/4/4
f 360/1/4 361/1/4 368/1/4
f 368/1/4 361/1/4 369/1/4
f 368/4/4 369/4/4 376/4/4
f 376/4/4 369/4/4 377/4/4
f 376/1/4 377/1/4 384/1/4
f 384/1/4 377/1/4 385/1/4
f 384/4/4 385/4/4 392/4/4
f 392/4/4 385/4/4 393/4/4
f 392/1/4 393/1/4 400/1/4
f 400/1/4 393/1/4 401/1/4
f 400/4/4 401/4/4 408/4/4
f 408/4/4 401/4/4 409/4/4
f 408/1/4 409/1/4 416/1/4
f 416/1/4 409/1/4 417/1/4
f 416/4/4 417/4/4 424/4/4
f 424/4/4 417/4/4 425/4/4
f 424/1/4 425/1/4 432/1/4
f 432/1/4 425/1/4 433/1/4
f 432/4/4 433/4/4 440/4/4
f 440/4/4 433/4/4 441/4/4
f 284/4/4 338/4/4 281/4/4
f 281/4/4 338/4/4 337/4/4
f 281/1/4 337/1/4 285/1/4
f 285/1/4 337/1/4 349/1/4
f 285/4/4 349/4/4 287/4/4
f 287/4/4 349/4/4 359/4/4
f 287/1/4 359/1/4 289/1/4
f 289/1/4 359/1/4 367/1/4
f 289/4/4 367/4/4 291/4/4
f 291/4/4 367/4/4 375/4/4
f 291/1/4 375/1/4 293/1/4
f 293/1/4 375/1/4 383/1/4
f 293/4/4 383/4/4 295/4/4
f 295/4/4 383/4/4 391/4/4
f 295/1/4 391/1/4 297/1/4
f 297/1/4 391/1/4 399/1/4
f 297/4/4 399/4/4 299/4/4
f 299/4/4 399/4/4 407/4/4
f 299/1/4 407/1/4 301/1/4
f 301/1/4 407/1/4 415/1/4
f 301/4/4 415/4/4 303/4/4
f 303/4/4 415/4/4 423/4/4
f 303/1/4 423/1/4 305/1/4
f 305/1/4 423/1/4 431/1/4
f 305/4/4 431/4/4 307/4/4
f 307/4/4 431/4/4 439/4/4
f 275/4/4 334/4/4 273/4/4
f 273/4/4 334/4/4 333/4/4
f 257/4/4 229/4/4 255/4/4
f 255/4/4 229/4/4 278/4/4
f 313/2/4 237/2/4 326/2/4
f 326/2/4 237/2/4 263/2/4
f 247/3/4 449/3/4 450/3/4
f 450/3/4 449/3/4 323/3/4
f 311/3/4 235/3/4 312/3/4
f 312/3/4 235/3/4 234/3/4
f 309/5/4 233/5/4 319/5/4
f 319/5/4 233/5/4 246/5/4
f 320/3/4 252/3/4 330/3/4
f 330/3/4 252/3/4 265/3/4
f 260/3/4 324/3/4 451/3/4
f 451/3/4 324/3/4 449/3/4
f 451/3/4 318/3/4 452/3/4
f 452/3/4 318/3/4 317/3/4
f 452/3/4 245/3/4 258/3/4
f 258/3/4 245/3/4 450/3/4
f 251/2/4 241/2/4 248/2/4
f 248/2/4 241/2/4 268/2/4
f 342/4/5 339/4/5 333/4/5
f 333/4/5 339/4/5 338/4/5
f 233/3/5 309/3/5 247/3/5
f 247/3/5 309/3/5 318/3/5
f 264/3/5 259/3/5 450/3/5
f 450/3/5 259/3/5 258/3/5
f 262/2/5 327/2/5 263/2/5
f 263/2/5 327/2/5 326/2/5
f 252/5/5 320/5/5 246/5/5
f 246/5/5 320/5/5 319/5/5
f 267/2/5 249/2/5 268/2/5
f 268/2/5 249/2/5 248/2/5
f 277/4/5 269/4/5 278/4/5
f 278/4/5 269/4/5 255/4/5
f 332/3/5 447/3/5 323/3/5
f 323/3/5 447/3/5 450/3/5
f 254/3/5 321/3/5 234/3/5
f 234/3/5 321/3/5 312/3/5
f 447/3/5 453/3/5 265/3/5
f 265/3/5 453/3/5 330/3/5
f 453/3/5 271/3/5 329/3/5
f 329/3/5 271/3/5 259/3/5
f 336/4/5 347/4/5 343/4/5
f 343/4/5 347/4/5 346/4/5
f 283/4/5 279/4/5 284/4/5
f 284/4/5 279/4/5 273/4/5
f 246/3/6 245/3/6 319/3/6
f 319/3/6 245/3/6 317/3/6
f 236/3/6 454/3/6 244/3/6
f 244/3/6 454/3/6 260/3/6
f 270/2/6 237/2/6 331/2/6
f 331/2/6 237/2/6 313/2/6
f 234/5/6 233/5/6 312/5/6
f 312/5/6 233/5/6 309/5/6
f 272/2/6 241/2/6 250/2/6
f 250/2/6 241/2/6 251/2/6
f 280/4/6 229/4/6 239/4/6
f 239/4/6 229/4/6 257/4/6
f 315/3/6 324/3/6 455/3/6
f 455/3/6 324/3/6 454/3/6
f 455/3/6 235/3/6 456/3/6
f 456/3/6 235/3/6 311/3/6
f 253/3/6 252/3/6 322/3/6
f 322/3/6 252/3/6 320/3/6
f 456/3/6 310/3/6 243/3/6
f 243/3/6 310/3/6 244/3/6
f 335/4/6 334/4/6 231/4/6
f 231/4/6 334/4/6 275/4/6
f 457/4/1 458/4/1 79/4/1
f 79/4/1 458/4/1 80/4/1
f 459/1/1 460/1/1 457/1/1
f 457/1/1 460/1/1 458/1/1
f 461/4/1 462/4/1 459/4/1
f 459/4/1 462/4/1 460/4/1
f 463/4/1 464/4/1 466/4/1
f 466/4/1 464/4/1 465/4/1
f 467/3/1 468/3/1 470/3/1
f 470/3/1 468/3/1 469/3/1
f 471/4/1 472/4/1 474/4/1
f 474/4/1 472/4/1 473/4/1
f 475/3/1 476/3/1 478/3/1
f 478/3/1 476/3/1 477/3/1
f 479/3/1 480/3/1 481/3/1
f 481/3/1 480/3/1 467/3/1
f 482/2/1 483/2/1 485/2/1
f 485/2/1 483/2/1 484/2/1
f 486/3/1 487/3/1 468/3/1
f 468/3/1 487/3/1 488/3/1
f 489/4/1 490/4/1 491/4/1
f 491/4/1 490/4/1 474/4/1
f 492/3/1 493/3/1 494/3/1
f 494/3/1 493/3/1 478/3/1
f 490/4/1 495/4/1 497/4/1
f 497/4/1 495/4/1 496/4/1
f 498/3/1 499/3/1 480/3/1
f 480/3/1 499/3/1 486/3/1
f 493/3/1 500/3/1 502/3/1
f 502/3/1 500/3/1 501/3/1
f 495/4/1 503/4/1 504/4/1
f 504/4/1 503/4/1 472/4/1
f 500/3/1 505/3/1 506/3/1
f 506/3/1 505/3/1 476/3/1
f 507/4/1 508/4/1 509/4/1
f 509/4/1 508/4/1 466/4/1
f 508/4/1 510/4/1 512/4/1
f 512/4/1 510/4/1 511/4/1
f 510/4/1 513/4/1 514/4/1
f 514/4/1 513/4/1 464/4/1
f 515/4/2 211/4/2 516/4/2
f 516/4/2 211/4/2 212/4/2
f 517/4/2 213/4/2 518/4/2
f 518/4/2 213/4/2 216/4/2
f 519/4/2 217/4/2 520/4/2
f 520/4/2 217/4/2 218/4/2
f 521/1/2 515/1/2 522/1/2
f 522/1/2 515/1/2 516/1/2
f 523/1/2 517/1/2 525/1/2
f 525/1/2 517/1/2 524/1/2
f 526/1/2 527/1/2 528/1/2
f 528/1/2 527/1/2 518/1/2
f 529/1/2 519/1/2 530/1/2
f 530/1/2 519/1/2 520/1/2
f 531/4/2 521/4/2 532/4/2
f 532/4/2 521/4/2 522/4/2
f 533/4/2 529/4/2 534/4/2
f 534/4/2 529/4/2 530/4/2
f 535/3/2 536/3/2 538/3/2
f 538/3/2 536/3/2 537/3/2
f 539/3/2 540/3/2 542/3/2
f 542/3/2 540/3/2 541/3/2
f 543/3/2 544/3/2 545/3/2
f 545/3/2 544/3/2 535/3/2
f 546/3/2 538/3/2 548/3/2
f 548/3/2 538/3/2 547/3/2
f 549/3/2 550/3/2 551/3/2
f 551/3/2 550/3/2 540/3/2
f 551/3/2 552/3/2 554/3/2
f 554/3/2 552/3/2 553/3/2
f 555/3/2 545/3/2 556/3/2
f 556/3/2 545/3/2 546/3/2
f 554/3/2 557/3/2 558/3/2
f 558/3/2 557/3/2 542/3/2
f 559/4/2 560/4/2 562/4/2
f 562/4/2 560/4/2 561/4/2
f 562/4/2 523/4/2 563/4/2
f 563/4/2 523/4/2 525/4/2
f 563/4/2 524/4/2 564/4/2
f 564/4/2 524/4/2 527/4/2
f 564/4/2 526/4/2 565/4/2
f 565/4/2 526/4/2 528/4/2
f 565/4/2 566/4/2 568/4/2
f 568/4/2 566/4/2 567/4/2
f 217/4/3 519/4/3 216/4/3
f 216/4/3 519/4/3 518/4/3
f 519/1/3 529/1/3 518/1/3
f 518/1/3 529/1/3 528/1/3
f 529/4/3 533/4/3 528/4/3
f 528/4/3 533/4/3 566/4/3
f 80/4/3 458/4/3 218/4/3
f 218/4/3 458/4/3 520/4/3
f 458/1/3 460/1/3 520/1/3
f 520/1/3 460/1/3 530/1/3
f 460/4/3 462/4/3 530/4/3
f 530/4/3 462/4/3 534/4/3
f 465/4/3 513/4/3 567/4/3
f 567/4/3 513/4/3 568/4/3
f 473/4/3 503/4/3 514/4/3
f 514/4/3 503/4/3 511/4/3
f 557/2/3 553/2/3 504/2/3
f 504/2/3 553/2/3 496/2/3
f 488/3/3 569/3/3 542/3/3
f 542/3/3 569/3/3 558/3/3
f 536/3/3 535/3/3 470/3/3
f 470/3/3 535/3/3 467/3/3
f 538/5/3 546/5/3 468/5/3
f 468/5/3 546/5/3 486/5/3
f 545/3/3 555/3/3 480/3/3
f 480/3/3 555/3/3 498/3/3
f 477/3/3 476/3/3 541/3/3
f 541/3/3 476/3/3 542/3/3
f 476/3/3 570/3/3 547/3/3
f 547/3/3 570/3/3 548/3/3
f 570/3/3 505/3/3 487/3/3
f 487/3/3 505/3/3 569/3/3
f 484/2/3 483/2/3 506/2/3
f 506/2/3 483/2/3 501/2/3
f 212/4/4 213/4/4 516/4/4
f 516/4/4 213/4/4 517/4/4
f 516/1/4 517/1/4 522/1/4
f 522/1/4 517/1/4 523/1/4
f 522/4/4 523/4/4 532/4/4
f 532/4/4 523/4/4 561/4/4
f 79/4/4 211/4/4 457/4/4
f 457/4/4 211/4/4 515/4/4
f 457/1/4 515/1/4 459/1/4
f 459/1/4 515/1/4 521/1/4
f 459/4/4 521/4/4 461/4/4
f 461/4/4 521/4/4 531/4/4
f 509/4/4 560/4/4 507/4/4
f 507/4/4 560/4/4 559/4/4
f 491/4/4 463/4/4 489/4/4
f 489/4/4 463/4/4 512/4/4
f 539/2/4 471/2/4 552/2/4
f 552/2/4 471/2/4 497/2/4
f 481/3/4 571/3/4 572/3/4
f 572/3/4 571/3/4 549/3/4
f 537/3/4 469/3/4 538/3/4
f 538/3/4 469/3/4 468/3/4
f 535/5/4 467/5/4 545/5/4
f 545/5/4 467/5/4 480/5/4
f 546/3/4 486/3/4 556/3/4
f 556/3/4 486/3/4 499/3/4
f 494/3/4 550/3/4 573/3/4
f 573/3/4 550/3/4 571/3/4
f 573/3/4 544/3/4 574/3/4
f 574/3/4 544/3/4 543/3/4
f 574/3/4 479/3/4 492/3/4
f 492/3/4 479/3/4 572/3/4
f 485/2/4 475/2/4 482/2/4
f 482/2/4 475/2/4 502/2/4
f 467/3/5 535/3/5 481/3/5
f 481/3/5 535/3/5 544/3/5
f 498/3/5 493/3/5 572/3/5
f 572/3/5 493/3/5 492/3/5
f 496/2/5 553/2/5 497/2/5
f 497/2/5 553/2/5 552/2/5
f 486/5/5 546/5/5 480/5/5
f 480/5/5 546/5/5 545/5/5
f 501/2/5 483/2/5 502/2/5
f 502/2/5 483/2/5 482/2/5
f 511/4/5 503/4/5 512/4/5
f 512/4/5 503/4/5 489/4/5
f 558/3/5 569/3/5 549/3/5
f 549/3/5 569/3/5 572/3/5
f 488/3/5 547/3/5 468/3/5
f 468/3/5 547/3/5 538/3/5
f 569/3/5 575/3/5 499/3/5
f 499/3/5 575/3/5 556/3/5
f 575/3/5 505/3/5 555/3/5
f 555/3/5 505/3/5 493/3/5
f 568/4/5 513/4/5 559/4/5
f 559/4/5 513/4/5 507/4/5
f 561/4/6 560/4/6 532/4/6
f 532/4/6 560/4/6 531/4/6
f 480/3/6 479/3/6 545/3/6
f 545/3/6 479/3/6 543/3/6
f 470/3/6 576/3/6 478/3/6
f 478/3/6 576/3/6 494/3/6
f 504/2/6 471/2/6 557/2/6
f 557/2/6 471/2/6 539/2/6
f 468/5/6 467/5/6 538/5/6
f 538/5/6 467/5/6 535/5/6
f 506/2/6 475/2/6 484/2/6
f 484/2/6 475/2/6 485/2/6
f 514/4/6 463/4/6 473/4/6
f 473/4/6 463/4/6 491/4/6
f 541/3/6 550/3/6 577/3/6
f 577/3/6 550/3/6 576/3/6
f 577/3/6 469/3/6 578/3/6
f 578/3/6 469/3/6 537/3/6
f 487/3/6 486/3/6 548/3/6
f 548/3/6 486/3/6 546/3/6
f 578/3/6 536/3/6 477/3/6
f 477/3/6 536/3/6 478/3/6
f 567/4/6 566/4/6 534/4/6
f 534/4/6 566/4/6 533/4/6
f 462/4/6 461/4/6 465/4/6
f 465/4/6 461/4/6 509/4/6
f 579/4/1 580/4/1 307/4/1
f 307/4/1 580/4/1 308/4/1
f 581/1/1 582/1/1 579/1/1
f 579/1/1 582/1/1 580/1/1
f 583/4/1 584/4/1 581/4/1
f 581/4/1 584/4/1 582/4/1
f 585/4/1 586/4/1 588/4/1
f 588/4/1 586/4/1 587/4/1
f 589/3/1 590/3/1 592/3/1
f 592/3/1 590/3/1 591/3/1
f 593/4/1 594/4/1 596/4/1
f 596/4/1 594/4/1 595/4/1
f 597/3/1 598/3/1 600/3/1
f 600/3/1 598/3/1 599/3/1
f 601/3/1 602/3/1 603/3/1
f 603/3/1 602/3/1 589/3/1
f 604/2/1 605/2/1 607/2/1
f 607/2/1 605/2/1 606/2/1
f 608/3/1 609/3/1 590/3/1
f 590/3/1 609/3/1 610/3/1
f 611/4/1 612/4/1 613/4/1
f 613/4/1 612/4/1 596/4/1
f 614/3/1 615/3/1 616/3/1
f 616/3/1 615/3/1 600/3/1
f 612/4/1 617/4/1 619/4/1
f 619/4/1 617/4/1 618/4/1
f 620/3/1 621/3/1 602/3/1
f 602/3/1 621/3/1 608/3/1
f 615/3/1 622/3/1 624/3/1
f 624/3/1 622/3/1 623/3/1
f 617/4/1 625/4/1 626/4/1
f 626/4/1 625/4/1 594/4/1
f 622/3/1 627/3/1 628/3/1
f 628/3/1 627/3/1 598/3/1
f 629/4/1 630/4/1 631/4/1
f 631/4/1 630/4/1 588/4/1
f 630/4/1 632/4/1 634/4/1
f 634/4/1 632/4/1 633/4/1
f 632/4/1 635/4/1 636/4/1
f 636/4/1 635/4/1 586/4/1
f 637/4/2 439/4/2 638/4/2
f 638/4/2 439/4/2 440/4/2
f 639/4/2 441/4/2 640/4/2
f 640/4/2 441/4/2 444/4/2
f 641/4/2 445/4/2 642/4/2
f 642/4/2 445/4/2 446/4/2
f 643/1/2 637/1/2 644/1/2
f 644/1/2 637/1/2 638/1/2
f 645/1/2 639/1/2 647/1/2
f 647/1/2 639/1/2 646/1/2
f 648/1/2 649/1/2 650/1/2
f 650/1/2 649/1/2 640/1/2
f 651/1/2 641/1/2 652/1/2
f 652/1/2 641/1/2 642/1/2
f 653/4/2 643/4/2 654/4/2
f 654/4/2 643/4/2 644/4/2
f 655/4/2 651/4/2 656/4/2
f 656/4/2 651/4/2 652/4/2
f 657/3/2 658/3/2 660/3/2
f 660/3/2 658/3/2 659/3/2
f 661/3/2 662/3/2 664/3/2
f 664/3/2 662/3/2 663/3/2
f 665/3/2 666/3/2 667/3/2
f 667/3/2 666/3/2 657/3/2
f 668/3/2 660/3/2 670/3/2
f 670/3/2 660/3/2 669/3/2
f 671/3/2 672/3/2 673/3/2
f 673/3/2 672/3/2 662/3/2
f 673/3/2 674/3/2 676/3/2
f 676/3/2 674/3/2 675/3/2
f 677/3/2 667/3/2 678/3/2
f 678/3/2 667/3/2 668/3/2
f 676/3/2 679/3/2 680/3/2
f 680/3/2 679/3/2 664/3/2
f 681/4/2 682/4/2 684/4/2
f 684/4/2 682/4/2 683/4/2
f 684/4/2 645/4/2 685/4/2
f 685/4/2 645/4/2 647/4/2
f 685/4/2 646/4/2 686/4/2
f 686/4/2 646/4/2 649/4/2
f 686/4/2 648/4/2 687/4/2
f 687/4/2 648/4/2 650/4/2
f 687/4/2 688/4/2 690/4/2
f 690/4/2 688/4/2 689/4/2
f 445/4/3 641/4/3 444/4/3
f 444/4/3 641/4/3 640/4/3
f 641/1/3 651/1/3 640/1/3
f 640/1/3 651/1/3 650/1/3
f 651/4/3 655/4/3 650/4/3
f 650/4/3 655/4/3 688/4/3
f 308/4/3 580/4/3 446/4/3
f 446/4/3 580/4/3 642/4/3
f 580/1/3 582/1/3 642/1/3
f 642/1/3 582/1/3 652/1/3
f 582/4/3 584/4/3 652/4/3
f 652/4/3 584/4/3 656/4/3
f 587/4/3 635/4/3 689/4/3
f 689/4/3 635/4/3 690/4/3
f 595/4/3 625/4/3 636/4/3
f 636/4/3 625/4/3 633/4/3
f 679/2/3 675/2/3 626/2/3
f 626/2/3 675/2/3 618/2/3
f 610/3/3 691/3/3 664/3/3
f 664/3/3 691/3/3 680/3/3
f 658/3/3 657/3/3 592/3/3
f 592/3/3 657/3/3 589/3/3
f 660/5/3 668/5/3 590/5/3
f 590/5/3 668/5/3 608/5/3
f 667/3/3 677/3/3 602/3/3
f 602/3/3 677/3/3 620/3/3
f 599/3/3 598/3/3 663/3/3
f 663/3/3 598/3/3 664/3/3
f 598/3/3 692/3/3 669/3/3
f 669/3/3 692/3/3 670/3/3
f 692/3/3 627/3/3 609/3/3
f 609/3/3 627/3/3 691/3/3
f 606/2/3 605/2/3 628/2/3
f 628/2/3 605/2/3 623/2/3
f 440/4/4 441/4/4 638/4/4
f 638/4/4 441/4/4 639/4/4
f 638/1/4 639/1/4 644/1/4
f 644/1/4 639/1/4 645/1/4
f 644/4/4 645/4/4 654/4/4
f 654/4/4 645/4/4 683/4/4
f 307/4/4 439/4/4 579/4/4
f 579/4/4 439/4/4 637/4/4
f 579/1/4 637/1/4 581/1/4
f 581/1/4 637/1/4 643/1/4
f 581/4/4 643/4/4 583/4/4
f 583/4/4 643/4/4 653/4/4
f 631/4/4 682/4/4 629/4/4
f 629/4/4 682/4/4 681/4/4
f 613/4/4 585/4/4 611/4/4
f 611/4/4 585/4/4 634/4/4
f 661/2/4 593/2/4 674/2/4
f 674/2/4 593/2/4 619/2/4
f 603/3/4 693/3/4 694/3/4
f 694/3/4 693/3/4 671/3/4
f 659/3/4 591/3/4 660/3/4
f 660/3/4 591/3/4 590/3/4
f 657/5/4 589/5/4 667/5/4
f 667/5/4 589/5/4 602/5/4
f 668/3/4 608/3/4 678/3/4
f 678/3/4 608/3/4 621/3/4
f 616/3/4 672/3/4 695/3/4
f 695/3/4 672/3/4 693/3/4
f 695/3/4 666/3/4 696/3/4
f 696/3/4 666/3/4 665/3/4
f 696/3/4 601/3/4 614/3/4
f 614/3/4 601/3/4 694/3/4
f 607/2/4 597/2/4 604/2/4
f 604/2/4 597/2/4 624/2/4
f 589/3/5 657/3/5 603/3/5
f 603/3/5 657/3/5 666/3/5
f 620/3/5 615/3/5 694/3/5
f 694/3/5 615/3/5 614/3/5
f 618/2/5 675/2/5 619/2/5
f 619/2/5 675/2/5 674/2/5
f 608/5/5 668/5/5 602/5/5
f 602/5/5 668/5/5 667/5/5
f 623/2/5 605/2/5 624/2/5
f 624/2/5 605/2/5 604/2/5
f 633/4/5 625/4/5 634/4/5
f 634/4/5 625/4/5 611/4/5
f 680/3/5 691/3/5 671/3/5
f 671/3/5 691/3/5 694/3/5
f 610/3/5 669/3/5 590/3/5
f 590/3/5 669/3/5 660/3/5
f 691/3/5 697/3/5 621/3/5
f 621/3/5 697/3/5 678/3/5
f 697/3/5 627/3/5 677/3/5
f 677/3/5 627/3/5 615/3/5
f 690/4/5 635/4/5 681/4/5
f 681/4/5 635/4/5 629/4/5
f 683/4/6 682/4/6 654/4/6
f 654/4/6 682/4/6 653/4/6
f 602/3/6 601/3/6 667/3/6
f 667/3/6 601/3/6 665/3/6
f 592/3/6 698/3/6 600/3/6
f 600/3/6 698/3/6 616/3/6
f 626/2/6 593/2/6 679/2/6
f 679/2/6 593/2/6 661/2/6
f 590/5/6 589/5/6 660/5/6
f 660/5/6 589/5/6 657/5/6
f 628/2/6 597/2/6 606/2/6
f 606/2/6 597/2/6 607/2/6
f 636/4/6 585/4/6 595/4/6
f 595/4/6 585/4/6 613/4/6
f 663/3/6 672/3/6 699/3/6
f 699/3/6 672/3/6 698/3/6
f 699/3/6 591/3/6 700/3/6
f 700/3/6 591/3/6 659/3/6
f 609/3/6 608/3/6 670/3/6
f 670/3/6 608/3/6 668/3/6
f 700/3/6 658/3/6 599/3/6
f 599/3/6 658/3/6 600/3/6
f 689/4/6 688/4/6 656/4/6
f 656/4/6 688/4/6 655/4/6
f 584/4/6 583/4/6 587/4/6
f 587/4/6 583/4/6 631/4/6
