# Vengi binary mesh normalized for Tanks of Freedom II

mtllib ../../materials/vox_grass.mtl
o bridge2_plate

v 3.9 4 3.9
v -2.2 4 3.9
v -2.2 4 4
v 3.9 4 4
v 3.9 4 3.8
v 3.8 4 3.8
v 3.8 4 3.9
v 3.7 4 3.8
v 3.7 4 3.9
v 3.6 4 3.8
v 3.6 4 3.9
v 3.5 4 3.8
v 3.5 4 3.9
v 3.4 4 3.8
v 3.4 4 3.9
v 3.3 4 3.8
v 3.3 4 3.9
v 3.2 4 3.8
v 3.2 4 3.9
v 3.1 4 3.8
v 3.1 4 3.9
v 3 4 3.8
v 3 4 3.9
v 2.9 4 3.8
v 2.9 4 3.9
v 2.8 4 3.8
v 2.8 4 3.9
v 2.7 4 3.8
v 2.7 4 3.9
v 2.6 4 3.8
v 2.6 4 3.9
v 2.5 4 3.8
v 2.5 4 3.9
v 2.4 4 3.8
v 2.3 4 3.8
v 2.3 4 3.9
v 2.4 4 3.9
v 3.9 4 3.7
v 3.8 4 3.7
v 3.7 4 3.7
v 3.6 4 3.7
v 3.5 4 3.7
v 3.4 4 3.7
v 3.3 4 3.7
v 3.2 4 3.7
v 3.1 4 3.7
v 3 4 3.7
v 2.9 4 3.7
v 2.8 4 3.7
v 2.7 4 3.7
v 2.6 4 3.7
v 3.9 4 3.6
v 3.8 4 3.6
v 3.7 4 3.6
v 3.6 4 3.6
v 3.5 4 3.6
v 3.4 4 3.6
v 3.3 4 3.6
v 3.2 4 3.6
v 3.1 4 3.6
v 3 4 3.6
v 2.9 4 3.6
v 3.9 4 3.5
v 3.8 4 3.5
v 3.7 4 3.5
v 3.6 4 3.5
v 3.5 4 3.5
v 3.4 4 3.5
v 3.3 4 3.5
v 3.2 4 3.5
v 3.9 4 3.4
v 3.8 4 3.4
v 3.7 4 3.4
v 3.6 4 3.4
v 3.5 4 3.4
v 3.4 4 3.4
v 3.3 4 3.4
v 3.9 4 3.3
v 3.8 4 3.3
v 3.7 4 3.3
v 3.6 4 3.3
v 3.5 4 3.3
v 3.4 4 3.3
v 3.9 4 3.2
v 3.8 4 3.2
v 3.7 4 3.2
v 3.6 4 3.2
v 3.5 4 3.2
v 3.9 4 3.1
v 3.8 4 3.1
v 3.7 4 3.1
v 3.6 4 3.1
v 3.9 4 3
v 3.8 4 3
v 3.7 4 3
v 3.6 4 3
v 3.9 4 2.9
v 3.8 4 2.9
v 3.7 4 2.9
v 3.6 4 2.9
v 3.9 4 2.8
v 3.8 4 2.8
v 3.7 4 2.8
v 3.9 4 2.7
v 3.8 4 2.7
v 3.7 4 2.7
v 3.9 4 2.6
v 3.8 4 2.6
v 3.7 4 2.6
v 3.9 4 2.5
v 3.8 4 2.5
v 3.9 4 2.4
v 3.8 4 2.4
v 3.9 4 2.3
v 3.8 4 2.3
v 4 4 -2.2
v 3.9 4 -2.2
v 4 4 4
v 3.8 4 -2.2
v 3.7 4 -2.2
v 3.6 4 -2.2
v 3.5 4 -2.2
v 3.4 4 -2.2
v 3.3 4 -2.2
v 3.2 4 -2.2
v 3.1 4 -2.2
v 3 4 -2.2
v 2.9 4 -2.2
v 2.8 4 -2.2
v 2.7 4 -2.2
v 2.6 4 -2.2
v 2.5 4 -2.2
v 2.4 4 -2.2
v 2.3 4 -2.2
v -2.2 4 -2.2
v 3.9 3 3.9
v 3.9 3 4
v -2.2 3 4
v -2.2 3 3.9
v 4 3 -2.2
v 4 3 4
v 3.9 3 -2.2
v -2.2 3 -2.2
v 4 3.1 4
v 4 3.1 -2.2
v 4 3.2 4
v 4 3.2 -2.2
v 4 3.3 4
v 4 3.3 -2.2
v 4 3.4 4
v 4 3.4 -2.2
v 4 3.5 4
v 4 3.5 -2.2
v 4 3.6 4
v 4 3.6 -2.2
v 4 3.7 4
v 4 3.7 -2.2
v 4 3.8 4
v 4 3.8 -2.2
v 4 3.9 4
v 4 3.9 -2.2
v -2.2 3.1 4
v -2.2 3.2 4
v -2.2 3.3 4
v -2.2 3.4 4
v -2.2 3.5 4
v -2.2 3.6 4
v -2.2 3.7 4
v -2.2 3.8 4
v -2.2 3.9 4
v -4 4 3.9
v -4 4 4
v -2.3 4 3.8
v -2.4 4 3.8
v -2.4 4 3.9
v -2.3 4 3.9
v -2.5 4 3.8
v -2.6 4 3.8
v -2.6 4 3.9
v -2.5 4 3.9
v -2.7 4 3.8
v -2.7 4 3.9
v -2.8 4 3.8
v -2.8 4 3.9
v -2.9 4 3.8
v -2.9 4 3.9
v -3 4 3.8
v -3 4 3.9
v -3.1 4 3.8
v -3.1 4 3.9
v -3.2 4 3.8
v -3.2 4 3.9
v -3.3 4 3.8
v -3.3 4 3.9
v -3.4 4 3.8
v -3.4 4 3.9
v -3.5 4 3.8
v -3.5 4 3.9
v -3.6 4 3.8
v -3.6 4 3.9
v -3.7 4 3.8
v -3.7 4 3.9
v -3.8 4 3.8
v -3.8 4 3.9
v -3.9 4 3.8
v -3.9 4 3.9
v -2.6 4 3.7
v -2.7 4 3.7
v -2.8 4 3.7
v -2.9 4 3.7
v -3 4 3.7
v -3.1 4 3.7
v -3.2 4 3.7
v -3.3 4 3.7
v -3.4 4 3.7
v -3.5 4 3.7
v -3.6 4 3.7
v -3.7 4 3.7
v -3.8 4 3.7
v -3.9 4 3.7
v -2.9 4 3.6
v -3 4 3.6
v -3.1 4 3.6
v -3.2 4 3.6
v -3.3 4 3.6
v -3.4 4 3.6
v -3.5 4 3.6
v -3.6 4 3.6
v -3.7 4 3.6
v -3.8 4 3.6
v -3.9 4 3.6
v -3.2 4 3.5
v -3.3 4 3.5
v -3.4 4 3.5
v -3.5 4 3.5
v -3.6 4 3.5
v -3.7 4 3.5
v -3.8 4 3.5
v -3.9 4 3.5
v -3.3 4 3.4
v -3.4 4 3.4
v -3.5 4 3.4
v -3.6 4 3.4
v -3.7 4 3.4
v -3.8 4 3.4
v -3.9 4 3.4
v -3.4 4 3.3
v -3.5 4 3.3
v -3.6 4 3.3
v -3.7 4 3.3
v -3.8 4 3.3
v -3.9 4 3.3
v -3.5 4 3.2
v -3.6 4 3.2
v -3.7 4 3.2
v -3.8 4 3.2
v -3.9 4 3.2
v -3.6 4 3.1
v -3.7 4 3.1
v -3.8 4 3.1
v -3.9 4 3.1
v -3.6 4 3
v -3.7 4 3
v -3.8 4 3
v -3.9 4 3
v -3.6 4 2.9
v -3.7 4 2.9
v -3.8 4 2.9
v -3.9 4 2.9
v -3.7 4 2.8
v -3.8 4 2.8
v -3.9 4 2.8
v -3.7 4 2.7
v -3.8 4 2.7
v -3.9 4 2.7
v -3.7 4 2.6
v -3.8 4 2.6
v -3.9 4 2.6
v -3.8 4 2.5
v -3.9 4 2.5
v -3.8 4 2.4
v -3.9 4 2.4
v -3.8 4 2.3
v -3.9 4 2.3
v -2.3 4 -2.2
v -2.4 4 -2.2
v -2.5 4 -2.2
v -2.6 4 -2.2
v -2.7 4 -2.2
v -2.8 4 -2.2
v -2.9 4 -2.2
v -3 4 -2.2
v -3.1 4 -2.2
v -3.2 4 -2.2
v -3.3 4 -2.2
v -3.4 4 -2.2
v -3.5 4 -2.2
v -3.6 4 -2.2
v -3.7 4 -2.2
v -3.8 4 -2.2
v -3.9 4 -2.2
v -4 4 -2.2
v -4 3 4
v -4 3 3.9
v -3.9 3 3.9
v -3.9 3 -2.2
v -4 3 -2.2
v -4 3.1 4
v -4 3.1 -2.2
v -4 3.2 4
v -4 3.2 -2.2
v -4 3.3 4
v -4 3.3 -2.2
v -4 3.4 4
v -4 3.4 -2.2
v -4 3.5 4
v -4 3.5 -2.2
v -4 3.6 4
v -4 3.6 -2.2
v -4 3.7 4
v -4 3.7 -2.2
v -4 3.8 4
v -4 3.8 -2.2
v -4 3.9 4
v -4 3.9 -2.2
v 3.9 4 -2.3
v -2.2 4 -2.3
v 3.9 4 -2.4
v 3.8 4 -2.4
v 3.8 4 -2.3
v 3.9 4 -2.5
v 3.8 4 -2.5
v 3.9 4 -2.6
v 3.8 4 -2.6
v -2.2 4 -2.6
v 3.9 4 -2.7
v 3.8 4 -2.7
v 3.7 4 -2.7
v 3.7 4 -2.6
v 3.9 4 -2.8
v 3.8 4 -2.8
v 3.7 4 -2.8
v 3.9 4 -2.9
v 3.8 4 -2.9
v 3.7 4 -2.9
v -2.2 4 -2.9
v 3.9 4 -3
v 3.8 4 -3
v 3.7 4 -3
v 3.6 4 -3
v 3.6 4 -2.9
v 3.9 4 -3.1
v 3.8 4 -3.1
v 3.7 4 -3.1
v 3.6 4 -3.1
v 3.9 4 -3.2
v 3.8 4 -3.2
v 3.7 4 -3.2
v 3.6 4 -3.2
v -2.2 4 -3.2
v 3.9 4 -3.3
v 3.8 4 -3.3
v 3.7 4 -3.3
v 3.6 4 -3.3
v 3.5 4 -3.3
v 3.5 4 -3.2
v -2.2 4 -3.3
v 3.9 4 -3.4
v 3.8 4 -3.4
v 3.7 4 -3.4
v 3.6 4 -3.4
v 3.5 4 -3.4
v 3.4 4 -3.4
v 3.4 4 -3.3
v -2.2 4 -3.4
v 3.9 4 -3.5
v 3.8 4 -3.5
v 3.7 4 -3.5
v 3.6 4 -3.5
v 3.5 4 -3.5
v 3.4 4 -3.5
v 3.3 4 -3.5
v 3.3 4 -3.4
v -2.2 4 -3.5
v 3.9 4 -3.6
v 3.8 4 -3.6
v 3.7 4 -3.6
v 3.6 4 -3.6
v 3.5 4 -3.6
v 3.4 4 -3.6
v 3.3 4 -3.6
v 3.2 4 -3.6
v 3.2 4 -3.5
v -2.2 4 -3.6
v 3.9 4 -3.7
v 3.8 4 -3.7
v 3.7 4 -3.7
v 3.6 4 -3.7
v 3.5 4 -3.7
v 3.4 4 -3.7
v 3.3 4 -3.7
v 3.2 4 -3.7
v 3.1 4 -3.7
v 3.1 4 -3.6
v 3 4 -3.7
v 3 4 -3.6
v 2.9 4 -3.7
v 2.9 4 -3.6
v -2.2 4 -3.7
v 3.9 4 -3.8
v 3.8 4 -3.8
v 3.7 4 -3.8
v 3.6 4 -3.8
v 3.5 4 -3.8
v 3.4 4 -3.8
v 3.3 4 -3.8
v 3.2 4 -3.8
v 3.1 4 -3.8
v 3 4 -3.8
v 2.9 4 -3.8
v 2.8 4 -3.8
v 2.8 4 -3.7
v 2.7 4 -3.8
v 2.7 4 -3.7
v 2.6 4 -3.8
v 2.6 4 -3.7
v -2.2 4 -3.8
v 3.9 4 -3.9
v 3.8 4 -3.9
v 3.7 4 -3.9
v 3.6 4 -3.9
v 3.5 4 -3.9
v 3.4 4 -3.9
v 3.3 4 -3.9
v 3.2 4 -3.9
v 3.1 4 -3.9
v 3 4 -3.9
v 2.9 4 -3.9
v 2.8 4 -3.9
v 2.7 4 -3.9
v 2.6 4 -3.9
v 2.5 4 -3.9
v 2.4 4 -3.9
v 2.4 4 -3.8
v 2.5 4 -3.8
v 2.3 4 -3.9
v -2.2 4 -3.9
v 2.3 4 -3.8
v 4 4 -4
v 3.9 4 -4
v 3.8 4 -4
v 3.7 4 -4
v 3.6 4 -4
v 3.5 4 -4
v 3.4 4 -4
v 3.3 4 -4
v 3.2 4 -4
v 3.1 4 -4
v 3 4 -4
v 2.9 4 -4
v 2.8 4 -4
v 2.7 4 -4
v 2.6 4 -4
v 2.5 4 -4
v 2.4 4 -4
v 2.3 4 -4
v -2.2 4 -4
v 3.9 3 -3.9
v -2.2 3 -3.9
v 4 3 -4
v 3.9 3 -4
v -2.2 3 -4
v 4 3.1 -4
v 4 3.2 -4
v 4 3.3 -4
v 4 3.4 -4
v 4 3.5 -4
v 4 3.6 -4
v 4 3.7 -4
v 4 3.8 -4
v 4 3.9 -4
v -2.2 3.1 -4
v -2.2 3.2 -4
v -2.2 3.3 -4
v -2.2 3.4 -4
v -2.2 3.5 -4
v -2.2 3.6 -4
v -2.2 3.7 -4
v -2.2 3.8 -4
v -2.2 3.9 -4
v -3.8 4 -2.3
v -3.9 4 -2.3
v -3.8 4 -2.4
v -3.9 4 -2.4
v -3.8 4 -2.5
v -3.9 4 -2.5
v -3.7 4 -2.6
v -3.8 4 -2.6
v -3.9 4 -2.6
v -3.7 4 -2.7
v -3.8 4 -2.7
v -3.9 4 -2.7
v -3.7 4 -2.8
v -3.8 4 -2.8
v -3.9 4 -2.8
v -3.6 4 -2.9
v -3.7 4 -2.9
v -3.8 4 -2.9
v -3.9 4 -2.9
v -3.6 4 -3
v -3.7 4 -3
v -3.8 4 -3
v -3.9 4 -3
v -3.6 4 -3.1
v -3.7 4 -3.1
v -3.8 4 -3.1
v -3.9 4 -3.1
v -3.5 4 -3.2
v -3.6 4 -3.2
v -3.7 4 -3.2
v -3.8 4 -3.2
v -3.9 4 -3.2
v -3.4 4 -3.3
v -3.5 4 -3.3
v -3.6 4 -3.3
v -3.7 4 -3.3
v -3.8 4 -3.3
v -3.9 4 -3.3
v -3.3 4 -3.4
v -3.4 4 -3.4
v -3.5 4 -3.4
v -3.6 4 -3.4
v -3.7 4 -3.4
v -3.8 4 -3.4
v -3.9 4 -3.4
v -3.2 4 -3.5
v -3.3 4 -3.5
v -3.4 4 -3.5
v -3.5 4 -3.5
v -3.6 4 -3.5
v -3.7 4 -3.5
v -3.8 4 -3.5
v -3.9 4 -3.5
v -2.9 4 -3.6
v -3.2 4 -3.6
v -3.3 4 -3.6
v -3.4 4 -3.6
v -3.5 4 -3.6
v -3.6 4 -3.6
v -3.7 4 -3.6
v -3.8 4 -3.6
v -3.9 4 -3.6
v -2.6 4 -3.7
v -2.9 4 -3.7
v -3 4 -3.7
v -3 4 -3.6
v -3.1 4 -3.7
v -3.1 4 -3.6
v -3.2 4 -3.7
v -3.3 4 -3.7
v -3.4 4 -3.7
v -3.5 4 -3.7
v -3.6 4 -3.7
v -3.7 4 -3.7
v -3.8 4 -3.7
v -3.9 4 -3.7
v -2.3 4 -3.8
v -2.6 4 -3.8
v -2.7 4 -3.8
v -2.7 4 -3.7
v -2.8 4 -3.8
v -2.8 4 -3.7
v -2.9 4 -3.8
v -3 4 -3.8
v -3.1 4 -3.8
v -3.2 4 -3.8
v -3.3 4 -3.8
v -3.4 4 -3.8
v -3.5 4 -3.8
v -3.6 4 -3.8
v -3.7 4 -3.8
v -3.8 4 -3.8
v -3.9 4 -3.8
v -2.3 4 -3.9
v -2.4 4 -3.9
v -2.5 4 -3.9
v -2.5 4 -3.8
v -2.4 4 -3.8
v -2.6 4 -3.9
v -2.7 4 -3.9
v -2.8 4 -3.9
v -2.9 4 -3.9
v -3 4 -3.9
v -3.1 4 -3.9
v -3.2 4 -3.9
v -3.3 4 -3.9
v -3.4 4 -3.9
v -3.5 4 -3.9
v -3.6 4 -3.9
v -3.7 4 -3.9
v -3.8 4 -3.9
v -3.9 4 -3.9
v -2.3 4 -4
v -2.4 4 -4
v -2.5 4 -4
v -2.6 4 -4
v -2.7 4 -4
v -2.8 4 -4
v -2.9 4 -4
v -3 4 -4
v -3.1 4 -4
v -3.2 4 -4
v -3.3 4 -4
v -3.4 4 -4
v -3.5 4 -4
v -3.6 4 -4
v -3.7 4 -4
v -3.8 4 -4
v -3.9 4 -4
v -4 4 -4
v -3.9 3 -3.9
v -3.9 3 -4
v -4 3 -4
v -4 3.1 -4
v -4 3.2 -4
v -4 3.3 -4
v -4 3.4 -4
v -4 3.5 -4
v -4 3.6 -4
v -4 3.7 -4
v -4 3.8 -4
v -4 3.9 -4

vt 0.0332031 0.5
vt 0.0371094 0.5
vt 0.0683594 0.5
vt 0.0996094 0.5

vn 0 1 0
vn 0 -1 0
vn 1 0 0
vn 0 0 1
vn -1 0 0
vn 0 0 -1

usemtl palette
f 1/2/1 2/2/1 4/2/1
f 4/2/1 2/2/1 3/2/1
f 5/3/1 6/3/1 1/3/1
f 1/3/1 6/3/1 7/3/1
f 6/2/1 8/2/1 7/2/1
f 7/2/1 8/2/1 9/2/1
f 8/3/1 10/3/1 9/3/1
f 9/3/1 10/3/1 11/3/1
f 10/2/1 12/2/1 11/2/1
f 11/2/1 12/2/1 13/2/1
f 12/3/1 14/3/1 13/3/1
f 13/3/1 14/3/1 15/3/1
f 14/2/1 16/2/1 15/2/1
f 15/2/1 16/2/1 17/2/1
f 16/3/1 18/3/1 17/3/1
f 17/3/1 18/3/1 19/3/1
f 18/2/1 20/2/1 19/2/1
f 19/2/1 20/2/1 21/2/1
f 20/3/1 22/3/1 21/3/1
f 21/3/1 22/3/1 23/3/1
f 22/2/1 24/2/1 23/2/1
f 23/2/1 24/2/1 25/2/1
f 24/3/1 26/3/1 25/3/1
f 25/3/1 26/3/1 27/3/1
f 26/2/1 28/2/1 27/2/1
f 27/2/1 28/2/1 29/2/1
f 28/3/1 30/3/1 29/3/1
f 29/3/1 30/3/1 31/3/1
f 30/2/1 32/2/1 31/2/1
f 31/2/1 32/2/1 33/2/1
f 34/2/1 35/2/1 37/2/1
f 37/2/1 35/2/1 36/2/1
f 38/2/1 39/2/1 5/2/1
f 5/2/1 39/2/1 6/2/1
f 39/3/1 40/3/1 6/3/1
f 6/3/1 40/3/1 8/3/1
f 40/2/1 41/2/1 8/2/1
f 8/2/1 41/2/1 10/2/1
f 41/3/1 42/3/1 10/3/1
f 10/3/1 42/3/1 12/3/1
f 42/2/1 43/2/1 12/2/1
f 12/2/1 43/2/1 14/2/1
f 43/3/1 44/3/1 14/3/1
f 14/3/1 44/3/1 16/3/1
f 44/2/1 45/2/1 16/2/1
f 16/2/1 45/2/1 18/2/1
f 45/3/1 46/3/1 18/3/1
f 18/3/1 46/3/1 20/3/1
f 46/2/1 47/2/1 20/2/1
f 20/2/1 47/2/1 22/2/1
f 47/3/1 48/3/1 22/3/1
f 22/3/1 48/3/1 24/3/1
f 48/2/1 49/2/1 24/2/1
f 24/2/1 49/2/1 26/2/1
f 50/2/1 51/2/1 28/2/1
f 28/2/1 51/2/1 30/2/1
f 52/3/1 53/3/1 38/3/1
f 38/3/1 53/3/1 39/3/1
f 53/2/1 54/2/1 39/2/1
f 39/2/1 54/2/1 40/2/1
f 54/3/1 55/3/1 40/3/1
f 40/3/1 55/3/1 41/3/1
f 55/2/1 56/2/1 41/2/1
f 41/2/1 56/2/1 42/2/1
f 56/3/1 57/3/1 42/3/1
f 42/3/1 57/3/1 43/3/1
f 57/2/1 58/2/1 43/2/1
f 43/2/1 58/2/1 44/2/1
f 58/3/1 59/3/1 44/3/1
f 44/3/1 59/3/1 45/3/1
f 59/2/1 60/2/1 45/2/1
f 45/2/1 60/2/1 46/2/1
f 61/2/1 62/2/1 47/2/1
f 47/2/1 62/2/1 48/2/1
f 63/2/1 64/2/1 52/2/1
f 52/2/1 64/2/1 53/2/1
f 64/3/1 65/3/1 53/3/1
f 53/3/1 65/3/1 54/3/1
f 65/2/1 66/2/1 54/2/1
f 54/2/1 66/2/1 55/2/1
f 66/3/1 67/3/1 55/3/1
f 55/3/1 67/3/1 56/3/1
f 67/2/1 68/2/1 56/2/1
f 56/2/1 68/2/1 57/2/1
f 68/3/1 69/3/1 57/3/1
f 57/3/1 69/3/1 58/3/1
f 69/2/1 70/2/1 58/2/1
f 58/2/1 70/2/1 59/2/1
f 71/3/1 72/3/1 63/3/1
f 63/3/1 72/3/1 64/3/1
f 72/2/1 73/2/1 64/2/1
f 64/2/1 73/2/1 65/2/1
f 73/3/1 74/3/1 65/3/1
f 65/3/1 74/3/1 66/3/1
f 74/2/1 75/2/1 66/2/1
f 66/2/1 75/2/1 67/2/1
f 75/3/1 76/3/1 67/3/1
f 67/3/1 76/3/1 68/3/1
f 76/2/1 77/2/1 68/2/1
f 68/2/1 77/2/1 69/2/1
f 78/2/1 79/2/1 71/2/1
f 71/2/1 79/2/1 72/2/1
f 79/3/1 80/3/1 72/3/1
f 72/3/1 80/3/1 73/3/1
f 80/2/1 81/2/1 73/2/1
f 73/2/1 81/2/1 74/2/1
f 81/3/1 82/3/1 74/3/1
f 74/3/1 82/3/1 75/3/1
f 82/2/1 83/2/1 75/2/1
f 75/2/1 83/2/1 76/2/1
f 84/3/1 85/3/1 78/3/1
f 78/3/1 85/3/1 79/3/1
f 85/2/1 86/2/1 79/2/1
f 79/2/1 86/2/1 80/2/1
f 86/3/1 87/3/1 80/3/1
f 80/3/1 87/3/1 81/3/1
f 87/2/1 88/2/1 81/2/1
f 81/2/1 88/2/1 82/2/1
f 89/2/1 90/2/1 84/2/1
f 84/2/1 90/2/1 85/2/1
f 90/3/1 91/3/1 85/3/1
f 85/3/1 91/3/1 86/3/1
f 91/2/1 92/2/1 86/2/1
f 86/2/1 92/2/1 87/2/1
f 93/3/1 94/3/1 89/3/1
f 89/3/1 94/3/1 90/3/1
f 94/2/1 95/2/1 90/2/1
f 90/2/1 95/2/1 91/2/1
f 95/3/1 96/3/1 91/3/1
f 91/3/1 96/3/1 92/3/1
f 97/2/1 98/2/1 93/2/1
f 93/2/1 98/2/1 94/2/1
f 98/3/1 99/3/1 94/3/1
f 94/3/1 99/3/1 95/3/1
f 99/2/1 100/2/1 95/2/1
f 95/2/1 100/2/1 96/2/1
f 101/3/1 102/3/1 97/3/1
f 97/3/1 102/3/1 98/3/1
f 102/2/1 103/2/1 98/2/1
f 98/2/1 103/2/1 99/2/1
f 104/2/1 105/2/1 101/2/1
f 101/2/1 105/2/1 102/2/1
f 105/3/1 106/3/1 102/3/1
f 102/3/1 106/3/1 103/3/1
f 107/3/1 108/3/1 104/3/1
f 104/3/1 108/3/1 105/3/1
f 108/2/1 109/2/1 105/2/1
f 105/2/1 109/2/1 106/2/1
f 110/2/1 111/2/1 107/2/1
f 107/2/1 111/2/1 108/2/1
f 112/3/1 113/3/1 110/3/1
f 110/3/1 113/3/1 111/3/1
f 114/2/1 115/2/1 112/2/1
f 112/2/1 115/2/1 113/2/1
f 116/2/1 117/2/1 118/2/1
f 118/2/1 117/2/1 4/2/1
f 117/3/1 119/3/1 114/3/1
f 114/3/1 119/3/1 115/3/1
f 119/3/1 120/3/1 108/3/1
f 108/3/1 120/3/1 109/3/1
f 120/3/1 121/3/1 99/3/1
f 99/3/1 121/3/1 100/3/1
f 121/3/1 122/3/1 87/3/1
f 87/3/1 122/3/1 88/3/1
f 122/3/1 123/3/1 82/3/1
f 82/3/1 123/3/1 83/3/1
f 123/3/1 124/3/1 76/3/1
f 76/3/1 124/3/1 77/3/1
f 124/3/1 125/3/1 69/3/1
f 69/3/1 125/3/1 70/3/1
f 125/3/1 126/3/1 59/3/1
f 59/3/1 126/3/1 60/3/1
f 126/3/1 127/3/1 46/3/1
f 46/3/1 127/3/1 47/3/1
f 127/3/1 128/3/1 61/3/1
f 61/3/1 128/3/1 62/3/1
f 128/3/1 129/3/1 48/3/1
f 48/3/1 129/3/1 49/3/1
f 129/3/1 130/3/1 26/3/1
f 26/3/1 130/3/1 28/3/1
f 130/3/1 131/3/1 50/3/1
f 50/3/1 131/3/1 51/3/1
f 131/3/1 132/3/1 30/3/1
f 30/3/1 132/3/1 32/3/1
f 132/3/1 133/3/1 33/3/1
f 33/3/1 133/3/1 37/3/1
f 133/3/1 134/3/1 34/3/1
f 34/3/1 134/3/1 35/3/1
f 134/3/1 135/3/1 36/3/1
f 36/3/1 135/3/1 2/3/1
f 136/2/2 137/2/2 139/2/2
f 139/2/2 137/2/2 138/2/2
f 140/2/2 141/2/2 142/2/2
f 142/2/2 141/2/2 137/2/2
f 142/1/2 136/1/2 143/1/2
f 143/1/2 136/1/2 139/1/2
f 144/2/3 141/2/3 145/2/3
f 145/2/3 141/2/3 140/2/3
f 146/1/3 144/1/3 147/1/3
f 147/1/3 144/1/3 145/1/3
f 148/2/3 146/2/3 149/2/3
f 149/2/3 146/2/3 147/2/3
f 150/1/3 148/1/3 151/1/3
f 151/1/3 148/1/3 149/1/3
f 152/3/3 150/3/3 153/3/3
f 153/3/3 150/3/3 151/3/3
f 154/1/3 152/1/3 155/1/3
f 155/1/3 152/1/3 153/1/3
f 156/3/3 154/3/3 157/3/3
f 157/3/3 154/3/3 155/3/3
f 158/1/3 156/1/3 159/1/3
f 159/1/3 156/1/3 157/1/3
f 160/3/3 158/3/3 161/3/3
f 161/3/3 158/3/3 159/3/3
f 118/2/3 160/2/3 116/2/3
f 116/2/3 160/2/3 161/2/3
f 138/2/4 141/2/4 162/2/4
f 162/2/4 141/2/4 144/2/4
f 162/1/4 144/1/4 163/1/4
f 163/1/4 144/1/4 146/1/4
f 163/2/4 146/2/4 164/2/4
f 164/2/4 146/2/4 148/2/4
f 164/1/4 148/1/4 165/1/4
f 165/1/4 148/1/4 150/1/4
f 165/3/4 150/3/4 166/3/4
f 166/3/4 150/3/4 152/3/4
f 166/1/4 152/1/4 167/1/4
f 167/1/4 152/1/4 154/1/4
f 167/3/4 154/3/4 168/3/4
f 168/3/4 154/3/4 156/3/4
f 168/1/4 156/1/4 169/1/4
f 169/1/4 156/1/4 158/1/4
f 169/3/4 158/3/4 170/3/4
f 170/3/4 158/3/4 160/3/4
f 170/2/4 160/2/4 3/2/4
f 3/2/4 160/2/4 118/2/4
f 2/2/1 171/2/1 3/2/1
f 3/2/1 171/2/1 172/2/1
f 173/2/1 174/2/1 176/2/1
f 176/2/1 174/2/1 175/2/1
f 177/2/1 178/2/1 180/2/1
f 180/2/1 178/2/1 179/2/1
f 178/3/1 181/3/1 179/3/1
f 179/3/1 181/3/1 182/3/1
f 181/2/1 183/2/1 182/2/1
f 182/2/1 183/2/1 184/2/1
f 183/3/1 185/3/1 184/3/1
f 184/3/1 185/3/1 186/3/1
f 185/2/1 187/2/1 186/2/1
f 186/2/1 187/2/1 188/2/1
f 187/3/1 189/3/1 188/3/1
f 188/3/1 189/3/1 190/3/1
f 189/2/1 191/2/1 190/2/1
f 190/2/1 191/2/1 192/2/1
f 191/3/1 193/3/1 192/3/1
f 192/3/1 193/3/1 194/3/1
f 193/2/1 195/2/1 194/2/1
f 194/2/1 195/2/1 196/2/1
f 195/3/1 197/3/1 196/3/1
f 196/3/1 197/3/1 198/3/1
f 197/2/1 199/2/1 198/2/1
f 198/2/1 199/2/1 200/2/1
f 199/3/1 201/3/1 200/3/1
f 200/3/1 201/3/1 202/3/1
f 201/2/1 203/2/1 202/2/1
f 202/2/1 203/2/1 204/2/1
f 203/3/1 205/3/1 204/3/1
f 204/3/1 205/3/1 206/3/1
f 207/2/1 208/2/1 178/2/1
f 178/2/1 208/2/1 181/2/1
f 209/2/1 210/2/1 183/2/1
f 183/2/1 210/2/1 185/2/1
f 210/3/1 211/3/1 185/3/1
f 185/3/1 211/3/1 187/3/1
f 211/2/1 212/2/1 187/2/1
f 187/2/1 212/2/1 189/2/1
f 212/3/1 213/3/1 189/3/1
f 189/3/1 213/3/1 191/3/1
f 213/2/1 214/2/1 191/2/1
f 191/2/1 214/2/1 193/2/1
f 214/3/1 215/3/1 193/3/1
f 193/3/1 215/3/1 195/3/1
f 215/2/1 216/2/1 195/2/1
f 195/2/1 216/2/1 197/2/1
f 216/3/1 217/3/1 197/3/1
f 197/3/1 217/3/1 199/3/1
f 217/2/1 218/2/1 199/2/1
f 199/2/1 218/2/1 201/2/1
f 218/3/1 219/3/1 201/3/1
f 201/3/1 219/3/1 203/3/1
f 219/2/1 220/2/1 203/2/1
f 203/2/1 220/2/1 205/2/1
f 221/2/1 222/2/1 210/2/1
f 210/2/1 222/2/1 211/2/1
f 223/2/1 224/2/1 212/2/1
f 212/2/1 224/2/1 213/2/1
f 224/3/1 225/3/1 213/3/1
f 213/3/1 225/3/1 214/3/1
f 225/2/1 226/2/1 214/2/1
f 214/2/1 226/2/1 215/2/1
f 226/3/1 227/3/1 215/3/1
f 215/3/1 227/3/1 216/3/1
f 227/2/1 228/2/1 216/2/1
f 216/2/1 228/2/1 217/2/1
f 228/3/1 229/3/1 217/3/1
f 217/3/1 229/3/1 218/3/1
f 229/2/1 230/2/1 218/2/1
f 218/2/1 230/2/1 219/2/1
f 230/3/1 231/3/1 219/3/1
f 219/3/1 231/3/1 220/3/1
f 232/2/1 233/2/1 224/2/1
f 224/2/1 233/2/1 225/2/1
f 233/3/1 234/3/1 225/3/1
f 225/3/1 234/3/1 226/3/1
f 234/2/1 235/2/1 226/2/1
f 226/2/1 235/2/1 227/2/1
f 235/3/1 236/3/1 227/3/1
f 227/3/1 236/3/1 228/3/1
f 236/2/1 237/2/1 228/2/1
f 228/2/1 237/2/1 229/2/1
f 237/3/1 238/3/1 229/3/1
f 229/3/1 238/3/1 230/3/1
f 238/2/1 239/2/1 230/2/1
f 230/2/1 239/2/1 231/2/1
f 240/2/1 241/2/1 233/2/1
f 233/2/1 241/2/1 234/2/1
f 241/3/1 242/3/1 234/3/1
f 234/3/1 242/3/1 235/3/1
f 242/2/1 243/2/1 235/2/1
f 235/2/1 243/2/1 236/2/1
f 243/3/1 244/3/1 236/3/1
f 236/3/1 244/3/1 237/3/1
f 244/2/1 245/2/1 237/2/1
f 237/2/1 245/2/1 238/2/1
f 245/3/1 246/3/1 238/3/1
f 238/3/1 246/3/1 239/3/1
f 247/2/1 248/2/1 241/2/1
f 241/2/1 248/2/1 242/2/1
f 248/3/1 249/3/1 242/3/1
f 242/3/1 249/3/1 243/3/1
f 249/2/1 250/2/1 243/2/1
f 243/2/1 250/2/1 244/2/1
f 250/3/1 251/3/1 244/3/1
f 244/3/1 251/3/1 245/3/1
f 251/2/1 252/2/1 245/2/1
f 245/2/1 252/2/1 246/2/1
f 253/2/1 254/2/1 248/2/1
f 248/2/1 254/2/1 249/2/1
f 254/3/1 255/3/1 249/3/1
f 249/3/1 255/3/1 250/3/1
f 255/2/1 256/2/1 250/2/1
f 250/2/1 256/2/1 251/2/1
f 256/3/1 257/3/1 251/3/1
f 251/3/1 257/3/1 252/3/1
f 258/2/1 259/2/1 254/2/1
f 254/2/1 259/2/1 255/2/1
f 259/3/1 260/3/1 255/3/1
f 255/3/1 260/3/1 256/3/1
f 260/2/1 261/2/1 256/2/1
f 256/2/1 261/2/1 257/2/1
f 262/3/1 263/3/1 258/3/1
f 258/3/1 263/3/1 259/3/1
f 263/2/1 264/2/1 259/2/1
f 259/2/1 264/2/1 260/2/1
f 264/3/1 265/3/1 260/3/1
f 260/3/1 265/3/1 261/3/1
f 266/2/1 267/2/1 262/2/1
f 262/2/1 267/2/1 263/2/1
f 267/3/1 268/3/1 263/3/1
f 263/3/1 268/3/1 264/3/1
f 268/2/1 269/2/1 264/2/1
f 264/2/1 269/2/1 265/2/1
f 270/2/1 271/2/1 267/2/1
f 267/2/1 271/2/1 268/2/1
f 271/3/1 272/3/1 268/3/1
f 268/3/1 272/3/1 269/3/1
f 273/3/1 274/3/1 270/3/1
f 270/3/1 274/3/1 271/3/1
f 274/2/1 275/2/1 271/2/1
f 271/2/1 275/2/1 272/2/1
f 276/2/1 277/2/1 273/2/1
f 273/2/1 277/2/1 274/2/1
f 277/3/1 278/3/1 274/3/1
f 274/3/1 278/3/1 275/3/1
f 279/2/1 280/2/1 277/2/1
f 277/2/1 280/2/1 278/2/1
f 281/3/1 282/3/1 279/3/1
f 279/3/1 282/3/1 280/3/1
f 283/2/1 284/2/1 281/2/1
f 281/2/1 284/2/1 282/2/1
f 135/3/1 285/3/1 2/3/1
f 2/3/1 285/3/1 176/3/1
f 285/3/1 286/3/1 173/3/1
f 173/3/1 286/3/1 174/3/1
f 286/3/1 287/3/1 175/3/1
f 175/3/1 287/3/1 180/3/1
f 287/3/1 288/3/1 177/3/1
f 177/3/1 288/3/1 178/3/1
f 288/3/1 289/3/1 207/3/1
f 207/3/1 289/3/1 208/3/1
f 289/3/1 290/3/1 181/3/1
f 181/3/1 290/3/1 183/3/1
f 290/3/1 291/3/1 209/3/1
f 209/3/1 291/3/1 210/3/1
f 291/3/1 292/3/1 221/3/1
f 221/3/1 292/3/1 222/3/1
f 292/3/1 293/3/1 211/3/1
f 211/3/1 293/3/1 212/3/1
f 293/3/1 294/3/1 223/3/1
f 223/3/1 294/3/1 224/3/1
f 294/3/1 295/3/1 232/3/1
f 232/3/1 295/3/1 233/3/1
f 295/3/1 296/3/1 240/3/1
f 240/3/1 296/3/1 241/3/1
f 296/3/1 297/3/1 247/3/1
f 247/3/1 297/3/1 248/3/1
f 297/3/1 298/3/1 253/3/1
f 253/3/1 298/3/1 254/3/1
f 298/3/1 299/3/1 266/3/1
f 266/3/1 299/3/1 267/3/1
f 299/3/1 300/3/1 276/3/1
f 276/3/1 300/3/1 277/3/1
f 300/3/1 301/3/1 283/3/1
f 283/3/1 301/3/1 284/3/1
f 301/2/1 302/2/1 206/2/1
f 206/2/1 302/2/1 171/2/1
f 139/2/2 138/2/2 304/2/2
f 304/2/2 138/2/2 303/2/2
f 143/1/2 139/1/2 306/1/2
f 306/1/2 139/1/2 305/1/2
f 306/2/2 305/2/2 307/2/2
f 307/2/2 305/2/2 304/2/2
f 308/2/5 309/2/5 303/2/5
f 303/2/5 309/2/5 307/2/5
f 310/1/5 311/1/5 308/1/5
f 308/1/5 311/1/5 309/1/5
f 312/2/5 313/2/5 310/2/5
f 310/2/5 313/2/5 311/2/5
f 314/1/5 315/1/5 312/1/5
f 312/1/5 315/1/5 313/1/5
f 316/3/5 317/3/5 314/3/5
f 314/3/5 317/3/5 315/3/5
f 318/1/5 319/1/5 316/1/5
f 316/1/5 319/1/5 317/1/5
f 320/3/5 321/3/5 318/3/5
f 318/3/5 321/3/5 319/3/5
f 322/1/5 323/1/5 320/1/5
f 320/1/5 323/1/5 321/1/5
f 324/3/5 325/3/5 322/3/5
f 322/3/5 325/3/5 323/3/5
f 172/2/5 302/2/5 324/2/5
f 324/2/5 302/2/5 325/2/5
f 303/2/4 138/2/4 308/2/4
f 308/2/4 138/2/4 162/2/4
f 308/1/4 162/1/4 310/1/4
f 310/1/4 162/1/4 163/1/4
f 310/2/4 163/2/4 312/2/4
f 312/2/4 163/2/4 164/2/4
f 312/1/4 164/1/4 314/1/4
f 314/1/4 164/1/4 165/1/4
f 314/3/4 165/3/4 316/3/4
f 316/3/4 165/3/4 166/3/4
f 316/1/4 166/1/4 318/1/4
f 318/1/4 166/1/4 167/1/4
f 318/3/4 167/3/4 320/3/4
f 320/3/4 167/3/4 168/3/4
f 320/1/4 168/1/4 322/1/4
f 322/1/4 168/1/4 169/1/4
f 322/3/4 169/3/4 324/3/4
f 324/3/4 169/3/4 170/3/4
f 324/2/4 170/2/4 172/2/4
f 172/2/4 170/2/4 3/2/4
f 326/3/1 327/3/1 117/3/1
f 117/3/1 327/3/1 135/3/1
f 328/2/1 329/2/1 326/2/1
f 326/2/1 329/2/1 330/2/1
f 331/3/1 332/3/1 328/3/1
f 328/3/1 332/3/1 329/3/1
f 333/2/1 334/2/1 331/2/1
f 331/2/1 334/2/1 332/2/1
f 334/3/1 335/3/1 330/3/1
f 330/3/1 335/3/1 327/3/1
f 336/3/1 337/3/1 333/3/1
f 333/3/1 337/3/1 334/3/1
f 337/2/1 338/2/1 334/2/1
f 334/2/1 338/2/1 339/2/1
f 340/2/1 341/2/1 336/2/1
f 336/2/1 341/2/1 337/2/1
f 341/3/1 342/3/1 337/3/1
f 337/3/1 342/3/1 338/3/1
f 343/3/1 344/3/1 340/3/1
f 340/3/1 344/3/1 341/3/1
f 344/2/1 345/2/1 341/2/1
f 341/2/1 345/2/1 342/2/1
f 345/3/1 346/3/1 339/3/1
f 339/3/1 346/3/1 335/3/1
f 347/2/1 348/2/1 343/2/1
f 343/2/1 348/2/1 344/2/1
f 348/3/1 349/3/1 344/3/1
f 344/3/1 349/3/1 345/3/1
f 349/2/1 350/2/1 345/2/1
f 345/2/1 350/2/1 351/2/1
f 352/3/1 353/3/1 347/3/1
f 347/3/1 353/3/1 348/3/1
f 353/2/1 354/2/1 348/2/1
f 348/2/1 354/2/1 349/2/1
f 354/3/1 355/3/1 349/3/1
f 349/3/1 355/3/1 350/3/1
f 356/2/1 357/2/1 352/2/1
f 352/2/1 357/2/1 353/2/1
f 357/3/1 358/3/1 353/3/1
f 353/3/1 358/3/1 354/3/1
f 358/2/1 359/2/1 354/2/1
f 354/2/1 359/2/1 355/2/1
f 359/3/1 360/3/1 351/3/1
f 351/3/1 360/3/1 346/3/1
f 361/3/1 362/3/1 356/3/1
f 356/3/1 362/3/1 357/3/1
f 362/2/1 363/2/1 357/2/1
f 357/2/1 363/2/1 358/2/1
f 363/3/1 364/3/1 358/3/1
f 358/3/1 364/3/1 359/3/1
f 364/2/1 365/2/1 359/2/1
f 359/2/1 365/2/1 366/2/1
f 365/3/1 367/3/1 366/3/1
f 366/3/1 367/3/1 360/3/1
f 368/2/1 369/2/1 361/2/1
f 361/2/1 369/2/1 362/2/1
f 369/3/1 370/3/1 362/3/1
f 362/3/1 370/3/1 363/3/1
f 370/2/1 371/2/1 363/2/1
f 363/2/1 371/2/1 364/2/1
f 371/3/1 372/3/1 364/3/1
f 364/3/1 372/3/1 365/3/1
f 372/2/1 373/2/1 365/2/1
f 365/2/1 373/2/1 374/2/1
f 373/3/1 375/3/1 374/3/1
f 374/3/1 375/3/1 367/3/1
f 376/3/1 377/3/1 368/3/1
f 368/3/1 377/3/1 369/3/1
f 377/2/1 378/2/1 369/2/1
f 369/2/1 378/2/1 370/2/1
f 378/3/1 379/3/1 370/3/1
f 370/3/1 379/3/1 371/3/1
f 379/2/1 380/2/1 371/2/1
f 371/2/1 380/2/1 372/2/1
f 380/3/1 381/3/1 372/3/1
f 372/3/1 381/3/1 373/3/1
f 381/2/1 382/2/1 373/2/1
f 373/2/1 382/2/1 383/2/1
f 382/3/1 384/3/1 383/3/1
f 383/3/1 384/3/1 375/3/1
f 385/2/1 386/2/1 376/2/1
f 376/2/1 386/2/1 377/2/1
f 386/3/1 387/3/1 377/3/1
f 377/3/1 387/3/1 378/3/1
f 387/2/1 388/2/1 378/2/1
f 378/2/1 388/2/1 379/2/1
f 388/3/1 389/3/1 379/3/1
f 379/3/1 389/3/1 380/3/1
f 389/2/1 390/2/1 380/2/1
f 380/2/1 390/2/1 381/2/1
f 390/3/1 391/3/1 381/3/1
f 381/3/1 391/3/1 382/3/1
f 391/2/1 392/2/1 382/2/1
f 382/2/1 392/2/1 393/2/1
f 392/3/1 394/3/1 393/3/1
f 393/3/1 394/3/1 384/3/1
f 395/3/1 396/3/1 385/3/1
f 385/3/1 396/3/1 386/3/1
f 396/2/1 397/2/1 386/2/1
f 386/2/1 397/2/1 387/2/1
f 397/3/1 398/3/1 387/3/1
f 387/3/1 398/3/1 388/3/1
f 398/2/1 399/2/1 388/2/1
f 388/2/1 399/2/1 389/2/1
f 399/3/1 400/3/1 389/3/1
f 389/3/1 400/3/1 390/3/1
f 400/2/1 401/2/1 390/2/1
f 390/2/1 401/2/1 391/2/1
f 401/3/1 402/3/1 391/3/1
f 391/3/1 402/3/1 392/3/1
f 402/2/1 403/2/1 392/2/1
f 392/2/1 403/2/1 404/2/1
f 403/3/1 405/3/1 404/3/1
f 404/3/1 405/3/1 406/3/1
f 405/2/1 407/2/1 406/2/1
f 406/2/1 407/2/1 408/2/1
f 407/3/1 409/3/1 408/3/1
f 408/3/1 409/3/1 394/3/1
f 410/2/1 411/2/1 395/2/1
f 395/2/1 411/2/1 396/2/1
f 411/3/1 412/3/1 396/3/1
f 396/3/1 412/3/1 397/3/1
f 412/2/1 413/2/1 397/2/1
f 397/2/1 413/2/1 398/2/1
f 413/3/1 414/3/1 398/3/1
f 398/3/1 414/3/1 399/3/1
f 414/2/1 415/2/1 399/2/1
f 399/2/1 415/2/1 400/2/1
f 415/3/1 416/3/1 400/3/1
f 400/3/1 416/3/1 401/3/1
f 416/2/1 417/2/1 401/2/1
f 401/2/1 417/2/1 402/2/1
f 417/3/1 418/3/1 402/3/1
f 402/3/1 418/3/1 403/3/1
f 418/2/1 419/2/1 403/2/1
f 403/2/1 419/2/1 405/2/1
f 419/3/1 420/3/1 405/3/1
f 405/3/1 420/3/1 407/3/1
f 420/2/1 421/2/1 407/2/1
f 407/2/1 421/2/1 422/2/1
f 421/3/1 423/3/1 422/3/1
f 422/3/1 423/3/1 424/3/1
f 423/2/1 425/2/1 424/2/1
f 424/2/1 425/2/1 426/2/1
f 425/3/1 427/3/1 426/3/1
f 426/3/1 427/3/1 409/3/1
f 428/3/1 429/3/1 410/3/1
f 410/3/1 429/3/1 411/3/1
f 430/3/1 431/3/1 412/3/1
f 412/3/1 431/3/1 413/3/1
f 432/3/1 433/3/1 414/3/1
f 414/3/1 433/3/1 415/3/1
f 434/3/1 435/3/1 416/3/1
f 416/3/1 435/3/1 417/3/1
f 436/3/1 437/3/1 418/3/1
f 418/3/1 437/3/1 419/3/1
f 438/3/1 439/3/1 420/3/1
f 420/3/1 439/3/1 421/3/1
f 440/3/1 441/3/1 423/3/1
f 423/3/1 441/3/1 425/3/1
f 442/3/1 443/3/1 445/3/1
f 445/3/1 443/3/1 444/3/1
f 446/3/1 447/3/1 448/3/1
f 448/3/1 447/3/1 427/3/1
f 449/2/1 450/2/1 116/2/1
f 116/2/1 450/2/1 117/2/1
f 450/2/1 451/2/1 428/2/1
f 428/2/1 451/2/1 429/2/1
f 451/2/1 452/2/1 411/2/1
f 411/2/1 452/2/1 412/2/1
f 452/2/1 453/2/1 430/2/1
f 430/2/1 453/2/1 431/2/1
f 453/2/1 454/2/1 413/2/1
f 413/2/1 454/2/1 414/2/1
f 454/2/1 455/2/1 432/2/1
f 432/2/1 455/2/1 433/2/1
f 455/2/1 456/2/1 415/2/1
f 415/2/1 456/2/1 416/2/1
f 456/2/1 457/2/1 434/2/1
f 434/2/1 457/2/1 435/2/1
f 457/2/1 458/2/1 417/2/1
f 417/2/1 458/2/1 418/2/1
f 458/2/1 459/2/1 436/2/1
f 436/2/1 459/2/1 437/2/1
f 459/2/1 460/2/1 419/2/1
f 419/2/1 460/2/1 420/2/1
f 460/2/1 461/2/1 438/2/1
f 438/2/1 461/2/1 439/2/1
f 461/2/1 462/2/1 421/2/1
f 421/2/1 462/2/1 423/2/1
f 462/2/1 463/2/1 440/2/1
f 440/2/1 463/2/1 441/2/1
f 463/2/1 464/2/1 425/2/1
f 425/2/1 464/2/1 445/2/1
f 464/2/1 465/2/1 442/2/1
f 442/2/1 465/2/1 443/2/1
f 465/2/1 466/2/1 444/2/1
f 444/2/1 466/2/1 448/2/1
f 466/2/1 467/2/1 446/2/1
f 446/2/1 467/2/1 447/2/1
f 468/1/2 142/1/2 469/1/2
f 469/1/2 142/1/2 143/1/2
f 470/2/2 140/2/2 471/2/2
f 471/2/2 140/2/2 142/2/2
f 471/2/2 468/2/2 472/2/2
f 472/2/2 468/2/2 469/2/2
f 145/2/3 140/2/3 473/2/3
f 473/2/3 140/2/3 470/2/3
f 147/1/3 145/1/3 474/1/3
f 474/1/3 145/1/3 473/1/3
f 149/2/3 147/2/3 475/2/3
f 475/2/3 147/2/3 474/2/3
f 151/1/3 149/1/3 476/1/3
f 476/1/3 149/1/3 475/1/3
f 153/3/3 151/3/3 477/3/3
f 477/3/3 151/3/3 476/3/3
f 155/1/3 153/1/3 478/1/3
f 478/1/3 153/1/3 477/1/3
f 157/3/3 155/3/3 479/3/3
f 479/3/3 155/3/3 478/3/3
f 159/1/3 157/1/3 480/1/3
f 480/1/3 157/1/3 479/1/3
f 161/3/3 159/3/3 481/3/3
f 481/3/3 159/3/3 480/3/3
f 116/2/3 161/2/3 449/2/3
f 449/2/3 161/2/3 481/2/3
f 472/2/6 482/2/6 470/2/6
f 470/2/6 482/2/6 473/2/6
f 482/1/6 483/1/6 473/1/6
f 473/1/6 483/1/6 474/1/6
f 483/2/6 484/2/6 474/2/6
f 474/2/6 484/2/6 475/2/6
f 484/1/6 485/1/6 475/1/6
f 475/1/6 485/1/6 476/1/6
f 485/3/6 486/3/6 476/3/6
f 476/3/6 486/3/6 477/3/6
f 486/1/6 487/1/6 477/1/6
f 477/1/6 487/1/6 478/1/6
f 487/3/6 488/3/6 478/3/6
f 478/3/6 488/3/6 479/3/6
f 488/1/6 489/1/6 479/1/6
f 479/1/6 489/1/6 480/1/6
f 489/3/6 490/3/6 480/3/6
f 480/3/6 490/3/6 481/3/6
f 490/2/6 467/2/6 481/2/6
f 481/2/6 467/2/6 449/2/6
f 491/3/1 492/3/1 300/3/1
f 300/3/1 492/3/1 301/3/1
f 493/2/1 494/2/1 491/2/1
f 491/2/1 494/2/1 492/2/1
f 495/3/1 496/3/1 493/3/1
f 493/3/1 496/3/1 494/3/1
f 497/3/1 498/3/1 299/3/1
f 299/3/1 498/3/1 300/3/1
f 498/2/1 499/2/1 495/2/1
f 495/2/1 499/2/1 496/2/1
f 500/2/1 501/2/1 497/2/1
f 497/2/1 501/2/1 498/2/1
f 501/3/1 502/3/1 498/3/1
f 498/3/1 502/3/1 499/3/1
f 503/3/1 504/3/1 500/3/1
f 500/3/1 504/3/1 501/3/1
f 504/2/1 505/2/1 501/2/1
f 501/2/1 505/2/1 502/2/1
f 506/3/1 507/3/1 298/3/1
f 298/3/1 507/3/1 299/3/1
f 507/2/1 508/2/1 503/2/1
f 503/2/1 508/2/1 504/2/1
f 508/3/1 509/3/1 504/3/1
f 504/3/1 509/3/1 505/3/1
f 510/2/1 511/2/1 506/2/1
f 506/2/1 511/2/1 507/2/1
f 511/3/1 512/3/1 507/3/1
f 507/3/1 512/3/1 508/3/1
f 512/2/1 513/2/1 508/2/1
f 508/2/1 513/2/1 509/2/1
f 514/3/1 515/3/1 510/3/1
f 510/3/1 515/3/1 511/3/1
f 515/2/1 516/2/1 511/2/1
f 511/2/1 516/2/1 512/2/1
f 516/3/1 517/3/1 512/3/1
f 512/3/1 517/3/1 513/3/1
f 518/3/1 519/3/1 297/3/1
f 297/3/1 519/3/1 298/3/1
f 519/2/1 520/2/1 514/2/1
f 514/2/1 520/2/1 515/2/1
f 520/3/1 521/3/1 515/3/1
f 515/3/1 521/3/1 516/3/1
f 521/2/1 522/2/1 516/2/1
f 516/2/1 522/2/1 517/2/1
f 523/3/1 524/3/1 296/3/1
f 296/3/1 524/3/1 297/3/1
f 524/2/1 525/2/1 518/2/1
f 518/2/1 525/2/1 519/2/1
f 525/3/1 526/3/1 519/3/1
f 519/3/1 526/3/1 520/3/1
f 526/2/1 527/2/1 520/2/1
f 520/2/1 527/2/1 521/2/1
f 527/3/1 528/3/1 521/3/1
f 521/3/1 528/3/1 522/3/1
f 529/3/1 530/3/1 295/3/1
f 295/3/1 530/3/1 296/3/1
f 530/2/1 531/2/1 523/2/1
f 523/2/1 531/2/1 524/2/1
f 531/3/1 532/3/1 524/3/1
f 524/3/1 532/3/1 525/3/1
f 532/2/1 533/2/1 525/2/1
f 525/2/1 533/2/1 526/2/1
f 533/3/1 534/3/1 526/3/1
f 526/3/1 534/3/1 527/3/1
f 534/2/1 535/2/1 527/2/1
f 527/2/1 535/2/1 528/2/1
f 536/3/1 537/3/1 294/3/1
f 294/3/1 537/3/1 295/3/1
f 537/2/1 538/2/1 529/2/1
f 529/2/1 538/2/1 530/2/1
f 538/3/1 539/3/1 530/3/1
f 530/3/1 539/3/1 531/3/1
f 539/2/1 540/2/1 531/2/1
f 531/2/1 540/2/1 532/2/1
f 540/3/1 541/3/1 532/3/1
f 532/3/1 541/3/1 533/3/1
f 541/2/1 542/2/1 533/2/1
f 533/2/1 542/2/1 534/2/1
f 542/3/1 543/3/1 534/3/1
f 534/3/1 543/3/1 535/3/1
f 544/3/1 545/3/1 291/3/1
f 291/3/1 545/3/1 294/3/1
f 545/2/1 546/2/1 536/2/1
f 536/2/1 546/2/1 537/2/1
f 546/3/1 547/3/1 537/3/1
f 537/3/1 547/3/1 538/3/1
f 547/2/1 548/2/1 538/2/1
f 538/2/1 548/2/1 539/2/1
f 548/3/1 549/3/1 539/3/1
f 539/3/1 549/3/1 540/3/1
f 549/2/1 550/2/1 540/2/1
f 540/2/1 550/2/1 541/2/1
f 550/3/1 551/3/1 541/3/1
f 541/3/1 551/3/1 542/3/1
f 551/2/1 552/2/1 542/2/1
f 542/2/1 552/2/1 543/2/1
f 553/3/1 554/3/1 288/3/1
f 288/3/1 554/3/1 291/3/1
f 554/2/1 555/2/1 544/2/1
f 544/2/1 555/2/1 556/2/1
f 555/3/1 557/3/1 556/3/1
f 556/3/1 557/3/1 558/3/1
f 557/2/1 559/2/1 558/2/1
f 558/2/1 559/2/1 545/2/1
f 559/3/1 560/3/1 545/3/1
f 545/3/1 560/3/1 546/3/1
f 560/2/1 561/2/1 546/2/1
f 546/2/1 561/2/1 547/2/1
f 561/3/1 562/3/1 547/3/1
f 547/3/1 562/3/1 548/3/1
f 562/2/1 563/2/1 548/2/1
f 548/2/1 563/2/1 549/2/1
f 563/3/1 564/3/1 549/3/1
f 549/3/1 564/3/1 550/3/1
f 564/2/1 565/2/1 550/2/1
f 550/2/1 565/2/1 551/2/1
f 565/3/1 566/3/1 551/3/1
f 551/3/1 566/3/1 552/3/1
f 567/3/1 568/3/1 285/3/1
f 285/3/1 568/3/1 288/3/1
f 568/2/1 569/2/1 553/2/1
f 553/2/1 569/2/1 570/2/1
f 569/3/1 571/3/1 570/3/1
f 570/3/1 571/3/1 572/3/1
f 571/2/1 573/2/1 572/2/1
f 572/2/1 573/2/1 554/2/1
f 573/3/1 574/3/1 554/3/1
f 554/3/1 574/3/1 555/3/1
f 574/2/1 575/2/1 555/2/1
f 555/2/1 575/2/1 557/2/1
f 575/3/1 576/3/1 557/3/1
f 557/3/1 576/3/1 559/3/1
f 576/2/1 577/2/1 559/2/1
f 559/2/1 577/2/1 560/2/1
f 577/3/1 578/3/1 560/3/1
f 560/3/1 578/3/1 561/3/1
f 578/2/1 579/2/1 561/2/1
f 561/2/1 579/2/1 562/2/1
f 579/3/1 580/3/1 562/3/1
f 562/3/1 580/3/1 563/3/1
f 580/2/1 581/2/1 563/2/1
f 563/2/1 581/2/1 564/2/1
f 581/3/1 582/3/1 564/3/1
f 564/3/1 582/3/1 565/3/1
f 582/2/1 583/2/1 565/2/1
f 565/2/1 583/2/1 566/2/1
f 447/3/1 584/3/1 135/3/1
f 135/3/1 584/3/1 285/3/1
f 585/3/1 586/3/1 588/3/1
f 588/3/1 586/3/1 587/3/1
f 589/3/1 590/3/1 568/3/1
f 568/3/1 590/3/1 569/3/1
f 591/3/1 592/3/1 571/3/1
f 571/3/1 592/3/1 573/3/1
f 593/3/1 594/3/1 574/3/1
f 574/3/1 594/3/1 575/3/1
f 595/3/1 596/3/1 576/3/1
f 576/3/1 596/3/1 577/3/1
f 597/3/1 598/3/1 578/3/1
f 578/3/1 598/3/1 579/3/1
f 599/3/1 600/3/1 580/3/1
f 580/3/1 600/3/1 581/3/1
f 601/3/1 602/3/1 582/3/1
f 582/3/1 602/3/1 583/3/1
f 467/2/1 603/2/1 447/2/1
f 447/2/1 603/2/1 584/2/1
f 603/2/1 604/2/1 567/2/1
f 567/2/1 604/2/1 588/2/1
f 604/2/1 605/2/1 585/2/1
f 585/2/1 605/2/1 586/2/1
f 605/2/1 606/2/1 587/2/1
f 587/2/1 606/2/1 568/2/1
f 606/2/1 607/2/1 589/2/1
f 589/2/1 607/2/1 590/2/1
f 607/2/1 608/2/1 569/2/1
f 569/2/1 608/2/1 571/2/1
f 608/2/1 609/2/1 591/2/1
f 591/2/1 609/2/1 592/2/1
f 609/2/1 610/2/1 573/2/1
f 573/2/1 610/2/1 574/2/1
f 610/2/1 611/2/1 593/2/1
f 593/2/1 611/2/1 594/2/1
f 611/2/1 612/2/1 575/2/1
f 575/2/1 612/2/1 576/2/1
f 612/2/1 613/2/1 595/2/1
f 595/2/1 613/2/1 596/2/1
f 613/2/1 614/2/1 577/2/1
f 577/2/1 614/2/1 578/2/1
f 614/2/1 615/2/1 597/2/1
f 597/2/1 615/2/1 598/2/1
f 615/2/1 616/2/1 579/2/1
f 579/2/1 616/2/1 580/2/1
f 616/2/1 617/2/1 599/2/1
f 599/2/1 617/2/1 600/2/1
f 617/2/1 618/2/1 581/2/1
f 581/2/1 618/2/1 582/2/1
f 618/2/1 619/2/1 601/2/1
f 601/2/1 619/2/1 602/2/1
f 619/2/1 620/2/1 301/2/1
f 301/2/1 620/2/1 302/2/1
f 469/1/2 143/1/2 621/1/2
f 621/1/2 143/1/2 306/1/2
f 472/2/2 469/2/2 622/2/2
f 622/2/2 469/2/2 621/2/2
f 622/2/2 306/2/2 623/2/2
f 623/2/2 306/2/2 307/2/2
f 309/2/5 624/2/5 307/2/5
f 307/2/5 624/2/5 623/2/5
f 311/1/5 625/1/5 309/1/5
f 309/1/5 625/1/5 624/1/5
f 313/2/5 626/2/5 311/2/5
f 311/2/5 626/2/5 625/2/5
f 315/1/5 627/1/5 313/1/5
f 313/1/5 627/1/5 626/1/5
f 317/3/5 628/3/5 315/3/5
f 315/3/5 628/3/5 627/3/5
f 319/1/5 629/1/5 317/1/5
f 317/1/5 629/1/5 628/1/5
f 321/3/5 630/3/5 319/3/5
f 319/3/5 630/3/5 629/3/5
f 323/1/5 631/1/5 321/1/5
f 321/1/5 631/1/5 630/1/5
f 325/3/5 632/3/5 323/3/5
f 323/3/5 632/3/5 631/3/5
f 302/2/5 620/2/5 325/2/5
f 325/2/5 620/2/5 632/2/5
f 623/2/6 624/2/6 472/2/6
f 472/2/6 624/2/6 482/2/6
f 624/1/6 625/1/6 482/1/6
f 482/1/6 625/1/6 483/1/6
f 625/2/6 626/2/6 483/2/6
f 483/2/6 626/2/6 484/2/6
f 626/1/6 627/1/6 484/1/6
f 484/1/6 627/1/6 485/1/6
f 627/3/6 628/3/6 485/3/6
f 485/3/6 628/3/6 486/3/6
f 628/1/6 629/1/6 486/1/6
f 486/1/6 629/1/6 487/1/6
f 629/3/6 630/3/6 487/3/6
f 487/3/6 630/3/6 488/3/6
f 630/1/6 631/1/6 488/1/6
f 488/1/6 631/1/6 489/1/6
f 631/3/6 632/3/6 489/3/6
f 489/3/6 632/3/6 490/3/6
f 632/2/6 620/2/6 490/2/6
f 490/2/6 620/2/6 467/2/6
