# Vengi binary mesh normalized for Tanks of Freedom II

mtllib ../../materials/vox_grass.mtl
o mud_2_overtile

v 3.7 0.1 3.9
v 3.4 0.1 3.9
v 3.4 0.1 4
v 3.7 0.1 4
v -2 0.1 3.9
v -2.2 0.1 3.9
v -2.2 0.1 4
v -2 0.1 4
v 3.4 0.1 3.8
v 3.1 0.1 3.8
v 3.1 0.1 3.9
v -1.8 0.1 3.8
v -2 0.1 3.8
v -1.8 0.1 3.9
v 3.2 0.1 3.7
v 3 0.1 3.7
v 3 0.1 3.8
v 3.2 0.1 3.8
v -1.7 0.1 3.7
v -1.8 0.1 3.7
v -1.7 0.1 3.9
v 3.1 0.1 3.6
v 2.8 0.1 3.6
v 2.8 0.1 3.7
v 3.1 0.1 3.7
v -1.5 0.1 3.6
v -1.6 0.1 3.6
v -1.6 0.1 3.7
v -1.5 0.1 3.7
v -1.7 0.1 3.6
v -1.7 0.1 3.8
v -1.6 0.1 3.8
v 2.8 0.1 3.5
v 2.6 0.1 3.5
v 2.6 0.1 3.6
v -1.3 0.1 3.5
v -1.5 0.1 3.5
v -1.3 0.1 3.6
v 2.6 0.1 3.4
v 2.3 0.1 3.4
v 2.3 0.1 3.5
v -1.2 0.1 3.4
v -1.3 0.1 3.4
v -1.2 0.1 3.5
v 2.4 0.1 3.3
v 1.8 0.1 3.3
v 1.8 0.1 3.4
v 2.4 0.1 3.4
v -1 0.1 3.3
v -1.2 0.1 3.3
v -1 0.1 3.4
v 1.9 0.1 3.2
v 1.6 0.1 3.2
v 1.6 0.1 3.3
v 1.9 0.1 3.3
v -0.8 0.1 3.2
v -1 0.1 3.2
v -0.8 0.1 3.3
v -0.7 0.1 3.1
v -0.8 0.1 3.1
v -0.7 0.1 3.2
v -0.4 0.1 3
v -0.7 0.1 3
v -0.4 0.1 3.1
v 0 0.1 2.9
v -0.4 0.1 2.9
v 0 0.1 3
v 0.6 0.1 2.8
v 0 0.1 2.8
v 0.6 0.1 2.9
v 4 0.1 2.3
v 3.9 0.1 2.3
v 3.9 0.1 2.5
v 4 0.1 2.5
v 3.9 0.1 2.2
v 3.8 0.1 2.2
v 3.8 0.1 2.4
v 3.9 0.1 2.4
v 3.6 0.1 2.2
v 3.6 0.1 2.3
v 3.8 0.1 2.3
v 1.4 0.1 2.2
v 1.2 0.1 2.2
v 1.2 0.1 2.3
v 1.4 0.1 2.3
v 3.7 0.1 2.1
v 2.8 0.1 2.1
v 2.8 0.1 2.2
v 3.7 0.1 2.2
v 1.8 0.1 2.1
v 1.5 0.1 2.1
v 1.5 0.1 2.2
v 1.8 0.1 2.2
v 1.4 0.1 2.1
v 1.5 0.1 2.3
v -1.7 0.1 2.1
v -2.2 0.1 2.1
v -2.2 0.1 2.2
v -1.7 0.1 2.2
v 2.8 0.1 2
v 1.8 0.1 2
v -1.6 0.1 2
v -1.7 0.1 2
v -1.6 0.1 2.2
v -1.4 0.1 1.9
v -1.5 0.1 1.9
v -1.5 0.1 2
v -1.4 0.1 2
v -1.6 0.1 1.9
v -1.6 0.1 2.1
v -1.5 0.1 2.1
v -1.2 0.1 1.8
v -1.3 0.1 1.8
v -1.3 0.1 1.9
v -1.2 0.1 1.9
v -1.4 0.1 1.8
v -1.3 0.1 2
v -1 0.1 1.7
v -1.1 0.1 1.7
v -1.1 0.1 1.8
v -1 0.1 1.8
v -1.2 0.1 1.7
v -1.1 0.1 1.9
v -0.7 0.1 1.6
v -0.9 0.1 1.6
v -0.9 0.1 1.7
v -0.7 0.1 1.7
v -1 0.1 1.6
v -0.9 0.1 1.8
v 4 0.1 0.8
v 3.3 0.1 0.8
v 3.3 0.1 0.9
v 4 0.1 0.9
v 3.4 0.1 0.7
v 3.1 0.1 0.7
v 3.1 0.1 0.8
v 3.4 0.1 0.8
v 3.2 0.1 0.6
v 2.9 0.1 0.6
v 2.9 0.1 0.7
v 3.2 0.1 0.7
v 3 0.1 0.5
v 2.8 0.1 0.5
v 2.8 0.1 0.6
v 3 0.1 0.6
v 0.8 0.1 0.5
v 0.6 0.1 0.5
v 0.6 0.1 0.6
v 0.8 0.1 0.6
v 0.5 0.1 0.5
v 0.5 0.1 0.7
v 0.6 0.1 0.7
v 2.8 0.1 0.4
v 2.6 0.1 0.4
v 2.6 0.1 0.5
v 1 0.1 0.4
v 0.8 0.1 0.4
v 1 0.1 0.5
v 2.6 0.1 0.3
v 2.1 0.1 0.3
v 2.1 0.1 0.4
v 1.2 0.1 0.3
v 1 0.1 0.3
v 1.2 0.1 0.4
v 2.2 0.1 0.2
v 1.3 0.1 0.2
v 1.3 0.1 0.3
v 2.2 0.1 0.3
v 1.2 0.1 0.2
v 1.3 0.1 0.4
v 3.5 0.1 -1.5
v 3.3 0.1 -1.5
v 3.3 0.1 -1.4
v 3.5 0.1 -1.4
v 3.4 0.1 -1.6
v 3.2 0.1 -1.6
v 3.2 0.1 -1.5
v 3.4 0.1 -1.5
v 3.2 0.1 -1.7
v 3 0.1 -1.7
v 3 0.1 -1.6
v 3.1 0.1 -1.8
v 2.9 0.1 -1.8
v 2.9 0.1 -1.7
v 3.1 0.1 -1.7
v -0.5 0.1 -1.8
v -0.9 0.1 -1.8
v -0.9 0.1 -1.7
v -0.5 0.1 -1.7
v -1.1 0.1 -1.8
v -1.1 0.1 -1.6
v -0.9 0.1 -1.6
v -1.3 0.1 -1.8
v -1.3 0.1 -1.7
v -1.1 0.1 -1.7
v 2.9 0.1 -1.9
v 2.6 0.1 -1.9
v 2.6 0.1 -1.8
v -0.2 0.1 -1.9
v -0.4 0.1 -1.9
v -0.4 0.1 -1.8
v -0.2 0.1 -1.8
v -0.5 0.1 -1.9
v -0.4 0.1 -1.7
v -1.2 0.1 -1.9
v -1.6 0.1 -1.9
v -1.6 0.1 -1.8
v -1.2 0.1 -1.8
v 2.6 0.1 -2
v 2.3 0.1 -2
v 2.3 0.1 -1.9
v 0.1 0.1 -2
v -0.2 0.1 -2
v 0.1 0.1 -1.9
v -1.5 0.1 -2
v -1.9 0.1 -2
v -1.9 0.1 -1.9
v -1.5 0.1 -1.9
v 2.4 0.1 -2.1
v 2 0.1 -2.1
v 2 0.1 -2
v 2.4 0.1 -2
v 0.4 0.1 -2.1
v 0.2 0.1 -2.1
v 0.2 0.1 -2
v 0.4 0.1 -2
v 0.1 0.1 -2.1
v 0.2 0.1 -1.9
v -1.8 0.1 -2.1
v -2.1 0.1 -2.1
v -2.1 0.1 -2
v -1.8 0.1 -2
v 2.1 0.1 -2.2
v 1.4 0.1 -2.2
v 1.4 0.1 -2.1
v 2.1 0.1 -2.1
v 0.8 0.1 -2.2
v 0.5 0.1 -2.2
v 0.5 0.1 -2.1
v 0.8 0.1 -2.1
v 0.4 0.1 -2.2
v 0.5 0.1 -2
v -2 0.1 -2.2
v -2.2 0.1 -2.2
v -2.2 0.1 -2.1
v -2 0.1 -2.1
v 3.7 0 3.9
v 3.7 0 4
v 3.4 0 4
v 3.4 0 3.9
v -2 0 3.9
v -2 0 4
v -2.2 0 4
v -2.2 0 3.9
v 3.4 0 3.8
v 3.1 0 3.9
v 3.1 0 3.8
v -1.8 0 3.8
v -1.8 0 3.9
v -2 0 3.8
v 3.2 0 3.7
v 3.2 0 3.8
v 3 0 3.8
v 3 0 3.7
v -1.7 0 3.7
v -1.7 0 3.9
v -1.8 0 3.7
v 3.1 0 3.6
v 3.1 0 3.7
v 2.8 0 3.7
v 2.8 0 3.6
v -1.5 0 3.6
v -1.5 0 3.7
v -1.6 0 3.7
v -1.6 0 3.6
v -1.6 0 3.8
v -1.7 0 3.8
v -1.7 0 3.6
v 2.8 0 3.5
v 2.6 0 3.6
v 2.6 0 3.5
v -1.3 0 3.5
v -1.3 0 3.6
v -1.5 0 3.5
v 2.6 0 3.4
v 2.3 0 3.5
v 2.3 0 3.4
v -1.2 0 3.4
v -1.2 0 3.5
v -1.3 0 3.4
v 2.4 0 3.3
v 2.4 0 3.4
v 1.8 0 3.4
v 1.8 0 3.3
v -1 0 3.3
v -1 0 3.4
v -1.2 0 3.3
v 1.9 0 3.2
v 1.9 0 3.3
v 1.6 0 3.3
v 1.6 0 3.2
v -0.8 0 3.2
v -0.8 0 3.3
v -1 0 3.2
v -0.7 0 3.1
v -0.7 0 3.2
v -0.8 0 3.1
v -0.4 0 3
v -0.4 0 3.1
v -0.7 0 3
v 0 0 2.9
v 0 0 3
v -0.4 0 2.9
v 0.6 0 2.8
v 0.6 0 2.9
v 0 0 2.8
v 4 0 2.3
v 4 0 2.5
v 3.9 0 2.5
v 3.9 0 2.3
v 3.9 0 2.2
v 3.9 0 2.4
v 3.8 0 2.4
v 3.8 0 2.2
v 3.8 0 2.3
v 3.6 0 2.3
v 3.6 0 2.2
v 1.4 0 2.2
v 1.4 0 2.3
v 1.2 0 2.3
v 1.2 0 2.2
v 3.7 0 2.1
v 3.7 0 2.2
v 2.8 0 2.2
v 2.8 0 2.1
v 1.8 0 2.1
v 1.8 0 2.2
v 1.5 0 2.2
v 1.5 0 2.1
v 1.5 0 2.3
v 1.4 0 2.1
v -1.7 0 2.1
v -1.7 0 2.2
v -2.2 0 2.2
v -2.2 0 2.1
v 2.8 0 2
v 1.8 0 2
v -1.6 0 2
v -1.6 0 2.2
v -1.7 0 2
v -1.4 0 1.9
v -1.4 0 2
v -1.5 0 2
v -1.5 0 1.9
v -1.5 0 2.1
v -1.6 0 2.1
v -1.6 0 1.9
v -1.2 0 1.8
v -1.2 0 1.9
v -1.3 0 1.9
v -1.3 0 1.8
v -1.3 0 2
v -1.4 0 1.8
v -1 0 1.7
v -1 0 1.8
v -1.1 0 1.8
v -1.1 0 1.7
v -1.1 0 1.9
v -1.2 0 1.7
v -0.7 0 1.6
v -0.7 0 1.7
v -0.9 0 1.7
v -0.9 0 1.6
v -0.9 0 1.8
v -1 0 1.6
v 4 0 0.8
v 4 0 0.9
v 3.3 0 0.9
v 3.3 0 0.8
v 3.4 0 0.7
v 3.4 0 0.8
v 3.1 0 0.8
v 3.1 0 0.7
v 3.2 0 0.6
v 3.2 0 0.7
v 2.9 0 0.7
v 2.9 0 0.6
v 3 0 0.5
v 3 0 0.6
v 2.8 0 0.6
v 2.8 0 0.5
v 0.8 0 0.5
v 0.8 0 0.6
v 0.6 0 0.6
v 0.6 0 0.5
v 0.6 0 0.7
v 0.5 0 0.7
v 0.5 0 0.5
v 2.8 0 0.4
v 2.6 0 0.5
v 2.6 0 0.4
v 1 0 0.4
v 1 0 0.5
v 0.8 0 0.4
v 2.6 0 0.3
v 2.1 0 0.4
v 2.1 0 0.3
v 1.2 0 0.3
v 1.2 0 0.4
v 1 0 0.3
v 2.2 0 0.2
v 2.2 0 0.3
v 1.3 0 0.3
v 1.3 0 0.2
v 1.3 0 0.4
v 1.2 0 0.2
v 3.5 0 -1.5
v 3.5 0 -1.4
v 3.3 0 -1.4
v 3.3 0 -1.5
v 3.4 0 -1.6
v 3.4 0 -1.5
v 3.2 0 -1.5
v 3.2 0 -1.6
v 3.2 0 -1.7
v 3 0 -1.6
v 3 0 -1.7
v 3.1 0 -1.8
v 3.1 0 -1.7
v 2.9 0 -1.7
v 2.9 0 -1.8
v -0.5 0 -1.8
v -0.5 0 -1.7
v -0.9 0 -1.7
v -0.9 0 -1.8
v -0.9 0 -1.6
v -1.1 0 -1.6
v -1.1 0 -1.8
v -1.1 0 -1.7
v -1.3 0 -1.7
v -1.3 0 -1.8
v 2.9 0 -1.9
v 2.6 0 -1.8
v 2.6 0 -1.9
v -0.2 0 -1.9
v -0.2 0 -1.8
v -0.4 0 -1.8
v -0.4 0 -1.9
v -0.4 0 -1.7
v -0.5 0 -1.9
v -1.2 0 -1.9
v -1.2 0 -1.8
v -1.6 0 -1.8
v -1.6 0 -1.9
v 2.6 0 -2
v 2.3 0 -1.9
v 2.3 0 -2
v 0.1 0 -2
v 0.1 0 -1.9
v -0.2 0 -2
v -1.5 0 -2
v -1.5 0 -1.9
v -1.9 0 -1.9
v -1.9 0 -2
v 2.4 0 -2.1
v 2.4 0 -2
v 2 0 -2
v 2 0 -2.1
v 0.4 0 -2.1
v 0.4 0 -2
v 0.2 0 -2
v 0.2 0 -2.1
v 0.2 0 -1.9
v 0.1 0 -2.1
v -1.8 0 -2.1
v -1.8 0 -2
v -2.1 0 -2
v -2.1 0 -2.1
v 2.1 0 -2.2
v 2.1 0 -2.1
v 1.4 0 -2.1
v 1.4 0 -2.2
v 0.8 0 -2.2
v 0.8 0 -2.1
v 0.5 0 -2.1
v 0.5 0 -2.2
v 0.5 0 -2
v 0.4 0 -2.2
v -2 0 -2.2
v -2 0 -2.1
v -2.2 0 -2.1
v -2.2 0 -2.2
v 1.5 0 -2.2
v 1.5 0.1 -2.2
v -2.6 0.1 2.8
v -3.5 0.1 2.8
v -3.5 0.1 2.9
v -2.6 0.1 2.9
v -3.4 0.1 2.7
v -3.6 0.1 2.7
v -3.6 0.1 2.8
v -3.4 0.1 2.8
v -3.6 0.1 2.6
v -3.8 0.1 2.6
v -3.8 0.1 2.7
v -3.7 0.1 2.5
v -3.9 0.1 2.5
v -3.9 0.1 2.6
v -3.7 0.1 2.6
v -3.9 0.1 2.4
v -4 0.1 2.4
v -4 0.1 2.5
v -2.6 0.1 2.1
v -2.6 0.1 2.2
v -3.5 0.1 0.8
v -4 0.1 0.8
v -4 0.1 0.9
v -3.5 0.1 0.9
v -3.3 0.1 0.7
v -3.4 0.1 0.7
v -3.4 0.1 0.8
v -3.3 0.1 0.8
v -3.5 0.1 0.7
v -3.4 0.1 0.9
v -3.1 0.1 0.6
v -3.2 0.1 0.6
v -3.2 0.1 0.7
v -3.1 0.1 0.7
v -3.3 0.1 0.6
v -3.2 0.1 0.8
v -3 0.1 0.5
v -3.1 0.1 0.5
v -3 0.1 0.7
v -2.9 0.1 0.4
v -3 0.1 0.4
v -3 0.1 0.6
v -2.9 0.1 0.6
v -2.7 0.1 0.3
v -2.8 0.1 0.3
v -2.8 0.1 0.4
v -2.7 0.1 0.4
v -2.9 0.1 0.3
v -2.9 0.1 0.5
v -2.8 0.1 0.5
v -2.2 0.1 0.2
v -2.6 0.1 0.2
v -2.6 0.1 0.3
v -2.2 0.1 0.3
v -2.7 0.1 0.2
v -2.6 0.1 0.4
v -2.3 0.1 -2.2
v -2.3 0.1 -2.1
v -2.6 0 2.8
v -2.6 0 2.9
v -3.5 0 2.9
v -3.5 0 2.8
v -3.4 0 2.7
v -3.4 0 2.8
v -3.6 0 2.8
v -3.6 0 2.7
v -3.6 0 2.6
v -3.8 0 2.7
v -3.8 0 2.6
v -3.7 0 2.5
v -3.7 0 2.6
v -3.9 0 2.6
v -3.9 0 2.5
v -3.9 0 2.4
v -4 0 2.5
v -4 0 2.4
v -2.6 0 2.2
v -2.6 0 2.1
v -3.5 0 0.8
v -3.5 0 0.9
v -4 0 0.9
v -4 0 0.8
v -3.3 0 0.7
v -3.3 0 0.8
v -3.4 0 0.8
v -3.4 0 0.7
v -3.4 0 0.9
v -3.5 0 0.7
v -3.1 0 0.6
v -3.1 0 0.7
v -3.2 0 0.7
v -3.2 0 0.6
v -3.2 0 0.8
v -3.3 0 0.6
v -3 0 0.5
v -3 0 0.7
v -3.1 0 0.5
v -2.9 0 0.4
v -2.9 0 0.6
v -3 0 0.6
v -3 0 0.4
v -2.7 0 0.3
v -2.7 0 0.4
v -2.8 0 0.4
v -2.8 0 0.3
v -2.8 0 0.5
v -2.9 0 0.5
v -2.9 0 0.3
v -2.2 0 0.2
v -2.2 0 0.3
v -2.6 0 0.3
v -2.6 0 0.2
v -2.6 0 0.4
v -2.7 0 0.2
v -2.3 0 -2.1
v -2.3 0 -2.2
v 1.5 0.1 -2.3
v 0.8 0.1 -2.3
v -0.1 0.1 -3.3
v -0.4 0.1 -3.3
v -0.4 0.1 -3.2
v -0.1 0.1 -3.2
v 0.1 0.1 -3.4
v 0 0.1 -3.4
v 0 0.1 -3.3
v 0.1 0.1 -3.3
v -0.1 0.1 -3.4
v 0 0.1 -3.2
v 0.3 0.1 -3.5
v 0.2 0.1 -3.5
v 0.2 0.1 -3.4
v 0.3 0.1 -3.4
v 0.1 0.1 -3.5
v 0.2 0.1 -3.3
v 0.5 0.1 -3.6
v 0.4 0.1 -3.6
v 0.4 0.1 -3.5
v 0.5 0.1 -3.5
v 0.3 0.1 -3.6
v 0.4 0.1 -3.4
v 2.1 0.1 -3.7
v 1.9 0.1 -3.7
v 1.9 0.1 -3.6
v 2.1 0.1 -3.6
v 0.8 0.1 -3.7
v 0.6 0.1 -3.7
v 0.6 0.1 -3.6
v 0.8 0.1 -3.6
v 0.5 0.1 -3.7
v 0.6 0.1 -3.5
v 1.9 0.1 -3.8
v 0.9 0.1 -3.8
v 0.9 0.1 -3.7
v 0.8 0.1 -3.8
v 0.9 0.1 -3.6
v 4 0.1 -3.9
v 3.9 0.1 -3.9
v 3.9 0.1 -3.8
v 4 0.1 -3.8
v 3.9 0.1 -4
v 3.7 0.1 -4
v 3.7 0.1 -3.9
v 1.5 0 -2.3
v 0.8 0 -2.3
v -0.1 0 -3.3
v -0.1 0 -3.2
v -0.4 0 -3.2
v -0.4 0 -3.3
v 0.1 0 -3.4
v 0.1 0 -3.3
v 0 0 -3.3
v 0 0 -3.4
v 0 0 -3.2
v -0.1 0 -3.4
v 0.3 0 -3.5
v 0.3 0 -3.4
v 0.2 0 -3.4
v 0.2 0 -3.5
v 0.2 0 -3.3
v 0.1 0 -3.5
v 0.5 0 -3.6
v 0.5 0 -3.5
v 0.4 0 -3.5
v 0.4 0 -3.6
v 0.4 0 -3.4
v 0.3 0 -3.6
v 2.1 0 -3.7
v 2.1 0 -3.6
v 1.9 0 -3.6
v 1.9 0 -3.7
v 0.8 0 -3.7
v 0.8 0 -3.6
v 0.6 0 -3.6
v 0.6 0 -3.7
v 0.6 0 -3.5
v 0.5 0 -3.7
v 1.9 0 -3.8
v 0.9 0 -3.7
v 0.9 0 -3.8
v 0.9 0 -3.6
v 0.8 0 -3.8
v 4 0 -3.9
v 4 0 -3.8
v 3.9 0 -3.8
v 3.9 0 -3.9
v 3.9 0 -4
v 3.7 0 -3.9
v 3.7 0 -4
v -2.2 0.1 -2.3
v -2.4 0.1 -2.3
v -2.4 0.1 -2.2
v -2.3 0.1 -2.4
v -2.5 0.1 -2.4
v -2.5 0.1 -2.3
v -2.3 0.1 -2.3
v -2.4 0.1 -2.5
v -2.7 0.1 -2.5
v -2.7 0.1 -2.4
v -2.4 0.1 -2.4
v -2.6 0.1 -2.6
v -2.9 0.1 -2.6
v -2.9 0.1 -2.5
v -2.6 0.1 -2.5
v -2.8 0.1 -2.7
v -3.6 0.1 -2.7
v -3.6 0.1 -2.6
v -2.8 0.1 -2.6
v -2.5 0.1 -3.8
v -3.7 0.1 -3.8
v -3.7 0.1 -3.7
v -2.5 0.1 -3.7
v -2.4 0.1 -3.9
v -2.5 0.1 -3.9
v -2.4 0.1 -3.8
v -3.7 0.1 -3.9
v -4 0.1 -3.9
v -4 0.1 -3.8
v -2.2 0.1 -4
v -2.3 0.1 -4
v -2.3 0.1 -3.9
v -2.2 0.1 -3.9
v -2.4 0.1 -4
v -2.3 0.1 -3.8
v -2.2 0 -2.3
v -2.4 0 -2.2
v -2.4 0 -2.3
v -2.3 0 -2.4
v -2.3 0 -2.3
v -2.5 0 -2.3
v -2.5 0 -2.4
v -2.4 0 -2.5
v -2.4 0 -2.4
v -2.7 0 -2.4
v -2.7 0 -2.5
v -2.6 0 -2.6
v -2.6 0 -2.5
v -2.9 0 -2.5
v -2.9 0 -2.6
v -2.8 0 -2.7
v -2.8 0 -2.6
v -3.6 0 -2.6
v -3.6 0 -2.7
v -2.5 0 -3.8
v -2.5 0 -3.7
v -3.7 0 -3.7
v -3.7 0 -3.8
v -2.4 0 -3.9
v -2.4 0 -3.8
v -2.5 0 -3.9
v -3.7 0 -3.9
v -4 0 -3.8
v -4 0 -3.9
v -2.2 0 -4
v -2.2 0 -3.9
v -2.3 0 -3.9
v -2.3 0 -4
v -2.3 0 -3.8
v -2.4 0 -4

vt 0.0839844 0.5

vn 0 1 0
vn 0 -1 0
vn -1 0 0
vn 1 0 0
vn 0 0 -1
vn 0 0 1

usemtl palette
f 1/1/1 2/1/1 4/1/1
f 4/1/1 2/1/1 3/1/1
f 5/1/1 6/1/1 8/1/1
f 8/1/1 6/1/1 7/1/1
f 9/1/1 10/1/1 2/1/1
f 2/1/1 10/1/1 11/1/1
f 12/1/1 13/1/1 14/1/1
f 14/1/1 13/1/1 5/1/1
f 15/1/1 16/1/1 18/1/1
f 18/1/1 16/1/1 17/1/1
f 19/1/1 20/1/1 21/1/1
f 21/1/1 20/1/1 14/1/1
f 22/1/1 23/1/1 25/1/1
f 25/1/1 23/1/1 24/1/1
f 26/1/1 27/1/1 29/1/1
f 29/1/1 27/1/1 28/1/1
f 27/1/1 30/1/1 32/1/1
f 32/1/1 30/1/1 31/1/1
f 33/1/1 34/1/1 23/1/1
f 23/1/1 34/1/1 35/1/1
f 36/1/1 37/1/1 38/1/1
f 38/1/1 37/1/1 26/1/1
f 39/1/1 40/1/1 34/1/1
f 34/1/1 40/1/1 41/1/1
f 42/1/1 43/1/1 44/1/1
f 44/1/1 43/1/1 36/1/1
f 45/1/1 46/1/1 48/1/1
f 48/1/1 46/1/1 47/1/1
f 49/1/1 50/1/1 51/1/1
f 51/1/1 50/1/1 42/1/1
f 52/1/1 53/1/1 55/1/1
f 55/1/1 53/1/1 54/1/1
f 56/1/1 57/1/1 58/1/1
f 58/1/1 57/1/1 49/1/1
f 59/1/1 60/1/1 61/1/1
f 61/1/1 60/1/1 56/1/1
f 62/1/1 63/1/1 64/1/1
f 64/1/1 63/1/1 59/1/1
f 65/1/1 66/1/1 67/1/1
f 67/1/1 66/1/1 62/1/1
f 68/1/1 69/1/1 70/1/1
f 70/1/1 69/1/1 65/1/1
f 71/1/1 72/1/1 74/1/1
f 74/1/1 72/1/1 73/1/1
f 75/1/1 76/1/1 78/1/1
f 78/1/1 76/1/1 77/1/1
f 76/1/1 79/1/1 81/1/1
f 81/1/1 79/1/1 80/1/1
f 82/1/1 83/1/1 85/1/1
f 85/1/1 83/1/1 84/1/1
f 86/1/1 87/1/1 89/1/1
f 89/1/1 87/1/1 88/1/1
f 90/1/1 91/1/1 93/1/1
f 93/1/1 91/1/1 92/1/1
f 91/1/1 94/1/1 95/1/1
f 95/1/1 94/1/1 85/1/1
f 96/1/1 97/1/1 99/1/1
f 99/1/1 97/1/1 98/1/1
f 100/1/1 101/1/1 87/1/1
f 87/1/1 101/1/1 90/1/1
f 102/1/1 103/1/1 104/1/1
f 104/1/1 103/1/1 99/1/1
f 105/1/1 106/1/1 108/1/1
f 108/1/1 106/1/1 107/1/1
f 106/1/1 109/1/1 111/1/1
f 111/1/1 109/1/1 110/1/1
f 112/1/1 113/1/1 115/1/1
f 115/1/1 113/1/1 114/1/1
f 113/1/1 116/1/1 117/1/1
f 117/1/1 116/1/1 108/1/1
f 118/1/1 119/1/1 121/1/1
f 121/1/1 119/1/1 120/1/1
f 119/1/1 122/1/1 123/1/1
f 123/1/1 122/1/1 115/1/1
f 124/1/1 125/1/1 127/1/1
f 127/1/1 125/1/1 126/1/1
f 125/1/1 128/1/1 129/1/1
f 129/1/1 128/1/1 121/1/1
f 130/1/1 131/1/1 133/1/1
f 133/1/1 131/1/1 132/1/1
f 134/1/1 135/1/1 137/1/1
f 137/1/1 135/1/1 136/1/1
f 138/1/1 139/1/1 141/1/1
f 141/1/1 139/1/1 140/1/1
f 142/1/1 143/1/1 145/1/1
f 145/1/1 143/1/1 144/1/1
f 146/1/1 147/1/1 149/1/1
f 149/1/1 147/1/1 148/1/1
f 147/1/1 150/1/1 152/1/1
f 152/1/1 150/1/1 151/1/1
f 153/1/1 154/1/1 143/1/1
f 143/1/1 154/1/1 155/1/1
f 156/1/1 157/1/1 158/1/1
f 158/1/1 157/1/1 146/1/1
f 159/1/1 160/1/1 154/1/1
f 154/1/1 160/1/1 161/1/1
f 162/1/1 163/1/1 164/1/1
f 164/1/1 163/1/1 156/1/1
f 165/1/1 166/1/1 168/1/1
f 168/1/1 166/1/1 167/1/1
f 166/1/1 169/1/1 170/1/1
f 170/1/1 169/1/1 164/1/1
f 171/1/1 172/1/1 174/1/1
f 174/1/1 172/1/1 173/1/1
f 175/1/1 176/1/1 178/1/1
f 178/1/1 176/1/1 177/1/1
f 179/1/1 180/1/1 176/1/1
f 176/1/1 180/1/1 181/1/1
f 182/1/1 183/1/1 185/1/1
f 185/1/1 183/1/1 184/1/1
f 186/1/1 187/1/1 189/1/1
f 189/1/1 187/1/1 188/1/1
f 187/1/1 190/1/1 192/1/1
f 192/1/1 190/1/1 191/1/1
f 190/1/1 193/1/1 195/1/1
f 195/1/1 193/1/1 194/1/1
f 196/1/1 197/1/1 183/1/1
f 183/1/1 197/1/1 198/1/1
f 199/1/1 200/1/1 202/1/1
f 202/1/1 200/1/1 201/1/1
f 200/1/1 203/1/1 204/1/1
f 204/1/1 203/1/1 189/1/1
f 205/1/1 206/1/1 208/1/1
f 208/1/1 206/1/1 207/1/1
f 209/1/1 210/1/1 197/1/1
f 197/1/1 210/1/1 211/1/1
f 212/1/1 213/1/1 214/1/1
f 214/1/1 213/1/1 199/1/1
f 215/1/1 216/1/1 218/1/1
f 218/1/1 216/1/1 217/1/1
f 219/1/1 220/1/1 222/1/1
f 222/1/1 220/1/1 221/1/1
f 223/1/1 224/1/1 226/1/1
f 226/1/1 224/1/1 225/1/1
f 224/1/1 227/1/1 228/1/1
f 228/1/1 227/1/1 214/1/1
f 229/1/1 230/1/1 232/1/1
f 232/1/1 230/1/1 231/1/1
f 233/1/1 234/1/1 236/1/1
f 236/1/1 234/1/1 235/1/1
f 237/1/1 238/1/1 240/1/1
f 240/1/1 238/1/1 239/1/1
f 238/1/1 241/1/1 242/1/1
f 242/1/1 241/1/1 226/1/1
f 243/1/1 244/1/1 246/1/1
f 246/1/1 244/1/1 245/1/1
f 247/1/2 248/1/2 250/1/2
f 250/1/2 248/1/2 249/1/2
f 251/1/2 252/1/2 254/1/2
f 254/1/2 252/1/2 253/1/2
f 255/1/2 250/1/2 257/1/2
f 257/1/2 250/1/2 256/1/2
f 258/1/2 259/1/2 260/1/2
f 260/1/2 259/1/2 251/1/2
f 261/1/2 262/1/2 264/1/2
f 264/1/2 262/1/2 263/1/2
f 265/1/2 266/1/2 267/1/2
f 267/1/2 266/1/2 259/1/2
f 268/1/2 269/1/2 271/1/2
f 271/1/2 269/1/2 270/1/2
f 272/1/2 273/1/2 275/1/2
f 275/1/2 273/1/2 274/1/2
f 275/1/2 276/1/2 278/1/2
f 278/1/2 276/1/2 277/1/2
f 279/1/2 271/1/2 281/1/2
f 281/1/2 271/1/2 280/1/2
f 282/1/2 283/1/2 284/1/2
f 284/1/2 283/1/2 272/1/2
f 285/1/2 281/1/2 287/1/2
f 287/1/2 281/1/2 286/1/2
f 288/1/2 289/1/2 290/1/2
f 290/1/2 289/1/2 282/1/2
f 291/1/2 292/1/2 294/1/2
f 294/1/2 292/1/2 293/1/2
f 295/1/2 296/1/2 297/1/2
f 297/1/2 296/1/2 288/1/2
f 298/1/2 299/1/2 301/1/2
f 301/1/2 299/1/2 300/1/2
f 302/1/2 303/1/2 304/1/2
f 304/1/2 303/1/2 295/1/2
f 305/1/2 306/1/2 307/1/2
f 307/1/2 306/1/2 302/1/2
f 308/1/2 309/1/2 310/1/2
f 310/1/2 309/1/2 305/1/2
f 311/1/2 312/1/2 313/1/2
f 313/1/2 312/1/2 308/1/2
f 314/1/2 315/1/2 316/1/2
f 316/1/2 315/1/2 311/1/2
f 317/1/2 318/1/2 320/1/2
f 320/1/2 318/1/2 319/1/2
f 321/1/2 322/1/2 324/1/2
f 324/1/2 322/1/2 323/1/2
f 324/1/2 325/1/2 327/1/2
f 327/1/2 325/1/2 326/1/2
f 328/1/2 329/1/2 331/1/2
f 331/1/2 329/1/2 330/1/2
f 332/1/2 333/1/2 335/1/2
f 335/1/2 333/1/2 334/1/2
f 336/1/2 337/1/2 339/1/2
f 339/1/2 337/1/2 338/1/2
f 339/1/2 340/1/2 341/1/2
f 341/1/2 340/1/2 329/1/2
f 342/1/2 343/1/2 345/1/2
f 345/1/2 343/1/2 344/1/2
f 346/1/2 335/1/2 347/1/2
f 347/1/2 335/1/2 336/1/2
f 348/1/2 349/1/2 350/1/2
f 350/1/2 349/1/2 343/1/2
f 351/1/2 352/1/2 354/1/2
f 354/1/2 352/1/2 353/1/2
f 354/1/2 355/1/2 357/1/2
f 357/1/2 355/1/2 356/1/2
f 358/1/2 359/1/2 361/1/2
f 361/1/2 359/1/2 360/1/2
f 361/1/2 362/1/2 363/1/2
f 363/1/2 362/1/2 352/1/2
f 364/1/2 365/1/2 367/1/2
f 367/1/2 365/1/2 366/1/2
f 367/1/2 368/1/2 369/1/2
f 369/1/2 368/1/2 359/1/2
f 370/1/2 371/1/2 373/1/2
f 373/1/2 371/1/2 372/1/2
f 373/1/2 374/1/2 375/1/2
f 375/1/2 374/1/2 365/1/2
f 376/1/2 377/1/2 379/1/2
f 379/1/2 377/1/2 378/1/2
f 380/1/2 381/1/2 383/1/2
f 383/1/2 381/1/2 382/1/2
f 384/1/2 385/1/2 387/1/2
f 387/1/2 385/1/2 386/1/2
f 388/1/2 389/1/2 391/1/2
f 391/1/2 389/1/2 390/1/2
f 392/1/2 393/1/2 395/1/2
f 395/1/2 393/1/2 394/1/2
f 395/1/2 396/1/2 398/1/2
f 398/1/2 396/1/2 397/1/2
f 399/1/2 391/1/2 401/1/2
f 401/1/2 391/1/2 400/1/2
f 402/1/2 403/1/2 404/1/2
f 404/1/2 403/1/2 392/1/2
f 405/1/2 401/1/2 407/1/2
f 407/1/2 401/1/2 406/1/2
f 408/1/2 409/1/2 410/1/2
f 410/1/2 409/1/2 402/1/2
f 411/1/2 412/1/2 414/1/2
f 414/1/2 412/1/2 413/1/2
f 414/1/2 415/1/2 416/1/2
f 416/1/2 415/1/2 409/1/2
f 417/1/2 418/1/2 420/1/2
f 420/1/2 418/1/2 419/1/2
f 421/1/2 422/1/2 424/1/2
f 424/1/2 422/1/2 423/1/2
f 425/1/2 424/1/2 427/1/2
f 427/1/2 424/1/2 426/1/2
f 428/1/2 429/1/2 431/1/2
f 431/1/2 429/1/2 430/1/2
f 432/1/2 433/1/2 435/1/2
f 435/1/2 433/1/2 434/1/2
f 435/1/2 436/1/2 438/1/2
f 438/1/2 436/1/2 437/1/2
f 438/1/2 439/1/2 441/1/2
f 441/1/2 439/1/2 440/1/2
f 442/1/2 431/1/2 444/1/2
f 444/1/2 431/1/2 443/1/2
f 445/1/2 446/1/2 448/1/2
f 448/1/2 446/1/2 447/1/2
f 448/1/2 449/1/2 450/1/2
f 450/1/2 449/1/2 433/1/2
f 451/1/2 452/1/2 454/1/2
f 454/1/2 452/1/2 453/1/2
f 455/1/2 444/1/2 457/1/2
f 457/1/2 444/1/2 456/1/2
f 458/1/2 459/1/2 460/1/2
f 460/1/2 459/1/2 445/1/2
f 461/1/2 462/1/2 464/1/2
f 464/1/2 462/1/2 463/1/2
f 465/1/2 466/1/2 468/1/2
f 468/1/2 466/1/2 467/1/2
f 469/1/2 470/1/2 472/1/2
f 472/1/2 470/1/2 471/1/2
f 472/1/2 473/1/2 474/1/2
f 474/1/2 473/1/2 459/1/2
f 475/1/2 476/1/2 478/1/2
f 478/1/2 476/1/2 477/1/2
f 479/1/2 480/1/2 482/1/2
f 482/1/2 480/1/2 481/1/2
f 483/1/2 484/1/2 486/1/2
f 486/1/2 484/1/2 485/1/2
f 486/1/2 487/1/2 488/1/2
f 488/1/2 487/1/2 470/1/2
f 489/1/2 490/1/2 492/1/2
f 492/1/2 490/1/2 491/1/2
f 3/1/3 2/1/3 249/1/3
f 249/1/3 2/1/3 250/1/3
f 7/1/3 6/1/3 253/1/3
f 253/1/3 6/1/3 254/1/3
f 11/1/3 10/1/3 256/1/3
f 256/1/3 10/1/3 257/1/3
f 5/1/3 13/1/3 251/1/3
f 251/1/3 13/1/3 260/1/3
f 17/1/3 16/1/3 263/1/3
f 263/1/3 16/1/3 264/1/3
f 12/1/3 20/1/3 258/1/3
f 258/1/3 20/1/3 267/1/3
f 24/1/3 23/1/3 270/1/3
f 270/1/3 23/1/3 271/1/3
f 19/1/3 30/1/3 265/1/3
f 265/1/3 30/1/3 278/1/3
f 35/1/3 34/1/3 280/1/3
f 280/1/3 34/1/3 281/1/3
f 26/1/3 37/1/3 272/1/3
f 272/1/3 37/1/3 284/1/3
f 41/1/3 40/1/3 286/1/3
f 286/1/3 40/1/3 287/1/3
f 36/1/3 43/1/3 282/1/3
f 282/1/3 43/1/3 290/1/3
f 47/1/3 46/1/3 293/1/3
f 293/1/3 46/1/3 294/1/3
f 42/1/3 50/1/3 288/1/3
f 288/1/3 50/1/3 297/1/3
f 54/1/3 53/1/3 300/1/3
f 300/1/3 53/1/3 301/1/3
f 49/1/3 57/1/3 295/1/3
f 295/1/3 57/1/3 304/1/3
f 56/1/3 60/1/3 302/1/3
f 302/1/3 60/1/3 307/1/3
f 59/1/3 63/1/3 305/1/3
f 305/1/3 63/1/3 310/1/3
f 62/1/3 66/1/3 308/1/3
f 308/1/3 66/1/3 313/1/3
f 65/1/3 69/1/3 311/1/3
f 311/1/3 69/1/3 316/1/3
f 73/1/3 78/1/3 319/1/3
f 319/1/3 78/1/3 322/1/3
f 77/1/3 81/1/3 323/1/3
f 323/1/3 81/1/3 325/1/3
f 80/1/3 79/1/3 326/1/3
f 326/1/3 79/1/3 327/1/3
f 84/1/3 83/1/3 330/1/3
f 330/1/3 83/1/3 331/1/3
f 88/1/3 87/1/3 334/1/3
f 334/1/3 87/1/3 335/1/3
f 82/1/3 94/1/3 328/1/3
f 328/1/3 94/1/3 341/1/3
f 90/1/3 101/1/3 336/1/3
f 336/1/3 101/1/3 347/1/3
f 96/1/3 103/1/3 342/1/3
f 342/1/3 103/1/3 350/1/3
f 102/1/3 109/1/3 348/1/3
f 348/1/3 109/1/3 357/1/3
f 105/1/3 116/1/3 351/1/3
f 351/1/3 116/1/3 363/1/3
f 112/1/3 122/1/3 358/1/3
f 358/1/3 122/1/3 369/1/3
f 118/1/3 128/1/3 364/1/3
f 364/1/3 128/1/3 375/1/3
f 132/1/3 131/1/3 378/1/3
f 378/1/3 131/1/3 379/1/3
f 136/1/3 135/1/3 382/1/3
f 382/1/3 135/1/3 383/1/3
f 140/1/3 139/1/3 386/1/3
f 386/1/3 139/1/3 387/1/3
f 144/1/3 143/1/3 390/1/3
f 390/1/3 143/1/3 391/1/3
f 151/1/3 150/1/3 397/1/3
f 397/1/3 150/1/3 398/1/3
f 155/1/3 154/1/3 400/1/3
f 400/1/3 154/1/3 401/1/3
f 146/1/3 157/1/3 392/1/3
f 392/1/3 157/1/3 404/1/3
f 161/1/3 160/1/3 406/1/3
f 406/1/3 160/1/3 407/1/3
f 156/1/3 163/1/3 402/1/3
f 402/1/3 163/1/3 410/1/3
f 162/1/3 169/1/3 408/1/3
f 408/1/3 169/1/3 416/1/3
f 173/1/3 172/1/3 419/1/3
f 419/1/3 172/1/3 420/1/3
f 177/1/3 176/1/3 423/1/3
f 423/1/3 176/1/3 424/1/3
f 181/1/3 180/1/3 426/1/3
f 426/1/3 180/1/3 427/1/3
f 191/1/3 195/1/3 437/1/3
f 437/1/3 195/1/3 439/1/3
f 184/1/3 183/1/3 430/1/3
f 430/1/3 183/1/3 431/1/3
f 194/1/3 193/1/3 440/1/3
f 440/1/3 193/1/3 441/1/3
f 198/1/3 197/1/3 443/1/3
f 443/1/3 197/1/3 444/1/3
f 186/1/3 203/1/3 432/1/3
f 432/1/3 203/1/3 450/1/3
f 207/1/3 206/1/3 453/1/3
f 453/1/3 206/1/3 454/1/3
f 211/1/3 210/1/3 456/1/3
f 456/1/3 210/1/3 457/1/3
f 199/1/3 213/1/3 445/1/3
f 445/1/3 213/1/3 460/1/3
f 217/1/3 216/1/3 463/1/3
f 463/1/3 216/1/3 464/1/3
f 221/1/3 220/1/3 467/1/3
f 467/1/3 220/1/3 468/1/3
f 212/1/3 227/1/3 458/1/3
f 458/1/3 227/1/3 474/1/3
f 231/1/3 230/1/3 477/1/3
f 477/1/3 230/1/3 478/1/3
f 235/1/3 234/1/3 481/1/3
f 481/1/3 234/1/3 482/1/3
f 223/1/3 241/1/3 469/1/3
f 469/1/3 241/1/3 488/1/3
f 4/1/4 248/1/4 1/1/4
f 1/1/4 248/1/4 247/1/4
f 8/1/4 252/1/4 5/1/4
f 5/1/4 252/1/4 251/1/4
f 2/1/4 250/1/4 9/1/4
f 9/1/4 250/1/4 255/1/4
f 21/1/4 266/1/4 31/1/4
f 31/1/4 266/1/4 277/1/4
f 18/1/4 262/1/4 15/1/4
f 15/1/4 262/1/4 261/1/4
f 32/1/4 276/1/4 28/1/4
f 28/1/4 276/1/4 274/1/4
f 25/1/4 269/1/4 22/1/4
f 22/1/4 269/1/4 268/1/4
f 29/1/4 273/1/4 26/1/4
f 26/1/4 273/1/4 272/1/4
f 23/1/4 271/1/4 33/1/4
f 33/1/4 271/1/4 279/1/4
f 38/1/4 283/1/4 36/1/4
f 36/1/4 283/1/4 282/1/4
f 34/1/4 281/1/4 39/1/4
f 39/1/4 281/1/4 285/1/4
f 44/1/4 289/1/4 42/1/4
f 42/1/4 289/1/4 288/1/4
f 48/1/4 292/1/4 45/1/4
f 45/1/4 292/1/4 291/1/4
f 51/1/4 296/1/4 49/1/4
f 49/1/4 296/1/4 295/1/4
f 55/1/4 299/1/4 52/1/4
f 52/1/4 299/1/4 298/1/4
f 58/1/4 303/1/4 56/1/4
f 56/1/4 303/1/4 302/1/4
f 61/1/4 306/1/4 59/1/4
f 59/1/4 306/1/4 305/1/4
f 64/1/4 309/1/4 62/1/4
f 62/1/4 309/1/4 308/1/4
f 67/1/4 312/1/4 65/1/4
f 65/1/4 312/1/4 311/1/4
f 70/1/4 315/1/4 68/1/4
f 68/1/4 315/1/4 314/1/4
f 74/1/4 318/1/4 71/1/4
f 71/1/4 318/1/4 317/1/4
f 72/1/4 320/1/4 75/1/4
f 75/1/4 320/1/4 321/1/4
f 95/1/4 340/1/4 92/1/4
f 92/1/4 340/1/4 338/1/4
f 89/1/4 333/1/4 86/1/4
f 86/1/4 333/1/4 332/1/4
f 93/1/4 337/1/4 90/1/4
f 90/1/4 337/1/4 336/1/4
f 104/1/4 349/1/4 110/1/4
f 110/1/4 349/1/4 356/1/4
f 87/1/4 335/1/4 100/1/4
f 100/1/4 335/1/4 346/1/4
f 111/1/4 355/1/4 107/1/4
f 107/1/4 355/1/4 353/1/4
f 117/1/4 362/1/4 114/1/4
f 114/1/4 362/1/4 360/1/4
f 123/1/4 368/1/4 120/1/4
f 120/1/4 368/1/4 366/1/4
f 129/1/4 374/1/4 126/1/4
f 126/1/4 374/1/4 372/1/4
f 127/1/4 371/1/4 124/1/4
f 124/1/4 371/1/4 370/1/4
f 133/1/4 377/1/4 130/1/4
f 130/1/4 377/1/4 376/1/4
f 137/1/4 381/1/4 134/1/4
f 134/1/4 381/1/4 380/1/4
f 141/1/4 385/1/4 138/1/4
f 138/1/4 385/1/4 384/1/4
f 152/1/4 396/1/4 148/1/4
f 148/1/4 396/1/4 394/1/4
f 145/1/4 389/1/4 142/1/4
f 142/1/4 389/1/4 388/1/4
f 149/1/4 393/1/4 146/1/4
f 146/1/4 393/1/4 392/1/4
f 143/1/4 391/1/4 153/1/4
f 153/1/4 391/1/4 399/1/4
f 158/1/4 403/1/4 156/1/4
f 156/1/4 403/1/4 402/1/4
f 154/1/4 401/1/4 159/1/4
f 159/1/4 401/1/4 405/1/4
f 170/1/4 415/1/4 167/1/4
f 167/1/4 415/1/4 413/1/4
f 168/1/4 412/1/4 165/1/4
f 165/1/4 412/1/4 411/1/4
f 174/1/4 418/1/4 171/1/4
f 171/1/4 418/1/4 417/1/4
f 178/1/4 422/1/4 175/1/4
f 175/1/4 422/1/4 421/1/4
f 176/1/4 424/1/4 179/1/4
f 179/1/4 424/1/4 425/1/4
f 192/1/4 436/1/4 188/1/4
f 188/1/4 436/1/4 434/1/4
f 185/1/4 429/1/4 182/1/4
f 182/1/4 429/1/4 428/1/4
f 204/1/4 449/1/4 201/1/4
f 201/1/4 449/1/4 447/1/4
f 183/1/4 431/1/4 196/1/4
f 196/1/4 431/1/4 442/1/4
f 202/1/4 446/1/4 199/1/4
f 199/1/4 446/1/4 445/1/4
f 208/1/4 452/1/4 205/1/4
f 205/1/4 452/1/4 451/1/4
f 197/1/4 444/1/4 209/1/4
f 209/1/4 444/1/4 455/1/4
f 228/1/4 473/1/4 225/1/4
f 225/1/4 473/1/4 471/1/4
f 218/1/4 462/1/4 215/1/4
f 215/1/4 462/1/4 461/1/4
f 222/1/4 466/1/4 219/1/4
f 219/1/4 466/1/4 465/1/4
f 242/1/4 487/1/4 239/1/4
f 239/1/4 487/1/4 485/1/4
f 232/1/4 476/1/4 229/1/4
f 229/1/4 476/1/4 475/1/4
f 236/1/4 480/1/4 233/1/4
f 233/1/4 480/1/4 479/1/4
f 240/1/4 484/1/4 237/1/4
f 237/1/4 484/1/4 483/1/4
f 246/1/4 490/1/4 243/1/4
f 243/1/4 490/1/4 489/1/4
f 320/1/5 72/1/5 317/1/5
f 317/1/5 72/1/5 71/1/5
f 333/1/5 89/1/5 321/1/5
f 321/1/5 89/1/5 75/1/5
f 250/1/5 2/1/5 247/1/5
f 247/1/5 2/1/5 1/1/5
f 381/1/5 137/1/5 376/1/5
f 376/1/5 137/1/5 130/1/5
f 422/1/5 178/1/5 417/1/5
f 417/1/5 178/1/5 171/1/5
f 262/1/5 18/1/5 255/1/5
f 255/1/5 18/1/5 9/1/5
f 385/1/5 141/1/5 380/1/5
f 380/1/5 141/1/5 134/1/5
f 424/1/5 176/1/5 421/1/5
f 421/1/5 176/1/5 175/1/5
f 269/1/5 25/1/5 261/1/5
f 261/1/5 25/1/5 15/1/5
f 429/1/5 185/1/5 425/1/5
f 425/1/5 185/1/5 179/1/5
f 389/1/5 145/1/5 384/1/5
f 384/1/5 145/1/5 138/1/5
f 431/1/5 183/1/5 428/1/5
f 428/1/5 183/1/5 182/1/5
f 271/1/5 23/1/5 268/1/5
f 268/1/5 23/1/5 22/1/5
f 335/1/5 87/1/5 332/1/5
f 332/1/5 87/1/5 86/1/5
f 391/1/5 143/1/5 388/1/5
f 388/1/5 143/1/5 142/1/5
f 281/1/5 34/1/5 279/1/5
f 279/1/5 34/1/5 33/1/5
f 401/1/5 154/1/5 399/1/5
f 399/1/5 154/1/5 153/1/5
f 444/1/5 197/1/5 442/1/5
f 442/1/5 197/1/5 196/1/5
f 292/1/5 48/1/5 285/1/5
f 285/1/5 48/1/5 39/1/5
f 466/1/5 222/1/5 455/1/5
f 455/1/5 222/1/5 209/1/5
f 412/1/5 168/1/5 405/1/5
f 405/1/5 168/1/5 159/1/5
f 480/1/5 236/1/5 465/1/5
f 465/1/5 236/1/5 219/1/5
f 299/1/5 55/1/5 291/1/5
f 291/1/5 55/1/5 45/1/5
f 347/1/5 101/1/5 346/1/5
f 346/1/5 101/1/5 100/1/5
f 301/1/5 53/1/5 298/1/5
f 298/1/5 53/1/5 52/1/5
f 493/1/5 494/1/5 479/1/5
f 479/1/5 494/1/5 233/1/5
f 341/1/5 94/1/5 336/1/5
f 336/1/5 94/1/5 90/1/5
f 331/1/5 83/1/5 328/1/5
f 328/1/5 83/1/5 82/1/5
f 416/1/5 169/1/5 411/1/5
f 411/1/5 169/1/5 165/1/5
f 410/1/5 163/1/5 408/1/5
f 408/1/5 163/1/5 162/1/5
f 404/1/5 157/1/5 402/1/5
f 402/1/5 157/1/5 156/1/5
f 398/1/5 150/1/5 392/1/5
f 392/1/5 150/1/5 146/1/5
f 488/1/5 241/1/5 483/1/5
f 483/1/5 241/1/5 237/1/5
f 474/1/5 227/1/5 469/1/5
f 469/1/5 227/1/5 223/1/5
f 316/1/5 69/1/5 314/1/5
f 314/1/5 69/1/5 68/1/5
f 460/1/5 213/1/5 458/1/5
f 458/1/5 213/1/5 212/1/5
f 313/1/5 66/1/5 311/1/5
f 311/1/5 66/1/5 65/1/5
f 450/1/5 203/1/5 445/1/5
f 445/1/5 203/1/5 199/1/5
f 310/1/5 63/1/5 308/1/5
f 308/1/5 63/1/5 62/1/5
f 307/1/5 60/1/5 305/1/5
f 305/1/5 60/1/5 59/1/5
f 304/1/5 57/1/5 302/1/5
f 302/1/5 57/1/5 56/1/5
f 375/1/5 128/1/5 370/1/5
f 370/1/5 128/1/5 124/1/5
f 297/1/5 50/1/5 295/1/5
f 295/1/5 50/1/5 49/1/5
f 369/1/5 122/1/5 364/1/5
f 364/1/5 122/1/5 118/1/5
f 452/1/5 208/1/5 432/1/5
f 432/1/5 208/1/5 186/1/5
f 290/1/5 43/1/5 288/1/5
f 288/1/5 43/1/5 42/1/5
f 363/1/5 116/1/5 358/1/5
f 358/1/5 116/1/5 112/1/5
f 284/1/5 37/1/5 282/1/5
f 282/1/5 37/1/5 36/1/5
f 462/1/5 218/1/5 451/1/5
f 451/1/5 218/1/5 205/1/5
f 357/1/5 109/1/5 351/1/5
f 351/1/5 109/1/5 105/1/5
f 278/1/5 30/1/5 272/1/5
f 272/1/5 30/1/5 26/1/5
f 350/1/5 103/1/5 348/1/5
f 348/1/5 103/1/5 102/1/5
f 267/1/5 20/1/5 265/1/5
f 265/1/5 20/1/5 19/1/5
f 476/1/5 232/1/5 461/1/5
f 461/1/5 232/1/5 215/1/5
f 260/1/5 13/1/5 258/1/5
f 258/1/5 13/1/5 12/1/5
f 490/1/5 246/1/5 475/1/5
f 475/1/5 246/1/5 229/1/5
f 254/1/5 6/1/5 251/1/5
f 251/1/5 6/1/5 5/1/5
f 345/1/5 97/1/5 342/1/5
f 342/1/5 97/1/5 96/1/5
f 492/1/5 244/1/5 489/1/5
f 489/1/5 244/1/5 243/1/5
f 319/1/6 318/1/6 73/1/6
f 73/1/6 318/1/6 74/1/6
f 323/1/6 322/1/6 77/1/6
f 77/1/6 322/1/6 78/1/6
f 326/1/6 325/1/6 80/1/6
f 80/1/6 325/1/6 81/1/6
f 249/1/6 248/1/6 3/1/6
f 3/1/6 248/1/6 4/1/6
f 378/1/6 377/1/6 132/1/6
f 132/1/6 377/1/6 133/1/6
f 419/1/6 418/1/6 173/1/6
f 173/1/6 418/1/6 174/1/6
f 423/1/6 420/1/6 177/1/6
f 177/1/6 420/1/6 172/1/6
f 256/1/6 250/1/6 11/1/6
f 11/1/6 250/1/6 2/1/6
f 382/1/6 379/1/6 136/1/6
f 136/1/6 379/1/6 131/1/6
f 263/1/6 257/1/6 17/1/6
f 17/1/6 257/1/6 10/1/6
f 426/1/6 424/1/6 181/1/6
f 181/1/6 424/1/6 176/1/6
f 386/1/6 383/1/6 140/1/6
f 140/1/6 383/1/6 135/1/6
f 430/1/6 427/1/6 184/1/6
f 184/1/6 427/1/6 180/1/6
f 270/1/6 264/1/6 24/1/6
f 24/1/6 264/1/6 16/1/6
f 334/1/6 327/1/6 88/1/6
f 88/1/6 327/1/6 79/1/6
f 390/1/6 387/1/6 144/1/6
f 144/1/6 387/1/6 139/1/6
f 280/1/6 271/1/6 35/1/6
f 35/1/6 271/1/6 23/1/6
f 400/1/6 391/1/6 155/1/6
f 155/1/6 391/1/6 143/1/6
f 443/1/6 431/1/6 198/1/6
f 198/1/6 431/1/6 183/1/6
f 286/1/6 281/1/6 41/1/6
f 41/1/6 281/1/6 34/1/6
f 456/1/6 444/1/6 211/1/6
f 211/1/6 444/1/6 197/1/6
f 406/1/6 401/1/6 161/1/6
f 161/1/6 401/1/6 154/1/6
f 467/1/6 457/1/6 221/1/6
f 221/1/6 457/1/6 210/1/6
f 293/1/6 287/1/6 47/1/6
f 47/1/6 287/1/6 40/1/6
f 336/1/6 335/1/6 90/1/6
f 90/1/6 335/1/6 87/1/6
f 300/1/6 294/1/6 54/1/6
f 54/1/6 294/1/6 46/1/6
f 338/1/6 337/1/6 92/1/6
f 92/1/6 337/1/6 93/1/6
f 481/1/6 468/1/6 235/1/6
f 235/1/6 468/1/6 220/1/6
f 413/1/6 407/1/6 167/1/6
f 167/1/6 407/1/6 160/1/6
f 330/1/6 340/1/6 84/1/6
f 84/1/6 340/1/6 95/1/6
f 402/1/6 415/1/6 156/1/6
f 156/1/6 415/1/6 170/1/6
f 392/1/6 403/1/6 146/1/6
f 146/1/6 403/1/6 158/1/6
f 394/1/6 393/1/6 148/1/6
f 148/1/6 393/1/6 149/1/6
f 397/1/6 396/1/6 151/1/6
f 151/1/6 396/1/6 152/1/6
f 485/1/6 484/1/6 239/1/6
f 239/1/6 484/1/6 240/1/6
f 471/1/6 487/1/6 225/1/6
f 225/1/6 487/1/6 242/1/6
f 311/1/6 315/1/6 65/1/6
f 65/1/6 315/1/6 70/1/6
f 445/1/6 473/1/6 199/1/6
f 199/1/6 473/1/6 228/1/6
f 308/1/6 312/1/6 62/1/6
f 62/1/6 312/1/6 67/1/6
f 447/1/6 446/1/6 201/1/6
f 201/1/6 446/1/6 202/1/6
f 305/1/6 309/1/6 59/1/6
f 59/1/6 309/1/6 64/1/6
f 302/1/6 306/1/6 56/1/6
f 56/1/6 306/1/6 61/1/6
f 372/1/6 371/1/6 126/1/6
f 126/1/6 371/1/6 127/1/6
f 434/1/6 449/1/6 188/1/6
f 188/1/6 449/1/6 204/1/6
f 295/1/6 303/1/6 49/1/6
f 49/1/6 303/1/6 58/1/6
f 366/1/6 374/1/6 120/1/6
f 120/1/6 374/1/6 129/1/6
f 437/1/6 436/1/6 191/1/6
f 191/1/6 436/1/6 192/1/6
f 288/1/6 296/1/6 42/1/6
f 42/1/6 296/1/6 51/1/6
f 282/1/6 289/1/6 36/1/6
f 36/1/6 289/1/6 44/1/6
f 360/1/6 368/1/6 114/1/6
f 114/1/6 368/1/6 123/1/6
f 440/1/6 439/1/6 194/1/6
f 194/1/6 439/1/6 195/1/6
f 272/1/6 283/1/6 26/1/6
f 26/1/6 283/1/6 38/1/6
f 353/1/6 362/1/6 107/1/6
f 107/1/6 362/1/6 117/1/6
f 274/1/6 273/1/6 28/1/6
f 28/1/6 273/1/6 29/1/6
f 356/1/6 355/1/6 110/1/6
f 110/1/6 355/1/6 111/1/6
f 453/1/6 441/1/6 207/1/6
f 207/1/6 441/1/6 193/1/6
f 277/1/6 276/1/6 31/1/6
f 31/1/6 276/1/6 32/1/6
f 463/1/6 454/1/6 217/1/6
f 217/1/6 454/1/6 206/1/6
f 251/1/6 266/1/6 5/1/6
f 5/1/6 266/1/6 21/1/6
f 477/1/6 464/1/6 231/1/6
f 231/1/6 464/1/6 216/1/6
f 253/1/6 252/1/6 7/1/6
f 7/1/6 252/1/6 8/1/6
f 344/1/6 349/1/6 98/1/6
f 98/1/6 349/1/6 104/1/6
f 491/1/6 478/1/6 245/1/6
f 245/1/6 478/1/6 230/1/6
f 495/1/1 496/1/1 498/1/1
f 498/1/1 496/1/1 497/1/1
f 499/1/1 500/1/1 502/1/1
f 502/1/1 500/1/1 501/1/1
f 503/1/1 504/1/1 500/1/1
f 500/1/1 504/1/1 505/1/1
f 506/1/1 507/1/1 509/1/1
f 509/1/1 507/1/1 508/1/1
f 510/1/1 511/1/1 507/1/1
f 507/1/1 511/1/1 512/1/1
f 97/1/1 513/1/1 98/1/1
f 98/1/1 513/1/1 514/1/1
f 515/1/1 516/1/1 518/1/1
f 518/1/1 516/1/1 517/1/1
f 519/1/1 520/1/1 522/1/1
f 522/1/1 520/1/1 521/1/1
f 520/1/1 523/1/1 524/1/1
f 524/1/1 523/1/1 518/1/1
f 525/1/1 526/1/1 528/1/1
f 528/1/1 526/1/1 527/1/1
f 526/1/1 529/1/1 530/1/1
f 530/1/1 529/1/1 522/1/1
f 531/1/1 532/1/1 533/1/1
f 533/1/1 532/1/1 528/1/1
f 534/1/1 535/1/1 537/1/1
f 537/1/1 535/1/1 536/1/1
f 538/1/1 539/1/1 541/1/1
f 541/1/1 539/1/1 540/1/1
f 539/1/1 542/1/1 544/1/1
f 544/1/1 542/1/1 543/1/1
f 545/1/1 546/1/1 548/1/1
f 548/1/1 546/1/1 547/1/1
f 546/1/1 549/1/1 550/1/1
f 550/1/1 549/1/1 541/1/1
f 244/1/1 551/1/1 245/1/1
f 245/1/1 551/1/1 552/1/1
f 553/1/2 554/1/2 556/1/2
f 556/1/2 554/1/2 555/1/2
f 557/1/2 558/1/2 560/1/2
f 560/1/2 558/1/2 559/1/2
f 561/1/2 560/1/2 563/1/2
f 563/1/2 560/1/2 562/1/2
f 564/1/2 565/1/2 567/1/2
f 567/1/2 565/1/2 566/1/2
f 568/1/2 567/1/2 570/1/2
f 570/1/2 567/1/2 569/1/2
f 345/1/2 344/1/2 572/1/2
f 572/1/2 344/1/2 571/1/2
f 573/1/2 574/1/2 576/1/2
f 576/1/2 574/1/2 575/1/2
f 577/1/2 578/1/2 580/1/2
f 580/1/2 578/1/2 579/1/2
f 580/1/2 581/1/2 582/1/2
f 582/1/2 581/1/2 574/1/2
f 583/1/2 584/1/2 586/1/2
f 586/1/2 584/1/2 585/1/2
f 586/1/2 587/1/2 588/1/2
f 588/1/2 587/1/2 578/1/2
f 589/1/2 590/1/2 591/1/2
f 591/1/2 590/1/2 584/1/2
f 592/1/2 593/1/2 595/1/2
f 595/1/2 593/1/2 594/1/2
f 596/1/2 597/1/2 599/1/2
f 599/1/2 597/1/2 598/1/2
f 599/1/2 600/1/2 602/1/2
f 602/1/2 600/1/2 601/1/2
f 603/1/2 604/1/2 606/1/2
f 606/1/2 604/1/2 605/1/2
f 606/1/2 607/1/2 608/1/2
f 608/1/2 607/1/2 597/1/2
f 492/1/2 491/1/2 610/1/2
f 610/1/2 491/1/2 609/1/2
f 497/1/3 496/1/3 555/1/3
f 555/1/3 496/1/3 556/1/3
f 501/1/3 500/1/3 559/1/3
f 559/1/3 500/1/3 560/1/3
f 505/1/3 504/1/3 562/1/3
f 562/1/3 504/1/3 563/1/3
f 508/1/3 507/1/3 566/1/3
f 566/1/3 507/1/3 567/1/3
f 512/1/3 511/1/3 569/1/3
f 569/1/3 511/1/3 570/1/3
f 514/1/3 513/1/3 571/1/3
f 571/1/3 513/1/3 572/1/3
f 517/1/3 516/1/3 575/1/3
f 575/1/3 516/1/3 576/1/3
f 515/1/3 523/1/3 573/1/3
f 573/1/3 523/1/3 582/1/3
f 519/1/3 529/1/3 577/1/3
f 577/1/3 529/1/3 588/1/3
f 525/1/3 532/1/3 583/1/3
f 583/1/3 532/1/3 591/1/3
f 531/1/3 535/1/3 589/1/3
f 589/1/3 535/1/3 595/1/3
f 534/1/3 542/1/3 592/1/3
f 592/1/3 542/1/3 602/1/3
f 538/1/3 549/1/3 596/1/3
f 596/1/3 549/1/3 608/1/3
f 552/1/3 551/1/3 609/1/3
f 609/1/3 551/1/3 610/1/3
f 498/1/4 554/1/4 495/1/4
f 495/1/4 554/1/4 553/1/4
f 502/1/4 558/1/4 499/1/4
f 499/1/4 558/1/4 557/1/4
f 500/1/4 560/1/4 503/1/4
f 503/1/4 560/1/4 561/1/4
f 509/1/4 565/1/4 506/1/4
f 506/1/4 565/1/4 564/1/4
f 507/1/4 567/1/4 510/1/4
f 510/1/4 567/1/4 568/1/4
f 524/1/4 581/1/4 521/1/4
f 521/1/4 581/1/4 579/1/4
f 530/1/4 587/1/4 527/1/4
f 527/1/4 587/1/4 585/1/4
f 533/1/4 590/1/4 536/1/4
f 536/1/4 590/1/4 594/1/4
f 537/1/4 593/1/4 543/1/4
f 543/1/4 593/1/4 601/1/4
f 544/1/4 600/1/4 540/1/4
f 540/1/4 600/1/4 598/1/4
f 550/1/4 607/1/4 547/1/4
f 547/1/4 607/1/4 605/1/4
f 548/1/4 604/1/4 545/1/4
f 545/1/4 604/1/4 603/1/4
f 572/1/5 513/1/5 345/1/5
f 345/1/5 513/1/5 97/1/5
f 608/1/5 549/1/5 603/1/5
f 603/1/5 549/1/5 545/1/5
f 602/1/5 542/1/5 596/1/5
f 596/1/5 542/1/5 538/1/5
f 595/1/5 535/1/5 592/1/5
f 592/1/5 535/1/5 534/1/5
f 591/1/5 532/1/5 589/1/5
f 589/1/5 532/1/5 531/1/5
f 588/1/5 529/1/5 583/1/5
f 583/1/5 529/1/5 525/1/5
f 558/1/5 502/1/5 553/1/5
f 553/1/5 502/1/5 495/1/5
f 582/1/5 523/1/5 577/1/5
f 577/1/5 523/1/5 519/1/5
f 560/1/5 500/1/5 557/1/5
f 557/1/5 500/1/5 499/1/5
f 565/1/5 509/1/5 561/1/5
f 561/1/5 509/1/5 503/1/5
f 567/1/5 507/1/5 564/1/5
f 564/1/5 507/1/5 506/1/5
f 570/1/5 511/1/5 568/1/5
f 568/1/5 511/1/5 510/1/5
f 576/1/5 516/1/5 573/1/5
f 573/1/5 516/1/5 515/1/5
f 609/1/6 491/1/6 552/1/6
f 552/1/6 491/1/6 245/1/6
f 571/1/6 344/1/6 514/1/6
f 514/1/6 344/1/6 98/1/6
f 605/1/6 604/1/6 547/1/6
f 547/1/6 604/1/6 548/1/6
f 598/1/6 607/1/6 540/1/6
f 540/1/6 607/1/6 550/1/6
f 601/1/6 600/1/6 543/1/6
f 543/1/6 600/1/6 544/1/6
f 594/1/6 593/1/6 536/1/6
f 536/1/6 593/1/6 537/1/6
f 585/1/6 590/1/6 527/1/6
f 527/1/6 590/1/6 533/1/6
f 579/1/6 587/1/6 521/1/6
f 521/1/6 587/1/6 530/1/6
f 555/1/6 554/1/6 497/1/6
f 497/1/6 554/1/6 498/1/6
f 559/1/6 556/1/6 501/1/6
f 501/1/6 556/1/6 496/1/6
f 562/1/6 560/1/6 505/1/6
f 505/1/6 560/1/6 500/1/6
f 566/1/6 563/1/6 508/1/6
f 508/1/6 563/1/6 504/1/6
f 569/1/6 567/1/6 512/1/6
f 512/1/6 567/1/6 507/1/6
f 575/1/6 581/1/6 517/1/6
f 517/1/6 581/1/6 524/1/6
f 611/1/1 612/1/1 494/1/1
f 494/1/1 612/1/1 237/1/1
f 613/1/1 614/1/1 616/1/1
f 616/1/1 614/1/1 615/1/1
f 617/1/1 618/1/1 620/1/1
f 620/1/1 618/1/1 619/1/1
f 618/1/1 621/1/1 622/1/1
f 622/1/1 621/1/1 616/1/1
f 623/1/1 624/1/1 626/1/1
f 626/1/1 624/1/1 625/1/1
f 624/1/1 627/1/1 628/1/1
f 628/1/1 627/1/1 620/1/1
f 629/1/1 630/1/1 632/1/1
f 632/1/1 630/1/1 631/1/1
f 630/1/1 633/1/1 634/1/1
f 634/1/1 633/1/1 626/1/1
f 635/1/1 636/1/1 638/1/1
f 638/1/1 636/1/1 637/1/1
f 639/1/1 640/1/1 642/1/1
f 642/1/1 640/1/1 641/1/1
f 640/1/1 643/1/1 644/1/1
f 644/1/1 643/1/1 632/1/1
f 645/1/1 646/1/1 636/1/1
f 636/1/1 646/1/1 647/1/1
f 646/1/1 648/1/1 649/1/1
f 649/1/1 648/1/1 642/1/1
f 650/1/1 651/1/1 653/1/1
f 653/1/1 651/1/1 652/1/1
f 654/1/1 655/1/1 651/1/1
f 651/1/1 655/1/1 656/1/1
f 657/1/2 493/1/2 658/1/2
f 658/1/2 493/1/2 483/1/2
f 659/1/2 660/1/2 662/1/2
f 662/1/2 660/1/2 661/1/2
f 663/1/2 664/1/2 666/1/2
f 666/1/2 664/1/2 665/1/2
f 666/1/2 667/1/2 668/1/2
f 668/1/2 667/1/2 660/1/2
f 669/1/2 670/1/2 672/1/2
f 672/1/2 670/1/2 671/1/2
f 672/1/2 673/1/2 674/1/2
f 674/1/2 673/1/2 664/1/2
f 675/1/2 676/1/2 678/1/2
f 678/1/2 676/1/2 677/1/2
f 678/1/2 679/1/2 680/1/2
f 680/1/2 679/1/2 670/1/2
f 681/1/2 682/1/2 684/1/2
f 684/1/2 682/1/2 683/1/2
f 685/1/2 686/1/2 688/1/2
f 688/1/2 686/1/2 687/1/2
f 688/1/2 689/1/2 690/1/2
f 690/1/2 689/1/2 676/1/2
f 691/1/2 684/1/2 693/1/2
f 693/1/2 684/1/2 692/1/2
f 693/1/2 694/1/2 695/1/2
f 695/1/2 694/1/2 686/1/2
f 696/1/2 697/1/2 699/1/2
f 699/1/2 697/1/2 698/1/2
f 700/1/2 699/1/2 702/1/2
f 702/1/2 699/1/2 701/1/2
f 237/1/3 612/1/3 483/1/3
f 483/1/3 612/1/3 658/1/3
f 615/1/3 614/1/3 661/1/3
f 661/1/3 614/1/3 662/1/3
f 613/1/3 621/1/3 659/1/3
f 659/1/3 621/1/3 668/1/3
f 617/1/3 627/1/3 663/1/3
f 663/1/3 627/1/3 674/1/3
f 623/1/3 633/1/3 669/1/3
f 669/1/3 633/1/3 680/1/3
f 637/1/3 636/1/3 683/1/3
f 683/1/3 636/1/3 684/1/3
f 629/1/3 643/1/3 675/1/3
f 675/1/3 643/1/3 690/1/3
f 639/1/3 648/1/3 685/1/3
f 685/1/3 648/1/3 695/1/3
f 652/1/3 651/1/3 698/1/3
f 698/1/3 651/1/3 699/1/3
f 656/1/3 655/1/3 701/1/3
f 701/1/3 655/1/3 702/1/3
f 494/1/4 493/1/4 611/1/4
f 611/1/4 493/1/4 657/1/4
f 622/1/4 667/1/4 619/1/4
f 619/1/4 667/1/4 665/1/4
f 628/1/4 673/1/4 625/1/4
f 625/1/4 673/1/4 671/1/4
f 634/1/4 679/1/4 631/1/4
f 631/1/4 679/1/4 677/1/4
f 644/1/4 689/1/4 641/1/4
f 641/1/4 689/1/4 687/1/4
f 638/1/4 682/1/4 635/1/4
f 635/1/4 682/1/4 681/1/4
f 649/1/4 694/1/4 647/1/4
f 647/1/4 694/1/4 692/1/4
f 636/1/4 684/1/4 645/1/4
f 645/1/4 684/1/4 691/1/4
f 653/1/4 697/1/4 650/1/4
f 650/1/4 697/1/4 696/1/4
f 651/1/4 699/1/4 654/1/4
f 654/1/4 699/1/4 700/1/4
f 699/1/5 651/1/5 696/1/5
f 696/1/5 651/1/5 650/1/5
f 702/1/5 655/1/5 700/1/5
f 700/1/5 655/1/5 654/1/5
f 684/1/5 636/1/5 681/1/5
f 681/1/5 636/1/5 635/1/5
f 658/1/5 612/1/5 657/1/5
f 657/1/5 612/1/5 611/1/5
f 695/1/5 648/1/5 691/1/5
f 691/1/5 648/1/5 645/1/5
f 690/1/5 643/1/5 685/1/5
f 685/1/5 643/1/5 639/1/5
f 680/1/5 633/1/5 675/1/5
f 675/1/5 633/1/5 629/1/5
f 674/1/5 627/1/5 669/1/5
f 669/1/5 627/1/5 623/1/5
f 668/1/5 621/1/5 663/1/5
f 663/1/5 621/1/5 617/1/5
f 662/1/5 614/1/5 659/1/5
f 659/1/5 614/1/5 613/1/5
f 698/1/6 697/1/6 652/1/6
f 652/1/6 697/1/6 653/1/6
f 701/1/6 699/1/6 656/1/6
f 656/1/6 699/1/6 651/1/6
f 683/1/6 682/1/6 637/1/6
f 637/1/6 682/1/6 638/1/6
f 692/1/6 684/1/6 647/1/6
f 647/1/6 684/1/6 636/1/6
f 483/1/6 482/1/6 237/1/6
f 237/1/6 482/1/6 234/1/6
f 687/1/6 694/1/6 641/1/6
f 641/1/6 694/1/6 649/1/6
f 677/1/6 689/1/6 631/1/6
f 631/1/6 689/1/6 644/1/6
f 671/1/6 679/1/6 625/1/6
f 625/1/6 679/1/6 634/1/6
f 665/1/6 673/1/6 619/1/6
f 619/1/6 673/1/6 628/1/6
f 661/1/6 667/1/6 615/1/6
f 615/1/6 667/1/6 622/1/6
f 703/1/1 704/1/1 244/1/1
f 244/1/1 704/1/1 705/1/1
f 706/1/1 707/1/1 709/1/1
f 709/1/1 707/1/1 708/1/1
f 710/1/1 711/1/1 713/1/1
f 713/1/1 711/1/1 712/1/1
f 714/1/1 715/1/1 717/1/1
f 717/1/1 715/1/1 716/1/1
f 718/1/1 719/1/1 721/1/1
f 721/1/1 719/1/1 720/1/1
f 722/1/1 723/1/1 725/1/1
f 725/1/1 723/1/1 724/1/1
f 726/1/1 727/1/1 728/1/1
f 728/1/1 727/1/1 722/1/1
f 729/1/1 730/1/1 723/1/1
f 723/1/1 730/1/1 731/1/1
f 732/1/1 733/1/1 735/1/1
f 735/1/1 733/1/1 734/1/1
f 733/1/1 736/1/1 737/1/1
f 737/1/1 736/1/1 728/1/1
f 738/1/2 492/1/2 740/1/2
f 740/1/2 492/1/2 739/1/2
f 741/1/2 742/1/2 744/1/2
f 744/1/2 742/1/2 743/1/2
f 745/1/2 746/1/2 748/1/2
f 748/1/2 746/1/2 747/1/2
f 749/1/2 750/1/2 752/1/2
f 752/1/2 750/1/2 751/1/2
f 753/1/2 754/1/2 756/1/2
f 756/1/2 754/1/2 755/1/2
f 757/1/2 758/1/2 760/1/2
f 760/1/2 758/1/2 759/1/2
f 761/1/2 762/1/2 763/1/2
f 763/1/2 762/1/2 757/1/2
f 764/1/2 760/1/2 766/1/2
f 766/1/2 760/1/2 765/1/2
f 767/1/2 768/1/2 770/1/2
f 770/1/2 768/1/2 769/1/2
f 770/1/2 771/1/2 772/1/2
f 772/1/2 771/1/2 762/1/2
f 705/1/3 704/1/3 739/1/3
f 739/1/3 704/1/3 740/1/3
f 708/1/3 707/1/3 743/1/3
f 743/1/3 707/1/3 744/1/3
f 712/1/3 711/1/3 747/1/3
f 747/1/3 711/1/3 748/1/3
f 716/1/3 715/1/3 751/1/3
f 751/1/3 715/1/3 752/1/3
f 720/1/3 719/1/3 755/1/3
f 755/1/3 719/1/3 756/1/3
f 724/1/3 723/1/3 759/1/3
f 759/1/3 723/1/3 760/1/3
f 722/1/3 727/1/3 757/1/3
f 757/1/3 727/1/3 763/1/3
f 731/1/3 730/1/3 765/1/3
f 765/1/3 730/1/3 766/1/3
f 726/1/3 736/1/3 761/1/3
f 761/1/3 736/1/3 772/1/3
f 244/1/4 492/1/4 703/1/4
f 703/1/4 492/1/4 738/1/4
f 709/1/4 742/1/4 706/1/4
f 706/1/4 742/1/4 741/1/4
f 713/1/4 746/1/4 710/1/4
f 710/1/4 746/1/4 745/1/4
f 717/1/4 750/1/4 714/1/4
f 714/1/4 750/1/4 749/1/4
f 721/1/4 754/1/4 718/1/4
f 718/1/4 754/1/4 753/1/4
f 725/1/4 758/1/4 722/1/4
f 722/1/4 758/1/4 757/1/4
f 737/1/4 771/1/4 734/1/4
f 734/1/4 771/1/4 769/1/4
f 723/1/4 760/1/4 729/1/4
f 729/1/4 760/1/4 764/1/4
f 735/1/4 768/1/4 732/1/4
f 732/1/4 768/1/4 767/1/4
f 742/1/5 709/1/5 738/1/5
f 738/1/5 709/1/5 703/1/5
f 746/1/5 713/1/5 741/1/5
f 741/1/5 713/1/5 706/1/5
f 772/1/5 736/1/5 767/1/5
f 767/1/5 736/1/5 732/1/5
f 763/1/5 727/1/5 761/1/5
f 761/1/5 727/1/5 726/1/5
f 750/1/5 717/1/5 745/1/5
f 745/1/5 717/1/5 710/1/5
f 754/1/5 721/1/5 749/1/5
f 749/1/5 721/1/5 714/1/5
f 756/1/5 719/1/5 753/1/5
f 753/1/5 719/1/5 718/1/5
f 760/1/5 723/1/5 757/1/5
f 757/1/5 723/1/5 722/1/5
f 766/1/5 730/1/5 764/1/5
f 764/1/5 730/1/5 729/1/5
f 769/1/6 768/1/6 734/1/6
f 734/1/6 768/1/6 735/1/6
f 739/1/6 610/1/6 705/1/6
f 705/1/6 610/1/6 551/1/6
f 743/1/6 740/1/6 708/1/6
f 708/1/6 740/1/6 704/1/6
f 757/1/6 771/1/6 722/1/6
f 722/1/6 771/1/6 737/1/6
f 747/1/6 744/1/6 712/1/6
f 712/1/6 744/1/6 707/1/6
f 751/1/6 748/1/6 716/1/6
f 716/1/6 748/1/6 711/1/6
f 755/1/6 752/1/6 720/1/6
f 720/1/6 752/1/6 715/1/6
f 759/1/6 758/1/6 724/1/6
f 724/1/6 758/1/6 725/1/6
f 765/1/6 760/1/6 731/1/6
f 731/1/6 760/1/6 723/1/6
