# Vengi binary mesh normalized for Tanks of Freedom II

mtllib ../../materials/vox_grass.mtl
o wall_straight2

v 0.5 4 3.9
v 0.3 4 3.9
v 0.3 4 4
v 0.5 4 4
v -0.3 4 3.9
v -0.5 4 3.9
v -0.5 4 4
v -0.3 4 4
v 0.5 4.2 3.4
v 0.3 4.2 3.4
v 0.3 4.2 3.9
v 0.5 4.2 3.9
v -0.3 4.2 3.4
v -0.5 4.2 3.4
v -0.5 4.2 3.9
v -0.3 4.2 3.9
v 0.5 4 3.3
v 0.3 4 3.3
v 0.3 4 3.4
v 0.5 4 3.4
v -0.3 4 3.3
v -0.5 4 3.3
v -0.5 4 3.4
v -0.3 4 3.4
v 0.5 4.2 2.9
v 0.3 4.2 2.9
v 0.3 4.2 3.3
v 0.5 4.2 3.3
v -0.3 4.2 2.9
v -0.5 4.2 2.9
v -0.5 4.2 3.3
v -0.3 4.2 3.3
v 0.5 4 2.8
v 0.3 4 2.8
v 0.3 4 2.9
v 0.5 4 2.9
v -0.3 4 2.8
v -0.5 4 2.8
v -0.5 4 2.9
v -0.3 4 2.9
v 0.5 4.2 2.4
v 0.3 4.2 2.4
v 0.3 4.2 2.8
v 0.5 4.2 2.8
v -0.3 4.2 2.4
v -0.5 4.2 2.4
v -0.5 4.2 2.8
v -0.3 4.2 2.8
v 0.5 4 2.3
v 0.3 4 2.3
v 0.3 4 2.4
v 0.5 4 2.4
v -0.3 4 2.3
v -0.5 4 2.3
v -0.5 4 2.4
v -0.3 4 2.4
v 0.5 4.2 1.9
v 0.3 4.2 1.9
v 0.3 4.2 2.3
v 0.5 4.2 2.3
v -0.3 4.2 1.9
v -0.5 4.2 1.9
v -0.5 4.2 2.3
v -0.3 4.2 2.3
v 0.5 4 1.8
v 0.3 4 1.8
v 0.3 4 1.9
v 0.5 4 1.9
v -0.3 4 1.8
v -0.5 4 1.8
v -0.5 4 1.9
v -0.3 4 1.9
v 0.5 4.2 1.4
v 0.3 4.2 1.4
v 0.3 4.2 1.8
v 0.5 4.2 1.8
v -0.3 4.2 1.4
v -0.5 4.2 1.4
v -0.5 4.2 1.8
v -0.3 4.2 1.8
v 0.5 4 1.3
v 0.3 4 1.3
v 0.3 4 1.4
v 0.5 4 1.4
v -0.3 4 1.3
v -0.5 4 1.3
v -0.5 4 1.4
v -0.3 4 1.4
v 0.5 4.2 0.9
v 0.3 4.2 0.9
v 0.3 4.2 1.3
v 0.5 4.2 1.3
v -0.3 4.2 0.9
v -0.5 4.2 0.9
v -0.5 4.2 1.3
v -0.3 4.2 1.3
v 0.5 4 0.8
v 0.3 4 0.8
v 0.3 4 0.9
v 0.5 4 0.9
v -0.3 4 0.8
v -0.5 4 0.8
v -0.5 4 0.9
v -0.3 4 0.9
v 0.5 4.2 0.2
v 0.3 4.2 0.2
v 0.3 4.2 0.8
v 0.5 4.2 0.8
v -0.3 4.2 0.2
v -0.5 4.2 0.2
v -0.5 4.2 0.8
v -0.3 4.2 0.8
v 0.5 4 0.1
v 0.3 4 0.1
v 0.3 4 0.2
v 0.5 4 0.2
v -0.3 4 0.1
v -0.5 4 0.1
v -0.5 4 0.2
v -0.3 4 0.2
v 0.5 4.2 -0.3
v 0.3 4.2 -0.3
v 0.3 4.2 0.1
v 0.5 4.2 0.1
v -0.3 4.2 -0.3
v -0.5 4.2 -0.3
v -0.5 4.2 0.1
v -0.3 4.2 0.1
v 0.5 4 -0.4
v 0.3 4 -0.4
v 0.3 4 -0.3
v 0.5 4 -0.3
v -0.3 4 -0.4
v -0.5 4 -0.4
v -0.5 4 -0.3
v -0.3 4 -0.3
v 0.5 4.2 -0.8
v 0.3 4.2 -0.8
v 0.3 4.2 -0.4
v 0.5 4.2 -0.4
v -0.3 4.2 -0.8
v -0.5 4.2 -0.8
v -0.5 4.2 -0.4
v -0.3 4.2 -0.4
v 0.5 4 -0.9
v 0.3 4 -0.9
v 0.3 4 -0.8
v 0.5 4 -0.8
v -0.3 4 -0.9
v -0.5 4 -0.9
v -0.5 4 -0.8
v -0.3 4 -0.8
v 0.5 4.2 -1.3
v 0.3 4.2 -1.3
v 0.3 4.2 -0.9
v 0.5 4.2 -0.9
v -0.3 4.2 -1.3
v -0.5 4.2 -1.3
v -0.5 4.2 -0.9
v -0.3 4.2 -0.9
v 0.5 4 -1.4
v 0.3 4 -1.4
v 0.3 4 -1.3
v 0.5 4 -1.3
v -0.3 4 -1.4
v -0.5 4 -1.4
v -0.5 4 -1.3
v -0.3 4 -1.3
v 0.5 4.2 -1.8
v 0.3 4.2 -1.8
v 0.3 4.2 -1.4
v 0.5 4.2 -1.4
v -0.3 4.2 -1.8
v -0.5 4.2 -1.8
v -0.5 4.2 -1.4
v -0.3 4.2 -1.4
v 0.5 4 -1.9
v 0.3 4 -1.9
v 0.3 4 -1.8
v 0.5 4 -1.8
v -0.3 4 -1.9
v -0.5 4 -1.9
v -0.5 4 -1.8
v -0.3 4 -1.8
v 0.5 4.2 -2.2
v 0.3 4.2 -2.2
v 0.3 4.2 -1.9
v 0.5 4.2 -1.9
v 0.3 3.8 -2.2
v -0.3 3.8 -2.2
v -0.3 3.8 4
v 0.3 3.8 4
v -0.3 4.2 -2.2
v -0.5 4.2 -2.2
v -0.5 4.2 -1.9
v -0.3 4.2 -1.9
v 0.5 3.8 -2.2
v 0.5 3.8 4
v 0.4 3.8 4
v 0.4 3.8 -2.2
v 0.4 0 -2.2
v 0.4 0 4
v -0.4 0 4
v -0.4 0 -2.2
v -0.4 3.8 -2.2
v -0.4 3.8 4
v -0.5 3.8 4
v -0.5 3.8 -2.2
v -0.4 0.1 3.6
v -0.4 0.1 -2.2
v -0.4 0 3.6
v -0.4 0.2 3.6
v -0.4 0.2 3.3
v -0.4 0.1 3.3
v -0.4 0.2 3.2
v -0.4 0.2 2.6
v -0.4 0.1 2.6
v -0.4 0.1 3.2
v -0.4 0.2 2.5
v -0.4 0.1 2.5
v -0.4 0.2 2.1
v -0.4 0.2 1.8
v -0.4 0.1 1.8
v -0.4 0.1 2.1
v -0.4 0.2 1.7
v -0.4 0.2 1.1
v -0.4 0.1 1.1
v -0.4 0.1 1.7
v -0.4 0.2 0.9
v -0.4 0.1 0.9
v -0.4 0.3 3.5
v -0.4 0.3 3.3
v -0.4 0.2 3.5
v -0.4 0.3 2.8
v -0.4 0.3 2.7
v -0.4 0.2 2.7
v -0.4 0.2 2.8
v -0.4 0.3 2
v -0.4 0.3 1.8
v -0.4 0.2 2
v -0.4 0.3 1.3
v -0.4 0.3 1.2
v -0.4 0.2 1.2
v -0.4 0.2 1.3
v -0.4 0.3 0.5
v -0.4 0.3 -2.2
v -0.4 0.1 0.5
v -0.4 0.4 3.8
v -0.4 0.4 3.6
v -0.4 0 3.8
v -0.4 0.4 3.5
v -0.4 0.4 3.2
v -0.4 0.4 3
v -0.4 0.2 3
v -0.4 0.4 2.3
v -0.4 0.4 2.1
v -0.4 0.1 2.3
v -0.4 0.4 2
v -0.4 0.4 1.7
v -0.4 0.4 1.5
v -0.4 0.2 1.5
v -0.4 0.4 0.5
v -0.4 0.4 0.2
v -0.4 0.3 0.2
v -0.4 0.4 -0.3
v -0.4 0.4 -0.4
v -0.4 0.3 -0.4
v -0.4 0.3 -0.3
v -0.4 0.4 -0.7
v -0.4 0.4 -0.8
v -0.4 0.3 -0.8
v -0.4 0.3 -0.7
v -0.4 0.4 -1
v -0.4 0.4 -1.3
v -0.4 0.3 -1.3
v -0.4 0.3 -1
v -0.4 0.4 -1.8
v -0.4 0.4 -1.9
v -0.4 0.3 -1.9
v -0.4 0.3 -1.8
v -0.4 0.5 3.8
v -0.4 0.5 3.5
v -0.4 0.5 3
v -0.4 0.5 2.8
v -0.4 0.5 2.7
v -0.4 0.5 2.5
v -0.4 0.5 2.3
v -0.4 0.5 2
v -0.4 0.5 1.5
v -0.4 0.5 1.3
v -0.4 0.5 1.2
v -0.4 0.5 1
v -0.4 0.5 0.9
v -0.4 0.2 1
v -0.4 0.5 0.5
v -0.4 0.5 0.2
v -0.4 0.5 -0.3
v -0.4 0.5 -0.4
v -0.4 0.5 -0.7
v -0.4 0.5 -0.8
v -0.4 0.5 -1
v -0.4 0.5 -1.3
v -0.4 0.5 -1.8
v -0.4 0.5 -1.9
v -0.4 0.5 -2.2
v -0.4 0.6 3.7
v -0.4 0.6 3.6
v -0.4 0.5 3.6
v -0.4 0.5 3.7
v -0.4 0.6 2.5
v -0.4 0.6 2.4
v -0.4 0.5 2.4
v -0.4 0.6 2.2
v -0.4 0.6 2.1
v -0.4 0.5 2.1
v -0.4 0.5 2.2
v -0.4 0.6 1
v -0.4 0.6 0.8
v -0.4 0.5 0.8
v -0.4 0.6 0.7
v -0.4 0.5 0.7
v -0.4 0.6 0.2
v -0.4 0.6 0
v -0.4 0.5 0
v -0.4 0.6 -1.3
v -0.4 0.6 -1.5
v -0.4 0.5 -1.5
v -0.4 0.7 3
v -0.4 0.7 2.7
v -0.4 0.7 1.5
v -0.4 0.7 1.2
v -0.4 0.7 0.8
v -0.4 0.7 0.7
v -0.4 0.7 0.4
v -0.4 0.5 0.4
v -0.4 0.7 -0.1
v -0.4 0.7 -0.3
v -0.4 0.5 -0.1
v -0.4 0.7 -0.4
v -0.4 0.7 -0.6
v -0.4 0.5 -0.6
v -0.4 0.7 -0.8
v -0.4 0.7 -1.1
v -0.4 0.5 -1.1
v -0.4 0.7 -1.6
v -0.4 0.7 -1.8
v -0.4 0.5 -1.6
v -0.4 0.7 -1.9
v -0.4 0.7 -2.1
v -0.4 0.5 -2.1
v -0.4 0.8 3.3
v -0.4 0.8 3.2
v -0.4 0.8 3
v -0.4 0.8 1.8
v -0.4 0.8 1.7
v -0.4 0.8 1.5
v -0.4 0.8 0.3
v -0.4 0.8 0.2
v -0.4 0.5 0.3
v -0.4 0.8 -0.1
v -0.4 0.8 -0.3
v -0.4 0.8 -0.5
v -0.4 0.8 -0.6
v -0.4 0.7 -0.5
v -0.4 0.8 -0.7
v -0.4 0.8 -1.2
v -0.4 0.8 -1.3
v -0.4 0.5 -1.2
v -0.4 0.8 -1.6
v -0.4 0.8 -1.8
v -0.4 0.8 -2
v -0.4 0.8 -2.1
v -0.4 0.7 -2
v -0.4 0.8 -2.2
v -0.4 0.9 0.2
v -0.4 0.9 0
v -0.4 0.9 -1.3
v -0.4 0.9 -1.5
v -0.4 1 3.6
v -0.4 1 3.5
v -0.4 1 3.3
v -0.4 1 3.1
v -0.4 0.8 3.1
v -0.4 1 2.1
v -0.4 1 2
v -0.4 1 1.8
v -0.4 1 1.6
v -0.4 0.8 1.6
v -0.4 1 0.3
v -0.4 1 0.2
v -0.4 1 -0.6
v -0.4 1 -0.7
v -0.4 1 -1.2
v -0.4 1 -1.3
v -0.4 1 -2.1
v -0.4 1 -2.2
v -0.4 1.1 0.2
v -0.4 1.1 0
v -0.4 1.1 -0.5
v -0.4 1.1 -0.6
v -0.4 1.1 -1.3
v -0.4 1.1 -1.5
v -0.4 1.1 -2
v -0.4 1.1 -2.1
v -0.4 1.2 3.8
v -0.4 1.2 3.7
v -0.4 1.2 3.2
v -0.4 1.2 3.1
v -0.4 1 3.2
v -0.4 1.2 3
v -0.4 1.2 2.7
v -0.4 1.2 2.5
v -0.4 1.2 2.4
v -0.4 1.2 2.2
v -0.4 1.2 1.7
v -0.4 1.2 1.6
v -0.4 1 1.7
v -0.4 1.2 1.5
v -0.4 1.2 1.2
v -0.4 1.2 1
v -0.4 1.2 0.8
v -0.4 1.2 -0.7
v -0.4 1.2 -0.8
v -0.4 1.3 3.6
v -0.4 1.3 3.4
v -0.4 1 3.4
v -0.4 1.3 3.3
v -0.4 1.3 3.2
v -0.4 1.3 3
v -0.4 1.3 2.8
v -0.4 1.2 2.8
v -0.4 1.3 2.5
v -0.4 1.3 2.2
v -0.4 1.3 2.1
v -0.4 1.3 1.9
v -0.4 1 1.9
v -0.4 1.3 1.8
v -0.4 1.3 1.7
v -0.4 1.3 1.5
v -0.4 1.3 1.3
v -0.4 1.2 1.3
v -0.4 1.3 1
v -0.4 1.3 0.8
v -0.4 1.3 0.4
v -0.4 1.3 0.3
v -0.4 1.3 0.2
v -0.4 1.3 -0.5
v -0.4 1.3 -0.6
v -0.4 1.3 -0.7
v -0.4 1.3 -0.8
v -0.4 1.3 -1.1
v -0.4 1.3 -1.2
v -0.4 1.3 -1.3
v -0.4 1.3 -2
v -0.4 1.3 -2.1
v -0.4 1.4 3.8
v -0.4 1.4 3.7
v -0.4 1.4 3.3
v -0.4 1.4 3.2
v -0.4 1.4 3
v -0.4 1.4 2.7
v -0.4 1.4 2.5
v -0.4 1.4 2.3
v -0.4 1.3 2.3
v -0.4 1.4 2.2
v -0.4 1.4 1.8
v -0.4 1.4 1.7
v -0.4 1.4 1.5
v -0.4 1.4 1.2
v -0.4 1.4 1
v -0.4 1.4 0.8
v -0.4 1.4 0.6
v -0.4 1.4 0.4
v -0.4 0.7 0.6
v -0.4 1.4 0.2
v -0.4 1.4 -0.8
v -0.4 1.4 -1.1
v -0.4 1.4 -1.3
v -0.4 1.5 3.5
v -0.4 1.5 3.4
v -0.4 1.3 3.5
v -0.4 1.5 3.3
v -0.4 1.5 2
v -0.4 1.5 1.9
v -0.4 1.3 2
v -0.4 1.5 1.8
v -0.4 1.5 0.7
v -0.4 1.5 0.6
v -0.4 1.5 0.3
v -0.4 1.5 0.2
v -0.4 1.4 0.3
v -0.4 1.5 0
v -0.4 1.5 -0.1
v -0.4 1.5 -0.3
v -0.4 1.5 -1.2
v -0.4 1.5 -1.3
v -0.4 1.4 -1.2
v -0.4 1.5 -1.5
v -0.4 1.5 -1.6
v -0.4 1.5 -1.8
v -0.4 1.6 3.9
v -0.4 1.6 3.8
v -0.4 0 3.9
v -0.4 1.6 3.7
v -0.4 1.6 3.6
v -0.4 1.6 3.1
v -0.4 1.6 3
v -0.4 1.4 3.1
v -0.4 1.6 2.7
v -0.4 1.6 2.4
v -0.4 1.4 2.4
v -0.4 1.6 2.2
v -0.4 1.6 2.1
v -0.4 1.6 1.6
v -0.4 1.6 1.5
v -0.4 1.4 1.6
v -0.4 1.6 1.2
v -0.4 1.6 0.9
v -0.4 1.4 0.9
v -0.4 1.6 0.6
v -0.4 1.6 0.5
v -0.4 1.4 0.5
v -0.4 1.6 -0.8
v -0.4 1.6 -1
v -0.4 1.4 -1
v -0.4 1.7 3.9
v -0.4 1.7 3.6
v -0.4 1.7 3.5
v -0.4 1.7 3.3
v -0.4 1.7 3.2
v -0.4 1.7 3.1
v -0.4 1.7 2.2
v -0.4 1.7 2.1
v -0.4 1.7 2
v -0.4 1.7 1.8
v -0.4 1.7 1.7
v -0.4 1.7 1.6
v -0.4 1.7 0.7
v -0.4 1.7 0.6
v -0.4 1.7 0
v -0.4 1.7 -0.2
v -0.4 1.5 -0.2
v -0.4 1.7 -0.4
v -0.4 1.7 -0.5
v -0.4 1.7 -1.5
v -0.4 1.7 -1.7
v -0.4 1.5 -1.7
v -0.4 1.7 -1.9
v -0.4 1.7 -2
v -0.4 1.8 3.8
v -0.4 1.8 3.7
v -0.4 1.7 3.7
v -0.4 1.7 3.8
v -0.4 1.8 3.1
v -0.4 1.8 3
v -0.4 1.8 2.7
v -0.4 1.8 2.4
v -0.4 1.8 1.6
v -0.4 1.8 1.5
v -0.4 1.8 1.2
v -0.4 1.8 0.9
v -0.4 1.8 0.1
v -0.4 1.8 0
v -0.4 1.1 0.1
v -0.4 1.8 -0.2
v -0.4 1.8 -0.5
v -0.4 1.8 -0.6
v -0.4 1.8 -0.7
v -0.4 1.8 -0.8
v -0.4 1.8 -1.4
v -0.4 1.8 -1.5
v -0.4 1.1 -1.4
v -0.4 1.8 -1.7
v -0.4 1.8 -2
v -0.4 1.8 -2.1
v -0.4 1.8 -2.2
v -0.4 1.9 3.2
v -0.4 1.9 3.1
v -0.4 1.9 2.7
v -0.4 1.9 2.6
v -0.4 1.8 2.6
v -0.4 1.9 1.7
v -0.4 1.9 1.6
v -0.4 1.9 1.2
v -0.4 1.9 1.1
v -0.4 1.8 1.1
v -0.4 1.9 0.1
v -0.4 1.9 -0.2
v -0.4 1.9 -0.4
v -0.4 1.9 -0.5
v -0.4 1.9 -0.8
v -0.4 1.9 -1.4
v -0.4 1.9 -1.7
v -0.4 1.9 -1.9
v -0.4 1.9 -2
v -0.4 1.9 -2.2
v -0.4 2 3.4
v -0.4 2 3.3
v -0.4 1.7 3.4
v -0.4 2 3.2
v -0.4 2 1.9
v -0.4 2 1.8
v -0.4 1.7 1.9
v -0.4 2 1.7
v -0.4 2 0.5
v -0.4 2 0.3
v -0.4 2 -1
v -0.4 2 -1.2
v -0.4 2.1 3.5
v -0.4 2.1 3.4
v -0.4 2.1 3.2
v -0.4 2.1 2
v -0.4 2.1 1.9
v -0.4 2.1 1.7
v -0.4 2.2 3.7
v -0.4 2.2 3.6
v -0.4 2.2 3.3
v -0.4 2.2 3.2
v -0.4 2.1 3.3
v -0.4 2.2 3.1
v -0.4 2.2 1.8
v -0.4 2.2 1.7
v -0.4 2.1 1.8
v -0.4 2.2 1.6
v -0.4 2.2 0.5
v -0.4 2.2 0.3
v -0.4 2.2 -1
v -0.4 2.2 -1.2
v -0.4 2.3 3.5
v -0.4 2.3 3.4
v -0.4 2.3 2.4
v -0.4 2.3 2.2
v -0.4 2.3 2.1
v -0.4 2.3 2
v -0.4 2.3 1.9
v -0.4 2.3 0.9
v -0.4 2.3 0.8
v -0.4 2.3 0.7
v -0.4 2.3 0.6
v -0.4 2.4 3.3
v -0.4 2.4 3.1
v -0.4 2.4 2.9
v -0.4 2.4 2.8
v -0.4 1.3 2.9
v -0.4 2.4 2.7
v -0.4 2.4 2.5
v -0.4 2.4 2.4
v -0.4 1.8 2.5
v -0.4 2.4 2.1
v -0.4 2.4 1.8
v -0.4 2.4 1.6
v -0.4 2.4 1.4
v -0.4 2.4 1.3
v -0.4 1.3 1.4
v -0.4 2.4 1.2
v -0.4 2.4 1
v -0.4 2.4 0.9
v -0.4 1.8 1
v -0.4 2.4 0.6
v -0.4 2.4 -0.3
v -0.4 2.4 -0.4
v -0.4 2.4 -0.8
v -0.4 2.4 -1.8
v -0.4 2.4 -1.9
v -0.4 2.4 -2.2
v -0.4 2.5 3.7
v -0.4 2.5 3.6
v -0.4 2.5 3.1
v -0.4 2.5 3
v -0.4 2.5 2.9
v -0.4 2.5 2.5
v -0.4 2.5 2.4
v -0.4 2.5 1.6
v -0.4 2.5 1.5
v -0.4 2.5 1.4
v -0.4 2.5 1
v -0.4 2.5 0.9
v -0.4 2.5 0.5
v -0.4 2.5 0.3
v -0.4 2.5 -0.5
v -0.4 2.5 -0.6
v -0.4 2.4 -0.6
v -0.4 2.4 -0.5
v -0.4 2.5 -1
v -0.4 2.5 -1.2
v -0.4 2.5 -2
v -0.4 2.5 -2.1
v -0.4 2.4 -2.1
v -0.4 2.4 -2
v -0.4 2.6 3.5
v -0.4 2.6 3.4
v -0.4 2.6 3.3
v -0.4 2.6 3.1
v -0.4 2.6 2.9
v -0.4 2.6 2.7
v -0.4 2.6 2
v -0.4 2.6 1.9
v -0.4 2.6 1.8
v -0.4 2.6 1.6
v -0.4 2.6 1.4
v -0.4 2.6 1.2
v -0.4 2.6 0.5
v -0.4 2.6 0.4
v -0.4 2.5 0.4
v -0.4 2.6 0.1
v -0.4 2.6 -0.2
v -0.4 2.6 -0.3
v -0.4 2.6 -0.5
v -0.4 2.6 -0.6
v -0.4 2.6 -0.8
v -0.4 2.6 -1
v -0.4 2.6 -1.1
v -0.4 2.5 -1.1
v -0.4 2.6 -1.4
v -0.4 2.6 -1.7
v -0.4 2.6 -1.8
v -0.4 2.6 -2
v -0.4 2.6 -2.1
v -0.4 2.6 -2.2
v -0.4 2.7 3.3
v -0.4 2.7 3.2
v -0.4 2.6 3.2
v -0.4 2.7 3.1
v -0.4 2.7 2.9
v -0.4 2.7 2.3
v -0.4 2.7 2.1
v -0.4 2.4 2.3
v -0.4 2.7 1.8
v -0.4 2.7 1.7
v -0.4 2.6 1.7
v -0.4 2.7 1.6
v -0.4 2.7 1.4
v -0.4 2.7 0.8
v -0.4 2.7 0.6
v -0.4 2.4 0.8
v -0.4 2.7 0.1
v -0.4 2.7 -0.1
v -0.4 2.6 -0.1
v -0.4 2.7 -0.4
v -0.4 2.7 -0.5
v -0.4 2.6 -0.4
v -0.4 2.7 -0.6
v -0.4 2.7 -0.7
v -0.4 2.6 -0.7
v -0.4 2.7 -1.4
v -0.4 2.7 -1.6
v -0.4 2.6 -1.6
v -0.4 2.7 -1.9
v -0.4 2.7 -2
v -0.4 2.6 -1.9
v -0.4 2.7 -2.1
v -0.4 2.7 -2.2
v -0.4 2.8 3.8
v -0.4 2.8 3.7
v -0.4 2.8 3.6
v -0.4 2.8 3.4
v -0.4 2.8 3.3
v -0.4 2.8 2.8
v -0.4 2.8 2.7
v -0.4 2.6 2.8
v -0.4 2.8 2.6
v -0.4 2.8 2.3
v -0.4 2.8 2.2
v -0.4 2.7 2.2
v -0.4 2.8 1.9
v -0.4 2.8 1.8
v -0.4 2.8 1.3
v -0.4 2.8 1.2
v -0.4 2.6 1.3
v -0.4 2.8 1.1
v -0.4 2.8 0.8
v -0.4 2.8 0.7
v -0.4 2.7 0.7
v -0.4 2.8 -0.4
v -0.4 2.8 -0.5
v -0.4 2.8 -0.6
v -0.4 2.8 -1.9
v -0.4 2.8 -2
v -0.4 2.8 -2.1
v -0.4 2.9 3.5
v -0.4 2.9 3.4
v -0.4 2.9 2
v -0.4 2.9 1.9
v -0.4 3 3.8
v -0.4 3 3.6
v -0.4 3 2.8
v -0.4 3 2.6
v -0.4 3 1.3
v -0.4 3 1.1
v -0.4 3.1 3.5
v -0.4 3.1 3.4
v -0.4 3.1 3.3
v -0.4 3.1 3.2
v -0.4 3.1 2.5
v -0.4 3.1 2.4
v -0.4 3.1 2.3
v -0.4 3.1 2.2
v -0.4 3.1 2
v -0.4 3.1 1.9
v -0.4 3.1 1.8
v -0.4 3.1 1.7
v -0.4 3.1 1
v -0.4 3.1 0.9
v -0.4 3.1 0.8
v -0.4 3.1 0.7
v -0.4 3.1 0.5
v -0.4 3.1 0.4
v -0.4 3.1 0.3
v -0.4 3.1 0.2
v -0.4 3.1 0.1
v -0.4 3.1 0
v -0.4 3.1 -0.1
v -0.4 2.7 0
v -0.4 3.1 -0.2
v -0.4 3.1 -1
v -0.4 3.1 -1.1
v -0.4 3.1 -1.2
v -0.4 3.1 -1.3
v -0.4 3.1 -1.4
v -0.4 3.1 -1.5
v -0.4 3.1 -1.6
v -0.4 2.7 -1.5
v -0.4 3.1 -1.7
v -0.4 3.2 3.5
v -0.4 3.2 3.2
v -0.4 3.2 2
v -0.4 3.2 1.7
v -0.4 3.2 0
v -0.4 3.2 -0.2
v -0.4 3.2 -0.9
v -0.4 3.2 -1
v -0.4 1.6 -0.9
v -0.4 3.2 -1.5
v -0.4 3.2 -1.7
v -0.4 3.3 3.7
v -0.4 3.3 3.6
v -0.4 3 3.7
v -0.4 3.3 3.3
v -0.4 3.3 3.2
v -0.4 3.2 3.3
v -0.4 3.3 2.7
v -0.4 3.3 2.6
v -0.4 3 2.7
v -0.4 3.3 2.5
v -0.4 3.3 2.2
v -0.4 3.3 1.8
v -0.4 3.3 1.7
v -0.4 3.2 1.8
v -0.4 3.3 1.2
v -0.4 3.3 1.1
v -0.4 3 1.2
v -0.4 3.3 1
v -0.4 3.3 0.7
v -0.4 3.3 0.5
v -0.4 3.3 0.4
v -0.4 3.3 0.3
v -0.4 3.3 0.1
v -0.4 3.3 -0.9
v -0.4 3.3 -1
v -0.4 3.3 -1.1
v -0.4 3.3 -1.2
v -0.4 3.3 -1.4
v -0.4 3.4 3.7
v -0.4 3.4 3.6
v -0.4 3.4 3.5
v -0.4 3.4 3.3
v -0.4 3.4 3.1
v -0.4 3.4 2.9
v -0.4 3.4 2.7
v -0.4 3.4 2.6
v -0.4 3.4 2.2
v -0.4 3.4 2.1
v -0.4 3.4 1.6
v -0.4 3.4 1.4
v -0.4 3.4 1.2
v -0.4 3.4 1.1
v -0.4 3.4 0.7
v -0.4 3.4 0.6
v -0.4 3.4 0.5
v -0.4 3.4 0.4
v -0.4 3.4 0.3
v -0.4 3.4 0.2
v -0.4 3.4 0.1
v -0.4 3.3 0.2
v -0.4 3.4 0
v -0.4 3.4 -0.2
v -0.4 3.4 -0.3
v -0.4 3.4 -0.4
v -0.4 3.4 -0.8
v -0.4 3.4 -0.9
v -0.4 3.4 -1.1
v -0.4 3.4 -1.2
v -0.4 3.4 -1.3
v -0.4 3.4 -1.4
v -0.4 3.3 -1.3
v -0.4 3.4 -1.5
v -0.4 3.4 -1.7
v -0.4 3.4 -1.8
v -0.4 3.4 -1.9
v -0.4 3.5 3.8
v -0.4 3.5 3.7
v -0.4 3.5 3.6
v -0.4 3.5 3.4
v -0.4 3.4 3.4
v -0.4 3.5 2.6
v -0.4 3.5 2.5
v -0.4 3.5 2.2
v -0.4 3.5 2.1
v -0.4 3.5 1.1
v -0.4 3.5 1
v -0.4 3.5 0.7
v -0.4 3.5 0.6
v -0.4 3.5 0.2
v -0.4 3.5 -0.1
v -0.4 3.4 -0.1
v -0.4 3.5 -1.3
v -0.4 3.5 -1.6
v -0.4 3.4 -1.6
v -0.4 3.6 3.8
v -0.4 3.6 3.7
v -0.4 3.6 2.6
v -0.4 3.6 2.5
v -0.4 3.6 1.1
v -0.4 3.6 1
v -0.4 3.6 0.5
v -0.4 3.6 0.3
v -0.4 3.6 -0.2
v -0.4 3.6 -0.4
v -0.4 3.6 -0.8
v -0.4 3.6 -1.2
v -0.4 3.6 -1.7
v -0.4 3.6 -1.9
v -0.4 3.7 3.1
v -0.4 3.7 3
v -0.4 3.4 3
v -0.4 3.7 1.6
v -0.4 3.7 1.5
v -0.4 3.4 1.5
v -0.4 3.8 3.9
v -0.4 3.8 3.8
v -0.4 3.8 3.7
v -0.4 3.8 3.6
v -0.4 3.8 3.4
v -0.4 3.8 3.3
v -0.4 3.8 3.2
v -0.4 3.8 3.1
v -0.4 3.8 3
v -0.4 3.8 2.9
v -0.4 3.8 2.8
v -0.4 3.8 2.7
v -0.4 3.8 2.6
v -0.4 3.8 2.5
v -0.4 3.8 2.2
v -0.4 3.8 2.1
v -0.4 3.8 2
v -0.4 3.8 1.8
v -0.4 3.8 1.7
v -0.4 3.8 1.6
v -0.4 3.8 1.5
v -0.4 3.8 1.4
v -0.4 3.8 1.3
v -0.4 3.8 1.2
v -0.4 3.8 1.1
v -0.4 3.8 1
v -0.4 3.8 0.7
v -0.4 3.8 0.6
v -0.4 3.8 0.5
v -0.4 3.8 0.3
v -0.4 3.8 0.2
v -0.4 3.8 -0.1
v -0.4 3.8 -0.2
v -0.4 3.8 -0.4
v -0.4 3.8 -0.6
v -0.4 3.8 -0.7
v -0.4 3.8 -0.8
v -0.4 3.8 -1.2
v -0.4 3.8 -1.3
v -0.4 3.8 -1.6
v -0.4 3.8 -1.7
v -0.4 3.8 -1.9
v -0.4 3.8 -2.1
v 0.3 4 -2.2
v -0.5 4 -2.2
v 0.4 0.1 0.5
v 0.4 0 0.5
v 0.4 0.1 -2.2
v 0.4 0.2 0.5
v 0.4 0.1 0.3
v 0.4 0.2 0.3
v 0.4 0.2 0.2
v 0.4 0.1 0.2
v 0.4 0.1 -0.4
v 0.4 0.2 -0.4
v 0.4 0.2 -0.6
v 0.4 0.1 -0.6
v 0.4 0.1 -1
v 0.4 0.2 -1
v 0.4 0.1 -1.2
v 0.4 0.2 -1.2
v 0.4 0.2 -1.3
v 0.4 0.1 -1.3
v 0.4 0.1 -1.9
v 0.4 0.2 -1.9
v 0.4 0.2 -2.1
v 0.4 0.1 -2.1
v 0.4 0.2 -2.2
v 0.4 0.3 3.8
v 0.4 0 3.8
v 0.4 0.3 0.5
v 0.4 0.3 0.2
v 0.4 0.2 0.1
v 0.4 0.3 0.1
v 0.4 0.3 -0.4
v 0.4 0.3 -0.6
v 0.4 0.2 -0.8
v 0.4 0.3 -0.8
v 0.4 0.3 -1.3
v 0.4 0.2 -1.4
v 0.4 0.3 -1.4
v 0.4 0.3 -1.9
v 0.4 0.3 -2.1
v 0.4 0.3 -2.2
v 0.4 0.4 3.3
v 0.4 0.3 3.3
v 0.4 0.3 3.2
v 0.4 0.4 3.2
v 0.4 0.4 2.7
v 0.4 0.3 2.7
v 0.4 0.3 2.4
v 0.4 0.4 2.4
v 0.4 0.4 1.8
v 0.4 0.3 1.8
v 0.4 0.3 1.7
v 0.4 0.4 1.7
v 0.4 0.4 1.2
v 0.4 0.3 1.2
v 0.4 0.3 0.9
v 0.4 0.4 0.9
v 0.4 0.4 -0.1
v 0.4 0.2 -0.1
v 0.4 0.2 -0.3
v 0.4 0.4 -0.3
v 0.4 0.4 -1.6
v 0.4 0.2 -1.6
v 0.4 0.2 -1.8
v 0.4 0.4 -1.8
v 0.4 0.5 3.8
v 0.4 0.3 3.6
v 0.4 0.5 3.6
v 0.4 0.5 3.5
v 0.4 0.3 3.5
v 0.4 0.5 3.3
v 0.4 0.5 2.9
v 0.4 0.3 2.9
v 0.4 0.5 2.7
v 0.4 0.5 2.5
v 0.4 0.4 2.5
v 0.4 0.5 2.4
v 0.4 0.3 2.3
v 0.4 0.5 2.3
v 0.4 0.3 2.1
v 0.4 0.5 2.1
v 0.4 0.5 2
v 0.4 0.3 2
v 0.4 0.5 1.8
v 0.4 0.5 1.4
v 0.4 0.3 1.4
v 0.4 0.5 1.2
v 0.4 0.5 1
v 0.4 0.4 1
v 0.4 0.5 0.9
v 0.4 0.5 0.5
v 0.4 0.5 0.3
v 0.4 0.5 0.2
v 0.4 0.5 0.1
v 0.4 0.5 -0.1
v 0.4 0.5 -0.9
v 0.4 0.2 -0.9
v 0.4 0.5 -1.2
v 0.4 0.5 -1.3
v 0.4 0.5 -1.4
v 0.4 0.5 -1.6
v 0.4 0.6 2.9
v 0.4 0.6 2.7
v 0.4 0.6 1.4
v 0.4 0.6 1.2
v 0.4 0.6 0.6
v 0.4 0.5 0.6
v 0.4 0.5 0.4
v 0.4 0.6 0.4
v 0.4 0.6 -0.8
v 0.4 0.6 -0.9
v 0.4 0.5 -1.1
v 0.4 0.6 -1.1
v 0.4 0.7 3.4
v 0.4 0.5 3.4
v 0.4 0.7 3.3
v 0.4 0.7 3.2
v 0.4 0.7 2.9
v 0.4 0.7 2.5
v 0.4 0.7 2.3
v 0.4 0.7 1.9
v 0.4 0.5 1.9
v 0.4 0.7 1.8
v 0.4 0.7 1.7
v 0.4 0.7 1.4
v 0.4 0.7 1
v 0.4 0.5 0.7
v 0.4 0.7 0.7
v 0.4 0.7 0.2
v 0.4 0.7 -0.1
v 0.4 0.7 -0.8
v 0.4 0.7 -0.9
v 0.4 0.7 -1.3
v 0.4 0.7 -1.6
v 0.4 0.8 3.5
v 0.4 0.8 3.4
v 0.4 0.8 3.2
v 0.4 0.7 3
v 0.4 0.8 3
v 0.4 0.8 2.7
v 0.4 0.8 2.5
v 0.4 0.8 2
v 0.4 0.8 1.9
v 0.4 0.8 1.7
v 0.4 0.7 1.5
v 0.4 0.8 1.5
v 0.4 0.8 1.2
v 0.4 0.8 1
v 0.4 0.8 -0.2
v 0.4 0.4 -0.2
v 0.4 0.8 -0.3
v 0.4 0.8 -0.4
v 0.4 0.8 -1.7
v 0.4 0.4 -1.7
v 0.4 0.8 -1.8
v 0.4 0.8 -1.9
v 0.4 0.9 2.9
v 0.4 0.9 2.7
v 0.4 0.9 1.4
v 0.4 0.9 1.2
v 0.4 0.9 -0.5
v 0.4 0.3 -0.5
v 0.4 0.9 -0.8
v 0.4 0.9 -2
v 0.4 0.3 -2
v 0.4 0.9 -2.2
v 0.4 1 2.7
v 0.4 0.8 2.6
v 0.4 1 2.6
v 0.4 1 1.2
v 0.4 0.8 1.1
v 0.4 1 1.1
v 0.4 1 -0.2
v 0.4 1 -0.4
v 0.4 1 -0.5
v 0.4 0.9 -0.6
v 0.4 1 -0.6
v 0.4 1 -1.7
v 0.4 1 -1.9
v 0.4 1 -2
v 0.4 0.9 -2.1
v 0.4 1 -2.1
v 0.4 1.1 3.7
v 0.4 0.5 3.7
v 0.4 1.1 3.6
v 0.4 1.1 3.5
v 0.4 1.1 3.4
v 0.4 1.1 2.9
v 0.4 1.1 2.7
v 0.4 1.1 2.2
v 0.4 0.5 2.2
v 0.4 1.1 2.1
v 0.4 1.1 2
v 0.4 1.1 1.9
v 0.4 1.1 1.4
v 0.4 1.1 1.2
v 0.4 1.2 3.8
v 0.4 1.2 3.7
v 0.4 1.2 0.7
v 0.4 1.2 0.6
v 0.4 1.2 0.4
v 0.4 1.2 0.1
v 0.4 0.7 0.1
v 0.4 1.2 -0.1
v 0.4 1.2 -0.2
v 0.4 1.2 -0.4
v 0.4 1.2 -0.9
v 0.4 1.2 -1.1
v 0.4 1.2 -1.4
v 0.4 0.7 -1.4
v 0.4 1.2 -1.6
v 0.4 1.2 -1.7
v 0.4 1.2 -1.9
v 0.4 1.3 3.7
v 0.4 1.3 3.4
v 0.4 1.3 2.7
v 0.4 1.3 2.6
v 0.4 1.3 2.5
v 0.4 1.3 2.2
v 0.4 1.3 1.9
v 0.4 1.3 1.2
v 0.4 1.3 1.1
v 0.4 1.3 1
v 0.4 1.3 0.7
v 0.4 1.3 0.4
v 0.4 1.3 0.1
v 0.4 1.2 -0.3
v 0.4 1.3 -0.3
v 0.4 1.3 -0.4
v 0.4 1.3 -0.9
v 0.4 1.3 -1.1
v 0.4 1.3 -1.4
v 0.4 1.2 -1.8
v 0.4 1.3 -1.8
v 0.4 1.3 -1.9
v 0.4 1.4 3.8
v 0.4 1.4 3.7
v 0.4 1.4 2.6
v 0.4 1.4 2.5
v 0.4 1.4 2.4
v 0.4 0.7 2.4
v 0.4 1.4 2.3
v 0.4 1.4 2.2
v 0.4 1.4 1.1
v 0.4 1.4 1
v 0.4 1.4 0.9
v 0.4 0.7 0.9
v 0.4 1.4 0.7
v 0.4 1.4 0.5
v 0.4 1.3 0.5
v 0.4 1.4 0.4
v 0.4 1.4 0.3
v 0.4 1.4 0.2
v 0.4 1.4 -0.1
v 0.4 1.3 -0.1
v 0.4 1.4 -0.4
v 0.4 1.4 -1
v 0.4 1.3 -1
v 0.4 1.4 -1.1
v 0.4 1.4 -1.2
v 0.4 1.4 -1.3
v 0.4 1.4 -1.6
v 0.4 1.3 -1.6
v 0.4 1.4 -1.9
v 0.4 1.5 3.1
v 0.4 0.8 3.1
v 0.4 1.5 3
v 0.4 1.5 2.9
v 0.4 1.5 2.7
v 0.4 1.5 2.6
v 0.4 1.5 1.6
v 0.4 0.8 1.6
v 0.4 1.5 1.5
v 0.4 1.5 1.4
v 0.4 1.5 1.2
v 0.4 1.5 1.1
v 0.4 1.5 -0.4
v 0.4 1.5 -0.5
v 0.4 1.5 -0.6
v 0.4 1.5 -0.8
v 0.4 1.5 -1.9
v 0.4 1.5 -2
v 0.4 1.5 -2.1
v 0.4 1.5 -2.2
v 0.4 1.6 2.4
v 0.4 1.6 2.2
v 0.4 1.6 0.9
v 0.4 1.6 0.7
v 0.4 1.6 0.5
v 0.4 1.6 0.2
v 0.4 1.6 -0.1
v 0.4 1.6 -0.4
v 0.4 1.6 -1
v 0.4 1.6 -1.3
v 0.4 1.6 -1.6
v 0.4 1.6 -1.9
v 0.4 1.7 3.6
v 0.4 1.3 3.6
v 0.4 1.7 3.4
v 0.4 1.7 3.3
v 0.4 1.7 3.1
v 0.4 1.7 2.9
v 0.4 1.7 2.1
v 0.4 1.3 2.1
v 0.4 1.7 1.9
v 0.4 1.7 1.8
v 0.4 1.7 1.6
v 0.4 1.7 1.4
v 0.4 1.7 -0.2
v 0.4 1.6 -0.2
v 0.4 1.7 -0.4
v 0.4 1.7 -0.8
v 0.4 1.7 -1.7
v 0.4 1.6 -1.7
v 0.4 1.7 -1.9
v 0.4 1.7 -2.2
v 0.4 1.8 3.1
v 0.4 1.8 2.9
v 0.4 1.8 2.7
v 0.4 1.8 2.2
v 0.4 1.8 2.1
v 0.4 1.8 1.6
v 0.4 1.8 1.4
v 0.4 1.8 1.2
v 0.4 1.8 0.7
v 0.4 1.8 0.5
v 0.4 1.8 0.3
v 0.4 1.6 0.3
v 0.4 1.8 0.2
v 0.4 1.8 -0.1
v 0.4 1.8 -0.2
v 0.4 1.8 -0.5
v 0.4 1.7 -0.5
v 0.4 1.8 -0.8
v 0.4 1.8 -1.2
v 0.4 1.6 -1.2
v 0.4 1.8 -1.3
v 0.4 1.8 -1.6
v 0.4 1.8 -1.7
v 0.4 1.8 -2
v 0.4 1.7 -2
v 0.4 1.8 -2.2
v 0.4 1.9 3.6
v 0.4 1.9 3.3
v 0.4 1.9 3.1
v 0.4 1.8 2.8
v 0.4 1.9 2.8
v 0.4 1.9 2.2
v 0.4 1.9 2.1
v 0.4 1.9 1.8
v 0.4 1.9 1.6
v 0.4 1.8 1.3
v 0.4 1.9 1.3
v 0.4 1.9 0.7
v 0.4 1.8 0.6
v 0.4 1.9 0.6
v 0.4 1.9 0.3
v 0.4 1.9 0.2
v 0.4 1.9 -0.2
v 0.4 1.7 -0.3
v 0.4 1.9 -0.3
v 0.4 1.9 -0.5
v 0.4 1.8 -0.6
v 0.4 1.9 -0.6
v 0.4 1.9 -1.2
v 0.4 1.9 -1.3
v 0.4 1.9 -1.7
v 0.4 1.7 -1.8
v 0.4 1.9 -1.8
v 0.4 1.9 -2
v 0.4 1.8 -2.1
v 0.4 1.9 -2.1
v 0.4 2 2.6
v 0.4 2 2.5
v 0.4 2 2.4
v 0.4 2 1.1
v 0.4 2 1
v 0.4 2 0.9
v 0.4 2 -0.3
v 0.4 2 -0.5
v 0.4 2 -1.8
v 0.4 2 -2
v 0.4 2.1 3.7
v 0.4 2.1 3.6
v 0.4 2.1 -0.3
v 0.4 2 -0.4
v 0.4 2.1 -0.4
v 0.4 2.1 -1.8
v 0.4 2 -1.9
v 0.4 2.1 -1.9
v 0.4 2.2 3.7
v 0.4 2.2 3.6
v 0.4 2.2 2.6
v 0.4 2.2 2.4
v 0.4 2.2 1.1
v 0.4 2.2 0.9
v 0.4 2.2 -0.2
v 0.4 2.2 -0.3
v 0.4 2.2 -0.4
v 0.4 2.2 -1.7
v 0.4 2.2 -1.8
v 0.4 2.2 -1.9
v 0.4 2.3 -0.7
v 0.4 1.8 -0.7
v 0.4 2.3 -0.8
v 0.4 2.3 -0.9
v 0.4 2.3 -1
v 0.4 2.4 3.4
v 0.4 1.9 3.4
v 0.4 2.4 3.3
v 0.4 2.4 3.2
v 0.4 2.4 1.9
v 0.4 1.9 1.9
v 0.4 2.4 1.8
v 0.4 2.4 1.7
v 0.4 2.4 0.5
v 0.4 2.4 0.3
v 0.4 2.4 0.2
v 0.4 2.4 0.1
v 0.4 2.4 -0.1
v 0.4 2.4 -0.2
v 0.4 2.4 -0.4
v 0.4 2.4 -0.7
v 0.4 2.4 -1
v 0.4 2.4 -1.2
v 0.4 2.4 -1.3
v 0.4 2.4 -1.4
v 0.4 2.4 -1.6
v 0.4 2.4 -1.7
v 0.4 2.4 -1.9
v 0.4 2.5 2.5
v 0.4 2.2 2.5
v 0.4 2.5 2.4
v 0.4 2.5 1
v 0.4 2.2 1
v 0.4 2.5 0.9
v 0.4 2.5 0.5
v 0.4 2.4 0.4
v 0.4 2.5 0.4
v 0.4 2.5 0
v 0.4 2.4 0
v 0.4 2.5 -0.1
v 0.4 2.5 -0.2
v 0.4 2.5 -1
v 0.4 2.4 -1.1
v 0.4 2.5 -1.1
v 0.4 2.5 -1.5
v 0.4 2.4 -1.5
v 0.4 2.5 -1.6
v 0.4 2.5 -1.7
v 0.4 2.6 3.4
v 0.4 2.6 3.2
v 0.4 2.6 3
v 0.4 1.9 3
v 0.4 2.6 2.8
v 0.4 2.6 2.5
v 0.4 2.6 2.4
v 0.4 2.6 2.1
v 0.4 2.6 1.9
v 0.4 2.6 1.7
v 0.4 2.6 1.5
v 0.4 1.9 1.5
v 0.4 2.6 1.3
v 0.4 2.6 1
v 0.4 2.6 0.9
v 0.4 2.6 0.6
v 0.4 2.6 0.5
v 0.4 2.6 0.2
v 0.4 2.6 0
v 0.4 2.6 -0.3
v 0.4 2.4 -0.3
v 0.4 2.6 -0.4
v 0.4 2.6 -1.3
v 0.4 2.6 -1.5
v 0.4 2.6 -1.8
v 0.4 2.4 -1.8
v 0.4 2.6 -1.9
v 0.4 2.7 3.7
v 0.4 2.7 3.6
v 0.4 2.7 3.4
v 0.4 2.7 3
v 0.4 2.7 2.8
v 0.4 2.7 2.1
v 0.4 2.7 1.9
v 0.4 2.7 1.5
v 0.4 2.7 1.3
v 0.4 2.7 0.6
v 0.4 2.7 0.5
v 0.4 2.7 0
v 0.4 2.7 -0.2
v 0.4 2.7 -0.4
v 0.4 2.7 -0.5
v 0.4 2.7 -0.8
v 0.4 2.4 -0.8
v 0.4 2.7 -1
v 0.4 2.7 -1.5
v 0.4 2.7 -1.7
v 0.4 2.7 -1.9
v 0.4 2.7 -2
v 0.4 2.8 2
v 0.4 2.7 2
v 0.4 2.8 1.9
v 0.4 2.8 0.3
v 0.4 2.8 0.2
v 0.4 2.8 0
v 0.4 2.8 -0.8
v 0.4 2.7 -0.9
v 0.4 2.8 -0.9
v 0.4 2.8 -1.2
v 0.4 2.8 -1.3
v 0.4 2.8 -1.5
v 0.4 2.9 3.7
v 0.4 2.9 3.4
v 0.4 2.9 -0.3
v 0.4 2.9 -0.4
v 0.4 2.9 -0.5
v 0.4 2.9 -1.8
v 0.4 2.9 -1.9
v 0.4 2.9 -2
v 0.4 3 0.3
v 0.4 2.8 0.1
v 0.4 3 0.1
v 0.4 3 -1.2
v 0.4 2.8 -1.4
v 0.4 3 -1.4
v 0.4 3.1 3.6
v 0.4 2.9 3.6
v 0.4 3.1 3.4
v 0.4 3.1 3.2
v 0.4 3.1 3.1
v 0.4 3.1 3
v 0.4 3.1 2.8
v 0.4 3.1 2.7
v 0.4 3.1 2.6
v 0.4 3.1 2.5
v 0.4 3.1 2.4
v 0.4 3.1 1.9
v 0.4 3.1 1.7
v 0.4 3.1 1.6
v 0.4 3.1 1.5
v 0.4 3.1 1.3
v 0.4 3.1 1.2
v 0.4 3.1 1.1
v 0.4 3.1 1
v 0.4 3.1 0.9
v 0.4 3.1 0.5
v 0.4 3.1 0.4
v 0.4 3.1 -0.8
v 0.4 3.1 -0.9
v 0.4 3.1 -1
v 0.4 3.1 -1.1
v 0.4 3.2 3.1
v 0.4 3.1 2.9
v 0.4 3.2 2.9
v 0.4 3.2 2.4
v 0.4 3.2 2.2
v 0.4 3.2 1.9
v 0.4 3.1 1.8
v 0.4 3.2 1.8
v 0.4 3.2 1.6
v 0.4 3.1 1.4
v 0.4 3.2 1.4
v 0.4 3.2 0.9
v 0.4 3.2 0.7
v 0.4 3.3 3.6
v 0.4 3.1 3.3
v 0.4 3.3 3.3
v 0.4 3.3 2.8
v 0.4 3.3 2.6
v 0.4 3.3 2.5
v 0.4 3.3 2.4
v 0.4 3.2 2.3
v 0.4 3.3 2.3
v 0.4 3.3 1.3
v 0.4 3.3 1.1
v 0.4 3.3 1
v 0.4 3.3 0.9
v 0.4 3.2 0.8
v 0.4 3.3 0.8
v 0.4 3.3 0.5
v 0.4 3.3 0.4
v 0.4 3.3 0.3
v 0.4 3.3 0.1
v 0.4 3.3 -0.8
v 0.4 3.3 -1.1
v 0.4 3.3 -1.2
v 0.4 3.3 -1.4
v 0.4 3.4 3.8
v 0.4 3.4 3.7
v 0.4 3.4 3.6
v 0.4 3.4 3.3
v 0.4 3.4 3.2
v 0.4 3.4 3.1
v 0.4 3.4 3
v 0.4 3.2 3
v 0.4 3.4 2.9
v 0.4 3.4 2.8
v 0.4 3.4 2.6
v 0.4 3.4 2.5
v 0.4 3.4 2.3
v 0.4 3.4 2.2
v 0.4 3.4 1.8
v 0.4 3.4 1.7
v 0.4 3.4 1.6
v 0.4 3.4 1.5
v 0.4 3.2 1.5
v 0.4 3.4 1.4
v 0.4 3.4 1.3
v 0.4 3.4 1.1
v 0.4 3.4 1
v 0.4 3.4 0.8
v 0.4 3.4 0.7
v 0.4 3.4 0.3
v 0.4 3.3 0.2
v 0.4 3.4 0.2
v 0.4 3.4 -0.1
v 0.4 2.7 -0.1
v 0.4 3.4 -0.2
v 0.4 3.4 -0.7
v 0.4 3.4 -0.8
v 0.4 3.4 -1.2
v 0.4 3.3 -1.3
v 0.4 3.4 -1.3
v 0.4 3.4 -1.6
v 0.4 2.7 -1.6
v 0.4 3.4 -1.7
v 0.4 3.5 3
v 0.4 3.4 2.7
v 0.4 3.5 2.7
v 0.4 3.5 1.5
v 0.4 3.4 1.2
v 0.4 3.5 1.2
v 0.4 3.5 0.4
v 0.4 3.5 0.3
v 0.4 3.5 -0.7
v 0.4 3.5 -0.8
v 0.4 3.5 -1.1
v 0.4 3.5 -1.2
v 0.4 3.6 3.8
v 0.4 3.4 3.5
v 0.4 3.6 3.5
v 0.4 3.6 3.3
v 0.4 3.6 3.1
v 0.4 3.6 2.6
v 0.4 3.6 2.2
v 0.4 3.6 1.8
v 0.4 3.6 1.6
v 0.4 3.6 1.1
v 0.4 3.6 0.7
v 0.4 3.6 0.4
v 0.4 3.6 0.3
v 0.4 3.6 -1.1
v 0.4 3.6 -1.2
v 0.4 3.7 -0.1
v 0.4 3.7 -0.2
v 0.4 3.7 -1.6
v 0.4 3.7 -1.7
v 0.4 3.8 3.8
v 0.4 3.8 3.5
v 0.4 3.8 3.3
v 0.4 3.8 3.1
v 0.4 3.8 3
v 0.4 3.8 2.7
v 0.4 3.8 2.6
v 0.4 3.8 2.2
v 0.4 3.8 2.1
v 0.4 3.8 2
v 0.4 3.8 1.9
v 0.4 3.8 1.8
v 0.4 3.8 1.6
v 0.4 3.8 1.5
v 0.4 3.8 1.2
v 0.4 3.8 1.1
v 0.4 3.8 0.7
v 0.4 3.8 0.6
v 0.4 3.8 0.5
v 0.4 3.8 0.4
v 0.4 3.8 0.3
v 0.4 3.8 0.2
v 0.4 3.8 0.1
v 0.4 3.8 0
v 0.4 3.8 -0.1
v 0.4 3.8 -0.2
v 0.4 3.8 -0.3
v 0.4 3.8 -0.5
v 0.4 3.8 -0.6
v 0.4 3.8 -0.7
v 0.4 3.8 -0.8
v 0.4 3.8 -1.1
v 0.4 3.8 -1.2
v 0.4 3.8 -1.3
v 0.4 3.8 -1.4
v 0.4 3.8 -1.5
v 0.4 3.8 -1.6
v 0.4 3.8 -1.7
v 0.4 3.8 -1.8
v 0.4 3.8 -2
v 0.4 3.8 -2.1
v 0.5 4 -2.2
v -0.3 4 -2.2
v 0.5 4.2 -2.3
v 0.3 4.2 -2.3
v -0.3 4.2 -2.3
v -0.5 4.2 -2.3
v 0.5 4 -2.4
v 0.3 4 -2.4
v 0.3 4 -2.3
v 0.5 4 -2.3
v -0.3 4 -2.4
v -0.5 4 -2.4
v -0.5 4 -2.3
v -0.3 4 -2.3
v 0.5 4.2 -2.8
v 0.3 4.2 -2.8
v 0.3 4.2 -2.4
v 0.5 4.2 -2.4
v -0.3 4.2 -2.8
v -0.5 4.2 -2.8
v -0.5 4.2 -2.4
v -0.3 4.2 -2.4
v 0.5 4 -2.9
v 0.3 4 -2.9
v 0.3 4 -2.8
v 0.5 4 -2.8
v -0.3 4 -2.9
v -0.5 4 -2.9
v -0.5 4 -2.8
v -0.3 4 -2.8
v 0.5 4.2 -3.3
v 0.3 4.2 -3.3
v 0.3 4.2 -2.9
v 0.5 4.2 -2.9
v -0.3 4.2 -3.3
v -0.5 4.2 -3.3
v -0.5 4.2 -2.9
v -0.3 4.2 -2.9
v 0.5 4 -3.4
v 0.3 4 -3.4
v 0.3 4 -3.3
v 0.5 4 -3.3
v -0.3 4 -3.4
v -0.5 4 -3.4
v -0.5 4 -3.3
v -0.3 4 -3.3
v 0.5 4.2 -4
v 0.3 4.2 -4
v 0.3 4.2 -3.4
v 0.5 4.2 -3.4
v 0.3 3.8 -4
v -0.3 3.8 -4
v -0.3 4.2 -4
v -0.5 4.2 -4
v -0.5 4.2 -3.4
v -0.3 4.2 -3.4
v 0.5 3.8 -4
v 0.4 3.8 -4
v 0.4 0 -4
v -0.4 0 -4
v -0.4 3.8 -4
v -0.5 3.8 -4
v -0.4 0.3 -4
v -0.4 0.4 -2.2
v -0.4 0.4 -2.3
v -0.4 0.3 -2.3
v -0.4 0.4 -2.5
v -0.4 0.4 -2.8
v -0.4 0.3 -2.8
v -0.4 0.3 -2.5
v -0.4 0.4 -3.3
v -0.4 0.4 -3.4
v -0.4 0.3 -3.4
v -0.4 0.3 -3.3
v -0.4 0.5 -2.3
v -0.4 0.5 -2.5
v -0.4 0.5 -2.8
v -0.4 0.5 -3.3
v -0.4 0.5 -3.4
v -0.4 0.5 -3.7
v -0.4 0.3 -3.7
v -0.4 0.5 -3.9
v -0.4 0.3 -3.9
v -0.4 0.6 -2.8
v -0.4 0.6 -3
v -0.4 0.5 -3
v -0.4 0.7 -2.3
v -0.4 0.7 -2.6
v -0.4 0.5 -2.6
v -0.4 0.7 -3.1
v -0.4 0.7 -3.3
v -0.4 0.5 -3.1
v -0.4 0.7 -3.4
v -0.4 0.7 -3.6
v -0.4 0.5 -3.6
v -0.4 0.8 -2.7
v -0.4 0.8 -2.8
v -0.4 0.5 -2.7
v -0.4 0.8 -3.1
v -0.4 0.8 -3.3
v -0.4 0.8 -3.5
v -0.4 0.8 -3.6
v -0.4 0.7 -3.5
v -0.4 0.9 -2.8
v -0.4 0.9 -3
v -0.4 1 -2.7
v -0.4 1 -2.8
v -0.4 1.1 -2.8
v -0.4 1.1 -3
v -0.4 1.1 -3.5
v -0.4 1.1 -3.6
v -0.4 1.1 -3.9
v -0.4 1.2 -2.2
v -0.4 1.2 -2.3
v -0.4 1.2 -3.8
v -0.4 1.2 -3.9
v -0.4 1.1 -3.8
v -0.4 1.3 -2.2
v -0.4 1.3 -2.3
v -0.4 1.3 -2.6
v -0.4 1.3 -2.7
v -0.4 1.3 -2.8
v -0.4 1.3 -3.5
v -0.4 1.3 -3.8
v -0.4 1.4 -2.3
v -0.4 1.4 -2.6
v -0.4 1.4 -2.8
v -0.4 1.4 -3.8
v -0.4 1.4 -3.9
v -0.4 1.5 -2.7
v -0.4 1.5 -2.8
v -0.4 1.4 -2.7
v -0.4 1.5 -3
v -0.4 1.5 -3.1
v -0.4 1.5 -3.3
v -0.4 1.6 -2.3
v -0.4 1.6 -2.5
v -0.4 1.4 -2.5
v -0.4 1.7 -3
v -0.4 1.7 -3.2
v -0.4 1.5 -3.2
v -0.4 1.7 -3.4
v -0.4 1.7 -3.5
v -0.4 1.7 -3.8
v -0.4 1.8 -2.3
v -0.4 1.8 -2.9
v -0.4 1.8 -3
v -0.4 1.1 -2.9
v -0.4 1.8 -3.2
v -0.4 1.9 -2.3
v -0.4 1.9 -2.9
v -0.4 1.9 -3.2
v -0.4 1.9 -3.4
v -0.4 1.9 -3.7
v -0.4 1.7 -3.7
v -0.4 2 -2.5
v -0.4 2 -2.7
v -0.4 2.1 -3.7
v -0.4 2.1 -3.8
v -0.4 2.2 -2.5
v -0.4 2.2 -2.7
v -0.4 2.2 -3.7
v -0.4 2.2 -3.8
v -0.4 2.4 -3.3
v -0.4 2.4 -3.4
v -0.4 2.4 -3.7
v -0.4 2.5 -2.5
v -0.4 2.5 -2.7
v -0.4 2.6 -2.5
v -0.4 2.6 -2.6
v -0.4 2.5 -2.6
v -0.4 2.6 -2.9
v -0.4 2.6 -3.2
v -0.4 2.6 -3.3
v -0.4 2.6 -3.5
v -0.4 2.4 -3.5
v -0.4 2.7 -2.9
v -0.4 2.7 -3.1
v -0.4 2.6 -3.1
v -0.4 2.7 -3.5
v -0.4 2.7 -3.7
v -0.4 2.7 -3.8
v -0.4 2.9 -3.5
v -0.4 2.9 -3.8
v -0.4 3.1 -2.5
v -0.4 3.1 -2.6
v -0.4 3.1 -2.7
v -0.4 3.1 -2.8
v -0.4 3.1 -2.9
v -0.4 3.1 -3
v -0.4 3.1 -3.1
v -0.4 2.7 -3
v -0.4 3.1 -3.2
v -0.4 3.1 -3.4
v -0.4 3.1 -3.5
v -0.4 2.6 -3.4
v -0.4 3.1 -3.8
v -0.4 3.2 -2.4
v -0.4 3.2 -2.5
v -0.4 1.6 -2.4
v -0.4 3.2 -3
v -0.4 3.2 -3.2
v -0.4 3.3 -2.4
v -0.4 3.3 -2.5
v -0.4 3.3 -2.6
v -0.4 3.3 -2.7
v -0.4 3.3 -2.9
v -0.4 3.3 -3.4
v -0.4 3.3 -3.7
v -0.4 3.1 -3.7
v -0.4 3.4 -2.3
v -0.4 3.4 -2.4
v -0.4 3.4 -2.6
v -0.4 3.4 -2.7
v -0.4 3.4 -2.8
v -0.4 3.4 -2.9
v -0.4 3.3 -2.8
v -0.4 3.4 -3
v -0.4 3.4 -3.2
v -0.4 3.4 -3.3
v -0.4 3.4 -3.4
v -0.4 3.4 -3.6
v -0.4 3.4 -3.7
v -0.4 3.3 -3.6
v -0.4 3.4 -3.8
v -0.4 3.4 -3.9
v -0.4 3.5 -2.8
v -0.4 3.5 -3.1
v -0.4 3.4 -3.1
v -0.4 3.6 -2.3
v -0.4 3.6 -2.7
v -0.4 3.6 -3.2
v -0.4 3.6 -3.4
v -0.4 3.6 -3.6
v -0.4 3.6 -3.9
v -0.4 3.8 -2.3
v -0.4 3.8 -2.7
v -0.4 3.8 -2.8
v -0.4 3.8 -3.1
v -0.4 3.8 -3.2
v -0.4 3.8 -3.4
v -0.4 3.8 -3.6
v -0.4 3.8 -3.9
v 0.3 4 -4
v 0.3 3.8 -2.3
v -0.5 4 -4
v -0.5 3.8 -2.3
v 0.4 0.1 -2.5
v 0.4 0 -2.5
v 0.4 0.1 -4
v 0.4 0.2 -2.5
v 0.4 0.1 -2.7
v 0.4 0.2 -2.7
v 0.4 0.2 -2.8
v 0.4 0.1 -2.8
v 0.4 0.1 -3.4
v 0.4 0.2 -3.4
v 0.4 0.2 -3.6
v 0.4 0.1 -3.6
v 0.4 0.1 -3.7
v 0.4 0.2 -3.7
v 0.4 0.2 -2.3
v 0.4 0.3 -2.3
v 0.4 0.3 -2.8
v 0.4 0.2 -2.9
v 0.4 0.3 -2.9
v 0.4 0.3 -3.4
v 0.4 0.3 -3.6
v 0.4 0.4 -3.1
v 0.4 0.2 -3.1
v 0.4 0.2 -3.3
v 0.4 0.4 -3.3
v 0.4 0.4 -3.6
v 0.4 0.4 -3.7
v 0.4 0.4 -4
v 0.4 0.5 -2.4
v 0.4 0.2 -2.4
v 0.4 0.5 -2.7
v 0.4 0.5 -2.8
v 0.4 0.5 -2.9
v 0.4 0.5 -3.1
v 0.4 0.5 -3.6
v 0.4 0.4 -3.9
v 0.4 0.5 -3.9
v 0.4 0.6 -2.3
v 0.4 0.6 -2.4
v 0.4 0.5 -2.6
v 0.4 0.6 -2.6
v 0.4 0.6 -3.7
v 0.4 0.5 -3.7
v 0.4 0.5 -3.8
v 0.4 0.6 -3.8
v 0.4 0.7 -2.3
v 0.4 0.7 -2.4
v 0.4 0.7 -2.8
v 0.4 0.7 -3.1
v 0.4 0.8 -3.2
v 0.4 0.4 -3.2
v 0.4 0.8 -3.3
v 0.4 0.8 -3.4
v 0.4 1 -3.2
v 0.4 1 -3.4
v 0.4 1 -3.5
v 0.4 0.3 -3.5
v 0.4 1 -3.6
v 0.4 1 -3.7
v 0.4 1.2 -2.4
v 0.4 1.2 -2.6
v 0.4 1.2 -2.9
v 0.4 0.7 -2.9
v 0.4 1.2 -3.1
v 0.4 1.2 -3.2
v 0.4 1.2 -3.4
v 0.4 1.2 -3.8
v 0.4 1.2 -3.9
v 0.4 1.3 -2.4
v 0.4 1.3 -2.6
v 0.4 1.3 -2.9
v 0.4 1.2 -3.3
v 0.4 1.3 -3.3
v 0.4 1.3 -3.4
v 0.4 1.3 -3.5
v 0.4 1.3 -3.7
v 0.4 1.4 -2.5
v 0.4 1.3 -2.5
v 0.4 1.4 -2.6
v 0.4 1.4 -2.7
v 0.4 1.4 -2.8
v 0.4 1.4 -3.1
v 0.4 1.3 -3.1
v 0.4 1.4 -3.4
v 0.4 1.4 -3.8
v 0.4 1.4 -3.9
v 0.4 1.5 -2.3
v 0.4 1.5 -3.4
v 0.4 1.5 -3.5
v 0.4 1.5 -3.7
v 0.4 1.6 -2.5
v 0.4 1.6 -2.8
v 0.4 1.6 -3.1
v 0.4 1.6 -3.4
v 0.4 1.6 -3.7
v 0.4 1.6 -3.8
v 0.4 1.6 -3.9
v 0.4 1.6 -4
v 0.4 1.7 -2.3
v 0.4 1.7 -3.2
v 0.4 1.6 -3.2
v 0.4 1.7 -3.4
v 0.4 1.5 -3.6
v 0.4 1.7 -3.6
v 0.4 1.7 -3.7
v 0.4 1.7 -4
v 0.4 1.8 -2.7
v 0.4 1.6 -2.7
v 0.4 1.8 -2.8
v 0.4 1.8 -3.1
v 0.4 1.8 -3.2
v 0.4 1.8 -3.8
v 0.4 1.7 -3.8
v 0.4 1.7 -3.9
v 0.4 1.8 -3.9
v 0.4 1.9 -2.7
v 0.4 1.9 -2.8
v 0.4 1.9 -3.2
v 0.4 1.7 -3.3
v 0.4 1.9 -3.3
v 0.4 2 -3.3
v 0.4 2 -3.6
v 0.4 2.1 -3.3
v 0.4 2 -3.5
v 0.4 2.1 -3.5
v 0.4 2.1 -3.6
v 0.4 2.2 -3.2
v 0.4 2.2 -3.3
v 0.4 2.2 -3.5
v 0.4 2.2 -3.7
v 0.4 2.2 -3.8
v 0.4 2.3 -2.2
v 0.4 2.3 -2.3
v 0.4 2.3 -2.4
v 0.4 2.3 -2.5
v 0.4 2.3 -3.5
v 0.4 2.3 -3.6
v 0.4 2.4 -2.2
v 0.4 2.4 -2.5
v 0.4 2.4 -2.7
v 0.4 2.4 -2.8
v 0.4 2.4 -2.9
v 0.4 2.4 -3.1
v 0.4 2.4 -3.2
v 0.4 2.2 -3.4
v 0.4 2.4 -3.4
v 0.4 2.5 -2.5
v 0.4 2.4 -2.6
v 0.4 2.5 -2.6
v 0.4 2.5 -3
v 0.4 2.4 -3
v 0.4 2.5 -3.1
v 0.4 2.5 -3.2
v 0.4 2.5 -3.7
v 0.4 2.5 -3.8
v 0.4 2.6 -2.8
v 0.4 2.6 -3
v 0.4 2.6 -3.3
v 0.4 2.4 -3.3
v 0.4 2.6 -3.4
v 0.4 2.6 -3.5
v 0.4 2.6 -3.6
v 0.4 2.7 -2.3
v 0.4 2.4 -2.3
v 0.4 2.7 -2.5
v 0.4 2.7 -3
v 0.4 2.7 -3.2
v 0.4 2.7 -3.3
v 0.4 2.7 -3.6
v 0.4 2.8 -2.3
v 0.4 2.7 -2.4
v 0.4 2.8 -2.4
v 0.4 2.8 -2.7
v 0.4 2.8 -2.8
v 0.4 2.8 -3
v 0.4 2.8 -3.4
v 0.4 2.7 -3.4
v 0.4 2.8 -3.6
v 0.4 2.8 -3.7
v 0.4 2.8 -3.8
v 0.4 2.8 -3.9
v 0.4 2.9 -3.5
v 0.4 2.8 -3.5
v 0.4 2.9 -3.6
v 0.4 3 -2.7
v 0.4 2.8 -2.9
v 0.4 3 -2.9
v 0.4 3 -3.7
v 0.4 3 -3.9
v 0.4 3.1 -2.3
v 0.4 3.1 -2.4
v 0.4 3.1 -2.5
v 0.4 3.1 -2.6
v 0.4 3.1 -3.3
v 0.4 3.1 -3.4
v 0.4 3.1 -3.5
v 0.4 3.1 -3.6
v 0.4 3.2 -3.4
v 0.4 3.2 -3.6
v 0.4 3.3 -2.3
v 0.4 3.3 -2.6
v 0.4 3.3 -2.7
v 0.4 3.3 -2.9
v 0.4 3.3 -3.3
v 0.4 3.3 -3.4
v 0.4 3.3 -3.7
v 0.4 3.3 -3.9
v 0.4 3.4 -2.2
v 0.4 3.4 -2.3
v 0.4 3.4 -2.7
v 0.4 3.3 -2.8
v 0.4 3.4 -2.8
v 0.4 3.4 -3.1
v 0.4 2.7 -3.1
v 0.4 3.4 -3.2
v 0.4 3.4 -3.5
v 0.4 3.2 -3.5
v 0.4 3.4 -3.6
v 0.4 3.4 -3.7
v 0.4 3.3 -3.8
v 0.4 3.4 -3.8
v 0.4 3.5 -2.2
v 0.4 3.5 -2.3
v 0.4 3.5 -2.6
v 0.4 3.5 -2.7
v 0.4 3.5 -3.5
v 0.4 3.5 -3.7
v 0.4 3.5 -3.8
v 0.4 3.5 -3.9
v 0.4 3.6 -2.6
v 0.4 3.6 -2.7
v 0.4 3.6 -3.8
v 0.4 3.6 -3.9
v 0.4 3.7 -3.1
v 0.4 3.7 -3.2
v 0.4 3.8 -2.3
v 0.4 3.8 -2.6
v 0.4 3.8 -2.7
v 0.4 3.8 -2.8
v 0.4 3.8 -2.9
v 0.4 3.8 -3
v 0.4 3.8 -3.1
v 0.4 3.8 -3.2
v 0.4 3.8 -3.3
v 0.4 3.8 -3.4
v 0.4 3.8 -3.5
v 0.4 3.8 -3.7
v 0.4 3.8 -3.8
v 0.4 3.8 -3.9
v 0.5 3.8 -2.3
v 0.5 4 -4
v -0.3 3.8 -2.3
v -0.3 4 -4
v 0.3 1.6 -4
v 0.3 1.7 -4
v -0.4 1.6 -4
v -0.4 1.7 -4

vt 0.0332031 0.5
vt 0.0371094 0.5
vt 0.0683594 0.5

vn 0 1 0
vn 0 -1 0
vn -1 0 0
vn 1 0 0
vn 0 0 -1
vn 0 0 1

usemtl palette
f 1/1/1 2/1/1 4/1/1
f 4/1/1 2/1/1 3/1/1
f 5/1/1 6/1/1 8/1/1
f 8/1/1 6/1/1 7/1/1
f 9/1/1 10/1/1 12/1/1
f 12/1/1 10/1/1 11/1/1
f 13/1/1 14/1/1 16/1/1
f 16/1/1 14/1/1 15/1/1
f 17/1/1 18/1/1 20/1/1
f 20/1/1 18/1/1 19/1/1
f 21/1/1 22/1/1 24/1/1
f 24/1/1 22/1/1 23/1/1
f 25/1/1 26/1/1 28/1/1
f 28/1/1 26/1/1 27/1/1
f 29/1/1 30/1/1 32/1/1
f 32/1/1 30/1/1 31/1/1
f 33/1/1 34/1/1 36/1/1
f 36/1/1 34/1/1 35/1/1
f 37/1/1 38/1/1 40/1/1
f 40/1/1 38/1/1 39/1/1
f 41/1/1 42/1/1 44/1/1
f 44/1/1 42/1/1 43/1/1
f 45/1/1 46/1/1 48/1/1
f 48/1/1 46/1/1 47/1/1
f 49/1/1 50/1/1 52/1/1
f 52/1/1 50/1/1 51/1/1
f 53/1/1 54/1/1 56/1/1
f 56/1/1 54/1/1 55/1/1
f 57/1/1 58/1/1 60/1/1
f 60/1/1 58/1/1 59/1/1
f 61/1/1 62/1/1 64/1/1
f 64/1/1 62/1/1 63/1/1
f 65/1/1 66/1/1 68/1/1
f 68/1/1 66/1/1 67/1/1
f 69/1/1 70/1/1 72/1/1
f 72/1/1 70/1/1 71/1/1
f 73/1/1 74/1/1 76/1/1
f 76/1/1 74/1/1 75/1/1
f 77/1/1 78/1/1 80/1/1
f 80/1/1 78/1/1 79/1/1
f 81/1/1 82/1/1 84/1/1
f 84/1/1 82/1/1 83/1/1
f 85/1/1 86/1/1 88/1/1
f 88/1/1 86/1/1 87/1/1
f 89/1/1 90/1/1 92/1/1
f 92/1/1 90/1/1 91/1/1
f 93/1/1 94/1/1 96/1/1
f 96/1/1 94/1/1 95/1/1
f 97/1/1 98/1/1 100/1/1
f 100/1/1 98/1/1 99/1/1
f 101/1/1 102/1/1 104/1/1
f 104/1/1 102/1/1 103/1/1
f 105/1/1 106/1/1 108/1/1
f 108/1/1 106/1/1 107/1/1
f 109/1/1 110/1/1 112/1/1
f 112/1/1 110/1/1 111/1/1
f 113/1/1 114/1/1 116/1/1
f 116/1/1 114/1/1 115/1/1
f 117/1/1 118/1/1 120/1/1
f 120/1/1 118/1/1 119/1/1
f 121/1/1 122/1/1 124/1/1
f 124/1/1 122/1/1 123/1/1
f 125/1/1 126/1/1 128/1/1
f 128/1/1 126/1/1 127/1/1
f 129/1/1 130/1/1 132/1/1
f 132/1/1 130/1/1 131/1/1
f 133/1/1 134/1/1 136/1/1
f 136/1/1 134/1/1 135/1/1
f 137/1/1 138/1/1 140/1/1
f 140/1/1 138/1/1 139/1/1
f 141/1/1 142/1/1 144/1/1
f 144/1/1 142/1/1 143/1/1
f 145/1/1 146/1/1 148/1/1
f 148/1/1 146/1/1 147/1/1
f 149/1/1 150/1/1 152/1/1
f 152/1/1 150/1/1 151/1/1
f 153/1/1 154/1/1 156/1/1
f 156/1/1 154/1/1 155/1/1
f 157/1/1 158/1/1 160/1/1
f 160/1/1 158/1/1 159/1/1
f 161/1/1 162/1/1 164/1/1
f 164/1/1 162/1/1 163/1/1
f 165/1/1 166/1/1 168/1/1
f 168/1/1 166/1/1 167/1/1
f 169/1/1 170/1/1 172/1/1
f 172/1/1 170/1/1 171/1/1
f 173/1/1 174/1/1 176/1/1
f 176/1/1 174/1/1 175/1/1
f 177/1/1 178/1/1 180/1/1
f 180/1/1 178/1/1 179/1/1
f 181/1/1 182/1/1 184/1/1
f 184/1/1 182/1/1 183/1/1
f 185/1/1 186/1/1 188/1/1
f 188/1/1 186/1/1 187/1/1
f 189/3/1 190/3/1 192/3/1
f 192/3/1 190/3/1 191/3/1
f 193/1/1 194/1/1 196/1/1
f 196/1/1 194/1/1 195/1/1
f 197/1/2 198/1/2 200/1/2
f 200/1/2 198/1/2 199/1/2
f 201/3/2 202/3/2 204/3/2
f 204/3/2 202/3/2 203/3/2
f 205/1/2 206/1/2 208/1/2
f 208/1/2 206/1/2 207/1/2
f 209/3/3 210/3/3 211/3/3
f 211/3/3 210/3/3 204/3/3
f 212/2/3 213/2/3 209/2/3
f 209/2/3 213/2/3 214/2/3
f 215/3/3 216/3/3 218/3/3
f 218/3/3 216/3/3 217/3/3
f 216/2/3 219/2/3 217/2/3
f 217/2/3 219/2/3 220/2/3
f 221/2/3 222/2/3 224/2/3
f 224/2/3 222/2/3 223/2/3
f 225/3/3 226/3/3 228/3/3
f 228/3/3 226/3/3 227/3/3
f 226/2/3 229/2/3 227/2/3
f 227/2/3 229/2/3 230/2/3
f 231/2/3 232/2/3 233/2/3
f 233/2/3 232/2/3 213/2/3
f 234/2/3 235/2/3 237/2/3
f 237/2/3 235/2/3 236/2/3
f 238/2/3 239/2/3 240/2/3
f 240/2/3 239/2/3 222/2/3
f 241/2/3 242/2/3 244/2/3
f 244/2/3 242/2/3 243/2/3
f 245/3/3 246/3/3 247/3/3
f 247/3/3 246/3/3 210/3/3
f 248/3/3 249/3/3 250/3/3
f 250/3/3 249/3/3 211/3/3
f 249/3/3 251/3/3 212/3/3
f 212/3/3 251/3/3 233/3/3
f 252/2/3 253/2/3 215/2/3
f 215/2/3 253/2/3 254/2/3
f 255/3/3 256/3/3 257/3/3
f 257/3/3 256/3/3 224/3/3
f 256/3/3 258/3/3 221/3/3
f 221/3/3 258/3/3 240/3/3
f 259/2/3 260/2/3 225/2/3
f 225/2/3 260/2/3 261/2/3
f 262/2/3 263/2/3 245/2/3
f 245/2/3 263/2/3 264/2/3
f 265/2/3 266/2/3 268/2/3
f 268/2/3 266/2/3 267/2/3
f 269/2/3 270/2/3 272/2/3
f 272/2/3 270/2/3 271/2/3
f 273/2/3 274/2/3 276/2/3
f 276/2/3 274/2/3 275/2/3
f 277/2/3 278/2/3 280/2/3
f 280/2/3 278/2/3 279/2/3
f 281/2/3 282/2/3 248/2/3
f 248/2/3 282/2/3 251/2/3
f 283/3/3 284/3/3 254/3/3
f 254/3/3 284/3/3 237/3/3
f 284/3/3 285/3/3 234/3/3
f 234/3/3 285/3/3 235/3/3
f 286/3/3 287/3/3 220/3/3
f 220/3/3 287/3/3 257/3/3
f 287/2/3 288/2/3 255/2/3
f 255/2/3 288/2/3 258/2/3
f 289/3/3 290/3/3 261/3/3
f 261/3/3 290/3/3 244/3/3
f 290/3/3 291/3/3 241/3/3
f 241/3/3 291/3/3 242/3/3
f 292/3/3 293/3/3 294/3/3
f 294/3/3 293/3/3 229/3/3
f 293/3/3 295/3/3 230/3/3
f 230/3/3 295/3/3 247/3/3
f 295/3/3 296/3/3 262/3/3
f 262/3/3 296/3/3 263/3/3
f 296/3/3 297/3/3 264/3/3
f 264/3/3 297/3/3 268/3/3
f 298/3/3 299/3/3 267/3/3
f 267/3/3 299/3/3 272/3/3
f 300/3/3 301/3/3 271/3/3
f 271/3/3 301/3/3 276/3/3
f 301/3/3 302/3/3 273/3/3
f 273/3/3 302/3/3 274/3/3
f 302/3/3 303/3/3 275/3/3
f 275/3/3 303/3/3 280/3/3
f 304/3/3 305/3/3 279/3/3
f 279/3/3 305/3/3 246/3/3
f 306/2/3 307/2/3 309/2/3
f 309/2/3 307/2/3 308/2/3
f 310/2/3 311/2/3 286/2/3
f 286/2/3 311/2/3 312/2/3
f 313/2/3 314/2/3 316/2/3
f 316/2/3 314/2/3 315/2/3
f 317/2/3 318/2/3 292/2/3
f 292/2/3 318/2/3 319/2/3
f 318/3/3 320/3/3 319/3/3
f 319/3/3 320/3/3 321/3/3
f 322/2/3 323/2/3 296/2/3
f 296/2/3 323/2/3 324/2/3
f 325/2/3 326/2/3 302/2/3
f 302/2/3 326/2/3 327/2/3
f 328/2/3 329/2/3 283/2/3
f 283/2/3 329/2/3 285/2/3
f 330/2/3 331/2/3 289/2/3
f 289/2/3 331/2/3 291/2/3
f 332/2/3 333/2/3 318/2/3
f 318/2/3 333/2/3 320/2/3
f 333/2/3 334/2/3 321/2/3
f 321/2/3 334/2/3 335/2/3
f 336/3/3 337/3/3 338/3/3
f 338/3/3 337/3/3 297/3/3
f 339/2/3 340/2/3 298/2/3
f 298/2/3 340/2/3 341/2/3
f 342/2/3 343/2/3 300/2/3
f 300/2/3 343/2/3 344/2/3
f 345/3/3 346/3/3 347/3/3
f 347/3/3 346/3/3 303/3/3
f 348/2/3 349/2/3 304/2/3
f 304/2/3 349/2/3 350/2/3
f 351/3/3 352/3/3 214/3/3
f 214/3/3 352/3/3 218/3/3
f 352/3/3 353/3/3 252/3/3
f 252/3/3 353/3/3 253/3/3
f 354/3/3 355/3/3 223/3/3
f 223/3/3 355/3/3 228/3/3
f 355/3/3 356/3/3 259/3/3
f 259/3/3 356/3/3 260/3/3
f 357/3/3 358/3/3 359/3/3
f 359/3/3 358/3/3 296/3/3
f 360/2/3 361/2/3 336/2/3
f 336/2/3 361/2/3 337/2/3
f 362/2/3 363/2/3 364/2/3
f 364/2/3 363/2/3 340/2/3
f 363/3/3 365/3/3 341/3/3
f 341/3/3 365/3/3 299/3/3
f 366/3/3 367/3/3 368/3/3
f 368/3/3 367/3/3 302/3/3
f 369/2/3 370/2/3 345/2/3
f 345/2/3 370/2/3 346/2/3
f 371/2/3 372/2/3 373/2/3
f 373/2/3 372/2/3 349/2/3
f 372/3/3 374/3/3 350/3/3
f 350/3/3 374/3/3 305/3/3
f 375/3/3 376/3/3 322/3/3
f 322/3/3 376/3/3 323/3/3
f 377/3/3 378/3/3 325/3/3
f 325/3/3 378/3/3 326/3/3
f 379/3/3 380/3/3 308/3/3
f 308/3/3 380/3/3 282/3/3
f 380/3/3 381/3/3 231/3/3
f 231/3/3 381/3/3 232/3/3
f 381/2/3 382/2/3 351/2/3
f 351/2/3 382/2/3 383/2/3
f 384/3/3 385/3/3 315/3/3
f 315/3/3 385/3/3 288/3/3
f 385/3/3 386/3/3 238/3/3
f 238/3/3 386/3/3 239/3/3
f 386/2/3 387/2/3 354/2/3
f 354/2/3 387/2/3 388/2/3
f 389/2/3 390/2/3 357/2/3
f 357/2/3 390/2/3 358/2/3
f 391/2/3 392/2/3 363/2/3
f 363/2/3 392/2/3 365/2/3
f 393/2/3 394/2/3 366/2/3
f 366/2/3 394/2/3 367/2/3
f 395/2/3 396/2/3 372/2/3
f 372/2/3 396/2/3 374/2/3
f 397/2/3 398/2/3 375/2/3
f 375/2/3 398/2/3 376/2/3
f 399/3/3 400/3/3 362/3/3
f 362/3/3 400/3/3 363/3/3
f 401/2/3 402/2/3 377/2/3
f 377/2/3 402/2/3 378/2/3
f 403/3/3 404/3/3 371/3/3
f 371/3/3 404/3/3 372/3/3
f 405/3/3 406/3/3 281/3/3
f 281/3/3 406/3/3 309/3/3
f 407/3/3 408/3/3 409/3/3
f 409/3/3 408/3/3 382/3/3
f 408/3/3 410/3/3 383/3/3
f 383/3/3 410/3/3 353/3/3
f 410/3/3 411/3/3 328/3/3
f 328/3/3 411/3/3 329/3/3
f 412/3/3 413/3/3 310/3/3
f 310/3/3 413/3/3 311/3/3
f 413/3/3 414/3/3 312/3/3
f 312/3/3 414/3/3 316/3/3
f 415/3/3 416/3/3 417/3/3
f 417/3/3 416/3/3 387/3/3
f 416/3/3 418/3/3 388/3/3
f 388/3/3 418/3/3 356/3/3
f 418/3/3 419/3/3 330/3/3
f 330/3/3 419/3/3 331/3/3
f 420/3/3 421/3/3 317/3/3
f 317/3/3 421/3/3 318/3/3
f 422/3/3 423/3/3 269/3/3
f 269/3/3 423/3/3 270/3/3
f 424/2/3 425/2/3 379/2/3
f 379/2/3 425/2/3 426/2/3
f 427/3/3 428/3/3 381/3/3
f 381/3/3 428/3/3 409/3/3
f 429/2/3 430/2/3 410/2/3
f 410/2/3 430/2/3 431/2/3
f 432/2/3 433/2/3 412/2/3
f 412/2/3 433/2/3 414/2/3
f 434/2/3 435/2/3 384/2/3
f 384/2/3 435/2/3 436/2/3
f 437/3/3 438/3/3 386/3/3
f 386/3/3 438/3/3 417/3/3
f 439/2/3 440/2/3 418/2/3
f 418/2/3 440/2/3 441/2/3
f 442/2/3 443/2/3 420/2/3
f 420/2/3 443/2/3 421/2/3
f 444/3/3 445/3/3 335/3/3
f 335/3/3 445/3/3 359/3/3
f 445/3/3 446/3/3 389/3/3
f 389/3/3 446/3/3 390/3/3
f 447/2/3 448/2/3 399/2/3
f 399/2/3 448/2/3 400/2/3
f 449/2/3 450/2/3 422/2/3
f 422/2/3 450/2/3 423/2/3
f 451/3/3 452/3/3 344/3/3
f 344/3/3 452/3/3 368/3/3
f 452/3/3 453/3/3 393/3/3
f 393/3/3 453/3/3 394/3/3
f 454/2/3 455/2/3 403/2/3
f 403/2/3 455/2/3 404/2/3
f 456/2/3 457/2/3 405/2/3
f 405/2/3 457/2/3 406/2/3
f 458/2/3 459/2/3 427/2/3
f 427/2/3 459/2/3 428/2/3
f 459/2/3 460/2/3 407/2/3
f 407/2/3 460/2/3 410/2/3
f 461/3/3 462/3/3 236/3/3
f 236/3/3 462/3/3 219/3/3
f 462/3/3 463/3/3 432/3/3
f 432/3/3 463/3/3 464/3/3
f 463/2/3 465/2/3 464/2/3
f 464/2/3 465/2/3 433/2/3
f 466/2/3 467/2/3 437/2/3
f 437/2/3 467/2/3 438/2/3
f 467/2/3 468/2/3 415/2/3
f 415/2/3 468/2/3 418/2/3
f 469/3/3 470/3/3 243/3/3
f 243/3/3 470/3/3 294/3/3
f 470/3/3 471/3/3 442/3/3
f 442/3/3 471/3/3 443/3/3
f 472/3/3 473/3/3 474/3/3
f 474/3/3 473/3/3 334/3/3
f 473/2/3 475/2/3 444/2/3
f 444/2/3 475/2/3 446/2/3
f 476/3/3 477/3/3 342/3/3
f 342/3/3 477/3/3 343/3/3
f 477/2/3 478/2/3 451/2/3
f 451/2/3 478/2/3 453/2/3
f 479/3/3 480/3/3 481/3/3
f 481/3/3 480/3/3 425/3/3
f 480/3/3 482/3/3 426/3/3
f 426/3/3 482/3/3 381/3/3
f 483/3/3 484/3/3 485/3/3
f 485/3/3 484/3/3 435/3/3
f 484/3/3 486/3/3 436/3/3
f 436/3/3 486/3/3 386/3/3
f 487/3/3 488/3/3 333/3/3
f 333/3/3 488/3/3 474/3/3
f 489/2/3 490/2/3 491/2/3
f 491/2/3 490/2/3 475/2/3
f 492/3/3 493/3/3 324/3/3
f 324/3/3 493/3/3 338/3/3
f 493/3/3 494/3/3 360/3/3
f 360/3/3 494/3/3 361/3/3
f 495/2/3 496/2/3 497/2/3
f 497/2/3 496/2/3 478/2/3
f 498/3/3 499/3/3 327/3/3
f 327/3/3 499/3/3 347/3/3
f 499/3/3 500/3/3 369/3/3
f 369/3/3 500/3/3 370/3/3
f 501/3/3 502/3/3 503/3/3
f 503/3/3 502/3/3 250/3/3
f 502/3/3 504/3/3 456/3/3
f 456/3/3 504/3/3 457/3/3
f 504/3/3 505/3/3 306/3/3
f 306/3/3 505/3/3 307/3/3
f 506/3/3 507/3/3 508/3/3
f 508/3/3 507/3/3 460/3/3
f 509/2/3 510/2/3 461/2/3
f 461/2/3 510/2/3 511/2/3
f 512/3/3 513/3/3 313/3/3
f 313/3/3 513/3/3 314/3/3
f 514/3/3 515/3/3 516/3/3
f 516/3/3 515/3/3 468/3/3
f 517/2/3 518/2/3 469/2/3
f 469/2/3 518/2/3 519/2/3
f 520/2/3 521/2/3 472/2/3
f 472/2/3 521/2/3 522/2/3
f 523/2/3 524/2/3 476/2/3
f 476/2/3 524/2/3 525/2/3
f 526/2/3 527/2/3 501/2/3
f 501/2/3 527/2/3 505/2/3
f 528/2/3 529/2/3 479/2/3
f 479/2/3 529/2/3 482/2/3
f 530/3/3 531/3/3 459/3/3
f 459/3/3 531/3/3 508/3/3
f 532/2/3 533/2/3 512/2/3
f 512/2/3 533/2/3 513/2/3
f 534/2/3 535/2/3 483/2/3
f 483/2/3 535/2/3 486/2/3
f 536/3/3 537/3/3 467/3/3
f 467/3/3 537/3/3 516/3/3
f 538/2/3 539/2/3 487/2/3
f 487/2/3 539/2/3 488/2/3
f 540/2/3 541/2/3 492/2/3
f 492/2/3 541/2/3 542/2/3
f 543/3/3 544/3/3 339/3/3
f 339/3/3 544/3/3 364/3/3
f 545/2/3 546/2/3 498/2/3
f 498/2/3 546/2/3 547/2/3
f 548/3/3 549/3/3 348/3/3
f 348/3/3 549/3/3 373/3/3
f 550/2/3 551/2/3 553/2/3
f 553/2/3 551/2/3 552/2/3
f 554/2/3 555/2/3 506/2/3
f 506/2/3 555/2/3 507/2/3
f 556/3/3 557/3/3 509/3/3
f 509/3/3 557/3/3 510/3/3
f 558/2/3 559/2/3 514/2/3
f 514/2/3 559/2/3 515/2/3
f 560/3/3 561/3/3 517/3/3
f 517/3/3 561/3/3 518/3/3
f 562/3/3 563/3/3 564/3/3
f 564/3/3 563/3/3 398/3/3
f 563/3/3 565/3/3 540/3/3
f 540/3/3 565/3/3 541/3/3
f 566/3/3 567/3/3 447/3/3
f 447/3/3 567/3/3 448/3/3
f 567/3/3 568/3/3 391/3/3
f 391/3/3 568/3/3 392/3/3
f 568/3/3 569/3/3 449/3/3
f 449/3/3 569/3/3 450/3/3
f 570/3/3 571/3/3 572/3/3
f 572/3/3 571/3/3 402/3/3
f 571/3/3 573/3/3 545/3/3
f 545/3/3 573/3/3 546/3/3
f 574/3/3 575/3/3 454/3/3
f 454/3/3 575/3/3 455/3/3
f 575/3/3 576/3/3 395/3/3
f 395/3/3 576/3/3 396/3/3
f 577/2/3 578/2/3 530/2/3
f 530/2/3 578/2/3 531/2/3
f 579/2/3 580/2/3 556/2/3
f 556/2/3 580/2/3 581/2/3
f 582/2/3 583/2/3 536/2/3
f 536/2/3 583/2/3 537/2/3
f 584/2/3 585/2/3 560/2/3
f 560/2/3 585/2/3 586/2/3
f 587/2/3 588/2/3 562/2/3
f 562/2/3 588/2/3 565/2/3
f 589/2/3 590/2/3 543/2/3
f 543/2/3 590/2/3 544/2/3
f 590/2/3 591/2/3 566/2/3
f 566/2/3 591/2/3 569/2/3
f 592/2/3 593/2/3 570/2/3
f 570/2/3 593/2/3 573/2/3
f 594/2/3 595/2/3 548/2/3
f 548/2/3 595/2/3 549/2/3
f 595/2/3 596/2/3 574/2/3
f 574/2/3 596/2/3 576/2/3
f 597/3/3 598/3/3 599/3/3
f 599/3/3 598/3/3 529/3/3
f 598/3/3 600/3/3 458/3/3
f 458/3/3 600/3/3 459/3/3
f 601/3/3 602/3/3 603/3/3
f 603/3/3 602/3/3 535/3/3
f 602/3/3 604/3/3 466/3/3
f 466/3/3 604/3/3 467/3/3
f 605/3/3 606/3/3 522/3/3
f 522/3/3 606/3/3 491/3/3
f 607/3/3 608/3/3 525/3/3
f 525/3/3 608/3/3 497/3/3
f 609/3/3 610/3/3 528/3/3
f 528/3/3 610/3/3 599/3/3
f 610/2/3 611/2/3 597/2/3
f 597/2/3 611/2/3 600/2/3
f 612/3/3 613/3/3 534/3/3
f 534/3/3 613/3/3 603/3/3
f 613/2/3 614/2/3 601/2/3
f 601/2/3 614/2/3 604/2/3
f 615/3/3 616/3/3 552/3/3
f 552/3/3 616/3/3 527/3/3
f 617/3/3 618/3/3 619/3/3
f 619/3/3 618/3/3 611/3/3
f 618/3/3 620/3/3 577/3/3
f 577/3/3 620/3/3 578/3/3
f 621/3/3 622/3/3 623/3/3
f 623/3/3 622/3/3 614/3/3
f 622/3/3 624/3/3 582/3/3
f 582/3/3 624/3/3 583/3/3
f 625/2/3 626/2/3 605/2/3
f 605/2/3 626/2/3 606/2/3
f 627/2/3 628/2/3 607/2/3
f 607/2/3 628/2/3 608/2/3
f 629/2/3 630/2/3 609/2/3
f 609/2/3 630/2/3 610/2/3
f 631/3/3 632/3/3 511/3/3
f 511/3/3 632/3/3 465/3/3
f 632/3/3 633/3/3 532/3/3
f 532/3/3 633/3/3 533/3/3
f 634/2/3 635/2/3 612/2/3
f 612/2/3 635/2/3 613/2/3
f 636/3/3 637/3/3 519/3/3
f 519/3/3 637/3/3 471/3/3
f 637/3/3 638/3/3 332/3/3
f 332/3/3 638/3/3 333/3/3
f 638/3/3 639/3/3 538/3/3
f 538/3/3 639/3/3 539/3/3
f 640/2/3 641/2/3 617/2/3
f 617/2/3 641/2/3 620/2/3
f 642/3/3 643/3/3 644/3/3
f 644/3/3 643/3/3 430/3/3
f 643/3/3 645/3/3 431/3/3
f 431/3/3 645/3/3 411/3/3
f 646/3/3 647/3/3 648/3/3
f 648/3/3 647/3/3 557/3/3
f 647/2/3 649/2/3 631/2/3
f 631/2/3 649/2/3 633/2/3
f 650/2/3 651/2/3 621/2/3
f 621/2/3 651/2/3 624/2/3
f 652/3/3 653/3/3 654/3/3
f 654/3/3 653/3/3 440/3/3
f 653/3/3 655/3/3 441/3/3
f 441/3/3 655/3/3 419/3/3
f 656/3/3 657/3/3 658/3/3
f 658/3/3 657/3/3 561/3/3
f 657/2/3 659/2/3 636/2/3
f 636/2/3 659/2/3 639/2/3
f 660/3/3 661/3/3 265/3/3
f 265/3/3 661/3/3 266/3/3
f 661/3/3 662/3/3 589/3/3
f 589/3/3 662/3/3 591/3/3
f 663/3/3 664/3/3 277/3/3
f 277/3/3 664/3/3 278/3/3
f 664/3/3 665/3/3 594/3/3
f 594/3/3 665/3/3 596/3/3
f 666/2/3 667/2/3 615/2/3
f 615/2/3 667/2/3 616/2/3
f 668/3/3 669/3/3 554/3/3
f 554/3/3 669/3/3 555/3/3
f 669/3/3 670/3/3 429/3/3
f 429/3/3 670/3/3 644/3/3
f 671/2/3 672/2/3 646/2/3
f 646/2/3 672/2/3 647/2/3
f 673/3/3 674/3/3 558/3/3
f 558/3/3 674/3/3 559/3/3
f 674/3/3 675/3/3 439/3/3
f 439/3/3 675/3/3 654/3/3
f 676/2/3 677/2/3 656/2/3
f 656/2/3 677/2/3 657/2/3
f 678/3/3 679/3/3 625/3/3
f 625/3/3 679/3/3 626/3/3
f 680/2/3 681/2/3 683/2/3
f 683/2/3 681/2/3 682/2/3
f 684/3/3 685/3/3 627/3/3
f 627/3/3 685/3/3 628/3/3
f 686/2/3 687/2/3 689/2/3
f 689/2/3 687/2/3 688/2/3
f 690/3/3 691/3/3 629/3/3
f 629/3/3 691/3/3 630/3/3
f 691/3/3 692/3/3 610/3/3
f 610/3/3 692/3/3 619/3/3
f 692/3/3 693/3/3 640/3/3
f 640/3/3 693/3/3 641/3/3
f 694/2/3 695/2/3 642/2/3
f 642/2/3 695/2/3 645/2/3
f 696/3/3 697/3/3 634/3/3
f 634/3/3 697/3/3 635/3/3
f 697/3/3 698/3/3 613/3/3
f 613/3/3 698/3/3 623/3/3
f 698/3/3 699/3/3 650/3/3
f 650/3/3 699/3/3 651/3/3
f 700/2/3 701/2/3 652/2/3
f 652/2/3 701/2/3 655/2/3
f 702/2/3 703/2/3 678/2/3
f 678/2/3 703/2/3 704/2/3
f 705/3/3 706/3/3 587/3/3
f 587/3/3 706/3/3 588/3/3
f 707/2/3 708/2/3 660/2/3
f 660/2/3 708/2/3 683/2/3
f 708/3/3 709/3/3 680/3/3
f 680/3/3 709/3/3 681/3/3
f 709/3/3 710/3/3 682/3/3
f 682/3/3 710/3/3 662/3/3
f 711/2/3 712/2/3 684/2/3
f 684/2/3 712/2/3 713/2/3
f 714/3/3 715/3/3 592/3/3
f 592/3/3 715/3/3 593/3/3
f 716/2/3 717/2/3 663/2/3
f 663/2/3 717/2/3 689/2/3
f 717/3/3 718/3/3 686/3/3
f 686/3/3 718/3/3 687/3/3
f 718/3/3 719/3/3 688/3/3
f 688/3/3 719/3/3 665/3/3
f 720/2/3 721/2/3 692/2/3
f 692/2/3 721/2/3 722/2/3
f 723/2/3 724/2/3 668/2/3
f 668/2/3 724/2/3 670/2/3
f 725/3/3 726/3/3 727/3/3
f 727/3/3 726/3/3 649/3/3
f 728/2/3 729/2/3 698/2/3
f 698/2/3 729/2/3 730/2/3
f 731/2/3 732/2/3 673/2/3
f 673/2/3 732/2/3 675/2/3
f 733/3/3 734/3/3 735/3/3
f 735/3/3 734/3/3 659/3/3
f 736/2/3 737/2/3 705/2/3
f 705/2/3 737/2/3 738/2/3
f 739/3/3 740/3/3 741/3/3
f 741/3/3 740/3/3 708/3/3
f 742/2/3 743/2/3 709/2/3
f 709/2/3 743/2/3 744/2/3
f 745/2/3 746/2/3 714/2/3
f 714/2/3 746/2/3 747/2/3
f 748/3/3 749/3/3 750/3/3
f 750/3/3 749/3/3 717/3/3
f 751/2/3 752/2/3 718/2/3
f 718/2/3 752/2/3 719/2/3
f 753/3/3 754/3/3 550/3/3
f 550/3/3 754/3/3 551/3/3
f 754/3/3 755/3/3 666/3/3
f 666/3/3 755/3/3 667/3/3
f 756/2/3 757/2/3 691/2/3
f 691/2/3 757/2/3 692/2/3
f 758/3/3 759/3/3 760/3/3
f 760/3/3 759/3/3 695/3/3
f 759/3/3 761/3/3 579/3/3
f 579/3/3 761/3/3 580/3/3
f 762/2/3 763/2/3 725/2/3
f 725/2/3 763/2/3 764/2/3
f 765/2/3 766/2/3 697/2/3
f 697/2/3 766/2/3 698/2/3
f 767/3/3 768/3/3 769/3/3
f 769/3/3 768/3/3 701/3/3
f 768/3/3 770/3/3 584/3/3
f 584/3/3 770/3/3 585/3/3
f 771/2/3 772/2/3 733/2/3
f 733/2/3 772/2/3 773/2/3
f 774/2/3 775/2/3 739/2/3
f 739/2/3 775/2/3 740/2/3
f 775/2/3 776/2/3 708/2/3
f 708/2/3 776/2/3 709/2/3
f 777/2/3 778/2/3 748/2/3
f 748/2/3 778/2/3 749/2/3
f 778/2/3 779/2/3 717/2/3
f 717/2/3 779/2/3 718/2/3
f 780/2/3 781/2/3 690/2/3
f 690/2/3 781/2/3 691/2/3
f 782/2/3 783/2/3 696/2/3
f 696/2/3 783/2/3 697/2/3
f 784/2/3 785/2/3 753/2/3
f 753/2/3 785/2/3 755/2/3
f 786/2/3 787/2/3 758/2/3
f 758/2/3 787/2/3 761/2/3
f 788/2/3 789/2/3 767/2/3
f 767/2/3 789/2/3 770/2/3
f 790/3/3 791/3/3 780/3/3
f 780/3/3 791/3/3 781/3/3
f 791/3/3 792/3/3 756/3/3
f 756/3/3 792/3/3 757/3/3
f 792/3/3 793/3/3 720/3/3
f 720/3/3 793/3/3 721/3/3
f 794/3/3 795/3/3 671/3/3
f 671/3/3 795/3/3 672/3/3
f 795/3/3 796/3/3 647/3/3
f 647/3/3 796/3/3 727/3/3
f 796/3/3 797/3/3 762/3/3
f 762/3/3 797/3/3 763/3/3
f 798/3/3 799/3/3 782/3/3
f 782/3/3 799/3/3 783/3/3
f 799/3/3 800/3/3 765/3/3
f 765/3/3 800/3/3 766/3/3
f 800/3/3 801/3/3 728/3/3
f 728/3/3 801/3/3 729/3/3
f 802/3/3 803/3/3 676/3/3
f 676/3/3 803/3/3 677/3/3
f 803/3/3 804/3/3 657/3/3
f 657/3/3 804/3/3 735/3/3
f 804/3/3 805/3/3 771/3/3
f 771/3/3 805/3/3 772/3/3
f 806/3/3 807/3/3 702/3/3
f 702/3/3 807/3/3 703/3/3
f 808/3/3 809/3/3 489/3/3
f 489/3/3 809/3/3 490/3/3
f 809/3/3 810/3/3 397/3/3
f 397/3/3 810/3/3 564/3/3
f 811/3/3 812/3/3 813/3/3
f 813/3/3 812/3/3 737/3/3
f 812/3/3 814/3/3 738/3/3
f 738/3/3 814/3/3 706/3/3
f 815/3/3 816/3/3 711/3/3
f 711/3/3 816/3/3 712/3/3
f 817/3/3 818/3/3 495/3/3
f 495/3/3 818/3/3 496/3/3
f 818/3/3 819/3/3 401/3/3
f 401/3/3 819/3/3 572/3/3
f 820/3/3 821/3/3 822/3/3
f 822/3/3 821/3/3 746/3/3
f 821/3/3 823/3/3 747/3/3
f 747/3/3 823/3/3 715/3/3
f 824/2/3 825/2/3 790/2/3
f 790/2/3 825/2/3 793/2/3
f 826/2/3 827/2/3 798/2/3
f 798/2/3 827/2/3 801/2/3
f 828/2/3 829/2/3 811/2/3
f 811/2/3 829/2/3 814/2/3
f 830/3/3 831/3/3 832/3/3
f 832/3/3 831/3/3 524/3/3
f 833/2/3 834/2/3 820/2/3
f 820/2/3 834/2/3 823/2/3
f 835/3/3 836/3/3 837/3/3
f 837/3/3 836/3/3 785/3/3
f 838/2/3 839/2/3 840/2/3
f 840/2/3 839/2/3 825/2/3
f 841/3/3 842/3/3 843/3/3
f 843/3/3 842/3/3 787/3/3
f 844/2/3 845/2/3 794/2/3
f 794/2/3 845/2/3 797/2/3
f 846/2/3 847/2/3 848/2/3
f 848/2/3 847/2/3 827/2/3
f 849/3/3 850/3/3 851/3/3
f 851/3/3 850/3/3 789/3/3
f 852/2/3 853/2/3 802/2/3
f 802/2/3 853/2/3 805/2/3
f 854/2/3 855/2/3 806/2/3
f 806/2/3 855/2/3 807/2/3
f 856/2/3 857/2/3 808/2/3
f 808/2/3 857/2/3 810/2/3
f 858/2/3 859/2/3 830/2/3
f 830/2/3 859/2/3 831/2/3
f 859/2/3 860/2/3 815/2/3
f 815/2/3 860/2/3 816/2/3
f 861/2/3 862/2/3 817/2/3
f 817/2/3 862/2/3 819/2/3
f 863/2/3 864/2/3 835/2/3
f 835/2/3 864/2/3 836/2/3
f 864/3/3 865/3/3 424/3/3
f 424/3/3 865/3/3 481/3/3
f 865/3/3 866/3/3 824/3/3
f 824/3/3 866/3/3 840/3/3
f 867/3/3 868/3/3 723/3/3
f 723/3/3 868/3/3 724/3/3
f 869/2/3 870/2/3 841/2/3
f 841/2/3 870/2/3 842/2/3
f 871/3/3 872/3/3 764/3/3
f 764/3/3 872/3/3 726/3/3
f 873/3/3 874/3/3 731/3/3
f 731/3/3 874/3/3 732/3/3
f 875/2/3 876/2/3 849/2/3
f 849/2/3 876/2/3 850/2/3
f 877/3/3 878/3/3 773/3/3
f 773/3/3 878/3/3 734/3/3
f 879/3/3 880/3/3 854/3/3
f 854/3/3 880/3/3 855/3/3
f 880/3/3 881/3/3 704/3/3
f 704/3/3 881/3/3 679/3/3
f 882/3/3 883/3/3 884/3/3
f 884/3/3 883/3/3 857/3/3
f 883/3/3 885/3/3 736/3/3
f 736/3/3 885/3/3 813/3/3
f 885/3/3 886/3/3 828/3/3
f 828/3/3 886/3/3 829/3/3
f 886/3/3 887/3/3 542/3/3
f 542/3/3 887/3/3 494/3/3
f 887/3/3 888/3/3 707/3/3
f 707/3/3 888/3/3 741/3/3
f 889/3/3 890/3/3 523/3/3
f 523/3/3 890/3/3 832/3/3
f 890/3/3 891/3/3 858/3/3
f 858/3/3 891/3/3 860/3/3
f 891/3/3 892/3/3 713/3/3
f 713/3/3 892/3/3 685/3/3
f 893/3/3 894/3/3 895/3/3
f 895/3/3 894/3/3 862/3/3
f 894/3/3 896/3/3 745/3/3
f 745/3/3 896/3/3 822/3/3
f 896/3/3 897/3/3 833/3/3
f 833/3/3 897/3/3 834/3/3
f 897/3/3 898/3/3 547/3/3
f 547/3/3 898/3/3 500/3/3
f 898/3/3 899/3/3 716/3/3
f 716/3/3 899/3/3 750/3/3
f 900/3/3 901/3/3 784/3/3
f 784/3/3 901/3/3 837/3/3
f 902/2/3 903/2/3 864/2/3
f 864/2/3 903/2/3 904/2/3
f 905/3/3 906/3/3 581/3/3
f 581/3/3 906/3/3 648/3/3
f 907/2/3 908/2/3 871/2/3
f 871/2/3 908/2/3 872/2/3
f 909/3/3 910/3/3 586/3/3
f 586/3/3 910/3/3 658/3/3
f 911/2/3 912/2/3 877/2/3
f 877/2/3 912/2/3 878/2/3
f 913/2/3 914/2/3 882/2/3
f 882/2/3 914/2/3 915/2/3
f 916/2/3 917/2/3 893/2/3
f 893/2/3 917/2/3 918/2/3
f 919/2/3 920/2/3 900/2/3
f 900/2/3 920/2/3 901/2/3
f 921/2/3 922/2/3 905/2/3
f 905/2/3 922/2/3 906/2/3
f 923/2/3 924/2/3 909/2/3
f 909/2/3 924/2/3 910/2/3
f 925/2/3 926/2/3 879/2/3
f 879/2/3 926/2/3 881/2/3
f 927/2/3 928/2/3 886/2/3
f 886/2/3 928/2/3 888/2/3
f 929/2/3 930/2/3 889/2/3
f 889/2/3 930/2/3 892/2/3
f 931/2/3 932/2/3 897/2/3
f 897/2/3 932/2/3 899/2/3
f 933/2/3 934/2/3 867/2/3
f 867/2/3 934/2/3 935/2/3
f 936/2/3 937/2/3 873/2/3
f 873/2/3 937/2/3 938/2/3
f 206/3/3 939/3/3 203/3/3
f 203/3/3 939/3/3 503/3/3
f 939/3/3 940/3/3 526/3/3
f 526/3/3 940/3/3 553/3/3
f 940/3/3 941/3/3 919/3/3
f 919/3/3 941/3/3 920/3/3
f 941/3/3 942/3/3 863/3/3
f 863/3/3 942/3/3 864/3/3
f 942/3/3 943/3/3 902/3/3
f 902/3/3 943/3/3 903/3/3
f 943/3/3 944/3/3 904/3/3
f 904/3/3 944/3/3 866/3/3
f 944/3/3 945/3/3 838/3/3
f 838/3/3 945/3/3 839/3/3
f 945/3/3 946/3/3 722/3/3
f 722/3/3 946/3/3 693/3/3
f 946/3/3 947/3/3 933/3/3
f 933/3/3 947/3/3 934/3/3
f 947/3/3 948/3/3 935/3/3
f 935/3/3 948/3/3 868/3/3
f 948/3/3 949/3/3 694/3/3
f 694/3/3 949/3/3 760/3/3
f 949/3/3 950/3/3 786/3/3
f 786/3/3 950/3/3 843/3/3
f 950/3/3 951/3/3 869/3/3
f 869/3/3 951/3/3 870/3/3
f 951/3/3 952/3/3 921/3/3
f 921/3/3 952/3/3 922/3/3
f 952/3/3 953/3/3 844/3/3
f 844/3/3 953/3/3 845/3/3
f 953/3/3 954/3/3 907/3/3
f 907/3/3 954/3/3 908/3/3
f 954/3/3 955/3/3 434/3/3
f 434/3/3 955/3/3 485/3/3
f 955/3/3 956/3/3 826/3/3
f 826/3/3 956/3/3 848/3/3
f 956/3/3 957/3/3 846/3/3
f 846/3/3 957/3/3 847/3/3
f 957/3/3 958/3/3 730/3/3
f 730/3/3 958/3/3 699/3/3
f 958/3/3 959/3/3 936/3/3
f 936/3/3 959/3/3 937/3/3
f 959/3/3 960/3/3 938/3/3
f 938/3/3 960/3/3 874/3/3
f 960/3/3 961/3/3 700/3/3
f 700/3/3 961/3/3 769/3/3
f 961/3/3 962/3/3 788/3/3
f 788/3/3 962/3/3 851/3/3
f 962/3/3 963/3/3 875/3/3
f 875/3/3 963/3/3 876/3/3
f 963/3/3 964/3/3 923/3/3
f 923/3/3 964/3/3 924/3/3
f 964/3/3 965/3/3 852/3/3
f 852/3/3 965/3/3 853/3/3
f 965/3/3 966/3/3 911/3/3
f 911/3/3 966/3/3 912/3/3
f 966/3/3 967/3/3 520/3/3
f 520/3/3 967/3/3 521/3/3
f 967/3/3 968/3/3 925/3/3
f 925/3/3 968/3/3 926/3/3
f 968/3/3 969/3/3 856/3/3
f 856/3/3 969/3/3 884/3/3
f 969/3/3 970/3/3 913/3/3
f 913/3/3 970/3/3 914/3/3
f 970/3/3 971/3/3 915/3/3
f 915/3/3 971/3/3 886/3/3
f 971/3/3 972/3/3 927/3/3
f 927/3/3 972/3/3 928/3/3
f 972/3/3 973/3/3 774/3/3
f 774/3/3 973/3/3 776/3/3
f 973/3/3 974/3/3 742/3/3
f 742/3/3 974/3/3 743/3/3
f 974/3/3 975/3/3 744/3/3
f 744/3/3 975/3/3 710/3/3
f 975/3/3 976/3/3 929/3/3
f 929/3/3 976/3/3 930/3/3
f 976/3/3 977/3/3 861/3/3
f 861/3/3 977/3/3 895/3/3
f 977/3/3 978/3/3 916/3/3
f 916/3/3 978/3/3 917/3/3
f 978/3/3 979/3/3 918/3/3
f 918/3/3 979/3/3 897/3/3
f 979/3/3 980/3/3 931/3/3
f 931/3/3 980/3/3 932/3/3
f 980/3/3 981/3/3 777/3/3
f 777/3/3 981/3/3 779/3/3
f 981/3/3 205/3/3 751/3/3
f 751/3/3 205/3/3 752/3/3
f 3/1/3 982/1/3 192/1/3
f 192/1/3 982/1/3 189/1/3
f 7/1/3 983/1/3 207/1/3
f 207/1/3 983/1/3 208/1/3
f 11/1/3 10/1/3 2/1/3
f 2/1/3 10/1/3 19/1/3
f 15/1/3 14/1/3 6/1/3
f 6/1/3 14/1/3 23/1/3
f 27/1/3 26/1/3 18/1/3
f 18/1/3 26/1/3 35/1/3
f 31/1/3 30/1/3 22/1/3
f 22/1/3 30/1/3 39/1/3
f 43/1/3 42/1/3 34/1/3
f 34/1/3 42/1/3 51/1/3
f 47/1/3 46/1/3 38/1/3
f 38/1/3 46/1/3 55/1/3
f 59/1/3 58/1/3 50/1/3
f 50/1/3 58/1/3 67/1/3
f 63/1/3 62/1/3 54/1/3
f 54/1/3 62/1/3 71/1/3
f 75/1/3 74/1/3 66/1/3
f 66/1/3 74/1/3 83/1/3
f 79/1/3 78/1/3 70/1/3
f 70/1/3 78/1/3 87/1/3
f 91/1/3 90/1/3 82/1/3
f 82/1/3 90/1/3 99/1/3
f 95/1/3 94/1/3 86/1/3
f 86/1/3 94/1/3 103/1/3
f 107/1/3 106/1/3 98/1/3
f 98/1/3 106/1/3 115/1/3
f 111/1/3 110/1/3 102/1/3
f 102/1/3 110/1/3 119/1/3
f 123/1/3 122/1/3 114/1/3
f 114/1/3 122/1/3 131/1/3
f 127/1/3 126/1/3 118/1/3
f 118/1/3 126/1/3 135/1/3
f 139/1/3 138/1/3 130/1/3
f 130/1/3 138/1/3 147/1/3
f 143/1/3 142/1/3 134/1/3
f 134/1/3 142/1/3 151/1/3
f 155/1/3 154/1/3 146/1/3
f 146/1/3 154/1/3 163/1/3
f 159/1/3 158/1/3 150/1/3
f 150/1/3 158/1/3 167/1/3
f 171/1/3 170/1/3 162/1/3
f 162/1/3 170/1/3 179/1/3
f 175/1/3 174/1/3 166/1/3
f 166/1/3 174/1/3 183/1/3
f 187/1/3 186/1/3 178/1/3
f 178/1/3 186/1/3 982/1/3
f 195/1/3 194/1/3 182/1/3
f 182/1/3 194/1/3 983/1/3
f 984/3/4 985/3/4 986/3/4
f 986/3/4 985/3/4 201/3/4
f 987/2/4 984/2/4 989/2/4
f 989/2/4 984/2/4 988/2/4
f 990/3/4 991/3/4 993/3/4
f 993/3/4 991/3/4 992/3/4
f 994/3/4 995/3/4 997/3/4
f 997/3/4 995/3/4 996/3/4
f 997/2/4 996/2/4 999/2/4
f 999/2/4 996/2/4 998/2/4
f 1000/3/4 1001/3/4 1003/3/4
f 1003/3/4 1001/3/4 1002/3/4
f 1004/3/4 1005/3/4 1006/3/4
f 1006/3/4 1005/3/4 986/3/4
f 1007/3/4 1008/3/4 1009/3/4
f 1009/3/4 1008/3/4 985/3/4
f 1010/2/4 990/2/4 1012/2/4
f 1012/2/4 990/2/4 1011/2/4
f 1013/2/4 992/2/4 1014/2/4
f 1014/2/4 992/2/4 995/2/4
f 1014/2/4 994/2/4 1016/2/4
f 1016/2/4 994/2/4 1015/2/4
f 1017/2/4 1000/2/4 1019/2/4
f 1019/2/4 1000/2/4 1018/2/4
f 1020/2/4 1002/2/4 1021/2/4
f 1021/2/4 1002/2/4 1005/2/4
f 1021/2/4 1004/2/4 1022/2/4
f 1022/2/4 1004/2/4 1006/2/4
f 1023/2/4 1024/2/4 1026/2/4
f 1026/2/4 1024/2/4 1025/2/4
f 1027/2/4 1028/2/4 1030/2/4
f 1030/2/4 1028/2/4 1029/2/4
f 1031/2/4 1032/2/4 1034/2/4
f 1034/2/4 1032/2/4 1033/2/4
f 1035/2/4 1036/2/4 1038/2/4
f 1038/2/4 1036/2/4 1037/2/4
f 1039/2/4 1040/2/4 1042/2/4
f 1042/2/4 1040/2/4 1041/2/4
f 1043/2/4 1044/2/4 1046/2/4
f 1046/2/4 1044/2/4 1045/2/4
f 1047/2/4 1007/2/4 1049/2/4
f 1049/2/4 1007/2/4 1048/2/4
f 1050/3/4 1051/3/4 1052/3/4
f 1052/3/4 1051/3/4 1024/3/4
f 1053/3/4 1054/3/4 1055/3/4
f 1055/3/4 1054/3/4 1028/3/4
f 1056/3/4 1057/3/4 1058/3/4
f 1058/3/4 1057/3/4 1030/3/4
f 1058/3/4 1029/3/4 1060/3/4
f 1060/3/4 1029/3/4 1059/3/4
f 1060/2/4 1059/2/4 1062/2/4
f 1062/2/4 1059/2/4 1061/2/4
f 1063/3/4 1064/3/4 1065/3/4
f 1065/3/4 1064/3/4 1032/3/4
f 1066/3/4 1067/3/4 1068/3/4
f 1068/3/4 1067/3/4 1036/3/4
f 1069/3/4 1070/3/4 1071/3/4
f 1071/3/4 1070/3/4 1038/3/4
f 1071/3/4 1037/3/4 1072/3/4
f 1072/3/4 1037/3/4 1009/3/4
f 1072/3/4 987/3/4 1073/3/4
f 1073/3/4 987/3/4 989/3/4
f 1074/3/4 1010/3/4 1075/3/4
f 1075/3/4 1010/3/4 1012/3/4
f 1075/3/4 1011/3/4 1076/3/4
f 1076/3/4 1011/3/4 1040/3/4
f 1077/3/4 1078/3/4 1079/3/4
f 1079/3/4 1078/3/4 999/3/4
f 1080/3/4 1017/3/4 1081/3/4
f 1081/3/4 1017/3/4 1019/3/4
f 1081/3/4 1018/3/4 1082/3/4
f 1082/3/4 1018/3/4 1044/3/4
f 1083/2/4 1053/2/4 1084/2/4
f 1084/2/4 1053/2/4 1055/2/4
f 1085/2/4 1066/2/4 1086/2/4
f 1086/2/4 1066/2/4 1068/2/4
f 1087/2/4 1088/2/4 1090/2/4
f 1090/2/4 1088/2/4 1089/2/4
f 1091/3/4 1015/3/4 1092/3/4
f 1092/3/4 1015/3/4 1078/3/4
f 1092/2/4 1077/2/4 1094/2/4
f 1094/2/4 1077/2/4 1093/2/4
f 1095/2/4 1096/2/4 1097/2/4
f 1097/2/4 1096/2/4 1052/2/4
f 1098/3/4 1025/3/4 1099/3/4
f 1099/3/4 1025/3/4 1054/3/4
f 1100/2/4 1056/2/4 1101/2/4
f 1101/2/4 1056/2/4 1060/2/4
f 1102/2/4 1103/2/4 1104/2/4
f 1104/2/4 1103/2/4 1065/2/4
f 1105/3/4 1033/3/4 1106/3/4
f 1106/3/4 1033/3/4 1067/3/4
f 1107/2/4 1069/2/4 1109/2/4
f 1109/2/4 1069/2/4 1108/2/4
f 1110/2/4 1074/2/4 1111/2/4
f 1111/2/4 1074/2/4 1076/2/4
f 1112/2/4 1091/2/4 1113/2/4
f 1113/2/4 1091/2/4 1092/2/4
f 1114/2/4 1080/2/4 1115/2/4
f 1115/2/4 1080/2/4 1082/2/4
f 1116/2/4 1050/2/4 1117/2/4
f 1117/2/4 1050/2/4 1096/2/4
f 1118/2/4 1098/2/4 1120/2/4
f 1120/2/4 1098/2/4 1119/2/4
f 1121/3/4 1027/3/4 1122/3/4
f 1122/3/4 1027/3/4 1057/3/4
f 1123/2/4 1063/2/4 1124/2/4
f 1124/2/4 1063/2/4 1103/2/4
f 1125/2/4 1105/2/4 1127/2/4
f 1127/2/4 1105/2/4 1126/2/4
f 1128/3/4 1035/3/4 1129/3/4
f 1129/3/4 1035/3/4 1070/3/4
f 1130/3/4 1131/3/4 1132/3/4
f 1132/3/4 1131/3/4 1042/3/4
f 1132/3/4 1041/3/4 1133/3/4
f 1133/3/4 1041/3/4 993/3/4
f 1134/3/4 1135/3/4 1136/3/4
f 1136/3/4 1135/3/4 1046/3/4
f 1136/3/4 1045/3/4 1137/3/4
f 1137/3/4 1045/3/4 1003/3/4
f 1138/3/4 1083/3/4 1139/3/4
f 1139/3/4 1083/3/4 1084/3/4
f 1140/3/4 1085/3/4 1141/3/4
f 1141/3/4 1085/3/4 1086/3/4
f 1142/3/4 1143/3/4 1144/3/4
f 1144/3/4 1143/3/4 1016/3/4
f 1145/3/4 1146/3/4 1147/3/4
f 1147/3/4 1146/3/4 1022/3/4
f 1148/2/4 1121/2/4 1150/2/4
f 1150/2/4 1121/2/4 1149/2/4
f 1151/2/4 1128/2/4 1153/2/4
f 1153/2/4 1128/2/4 1152/2/4
f 1154/2/4 1130/2/4 1155/2/4
f 1155/2/4 1130/2/4 1133/2/4
f 1156/2/4 1142/2/4 1158/2/4
f 1158/2/4 1142/2/4 1157/2/4
f 1159/2/4 1134/2/4 1160/2/4
f 1160/2/4 1134/2/4 1137/2/4
f 1161/2/4 1145/2/4 1163/2/4
f 1163/2/4 1145/2/4 1162/2/4
f 1164/3/4 1165/3/4 1166/3/4
f 1166/3/4 1165/3/4 1049/3/4
f 1166/3/4 1048/3/4 1167/3/4
f 1167/3/4 1048/3/4 1051/3/4
f 1167/3/4 1116/3/4 1168/3/4
f 1168/3/4 1116/3/4 1117/3/4
f 1169/2/4 1138/2/4 1170/2/4
f 1170/2/4 1138/2/4 1139/2/4
f 1171/3/4 1172/3/4 1173/3/4
f 1173/3/4 1172/3/4 1062/3/4
f 1173/3/4 1061/3/4 1174/3/4
f 1174/3/4 1061/3/4 1064/3/4
f 1174/3/4 1123/3/4 1175/3/4
f 1175/3/4 1123/3/4 1124/3/4
f 1176/2/4 1140/2/4 1177/2/4
f 1177/2/4 1140/2/4 1141/2/4
f 1178/3/4 1047/3/4 1179/3/4
f 1179/3/4 1047/3/4 1165/3/4
f 1180/3/4 1108/3/4 1181/3/4
f 1181/3/4 1108/3/4 1088/3/4
f 1181/3/4 1087/3/4 1182/3/4
f 1182/3/4 1087/3/4 1090/3/4
f 1183/3/4 1184/3/4 1185/3/4
f 1185/3/4 1184/3/4 1111/3/4
f 1185/3/4 1039/3/4 1186/3/4
f 1186/3/4 1039/3/4 1131/3/4
f 1186/3/4 1154/3/4 1187/3/4
f 1187/3/4 1154/3/4 1155/3/4
f 1188/3/4 1092/3/4 1189/3/4
f 1189/3/4 1092/3/4 1094/3/4
f 1190/3/4 1191/3/4 1192/3/4
f 1192/3/4 1191/3/4 1115/3/4
f 1192/3/4 1043/3/4 1193/3/4
f 1193/3/4 1043/3/4 1135/3/4
f 1193/3/4 1159/3/4 1194/3/4
f 1194/3/4 1159/3/4 1160/3/4
f 1195/2/4 1164/2/4 1196/2/4
f 1196/2/4 1164/2/4 1168/2/4
f 1197/3/4 1148/3/4 1198/3/4
f 1198/3/4 1148/3/4 1150/3/4
f 1198/3/4 1149/3/4 1199/3/4
f 1199/3/4 1149/3/4 1122/3/4
f 1200/2/4 1171/2/4 1201/2/4
f 1201/2/4 1171/2/4 1175/2/4
f 1202/3/4 1151/3/4 1203/3/4
f 1203/3/4 1151/3/4 1153/3/4
f 1203/3/4 1152/3/4 1204/3/4
f 1204/3/4 1152/3/4 1129/3/4
f 1205/2/4 1180/2/4 1206/2/4
f 1206/2/4 1180/2/4 1182/2/4
f 1207/2/4 1183/2/4 1209/2/4
f 1209/2/4 1183/2/4 1208/2/4
f 1209/3/4 1208/3/4 1210/3/4
f 1210/3/4 1208/3/4 1187/3/4
f 1211/2/4 1188/2/4 1212/2/4
f 1212/2/4 1188/2/4 1189/2/4
f 1213/2/4 1190/2/4 1215/2/4
f 1215/2/4 1190/2/4 1214/2/4
f 1215/3/4 1214/3/4 1216/3/4
f 1216/3/4 1214/3/4 1194/3/4
f 1217/2/4 1178/2/4 1218/2/4
f 1218/2/4 1178/2/4 1179/2/4
f 1219/2/4 1198/2/4 1220/2/4
f 1220/2/4 1198/2/4 1199/2/4
f 1221/3/4 1222/3/4 1223/3/4
f 1223/3/4 1222/3/4 1101/3/4
f 1223/3/4 1060/3/4 1224/3/4
f 1224/3/4 1060/3/4 1172/3/4
f 1225/2/4 1203/2/4 1226/2/4
f 1226/2/4 1203/2/4 1204/2/4
f 1227/3/4 1228/3/4 1229/3/4
f 1229/3/4 1228/3/4 1109/3/4
f 1230/3/4 1231/3/4 1232/3/4
f 1232/3/4 1231/3/4 1206/3/4
f 1232/3/4 1089/3/4 1233/3/4
f 1233/3/4 1089/3/4 1073/3/4
f 1233/3/4 988/3/4 1234/3/4
f 1234/3/4 988/3/4 991/3/4
f 1235/2/4 1236/2/4 1237/2/4
f 1237/2/4 1236/2/4 1210/2/4
f 1238/3/4 1239/3/4 1240/3/4
f 1240/3/4 1239/3/4 1212/3/4
f 1240/3/4 1093/3/4 1241/3/4
f 1241/3/4 1093/3/4 1079/3/4
f 1241/3/4 998/3/4 1242/3/4
f 1242/3/4 998/3/4 1001/3/4
f 1243/2/4 1244/2/4 1245/2/4
f 1245/2/4 1244/2/4 1216/2/4
f 1246/3/4 1247/3/4 1248/3/4
f 1248/3/4 1247/3/4 1120/3/4
f 1248/3/4 1119/3/4 1249/3/4
f 1249/3/4 1119/3/4 1099/3/4
f 1250/2/4 1197/2/4 1251/2/4
f 1251/2/4 1197/2/4 1198/2/4
f 1252/3/4 1253/3/4 1254/3/4
f 1254/3/4 1253/3/4 1127/3/4
f 1254/3/4 1126/3/4 1255/3/4
f 1255/3/4 1126/3/4 1106/3/4
f 1256/2/4 1202/2/4 1257/2/4
f 1257/2/4 1202/2/4 1203/2/4
f 1258/3/4 1013/3/4 1259/3/4
f 1259/3/4 1013/3/4 1143/3/4
f 1259/3/4 1156/3/4 1260/3/4
f 1260/3/4 1156/3/4 1158/3/4
f 1260/3/4 1157/3/4 1261/3/4
f 1261/3/4 1157/3/4 1144/3/4
f 1262/3/4 1020/3/4 1263/3/4
f 1263/3/4 1020/3/4 1146/3/4
f 1263/3/4 1161/3/4 1264/3/4
f 1264/3/4 1161/3/4 1163/3/4
f 1264/3/4 1162/3/4 1265/3/4
f 1265/3/4 1162/3/4 1147/3/4
f 1266/2/4 1221/2/4 1267/2/4
f 1267/2/4 1221/2/4 1224/2/4
f 1268/2/4 1227/2/4 1269/2/4
f 1269/2/4 1227/2/4 1229/2/4
f 1270/2/4 1230/2/4 1271/2/4
f 1271/2/4 1230/2/4 1234/2/4
f 1272/3/4 1235/3/4 1273/3/4
f 1273/3/4 1235/3/4 1237/3/4
f 1274/2/4 1238/2/4 1275/2/4
f 1275/2/4 1238/2/4 1242/2/4
f 1276/3/4 1243/3/4 1277/3/4
f 1277/3/4 1243/3/4 1245/3/4
f 1278/3/4 1279/3/4 1280/3/4
f 1280/3/4 1279/3/4 1196/3/4
f 1280/3/4 1095/3/4 1281/3/4
f 1281/3/4 1095/3/4 1097/3/4
f 1282/2/4 1246/2/4 1283/2/4
f 1283/2/4 1246/2/4 1249/2/4
f 1284/3/4 1285/3/4 1286/3/4
f 1286/3/4 1285/3/4 1201/3/4
f 1286/3/4 1102/3/4 1287/3/4
f 1287/3/4 1102/3/4 1104/3/4
f 1288/2/4 1252/2/4 1289/2/4
f 1289/2/4 1252/2/4 1255/2/4
f 1290/3/4 1291/3/4 1292/3/4
f 1292/3/4 1291/3/4 1273/3/4
f 1292/2/4 1258/2/4 1293/2/4
f 1293/2/4 1258/2/4 1261/2/4
f 1294/3/4 1295/3/4 1296/3/4
f 1296/3/4 1295/3/4 1277/3/4
f 1296/2/4 1262/2/4 1297/2/4
f 1297/2/4 1262/2/4 1265/2/4
f 1298/3/4 1282/3/4 1299/3/4
f 1299/3/4 1282/3/4 1283/3/4
f 1299/3/4 1169/3/4 1300/3/4
f 1300/3/4 1169/3/4 1170/3/4
f 1301/3/4 1200/3/4 1302/3/4
f 1302/3/4 1200/3/4 1285/3/4
f 1303/3/4 1288/3/4 1304/3/4
f 1304/3/4 1288/3/4 1289/3/4
f 1304/3/4 1176/3/4 1305/3/4
f 1305/3/4 1176/3/4 1177/3/4
f 1306/3/4 1205/3/4 1307/3/4
f 1307/3/4 1205/3/4 1231/3/4
f 1308/3/4 1309/3/4 1310/3/4
f 1310/3/4 1309/3/4 1271/3/4
f 1311/2/4 1272/2/4 1312/2/4
f 1312/2/4 1272/2/4 1291/2/4
f 1313/3/4 1314/3/4 1315/3/4
f 1315/3/4 1314/3/4 1293/3/4
f 1316/3/4 1317/3/4 1318/3/4
f 1318/3/4 1317/3/4 1275/3/4
f 1319/2/4 1276/2/4 1320/2/4
f 1320/2/4 1276/2/4 1295/2/4
f 1321/3/4 1322/3/4 1323/3/4
f 1323/3/4 1322/3/4 1297/3/4
f 1324/2/4 1278/2/4 1325/2/4
f 1325/2/4 1278/2/4 1281/2/4
f 1326/2/4 1298/2/4 1328/2/4
f 1328/2/4 1298/2/4 1327/2/4
f 1329/2/4 1301/2/4 1330/2/4
f 1330/2/4 1301/2/4 1302/2/4
f 1330/2/4 1284/2/4 1331/2/4
f 1331/2/4 1284/2/4 1287/2/4
f 1332/2/4 1303/2/4 1334/2/4
f 1334/2/4 1303/2/4 1333/2/4
f 1335/2/4 1306/2/4 1337/2/4
f 1337/2/4 1306/2/4 1336/2/4
f 1338/2/4 1308/2/4 1339/2/4
f 1339/2/4 1308/2/4 1310/2/4
f 1340/2/4 1290/2/4 1342/2/4
f 1342/2/4 1290/2/4 1341/2/4
f 1343/2/4 1313/2/4 1345/2/4
f 1345/2/4 1313/2/4 1344/2/4
f 1346/2/4 1316/2/4 1347/2/4
f 1347/2/4 1316/2/4 1318/2/4
f 1348/2/4 1294/2/4 1350/2/4
f 1350/2/4 1294/2/4 1349/2/4
f 1351/2/4 1321/2/4 1353/2/4
f 1353/2/4 1321/2/4 1352/2/4
f 1354/3/4 1219/3/4 1355/3/4
f 1355/3/4 1219/3/4 1220/3/4
f 1355/3/4 1100/3/4 1356/3/4
f 1356/3/4 1100/3/4 1222/3/4
f 1357/3/4 1225/3/4 1358/3/4
f 1358/3/4 1225/3/4 1226/3/4
f 1358/3/4 1107/3/4 1359/3/4
f 1359/3/4 1107/3/4 1228/3/4
f 1360/3/4 1341/3/4 1361/3/4
f 1361/3/4 1341/3/4 1314/3/4
f 1362/3/4 1349/3/4 1363/3/4
f 1363/3/4 1349/3/4 1322/3/4
f 1364/3/4 1195/3/4 1365/3/4
f 1365/3/4 1195/3/4 1279/3/4
f 1366/2/4 1360/2/4 1368/2/4
f 1368/2/4 1360/2/4 1367/2/4
f 1369/2/4 1362/2/4 1371/2/4
f 1371/2/4 1362/2/4 1370/2/4
f 1372/2/4 1364/2/4 1373/2/4
f 1373/2/4 1364/2/4 1365/2/4
f 1374/2/4 1354/2/4 1375/2/4
f 1375/2/4 1354/2/4 1356/2/4
f 1376/2/4 1357/2/4 1377/2/4
f 1377/2/4 1357/2/4 1359/2/4
f 1378/3/4 1340/3/4 1379/3/4
f 1379/3/4 1340/3/4 1342/3/4
f 1379/3/4 1366/3/4 1380/3/4
f 1380/3/4 1366/3/4 1368/3/4
f 1381/3/4 1348/3/4 1382/3/4
f 1382/3/4 1348/3/4 1350/3/4
f 1382/3/4 1369/3/4 1383/3/4
f 1383/3/4 1369/3/4 1371/3/4
f 1384/3/4 1385/3/4 1386/3/4
f 1386/3/4 1385/3/4 1315/3/4
f 1386/3/4 1112/3/4 1387/3/4
f 1387/3/4 1112/3/4 1113/3/4
f 1387/3/4 1211/3/4 1388/3/4
f 1388/3/4 1211/3/4 1239/3/4
f 1389/3/4 1390/3/4 1391/3/4
f 1391/3/4 1390/3/4 1325/3/4
f 1391/3/4 1023/3/4 1392/3/4
f 1392/3/4 1023/3/4 1026/3/4
f 1393/3/4 1394/3/4 1395/3/4
f 1395/3/4 1394/3/4 1331/3/4
f 1395/3/4 1031/3/4 1396/3/4
f 1396/3/4 1031/3/4 1034/3/4
f 1397/3/4 1270/3/4 1398/3/4
f 1398/3/4 1270/3/4 1309/3/4
f 1399/3/4 1110/3/4 1400/3/4
f 1400/3/4 1110/3/4 1184/3/4
f 1400/3/4 1207/3/4 1401/3/4
f 1401/3/4 1207/3/4 1236/3/4
f 1402/2/4 1378/2/4 1403/2/4
f 1403/2/4 1378/2/4 1380/2/4
f 1404/2/4 1384/2/4 1405/2/4
f 1405/2/4 1384/2/4 1388/2/4
f 1405/3/4 1274/3/4 1406/3/4
f 1406/3/4 1274/3/4 1317/3/4
f 1407/3/4 1114/3/4 1408/3/4
f 1408/3/4 1114/3/4 1191/3/4
f 1408/3/4 1213/3/4 1409/3/4
f 1409/3/4 1213/3/4 1244/3/4
f 1410/2/4 1381/2/4 1411/2/4
f 1411/2/4 1381/2/4 1383/2/4
f 1412/3/4 1413/3/4 1414/3/4
f 1414/3/4 1413/3/4 1375/3/4
f 1415/3/4 1416/3/4 1417/3/4
f 1417/3/4 1416/3/4 1377/3/4
f 1418/2/4 1397/2/4 1420/2/4
f 1420/2/4 1397/2/4 1419/2/4
f 1421/3/4 1422/3/4 1423/3/4
f 1423/3/4 1422/3/4 1401/3/4
f 1423/3/4 1311/3/4 1424/3/4
f 1424/3/4 1311/3/4 1312/3/4
f 1425/2/4 1405/2/4 1427/2/4
f 1427/2/4 1405/2/4 1426/2/4
f 1428/3/4 1429/3/4 1430/3/4
f 1430/3/4 1429/3/4 1409/3/4
f 1430/3/4 1319/3/4 1431/3/4
f 1431/3/4 1319/3/4 1320/3/4
f 1432/2/4 1389/2/4 1433/2/4
f 1433/2/4 1389/2/4 1392/2/4
f 1434/3/4 1435/3/4 1436/3/4
f 1436/3/4 1435/3/4 1328/3/4
f 1437/2/4 1412/2/4 1438/2/4
f 1438/2/4 1412/2/4 1414/2/4
f 1439/3/4 1330/3/4 1440/3/4
f 1440/3/4 1330/3/4 1394/3/4
f 1440/2/4 1393/2/4 1441/2/4
f 1441/2/4 1393/2/4 1396/2/4
f 1442/3/4 1443/3/4 1444/3/4
f 1444/3/4 1443/3/4 1334/3/4
f 1445/2/4 1415/2/4 1446/2/4
f 1446/2/4 1415/2/4 1417/2/4
f 1447/3/4 1336/3/4 1448/3/4
f 1448/3/4 1336/3/4 1307/3/4
f 1449/2/4 1399/2/4 1450/2/4
f 1450/2/4 1399/2/4 1422/2/4
f 1451/3/4 1452/3/4 1453/3/4
f 1453/3/4 1452/3/4 1403/3/4
f 1454/2/4 1407/2/4 1455/2/4
f 1455/2/4 1407/2/4 1429/2/4
f 1456/3/4 1457/3/4 1458/3/4
f 1458/3/4 1457/3/4 1411/3/4
f 1459/3/4 1372/3/4 1460/3/4
f 1460/3/4 1372/3/4 1373/3/4
f 1460/3/4 1324/3/4 1461/3/4
f 1461/3/4 1324/3/4 1390/3/4
f 1462/2/4 1434/2/4 1463/2/4
f 1463/2/4 1434/2/4 1436/2/4
f 1464/2/4 1439/2/4 1465/2/4
f 1465/2/4 1439/2/4 1440/2/4
f 1466/2/4 1442/2/4 1467/2/4
f 1467/2/4 1442/2/4 1444/2/4
f 1468/2/4 1447/2/4 1469/2/4
f 1469/2/4 1447/2/4 1448/2/4
f 1470/2/4 1421/2/4 1471/2/4
f 1471/2/4 1421/2/4 1424/2/4
f 1472/3/4 1367/3/4 1473/3/4
f 1473/3/4 1367/3/4 1361/3/4
f 1474/3/4 1475/3/4 1476/3/4
f 1476/3/4 1475/3/4 1405/3/4
f 1477/2/4 1428/2/4 1478/2/4
f 1478/2/4 1428/2/4 1431/2/4
f 1479/3/4 1370/3/4 1480/3/4
f 1480/3/4 1370/3/4 1363/3/4
f 1481/2/4 1482/2/4 1483/2/4
f 1483/2/4 1482/2/4 1465/2/4
f 1484/3/4 1338/3/4 1485/3/4
f 1485/3/4 1338/3/4 1339/3/4
f 1485/3/4 1449/3/4 1486/3/4
f 1486/3/4 1449/3/4 1450/3/4
f 1487/2/4 1474/2/4 1489/2/4
f 1489/2/4 1474/2/4 1488/2/4
f 1490/3/4 1346/3/4 1491/3/4
f 1491/3/4 1346/3/4 1347/3/4
f 1491/3/4 1454/3/4 1492/3/4
f 1492/3/4 1454/3/4 1455/3/4
f 1493/2/4 1459/2/4 1494/2/4
f 1494/2/4 1459/2/4 1461/2/4
f 1495/2/4 1451/2/4 1496/2/4
f 1496/2/4 1451/2/4 1453/2/4
f 1496/2/4 1472/2/4 1497/2/4
f 1497/2/4 1472/2/4 1473/2/4
f 1498/2/4 1456/2/4 1499/2/4
f 1499/2/4 1456/2/4 1458/2/4
f 1499/2/4 1479/2/4 1500/2/4
f 1500/2/4 1479/2/4 1480/2/4
f 1501/2/4 1484/2/4 1503/2/4
f 1503/2/4 1484/2/4 1502/2/4
f 1504/2/4 1490/2/4 1506/2/4
f 1506/2/4 1490/2/4 1505/2/4
f 1507/3/4 1508/3/4 1509/3/4
f 1509/3/4 1508/3/4 1494/3/4
f 1509/3/4 1432/3/4 1510/3/4
f 1510/3/4 1432/3/4 1433/3/4
f 1511/3/4 1326/3/4 1512/3/4
f 1512/3/4 1326/3/4 1435/3/4
f 1512/3/4 1462/3/4 1513/3/4
f 1513/3/4 1462/3/4 1463/3/4
f 1513/3/4 1327/3/4 1514/3/4
f 1514/3/4 1327/3/4 1300/3/4
f 1514/3/4 1250/3/4 1515/3/4
f 1515/3/4 1250/3/4 1251/3/4
f 1516/3/4 1437/3/4 1517/3/4
f 1517/3/4 1437/3/4 1438/3/4
f 1518/3/4 1440/3/4 1519/3/4
f 1519/3/4 1440/3/4 1441/3/4
f 1520/3/4 1332/3/4 1521/3/4
f 1521/3/4 1332/3/4 1443/3/4
f 1521/3/4 1466/3/4 1522/3/4
f 1522/3/4 1466/3/4 1467/3/4
f 1522/3/4 1333/3/4 1523/3/4
f 1523/3/4 1333/3/4 1305/3/4
f 1523/3/4 1256/3/4 1524/3/4
f 1524/3/4 1256/3/4 1257/3/4
f 1525/3/4 1445/3/4 1526/3/4
f 1526/3/4 1445/3/4 1446/3/4
f 1527/3/4 1418/3/4 1528/3/4
f 1528/3/4 1418/3/4 1420/3/4
f 1529/3/4 1487/3/4 1530/3/4
f 1530/3/4 1487/3/4 1489/3/4
f 1530/3/4 1488/3/4 1531/3/4
f 1531/3/4 1488/3/4 1476/3/4
f 1531/3/4 1425/3/4 1532/3/4
f 1532/3/4 1425/3/4 1427/3/4
f 1533/2/4 1511/2/4 1535/2/4
f 1535/2/4 1511/2/4 1534/2/4
f 1536/3/4 1266/3/4 1537/3/4
f 1537/3/4 1266/3/4 1267/3/4
f 1538/2/4 1518/2/4 1540/2/4
f 1540/2/4 1518/2/4 1539/2/4
f 1541/2/4 1520/2/4 1543/2/4
f 1543/2/4 1520/2/4 1542/2/4
f 1544/3/4 1268/3/4 1545/3/4
f 1545/3/4 1268/3/4 1269/3/4
f 1546/2/4 1507/2/4 1548/2/4
f 1548/2/4 1507/2/4 1547/2/4
f 1549/2/4 1513/2/4 1550/2/4
f 1550/2/4 1513/2/4 1515/2/4
f 1551/2/4 1516/2/4 1552/2/4
f 1552/2/4 1516/2/4 1517/2/4
f 1552/2/4 1536/2/4 1554/2/4
f 1554/2/4 1536/2/4 1553/2/4
f 1555/2/4 1522/2/4 1556/2/4
f 1556/2/4 1522/2/4 1524/2/4
f 1557/2/4 1525/2/4 1558/2/4
f 1558/2/4 1525/2/4 1526/2/4
f 1558/2/4 1544/2/4 1560/2/4
f 1560/2/4 1544/2/4 1559/2/4
f 1561/2/4 1527/2/4 1562/2/4
f 1562/2/4 1527/2/4 1528/2/4
f 1563/3/4 1501/3/4 1564/3/4
f 1564/3/4 1501/3/4 1503/3/4
f 1565/2/4 1529/2/4 1566/2/4
f 1566/2/4 1529/2/4 1532/2/4
f 1567/3/4 1504/3/4 1568/3/4
f 1568/3/4 1504/3/4 1506/3/4
f 1569/3/4 1217/3/4 1570/3/4
f 1570/3/4 1217/3/4 1218/3/4
f 1570/3/4 1493/3/4 1571/3/4
f 1571/3/4 1493/3/4 1508/3/4
f 1571/3/4 1546/3/4 1572/3/4
f 1572/3/4 1546/3/4 1548/3/4
f 1572/3/4 1547/3/4 1573/3/4
f 1573/3/4 1547/3/4 1510/3/4
f 1573/3/4 1118/3/4 1574/3/4
f 1574/3/4 1118/3/4 1247/3/4
f 1575/3/4 1576/3/4 1577/3/4
f 1577/3/4 1576/3/4 1535/3/4
f 1577/3/4 1534/3/4 1578/3/4
f 1578/3/4 1534/3/4 1513/3/4
f 1578/3/4 1549/3/4 1579/3/4
f 1579/3/4 1549/3/4 1550/3/4
f 1579/3/4 1374/3/4 1580/3/4
f 1580/3/4 1374/3/4 1413/3/4
f 1580/3/4 1551/3/4 1581/3/4
f 1581/3/4 1551/3/4 1554/3/4
f 1581/3/4 1553/3/4 1582/3/4
f 1582/3/4 1553/3/4 1537/3/4
f 1583/3/4 1539/3/4 1584/3/4
f 1584/3/4 1539/3/4 1519/3/4
f 1584/3/4 1125/3/4 1585/3/4
f 1585/3/4 1125/3/4 1253/3/4
f 1586/3/4 1587/3/4 1588/3/4
f 1588/3/4 1587/3/4 1543/3/4
f 1588/3/4 1542/3/4 1589/3/4
f 1589/3/4 1542/3/4 1522/3/4
f 1589/3/4 1555/3/4 1590/3/4
f 1590/3/4 1555/3/4 1556/3/4
f 1590/3/4 1376/3/4 1591/3/4
f 1591/3/4 1376/3/4 1416/3/4
f 1591/3/4 1557/3/4 1592/3/4
f 1592/3/4 1557/3/4 1560/3/4
f 1592/3/4 1559/3/4 1593/3/4
f 1593/3/4 1559/3/4 1545/3/4
f 1594/2/4 1563/2/4 1596/2/4
f 1596/2/4 1563/2/4 1595/2/4
f 1597/3/4 1598/3/4 1599/3/4
f 1599/3/4 1598/3/4 1471/3/4
f 1600/3/4 1404/3/4 1601/3/4
f 1601/3/4 1404/3/4 1475/3/4
f 1602/2/4 1567/2/4 1604/2/4
f 1604/2/4 1567/2/4 1603/2/4
f 1605/3/4 1606/3/4 1607/3/4
f 1607/3/4 1606/3/4 1478/3/4
f 1608/2/4 1575/2/4 1610/2/4
f 1610/2/4 1575/2/4 1609/2/4
f 1611/2/4 1586/2/4 1613/2/4
f 1613/2/4 1586/2/4 1612/2/4
f 1614/3/4 1419/3/4 1615/3/4
f 1615/3/4 1419/3/4 1398/3/4
f 1616/2/4 1600/2/4 1617/2/4
f 1617/2/4 1600/2/4 1601/2/4
f 1618/3/4 1426/3/4 1619/3/4
f 1619/3/4 1426/3/4 1406/3/4
f 1620/2/4 1569/2/4 1622/2/4
f 1622/2/4 1569/2/4 1621/2/4
f 1623/2/4 1572/2/4 1624/2/4
f 1624/2/4 1572/2/4 1574/2/4
f 1625/2/4 1579/2/4 1626/2/4
f 1626/2/4 1579/2/4 1582/2/4
f 1627/2/4 1583/2/4 1628/2/4
f 1628/2/4 1583/2/4 1585/2/4
f 1629/2/4 1590/2/4 1630/2/4
f 1630/2/4 1590/2/4 1593/2/4
f 1631/2/4 1614/2/4 1632/2/4
f 1632/2/4 1614/2/4 1615/2/4
f 1633/2/4 1618/2/4 1634/2/4
f 1634/2/4 1618/2/4 1619/2/4
f 1635/2/4 1597/2/4 1636/2/4
f 1636/2/4 1597/2/4 1599/2/4
f 1637/2/4 1605/2/4 1638/2/4
f 1638/2/4 1605/2/4 1607/2/4
f 199/3/4 202/3/4 1639/3/4
f 1639/3/4 202/3/4 1008/3/4
f 1639/3/4 1620/3/4 1640/3/4
f 1640/3/4 1620/3/4 1622/3/4
f 1640/3/4 1621/3/4 1641/3/4
f 1641/3/4 1621/3/4 1572/3/4
f 1641/3/4 1623/3/4 1642/3/4
f 1642/3/4 1623/3/4 1624/3/4
f 1642/3/4 1533/3/4 1643/3/4
f 1643/3/4 1533/3/4 1576/3/4
f 1643/3/4 1608/3/4 1644/3/4
f 1644/3/4 1608/3/4 1610/3/4
f 1644/3/4 1609/3/4 1645/3/4
f 1645/3/4 1609/3/4 1579/3/4
f 1645/3/4 1625/3/4 1646/3/4
f 1646/3/4 1625/3/4 1626/3/4
f 1646/3/4 1329/3/4 1647/3/4
f 1647/3/4 1329/3/4 1330/3/4
f 1647/3/4 1464/3/4 1648/3/4
f 1648/3/4 1464/3/4 1482/3/4
f 1648/3/4 1481/3/4 1649/3/4
f 1649/3/4 1481/3/4 1483/3/4
f 1649/3/4 1538/3/4 1650/3/4
f 1650/3/4 1538/3/4 1540/3/4
f 1650/3/4 1627/3/4 1651/3/4
f 1651/3/4 1627/3/4 1628/3/4
f 1651/3/4 1541/3/4 1652/3/4
f 1652/3/4 1541/3/4 1587/3/4
f 1652/3/4 1611/3/4 1653/3/4
f 1653/3/4 1611/3/4 1613/3/4
f 1653/3/4 1612/3/4 1654/3/4
f 1654/3/4 1612/3/4 1590/3/4
f 1654/3/4 1629/3/4 1655/3/4
f 1655/3/4 1629/3/4 1630/3/4
f 1655/3/4 1335/3/4 1656/3/4
f 1656/3/4 1335/3/4 1337/3/4
f 1656/3/4 1468/3/4 1657/3/4
f 1657/3/4 1468/3/4 1469/3/4
f 1657/3/4 1561/3/4 1658/3/4
f 1658/3/4 1561/3/4 1562/3/4
f 1658/3/4 1631/3/4 1659/3/4
f 1659/3/4 1631/3/4 1632/3/4
f 1659/3/4 1594/3/4 1660/3/4
f 1660/3/4 1594/3/4 1596/3/4
f 1660/3/4 1595/3/4 1661/3/4
f 1661/3/4 1595/3/4 1564/3/4
f 1661/3/4 1502/3/4 1662/3/4
f 1662/3/4 1502/3/4 1486/3/4
f 1662/3/4 1470/3/4 1663/3/4
f 1663/3/4 1470/3/4 1598/3/4
f 1663/3/4 1635/3/4 1664/3/4
f 1664/3/4 1635/3/4 1636/3/4
f 1664/3/4 1402/3/4 1665/3/4
f 1665/3/4 1402/3/4 1452/3/4
f 1665/3/4 1495/3/4 1666/3/4
f 1666/3/4 1495/3/4 1497/3/4
f 1666/3/4 1343/3/4 1667/3/4
f 1667/3/4 1343/3/4 1345/3/4
f 1667/3/4 1344/3/4 1668/3/4
f 1668/3/4 1344/3/4 1385/3/4
f 1668/3/4 1616/3/4 1669/3/4
f 1669/3/4 1616/3/4 1617/3/4
f 1669/3/4 1565/3/4 1670/3/4
f 1670/3/4 1565/3/4 1566/3/4
f 1670/3/4 1633/3/4 1671/3/4
f 1671/3/4 1633/3/4 1634/3/4
f 1671/3/4 1602/3/4 1672/3/4
f 1672/3/4 1602/3/4 1604/3/4
f 1672/3/4 1603/3/4 1673/3/4
f 1673/3/4 1603/3/4 1568/3/4
f 1673/3/4 1505/3/4 1674/3/4
f 1674/3/4 1505/3/4 1492/3/4
f 1674/3/4 1477/3/4 1675/3/4
f 1675/3/4 1477/3/4 1606/3/4
f 1675/3/4 1637/3/4 1676/3/4
f 1676/3/4 1637/3/4 1638/3/4
f 1676/3/4 1410/3/4 1677/3/4
f 1677/3/4 1410/3/4 1457/3/4
f 1677/3/4 1498/3/4 1678/3/4
f 1678/3/4 1498/3/4 1500/3/4
f 1678/3/4 1351/3/4 1679/3/4
f 1679/3/4 1351/3/4 1353/3/4
f 1679/3/4 1352/3/4 200/3/4
f 200/3/4 1352/3/4 1323/3/4
f 4/1/4 198/1/4 1680/1/4
f 1680/1/4 198/1/4 197/1/4
f 8/1/4 191/1/4 1681/1/4
f 1681/1/4 191/1/4 190/1/4
f 12/1/4 1/1/4 9/1/4
f 9/1/4 1/1/4 20/1/4
f 16/1/4 5/1/4 13/1/4
f 13/1/4 5/1/4 24/1/4
f 28/1/4 17/1/4 25/1/4
f 25/1/4 17/1/4 36/1/4
f 32/1/4 21/1/4 29/1/4
f 29/1/4 21/1/4 40/1/4
f 44/1/4 33/1/4 41/1/4
f 41/1/4 33/1/4 52/1/4
f 48/1/4 37/1/4 45/1/4
f 45/1/4 37/1/4 56/1/4
f 60/1/4 49/1/4 57/1/4
f 57/1/4 49/1/4 68/1/4
f 64/1/4 53/1/4 61/1/4
f 61/1/4 53/1/4 72/1/4
f 76/1/4 65/1/4 73/1/4
f 73/1/4 65/1/4 84/1/4
f 80/1/4 69/1/4 77/1/4
f 77/1/4 69/1/4 88/1/4
f 92/1/4 81/1/4 89/1/4
f 89/1/4 81/1/4 100/1/4
f 96/1/4 85/1/4 93/1/4
f 93/1/4 85/1/4 104/1/4
f 108/1/4 97/1/4 105/1/4
f 105/1/4 97/1/4 116/1/4
f 112/1/4 101/1/4 109/1/4
f 109/1/4 101/1/4 120/1/4
f 124/1/4 113/1/4 121/1/4
f 121/1/4 113/1/4 132/1/4
f 128/1/4 117/1/4 125/1/4
f 125/1/4 117/1/4 136/1/4
f 140/1/4 129/1/4 137/1/4
f 137/1/4 129/1/4 148/1/4
f 144/1/4 133/1/4 141/1/4
f 141/1/4 133/1/4 152/1/4
f 156/1/4 145/1/4 153/1/4
f 153/1/4 145/1/4 164/1/4
f 160/1/4 149/1/4 157/1/4
f 157/1/4 149/1/4 168/1/4
f 172/1/4 161/1/4 169/1/4
f 169/1/4 161/1/4 180/1/4
f 176/1/4 165/1/4 173/1/4
f 173/1/4 165/1/4 184/1/4
f 188/1/4 177/1/4 185/1/4
f 185/1/4 177/1/4 1680/1/4
f 196/1/4 181/1/4 193/1/4
f 193/1/4 181/1/4 1681/1/4
f 19/1/5 10/1/5 20/1/5
f 20/1/5 10/1/5 9/1/5
f 35/1/5 26/1/5 36/1/5
f 36/1/5 26/1/5 25/1/5
f 51/1/5 42/1/5 52/1/5
f 52/1/5 42/1/5 41/1/5
f 67/1/5 58/1/5 68/1/5
f 68/1/5 58/1/5 57/1/5
f 83/1/5 74/1/5 84/1/5
f 84/1/5 74/1/5 73/1/5
f 99/1/5 90/1/5 100/1/5
f 100/1/5 90/1/5 89/1/5
f 115/1/5 106/1/5 116/1/5
f 116/1/5 106/1/5 105/1/5
f 131/1/5 122/1/5 132/1/5
f 132/1/5 122/1/5 121/1/5
f 147/1/5 138/1/5 148/1/5
f 148/1/5 138/1/5 137/1/5
f 163/1/5 154/1/5 164/1/5
f 164/1/5 154/1/5 153/1/5
f 179/1/5 170/1/5 180/1/5
f 180/1/5 170/1/5 169/1/5
f 23/1/5 14/1/5 24/1/5
f 24/1/5 14/1/5 13/1/5
f 39/1/5 30/1/5 40/1/5
f 40/1/5 30/1/5 29/1/5
f 55/1/5 46/1/5 56/1/5
f 56/1/5 46/1/5 45/1/5
f 71/1/5 62/1/5 72/1/5
f 72/1/5 62/1/5 61/1/5
f 87/1/5 78/1/5 88/1/5
f 88/1/5 78/1/5 77/1/5
f 103/1/5 94/1/5 104/1/5
f 104/1/5 94/1/5 93/1/5
f 119/1/5 110/1/5 120/1/5
f 120/1/5 110/1/5 109/1/5
f 135/1/5 126/1/5 136/1/5
f 136/1/5 126/1/5 125/1/5
f 151/1/5 142/1/5 152/1/5
f 152/1/5 142/1/5 141/1/5
f 167/1/5 158/1/5 168/1/5
f 168/1/5 158/1/5 157/1/5
f 183/1/5 174/1/5 184/1/5
f 184/1/5 174/1/5 173/1/5
f 192/1/6 198/1/6 3/1/6
f 3/1/6 198/1/6 4/1/6
f 2/1/6 1/1/6 11/1/6
f 11/1/6 1/1/6 12/1/6
f 18/1/6 17/1/6 27/1/6
f 27/1/6 17/1/6 28/1/6
f 34/1/6 33/1/6 43/1/6
f 43/1/6 33/1/6 44/1/6
f 50/1/6 49/1/6 59/1/6
f 59/1/6 49/1/6 60/1/6
f 66/1/6 65/1/6 75/1/6
f 75/1/6 65/1/6 76/1/6
f 82/1/6 81/1/6 91/1/6
f 91/1/6 81/1/6 92/1/6
f 98/1/6 97/1/6 107/1/6
f 107/1/6 97/1/6 108/1/6
f 114/1/6 113/1/6 123/1/6
f 123/1/6 113/1/6 124/1/6
f 130/1/6 129/1/6 139/1/6
f 139/1/6 129/1/6 140/1/6
f 146/1/6 145/1/6 155/1/6
f 155/1/6 145/1/6 156/1/6
f 162/1/6 161/1/6 171/1/6
f 171/1/6 161/1/6 172/1/6
f 178/1/6 177/1/6 187/1/6
f 187/1/6 177/1/6 188/1/6
f 203/3/6 202/3/6 206/3/6
f 206/3/6 202/3/6 199/3/6
f 207/1/6 191/1/6 7/1/6
f 7/1/6 191/1/6 8/1/6
f 6/1/6 5/1/6 15/1/6
f 15/1/6 5/1/6 16/1/6
f 22/1/6 21/1/6 31/1/6
f 31/1/6 21/1/6 32/1/6
f 38/1/6 37/1/6 47/1/6
f 47/1/6 37/1/6 48/1/6
f 54/1/6 53/1/6 63/1/6
f 63/1/6 53/1/6 64/1/6
f 70/1/6 69/1/6 79/1/6
f 79/1/6 69/1/6 80/1/6
f 86/1/6 85/1/6 95/1/6
f 95/1/6 85/1/6 96/1/6
f 102/1/6 101/1/6 111/1/6
f 111/1/6 101/1/6 112/1/6
f 118/1/6 117/1/6 127/1/6
f 127/1/6 117/1/6 128/1/6
f 134/1/6 133/1/6 143/1/6
f 143/1/6 133/1/6 144/1/6
f 150/1/6 149/1/6 159/1/6
f 159/1/6 149/1/6 160/1/6
f 166/1/6 165/1/6 175/1/6
f 175/1/6 165/1/6 176/1/6
f 182/1/6 181/1/6 195/1/6
f 195/1/6 181/1/6 196/1/6
f 1682/1/1 1683/1/1 185/1/1
f 185/1/1 1683/1/1 186/1/1
f 1684/1/1 1685/1/1 193/1/1
f 193/1/1 1685/1/1 194/1/1
f 1686/1/1 1687/1/1 1689/1/1
f 1689/1/1 1687/1/1 1688/1/1
f 1690/1/1 1691/1/1 1693/1/1
f 1693/1/1 1691/1/1 1692/1/1
f 1694/1/1 1695/1/1 1697/1/1
f 1697/1/1 1695/1/1 1696/1/1
f 1698/1/1 1699/1/1 1701/1/1
f 1701/1/1 1699/1/1 1700/1/1
f 1702/1/1 1703/1/1 1705/1/1
f 1705/1/1 1703/1/1 1704/1/1
f 1706/1/1 1707/1/1 1709/1/1
f 1709/1/1 1707/1/1 1708/1/1
f 1710/1/1 1711/1/1 1713/1/1
f 1713/1/1 1711/1/1 1712/1/1
f 1714/1/1 1715/1/1 1717/1/1
f 1717/1/1 1715/1/1 1716/1/1
f 1718/1/1 1719/1/1 1721/1/1
f 1721/1/1 1719/1/1 1720/1/1
f 1722/1/1 1723/1/1 1725/1/1
f 1725/1/1 1723/1/1 1724/1/1
f 1726/1/1 1727/1/1 1729/1/1
f 1729/1/1 1727/1/1 1728/1/1
f 1730/3/1 1731/3/1 189/3/1
f 189/3/1 1731/3/1 190/3/1
f 1732/1/1 1733/1/1 1735/1/1
f 1735/1/1 1733/1/1 1734/1/1
f 1736/1/2 197/1/2 1737/1/2
f 1737/1/2 197/1/2 200/1/2
f 1738/3/2 201/3/2 1739/3/2
f 1739/3/2 201/3/2 204/3/2
f 1740/1/2 205/1/2 1741/1/2
f 1741/1/2 205/1/2 208/1/2
f 246/3/3 1742/3/3 204/3/3
f 204/3/3 1742/3/3 1739/3/3
f 1743/2/3 1744/2/3 246/2/3
f 246/2/3 1744/2/3 1745/2/3
f 1746/2/3 1747/2/3 1749/2/3
f 1749/2/3 1747/2/3 1748/2/3
f 1750/2/3 1751/2/3 1753/2/3
f 1753/2/3 1751/2/3 1752/2/3
f 1754/3/3 1755/3/3 1745/3/3
f 1745/3/3 1755/3/3 1749/3/3
f 1755/3/3 1756/3/3 1746/3/3
f 1746/3/3 1756/3/3 1747/3/3
f 1756/3/3 1757/3/3 1748/3/3
f 1748/3/3 1757/3/3 1753/3/3
f 1758/3/3 1759/3/3 1752/3/3
f 1752/3/3 1759/3/3 1760/3/3
f 1759/2/3 1761/2/3 1760/2/3
f 1760/2/3 1761/2/3 1762/2/3
f 1763/2/3 1764/2/3 1756/2/3
f 1756/2/3 1764/2/3 1765/2/3
f 1766/2/3 1767/2/3 1754/2/3
f 1754/2/3 1767/2/3 1768/2/3
f 1769/3/3 1770/3/3 1771/3/3
f 1771/3/3 1770/3/3 1757/3/3
f 1772/2/3 1773/2/3 1758/2/3
f 1758/2/3 1773/2/3 1774/2/3
f 1775/3/3 1776/3/3 1777/3/3
f 1777/3/3 1776/3/3 1756/3/3
f 1778/2/3 1779/2/3 1769/2/3
f 1769/2/3 1779/2/3 1770/2/3
f 1780/2/3 1781/2/3 1782/2/3
f 1782/2/3 1781/2/3 1773/2/3
f 1783/3/3 1784/3/3 1763/3/3
f 1763/3/3 1784/3/3 1764/3/3
f 1785/2/3 1786/2/3 1775/2/3
f 1775/2/3 1786/2/3 1776/2/3
f 1787/2/3 1788/2/3 1783/2/3
f 1783/2/3 1788/2/3 1784/2/3
f 1789/3/3 1790/3/3 1780/3/3
f 1780/3/3 1790/3/3 1781/3/3
f 1790/3/3 1791/3/3 1774/3/3
f 1774/3/3 1791/3/3 1761/3/3
f 1792/3/3 1793/3/3 1743/3/3
f 1743/3/3 1793/3/3 1744/3/3
f 1794/3/3 1795/3/3 1796/3/3
f 1796/3/3 1795/3/3 1791/3/3
f 1797/2/3 1798/2/3 1792/2/3
f 1792/2/3 1798/2/3 1793/2/3
f 1799/3/3 1800/3/3 1768/3/3
f 1768/3/3 1800/3/3 1777/3/3
f 1800/3/3 1801/3/3 1785/3/3
f 1785/3/3 1801/3/3 1786/3/3
f 1802/2/3 1803/2/3 1789/2/3
f 1789/2/3 1803/2/3 1796/2/3
f 1804/3/3 1805/3/3 1766/3/3
f 1766/3/3 1805/3/3 1767/3/3
f 1805/2/3 1806/2/3 1799/2/3
f 1799/2/3 1806/2/3 1801/2/3
f 1807/2/3 1808/2/3 1794/2/3
f 1794/2/3 1808/2/3 1795/2/3
f 1809/2/3 1810/2/3 1811/2/3
f 1811/2/3 1810/2/3 1806/2/3
f 1812/3/3 1813/3/3 1765/3/3
f 1765/3/3 1813/3/3 1771/3/3
f 1813/3/3 1814/3/3 1778/3/3
f 1778/3/3 1814/3/3 1779/3/3
f 1815/2/3 1816/2/3 1804/2/3
f 1804/2/3 1816/2/3 1817/2/3
f 1818/2/3 1819/2/3 1812/2/3
f 1812/2/3 1819/2/3 1820/2/3
f 1821/3/3 1822/3/3 1772/3/3
f 1772/3/3 1822/3/3 1782/3/3
f 1822/3/3 1823/3/3 1802/3/3
f 1802/3/3 1823/3/3 1803/3/3
f 576/3/3 1824/3/3 1797/3/3
f 1797/3/3 1824/3/3 1798/3/3
f 1825/3/3 1826/3/3 1827/3/3
f 1827/3/3 1826/3/3 1788/3/3
f 1826/3/3 1828/3/3 1818/3/3
f 1818/3/3 1828/3/3 1819/3/3
f 596/2/3 1829/2/3 576/2/3
f 576/2/3 1829/2/3 1824/2/3
f 1830/2/3 1831/2/3 1825/2/3
f 1825/2/3 1831/2/3 1828/2/3
f 1832/2/3 1833/2/3 1821/2/3
f 1821/2/3 1833/2/3 1834/2/3
f 1835/3/3 1836/3/3 1817/3/3
f 1817/3/3 1836/3/3 1811/3/3
f 1837/3/3 1838/3/3 1834/3/3
f 1834/3/3 1838/3/3 1823/3/3
f 1839/2/3 1840/2/3 1835/2/3
f 1835/2/3 1840/2/3 1836/2/3
f 1841/2/3 1842/2/3 1837/2/3
f 1837/2/3 1842/2/3 1838/2/3
f 1843/3/3 1844/3/3 1750/3/3
f 1750/3/3 1844/3/3 1751/3/3
f 1844/3/3 1845/3/3 1832/3/3
f 1832/3/3 1845/3/3 1833/3/3
f 1846/3/3 1847/3/3 1839/3/3
f 1839/3/3 1847/3/3 1840/3/3
f 1848/2/3 1849/2/3 1846/2/3
f 1846/2/3 1849/2/3 1850/2/3
f 1851/3/3 1852/3/3 1830/3/3
f 1830/3/3 1852/3/3 1831/3/3
f 1853/2/3 1854/2/3 1843/2/3
f 1843/2/3 1854/2/3 1855/2/3
f 1856/2/3 1857/2/3 1851/2/3
f 1851/2/3 1857/2/3 1858/2/3
f 1859/3/3 1860/3/3 1855/3/3
f 1855/3/3 1860/3/3 1845/3/3
f 1860/3/3 1861/3/3 1841/3/3
f 1841/3/3 1861/3/3 1842/3/3
f 1862/2/3 1863/2/3 1859/2/3
f 1859/2/3 1863/2/3 1861/2/3
f 1864/3/3 1865/3/3 1848/3/3
f 1848/3/3 1865/3/3 1849/3/3
f 1866/3/3 1867/3/3 1809/3/3
f 1809/3/3 1867/3/3 1810/3/3
f 1867/3/3 1868/3/3 1787/3/3
f 1787/3/3 1868/3/3 1827/3/3
f 1869/3/3 1870/3/3 1871/3/3
f 1871/3/3 1870/3/3 1857/3/3
f 1870/3/3 1872/3/3 1858/3/3
f 1858/3/3 1872/3/3 1852/3/3
f 1873/3/3 1874/3/3 1875/3/3
f 1875/3/3 1874/3/3 1854/3/3
f 1874/3/3 1876/3/3 1862/3/3
f 1862/3/3 1876/3/3 1863/3/3
f 1877/3/3 1878/3/3 1879/3/3
f 1879/3/3 1878/3/3 1816/3/3
f 1880/2/3 1881/2/3 1869/2/3
f 1869/2/3 1881/2/3 1872/2/3
f 1882/2/3 1883/2/3 1877/2/3
f 1877/2/3 1883/2/3 1878/2/3
f 1883/2/3 1884/2/3 1864/2/3
f 1864/2/3 1884/2/3 1865/2/3
f 1885/2/3 1886/2/3 1866/2/3
f 1866/2/3 1886/2/3 1868/2/3
f 1887/2/3 1888/2/3 1873/2/3
f 1873/2/3 1888/2/3 1889/2/3
f 1890/3/3 1891/3/3 1815/3/3
f 1815/3/3 1891/3/3 1879/3/3
f 1891/3/3 1892/3/3 1882/3/3
f 1882/3/3 1892/3/3 1884/3/3
f 1892/3/3 1893/3/3 1850/3/3
f 1850/3/3 1893/3/3 1847/3/3
f 1894/3/3 1895/3/3 1896/3/3
f 1896/3/3 1895/3/3 1886/3/3
f 1895/3/3 1897/3/3 1856/3/3
f 1856/3/3 1897/3/3 1871/3/3
f 1897/3/3 1898/3/3 1880/3/3
f 1880/3/3 1898/3/3 1881/3/3
f 1898/3/3 1899/3/3 1820/3/3
f 1820/3/3 1899/3/3 1814/3/3
f 1899/3/3 1900/3/3 1853/3/3
f 1853/3/3 1900/3/3 1875/3/3
f 1901/3/3 1902/3/3 1903/3/3
f 1903/3/3 1902/3/3 1888/3/3
f 1902/3/3 1904/3/3 1889/3/3
f 1889/3/3 1904/3/3 1876/3/3
f 1904/3/3 1905/3/3 1807/3/3
f 1807/3/3 1905/3/3 1808/3/3
f 1906/2/3 1907/2/3 1894/2/3
f 1894/2/3 1907/2/3 1908/2/3
f 1909/2/3 1910/2/3 1890/2/3
f 1890/2/3 1910/2/3 1893/2/3
f 1911/2/3 1912/2/3 1898/2/3
f 1898/2/3 1912/2/3 1900/2/3
f 1913/2/3 1914/2/3 1901/2/3
f 1901/2/3 1914/2/3 1905/2/3
f 205/3/3 1915/3/3 596/3/3
f 596/3/3 1915/3/3 1829/3/3
f 1915/3/3 1916/3/3 1909/3/3
f 1909/3/3 1916/3/3 1910/3/3
f 1916/3/3 1917/3/3 1885/3/3
f 1885/3/3 1917/3/3 1896/3/3
f 1917/3/3 1918/3/3 1906/3/3
f 1906/3/3 1918/3/3 1907/3/3
f 1918/3/3 1919/3/3 1908/3/3
f 1908/3/3 1919/3/3 1898/3/3
f 1919/3/3 1920/3/3 1911/3/3
f 1911/3/3 1920/3/3 1912/3/3
f 1920/3/3 1921/3/3 1887/3/3
f 1887/3/3 1921/3/3 1903/3/3
f 1921/3/3 1922/3/3 1913/3/3
f 1913/3/3 1922/3/3 1914/3/3
f 1922/3/3 1740/3/3 1762/3/3
f 1762/3/3 1740/3/3 1742/3/3
f 1688/1/3 1923/1/3 1924/1/3
f 1924/1/3 1923/1/3 1730/1/3
f 1692/1/3 1925/1/3 1926/1/3
f 1926/1/3 1925/1/3 1741/1/3
f 186/1/3 1683/1/3 189/1/3
f 189/1/3 1683/1/3 1924/1/3
f 194/1/3 1685/1/3 208/1/3
f 208/1/3 1685/1/3 1926/1/3
f 1696/1/3 1695/1/3 1687/1/3
f 1687/1/3 1695/1/3 1704/1/3
f 1700/1/3 1699/1/3 1691/1/3
f 1691/1/3 1699/1/3 1708/1/3
f 1712/1/3 1711/1/3 1703/1/3
f 1703/1/3 1711/1/3 1720/1/3
f 1716/1/3 1715/1/3 1707/1/3
f 1707/1/3 1715/1/3 1724/1/3
f 1728/1/3 1727/1/3 1719/1/3
f 1719/1/3 1727/1/3 1923/1/3
f 1734/1/3 1733/1/3 1723/1/3
f 1723/1/3 1733/1/3 1925/1/3
f 1927/3/4 1928/3/4 1929/3/4
f 1929/3/4 1928/3/4 1738/3/4
f 1006/3/4 201/3/4 1930/3/4
f 1930/3/4 201/3/4 1928/3/4
f 1930/2/4 1927/2/4 1932/2/4
f 1932/2/4 1927/2/4 1931/2/4
f 1933/3/4 1934/3/4 1936/3/4
f 1936/3/4 1934/3/4 1935/3/4
f 1937/2/4 1938/2/4 1940/2/4
f 1940/2/4 1938/2/4 1939/2/4
f 1022/2/4 1006/2/4 1942/2/4
f 1942/2/4 1006/2/4 1941/2/4
f 1943/2/4 1933/2/4 1945/2/4
f 1945/2/4 1933/2/4 1944/2/4
f 1946/2/4 1935/2/4 1947/2/4
f 1947/2/4 1935/2/4 1938/2/4
f 1948/2/4 1949/2/4 1951/2/4
f 1951/2/4 1949/2/4 1950/2/4
f 1952/3/4 1937/3/4 1953/3/4
f 1953/3/4 1937/3/4 1940/3/4
f 1953/3/4 1939/3/4 1954/3/4
f 1954/3/4 1939/3/4 1929/3/4
f 1955/3/4 1956/3/4 1957/3/4
f 1957/3/4 1956/3/4 1932/3/4
f 1958/3/4 1943/3/4 1959/3/4
f 1959/3/4 1943/3/4 1945/3/4
f 1959/3/4 1944/3/4 1960/3/4
f 1960/3/4 1944/3/4 1949/3/4
f 1961/2/4 1952/2/4 1963/2/4
f 1963/2/4 1952/2/4 1962/2/4
f 1964/3/4 1941/3/4 1965/3/4
f 1965/3/4 1941/3/4 1956/3/4
f 1965/2/4 1955/2/4 1967/2/4
f 1967/2/4 1955/2/4 1966/2/4
f 1968/2/4 1969/2/4 1971/2/4
f 1971/2/4 1969/2/4 1970/2/4
f 1972/2/4 1964/2/4 1973/2/4
f 1973/2/4 1964/2/4 1965/2/4
f 1974/2/4 1958/2/4 1975/2/4
f 1975/2/4 1958/2/4 1960/2/4
f 1976/3/4 1977/3/4 1978/3/4
f 1978/3/4 1977/3/4 1951/3/4
f 1978/3/4 1950/3/4 1979/3/4
f 1979/3/4 1950/3/4 1936/3/4
f 1980/2/4 1976/2/4 1981/2/4
f 1981/2/4 1976/2/4 1979/2/4
f 1982/3/4 1983/3/4 1984/3/4
f 1984/3/4 1983/3/4 1947/3/4
f 1984/3/4 1961/3/4 1985/3/4
f 1985/3/4 1961/3/4 1969/3/4
f 1986/3/4 1965/3/4 1987/3/4
f 1987/3/4 1965/3/4 1967/3/4
f 1988/3/4 1989/3/4 1990/3/4
f 1990/3/4 1989/3/4 1975/3/4
f 1990/3/4 1948/3/4 1991/3/4
f 1991/3/4 1948/3/4 1977/3/4
f 1991/3/4 1980/3/4 1992/3/4
f 1992/3/4 1980/3/4 1981/3/4
f 1993/3/4 1970/3/4 1994/3/4
f 1994/3/4 1970/3/4 1963/3/4
f 1995/2/4 1986/2/4 1996/2/4
f 1996/2/4 1986/2/4 1987/2/4
f 1997/2/4 1988/2/4 1999/2/4
f 1999/2/4 1988/2/4 1998/2/4
f 1999/3/4 1998/3/4 2000/3/4
f 2000/3/4 1998/3/4 1992/3/4
f 2001/2/4 1982/2/4 2002/2/4
f 2002/2/4 1982/2/4 1985/2/4
f 2003/3/4 2004/3/4 2005/3/4
f 2005/3/4 2004/3/4 1996/3/4
f 2005/3/4 1966/3/4 2006/3/4
f 2006/3/4 1966/3/4 1957/3/4
f 2006/3/4 1931/3/4 2007/3/4
f 2007/3/4 1931/3/4 1934/3/4
f 2008/2/4 2009/2/4 2010/2/4
f 2010/2/4 2009/2/4 2000/2/4
f 2011/2/4 1993/2/4 2012/2/4
f 2012/2/4 1993/2/4 1994/2/4
f 1265/3/4 1022/3/4 2013/3/4
f 2013/3/4 1022/3/4 1942/3/4
f 2014/3/4 1946/3/4 2015/3/4
f 2015/3/4 1946/3/4 1983/3/4
f 2015/3/4 2001/3/4 2016/3/4
f 2016/3/4 2001/3/4 2002/3/4
f 2017/2/4 2003/2/4 2018/2/4
f 2018/2/4 2003/2/4 2007/2/4
f 2019/3/4 2008/3/4 2020/3/4
f 2020/3/4 2008/3/4 2010/3/4
f 2021/3/4 1968/3/4 2022/3/4
f 2022/3/4 1968/3/4 1971/3/4
f 2022/3/4 2011/3/4 2023/3/4
f 2023/3/4 2011/3/4 2012/3/4
f 2023/3/4 1962/3/4 2024/3/4
f 2024/3/4 1962/3/4 1954/3/4
f 1297/2/4 1265/2/4 2025/2/4
f 2025/2/4 1265/2/4 2013/2/4
f 2026/3/4 2027/3/4 2028/3/4
f 2028/3/4 2027/3/4 2020/3/4
f 2028/2/4 2014/2/4 2030/2/4
f 2030/2/4 2014/2/4 2029/2/4
f 2031/2/4 2021/2/4 2032/2/4
f 2032/2/4 2021/2/4 2024/2/4
f 2033/3/4 2034/3/4 2035/3/4
f 2035/3/4 2034/3/4 2018/3/4
f 2036/2/4 2019/2/4 2037/2/4
f 2037/2/4 2019/2/4 2027/2/4
f 2038/2/4 2039/2/4 2041/2/4
f 2041/2/4 2039/2/4 2040/2/4
f 2042/2/4 2033/2/4 2043/2/4
f 2043/2/4 2033/2/4 2035/2/4
f 2044/2/4 2026/2/4 2046/2/4
f 2046/2/4 2026/2/4 2045/2/4
f 2047/3/4 2045/3/4 2048/3/4
f 2048/3/4 2045/3/4 2030/3/4
f 2049/2/4 2047/2/4 2051/2/4
f 2051/2/4 2047/2/4 2050/2/4
f 2051/3/4 2050/3/4 2052/3/4
f 2052/3/4 2050/3/4 2048/3/4
f 2053/3/4 2044/3/4 2054/3/4
f 2054/3/4 2044/3/4 2046/3/4
f 2054/3/4 2049/3/4 2055/3/4
f 2055/3/4 2049/3/4 2051/3/4
f 2056/3/4 2031/3/4 2057/3/4
f 2057/3/4 2031/3/4 2039/3/4
f 2058/3/4 1297/3/4 2059/3/4
f 2059/3/4 1297/3/4 2025/3/4
f 2059/3/4 1972/3/4 2060/3/4
f 2060/3/4 1972/3/4 1973/3/4
f 2060/3/4 1995/3/4 2061/3/4
f 2061/3/4 1995/3/4 2004/3/4
f 2062/2/4 2051/2/4 2063/2/4
f 2063/2/4 2051/2/4 2052/2/4
f 2064/2/4 2058/2/4 2065/2/4
f 2065/2/4 2058/2/4 2061/2/4
f 2065/3/4 2017/3/4 2066/3/4
f 2066/3/4 2017/3/4 2034/3/4
f 2067/3/4 1974/3/4 2068/3/4
f 2068/3/4 1974/3/4 1989/3/4
f 2068/3/4 1997/3/4 2069/3/4
f 2069/3/4 1997/3/4 2009/3/4
f 2070/2/4 2053/2/4 2072/2/4
f 2072/2/4 2053/2/4 2071/2/4
f 2073/2/4 2065/2/4 2075/2/4
f 2075/2/4 2065/2/4 2074/2/4
f 2076/3/4 2077/3/4 2078/3/4
f 2078/3/4 2077/3/4 2069/3/4
f 2078/3/4 2036/3/4 2079/3/4
f 2079/3/4 2036/3/4 2037/3/4
f 2080/2/4 2056/2/4 2081/2/4
f 2081/2/4 2056/2/4 2057/2/4
f 2082/2/4 2067/2/4 2083/2/4
f 2083/2/4 2067/2/4 2077/2/4
f 2084/3/4 2085/3/4 2086/3/4
f 2086/3/4 2085/3/4 2072/3/4
f 2086/3/4 2071/3/4 2087/3/4
f 2087/3/4 2071/3/4 2055/3/4
f 2087/3/4 2062/3/4 2088/3/4
f 2088/3/4 2062/3/4 2063/3/4
f 2089/3/4 2090/3/4 2091/3/4
f 2091/3/4 2090/3/4 2065/3/4
f 2092/2/4 2076/2/4 2093/2/4
f 2093/2/4 2076/2/4 2079/2/4
f 2094/2/4 2084/2/4 2095/2/4
f 2095/2/4 2084/2/4 2088/2/4
f 2096/2/4 2089/2/4 2098/2/4
f 2098/2/4 2089/2/4 2097/2/4
f 2099/3/4 2042/3/4 2100/3/4
f 2100/3/4 2042/3/4 2043/3/4
f 2100/3/4 2082/3/4 2101/3/4
f 2101/3/4 2082/3/4 2083/3/4
f 2102/2/4 2103/2/4 2104/2/4
f 2104/2/4 2103/2/4 2095/2/4
f 2105/3/4 2080/3/4 2106/3/4
f 2106/3/4 2080/3/4 2081/3/4
f 2106/3/4 2038/3/4 2107/3/4
f 2107/3/4 2038/3/4 2041/3/4
f 2108/2/4 2109/2/4 2110/2/4
f 2110/2/4 2109/2/4 2104/2/4
f 2111/2/4 2099/2/4 2113/2/4
f 2113/2/4 2099/2/4 2112/2/4
f 2114/2/4 2105/2/4 2115/2/4
f 2115/2/4 2105/2/4 2107/2/4
f 2116/3/4 2096/3/4 2117/3/4
f 2117/3/4 2096/3/4 2098/3/4
f 2117/3/4 2097/3/4 2118/3/4
f 2118/3/4 2097/3/4 2091/3/4
f 2118/3/4 2073/3/4 2119/3/4
f 2119/3/4 2073/3/4 2075/3/4
f 2120/3/4 2094/3/4 2121/3/4
f 2121/3/4 2094/3/4 2103/3/4
f 2121/3/4 2102/3/4 2122/3/4
f 2122/3/4 2102/3/4 2109/3/4
f 2122/3/4 2108/3/4 2123/3/4
f 2123/3/4 2108/3/4 2110/3/4
f 2124/2/4 2121/2/4 2125/2/4
f 2125/2/4 2121/2/4 2123/2/4
f 2126/2/4 2116/2/4 2127/2/4
f 2127/2/4 2116/2/4 2119/2/4
f 2128/3/4 2111/3/4 2129/3/4
f 2129/3/4 2111/3/4 2113/3/4
f 2130/2/4 2120/2/4 2131/2/4
f 2131/2/4 2120/2/4 2121/2/4
f 2132/3/4 2114/3/4 2133/3/4
f 2133/3/4 2114/3/4 2115/3/4
f 2134/3/4 2064/3/4 2135/3/4
f 2135/3/4 2064/3/4 2090/3/4
f 2136/2/4 2128/2/4 2138/2/4
f 2138/2/4 2128/2/4 2137/2/4
f 2139/3/4 2140/3/4 2141/3/4
f 2141/3/4 2140/3/4 2093/3/4
f 2142/3/4 2143/3/4 2144/3/4
f 2144/3/4 2143/3/4 2125/3/4
f 2144/3/4 2029/3/4 2145/3/4
f 2145/3/4 2029/3/4 2016/3/4
f 2145/2/4 2132/2/4 2147/2/4
f 2147/2/4 2132/2/4 2146/2/4
f 2148/2/4 2134/2/4 2149/2/4
f 2149/2/4 2134/2/4 2135/2/4
f 2150/3/4 2074/3/4 2151/3/4
f 2151/3/4 2074/3/4 2066/3/4
f 2152/2/4 2142/2/4 2153/2/4
f 2153/2/4 2142/2/4 2145/2/4
f 2154/3/4 2146/3/4 2155/3/4
f 2155/3/4 2146/3/4 2133/3/4
f 2156/2/4 2150/2/4 2157/2/4
f 2157/2/4 2150/2/4 2151/2/4
f 2158/2/4 2154/2/4 2159/2/4
f 2159/2/4 2154/2/4 2155/2/4
f 2160/2/4 2139/2/4 2161/2/4
f 2161/2/4 2139/2/4 2141/2/4
f 200/3/4 2148/3/4 2162/3/4
f 2162/3/4 2148/3/4 2149/3/4
f 2162/3/4 2126/3/4 2163/3/4
f 2163/3/4 2126/3/4 2127/3/4
f 2163/3/4 2156/3/4 2164/3/4
f 2164/3/4 2156/3/4 2157/3/4
f 2164/3/4 2136/3/4 2165/3/4
f 2165/3/4 2136/3/4 2138/3/4
f 2165/3/4 2137/3/4 2166/3/4
f 2166/3/4 2137/3/4 2129/3/4
f 2166/3/4 2112/3/4 2167/3/4
f 2167/3/4 2112/3/4 2101/3/4
f 2167/3/4 2092/3/4 2168/3/4
f 2168/3/4 2092/3/4 2140/3/4
f 2168/3/4 2160/3/4 2169/3/4
f 2169/3/4 2160/3/4 2161/3/4
f 2169/3/4 2070/3/4 2170/3/4
f 2170/3/4 2070/3/4 2085/3/4
f 2170/3/4 2130/3/4 2171/3/4
f 2171/3/4 2130/3/4 2131/3/4
f 2171/3/4 2124/3/4 2172/3/4
f 2172/3/4 2124/3/4 2143/3/4
f 2172/3/4 2152/3/4 2173/3/4
f 2173/3/4 2152/3/4 2153/3/4
f 2173/3/4 2145/3/4 2174/3/4
f 2174/3/4 2145/3/4 2147/3/4
f 2174/3/4 2158/3/4 2175/3/4
f 2175/3/4 2158/3/4 2159/3/4
f 2175/3/4 2040/3/4 1737/3/4
f 1737/3/4 2040/3/4 2032/3/4
f 1689/1/4 2176/1/4 2177/1/4
f 2177/1/4 2176/1/4 1736/1/4
f 1693/1/4 2178/1/4 2179/1/4
f 2179/1/4 2178/1/4 1731/1/4
f 185/1/4 197/1/4 1682/1/4
f 1682/1/4 197/1/4 2176/1/4
f 193/1/4 190/1/4 1684/1/4
f 1684/1/4 190/1/4 2178/1/4
f 1697/1/4 1686/1/4 1694/1/4
f 1694/1/4 1686/1/4 1705/1/4
f 1701/1/4 1690/1/4 1698/1/4
f 1698/1/4 1690/1/4 1709/1/4
f 1713/1/4 1702/1/4 1710/1/4
f 1710/1/4 1702/1/4 1721/1/4
f 1717/1/4 1706/1/4 1714/1/4
f 1714/1/4 1706/1/4 1725/1/4
f 1729/1/4 1718/1/4 1726/1/4
f 1726/1/4 1718/1/4 2177/1/4
f 1735/1/4 1722/1/4 1732/1/4
f 1732/1/4 1722/1/4 2179/1/4
f 2180/2/5 2181/2/5 2024/2/5
f 2024/2/5 2181/2/5 2032/2/5
f 1688/1/5 1683/1/5 1689/1/5
f 1689/1/5 1683/1/5 1682/1/5
f 1704/1/5 1695/1/5 1705/1/5
f 1705/1/5 1695/1/5 1694/1/5
f 1720/1/5 1711/1/5 1721/1/5
f 1721/1/5 1711/1/5 1710/1/5
f 1730/1/5 1727/1/5 1736/1/5
f 1736/1/5 1727/1/5 1726/1/5
f 1739/3/5 2182/3/5 1738/3/5
f 1738/3/5 2182/3/5 2024/3/5
f 2182/3/5 2183/3/5 2180/3/5
f 2180/3/5 2183/3/5 2181/3/5
f 2183/3/5 1740/3/5 2032/3/5
f 2032/3/5 1740/3/5 1737/3/5
f 1692/1/5 1685/1/5 1693/1/5
f 1693/1/5 1685/1/5 1684/1/5
f 1708/1/5 1699/1/5 1709/1/5
f 1709/1/5 1699/1/5 1698/1/5
f 1724/1/5 1715/1/5 1725/1/5
f 1725/1/5 1715/1/5 1714/1/5
f 1741/1/5 1733/1/5 1731/1/5
f 1731/1/5 1733/1/5 1732/1/5
f 1687/1/6 1686/1/6 1696/1/6
f 1696/1/6 1686/1/6 1697/1/6
f 1703/1/6 1702/1/6 1712/1/6
f 1712/1/6 1702/1/6 1713/1/6
f 1719/1/6 1718/1/6 1728/1/6
f 1728/1/6 1718/1/6 1729/1/6
f 1691/1/6 1690/1/6 1700/1/6
f 1700/1/6 1690/1/6 1701/1/6
f 1707/1/6 1706/1/6 1716/1/6
f 1716/1/6 1706/1/6 1717/1/6
f 1723/1/6 1722/1/6 1734/1/6
f 1734/1/6 1722/1/6 1735/1/6
