# Vengi binary mesh normalized for Tanks of Freedom II

mtllib ../../materials/vox_grass.mtl
o wall_fence_overtile

v 4 0.8 3.9
v 3.9 0.8 3.9
v 3.9 0.8 4
v 4 0.8 4
v 3.9 0.7 3.9
v 3.6 0.7 3.9
v 3.6 0.7 4
v 3.9 0.7 4
v 3.6 0.8 3.9
v 3.5 0.8 3.9
v 3.5 0.8 4
v 3.6 0.8 4
v 1.5 0.8 3.9
v 1.4 0.8 3.9
v 1.4 0.8 4
v 1.5 0.8 4
v 1.4 0.7 3.9
v 1.1 0.7 3.9
v 1.1 0.7 4
v 1.4 0.7 4
v 1.1 0.8 3.9
v 1 0.8 3.9
v 1 0.8 4
v 1.1 0.8 4
v -1 0.8 3.9
v -1.1 0.8 3.9
v -1.1 0.8 4
v -1 0.8 4
v -1.1 0.7 3.9
v -1.4 0.7 3.9
v -1.4 0.7 4
v -1.1 0.7 4
v -1.4 0.8 3.9
v -1.5 0.8 3.9
v -1.5 0.8 4
v -1.4 0.8 4
v 3.5 0.5 3.7
v 1.5 0.5 3.7
v 1.5 0.5 3.8
v 3.5 0.5 3.8
v -1.5 0.5 3.7
v -2.2 0.5 3.7
v -2.2 0.5 3.8
v -1.5 0.5 3.8
v 4 0.7 3.6
v 3.9 0.7 3.6
v 4 0.7 3.9
v 3.9 0.6 3.6
v 3.6 0.6 3.6
v 3.6 0.6 3.9
v 3.9 0.6 3.9
v 3.6 0.7 3.6
v 3.5 0.7 3.6
v 3.5 0.7 3.9
v 1.5 0.7 3.6
v 1.4 0.7 3.6
v 1.5 0.7 3.9
v 1.4 0.6 3.6
v 1.1 0.6 3.6
v 1.1 0.6 3.9
v 1.4 0.6 3.9
v 1.1 0.7 3.6
v 1 0.7 3.6
v 1 0.7 3.9
v -1 0.7 3.6
v -1.1 0.7 3.6
v -1 0.7 3.9
v -1.1 0.6 3.6
v -1.4 0.6 3.6
v -1.4 0.6 3.9
v -1.1 0.6 3.9
v -1.4 0.7 3.6
v -1.5 0.7 3.6
v -1.5 0.7 3.9
v 4 0.8 3.5
v 3.9 0.8 3.5
v 3.9 0.8 3.6
v 4 0.8 3.6
v 3.9 0.7 3.5
v 3.6 0.7 3.5
v 3.6 0.8 3.5
v 3.5 0.8 3.5
v 3.5 0.8 3.6
v 3.6 0.8 3.6
v 1.5 0.8 3.5
v 1.4 0.8 3.5
v 1.4 0.8 3.6
v 1.5 0.8 3.6
v 1.4 0.7 3.5
v 1.1 0.7 3.5
v 1.1 0.8 3.5
v 1 0.8 3.5
v 1 0.8 3.6
v 1.1 0.8 3.6
v -1 0.8 3.5
v -1.1 0.8 3.5
v -1.1 0.8 3.6
v -1 0.8 3.6
v -1.1 0.7 3.5
v -1.4 0.7 3.5
v -1.4 0.8 3.5
v -1.5 0.8 3.5
v -1.5 0.8 3.6
v -1.4 0.8 3.6
v 3.8 0.5 1.5
v 3.7 0.5 1.5
v 3.7 0.5 3.5
v 3.8 0.5 3.5
v 4 0.8 1.4
v 3.9 0.8 1.4
v 3.9 0.8 1.5
v 4 0.8 1.5
v 3.9 0.7 1.4
v 3.6 0.7 1.4
v 3.6 0.7 1.5
v 3.9 0.7 1.5
v 3.6 0.8 1.4
v 3.5 0.8 1.4
v 3.5 0.8 1.5
v 3.6 0.8 1.5
v 4 0.7 1.1
v 3.9 0.7 1.1
v 4 0.7 1.4
v 3.9 0.6 1.1
v 3.6 0.6 1.1
v 3.6 0.6 1.4
v 3.9 0.6 1.4
v 3.6 0.7 1.1
v 3.5 0.7 1.1
v 3.5 0.7 1.4
v 4 0.8 1
v 3.9 0.8 1
v 3.9 0.8 1.1
v 4 0.8 1.1
v 3.9 0.7 1
v 3.6 0.7 1
v 3.6 0.8 1
v 3.5 0.8 1
v 3.5 0.8 1.1
v 3.6 0.8 1.1
v 3.8 0.5 -1
v 3.7 0.5 -1
v 3.7 0.5 1
v 3.8 0.5 1
v 4 0.8 -1.1
v 3.9 0.8 -1.1
v 3.9 0.8 -1
v 4 0.8 -1
v 3.9 0.7 -1.1
v 3.6 0.7 -1.1
v 3.6 0.7 -1
v 3.9 0.7 -1
v 3.6 0.8 -1.1
v 3.5 0.8 -1.1
v 3.5 0.8 -1
v 3.6 0.8 -1
v 4 0.7 -1.4
v 3.9 0.7 -1.4
v 4 0.7 -1.1
v 3.9 0.6 -1.4
v 3.6 0.6 -1.4
v 3.6 0.6 -1.1
v 3.9 0.6 -1.1
v 3.6 0.7 -1.4
v 3.5 0.7 -1.4
v 3.5 0.7 -1.1
v 4 0.8 -1.5
v 3.9 0.8 -1.5
v 3.9 0.8 -1.4
v 4 0.8 -1.4
v 3.9 0.7 -1.5
v 3.6 0.7 -1.5
v 3.6 0.8 -1.5
v 3.5 0.8 -1.5
v 3.5 0.8 -1.4
v 3.6 0.8 -1.4
v 3.8 0.5 -2.2
v 3.7 0.5 -2.2
v 3.7 0.5 -1.5
v 3.8 0.5 -1.5
v 4 0.5 3.9
v 4 0.5 4
v 3.9 0.5 4
v 3.9 0.5 3.9
v 3.6 0.5 3.9
v 3.6 0.5 4
v 3.5 0.5 4
v 3.5 0.5 3.9
v 1.5 0.5 3.9
v 1.5 0.5 4
v 1.4 0.5 4
v 1.4 0.5 3.9
v 1.1 0.5 3.9
v 1.1 0.5 4
v 1 0.5 4
v 1 0.5 3.9
v -1 0.5 3.9
v -1 0.5 4
v -1.1 0.5 4
v -1.1 0.5 3.9
v -1.4 0.5 3.9
v -1.4 0.5 4
v -1.5 0.5 4
v -1.5 0.5 3.9
v 3.5 0 3.7
v 3.5 0 3.8
v 1.5 0 3.8
v 1.5 0 3.7
v -1.5 0 3.7
v -1.5 0 3.8
v -2.2 0 3.8
v -2.2 0 3.7
v 4 0 3.6
v 4 0 3.9
v 3.9 0 3.9
v 3.9 0 3.6
v 3.6 0 3.6
v 3.6 0 3.9
v 3.5 0 3.9
v 3.5 0 3.6
v 1.5 0 3.6
v 1.5 0 3.9
v 1.4 0 3.9
v 1.4 0 3.6
v 1.1 0 3.6
v 1.1 0 3.9
v 1 0 3.9
v 1 0 3.6
v -1 0 3.6
v -1 0 3.9
v -1.1 0 3.9
v -1.1 0 3.6
v -1.4 0 3.6
v -1.4 0 3.9
v -1.5 0 3.9
v -1.5 0 3.6
v 4 0.5 3.5
v 4 0.5 3.6
v 3.9 0.5 3.6
v 3.9 0.5 3.5
v 3.9 0 3.5
v 3.9 0 4
v 3.6 0 4
v 3.6 0 3.5
v 3.6 0.5 3.5
v 3.6 0.5 3.6
v 3.5 0.5 3.6
v 3.5 0.5 3.5
v 1.5 0.5 3.5
v 1.5 0.5 3.6
v 1.4 0.5 3.6
v 1.4 0.5 3.5
v 1.4 0 3.5
v 1.4 0 4
v 1.1 0 4
v 1.1 0 3.5
v 1.1 0.5 3.5
v 1.1 0.5 3.6
v 1 0.5 3.6
v 1 0.5 3.5
v -1 0.5 3.5
v -1 0.5 3.6
v -1.1 0.5 3.6
v -1.1 0.5 3.5
v -1.1 0 3.5
v -1.1 0 4
v -1.4 0 4
v -1.4 0 3.5
v -1.4 0.5 3.5
v -1.4 0.5 3.6
v -1.5 0.5 3.6
v -1.5 0.5 3.5
v 4 0.5 1.4
v 4 0.5 1.5
v 3.9 0.5 1.5
v 3.9 0.5 1.4
v 3.6 0.5 1.4
v 3.6 0.5 1.5
v 3.5 0.5 1.5
v 3.5 0.5 1.4
v 4 0 1.1
v 4 0 1.4
v 3.9 0 1.4
v 3.9 0 1.1
v 3.6 0 1.1
v 3.6 0 1.4
v 3.5 0 1.4
v 3.5 0 1.1
v 4 0.5 1
v 4 0.5 1.1
v 3.9 0.5 1.1
v 3.9 0.5 1
v 3.9 0 1
v 3.9 0 1.5
v 3.8 0 1.5
v 3.8 0 1
v 3.7 0 1
v 3.7 0 1.5
v 3.6 0 1.5
v 3.6 0 1
v 3.6 0.5 1
v 3.6 0.5 1.1
v 3.5 0.5 1.1
v 3.5 0.5 1
v 4 0.5 -1.1
v 4 0.5 -1
v 3.9 0.5 -1
v 3.9 0.5 -1.1
v 3.6 0.5 -1.1
v 3.6 0.5 -1
v 3.5 0.5 -1
v 3.5 0.5 -1.1
v 4 0 -1.4
v 4 0 -1.1
v 3.9 0 -1.1
v 3.9 0 -1.4
v 3.6 0 -1.4
v 3.6 0 -1.1
v 3.5 0 -1.1
v 3.5 0 -1.4
v 4 0.5 -1.5
v 4 0.5 -1.4
v 3.9 0.5 -1.4
v 3.9 0.5 -1.5
v 3.9 0 -1.5
v 3.9 0 -1
v 3.8 0 -1
v 3.8 0 -1.5
v 3.7 0 -1.5
v 3.7 0 -1
v 3.6 0 -1
v 3.6 0 -1.5
v 3.6 0.5 -1.5
v 3.6 0.5 -1.4
v 3.5 0.5 -1.4
v 3.5 0.5 -1.5
v 3.8 0 -2.2
v 3.8 0 3.5
v 3.7 0 3.5
v 3.7 0 -2.2
v 3.5 0.7 3.8
v -1.5 0.7 3.8
v 3.5 0.7 3.7
v -1.5 0.7 3.7
v 1.5 0.7 3.8
v 1.5 0.7 3.7
v 4 0.7 3.5
v 4 0.7 1
v 4 0.7 -1.5
v 3.5 0.7 3.5
v 3.5 0.7 1
v 3.5 0.7 -1.5
v 1.5 0.7 3.5
v 1 0.7 3.5
v -1 0.7 3.5
v -1.5 0.7 3.5
v 4 0.7 4
v 4 0.7 1.5
v 4 0.7 -1
v 3.5 0.7 4
v 3.5 0.7 1.5
v 3.5 0.7 -1
v 1.5 0.7 4
v 1 0.7 4
v -1 0.7 4
v -1.5 0.7 4
v -3.5 0.8 3.9
v -3.6 0.8 3.9
v -3.6 0.8 4
v -3.5 0.8 4
v -3.6 0.7 3.9
v -3.9 0.7 3.9
v -3.9 0.7 4
v -3.6 0.7 4
v -3.9 0.8 3.9
v -4 0.8 3.9
v -4 0.8 4
v -3.9 0.8 4
v -3.5 0.5 3.7
v -3.5 0.5 3.8
v -3.5 0.7 3.6
v -3.6 0.7 3.6
v -3.5 0.7 3.9
v -3.6 0.6 3.6
v -3.9 0.6 3.6
v -3.9 0.6 3.9
v -3.6 0.6 3.9
v -3.9 0.7 3.6
v -4 0.7 3.6
v -4 0.7 3.9
v -3.5 0.8 3.5
v -3.6 0.8 3.5
v -3.6 0.8 3.6
v -3.5 0.8 3.6
v -3.6 0.7 3.5
v -3.9 0.7 3.5
v -3.9 0.8 3.5
v -4 0.8 3.5
v -4 0.8 3.6
v -3.9 0.8 3.6
v -3.7 0.5 1.5
v -3.8 0.5 1.5
v -3.8 0.5 3.5
v -3.7 0.5 3.5
v -3.5 0.8 1.4
v -3.6 0.8 1.4
v -3.6 0.8 1.5
v -3.5 0.8 1.5
v -3.6 0.7 1.4
v -3.9 0.7 1.4
v -3.9 0.7 1.5
v -3.6 0.7 1.5
v -3.9 0.8 1.4
v -4 0.8 1.4
v -4 0.8 1.5
v -3.9 0.8 1.5
v -3.5 0.7 1.1
v -3.6 0.7 1.1
v -3.5 0.7 1.4
v -3.6 0.6 1.1
v -3.9 0.6 1.1
v -3.9 0.6 1.4
v -3.6 0.6 1.4
v -3.9 0.7 1.1
v -4 0.7 1.1
v -4 0.7 1.4
v -3.5 0.8 1
v -3.6 0.8 1
v -3.6 0.8 1.1
v -3.5 0.8 1.1
v -3.6 0.7 1
v -3.9 0.7 1
v -3.9 0.8 1
v -4 0.8 1
v -4 0.8 1.1
v -3.9 0.8 1.1
v -3.7 0.5 -1
v -3.8 0.5 -1
v -3.8 0.5 1
v -3.7 0.5 1
v -3.5 0.8 -1.1
v -3.6 0.8 -1.1
v -3.6 0.8 -1
v -3.5 0.8 -1
v -3.6 0.7 -1.1
v -3.9 0.7 -1.1
v -3.9 0.7 -1
v -3.6 0.7 -1
v -3.9 0.8 -1.1
v -4 0.8 -1.1
v -4 0.8 -1
v -3.9 0.8 -1
v -3.5 0.7 -1.4
v -3.6 0.7 -1.4
v -3.5 0.7 -1.1
v -3.6 0.6 -1.4
v -3.9 0.6 -1.4
v -3.9 0.6 -1.1
v -3.6 0.6 -1.1
v -3.9 0.7 -1.4
v -4 0.7 -1.4
v -4 0.7 -1.1
v -3.5 0.8 -1.5
v -3.6 0.8 -1.5
v -3.6 0.8 -1.4
v -3.5 0.8 -1.4
v -3.6 0.7 -1.5
v -3.9 0.7 -1.5
v -3.9 0.8 -1.5
v -4 0.8 -1.5
v -4 0.8 -1.4
v -3.9 0.8 -1.4
v -3.7 0.5 -2.2
v -3.8 0.5 -2.2
v -3.8 0.5 -1.5
v -3.7 0.5 -1.5
v -3.5 0.5 3.9
v -3.5 0.5 4
v -3.6 0.5 4
v -3.6 0.5 3.9
v -3.9 0.5 3.9
v -3.9 0.5 4
v -4 0.5 4
v -4 0.5 3.9
v -3.5 0 3.8
v -3.5 0 3.7
v -3.5 0 3.6
v -3.5 0 3.9
v -3.6 0 3.9
v -3.6 0 3.6
v -3.9 0 3.6
v -3.9 0 3.9
v -4 0 3.9
v -4 0 3.6
v -3.5 0.5 3.5
v -3.5 0.5 3.6
v -3.6 0.5 3.6
v -3.6 0.5 3.5
v -3.6 0 3.5
v -3.6 0 4
v -3.9 0 4
v -3.9 0 3.5
v -3.9 0.5 3.5
v -3.9 0.5 3.6
v -4 0.5 3.6
v -4 0.5 3.5
v -3.5 0.5 1.4
v -3.5 0.5 1.5
v -3.6 0.5 1.5
v -3.6 0.5 1.4
v -3.9 0.5 1.4
v -3.9 0.5 1.5
v -4 0.5 1.5
v -4 0.5 1.4
v -3.5 0 1.1
v -3.5 0 1.4
v -3.6 0 1.4
v -3.6 0 1.1
v -3.9 0 1.1
v -3.9 0 1.4
v -4 0 1.4
v -4 0 1.1
v -3.5 0.5 1
v -3.5 0.5 1.1
v -3.6 0.5 1.1
v -3.6 0.5 1
v -3.6 0 1
v -3.6 0 1.5
v -3.7 0 1.5
v -3.7 0 1
v -3.8 0 1
v -3.8 0 1.5
v -3.9 0 1.5
v -3.9 0 1
v -3.9 0.5 1
v -3.9 0.5 1.1
v -4 0.5 1.1
v -4 0.5 1
v -3.5 0.5 -1.1
v -3.5 0.5 -1
v -3.6 0.5 -1
v -3.6 0.5 -1.1
v -3.9 0.5 -1.1
v -3.9 0.5 -1
v -4 0.5 -1
v -4 0.5 -1.1
v -3.5 0 -1.4
v -3.5 0 -1.1
v -3.6 0 -1.1
v -3.6 0 -1.4
v -3.9 0 -1.4
v -3.9 0 -1.1
v -4 0 -1.1
v -4 0 -1.4
v -3.5 0.5 -1.5
v -3.5 0.5 -1.4
v -3.6 0.5 -1.4
v -3.6 0.5 -1.5
v -3.6 0 -1.5
v -3.6 0 -1
v -3.7 0 -1
v -3.7 0 -1.5
v -3.8 0 -1.5
v -3.8 0 -1
v -3.9 0 -1
v -3.9 0 -1.5
v -3.9 0.5 -1.5
v -3.9 0.5 -1.4
v -4 0.5 -1.4
v -4 0.5 -1.5
v -3.7 0 -2.2
v -3.7 0 3.5
v -3.8 0 3.5
v -3.8 0 -2.2
v -3.5 0.7 3.8
v -3.5 0.7 3.7
v -3.5 0.7 3.5
v -3.5 0.7 1
v -3.5 0.7 -1.5
v -4 0.7 3.5
v -4 0.7 1
v -4 0.7 -1.5
v -3.5 0.7 4
v -3.5 0.7 1.5
v -3.5 0.7 -1
v -4 0.7 4
v -4 0.7 1.5
v -4 0.7 -1
v 3.8 0.5 -3.5
v 3.7 0.5 -3.5
v 4 0.8 -3.6
v 3.9 0.8 -3.6
v 3.9 0.8 -3.5
v 4 0.8 -3.5
v 3.9 0.7 -3.6
v 3.6 0.7 -3.6
v 3.6 0.7 -3.5
v 3.9 0.7 -3.5
v 3.6 0.8 -3.6
v 3.5 0.8 -3.6
v 3.5 0.8 -3.5
v 3.6 0.8 -3.5
v 1.5 0.8 -3.6
v 1.4 0.8 -3.6
v 1.4 0.8 -3.5
v 1.5 0.8 -3.5
v 1.4 0.7 -3.6
v 1.1 0.7 -3.6
v 1.1 0.7 -3.5
v 1.4 0.7 -3.5
v 1.1 0.8 -3.6
v 1 0.8 -3.6
v 1 0.8 -3.5
v 1.1 0.8 -3.5
v -1 0.8 -3.6
v -1.1 0.8 -3.6
v -1.1 0.8 -3.5
v -1 0.8 -3.5
v -1.1 0.7 -3.6
v -1.4 0.7 -3.6
v -1.4 0.7 -3.5
v -1.1 0.7 -3.5
v -1.4 0.8 -3.6
v -1.5 0.8 -3.6
v -1.5 0.8 -3.5
v -1.4 0.8 -3.5
v 3.5 0.5 -3.8
v 1.5 0.5 -3.8
v 1.5 0.5 -3.7
v 3.5 0.5 -3.7
v 1 0.5 -3.8
v -1 0.5 -3.8
v -1 0.5 -3.7
v 1 0.5 -3.7
v -1.5 0.5 -3.8
v -2.2 0.5 -3.8
v -2.2 0.5 -3.7
v -1.5 0.5 -3.7
v 4 0.7 -3.9
v 3.9 0.7 -3.9
v 4 0.7 -3.6
v 3.9 0.6 -3.9
v 3.6 0.6 -3.9
v 3.6 0.6 -3.6
v 3.9 0.6 -3.6
v 3.6 0.7 -3.9
v 3.5 0.7 -3.9
v 3.5 0.7 -3.6
v 1.5 0.7 -3.9
v 1.4 0.7 -3.9
v 1.5 0.7 -3.6
v 1.4 0.6 -3.9
v 1.1 0.6 -3.9
v 1.1 0.6 -3.6
v 1.4 0.6 -3.6
v 1.1 0.7 -3.9
v 1 0.7 -3.9
v 1 0.7 -3.6
v -1 0.7 -3.9
v -1.1 0.7 -3.9
v -1 0.7 -3.6
v -1.1 0.6 -3.9
v -1.4 0.6 -3.9
v -1.4 0.6 -3.6
v -1.1 0.6 -3.6
v -1.4 0.7 -3.9
v -1.5 0.7 -3.9
v -1.5 0.7 -3.6
v 4 0.8 -4
v 3.9 0.8 -4
v 3.9 0.8 -3.9
v 4 0.8 -3.9
v 3.9 0.7 -4
v 3.6 0.7 -4
v 3.6 0.8 -4
v 3.5 0.8 -4
v 3.5 0.8 -3.9
v 3.6 0.8 -3.9
v 1.5 0.8 -4
v 1.4 0.8 -4
v 1.4 0.8 -3.9
v 1.5 0.8 -3.9
v 1.4 0.7 -4
v 1.1 0.7 -4
v 1.1 0.8 -4
v 1 0.8 -4
v 1 0.8 -3.9
v 1.1 0.8 -3.9
v -1 0.8 -4
v -1.1 0.8 -4
v -1.1 0.8 -3.9
v -1 0.8 -3.9
v -1.1 0.7 -4
v -1.4 0.7 -4
v -1.4 0.8 -4
v -1.5 0.8 -4
v -1.5 0.8 -3.9
v -1.4 0.8 -3.9
v 4 0.5 -3.6
v 4 0.5 -3.5
v 3.9 0.5 -3.5
v 3.9 0.5 -3.6
v 3.6 0.5 -3.6
v 3.6 0.5 -3.5
v 3.5 0.5 -3.5
v 3.5 0.5 -3.6
v 1.5 0.5 -3.6
v 1.5 0.5 -3.5
v 1.4 0.5 -3.5
v 1.4 0.5 -3.6
v 1.1 0.5 -3.6
v 1.1 0.5 -3.5
v 1 0.5 -3.5
v 1 0.5 -3.6
v -1 0.5 -3.6
v -1 0.5 -3.5
v -1.1 0.5 -3.5
v -1.1 0.5 -3.6
v -1.4 0.5 -3.6
v -1.4 0.5 -3.5
v -1.5 0.5 -3.5
v -1.5 0.5 -3.6
v 3.5 0 -3.8
v 3.5 0 -3.7
v 1.5 0 -3.7
v 1.5 0 -3.8
v 1 0 -3.8
v 1 0 -3.7
v -1 0 -3.7
v -1 0 -3.8
v -1.5 0 -3.8
v -1.5 0 -3.7
v -2.2 0 -3.7
v -2.2 0 -3.8
v 4 0 -3.9
v 4 0 -3.6
v 3.9 0 -3.6
v 3.9 0 -3.9
v 3.6 0 -3.9
v 3.6 0 -3.6
v 3.5 0 -3.6
v 3.5 0 -3.9
v 1.5 0 -3.9
v 1.5 0 -3.6
v 1.4 0 -3.6
v 1.4 0 -3.9
v 1.1 0 -3.9
v 1.1 0 -3.6
v 1 0 -3.6
v 1 0 -3.9
v -1 0 -3.9
v -1 0 -3.6
v -1.1 0 -3.6
v -1.1 0 -3.9
v -1.4 0 -3.9
v -1.4 0 -3.6
v -1.5 0 -3.6
v -1.5 0 -3.9
v 4 0.5 -4
v 4 0.5 -3.9
v 3.9 0.5 -3.9
v 3.9 0.5 -4
v 3.9 0 -4
v 3.9 0 -3.5
v 3.8 0 -3.5
v 3.8 0 -4
v 3.7 0 -4
v 3.7 0 -3.5
v 3.6 0 -3.5
v 3.6 0 -4
v 3.6 0.5 -4
v 3.6 0.5 -3.9
v 3.5 0.5 -3.9
v 3.5 0.5 -4
v 1.5 0.5 -4
v 1.5 0.5 -3.9
v 1.4 0.5 -3.9
v 1.4 0.5 -4
v 1.4 0 -4
v 1.4 0 -3.5
v 1.1 0 -3.5
v 1.1 0 -4
v 1.1 0.5 -4
v 1.1 0.5 -3.9
v 1 0.5 -3.9
v 1 0.5 -4
v -1 0.5 -4
v -1 0.5 -3.9
v -1.1 0.5 -3.9
v -1.1 0.5 -4
v -1.1 0 -4
v -1.1 0 -3.5
v -1.4 0 -3.5
v -1.4 0 -4
v -1.4 0.5 -4
v -1.4 0.5 -3.9
v -1.5 0.5 -3.9
v -1.5 0.5 -4
v 3.5 0.7 -3.7
v 1 0.7 -3.7
v -1.5 0.7 -3.7
v 3.5 0.7 -3.8
v 1 0.7 -3.8
v -1.5 0.7 -3.8
v 1.5 0.7 -3.7
v -1 0.7 -3.7
v 1.5 0.7 -3.8
v -1 0.7 -3.8
v 4 0.7 -4
v 3.5 0.7 -4
v 1.5 0.7 -4
v 1 0.7 -4
v -1 0.7 -4
v -1.5 0.7 -4
v 4 0.7 -3.5
v 3.5 0.7 -3.5
v 1.5 0.7 -3.5
v 1 0.7 -3.5
v -1 0.7 -3.5
v -1.5 0.7 -3.5
v -3.7 0.5 -3.5
v -3.8 0.5 -3.5
v -3.5 0.8 -3.6
v -3.6 0.8 -3.6
v -3.6 0.8 -3.5
v -3.5 0.8 -3.5
v -3.6 0.7 -3.6
v -3.9 0.7 -3.6
v -3.9 0.7 -3.5
v -3.6 0.7 -3.5
v -3.9 0.8 -3.6
v -4 0.8 -3.6
v -4 0.8 -3.5
v -3.9 0.8 -3.5
v -3.5 0.5 -3.8
v -3.5 0.5 -3.7
v -3.5 0.7 -3.9
v -3.6 0.7 -3.9
v -3.5 0.7 -3.6
v -3.6 0.6 -3.9
v -3.9 0.6 -3.9
v -3.9 0.6 -3.6
v -3.6 0.6 -3.6
v -3.9 0.7 -3.9
v -4 0.7 -3.9
v -4 0.7 -3.6
v -3.5 0.8 -4
v -3.6 0.8 -4
v -3.6 0.8 -3.9
v -3.5 0.8 -3.9
v -3.6 0.7 -4
v -3.9 0.7 -4
v -3.9 0.8 -4
v -4 0.8 -4
v -4 0.8 -3.9
v -3.9 0.8 -3.9
v -3.5 0.5 -3.6
v -3.5 0.5 -3.5
v -3.6 0.5 -3.5
v -3.6 0.5 -3.6
v -3.9 0.5 -3.6
v -3.9 0.5 -3.5
v -4 0.5 -3.5
v -4 0.5 -3.6
v -3.5 0 -3.7
v -3.5 0 -3.8
v -3.5 0 -3.9
v -3.5 0 -3.6
v -3.6 0 -3.6
v -3.6 0 -3.9
v -3.9 0 -3.9
v -3.9 0 -3.6
v -4 0 -3.6
v -4 0 -3.9
v -3.5 0.5 -4
v -3.5 0.5 -3.9
v -3.6 0.5 -3.9
v -3.6 0.5 -4
v -3.6 0 -4
v -3.6 0 -3.5
v -3.7 0 -3.5
v -3.7 0 -4
v -3.8 0 -4
v -3.8 0 -3.5
v -3.9 0 -3.5
v -3.9 0 -4
v -3.9 0.5 -4
v -3.9 0.5 -3.9
v -4 0.5 -3.9
v -4 0.5 -4
v -3.5 0.7 -3.7
v -3.5 0.7 -3.8
v -3.5 0.7 -4
v -4 0.7 -4
v -3.5 0.7 -3.5
v -4 0.7 -3.5

vt 0.0683594 0.5
vt 0.0839844 0.5

vn 0 1 0
vn 0 -1 0
vn -1 0 0
vn 1 0 0
vn 0 0 -1
vn 0 0 1

usemtl palette
f 1/1/1 2/1/1 4/1/1
f 4/1/1 2/1/1 3/1/1
f 5/1/1 6/1/1 8/1/1
f 8/1/1 6/1/1 7/1/1
f 9/1/1 10/1/1 12/1/1
f 12/1/1 10/1/1 11/1/1
f 13/1/1 14/1/1 16/1/1
f 16/1/1 14/1/1 15/1/1
f 17/1/1 18/1/1 20/1/1
f 20/1/1 18/1/1 19/1/1
f 21/1/1 22/1/1 24/1/1
f 24/1/1 22/1/1 23/1/1
f 25/1/1 26/1/1 28/1/1
f 28/1/1 26/1/1 27/1/1
f 29/1/1 30/1/1 32/1/1
f 32/1/1 30/1/1 31/1/1
f 33/1/1 34/1/1 36/1/1
f 36/1/1 34/1/1 35/1/1
f 37/1/1 38/1/1 40/1/1
f 40/1/1 38/1/1 39/1/1
f 41/1/1 42/1/1 44/1/1
f 44/1/1 42/1/1 43/1/1
f 45/1/1 46/1/1 47/1/1
f 47/1/1 46/1/1 5/1/1
f 48/2/1 49/2/1 51/2/1
f 51/2/1 49/2/1 50/2/1
f 52/1/1 53/1/1 6/1/1
f 6/1/1 53/1/1 54/1/1
f 55/1/1 56/1/1 57/1/1
f 57/1/1 56/1/1 17/1/1
f 58/2/1 59/2/1 61/2/1
f 61/2/1 59/2/1 60/2/1
f 62/1/1 63/1/1 18/1/1
f 18/1/1 63/1/1 64/1/1
f 65/1/1 66/1/1 67/1/1
f 67/1/1 66/1/1 29/1/1
f 68/2/1 69/2/1 71/2/1
f 71/2/1 69/2/1 70/2/1
f 72/1/1 73/1/1 30/1/1
f 30/1/1 73/1/1 74/1/1
f 75/1/1 76/1/1 78/1/1
f 78/1/1 76/1/1 77/1/1
f 79/1/1 80/1/1 46/1/1
f 46/1/1 80/1/1 52/1/1
f 81/1/1 82/1/1 84/1/1
f 84/1/1 82/1/1 83/1/1
f 85/1/1 86/1/1 88/1/1
f 88/1/1 86/1/1 87/1/1
f 89/1/1 90/1/1 56/1/1
f 56/1/1 90/1/1 62/1/1
f 91/1/1 92/1/1 94/1/1
f 94/1/1 92/1/1 93/1/1
f 95/1/1 96/1/1 98/1/1
f 98/1/1 96/1/1 97/1/1
f 99/1/1 100/1/1 66/1/1
f 66/1/1 100/1/1 72/1/1
f 101/1/1 102/1/1 104/1/1
f 104/1/1 102/1/1 103/1/1
f 105/1/1 106/1/1 108/1/1
f 108/1/1 106/1/1 107/1/1
f 109/1/1 110/1/1 112/1/1
f 112/1/1 110/1/1 111/1/1
f 113/1/1 114/1/1 116/1/1
f 116/1/1 114/1/1 115/1/1
f 117/1/1 118/1/1 120/1/1
f 120/1/1 118/1/1 119/1/1
f 121/1/1 122/1/1 123/1/1
f 123/1/1 122/1/1 113/1/1
f 124/2/1 125/2/1 127/2/1
f 127/2/1 125/2/1 126/2/1
f 128/1/1 129/1/1 114/1/1
f 114/1/1 129/1/1 130/1/1
f 131/1/1 132/1/1 134/1/1
f 134/1/1 132/1/1 133/1/1
f 135/1/1 136/1/1 122/1/1
f 122/1/1 136/1/1 128/1/1
f 137/1/1 138/1/1 140/1/1
f 140/1/1 138/1/1 139/1/1
f 141/1/1 142/1/1 144/1/1
f 144/1/1 142/1/1 143/1/1
f 145/1/1 146/1/1 148/1/1
f 148/1/1 146/1/1 147/1/1
f 149/1/1 150/1/1 152/1/1
f 152/1/1 150/1/1 151/1/1
f 153/1/1 154/1/1 156/1/1
f 156/1/1 154/1/1 155/1/1
f 157/1/1 158/1/1 159/1/1
f 159/1/1 158/1/1 149/1/1
f 160/2/1 161/2/1 163/2/1
f 163/2/1 161/2/1 162/2/1
f 164/1/1 165/1/1 150/1/1
f 150/1/1 165/1/1 166/1/1
f 167/1/1 168/1/1 170/1/1
f 170/1/1 168/1/1 169/1/1
f 171/1/1 172/1/1 158/1/1
f 158/1/1 172/1/1 164/1/1
f 173/1/1 174/1/1 176/1/1
f 176/1/1 174/1/1 175/1/1
f 177/1/1 178/1/1 180/1/1
f 180/1/1 178/1/1 179/1/1
f 181/1/2 182/1/2 184/1/2
f 184/1/2 182/1/2 183/1/2
f 185/1/2 186/1/2 188/1/2
f 188/1/2 186/1/2 187/1/2
f 189/1/2 190/1/2 192/1/2
f 192/1/2 190/1/2 191/1/2
f 193/1/2 194/1/2 196/1/2
f 196/1/2 194/1/2 195/1/2
f 197/1/2 198/1/2 200/1/2
f 200/1/2 198/1/2 199/1/2
f 201/1/2 202/1/2 204/1/2
f 204/1/2 202/1/2 203/1/2
f 205/1/2 206/1/2 208/1/2
f 208/1/2 206/1/2 207/1/2
f 209/1/2 210/1/2 212/1/2
f 212/1/2 210/1/2 211/1/2
f 213/1/2 214/1/2 216/1/2
f 216/1/2 214/1/2 215/1/2
f 217/1/2 218/1/2 220/1/2
f 220/1/2 218/1/2 219/1/2
f 221/1/2 222/1/2 224/1/2
f 224/1/2 222/1/2 223/1/2
f 225/1/2 226/1/2 228/1/2
f 228/1/2 226/1/2 227/1/2
f 229/1/2 230/1/2 232/1/2
f 232/1/2 230/1/2 231/1/2
f 233/1/2 234/1/2 236/1/2
f 236/1/2 234/1/2 235/1/2
f 237/1/2 238/1/2 240/1/2
f 240/1/2 238/1/2 239/1/2
f 241/1/2 242/1/2 244/1/2
f 244/1/2 242/1/2 243/1/2
f 245/1/2 246/1/2 248/1/2
f 248/1/2 246/1/2 247/1/2
f 249/1/2 250/1/2 252/1/2
f 252/1/2 250/1/2 251/1/2
f 253/1/2 254/1/2 256/1/2
f 256/1/2 254/1/2 255/1/2
f 257/1/2 258/1/2 260/1/2
f 260/1/2 258/1/2 259/1/2
f 261/1/2 262/1/2 264/1/2
f 264/1/2 262/1/2 263/1/2
f 265/1/2 266/1/2 268/1/2
f 268/1/2 266/1/2 267/1/2
f 269/1/2 270/1/2 272/1/2
f 272/1/2 270/1/2 271/1/2
f 273/1/2 274/1/2 276/1/2
f 276/1/2 274/1/2 275/1/2
f 277/1/2 278/1/2 280/1/2
f 280/1/2 278/1/2 279/1/2
f 281/1/2 282/1/2 284/1/2
f 284/1/2 282/1/2 283/1/2
f 285/1/2 286/1/2 288/1/2
f 288/1/2 286/1/2 287/1/2
f 289/1/2 290/1/2 292/1/2
f 292/1/2 290/1/2 291/1/2
f 293/1/2 294/1/2 296/1/2
f 296/1/2 294/1/2 295/1/2
f 297/1/2 298/1/2 300/1/2
f 300/1/2 298/1/2 299/1/2
f 301/1/2 302/1/2 304/1/2
f 304/1/2 302/1/2 303/1/2
f 305/1/2 306/1/2 308/1/2
f 308/1/2 306/1/2 307/1/2
f 309/1/2 310/1/2 312/1/2
f 312/1/2 310/1/2 311/1/2
f 313/1/2 314/1/2 316/1/2
f 316/1/2 314/1/2 315/1/2
f 317/1/2 318/1/2 320/1/2
f 320/1/2 318/1/2 319/1/2
f 321/1/2 322/1/2 324/1/2
f 324/1/2 322/1/2 323/1/2
f 325/1/2 326/1/2 328/1/2
f 328/1/2 326/1/2 327/1/2
f 329/1/2 330/1/2 332/1/2
f 332/1/2 330/1/2 331/1/2
f 333/1/2 334/1/2 336/1/2
f 336/1/2 334/1/2 335/1/2
f 337/1/2 338/1/2 340/1/2
f 340/1/2 338/1/2 339/1/2
f 186/1/3 185/1/3 243/1/3
f 243/1/3 185/1/3 218/1/3
f 194/1/3 193/1/3 255/1/3
f 255/1/3 193/1/3 226/1/3
f 202/1/3 201/1/3 267/1/3
f 267/1/3 201/1/3 234/1/3
f 246/1/3 245/1/3 217/1/3
f 217/1/3 245/1/3 244/1/3
f 258/1/3 257/1/3 225/1/3
f 225/1/3 257/1/3 256/1/3
f 270/1/3 269/1/3 233/1/3
f 233/1/3 269/1/3 268/1/3
f 107/1/3 106/1/3 339/1/3
f 339/1/3 106/1/3 298/1/3
f 278/1/3 277/1/3 299/1/3
f 299/1/3 277/1/3 286/1/3
f 302/1/3 301/1/3 285/1/3
f 285/1/3 301/1/3 300/1/3
f 143/1/3 142/1/3 297/1/3
f 297/1/3 142/1/3 330/1/3
f 310/1/3 309/1/3 331/1/3
f 331/1/3 309/1/3 318/1/3
f 334/1/3 333/1/3 317/1/3
f 317/1/3 333/1/3 332/1/3
f 179/1/3 178/1/3 329/1/3
f 329/1/3 178/1/3 340/1/3
f 54/1/3 341/1/3 219/1/3
f 219/1/3 341/1/3 206/1/3
f 74/1/3 342/1/3 235/1/3
f 235/1/3 342/1/3 210/1/3
f 341/1/3 343/1/3 40/1/3
f 40/1/3 343/1/3 37/1/3
f 342/1/3 344/1/3 44/1/3
f 44/1/3 344/1/3 41/1/3
f 5/1/3 46/1/3 51/1/3
f 51/1/3 46/1/3 48/1/3
f 343/1/3 53/1/3 205/1/3
f 205/1/3 53/1/3 220/1/3
f 17/1/3 56/1/3 61/1/3
f 61/1/3 56/1/3 58/1/3
f 64/1/3 63/1/3 227/1/3
f 227/1/3 63/1/3 228/1/3
f 29/1/3 66/1/3 71/1/3
f 71/1/3 66/1/3 68/1/3
f 344/1/3 73/1/3 209/1/3
f 209/1/3 73/1/3 236/1/3
f 113/1/3 122/1/3 127/1/3
f 127/1/3 122/1/3 124/1/3
f 130/1/3 129/1/3 287/1/3
f 287/1/3 129/1/3 288/1/3
f 149/1/3 158/1/3 163/1/3
f 163/1/3 158/1/3 160/1/3
f 166/1/3 165/1/3 319/1/3
f 319/1/3 165/1/3 320/1/3
f 3/1/3 2/1/3 8/1/3
f 8/1/3 2/1/3 5/1/3
f 11/1/3 10/1/3 187/1/3
f 187/1/3 10/1/3 188/1/3
f 15/1/3 14/1/3 20/1/3
f 20/1/3 14/1/3 17/1/3
f 23/1/3 22/1/3 195/1/3
f 195/1/3 22/1/3 196/1/3
f 27/1/3 26/1/3 32/1/3
f 32/1/3 26/1/3 29/1/3
f 35/1/3 34/1/3 203/1/3
f 203/1/3 34/1/3 204/1/3
f 77/1/3 76/1/3 46/1/3
f 46/1/3 76/1/3 79/1/3
f 83/1/3 82/1/3 247/1/3
f 247/1/3 82/1/3 248/1/3
f 87/1/3 86/1/3 56/1/3
f 56/1/3 86/1/3 89/1/3
f 93/1/3 92/1/3 259/1/3
f 259/1/3 92/1/3 260/1/3
f 97/1/3 96/1/3 66/1/3
f 66/1/3 96/1/3 99/1/3
f 103/1/3 102/1/3 271/1/3
f 271/1/3 102/1/3 272/1/3
f 111/1/3 110/1/3 116/1/3
f 116/1/3 110/1/3 113/1/3
f 119/1/3 118/1/3 279/1/3
f 279/1/3 118/1/3 280/1/3
f 133/1/3 132/1/3 122/1/3
f 122/1/3 132/1/3 135/1/3
f 139/1/3 138/1/3 303/1/3
f 303/1/3 138/1/3 304/1/3
f 147/1/3 146/1/3 152/1/3
f 152/1/3 146/1/3 149/1/3
f 155/1/3 154/1/3 311/1/3
f 311/1/3 154/1/3 312/1/3
f 169/1/3 168/1/3 158/1/3
f 158/1/3 168/1/3 171/1/3
f 175/1/3 174/1/3 335/1/3
f 335/1/3 174/1/3 336/1/3
f 183/1/4 242/1/4 184/1/4
f 184/1/4 242/1/4 215/1/4
f 191/1/4 254/1/4 192/1/4
f 192/1/4 254/1/4 223/1/4
f 199/1/4 266/1/4 200/1/4
f 200/1/4 266/1/4 231/1/4
f 239/1/4 216/1/4 240/1/4
f 240/1/4 216/1/4 241/1/4
f 251/1/4 224/1/4 252/1/4
f 252/1/4 224/1/4 253/1/4
f 263/1/4 232/1/4 264/1/4
f 264/1/4 232/1/4 265/1/4
f 108/1/4 338/1/4 105/1/4
f 105/1/4 338/1/4 295/1/4
f 275/1/4 294/1/4 276/1/4
f 276/1/4 294/1/4 283/1/4
f 291/1/4 284/1/4 292/1/4
f 292/1/4 284/1/4 293/1/4
f 144/1/4 296/1/4 141/1/4
f 141/1/4 296/1/4 327/1/4
f 307/1/4 326/1/4 308/1/4
f 308/1/4 326/1/4 315/1/4
f 323/1/4 316/1/4 324/1/4
f 324/1/4 316/1/4 325/1/4
f 180/1/4 328/1/4 177/1/4
f 177/1/4 328/1/4 337/1/4
f 57/1/4 222/1/4 345/1/4
f 345/1/4 222/1/4 207/1/4
f 345/1/4 39/1/4 346/1/4
f 346/1/4 39/1/4 38/1/4
f 47/1/4 214/1/4 45/1/4
f 45/1/4 214/1/4 213/1/4
f 6/1/4 50/1/4 52/1/4
f 52/1/4 50/1/4 49/1/4
f 346/1/4 208/1/4 55/1/4
f 55/1/4 208/1/4 221/1/4
f 18/1/4 60/1/4 62/1/4
f 62/1/4 60/1/4 59/1/4
f 67/1/4 230/1/4 65/1/4
f 65/1/4 230/1/4 229/1/4
f 30/1/4 70/1/4 72/1/4
f 72/1/4 70/1/4 69/1/4
f 123/1/4 282/1/4 121/1/4
f 121/1/4 282/1/4 281/1/4
f 114/1/4 126/1/4 128/1/4
f 128/1/4 126/1/4 125/1/4
f 159/1/4 314/1/4 157/1/4
f 157/1/4 314/1/4 313/1/4
f 150/1/4 162/1/4 164/1/4
f 164/1/4 162/1/4 161/1/4
f 4/1/4 182/1/4 1/1/4
f 1/1/4 182/1/4 181/1/4
f 12/1/4 7/1/4 9/1/4
f 9/1/4 7/1/4 6/1/4
f 16/1/4 190/1/4 13/1/4
f 13/1/4 190/1/4 189/1/4
f 24/1/4 19/1/4 21/1/4
f 21/1/4 19/1/4 18/1/4
f 28/1/4 198/1/4 25/1/4
f 25/1/4 198/1/4 197/1/4
f 36/1/4 31/1/4 33/1/4
f 33/1/4 31/1/4 30/1/4
f 78/1/4 238/1/4 75/1/4
f 75/1/4 238/1/4 237/1/4
f 84/1/4 52/1/4 81/1/4
f 81/1/4 52/1/4 80/1/4
f 88/1/4 250/1/4 85/1/4
f 85/1/4 250/1/4 249/1/4
f 94/1/4 62/1/4 91/1/4
f 91/1/4 62/1/4 90/1/4
f 98/1/4 262/1/4 95/1/4
f 95/1/4 262/1/4 261/1/4
f 104/1/4 72/1/4 101/1/4
f 101/1/4 72/1/4 100/1/4
f 112/1/4 274/1/4 109/1/4
f 109/1/4 274/1/4 273/1/4
f 120/1/4 115/1/4 117/1/4
f 117/1/4 115/1/4 114/1/4
f 134/1/4 290/1/4 131/1/4
f 131/1/4 290/1/4 289/1/4
f 140/1/4 128/1/4 137/1/4
f 137/1/4 128/1/4 136/1/4
f 148/1/4 306/1/4 145/1/4
f 145/1/4 306/1/4 305/1/4
f 156/1/4 151/1/4 153/1/4
f 153/1/4 151/1/4 150/1/4
f 170/1/4 322/1/4 167/1/4
f 167/1/4 322/1/4 321/1/4
f 176/1/4 164/1/4 173/1/4
f 173/1/4 164/1/4 172/1/4
f 216/1/5 239/1/5 213/1/5
f 213/1/5 239/1/5 238/1/5
f 284/1/5 291/1/5 281/1/5
f 281/1/5 291/1/5 290/1/5
f 316/1/5 323/1/5 313/1/5
f 313/1/5 323/1/5 322/1/5
f 5/1/5 2/1/5 47/1/5
f 47/1/5 2/1/5 1/1/5
f 79/1/5 76/1/5 347/1/5
f 347/1/5 76/1/5 75/1/5
f 113/1/5 110/1/5 123/1/5
f 123/1/5 110/1/5 109/1/5
f 135/1/5 132/1/5 348/1/5
f 348/1/5 132/1/5 131/1/5
f 149/1/5 146/1/5 159/1/5
f 159/1/5 146/1/5 145/1/5
f 171/1/5 168/1/5 349/1/5
f 349/1/5 168/1/5 167/1/5
f 338/1/5 108/1/5 241/1/5
f 241/1/5 108/1/5 240/1/5
f 296/1/5 144/1/5 293/1/5
f 293/1/5 144/1/5 292/1/5
f 328/1/5 180/1/5 325/1/5
f 325/1/5 180/1/5 324/1/5
f 244/1/5 245/1/5 339/1/5
f 339/1/5 245/1/5 107/1/5
f 300/1/5 301/1/5 297/1/5
f 297/1/5 301/1/5 143/1/5
f 332/1/5 333/1/5 329/1/5
f 329/1/5 333/1/5 179/1/5
f 50/1/5 6/1/5 51/1/5
f 51/1/5 6/1/5 5/1/5
f 126/1/5 114/1/5 127/1/5
f 127/1/5 114/1/5 113/1/5
f 162/1/5 150/1/5 163/1/5
f 163/1/5 150/1/5 149/1/5
f 220/1/5 247/1/5 217/1/5
f 217/1/5 247/1/5 246/1/5
f 288/1/5 303/1/5 285/1/5
f 285/1/5 303/1/5 302/1/5
f 320/1/5 335/1/5 317/1/5
f 317/1/5 335/1/5 334/1/5
f 248/1/5 350/1/5 237/1/5
f 237/1/5 350/1/5 347/1/5
f 304/1/5 351/1/5 289/1/5
f 289/1/5 351/1/5 348/1/5
f 336/1/5 352/1/5 321/1/5
f 321/1/5 352/1/5 349/1/5
f 54/1/5 10/1/5 6/1/5
f 6/1/5 10/1/5 9/1/5
f 350/1/5 82/1/5 80/1/5
f 80/1/5 82/1/5 81/1/5
f 130/1/5 118/1/5 114/1/5
f 114/1/5 118/1/5 117/1/5
f 351/1/5 138/1/5 136/1/5
f 136/1/5 138/1/5 137/1/5
f 166/1/5 154/1/5 150/1/5
f 150/1/5 154/1/5 153/1/5
f 352/1/5 174/1/5 172/1/5
f 172/1/5 174/1/5 173/1/5
f 208/1/5 38/1/5 205/1/5
f 205/1/5 38/1/5 37/1/5
f 224/1/5 251/1/5 221/1/5
f 221/1/5 251/1/5 250/1/5
f 17/1/5 14/1/5 57/1/5
f 57/1/5 14/1/5 13/1/5
f 89/1/5 86/1/5 353/1/5
f 353/1/5 86/1/5 85/1/5
f 256/1/5 257/1/5 253/1/5
f 253/1/5 257/1/5 252/1/5
f 60/1/5 18/1/5 61/1/5
f 61/1/5 18/1/5 17/1/5
f 228/1/5 259/1/5 225/1/5
f 225/1/5 259/1/5 258/1/5
f 260/1/5 354/1/5 249/1/5
f 249/1/5 354/1/5 353/1/5
f 64/1/5 22/1/5 18/1/5
f 18/1/5 22/1/5 21/1/5
f 354/1/5 92/1/5 90/1/5
f 90/1/5 92/1/5 91/1/5
f 232/1/5 263/1/5 229/1/5
f 229/1/5 263/1/5 262/1/5
f 29/1/5 26/1/5 67/1/5
f 67/1/5 26/1/5 25/1/5
f 99/1/5 96/1/5 355/1/5
f 355/1/5 96/1/5 95/1/5
f 268/1/5 269/1/5 265/1/5
f 265/1/5 269/1/5 264/1/5
f 70/1/5 30/1/5 71/1/5
f 71/1/5 30/1/5 29/1/5
f 236/1/5 271/1/5 233/1/5
f 233/1/5 271/1/5 270/1/5
f 272/1/5 356/1/5 261/1/5
f 261/1/5 356/1/5 355/1/5
f 74/1/5 34/1/5 30/1/5
f 30/1/5 34/1/5 33/1/5
f 356/1/5 102/1/5 100/1/5
f 100/1/5 102/1/5 101/1/5
f 212/1/5 42/1/5 209/1/5
f 209/1/5 42/1/5 41/1/5
f 215/1/6 214/1/6 184/1/6
f 184/1/6 214/1/6 181/1/6
f 283/1/6 282/1/6 276/1/6
f 276/1/6 282/1/6 273/1/6
f 315/1/6 314/1/6 308/1/6
f 308/1/6 314/1/6 305/1/6
f 8/1/6 357/1/6 3/1/6
f 3/1/6 357/1/6 4/1/6
f 46/1/6 45/1/6 77/1/6
f 77/1/6 45/1/6 78/1/6
f 116/1/6 358/1/6 111/1/6
f 111/1/6 358/1/6 112/1/6
f 122/1/6 121/1/6 133/1/6
f 133/1/6 121/1/6 134/1/6
f 152/1/6 359/1/6 147/1/6
f 147/1/6 359/1/6 148/1/6
f 158/1/6 157/1/6 169/1/6
f 169/1/6 157/1/6 170/1/6
f 295/1/6 294/1/6 105/1/6
f 105/1/6 294/1/6 275/1/6
f 327/1/6 326/1/6 141/1/6
f 141/1/6 326/1/6 307/1/6
f 243/1/6 242/1/6 186/1/6
f 186/1/6 242/1/6 183/1/6
f 299/1/6 298/1/6 278/1/6
f 278/1/6 298/1/6 106/1/6
f 331/1/6 330/1/6 310/1/6
f 310/1/6 330/1/6 142/1/6
f 49/1/6 48/1/6 52/1/6
f 52/1/6 48/1/6 46/1/6
f 125/1/6 124/1/6 128/1/6
f 128/1/6 124/1/6 122/1/6
f 161/1/6 160/1/6 164/1/6
f 164/1/6 160/1/6 158/1/6
f 219/1/6 218/1/6 188/1/6
f 188/1/6 218/1/6 185/1/6
f 287/1/6 286/1/6 280/1/6
f 280/1/6 286/1/6 277/1/6
f 319/1/6 318/1/6 312/1/6
f 312/1/6 318/1/6 309/1/6
f 187/1/6 182/1/6 360/1/6
f 360/1/6 182/1/6 357/1/6
f 279/1/6 274/1/6 361/1/6
f 361/1/6 274/1/6 358/1/6
f 311/1/6 306/1/6 362/1/6
f 362/1/6 306/1/6 359/1/6
f 360/1/6 7/1/6 11/1/6
f 11/1/6 7/1/6 12/1/6
f 53/1/6 52/1/6 83/1/6
f 83/1/6 52/1/6 84/1/6
f 361/1/6 115/1/6 119/1/6
f 119/1/6 115/1/6 120/1/6
f 129/1/6 128/1/6 139/1/6
f 139/1/6 128/1/6 140/1/6
f 362/1/6 151/1/6 155/1/6
f 155/1/6 151/1/6 156/1/6
f 165/1/6 164/1/6 175/1/6
f 175/1/6 164/1/6 176/1/6
f 207/1/6 206/1/6 39/1/6
f 39/1/6 206/1/6 40/1/6
f 223/1/6 222/1/6 192/1/6
f 192/1/6 222/1/6 189/1/6
f 20/1/6 363/1/6 15/1/6
f 15/1/6 363/1/6 16/1/6
f 56/1/6 55/1/6 87/1/6
f 87/1/6 55/1/6 88/1/6
f 255/1/6 254/1/6 194/1/6
f 194/1/6 254/1/6 191/1/6
f 59/1/6 58/1/6 62/1/6
f 62/1/6 58/1/6 56/1/6
f 227/1/6 226/1/6 196/1/6
f 196/1/6 226/1/6 193/1/6
f 195/1/6 190/1/6 364/1/6
f 364/1/6 190/1/6 363/1/6
f 364/1/6 19/1/6 23/1/6
f 23/1/6 19/1/6 24/1/6
f 63/1/6 62/1/6 93/1/6
f 93/1/6 62/1/6 94/1/6
f 231/1/6 230/1/6 200/1/6
f 200/1/6 230/1/6 197/1/6
f 32/1/6 365/1/6 27/1/6
f 27/1/6 365/1/6 28/1/6
f 66/1/6 65/1/6 97/1/6
f 97/1/6 65/1/6 98/1/6
f 267/1/6 266/1/6 202/1/6
f 202/1/6 266/1/6 199/1/6
f 69/1/6 68/1/6 72/1/6
f 72/1/6 68/1/6 66/1/6
f 235/1/6 234/1/6 204/1/6
f 204/1/6 234/1/6 201/1/6
f 203/1/6 198/1/6 366/1/6
f 366/1/6 198/1/6 365/1/6
f 366/1/6 31/1/6 35/1/6
f 35/1/6 31/1/6 36/1/6
f 73/1/6 72/1/6 103/1/6
f 103/1/6 72/1/6 104/1/6
f 211/1/6 210/1/6 43/1/6
f 43/1/6 210/1/6 44/1/6
f 367/1/1 368/1/1 370/1/1
f 370/1/1 368/1/1 369/1/1
f 371/1/1 372/1/1 374/1/1
f 374/1/1 372/1/1 373/1/1
f 375/1/1 376/1/1 378/1/1
f 378/1/1 376/1/1 377/1/1
f 42/1/1 379/1/1 43/1/1
f 43/1/1 379/1/1 380/1/1
f 381/1/1 382/1/1 383/1/1
f 383/1/1 382/1/1 371/1/1
f 384/2/1 385/2/1 387/2/1
f 387/2/1 385/2/1 386/2/1
f 388/1/1 389/1/1 372/1/1
f 372/1/1 389/1/1 390/1/1
f 391/1/1 392/1/1 394/1/1
f 394/1/1 392/1/1 393/1/1
f 395/1/1 396/1/1 382/1/1
f 382/1/1 396/1/1 388/1/1
f 397/1/1 398/1/1 400/1/1
f 400/1/1 398/1/1 399/1/1
f 401/1/1 402/1/1 404/1/1
f 404/1/1 402/1/1 403/1/1
f 405/1/1 406/1/1 408/1/1
f 408/1/1 406/1/1 407/1/1
f 409/1/1 410/1/1 412/1/1
f 412/1/1 410/1/1 411/1/1
f 413/1/1 414/1/1 416/1/1
f 416/1/1 414/1/1 415/1/1
f 417/1/1 418/1/1 419/1/1
f 419/1/1 418/1/1 409/1/1
f 420/2/1 421/2/1 423/2/1
f 423/2/1 421/2/1 422/2/1
f 424/1/1 425/1/1 410/1/1
f 410/1/1 425/1/1 426/1/1
f 427/1/1 428/1/1 430/1/1
f 430/1/1 428/1/1 429/1/1
f 431/1/1 432/1/1 418/1/1
f 418/1/1 432/1/1 424/1/1
f 433/1/1 434/1/1 436/1/1
f 436/1/1 434/1/1 435/1/1
f 437/1/1 438/1/1 440/1/1
f 440/1/1 438/1/1 439/1/1
f 441/1/1 442/1/1 444/1/1
f 444/1/1 442/1/1 443/1/1
f 445/1/1 446/1/1 448/1/1
f 448/1/1 446/1/1 447/1/1
f 449/1/1 450/1/1 452/1/1
f 452/1/1 450/1/1 451/1/1
f 453/1/1 454/1/1 455/1/1
f 455/1/1 454/1/1 445/1/1
f 456/2/1 457/2/1 459/2/1
f 459/2/1 457/2/1 458/2/1
f 460/1/1 461/1/1 446/1/1
f 446/1/1 461/1/1 462/1/1
f 463/1/1 464/1/1 466/1/1
f 466/1/1 464/1/1 465/1/1
f 467/1/1 468/1/1 454/1/1
f 454/1/1 468/1/1 460/1/1
f 469/1/1 470/1/1 472/1/1
f 472/1/1 470/1/1 471/1/1
f 473/1/1 474/1/1 476/1/1
f 476/1/1 474/1/1 475/1/1
f 477/1/2 478/1/2 480/1/2
f 480/1/2 478/1/2 479/1/2
f 481/1/2 482/1/2 484/1/2
f 484/1/2 482/1/2 483/1/2
f 212/1/2 211/1/2 486/1/2
f 486/1/2 211/1/2 485/1/2
f 487/1/2 488/1/2 490/1/2
f 490/1/2 488/1/2 489/1/2
f 491/1/2 492/1/2 494/1/2
f 494/1/2 492/1/2 493/1/2
f 495/1/2 496/1/2 498/1/2
f 498/1/2 496/1/2 497/1/2
f 499/1/2 500/1/2 502/1/2
f 502/1/2 500/1/2 501/1/2
f 503/1/2 504/1/2 506/1/2
f 506/1/2 504/1/2 505/1/2
f 507/1/2 508/1/2 510/1/2
f 510/1/2 508/1/2 509/1/2
f 511/1/2 512/1/2 514/1/2
f 514/1/2 512/1/2 513/1/2
f 515/1/2 516/1/2 518/1/2
f 518/1/2 516/1/2 517/1/2
f 519/1/2 520/1/2 522/1/2
f 522/1/2 520/1/2 521/1/2
f 523/1/2 524/1/2 526/1/2
f 526/1/2 524/1/2 525/1/2
f 527/1/2 528/1/2 530/1/2
f 530/1/2 528/1/2 529/1/2
f 531/1/2 532/1/2 534/1/2
f 534/1/2 532/1/2 533/1/2
f 535/1/2 536/1/2 538/1/2
f 538/1/2 536/1/2 537/1/2
f 539/1/2 540/1/2 542/1/2
f 542/1/2 540/1/2 541/1/2
f 543/1/2 544/1/2 546/1/2
f 546/1/2 544/1/2 545/1/2
f 547/1/2 548/1/2 550/1/2
f 550/1/2 548/1/2 549/1/2
f 551/1/2 552/1/2 554/1/2
f 554/1/2 552/1/2 553/1/2
f 555/1/2 556/1/2 558/1/2
f 558/1/2 556/1/2 557/1/2
f 559/1/2 560/1/2 562/1/2
f 562/1/2 560/1/2 561/1/2
f 563/1/2 564/1/2 566/1/2
f 566/1/2 564/1/2 565/1/2
f 567/1/2 568/1/2 570/1/2
f 570/1/2 568/1/2 569/1/2
f 571/1/2 572/1/2 574/1/2
f 574/1/2 572/1/2 573/1/2
f 482/1/3 481/1/3 501/1/3
f 501/1/3 481/1/3 492/1/3
f 504/1/3 503/1/3 491/1/3
f 491/1/3 503/1/3 502/1/3
f 403/1/3 402/1/3 573/1/3
f 573/1/3 402/1/3 532/1/3
f 512/1/3 511/1/3 533/1/3
f 533/1/3 511/1/3 520/1/3
f 536/1/3 535/1/3 519/1/3
f 519/1/3 535/1/3 534/1/3
f 439/1/3 438/1/3 531/1/3
f 531/1/3 438/1/3 564/1/3
f 544/1/3 543/1/3 565/1/3
f 565/1/3 543/1/3 552/1/3
f 568/1/3 567/1/3 551/1/3
f 551/1/3 567/1/3 566/1/3
f 475/1/3 474/1/3 563/1/3
f 563/1/3 474/1/3 574/1/3
f 371/1/3 382/1/3 387/1/3
f 387/1/3 382/1/3 384/1/3
f 390/1/3 389/1/3 493/1/3
f 493/1/3 389/1/3 494/1/3
f 409/1/3 418/1/3 423/1/3
f 423/1/3 418/1/3 420/1/3
f 426/1/3 425/1/3 521/1/3
f 521/1/3 425/1/3 522/1/3
f 445/1/3 454/1/3 459/1/3
f 459/1/3 454/1/3 456/1/3
f 462/1/3 461/1/3 553/1/3
f 553/1/3 461/1/3 554/1/3
f 369/1/3 368/1/3 374/1/3
f 374/1/3 368/1/3 371/1/3
f 377/1/3 376/1/3 483/1/3
f 483/1/3 376/1/3 484/1/3
f 393/1/3 392/1/3 382/1/3
f 382/1/3 392/1/3 395/1/3
f 399/1/3 398/1/3 505/1/3
f 505/1/3 398/1/3 506/1/3
f 407/1/3 406/1/3 412/1/3
f 412/1/3 406/1/3 409/1/3
f 415/1/3 414/1/3 513/1/3
f 513/1/3 414/1/3 514/1/3
f 429/1/3 428/1/3 418/1/3
f 418/1/3 428/1/3 431/1/3
f 435/1/3 434/1/3 537/1/3
f 537/1/3 434/1/3 538/1/3
f 443/1/3 442/1/3 448/1/3
f 448/1/3 442/1/3 445/1/3
f 451/1/3 450/1/3 545/1/3
f 545/1/3 450/1/3 546/1/3
f 465/1/3 464/1/3 454/1/3
f 454/1/3 464/1/3 467/1/3
f 471/1/3 470/1/3 569/1/3
f 569/1/3 470/1/3 570/1/3
f 479/1/4 500/1/4 480/1/4
f 480/1/4 500/1/4 489/1/4
f 497/1/4 490/1/4 498/1/4
f 498/1/4 490/1/4 499/1/4
f 404/1/4 572/1/4 401/1/4
f 401/1/4 572/1/4 529/1/4
f 509/1/4 528/1/4 510/1/4
f 510/1/4 528/1/4 517/1/4
f 525/1/4 518/1/4 526/1/4
f 526/1/4 518/1/4 527/1/4
f 440/1/4 530/1/4 437/1/4
f 437/1/4 530/1/4 561/1/4
f 541/1/4 560/1/4 542/1/4
f 542/1/4 560/1/4 549/1/4
f 557/1/4 550/1/4 558/1/4
f 558/1/4 550/1/4 559/1/4
f 476/1/4 562/1/4 473/1/4
f 473/1/4 562/1/4 571/1/4
f 383/1/4 488/1/4 575/1/4
f 575/1/4 488/1/4 485/1/4
f 575/1/4 380/1/4 576/1/4
f 576/1/4 380/1/4 379/1/4
f 576/1/4 486/1/4 381/1/4
f 381/1/4 486/1/4 487/1/4
f 372/1/4 386/1/4 388/1/4
f 388/1/4 386/1/4 385/1/4
f 419/1/4 516/1/4 417/1/4
f 417/1/4 516/1/4 515/1/4
f 410/1/4 422/1/4 424/1/4
f 424/1/4 422/1/4 421/1/4
f 455/1/4 548/1/4 453/1/4
f 453/1/4 548/1/4 547/1/4
f 446/1/4 458/1/4 460/1/4
f 460/1/4 458/1/4 457/1/4
f 370/1/4 478/1/4 367/1/4
f 367/1/4 478/1/4 477/1/4
f 378/1/4 373/1/4 375/1/4
f 375/1/4 373/1/4 372/1/4
f 394/1/4 496/1/4 391/1/4
f 391/1/4 496/1/4 495/1/4
f 400/1/4 388/1/4 397/1/4
f 397/1/4 388/1/4 396/1/4
f 408/1/4 508/1/4 405/1/4
f 405/1/4 508/1/4 507/1/4
f 416/1/4 411/1/4 413/1/4
f 413/1/4 411/1/4 410/1/4
f 430/1/4 524/1/4 427/1/4
f 427/1/4 524/1/4 523/1/4
f 436/1/4 424/1/4 433/1/4
f 433/1/4 424/1/4 432/1/4
f 444/1/4 540/1/4 441/1/4
f 441/1/4 540/1/4 539/1/4
f 452/1/4 447/1/4 449/1/4
f 449/1/4 447/1/4 446/1/4
f 466/1/4 556/1/4 463/1/4
f 463/1/4 556/1/4 555/1/4
f 472/1/4 460/1/4 469/1/4
f 469/1/4 460/1/4 468/1/4
f 486/1/5 379/1/5 212/1/5
f 212/1/5 379/1/5 42/1/5
f 490/1/5 497/1/5 487/1/5
f 487/1/5 497/1/5 496/1/5
f 518/1/5 525/1/5 515/1/5
f 515/1/5 525/1/5 524/1/5
f 550/1/5 557/1/5 547/1/5
f 547/1/5 557/1/5 556/1/5
f 371/1/5 368/1/5 383/1/5
f 383/1/5 368/1/5 367/1/5
f 395/1/5 392/1/5 577/1/5
f 577/1/5 392/1/5 391/1/5
f 409/1/5 406/1/5 419/1/5
f 419/1/5 406/1/5 405/1/5
f 431/1/5 428/1/5 578/1/5
f 578/1/5 428/1/5 427/1/5
f 445/1/5 442/1/5 455/1/5
f 455/1/5 442/1/5 441/1/5
f 467/1/5 464/1/5 579/1/5
f 579/1/5 464/1/5 463/1/5
f 572/1/5 404/1/5 499/1/5
f 499/1/5 404/1/5 498/1/5
f 530/1/5 440/1/5 527/1/5
f 527/1/5 440/1/5 526/1/5
f 562/1/5 476/1/5 559/1/5
f 559/1/5 476/1/5 558/1/5
f 502/1/5 503/1/5 573/1/5
f 573/1/5 503/1/5 403/1/5
f 534/1/5 535/1/5 531/1/5
f 531/1/5 535/1/5 439/1/5
f 566/1/5 567/1/5 563/1/5
f 563/1/5 567/1/5 475/1/5
f 386/1/5 372/1/5 387/1/5
f 387/1/5 372/1/5 371/1/5
f 422/1/5 410/1/5 423/1/5
f 423/1/5 410/1/5 409/1/5
f 458/1/5 446/1/5 459/1/5
f 459/1/5 446/1/5 445/1/5
f 494/1/5 505/1/5 491/1/5
f 491/1/5 505/1/5 504/1/5
f 522/1/5 537/1/5 519/1/5
f 519/1/5 537/1/5 536/1/5
f 554/1/5 569/1/5 551/1/5
f 551/1/5 569/1/5 568/1/5
f 506/1/5 580/1/5 495/1/5
f 495/1/5 580/1/5 577/1/5
f 538/1/5 581/1/5 523/1/5
f 523/1/5 581/1/5 578/1/5
f 570/1/5 582/1/5 555/1/5
f 555/1/5 582/1/5 579/1/5
f 390/1/5 376/1/5 372/1/5
f 372/1/5 376/1/5 375/1/5
f 580/1/5 398/1/5 396/1/5
f 396/1/5 398/1/5 397/1/5
f 426/1/5 414/1/5 410/1/5
f 410/1/5 414/1/5 413/1/5
f 581/1/5 434/1/5 432/1/5
f 432/1/5 434/1/5 433/1/5
f 462/1/5 450/1/5 446/1/5
f 446/1/5 450/1/5 449/1/5
f 582/1/5 470/1/5 468/1/5
f 468/1/5 470/1/5 469/1/5
f 485/1/6 211/1/6 380/1/6
f 380/1/6 211/1/6 43/1/6
f 489/1/6 488/1/6 480/1/6
f 480/1/6 488/1/6 477/1/6
f 517/1/6 516/1/6 510/1/6
f 510/1/6 516/1/6 507/1/6
f 549/1/6 548/1/6 542/1/6
f 542/1/6 548/1/6 539/1/6
f 374/1/6 583/1/6 369/1/6
f 369/1/6 583/1/6 370/1/6
f 382/1/6 381/1/6 393/1/6
f 393/1/6 381/1/6 394/1/6
f 412/1/6 584/1/6 407/1/6
f 407/1/6 584/1/6 408/1/6
f 418/1/6 417/1/6 429/1/6
f 429/1/6 417/1/6 430/1/6
f 448/1/6 585/1/6 443/1/6
f 443/1/6 585/1/6 444/1/6
f 454/1/6 453/1/6 465/1/6
f 465/1/6 453/1/6 466/1/6
f 529/1/6 528/1/6 401/1/6
f 401/1/6 528/1/6 509/1/6
f 561/1/6 560/1/6 437/1/6
f 437/1/6 560/1/6 541/1/6
f 501/1/6 500/1/6 482/1/6
f 482/1/6 500/1/6 479/1/6
f 533/1/6 532/1/6 512/1/6
f 512/1/6 532/1/6 402/1/6
f 565/1/6 564/1/6 544/1/6
f 544/1/6 564/1/6 438/1/6
f 385/1/6 384/1/6 388/1/6
f 388/1/6 384/1/6 382/1/6
f 421/1/6 420/1/6 424/1/6
f 424/1/6 420/1/6 418/1/6
f 457/1/6 456/1/6 460/1/6
f 460/1/6 456/1/6 454/1/6
f 493/1/6 492/1/6 484/1/6
f 484/1/6 492/1/6 481/1/6
f 521/1/6 520/1/6 514/1/6
f 514/1/6 520/1/6 511/1/6
f 553/1/6 552/1/6 546/1/6
f 546/1/6 552/1/6 543/1/6
f 483/1/6 478/1/6 586/1/6
f 586/1/6 478/1/6 583/1/6
f 513/1/6 508/1/6 587/1/6
f 587/1/6 508/1/6 584/1/6
f 545/1/6 540/1/6 588/1/6
f 588/1/6 540/1/6 585/1/6
f 586/1/6 373/1/6 377/1/6
f 377/1/6 373/1/6 378/1/6
f 389/1/6 388/1/6 399/1/6
f 399/1/6 388/1/6 400/1/6
f 587/1/6 411/1/6 415/1/6
f 415/1/6 411/1/6 416/1/6
f 425/1/6 424/1/6 435/1/6
f 435/1/6 424/1/6 436/1/6
f 588/1/6 447/1/6 451/1/6
f 451/1/6 447/1/6 452/1/6
f 461/1/6 460/1/6 471/1/6
f 471/1/6 460/1/6 472/1/6
f 589/1/1 590/1/1 177/1/1
f 177/1/1 590/1/1 178/1/1
f 591/1/1 592/1/1 594/1/1
f 594/1/1 592/1/1 593/1/1
f 595/1/1 596/1/1 598/1/1
f 598/1/1 596/1/1 597/1/1
f 599/1/1 600/1/1 602/1/1
f 602/1/1 600/1/1 601/1/1
f 603/1/1 604/1/1 606/1/1
f 606/1/1 604/1/1 605/1/1
f 607/1/1 608/1/1 610/1/1
f 610/1/1 608/1/1 609/1/1
f 611/1/1 612/1/1 614/1/1
f 614/1/1 612/1/1 613/1/1
f 615/1/1 616/1/1 618/1/1
f 618/1/1 616/1/1 617/1/1
f 619/1/1 620/1/1 622/1/1
f 622/1/1 620/1/1 621/1/1
f 623/1/1 624/1/1 626/1/1
f 626/1/1 624/1/1 625/1/1
f 627/1/1 628/1/1 630/1/1
f 630/1/1 628/1/1 629/1/1
f 631/1/1 632/1/1 634/1/1
f 634/1/1 632/1/1 633/1/1
f 635/1/1 636/1/1 638/1/1
f 638/1/1 636/1/1 637/1/1
f 639/1/1 640/1/1 641/1/1
f 641/1/1 640/1/1 595/1/1
f 642/2/1 643/2/1 645/2/1
f 645/2/1 643/2/1 644/2/1
f 646/1/1 647/1/1 596/1/1
f 596/1/1 647/1/1 648/1/1
f 649/1/1 650/1/1 651/1/1
f 651/1/1 650/1/1 607/1/1
f 652/2/1 653/2/1 655/2/1
f 655/2/1 653/2/1 654/2/1
f 656/1/1 657/1/1 608/1/1
f 608/1/1 657/1/1 658/1/1
f 659/1/1 660/1/1 661/1/1
f 661/1/1 660/1/1 619/1/1
f 662/2/1 663/2/1 665/2/1
f 665/2/1 663/2/1 664/2/1
f 666/1/1 667/1/1 620/1/1
f 620/1/1 667/1/1 668/1/1
f 669/1/1 670/1/1 672/1/1
f 672/1/1 670/1/1 671/1/1
f 673/1/1 674/1/1 640/1/1
f 640/1/1 674/1/1 646/1/1
f 675/1/1 676/1/1 678/1/1
f 678/1/1 676/1/1 677/1/1
f 679/1/1 680/1/1 682/1/1
f 682/1/1 680/1/1 681/1/1
f 683/1/1 684/1/1 650/1/1
f 650/1/1 684/1/1 656/1/1
f 685/1/1 686/1/1 688/1/1
f 688/1/1 686/1/1 687/1/1
f 689/1/1 690/1/1 692/1/1
f 692/1/1 690/1/1 691/1/1
f 693/1/1 694/1/1 660/1/1
f 660/1/1 694/1/1 666/1/1
f 695/1/1 696/1/1 698/1/1
f 698/1/1 696/1/1 697/1/1
f 699/1/2 700/1/2 702/1/2
f 702/1/2 700/1/2 701/1/2
f 703/1/2 704/1/2 706/1/2
f 706/1/2 704/1/2 705/1/2
f 707/1/2 708/1/2 710/1/2
f 710/1/2 708/1/2 709/1/2
f 711/1/2 712/1/2 714/1/2
f 714/1/2 712/1/2 713/1/2
f 715/1/2 716/1/2 718/1/2
f 718/1/2 716/1/2 717/1/2
f 719/1/2 720/1/2 722/1/2
f 722/1/2 720/1/2 721/1/2
f 723/1/2 724/1/2 726/1/2
f 726/1/2 724/1/2 725/1/2
f 727/1/2 728/1/2 730/1/2
f 730/1/2 728/1/2 729/1/2
f 731/1/2 732/1/2 734/1/2
f 734/1/2 732/1/2 733/1/2
f 735/1/2 736/1/2 738/1/2
f 738/1/2 736/1/2 737/1/2
f 739/1/2 740/1/2 742/1/2
f 742/1/2 740/1/2 741/1/2
f 743/1/2 744/1/2 746/1/2
f 746/1/2 744/1/2 745/1/2
f 747/1/2 748/1/2 750/1/2
f 750/1/2 748/1/2 749/1/2
f 751/1/2 752/1/2 754/1/2
f 754/1/2 752/1/2 753/1/2
f 755/1/2 756/1/2 758/1/2
f 758/1/2 756/1/2 757/1/2
f 759/1/2 760/1/2 762/1/2
f 762/1/2 760/1/2 761/1/2
f 763/1/2 764/1/2 766/1/2
f 766/1/2 764/1/2 765/1/2
f 766/1/2 337/1/2 767/1/2
f 767/1/2 337/1/2 340/1/2
f 767/1/2 768/1/2 770/1/2
f 770/1/2 768/1/2 769/1/2
f 771/1/2 772/1/2 774/1/2
f 774/1/2 772/1/2 773/1/2
f 775/1/2 776/1/2 778/1/2
f 778/1/2 776/1/2 777/1/2
f 779/1/2 780/1/2 782/1/2
f 782/1/2 780/1/2 781/1/2
f 783/1/2 784/1/2 786/1/2
f 786/1/2 784/1/2 785/1/2
f 787/1/2 788/1/2 790/1/2
f 790/1/2 788/1/2 789/1/2
f 791/1/2 792/1/2 794/1/2
f 794/1/2 792/1/2 793/1/2
f 795/1/2 796/1/2 798/1/2
f 798/1/2 796/1/2 797/1/2
f 178/1/3 590/1/3 340/1/3
f 340/1/3 590/1/3 768/1/3
f 704/1/3 703/1/3 769/1/3
f 769/1/3 703/1/3 740/1/3
f 712/1/3 711/1/3 781/1/3
f 781/1/3 711/1/3 748/1/3
f 720/1/3 719/1/3 793/1/3
f 793/1/3 719/1/3 756/1/3
f 772/1/3 771/1/3 739/1/3
f 739/1/3 771/1/3 770/1/3
f 784/1/3 783/1/3 747/1/3
f 747/1/3 783/1/3 782/1/3
f 796/1/3 795/1/3 755/1/3
f 755/1/3 795/1/3 794/1/3
f 648/1/3 799/1/3 741/1/3
f 741/1/3 799/1/3 724/1/3
f 658/1/3 800/1/3 749/1/3
f 749/1/3 800/1/3 728/1/3
f 668/1/3 801/1/3 757/1/3
f 757/1/3 801/1/3 732/1/3
f 799/1/3 802/1/3 630/1/3
f 630/1/3 802/1/3 627/1/3
f 800/1/3 803/1/3 634/1/3
f 634/1/3 803/1/3 631/1/3
f 801/1/3 804/1/3 638/1/3
f 638/1/3 804/1/3 635/1/3
f 595/1/3 640/1/3 645/1/3
f 645/1/3 640/1/3 642/1/3
f 802/1/3 647/1/3 723/1/3
f 723/1/3 647/1/3 742/1/3
f 607/1/3 650/1/3 655/1/3
f 655/1/3 650/1/3 652/1/3
f 803/1/3 657/1/3 727/1/3
f 727/1/3 657/1/3 750/1/3
f 619/1/3 660/1/3 665/1/3
f 665/1/3 660/1/3 662/1/3
f 804/1/3 667/1/3 731/1/3
f 731/1/3 667/1/3 758/1/3
f 593/1/3 592/1/3 598/1/3
f 598/1/3 592/1/3 595/1/3
f 601/1/3 600/1/3 705/1/3
f 705/1/3 600/1/3 706/1/3
f 605/1/3 604/1/3 610/1/3
f 610/1/3 604/1/3 607/1/3
f 613/1/3 612/1/3 713/1/3
f 713/1/3 612/1/3 714/1/3
f 617/1/3 616/1/3 622/1/3
f 622/1/3 616/1/3 619/1/3
f 625/1/3 624/1/3 721/1/3
f 721/1/3 624/1/3 722/1/3
f 671/1/3 670/1/3 640/1/3
f 640/1/3 670/1/3 673/1/3
f 677/1/3 676/1/3 773/1/3
f 773/1/3 676/1/3 774/1/3
f 681/1/3 680/1/3 650/1/3
f 650/1/3 680/1/3 683/1/3
f 687/1/3 686/1/3 785/1/3
f 785/1/3 686/1/3 786/1/3
f 691/1/3 690/1/3 660/1/3
f 660/1/3 690/1/3 693/1/3
f 697/1/3 696/1/3 797/1/3
f 797/1/3 696/1/3 798/1/3
f 177/1/4 337/1/4 589/1/4
f 589/1/4 337/1/4 765/1/4
f 701/1/4 764/1/4 702/1/4
f 702/1/4 764/1/4 737/1/4
f 709/1/4 780/1/4 710/1/4
f 710/1/4 780/1/4 745/1/4
f 717/1/4 792/1/4 718/1/4
f 718/1/4 792/1/4 753/1/4
f 761/1/4 738/1/4 762/1/4
f 762/1/4 738/1/4 763/1/4
f 777/1/4 746/1/4 778/1/4
f 778/1/4 746/1/4 779/1/4
f 789/1/4 754/1/4 790/1/4
f 790/1/4 754/1/4 791/1/4
f 651/1/4 744/1/4 805/1/4
f 805/1/4 744/1/4 725/1/4
f 661/1/4 752/1/4 806/1/4
f 806/1/4 752/1/4 729/1/4
f 805/1/4 629/1/4 807/1/4
f 807/1/4 629/1/4 628/1/4
f 806/1/4 633/1/4 808/1/4
f 808/1/4 633/1/4 632/1/4
f 641/1/4 736/1/4 639/1/4
f 639/1/4 736/1/4 735/1/4
f 596/1/4 644/1/4 646/1/4
f 646/1/4 644/1/4 643/1/4
f 807/1/4 726/1/4 649/1/4
f 649/1/4 726/1/4 743/1/4
f 608/1/4 654/1/4 656/1/4
f 656/1/4 654/1/4 653/1/4
f 808/1/4 730/1/4 659/1/4
f 659/1/4 730/1/4 751/1/4
f 620/1/4 664/1/4 666/1/4
f 666/1/4 664/1/4 663/1/4
f 594/1/4 700/1/4 591/1/4
f 591/1/4 700/1/4 699/1/4
f 602/1/4 597/1/4 599/1/4
f 599/1/4 597/1/4 596/1/4
f 606/1/4 708/1/4 603/1/4
f 603/1/4 708/1/4 707/1/4
f 614/1/4 609/1/4 611/1/4
f 611/1/4 609/1/4 608/1/4
f 618/1/4 716/1/4 615/1/4
f 615/1/4 716/1/4 715/1/4
f 626/1/4 621/1/4 623/1/4
f 623/1/4 621/1/4 620/1/4
f 672/1/4 760/1/4 669/1/4
f 669/1/4 760/1/4 759/1/4
f 678/1/4 646/1/4 675/1/4
f 675/1/4 646/1/4 674/1/4
f 682/1/4 776/1/4 679/1/4
f 679/1/4 776/1/4 775/1/4
f 688/1/4 656/1/4 685/1/4
f 685/1/4 656/1/4 684/1/4
f 692/1/4 788/1/4 689/1/4
f 689/1/4 788/1/4 787/1/4
f 698/1/4 666/1/4 695/1/4
f 695/1/4 666/1/4 694/1/4
f 738/1/5 761/1/5 735/1/5
f 735/1/5 761/1/5 760/1/5
f 595/1/5 592/1/5 641/1/5
f 641/1/5 592/1/5 591/1/5
f 673/1/5 670/1/5 809/1/5
f 809/1/5 670/1/5 669/1/5
f 770/1/5 771/1/5 763/1/5
f 763/1/5 771/1/5 762/1/5
f 644/1/5 596/1/5 645/1/5
f 645/1/5 596/1/5 595/1/5
f 742/1/5 773/1/5 739/1/5
f 739/1/5 773/1/5 772/1/5
f 774/1/5 810/1/5 759/1/5
f 759/1/5 810/1/5 809/1/5
f 648/1/5 600/1/5 596/1/5
f 596/1/5 600/1/5 599/1/5
f 810/1/5 676/1/5 674/1/5
f 674/1/5 676/1/5 675/1/5
f 726/1/5 628/1/5 723/1/5
f 723/1/5 628/1/5 627/1/5
f 746/1/5 777/1/5 743/1/5
f 743/1/5 777/1/5 776/1/5
f 607/1/5 604/1/5 651/1/5
f 651/1/5 604/1/5 603/1/5
f 683/1/5 680/1/5 811/1/5
f 811/1/5 680/1/5 679/1/5
f 782/1/5 783/1/5 779/1/5
f 779/1/5 783/1/5 778/1/5
f 654/1/5 608/1/5 655/1/5
f 655/1/5 608/1/5 607/1/5
f 750/1/5 785/1/5 747/1/5
f 747/1/5 785/1/5 784/1/5
f 786/1/5 812/1/5 775/1/5
f 775/1/5 812/1/5 811/1/5
f 658/1/5 612/1/5 608/1/5
f 608/1/5 612/1/5 611/1/5
f 812/1/5 686/1/5 684/1/5
f 684/1/5 686/1/5 685/1/5
f 730/1/5 632/1/5 727/1/5
f 727/1/5 632/1/5 631/1/5
f 754/1/5 789/1/5 751/1/5
f 751/1/5 789/1/5 788/1/5
f 619/1/5 616/1/5 661/1/5
f 661/1/5 616/1/5 615/1/5
f 693/1/5 690/1/5 813/1/5
f 813/1/5 690/1/5 689/1/5
f 794/1/5 795/1/5 791/1/5
f 791/1/5 795/1/5 790/1/5
f 664/1/5 620/1/5 665/1/5
f 665/1/5 620/1/5 619/1/5
f 758/1/5 797/1/5 755/1/5
f 755/1/5 797/1/5 796/1/5
f 798/1/5 814/1/5 787/1/5
f 787/1/5 814/1/5 813/1/5
f 668/1/5 624/1/5 620/1/5
f 620/1/5 624/1/5 623/1/5
f 814/1/5 696/1/5 694/1/5
f 694/1/5 696/1/5 695/1/5
f 734/1/5 636/1/5 731/1/5
f 731/1/5 636/1/5 635/1/5
f 737/1/6 736/1/6 702/1/6
f 702/1/6 736/1/6 699/1/6
f 598/1/6 815/1/6 593/1/6
f 593/1/6 815/1/6 594/1/6
f 640/1/6 639/1/6 671/1/6
f 671/1/6 639/1/6 672/1/6
f 765/1/6 764/1/6 589/1/6
f 589/1/6 764/1/6 701/1/6
f 769/1/6 768/1/6 704/1/6
f 704/1/6 768/1/6 590/1/6
f 643/1/6 642/1/6 646/1/6
f 646/1/6 642/1/6 640/1/6
f 741/1/6 740/1/6 706/1/6
f 706/1/6 740/1/6 703/1/6
f 705/1/6 700/1/6 816/1/6
f 816/1/6 700/1/6 815/1/6
f 816/1/6 597/1/6 601/1/6
f 601/1/6 597/1/6 602/1/6
f 647/1/6 646/1/6 677/1/6
f 677/1/6 646/1/6 678/1/6
f 725/1/6 724/1/6 629/1/6
f 629/1/6 724/1/6 630/1/6
f 745/1/6 744/1/6 710/1/6
f 710/1/6 744/1/6 707/1/6
f 610/1/6 817/1/6 605/1/6
f 605/1/6 817/1/6 606/1/6
f 650/1/6 649/1/6 681/1/6
f 681/1/6 649/1/6 682/1/6
f 781/1/6 780/1/6 712/1/6
f 712/1/6 780/1/6 709/1/6
f 653/1/6 652/1/6 656/1/6
f 656/1/6 652/1/6 650/1/6
f 749/1/6 748/1/6 714/1/6
f 714/1/6 748/1/6 711/1/6
f 713/1/6 708/1/6 818/1/6
f 818/1/6 708/1/6 817/1/6
f 818/1/6 609/1/6 613/1/6
f 613/1/6 609/1/6 614/1/6
f 657/1/6 656/1/6 687/1/6
f 687/1/6 656/1/6 688/1/6
f 729/1/6 728/1/6 633/1/6
f 633/1/6 728/1/6 634/1/6
f 753/1/6 752/1/6 718/1/6
f 718/1/6 752/1/6 715/1/6
f 622/1/6 819/1/6 617/1/6
f 617/1/6 819/1/6 618/1/6
f 660/1/6 659/1/6 691/1/6
f 691/1/6 659/1/6 692/1/6
f 793/1/6 792/1/6 720/1/6
f 720/1/6 792/1/6 717/1/6
f 663/1/6 662/1/6 666/1/6
f 666/1/6 662/1/6 660/1/6
f 757/1/6 756/1/6 722/1/6
f 722/1/6 756/1/6 719/1/6
f 721/1/6 716/1/6 820/1/6
f 820/1/6 716/1/6 819/1/6
f 820/1/6 621/1/6 625/1/6
f 625/1/6 621/1/6 626/1/6
f 667/1/6 666/1/6 697/1/6
f 697/1/6 666/1/6 698/1/6
f 733/1/6 732/1/6 637/1/6
f 637/1/6 732/1/6 638/1/6
f 821/1/1 822/1/1 473/1/1
f 473/1/1 822/1/1 474/1/1
f 823/1/1 824/1/1 826/1/1
f 826/1/1 824/1/1 825/1/1
f 827/1/1 828/1/1 830/1/1
f 830/1/1 828/1/1 829/1/1
f 831/1/1 832/1/1 834/1/1
f 834/1/1 832/1/1 833/1/1
f 636/1/1 835/1/1 637/1/1
f 637/1/1 835/1/1 836/1/1
f 837/1/1 838/1/1 839/1/1
f 839/1/1 838/1/1 827/1/1
f 840/2/1 841/2/1 843/2/1
f 843/2/1 841/2/1 842/2/1
f 844/1/1 845/1/1 828/1/1
f 828/1/1 845/1/1 846/1/1
f 847/1/1 848/1/1 850/1/1
f 850/1/1 848/1/1 849/1/1
f 851/1/1 852/1/1 838/1/1
f 838/1/1 852/1/1 844/1/1
f 853/1/1 854/1/1 856/1/1
f 856/1/1 854/1/1 855/1/1
f 857/1/2 858/1/2 860/1/2
f 860/1/2 858/1/2 859/1/2
f 861/1/2 862/1/2 864/1/2
f 864/1/2 862/1/2 863/1/2
f 734/1/2 733/1/2 866/1/2
f 866/1/2 733/1/2 865/1/2
f 867/1/2 868/1/2 870/1/2
f 870/1/2 868/1/2 869/1/2
f 871/1/2 872/1/2 874/1/2
f 874/1/2 872/1/2 873/1/2
f 875/1/2 876/1/2 878/1/2
f 878/1/2 876/1/2 877/1/2
f 879/1/2 880/1/2 882/1/2
f 882/1/2 880/1/2 881/1/2
f 882/1/2 571/1/2 883/1/2
f 883/1/2 571/1/2 574/1/2
f 883/1/2 884/1/2 886/1/2
f 886/1/2 884/1/2 885/1/2
f 887/1/2 888/1/2 890/1/2
f 890/1/2 888/1/2 889/1/2
f 474/1/3 822/1/3 574/1/3
f 574/1/3 822/1/3 884/1/3
f 862/1/3 861/1/3 885/1/3
f 885/1/3 861/1/3 872/1/3
f 888/1/3 887/1/3 871/1/3
f 871/1/3 887/1/3 886/1/3
f 827/1/3 838/1/3 843/1/3
f 843/1/3 838/1/3 840/1/3
f 846/1/3 845/1/3 873/1/3
f 873/1/3 845/1/3 874/1/3
f 825/1/3 824/1/3 830/1/3
f 830/1/3 824/1/3 827/1/3
f 833/1/3 832/1/3 863/1/3
f 863/1/3 832/1/3 864/1/3
f 849/1/3 848/1/3 838/1/3
f 838/1/3 848/1/3 851/1/3
f 855/1/3 854/1/3 889/1/3
f 889/1/3 854/1/3 890/1/3
f 473/1/4 571/1/4 821/1/4
f 821/1/4 571/1/4 881/1/4
f 859/1/4 880/1/4 860/1/4
f 860/1/4 880/1/4 869/1/4
f 877/1/4 870/1/4 878/1/4
f 878/1/4 870/1/4 879/1/4
f 839/1/4 868/1/4 891/1/4
f 891/1/4 868/1/4 865/1/4
f 891/1/4 836/1/4 892/1/4
f 892/1/4 836/1/4 835/1/4
f 892/1/4 866/1/4 837/1/4
f 837/1/4 866/1/4 867/1/4
f 828/1/4 842/1/4 844/1/4
f 844/1/4 842/1/4 841/1/4
f 826/1/4 858/1/4 823/1/4
f 823/1/4 858/1/4 857/1/4
f 834/1/4 829/1/4 831/1/4
f 831/1/4 829/1/4 828/1/4
f 850/1/4 876/1/4 847/1/4
f 847/1/4 876/1/4 875/1/4
f 856/1/4 844/1/4 853/1/4
f 853/1/4 844/1/4 852/1/4
f 866/1/5 835/1/5 734/1/5
f 734/1/5 835/1/5 636/1/5
f 870/1/5 877/1/5 867/1/5
f 867/1/5 877/1/5 876/1/5
f 827/1/5 824/1/5 839/1/5
f 839/1/5 824/1/5 823/1/5
f 851/1/5 848/1/5 893/1/5
f 893/1/5 848/1/5 847/1/5
f 886/1/5 887/1/5 879/1/5
f 879/1/5 887/1/5 878/1/5
f 842/1/5 828/1/5 843/1/5
f 843/1/5 828/1/5 827/1/5
f 874/1/5 889/1/5 871/1/5
f 871/1/5 889/1/5 888/1/5
f 890/1/5 894/1/5 875/1/5
f 875/1/5 894/1/5 893/1/5
f 846/1/5 832/1/5 828/1/5
f 828/1/5 832/1/5 831/1/5
f 894/1/5 854/1/5 852/1/5
f 852/1/5 854/1/5 853/1/5
f 865/1/6 733/1/6 836/1/6
f 836/1/6 733/1/6 637/1/6
f 869/1/6 868/1/6 860/1/6
f 860/1/6 868/1/6 857/1/6
f 830/1/6 895/1/6 825/1/6
f 825/1/6 895/1/6 826/1/6
f 838/1/6 837/1/6 849/1/6
f 849/1/6 837/1/6 850/1/6
f 881/1/6 880/1/6 821/1/6
f 821/1/6 880/1/6 859/1/6
f 885/1/6 884/1/6 862/1/6
f 862/1/6 884/1/6 822/1/6
f 841/1/6 840/1/6 844/1/6
f 844/1/6 840/1/6 838/1/6
f 873/1/6 872/1/6 864/1/6
f 864/1/6 872/1/6 861/1/6
f 863/1/6 858/1/6 896/1/6
f 896/1/6 858/1/6 895/1/6
f 896/1/6 829/1/6 833/1/6
f 833/1/6 829/1/6 834/1/6
f 845/1/6 844/1/6 855/1/6
f 855/1/6 844/1/6 856/1/6
