# Vengi binary mesh normalized for Tanks of Freedom II

mtllib ../../materials/vox_grass.mtl
o wall_gate_closed

v 0.1 2 1.3
v -0.1 2 1.3
v -0.1 2 1.4
v 0.1 2 1.4
v 0.2 0.3 1.2
v 0.1 0.3 1.2
v 0.1 0.3 1.4
v 0.2 0.3 1.4
v 0.2 1.9 1.2
v 0.1 1.9 1.2
v 0.1 1.9 1.4
v 0.2 1.9 1.4
v 0.1 2.2 1.2
v -0.1 2.2 1.2
v -0.1 2.2 1.3
v 0.1 2.2 1.3
v -0.1 0.3 1.2
v -0.2 0.3 1.2
v -0.2 0.3 1.4
v -0.1 0.3 1.4
v -0.1 1.9 1.2
v -0.2 1.9 1.2
v -0.2 1.9 1.4
v -0.1 1.9 1.4
v 0.1 2.4 1.1
v -0.1 2.4 1.1
v -0.1 2.4 1.2
v 0.1 2.4 1.2
v 0.3 1.2 1
v 0.2 1.2 1
v 0.2 1.2 1.1
v 0.3 1.2 1.1
v 0.1 2.5 1
v -0.1 2.5 1
v -0.1 2.5 1.1
v 0.1 2.5 1.1
v -0.2 1.2 1
v -0.3 1.2 1
v -0.3 1.2 1.1
v -0.2 1.2 1.1
v 0.1 2.6 0.9
v -0.1 2.6 0.9
v -0.1 2.6 1
v 0.1 2.6 1
v 0.1 2.7 0.8
v -0.1 2.7 0.8
v -0.1 2.7 0.9
v 0.1 2.7 0.9
v 0.1 2.8 0.7
v -0.1 2.8 0.7
v -0.1 2.8 0.8
v 0.1 2.8 0.8
v 0.1 2.9 0.5
v -0.1 2.9 0.5
v -0.1 2.9 0.7
v 0.1 2.9 0.7
v 0.1 3 0.3
v -0.1 3 0.3
v -0.1 3 0.5
v 0.1 3 0.5
v -0.2 1.2 0.2
v -0.3 1.2 0.2
v -0.3 1.2 0.3
v -0.2 1.2 0.3
v 0.3 1.2 0.1
v 0.2 1.2 0.1
v 0.2 1.2 0.2
v 0.3 1.2 0.2
v 0.1 3.1 0.1
v -0.1 3.1 0.1
v -0.1 3.1 0.3
v 0.1 3.1 0.3
v 0.1 3.2 0
v 0 3.2 0
v 0 3.2 0.1
v 0.1 3.2 0.1
v -0.1 3.2 0
v -0.1 3.2 0.1
v 0.1 3.2 -0.1
v 0 3.2 -0.1
v -0.1 3.2 -0.1
v -0.2 1.2 -0.2
v -0.3 1.2 -0.2
v -0.3 1.2 -0.1
v -0.2 1.2 -0.1
v 0.3 1.2 -0.3
v 0.2 1.2 -0.3
v 0.2 1.2 -0.2
v 0.3 1.2 -0.2
v 0.1 3.1 -0.3
v -0.1 3.1 -0.3
v -0.1 3.1 -0.1
v 0.1 3.1 -0.1
v 0.1 3 -0.5
v -0.1 3 -0.5
v -0.1 3 -0.3
v 0.1 3 -0.3
v 0.1 2.9 -0.7
v -0.1 2.9 -0.7
v -0.1 2.9 -0.5
v 0.1 2.9 -0.5
v 0.1 2.8 -0.8
v -0.1 2.8 -0.8
v -0.1 2.8 -0.7
v 0.1 2.8 -0.7
v 0.1 2.7 -0.9
v -0.1 2.7 -0.9
v -0.1 2.7 -0.8
v 0.1 2.7 -0.8
v 0.1 2.6 -1
v -0.1 2.6 -1
v -0.1 2.6 -0.9
v 0.1 2.6 -0.9
v 0.3 1.2 -1.1
v 0.2 1.2 -1.1
v 0.2 1.2 -1
v 0.3 1.2 -1
v 0.1 2.5 -1.1
v -0.1 2.5 -1.1
v -0.1 2.5 -1
v 0.1 2.5 -1
v -0.2 1.2 -1.1
v -0.3 1.2 -1.1
v -0.3 1.2 -1
v -0.2 1.2 -1
v 0.2 1.3 -1.2
v 0.1 1.3 -1.2
v 0.1 1.3 1.2
v 0.2 1.3 1.2
v 0.1 2.4 -1.2
v -0.1 2.4 -1.2
v -0.1 2.4 -1.1
v 0.1 2.4 -1.1
v -0.1 1.3 -1.2
v -0.2 1.3 -1.2
v -0.2 1.3 1.2
v -0.1 1.3 1.2
v 0.1 2.2 -1.3
v -0.1 2.2 -1.3
v -0.1 2.2 -1.2
v 0.1 2.2 -1.2
v 0.2 0.3 -1.4
v 0.1 0.3 -1.4
v 0.1 0.3 -1.2
v 0.2 0.3 -1.2
v 0.2 1.9 -1.4
v 0.1 1.9 -1.4
v 0.1 1.9 -1.2
v 0.2 1.9 -1.2
v 0.1 2 -1.4
v -0.1 2 -1.4
v -0.1 2 -1.3
v 0.1 2 -1.3
v -0.1 0.3 -1.4
v -0.2 0.3 -1.4
v -0.2 0.3 -1.2
v -0.1 0.3 -1.2
v -0.1 1.9 -1.4
v -0.2 1.9 -1.4
v -0.2 1.9 -1.2
v -0.1 1.9 -1.2
v 0.2 0.1 1.2
v 0.2 0.1 1.4
v 0.1 0.1 1.4
v 0.1 0.1 1.2
v 0.2 1.7 1.2
v 0.2 1.7 1.4
v 0.1 1.7 1.4
v 0.1 1.7 1.2
v -0.1 0.1 1.2
v -0.1 0.1 1.4
v -0.2 0.1 1.4
v -0.2 0.1 1.2
v -0.1 1.7 1.2
v -0.1 1.7 1.4
v -0.2 1.7 1.4
v -0.2 1.7 1.2
v 0.2 1.1 1.1
v 0.2 1.1 1.2
v 0.1 1.1 1.2
v 0.1 1.1 1.1
v -0.1 1.1 1.1
v -0.1 1.1 1.2
v -0.2 1.1 1.2
v -0.2 1.1 1.1
v 0.3 1.1 1
v 0.3 1.1 1.1
v 0.2 1.1 1
v 0.2 1 1
v 0.2 1 1.1
v 0.1 1 1.1
v 0.1 1 1
v -0.1 1 1
v -0.1 1 1.1
v -0.2 1 1.1
v -0.2 1 1
v -0.2 1.1 1
v -0.3 1.1 1.1
v -0.3 1.1 1
v -0.1 1.1 0.3
v -0.1 1.1 1
v -0.2 1.1 0.3
v 0.2 1.1 0.2
v 0.1 1.1 1
v 0.1 1.1 0.2
v -0.1 1 0.2
v -0.1 1 0.3
v -0.2 1 0.3
v -0.2 1 0.2
v -0.2 1.1 0.2
v -0.3 1.1 0.3
v -0.3 1.1 0.2
v 0.3 1.1 0.1
v 0.3 1.1 0.2
v 0.2 1.1 0.1
v 0.2 1 0.1
v 0.2 1 0.2
v 0.1 1 0.2
v 0.1 1 0.1
v 0 0 0.1
v 0 0 1.4
v -0.1 0 1.4
v -0.1 0 0.1
v 0.1 0 0
v 0.1 0 1.4
v 0 0 0
v -0.1 0 0
v 0.1 0 -0.1
v 0 0 -0.1
v -0.1 1.1 -0.1
v -0.1 1.1 0.2
v -0.2 1.1 -0.1
v 0.2 1.1 -0.2
v 0.1 1.1 0.1
v 0.1 1.1 -0.2
v -0.1 1 -0.2
v -0.1 1 -0.1
v -0.2 1 -0.1
v -0.2 1 -0.2
v -0.2 1.1 -0.2
v -0.3 1.1 -0.1
v -0.3 1.1 -0.2
v 0.3 1.1 -0.3
v 0.3 1.1 -0.2
v 0.2 1.1 -0.3
v 0.2 1 -0.3
v 0.2 1 -0.2
v 0.1 1 -0.2
v 0.1 1 -0.3
v 0.2 1.1 -1
v 0.1 1.1 -0.3
v 0.1 1.1 -1
v -0.1 1.1 -1
v -0.1 1.1 -0.2
v -0.2 1.1 -1
v 0.3 1.1 -1.1
v 0.3 1.1 -1
v 0.2 1.1 -1.1
v 0.2 1 -1.1
v 0.2 1 -1
v 0.1 1 -1
v 0.1 1 -1.1
v -0.1 1 -1.1
v -0.1 1 -1
v -0.2 1 -1
v -0.2 1 -1.1
v -0.2 1.1 -1.1
v -0.3 1.1 -1
v -0.3 1.1 -1.1
v 0.2 1.1 -1.2
v 0.1 1.1 -1.1
v 0.1 1.1 -1.2
v -0.1 1.1 -1.2
v -0.1 1.1 -1.1
v -0.2 1.1 -1.2
v 0.2 0.1 -1.4
v 0.2 0.1 -1.2
v 0.1 0.1 -1.2
v 0.1 0.1 -1.4
v 0.2 1.7 -1.4
v 0.2 1.7 -1.2
v 0.1 1.7 -1.2
v 0.1 1.7 -1.4
v 0.1 0 -1.4
v 0 0 -1.4
v -0.1 0 -1.4
v -0.1 0.1 -1.4
v -0.1 0.1 -1.2
v -0.2 0.1 -1.2
v -0.2 0.1 -1.4
v -0.1 1.7 -1.4
v -0.1 1.7 -1.2
v -0.2 1.7 -1.2
v -0.2 1.7 -1.4
v -0.1 0.1 0.1
v -0.1 0 -1.2
v -0.1 0.2 0.9
v -0.1 0.2 0.1
v -0.1 0.1 0.9
v -0.1 0.2 0
v -0.1 0.2 -1.2
v -0.1 0.3 0.9
v -0.1 0.3 0.8
v -0.1 0.2 0.8
v -0.1 0.3 0.5
v -0.1 0.3 0.4
v -0.1 0.2 0.4
v -0.1 0.2 0.5
v -0.1 0.3 0
v -0.1 0.3 -0.1
v -0.1 0.2 -0.1
v -0.1 0.3 -0.4
v -0.1 0.3 -0.5
v -0.1 0.2 -0.5
v -0.1 0.2 -0.4
v -0.1 0.3 -0.8
v -0.1 0.3 -0.9
v -0.1 0.2 -0.9
v -0.1 0.2 -0.8
v -0.1 0.6 1.1
v -0.1 0.6 0.9
v -0.1 0.1 1.1
v -0.1 0.6 0.7
v -0.1 0.6 0.5
v -0.1 0.2 0.7
v -0.1 0.6 0.3
v -0.1 0.6 0.1
v -0.1 0.2 0.3
v -0.1 0.6 -0.2
v -0.1 0.6 -0.4
v -0.1 0.2 -0.2
v -0.1 0.6 -0.6
v -0.1 0.6 -0.8
v -0.1 0.2 -0.6
v -0.1 0.6 -1
v -0.1 0.6 -1.2
v -0.1 0.2 -1
v -0.1 0.7 1.1
v -0.1 0.7 1
v -0.1 0.6 1
v -0.1 0.7 0.7
v -0.1 0.7 0.6
v -0.1 0.6 0.6
v -0.1 0.7 0.3
v -0.1 0.7 0.2
v -0.1 0.6 0.2
v -0.1 0.7 -0.2
v -0.1 0.7 -0.3
v -0.1 0.6 -0.3
v -0.1 0.7 -0.6
v -0.1 0.7 -0.7
v -0.1 0.6 -0.7
v -0.1 0.7 -1
v -0.1 0.7 -1.1
v -0.1 0.6 -1.1
v -0.1 1 0.9
v -0.1 1 0.8
v -0.1 1 0.5
v -0.1 1 0.4
v -0.1 1 -0.4
v -0.1 1 -0.5
v -0.1 1 -0.8
v -0.1 1 -0.9
v -0.1 1.1 0.9
v -0.1 1.1 0.8
v -0.1 1.1 0.7
v -0.1 1.1 0.6
v -0.1 1.1 0.5
v -0.1 1.1 0.4
v -0.1 1.1 0.1
v -0.1 1.1 0
v -0.1 1.1 -0.3
v -0.1 1.1 -0.4
v -0.1 1.1 -0.5
v -0.1 1.1 -0.6
v -0.1 1.1 -0.7
v -0.1 1.1 -0.8
v -0.1 1.1 -0.9
v -0.2 1.3 1.1
v -0.2 1.3 1
v -0.2 1.3 0.3
v -0.2 1.3 0.2
v -0.2 1.3 -0.1
v -0.2 1.3 -0.2
v -0.2 1.3 -1
v -0.2 1.3 -1.1
v -0.1 1.4 1.1
v -0.1 1.4 0.1
v -0.1 1.3 0.1
v -0.1 1.3 1.1
v -0.1 1.4 -0.2
v -0.1 1.4 -1.2
v -0.1 1.3 -0.2
v -0.1 1.5 1.1
v -0.1 1.5 1
v -0.1 1.4 1
v -0.1 1.5 0.7
v -0.1 1.5 0.6
v -0.1 1.4 0.6
v -0.1 1.4 0.7
v -0.1 1.5 0.3
v -0.1 1.5 0.2
v -0.1 1.4 0.2
v -0.1 1.4 0.3
v -0.1 1.5 -0.2
v -0.1 1.5 -0.3
v -0.1 1.4 -0.3
v -0.1 1.5 -0.6
v -0.1 1.5 -0.7
v -0.1 1.4 -0.7
v -0.1 1.4 -0.6
v -0.1 1.5 -1
v -0.1 1.5 -1.1
v -0.1 1.4 -1.1
v -0.1 1.4 -1
v -0.1 1.8 0.9
v -0.1 1.8 0.7
v -0.1 1.4 0.9
v -0.1 1.8 0.5
v -0.1 1.8 0.3
v -0.1 1.4 0.5
v -0.1 1.8 0
v -0.1 1.8 -0.2
v -0.1 1.3 0
v -0.1 1.8 -0.4
v -0.1 1.8 -0.6
v -0.1 1.4 -0.4
v -0.1 1.8 -0.8
v -0.1 1.8 -1
v -0.1 1.4 -0.8
v -0.1 1.9 0.9
v -0.1 1.9 0.8
v -0.1 1.8 0.8
v -0.1 1.9 0.5
v -0.1 1.9 0.4
v -0.1 1.8 0.4
v -0.1 1.9 0
v -0.1 1.9 -0.1
v -0.1 1.8 -0.1
v -0.1 1.9 -0.4
v -0.1 1.9 -0.5
v -0.1 1.8 -0.5
v -0.1 1.9 -0.8
v -0.1 1.9 -0.9
v -0.1 1.8 -0.9
v -0.1 2 1.2
v -0.1 1.9 -1.3
v -0.1 2.2 0.7
v -0.1 2.2 0.6
v -0.1 2.2 0.3
v -0.1 2.2 0.2
v -0.1 2.2 -0.2
v -0.1 2.2 -0.3
v -0.1 2.2 -0.6
v -0.1 2.2 -0.7
v -0.1 2.3 0.7
v -0.1 2.3 0.6
v -0.1 2.3 0.3
v -0.1 2.3 0.2
v -0.1 2.3 -0.2
v -0.1 2.3 -0.3
v -0.1 2.3 -0.6
v -0.1 2.3 -0.7
v -0.1 2.6 0.5
v -0.1 2.6 0.4
v -0.1 2.6 -0.4
v -0.1 2.6 -0.5
v -0.1 2.7 0.5
v -0.1 2.7 0.4
v -0.1 2.7 -0.4
v -0.1 2.7 -0.5
v -0.1 2.9 0.6
v -0.1 2.9 -0.6
v -0.1 3 0.4
v -0.1 3 -0.4
v -0.1 3.1 0.2
v -0.1 3.1 -0.2
v 0.1 0.1 0
v 0.1 0 -1.2
v 0.1 0.2 0.9
v 0.1 0.1 0.9
v 0.1 0.2 0
v 0.1 0.2 -0.4
v 0.1 0 -0.4
v 0.1 0.2 -1.2
v 0.1 0.3 0.9
v 0.1 0.2 0.8
v 0.1 0.3 0.8
v 0.1 0.3 0.5
v 0.1 0.2 0.5
v 0.1 0.2 0.4
v 0.1 0.3 0.4
v 0.1 0.3 0.1
v 0.1 0.2 0.1
v 0.1 0.3 0
v 0.1 0.3 -0.4
v 0.1 0.2 -0.5
v 0.1 0.3 -0.5
v 0.1 0.3 -0.8
v 0.1 0.2 -0.8
v 0.1 0.2 -0.9
v 0.1 0.3 -0.9
v 0.1 0.6 1.1
v 0.1 0.1 1.1
v 0.1 0.6 0.9
v 0.1 0.6 0.7
v 0.1 0.2 0.7
v 0.1 0.6 0.5
v 0.1 0.6 0.3
v 0.1 0.2 0.3
v 0.1 0.6 0.1
v 0.1 0.6 -0.2
v 0.1 0 -0.2
v 0.1 0.6 -0.4
v 0.1 0.6 -0.6
v 0.1 0.2 -0.6
v 0.1 0.6 -0.8
v 0.1 0.6 -1
v 0.1 0.2 -1
v 0.1 0.6 -1.2
v 0.1 0.7 1.1
v 0.1 0.6 1
v 0.1 0.7 1
v 0.1 0.7 0.7
v 0.1 0.6 0.6
v 0.1 0.7 0.6
v 0.1 0.7 0.3
v 0.1 0.6 0.2
v 0.1 0.7 0.2
v 0.1 0.7 -0.2
v 0.1 0.6 -0.3
v 0.1 0.7 -0.3
v 0.1 0.7 -0.6
v 0.1 0.6 -0.7
v 0.1 0.7 -0.7
v 0.1 0.7 -1
v 0.1 0.6 -1.1
v 0.1 0.7 -1.1
v 0.1 1 0.9
v 0.1 1 0.8
v 0.1 1 0.5
v 0.1 1 0.4
v 0.1 1 -0.4
v 0.1 1 -0.5
v 0.1 1 -0.8
v 0.1 1 -0.9
v 0.1 1.1 0.9
v 0.1 1.1 0.8
v 0.1 1.1 0.7
v 0.1 1.1 0.6
v 0.1 1.1 0.5
v 0.1 1.1 0.4
v 0.1 1.1 0.3
v 0.1 1.1 0
v 0.1 1.1 -0.1
v 0.1 1.1 -0.4
v 0.1 1.1 -0.5
v 0.1 1.1 -0.6
v 0.1 1.1 -0.7
v 0.1 1.1 -0.8
v 0.1 1.1 -0.9
v 0.2 1.3 1.1
v 0.2 1.3 1
v 0.2 1.3 0.2
v 0.2 1.3 0.1
v 0.2 1.3 -0.2
v 0.2 1.3 -0.3
v 0.2 1.3 -1
v 0.2 1.3 -1.1
v 0.1 1.4 1.1
v 0.1 1.3 1.1
v 0.1 1.3 0
v 0.1 1.4 0
v 0.1 1.4 -0.2
v 0.1 1.3 -0.2
v 0.1 1.4 -1.2
v 0.1 1.5 1.1
v 0.1 1.4 1
v 0.1 1.5 1
v 0.1 1.5 0.7
v 0.1 1.4 0.7
v 0.1 1.4 0.6
v 0.1 1.5 0.6
v 0.1 1.5 0.3
v 0.1 1.4 0.3
v 0.1 1.4 0.2
v 0.1 1.5 0.2
v 0.1 1.5 -0.2
v 0.1 1.4 -0.3
v 0.1 1.5 -0.3
v 0.1 1.5 -0.6
v 0.1 1.4 -0.6
v 0.1 1.4 -0.7
v 0.1 1.5 -0.7
v 0.1 1.5 -1
v 0.1 1.4 -1
v 0.1 1.4 -1.1
v 0.1 1.5 -1.1
v 0.1 1.8 0.9
v 0.1 1.4 0.9
v 0.1 1.8 0.7
v 0.1 1.8 0.5
v 0.1 1.4 0.5
v 0.1 1.8 0.3
v 0.1 1.8 0.1
v 0.1 1.4 0.1
v 0.1 1.8 0
v 0.1 1.8 -0.4
v 0.1 1.4 -0.4
v 0.1 1.8 -0.6
v 0.1 1.8 -0.8
v 0.1 1.4 -0.8
v 0.1 1.8 -1
v 0.1 1.9 0.9
v 0.1 1.8 0.8
v 0.1 1.9 0.8
v 0.1 1.9 0.5
v 0.1 1.8 0.4
v 0.1 1.9 0.4
v 0.1 1.9 0.1
v 0.1 1.9 0
v 0.1 1.9 -0.4
v 0.1 1.8 -0.5
v 0.1 1.9 -0.5
v 0.1 1.9 -0.8
v 0.1 1.8 -0.9
v 0.1 1.9 -0.9
v 0.1 2 1.2
v 0.1 1.9 -1.3
v 0.1 2.2 0.7
v 0.1 2.2 0.6
v 0.1 2.2 0.3
v 0.1 2.2 0.2
v 0.1 2.2 -0.2
v 0.1 2.2 -0.3
v 0.1 2.2 -0.6
v 0.1 2.2 -0.7
v 0.1 2.3 0.7
v 0.1 2.3 0.6
v 0.1 2.3 0.3
v 0.1 2.3 0.2
v 0.1 2.3 -0.2
v 0.1 2.3 -0.3
v 0.1 2.3 -0.6
v 0.1 2.3 -0.7
v 0.1 2.6 0.5
v 0.1 2.6 0.4
v 0.1 2.6 -0.4
v 0.1 2.6 -0.5
v 0.1 2.7 0.5
v 0.1 2.7 0.4
v 0.1 2.7 -0.4
v 0.1 2.7 -0.5
v 0.1 2.9 0.6
v 0.1 2.9 -0.6
v 0.1 3 0.4
v 0.1 3 -0.4
v 0.1 3.1 0.2
v 0.1 1.3 -0.1
v 0.1 3.1 -0.2
v 0 3.1 -0.1
v 0 3.1 0.1

vt 0.00585938 0.5
vt 0.0410156 0.5
vt 0.0839844 0.5

vn 0 1 0
vn 0 -1 0
vn -1 0 0
vn 1 0 0
vn 0 0 -1
vn 0 0 1

usemtl palette
f 1/1/1 2/1/1 4/1/1
f 4/1/1 2/1/1 3/1/1
f 5/2/1 6/2/1 8/2/1
f 8/2/1 6/2/1 7/2/1
f 9/2/1 10/2/1 12/2/1
f 12/2/1 10/2/1 11/2/1
f 13/1/1 14/1/1 16/1/1
f 16/1/1 14/1/1 15/1/1
f 17/2/1 18/2/1 20/2/1
f 20/2/1 18/2/1 19/2/1
f 21/2/1 22/2/1 24/2/1
f 24/2/1 22/2/1 23/2/1
f 25/1/1 26/1/1 28/1/1
f 28/1/1 26/1/1 27/1/1
f 29/2/1 30/2/1 32/2/1
f 32/2/1 30/2/1 31/2/1
f 33/1/1 34/1/1 36/1/1
f 36/1/1 34/1/1 35/1/1
f 37/2/1 38/2/1 40/2/1
f 40/2/1 38/2/1 39/2/1
f 41/1/1 42/1/1 44/1/1
f 44/1/1 42/1/1 43/1/1
f 45/1/1 46/1/1 48/1/1
f 48/1/1 46/1/1 47/1/1
f 49/1/1 50/1/1 52/1/1
f 52/1/1 50/1/1 51/1/1
f 53/1/1 54/1/1 56/1/1
f 56/1/1 54/1/1 55/1/1
f 57/1/1 58/1/1 60/1/1
f 60/1/1 58/1/1 59/1/1
f 61/2/1 62/2/1 64/2/1
f 64/2/1 62/2/1 63/2/1
f 65/2/1 66/2/1 68/2/1
f 68/2/1 66/2/1 67/2/1
f 69/1/1 70/1/1 72/1/1
f 72/1/1 70/1/1 71/1/1
f 73/1/1 74/1/1 76/1/1
f 76/1/1 74/1/1 75/1/1
f 74/3/1 77/3/1 75/3/1
f 75/3/1 77/3/1 78/3/1
f 79/3/1 80/3/1 73/3/1
f 73/3/1 80/3/1 74/3/1
f 80/1/1 81/1/1 74/1/1
f 74/1/1 81/1/1 77/1/1
f 82/2/1 83/2/1 85/2/1
f 85/2/1 83/2/1 84/2/1
f 86/2/1 87/2/1 89/2/1
f 89/2/1 87/2/1 88/2/1
f 90/1/1 91/1/1 93/1/1
f 93/1/1 91/1/1 92/1/1
f 94/1/1 95/1/1 97/1/1
f 97/1/1 95/1/1 96/1/1
f 98/1/1 99/1/1 101/1/1
f 101/1/1 99/1/1 100/1/1
f 102/1/1 103/1/1 105/1/1
f 105/1/1 103/1/1 104/1/1
f 106/1/1 107/1/1 109/1/1
f 109/1/1 107/1/1 108/1/1
f 110/1/1 111/1/1 113/1/1
f 113/1/1 111/1/1 112/1/1
f 114/2/1 115/2/1 117/2/1
f 117/2/1 115/2/1 116/2/1
f 118/1/1 119/1/1 121/1/1
f 121/1/1 119/1/1 120/1/1
f 122/2/1 123/2/1 125/2/1
f 125/2/1 123/2/1 124/2/1
f 126/3/1 127/3/1 129/3/1
f 129/3/1 127/3/1 128/3/1
f 130/1/1 131/1/1 133/1/1
f 133/1/1 131/1/1 132/1/1
f 134/3/1 135/3/1 137/3/1
f 137/3/1 135/3/1 136/3/1
f 138/1/1 139/1/1 141/1/1
f 141/1/1 139/1/1 140/1/1
f 142/2/1 143/2/1 145/2/1
f 145/2/1 143/2/1 144/2/1
f 146/2/1 147/2/1 149/2/1
f 149/2/1 147/2/1 148/2/1
f 150/1/1 151/1/1 153/1/1
f 153/1/1 151/1/1 152/1/1
f 154/2/1 155/2/1 157/2/1
f 157/2/1 155/2/1 156/2/1
f 158/2/1 159/2/1 161/2/1
f 161/2/1 159/2/1 160/2/1
f 162/2/2 163/2/2 165/2/2
f 165/2/2 163/2/2 164/2/2
f 166/2/2 167/2/2 169/2/2
f 169/2/2 167/2/2 168/2/2
f 170/2/2 171/2/2 173/2/2
f 173/2/2 171/2/2 172/2/2
f 174/2/2 175/2/2 177/2/2
f 177/2/2 175/2/2 176/2/2
f 178/3/2 179/3/2 181/3/2
f 181/3/2 179/3/2 180/3/2
f 182/3/2 183/3/2 185/3/2
f 185/3/2 183/3/2 184/3/2
f 186/2/2 187/2/2 188/2/2
f 188/2/2 187/2/2 178/2/2
f 189/2/2 190/2/2 192/2/2
f 192/2/2 190/2/2 191/2/2
f 193/2/2 194/2/2 196/2/2
f 196/2/2 194/2/2 195/2/2
f 197/2/2 185/2/2 199/2/2
f 199/2/2 185/2/2 198/2/2
f 200/3/2 201/3/2 202/3/2
f 202/3/2 201/3/2 197/3/2
f 203/3/2 188/3/2 205/3/2
f 205/3/2 188/3/2 204/3/2
f 206/2/2 207/2/2 209/2/2
f 209/2/2 207/2/2 208/2/2
f 210/2/2 202/2/2 212/2/2
f 212/2/2 202/2/2 211/2/2
f 213/2/2 214/2/2 215/2/2
f 215/2/2 214/2/2 203/2/2
f 216/2/2 217/2/2 219/2/2
f 219/2/2 217/2/2 218/2/2
f 220/1/2 221/1/2 223/1/2
f 223/1/2 221/1/2 222/1/2
f 224/1/2 225/1/2 226/1/2
f 226/1/2 225/1/2 221/1/2
f 226/3/2 220/3/2 227/3/2
f 227/3/2 220/3/2 223/3/2
f 228/3/2 224/3/2 229/3/2
f 229/3/2 224/3/2 226/3/2
f 230/3/2 231/3/2 232/3/2
f 232/3/2 231/3/2 210/3/2
f 233/3/2 215/3/2 235/3/2
f 235/3/2 215/3/2 234/3/2
f 236/2/2 237/2/2 239/2/2
f 239/2/2 237/2/2 238/2/2
f 240/2/2 232/2/2 242/2/2
f 242/2/2 232/2/2 241/2/2
f 243/2/2 244/2/2 245/2/2
f 245/2/2 244/2/2 233/2/2
f 246/2/2 247/2/2 249/2/2
f 249/2/2 247/2/2 248/2/2
f 250/3/2 245/3/2 252/3/2
f 252/3/2 245/3/2 251/3/2
f 253/3/2 254/3/2 255/3/2
f 255/3/2 254/3/2 240/3/2
f 256/2/2 257/2/2 258/2/2
f 258/2/2 257/2/2 250/2/2
f 259/2/2 260/2/2 262/2/2
f 262/2/2 260/2/2 261/2/2
f 263/2/2 264/2/2 266/2/2
f 266/2/2 264/2/2 265/2/2
f 267/2/2 255/2/2 269/2/2
f 269/2/2 255/2/2 268/2/2
f 270/3/2 258/3/2 272/3/2
f 272/3/2 258/3/2 271/3/2
f 273/3/2 274/3/2 275/3/2
f 275/3/2 274/3/2 267/3/2
f 276/2/2 277/2/2 279/2/2
f 279/2/2 277/2/2 278/2/2
f 280/2/2 281/2/2 283/2/2
f 283/2/2 281/2/2 282/2/2
f 284/1/2 228/1/2 285/1/2
f 285/1/2 228/1/2 229/1/2
f 285/1/2 226/1/2 286/1/2
f 286/1/2 226/1/2 227/1/2
f 287/2/2 288/2/2 290/2/2
f 290/2/2 288/2/2 289/2/2
f 291/2/2 292/2/2 294/2/2
f 294/2/2 292/2/2 293/2/2
f 171/1/3 295/1/3 222/1/3
f 222/1/3 295/1/3 223/1/3
f 288/1/3 287/1/3 296/1/3
f 296/1/3 287/1/3 286/1/3
f 297/1/3 298/1/3 299/1/3
f 299/1/3 298/1/3 295/1/3
f 300/1/3 301/1/3 227/1/3
f 227/1/3 301/1/3 296/1/3
f 19/2/3 18/2/3 172/2/3
f 172/2/3 18/2/3 173/2/3
f 302/2/3 303/2/3 297/2/3
f 297/2/3 303/2/3 304/2/3
f 305/2/3 306/2/3 308/2/3
f 308/2/3 306/2/3 307/2/3
f 309/2/3 310/2/3 300/2/3
f 300/2/3 310/2/3 311/2/3
f 312/2/3 313/2/3 315/2/3
f 315/2/3 313/2/3 314/2/3
f 316/2/3 317/2/3 319/2/3
f 319/2/3 317/2/3 318/2/3
f 156/2/3 155/2/3 289/2/3
f 289/2/3 155/2/3 290/2/3
f 320/1/3 321/1/3 322/1/3
f 322/1/3 321/1/3 299/1/3
f 323/1/3 324/1/3 325/1/3
f 325/1/3 324/1/3 308/1/3
f 326/1/3 327/1/3 328/1/3
f 328/1/3 327/1/3 298/1/3
f 329/1/3 330/1/3 331/1/3
f 331/1/3 330/1/3 315/1/3
f 332/1/3 333/1/3 334/1/3
f 334/1/3 333/1/3 319/1/3
f 335/1/3 336/1/3 337/1/3
f 337/1/3 336/1/3 301/1/3
f 338/2/3 339/2/3 320/2/3
f 320/2/3 339/2/3 340/2/3
f 341/2/3 342/2/3 323/2/3
f 323/2/3 342/2/3 343/2/3
f 344/2/3 345/2/3 326/2/3
f 326/2/3 345/2/3 346/2/3
f 347/2/3 348/2/3 329/2/3
f 329/2/3 348/2/3 349/2/3
f 350/2/3 351/2/3 332/2/3
f 332/2/3 351/2/3 352/2/3
f 353/2/3 354/2/3 335/2/3
f 335/2/3 354/2/3 355/2/3
f 194/1/3 193/1/3 338/1/3
f 338/1/3 193/1/3 339/1/3
f 356/1/3 357/1/3 302/1/3
f 302/1/3 357/1/3 303/1/3
f 358/1/3 359/1/3 305/1/3
f 305/1/3 359/1/3 306/1/3
f 207/1/3 206/1/3 344/1/3
f 344/1/3 206/1/3 345/1/3
f 237/1/3 236/1/3 311/1/3
f 311/1/3 236/1/3 331/1/3
f 360/1/3 361/1/3 312/1/3
f 312/1/3 361/1/3 313/1/3
f 362/1/3 363/1/3 316/1/3
f 316/1/3 363/1/3 317/1/3
f 264/1/3 263/1/3 353/1/3
f 353/1/3 263/1/3 354/1/3
f 183/1/3 182/1/3 170/1/3
f 170/1/3 182/1/3 322/1/3
f 185/2/3 197/2/3 195/2/3
f 195/2/3 197/2/3 196/2/3
f 201/1/3 364/1/3 340/1/3
f 340/1/3 364/1/3 321/1/3
f 364/2/3 365/2/3 356/2/3
f 356/2/3 365/2/3 357/2/3
f 365/1/3 366/1/3 304/1/3
f 304/1/3 366/1/3 325/1/3
f 366/1/3 367/1/3 341/1/3
f 341/1/3 367/1/3 342/1/3
f 367/1/3 368/1/3 343/1/3
f 343/1/3 368/1/3 324/1/3
f 368/2/3 369/2/3 358/2/3
f 358/2/3 369/2/3 359/2/3
f 369/1/3 200/1/3 307/1/3
f 307/1/3 200/1/3 328/1/3
f 202/2/3 210/2/3 208/2/3
f 208/2/3 210/2/3 209/2/3
f 231/1/3 370/1/3 346/1/3
f 346/1/3 370/1/3 327/1/3
f 370/3/3 371/3/3 223/3/3
f 223/3/3 371/3/3 227/3/3
f 371/1/3 230/1/3 309/1/3
f 309/1/3 230/1/3 310/1/3
f 232/2/3 240/2/3 238/2/3
f 238/2/3 240/2/3 239/2/3
f 254/1/3 372/1/3 347/1/3
f 347/1/3 372/1/3 348/1/3
f 372/1/3 373/1/3 349/1/3
f 349/1/3 373/1/3 330/1/3
f 373/2/3 374/2/3 360/2/3
f 360/2/3 374/2/3 361/2/3
f 374/1/3 375/1/3 314/1/3
f 314/1/3 375/1/3 334/1/3
f 375/1/3 376/1/3 350/1/3
f 350/1/3 376/1/3 351/1/3
f 376/1/3 377/1/3 352/1/3
f 352/1/3 377/1/3 333/1/3
f 377/2/3 378/2/3 362/2/3
f 362/2/3 378/2/3 363/2/3
f 378/1/3 253/1/3 318/1/3
f 318/1/3 253/1/3 337/1/3
f 255/2/3 267/2/3 265/2/3
f 265/2/3 267/2/3 266/2/3
f 274/1/3 273/1/3 355/1/3
f 355/1/3 273/1/3 336/1/3
f 39/2/3 38/2/3 198/2/3
f 198/2/3 38/2/3 199/2/3
f 63/2/3 62/2/3 211/2/3
f 211/2/3 62/2/3 212/2/3
f 84/2/3 83/2/3 241/2/3
f 241/2/3 83/2/3 242/2/3
f 124/2/3 123/2/3 268/2/3
f 268/2/3 123/2/3 269/2/3
f 136/3/3 379/3/3 184/3/3
f 184/3/3 379/3/3 185/3/3
f 379/3/3 380/3/3 40/3/3
f 40/3/3 380/3/3 37/3/3
f 380/3/3 381/3/3 197/3/3
f 197/3/3 381/3/3 202/3/3
f 381/3/3 382/3/3 64/3/3
f 64/3/3 382/3/3 61/3/3
f 382/3/3 383/3/3 210/3/3
f 210/3/3 383/3/3 232/3/3
f 383/3/3 384/3/3 85/3/3
f 85/3/3 384/3/3 82/3/3
f 384/3/3 385/3/3 240/3/3
f 240/3/3 385/3/3 255/3/3
f 385/3/3 386/3/3 125/3/3
f 125/3/3 386/3/3 122/3/3
f 386/3/3 135/3/3 267/3/3
f 267/3/3 135/3/3 275/3/3
f 387/1/3 388/1/3 390/1/3
f 390/1/3 388/1/3 389/1/3
f 391/1/3 392/1/3 393/1/3
f 393/1/3 392/1/3 134/1/3
f 394/2/3 395/2/3 387/2/3
f 387/2/3 395/2/3 396/2/3
f 397/2/3 398/2/3 400/2/3
f 400/2/3 398/2/3 399/2/3
f 401/2/3 402/2/3 404/2/3
f 404/2/3 402/2/3 403/2/3
f 405/2/3 406/2/3 391/2/3
f 391/2/3 406/2/3 407/2/3
f 408/2/3 409/2/3 411/2/3
f 411/2/3 409/2/3 410/2/3
f 412/2/3 413/2/3 415/2/3
f 415/2/3 413/2/3 414/2/3
f 175/1/3 174/1/3 20/1/3
f 20/1/3 174/1/3 17/1/3
f 292/1/3 291/1/3 157/1/3
f 157/1/3 291/1/3 154/1/3
f 416/1/3 417/1/3 418/1/3
f 418/1/3 417/1/3 400/1/3
f 419/1/3 420/1/3 421/1/3
f 421/1/3 420/1/3 404/1/3
f 422/1/3 423/1/3 424/1/3
f 424/1/3 423/1/3 393/1/3
f 425/1/3 426/1/3 427/1/3
f 427/1/3 426/1/3 411/1/3
f 428/1/3 429/1/3 430/1/3
f 430/1/3 429/1/3 415/1/3
f 23/2/3 22/2/3 176/2/3
f 176/2/3 22/2/3 177/2/3
f 431/2/3 432/2/3 416/2/3
f 416/2/3 432/2/3 433/2/3
f 434/2/3 435/2/3 419/2/3
f 419/2/3 435/2/3 436/2/3
f 437/2/3 438/2/3 422/2/3
f 422/2/3 438/2/3 439/2/3
f 440/2/3 441/2/3 425/2/3
f 425/2/3 441/2/3 442/2/3
f 443/2/3 444/2/3 428/2/3
f 428/2/3 444/2/3 445/2/3
f 160/2/3 159/2/3 293/2/3
f 293/2/3 159/2/3 294/2/3
f 3/1/3 446/1/3 24/1/3
f 24/1/3 446/1/3 21/1/3
f 152/1/3 151/1/3 447/1/3
f 447/1/3 151/1/3 158/1/3
f 15/1/3 14/1/3 2/1/3
f 2/1/3 14/1/3 446/1/3
f 448/1/3 449/1/3 397/1/3
f 397/1/3 449/1/3 398/1/3
f 450/1/3 451/1/3 401/1/3
f 401/1/3 451/1/3 402/1/3
f 452/1/3 453/1/3 405/1/3
f 405/1/3 453/1/3 406/1/3
f 454/1/3 455/1/3 408/1/3
f 408/1/3 455/1/3 409/1/3
f 140/1/3 139/1/3 161/1/3
f 161/1/3 139/1/3 447/1/3
f 456/2/3 457/2/3 448/2/3
f 448/2/3 457/2/3 449/2/3
f 458/2/3 459/2/3 450/2/3
f 450/2/3 459/2/3 451/2/3
f 460/2/3 461/2/3 452/2/3
f 452/2/3 461/2/3 453/2/3
f 462/2/3 463/2/3 454/2/3
f 454/2/3 463/2/3 455/2/3
f 27/1/3 26/1/3 137/1/3
f 137/1/3 26/1/3 390/1/3
f 132/1/3 131/1/3 414/1/3
f 414/1/3 131/1/3 392/1/3
f 35/1/3 34/1/3 394/1/3
f 394/1/3 34/1/3 395/1/3
f 120/1/3 119/1/3 412/1/3
f 412/1/3 119/1/3 413/1/3
f 43/1/3 42/1/3 396/1/3
f 396/1/3 42/1/3 418/1/3
f 464/1/3 465/1/3 434/1/3
f 434/1/3 465/1/3 435/1/3
f 466/1/3 467/1/3 440/1/3
f 440/1/3 467/1/3 441/1/3
f 112/1/3 111/1/3 445/1/3
f 445/1/3 111/1/3 429/1/3
f 47/1/3 46/1/3 431/1/3
f 431/1/3 46/1/3 432/1/3
f 468/2/3 469/2/3 464/2/3
f 464/2/3 469/2/3 465/2/3
f 470/2/3 471/2/3 466/2/3
f 466/2/3 471/2/3 467/2/3
f 108/1/3 107/1/3 443/1/3
f 443/1/3 107/1/3 444/1/3
f 51/1/3 50/1/3 433/1/3
f 433/1/3 50/1/3 417/1/3
f 104/1/3 103/1/3 410/1/3
f 410/1/3 103/1/3 430/1/3
f 55/1/3 472/1/3 456/1/3
f 456/1/3 472/1/3 457/1/3
f 472/1/3 54/1/3 399/1/3
f 399/1/3 54/1/3 421/1/3
f 100/1/3 473/1/3 442/1/3
f 442/1/3 473/1/3 426/1/3
f 473/1/3 99/1/3 462/1/3
f 462/1/3 99/1/3 463/1/3
f 59/1/3 474/1/3 468/1/3
f 468/1/3 474/1/3 469/1/3
f 474/1/3 58/1/3 436/1/3
f 436/1/3 58/1/3 420/1/3
f 96/1/3 475/1/3 407/1/3
f 407/1/3 475/1/3 427/1/3
f 475/1/3 95/1/3 470/1/3
f 470/1/3 95/1/3 471/1/3
f 71/1/3 476/1/3 458/1/3
f 458/1/3 476/1/3 459/1/3
f 476/1/3 70/1/3 403/1/3
f 403/1/3 70/1/3 388/1/3
f 92/1/3 477/1/3 439/1/3
f 439/1/3 477/1/3 423/1/3
f 477/1/3 91/1/3 460/1/3
f 460/1/3 91/1/3 461/1/3
f 78/3/3 77/3/3 389/3/3
f 389/3/3 77/3/3 424/3/3
f 77/1/3 81/1/3 437/1/3
f 437/1/3 81/1/3 438/1/3
f 164/1/4 225/1/4 478/1/4
f 478/1/4 225/1/4 224/1/4
f 278/1/4 479/1/4 279/1/4
f 279/1/4 479/1/4 284/1/4
f 480/1/4 481/1/4 482/1/4
f 482/1/4 481/1/4 478/1/4
f 483/1/4 484/1/4 485/1/4
f 485/1/4 484/1/4 479/1/4
f 8/2/4 163/2/4 5/2/4
f 5/2/4 163/2/4 162/2/4
f 486/2/4 480/2/4 488/2/4
f 488/2/4 480/2/4 487/2/4
f 489/2/4 490/2/4 492/2/4
f 492/2/4 490/2/4 491/2/4
f 493/2/4 494/2/4 495/2/4
f 495/2/4 494/2/4 482/2/4
f 496/2/4 483/2/4 498/2/4
f 498/2/4 483/2/4 497/2/4
f 499/2/4 500/2/4 502/2/4
f 502/2/4 500/2/4 501/2/4
f 145/2/4 277/2/4 142/2/4
f 142/2/4 277/2/4 276/2/4
f 503/1/4 504/1/4 505/1/4
f 505/1/4 504/1/4 481/1/4
f 506/1/4 507/1/4 508/1/4
f 508/1/4 507/1/4 490/1/4
f 509/1/4 510/1/4 511/1/4
f 511/1/4 510/1/4 494/1/4
f 512/1/4 513/1/4 514/1/4
f 514/1/4 513/1/4 484/1/4
f 515/1/4 516/1/4 517/1/4
f 517/1/4 516/1/4 500/1/4
f 518/1/4 519/1/4 520/1/4
f 520/1/4 519/1/4 485/1/4
f 521/2/4 503/2/4 523/2/4
f 523/2/4 503/2/4 522/2/4
f 524/2/4 506/2/4 526/2/4
f 526/2/4 506/2/4 525/2/4
f 527/2/4 509/2/4 529/2/4
f 529/2/4 509/2/4 528/2/4
f 530/2/4 512/2/4 532/2/4
f 532/2/4 512/2/4 531/2/4
f 533/2/4 515/2/4 535/2/4
f 535/2/4 515/2/4 534/2/4
f 536/2/4 518/2/4 538/2/4
f 538/2/4 518/2/4 537/2/4
f 191/1/4 521/1/4 192/1/4
f 192/1/4 521/1/4 523/1/4
f 539/1/4 486/1/4 540/1/4
f 540/1/4 486/1/4 488/1/4
f 541/1/4 489/1/4 542/1/4
f 542/1/4 489/1/4 492/1/4
f 218/1/4 528/1/4 219/1/4
f 219/1/4 528/1/4 511/1/4
f 248/1/4 530/1/4 249/1/4
f 249/1/4 530/1/4 532/1/4
f 543/1/4 496/1/4 544/1/4
f 544/1/4 496/1/4 498/1/4
f 545/1/4 499/1/4 546/1/4
f 546/1/4 499/1/4 502/1/4
f 261/1/4 536/1/4 262/1/4
f 262/1/4 536/1/4 538/1/4
f 180/1/4 165/1/4 181/1/4
f 181/1/4 165/1/4 504/1/4
f 178/2/4 190/2/4 188/2/4
f 188/2/4 190/2/4 189/2/4
f 204/1/4 522/1/4 547/1/4
f 547/1/4 522/1/4 505/1/4
f 547/2/4 539/2/4 548/2/4
f 548/2/4 539/2/4 540/2/4
f 548/1/4 487/1/4 549/1/4
f 549/1/4 487/1/4 507/1/4
f 549/1/4 524/1/4 550/1/4
f 550/1/4 524/1/4 526/1/4
f 550/1/4 525/1/4 551/1/4
f 551/1/4 525/1/4 508/1/4
f 551/2/4 541/2/4 552/2/4
f 552/2/4 541/2/4 542/2/4
f 552/1/4 491/1/4 553/1/4
f 553/1/4 491/1/4 510/1/4
f 553/1/4 527/1/4 205/1/4
f 205/1/4 527/1/4 529/1/4
f 203/2/4 217/2/4 215/2/4
f 215/2/4 217/2/4 216/2/4
f 234/1/4 493/1/4 554/1/4
f 554/1/4 493/1/4 495/1/4
f 554/3/4 224/3/4 555/3/4
f 555/3/4 224/3/4 228/3/4
f 555/1/4 228/1/4 235/1/4
f 235/1/4 228/1/4 513/1/4
f 233/2/4 247/2/4 245/2/4
f 245/2/4 247/2/4 246/2/4
f 251/1/4 531/1/4 556/1/4
f 556/1/4 531/1/4 514/1/4
f 556/2/4 543/2/4 557/2/4
f 557/2/4 543/2/4 544/2/4
f 557/1/4 497/1/4 558/1/4
f 558/1/4 497/1/4 516/1/4
f 558/1/4 533/1/4 559/1/4
f 559/1/4 533/1/4 535/1/4
f 559/1/4 534/1/4 560/1/4
f 560/1/4 534/1/4 517/1/4
f 560/2/4 545/2/4 561/2/4
f 561/2/4 545/2/4 546/2/4
f 561/1/4 501/1/4 252/1/4
f 252/1/4 501/1/4 519/1/4
f 250/2/4 260/2/4 258/2/4
f 258/2/4 260/2/4 259/2/4
f 271/1/4 537/1/4 272/1/4
f 272/1/4 537/1/4 520/1/4
f 32/2/4 187/2/4 29/2/4
f 29/2/4 187/2/4 186/2/4
f 68/2/4 214/2/4 65/2/4
f 65/2/4 214/2/4 213/2/4
f 89/2/4 244/2/4 86/2/4
f 86/2/4 244/2/4 243/2/4
f 117/2/4 257/2/4 114/2/4
f 114/2/4 257/2/4 256/2/4
f 129/3/4 179/3/4 562/3/4
f 562/3/4 179/3/4 178/3/4
f 562/3/4 31/3/4 563/3/4
f 563/3/4 31/3/4 30/3/4
f 563/3/4 188/3/4 564/3/4
f 564/3/4 188/3/4 203/3/4
f 564/3/4 67/3/4 565/3/4
f 565/3/4 67/3/4 66/3/4
f 565/3/4 215/3/4 566/3/4
f 566/3/4 215/3/4 233/3/4
f 566/3/4 88/3/4 567/3/4
f 567/3/4 88/3/4 87/3/4
f 567/3/4 245/3/4 568/3/4
f 568/3/4 245/3/4 250/3/4
f 568/3/4 116/3/4 569/3/4
f 569/3/4 116/3/4 115/3/4
f 569/3/4 258/3/4 126/3/4
f 126/3/4 258/3/4 270/3/4
f 570/1/4 571/1/4 573/1/4
f 573/1/4 571/1/4 572/1/4
f 574/1/4 575/1/4 576/1/4
f 576/1/4 575/1/4 127/1/4
f 577/2/4 570/2/4 579/2/4
f 579/2/4 570/2/4 578/2/4
f 580/2/4 581/2/4 583/2/4
f 583/2/4 581/2/4 582/2/4
f 584/2/4 585/2/4 587/2/4
f 587/2/4 585/2/4 586/2/4
f 588/2/4 574/2/4 590/2/4
f 590/2/4 574/2/4 589/2/4
f 591/2/4 592/2/4 594/2/4
f 594/2/4 592/2/4 593/2/4
f 595/2/4 596/2/4 598/2/4
f 598/2/4 596/2/4 597/2/4
f 168/1/4 7/1/4 169/1/4
f 169/1/4 7/1/4 6/1/4
f 282/1/4 144/1/4 283/1/4
f 283/1/4 144/1/4 143/1/4
f 599/1/4 600/1/4 601/1/4
f 601/1/4 600/1/4 581/1/4
f 602/1/4 603/1/4 604/1/4
f 604/1/4 603/1/4 585/1/4
f 605/1/4 606/1/4 607/1/4
f 607/1/4 606/1/4 573/1/4
f 608/1/4 609/1/4 610/1/4
f 610/1/4 609/1/4 592/1/4
f 611/1/4 612/1/4 613/1/4
f 613/1/4 612/1/4 596/1/4
f 12/2/4 167/2/4 9/2/4
f 9/2/4 167/2/4 166/2/4
f 614/2/4 599/2/4 616/2/4
f 616/2/4 599/2/4 615/2/4
f 617/2/4 602/2/4 619/2/4
f 619/2/4 602/2/4 618/2/4
f 620/2/4 605/2/4 621/2/4
f 621/2/4 605/2/4 607/2/4
f 622/2/4 608/2/4 624/2/4
f 624/2/4 608/2/4 623/2/4
f 625/2/4 611/2/4 627/2/4
f 627/2/4 611/2/4 626/2/4
f 149/2/4 281/2/4 146/2/4
f 146/2/4 281/2/4 280/2/4
f 4/1/4 11/1/4 628/1/4
f 628/1/4 11/1/4 10/1/4
f 153/1/4 629/1/4 150/1/4
f 150/1/4 629/1/4 147/1/4
f 16/1/4 1/1/4 13/1/4
f 13/1/4 1/1/4 628/1/4
f 630/1/4 580/1/4 631/1/4
f 631/1/4 580/1/4 583/1/4
f 632/1/4 584/1/4 633/1/4
f 633/1/4 584/1/4 587/1/4
f 634/1/4 588/1/4 635/1/4
f 635/1/4 588/1/4 590/1/4
f 636/1/4 591/1/4 637/1/4
f 637/1/4 591/1/4 594/1/4
f 141/1/4 148/1/4 138/1/4
f 138/1/4 148/1/4 629/1/4
f 638/2/4 630/2/4 639/2/4
f 639/2/4 630/2/4 631/2/4
f 640/2/4 632/2/4 641/2/4
f 641/2/4 632/2/4 633/2/4
f 642/2/4 634/2/4 643/2/4
f 643/2/4 634/2/4 635/2/4
f 644/2/4 636/2/4 645/2/4
f 645/2/4 636/2/4 637/2/4
f 28/1/4 128/1/4 25/1/4
f 25/1/4 128/1/4 571/1/4
f 133/1/4 597/1/4 130/1/4
f 130/1/4 597/1/4 576/1/4
f 36/1/4 577/1/4 33/1/4
f 33/1/4 577/1/4 579/1/4
f 121/1/4 595/1/4 118/1/4
f 118/1/4 595/1/4 598/1/4
f 44/1/4 578/1/4 41/1/4
f 41/1/4 578/1/4 600/1/4
f 646/1/4 617/1/4 647/1/4
f 647/1/4 617/1/4 619/1/4
f 648/1/4 622/1/4 649/1/4
f 649/1/4 622/1/4 624/1/4
f 113/1/4 626/1/4 110/1/4
f 110/1/4 626/1/4 613/1/4
f 48/1/4 614/1/4 45/1/4
f 45/1/4 614/1/4 616/1/4
f 650/2/4 646/2/4 651/2/4
f 651/2/4 646/2/4 647/2/4
f 652/2/4 648/2/4 653/2/4
f 653/2/4 648/2/4 649/2/4
f 109/1/4 625/1/4 106/1/4
f 106/1/4 625/1/4 627/1/4
f 52/1/4 615/1/4 49/1/4
f 49/1/4 615/1/4 601/1/4
f 105/1/4 593/1/4 102/1/4
f 102/1/4 593/1/4 612/1/4
f 56/1/4 638/1/4 654/1/4
f 654/1/4 638/1/4 639/1/4
f 654/1/4 582/1/4 53/1/4
f 53/1/4 582/1/4 603/1/4
f 101/1/4 623/1/4 655/1/4
f 655/1/4 623/1/4 610/1/4
f 655/1/4 644/1/4 98/1/4
f 98/1/4 644/1/4 645/1/4
f 60/1/4 650/1/4 656/1/4
f 656/1/4 650/1/4 651/1/4
f 656/1/4 618/1/4 57/1/4
f 57/1/4 618/1/4 604/1/4
f 97/1/4 589/1/4 657/1/4
f 657/1/4 589/1/4 609/1/4
f 657/1/4 652/1/4 94/1/4
f 94/1/4 652/1/4 653/1/4
f 72/1/4 640/1/4 658/1/4
f 658/1/4 640/1/4 641/1/4
f 658/1/4 586/1/4 69/1/4
f 69/1/4 586/1/4 606/1/4
f 93/1/4 659/1/4 660/1/4
f 660/1/4 659/1/4 575/1/4
f 660/1/4 642/1/4 90/1/4
f 90/1/4 642/1/4 643/1/4
f 76/1/4 620/1/4 73/1/4
f 73/1/4 620/1/4 621/1/4
f 73/3/4 572/3/4 79/3/4
f 79/3/4 572/3/4 659/3/4
f 188/2/5 30/2/5 186/2/5
f 186/2/5 30/2/5 29/2/5
f 215/2/5 66/2/5 213/2/5
f 213/2/5 66/2/5 65/2/5
f 245/2/5 87/2/5 243/2/5
f 243/2/5 87/2/5 86/2/5
f 258/2/5 115/2/5 256/2/5
f 256/2/5 115/2/5 114/2/5
f 165/2/5 6/2/5 162/2/5
f 162/2/5 6/2/5 5/2/5
f 279/2/5 143/2/5 276/2/5
f 276/2/5 143/2/5 142/2/5
f 192/2/5 204/2/5 189/2/5
f 189/2/5 204/2/5 188/2/5
f 219/2/5 234/2/5 216/2/5
f 216/2/5 234/2/5 215/2/5
f 249/2/5 251/2/5 246/2/5
f 246/2/5 251/2/5 245/2/5
f 262/2/5 271/2/5 259/2/5
f 259/2/5 271/2/5 258/2/5
f 272/3/5 127/3/5 270/3/5
f 270/3/5 127/3/5 126/3/5
f 169/2/5 10/2/5 166/2/5
f 166/2/5 10/2/5 9/2/5
f 283/2/5 147/2/5 280/2/5
f 280/2/5 147/2/5 146/2/5
f 661/3/5 80/3/5 93/3/5
f 93/3/5 80/3/5 79/3/5
f 286/1/5 151/1/5 284/1/5
f 284/1/5 151/1/5 150/1/5
f 152/1/5 139/1/5 153/1/5
f 153/1/5 139/1/5 138/1/5
f 140/1/5 131/1/5 141/1/5
f 141/1/5 131/1/5 130/1/5
f 132/1/5 119/1/5 133/1/5
f 133/1/5 119/1/5 118/1/5
f 120/1/5 111/1/5 121/1/5
f 121/1/5 111/1/5 110/1/5
f 112/1/5 107/1/5 113/1/5
f 113/1/5 107/1/5 106/1/5
f 108/1/5 103/1/5 109/1/5
f 109/1/5 103/1/5 102/1/5
f 104/1/5 99/1/5 105/1/5
f 105/1/5 99/1/5 98/1/5
f 100/1/5 95/1/5 101/1/5
f 101/1/5 95/1/5 94/1/5
f 96/1/5 91/1/5 97/1/5
f 97/1/5 91/1/5 90/1/5
f 92/1/5 81/1/5 661/1/5
f 661/1/5 81/1/5 80/1/5
f 173/2/5 18/2/5 170/2/5
f 170/2/5 18/2/5 17/2/5
f 290/2/5 155/2/5 287/2/5
f 287/2/5 155/2/5 154/2/5
f 196/2/5 197/2/5 193/2/5
f 193/2/5 197/2/5 201/2/5
f 209/2/5 210/2/5 206/2/5
f 206/2/5 210/2/5 231/2/5
f 239/2/5 240/2/5 236/2/5
f 236/2/5 240/2/5 254/2/5
f 266/2/5 267/2/5 263/2/5
f 263/2/5 267/2/5 274/2/5
f 275/3/5 135/3/5 273/3/5
f 273/3/5 135/3/5 134/3/5
f 177/2/5 22/2/5 174/2/5
f 174/2/5 22/2/5 21/2/5
f 294/2/5 159/2/5 291/2/5
f 291/2/5 159/2/5 158/2/5
f 199/2/5 38/2/5 197/2/5
f 197/2/5 38/2/5 37/2/5
f 212/2/5 62/2/5 210/2/5
f 210/2/5 62/2/5 61/2/5
f 242/2/5 83/2/5 240/2/5
f 240/2/5 83/2/5 82/2/5
f 269/2/5 123/2/5 267/2/5
f 267/2/5 123/2/5 122/2/5
f 178/2/6 187/2/6 31/2/6
f 31/2/6 187/2/6 32/2/6
f 203/2/6 214/2/6 67/2/6
f 67/2/6 214/2/6 68/2/6
f 233/2/6 244/2/6 88/2/6
f 88/2/6 244/2/6 89/2/6
f 250/2/6 257/2/6 116/2/6
f 116/2/6 257/2/6 117/2/6
f 164/2/6 163/2/6 7/2/6
f 7/2/6 163/2/6 8/2/6
f 278/2/6 277/2/6 144/2/6
f 144/2/6 277/2/6 145/2/6
f 191/2/6 190/2/6 181/2/6
f 181/2/6 190/2/6 178/2/6
f 218/2/6 217/2/6 205/2/6
f 205/2/6 217/2/6 203/2/6
f 248/2/6 247/2/6 235/2/6
f 235/2/6 247/2/6 233/2/6
f 261/2/6 260/2/6 252/2/6
f 252/2/6 260/2/6 250/2/6
f 180/3/6 179/3/6 128/3/6
f 128/3/6 179/3/6 129/3/6
f 168/2/6 167/2/6 11/2/6
f 11/2/6 167/2/6 12/2/6
f 282/2/6 281/2/6 148/2/6
f 148/2/6 281/2/6 149/2/6
f 662/1/6 69/1/6 75/1/6
f 75/1/6 69/1/6 76/1/6
f 222/1/6 225/1/6 3/1/6
f 3/1/6 225/1/6 4/1/6
f 2/1/6 1/1/6 15/1/6
f 15/1/6 1/1/6 16/1/6
f 14/1/6 13/1/6 27/1/6
f 27/1/6 13/1/6 28/1/6
f 26/1/6 25/1/6 35/1/6
f 35/1/6 25/1/6 36/1/6
f 34/1/6 33/1/6 43/1/6
f 43/1/6 33/1/6 44/1/6
f 42/1/6 41/1/6 47/1/6
f 47/1/6 41/1/6 48/1/6
f 46/1/6 45/1/6 51/1/6
f 51/1/6 45/1/6 52/1/6
f 50/1/6 49/1/6 55/1/6
f 55/1/6 49/1/6 56/1/6
f 54/1/6 53/1/6 59/1/6
f 59/1/6 53/1/6 60/1/6
f 58/1/6 57/1/6 71/1/6
f 71/1/6 57/1/6 72/1/6
f 70/3/6 662/3/6 78/3/6
f 78/3/6 662/3/6 75/3/6
f 172/2/6 171/2/6 19/2/6
f 19/2/6 171/2/6 20/2/6
f 289/2/6 288/2/6 156/2/6
f 156/2/6 288/2/6 157/2/6
f 195/2/6 194/2/6 185/2/6
f 185/2/6 194/2/6 182/2/6
f 208/2/6 207/2/6 202/2/6
f 202/2/6 207/2/6 200/2/6
f 238/2/6 237/2/6 232/2/6
f 232/2/6 237/2/6 230/2/6
f 265/2/6 264/2/6 255/2/6
f 255/2/6 264/2/6 253/2/6
f 184/3/6 183/3/6 136/3/6
f 136/3/6 183/3/6 137/3/6
f 176/2/6 175/2/6 23/2/6
f 23/2/6 175/2/6 24/2/6
f 293/2/6 292/2/6 160/2/6
f 160/2/6 292/2/6 161/2/6
f 198/2/6 185/2/6 39/2/6
f 39/2/6 185/2/6 40/2/6
f 211/2/6 202/2/6 63/2/6
f 63/2/6 202/2/6 64/2/6
f 241/2/6 232/2/6 84/2/6
f 84/2/6 232/2/6 85/2/6
f 268/2/6 255/2/6 124/2/6
f 124/2/6 255/2/6 125/2/6
