# Vengi binary mesh normalized for Tanks of Freedom II

mtllib ../../../materials/vox_grass.mtl
o sandbag

v 0.7 0.3 0.3
v 0.6 0.3 0.3
v 0.6 0.3 0.4
v 0.7 0.3 0.4
v 0.5 0.3 0.3
v 0.5 0.3 0.4
v 0.4 0.3 0.3
v 0.4 0.3 0.4
v 0.3 0.3 0.3
v 0.3 0.3 0.4
v 0.2 0.3 0.3
v 0.2 0.3 0.4
v 0.1 0.3 0.3
v 0.1 0.3 0.4
v 0 0.3 0.3
v 0 0.3 0.4
v -0.1 0.3 0.3
v -0.1 0.3 0.4
v -0.2 0.3 0.3
v -0.2 0.3 0.4
v -0.3 0.3 0.3
v -0.3 0.3 0.4
v -0.4 0.3 0.3
v -0.4 0.3 0.4
v -0.5 0.3 0.3
v -0.5 0.3 0.4
v -0.6 0.3 0.3
v -0.6 0.3 0.4
v -0.7 0.3 0.3
v -0.7 0.3 0.4
v 0.8 0.3 0.2
v 0.7 0.3 0.2
v 0.8 0.3 0.3
v 0.6 0.4 0.2
v -0.7 0.4 0.2
v -0.7 0.4 0.3
v 0.6 0.4 0.3
v -0.7 0.3 0.2
v -0.8 0.3 0.2
v -0.8 0.3 0.3
v 0.8 0.3 0.1
v 0.7 0.3 0.1
v 0.6 0.4 0.1
v 0.5 0.4 0.1
v 0.5 0.4 0.2
v 0.2 0.4 0.1
v -0.3 0.4 0.1
v -0.3 0.4 0.2
v 0.2 0.4 0.2
v -0.4 0.4 0.1
v -0.4 0.4 0.2
v -0.7 0.3 0.1
v -0.8 0.3 0.1
v 0.8 0.3 0
v 0.7 0.3 0
v 0.4 0.4 0
v 0.2 0.4 0
v 0.4 0.4 0.2
v 0.1 0.4 0
v 0.1 0.4 0.1
v 0 0.4 0
v -0.1 0.4 0
v -0.1 0.4 0.1
v 0 0.4 0.1
v -0.3 0.4 0
v -0.4 0.4 0
v -0.7 0.3 0
v -0.8 0.3 0
v 0.8 0.3 -0.1
v 0.7 0.3 -0.1
v 0.4 0.4 -0.1
v 0.3 0.4 -0.1
v 0.3 0.4 0
v 0.1 0.4 -0.1
v 0 0.4 -0.1
v -0.3 0.4 -0.1
v -0.4 0.4 -0.1
v -0.5 0.4 -0.1
v -0.7 0.4 -0.1
v -0.5 0.4 0.2
v -0.7 0.3 -0.1
v -0.8 0.3 -0.1
v 0.8 0.3 -0.2
v 0.7 0.3 -0.2
v 0.1 0.4 -0.2
v 0 0.4 -0.2
v -0.5 0.4 -0.2
v -0.6 0.4 -0.2
v -0.6 0.4 -0.1
v -0.7 0.3 -0.2
v -0.8 0.3 -0.2
v 0.8 0.3 -0.3
v 0.7 0.3 -0.3
v 0.7 0.4 -0.3
v 0.6 0.4 -0.3
v 0.7 0.4 0.3
v 0.5 0.4 -0.3
v 0.4 0.4 -0.3
v 0.3 0.4 -0.3
v 0.1 0.4 -0.3
v 0 0.4 -0.3
v -0.1 0.4 -0.3
v -0.3 0.4 -0.3
v -0.4 0.4 -0.3
v -0.5 0.4 -0.3
v -0.6 0.4 -0.3
v -0.7 0.4 -0.3
v -0.7 0.3 -0.3
v -0.8 0.3 -0.3
v 0.7 0.3 -0.4
v 0.6 0.3 -0.4
v 0.6 0.3 -0.3
v 0.5 0.3 -0.4
v 0.5 0.3 -0.3
v 0.4 0.3 -0.4
v 0.4 0.3 -0.3
v 0.3 0.3 -0.4
v 0.3 0.3 -0.3
v 0.2 0.3 -0.4
v 0.2 0.3 -0.3
v 0.1 0.3 -0.4
v 0.1 0.3 -0.3
v 0 0.3 -0.4
v 0 0.3 -0.3
v -0.1 0.3 -0.4
v -0.1 0.3 -0.3
v -0.2 0.3 -0.4
v -0.2 0.3 -0.3
v -0.3 0.3 -0.4
v -0.3 0.3 -0.3
v -0.4 0.3 -0.4
v -0.4 0.3 -0.3
v -0.5 0.3 -0.4
v -0.5 0.3 -0.3
v -0.6 0.3 -0.4
v -0.6 0.3 -0.3
v -0.7 0.3 -0.4
v 0.7 0.1 0.3
v 0.7 0.1 0.4
v 0.6 0.1 0.4
v 0.6 0.1 0.3
v 0.5 0.1 0.4
v 0.5 0.1 0.3
v 0.4 0.1 0.4
v 0.4 0.1 0.3
v 0.3 0.1 0.4
v 0.3 0.1 0.3
v 0.2 0.1 0.4
v 0.2 0.1 0.3
v 0.1 0.1 0.4
v 0.1 0.1 0.3
v 0 0.1 0.4
v 0 0.1 0.3
v -0.1 0.1 0.4
v -0.1 0.1 0.3
v -0.2 0.1 0.4
v -0.2 0.1 0.3
v -0.3 0.1 0.4
v -0.3 0.1 0.3
v -0.4 0.1 0.4
v -0.4 0.1 0.3
v -0.5 0.1 0.4
v -0.5 0.1 0.3
v -0.6 0.1 0.4
v -0.6 0.1 0.3
v -0.7 0.1 0.4
v -0.7 0.1 0.3
v 0.8 0.1 0.2
v 0.8 0.1 0.3
v 0.7 0.1 0.2
v -0.7 0.1 0.2
v -0.8 0.1 0.3
v -0.8 0.1 0.2
v 0.8 0.1 0.1
v 0.7 0.1 0.1
v -0.7 0.1 0.1
v -0.8 0.1 0.1
v 0.8 0.1 0
v 0.7 0.1 0
v -0.7 0.1 0
v -0.8 0.1 0
v 0.8 0.1 -0.1
v 0.7 0.1 -0.1
v -0.7 0.1 -0.1
v -0.8 0.1 -0.1
v 0.8 0.1 -0.2
v 0.7 0.1 -0.2
v -0.7 0.1 -0.2
v -0.8 0.1 -0.2
v 0.8 0.1 -0.3
v 0.7 0.1 -0.3
v 0.7 0 -0.3
v 0.7 0 0.3
v -0.7 0 0.3
v -0.7 0 -0.3
v -0.7 0.1 -0.3
v -0.8 0.1 -0.3
v 0.7 0.1 -0.4
v 0.6 0.1 -0.3
v 0.6 0.1 -0.4
v 0.5 0.1 -0.3
v 0.5 0.1 -0.4
v 0.4 0.1 -0.3
v 0.4 0.1 -0.4
v 0.3 0.1 -0.3
v 0.3 0.1 -0.4
v 0.2 0.1 -0.3
v 0.2 0.1 -0.4
v 0.1 0.1 -0.3
v 0.1 0.1 -0.4
v 0 0.1 -0.3
v 0 0.1 -0.4
v -0.1 0.1 -0.3
v -0.1 0.1 -0.4
v -0.2 0.1 -0.3
v -0.2 0.1 -0.4
v -0.3 0.1 -0.3
v -0.3 0.1 -0.4
v -0.4 0.1 -0.3
v -0.4 0.1 -0.4
v -0.5 0.1 -0.3
v -0.5 0.1 -0.4
v -0.6 0.1 -0.3
v -0.6 0.1 -0.4
v -0.7 0.1 -0.4
v -0.7 0.2 0.4
v -0.7 0.2 0.3
v -0.8 0.2 0.3
v -0.8 0.2 0.2
v -0.8 0.2 0.1
v -0.8 0.2 0
v -0.8 0.2 -0.1
v -0.8 0.2 -0.2
v -0.8 0.2 -0.3
v -0.7 0.2 -0.3
v -0.7 0.2 -0.4
v 0.7 0.2 0.4
v 0.7 0.2 0.3
v 0.8 0.2 0.3
v 0.8 0.2 0.2
v 0.8 0.2 0.1
v 0.8 0.2 0
v 0.8 0.2 -0.1
v 0.8 0.2 -0.2
v 0.8 0.2 -0.3
v 0.7 0.2 -0.3
v 0.7 0.2 -0.4
v 0.6 0.2 -0.4
v 0.5 0.2 -0.4
v 0.4 0.2 -0.4
v 0.3 0.2 -0.4
v 0.2 0.2 -0.4
v 0.1 0.2 -0.4
v 0 0.2 -0.4
v -0.1 0.2 -0.4
v -0.2 0.2 -0.4
v -0.3 0.2 -0.4
v -0.4 0.2 -0.4
v -0.5 0.2 -0.4
v -0.6 0.2 -0.4
v 0.6 0.2 0.4
v 0.5 0.2 0.4
v 0.4 0.2 0.4
v 0.3 0.2 0.4
v 0.2 0.2 0.4
v 0.1 0.2 0.4
v 0 0.2 0.4
v -0.1 0.2 0.4
v -0.2 0.2 0.4
v -0.3 0.2 0.4
v -0.4 0.2 0.4
v -0.5 0.2 0.4
v -0.6 0.2 0.4

vt 0.00585938 0.5
vt 0.0839844 0.5

vn 0 1 0
vn 0 -1 0
vn -1 0 0
vn 1 0 0
vn 0 0 -1
vn 0 0 1

usemtl palette
f 1/1/1 2/1/1 4/1/1
f 4/1/1 2/1/1 3/1/1
f 2/2/1 5/2/1 3/2/1
f 3/2/1 5/2/1 6/2/1
f 5/1/1 7/1/1 6/1/1
f 6/1/1 7/1/1 8/1/1
f 7/2/1 9/2/1 8/2/1
f 8/2/1 9/2/1 10/2/1
f 9/1/1 11/1/1 10/1/1
f 10/1/1 11/1/1 12/1/1
f 11/2/1 13/2/1 12/2/1
f 12/2/1 13/2/1 14/2/1
f 13/1/1 15/1/1 14/1/1
f 14/1/1 15/1/1 16/1/1
f 15/2/1 17/2/1 16/2/1
f 16/2/1 17/2/1 18/2/1
f 17/1/1 19/1/1 18/1/1
f 18/1/1 19/1/1 20/1/1
f 19/2/1 21/2/1 20/2/1
f 20/2/1 21/2/1 22/2/1
f 21/1/1 23/1/1 22/1/1
f 22/1/1 23/1/1 24/1/1
f 23/2/1 25/2/1 24/2/1
f 24/2/1 25/2/1 26/2/1
f 25/1/1 27/1/1 26/1/1
f 26/1/1 27/1/1 28/1/1
f 27/2/1 29/2/1 28/2/1
f 28/2/1 29/2/1 30/2/1
f 31/2/1 32/2/1 33/2/1
f 33/2/1 32/2/1 1/2/1
f 34/2/1 35/2/1 37/2/1
f 37/2/1 35/2/1 36/2/1
f 38/1/1 39/1/1 29/1/1
f 29/1/1 39/1/1 40/1/1
f 41/1/1 42/1/1 31/1/1
f 31/1/1 42/1/1 32/1/1
f 43/1/1 44/1/1 34/1/1
f 34/1/1 44/1/1 45/1/1
f 46/2/1 47/2/1 49/2/1
f 49/2/1 47/2/1 48/2/1
f 47/1/1 50/1/1 48/1/1
f 48/1/1 50/1/1 51/1/1
f 52/2/1 53/2/1 38/2/1
f 38/2/1 53/2/1 39/2/1
f 54/2/1 55/2/1 41/2/1
f 41/2/1 55/2/1 42/2/1
f 56/2/1 57/2/1 58/2/1
f 58/2/1 57/2/1 49/2/1
f 57/1/1 59/1/1 46/1/1
f 46/1/1 59/1/1 60/1/1
f 61/1/1 62/1/1 64/1/1
f 64/1/1 62/1/1 63/1/1
f 65/2/1 66/2/1 47/2/1
f 47/2/1 66/2/1 50/2/1
f 67/1/1 68/1/1 52/1/1
f 52/1/1 68/1/1 53/1/1
f 69/1/1 70/1/1 54/1/1
f 54/1/1 70/1/1 55/1/1
f 71/1/1 72/1/1 56/1/1
f 56/1/1 72/1/1 73/1/1
f 74/2/1 75/2/1 60/2/1
f 60/2/1 75/2/1 64/2/1
f 76/1/1 77/1/1 65/1/1
f 65/1/1 77/1/1 66/1/1
f 78/2/1 79/2/1 80/2/1
f 80/2/1 79/2/1 35/2/1
f 81/2/1 82/2/1 67/2/1
f 67/2/1 82/2/1 68/2/1
f 83/2/1 84/2/1 69/2/1
f 69/2/1 84/2/1 70/2/1
f 85/1/1 86/1/1 74/1/1
f 74/1/1 86/1/1 75/1/1
f 87/1/1 88/1/1 78/1/1
f 78/1/1 88/1/1 89/1/1
f 90/1/1 91/1/1 81/1/1
f 81/1/1 91/1/1 82/1/1
f 92/1/1 93/1/1 83/1/1
f 83/1/1 93/1/1 84/1/1
f 94/2/1 95/2/1 96/2/1
f 96/2/1 95/2/1 37/2/1
f 95/2/1 97/2/1 43/2/1
f 43/2/1 97/2/1 44/2/1
f 97/2/1 98/2/1 45/2/1
f 45/2/1 98/2/1 58/2/1
f 98/2/1 99/2/1 71/2/1
f 71/2/1 99/2/1 72/2/1
f 99/2/1 100/2/1 73/2/1
f 73/2/1 100/2/1 59/2/1
f 100/2/1 101/2/1 85/2/1
f 85/2/1 101/2/1 86/2/1
f 101/2/1 102/2/1 61/2/1
f 61/2/1 102/2/1 62/2/1
f 102/2/1 103/2/1 63/2/1
f 63/2/1 103/2/1 47/2/1
f 103/2/1 104/2/1 76/2/1
f 76/2/1 104/2/1 77/2/1
f 104/2/1 105/2/1 51/2/1
f 51/2/1 105/2/1 80/2/1
f 105/2/1 106/2/1 87/2/1
f 87/2/1 106/2/1 88/2/1
f 106/2/1 107/2/1 89/2/1
f 89/2/1 107/2/1 79/2/1
f 108/2/1 109/2/1 90/2/1
f 90/2/1 109/2/1 91/2/1
f 110/2/1 111/2/1 93/2/1
f 93/2/1 111/2/1 112/2/1
f 111/1/1 113/1/1 112/1/1
f 112/1/1 113/1/1 114/1/1
f 113/2/1 115/2/1 114/2/1
f 114/2/1 115/2/1 116/2/1
f 115/1/1 117/1/1 116/1/1
f 116/1/1 117/1/1 118/1/1
f 117/2/1 119/2/1 118/2/1
f 118/2/1 119/2/1 120/2/1
f 119/1/1 121/1/1 120/1/1
f 120/1/1 121/1/1 122/1/1
f 121/2/1 123/2/1 122/2/1
f 122/2/1 123/2/1 124/2/1
f 123/1/1 125/1/1 124/1/1
f 124/1/1 125/1/1 126/1/1
f 125/2/1 127/2/1 126/2/1
f 126/2/1 127/2/1 128/2/1
f 127/1/1 129/1/1 128/1/1
f 128/1/1 129/1/1 130/1/1
f 129/2/1 131/2/1 130/2/1
f 130/2/1 131/2/1 132/2/1
f 131/1/1 133/1/1 132/1/1
f 132/1/1 133/1/1 134/1/1
f 133/2/1 135/2/1 134/2/1
f 134/2/1 135/2/1 136/2/1
f 135/1/1 137/1/1 136/1/1
f 136/1/1 137/1/1 108/1/1
f 138/2/2 139/2/2 141/2/2
f 141/2/2 139/2/2 140/2/2
f 141/1/2 140/1/2 143/1/2
f 143/1/2 140/1/2 142/1/2
f 143/2/2 142/2/2 145/2/2
f 145/2/2 142/2/2 144/2/2
f 145/1/2 144/1/2 147/1/2
f 147/1/2 144/1/2 146/1/2
f 147/2/2 146/2/2 149/2/2
f 149/2/2 146/2/2 148/2/2
f 149/1/2 148/1/2 151/1/2
f 151/1/2 148/1/2 150/1/2
f 151/2/2 150/2/2 153/2/2
f 153/2/2 150/2/2 152/2/2
f 153/1/2 152/1/2 155/1/2
f 155/1/2 152/1/2 154/1/2
f 155/2/2 154/2/2 157/2/2
f 157/2/2 154/2/2 156/2/2
f 157/1/2 156/1/2 159/1/2
f 159/1/2 156/1/2 158/1/2
f 159/2/2 158/2/2 161/2/2
f 161/2/2 158/2/2 160/2/2
f 161/1/2 160/1/2 163/1/2
f 163/1/2 160/1/2 162/1/2
f 163/2/2 162/2/2 165/2/2
f 165/2/2 162/2/2 164/2/2
f 165/1/2 164/1/2 167/1/2
f 167/1/2 164/1/2 166/1/2
f 168/1/2 169/1/2 170/1/2
f 170/1/2 169/1/2 138/1/2
f 171/2/2 167/2/2 173/2/2
f 173/2/2 167/2/2 172/2/2
f 174/2/2 168/2/2 175/2/2
f 175/2/2 168/2/2 170/2/2
f 176/1/2 171/1/2 177/1/2
f 177/1/2 171/1/2 173/1/2
f 178/1/2 174/1/2 179/1/2
f 179/1/2 174/1/2 175/1/2
f 180/2/2 176/2/2 181/2/2
f 181/2/2 176/2/2 177/2/2
f 182/2/2 178/2/2 183/2/2
f 183/2/2 178/2/2 179/2/2
f 184/1/2 180/1/2 185/1/2
f 185/1/2 180/1/2 181/1/2
f 186/1/2 182/1/2 187/1/2
f 187/1/2 182/1/2 183/1/2
f 188/2/2 184/2/2 189/2/2
f 189/2/2 184/2/2 185/2/2
f 190/2/2 186/2/2 191/2/2
f 191/2/2 186/2/2 187/2/2
f 192/2/2 193/2/2 195/2/2
f 195/2/2 193/2/2 194/2/2
f 196/1/2 188/1/2 197/1/2
f 197/1/2 188/1/2 189/1/2
f 198/1/2 191/1/2 200/1/2
f 200/1/2 191/1/2 199/1/2
f 200/2/2 199/2/2 202/2/2
f 202/2/2 199/2/2 201/2/2
f 202/1/2 201/1/2 204/1/2
f 204/1/2 201/1/2 203/1/2
f 204/2/2 203/2/2 206/2/2
f 206/2/2 203/2/2 205/2/2
f 206/1/2 205/1/2 208/1/2
f 208/1/2 205/1/2 207/1/2
f 208/2/2 207/2/2 210/2/2
f 210/2/2 207/2/2 209/2/2
f 210/1/2 209/1/2 212/1/2
f 212/1/2 209/1/2 211/1/2
f 212/2/2 211/2/2 214/2/2
f 214/2/2 211/2/2 213/2/2
f 214/1/2 213/1/2 216/1/2
f 216/1/2 213/1/2 215/1/2
f 216/2/2 215/2/2 218/2/2
f 218/2/2 215/2/2 217/2/2
f 218/1/2 217/1/2 220/1/2
f 220/1/2 217/1/2 219/1/2
f 220/2/2 219/2/2 222/2/2
f 222/2/2 219/2/2 221/2/2
f 222/1/2 221/1/2 224/1/2
f 224/1/2 221/1/2 223/1/2
f 224/2/2 223/2/2 225/2/2
f 225/2/2 223/2/2 196/2/2
f 167/2/3 196/2/3 194/2/3
f 194/2/3 196/2/3 195/2/3
f 226/1/3 227/1/3 166/1/3
f 166/1/3 227/1/3 167/1/3
f 228/2/3 229/2/3 172/2/3
f 172/2/3 229/2/3 173/2/3
f 229/1/3 230/1/3 173/1/3
f 173/1/3 230/1/3 177/1/3
f 230/2/3 231/2/3 177/2/3
f 177/2/3 231/2/3 181/2/3
f 231/1/3 232/1/3 181/1/3
f 181/1/3 232/1/3 185/1/3
f 232/2/3 233/2/3 185/2/3
f 185/2/3 233/2/3 189/2/3
f 233/1/3 234/1/3 189/1/3
f 189/1/3 234/1/3 197/1/3
f 235/2/3 236/2/3 196/2/3
f 196/2/3 236/2/3 225/2/3
f 30/2/3 29/2/3 226/2/3
f 226/2/3 29/2/3 227/2/3
f 40/1/3 39/1/3 228/1/3
f 228/1/3 39/1/3 229/1/3
f 39/2/3 53/2/3 229/2/3
f 229/2/3 53/2/3 230/2/3
f 53/1/3 68/1/3 230/1/3
f 230/1/3 68/1/3 231/1/3
f 68/2/3 82/2/3 231/2/3
f 231/2/3 82/2/3 232/2/3
f 82/1/3 91/1/3 232/1/3
f 232/1/3 91/1/3 233/1/3
f 91/2/3 109/2/3 233/2/3
f 233/2/3 109/2/3 234/2/3
f 108/1/3 137/1/3 235/1/3
f 235/1/3 137/1/3 236/1/3
f 36/2/3 107/2/3 29/2/3
f 29/2/3 107/2/3 108/2/3
f 138/2/4 193/2/4 191/2/4
f 191/2/4 193/2/4 192/2/4
f 237/2/4 139/2/4 238/2/4
f 238/2/4 139/2/4 138/2/4
f 239/1/4 169/1/4 240/1/4
f 240/1/4 169/1/4 168/1/4
f 240/2/4 168/2/4 241/2/4
f 241/2/4 168/2/4 174/2/4
f 241/1/4 174/1/4 242/1/4
f 242/1/4 174/1/4 178/1/4
f 242/2/4 178/2/4 243/2/4
f 243/2/4 178/2/4 182/2/4
f 243/1/4 182/1/4 244/1/4
f 244/1/4 182/1/4 186/1/4
f 244/2/4 186/2/4 245/2/4
f 245/2/4 186/2/4 190/2/4
f 246/1/4 191/1/4 247/1/4
f 247/1/4 191/1/4 198/1/4
f 4/1/4 237/1/4 1/1/4
f 1/1/4 237/1/4 238/1/4
f 33/2/4 239/2/4 31/2/4
f 31/2/4 239/2/4 240/2/4
f 31/1/4 240/1/4 41/1/4
f 41/1/4 240/1/4 241/1/4
f 41/2/4 241/2/4 54/2/4
f 54/2/4 241/2/4 242/2/4
f 54/1/4 242/1/4 69/1/4
f 69/1/4 242/1/4 243/1/4
f 69/2/4 243/2/4 83/2/4
f 83/2/4 243/2/4 244/2/4
f 83/1/4 244/1/4 92/1/4
f 92/1/4 244/1/4 245/1/4
f 93/2/4 246/2/4 110/2/4
f 110/2/4 246/2/4 247/2/4
f 96/2/4 1/2/4 94/2/4
f 94/2/4 1/2/4 93/2/4
f 191/2/5 246/2/5 190/2/5
f 190/2/5 246/2/5 245/2/5
f 246/1/5 93/1/5 245/1/5
f 245/1/5 93/1/5 92/1/5
f 200/1/5 248/1/5 198/1/5
f 198/1/5 248/1/5 247/1/5
f 248/2/5 111/2/5 247/2/5
f 247/2/5 111/2/5 110/2/5
f 202/2/5 249/2/5 200/2/5
f 200/2/5 249/2/5 248/2/5
f 249/1/5 113/1/5 248/1/5
f 248/1/5 113/1/5 111/1/5
f 204/1/5 250/1/5 202/1/5
f 202/1/5 250/1/5 249/1/5
f 250/2/5 115/2/5 249/2/5
f 249/2/5 115/2/5 113/2/5
f 206/2/5 251/2/5 204/2/5
f 204/2/5 251/2/5 250/2/5
f 251/1/5 117/1/5 250/1/5
f 250/1/5 117/1/5 115/1/5
f 208/1/5 252/1/5 206/1/5
f 206/1/5 252/1/5 251/1/5
f 252/2/5 119/2/5 251/2/5
f 251/2/5 119/2/5 117/2/5
f 210/2/5 253/2/5 208/2/5
f 208/2/5 253/2/5 252/2/5
f 253/1/5 121/1/5 252/1/5
f 252/1/5 121/1/5 119/1/5
f 212/1/5 254/1/5 210/1/5
f 210/1/5 254/1/5 253/1/5
f 254/2/5 123/2/5 253/2/5
f 253/2/5 123/2/5 121/2/5
f 214/2/5 255/2/5 212/2/5
f 212/2/5 255/2/5 254/2/5
f 255/1/5 125/1/5 254/1/5
f 254/1/5 125/1/5 123/1/5
f 216/1/5 256/1/5 214/1/5
f 214/1/5 256/1/5 255/1/5
f 256/2/5 127/2/5 255/2/5
f 255/2/5 127/2/5 125/2/5
f 218/2/5 257/2/5 216/2/5
f 216/2/5 257/2/5 256/2/5
f 257/1/5 129/1/5 256/1/5
f 256/1/5 129/1/5 127/1/5
f 220/1/5 258/1/5 218/1/5
f 218/1/5 258/1/5 257/1/5
f 258/2/5 131/2/5 257/2/5
f 257/2/5 131/2/5 129/2/5
f 222/2/5 259/2/5 220/2/5
f 220/2/5 259/2/5 258/2/5
f 259/1/5 133/1/5 258/1/5
f 258/1/5 133/1/5 131/1/5
f 224/1/5 260/1/5 222/1/5
f 222/1/5 260/1/5 259/1/5
f 260/2/5 135/2/5 259/2/5
f 259/2/5 135/2/5 133/2/5
f 195/2/5 196/2/5 192/2/5
f 192/2/5 196/2/5 191/2/5
f 225/2/5 236/2/5 224/2/5
f 224/2/5 236/2/5 260/2/5
f 236/1/5 137/1/5 260/1/5
f 260/1/5 137/1/5 135/1/5
f 108/2/5 107/2/5 93/2/5
f 93/2/5 107/2/5 94/2/5
f 197/1/5 234/1/5 196/1/5
f 196/1/5 234/1/5 235/1/5
f 234/2/5 109/2/5 235/2/5
f 235/2/5 109/2/5 108/2/5
f 138/1/6 169/1/6 238/1/6
f 238/1/6 169/1/6 239/1/6
f 238/2/6 239/2/6 1/2/6
f 1/2/6 239/2/6 33/2/6
f 140/2/6 139/2/6 261/2/6
f 261/2/6 139/2/6 237/2/6
f 261/1/6 237/1/6 3/1/6
f 3/1/6 237/1/6 4/1/6
f 142/1/6 140/1/6 262/1/6
f 262/1/6 140/1/6 261/1/6
f 262/2/6 261/2/6 6/2/6
f 6/2/6 261/2/6 3/2/6
f 144/2/6 142/2/6 263/2/6
f 263/2/6 142/2/6 262/2/6
f 263/1/6 262/1/6 8/1/6
f 8/1/6 262/1/6 6/1/6
f 146/1/6 144/1/6 264/1/6
f 264/1/6 144/1/6 263/1/6
f 264/2/6 263/2/6 10/2/6
f 10/2/6 263/2/6 8/2/6
f 148/2/6 146/2/6 265/2/6
f 265/2/6 146/2/6 264/2/6
f 265/1/6 264/1/6 12/1/6
f 12/1/6 264/1/6 10/1/6
f 150/1/6 148/1/6 266/1/6
f 266/1/6 148/1/6 265/1/6
f 266/2/6 265/2/6 14/2/6
f 14/2/6 265/2/6 12/2/6
f 152/2/6 150/2/6 267/2/6
f 267/2/6 150/2/6 266/2/6
f 267/1/6 266/1/6 16/1/6
f 16/1/6 266/1/6 14/1/6
f 154/1/6 152/1/6 268/1/6
f 268/1/6 152/1/6 267/1/6
f 268/2/6 267/2/6 18/2/6
f 18/2/6 267/2/6 16/2/6
f 156/2/6 154/2/6 269/2/6
f 269/2/6 154/2/6 268/2/6
f 269/1/6 268/1/6 20/1/6
f 20/1/6 268/1/6 18/1/6
f 158/1/6 156/1/6 270/1/6
f 270/1/6 156/1/6 269/1/6
f 270/2/6 269/2/6 22/2/6
f 22/2/6 269/2/6 20/2/6
f 160/2/6 158/2/6 271/2/6
f 271/2/6 158/2/6 270/2/6
f 271/1/6 270/1/6 24/1/6
f 24/1/6 270/1/6 22/1/6
f 162/1/6 160/1/6 272/1/6
f 272/1/6 160/1/6 271/1/6
f 272/2/6 271/2/6 26/2/6
f 26/2/6 271/2/6 24/2/6
f 164/2/6 162/2/6 273/2/6
f 273/2/6 162/2/6 272/2/6
f 273/1/6 272/1/6 28/1/6
f 28/1/6 272/1/6 26/1/6
f 194/2/6 193/2/6 167/2/6
f 167/2/6 193/2/6 138/2/6
f 166/1/6 164/1/6 226/1/6
f 226/1/6 164/1/6 273/1/6
f 226/2/6 273/2/6 30/2/6
f 30/2/6 273/2/6 28/2/6
f 29/2/6 1/2/6 36/2/6
f 36/2/6 1/2/6 96/2/6
f 172/2/6 167/2/6 228/2/6
f 228/2/6 167/2/6 227/2/6
f 228/1/6 227/1/6 40/1/6
f 40/1/6 227/1/6 29/1/6
