# Vengi binary mesh normalized for Tanks of Freedom II

mtllib ../../../materials/vox_grass.mtl
o dune_1

v 0.2 0.1 0.5
v -0.2 0.1 0.5
v -0.2 0.1 0.6
v 0.2 0.1 0.6
v 0.4 0.1 0.4
v 0.3 0.1 0.4
v 0.3 0.1 0.5
v 0.4 0.1 0.5
v 0.2 0.1 0.4
v 0.3 0.1 0.6
v 0.1 0.2 0.4
v -0.1 0.2 0.4
v -0.1 0.2 0.5
v 0.1 0.2 0.5
v -0.1 0.1 0.4
v -0.4 0.1 0.4
v -0.4 0.1 0.5
v -0.1 0.1 0.5
v 0.5 0.1 0.3
v 0.4 0.1 0.3
v 0.5 0.1 0.5
v 0.3 0.2 0.3
v 0.2 0.2 0.3
v 0.2 0.2 0.4
v 0.3 0.2 0.4
v 0.1 0.2 0.3
v 0.2 0.2 0.5
v 0 0.2 0.3
v -0.2 0.2 0.3
v -0.2 0.2 0.4
v 0 0.2 0.4
v -0.2 0.1 0.3
v -0.6 0.1 0.3
v -0.6 0.1 0.4
v -0.2 0.1 0.4
v 0.4 0.2 0.2
v 0.3 0.2 0.2
v 0.4 0.2 0.4
v 0.2 0.3 0.2
v 0.1 0.3 0.2
v 0.1 0.3 0.3
v 0.2 0.3 0.3
v 0 0.3 0.2
v 0 0.3 0.4
v 0.1 0.3 0.4
v -0.1 0.2 0.2
v -0.3 0.2 0.2
v -0.3 0.2 0.3
v -0.1 0.2 0.3
v -0.3 0.1 0.2
v -0.7 0.1 0.2
v -0.7 0.1 0.3
v -0.3 0.1 0.3
v 0.6 0.1 0.1
v 0.5 0.1 0.1
v 0.5 0.1 0.4
v 0.6 0.1 0.4
v 0.3 0.3 0.1
v 0.2 0.3 0.1
v 0.3 0.3 0.3
v 0 0.3 0.1
v -0.1 0.3 0.1
v -0.1 0.3 0.3
v 0 0.3 0.3
v -0.2 0.2 0.1
v -0.4 0.2 0.1
v -0.4 0.2 0.2
v -0.2 0.2 0.2
v -0.4 0.1 0.1
v -0.7 0.1 0.1
v -0.4 0.1 0.2
v 0.7 0.1 0
v 0.6 0.1 0
v 0.6 0.1 0.3
v 0.7 0.1 0.3
v 0.5 0.2 0
v 0.4 0.2 0
v 0.4 0.2 0.3
v 0.5 0.2 0.3
v 0.2 0.4 0
v 0 0.4 0
v 0 0.4 0.2
v 0.2 0.4 0.2
v -0.1 0.3 0
v -0.2 0.3 0
v -0.2 0.3 0.2
v -0.1 0.3 0.2
v -0.3 0.2 0
v -0.6 0.2 0
v -0.6 0.2 0.1
v -0.3 0.2 0.1
v -0.6 0.1 0
v -0.8 0.1 0
v -0.8 0.1 0.1
v -0.6 0.1 0.1
v 0.2 0.5 -0.1
v 0 0.5 -0.1
v 0 0.5 0
v 0.2 0.5 0
v -0.1 0.4 -0.1
v -0.2 0.4 -0.1
v -0.2 0.4 0
v -0.1 0.4 0
v 0.7 0.2 -0.2
v 0.6 0.2 -0.2
v 0.6 0.2 0
v 0.7 0.2 0
v 0.5 0.3 -0.2
v 0.4 0.3 -0.2
v 0.4 0.3 0
v 0.5 0.3 0
v 0.3 0.4 -0.2
v 0.2 0.4 -0.2
v 0.2 0.4 0.1
v 0.3 0.4 0.1
v 0 0.4 -0.2
v -0.1 0.4 -0.2
v -0.1 0.4 0.1
v 0 0.4 0.1
v -0.2 0.3 -0.2
v -0.3 0.3 -0.2
v -0.3 0.3 0.1
v -0.2 0.3 0.1
v -0.4 0.3 -0.2
v -0.4 0.3 0
v -0.3 0.3 0
v -0.6 0.2 -0.2
v -0.7 0.2 -0.2
v -0.7 0.2 0
v 0.8 0.1 -0.3
v 0.7 0.1 -0.3
v 0.7 0.1 0.1
v 0.8 0.1 0.1
v 0.6 0.2 -0.3
v 0.5 0.2 -0.3
v 0.5 0.2 0.1
v 0.6 0.2 0.1
v 0.4 0.3 -0.3
v 0.3 0.3 -0.3
v 0.3 0.3 0.2
v 0.4 0.3 0.2
v 0.2 0.4 -0.3
v 0 0.4 -0.3
v 0 0.4 -0.1
v 0.2 0.4 -0.1
v -0.1 0.3 -0.3
v -0.2 0.3 -0.3
v -0.2 0.3 -0.1
v -0.1 0.3 -0.1
v -0.4 0.2 -0.3
v -0.6 0.2 -0.3
v -0.4 0.2 0
v 0.7 0.1 -0.4
v 0.6 0.1 -0.4
v 0.6 0.1 -0.2
v 0.7 0.1 -0.2
v 0.5 0.2 -0.4
v 0.4 0.2 -0.4
v 0.4 0.2 -0.2
v 0.5 0.2 -0.2
v 0.3 0.3 -0.4
v 0.2 0.3 -0.4
v 0.2 0.3 -0.2
v 0.3 0.3 -0.2
v 0 0.3 -0.4
v -0.1 0.3 -0.4
v -0.1 0.3 -0.2
v 0 0.3 -0.2
v -0.2 0.2 -0.4
v -0.4 0.2 -0.4
v -0.4 0.2 -0.2
v -0.2 0.2 -0.2
v -0.6 0.1 -0.4
v -0.7 0.1 -0.4
v -0.7 0.1 -0.2
v -0.6 0.1 -0.2
v -0.8 0.1 -0.4
v -0.7 0.1 0
v 0.6 0.1 -0.5
v 0.5 0.1 -0.5
v 0.5 0.1 -0.3
v 0.6 0.1 -0.3
v 0.4 0.2 -0.5
v 0.3 0.2 -0.5
v 0.3 0.2 -0.3
v 0.4 0.2 -0.3
v 0.2 0.3 -0.5
v 0 0.3 -0.5
v 0 0.3 -0.3
v 0.2 0.3 -0.3
v -0.1 0.2 -0.5
v -0.2 0.2 -0.5
v -0.2 0.2 -0.3
v -0.1 0.2 -0.3
v -0.5 0.1 -0.5
v -0.6 0.1 -0.5
v -0.6 0.1 -0.3
v -0.5 0.1 -0.3
v 0.5 0.1 -0.6
v 0.4 0.1 -0.6
v 0.4 0.1 -0.4
v 0.5 0.1 -0.4
v 0.3 0.2 -0.6
v 0.2 0.2 -0.6
v 0.2 0.2 -0.4
v 0.3 0.2 -0.4
v 0 0.2 -0.6
v 0 0.2 -0.5
v 0.2 0.2 -0.5
v -0.1 0.2 -0.6
v -0.1 0.2 -0.4
v 0 0.2 -0.4
v -0.4 0.1 -0.6
v -0.5 0.1 -0.6
v -0.4 0.1 -0.3
v 0.4 0.1 -0.7
v 0.3 0.1 -0.7
v 0.3 0.1 -0.5
v 0.4 0.1 -0.5
v -0.1 0.1 -0.7
v -0.1 0.1 -0.6
v 0.3 0.1 -0.6
v -0.2 0.1 -0.7
v -0.2 0.1 -0.5
v -0.1 0.1 -0.5
v -0.4 0.1 -0.7
v -0.4 0.1 -0.4
v -0.2 0.1 -0.4
v 0.8 0 -0.3
v 0.8 0 0.1
v 0.7 0 0.1
v 0.7 0 -0.3
v 0.7 0 -0.4
v 0.7 0 0.3
v 0.6 0 0.3
v 0.6 0 -0.4
v -0.6 0 -0.4
v -0.6 0 0.3
v -0.7 0 0.3
v -0.7 0 -0.4
v -0.7 0 0.1
v -0.8 0 0.1
v -0.8 0 -0.4
v 0.6 0 -0.5
v 0.6 0 0.4
v 0.5 0 0.4
v 0.5 0 -0.5
v -0.5 0 -0.5
v -0.5 0 0.4
v -0.6 0 0.4
v -0.6 0 -0.5
v 0.5 0 -0.6
v 0.5 0 0.5
v 0.3 0 0.5
v 0.3 0 -0.6
v -0.4 0 -0.6
v -0.4 0 0.4
v -0.5 0 -0.6
v 0.4 0 -0.7
v 0.4 0 -0.6
v 0.3 0 -0.7
v 0.3 0 0.6
v -0.2 0 0.6
v -0.2 0 -0.7
v -0.2 0 0.5
v -0.4 0 0.5
v -0.4 0 -0.7

vt 0.0878906 0.5

vn 0 1 0
vn 0 -1 0
vn -1 0 0
vn 1 0 0
vn 0 0 -1
vn 0 0 1

usemtl palette
f 1/1/1 2/1/1 4/1/1
f 4/1/1 2/1/1 3/1/1
f 5/1/1 6/1/1 8/1/1
f 8/1/1 6/1/1 7/1/1
f 6/1/1 9/1/1 10/1/1
f 10/1/1 9/1/1 4/1/1
f 11/1/1 12/1/1 14/1/1
f 14/1/1 12/1/1 13/1/1
f 15/1/1 16/1/1 18/1/1
f 18/1/1 16/1/1 17/1/1
f 19/1/1 20/1/1 21/1/1
f 21/1/1 20/1/1 8/1/1
f 22/1/1 23/1/1 25/1/1
f 25/1/1 23/1/1 24/1/1
f 23/1/1 26/1/1 27/1/1
f 27/1/1 26/1/1 14/1/1
f 28/1/1 29/1/1 31/1/1
f 31/1/1 29/1/1 30/1/1
f 32/1/1 33/1/1 35/1/1
f 35/1/1 33/1/1 34/1/1
f 36/1/1 37/1/1 38/1/1
f 38/1/1 37/1/1 25/1/1
f 39/1/1 40/1/1 42/1/1
f 42/1/1 40/1/1 41/1/1
f 40/1/1 43/1/1 45/1/1
f 45/1/1 43/1/1 44/1/1
f 46/1/1 47/1/1 49/1/1
f 49/1/1 47/1/1 48/1/1
f 50/1/1 51/1/1 53/1/1
f 53/1/1 51/1/1 52/1/1
f 54/1/1 55/1/1 57/1/1
f 57/1/1 55/1/1 56/1/1
f 58/1/1 59/1/1 60/1/1
f 60/1/1 59/1/1 42/1/1
f 61/1/1 62/1/1 64/1/1
f 64/1/1 62/1/1 63/1/1
f 65/1/1 66/1/1 68/1/1
f 68/1/1 66/1/1 67/1/1
f 69/1/1 70/1/1 71/1/1
f 71/1/1 70/1/1 51/1/1
f 72/1/1 73/1/1 75/1/1
f 75/1/1 73/1/1 74/1/1
f 76/1/1 77/1/1 79/1/1
f 79/1/1 77/1/1 78/1/1
f 80/1/1 81/1/1 83/1/1
f 83/1/1 81/1/1 82/1/1
f 84/1/1 85/1/1 87/1/1
f 87/1/1 85/1/1 86/1/1
f 88/1/1 89/1/1 91/1/1
f 91/1/1 89/1/1 90/1/1
f 92/1/1 93/1/1 95/1/1
f 95/1/1 93/1/1 94/1/1
f 96/1/1 97/1/1 99/1/1
f 99/1/1 97/1/1 98/1/1
f 100/1/1 101/1/1 103/1/1
f 103/1/1 101/1/1 102/1/1
f 104/1/1 105/1/1 107/1/1
f 107/1/1 105/1/1 106/1/1
f 108/1/1 109/1/1 111/1/1
f 111/1/1 109/1/1 110/1/1
f 112/1/1 113/1/1 115/1/1
f 115/1/1 113/1/1 114/1/1
f 116/1/1 117/1/1 119/1/1
f 119/1/1 117/1/1 118/1/1
f 120/1/1 121/1/1 123/1/1
f 123/1/1 121/1/1 122/1/1
f 121/1/1 124/1/1 126/1/1
f 126/1/1 124/1/1 125/1/1
f 127/1/1 128/1/1 89/1/1
f 89/1/1 128/1/1 129/1/1
f 130/1/1 131/1/1 133/1/1
f 133/1/1 131/1/1 132/1/1
f 134/1/1 135/1/1 137/1/1
f 137/1/1 135/1/1 136/1/1
f 138/1/1 139/1/1 141/1/1
f 141/1/1 139/1/1 140/1/1
f 142/1/1 143/1/1 145/1/1
f 145/1/1 143/1/1 144/1/1
f 146/1/1 147/1/1 149/1/1
f 149/1/1 147/1/1 148/1/1
f 150/1/1 151/1/1 152/1/1
f 152/1/1 151/1/1 89/1/1
f 153/1/1 154/1/1 156/1/1
f 156/1/1 154/1/1 155/1/1
f 157/1/1 158/1/1 160/1/1
f 160/1/1 158/1/1 159/1/1
f 161/1/1 162/1/1 164/1/1
f 164/1/1 162/1/1 163/1/1
f 165/1/1 166/1/1 168/1/1
f 168/1/1 166/1/1 167/1/1
f 169/1/1 170/1/1 172/1/1
f 172/1/1 170/1/1 171/1/1
f 173/1/1 174/1/1 176/1/1
f 176/1/1 174/1/1 175/1/1
f 174/1/1 177/1/1 178/1/1
f 178/1/1 177/1/1 93/1/1
f 179/1/1 180/1/1 182/1/1
f 182/1/1 180/1/1 181/1/1
f 183/1/1 184/1/1 186/1/1
f 186/1/1 184/1/1 185/1/1
f 187/1/1 188/1/1 190/1/1
f 190/1/1 188/1/1 189/1/1
f 191/1/1 192/1/1 194/1/1
f 194/1/1 192/1/1 193/1/1
f 195/1/1 196/1/1 198/1/1
f 198/1/1 196/1/1 197/1/1
f 199/1/1 200/1/1 202/1/1
f 202/1/1 200/1/1 201/1/1
f 203/1/1 204/1/1 206/1/1
f 206/1/1 204/1/1 205/1/1
f 204/1/1 207/1/1 209/1/1
f 209/1/1 207/1/1 208/1/1
f 207/1/1 210/1/1 212/1/1
f 212/1/1 210/1/1 211/1/1
f 213/1/1 214/1/1 215/1/1
f 215/1/1 214/1/1 198/1/1
f 216/1/1 217/1/1 219/1/1
f 219/1/1 217/1/1 218/1/1
f 217/1/1 220/1/1 222/1/1
f 222/1/1 220/1/1 221/1/1
f 220/1/1 223/1/1 225/1/1
f 225/1/1 223/1/1 224/1/1
f 223/1/1 226/1/1 228/1/1
f 228/1/1 226/1/1 227/1/1
f 229/1/2 230/1/2 232/1/2
f 232/1/2 230/1/2 231/1/2
f 233/1/2 234/1/2 236/1/2
f 236/1/2 234/1/2 235/1/2
f 237/1/2 238/1/2 240/1/2
f 240/1/2 238/1/2 239/1/2
f 240/1/2 241/1/2 243/1/2
f 243/1/2 241/1/2 242/1/2
f 244/1/2 245/1/2 247/1/2
f 247/1/2 245/1/2 246/1/2
f 248/1/2 249/1/2 251/1/2
f 251/1/2 249/1/2 250/1/2
f 252/1/2 253/1/2 255/1/2
f 255/1/2 253/1/2 254/1/2
f 256/1/2 257/1/2 258/1/2
f 258/1/2 257/1/2 249/1/2
f 259/1/2 260/1/2 261/1/2
f 261/1/2 260/1/2 255/1/2
f 261/1/2 262/1/2 264/1/2
f 264/1/2 262/1/2 263/1/2
f 264/1/2 265/1/2 267/1/2
f 267/1/2 265/1/2 266/1/2
f 3/1/3 2/1/3 263/1/3
f 263/1/3 2/1/3 265/1/3
f 17/1/3 16/1/3 266/1/3
f 266/1/3 16/1/3 257/1/3
f 34/1/3 33/1/3 250/1/3
f 250/1/3 33/1/3 238/1/3
f 52/1/3 70/1/3 239/1/3
f 239/1/3 70/1/3 241/1/3
f 94/1/3 177/1/3 242/1/3
f 242/1/3 177/1/3 243/1/3
f 173/1/3 196/1/3 237/1/3
f 237/1/3 196/1/3 251/1/3
f 195/1/3 214/1/3 248/1/3
f 248/1/3 214/1/3 258/1/3
f 213/1/3 226/1/3 256/1/3
f 256/1/3 226/1/3 267/1/3
f 13/1/3 12/1/3 18/1/3
f 18/1/3 12/1/3 15/1/3
f 30/1/3 29/1/3 35/1/3
f 35/1/3 29/1/3 32/1/3
f 48/1/3 47/1/3 53/1/3
f 53/1/3 47/1/3 50/1/3
f 67/1/3 66/1/3 71/1/3
f 71/1/3 66/1/3 69/1/3
f 90/1/3 89/1/3 95/1/3
f 95/1/3 89/1/3 92/1/3
f 129/1/3 128/1/3 178/1/3
f 178/1/3 128/1/3 175/1/3
f 127/1/3 151/1/3 176/1/3
f 176/1/3 151/1/3 197/1/3
f 150/1/3 170/1/3 215/1/3
f 215/1/3 170/1/3 227/1/3
f 169/1/3 192/1/3 228/1/3
f 228/1/3 192/1/3 224/1/3
f 191/1/3 210/1/3 225/1/3
f 225/1/3 210/1/3 221/1/3
f 44/1/3 64/1/3 31/1/3
f 31/1/3 64/1/3 28/1/3
f 63/1/3 87/1/3 49/1/3
f 49/1/3 87/1/3 46/1/3
f 86/1/3 123/1/3 68/1/3
f 68/1/3 123/1/3 65/1/3
f 122/1/3 126/1/3 91/1/3
f 91/1/3 126/1/3 88/1/3
f 125/1/3 124/1/3 152/1/3
f 152/1/3 124/1/3 171/1/3
f 120/1/3 147/1/3 172/1/3
f 172/1/3 147/1/3 193/1/3
f 146/1/3 166/1/3 194/1/3
f 194/1/3 166/1/3 211/1/3
f 165/1/3 188/1/3 212/1/3
f 212/1/3 188/1/3 208/1/3
f 82/1/3 119/1/3 43/1/3
f 43/1/3 119/1/3 61/1/3
f 118/1/3 103/1/3 62/1/3
f 62/1/3 103/1/3 84/1/3
f 102/1/3 101/1/3 85/1/3
f 85/1/3 101/1/3 148/1/3
f 100/1/3 117/1/3 149/1/3
f 149/1/3 117/1/3 167/1/3
f 116/1/3 143/1/3 168/1/3
f 168/1/3 143/1/3 189/1/3
f 98/1/3 97/1/3 81/1/3
f 81/1/3 97/1/3 144/1/3
f 10/1/4 262/1/4 7/1/4
f 7/1/4 262/1/4 254/1/4
f 21/1/4 253/1/4 56/1/4
f 56/1/4 253/1/4 246/1/4
f 57/1/4 245/1/4 74/1/4
f 74/1/4 245/1/4 235/1/4
f 75/1/4 234/1/4 132/1/4
f 132/1/4 234/1/4 231/1/4
f 133/1/4 230/1/4 130/1/4
f 130/1/4 230/1/4 229/1/4
f 131/1/4 232/1/4 153/1/4
f 153/1/4 232/1/4 233/1/4
f 154/1/4 236/1/4 179/1/4
f 179/1/4 236/1/4 244/1/4
f 180/1/4 247/1/4 199/1/4
f 199/1/4 247/1/4 252/1/4
f 200/1/4 260/1/4 216/1/4
f 216/1/4 260/1/4 259/1/4
f 27/1/4 1/1/4 24/1/4
f 24/1/4 1/1/4 9/1/4
f 38/1/4 5/1/4 78/1/4
f 78/1/4 5/1/4 20/1/4
f 79/1/4 19/1/4 136/1/4
f 136/1/4 19/1/4 55/1/4
f 137/1/4 54/1/4 106/1/4
f 106/1/4 54/1/4 73/1/4
f 107/1/4 72/1/4 104/1/4
f 104/1/4 72/1/4 156/1/4
f 105/1/4 155/1/4 134/1/4
f 134/1/4 155/1/4 182/1/4
f 135/1/4 181/1/4 157/1/4
f 157/1/4 181/1/4 202/1/4
f 158/1/4 201/1/4 183/1/4
f 183/1/4 201/1/4 219/1/4
f 184/1/4 218/1/4 203/1/4
f 203/1/4 218/1/4 222/1/4
f 45/1/4 11/1/4 41/1/4
f 41/1/4 11/1/4 26/1/4
f 60/1/4 22/1/4 140/1/4
f 140/1/4 22/1/4 37/1/4
f 141/1/4 36/1/4 110/1/4
f 110/1/4 36/1/4 77/1/4
f 111/1/4 76/1/4 108/1/4
f 108/1/4 76/1/4 160/1/4
f 109/1/4 159/1/4 138/1/4
f 138/1/4 159/1/4 186/1/4
f 139/1/4 185/1/4 161/1/4
f 161/1/4 185/1/4 206/1/4
f 162/1/4 205/1/4 187/1/4
f 187/1/4 205/1/4 209/1/4
f 83/1/4 39/1/4 114/1/4
f 114/1/4 39/1/4 59/1/4
f 115/1/4 58/1/4 112/1/4
f 112/1/4 58/1/4 164/1/4
f 113/1/4 163/1/4 142/1/4
f 142/1/4 163/1/4 190/1/4
f 99/1/4 80/1/4 96/1/4
f 96/1/4 80/1/4 145/1/4
f 232/1/5 131/1/5 229/1/5
f 229/1/5 131/1/5 130/1/5
f 236/1/5 154/1/5 233/1/5
f 233/1/5 154/1/5 153/1/5
f 155/1/5 105/1/5 156/1/5
f 156/1/5 105/1/5 104/1/5
f 247/1/5 180/1/5 244/1/5
f 244/1/5 180/1/5 179/1/5
f 181/1/5 135/1/5 182/1/5
f 182/1/5 135/1/5 134/1/5
f 260/1/5 200/1/5 252/1/5
f 252/1/5 200/1/5 199/1/5
f 201/1/5 158/1/5 202/1/5
f 202/1/5 158/1/5 157/1/5
f 159/1/5 109/1/5 160/1/5
f 160/1/5 109/1/5 108/1/5
f 218/1/5 184/1/5 219/1/5
f 219/1/5 184/1/5 183/1/5
f 185/1/5 139/1/5 186/1/5
f 186/1/5 139/1/5 138/1/5
f 205/1/5 162/1/5 206/1/5
f 206/1/5 162/1/5 161/1/5
f 163/1/5 113/1/5 164/1/5
f 164/1/5 113/1/5 112/1/5
f 208/1/5 188/1/5 209/1/5
f 209/1/5 188/1/5 187/1/5
f 189/1/5 143/1/5 190/1/5
f 190/1/5 143/1/5 142/1/5
f 144/1/5 97/1/5 145/1/5
f 145/1/5 97/1/5 96/1/5
f 221/1/5 210/1/5 222/1/5
f 222/1/5 210/1/5 203/1/5
f 211/1/5 166/1/5 212/1/5
f 212/1/5 166/1/5 165/1/5
f 167/1/5 117/1/5 168/1/5
f 168/1/5 117/1/5 116/1/5
f 224/1/5 192/1/5 225/1/5
f 225/1/5 192/1/5 191/1/5
f 193/1/5 147/1/5 194/1/5
f 194/1/5 147/1/5 146/1/5
f 148/1/5 101/1/5 149/1/5
f 149/1/5 101/1/5 100/1/5
f 267/1/5 226/1/5 259/1/5
f 259/1/5 226/1/5 216/1/5
f 227/1/5 170/1/5 228/1/5
f 228/1/5 170/1/5 169/1/5
f 171/1/5 124/1/5 172/1/5
f 172/1/5 124/1/5 120/1/5
f 258/1/5 214/1/5 256/1/5
f 256/1/5 214/1/5 213/1/5
f 251/1/5 196/1/5 248/1/5
f 248/1/5 196/1/5 195/1/5
f 197/1/5 151/1/5 215/1/5
f 215/1/5 151/1/5 150/1/5
f 175/1/5 128/1/5 176/1/5
f 176/1/5 128/1/5 127/1/5
f 243/1/5 177/1/5 237/1/5
f 237/1/5 177/1/5 173/1/5
f 231/1/6 230/1/6 132/1/6
f 132/1/6 230/1/6 133/1/6
f 235/1/6 234/1/6 74/1/6
f 74/1/6 234/1/6 75/1/6
f 73/1/6 72/1/6 106/1/6
f 106/1/6 72/1/6 107/1/6
f 246/1/6 245/1/6 56/1/6
f 56/1/6 245/1/6 57/1/6
f 55/1/6 54/1/6 136/1/6
f 136/1/6 54/1/6 137/1/6
f 20/1/6 19/1/6 78/1/6
f 78/1/6 19/1/6 79/1/6
f 77/1/6 76/1/6 110/1/6
f 110/1/6 76/1/6 111/1/6
f 254/1/6 253/1/6 7/1/6
f 7/1/6 253/1/6 21/1/6
f 37/1/6 36/1/6 140/1/6
f 140/1/6 36/1/6 141/1/6
f 9/1/6 5/1/6 24/1/6
f 24/1/6 5/1/6 38/1/6
f 59/1/6 58/1/6 114/1/6
f 114/1/6 58/1/6 115/1/6
f 26/1/6 22/1/6 41/1/6
f 41/1/6 22/1/6 60/1/6
f 31/1/6 11/1/6 44/1/6
f 44/1/6 11/1/6 45/1/6
f 43/1/6 39/1/6 82/1/6
f 82/1/6 39/1/6 83/1/6
f 81/1/6 80/1/6 98/1/6
f 98/1/6 80/1/6 99/1/6
f 18/1/6 1/1/6 13/1/6
f 13/1/6 1/1/6 27/1/6
f 49/1/6 28/1/6 63/1/6
f 63/1/6 28/1/6 64/1/6
f 62/1/6 61/1/6 118/1/6
f 118/1/6 61/1/6 119/1/6
f 263/1/6 262/1/6 3/1/6
f 3/1/6 262/1/6 10/1/6
f 35/1/6 15/1/6 30/1/6
f 30/1/6 15/1/6 12/1/6
f 68/1/6 46/1/6 86/1/6
f 86/1/6 46/1/6 87/1/6
f 85/1/6 84/1/6 102/1/6
f 102/1/6 84/1/6 103/1/6
f 53/1/6 32/1/6 48/1/6
f 48/1/6 32/1/6 29/1/6
f 91/1/6 65/1/6 122/1/6
f 122/1/6 65/1/6 123/1/6
f 266/1/6 265/1/6 17/1/6
f 17/1/6 265/1/6 2/1/6
f 71/1/6 50/1/6 67/1/6
f 67/1/6 50/1/6 47/1/6
f 152/1/6 88/1/6 125/1/6
f 125/1/6 88/1/6 126/1/6
f 250/1/6 257/1/6 34/1/6
f 34/1/6 257/1/6 16/1/6
f 95/1/6 69/1/6 90/1/6
f 90/1/6 69/1/6 66/1/6
f 239/1/6 238/1/6 52/1/6
f 52/1/6 238/1/6 33/1/6
f 178/1/6 92/1/6 129/1/6
f 129/1/6 92/1/6 89/1/6
f 242/1/6 241/1/6 94/1/6
f 94/1/6 241/1/6 70/1/6
