# Vengi binary mesh normalized for Tanks of Freedom II

mtllib ../../../materials/vox_grass.mtl
o dune_4

v 0.9 0.1 2.4
v -0.6 0.1 2.4
v -0.6 0.1 2.5
v 0.9 0.1 2.5
v 1.2 0.1 2.3
v 0.9 0.1 2.3
v 1.2 0.1 2.4
v 0.9 0.2 2.3
v -0.6 0.2 2.3
v -0.6 0.2 2.4
v 0.9 0.2 2.4
v -0.6 0.1 2.3
v -1 0.1 2.3
v -1 0.1 2.4
v 1.6 0.1 2.2
v 1.2 0.1 2.2
v 1.6 0.1 2.3
v 0.9 0.3 2.2
v -0.6 0.3 2.2
v -0.6 0.3 2.3
v 0.9 0.3 2.3
v -0.6 0.2 2.2
v -1 0.2 2.2
v -1 0.2 2.3
v -1 0.1 2.2
v -1.1 0.1 2.2
v -1.1 0.1 2.3
v 2 0.1 2.1
v 1.8 0.1 2.1
v 1.8 0.1 2.2
v 2 0.1 2.2
v 1.6 0.1 2.1
v 1.8 0.1 2.3
v 1.6 0.2 2.1
v 1.2 0.2 2.1
v 1.2 0.2 2.2
v 1.6 0.2 2.2
v 0.9 0.2 2.1
v 1.2 0.2 2.3
v 0.7 0.2 2.1
v 0.7 0.2 2.2
v 0.9 0.2 2.2
v 0.7 0.3 2.1
v 0.4 0.3 2.1
v 0.4 0.3 2.2
v 0.7 0.3 2.2
v 0.4 0.4 2.1
v -0.6 0.4 2.1
v -0.6 0.4 2.2
v 0.4 0.4 2.2
v -0.6 0.3 2.1
v -1 0.3 2.1
v -1 0.3 2.2
v -1 0.2 2.1
v -1.1 0.2 2.1
v -1.1 0.2 2.2
v -1.1 0.1 2.1
v -1.3 0.1 2.1
v -1.3 0.1 2.2
v 1.7 0.1 2
v 0.8 0.1 2
v 0.8 0.1 2.1
v 1.7 0.1 2.1
v 0.8 0.2 2
v 0.4 0.2 2
v 0.4 0.2 2.1
v 0.8 0.2 2.1
v 0.4 0.3 2
v -0.1 0.3 2
v -0.1 0.3 2.1
v -0.1 0.4 2
v -0.4 0.4 2
v -0.4 0.4 2.1
v -0.1 0.4 2.1
v -0.4 0.5 2
v -0.6 0.5 2
v -0.6 0.5 2.1
v -0.4 0.5 2.1
v -0.6 0.4 2
v -1 0.4 2
v -1 0.4 2.1
v -1 0.3 2
v -1.1 0.3 2
v -1.1 0.3 2.1
v -1.1 0.2 2
v -1.3 0.2 2
v -1.3 0.2 2.1
v 1 0.1 1.9
v 0.5 0.1 1.9
v 0.5 0.1 2
v 1 0.1 2
v 0.5 0.2 1.9
v 0 0.2 1.9
v 0 0.2 2
v 0.5 0.2 2
v 0 0.3 1.9
v -0.4 0.3 1.9
v -0.4 0.3 2
v 0 0.3 2
v -0.4 0.4 1.9
v -0.6 0.4 1.9
v -0.6 0.6 1.9
v -0.7 0.6 1.9
v -0.7 0.6 2
v -0.6 0.6 2
v -0.7 0.5 1.9
v -1 0.5 1.9
v -1 0.5 2
v -0.7 0.5 2
v -1 0.4 1.9
v -1.1 0.4 1.9
v -1.1 0.4 2
v -1.1 0.3 1.9
v -1.2 0.3 1.9
v -1.2 0.3 2
v -1.2 0.2 1.9
v -1.3 0.2 1.9
v -1.2 0.2 2
v -1.3 0.1 1.9
v -1.4 0.1 1.9
v -1.4 0.1 2.1
v 0.9 0.1 1.8
v 0.2 0.1 1.8
v 0.2 0.1 1.9
v 0.9 0.1 1.9
v 0.2 0.2 1.8
v -0.3 0.2 1.8
v -0.3 0.2 1.9
v 0.2 0.2 1.9
v -0.6 0.5 1.8
v -0.7 0.5 1.8
v -0.6 0.5 1.9
v -0.7 0.6 1.8
v -0.8 0.6 1.8
v -0.8 0.6 1.9
v -0.9 0.6 1.8
v -1 0.6 1.8
v -1 0.6 1.9
v -0.9 0.6 1.9
v 0.5 0.1 1.7
v 0 0.1 1.7
v 0 0.1 1.8
v 0.5 0.1 1.8
v 0 0.2 1.7
v -0.3 0.2 1.7
v 0 0.2 1.8
v -0.3 0.3 1.7
v -0.5 0.3 1.7
v -0.5 0.3 1.9
v -0.3 0.3 1.9
v -0.5 0.4 1.7
v -0.6 0.4 1.7
v -0.5 0.4 1.9
v -0.8 0.7 1.7
v -0.9 0.7 1.7
v -0.9 0.7 1.9
v -0.8 0.7 1.9
v 0.2 0.1 1.6
v -0.2 0.1 1.6
v -0.2 0.1 1.7
v 0.2 0.1 1.7
v -0.9 0.7 1.6
v -1 0.7 1.6
v -1 0.7 1.8
v -0.9 0.7 1.8
v -1 0.5 1.6
v -1.1 0.5 1.6
v -1.1 0.5 1.9
v -1.1 0.4 1.6
v -1.2 0.4 1.6
v -1.2 0.4 1.9
v -1.2 0.3 1.6
v -1.3 0.3 1.6
v -1.3 0.3 1.9
v -1.3 0.2 1.6
v -1.4 0.2 1.6
v -1.4 0.2 1.9
v -1.4 0.1 1.6
v -1.5 0.1 1.6
v -1.5 0.1 1.9
v -0.8 0.6 1.5
v -0.9 0.6 1.5
v -0.9 0.6 1.7
v -0.8 0.6 1.7
v -0.7 0.5 1.4
v -0.8 0.5 1.4
v -0.8 0.5 1.8
v 0 0.1 1.3
v -0.2 0.1 1.3
v 0 0.1 1.6
v -0.2 0.2 1.3
v -0.4 0.2 1.3
v -0.4 0.2 1.7
v -0.2 0.2 1.7
v -0.4 0.3 1.3
v -0.6 0.3 1.3
v -0.6 0.3 1.7
v -0.4 0.3 1.7
v -0.6 0.4 1.3
v -0.7 0.4 1.3
v -0.7 0.4 1.8
v -0.6 0.4 1.8
v -1 0.7 1.3
v -1.1 0.7 1.3
v -1.1 0.7 1.6
v -1.1 0.5 1.3
v -1.2 0.5 1.3
v -1.2 0.5 1.6
v -1.2 0.4 1.3
v -1.3 0.4 1.3
v -1.3 0.4 1.6
v -1.3 0.3 1.3
v -1.4 0.3 1.3
v -1.4 0.3 1.6
v -1.4 0.2 1.3
v -1.5 0.2 1.3
v -1.5 0.2 1.6
v -1.5 0.1 1.3
v -1.6 0.1 1.3
v -1.6 0.1 1.6
v -0.9 0.6 1.2
v -1 0.6 1.2
v -1 0.6 1.6
v -0.9 0.6 1.6
v -1.1 0.7 1.2
v -1.2 0.7 1.2
v -1.2 0.7 1.3
v -0.8 0.5 1.1
v -0.9 0.5 1.1
v -0.9 0.5 1.5
v -0.8 0.5 1.5
v -0.1 0.1 1
v -0.3 0.1 1
v -0.3 0.1 1.3
v -0.1 0.1 1.3
v -0.3 0.2 1
v -0.5 0.2 1
v -0.5 0.2 1.3
v -0.3 0.2 1.3
v -0.5 0.3 1
v -0.7 0.3 1
v -0.7 0.3 1.3
v -0.5 0.3 1.3
v -0.7 0.4 1
v -0.8 0.4 1
v -0.8 0.4 1.4
v -0.7 0.4 1.4
v -1.2 0.5 1
v -1.3 0.5 1
v -1.3 0.5 1.3
v -1.3 0.4 1
v -1.4 0.4 1
v -1.4 0.4 1.3
v -1.4 0.3 1
v -1.5 0.3 1
v -1.5 0.3 1.3
v -1.5 0.2 1
v -1.6 0.2 1
v -1.6 0.2 1.3
v -1.6 0.1 1
v -1.7 0.1 1
v -1.7 0.1 1.3
v -1.1 0.8 0.9
v -1.2 0.8 0.9
v -1.2 0.8 1.2
v -1.1 0.8 1.2
v -1.2 0.7 0.9
v -1.3 0.7 0.9
v -1.3 0.7 1
v -1.2 0.7 1
v -1 0.6 0.7
v -1.1 0.6 0.7
v -1.1 0.6 1.3
v -1 0.6 1.3
v -1.1 0.7 0.7
v -1.2 0.7 0.7
v -1.1 0.7 0.9
v -1.3 0.5 0.7
v -1.4 0.5 0.7
v -1.4 0.5 1
v -1.4 0.4 0.7
v -1.5 0.4 0.7
v -1.5 0.4 1
v -1.5 0.3 0.7
v -1.6 0.3 0.7
v -1.6 0.3 1
v -1.6 0.2 0.7
v -1.7 0.2 0.7
v -1.7 0.2 1
v -1.7 0.1 0.7
v -1.8 0.1 0.7
v -1.8 0.1 1
v -0.9 0.5 0.6
v -1 0.5 0.6
v -1 0.5 1.2
v -0.9 0.5 1.2
v -0.4 0.2 0.5
v -0.6 0.2 0.5
v -0.6 0.2 1
v -0.4 0.2 1
v -0.6 0.3 0.5
v -0.8 0.3 0.5
v -0.8 0.3 1
v -0.6 0.3 1
v -0.8 0.4 0.5
v -0.9 0.4 0.5
v -0.9 0.4 1.1
v -0.8 0.4 1.1
v -1.2 0.8 0.5
v -1.3 0.8 0.5
v -1.3 0.8 0.9
v -1.3 0.7 0.5
v -1.4 0.7 0.5
v -1.4 0.7 0.7
v -1.3 0.7 0.7
v -0.2 0.1 0.4
v -0.4 0.1 0.4
v -0.4 0.1 1
v -0.2 0.1 1
v -1.4 0.5 0.3
v -1.5 0.5 0.3
v -1.5 0.5 0.7
v -1.5 0.4 0.3
v -1.6 0.4 0.3
v -1.6 0.4 0.7
v -1.6 0.3 0.3
v -1.7 0.3 0.3
v -1.7 0.3 0.7
v -1.7 0.2 0.3
v -1.8 0.2 0.3
v -1.8 0.2 0.7
v -1.8 0.1 0.3
v -1.9 0.1 0.3
v -1.9 0.1 0.7
v -1.4 0.7 -0.3
v -1.5 0.7 -0.3
v -1.5 0.7 0.3
v -1.4 0.7 0.3
v -1.5 0.5 -0.3
v -1.6 0.5 -0.3
v -1.6 0.5 0.3
v -1.6 0.4 -0.3
v -1.7 0.4 -0.3
v -1.7 0.4 0.3
v -1.7 0.3 -0.3
v -1.8 0.3 -0.3
v -1.8 0.3 0.3
v -1.8 0.2 -0.3
v -1.9 0.2 -0.3
v -1.9 0.2 0.3
v -1.9 0.1 -0.3
v -2 0.1 -0.3
v -2 0.1 0.3
v -0.4 0.1 -0.5
v -0.5 0.1 -0.5
v -0.5 0.1 0.5
v -0.4 0.1 0.5
v -0.6 0.2 -0.5
v -0.7 0.2 -0.5
v -0.7 0.2 0.5
v -0.8 0.3 -0.5
v -0.9 0.3 -0.5
v -0.9 0.3 0.5
v -1.2 0.7 -0.5
v -1.3 0.7 -0.5
v -1.2 0.7 0.5
v -1.3 0.8 -0.5
v -1.4 0.8 -0.5
v -1.4 0.8 0.5
v -0.9 0.4 -0.6
v -1 0.4 -0.6
v -1 0.4 0.6
v -0.9 0.4 0.6
v -1 0.5 -0.7
v -1.1 0.5 -0.7
v -1.1 0.5 0.7
v -1 0.5 0.7
v -1.1 0.6 -0.7
v -1.2 0.6 -0.7
v -1.2 0.6 0.7
v -1.3 0.7 -0.7
v -1.4 0.7 -0.7
v -1.4 0.7 -0.5
v -1.4 0.5 -0.7
v -1.5 0.5 -0.7
v -1.4 0.5 -0.3
v -1.5 0.4 -0.7
v -1.6 0.4 -0.7
v -1.5 0.4 -0.3
v -1.6 0.3 -0.7
v -1.7 0.3 -0.7
v -1.6 0.3 -0.3
v -1.7 0.2 -0.7
v -1.8 0.2 -0.7
v -1.7 0.2 -0.3
v -1.8 0.1 -0.7
v -1.9 0.1 -0.7
v -1.8 0.1 -0.3
v -1.1 0.7 -0.9
v -1.2 0.7 -0.9
v -1.2 0.7 -0.7
v -1.1 0.7 -0.7
v -1.2 0.8 -0.9
v -1.3 0.8 -0.9
v -1.2 0.8 -0.5
v -0.3 0.1 -1
v -0.4 0.1 -1
v -0.3 0.1 0.4
v -0.5 0.2 -1
v -0.6 0.2 -1
v -0.5 0.2 0.5
v -0.7 0.3 -1
v -0.8 0.3 -1
v -0.7 0.3 0.5
v -1.2 0.7 -1
v -1.3 0.7 -1
v -1.3 0.7 -0.9
v -1.3 0.5 -1
v -1.4 0.5 -1
v -1.3 0.5 -0.7
v -1.4 0.4 -1
v -1.5 0.4 -1
v -1.4 0.4 -0.7
v -1.5 0.3 -1
v -1.6 0.3 -1
v -1.5 0.3 -0.7
v -1.6 0.2 -1
v -1.7 0.2 -1
v -1.6 0.2 -0.7
v -1.7 0.1 -1
v -1.8 0.1 -1
v -1.7 0.1 -0.7
v -0.8 0.4 -1.1
v -0.9 0.4 -1.1
v -0.9 0.4 -0.5
v -0.8 0.4 -0.5
v -0.9 0.5 -1.2
v -1 0.5 -1.2
v -1 0.5 -0.6
v -0.9 0.5 -0.6
v -1.1 0.8 -1.2
v -1.2 0.8 -1.2
v -1.1 0.8 -0.9
v -0.2 0.1 -1.3
v -0.3 0.1 -1.3
v -0.3 0.1 -0.4
v -0.2 0.1 -0.4
v -0.4 0.2 -1.3
v -0.5 0.2 -1.3
v -0.5 0.2 -0.5
v -0.4 0.2 -0.5
v -0.6 0.3 -1.3
v -0.7 0.3 -1.3
v -0.7 0.3 -0.5
v -0.6 0.3 -0.5
v -1 0.6 -1.3
v -1.1 0.6 -1.3
v -1 0.6 -0.7
v -1.1 0.7 -1.3
v -1.2 0.7 -1.3
v -1.2 0.7 -1.2
v -1.1 0.7 -1.2
v -1.2 0.5 -1.3
v -1.3 0.5 -1.3
v -1.2 0.5 -1
v -1.3 0.4 -1.3
v -1.4 0.4 -1.3
v -1.3 0.4 -1
v -1.4 0.3 -1.3
v -1.5 0.3 -1.3
v -1.4 0.3 -1
v -1.5 0.2 -1.3
v -1.6 0.2 -1.3
v -1.5 0.2 -1
v -1.6 0.1 -1.3
v -1.7 0.1 -1.3
v -1.6 0.1 -1
v -0.7 0.4 -1.4
v -0.8 0.4 -1.4
v -0.8 0.4 -1
v -0.7 0.4 -1
v -0.8 0.5 -1.5
v -0.9 0.5 -1.5
v -0.9 0.5 -1.1
v -0.8 0.5 -1.1
v -0.9 0.6 -1.6
v -1 0.6 -1.6
v -1 0.6 -1.2
v -0.9 0.6 -1.2
v -1 0.7 -1.6
v -1.1 0.7 -1.6
v -1 0.7 -1.3
v -1.1 0.5 -1.6
v -1.2 0.5 -1.6
v -1.1 0.5 -1.3
v -1.2 0.4 -1.6
v -1.3 0.4 -1.6
v -1.2 0.4 -1.3
v -1.3 0.3 -1.6
v -1.4 0.3 -1.6
v -1.3 0.3 -1.3
v -1.4 0.2 -1.6
v -1.5 0.2 -1.6
v -1.4 0.2 -1.3
v -1.5 0.1 -1.6
v -1.6 0.1 -1.6
v -1.5 0.1 -1.3
v 0 0.1 -1.7
v -0.1 0.1 -1.7
v -0.1 0.1 -1.3
v 0 0.1 -1.3
v -0.2 0.1 -1.7
v -0.2 0.1 -1
v -0.1 0.1 -1
v -0.3 0.2 -1.7
v -0.4 0.2 -1.7
v -0.4 0.2 -1
v -0.3 0.2 -1
v -0.5 0.3 -1.7
v -0.6 0.3 -1.7
v -0.6 0.3 -1
v -0.5 0.3 -1
v -0.8 0.6 -1.7
v -0.9 0.6 -1.7
v -0.9 0.6 -1.5
v -0.8 0.6 -1.5
v 0.2 0.1 -1.8
v 0 0.1 -1.8
v 0 0.1 -1.6
v 0.2 0.1 -1.6
v -0.6 0.4 -1.8
v -0.7 0.4 -1.8
v -0.7 0.4 -1.3
v -0.6 0.4 -1.3
v -0.7 0.5 -1.8
v -0.8 0.5 -1.8
v -0.8 0.5 -1.4
v -0.7 0.5 -1.4
v -0.9 0.7 -1.8
v -1 0.7 -1.8
v -0.9 0.7 -1.6
v 0.5 0.1 -1.9
v 0.2 0.1 -1.9
v 0.2 0.1 -1.7
v 0.5 0.1 -1.7
v 0 0.2 -1.9
v -0.2 0.2 -1.9
v -0.2 0.2 -1.7
v 0 0.2 -1.7
v -0.3 0.2 -1.9
v -0.3 0.2 -1.3
v -0.2 0.2 -1.3
v -0.4 0.3 -1.9
v -0.5 0.3 -1.9
v -0.5 0.3 -1.3
v -0.4 0.3 -1.3
v -0.6 0.5 -1.9
v -0.7 0.5 -1.9
v -0.6 0.5 -1.8
v -0.7 0.6 -1.9
v -0.8 0.6 -1.9
v -0.8 0.6 -1.8
v -0.7 0.6 -1.8
v -0.8 0.7 -1.9
v -0.9 0.7 -1.9
v -0.9 0.7 -1.7
v -0.8 0.7 -1.7
v -0.9 0.6 -1.9
v -1 0.6 -1.9
v -1 0.6 -1.8
v -0.9 0.6 -1.8
v -1 0.5 -1.9
v -1.1 0.5 -1.9
v -1 0.5 -1.6
v -1.1 0.4 -1.9
v -1.2 0.4 -1.9
v -1.1 0.4 -1.6
v -1.2 0.3 -1.9
v -1.3 0.3 -1.9
v -1.2 0.3 -1.6
v -1.3 0.2 -1.9
v -1.4 0.2 -1.9
v -1.3 0.2 -1.6
v -1.4 0.1 -1.9
v -1.5 0.1 -1.9
v -1.4 0.1 -1.6
v 0.8 0.1 -2
v 0.5 0.1 -2
v 0.5 0.1 -1.8
v 0.8 0.1 -1.8
v 0.4 0.2 -2
v 0.2 0.2 -2
v 0.2 0.2 -1.9
v 0.4 0.2 -1.9
v 0 0.2 -2
v 0 0.2 -1.8
v 0.2 0.2 -1.8
v -0.1 0.3 -2
v -0.3 0.3 -2
v -0.3 0.3 -1.9
v -0.1 0.3 -1.9
v -0.4 0.3 -2
v -0.4 0.3 -1.7
v -0.3 0.3 -1.7
v -0.4 0.4 -2
v -0.5 0.4 -2
v -0.5 0.4 -1.9
v -0.4 0.4 -1.9
v -0.6 0.4 -2
v -0.6 0.4 -1.7
v -0.5 0.4 -1.7
v -0.6 0.6 -2
v -0.7 0.6 -2
v -0.6 0.6 -1.9
v -0.7 0.5 -2
v -1 0.5 -2
v -1 0.4 -2
v -1.1 0.4 -2
v -1 0.4 -1.9
v -1.1 0.3 -2
v -1.2 0.3 -2
v -1.1 0.3 -1.9
v 1.6 0.1 -2.1
v 1 0.1 -2.1
v 1 0.1 -2
v 1.6 0.1 -2
v 0.9 0.1 -2.1
v 0.9 0.1 -1.9
v 1 0.1 -1.9
v 0.8 0.1 -2.1
v 0.9 0.1 -1.8
v 0.7 0.2 -2.1
v 0.5 0.2 -2.1
v 0.5 0.2 -2
v 0.7 0.2 -2
v 0.4 0.2 -2.1
v 0.5 0.2 -1.9
v 0.4 0.3 -2.1
v 0 0.3 -2.1
v 0 0.3 -2
v 0.4 0.3 -2
v -0.1 0.3 -2.1
v 0 0.3 -1.9
v -0.4 0.5 -2.1
v -0.6 0.5 -2.1
v -0.6 0.5 -2
v -0.4 0.5 -2
v -0.6 0.4 -2.1
v -1 0.4 -2.1
v -1 0.3 -2.1
v -1.1 0.3 -2.1
v -1 0.3 -2
v -1.1 0.2 -2.1
v -1.2 0.2 -2.1
v -1.2 0.2 -2
v -1.1 0.2 -2
v -1.3 0.2 -2.1
v -1.2 0.2 -1.9
v -1.3 0.1 -2.1
v -1.4 0.1 -2.1
v -1.3 0.1 -1.9
v 2 0.1 -2.2
v 1.7 0.1 -2.2
v 1.7 0.1 -2.1
v 2 0.1 -2.1
v 1.6 0.2 -2.2
v 0.8 0.2 -2.2
v 0.8 0.2 -2.1
v 1.6 0.2 -2.1
v 0.7 0.2 -2.2
v 0.8 0.2 -2
v 0.4 0.4 -2.2
v -0.1 0.4 -2.2
v -0.1 0.4 -2.1
v 0.4 0.4 -2.1
v -0.4 0.4 -2.2
v -0.1 0.4 -2
v -0.6 0.4 -2.2
v -0.4 0.4 -2.1
v -0.6 0.3 -2.2
v -1 0.3 -2.2
v -0.6 0.3 -2.1
v -1 0.2 -2.2
v -1.1 0.2 -2.2
v -1 0.2 -2.1
v -1.1 0.1 -2.2
v -1.3 0.1 -2.2
v -1.1 0.1 -2.1
v 1.8 0.1 -2.3
v 1.7 0.1 -2.3
v 1.8 0.1 -2.2
v 1.6 0.1 -2.3
v 1.7 0.1 -2
v 1.2 0.1 -2.3
v 1.2 0.1 -2.2
v 1.6 0.1 -2.2
v 1.2 0.2 -2.3
v 0.9 0.2 -2.3
v 0.9 0.2 -2.2
v 1.2 0.2 -2.2
v 0.9 0.3 -2.3
v 0.7 0.3 -2.3
v 0.7 0.3 -2.2
v 0.9 0.3 -2.2
v 0.4 0.3 -2.3
v 0.7 0.3 -2.1
v -0.6 0.3 -2.3
v 0.4 0.3 -2.2
v -0.6 0.2 -2.3
v -1 0.2 -2.3
v -0.6 0.2 -2.2
v -1 0.1 -2.3
v -1.1 0.1 -2.3
v -1 0.1 -2.2
v 1.2 0.1 -2.4
v 0.9 0.1 -2.4
v 0.9 0.1 -2.3
v 0.9 0.2 -2.4
v -0.6 0.2 -2.4
v -0.6 0.1 -2.4
v -1 0.1 -2.4
v -0.6 0.1 -2.3
v 0.9 0.1 -2.5
v -0.6 0.1 -2.5
v 2 0 2.1
v 2 0 2.2
v 1.8 0 2.2
v 1.8 0 2.1
v 1.8 0 2.3
v 1.2 0 2.3
v 1.2 0 2.1
v 1.7 0 2
v 1.7 0 2.1
v 1.2 0 2
v 1.2 0 2.4
v 0.9 0 2.4
v 0.9 0 2
v 1 0 1.9
v 1 0 2
v 0.9 0 1.9
v 0.9 0 1.8
v 0.9 0 2.5
v -0.6 0 2.5
v -0.6 0 1.8
v 0.5 0 1.7
v 0.5 0 1.8
v -0.6 0 1.7
v 0.2 0 1.6
v 0.2 0 1.7
v -0.6 0 1.6
v 0 0 1.3
v 0 0 1.6
v -0.6 0 1.3
v -0.1 0 1
v -0.1 0 1.3
v -0.6 0 1
v -0.2 0 0.4
v -0.2 0 1
v -0.6 0 0.4
v -1.9 0 -0.3
v -1.9 0 0.3
v -2 0 0.3
v -2 0 -0.3
v -1.8 0 -0.7
v -1.8 0 0.7
v -1.9 0 0.7
v -1.9 0 -0.7
v -1.7 0 -1
v -1.7 0 1
v -1.8 0 1
v -1.8 0 -1
v -1.6 0 -1.3
v -1.6 0 1.3
v -1.7 0 1.3
v -1.7 0 -1.3
v -1.5 0 -1.6
v -1.5 0 1.6
v -1.6 0 1.6
v -1.6 0 -1.6
v -1.4 0 -1.9
v -1.4 0 1.9
v -1.5 0 1.9
v -1.5 0 -1.9
v -1.3 0 -2.1
v -1.3 0 2.1
v -1.4 0 2.1
v -1.4 0 -2.1
v 2 0 -2.2
v 2 0 -2.1
v 1.7 0 -2.1
v 1.7 0 -2.2
v -1.1 0 -2.2
v -1.1 0 2.2
v -1.3 0 2.2
v -1.3 0 -2.2
v 1.8 0 -2.3
v 1.8 0 -2.2
v 1.7 0 -2.3
v 1.7 0 -2
v 1 0 -2
v 1 0 -2.3
v -1 0 -2.3
v -1 0 2.3
v -1.1 0 2.3
v -1.1 0 -2.3
v 1.2 0 -2.4
v 1.2 0 -2.3
v 1 0 -2.4
v 1 0 -1.9
v 0.9 0 -1.9
v 0.9 0 -2.4
v -0.6 0 -2.4
v -0.6 0 2.4
v -1 0 2.4
v -1 0 -2.4
v 0.9 0 -2.5
v 0.9 0 -1.8
v 0.5 0 -1.8
v 0.5 0 -2.5
v 0.5 0 -1.7
v 0.2 0 -1.7
v 0.2 0 -2.5
v 0.2 0 -1.6
v 0 0 -1.6
v 0 0 -2.5
v 0 0 -1.3
v -0.1 0 -1.3
v -0.1 0 -2.5
v -0.1 0 -1
v -0.2 0 -1
v -0.2 0 -2.5
v -0.2 0 -0.4
v -0.3 0 -0.4
v -0.3 0 -2.5
v -0.3 0 0.4
v -0.6 0 -2.5
v -1 0.5 -1.8
v -1.4 0.5 -0.5
v -1.3 0.5 -0.9
v -1.2 0.5 -1.2
v -1.4 0.8 -0.3
v -1.3 0.8 -0.7
v -1.2 0.8 -1
v -0.8 0.5 1.7
v -0.8 0.7 1.8
v -1.2 0.6 0.5
v -1.2 0.8 0.7

vt 0.0878906 0.5

vn 0 1 0
vn 0 -1 0
vn -1 0 0
vn 1 0 0
vn 0 0 -1
vn 0 0 1

usemtl palette
f 1/1/1 2/1/1 4/1/1
f 4/1/1 2/1/1 3/1/1
f 5/1/1 6/1/1 7/1/1
f 7/1/1 6/1/1 1/1/1
f 8/1/1 9/1/1 11/1/1
f 11/1/1 9/1/1 10/1/1
f 12/1/1 13/1/1 2/1/1
f 2/1/1 13/1/1 14/1/1
f 15/1/1 16/1/1 17/1/1
f 17/1/1 16/1/1 5/1/1
f 18/1/1 19/1/1 21/1/1
f 21/1/1 19/1/1 20/1/1
f 22/1/1 23/1/1 9/1/1
f 9/1/1 23/1/1 24/1/1
f 25/1/1 26/1/1 13/1/1
f 13/1/1 26/1/1 27/1/1
f 28/1/1 29/1/1 31/1/1
f 31/1/1 29/1/1 30/1/1
f 29/1/1 32/1/1 33/1/1
f 33/1/1 32/1/1 17/1/1
f 34/1/1 35/1/1 37/1/1
f 37/1/1 35/1/1 36/1/1
f 35/1/1 38/1/1 39/1/1
f 39/1/1 38/1/1 8/1/1
f 38/1/1 40/1/1 42/1/1
f 42/1/1 40/1/1 41/1/1
f 43/1/1 44/1/1 46/1/1
f 46/1/1 44/1/1 45/1/1
f 47/1/1 48/1/1 50/1/1
f 50/1/1 48/1/1 49/1/1
f 51/1/1 52/1/1 19/1/1
f 19/1/1 52/1/1 53/1/1
f 54/1/1 55/1/1 23/1/1
f 23/1/1 55/1/1 56/1/1
f 57/1/1 58/1/1 26/1/1
f 26/1/1 58/1/1 59/1/1
f 60/1/1 61/1/1 63/1/1
f 63/1/1 61/1/1 62/1/1
f 64/1/1 65/1/1 67/1/1
f 67/1/1 65/1/1 66/1/1
f 68/1/1 69/1/1 44/1/1
f 44/1/1 69/1/1 70/1/1
f 71/1/1 72/1/1 74/1/1
f 74/1/1 72/1/1 73/1/1
f 75/1/1 76/1/1 78/1/1
f 78/1/1 76/1/1 77/1/1
f 79/1/1 80/1/1 48/1/1
f 48/1/1 80/1/1 81/1/1
f 82/1/1 83/1/1 52/1/1
f 52/1/1 83/1/1 84/1/1
f 85/1/1 86/1/1 55/1/1
f 55/1/1 86/1/1 87/1/1
f 88/1/1 89/1/1 91/1/1
f 91/1/1 89/1/1 90/1/1
f 92/1/1 93/1/1 95/1/1
f 95/1/1 93/1/1 94/1/1
f 96/1/1 97/1/1 99/1/1
f 99/1/1 97/1/1 98/1/1
f 100/1/1 101/1/1 72/1/1
f 72/1/1 101/1/1 79/1/1
f 102/1/1 103/1/1 105/1/1
f 105/1/1 103/1/1 104/1/1
f 106/1/1 107/1/1 109/1/1
f 109/1/1 107/1/1 108/1/1
f 110/1/1 111/1/1 80/1/1
f 80/1/1 111/1/1 112/1/1
f 113/1/1 114/1/1 83/1/1
f 83/1/1 114/1/1 115/1/1
f 116/1/1 117/1/1 118/1/1
f 118/1/1 117/1/1 86/1/1
f 119/1/1 120/1/1 58/1/1
f 58/1/1 120/1/1 121/1/1
f 122/1/1 123/1/1 125/1/1
f 125/1/1 123/1/1 124/1/1
f 126/1/1 127/1/1 129/1/1
f 129/1/1 127/1/1 128/1/1
f 130/1/1 131/1/1 132/1/1
f 132/1/1 131/1/1 106/1/1
f 133/1/1 134/1/1 103/1/1
f 103/1/1 134/1/1 135/1/1
f 136/1/1 137/1/1 139/1/1
f 139/1/1 137/1/1 138/1/1
f 140/1/1 141/1/1 143/1/1
f 143/1/1 141/1/1 142/1/1
f 144/1/1 145/1/1 146/1/1
f 146/1/1 145/1/1 127/1/1
f 147/1/1 148/1/1 150/1/1
f 150/1/1 148/1/1 149/1/1
f 151/1/1 152/1/1 153/1/1
f 153/1/1 152/1/1 101/1/1
f 154/1/1 155/1/1 157/1/1
f 157/1/1 155/1/1 156/1/1
f 158/1/1 159/1/1 161/1/1
f 161/1/1 159/1/1 160/1/1
f 162/1/1 163/1/1 165/1/1
f 165/1/1 163/1/1 164/1/1
f 166/1/1 167/1/1 107/1/1
f 107/1/1 167/1/1 168/1/1
f 169/1/1 170/1/1 111/1/1
f 111/1/1 170/1/1 171/1/1
f 172/1/1 173/1/1 114/1/1
f 114/1/1 173/1/1 174/1/1
f 175/1/1 176/1/1 117/1/1
f 117/1/1 176/1/1 177/1/1
f 178/1/1 179/1/1 120/1/1
f 120/1/1 179/1/1 180/1/1
f 181/1/1 182/1/1 184/1/1
f 184/1/1 182/1/1 183/1/1
f 185/1/1 186/1/1 131/1/1
f 131/1/1 186/1/1 187/1/1
f 188/1/1 189/1/1 190/1/1
f 190/1/1 189/1/1 159/1/1
f 191/1/1 192/1/1 194/1/1
f 194/1/1 192/1/1 193/1/1
f 195/1/1 196/1/1 198/1/1
f 198/1/1 196/1/1 197/1/1
f 199/1/1 200/1/1 202/1/1
f 202/1/1 200/1/1 201/1/1
f 203/1/1 204/1/1 163/1/1
f 163/1/1 204/1/1 205/1/1
f 206/1/1 207/1/1 167/1/1
f 167/1/1 207/1/1 208/1/1
f 209/1/1 210/1/1 170/1/1
f 170/1/1 210/1/1 211/1/1
f 212/1/1 213/1/1 173/1/1
f 173/1/1 213/1/1 214/1/1
f 215/1/1 216/1/1 176/1/1
f 176/1/1 216/1/1 217/1/1
f 218/1/1 219/1/1 179/1/1
f 179/1/1 219/1/1 220/1/1
f 221/1/1 222/1/1 224/1/1
f 224/1/1 222/1/1 223/1/1
f 225/1/1 226/1/1 204/1/1
f 204/1/1 226/1/1 227/1/1
f 228/1/1 229/1/1 231/1/1
f 231/1/1 229/1/1 230/1/1
f 232/1/1 233/1/1 235/1/1
f 235/1/1 233/1/1 234/1/1
f 236/1/1 237/1/1 239/1/1
f 239/1/1 237/1/1 238/1/1
f 240/1/1 241/1/1 243/1/1
f 243/1/1 241/1/1 242/1/1
f 244/1/1 245/1/1 247/1/1
f 247/1/1 245/1/1 246/1/1
f 248/1/1 249/1/1 207/1/1
f 207/1/1 249/1/1 250/1/1
f 251/1/1 252/1/1 210/1/1
f 210/1/1 252/1/1 253/1/1
f 254/1/1 255/1/1 213/1/1
f 213/1/1 255/1/1 256/1/1
f 257/1/1 258/1/1 216/1/1
f 216/1/1 258/1/1 259/1/1
f 260/1/1 261/1/1 219/1/1
f 219/1/1 261/1/1 262/1/1
f 263/1/1 264/1/1 266/1/1
f 266/1/1 264/1/1 265/1/1
f 267/1/1 268/1/1 270/1/1
f 270/1/1 268/1/1 269/1/1
f 271/1/1 272/1/1 274/1/1
f 274/1/1 272/1/1 273/1/1
f 275/1/1 276/1/1 277/1/1
f 277/1/1 276/1/1 267/1/1
f 278/1/1 279/1/1 249/1/1
f 249/1/1 279/1/1 280/1/1
f 281/1/1 282/1/1 252/1/1
f 252/1/1 282/1/1 283/1/1
f 284/1/1 285/1/1 255/1/1
f 255/1/1 285/1/1 286/1/1
f 287/1/1 288/1/1 258/1/1
f 258/1/1 288/1/1 289/1/1
f 290/1/1 291/1/1 261/1/1
f 261/1/1 291/1/1 292/1/1
f 293/1/1 294/1/1 296/1/1
f 296/1/1 294/1/1 295/1/1
f 297/1/1 298/1/1 300/1/1
f 300/1/1 298/1/1 299/1/1
f 301/1/1 302/1/1 304/1/1
f 304/1/1 302/1/1 303/1/1
f 305/1/1 306/1/1 308/1/1
f 308/1/1 306/1/1 307/1/1
f 309/1/1 310/1/1 264/1/1
f 264/1/1 310/1/1 311/1/1
f 312/1/1 313/1/1 315/1/1
f 315/1/1 313/1/1 314/1/1
f 316/1/1 317/1/1 319/1/1
f 319/1/1 317/1/1 318/1/1
f 320/1/1 321/1/1 279/1/1
f 279/1/1 321/1/1 322/1/1
f 323/1/1 324/1/1 282/1/1
f 282/1/1 324/1/1 325/1/1
f 326/1/1 327/1/1 285/1/1
f 285/1/1 327/1/1 328/1/1
f 329/1/1 330/1/1 288/1/1
f 288/1/1 330/1/1 331/1/1
f 332/1/1 333/1/1 291/1/1
f 291/1/1 333/1/1 334/1/1
f 335/1/1 336/1/1 338/1/1
f 338/1/1 336/1/1 337/1/1
f 339/1/1 340/1/1 321/1/1
f 321/1/1 340/1/1 341/1/1
f 342/1/1 343/1/1 324/1/1
f 324/1/1 343/1/1 344/1/1
f 345/1/1 346/1/1 327/1/1
f 327/1/1 346/1/1 347/1/1
f 348/1/1 349/1/1 330/1/1
f 330/1/1 349/1/1 350/1/1
f 351/1/1 352/1/1 333/1/1
f 333/1/1 352/1/1 353/1/1
f 354/1/1 355/1/1 357/1/1
f 357/1/1 355/1/1 356/1/1
f 358/1/1 359/1/1 298/1/1
f 298/1/1 359/1/1 360/1/1
f 361/1/1 362/1/1 302/1/1
f 302/1/1 362/1/1 363/1/1
f 364/1/1 365/1/1 366/1/1
f 366/1/1 365/1/1 312/1/1
f 367/1/1 368/1/1 310/1/1
f 310/1/1 368/1/1 369/1/1
f 370/1/1 371/1/1 373/1/1
f 373/1/1 371/1/1 372/1/1
f 374/1/1 375/1/1 377/1/1
f 377/1/1 375/1/1 376/1/1
f 378/1/1 379/1/1 272/1/1
f 272/1/1 379/1/1 380/1/1
f 381/1/1 382/1/1 365/1/1
f 365/1/1 382/1/1 383/1/1
f 384/1/1 385/1/1 386/1/1
f 386/1/1 385/1/1 339/1/1
f 387/1/1 388/1/1 389/1/1
f 389/1/1 388/1/1 342/1/1
f 390/1/1 391/1/1 392/1/1
f 392/1/1 391/1/1 345/1/1
f 393/1/1 394/1/1 395/1/1
f 395/1/1 394/1/1 348/1/1
f 396/1/1 397/1/1 398/1/1
f 398/1/1 397/1/1 351/1/1
f 399/1/1 400/1/1 402/1/1
f 402/1/1 400/1/1 401/1/1
f 403/1/1 404/1/1 405/1/1
f 405/1/1 404/1/1 367/1/1
f 406/1/1 407/1/1 408/1/1
f 408/1/1 407/1/1 317/1/1
f 409/1/1 410/1/1 411/1/1
f 411/1/1 410/1/1 298/1/1
f 412/1/1 413/1/1 414/1/1
f 414/1/1 413/1/1 302/1/1
f 415/1/1 416/1/1 400/1/1
f 400/1/1 416/1/1 417/1/1
f 418/1/1 419/1/1 420/1/1
f 420/1/1 419/1/1 384/1/1
f 421/1/1 422/1/1 423/1/1
f 423/1/1 422/1/1 387/1/1
f 424/1/1 425/1/1 426/1/1
f 426/1/1 425/1/1 390/1/1
f 427/1/1 428/1/1 429/1/1
f 429/1/1 428/1/1 393/1/1
f 430/1/1 431/1/1 432/1/1
f 432/1/1 431/1/1 396/1/1
f 433/1/1 434/1/1 436/1/1
f 436/1/1 434/1/1 435/1/1
f 437/1/1 438/1/1 440/1/1
f 440/1/1 438/1/1 439/1/1
f 441/1/1 442/1/1 443/1/1
f 443/1/1 442/1/1 403/1/1
f 444/1/1 445/1/1 447/1/1
f 447/1/1 445/1/1 446/1/1
f 448/1/1 449/1/1 451/1/1
f 451/1/1 449/1/1 450/1/1
f 452/1/1 453/1/1 455/1/1
f 455/1/1 453/1/1 454/1/1
f 456/1/1 457/1/1 458/1/1
f 458/1/1 457/1/1 378/1/1
f 459/1/1 460/1/1 462/1/1
f 462/1/1 460/1/1 461/1/1
f 463/1/1 464/1/1 465/1/1
f 465/1/1 464/1/1 418/1/1
f 466/1/1 467/1/1 468/1/1
f 468/1/1 467/1/1 421/1/1
f 469/1/1 470/1/1 471/1/1
f 471/1/1 470/1/1 424/1/1
f 472/1/1 473/1/1 474/1/1
f 474/1/1 473/1/1 427/1/1
f 475/1/1 476/1/1 477/1/1
f 477/1/1 476/1/1 430/1/1
f 478/1/1 479/1/1 481/1/1
f 481/1/1 479/1/1 480/1/1
f 482/1/1 483/1/1 485/1/1
f 485/1/1 483/1/1 484/1/1
f 486/1/1 487/1/1 489/1/1
f 489/1/1 487/1/1 488/1/1
f 490/1/1 491/1/1 492/1/1
f 492/1/1 491/1/1 459/1/1
f 493/1/1 494/1/1 495/1/1
f 495/1/1 494/1/1 463/1/1
f 496/1/1 497/1/1 498/1/1
f 498/1/1 497/1/1 466/1/1
f 499/1/1 500/1/1 501/1/1
f 501/1/1 500/1/1 469/1/1
f 502/1/1 503/1/1 504/1/1
f 504/1/1 503/1/1 472/1/1
f 505/1/1 506/1/1 507/1/1
f 507/1/1 506/1/1 475/1/1
f 508/1/1 509/1/1 511/1/1
f 511/1/1 509/1/1 510/1/1
f 509/1/1 512/1/1 514/1/1
f 514/1/1 512/1/1 513/1/1
f 515/1/1 516/1/1 518/1/1
f 518/1/1 516/1/1 517/1/1
f 519/1/1 520/1/1 522/1/1
f 522/1/1 520/1/1 521/1/1
f 523/1/1 524/1/1 526/1/1
f 526/1/1 524/1/1 525/1/1
f 527/1/1 528/1/1 530/1/1
f 530/1/1 528/1/1 529/1/1
f 531/1/1 532/1/1 534/1/1
f 534/1/1 532/1/1 533/1/1
f 535/1/1 536/1/1 538/1/1
f 538/1/1 536/1/1 537/1/1
f 539/1/1 540/1/1 541/1/1
f 541/1/1 540/1/1 490/1/1
f 542/1/1 543/1/1 545/1/1
f 545/1/1 543/1/1 544/1/1
f 546/1/1 547/1/1 549/1/1
f 549/1/1 547/1/1 548/1/1
f 547/1/1 550/1/1 552/1/1
f 552/1/1 550/1/1 551/1/1
f 553/1/1 554/1/1 556/1/1
f 556/1/1 554/1/1 555/1/1
f 557/1/1 558/1/1 559/1/1
f 559/1/1 558/1/1 535/1/1
f 560/1/1 561/1/1 563/1/1
f 563/1/1 561/1/1 562/1/1
f 564/1/1 565/1/1 567/1/1
f 567/1/1 565/1/1 566/1/1
f 568/1/1 569/1/1 571/1/1
f 571/1/1 569/1/1 570/1/1
f 572/1/1 573/1/1 574/1/1
f 574/1/1 573/1/1 493/1/1
f 575/1/1 576/1/1 577/1/1
f 577/1/1 576/1/1 496/1/1
f 578/1/1 579/1/1 580/1/1
f 580/1/1 579/1/1 499/1/1
f 581/1/1 582/1/1 583/1/1
f 583/1/1 582/1/1 502/1/1
f 584/1/1 585/1/1 586/1/1
f 586/1/1 585/1/1 505/1/1
f 587/1/1 588/1/1 590/1/1
f 590/1/1 588/1/1 589/1/1
f 591/1/1 592/1/1 594/1/1
f 594/1/1 592/1/1 593/1/1
f 592/1/1 595/1/1 597/1/1
f 597/1/1 595/1/1 596/1/1
f 598/1/1 599/1/1 601/1/1
f 601/1/1 599/1/1 600/1/1
f 599/1/1 602/1/1 604/1/1
f 604/1/1 602/1/1 603/1/1
f 605/1/1 606/1/1 608/1/1
f 608/1/1 606/1/1 607/1/1
f 606/1/1 609/1/1 611/1/1
f 611/1/1 609/1/1 610/1/1
f 612/1/1 613/1/1 614/1/1
f 614/1/1 613/1/1 560/1/1
f 615/1/1 616/1/1 558/1/1
f 558/1/1 616/1/1 572/1/1
f 617/1/1 618/1/1 619/1/1
f 619/1/1 618/1/1 575/1/1
f 620/1/1 621/1/1 622/1/1
f 622/1/1 621/1/1 578/1/1
f 623/1/1 624/1/1 626/1/1
f 626/1/1 624/1/1 625/1/1
f 624/1/1 627/1/1 629/1/1
f 629/1/1 627/1/1 628/1/1
f 627/1/1 630/1/1 631/1/1
f 631/1/1 630/1/1 590/1/1
f 632/1/1 633/1/1 635/1/1
f 635/1/1 633/1/1 634/1/1
f 633/1/1 636/1/1 637/1/1
f 637/1/1 636/1/1 594/1/1
f 638/1/1 639/1/1 641/1/1
f 641/1/1 639/1/1 640/1/1
f 639/1/1 642/1/1 643/1/1
f 643/1/1 642/1/1 601/1/1
f 644/1/1 645/1/1 647/1/1
f 647/1/1 645/1/1 646/1/1
f 648/1/1 649/1/1 609/1/1
f 609/1/1 649/1/1 617/1/1
f 650/1/1 651/1/1 652/1/1
f 652/1/1 651/1/1 620/1/1
f 653/1/1 654/1/1 656/1/1
f 656/1/1 654/1/1 655/1/1
f 654/1/1 657/1/1 658/1/1
f 658/1/1 657/1/1 581/1/1
f 659/1/1 660/1/1 661/1/1
f 661/1/1 660/1/1 584/1/1
f 662/1/1 663/1/1 665/1/1
f 665/1/1 663/1/1 664/1/1
f 666/1/1 667/1/1 669/1/1
f 669/1/1 667/1/1 668/1/1
f 667/1/1 670/1/1 671/1/1
f 671/1/1 670/1/1 635/1/1
f 672/1/1 673/1/1 675/1/1
f 675/1/1 673/1/1 674/1/1
f 673/1/1 676/1/1 677/1/1
f 677/1/1 676/1/1 605/1/1
f 676/1/1 678/1/1 679/1/1
f 679/1/1 678/1/1 648/1/1
f 680/1/1 681/1/1 682/1/1
f 682/1/1 681/1/1 650/1/1
f 683/1/1 684/1/1 685/1/1
f 685/1/1 684/1/1 653/1/1
f 686/1/1 687/1/1 688/1/1
f 688/1/1 687/1/1 659/1/1
f 689/1/1 690/1/1 691/1/1
f 691/1/1 690/1/1 663/1/1
f 690/1/1 692/1/1 693/1/1
f 693/1/1 692/1/1 626/1/1
f 692/1/1 694/1/1 696/1/1
f 696/1/1 694/1/1 695/1/1
f 697/1/1 698/1/1 700/1/1
f 700/1/1 698/1/1 699/1/1
f 701/1/1 702/1/1 704/1/1
f 704/1/1 702/1/1 703/1/1
f 702/1/1 705/1/1 706/1/1
f 706/1/1 705/1/1 638/1/1
f 705/1/1 707/1/1 708/1/1
f 708/1/1 707/1/1 680/1/1
f 709/1/1 710/1/1 711/1/1
f 711/1/1 710/1/1 683/1/1
f 712/1/1 713/1/1 714/1/1
f 714/1/1 713/1/1 686/1/1
f 715/1/1 716/1/1 694/1/1
f 694/1/1 716/1/1 717/1/1
f 718/1/1 719/1/1 698/1/1
f 698/1/1 719/1/1 709/1/1
f 720/1/1 721/1/1 722/1/1
f 722/1/1 721/1/1 712/1/1
f 723/1/1 724/1/1 716/1/1
f 716/1/1 724/1/1 720/1/1
f 725/1/2 726/1/2 728/1/2
f 728/1/2 726/1/2 727/1/2
f 728/1/2 729/1/2 731/1/2
f 731/1/2 729/1/2 730/1/2
f 732/1/2 733/1/2 734/1/2
f 734/1/2 733/1/2 731/1/2
f 734/1/2 735/1/2 737/1/2
f 737/1/2 735/1/2 736/1/2
f 738/1/2 739/1/2 740/1/2
f 740/1/2 739/1/2 737/1/2
f 741/1/2 742/1/2 744/1/2
f 744/1/2 742/1/2 743/1/2
f 745/1/2 746/1/2 747/1/2
f 747/1/2 746/1/2 744/1/2
f 748/1/2 749/1/2 750/1/2
f 750/1/2 749/1/2 747/1/2
f 751/1/2 752/1/2 753/1/2
f 753/1/2 752/1/2 750/1/2
f 754/1/2 755/1/2 756/1/2
f 756/1/2 755/1/2 753/1/2
f 757/1/2 758/1/2 759/1/2
f 759/1/2 758/1/2 756/1/2
f 760/1/2 761/1/2 763/1/2
f 763/1/2 761/1/2 762/1/2
f 764/1/2 765/1/2 767/1/2
f 767/1/2 765/1/2 766/1/2
f 768/1/2 769/1/2 771/1/2
f 771/1/2 769/1/2 770/1/2
f 772/1/2 773/1/2 775/1/2
f 775/1/2 773/1/2 774/1/2
f 776/1/2 777/1/2 779/1/2
f 779/1/2 777/1/2 778/1/2
f 780/1/2 781/1/2 783/1/2
f 783/1/2 781/1/2 782/1/2
f 784/1/2 785/1/2 787/1/2
f 787/1/2 785/1/2 786/1/2
f 788/1/2 789/1/2 791/1/2
f 791/1/2 789/1/2 790/1/2
f 792/1/2 793/1/2 795/1/2
f 795/1/2 793/1/2 794/1/2
f 796/1/2 797/1/2 798/1/2
f 798/1/2 797/1/2 791/1/2
f 798/1/2 799/1/2 801/1/2
f 801/1/2 799/1/2 800/1/2
f 802/1/2 803/1/2 805/1/2
f 805/1/2 803/1/2 804/1/2
f 806/1/2 807/1/2 808/1/2
f 808/1/2 807/1/2 801/1/2
f 808/1/2 809/1/2 811/1/2
f 811/1/2 809/1/2 810/1/2
f 812/1/2 813/1/2 815/1/2
f 815/1/2 813/1/2 814/1/2
f 816/1/2 817/1/2 819/1/2
f 819/1/2 817/1/2 818/1/2
f 819/1/2 820/1/2 822/1/2
f 822/1/2 820/1/2 821/1/2
f 822/1/2 823/1/2 825/1/2
f 825/1/2 823/1/2 824/1/2
f 825/1/2 826/1/2 828/1/2
f 828/1/2 826/1/2 827/1/2
f 828/1/2 829/1/2 831/1/2
f 831/1/2 829/1/2 830/1/2
f 831/1/2 832/1/2 834/1/2
f 834/1/2 832/1/2 833/1/2
f 834/1/2 835/1/2 836/1/2
f 836/1/2 835/1/2 759/1/2
f 3/1/3 2/1/3 743/1/3
f 743/1/3 2/1/3 813/1/3
f 14/1/3 13/1/3 814/1/3
f 814/1/3 13/1/3 803/1/3
f 27/1/3 26/1/3 804/1/3
f 804/1/3 26/1/3 793/1/3
f 59/1/3 58/1/3 794/1/3
f 794/1/3 58/1/3 785/1/3
f 121/1/3 120/1/3 786/1/3
f 786/1/3 120/1/3 781/1/3
f 180/1/3 179/1/3 782/1/3
f 782/1/3 179/1/3 777/1/3
f 220/1/3 219/1/3 778/1/3
f 778/1/3 219/1/3 773/1/3
f 262/1/3 261/1/3 774/1/3
f 774/1/3 261/1/3 769/1/3
f 292/1/3 291/1/3 770/1/3
f 770/1/3 291/1/3 765/1/3
f 334/1/3 333/1/3 766/1/3
f 766/1/3 333/1/3 761/1/3
f 353/1/3 352/1/3 762/1/3
f 762/1/3 352/1/3 763/1/3
f 351/1/3 397/1/3 760/1/3
f 760/1/3 397/1/3 767/1/3
f 396/1/3 431/1/3 764/1/3
f 764/1/3 431/1/3 771/1/3
f 430/1/3 476/1/3 768/1/3
f 768/1/3 476/1/3 775/1/3
f 475/1/3 506/1/3 772/1/3
f 772/1/3 506/1/3 779/1/3
f 505/1/3 585/1/3 776/1/3
f 776/1/3 585/1/3 783/1/3
f 584/1/3 660/1/3 780/1/3
f 780/1/3 660/1/3 787/1/3
f 659/1/3 687/1/3 784/1/3
f 784/1/3 687/1/3 795/1/3
f 686/1/3 713/1/3 792/1/3
f 792/1/3 713/1/3 805/1/3
f 712/1/3 721/1/3 802/1/3
f 802/1/3 721/1/3 815/1/3
f 720/1/3 724/1/3 812/1/3
f 812/1/3 724/1/3 836/1/3
f 10/1/3 9/1/3 2/1/3
f 2/1/3 9/1/3 12/1/3
f 24/1/3 23/1/3 13/1/3
f 13/1/3 23/1/3 25/1/3
f 56/1/3 55/1/3 26/1/3
f 26/1/3 55/1/3 57/1/3
f 87/1/3 117/1/3 58/1/3
f 58/1/3 117/1/3 119/1/3
f 177/1/3 176/1/3 120/1/3
f 120/1/3 176/1/3 178/1/3
f 217/1/3 216/1/3 179/1/3
f 179/1/3 216/1/3 218/1/3
f 259/1/3 258/1/3 219/1/3
f 219/1/3 258/1/3 260/1/3
f 289/1/3 288/1/3 261/1/3
f 261/1/3 288/1/3 290/1/3
f 331/1/3 330/1/3 291/1/3
f 291/1/3 330/1/3 332/1/3
f 350/1/3 349/1/3 333/1/3
f 333/1/3 349/1/3 351/1/3
f 348/1/3 394/1/3 398/1/3
f 398/1/3 394/1/3 396/1/3
f 393/1/3 428/1/3 432/1/3
f 432/1/3 428/1/3 430/1/3
f 427/1/3 473/1/3 477/1/3
f 477/1/3 473/1/3 475/1/3
f 472/1/3 503/1/3 507/1/3
f 507/1/3 503/1/3 505/1/3
f 502/1/3 582/1/3 586/1/3
f 586/1/3 582/1/3 584/1/3
f 581/1/3 657/1/3 661/1/3
f 661/1/3 657/1/3 659/1/3
f 653/1/3 684/1/3 688/1/3
f 688/1/3 684/1/3 686/1/3
f 683/1/3 710/1/3 714/1/3
f 714/1/3 710/1/3 712/1/3
f 709/1/3 719/1/3 722/1/3
f 722/1/3 719/1/3 720/1/3
f 20/1/3 19/1/3 9/1/3
f 9/1/3 19/1/3 22/1/3
f 53/1/3 52/1/3 23/1/3
f 23/1/3 52/1/3 54/1/3
f 84/1/3 83/1/3 55/1/3
f 55/1/3 83/1/3 85/1/3
f 115/1/3 114/1/3 118/1/3
f 118/1/3 114/1/3 116/1/3
f 174/1/3 173/1/3 117/1/3
f 117/1/3 173/1/3 175/1/3
f 214/1/3 213/1/3 176/1/3
f 176/1/3 213/1/3 215/1/3
f 256/1/3 255/1/3 216/1/3
f 216/1/3 255/1/3 257/1/3
f 286/1/3 285/1/3 258/1/3
f 258/1/3 285/1/3 287/1/3
f 328/1/3 327/1/3 288/1/3
f 288/1/3 327/1/3 329/1/3
f 347/1/3 346/1/3 330/1/3
f 330/1/3 346/1/3 348/1/3
f 345/1/3 391/1/3 395/1/3
f 395/1/3 391/1/3 393/1/3
f 390/1/3 425/1/3 429/1/3
f 429/1/3 425/1/3 427/1/3
f 424/1/3 470/1/3 474/1/3
f 474/1/3 470/1/3 472/1/3
f 469/1/3 500/1/3 504/1/3
f 504/1/3 500/1/3 502/1/3
f 499/1/3 579/1/3 583/1/3
f 583/1/3 579/1/3 581/1/3
f 578/1/3 621/1/3 658/1/3
f 658/1/3 621/1/3 655/1/3
f 620/1/3 651/1/3 656/1/3
f 656/1/3 651/1/3 653/1/3
f 650/1/3 681/1/3 685/1/3
f 685/1/3 681/1/3 683/1/3
f 680/1/3 707/1/3 711/1/3
f 711/1/3 707/1/3 709/1/3
f 49/1/3 48/1/3 19/1/3
f 19/1/3 48/1/3 51/1/3
f 81/1/3 80/1/3 52/1/3
f 52/1/3 80/1/3 82/1/3
f 112/1/3 111/1/3 83/1/3
f 83/1/3 111/1/3 113/1/3
f 171/1/3 170/1/3 114/1/3
f 114/1/3 170/1/3 172/1/3
f 211/1/3 210/1/3 173/1/3
f 173/1/3 210/1/3 212/1/3
f 253/1/3 252/1/3 213/1/3
f 213/1/3 252/1/3 254/1/3
f 283/1/3 282/1/3 255/1/3
f 255/1/3 282/1/3 284/1/3
f 325/1/3 324/1/3 285/1/3
f 285/1/3 324/1/3 326/1/3
f 344/1/3 343/1/3 327/1/3
f 327/1/3 343/1/3 345/1/3
f 342/1/3 388/1/3 392/1/3
f 392/1/3 388/1/3 390/1/3
f 387/1/3 422/1/3 426/1/3
f 426/1/3 422/1/3 424/1/3
f 421/1/3 467/1/3 471/1/3
f 471/1/3 467/1/3 469/1/3
f 466/1/3 497/1/3 501/1/3
f 501/1/3 497/1/3 499/1/3
f 496/1/3 576/1/3 580/1/3
f 580/1/3 576/1/3 578/1/3
f 575/1/3 618/1/3 622/1/3
f 622/1/3 618/1/3 620/1/3
f 617/1/3 649/1/3 652/1/3
f 652/1/3 649/1/3 650/1/3
f 648/1/3 678/1/3 682/1/3
f 682/1/3 678/1/3 680/1/3
f 77/1/3 76/1/3 48/1/3
f 48/1/3 76/1/3 79/1/3
f 108/1/3 107/1/3 80/1/3
f 80/1/3 107/1/3 110/1/3
f 168/1/3 167/1/3 111/1/3
f 111/1/3 167/1/3 169/1/3
f 208/1/3 207/1/3 170/1/3
f 170/1/3 207/1/3 209/1/3
f 250/1/3 249/1/3 210/1/3
f 210/1/3 249/1/3 251/1/3
f 280/1/3 279/1/3 252/1/3
f 252/1/3 279/1/3 281/1/3
f 322/1/3 321/1/3 282/1/3
f 282/1/3 321/1/3 323/1/3
f 341/1/3 340/1/3 324/1/3
f 324/1/3 340/1/3 342/1/3
f 339/1/3 385/1/3 389/1/3
f 389/1/3 385/1/3 387/1/3
f 384/1/3 419/1/3 423/1/3
f 423/1/3 419/1/3 421/1/3
f 418/1/3 464/1/3 468/1/3
f 468/1/3 464/1/3 466/1/3
f 463/1/3 494/1/3 498/1/3
f 498/1/3 494/1/3 496/1/3
f 493/1/3 573/1/3 577/1/3
f 577/1/3 573/1/3 575/1/3
f 572/1/3 616/1/3 619/1/3
f 619/1/3 616/1/3 617/1/3
f 646/1/3 645/1/3 609/1/3
f 609/1/3 645/1/3 648/1/3
f 104/1/3 103/1/3 109/1/3
f 109/1/3 103/1/3 106/1/3
f 138/1/3 223/1/3 107/1/3
f 107/1/3 223/1/3 166/1/3
f 570/1/3 569/1/3 837/1/3
f 837/1/3 569/1/3 572/1/3
f 560/1/3 613/1/3 558/1/3
f 558/1/3 613/1/3 615/1/3
f 156/1/3 165/1/3 139/1/3
f 139/1/3 165/1/3 136/1/3
f 164/1/3 163/1/3 137/1/3
f 137/1/3 163/1/3 223/1/3
f 205/1/3 204/1/3 167/1/3
f 167/1/3 204/1/3 206/1/3
f 227/1/3 270/1/3 207/1/3
f 207/1/3 270/1/3 248/1/3
f 269/1/3 315/1/3 249/1/3
f 249/1/3 315/1/3 278/1/3
f 314/1/3 338/1/3 279/1/3
f 279/1/3 338/1/3 320/1/3
f 337/1/3 336/1/3 321/1/3
f 321/1/3 336/1/3 339/1/3
f 383/1/3 382/1/3 838/1/3
f 838/1/3 382/1/3 384/1/3
f 417/1/3 416/1/3 839/1/3
f 839/1/3 416/1/3 418/1/3
f 461/1/3 460/1/3 840/1/3
f 840/1/3 460/1/3 463/1/3
f 459/1/3 491/1/3 495/1/3
f 495/1/3 491/1/3 493/1/3
f 490/1/3 540/1/3 574/1/3
f 574/1/3 540/1/3 837/1/3
f 539/1/3 565/1/3 571/1/3
f 571/1/3 565/1/3 568/1/3
f 265/1/3 264/1/3 226/1/3
f 226/1/3 264/1/3 267/1/3
f 311/1/3 310/1/3 268/1/3
f 268/1/3 310/1/3 312/1/3
f 369/1/3 841/1/3 313/1/3
f 313/1/3 841/1/3 335/1/3
f 841/1/3 368/1/3 386/1/3
f 386/1/3 368/1/3 838/1/3
f 367/1/3 842/1/3 365/1/3
f 365/1/3 842/1/3 381/1/3
f 842/1/3 404/1/3 420/1/3
f 420/1/3 404/1/3 839/1/3
f 403/1/3 843/1/3 400/1/3
f 400/1/3 843/1/3 415/1/3
f 843/1/3 442/1/3 465/1/3
f 465/1/3 442/1/3 840/1/3
f 4/1/4 742/1/4 1/1/4
f 1/1/4 742/1/4 736/1/4
f 7/1/4 735/1/4 5/1/4
f 5/1/4 735/1/4 730/1/4
f 33/1/4 729/1/4 30/1/4
f 30/1/4 729/1/4 727/1/4
f 31/1/4 726/1/4 28/1/4
f 28/1/4 726/1/4 725/1/4
f 63/1/4 733/1/4 60/1/4
f 60/1/4 733/1/4 732/1/4
f 91/1/4 739/1/4 88/1/4
f 88/1/4 739/1/4 738/1/4
f 125/1/4 740/1/4 122/1/4
f 122/1/4 740/1/4 741/1/4
f 143/1/4 746/1/4 140/1/4
f 140/1/4 746/1/4 745/1/4
f 161/1/4 749/1/4 158/1/4
f 158/1/4 749/1/4 748/1/4
f 190/1/4 752/1/4 188/1/4
f 188/1/4 752/1/4 751/1/4
f 235/1/4 755/1/4 232/1/4
f 232/1/4 755/1/4 754/1/4
f 319/1/4 758/1/4 316/1/4
f 316/1/4 758/1/4 757/1/4
f 408/1/4 835/1/4 446/1/4
f 446/1/4 835/1/4 833/1/4
f 447/1/4 832/1/4 513/1/4
f 513/1/4 832/1/4 830/1/4
f 514/1/4 829/1/4 510/1/4
f 510/1/4 829/1/4 827/1/4
f 511/1/4 826/1/4 529/1/4
f 529/1/4 826/1/4 824/1/4
f 530/1/4 823/1/4 544/1/4
f 544/1/4 823/1/4 821/1/4
f 545/1/4 820/1/4 589/1/4
f 589/1/4 820/1/4 818/1/4
f 631/1/4 817/1/4 628/1/4
f 628/1/4 817/1/4 810/1/4
f 629/1/4 809/1/4 625/1/4
f 625/1/4 809/1/4 800/1/4
f 693/1/4 799/1/4 664/1/4
f 664/1/4 799/1/4 790/1/4
f 665/1/4 789/1/4 662/1/4
f 662/1/4 789/1/4 788/1/4
f 691/1/4 797/1/4 689/1/4
f 689/1/4 797/1/4 796/1/4
f 694/1/4 807/1/4 715/1/4
f 715/1/4 807/1/4 806/1/4
f 716/1/4 811/1/4 723/1/4
f 723/1/4 811/1/4 816/1/4
f 11/1/4 1/1/4 8/1/4
f 8/1/4 1/1/4 6/1/4
f 39/1/4 5/1/4 36/1/4
f 36/1/4 5/1/4 16/1/4
f 37/1/4 15/1/4 34/1/4
f 34/1/4 15/1/4 32/1/4
f 67/1/4 62/1/4 64/1/4
f 64/1/4 62/1/4 61/1/4
f 95/1/4 90/1/4 92/1/4
f 92/1/4 90/1/4 89/1/4
f 129/1/4 124/1/4 126/1/4
f 126/1/4 124/1/4 123/1/4
f 146/1/4 142/1/4 144/1/4
f 144/1/4 142/1/4 141/1/4
f 194/1/4 160/1/4 191/1/4
f 191/1/4 160/1/4 189/1/4
f 239/1/4 234/1/4 236/1/4
f 236/1/4 234/1/4 233/1/4
f 300/1/4 318/1/4 297/1/4
f 297/1/4 318/1/4 357/1/4
f 411/1/4 356/1/4 450/1/4
f 450/1/4 356/1/4 355/1/4
f 451/1/4 354/1/4 517/1/4
f 517/1/4 354/1/4 407/1/4
f 518/1/4 406/1/4 551/1/4
f 551/1/4 406/1/4 445/1/4
f 552/1/4 444/1/4 548/1/4
f 548/1/4 444/1/4 512/1/4
f 549/1/4 508/1/4 596/1/4
f 596/1/4 508/1/4 528/1/4
f 597/1/4 527/1/4 593/1/4
f 593/1/4 527/1/4 543/1/4
f 637/1/4 542/1/4 634/1/4
f 634/1/4 542/1/4 588/1/4
f 671/1/4 587/1/4 668/1/4
f 668/1/4 587/1/4 630/1/4
f 669/1/4 623/1/4 666/1/4
f 666/1/4 623/1/4 696/1/4
f 700/1/4 695/1/4 697/1/4
f 697/1/4 695/1/4 694/1/4
f 698/1/4 717/1/4 718/1/4
f 718/1/4 717/1/4 716/1/4
f 21/1/4 8/1/4 18/1/4
f 18/1/4 8/1/4 42/1/4
f 46/1/4 41/1/4 43/1/4
f 43/1/4 41/1/4 40/1/4
f 44/1/4 66/1/4 68/1/4
f 68/1/4 66/1/4 65/1/4
f 99/1/4 94/1/4 96/1/4
f 96/1/4 94/1/4 93/1/4
f 150/1/4 128/1/4 147/1/4
f 147/1/4 128/1/4 145/1/4
f 198/1/4 193/1/4 195/1/4
f 195/1/4 193/1/4 192/1/4
f 243/1/4 238/1/4 240/1/4
f 240/1/4 238/1/4 237/1/4
f 304/1/4 299/1/4 301/1/4
f 301/1/4 299/1/4 298/1/4
f 414/1/4 360/1/4 454/1/4
f 454/1/4 360/1/4 359/1/4
f 455/1/4 358/1/4 521/1/4
f 521/1/4 358/1/4 410/1/4
f 522/1/4 409/1/4 555/1/4
f 555/1/4 409/1/4 449/1/4
f 556/1/4 448/1/4 603/1/4
f 603/1/4 448/1/4 516/1/4
f 604/1/4 515/1/4 600/1/4
f 600/1/4 515/1/4 550/1/4
f 643/1/4 546/1/4 640/1/4
f 640/1/4 546/1/4 595/1/4
f 641/1/4 591/1/4 638/1/4
f 638/1/4 591/1/4 636/1/4
f 706/1/4 632/1/4 703/1/4
f 703/1/4 632/1/4 670/1/4
f 704/1/4 699/1/4 701/1/4
f 701/1/4 699/1/4 698/1/4
f 50/1/4 45/1/4 47/1/4
f 47/1/4 45/1/4 44/1/4
f 74/1/4 70/1/4 71/1/4
f 71/1/4 70/1/4 69/1/4
f 72/1/4 98/1/4 100/1/4
f 100/1/4 98/1/4 97/1/4
f 153/1/4 149/1/4 151/1/4
f 151/1/4 149/1/4 148/1/4
f 152/1/4 197/1/4 199/1/4
f 199/1/4 197/1/4 196/1/4
f 200/1/4 242/1/4 244/1/4
f 244/1/4 242/1/4 241/1/4
f 245/1/4 303/1/4 305/1/4
f 305/1/4 303/1/4 302/1/4
f 306/1/4 363/1/4 435/1/4
f 435/1/4 363/1/4 362/1/4
f 436/1/4 361/1/4 480/1/4
f 480/1/4 361/1/4 413/1/4
f 481/1/4 412/1/4 533/1/4
f 533/1/4 412/1/4 453/1/4
f 534/1/4 452/1/4 610/1/4
f 610/1/4 452/1/4 520/1/4
f 611/1/4 519/1/4 607/1/4
f 607/1/4 519/1/4 554/1/4
f 608/1/4 553/1/4 605/1/4
f 605/1/4 553/1/4 602/1/4
f 677/1/4 598/1/4 674/1/4
f 674/1/4 598/1/4 642/1/4
f 675/1/4 638/1/4 672/1/4
f 672/1/4 638/1/4 708/1/4
f 78/1/4 73/1/4 75/1/4
f 75/1/4 73/1/4 72/1/4
f 132/1/4 101/1/4 130/1/4
f 130/1/4 101/1/4 202/1/4
f 131/1/4 201/1/4 185/1/4
f 185/1/4 201/1/4 247/1/4
f 186/1/4 246/1/4 228/1/4
f 228/1/4 246/1/4 308/1/4
f 229/1/4 307/1/4 293/1/4
f 293/1/4 307/1/4 373/1/4
f 294/1/4 372/1/4 439/1/4
f 439/1/4 372/1/4 371/1/4
f 440/1/4 370/1/4 484/1/4
f 484/1/4 370/1/4 434/1/4
f 485/1/4 433/1/4 537/1/4
f 537/1/4 433/1/4 479/1/4
f 538/1/4 478/1/4 535/1/4
f 535/1/4 478/1/4 532/1/4
f 559/1/4 531/1/4 646/1/4
f 646/1/4 531/1/4 609/1/4
f 647/1/4 605/1/4 644/1/4
f 644/1/4 605/1/4 679/1/4
f 105/1/4 79/1/4 102/1/4
f 102/1/4 79/1/4 101/1/4
f 103/1/4 106/1/4 133/1/4
f 133/1/4 106/1/4 131/1/4
f 184/1/4 844/1/4 181/1/4
f 181/1/4 844/1/4 231/1/4
f 182/1/4 230/1/4 221/1/4
f 221/1/4 230/1/4 296/1/4
f 222/1/4 295/1/4 271/1/4
f 271/1/4 295/1/4 377/1/4
f 272/1/4 376/1/4 378/1/4
f 378/1/4 376/1/4 375/1/4
f 458/1/4 374/1/4 488/1/4
f 488/1/4 374/1/4 438/1/4
f 489/1/4 437/1/4 525/1/4
f 525/1/4 437/1/4 483/1/4
f 526/1/4 482/1/4 562/1/4
f 562/1/4 482/1/4 536/1/4
f 563/1/4 535/1/4 560/1/4
f 560/1/4 535/1/4 558/1/4
f 614/1/4 557/1/4 612/1/4
f 612/1/4 557/1/4 646/1/4
f 157/1/4 135/1/4 845/1/4
f 845/1/4 135/1/4 134/1/4
f 845/1/4 187/1/4 154/1/4
f 154/1/4 187/1/4 844/1/4
f 155/1/4 183/1/4 162/1/4
f 162/1/4 183/1/4 224/1/4
f 163/1/4 223/1/4 203/1/4
f 203/1/4 223/1/4 274/1/4
f 204/1/4 273/1/4 275/1/4
f 275/1/4 273/1/4 272/1/4
f 366/1/4 846/1/4 401/1/4
f 401/1/4 846/1/4 379/1/4
f 402/1/4 378/1/4 459/1/4
f 459/1/4 378/1/4 457/1/4
f 492/1/4 456/1/4 490/1/4
f 490/1/4 456/1/4 487/1/4
f 541/1/4 486/1/4 566/1/4
f 566/1/4 486/1/4 524/1/4
f 567/1/4 523/1/4 564/1/4
f 564/1/4 523/1/4 561/1/4
f 266/1/4 225/1/4 263/1/4
f 263/1/4 225/1/4 277/1/4
f 264/1/4 267/1/4 847/1/4
f 847/1/4 267/1/4 276/1/4
f 847/1/4 380/1/4 309/1/4
f 309/1/4 380/1/4 846/1/4
f 310/1/4 312/1/4 367/1/4
f 367/1/4 312/1/4 365/1/4
f 405/1/4 364/1/4 403/1/4
f 403/1/4 364/1/4 400/1/4
f 443/1/4 399/1/4 441/1/4
f 441/1/4 399/1/4 462/1/4
f 797/1/5 691/1/5 788/1/5
f 788/1/5 691/1/5 662/1/5
f 733/1/5 63/1/5 725/1/5
f 725/1/5 63/1/5 28/1/5
f 807/1/5 694/1/5 796/1/5
f 796/1/5 694/1/5 689/1/5
f 695/1/5 700/1/5 696/1/5
f 696/1/5 700/1/5 666/1/5
f 739/1/5 91/1/5 732/1/5
f 732/1/5 91/1/5 60/1/5
f 740/1/5 125/1/5 738/1/5
f 738/1/5 125/1/5 88/1/5
f 811/1/5 716/1/5 806/1/5
f 806/1/5 716/1/5 715/1/5
f 717/1/5 698/1/5 694/1/5
f 694/1/5 698/1/5 697/1/5
f 62/1/5 67/1/5 32/1/5
f 32/1/5 67/1/5 34/1/5
f 41/1/5 46/1/5 42/1/5
f 42/1/5 46/1/5 18/1/5
f 746/1/5 143/1/5 741/1/5
f 741/1/5 143/1/5 122/1/5
f 90/1/5 95/1/5 61/1/5
f 61/1/5 95/1/5 64/1/5
f 66/1/5 44/1/5 40/1/5
f 40/1/5 44/1/5 43/1/5
f 749/1/5 161/1/5 745/1/5
f 745/1/5 161/1/5 140/1/5
f 124/1/5 129/1/5 89/1/5
f 89/1/5 129/1/5 92/1/5
f 752/1/5 190/1/5 748/1/5
f 748/1/5 190/1/5 158/1/5
f 142/1/5 146/1/5 123/1/5
f 123/1/5 146/1/5 126/1/5
f 94/1/5 99/1/5 65/1/5
f 65/1/5 99/1/5 68/1/5
f 755/1/5 235/1/5 751/1/5
f 751/1/5 235/1/5 188/1/5
f 70/1/5 74/1/5 44/1/5
f 44/1/5 74/1/5 47/1/5
f 758/1/5 319/1/5 754/1/5
f 754/1/5 319/1/5 232/1/5
f 160/1/5 194/1/5 141/1/5
f 141/1/5 194/1/5 144/1/5
f 835/1/5 408/1/5 757/1/5
f 757/1/5 408/1/5 316/1/5
f 234/1/5 239/1/5 189/1/5
f 189/1/5 239/1/5 191/1/5
f 128/1/5 150/1/5 93/1/5
f 93/1/5 150/1/5 96/1/5
f 318/1/5 300/1/5 233/1/5
f 233/1/5 300/1/5 236/1/5
f 193/1/5 198/1/5 145/1/5
f 145/1/5 198/1/5 147/1/5
f 98/1/5 72/1/5 69/1/5
f 69/1/5 72/1/5 71/1/5
f 356/1/5 411/1/5 357/1/5
f 357/1/5 411/1/5 297/1/5
f 238/1/5 243/1/5 192/1/5
f 192/1/5 243/1/5 195/1/5
f 149/1/5 153/1/5 97/1/5
f 97/1/5 153/1/5 100/1/5
f 836/1/5 724/1/5 816/1/5
f 816/1/5 724/1/5 723/1/5
f 720/1/5 719/1/5 716/1/5
f 716/1/5 719/1/5 718/1/5
f 299/1/5 304/1/5 237/1/5
f 237/1/5 304/1/5 240/1/5
f 709/1/5 707/1/5 698/1/5
f 698/1/5 707/1/5 701/1/5
f 197/1/5 152/1/5 148/1/5
f 148/1/5 152/1/5 151/1/5
f 680/1/5 678/1/5 708/1/5
f 708/1/5 678/1/5 672/1/5
f 79/1/5 76/1/5 72/1/5
f 72/1/5 76/1/5 75/1/5
f 648/1/5 645/1/5 679/1/5
f 679/1/5 645/1/5 644/1/5
f 360/1/5 414/1/5 298/1/5
f 298/1/5 414/1/5 301/1/5
f 242/1/5 200/1/5 196/1/5
f 196/1/5 200/1/5 199/1/5
f 201/1/5 131/1/5 202/1/5
f 202/1/5 131/1/5 130/1/5
f 106/1/5 103/1/5 132/1/5
f 132/1/5 103/1/5 102/1/5
f 615/1/5 613/1/5 646/1/5
f 646/1/5 613/1/5 612/1/5
f 303/1/5 245/1/5 241/1/5
f 241/1/5 245/1/5 244/1/5
f 246/1/5 186/1/5 247/1/5
f 247/1/5 186/1/5 185/1/5
f 187/1/5 134/1/5 131/1/5
f 131/1/5 134/1/5 133/1/5
f 363/1/5 306/1/5 302/1/5
f 302/1/5 306/1/5 305/1/5
f 307/1/5 229/1/5 308/1/5
f 308/1/5 229/1/5 228/1/5
f 230/1/5 182/1/5 231/1/5
f 231/1/5 182/1/5 181/1/5
f 183/1/5 155/1/5 184/1/5
f 184/1/5 155/1/5 154/1/5
f 568/1/5 565/1/5 561/1/5
f 561/1/5 565/1/5 564/1/5
f 815/1/5 721/1/5 812/1/5
f 812/1/5 721/1/5 720/1/5
f 712/1/5 710/1/5 722/1/5
f 722/1/5 710/1/5 709/1/5
f 683/1/5 681/1/5 711/1/5
f 711/1/5 681/1/5 680/1/5
f 650/1/5 649/1/5 682/1/5
f 682/1/5 649/1/5 648/1/5
f 372/1/5 294/1/5 373/1/5
f 373/1/5 294/1/5 293/1/5
f 617/1/5 616/1/5 609/1/5
f 609/1/5 616/1/5 646/1/5
f 295/1/5 222/1/5 296/1/5
f 296/1/5 222/1/5 221/1/5
f 572/1/5 569/1/5 558/1/5
f 558/1/5 569/1/5 560/1/5
f 223/1/5 163/1/5 224/1/5
f 224/1/5 163/1/5 162/1/5
f 570/1/5 540/1/5 571/1/5
f 571/1/5 540/1/5 539/1/5
f 805/1/5 713/1/5 802/1/5
f 802/1/5 713/1/5 712/1/5
f 686/1/5 684/1/5 714/1/5
f 714/1/5 684/1/5 683/1/5
f 653/1/5 651/1/5 685/1/5
f 685/1/5 651/1/5 650/1/5
f 620/1/5 618/1/5 652/1/5
f 652/1/5 618/1/5 617/1/5
f 575/1/5 573/1/5 619/1/5
f 619/1/5 573/1/5 572/1/5
f 376/1/5 272/1/5 377/1/5
f 377/1/5 272/1/5 271/1/5
f 273/1/5 204/1/5 274/1/5
f 274/1/5 204/1/5 203/1/5
f 493/1/5 491/1/5 574/1/5
f 574/1/5 491/1/5 490/1/5
f 655/1/5 621/1/5 656/1/5
f 656/1/5 621/1/5 620/1/5
f 578/1/5 576/1/5 622/1/5
f 622/1/5 576/1/5 575/1/5
f 496/1/5 494/1/5 577/1/5
f 577/1/5 494/1/5 493/1/5
f 380/1/5 276/1/5 272/1/5
f 272/1/5 276/1/5 275/1/5
f 463/1/5 460/1/5 495/1/5
f 495/1/5 460/1/5 459/1/5
f 267/1/5 264/1/5 277/1/5
f 277/1/5 264/1/5 263/1/5
f 461/1/5 442/1/5 462/1/5
f 462/1/5 442/1/5 441/1/5
f 795/1/5 687/1/5 792/1/5
f 792/1/5 687/1/5 686/1/5
f 659/1/5 657/1/5 688/1/5
f 688/1/5 657/1/5 653/1/5
f 581/1/5 579/1/5 658/1/5
f 658/1/5 579/1/5 578/1/5
f 499/1/5 497/1/5 580/1/5
f 580/1/5 497/1/5 496/1/5
f 466/1/5 464/1/5 498/1/5
f 498/1/5 464/1/5 463/1/5
f 418/1/5 416/1/5 465/1/5
f 465/1/5 416/1/5 415/1/5
f 312/1/5 310/1/5 366/1/5
f 366/1/5 310/1/5 309/1/5
f 417/1/5 404/1/5 400/1/5
f 400/1/5 404/1/5 403/1/5
f 787/1/5 660/1/5 784/1/5
f 784/1/5 660/1/5 659/1/5
f 584/1/5 582/1/5 661/1/5
f 661/1/5 582/1/5 581/1/5
f 502/1/5 500/1/5 583/1/5
f 583/1/5 500/1/5 499/1/5
f 469/1/5 467/1/5 501/1/5
f 501/1/5 467/1/5 466/1/5
f 421/1/5 419/1/5 468/1/5
f 468/1/5 419/1/5 418/1/5
f 384/1/5 382/1/5 420/1/5
f 420/1/5 382/1/5 381/1/5
f 383/1/5 368/1/5 365/1/5
f 365/1/5 368/1/5 367/1/5
f 783/1/5 585/1/5 780/1/5
f 780/1/5 585/1/5 584/1/5
f 505/1/5 503/1/5 586/1/5
f 586/1/5 503/1/5 502/1/5
f 472/1/5 470/1/5 504/1/5
f 504/1/5 470/1/5 469/1/5
f 424/1/5 422/1/5 471/1/5
f 471/1/5 422/1/5 421/1/5
f 387/1/5 385/1/5 423/1/5
f 423/1/5 385/1/5 384/1/5
f 339/1/5 336/1/5 386/1/5
f 386/1/5 336/1/5 335/1/5
f 779/1/5 506/1/5 776/1/5
f 776/1/5 506/1/5 505/1/5
f 475/1/5 473/1/5 507/1/5
f 507/1/5 473/1/5 472/1/5
f 427/1/5 425/1/5 474/1/5
f 474/1/5 425/1/5 424/1/5
f 390/1/5 388/1/5 426/1/5
f 426/1/5 388/1/5 387/1/5
f 342/1/5 340/1/5 389/1/5
f 389/1/5 340/1/5 339/1/5
f 775/1/5 476/1/5 772/1/5
f 772/1/5 476/1/5 475/1/5
f 430/1/5 428/1/5 477/1/5
f 477/1/5 428/1/5 427/1/5
f 393/1/5 391/1/5 429/1/5
f 429/1/5 391/1/5 390/1/5
f 345/1/5 343/1/5 392/1/5
f 392/1/5 343/1/5 342/1/5
f 771/1/5 431/1/5 768/1/5
f 768/1/5 431/1/5 430/1/5
f 396/1/5 394/1/5 432/1/5
f 432/1/5 394/1/5 393/1/5
f 348/1/5 346/1/5 395/1/5
f 395/1/5 346/1/5 345/1/5
f 767/1/5 397/1/5 764/1/5
f 764/1/5 397/1/5 396/1/5
f 351/1/5 349/1/5 398/1/5
f 398/1/5 349/1/5 348/1/5
f 763/1/5 352/1/5 760/1/5
f 760/1/5 352/1/5 351/1/5
f 727/1/6 726/1/6 30/1/6
f 30/1/6 726/1/6 31/1/6
f 790/1/6 789/1/6 664/1/6
f 664/1/6 789/1/6 665/1/6
f 730/1/6 729/1/6 5/1/6
f 5/1/6 729/1/6 33/1/6
f 16/1/6 15/1/6 36/1/6
f 36/1/6 15/1/6 37/1/6
f 800/1/6 799/1/6 625/1/6
f 625/1/6 799/1/6 693/1/6
f 736/1/6 735/1/6 1/1/6
f 1/1/6 735/1/6 7/1/6
f 810/1/6 809/1/6 628/1/6
f 628/1/6 809/1/6 629/1/6
f 6/1/6 5/1/6 8/1/6
f 8/1/6 5/1/6 39/1/6
f 630/1/6 623/1/6 668/1/6
f 668/1/6 623/1/6 669/1/6
f 670/1/6 699/1/6 703/1/6
f 703/1/6 699/1/6 704/1/6
f 818/1/6 817/1/6 589/1/6
f 589/1/6 817/1/6 631/1/6
f 588/1/6 587/1/6 634/1/6
f 634/1/6 587/1/6 671/1/6
f 636/1/6 632/1/6 638/1/6
f 638/1/6 632/1/6 706/1/6
f 821/1/6 820/1/6 544/1/6
f 544/1/6 820/1/6 545/1/6
f 543/1/6 542/1/6 593/1/6
f 593/1/6 542/1/6 637/1/6
f 824/1/6 823/1/6 529/1/6
f 529/1/6 823/1/6 530/1/6
f 528/1/6 527/1/6 596/1/6
f 596/1/6 527/1/6 597/1/6
f 595/1/6 591/1/6 640/1/6
f 640/1/6 591/1/6 641/1/6
f 827/1/6 826/1/6 510/1/6
f 510/1/6 826/1/6 511/1/6
f 642/1/6 638/1/6 674/1/6
f 674/1/6 638/1/6 675/1/6
f 830/1/6 829/1/6 513/1/6
f 513/1/6 829/1/6 514/1/6
f 512/1/6 508/1/6 548/1/6
f 548/1/6 508/1/6 549/1/6
f 833/1/6 832/1/6 446/1/6
f 446/1/6 832/1/6 447/1/6
f 445/1/6 444/1/6 551/1/6
f 551/1/6 444/1/6 552/1/6
f 550/1/6 546/1/6 600/1/6
f 600/1/6 546/1/6 643/1/6
f 407/1/6 406/1/6 517/1/6
f 517/1/6 406/1/6 518/1/6
f 516/1/6 515/1/6 603/1/6
f 603/1/6 515/1/6 604/1/6
f 602/1/6 598/1/6 605/1/6
f 605/1/6 598/1/6 677/1/6
f 355/1/6 354/1/6 450/1/6
f 450/1/6 354/1/6 451/1/6
f 449/1/6 448/1/6 555/1/6
f 555/1/6 448/1/6 556/1/6
f 554/1/6 553/1/6 607/1/6
f 607/1/6 553/1/6 608/1/6
f 743/1/6 742/1/6 3/1/6
f 3/1/6 742/1/6 4/1/6
f 2/1/6 1/1/6 10/1/6
f 10/1/6 1/1/6 11/1/6
f 9/1/6 8/1/6 20/1/6
f 20/1/6 8/1/6 21/1/6
f 410/1/6 409/1/6 521/1/6
f 521/1/6 409/1/6 522/1/6
f 19/1/6 45/1/6 49/1/6
f 49/1/6 45/1/6 50/1/6
f 520/1/6 519/1/6 610/1/6
f 610/1/6 519/1/6 611/1/6
f 48/1/6 73/1/6 77/1/6
f 77/1/6 73/1/6 78/1/6
f 609/1/6 605/1/6 646/1/6
f 646/1/6 605/1/6 647/1/6
f 359/1/6 358/1/6 454/1/6
f 454/1/6 358/1/6 455/1/6
f 453/1/6 452/1/6 533/1/6
f 533/1/6 452/1/6 534/1/6
f 532/1/6 531/1/6 535/1/6
f 535/1/6 531/1/6 559/1/6
f 109/1/6 76/1/6 104/1/6
f 104/1/6 76/1/6 105/1/6
f 558/1/6 557/1/6 560/1/6
f 560/1/6 557/1/6 614/1/6
f 413/1/6 412/1/6 480/1/6
f 480/1/6 412/1/6 481/1/6
f 479/1/6 478/1/6 537/1/6
f 537/1/6 478/1/6 538/1/6
f 536/1/6 535/1/6 562/1/6
f 562/1/6 535/1/6 563/1/6
f 362/1/6 361/1/6 435/1/6
f 435/1/6 361/1/6 436/1/6
f 434/1/6 433/1/6 484/1/6
f 484/1/6 433/1/6 485/1/6
f 483/1/6 482/1/6 525/1/6
f 525/1/6 482/1/6 526/1/6
f 139/1/6 135/1/6 156/1/6
f 156/1/6 135/1/6 157/1/6
f 524/1/6 523/1/6 566/1/6
f 566/1/6 523/1/6 567/1/6
f 814/1/6 813/1/6 14/1/6
f 14/1/6 813/1/6 2/1/6
f 13/1/6 12/1/6 24/1/6
f 24/1/6 12/1/6 9/1/6
f 23/1/6 22/1/6 53/1/6
f 53/1/6 22/1/6 19/1/6
f 52/1/6 51/1/6 81/1/6
f 81/1/6 51/1/6 48/1/6
f 80/1/6 79/1/6 108/1/6
f 108/1/6 79/1/6 76/1/6
f 371/1/6 370/1/6 439/1/6
f 439/1/6 370/1/6 440/1/6
f 107/1/6 106/1/6 138/1/6
f 138/1/6 106/1/6 103/1/6
f 438/1/6 437/1/6 488/1/6
f 488/1/6 437/1/6 489/1/6
f 137/1/6 136/1/6 164/1/6
f 164/1/6 136/1/6 165/1/6
f 487/1/6 486/1/6 490/1/6
f 490/1/6 486/1/6 541/1/6
f 804/1/6 803/1/6 27/1/6
f 27/1/6 803/1/6 13/1/6
f 26/1/6 25/1/6 56/1/6
f 56/1/6 25/1/6 23/1/6
f 55/1/6 54/1/6 84/1/6
f 84/1/6 54/1/6 52/1/6
f 83/1/6 82/1/6 112/1/6
f 112/1/6 82/1/6 80/1/6
f 111/1/6 110/1/6 168/1/6
f 168/1/6 110/1/6 107/1/6
f 375/1/6 374/1/6 378/1/6
f 378/1/6 374/1/6 458/1/6
f 167/1/6 166/1/6 205/1/6
f 205/1/6 166/1/6 163/1/6
f 457/1/6 456/1/6 459/1/6
f 459/1/6 456/1/6 492/1/6
f 118/1/6 85/1/6 115/1/6
f 115/1/6 85/1/6 83/1/6
f 114/1/6 113/1/6 171/1/6
f 171/1/6 113/1/6 111/1/6
f 170/1/6 169/1/6 208/1/6
f 208/1/6 169/1/6 167/1/6
f 207/1/6 206/1/6 227/1/6
f 227/1/6 206/1/6 204/1/6
f 379/1/6 378/1/6 401/1/6
f 401/1/6 378/1/6 402/1/6
f 226/1/6 225/1/6 265/1/6
f 265/1/6 225/1/6 266/1/6
f 400/1/6 399/1/6 403/1/6
f 403/1/6 399/1/6 443/1/6
f 794/1/6 793/1/6 59/1/6
f 59/1/6 793/1/6 26/1/6
f 58/1/6 57/1/6 87/1/6
f 87/1/6 57/1/6 55/1/6
f 117/1/6 116/1/6 174/1/6
f 174/1/6 116/1/6 114/1/6
f 173/1/6 172/1/6 211/1/6
f 211/1/6 172/1/6 170/1/6
f 210/1/6 209/1/6 250/1/6
f 250/1/6 209/1/6 207/1/6
f 249/1/6 248/1/6 269/1/6
f 269/1/6 248/1/6 270/1/6
f 268/1/6 267/1/6 311/1/6
f 311/1/6 267/1/6 264/1/6
f 365/1/6 364/1/6 367/1/6
f 367/1/6 364/1/6 405/1/6
f 786/1/6 785/1/6 121/1/6
f 121/1/6 785/1/6 58/1/6
f 120/1/6 119/1/6 177/1/6
f 177/1/6 119/1/6 117/1/6
f 176/1/6 175/1/6 214/1/6
f 214/1/6 175/1/6 173/1/6
f 213/1/6 212/1/6 253/1/6
f 253/1/6 212/1/6 210/1/6
f 252/1/6 251/1/6 280/1/6
f 280/1/6 251/1/6 249/1/6
f 279/1/6 278/1/6 314/1/6
f 314/1/6 278/1/6 315/1/6
f 313/1/6 312/1/6 369/1/6
f 369/1/6 312/1/6 310/1/6
f 782/1/6 781/1/6 180/1/6
f 180/1/6 781/1/6 120/1/6
f 179/1/6 178/1/6 217/1/6
f 217/1/6 178/1/6 176/1/6
f 216/1/6 215/1/6 256/1/6
f 256/1/6 215/1/6 213/1/6
f 255/1/6 254/1/6 283/1/6
f 283/1/6 254/1/6 252/1/6
f 282/1/6 281/1/6 322/1/6
f 322/1/6 281/1/6 279/1/6
f 321/1/6 320/1/6 337/1/6
f 337/1/6 320/1/6 338/1/6
f 778/1/6 777/1/6 220/1/6
f 220/1/6 777/1/6 179/1/6
f 219/1/6 218/1/6 259/1/6
f 259/1/6 218/1/6 216/1/6
f 258/1/6 257/1/6 286/1/6
f 286/1/6 257/1/6 255/1/6
f 285/1/6 284/1/6 325/1/6
f 325/1/6 284/1/6 282/1/6
f 324/1/6 323/1/6 341/1/6
f 341/1/6 323/1/6 321/1/6
f 774/1/6 773/1/6 262/1/6
f 262/1/6 773/1/6 219/1/6
f 261/1/6 260/1/6 289/1/6
f 289/1/6 260/1/6 258/1/6
f 288/1/6 287/1/6 328/1/6
f 328/1/6 287/1/6 285/1/6
f 327/1/6 326/1/6 344/1/6
f 344/1/6 326/1/6 324/1/6
f 770/1/6 769/1/6 292/1/6
f 292/1/6 769/1/6 261/1/6
f 291/1/6 290/1/6 331/1/6
f 331/1/6 290/1/6 288/1/6
f 330/1/6 329/1/6 347/1/6
f 347/1/6 329/1/6 327/1/6
f 766/1/6 765/1/6 334/1/6
f 334/1/6 765/1/6 291/1/6
f 333/1/6 332/1/6 350/1/6
f 350/1/6 332/1/6 330/1/6
f 762/1/6 761/1/6 353/1/6
f 353/1/6 761/1/6 333/1/6
