# Vengi binary mesh normalized for Tanks of Freedom II

mtllib ../../../materials/vox_grass.mtl
o dune_2

v 0.1 0.1 2.5
v -0.1 0.1 2.5
v -0.1 0.1 2.6
v 0.1 0.1 2.6
v 0.4 0.1 2.4
v 0.2 0.1 2.4
v 0.2 0.1 2.5
v 0.4 0.1 2.5
v 0.1 0.1 2.4
v 0.2 0.1 2.6
v 0 0.1 2.4
v -0.3 0.1 2.4
v -0.3 0.1 2.5
v 0 0.1 2.5
v 0.5 0.1 2.3
v 0.4 0.1 2.3
v 0.5 0.1 2.5
v 0.3 0.2 2.3
v 0.1 0.2 2.3
v 0.1 0.2 2.4
v 0.3 0.2 2.4
v 0 0.2 2.3
v 0 0.2 2.5
v 0.1 0.2 2.5
v -0.2 0.2 2.3
v -0.2 0.2 2.4
v 0 0.2 2.4
v 0.4 0.2 2.2
v 0.3 0.2 2.2
v 0.4 0.2 2.4
v 0.2 0.3 2.2
v -0.1 0.3 2.2
v -0.1 0.3 2.3
v 0.2 0.3 2.3
v 0.6 0.1 2.1
v 0.5 0.1 2.1
v 0.5 0.1 2.4
v 0.6 0.1 2.4
v 0.3 0.3 2.1
v 0.2 0.3 2.1
v 0.3 0.3 2.3
v -0.2 0.1 2.1
v -0.3 0.1 2.1
v -0.2 0.1 2.4
v 0.5 0.2 2
v 0.4 0.2 2
v 0.4 0.2 2.3
v 0.5 0.2 2.3
v 0.2 0.4 2
v 0 0.4 2
v 0 0.4 2.2
v 0.2 0.4 2.2
v -0.1 0.2 2
v -0.2 0.2 2
v -0.1 0.2 2.3
v 0.7 0.1 1.9
v 0.6 0.1 1.9
v 0.6 0.1 2.2
v 0.7 0.1 2.2
v 0.4 0.3 1.9
v 0.3 0.3 1.9
v 0.3 0.3 2.2
v 0.4 0.3 2.2
v 0.2 0.5 1.9
v 0.1 0.5 1.9
v 0.1 0.5 2
v 0.2 0.5 2
v 0 0.3 1.9
v -0.1 0.3 1.9
v 0 0.3 2.2
v 0.6 0.2 1.8
v 0.5 0.2 1.8
v 0.5 0.2 2.1
v 0.6 0.2 2.1
v 0.3 0.4 1.8
v 0.2 0.4 1.8
v 0.2 0.4 2.1
v 0.3 0.4 2.1
v 0.1 0.4 1.8
v 0 0.4 1.8
v 0.1 0.4 2
v 0.1 0.5 1.7
v 0 0.5 1.7
v 0 0.5 1.8
v 0.1 0.5 1.8
v 0.6 0.3 1.6
v 0.5 0.3 1.6
v 0.5 0.3 1.8
v 0.6 0.3 1.8
v 0.3 0.5 1.6
v 0.2 0.5 1.6
v 0.2 0.5 1.8
v 0.3 0.5 1.8
v 0.7 0.2 1.5
v 0.6 0.2 1.5
v 0.6 0.2 1.9
v 0.7 0.2 1.9
v 0.4 0.4 1.5
v 0.3 0.4 1.5
v 0.3 0.4 1.9
v 0.4 0.4 1.9
v 0.2 0.6 1.5
v 0.1 0.6 1.5
v 0.1 0.6 1.9
v 0.2 0.6 1.9
v 0.8 0.1 1.4
v 0.7 0.1 1.4
v 0.7 0.1 2
v 0.8 0.1 2
v 0.5 0.3 1.4
v 0.4 0.3 1.4
v 0.4 0.3 2
v 0.5 0.3 2
v 0.2 0.5 1.4
v 0.1 0.5 1.4
v 0.1 0.5 1.5
v 0.2 0.5 1.5
v 0.6 0.2 1.3
v 0.5 0.2 1.3
v 0.5 0.2 1.6
v 0.6 0.2 1.6
v 0.3 0.4 1.3
v 0.2 0.4 1.3
v 0.2 0.4 1.6
v 0.3 0.4 1.6
v -0.3 0.1 1.3
v -0.4 0.1 1.3
v -0.4 0.1 2.2
v -0.3 0.1 2.2
v 0.7 0.1 1.2
v 0.6 0.1 1.2
v 0.6 0.1 1.5
v 0.7 0.1 1.5
v 0.4 0.3 1.2
v 0.3 0.3 1.2
v 0.3 0.3 1.5
v 0.4 0.3 1.5
v -0.2 0.2 1.2
v -0.3 0.2 1.2
v -0.3 0.2 2.1
v -0.2 0.2 2.1
v 0.5 0.2 1.1
v 0.4 0.2 1.1
v 0.4 0.2 1.4
v 0.5 0.2 1.4
v -0.1 0.3 1.1
v -0.2 0.3 1.1
v -0.2 0.3 2
v -0.1 0.3 2
v 0.6 0.1 1
v 0.5 0.1 1
v 0.5 0.1 1.3
v 0.6 0.1 1.3
v 0 0.4 1
v -0.1 0.4 1
v -0.1 0.4 1.9
v 0 0.4 1.9
v 0.1 0.6 0.9
v 0 0.6 0.9
v 0 0.6 1.7
v 0.1 0.6 1.7
v 0 0.5 0.9
v -0.1 0.5 0.9
v -0.1 0.5 1
v 0 0.5 1
v 0.2 0.4 0.8
v 0.1 0.4 0.8
v 0.1 0.4 1.4
v 0.2 0.4 1.4
v 0.3 0.3 0.7
v 0.2 0.3 0.7
v 0.2 0.3 1.3
v 0.3 0.3 1.3
v -0.4 0.1 0.7
v -0.5 0.1 0.7
v -0.5 0.1 1.4
v -0.4 0.1 1.4
v 0.4 0.2 0.6
v 0.3 0.2 0.6
v 0.3 0.2 1.2
v 0.4 0.2 1.2
v -0.3 0.2 0.6
v -0.4 0.2 0.6
v -0.4 0.2 1.3
v -0.3 0.2 1.3
v 0.5 0.1 0.5
v 0.4 0.1 0.5
v 0.4 0.1 1.1
v 0.5 0.1 1.1
v 0.1 0.4 0.5
v 0 0.4 0.5
v 0 0.4 0.9
v 0.1 0.4 0.9
v 0 0.6 0.5
v -0.1 0.6 0.5
v -0.1 0.6 0.9
v -0.1 0.4 0.5
v -0.2 0.4 0.5
v -0.2 0.4 1.1
v -0.1 0.4 1.1
v -0.2 0.3 0.5
v -0.3 0.3 0.5
v -0.3 0.3 1.2
v -0.2 0.3 1.2
v 0.2 0.3 0.4
v 0.1 0.3 0.4
v 0.1 0.3 0.8
v 0.2 0.3 0.8
v 0.3 0.2 0.3
v 0.2 0.2 0.3
v 0.2 0.2 0.7
v 0.3 0.2 0.7
v 0.4 0.1 0.2
v 0.3 0.1 0.2
v 0.3 0.1 0.6
v 0.4 0.1 0.6
v 0.3 0.1 -0.1
v 0.2 0.1 -0.1
v 0.2 0.1 0.3
v 0.3 0.1 0.3
v 0.2 0.2 -0.2
v 0.1 0.2 -0.2
v 0.1 0.2 0.4
v 0.2 0.2 0.4
v 0.1 0.3 -0.3
v 0 0.3 -0.3
v 0 0.3 0.5
v 0.1 0.3 0.5
v 0.4 0.1 -0.4
v 0.3 0.1 -0.4
v 0.3 0.1 0
v 0.4 0.1 0
v 0 0.4 -0.4
v -0.1 0.4 -0.4
v 0.3 0.2 -0.5
v 0.2 0.2 -0.5
v 0.2 0.2 -0.1
v 0.3 0.2 -0.1
v 0 0.5 -0.5
v -0.1 0.5 -0.5
v -0.1 0.5 -0.4
v 0 0.5 -0.4
v -0.1 0.6 -0.5
v -0.2 0.6 -0.5
v -0.2 0.6 0.5
v 0.5 0.1 -0.6
v 0.4 0.1 -0.6
v 0.4 0.1 -0.3
v 0.5 0.1 -0.3
v 0.2 0.3 -0.6
v 0.1 0.3 -0.6
v 0.1 0.3 -0.2
v 0.2 0.3 -0.2
v 0.4 0.2 -0.7
v 0.3 0.2 -0.7
v 0.3 0.2 -0.4
v 0.4 0.2 -0.4
v 0.1 0.4 -0.7
v 0 0.4 -0.7
v 0 0.4 -0.3
v 0.1 0.4 -0.3
v -0.5 0.1 -0.7
v -0.6 0.1 -0.7
v -0.6 0.1 0.8
v -0.5 0.1 0.8
v 0.3 0.3 -0.8
v 0.2 0.3 -0.8
v 0.2 0.3 -0.5
v 0.3 0.3 -0.5
v -0.4 0.2 -0.8
v -0.5 0.2 -0.8
v -0.5 0.2 0.7
v -0.4 0.2 0.7
v 0.6 0.1 -0.9
v 0.5 0.1 -0.9
v 0.5 0.1 -0.5
v 0.6 0.1 -0.5
v 0.2 0.4 -0.9
v 0.1 0.4 -0.9
v 0.1 0.4 -0.6
v 0.2 0.4 -0.6
v 0.5 0.2 -1
v 0.4 0.2 -1
v 0.4 0.2 -0.6
v 0.5 0.2 -0.6
v 0.1 0.5 -1
v 0 0.5 -1
v 0 0.5 -0.7
v 0.1 0.5 -0.7
v 0.4 0.3 -1.1
v 0.3 0.3 -1.1
v 0.3 0.3 -0.7
v 0.4 0.3 -0.7
v 0.4 0.4 -1.3
v 0.3 0.4 -1.3
v 0.3 0.4 -1.1
v 0.4 0.4 -1.1
v -0.6 0.1 -1.3
v -0.7 0.1 -1.3
v -0.7 0.1 -0.6
v -0.6 0.1 -0.6
v 0.5 0.3 -1.4
v 0.4 0.3 -1.4
v 0.4 0.3 -1
v 0.5 0.3 -1
v -0.5 0.2 -1.4
v -0.6 0.2 -1.4
v -0.6 0.2 -0.7
v -0.5 0.2 -0.7
v 0.6 0.2 -1.5
v 0.5 0.2 -1.5
v 0.5 0.2 -0.9
v 0.6 0.2 -0.9
v 0.1 0.6 -1.5
v 0 0.6 -1.5
v 0 0.6 -1
v 0.1 0.6 -1
v 0.7 0.1 -1.6
v 0.6 0.1 -1.6
v 0.6 0.1 -0.8
v 0.7 0.1 -0.8
v 0.2 0.5 -1.6
v 0.1 0.5 -1.6
v 0.1 0.5 -0.9
v 0.2 0.5 -0.9
v -0.5 0.3 -1.6
v -0.6 0.3 -1.6
v -0.6 0.3 -1.4
v -0.5 0.3 -1.4
v 0.3 0.4 -1.7
v 0.2 0.4 -1.7
v 0.2 0.4 -0.8
v 0.3 0.4 -0.8
v -0.6 0.2 -1.7
v -0.7 0.2 -1.7
v -0.7 0.2 -1.3
v -0.6 0.2 -1.3
v 0.4 0.3 -1.8
v 0.3 0.3 -1.8
v 0.3 0.3 -1.3
v 0.4 0.3 -1.3
v -0.7 0.1 -1.8
v -0.8 0.1 -1.8
v -0.8 0.1 -1.2
v -0.7 0.1 -1.2
v 0.5 0.2 -1.9
v 0.4 0.2 -1.9
v 0.4 0.2 -1.4
v 0.5 0.2 -1.4
v -0.4 0.3 -1.9
v -0.5 0.3 -1.9
v -0.5 0.3 -0.8
v -0.4 0.3 -0.8
v 0.6 0.1 -2
v 0.5 0.1 -2
v 0.5 0.1 -1.5
v 0.6 0.1 -1.5
v -0.5 0.2 -2
v -0.6 0.2 -2
v -0.6 0.2 -1.6
v -0.5 0.2 -1.6
v 0.1 0.5 -2.1
v 0 0.5 -2.1
v 0 0.5 -1.5
v 0.1 0.5 -1.5
v 0 0.6 -2.1
v -0.1 0.6 -2.1
v 0 0.6 -0.5
v -0.1 0.5 -2.1
v -0.2 0.5 -2.1
v -0.2 0.5 -0.5
v -0.6 0.1 -2.1
v -0.7 0.1 -2.1
v -0.7 0.1 -1.7
v -0.6 0.1 -1.7
v 0.2 0.4 -2.2
v 0.1 0.4 -2.2
v 0.1 0.4 -1.6
v 0.2 0.4 -1.6
v 0 0.5 -2.2
v -0.1 0.5 -2.2
v -0.2 0.4 -2.2
v -0.3 0.4 -2.2
v -0.3 0.4 0.5
v 0.3 0.3 -2.3
v 0.2 0.3 -2.3
v 0.2 0.3 -1.7
v 0.3 0.3 -1.7
v 0.1 0.4 -2.3
v 0 0.4 -2.3
v 0 0.4 -2.1
v 0.1 0.4 -2.1
v -0.1 0.4 -2.3
v -0.1 0.4 -2.2
v 0 0.4 -2.2
v -0.2 0.4 -2.3
v -0.2 0.4 -2.1
v -0.1 0.4 -2.1
v -0.3 0.3 -2.3
v -0.4 0.3 -2.3
v -0.4 0.3 0.6
v -0.3 0.3 0.6
v 0.4 0.2 -2.4
v 0.3 0.2 -2.4
v 0.3 0.2 -1.8
v 0.4 0.2 -1.8
v 0.2 0.3 -2.4
v 0.1 0.3 -2.4
v 0.1 0.3 -2.2
v 0.2 0.3 -2.2
v -0.2 0.3 -2.4
v -0.2 0.3 -2.3
v 0.1 0.3 -2.3
v -0.3 0.3 -2.4
v -0.3 0.3 -2.2
v -0.2 0.3 -2.2
v -0.4 0.2 -2.4
v -0.5 0.2 -2.4
v -0.5 0.2 -1.9
v -0.4 0.2 -1.9
v 0.5 0.1 -2.5
v 0.4 0.1 -2.5
v 0.4 0.1 -1.9
v 0.5 0.1 -1.9
v 0.3 0.2 -2.5
v 0.2 0.2 -2.5
v 0.2 0.2 -2.3
v 0.3 0.2 -2.3
v -0.3 0.2 -2.5
v -0.3 0.2 -2.4
v 0.2 0.2 -2.4
v -0.4 0.2 -2.5
v -0.4 0.2 -2.3
v -0.3 0.2 -2.3
v -0.5 0.1 -2.5
v -0.6 0.1 -2.5
v -0.6 0.1 -2
v -0.5 0.1 -2
v 0.4 0.1 -2.6
v 0.3 0.1 -2.6
v 0.3 0.1 -2.4
v 0.4 0.1 -2.4
v -0.4 0.1 -2.6
v -0.4 0.1 -2.5
v 0.3 0.1 -2.5
v -0.5 0.1 -2.6
v -0.5 0.1 -2.4
v -0.4 0.1 -2.4
v 0.8 0 1.4
v 0.8 0 2
v 0.7 0 2
v 0.7 0 1.4
v 0.7 0 1.2
v 0.7 0 2.2
v 0.6 0 2.2
v 0.6 0 1.2
v 0.6 0 1
v 0.6 0 2.4
v 0.5 0 2.4
v 0.5 0 1
v 0.5 0 0.5
v 0.5 0 2.5
v 0.2 0 2.5
v 0.2 0 0.5
v 0.4 0 0.2
v 0.4 0 0.5
v 0.2 0 0.2
v 0.7 0 -1.6
v 0.7 0 -0.8
v 0.6 0 -0.8
v 0.6 0 -1.6
v -0.7 0 -1.8
v -0.7 0 -1.2
v -0.8 0 -1.2
v -0.8 0 -1.8
v 0.6 0 -2
v 0.6 0 -0.5
v 0.5 0 -0.5
v 0.5 0 -2
v -0.6 0 -2.1
v -0.6 0 -0.6
v -0.7 0 -0.6
v -0.7 0 -2.1
v 0.5 0 -2.5
v 0.5 0 -0.3
v 0.4 0 -0.3
v 0.4 0 -2.5
v -0.5 0 -2.5
v -0.5 0 0.8
v -0.6 0 0.8
v -0.6 0 -2.5
v 0.4 0 -2.6
v 0.4 0 0
v 0.3 0 0
v 0.3 0 -2.6
v 0.3 0 0.2
v 0.2 0 -2.6
v 0.2 0 2.6
v -0.1 0 2.6
v -0.1 0 -2.6
v -0.1 0 2.5
v -0.3 0 2.5
v -0.3 0 -2.6
v -0.3 0 2.2
v -0.4 0 2.2
v -0.4 0 -2.6
v -0.4 0 1.4
v -0.5 0 1.4
v -0.5 0 -2.6
v -0.1 0.5 0.5
v -0.2 0.4 -0.5
v 0.2 0.4 1.5
v 0.2 0.6 1.6
v 0.1 0.6 1.4
v -0.1 0.6 -0.4

vt 0.0878906 0.5

vn 0 1 0
vn 0 -1 0
vn -1 0 0
vn 1 0 0
vn 0 0 -1
vn 0 0 1

usemtl palette
f 1/1/1 2/1/1 4/1/1
f 4/1/1 2/1/1 3/1/1
f 5/1/1 6/1/1 8/1/1
f 8/1/1 6/1/1 7/1/1
f 6/1/1 9/1/1 10/1/1
f 10/1/1 9/1/1 4/1/1
f 11/1/1 12/1/1 14/1/1
f 14/1/1 12/1/1 13/1/1
f 15/1/1 16/1/1 17/1/1
f 17/1/1 16/1/1 8/1/1
f 18/1/1 19/1/1 21/1/1
f 21/1/1 19/1/1 20/1/1
f 19/1/1 22/1/1 24/1/1
f 24/1/1 22/1/1 23/1/1
f 22/1/1 25/1/1 27/1/1
f 27/1/1 25/1/1 26/1/1
f 28/1/1 29/1/1 30/1/1
f 30/1/1 29/1/1 21/1/1
f 31/1/1 32/1/1 34/1/1
f 34/1/1 32/1/1 33/1/1
f 35/1/1 36/1/1 38/1/1
f 38/1/1 36/1/1 37/1/1
f 39/1/1 40/1/1 41/1/1
f 41/1/1 40/1/1 34/1/1
f 42/1/1 43/1/1 44/1/1
f 44/1/1 43/1/1 12/1/1
f 45/1/1 46/1/1 48/1/1
f 48/1/1 46/1/1 47/1/1
f 49/1/1 50/1/1 52/1/1
f 52/1/1 50/1/1 51/1/1
f 53/1/1 54/1/1 55/1/1
f 55/1/1 54/1/1 25/1/1
f 56/1/1 57/1/1 59/1/1
f 59/1/1 57/1/1 58/1/1
f 60/1/1 61/1/1 63/1/1
f 63/1/1 61/1/1 62/1/1
f 64/1/1 65/1/1 67/1/1
f 67/1/1 65/1/1 66/1/1
f 68/1/1 69/1/1 70/1/1
f 70/1/1 69/1/1 32/1/1
f 71/1/1 72/1/1 74/1/1
f 74/1/1 72/1/1 73/1/1
f 75/1/1 76/1/1 78/1/1
f 78/1/1 76/1/1 77/1/1
f 79/1/1 80/1/1 81/1/1
f 81/1/1 80/1/1 50/1/1
f 82/1/1 83/1/1 85/1/1
f 85/1/1 83/1/1 84/1/1
f 86/1/1 87/1/1 89/1/1
f 89/1/1 87/1/1 88/1/1
f 90/1/1 91/1/1 93/1/1
f 93/1/1 91/1/1 92/1/1
f 94/1/1 95/1/1 97/1/1
f 97/1/1 95/1/1 96/1/1
f 98/1/1 99/1/1 101/1/1
f 101/1/1 99/1/1 100/1/1
f 102/1/1 103/1/1 105/1/1
f 105/1/1 103/1/1 104/1/1
f 106/1/1 107/1/1 109/1/1
f 109/1/1 107/1/1 108/1/1
f 110/1/1 111/1/1 113/1/1
f 113/1/1 111/1/1 112/1/1
f 114/1/1 115/1/1 117/1/1
f 117/1/1 115/1/1 116/1/1
f 118/1/1 119/1/1 121/1/1
f 121/1/1 119/1/1 120/1/1
f 122/1/1 123/1/1 125/1/1
f 125/1/1 123/1/1 124/1/1
f 126/1/1 127/1/1 129/1/1
f 129/1/1 127/1/1 128/1/1
f 130/1/1 131/1/1 133/1/1
f 133/1/1 131/1/1 132/1/1
f 134/1/1 135/1/1 137/1/1
f 137/1/1 135/1/1 136/1/1
f 138/1/1 139/1/1 141/1/1
f 141/1/1 139/1/1 140/1/1
f 142/1/1 143/1/1 145/1/1
f 145/1/1 143/1/1 144/1/1
f 146/1/1 147/1/1 149/1/1
f 149/1/1 147/1/1 148/1/1
f 150/1/1 151/1/1 153/1/1
f 153/1/1 151/1/1 152/1/1
f 154/1/1 155/1/1 157/1/1
f 157/1/1 155/1/1 156/1/1
f 158/1/1 159/1/1 161/1/1
f 161/1/1 159/1/1 160/1/1
f 162/1/1 163/1/1 165/1/1
f 165/1/1 163/1/1 164/1/1
f 166/1/1 167/1/1 169/1/1
f 169/1/1 167/1/1 168/1/1
f 170/1/1 171/1/1 173/1/1
f 173/1/1 171/1/1 172/1/1
f 174/1/1 175/1/1 177/1/1
f 177/1/1 175/1/1 176/1/1
f 178/1/1 179/1/1 181/1/1
f 181/1/1 179/1/1 180/1/1
f 182/1/1 183/1/1 185/1/1
f 185/1/1 183/1/1 184/1/1
f 186/1/1 187/1/1 189/1/1
f 189/1/1 187/1/1 188/1/1
f 190/1/1 191/1/1 193/1/1
f 193/1/1 191/1/1 192/1/1
f 194/1/1 195/1/1 159/1/1
f 159/1/1 195/1/1 196/1/1
f 197/1/1 198/1/1 200/1/1
f 200/1/1 198/1/1 199/1/1
f 201/1/1 202/1/1 204/1/1
f 204/1/1 202/1/1 203/1/1
f 205/1/1 206/1/1 208/1/1
f 208/1/1 206/1/1 207/1/1
f 209/1/1 210/1/1 212/1/1
f 212/1/1 210/1/1 211/1/1
f 213/1/1 214/1/1 216/1/1
f 216/1/1 214/1/1 215/1/1
f 217/1/1 218/1/1 220/1/1
f 220/1/1 218/1/1 219/1/1
f 221/1/1 222/1/1 224/1/1
f 224/1/1 222/1/1 223/1/1
f 225/1/1 226/1/1 228/1/1
f 228/1/1 226/1/1 227/1/1
f 229/1/1 230/1/1 232/1/1
f 232/1/1 230/1/1 231/1/1
f 233/1/1 234/1/1 191/1/1
f 191/1/1 234/1/1 197/1/1
f 235/1/1 236/1/1 238/1/1
f 238/1/1 236/1/1 237/1/1
f 239/1/1 240/1/1 242/1/1
f 242/1/1 240/1/1 241/1/1
f 243/1/1 244/1/1 195/1/1
f 195/1/1 244/1/1 245/1/1
f 246/1/1 247/1/1 249/1/1
f 249/1/1 247/1/1 248/1/1
f 250/1/1 251/1/1 253/1/1
f 253/1/1 251/1/1 252/1/1
f 254/1/1 255/1/1 257/1/1
f 257/1/1 255/1/1 256/1/1
f 258/1/1 259/1/1 261/1/1
f 261/1/1 259/1/1 260/1/1
f 262/1/1 263/1/1 265/1/1
f 265/1/1 263/1/1 264/1/1
f 266/1/1 267/1/1 269/1/1
f 269/1/1 267/1/1 268/1/1
f 270/1/1 271/1/1 273/1/1
f 273/1/1 271/1/1 272/1/1
f 274/1/1 275/1/1 277/1/1
f 277/1/1 275/1/1 276/1/1
f 278/1/1 279/1/1 281/1/1
f 281/1/1 279/1/1 280/1/1
f 282/1/1 283/1/1 285/1/1
f 285/1/1 283/1/1 284/1/1
f 286/1/1 287/1/1 289/1/1
f 289/1/1 287/1/1 288/1/1
f 290/1/1 291/1/1 293/1/1
f 293/1/1 291/1/1 292/1/1
f 294/1/1 295/1/1 297/1/1
f 297/1/1 295/1/1 296/1/1
f 298/1/1 299/1/1 301/1/1
f 301/1/1 299/1/1 300/1/1
f 302/1/1 303/1/1 305/1/1
f 305/1/1 303/1/1 304/1/1
f 306/1/1 307/1/1 309/1/1
f 309/1/1 307/1/1 308/1/1
f 310/1/1 311/1/1 313/1/1
f 313/1/1 311/1/1 312/1/1
f 314/1/1 315/1/1 317/1/1
f 317/1/1 315/1/1 316/1/1
f 318/1/1 319/1/1 321/1/1
f 321/1/1 319/1/1 320/1/1
f 322/1/1 323/1/1 325/1/1
f 325/1/1 323/1/1 324/1/1
f 326/1/1 327/1/1 329/1/1
f 329/1/1 327/1/1 328/1/1
f 330/1/1 331/1/1 333/1/1
f 333/1/1 331/1/1 332/1/1
f 334/1/1 335/1/1 337/1/1
f 337/1/1 335/1/1 336/1/1
f 338/1/1 339/1/1 341/1/1
f 341/1/1 339/1/1 340/1/1
f 342/1/1 343/1/1 345/1/1
f 345/1/1 343/1/1 344/1/1
f 346/1/1 347/1/1 349/1/1
f 349/1/1 347/1/1 348/1/1
f 350/1/1 351/1/1 353/1/1
f 353/1/1 351/1/1 352/1/1
f 354/1/1 355/1/1 357/1/1
f 357/1/1 355/1/1 356/1/1
f 358/1/1 359/1/1 361/1/1
f 361/1/1 359/1/1 360/1/1
f 362/1/1 363/1/1 365/1/1
f 365/1/1 363/1/1 364/1/1
f 366/1/1 367/1/1 368/1/1
f 368/1/1 367/1/1 243/1/1
f 369/1/1 370/1/1 240/1/1
f 240/1/1 370/1/1 371/1/1
f 372/1/1 373/1/1 375/1/1
f 375/1/1 373/1/1 374/1/1
f 376/1/1 377/1/1 379/1/1
f 379/1/1 377/1/1 378/1/1
f 380/1/1 381/1/1 363/1/1
f 363/1/1 381/1/1 369/1/1
f 382/1/1 383/1/1 198/1/1
f 198/1/1 383/1/1 384/1/1
f 385/1/1 386/1/1 388/1/1
f 388/1/1 386/1/1 387/1/1
f 389/1/1 390/1/1 392/1/1
f 392/1/1 390/1/1 391/1/1
f 390/1/1 393/1/1 395/1/1
f 395/1/1 393/1/1 394/1/1
f 393/1/1 396/1/1 398/1/1
f 398/1/1 396/1/1 397/1/1
f 399/1/1 400/1/1 402/1/1
f 402/1/1 400/1/1 401/1/1
f 403/1/1 404/1/1 406/1/1
f 406/1/1 404/1/1 405/1/1
f 407/1/1 408/1/1 410/1/1
f 410/1/1 408/1/1 409/1/1
f 408/1/1 411/1/1 413/1/1
f 413/1/1 411/1/1 412/1/1
f 411/1/1 414/1/1 416/1/1
f 416/1/1 414/1/1 415/1/1
f 417/1/1 418/1/1 420/1/1
f 420/1/1 418/1/1 419/1/1
f 421/1/1 422/1/1 424/1/1
f 424/1/1 422/1/1 423/1/1
f 425/1/1 426/1/1 428/1/1
f 428/1/1 426/1/1 427/1/1
f 426/1/1 429/1/1 431/1/1
f 431/1/1 429/1/1 430/1/1
f 429/1/1 432/1/1 434/1/1
f 434/1/1 432/1/1 433/1/1
f 435/1/1 436/1/1 438/1/1
f 438/1/1 436/1/1 437/1/1
f 439/1/1 440/1/1 442/1/1
f 442/1/1 440/1/1 441/1/1
f 440/1/1 443/1/1 445/1/1
f 445/1/1 443/1/1 444/1/1
f 443/1/1 446/1/1 448/1/1
f 448/1/1 446/1/1 447/1/1
f 449/1/2 450/1/2 452/1/2
f 452/1/2 450/1/2 451/1/2
f 453/1/2 454/1/2 456/1/2
f 456/1/2 454/1/2 455/1/2
f 457/1/2 458/1/2 460/1/2
f 460/1/2 458/1/2 459/1/2
f 461/1/2 462/1/2 464/1/2
f 464/1/2 462/1/2 463/1/2
f 465/1/2 466/1/2 467/1/2
f 467/1/2 466/1/2 464/1/2
f 468/1/2 469/1/2 471/1/2
f 471/1/2 469/1/2 470/1/2
f 472/1/2 473/1/2 475/1/2
f 475/1/2 473/1/2 474/1/2
f 476/1/2 477/1/2 479/1/2
f 479/1/2 477/1/2 478/1/2
f 480/1/2 481/1/2 483/1/2
f 483/1/2 481/1/2 482/1/2
f 484/1/2 485/1/2 487/1/2
f 487/1/2 485/1/2 486/1/2
f 488/1/2 489/1/2 491/1/2
f 491/1/2 489/1/2 490/1/2
f 492/1/2 493/1/2 495/1/2
f 495/1/2 493/1/2 494/1/2
f 495/1/2 496/1/2 497/1/2
f 497/1/2 496/1/2 467/1/2
f 497/1/2 498/1/2 500/1/2
f 500/1/2 498/1/2 499/1/2
f 500/1/2 501/1/2 503/1/2
f 503/1/2 501/1/2 502/1/2
f 503/1/2 504/1/2 506/1/2
f 506/1/2 504/1/2 505/1/2
f 506/1/2 507/1/2 509/1/2
f 509/1/2 507/1/2 508/1/2
f 3/1/3 2/1/3 499/1/3
f 499/1/3 2/1/3 501/1/3
f 13/1/3 129/1/3 502/1/3
f 502/1/3 129/1/3 504/1/3
f 128/1/3 177/1/3 505/1/3
f 505/1/3 177/1/3 507/1/3
f 176/1/3 265/1/3 508/1/3
f 508/1/3 265/1/3 489/1/3
f 264/1/3 301/1/3 490/1/3
f 490/1/3 301/1/3 481/1/3
f 300/1/3 345/1/3 482/1/3
f 482/1/3 345/1/3 473/1/3
f 344/1/3 343/1/3 474/1/3
f 474/1/3 343/1/3 475/1/3
f 342/1/3 373/1/3 472/1/3
f 472/1/3 373/1/3 483/1/3
f 372/1/3 436/1/3 480/1/3
f 480/1/3 436/1/3 491/1/3
f 435/1/3 446/1/3 488/1/3
f 488/1/3 446/1/3 509/1/3
f 23/1/3 27/1/3 14/1/3
f 14/1/3 27/1/3 11/1/3
f 26/1/3 141/1/3 44/1/3
f 44/1/3 141/1/3 42/1/3
f 140/1/3 185/1/3 43/1/3
f 43/1/3 185/1/3 126/1/3
f 184/1/3 273/1/3 127/1/3
f 127/1/3 273/1/3 174/1/3
f 272/1/3 309/1/3 175/1/3
f 175/1/3 309/1/3 262/1/3
f 308/1/3 337/1/3 263/1/3
f 263/1/3 337/1/3 298/1/3
f 336/1/3 335/1/3 299/1/3
f 299/1/3 335/1/3 374/1/3
f 334/1/3 359/1/3 375/1/3
f 375/1/3 359/1/3 437/1/3
f 358/1/3 418/1/3 438/1/3
f 438/1/3 418/1/3 447/1/3
f 417/1/3 432/1/3 448/1/3
f 448/1/3 432/1/3 444/1/3
f 33/1/3 149/1/3 55/1/3
f 55/1/3 149/1/3 53/1/3
f 148/1/3 204/1/3 54/1/3
f 54/1/3 204/1/3 138/1/3
f 203/1/3 402/1/3 139/1/3
f 139/1/3 402/1/3 182/1/3
f 401/1/3 353/1/3 183/1/3
f 183/1/3 353/1/3 270/1/3
f 352/1/3 329/1/3 271/1/3
f 271/1/3 329/1/3 306/1/3
f 328/1/3 327/1/3 307/1/3
f 307/1/3 327/1/3 360/1/3
f 326/1/3 351/1/3 361/1/3
f 361/1/3 351/1/3 419/1/3
f 350/1/3 400/1/3 420/1/3
f 420/1/3 400/1/3 433/1/3
f 399/1/3 414/1/3 434/1/3
f 434/1/3 414/1/3 430/1/3
f 51/1/3 157/1/3 70/1/3
f 70/1/3 157/1/3 68/1/3
f 156/1/3 200/1/3 69/1/3
f 69/1/3 200/1/3 146/1/3
f 199/1/3 198/1/3 147/1/3
f 147/1/3 198/1/3 201/1/3
f 384/1/3 383/1/3 202/1/3
f 202/1/3 383/1/3 415/1/3
f 382/1/3 396/1/3 416/1/3
f 416/1/3 396/1/3 412/1/3
f 66/1/3 85/1/3 81/1/3
f 81/1/3 85/1/3 79/1/3
f 84/1/3 165/1/3 80/1/3
f 80/1/3 165/1/3 154/1/3
f 164/1/3 510/1/3 155/1/3
f 155/1/3 510/1/3 197/1/3
f 371/1/3 370/1/3 511/1/3
f 511/1/3 370/1/3 397/1/3
f 369/1/3 381/1/3 398/1/3
f 398/1/3 381/1/3 394/1/3
f 104/1/3 161/1/3 65/1/3
f 65/1/3 161/1/3 82/1/3
f 160/1/3 159/1/3 83/1/3
f 83/1/3 159/1/3 162/1/3
f 196/1/3 195/1/3 163/1/3
f 163/1/3 195/1/3 510/1/3
f 245/1/3 244/1/3 198/1/3
f 198/1/3 244/1/3 511/1/3
f 243/1/3 367/1/3 240/1/3
f 240/1/3 367/1/3 369/1/3
f 10/1/4 498/1/4 7/1/4
f 7/1/4 498/1/4 463/1/4
f 17/1/4 462/1/4 37/1/4
f 37/1/4 462/1/4 459/1/4
f 38/1/4 458/1/4 58/1/4
f 58/1/4 458/1/4 455/1/4
f 59/1/4 454/1/4 108/1/4
f 108/1/4 454/1/4 451/1/4
f 109/1/4 450/1/4 106/1/4
f 106/1/4 450/1/4 449/1/4
f 107/1/4 452/1/4 130/1/4
f 130/1/4 452/1/4 453/1/4
f 131/1/4 456/1/4 150/1/4
f 150/1/4 456/1/4 457/1/4
f 151/1/4 460/1/4 186/1/4
f 186/1/4 460/1/4 461/1/4
f 187/1/4 466/1/4 213/1/4
f 213/1/4 466/1/4 465/1/4
f 214/1/4 496/1/4 231/1/4
f 231/1/4 496/1/4 494/1/4
f 232/1/4 493/1/4 248/1/4
f 248/1/4 493/1/4 486/1/4
f 249/1/4 485/1/4 276/1/4
f 276/1/4 485/1/4 478/1/4
f 277/1/4 477/1/4 320/1/4
f 320/1/4 477/1/4 470/1/4
f 321/1/4 469/1/4 318/1/4
f 318/1/4 469/1/4 468/1/4
f 319/1/4 471/1/4 354/1/4
f 354/1/4 471/1/4 476/1/4
f 355/1/4 479/1/4 421/1/4
f 421/1/4 479/1/4 484/1/4
f 422/1/4 487/1/4 439/1/4
f 439/1/4 487/1/4 492/1/4
f 24/1/4 1/1/4 20/1/4
f 20/1/4 1/1/4 9/1/4
f 30/1/4 5/1/4 47/1/4
f 47/1/4 5/1/4 16/1/4
f 48/1/4 15/1/4 73/1/4
f 73/1/4 15/1/4 36/1/4
f 74/1/4 35/1/4 96/1/4
f 96/1/4 35/1/4 57/1/4
f 97/1/4 56/1/4 94/1/4
f 94/1/4 56/1/4 133/1/4
f 95/1/4 132/1/4 118/1/4
f 118/1/4 132/1/4 153/1/4
f 119/1/4 152/1/4 142/1/4
f 142/1/4 152/1/4 189/1/4
f 143/1/4 188/1/4 178/1/4
f 178/1/4 188/1/4 216/1/4
f 179/1/4 215/1/4 209/1/4
f 209/1/4 215/1/4 220/1/4
f 210/1/4 219/1/4 237/1/4
f 237/1/4 219/1/4 218/1/4
f 238/1/4 217/1/4 256/1/4
f 256/1/4 217/1/4 230/1/4
f 257/1/4 229/1/4 284/1/4
f 284/1/4 229/1/4 247/1/4
f 285/1/4 246/1/4 312/1/4
f 312/1/4 246/1/4 275/1/4
f 313/1/4 274/1/4 310/1/4
f 310/1/4 274/1/4 357/1/4
f 311/1/4 356/1/4 346/1/4
f 346/1/4 356/1/4 424/1/4
f 347/1/4 423/1/4 403/1/4
f 403/1/4 423/1/4 442/1/4
f 404/1/4 441/1/4 425/1/4
f 425/1/4 441/1/4 445/1/4
f 41/1/4 18/1/4 62/1/4
f 62/1/4 18/1/4 29/1/4
f 63/1/4 28/1/4 112/1/4
f 112/1/4 28/1/4 46/1/4
f 113/1/4 45/1/4 88/1/4
f 88/1/4 45/1/4 72/1/4
f 89/1/4 71/1/4 86/1/4
f 86/1/4 71/1/4 121/1/4
f 87/1/4 120/1/4 110/1/4
f 110/1/4 120/1/4 145/1/4
f 111/1/4 144/1/4 134/1/4
f 134/1/4 144/1/4 181/1/4
f 135/1/4 180/1/4 170/1/4
f 170/1/4 180/1/4 212/1/4
f 171/1/4 211/1/4 205/1/4
f 205/1/4 211/1/4 224/1/4
f 206/1/4 223/1/4 252/1/4
f 252/1/4 223/1/4 222/1/4
f 253/1/4 221/1/4 268/1/4
f 268/1/4 221/1/4 236/1/4
f 269/1/4 235/1/4 292/1/4
f 292/1/4 235/1/4 255/1/4
f 293/1/4 254/1/4 304/1/4
f 304/1/4 254/1/4 283/1/4
f 305/1/4 282/1/4 302/1/4
f 302/1/4 282/1/4 349/1/4
f 303/1/4 348/1/4 338/1/4
f 338/1/4 348/1/4 406/1/4
f 339/1/4 405/1/4 385/1/4
f 385/1/4 405/1/4 428/1/4
f 386/1/4 427/1/4 407/1/4
f 407/1/4 427/1/4 431/1/4
f 52/1/4 31/1/4 77/1/4
f 77/1/4 31/1/4 40/1/4
f 78/1/4 39/1/4 100/1/4
f 100/1/4 39/1/4 61/1/4
f 101/1/4 60/1/4 98/1/4
f 98/1/4 60/1/4 137/1/4
f 99/1/4 136/1/4 122/1/4
f 122/1/4 136/1/4 173/1/4
f 123/1/4 172/1/4 166/1/4
f 166/1/4 172/1/4 208/1/4
f 167/1/4 207/1/4 190/1/4
f 190/1/4 207/1/4 228/1/4
f 191/1/4 227/1/4 260/1/4
f 260/1/4 227/1/4 226/1/4
f 261/1/4 225/1/4 280/1/4
f 280/1/4 225/1/4 251/1/4
f 281/1/4 250/1/4 332/1/4
f 332/1/4 250/1/4 267/1/4
f 333/1/4 266/1/4 296/1/4
f 296/1/4 266/1/4 291/1/4
f 297/1/4 290/1/4 294/1/4
f 294/1/4 290/1/4 341/1/4
f 295/1/4 340/1/4 330/1/4
f 330/1/4 340/1/4 388/1/4
f 331/1/4 387/1/4 376/1/4
f 376/1/4 387/1/4 410/1/4
f 377/1/4 409/1/4 389/1/4
f 389/1/4 409/1/4 413/1/4
f 67/1/4 49/1/4 92/1/4
f 92/1/4 49/1/4 76/1/4
f 93/1/4 75/1/4 90/1/4
f 90/1/4 75/1/4 125/1/4
f 117/1/4 512/1/4 114/1/4
f 114/1/4 512/1/4 169/1/4
f 242/1/4 233/1/4 288/1/4
f 288/1/4 233/1/4 259/1/4
f 289/1/4 258/1/4 324/1/4
f 324/1/4 258/1/4 279/1/4
f 325/1/4 278/1/4 322/1/4
f 322/1/4 278/1/4 379/1/4
f 323/1/4 378/1/4 362/1/4
f 362/1/4 378/1/4 392/1/4
f 363/1/4 391/1/4 380/1/4
f 380/1/4 391/1/4 395/1/4
f 105/1/4 64/1/4 513/1/4
f 513/1/4 64/1/4 91/1/4
f 513/1/4 124/1/4 102/1/4
f 102/1/4 124/1/4 512/1/4
f 103/1/4 116/1/4 514/1/4
f 514/1/4 116/1/4 115/1/4
f 514/1/4 168/1/4 158/1/4
f 158/1/4 168/1/4 193/1/4
f 159/1/4 192/1/4 194/1/4
f 194/1/4 192/1/4 191/1/4
f 195/1/4 197/1/4 515/1/4
f 515/1/4 197/1/4 234/1/4
f 515/1/4 241/1/4 243/1/4
f 243/1/4 241/1/4 240/1/4
f 368/1/4 239/1/4 316/1/4
f 316/1/4 239/1/4 287/1/4
f 317/1/4 286/1/4 314/1/4
f 314/1/4 286/1/4 365/1/4
f 315/1/4 364/1/4 366/1/4
f 366/1/4 364/1/4 363/1/4
f 452/1/5 107/1/5 449/1/5
f 449/1/5 107/1/5 106/1/5
f 456/1/5 131/1/5 453/1/5
f 453/1/5 131/1/5 130/1/5
f 471/1/5 319/1/5 468/1/5
f 468/1/5 319/1/5 318/1/5
f 132/1/5 95/1/5 133/1/5
f 133/1/5 95/1/5 94/1/5
f 460/1/5 151/1/5 457/1/5
f 457/1/5 151/1/5 150/1/5
f 479/1/5 355/1/5 476/1/5
f 476/1/5 355/1/5 354/1/5
f 152/1/5 119/1/5 153/1/5
f 153/1/5 119/1/5 118/1/5
f 356/1/5 311/1/5 357/1/5
f 357/1/5 311/1/5 310/1/5
f 120/1/5 87/1/5 121/1/5
f 121/1/5 87/1/5 86/1/5
f 466/1/5 187/1/5 461/1/5
f 461/1/5 187/1/5 186/1/5
f 487/1/5 422/1/5 484/1/5
f 484/1/5 422/1/5 421/1/5
f 188/1/5 143/1/5 189/1/5
f 189/1/5 143/1/5 142/1/5
f 423/1/5 347/1/5 424/1/5
f 424/1/5 347/1/5 346/1/5
f 144/1/5 111/1/5 145/1/5
f 145/1/5 111/1/5 110/1/5
f 348/1/5 303/1/5 349/1/5
f 349/1/5 303/1/5 302/1/5
f 496/1/5 214/1/5 465/1/5
f 465/1/5 214/1/5 213/1/5
f 215/1/5 179/1/5 216/1/5
f 216/1/5 179/1/5 178/1/5
f 441/1/5 404/1/5 442/1/5
f 442/1/5 404/1/5 403/1/5
f 180/1/5 135/1/5 181/1/5
f 181/1/5 135/1/5 134/1/5
f 405/1/5 339/1/5 406/1/5
f 406/1/5 339/1/5 338/1/5
f 136/1/5 99/1/5 137/1/5
f 137/1/5 99/1/5 98/1/5
f 340/1/5 295/1/5 341/1/5
f 341/1/5 295/1/5 294/1/5
f 219/1/5 210/1/5 220/1/5
f 220/1/5 210/1/5 209/1/5
f 211/1/5 171/1/5 212/1/5
f 212/1/5 171/1/5 170/1/5
f 427/1/5 386/1/5 428/1/5
f 428/1/5 386/1/5 385/1/5
f 172/1/5 123/1/5 173/1/5
f 173/1/5 123/1/5 122/1/5
f 387/1/5 331/1/5 388/1/5
f 388/1/5 331/1/5 330/1/5
f 124/1/5 91/1/5 125/1/5
f 125/1/5 91/1/5 90/1/5
f 223/1/5 206/1/5 224/1/5
f 224/1/5 206/1/5 205/1/5
f 207/1/5 167/1/5 208/1/5
f 208/1/5 167/1/5 166/1/5
f 409/1/5 377/1/5 410/1/5
f 410/1/5 377/1/5 376/1/5
f 168/1/5 115/1/5 169/1/5
f 169/1/5 115/1/5 114/1/5
f 378/1/5 323/1/5 379/1/5
f 379/1/5 323/1/5 322/1/5
f 116/1/5 103/1/5 117/1/5
f 117/1/5 103/1/5 102/1/5
f 227/1/5 191/1/5 228/1/5
f 228/1/5 191/1/5 190/1/5
f 391/1/5 363/1/5 392/1/5
f 392/1/5 363/1/5 362/1/5
f 192/1/5 159/1/5 193/1/5
f 193/1/5 159/1/5 158/1/5
f 364/1/5 315/1/5 365/1/5
f 365/1/5 315/1/5 314/1/5
f 394/1/5 381/1/5 395/1/5
f 395/1/5 381/1/5 380/1/5
f 197/1/5 195/1/5 191/1/5
f 191/1/5 195/1/5 194/1/5
f 369/1/5 367/1/5 363/1/5
f 363/1/5 367/1/5 366/1/5
f 412/1/5 396/1/5 413/1/5
f 413/1/5 396/1/5 389/1/5
f 397/1/5 370/1/5 398/1/5
f 398/1/5 370/1/5 369/1/5
f 371/1/5 244/1/5 240/1/5
f 240/1/5 244/1/5 243/1/5
f 430/1/5 414/1/5 431/1/5
f 431/1/5 414/1/5 407/1/5
f 415/1/5 383/1/5 416/1/5
f 416/1/5 383/1/5 382/1/5
f 444/1/5 432/1/5 445/1/5
f 445/1/5 432/1/5 425/1/5
f 433/1/5 400/1/5 434/1/5
f 434/1/5 400/1/5 399/1/5
f 509/1/5 446/1/5 492/1/5
f 492/1/5 446/1/5 439/1/5
f 447/1/5 418/1/5 448/1/5
f 448/1/5 418/1/5 417/1/5
f 419/1/5 351/1/5 420/1/5
f 420/1/5 351/1/5 350/1/5
f 491/1/5 436/1/5 488/1/5
f 488/1/5 436/1/5 435/1/5
f 437/1/5 359/1/5 438/1/5
f 438/1/5 359/1/5 358/1/5
f 360/1/5 327/1/5 361/1/5
f 361/1/5 327/1/5 326/1/5
f 483/1/5 373/1/5 480/1/5
f 480/1/5 373/1/5 372/1/5
f 374/1/5 335/1/5 375/1/5
f 375/1/5 335/1/5 334/1/5
f 475/1/5 343/1/5 472/1/5
f 472/1/5 343/1/5 342/1/5
f 451/1/6 450/1/6 108/1/6
f 108/1/6 450/1/6 109/1/6
f 455/1/6 454/1/6 58/1/6
f 58/1/6 454/1/6 59/1/6
f 470/1/6 469/1/6 320/1/6
f 320/1/6 469/1/6 321/1/6
f 57/1/6 56/1/6 96/1/6
f 96/1/6 56/1/6 97/1/6
f 459/1/6 458/1/6 37/1/6
f 37/1/6 458/1/6 38/1/6
f 478/1/6 477/1/6 276/1/6
f 276/1/6 477/1/6 277/1/6
f 36/1/6 35/1/6 73/1/6
f 73/1/6 35/1/6 74/1/6
f 275/1/6 274/1/6 312/1/6
f 312/1/6 274/1/6 313/1/6
f 72/1/6 71/1/6 88/1/6
f 88/1/6 71/1/6 89/1/6
f 486/1/6 485/1/6 248/1/6
f 248/1/6 485/1/6 249/1/6
f 16/1/6 15/1/6 47/1/6
f 47/1/6 15/1/6 48/1/6
f 247/1/6 246/1/6 284/1/6
f 284/1/6 246/1/6 285/1/6
f 46/1/6 45/1/6 112/1/6
f 112/1/6 45/1/6 113/1/6
f 283/1/6 282/1/6 304/1/6
f 304/1/6 282/1/6 305/1/6
f 494/1/6 493/1/6 231/1/6
f 231/1/6 493/1/6 232/1/6
f 230/1/6 229/1/6 256/1/6
f 256/1/6 229/1/6 257/1/6
f 29/1/6 28/1/6 62/1/6
f 62/1/6 28/1/6 63/1/6
f 255/1/6 254/1/6 292/1/6
f 292/1/6 254/1/6 293/1/6
f 61/1/6 60/1/6 100/1/6
f 100/1/6 60/1/6 101/1/6
f 291/1/6 290/1/6 296/1/6
f 296/1/6 290/1/6 297/1/6
f 463/1/6 462/1/6 7/1/6
f 7/1/6 462/1/6 17/1/6
f 218/1/6 217/1/6 237/1/6
f 237/1/6 217/1/6 238/1/6
f 236/1/6 235/1/6 268/1/6
f 268/1/6 235/1/6 269/1/6
f 40/1/6 39/1/6 77/1/6
f 77/1/6 39/1/6 78/1/6
f 267/1/6 266/1/6 332/1/6
f 332/1/6 266/1/6 333/1/6
f 76/1/6 75/1/6 92/1/6
f 92/1/6 75/1/6 93/1/6
f 9/1/6 5/1/6 20/1/6
f 20/1/6 5/1/6 30/1/6
f 222/1/6 221/1/6 252/1/6
f 252/1/6 221/1/6 253/1/6
f 251/1/6 250/1/6 280/1/6
f 280/1/6 250/1/6 281/1/6
f 81/1/6 49/1/6 66/1/6
f 66/1/6 49/1/6 67/1/6
f 279/1/6 278/1/6 324/1/6
f 324/1/6 278/1/6 325/1/6
f 65/1/6 64/1/6 104/1/6
f 104/1/6 64/1/6 105/1/6
f 14/1/6 1/1/6 23/1/6
f 23/1/6 1/1/6 24/1/6
f 70/1/6 31/1/6 51/1/6
f 51/1/6 31/1/6 52/1/6
f 226/1/6 225/1/6 260/1/6
f 260/1/6 225/1/6 261/1/6
f 80/1/6 79/1/6 84/1/6
f 84/1/6 79/1/6 85/1/6
f 259/1/6 258/1/6 288/1/6
f 288/1/6 258/1/6 289/1/6
f 83/1/6 82/1/6 160/1/6
f 160/1/6 82/1/6 161/1/6
f 287/1/6 286/1/6 316/1/6
f 316/1/6 286/1/6 317/1/6
f 499/1/6 498/1/6 3/1/6
f 3/1/6 498/1/6 10/1/6
f 55/1/6 18/1/6 33/1/6
f 33/1/6 18/1/6 41/1/6
f 69/1/6 68/1/6 156/1/6
f 156/1/6 68/1/6 157/1/6
f 155/1/6 154/1/6 164/1/6
f 164/1/6 154/1/6 165/1/6
f 234/1/6 233/1/6 241/1/6
f 241/1/6 233/1/6 242/1/6
f 163/1/6 162/1/6 196/1/6
f 196/1/6 162/1/6 159/1/6
f 240/1/6 239/1/6 243/1/6
f 243/1/6 239/1/6 368/1/6
f 44/1/6 11/1/6 26/1/6
f 26/1/6 11/1/6 27/1/6
f 54/1/6 53/1/6 148/1/6
f 148/1/6 53/1/6 149/1/6
f 147/1/6 146/1/6 199/1/6
f 199/1/6 146/1/6 200/1/6
f 198/1/6 197/1/6 245/1/6
f 245/1/6 197/1/6 195/1/6
f 502/1/6 501/1/6 13/1/6
f 13/1/6 501/1/6 2/1/6
f 43/1/6 42/1/6 140/1/6
f 140/1/6 42/1/6 141/1/6
f 139/1/6 138/1/6 203/1/6
f 203/1/6 138/1/6 204/1/6
f 202/1/6 201/1/6 384/1/6
f 384/1/6 201/1/6 198/1/6
f 505/1/6 504/1/6 128/1/6
f 128/1/6 504/1/6 129/1/6
f 127/1/6 126/1/6 184/1/6
f 184/1/6 126/1/6 185/1/6
f 183/1/6 182/1/6 401/1/6
f 401/1/6 182/1/6 402/1/6
f 508/1/6 507/1/6 176/1/6
f 176/1/6 507/1/6 177/1/6
f 175/1/6 174/1/6 272/1/6
f 272/1/6 174/1/6 273/1/6
f 271/1/6 270/1/6 352/1/6
f 352/1/6 270/1/6 353/1/6
f 490/1/6 489/1/6 264/1/6
f 264/1/6 489/1/6 265/1/6
f 263/1/6 262/1/6 308/1/6
f 308/1/6 262/1/6 309/1/6
f 307/1/6 306/1/6 328/1/6
f 328/1/6 306/1/6 329/1/6
f 482/1/6 481/1/6 300/1/6
f 300/1/6 481/1/6 301/1/6
f 299/1/6 298/1/6 336/1/6
f 336/1/6 298/1/6 337/1/6
f 474/1/6 473/1/6 344/1/6
f 344/1/6 473/1/6 345/1/6
