# Vengi binary mesh normalized for Tanks of Freedom II

mtllib ../../../materials/vox_grass.mtl
o dune_3

v 0.4 0.1 1.2
v -0.7 0.1 1.2
v -0.7 0.1 1.3
v 0.4 0.1 1.3
v 0.5 0.1 1.1
v 0.4 0.1 1.1
v 0.5 0.1 1.2
v 0.4 0.2 1.1
v -0.7 0.2 1.1
v -0.7 0.2 1.2
v 0.4 0.2 1.2
v -0.7 0.1 1.1
v -0.8 0.1 1.1
v -0.8 0.1 1.2
v 0.7 0.1 1
v 0.5 0.1 1
v 0.7 0.1 1.1
v 0.5 0.2 1
v 0.4 0.2 1
v 0.5 0.2 1.1
v 0.4 0.3 1
v -0.7 0.3 1
v -0.7 0.3 1.1
v 0.4 0.3 1.1
v -0.7 0.2 1
v -0.8 0.2 1
v -0.8 0.2 1.1
v -0.8 0.1 1
v -0.9 0.1 1
v -0.9 0.1 1.1
v 0.8 0.1 0.9
v 0.7 0.1 0.9
v 0.8 0.1 1
v 0.7 0.2 0.9
v 0.5 0.2 0.9
v 0.7 0.2 1
v 0.5 0.3 0.9
v 0.4 0.3 0.9
v 0.5 0.3 1
v 0.2 0.3 0.9
v -0.8 0.3 0.9
v -0.8 0.3 1
v 0.2 0.3 1
v -0.8 0.2 0.9
v -0.9 0.2 0.9
v -0.9 0.2 1
v -0.9 0.1 0.9
v -1 0.1 0.9
v -1 0.1 1
v 0.9 0.1 0.8
v 0.8 0.1 0.8
v 0.9 0.1 0.9
v 0.8 0.2 0.8
v 0.7 0.2 0.8
v 0.8 0.2 0.9
v 0.7 0.3 0.8
v 0.5 0.3 0.8
v 0.7 0.3 0.9
v 0.5 0.4 0.8
v 0.4 0.4 0.8
v 0.4 0.4 0.9
v 0.5 0.4 0.9
v 0.3 0.4 0.8
v 0.3 0.4 1
v 0.4 0.4 1
v 0.3 0.3 0.8
v 0.2 0.3 0.8
v 0.3 0.3 1
v -0.7 0.3 0.8
v -0.9 0.3 0.8
v -0.9 0.3 0.9
v -0.7 0.3 0.9
v -0.9 0.2 0.8
v -1 0.2 0.8
v -1 0.2 0.9
v 0.6 0.4 0.7
v 0.5 0.4 0.7
v 0.6 0.4 0.8
v 0.5 0.3 0.7
v 0.3 0.3 0.7
v 0.1 0.2 0.7
v -0.7 0.2 0.7
v -0.7 0.2 0.9
v 0.1 0.2 0.9
v -0.8 0.2 0.7
v -0.8 0.2 0.8
v -0.7 0.2 0.8
v -0.8 0.3 0.7
v -1 0.3 0.7
v -1 0.3 0.8
v -0.8 0.3 0.8
v -1 0.1 0.7
v -1.1 0.1 0.7
v -1.1 0.1 0.9
v 1 0.1 0.6
v 0.9 0.1 0.6
v 1 0.1 0.8
v 0.9 0.2 0.6
v 0.8 0.2 0.6
v 0.9 0.2 0.8
v 0.8 0.3 0.6
v 0.7 0.3 0.6
v 0.8 0.3 0.8
v 0.7 0.4 0.6
v 0.6 0.4 0.6
v 0.7 0.4 0.8
v 0.6 0.3 0.6
v 0.5 0.3 0.6
v 0.6 0.3 0.7
v 0.2 0.2 0.6
v 0.1 0.2 0.6
v 0.2 0.2 0.9
v -0.8 0.2 0.6
v -0.9 0.2 0.6
v -0.9 0.2 0.7
v -0.9 0.3 0.6
v -1 0.3 0.6
v -0.9 0.3 0.7
v 0.8 0.4 0.5
v 0.7 0.4 0.5
v 0.8 0.4 0.6
v 0.7 0.3 0.5
v 0.6 0.3 0.5
v 0.4 0.2 0.5
v 0.3 0.2 0.5
v 0.3 0.2 0.7
v 0.4 0.2 0.7
v 0.2 0.2 0.5
v 0.2 0.2 0.8
v 0.3 0.2 0.8
v -0.1 0.1 0.5
v -0.8 0.1 0.5
v -0.8 0.1 0.7
v -0.1 0.1 0.7
v -1 0.2 0.5
v -1.1 0.2 0.5
v -1.1 0.2 0.7
v -1 0.2 0.7
v -1.1 0.1 0.5
v -1.2 0.1 0.5
v -1.2 0.1 0.7
v 0.5 0.2 0.4
v 0.4 0.2 0.4
v 0.5 0.2 0.7
v 0.1 0.1 0.4
v -0.1 0.1 0.4
v 0.1 0.1 0.7
v -0.8 0.1 0.4
v -1 0.1 0.4
v -1 0.1 0.6
v -0.8 0.1 0.6
v -1.1 0.2 0.4
v -1.2 0.2 0.4
v -1.2 0.2 0.5
v -1.2 0.1 0.4
v -1.3 0.1 0.4
v -1.3 0.1 0.6
v -1.2 0.1 0.6
v 1.1 0.1 0.3
v 1 0.1 0.3
v 1.1 0.1 0.6
v 1 0.2 0.3
v 0.9 0.2 0.3
v 1 0.2 0.6
v 0.8 0.3 0.3
v 0.7 0.3 0.3
v 0.8 0.3 0.5
v 0.6 0.2 0.3
v 0.5 0.2 0.3
v 0.5 0.2 0.6
v 0.6 0.2 0.6
v 0.4 0.1 0.3
v 0.2 0.1 0.3
v 0.2 0.1 0.5
v 0.4 0.1 0.5
v 0.1 0.1 0.3
v 0.1 0.1 0.6
v 0.2 0.1 0.6
v -1 0.1 0.3
v -1.1 0.1 0.3
v -1 0.1 0.5
v -1.2 0.1 0.3
v -1.1 0.1 0.4
v 0.9 0.3 0
v 0.8 0.3 0
v 0.9 0.3 0.6
v 0.7 0.2 0
v 0.6 0.2 0
v 0.6 0.2 0.5
v 0.7 0.2 0.5
v 0.5 0.1 -0.1
v 0.4 0.1 -0.1
v 0.4 0.1 0.4
v 0.5 0.1 0.4
v 1.2 0.1 -0.2
v 1.1 0.1 -0.2
v 1.2 0.1 0.3
v 0.8 0.2 -0.2
v 0.7 0.2 -0.2
v 0.7 0.2 0.3
v 0.8 0.2 0.3
v 1.1 0.2 -0.3
v 1 0.2 -0.3
v 1.1 0.2 0.3
v 1 0.3 -0.3
v 0.9 0.3 -0.3
v 0.9 0.3 0.3
v 1 0.3 0.3
v 0.9 0.2 -0.3
v 0.8 0.2 -0.3
v 0.8 0.2 0
v 0.9 0.2 0
v 0.7 0.1 -0.4
v 0.6 0.1 -0.4
v 0.6 0.1 0
v 0.7 0.1 0
v 0.5 0.1 -0.4
v 0.5 0.1 0.3
v 0.6 0.1 0.3
v 1.3 0.1 -0.9
v 1.2 0.1 -0.9
v 1.3 0.1 -0.2
v 1.2 0.2 -0.9
v 1.1 0.2 -0.9
v 1.1 0.2 -0.2
v 1.2 0.2 -0.2
v 1.1 0.3 -0.9
v 1 0.3 -0.9
v 1.1 0.3 -0.3
v 1 0.2 -0.9
v 0.9 0.2 -0.9
v 0.9 0.1 -0.9
v 0.8 0.1 -0.9
v 0.8 0.1 -0.3
v 0.9 0.1 -0.3
v 1.2 0.1 -1
v 1.1 0.1 -1
v 1.1 0.1 -0.9
v 1.1 0.2 -1
v 1 0.2 -1
v 1 0.3 -1
v 0.9 0.3 -1
v 0.9 0.3 -0.9
v 0.9 0.2 -1
v 0.8 0.2 -1
v 0.8 0.2 -0.9
v 0.8 0.1 -1
v 0.7 0.1 -1
v 0.7 0.1 -0.2
v 0.8 0.1 -0.2
v 1.1 0.1 -1.1
v 1 0.1 -1.1
v 1 0.1 -1
v 1 0.2 -1.1
v 0.9 0.2 -1.1
v 0.9 0.3 -1.1
v 0.8 0.3 -1.1
v 0.8 0.3 -1
v 1 0.1 -1.2
v 0.9 0.1 -1.2
v 0.9 0.1 -1.1
v 0.9 0.2 -1.2
v 0.8 0.2 -1.2
v 0.8 0.2 -1.1
v 0.7 0.2 -1.2
v 0.7 0.2 -1
v 0.6 0.1 -1.2
v 0.5 0.1 -1.2
v 0.5 0.1 -1
v 0.6 0.1 -1
v 0.9 0.1 -1.3
v 0.7 0.1 -1.3
v 0.7 0.1 -1.2
v 0.6 0.1 -1.3
v 0.6 0.1 -0.9
v 0.7 0.1 -0.9
v -0.1 0 0.5
v -0.1 0 1.3
v -0.7 0 1.3
v -0.7 0 0.5
v -0.7 0 1.2
v -0.8 0 1.2
v -0.8 0 0.5
v 0.1 0 0.4
v 0.1 0 1.3
v -0.1 0 0.4
v -0.8 0 0.4
v -0.8 0 1.1
v -0.9 0 1.1
v -0.9 0 0.4
v -0.9 0 1
v -1 0 1
v -1 0 0.4
v -1.2 0 0.4
v -1.2 0 0.6
v -1.3 0 0.6
v -1.3 0 0.4
v 0.4 0 0.3
v 0.4 0 1.3
v 0.1 0 0.3
v -1 0 0.3
v -1 0 0.9
v -1.1 0 0.9
v -1.1 0 0.3
v -1.1 0 0.7
v -1.2 0 0.7
v -1.2 0 0.3
v 0.5 0 -0.1
v 0.5 0 1.2
v 0.4 0 1.2
v 0.4 0 -0.1
v 0.7 0 -0.4
v 0.7 0 1.1
v 0.5 0 1.1
v 0.5 0 -0.4
v 1.3 0 -0.9
v 1.3 0 -0.2
v 1.2 0 -0.2
v 1.2 0 -0.9
v 1.2 0 -1
v 1.2 0 0.3
v 1.1 0 0.3
v 1.1 0 -1
v 1.1 0 -1.1
v 1.1 0 0.6
v 1 0 0.6
v 1 0 -1.1
v 1 0 -1.2
v 1 0 0.8
v 0.9 0 0.8
v 0.9 0 -1.2
v 0.6 0 -1.2
v 0.6 0 -1
v 0.5 0 -1
v 0.5 0 -1.2
v 0.9 0 -1.3
v 0.9 0 0.9
v 0.8 0 0.9
v 0.8 0 -1.3
v 0.8 0 1
v 0.7 0 1
v 0.7 0 -1.3
v 0.7 0 -0.9
v 0.6 0 -0.9
v 0.6 0 -1.3
v -1 0.2 0.6

vt 0.0878906 0.5

vn 0 1 0
vn 0 -1 0
vn -1 0 0
vn 1 0 0
vn 0 0 -1
vn 0 0 1

usemtl palette
f 1/1/1 2/1/1 4/1/1
f 4/1/1 2/1/1 3/1/1
f 5/1/1 6/1/1 7/1/1
f 7/1/1 6/1/1 1/1/1
f 8/1/1 9/1/1 11/1/1
f 11/1/1 9/1/1 10/1/1
f 12/1/1 13/1/1 2/1/1
f 2/1/1 13/1/1 14/1/1
f 15/1/1 16/1/1 17/1/1
f 17/1/1 16/1/1 5/1/1
f 18/1/1 19/1/1 20/1/1
f 20/1/1 19/1/1 8/1/1
f 21/1/1 22/1/1 24/1/1
f 24/1/1 22/1/1 23/1/1
f 25/1/1 26/1/1 9/1/1
f 9/1/1 26/1/1 27/1/1
f 28/1/1 29/1/1 13/1/1
f 13/1/1 29/1/1 30/1/1
f 31/1/1 32/1/1 33/1/1
f 33/1/1 32/1/1 15/1/1
f 34/1/1 35/1/1 36/1/1
f 36/1/1 35/1/1 18/1/1
f 37/1/1 38/1/1 39/1/1
f 39/1/1 38/1/1 21/1/1
f 40/1/1 41/1/1 43/1/1
f 43/1/1 41/1/1 42/1/1
f 44/1/1 45/1/1 26/1/1
f 26/1/1 45/1/1 46/1/1
f 47/1/1 48/1/1 29/1/1
f 29/1/1 48/1/1 49/1/1
f 50/1/1 51/1/1 52/1/1
f 52/1/1 51/1/1 31/1/1
f 53/1/1 54/1/1 55/1/1
f 55/1/1 54/1/1 34/1/1
f 56/1/1 57/1/1 58/1/1
f 58/1/1 57/1/1 37/1/1
f 59/1/1 60/1/1 62/1/1
f 62/1/1 60/1/1 61/1/1
f 60/1/1 63/1/1 65/1/1
f 65/1/1 63/1/1 64/1/1
f 66/1/1 67/1/1 68/1/1
f 68/1/1 67/1/1 43/1/1
f 69/1/1 70/1/1 72/1/1
f 72/1/1 70/1/1 71/1/1
f 73/1/1 74/1/1 45/1/1
f 45/1/1 74/1/1 75/1/1
f 76/1/1 77/1/1 78/1/1
f 78/1/1 77/1/1 59/1/1
f 79/1/1 80/1/1 57/1/1
f 57/1/1 80/1/1 66/1/1
f 81/1/1 82/1/1 84/1/1
f 84/1/1 82/1/1 83/1/1
f 82/1/1 85/1/1 87/1/1
f 87/1/1 85/1/1 86/1/1
f 88/1/1 89/1/1 91/1/1
f 91/1/1 89/1/1 90/1/1
f 92/1/1 93/1/1 48/1/1
f 48/1/1 93/1/1 94/1/1
f 95/1/1 96/1/1 97/1/1
f 97/1/1 96/1/1 50/1/1
f 98/1/1 99/1/1 100/1/1
f 100/1/1 99/1/1 53/1/1
f 101/1/1 102/1/1 103/1/1
f 103/1/1 102/1/1 56/1/1
f 104/1/1 105/1/1 106/1/1
f 106/1/1 105/1/1 78/1/1
f 107/1/1 108/1/1 109/1/1
f 109/1/1 108/1/1 79/1/1
f 110/1/1 111/1/1 112/1/1
f 112/1/1 111/1/1 84/1/1
f 113/1/1 114/1/1 85/1/1
f 85/1/1 114/1/1 115/1/1
f 116/1/1 117/1/1 118/1/1
f 118/1/1 117/1/1 89/1/1
f 119/1/1 120/1/1 121/1/1
f 121/1/1 120/1/1 104/1/1
f 122/1/1 123/1/1 102/1/1
f 102/1/1 123/1/1 107/1/1
f 124/1/1 125/1/1 127/1/1
f 127/1/1 125/1/1 126/1/1
f 125/1/1 128/1/1 130/1/1
f 130/1/1 128/1/1 129/1/1
f 131/1/1 132/1/1 134/1/1
f 134/1/1 132/1/1 133/1/1
f 135/1/1 136/1/1 138/1/1
f 138/1/1 136/1/1 137/1/1
f 139/1/1 140/1/1 93/1/1
f 93/1/1 140/1/1 141/1/1
f 142/1/1 143/1/1 144/1/1
f 144/1/1 143/1/1 127/1/1
f 145/1/1 146/1/1 147/1/1
f 147/1/1 146/1/1 134/1/1
f 148/1/1 149/1/1 151/1/1
f 151/1/1 149/1/1 150/1/1
f 152/1/1 153/1/1 136/1/1
f 136/1/1 153/1/1 154/1/1
f 155/1/1 156/1/1 158/1/1
f 158/1/1 156/1/1 157/1/1
f 159/1/1 160/1/1 161/1/1
f 161/1/1 160/1/1 95/1/1
f 162/1/1 163/1/1 164/1/1
f 164/1/1 163/1/1 98/1/1
f 165/1/1 166/1/1 167/1/1
f 167/1/1 166/1/1 122/1/1
f 168/1/1 169/1/1 171/1/1
f 171/1/1 169/1/1 170/1/1
f 172/1/1 173/1/1 175/1/1
f 175/1/1 173/1/1 174/1/1
f 173/1/1 176/1/1 178/1/1
f 178/1/1 176/1/1 177/1/1
f 179/1/1 180/1/1 181/1/1
f 181/1/1 180/1/1 139/1/1
f 180/1/1 182/1/1 183/1/1
f 183/1/1 182/1/1 155/1/1
f 184/1/1 185/1/1 186/1/1
f 186/1/1 185/1/1 101/1/1
f 187/1/1 188/1/1 190/1/1
f 190/1/1 188/1/1 189/1/1
f 191/1/1 192/1/1 194/1/1
f 194/1/1 192/1/1 193/1/1
f 195/1/1 196/1/1 197/1/1
f 197/1/1 196/1/1 159/1/1
f 198/1/1 199/1/1 201/1/1
f 201/1/1 199/1/1 200/1/1
f 202/1/1 203/1/1 204/1/1
f 204/1/1 203/1/1 162/1/1
f 205/1/1 206/1/1 208/1/1
f 208/1/1 206/1/1 207/1/1
f 209/1/1 210/1/1 212/1/1
f 212/1/1 210/1/1 211/1/1
f 213/1/1 214/1/1 216/1/1
f 216/1/1 214/1/1 215/1/1
f 214/1/1 217/1/1 219/1/1
f 219/1/1 217/1/1 218/1/1
f 220/1/1 221/1/1 222/1/1
f 222/1/1 221/1/1 195/1/1
f 223/1/1 224/1/1 226/1/1
f 226/1/1 224/1/1 225/1/1
f 227/1/1 228/1/1 229/1/1
f 229/1/1 228/1/1 205/1/1
f 230/1/1 231/1/1 203/1/1
f 203/1/1 231/1/1 209/1/1
f 232/1/1 233/1/1 235/1/1
f 235/1/1 233/1/1 234/1/1
f 236/1/1 237/1/1 221/1/1
f 221/1/1 237/1/1 238/1/1
f 239/1/1 240/1/1 224/1/1
f 224/1/1 240/1/1 230/1/1
f 241/1/1 242/1/1 228/1/1
f 228/1/1 242/1/1 243/1/1
f 244/1/1 245/1/1 231/1/1
f 231/1/1 245/1/1 246/1/1
f 247/1/1 248/1/1 250/1/1
f 250/1/1 248/1/1 249/1/1
f 251/1/1 252/1/1 237/1/1
f 237/1/1 252/1/1 253/1/1
f 254/1/1 255/1/1 240/1/1
f 240/1/1 255/1/1 244/1/1
f 256/1/1 257/1/1 242/1/1
f 242/1/1 257/1/1 258/1/1
f 259/1/1 260/1/1 252/1/1
f 252/1/1 260/1/1 261/1/1
f 262/1/1 263/1/1 255/1/1
f 255/1/1 263/1/1 264/1/1
f 263/1/1 265/1/1 245/1/1
f 245/1/1 265/1/1 266/1/1
f 267/1/1 268/1/1 270/1/1
f 270/1/1 268/1/1 269/1/1
f 271/1/1 272/1/1 260/1/1
f 260/1/1 272/1/1 273/1/1
f 272/1/1 274/1/1 276/1/1
f 276/1/1 274/1/1 275/1/1
f 277/1/2 278/1/2 280/1/2
f 280/1/2 278/1/2 279/1/2
f 280/1/2 281/1/2 283/1/2
f 283/1/2 281/1/2 282/1/2
f 284/1/2 285/1/2 286/1/2
f 286/1/2 285/1/2 278/1/2
f 287/1/2 288/1/2 290/1/2
f 290/1/2 288/1/2 289/1/2
f 290/1/2 291/1/2 293/1/2
f 293/1/2 291/1/2 292/1/2
f 294/1/2 295/1/2 297/1/2
f 297/1/2 295/1/2 296/1/2
f 298/1/2 299/1/2 300/1/2
f 300/1/2 299/1/2 285/1/2
f 301/1/2 302/1/2 304/1/2
f 304/1/2 302/1/2 303/1/2
f 304/1/2 305/1/2 307/1/2
f 307/1/2 305/1/2 306/1/2
f 308/1/2 309/1/2 311/1/2
f 311/1/2 309/1/2 310/1/2
f 312/1/2 313/1/2 315/1/2
f 315/1/2 313/1/2 314/1/2
f 316/1/2 317/1/2 319/1/2
f 319/1/2 317/1/2 318/1/2
f 320/1/2 321/1/2 323/1/2
f 323/1/2 321/1/2 322/1/2
f 324/1/2 325/1/2 327/1/2
f 327/1/2 325/1/2 326/1/2
f 328/1/2 329/1/2 331/1/2
f 331/1/2 329/1/2 330/1/2
f 332/1/2 333/1/2 335/1/2
f 335/1/2 333/1/2 334/1/2
f 336/1/2 337/1/2 339/1/2
f 339/1/2 337/1/2 338/1/2
f 339/1/2 340/1/2 342/1/2
f 342/1/2 340/1/2 341/1/2
f 342/1/2 343/1/2 345/1/2
f 345/1/2 343/1/2 344/1/2
f 3/1/3 2/1/3 279/1/3
f 279/1/3 2/1/3 281/1/3
f 14/1/3 13/1/3 282/1/3
f 282/1/3 13/1/3 288/1/3
f 30/1/3 29/1/3 289/1/3
f 289/1/3 29/1/3 291/1/3
f 49/1/3 48/1/3 292/1/3
f 292/1/3 48/1/3 302/1/3
f 94/1/3 93/1/3 303/1/3
f 303/1/3 93/1/3 305/1/3
f 141/1/3 158/1/3 306/1/3
f 306/1/3 158/1/3 295/1/3
f 131/1/3 146/1/3 277/1/3
f 277/1/3 146/1/3 286/1/3
f 157/1/3 156/1/3 296/1/3
f 296/1/3 156/1/3 297/1/3
f 145/1/3 176/1/3 284/1/3
f 284/1/3 176/1/3 300/1/3
f 155/1/3 182/1/3 294/1/3
f 294/1/3 182/1/3 307/1/3
f 172/1/3 192/1/3 298/1/3
f 298/1/3 192/1/3 311/1/3
f 191/1/3 217/1/3 308/1/3
f 308/1/3 217/1/3 315/1/3
f 213/1/3 276/1/3 312/1/3
f 312/1/3 276/1/3 343/1/3
f 275/1/3 270/1/3 344/1/3
f 344/1/3 270/1/3 333/1/3
f 269/1/3 268/1/3 334/1/3
f 334/1/3 268/1/3 335/1/3
f 267/1/3 274/1/3 332/1/3
f 332/1/3 274/1/3 345/1/3
f 10/1/3 9/1/3 2/1/3
f 2/1/3 9/1/3 12/1/3
f 27/1/3 26/1/3 13/1/3
f 13/1/3 26/1/3 28/1/3
f 46/1/3 45/1/3 29/1/3
f 29/1/3 45/1/3 47/1/3
f 75/1/3 138/1/3 48/1/3
f 48/1/3 138/1/3 92/1/3
f 81/1/3 111/1/3 147/1/3
f 147/1/3 111/1/3 177/1/3
f 110/1/3 128/1/3 178/1/3
f 178/1/3 128/1/3 174/1/3
f 137/1/3 136/1/3 93/1/3
f 93/1/3 136/1/3 139/1/3
f 124/1/3 143/1/3 175/1/3
f 175/1/3 143/1/3 193/1/3
f 154/1/3 153/1/3 140/1/3
f 140/1/3 153/1/3 155/1/3
f 142/1/3 169/1/3 194/1/3
f 194/1/3 169/1/3 218/1/3
f 168/1/3 188/1/3 219/1/3
f 219/1/3 188/1/3 215/1/3
f 187/1/3 199/1/3 216/1/3
f 216/1/3 199/1/3 249/1/3
f 198/1/3 210/1/3 250/1/3
f 250/1/3 210/1/3 234/1/3
f 209/1/3 231/1/3 235/1/3
f 235/1/3 231/1/3 232/1/3
f 246/1/3 245/1/3 233/1/3
f 233/1/3 245/1/3 247/1/3
f 266/1/3 265/1/3 248/1/3
f 248/1/3 265/1/3 273/1/3
f 23/1/3 22/1/3 9/1/3
f 9/1/3 22/1/3 25/1/3
f 42/1/3 41/1/3 26/1/3
f 26/1/3 41/1/3 44/1/3
f 40/1/3 67/1/3 112/1/3
f 112/1/3 67/1/3 129/1/3
f 71/1/3 70/1/3 45/1/3
f 45/1/3 70/1/3 73/1/3
f 66/1/3 80/1/3 130/1/3
f 130/1/3 80/1/3 126/1/3
f 79/1/3 108/1/3 144/1/3
f 144/1/3 108/1/3 170/1/3
f 90/1/3 117/1/3 74/1/3
f 74/1/3 117/1/3 346/1/3
f 107/1/3 123/1/3 171/1/3
f 171/1/3 123/1/3 189/1/3
f 122/1/3 166/1/3 190/1/3
f 190/1/3 166/1/3 200/1/3
f 165/1/3 185/1/3 201/1/3
f 201/1/3 185/1/3 211/1/3
f 184/1/3 206/1/3 212/1/3
f 212/1/3 206/1/3 209/1/3
f 205/1/3 228/1/3 203/1/3
f 203/1/3 228/1/3 230/1/3
f 243/1/3 242/1/3 231/1/3
f 231/1/3 242/1/3 244/1/3
f 258/1/3 257/1/3 245/1/3
f 245/1/3 257/1/3 264/1/3
f 64/1/3 63/1/3 68/1/3
f 68/1/3 63/1/3 66/1/3
f 59/1/3 77/1/3 57/1/3
f 57/1/3 77/1/3 79/1/3
f 76/1/3 105/1/3 109/1/3
f 109/1/3 105/1/3 107/1/3
f 104/1/3 120/1/3 102/1/3
f 102/1/3 120/1/3 122/1/3
f 4/1/4 299/1/4 1/1/4
f 1/1/4 299/1/4 310/1/4
f 7/1/4 309/1/4 5/1/4
f 5/1/4 309/1/4 314/1/4
f 17/1/4 313/1/4 15/1/4
f 15/1/4 313/1/4 341/1/4
f 33/1/4 340/1/4 31/1/4
f 31/1/4 340/1/4 338/1/4
f 52/1/4 337/1/4 50/1/4
f 50/1/4 337/1/4 330/1/4
f 97/1/4 329/1/4 95/1/4
f 95/1/4 329/1/4 326/1/4
f 132/1/4 283/1/4 148/1/4
f 148/1/4 283/1/4 287/1/4
f 161/1/4 325/1/4 159/1/4
f 159/1/4 325/1/4 322/1/4
f 149/1/4 293/1/4 179/1/4
f 179/1/4 293/1/4 301/1/4
f 197/1/4 321/1/4 195/1/4
f 195/1/4 321/1/4 318/1/4
f 222/1/4 317/1/4 220/1/4
f 220/1/4 317/1/4 316/1/4
f 221/1/4 319/1/4 236/1/4
f 236/1/4 319/1/4 320/1/4
f 237/1/4 323/1/4 251/1/4
f 251/1/4 323/1/4 324/1/4
f 252/1/4 327/1/4 259/1/4
f 259/1/4 327/1/4 328/1/4
f 260/1/4 331/1/4 271/1/4
f 271/1/4 331/1/4 336/1/4
f 11/1/4 1/1/4 8/1/4
f 8/1/4 1/1/4 6/1/4
f 20/1/4 5/1/4 18/1/4
f 18/1/4 5/1/4 16/1/4
f 36/1/4 15/1/4 34/1/4
f 34/1/4 15/1/4 32/1/4
f 55/1/4 31/1/4 53/1/4
f 53/1/4 31/1/4 51/1/4
f 100/1/4 50/1/4 98/1/4
f 98/1/4 50/1/4 96/1/4
f 85/1/4 133/1/4 113/1/4
f 113/1/4 133/1/4 151/1/4
f 346/1/4 150/1/4 135/1/4
f 135/1/4 150/1/4 181/1/4
f 136/1/4 139/1/4 152/1/4
f 152/1/4 139/1/4 183/1/4
f 164/1/4 95/1/4 162/1/4
f 162/1/4 95/1/4 160/1/4
f 204/1/4 159/1/4 225/1/4
f 225/1/4 159/1/4 196/1/4
f 226/1/4 195/1/4 223/1/4
f 223/1/4 195/1/4 221/1/4
f 224/1/4 238/1/4 239/1/4
f 239/1/4 238/1/4 237/1/4
f 240/1/4 253/1/4 254/1/4
f 254/1/4 253/1/4 252/1/4
f 255/1/4 261/1/4 262/1/4
f 262/1/4 261/1/4 260/1/4
f 24/1/4 8/1/4 21/1/4
f 21/1/4 8/1/4 19/1/4
f 39/1/4 18/1/4 37/1/4
f 37/1/4 18/1/4 35/1/4
f 58/1/4 34/1/4 56/1/4
f 56/1/4 34/1/4 54/1/4
f 72/1/4 83/1/4 69/1/4
f 69/1/4 83/1/4 87/1/4
f 91/1/4 86/1/4 88/1/4
f 88/1/4 86/1/4 85/1/4
f 103/1/4 53/1/4 101/1/4
f 101/1/4 53/1/4 99/1/4
f 118/1/4 115/1/4 116/1/4
f 116/1/4 115/1/4 114/1/4
f 186/1/4 98/1/4 207/1/4
f 207/1/4 98/1/4 163/1/4
f 208/1/4 162/1/4 205/1/4
f 205/1/4 162/1/4 203/1/4
f 229/1/4 202/1/4 227/1/4
f 227/1/4 202/1/4 224/1/4
f 228/1/4 230/1/4 241/1/4
f 241/1/4 230/1/4 240/1/4
f 242/1/4 244/1/4 256/1/4
f 256/1/4 244/1/4 255/1/4
f 65/1/4 21/1/4 61/1/4
f 61/1/4 21/1/4 38/1/4
f 62/1/4 37/1/4 59/1/4
f 59/1/4 37/1/4 57/1/4
f 106/1/4 56/1/4 104/1/4
f 104/1/4 56/1/4 102/1/4
f 121/1/4 101/1/4 119/1/4
f 119/1/4 101/1/4 167/1/4
f 319/1/5 221/1/5 316/1/5
f 316/1/5 221/1/5 220/1/5
f 323/1/5 237/1/5 320/1/5
f 320/1/5 237/1/5 236/1/5
f 238/1/5 224/1/5 221/1/5
f 221/1/5 224/1/5 223/1/5
f 327/1/5 252/1/5 324/1/5
f 324/1/5 252/1/5 251/1/5
f 253/1/5 240/1/5 237/1/5
f 237/1/5 240/1/5 239/1/5
f 230/1/5 228/1/5 224/1/5
f 224/1/5 228/1/5 227/1/5
f 331/1/5 260/1/5 328/1/5
f 328/1/5 260/1/5 259/1/5
f 261/1/5 255/1/5 252/1/5
f 252/1/5 255/1/5 254/1/5
f 209/1/5 206/1/5 203/1/5
f 203/1/5 206/1/5 205/1/5
f 244/1/5 242/1/5 240/1/5
f 240/1/5 242/1/5 241/1/5
f 234/1/5 210/1/5 235/1/5
f 235/1/5 210/1/5 209/1/5
f 211/1/5 185/1/5 212/1/5
f 212/1/5 185/1/5 184/1/5
f 264/1/5 257/1/5 255/1/5
f 255/1/5 257/1/5 256/1/5
f 249/1/5 199/1/5 250/1/5
f 250/1/5 199/1/5 198/1/5
f 273/1/5 265/1/5 260/1/5
f 260/1/5 265/1/5 262/1/5
f 200/1/5 166/1/5 201/1/5
f 201/1/5 166/1/5 165/1/5
f 122/1/5 120/1/5 167/1/5
f 167/1/5 120/1/5 119/1/5
f 345/1/5 274/1/5 336/1/5
f 336/1/5 274/1/5 271/1/5
f 215/1/5 188/1/5 216/1/5
f 216/1/5 188/1/5 187/1/5
f 189/1/5 123/1/5 190/1/5
f 190/1/5 123/1/5 122/1/5
f 107/1/5 105/1/5 102/1/5
f 102/1/5 105/1/5 104/1/5
f 315/1/5 217/1/5 312/1/5
f 312/1/5 217/1/5 213/1/5
f 335/1/5 268/1/5 332/1/5
f 332/1/5 268/1/5 267/1/5
f 218/1/5 169/1/5 219/1/5
f 219/1/5 169/1/5 168/1/5
f 170/1/5 108/1/5 171/1/5
f 171/1/5 108/1/5 107/1/5
f 79/1/5 77/1/5 109/1/5
f 109/1/5 77/1/5 76/1/5
f 311/1/5 192/1/5 308/1/5
f 308/1/5 192/1/5 191/1/5
f 193/1/5 143/1/5 194/1/5
f 194/1/5 143/1/5 142/1/5
f 126/1/5 80/1/5 144/1/5
f 144/1/5 80/1/5 79/1/5
f 66/1/5 63/1/5 57/1/5
f 57/1/5 63/1/5 59/1/5
f 174/1/5 128/1/5 175/1/5
f 175/1/5 128/1/5 124/1/5
f 129/1/5 67/1/5 130/1/5
f 130/1/5 67/1/5 66/1/5
f 300/1/5 176/1/5 298/1/5
f 298/1/5 176/1/5 172/1/5
f 177/1/5 111/1/5 178/1/5
f 178/1/5 111/1/5 110/1/5
f 286/1/5 146/1/5 284/1/5
f 284/1/5 146/1/5 145/1/5
f 83/1/5 72/1/5 112/1/5
f 112/1/5 72/1/5 40/1/5
f 283/1/5 132/1/5 277/1/5
f 277/1/5 132/1/5 131/1/5
f 133/1/5 85/1/5 147/1/5
f 147/1/5 85/1/5 81/1/5
f 86/1/5 91/1/5 87/1/5
f 87/1/5 91/1/5 69/1/5
f 115/1/5 118/1/5 85/1/5
f 85/1/5 118/1/5 88/1/5
f 293/1/5 149/1/5 287/1/5
f 287/1/5 149/1/5 148/1/5
f 150/1/5 346/1/5 151/1/5
f 151/1/5 346/1/5 113/1/5
f 346/1/5 117/1/5 114/1/5
f 114/1/5 117/1/5 116/1/5
f 139/1/5 136/1/5 181/1/5
f 181/1/5 136/1/5 135/1/5
f 307/1/5 182/1/5 301/1/5
f 301/1/5 182/1/5 179/1/5
f 155/1/5 153/1/5 183/1/5
f 183/1/5 153/1/5 152/1/5
f 297/1/5 156/1/5 294/1/5
f 294/1/5 156/1/5 155/1/5
f 318/1/6 317/1/6 195/1/6
f 195/1/6 317/1/6 222/1/6
f 322/1/6 321/1/6 159/1/6
f 159/1/6 321/1/6 197/1/6
f 196/1/6 195/1/6 225/1/6
f 225/1/6 195/1/6 226/1/6
f 326/1/6 325/1/6 95/1/6
f 95/1/6 325/1/6 161/1/6
f 160/1/6 159/1/6 162/1/6
f 162/1/6 159/1/6 204/1/6
f 203/1/6 202/1/6 205/1/6
f 205/1/6 202/1/6 229/1/6
f 330/1/6 329/1/6 50/1/6
f 50/1/6 329/1/6 97/1/6
f 96/1/6 95/1/6 98/1/6
f 98/1/6 95/1/6 164/1/6
f 163/1/6 162/1/6 207/1/6
f 207/1/6 162/1/6 208/1/6
f 231/1/6 230/1/6 243/1/6
f 243/1/6 230/1/6 228/1/6
f 338/1/6 337/1/6 31/1/6
f 31/1/6 337/1/6 52/1/6
f 51/1/6 50/1/6 53/1/6
f 53/1/6 50/1/6 100/1/6
f 233/1/6 232/1/6 246/1/6
f 246/1/6 232/1/6 231/1/6
f 99/1/6 98/1/6 101/1/6
f 101/1/6 98/1/6 186/1/6
f 245/1/6 244/1/6 258/1/6
f 258/1/6 244/1/6 242/1/6
f 341/1/6 340/1/6 15/1/6
f 15/1/6 340/1/6 33/1/6
f 32/1/6 31/1/6 34/1/6
f 34/1/6 31/1/6 55/1/6
f 248/1/6 247/1/6 266/1/6
f 266/1/6 247/1/6 245/1/6
f 54/1/6 53/1/6 56/1/6
f 56/1/6 53/1/6 103/1/6
f 102/1/6 101/1/6 104/1/6
f 104/1/6 101/1/6 121/1/6
f 344/1/6 343/1/6 275/1/6
f 275/1/6 343/1/6 276/1/6
f 314/1/6 313/1/6 5/1/6
f 5/1/6 313/1/6 17/1/6
f 334/1/6 333/1/6 269/1/6
f 269/1/6 333/1/6 270/1/6
f 16/1/6 15/1/6 18/1/6
f 18/1/6 15/1/6 36/1/6
f 35/1/6 34/1/6 37/1/6
f 37/1/6 34/1/6 58/1/6
f 57/1/6 56/1/6 59/1/6
f 59/1/6 56/1/6 106/1/6
f 310/1/6 309/1/6 1/1/6
f 1/1/6 309/1/6 7/1/6
f 6/1/6 5/1/6 8/1/6
f 8/1/6 5/1/6 20/1/6
f 19/1/6 18/1/6 21/1/6
f 21/1/6 18/1/6 39/1/6
f 38/1/6 37/1/6 61/1/6
f 61/1/6 37/1/6 62/1/6
f 68/1/6 21/1/6 64/1/6
f 64/1/6 21/1/6 65/1/6
f 279/1/6 299/1/6 3/1/6
f 3/1/6 299/1/6 4/1/6
f 2/1/6 1/1/6 10/1/6
f 10/1/6 1/1/6 11/1/6
f 9/1/6 8/1/6 23/1/6
f 23/1/6 8/1/6 24/1/6
f 282/1/6 281/1/6 14/1/6
f 14/1/6 281/1/6 2/1/6
f 13/1/6 12/1/6 27/1/6
f 27/1/6 12/1/6 9/1/6
f 26/1/6 25/1/6 42/1/6
f 42/1/6 25/1/6 22/1/6
f 289/1/6 288/1/6 30/1/6
f 30/1/6 288/1/6 13/1/6
f 29/1/6 28/1/6 46/1/6
f 46/1/6 28/1/6 26/1/6
f 45/1/6 44/1/6 71/1/6
f 71/1/6 44/1/6 41/1/6
f 292/1/6 291/1/6 49/1/6
f 49/1/6 291/1/6 29/1/6
f 48/1/6 47/1/6 75/1/6
f 75/1/6 47/1/6 45/1/6
f 74/1/6 73/1/6 90/1/6
f 90/1/6 73/1/6 70/1/6
f 303/1/6 302/1/6 94/1/6
f 94/1/6 302/1/6 48/1/6
f 93/1/6 92/1/6 137/1/6
f 137/1/6 92/1/6 138/1/6
f 306/1/6 305/1/6 141/1/6
f 141/1/6 305/1/6 93/1/6
f 140/1/6 139/1/6 154/1/6
f 154/1/6 139/1/6 136/1/6
f 296/1/6 295/1/6 157/1/6
f 157/1/6 295/1/6 158/1/6
