# Vengi binary mesh normalized for Tanks of Freedom II

mtllib ../../../materials/vox_grass.mtl
o wall2_gate_closed

v 1.4 0.1 0.1
v 0.1 0.1 0.1
v 0.1 0.1 0.2
v 1.4 0.1 0.2
v 0.1 0.2 0.1
v 0 0.2 0.1
v 0 0.2 0.2
v 0.1 0.2 0.2
v 0.1 0.4 0.1
v 0 0.4 0.1
v 0 0.4 0.2
v 0.1 0.4 0.2
v 0.1 0.6 0.1
v 0 0.6 0.1
v 0 0.6 0.2
v 0.1 0.6 0.2
v 0.1 0.8 0.1
v 0 0.8 0.1
v 0 0.8 0.2
v 0.1 0.8 0.2
v 0.1 1 0.1
v 0 1 0.1
v 0 1 0.2
v 0.1 1 0.2
v 0.1 1.2 0.1
v 0 1.2 0.1
v 0 1.2 0.2
v 0.1 1.2 0.2
v 0.1 1.4 0.1
v 0 1.4 0.1
v 0 1.4 0.2
v 0.1 1.4 0.2
v 0.1 1.6 0.1
v 0 1.6 0.1
v 0 1.6 0.2
v 0.1 1.6 0.2
v 0.1 1.8 0.1
v 0 1.8 0.1
v 0 1.8 0.2
v 0.1 1.8 0.2
v 0.1 2 0.1
v 0 2 0.1
v 0 2 0.2
v 0.1 2 0.2
v 0.1 2.2 0.1
v 0 2.2 0.1
v 0 2.2 0.2
v 0.1 2.2 0.2
v 0.1 2.4 0.1
v 0 2.4 0.1
v 0 2.4 0.2
v 0.1 2.4 0.2
v 0.1 2.6 0.1
v 0 2.6 0.1
v 0 2.6 0.2
v 0.1 2.6 0.2
v 0.1 2.8 0.1
v 0 2.8 0.1
v 0 2.8 0.2
v 0.1 2.8 0.2
v 0.1 3 0.1
v 0 3 0.1
v 0 3 0.2
v 0.1 3 0.2
v 0 0.3 0.1
v -0.1 0.3 0.1
v -0.1 0.3 0.2
v 0 0.3 0.2
v 0 0.5 0.1
v -0.1 0.5 0.1
v -0.1 0.5 0.2
v 0 0.5 0.2
v 0 0.7 0.1
v -0.1 0.7 0.1
v -0.1 0.7 0.2
v 0 0.7 0.2
v 0 0.9 0.1
v -0.1 0.9 0.1
v -0.1 0.9 0.2
v 0 0.9 0.2
v 0 1.1 0.1
v -0.1 1.1 0.1
v -0.1 1.1 0.2
v 0 1.1 0.2
v 0 1.3 0.1
v -0.1 1.3 0.1
v -0.1 1.3 0.2
v 0 1.3 0.2
v 0 1.5 0.1
v -0.1 1.5 0.1
v -0.1 1.5 0.2
v 0 1.5 0.2
v 0 1.7 0.1
v -0.1 1.7 0.1
v -0.1 1.7 0.2
v 0 1.7 0.2
v 0 1.9 0.1
v -0.1 1.9 0.1
v -0.1 1.9 0.2
v 0 1.9 0.2
v 0 2.1 0.1
v -0.1 2.1 0.1
v -0.1 2.1 0.2
v 0 2.1 0.2
v 0 2.3 0.1
v -0.1 2.3 0.1
v -0.1 2.3 0.2
v 0 2.3 0.2
v 0 2.5 0.1
v -0.1 2.5 0.1
v -0.1 2.5 0.2
v 0 2.5 0.2
v 0 2.7 0.1
v -0.1 2.7 0.1
v -0.1 2.7 0.2
v 0 2.7 0.2
v 0 2.9 0.1
v -0.1 2.9 0.1
v -0.1 2.9 0.2
v 0 2.9 0.2
v 0 0.1 0.1
v -1.4 0.1 0.1
v -1.4 0.1 0.2
v 0 0.1 0.2
v 1.4 0.1 -0.2
v 0 0.1 -0.2
v 0 0.1 -0.1
v 1.4 0.1 -0.1
v 0.1 0.3 -0.2
v 0 0.3 -0.2
v 0 0.3 -0.1
v 0.1 0.3 -0.1
v 0.1 0.5 -0.2
v 0 0.5 -0.2
v 0 0.5 -0.1
v 0.1 0.5 -0.1
v 0.1 0.7 -0.2
v 0 0.7 -0.2
v 0 0.7 -0.1
v 0.1 0.7 -0.1
v 0.1 0.9 -0.2
v 0 0.9 -0.2
v 0 0.9 -0.1
v 0.1 0.9 -0.1
v 0.1 1.1 -0.2
v 0 1.1 -0.2
v 0 1.1 -0.1
v 0.1 1.1 -0.1
v 0.1 1.3 -0.2
v 0 1.3 -0.2
v 0 1.3 -0.1
v 0.1 1.3 -0.1
v 0.1 1.5 -0.2
v 0 1.5 -0.2
v 0 1.5 -0.1
v 0.1 1.5 -0.1
v 0.1 1.7 -0.2
v 0 1.7 -0.2
v 0 1.7 -0.1
v 0.1 1.7 -0.1
v 0.1 1.9 -0.2
v 0 1.9 -0.2
v 0 1.9 -0.1
v 0.1 1.9 -0.1
v 0.1 2.1 -0.2
v 0 2.1 -0.2
v 0 2.1 -0.1
v 0.1 2.1 -0.1
v 0.1 2.3 -0.2
v 0 2.3 -0.2
v 0 2.3 -0.1
v 0.1 2.3 -0.1
v 0.1 2.5 -0.2
v 0 2.5 -0.2
v 0 2.5 -0.1
v 0.1 2.5 -0.1
v 0.1 2.7 -0.2
v 0 2.7 -0.2
v 0 2.7 -0.1
v 0.1 2.7 -0.1
v 0.1 2.9 -0.2
v 0 2.9 -0.2
v 0 2.9 -0.1
v 0.1 2.9 -0.1
v 0 0.2 -0.2
v -0.1 0.2 -0.2
v -0.1 0.2 -0.1
v 0 0.2 -0.1
v 0 0.4 -0.2
v -0.1 0.4 -0.2
v -0.1 0.4 -0.1
v 0 0.4 -0.1
v 0 0.6 -0.2
v -0.1 0.6 -0.2
v -0.1 0.6 -0.1
v 0 0.6 -0.1
v 0 0.8 -0.2
v -0.1 0.8 -0.2
v -0.1 0.8 -0.1
v 0 0.8 -0.1
v 0 1 -0.2
v -0.1 1 -0.2
v -0.1 1 -0.1
v 0 1 -0.1
v 0 1.2 -0.2
v -0.1 1.2 -0.2
v -0.1 1.2 -0.1
v 0 1.2 -0.1
v 0 1.4 -0.2
v -0.1 1.4 -0.2
v -0.1 1.4 -0.1
v 0 1.4 -0.1
v 0 1.6 -0.2
v -0.1 1.6 -0.2
v -0.1 1.6 -0.1
v 0 1.6 -0.1
v 0 1.8 -0.2
v -0.1 1.8 -0.2
v -0.1 1.8 -0.1
v 0 1.8 -0.1
v 0 2 -0.2
v -0.1 2 -0.2
v -0.1 2 -0.1
v 0 2 -0.1
v 0 2.2 -0.2
v -0.1 2.2 -0.2
v -0.1 2.2 -0.1
v 0 2.2 -0.1
v 0 2.4 -0.2
v -0.1 2.4 -0.2
v -0.1 2.4 -0.1
v 0 2.4 -0.1
v 0 2.6 -0.2
v -0.1 2.6 -0.2
v -0.1 2.6 -0.1
v 0 2.6 -0.1
v 0 2.8 -0.2
v -0.1 2.8 -0.2
v -0.1 2.8 -0.1
v 0 2.8 -0.1
v 0 3 -0.2
v -0.1 3 -0.2
v -0.1 3 -0.1
v 0 3 -0.1
v -0.1 0.1 -0.2
v -1.4 0.1 -0.2
v -1.4 0.1 -0.1
v -0.1 0.1 -0.1
v 1.5 3.2 -0.2
v -1.5 3.2 -0.2
v -1.5 3.2 0.2
v 1.5 3.2 0.2
v 0.1 0.3 0.1
v 0.1 0.3 0.2
v 0.1 0.5 0.1
v 0.1 0.5 0.2
v 0.1 0.7 0.1
v 0.1 0.7 0.2
v 0.1 0.9 0.1
v 0.1 0.9 0.2
v 0.1 1.1 0.1
v 0.1 1.1 0.2
v 0.1 1.3 0.1
v 0.1 1.3 0.2
v 0.1 1.5 0.1
v 0.1 1.5 0.2
v 0.1 1.7 0.1
v 0.1 1.7 0.2
v 0.1 1.9 0.1
v 0.1 1.9 0.2
v 0.1 2.1 0.1
v 0.1 2.1 0.2
v 0.1 2.3 0.1
v 0.1 2.3 0.2
v 0.1 2.5 0.1
v 0.1 2.5 0.2
v 0.1 2.7 0.1
v 0.1 2.7 0.2
v 0.1 2.9 0.1
v 0.1 2.9 0.2
v 1.4 3.1 0.1
v 1.4 3.1 0.2
v 0 3.1 0.2
v 0 3.1 0.1
v -0.1 0.2 0.2
v -0.1 0.2 0.1
v -0.1 0.4 0.2
v -0.1 0.4 0.1
v -0.1 0.6 0.2
v -0.1 0.6 0.1
v -0.1 0.8 0.2
v -0.1 0.8 0.1
v -0.1 1 0.2
v -0.1 1 0.1
v -0.1 1.2 0.2
v -0.1 1.2 0.1
v -0.1 1.4 0.2
v -0.1 1.4 0.1
v -0.1 1.6 0.2
v -0.1 1.6 0.1
v -0.1 1.8 0.2
v -0.1 1.8 0.1
v -0.1 2 0.2
v -0.1 2 0.1
v -0.1 2.2 0.2
v -0.1 2.2 0.1
v -0.1 2.4 0.2
v -0.1 2.4 0.1
v -0.1 2.6 0.2
v -0.1 2.6 0.1
v -0.1 2.8 0.2
v -0.1 2.8 0.1
v -0.1 3 0.2
v -0.1 3 0.1
v -0.1 3.1 0.1
v -0.1 3.1 0.2
v -1.4 3.1 0.2
v -1.4 3.1 0.1
v 1.4 3.1 -0.2
v 1.4 3.1 -0.1
v 0.1 3.1 -0.1
v 0.1 3.1 -0.2
v 0.1 0.2 -0.2
v 0.1 0.2 -0.1
v 0.1 0.4 -0.2
v 0.1 0.4 -0.1
v 0.1 0.6 -0.2
v 0.1 0.6 -0.1
v 0.1 0.8 -0.2
v 0.1 0.8 -0.1
v 0.1 1 -0.2
v 0.1 1 -0.1
v 0.1 1.2 -0.2
v 0.1 1.2 -0.1
v 0.1 1.4 -0.2
v 0.1 1.4 -0.1
v 0.1 1.6 -0.2
v 0.1 1.6 -0.1
v 0.1 1.8 -0.2
v 0.1 1.8 -0.1
v 0.1 2 -0.2
v 0.1 2 -0.1
v 0.1 2.2 -0.2
v 0.1 2.2 -0.1
v 0.1 2.4 -0.2
v 0.1 2.4 -0.1
v 0.1 2.6 -0.2
v 0.1 2.6 -0.1
v 0.1 2.8 -0.2
v 0.1 2.8 -0.1
v 0.1 3 -0.2
v 0.1 3 -0.1
v -0.1 0.3 -0.1
v -0.1 0.3 -0.2
v -0.1 0.5 -0.1
v -0.1 0.5 -0.2
v -0.1 0.7 -0.1
v -0.1 0.7 -0.2
v -0.1 0.9 -0.1
v -0.1 0.9 -0.2
v -0.1 1.1 -0.1
v -0.1 1.1 -0.2
v -0.1 1.3 -0.1
v -0.1 1.3 -0.2
v -0.1 1.5 -0.1
v -0.1 1.5 -0.2
v -0.1 1.7 -0.1
v -0.1 1.7 -0.2
v -0.1 1.9 -0.1
v -0.1 1.9 -0.2
v -0.1 2.1 -0.1
v -0.1 2.1 -0.2
v -0.1 2.3 -0.1
v -0.1 2.3 -0.2
v -0.1 2.5 -0.1
v -0.1 2.5 -0.2
v -0.1 2.7 -0.1
v -0.1 2.7 -0.2
v -0.1 2.9 -0.1
v -0.1 2.9 -0.2
v 0 3.1 -0.2
v 0 3.1 -0.1
v -1.4 3.1 -0.1
v -1.4 3.1 -0.2
v 1.5 0 -0.2
v 1.5 0 0.2
v -1.5 0 0.2
v -1.5 0 -0.2
v 1.4 3.2 -0.2
v 1.5 0.1 -0.2
v 1.4 0.2 -0.1
v -1.4 0.2 -0.1
v -1.4 0.3 -0.1
v -1.4 0.4 -0.1
v -1.4 0.5 -0.1
v -1.4 0.6 -0.1
v -1.4 0.7 -0.1
v -1.4 0.8 -0.1
v -1.4 0.9 -0.1
v -1.4 1 -0.1
v -1.4 1.1 -0.1
v -1.4 1.2 -0.1
v -1.4 1.3 -0.1
v -1.4 1.4 -0.1
v -1.4 1.5 -0.1
v -1.4 1.6 -0.1
v -1.4 1.7 -0.1
v -1.4 1.8 -0.1
v -1.4 1.9 -0.1
v -1.4 2 -0.1
v -1.4 2.1 -0.1
v -1.4 2.2 -0.1
v -1.4 2.3 -0.1
v -1.4 2.4 -0.1
v -1.4 2.5 -0.1
v -1.4 2.6 -0.1
v -1.4 2.7 -0.1
v -1.4 2.8 -0.1
v -1.4 2.9 -0.1
v -1.4 3 -0.1
v -1.5 0.1 -0.2
v -1.5 3.1 -0.2
v 1.5 0.1 0.2
v 1.4 3.2 0.2
v 0.1 3.1 0.1
v -1.4 0.2 0.1
v -1.4 0.3 0.1
v -1.4 0.4 0.1
v -1.4 0.5 0.1
v -1.4 0.6 0.1
v -1.4 0.7 0.1
v -1.4 0.8 0.1
v -1.4 0.9 0.1
v -1.4 1 0.1
v -1.4 1.1 0.1
v -1.4 1.2 0.1
v -1.4 1.3 0.1
v -1.4 1.4 0.1
v -1.4 1.5 0.1
v -1.4 1.6 0.1
v -1.4 1.7 0.1
v -1.4 1.8 0.1
v -1.4 1.9 0.1
v -1.4 2 0.1
v -1.4 2.1 0.1
v -1.4 2.2 0.1
v -1.4 2.3 0.1
v -1.4 2.4 0.1
v -1.4 2.5 0.1
v -1.4 2.6 0.1
v -1.4 2.7 0.1
v -1.4 2.8 0.1
v -1.4 2.9 0.1
v -1.4 3 0.1
v -1.5 0.1 0.2
v -1.5 3.1 0.2

vt 0.0371094 0.5
vt 0.0410156 0.5

vn 0 1 0
vn 0 -1 0
vn -1 0 0
vn 1 0 0
vn 0 0 -1
vn 0 0 1

usemtl palette
f 1/2/1 2/2/1 4/2/1
f 4/2/1 2/2/1 3/2/1
f 5/2/1 6/2/1 8/2/1
f 8/2/1 6/2/1 7/2/1
f 9/2/1 10/2/1 12/2/1
f 12/2/1 10/2/1 11/2/1
f 13/2/1 14/2/1 16/2/1
f 16/2/1 14/2/1 15/2/1
f 17/2/1 18/2/1 20/2/1
f 20/2/1 18/2/1 19/2/1
f 21/2/1 22/2/1 24/2/1
f 24/2/1 22/2/1 23/2/1
f 25/2/1 26/2/1 28/2/1
f 28/2/1 26/2/1 27/2/1
f 29/2/1 30/2/1 32/2/1
f 32/2/1 30/2/1 31/2/1
f 33/2/1 34/2/1 36/2/1
f 36/2/1 34/2/1 35/2/1
f 37/2/1 38/2/1 40/2/1
f 40/2/1 38/2/1 39/2/1
f 41/2/1 42/2/1 44/2/1
f 44/2/1 42/2/1 43/2/1
f 45/2/1 46/2/1 48/2/1
f 48/2/1 46/2/1 47/2/1
f 49/2/1 50/2/1 52/2/1
f 52/2/1 50/2/1 51/2/1
f 53/2/1 54/2/1 56/2/1
f 56/2/1 54/2/1 55/2/1
f 57/2/1 58/2/1 60/2/1
f 60/2/1 58/2/1 59/2/1
f 61/2/1 62/2/1 64/2/1
f 64/2/1 62/2/1 63/2/1
f 65/2/1 66/2/1 68/2/1
f 68/2/1 66/2/1 67/2/1
f 69/2/1 70/2/1 72/2/1
f 72/2/1 70/2/1 71/2/1
f 73/2/1 74/2/1 76/2/1
f 76/2/1 74/2/1 75/2/1
f 77/2/1 78/2/1 80/2/1
f 80/2/1 78/2/1 79/2/1
f 81/2/1 82/2/1 84/2/1
f 84/2/1 82/2/1 83/2/1
f 85/2/1 86/2/1 88/2/1
f 88/2/1 86/2/1 87/2/1
f 89/2/1 90/2/1 92/2/1
f 92/2/1 90/2/1 91/2/1
f 93/2/1 94/2/1 96/2/1
f 96/2/1 94/2/1 95/2/1
f 97/2/1 98/2/1 100/2/1
f 100/2/1 98/2/1 99/2/1
f 101/2/1 102/2/1 104/2/1
f 104/2/1 102/2/1 103/2/1
f 105/2/1 106/2/1 108/2/1
f 108/2/1 106/2/1 107/2/1
f 109/2/1 110/2/1 112/2/1
f 112/2/1 110/2/1 111/2/1
f 113/2/1 114/2/1 116/2/1
f 116/2/1 114/2/1 115/2/1
f 117/2/1 118/2/1 120/2/1
f 120/2/1 118/2/1 119/2/1
f 121/2/1 122/2/1 124/2/1
f 124/2/1 122/2/1 123/2/1
f 125/2/1 126/2/1 128/2/1
f 128/2/1 126/2/1 127/2/1
f 129/2/1 130/2/1 132/2/1
f 132/2/1 130/2/1 131/2/1
f 133/2/1 134/2/1 136/2/1
f 136/2/1 134/2/1 135/2/1
f 137/2/1 138/2/1 140/2/1
f 140/2/1 138/2/1 139/2/1
f 141/2/1 142/2/1 144/2/1
f 144/2/1 142/2/1 143/2/1
f 145/2/1 146/2/1 148/2/1
f 148/2/1 146/2/1 147/2/1
f 149/2/1 150/2/1 152/2/1
f 152/2/1 150/2/1 151/2/1
f 153/2/1 154/2/1 156/2/1
f 156/2/1 154/2/1 155/2/1
f 157/2/1 158/2/1 160/2/1
f 160/2/1 158/2/1 159/2/1
f 161/2/1 162/2/1 164/2/1
f 164/2/1 162/2/1 163/2/1
f 165/2/1 166/2/1 168/2/1
f 168/2/1 166/2/1 167/2/1
f 169/2/1 170/2/1 172/2/1
f 172/2/1 170/2/1 171/2/1
f 173/2/1 174/2/1 176/2/1
f 176/2/1 174/2/1 175/2/1
f 177/2/1 178/2/1 180/2/1
f 180/2/1 178/2/1 179/2/1
f 181/2/1 182/2/1 184/2/1
f 184/2/1 182/2/1 183/2/1
f 185/2/1 186/2/1 188/2/1
f 188/2/1 186/2/1 187/2/1
f 189/2/1 190/2/1 192/2/1
f 192/2/1 190/2/1 191/2/1
f 193/2/1 194/2/1 196/2/1
f 196/2/1 194/2/1 195/2/1
f 197/2/1 198/2/1 200/2/1
f 200/2/1 198/2/1 199/2/1
f 201/2/1 202/2/1 204/2/1
f 204/2/1 202/2/1 203/2/1
f 205/2/1 206/2/1 208/2/1
f 208/2/1 206/2/1 207/2/1
f 209/2/1 210/2/1 212/2/1
f 212/2/1 210/2/1 211/2/1
f 213/2/1 214/2/1 216/2/1
f 216/2/1 214/2/1 215/2/1
f 217/2/1 218/2/1 220/2/1
f 220/2/1 218/2/1 219/2/1
f 221/2/1 222/2/1 224/2/1
f 224/2/1 222/2/1 223/2/1
f 225/2/1 226/2/1 228/2/1
f 228/2/1 226/2/1 227/2/1
f 229/2/1 230/2/1 232/2/1
f 232/2/1 230/2/1 231/2/1
f 233/2/1 234/2/1 236/2/1
f 236/2/1 234/2/1 235/2/1
f 237/2/1 238/2/1 240/2/1
f 240/2/1 238/2/1 239/2/1
f 241/2/1 242/2/1 244/2/1
f 244/2/1 242/2/1 243/2/1
f 245/2/1 246/2/1 248/2/1
f 248/2/1 246/2/1 247/2/1
f 249/2/1 250/2/1 252/2/1
f 252/2/1 250/2/1 251/2/1
f 253/2/2 254/2/2 65/2/2
f 65/2/2 254/2/2 68/2/2
f 255/2/2 256/2/2 69/2/2
f 69/2/2 256/2/2 72/2/2
f 257/2/2 258/2/2 73/2/2
f 73/2/2 258/2/2 76/2/2
f 259/2/2 260/2/2 77/2/2
f 77/2/2 260/2/2 80/2/2
f 261/2/2 262/2/2 81/2/2
f 81/2/2 262/2/2 84/2/2
f 263/2/2 264/2/2 85/2/2
f 85/2/2 264/2/2 88/2/2
f 265/2/2 266/2/2 89/2/2
f 89/2/2 266/2/2 92/2/2
f 267/2/2 268/2/2 93/2/2
f 93/2/2 268/2/2 96/2/2
f 269/2/2 270/2/2 97/2/2
f 97/2/2 270/2/2 100/2/2
f 271/2/2 272/2/2 101/2/2
f 101/2/2 272/2/2 104/2/2
f 273/2/2 274/2/2 105/2/2
f 105/2/2 274/2/2 108/2/2
f 275/2/2 276/2/2 109/2/2
f 109/2/2 276/2/2 112/2/2
f 277/2/2 278/2/2 113/2/2
f 113/2/2 278/2/2 116/2/2
f 279/2/2 280/2/2 117/2/2
f 117/2/2 280/2/2 120/2/2
f 281/2/2 282/2/2 284/2/2
f 284/2/2 282/2/2 283/2/2
f 6/2/2 7/2/2 286/2/2
f 286/2/2 7/2/2 285/2/2
f 10/2/2 11/2/2 288/2/2
f 288/2/2 11/2/2 287/2/2
f 14/2/2 15/2/2 290/2/2
f 290/2/2 15/2/2 289/2/2
f 18/2/2 19/2/2 292/2/2
f 292/2/2 19/2/2 291/2/2
f 22/2/2 23/2/2 294/2/2
f 294/2/2 23/2/2 293/2/2
f 26/2/2 27/2/2 296/2/2
f 296/2/2 27/2/2 295/2/2
f 30/2/2 31/2/2 298/2/2
f 298/2/2 31/2/2 297/2/2
f 34/2/2 35/2/2 300/2/2
f 300/2/2 35/2/2 299/2/2
f 38/2/2 39/2/2 302/2/2
f 302/2/2 39/2/2 301/2/2
f 42/2/2 43/2/2 304/2/2
f 304/2/2 43/2/2 303/2/2
f 46/2/2 47/2/2 306/2/2
f 306/2/2 47/2/2 305/2/2
f 50/2/2 51/2/2 308/2/2
f 308/2/2 51/2/2 307/2/2
f 54/2/2 55/2/2 310/2/2
f 310/2/2 55/2/2 309/2/2
f 58/2/2 59/2/2 312/2/2
f 312/2/2 59/2/2 311/2/2
f 62/2/2 63/2/2 314/2/2
f 314/2/2 63/2/2 313/2/2
f 315/2/2 316/2/2 318/2/2
f 318/2/2 316/2/2 317/2/2
f 319/2/2 320/2/2 322/2/2
f 322/2/2 320/2/2 321/2/2
f 323/2/2 324/2/2 185/2/2
f 185/2/2 324/2/2 188/2/2
f 325/2/2 326/2/2 189/2/2
f 189/2/2 326/2/2 192/2/2
f 327/2/2 328/2/2 193/2/2
f 193/2/2 328/2/2 196/2/2
f 329/2/2 330/2/2 197/2/2
f 197/2/2 330/2/2 200/2/2
f 331/2/2 332/2/2 201/2/2
f 201/2/2 332/2/2 204/2/2
f 333/2/2 334/2/2 205/2/2
f 205/2/2 334/2/2 208/2/2
f 335/2/2 336/2/2 209/2/2
f 209/2/2 336/2/2 212/2/2
f 337/2/2 338/2/2 213/2/2
f 213/2/2 338/2/2 216/2/2
f 339/2/2 340/2/2 217/2/2
f 217/2/2 340/2/2 220/2/2
f 341/2/2 342/2/2 221/2/2
f 221/2/2 342/2/2 224/2/2
f 343/2/2 344/2/2 225/2/2
f 225/2/2 344/2/2 228/2/2
f 345/2/2 346/2/2 229/2/2
f 229/2/2 346/2/2 232/2/2
f 347/2/2 348/2/2 233/2/2
f 233/2/2 348/2/2 236/2/2
f 349/2/2 350/2/2 237/2/2
f 237/2/2 350/2/2 240/2/2
f 351/2/2 352/2/2 241/2/2
f 241/2/2 352/2/2 244/2/2
f 130/2/2 131/2/2 354/2/2
f 354/2/2 131/2/2 353/2/2
f 134/2/2 135/2/2 356/2/2
f 356/2/2 135/2/2 355/2/2
f 138/2/2 139/2/2 358/2/2
f 358/2/2 139/2/2 357/2/2
f 142/2/2 143/2/2 360/2/2
f 360/2/2 143/2/2 359/2/2
f 146/2/2 147/2/2 362/2/2
f 362/2/2 147/2/2 361/2/2
f 150/2/2 151/2/2 364/2/2
f 364/2/2 151/2/2 363/2/2
f 154/2/2 155/2/2 366/2/2
f 366/2/2 155/2/2 365/2/2
f 158/2/2 159/2/2 368/2/2
f 368/2/2 159/2/2 367/2/2
f 162/2/2 163/2/2 370/2/2
f 370/2/2 163/2/2 369/2/2
f 166/2/2 167/2/2 372/2/2
f 372/2/2 167/2/2 371/2/2
f 170/2/2 171/2/2 374/2/2
f 374/2/2 171/2/2 373/2/2
f 174/2/2 175/2/2 376/2/2
f 376/2/2 175/2/2 375/2/2
f 178/2/2 179/2/2 378/2/2
f 378/2/2 179/2/2 377/2/2
f 182/2/2 183/2/2 380/2/2
f 380/2/2 183/2/2 379/2/2
f 381/2/2 382/2/2 384/2/2
f 384/2/2 382/2/2 383/2/2
f 385/2/2 386/2/2 388/2/2
f 388/2/2 386/2/2 387/2/2
f 7/2/3 6/2/3 124/2/3
f 124/2/3 6/2/3 121/2/3
f 187/2/3 186/2/3 248/2/3
f 248/2/3 186/2/3 245/2/3
f 67/2/3 66/2/3 285/2/3
f 285/2/3 66/2/3 286/2/3
f 131/2/3 130/2/3 188/2/3
f 188/2/3 130/2/3 185/2/3
f 11/2/3 10/2/3 68/2/3
f 68/2/3 10/2/3 65/2/3
f 191/2/3 190/2/3 353/2/3
f 353/2/3 190/2/3 354/2/3
f 71/2/3 70/2/3 287/2/3
f 287/2/3 70/2/3 288/2/3
f 135/2/3 134/2/3 192/2/3
f 192/2/3 134/2/3 189/2/3
f 15/2/3 14/2/3 72/2/3
f 72/2/3 14/2/3 69/2/3
f 195/2/3 194/2/3 355/2/3
f 355/2/3 194/2/3 356/2/3
f 75/2/3 74/2/3 289/2/3
f 289/2/3 74/2/3 290/2/3
f 139/2/3 138/2/3 196/2/3
f 196/2/3 138/2/3 193/2/3
f 19/2/3 18/2/3 76/2/3
f 76/2/3 18/2/3 73/2/3
f 199/2/3 198/2/3 357/2/3
f 357/2/3 198/2/3 358/2/3
f 79/2/3 78/2/3 291/2/3
f 291/2/3 78/2/3 292/2/3
f 143/2/3 142/2/3 200/2/3
f 200/2/3 142/2/3 197/2/3
f 23/2/3 22/2/3 80/2/3
f 80/2/3 22/2/3 77/2/3
f 203/2/3 202/2/3 359/2/3
f 359/2/3 202/2/3 360/2/3
f 83/2/3 82/2/3 293/2/3
f 293/2/3 82/2/3 294/2/3
f 147/2/3 146/2/3 204/2/3
f 204/2/3 146/2/3 201/2/3
f 27/2/3 26/2/3 84/2/3
f 84/2/3 26/2/3 81/2/3
f 207/2/3 206/2/3 361/2/3
f 361/2/3 206/2/3 362/2/3
f 87/2/3 86/2/3 295/2/3
f 295/2/3 86/2/3 296/2/3
f 151/2/3 150/2/3 208/2/3
f 208/2/3 150/2/3 205/2/3
f 31/2/3 30/2/3 88/2/3
f 88/2/3 30/2/3 85/2/3
f 211/2/3 210/2/3 363/2/3
f 363/2/3 210/2/3 364/2/3
f 91/2/3 90/2/3 297/2/3
f 297/2/3 90/2/3 298/2/3
f 155/2/3 154/2/3 212/2/3
f 212/2/3 154/2/3 209/2/3
f 35/2/3 34/2/3 92/2/3
f 92/2/3 34/2/3 89/2/3
f 215/2/3 214/2/3 365/2/3
f 365/2/3 214/2/3 366/2/3
f 95/2/3 94/2/3 299/2/3
f 299/2/3 94/2/3 300/2/3
f 159/2/3 158/2/3 216/2/3
f 216/2/3 158/2/3 213/2/3
f 39/2/3 38/2/3 96/2/3
f 96/2/3 38/2/3 93/2/3
f 219/2/3 218/2/3 367/2/3
f 367/2/3 218/2/3 368/2/3
f 99/2/3 98/2/3 301/2/3
f 301/2/3 98/2/3 302/2/3
f 163/2/3 162/2/3 220/2/3
f 220/2/3 162/2/3 217/2/3
f 43/2/3 42/2/3 100/2/3
f 100/2/3 42/2/3 97/2/3
f 223/2/3 222/2/3 369/2/3
f 369/2/3 222/2/3 370/2/3
f 103/2/3 102/2/3 303/2/3
f 303/2/3 102/2/3 304/2/3
f 167/2/3 166/2/3 224/2/3
f 224/2/3 166/2/3 221/2/3
f 47/2/3 46/2/3 104/2/3
f 104/2/3 46/2/3 101/2/3
f 227/2/3 226/2/3 371/2/3
f 371/2/3 226/2/3 372/2/3
f 107/2/3 106/2/3 305/2/3
f 305/2/3 106/2/3 306/2/3
f 171/2/3 170/2/3 228/2/3
f 228/2/3 170/2/3 225/2/3
f 51/2/3 50/2/3 108/2/3
f 108/2/3 50/2/3 105/2/3
f 231/2/3 230/2/3 373/2/3
f 373/2/3 230/2/3 374/2/3
f 111/2/3 110/2/3 307/2/3
f 307/2/3 110/2/3 308/2/3
f 175/2/3 174/2/3 232/2/3
f 232/2/3 174/2/3 229/2/3
f 55/2/3 54/2/3 112/2/3
f 112/2/3 54/2/3 109/2/3
f 235/2/3 234/2/3 375/2/3
f 375/2/3 234/2/3 376/2/3
f 115/2/3 114/2/3 309/2/3
f 309/2/3 114/2/3 310/2/3
f 179/2/3 178/2/3 236/2/3
f 236/2/3 178/2/3 233/2/3
f 59/2/3 58/2/3 116/2/3
f 116/2/3 58/2/3 113/2/3
f 239/2/3 238/2/3 377/2/3
f 377/2/3 238/2/3 378/2/3
f 119/2/3 118/2/3 311/2/3
f 311/2/3 118/2/3 312/2/3
f 183/2/3 182/2/3 240/2/3
f 240/2/3 182/2/3 237/2/3
f 63/2/3 62/2/3 120/2/3
f 120/2/3 62/2/3 117/2/3
f 243/2/3 242/2/3 379/2/3
f 379/2/3 242/2/3 380/2/3
f 282/2/3 281/2/3 4/2/3
f 4/2/3 281/2/3 1/2/3
f 316/2/3 315/2/3 313/2/3
f 313/2/3 315/2/3 314/2/3
f 320/2/3 319/2/3 128/2/3
f 128/2/3 319/2/3 125/2/3
f 382/2/3 381/2/3 244/2/3
f 244/2/3 381/2/3 241/2/3
f 251/2/3 250/2/3 387/2/3
f 387/2/3 250/2/3 388/2/3
f 8/2/4 3/2/4 5/2/4
f 5/2/4 3/2/4 2/2/4
f 188/2/4 127/2/4 185/2/4
f 185/2/4 127/2/4 126/2/4
f 68/2/4 7/2/4 65/2/4
f 65/2/4 7/2/4 6/2/4
f 132/2/4 324/2/4 129/2/4
f 129/2/4 324/2/4 323/2/4
f 12/2/4 254/2/4 9/2/4
f 9/2/4 254/2/4 253/2/4
f 192/2/4 131/2/4 189/2/4
f 189/2/4 131/2/4 130/2/4
f 72/2/4 11/2/4 69/2/4
f 69/2/4 11/2/4 10/2/4
f 136/2/4 326/2/4 133/2/4
f 133/2/4 326/2/4 325/2/4
f 16/2/4 256/2/4 13/2/4
f 13/2/4 256/2/4 255/2/4
f 196/2/4 135/2/4 193/2/4
f 193/2/4 135/2/4 134/2/4
f 76/2/4 15/2/4 73/2/4
f 73/2/4 15/2/4 14/2/4
f 140/2/4 328/2/4 137/2/4
f 137/2/4 328/2/4 327/2/4
f 20/2/4 258/2/4 17/2/4
f 17/2/4 258/2/4 257/2/4
f 200/2/4 139/2/4 197/2/4
f 197/2/4 139/2/4 138/2/4
f 80/2/4 19/2/4 77/2/4
f 77/2/4 19/2/4 18/2/4
f 144/2/4 330/2/4 141/2/4
f 141/2/4 330/2/4 329/2/4
f 24/2/4 260/2/4 21/2/4
f 21/2/4 260/2/4 259/2/4
f 204/2/4 143/2/4 201/2/4
f 201/2/4 143/2/4 142/2/4
f 84/2/4 23/2/4 81/2/4
f 81/2/4 23/2/4 22/2/4
f 148/2/4 332/2/4 145/2/4
f 145/2/4 332/2/4 331/2/4
f 28/2/4 262/2/4 25/2/4
f 25/2/4 262/2/4 261/2/4
f 208/2/4 147/2/4 205/2/4
f 205/2/4 147/2/4 146/2/4
f 88/2/4 27/2/4 85/2/4
f 85/2/4 27/2/4 26/2/4
f 152/2/4 334/2/4 149/2/4
f 149/2/4 334/2/4 333/2/4
f 32/2/4 264/2/4 29/2/4
f 29/2/4 264/2/4 263/2/4
f 212/2/4 151/2/4 209/2/4
f 209/2/4 151/2/4 150/2/4
f 92/2/4 31/2/4 89/2/4
f 89/2/4 31/2/4 30/2/4
f 156/2/4 336/2/4 153/2/4
f 153/2/4 336/2/4 335/2/4
f 36/2/4 266/2/4 33/2/4
f 33/2/4 266/2/4 265/2/4
f 216/2/4 155/2/4 213/2/4
f 213/2/4 155/2/4 154/2/4
f 96/2/4 35/2/4 93/2/4
f 93/2/4 35/2/4 34/2/4
f 160/2/4 338/2/4 157/2/4
f 157/2/4 338/2/4 337/2/4
f 40/2/4 268/2/4 37/2/4
f 37/2/4 268/2/4 267/2/4
f 220/2/4 159/2/4 217/2/4
f 217/2/4 159/2/4 158/2/4
f 100/2/4 39/2/4 97/2/4
f 97/2/4 39/2/4 38/2/4
f 164/2/4 340/2/4 161/2/4
f 161/2/4 340/2/4 339/2/4
f 44/2/4 270/2/4 41/2/4
f 41/2/4 270/2/4 269/2/4
f 224/2/4 163/2/4 221/2/4
f 221/2/4 163/2/4 162/2/4
f 104/2/4 43/2/4 101/2/4
f 101/2/4 43/2/4 42/2/4
f 168/2/4 342/2/4 165/2/4
f 165/2/4 342/2/4 341/2/4
f 48/2/4 272/2/4 45/2/4
f 45/2/4 272/2/4 271/2/4
f 228/2/4 167/2/4 225/2/4
f 225/2/4 167/2/4 166/2/4
f 108/2/4 47/2/4 105/2/4
f 105/2/4 47/2/4 46/2/4
f 172/2/4 344/2/4 169/2/4
f 169/2/4 344/2/4 343/2/4
f 52/2/4 274/2/4 49/2/4
f 49/2/4 274/2/4 273/2/4
f 232/2/4 171/2/4 229/2/4
f 229/2/4 171/2/4 170/2/4
f 112/2/4 51/2/4 109/2/4
f 109/2/4 51/2/4 50/2/4
f 176/2/4 346/2/4 173/2/4
f 173/2/4 346/2/4 345/2/4
f 56/2/4 276/2/4 53/2/4
f 53/2/4 276/2/4 275/2/4
f 236/2/4 175/2/4 233/2/4
f 233/2/4 175/2/4 174/2/4
f 116/2/4 55/2/4 113/2/4
f 113/2/4 55/2/4 54/2/4
f 180/2/4 348/2/4 177/2/4
f 177/2/4 348/2/4 347/2/4
f 60/2/4 278/2/4 57/2/4
f 57/2/4 278/2/4 277/2/4
f 240/2/4 179/2/4 237/2/4
f 237/2/4 179/2/4 178/2/4
f 120/2/4 59/2/4 117/2/4
f 117/2/4 59/2/4 58/2/4
f 184/2/4 350/2/4 181/2/4
f 181/2/4 350/2/4 349/2/4
f 64/2/4 280/2/4 61/2/4
f 61/2/4 280/2/4 279/2/4
f 244/2/4 183/2/4 241/2/4
f 241/2/4 183/2/4 182/2/4
f 283/2/4 63/2/4 284/2/4
f 284/2/4 63/2/4 62/2/4
f 317/2/4 123/2/4 318/2/4
f 318/2/4 123/2/4 122/2/4
f 321/2/4 352/2/4 322/2/4
f 322/2/4 352/2/4 351/2/4
f 383/2/4 247/2/4 384/2/4
f 384/2/4 247/2/4 246/2/4
f 252/2/4 386/2/4 249/2/4
f 249/2/4 386/2/4 385/2/4
f 125/2/5 389/2/5 390/2/5
f 390/2/5 389/2/5 249/2/5
f 324/1/5 321/1/5 391/1/5
f 391/1/5 321/1/5 320/1/5
f 127/1/5 188/1/5 128/1/5
f 128/1/5 188/1/5 391/1/5
f 185/2/5 130/2/5 323/2/5
f 323/2/5 130/2/5 129/2/5
f 131/1/5 192/1/5 132/1/5
f 132/1/5 192/1/5 326/1/5
f 189/2/5 134/2/5 325/2/5
f 325/2/5 134/2/5 133/2/5
f 135/1/5 196/1/5 136/1/5
f 136/1/5 196/1/5 328/1/5
f 193/2/5 138/2/5 327/2/5
f 327/2/5 138/2/5 137/2/5
f 139/1/5 200/1/5 140/1/5
f 140/1/5 200/1/5 330/1/5
f 197/2/5 142/2/5 329/2/5
f 329/2/5 142/2/5 141/2/5
f 143/1/5 204/1/5 144/1/5
f 144/1/5 204/1/5 332/1/5
f 201/2/5 146/2/5 331/2/5
f 331/2/5 146/2/5 145/2/5
f 147/1/5 208/1/5 148/1/5
f 148/1/5 208/1/5 334/1/5
f 205/2/5 150/2/5 333/2/5
f 333/2/5 150/2/5 149/2/5
f 151/1/5 212/1/5 152/1/5
f 152/1/5 212/1/5 336/1/5
f 209/2/5 154/2/5 335/2/5
f 335/2/5 154/2/5 153/2/5
f 155/1/5 216/1/5 156/1/5
f 156/1/5 216/1/5 338/1/5
f 213/2/5 158/2/5 337/2/5
f 337/2/5 158/2/5 157/2/5
f 159/1/5 220/1/5 160/1/5
f 160/1/5 220/1/5 340/1/5
f 217/2/5 162/2/5 339/2/5
f 339/2/5 162/2/5 161/2/5
f 163/1/5 224/1/5 164/1/5
f 164/1/5 224/1/5 342/1/5
f 221/2/5 166/2/5 341/2/5
f 341/2/5 166/2/5 165/2/5
f 167/1/5 228/1/5 168/1/5
f 168/1/5 228/1/5 344/1/5
f 225/2/5 170/2/5 343/2/5
f 343/2/5 170/2/5 169/2/5
f 171/1/5 232/1/5 172/1/5
f 172/1/5 232/1/5 346/1/5
f 229/2/5 174/2/5 345/2/5
f 345/2/5 174/2/5 173/2/5
f 175/1/5 236/1/5 176/1/5
f 176/1/5 236/1/5 348/1/5
f 233/2/5 178/2/5 347/2/5
f 347/2/5 178/2/5 177/2/5
f 179/1/5 240/1/5 180/1/5
f 180/1/5 240/1/5 350/1/5
f 237/2/5 182/2/5 349/2/5
f 349/2/5 182/2/5 181/2/5
f 183/1/5 244/1/5 184/1/5
f 184/1/5 244/1/5 352/1/5
f 241/2/5 381/2/5 351/2/5
f 351/2/5 381/2/5 322/2/5
f 245/2/5 186/2/5 126/2/5
f 126/2/5 186/2/5 185/2/5
f 354/2/5 190/2/5 130/2/5
f 130/2/5 190/2/5 189/2/5
f 356/2/5 194/2/5 134/2/5
f 134/2/5 194/2/5 193/2/5
f 358/2/5 198/2/5 138/2/5
f 138/2/5 198/2/5 197/2/5
f 360/2/5 202/2/5 142/2/5
f 142/2/5 202/2/5 201/2/5
f 362/2/5 206/2/5 146/2/5
f 146/2/5 206/2/5 205/2/5
f 364/2/5 210/2/5 150/2/5
f 150/2/5 210/2/5 209/2/5
f 366/2/5 214/2/5 154/2/5
f 154/2/5 214/2/5 213/2/5
f 368/2/5 218/2/5 158/2/5
f 158/2/5 218/2/5 217/2/5
f 370/2/5 222/2/5 162/2/5
f 162/2/5 222/2/5 221/2/5
f 372/2/5 226/2/5 166/2/5
f 166/2/5 226/2/5 225/2/5
f 374/2/5 230/2/5 170/2/5
f 170/2/5 230/2/5 229/2/5
f 376/2/5 234/2/5 174/2/5
f 174/2/5 234/2/5 233/2/5
f 378/2/5 238/2/5 178/2/5
f 178/2/5 238/2/5 237/2/5
f 380/2/5 242/2/5 182/2/5
f 182/2/5 242/2/5 241/2/5
f 247/1/5 392/1/5 248/1/5
f 248/1/5 392/1/5 187/1/5
f 392/1/5 393/1/5 188/1/5
f 188/1/5 393/1/5 131/1/5
f 393/1/5 394/1/5 353/1/5
f 353/1/5 394/1/5 191/1/5
f 394/1/5 395/1/5 192/1/5
f 192/1/5 395/1/5 135/1/5
f 395/1/5 396/1/5 355/1/5
f 355/1/5 396/1/5 195/1/5
f 396/1/5 397/1/5 196/1/5
f 196/1/5 397/1/5 139/1/5
f 397/1/5 398/1/5 357/1/5
f 357/1/5 398/1/5 199/1/5
f 398/1/5 399/1/5 200/1/5
f 200/1/5 399/1/5 143/1/5
f 399/1/5 400/1/5 359/1/5
f 359/1/5 400/1/5 203/1/5
f 400/1/5 401/1/5 204/1/5
f 204/1/5 401/1/5 147/1/5
f 401/1/5 402/1/5 361/1/5
f 361/1/5 402/1/5 207/1/5
f 402/1/5 403/1/5 208/1/5
f 208/1/5 403/1/5 151/1/5
f 403/1/5 404/1/5 363/1/5
f 363/1/5 404/1/5 211/1/5
f 404/1/5 405/1/5 212/1/5
f 212/1/5 405/1/5 155/1/5
f 405/1/5 406/1/5 365/1/5
f 365/1/5 406/1/5 215/1/5
f 406/1/5 407/1/5 216/1/5
f 216/1/5 407/1/5 159/1/5
f 407/1/5 408/1/5 367/1/5
f 367/1/5 408/1/5 219/1/5
f 408/1/5 409/1/5 220/1/5
f 220/1/5 409/1/5 163/1/5
f 409/1/5 410/1/5 369/1/5
f 369/1/5 410/1/5 223/1/5
f 410/1/5 411/1/5 224/1/5
f 224/1/5 411/1/5 167/1/5
f 411/1/5 412/1/5 371/1/5
f 371/1/5 412/1/5 227/1/5
f 412/1/5 413/1/5 228/1/5
f 228/1/5 413/1/5 171/1/5
f 413/1/5 414/1/5 373/1/5
f 373/1/5 414/1/5 231/1/5
f 414/1/5 415/1/5 232/1/5
f 232/1/5 415/1/5 175/1/5
f 415/1/5 416/1/5 375/1/5
f 375/1/5 416/1/5 235/1/5
f 416/1/5 417/1/5 236/1/5
f 236/1/5 417/1/5 179/1/5
f 417/1/5 418/1/5 377/1/5
f 377/1/5 418/1/5 239/1/5
f 418/1/5 419/1/5 240/1/5
f 240/1/5 419/1/5 183/1/5
f 419/1/5 420/1/5 379/1/5
f 379/1/5 420/1/5 243/1/5
f 420/1/5 383/1/5 244/1/5
f 244/1/5 383/1/5 382/1/5
f 388/2/5 421/2/5 385/2/5
f 385/2/5 421/2/5 390/2/5
f 421/2/5 422/2/5 246/2/5
f 246/2/5 422/2/5 384/2/5
f 422/2/5 250/2/5 319/2/5
f 319/2/5 250/2/5 389/2/5
f 4/2/6 423/2/6 424/2/6
f 424/2/6 423/2/6 252/2/6
f 2/1/6 1/1/6 425/1/6
f 425/1/6 1/1/6 281/1/6
f 124/2/6 3/2/6 7/2/6
f 7/2/6 3/2/6 8/2/6
f 6/1/6 5/1/6 65/1/6
f 65/1/6 5/1/6 253/1/6
f 68/2/6 254/2/6 11/2/6
f 11/2/6 254/2/6 12/2/6
f 10/1/6 9/1/6 69/1/6
f 69/1/6 9/1/6 255/1/6
f 72/2/6 256/2/6 15/2/6
f 15/2/6 256/2/6 16/2/6
f 14/1/6 13/1/6 73/1/6
f 73/1/6 13/1/6 257/1/6
f 76/2/6 258/2/6 19/2/6
f 19/2/6 258/2/6 20/2/6
f 18/1/6 17/1/6 77/1/6
f 77/1/6 17/1/6 259/1/6
f 80/2/6 260/2/6 23/2/6
f 23/2/6 260/2/6 24/2/6
f 22/1/6 21/1/6 81/1/6
f 81/1/6 21/1/6 261/1/6
f 84/2/6 262/2/6 27/2/6
f 27/2/6 262/2/6 28/2/6
f 26/1/6 25/1/6 85/1/6
f 85/1/6 25/1/6 263/1/6
f 88/2/6 264/2/6 31/2/6
f 31/2/6 264/2/6 32/2/6
f 30/1/6 29/1/6 89/1/6
f 89/1/6 29/1/6 265/1/6
f 92/2/6 266/2/6 35/2/6
f 35/2/6 266/2/6 36/2/6
f 34/1/6 33/1/6 93/1/6
f 93/1/6 33/1/6 267/1/6
f 96/2/6 268/2/6 39/2/6
f 39/2/6 268/2/6 40/2/6
f 38/1/6 37/1/6 97/1/6
f 97/1/6 37/1/6 269/1/6
f 100/2/6 270/2/6 43/2/6
f 43/2/6 270/2/6 44/2/6
f 42/1/6 41/1/6 101/1/6
f 101/1/6 41/1/6 271/1/6
f 104/2/6 272/2/6 47/2/6
f 47/2/6 272/2/6 48/2/6
f 46/1/6 45/1/6 105/1/6
f 105/1/6 45/1/6 273/1/6
f 108/2/6 274/2/6 51/2/6
f 51/2/6 274/2/6 52/2/6
f 50/1/6 49/1/6 109/1/6
f 109/1/6 49/1/6 275/1/6
f 112/2/6 276/2/6 55/2/6
f 55/2/6 276/2/6 56/2/6
f 54/1/6 53/1/6 113/1/6
f 113/1/6 53/1/6 277/1/6
f 116/2/6 278/2/6 59/2/6
f 59/2/6 278/2/6 60/2/6
f 58/1/6 57/1/6 117/1/6
f 117/1/6 57/1/6 279/1/6
f 120/2/6 280/2/6 63/2/6
f 63/2/6 280/2/6 64/2/6
f 62/1/6 61/1/6 284/1/6
f 284/1/6 61/1/6 425/1/6
f 285/2/6 7/2/6 67/2/6
f 67/2/6 7/2/6 68/2/6
f 287/2/6 11/2/6 71/2/6
f 71/2/6 11/2/6 72/2/6
f 289/2/6 15/2/6 75/2/6
f 75/2/6 15/2/6 76/2/6
f 291/2/6 19/2/6 79/2/6
f 79/2/6 19/2/6 80/2/6
f 293/2/6 23/2/6 83/2/6
f 83/2/6 23/2/6 84/2/6
f 295/2/6 27/2/6 87/2/6
f 87/2/6 27/2/6 88/2/6
f 297/2/6 31/2/6 91/2/6
f 91/2/6 31/2/6 92/2/6
f 299/2/6 35/2/6 95/2/6
f 95/2/6 35/2/6 96/2/6
f 301/2/6 39/2/6 99/2/6
f 99/2/6 39/2/6 100/2/6
f 303/2/6 43/2/6 103/2/6
f 103/2/6 43/2/6 104/2/6
f 305/2/6 47/2/6 107/2/6
f 107/2/6 47/2/6 108/2/6
f 307/2/6 51/2/6 111/2/6
f 111/2/6 51/2/6 112/2/6
f 309/2/6 55/2/6 115/2/6
f 115/2/6 55/2/6 116/2/6
f 311/2/6 59/2/6 119/2/6
f 119/2/6 59/2/6 120/2/6
f 313/2/6 63/2/6 316/2/6
f 316/2/6 63/2/6 283/2/6
f 122/1/6 121/1/6 426/1/6
f 426/1/6 121/1/6 6/1/6
f 426/1/6 286/1/6 427/1/6
f 427/1/6 286/1/6 66/1/6
f 427/1/6 65/1/6 428/1/6
f 428/1/6 65/1/6 10/1/6
f 428/1/6 288/1/6 429/1/6
f 429/1/6 288/1/6 70/1/6
f 429/1/6 69/1/6 430/1/6
f 430/1/6 69/1/6 14/1/6
f 430/1/6 290/1/6 431/1/6
f 431/1/6 290/1/6 74/1/6
f 431/1/6 73/1/6 432/1/6
f 432/1/6 73/1/6 18/1/6
f 432/1/6 292/1/6 433/1/6
f 433/1/6 292/1/6 78/1/6
f 433/1/6 77/1/6 434/1/6
f 434/1/6 77/1/6 22/1/6
f 434/1/6 294/1/6 435/1/6
f 435/1/6 294/1/6 82/1/6
f 435/1/6 81/1/6 436/1/6
f 436/1/6 81/1/6 26/1/6
f 436/1/6 296/1/6 437/1/6
f 437/1/6 296/1/6 86/1/6
f 437/1/6 85/1/6 438/1/6
f 438/1/6 85/1/6 30/1/6
f 438/1/6 298/1/6 439/1/6
f 439/1/6 298/1/6 90/1/6
f 439/1/6 89/1/6 440/1/6
f 440/1/6 89/1/6 34/1/6
f 440/1/6 300/1/6 441/1/6
f 441/1/6 300/1/6 94/1/6
f 441/1/6 93/1/6 442/1/6
f 442/1/6 93/1/6 38/1/6
f 442/1/6 302/1/6 443/1/6
f 443/1/6 302/1/6 98/1/6
f 443/1/6 97/1/6 444/1/6
f 444/1/6 97/1/6 42/1/6
f 444/1/6 304/1/6 445/1/6
f 445/1/6 304/1/6 102/1/6
f 445/1/6 101/1/6 446/1/6
f 446/1/6 101/1/6 46/1/6
f 446/1/6 306/1/6 447/1/6
f 447/1/6 306/1/6 106/1/6
f 447/1/6 105/1/6 448/1/6
f 448/1/6 105/1/6 50/1/6
f 448/1/6 308/1/6 449/1/6
f 449/1/6 308/1/6 110/1/6
f 449/1/6 109/1/6 450/1/6
f 450/1/6 109/1/6 54/1/6
f 450/1/6 310/1/6 451/1/6
f 451/1/6 310/1/6 114/1/6
f 451/1/6 113/1/6 452/1/6
f 452/1/6 113/1/6 58/1/6
f 452/1/6 312/1/6 453/1/6
f 453/1/6 312/1/6 118/1/6
f 453/1/6 117/1/6 454/1/6
f 454/1/6 117/1/6 62/1/6
f 454/1/6 314/1/6 318/1/6
f 318/1/6 314/1/6 315/1/6
f 387/2/6 386/2/6 455/2/6
f 455/2/6 386/2/6 423/2/6
f 455/2/6 123/2/6 456/2/6
f 456/2/6 123/2/6 317/2/6
f 456/2/6 282/2/6 251/2/6
f 251/2/6 282/2/6 424/2/6
