# Vengi binary mesh normalized for Tanks of Freedom II

mtllib ../../../materials/vox_grass.mtl
o wall4_straight2

v 4 0.2 1.2
v 3.8 0.2 1.2
v 3.8 0.2 1.3
v 4 0.2 1.3
v 3.5 0.2 1.2
v 3.5 0.2 1.3
v 4 0.4 1.1
v 3.8 0.4 1.1
v 3.8 0.4 1.2
v 4 0.4 1.2
v 3.5 0.4 1.1
v 3.5 0.4 1.2
v 3.5 0.2 1.1
v 3.4 0.2 1.1
v 3.4 0.2 1.2
v 4 0.6 1
v 3.8 0.6 1
v 3.8 0.6 1.1
v 4 0.6 1.1
v 3.5 0.6 1
v 3.5 0.6 1.1
v 3.5 0.4 1
v 3.4 0.4 1
v 3.4 0.4 1.1
v 4 0.8 0.9
v 3.8 0.8 0.9
v 3.8 0.8 1
v 4 0.8 1
v 3.5 0.8 0.9
v 3.5 0.8 1
v 3.5 0.6 0.9
v 3.4 0.6 0.9
v 3.4 0.6 1
v 4 1 0.8
v 3.8 1 0.8
v 3.8 1 0.9
v 4 1 0.9
v 3.5 1 0.8
v 3.5 1 0.9
v 3.5 0.8 0.8
v 3.4 0.8 0.8
v 3.4 0.8 0.9
v 3.4 0.2 0.8
v 3.3 0.2 0.8
v 3.3 0.2 1
v 3.4 0.2 1
v 4 1.2 0.7
v 3.8 1.2 0.7
v 3.8 1.2 0.8
v 4 1.2 0.8
v 3.5 1.2 0.7
v 3.5 1.2 0.8
v 3.5 1 0.7
v 3.4 1 0.7
v 3.4 1 0.8
v 3.4 0.4 0.7
v 3.3 0.4 0.7
v 3.3 0.4 0.8
v 3.4 0.4 0.8
v 4 1.4 0.6
v 3.8 1.4 0.6
v 3.8 1.4 0.7
v 4 1.4 0.7
v 3.5 1.4 0.6
v 3.5 1.4 0.7
v 3.5 1.2 0.6
v 3.4 1.2 0.6
v 3.4 1.2 0.7
v 3.4 0.6 0.6
v 3.3 0.6 0.6
v 3.3 0.6 0.7
v 3.4 0.6 0.7
v 4 1.6 0.5
v 3.8 1.6 0.5
v 3.8 1.6 0.6
v 4 1.6 0.6
v 3.5 1.6 0.5
v 3.5 1.6 0.6
v 3.5 1.4 0.5
v 3.4 1.4 0.5
v 3.4 1.4 0.6
v 3.4 0.8 0.5
v 3.3 0.8 0.5
v 3.3 0.8 0.6
v 3.4 0.8 0.6
v 4 1.8 0.4
v 3.8 1.8 0.4
v 3.8 1.8 0.5
v 4 1.8 0.5
v 3.5 1.8 0.4
v 3.5 1.8 0.5
v 3.5 1.6 0.4
v 3.4 1.6 0.4
v 3.4 1.6 0.5
v 3.4 1 0.4
v 3.3 1 0.4
v 3.3 1 0.5
v 3.4 1 0.5
v 4 2 0.3
v 3.8 2 0.3
v 3.8 2 0.4
v 4 2 0.4
v 3.4 2 0.3
v 3.4 2 0.4
v 3.4 1.2 0.3
v 3.3 1.2 0.3
v 3.3 1.2 0.4
v 3.4 1.2 0.4
v 4 3 0.2
v 3.8 3 0.2
v 3.8 3 0.3
v 4 3 0.3
v 3.5 3 0.2
v 3.5 3 0.3
v 3.5 2.8 0.2
v 3.4 2.8 0.2
v 3.4 2.8 0.3
v 3.5 2.8 0.3
v 3.4 2 0.2
v 3.3 2 0.2
v 3.3 2 0.3
v 4 3.2 0.1
v -2.2 3.2 0.1
v -2.2 3.2 0.2
v 4 3.2 0.2
v 4 3.3 -0.1
v -2.2 3.3 -0.1
v -2.2 3.3 0.1
v 4 3.3 0.1
v 4 3.2 -0.2
v -2.2 3.2 -0.2
v -2.2 3.2 -0.1
v 4 3.2 -0.1
v 4 3 -0.3
v 3.8 3 -0.3
v 3.8 3 -0.2
v 4 3 -0.2
v 3.5 3 -0.3
v 3.5 3 -0.2
v 3.5 2.8 -0.3
v 3.4 2.8 -0.3
v 3.4 2.8 -0.2
v 3.5 2.8 -0.2
v 3.4 2 -0.3
v 3.3 2 -0.3
v 3.3 2 -0.2
v 3.4 2 -0.2
v 4 2 -0.4
v 3.8 2 -0.4
v 3.8 2 -0.3
v 4 2 -0.3
v 3.4 2 -0.4
v 3.4 1.2 -0.4
v 3.3 1.2 -0.4
v 3.3 1.2 -0.3
v 3.4 1.2 -0.3
v 4 1.8 -0.5
v 3.8 1.8 -0.5
v 3.8 1.8 -0.4
v 4 1.8 -0.4
v 3.5 1.8 -0.5
v 3.5 1.8 -0.4
v 3.5 1.6 -0.5
v 3.4 1.6 -0.5
v 3.4 1.6 -0.4
v 3.5 1.6 -0.4
v 3.4 1 -0.5
v 3.3 1 -0.5
v 3.3 1 -0.4
v 3.4 1 -0.4
v 4 1.6 -0.6
v 3.8 1.6 -0.6
v 3.8 1.6 -0.5
v 4 1.6 -0.5
v 3.5 1.6 -0.6
v 3.5 1.4 -0.6
v 3.4 1.4 -0.6
v 3.4 1.4 -0.5
v 3.5 1.4 -0.5
v 3.4 0.8 -0.6
v 3.3 0.8 -0.6
v 3.3 0.8 -0.5
v 3.4 0.8 -0.5
v 4 1.4 -0.7
v 3.8 1.4 -0.7
v 3.8 1.4 -0.6
v 4 1.4 -0.6
v 3.5 1.4 -0.7
v 3.5 1.2 -0.7
v 3.4 1.2 -0.7
v 3.4 1.2 -0.6
v 3.5 1.2 -0.6
v 3.4 0.6 -0.7
v 3.3 0.6 -0.7
v 3.3 0.6 -0.6
v 3.4 0.6 -0.6
v 4 1.2 -0.8
v 3.8 1.2 -0.8
v 3.8 1.2 -0.7
v 4 1.2 -0.7
v 3.5 1.2 -0.8
v 3.5 1 -0.8
v 3.4 1 -0.8
v 3.4 1 -0.7
v 3.5 1 -0.7
v 3.4 0.4 -0.8
v 3.3 0.4 -0.8
v 3.3 0.4 -0.7
v 3.4 0.4 -0.7
v 4 1 -0.9
v 3.8 1 -0.9
v 3.8 1 -0.8
v 4 1 -0.8
v 3.5 1 -0.9
v 3.5 0.8 -0.9
v 3.4 0.8 -0.9
v 3.4 0.8 -0.8
v 3.5 0.8 -0.8
v 4 0.8 -1
v 3.8 0.8 -1
v 3.8 0.8 -0.9
v 4 0.8 -0.9
v 3.5 0.8 -1
v 3.5 0.6 -1
v 3.4 0.6 -1
v 3.4 0.6 -0.9
v 3.5 0.6 -0.9
v 3.4 0.2 -1
v 3.3 0.2 -1
v 3.3 0.2 -0.8
v 3.4 0.2 -0.8
v 4 0.6 -1.1
v 3.8 0.6 -1.1
v 3.8 0.6 -1
v 4 0.6 -1
v 3.5 0.6 -1.1
v 3.5 0.4 -1.1
v 3.4 0.4 -1.1
v 3.4 0.4 -1
v 3.5 0.4 -1
v 4 0.4 -1.2
v 3.8 0.4 -1.2
v 3.8 0.4 -1.1
v 4 0.4 -1.1
v 3.5 0.4 -1.2
v 3.5 0.2 -1.2
v 3.4 0.2 -1.2
v 3.4 0.2 -1.1
v 3.5 0.2 -1.1
v 4 0.2 -1.3
v 3.8 0.2 -1.3
v 3.8 0.2 -1.2
v 4 0.2 -1.2
v 3.5 0.2 -1.3
v 4 0 0.6
v 4 0 1.3
v 3.8 0 1.3
v 3.8 0 0.6
v 3.5 0 1.3
v 3.5 0 0.6
v 3.5 0 1.2
v 3.4 0 1.2
v 3.4 0 0.6
v 3.4 0 1
v 3.3 0 1
v 3.3 0 0.6
v 4 0.1 0.5
v 4 0.1 0.6
v 3.8 0.1 0.6
v 3.8 0.1 0.5
v 3.3 0.1 0.6
v 3.3 0.1 0.5
v 4 0.3 0.4
v 4 0.3 0.5
v 3.8 0.3 0.5
v 3.8 0.3 0.4
v 3.3 0.3 0.5
v 3.3 0.3 0.4
v 4 0.6 0.3
v 4 0.6 0.4
v 3.8 0.6 0.4
v 3.8 0.6 0.3
v 3.3 0.6 0.4
v 3.3 0.6 0.3
v 4 0.9 0.2
v 4 0.9 0.3
v 3.8 0.9 0.3
v 3.8 0.9 0.2
v 3.3 0.9 0.3
v 3.3 0.9 0.2
v 4 0 -0.2
v 4 0 0.2
v -2.2 0 0.2
v -2.2 0 -0.2
v 4 0.9 -0.3
v 4 0.9 -0.2
v 3.8 0.9 -0.2
v 3.8 0.9 -0.3
v 3.3 0.9 -0.2
v 3.3 0.9 -0.3
v 4 0.6 -0.4
v 4 0.6 -0.3
v 3.8 0.6 -0.3
v 3.8 0.6 -0.4
v 3.3 0.6 -0.3
v 3.3 0.6 -0.4
v 4 0.3 -0.5
v 4 0.3 -0.4
v 3.8 0.3 -0.4
v 3.8 0.3 -0.5
v 3.3 0.3 -0.4
v 3.3 0.3 -0.5
v 4 0.1 -0.6
v 4 0.1 -0.5
v 3.8 0.1 -0.5
v 3.8 0.1 -0.6
v 3.3 0.1 -0.5
v 3.3 0.1 -0.6
v 3.4 0 -1
v 3.4 0 -0.6
v 3.3 0 -0.6
v 3.3 0 -1
v 3.5 0 -1.2
v 3.5 0 -0.6
v 3.4 0 -1.2
v 4 0 -1.3
v 4 0 -0.6
v 3.8 0 -0.6
v 3.8 0 -1.3
v 3.5 0 -1.3
v 3.3 0.2 0.6
v 3.3 0 -0.8
v 3.4 0 -1.1
v 3.3 0.4 0.6
v 3.3 0 -0.7
v 3.4 0.2 -0.9
v 3.4 1.4 0.3
v 3.4 1.6 0.3
v 4 0.2 0.6
v 4 0 -1.2
v 4 0.4 0.6
v 4 0 -1.1
v 4 0.6 0.6
v 4 0 -1
v 4 0.8 0.6
v 4 0 -0.9
v 4 1 0.6
v 4 0 -0.8
v 4 1.2 0.6
v 4 0 -0.7
v 3.8 2.8 -0.3
v 3.4 1.8 -0.4
v -2.2 0.9 -0.2
v -2.2 2 -0.2
v -2.2 2.8 -0.2
v -2.2 3 -0.2
v 3.8 2.8 0.3
v 3.4 1.8 0.4
v -2.2 0.9 0.2
v -2.2 2 0.2
v -2.2 2.8 0.2
v -2.2 3 0.2
v -3.5 0.2 1.2
v -3.8 0.2 1.2
v -3.8 0.2 1.3
v -3.5 0.2 1.3
v -4 0.2 1.2
v -4 0.2 1.3
v -3.4 0.2 1.1
v -3.5 0.2 1.1
v -3.4 0.2 1.2
v -3.5 0.4 1.1
v -3.8 0.4 1.1
v -3.8 0.4 1.2
v -3.5 0.4 1.2
v -4 0.4 1.1
v -4 0.4 1.2
v -3.4 0.4 1
v -3.5 0.4 1
v -3.4 0.4 1.1
v -3.5 0.6 1
v -3.8 0.6 1
v -3.8 0.6 1.1
v -3.5 0.6 1.1
v -4 0.6 1
v -4 0.6 1.1
v -3.4 0.6 0.9
v -3.5 0.6 0.9
v -3.4 0.6 1
v -3.5 0.8 0.9
v -3.8 0.8 0.9
v -3.8 0.8 1
v -3.5 0.8 1
v -4 0.8 0.9
v -4 0.8 1
v -3.3 0.2 0.8
v -3.4 0.2 0.8
v -3.4 0.2 1
v -3.3 0.2 1
v -3.4 0.8 0.8
v -3.5 0.8 0.8
v -3.4 0.8 0.9
v -3.5 1 0.8
v -3.8 1 0.8
v -3.8 1 0.9
v -3.5 1 0.9
v -4 1 0.8
v -4 1 0.9
v -3.3 0.4 0.7
v -3.4 0.4 0.7
v -3.4 0.4 0.8
v -3.3 0.4 0.8
v -3.4 1 0.7
v -3.5 1 0.7
v -3.4 1 0.8
v -3.5 1.2 0.7
v -3.8 1.2 0.7
v -3.8 1.2 0.8
v -3.5 1.2 0.8
v -4 1.2 0.7
v -4 1.2 0.8
v -3.3 0.6 0.6
v -3.4 0.6 0.6
v -3.4 0.6 0.7
v -3.3 0.6 0.7
v -3.4 1.2 0.6
v -3.5 1.2 0.6
v -3.4 1.2 0.7
v -3.5 1.4 0.6
v -3.8 1.4 0.6
v -3.8 1.4 0.7
v -3.5 1.4 0.7
v -4 1.4 0.6
v -4 1.4 0.7
v -3.3 0.8 0.5
v -3.4 0.8 0.5
v -3.4 0.8 0.6
v -3.3 0.8 0.6
v -3.4 1.4 0.5
v -3.5 1.4 0.5
v -3.4 1.4 0.6
v -3.5 1.6 0.5
v -3.8 1.6 0.5
v -3.8 1.6 0.6
v -3.5 1.6 0.6
v -4 1.6 0.5
v -4 1.6 0.6
v -3.3 1 0.4
v -3.4 1 0.4
v -3.4 1 0.5
v -3.3 1 0.5
v -3.4 1.6 0.4
v -3.5 1.6 0.4
v -3.4 1.6 0.5
v -3.5 1.8 0.4
v -3.8 1.8 0.4
v -3.8 1.8 0.5
v -3.5 1.8 0.5
v -4 1.8 0.4
v -4 1.8 0.5
v -3.3 1.2 0.3
v -3.4 1.2 0.3
v -3.4 1.2 0.4
v -3.3 1.2 0.4
v -3.4 2 0.3
v -3.8 2 0.3
v -3.8 2 0.4
v -3.4 2 0.4
v -4 2 0.3
v -4 2 0.4
v -3.3 2 0.2
v -3.4 2 0.2
v -3.3 2 0.3
v -3.4 2.8 0.2
v -3.5 2.8 0.2
v -3.5 2.8 0.3
v -3.4 2.8 0.3
v -3.5 3 0.2
v -3.8 3 0.2
v -3.8 3 0.3
v -3.5 3 0.3
v -4 3 0.2
v -4 3 0.3
v -4 3.2 0.1
v -4 3.2 0.2
v -4 3.3 -0.1
v -4 3.3 0.1
v -4 3.2 -0.2
v -4 3.2 -0.1
v -3.3 2 -0.3
v -3.4 2 -0.3
v -3.4 2 -0.2
v -3.3 2 -0.2
v -3.4 2.8 -0.3
v -3.5 2.8 -0.3
v -3.5 2.8 -0.2
v -3.4 2.8 -0.2
v -3.5 3 -0.3
v -3.8 3 -0.3
v -3.8 3 -0.2
v -3.5 3 -0.2
v -4 3 -0.3
v -4 3 -0.2
v -3.3 1.2 -0.4
v -3.4 1.2 -0.4
v -3.4 1.2 -0.3
v -3.3 1.2 -0.3
v -3.4 2 -0.4
v -3.8 2 -0.4
v -3.8 2 -0.3
v -4 2 -0.4
v -4 2 -0.3
v -3.3 1 -0.5
v -3.4 1 -0.5
v -3.4 1 -0.4
v -3.3 1 -0.4
v -3.4 1.6 -0.5
v -3.5 1.6 -0.5
v -3.5 1.6 -0.4
v -3.4 1.6 -0.4
v -3.5 1.8 -0.5
v -3.8 1.8 -0.5
v -3.8 1.8 -0.4
v -3.5 1.8 -0.4
v -4 1.8 -0.5
v -4 1.8 -0.4
v -3.3 0.8 -0.6
v -3.4 0.8 -0.6
v -3.4 0.8 -0.5
v -3.3 0.8 -0.5
v -3.4 1.4 -0.6
v -3.5 1.4 -0.6
v -3.5 1.4 -0.5
v -3.4 1.4 -0.5
v -3.5 1.6 -0.6
v -3.8 1.6 -0.6
v -3.8 1.6 -0.5
v -4 1.6 -0.6
v -4 1.6 -0.5
v -3.3 0.6 -0.7
v -3.4 0.6 -0.7
v -3.4 0.6 -0.6
v -3.3 0.6 -0.6
v -3.4 1.2 -0.7
v -3.5 1.2 -0.7
v -3.5 1.2 -0.6
v -3.4 1.2 -0.6
v -3.5 1.4 -0.7
v -3.8 1.4 -0.7
v -3.8 1.4 -0.6
v -4 1.4 -0.7
v -4 1.4 -0.6
v -3.3 0.4 -0.8
v -3.4 0.4 -0.8
v -3.4 0.4 -0.7
v -3.3 0.4 -0.7
v -3.4 1 -0.8
v -3.5 1 -0.8
v -3.5 1 -0.7
v -3.4 1 -0.7
v -3.5 1.2 -0.8
v -3.8 1.2 -0.8
v -3.8 1.2 -0.7
v -4 1.2 -0.8
v -4 1.2 -0.7
v -3.4 0.8 -0.9
v -3.5 0.8 -0.9
v -3.5 0.8 -0.8
v -3.4 0.8 -0.8
v -3.5 1 -0.9
v -3.8 1 -0.9
v -3.8 1 -0.8
v -4 1 -0.9
v -4 1 -0.8
v -3.3 0.2 -1
v -3.4 0.2 -1
v -3.4 0.2 -0.8
v -3.3 0.2 -0.8
v -3.4 0.6 -1
v -3.5 0.6 -1
v -3.5 0.6 -0.9
v -3.4 0.6 -0.9
v -3.5 0.8 -1
v -3.8 0.8 -1
v -3.8 0.8 -0.9
v -4 0.8 -1
v -4 0.8 -0.9
v -3.4 0.4 -1.1
v -3.5 0.4 -1.1
v -3.5 0.4 -1
v -3.4 0.4 -1
v -3.5 0.6 -1.1
v -3.8 0.6 -1.1
v -3.8 0.6 -1
v -4 0.6 -1.1
v -4 0.6 -1
v -3.4 0.2 -1.2
v -3.5 0.2 -1.2
v -3.5 0.2 -1.1
v -3.4 0.2 -1.1
v -3.5 0.4 -1.2
v -3.8 0.4 -1.2
v -3.8 0.4 -1.1
v -4 0.4 -1.2
v -4 0.4 -1.1
v -3.5 0.2 -1.3
v -3.8 0.2 -1.3
v -3.8 0.2 -1.2
v -4 0.2 -1.3
v -4 0.2 -1.2
v -3.3 0 0.6
v -3.3 0 1
v -3.4 0 1
v -3.4 0 0.6
v -3.4 0 1.2
v -3.5 0 1.2
v -3.5 0 0.6
v -3.5 0 1.3
v -3.8 0 1.3
v -3.8 0 0.6
v -4 0 1.3
v -4 0 0.6
v -3.3 0.1 0.5
v -3.3 0.1 0.6
v -3.8 0.1 0.6
v -3.8 0.1 0.5
v -4 0.1 0.6
v -4 0.1 0.5
v -3.3 0.3 0.4
v -3.3 0.3 0.5
v -3.8 0.3 0.5
v -3.8 0.3 0.4
v -4 0.3 0.5
v -4 0.3 0.4
v -3.3 0.6 0.3
v -3.3 0.6 0.4
v -3.8 0.6 0.4
v -3.8 0.6 0.3
v -4 0.6 0.4
v -4 0.6 0.3
v -3.3 0.9 0.2
v -3.3 0.9 0.3
v -3.8 0.9 0.3
v -3.8 0.9 0.2
v -4 0.9 0.3
v -4 0.9 0.2
v -4 0 0.2
v -4 0 -0.2
v -3.3 0.9 -0.3
v -3.3 0.9 -0.2
v -3.8 0.9 -0.2
v -3.8 0.9 -0.3
v -4 0.9 -0.2
v -4 0.9 -0.3
v -3.3 0.6 -0.4
v -3.3 0.6 -0.3
v -3.8 0.6 -0.3
v -3.8 0.6 -0.4
v -4 0.6 -0.3
v -4 0.6 -0.4
v -3.3 0.3 -0.5
v -3.3 0.3 -0.4
v -3.8 0.3 -0.4
v -3.8 0.3 -0.5
v -4 0.3 -0.4
v -4 0.3 -0.5
v -3.3 0.1 -0.6
v -3.3 0.1 -0.5
v -3.8 0.1 -0.5
v -3.8 0.1 -0.6
v -4 0.1 -0.5
v -4 0.1 -0.6
v -3.3 0 -1
v -3.3 0 -0.6
v -3.8 0 -0.6
v -3.8 0 -1
v -3.4 0 -1.2
v -3.4 0 -1
v -3.8 0 -1.2
v -3.5 0 -1.3
v -3.5 0 -1.2
v -3.8 0 -1.3
v -4 0 -0.6
v -4 0 -1.3
v -4 0.2 0.6
v -4 0 -1.2
v -4 0.4 0.6
v -4 0 -1.1
v -4 0.6 0.6
v -4 0 -1
v -4 0.8 0.6
v -4 0 -0.9
v -4 1 0.6
v -4 0 -0.8
v -4 1.2 0.6
v -4 0 -0.7
v -3.3 0.2 0.6
v -3.3 0 -0.8
v -3.4 0 -1.1
v -3.3 0.4 0.6
v -3.3 0 -0.7
v -3.4 0.2 -0.9
v -3.4 1.4 0.3
v -3.4 1.6 0.3
v -3.3 3.2 -0.2
v -3.4 3.2 -0.2
v -3.5 2 -0.4
v -3.5 3.2 -0.2
v -3.8 2.8 -0.3
v -3.3 3.2 0.2
v -3.4 3.2 0.2
v -3.5 2 0.4
v -3.5 3.2 0.2
v -3.8 2.8 0.3

vt 0.0332031 0.5
vt 0.0683594 0.5
vt 0.0722656 0.5

vn 0 1 0
vn 0 -1 0
vn -1 0 0
vn 1 0 0
vn 0 0 -1
vn 0 0 1

usemtl palette
f 1/2/1 2/2/1 4/2/1
f 4/2/1 2/2/1 3/2/1
f 2/1/1 5/1/1 3/1/1
f 3/1/1 5/1/1 6/1/1
f 7/2/1 8/2/1 10/2/1
f 10/2/1 8/2/1 9/2/1
f 8/1/1 11/1/1 9/1/1
f 9/1/1 11/1/1 12/1/1
f 13/1/1 14/1/1 5/1/1
f 5/1/1 14/1/1 15/1/1
f 16/2/1 17/2/1 19/2/1
f 19/2/1 17/2/1 18/2/1
f 17/1/1 20/1/1 18/1/1
f 18/1/1 20/1/1 21/1/1
f 22/1/1 23/1/1 11/1/1
f 11/1/1 23/1/1 24/1/1
f 25/2/1 26/2/1 28/2/1
f 28/2/1 26/2/1 27/2/1
f 26/1/1 29/1/1 27/1/1
f 27/1/1 29/1/1 30/1/1
f 31/1/1 32/1/1 20/1/1
f 20/1/1 32/1/1 33/1/1
f 34/2/1 35/2/1 37/2/1
f 37/2/1 35/2/1 36/2/1
f 35/1/1 38/1/1 36/1/1
f 36/1/1 38/1/1 39/1/1
f 40/1/1 41/1/1 29/1/1
f 29/1/1 41/1/1 42/1/1
f 43/1/1 44/1/1 46/1/1
f 46/1/1 44/1/1 45/1/1
f 47/2/1 48/2/1 50/2/1
f 50/2/1 48/2/1 49/2/1
f 48/1/1 51/1/1 49/1/1
f 49/1/1 51/1/1 52/1/1
f 53/1/1 54/1/1 38/1/1
f 38/1/1 54/1/1 55/1/1
f 56/1/1 57/1/1 59/1/1
f 59/1/1 57/1/1 58/1/1
f 60/2/1 61/2/1 63/2/1
f 63/2/1 61/2/1 62/2/1
f 61/1/1 64/1/1 62/1/1
f 62/1/1 64/1/1 65/1/1
f 66/1/1 67/1/1 51/1/1
f 51/1/1 67/1/1 68/1/1
f 69/1/1 70/1/1 72/1/1
f 72/1/1 70/1/1 71/1/1
f 73/2/1 74/2/1 76/2/1
f 76/2/1 74/2/1 75/2/1
f 74/1/1 77/1/1 75/1/1
f 75/1/1 77/1/1 78/1/1
f 79/1/1 80/1/1 64/1/1
f 64/1/1 80/1/1 81/1/1
f 82/1/1 83/1/1 85/1/1
f 85/1/1 83/1/1 84/1/1
f 86/2/1 87/2/1 89/2/1
f 89/2/1 87/2/1 88/2/1
f 87/1/1 90/1/1 88/1/1
f 88/1/1 90/1/1 91/1/1
f 92/1/1 93/1/1 77/1/1
f 77/1/1 93/1/1 94/1/1
f 95/1/1 96/1/1 98/1/1
f 98/1/1 96/1/1 97/1/1
f 99/2/1 100/2/1 102/2/1
f 102/2/1 100/2/1 101/2/1
f 100/1/1 103/1/1 101/1/1
f 101/1/1 103/1/1 104/1/1
f 105/1/1 106/1/1 108/1/1
f 108/1/1 106/1/1 107/1/1
f 109/2/1 110/2/1 112/2/1
f 112/2/1 110/2/1 111/2/1
f 110/1/1 113/1/1 111/1/1
f 111/1/1 113/1/1 114/1/1
f 115/1/1 116/1/1 118/1/1
f 118/1/1 116/1/1 117/1/1
f 119/1/1 120/1/1 103/1/1
f 103/1/1 120/1/1 121/1/1
f 122/3/1 123/3/1 125/3/1
f 125/3/1 123/3/1 124/3/1
f 126/3/1 127/3/1 129/3/1
f 129/3/1 127/3/1 128/3/1
f 130/3/1 131/3/1 133/3/1
f 133/3/1 131/3/1 132/3/1
f 134/2/1 135/2/1 137/2/1
f 137/2/1 135/2/1 136/2/1
f 135/1/1 138/1/1 136/1/1
f 136/1/1 138/1/1 139/1/1
f 140/1/1 141/1/1 143/1/1
f 143/1/1 141/1/1 142/1/1
f 144/1/1 145/1/1 147/1/1
f 147/1/1 145/1/1 146/1/1
f 148/2/1 149/2/1 151/2/1
f 151/2/1 149/2/1 150/2/1
f 149/1/1 152/1/1 150/1/1
f 150/1/1 152/1/1 144/1/1
f 153/1/1 154/1/1 156/1/1
f 156/1/1 154/1/1 155/1/1
f 157/2/1 158/2/1 160/2/1
f 160/2/1 158/2/1 159/2/1
f 158/1/1 161/1/1 159/1/1
f 159/1/1 161/1/1 162/1/1
f 163/1/1 164/1/1 166/1/1
f 166/1/1 164/1/1 165/1/1
f 167/1/1 168/1/1 170/1/1
f 170/1/1 168/1/1 169/1/1
f 171/2/1 172/2/1 174/2/1
f 174/2/1 172/2/1 173/2/1
f 172/1/1 175/1/1 173/1/1
f 173/1/1 175/1/1 163/1/1
f 176/1/1 177/1/1 179/1/1
f 179/1/1 177/1/1 178/1/1
f 180/1/1 181/1/1 183/1/1
f 183/1/1 181/1/1 182/1/1
f 184/2/1 185/2/1 187/2/1
f 187/2/1 185/2/1 186/2/1
f 185/1/1 188/1/1 186/1/1
f 186/1/1 188/1/1 176/1/1
f 189/1/1 190/1/1 192/1/1
f 192/1/1 190/1/1 191/1/1
f 193/1/1 194/1/1 196/1/1
f 196/1/1 194/1/1 195/1/1
f 197/2/1 198/2/1 200/2/1
f 200/2/1 198/2/1 199/2/1
f 198/1/1 201/1/1 199/1/1
f 199/1/1 201/1/1 189/1/1
f 202/1/1 203/1/1 205/1/1
f 205/1/1 203/1/1 204/1/1
f 206/1/1 207/1/1 209/1/1
f 209/1/1 207/1/1 208/1/1
f 210/2/1 211/2/1 213/2/1
f 213/2/1 211/2/1 212/2/1
f 211/1/1 214/1/1 212/1/1
f 212/1/1 214/1/1 202/1/1
f 215/1/1 216/1/1 218/1/1
f 218/1/1 216/1/1 217/1/1
f 219/2/1 220/2/1 222/2/1
f 222/2/1 220/2/1 221/2/1
f 220/1/1 223/1/1 221/1/1
f 221/1/1 223/1/1 215/1/1
f 224/1/1 225/1/1 227/1/1
f 227/1/1 225/1/1 226/1/1
f 228/1/1 229/1/1 231/1/1
f 231/1/1 229/1/1 230/1/1
f 232/2/1 233/2/1 235/2/1
f 235/2/1 233/2/1 234/2/1
f 233/1/1 236/1/1 234/1/1
f 234/1/1 236/1/1 224/1/1
f 237/1/1 238/1/1 240/1/1
f 240/1/1 238/1/1 239/1/1
f 241/2/1 242/2/1 244/2/1
f 244/2/1 242/2/1 243/2/1
f 242/1/1 245/1/1 243/1/1
f 243/1/1 245/1/1 237/1/1
f 246/1/1 247/1/1 249/1/1
f 249/1/1 247/1/1 248/1/1
f 250/2/1 251/2/1 253/2/1
f 253/2/1 251/2/1 252/2/1
f 251/1/1 254/1/1 252/1/1
f 252/1/1 254/1/1 246/1/1
f 255/2/2 256/2/2 258/2/2
f 258/2/2 256/2/2 257/2/2
f 258/1/2 257/1/2 260/1/2
f 260/1/2 257/1/2 259/1/2
f 260/1/2 261/1/2 263/1/2
f 263/1/2 261/1/2 262/1/2
f 263/1/2 264/1/2 266/1/2
f 266/1/2 264/1/2 265/1/2
f 267/2/2 268/2/2 270/2/2
f 270/2/2 268/2/2 269/2/2
f 270/1/2 269/1/2 272/1/2
f 272/1/2 269/1/2 271/1/2
f 273/2/2 274/2/2 276/2/2
f 276/2/2 274/2/2 275/2/2
f 276/1/2 275/1/2 278/1/2
f 278/1/2 275/1/2 277/1/2
f 279/2/2 280/2/2 282/2/2
f 282/2/2 280/2/2 281/2/2
f 282/1/2 281/1/2 284/1/2
f 284/1/2 281/1/2 283/1/2
f 285/2/2 286/2/2 288/2/2
f 288/2/2 286/2/2 287/2/2
f 288/1/2 287/1/2 290/1/2
f 290/1/2 287/1/2 289/1/2
f 291/3/2 292/3/2 294/3/2
f 294/3/2 292/3/2 293/3/2
f 295/2/2 296/2/2 298/2/2
f 298/2/2 296/2/2 297/2/2
f 298/1/2 297/1/2 300/1/2
f 300/1/2 297/1/2 299/1/2
f 301/2/2 302/2/2 304/2/2
f 304/2/2 302/2/2 303/2/2
f 304/1/2 303/1/2 306/1/2
f 306/1/2 303/1/2 305/1/2
f 307/2/2 308/2/2 310/2/2
f 310/2/2 308/2/2 309/2/2
f 310/1/2 309/1/2 312/1/2
f 312/1/2 309/1/2 311/1/2
f 313/2/2 314/2/2 316/2/2
f 316/2/2 314/2/2 315/2/2
f 316/1/2 315/1/2 318/1/2
f 318/1/2 315/1/2 317/1/2
f 319/1/2 320/1/2 322/1/2
f 322/1/2 320/1/2 321/1/2
f 323/1/2 324/1/2 325/1/2
f 325/1/2 324/1/2 320/1/2
f 326/2/2 327/2/2 329/2/2
f 329/2/2 327/2/2 328/2/2
f 329/1/2 328/1/2 330/1/2
f 330/1/2 328/1/2 324/1/2
f 6/1/3 5/1/3 259/1/3
f 259/1/3 5/1/3 261/1/3
f 15/1/3 46/1/3 262/1/3
f 262/1/3 46/1/3 264/1/3
f 45/1/3 331/1/3 265/1/3
f 265/1/3 331/1/3 266/1/3
f 230/1/3 229/1/3 332/1/3
f 332/1/3 229/1/3 322/1/3
f 248/1/3 247/1/3 333/1/3
f 333/1/3 247/1/3 325/1/3
f 246/1/3 254/1/3 323/1/3
f 323/1/3 254/1/3 330/1/3
f 12/1/3 11/1/3 5/1/3
f 5/1/3 11/1/3 13/1/3
f 24/1/3 59/1/3 14/1/3
f 14/1/3 59/1/3 43/1/3
f 58/1/3 334/1/3 44/1/3
f 44/1/3 334/1/3 331/1/3
f 208/1/3 207/1/3 335/1/3
f 335/1/3 207/1/3 332/1/3
f 239/1/3 238/1/3 319/1/3
f 319/1/3 238/1/3 333/1/3
f 237/1/3 245/1/3 249/1/3
f 249/1/3 245/1/3 246/1/3
f 21/1/3 20/1/3 11/1/3
f 11/1/3 20/1/3 22/1/3
f 33/1/3 72/1/3 23/1/3
f 23/1/3 72/1/3 56/1/3
f 71/1/3 70/1/3 57/1/3
f 57/1/3 70/1/3 334/1/3
f 195/1/3 194/1/3 321/1/3
f 321/1/3 194/1/3 335/1/3
f 226/1/3 225/1/3 336/1/3
f 336/1/3 225/1/3 228/1/3
f 224/1/3 236/1/3 240/1/3
f 240/1/3 236/1/3 237/1/3
f 30/1/3 29/1/3 20/1/3
f 20/1/3 29/1/3 31/1/3
f 42/1/3 85/1/3 32/1/3
f 32/1/3 85/1/3 69/1/3
f 84/1/3 83/1/3 271/1/3
f 271/1/3 83/1/3 272/1/3
f 182/1/3 181/1/3 317/1/3
f 317/1/3 181/1/3 318/1/3
f 217/1/3 216/1/3 231/1/3
f 231/1/3 216/1/3 336/1/3
f 215/1/3 223/1/3 227/1/3
f 227/1/3 223/1/3 224/1/3
f 39/1/3 38/1/3 29/1/3
f 29/1/3 38/1/3 40/1/3
f 55/1/3 98/1/3 41/1/3
f 41/1/3 98/1/3 82/1/3
f 97/1/3 96/1/3 277/1/3
f 277/1/3 96/1/3 278/1/3
f 169/1/3 168/1/3 311/1/3
f 311/1/3 168/1/3 312/1/3
f 204/1/3 203/1/3 209/1/3
f 209/1/3 203/1/3 206/1/3
f 202/1/3 214/1/3 218/1/3
f 218/1/3 214/1/3 215/1/3
f 52/1/3 51/1/3 38/1/3
f 38/1/3 51/1/3 53/1/3
f 68/1/3 108/1/3 54/1/3
f 54/1/3 108/1/3 95/1/3
f 107/1/3 106/1/3 283/1/3
f 283/1/3 106/1/3 284/1/3
f 155/1/3 154/1/3 305/1/3
f 305/1/3 154/1/3 306/1/3
f 191/1/3 190/1/3 196/1/3
f 196/1/3 190/1/3 193/1/3
f 189/1/3 201/1/3 205/1/3
f 205/1/3 201/1/3 202/1/3
f 65/1/3 64/1/3 51/1/3
f 51/1/3 64/1/3 66/1/3
f 81/1/3 337/1/3 67/1/3
f 67/1/3 337/1/3 105/1/3
f 178/1/3 177/1/3 183/1/3
f 183/1/3 177/1/3 180/1/3
f 176/1/3 188/1/3 192/1/3
f 192/1/3 188/1/3 189/1/3
f 78/1/3 77/1/3 64/1/3
f 64/1/3 77/1/3 79/1/3
f 94/1/3 338/1/3 80/1/3
f 80/1/3 338/1/3 337/1/3
f 165/1/3 164/1/3 170/1/3
f 170/1/3 164/1/3 167/1/3
f 163/1/3 175/1/3 179/1/3
f 179/1/3 175/1/3 176/1/3
f 91/1/3 90/1/3 77/1/3
f 77/1/3 90/1/3 92/1/3
f 162/1/3 161/1/3 166/1/3
f 166/1/3 161/1/3 163/1/3
f 104/1/3 103/1/3 93/1/3
f 93/1/3 103/1/3 338/1/3
f 121/1/3 120/1/3 289/1/3
f 289/1/3 120/1/3 290/1/3
f 146/1/3 145/1/3 299/1/3
f 299/1/3 145/1/3 300/1/3
f 144/1/3 152/1/3 156/1/3
f 156/1/3 152/1/3 153/1/3
f 117/1/3 116/1/3 103/1/3
f 103/1/3 116/1/3 119/1/3
f 142/1/3 141/1/3 147/1/3
f 147/1/3 141/1/3 144/1/3
f 114/1/3 113/1/3 118/1/3
f 118/1/3 113/1/3 115/1/3
f 139/1/3 138/1/3 143/1/3
f 143/1/3 138/1/3 140/1/3
f 4/2/4 256/2/4 339/2/4
f 339/2/4 256/2/4 255/2/4
f 253/2/4 340/2/4 250/2/4
f 250/2/4 340/2/4 326/2/4
f 10/2/4 1/2/4 341/2/4
f 341/2/4 1/2/4 339/2/4
f 244/2/4 342/2/4 241/2/4
f 241/2/4 342/2/4 340/2/4
f 19/2/4 7/2/4 343/2/4
f 343/2/4 7/2/4 341/2/4
f 235/2/4 344/2/4 232/2/4
f 232/2/4 344/2/4 342/2/4
f 28/2/4 16/2/4 345/2/4
f 345/2/4 16/2/4 343/2/4
f 222/2/4 346/2/4 219/2/4
f 219/2/4 346/2/4 344/2/4
f 37/2/4 25/2/4 347/2/4
f 347/2/4 25/2/4 345/2/4
f 213/2/4 348/2/4 210/2/4
f 210/2/4 348/2/4 346/2/4
f 50/2/4 34/2/4 349/2/4
f 349/2/4 34/2/4 347/2/4
f 200/2/4 350/2/4 197/2/4
f 197/2/4 350/2/4 348/2/4
f 63/2/4 47/2/4 60/2/4
f 60/2/4 47/2/4 349/2/4
f 187/2/4 327/2/4 184/2/4
f 184/2/4 327/2/4 350/2/4
f 76/2/4 268/2/4 73/2/4
f 73/2/4 268/2/4 267/2/4
f 174/2/4 314/2/4 171/2/4
f 171/2/4 314/2/4 313/2/4
f 89/2/4 274/2/4 86/2/4
f 86/2/4 274/2/4 273/2/4
f 160/2/4 308/2/4 157/2/4
f 157/2/4 308/2/4 307/2/4
f 102/2/4 280/2/4 99/2/4
f 99/2/4 280/2/4 279/2/4
f 151/2/4 302/2/4 148/2/4
f 148/2/4 302/2/4 301/2/4
f 112/2/4 286/2/4 109/2/4
f 109/2/4 286/2/4 285/2/4
f 137/2/4 296/2/4 134/2/4
f 134/2/4 296/2/4 295/2/4
f 125/3/4 292/3/4 130/3/4
f 130/3/4 292/3/4 291/3/4
f 129/3/4 122/3/4 126/3/4
f 126/3/4 122/3/4 133/3/4
f 258/2/5 269/2/5 255/2/5
f 255/2/5 269/2/5 268/2/5
f 329/2/5 251/2/5 326/2/5
f 326/2/5 251/2/5 250/2/5
f 270/2/5 275/2/5 267/2/5
f 267/2/5 275/2/5 274/2/5
f 252/2/5 242/2/5 253/2/5
f 253/2/5 242/2/5 241/2/5
f 276/2/5 281/2/5 273/2/5
f 273/2/5 281/2/5 280/2/5
f 243/2/5 233/2/5 244/2/5
f 244/2/5 233/2/5 232/2/5
f 234/2/5 220/2/5 235/2/5
f 235/2/5 220/2/5 219/2/5
f 282/2/5 287/2/5 279/2/5
f 279/2/5 287/2/5 286/2/5
f 221/2/5 211/2/5 222/2/5
f 222/2/5 211/2/5 210/2/5
f 212/2/5 198/2/5 213/2/5
f 213/2/5 198/2/5 197/2/5
f 199/2/5 185/2/5 200/2/5
f 200/2/5 185/2/5 184/2/5
f 186/2/5 172/2/5 187/2/5
f 187/2/5 172/2/5 171/2/5
f 173/2/5 158/2/5 174/2/5
f 174/2/5 158/2/5 157/2/5
f 159/2/5 149/2/5 160/2/5
f 160/2/5 149/2/5 148/2/5
f 150/2/5 135/2/5 151/2/5
f 151/2/5 135/2/5 134/2/5
f 330/1/5 254/1/5 329/1/5
f 329/1/5 254/1/5 251/1/5
f 246/1/5 245/1/5 252/1/5
f 252/1/5 245/1/5 242/1/5
f 237/1/5 236/1/5 243/1/5
f 243/1/5 236/1/5 233/1/5
f 224/1/5 223/1/5 234/1/5
f 234/1/5 223/1/5 220/1/5
f 215/1/5 214/1/5 221/1/5
f 221/1/5 214/1/5 211/1/5
f 202/1/5 201/1/5 212/1/5
f 212/1/5 201/1/5 198/1/5
f 189/1/5 188/1/5 199/1/5
f 199/1/5 188/1/5 185/1/5
f 176/1/5 175/1/5 186/1/5
f 186/1/5 175/1/5 172/1/5
f 163/1/5 161/1/5 173/1/5
f 173/1/5 161/1/5 158/1/5
f 140/1/5 138/1/5 351/1/5
f 351/1/5 138/1/5 135/1/5
f 325/1/5 247/1/5 323/1/5
f 323/1/5 247/1/5 246/1/5
f 248/1/5 238/1/5 249/1/5
f 249/1/5 238/1/5 237/1/5
f 239/1/5 225/1/5 240/1/5
f 240/1/5 225/1/5 224/1/5
f 226/1/5 216/1/5 227/1/5
f 227/1/5 216/1/5 215/1/5
f 217/1/5 203/1/5 218/1/5
f 218/1/5 203/1/5 202/1/5
f 204/1/5 190/1/5 205/1/5
f 205/1/5 190/1/5 189/1/5
f 191/1/5 177/1/5 192/1/5
f 192/1/5 177/1/5 176/1/5
f 178/1/5 164/1/5 179/1/5
f 179/1/5 164/1/5 163/1/5
f 165/1/5 352/1/5 166/1/5
f 166/1/5 352/1/5 162/1/5
f 352/1/5 152/1/5 159/1/5
f 159/1/5 152/1/5 149/1/5
f 144/1/5 141/1/5 150/1/5
f 150/1/5 141/1/5 351/1/5
f 266/1/5 271/1/5 258/1/5
f 258/1/5 271/1/5 269/1/5
f 322/1/5 229/1/5 319/1/5
f 319/1/5 229/1/5 228/1/5
f 272/1/5 277/1/5 270/1/5
f 270/1/5 277/1/5 275/1/5
f 230/1/5 207/1/5 231/1/5
f 231/1/5 207/1/5 206/1/5
f 278/1/5 283/1/5 276/1/5
f 276/1/5 283/1/5 281/1/5
f 208/1/5 194/1/5 209/1/5
f 209/1/5 194/1/5 193/1/5
f 195/1/5 181/1/5 196/1/5
f 196/1/5 181/1/5 180/1/5
f 284/1/5 289/1/5 282/1/5
f 282/1/5 289/1/5 287/1/5
f 182/1/5 168/1/5 183/1/5
f 183/1/5 168/1/5 167/1/5
f 169/1/5 154/1/5 170/1/5
f 170/1/5 154/1/5 153/1/5
f 155/1/5 145/1/5 156/1/5
f 156/1/5 145/1/5 144/1/5
f 294/3/5 353/3/5 291/3/5
f 291/3/5 353/3/5 296/3/5
f 353/3/5 354/3/5 299/3/5
f 299/3/5 354/3/5 146/3/5
f 354/3/5 355/3/5 147/3/5
f 147/3/5 355/3/5 142/3/5
f 355/3/5 356/3/5 143/3/5
f 143/3/5 356/3/5 139/3/5
f 356/3/5 131/3/5 137/3/5
f 137/3/5 131/3/5 130/3/5
f 132/3/5 127/3/5 133/3/5
f 133/3/5 127/3/5 126/3/5
f 328/2/6 327/2/6 316/2/6
f 316/2/6 327/2/6 313/2/6
f 257/2/6 256/2/6 3/2/6
f 3/2/6 256/2/6 4/2/6
f 315/2/6 314/2/6 310/2/6
f 310/2/6 314/2/6 307/2/6
f 2/2/6 1/2/6 9/2/6
f 9/2/6 1/2/6 10/2/6
f 8/2/6 7/2/6 18/2/6
f 18/2/6 7/2/6 19/2/6
f 309/2/6 308/2/6 304/2/6
f 304/2/6 308/2/6 301/2/6
f 17/2/6 16/2/6 27/2/6
f 27/2/6 16/2/6 28/2/6
f 303/2/6 302/2/6 298/2/6
f 298/2/6 302/2/6 295/2/6
f 26/2/6 25/2/6 36/2/6
f 36/2/6 25/2/6 37/2/6
f 35/2/6 34/2/6 49/2/6
f 49/2/6 34/2/6 50/2/6
f 48/2/6 47/2/6 62/2/6
f 62/2/6 47/2/6 63/2/6
f 61/2/6 60/2/6 75/2/6
f 75/2/6 60/2/6 76/2/6
f 74/2/6 73/2/6 88/2/6
f 88/2/6 73/2/6 89/2/6
f 87/2/6 86/2/6 101/2/6
f 101/2/6 86/2/6 102/2/6
f 100/2/6 99/2/6 111/2/6
f 111/2/6 99/2/6 112/2/6
f 259/1/6 257/1/6 6/1/6
f 6/1/6 257/1/6 3/1/6
f 5/1/6 2/1/6 12/1/6
f 12/1/6 2/1/6 9/1/6
f 11/1/6 8/1/6 21/1/6
f 21/1/6 8/1/6 18/1/6
f 20/1/6 17/1/6 30/1/6
f 30/1/6 17/1/6 27/1/6
f 29/1/6 26/1/6 39/1/6
f 39/1/6 26/1/6 36/1/6
f 38/1/6 35/1/6 52/1/6
f 52/1/6 35/1/6 49/1/6
f 51/1/6 48/1/6 65/1/6
f 65/1/6 48/1/6 62/1/6
f 64/1/6 61/1/6 78/1/6
f 78/1/6 61/1/6 75/1/6
f 77/1/6 74/1/6 91/1/6
f 91/1/6 74/1/6 88/1/6
f 118/1/6 357/1/6 114/1/6
f 114/1/6 357/1/6 111/1/6
f 262/1/6 261/1/6 15/1/6
f 15/1/6 261/1/6 5/1/6
f 14/1/6 13/1/6 24/1/6
f 24/1/6 13/1/6 11/1/6
f 23/1/6 22/1/6 33/1/6
f 33/1/6 22/1/6 20/1/6
f 32/1/6 31/1/6 42/1/6
f 42/1/6 31/1/6 29/1/6
f 41/1/6 40/1/6 55/1/6
f 55/1/6 40/1/6 38/1/6
f 54/1/6 53/1/6 68/1/6
f 68/1/6 53/1/6 51/1/6
f 67/1/6 66/1/6 81/1/6
f 81/1/6 66/1/6 64/1/6
f 80/1/6 79/1/6 94/1/6
f 94/1/6 79/1/6 77/1/6
f 93/1/6 92/1/6 358/1/6
f 358/1/6 92/1/6 90/1/6
f 358/1/6 87/1/6 104/1/6
f 104/1/6 87/1/6 101/1/6
f 103/1/6 100/1/6 117/1/6
f 117/1/6 100/1/6 357/1/6
f 321/1/6 328/1/6 318/1/6
f 318/1/6 328/1/6 316/1/6
f 265/1/6 264/1/6 45/1/6
f 45/1/6 264/1/6 46/1/6
f 317/1/6 315/1/6 312/1/6
f 312/1/6 315/1/6 310/1/6
f 44/1/6 43/1/6 58/1/6
f 58/1/6 43/1/6 59/1/6
f 57/1/6 56/1/6 71/1/6
f 71/1/6 56/1/6 72/1/6
f 311/1/6 309/1/6 306/1/6
f 306/1/6 309/1/6 304/1/6
f 70/1/6 69/1/6 84/1/6
f 84/1/6 69/1/6 85/1/6
f 305/1/6 303/1/6 300/1/6
f 300/1/6 303/1/6 298/1/6
f 83/1/6 82/1/6 97/1/6
f 97/1/6 82/1/6 98/1/6
f 96/1/6 95/1/6 107/1/6
f 107/1/6 95/1/6 108/1/6
f 106/1/6 105/1/6 121/1/6
f 121/1/6 105/1/6 103/1/6
f 293/3/6 292/3/6 359/3/6
f 359/3/6 292/3/6 285/3/6
f 359/3/6 290/3/6 360/3/6
f 360/3/6 290/3/6 120/3/6
f 360/3/6 119/3/6 361/3/6
f 361/3/6 119/3/6 116/3/6
f 361/3/6 115/3/6 362/3/6
f 362/3/6 115/3/6 113/3/6
f 362/3/6 109/3/6 124/3/6
f 124/3/6 109/3/6 125/3/6
f 123/3/6 122/3/6 128/3/6
f 128/3/6 122/3/6 129/3/6
f 363/1/1 364/1/1 366/1/1
f 366/1/1 364/1/1 365/1/1
f 364/2/1 367/2/1 365/2/1
f 365/2/1 367/2/1 368/2/1
f 369/1/1 370/1/1 371/1/1
f 371/1/1 370/1/1 363/1/1
f 372/1/1 373/1/1 375/1/1
f 375/1/1 373/1/1 374/1/1
f 373/2/1 376/2/1 374/2/1
f 374/2/1 376/2/1 377/2/1
f 378/1/1 379/1/1 380/1/1
f 380/1/1 379/1/1 372/1/1
f 381/1/1 382/1/1 384/1/1
f 384/1/1 382/1/1 383/1/1
f 382/2/1 385/2/1 383/2/1
f 383/2/1 385/2/1 386/2/1
f 387/1/1 388/1/1 389/1/1
f 389/1/1 388/1/1 381/1/1
f 390/1/1 391/1/1 393/1/1
f 393/1/1 391/1/1 392/1/1
f 391/2/1 394/2/1 392/2/1
f 392/2/1 394/2/1 395/2/1
f 396/1/1 397/1/1 399/1/1
f 399/1/1 397/1/1 398/1/1
f 400/1/1 401/1/1 402/1/1
f 402/1/1 401/1/1 390/1/1
f 403/1/1 404/1/1 406/1/1
f 406/1/1 404/1/1 405/1/1
f 404/2/1 407/2/1 405/2/1
f 405/2/1 407/2/1 408/2/1
f 409/1/1 410/1/1 412/1/1
f 412/1/1 410/1/1 411/1/1
f 413/1/1 414/1/1 415/1/1
f 415/1/1 414/1/1 403/1/1
f 416/1/1 417/1/1 419/1/1
f 419/1/1 417/1/1 418/1/1
f 417/2/1 420/2/1 418/2/1
f 418/2/1 420/2/1 421/2/1
f 422/1/1 423/1/1 425/1/1
f 425/1/1 423/1/1 424/1/1
f 426/1/1 427/1/1 428/1/1
f 428/1/1 427/1/1 416/1/1
f 429/1/1 430/1/1 432/1/1
f 432/1/1 430/1/1 431/1/1
f 430/2/1 433/2/1 431/2/1
f 431/2/1 433/2/1 434/2/1
f 435/1/1 436/1/1 438/1/1
f 438/1/1 436/1/1 437/1/1
f 439/1/1 440/1/1 441/1/1
f 441/1/1 440/1/1 429/1/1
f 442/1/1 443/1/1 445/1/1
f 445/1/1 443/1/1 444/1/1
f 443/2/1 446/2/1 444/2/1
f 444/2/1 446/2/1 447/2/1
f 448/1/1 449/1/1 451/1/1
f 451/1/1 449/1/1 450/1/1
f 452/1/1 453/1/1 454/1/1
f 454/1/1 453/1/1 442/1/1
f 455/1/1 456/1/1 458/1/1
f 458/1/1 456/1/1 457/1/1
f 456/2/1 459/2/1 457/2/1
f 457/2/1 459/2/1 460/2/1
f 461/1/1 462/1/1 464/1/1
f 464/1/1 462/1/1 463/1/1
f 465/1/1 466/1/1 468/1/1
f 468/1/1 466/1/1 467/1/1
f 466/2/1 469/2/1 467/2/1
f 467/2/1 469/2/1 470/2/1
f 471/1/1 472/1/1 473/1/1
f 473/1/1 472/1/1 465/1/1
f 474/1/1 475/1/1 477/1/1
f 477/1/1 475/1/1 476/1/1
f 478/1/1 479/1/1 481/1/1
f 481/1/1 479/1/1 480/1/1
f 479/2/1 482/2/1 480/2/1
f 480/2/1 482/2/1 483/2/1
f 123/3/1 484/3/1 124/3/1
f 124/3/1 484/3/1 485/3/1
f 127/3/1 486/3/1 128/3/1
f 128/3/1 486/3/1 487/3/1
f 131/3/1 488/3/1 132/3/1
f 132/3/1 488/3/1 489/3/1
f 490/1/1 491/1/1 493/1/1
f 493/1/1 491/1/1 492/1/1
f 494/1/1 495/1/1 497/1/1
f 497/1/1 495/1/1 496/1/1
f 498/1/1 499/1/1 501/1/1
f 501/1/1 499/1/1 500/1/1
f 499/2/1 502/2/1 500/2/1
f 500/2/1 502/2/1 503/2/1
f 504/1/1 505/1/1 507/1/1
f 507/1/1 505/1/1 506/1/1
f 508/1/1 509/1/1 491/1/1
f 491/1/1 509/1/1 510/1/1
f 509/2/1 511/2/1 510/2/1
f 510/2/1 511/2/1 512/2/1
f 513/1/1 514/1/1 516/1/1
f 516/1/1 514/1/1 515/1/1
f 517/1/1 518/1/1 520/1/1
f 520/1/1 518/1/1 519/1/1
f 521/1/1 522/1/1 524/1/1
f 524/1/1 522/1/1 523/1/1
f 522/2/1 525/2/1 523/2/1
f 523/2/1 525/2/1 526/2/1
f 527/1/1 528/1/1 530/1/1
f 530/1/1 528/1/1 529/1/1
f 531/1/1 532/1/1 534/1/1
f 534/1/1 532/1/1 533/1/1
f 535/1/1 536/1/1 518/1/1
f 518/1/1 536/1/1 537/1/1
f 536/2/1 538/2/1 537/2/1
f 537/2/1 538/2/1 539/2/1
f 540/1/1 541/1/1 543/1/1
f 543/1/1 541/1/1 542/1/1
f 544/1/1 545/1/1 547/1/1
f 547/1/1 545/1/1 546/1/1
f 548/1/1 549/1/1 532/1/1
f 532/1/1 549/1/1 550/1/1
f 549/2/1 551/2/1 550/2/1
f 550/2/1 551/2/1 552/2/1
f 553/1/1 554/1/1 556/1/1
f 556/1/1 554/1/1 555/1/1
f 557/1/1 558/1/1 560/1/1
f 560/1/1 558/1/1 559/1/1
f 561/1/1 562/1/1 545/1/1
f 545/1/1 562/1/1 563/1/1
f 562/2/1 564/2/1 563/2/1
f 563/2/1 564/2/1 565/2/1
f 566/1/1 567/1/1 569/1/1
f 569/1/1 567/1/1 568/1/1
f 570/1/1 571/1/1 558/1/1
f 558/1/1 571/1/1 572/1/1
f 571/2/1 573/2/1 572/2/1
f 572/2/1 573/2/1 574/2/1
f 575/1/1 576/1/1 578/1/1
f 578/1/1 576/1/1 577/1/1
f 579/1/1 580/1/1 582/1/1
f 582/1/1 580/1/1 581/1/1
f 583/1/1 584/1/1 567/1/1
f 567/1/1 584/1/1 585/1/1
f 584/2/1 586/2/1 585/2/1
f 585/2/1 586/2/1 587/2/1
f 588/1/1 589/1/1 591/1/1
f 591/1/1 589/1/1 590/1/1
f 592/1/1 593/1/1 580/1/1
f 580/1/1 593/1/1 594/1/1
f 593/2/1 595/2/1 594/2/1
f 594/2/1 595/2/1 596/2/1
f 597/1/1 598/1/1 600/1/1
f 600/1/1 598/1/1 599/1/1
f 601/1/1 602/1/1 589/1/1
f 589/1/1 602/1/1 603/1/1
f 602/2/1 604/2/1 603/2/1
f 603/2/1 604/2/1 605/2/1
f 606/1/1 607/1/1 598/1/1
f 598/1/1 607/1/1 608/1/1
f 607/2/1 609/2/1 608/2/1
f 608/2/1 609/2/1 610/2/1
f 611/1/2 612/1/2 614/1/2
f 614/1/2 612/1/2 613/1/2
f 614/1/2 615/1/2 617/1/2
f 617/1/2 615/1/2 616/1/2
f 617/1/2 618/1/2 620/1/2
f 620/1/2 618/1/2 619/1/2
f 620/2/2 619/2/2 622/2/2
f 622/2/2 619/2/2 621/2/2
f 623/1/2 624/1/2 626/1/2
f 626/1/2 624/1/2 625/1/2
f 626/2/2 625/2/2 628/2/2
f 628/2/2 625/2/2 627/2/2
f 629/1/2 630/1/2 632/1/2
f 632/1/2 630/1/2 631/1/2
f 632/2/2 631/2/2 634/2/2
f 634/2/2 631/2/2 633/2/2
f 635/1/2 636/1/2 638/1/2
f 638/1/2 636/1/2 637/1/2
f 638/2/2 637/2/2 640/2/2
f 640/2/2 637/2/2 639/2/2
f 641/1/2 642/1/2 644/1/2
f 644/1/2 642/1/2 643/1/2
f 644/2/2 643/2/2 646/2/2
f 646/2/2 643/2/2 645/2/2
f 294/3/2 293/3/2 648/3/2
f 648/3/2 293/3/2 647/3/2
f 649/1/2 650/1/2 652/1/2
f 652/1/2 650/1/2 651/1/2
f 652/2/2 651/2/2 654/2/2
f 654/2/2 651/2/2 653/2/2
f 655/1/2 656/1/2 658/1/2
f 658/1/2 656/1/2 657/1/2
f 658/2/2 657/2/2 660/2/2
f 660/2/2 657/2/2 659/2/2
f 661/1/2 662/1/2 664/1/2
f 664/1/2 662/1/2 663/1/2
f 664/2/2 663/2/2 666/2/2
f 666/2/2 663/2/2 665/2/2
f 667/1/2 668/1/2 670/1/2
f 670/1/2 668/1/2 669/1/2
f 670/2/2 669/2/2 672/2/2
f 672/2/2 669/2/2 671/2/2
f 673/1/2 674/1/2 676/1/2
f 676/1/2 674/1/2 675/1/2
f 677/1/2 678/1/2 679/1/2
f 679/1/2 678/1/2 676/1/2
f 680/1/2 681/1/2 682/1/2
f 682/1/2 681/1/2 679/1/2
f 682/2/2 675/2/2 684/2/2
f 684/2/2 675/2/2 683/2/2
f 368/2/3 685/2/3 621/2/3
f 621/2/3 685/2/3 622/2/3
f 610/2/3 609/2/3 686/2/3
f 686/2/3 609/2/3 684/2/3
f 377/2/3 687/2/3 367/2/3
f 367/2/3 687/2/3 685/2/3
f 605/2/3 604/2/3 688/2/3
f 688/2/3 604/2/3 686/2/3
f 386/2/3 689/2/3 376/2/3
f 376/2/3 689/2/3 687/2/3
f 596/2/3 595/2/3 690/2/3
f 690/2/3 595/2/3 688/2/3
f 395/2/3 691/2/3 385/2/3
f 385/2/3 691/2/3 689/2/3
f 587/2/3 586/2/3 692/2/3
f 692/2/3 586/2/3 690/2/3
f 408/2/3 693/2/3 394/2/3
f 394/2/3 693/2/3 691/2/3
f 574/2/3 573/2/3 694/2/3
f 694/2/3 573/2/3 692/2/3
f 421/2/3 695/2/3 407/2/3
f 407/2/3 695/2/3 693/2/3
f 565/2/3 564/2/3 696/2/3
f 696/2/3 564/2/3 694/2/3
f 434/2/3 433/2/3 420/2/3
f 420/2/3 433/2/3 695/2/3
f 552/2/3 551/2/3 683/2/3
f 683/2/3 551/2/3 696/2/3
f 447/2/3 446/2/3 627/2/3
f 627/2/3 446/2/3 628/2/3
f 539/2/3 538/2/3 671/2/3
f 671/2/3 538/2/3 672/2/3
f 460/2/3 459/2/3 633/2/3
f 633/2/3 459/2/3 634/2/3
f 526/2/3 525/2/3 665/2/3
f 665/2/3 525/2/3 666/2/3
f 470/2/3 469/2/3 639/2/3
f 639/2/3 469/2/3 640/2/3
f 512/2/3 511/2/3 659/2/3
f 659/2/3 511/2/3 660/2/3
f 483/2/3 482/2/3 645/2/3
f 645/2/3 482/2/3 646/2/3
f 503/2/3 502/2/3 653/2/3
f 653/2/3 502/2/3 654/2/3
f 485/3/3 488/3/3 647/3/3
f 647/3/3 488/3/3 648/3/3
f 487/3/3 486/3/3 484/3/3
f 484/3/3 486/3/3 489/3/3
f 366/1/4 618/1/4 363/1/4
f 363/1/4 618/1/4 616/1/4
f 371/1/4 615/1/4 398/1/4
f 398/1/4 615/1/4 613/1/4
f 399/1/4 612/1/4 697/1/4
f 697/1/4 612/1/4 611/1/4
f 578/1/4 698/1/4 575/1/4
f 575/1/4 698/1/4 673/1/4
f 600/1/4 699/1/4 597/1/4
f 597/1/4 699/1/4 677/1/4
f 598/1/4 681/1/4 606/1/4
f 606/1/4 681/1/4 680/1/4
f 375/1/4 363/1/4 372/1/4
f 372/1/4 363/1/4 370/1/4
f 380/1/4 369/1/4 411/1/4
f 411/1/4 369/1/4 397/1/4
f 412/1/4 396/1/4 700/1/4
f 700/1/4 396/1/4 697/1/4
f 556/1/4 701/1/4 553/1/4
f 553/1/4 701/1/4 698/1/4
f 591/1/4 678/1/4 588/1/4
f 588/1/4 678/1/4 699/1/4
f 589/1/4 599/1/4 601/1/4
f 601/1/4 599/1/4 598/1/4
f 384/1/4 372/1/4 381/1/4
f 381/1/4 372/1/4 379/1/4
f 389/1/4 378/1/4 424/1/4
f 424/1/4 378/1/4 410/1/4
f 425/1/4 409/1/4 422/1/4
f 422/1/4 409/1/4 700/1/4
f 543/1/4 674/1/4 540/1/4
f 540/1/4 674/1/4 701/1/4
f 582/1/4 702/1/4 579/1/4
f 579/1/4 702/1/4 576/1/4
f 580/1/4 590/1/4 592/1/4
f 592/1/4 590/1/4 589/1/4
f 393/1/4 381/1/4 390/1/4
f 390/1/4 381/1/4 388/1/4
f 402/1/4 387/1/4 437/1/4
f 437/1/4 387/1/4 423/1/4
f 438/1/4 624/1/4 435/1/4
f 435/1/4 624/1/4 623/1/4
f 530/1/4 668/1/4 527/1/4
f 527/1/4 668/1/4 667/1/4
f 569/1/4 577/1/4 566/1/4
f 566/1/4 577/1/4 702/1/4
f 567/1/4 581/1/4 583/1/4
f 583/1/4 581/1/4 580/1/4
f 406/1/4 390/1/4 403/1/4
f 403/1/4 390/1/4 401/1/4
f 415/1/4 400/1/4 450/1/4
f 450/1/4 400/1/4 436/1/4
f 451/1/4 630/1/4 448/1/4
f 448/1/4 630/1/4 629/1/4
f 516/1/4 662/1/4 513/1/4
f 513/1/4 662/1/4 661/1/4
f 560/1/4 555/1/4 557/1/4
f 557/1/4 555/1/4 554/1/4
f 558/1/4 568/1/4 570/1/4
f 570/1/4 568/1/4 567/1/4
f 419/1/4 403/1/4 416/1/4
f 416/1/4 403/1/4 414/1/4
f 428/1/4 413/1/4 463/1/4
f 463/1/4 413/1/4 449/1/4
f 464/1/4 636/1/4 461/1/4
f 461/1/4 636/1/4 635/1/4
f 507/1/4 656/1/4 504/1/4
f 504/1/4 656/1/4 655/1/4
f 547/1/4 542/1/4 544/1/4
f 544/1/4 542/1/4 541/1/4
f 545/1/4 559/1/4 561/1/4
f 561/1/4 559/1/4 558/1/4
f 432/1/4 416/1/4 429/1/4
f 429/1/4 416/1/4 427/1/4
f 441/1/4 426/1/4 703/1/4
f 703/1/4 426/1/4 462/1/4
f 534/1/4 529/1/4 531/1/4
f 531/1/4 529/1/4 528/1/4
f 532/1/4 546/1/4 548/1/4
f 548/1/4 546/1/4 545/1/4
f 445/1/4 429/1/4 442/1/4
f 442/1/4 429/1/4 440/1/4
f 454/1/4 439/1/4 704/1/4
f 704/1/4 439/1/4 703/1/4
f 520/1/4 515/1/4 517/1/4
f 517/1/4 515/1/4 514/1/4
f 518/1/4 533/1/4 535/1/4
f 535/1/4 533/1/4 532/1/4
f 458/1/4 442/1/4 455/1/4
f 455/1/4 442/1/4 453/1/4
f 524/1/4 519/1/4 521/1/4
f 521/1/4 519/1/4 518/1/4
f 468/1/4 452/1/4 465/1/4
f 465/1/4 452/1/4 704/1/4
f 473/1/4 642/1/4 471/1/4
f 471/1/4 642/1/4 641/1/4
f 493/1/4 650/1/4 490/1/4
f 490/1/4 650/1/4 649/1/4
f 491/1/4 506/1/4 508/1/4
f 508/1/4 506/1/4 505/1/4
f 477/1/4 465/1/4 474/1/4
f 474/1/4 465/1/4 472/1/4
f 497/1/4 492/1/4 494/1/4
f 494/1/4 492/1/4 491/1/4
f 481/1/4 476/1/4 478/1/4
f 478/1/4 476/1/4 475/1/4
f 501/1/4 496/1/4 498/1/4
f 498/1/4 496/1/4 495/1/4
f 650/3/5 705/3/5 353/3/5
f 353/3/5 705/3/5 131/3/5
f 678/1/5 576/1/5 673/1/5
f 673/1/5 576/1/5 575/1/5
f 577/1/5 554/1/5 578/1/5
f 578/1/5 554/1/5 553/1/5
f 555/1/5 541/1/5 556/1/5
f 556/1/5 541/1/5 540/1/5
f 542/1/5 528/1/5 543/1/5
f 543/1/5 528/1/5 527/1/5
f 529/1/5 514/1/5 530/1/5
f 530/1/5 514/1/5 513/1/5
f 515/1/5 505/1/5 516/1/5
f 516/1/5 505/1/5 504/1/5
f 506/1/5 491/1/5 507/1/5
f 507/1/5 491/1/5 490/1/5
f 492/3/5 706/3/5 493/3/5
f 493/3/5 706/3/5 705/3/5
f 681/1/5 598/1/5 677/1/5
f 677/1/5 598/1/5 597/1/5
f 599/1/5 589/1/5 600/1/5
f 600/1/5 589/1/5 588/1/5
f 590/1/5 580/1/5 591/1/5
f 591/1/5 580/1/5 579/1/5
f 581/1/5 567/1/5 582/1/5
f 582/1/5 567/1/5 566/1/5
f 568/1/5 558/1/5 569/1/5
f 569/1/5 558/1/5 557/1/5
f 559/1/5 545/1/5 560/1/5
f 560/1/5 545/1/5 544/1/5
f 546/1/5 532/1/5 547/1/5
f 547/1/5 532/1/5 531/1/5
f 533/1/5 518/1/5 534/1/5
f 534/1/5 518/1/5 517/1/5
f 519/1/5 707/1/5 520/1/5
f 520/1/5 707/1/5 508/1/5
f 496/3/5 708/3/5 497/3/5
f 497/3/5 708/3/5 706/3/5
f 620/1/5 625/1/5 611/1/5
f 611/1/5 625/1/5 624/1/5
f 682/1/5 607/1/5 680/1/5
f 680/1/5 607/1/5 606/1/5
f 626/1/5 631/1/5 623/1/5
f 623/1/5 631/1/5 630/1/5
f 608/1/5 602/1/5 598/1/5
f 598/1/5 602/1/5 601/1/5
f 632/1/5 637/1/5 629/1/5
f 629/1/5 637/1/5 636/1/5
f 603/1/5 593/1/5 589/1/5
f 589/1/5 593/1/5 592/1/5
f 594/1/5 584/1/5 580/1/5
f 580/1/5 584/1/5 583/1/5
f 638/1/5 643/1/5 635/1/5
f 635/1/5 643/1/5 642/1/5
f 585/1/5 571/1/5 567/1/5
f 567/1/5 571/1/5 570/1/5
f 572/1/5 562/1/5 558/1/5
f 558/1/5 562/1/5 561/1/5
f 563/1/5 549/1/5 545/1/5
f 545/1/5 549/1/5 548/1/5
f 550/1/5 536/1/5 532/1/5
f 532/1/5 536/1/5 535/1/5
f 537/1/5 522/1/5 518/1/5
f 518/1/5 522/1/5 521/1/5
f 523/1/5 509/1/5 524/1/5
f 524/1/5 509/1/5 707/1/5
f 510/1/5 709/1/5 491/1/5
f 491/1/5 709/1/5 494/1/5
f 709/1/5 499/1/5 495/1/5
f 495/1/5 499/1/5 498/1/5
f 622/2/5 627/2/5 620/2/5
f 620/2/5 627/2/5 625/2/5
f 684/2/5 609/2/5 682/2/5
f 682/2/5 609/2/5 607/2/5
f 628/2/5 633/2/5 626/2/5
f 626/2/5 633/2/5 631/2/5
f 610/2/5 604/2/5 608/2/5
f 608/2/5 604/2/5 602/2/5
f 634/2/5 639/2/5 632/2/5
f 632/2/5 639/2/5 637/2/5
f 605/2/5 595/2/5 603/2/5
f 603/2/5 595/2/5 593/2/5
f 596/2/5 586/2/5 594/2/5
f 594/2/5 586/2/5 584/2/5
f 640/2/5 645/2/5 638/2/5
f 638/2/5 645/2/5 643/2/5
f 648/3/5 653/3/5 294/3/5
f 294/3/5 653/3/5 353/3/5
f 587/2/5 573/2/5 585/2/5
f 585/2/5 573/2/5 571/2/5
f 574/2/5 564/2/5 572/2/5
f 572/2/5 564/2/5 562/2/5
f 565/2/5 551/2/5 563/2/5
f 563/2/5 551/2/5 549/2/5
f 552/2/5 538/2/5 550/2/5
f 550/2/5 538/2/5 536/2/5
f 539/2/5 525/2/5 537/2/5
f 537/2/5 525/2/5 522/2/5
f 526/2/5 511/2/5 523/2/5
f 523/2/5 511/2/5 509/2/5
f 512/2/5 502/2/5 510/2/5
f 510/2/5 502/2/5 499/2/5
f 503/3/5 488/3/5 501/3/5
f 501/3/5 488/3/5 708/3/5
f 489/3/5 486/3/5 132/3/5
f 132/3/5 486/3/5 127/3/5
f 641/3/6 359/3/6 710/3/6
f 710/3/6 359/3/6 124/3/6
f 613/1/6 612/1/6 398/1/6
f 398/1/6 612/1/6 399/1/6
f 397/1/6 396/1/6 411/1/6
f 411/1/6 396/1/6 412/1/6
f 410/1/6 409/1/6 424/1/6
f 424/1/6 409/1/6 425/1/6
f 423/1/6 422/1/6 437/1/6
f 437/1/6 422/1/6 438/1/6
f 436/1/6 435/1/6 450/1/6
f 450/1/6 435/1/6 451/1/6
f 449/1/6 448/1/6 463/1/6
f 463/1/6 448/1/6 464/1/6
f 462/1/6 461/1/6 465/1/6
f 465/1/6 461/1/6 473/1/6
f 472/3/6 471/3/6 711/3/6
f 711/3/6 471/3/6 710/3/6
f 616/1/6 615/1/6 363/1/6
f 363/1/6 615/1/6 371/1/6
f 370/1/6 369/1/6 372/1/6
f 372/1/6 369/1/6 380/1/6
f 379/1/6 378/1/6 381/1/6
f 381/1/6 378/1/6 389/1/6
f 388/1/6 387/1/6 390/1/6
f 390/1/6 387/1/6 402/1/6
f 401/1/6 400/1/6 403/1/6
f 403/1/6 400/1/6 415/1/6
f 414/1/6 413/1/6 416/1/6
f 416/1/6 413/1/6 428/1/6
f 427/1/6 426/1/6 429/1/6
f 429/1/6 426/1/6 441/1/6
f 440/1/6 439/1/6 442/1/6
f 442/1/6 439/1/6 454/1/6
f 453/1/6 452/1/6 712/1/6
f 712/1/6 452/1/6 468/1/6
f 475/3/6 474/3/6 713/3/6
f 713/3/6 474/3/6 711/3/6
f 675/1/6 674/1/6 670/1/6
f 670/1/6 674/1/6 667/1/6
f 619/1/6 618/1/6 365/1/6
f 365/1/6 618/1/6 366/1/6
f 669/1/6 668/1/6 664/1/6
f 664/1/6 668/1/6 661/1/6
f 364/1/6 363/1/6 374/1/6
f 374/1/6 363/1/6 375/1/6
f 373/1/6 372/1/6 383/1/6
f 383/1/6 372/1/6 384/1/6
f 663/1/6 662/1/6 658/1/6
f 658/1/6 662/1/6 655/1/6
f 382/1/6 381/1/6 392/1/6
f 392/1/6 381/1/6 393/1/6
f 657/1/6 656/1/6 652/1/6
f 652/1/6 656/1/6 649/1/6
f 391/1/6 390/1/6 405/1/6
f 405/1/6 390/1/6 406/1/6
f 404/1/6 403/1/6 418/1/6
f 418/1/6 403/1/6 419/1/6
f 417/1/6 416/1/6 431/1/6
f 431/1/6 416/1/6 432/1/6
f 430/1/6 429/1/6 444/1/6
f 444/1/6 429/1/6 445/1/6
f 443/1/6 442/1/6 457/1/6
f 457/1/6 442/1/6 458/1/6
f 456/1/6 455/1/6 467/1/6
f 467/1/6 455/1/6 712/1/6
f 466/1/6 465/1/6 714/1/6
f 714/1/6 465/1/6 477/1/6
f 714/1/6 476/1/6 480/1/6
f 480/1/6 476/1/6 481/1/6
f 683/2/6 675/2/6 672/2/6
f 672/2/6 675/2/6 670/2/6
f 621/2/6 619/2/6 368/2/6
f 368/2/6 619/2/6 365/2/6
f 671/2/6 669/2/6 666/2/6
f 666/2/6 669/2/6 664/2/6
f 367/2/6 364/2/6 377/2/6
f 377/2/6 364/2/6 374/2/6
f 376/2/6 373/2/6 386/2/6
f 386/2/6 373/2/6 383/2/6
f 665/2/6 663/2/6 660/2/6
f 660/2/6 663/2/6 658/2/6
f 385/2/6 382/2/6 395/2/6
f 395/2/6 382/2/6 392/2/6
f 647/3/6 293/3/6 646/3/6
f 646/3/6 293/3/6 359/3/6
f 659/2/6 657/2/6 654/2/6
f 654/2/6 657/2/6 652/2/6
f 394/2/6 391/2/6 408/2/6
f 408/2/6 391/2/6 405/2/6
f 407/2/6 404/2/6 421/2/6
f 421/2/6 404/2/6 418/2/6
f 420/2/6 417/2/6 434/2/6
f 434/2/6 417/2/6 431/2/6
f 433/2/6 430/2/6 447/2/6
f 447/2/6 430/2/6 444/2/6
f 446/2/6 443/2/6 460/2/6
f 460/2/6 443/2/6 457/2/6
f 459/2/6 456/2/6 470/2/6
f 470/2/6 456/2/6 467/2/6
f 469/2/6 466/2/6 483/2/6
f 483/2/6 466/2/6 480/2/6
f 482/3/6 478/3/6 485/3/6
f 485/3/6 478/3/6 713/3/6
f 484/3/6 123/3/6 487/3/6
f 487/3/6 123/3/6 128/3/6
