# Vengi binary mesh normalized for Tanks of Freedom II

mtllib ../../../materials/vox_grass.mtl
o wall2_t2

v 4 3.3 -0.2
v 0.2 3.3 -0.2
v 0.2 3.3 0.2
v 4 3.3 0.2
v -0.2 3.3 -0.2
v -0.2 3.3 4
v 0.2 3.3 4
v -2.2 3.3 -0.2
v -2.2 3.3 0.2
v -0.2 3.3 0.2
v 0.2 0 3.9
v 0.2 0 4
v 0 0 4
v 0 0 3.9
v 0 0 3.8
v -0.2 0 4
v -0.2 0 3.8
v 0 0 3.7
v -0.2 0 3.7
v 0.2 0 3.4
v 0 0 3.4
v 0.2 0 3.3
v 0 0 3.3
v 0 0 3.1
v -0.2 0 3.1
v 0 0 3
v -0.2 0 3
v 0.2 0 2.7
v 0 0 2.7
v 0.2 0 2.6
v 0 0 2.6
v 0 0 2.4
v -0.2 0 2.4
v 0 0 2.3
v -0.2 0 2.3
v 0.2 0 2
v 0 0 2
v 0.2 0 1.9
v 0 0 1.9
v 0 0 1.7
v -0.2 0 1.7
v 0 0 1.6
v -0.2 0 1.6
v 0.2 0 1.3
v 0 0 1.3
v 0.2 0 1.2
v 0 0 1.2
v 0 0 1
v -0.2 0 1
v 0 0 0.9
v -0.2 0 0.9
v 0.2 0 0.6
v 0 0 0.6
v 0.2 0 0.5
v 0 0 0.5
v 0 0 0.3
v -0.2 0 0.3
v 0 0 0.2
v -0.2 0 0.2
v 4 0 0
v 4 0 0.2
v 3.8 0 0.2
v 3.8 0 0
v 3.7 0 0.2
v 3.7 0 0
v 3.4 0 0
v 3.4 0 0.2
v 3.1 0 0.2
v 3.1 0 0
v 3 0 0.2
v 3 0 0
v 2.7 0 0
v 2.7 0 0.2
v 2.4 0 0.2
v 2.4 0 0
v 2.3 0 0.2
v 2.3 0 0
v 2 0 0
v 2 0 0.2
v 1.7 0 0.2
v 1.7 0 0
v 1.6 0 0.2
v 1.6 0 0
v 1.3 0 0
v 1.3 0 0.2
v 1 0 0.2
v 1 0 0
v 0.9 0 0.2
v 0.9 0 0
v 0.6 0 0
v 0.6 0 0.2
v 0.3 0 0.2
v 0.3 0 0
v 0.2 0 0.2
v 0.2 0 0
v -0.1 0 0
v -0.1 0 0.2
v -0.4 0 0.2
v -0.4 0 0
v -0.5 0 0.2
v -0.5 0 0
v -0.8 0 0
v -0.8 0 0.2
v -1.1 0 0.2
v -1.1 0 0
v -1.2 0 0.2
v -1.2 0 0
v -1.5 0 0
v -1.5 0 0.2
v -1.8 0 0.2
v -1.8 0 0
v -1.9 0 0.2
v -1.9 0 0
v 4 0 -0.2
v 3.9 0 0
v 3.9 0 -0.2
v 3.7 0 -0.2
v 3.4 0 -0.2
v 3.3 0 0
v 3.3 0 -0.2
v 3 0 -0.2
v 2.7 0 -0.2
v 2.6 0 0
v 2.6 0 -0.2
v 2.3 0 -0.2
v 2 0 -0.2
v 1.9 0 0
v 1.9 0 -0.2
v 1.6 0 -0.2
v 1.3 0 -0.2
v 1.2 0 0
v 1.2 0 -0.2
v 0.9 0 -0.2
v 0.6 0 -0.2
v 0.5 0 0
v 0.5 0 -0.2
v 0.2 0 -0.2
v 0 0 -0.2
v -0.1 0 -0.2
v -0.2 0 0
v -0.2 0 -0.2
v -0.5 0 -0.2
v -0.8 0 -0.2
v -0.9 0 0
v -0.9 0 -0.2
v -1.2 0 -0.2
v -1.5 0 -0.2
v -1.6 0 0
v -1.6 0 -0.2
v -1.9 0 -0.2
v -2.2 0 0.2
v -2.2 0 -0.2
v -0.2 0.2 4
v -0.2 0.2 3.8
v -0.2 0.2 3.7
v -0.2 0.2 3.1
v -0.2 0.2 3
v -0.2 0.2 2.4
v -0.2 0.2 2.3
v -0.2 0.2 1.7
v -0.2 0.2 1.6
v -0.2 0.2 1
v -0.2 0.2 0.9
v -0.2 0.2 0.3
v -0.2 0.3 3.9
v -0.2 0.3 3.8
v -0.2 0.2 3.9
v -0.2 0.3 3.7
v -0.2 0.3 3.1
v -0.2 0.3 3
v -0.2 0.3 2.4
v -0.2 0.3 2.3
v -0.2 0.3 1.7
v -0.2 0.3 1.6
v -0.2 0.3 1
v -0.2 0.3 0.9
v -0.2 0.3 0.3
v -0.2 0.3 0.2
v -0.2 0.5 3.9
v -0.2 0.5 3.4
v -0.2 0.3 3.4
v -0.2 0.5 3.3
v -0.2 0.5 2.7
v -0.2 0.3 2.7
v -0.2 0.3 3.3
v -0.2 0.5 2.6
v -0.2 0.5 2
v -0.2 0.3 2
v -0.2 0.3 2.6
v -0.2 0.5 1.9
v -0.2 0.5 1.3
v -0.2 0.3 1.3
v -0.2 0.3 1.9
v -0.2 0.5 1.2
v -0.2 0.5 0.6
v -0.2 0.3 0.6
v -0.2 0.3 1.2
v -0.2 0.5 0.5
v -0.2 0.5 0.2
v -0.2 0.3 0.5
v -0.2 0.6 4
v -0.2 0.6 3.9
v -0.2 0.6 3.4
v -0.2 0.6 3.3
v -0.2 0.6 2.7
v -0.2 0.6 2.6
v -0.2 0.6 2
v -0.2 0.6 1.9
v -0.2 0.6 1.3
v -0.2 0.6 1.2
v -0.2 0.6 0.6
v -0.2 0.6 0.5
v -0.2 0.6 0.2
v -0.2 0.8 4
v -0.2 0.8 3.8
v -0.2 0.6 3.8
v -0.2 0.8 3.7
v -0.2 0.8 3.1
v -0.2 0.6 3.1
v -0.2 0.6 3.7
v -0.2 0.8 3
v -0.2 0.8 2.4
v -0.2 0.6 2.4
v -0.2 0.6 3
v -0.2 0.8 2.3
v -0.2 0.8 1.7
v -0.2 0.6 1.7
v -0.2 0.6 2.3
v -0.2 0.8 1.6
v -0.2 0.8 1
v -0.2 0.6 1
v -0.2 0.6 1.6
v -0.2 0.8 0.9
v -0.2 0.8 0.3
v -0.2 0.6 0.3
v -0.2 0.6 0.9
v -0.2 0.9 3.9
v -0.2 0.9 3.8
v -0.2 0.8 3.9
v -0.2 0.9 3.7
v -0.2 0.9 3.1
v -0.2 0.9 3
v -0.2 0.9 2.4
v -0.2 0.9 2.3
v -0.2 0.9 1.7
v -0.2 0.9 1.6
v -0.2 0.9 1
v -0.2 0.9 0.9
v -0.2 0.9 0.3
v -0.2 0.9 0.2
v -0.2 1.1 3.9
v -0.2 1.1 3.4
v -0.2 0.9 3.4
v -0.2 1.1 3.3
v -0.2 1.1 2.7
v -0.2 0.9 2.7
v -0.2 0.9 3.3
v -0.2 1.1 2.6
v -0.2 1.1 2
v -0.2 0.9 2
v -0.2 0.9 2.6
v -0.2 1.1 1.9
v -0.2 1.1 1.3
v -0.2 0.9 1.3
v -0.2 0.9 1.9
v -0.2 1.1 1.2
v -0.2 1.1 0.6
v -0.2 0.9 0.6
v -0.2 0.9 1.2
v -0.2 1.1 0.5
v -0.2 1.1 0.2
v -0.2 0.9 0.5
v -0.2 1.2 4
v -0.2 1.2 3.9
v -0.2 1.2 3.4
v -0.2 1.2 3.3
v -0.2 1.2 2.7
v -0.2 1.2 2.6
v -0.2 1.2 2
v -0.2 1.2 1.9
v -0.2 1.2 1.3
v -0.2 1.2 1.2
v -0.2 1.2 0.6
v -0.2 1.2 0.5
v -0.2 1.2 0.2
v -0.2 1.4 4
v -0.2 1.4 3.8
v -0.2 1.2 3.8
v -0.2 1.4 3.7
v -0.2 1.4 3.1
v -0.2 1.2 3.1
v -0.2 1.2 3.7
v -0.2 1.4 3
v -0.2 1.4 2.4
v -0.2 1.2 2.4
v -0.2 1.2 3
v -0.2 1.4 2.3
v -0.2 1.4 1.7
v -0.2 1.2 1.7
v -0.2 1.2 2.3
v -0.2 1.4 1.6
v -0.2 1.4 1
v -0.2 1.2 1
v -0.2 1.2 1.6
v -0.2 1.4 0.9
v -0.2 1.4 0.3
v -0.2 1.2 0.3
v -0.2 1.2 0.9
v -0.2 1.5 3.9
v -0.2 1.5 3.8
v -0.2 1.4 3.9
v -0.2 1.5 3.7
v -0.2 1.5 3.1
v -0.2 1.5 3
v -0.2 1.5 2.4
v -0.2 1.5 2.3
v -0.2 1.5 1.7
v -0.2 1.5 1.6
v -0.2 1.5 1
v -0.2 1.5 0.9
v -0.2 1.5 0.3
v -0.2 1.5 0.2
v -0.2 1.7 3.9
v -0.2 1.7 3.4
v -0.2 1.5 3.4
v -0.2 1.7 3.3
v -0.2 1.7 2.7
v -0.2 1.5 2.7
v -0.2 1.5 3.3
v -0.2 1.7 2.6
v -0.2 1.7 2
v -0.2 1.5 2
v -0.2 1.5 2.6
v -0.2 1.7 1.9
v -0.2 1.7 1.3
v -0.2 1.5 1.3
v -0.2 1.5 1.9
v -0.2 1.7 1.2
v -0.2 1.7 0.6
v -0.2 1.5 0.6
v -0.2 1.5 1.2
v -0.2 1.7 0.5
v -0.2 1.7 0.2
v -0.2 1.5 0.5
v -0.2 1.8 4
v -0.2 1.8 3.9
v -0.2 1.8 3.4
v -0.2 1.8 3.3
v -0.2 1.8 2.7
v -0.2 1.8 2.6
v -0.2 1.8 2
v -0.2 1.8 1.9
v -0.2 1.8 1.3
v -0.2 1.8 1.2
v -0.2 1.8 0.6
v -0.2 1.8 0.5
v -0.2 1.8 0.2
v -0.2 2 4
v -0.2 2 3.8
v -0.2 1.8 3.8
v -0.2 2 3.7
v -0.2 2 3.1
v -0.2 1.8 3.1
v -0.2 1.8 3.7
v -0.2 2 3
v -0.2 2 2.4
v -0.2 1.8 2.4
v -0.2 1.8 3
v -0.2 2 2.3
v -0.2 2 1.7
v -0.2 1.8 1.7
v -0.2 1.8 2.3
v -0.2 2 1.6
v -0.2 2 1
v -0.2 1.8 1
v -0.2 1.8 1.6
v -0.2 2 0.9
v -0.2 2 0.3
v -0.2 1.8 0.3
v -0.2 1.8 0.9
v -0.2 2.1 3.9
v -0.2 2.1 3.8
v -0.2 2 3.9
v -0.2 2.1 3.7
v -0.2 2.1 3.1
v -0.2 2.1 3
v -0.2 2.1 2.4
v -0.2 2.1 2.3
v -0.2 2.1 1.7
v -0.2 2.1 1.6
v -0.2 2.1 1
v -0.2 2.1 0.9
v -0.2 2.1 0.3
v -0.2 2.1 0.2
v -0.2 2.3 3.9
v -0.2 2.3 3.4
v -0.2 2.1 3.4
v -0.2 2.3 3.3
v -0.2 2.3 2.7
v -0.2 2.1 2.7
v -0.2 2.1 3.3
v -0.2 2.3 2.6
v -0.2 2.3 2
v -0.2 2.1 2
v -0.2 2.1 2.6
v -0.2 2.3 1.9
v -0.2 2.3 1.3
v -0.2 2.1 1.3
v -0.2 2.1 1.9
v -0.2 2.3 1.2
v -0.2 2.3 0.6
v -0.2 2.1 0.6
v -0.2 2.1 1.2
v -0.2 2.3 0.5
v -0.2 2.3 0.2
v -0.2 2.1 0.5
v -0.2 2.4 4
v -0.2 2.4 3.9
v -0.2 2.4 3.4
v -0.2 2.4 3.3
v -0.2 2.4 2.7
v -0.2 2.4 2.6
v -0.2 2.4 2
v -0.2 2.4 1.9
v -0.2 2.4 1.3
v -0.2 2.4 1.2
v -0.2 2.4 0.6
v -0.2 2.4 0.5
v -0.2 2.4 0.2
v -0.2 2.6 4
v -0.2 2.6 3.8
v -0.2 2.4 3.8
v -0.2 2.6 3.7
v -0.2 2.6 3.1
v -0.2 2.4 3.1
v -0.2 2.4 3.7
v -0.2 2.6 3
v -0.2 2.6 2.4
v -0.2 2.4 2.4
v -0.2 2.4 3
v -0.2 2.6 2.3
v -0.2 2.6 1.7
v -0.2 2.4 1.7
v -0.2 2.4 2.3
v -0.2 2.6 1.6
v -0.2 2.6 1
v -0.2 2.4 1
v -0.2 2.4 1.6
v -0.2 2.6 0.9
v -0.2 2.6 0.3
v -0.2 2.4 0.3
v -0.2 2.4 0.9
v -0.2 2.7 3.9
v -0.2 2.7 3.8
v -0.2 2.6 3.9
v -0.2 2.7 3.7
v -0.2 2.7 3.1
v -0.2 2.7 3
v -0.2 2.7 2.4
v -0.2 2.7 2.3
v -0.2 2.7 1.7
v -0.2 2.7 1.6
v -0.2 2.7 1
v -0.2 2.7 0.9
v -0.2 2.7 0.3
v -0.2 2.7 0.2
v -0.2 2.9 3.9
v -0.2 2.9 3.4
v -0.2 2.7 3.4
v -0.2 2.9 3.3
v -0.2 2.9 2.7
v -0.2 2.7 2.7
v -0.2 2.7 3.3
v -0.2 2.9 2.6
v -0.2 2.9 2
v -0.2 2.7 2
v -0.2 2.7 2.6
v -0.2 2.9 1.9
v -0.2 2.9 1.3
v -0.2 2.7 1.3
v -0.2 2.7 1.9
v -0.2 2.9 1.2
v -0.2 2.9 0.6
v -0.2 2.7 0.6
v -0.2 2.7 1.2
v -0.2 2.9 0.5
v -0.2 2.9 0.2
v -0.2 2.7 0.5
v -0.2 3 4
v -0.2 3 3.9
v -0.2 3 3.4
v -0.2 3 3.3
v -0.2 3 2.7
v -0.2 3 2.6
v -0.2 3 2
v -0.2 3 1.9
v -0.2 3 1.3
v -0.2 3 1.2
v -0.2 3 0.6
v -0.2 3 0.5
v -0.2 3 0.2
v -0.2 3.2 4
v -0.2 3.2 3.8
v -0.2 3 3.8
v -0.2 3.2 3.7
v -0.2 3.2 3.1
v -0.2 3 3.1
v -0.2 3 3.7
v -0.2 3.2 3
v -0.2 3.2 2.4
v -0.2 3 2.4
v -0.2 3 3
v -0.2 3.2 2.3
v -0.2 3.2 1.7
v -0.2 3 1.7
v -0.2 3 2.3
v -0.2 3.2 1.6
v -0.2 3.2 1
v -0.2 3 1
v -0.2 3 1.6
v -0.2 3.2 0.9
v -0.2 3.2 0.3
v -0.2 3 0.3
v -0.2 3 0.9
v -0.2 3.3 3.8
v -0.2 3.3 3.7
v -0.2 3.3 3.1
v -0.2 3.3 3
v -0.2 3.3 2.4
v -0.2 3.3 2.3
v -0.2 3.3 1.7
v -0.2 3.3 1.6
v -0.2 3.3 1
v -0.2 3.3 0.9
v -0.2 3.3 0.3
v 0.2 0.2 3.9
v 0.2 0.2 3.4
v 0.2 0.2 3.3
v 0.2 0.2 2.7
v 0.2 0.2 2.6
v 0.2 0.2 2
v 0.2 0.2 1.9
v 0.2 0.2 1.3
v 0.2 0.2 1.2
v 0.2 0.2 0.6
v 0.2 0.2 0.5
v 0.2 0.2 0.2
v 4 0.2 0.2
v 4 0.2 0
v 0.2 0.3 4
v 0.2 0.3 3.9
v 0.2 0.3 3.4
v 0.2 0.3 3.3
v 0.2 0.3 2.7
v 0.2 0.3 2.6
v 0.2 0.3 2
v 0.2 0.3 1.9
v 0.2 0.3 1.3
v 0.2 0.3 1.2
v 0.2 0.3 0.6
v 0.2 0.3 0.5
v 0.2 0.3 0.2
v 4 0.3 0
v 4 0.3 -0.2
v 0.2 0.5 4
v 0.2 0.3 3.8
v 0.2 0.5 3.8
v 0.2 0.5 3.7
v 0.2 0.3 3.7
v 0.2 0.3 3.1
v 0.2 0.5 3.1
v 0.2 0.5 3
v 0.2 0.3 3
v 0.2 0.3 2.4
v 0.2 0.5 2.4
v 0.2 0.5 2.3
v 0.2 0.3 2.3
v 0.2 0.3 1.7
v 0.2 0.5 1.7
v 0.2 0.5 1.6
v 0.2 0.3 1.6
v 0.2 0.3 1
v 0.2 0.5 1
v 0.2 0.5 0.9
v 0.2 0.3 0.9
v 0.2 0.3 0.3
v 0.2 0.5 0.3
v 4 0.5 0
v 4 0.5 -0.2
v 0.2 0.6 3.9
v 0.2 0.5 3.9
v 0.2 0.6 3.8
v 0.2 0.6 3.7
v 0.2 0.6 3.1
v 0.2 0.6 3
v 0.2 0.6 2.4
v 0.2 0.6 2.3
v 0.2 0.6 1.7
v 0.2 0.6 1.6
v 0.2 0.6 1
v 0.2 0.6 0.9
v 0.2 0.6 0.3
v 0.2 0.6 0.2
v 4 0.6 0.2
v 4 0.6 0
v 0.2 0.8 3.9
v 0.2 0.6 3.4
v 0.2 0.8 3.4
v 0.2 0.8 3.3
v 0.2 0.6 3.3
v 0.2 0.6 2.7
v 0.2 0.8 2.7
v 0.2 0.8 2.6
v 0.2 0.6 2.6
v 0.2 0.6 2
v 0.2 0.8 2
v 0.2 0.8 1.9
v 0.2 0.6 1.9
v 0.2 0.6 1.3
v 0.2 0.8 1.3
v 0.2 0.8 1.2
v 0.2 0.6 1.2
v 0.2 0.6 0.6
v 0.2 0.8 0.6
v 0.2 0.8 0.5
v 0.2 0.6 0.5
v 0.2 0.8 0.2
v 4 0.8 0.2
v 4 0.8 0
v 0.2 0.9 4
v 0.2 0.9 3.9
v 0.2 0.9 3.4
v 0.2 0.9 3.3
v 0.2 0.9 2.7
v 0.2 0.9 2.6
v 0.2 0.9 2
v 0.2 0.9 1.9
v 0.2 0.9 1.3
v 0.2 0.9 1.2
v 0.2 0.9 0.6
v 0.2 0.9 0.5
v 0.2 0.9 0.2
v 4 0.9 0
v 4 0.9 -0.2
v 0.2 1.1 4
v 0.2 0.9 3.8
v 0.2 1.1 3.8
v 0.2 1.1 3.7
v 0.2 0.9 3.7
v 0.2 0.9 3.1
v 0.2 1.1 3.1
v 0.2 1.1 3
v 0.2 0.9 3
v 0.2 0.9 2.4
v 0.2 1.1 2.4
v 0.2 1.1 2.3
v 0.2 0.9 2.3
v 0.2 0.9 1.7
v 0.2 1.1 1.7
v 0.2 1.1 1.6
v 0.2 0.9 1.6
v 0.2 0.9 1
v 0.2 1.1 1
v 0.2 1.1 0.9
v 0.2 0.9 0.9
v 0.2 0.9 0.3
v 0.2 1.1 0.3
v 4 1.1 0
v 4 1.1 -0.2
v 0.2 1.2 3.9
v 0.2 1.1 3.9
v 0.2 1.2 3.8
v 0.2 1.2 3.7
v 0.2 1.2 3.1
v 0.2 1.2 3
v 0.2 1.2 2.4
v 0.2 1.2 2.3
v 0.2 1.2 1.7
v 0.2 1.2 1.6
v 0.2 1.2 1
v 0.2 1.2 0.9
v 0.2 1.2 0.3
v 0.2 1.2 0.2
v 4 1.2 0.2
v 4 1.2 0
v 0.2 1.4 3.9
v 0.2 1.2 3.4
v 0.2 1.4 3.4
v 0.2 1.4 3.3
v 0.2 1.2 3.3
v 0.2 1.2 2.7
v 0.2 1.4 2.7
v 0.2 1.4 2.6
v 0.2 1.2 2.6
v 0.2 1.2 2
v 0.2 1.4 2
v 0.2 1.4 1.9
v 0.2 1.2 1.9
v 0.2 1.2 1.3
v 0.2 1.4 1.3
v 0.2 1.4 1.2
v 0.2 1.2 1.2
v 0.2 1.2 0.6
v 0.2 1.4 0.6
v 0.2 1.4 0.5
v 0.2 1.2 0.5
v 0.2 1.4 0.2
v 4 1.4 0.2
v 4 1.4 0
v 0.2 1.5 4
v 0.2 1.5 3.9
v 0.2 1.5 3.4
v 0.2 1.5 3.3
v 0.2 1.5 2.7
v 0.2 1.5 2.6
v 0.2 1.5 2
v 0.2 1.5 1.9
v 0.2 1.5 1.3
v 0.2 1.5 1.2
v 0.2 1.5 0.6
v 0.2 1.5 0.5
v 0.2 1.5 0.2
v 4 1.5 0
v 4 1.5 -0.2
v 0.2 1.7 4
v 0.2 1.5 3.8
v 0.2 1.7 3.8
v 0.2 1.7 3.7
v 0.2 1.5 3.7
v 0.2 1.5 3.1
v 0.2 1.7 3.1
v 0.2 1.7 3
v 0.2 1.5 3
v 0.2 1.5 2.4
v 0.2 1.7 2.4
v 0.2 1.7 2.3
v 0.2 1.5 2.3
v 0.2 1.5 1.7
v 0.2 1.7 1.7
v 0.2 1.7 1.6
v 0.2 1.5 1.6
v 0.2 1.5 1
v 0.2 1.7 1
v 0.2 1.7 0.9
v 0.2 1.5 0.9
v 0.2 1.5 0.3
v 0.2 1.7 0.3
v 4 1.7 0
v 4 1.7 -0.2
v 0.2 1.8 3.9
v 0.2 1.7 3.9
v 0.2 1.8 3.8
v 0.2 1.8 3.7
v 0.2 1.8 3.1
v 0.2 1.8 3
v 0.2 1.8 2.4
v 0.2 1.8 2.3
v 0.2 1.8 1.7
v 0.2 1.8 1.6
v 0.2 1.8 1
v 0.2 1.8 0.9
v 0.2 1.8 0.3
v 0.2 1.8 0.2
v 4 1.8 0.2
v 4 1.8 0
v 0.2 2 3.9
v 0.2 1.8 3.4
v 0.2 2 3.4
v 0.2 2 3.3
v 0.2 1.8 3.3
v 0.2 1.8 2.7
v 0.2 2 2.7
v 0.2 2 2.6
v 0.2 1.8 2.6
v 0.2 1.8 2
v 0.2 2 2
v 0.2 2 1.9
v 0.2 1.8 1.9
v 0.2 1.8 1.3
v 0.2 2 1.3
v 0.2 2 1.2
v 0.2 1.8 1.2
v 0.2 1.8 0.6
v 0.2 2 0.6
v 0.2 2 0.5
v 0.2 1.8 0.5
v 0.2 2 0.2
v 4 2 0.2
v 4 2 0
v 0.2 2.1 4
v 0.2 2.1 3.9
v 0.2 2.1 3.4
v 0.2 2.1 3.3
v 0.2 2.1 2.7
v 0.2 2.1 2.6
v 0.2 2.1 2
v 0.2 2.1 1.9
v 0.2 2.1 1.3
v 0.2 2.1 1.2
v 0.2 2.1 0.6
v 0.2 2.1 0.5
v 0.2 2.1 0.2
v 4 2.1 0
v 4 2.1 -0.2
v 0.2 2.3 4
v 0.2 2.1 3.8
v 0.2 2.3 3.8
v 0.2 2.3 3.7
v 0.2 2.1 3.7
v 0.2 2.1 3.1
v 0.2 2.3 3.1
v 0.2 2.3 3
v 0.2 2.1 3
v 0.2 2.1 2.4
v 0.2 2.3 2.4
v 0.2 2.3 2.3
v 0.2 2.1 2.3
v 0.2 2.1 1.7
v 0.2 2.3 1.7
v 0.2 2.3 1.6
v 0.2 2.1 1.6
v 0.2 2.1 1
v 0.2 2.3 1
v 0.2 2.3 0.9
v 0.2 2.1 0.9
v 0.2 2.1 0.3
v 0.2 2.3 0.3
v 4 2.3 0
v 4 2.3 -0.2
v 0.2 2.4 3.9
v 0.2 2.3 3.9
v 0.2 2.4 3.8
v 0.2 2.4 3.7
v 0.2 2.4 3.1
v 0.2 2.4 3
v 0.2 2.4 2.4
v 0.2 2.4 2.3
v 0.2 2.4 1.7
v 0.2 2.4 1.6
v 0.2 2.4 1
v 0.2 2.4 0.9
v 0.2 2.4 0.3
v 0.2 2.4 0.2
v 4 2.4 0.2
v 4 2.4 0
v 0.2 2.6 3.9
v 0.2 2.4 3.4
v 0.2 2.6 3.4
v 0.2 2.6 3.3
v 0.2 2.4 3.3
v 0.2 2.4 2.7
v 0.2 2.6 2.7
v 0.2 2.6 2.6
v 0.2 2.4 2.6
v 0.2 2.4 2
v 0.2 2.6 2
v 0.2 2.6 1.9
v 0.2 2.4 1.9
v 0.2 2.4 1.3
v 0.2 2.6 1.3
v 0.2 2.6 1.2
v 0.2 2.4 1.2
v 0.2 2.4 0.6
v 0.2 2.6 0.6
v 0.2 2.6 0.5
v 0.2 2.4 0.5
v 0.2 2.6 0.2
v 4 2.6 0.2
v 4 2.6 0
v 0.2 2.7 4
v 0.2 2.7 3.9
v 0.2 2.7 3.4
v 0.2 2.7 3.3
v 0.2 2.7 2.7
v 0.2 2.7 2.6
v 0.2 2.7 2
v 0.2 2.7 1.9
v 0.2 2.7 1.3
v 0.2 2.7 1.2
v 0.2 2.7 0.6
v 0.2 2.7 0.5
v 0.2 2.7 0.2
v 4 2.7 0
v 4 2.7 -0.2
v 0.2 2.9 4
v 0.2 2.7 3.8
v 0.2 2.9 3.8
v 0.2 2.9 3.7
v 0.2 2.7 3.7
v 0.2 2.7 3.1
v 0.2 2.9 3.1
v 0.2 2.9 3
v 0.2 2.7 3
v 0.2 2.7 2.4
v 0.2 2.9 2.4
v 0.2 2.9 2.3
v 0.2 2.7 2.3
v 0.2 2.7 1.7
v 0.2 2.9 1.7
v 0.2 2.9 1.6
v 0.2 2.7 1.6
v 0.2 2.7 1
v 0.2 2.9 1
v 0.2 2.9 0.9
v 0.2 2.7 0.9
v 0.2 2.7 0.3
v 0.2 2.9 0.3
v 4 2.9 0
v 4 2.9 -0.2
v 0.2 3 3.9
v 0.2 2.9 3.9
v 0.2 3 3.8
v 0.2 3 3.7
v 0.2 3 3.1
v 0.2 3 3
v 0.2 3 2.4
v 0.2 3 2.3
v 0.2 3 1.7
v 0.2 3 1.6
v 0.2 3 1
v 0.2 3 0.9
v 0.2 3 0.3
v 0.2 3 0.2
v 4 3 0.2
v 4 3 0
v 0.2 3.2 3.9
v 0.2 3 3.4
v 0.2 3.2 3.4
v 0.2 3.2 3.3
v 0.2 3 3.3
v 0.2 3 2.7
v 0.2 3.2 2.7
v 0.2 3.2 2.6
v 0.2 3 2.6
v 0.2 3 2
v 0.2 3.2 2
v 0.2 3.2 1.9
v 0.2 3 1.9
v 0.2 3 1.3
v 0.2 3.2 1.3
v 0.2 3.2 1.2
v 0.2 3 1.2
v 0.2 3 0.6
v 0.2 3.2 0.6
v 0.2 3.2 0.5
v 0.2 3 0.5
v 0.2 3.2 0.2
v 4 3.2 0.2
v 4 3.2 0
v 0.2 3.3 3.9
v 0.2 3.3 3.4
v 0.2 3.3 3.3
v 0.2 3.3 2.7
v 0.2 3.3 2.6
v 0.2 3.3 2
v 0.2 3.3 1.9
v 0.2 3.3 1.3
v 0.2 3.3 1.2
v 0.2 3.3 0.6
v 0.2 3.3 0.5
v 4 3.3 0
v 3.9 0.3 -0.2
v 3.9 0.6 -0.2
v 3.9 0.9 -0.2
v 4 0.6 -0.2
v 3.9 1.2 -0.2
v 3.9 1.5 -0.2
v 4 1.2 -0.2
v 3.9 1.8 -0.2
v 3.9 2.1 -0.2
v 4 1.8 -0.2
v 3.9 2.4 -0.2
v 3.9 2.7 -0.2
v 4 2.4 -0.2
v 3.9 3 -0.2
v 3.9 3.3 -0.2
v 4 3 -0.2
v 3.8 0.3 -0.2
v 3.8 0.5 -0.2
v 3.8 0.9 -0.2
v 3.8 1.1 -0.2
v 3.8 1.5 -0.2
v 3.8 1.7 -0.2
v 3.8 2.1 -0.2
v 3.8 2.3 -0.2
v 3.8 2.7 -0.2
v 3.8 2.9 -0.2
v 3.7 0.3 -0.2
v 3.7 0.5 -0.2
v 3.7 0.9 -0.2
v 3.7 1.1 -0.2
v 3.7 1.5 -0.2
v 3.7 1.7 -0.2
v 3.7 2.1 -0.2
v 3.7 2.3 -0.2
v 3.7 2.7 -0.2
v 3.7 2.9 -0.2
v 3.4 0.2 -0.2
v 3.9 0.2 -0.2
v 3.4 0.6 -0.2
v 3.4 0.8 -0.2
v 3.9 0.8 -0.2
v 3.4 1.2 -0.2
v 3.4 1.4 -0.2
v 3.9 1.4 -0.2
v 3.4 1.8 -0.2
v 3.4 2 -0.2
v 3.9 2 -0.2
v 3.4 2.4 -0.2
v 3.4 2.6 -0.2
v 3.9 2.6 -0.2
v 3.4 3 -0.2
v 3.4 3.2 -0.2
v 3.9 3.2 -0.2
v 3.3 0.2 -0.2
v 3.3 0.6 -0.2
v 3.3 0.8 -0.2
v 3.3 1.2 -0.2
v 3.3 1.4 -0.2
v 3.3 1.8 -0.2
v 3.3 2 -0.2
v 3.3 2.4 -0.2
v 3.3 2.6 -0.2
v 3.3 3 -0.2
v 3.3 3.2 -0.2
v 3.1 0.3 -0.2
v 3.1 0.5 -0.2
v 3.1 0.9 -0.2
v 3.1 1.1 -0.2
v 3.1 1.5 -0.2
v 3.1 1.7 -0.2
v 3.1 2.1 -0.2
v 3.1 2.3 -0.2
v 3.1 2.7 -0.2
v 3.1 2.9 -0.2
v 3 0.3 -0.2
v 3 0.5 -0.2
v 3 0.9 -0.2
v 3 1.1 -0.2
v 3 1.5 -0.2
v 3 1.7 -0.2
v 3 2.1 -0.2
v 3 2.3 -0.2
v 3 2.7 -0.2
v 3 2.9 -0.2
v 2.7 0.2 -0.2
v 2.7 0.6 -0.2
v 2.7 0.8 -0.2
v 2.7 1.2 -0.2
v 2.7 1.4 -0.2
v 2.7 1.8 -0.2
v 2.7 2 -0.2
v 2.7 2.4 -0.2
v 2.7 2.6 -0.2
v 2.7 3 -0.2
v 2.7 3.2 -0.2
v 2.6 0.2 -0.2
v 2.6 0.6 -0.2
v 2.6 0.8 -0.2
v 2.6 1.2 -0.2
v 2.6 1.4 -0.2
v 2.6 1.8 -0.2
v 2.6 2 -0.2
v 2.6 2.4 -0.2
v 2.6 2.6 -0.2
v 2.6 3 -0.2
v 2.6 3.2 -0.2
v 2.4 0.3 -0.2
v 2.4 0.5 -0.2
v 2.4 0.9 -0.2
v 2.4 1.1 -0.2
v 2.4 1.5 -0.2
v 2.4 1.7 -0.2
v 2.4 2.1 -0.2
v 2.4 2.3 -0.2
v 2.4 2.7 -0.2
v 2.4 2.9 -0.2
v 2.3 0.3 -0.2
v 2.3 0.5 -0.2
v 2.3 0.9 -0.2
v 2.3 1.1 -0.2
v 2.3 1.5 -0.2
v 2.3 1.7 -0.2
v 2.3 2.1 -0.2
v 2.3 2.3 -0.2
v 2.3 2.7 -0.2
v 2.3 2.9 -0.2
v 2 0.2 -0.2
v 2 0.6 -0.2
v 2 0.8 -0.2
v 2 1.2 -0.2
v 2 1.4 -0.2
v 2 1.8 -0.2
v 2 2 -0.2
v 2 2.4 -0.2
v 2 2.6 -0.2
v 2 3 -0.2
v 2 3.2 -0.2
v 1.9 0.2 -0.2
v 1.9 0.6 -0.2
v 1.9 0.8 -0.2
v 1.9 1.2 -0.2
v 1.9 1.4 -0.2
v 1.9 1.8 -0.2
v 1.9 2 -0.2
v 1.9 2.4 -0.2
v 1.9 2.6 -0.2
v 1.9 3 -0.2
v 1.9 3.2 -0.2
v 1.7 0.3 -0.2
v 1.7 0.5 -0.2
v 1.7 0.9 -0.2
v 1.7 1.1 -0.2
v 1.7 1.5 -0.2
v 1.7 1.7 -0.2
v 1.7 2.1 -0.2
v 1.7 2.3 -0.2
v 1.7 2.7 -0.2
v 1.7 2.9 -0.2
v 1.6 0.3 -0.2
v 1.6 0.5 -0.2
v 1.6 0.9 -0.2
v 1.6 1.1 -0.2
v 1.6 1.5 -0.2
v 1.6 1.7 -0.2
v 1.6 2.1 -0.2
v 1.6 2.3 -0.2
v 1.6 2.7 -0.2
v 1.6 2.9 -0.2
v 1.3 0.2 -0.2
v 1.3 0.6 -0.2
v 1.3 0.8 -0.2
v 1.3 1.2 -0.2
v 1.3 1.4 -0.2
v 1.3 1.8 -0.2
v 1.3 2 -0.2
v 1.3 2.4 -0.2
v 1.3 2.6 -0.2
v 1.3 3 -0.2
v 1.3 3.2 -0.2
v 1.2 0.2 -0.2
v 1.2 0.6 -0.2
v 1.2 0.8 -0.2
v 1.2 1.2 -0.2
v 1.2 1.4 -0.2
v 1.2 1.8 -0.2
v 1.2 2 -0.2
v 1.2 2.4 -0.2
v 1.2 2.6 -0.2
v 1.2 3 -0.2
v 1.2 3.2 -0.2
v 1 0.3 -0.2
v 1 0.5 -0.2
v 1 0.9 -0.2
v 1 1.1 -0.2
v 1 1.5 -0.2
v 1 1.7 -0.2
v 1 2.1 -0.2
v 1 2.3 -0.2
v 1 2.7 -0.2
v 1 2.9 -0.2
v 0.9 0.3 -0.2
v 0.9 0.5 -0.2
v 0.9 0.9 -0.2
v 0.9 1.1 -0.2
v 0.9 1.5 -0.2
v 0.9 1.7 -0.2
v 0.9 2.1 -0.2
v 0.9 2.3 -0.2
v 0.9 2.7 -0.2
v 0.9 2.9 -0.2
v 0.6 0.2 -0.2
v 0.6 0.6 -0.2
v 0.6 0.8 -0.2
v 0.6 1.2 -0.2
v 0.6 1.4 -0.2
v 0.6 1.8 -0.2
v 0.6 2 -0.2
v 0.6 2.4 -0.2
v 0.6 2.6 -0.2
v 0.6 3 -0.2
v 0.6 3.2 -0.2
v 0.5 0.2 -0.2
v 0.5 0.6 -0.2
v 0.5 0.8 -0.2
v 0.5 1.2 -0.2
v 0.5 1.4 -0.2
v 0.5 1.8 -0.2
v 0.5 2 -0.2
v 0.5 2.4 -0.2
v 0.5 2.6 -0.2
v 0.5 3 -0.2
v 0.5 3.2 -0.2
v 0.3 0.3 -0.2
v 0.3 0.5 -0.2
v 0.3 0.9 -0.2
v 0.3 1.1 -0.2
v 0.3 1.5 -0.2
v 0.3 1.7 -0.2
v 0.3 2.1 -0.2
v 0.3 2.3 -0.2
v 0.3 2.7 -0.2
v 0.3 2.9 -0.2
v 0.2 0.3 -0.2
v 0.2 0.5 -0.2
v 0.2 0.9 -0.2
v 0.2 1.1 -0.2
v 0.2 1.5 -0.2
v 0.2 1.7 -0.2
v 0.2 2.1 -0.2
v 0.2 2.3 -0.2
v 0.2 2.7 -0.2
v 0.2 2.9 -0.2
v -0.1 0.2 -0.2
v -0.1 0.6 -0.2
v -0.1 0.8 -0.2
v -0.1 1.2 -0.2
v -0.1 1.4 -0.2
v -0.1 1.8 -0.2
v -0.1 2 -0.2
v -0.1 2.4 -0.2
v -0.1 2.6 -0.2
v -0.1 3 -0.2
v -0.1 3.2 -0.2
v -0.2 0.2 -0.2
v -0.2 0.6 -0.2
v -0.2 0.8 -0.2
v -0.2 1.2 -0.2
v -0.2 1.4 -0.2
v -0.2 1.8 -0.2
v -0.2 2 -0.2
v -0.2 2.4 -0.2
v -0.2 2.6 -0.2
v -0.2 3 -0.2
v -0.2 3.2 -0.2
v -0.4 0.3 -0.2
v -0.4 0.5 -0.2
v -0.4 0.9 -0.2
v -0.4 1.1 -0.2
v -0.4 1.5 -0.2
v -0.4 1.7 -0.2
v -0.4 2.1 -0.2
v -0.4 2.3 -0.2
v -0.4 2.7 -0.2
v -0.4 2.9 -0.2
v -0.5 0.3 -0.2
v -0.5 0.5 -0.2
v -0.5 0.9 -0.2
v -0.5 1.1 -0.2
v -0.5 1.5 -0.2
v -0.5 1.7 -0.2
v -0.5 2.1 -0.2
v -0.5 2.3 -0.2
v -0.5 2.7 -0.2
v -0.5 2.9 -0.2
v -0.8 0.2 -0.2
v -0.8 0.6 -0.2
v -0.8 0.8 -0.2
v -0.8 1.2 -0.2
v -0.8 1.4 -0.2
v -0.8 1.8 -0.2
v -0.8 2 -0.2
v -0.8 2.4 -0.2
v -0.8 2.6 -0.2
v -0.8 3 -0.2
v -0.8 3.2 -0.2
v -0.9 0.2 -0.2
v -0.9 0.6 -0.2
v -0.9 0.8 -0.2
v -0.9 1.2 -0.2
v -0.9 1.4 -0.2
v -0.9 1.8 -0.2
v -0.9 2 -0.2
v -0.9 2.4 -0.2
v -0.9 2.6 -0.2
v -0.9 3 -0.2
v -0.9 3.2 -0.2
v -1.1 0.3 -0.2
v -1.1 0.5 -0.2
v -1.1 0.9 -0.2
v -1.1 1.1 -0.2
v -1.1 1.5 -0.2
v -1.1 1.7 -0.2
v -1.1 2.1 -0.2
v -1.1 2.3 -0.2
v -1.1 2.7 -0.2
v -1.1 2.9 -0.2
v -1.2 0.3 -0.2
v -1.2 0.5 -0.2
v -1.2 0.9 -0.2
v -1.2 1.1 -0.2
v -1.2 1.5 -0.2
v -1.2 1.7 -0.2
v -1.2 2.1 -0.2
v -1.2 2.3 -0.2
v -1.2 2.7 -0.2
v -1.2 2.9 -0.2
v -1.5 0.2 -0.2
v -1.5 0.6 -0.2
v -1.5 0.8 -0.2
v -1.5 1.2 -0.2
v -1.5 1.4 -0.2
v -1.5 1.8 -0.2
v -1.5 2 -0.2
v -1.5 2.4 -0.2
v -1.5 2.6 -0.2
v -1.5 3 -0.2
v -1.5 3.2 -0.2
v -1.6 0.2 -0.2
v -1.6 0.6 -0.2
v -1.6 0.8 -0.2
v -1.6 1.2 -0.2
v -1.6 1.4 -0.2
v -1.6 1.8 -0.2
v -1.6 2 -0.2
v -1.6 2.4 -0.2
v -1.6 2.6 -0.2
v -1.6 3 -0.2
v -1.6 3.2 -0.2
v -1.8 0.3 -0.2
v -1.8 0.5 -0.2
v -1.8 0.9 -0.2
v -1.8 1.1 -0.2
v -1.8 1.5 -0.2
v -1.8 1.7 -0.2
v -1.8 2.1 -0.2
v -1.8 2.3 -0.2
v -1.8 2.7 -0.2
v -1.8 2.9 -0.2
v -1.9 0.3 -0.2
v -1.9 0.5 -0.2
v -1.9 0.9 -0.2
v -1.9 1.1 -0.2
v -1.9 1.5 -0.2
v -1.9 1.7 -0.2
v -1.9 2.1 -0.2
v -1.9 2.3 -0.2
v -1.9 2.7 -0.2
v -1.9 2.9 -0.2
v -2.2 0.2 -0.2
v -2.2 0.3 -0.2
v -2.2 0.5 -0.2
v -2.2 0.6 -0.2
v -2.2 0.8 -0.2
v -2.2 0.9 -0.2
v -2.2 1.1 -0.2
v -2.2 1.2 -0.2
v -2.2 1.4 -0.2
v -2.2 1.5 -0.2
v -2.2 1.7 -0.2
v -2.2 1.8 -0.2
v -2.2 2 -0.2
v -2.2 2.1 -0.2
v -2.2 2.3 -0.2
v -2.2 2.4 -0.2
v -2.2 2.6 -0.2
v -2.2 2.7 -0.2
v -2.2 2.9 -0.2
v -2.2 3 -0.2
v -2.2 3.2 -0.2
v 3.9 0.3 0.2
v 4 0.3 0.2
v 3.9 0.6 0.2
v 3.9 0.9 0.2
v 4 0.9 0.2
v 3.9 1.2 0.2
v 3.9 1.5 0.2
v 4 1.5 0.2
v 3.9 1.8 0.2
v 3.9 2.1 0.2
v 4 2.1 0.2
v 3.9 2.4 0.2
v 3.9 2.7 0.2
v 4 2.7 0.2
v 3.9 3 0.2
v 3.8 0.2 0.2
v 3.8 0.6 0.2
v 3.8 0.8 0.2
v 3.8 1.2 0.2
v 3.8 1.4 0.2
v 3.8 1.8 0.2
v 3.8 2 0.2
v 3.8 2.4 0.2
v 3.8 2.6 0.2
v 3.8 3 0.2
v 3.8 3.2 0.2
v 3.7 0.2 0.2
v 3.7 0.6 0.2
v 3.7 0.8 0.2
v 3.7 1.2 0.2
v 3.7 1.4 0.2
v 3.7 1.8 0.2
v 3.7 2 0.2
v 3.7 2.4 0.2
v 3.7 2.6 0.2
v 3.7 3 0.2
v 3.7 3.2 0.2
v 3.4 0.3 0.2
v 3.9 0.5 0.2
v 3.4 0.5 0.2
v 3.4 0.9 0.2
v 3.9 1.1 0.2
v 3.4 1.1 0.2
v 3.4 1.5 0.2
v 3.9 1.7 0.2
v 3.4 1.7 0.2
v 3.4 2.1 0.2
v 3.9 2.3 0.2
v 3.4 2.3 0.2
v 3.4 2.7 0.2
v 3.9 2.9 0.2
v 3.4 2.9 0.2
v 3.3 0.3 0.2
v 3.3 0.5 0.2
v 3.3 0.9 0.2
v 3.3 1.1 0.2
v 3.3 1.5 0.2
v 3.3 1.7 0.2
v 3.3 2.1 0.2
v 3.3 2.3 0.2
v 3.3 2.7 0.2
v 3.3 2.9 0.2
v 3.1 0.2 0.2
v 3.1 0.6 0.2
v 3.1 0.8 0.2
v 3.1 1.2 0.2
v 3.1 1.4 0.2
v 3.1 1.8 0.2
v 3.1 2 0.2
v 3.1 2.4 0.2
v 3.1 2.6 0.2
v 3.1 3 0.2
v 3.1 3.2 0.2
v 3 0.2 0.2
v 3 0.6 0.2
v 3 0.8 0.2
v 3 1.2 0.2
v 3 1.4 0.2
v 3 1.8 0.2
v 3 2 0.2
v 3 2.4 0.2
v 3 2.6 0.2
v 3 3 0.2
v 3 3.2 0.2
v 2.7 0.3 0.2
v 2.7 0.5 0.2
v 2.7 0.9 0.2
v 2.7 1.1 0.2
v 2.7 1.5 0.2
v 2.7 1.7 0.2
v 2.7 2.1 0.2
v 2.7 2.3 0.2
v 2.7 2.7 0.2
v 2.7 2.9 0.2
v 2.6 0.3 0.2
v 2.6 0.5 0.2
v 2.6 0.9 0.2
v 2.6 1.1 0.2
v 2.6 1.5 0.2
v 2.6 1.7 0.2
v 2.6 2.1 0.2
v 2.6 2.3 0.2
v 2.6 2.7 0.2
v 2.6 2.9 0.2
v 2.4 0.2 0.2
v 2.4 0.6 0.2
v 2.4 0.8 0.2
v 2.4 1.2 0.2
v 2.4 1.4 0.2
v 2.4 1.8 0.2
v 2.4 2 0.2
v 2.4 2.4 0.2
v 2.4 2.6 0.2
v 2.4 3 0.2
v 2.4 3.2 0.2
v 2.3 0.2 0.2
v 2.3 0.6 0.2
v 2.3 0.8 0.2
v 2.3 1.2 0.2
v 2.3 1.4 0.2
v 2.3 1.8 0.2
v 2.3 2 0.2
v 2.3 2.4 0.2
v 2.3 2.6 0.2
v 2.3 3 0.2
v 2.3 3.2 0.2
v 2 0.3 0.2
v 2 0.5 0.2
v 2 0.9 0.2
v 2 1.1 0.2
v 2 1.5 0.2
v 2 1.7 0.2
v 2 2.1 0.2
v 2 2.3 0.2
v 2 2.7 0.2
v 2 2.9 0.2
v 1.9 0.3 0.2
v 1.9 0.5 0.2
v 1.9 0.9 0.2
v 1.9 1.1 0.2
v 1.9 1.5 0.2
v 1.9 1.7 0.2
v 1.9 2.1 0.2
v 1.9 2.3 0.2
v 1.9 2.7 0.2
v 1.9 2.9 0.2
v 1.7 0.2 0.2
v 1.7 0.6 0.2
v 1.7 0.8 0.2
v 1.7 1.2 0.2
v 1.7 1.4 0.2
v 1.7 1.8 0.2
v 1.7 2 0.2
v 1.7 2.4 0.2
v 1.7 2.6 0.2
v 1.7 3 0.2
v 1.7 3.2 0.2
v 1.6 0.2 0.2
v 1.6 0.6 0.2
v 1.6 0.8 0.2
v 1.6 1.2 0.2
v 1.6 1.4 0.2
v 1.6 1.8 0.2
v 1.6 2 0.2
v 1.6 2.4 0.2
v 1.6 2.6 0.2
v 1.6 3 0.2
v 1.6 3.2 0.2
v 1.3 0.3 0.2
v 1.3 0.5 0.2
v 1.3 0.9 0.2
v 1.3 1.1 0.2
v 1.3 1.5 0.2
v 1.3 1.7 0.2
v 1.3 2.1 0.2
v 1.3 2.3 0.2
v 1.3 2.7 0.2
v 1.3 2.9 0.2
v 1.2 0.3 0.2
v 1.2 0.5 0.2
v 1.2 0.9 0.2
v 1.2 1.1 0.2
v 1.2 1.5 0.2
v 1.2 1.7 0.2
v 1.2 2.1 0.2
v 1.2 2.3 0.2
v 1.2 2.7 0.2
v 1.2 2.9 0.2
v 1 0.2 0.2
v 1 0.6 0.2
v 1 0.8 0.2
v 1 1.2 0.2
v 1 1.4 0.2
v 1 1.8 0.2
v 1 2 0.2
v 1 2.4 0.2
v 1 2.6 0.2
v 1 3 0.2
v 1 3.2 0.2
v 0.9 0.2 0.2
v 0.9 0.6 0.2
v 0.9 0.8 0.2
v 0.9 1.2 0.2
v 0.9 1.4 0.2
v 0.9 1.8 0.2
v 0.9 2 0.2
v 0.9 2.4 0.2
v 0.9 2.6 0.2
v 0.9 3 0.2
v 0.9 3.2 0.2
v 0.6 0.3 0.2
v 0.6 0.5 0.2
v 0.6 0.9 0.2
v 0.6 1.1 0.2
v 0.6 1.5 0.2
v 0.6 1.7 0.2
v 0.6 2.1 0.2
v 0.6 2.3 0.2
v 0.6 2.7 0.2
v 0.6 2.9 0.2
v 0.5 0.3 0.2
v 0.5 0.5 0.2
v 0.5 0.9 0.2
v 0.5 1.1 0.2
v 0.5 1.5 0.2
v 0.5 1.7 0.2
v 0.5 2.1 0.2
v 0.5 2.3 0.2
v 0.5 2.7 0.2
v 0.5 2.9 0.2
v 0.3 0.2 0.2
v 0.3 0.6 0.2
v 0.3 0.8 0.2
v 0.3 1.2 0.2
v 0.3 1.4 0.2
v 0.3 1.8 0.2
v 0.3 2 0.2
v 0.3 2.4 0.2
v 0.3 2.6 0.2
v 0.3 3 0.2
v 0.3 3.2 0.2
v 0.2 0.5 0.2
v 0.2 1.1 0.2
v 0.2 1.7 0.2
v 0.2 2.3 0.2
v 0.2 2.9 0.2
v 0 0.3 4
v 0 0.5 4
v 0 0.6 4
v 0.2 0.6 4
v 0 0.9 4
v 0 1.1 4
v 0 1.2 4
v 0.2 1.2 4
v 0 1.5 4
v 0 1.7 4
v 0 1.8 4
v 0.2 1.8 4
v 0 2.1 4
v 0 2.3 4
v 0 2.4 4
v 0.2 2.4 4
v 0 2.7 4
v 0 2.9 4
v 0 3 4
v 0.2 3 4
v 0 3.3 4
v 0 0.2 4
v -0.2 0.5 4
v 0 0.8 4
v -0.2 1.1 4
v 0 1.4 4
v -0.2 1.7 4
v 0 2 4
v -0.2 2.3 4
v 0 2.6 4
v -0.2 2.9 4
v 0 3.2 4
v -0.2 0.2 0.2
v -0.4 0.2 0.2
v -0.4 0.6 0.2
v -0.2 0.8 0.2
v -0.4 0.8 0.2
v -0.4 1.2 0.2
v -0.2 1.4 0.2
v -0.4 1.4 0.2
v -0.4 1.8 0.2
v -0.2 2 0.2
v -0.4 2 0.2
v -0.4 2.4 0.2
v -0.2 2.6 0.2
v -0.4 2.6 0.2
v -0.4 3 0.2
v -0.2 3.2 0.2
v -0.4 3.2 0.2
v -0.5 0.2 0.2
v -0.5 0.6 0.2
v -0.5 0.8 0.2
v -0.5 1.2 0.2
v -0.5 1.4 0.2
v -0.5 1.8 0.2
v -0.5 2 0.2
v -0.5 2.4 0.2
v -0.5 2.6 0.2
v -0.5 3 0.2
v -0.5 3.2 0.2
v -0.8 0.3 0.2
v -0.8 0.5 0.2
v -0.8 0.9 0.2
v -0.8 1.1 0.2
v -0.8 1.5 0.2
v -0.8 1.7 0.2
v -0.8 2.1 0.2
v -0.8 2.3 0.2
v -0.8 2.7 0.2
v -0.8 2.9 0.2
v -0.9 0.3 0.2
v -0.9 0.5 0.2
v -0.9 0.9 0.2
v -0.9 1.1 0.2
v -0.9 1.5 0.2
v -0.9 1.7 0.2
v -0.9 2.1 0.2
v -0.9 2.3 0.2
v -0.9 2.7 0.2
v -0.9 2.9 0.2
v -1.1 0.2 0.2
v -1.1 0.6 0.2
v -1.1 0.8 0.2
v -1.1 1.2 0.2
v -1.1 1.4 0.2
v -1.1 1.8 0.2
v -1.1 2 0.2
v -1.1 2.4 0.2
v -1.1 2.6 0.2
v -1.1 3 0.2
v -1.1 3.2 0.2
v -1.2 0.2 0.2
v -1.2 0.6 0.2
v -1.2 0.8 0.2
v -1.2 1.2 0.2
v -1.2 1.4 0.2
v -1.2 1.8 0.2
v -1.2 2 0.2
v -1.2 2.4 0.2
v -1.2 2.6 0.2
v -1.2 3 0.2
v -1.2 3.2 0.2
v -1.5 0.3 0.2
v -1.5 0.5 0.2
v -1.5 0.9 0.2
v -1.5 1.1 0.2
v -1.5 1.5 0.2
v -1.5 1.7 0.2
v -1.5 2.1 0.2
v -1.5 2.3 0.2
v -1.5 2.7 0.2
v -1.5 2.9 0.2
v -1.6 0.3 0.2
v -1.6 0.5 0.2
v -1.6 0.9 0.2
v -1.6 1.1 0.2
v -1.6 1.5 0.2
v -1.6 1.7 0.2
v -1.6 2.1 0.2
v -1.6 2.3 0.2
v -1.6 2.7 0.2
v -1.6 2.9 0.2
v -1.8 0.2 0.2
v -1.8 0.6 0.2
v -1.8 0.8 0.2
v -1.8 1.2 0.2
v -1.8 1.4 0.2
v -1.8 1.8 0.2
v -1.8 2 0.2
v -1.8 2.4 0.2
v -1.8 2.6 0.2
v -1.8 3 0.2
v -1.8 3.2 0.2
v -1.9 0.2 0.2
v -1.9 0.6 0.2
v -1.9 0.8 0.2
v -1.9 1.2 0.2
v -1.9 1.4 0.2
v -1.9 1.8 0.2
v -1.9 2 0.2
v -1.9 2.4 0.2
v -1.9 2.6 0.2
v -1.9 3 0.2
v -1.9 3.2 0.2
v -2.2 0.2 0.2
v -2.2 0.3 0.2
v -2.2 0.5 0.2
v -2.2 0.6 0.2
v -2.2 0.8 0.2
v -2.2 0.9 0.2
v -2.2 1.1 0.2
v -2.2 1.2 0.2
v -2.2 1.4 0.2
v -2.2 1.5 0.2
v -2.2 1.7 0.2
v -2.2 1.8 0.2
v -2.2 2 0.2
v -2.2 2.1 0.2
v -2.2 2.3 0.2
v -2.2 2.4 0.2
v -2.2 2.6 0.2
v -2.2 2.7 0.2
v -2.2 2.9 0.2
v -2.2 3 0.2
v -2.2 3.2 0.2
v -4 3.3 -0.2
v -4 3.3 0.2
v -2.2 0 0
v -2.5 0 0.2
v -2.5 0 0
v -2.6 0 0.2
v -2.6 0 0
v -2.9 0 0
v -2.9 0 0.2
v -3.2 0 0.2
v -3.2 0 0
v -3.3 0 0.2
v -3.3 0 0
v -3.6 0 0
v -3.6 0 0.2
v -3.9 0 0.2
v -3.9 0 0
v -4 0 0.2
v -4 0 0
v -2.3 0 0
v -2.3 0 -0.2
v -2.6 0 -0.2
v -2.9 0 -0.2
v -3 0 0
v -3 0 -0.2
v -3.3 0 -0.2
v -3.6 0 -0.2
v -3.7 0 0
v -3.7 0 -0.2
v -4 0 -0.2
v -4 0.2 0
v -4 0.2 -0.2
v -4 0.3 0.2
v -4 0.3 0
v -4 0.5 0.2
v -4 0.5 0
v -4 0.6 0
v -4 0.6 -0.2
v -4 0.8 0
v -4 0.8 -0.2
v -4 0.9 0.2
v -4 0.9 0
v -4 1.1 0.2
v -4 1.1 0
v -4 1.2 0
v -4 1.2 -0.2
v -4 1.4 0
v -4 1.4 -0.2
v -4 1.5 0.2
v -4 1.5 0
v -4 1.7 0.2
v -4 1.7 0
v -4 1.8 0
v -4 1.8 -0.2
v -4 2 0
v -4 2 -0.2
v -4 2.1 0.2
v -4 2.1 0
v -4 2.3 0.2
v -4 2.3 0
v -4 2.4 0
v -4 2.4 -0.2
v -4 2.6 0
v -4 2.6 -0.2
v -4 2.7 0.2
v -4 2.7 0
v -4 2.9 0.2
v -4 2.9 0
v -4 3 0
v -4 3 -0.2
v -4 3.2 0
v -4 3.2 -0.2
v -4 3.3 0
v -2.3 0.3 -0.2
v -2.3 0.6 -0.2
v -2.3 0.9 -0.2
v -2.3 1.2 -0.2
v -2.3 1.5 -0.2
v -2.3 1.8 -0.2
v -2.3 2.1 -0.2
v -2.3 2.4 -0.2
v -2.3 2.7 -0.2
v -2.3 3 -0.2
v -2.3 3.3 -0.2
v -2.5 0.3 -0.2
v -2.5 0.5 -0.2
v -2.5 0.9 -0.2
v -2.5 1.1 -0.2
v -2.5 1.5 -0.2
v -2.5 1.7 -0.2
v -2.5 2.1 -0.2
v -2.5 2.3 -0.2
v -2.5 2.7 -0.2
v -2.5 2.9 -0.2
v -2.6 0.3 -0.2
v -2.6 0.5 -0.2
v -2.6 0.9 -0.2
v -2.6 1.1 -0.2
v -2.6 1.5 -0.2
v -2.6 1.7 -0.2
v -2.6 2.1 -0.2
v -2.6 2.3 -0.2
v -2.6 2.7 -0.2
v -2.6 2.9 -0.2
v -2.9 0.2 -0.2
v -2.3 0.2 -0.2
v -2.9 0.6 -0.2
v -2.9 0.8 -0.2
v -2.3 0.8 -0.2
v -2.9 1.2 -0.2
v -2.9 1.4 -0.2
v -2.3 1.4 -0.2
v -2.9 1.8 -0.2
v -2.9 2 -0.2
v -2.3 2 -0.2
v -2.9 2.4 -0.2
v -2.9 2.6 -0.2
v -2.3 2.6 -0.2
v -2.9 3 -0.2
v -2.9 3.2 -0.2
v -2.3 3.2 -0.2
v -3 0.2 -0.2
v -3 0.6 -0.2
v -3 0.8 -0.2
v -3 1.2 -0.2
v -3 1.4 -0.2
v -3 1.8 -0.2
v -3 2 -0.2
v -3 2.4 -0.2
v -3 2.6 -0.2
v -3 3 -0.2
v -3 3.2 -0.2
v -3.2 0.3 -0.2
v -3.2 0.5 -0.2
v -3.2 0.9 -0.2
v -3.2 1.1 -0.2
v -3.2 1.5 -0.2
v -3.2 1.7 -0.2
v -3.2 2.1 -0.2
v -3.2 2.3 -0.2
v -3.2 2.7 -0.2
v -3.2 2.9 -0.2
v -3.3 0.3 -0.2
v -3.3 0.5 -0.2
v -3.3 0.9 -0.2
v -3.3 1.1 -0.2
v -3.3 1.5 -0.2
v -3.3 1.7 -0.2
v -3.3 2.1 -0.2
v -3.3 2.3 -0.2
v -3.3 2.7 -0.2
v -3.3 2.9 -0.2
v -3.6 0.2 -0.2
v -3.6 0.6 -0.2
v -3.6 0.8 -0.2
v -3.6 1.2 -0.2
v -3.6 1.4 -0.2
v -3.6 1.8 -0.2
v -3.6 2 -0.2
v -3.6 2.4 -0.2
v -3.6 2.6 -0.2
v -3.6 3 -0.2
v -3.6 3.2 -0.2
v -3.7 0.2 -0.2
v -3.7 0.6 -0.2
v -3.7 0.8 -0.2
v -3.7 1.2 -0.2
v -3.7 1.4 -0.2
v -3.7 1.8 -0.2
v -3.7 2 -0.2
v -3.7 2.4 -0.2
v -3.7 2.6 -0.2
v -3.7 3 -0.2
v -3.7 3.2 -0.2
v -3.9 0.3 -0.2
v -3.9 0.5 -0.2
v -3.9 0.9 -0.2
v -3.9 1.1 -0.2
v -3.9 1.5 -0.2
v -3.9 1.7 -0.2
v -3.9 2.1 -0.2
v -3.9 2.3 -0.2
v -3.9 2.7 -0.2
v -3.9 2.9 -0.2
v -4 0.3 -0.2
v -4 0.5 -0.2
v -4 0.9 -0.2
v -4 1.1 -0.2
v -4 1.5 -0.2
v -4 1.7 -0.2
v -4 2.1 -0.2
v -4 2.3 -0.2
v -4 2.7 -0.2
v -4 2.9 -0.2
v -2.3 0.3 0.2
v -2.3 0.6 0.2
v -2.3 0.9 0.2
v -2.3 1.2 0.2
v -2.3 1.5 0.2
v -2.3 1.8 0.2
v -2.3 2.1 0.2
v -2.3 2.4 0.2
v -2.3 2.7 0.2
v -2.3 3 0.2
v -2.5 0.2 0.2
v -2.5 0.6 0.2
v -2.5 0.8 0.2
v -2.5 1.2 0.2
v -2.5 1.4 0.2
v -2.5 1.8 0.2
v -2.5 2 0.2
v -2.5 2.4 0.2
v -2.5 2.6 0.2
v -2.5 3 0.2
v -2.5 3.2 0.2
v -2.6 0.2 0.2
v -2.6 0.6 0.2
v -2.6 0.8 0.2
v -2.6 1.2 0.2
v -2.6 1.4 0.2
v -2.6 1.8 0.2
v -2.6 2 0.2
v -2.6 2.4 0.2
v -2.6 2.6 0.2
v -2.6 3 0.2
v -2.6 3.2 0.2
v -2.9 0.3 0.2
v -2.3 0.5 0.2
v -2.9 0.5 0.2
v -2.9 0.9 0.2
v -2.3 1.1 0.2
v -2.9 1.1 0.2
v -2.9 1.5 0.2
v -2.3 1.7 0.2
v -2.9 1.7 0.2
v -2.9 2.1 0.2
v -2.3 2.3 0.2
v -2.9 2.3 0.2
v -2.9 2.7 0.2
v -2.3 2.9 0.2
v -2.9 2.9 0.2
v -3 0.3 0.2
v -3 0.5 0.2
v -3 0.9 0.2
v -3 1.1 0.2
v -3 1.5 0.2
v -3 1.7 0.2
v -3 2.1 0.2
v -3 2.3 0.2
v -3 2.7 0.2
v -3 2.9 0.2
v -3.2 0.2 0.2
v -3.2 0.6 0.2
v -3.2 0.8 0.2
v -3.2 1.2 0.2
v -3.2 1.4 0.2
v -3.2 1.8 0.2
v -3.2 2 0.2
v -3.2 2.4 0.2
v -3.2 2.6 0.2
v -3.2 3 0.2
v -3.2 3.2 0.2
v -3.3 0.2 0.2
v -3.3 0.6 0.2
v -3.3 0.8 0.2
v -3.3 1.2 0.2
v -3.3 1.4 0.2
v -3.3 1.8 0.2
v -3.3 2 0.2
v -3.3 2.4 0.2
v -3.3 2.6 0.2
v -3.3 3 0.2
v -3.3 3.2 0.2
v -3.6 0.3 0.2
v -3.6 0.5 0.2
v -3.6 0.9 0.2
v -3.6 1.1 0.2
v -3.6 1.5 0.2
v -3.6 1.7 0.2
v -3.6 2.1 0.2
v -3.6 2.3 0.2
v -3.6 2.7 0.2
v -3.6 2.9 0.2
v -3.7 0.3 0.2
v -3.7 0.5 0.2
v -3.7 0.9 0.2
v -3.7 1.1 0.2
v -3.7 1.5 0.2
v -3.7 1.7 0.2
v -3.7 2.1 0.2
v -3.7 2.3 0.2
v -3.7 2.7 0.2
v -3.7 2.9 0.2
v -3.9 0.2 0.2
v -3.9 0.6 0.2
v -3.9 0.8 0.2
v -3.9 1.2 0.2
v -3.9 1.4 0.2
v -3.9 1.8 0.2
v -3.9 2 0.2
v -3.9 2.4 0.2
v -3.9 2.6 0.2
v -3.9 3 0.2
v -3.9 3.2 0.2
v -4 0.2 0.2
v -4 0.6 0.2
v -4 0.8 0.2
v -4 1.2 0.2
v -4 1.4 0.2
v -4 1.8 0.2
v -4 2 0.2
v -4 2.4 0.2
v -4 2.6 0.2
v -4 3 0.2
v -4 3.2 0.2

vt 0.0683594 0.5
vt 0.0761719 0.5

vn 0 1 0
vn 0 -1 0
vn -1 0 0
vn 1 0 0
vn 0 0 -1
vn 0 0 1

usemtl palette
f 1/1/1 2/1/1 4/1/1
f 4/1/1 2/1/1 3/1/1
f 2/1/1 5/1/1 7/1/1
f 7/1/1 5/1/1 6/1/1
f 5/1/1 8/1/1 10/1/1
f 10/1/1 8/1/1 9/1/1
f 11/1/2 12/1/2 14/1/2
f 14/1/2 12/1/2 13/1/2
f 15/2/2 13/2/2 17/2/2
f 17/2/2 13/2/2 16/2/2
f 18/1/2 15/1/2 19/1/2
f 19/1/2 15/1/2 17/1/2
f 20/2/2 11/2/2 21/2/2
f 21/2/2 11/2/2 14/2/2
f 22/1/2 20/1/2 23/1/2
f 23/1/2 20/1/2 21/1/2
f 24/2/2 18/2/2 25/2/2
f 25/2/2 18/2/2 19/2/2
f 26/1/2 24/1/2 27/1/2
f 27/1/2 24/1/2 25/1/2
f 28/2/2 22/2/2 29/2/2
f 29/2/2 22/2/2 23/2/2
f 30/1/2 28/1/2 31/1/2
f 31/1/2 28/1/2 29/1/2
f 32/2/2 26/2/2 33/2/2
f 33/2/2 26/2/2 27/2/2
f 34/1/2 32/1/2 35/1/2
f 35/1/2 32/1/2 33/1/2
f 36/2/2 30/2/2 37/2/2
f 37/2/2 30/2/2 31/2/2
f 38/1/2 36/1/2 39/1/2
f 39/1/2 36/1/2 37/1/2
f 40/2/2 34/2/2 41/2/2
f 41/2/2 34/2/2 35/2/2
f 42/1/2 40/1/2 43/1/2
f 43/1/2 40/1/2 41/1/2
f 44/2/2 38/2/2 45/2/2
f 45/2/2 38/2/2 39/2/2
f 46/1/2 44/1/2 47/1/2
f 47/1/2 44/1/2 45/1/2
f 48/2/2 42/2/2 49/2/2
f 49/2/2 42/2/2 43/2/2
f 50/1/2 48/1/2 51/1/2
f 51/1/2 48/1/2 49/1/2
f 52/2/2 46/2/2 53/2/2
f 53/2/2 46/2/2 47/2/2
f 54/1/2 52/1/2 55/1/2
f 55/1/2 52/1/2 53/1/2
f 56/2/2 50/2/2 57/2/2
f 57/2/2 50/2/2 51/2/2
f 58/1/2 56/1/2 59/1/2
f 59/1/2 56/1/2 57/1/2
f 60/2/2 61/2/2 63/2/2
f 63/2/2 61/2/2 62/2/2
f 63/1/2 62/1/2 65/1/2
f 65/1/2 62/1/2 64/1/2
f 66/2/2 67/2/2 69/2/2
f 69/2/2 67/2/2 68/2/2
f 69/1/2 68/1/2 71/1/2
f 71/1/2 68/1/2 70/1/2
f 72/2/2 73/2/2 75/2/2
f 75/2/2 73/2/2 74/2/2
f 75/1/2 74/1/2 77/1/2
f 77/1/2 74/1/2 76/1/2
f 78/2/2 79/2/2 81/2/2
f 81/2/2 79/2/2 80/2/2
f 81/1/2 80/1/2 83/1/2
f 83/1/2 80/1/2 82/1/2
f 84/2/2 85/2/2 87/2/2
f 87/2/2 85/2/2 86/2/2
f 87/1/2 86/1/2 89/1/2
f 89/1/2 86/1/2 88/1/2
f 90/2/2 91/2/2 93/2/2
f 93/2/2 91/2/2 92/2/2
f 93/1/2 92/1/2 95/1/2
f 95/1/2 92/1/2 94/1/2
f 96/2/2 97/2/2 99/2/2
f 99/2/2 97/2/2 98/2/2
f 99/1/2 98/1/2 101/1/2
f 101/1/2 98/1/2 100/1/2
f 102/2/2 103/2/2 105/2/2
f 105/2/2 103/2/2 104/2/2
f 105/1/2 104/1/2 107/1/2
f 107/1/2 104/1/2 106/1/2
f 108/2/2 109/2/2 111/2/2
f 111/2/2 109/2/2 110/2/2
f 111/1/2 110/1/2 113/1/2
f 113/1/2 110/1/2 112/1/2
f 114/1/2 60/1/2 116/1/2
f 116/1/2 60/1/2 115/1/2
f 116/2/2 115/2/2 117/2/2
f 117/2/2 115/2/2 65/2/2
f 117/2/2 64/2/2 118/2/2
f 118/2/2 64/2/2 67/2/2
f 118/1/2 66/1/2 120/1/2
f 120/1/2 66/1/2 119/1/2
f 120/2/2 119/2/2 121/2/2
f 121/2/2 119/2/2 71/2/2
f 121/2/2 70/2/2 122/2/2
f 122/2/2 70/2/2 73/2/2
f 122/1/2 72/1/2 124/1/2
f 124/1/2 72/1/2 123/1/2
f 124/2/2 123/2/2 125/2/2
f 125/2/2 123/2/2 77/2/2
f 125/2/2 76/2/2 126/2/2
f 126/2/2 76/2/2 79/2/2
f 126/1/2 78/1/2 128/1/2
f 128/1/2 78/1/2 127/1/2
f 128/2/2 127/2/2 129/2/2
f 129/2/2 127/2/2 83/2/2
f 129/2/2 82/2/2 130/2/2
f 130/2/2 82/2/2 85/2/2
f 130/1/2 84/1/2 132/1/2
f 132/1/2 84/1/2 131/1/2
f 132/2/2 131/2/2 133/2/2
f 133/2/2 131/2/2 89/2/2
f 133/2/2 88/2/2 134/2/2
f 134/2/2 88/2/2 91/2/2
f 134/1/2 90/1/2 136/1/2
f 136/1/2 90/1/2 135/1/2
f 136/2/2 135/2/2 137/2/2
f 137/2/2 135/2/2 95/2/2
f 137/2/2 54/2/2 138/2/2
f 138/2/2 54/2/2 55/2/2
f 138/2/2 58/2/2 139/2/2
f 139/2/2 58/2/2 97/2/2
f 139/1/2 96/1/2 141/1/2
f 141/1/2 96/1/2 140/1/2
f 141/2/2 140/2/2 142/2/2
f 142/2/2 140/2/2 101/2/2
f 142/2/2 100/2/2 143/2/2
f 143/2/2 100/2/2 103/2/2
f 143/1/2 102/1/2 145/1/2
f 145/1/2 102/1/2 144/1/2
f 145/2/2 144/2/2 146/2/2
f 146/2/2 144/2/2 107/2/2
f 146/2/2 106/2/2 147/2/2
f 147/2/2 106/2/2 109/2/2
f 147/1/2 108/1/2 149/1/2
f 149/1/2 108/1/2 148/1/2
f 149/2/2 148/2/2 150/2/2
f 150/2/2 148/2/2 113/2/2
f 150/2/2 112/2/2 152/2/2
f 152/2/2 112/2/2 151/2/2
f 153/2/3 154/2/3 16/2/3
f 16/2/3 154/2/3 17/2/3
f 155/2/3 156/2/3 19/2/3
f 19/2/3 156/2/3 25/2/3
f 157/2/3 158/2/3 27/2/3
f 27/2/3 158/2/3 33/2/3
f 159/2/3 160/2/3 35/2/3
f 35/2/3 160/2/3 41/2/3
f 161/2/3 162/2/3 43/2/3
f 43/2/3 162/2/3 49/2/3
f 163/2/3 164/2/3 51/2/3
f 51/2/3 164/2/3 57/2/3
f 165/1/3 166/1/3 167/1/3
f 167/1/3 166/1/3 154/1/3
f 166/1/3 168/1/3 17/1/3
f 17/1/3 168/1/3 19/1/3
f 168/1/3 169/1/3 155/1/3
f 155/1/3 169/1/3 156/1/3
f 169/1/3 170/1/3 25/1/3
f 25/1/3 170/1/3 27/1/3
f 170/1/3 171/1/3 157/1/3
f 157/1/3 171/1/3 158/1/3
f 171/1/3 172/1/3 33/1/3
f 33/1/3 172/1/3 35/1/3
f 172/1/3 173/1/3 159/1/3
f 159/1/3 173/1/3 160/1/3
f 173/1/3 174/1/3 41/1/3
f 41/1/3 174/1/3 43/1/3
f 174/1/3 175/1/3 161/1/3
f 161/1/3 175/1/3 162/1/3
f 175/1/3 176/1/3 49/1/3
f 49/1/3 176/1/3 51/1/3
f 176/1/3 177/1/3 163/1/3
f 163/1/3 177/1/3 164/1/3
f 177/1/3 178/1/3 57/1/3
f 57/1/3 178/1/3 59/1/3
f 179/2/3 180/2/3 165/2/3
f 165/2/3 180/2/3 181/2/3
f 182/2/3 183/2/3 185/2/3
f 185/2/3 183/2/3 184/2/3
f 186/2/3 187/2/3 189/2/3
f 189/2/3 187/2/3 188/2/3
f 190/2/3 191/2/3 193/2/3
f 193/2/3 191/2/3 192/2/3
f 194/2/3 195/2/3 197/2/3
f 197/2/3 195/2/3 196/2/3
f 198/2/3 199/2/3 200/2/3
f 200/2/3 199/2/3 178/2/3
f 201/1/3 202/1/3 153/1/3
f 153/1/3 202/1/3 167/1/3
f 202/1/3 203/1/3 179/1/3
f 179/1/3 203/1/3 180/1/3
f 203/1/3 204/1/3 181/1/3
f 181/1/3 204/1/3 185/1/3
f 204/1/3 205/1/3 182/1/3
f 182/1/3 205/1/3 183/1/3
f 205/1/3 206/1/3 184/1/3
f 184/1/3 206/1/3 189/1/3
f 206/1/3 207/1/3 186/1/3
f 186/1/3 207/1/3 187/1/3
f 207/1/3 208/1/3 188/1/3
f 188/1/3 208/1/3 193/1/3
f 208/1/3 209/1/3 190/1/3
f 190/1/3 209/1/3 191/1/3
f 209/1/3 210/1/3 192/1/3
f 192/1/3 210/1/3 197/1/3
f 210/1/3 211/1/3 194/1/3
f 194/1/3 211/1/3 195/1/3
f 211/1/3 212/1/3 196/1/3
f 196/1/3 212/1/3 200/1/3
f 212/1/3 213/1/3 198/1/3
f 198/1/3 213/1/3 199/1/3
f 214/2/3 215/2/3 201/2/3
f 201/2/3 215/2/3 216/2/3
f 217/2/3 218/2/3 220/2/3
f 220/2/3 218/2/3 219/2/3
f 221/2/3 222/2/3 224/2/3
f 224/2/3 222/2/3 223/2/3
f 225/2/3 226/2/3 228/2/3
f 228/2/3 226/2/3 227/2/3
f 229/2/3 230/2/3 232/2/3
f 232/2/3 230/2/3 231/2/3
f 233/2/3 234/2/3 236/2/3
f 236/2/3 234/2/3 235/2/3
f 237/1/3 238/1/3 239/1/3
f 239/1/3 238/1/3 215/1/3
f 238/1/3 240/1/3 216/1/3
f 216/1/3 240/1/3 220/1/3
f 240/1/3 241/1/3 217/1/3
f 217/1/3 241/1/3 218/1/3
f 241/1/3 242/1/3 219/1/3
f 219/1/3 242/1/3 224/1/3
f 242/1/3 243/1/3 221/1/3
f 221/1/3 243/1/3 222/1/3
f 243/1/3 244/1/3 223/1/3
f 223/1/3 244/1/3 228/1/3
f 244/1/3 245/1/3 225/1/3
f 225/1/3 245/1/3 226/1/3
f 245/1/3 246/1/3 227/1/3
f 227/1/3 246/1/3 232/1/3
f 246/1/3 247/1/3 229/1/3
f 229/1/3 247/1/3 230/1/3
f 247/1/3 248/1/3 231/1/3
f 231/1/3 248/1/3 236/1/3
f 248/1/3 249/1/3 233/1/3
f 233/1/3 249/1/3 234/1/3
f 249/1/3 250/1/3 235/1/3
f 235/1/3 250/1/3 213/1/3
f 251/2/3 252/2/3 237/2/3
f 237/2/3 252/2/3 253/2/3
f 254/2/3 255/2/3 257/2/3
f 257/2/3 255/2/3 256/2/3
f 258/2/3 259/2/3 261/2/3
f 261/2/3 259/2/3 260/2/3
f 262/2/3 263/2/3 265/2/3
f 265/2/3 263/2/3 264/2/3
f 266/2/3 267/2/3 269/2/3
f 269/2/3 267/2/3 268/2/3
f 270/2/3 271/2/3 272/2/3
f 272/2/3 271/2/3 250/2/3
f 273/1/3 274/1/3 214/1/3
f 214/1/3 274/1/3 239/1/3
f 274/1/3 275/1/3 251/1/3
f 251/1/3 275/1/3 252/1/3
f 275/1/3 276/1/3 253/1/3
f 253/1/3 276/1/3 257/1/3
f 276/1/3 277/1/3 254/1/3
f 254/1/3 277/1/3 255/1/3
f 277/1/3 278/1/3 256/1/3
f 256/1/3 278/1/3 261/1/3
f 278/1/3 279/1/3 258/1/3
f 258/1/3 279/1/3 259/1/3
f 279/1/3 280/1/3 260/1/3
f 260/1/3 280/1/3 265/1/3
f 280/1/3 281/1/3 262/1/3
f 262/1/3 281/1/3 263/1/3
f 281/1/3 282/1/3 264/1/3
f 264/1/3 282/1/3 269/1/3
f 282/1/3 283/1/3 266/1/3
f 266/1/3 283/1/3 267/1/3
f 283/1/3 284/1/3 268/1/3
f 268/1/3 284/1/3 272/1/3
f 284/1/3 285/1/3 270/1/3
f 270/1/3 285/1/3 271/1/3
f 286/2/3 287/2/3 273/2/3
f 273/2/3 287/2/3 288/2/3
f 289/2/3 290/2/3 292/2/3
f 292/2/3 290/2/3 291/2/3
f 293/2/3 294/2/3 296/2/3
f 296/2/3 294/2/3 295/2/3
f 297/2/3 298/2/3 300/2/3
f 300/2/3 298/2/3 299/2/3
f 301/2/3 302/2/3 304/2/3
f 304/2/3 302/2/3 303/2/3
f 305/2/3 306/2/3 308/2/3
f 308/2/3 306/2/3 307/2/3
f 309/1/3 310/1/3 311/1/3
f 311/1/3 310/1/3 287/1/3
f 310/1/3 312/1/3 288/1/3
f 288/1/3 312/1/3 292/1/3
f 312/1/3 313/1/3 289/1/3
f 289/1/3 313/1/3 290/1/3
f 313/1/3 314/1/3 291/1/3
f 291/1/3 314/1/3 296/1/3
f 314/1/3 315/1/3 293/1/3
f 293/1/3 315/1/3 294/1/3
f 315/1/3 316/1/3 295/1/3
f 295/1/3 316/1/3 300/1/3
f 316/1/3 317/1/3 297/1/3
f 297/1/3 317/1/3 298/1/3
f 317/1/3 318/1/3 299/1/3
f 299/1/3 318/1/3 304/1/3
f 318/1/3 319/1/3 301/1/3
f 301/1/3 319/1/3 302/1/3
f 319/1/3 320/1/3 303/1/3
f 303/1/3 320/1/3 308/1/3
f 320/1/3 321/1/3 305/1/3
f 305/1/3 321/1/3 306/1/3
f 321/1/3 322/1/3 307/1/3
f 307/1/3 322/1/3 285/1/3
f 323/2/3 324/2/3 309/2/3
f 309/2/3 324/2/3 325/2/3
f 326/2/3 327/2/3 329/2/3
f 329/2/3 327/2/3 328/2/3
f 330/2/3 331/2/3 333/2/3
f 333/2/3 331/2/3 332/2/3
f 334/2/3 335/2/3 337/2/3
f 337/2/3 335/2/3 336/2/3
f 338/2/3 339/2/3 341/2/3
f 341/2/3 339/2/3 340/2/3
f 342/2/3 343/2/3 344/2/3
f 344/2/3 343/2/3 322/2/3
f 345/1/3 346/1/3 286/1/3
f 286/1/3 346/1/3 311/1/3
f 346/1/3 347/1/3 323/1/3
f 323/1/3 347/1/3 324/1/3
f 347/1/3 348/1/3 325/1/3
f 325/1/3 348/1/3 329/1/3
f 348/1/3 349/1/3 326/1/3
f 326/1/3 349/1/3 327/1/3
f 349/1/3 350/1/3 328/1/3
f 328/1/3 350/1/3 333/1/3
f 350/1/3 351/1/3 330/1/3
f 330/1/3 351/1/3 331/1/3
f 351/1/3 352/1/3 332/1/3
f 332/1/3 352/1/3 337/1/3
f 352/1/3 353/1/3 334/1/3
f 334/1/3 353/1/3 335/1/3
f 353/1/3 354/1/3 336/1/3
f 336/1/3 354/1/3 341/1/3
f 354/1/3 355/1/3 338/1/3
f 338/1/3 355/1/3 339/1/3
f 355/1/3 356/1/3 340/1/3
f 340/1/3 356/1/3 344/1/3
f 356/1/3 357/1/3 342/1/3
f 342/1/3 357/1/3 343/1/3
f 358/2/3 359/2/3 345/2/3
f 345/2/3 359/2/3 360/2/3
f 361/2/3 362/2/3 364/2/3
f 364/2/3 362/2/3 363/2/3
f 365/2/3 366/2/3 368/2/3
f 368/2/3 366/2/3 367/2/3
f 369/2/3 370/2/3 372/2/3
f 372/2/3 370/2/3 371/2/3
f 373/2/3 374/2/3 376/2/3
f 376/2/3 374/2/3 375/2/3
f 377/2/3 378/2/3 380/2/3
f 380/2/3 378/2/3 379/2/3
f 381/1/3 382/1/3 383/1/3
f 383/1/3 382/1/3 359/1/3
f 382/1/3 384/1/3 360/1/3
f 360/1/3 384/1/3 364/1/3
f 384/1/3 385/1/3 361/1/3
f 361/1/3 385/1/3 362/1/3
f 385/1/3 386/1/3 363/1/3
f 363/1/3 386/1/3 368/1/3
f 386/1/3 387/1/3 365/1/3
f 365/1/3 387/1/3 366/1/3
f 387/1/3 388/1/3 367/1/3
f 367/1/3 388/1/3 372/1/3
f 388/1/3 389/1/3 369/1/3
f 369/1/3 389/1/3 370/1/3
f 389/1/3 390/1/3 371/1/3
f 371/1/3 390/1/3 376/1/3
f 390/1/3 391/1/3 373/1/3
f 373/1/3 391/1/3 374/1/3
f 391/1/3 392/1/3 375/1/3
f 375/1/3 392/1/3 380/1/3
f 392/1/3 393/1/3 377/1/3
f 377/1/3 393/1/3 378/1/3
f 393/1/3 394/1/3 379/1/3
f 379/1/3 394/1/3 357/1/3
f 395/2/3 396/2/3 381/2/3
f 381/2/3 396/2/3 397/2/3
f 398/2/3 399/2/3 401/2/3
f 401/2/3 399/2/3 400/2/3
f 402/2/3 403/2/3 405/2/3
f 405/2/3 403/2/3 404/2/3
f 406/2/3 407/2/3 409/2/3
f 409/2/3 407/2/3 408/2/3
f 410/2/3 411/2/3 413/2/3
f 413/2/3 411/2/3 412/2/3
f 414/2/3 415/2/3 416/2/3
f 416/2/3 415/2/3 394/2/3
f 417/1/3 418/1/3 358/1/3
f 358/1/3 418/1/3 383/1/3
f 418/1/3 419/1/3 395/1/3
f 395/1/3 419/1/3 396/1/3
f 419/1/3 420/1/3 397/1/3
f 397/1/3 420/1/3 401/1/3
f 420/1/3 421/1/3 398/1/3
f 398/1/3 421/1/3 399/1/3
f 421/1/3 422/1/3 400/1/3
f 400/1/3 422/1/3 405/1/3
f 422/1/3 423/1/3 402/1/3
f 402/1/3 423/1/3 403/1/3
f 423/1/3 424/1/3 404/1/3
f 404/1/3 424/1/3 409/1/3
f 424/1/3 425/1/3 406/1/3
f 406/1/3 425/1/3 407/1/3
f 425/1/3 426/1/3 408/1/3
f 408/1/3 426/1/3 413/1/3
f 426/1/3 427/1/3 410/1/3
f 410/1/3 427/1/3 411/1/3
f 427/1/3 428/1/3 412/1/3
f 412/1/3 428/1/3 416/1/3
f 428/1/3 429/1/3 414/1/3
f 414/1/3 429/1/3 415/1/3
f 430/2/3 431/2/3 417/2/3
f 417/2/3 431/2/3 432/2/3
f 433/2/3 434/2/3 436/2/3
f 436/2/3 434/2/3 435/2/3
f 437/2/3 438/2/3 440/2/3
f 440/2/3 438/2/3 439/2/3
f 441/2/3 442/2/3 444/2/3
f 444/2/3 442/2/3 443/2/3
f 445/2/3 446/2/3 448/2/3
f 448/2/3 446/2/3 447/2/3
f 449/2/3 450/2/3 452/2/3
f 452/2/3 450/2/3 451/2/3
f 453/1/3 454/1/3 455/1/3
f 455/1/3 454/1/3 431/1/3
f 454/1/3 456/1/3 432/1/3
f 432/1/3 456/1/3 436/1/3
f 456/1/3 457/1/3 433/1/3
f 433/1/3 457/1/3 434/1/3
f 457/1/3 458/1/3 435/1/3
f 435/1/3 458/1/3 440/1/3
f 458/1/3 459/1/3 437/1/3
f 437/1/3 459/1/3 438/1/3
f 459/1/3 460/1/3 439/1/3
f 439/1/3 460/1/3 444/1/3
f 460/1/3 461/1/3 441/1/3
f 441/1/3 461/1/3 442/1/3
f 461/1/3 462/1/3 443/1/3
f 443/1/3 462/1/3 448/1/3
f 462/1/3 463/1/3 445/1/3
f 445/1/3 463/1/3 446/1/3
f 463/1/3 464/1/3 447/1/3
f 447/1/3 464/1/3 452/1/3
f 464/1/3 465/1/3 449/1/3
f 449/1/3 465/1/3 450/1/3
f 465/1/3 466/1/3 451/1/3
f 451/1/3 466/1/3 429/1/3
f 467/2/3 468/2/3 453/2/3
f 453/2/3 468/2/3 469/2/3
f 470/2/3 471/2/3 473/2/3
f 473/2/3 471/2/3 472/2/3
f 474/2/3 475/2/3 477/2/3
f 477/2/3 475/2/3 476/2/3
f 478/2/3 479/2/3 481/2/3
f 481/2/3 479/2/3 480/2/3
f 482/2/3 483/2/3 485/2/3
f 485/2/3 483/2/3 484/2/3
f 486/2/3 487/2/3 488/2/3
f 488/2/3 487/2/3 466/2/3
f 489/1/3 490/1/3 430/1/3
f 430/1/3 490/1/3 455/1/3
f 490/1/3 491/1/3 467/1/3
f 467/1/3 491/1/3 468/1/3
f 491/1/3 492/1/3 469/1/3
f 469/1/3 492/1/3 473/1/3
f 492/1/3 493/1/3 470/1/3
f 470/1/3 493/1/3 471/1/3
f 493/1/3 494/1/3 472/1/3
f 472/1/3 494/1/3 477/1/3
f 494/1/3 495/1/3 474/1/3
f 474/1/3 495/1/3 475/1/3
f 495/1/3 496/1/3 476/1/3
f 476/1/3 496/1/3 481/1/3
f 496/1/3 497/1/3 478/1/3
f 478/1/3 497/1/3 479/1/3
f 497/1/3 498/1/3 480/1/3
f 480/1/3 498/1/3 485/1/3
f 498/1/3 499/1/3 482/1/3
f 482/1/3 499/1/3 483/1/3
f 499/1/3 500/1/3 484/1/3
f 484/1/3 500/1/3 488/1/3
f 500/1/3 501/1/3 486/1/3
f 486/1/3 501/1/3 487/1/3
f 502/2/3 503/2/3 489/2/3
f 489/2/3 503/2/3 504/2/3
f 505/2/3 506/2/3 508/2/3
f 508/2/3 506/2/3 507/2/3
f 509/2/3 510/2/3 512/2/3
f 512/2/3 510/2/3 511/2/3
f 513/2/3 514/2/3 516/2/3
f 516/2/3 514/2/3 515/2/3
f 517/2/3 518/2/3 520/2/3
f 520/2/3 518/2/3 519/2/3
f 521/2/3 522/2/3 524/2/3
f 524/2/3 522/2/3 523/2/3
f 6/1/3 525/1/3 502/1/3
f 502/1/3 525/1/3 503/1/3
f 525/1/3 526/1/3 504/1/3
f 504/1/3 526/1/3 508/1/3
f 526/1/3 527/1/3 505/1/3
f 505/1/3 527/1/3 506/1/3
f 527/1/3 528/1/3 507/1/3
f 507/1/3 528/1/3 512/1/3
f 528/1/3 529/1/3 509/1/3
f 509/1/3 529/1/3 510/1/3
f 529/1/3 530/1/3 511/1/3
f 511/1/3 530/1/3 516/1/3
f 530/1/3 531/1/3 513/1/3
f 513/1/3 531/1/3 514/1/3
f 531/1/3 532/1/3 515/1/3
f 515/1/3 532/1/3 520/1/3
f 532/1/3 533/1/3 517/1/3
f 517/1/3 533/1/3 518/1/3
f 533/1/3 534/1/3 519/1/3
f 519/1/3 534/1/3 524/1/3
f 534/1/3 535/1/3 521/1/3
f 521/1/3 535/1/3 522/1/3
f 535/1/3 10/1/3 523/1/3
f 523/1/3 10/1/3 501/1/3
f 536/2/4 11/2/4 537/2/4
f 537/2/4 11/2/4 20/2/4
f 538/2/4 22/2/4 539/2/4
f 539/2/4 22/2/4 28/2/4
f 540/2/4 30/2/4 541/2/4
f 541/2/4 30/2/4 36/2/4
f 542/2/4 38/2/4 543/2/4
f 543/2/4 38/2/4 44/2/4
f 544/2/4 46/2/4 545/2/4
f 545/2/4 46/2/4 52/2/4
f 546/2/4 54/2/4 547/2/4
f 547/2/4 54/2/4 94/2/4
f 548/2/4 61/2/4 549/2/4
f 549/2/4 61/2/4 60/2/4
f 550/1/4 12/1/4 551/1/4
f 551/1/4 12/1/4 11/1/4
f 551/1/4 536/1/4 552/1/4
f 552/1/4 536/1/4 537/1/4
f 552/1/4 20/1/4 553/1/4
f 553/1/4 20/1/4 22/1/4
f 553/1/4 538/1/4 554/1/4
f 554/1/4 538/1/4 539/1/4
f 554/1/4 28/1/4 555/1/4
f 555/1/4 28/1/4 30/1/4
f 555/1/4 540/1/4 556/1/4
f 556/1/4 540/1/4 541/1/4
f 556/1/4 36/1/4 557/1/4
f 557/1/4 36/1/4 38/1/4
f 557/1/4 542/1/4 558/1/4
f 558/1/4 542/1/4 543/1/4
f 558/1/4 44/1/4 559/1/4
f 559/1/4 44/1/4 46/1/4
f 559/1/4 544/1/4 560/1/4
f 560/1/4 544/1/4 545/1/4
f 560/1/4 52/1/4 561/1/4
f 561/1/4 52/1/4 54/1/4
f 561/1/4 546/1/4 562/1/4
f 562/1/4 546/1/4 547/1/4
f 563/1/4 60/1/4 564/1/4
f 564/1/4 60/1/4 114/1/4
f 565/2/4 550/2/4 567/2/4
f 567/2/4 550/2/4 566/2/4
f 568/2/4 569/2/4 571/2/4
f 571/2/4 569/2/4 570/2/4
f 572/2/4 573/2/4 575/2/4
f 575/2/4 573/2/4 574/2/4
f 576/2/4 577/2/4 579/2/4
f 579/2/4 577/2/4 578/2/4
f 580/2/4 581/2/4 583/2/4
f 583/2/4 581/2/4 582/2/4
f 584/2/4 585/2/4 587/2/4
f 587/2/4 585/2/4 586/2/4
f 588/2/4 563/2/4 589/2/4
f 589/2/4 563/2/4 564/2/4
f 590/1/4 591/1/4 592/1/4
f 592/1/4 591/1/4 567/1/4
f 592/1/4 566/1/4 593/1/4
f 593/1/4 566/1/4 569/1/4
f 593/1/4 568/1/4 594/1/4
f 594/1/4 568/1/4 571/1/4
f 594/1/4 570/1/4 595/1/4
f 595/1/4 570/1/4 573/1/4
f 595/1/4 572/1/4 596/1/4
f 596/1/4 572/1/4 575/1/4
f 596/1/4 574/1/4 597/1/4
f 597/1/4 574/1/4 577/1/4
f 597/1/4 576/1/4 598/1/4
f 598/1/4 576/1/4 579/1/4
f 598/1/4 578/1/4 599/1/4
f 599/1/4 578/1/4 581/1/4
f 599/1/4 580/1/4 600/1/4
f 600/1/4 580/1/4 583/1/4
f 600/1/4 582/1/4 601/1/4
f 601/1/4 582/1/4 585/1/4
f 601/1/4 584/1/4 602/1/4
f 602/1/4 584/1/4 587/1/4
f 602/1/4 586/1/4 603/1/4
f 603/1/4 586/1/4 562/1/4
f 604/1/4 548/1/4 605/1/4
f 605/1/4 548/1/4 549/1/4
f 606/2/4 590/2/4 608/2/4
f 608/2/4 590/2/4 607/2/4
f 609/2/4 610/2/4 612/2/4
f 612/2/4 610/2/4 611/2/4
f 613/2/4 614/2/4 616/2/4
f 616/2/4 614/2/4 615/2/4
f 617/2/4 618/2/4 620/2/4
f 620/2/4 618/2/4 619/2/4
f 621/2/4 622/2/4 624/2/4
f 624/2/4 622/2/4 623/2/4
f 625/2/4 626/2/4 627/2/4
f 627/2/4 626/2/4 603/2/4
f 628/2/4 604/2/4 629/2/4
f 629/2/4 604/2/4 605/2/4
f 630/1/4 565/1/4 631/1/4
f 631/1/4 565/1/4 591/1/4
f 631/1/4 606/1/4 632/1/4
f 632/1/4 606/1/4 608/1/4
f 632/1/4 607/1/4 633/1/4
f 633/1/4 607/1/4 610/1/4
f 633/1/4 609/1/4 634/1/4
f 634/1/4 609/1/4 612/1/4
f 634/1/4 611/1/4 635/1/4
f 635/1/4 611/1/4 614/1/4
f 635/1/4 613/1/4 636/1/4
f 636/1/4 613/1/4 616/1/4
f 636/1/4 615/1/4 637/1/4
f 637/1/4 615/1/4 618/1/4
f 637/1/4 617/1/4 638/1/4
f 638/1/4 617/1/4 620/1/4
f 638/1/4 619/1/4 639/1/4
f 639/1/4 619/1/4 622/1/4
f 639/1/4 621/1/4 640/1/4
f 640/1/4 621/1/4 624/1/4
f 640/1/4 623/1/4 641/1/4
f 641/1/4 623/1/4 626/1/4
f 641/1/4 625/1/4 642/1/4
f 642/1/4 625/1/4 627/1/4
f 643/1/4 588/1/4 644/1/4
f 644/1/4 588/1/4 589/1/4
f 645/2/4 630/2/4 647/2/4
f 647/2/4 630/2/4 646/2/4
f 648/2/4 649/2/4 651/2/4
f 651/2/4 649/2/4 650/2/4
f 652/2/4 653/2/4 655/2/4
f 655/2/4 653/2/4 654/2/4
f 656/2/4 657/2/4 659/2/4
f 659/2/4 657/2/4 658/2/4
f 660/2/4 661/2/4 663/2/4
f 663/2/4 661/2/4 662/2/4
f 664/2/4 665/2/4 667/2/4
f 667/2/4 665/2/4 666/2/4
f 668/2/4 643/2/4 669/2/4
f 669/2/4 643/2/4 644/2/4
f 670/1/4 671/1/4 672/1/4
f 672/1/4 671/1/4 647/1/4
f 672/1/4 646/1/4 673/1/4
f 673/1/4 646/1/4 649/1/4
f 673/1/4 648/1/4 674/1/4
f 674/1/4 648/1/4 651/1/4
f 674/1/4 650/1/4 675/1/4
f 675/1/4 650/1/4 653/1/4
f 675/1/4 652/1/4 676/1/4
f 676/1/4 652/1/4 655/1/4
f 676/1/4 654/1/4 677/1/4
f 677/1/4 654/1/4 657/1/4
f 677/1/4 656/1/4 678/1/4
f 678/1/4 656/1/4 659/1/4
f 678/1/4 658/1/4 679/1/4
f 679/1/4 658/1/4 661/1/4
f 679/1/4 660/1/4 680/1/4
f 680/1/4 660/1/4 663/1/4
f 680/1/4 662/1/4 681/1/4
f 681/1/4 662/1/4 665/1/4
f 681/1/4 664/1/4 682/1/4
f 682/1/4 664/1/4 667/1/4
f 682/1/4 666/1/4 683/1/4
f 683/1/4 666/1/4 642/1/4
f 684/1/4 628/1/4 685/1/4
f 685/1/4 628/1/4 629/1/4
f 686/2/4 670/2/4 688/2/4
f 688/2/4 670/2/4 687/2/4
f 689/2/4 690/2/4 692/2/4
f 692/2/4 690/2/4 691/2/4
f 693/2/4 694/2/4 696/2/4
f 696/2/4 694/2/4 695/2/4
f 697/2/4 698/2/4 700/2/4
f 700/2/4 698/2/4 699/2/4
f 701/2/4 702/2/4 704/2/4
f 704/2/4 702/2/4 703/2/4
f 705/2/4 706/2/4 707/2/4
f 707/2/4 706/2/4 683/2/4
f 708/2/4 684/2/4 709/2/4
f 709/2/4 684/2/4 685/2/4
f 710/1/4 645/1/4 711/1/4
f 711/1/4 645/1/4 671/1/4
f 711/1/4 686/1/4 712/1/4
f 712/1/4 686/1/4 688/1/4
f 712/1/4 687/1/4 713/1/4
f 713/1/4 687/1/4 690/1/4
f 713/1/4 689/1/4 714/1/4
f 714/1/4 689/1/4 692/1/4
f 714/1/4 691/1/4 715/1/4
f 715/1/4 691/1/4 694/1/4
f 715/1/4 693/1/4 716/1/4
f 716/1/4 693/1/4 696/1/4
f 716/1/4 695/1/4 717/1/4
f 717/1/4 695/1/4 698/1/4
f 717/1/4 697/1/4 718/1/4
f 718/1/4 697/1/4 700/1/4
f 718/1/4 699/1/4 719/1/4
f 719/1/4 699/1/4 702/1/4
f 719/1/4 701/1/4 720/1/4
f 720/1/4 701/1/4 704/1/4
f 720/1/4 703/1/4 721/1/4
f 721/1/4 703/1/4 706/1/4
f 721/1/4 705/1/4 722/1/4
f 722/1/4 705/1/4 707/1/4
f 723/1/4 668/1/4 724/1/4
f 724/1/4 668/1/4 669/1/4
f 725/2/4 710/2/4 727/2/4
f 727/2/4 710/2/4 726/2/4
f 728/2/4 729/2/4 731/2/4
f 731/2/4 729/2/4 730/2/4
f 732/2/4 733/2/4 735/2/4
f 735/2/4 733/2/4 734/2/4
f 736/2/4 737/2/4 739/2/4
f 739/2/4 737/2/4 738/2/4
f 740/2/4 741/2/4 743/2/4
f 743/2/4 741/2/4 742/2/4
f 744/2/4 745/2/4 747/2/4
f 747/2/4 745/2/4 746/2/4
f 748/2/4 723/2/4 749/2/4
f 749/2/4 723/2/4 724/2/4
f 750/1/4 751/1/4 752/1/4
f 752/1/4 751/1/4 727/1/4
f 752/1/4 726/1/4 753/1/4
f 753/1/4 726/1/4 729/1/4
f 753/1/4 728/1/4 754/1/4
f 754/1/4 728/1/4 731/1/4
f 754/1/4 730/1/4 755/1/4
f 755/1/4 730/1/4 733/1/4
f 755/1/4 732/1/4 756/1/4
f 756/1/4 732/1/4 735/1/4
f 756/1/4 734/1/4 757/1/4
f 757/1/4 734/1/4 737/1/4
f 757/1/4 736/1/4 758/1/4
f 758/1/4 736/1/4 739/1/4
f 758/1/4 738/1/4 759/1/4
f 759/1/4 738/1/4 741/1/4
f 759/1/4 740/1/4 760/1/4
f 760/1/4 740/1/4 743/1/4
f 760/1/4 742/1/4 761/1/4
f 761/1/4 742/1/4 745/1/4
f 761/1/4 744/1/4 762/1/4
f 762/1/4 744/1/4 747/1/4
f 762/1/4 746/1/4 763/1/4
f 763/1/4 746/1/4 722/1/4
f 764/1/4 708/1/4 765/1/4
f 765/1/4 708/1/4 709/1/4
f 766/2/4 750/2/4 768/2/4
f 768/2/4 750/2/4 767/2/4
f 769/2/4 770/2/4 772/2/4
f 772/2/4 770/2/4 771/2/4
f 773/2/4 774/2/4 776/2/4
f 776/2/4 774/2/4 775/2/4
f 777/2/4 778/2/4 780/2/4
f 780/2/4 778/2/4 779/2/4
f 781/2/4 782/2/4 784/2/4
f 784/2/4 782/2/4 783/2/4
f 785/2/4 786/2/4 787/2/4
f 787/2/4 786/2/4 763/2/4
f 788/2/4 764/2/4 789/2/4
f 789/2/4 764/2/4 765/2/4
f 790/1/4 725/1/4 791/1/4
f 791/1/4 725/1/4 751/1/4
f 791/1/4 766/1/4 792/1/4
f 792/1/4 766/1/4 768/1/4
f 792/1/4 767/1/4 793/1/4
f 793/1/4 767/1/4 770/1/4
f 793/1/4 769/1/4 794/1/4
f 794/1/4 769/1/4 772/1/4
f 794/1/4 771/1/4 795/1/4
f 795/1/4 771/1/4 774/1/4
f 795/1/4 773/1/4 796/1/4
f 796/1/4 773/1/4 776/1/4
f 796/1/4 775/1/4 797/1/4
f 797/1/4 775/1/4 778/1/4
f 797/1/4 777/1/4 798/1/4
f 798/1/4 777/1/4 780/1/4
f 798/1/4 779/1/4 799/1/4
f 799/1/4 779/1/4 782/1/4
f 799/1/4 781/1/4 800/1/4
f 800/1/4 781/1/4 784/1/4
f 800/1/4 783/1/4 801/1/4
f 801/1/4 783/1/4 786/1/4
f 801/1/4 785/1/4 802/1/4
f 802/1/4 785/1/4 787/1/4
f 803/1/4 748/1/4 804/1/4
f 804/1/4 748/1/4 749/1/4
f 805/2/4 790/2/4 807/2/4
f 807/2/4 790/2/4 806/2/4
f 808/2/4 809/2/4 811/2/4
f 811/2/4 809/2/4 810/2/4
f 812/2/4 813/2/4 815/2/4
f 815/2/4 813/2/4 814/2/4
f 816/2/4 817/2/4 819/2/4
f 819/2/4 817/2/4 818/2/4
f 820/2/4 821/2/4 823/2/4
f 823/2/4 821/2/4 822/2/4
f 824/2/4 825/2/4 827/2/4
f 827/2/4 825/2/4 826/2/4
f 828/2/4 803/2/4 829/2/4
f 829/2/4 803/2/4 804/2/4
f 830/1/4 831/1/4 832/1/4
f 832/1/4 831/1/4 807/1/4
f 832/1/4 806/1/4 833/1/4
f 833/1/4 806/1/4 809/1/4
f 833/1/4 808/1/4 834/1/4
f 834/1/4 808/1/4 811/1/4
f 834/1/4 810/1/4 835/1/4
f 835/1/4 810/1/4 813/1/4
f 835/1/4 812/1/4 836/1/4
f 836/1/4 812/1/4 815/1/4
f 836/1/4 814/1/4 837/1/4
f 837/1/4 814/1/4 817/1/4
f 837/1/4 816/1/4 838/1/4
f 838/1/4 816/1/4 819/1/4
f 838/1/4 818/1/4 839/1/4
f 839/1/4 818/1/4 821/1/4
f 839/1/4 820/1/4 840/1/4
f 840/1/4 820/1/4 823/1/4
f 840/1/4 822/1/4 841/1/4
f 841/1/4 822/1/4 825/1/4
f 841/1/4 824/1/4 842/1/4
f 842/1/4 824/1/4 827/1/4
f 842/1/4 826/1/4 843/1/4
f 843/1/4 826/1/4 802/1/4
f 844/1/4 788/1/4 845/1/4
f 845/1/4 788/1/4 789/1/4
f 846/2/4 830/2/4 848/2/4
f 848/2/4 830/2/4 847/2/4
f 849/2/4 850/2/4 852/2/4
f 852/2/4 850/2/4 851/2/4
f 853/2/4 854/2/4 856/2/4
f 856/2/4 854/2/4 855/2/4
f 857/2/4 858/2/4 860/2/4
f 860/2/4 858/2/4 859/2/4
f 861/2/4 862/2/4 864/2/4
f 864/2/4 862/2/4 863/2/4
f 865/2/4 866/2/4 867/2/4
f 867/2/4 866/2/4 843/2/4
f 868/2/4 844/2/4 869/2/4
f 869/2/4 844/2/4 845/2/4
f 870/1/4 805/1/4 871/1/4
f 871/1/4 805/1/4 831/1/4
f 871/1/4 846/1/4 872/1/4
f 872/1/4 846/1/4 848/1/4
f 872/1/4 847/1/4 873/1/4
f 873/1/4 847/1/4 850/1/4
f 873/1/4 849/1/4 874/1/4
f 874/1/4 849/1/4 852/1/4
f 874/1/4 851/1/4 875/1/4
f 875/1/4 851/1/4 854/1/4
f 875/1/4 853/1/4 876/1/4
f 876/1/4 853/1/4 856/1/4
f 876/1/4 855/1/4 877/1/4
f 877/1/4 855/1/4 858/1/4
f 877/1/4 857/1/4 878/1/4
f 878/1/4 857/1/4 860/1/4
f 878/1/4 859/1/4 879/1/4
f 879/1/4 859/1/4 862/1/4
f 879/1/4 861/1/4 880/1/4
f 880/1/4 861/1/4 864/1/4
f 880/1/4 863/1/4 881/1/4
f 881/1/4 863/1/4 866/1/4
f 881/1/4 865/1/4 882/1/4
f 882/1/4 865/1/4 867/1/4
f 883/1/4 828/1/4 884/1/4
f 884/1/4 828/1/4 829/1/4
f 885/2/4 870/2/4 887/2/4
f 887/2/4 870/2/4 886/2/4
f 888/2/4 889/2/4 891/2/4
f 891/2/4 889/2/4 890/2/4
f 892/2/4 893/2/4 895/2/4
f 895/2/4 893/2/4 894/2/4
f 896/2/4 897/2/4 899/2/4
f 899/2/4 897/2/4 898/2/4
f 900/2/4 901/2/4 903/2/4
f 903/2/4 901/2/4 902/2/4
f 904/2/4 905/2/4 907/2/4
f 907/2/4 905/2/4 906/2/4
f 908/2/4 883/2/4 909/2/4
f 909/2/4 883/2/4 884/2/4
f 910/1/4 911/1/4 912/1/4
f 912/1/4 911/1/4 887/1/4
f 912/1/4 886/1/4 913/1/4
f 913/1/4 886/1/4 889/1/4
f 913/1/4 888/1/4 914/1/4
f 914/1/4 888/1/4 891/1/4
f 914/1/4 890/1/4 915/1/4
f 915/1/4 890/1/4 893/1/4
f 915/1/4 892/1/4 916/1/4
f 916/1/4 892/1/4 895/1/4
f 916/1/4 894/1/4 917/1/4
f 917/1/4 894/1/4 897/1/4
f 917/1/4 896/1/4 918/1/4
f 918/1/4 896/1/4 899/1/4
f 918/1/4 898/1/4 919/1/4
f 919/1/4 898/1/4 901/1/4
f 919/1/4 900/1/4 920/1/4
f 920/1/4 900/1/4 903/1/4
f 920/1/4 902/1/4 921/1/4
f 921/1/4 902/1/4 905/1/4
f 921/1/4 904/1/4 922/1/4
f 922/1/4 904/1/4 907/1/4
f 922/1/4 906/1/4 923/1/4
f 923/1/4 906/1/4 882/1/4
f 924/1/4 868/1/4 925/1/4
f 925/1/4 868/1/4 869/1/4
f 926/2/4 910/2/4 928/2/4
f 928/2/4 910/2/4 927/2/4
f 929/2/4 930/2/4 932/2/4
f 932/2/4 930/2/4 931/2/4
f 933/2/4 934/2/4 936/2/4
f 936/2/4 934/2/4 935/2/4
f 937/2/4 938/2/4 940/2/4
f 940/2/4 938/2/4 939/2/4
f 941/2/4 942/2/4 944/2/4
f 944/2/4 942/2/4 943/2/4
f 945/2/4 946/2/4 947/2/4
f 947/2/4 946/2/4 923/2/4
f 948/2/4 924/2/4 949/2/4
f 949/2/4 924/2/4 925/2/4
f 7/1/4 885/1/4 950/1/4
f 950/1/4 885/1/4 911/1/4
f 950/1/4 926/1/4 951/1/4
f 951/1/4 926/1/4 928/1/4
f 951/1/4 927/1/4 952/1/4
f 952/1/4 927/1/4 930/1/4
f 952/1/4 929/1/4 953/1/4
f 953/1/4 929/1/4 932/1/4
f 953/1/4 931/1/4 954/1/4
f 954/1/4 931/1/4 934/1/4
f 954/1/4 933/1/4 955/1/4
f 955/1/4 933/1/4 936/1/4
f 955/1/4 935/1/4 956/1/4
f 956/1/4 935/1/4 938/1/4
f 956/1/4 937/1/4 957/1/4
f 957/1/4 937/1/4 940/1/4
f 957/1/4 939/1/4 958/1/4
f 958/1/4 939/1/4 942/1/4
f 958/1/4 941/1/4 959/1/4
f 959/1/4 941/1/4 944/1/4
f 959/1/4 943/1/4 960/1/4
f 960/1/4 943/1/4 946/1/4
f 960/1/4 945/1/4 3/1/4
f 3/1/4 945/1/4 947/1/4
f 4/1/4 948/1/4 961/1/4
f 961/1/4 948/1/4 949/1/4
f 961/1/4 908/1/4 1/1/4
f 1/1/4 908/1/4 909/1/4
f 116/1/5 962/1/5 114/1/5
f 114/1/5 962/1/5 564/1/5
f 963/1/5 964/1/5 965/1/5
f 965/1/5 964/1/5 644/1/5
f 966/1/5 967/1/5 968/1/5
f 968/1/5 967/1/5 724/1/5
f 969/1/5 970/1/5 971/1/5
f 971/1/5 970/1/5 804/1/5
f 972/1/5 973/1/5 974/1/5
f 974/1/5 973/1/5 884/1/5
f 975/1/5 976/1/5 977/1/5
f 977/1/5 976/1/5 1/1/5
f 978/2/5 979/2/5 564/2/5
f 564/2/5 979/2/5 589/2/5
f 980/2/5 981/2/5 644/2/5
f 644/2/5 981/2/5 669/2/5
f 982/2/5 983/2/5 724/2/5
f 724/2/5 983/2/5 749/2/5
f 984/2/5 985/2/5 804/2/5
f 804/2/5 985/2/5 829/2/5
f 986/2/5 987/2/5 884/2/5
f 884/2/5 987/2/5 909/2/5
f 988/1/5 989/1/5 978/1/5
f 978/1/5 989/1/5 979/1/5
f 990/1/5 991/1/5 980/1/5
f 980/1/5 991/1/5 981/1/5
f 992/1/5 993/1/5 982/1/5
f 982/1/5 993/1/5 983/1/5
f 994/1/5 995/1/5 984/1/5
f 984/1/5 995/1/5 985/1/5
f 996/1/5 997/1/5 986/1/5
f 986/1/5 997/1/5 987/1/5
f 118/2/5 998/2/5 116/2/5
f 116/2/5 998/2/5 999/2/5
f 1000/2/5 1001/2/5 963/2/5
f 963/2/5 1001/2/5 1002/2/5
f 1003/2/5 1004/2/5 966/2/5
f 966/2/5 1004/2/5 1005/2/5
f 1006/2/5 1007/2/5 969/2/5
f 969/2/5 1007/2/5 1008/2/5
f 1009/2/5 1010/2/5 972/2/5
f 972/2/5 1010/2/5 1011/2/5
f 1012/2/5 1013/2/5 975/2/5
f 975/2/5 1013/2/5 1014/2/5
f 120/1/5 1015/1/5 118/1/5
f 118/1/5 1015/1/5 998/1/5
f 1016/1/5 1017/1/5 1000/1/5
f 1000/1/5 1017/1/5 1001/1/5
f 1018/1/5 1019/1/5 1003/1/5
f 1003/1/5 1019/1/5 1004/1/5
f 1020/1/5 1021/1/5 1006/1/5
f 1006/1/5 1021/1/5 1007/1/5
f 1022/1/5 1023/1/5 1009/1/5
f 1009/1/5 1023/1/5 1010/1/5
f 1024/1/5 1025/1/5 1012/1/5
f 1012/1/5 1025/1/5 1013/1/5
f 1026/2/5 1027/2/5 988/2/5
f 988/2/5 1027/2/5 989/2/5
f 1028/2/5 1029/2/5 990/2/5
f 990/2/5 1029/2/5 991/2/5
f 1030/2/5 1031/2/5 992/2/5
f 992/2/5 1031/2/5 993/2/5
f 1032/2/5 1033/2/5 994/2/5
f 994/2/5 1033/2/5 995/2/5
f 1034/2/5 1035/2/5 996/2/5
f 996/2/5 1035/2/5 997/2/5
f 1036/1/5 1037/1/5 1026/1/5
f 1026/1/5 1037/1/5 1027/1/5
f 1038/1/5 1039/1/5 1028/1/5
f 1028/1/5 1039/1/5 1029/1/5
f 1040/1/5 1041/1/5 1030/1/5
f 1030/1/5 1041/1/5 1031/1/5
f 1042/1/5 1043/1/5 1032/1/5
f 1032/1/5 1043/1/5 1033/1/5
f 1044/1/5 1045/1/5 1034/1/5
f 1034/1/5 1045/1/5 1035/1/5
f 122/2/5 1046/2/5 120/2/5
f 120/2/5 1046/2/5 1015/2/5
f 1047/2/5 1048/2/5 1016/2/5
f 1016/2/5 1048/2/5 1017/2/5
f 1049/2/5 1050/2/5 1018/2/5
f 1018/2/5 1050/2/5 1019/2/5
f 1051/2/5 1052/2/5 1020/2/5
f 1020/2/5 1052/2/5 1021/2/5
f 1053/2/5 1054/2/5 1022/2/5
f 1022/2/5 1054/2/5 1023/2/5
f 1055/2/5 1056/2/5 1024/2/5
f 1024/2/5 1056/2/5 1025/2/5
f 124/1/5 1057/1/5 122/1/5
f 122/1/5 1057/1/5 1046/1/5
f 1058/1/5 1059/1/5 1047/1/5
f 1047/1/5 1059/1/5 1048/1/5
f 1060/1/5 1061/1/5 1049/1/5
f 1049/1/5 1061/1/5 1050/1/5
f 1062/1/5 1063/1/5 1051/1/5
f 1051/1/5 1063/1/5 1052/1/5
f 1064/1/5 1065/1/5 1053/1/5
f 1053/1/5 1065/1/5 1054/1/5
f 1066/1/5 1067/1/5 1055/1/5
f 1055/1/5 1067/1/5 1056/1/5
f 1068/2/5 1069/2/5 1036/2/5
f 1036/2/5 1069/2/5 1037/2/5
f 1070/2/5 1071/2/5 1038/2/5
f 1038/2/5 1071/2/5 1039/2/5
f 1072/2/5 1073/2/5 1040/2/5
f 1040/2/5 1073/2/5 1041/2/5
f 1074/2/5 1075/2/5 1042/2/5
f 1042/2/5 1075/2/5 1043/2/5
f 1076/2/5 1077/2/5 1044/2/5
f 1044/2/5 1077/2/5 1045/2/5
f 1078/1/5 1079/1/5 1068/1/5
f 1068/1/5 1079/1/5 1069/1/5
f 1080/1/5 1081/1/5 1070/1/5
f 1070/1/5 1081/1/5 1071/1/5
f 1082/1/5 1083/1/5 1072/1/5
f 1072/1/5 1083/1/5 1073/1/5
f 1084/1/5 1085/1/5 1074/1/5
f 1074/1/5 1085/1/5 1075/1/5
f 1086/1/5 1087/1/5 1076/1/5
f 1076/1/5 1087/1/5 1077/1/5
f 126/2/5 1088/2/5 124/2/5
f 124/2/5 1088/2/5 1057/2/5
f 1089/2/5 1090/2/5 1058/2/5
f 1058/2/5 1090/2/5 1059/2/5
f 1091/2/5 1092/2/5 1060/2/5
f 1060/2/5 1092/2/5 1061/2/5
f 1093/2/5 1094/2/5 1062/2/5
f 1062/2/5 1094/2/5 1063/2/5
f 1095/2/5 1096/2/5 1064/2/5
f 1064/2/5 1096/2/5 1065/2/5
f 1097/2/5 1098/2/5 1066/2/5
f 1066/2/5 1098/2/5 1067/2/5
f 128/1/5 1099/1/5 126/1/5
f 126/1/5 1099/1/5 1088/1/5
f 1100/1/5 1101/1/5 1089/1/5
f 1089/1/5 1101/1/5 1090/1/5
f 1102/1/5 1103/1/5 1091/1/5
f 1091/1/5 1103/1/5 1092/1/5
f 1104/1/5 1105/1/5 1093/1/5
f 1093/1/5 1105/1/5 1094/1/5
f 1106/1/5 1107/1/5 1095/1/5
f 1095/1/5 1107/1/5 1096/1/5
f 1108/1/5 1109/1/5 1097/1/5
f 1097/1/5 1109/1/5 1098/1/5
f 1110/2/5 1111/2/5 1078/2/5
f 1078/2/5 1111/2/5 1079/2/5
f 1112/2/5 1113/2/5 1080/2/5
f 1080/2/5 1113/2/5 1081/2/5
f 1114/2/5 1115/2/5 1082/2/5
f 1082/2/5 1115/2/5 1083/2/5
f 1116/2/5 1117/2/5 1084/2/5
f 1084/2/5 1117/2/5 1085/2/5
f 1118/2/5 1119/2/5 1086/2/5
f 1086/2/5 1119/2/5 1087/2/5
f 1120/1/5 1121/1/5 1110/1/5
f 1110/1/5 1121/1/5 1111/1/5
f 1122/1/5 1123/1/5 1112/1/5
f 1112/1/5 1123/1/5 1113/1/5
f 1124/1/5 1125/1/5 1114/1/5
f 1114/1/5 1125/1/5 1115/1/5
f 1126/1/5 1127/1/5 1116/1/5
f 1116/1/5 1127/1/5 1117/1/5
f 1128/1/5 1129/1/5 1118/1/5
f 1118/1/5 1129/1/5 1119/1/5
f 130/2/5 1130/2/5 128/2/5
f 128/2/5 1130/2/5 1099/2/5
f 1131/2/5 1132/2/5 1100/2/5
f 1100/2/5 1132/2/5 1101/2/5
f 1133/2/5 1134/2/5 1102/2/5
f 1102/2/5 1134/2/5 1103/2/5
f 1135/2/5 1136/2/5 1104/2/5
f 1104/2/5 1136/2/5 1105/2/5
f 1137/2/5 1138/2/5 1106/2/5
f 1106/2/5 1138/2/5 1107/2/5
f 1139/2/5 1140/2/5 1108/2/5
f 1108/2/5 1140/2/5 1109/2/5
f 132/1/5 1141/1/5 130/1/5
f 130/1/5 1141/1/5 1130/1/5
f 1142/1/5 1143/1/5 1131/1/5
f 1131/1/5 1143/1/5 1132/1/5
f 1144/1/5 1145/1/5 1133/1/5
f 1133/1/5 1145/1/5 1134/1/5
f 1146/1/5 1147/1/5 1135/1/5
f 1135/1/5 1147/1/5 1136/1/5
f 1148/1/5 1149/1/5 1137/1/5
f 1137/1/5 1149/1/5 1138/1/5
f 1150/1/5 1151/1/5 1139/1/5
f 1139/1/5 1151/1/5 1140/1/5
f 1152/2/5 1153/2/5 1120/2/5
f 1120/2/5 1153/2/5 1121/2/5
f 1154/2/5 1155/2/5 1122/2/5
f 1122/2/5 1155/2/5 1123/2/5
f 1156/2/5 1157/2/5 1124/2/5
f 1124/2/5 1157/2/5 1125/2/5
f 1158/2/5 1159/2/5 1126/2/5
f 1126/2/5 1159/2/5 1127/2/5
f 1160/2/5 1161/2/5 1128/2/5
f 1128/2/5 1161/2/5 1129/2/5
f 1162/1/5 1163/1/5 1152/1/5
f 1152/1/5 1163/1/5 1153/1/5
f 1164/1/5 1165/1/5 1154/1/5
f 1154/1/5 1165/1/5 1155/1/5
f 1166/1/5 1167/1/5 1156/1/5
f 1156/1/5 1167/1/5 1157/1/5
f 1168/1/5 1169/1/5 1158/1/5
f 1158/1/5 1169/1/5 1159/1/5
f 1170/1/5 1171/1/5 1160/1/5
f 1160/1/5 1171/1/5 1161/1/5
f 134/2/5 1172/2/5 132/2/5
f 132/2/5 1172/2/5 1141/2/5
f 1173/2/5 1174/2/5 1142/2/5
f 1142/2/5 1174/2/5 1143/2/5
f 1175/2/5 1176/2/5 1144/2/5
f 1144/2/5 1176/2/5 1145/2/5
f 1177/2/5 1178/2/5 1146/2/5
f 1146/2/5 1178/2/5 1147/2/5
f 1179/2/5 1180/2/5 1148/2/5
f 1148/2/5 1180/2/5 1149/2/5
f 1181/2/5 1182/2/5 1150/2/5
f 1150/2/5 1182/2/5 1151/2/5
f 136/1/5 1183/1/5 134/1/5
f 134/1/5 1183/1/5 1172/1/5
f 1184/1/5 1185/1/5 1173/1/5
f 1173/1/5 1185/1/5 1174/1/5
f 1186/1/5 1187/1/5 1175/1/5
f 1175/1/5 1187/1/5 1176/1/5
f 1188/1/5 1189/1/5 1177/1/5
f 1177/1/5 1189/1/5 1178/1/5
f 1190/1/5 1191/1/5 1179/1/5
f 1179/1/5 1191/1/5 1180/1/5
f 1192/1/5 1193/1/5 1181/1/5
f 1181/1/5 1193/1/5 1182/1/5
f 1194/2/5 1195/2/5 1162/2/5
f 1162/2/5 1195/2/5 1163/2/5
f 1196/2/5 1197/2/5 1164/2/5
f 1164/2/5 1197/2/5 1165/2/5
f 1198/2/5 1199/2/5 1166/2/5
f 1166/2/5 1199/2/5 1167/2/5
f 1200/2/5 1201/2/5 1168/2/5
f 1168/2/5 1201/2/5 1169/2/5
f 1202/2/5 1203/2/5 1170/2/5
f 1170/2/5 1203/2/5 1171/2/5
f 1204/1/5 1205/1/5 1194/1/5
f 1194/1/5 1205/1/5 1195/1/5
f 1206/1/5 1207/1/5 1196/1/5
f 1196/1/5 1207/1/5 1197/1/5
f 1208/1/5 1209/1/5 1198/1/5
f 1198/1/5 1209/1/5 1199/1/5
f 1210/1/5 1211/1/5 1200/1/5
f 1200/1/5 1211/1/5 1201/1/5
f 1212/1/5 1213/1/5 1202/1/5
f 1202/1/5 1213/1/5 1203/1/5
f 139/2/5 1214/2/5 136/2/5
f 136/2/5 1214/2/5 1183/2/5
f 1215/2/5 1216/2/5 1184/2/5
f 1184/2/5 1216/2/5 1185/2/5
f 1217/2/5 1218/2/5 1186/2/5
f 1186/2/5 1218/2/5 1187/2/5
f 1219/2/5 1220/2/5 1188/2/5
f 1188/2/5 1220/2/5 1189/2/5
f 1221/2/5 1222/2/5 1190/2/5
f 1190/2/5 1222/2/5 1191/2/5
f 1223/2/5 1224/2/5 1192/2/5
f 1192/2/5 1224/2/5 1193/2/5
f 141/1/5 1225/1/5 139/1/5
f 139/1/5 1225/1/5 1214/1/5
f 1226/1/5 1227/1/5 1215/1/5
f 1215/1/5 1227/1/5 1216/1/5
f 1228/1/5 1229/1/5 1217/1/5
f 1217/1/5 1229/1/5 1218/1/5
f 1230/1/5 1231/1/5 1219/1/5
f 1219/1/5 1231/1/5 1220/1/5
f 1232/1/5 1233/1/5 1221/1/5
f 1221/1/5 1233/1/5 1222/1/5
f 1234/1/5 1235/1/5 1223/1/5
f 1223/1/5 1235/1/5 1224/1/5
f 1236/2/5 1237/2/5 1204/2/5
f 1204/2/5 1237/2/5 1205/2/5
f 1238/2/5 1239/2/5 1206/2/5
f 1206/2/5 1239/2/5 1207/2/5
f 1240/2/5 1241/2/5 1208/2/5
f 1208/2/5 1241/2/5 1209/2/5
f 1242/2/5 1243/2/5 1210/2/5
f 1210/2/5 1243/2/5 1211/2/5
f 1244/2/5 1245/2/5 1212/2/5
f 1212/2/5 1245/2/5 1213/2/5
f 1246/1/5 1247/1/5 1236/1/5
f 1236/1/5 1247/1/5 1237/1/5
f 1248/1/5 1249/1/5 1238/1/5
f 1238/1/5 1249/1/5 1239/1/5
f 1250/1/5 1251/1/5 1240/1/5
f 1240/1/5 1251/1/5 1241/1/5
f 1252/1/5 1253/1/5 1242/1/5
f 1242/1/5 1253/1/5 1243/1/5
f 1254/1/5 1255/1/5 1244/1/5
f 1244/1/5 1255/1/5 1245/1/5
f 143/2/5 1256/2/5 141/2/5
f 141/2/5 1256/2/5 1225/2/5
f 1257/2/5 1258/2/5 1226/2/5
f 1226/2/5 1258/2/5 1227/2/5
f 1259/2/5 1260/2/5 1228/2/5
f 1228/2/5 1260/2/5 1229/2/5
f 1261/2/5 1262/2/5 1230/2/5
f 1230/2/5 1262/2/5 1231/2/5
f 1263/2/5 1264/2/5 1232/2/5
f 1232/2/5 1264/2/5 1233/2/5
f 1265/2/5 1266/2/5 1234/2/5
f 1234/2/5 1266/2/5 1235/2/5
f 145/1/5 1267/1/5 143/1/5
f 143/1/5 1267/1/5 1256/1/5
f 1268/1/5 1269/1/5 1257/1/5
f 1257/1/5 1269/1/5 1258/1/5
f 1270/1/5 1271/1/5 1259/1/5
f 1259/1/5 1271/1/5 1260/1/5
f 1272/1/5 1273/1/5 1261/1/5
f 1261/1/5 1273/1/5 1262/1/5
f 1274/1/5 1275/1/5 1263/1/5
f 1263/1/5 1275/1/5 1264/1/5
f 1276/1/5 1277/1/5 1265/1/5
f 1265/1/5 1277/1/5 1266/1/5
f 1278/2/5 1279/2/5 1246/2/5
f 1246/2/5 1279/2/5 1247/2/5
f 1280/2/5 1281/2/5 1248/2/5
f 1248/2/5 1281/2/5 1249/2/5
f 1282/2/5 1283/2/5 1250/2/5
f 1250/2/5 1283/2/5 1251/2/5
f 1284/2/5 1285/2/5 1252/2/5
f 1252/2/5 1285/2/5 1253/2/5
f 1286/2/5 1287/2/5 1254/2/5
f 1254/2/5 1287/2/5 1255/2/5
f 1288/1/5 1289/1/5 1278/1/5
f 1278/1/5 1289/1/5 1279/1/5
f 1290/1/5 1291/1/5 1280/1/5
f 1280/1/5 1291/1/5 1281/1/5
f 1292/1/5 1293/1/5 1282/1/5
f 1282/1/5 1293/1/5 1283/1/5
f 1294/1/5 1295/1/5 1284/1/5
f 1284/1/5 1295/1/5 1285/1/5
f 1296/1/5 1297/1/5 1286/1/5
f 1286/1/5 1297/1/5 1287/1/5
f 147/2/5 1298/2/5 145/2/5
f 145/2/5 1298/2/5 1267/2/5
f 1299/2/5 1300/2/5 1268/2/5
f 1268/2/5 1300/2/5 1269/2/5
f 1301/2/5 1302/2/5 1270/2/5
f 1270/2/5 1302/2/5 1271/2/5
f 1303/2/5 1304/2/5 1272/2/5
f 1272/2/5 1304/2/5 1273/2/5
f 1305/2/5 1306/2/5 1274/2/5
f 1274/2/5 1306/2/5 1275/2/5
f 1307/2/5 1308/2/5 1276/2/5
f 1276/2/5 1308/2/5 1277/2/5
f 149/1/5 1309/1/5 147/1/5
f 147/1/5 1309/1/5 1298/1/5
f 1310/1/5 1311/1/5 1299/1/5
f 1299/1/5 1311/1/5 1300/1/5
f 1312/1/5 1313/1/5 1301/1/5
f 1301/1/5 1313/1/5 1302/1/5
f 1314/1/5 1315/1/5 1303/1/5
f 1303/1/5 1315/1/5 1304/1/5
f 1316/1/5 1317/1/5 1305/1/5
f 1305/1/5 1317/1/5 1306/1/5
f 1318/1/5 1319/1/5 1307/1/5
f 1307/1/5 1319/1/5 1308/1/5
f 1320/2/5 1321/2/5 1288/2/5
f 1288/2/5 1321/2/5 1289/2/5
f 1322/2/5 1323/2/5 1290/2/5
f 1290/2/5 1323/2/5 1291/2/5
f 1324/2/5 1325/2/5 1292/2/5
f 1292/2/5 1325/2/5 1293/2/5
f 1326/2/5 1327/2/5 1294/2/5
f 1294/2/5 1327/2/5 1295/2/5
f 1328/2/5 1329/2/5 1296/2/5
f 1296/2/5 1329/2/5 1297/2/5
f 1330/1/5 1331/1/5 1320/1/5
f 1320/1/5 1331/1/5 1321/1/5
f 1332/1/5 1333/1/5 1322/1/5
f 1322/1/5 1333/1/5 1323/1/5
f 1334/1/5 1335/1/5 1324/1/5
f 1324/1/5 1335/1/5 1325/1/5
f 1336/1/5 1337/1/5 1326/1/5
f 1326/1/5 1337/1/5 1327/1/5
f 1338/1/5 1339/1/5 1328/1/5
f 1328/1/5 1339/1/5 1329/1/5
f 152/2/5 1340/2/5 149/2/5
f 149/2/5 1340/2/5 1309/2/5
f 1340/1/5 1341/1/5 999/1/5
f 999/1/5 1341/1/5 962/1/5
f 1341/2/5 1342/2/5 1330/2/5
f 1330/2/5 1342/2/5 1331/2/5
f 1342/1/5 1343/1/5 589/1/5
f 589/1/5 1343/1/5 965/1/5
f 1343/2/5 1344/2/5 1310/2/5
f 1310/2/5 1344/2/5 1311/2/5
f 1344/1/5 1345/1/5 1002/1/5
f 1002/1/5 1345/1/5 964/1/5
f 1345/2/5 1346/2/5 1332/2/5
f 1332/2/5 1346/2/5 1333/2/5
f 1346/1/5 1347/1/5 669/1/5
f 669/1/5 1347/1/5 968/1/5
f 1347/2/5 1348/2/5 1312/2/5
f 1312/2/5 1348/2/5 1313/2/5
f 1348/1/5 1349/1/5 1005/1/5
f 1005/1/5 1349/1/5 967/1/5
f 1349/2/5 1350/2/5 1334/2/5
f 1334/2/5 1350/2/5 1335/2/5
f 1350/1/5 1351/1/5 749/1/5
f 749/1/5 1351/1/5 971/1/5
f 1351/2/5 1352/2/5 1314/2/5
f 1314/2/5 1352/2/5 1315/2/5
f 1352/1/5 1353/1/5 1008/1/5
f 1008/1/5 1353/1/5 970/1/5
f 1353/2/5 1354/2/5 1336/2/5
f 1336/2/5 1354/2/5 1337/2/5
f 1354/1/5 1355/1/5 829/1/5
f 829/1/5 1355/1/5 974/1/5
f 1355/2/5 1356/2/5 1316/2/5
f 1316/2/5 1356/2/5 1317/2/5
f 1356/1/5 1357/1/5 1011/1/5
f 1011/1/5 1357/1/5 973/1/5
f 1357/2/5 1358/2/5 1338/2/5
f 1338/2/5 1358/2/5 1339/2/5
f 1358/1/5 1359/1/5 909/1/5
f 909/1/5 1359/1/5 977/1/5
f 1359/2/5 1360/2/5 1318/2/5
f 1318/2/5 1360/2/5 1319/2/5
f 1360/1/5 8/1/5 1014/1/5
f 1014/1/5 8/1/5 976/1/5
f 1361/1/6 1362/1/6 1363/1/6
f 1363/1/6 1362/1/6 604/1/6
f 1364/1/6 1365/1/6 1366/1/6
f 1366/1/6 1365/1/6 684/1/6
f 1367/1/6 1368/1/6 1369/1/6
f 1369/1/6 1368/1/6 764/1/6
f 1370/1/6 1371/1/6 1372/1/6
f 1372/1/6 1371/1/6 844/1/6
f 1373/1/6 1374/1/6 1375/1/6
f 1375/1/6 1374/1/6 924/1/6
f 62/2/6 61/2/6 1376/2/6
f 1376/2/6 61/2/6 548/2/6
f 1377/2/6 604/2/6 1378/2/6
f 1378/2/6 604/2/6 628/2/6
f 1379/2/6 684/2/6 1380/2/6
f 1380/2/6 684/2/6 708/2/6
f 1381/2/6 764/2/6 1382/2/6
f 1382/2/6 764/2/6 788/2/6
f 1383/2/6 844/2/6 1384/2/6
f 1384/2/6 844/2/6 868/2/6
f 1385/2/6 924/2/6 1386/2/6
f 1386/2/6 924/2/6 948/2/6
f 64/1/6 62/1/6 1387/1/6
f 1387/1/6 62/1/6 1376/1/6
f 1388/1/6 1377/1/6 1389/1/6
f 1389/1/6 1377/1/6 1378/1/6
f 1390/1/6 1379/1/6 1391/1/6
f 1391/1/6 1379/1/6 1380/1/6
f 1392/1/6 1381/1/6 1393/1/6
f 1393/1/6 1381/1/6 1382/1/6
f 1394/1/6 1383/1/6 1395/1/6
f 1395/1/6 1383/1/6 1384/1/6
f 1396/1/6 1385/1/6 1397/1/6
f 1397/1/6 1385/1/6 1386/1/6
f 1398/2/6 1361/2/6 1400/2/6
f 1400/2/6 1361/2/6 1399/2/6
f 1401/2/6 1364/2/6 1403/2/6
f 1403/2/6 1364/2/6 1402/2/6
f 1404/2/6 1367/2/6 1406/2/6
f 1406/2/6 1367/2/6 1405/2/6
f 1407/2/6 1370/2/6 1409/2/6
f 1409/2/6 1370/2/6 1408/2/6
f 1410/2/6 1373/2/6 1412/2/6
f 1412/2/6 1373/2/6 1411/2/6
f 1413/1/6 1398/1/6 1414/1/6
f 1414/1/6 1398/1/6 1400/1/6
f 1415/1/6 1401/1/6 1416/1/6
f 1416/1/6 1401/1/6 1403/1/6
f 1417/1/6 1404/1/6 1418/1/6
f 1418/1/6 1404/1/6 1406/1/6
f 1419/1/6 1407/1/6 1420/1/6
f 1420/1/6 1407/1/6 1409/1/6
f 1421/1/6 1410/1/6 1422/1/6
f 1422/1/6 1410/1/6 1412/1/6
f 68/2/6 64/2/6 1423/2/6
f 1423/2/6 64/2/6 1387/2/6
f 1424/2/6 1388/2/6 1425/2/6
f 1425/2/6 1388/2/6 1389/2/6
f 1426/2/6 1390/2/6 1427/2/6
f 1427/2/6 1390/2/6 1391/2/6
f 1428/2/6 1392/2/6 1429/2/6
f 1429/2/6 1392/2/6 1393/2/6
f 1430/2/6 1394/2/6 1431/2/6
f 1431/2/6 1394/2/6 1395/2/6
f 1432/2/6 1396/2/6 1433/2/6
f 1433/2/6 1396/2/6 1397/2/6
f 70/1/6 68/1/6 1434/1/6
f 1434/1/6 68/1/6 1423/1/6
f 1435/1/6 1424/1/6 1436/1/6
f 1436/1/6 1424/1/6 1425/1/6
f 1437/1/6 1426/1/6 1438/1/6
f 1438/1/6 1426/1/6 1427/1/6
f 1439/1/6 1428/1/6 1440/1/6
f 1440/1/6 1428/1/6 1429/1/6
f 1441/1/6 1430/1/6 1442/1/6
f 1442/1/6 1430/1/6 1431/1/6
f 1443/1/6 1432/1/6 1444/1/6
f 1444/1/6 1432/1/6 1433/1/6
f 1445/2/6 1413/2/6 1446/2/6
f 1446/2/6 1413/2/6 1414/2/6
f 1447/2/6 1415/2/6 1448/2/6
f 1448/2/6 1415/2/6 1416/2/6
f 1449/2/6 1417/2/6 1450/2/6
f 1450/2/6 1417/2/6 1418/2/6
f 1451/2/6 1419/2/6 1452/2/6
f 1452/2/6 1419/2/6 1420/2/6
f 1453/2/6 1421/2/6 1454/2/6
f 1454/2/6 1421/2/6 1422/2/6
f 1455/1/6 1445/1/6 1456/1/6
f 1456/1/6 1445/1/6 1446/1/6
f 1457/1/6 1447/1/6 1458/1/6
f 1458/1/6 1447/1/6 1448/1/6
f 1459/1/6 1449/1/6 1460/1/6
f 1460/1/6 1449/1/6 1450/1/6
f 1461/1/6 1451/1/6 1462/1/6
f 1462/1/6 1451/1/6 1452/1/6
f 1463/1/6 1453/1/6 1464/1/6
f 1464/1/6 1453/1/6 1454/1/6
f 74/2/6 70/2/6 1465/2/6
f 1465/2/6 70/2/6 1434/2/6
f 1466/2/6 1435/2/6 1467/2/6
f 1467/2/6 1435/2/6 1436/2/6
f 1468/2/6 1437/2/6 1469/2/6
f 1469/2/6 1437/2/6 1438/2/6
f 1470/2/6 1439/2/6 1471/2/6
f 1471/2/6 1439/2/6 1440/2/6
f 1472/2/6 1441/2/6 1473/2/6
f 1473/2/6 1441/2/6 1442/2/6
f 1474/2/6 1443/2/6 1475/2/6
f 1475/2/6 1443/2/6 1444/2/6
f 76/1/6 74/1/6 1476/1/6
f 1476/1/6 74/1/6 1465/1/6
f 1477/1/6 1466/1/6 1478/1/6
f 1478/1/6 1466/1/6 1467/1/6
f 1479/1/6 1468/1/6 1480/1/6
f 1480/1/6 1468/1/6 1469/1/6
f 1481/1/6 1470/1/6 1482/1/6
f 1482/1/6 1470/1/6 1471/1/6
f 1483/1/6 1472/1/6 1484/1/6
f 1484/1/6 1472/1/6 1473/1/6
f 1485/1/6 1474/1/6 1486/1/6
f 1486/1/6 1474/1/6 1475/1/6
f 1487/2/6 1455/2/6 1488/2/6
f 1488/2/6 1455/2/6 1456/2/6
f 1489/2/6 1457/2/6 1490/2/6
f 1490/2/6 1457/2/6 1458/2/6
f 1491/2/6 1459/2/6 1492/2/6
f 1492/2/6 1459/2/6 1460/2/6
f 1493/2/6 1461/2/6 1494/2/6
f 1494/2/6 1461/2/6 1462/2/6
f 1495/2/6 1463/2/6 1496/2/6
f 1496/2/6 1463/2/6 1464/2/6
f 1497/1/6 1487/1/6 1498/1/6
f 1498/1/6 1487/1/6 1488/1/6
f 1499/1/6 1489/1/6 1500/1/6
f 1500/1/6 1489/1/6 1490/1/6
f 1501/1/6 1491/1/6 1502/1/6
f 1502/1/6 1491/1/6 1492/1/6
f 1503/1/6 1493/1/6 1504/1/6
f 1504/1/6 1493/1/6 1494/1/6
f 1505/1/6 1495/1/6 1506/1/6
f 1506/1/6 1495/1/6 1496/1/6
f 80/2/6 76/2/6 1507/2/6
f 1507/2/6 76/2/6 1476/2/6
f 1508/2/6 1477/2/6 1509/2/6
f 1509/2/6 1477/2/6 1478/2/6
f 1510/2/6 1479/2/6 1511/2/6
f 1511/2/6 1479/2/6 1480/2/6
f 1512/2/6 1481/2/6 1513/2/6
f 1513/2/6 1481/2/6 1482/2/6
f 1514/2/6 1483/2/6 1515/2/6
f 1515/2/6 1483/2/6 1484/2/6
f 1516/2/6 1485/2/6 1517/2/6
f 1517/2/6 1485/2/6 1486/2/6
f 82/1/6 80/1/6 1518/1/6
f 1518/1/6 80/1/6 1507/1/6
f 1519/1/6 1508/1/6 1520/1/6
f 1520/1/6 1508/1/6 1509/1/6
f 1521/1/6 1510/1/6 1522/1/6
f 1522/1/6 1510/1/6 1511/1/6
f 1523/1/6 1512/1/6 1524/1/6
f 1524/1/6 1512/1/6 1513/1/6
f 1525/1/6 1514/1/6 1526/1/6
f 1526/1/6 1514/1/6 1515/1/6
f 1527/1/6 1516/1/6 1528/1/6
f 1528/1/6 1516/1/6 1517/1/6
f 1529/2/6 1497/2/6 1530/2/6
f 1530/2/6 1497/2/6 1498/2/6
f 1531/2/6 1499/2/6 1532/2/6
f 1532/2/6 1499/2/6 1500/2/6
f 1533/2/6 1501/2/6 1534/2/6
f 1534/2/6 1501/2/6 1502/2/6
f 1535/2/6 1503/2/6 1536/2/6
f 1536/2/6 1503/2/6 1504/2/6
f 1537/2/6 1505/2/6 1538/2/6
f 1538/2/6 1505/2/6 1506/2/6
f 1539/1/6 1529/1/6 1540/1/6
f 1540/1/6 1529/1/6 1530/1/6
f 1541/1/6 1531/1/6 1542/1/6
f 1542/1/6 1531/1/6 1532/1/6
f 1543/1/6 1533/1/6 1544/1/6
f 1544/1/6 1533/1/6 1534/1/6
f 1545/1/6 1535/1/6 1546/1/6
f 1546/1/6 1535/1/6 1536/1/6
f 1547/1/6 1537/1/6 1548/1/6
f 1548/1/6 1537/1/6 1538/1/6
f 86/2/6 82/2/6 1549/2/6
f 1549/2/6 82/2/6 1518/2/6
f 1550/2/6 1519/2/6 1551/2/6
f 1551/2/6 1519/2/6 1520/2/6
f 1552/2/6 1521/2/6 1553/2/6
f 1553/2/6 1521/2/6 1522/2/6
f 1554/2/6 1523/2/6 1555/2/6
f 1555/2/6 1523/2/6 1524/2/6
f 1556/2/6 1525/2/6 1557/2/6
f 1557/2/6 1525/2/6 1526/2/6
f 1558/2/6 1527/2/6 1559/2/6
f 1559/2/6 1527/2/6 1528/2/6
f 88/1/6 86/1/6 1560/1/6
f 1560/1/6 86/1/6 1549/1/6
f 1561/1/6 1550/1/6 1562/1/6
f 1562/1/6 1550/1/6 1551/1/6
f 1563/1/6 1552/1/6 1564/1/6
f 1564/1/6 1552/1/6 1553/1/6
f 1565/1/6 1554/1/6 1566/1/6
f 1566/1/6 1554/1/6 1555/1/6
f 1567/1/6 1556/1/6 1568/1/6
f 1568/1/6 1556/1/6 1557/1/6
f 1569/1/6 1558/1/6 1570/1/6
f 1570/1/6 1558/1/6 1559/1/6
f 1571/2/6 1539/2/6 1572/2/6
f 1572/2/6 1539/2/6 1540/2/6
f 1573/2/6 1541/2/6 1574/2/6
f 1574/2/6 1541/2/6 1542/2/6
f 1575/2/6 1543/2/6 1576/2/6
f 1576/2/6 1543/2/6 1544/2/6
f 1577/2/6 1545/2/6 1578/2/6
f 1578/2/6 1545/2/6 1546/2/6
f 1579/2/6 1547/2/6 1580/2/6
f 1580/2/6 1547/2/6 1548/2/6
f 1581/1/6 1571/1/6 1582/1/6
f 1582/1/6 1571/1/6 1572/1/6
f 1583/1/6 1573/1/6 1584/1/6
f 1584/1/6 1573/1/6 1574/1/6
f 1585/1/6 1575/1/6 1586/1/6
f 1586/1/6 1575/1/6 1576/1/6
f 1587/1/6 1577/1/6 1588/1/6
f 1588/1/6 1577/1/6 1578/1/6
f 1589/1/6 1579/1/6 1590/1/6
f 1590/1/6 1579/1/6 1580/1/6
f 92/2/6 88/2/6 1591/2/6
f 1591/2/6 88/2/6 1560/2/6
f 1592/2/6 1561/2/6 1593/2/6
f 1593/2/6 1561/2/6 1562/2/6
f 1594/2/6 1563/2/6 1595/2/6
f 1595/2/6 1563/2/6 1564/2/6
f 1596/2/6 1565/2/6 1597/2/6
f 1597/2/6 1565/2/6 1566/2/6
f 1598/2/6 1567/2/6 1599/2/6
f 1599/2/6 1567/2/6 1568/2/6
f 1600/2/6 1569/2/6 1601/2/6
f 1601/2/6 1569/2/6 1570/2/6
f 94/1/6 92/1/6 547/1/6
f 547/1/6 92/1/6 1591/1/6
f 547/1/6 548/1/6 562/1/6
f 562/1/6 548/1/6 1362/1/6
f 562/2/6 1581/2/6 1602/2/6
f 1602/2/6 1581/2/6 1582/2/6
f 1602/1/6 1399/1/6 603/1/6
f 603/1/6 1399/1/6 1363/1/6
f 603/1/6 1592/1/6 627/1/6
f 627/1/6 1592/1/6 1593/1/6
f 627/1/6 628/1/6 642/1/6
f 642/1/6 628/1/6 1365/1/6
f 642/2/6 1583/2/6 1603/2/6
f 1603/2/6 1583/2/6 1584/2/6
f 1603/1/6 1402/1/6 683/1/6
f 683/1/6 1402/1/6 1366/1/6
f 683/1/6 1594/1/6 707/1/6
f 707/1/6 1594/1/6 1595/1/6
f 707/1/6 708/1/6 722/1/6
f 722/1/6 708/1/6 1368/1/6
f 722/2/6 1585/2/6 1604/2/6
f 1604/2/6 1585/2/6 1586/2/6
f 1604/1/6 1405/1/6 763/1/6
f 763/1/6 1405/1/6 1369/1/6
f 763/1/6 1596/1/6 787/1/6
f 787/1/6 1596/1/6 1597/1/6
f 787/1/6 788/1/6 802/1/6
f 802/1/6 788/1/6 1371/1/6
f 802/2/6 1587/2/6 1605/2/6
f 1605/2/6 1587/2/6 1588/2/6
f 1605/1/6 1408/1/6 843/1/6
f 843/1/6 1408/1/6 1372/1/6
f 843/1/6 1598/1/6 867/1/6
f 867/1/6 1598/1/6 1599/1/6
f 867/1/6 868/1/6 882/1/6
f 882/1/6 868/1/6 1374/1/6
f 882/2/6 1589/2/6 1606/2/6
f 1606/2/6 1589/2/6 1590/2/6
f 1606/1/6 1411/1/6 923/1/6
f 923/1/6 1411/1/6 1375/1/6
f 923/1/6 1600/1/6 947/1/6
f 947/1/6 1600/1/6 1601/1/6
f 947/1/6 948/1/6 3/1/6
f 3/1/6 948/1/6 4/1/6
f 13/1/6 12/1/6 1607/1/6
f 1607/1/6 12/1/6 550/1/6
f 1607/2/6 550/2/6 1608/2/6
f 1608/2/6 550/2/6 565/2/6
f 1609/1/6 1610/1/6 1611/1/6
f 1611/1/6 1610/1/6 630/1/6
f 1611/2/6 630/2/6 1612/2/6
f 1612/2/6 630/2/6 645/2/6
f 1613/1/6 1614/1/6 1615/1/6
f 1615/1/6 1614/1/6 710/1/6
f 1615/2/6 710/2/6 1616/2/6
f 1616/2/6 710/2/6 725/2/6
f 1617/1/6 1618/1/6 1619/1/6
f 1619/1/6 1618/1/6 790/1/6
f 1619/2/6 790/2/6 1620/2/6
f 1620/2/6 790/2/6 805/2/6
f 1621/1/6 1622/1/6 1623/1/6
f 1623/1/6 1622/1/6 870/1/6
f 1623/2/6 870/2/6 1624/2/6
f 1624/2/6 870/2/6 885/2/6
f 1625/1/6 1626/1/6 1627/1/6
f 1627/1/6 1626/1/6 7/1/6
f 16/2/6 13/2/6 153/2/6
f 153/2/6 13/2/6 1628/2/6
f 153/1/6 1628/1/6 1629/1/6
f 1629/1/6 1628/1/6 1608/1/6
f 1629/1/6 565/1/6 201/1/6
f 201/1/6 565/1/6 1610/1/6
f 201/2/6 1609/2/6 214/2/6
f 214/2/6 1609/2/6 1630/2/6
f 214/1/6 1630/1/6 1631/1/6
f 1631/1/6 1630/1/6 1612/1/6
f 1631/1/6 645/1/6 273/1/6
f 273/1/6 645/1/6 1614/1/6
f 273/2/6 1613/2/6 286/2/6
f 286/2/6 1613/2/6 1632/2/6
f 286/1/6 1632/1/6 1633/1/6
f 1633/1/6 1632/1/6 1616/1/6
f 1633/1/6 725/1/6 345/1/6
f 345/1/6 725/1/6 1618/1/6
f 345/2/6 1617/2/6 358/2/6
f 358/2/6 1617/2/6 1634/2/6
f 358/1/6 1634/1/6 1635/1/6
f 1635/1/6 1634/1/6 1620/1/6
f 1635/1/6 805/1/6 417/1/6
f 417/1/6 805/1/6 1622/1/6
f 417/2/6 1621/2/6 430/2/6
f 430/2/6 1621/2/6 1636/2/6
f 430/1/6 1636/1/6 1637/1/6
f 1637/1/6 1636/1/6 1624/1/6
f 1637/1/6 885/1/6 489/1/6
f 489/1/6 885/1/6 1626/1/6
f 489/2/6 1625/2/6 502/2/6
f 502/2/6 1625/2/6 1638/2/6
f 502/1/6 1638/1/6 6/1/6
f 6/1/6 1638/1/6 1627/1/6
f 98/2/6 59/2/6 1640/2/6
f 1640/2/6 59/2/6 1639/2/6
f 1641/2/6 213/2/6 1643/2/6
f 1643/2/6 213/2/6 1642/2/6
f 1644/2/6 285/2/6 1646/2/6
f 1646/2/6 285/2/6 1645/2/6
f 1647/2/6 357/2/6 1649/2/6
f 1649/2/6 357/2/6 1648/2/6
f 1650/2/6 429/2/6 1652/2/6
f 1652/2/6 429/2/6 1651/2/6
f 1653/2/6 501/2/6 1655/2/6
f 1655/2/6 501/2/6 1654/2/6
f 100/1/6 98/1/6 1656/1/6
f 1656/1/6 98/1/6 1640/1/6
f 1657/1/6 1641/1/6 1658/1/6
f 1658/1/6 1641/1/6 1643/1/6
f 1659/1/6 1644/1/6 1660/1/6
f 1660/1/6 1644/1/6 1646/1/6
f 1661/1/6 1647/1/6 1662/1/6
f 1662/1/6 1647/1/6 1649/1/6
f 1663/1/6 1650/1/6 1664/1/6
f 1664/1/6 1650/1/6 1652/1/6
f 1665/1/6 1653/1/6 1666/1/6
f 1666/1/6 1653/1/6 1655/1/6
f 1667/2/6 178/2/6 1668/2/6
f 1668/2/6 178/2/6 199/2/6
f 1669/2/6 250/2/6 1670/2/6
f 1670/2/6 250/2/6 271/2/6
f 1671/2/6 322/2/6 1672/2/6
f 1672/2/6 322/2/6 343/2/6
f 1673/2/6 394/2/6 1674/2/6
f 1674/2/6 394/2/6 415/2/6
f 1675/2/6 466/2/6 1676/2/6
f 1676/2/6 466/2/6 487/2/6
f 1677/1/6 1667/1/6 1678/1/6
f 1678/1/6 1667/1/6 1668/1/6
f 1679/1/6 1669/1/6 1680/1/6
f 1680/1/6 1669/1/6 1670/1/6
f 1681/1/6 1671/1/6 1682/1/6
f 1682/1/6 1671/1/6 1672/1/6
f 1683/1/6 1673/1/6 1684/1/6
f 1684/1/6 1673/1/6 1674/1/6
f 1685/1/6 1675/1/6 1686/1/6
f 1686/1/6 1675/1/6 1676/1/6
f 104/2/6 100/2/6 1687/2/6
f 1687/2/6 100/2/6 1656/2/6
f 1688/2/6 1657/2/6 1689/2/6
f 1689/2/6 1657/2/6 1658/2/6
f 1690/2/6 1659/2/6 1691/2/6
f 1691/2/6 1659/2/6 1660/2/6
f 1692/2/6 1661/2/6 1693/2/6
f 1693/2/6 1661/2/6 1662/2/6
f 1694/2/6 1663/2/6 1695/2/6
f 1695/2/6 1663/2/6 1664/2/6
f 1696/2/6 1665/2/6 1697/2/6
f 1697/2/6 1665/2/6 1666/2/6
f 106/1/6 104/1/6 1698/1/6
f 1698/1/6 104/1/6 1687/1/6
f 1699/1/6 1688/1/6 1700/1/6
f 1700/1/6 1688/1/6 1689/1/6
f 1701/1/6 1690/1/6 1702/1/6
f 1702/1/6 1690/1/6 1691/1/6
f 1703/1/6 1692/1/6 1704/1/6
f 1704/1/6 1692/1/6 1693/1/6
f 1705/1/6 1694/1/6 1706/1/6
f 1706/1/6 1694/1/6 1695/1/6
f 1707/1/6 1696/1/6 1708/1/6
f 1708/1/6 1696/1/6 1697/1/6
f 1709/2/6 1677/2/6 1710/2/6
f 1710/2/6 1677/2/6 1678/2/6
f 1711/2/6 1679/2/6 1712/2/6
f 1712/2/6 1679/2/6 1680/2/6
f 1713/2/6 1681/2/6 1714/2/6
f 1714/2/6 1681/2/6 1682/2/6
f 1715/2/6 1683/2/6 1716/2/6
f 1716/2/6 1683/2/6 1684/2/6
f 1717/2/6 1685/2/6 1718/2/6
f 1718/2/6 1685/2/6 1686/2/6
f 1719/1/6 1709/1/6 1720/1/6
f 1720/1/6 1709/1/6 1710/1/6
f 1721/1/6 1711/1/6 1722/1/6
f 1722/1/6 1711/1/6 1712/1/6
f 1723/1/6 1713/1/6 1724/1/6
f 1724/1/6 1713/1/6 1714/1/6
f 1725/1/6 1715/1/6 1726/1/6
f 1726/1/6 1715/1/6 1716/1/6
f 1727/1/6 1717/1/6 1728/1/6
f 1728/1/6 1717/1/6 1718/1/6
f 110/2/6 106/2/6 1729/2/6
f 1729/2/6 106/2/6 1698/2/6
f 1730/2/6 1699/2/6 1731/2/6
f 1731/2/6 1699/2/6 1700/2/6
f 1732/2/6 1701/2/6 1733/2/6
f 1733/2/6 1701/2/6 1702/2/6
f 1734/2/6 1703/2/6 1735/2/6
f 1735/2/6 1703/2/6 1704/2/6
f 1736/2/6 1705/2/6 1737/2/6
f 1737/2/6 1705/2/6 1706/2/6
f 1738/2/6 1707/2/6 1739/2/6
f 1739/2/6 1707/2/6 1708/2/6
f 112/1/6 110/1/6 1740/1/6
f 1740/1/6 110/1/6 1729/1/6
f 1741/1/6 1730/1/6 1742/1/6
f 1742/1/6 1730/1/6 1731/1/6
f 1743/1/6 1732/1/6 1744/1/6
f 1744/1/6 1732/1/6 1733/1/6
f 1745/1/6 1734/1/6 1746/1/6
f 1746/1/6 1734/1/6 1735/1/6
f 1747/1/6 1736/1/6 1748/1/6
f 1748/1/6 1736/1/6 1737/1/6
f 1749/1/6 1738/1/6 1750/1/6
f 1750/1/6 1738/1/6 1739/1/6
f 151/2/6 112/2/6 1751/2/6
f 1751/2/6 112/2/6 1740/2/6
f 1751/1/6 1639/1/6 1752/1/6
f 1752/1/6 1639/1/6 178/1/6
f 1752/2/6 1719/2/6 1753/2/6
f 1753/2/6 1719/2/6 1720/2/6
f 1753/1/6 199/1/6 1754/1/6
f 1754/1/6 199/1/6 213/1/6
f 1754/2/6 1741/2/6 1755/2/6
f 1755/2/6 1741/2/6 1742/2/6
f 1755/1/6 1642/1/6 1756/1/6
f 1756/1/6 1642/1/6 250/1/6
f 1756/2/6 1721/2/6 1757/2/6
f 1757/2/6 1721/2/6 1722/2/6
f 1757/1/6 271/1/6 1758/1/6
f 1758/1/6 271/1/6 285/1/6
f 1758/2/6 1743/2/6 1759/2/6
f 1759/2/6 1743/2/6 1744/2/6
f 1759/1/6 1645/1/6 1760/1/6
f 1760/1/6 1645/1/6 322/1/6
f 1760/2/6 1723/2/6 1761/2/6
f 1761/2/6 1723/2/6 1724/2/6
f 1761/1/6 343/1/6 1762/1/6
f 1762/1/6 343/1/6 357/1/6
f 1762/2/6 1745/2/6 1763/2/6
f 1763/2/6 1745/2/6 1746/2/6
f 1763/1/6 1648/1/6 1764/1/6
f 1764/1/6 1648/1/6 394/1/6
f 1764/2/6 1725/2/6 1765/2/6
f 1765/2/6 1725/2/6 1726/2/6
f 1765/1/6 415/1/6 1766/1/6
f 1766/1/6 415/1/6 429/1/6
f 1766/2/6 1747/2/6 1767/2/6
f 1767/2/6 1747/2/6 1748/2/6
f 1767/1/6 1651/1/6 1768/1/6
f 1768/1/6 1651/1/6 466/1/6
f 1768/2/6 1727/2/6 1769/2/6
f 1769/2/6 1727/2/6 1728/2/6
f 1769/1/6 487/1/6 1770/1/6
f 1770/1/6 487/1/6 501/1/6
f 1770/2/6 1749/2/6 1771/2/6
f 1771/2/6 1749/2/6 1750/2/6
f 1771/1/6 1654/1/6 9/1/6
f 9/1/6 1654/1/6 10/1/6
f 8/1/1 1772/1/1 9/1/1
f 9/1/1 1772/1/1 1773/1/1
f 1774/2/2 151/2/2 1776/2/2
f 1776/2/2 151/2/2 1775/2/2
f 1776/1/2 1775/1/2 1778/1/2
f 1778/1/2 1775/1/2 1777/1/2
f 1779/2/2 1780/2/2 1782/2/2
f 1782/2/2 1780/2/2 1781/2/2
f 1782/1/2 1781/1/2 1784/1/2
f 1784/1/2 1781/1/2 1783/1/2
f 1785/2/2 1786/2/2 1788/2/2
f 1788/2/2 1786/2/2 1787/2/2
f 1788/1/2 1787/1/2 1790/1/2
f 1790/1/2 1787/1/2 1789/1/2
f 152/1/2 1774/1/2 1792/1/2
f 1792/1/2 1774/1/2 1791/1/2
f 1792/2/2 1791/2/2 1793/2/2
f 1793/2/2 1791/2/2 1778/2/2
f 1793/2/2 1777/2/2 1794/2/2
f 1794/2/2 1777/2/2 1780/2/2
f 1794/1/2 1779/1/2 1796/1/2
f 1796/1/2 1779/1/2 1795/1/2
f 1796/2/2 1795/2/2 1797/2/2
f 1797/2/2 1795/2/2 1784/2/2
f 1797/2/2 1783/2/2 1798/2/2
f 1798/2/2 1783/2/2 1786/2/2
f 1798/1/2 1785/1/2 1800/1/2
f 1800/1/2 1785/1/2 1799/1/2
f 1800/2/2 1799/2/2 1801/2/2
f 1801/2/2 1799/2/2 1790/2/2
f 1802/2/3 1803/2/3 1790/2/3
f 1790/2/3 1803/2/3 1801/2/3
f 1804/1/3 1805/1/3 1789/1/3
f 1789/1/3 1805/1/3 1790/1/3
f 1806/2/3 1807/2/3 1804/2/3
f 1804/2/3 1807/2/3 1805/2/3
f 1808/1/3 1809/1/3 1802/1/3
f 1802/1/3 1809/1/3 1803/1/3
f 1810/2/3 1811/2/3 1808/2/3
f 1808/2/3 1811/2/3 1809/2/3
f 1812/1/3 1813/1/3 1806/1/3
f 1806/1/3 1813/1/3 1807/1/3
f 1814/2/3 1815/2/3 1812/2/3
f 1812/2/3 1815/2/3 1813/2/3
f 1816/1/3 1817/1/3 1810/1/3
f 1810/1/3 1817/1/3 1811/1/3
f 1818/2/3 1819/2/3 1816/2/3
f 1816/2/3 1819/2/3 1817/2/3
f 1820/1/3 1821/1/3 1814/1/3
f 1814/1/3 1821/1/3 1815/1/3
f 1822/2/3 1823/2/3 1820/2/3
f 1820/2/3 1823/2/3 1821/2/3
f 1824/1/3 1825/1/3 1818/1/3
f 1818/1/3 1825/1/3 1819/1/3
f 1826/2/3 1827/2/3 1824/2/3
f 1824/2/3 1827/2/3 1825/2/3
f 1828/1/3 1829/1/3 1822/1/3
f 1822/1/3 1829/1/3 1823/1/3
f 1830/2/3 1831/2/3 1828/2/3
f 1828/2/3 1831/2/3 1829/2/3
f 1832/1/3 1833/1/3 1826/1/3
f 1826/1/3 1833/1/3 1827/1/3
f 1834/2/3 1835/2/3 1832/2/3
f 1832/2/3 1835/2/3 1833/2/3
f 1836/1/3 1837/1/3 1830/1/3
f 1830/1/3 1837/1/3 1831/1/3
f 1838/2/3 1839/2/3 1836/2/3
f 1836/2/3 1839/2/3 1837/2/3
f 1840/1/3 1841/1/3 1834/1/3
f 1834/1/3 1841/1/3 1835/1/3
f 1842/2/3 1843/2/3 1840/2/3
f 1840/2/3 1843/2/3 1841/2/3
f 1773/1/3 1844/1/3 1838/1/3
f 1838/1/3 1844/1/3 1839/1/3
f 1844/1/3 1772/1/3 1842/1/3
f 1842/1/3 1772/1/3 1843/1/3
f 1792/1/5 1845/1/5 152/1/5
f 152/1/5 1845/1/5 1341/1/5
f 1846/1/5 1847/1/5 1343/1/5
f 1343/1/5 1847/1/5 1345/1/5
f 1848/1/5 1849/1/5 1347/1/5
f 1347/1/5 1849/1/5 1349/1/5
f 1850/1/5 1851/1/5 1351/1/5
f 1351/1/5 1851/1/5 1353/1/5
f 1852/1/5 1853/1/5 1355/1/5
f 1355/1/5 1853/1/5 1357/1/5
f 1854/1/5 1855/1/5 1359/1/5
f 1359/1/5 1855/1/5 8/1/5
f 1856/2/5 1857/2/5 1341/2/5
f 1341/2/5 1857/2/5 1342/2/5
f 1858/2/5 1859/2/5 1345/2/5
f 1345/2/5 1859/2/5 1346/2/5
f 1860/2/5 1861/2/5 1349/2/5
f 1349/2/5 1861/2/5 1350/2/5
f 1862/2/5 1863/2/5 1353/2/5
f 1353/2/5 1863/2/5 1354/2/5
f 1864/2/5 1865/2/5 1357/2/5
f 1357/2/5 1865/2/5 1358/2/5
f 1866/1/5 1867/1/5 1856/1/5
f 1856/1/5 1867/1/5 1857/1/5
f 1868/1/5 1869/1/5 1858/1/5
f 1858/1/5 1869/1/5 1859/1/5
f 1870/1/5 1871/1/5 1860/1/5
f 1860/1/5 1871/1/5 1861/1/5
f 1872/1/5 1873/1/5 1862/1/5
f 1862/1/5 1873/1/5 1863/1/5
f 1874/1/5 1875/1/5 1864/1/5
f 1864/1/5 1875/1/5 1865/1/5
f 1794/2/5 1876/2/5 1792/2/5
f 1792/2/5 1876/2/5 1877/2/5
f 1878/2/5 1879/2/5 1846/2/5
f 1846/2/5 1879/2/5 1880/2/5
f 1881/2/5 1882/2/5 1848/2/5
f 1848/2/5 1882/2/5 1883/2/5
f 1884/2/5 1885/2/5 1850/2/5
f 1850/2/5 1885/2/5 1886/2/5
f 1887/2/5 1888/2/5 1852/2/5
f 1852/2/5 1888/2/5 1889/2/5
f 1890/2/5 1891/2/5 1854/2/5
f 1854/2/5 1891/2/5 1892/2/5
f 1796/1/5 1893/1/5 1794/1/5
f 1794/1/5 1893/1/5 1876/1/5
f 1894/1/5 1895/1/5 1878/1/5
f 1878/1/5 1895/1/5 1879/1/5
f 1896/1/5 1897/1/5 1881/1/5
f 1881/1/5 1897/1/5 1882/1/5
f 1898/1/5 1899/1/5 1884/1/5
f 1884/1/5 1899/1/5 1885/1/5
f 1900/1/5 1901/1/5 1887/1/5
f 1887/1/5 1901/1/5 1888/1/5
f 1902/1/5 1903/1/5 1890/1/5
f 1890/1/5 1903/1/5 1891/1/5
f 1904/2/5 1905/2/5 1866/2/5
f 1866/2/5 1905/2/5 1867/2/5
f 1906/2/5 1907/2/5 1868/2/5
f 1868/2/5 1907/2/5 1869/2/5
f 1908/2/5 1909/2/5 1870/2/5
f 1870/2/5 1909/2/5 1871/2/5
f 1910/2/5 1911/2/5 1872/2/5
f 1872/2/5 1911/2/5 1873/2/5
f 1912/2/5 1913/2/5 1874/2/5
f 1874/2/5 1913/2/5 1875/2/5
f 1914/1/5 1915/1/5 1904/1/5
f 1904/1/5 1915/1/5 1905/1/5
f 1916/1/5 1917/1/5 1906/1/5
f 1906/1/5 1917/1/5 1907/1/5
f 1918/1/5 1919/1/5 1908/1/5
f 1908/1/5 1919/1/5 1909/1/5
f 1920/1/5 1921/1/5 1910/1/5
f 1910/1/5 1921/1/5 1911/1/5
f 1922/1/5 1923/1/5 1912/1/5
f 1912/1/5 1923/1/5 1913/1/5
f 1798/2/5 1924/2/5 1796/2/5
f 1796/2/5 1924/2/5 1893/2/5
f 1925/2/5 1926/2/5 1894/2/5
f 1894/2/5 1926/2/5 1895/2/5
f 1927/2/5 1928/2/5 1896/2/5
f 1896/2/5 1928/2/5 1897/2/5
f 1929/2/5 1930/2/5 1898/2/5
f 1898/2/5 1930/2/5 1899/2/5
f 1931/2/5 1932/2/5 1900/2/5
f 1900/2/5 1932/2/5 1901/2/5
f 1933/2/5 1934/2/5 1902/2/5
f 1902/2/5 1934/2/5 1903/2/5
f 1800/1/5 1935/1/5 1798/1/5
f 1798/1/5 1935/1/5 1924/1/5
f 1936/1/5 1937/1/5 1925/1/5
f 1925/1/5 1937/1/5 1926/1/5
f 1938/1/5 1939/1/5 1927/1/5
f 1927/1/5 1939/1/5 1928/1/5
f 1940/1/5 1941/1/5 1929/1/5
f 1929/1/5 1941/1/5 1930/1/5
f 1942/1/5 1943/1/5 1931/1/5
f 1931/1/5 1943/1/5 1932/1/5
f 1944/1/5 1945/1/5 1933/1/5
f 1933/1/5 1945/1/5 1934/1/5
f 1946/2/5 1947/2/5 1914/2/5
f 1914/2/5 1947/2/5 1915/2/5
f 1948/2/5 1949/2/5 1916/2/5
f 1916/2/5 1949/2/5 1917/2/5
f 1950/2/5 1951/2/5 1918/2/5
f 1918/2/5 1951/2/5 1919/2/5
f 1952/2/5 1953/2/5 1920/2/5
f 1920/2/5 1953/2/5 1921/2/5
f 1954/2/5 1955/2/5 1922/2/5
f 1922/2/5 1955/2/5 1923/2/5
f 1801/2/5 1803/2/5 1800/2/5
f 1800/2/5 1803/2/5 1935/2/5
f 1803/1/5 1956/1/5 1877/1/5
f 1877/1/5 1956/1/5 1845/1/5
f 1956/1/5 1957/1/5 1946/1/5
f 1946/1/5 1957/1/5 1947/1/5
f 1957/1/5 1809/1/5 1342/1/5
f 1342/1/5 1809/1/5 1343/1/5
f 1809/2/5 1811/2/5 1936/2/5
f 1936/2/5 1811/2/5 1937/2/5
f 1811/1/5 1958/1/5 1880/1/5
f 1880/1/5 1958/1/5 1847/1/5
f 1958/1/5 1959/1/5 1948/1/5
f 1948/1/5 1959/1/5 1949/1/5
f 1959/1/5 1817/1/5 1346/1/5
f 1346/1/5 1817/1/5 1347/1/5
f 1817/2/5 1819/2/5 1938/2/5
f 1938/2/5 1819/2/5 1939/2/5
f 1819/1/5 1960/1/5 1883/1/5
f 1883/1/5 1960/1/5 1849/1/5
f 1960/1/5 1961/1/5 1950/1/5
f 1950/1/5 1961/1/5 1951/1/5
f 1961/1/5 1825/1/5 1350/1/5
f 1350/1/5 1825/1/5 1351/1/5
f 1825/2/5 1827/2/5 1940/2/5
f 1940/2/5 1827/2/5 1941/2/5
f 1827/1/5 1962/1/5 1886/1/5
f 1886/1/5 1962/1/5 1851/1/5
f 1962/1/5 1963/1/5 1952/1/5
f 1952/1/5 1963/1/5 1953/1/5
f 1963/1/5 1833/1/5 1354/1/5
f 1354/1/5 1833/1/5 1355/1/5
f 1833/2/5 1835/2/5 1942/2/5
f 1942/2/5 1835/2/5 1943/2/5
f 1835/1/5 1964/1/5 1889/1/5
f 1889/1/5 1964/1/5 1853/1/5
f 1964/1/5 1965/1/5 1954/1/5
f 1954/1/5 1965/1/5 1955/1/5
f 1965/1/5 1841/1/5 1358/1/5
f 1358/1/5 1841/1/5 1359/1/5
f 1841/2/5 1843/2/5 1944/2/5
f 1944/2/5 1843/2/5 1945/2/5
f 1843/1/5 1772/1/5 1892/1/5
f 1892/1/5 1772/1/5 1855/1/5
f 1966/1/6 1752/1/6 1967/1/6
f 1967/1/6 1752/1/6 1754/1/6
f 1968/1/6 1756/1/6 1969/1/6
f 1969/1/6 1756/1/6 1758/1/6
f 1970/1/6 1760/1/6 1971/1/6
f 1971/1/6 1760/1/6 1762/1/6
f 1972/1/6 1764/1/6 1973/1/6
f 1973/1/6 1764/1/6 1766/1/6
f 1974/1/6 1768/1/6 1975/1/6
f 1975/1/6 1768/1/6 1770/1/6
f 1775/2/6 151/2/6 1976/2/6
f 1976/2/6 151/2/6 1751/2/6
f 1977/2/6 1754/2/6 1978/2/6
f 1978/2/6 1754/2/6 1755/2/6
f 1979/2/6 1758/2/6 1980/2/6
f 1980/2/6 1758/2/6 1759/2/6
f 1981/2/6 1762/2/6 1982/2/6
f 1982/2/6 1762/2/6 1763/2/6
f 1983/2/6 1766/2/6 1984/2/6
f 1984/2/6 1766/2/6 1767/2/6
f 1985/2/6 1770/2/6 1986/2/6
f 1986/2/6 1770/2/6 1771/2/6
f 1777/1/6 1775/1/6 1987/1/6
f 1987/1/6 1775/1/6 1976/1/6
f 1988/1/6 1977/1/6 1989/1/6
f 1989/1/6 1977/1/6 1978/1/6
f 1990/1/6 1979/1/6 1991/1/6
f 1991/1/6 1979/1/6 1980/1/6
f 1992/1/6 1981/1/6 1993/1/6
f 1993/1/6 1981/1/6 1982/1/6
f 1994/1/6 1983/1/6 1995/1/6
f 1995/1/6 1983/1/6 1984/1/6
f 1996/1/6 1985/1/6 1997/1/6
f 1997/1/6 1985/1/6 1986/1/6
f 1998/2/6 1966/2/6 2000/2/6
f 2000/2/6 1966/2/6 1999/2/6
f 2001/2/6 1968/2/6 2003/2/6
f 2003/2/6 1968/2/6 2002/2/6
f 2004/2/6 1970/2/6 2006/2/6
f 2006/2/6 1970/2/6 2005/2/6
f 2007/2/6 1972/2/6 2009/2/6
f 2009/2/6 1972/2/6 2008/2/6
f 2010/2/6 1974/2/6 2012/2/6
f 2012/2/6 1974/2/6 2011/2/6
f 2013/1/6 1998/1/6 2014/1/6
f 2014/1/6 1998/1/6 2000/1/6
f 2015/1/6 2001/1/6 2016/1/6
f 2016/1/6 2001/1/6 2003/1/6
f 2017/1/6 2004/1/6 2018/1/6
f 2018/1/6 2004/1/6 2006/1/6
f 2019/1/6 2007/1/6 2020/1/6
f 2020/1/6 2007/1/6 2009/1/6
f 2021/1/6 2010/1/6 2022/1/6
f 2022/1/6 2010/1/6 2012/1/6
f 1781/2/6 1777/2/6 2023/2/6
f 2023/2/6 1777/2/6 1987/2/6
f 2024/2/6 1988/2/6 2025/2/6
f 2025/2/6 1988/2/6 1989/2/6
f 2026/2/6 1990/2/6 2027/2/6
f 2027/2/6 1990/2/6 1991/2/6
f 2028/2/6 1992/2/6 2029/2/6
f 2029/2/6 1992/2/6 1993/2/6
f 2030/2/6 1994/2/6 2031/2/6
f 2031/2/6 1994/2/6 1995/2/6
f 2032/2/6 1996/2/6 2033/2/6
f 2033/2/6 1996/2/6 1997/2/6
f 1783/1/6 1781/1/6 2034/1/6
f 2034/1/6 1781/1/6 2023/1/6
f 2035/1/6 2024/1/6 2036/1/6
f 2036/1/6 2024/1/6 2025/1/6
f 2037/1/6 2026/1/6 2038/1/6
f 2038/1/6 2026/1/6 2027/1/6
f 2039/1/6 2028/1/6 2040/1/6
f 2040/1/6 2028/1/6 2029/1/6
f 2041/1/6 2030/1/6 2042/1/6
f 2042/1/6 2030/1/6 2031/1/6
f 2043/1/6 2032/1/6 2044/1/6
f 2044/1/6 2032/1/6 2033/1/6
f 2045/2/6 2013/2/6 2046/2/6
f 2046/2/6 2013/2/6 2014/2/6
f 2047/2/6 2015/2/6 2048/2/6
f 2048/2/6 2015/2/6 2016/2/6
f 2049/2/6 2017/2/6 2050/2/6
f 2050/2/6 2017/2/6 2018/2/6
f 2051/2/6 2019/2/6 2052/2/6
f 2052/2/6 2019/2/6 2020/2/6
f 2053/2/6 2021/2/6 2054/2/6
f 2054/2/6 2021/2/6 2022/2/6
f 2055/1/6 2045/1/6 2056/1/6
f 2056/1/6 2045/1/6 2046/1/6
f 2057/1/6 2047/1/6 2058/1/6
f 2058/1/6 2047/1/6 2048/1/6
f 2059/1/6 2049/1/6 2060/1/6
f 2060/1/6 2049/1/6 2050/1/6
f 2061/1/6 2051/1/6 2062/1/6
f 2062/1/6 2051/1/6 2052/1/6
f 2063/1/6 2053/1/6 2064/1/6
f 2064/1/6 2053/1/6 2054/1/6
f 1787/2/6 1783/2/6 2065/2/6
f 2065/2/6 1783/2/6 2034/2/6
f 2066/2/6 2035/2/6 2067/2/6
f 2067/2/6 2035/2/6 2036/2/6
f 2068/2/6 2037/2/6 2069/2/6
f 2069/2/6 2037/2/6 2038/2/6
f 2070/2/6 2039/2/6 2071/2/6
f 2071/2/6 2039/2/6 2040/2/6
f 2072/2/6 2041/2/6 2073/2/6
f 2073/2/6 2041/2/6 2042/2/6
f 2074/2/6 2043/2/6 2075/2/6
f 2075/2/6 2043/2/6 2044/2/6
f 1789/1/6 1787/1/6 2076/1/6
f 2076/1/6 1787/1/6 2065/1/6
f 2076/1/6 1751/1/6 1804/1/6
f 1804/1/6 1751/1/6 1752/1/6
f 1804/2/6 2055/2/6 1806/2/6
f 1806/2/6 2055/2/6 2056/2/6
f 1806/1/6 1999/1/6 2077/1/6
f 2077/1/6 1999/1/6 1967/1/6
f 2077/1/6 2066/1/6 2078/1/6
f 2078/1/6 2066/1/6 2067/1/6
f 2078/1/6 1755/1/6 1812/1/6
f 1812/1/6 1755/1/6 1756/1/6
f 1812/2/6 2057/2/6 1814/2/6
f 1814/2/6 2057/2/6 2058/2/6
f 1814/1/6 2002/1/6 2079/1/6
f 2079/1/6 2002/1/6 1969/1/6
f 2079/1/6 2068/1/6 2080/1/6
f 2080/1/6 2068/1/6 2069/1/6
f 2080/1/6 1759/1/6 1820/1/6
f 1820/1/6 1759/1/6 1760/1/6
f 1820/2/6 2059/2/6 1822/2/6
f 1822/2/6 2059/2/6 2060/2/6
f 1822/1/6 2005/1/6 2081/1/6
f 2081/1/6 2005/1/6 1971/1/6
f 2081/1/6 2070/1/6 2082/1/6
f 2082/1/6 2070/1/6 2071/1/6
f 2082/1/6 1763/1/6 1828/1/6
f 1828/1/6 1763/1/6 1764/1/6
f 1828/2/6 2061/2/6 1830/2/6
f 1830/2/6 2061/2/6 2062/2/6
f 1830/1/6 2008/1/6 2083/1/6
f 2083/1/6 2008/1/6 1973/1/6
f 2083/1/6 2072/1/6 2084/1/6
f 2084/1/6 2072/1/6 2073/1/6
f 2084/1/6 1767/1/6 1836/1/6
f 1836/1/6 1767/1/6 1768/1/6
f 1836/2/6 2063/2/6 1838/2/6
f 1838/2/6 2063/2/6 2064/2/6
f 1838/1/6 2011/1/6 2085/1/6
f 2085/1/6 2011/1/6 1975/1/6
f 2085/1/6 2074/1/6 2086/1/6
f 2086/1/6 2074/1/6 2075/1/6
f 2086/1/6 1771/1/6 1773/1/6
f 1773/1/6 1771/1/6 9/1/6
