# Vengi binary mesh normalized for Tanks of Freedom II

mtllib ../../materials/vox_building.mtl
o admiral

v -0.2 0.3 0.2
v -0.3 0.3 0.2
v -0.3 0.3 0.3
v -0.2 0.3 0.3
v 0.2 1 0.1
v 0.1 1 0.1
v 0.1 1 0.2
v 0.2 1 0.2
v 0.1 1.1 0.1
v -0.1 1.1 0.1
v -0.1 1.1 0.2
v 0.1 1.1 0.2
v -0.1 1 0.1
v -0.2 1 0.1
v -0.2 1 0.2
v -0.1 1 0.2
v -0.2 0.3 0.1
v -0.3 0.3 0.1
v 0.4 0.7 0
v 0.3 0.7 0
v 0.3 0.7 0.1
v 0.4 0.7 0.1
v 0.4 1 0
v 0.3 1 0
v 0.3 1 0.1
v 0.4 1 0.1
v 0.3 0.4 0
v 0.2 0.4 0
v 0.2 0.4 0.1
v 0.3 0.4 0.1
v 0.3 0.8 0
v 0.2 0.8 0
v 0.2 0.8 0.1
v 0.3 0.8 0.1
v 0.3 1.1 0
v 0.2 1.1 0
v 0.2 1.1 0.1
v 0.3 1.1 0.1
v 0.2 1.2 0
v 0.1 1.2 0
v 0.1 1.2 0.1
v 0.2 1.2 0.1
v 0.1 1.3 0
v -0.1 1.3 0
v -0.1 1.3 0.1
v 0.1 1.3 0.1
v -0.1 1.2 0
v -0.2 1.2 0
v -0.2 1.2 0.1
v -0.1 1.2 0.1
v -0.2 0.8 0
v -0.3 0.8 0
v -0.3 0.8 0.1
v -0.2 0.8 0.1
v -0.2 1.1 0
v -0.3 1.1 0
v -0.3 1.1 0.1
v -0.2 1.1 0.1
v -0.3 0.7 0
v -0.4 0.7 0
v -0.4 0.7 0.1
v -0.3 0.7 0.1
v -0.3 1 0
v -0.4 1 0
v -0.4 1 0.1
v -0.3 1 0.1
v 0.2 1 -0.1
v 0.1 1 -0.1
v 0.1 1 0
v 0.2 1 0
v 0.1 1.1 -0.1
v -0.1 1.1 -0.1
v -0.1 1.1 0
v 0.1 1.1 0
v -0.1 1 -0.1
v -0.2 1 -0.1
v -0.2 1 0
v -0.1 1 0
v -0.2 0.3 -0.1
v -0.3 0.3 -0.1
v -0.3 0.3 0
v -0.2 0.3 0
v -0.2 0.2 0.2
v -0.2 0.2 0.3
v -0.3 0.2 0.3
v -0.3 0.2 0.2
v 0.2 0.3 0.1
v 0.2 0.3 0.2
v 0.4 0.4 0
v 0.4 0.4 0.1
v 0.4 0.9 0
v 0.4 0.9 0.1
v 0.3 0.9 0.1
v 0.3 0.9 0
v 0.3 0.3 0
v 0.3 0.3 0.1
v 0.2 0.3 0
v 0.3 0.6 0
v 0.3 0.6 0.1
v 0.2 0.6 0.1
v 0.2 0.6 0
v 0.2 0.9 0.1
v 0.2 0.9 0
v 0.2 0 0
v 0.2 0 0.1
v 0.1 0 0.1
v 0.1 0 0
v -0.1 0 0
v -0.1 0 0.1
v -0.2 0 0.1
v -0.2 0 0
v -0.2 0.9 0
v -0.2 0.9 0.1
v -0.3 0.9 0.1
v -0.3 0.9 0
v -0.3 0.6 0
v -0.3 0.6 0.1
v -0.4 0.6 0.1
v -0.4 0.6 0
v -0.4 0.9 0.1
v -0.4 0.9 0
v 0.2 0.3 -0.1
v 0.1 0.3 0
v 0.1 0.3 -0.1
v 0.1 0.3 0.1
v -0.1 0.3 0.1
v -0.1 0.3 -0.1
v -0.1 0.3 0
v -0.2 0.2 -0.1
v -0.3 0.2 -0.1
v 0.1 0.1 0.1
v 0.1 0.1 0
v -0.2 0.1 0.1
v -0.2 0.1 0
v -0.2 0.2 0.1
v -0.2 0.2 0
v -0.2 0.4 0.2
v -0.2 0.4 0.1
v -0.3 0.4 0.1
v -0.3 0.4 0
v -0.2 0.4 0
v -0.2 0.4 -0.1
v -0.2 0.5 0.2
v -0.2 0.5 0.1
v -0.2 0.7 0.2
v -0.2 0.7 0.1
v -0.2 0.7 0
v -0.2 0.7 -0.1
v -0.2 0.8 0.2
v -0.2 0.8 -0.1
v -0.2 0.9 0.2
v -0.2 0.9 -0.1
v 0.2 0.1 0.1
v 0.2 0.1 0
v -0.1 0.1 0.1
v -0.1 0.1 0
v 0.2 0.4 0.2
v 0.2 0.4 -0.1
v 0.4 0.6 0.1
v 0.4 0.6 0
v 0.2 0.6 -0.1
v 0.2 0.7 0.2
v 0.2 0.7 0.1
v 0.2 0.7 0
v 0.2 0.7 -0.1
v 0.2 0.8 0.2
v 0.2 0.8 -0.1
v 0.2 0.9 0.2
v 0.2 0.9 -0.1
v -0.2 0.6 0
v 0.1 0.7 0.2
v 0.1 0.8 0.2
v 0.1 0.9 0.2
v 0 0.4 0.2
v 0 0.7 0.2
v -0.1 0.4 0.2
v 0 0.5 0.2
v -0.1 0.5 0.2
v -0.1 0.7 0.2
v -0.1 0.8 0.2
v -0.1 0.9 0.2
v -0.2 0.6 0.1

vt 0.00585938 0.5
vt 0.0136719 0.5
vt 0.0253906 0.5
vt 0.0292969 0.5
vt 0.0605469 0.5
vt 0.0683594 0.5
vt 0.0722656 0.5
vt 0.103516 0.5
vt 0.123047 0.5
vt 0.158203 0.5
vt 0.162109 0.5
vt 0.166016 0.5

vn 0 1 0
vn 0 -1 0
vn -1 0 0
vn 1 0 0
vn 0 0 -1
vn 0 0 1

usemtl palette
f 1/5/1 2/5/1 4/5/1
f 4/5/1 2/5/1 3/5/1
f 5/10/1 6/10/1 8/10/1
f 8/10/1 6/10/1 7/10/1
f 9/10/1 10/10/1 12/10/1
f 12/10/1 10/10/1 11/10/1
f 13/10/1 14/10/1 16/10/1
f 16/10/1 14/10/1 15/10/1
f 17/6/1 18/6/1 1/6/1
f 1/6/1 18/6/1 2/6/1
f 19/3/1 20/3/1 22/3/1
f 22/3/1 20/3/1 21/3/1
f 23/3/1 24/3/1 26/3/1
f 26/3/1 24/3/1 25/3/1
f 27/4/1 28/4/1 30/4/1
f 30/4/1 28/4/1 29/4/1
f 31/3/1 32/3/1 34/3/1
f 34/3/1 32/3/1 33/3/1
f 35/3/1 36/3/1 38/3/1
f 38/3/1 36/3/1 37/3/1
f 39/3/1 40/3/1 42/3/1
f 42/3/1 40/3/1 41/3/1
f 43/3/1 44/3/1 46/3/1
f 46/3/1 44/3/1 45/3/1
f 47/3/1 48/3/1 50/3/1
f 50/3/1 48/3/1 49/3/1
f 51/3/1 52/3/1 54/3/1
f 54/3/1 52/3/1 53/3/1
f 55/3/1 56/3/1 58/3/1
f 58/3/1 56/3/1 57/3/1
f 59/3/1 60/3/1 62/3/1
f 62/3/1 60/3/1 61/3/1
f 63/3/1 64/3/1 66/3/1
f 66/3/1 64/3/1 65/3/1
f 67/10/1 68/10/1 70/10/1
f 70/10/1 68/10/1 69/10/1
f 71/10/1 72/10/1 74/10/1
f 74/10/1 72/10/1 73/10/1
f 75/10/1 76/10/1 78/10/1
f 78/10/1 76/10/1 77/10/1
f 79/6/1 80/6/1 82/6/1
f 82/6/1 80/6/1 81/6/1
f 83/5/2 84/5/2 86/5/2
f 86/5/2 84/5/2 85/5/2
f 87/4/2 88/4/2 17/4/2
f 17/4/2 88/4/2 1/4/2
f 89/12/2 90/12/2 27/12/2
f 27/12/2 90/12/2 30/12/2
f 91/3/2 92/3/2 94/3/2
f 94/3/2 92/3/2 93/3/2
f 95/4/2 96/4/2 97/4/2
f 97/4/2 96/4/2 87/4/2
f 98/4/2 99/4/2 101/4/2
f 101/4/2 99/4/2 100/4/2
f 94/10/2 93/10/2 103/10/2
f 103/10/2 93/10/2 102/10/2
f 104/10/2 105/10/2 107/10/2
f 107/10/2 105/10/2 106/10/2
f 108/10/2 109/10/2 111/10/2
f 111/10/2 109/10/2 110/10/2
f 112/10/2 113/10/2 115/10/2
f 115/10/2 113/10/2 114/10/2
f 116/3/2 117/3/2 119/3/2
f 119/3/2 117/3/2 118/3/2
f 115/3/2 114/3/2 121/3/2
f 121/3/2 114/3/2 120/3/2
f 122/4/2 97/4/2 124/4/2
f 124/4/2 97/4/2 123/4/2
f 124/4/2 125/4/2 127/4/2
f 127/4/2 125/4/2 126/4/2
f 127/4/2 128/4/2 79/4/2
f 79/4/2 128/4/2 82/4/2
f 129/6/2 83/6/2 130/6/2
f 130/6/2 83/6/2 86/6/2
f 131/10/3 132/10/3 106/10/3
f 106/10/3 132/10/3 107/10/3
f 133/10/3 134/10/3 110/10/3
f 110/10/3 134/10/3 111/10/3
f 135/4/3 136/4/3 133/4/3
f 133/4/3 136/4/3 134/4/3
f 3/5/3 2/5/3 85/5/3
f 85/5/3 2/5/3 86/5/3
f 125/4/3 123/4/3 131/4/3
f 131/4/3 123/4/3 132/4/3
f 2/6/3 80/6/3 86/6/3
f 86/6/3 80/6/3 130/6/3
f 137/4/3 138/4/3 1/4/3
f 1/4/3 138/4/3 17/4/3
f 139/4/3 140/4/3 18/4/3
f 18/4/3 140/4/3 81/4/3
f 141/4/3 142/4/3 82/4/3
f 82/4/3 142/4/3 79/4/3
f 143/11/3 144/11/3 137/11/3
f 137/11/3 144/11/3 138/11/3
f 99/12/3 98/12/3 30/12/3
f 30/12/3 98/12/3 27/12/3
f 117/12/3 116/12/3 139/12/3
f 139/12/3 116/12/3 140/12/3
f 145/3/3 146/3/3 143/3/3
f 143/3/3 146/3/3 144/3/3
f 61/3/3 60/3/3 118/3/3
f 118/3/3 60/3/3 119/3/3
f 147/11/3 148/11/3 141/11/3
f 141/11/3 148/11/3 142/11/3
f 149/9/3 54/9/3 145/9/3
f 145/9/3 54/9/3 146/9/3
f 53/3/3 52/3/3 62/3/3
f 62/3/3 52/3/3 59/3/3
f 51/9/3 150/9/3 147/9/3
f 147/9/3 150/9/3 148/9/3
f 151/8/3 113/8/3 149/8/3
f 149/8/3 113/8/3 54/8/3
f 113/7/3 152/7/3 54/7/3
f 54/7/3 152/7/3 150/7/3
f 15/10/3 14/10/3 151/10/3
f 151/10/3 14/10/3 113/10/3
f 65/3/3 64/3/3 120/3/3
f 120/3/3 64/3/3 121/3/3
f 77/10/3 76/10/3 112/10/3
f 112/10/3 76/10/3 152/10/3
f 11/10/3 10/10/3 16/10/3
f 16/10/3 10/10/3 13/10/3
f 57/3/3 56/3/3 66/3/3
f 66/3/3 56/3/3 63/3/3
f 73/10/3 72/10/3 78/10/3
f 78/10/3 72/10/3 75/10/3
f 49/3/3 48/3/3 58/3/3
f 58/3/3 48/3/3 55/3/3
f 45/3/3 44/3/3 50/3/3
f 50/3/3 44/3/3 47/3/3
f 153/10/4 105/10/4 154/10/4
f 154/10/4 105/10/4 104/10/4
f 155/10/4 109/10/4 156/10/4
f 156/10/4 109/10/4 108/10/4
f 4/5/4 84/5/4 1/5/4
f 1/5/4 84/5/4 83/5/4
f 1/6/4 83/6/4 17/6/4
f 17/6/4 83/6/4 135/6/4
f 87/4/4 153/4/4 97/4/4
f 97/4/4 153/4/4 154/4/4
f 126/4/4 155/4/4 128/4/4
f 128/4/4 155/4/4 156/4/4
f 82/6/4 136/6/4 79/6/4
f 79/6/4 136/6/4 129/6/4
f 157/4/4 88/4/4 29/4/4
f 29/4/4 88/4/4 87/4/4
f 30/4/4 96/4/4 27/4/4
f 27/4/4 96/4/4 95/4/4
f 28/4/4 97/4/4 158/4/4
f 158/4/4 97/4/4 122/4/4
f 159/12/4 90/12/4 160/12/4
f 160/12/4 90/12/4 89/12/4
f 100/11/4 29/11/4 161/11/4
f 161/11/4 29/11/4 158/11/4
f 162/11/4 157/11/4 163/11/4
f 163/11/4 157/11/4 29/11/4
f 22/3/4 159/3/4 19/3/4
f 19/3/4 159/3/4 160/3/4
f 164/11/4 101/11/4 165/11/4
f 165/11/4 101/11/4 161/11/4
f 166/9/4 162/9/4 33/9/4
f 33/9/4 162/9/4 163/9/4
f 34/3/4 21/3/4 31/3/4
f 31/3/4 21/3/4 20/3/4
f 32/9/4 164/9/4 167/9/4
f 167/9/4 164/9/4 165/9/4
f 168/8/4 166/8/4 102/8/4
f 102/8/4 166/8/4 33/8/4
f 102/7/4 33/7/4 169/7/4
f 169/7/4 33/7/4 167/7/4
f 8/10/4 168/10/4 5/10/4
f 5/10/4 168/10/4 102/10/4
f 26/3/4 92/3/4 23/3/4
f 23/3/4 92/3/4 91/3/4
f 70/10/4 103/10/4 67/10/4
f 67/10/4 103/10/4 169/10/4
f 12/10/4 7/10/4 9/10/4
f 9/10/4 7/10/4 6/10/4
f 38/3/4 25/3/4 35/3/4
f 35/3/4 25/3/4 24/3/4
f 74/10/4 69/10/4 71/10/4
f 71/10/4 69/10/4 68/10/4
f 42/3/4 37/3/4 39/3/4
f 39/3/4 37/3/4 36/3/4
f 46/3/4 41/3/4 43/3/4
f 43/3/4 41/3/4 40/3/4
f 27/12/5 98/12/5 89/12/5
f 89/12/5 98/12/5 160/12/5
f 98/3/5 20/3/5 160/3/5
f 160/3/5 20/3/5 19/3/5
f 94/3/5 24/3/5 91/3/5
f 91/3/5 24/3/5 23/3/5
f 97/4/5 28/4/5 95/4/5
f 95/4/5 28/4/5 27/4/5
f 101/4/5 164/4/5 98/4/5
f 98/4/5 164/4/5 20/4/5
f 164/3/5 32/3/5 20/3/5
f 20/3/5 32/3/5 31/3/5
f 103/10/5 70/10/5 94/10/5
f 94/10/5 70/10/5 24/10/5
f 70/3/5 36/3/5 24/3/5
f 24/3/5 36/3/5 35/3/5
f 107/10/5 132/10/5 104/10/5
f 104/10/5 132/10/5 154/10/5
f 132/4/5 123/4/5 154/4/5
f 154/4/5 123/4/5 97/4/5
f 69/10/5 74/10/5 70/10/5
f 70/10/5 74/10/5 36/10/5
f 74/3/5 40/3/5 36/3/5
f 36/3/5 40/3/5 39/3/5
f 75/10/5 72/10/5 68/10/5
f 68/10/5 72/10/5 71/10/5
f 73/10/5 47/10/5 74/10/5
f 74/10/5 47/10/5 40/10/5
f 47/3/5 44/3/5 40/3/5
f 40/3/5 44/3/5 43/3/5
f 111/10/5 134/10/5 108/10/5
f 108/10/5 134/10/5 156/10/5
f 134/4/5 82/4/5 156/4/5
f 156/4/5 82/4/5 128/4/5
f 79/4/5 142/4/5 122/4/5
f 122/4/5 142/4/5 158/4/5
f 142/11/5 148/11/5 158/11/5
f 158/11/5 148/11/5 165/11/5
f 148/9/5 150/9/5 165/9/5
f 165/9/5 150/9/5 167/9/5
f 150/7/5 152/7/5 167/7/5
f 167/7/5 152/7/5 169/7/5
f 152/10/5 76/10/5 169/10/5
f 169/10/5 76/10/5 67/10/5
f 77/10/5 55/10/5 78/10/5
f 78/10/5 55/10/5 73/10/5
f 55/3/5 48/3/5 73/3/5
f 73/3/5 48/3/5 47/3/5
f 130/6/5 80/6/5 129/6/5
f 129/6/5 80/6/5 79/6/5
f 81/4/5 140/4/5 82/4/5
f 82/4/5 140/4/5 141/4/5
f 140/12/5 116/12/5 141/12/5
f 141/12/5 116/12/5 170/12/5
f 116/4/5 59/4/5 170/4/5
f 170/4/5 59/4/5 147/4/5
f 59/3/5 52/3/5 147/3/5
f 147/3/5 52/3/5 51/3/5
f 115/10/5 63/10/5 112/10/5
f 112/10/5 63/10/5 77/10/5
f 63/3/5 56/3/5 77/3/5
f 77/3/5 56/3/5 55/3/5
f 119/3/5 60/3/5 116/3/5
f 116/3/5 60/3/5 59/3/5
f 121/3/5 64/3/5 115/3/5
f 115/3/5 64/3/5 63/3/5
f 30/12/6 90/12/6 99/12/6
f 99/12/6 90/12/6 159/12/6
f 99/3/6 159/3/6 21/3/6
f 21/3/6 159/3/6 22/3/6
f 93/3/6 92/3/6 25/3/6
f 25/3/6 92/3/6 26/3/6
f 87/4/6 96/4/6 29/4/6
f 29/4/6 96/4/6 30/4/6
f 100/4/6 99/4/6 163/4/6
f 163/4/6 99/4/6 21/4/6
f 163/3/6 21/3/6 33/3/6
f 33/3/6 21/3/6 34/3/6
f 102/10/6 93/10/6 5/10/6
f 5/10/6 93/10/6 25/10/6
f 5/3/6 25/3/6 37/3/6
f 37/3/6 25/3/6 38/3/6
f 106/10/6 105/10/6 131/10/6
f 131/10/6 105/10/6 153/10/6
f 131/4/6 153/4/6 125/4/6
f 125/4/6 153/4/6 87/4/6
f 171/9/6 162/9/6 172/9/6
f 172/9/6 162/9/6 166/9/6
f 172/8/6 166/8/6 173/8/6
f 173/8/6 166/8/6 168/8/6
f 6/10/6 5/10/6 9/10/6
f 9/10/6 5/10/6 37/10/6
f 9/3/6 37/3/6 41/3/6
f 41/3/6 37/3/6 42/3/6
f 174/11/6 157/11/6 175/11/6
f 175/11/6 157/11/6 162/11/6
f 176/3/6 174/3/6 178/3/6
f 178/3/6 174/3/6 177/3/6
f 178/11/6 177/11/6 179/11/6
f 179/11/6 177/11/6 175/11/6
f 179/2/6 171/2/6 180/2/6
f 180/2/6 171/2/6 172/2/6
f 180/9/6 172/9/6 181/9/6
f 181/9/6 172/9/6 173/9/6
f 16/10/6 7/10/6 11/10/6
f 11/10/6 7/10/6 12/10/6
f 10/10/6 9/10/6 50/10/6
f 50/10/6 9/10/6 41/10/6
f 50/3/6 41/3/6 45/3/6
f 45/3/6 41/3/6 46/3/6
f 110/10/6 109/10/6 133/10/6
f 133/10/6 109/10/6 155/10/6
f 133/4/6 155/4/6 17/4/6
f 17/4/6 155/4/6 126/4/6
f 1/4/6 88/4/6 137/4/6
f 137/4/6 88/4/6 157/4/6
f 137/11/6 176/11/6 143/11/6
f 143/11/6 176/11/6 178/11/6
f 143/3/6 178/3/6 145/3/6
f 145/3/6 178/3/6 179/3/6
f 145/9/6 179/9/6 149/9/6
f 149/9/6 179/9/6 180/9/6
f 149/8/6 180/8/6 151/8/6
f 151/8/6 180/8/6 181/8/6
f 151/10/6 168/10/6 15/10/6
f 15/10/6 168/10/6 8/10/6
f 14/10/6 13/10/6 58/10/6
f 58/10/6 13/10/6 10/10/6
f 58/3/6 10/3/6 49/3/6
f 49/3/6 10/3/6 50/3/6
f 85/5/6 84/5/6 3/5/6
f 3/5/6 84/5/6 4/5/6
f 18/4/6 17/4/6 139/4/6
f 139/4/6 17/4/6 138/4/6
f 139/12/6 138/12/6 117/12/6
f 117/12/6 138/12/6 182/12/6
f 117/4/6 182/4/6 62/4/6
f 62/4/6 182/4/6 146/4/6
f 62/3/6 146/3/6 53/3/6
f 53/3/6 146/3/6 54/3/6
f 114/10/6 113/10/6 66/10/6
f 66/10/6 113/10/6 14/10/6
f 66/3/6 14/3/6 57/3/6
f 57/3/6 14/3/6 58/3/6
f 118/3/6 117/3/6 61/3/6
f 61/3/6 117/3/6 62/3/6
f 120/3/6 114/3/6 65/3/6
f 65/3/6 114/3/6 66/3/6
