# Vengi binary mesh normalized for Tanks of Freedom II

mtllib ../../materials/vox_building.mtl
o captain

v 0.3 0.8 0.2
v 0.2 0.8 0.2
v 0.2 0.8 0.3
v 0.3 0.8 0.3
v 0.2 0.7 0.2
v 0.1 0.7 0.2
v 0.1 0.7 0.3
v 0.2 0.7 0.3
v -0.1 0.7 0.2
v -0.2 0.7 0.2
v -0.2 0.7 0.3
v -0.1 0.7 0.3
v 0.2 1 0.2
v -0.2 1 0.2
v -0.2 1 0.3
v 0.2 1 0.3
v -0.2 0.8 0.2
v -0.3 0.8 0.2
v -0.3 0.8 0.3
v -0.2 0.8 0.3
v 0.2 1.1 0.1
v 0.1 1.1 0.1
v 0.1 1.1 0.2
v 0.2 1.1 0.2
v -0.1 1.1 0.1
v -0.2 1.1 0.1
v -0.2 1.1 0.2
v -0.1 1.1 0.2
v -0.6 0.4 0.1
v -0.7 0.4 0.1
v -0.7 0.4 0.2
v -0.6 0.4 0.2
v -0.6 0.6 0.1
v -0.7 0.6 0.1
v -0.7 0.6 0.2
v -0.6 0.6 0.2
v -0.6 0.8 0.1
v -0.7 0.8 0.1
v -0.7 0.8 0.2
v -0.6 0.8 0.2
v 0.4 0.6 0
v 0.3 0.6 0
v 0.3 0.6 0.1
v 0.4 0.6 0.1
v 0.3 0.4 0
v 0.2 0.4 0
v 0.2 0.4 0.1
v 0.3 0.4 0.1
v 0.2 1.2 0
v 0.1 1.2 0
v 0.1 1.2 0.1
v 0.2 1.2 0.1
v -0.1 1.2 0
v -0.2 1.2 0
v -0.2 1.2 0.1
v -0.1 1.2 0.1
v -0.3 0.6 0
v -0.4 0.6 0
v -0.4 0.6 0.1
v -0.3 0.6 0.1
v -0.4 0.3 0
v -0.5 0.3 0
v -0.5 0.3 0.1
v -0.4 0.3 0.1
v -0.4 0.5 0
v -0.5 0.5 0
v -0.5 0.5 0.1
v -0.4 0.5 0.1
v -0.5 0.4 0
v -0.6 0.4 0
v -0.5 0.4 0.1
v -0.5 0.6 0
v -0.6 0.6 0
v -0.5 0.6 0.1
v -0.5 0.8 0
v -0.6 0.8 0
v -0.5 0.8 0.1
v -0.7 0.4 0
v -0.7 0.8 0
v -0.8 0.8 0
v -0.8 0.8 0.1
v 0.3 0.9 -0.1
v 0.2 0.9 -0.1
v 0.2 0.9 0.2
v 0.3 0.9 0.2
v 0.2 0.4 -0.1
v 0.1 0.4 -0.1
v 0.1 0.4 0
v 0.2 1 -0.1
v 0.1 1 -0.1
v 0.1 1 0.1
v 0.2 1 0.1
v 0.2 1.3 -0.1
v 0.1 1.3 -0.1
v 0.1 1.3 0
v 0.2 1.3 0
v 0.1 1.1 -0.1
v -0.1 1.1 -0.1
v -0.1 0.4 -0.1
v -0.2 0.4 -0.1
v -0.2 0.4 0
v -0.1 0.4 0
v -0.1 1 -0.1
v -0.2 1 -0.1
v -0.2 1 0.1
v -0.1 1 0.1
v -0.1 1.3 -0.1
v -0.2 1.3 -0.1
v -0.2 1.3 0
v -0.1 1.3 0
v -0.2 0.9 -0.1
v -0.3 0.9 -0.1
v -0.3 0.9 0.2
v -0.2 0.9 0.2
v -0.6 0.4 -0.1
v -0.7 0.4 -0.1
v -0.6 0.6 -0.1
v -0.7 0.6 -0.1
v -0.7 0.6 0
v -0.6 0.8 -0.1
v -0.7 0.8 -0.1
v 0.2 1.3 -0.2
v 0.1 1.3 -0.2
v 0.2 0.9 -0.2
v -0.2 0.9 -0.2
v -0.1 1.3 -0.2
v -0.2 1.3 -0.2
v 0.2 0.6 0.2
v 0.2 0.6 0.3
v 0.1 0.6 0.3
v 0.1 0.6 0.2
v -0.1 0.6 0.2
v -0.1 0.6 0.3
v -0.2 0.6 0.3
v -0.2 0.6 0.2
v 0.2 0.9 0.3
v -0.2 0.9 0.3
v 0.3 0.7 0.1
v 0.3 0.7 0.3
v 0.2 0.7 0.1
v 0.2 0.2 0.1
v 0.2 0.2 0.2
v 0.1 0.2 0.2
v 0.1 0.2 0.1
v -0.1 0.2 0.1
v -0.1 0.2 0.2
v -0.2 0.2 0.2
v -0.2 0.2 0.1
v -0.2 0.7 0.1
v -0.3 0.7 0.3
v -0.3 0.7 0.1
v -0.6 0.2 0.1
v -0.6 0.2 0.2
v -0.7 0.2 0.2
v -0.7 0.2 0.1
v -0.6 0.5 0.1
v -0.6 0.5 0.2
v -0.7 0.5 0.2
v -0.7 0.5 0.1
v -0.6 0.7 0.1
v -0.6 0.7 0.2
v -0.7 0.7 0.2
v -0.7 0.7 0.1
v 0.4 0.4 0
v 0.4 0.4 0.1
v 0.3 0.3 0
v 0.3 0.3 0.1
v 0.2 0.3 0.1
v 0.2 0.3 0
v 0.2 0.6 0.1
v 0.2 0.6 0
v 0.2 0 0
v 0.2 0 0.1
v 0.1 0 0.1
v 0.1 0 0
v 0.2 1.1 0
v 0.1 1.1 0
v 0.1 0.3 0
v 0.1 0.3 0.2
v -0.1 0.3 0.2
v -0.1 0.3 0
v -0.1 0 0
v -0.1 0 0.1
v -0.2 0 0.1
v -0.2 0 0
v -0.1 1.1 0
v -0.2 1.1 0
v -0.2 0.6 0
v -0.2 0.6 0.1
v -0.3 0.5 0
v -0.3 0.5 0.1
v -0.4 0.2 0
v -0.4 0.2 0.1
v -0.5 0.2 0.1
v -0.5 0.2 0
v -0.4 0.4 0
v -0.4 0.4 0.1
v -0.5 0.1 0
v -0.5 0.1 0.1
v -0.6 0.1 0.1
v -0.6 0.1 0
v -0.6 0.5 0
v -0.5 0.7 0
v -0.5 0.7 0.1
v -0.6 0.7 0
v -0.6 0 0
v -0.6 0 0.1
v -0.7 0 0.1
v -0.7 0 0
v -0.7 0.2 0
v -0.8 0.2 0.1
v -0.8 0.2 0
v 0.3 0.7 -0.1
v 0.3 0.7 0
v 0.2 0.7 0
v 0.2 0.7 -0.1
v 0.2 0.6 -0.1
v 0.1 0.6 0
v 0.1 0.6 -0.1
v 0.2 1.2 -0.1
v 0.1 1.2 -0.1
v 0.2 0.2 -0.1
v 0.2 0.2 0
v -0.2 0.2 0
v -0.2 0.2 -0.1
v -0.1 0.6 -0.1
v -0.1 0.6 0
v -0.2 0.6 -0.1
v -0.1 1.2 -0.1
v -0.2 1.2 -0.1
v -0.2 0.7 -0.1
v -0.2 0.7 0
v -0.3 0.7 0
v -0.3 0.7 -0.1
v -0.6 0.2 -0.1
v -0.6 0.2 0
v -0.7 0.2 -0.1
v -0.6 0.5 -0.1
v -0.7 0.5 0
v -0.7 0.5 -0.1
v -0.6 0.7 -0.1
v -0.7 0.7 0
v -0.7 0.7 -0.1
v 0.2 1.2 -0.2
v 0.1 1.2 -0.2
v 0.2 0.7 -0.2
v -0.2 0.7 -0.2
v -0.1 1.2 -0.2
v -0.2 1.2 -0.2
v 0.1 0.1 0.1
v 0.1 0.1 0
v -0.2 0.1 0.1
v -0.2 0.1 0
v -0.7 0.1 0.1
v -0.7 0.1 0
v 0.1 0.2 0
v -0.2 0.4 0.2
v 0.3 0.5 0.1
v 0.3 0.5 0
v -0.2 0.5 0.1
v -0.2 0.5 0
v -0.2 0.4 0.1
v -0.1 0.5 0
v -0.1 0.5 -0.1
v -0.3 0.8 -0.1
v 0.2 0.1 0.1
v 0.2 0.1 0
v -0.1 0.1 0.1
v -0.1 0.1 0
v -0.1 0.2 0
v 0.2 0.4 0.2
v 0.4 0.5 0.1
v 0.4 0.5 0
v 0.2 0.5 0.1
v 0.2 0.5 0
v 0.1 0.5 0
v 0.1 0.5 -0.1
v 0.3 0.8 -0.1
v -0.6 0.3 0
v 0.1 0.4 0.2
v 0.1 0.5 0.2
v 0.2 0.5 0.2
v 0.1 0.8 0.2
v 0.1 0.9 0.2
v 0.1 1 0.2
v -0.1 0.5 0.2
v -0.1 0.8 0.2
v -0.1 0.9 0.2
v -0.1 1 0.2
v -0.2 0.3 0.2
v -0.2 0.5 0.2
v -0.6 0.3 0.1

vt 0.00585938 0.5
vt 0.0136719 0.5
vt 0.0292969 0.5
vt 0.0371094 0.5
vt 0.0410156 0.5
vt 0.0683594 0.5
vt 0.0839844 0.5
vt 0.107422 0.5
vt 0.123047 0.5
vt 0.158203 0.5
vt 0.162109 0.5
vt 0.166016 0.5

vn 0 1 0
vn 0 -1 0
vn -1 0 0
vn 1 0 0
vn 0 0 -1
vn 0 0 1

usemtl palette
f 1/12/1 2/12/1 4/12/1
f 4/12/1 2/12/1 3/12/1
f 5/12/1 6/12/1 8/12/1
f 8/12/1 6/12/1 7/12/1
f 9/12/1 10/12/1 12/12/1
f 12/12/1 10/12/1 11/12/1
f 13/11/1 14/11/1 16/11/1
f 16/11/1 14/11/1 15/11/1
f 17/12/1 18/12/1 20/12/1
f 20/12/1 18/12/1 19/12/1
f 21/6/1 22/6/1 24/6/1
f 24/6/1 22/6/1 23/6/1
f 25/6/1 26/6/1 28/6/1
f 28/6/1 26/6/1 27/6/1
f 29/5/1 30/5/1 32/5/1
f 32/5/1 30/5/1 31/5/1
f 33/5/1 34/5/1 36/5/1
f 36/5/1 34/5/1 35/5/1
f 37/5/1 38/5/1 40/5/1
f 40/5/1 38/5/1 39/5/1
f 41/3/1 42/3/1 44/3/1
f 44/3/1 42/3/1 43/3/1
f 45/9/1 46/9/1 48/9/1
f 48/9/1 46/9/1 47/9/1
f 49/6/1 50/6/1 52/6/1
f 52/6/1 50/6/1 51/6/1
f 53/6/1 54/6/1 56/6/1
f 56/6/1 54/6/1 55/6/1
f 57/3/1 58/3/1 60/3/1
f 60/3/1 58/3/1 59/3/1
f 61/4/1 62/4/1 64/4/1
f 64/4/1 62/4/1 63/4/1
f 65/9/1 66/9/1 68/9/1
f 68/9/1 66/9/1 67/9/1
f 69/5/1 70/5/1 71/5/1
f 71/5/1 70/5/1 29/5/1
f 72/5/1 73/5/1 74/5/1
f 74/5/1 73/5/1 33/5/1
f 75/5/1 76/5/1 77/5/1
f 77/5/1 76/5/1 37/5/1
f 70/8/1 78/8/1 29/8/1
f 29/8/1 78/8/1 30/8/1
f 79/10/1 80/10/1 38/10/1
f 38/10/1 80/10/1 81/10/1
f 82/12/1 83/12/1 85/12/1
f 85/12/1 83/12/1 84/12/1
f 86/3/1 87/3/1 46/3/1
f 46/3/1 87/3/1 88/3/1
f 89/12/1 90/12/1 92/12/1
f 92/12/1 90/12/1 91/12/1
f 93/6/1 94/6/1 96/6/1
f 96/6/1 94/6/1 95/6/1
f 97/12/1 98/12/1 23/12/1
f 23/12/1 98/12/1 28/12/1
f 99/3/1 100/3/1 102/3/1
f 102/3/1 100/3/1 101/3/1
f 103/12/1 104/12/1 106/12/1
f 106/12/1 104/12/1 105/12/1
f 107/6/1 108/6/1 110/6/1
f 110/6/1 108/6/1 109/6/1
f 111/12/1 112/12/1 114/12/1
f 114/12/1 112/12/1 113/12/1
f 115/5/1 116/5/1 70/5/1
f 70/5/1 116/5/1 78/5/1
f 117/5/1 118/5/1 73/5/1
f 73/5/1 118/5/1 119/5/1
f 120/5/1 121/5/1 76/5/1
f 76/5/1 121/5/1 79/5/1
f 122/10/1 123/10/1 93/10/1
f 93/10/1 123/10/1 94/10/1
f 124/12/1 125/12/1 83/12/1
f 83/12/1 125/12/1 111/12/1
f 126/10/1 127/10/1 107/10/1
f 107/10/1 127/10/1 108/10/1
f 128/12/2 129/12/2 131/12/2
f 131/12/2 129/12/2 130/12/2
f 132/12/2 133/12/2 135/12/2
f 135/12/2 133/12/2 134/12/2
f 84/11/2 136/11/2 114/11/2
f 114/11/2 136/11/2 137/11/2
f 138/12/2 139/12/2 140/12/2
f 140/12/2 139/12/2 8/12/2
f 141/10/2 142/10/2 144/10/2
f 144/10/2 142/10/2 143/10/2
f 145/10/2 146/10/2 148/10/2
f 148/10/2 146/10/2 147/10/2
f 149/12/2 11/12/2 151/12/2
f 151/12/2 11/12/2 150/12/2
f 152/5/2 153/5/2 155/5/2
f 155/5/2 153/5/2 154/5/2
f 156/5/2 157/5/2 159/5/2
f 159/5/2 157/5/2 158/5/2
f 160/5/2 161/5/2 163/5/2
f 163/5/2 161/5/2 162/5/2
f 164/9/2 165/9/2 45/9/2
f 45/9/2 165/9/2 48/9/2
f 166/9/2 167/9/2 169/9/2
f 169/9/2 167/9/2 168/9/2
f 42/10/2 43/10/2 171/10/2
f 171/10/2 43/10/2 170/10/2
f 172/3/2 173/3/2 175/3/2
f 175/3/2 173/3/2 174/3/2
f 176/6/2 21/6/2 177/6/2
f 177/6/2 21/6/2 22/6/2
f 178/10/2 179/10/2 181/10/2
f 181/10/2 179/10/2 180/10/2
f 182/3/2 183/3/2 185/3/2
f 185/3/2 183/3/2 184/3/2
f 186/6/2 25/6/2 187/6/2
f 187/6/2 25/6/2 26/6/2
f 188/10/2 189/10/2 57/10/2
f 57/10/2 189/10/2 60/10/2
f 190/3/2 191/3/2 65/3/2
f 65/3/2 191/3/2 68/3/2
f 192/4/2 193/4/2 195/4/2
f 195/4/2 193/4/2 194/4/2
f 196/9/2 197/9/2 69/9/2
f 69/9/2 197/9/2 71/9/2
f 198/4/2 199/4/2 201/4/2
f 201/4/2 199/4/2 200/4/2
f 66/5/2 67/5/2 202/5/2
f 202/5/2 67/5/2 156/5/2
f 203/5/2 204/5/2 205/5/2
f 205/5/2 204/5/2 160/5/2
f 206/4/2 207/4/2 209/4/2
f 209/4/2 207/4/2 208/4/2
f 210/10/2 155/10/2 212/10/2
f 212/10/2 155/10/2 211/10/2
f 213/12/2 214/12/2 216/12/2
f 216/12/2 214/12/2 215/12/2
f 217/3/2 171/3/2 219/3/2
f 219/3/2 171/3/2 218/3/2
f 220/6/2 49/6/2 221/6/2
f 221/6/2 49/6/2 50/6/2
f 222/3/2 223/3/2 225/3/2
f 225/3/2 223/3/2 224/3/2
f 226/3/2 227/3/2 228/3/2
f 228/3/2 227/3/2 188/3/2
f 229/6/2 53/6/2 230/6/2
f 230/6/2 53/6/2 54/6/2
f 231/12/2 232/12/2 234/12/2
f 234/12/2 232/12/2 233/12/2
f 235/5/2 236/5/2 237/5/2
f 237/5/2 236/5/2 210/5/2
f 238/5/2 202/5/2 240/5/2
f 240/5/2 202/5/2 239/5/2
f 241/5/2 205/5/2 243/5/2
f 243/5/2 205/5/2 242/5/2
f 244/10/2 220/10/2 245/10/2
f 245/10/2 220/10/2 221/10/2
f 246/12/2 216/12/2 247/12/2
f 247/12/2 216/12/2 231/12/2
f 248/10/2 229/10/2 249/10/2
f 249/10/2 229/10/2 230/10/2
f 250/3/3 251/3/3 174/3/3
f 174/3/3 251/3/3 175/3/3
f 252/3/3 253/3/3 184/3/3
f 184/3/3 253/3/3 185/3/3
f 254/4/3 255/4/3 208/4/3
f 208/4/3 255/4/3 209/4/3
f 144/9/3 256/9/3 250/9/3
f 250/9/3 256/9/3 251/9/3
f 148/9/3 224/9/3 252/9/3
f 252/9/3 224/9/3 253/9/3
f 155/10/3 210/10/3 254/10/3
f 254/10/3 210/10/3 255/10/3
f 179/10/3 178/10/3 143/10/3
f 143/10/3 178/10/3 256/10/3
f 31/5/3 30/5/3 154/5/3
f 154/5/3 30/5/3 155/5/3
f 257/10/3 101/10/3 147/10/3
f 147/10/3 101/10/3 224/10/3
f 101/3/3 100/3/3 224/3/3
f 224/3/3 100/3/3 225/3/3
f 78/5/3 116/5/3 210/5/3
f 210/5/3 116/5/3 237/5/3
f 258/9/3 259/9/3 48/9/3
f 48/9/3 259/9/3 45/9/3
f 260/10/3 261/10/3 262/10/3
f 262/10/3 261/10/3 101/10/3
f 67/9/3 66/9/3 71/9/3
f 71/9/3 66/9/3 69/9/3
f 263/3/3 264/3/3 102/3/3
f 102/3/3 264/3/3 99/3/3
f 135/3/3 189/3/3 257/3/3
f 257/3/3 189/3/3 262/3/3
f 35/5/3 34/5/3 158/5/3
f 158/5/3 34/5/3 159/5/3
f 43/3/3 42/3/3 258/3/3
f 258/3/3 42/3/3 259/3/3
f 189/3/3 188/3/3 260/3/3
f 260/3/3 188/3/3 261/3/3
f 59/3/3 58/3/3 68/3/3
f 68/3/3 58/3/3 65/3/3
f 33/5/3 73/5/3 156/5/3
f 156/5/3 73/5/3 202/5/3
f 227/10/3 226/10/3 263/10/3
f 263/10/3 226/10/3 264/10/3
f 119/5/3 118/5/3 239/5/3
f 239/5/3 118/5/3 240/5/3
f 7/12/3 6/12/3 130/12/3
f 130/12/3 6/12/3 131/12/3
f 11/12/3 10/12/3 134/12/3
f 134/12/3 10/12/3 135/12/3
f 10/10/3 149/10/3 135/10/3
f 135/10/3 149/10/3 189/10/3
f 151/10/3 233/10/3 60/10/3
f 60/10/3 233/10/3 57/10/3
f 232/3/3 231/3/3 188/3/3
f 188/3/3 231/3/3 228/3/3
f 3/12/3 2/12/3 8/12/3
f 8/12/3 2/12/3 5/12/3
f 39/5/3 38/5/3 162/5/3
f 162/5/3 38/5/3 163/5/3
f 37/5/3 76/5/3 160/5/3
f 160/5/3 76/5/3 205/5/3
f 81/10/3 80/10/3 211/10/3
f 211/10/3 80/10/3 212/10/3
f 19/12/3 265/12/3 150/12/3
f 150/12/3 265/12/3 234/12/3
f 79/5/3 121/5/3 242/5/3
f 242/5/3 121/5/3 243/5/3
f 113/12/3 112/12/3 18/12/3
f 18/12/3 112/12/3 265/12/3
f 111/12/3 125/12/3 231/12/3
f 231/12/3 125/12/3 247/12/3
f 15/11/3 14/11/3 137/11/3
f 137/11/3 14/11/3 114/11/3
f 14/12/3 104/12/3 114/12/3
f 114/12/3 104/12/3 111/12/3
f 27/6/3 26/6/3 14/6/3
f 14/6/3 26/6/3 105/6/3
f 25/12/3 98/12/3 106/12/3
f 106/12/3 98/12/3 103/12/3
f 51/6/3 50/6/3 22/6/3
f 22/6/3 50/6/3 177/6/3
f 55/6/3 54/6/3 26/6/3
f 26/6/3 54/6/3 187/6/3
f 95/6/3 94/6/3 50/6/3
f 50/6/3 94/6/3 221/6/3
f 109/6/3 108/6/3 54/6/3
f 54/6/3 108/6/3 230/6/3
f 94/10/3 123/10/3 221/10/3
f 221/10/3 123/10/3 245/10/3
f 108/10/3 127/10/3 230/10/3
f 230/10/3 127/10/3 249/10/3
f 266/3/4 173/3/4 267/3/4
f 267/3/4 173/3/4 172/3/4
f 268/3/4 183/3/4 269/3/4
f 269/3/4 183/3/4 182/3/4
f 200/4/4 207/4/4 201/4/4
f 201/4/4 207/4/4 206/4/4
f 141/9/4 266/9/4 223/9/4
f 223/9/4 266/9/4 267/9/4
f 145/9/4 268/9/4 270/9/4
f 270/9/4 268/9/4 269/9/4
f 194/4/4 199/4/4 195/4/4
f 195/4/4 199/4/4 198/4/4
f 168/10/4 141/10/4 169/10/4
f 169/10/4 141/10/4 223/10/4
f 180/10/4 146/10/4 181/10/4
f 181/10/4 146/10/4 270/10/4
f 64/4/4 193/4/4 61/4/4
f 61/4/4 193/4/4 192/4/4
f 271/10/4 142/10/4 47/10/4
f 47/10/4 142/10/4 141/10/4
f 32/5/4 153/5/4 29/5/4
f 29/5/4 153/5/4 152/5/4
f 48/9/4 167/9/4 45/9/4
f 45/9/4 167/9/4 166/9/4
f 71/5/4 63/5/4 69/5/4
f 69/5/4 63/5/4 62/5/4
f 46/3/4 223/3/4 86/3/4
f 86/3/4 223/3/4 222/3/4
f 70/5/4 236/5/4 115/5/4
f 115/5/4 236/5/4 235/5/4
f 272/9/4 165/9/4 273/9/4
f 273/9/4 165/9/4 164/9/4
f 274/10/4 47/10/4 275/10/4
f 275/10/4 47/10/4 46/10/4
f 68/9/4 197/9/4 65/9/4
f 65/9/4 197/9/4 196/9/4
f 276/3/4 88/3/4 277/3/4
f 277/3/4 88/3/4 87/3/4
f 128/3/4 271/3/4 170/3/4
f 170/3/4 271/3/4 47/3/4
f 36/5/4 157/5/4 33/5/4
f 33/5/4 157/5/4 156/5/4
f 44/3/4 272/3/4 41/3/4
f 41/3/4 272/3/4 273/3/4
f 170/3/4 274/3/4 171/3/4
f 171/3/4 274/3/4 275/3/4
f 60/3/4 191/3/4 57/3/4
f 57/3/4 191/3/4 190/3/4
f 74/5/4 67/5/4 72/5/4
f 72/5/4 67/5/4 66/5/4
f 218/10/4 276/10/4 219/10/4
f 219/10/4 276/10/4 277/10/4
f 73/5/4 202/5/4 117/5/4
f 117/5/4 202/5/4 238/5/4
f 8/12/4 129/12/4 5/12/4
f 5/12/4 129/12/4 128/12/4
f 12/12/4 133/12/4 9/12/4
f 9/12/4 133/12/4 132/12/4
f 5/10/4 128/10/4 140/10/4
f 140/10/4 128/10/4 170/10/4
f 138/10/4 43/10/4 214/10/4
f 214/10/4 43/10/4 42/10/4
f 215/3/4 171/3/4 216/3/4
f 216/3/4 171/3/4 217/3/4
f 20/12/4 11/12/4 17/12/4
f 17/12/4 11/12/4 10/12/4
f 40/5/4 161/5/4 37/5/4
f 37/5/4 161/5/4 160/5/4
f 77/5/4 204/5/4 75/5/4
f 75/5/4 204/5/4 203/5/4
f 38/10/4 30/10/4 79/10/4
f 79/10/4 30/10/4 78/10/4
f 4/12/4 139/12/4 278/12/4
f 278/12/4 139/12/4 213/12/4
f 76/5/4 205/5/4 120/5/4
f 120/5/4 205/5/4 241/5/4
f 85/12/4 1/12/4 82/12/4
f 82/12/4 1/12/4 278/12/4
f 83/12/4 216/12/4 124/12/4
f 124/12/4 216/12/4 246/12/4
f 16/11/4 136/11/4 13/11/4
f 13/11/4 136/11/4 84/11/4
f 13/12/4 84/12/4 89/12/4
f 89/12/4 84/12/4 83/12/4
f 24/6/4 13/6/4 21/6/4
f 21/6/4 13/6/4 92/6/4
f 22/12/4 91/12/4 97/12/4
f 97/12/4 91/12/4 90/12/4
f 52/6/4 21/6/4 49/6/4
f 49/6/4 21/6/4 176/6/4
f 56/6/4 25/6/4 53/6/4
f 53/6/4 25/6/4 186/6/4
f 96/6/4 49/6/4 93/6/4
f 93/6/4 49/6/4 220/6/4
f 110/6/4 53/6/4 107/6/4
f 107/6/4 53/6/4 229/6/4
f 93/10/4 220/10/4 122/10/4
f 122/10/4 220/10/4 244/10/4
f 107/10/4 229/10/4 126/10/4
f 126/10/4 229/10/4 248/10/4
f 45/9/5 259/9/5 164/9/5
f 164/9/5 259/9/5 273/9/5
f 259/3/5 42/3/5 273/3/5
f 273/3/5 42/3/5 41/3/5
f 169/9/5 46/9/5 166/9/5
f 166/9/5 46/9/5 45/9/5
f 171/10/5 215/10/5 42/10/5
f 42/10/5 215/10/5 214/10/5
f 216/12/5 83/12/5 213/12/5
f 213/12/5 83/12/5 82/12/5
f 175/3/5 251/3/5 172/3/5
f 172/3/5 251/3/5 267/3/5
f 251/9/5 256/9/5 267/9/5
f 267/9/5 256/9/5 223/9/5
f 88/10/5 276/10/5 46/10/5
f 46/10/5 276/10/5 275/10/5
f 276/3/5 218/3/5 275/3/5
f 275/3/5 218/3/5 171/3/5
f 91/6/5 22/6/5 92/6/5
f 92/6/5 22/6/5 21/6/5
f 177/6/5 50/6/5 176/6/5
f 176/6/5 50/6/5 49/6/5
f 245/10/5 123/10/5 244/10/5
f 244/10/5 123/10/5 122/10/5
f 99/3/5 264/3/5 87/3/5
f 87/3/5 264/3/5 277/3/5
f 264/10/5 226/10/5 277/10/5
f 277/10/5 226/10/5 219/10/5
f 103/12/5 98/12/5 90/12/5
f 90/12/5 98/12/5 97/12/5
f 185/3/5 253/3/5 182/3/5
f 182/3/5 253/3/5 269/3/5
f 253/9/5 224/9/5 269/9/5
f 269/9/5 224/9/5 270/9/5
f 225/3/5 100/3/5 222/3/5
f 222/3/5 100/3/5 86/3/5
f 101/10/5 261/10/5 102/10/5
f 102/10/5 261/10/5 263/10/5
f 261/3/5 188/3/5 263/3/5
f 263/3/5 188/3/5 227/3/5
f 228/3/5 231/3/5 217/3/5
f 217/3/5 231/3/5 216/3/5
f 247/12/5 125/12/5 246/12/5
f 246/12/5 125/12/5 124/12/5
f 111/12/5 104/12/5 83/12/5
f 83/12/5 104/12/5 89/12/5
f 105/6/5 26/6/5 106/6/5
f 106/6/5 26/6/5 25/6/5
f 187/6/5 54/6/5 186/6/5
f 186/6/5 54/6/5 53/6/5
f 249/10/5 127/10/5 248/10/5
f 248/10/5 127/10/5 126/10/5
f 57/10/5 233/10/5 188/10/5
f 188/10/5 233/10/5 232/10/5
f 234/12/5 112/12/5 231/12/5
f 231/12/5 112/12/5 111/12/5
f 65/3/5 58/3/5 190/3/5
f 190/3/5 58/3/5 57/3/5
f 69/9/5 66/9/5 196/9/5
f 196/9/5 66/9/5 65/9/5
f 201/4/5 236/4/5 198/4/5
f 198/4/5 236/4/5 195/4/5
f 236/4/5 279/4/5 192/4/5
f 192/4/5 279/4/5 61/4/5
f 279/5/5 70/5/5 62/5/5
f 62/5/5 70/5/5 69/5/5
f 202/5/5 73/5/5 66/5/5
f 66/5/5 73/5/5 72/5/5
f 205/5/5 76/5/5 203/5/5
f 203/5/5 76/5/5 75/5/5
f 209/4/5 255/4/5 206/4/5
f 206/4/5 255/4/5 201/4/5
f 255/10/5 210/10/5 201/10/5
f 201/10/5 210/10/5 236/10/5
f 237/5/5 116/5/5 235/5/5
f 235/5/5 116/5/5 115/5/5
f 159/5/5 34/5/5 156/5/5
f 156/5/5 34/5/5 33/5/5
f 240/5/5 118/5/5 238/5/5
f 238/5/5 118/5/5 117/5/5
f 163/5/5 38/5/5 160/5/5
f 160/5/5 38/5/5 37/5/5
f 243/5/5 121/5/5 241/5/5
f 241/5/5 121/5/5 120/5/5
f 212/10/5 80/10/5 210/10/5
f 210/10/5 80/10/5 79/10/5
f 48/9/6 165/9/6 258/9/6
f 258/9/6 165/9/6 272/9/6
f 258/3/6 272/3/6 43/3/6
f 43/3/6 272/3/6 44/3/6
f 168/9/6 167/9/6 47/9/6
f 47/9/6 167/9/6 48/9/6
f 170/10/6 43/10/6 140/10/6
f 140/10/6 43/10/6 138/10/6
f 8/12/6 139/12/6 3/12/6
f 3/12/6 139/12/6 4/12/6
f 2/12/6 1/12/6 84/12/6
f 84/12/6 1/12/6 85/12/6
f 174/3/6 173/3/6 250/3/6
f 250/3/6 173/3/6 266/3/6
f 250/9/6 266/9/6 144/9/6
f 144/9/6 266/9/6 141/9/6
f 143/10/6 142/10/6 280/10/6
f 280/10/6 142/10/6 271/10/6
f 281/3/6 282/3/6 131/3/6
f 131/3/6 282/3/6 128/3/6
f 130/12/6 129/12/6 7/12/6
f 7/12/6 129/12/6 8/12/6
f 6/9/6 5/9/6 283/9/6
f 283/9/6 5/9/6 2/9/6
f 283/1/6 2/1/6 284/1/6
f 284/1/6 2/1/6 84/1/6
f 285/6/6 13/6/6 23/6/6
f 23/6/6 13/6/6 24/6/6
f 22/6/6 21/6/6 51/6/6
f 51/6/6 21/6/6 52/6/6
f 50/6/6 49/6/6 95/6/6
f 95/6/6 49/6/6 96/6/6
f 270/3/6 256/3/6 181/3/6
f 181/3/6 256/3/6 178/3/6
f 286/10/6 281/10/6 132/10/6
f 132/10/6 281/10/6 131/10/6
f 132/3/6 131/3/6 9/3/6
f 9/3/6 131/3/6 6/3/6
f 9/2/6 6/2/6 287/2/6
f 287/2/6 6/2/6 283/2/6
f 287/9/6 283/9/6 288/9/6
f 288/9/6 283/9/6 284/9/6
f 289/12/6 285/12/6 28/12/6
f 28/12/6 285/12/6 23/12/6
f 184/3/6 183/3/6 252/3/6
f 252/3/6 183/3/6 268/3/6
f 252/9/6 268/9/6 148/9/6
f 148/9/6 268/9/6 145/9/6
f 147/10/6 146/10/6 290/10/6
f 290/10/6 146/10/6 180/10/6
f 290/10/6 179/10/6 257/10/6
f 257/10/6 179/10/6 280/10/6
f 257/3/6 271/3/6 291/3/6
f 291/3/6 271/3/6 282/3/6
f 291/3/6 286/3/6 135/3/6
f 135/3/6 286/3/6 132/3/6
f 134/12/6 133/12/6 11/12/6
f 11/12/6 133/12/6 12/12/6
f 10/9/6 9/9/6 17/9/6
f 17/9/6 9/9/6 287/9/6
f 17/1/6 287/1/6 114/1/6
f 114/1/6 287/1/6 288/1/6
f 137/11/6 136/11/6 15/11/6
f 15/11/6 136/11/6 16/11/6
f 14/6/6 289/6/6 27/6/6
f 27/6/6 289/6/6 28/6/6
f 26/6/6 25/6/6 55/6/6
f 55/6/6 25/6/6 56/6/6
f 54/6/6 53/6/6 109/6/6
f 109/6/6 53/6/6 110/6/6
f 60/10/6 189/10/6 151/10/6
f 151/10/6 189/10/6 149/10/6
f 150/12/6 11/12/6 19/12/6
f 19/12/6 11/12/6 20/12/6
f 18/12/6 17/12/6 113/12/6
f 113/12/6 17/12/6 114/12/6
f 68/3/6 191/3/6 59/3/6
f 59/3/6 191/3/6 60/3/6
f 71/9/6 197/9/6 67/9/6
f 67/9/6 197/9/6 68/9/6
f 200/4/6 199/4/6 152/4/6
f 152/4/6 199/4/6 194/4/6
f 152/4/6 193/4/6 292/4/6
f 292/4/6 193/4/6 64/4/6
f 292/5/6 63/5/6 29/5/6
f 29/5/6 63/5/6 71/5/6
f 156/5/6 67/5/6 33/5/6
f 33/5/6 67/5/6 74/5/6
f 160/5/6 204/5/6 37/5/6
f 37/5/6 204/5/6 77/5/6
f 208/4/6 207/4/6 254/4/6
f 254/4/6 207/4/6 200/4/6
f 254/10/6 200/10/6 155/10/6
f 155/10/6 200/10/6 152/10/6
f 154/5/6 153/5/6 31/5/6
f 31/5/6 153/5/6 32/5/6
f 158/5/6 157/5/6 35/5/6
f 35/5/6 157/5/6 36/5/6
f 239/5/6 202/5/6 119/5/6
f 119/5/6 202/5/6 73/5/6
f 162/5/6 161/5/6 39/5/6
f 39/5/6 161/5/6 40/5/6
f 242/5/6 205/5/6 79/5/6
f 79/5/6 205/5/6 76/5/6
f 211/10/6 155/10/6 81/10/6
f 81/10/6 155/10/6 38/10/6
