# Vengi binary mesh normalized for Tanks of Freedom II

mtllib ../../materials/vox_building.mtl
o commando

v 0.3 0.7 0.4
v 0.2 0.7 0.4
v 0.2 0.7 0.5
v 0.3 0.7 0.5
v 0.3 0.6 0.2
v 0.2 0.6 0.2
v 0.2 0.6 0.4
v 0.3 0.6 0.4
v 0.2 0.7 0.2
v 0.1 0.7 0.2
v 0.1 0.7 0.3
v 0.2 0.7 0.3
v 0.1 0.6 0.2
v 0 0.6 0.2
v 0 0.6 0.3
v 0.1 0.6 0.3
v 0 0.5 0.2
v -0.1 0.5 0.2
v -0.1 0.5 0.3
v 0 0.5 0.3
v -0.1 0.4 0.2
v -0.2 0.4 0.2
v -0.2 0.4 0.3
v -0.1 0.4 0.3
v 0 1 0.2
v -0.2 1 0.2
v -0.2 1 0.3
v 0 1 0.3
v 0.3 0.7 0.1
v 0.2 0.7 0.1
v 0.3 0.7 0.2
v 0.1 1.1 0.1
v 0 1.1 0.1
v 0 1.1 0.2
v 0.1 1.1 0.2
v -0.2 0.3 0.1
v -0.3 0.3 0.1
v -0.3 0.3 0.2
v -0.2 0.3 0.2
v -0.5 0.4 0.1
v -0.6 0.4 0.1
v -0.6 0.4 0.3
v -0.5 0.4 0.3
v 0.3 0.8 0
v 0.2 0.8 0
v 0.2 0.8 0.1
v 0.3 0.8 0.1
v -0.2 0.3 0
v -0.3 0.3 0
v -0.2 0.7 0
v -0.3 0.7 0
v -0.3 0.7 0.1
v -0.2 0.7 0.1
v -0.3 0.6 0
v -0.4 0.6 0
v -0.4 0.6 0.1
v -0.3 0.6 0.1
v -0.4 0.5 0
v -0.5 0.5 0
v -0.5 0.5 0.1
v -0.4 0.5 0.1
v -0.5 0.4 0
v -0.6 0.4 0
v 0.3 0.7 -0.1
v 0.2 0.7 -0.1
v 0.2 0.7 0
v 0.3 0.7 0
v 0.2 1.1 -0.1
v 0.1 1.1 -0.1
v 0.2 1.1 0.2
v 0 1.1 -0.1
v -0.2 1.1 -0.1
v -0.2 1.1 0.2
v -0.2 0.3 -0.1
v -0.3 0.3 -0.1
v -0.2 1 -0.1
v -0.3 1 -0.1
v -0.3 1 0.2
v -0.5 0.4 -0.1
v -0.6 0.4 -0.1
v 0.2 0.6 -0.2
v 0.1 0.6 -0.2
v 0.1 0.6 -0.1
v 0.2 0.6 -0.1
v 0.1 0.5 -0.2
v 0 0.5 -0.2
v 0 0.5 -0.1
v 0.1 0.5 -0.1
v 0 0.4 -0.2
v -0.2 0.4 -0.2
v -0.2 0.4 -0.1
v 0 0.4 -0.1
v 0.3 0.4 0.4
v 0.3 0.4 0.5
v 0.2 0.4 0.5
v 0.2 0.4 0.4
v 0.3 0.5 0.2
v 0.3 0.5 0.4
v 0.2 0.5 0.4
v 0.2 0.5 0.2
v 0.2 0.6 0.3
v 0.1 0.5 0.2
v 0.1 0.5 0.3
v 0 0.4 0.2
v 0 0.4 0.3
v -0.1 0.3 0.2
v -0.1 0.3 0.3
v -0.2 0.3 0.3
v 0 0.9 0.2
v 0 0.9 0.3
v -0.2 0.9 0.3
v -0.2 0.9 0.2
v 0.3 0.5 0.1
v 0.2 0.5 0.1
v 0.2 0.3 0.1
v 0.2 0.3 0.2
v 0 0.3 0.2
v 0 0.3 0.1
v -0.1 0.3 0.1
v -0.2 0.2 0.1
v -0.2 0.2 0.2
v -0.3 0.2 0.2
v -0.3 0.2 0.1
v -0.2 0.9 0.1
v -0.3 0.9 0.2
v -0.3 0.9 0.1
v -0.5 0.3 0.1
v -0.5 0.3 0.3
v -0.6 0.3 0.3
v -0.6 0.3 0.1
v 0.3 0.6 0
v 0.3 0.6 0.1
v 0.2 0.6 0.1
v 0.2 0.6 0
v 0.2 0 0
v 0.2 0 0.1
v 0.1 0 0.1
v 0.1 0 0
v 0.1 0.3 0
v 0.1 0.3 0.1
v -0.1 0.3 0
v -0.1 0 0
v -0.1 0 0.1
v -0.2 0 0.1
v -0.2 0 0
v -0.2 0.2 0
v -0.3 0.2 0
v -0.2 0.6 0
v -0.2 0.6 0.1
v -0.2 0.8 0
v -0.2 0.8 0.1
v -0.3 0.8 0.1
v -0.3 0.8 0
v -0.3 0.5 0
v -0.3 0.5 0.1
v -0.4 0.4 0
v -0.4 0.4 0.1
v -0.5 0.3 0
v -0.6 0.3 0
v 0.3 0.6 -0.1
v 0.2 0.3 -0.1
v 0.2 0.3 0
v 0 0.3 0
v 0 0.3 -0.1
v -0.1 0.3 -0.1
v -0.2 0.2 -0.1
v -0.3 0.2 -0.1
v -0.2 0.9 -0.1
v -0.2 0.9 0
v -0.3 0.9 0
v -0.3 0.9 -0.1
v -0.5 0.3 -0.1
v -0.6 0.3 -0.1
v 0.2 0.5 -0.2
v 0.2 0.5 -0.1
v 0.1 0.4 -0.2
v 0.1 0.4 -0.1
v 0 0.3 -0.2
v -0.2 0.3 -0.2
v 0.1 0.1 0.1
v 0.1 0.1 0
v -0.2 0.1 0.1
v -0.2 0.1 0
v 0.1 0.2 0.1
v 0.1 0.2 0
v -0.2 0.4 0.1
v -0.2 0.5 0.1
v -0.2 0.5 -0.1
v 0.2 0.6 0.5
v -0.2 0.6 0.2
v -0.2 0.5 0
v -0.2 0.6 -0.1
v -0.2 0.7 0.2
v -0.2 0.7 -0.1
v -0.2 0.8 0.2
v -0.2 0.8 -0.1
v -0.3 1 0.1
v -0.3 1 0
v 0.2 0.1 0.1
v 0.2 0.1 0
v -0.1 0.1 0.1
v -0.1 0.1 0
v 0.2 0.2 0.1
v 0.2 0.2 0
v -0.1 0.2 0.1
v -0.1 0.2 0
v 0.2 0.4 0.1
v 0.2 0.4 0
v 0.2 0.4 -0.1
v 0.2 0.5 0
v 0.3 0.6 0.5
v 0.2 0.8 0.2
v 0.2 0.8 -0.1
v 0.2 0.9 0.2
v 0.2 0.9 0.1
v 0.2 0.9 -0.1
v 0.1 0.7 -0.1
v 0 0.6 -0.1
v 0 0.7 -0.1
v -0.1 0.4 -0.1
v -0.1 0.5 -0.1
v -0.1 0.6 -0.1
v 0.2 1 -0.1
v 0.1 0.4 0.2
v 0.2 0.4 0.2
v 0.1 0.8 0.2
v 0.1 0.9 0.2
v 0.1 1 0.2
v 0.2 1 0.2
v 0 0.7 0.2
v -0.1 0.6 0.2
v -0.1 0.7 0.2
v -0.1 0.8 0.2
v -0.1 0.9 0.2

vt 0.00585938 0.5
vt 0.0136719 0.5
vt 0.0253906 0.5
vt 0.0410156 0.5
vt 0.0683594 0.5
vt 0.0839844 0.5
vt 0.0996094 0.5
vt 0.103516 0.5
vt 0.123047 0.5
vt 0.158203 0.5
vt 0.162109 0.5
vt 0.166016 0.5

vn 0 1 0
vn 0 -1 0
vn -1 0 0
vn 1 0 0
vn 0 0 -1
vn 0 0 1

usemtl palette
f 1/4/1 2/4/1 4/4/1
f 4/4/1 2/4/1 3/4/1
f 5/9/1 6/9/1 8/9/1
f 8/9/1 6/9/1 7/9/1
f 9/6/1 10/6/1 12/6/1
f 12/6/1 10/6/1 11/6/1
f 13/7/1 14/7/1 16/7/1
f 16/7/1 14/7/1 15/7/1
f 17/6/1 18/6/1 20/6/1
f 20/6/1 18/6/1 19/6/1
f 21/7/1 22/7/1 24/7/1
f 24/7/1 22/7/1 23/7/1
f 25/10/1 26/10/1 28/10/1
f 28/10/1 26/10/1 27/10/1
f 29/6/1 30/6/1 31/6/1
f 31/6/1 30/6/1 9/6/1
f 32/3/1 33/3/1 35/3/1
f 35/3/1 33/3/1 34/3/1
f 36/6/1 37/6/1 39/6/1
f 39/6/1 37/6/1 38/6/1
f 40/5/1 41/5/1 43/5/1
f 43/5/1 41/5/1 42/5/1
f 44/6/1 45/6/1 47/6/1
f 47/6/1 45/6/1 46/6/1
f 48/7/1 49/7/1 36/7/1
f 36/7/1 49/7/1 37/7/1
f 50/10/1 51/10/1 53/10/1
f 53/10/1 51/10/1 52/10/1
f 54/11/1 55/11/1 57/11/1
f 57/11/1 55/11/1 56/11/1
f 58/9/1 59/9/1 61/9/1
f 61/9/1 59/9/1 60/9/1
f 62/9/1 63/9/1 40/9/1
f 40/9/1 63/9/1 41/9/1
f 64/6/1 65/6/1 67/6/1
f 67/6/1 65/6/1 66/6/1
f 68/10/1 69/10/1 70/10/1
f 70/10/1 69/10/1 35/10/1
f 69/10/1 71/10/1 32/10/1
f 32/10/1 71/10/1 33/10/1
f 71/10/1 72/10/1 34/10/1
f 34/10/1 72/10/1 73/10/1
f 74/6/1 75/6/1 48/6/1
f 48/6/1 75/6/1 49/6/1
f 76/10/1 77/10/1 26/10/1
f 26/10/1 77/10/1 78/10/1
f 79/1/1 80/1/1 62/1/1
f 62/1/1 80/1/1 63/1/1
f 81/6/1 82/6/1 84/6/1
f 84/6/1 82/6/1 83/6/1
f 85/6/1 86/6/1 88/6/1
f 88/6/1 86/6/1 87/6/1
f 89/6/1 90/6/1 92/6/1
f 92/6/1 90/6/1 91/6/1
f 93/7/2 94/7/2 96/7/2
f 96/7/2 94/7/2 95/7/2
f 97/9/2 98/9/2 100/9/2
f 100/9/2 98/9/2 99/9/2
f 6/6/2 101/6/2 13/6/2
f 13/6/2 101/6/2 16/6/2
f 102/7/2 103/7/2 17/7/2
f 17/7/2 103/7/2 20/7/2
f 104/6/2 105/6/2 21/6/2
f 21/6/2 105/6/2 24/6/2
f 106/7/2 107/7/2 39/7/2
f 39/7/2 107/7/2 108/7/2
f 109/10/2 110/10/2 112/10/2
f 112/10/2 110/10/2 111/10/2
f 113/11/2 97/11/2 114/11/2
f 114/11/2 97/11/2 100/11/2
f 115/11/2 116/11/2 118/11/2
f 118/11/2 116/11/2 117/11/2
f 118/12/2 117/12/2 119/12/2
f 119/12/2 117/12/2 106/12/2
f 119/10/2 106/10/2 36/10/2
f 36/10/2 106/10/2 39/10/2
f 120/6/2 121/6/2 123/6/2
f 123/6/2 121/6/2 122/6/2
f 124/10/2 112/10/2 126/10/2
f 126/10/2 112/10/2 125/10/2
f 127/5/2 128/5/2 130/5/2
f 130/5/2 128/5/2 129/5/2
f 131/10/2 132/10/2 134/10/2
f 134/10/2 132/10/2 133/10/2
f 135/10/2 136/10/2 138/10/2
f 138/10/2 136/10/2 137/10/2
f 139/6/2 140/6/2 141/6/2
f 141/6/2 140/6/2 119/6/2
f 142/10/2 143/10/2 145/10/2
f 145/10/2 143/10/2 144/10/2
f 146/7/2 120/7/2 147/7/2
f 147/7/2 120/7/2 123/7/2
f 148/10/2 149/10/2 54/10/2
f 54/10/2 149/10/2 57/10/2
f 150/10/2 151/10/2 153/10/2
f 153/10/2 151/10/2 152/10/2
f 154/11/2 155/11/2 58/11/2
f 58/11/2 155/11/2 61/11/2
f 156/9/2 157/9/2 62/9/2
f 62/9/2 157/9/2 40/9/2
f 158/9/2 127/9/2 159/9/2
f 159/9/2 127/9/2 130/9/2
f 160/6/2 131/6/2 84/6/2
f 84/6/2 131/6/2 134/6/2
f 161/11/2 162/11/2 164/11/2
f 164/11/2 162/11/2 163/11/2
f 164/10/2 163/10/2 165/10/2
f 165/10/2 163/10/2 141/10/2
f 165/11/2 141/11/2 74/11/2
f 74/11/2 141/11/2 48/11/2
f 166/6/2 146/6/2 167/6/2
f 167/6/2 146/6/2 147/6/2
f 168/10/2 169/10/2 171/10/2
f 171/10/2 169/10/2 170/10/2
f 172/1/2 158/1/2 173/1/2
f 173/1/2 158/1/2 159/1/2
f 174/6/2 175/6/2 85/6/2
f 85/6/2 175/6/2 88/6/2
f 176/6/2 177/6/2 89/6/2
f 89/6/2 177/6/2 92/6/2
f 178/6/2 164/6/2 179/6/2
f 179/6/2 164/6/2 74/6/2
f 180/10/3 181/10/3 137/10/3
f 137/10/3 181/10/3 138/10/3
f 182/10/3 183/10/3 144/10/3
f 144/10/3 183/10/3 145/10/3
f 184/9/3 185/9/3 180/9/3
f 180/9/3 185/9/3 181/9/3
f 120/9/3 146/9/3 182/9/3
f 182/9/3 146/9/3 183/9/3
f 38/6/3 37/6/3 122/6/3
f 122/6/3 37/6/3 123/6/3
f 140/10/3 139/10/3 184/10/3
f 184/10/3 139/10/3 185/10/3
f 37/7/3 49/7/3 123/7/3
f 123/7/3 49/7/3 147/7/3
f 49/6/3 75/6/3 147/6/3
f 147/6/3 75/6/3 167/6/3
f 23/7/3 22/7/3 108/7/3
f 108/7/3 22/7/3 39/7/3
f 22/10/3 186/10/3 39/10/3
f 39/10/3 186/10/3 36/10/3
f 42/5/3 41/5/3 129/5/3
f 129/5/3 41/5/3 130/5/3
f 41/9/3 63/9/3 130/9/3
f 130/9/3 63/9/3 159/9/3
f 186/11/3 91/11/3 36/11/3
f 36/11/3 91/11/3 74/11/3
f 63/1/3 80/1/3 159/1/3
f 159/1/3 80/1/3 173/1/3
f 91/6/3 90/6/3 74/6/3
f 74/6/3 90/6/3 179/6/3
f 19/6/3 18/6/3 24/6/3
f 24/6/3 18/6/3 21/6/3
f 60/9/3 59/9/3 40/9/3
f 40/9/3 59/9/3 62/9/3
f 187/10/3 188/10/3 186/10/3
f 186/10/3 188/10/3 91/10/3
f 87/6/3 86/6/3 92/6/3
f 92/6/3 86/6/3 89/6/3
f 189/7/3 7/7/3 95/7/3
f 95/7/3 7/7/3 96/7/3
f 7/9/3 6/9/3 99/9/3
f 99/9/3 6/9/3 100/9/3
f 15/7/3 14/7/3 20/7/3
f 20/7/3 14/7/3 17/7/3
f 190/11/3 149/11/3 22/11/3
f 22/11/3 149/11/3 186/11/3
f 149/11/3 148/11/3 187/11/3
f 187/11/3 148/11/3 191/11/3
f 56/11/3 55/11/3 61/11/3
f 61/11/3 55/11/3 58/11/3
f 148/12/3 192/12/3 191/12/3
f 191/12/3 192/12/3 188/12/3
f 83/6/3 82/6/3 88/6/3
f 88/6/3 82/6/3 85/6/3
f 3/4/3 2/4/3 189/4/3
f 189/4/3 2/4/3 7/4/3
f 11/6/3 10/6/3 16/6/3
f 16/6/3 10/6/3 13/6/3
f 193/10/3 53/10/3 190/10/3
f 190/10/3 53/10/3 149/10/3
f 52/10/3 51/10/3 57/10/3
f 57/10/3 51/10/3 54/10/3
f 50/11/3 194/11/3 148/11/3
f 148/11/3 194/11/3 192/11/3
f 195/9/3 196/9/3 193/9/3
f 193/9/3 196/9/3 194/9/3
f 112/8/3 124/8/3 195/8/3
f 195/8/3 124/8/3 151/8/3
f 169/6/3 168/6/3 150/6/3
f 150/6/3 168/6/3 196/6/3
f 27/10/3 26/10/3 111/10/3
f 111/10/3 26/10/3 112/10/3
f 78/10/3 197/10/3 125/10/3
f 125/10/3 197/10/3 126/10/3
f 197/10/3 198/10/3 152/10/3
f 152/10/3 198/10/3 153/10/3
f 198/10/3 77/10/3 170/10/3
f 170/10/3 77/10/3 171/10/3
f 73/10/3 72/10/3 26/10/3
f 26/10/3 72/10/3 76/10/3
f 199/10/4 136/10/4 200/10/4
f 200/10/4 136/10/4 135/10/4
f 201/10/4 143/10/4 202/10/4
f 202/10/4 143/10/4 142/10/4
f 203/9/4 199/9/4 204/9/4
f 204/9/4 199/9/4 200/9/4
f 205/9/4 201/9/4 206/9/4
f 206/9/4 201/9/4 202/9/4
f 39/6/4 121/6/4 36/6/4
f 36/6/4 121/6/4 120/6/4
f 119/10/4 205/10/4 141/10/4
f 141/10/4 205/10/4 206/10/4
f 48/6/4 146/6/4 74/6/4
f 74/6/4 146/6/4 166/6/4
f 24/7/4 107/7/4 21/7/4
f 21/7/4 107/7/4 106/7/4
f 43/5/4 128/5/4 40/5/4
f 40/5/4 128/5/4 127/5/4
f 207/10/4 203/10/4 208/10/4
f 208/10/4 203/10/4 204/10/4
f 40/9/4 127/9/4 62/9/4
f 62/9/4 127/9/4 158/9/4
f 208/11/4 162/11/4 209/11/4
f 209/11/4 162/11/4 161/11/4
f 62/1/4 158/1/4 79/1/4
f 79/1/4 158/1/4 172/1/4
f 92/6/4 164/6/4 89/6/4
f 89/6/4 164/6/4 178/6/4
f 20/6/4 105/6/4 17/6/4
f 17/6/4 105/6/4 104/6/4
f 100/11/4 116/11/4 114/11/4
f 114/11/4 116/11/4 115/11/4
f 114/12/4 207/12/4 210/12/4
f 210/12/4 207/12/4 208/12/4
f 61/9/4 157/9/4 58/9/4
f 58/9/4 157/9/4 156/9/4
f 210/10/4 208/10/4 175/10/4
f 175/10/4 208/10/4 209/10/4
f 88/6/4 177/6/4 85/6/4
f 85/6/4 177/6/4 176/6/4
f 211/7/4 94/7/4 8/7/4
f 8/7/4 94/7/4 93/7/4
f 8/9/4 98/9/4 5/9/4
f 5/9/4 98/9/4 97/9/4
f 16/7/4 103/7/4 13/7/4
f 13/7/4 103/7/4 102/7/4
f 5/11/4 97/11/4 132/11/4
f 132/11/4 97/11/4 113/11/4
f 57/11/4 155/11/4 54/11/4
f 54/11/4 155/11/4 154/11/4
f 133/11/4 114/11/4 84/11/4
f 84/11/4 114/11/4 175/11/4
f 84/6/4 175/6/4 81/6/4
f 81/6/4 175/6/4 174/6/4
f 4/4/4 211/4/4 1/4/4
f 1/4/4 211/4/4 8/4/4
f 12/6/4 101/6/4 9/6/4
f 9/6/4 101/6/4 6/6/4
f 31/6/4 5/6/4 29/6/4
f 29/6/4 5/6/4 132/6/4
f 29/10/4 132/10/4 67/10/4
f 67/10/4 132/10/4 131/10/4
f 67/6/4 131/6/4 64/6/4
f 64/6/4 131/6/4 160/6/4
f 212/9/4 9/9/4 46/9/4
f 46/9/4 9/9/4 30/9/4
f 47/6/4 29/6/4 44/6/4
f 44/6/4 29/6/4 67/6/4
f 45/9/4 66/9/4 213/9/4
f 213/9/4 66/9/4 65/9/4
f 214/8/4 212/8/4 215/8/4
f 215/8/4 212/8/4 46/8/4
f 215/6/4 46/6/4 216/6/4
f 216/6/4 46/6/4 213/6/4
f 28/10/4 110/10/4 25/10/4
f 25/10/4 110/10/4 109/10/4
f 70/10/4 214/10/4 68/10/4
f 68/10/4 214/10/4 216/10/4
f 96/7/5 99/7/5 93/7/5
f 93/7/5 99/7/5 98/7/5
f 114/11/5 133/11/5 113/11/5
f 113/11/5 133/11/5 132/11/5
f 7/4/5 2/4/5 8/4/5
f 8/4/5 2/4/5 1/4/5
f 84/6/5 65/6/5 160/6/5
f 160/6/5 65/6/5 64/6/5
f 66/6/5 45/6/5 67/6/5
f 67/6/5 45/6/5 44/6/5
f 138/10/5 181/10/5 135/10/5
f 135/10/5 181/10/5 200/10/5
f 181/9/5 185/9/5 200/9/5
f 200/9/5 185/9/5 204/9/5
f 185/10/5 139/10/5 204/10/5
f 204/10/5 139/10/5 162/10/5
f 177/10/5 88/10/5 209/10/5
f 209/10/5 88/10/5 175/10/5
f 85/6/5 82/6/5 174/6/5
f 174/6/5 82/6/5 81/6/5
f 83/10/5 217/10/5 84/10/5
f 84/10/5 217/10/5 65/10/5
f 164/11/5 92/11/5 161/11/5
f 161/11/5 92/11/5 209/11/5
f 89/6/5 86/6/5 176/6/5
f 176/6/5 86/6/5 85/6/5
f 87/11/5 218/11/5 88/11/5
f 88/11/5 218/11/5 83/11/5
f 218/12/5 219/12/5 83/12/5
f 83/12/5 219/12/5 217/12/5
f 220/11/5 221/11/5 92/11/5
f 92/11/5 221/11/5 87/11/5
f 221/10/5 222/10/5 87/10/5
f 87/10/5 222/10/5 218/10/5
f 145/10/5 183/10/5 142/10/5
f 142/10/5 183/10/5 202/10/5
f 183/9/5 146/9/5 202/9/5
f 202/9/5 146/9/5 206/9/5
f 146/10/5 48/10/5 206/10/5
f 206/10/5 48/10/5 141/10/5
f 179/6/5 90/6/5 178/6/5
f 178/6/5 90/6/5 89/6/5
f 91/10/5 188/10/5 220/10/5
f 220/10/5 188/10/5 221/10/5
f 188/12/5 192/12/5 221/12/5
f 221/12/5 192/12/5 222/12/5
f 192/11/5 194/11/5 218/11/5
f 218/11/5 194/11/5 219/11/5
f 194/9/5 196/9/5 65/9/5
f 65/9/5 196/9/5 213/9/5
f 196/6/5 168/6/5 213/6/5
f 213/6/5 168/6/5 216/6/5
f 76/10/5 72/10/5 223/10/5
f 223/10/5 72/10/5 68/10/5
f 167/6/5 75/6/5 166/6/5
f 166/6/5 75/6/5 74/6/5
f 54/10/5 51/10/5 148/10/5
f 148/10/5 51/10/5 50/10/5
f 153/10/5 170/10/5 150/10/5
f 150/10/5 170/10/5 169/10/5
f 171/10/5 77/10/5 216/10/5
f 216/10/5 77/10/5 223/10/5
f 58/11/5 55/11/5 154/11/5
f 154/11/5 55/11/5 54/11/5
f 62/9/5 59/9/5 156/9/5
f 156/9/5 59/9/5 58/9/5
f 173/1/5 80/1/5 172/1/5
f 172/1/5 80/1/5 79/1/5
f 95/7/6 94/7/6 189/7/6
f 189/7/6 94/7/6 211/7/6
f 189/4/6 211/4/6 3/4/6
f 3/4/6 211/4/6 4/4/6
f 6/6/6 5/6/6 9/6/6
f 9/6/6 5/6/6 31/6/6
f 30/6/6 29/6/6 46/6/6
f 46/6/6 29/6/6 47/6/6
f 137/10/6 136/10/6 180/10/6
f 180/10/6 136/10/6 199/10/6
f 180/9/6 199/9/6 184/9/6
f 184/9/6 199/9/6 203/9/6
f 184/10/6 203/10/6 140/10/6
f 140/10/6 203/10/6 115/10/6
f 224/11/6 225/11/6 102/11/6
f 102/11/6 225/11/6 100/11/6
f 102/10/6 100/10/6 13/10/6
f 13/10/6 100/10/6 6/10/6
f 16/6/6 101/6/6 11/6/6
f 11/6/6 101/6/6 12/6/6
f 10/9/6 9/9/6 226/9/6
f 226/9/6 9/9/6 212/9/6
f 226/8/6 212/8/6 227/8/6
f 227/8/6 212/8/6 214/8/6
f 228/10/6 229/10/6 35/10/6
f 35/10/6 229/10/6 70/10/6
f 117/11/6 116/11/6 104/11/6
f 104/11/6 116/11/6 225/11/6
f 104/10/6 224/10/6 17/10/6
f 17/10/6 224/10/6 102/10/6
f 20/7/6 103/7/6 15/7/6
f 15/7/6 103/7/6 16/7/6
f 14/12/6 13/12/6 230/12/6
f 230/12/6 13/12/6 10/12/6
f 109/10/6 214/10/6 25/10/6
f 25/10/6 214/10/6 229/10/6
f 25/3/6 228/3/6 34/3/6
f 34/3/6 228/3/6 35/3/6
f 106/12/6 117/12/6 21/12/6
f 21/12/6 117/12/6 104/12/6
f 24/6/6 105/6/6 19/6/6
f 19/6/6 105/6/6 20/6/6
f 18/12/6 17/12/6 231/12/6
f 231/12/6 17/12/6 14/12/6
f 231/11/6 14/11/6 232/11/6
f 232/11/6 14/11/6 230/11/6
f 232/2/6 10/2/6 233/2/6
f 233/2/6 10/2/6 226/2/6
f 233/9/6 226/9/6 234/9/6
f 234/9/6 226/9/6 227/9/6
f 144/10/6 143/10/6 182/10/6
f 182/10/6 143/10/6 201/10/6
f 182/9/6 201/9/6 120/9/6
f 120/9/6 201/9/6 205/9/6
f 120/10/6 205/10/6 36/10/6
f 36/10/6 205/10/6 119/10/6
f 108/7/6 107/7/6 23/7/6
f 23/7/6 107/7/6 24/7/6
f 22/11/6 21/11/6 190/11/6
f 190/11/6 21/11/6 231/11/6
f 190/10/6 231/10/6 193/10/6
f 193/10/6 231/10/6 232/10/6
f 193/9/6 232/9/6 195/9/6
f 195/9/6 232/9/6 233/9/6
f 195/8/6 233/8/6 112/8/6
f 112/8/6 233/8/6 234/8/6
f 111/10/6 110/10/6 27/10/6
f 27/10/6 110/10/6 28/10/6
f 26/10/6 25/10/6 73/10/6
f 73/10/6 25/10/6 34/10/6
f 122/6/6 121/6/6 38/6/6
f 38/6/6 121/6/6 39/6/6
f 57/10/6 149/10/6 52/10/6
f 52/10/6 149/10/6 53/10/6
f 152/10/6 151/10/6 126/10/6
f 126/10/6 151/10/6 124/10/6
f 125/10/6 112/10/6 78/10/6
f 78/10/6 112/10/6 26/10/6
f 61/11/6 155/11/6 56/11/6
f 56/11/6 155/11/6 57/11/6
f 40/9/6 157/9/6 60/9/6
f 60/9/6 157/9/6 61/9/6
f 129/5/6 128/5/6 42/5/6
f 42/5/6 128/5/6 43/5/6
