# Vengi binary mesh normalized for Tanks of Freedom II

mtllib ../../materials/vox_building.mtl
o general

v -0.2 0.7 0.3
v -0.3 0.7 0.3
v -0.3 0.7 0.7
v -0.2 0.7 0.7
v 0.2 1 0.2
v -0.2 1 0.2
v -0.2 1 0.3
v 0.2 1 0.3
v 0.1 1.1 0.1
v -0.1 1.1 0.1
v -0.1 1.1 0.2
v 0.1 1.1 0.2
v -0.2 0.6 0.1
v -0.3 0.6 0.1
v -0.3 0.6 0.3
v -0.2 0.6 0.3
v 0.4 0.6 0
v 0.3 0.6 0
v 0.3 0.6 0.1
v 0.4 0.6 0.1
v 0.3 0.4 0
v 0.2 0.4 0
v 0.2 0.4 0.1
v 0.3 0.4 0.1
v 0.3 0.7 0
v 0.2 0.7 0
v 0.2 0.7 0.1
v 0.3 0.7 0.1
v -0.2 0.7 0
v -0.3 0.7 0
v -0.3 0.7 0.1
v -0.2 0.7 0.1
v 0.2 1.1 -0.1
v 0.1 1.1 -0.1
v 0.2 1.1 0.2
v -0.1 1.1 -0.1
v -0.2 1.1 -0.1
v -0.2 1.1 0.2
v -0.2 0.6 0.5
v -0.2 0.6 0.7
v -0.3 0.6 0.7
v -0.3 0.6 0.5
v -0.2 0.5 0.4
v -0.2 0.5 0.5
v -0.3 0.5 0.5
v -0.3 0.5 0.4
v -0.2 0.4 0.3
v -0.2 0.4 0.4
v -0.3 0.4 0.4
v -0.3 0.4 0.3
v 0.2 0.9 0.2
v 0.2 0.9 0.3
v -0.2 0.9 0.3
v -0.2 0.9 0.2
v 0.2 0.3 0.1
v 0.2 0.3 0.2
v -0.2 0.3 0.2
v -0.2 0.3 0.1
v -0.2 0.5 0.1
v -0.2 0.5 0.3
v -0.3 0.5 0.3
v -0.3 0.5 0.1
v 0.4 0.4 0
v 0.4 0.4 0.1
v 0.3 0.3 0
v 0.3 0.3 0.1
v 0.2 0.3 0
v 0.2 0.6 0.1
v 0.2 0.6 0
v 0.2 0 0
v 0.2 0 0.1
v 0.1 0 0.1
v 0.1 0 0
v -0.1 0 0
v -0.1 0 0.1
v -0.2 0 0.1
v -0.2 0 0
v -0.2 0.6 0
v -0.3 0.6 0
v 0.2 0.3 -0.1
v 0.1 0.3 0
v 0.1 0.3 -0.1
v 0.1 0.3 0.1
v -0.1 0.3 0.1
v -0.1 0.3 -0.1
v -0.1 0.3 0
v -0.2 0.3 0
v -0.2 0.3 -0.1
v 0.1 0.1 0.1
v 0.1 0.1 0
v -0.2 0.1 0.1
v -0.2 0.1 0
v -0.2 0.4 0.2
v -0.2 0.4 0.1
v -0.2 0.4 0
v -0.2 0.4 -0.1
v -0.2 0.5 0.2
v -0.2 0.5 -0.1
v -0.3 0.6 0.4
v -0.2 0.6 -0.1
v -0.2 0.7 0.2
v -0.2 0.6 0.2
v -0.2 0.7 -0.1
v -0.2 0.8 0.2
v -0.2 0.8 -0.1
v -0.2 0.9 0.1
v -0.2 0.8 0.1
v -0.2 0.9 -0.1
v 0.2 0.1 0.1
v 0.2 0.1 0
v -0.1 0.1 0.1
v -0.1 0.1 0
v 0.2 0.4 0.2
v 0.2 0.4 -0.1
v -0.2 0.6 0.4
v 0.2 0.6 -0.1
v 0.2 0.7 0.2
v 0.2 0.7 -0.1
v 0.2 0.8 0.2
v 0.2 0.8 -0.1
v 0.2 0.8 0.1
v 0.2 0.9 0.1
v 0.2 0.9 -0.1
v 0.1 0.5 0.2
v 0.2 0.5 0.2
v 0.1 0.7 0.2
v 0.1 0.8 0.2
v 0.1 0.9 0.2
v 0.1 1 0.2
v 0 0.5 0.2
v 0.1 0.6 0.2
v 0 0.6 0.2
v 0 0.7 0.2
v -0.1 0.7 0.2
v -0.1 0.8 0.2
v -0.1 0.9 0.2
v -0.1 1 0.2

vt 0.00195313 0.5
vt 0.00585938 0.5
vt 0.0136719 0.5
vt 0.0253906 0.5
vt 0.0371094 0.5
vt 0.0410156 0.5
vt 0.103516 0.5
vt 0.123047 0.5
vt 0.158203 0.5
vt 0.162109 0.5
vt 0.166016 0.5

vn 0 1 0
vn 0 -1 0
vn -1 0 0
vn 1 0 0
vn 0 0 -1
vn 0 0 1

usemtl palette
f 1/6/1 2/6/1 4/6/1
f 4/6/1 2/6/1 3/6/1
f 5/1/1 6/1/1 8/1/1
f 8/1/1 6/1/1 7/1/1
f 9/4/1 10/4/1 12/4/1
f 12/4/1 10/4/1 11/4/1
f 13/11/1 14/11/1 16/11/1
f 16/11/1 14/11/1 15/11/1
f 17/11/1 18/11/1 20/11/1
f 20/11/1 18/11/1 19/11/1
f 21/8/1 22/8/1 24/8/1
f 24/8/1 22/8/1 23/8/1
f 25/9/1 26/9/1 28/9/1
f 28/9/1 26/9/1 27/9/1
f 29/9/1 30/9/1 32/9/1
f 32/9/1 30/9/1 31/9/1
f 33/9/1 34/9/1 35/9/1
f 35/9/1 34/9/1 12/9/1
f 34/9/1 36/9/1 9/9/1
f 9/9/1 36/9/1 10/9/1
f 36/9/1 37/9/1 11/9/1
f 11/9/1 37/9/1 38/9/1
f 39/6/2 40/6/2 42/6/2
f 42/6/2 40/6/2 41/6/2
f 43/5/2 44/5/2 46/5/2
f 46/5/2 44/5/2 45/5/2
f 47/5/2 48/5/2 50/5/2
f 50/5/2 48/5/2 49/5/2
f 51/1/2 52/1/2 54/1/2
f 54/1/2 52/1/2 53/1/2
f 55/2/2 56/2/2 58/2/2
f 58/2/2 56/2/2 57/2/2
f 59/11/2 60/11/2 62/11/2
f 62/11/2 60/11/2 61/11/2
f 63/11/2 64/11/2 21/11/2
f 21/11/2 64/11/2 24/11/2
f 65/8/2 66/8/2 67/8/2
f 67/8/2 66/8/2 55/8/2
f 18/9/2 19/9/2 69/9/2
f 69/9/2 19/9/2 68/9/2
f 70/9/2 71/9/2 73/9/2
f 73/9/2 71/9/2 72/9/2
f 74/9/2 75/9/2 77/9/2
f 77/9/2 75/9/2 76/9/2
f 78/9/2 13/9/2 79/9/2
f 79/9/2 13/9/2 14/9/2
f 80/2/2 67/2/2 82/2/2
f 82/2/2 67/2/2 81/2/2
f 82/2/2 83/2/2 85/2/2
f 85/2/2 83/2/2 84/2/2
f 85/2/2 86/2/2 88/2/2
f 88/2/2 86/2/2 87/2/2
f 89/9/3 90/9/3 72/9/3
f 72/9/3 90/9/3 73/9/3
f 91/9/3 92/9/3 76/9/3
f 76/9/3 92/9/3 77/9/3
f 83/2/3 81/2/3 89/2/3
f 89/2/3 81/2/3 90/2/3
f 93/2/3 94/2/3 57/2/3
f 57/2/3 94/2/3 58/2/3
f 94/2/3 95/2/3 91/2/3
f 91/2/3 95/2/3 92/2/3
f 95/2/3 96/2/3 87/2/3
f 87/2/3 96/2/3 88/2/3
f 46/5/3 61/5/3 49/5/3
f 49/5/3 61/5/3 50/5/3
f 97/10/3 98/10/3 93/10/3
f 93/10/3 98/10/3 96/10/3
f 42/5/3 99/5/3 45/5/3
f 45/5/3 99/5/3 46/5/3
f 99/8/3 15/8/3 46/8/3
f 46/8/3 15/8/3 61/8/3
f 15/11/3 14/11/3 61/11/3
f 61/11/3 14/11/3 62/11/3
f 19/11/3 18/11/3 24/11/3
f 24/11/3 18/11/3 21/11/3
f 13/10/3 100/10/3 59/10/3
f 59/10/3 100/10/3 98/10/3
f 3/6/3 2/6/3 41/6/3
f 41/6/3 2/6/3 15/6/3
f 101/10/3 32/10/3 102/10/3
f 102/10/3 32/10/3 13/10/3
f 31/9/3 30/9/3 14/9/3
f 14/9/3 30/9/3 79/9/3
f 29/10/3 103/10/3 78/10/3
f 78/10/3 103/10/3 100/10/3
f 104/8/3 105/8/3 101/8/3
f 101/8/3 105/8/3 103/8/3
f 54/7/3 106/7/3 104/7/3
f 104/7/3 106/7/3 107/7/3
f 106/8/3 108/8/3 107/8/3
f 107/8/3 108/8/3 105/8/3
f 7/1/3 6/1/3 53/1/3
f 53/1/3 6/1/3 54/1/3
f 38/9/3 37/9/3 54/9/3
f 54/9/3 37/9/3 108/9/3
f 109/9/4 71/9/4 110/9/4
f 110/9/4 71/9/4 70/9/4
f 111/9/4 75/9/4 112/9/4
f 112/9/4 75/9/4 74/9/4
f 55/2/4 109/2/4 67/2/4
f 67/2/4 109/2/4 110/2/4
f 84/2/4 111/2/4 86/2/4
f 86/2/4 111/2/4 112/2/4
f 113/2/4 56/2/4 23/2/4
f 23/2/4 56/2/4 55/2/4
f 24/8/4 66/8/4 21/8/4
f 21/8/4 66/8/4 65/8/4
f 22/2/4 67/2/4 114/2/4
f 114/2/4 67/2/4 80/2/4
f 43/5/4 48/5/4 60/5/4
f 60/5/4 48/5/4 47/5/4
f 39/5/4 44/5/4 115/5/4
f 115/5/4 44/5/4 43/5/4
f 115/8/4 43/8/4 16/8/4
f 16/8/4 43/8/4 60/8/4
f 16/11/4 60/11/4 102/11/4
f 102/11/4 60/11/4 97/11/4
f 20/11/4 64/11/4 17/11/4
f 17/11/4 64/11/4 63/11/4
f 68/10/4 23/10/4 116/10/4
f 116/10/4 23/10/4 114/10/4
f 4/6/4 40/6/4 1/6/4
f 1/6/4 40/6/4 16/6/4
f 117/10/4 113/10/4 27/10/4
f 27/10/4 113/10/4 23/10/4
f 28/9/4 19/9/4 25/9/4
f 25/9/4 19/9/4 18/9/4
f 26/10/4 69/10/4 118/10/4
f 118/10/4 69/10/4 116/10/4
f 119/8/4 117/8/4 120/8/4
f 120/8/4 117/8/4 118/8/4
f 51/7/4 119/7/4 122/7/4
f 122/7/4 119/7/4 121/7/4
f 122/8/4 121/8/4 123/8/4
f 123/8/4 121/8/4 120/8/4
f 8/1/4 52/1/4 5/1/4
f 5/1/4 52/1/4 51/1/4
f 35/9/4 51/9/4 33/9/4
f 33/9/4 51/9/4 123/9/4
f 21/11/5 18/11/5 63/11/5
f 63/11/5 18/11/5 17/11/5
f 67/8/5 22/8/5 65/8/5
f 65/8/5 22/8/5 21/8/5
f 69/9/5 26/9/5 18/9/5
f 18/9/5 26/9/5 25/9/5
f 73/9/5 90/9/5 70/9/5
f 70/9/5 90/9/5 110/9/5
f 90/2/5 81/2/5 110/2/5
f 110/2/5 81/2/5 67/2/5
f 77/9/5 92/9/5 74/9/5
f 74/9/5 92/9/5 112/9/5
f 92/2/5 87/2/5 112/2/5
f 112/2/5 87/2/5 86/2/5
f 88/2/5 96/2/5 80/2/5
f 80/2/5 96/2/5 114/2/5
f 96/10/5 103/10/5 114/10/5
f 114/10/5 103/10/5 118/10/5
f 103/8/5 108/8/5 118/8/5
f 118/8/5 108/8/5 123/8/5
f 108/9/5 37/9/5 123/9/5
f 123/9/5 37/9/5 33/9/5
f 50/5/5 61/5/5 47/5/5
f 47/5/5 61/5/5 60/5/5
f 62/11/5 14/11/5 59/11/5
f 59/11/5 14/11/5 13/11/5
f 15/6/5 2/6/5 16/6/5
f 16/6/5 2/6/5 1/6/5
f 79/9/5 30/9/5 78/9/5
f 78/9/5 30/9/5 29/9/5
f 24/11/6 64/11/6 19/11/6
f 19/11/6 64/11/6 20/11/6
f 55/8/6 66/8/6 23/8/6
f 23/8/6 66/8/6 24/8/6
f 68/9/6 19/9/6 27/9/6
f 27/9/6 19/9/6 28/9/6
f 72/9/6 71/9/6 89/9/6
f 89/9/6 71/9/6 109/9/6
f 89/2/6 109/2/6 83/2/6
f 83/2/6 109/2/6 55/2/6
f 124/10/6 125/10/6 126/10/6
f 126/10/6 125/10/6 117/10/6
f 126/8/6 117/8/6 127/8/6
f 127/8/6 117/8/6 119/8/6
f 127/7/6 119/7/6 128/7/6
f 128/7/6 119/7/6 51/7/6
f 129/9/6 5/9/6 12/9/6
f 12/9/6 5/9/6 35/9/6
f 130/4/6 124/4/6 132/4/6
f 132/4/6 124/4/6 131/4/6
f 132/9/6 131/9/6 133/9/6
f 133/9/6 131/9/6 126/9/6
f 134/3/6 126/3/6 135/3/6
f 135/3/6 126/3/6 127/3/6
f 135/8/6 127/8/6 136/8/6
f 136/8/6 127/8/6 128/8/6
f 137/4/6 129/4/6 11/4/6
f 11/4/6 129/4/6 12/4/6
f 76/9/6 75/9/6 91/9/6
f 91/9/6 75/9/6 111/9/6
f 91/2/6 111/2/6 58/2/6
f 58/2/6 111/2/6 84/2/6
f 57/2/6 56/2/6 93/2/6
f 93/2/6 56/2/6 113/2/6
f 93/10/6 113/10/6 97/10/6
f 97/10/6 113/10/6 125/10/6
f 97/10/6 130/10/6 101/10/6
f 101/10/6 130/10/6 133/10/6
f 101/8/6 134/8/6 104/8/6
f 104/8/6 134/8/6 135/8/6
f 104/7/6 135/7/6 54/7/6
f 54/7/6 135/7/6 136/7/6
f 53/1/6 52/1/6 7/1/6
f 7/1/6 52/1/6 8/1/6
f 6/9/6 137/9/6 38/9/6
f 38/9/6 137/9/6 11/9/6
f 49/5/6 48/5/6 46/5/6
f 46/5/6 48/5/6 43/5/6
f 45/5/6 44/5/6 42/5/6
f 42/5/6 44/5/6 39/5/6
f 41/6/6 40/6/6 3/6/6
f 3/6/6 40/6/6 4/6/6
f 14/9/6 13/9/6 31/9/6
f 31/9/6 13/9/6 32/9/6
