# Vengi binary mesh normalized for Tanks of Freedom II

mtllib ../../materials/vox_building.mtl
o gentleman

v 0.2 1 0.2
v -0.3 1 0.2
v -0.3 1 0.3
v 0.2 1 0.3
v 0.4 0.6 0
v 0.3 0.6 0
v 0.3 0.6 0.1
v 0.4 0.6 0.1
v 0.3 0.4 0
v 0.2 0.4 0
v 0.2 0.4 0.1
v 0.3 0.4 0.1
v 0.3 0.7 0
v 0.2 0.7 0
v 0.2 0.7 0.1
v 0.3 0.7 0.1
v -0.2 0.7 0
v -0.3 0.7 0
v -0.3 0.7 0.1
v -0.2 0.7 0.1
v -0.3 0.6 0
v -0.4 0.6 0
v -0.4 0.6 0.1
v -0.3 0.6 0.1
v -0.4 0.7 0
v -0.5 0.7 0
v -0.5 0.7 0.1
v -0.4 0.7 0.1
v -0.4 1.1 0
v -0.5 1.1 0
v -0.5 1.1 0.1
v -0.4 1.1 0.1
v -0.5 0.9 0
v -0.6 0.9 0
v -0.6 0.9 0.1
v -0.5 0.9 0.1
v -0.6 0.8 0
v -0.7 0.8 0
v -0.7 0.8 0.1
v -0.6 0.8 0.1
v 0.2 1.3 -0.1
v -0.2 1.3 -0.1
v -0.2 1.3 0.2
v 0.2 1.3 0.2
v 0.3 1 -0.2
v 0.2 1 -0.2
v 0.3 1 0.3
v -0.2 1 -0.2
v -0.2 1 -0.1
v 0.2 1 -0.1
v -0.3 1 -0.2
v -0.2 1 0.2
v 0.2 0.9 0.2
v 0.2 0.9 0.3
v -0.3 0.9 0.3
v -0.3 0.9 0.2
v 0.2 0.3 0.1
v 0.2 0.3 0.2
v 0.1 0.3 0.2
v 0.1 0.3 0.1
v -0.1 0.3 0.1
v -0.1 0.3 0.2
v -0.2 0.3 0.2
v -0.2 0.3 0.1
v 0.4 0.4 0
v 0.4 0.4 0.1
v 0.3 0.3 0
v 0.3 0.3 0.1
v 0.2 0.3 0
v 0.2 0.6 0.1
v 0.2 0.6 0
v 0.2 0 0
v 0.2 0 0.1
v 0.1 0 0.1
v 0.1 0 0
v 0.1 0.3 0
v -0.1 0.3 0
v -0.1 0 0
v -0.1 0 0.1
v -0.2 0 0.1
v -0.2 0 0
v -0.2 0.6 0
v -0.2 0.6 0.1
v -0.3 0.5 0
v -0.3 0.5 0.1
v -0.4 0.5 0.1
v -0.4 0.5 0
v -0.5 0.6 0.1
v -0.5 0.6 0
v -0.4 0.8 0
v -0.4 0.8 0.1
v -0.5 0.8 0.1
v -0.5 0.8 0
v -0.6 0.7 0.1
v -0.6 0.7 0
v -0.7 0.7 0.1
v -0.7 0.7 0
v 0.2 0.1 -0.1
v 0.2 0.1 0
v 0.1 0.1 0
v 0.1 0.1 -0.1
v 0.1 0.2 -0.1
v 0.1 0.2 0
v -0.1 0.2 0
v -0.1 0.2 -0.1
v -0.1 0.1 -0.1
v -0.1 0.1 0
v -0.2 0.1 0
v -0.2 0.1 -0.1
v 0.3 0.9 -0.2
v 0.3 0.9 0.3
v 0.2 0.9 -0.2
v 0.2 0.9 -0.1
v -0.2 0.9 -0.1
v -0.2 0.9 -0.2
v -0.2 0.9 0.2
v -0.3 0.9 -0.2
v 0.1 0.1 0.1
v -0.2 0.1 0.1
v -0.2 0.3 0
v -0.2 0.7 0.2
v -0.2 0.7 -0.1
v -0.2 0.8 0.2
v -0.2 0.8 -0.1
v -0.2 0.9 0.1
v -0.2 0.8 0.1
v -0.2 1.1 0.2
v -0.2 1.1 -0.1
v 0.2 0.1 0.1
v -0.1 0.1 0.1
v 0.2 0.7 0.2
v 0.2 0.7 -0.1
v 0.2 0.8 0.2
v 0.2 0.8 -0.1
v 0.2 0.8 0.1
v 0.2 0.9 0.1
v 0.2 1.1 0.2
v 0.2 1.1 -0.1
v 0.1 0.7 -0.1
v -0.2 0.2 -0.1
v 0.1 0.7 0.2
v 0.1 0.8 0.2
v 0.1 0.9 0.2
v 0 0.5 0.2
v 0.1 0.5 0.2
v 0.1 0.6 0.2
v 0 0.6 0.2
v 0 0.7 0.2
v 0.1 0.4 0.2
v -0.1 0.4 0.2
v -0.1 0.5 0.2
v -0.1 0.6 0.2
v -0.1 0.7 0.2
v -0.1 0.8 0.2
v -0.1 0.9 0.2

vt 0.00195313 0.5
vt 0.00585938 0.5
vt 0.0292969 0.5
vt 0.0683594 0.5
vt 0.0839844 0.5
vt 0.0878906 0.5
vt 0.103516 0.5
vt 0.123047 0.5
vt 0.158203 0.5
vt 0.162109 0.5
vt 0.166016 0.5

vn 0 1 0
vn 0 -1 0
vn -1 0 0
vn 1 0 0
vn 0 0 -1
vn 0 0 1

usemtl palette
f 1/10/1 2/10/1 4/10/1
f 4/10/1 2/10/1 3/10/1
f 5/10/1 6/10/1 8/10/1
f 8/10/1 6/10/1 7/10/1
f 9/8/1 10/8/1 12/8/1
f 12/8/1 10/8/1 11/8/1
f 13/10/1 14/10/1 16/10/1
f 16/10/1 14/10/1 15/10/1
f 17/10/1 18/10/1 20/10/1
f 20/10/1 18/10/1 19/10/1
f 21/10/1 22/10/1 24/10/1
f 24/10/1 22/10/1 23/10/1
f 25/10/1 26/10/1 28/10/1
f 28/10/1 26/10/1 27/10/1
f 29/4/1 30/4/1 32/4/1
f 32/4/1 30/4/1 31/4/1
f 33/2/1 34/2/1 36/2/1
f 36/2/1 34/2/1 35/2/1
f 37/2/1 38/2/1 40/2/1
f 40/2/1 38/2/1 39/2/1
f 41/9/1 42/9/1 44/9/1
f 44/9/1 42/9/1 43/9/1
f 45/10/1 46/10/1 47/10/1
f 47/10/1 46/10/1 4/10/1
f 46/10/1 48/10/1 50/10/1
f 50/10/1 48/10/1 49/10/1
f 48/10/1 51/10/1 52/10/1
f 52/10/1 51/10/1 2/10/1
f 53/10/2 54/10/2 56/10/2
f 56/10/2 54/10/2 55/10/2
f 57/9/2 58/9/2 60/9/2
f 60/9/2 58/9/2 59/9/2
f 61/9/2 62/9/2 64/9/2
f 64/9/2 62/9/2 63/9/2
f 65/10/2 66/10/2 9/10/2
f 9/10/2 66/10/2 12/10/2
f 67/8/2 68/8/2 69/8/2
f 69/8/2 68/8/2 57/8/2
f 6/10/2 7/10/2 71/10/2
f 71/10/2 7/10/2 70/10/2
f 72/1/2 73/1/2 75/1/2
f 75/1/2 73/1/2 74/1/2
f 76/11/2 59/11/2 77/11/2
f 77/11/2 59/11/2 62/11/2
f 78/1/2 79/1/2 81/1/2
f 81/1/2 79/1/2 80/1/2
f 82/10/2 83/10/2 21/10/2
f 21/10/2 83/10/2 24/10/2
f 84/10/2 85/10/2 87/10/2
f 87/10/2 85/10/2 86/10/2
f 22/10/2 23/10/2 89/10/2
f 89/10/2 23/10/2 88/10/2
f 90/4/2 91/4/2 93/4/2
f 93/4/2 91/4/2 92/4/2
f 26/8/2 27/8/2 95/8/2
f 95/8/2 27/8/2 94/8/2
f 95/2/2 94/2/2 97/2/2
f 97/2/2 94/2/2 96/2/2
f 98/9/2 99/9/2 101/9/2
f 101/9/2 99/9/2 100/9/2
f 102/9/2 103/9/2 105/9/2
f 105/9/2 103/9/2 104/9/2
f 106/9/2 107/9/2 109/9/2
f 109/9/2 107/9/2 108/9/2
f 110/10/2 111/10/2 112/10/2
f 112/10/2 111/10/2 54/10/2
f 112/10/2 113/10/2 115/10/2
f 115/10/2 113/10/2 114/10/2
f 115/10/2 116/10/2 117/10/2
f 117/10/2 116/10/2 56/10/2
f 118/1/3 100/1/3 74/1/3
f 74/1/3 100/1/3 75/1/3
f 119/1/3 108/1/3 80/1/3
f 80/1/3 108/1/3 81/1/3
f 103/9/3 102/9/3 100/9/3
f 100/9/3 102/9/3 101/9/3
f 60/10/3 76/10/3 118/10/3
f 118/10/3 76/10/3 100/10/3
f 64/10/3 120/10/3 119/10/3
f 119/10/3 120/10/3 108/10/3
f 7/10/3 6/10/3 12/10/3
f 12/10/3 6/10/3 9/10/3
f 83/9/3 82/9/3 64/9/3
f 64/9/3 82/9/3 120/9/3
f 23/10/3 22/10/3 86/10/3
f 86/10/3 22/10/3 87/10/3
f 121/9/3 20/9/3 63/9/3
f 63/9/3 20/9/3 64/9/3
f 19/10/3 18/10/3 24/10/3
f 24/10/3 18/10/3 21/10/3
f 27/10/3 26/10/3 88/10/3
f 88/10/3 26/10/3 89/10/3
f 17/9/3 122/9/3 108/9/3
f 108/9/3 122/9/3 109/9/3
f 39/2/3 38/2/3 96/2/3
f 96/2/3 38/2/3 97/2/3
f 123/8/3 124/8/3 121/8/3
f 121/8/3 124/8/3 122/8/3
f 116/7/3 125/7/3 123/7/3
f 123/7/3 125/7/3 126/7/3
f 35/2/3 34/2/3 40/2/3
f 40/2/3 34/2/3 37/2/3
f 125/2/3 114/2/3 126/2/3
f 126/2/3 114/2/3 124/2/3
f 3/10/3 51/10/3 55/10/3
f 55/10/3 51/10/3 117/10/3
f 31/4/3 30/4/3 36/4/3
f 36/4/3 30/4/3 33/4/3
f 127/6/3 128/6/3 52/6/3
f 52/6/3 128/6/3 49/6/3
f 43/9/3 42/9/3 127/9/3
f 127/9/3 42/9/3 128/9/3
f 129/1/4 73/1/4 99/1/4
f 99/1/4 73/1/4 72/1/4
f 130/1/4 79/1/4 107/1/4
f 107/1/4 79/1/4 78/1/4
f 104/9/4 107/9/4 105/9/4
f 105/9/4 107/9/4 106/9/4
f 57/10/4 129/10/4 69/10/4
f 69/10/4 129/10/4 99/10/4
f 61/10/4 130/10/4 77/10/4
f 77/10/4 130/10/4 107/10/4
f 12/8/4 68/8/4 9/8/4
f 9/8/4 68/8/4 67/8/4
f 8/10/4 66/10/4 5/10/4
f 5/10/4 66/10/4 65/10/4
f 70/9/4 11/9/4 71/9/4
f 71/9/4 11/9/4 10/9/4
f 24/10/4 85/10/4 21/10/4
f 21/10/4 85/10/4 84/10/4
f 131/9/4 58/9/4 15/9/4
f 15/9/4 58/9/4 57/9/4
f 16/10/4 7/10/4 13/10/4
f 13/10/4 7/10/4 6/10/4
f 28/10/4 23/10/4 25/10/4
f 25/10/4 23/10/4 22/10/4
f 14/9/4 99/9/4 132/9/4
f 132/9/4 99/9/4 98/9/4
f 92/8/4 27/8/4 93/8/4
f 93/8/4 27/8/4 26/8/4
f 133/8/4 131/8/4 134/8/4
f 134/8/4 131/8/4 132/8/4
f 53/7/4 133/7/4 136/7/4
f 136/7/4 133/7/4 135/7/4
f 136/2/4 135/2/4 113/2/4
f 113/2/4 135/2/4 134/2/4
f 47/10/4 111/10/4 45/10/4
f 45/10/4 111/10/4 110/10/4
f 32/4/4 91/4/4 29/4/4
f 29/4/4 91/4/4 90/4/4
f 137/6/4 1/6/4 138/6/4
f 138/6/4 1/6/4 50/6/4
f 44/9/4 137/9/4 41/9/4
f 41/9/4 137/9/4 138/9/4
f 9/10/5 6/10/5 65/10/5
f 65/10/5 6/10/5 5/10/5
f 69/8/5 10/8/5 67/8/5
f 67/8/5 10/8/5 9/8/5
f 71/10/5 14/10/5 6/10/5
f 6/10/5 14/10/5 13/10/5
f 75/1/5 100/1/5 72/1/5
f 72/1/5 100/1/5 99/1/5
f 101/9/5 139/9/5 98/9/5
f 98/9/5 139/9/5 132/9/5
f 81/1/5 108/1/5 78/1/5
f 78/1/5 108/1/5 107/1/5
f 109/9/5 140/9/5 106/9/5
f 106/9/5 140/9/5 105/9/5
f 140/9/5 122/9/5 102/9/5
f 102/9/5 122/9/5 139/9/5
f 122/8/5 124/8/5 132/8/5
f 132/8/5 124/8/5 134/8/5
f 124/2/5 114/2/5 134/2/5
f 134/2/5 114/2/5 113/2/5
f 49/6/5 128/6/5 50/6/5
f 50/6/5 128/6/5 138/6/5
f 128/9/5 42/9/5 138/9/5
f 138/9/5 42/9/5 41/9/5
f 21/10/5 18/10/5 82/10/5
f 82/10/5 18/10/5 17/10/5
f 117/10/5 51/10/5 110/10/5
f 110/10/5 51/10/5 45/10/5
f 87/10/5 22/10/5 84/10/5
f 84/10/5 22/10/5 21/10/5
f 89/10/5 26/10/5 22/10/5
f 22/10/5 26/10/5 25/10/5
f 93/4/5 30/4/5 90/4/5
f 90/4/5 30/4/5 29/4/5
f 95/8/5 37/8/5 26/8/5
f 26/8/5 37/8/5 93/8/5
f 37/2/5 34/2/5 93/2/5
f 93/2/5 34/2/5 33/2/5
f 97/2/5 38/2/5 95/2/5
f 95/2/5 38/2/5 37/2/5
f 12/10/6 66/10/6 7/10/6
f 7/10/6 66/10/6 8/10/6
f 57/8/6 68/8/6 11/8/6
f 11/8/6 68/8/6 12/8/6
f 70/10/6 7/10/6 15/10/6
f 15/10/6 7/10/6 16/10/6
f 74/1/6 73/1/6 118/1/6
f 118/1/6 73/1/6 129/1/6
f 118/10/6 129/10/6 60/10/6
f 60/10/6 129/10/6 57/10/6
f 59/9/6 58/9/6 141/9/6
f 141/9/6 58/9/6 131/9/6
f 141/8/6 131/8/6 142/8/6
f 142/8/6 131/8/6 133/8/6
f 142/7/6 133/7/6 143/7/6
f 143/7/6 133/7/6 53/7/6
f 144/5/6 145/5/6 147/5/6
f 147/5/6 145/5/6 146/5/6
f 147/10/6 146/10/6 148/10/6
f 148/10/6 146/10/6 141/10/6
f 104/9/6 103/9/6 77/9/6
f 77/9/6 103/9/6 76/9/6
f 62/11/6 59/11/6 150/11/6
f 150/11/6 59/11/6 149/11/6
f 150/10/6 149/10/6 151/10/6
f 151/10/6 149/10/6 145/10/6
f 151/10/6 144/10/6 152/10/6
f 152/10/6 144/10/6 147/10/6
f 152/3/6 147/3/6 153/3/6
f 153/3/6 147/3/6 148/3/6
f 153/2/6 141/2/6 154/2/6
f 154/2/6 141/2/6 142/2/6
f 154/8/6 142/8/6 155/8/6
f 155/8/6 142/8/6 143/8/6
f 80/1/6 79/1/6 119/1/6
f 119/1/6 79/1/6 130/1/6
f 119/10/6 130/10/6 64/10/6
f 64/10/6 130/10/6 61/10/6
f 63/9/6 62/9/6 121/9/6
f 121/9/6 62/9/6 153/9/6
f 121/8/6 153/8/6 123/8/6
f 123/8/6 153/8/6 154/8/6
f 123/7/6 154/7/6 116/7/6
f 116/7/6 154/7/6 155/7/6
f 52/6/6 1/6/6 127/6/6
f 127/6/6 1/6/6 137/6/6
f 127/9/6 137/9/6 43/9/6
f 43/9/6 137/9/6 44/9/6
f 24/10/6 83/10/6 19/10/6
f 19/10/6 83/10/6 20/10/6
f 55/10/6 111/10/6 3/10/6
f 3/10/6 111/10/6 47/10/6
f 86/10/6 85/10/6 23/10/6
f 23/10/6 85/10/6 24/10/6
f 88/10/6 23/10/6 27/10/6
f 27/10/6 23/10/6 28/10/6
f 92/4/6 91/4/6 31/4/6
f 31/4/6 91/4/6 32/4/6
f 94/8/6 27/8/6 40/8/6
f 40/8/6 27/8/6 92/8/6
f 40/2/6 92/2/6 35/2/6
f 35/2/6 92/2/6 36/2/6
f 96/2/6 94/2/6 39/2/6
f 39/2/6 94/2/6 40/2/6
