# Vengi binary mesh normalized for Tanks of Freedom II

mtllib ../../materials/vox_building.mtl
o hero_standard

v 1 2.8 -0.4
v 0.9 2.8 -0.4
v 0.9 2.8 -0.3
v 1 2.8 -0.3
v -0.4 2.8 -0.4
v -0.4 2.8 -0.3
v -0.5 2.8 -0.4
v -0.5 2.8 -0.3
v 0.3 3.1 -0.5
v 0.2 3.1 -0.5
v 0.2 3.1 -0.4
v 0.3 3.1 -0.4
v 1 2.7 -0.4
v 1 2.7 -0.3
v 0.9 2.7 -0.3
v 0.9 2.7 -0.4
v 0.7 2.7 -0.3
v 0.7 2.7 -0.4
v 0.7 1.3 -0.4
v 0.7 1.3 -0.3
v 0.6 1.3 -0.3
v 0.6 1.3 -0.4
v 0.6 1.2 -0.4
v 0.6 1.2 -0.3
v 0.5 1.2 -0.3
v 0.5 1.2 -0.4
v 0.5 1.1 -0.4
v 0.5 1.1 -0.3
v 0.4 1.1 -0.3
v 0.4 1.1 -0.4
v 0.4 1 -0.4
v 0.4 1 -0.3
v 0.3 1 -0.3
v 0.3 1 -0.4
v 0.3 0.9 -0.4
v 0.3 0.9 -0.3
v 0.2 0.9 -0.3
v 0.2 0.9 -0.4
v 0.2 1 -0.4
v 0.2 1 -0.3
v 0.1 1 -0.3
v 0.1 1 -0.4
v 0.1 1.1 -0.4
v 0.1 1.1 -0.3
v 0 1.1 -0.3
v 0 1.1 -0.4
v 0 1.2 -0.4
v 0 1.2 -0.3
v -0.1 1.2 -0.3
v -0.1 1.2 -0.4
v -0.1 1.3 -0.4
v -0.1 1.3 -0.3
v -0.2 1.3 -0.3
v -0.2 1.3 -0.4
v -0.2 2.7 -0.4
v -0.2 2.7 -0.3
v -0.4 2.7 -0.3
v -0.4 2.7 -0.4
v -0.5 2.7 -0.3
v -0.5 2.7 -0.4
v 0.3 0 -0.5
v 0.3 0 -0.4
v 0.2 0 -0.4
v 0.2 0 -0.5
v 0.2 2.9 -0.4
v 0.2 2.9 -0.5
v 0.3 2.9 -0.4
v 0.3 2.9 -0.5
v 0.6 2.7 -0.4
v 0.5 1.3 -0.4
v 0.5 2.7 -0.4
v 0.4 1.2 -0.4
v 0.4 1.3 -0.4
v 0.4 1.4 -0.4
v 0.4 2.3 -0.4
v 0.5 2.3 -0.4
v 0.5 1.4 -0.4
v 0.4 2.4 -0.4
v 0.5 2.4 -0.4
v 0.4 2.6 -0.4
v 0.5 2.6 -0.4
v 0.3 1.1 -0.4
v 0.3 1.2 -0.4
v 0.3 1.3 -0.4
v 0.3 1.4 -0.4
v 0.3 2.1 -0.4
v 0.4 2.1 -0.4
v 0.3 2.2 -0.4
v 0.4 2.2 -0.4
v 0.3 2.3 -0.4
v 0.3 2.4 -0.4
v 0.3 2.5 -0.4
v 0.4 2.5 -0.4
v 0.3 2.6 -0.4
v 0.3 2.7 -0.4
v 0.3 2.8 -0.4
v 0.2 1.1 -0.4
v 0.1 1.2 -0.4
v 0.2 1.2 -0.4
v 0.1 1.4 -0.4
v 0.2 1.4 -0.4
v 0.1 2.1 -0.4
v 0.2 2.1 -0.4
v 0.1 2.2 -0.4
v 0.1 2.3 -0.4
v 0.2 2.3 -0.4
v 0.2 2.2 -0.4
v 0.1 2.4 -0.4
v 0.2 2.4 -0.4
v 0.1 2.5 -0.4
v 0.2 2.5 -0.4
v 0 1.3 -0.4
v 0.1 1.3 -0.4
v 0 2.1 -0.4
v 0 2.2 -0.4
v 0 2.3 -0.4
v 0 2.4 -0.4
v 0 2.5 -0.4
v 0 2.6 -0.4
v 0.2 2.6 -0.4
v -0.1 2.6 -0.4
v -0.1 2.7 -0.4
v 0.2 2.7 -0.4
v 0.2 2.8 -0.4
v 0.6 2.7 -0.3
v 0.5 1.3 -0.3
v 0.5 2.7 -0.3
v 0.4 1.2 -0.3
v 0.4 1.3 -0.3
v 0.4 1.4 -0.3
v 0.5 1.4 -0.3
v 0.5 2.3 -0.3
v 0.4 2.3 -0.3
v 0.5 2.4 -0.3
v 0.4 2.4 -0.3
v 0.5 2.6 -0.3
v 0.4 2.6 -0.3
v 0.3 1.1 -0.3
v 0.3 1.2 -0.3
v 0.3 1.4 -0.3
v 0.4 2.1 -0.3
v 0.3 2.1 -0.3
v 0.4 2.2 -0.3
v 0.3 2.2 -0.3
v 0.3 2.3 -0.3
v 0.3 2.4 -0.3
v 0.4 2.5 -0.3
v 0.3 2.5 -0.3
v 0.3 2.6 -0.3
v 0.2 1.1 -0.3
v 0.2 1.2 -0.3
v 0.2 1.4 -0.3
v 0.2 2.1 -0.3
v 0.2 2.2 -0.3
v 0.2 2.3 -0.3
v 0.2 2.4 -0.3
v 0.2 2.5 -0.3
v 0.2 2.6 -0.3
v 0.1 1.2 -0.3
v 0.1 1.3 -0.3
v 0.1 1.4 -0.3
v 0.1 2.1 -0.3
v 0.1 2.2 -0.3
v 0.1 2.3 -0.3
v 0.1 2.4 -0.3
v 0.1 2.5 -0.3
v 0 1.3 -0.3
v 0 1.4 -0.3
v 0 2.1 -0.3
v 0 2.2 -0.3
v 0 2.3 -0.3
v 0 2.4 -0.3
v 0 2.5 -0.3
v 0 2.6 -0.3
v -0.1 2.6 -0.3
v -0.1 2.7 -0.3

vt 0.00585938 0.5
vt 0.0839844 0.5
vt 0.158203 0.5
vt 0.162109 0.5
vt 0.166016 0.5

vn 0 1 0
vn 0 -1 0
vn -1 0 0
vn 1 0 0
vn 0 0 -1
vn 0 0 1

usemtl palette
f 1/3/1 2/3/1 4/3/1
f 4/3/1 2/3/1 3/3/1
f 2/2/1 5/2/1 3/2/1
f 3/2/1 5/2/1 6/2/1
f 5/3/1 7/3/1 6/3/1
f 6/3/1 7/3/1 8/3/1
f 9/3/1 10/3/1 12/3/1
f 12/3/1 10/3/1 11/3/1
f 13/3/2 14/3/2 16/3/2
f 16/3/2 14/3/2 15/3/2
f 16/2/2 15/2/2 18/2/2
f 18/2/2 15/2/2 17/2/2
f 19/3/2 20/3/2 22/3/2
f 22/3/2 20/3/2 21/3/2
f 23/3/2 24/3/2 26/3/2
f 26/3/2 24/3/2 25/3/2
f 27/3/2 28/3/2 30/3/2
f 30/3/2 28/3/2 29/3/2
f 31/3/2 32/3/2 34/3/2
f 34/3/2 32/3/2 33/3/2
f 35/3/2 36/3/2 38/3/2
f 38/3/2 36/3/2 37/3/2
f 39/3/2 40/3/2 42/3/2
f 42/3/2 40/3/2 41/3/2
f 43/3/2 44/3/2 46/3/2
f 46/3/2 44/3/2 45/3/2
f 47/3/2 48/3/2 50/3/2
f 50/3/2 48/3/2 49/3/2
f 51/3/2 52/3/2 54/3/2
f 54/3/2 52/3/2 53/3/2
f 55/2/2 56/2/2 58/2/2
f 58/2/2 56/2/2 57/2/2
f 58/3/2 57/3/2 60/3/2
f 60/3/2 57/3/2 59/3/2
f 61/1/2 62/1/2 64/1/2
f 64/1/2 62/1/2 63/1/2
f 40/3/3 39/3/3 37/3/3
f 37/3/3 39/3/3 38/3/3
f 44/3/3 43/3/3 41/3/3
f 41/3/3 43/3/3 42/3/3
f 48/3/3 47/3/3 45/3/3
f 45/3/3 47/3/3 46/3/3
f 52/3/3 51/3/3 49/3/3
f 49/3/3 51/3/3 50/3/3
f 56/3/3 55/3/3 53/3/3
f 53/3/3 55/3/3 54/3/3
f 8/3/3 7/3/3 59/3/3
f 59/3/3 7/3/3 60/3/3
f 65/1/3 66/1/3 63/1/3
f 63/1/3 66/1/3 64/1/3
f 11/3/3 10/3/3 65/3/3
f 65/3/3 10/3/3 66/3/3
f 33/3/4 36/3/4 34/3/4
f 34/3/4 36/3/4 35/3/4
f 29/3/4 32/3/4 30/3/4
f 30/3/4 32/3/4 31/3/4
f 25/3/4 28/3/4 26/3/4
f 26/3/4 28/3/4 27/3/4
f 21/3/4 24/3/4 22/3/4
f 22/3/4 24/3/4 23/3/4
f 17/3/4 20/3/4 18/3/4
f 18/3/4 20/3/4 19/3/4
f 4/3/4 14/3/4 1/3/4
f 1/3/4 14/3/4 13/3/4
f 67/1/4 62/1/4 68/1/4
f 68/1/4 62/1/4 61/1/4
f 12/3/4 67/3/4 9/3/4
f 9/3/4 67/3/4 68/3/4
f 16/3/5 2/3/5 13/3/5
f 13/3/5 2/3/5 1/3/5
f 22/3/5 69/3/5 19/3/5
f 19/3/5 69/3/5 18/3/5
f 26/3/5 70/3/5 23/3/5
f 23/3/5 70/3/5 22/3/5
f 70/4/5 71/4/5 22/4/5
f 22/4/5 71/4/5 69/4/5
f 30/3/5 72/3/5 27/3/5
f 27/3/5 72/3/5 26/3/5
f 72/4/5 73/4/5 26/4/5
f 26/4/5 73/4/5 70/4/5
f 74/5/5 75/5/5 77/5/5
f 77/5/5 75/5/5 76/5/5
f 75/3/5 78/3/5 76/3/5
f 76/3/5 78/3/5 79/3/5
f 78/5/5 80/5/5 79/5/5
f 79/5/5 80/5/5 81/5/5
f 34/3/5 82/3/5 31/3/5
f 31/3/5 82/3/5 30/3/5
f 82/4/5 83/4/5 30/4/5
f 30/4/5 83/4/5 72/4/5
f 83/5/5 84/5/5 72/5/5
f 72/5/5 84/5/5 73/5/5
f 84/5/5 85/5/5 70/5/5
f 70/5/5 85/5/5 77/5/5
f 85/3/5 86/3/5 74/3/5
f 74/3/5 86/3/5 87/3/5
f 86/5/5 88/5/5 87/5/5
f 87/5/5 88/5/5 89/5/5
f 88/3/5 90/3/5 89/3/5
f 89/3/5 90/3/5 75/3/5
f 90/4/5 91/4/5 75/4/5
f 75/4/5 91/4/5 78/4/5
f 91/3/5 92/3/5 78/3/5
f 78/3/5 92/3/5 93/3/5
f 92/5/5 94/5/5 93/5/5
f 93/5/5 94/5/5 80/5/5
f 94/4/5 95/4/5 81/4/5
f 81/4/5 95/4/5 71/4/5
f 95/2/5 96/2/5 16/2/5
f 16/2/5 96/2/5 2/2/5
f 64/1/5 66/1/5 61/1/5
f 61/1/5 66/1/5 68/1/5
f 66/3/5 10/3/5 68/3/5
f 68/3/5 10/3/5 9/3/5
f 42/3/5 43/3/5 39/3/5
f 39/3/5 43/3/5 97/3/5
f 43/4/5 98/4/5 97/4/5
f 97/4/5 98/4/5 99/4/5
f 98/5/5 100/5/5 99/5/5
f 99/5/5 100/5/5 101/5/5
f 100/3/5 102/3/5 101/3/5
f 101/3/5 102/3/5 103/3/5
f 104/3/5 105/3/5 107/3/5
f 107/3/5 105/3/5 106/3/5
f 105/4/5 108/4/5 106/4/5
f 106/4/5 108/4/5 109/4/5
f 108/3/5 110/3/5 109/3/5
f 109/3/5 110/3/5 111/3/5
f 46/3/5 47/3/5 43/3/5
f 43/3/5 47/3/5 98/3/5
f 47/4/5 112/4/5 98/4/5
f 98/4/5 112/4/5 113/4/5
f 112/5/5 114/5/5 113/5/5
f 113/5/5 114/5/5 102/5/5
f 114/5/5 115/5/5 103/5/5
f 103/5/5 115/5/5 107/5/5
f 115/5/5 116/5/5 104/5/5
f 104/5/5 116/5/5 105/5/5
f 116/3/5 117/3/5 105/3/5
f 105/3/5 117/3/5 108/3/5
f 117/5/5 118/5/5 108/5/5
f 108/5/5 118/5/5 110/5/5
f 118/5/5 119/5/5 111/5/5
f 111/5/5 119/5/5 120/5/5
f 50/3/5 51/3/5 47/3/5
f 47/3/5 51/3/5 112/3/5
f 51/4/5 121/4/5 112/4/5
f 112/4/5 121/4/5 119/4/5
f 121/4/5 122/4/5 120/4/5
f 120/4/5 122/4/5 123/4/5
f 54/3/5 55/3/5 51/3/5
f 51/3/5 55/3/5 122/3/5
f 58/2/5 5/2/5 123/2/5
f 123/2/5 5/2/5 124/2/5
f 60/3/5 7/3/5 58/3/5
f 58/3/5 7/3/5 5/3/5
f 15/3/6 14/3/6 3/3/6
f 3/3/6 14/3/6 4/3/6
f 21/3/6 20/3/6 125/3/6
f 125/3/6 20/3/6 17/3/6
f 25/3/6 24/3/6 126/3/6
f 126/3/6 24/3/6 21/3/6
f 126/4/6 21/4/6 127/4/6
f 127/4/6 21/4/6 125/4/6
f 29/3/6 28/3/6 128/3/6
f 128/3/6 28/3/6 25/3/6
f 128/4/6 25/4/6 129/4/6
f 129/4/6 25/4/6 126/4/6
f 130/5/6 131/5/6 133/5/6
f 133/5/6 131/5/6 132/5/6
f 133/3/6 132/3/6 135/3/6
f 135/3/6 132/3/6 134/3/6
f 135/5/6 134/5/6 137/5/6
f 137/5/6 134/5/6 136/5/6
f 33/3/6 32/3/6 138/3/6
f 138/3/6 32/3/6 29/3/6
f 138/4/6 29/4/6 139/4/6
f 139/4/6 29/4/6 128/4/6
f 140/3/6 130/3/6 142/3/6
f 142/3/6 130/3/6 141/3/6
f 142/5/6 141/5/6 144/5/6
f 144/5/6 141/5/6 143/5/6
f 144/3/6 143/3/6 145/3/6
f 145/3/6 143/3/6 133/3/6
f 146/3/6 135/3/6 148/3/6
f 148/3/6 135/3/6 147/3/6
f 148/5/6 147/5/6 149/5/6
f 149/5/6 147/5/6 137/5/6
f 63/1/6 62/1/6 38/1/6
f 38/1/6 62/1/6 35/1/6
f 37/3/6 36/3/6 40/3/6
f 40/3/6 36/3/6 33/3/6
f 40/4/6 33/4/6 150/4/6
f 150/4/6 33/4/6 138/4/6
f 150/5/6 138/5/6 151/5/6
f 151/5/6 138/5/6 139/5/6
f 152/5/6 140/5/6 153/5/6
f 153/5/6 140/5/6 142/5/6
f 153/3/6 142/3/6 154/3/6
f 154/3/6 142/3/6 144/3/6
f 154/4/6 144/4/6 155/4/6
f 155/4/6 144/4/6 145/4/6
f 156/4/6 146/4/6 157/4/6
f 157/4/6 146/4/6 148/4/6
f 157/3/6 148/3/6 158/3/6
f 158/3/6 148/3/6 149/3/6
f 124/1/6 96/1/6 65/1/6
f 65/1/6 96/1/6 67/1/6
f 65/3/6 67/3/6 11/3/6
f 11/3/6 67/3/6 12/3/6
f 41/3/6 40/3/6 44/3/6
f 44/3/6 40/3/6 150/3/6
f 44/4/6 150/4/6 159/4/6
f 159/4/6 150/4/6 151/4/6
f 159/5/6 128/5/6 160/5/6
f 160/5/6 128/5/6 129/5/6
f 161/3/6 152/3/6 162/3/6
f 162/3/6 152/3/6 153/3/6
f 163/3/6 154/3/6 164/3/6
f 164/3/6 154/3/6 155/3/6
f 164/4/6 133/4/6 165/4/6
f 165/4/6 133/4/6 135/4/6
f 165/3/6 156/3/6 166/3/6
f 166/3/6 156/3/6 157/3/6
f 45/3/6 44/3/6 48/3/6
f 48/3/6 44/3/6 159/3/6
f 48/4/6 159/4/6 167/4/6
f 167/4/6 159/4/6 160/4/6
f 167/5/6 126/5/6 168/5/6
f 168/5/6 126/5/6 131/5/6
f 168/5/6 161/5/6 169/5/6
f 169/5/6 161/5/6 162/5/6
f 169/5/6 153/5/6 170/5/6
f 170/5/6 153/5/6 154/5/6
f 170/5/6 163/5/6 171/5/6
f 171/5/6 163/5/6 164/5/6
f 171/3/6 164/3/6 172/3/6
f 172/3/6 164/3/6 165/3/6
f 172/5/6 165/5/6 173/5/6
f 173/5/6 165/5/6 166/5/6
f 173/5/6 157/5/6 174/5/6
f 174/5/6 157/5/6 158/5/6
f 49/3/6 48/3/6 52/3/6
f 52/3/6 48/3/6 167/3/6
f 52/4/6 167/4/6 175/4/6
f 175/4/6 167/4/6 174/4/6
f 175/4/6 136/4/6 176/4/6
f 176/4/6 136/4/6 127/4/6
f 53/3/6 52/3/6 56/3/6
f 56/3/6 52/3/6 176/3/6
f 57/2/6 15/2/6 6/2/6
f 6/2/6 15/2/6 3/2/6
f 59/3/6 57/3/6 8/3/6
f 8/3/6 57/3/6 6/3/6
