# Vengi binary mesh normalized for Tanks of Freedom II

mtllib ../../materials/vox_building.mtl
o noble

v -0.2 0.9 0.8
v -0.3 0.9 0.8
v -0.3 0.9 0.9
v -0.2 0.9 0.9
v -0.2 0.8 0.7
v -0.3 0.8 0.7
v -0.3 0.8 0.8
v -0.2 0.8 0.8
v -0.2 0.7 0.6
v -0.3 0.7 0.6
v -0.3 0.7 0.7
v -0.2 0.7 0.7
v -0.2 0.6 0.5
v -0.3 0.6 0.5
v -0.3 0.6 0.6
v -0.2 0.6 0.6
v -0.2 0.5 0.4
v -0.3 0.5 0.4
v -0.3 0.5 0.5
v -0.2 0.5 0.5
v -0.1 0.4 0.3
v -0.2 0.4 0.3
v -0.2 0.4 0.4
v -0.1 0.4 0.4
v -0.3 0.4 0.3
v -0.3 0.4 0.4
v -0.4 0.4 0.3
v -0.4 0.4 0.4
v -0.2 0.5 0.2
v -0.3 0.5 0.2
v -0.3 0.5 0.3
v -0.2 0.5 0.3
v 0.3 0.7 0.1
v 0.2 0.7 0.1
v 0.2 0.7 0.2
v 0.3 0.7 0.2
v 0.2 0.1 0.1
v 0.1 0.1 0.1
v 0.1 0.1 0.2
v 0.2 0.1 0.2
v -0.1 0.1 0.1
v -0.2 0.1 0.1
v -0.2 0.1 0.2
v -0.1 0.1 0.2
v -0.2 0.7 0.1
v -0.3 0.7 0.1
v -0.3 0.7 0.2
v -0.2 0.7 0.2
v 0.4 0.6 0
v 0.3 0.6 0
v 0.3 0.6 0.1
v 0.4 0.6 0.1
v 0.3 0.4 0
v 0.2 0.4 0
v 0.2 0.4 0.1
v 0.3 0.4 0.1
v 0.3 0.8 0
v 0.2 0.8 0
v 0.2 0.8 0.1
v 0.3 0.8 0.1
v -0.2 0.8 0
v -0.3 0.8 0
v -0.3 0.8 0.1
v -0.2 0.8 0.1
v 0.3 1 -0.1
v 0.2 1 -0.1
v 0.2 1 0.1
v 0.3 1 0.1
v 0.2 1.1 -0.1
v -0.2 1.1 -0.1
v -0.2 1.1 0.2
v 0.2 1.1 0.2
v -0.2 1 -0.1
v -0.3 1 -0.1
v -0.3 1 0.1
v -0.2 1 0.1
v 0.2 0.2 -0.2
v -0.2 0.2 -0.2
v -0.2 0.2 -0.1
v 0.2 0.2 -0.1
v 0.2 1 -0.2
v -0.2 1 -0.2
v 0.2 0.1 -0.3
v -0.2 0.1 -0.3
v -0.2 0.1 -0.2
v 0.2 0.1 -0.2
v -0.2 0.8 0.9
v -0.3 0.8 0.9
v -0.2 0.7 0.8
v -0.3 0.7 0.8
v -0.2 0.6 0.7
v -0.3 0.6 0.7
v -0.2 0.5 0.6
v -0.3 0.5 0.6
v -0.2 0.3 0.4
v -0.2 0.3 0.5
v -0.3 0.3 0.5
v -0.3 0.3 0.4
v -0.1 0.3 0.3
v -0.1 0.3 0.4
v -0.2 0.3 0.3
v -0.2 0.2 0.3
v -0.2 0.2 0.4
v -0.3 0.2 0.4
v -0.3 0.2 0.3
v -0.3 0.3 0.3
v -0.4 0.3 0.4
v -0.4 0.3 0.3
v -0.2 0.4 0.2
v -0.3 0.4 0.2
v 0.3 0.6 0.2
v 0.2 0.6 0.2
v 0.2 0.6 0.1
v 0.2 0.3 0.1
v 0.2 0.3 0.2
v 0.1 0.3 0.2
v 0.1 0.3 0.1
v 0 0.3 0.2
v 0 0.3 0.1
v -0.2 0.3 0.2
v -0.2 0.3 0.1
v -0.2 0.5 0.1
v -0.3 0.5 0.1
v 0.4 0.4 0
v 0.4 0.4 0.1
v 0.3 0.3 0
v 0.3 0.3 0.1
v 0.2 0.3 0
v 0.2 0.6 0
v 0.3 0.9 0
v 0.3 0.9 0.1
v 0.2 0.9 0.1
v 0.2 0.9 0
v 0.2 0 0
v 0.2 0 0.2
v 0.1 0 0.2
v 0.1 0 0
v 0.1 0.3 0
v -0.1 0.3 0.1
v -0.1 0.3 0
v -0.1 0 0
v -0.1 0 0.2
v -0.2 0 0.2
v -0.2 0 0
v -0.2 0.6 0
v -0.2 0.6 0.1
v -0.3 0.6 0.1
v -0.3 0.6 0
v -0.2 0.9 0
v -0.2 0.9 0.1
v -0.3 0.9 0.1
v -0.3 0.9 0
v 0.3 0.8 -0.1
v 0.2 0.8 -0.1
v 0.2 0.2 0
v -0.2 0.2 0
v -0.2 0.8 -0.1
v -0.3 0.8 -0.1
v 0.2 0.7 -0.2
v 0.2 0.7 -0.1
v 0.1 0.7 -0.1
v 0.1 0.7 -0.2
v 0.1 0.6 -0.2
v 0.1 0.6 -0.1
v -0.1 0.6 -0.1
v -0.1 0.6 -0.2
v 0.2 0.1 -0.1
v -0.2 0.1 -0.1
v -0.1 0.7 -0.2
v -0.1 0.7 -0.1
v -0.2 0.7 -0.1
v -0.2 0.7 -0.2
v 0.2 0 -0.3
v 0.2 0 -0.2
v -0.2 0 -0.2
v -0.2 0 -0.3
v 0.1 0.1 0
v -0.2 0.1 0
v -0.2 0.3 0
v -0.3 0.4 0.5
v -0.2 0.4 0
v -0.2 0.5 0
v -0.3 0.6 0.2
v -0.3 0.7 0
v -0.2 0.7 0
v -0.2 0.8 0.2
v -0.2 0.9 0.2
v -0.2 1 0.2
v -0.3 1 0
v 0.2 0.1 0
v -0.1 0.1 0
v -0.2 0.4 0.5
v 0.2 0.4 0.2
v 0.3 0.7 0
v 0.2 0.7 0
v 0.2 0.8 0.2
v 0.2 0.9 0.2
v 0.2 1 0.2
v 0.3 1 0
v 0.1 0.2 0
v 0.2 0.6 -0.1
v -0.1 0.2 0
v -0.2 0.6 -0.1
v 0.1 0.4 0.2
v 0.1 0.7 0.2
v 0.1 0.8 0.2
v 0.1 0.9 0.2
v 0.1 1 0.2
v 0 0.7 0.2
v -0.1 0.6 0.2
v 0 0.6 0.2
v -0.1 0.7 0.2
v -0.1 0.8 0.2
v -0.1 0.9 0.2
v -0.1 1 0.2
v 0 0.4 0.2
v -0.2 0.6 0.2

vt 0.00585938 0.5
vt 0.0253906 0.5
vt 0.0292969 0.5
vt 0.0332031 0.5
vt 0.0371094 0.5
vt 0.0683594 0.5
vt 0.123047 0.5
vt 0.158203 0.5
vt 0.162109 0.5
vt 0.166016 0.5

vn 0 1 0
vn 0 -1 0
vn -1 0 0
vn 1 0 0
vn 0 0 -1
vn 0 0 1

usemtl palette
f 1/4/1 2/4/1 4/4/1
f 4/4/1 2/4/1 3/4/1
f 5/4/1 6/4/1 8/4/1
f 8/4/1 6/4/1 7/4/1
f 9/4/1 10/4/1 12/4/1
f 12/4/1 10/4/1 11/4/1
f 13/4/1 14/4/1 16/4/1
f 16/4/1 14/4/1 15/4/1
f 17/4/1 18/4/1 20/4/1
f 20/4/1 18/4/1 19/4/1
f 21/6/1 22/6/1 24/6/1
f 24/6/1 22/6/1 23/6/1
f 22/7/1 25/7/1 23/7/1
f 23/7/1 25/7/1 26/7/1
f 25/6/1 27/6/1 26/6/1
f 26/6/1 27/6/1 28/6/1
f 29/10/1 30/10/1 32/10/1
f 32/10/1 30/10/1 31/10/1
f 33/2/1 34/2/1 36/2/1
f 36/2/1 34/2/1 35/2/1
f 37/1/1 38/1/1 40/1/1
f 40/1/1 38/1/1 39/1/1
f 41/1/1 42/1/1 44/1/1
f 44/1/1 42/1/1 43/1/1
f 45/2/1 46/2/1 48/2/1
f 48/2/1 46/2/1 47/2/1
f 49/10/1 50/10/1 52/10/1
f 52/10/1 50/10/1 51/10/1
f 53/7/1 54/7/1 56/7/1
f 56/7/1 54/7/1 55/7/1
f 57/2/1 58/2/1 60/2/1
f 60/2/1 58/2/1 59/2/1
f 61/2/1 62/2/1 64/2/1
f 64/2/1 62/2/1 63/2/1
f 65/2/1 66/2/1 68/2/1
f 68/2/1 66/2/1 67/2/1
f 69/2/1 70/2/1 72/2/1
f 72/2/1 70/2/1 71/2/1
f 73/2/1 74/2/1 76/2/1
f 76/2/1 74/2/1 75/2/1
f 77/9/1 78/9/1 80/9/1
f 80/9/1 78/9/1 79/9/1
f 81/2/1 82/2/1 66/2/1
f 66/2/1 82/2/1 73/2/1
f 83/9/1 84/9/1 86/9/1
f 86/9/1 84/9/1 85/9/1
f 8/4/2 87/4/2 7/4/2
f 7/4/2 87/4/2 88/4/2
f 12/4/2 89/4/2 11/4/2
f 11/4/2 89/4/2 90/4/2
f 16/4/2 91/4/2 15/4/2
f 15/4/2 91/4/2 92/4/2
f 20/4/2 93/4/2 19/4/2
f 19/4/2 93/4/2 94/4/2
f 95/6/2 96/6/2 98/6/2
f 98/6/2 96/6/2 97/6/2
f 99/6/2 100/6/2 101/6/2
f 101/6/2 100/6/2 95/6/2
f 102/6/2 103/6/2 105/6/2
f 105/6/2 103/6/2 104/6/2
f 106/6/2 98/6/2 108/6/2
f 108/6/2 98/6/2 107/6/2
f 109/10/2 22/10/2 110/10/2
f 110/10/2 22/10/2 25/10/2
f 51/2/2 111/2/2 113/2/2
f 113/2/2 111/2/2 112/2/2
f 114/10/2 115/10/2 117/10/2
f 117/10/2 115/10/2 116/10/2
f 117/3/2 116/3/2 119/3/2
f 119/3/2 116/3/2 118/3/2
f 119/10/2 118/10/2 121/10/2
f 121/10/2 118/10/2 120/10/2
f 122/10/2 29/10/2 123/10/2
f 123/10/2 29/10/2 30/10/2
f 124/10/2 125/10/2 53/10/2
f 53/10/2 125/10/2 56/10/2
f 126/7/2 127/7/2 128/7/2
f 128/7/2 127/7/2 114/7/2
f 50/8/2 51/8/2 129/8/2
f 129/8/2 51/8/2 113/8/2
f 130/2/2 131/2/2 133/2/2
f 133/2/2 131/2/2 132/2/2
f 134/1/2 135/1/2 137/1/2
f 137/1/2 135/1/2 136/1/2
f 138/9/2 117/9/2 140/9/2
f 140/9/2 117/9/2 139/9/2
f 141/1/2 142/1/2 144/1/2
f 144/1/2 142/1/2 143/1/2
f 145/8/2 146/8/2 148/8/2
f 148/8/2 146/8/2 147/8/2
f 149/2/2 150/2/2 152/2/2
f 152/2/2 150/2/2 151/2/2
f 153/2/2 57/2/2 154/2/2
f 154/2/2 57/2/2 58/2/2
f 80/9/2 155/9/2 79/9/2
f 79/9/2 155/9/2 156/9/2
f 157/2/2 61/2/2 158/2/2
f 158/2/2 61/2/2 62/2/2
f 159/2/2 160/2/2 162/2/2
f 162/2/2 160/2/2 161/2/2
f 163/2/2 164/2/2 166/2/2
f 166/2/2 164/2/2 165/2/2
f 86/9/2 167/9/2 85/9/2
f 85/9/2 167/9/2 168/9/2
f 169/2/2 170/2/2 172/2/2
f 172/2/2 170/2/2 171/2/2
f 173/9/2 174/9/2 176/9/2
f 176/9/2 174/9/2 175/9/2
f 39/1/3 177/1/3 136/1/3
f 136/1/3 177/1/3 137/1/3
f 43/1/3 178/1/3 143/1/3
f 143/1/3 178/1/3 144/1/3
f 85/9/3 84/9/3 175/9/3
f 175/9/3 84/9/3 176/9/3
f 79/9/3 78/9/3 168/9/3
f 168/9/3 78/9/3 85/9/3
f 98/6/3 106/6/3 104/6/3
f 104/6/3 106/6/3 105/6/3
f 117/8/3 138/8/3 38/8/3
f 38/8/3 138/8/3 177/8/3
f 121/8/3 179/8/3 42/8/3
f 42/8/3 179/8/3 178/8/3
f 180/6/3 26/6/3 97/6/3
f 97/6/3 26/6/3 98/6/3
f 28/6/3 27/6/3 107/6/3
f 107/6/3 27/6/3 108/6/3
f 109/10/3 181/10/3 120/10/3
f 120/10/3 181/10/3 179/10/3
f 19/4/3 18/4/3 180/4/3
f 180/4/3 18/4/3 26/4/3
f 31/10/3 30/10/3 25/10/3
f 25/10/3 30/10/3 110/10/3
f 29/8/3 182/8/3 109/8/3
f 109/8/3 182/8/3 181/8/3
f 15/4/3 14/4/3 94/4/3
f 94/4/3 14/4/3 19/4/3
f 183/10/3 147/10/3 30/10/3
f 30/10/3 147/10/3 123/10/3
f 51/10/3 50/10/3 56/10/3
f 56/10/3 50/10/3 53/10/3
f 146/8/3 145/8/3 122/8/3
f 122/8/3 145/8/3 182/8/3
f 11/4/3 10/4/3 92/4/3
f 92/4/3 10/4/3 15/4/3
f 47/2/3 46/2/3 183/2/3
f 183/2/3 46/2/3 147/2/3
f 46/8/3 184/8/3 147/8/3
f 147/8/3 184/8/3 148/8/3
f 185/9/3 171/9/3 156/9/3
f 156/9/3 171/9/3 79/9/3
f 170/2/3 169/2/3 165/2/3
f 165/2/3 169/2/3 166/2/3
f 7/4/3 6/4/3 90/4/3
f 90/4/3 6/4/3 11/4/3
f 186/7/3 64/7/3 48/7/3
f 48/7/3 64/7/3 45/7/3
f 63/2/3 62/2/3 46/2/3
f 46/2/3 62/2/3 184/2/3
f 61/7/3 157/7/3 185/7/3
f 185/7/3 157/7/3 171/7/3
f 3/4/3 2/4/3 88/4/3
f 88/4/3 2/4/3 7/4/3
f 187/5/3 150/5/3 186/5/3
f 186/5/3 150/5/3 64/5/3
f 150/7/3 149/7/3 64/7/3
f 64/7/3 149/7/3 61/7/3
f 188/7/3 76/7/3 187/7/3
f 187/7/3 76/7/3 150/7/3
f 75/2/3 189/2/3 151/2/3
f 151/2/3 189/2/3 152/2/3
f 189/2/3 74/2/3 62/2/3
f 62/2/3 74/2/3 158/2/3
f 73/2/3 82/2/3 171/2/3
f 171/2/3 82/2/3 172/2/3
f 71/2/3 70/2/3 188/2/3
f 188/2/3 70/2/3 73/2/3
f 40/1/4 135/1/4 190/1/4
f 190/1/4 135/1/4 134/1/4
f 44/1/4 142/1/4 191/1/4
f 191/1/4 142/1/4 141/1/4
f 86/9/4 174/9/4 83/9/4
f 83/9/4 174/9/4 173/9/4
f 80/9/4 167/9/4 77/9/4
f 77/9/4 167/9/4 86/9/4
f 95/6/4 103/6/4 101/6/4
f 101/6/4 103/6/4 102/6/4
f 114/8/4 37/8/4 128/8/4
f 128/8/4 37/8/4 190/8/4
f 139/8/4 41/8/4 140/8/4
f 140/8/4 41/8/4 191/8/4
f 192/6/4 96/6/4 23/6/4
f 23/6/4 96/6/4 95/6/4
f 24/6/4 100/6/4 21/6/4
f 21/6/4 100/6/4 99/6/4
f 193/10/4 115/10/4 55/10/4
f 55/10/4 115/10/4 114/10/4
f 56/7/4 127/7/4 53/7/4
f 53/7/4 127/7/4 126/7/4
f 20/4/4 192/4/4 17/4/4
f 17/4/4 192/4/4 23/4/4
f 32/10/4 22/10/4 29/10/4
f 29/10/4 22/10/4 109/10/4
f 16/4/4 93/4/4 13/4/4
f 13/4/4 93/4/4 20/4/4
f 52/10/4 125/10/4 49/10/4
f 49/10/4 125/10/4 124/10/4
f 112/8/4 193/8/4 129/8/4
f 129/8/4 193/8/4 54/8/4
f 12/4/4 91/4/4 9/4/4
f 9/4/4 91/4/4 16/4/4
f 36/2/4 111/2/4 33/2/4
f 33/2/4 111/2/4 51/2/4
f 33/8/4 51/8/4 194/8/4
f 194/8/4 51/8/4 50/8/4
f 195/9/4 155/9/4 160/9/4
f 160/9/4 155/9/4 80/9/4
f 161/2/4 164/2/4 162/2/4
f 162/2/4 164/2/4 163/2/4
f 8/4/4 89/4/4 5/4/4
f 5/4/4 89/4/4 12/4/4
f 196/7/4 35/7/4 59/7/4
f 59/7/4 35/7/4 34/7/4
f 60/2/4 33/2/4 57/2/4
f 57/2/4 33/2/4 194/2/4
f 58/7/4 195/7/4 154/7/4
f 154/7/4 195/7/4 160/7/4
f 4/4/4 87/4/4 1/4/4
f 1/4/4 87/4/4 8/4/4
f 197/5/4 196/5/4 132/5/4
f 132/5/4 196/5/4 59/5/4
f 132/7/4 59/7/4 133/7/4
f 133/7/4 59/7/4 58/7/4
f 198/7/4 197/7/4 67/7/4
f 67/7/4 197/7/4 132/7/4
f 68/2/4 131/2/4 199/2/4
f 199/2/4 131/2/4 130/2/4
f 199/2/4 57/2/4 65/2/4
f 65/2/4 57/2/4 153/2/4
f 66/2/4 160/2/4 81/2/4
f 81/2/4 160/2/4 159/2/4
f 72/2/4 198/2/4 69/2/4
f 69/2/4 198/2/4 66/2/4
f 53/10/5 50/10/5 124/10/5
f 124/10/5 50/10/5 49/10/5
f 128/7/5 54/7/5 126/7/5
f 126/7/5 54/7/5 53/7/5
f 129/8/5 195/8/5 50/8/5
f 50/8/5 195/8/5 194/8/5
f 195/2/5 58/2/5 194/2/5
f 194/2/5 58/2/5 57/2/5
f 154/2/5 66/2/5 153/2/5
f 153/2/5 66/2/5 65/2/5
f 137/1/5 177/1/5 134/1/5
f 134/1/5 177/1/5 190/1/5
f 177/8/5 200/8/5 190/8/5
f 190/8/5 200/8/5 155/8/5
f 164/9/5 161/9/5 201/9/5
f 201/9/5 161/9/5 160/9/5
f 166/2/5 169/2/5 163/2/5
f 163/2/5 169/2/5 162/2/5
f 144/1/5 178/1/5 141/1/5
f 141/1/5 178/1/5 191/1/5
f 176/9/5 84/9/5 173/9/5
f 173/9/5 84/9/5 83/9/5
f 178/8/5 156/8/5 191/8/5
f 191/8/5 156/8/5 202/8/5
f 85/9/5 78/9/5 86/9/5
f 86/9/5 78/9/5 77/9/5
f 101/6/5 22/6/5 99/6/5
f 99/6/5 22/6/5 21/6/5
f 79/9/5 203/9/5 80/9/5
f 80/9/5 203/9/5 201/9/5
f 203/9/5 171/9/5 165/9/5
f 165/9/5 171/9/5 170/9/5
f 172/2/5 82/2/5 159/2/5
f 159/2/5 82/2/5 81/2/5
f 73/2/5 70/2/5 66/2/5
f 66/2/5 70/2/5 69/2/5
f 105/6/5 106/6/5 102/6/5
f 102/6/5 106/6/5 101/6/5
f 106/7/5 25/7/5 101/7/5
f 101/7/5 25/7/5 22/7/5
f 26/4/5 18/4/5 23/4/5
f 23/4/5 18/4/5 17/4/5
f 110/10/5 30/10/5 109/10/5
f 109/10/5 30/10/5 29/10/5
f 19/4/5 14/4/5 20/4/5
f 20/4/5 14/4/5 13/4/5
f 123/10/5 147/10/5 122/10/5
f 122/10/5 147/10/5 146/10/5
f 15/4/5 10/4/5 16/4/5
f 16/4/5 10/4/5 9/4/5
f 148/8/5 184/8/5 145/8/5
f 145/8/5 184/8/5 185/8/5
f 11/4/5 6/4/5 12/4/5
f 12/4/5 6/4/5 5/4/5
f 184/2/5 62/2/5 185/2/5
f 185/2/5 62/2/5 61/2/5
f 7/4/5 2/4/5 8/4/5
f 8/4/5 2/4/5 1/4/5
f 158/2/5 74/2/5 157/2/5
f 157/2/5 74/2/5 73/2/5
f 108/6/5 27/6/5 106/6/5
f 106/6/5 27/6/5 25/6/5
f 56/10/6 125/10/6 51/10/6
f 51/10/6 125/10/6 52/10/6
f 114/7/6 127/7/6 55/7/6
f 55/7/6 127/7/6 56/7/6
f 112/2/6 111/2/6 35/2/6
f 35/2/6 111/2/6 36/2/6
f 34/2/6 33/2/6 59/2/6
f 59/2/6 33/2/6 60/2/6
f 58/2/6 57/2/6 133/2/6
f 133/2/6 57/2/6 130/2/6
f 132/2/6 131/2/6 67/2/6
f 67/2/6 131/2/6 68/2/6
f 136/1/6 135/1/6 39/1/6
f 39/1/6 135/1/6 40/1/6
f 38/8/6 37/8/6 117/8/6
f 117/8/6 37/8/6 114/8/6
f 116/10/6 115/10/6 204/10/6
f 204/10/6 115/10/6 193/10/6
f 204/8/6 193/8/6 205/8/6
f 205/8/6 193/8/6 35/8/6
f 205/7/6 35/7/6 206/7/6
f 206/7/6 35/7/6 196/7/6
f 206/5/6 196/5/6 207/5/6
f 207/5/6 196/5/6 197/5/6
f 207/7/6 197/7/6 208/7/6
f 208/7/6 197/7/6 198/7/6
f 118/3/6 116/3/6 209/3/6
f 209/3/6 116/3/6 205/3/6
f 202/9/6 200/9/6 140/9/6
f 140/9/6 200/9/6 138/9/6
f 210/3/6 211/3/6 212/3/6
f 212/3/6 211/3/6 209/3/6
f 212/2/6 205/2/6 213/2/6
f 213/2/6 205/2/6 206/2/6
f 213/7/6 206/7/6 214/7/6
f 214/7/6 206/7/6 207/7/6
f 214/2/6 207/2/6 215/2/6
f 215/2/6 207/2/6 208/2/6
f 143/1/6 142/1/6 43/1/6
f 43/1/6 142/1/6 44/1/6
f 175/9/6 174/9/6 85/9/6
f 85/9/6 174/9/6 86/9/6
f 168/9/6 167/9/6 79/9/6
f 79/9/6 167/9/6 80/9/6
f 42/8/6 41/8/6 121/8/6
f 121/8/6 41/8/6 139/8/6
f 95/6/6 100/6/6 23/6/6
f 23/6/6 100/6/6 24/6/6
f 120/10/6 118/10/6 109/10/6
f 109/10/6 118/10/6 216/10/6
f 109/8/6 216/8/6 217/8/6
f 217/8/6 216/8/6 211/8/6
f 217/8/6 210/8/6 48/8/6
f 48/8/6 210/8/6 212/8/6
f 48/7/6 212/7/6 186/7/6
f 186/7/6 212/7/6 213/7/6
f 186/5/6 213/5/6 187/5/6
f 187/5/6 213/5/6 214/5/6
f 187/7/6 214/7/6 188/7/6
f 188/7/6 214/7/6 215/7/6
f 188/2/6 198/2/6 71/2/6
f 71/2/6 198/2/6 72/2/6
f 104/6/6 103/6/6 98/6/6
f 98/6/6 103/6/6 95/6/6
f 97/6/6 96/6/6 180/6/6
f 180/6/6 96/6/6 192/6/6
f 180/4/6 192/4/6 19/4/6
f 19/4/6 192/4/6 20/4/6
f 25/10/6 22/10/6 31/10/6
f 31/10/6 22/10/6 32/10/6
f 94/4/6 93/4/6 15/4/6
f 15/4/6 93/4/6 16/4/6
f 30/10/6 29/10/6 183/10/6
f 183/10/6 29/10/6 217/10/6
f 92/4/6 91/4/6 11/4/6
f 11/4/6 91/4/6 12/4/6
f 183/2/6 217/2/6 47/2/6
f 47/2/6 217/2/6 48/2/6
f 90/4/6 89/4/6 7/4/6
f 7/4/6 89/4/6 8/4/6
f 46/2/6 45/2/6 63/2/6
f 63/2/6 45/2/6 64/2/6
f 88/4/6 87/4/6 3/4/6
f 3/4/6 87/4/6 4/4/6
f 62/2/6 61/2/6 152/2/6
f 152/2/6 61/2/6 149/2/6
f 151/2/6 150/2/6 75/2/6
f 75/2/6 150/2/6 76/2/6
f 107/6/6 98/6/6 28/6/6
f 28/6/6 98/6/6 26/6/6
