# Vengi binary mesh normalized for Tanks of Freedom II

mtllib ../../materials/vox_building.mtl
o prince

v -0.2 0.8 0.8
v -0.3 0.8 0.8
v -0.3 0.8 0.9
v -0.2 0.8 0.9
v -0.1 0.8 0.6
v -0.2 0.8 0.6
v -0.2 0.8 0.7
v -0.1 0.8 0.7
v -0.3 0.8 0.6
v -0.4 0.8 0.6
v -0.4 0.8 0.7
v -0.3 0.8 0.7
v 0.1 0.8 0.5
v -0.1 0.8 0.5
v 0.1 0.8 0.6
v -0.4 0.8 0.5
v -0.6 0.8 0.5
v -0.6 0.8 0.6
v 0 0.8 0.4
v -0.1 0.8 0.4
v 0 0.8 0.5
v -0.2 0.8 0.4
v -0.3 0.8 0.4
v -0.4 0.8 0.4
v -0.5 0.8 0.4
v -0.5 0.8 0.5
v -0.1 0.8 0.3
v -0.2 0.8 0.3
v -0.3 0.8 0.3
v -0.4 0.8 0.3
v 0.2 1 0.2
v 0.1 1 0.2
v 0.1 1 0.3
v 0.2 1 0.3
v -0.1 1 0.2
v -0.2 1 0.2
v -0.2 1 0.3
v -0.1 1 0.3
v -0.2 0.7 0.2
v -0.3 0.7 0.2
v -0.3 0.7 0.3
v -0.2 0.7 0.3
v 0.3 0.9 0.1
v 0.2 0.9 0.1
v 0.2 0.9 0.2
v 0.3 0.9 0.2
v -0.1 1.1 0.1
v -0.2 1.1 0.1
v -0.2 1.1 0.2
v -0.1 1.1 0.2
v -0.2 0.6 0.1
v -0.3 0.6 0.1
v -0.3 0.6 0.2
v -0.2 0.6 0.2
v -0.2 0.9 0.1
v -0.3 0.9 0.1
v -0.3 0.9 0.2
v -0.2 0.9 0.2
v -0.3 0.7 0.1
v -0.4 0.7 0.1
v -0.4 0.7 0.2
v 0.4 0.6 0
v 0.3 0.6 0
v 0.3 0.6 0.1
v 0.4 0.6 0.1
v 0.3 0.4 0
v 0.2 0.4 0
v 0.2 0.4 0.1
v 0.3 0.4 0.1
v 0.3 1 0
v 0.2 1 0
v 0.2 1 0.1
v 0.3 1 0.1
v 0.2 1.1 0
v -0.1 1.1 0
v 0.2 1.1 0.2
v -0.1 1.3 0
v -0.2 1.3 0
v -0.2 1.3 0.1
v -0.1 1.3 0.1
v -0.2 1 0
v -0.3 1 0
v -0.3 1 0.1
v -0.2 1 0.1
v 0.3 0.9 -0.1
v 0.2 0.9 -0.1
v 0.2 0.9 0
v 0.3 0.9 0
v 0.2 1 -0.1
v 0.1 1 -0.1
v 0.1 1 0
v 0.1 1.1 -0.1
v -0.1 1.1 -0.1
v 0.1 1.1 0
v -0.1 1 -0.1
v -0.2 1 -0.1
v -0.1 1 0
v -0.1 1.4 -0.1
v -0.2 1.4 -0.1
v -0.2 1.4 0
v -0.1 1.4 0
v -0.2 0.9 -0.1
v -0.3 0.9 -0.1
v -0.3 0.9 0
v -0.2 0.9 0
v 0.2 0.9 -0.2
v 0.1 0.9 -0.2
v 0.1 0.9 -0.1
v 0.1 1 -0.2
v -0.1 1 -0.2
v -0.1 0.9 -0.2
v -0.2 0.9 -0.2
v -0.1 0.9 -0.1
v -0.1 1.5 -0.3
v -0.2 1.5 -0.3
v -0.2 1.5 -0.1
v -0.1 1.5 -0.1
v -0.2 0.7 0.8
v -0.2 0.7 0.9
v -0.3 0.7 0.9
v -0.3 0.7 0.8
v -0.1 0.7 0.6
v -0.1 0.7 0.7
v -0.2 0.7 0.7
v -0.2 0.7 0.6
v -0.3 0.7 0.6
v -0.3 0.7 0.7
v -0.4 0.7 0.7
v -0.4 0.7 0.6
v 0.1 0.7 0.5
v 0.1 0.7 0.6
v -0.1 0.7 0.5
v -0.4 0.7 0.5
v -0.6 0.7 0.6
v -0.6 0.7 0.5
v 0 0.7 0.4
v 0 0.7 0.5
v -0.1 0.7 0.4
v -0.2 0.6 0.4
v -0.2 0.6 0.8
v -0.3 0.6 0.8
v -0.3 0.6 0.4
v -0.4 0.7 0.4
v -0.5 0.7 0.5
v -0.5 0.7 0.4
v -0.1 0.7 0.3
v -0.2 0.7 0.4
v -0.2 0.5 0.3
v -0.2 0.5 0.4
v -0.3 0.5 0.4
v -0.3 0.5 0.3
v -0.3 0.7 0.4
v -0.4 0.7 0.3
v 0.2 0.9 0.3
v 0.1 0.9 0.3
v 0.1 0.9 0.2
v -0.1 0.9 0.2
v -0.1 0.9 0.3
v -0.2 0.9 0.3
v 0.3 0.7 0.1
v 0.3 0.7 0.2
v 0.2 0.7 0.2
v 0.2 0.7 0.1
v 0.2 0.3 0.1
v 0.2 0.3 0.2
v 0.1 0.3 0.2
v 0.1 0.3 0.1
v -0.1 0.3 0.2
v -0.1 0.3 0.1
v -0.2 0.3 0.2
v -0.2 0.3 0.1
v -0.2 0.5 0.1
v -0.3 0.5 0.1
v -0.2 0.7 0.1
v -0.4 0.6 0.2
v -0.4 0.6 0.1
v 0.4 0.4 0
v 0.4 0.4 0.1
v 0.3 0.3 0
v 0.3 0.3 0.1
v 0.2 0.3 0
v 0.2 0.6 0.1
v 0.2 0.6 0
v 0.2 0 0
v 0.2 0 0.1
v 0.1 0 0.1
v 0.1 0 0
v 0.1 0.3 0
v -0.1 0.3 0
v -0.1 0 0
v -0.1 0 0.1
v -0.2 0 0.1
v -0.2 0 0
v -0.2 0.6 0
v -0.3 0.6 0
v 0.3 0.7 -0.1
v 0.3 0.7 0
v 0.2 0.7 0
v 0.2 0.7 -0.1
v 0.2 0.3 -0.1
v 0.1 0.3 -0.1
v -0.1 0.3 -0.1
v -0.2 0.3 0
v -0.2 0.3 -0.1
v -0.1 1.3 -0.1
v -0.2 1.3 -0.1
v -0.2 0.7 -0.1
v -0.2 0.7 0
v -0.3 0.7 0
v -0.3 0.7 -0.1
v 0.2 0.7 -0.2
v 0.1 0.7 -0.1
v 0.1 0.7 -0.2
v 0.1 0.6 -0.2
v 0.1 0.6 -0.1
v -0.1 0.6 -0.1
v -0.1 0.6 -0.2
v -0.1 0.7 -0.2
v -0.1 0.7 -0.1
v -0.2 0.7 -0.2
v -0.1 1.4 -0.3
v -0.2 1.4 -0.3
v 0.1 0.1 0.1
v 0.1 0.1 0
v -0.2 0.1 0.1
v -0.2 0.1 0
v -0.2 0.4 0.2
v -0.2 0.4 0.1
v -0.2 0.4 0
v -0.2 0.4 -0.1
v -0.2 0.5 0.2
v -0.3 0.6 0.3
v -0.2 0.6 -0.1
v 0.2 0.1 0.1
v 0.2 0.1 0
v -0.1 0.1 0.1
v -0.1 0.1 0
v 0.2 0.4 0.2
v 0.2 0.4 -0.1
v -0.2 0.6 0.3
v 0.2 0.6 0.2
v 0.2 0.6 -0.1
v 0.1 0.4 -0.1
v -0.1 0.4 -0.1
v 0.1 0.4 0.2
v 0.1 0.5 0.2
v 0.2 0.5 0.2
v 0.1 0.6 0.2
v 0.1 0.7 0.2
v 0.2 0.8 0.2
v 0.1 0.8 0.2
v -0.1 0.4 0.2
v -0.1 0.5 0.2
v -0.1 0.6 0.2
v -0.1 0.7 0.2
v -0.1 0.8 0.2
v -0.2 0.8 0.2

vt 0.00585938 0.5
vt 0.0253906 0.5
vt 0.0292969 0.5
vt 0.0332031 0.5
vt 0.0683594 0.5
vt 0.0839844 0.5
vt 0.0957031 0.5
vt 0.119141 0.5
vt 0.123047 0.5
vt 0.158203 0.5
vt 0.162109 0.5

vn 0 1 0
vn 0 -1 0
vn -1 0 0
vn 1 0 0
vn 0 0 -1
vn 0 0 1

usemtl palette
f 1/5/1 2/5/1 4/5/1
f 4/5/1 2/5/1 3/5/1
f 5/1/1 6/1/1 8/1/1
f 8/1/1 6/1/1 7/1/1
f 9/1/1 10/1/1 12/1/1
f 12/1/1 10/1/1 11/1/1
f 13/1/1 14/1/1 15/1/1
f 15/1/1 14/1/1 5/1/1
f 16/1/1 17/1/1 10/1/1
f 10/1/1 17/1/1 18/1/1
f 19/5/1 20/5/1 21/5/1
f 21/5/1 20/5/1 14/5/1
f 22/6/1 23/6/1 1/6/1
f 1/6/1 23/6/1 2/6/1
f 24/5/1 25/5/1 16/5/1
f 16/5/1 25/5/1 26/5/1
f 27/5/1 28/5/1 20/5/1
f 20/5/1 28/5/1 22/5/1
f 28/3/1 29/3/1 22/3/1
f 22/3/1 29/3/1 23/3/1
f 29/5/1 30/5/1 23/5/1
f 23/5/1 30/5/1 24/5/1
f 31/11/1 32/11/1 34/11/1
f 34/11/1 32/11/1 33/11/1
f 35/11/1 36/11/1 38/11/1
f 38/11/1 36/11/1 37/11/1
f 39/10/1 40/10/1 42/10/1
f 42/10/1 40/10/1 41/10/1
f 43/11/1 44/11/1 46/11/1
f 46/11/1 44/11/1 45/11/1
f 47/11/1 48/11/1 50/11/1
f 50/11/1 48/11/1 49/11/1
f 51/5/1 52/5/1 54/5/1
f 54/5/1 52/5/1 53/5/1
f 55/11/1 56/11/1 58/11/1
f 58/11/1 56/11/1 57/11/1
f 59/10/1 60/10/1 40/10/1
f 40/10/1 60/10/1 61/10/1
f 62/5/1 63/5/1 65/5/1
f 65/5/1 63/5/1 64/5/1
f 66/9/1 67/9/1 69/9/1
f 69/9/1 67/9/1 68/9/1
f 70/11/1 71/11/1 73/11/1
f 73/11/1 71/11/1 72/11/1
f 74/11/1 75/11/1 76/11/1
f 76/11/1 75/11/1 50/11/1
f 77/3/1 78/3/1 80/3/1
f 80/3/1 78/3/1 79/3/1
f 81/11/1 82/11/1 84/11/1
f 84/11/1 82/11/1 83/11/1
f 85/11/1 86/11/1 88/11/1
f 88/11/1 86/11/1 87/11/1
f 89/11/1 90/11/1 71/11/1
f 71/11/1 90/11/1 91/11/1
f 92/11/1 93/11/1 94/11/1
f 94/11/1 93/11/1 75/11/1
f 95/11/1 96/11/1 97/11/1
f 97/11/1 96/11/1 81/11/1
f 98/10/1 99/10/1 101/10/1
f 101/10/1 99/10/1 100/10/1
f 102/11/1 103/11/1 105/11/1
f 105/11/1 103/11/1 104/11/1
f 106/11/1 107/11/1 86/11/1
f 86/11/1 107/11/1 108/11/1
f 109/11/1 110/11/1 90/11/1
f 90/11/1 110/11/1 95/11/1
f 111/11/1 112/11/1 113/11/1
f 113/11/1 112/11/1 102/11/1
f 114/10/1 115/10/1 117/10/1
f 117/10/1 115/10/1 116/10/1
f 118/5/2 119/5/2 121/5/2
f 121/5/2 119/5/2 120/5/2
f 122/1/2 123/1/2 125/1/2
f 125/1/2 123/1/2 124/1/2
f 126/1/2 127/1/2 129/1/2
f 129/1/2 127/1/2 128/1/2
f 130/1/2 131/1/2 132/1/2
f 132/1/2 131/1/2 122/1/2
f 133/1/2 129/1/2 135/1/2
f 135/1/2 129/1/2 134/1/2
f 136/5/2 137/5/2 138/5/2
f 138/5/2 137/5/2 132/5/2
f 139/10/2 140/10/2 142/10/2
f 142/10/2 140/10/2 141/10/2
f 143/5/2 133/5/2 145/5/2
f 145/5/2 133/5/2 144/5/2
f 146/5/2 138/5/2 42/5/2
f 42/5/2 138/5/2 147/5/2
f 148/9/2 149/9/2 151/9/2
f 151/9/2 149/9/2 150/9/2
f 41/5/2 152/5/2 153/5/2
f 153/5/2 152/5/2 143/5/2
f 45/11/2 154/11/2 156/11/2
f 156/11/2 154/11/2 155/11/2
f 157/11/2 158/11/2 58/11/2
f 58/11/2 158/11/2 159/11/2
f 160/11/2 161/11/2 163/11/2
f 163/11/2 161/11/2 162/11/2
f 164/11/2 165/11/2 167/11/2
f 167/11/2 165/11/2 166/11/2
f 167/10/2 166/10/2 169/10/2
f 169/10/2 166/10/2 168/10/2
f 169/11/2 168/11/2 171/11/2
f 171/11/2 168/11/2 170/11/2
f 172/5/2 148/5/2 173/5/2
f 173/5/2 148/5/2 151/5/2
f 174/11/2 39/11/2 59/11/2
f 59/11/2 39/11/2 40/11/2
f 52/10/2 53/10/2 176/10/2
f 176/10/2 53/10/2 175/10/2
f 177/5/2 178/5/2 66/5/2
f 66/5/2 178/5/2 69/5/2
f 179/9/2 180/9/2 181/9/2
f 181/9/2 180/9/2 164/9/2
f 63/5/2 64/5/2 183/5/2
f 183/5/2 64/5/2 182/5/2
f 184/10/2 185/10/2 187/10/2
f 187/10/2 185/10/2 186/10/2
f 188/11/2 167/11/2 189/11/2
f 189/11/2 167/11/2 169/11/2
f 190/10/2 191/10/2 193/10/2
f 193/10/2 191/10/2 192/10/2
f 194/5/2 51/5/2 195/5/2
f 195/5/2 51/5/2 52/5/2
f 196/11/2 197/11/2 199/11/2
f 199/11/2 197/11/2 198/11/2
f 200/11/2 181/11/2 201/11/2
f 201/11/2 181/11/2 188/11/2
f 201/10/2 188/10/2 202/10/2
f 202/10/2 188/10/2 189/10/2
f 202/11/2 189/11/2 204/11/2
f 204/11/2 189/11/2 203/11/2
f 205/10/2 77/10/2 206/10/2
f 206/10/2 77/10/2 78/10/2
f 207/11/2 208/11/2 210/11/2
f 210/11/2 208/11/2 209/11/2
f 211/11/2 199/11/2 213/11/2
f 213/11/2 199/11/2 212/11/2
f 214/11/2 215/11/2 217/11/2
f 217/11/2 215/11/2 216/11/2
f 218/11/2 219/11/2 220/11/2
f 220/11/2 219/11/2 207/11/2
f 221/10/2 98/10/2 222/10/2
f 222/10/2 98/10/2 99/10/2
f 223/10/3 224/10/3 186/10/3
f 186/10/3 224/10/3 187/10/3
f 225/10/3 226/10/3 192/10/3
f 192/10/3 226/10/3 193/10/3
f 167/11/3 188/11/3 223/11/3
f 223/11/3 188/11/3 224/11/3
f 171/11/3 203/11/3 225/11/3
f 225/11/3 203/11/3 226/11/3
f 227/11/3 228/11/3 170/11/3
f 170/11/3 228/11/3 171/11/3
f 229/11/3 230/11/3 203/11/3
f 203/11/3 230/11/3 204/11/3
f 231/10/3 172/10/3 227/10/3
f 227/10/3 172/10/3 228/10/3
f 142/9/3 232/9/3 150/9/3
f 150/9/3 232/9/3 151/9/3
f 232/5/3 52/5/3 151/5/3
f 151/5/3 52/5/3 173/5/3
f 64/5/3 63/5/3 69/5/3
f 69/5/3 63/5/3 66/5/3
f 51/10/3 194/10/3 171/10/3
f 171/10/3 194/10/3 203/10/3
f 194/10/3 233/10/3 229/10/3
f 229/10/3 233/10/3 230/10/3
f 121/10/3 40/10/3 141/10/3
f 141/10/3 40/10/3 53/10/3
f 39/5/3 174/5/3 54/5/3
f 54/5/3 174/5/3 51/5/3
f 61/10/3 60/10/3 175/10/3
f 175/10/3 60/10/3 176/10/3
f 59/5/3 209/5/3 52/5/3
f 52/5/3 209/5/3 195/5/3
f 208/5/3 207/5/3 194/5/3
f 194/5/3 207/5/3 233/5/3
f 219/11/3 218/11/3 216/11/3
f 216/11/3 218/11/3 217/11/3
f 3/5/3 2/5/3 120/5/3
f 120/5/3 2/5/3 121/5/3
f 2/6/3 12/6/3 121/6/3
f 121/6/3 12/6/3 127/6/3
f 11/1/3 10/1/3 128/1/3
f 128/1/3 10/1/3 129/1/3
f 5/1/3 14/1/3 122/1/3
f 122/1/3 14/1/3 132/1/3
f 18/1/3 17/1/3 134/1/3
f 134/1/3 17/1/3 135/1/3
f 14/5/3 20/5/3 132/5/3
f 132/5/3 20/5/3 138/5/3
f 9/6/3 23/6/3 126/6/3
f 126/6/3 23/6/3 152/6/3
f 26/5/3 25/5/3 144/5/3
f 144/5/3 25/5/3 145/5/3
f 24/5/3 30/5/3 143/5/3
f 143/5/3 30/5/3 153/5/3
f 57/11/3 103/11/3 40/11/3
f 40/11/3 103/11/3 210/11/3
f 102/11/3 112/11/3 207/11/3
f 207/11/3 112/11/3 220/11/3
f 33/11/3 32/11/3 155/11/3
f 155/11/3 32/11/3 156/11/3
f 37/11/3 84/11/3 159/11/3
f 159/11/3 84/11/3 55/11/3
f 83/11/3 82/11/3 56/11/3
f 56/11/3 82/11/3 104/11/3
f 81/11/3 96/11/3 105/11/3
f 105/11/3 96/11/3 102/11/3
f 95/11/3 110/11/3 113/11/3
f 113/11/3 110/11/3 111/11/3
f 49/11/3 48/11/3 36/11/3
f 36/11/3 48/11/3 84/11/3
f 75/11/3 93/11/3 97/11/3
f 97/11/3 93/11/3 95/11/3
f 79/3/3 78/3/3 84/3/3
f 84/3/3 78/3/3 81/3/3
f 100/10/3 99/10/3 78/10/3
f 78/10/3 99/10/3 206/10/3
f 116/10/3 115/10/3 99/10/3
f 99/10/3 115/10/3 222/10/3
f 234/10/4 185/10/4 235/10/4
f 235/10/4 185/10/4 184/10/4
f 236/10/4 191/10/4 237/10/4
f 237/10/4 191/10/4 190/10/4
f 164/11/4 234/11/4 181/11/4
f 181/11/4 234/11/4 235/11/4
f 169/11/4 236/11/4 189/11/4
f 189/11/4 236/11/4 237/11/4
f 238/11/4 165/11/4 68/11/4
f 68/11/4 165/11/4 164/11/4
f 69/9/4 180/9/4 66/9/4
f 66/9/4 180/9/4 179/9/4
f 67/11/4 181/11/4 239/11/4
f 239/11/4 181/11/4 200/11/4
f 139/9/4 149/9/4 240/9/4
f 240/9/4 149/9/4 148/9/4
f 240/5/4 148/5/4 54/5/4
f 54/5/4 148/5/4 231/5/4
f 65/5/4 178/5/4 62/5/4
f 62/5/4 178/5/4 177/5/4
f 241/10/4 238/10/4 242/10/4
f 242/10/4 238/10/4 239/10/4
f 118/10/4 140/10/4 39/10/4
f 39/10/4 140/10/4 54/10/4
f 162/5/4 241/5/4 163/5/4
f 163/5/4 241/5/4 182/5/4
f 40/10/4 53/10/4 59/10/4
f 59/10/4 53/10/4 52/10/4
f 160/5/4 64/5/4 197/5/4
f 197/5/4 64/5/4 63/5/4
f 198/5/4 183/5/4 199/5/4
f 199/5/4 183/5/4 242/5/4
f 212/11/4 215/11/4 213/11/4
f 213/11/4 215/11/4 214/11/4
f 4/5/4 119/5/4 1/5/4
f 1/5/4 119/5/4 118/5/4
f 1/6/4 118/6/4 7/6/4
f 7/6/4 118/6/4 124/6/4
f 8/1/4 123/1/4 5/1/4
f 5/1/4 123/1/4 122/1/4
f 15/1/4 131/1/4 13/1/4
f 13/1/4 131/1/4 130/1/4
f 10/1/4 129/1/4 16/1/4
f 16/1/4 129/1/4 133/1/4
f 21/5/4 137/5/4 19/5/4
f 19/5/4 137/5/4 136/5/4
f 6/6/4 125/6/4 22/6/4
f 22/6/4 125/6/4 147/6/4
f 16/5/4 133/5/4 24/5/4
f 24/5/4 133/5/4 143/5/4
f 20/5/4 138/5/4 27/5/4
f 27/5/4 138/5/4 146/5/4
f 46/11/4 161/11/4 85/11/4
f 85/11/4 161/11/4 196/11/4
f 86/11/4 199/11/4 106/11/4
f 106/11/4 199/11/4 211/11/4
f 38/11/4 158/11/4 35/11/4
f 35/11/4 158/11/4 157/11/4
f 34/11/4 154/11/4 72/11/4
f 72/11/4 154/11/4 44/11/4
f 73/11/4 43/11/4 70/11/4
f 70/11/4 43/11/4 88/11/4
f 71/11/4 87/11/4 89/11/4
f 89/11/4 87/11/4 86/11/4
f 90/11/4 108/11/4 109/11/4
f 109/11/4 108/11/4 107/11/4
f 76/11/4 31/11/4 74/11/4
f 74/11/4 31/11/4 71/11/4
f 94/11/4 91/11/4 92/11/4
f 92/11/4 91/11/4 90/11/4
f 80/3/4 47/3/4 77/3/4
f 77/3/4 47/3/4 75/3/4
f 101/10/4 77/10/4 98/10/4
f 98/10/4 77/10/4 205/10/4
f 117/10/4 98/10/4 114/10/4
f 114/10/4 98/10/4 221/10/4
f 66/5/5 63/5/5 177/5/5
f 177/5/5 63/5/5 62/5/5
f 181/9/5 67/9/5 179/9/5
f 179/9/5 67/9/5 66/9/5
f 183/5/5 198/5/5 63/5/5
f 63/5/5 198/5/5 197/5/5
f 199/11/5 86/11/5 196/11/5
f 196/11/5 86/11/5 85/11/5
f 87/11/5 71/11/5 88/11/5
f 88/11/5 71/11/5 70/11/5
f 187/10/5 224/10/5 184/10/5
f 184/10/5 224/10/5 235/10/5
f 224/11/5 188/11/5 235/11/5
f 235/11/5 188/11/5 181/11/5
f 201/11/5 243/11/5 200/11/5
f 200/11/5 243/11/5 239/11/5
f 215/5/5 212/5/5 242/5/5
f 242/5/5 212/5/5 199/5/5
f 108/11/5 90/11/5 86/11/5
f 86/11/5 90/11/5 89/11/5
f 91/11/5 94/11/5 71/11/5
f 71/11/5 94/11/5 74/11/5
f 137/1/5 21/1/5 130/1/5
f 130/1/5 21/1/5 13/1/5
f 202/10/5 244/10/5 201/10/5
f 201/10/5 244/10/5 243/10/5
f 217/11/5 218/11/5 214/11/5
f 214/11/5 218/11/5 213/11/5
f 138/5/5 20/5/5 136/5/5
f 136/5/5 20/5/5 19/5/5
f 111/11/5 110/11/5 107/11/5
f 107/11/5 110/11/5 109/11/5
f 95/11/5 93/11/5 90/11/5
f 90/11/5 93/11/5 92/11/5
f 193/10/5 226/10/5 190/10/5
f 190/10/5 226/10/5 237/10/5
f 226/11/5 203/11/5 237/11/5
f 237/11/5 203/11/5 189/11/5
f 204/11/5 230/11/5 202/11/5
f 202/11/5 230/11/5 244/11/5
f 230/10/5 233/10/5 239/10/5
f 239/10/5 233/10/5 242/10/5
f 233/5/5 207/5/5 216/5/5
f 216/5/5 207/5/5 219/5/5
f 125/1/5 6/1/5 122/1/5
f 122/1/5 6/1/5 5/1/5
f 42/5/5 28/5/5 146/5/5
f 146/5/5 28/5/5 27/5/5
f 220/11/5 112/11/5 211/11/5
f 211/11/5 112/11/5 106/11/5
f 102/11/5 96/11/5 113/11/5
f 113/11/5 96/11/5 95/11/5
f 81/3/5 78/3/5 97/3/5
f 97/3/5 78/3/5 77/3/5
f 206/10/5 99/10/5 205/10/5
f 205/10/5 99/10/5 98/10/5
f 222/10/5 115/10/5 221/10/5
f 221/10/5 115/10/5 114/10/5
f 173/5/5 52/5/5 172/5/5
f 172/5/5 52/5/5 51/5/5
f 53/10/5 40/10/5 54/10/5
f 54/10/5 40/10/5 39/10/5
f 195/5/5 209/5/5 194/5/5
f 194/5/5 209/5/5 208/5/5
f 41/3/5 29/3/5 42/3/5
f 42/3/5 29/3/5 28/3/5
f 210/11/5 103/11/5 207/11/5
f 207/11/5 103/11/5 102/11/5
f 104/11/5 82/11/5 105/11/5
f 105/11/5 82/11/5 81/11/5
f 176/10/5 60/10/5 52/10/5
f 52/10/5 60/10/5 59/10/5
f 129/1/5 10/1/5 126/1/5
f 126/1/5 10/1/5 9/1/5
f 153/5/5 30/5/5 41/5/5
f 41/5/5 30/5/5 29/5/5
f 145/5/5 25/5/5 143/5/5
f 143/5/5 25/5/5 24/5/5
f 135/1/5 17/1/5 144/1/5
f 144/1/5 17/1/5 26/1/5
f 69/5/6 178/5/6 64/5/6
f 64/5/6 178/5/6 65/5/6
f 164/9/6 180/9/6 68/9/6
f 68/9/6 180/9/6 69/9/6
f 182/5/6 64/5/6 163/5/6
f 163/5/6 64/5/6 160/5/6
f 162/11/6 161/11/6 45/11/6
f 45/11/6 161/11/6 46/11/6
f 44/11/6 43/11/6 72/11/6
f 72/11/6 43/11/6 73/11/6
f 186/10/6 185/10/6 223/10/6
f 223/10/6 185/10/6 234/10/6
f 223/11/6 234/11/6 167/11/6
f 167/11/6 234/11/6 164/11/6
f 166/11/6 165/11/6 245/11/6
f 245/11/6 165/11/6 238/11/6
f 246/10/6 247/10/6 248/10/6
f 248/10/6 247/10/6 241/10/6
f 248/5/6 241/5/6 249/5/6
f 249/5/6 241/5/6 162/5/6
f 249/9/6 162/9/6 251/9/6
f 251/9/6 162/9/6 250/9/6
f 251/4/6 250/4/6 156/4/6
f 156/4/6 250/4/6 45/4/6
f 155/11/6 154/11/6 33/11/6
f 33/11/6 154/11/6 34/11/6
f 168/10/6 166/10/6 252/10/6
f 252/10/6 166/10/6 245/10/6
f 253/5/6 246/5/6 254/5/6
f 254/5/6 246/5/6 248/5/6
f 254/11/6 248/11/6 255/11/6
f 255/11/6 248/11/6 249/11/6
f 122/1/6 131/1/6 5/1/6
f 5/1/6 131/1/6 15/1/6
f 255/8/6 249/8/6 256/8/6
f 256/8/6 249/8/6 251/8/6
f 256/9/6 251/9/6 157/9/6
f 157/9/6 251/9/6 156/9/6
f 157/11/6 156/11/6 35/11/6
f 35/11/6 156/11/6 32/11/6
f 192/10/6 191/10/6 225/10/6
f 225/10/6 191/10/6 236/10/6
f 225/11/6 236/11/6 171/11/6
f 171/11/6 236/11/6 169/11/6
f 170/11/6 168/11/6 227/11/6
f 227/11/6 168/11/6 252/11/6
f 227/10/6 238/10/6 231/10/6
f 231/10/6 238/10/6 247/10/6
f 231/10/6 253/10/6 54/10/6
f 54/10/6 253/10/6 254/10/6
f 54/5/6 254/5/6 39/5/6
f 39/5/6 254/5/6 255/5/6
f 124/1/6 123/1/6 7/1/6
f 7/1/6 123/1/6 8/1/6
f 147/5/6 138/5/6 22/5/6
f 22/5/6 138/5/6 20/5/6
f 39/9/6 255/9/6 257/9/6
f 257/9/6 255/9/6 256/9/6
f 257/4/6 256/4/6 58/4/6
f 58/4/6 256/4/6 157/4/6
f 159/11/6 158/11/6 37/11/6
f 37/11/6 158/11/6 38/11/6
f 36/11/6 31/11/6 49/11/6
f 49/11/6 31/11/6 76/11/6
f 48/3/6 47/3/6 79/3/6
f 79/3/6 47/3/6 80/3/6
f 78/10/6 77/10/6 100/10/6
f 100/10/6 77/10/6 101/10/6
f 99/10/6 98/10/6 116/10/6
f 116/10/6 98/10/6 117/10/6
f 150/9/6 149/9/6 142/9/6
f 142/9/6 149/9/6 139/9/6
f 141/10/6 140/10/6 121/10/6
f 121/10/6 140/10/6 118/10/6
f 52/5/6 51/5/6 59/5/6
f 59/5/6 51/5/6 174/5/6
f 120/5/6 119/5/6 3/5/6
f 3/5/6 119/5/6 4/5/6
f 40/11/6 39/11/6 57/11/6
f 57/11/6 39/11/6 58/11/6
f 56/11/6 55/11/6 83/11/6
f 83/11/6 55/11/6 84/11/6
f 175/10/6 53/10/6 61/10/6
f 61/10/6 53/10/6 40/10/6
f 128/1/6 127/1/6 11/1/6
f 11/1/6 127/1/6 12/1/6
f 143/5/6 152/5/6 24/5/6
f 24/5/6 152/5/6 23/5/6
f 134/1/6 129/1/6 18/1/6
f 18/1/6 129/1/6 10/1/6
