# Vengi binary mesh normalized for Tanks of Freedom II

mtllib ../../materials/vox_building.mtl
o warlord

v -0.5 0.5 0.7
v -0.7 0.5 0.7
v -0.7 0.5 0.8
v -0.5 0.5 0.8
v -0.4 0.5 0.6
v -0.5 0.5 0.6
v -0.4 0.5 0.7
v -0.7 0.5 0.6
v -0.8 0.5 0.6
v -0.8 0.5 0.7
v -0.5 0.5 0.5
v -0.7 0.5 0.5
v 0.7 0.5 0.4
v 0.6 0.5 0.4
v 0.6 0.5 0.5
v 0.7 0.5 0.5
v -0.7 0.5 0.4
v -0.8 0.5 0.4
v -0.8 0.5 0.5
v 0.3 0.5 0.3
v 0.2 0.5 0.3
v 0.2 0.5 0.4
v 0.3 0.5 0.4
v -0.2 0.5 0.3
v -0.3 0.5 0.3
v -0.3 0.5 0.4
v -0.2 0.5 0.4
v 0.3 0.5 0.2
v 0.2 0.5 0.2
v 0.2 1 0.2
v 0.1 1 0.2
v 0.1 1 0.3
v 0.2 1 0.3
v 0.1 0.9 0.2
v -0.1 0.9 0.2
v -0.1 0.9 0.3
v 0.1 0.9 0.3
v -0.1 1 0.2
v -0.2 1 0.2
v -0.2 1 0.3
v -0.1 1 0.3
v -0.2 0.5 0.2
v -0.3 0.5 0.2
v 0.4 1.1 0.1
v 0.3 1.1 0.1
v 0.3 1.1 0.2
v 0.4 1.1 0.2
v 0.3 0.6 0.1
v 0.2 0.6 0.1
v 0.2 0.6 0.2
v 0.3 0.6 0.2
v 0.3 1 0.1
v 0.2 1 0.1
v 0.3 1 0.2
v -0.1 1.1 0.1
v -0.2 1.1 0.1
v -0.2 1.1 0.2
v -0.1 1.1 0.2
v -0.2 0.6 0.1
v -0.3 0.6 0.1
v -0.3 0.6 0.2
v -0.2 0.6 0.2
v -0.2 1 0.1
v -0.3 1 0.1
v -0.3 1 0.2
v -0.3 1.1 0.1
v -0.4 1.1 0.1
v -0.4 1.1 0.2
v -0.3 1.1 0.2
v 0.3 1 0
v 0.2 1 0
v 0.2 1.1 0
v -0.1 1.1 0
v 0.2 1.1 0.2
v -0.1 1.3 0
v -0.2 1.3 0
v -0.2 1.3 0.1
v -0.1 1.3 0.1
v -0.2 1 0
v -0.3 1 0
v 0.3 0.9 -0.1
v 0.2 0.9 -0.1
v 0.2 0.9 0
v 0.3 0.9 0
v 0.2 1 -0.1
v 0.1 1 -0.1
v 0.1 1 0
v 0.1 1.1 -0.1
v -0.1 1.1 -0.1
v 0.1 1.1 0
v -0.1 1 -0.1
v -0.2 1 -0.1
v -0.1 1 0
v -0.1 1.4 -0.1
v -0.2 1.4 -0.1
v -0.2 1.4 0
v -0.1 1.4 0
v -0.2 0.9 -0.1
v -0.3 0.9 -0.1
v -0.3 0.9 0
v -0.2 0.9 0
v 0.2 0.9 -0.2
v 0.1 0.9 -0.2
v 0.1 0.9 -0.1
v 0.1 1 -0.2
v -0.1 1 -0.2
v -0.1 0.9 -0.2
v -0.2 0.9 -0.2
v -0.1 0.9 -0.1
v -0.1 1.5 -0.3
v -0.2 1.5 -0.3
v -0.2 1.5 -0.1
v -0.1 1.5 -0.1
v -0.5 0.4 0.7
v -0.5 0.4 0.8
v -0.7 0.4 0.8
v -0.7 0.4 0.7
v -0.4 0.4 0.6
v -0.4 0.4 0.7
v -0.5 0.4 0.6
v -0.7 0.4 0.6
v -0.8 0.4 0.7
v -0.8 0.4 0.6
v -0.5 0.4 0.5
v -0.7 0.4 0.5
v 0.7 0.4 0.4
v 0.7 0.4 0.5
v 0.6 0.4 0.5
v 0.6 0.4 0.4
v -0.7 0.4 0.4
v -0.8 0.4 0.5
v -0.8 0.4 0.4
v 0.3 0.4 0.3
v 0.3 0.4 0.4
v 0.2 0.4 0.4
v 0.2 0.4 0.3
v -0.2 0.4 0.3
v -0.2 0.4 0.4
v -0.3 0.4 0.4
v -0.3 0.4 0.3
v 0.3 0.4 0.2
v 0.2 0.4 0.2
v 0.2 0.9 0.2
v 0.2 0.9 0.3
v 0.1 0.8 0.2
v 0.1 0.8 0.3
v -0.1 0.8 0.3
v -0.1 0.8 0.2
v -0.2 0.9 0.3
v -0.2 0.9 0.2
v -0.2 0.4 0.2
v -0.3 0.4 0.2
v 0.4 1 0.1
v 0.4 1 0.2
v 0.3 0.5 0.1
v 0.2 0.5 0.1
v 0.3 0.7 0.1
v 0.3 0.7 0.2
v 0.2 0.7 0.2
v 0.2 0.7 0.1
v 0.2 0.3 0.1
v 0.2 0.3 0.2
v -0.2 0.3 0.2
v -0.2 0.3 0.1
v -0.2 0.5 0.1
v -0.3 0.5 0.1
v -0.2 0.7 0.1
v -0.2 0.7 0.2
v -0.3 0.7 0.2
v -0.3 0.7 0.1
v -0.4 1 0.2
v -0.4 1 0.1
v 0.3 0.6 0
v 0.2 0.6 0
v 0.2 0 0
v 0.2 0 0.1
v 0.1 0 0.1
v 0.1 0 0
v -0.1 0 0
v -0.1 0 0.1
v -0.2 0 0.1
v -0.2 0 0
v -0.2 0.6 0
v -0.3 0.6 0
v 0.3 0.7 -0.1
v 0.3 0.7 0
v 0.2 0.7 0
v 0.2 0.7 -0.1
v 0.2 0.3 -0.1
v 0.2 0.3 0
v 0.1 0.3 0
v 0.1 0.3 -0.1
v 0.1 0.3 0.1
v -0.1 0.3 0.1
v -0.1 0.3 -0.1
v -0.1 0.3 0
v -0.2 0.3 0
v -0.2 0.3 -0.1
v -0.1 1.3 -0.1
v -0.2 1.3 -0.1
v -0.2 0.7 -0.1
v -0.2 0.7 0
v -0.3 0.7 0
v -0.3 0.7 -0.1
v 0.2 0.7 -0.2
v 0.1 0.7 -0.1
v 0.1 0.7 -0.2
v 0.1 0.6 -0.2
v 0.1 0.6 -0.1
v -0.1 0.6 -0.1
v -0.1 0.6 -0.2
v -0.1 0.7 -0.2
v -0.1 0.7 -0.1
v -0.2 0.7 -0.2
v -0.1 1.4 -0.3
v -0.2 1.4 -0.3
v 0.1 0.1 0.1
v 0.1 0.1 0
v -0.2 0.1 0.1
v -0.2 0.1 0
v -0.2 0.4 -0.1
v -0.2 0.5 -0.1
v -0.2 0.6 -0.1
v -0.3 0.9 0.2
v -0.3 0.9 0.1
v 0.2 0.1 0.1
v 0.2 0.1 0
v -0.1 0.1 0.1
v -0.1 0.1 0
v 0.2 0.4 -0.1
v 0.2 0.5 -0.1
v 0.2 0.6 -0.1
v 0.3 0.9 0.2
v 0.3 0.9 0.1
v 0.1 0.5 0.2
v 0.1 0.6 0.2
v 0.1 0.7 0.2
v 0.2 0.8 0.2
v -0.1 0.5 0.2
v -0.1 0.6 0.2
v -0.1 0.7 0.2
v -0.2 0.8 0.2

vt 0.00195313 0.5
vt 0.00585938 0.5
vt 0.0253906 0.5
vt 0.0292969 0.5
vt 0.0332031 0.5
vt 0.0683594 0.5
vt 0.0917969 0.5
vt 0.0957031 0.5
vt 0.119141 0.5
vt 0.123047 0.5
vt 0.158203 0.5
vt 0.162109 0.5

vn 0 1 0
vn 0 -1 0
vn -1 0 0
vn 1 0 0
vn 0 0 -1
vn 0 0 1

usemtl palette
f 1/5/1 2/5/1 4/5/1
f 4/5/1 2/5/1 3/5/1
f 5/5/1 6/5/1 7/5/1
f 7/5/1 6/5/1 1/5/1
f 8/5/1 9/5/1 2/5/1
f 2/5/1 9/5/1 10/5/1
f 11/6/1 12/6/1 1/6/1
f 1/6/1 12/6/1 2/6/1
f 13/8/1 14/8/1 16/8/1
f 16/8/1 14/8/1 15/8/1
f 14/2/1 17/2/1 15/2/1
f 15/2/1 17/2/1 12/2/1
f 17/8/1 18/8/1 12/8/1
f 12/8/1 18/8/1 19/8/1
f 20/10/1 21/10/1 23/10/1
f 23/10/1 21/10/1 22/10/1
f 24/10/1 25/10/1 27/10/1
f 27/10/1 25/10/1 26/10/1
f 28/6/1 29/6/1 20/6/1
f 20/6/1 29/6/1 21/6/1
f 30/1/1 31/1/1 33/1/1
f 33/1/1 31/1/1 32/1/1
f 34/1/1 35/1/1 37/1/1
f 37/1/1 35/1/1 36/1/1
f 38/1/1 39/1/1 41/1/1
f 41/1/1 39/1/1 40/1/1
f 42/6/1 43/6/1 24/6/1
f 24/6/1 43/6/1 25/6/1
f 44/8/1 45/8/1 47/8/1
f 47/8/1 45/8/1 46/8/1
f 48/6/1 49/6/1 51/6/1
f 51/6/1 49/6/1 50/6/1
f 52/8/1 53/8/1 54/8/1
f 54/8/1 53/8/1 30/8/1
f 55/1/1 56/1/1 58/1/1
f 58/1/1 56/1/1 57/1/1
f 59/6/1 60/6/1 62/6/1
f 62/6/1 60/6/1 61/6/1
f 63/8/1 64/8/1 39/8/1
f 39/8/1 64/8/1 65/8/1
f 66/8/1 67/8/1 69/8/1
f 69/8/1 67/8/1 68/8/1
f 70/1/1 71/1/1 52/1/1
f 52/1/1 71/1/1 53/1/1
f 72/1/1 73/1/1 74/1/1
f 74/1/1 73/1/1 58/1/1
f 75/4/1 76/4/1 78/4/1
f 78/4/1 76/4/1 77/4/1
f 79/1/1 80/1/1 63/1/1
f 63/1/1 80/1/1 64/1/1
f 81/1/1 82/1/1 84/1/1
f 84/1/1 82/1/1 83/1/1
f 85/1/1 86/1/1 71/1/1
f 71/1/1 86/1/1 87/1/1
f 88/1/1 89/1/1 90/1/1
f 90/1/1 89/1/1 73/1/1
f 91/1/1 92/1/1 93/1/1
f 93/1/1 92/1/1 79/1/1
f 94/11/1 95/11/1 97/11/1
f 97/11/1 95/11/1 96/11/1
f 98/1/1 99/1/1 101/1/1
f 101/1/1 99/1/1 100/1/1
f 102/1/1 103/1/1 82/1/1
f 82/1/1 103/1/1 104/1/1
f 105/1/1 106/1/1 86/1/1
f 86/1/1 106/1/1 91/1/1
f 107/1/1 108/1/1 109/1/1
f 109/1/1 108/1/1 98/1/1
f 110/11/1 111/11/1 113/11/1
f 113/11/1 111/11/1 112/11/1
f 114/5/2 115/5/2 117/5/2
f 117/5/2 115/5/2 116/5/2
f 118/5/2 119/5/2 120/5/2
f 120/5/2 119/5/2 114/5/2
f 121/5/2 117/5/2 123/5/2
f 123/5/2 117/5/2 122/5/2
f 124/6/2 114/6/2 125/6/2
f 125/6/2 114/6/2 117/6/2
f 126/8/2 127/8/2 129/8/2
f 129/8/2 127/8/2 128/8/2
f 129/2/2 128/2/2 130/2/2
f 130/2/2 128/2/2 125/2/2
f 130/8/2 125/8/2 132/8/2
f 132/8/2 125/8/2 131/8/2
f 133/10/2 134/10/2 136/10/2
f 136/10/2 134/10/2 135/10/2
f 137/10/2 138/10/2 140/10/2
f 140/10/2 138/10/2 139/10/2
f 141/6/2 133/6/2 142/6/2
f 142/6/2 133/6/2 136/6/2
f 143/1/2 144/1/2 34/1/2
f 34/1/2 144/1/2 37/1/2
f 145/1/2 146/1/2 148/1/2
f 148/1/2 146/1/2 147/1/2
f 35/1/2 36/1/2 150/1/2
f 150/1/2 36/1/2 149/1/2
f 151/6/2 137/6/2 152/6/2
f 152/6/2 137/6/2 140/6/2
f 153/8/2 154/8/2 52/8/2
f 52/8/2 154/8/2 54/8/2
f 155/6/2 28/6/2 156/6/2
f 156/6/2 28/6/2 29/6/2
f 157/1/2 158/1/2 160/1/2
f 160/1/2 158/1/2 159/1/2
f 161/12/2 162/12/2 164/12/2
f 164/12/2 162/12/2 163/12/2
f 165/6/2 42/6/2 166/6/2
f 166/6/2 42/6/2 43/6/2
f 167/1/2 168/1/2 170/1/2
f 170/1/2 168/1/2 169/1/2
f 64/8/2 65/8/2 172/8/2
f 172/8/2 65/8/2 171/8/2
f 173/6/2 48/6/2 174/6/2
f 174/6/2 48/6/2 49/6/2
f 175/11/2 176/11/2 178/11/2
f 178/11/2 176/11/2 177/11/2
f 179/11/2 180/11/2 182/11/2
f 182/11/2 180/11/2 181/11/2
f 183/6/2 59/6/2 184/6/2
f 184/6/2 59/6/2 60/6/2
f 185/1/2 186/1/2 188/1/2
f 188/1/2 186/1/2 187/1/2
f 189/12/2 190/12/2 192/12/2
f 192/12/2 190/12/2 191/12/2
f 192/12/2 193/12/2 195/12/2
f 195/12/2 193/12/2 194/12/2
f 195/12/2 196/12/2 198/12/2
f 198/12/2 196/12/2 197/12/2
f 199/11/2 75/11/2 200/11/2
f 200/11/2 75/11/2 76/11/2
f 201/1/2 202/1/2 204/1/2
f 204/1/2 202/1/2 203/1/2
f 205/1/2 188/1/2 207/1/2
f 207/1/2 188/1/2 206/1/2
f 208/1/2 209/1/2 211/1/2
f 211/1/2 209/1/2 210/1/2
f 212/1/2 213/1/2 214/1/2
f 214/1/2 213/1/2 201/1/2
f 215/11/2 94/11/2 216/11/2
f 216/11/2 94/11/2 95/11/2
f 217/11/3 218/11/3 177/11/3
f 177/11/3 218/11/3 178/11/3
f 219/11/3 220/11/3 181/11/3
f 181/11/3 220/11/3 182/11/3
f 193/1/3 191/1/3 217/1/3
f 217/1/3 191/1/3 218/1/3
f 164/1/3 197/1/3 219/1/3
f 219/1/3 197/1/3 220/1/3
f 151/12/3 221/12/3 163/12/3
f 163/12/3 221/12/3 198/12/3
f 3/5/3 2/5/3 116/5/3
f 116/5/3 2/5/3 117/5/3
f 10/5/3 9/5/3 122/5/3
f 122/5/3 9/5/3 123/5/3
f 8/6/3 12/6/3 121/6/3
f 121/6/3 12/6/3 125/6/3
f 19/8/3 18/8/3 131/8/3
f 131/8/3 18/8/3 132/8/3
f 22/10/3 21/10/3 135/10/3
f 135/10/3 21/10/3 136/10/3
f 26/10/3 25/10/3 139/10/3
f 139/10/3 25/10/3 140/10/3
f 21/6/3 29/6/3 136/6/3
f 136/6/3 29/6/3 142/6/3
f 25/6/3 43/6/3 140/6/3
f 140/6/3 43/6/3 152/6/3
f 42/11/3 222/11/3 151/11/3
f 151/11/3 222/11/3 221/11/3
f 61/6/3 60/6/3 43/6/3
f 43/6/3 60/6/3 166/6/3
f 59/11/3 223/11/3 165/11/3
f 165/11/3 223/11/3 222/11/3
f 168/1/3 167/1/3 62/1/3
f 62/1/3 167/1/3 59/1/3
f 170/6/3 203/6/3 60/6/3
f 60/6/3 203/6/3 184/6/3
f 202/6/3 201/6/3 183/6/3
f 183/6/3 201/6/3 223/6/3
f 213/1/3 212/1/3 210/1/3
f 210/1/3 212/1/3 211/1/3
f 36/1/3 35/1/3 147/1/3
f 147/1/3 35/1/3 148/1/3
f 224/1/3 99/1/3 169/1/3
f 169/1/3 99/1/3 204/1/3
f 98/1/3 108/1/3 201/1/3
f 201/1/3 108/1/3 214/1/3
f 32/1/3 31/1/3 37/1/3
f 37/1/3 31/1/3 34/1/3
f 40/1/3 39/1/3 149/1/3
f 149/1/3 39/1/3 150/1/3
f 65/8/3 64/8/3 224/8/3
f 224/8/3 64/8/3 225/8/3
f 64/1/3 80/1/3 225/1/3
f 225/1/3 80/1/3 100/1/3
f 79/1/3 92/1/3 101/1/3
f 101/1/3 92/1/3 98/1/3
f 91/1/3 106/1/3 109/1/3
f 109/1/3 106/1/3 107/1/3
f 46/8/3 45/8/3 54/8/3
f 54/8/3 45/8/3 52/8/3
f 57/1/3 56/1/3 39/1/3
f 39/1/3 56/1/3 63/1/3
f 68/8/3 67/8/3 171/8/3
f 171/8/3 67/8/3 172/8/3
f 73/1/3 89/1/3 93/1/3
f 93/1/3 89/1/3 91/1/3
f 77/4/3 76/4/3 63/4/3
f 63/4/3 76/4/3 79/4/3
f 96/11/3 95/11/3 76/11/3
f 76/11/3 95/11/3 200/11/3
f 112/11/3 111/11/3 95/11/3
f 95/11/3 111/11/3 216/11/3
f 226/11/4 176/11/4 227/11/4
f 227/11/4 176/11/4 175/11/4
f 228/11/4 180/11/4 229/11/4
f 229/11/4 180/11/4 179/11/4
f 161/1/4 226/1/4 190/1/4
f 190/1/4 226/1/4 227/1/4
f 194/1/4 228/1/4 196/1/4
f 196/1/4 228/1/4 229/1/4
f 142/12/4 162/12/4 230/12/4
f 230/12/4 162/12/4 189/12/4
f 4/5/4 115/5/4 1/5/4
f 1/5/4 115/5/4 114/5/4
f 7/5/4 119/5/4 5/5/4
f 5/5/4 119/5/4 118/5/4
f 6/6/4 120/6/4 11/6/4
f 11/6/4 120/6/4 124/6/4
f 16/8/4 127/8/4 13/8/4
f 13/8/4 127/8/4 126/8/4
f 23/10/4 134/10/4 20/10/4
f 20/10/4 134/10/4 133/10/4
f 27/10/4 138/10/4 24/10/4
f 24/10/4 138/10/4 137/10/4
f 20/6/4 133/6/4 28/6/4
f 28/6/4 133/6/4 141/6/4
f 24/6/4 137/6/4 42/6/4
f 42/6/4 137/6/4 151/6/4
f 29/11/4 142/11/4 231/11/4
f 231/11/4 142/11/4 230/11/4
f 51/6/4 28/6/4 48/6/4
f 48/6/4 28/6/4 155/6/4
f 49/11/4 156/11/4 232/11/4
f 232/11/4 156/11/4 231/11/4
f 159/1/4 50/1/4 160/1/4
f 160/1/4 50/1/4 49/1/4
f 157/6/4 48/6/4 186/6/4
f 186/6/4 48/6/4 173/6/4
f 187/6/4 174/6/4 188/6/4
f 188/6/4 174/6/4 232/6/4
f 206/1/4 209/1/4 207/1/4
f 207/1/4 209/1/4 208/1/4
f 37/1/4 146/1/4 34/1/4
f 34/1/4 146/1/4 145/1/4
f 233/1/4 158/1/4 81/1/4
f 81/1/4 158/1/4 185/1/4
f 82/1/4 188/1/4 102/1/4
f 102/1/4 188/1/4 205/1/4
f 33/1/4 144/1/4 30/1/4
f 30/1/4 144/1/4 143/1/4
f 41/1/4 36/1/4 38/1/4
f 38/1/4 36/1/4 35/1/4
f 54/8/4 233/8/4 52/8/4
f 52/8/4 233/8/4 234/8/4
f 52/1/4 234/1/4 70/1/4
f 70/1/4 234/1/4 84/1/4
f 71/1/4 83/1/4 85/1/4
f 85/1/4 83/1/4 82/1/4
f 86/1/4 104/1/4 105/1/4
f 105/1/4 104/1/4 103/1/4
f 47/8/4 154/8/4 44/8/4
f 44/8/4 154/8/4 153/8/4
f 69/8/4 65/8/4 66/8/4
f 66/8/4 65/8/4 64/8/4
f 74/1/4 30/1/4 72/1/4
f 72/1/4 30/1/4 71/1/4
f 90/1/4 87/1/4 88/1/4
f 88/1/4 87/1/4 86/1/4
f 78/4/4 55/4/4 75/4/4
f 75/4/4 55/4/4 73/4/4
f 97/11/4 75/11/4 94/11/4
f 94/11/4 75/11/4 199/11/4
f 113/11/4 94/11/4 110/11/4
f 110/11/4 94/11/4 215/11/4
f 129/8/5 14/8/5 126/8/5
f 126/8/5 14/8/5 13/8/5
f 134/2/5 23/2/5 129/2/5
f 129/2/5 23/2/5 14/2/5
f 52/8/5 45/8/5 153/8/5
f 153/8/5 45/8/5 44/8/5
f 142/6/5 29/6/5 141/6/5
f 141/6/5 29/6/5 28/6/5
f 156/6/5 49/6/5 155/6/5
f 155/6/5 49/6/5 48/6/5
f 174/6/5 187/6/5 173/6/5
f 173/6/5 187/6/5 186/6/5
f 188/1/5 82/1/5 185/1/5
f 185/1/5 82/1/5 81/1/5
f 83/1/5 71/1/5 84/1/5
f 84/1/5 71/1/5 70/1/5
f 178/11/5 218/11/5 175/11/5
f 175/11/5 218/11/5 227/11/5
f 218/1/5 191/1/5 227/1/5
f 227/1/5 191/1/5 190/1/5
f 209/6/5 206/6/5 232/6/5
f 232/6/5 206/6/5 188/6/5
f 104/1/5 86/1/5 82/1/5
f 82/1/5 86/1/5 85/1/5
f 87/1/5 90/1/5 71/1/5
f 71/1/5 90/1/5 72/1/5
f 211/1/5 212/1/5 208/1/5
f 208/1/5 212/1/5 207/1/5
f 107/1/5 106/1/5 103/1/5
f 103/1/5 106/1/5 105/1/5
f 91/1/5 89/1/5 86/1/5
f 86/1/5 89/1/5 88/1/5
f 182/11/5 220/11/5 179/11/5
f 179/11/5 220/11/5 229/11/5
f 220/1/5 197/1/5 229/1/5
f 229/1/5 197/1/5 196/1/5
f 198/12/5 221/12/5 189/12/5
f 189/12/5 221/12/5 230/12/5
f 138/2/5 27/2/5 135/2/5
f 135/2/5 27/2/5 22/2/5
f 221/11/5 223/11/5 230/11/5
f 230/11/5 223/11/5 232/11/5
f 223/6/5 201/6/5 210/6/5
f 210/6/5 201/6/5 213/6/5
f 214/1/5 108/1/5 205/1/5
f 205/1/5 108/1/5 102/1/5
f 98/1/5 92/1/5 109/1/5
f 109/1/5 92/1/5 91/1/5
f 79/4/5 76/4/5 93/4/5
f 93/4/5 76/4/5 75/4/5
f 200/11/5 95/11/5 199/11/5
f 199/11/5 95/11/5 94/11/5
f 216/11/5 111/11/5 215/11/5
f 215/11/5 111/11/5 110/11/5
f 152/6/5 43/6/5 151/6/5
f 151/6/5 43/6/5 42/6/5
f 166/6/5 60/6/5 165/6/5
f 165/6/5 60/6/5 59/6/5
f 184/6/5 203/6/5 183/6/5
f 183/6/5 203/6/5 202/6/5
f 204/1/5 99/1/5 201/1/5
f 201/1/5 99/1/5 98/1/5
f 100/1/5 80/1/5 101/1/5
f 101/1/5 80/1/5 79/1/5
f 172/8/5 67/8/5 64/8/5
f 64/8/5 67/8/5 66/8/5
f 120/5/5 6/5/5 118/5/5
f 118/5/5 6/5/5 5/5/5
f 130/2/5 17/2/5 139/2/5
f 139/2/5 17/2/5 26/2/5
f 123/5/5 9/5/5 121/5/5
f 121/5/5 9/5/5 8/5/5
f 132/8/5 18/8/5 130/8/5
f 130/8/5 18/8/5 17/8/5
f 128/8/6 127/8/6 15/8/6
f 15/8/6 127/8/6 16/8/6
f 54/8/6 154/8/6 46/8/6
f 46/8/6 154/8/6 47/8/6
f 29/6/6 28/6/6 50/6/6
f 50/6/6 28/6/6 51/6/6
f 49/6/6 48/6/6 160/6/6
f 160/6/6 48/6/6 157/6/6
f 159/1/6 158/1/6 143/1/6
f 143/1/6 158/1/6 233/1/6
f 143/8/6 233/8/6 30/8/6
f 30/8/6 233/8/6 54/8/6
f 177/11/6 176/11/6 217/11/6
f 217/11/6 176/11/6 226/11/6
f 217/1/6 226/1/6 193/1/6
f 193/1/6 226/1/6 161/1/6
f 235/11/6 29/11/6 236/11/6
f 236/11/6 29/11/6 50/11/6
f 237/10/6 159/10/6 145/10/6
f 145/10/6 159/10/6 238/10/6
f 145/7/6 238/7/6 34/7/6
f 34/7/6 238/7/6 143/7/6
f 37/1/6 144/1/6 32/1/6
f 32/1/6 144/1/6 33/1/6
f 239/6/6 235/6/6 240/6/6
f 240/6/6 235/6/6 236/6/6
f 241/9/6 237/9/6 148/9/6
f 148/9/6 237/9/6 145/9/6
f 147/1/6 146/1/6 36/1/6
f 36/1/6 146/1/6 37/1/6
f 35/8/6 34/8/6 38/8/6
f 38/8/6 34/8/6 31/8/6
f 181/11/6 180/11/6 219/11/6
f 219/11/6 180/11/6 228/11/6
f 219/1/6 228/1/6 164/1/6
f 164/1/6 228/1/6 194/1/6
f 163/12/6 162/12/6 151/12/6
f 151/12/6 162/12/6 142/12/6
f 151/11/6 142/11/6 42/11/6
f 42/11/6 142/11/6 29/11/6
f 42/11/6 239/11/6 62/11/6
f 62/11/6 239/11/6 240/11/6
f 62/1/6 50/1/6 168/1/6
f 168/1/6 50/1/6 159/1/6
f 168/10/6 241/10/6 242/10/6
f 242/10/6 241/10/6 148/10/6
f 242/7/6 148/7/6 150/7/6
f 150/7/6 148/7/6 35/7/6
f 149/1/6 36/1/6 40/1/6
f 40/1/6 36/1/6 41/1/6
f 39/1/6 30/1/6 57/1/6
f 57/1/6 30/1/6 74/1/6
f 56/4/6 55/4/6 77/4/6
f 77/4/6 55/4/6 78/4/6
f 76/11/6 75/11/6 96/11/6
f 96/11/6 75/11/6 97/11/6
f 95/11/6 94/11/6 112/11/6
f 112/11/6 94/11/6 113/11/6
f 43/6/6 42/6/6 61/6/6
f 61/6/6 42/6/6 62/6/6
f 60/6/6 59/6/6 170/6/6
f 170/6/6 59/6/6 167/6/6
f 169/1/6 168/1/6 224/1/6
f 224/1/6 168/1/6 150/1/6
f 224/8/6 150/8/6 65/8/6
f 65/8/6 150/8/6 39/8/6
f 171/8/6 65/8/6 68/8/6
f 68/8/6 65/8/6 69/8/6
f 114/5/6 119/5/6 1/5/6
f 1/5/6 119/5/6 7/5/6
f 124/2/6 128/2/6 11/2/6
f 11/2/6 128/2/6 15/2/6
f 116/5/6 115/5/6 3/5/6
f 3/5/6 115/5/6 4/5/6
f 122/5/6 117/5/6 10/5/6
f 10/5/6 117/5/6 2/5/6
f 131/8/6 125/8/6 19/8/6
f 19/8/6 125/8/6 12/8/6
