# Vengi binary mesh normalized for Tanks of Freedom II

mtllib ../../materials/vox_building.mtl
o key

v 0.5 3.3 0.1
v 0.4 3.3 0.1
v 0.4 3.3 0.2
v 0.5 3.3 0.2
v 0.4 2.9 0.1
v 0.3 2.9 0.1
v 0.3 2.9 0.2
v 0.4 2.9 0.2
v 0.3 2.7 0.1
v 0.2 2.7 0.1
v 0.2 2.7 0.2
v 0.3 2.7 0.2
v 0.2 2.6 0.1
v 0.1 2.6 0.1
v 0.1 2.6 0.2
v 0.2 2.6 0.2
v 0.1 2.5 0.1
v -0.1 2.5 0.1
v -0.1 2.5 0.2
v 0.1 2.5 0.2
v -0.1 2.6 0.1
v -0.2 2.6 0.1
v -0.2 2.6 0.2
v -0.1 2.6 0.2
v -0.2 2.7 0.1
v -0.3 2.7 0.1
v -0.3 2.7 0.2
v -0.2 2.7 0.2
v -0.3 2.9 0.1
v -0.4 2.9 0.1
v -0.4 2.9 0.2
v -0.3 2.9 0.2
v -0.4 3.3 0.1
v -0.5 3.3 0.1
v -0.5 3.3 0.2
v -0.4 3.3 0.2
v 0.6 0.4 -0.1
v 0.5 0.4 -0.1
v 0.5 0.4 0.1
v 0.6 0.4 0.1
v 0.5 0.5 -0.1
v 0.4 0.5 -0.1
v 0.4 0.5 0.1
v 0.5 0.5 0.1
v 0.4 0.6 -0.1
v 0.3 0.6 -0.1
v 0.3 0.6 0.1
v 0.4 0.6 0.1
v 0.6 1.1 -0.1
v 0.2 1.1 -0.1
v 0.2 1.1 0.1
v 0.6 1.1 0.1
v 0.6 3.9 -0.2
v 0.5 3.9 -0.2
v 0.5 3.9 0.2
v 0.6 3.9 0.2
v 0.5 3.3 -0.2
v 0.4 3.3 -0.2
v 0.4 3.3 -0.1
v 0.5 3.3 -0.1
v 0.5 4 -0.2
v 0.4 4 -0.2
v 0.4 4 0.2
v 0.5 4 0.2
v 0.4 2.9 -0.2
v 0.3 2.9 -0.2
v 0.3 2.9 -0.1
v 0.4 2.9 -0.1
v 0.3 2.7 -0.2
v 0.2 2.7 -0.2
v 0.2 2.7 -0.1
v 0.3 2.7 -0.1
v 0.2 2.6 -0.2
v 0.1 2.6 -0.2
v 0.1 2.6 -0.1
v 0.2 2.6 -0.1
v 0.1 2.5 -0.2
v -0.1 2.5 -0.2
v -0.1 2.5 -0.1
v 0.1 2.5 -0.1
v -0.1 2.6 -0.2
v -0.2 2.6 -0.2
v -0.2 2.6 -0.1
v -0.1 2.6 -0.1
v -0.2 2.7 -0.2
v -0.3 2.7 -0.2
v -0.3 2.7 -0.1
v -0.2 2.7 -0.1
v -0.3 2.9 -0.2
v -0.4 2.9 -0.2
v -0.4 2.9 -0.1
v -0.3 2.9 -0.1
v 0.4 4.1 -0.2
v -0.4 4.1 -0.2
v -0.4 4.1 0.2
v 0.4 4.1 0.2
v -0.4 3.3 -0.2
v -0.5 3.3 -0.2
v -0.5 3.3 -0.1
v -0.4 3.3 -0.1
v -0.4 4 -0.2
v -0.5 4 -0.2
v -0.5 4 0.2
v -0.4 4 0.2
v -0.5 3.9 -0.2
v -0.6 3.9 -0.2
v -0.6 3.9 0.2
v -0.5 3.9 0.2
v 0.5 3.9 0.1
v 0.4 3.9 0.2
v 0.4 3.9 0.1
v 0.2 2.5 0.1
v 0.2 2.5 0.2
v -0.2 2.5 0.2
v -0.2 2.5 0.1
v 0.4 4 0.1
v -0.4 4 0.1
v -0.4 3.9 0.1
v -0.4 3.9 0.2
v -0.5 3.9 0.1
v 0.6 1 -0.1
v 0.6 1 0.1
v 0.5 1 0.1
v 0.5 1 -0.1
v 0.5 0.9 -0.1
v 0.5 0.9 0.1
v 0.4 0.9 0.1
v 0.4 0.9 -0.1
v 0.4 0.8 -0.1
v 0.4 0.8 0.1
v 0.3 0.8 0.1
v 0.3 0.8 -0.1
v 0.6 0.3 -0.1
v 0.6 0.3 0.1
v 0.1 0.3 0.1
v 0.1 0.3 -0.1
v -0.1 0.3 -0.1
v -0.1 0.3 0.1
v -0.2 0.3 0.1
v -0.2 0.3 -0.1
v 0.6 3.3 -0.2
v 0.6 3.3 0.2
v 0.5 2.9 -0.2
v 0.5 2.9 0.2
v 0.5 3.9 -0.1
v 0.4 3.9 -0.1
v 0.4 3.9 -0.2
v 0.4 2.7 -0.2
v 0.4 2.7 0.2
v 0.3 2.6 -0.2
v 0.3 2.6 0.2
v 0.2 2.5 -0.2
v 0.2 2.5 -0.1
v 0.1 0.3 -0.2
v 0.1 0.3 0.2
v -0.1 0.3 0.2
v -0.1 0.3 -0.2
v -0.2 2.5 -0.1
v -0.2 2.5 -0.2
v -0.3 2.6 0.2
v -0.3 2.6 -0.2
v -0.4 2.7 0.2
v -0.4 2.7 -0.2
v 0.4 4 -0.1
v -0.4 4 -0.1
v -0.5 2.9 0.2
v -0.5 2.9 -0.2
v -0.4 3.9 -0.2
v -0.4 3.9 -0.1
v -0.5 3.9 -0.1
v -0.6 3.3 0.2
v -0.6 3.3 -0.2
v -0.1 2.4 0.2
v -0.1 2.4 0.1
v -0.1 2.4 -0.1
v -0.1 2.4 -0.2
v 0.1 2.4 0.2
v 0.1 2.4 0.1
v 0.1 2.4 -0.1
v 0.1 2.4 -0.2
v 0.1 0.4 -0.1
v 0.1 0.5 -0.1
v 0.1 0.6 -0.1
v 0.1 0.8 -0.1
v 0.1 0.9 -0.1
v 0.1 1 -0.1
v 0.1 1.1 -0.1
v 0.1 0.4 0.1
v 0.1 0.5 0.1
v 0.1 0.6 0.1
v 0.1 0.8 0.1
v 0.1 0.9 0.1
v 0.1 1 0.1
v 0.1 1.1 0.1

vt 0.0253906 0.5
vt 0.0878906 0.5
vt 0.0957031 0.5

vn 0 1 0
vn 0 -1 0
vn -1 0 0
vn 1 0 0
vn 0 0 -1
vn 0 0 1

usemtl palette
f 1/2/1 2/2/1 4/2/1
f 4/2/1 2/2/1 3/2/1
f 5/2/1 6/2/1 8/2/1
f 8/2/1 6/2/1 7/2/1
f 9/2/1 10/2/1 12/2/1
f 12/2/1 10/2/1 11/2/1
f 13/2/1 14/2/1 16/2/1
f 16/2/1 14/2/1 15/2/1
f 17/2/1 18/2/1 20/2/1
f 20/2/1 18/2/1 19/2/1
f 21/2/1 22/2/1 24/2/1
f 24/2/1 22/2/1 23/2/1
f 25/2/1 26/2/1 28/2/1
f 28/2/1 26/2/1 27/2/1
f 29/2/1 30/2/1 32/2/1
f 32/2/1 30/2/1 31/2/1
f 33/2/1 34/2/1 36/2/1
f 36/2/1 34/2/1 35/2/1
f 37/3/1 38/3/1 40/3/1
f 40/3/1 38/3/1 39/3/1
f 41/3/1 42/3/1 44/3/1
f 44/3/1 42/3/1 43/3/1
f 45/3/1 46/3/1 48/3/1
f 48/3/1 46/3/1 47/3/1
f 49/3/1 50/3/1 52/3/1
f 52/3/1 50/3/1 51/3/1
f 53/2/1 54/2/1 56/2/1
f 56/2/1 54/2/1 55/2/1
f 57/2/1 58/2/1 60/2/1
f 60/2/1 58/2/1 59/2/1
f 61/2/1 62/2/1 64/2/1
f 64/2/1 62/2/1 63/2/1
f 65/2/1 66/2/1 68/2/1
f 68/2/1 66/2/1 67/2/1
f 69/2/1 70/2/1 72/2/1
f 72/2/1 70/2/1 71/2/1
f 73/2/1 74/2/1 76/2/1
f 76/2/1 74/2/1 75/2/1
f 77/2/1 78/2/1 80/2/1
f 80/2/1 78/2/1 79/2/1
f 81/2/1 82/2/1 84/2/1
f 84/2/1 82/2/1 83/2/1
f 85/2/1 86/2/1 88/2/1
f 88/2/1 86/2/1 87/2/1
f 89/2/1 90/2/1 92/2/1
f 92/2/1 90/2/1 91/2/1
f 93/2/1 94/2/1 96/2/1
f 96/2/1 94/2/1 95/2/1
f 97/2/1 98/2/1 100/2/1
f 100/2/1 98/2/1 99/2/1
f 101/2/1 102/2/1 104/2/1
f 104/2/1 102/2/1 103/2/1
f 105/2/1 106/2/1 108/2/1
f 108/2/1 106/2/1 107/2/1
f 109/2/2 55/2/2 111/2/2
f 111/2/2 55/2/2 110/2/2
f 112/2/2 113/2/2 17/2/2
f 17/2/2 113/2/2 20/2/2
f 18/2/2 19/2/2 115/2/2
f 115/2/2 19/2/2 114/2/2
f 116/2/2 63/2/2 117/2/2
f 117/2/2 63/2/2 104/2/2
f 118/2/2 119/2/2 120/2/2
f 120/2/2 119/2/2 108/2/2
f 121/3/2 122/3/2 124/3/2
f 124/3/2 122/3/2 123/3/2
f 125/3/2 126/3/2 128/3/2
f 128/3/2 126/3/2 127/3/2
f 129/3/2 130/3/2 132/3/2
f 132/3/2 130/3/2 131/3/2
f 133/3/2 134/3/2 136/3/2
f 136/3/2 134/3/2 135/3/2
f 137/3/2 138/3/2 140/3/2
f 140/3/2 138/3/2 139/3/2
f 141/2/2 142/2/2 57/2/2
f 57/2/2 142/2/2 4/2/2
f 143/2/2 144/2/2 65/2/2
f 65/2/2 144/2/2 8/2/2
f 54/2/2 145/2/2 147/2/2
f 147/2/2 145/2/2 146/2/2
f 148/2/2 149/2/2 69/2/2
f 69/2/2 149/2/2 12/2/2
f 150/2/2 151/2/2 73/2/2
f 73/2/2 151/2/2 16/2/2
f 152/2/2 153/2/2 77/2/2
f 77/2/2 153/2/2 80/2/2
f 154/3/2 155/3/2 157/3/2
f 157/3/2 155/3/2 156/3/2
f 78/2/2 79/2/2 159/2/2
f 159/2/2 79/2/2 158/2/2
f 82/2/2 23/2/2 161/2/2
f 161/2/2 23/2/2 160/2/2
f 86/2/2 27/2/2 163/2/2
f 163/2/2 27/2/2 162/2/2
f 62/2/2 164/2/2 101/2/2
f 101/2/2 164/2/2 165/2/2
f 90/2/2 31/2/2 167/2/2
f 167/2/2 31/2/2 166/2/2
f 168/2/2 169/2/2 105/2/2
f 105/2/2 169/2/2 170/2/2
f 98/2/2 35/2/2 172/2/2
f 172/2/2 35/2/2 171/2/2
f 173/3/3 174/3/3 156/3/3
f 156/3/3 174/3/3 138/3/3
f 175/3/3 176/3/3 137/3/3
f 137/3/3 176/3/3 157/3/3
f 19/2/3 18/2/3 173/2/3
f 173/2/3 18/2/3 174/2/3
f 79/2/3 78/2/3 175/2/3
f 175/2/3 78/2/3 176/2/3
f 15/2/3 14/2/3 20/2/3
f 20/2/3 14/2/3 17/2/3
f 23/2/3 22/2/3 114/2/3
f 114/2/3 22/2/3 115/2/3
f 22/3/3 83/3/3 139/3/3
f 139/3/3 83/3/3 140/3/3
f 75/2/3 74/2/3 80/2/3
f 80/2/3 74/2/3 77/2/3
f 83/2/3 82/2/3 158/2/3
f 158/2/3 82/2/3 159/2/3
f 11/2/3 10/2/3 16/2/3
f 16/2/3 10/2/3 13/2/3
f 71/2/3 70/2/3 76/2/3
f 76/2/3 70/2/3 73/2/3
f 27/2/3 86/2/3 160/2/3
f 160/2/3 86/2/3 161/2/3
f 7/2/3 6/2/3 12/2/3
f 12/2/3 6/2/3 9/2/3
f 67/2/3 66/2/3 72/2/3
f 72/2/3 66/2/3 69/2/3
f 31/2/3 90/2/3 162/2/3
f 162/2/3 90/2/3 163/2/3
f 3/2/3 2/2/3 8/2/3
f 8/2/3 2/2/3 5/2/3
f 59/2/3 58/2/3 68/2/3
f 68/2/3 58/2/3 65/2/3
f 35/2/3 98/2/3 166/2/3
f 166/2/3 98/2/3 167/2/3
f 55/2/3 109/2/3 4/2/3
f 4/2/3 109/2/3 1/2/3
f 145/2/3 54/2/3 60/2/3
f 60/2/3 54/2/3 57/2/3
f 107/2/3 106/2/3 171/2/3
f 171/2/3 106/2/3 172/2/3
f 63/2/3 116/2/3 110/2/3
f 110/2/3 116/2/3 111/2/3
f 164/2/3 62/2/3 146/2/3
f 146/2/3 62/2/3 147/2/3
f 103/2/3 102/2/3 108/2/3
f 108/2/3 102/2/3 105/2/3
f 95/2/3 94/2/3 104/2/3
f 104/2/3 94/2/3 101/2/3
f 40/3/4 134/3/4 37/3/4
f 37/3/4 134/3/4 133/3/4
f 44/3/4 39/3/4 41/3/4
f 41/3/4 39/3/4 38/3/4
f 48/3/4 43/3/4 45/3/4
f 45/3/4 43/3/4 42/3/4
f 131/3/4 47/3/4 132/3/4
f 132/3/4 47/3/4 46/3/4
f 127/3/4 130/3/4 128/3/4
f 128/3/4 130/3/4 129/3/4
f 123/3/4 126/3/4 124/3/4
f 124/3/4 126/3/4 125/3/4
f 52/3/4 122/3/4 49/3/4
f 49/3/4 122/3/4 121/3/4
f 177/3/4 155/3/4 178/3/4
f 178/3/4 155/3/4 135/3/4
f 179/3/4 136/3/4 180/3/4
f 180/3/4 136/3/4 154/3/4
f 20/2/4 177/2/4 17/2/4
f 17/2/4 177/2/4 178/2/4
f 80/2/4 179/2/4 77/2/4
f 77/2/4 179/2/4 180/2/4
f 16/2/4 113/2/4 13/2/4
f 13/2/4 113/2/4 112/2/4
f 24/2/4 19/2/4 21/2/4
f 21/2/4 19/2/4 18/2/4
f 13/3/4 51/3/4 76/3/4
f 76/3/4 51/3/4 50/3/4
f 76/2/4 153/2/4 73/2/4
f 73/2/4 153/2/4 152/2/4
f 84/2/4 79/2/4 81/2/4
f 81/2/4 79/2/4 78/2/4
f 28/2/4 23/2/4 25/2/4
f 25/2/4 23/2/4 22/2/4
f 12/2/4 151/2/4 69/2/4
f 69/2/4 151/2/4 150/2/4
f 88/2/4 83/2/4 85/2/4
f 85/2/4 83/2/4 82/2/4
f 32/2/4 27/2/4 29/2/4
f 29/2/4 27/2/4 26/2/4
f 8/2/4 149/2/4 65/2/4
f 65/2/4 149/2/4 148/2/4
f 92/2/4 87/2/4 89/2/4
f 89/2/4 87/2/4 86/2/4
f 36/2/4 31/2/4 33/2/4
f 33/2/4 31/2/4 30/2/4
f 4/2/4 144/2/4 57/2/4
f 57/2/4 144/2/4 143/2/4
f 100/2/4 91/2/4 97/2/4
f 97/2/4 91/2/4 90/2/4
f 108/2/4 35/2/4 120/2/4
f 120/2/4 35/2/4 34/2/4
f 56/2/4 142/2/4 53/2/4
f 53/2/4 142/2/4 141/2/4
f 170/2/4 99/2/4 105/2/4
f 105/2/4 99/2/4 98/2/4
f 104/2/4 119/2/4 117/2/4
f 117/2/4 119/2/4 118/2/4
f 64/2/4 55/2/4 61/2/4
f 61/2/4 55/2/4 54/2/4
f 165/2/4 169/2/4 101/2/4
f 101/2/4 169/2/4 168/2/4
f 96/2/4 63/2/4 93/2/4
f 93/2/4 63/2/4 62/2/4
f 57/2/5 54/2/5 141/2/5
f 141/2/5 54/2/5 53/2/5
f 65/2/5 58/2/5 143/2/5
f 143/2/5 58/2/5 57/2/5
f 147/2/5 62/2/5 54/2/5
f 54/2/5 62/2/5 61/2/5
f 69/2/5 66/2/5 148/2/5
f 148/2/5 66/2/5 65/2/5
f 73/2/5 70/2/5 150/2/5
f 150/2/5 70/2/5 69/2/5
f 136/3/5 181/3/5 133/3/5
f 133/3/5 181/3/5 37/3/5
f 181/3/5 182/3/5 38/3/5
f 38/3/5 182/3/5 41/3/5
f 182/3/5 183/3/5 42/3/5
f 42/3/5 183/3/5 45/3/5
f 183/3/5 184/3/5 46/3/5
f 46/3/5 184/3/5 132/3/5
f 184/3/5 185/3/5 129/3/5
f 129/3/5 185/3/5 128/3/5
f 185/3/5 186/3/5 125/3/5
f 125/3/5 186/3/5 124/3/5
f 186/3/5 187/3/5 121/3/5
f 121/3/5 187/3/5 49/3/5
f 187/3/5 80/3/5 50/3/5
f 50/3/5 80/3/5 153/3/5
f 77/2/5 74/2/5 152/2/5
f 152/2/5 74/2/5 73/2/5
f 157/3/5 176/3/5 154/3/5
f 154/3/5 176/3/5 180/3/5
f 176/2/5 78/2/5 180/2/5
f 180/2/5 78/2/5 77/2/5
f 79/1/5 84/1/5 80/1/5
f 80/1/5 84/1/5 75/1/5
f 140/3/5 158/3/5 137/3/5
f 137/3/5 158/3/5 79/3/5
f 159/2/5 82/2/5 78/2/5
f 78/2/5 82/2/5 81/2/5
f 83/1/5 88/1/5 76/1/5
f 76/1/5 88/1/5 71/1/5
f 161/2/5 86/2/5 82/2/5
f 82/2/5 86/2/5 85/2/5
f 87/1/5 92/1/5 72/1/5
f 72/1/5 92/1/5 67/1/5
f 163/2/5 90/2/5 86/2/5
f 86/2/5 90/2/5 89/2/5
f 91/1/5 100/1/5 68/1/5
f 68/1/5 100/1/5 59/1/5
f 169/1/5 165/1/5 146/1/5
f 146/1/5 165/1/5 164/1/5
f 101/2/5 94/2/5 62/2/5
f 62/2/5 94/2/5 93/2/5
f 167/2/5 98/2/5 90/2/5
f 90/2/5 98/2/5 97/2/5
f 99/1/5 170/1/5 60/1/5
f 60/1/5 170/1/5 145/1/5
f 105/2/5 102/2/5 168/2/5
f 168/2/5 102/2/5 101/2/5
f 172/2/5 106/2/5 98/2/5
f 98/2/5 106/2/5 105/2/5
f 4/2/6 142/2/6 55/2/6
f 55/2/6 142/2/6 56/2/6
f 8/2/6 144/2/6 3/2/6
f 3/2/6 144/2/6 4/2/6
f 110/2/6 55/2/6 63/2/6
f 63/2/6 55/2/6 64/2/6
f 12/2/6 149/2/6 7/2/6
f 7/2/6 149/2/6 8/2/6
f 16/2/6 151/2/6 11/2/6
f 11/2/6 151/2/6 12/2/6
f 135/3/6 134/3/6 188/3/6
f 188/3/6 134/3/6 40/3/6
f 188/3/6 39/3/6 189/3/6
f 189/3/6 39/3/6 44/3/6
f 189/3/6 43/3/6 190/3/6
f 190/3/6 43/3/6 48/3/6
f 190/3/6 47/3/6 191/3/6
f 191/3/6 47/3/6 131/3/6
f 191/3/6 130/3/6 192/3/6
f 192/3/6 130/3/6 127/3/6
f 192/3/6 126/3/6 193/3/6
f 193/3/6 126/3/6 123/3/6
f 193/3/6 122/3/6 194/3/6
f 194/3/6 122/3/6 52/3/6
f 194/3/6 51/3/6 17/3/6
f 17/3/6 51/3/6 112/3/6
f 20/2/6 113/2/6 15/2/6
f 15/2/6 113/2/6 16/2/6
f 156/3/6 155/3/6 173/3/6
f 173/3/6 155/3/6 177/3/6
f 173/2/6 177/2/6 19/2/6
f 19/2/6 177/2/6 20/2/6
f 18/1/6 17/1/6 21/1/6
f 21/1/6 17/1/6 14/1/6
f 139/3/6 138/3/6 115/3/6
f 115/3/6 138/3/6 18/3/6
f 114/2/6 19/2/6 23/2/6
f 23/2/6 19/2/6 24/2/6
f 22/1/6 13/1/6 25/1/6
f 25/1/6 13/1/6 10/1/6
f 160/2/6 23/2/6 27/2/6
f 27/2/6 23/2/6 28/2/6
f 26/1/6 9/1/6 29/1/6
f 29/1/6 9/1/6 6/1/6
f 162/2/6 27/2/6 31/2/6
f 31/2/6 27/2/6 32/2/6
f 30/1/6 5/1/6 33/1/6
f 33/1/6 5/1/6 2/1/6
f 118/1/6 111/1/6 117/1/6
f 117/1/6 111/1/6 116/1/6
f 104/2/6 63/2/6 95/2/6
f 95/2/6 63/2/6 96/2/6
f 166/2/6 31/2/6 35/2/6
f 35/2/6 31/2/6 36/2/6
f 34/1/6 1/1/6 120/1/6
f 120/1/6 1/1/6 109/1/6
f 108/2/6 119/2/6 103/2/6
f 103/2/6 119/2/6 104/2/6
f 171/2/6 35/2/6 107/2/6
f 107/2/6 35/2/6 108/2/6
