# Vengi binary mesh normalized for Tanks of Freedom II

mtllib ../../materials/vox_building.mtl
o path_marker

v 0.3 0.4 1.3
v -0.3 0.4 1.3
v -0.3 0.4 1.4
v 0.3 0.4 1.4
v 1 0.4 -0.2
v 0.4 0.4 -0.2
v 0.4 0.4 -0.1
v 1 0.4 -0.1
v 0.3 0.4 -0.2
v 0.4 0.4 1.3
v -0.3 0.4 -0.2
v -0.4 0.4 -0.2
v -0.4 0.4 1.3
v -1 0.4 -0.2
v -1 0.4 -0.1
v -0.4 0.4 -0.1
v 1.1 0.4 -0.3
v 1 0.4 -0.3
v 1.1 0.4 -0.2
v 0.3 0.4 -0.3
v -0.9 0.4 -0.3
v -1 0.4 -0.3
v -0.9 0.4 -0.2
v -1.1 0.4 -0.3
v -1.1 0.4 -0.2
v 1 0.4 -0.4
v 0.9 0.4 -0.4
v 0.9 0.4 -0.3
v 0.3 0.4 -0.4
v -0.8 0.4 -0.4
v -0.9 0.4 -0.4
v -0.8 0.4 -0.2
v -1 0.4 -0.4
v 0.9 0.4 -0.5
v 0.8 0.4 -0.5
v 0.8 0.4 -0.4
v 0.3 0.4 -0.5
v -0.7 0.4 -0.5
v -0.8 0.4 -0.5
v -0.7 0.4 -0.2
v -0.9 0.4 -0.5
v 0.8 0.4 -0.6
v 0.7 0.4 -0.6
v 0.7 0.4 -0.5
v 0.3 0.4 -0.6
v -0.6 0.4 -0.6
v -0.7 0.4 -0.6
v -0.6 0.4 -0.2
v -0.8 0.4 -0.6
v 0.7 0.4 -0.7
v 0.6 0.4 -0.7
v 0.6 0.4 -0.6
v 0.3 0.4 -0.7
v -0.5 0.4 -0.7
v -0.6 0.4 -0.7
v -0.5 0.4 -0.2
v -0.7 0.4 -0.7
v 0.6 0.4 -0.8
v 0.5 0.4 -0.8
v 0.5 0.4 -0.7
v 0.3 0.4 -0.8
v -0.4 0.4 -0.8
v -0.5 0.4 -0.8
v -0.6 0.4 -0.8
v 0.5 0.4 -0.9
v 0.4 0.4 -0.9
v 0.4 0.4 -0.8
v 0.3 0.4 -0.9
v -0.3 0.4 -0.9
v -0.4 0.4 -0.9
v -0.5 0.4 -0.9
v 0.4 0.4 -1
v 0.3 0.4 -1
v -0.3 0.4 -1
v -0.4 0.4 -1
v 0.3 0.4 -1.1
v 0.2 0.4 -1.1
v 0.2 0.4 -1
v -0.2 0.4 -1.1
v -0.2 0.4 -1
v -0.3 0.4 -1.1
v 0.2 0.4 -1.2
v 0.1 0.4 -1.2
v 0.1 0.4 -1.1
v -0.1 0.4 -1.2
v -0.1 0.4 -1.1
v -0.2 0.4 -1.2
v 0.1 0.4 -1.3
v -0.1 0.4 -1.3
v 0.3 0.3 1.3
v 0.3 0.3 1.4
v -0.3 0.3 1.4
v -0.3 0.3 1.3
v 1 0.3 -0.2
v 1 0.3 -0.1
v 0.4 0.3 -0.1
v 0.4 0.3 -0.2
v 0.4 0.3 1.3
v 0.3 0.3 -0.2
v -0.3 0.3 -0.2
v -0.4 0.3 1.3
v -0.4 0.3 -0.2
v -0.4 0.3 -0.1
v -1 0.3 -0.1
v -1 0.3 -0.2
v 1.1 0.3 -0.3
v 1.1 0.3 -0.2
v 1 0.3 -0.3
v 0.3 0.3 -0.3
v -0.9 0.3 -0.3
v -0.9 0.3 -0.2
v -1 0.3 -0.3
v -1.1 0.3 -0.2
v -1.1 0.3 -0.3
v 1 0.3 -0.4
v 0.9 0.3 -0.3
v 0.9 0.3 -0.4
v 0.3 0.3 -0.4
v -0.8 0.3 -0.4
v -0.8 0.3 -0.2
v -0.9 0.3 -0.4
v -1 0.3 -0.4
v 0.9 0.3 -0.5
v 0.8 0.3 -0.4
v 0.8 0.3 -0.5
v 0.3 0.3 -0.5
v -0.7 0.3 -0.5
v -0.7 0.3 -0.2
v -0.8 0.3 -0.5
v -0.9 0.3 -0.5
v 0.8 0.3 -0.6
v 0.7 0.3 -0.5
v 0.7 0.3 -0.6
v 0.3 0.3 -0.6
v -0.6 0.3 -0.6
v -0.6 0.3 -0.2
v -0.7 0.3 -0.6
v -0.8 0.3 -0.6
v 0.7 0.3 -0.7
v 0.6 0.3 -0.6
v 0.6 0.3 -0.7
v 0.3 0.3 -0.7
v -0.5 0.3 -0.7
v -0.5 0.3 -0.2
v -0.6 0.3 -0.7
v -0.7 0.3 -0.7
v 0.6 0.3 -0.8
v 0.5 0.3 -0.7
v 0.5 0.3 -0.8
v 0.3 0.3 -0.8
v -0.4 0.3 -0.8
v -0.5 0.3 -0.8
v -0.6 0.3 -0.8
v 0.5 0.3 -0.9
v 0.4 0.3 -0.8
v 0.4 0.3 -0.9
v 0.3 0.3 -0.9
v -0.3 0.3 -0.9
v -0.4 0.3 -0.9
v -0.5 0.3 -0.9
v 0.4 0.3 -1
v 0.3 0.3 -1
v -0.3 0.3 -1
v -0.4 0.3 -1
v 0.3 0.3 -1.1
v 0.2 0.3 -1
v 0.2 0.3 -1.1
v -0.2 0.3 -1
v -0.2 0.3 -1.1
v -0.3 0.3 -1.1
v 0.2 0.3 -1.2
v 0.1 0.3 -1.1
v 0.1 0.3 -1.2
v -0.1 0.3 -1.1
v -0.1 0.3 -1.2
v -0.2 0.3 -1.2
v 0.1 0.3 -1.3
v -0.1 0.3 -1.3

vt 0.00195313 0.5
vt 0.0605469 0.5

vn 0 1 0
vn 0 -1 0
vn -1 0 0
vn 1 0 0
vn 0 0 -1
vn 0 0 1

usemtl palette
f 1/1/1 2/1/1 4/1/1
f 4/1/1 2/1/1 3/1/1
f 5/1/1 6/1/1 8/1/1
f 8/1/1 6/1/1 7/1/1
f 6/1/1 9/1/1 10/1/1
f 10/1/1 9/1/1 1/1/1
f 11/1/1 12/1/1 2/1/1
f 2/1/1 12/1/1 13/1/1
f 12/1/1 14/1/1 16/1/1
f 16/1/1 14/1/1 15/1/1
f 17/1/1 18/1/1 19/1/1
f 19/1/1 18/1/1 5/1/1
f 18/2/1 20/2/1 5/2/1
f 5/2/1 20/2/1 9/2/1
f 21/2/1 22/2/1 23/2/1
f 23/2/1 22/2/1 14/2/1
f 22/1/1 24/1/1 14/1/1
f 14/1/1 24/1/1 25/1/1
f 26/1/1 27/1/1 18/1/1
f 18/1/1 27/1/1 28/1/1
f 27/2/1 29/2/1 28/2/1
f 28/2/1 29/2/1 20/2/1
f 30/2/1 31/2/1 32/2/1
f 32/2/1 31/2/1 23/2/1
f 31/1/1 33/1/1 21/1/1
f 21/1/1 33/1/1 22/1/1
f 34/1/1 35/1/1 27/1/1
f 27/1/1 35/1/1 36/1/1
f 35/2/1 37/2/1 36/2/1
f 36/2/1 37/2/1 29/2/1
f 38/2/1 39/2/1 40/2/1
f 40/2/1 39/2/1 32/2/1
f 39/1/1 41/1/1 30/1/1
f 30/1/1 41/1/1 31/1/1
f 42/1/1 43/1/1 35/1/1
f 35/1/1 43/1/1 44/1/1
f 43/2/1 45/2/1 44/2/1
f 44/2/1 45/2/1 37/2/1
f 46/2/1 47/2/1 48/2/1
f 48/2/1 47/2/1 40/2/1
f 47/1/1 49/1/1 38/1/1
f 38/1/1 49/1/1 39/1/1
f 50/1/1 51/1/1 43/1/1
f 43/1/1 51/1/1 52/1/1
f 51/2/1 53/2/1 52/2/1
f 52/2/1 53/2/1 45/2/1
f 54/2/1 55/2/1 56/2/1
f 56/2/1 55/2/1 48/2/1
f 55/1/1 57/1/1 46/1/1
f 46/1/1 57/1/1 47/1/1
f 58/1/1 59/1/1 51/1/1
f 51/1/1 59/1/1 60/1/1
f 59/2/1 61/2/1 60/2/1
f 60/2/1 61/2/1 53/2/1
f 62/2/1 63/2/1 12/2/1
f 12/2/1 63/2/1 56/2/1
f 63/1/1 64/1/1 54/1/1
f 54/1/1 64/1/1 55/1/1
f 65/1/1 66/1/1 59/1/1
f 59/1/1 66/1/1 67/1/1
f 66/2/1 68/2/1 67/2/1
f 67/2/1 68/2/1 61/2/1
f 69/2/1 70/2/1 11/2/1
f 11/2/1 70/2/1 12/2/1
f 70/1/1 71/1/1 62/1/1
f 62/1/1 71/1/1 63/1/1
f 72/1/1 73/1/1 66/1/1
f 66/1/1 73/1/1 68/1/1
f 73/2/1 74/2/1 1/2/1
f 1/2/1 74/2/1 2/2/1
f 74/1/1 75/1/1 69/1/1
f 69/1/1 75/1/1 70/1/1
f 76/1/1 77/1/1 73/1/1
f 73/1/1 77/1/1 78/1/1
f 77/2/1 79/2/1 78/2/1
f 78/2/1 79/2/1 80/2/1
f 79/1/1 81/1/1 80/1/1
f 80/1/1 81/1/1 74/1/1
f 82/1/1 83/1/1 77/1/1
f 77/1/1 83/1/1 84/1/1
f 83/2/1 85/2/1 84/2/1
f 84/2/1 85/2/1 86/2/1
f 85/1/1 87/1/1 86/1/1
f 86/1/1 87/1/1 79/1/1
f 88/1/1 89/1/1 83/1/1
f 83/1/1 89/1/1 85/1/1
f 90/1/2 91/1/2 93/1/2
f 93/1/2 91/1/2 92/1/2
f 94/1/2 95/1/2 97/1/2
f 97/1/2 95/1/2 96/1/2
f 97/1/2 98/1/2 99/1/2
f 99/1/2 98/1/2 90/1/2
f 100/1/2 93/1/2 102/1/2
f 102/1/2 93/1/2 101/1/2
f 102/1/2 103/1/2 105/1/2
f 105/1/2 103/1/2 104/1/2
f 106/1/2 107/1/2 108/1/2
f 108/1/2 107/1/2 94/1/2
f 108/2/2 94/2/2 109/2/2
f 109/2/2 94/2/2 99/2/2
f 110/2/2 111/2/2 112/2/2
f 112/2/2 111/2/2 105/2/2
f 112/1/2 105/1/2 114/1/2
f 114/1/2 105/1/2 113/1/2
f 115/1/2 108/1/2 117/1/2
f 117/1/2 108/1/2 116/1/2
f 117/2/2 116/2/2 118/2/2
f 118/2/2 116/2/2 109/2/2
f 119/2/2 120/2/2 121/2/2
f 121/2/2 120/2/2 111/2/2
f 121/1/2 110/1/2 122/1/2
f 122/1/2 110/1/2 112/1/2
f 123/1/2 117/1/2 125/1/2
f 125/1/2 117/1/2 124/1/2
f 125/2/2 124/2/2 126/2/2
f 126/2/2 124/2/2 118/2/2
f 127/2/2 128/2/2 129/2/2
f 129/2/2 128/2/2 120/2/2
f 129/1/2 119/1/2 130/1/2
f 130/1/2 119/1/2 121/1/2
f 131/1/2 125/1/2 133/1/2
f 133/1/2 125/1/2 132/1/2
f 133/2/2 132/2/2 134/2/2
f 134/2/2 132/2/2 126/2/2
f 135/2/2 136/2/2 137/2/2
f 137/2/2 136/2/2 128/2/2
f 137/1/2 127/1/2 138/1/2
f 138/1/2 127/1/2 129/1/2
f 139/1/2 133/1/2 141/1/2
f 141/1/2 133/1/2 140/1/2
f 141/2/2 140/2/2 142/2/2
f 142/2/2 140/2/2 134/2/2
f 143/2/2 144/2/2 145/2/2
f 145/2/2 144/2/2 136/2/2
f 145/1/2 135/1/2 146/1/2
f 146/1/2 135/1/2 137/1/2
f 147/1/2 141/1/2 149/1/2
f 149/1/2 141/1/2 148/1/2
f 149/2/2 148/2/2 150/2/2
f 150/2/2 148/2/2 142/2/2
f 151/2/2 102/2/2 152/2/2
f 152/2/2 102/2/2 144/2/2
f 152/1/2 143/1/2 153/1/2
f 153/1/2 143/1/2 145/1/2
f 154/1/2 149/1/2 156/1/2
f 156/1/2 149/1/2 155/1/2
f 156/2/2 155/2/2 157/2/2
f 157/2/2 155/2/2 150/2/2
f 158/2/2 100/2/2 159/2/2
f 159/2/2 100/2/2 102/2/2
f 159/1/2 151/1/2 160/1/2
f 160/1/2 151/1/2 152/1/2
f 161/1/2 156/1/2 162/1/2
f 162/1/2 156/1/2 157/1/2
f 162/2/2 90/2/2 163/2/2
f 163/2/2 90/2/2 93/2/2
f 163/1/2 158/1/2 164/1/2
f 164/1/2 158/1/2 159/1/2
f 165/1/2 162/1/2 167/1/2
f 167/1/2 162/1/2 166/1/2
f 167/2/2 166/2/2 169/2/2
f 169/2/2 166/2/2 168/2/2
f 169/1/2 168/1/2 170/1/2
f 170/1/2 168/1/2 163/1/2
f 171/1/2 167/1/2 173/1/2
f 173/1/2 167/1/2 172/1/2
f 173/2/2 172/2/2 175/2/2
f 175/2/2 172/2/2 174/2/2
f 175/1/2 174/1/2 176/1/2
f 176/1/2 174/1/2 169/1/2
f 177/1/2 173/1/2 178/1/2
f 178/1/2 173/1/2 175/1/2
f 3/1/3 2/1/3 92/1/3
f 92/1/3 2/1/3 93/1/3
f 13/1/3 16/1/3 101/1/3
f 101/1/3 16/1/3 103/1/3
f 15/1/3 14/1/3 104/1/3
f 104/1/3 14/1/3 105/1/3
f 25/1/3 24/1/3 113/1/3
f 113/1/3 24/1/3 114/1/3
f 22/1/3 33/1/3 112/1/3
f 112/1/3 33/1/3 122/1/3
f 31/1/3 41/1/3 121/1/3
f 121/1/3 41/1/3 130/1/3
f 39/1/3 49/1/3 129/1/3
f 129/1/3 49/1/3 138/1/3
f 47/1/3 57/1/3 137/1/3
f 137/1/3 57/1/3 146/1/3
f 55/1/3 64/1/3 145/1/3
f 145/1/3 64/1/3 153/1/3
f 63/1/3 71/1/3 152/1/3
f 152/1/3 71/1/3 160/1/3
f 70/1/3 75/1/3 159/1/3
f 159/1/3 75/1/3 164/1/3
f 74/1/3 81/1/3 163/1/3
f 163/1/3 81/1/3 170/1/3
f 79/1/3 87/1/3 169/1/3
f 169/1/3 87/1/3 176/1/3
f 85/1/3 89/1/3 175/1/3
f 175/1/3 89/1/3 178/1/3
f 4/1/4 91/1/4 1/1/4
f 1/1/4 91/1/4 90/1/4
f 10/1/4 98/1/4 7/1/4
f 7/1/4 98/1/4 96/1/4
f 8/1/4 95/1/4 5/1/4
f 5/1/4 95/1/4 94/1/4
f 19/1/4 107/1/4 17/1/4
f 17/1/4 107/1/4 106/1/4
f 18/1/4 108/1/4 26/1/4
f 26/1/4 108/1/4 115/1/4
f 27/1/4 117/1/4 34/1/4
f 34/1/4 117/1/4 123/1/4
f 35/1/4 125/1/4 42/1/4
f 42/1/4 125/1/4 131/1/4
f 43/1/4 133/1/4 50/1/4
f 50/1/4 133/1/4 139/1/4
f 51/1/4 141/1/4 58/1/4
f 58/1/4 141/1/4 147/1/4
f 59/1/4 149/1/4 65/1/4
f 65/1/4 149/1/4 154/1/4
f 66/1/4 156/1/4 72/1/4
f 72/1/4 156/1/4 161/1/4
f 73/1/4 162/1/4 76/1/4
f 76/1/4 162/1/4 165/1/4
f 77/1/4 167/1/4 82/1/4
f 82/1/4 167/1/4 171/1/4
f 83/1/4 173/1/4 88/1/4
f 88/1/4 173/1/4 177/1/4
f 108/1/5 18/1/5 106/1/5
f 106/1/5 18/1/5 17/1/5
f 117/1/5 27/1/5 115/1/5
f 115/1/5 27/1/5 26/1/5
f 125/1/5 35/1/5 123/1/5
f 123/1/5 35/1/5 34/1/5
f 133/1/5 43/1/5 131/1/5
f 131/1/5 43/1/5 42/1/5
f 141/1/5 51/1/5 139/1/5
f 139/1/5 51/1/5 50/1/5
f 149/1/5 59/1/5 147/1/5
f 147/1/5 59/1/5 58/1/5
f 156/1/5 66/1/5 154/1/5
f 154/1/5 66/1/5 65/1/5
f 162/1/5 73/1/5 161/1/5
f 161/1/5 73/1/5 72/1/5
f 167/1/5 77/1/5 165/1/5
f 165/1/5 77/1/5 76/1/5
f 173/1/5 83/1/5 171/1/5
f 171/1/5 83/1/5 82/1/5
f 178/1/5 89/1/5 177/1/5
f 177/1/5 89/1/5 88/1/5
f 176/1/5 87/1/5 175/1/5
f 175/1/5 87/1/5 85/1/5
f 170/1/5 81/1/5 169/1/5
f 169/1/5 81/1/5 79/1/5
f 164/1/5 75/1/5 163/1/5
f 163/1/5 75/1/5 74/1/5
f 160/1/5 71/1/5 159/1/5
f 159/1/5 71/1/5 70/1/5
f 153/1/5 64/1/5 152/1/5
f 152/1/5 64/1/5 63/1/5
f 146/1/5 57/1/5 145/1/5
f 145/1/5 57/1/5 55/1/5
f 138/1/5 49/1/5 137/1/5
f 137/1/5 49/1/5 47/1/5
f 130/1/5 41/1/5 129/1/5
f 129/1/5 41/1/5 39/1/5
f 122/1/5 33/1/5 121/1/5
f 121/1/5 33/1/5 31/1/5
f 114/1/5 24/1/5 112/1/5
f 112/1/5 24/1/5 22/1/5
f 94/1/6 107/1/6 5/1/6
f 5/1/6 107/1/6 19/1/6
f 96/1/6 95/1/6 7/1/6
f 7/1/6 95/1/6 8/1/6
f 90/1/6 98/1/6 1/1/6
f 1/1/6 98/1/6 10/1/6
f 92/1/6 91/1/6 3/1/6
f 3/1/6 91/1/6 4/1/6
f 101/1/6 93/1/6 13/1/6
f 13/1/6 93/1/6 2/1/6
f 104/1/6 103/1/6 15/1/6
f 15/1/6 103/1/6 16/1/6
f 113/1/6 105/1/6 25/1/6
f 25/1/6 105/1/6 14/1/6
