# Vengi binary mesh normalized for Tanks of Freedom II

mtllib ../../materials/vox_grass.mtl
o pointer

v 0.1 0.1 1
v -0.2 0.1 1
v -0.2 0.1 1.1
v 0.1 0.1 1.1
v 0.3 0.1 0.9
v 0.1 0.1 0.9
v 0.3 0.1 1
v 0 0.1 0.9
v -0.1 0.1 0.9
v -0.1 0.1 1
v 0 0.1 1
v -0.2 0.1 0.9
v -0.4 0.1 0.9
v -0.4 0.1 1
v 0.5 0.1 0.8
v 0.3 0.1 0.8
v 0.5 0.1 0.9
v 0 0.1 0.8
v -0.1 0.1 0.8
v -0.4 0.1 0.8
v -0.6 0.1 0.8
v -0.6 0.1 0.9
v 0.6 0.1 0.7
v 0.5 0.1 0.7
v 0.6 0.1 0.8
v 0 0.1 0.7
v -0.1 0.1 0.7
v -0.6 0.1 0.7
v -0.7 0.1 0.7
v -0.7 0.1 0.8
v 0.7 0.1 0.6
v 0.6 0.1 0.6
v 0.7 0.1 0.7
v 0 0.1 0.6
v -0.1 0.1 0.6
v -0.7 0.1 0.6
v -0.8 0.1 0.6
v -0.8 0.1 0.7
v 0 0.1 0.5
v -0.1 0.1 0.5
v 0.8 0.1 0.4
v 0.7 0.1 0.4
v 0.8 0.1 0.6
v 0 0.1 0.4
v -0.1 0.1 0.4
v -0.8 0.1 0.4
v -0.9 0.1 0.4
v -0.9 0.1 0.6
v 0 0.1 0.3
v -0.1 0.1 0.3
v 0.9 0.1 0.2
v 0.8 0.1 0.2
v 0.9 0.1 0.4
v 0 0.1 0.2
v -0.1 0.1 0.2
v -0.9 0.1 0.2
v -1 0.1 0.2
v -1 0.1 0.4
v 0 0.1 0.1
v -0.1 0.1 0.1
v 0.9 0.1 0
v 0.8 0.1 0
v 0.8 0.1 0.1
v 0.9 0.1 0.1
v 0.7 0.1 0
v 0.7 0.1 0.1
v 0.6 0.1 0
v 0.6 0.1 0.1
v 0.5 0.1 0
v 0.5 0.1 0.1
v 0.4 0.1 0
v 0.4 0.1 0.1
v 0.3 0.1 0
v 0.3 0.1 0.1
v 0.2 0.1 0
v 0.2 0.1 0.1
v 0.1 0.1 0
v 0.1 0.1 0.1
v 0 0.1 0
v -0.1 0.1 0
v -0.2 0.1 0
v -0.2 0.1 0.1
v -0.3 0.1 0
v -0.3 0.1 0.1
v -0.4 0.1 0
v -0.4 0.1 0.1
v -0.5 0.1 0
v -0.5 0.1 0.1
v -0.6 0.1 0
v -0.6 0.1 0.1
v -0.7 0.1 0
v -0.7 0.1 0.1
v -0.8 0.1 0
v -0.8 0.1 0.1
v -0.9 0.1 0
v -0.9 0.1 0.1
v -1 0.1 0
v -1 0.1 0.1
v 1 0.1 -0.1
v 0.9 0.1 -0.1
v 1 0.1 0.2
v 0 0.1 -0.1
v -0.1 0.1 -0.1
v -1 0.1 -0.1
v -1.1 0.1 -0.1
v -1.1 0.1 0.2
v 0 0.1 -0.2
v -0.1 0.1 -0.2
v 0.9 0.1 -0.3
v 0.8 0.1 -0.3
v 0.8 0.1 -0.1
v 0 0.1 -0.3
v -0.1 0.1 -0.3
v -0.9 0.1 -0.3
v -1 0.1 -0.3
v -0.9 0.1 -0.1
v 0 0.1 -0.4
v -0.1 0.1 -0.4
v 0.8 0.1 -0.5
v 0.7 0.1 -0.5
v 0.7 0.1 -0.3
v 0 0.1 -0.5
v -0.1 0.1 -0.5
v -0.8 0.1 -0.5
v -0.9 0.1 -0.5
v -0.8 0.1 -0.3
v 0.7 0.1 -0.6
v 0.6 0.1 -0.6
v 0.6 0.1 -0.5
v 0 0.1 -0.6
v -0.1 0.1 -0.6
v -0.7 0.1 -0.6
v -0.8 0.1 -0.6
v -0.7 0.1 -0.5
v 0.6 0.1 -0.7
v 0.5 0.1 -0.7
v 0.5 0.1 -0.6
v 0 0.1 -0.7
v -0.1 0.1 -0.7
v -0.6 0.1 -0.7
v -0.7 0.1 -0.7
v -0.6 0.1 -0.6
v 0.5 0.1 -0.8
v 0.3 0.1 -0.8
v 0.3 0.1 -0.7
v 0 0.1 -0.8
v -0.1 0.1 -0.8
v -0.4 0.1 -0.8
v -0.6 0.1 -0.8
v -0.4 0.1 -0.7
v 0.3 0.1 -0.9
v 0.1 0.1 -0.9
v 0.1 0.1 -0.8
v 0 0.1 -0.9
v -0.1 0.1 -0.9
v -0.2 0.1 -0.9
v -0.4 0.1 -0.9
v -0.2 0.1 -0.8
v 0.1 0.1 -1
v -0.2 0.1 -1
v 0.1 0 1
v 0.1 0 1.1
v -0.2 0 1.1
v -0.2 0 1
v 0.3 0 0.9
v 0.3 0 1
v 0.1 0 0.9
v 0 0 0.9
v 0 0 1
v -0.1 0 1
v -0.1 0 0.9
v -0.2 0 0.9
v -0.4 0 1
v -0.4 0 0.9
v 0.5 0 0.8
v 0.5 0 0.9
v 0.3 0 0.8
v 0 0 0.8
v -0.1 0 0.8
v -0.4 0 0.8
v -0.6 0 0.9
v -0.6 0 0.8
v 0.6 0 0.7
v 0.6 0 0.8
v 0.5 0 0.7
v 0 0 0.7
v -0.1 0 0.7
v -0.6 0 0.7
v -0.7 0 0.8
v -0.7 0 0.7
v 0.7 0 0.6
v 0.7 0 0.7
v 0.6 0 0.6
v 0 0 0.6
v -0.1 0 0.6
v -0.7 0 0.6
v -0.8 0 0.7
v -0.8 0 0.6
v 0 0 0.5
v -0.1 0 0.5
v 0.8 0 0.4
v 0.8 0 0.6
v 0.7 0 0.4
v 0 0 0.4
v -0.1 0 0.4
v -0.8 0 0.4
v -0.9 0 0.6
v -0.9 0 0.4
v 0 0 0.3
v -0.1 0 0.3
v 0.9 0 0.2
v 0.9 0 0.4
v 0.8 0 0.2
v 0 0 0.2
v -0.1 0 0.2
v -0.9 0 0.2
v -1 0 0.4
v -1 0 0.2
v 0 0 0.1
v -0.1 0 0.1
v 0.9 0 0
v 0.9 0 0.1
v 0.8 0 0.1
v 0.8 0 0
v 0.7 0 0.1
v 0.7 0 0
v 0.6 0 0.1
v 0.6 0 0
v 0.5 0 0.1
v 0.5 0 0
v 0.4 0 0.1
v 0.4 0 0
v 0.3 0 0.1
v 0.3 0 0
v 0.2 0 0.1
v 0.2 0 0
v 0.1 0 0.1
v 0.1 0 0
v 0 0 0
v -0.1 0 0
v -0.2 0 0.1
v -0.2 0 0
v -0.3 0 0.1
v -0.3 0 0
v -0.4 0 0.1
v -0.4 0 0
v -0.5 0 0.1
v -0.5 0 0
v -0.6 0 0.1
v -0.6 0 0
v -0.7 0 0.1
v -0.7 0 0
v -0.8 0 0.1
v -0.8 0 0
v -0.9 0 0.1
v -0.9 0 0
v -1 0 0.1
v -1 0 0
v 1 0 -0.1
v 1 0 0.2
v 0.9 0 -0.1
v 0 0 -0.1
v -0.1 0 -0.1
v -1 0 -0.1
v -1.1 0 0.2
v -1.1 0 -0.1
v 0 0 -0.2
v -0.1 0 -0.2
v 0.9 0 -0.3
v 0.8 0 -0.1
v 0.8 0 -0.3
v 0 0 -0.3
v -0.1 0 -0.3
v -0.9 0 -0.3
v -0.9 0 -0.1
v -1 0 -0.3
v 0 0 -0.4
v -0.1 0 -0.4
v 0.8 0 -0.5
v 0.7 0 -0.3
v 0.7 0 -0.5
v 0 0 -0.5
v -0.1 0 -0.5
v -0.8 0 -0.5
v -0.8 0 -0.3
v -0.9 0 -0.5
v 0.7 0 -0.6
v 0.6 0 -0.5
v 0.6 0 -0.6
v 0 0 -0.6
v -0.1 0 -0.6
v -0.7 0 -0.6
v -0.7 0 -0.5
v -0.8 0 -0.6
v 0.6 0 -0.7
v 0.5 0 -0.6
v 0.5 0 -0.7
v 0 0 -0.7
v -0.1 0 -0.7
v -0.6 0 -0.7
v -0.6 0 -0.6
v -0.7 0 -0.7
v 0.5 0 -0.8
v 0.3 0 -0.7
v 0.3 0 -0.8
v 0 0 -0.8
v -0.1 0 -0.8
v -0.4 0 -0.8
v -0.4 0 -0.7
v -0.6 0 -0.8
v 0.3 0 -0.9
v 0.1 0 -0.8
v 0.1 0 -0.9
v 0 0 -0.9
v -0.1 0 -0.9
v -0.2 0 -0.9
v -0.2 0 -0.8
v -0.4 0 -0.9
v 0.1 0 -1
v -0.2 0 -1

vt 0.00976563 0.5
vt 0.0292969 0.5

vn 0 1 0
vn 0 -1 0
vn -1 0 0
vn 1 0 0
vn 0 0 -1
vn 0 0 1

usemtl palette
f 1/1/1 2/1/1 4/1/1
f 4/1/1 2/1/1 3/1/1
f 5/2/1 6/2/1 7/2/1
f 7/2/1 6/2/1 1/2/1
f 8/2/1 9/2/1 11/2/1
f 11/2/1 9/2/1 10/2/1
f 12/2/1 13/2/1 2/2/1
f 2/2/1 13/2/1 14/2/1
f 15/2/1 16/2/1 17/2/1
f 17/2/1 16/2/1 5/2/1
f 18/1/1 19/1/1 8/1/1
f 8/1/1 19/1/1 9/1/1
f 20/2/1 21/2/1 13/2/1
f 13/2/1 21/2/1 22/2/1
f 23/2/1 24/2/1 25/2/1
f 25/2/1 24/2/1 15/2/1
f 26/2/1 27/2/1 18/2/1
f 18/2/1 27/2/1 19/2/1
f 28/2/1 29/2/1 21/2/1
f 21/2/1 29/2/1 30/2/1
f 31/2/1 32/2/1 33/2/1
f 33/2/1 32/2/1 23/2/1
f 34/1/1 35/1/1 26/1/1
f 26/1/1 35/1/1 27/1/1
f 36/2/1 37/2/1 29/2/1
f 29/2/1 37/2/1 38/2/1
f 39/2/1 40/2/1 34/2/1
f 34/2/1 40/2/1 35/2/1
f 41/2/1 42/2/1 43/2/1
f 43/2/1 42/2/1 31/2/1
f 44/1/1 45/1/1 39/1/1
f 39/1/1 45/1/1 40/1/1
f 46/2/1 47/2/1 37/2/1
f 37/2/1 47/2/1 48/2/1
f 49/2/1 50/2/1 44/2/1
f 44/2/1 50/2/1 45/2/1
f 51/2/1 52/2/1 53/2/1
f 53/2/1 52/2/1 41/2/1
f 54/1/1 55/1/1 49/1/1
f 49/1/1 55/1/1 50/1/1
f 56/2/1 57/2/1 47/2/1
f 47/2/1 57/2/1 58/2/1
f 59/2/1 60/2/1 54/2/1
f 54/2/1 60/2/1 55/2/1
f 61/2/1 62/2/1 64/2/1
f 64/2/1 62/2/1 63/2/1
f 62/1/1 65/1/1 63/1/1
f 63/1/1 65/1/1 66/1/1
f 65/2/1 67/2/1 66/2/1
f 66/2/1 67/2/1 68/2/1
f 67/1/1 69/1/1 68/1/1
f 68/1/1 69/1/1 70/1/1
f 69/2/1 71/2/1 70/2/1
f 70/2/1 71/2/1 72/2/1
f 71/1/1 73/1/1 72/1/1
f 72/1/1 73/1/1 74/1/1
f 73/2/1 75/2/1 74/2/1
f 74/2/1 75/2/1 76/2/1
f 75/1/1 77/1/1 76/1/1
f 76/1/1 77/1/1 78/1/1
f 77/2/1 79/2/1 78/2/1
f 78/2/1 79/2/1 59/2/1
f 79/1/1 80/1/1 59/1/1
f 59/1/1 80/1/1 60/1/1
f 80/2/1 81/2/1 60/2/1
f 60/2/1 81/2/1 82/2/1
f 81/1/1 83/1/1 82/1/1
f 82/1/1 83/1/1 84/1/1
f 83/2/1 85/2/1 84/2/1
f 84/2/1 85/2/1 86/2/1
f 85/1/1 87/1/1 86/1/1
f 86/1/1 87/1/1 88/1/1
f 87/2/1 89/2/1 88/2/1
f 88/2/1 89/2/1 90/2/1
f 89/1/1 91/1/1 90/1/1
f 90/1/1 91/1/1 92/1/1
f 91/2/1 93/2/1 92/2/1
f 92/2/1 93/2/1 94/2/1
f 93/1/1 95/1/1 94/1/1
f 94/1/1 95/1/1 96/1/1
f 95/2/1 97/2/1 96/2/1
f 96/2/1 97/2/1 98/2/1
f 99/1/1 100/1/1 101/1/1
f 101/1/1 100/1/1 51/1/1
f 102/2/1 103/2/1 79/2/1
f 79/2/1 103/2/1 80/2/1
f 104/1/1 105/1/1 57/1/1
f 57/1/1 105/1/1 106/1/1
f 107/1/1 108/1/1 102/1/1
f 102/1/1 108/1/1 103/1/1
f 109/2/1 110/2/1 100/2/1
f 100/2/1 110/2/1 111/2/1
f 112/2/1 113/2/1 107/2/1
f 107/2/1 113/2/1 108/2/1
f 114/2/1 115/2/1 116/2/1
f 116/2/1 115/2/1 104/2/1
f 117/1/1 118/1/1 112/1/1
f 112/1/1 118/1/1 113/1/1
f 119/2/1 120/2/1 110/2/1
f 110/2/1 120/2/1 121/2/1
f 122/2/1 123/2/1 117/2/1
f 117/2/1 123/2/1 118/2/1
f 124/2/1 125/2/1 126/2/1
f 126/2/1 125/2/1 114/2/1
f 127/2/1 128/2/1 120/2/1
f 120/2/1 128/2/1 129/2/1
f 130/1/1 131/1/1 122/1/1
f 122/1/1 131/1/1 123/1/1
f 132/2/1 133/2/1 134/2/1
f 134/2/1 133/2/1 124/2/1
f 135/2/1 136/2/1 128/2/1
f 128/2/1 136/2/1 137/2/1
f 138/2/1 139/2/1 130/2/1
f 130/2/1 139/2/1 131/2/1
f 140/2/1 141/2/1 142/2/1
f 142/2/1 141/2/1 132/2/1
f 143/2/1 144/2/1 136/2/1
f 136/2/1 144/2/1 145/2/1
f 146/1/1 147/1/1 138/1/1
f 138/1/1 147/1/1 139/1/1
f 148/2/1 149/2/1 150/2/1
f 150/2/1 149/2/1 140/2/1
f 151/2/1 152/2/1 144/2/1
f 144/2/1 152/2/1 153/2/1
f 154/2/1 155/2/1 146/2/1
f 146/2/1 155/2/1 147/2/1
f 156/2/1 157/2/1 158/2/1
f 158/2/1 157/2/1 148/2/1
f 159/1/1 160/1/1 152/1/1
f 152/1/1 160/1/1 156/1/1
f 161/1/2 162/1/2 164/1/2
f 164/1/2 162/1/2 163/1/2
f 165/2/2 166/2/2 167/2/2
f 167/2/2 166/2/2 161/2/2
f 168/2/2 169/2/2 171/2/2
f 171/2/2 169/2/2 170/2/2
f 172/2/2 164/2/2 174/2/2
f 174/2/2 164/2/2 173/2/2
f 175/2/2 176/2/2 177/2/2
f 177/2/2 176/2/2 165/2/2
f 178/1/2 168/1/2 179/1/2
f 179/1/2 168/1/2 171/1/2
f 180/2/2 174/2/2 182/2/2
f 182/2/2 174/2/2 181/2/2
f 183/2/2 184/2/2 185/2/2
f 185/2/2 184/2/2 175/2/2
f 186/2/2 178/2/2 187/2/2
f 187/2/2 178/2/2 179/2/2
f 188/2/2 182/2/2 190/2/2
f 190/2/2 182/2/2 189/2/2
f 191/2/2 192/2/2 193/2/2
f 193/2/2 192/2/2 183/2/2
f 194/1/2 186/1/2 195/1/2
f 195/1/2 186/1/2 187/1/2
f 196/2/2 190/2/2 198/2/2
f 198/2/2 190/2/2 197/2/2
f 199/2/2 194/2/2 200/2/2
f 200/2/2 194/2/2 195/2/2
f 201/2/2 202/2/2 203/2/2
f 203/2/2 202/2/2 191/2/2
f 204/1/2 199/1/2 205/1/2
f 205/1/2 199/1/2 200/1/2
f 206/2/2 198/2/2 208/2/2
f 208/2/2 198/2/2 207/2/2
f 209/2/2 204/2/2 210/2/2
f 210/2/2 204/2/2 205/2/2
f 211/2/2 212/2/2 213/2/2
f 213/2/2 212/2/2 201/2/2
f 214/1/2 209/1/2 215/1/2
f 215/1/2 209/1/2 210/1/2
f 216/2/2 208/2/2 218/2/2
f 218/2/2 208/2/2 217/2/2
f 219/2/2 214/2/2 220/2/2
f 220/2/2 214/2/2 215/2/2
f 221/2/2 222/2/2 224/2/2
f 224/2/2 222/2/2 223/2/2
f 224/1/2 223/1/2 226/1/2
f 226/1/2 223/1/2 225/1/2
f 226/2/2 225/2/2 228/2/2
f 228/2/2 225/2/2 227/2/2
f 228/1/2 227/1/2 230/1/2
f 230/1/2 227/1/2 229/1/2
f 230/2/2 229/2/2 232/2/2
f 232/2/2 229/2/2 231/2/2
f 232/1/2 231/1/2 234/1/2
f 234/1/2 231/1/2 233/1/2
f 234/2/2 233/2/2 236/2/2
f 236/2/2 233/2/2 235/2/2
f 236/1/2 235/1/2 238/1/2
f 238/1/2 235/1/2 237/1/2
f 238/2/2 237/2/2 239/2/2
f 239/2/2 237/2/2 219/2/2
f 239/1/2 219/1/2 240/1/2
f 240/1/2 219/1/2 220/1/2
f 240/2/2 220/2/2 242/2/2
f 242/2/2 220/2/2 241/2/2
f 242/1/2 241/1/2 244/1/2
f 244/1/2 241/1/2 243/1/2
f 244/2/2 243/2/2 246/2/2
f 246/2/2 243/2/2 245/2/2
f 246/1/2 245/1/2 248/1/2
f 248/1/2 245/1/2 247/1/2
f 248/2/2 247/2/2 250/2/2
f 250/2/2 247/2/2 249/2/2
f 250/1/2 249/1/2 252/1/2
f 252/1/2 249/1/2 251/1/2
f 252/2/2 251/2/2 254/2/2
f 254/2/2 251/2/2 253/2/2
f 254/1/2 253/1/2 256/1/2
f 256/1/2 253/1/2 255/1/2
f 256/2/2 255/2/2 258/2/2
f 258/2/2 255/2/2 257/2/2
f 259/1/2 260/1/2 261/1/2
f 261/1/2 260/1/2 211/1/2
f 262/2/2 239/2/2 263/2/2
f 263/2/2 239/2/2 240/2/2
f 264/1/2 218/1/2 266/1/2
f 266/1/2 218/1/2 265/1/2
f 267/1/2 262/1/2 268/1/2
f 268/1/2 262/1/2 263/1/2
f 269/2/2 261/2/2 271/2/2
f 271/2/2 261/2/2 270/2/2
f 272/2/2 267/2/2 273/2/2
f 273/2/2 267/2/2 268/2/2
f 274/2/2 275/2/2 276/2/2
f 276/2/2 275/2/2 264/2/2
f 277/1/2 272/1/2 278/1/2
f 278/1/2 272/1/2 273/1/2
f 279/2/2 271/2/2 281/2/2
f 281/2/2 271/2/2 280/2/2
f 282/2/2 277/2/2 283/2/2
f 283/2/2 277/2/2 278/2/2
f 284/2/2 285/2/2 286/2/2
f 286/2/2 285/2/2 274/2/2
f 287/2/2 281/2/2 289/2/2
f 289/2/2 281/2/2 288/2/2
f 290/1/2 282/1/2 291/1/2
f 291/1/2 282/1/2 283/1/2
f 292/2/2 293/2/2 294/2/2
f 294/2/2 293/2/2 284/2/2
f 295/2/2 289/2/2 297/2/2
f 297/2/2 289/2/2 296/2/2
f 298/2/2 290/2/2 299/2/2
f 299/2/2 290/2/2 291/2/2
f 300/2/2 301/2/2 302/2/2
f 302/2/2 301/2/2 292/2/2
f 303/2/2 297/2/2 305/2/2
f 305/2/2 297/2/2 304/2/2
f 306/1/2 298/1/2 307/1/2
f 307/1/2 298/1/2 299/1/2
f 308/2/2 309/2/2 310/2/2
f 310/2/2 309/2/2 300/2/2
f 311/2/2 305/2/2 313/2/2
f 313/2/2 305/2/2 312/2/2
f 314/2/2 306/2/2 315/2/2
f 315/2/2 306/2/2 307/2/2
f 316/2/2 317/2/2 318/2/2
f 318/2/2 317/2/2 308/2/2
f 319/1/2 313/1/2 320/1/2
f 320/1/2 313/1/2 316/1/2
f 3/1/3 2/1/3 163/1/3
f 163/1/3 2/1/3 164/1/3
f 1/2/3 6/2/3 161/2/3
f 161/2/3 6/2/3 167/2/3
f 10/2/3 9/2/3 170/2/3
f 170/2/3 9/2/3 171/2/3
f 14/2/3 13/2/3 173/2/3
f 173/2/3 13/2/3 174/2/3
f 5/2/3 16/2/3 165/2/3
f 165/2/3 16/2/3 177/2/3
f 9/1/3 19/1/3 171/1/3
f 171/1/3 19/1/3 179/1/3
f 22/2/3 21/2/3 181/2/3
f 181/2/3 21/2/3 182/2/3
f 15/2/3 24/2/3 175/2/3
f 175/2/3 24/2/3 185/2/3
f 19/2/3 27/2/3 179/2/3
f 179/2/3 27/2/3 187/2/3
f 30/2/3 29/2/3 189/2/3
f 189/2/3 29/2/3 190/2/3
f 23/2/3 32/2/3 183/2/3
f 183/2/3 32/2/3 193/2/3
f 27/1/3 35/1/3 187/1/3
f 187/1/3 35/1/3 195/1/3
f 38/2/3 37/2/3 197/2/3
f 197/2/3 37/2/3 198/2/3
f 35/2/3 40/2/3 195/2/3
f 195/2/3 40/2/3 200/2/3
f 31/2/3 42/2/3 191/2/3
f 191/2/3 42/2/3 203/2/3
f 40/1/3 45/1/3 200/1/3
f 200/1/3 45/1/3 205/1/3
f 48/2/3 47/2/3 207/2/3
f 207/2/3 47/2/3 208/2/3
f 45/2/3 50/2/3 205/2/3
f 205/2/3 50/2/3 210/2/3
f 41/2/3 52/2/3 201/2/3
f 201/2/3 52/2/3 213/2/3
f 50/1/3 55/1/3 210/1/3
f 210/1/3 55/1/3 215/1/3
f 58/2/3 57/2/3 217/2/3
f 217/2/3 57/2/3 218/2/3
f 51/1/3 64/1/3 211/1/3
f 211/1/3 64/1/3 222/1/3
f 55/2/3 60/2/3 215/2/3
f 215/2/3 60/2/3 220/2/3
f 61/1/3 100/1/3 221/1/3
f 221/1/3 100/1/3 261/1/3
f 80/2/3 103/2/3 240/2/3
f 240/2/3 103/2/3 263/2/3
f 106/1/3 105/1/3 265/1/3
f 265/1/3 105/1/3 266/1/3
f 103/1/3 108/1/3 263/1/3
f 263/1/3 108/1/3 268/1/3
f 111/2/3 110/2/3 270/2/3
f 270/2/3 110/2/3 271/2/3
f 108/2/3 113/2/3 268/2/3
f 268/2/3 113/2/3 273/2/3
f 104/2/3 115/2/3 264/2/3
f 264/2/3 115/2/3 276/2/3
f 113/1/3 118/1/3 273/1/3
f 273/1/3 118/1/3 278/1/3
f 121/2/3 120/2/3 280/2/3
f 280/2/3 120/2/3 281/2/3
f 118/2/3 123/2/3 278/2/3
f 278/2/3 123/2/3 283/2/3
f 114/2/3 125/2/3 274/2/3
f 274/2/3 125/2/3 286/2/3
f 129/2/3 128/2/3 288/2/3
f 288/2/3 128/2/3 289/2/3
f 123/1/3 131/1/3 283/1/3
f 283/1/3 131/1/3 291/1/3
f 124/2/3 133/2/3 284/2/3
f 284/2/3 133/2/3 294/2/3
f 137/2/3 136/2/3 296/2/3
f 296/2/3 136/2/3 297/2/3
f 131/2/3 139/2/3 291/2/3
f 291/2/3 139/2/3 299/2/3
f 132/2/3 141/2/3 292/2/3
f 292/2/3 141/2/3 302/2/3
f 145/2/3 144/2/3 304/2/3
f 304/2/3 144/2/3 305/2/3
f 139/1/3 147/1/3 299/1/3
f 299/1/3 147/1/3 307/1/3
f 140/2/3 149/2/3 300/2/3
f 300/2/3 149/2/3 310/2/3
f 153/2/3 152/2/3 312/2/3
f 312/2/3 152/2/3 313/2/3
f 147/2/3 155/2/3 307/2/3
f 307/2/3 155/2/3 315/2/3
f 148/2/3 157/2/3 308/2/3
f 308/2/3 157/2/3 318/2/3
f 156/1/3 160/1/3 316/1/3
f 316/1/3 160/1/3 320/1/3
f 4/1/4 162/1/4 1/1/4
f 1/1/4 162/1/4 161/1/4
f 7/2/4 166/2/4 5/2/4
f 5/2/4 166/2/4 165/2/4
f 11/2/4 169/2/4 8/2/4
f 8/2/4 169/2/4 168/2/4
f 2/2/4 164/2/4 12/2/4
f 12/2/4 164/2/4 172/2/4
f 17/2/4 176/2/4 15/2/4
f 15/2/4 176/2/4 175/2/4
f 8/1/4 168/1/4 18/1/4
f 18/1/4 168/1/4 178/1/4
f 13/2/4 174/2/4 20/2/4
f 20/2/4 174/2/4 180/2/4
f 25/2/4 184/2/4 23/2/4
f 23/2/4 184/2/4 183/2/4
f 18/2/4 178/2/4 26/2/4
f 26/2/4 178/2/4 186/2/4
f 21/2/4 182/2/4 28/2/4
f 28/2/4 182/2/4 188/2/4
f 33/2/4 192/2/4 31/2/4
f 31/2/4 192/2/4 191/2/4
f 26/1/4 186/1/4 34/1/4
f 34/1/4 186/1/4 194/1/4
f 29/2/4 190/2/4 36/2/4
f 36/2/4 190/2/4 196/2/4
f 34/2/4 194/2/4 39/2/4
f 39/2/4 194/2/4 199/2/4
f 43/2/4 202/2/4 41/2/4
f 41/2/4 202/2/4 201/2/4
f 39/1/4 199/1/4 44/1/4
f 44/1/4 199/1/4 204/1/4
f 37/2/4 198/2/4 46/2/4
f 46/2/4 198/2/4 206/2/4
f 44/2/4 204/2/4 49/2/4
f 49/2/4 204/2/4 209/2/4
f 53/2/4 212/2/4 51/2/4
f 51/2/4 212/2/4 211/2/4
f 49/1/4 209/1/4 54/1/4
f 54/1/4 209/1/4 214/1/4
f 47/2/4 208/2/4 56/2/4
f 56/2/4 208/2/4 216/2/4
f 54/2/4 214/2/4 59/2/4
f 59/2/4 214/2/4 219/2/4
f 57/1/4 218/1/4 98/1/4
f 98/1/4 218/1/4 257/1/4
f 101/1/4 260/1/4 99/1/4
f 99/1/4 260/1/4 259/1/4
f 79/2/4 239/2/4 102/2/4
f 102/2/4 239/2/4 262/2/4
f 97/1/4 258/1/4 104/1/4
f 104/1/4 258/1/4 264/1/4
f 102/1/4 262/1/4 107/1/4
f 107/1/4 262/1/4 267/1/4
f 100/2/4 261/2/4 109/2/4
f 109/2/4 261/2/4 269/2/4
f 107/2/4 267/2/4 112/2/4
f 112/2/4 267/2/4 272/2/4
f 116/2/4 275/2/4 114/2/4
f 114/2/4 275/2/4 274/2/4
f 112/1/4 272/1/4 117/1/4
f 117/1/4 272/1/4 277/1/4
f 110/2/4 271/2/4 119/2/4
f 119/2/4 271/2/4 279/2/4
f 117/2/4 277/2/4 122/2/4
f 122/2/4 277/2/4 282/2/4
f 126/2/4 285/2/4 124/2/4
f 124/2/4 285/2/4 284/2/4
f 120/2/4 281/2/4 127/2/4
f 127/2/4 281/2/4 287/2/4
f 122/1/4 282/1/4 130/1/4
f 130/1/4 282/1/4 290/1/4
f 134/2/4 293/2/4 132/2/4
f 132/2/4 293/2/4 292/2/4
f 128/2/4 289/2/4 135/2/4
f 135/2/4 289/2/4 295/2/4
f 130/2/4 290/2/4 138/2/4
f 138/2/4 290/2/4 298/2/4
f 142/2/4 301/2/4 140/2/4
f 140/2/4 301/2/4 300/2/4
f 136/2/4 297/2/4 143/2/4
f 143/2/4 297/2/4 303/2/4
f 138/1/4 298/1/4 146/1/4
f 146/1/4 298/1/4 306/1/4
f 150/2/4 309/2/4 148/2/4
f 148/2/4 309/2/4 308/2/4
f 144/2/4 305/2/4 151/2/4
f 151/2/4 305/2/4 311/2/4
f 146/2/4 306/2/4 154/2/4
f 154/2/4 306/2/4 314/2/4
f 158/2/4 317/2/4 156/2/4
f 156/2/4 317/2/4 316/2/4
f 152/1/4 313/1/4 159/1/4
f 159/1/4 313/1/4 319/1/4
f 261/1/5 100/1/5 259/1/5
f 259/1/5 100/1/5 99/1/5
f 213/2/5 52/2/5 211/2/5
f 211/2/5 52/2/5 51/2/5
f 224/2/5 62/2/5 221/2/5
f 221/2/5 62/2/5 61/2/5
f 271/2/5 110/2/5 269/2/5
f 269/2/5 110/2/5 109/2/5
f 203/2/5 42/2/5 201/2/5
f 201/2/5 42/2/5 41/2/5
f 226/1/5 65/1/5 224/1/5
f 224/1/5 65/1/5 62/1/5
f 281/2/5 120/2/5 279/2/5
f 279/2/5 120/2/5 119/2/5
f 193/2/5 32/2/5 191/2/5
f 191/2/5 32/2/5 31/2/5
f 228/2/5 67/2/5 226/2/5
f 226/2/5 67/2/5 65/2/5
f 289/2/5 128/2/5 287/2/5
f 287/2/5 128/2/5 127/2/5
f 185/2/5 24/2/5 183/2/5
f 183/2/5 24/2/5 23/2/5
f 230/1/5 69/1/5 228/1/5
f 228/1/5 69/1/5 67/1/5
f 297/2/5 136/2/5 295/2/5
f 295/2/5 136/2/5 135/2/5
f 232/2/5 71/2/5 230/2/5
f 230/2/5 71/2/5 69/2/5
f 177/2/5 16/2/5 175/2/5
f 175/2/5 16/2/5 15/2/5
f 234/1/5 73/1/5 232/1/5
f 232/1/5 73/1/5 71/1/5
f 305/2/5 144/2/5 303/2/5
f 303/2/5 144/2/5 143/2/5
f 236/2/5 75/2/5 234/2/5
f 234/2/5 75/2/5 73/2/5
f 167/2/5 6/2/5 165/2/5
f 165/2/5 6/2/5 5/2/5
f 238/1/5 77/1/5 236/1/5
f 236/1/5 77/1/5 75/1/5
f 313/2/5 152/2/5 311/2/5
f 311/2/5 152/2/5 151/2/5
f 169/1/5 11/1/5 161/1/5
f 161/1/5 11/1/5 1/1/5
f 239/2/5 79/2/5 238/2/5
f 238/2/5 79/2/5 77/2/5
f 164/1/5 2/1/5 170/1/5
f 170/1/5 2/1/5 10/1/5
f 242/2/5 81/2/5 240/2/5
f 240/2/5 81/2/5 80/2/5
f 320/1/5 160/1/5 319/1/5
f 319/1/5 160/1/5 159/1/5
f 244/1/5 83/1/5 242/1/5
f 242/1/5 83/1/5 81/1/5
f 174/2/5 13/2/5 172/2/5
f 172/2/5 13/2/5 12/2/5
f 246/2/5 85/2/5 244/2/5
f 244/2/5 85/2/5 83/2/5
f 318/2/5 157/2/5 316/2/5
f 316/2/5 157/2/5 156/2/5
f 248/1/5 87/1/5 246/1/5
f 246/1/5 87/1/5 85/1/5
f 182/2/5 21/2/5 180/2/5
f 180/2/5 21/2/5 20/2/5
f 250/2/5 89/2/5 248/2/5
f 248/2/5 89/2/5 87/2/5
f 310/2/5 149/2/5 308/2/5
f 308/2/5 149/2/5 148/2/5
f 190/2/5 29/2/5 188/2/5
f 188/2/5 29/2/5 28/2/5
f 252/1/5 91/1/5 250/1/5
f 250/1/5 91/1/5 89/1/5
f 302/2/5 141/2/5 300/2/5
f 300/2/5 141/2/5 140/2/5
f 198/2/5 37/2/5 196/2/5
f 196/2/5 37/2/5 36/2/5
f 254/2/5 93/2/5 252/2/5
f 252/2/5 93/2/5 91/2/5
f 294/2/5 133/2/5 292/2/5
f 292/2/5 133/2/5 132/2/5
f 208/2/5 47/2/5 206/2/5
f 206/2/5 47/2/5 46/2/5
f 256/1/5 95/1/5 254/1/5
f 254/1/5 95/1/5 93/1/5
f 286/2/5 125/2/5 284/2/5
f 284/2/5 125/2/5 124/2/5
f 218/2/5 57/2/5 216/2/5
f 216/2/5 57/2/5 56/2/5
f 258/2/5 97/2/5 256/2/5
f 256/2/5 97/2/5 95/2/5
f 276/2/5 115/2/5 274/2/5
f 274/2/5 115/2/5 114/2/5
f 266/1/5 105/1/5 264/1/5
f 264/1/5 105/1/5 104/1/5
f 211/1/6 260/1/6 51/1/6
f 51/1/6 260/1/6 101/1/6
f 201/2/6 212/2/6 41/2/6
f 41/2/6 212/2/6 53/2/6
f 223/2/6 222/2/6 63/2/6
f 63/2/6 222/2/6 64/2/6
f 270/2/6 261/2/6 111/2/6
f 111/2/6 261/2/6 100/2/6
f 191/2/6 202/2/6 31/2/6
f 31/2/6 202/2/6 43/2/6
f 225/1/6 223/1/6 66/1/6
f 66/1/6 223/1/6 63/1/6
f 280/2/6 271/2/6 121/2/6
f 121/2/6 271/2/6 110/2/6
f 183/2/6 192/2/6 23/2/6
f 23/2/6 192/2/6 33/2/6
f 227/2/6 225/2/6 68/2/6
f 68/2/6 225/2/6 66/2/6
f 288/2/6 281/2/6 129/2/6
f 129/2/6 281/2/6 120/2/6
f 175/2/6 184/2/6 15/2/6
f 15/2/6 184/2/6 25/2/6
f 229/1/6 227/1/6 70/1/6
f 70/1/6 227/1/6 68/1/6
f 296/2/6 289/2/6 137/2/6
f 137/2/6 289/2/6 128/2/6
f 231/2/6 229/2/6 72/2/6
f 72/2/6 229/2/6 70/2/6
f 165/2/6 176/2/6 5/2/6
f 5/2/6 176/2/6 17/2/6
f 233/1/6 231/1/6 74/1/6
f 74/1/6 231/1/6 72/1/6
f 304/2/6 297/2/6 145/2/6
f 145/2/6 297/2/6 136/2/6
f 235/2/6 233/2/6 76/2/6
f 76/2/6 233/2/6 74/2/6
f 161/2/6 166/2/6 1/2/6
f 1/2/6 166/2/6 7/2/6
f 237/1/6 235/1/6 78/1/6
f 78/1/6 235/1/6 76/1/6
f 312/2/6 305/2/6 153/2/6
f 153/2/6 305/2/6 144/2/6
f 219/2/6 237/2/6 59/2/6
f 59/2/6 237/2/6 78/2/6
f 314/1/6 313/1/6 154/1/6
f 154/1/6 313/1/6 152/1/6
f 163/1/6 162/1/6 3/1/6
f 3/1/6 162/1/6 4/1/6
f 241/2/6 220/2/6 82/2/6
f 82/2/6 220/2/6 60/2/6
f 316/1/6 315/1/6 156/1/6
f 156/1/6 315/1/6 155/1/6
f 243/1/6 241/1/6 84/1/6
f 84/1/6 241/1/6 82/1/6
f 173/2/6 164/2/6 14/2/6
f 14/2/6 164/2/6 2/2/6
f 245/2/6 243/2/6 86/2/6
f 86/2/6 243/2/6 84/2/6
f 308/2/6 317/2/6 148/2/6
f 148/2/6 317/2/6 158/2/6
f 247/1/6 245/1/6 88/1/6
f 88/1/6 245/1/6 86/1/6
f 181/2/6 174/2/6 22/2/6
f 22/2/6 174/2/6 13/2/6
f 249/2/6 247/2/6 90/2/6
f 90/2/6 247/2/6 88/2/6
f 300/2/6 309/2/6 140/2/6
f 140/2/6 309/2/6 150/2/6
f 189/2/6 182/2/6 30/2/6
f 30/2/6 182/2/6 21/2/6
f 251/1/6 249/1/6 92/1/6
f 92/1/6 249/1/6 90/1/6
f 292/2/6 301/2/6 132/2/6
f 132/2/6 301/2/6 142/2/6
f 197/2/6 190/2/6 38/2/6
f 38/2/6 190/2/6 29/2/6
f 253/2/6 251/2/6 94/2/6
f 94/2/6 251/2/6 92/2/6
f 284/2/6 293/2/6 124/2/6
f 124/2/6 293/2/6 134/2/6
f 207/2/6 198/2/6 48/2/6
f 48/2/6 198/2/6 37/2/6
f 255/1/6 253/1/6 96/1/6
f 96/1/6 253/1/6 94/1/6
f 274/2/6 285/2/6 114/2/6
f 114/2/6 285/2/6 126/2/6
f 217/2/6 208/2/6 58/2/6
f 58/2/6 208/2/6 47/2/6
f 257/2/6 255/2/6 98/2/6
f 98/2/6 255/2/6 96/2/6
f 264/2/6 275/2/6 104/2/6
f 104/2/6 275/2/6 116/2/6
f 265/1/6 218/1/6 106/1/6
f 106/1/6 218/1/6 57/1/6
