# Vengi binary mesh normalized for Tanks of Freedom II

mtllib ../../materials/vox_grass.mtl
o log_1_overtile

v 1.9 0.1 1
v 1.8 0.1 1
v 1.8 0.1 1.1
v 1.9 0.1 1.1
v 2 0.1 0.8
v 1.9 0.1 0.8
v 1.9 0.1 0.9
v 2 0.1 0.9
v 1.6 0.1 0.8
v 1.5 0.1 0.8
v 1.5 0.1 0.9
v 1.6 0.1 0.9
v 2.2 0.2 0.7
v 2.1 0.2 0.7
v 2.1 0.2 0.8
v 2.2 0.2 0.8
v 2 0.1 0.7
v 1.9 0.1 0.7
v 1.8 0.2 0.7
v 1.7 0.2 0.7
v 1.7 0.2 0.9
v 1.8 0.2 0.9
v 1.9 0.2 0.6
v 1.8 0.2 0.6
v 1.9 0.2 0.9
v 1.7 0.2 0.6
v 1.5 0.2 0.6
v 1.4 0.2 0.6
v 1.4 0.2 0.7
v 1.5 0.2 0.7
v 1.1 0.2 0.6
v 1 0.2 0.6
v 1 0.2 0.7
v 1.1 0.2 0.7
v 0.8 0.1 0.6
v 0.7 0.1 0.6
v 0.7 0.1 0.7
v 0.8 0.1 0.7
v 1.9 0.2 0.4
v 1.8 0.2 0.4
v 1.7 0.1 0.4
v 1.6 0.1 0.4
v 1.7 0.1 0.9
v 1.5 0.1 0.4
v 1.5 0.1 0.5
v 1.6 0.1 0.5
v 2.1 0.2 0.3
v 2 0.2 0.3
v 2 0.2 0.4
v 2.1 0.2 0.4
v 2 0.1 0.3
v 1.9 0.1 0.3
v 1.2 0.1 0.3
v 1 0.1 0.3
v 1 0.1 0.5
v 1.2 0.1 0.5
v 0.9 0.1 0.3
v 0.8 0.1 0.3
v 0.8 0.1 0.4
v 0.9 0.1 0.4
v 2 0.1 0.2
v 1.9 0.1 0.2
v 1 0.1 0.2
v 0.9 0.1 0.2
v 2.2 0.1 0.1
v 2.1 0.1 0.1
v 2.1 0.1 0.2
v 2.2 0.1 0.2
v 1.7 0.1 0.1
v 1.6 0.1 0.1
v 1.6 0.2 0.1
v 1.5 0.2 0.1
v 1.5 0.2 0.2
v 1.6 0.2 0.2
v 1.1 0.1 0.1
v 1 0.1 0.1
v 1.1 0.1 0.2
v 0.8 0.1 0.1
v 0.7 0.1 0.1
v 0.7 0.1 0.2
v 0.8 0.1 0.2
v 1.9 0.2 0
v 1.8 0.2 0
v 1.7 0.2 0
v 1.8 0.5 0
v 1.6 0.5 0
v 1.6 0.5 0.2
v 1.8 0.5 0.2
v 1.2 0.1 0
v 1.1 0.1 0
v 1.2 0.1 0.1
v 2.1 0.5 -0.1
v 1.9 0.5 -0.1
v 1.9 0.5 0.1
v 2.1 0.5 0.1
v 1.5 0.1 -0.1
v 1.4 0.1 -0.1
v 1.4 0.1 0
v 1.5 0.1 0
v 1.3 0.1 -0.1
v 1.2 0.1 -0.1
v 1.3 0.1 0
v 2.1 0.1 -0.2
v 2 0.1 -0.2
v 2 0.1 -0.1
v 2.1 0.1 -0.1
v 1.9 0.1 -0.2
v 1.9 0.5 -0.2
v 1.8 0.5 -0.2
v 1.9 0.5 0
v 1 0.2 -0.2
v 0.9 0.2 -0.2
v 0.9 0.2 -0.1
v 1 0.2 -0.1
v 2.2 0.1 -0.3
v 2.1 0.1 -0.3
v 2.2 0.1 -0.2
v 2 0.1 -0.3
v 1.9 0.1 -0.3
v 1.9 0.2 -0.3
v 1.7 0.2 -0.3
v 1.8 0.4 -0.3
v 1.6 0.4 -0.3
v 1.6 0.4 -0.1
v 1.8 0.4 -0.1
v 1.3 0.1 -0.3
v 1.2 0.1 -0.3
v 1.2 0.1 -0.2
v 1.3 0.1 -0.2
v 1.9 0.4 -0.4
v 1.8 0.4 -0.4
v 1.8 0.4 -0.2
v 1.9 0.4 -0.2
v 1.9 0.2 -0.4
v 1.7 0.2 -0.4
v 1.6 0.2 -0.4
v 1.5 0.2 -0.4
v 1.5 0.2 -0.3
v 1.6 0.2 -0.3
v 1.9 0.3 -0.5
v 1.8 0.3 -0.5
v 1.8 0.3 -0.4
v 1.9 0.3 -0.4
v 1.7 0.1 -0.5
v 1.6 0.1 -0.5
v 1.4 0.1 -0.5
v 1.3 0.1 -0.5
v 1.3 0.1 -0.4
v 1.4 0.1 -0.4
v 1.9 0.2 -0.6
v 1.8 0.2 -0.6
v 1.8 0.2 -0.5
v 1.9 0.2 -0.5
v 0.9 0.2 -0.6
v 0.8 0.2 -0.6
v 0.8 0.2 -0.5
v 0.9 0.2 -0.5
v 2.1 0.1 -0.7
v 2 0.1 -0.7
v 2 0.1 -0.6
v 2.1 0.1 -0.6
v 1.7 0.1 -0.7
v 1.6 0.1 -0.7
v 1.5 0.1 -0.7
v 1.5 0.1 -0.6
v 1.6 0.1 -0.6
v 1.3 0.1 -0.7
v 1.2 0.1 -0.7
v 1.2 0.1 -0.6
v 1.3 0.1 -0.6
v 1.1 0.1 -0.7
v 1.1 0.1 -0.6
v 0.7 0.1 -0.7
v 0.6 0.1 -0.7
v 0.6 0.1 -0.6
v 0.7 0.1 -0.6
v 2 0.1 -0.8
v 1.9 0.1 -0.8
v 1.9 0.2 -0.8
v 1.8 0.2 -0.8
v 1.1 0.1 -0.8
v 1 0.1 -0.8
v 1 0.1 -0.7
v 0.9 0.1 -0.8
v 0.9 0.1 -0.7
v 2.2 0.1 -0.9
v 2.1 0.1 -0.9
v 2.1 0.1 -0.8
v 2.2 0.1 -0.8
v 2 0.1 -0.9
v 1.9 0.1 -0.9
v 1.9 0.2 -0.9
v 1.8 0.2 -0.9
v 1.5 0.2 -0.9
v 1.4 0.2 -0.9
v 1.4 0.2 -0.8
v 1.5 0.2 -0.8
v 0.9 0.1 -0.9
v 0.8 0.1 -0.9
v 0.8 0.1 -0.8
v 0.7 0.1 -0.9
v 0.7 0.1 -0.8
v 1.3 0.1 -1
v 1.1 0.1 -1
v 1.3 0.1 -0.8
v 0.6 0.3 -1
v 0.5 0.3 -1
v 0.5 0.3 -0.9
v 0.6 0.3 -0.9
v 1.8 0.2 -1.1
v 1.7 0.2 -1.1
v 1.8 0.2 -0.4
v 1 0.1 -1.1
v 0.8 0.1 -1.1
v 1 0.1 -0.9
v 2.1 0.1 -1.2
v 2 0.1 -1.2
v 2 0.1 -1.1
v 2.1 0.1 -1.1
v 1.9 0.1 -1.2
v 1.8 0.2 -1.2
v 1.7 0.2 -1.2
v 1.7 0.1 -1.2
v 1.6 0.1 -1.2
v 1.5 0.1 -1.2
v 1.5 0.1 -1.1
v 1.6 0.1 -1.1
v 1.2 0.1 -1.2
v 1.1 0.1 -1.2
v 1.1 0.1 -1.1
v 1.2 0.1 -1.1
v 2 0.1 -1.3
v 1.9 0.1 -1.3
v 1.8 0.2 -1.3
v 1.7 0.2 -1.3
v 1.7 0.1 -1.3
v 1.6 0.1 -1.3
v 0.8 0.1 -1.3
v 0.7 0.1 -1.3
v 0.7 0.1 -1.2
v 0.8 0.1 -1.2
v 2.2 0.1 -1.4
v 2.1 0.1 -1.4
v 2.1 0.1 -1.3
v 2.2 0.1 -1.3
v 1.8 0.2 -1.4
v 1.7 0.2 -1.4
v 2 0.1 -1.5
v 1.9 0.1 -1.5
v 1.9 0.2 -1.5
v 1.8 0.2 -1.5
v 1.7 0.2 -1.5
v 1.7 0.1 -1.5
v 1.6 0.1 -1.5
v 1.5 0.1 -1.5
v 1.4 0.1 -1.5
v 1.4 0.1 -1.4
v 1.5 0.1 -1.4
v 2 0.2 -1.6
v 1.9 0.2 -1.6
v 2 0.2 -1.5
v 1.9 0 1
v 1.9 0 1.1
v 1.8 0 1.1
v 1.8 0 1
v 2 0 0.8
v 2 0 0.9
v 1.9 0 0.9
v 1.9 0 0.8
v 1.6 0 0.8
v 1.6 0 0.9
v 1.5 0 0.9
v 1.5 0 0.8
v 2.2 0 0.7
v 2.2 0 0.8
v 2.1 0 0.8
v 2.1 0 0.7
v 2 0 0.7
v 1.9 0 0.7
v 1.8 0.1 0.7
v 1.8 0.1 0.9
v 1.7 0.1 0.7
v 1.9 0.1 0.6
v 1.8 0.1 0.6
v 1.7 0.1 0.6
v 1.5 0 0.6
v 1.5 0 0.7
v 1.4 0 0.7
v 1.4 0 0.6
v 1.1 0 0.6
v 1.1 0 0.7
v 1 0 0.7
v 1 0 0.6
v 0.8 0 0.6
v 0.8 0 0.7
v 0.7 0 0.7
v 0.7 0 0.6
v 1.9 0.1 0.4
v 1.8 0.1 0.4
v 1.7 0 0.4
v 1.7 0 0.9
v 1.6 0 0.4
v 1.6 0 0.5
v 1.5 0 0.5
v 1.5 0 0.4
v 2.1 0 0.3
v 2.1 0 0.4
v 2 0 0.4
v 2 0 0.3
v 1.9 0 0.3
v 1.2 0 0.3
v 1.2 0 0.5
v 1 0 0.5
v 1 0 0.3
v 0.9 0 0.3
v 0.9 0 0.4
v 0.8 0 0.4
v 0.8 0 0.3
v 2 0 0.2
v 1.9 0 0.2
v 1 0 0.2
v 0.9 0 0.2
v 2.2 0 0.1
v 2.2 0 0.2
v 2.1 0 0.2
v 2.1 0 0.1
v 1.7 0 0.1
v 1.6 0 0.1
v 1.6 0 0.2
v 1.5 0 0.2
v 1.5 0 0.1
v 1.1 0 0.1
v 1.1 0 0.2
v 1 0 0.1
v 0.8 0 0.1
v 0.8 0 0.2
v 0.7 0 0.2
v 0.7 0 0.1
v 1.9 0.1 0
v 1.8 0.1 0
v 1.7 0.1 0
v 1.8 0.4 0
v 1.8 0.4 0.2
v 1.6 0.4 0.2
v 1.6 0.4 0
v 1.2 0 0
v 1.2 0 0.1
v 1.1 0 0
v 2.1 0.4 -0.1
v 2.1 0.4 0.1
v 1.9 0.4 0.1
v 1.9 0.4 -0.1
v 1.5 0 -0.1
v 1.5 0 0
v 1.4 0 0
v 1.4 0 -0.1
v 1.3 0 -0.1
v 1.3 0 0
v 1.2 0 -0.1
v 2.1 0 -0.2
v 2.1 0 -0.1
v 2 0 -0.1
v 2 0 -0.2
v 1.9 0 -0.2
v 1.9 0.4 0
v 1 0 -0.2
v 1 0 -0.1
v 0.9 0 -0.1
v 0.9 0 -0.2
v 2.2 0 -0.3
v 2.2 0 -0.2
v 2.1 0 -0.3
v 2 0 -0.3
v 1.9 0 -0.3
v 1.7 0.1 -0.3
v 1.8 0.3 -0.3
v 1.8 0.3 -0.1
v 1.6 0.3 -0.1
v 1.6 0.3 -0.3
v 1.3 0 -0.3
v 1.3 0 -0.2
v 1.2 0 -0.2
v 1.2 0 -0.3
v 1.9 0.3 -0.2
v 1.8 0.3 -0.2
v 1.6 0 -0.4
v 1.6 0 -0.3
v 1.5 0 -0.3
v 1.5 0 -0.4
v 1.9 0.1 -0.5
v 1.7 0 -0.5
v 1.6 0 -0.5
v 1.4 0 -0.5
v 1.4 0 -0.4
v 1.3 0 -0.4
v 1.3 0 -0.5
v 1.9 0.1 -0.6
v 1.8 0.1 -0.5
v 1.8 0.1 -0.6
v 0.9 0 -0.6
v 0.9 0 -0.5
v 0.8 0 -0.5
v 0.8 0 -0.6
v 2.1 0 -0.7
v 2.1 0 -0.6
v 2 0 -0.6
v 2 0 -0.7
v 1.7 0 -0.7
v 1.6 0 -0.7
v 1.6 0 -0.6
v 1.5 0 -0.6
v 1.5 0 -0.7
v 1.3 0 -0.7
v 1.3 0 -0.6
v 1.2 0 -0.6
v 1.2 0 -0.7
v 1.1 0 -0.6
v 1.1 0 -0.7
v 0.7 0 -0.7
v 0.7 0 -0.6
v 0.6 0 -0.6
v 0.6 0 -0.7
v 2 0 -0.8
v 1.9 0 -0.8
v 1.8 0.1 -0.8
v 1.1 0 -0.8
v 1 0 -0.7
v 1 0 -0.8
v 0.9 0 -0.7
v 0.9 0 -0.8
v 2.2 0 -0.9
v 2.2 0 -0.8
v 2.1 0 -0.8
v 2.1 0 -0.9
v 2 0 -0.9
v 1.9 0 -0.9
v 1.8 0.1 -0.9
v 1.5 0 -0.9
v 1.5 0 -0.8
v 1.4 0 -0.8
v 1.4 0 -0.9
v 0.9 0 -0.9
v 0.8 0 -0.8
v 0.8 0 -0.9
v 0.7 0 -0.8
v 0.7 0 -0.9
v 1.3 0 -1
v 1.3 0 -0.8
v 1.1 0 -1
v 0.6 0 -1
v 0.6 0 -0.9
v 0.5 0 -0.9
v 0.5 0 -1
v 1.8 0.1 -1.1
v 1.7 0.1 -1.1
v 1 0 -1.1
v 1 0 -0.9
v 0.8 0 -1.1
v 2.1 0 -1.2
v 2.1 0 -1.1
v 2 0 -1.1
v 2 0 -1.2
v 1.9 0 -1.2
v 1.8 0.1 -1.2
v 1.7 0 -1.2
v 1.6 0 -1.2
v 1.6 0 -1.1
v 1.5 0 -1.1
v 1.5 0 -1.2
v 1.2 0 -1.2
v 1.2 0 -1.1
v 1.1 0 -1.1
v 1.1 0 -1.2
v 2 0 -1.3
v 1.9 0 -1.3
v 1.8 0.1 -1.3
v 1.7 0 -1.3
v 1.6 0 -1.3
v 0.8 0 -1.3
v 0.8 0 -1.2
v 0.7 0 -1.2
v 0.7 0 -1.3
v 2.2 0 -1.4
v 2.2 0 -1.3
v 2.1 0 -1.3
v 2.1 0 -1.4
v 1.8 0.1 -1.4
v 1.7 0.1 -1.4
v 2 0 -1.5
v 1.9 0 -1.5
v 1.8 0.1 -1.5
v 1.7 0 -1.5
v 1.6 0 -1.5
v 1.5 0 -1.5
v 1.5 0 -1.4
v 1.4 0 -1.4
v 1.4 0 -1.5
v 2 0 -1.6
v 1.9 0 -1.6
v 1.6 0.1 0.2
v 1.6 0.1 -0.3
v 1.6 0.1 -0.4
v 2 0.1 0.4

vt 0.00585938 0.5
vt 0.0449219 0.5
vt 0.0839844 0.5
vt 0.0996094 0.5

vn 0 1 0
vn 0 -1 0
vn -1 0 0
vn 1 0 0
vn 0 0 -1
vn 0 0 1

usemtl palette
f 1/4/1 2/4/1 4/4/1
f 4/4/1 2/4/1 3/4/1
f 5/1/1 6/1/1 8/1/1
f 8/1/1 6/1/1 7/1/1
f 9/4/1 10/4/1 12/4/1
f 12/4/1 10/4/1 11/4/1
f 13/4/1 14/4/1 16/4/1
f 16/4/1 14/4/1 15/4/1
f 17/3/1 18/3/1 5/3/1
f 5/3/1 18/3/1 6/3/1
f 19/1/1 20/1/1 22/1/1
f 22/1/1 20/1/1 21/1/1
f 23/1/1 24/1/1 25/1/1
f 25/1/1 24/1/1 22/1/1
f 24/3/1 26/3/1 19/3/1
f 19/3/1 26/3/1 20/3/1
f 27/4/1 28/4/1 30/4/1
f 30/4/1 28/4/1 29/4/1
f 31/4/1 32/4/1 34/4/1
f 34/4/1 32/4/1 33/4/1
f 35/4/1 36/4/1 38/4/1
f 38/4/1 36/4/1 37/4/1
f 39/3/1 40/3/1 23/3/1
f 23/3/1 40/3/1 24/3/1
f 41/1/1 42/1/1 43/1/1
f 43/1/1 42/1/1 12/1/1
f 42/4/1 44/4/1 46/4/1
f 46/4/1 44/4/1 45/4/1
f 47/4/1 48/4/1 50/4/1
f 50/4/1 48/4/1 49/4/1
f 51/1/1 52/1/1 17/1/1
f 17/1/1 52/1/1 18/1/1
f 53/2/1 54/2/1 56/2/1
f 56/2/1 54/2/1 55/2/1
f 57/1/1 58/1/1 60/1/1
f 60/1/1 58/1/1 59/1/1
f 61/3/1 62/3/1 51/3/1
f 51/3/1 62/3/1 52/3/1
f 63/1/1 64/1/1 54/1/1
f 54/1/1 64/1/1 57/1/1
f 65/4/1 66/4/1 68/4/1
f 68/4/1 66/4/1 67/4/1
f 69/3/1 70/3/1 41/3/1
f 41/3/1 70/3/1 42/3/1
f 71/4/1 72/4/1 74/4/1
f 74/4/1 72/4/1 73/4/1
f 75/1/1 76/1/1 77/1/1
f 77/1/1 76/1/1 63/1/1
f 78/4/1 79/4/1 81/4/1
f 81/4/1 79/4/1 80/4/1
f 82/1/1 83/1/1 39/1/1
f 39/1/1 83/1/1 40/1/1
f 83/1/1 84/1/1 24/1/1
f 24/1/1 84/1/1 26/1/1
f 85/2/1 86/2/1 88/2/1
f 88/2/1 86/2/1 87/2/1
f 89/1/1 90/1/1 91/1/1
f 91/1/1 90/1/1 75/1/1
f 92/2/1 93/2/1 95/2/1
f 95/2/1 93/2/1 94/2/1
f 96/4/1 97/4/1 99/4/1
f 99/4/1 97/4/1 98/4/1
f 100/1/1 101/1/1 102/1/1
f 102/1/1 101/1/1 89/1/1
f 103/4/1 104/4/1 106/4/1
f 106/4/1 104/4/1 105/4/1
f 104/1/1 107/1/1 61/1/1
f 61/1/1 107/1/1 62/1/1
f 108/1/1 109/1/1 110/1/1
f 110/1/1 109/1/1 85/1/1
f 111/4/1 112/4/1 114/4/1
f 114/4/1 112/4/1 113/4/1
f 115/4/1 116/4/1 117/4/1
f 117/4/1 116/4/1 103/4/1
f 118/3/1 119/3/1 104/3/1
f 104/3/1 119/3/1 107/3/1
f 120/3/1 121/3/1 82/3/1
f 82/3/1 121/3/1 84/3/1
f 122/2/1 123/2/1 125/2/1
f 125/2/1 123/2/1 124/2/1
f 126/4/1 127/4/1 129/4/1
f 129/4/1 127/4/1 128/4/1
f 130/1/1 131/1/1 133/1/1
f 133/1/1 131/1/1 132/1/1
f 134/1/1 135/1/1 120/1/1
f 120/1/1 135/1/1 121/1/1
f 136/4/1 137/4/1 139/4/1
f 139/4/1 137/4/1 138/4/1
f 140/1/1 141/1/1 143/1/1
f 143/1/1 141/1/1 142/1/1
f 144/1/1 145/1/1 69/1/1
f 69/1/1 145/1/1 70/1/1
f 146/4/1 147/4/1 149/4/1
f 149/4/1 147/4/1 148/4/1
f 150/3/1 151/3/1 153/3/1
f 153/3/1 151/3/1 152/3/1
f 154/4/1 155/4/1 157/4/1
f 157/4/1 155/4/1 156/4/1
f 158/4/1 159/4/1 161/4/1
f 161/4/1 159/4/1 160/4/1
f 162/3/1 163/3/1 144/3/1
f 144/3/1 163/3/1 145/3/1
f 163/4/1 164/4/1 166/4/1
f 166/4/1 164/4/1 165/4/1
f 167/1/1 168/1/1 170/1/1
f 170/1/1 168/1/1 169/1/1
f 168/3/1 171/3/1 169/3/1
f 169/3/1 171/3/1 172/3/1
f 173/4/1 174/4/1 176/4/1
f 176/4/1 174/4/1 175/4/1
f 177/1/1 178/1/1 118/1/1
f 118/1/1 178/1/1 119/1/1
f 179/1/1 180/1/1 150/1/1
f 150/1/1 180/1/1 151/1/1
f 181/3/1 182/3/1 171/3/1
f 171/3/1 182/3/1 183/3/1
f 182/1/1 184/1/1 183/1/1
f 183/1/1 184/1/1 185/1/1
f 186/4/1 187/4/1 189/4/1
f 189/4/1 187/4/1 188/4/1
f 190/3/1 191/3/1 177/3/1
f 177/3/1 191/3/1 178/3/1
f 192/3/1 193/3/1 179/3/1
f 179/3/1 193/3/1 180/3/1
f 194/4/1 195/4/1 197/4/1
f 197/4/1 195/4/1 196/4/1
f 198/1/1 199/1/1 184/1/1
f 184/1/1 199/1/1 200/1/1
f 199/3/1 201/3/1 200/3/1
f 200/3/1 201/3/1 202/3/1
f 203/2/1 204/2/1 205/2/1
f 205/2/1 204/2/1 181/2/1
f 206/4/1 207/4/1 209/4/1
f 209/4/1 207/4/1 208/4/1
f 210/1/1 211/1/1 212/1/1
f 212/1/1 211/1/1 135/1/1
f 213/2/1 214/2/1 215/2/1
f 215/2/1 214/2/1 199/2/1
f 216/4/1 217/4/1 219/4/1
f 219/4/1 217/4/1 218/4/1
f 217/1/1 220/1/1 190/1/1
f 190/1/1 220/1/1 191/1/1
f 221/3/1 222/3/1 210/3/1
f 210/3/1 222/3/1 211/3/1
f 223/1/1 224/1/1 162/1/1
f 162/1/1 224/1/1 163/1/1
f 224/4/1 225/4/1 227/4/1
f 227/4/1 225/4/1 226/4/1
f 228/4/1 229/4/1 231/4/1
f 231/4/1 229/4/1 230/4/1
f 232/3/1 233/3/1 217/3/1
f 217/3/1 233/3/1 220/3/1
f 234/1/1 235/1/1 221/1/1
f 221/1/1 235/1/1 222/1/1
f 236/3/1 237/3/1 223/3/1
f 223/3/1 237/3/1 224/3/1
f 238/4/1 239/4/1 241/4/1
f 241/4/1 239/4/1 240/4/1
f 242/4/1 243/4/1 245/4/1
f 245/4/1 243/4/1 244/4/1
f 246/3/1 247/3/1 234/3/1
f 234/3/1 247/3/1 235/3/1
f 248/1/1 249/1/1 232/1/1
f 232/1/1 249/1/1 233/1/1
f 250/1/1 251/1/1 192/1/1
f 192/1/1 251/1/1 193/1/1
f 251/1/1 252/1/1 246/1/1
f 246/1/1 252/1/1 247/1/1
f 253/1/1 254/1/1 236/1/1
f 236/1/1 254/1/1 237/1/1
f 255/4/1 256/4/1 258/4/1
f 258/4/1 256/4/1 257/4/1
f 259/4/1 260/4/1 261/4/1
f 261/4/1 260/4/1 250/4/1
f 262/4/2 263/4/2 265/4/2
f 265/4/2 263/4/2 264/4/2
f 266/1/2 267/1/2 269/1/2
f 269/1/2 267/1/2 268/1/2
f 270/4/2 271/4/2 273/4/2
f 273/4/2 271/4/2 272/4/2
f 274/4/2 275/4/2 277/4/2
f 277/4/2 275/4/2 276/4/2
f 278/3/2 266/3/2 279/3/2
f 279/3/2 266/3/2 269/3/2
f 280/1/2 281/1/2 282/1/2
f 282/1/2 281/1/2 43/1/2
f 283/1/2 7/1/2 284/1/2
f 284/1/2 7/1/2 281/1/2
f 284/3/2 280/3/2 285/3/2
f 285/3/2 280/3/2 282/3/2
f 286/4/2 287/4/2 289/4/2
f 289/4/2 287/4/2 288/4/2
f 290/4/2 291/4/2 293/4/2
f 293/4/2 291/4/2 292/4/2
f 294/4/2 295/4/2 297/4/2
f 297/4/2 295/4/2 296/4/2
f 298/3/2 283/3/2 299/3/2
f 299/3/2 283/3/2 284/3/2
f 300/1/2 301/1/2 302/1/2
f 302/1/2 301/1/2 271/1/2
f 302/4/2 303/4/2 305/4/2
f 305/4/2 303/4/2 304/4/2
f 306/4/2 307/4/2 309/4/2
f 309/4/2 307/4/2 308/4/2
f 309/1/2 278/1/2 310/1/2
f 310/1/2 278/1/2 279/1/2
f 311/2/2 312/2/2 314/2/2
f 314/2/2 312/2/2 313/2/2
f 315/1/2 316/1/2 318/1/2
f 318/1/2 316/1/2 317/1/2
f 319/3/2 309/3/2 320/3/2
f 320/3/2 309/3/2 310/3/2
f 321/1/2 314/1/2 322/1/2
f 322/1/2 314/1/2 315/1/2
f 323/4/2 324/4/2 326/4/2
f 326/4/2 324/4/2 325/4/2
f 327/3/2 300/3/2 328/3/2
f 328/3/2 300/3/2 302/3/2
f 328/4/2 329/4/2 331/4/2
f 331/4/2 329/4/2 330/4/2
f 332/1/2 333/1/2 334/1/2
f 334/1/2 333/1/2 321/1/2
f 335/4/2 336/4/2 338/4/2
f 338/4/2 336/4/2 337/4/2
f 339/1/2 298/1/2 340/1/2
f 340/1/2 298/1/2 299/1/2
f 340/1/2 284/1/2 341/1/2
f 341/1/2 284/1/2 285/1/2
f 342/2/2 343/2/2 345/2/2
f 345/2/2 343/2/2 344/2/2
f 346/1/2 347/1/2 348/1/2
f 348/1/2 347/1/2 332/1/2
f 349/2/2 350/2/2 352/2/2
f 352/2/2 350/2/2 351/2/2
f 353/4/2 354/4/2 356/4/2
f 356/4/2 354/4/2 355/4/2
f 357/1/2 358/1/2 359/1/2
f 359/1/2 358/1/2 346/1/2
f 360/4/2 361/4/2 363/4/2
f 363/4/2 361/4/2 362/4/2
f 363/1/2 319/1/2 364/1/2
f 364/1/2 319/1/2 320/1/2
f 133/1/2 365/1/2 132/1/2
f 132/1/2 365/1/2 342/1/2
f 366/4/2 367/4/2 369/4/2
f 369/4/2 367/4/2 368/4/2
f 370/4/2 371/4/2 372/4/2
f 372/4/2 371/4/2 360/4/2
f 373/3/2 363/3/2 374/3/2
f 374/3/2 363/3/2 364/3/2
f 119/3/2 339/3/2 375/3/2
f 375/3/2 339/3/2 341/3/2
f 376/2/2 377/2/2 379/2/2
f 379/2/2 377/2/2 378/2/2
f 380/4/2 381/4/2 383/4/2
f 383/4/2 381/4/2 382/4/2
f 143/1/2 384/1/2 142/1/2
f 142/1/2 384/1/2 385/1/2
f 386/4/2 387/4/2 389/4/2
f 389/4/2 387/4/2 388/4/2
f 390/1/2 119/1/2 144/1/2
f 144/1/2 119/1/2 375/1/2
f 391/1/2 327/1/2 392/1/2
f 392/1/2 327/1/2 328/1/2
f 393/4/2 394/4/2 396/4/2
f 396/4/2 394/4/2 395/4/2
f 397/3/2 390/3/2 399/3/2
f 399/3/2 390/3/2 398/3/2
f 400/4/2 401/4/2 403/4/2
f 403/4/2 401/4/2 402/4/2
f 404/4/2 405/4/2 407/4/2
f 407/4/2 405/4/2 406/4/2
f 408/3/2 391/3/2 409/3/2
f 409/3/2 391/3/2 392/3/2
f 409/4/2 410/4/2 412/4/2
f 412/4/2 410/4/2 411/4/2
f 413/1/2 414/1/2 416/1/2
f 416/1/2 414/1/2 415/1/2
f 416/3/2 415/3/2 418/3/2
f 418/3/2 415/3/2 417/3/2
f 419/4/2 420/4/2 422/4/2
f 422/4/2 420/4/2 421/4/2
f 423/1/2 373/1/2 424/1/2
f 424/1/2 373/1/2 374/1/2
f 178/1/2 397/1/2 425/1/2
f 425/1/2 397/1/2 399/1/2
f 426/3/2 418/3/2 428/3/2
f 428/3/2 418/3/2 427/3/2
f 428/1/2 427/1/2 430/1/2
f 430/1/2 427/1/2 429/1/2
f 431/4/2 432/4/2 434/4/2
f 434/4/2 432/4/2 433/4/2
f 435/3/2 423/3/2 436/3/2
f 436/3/2 423/3/2 424/3/2
f 191/3/2 178/3/2 437/3/2
f 437/3/2 178/3/2 425/3/2
f 438/4/2 439/4/2 441/4/2
f 441/4/2 439/4/2 440/4/2
f 442/1/2 430/1/2 444/1/2
f 444/1/2 430/1/2 443/1/2
f 444/3/2 443/3/2 446/3/2
f 446/3/2 443/3/2 445/3/2
f 447/2/2 448/2/2 449/2/2
f 449/2/2 448/2/2 426/2/2
f 450/4/2 451/4/2 453/4/2
f 453/4/2 451/4/2 452/4/2
f 454/1/2 398/1/2 455/1/2
f 455/1/2 398/1/2 144/1/2
f 456/2/2 457/2/2 458/2/2
f 458/2/2 457/2/2 444/2/2
f 459/4/2 460/4/2 462/4/2
f 462/4/2 460/4/2 461/4/2
f 462/1/2 435/1/2 463/1/2
f 463/1/2 435/1/2 436/1/2
f 464/3/2 454/3/2 223/3/2
f 223/3/2 454/3/2 455/3/2
f 465/1/2 408/1/2 466/1/2
f 466/1/2 408/1/2 409/1/2
f 466/4/2 467/4/2 469/4/2
f 469/4/2 467/4/2 468/4/2
f 470/4/2 471/4/2 473/4/2
f 473/4/2 471/4/2 472/4/2
f 474/3/2 462/3/2 475/3/2
f 475/3/2 462/3/2 463/3/2
f 476/1/2 464/1/2 236/1/2
f 236/1/2 464/1/2 223/1/2
f 477/3/2 465/3/2 478/3/2
f 478/3/2 465/3/2 466/3/2
f 479/4/2 480/4/2 482/4/2
f 482/4/2 480/4/2 481/4/2
f 483/4/2 484/4/2 486/4/2
f 486/4/2 484/4/2 485/4/2
f 487/3/2 476/3/2 488/3/2
f 488/3/2 476/3/2 236/3/2
f 489/1/2 474/1/2 490/1/2
f 490/1/2 474/1/2 475/1/2
f 249/1/2 191/1/2 491/1/2
f 491/1/2 191/1/2 437/1/2
f 491/1/2 487/1/2 253/1/2
f 253/1/2 487/1/2 488/1/2
f 492/1/2 477/1/2 493/1/2
f 493/1/2 477/1/2 478/1/2
f 494/4/2 495/4/2 497/4/2
f 497/4/2 495/4/2 496/4/2
f 498/4/2 489/4/2 499/4/2
f 499/4/2 489/4/2 490/4/2
f 3/4/3 2/4/3 264/4/3
f 264/4/3 2/4/3 265/4/3
f 7/1/3 6/1/3 268/1/3
f 268/1/3 6/1/3 269/1/3
f 11/4/3 10/4/3 272/4/3
f 272/4/3 10/4/3 273/4/3
f 6/3/3 18/3/3 269/3/3
f 269/3/3 18/3/3 279/3/3
f 37/4/3 36/4/3 296/4/3
f 296/4/3 36/4/3 297/4/3
f 9/1/3 46/1/3 270/1/3
f 270/1/3 46/1/3 303/1/3
f 45/4/3 44/4/3 304/4/3
f 304/4/3 44/4/3 305/4/3
f 18/1/3 52/1/3 279/1/3
f 279/1/3 52/1/3 310/1/3
f 55/2/3 54/2/3 313/2/3
f 313/2/3 54/2/3 314/2/3
f 59/1/3 58/1/3 317/1/3
f 317/1/3 58/1/3 318/1/3
f 52/3/3 62/3/3 310/3/3
f 310/3/3 62/3/3 320/3/3
f 42/3/3 500/3/3 302/3/3
f 302/3/3 500/3/3 329/3/3
f 57/1/3 64/1/3 315/1/3
f 315/1/3 64/1/3 322/1/3
f 67/4/3 66/4/3 325/4/3
f 325/4/3 66/4/3 326/4/3
f 63/1/3 76/1/3 321/1/3
f 321/1/3 76/1/3 334/1/3
f 80/4/3 79/4/3 337/4/3
f 337/4/3 79/4/3 338/4/3
f 75/1/3 90/1/3 332/1/3
f 332/1/3 90/1/3 348/1/3
f 98/4/3 97/4/3 355/4/3
f 355/4/3 97/4/3 356/4/3
f 89/1/3 101/1/3 346/1/3
f 346/1/3 101/1/3 359/1/3
f 62/1/3 107/1/3 320/1/3
f 320/1/3 107/1/3 364/1/3
f 103/4/3 116/4/3 360/4/3
f 360/4/3 116/4/3 372/4/3
f 107/3/3 119/3/3 364/3/3
f 364/3/3 119/3/3 374/3/3
f 70/1/3 501/1/3 328/1/3
f 328/1/3 501/1/3 387/1/3
f 128/4/3 127/4/3 382/4/3
f 382/4/3 127/4/3 383/4/3
f 502/1/3 145/1/3 386/1/3
f 386/1/3 145/1/3 392/1/3
f 148/4/3 147/4/3 395/4/3
f 395/4/3 147/4/3 396/4/3
f 145/3/3 166/3/3 392/3/3
f 392/3/3 166/3/3 410/3/3
f 165/4/3 164/4/3 411/4/3
f 411/4/3 164/4/3 412/4/3
f 172/3/3 171/3/3 417/3/3
f 417/3/3 171/3/3 418/3/3
f 175/4/3 174/4/3 421/4/3
f 421/4/3 174/4/3 422/4/3
f 119/1/3 178/1/3 374/1/3
f 374/1/3 178/1/3 424/1/3
f 185/1/3 184/1/3 429/1/3
f 429/1/3 184/1/3 430/1/3
f 188/4/3 187/4/3 433/4/3
f 433/4/3 187/4/3 434/4/3
f 178/3/3 191/3/3 424/3/3
f 424/3/3 191/3/3 436/3/3
f 202/3/3 201/3/3 445/3/3
f 445/3/3 201/3/3 446/3/3
f 181/2/3 204/2/3 426/2/3
f 426/2/3 204/2/3 449/2/3
f 163/1/3 227/1/3 409/1/3
f 409/1/3 227/1/3 467/1/3
f 199/2/3 214/2/3 444/2/3
f 444/2/3 214/2/3 458/2/3
f 191/1/3 220/1/3 436/1/3
f 436/1/3 220/1/3 463/1/3
f 226/4/3 225/4/3 468/4/3
f 468/4/3 225/4/3 469/4/3
f 230/4/3 229/4/3 472/4/3
f 472/4/3 229/4/3 473/4/3
f 220/3/3 233/3/3 463/3/3
f 463/3/3 233/3/3 475/3/3
f 224/3/3 237/3/3 466/3/3
f 466/3/3 237/3/3 478/3/3
f 240/4/3 239/4/3 481/4/3
f 481/4/3 239/4/3 482/4/3
f 244/4/3 243/4/3 485/4/3
f 485/4/3 243/4/3 486/4/3
f 233/1/3 249/1/3 475/1/3
f 475/1/3 249/1/3 490/1/3
f 237/1/3 254/1/3 478/1/3
f 478/1/3 254/1/3 493/1/3
f 257/4/3 256/4/3 496/4/3
f 496/4/3 256/4/3 497/4/3
f 15/4/3 14/4/3 276/4/3
f 276/4/3 14/4/3 277/4/3
f 21/1/3 20/1/3 43/1/3
f 43/1/3 20/1/3 282/1/3
f 20/3/3 26/3/3 282/3/3
f 282/3/3 26/3/3 285/3/3
f 29/4/3 28/4/3 288/4/3
f 288/4/3 28/4/3 289/4/3
f 33/4/3 32/4/3 292/4/3
f 292/4/3 32/4/3 293/4/3
f 49/4/3 48/4/3 503/4/3
f 503/4/3 48/4/3 51/4/3
f 73/4/3 72/4/3 330/4/3
f 330/4/3 72/4/3 331/4/3
f 26/1/3 84/1/3 285/1/3
f 285/1/3 84/1/3 341/1/3
f 113/4/3 112/4/3 368/4/3
f 368/4/3 112/4/3 369/4/3
f 84/3/3 121/3/3 341/3/3
f 341/3/3 121/3/3 375/3/3
f 138/4/3 137/4/3 388/4/3
f 388/4/3 137/4/3 389/4/3
f 156/4/3 155/4/3 402/4/3
f 402/4/3 155/4/3 403/4/3
f 196/4/3 195/4/3 440/4/3
f 440/4/3 195/4/3 441/4/3
f 121/1/3 211/1/3 375/1/3
f 375/1/3 211/1/3 455/1/3
f 211/3/3 222/3/3 455/3/3
f 455/3/3 222/3/3 223/3/3
f 222/1/3 235/1/3 223/1/3
f 223/1/3 235/1/3 236/1/3
f 235/3/3 247/3/3 236/3/3
f 236/3/3 247/3/3 488/3/3
f 247/1/3 252/1/3 488/1/3
f 488/1/3 252/1/3 253/1/3
f 250/4/3 260/4/3 490/4/3
f 490/4/3 260/4/3 499/4/3
f 142/1/3 141/1/3 212/1/3
f 212/1/3 141/1/3 152/1/3
f 208/4/3 207/4/3 452/4/3
f 452/4/3 207/4/3 453/4/3
f 124/2/3 123/2/3 378/2/3
f 378/2/3 123/2/3 379/2/3
f 122/1/3 131/1/3 376/1/3
f 376/1/3 131/1/3 142/1/3
f 94/2/3 110/2/3 351/2/3
f 351/2/3 110/2/3 365/2/3
f 87/2/3 86/2/3 344/2/3
f 344/2/3 86/2/3 345/2/3
f 85/1/3 109/1/3 342/1/3
f 342/1/3 109/1/3 132/1/3
f 4/4/4 263/4/4 1/4/4
f 1/4/4 263/4/4 262/4/4
f 8/1/4 267/1/4 5/1/4
f 5/1/4 267/1/4 266/1/4
f 5/3/4 266/3/4 17/3/4
f 17/3/4 266/3/4 278/3/4
f 38/4/4 295/4/4 35/4/4
f 35/4/4 295/4/4 294/4/4
f 17/1/4 278/1/4 503/1/4
f 503/1/4 278/1/4 308/1/4
f 43/1/4 301/1/4 41/1/4
f 41/1/4 301/1/4 300/1/4
f 56/2/4 312/2/4 53/2/4
f 53/2/4 312/2/4 311/2/4
f 60/1/4 316/1/4 57/1/4
f 57/1/4 316/1/4 315/1/4
f 51/3/4 309/3/4 61/3/4
f 61/3/4 309/3/4 319/3/4
f 54/1/4 314/1/4 63/1/4
f 63/1/4 314/1/4 321/1/4
f 68/4/4 324/4/4 65/4/4
f 65/4/4 324/4/4 323/4/4
f 41/3/4 300/3/4 69/3/4
f 69/3/4 300/3/4 327/3/4
f 77/1/4 333/1/4 75/1/4
f 75/1/4 333/1/4 332/1/4
f 81/4/4 336/4/4 78/4/4
f 78/4/4 336/4/4 335/4/4
f 91/1/4 347/1/4 89/1/4
f 89/1/4 347/1/4 346/1/4
f 61/1/4 319/1/4 105/1/4
f 105/1/4 319/1/4 362/1/4
f 99/4/4 354/4/4 96/4/4
f 96/4/4 354/4/4 353/4/4
f 102/1/4 358/1/4 100/1/4
f 100/1/4 358/1/4 357/1/4
f 106/4/4 361/4/4 103/4/4
f 103/4/4 361/4/4 360/4/4
f 117/4/4 371/4/4 115/4/4
f 115/4/4 371/4/4 370/4/4
f 104/3/4 363/3/4 118/3/4
f 118/3/4 363/3/4 373/3/4
f 129/4/4 381/4/4 126/4/4
f 126/4/4 381/4/4 380/4/4
f 69/1/4 327/1/4 144/1/4
f 144/1/4 327/1/4 391/1/4
f 149/4/4 394/4/4 146/4/4
f 146/4/4 394/4/4 393/4/4
f 118/1/4 373/1/4 160/1/4
f 160/1/4 373/1/4 406/1/4
f 161/4/4 405/4/4 158/4/4
f 158/4/4 405/4/4 404/4/4
f 144/3/4 391/3/4 162/3/4
f 162/3/4 391/3/4 408/3/4
f 170/1/4 414/1/4 167/1/4
f 167/1/4 414/1/4 413/1/4
f 176/4/4 420/4/4 173/4/4
f 173/4/4 420/4/4 419/4/4
f 159/1/4 407/1/4 177/1/4
f 177/1/4 407/1/4 423/1/4
f 171/3/4 418/3/4 181/3/4
f 181/3/4 418/3/4 426/3/4
f 189/4/4 432/4/4 186/4/4
f 186/4/4 432/4/4 431/4/4
f 177/3/4 423/3/4 190/3/4
f 190/3/4 423/3/4 435/3/4
f 184/1/4 430/1/4 198/1/4
f 198/1/4 430/1/4 442/1/4
f 205/2/4 448/2/4 203/2/4
f 203/2/4 448/2/4 447/2/4
f 190/1/4 435/1/4 218/1/4
f 218/1/4 435/1/4 461/1/4
f 215/2/4 457/2/4 213/2/4
f 213/2/4 457/2/4 456/2/4
f 219/4/4 460/4/4 216/4/4
f 216/4/4 460/4/4 459/4/4
f 162/1/4 408/1/4 223/1/4
f 223/1/4 408/1/4 465/1/4
f 231/4/4 471/4/4 228/4/4
f 228/4/4 471/4/4 470/4/4
f 217/3/4 462/3/4 232/3/4
f 232/3/4 462/3/4 474/3/4
f 223/3/4 465/3/4 236/3/4
f 236/3/4 465/3/4 477/3/4
f 241/4/4 480/4/4 238/4/4
f 238/4/4 480/4/4 479/4/4
f 245/4/4 484/4/4 242/4/4
f 242/4/4 484/4/4 483/4/4
f 232/1/4 474/1/4 248/1/4
f 248/1/4 474/1/4 489/1/4
f 236/1/4 477/1/4 253/1/4
f 253/1/4 477/1/4 492/1/4
f 258/4/4 495/4/4 255/4/4
f 255/4/4 495/4/4 494/4/4
f 16/4/4 275/4/4 13/4/4
f 13/4/4 275/4/4 274/4/4
f 25/1/4 7/1/4 23/1/4
f 23/1/4 7/1/4 283/1/4
f 30/4/4 287/4/4 27/4/4
f 27/4/4 287/4/4 286/4/4
f 34/4/4 291/4/4 31/4/4
f 31/4/4 291/4/4 290/4/4
f 23/3/4 283/3/4 39/3/4
f 39/3/4 283/3/4 298/3/4
f 50/4/4 307/4/4 47/4/4
f 47/4/4 307/4/4 306/4/4
f 74/4/4 500/4/4 71/4/4
f 71/4/4 500/4/4 70/4/4
f 39/1/4 298/1/4 82/1/4
f 82/1/4 298/1/4 339/1/4
f 114/4/4 367/4/4 111/4/4
f 111/4/4 367/4/4 366/4/4
f 82/3/4 339/3/4 120/3/4
f 120/3/4 339/3/4 119/3/4
f 139/4/4 501/4/4 136/4/4
f 136/4/4 501/4/4 502/4/4
f 120/1/4 119/1/4 153/1/4
f 153/1/4 119/1/4 390/1/4
f 153/3/4 390/3/4 150/3/4
f 150/3/4 390/3/4 397/3/4
f 157/4/4 401/4/4 154/4/4
f 154/4/4 401/4/4 400/4/4
f 150/1/4 397/1/4 179/1/4
f 179/1/4 397/1/4 178/1/4
f 179/3/4 178/3/4 192/3/4
f 192/3/4 178/3/4 191/3/4
f 197/4/4 439/4/4 194/4/4
f 194/4/4 439/4/4 438/4/4
f 192/1/4 191/1/4 250/1/4
f 250/1/4 191/1/4 249/1/4
f 261/4/4 489/4/4 259/4/4
f 259/4/4 489/4/4 498/4/4
f 143/1/4 134/1/4 140/1/4
f 140/1/4 134/1/4 153/1/4
f 209/4/4 451/4/4 206/4/4
f 206/4/4 451/4/4 450/4/4
f 125/2/4 377/2/4 132/2/4
f 132/2/4 377/2/4 385/2/4
f 133/1/4 384/1/4 130/1/4
f 130/1/4 384/1/4 143/1/4
f 88/2/4 343/2/4 85/2/4
f 85/2/4 343/2/4 342/2/4
f 95/2/4 350/2/4 92/2/4
f 92/2/4 350/2/4 349/2/4
f 93/1/4 352/1/4 108/1/4
f 108/1/4 352/1/4 133/1/4
f 326/4/5 66/4/5 323/4/5
f 323/4/5 66/4/5 65/4/5
f 372/4/5 116/4/5 370/4/5
f 370/4/5 116/4/5 115/4/5
f 434/4/5 187/4/5 431/4/5
f 431/4/5 187/4/5 186/4/5
f 486/4/5 243/4/5 483/4/5
f 483/4/5 243/4/5 242/4/5
f 277/4/5 14/4/5 274/4/5
f 274/4/5 14/4/5 13/4/5
f 363/4/5 104/4/5 360/4/5
f 360/4/5 104/4/5 103/4/5
f 407/4/5 159/4/5 404/4/5
f 404/4/5 159/4/5 158/4/5
f 462/4/5 217/4/5 459/4/5
f 459/4/5 217/4/5 216/4/5
f 309/4/5 48/4/5 306/4/5
f 306/4/5 48/4/5 47/4/5
f 499/4/5 260/4/5 498/4/5
f 498/4/5 260/4/5 259/4/5
f 352/2/5 93/2/5 349/2/5
f 349/2/5 93/2/5 92/2/5
f 265/4/5 2/4/5 262/4/5
f 262/4/5 2/4/5 1/4/5
f 152/1/5 141/1/5 153/1/5
f 153/1/5 141/1/5 140/1/5
f 142/1/5 131/1/5 143/1/5
f 143/1/5 131/1/5 130/1/5
f 132/1/5 109/1/5 133/1/5
f 133/1/5 109/1/5 108/1/5
f 253/1/5 252/1/5 249/1/5
f 249/1/5 252/1/5 250/1/5
f 493/1/5 254/1/5 492/1/5
f 492/1/5 254/1/5 253/1/5
f 379/2/5 123/2/5 376/2/5
f 376/2/5 123/2/5 122/2/5
f 345/2/5 86/2/5 342/2/5
f 342/2/5 86/2/5 85/2/5
f 273/4/5 10/4/5 270/4/5
f 270/4/5 10/4/5 9/4/5
f 305/4/5 44/4/5 302/4/5
f 302/4/5 44/4/5 42/4/5
f 412/4/5 164/4/5 409/4/5
f 409/4/5 164/4/5 163/4/5
f 469/4/5 225/4/5 466/4/5
f 466/4/5 225/4/5 224/4/5
f 331/4/5 72/4/5 328/4/5
f 328/4/5 72/4/5 71/4/5
f 389/4/5 137/4/5 386/4/5
f 386/4/5 137/4/5 136/4/5
f 356/4/5 97/4/5 353/4/5
f 353/4/5 97/4/5 96/4/5
f 497/4/5 256/4/5 494/4/5
f 494/4/5 256/4/5 255/4/5
f 289/4/5 28/4/5 286/4/5
f 286/4/5 28/4/5 27/4/5
f 441/4/5 195/4/5 438/4/5
f 438/4/5 195/4/5 194/4/5
f 396/4/5 147/4/5 393/4/5
f 393/4/5 147/4/5 146/4/5
f 359/1/5 101/1/5 357/1/5
f 357/1/5 101/1/5 100/1/5
f 383/4/5 127/4/5 380/4/5
f 380/4/5 127/4/5 126/4/5
f 416/1/5 168/1/5 413/1/5
f 413/1/5 168/1/5 167/1/5
f 348/1/5 90/1/5 346/1/5
f 346/1/5 90/1/5 89/1/5
f 418/3/5 171/3/5 416/3/5
f 416/3/5 171/3/5 168/3/5
f 449/2/5 204/2/5 447/2/5
f 447/2/5 204/2/5 203/2/5
f 473/4/5 229/4/5 470/4/5
f 470/4/5 229/4/5 228/4/5
f 314/2/5 54/2/5 311/2/5
f 311/2/5 54/2/5 53/2/5
f 334/1/5 76/1/5 332/1/5
f 332/1/5 76/1/5 75/1/5
f 428/3/5 182/3/5 426/3/5
f 426/3/5 182/3/5 181/3/5
f 293/4/5 32/4/5 290/4/5
f 290/4/5 32/4/5 31/4/5
f 322/1/5 64/1/5 321/1/5
f 321/1/5 64/1/5 63/1/5
f 430/1/5 184/1/5 428/1/5
f 428/1/5 184/1/5 182/1/5
f 369/4/5 112/4/5 366/4/5
f 366/4/5 112/4/5 111/4/5
f 318/1/5 58/1/5 315/1/5
f 315/1/5 58/1/5 57/1/5
f 458/2/5 214/2/5 456/2/5
f 456/2/5 214/2/5 213/2/5
f 403/4/5 155/4/5 400/4/5
f 400/4/5 155/4/5 154/4/5
f 297/4/5 36/4/5 294/4/5
f 294/4/5 36/4/5 35/4/5
f 338/4/5 79/4/5 335/4/5
f 335/4/5 79/4/5 78/4/5
f 446/3/5 201/3/5 444/3/5
f 444/3/5 201/3/5 199/3/5
f 482/4/5 239/4/5 479/4/5
f 479/4/5 239/4/5 238/4/5
f 422/4/5 174/4/5 419/4/5
f 419/4/5 174/4/5 173/4/5
f 453/4/5 207/4/5 450/4/5
f 450/4/5 207/4/5 206/4/5
f 325/4/6 324/4/6 67/4/6
f 67/4/6 324/4/6 68/4/6
f 360/4/6 371/4/6 103/4/6
f 103/4/6 371/4/6 117/4/6
f 433/4/6 432/4/6 188/4/6
f 188/4/6 432/4/6 189/4/6
f 485/4/6 484/4/6 244/4/6
f 244/4/6 484/4/6 245/4/6
f 276/4/6 275/4/6 15/4/6
f 15/4/6 275/4/6 16/4/6
f 362/4/6 361/4/6 105/4/6
f 105/4/6 361/4/6 106/4/6
f 406/4/6 405/4/6 160/4/6
f 160/4/6 405/4/6 161/4/6
f 461/4/6 460/4/6 218/4/6
f 218/4/6 460/4/6 219/4/6
f 308/4/6 307/4/6 49/4/6
f 49/4/6 307/4/6 50/4/6
f 268/1/6 267/1/6 7/1/6
f 7/1/6 267/1/6 8/1/6
f 249/4/6 248/4/6 250/4/6
f 250/4/6 248/4/6 261/4/6
f 351/2/6 350/2/6 94/2/6
f 94/2/6 350/2/6 95/2/6
f 264/4/6 263/4/6 3/4/6
f 3/4/6 263/4/6 4/4/6
f 212/1/6 134/1/6 142/1/6
f 142/1/6 134/1/6 143/1/6
f 385/1/6 384/1/6 132/1/6
f 132/1/6 384/1/6 133/1/6
f 342/1/6 365/1/6 85/1/6
f 85/1/6 365/1/6 110/1/6
f 43/1/6 7/1/6 21/1/6
f 21/1/6 7/1/6 25/1/6
f 271/1/6 301/1/6 12/1/6
f 12/1/6 301/1/6 43/1/6
f 378/2/6 377/2/6 124/2/6
f 124/2/6 377/2/6 125/2/6
f 344/2/6 343/2/6 87/2/6
f 87/2/6 343/2/6 88/2/6
f 272/4/6 271/4/6 11/4/6
f 11/4/6 271/4/6 12/4/6
f 304/4/6 303/4/6 45/4/6
f 45/4/6 303/4/6 46/4/6
f 411/4/6 410/4/6 165/4/6
f 165/4/6 410/4/6 166/4/6
f 468/4/6 467/4/6 226/4/6
f 226/4/6 467/4/6 227/4/6
f 330/4/6 329/4/6 73/4/6
f 73/4/6 329/4/6 74/4/6
f 388/4/6 387/4/6 138/4/6
f 138/4/6 387/4/6 139/4/6
f 355/4/6 354/4/6 98/4/6
f 98/4/6 354/4/6 99/4/6
f 496/4/6 495/4/6 257/4/6
f 257/4/6 495/4/6 258/4/6
f 288/4/6 287/4/6 29/4/6
f 29/4/6 287/4/6 30/4/6
f 440/4/6 439/4/6 196/4/6
f 196/4/6 439/4/6 197/4/6
f 395/4/6 394/4/6 148/4/6
f 148/4/6 394/4/6 149/4/6
f 346/1/6 358/1/6 89/1/6
f 89/1/6 358/1/6 102/1/6
f 382/4/6 381/4/6 128/4/6
f 128/4/6 381/4/6 129/4/6
f 415/1/6 414/1/6 169/1/6
f 169/1/6 414/1/6 170/1/6
f 332/1/6 347/1/6 75/1/6
f 75/1/6 347/1/6 91/1/6
f 417/3/6 415/3/6 172/3/6
f 172/3/6 415/3/6 169/3/6
f 426/2/6 448/2/6 181/2/6
f 181/2/6 448/2/6 205/2/6
f 472/4/6 471/4/6 230/4/6
f 230/4/6 471/4/6 231/4/6
f 313/2/6 312/2/6 55/2/6
f 55/2/6 312/2/6 56/2/6
f 321/1/6 333/1/6 63/1/6
f 63/1/6 333/1/6 77/1/6
f 427/3/6 418/3/6 183/3/6
f 183/3/6 418/3/6 171/3/6
f 292/4/6 291/4/6 33/4/6
f 33/4/6 291/4/6 34/4/6
f 315/1/6 314/1/6 57/1/6
f 57/1/6 314/1/6 54/1/6
f 429/1/6 427/1/6 185/1/6
f 185/1/6 427/1/6 183/1/6
f 442/2/6 457/2/6 198/2/6
f 198/2/6 457/2/6 215/2/6
f 368/4/6 367/4/6 113/4/6
f 113/4/6 367/4/6 114/4/6
f 317/1/6 316/1/6 59/1/6
f 59/1/6 316/1/6 60/1/6
f 443/1/6 430/1/6 200/1/6
f 200/1/6 430/1/6 184/1/6
f 402/4/6 401/4/6 156/4/6
f 156/4/6 401/4/6 157/4/6
f 296/4/6 295/4/6 37/4/6
f 37/4/6 295/4/6 38/4/6
f 337/4/6 336/4/6 80/4/6
f 80/4/6 336/4/6 81/4/6
f 445/3/6 443/3/6 202/3/6
f 202/3/6 443/3/6 200/3/6
f 481/4/6 480/4/6 240/4/6
f 240/4/6 480/4/6 241/4/6
f 421/4/6 420/4/6 175/4/6
f 175/4/6 420/4/6 176/4/6
f 452/4/6 451/4/6 208/4/6
f 208/4/6 451/4/6 209/4/6
