# Vengi binary mesh normalized for Tanks of Freedom II

mtllib ../../materials/vox_grass.mtl
o river_bridge_overtile

v 3.9 0.1 1.9
v 3 0.1 1.9
v 3 0.1 2
v 3.9 0.1 2
v 2.9 0.2 1.9
v 2 0.2 1.9
v 2 0.2 2
v 2.9 0.2 2
v 1.9 0.3 1.9
v -2 0.3 1.9
v -2 0.3 2
v 1.9 0.3 2
v -2.1 0.2 1.9
v -2.2 0.2 1.9
v -2.2 0.2 2
v -2.1 0.2 2
v 4 0.1 1.8
v 3.9 0.1 1.8
v 4 0.1 2
v 3.7 0.1 1.8
v 3.3 0.1 1.8
v 3.3 0.1 1.9
v 3.7 0.1 1.9
v 3.1 0.1 1.8
v 3 0.1 1.8
v 3.1 0.1 1.9
v 4 0.6 1.8
v 3 0.6 1.8
v 3 0.6 2
v 4 0.6 2
v 3 0.2 1.8
v 2.9 0.2 1.8
v 3 0.2 2
v 2.7 0.2 1.8
v 2.3 0.2 1.8
v 2.3 0.2 1.9
v 2.7 0.2 1.9
v 2.1 0.2 1.8
v 2 0.2 1.8
v 2.1 0.2 1.9
v 3 0.7 1.8
v 2 0.7 1.8
v 2 0.7 2
v 3 0.7 2
v 2 0.3 1.8
v 1.9 0.3 1.8
v 2 0.3 2
v 1.7 0.3 1.8
v 1.3 0.3 1.8
v 1.3 0.3 1.9
v 1.7 0.3 1.9
v 1.1 0.3 1.8
v 0.9 0.3 1.8
v 0.9 0.3 1.9
v 1.1 0.3 1.9
v 0.7 0.3 1.8
v 0.3 0.3 1.8
v 0.3 0.3 1.9
v 0.7 0.3 1.9
v 0.1 0.3 1.8
v -0.1 0.3 1.8
v -0.1 0.3 1.9
v 0.1 0.3 1.9
v -0.3 0.3 1.8
v -0.7 0.3 1.8
v -0.7 0.3 1.9
v -0.3 0.3 1.9
v -0.9 0.3 1.8
v -1.1 0.3 1.8
v -1.1 0.3 1.9
v -0.9 0.3 1.9
v -1.3 0.3 1.8
v -1.7 0.3 1.8
v -1.7 0.3 1.9
v -1.3 0.3 1.9
v -1.9 0.3 1.8
v -2 0.3 1.8
v -1.9 0.3 1.9
v 2 0.8 1.8
v -2 0.8 1.8
v -2 0.8 2
v 2 0.8 2
v -2 0.2 1.8
v -2.1 0.2 1.8
v -2 0.2 2
v -2 0.7 1.8
v -2.2 0.7 1.8
v -2.2 0.7 2
v -2 0.7 2
v 4 0.1 0.3
v 3 0.1 0.3
v 3 0.2 0.3
v 2 0.2 0.3
v 2 0.3 0.3
v -2 0.3 0.3
v -2 0.2 0.3
v -2.2 0.2 0.3
v -2.2 0.2 1.8
v 4 0.1 0.1
v 3 0.1 0.1
v 3 0.2 0.1
v 2 0.2 0.1
v 2 0.3 0.1
v -2 0.3 0.1
v -2 0.2 0.1
v -2.2 0.2 0.1
v 4 0.1 -0.1
v 3 0.1 -0.1
v 3 0.2 -0.1
v 2 0.2 -0.1
v 2 0.3 -0.1
v -2 0.3 -0.1
v -2 0.2 -0.1
v -2.2 0.2 -0.1
v 4 0.1 -0.3
v 3 0.1 -0.3
v 3 0.2 -0.3
v 2 0.2 -0.3
v 2 0.3 -0.3
v -2 0.3 -0.3
v -2 0.2 -0.3
v -2.2 0.2 -0.3
v 4 0.1 -1.8
v 3 0.1 -1.8
v 3 0.2 -1.8
v 2 0.2 -1.8
v 2 0.3 -1.8
v -2 0.3 -1.8
v -2 0.2 -1.8
v -2.2 0.2 -1.8
v 4 0.1 -2
v 3.9 0.1 -2
v 3.9 0.1 -1.8
v 3.7 0.1 -2
v 3.7 0.1 -1.9
v 3.9 0.1 -1.9
v 3.3 0.1 -2
v 3.3 0.1 -1.8
v 3.7 0.1 -1.8
v 3.1 0.1 -2
v 3.1 0.1 -1.9
v 3.3 0.1 -1.9
v 3 0.1 -2
v 3.1 0.1 -1.8
v 4 0.6 -2
v 3 0.6 -2
v 3 0.6 -1.8
v 4 0.6 -1.8
v 3 0.2 -2
v 2.9 0.2 -2
v 2.9 0.2 -1.8
v 2.7 0.2 -2
v 2.7 0.2 -1.9
v 2.9 0.2 -1.9
v 2.3 0.2 -2
v 2.3 0.2 -1.8
v 2.7 0.2 -1.8
v 2.1 0.2 -2
v 2.1 0.2 -1.9
v 2.3 0.2 -1.9
v 2 0.2 -2
v 2.1 0.2 -1.8
v 3 0.7 -2
v 2 0.7 -2
v 2 0.7 -1.8
v 3 0.7 -1.8
v 2 0.3 -2
v 1.9 0.3 -2
v 1.9 0.3 -1.8
v 1.7 0.3 -2
v 1.7 0.3 -1.9
v 1.9 0.3 -1.9
v 1.3 0.3 -2
v 1.3 0.3 -1.8
v 1.7 0.3 -1.8
v 1.1 0.3 -2
v 1.1 0.3 -1.9
v 1.3 0.3 -1.9
v 0.9 0.3 -2
v 0.9 0.3 -1.8
v 1.1 0.3 -1.8
v 0.7 0.3 -2
v 0.7 0.3 -1.9
v 0.9 0.3 -1.9
v 0.3 0.3 -2
v 0.3 0.3 -1.8
v 0.7 0.3 -1.8
v 0.1 0.3 -2
v 0.1 0.3 -1.9
v 0.3 0.3 -1.9
v -0.1 0.3 -2
v -0.1 0.3 -1.8
v 0.1 0.3 -1.8
v -0.3 0.3 -2
v -0.3 0.3 -1.9
v -0.1 0.3 -1.9
v -0.7 0.3 -2
v -0.7 0.3 -1.8
v -0.3 0.3 -1.8
v -0.9 0.3 -2
v -0.9 0.3 -1.9
v -0.7 0.3 -1.9
v -1.1 0.3 -2
v -1.1 0.3 -1.8
v -0.9 0.3 -1.8
v -1.3 0.3 -2
v -1.3 0.3 -1.9
v -1.1 0.3 -1.9
v -1.7 0.3 -2
v -1.7 0.3 -1.8
v -1.3 0.3 -1.8
v -1.9 0.3 -2
v -1.9 0.3 -1.9
v -1.7 0.3 -1.9
v -2 0.3 -2
v -1.9 0.3 -1.8
v 2 0.8 -2
v -2 0.8 -2
v -2 0.8 -1.8
v 2 0.8 -1.8
v -2 0.2 -2
v -2.1 0.2 -2
v -2.1 0.2 -1.8
v -2.2 0.2 -2
v -2.2 0.2 -1.9
v -2.1 0.2 -1.9
v -2 0.7 -2
v -2.2 0.7 -2
v -2.2 0.7 -1.8
v -2 0.7 -1.8
v 3.9 0.5 1.9
v 3.9 0.5 2
v 3 0.5 2
v 3 0.5 1.9
v 2.9 0.6 1.9
v 2.9 0.6 2
v 2 0.6 2
v 2 0.6 1.9
v 1.9 0.7 1.9
v 1.9 0.7 2
v -2 0.7 1.9
v -2.1 0.6 1.9
v -2.1 0.6 2
v -2.2 0.6 2
v -2.2 0.6 1.9
v 4 0.5 1.8
v 4 0.5 2
v 3.9 0.5 1.8
v 3.7 0.5 1.8
v 3.7 0.5 1.9
v 3.3 0.5 1.9
v 3.3 0.5 1.8
v 4 0 1.8
v 4 0 2
v 3 0 2
v 3 0 1.8
v 3.1 0.5 1.8
v 3.1 0.5 1.9
v 3 0.5 1.8
v 2.9 0.6 1.8
v 2.7 0.6 1.8
v 2.7 0.6 1.9
v 2.3 0.6 1.9
v 2.3 0.6 1.8
v 2.1 0.1 2
v 2.1 0.1 1.8
v 2.1 0.6 1.8
v 2.1 0.6 1.9
v 2 0.6 1.8
v 2.1 0 1.8
v 2.1 0 2
v 1.9 0 2
v 1.9 0 1.8
v 1.9 0.7 1.8
v 1.7 0.7 1.8
v 1.7 0.7 1.9
v 1.3 0.7 1.9
v 1.3 0.7 1.8
v 1.1 0.7 1.8
v 1.1 0.7 1.9
v 0.9 0.7 1.9
v 0.9 0.7 1.8
v 0.7 0.7 1.8
v 0.7 0.7 1.9
v 0.3 0.7 1.9
v 0.3 0.7 1.8
v 0.1 0.7 1.8
v 0.1 0.7 1.9
v -0.1 0.7 1.9
v -0.1 0.7 1.8
v -0.3 0.7 1.8
v -0.3 0.7 1.9
v -0.7 0.7 1.9
v -0.7 0.7 1.8
v -0.9 0.7 1.8
v -0.9 0.7 1.9
v -1.1 0.7 1.9
v -1.1 0.7 1.8
v -1.3 0.7 1.8
v -1.3 0.7 1.9
v -1.7 0.7 1.9
v -1.7 0.7 1.8
v 1.9 0.2 1.8
v 1.9 0.2 2
v -1.9 0.2 2
v -1.9 0.2 1.8
v -1.9 0.7 1.8
v -1.9 0.7 1.9
v -1.9 0 1.8
v -1.9 0 2
v -2.1 0 2
v -2.1 0 1.8
v -2 0.6 1.8
v -2 0.6 2
v -2.1 0.6 1.8
v -2.1 0.1 1.8
v -2.1 0.1 2
v -2.2 0.1 2
v -2.2 0.1 1.8
v 4 0 0.3
v 3 0 0.3
v 2 0.1 1.8
v 2 0.1 0.3
v -2 0.1 0.3
v -2 0.1 1.8
v -2.2 0.1 0.3
v 4 0 0.1
v 3 0 0.1
v 2 0.1 0.1
v -2 0.1 0.1
v -2.2 0.1 0.1
v 4 0 -0.1
v 3 0 -0.1
v 2 0.1 -0.1
v -2 0.1 -0.1
v -2.2 0.1 -0.1
v 4 0 -0.3
v 3 0 -0.3
v 2 0.1 -0.3
v -2 0.1 -0.3
v -2.2 0.1 -0.3
v 4 0 -1.8
v 3 0 -1.8
v 2 0.1 -1.8
v -2 0.1 -1.8
v -2.2 0.1 -1.8
v 4 0.5 -2
v 4 0.5 -1.8
v 3.9 0.5 -1.8
v 3.9 0.5 -2
v 3.9 0.5 -1.9
v 3.7 0.5 -1.9
v 3.7 0.5 -2
v 3.7 0.5 -1.8
v 3.3 0.5 -1.8
v 3.3 0.5 -2
v 3.3 0.5 -1.9
v 3.1 0.5 -1.9
v 3.1 0.5 -2
v 4 0 -2
v 3 0 -2
v 3.1 0.5 -1.8
v 3 0.5 -1.8
v 3 0.5 -2
v 2.9 0.6 -1.8
v 2.9 0.6 -2
v 2.9 0.6 -1.9
v 2.7 0.6 -1.9
v 2.7 0.6 -2
v 2.7 0.6 -1.8
v 2.3 0.6 -1.8
v 2.3 0.6 -2
v 2.1 0.1 -1.8
v 2.1 0.1 -2
v 2.3 0.6 -1.9
v 2.1 0.6 -1.9
v 2.1 0.6 -2
v 2.1 0.6 -1.8
v 2 0.6 -1.8
v 2 0.6 -2
v 2.1 0 -2
v 2.1 0 -1.8
v 1.9 0 -1.8
v 1.9 0 -2
v 1.9 0.7 -1.8
v 1.9 0.7 -2
v 1.9 0.7 -1.9
v 1.7 0.7 -1.9
v 1.7 0.7 -2
v 1.7 0.7 -1.8
v 1.3 0.7 -1.8
v 1.3 0.7 -2
v 1.3 0.7 -1.9
v 1.1 0.7 -1.9
v 1.1 0.7 -2
v 1.1 0.7 -1.8
v 0.9 0.7 -1.8
v 0.9 0.7 -2
v 0.9 0.7 -1.9
v 0.7 0.7 -1.9
v 0.7 0.7 -2
v 0.7 0.7 -1.8
v 0.3 0.7 -1.8
v 0.3 0.7 -2
v 0.3 0.7 -1.9
v 0.1 0.7 -1.9
v 0.1 0.7 -2
v 0.1 0.7 -1.8
v -0.1 0.7 -1.8
v -0.1 0.7 -2
v -0.1 0.7 -1.9
v -0.3 0.7 -1.9
v -0.3 0.7 -2
v -0.3 0.7 -1.8
v -0.7 0.7 -1.8
v -0.7 0.7 -2
v -0.7 0.7 -1.9
v -0.9 0.7 -1.9
v -0.9 0.7 -2
v -0.9 0.7 -1.8
v -1.1 0.7 -1.8
v -1.1 0.7 -2
v -1.1 0.7 -1.9
v -1.3 0.7 -1.9
v -1.3 0.7 -2
v -1.3 0.7 -1.8
v -1.7 0.7 -1.8
v -1.7 0.7 -2
v 1.9 0.2 -2
v 1.9 0.2 -1.8
v -1.9 0.2 -1.8
v -1.9 0.2 -2
v -1.7 0.7 -1.9
v -1.9 0.7 -1.9
v -1.9 0.7 -2
v -1.9 0.7 -1.8
v -1.9 0 -2
v -1.9 0 -1.8
v -2.1 0 -1.8
v -2.1 0 -2
v -2 0.6 -2
v -2 0.6 -1.8
v -2.1 0.6 -1.8
v -2.1 0.6 -2
v -2.1 0.1 -2
v -2.1 0.1 -1.8
v -2.2 0.1 -2
v -2.1 0.6 -1.9
v -2.2 0.6 -1.9
v -2.2 0.6 -2
v 2 0.1 -2
v 1.9 0.1 1.8
v 1.9 0.1 -2
v -1.9 0.1 1.8
v -2 0.1 -2
v -1.9 0.1 -2
v -2.2 0.6 1.8
v 2 0.1 2
v 1.9 0.1 2
v 1.9 0.1 -1.8
v -2 0.1 2
v -1.9 0.1 2
v -1.9 0.1 -1.8
v -2.2 0.6 -1.8
v -3 0.2 1.9
v -3 0.2 2
v -3.1 0.1 1.9
v -4 0.1 1.9
v -4 0.1 2
v -3.1 0.1 2
v -2.3 0.2 1.8
v -2.7 0.2 1.8
v -2.7 0.2 1.9
v -2.3 0.2 1.9
v -2.9 0.2 1.8
v -3 0.2 1.8
v -2.9 0.2 1.9
v -3 0.7 1.8
v -3 0.7 2
v -3 0.1 1.8
v -3.1 0.1 1.8
v -3 0.1 2
v -3.3 0.1 1.8
v -3.7 0.1 1.8
v -3.7 0.1 1.9
v -3.3 0.1 1.9
v -3.9 0.1 1.8
v -4 0.1 1.8
v -3.9 0.1 1.9
v -3 0.6 1.8
v -4 0.6 1.8
v -4 0.6 2
v -3 0.6 2
v -3 0.2 0.3
v -3 0.1 0.3
v -4 0.1 0.3
v -3 0.2 0.1
v -3 0.1 0.1
v -4 0.1 0.1
v -3 0.2 -0.1
v -3 0.1 -0.1
v -4 0.1 -0.1
v -3 0.2 -0.3
v -3 0.1 -0.3
v -4 0.1 -0.3
v -3 0.2 -1.8
v -3 0.1 -1.8
v -4 0.1 -1.8
v -2.3 0.2 -2
v -2.3 0.2 -1.9
v -2.7 0.2 -2
v -2.7 0.2 -1.8
v -2.3 0.2 -1.8
v -2.9 0.2 -2
v -2.9 0.2 -1.9
v -2.7 0.2 -1.9
v -3 0.2 -2
v -2.9 0.2 -1.8
v -3 0.7 -2
v -3 0.7 -1.8
v -3 0.1 -2
v -3.1 0.1 -2
v -3.1 0.1 -1.8
v -3.3 0.1 -2
v -3.3 0.1 -1.9
v -3.1 0.1 -1.9
v -3.7 0.1 -2
v -3.7 0.1 -1.8
v -3.3 0.1 -1.8
v -3.9 0.1 -2
v -3.9 0.1 -1.9
v -3.7 0.1 -1.9
v -4 0.1 -2
v -3.9 0.1 -1.8
v -3 0.6 -2
v -4 0.6 -2
v -4 0.6 -1.8
v -3 0.6 -1.8
v -3 0.6 1.9
v -3.1 0.5 1.9
v -3.1 0.5 2
v -4 0.5 2
v -4 0.5 1.9
v -2.3 0.6 1.8
v -2.3 0.6 1.9
v -2.7 0.6 1.9
v -2.7 0.6 1.8
v -2.9 0.6 1.8
v -2.9 0.6 1.9
v -3 0.5 1.8
v -3 0.5 2
v -3.1 0.5 1.8
v -3.3 0.5 1.8
v -3.3 0.5 1.9
v -3.7 0.5 1.9
v -3.7 0.5 1.8
v -3 0 1.8
v -3 0 2
v -4 0 2
v -4 0 1.8
v -3.9 0.5 1.8
v -3.9 0.5 1.9
v -4 0.5 1.8
v -3 0 0.3
v -4 0 0.3
v -3 0 0.1
v -4 0 0.1
v -3 0 -0.1
v -4 0 -0.1
v -3 0 -0.3
v -4 0 -0.3
v -3 0 -1.8
v -4 0 -1.8
v -2.3 0.6 -1.9
v -2.3 0.6 -2
v -2.3 0.6 -1.8
v -2.7 0.6 -1.8
v -2.7 0.6 -2
v -2.7 0.6 -1.9
v -2.9 0.6 -1.9
v -2.9 0.6 -2
v -2.9 0.6 -1.8
v -3 0.5 -2
v -3 0.5 -1.8
v -3.1 0.5 -1.8
v -3.1 0.5 -2
v -3.1 0.5 -1.9
v -3.3 0.5 -1.9
v -3.3 0.5 -2
v -3.3 0.5 -1.8
v -3.7 0.5 -1.8
v -3.7 0.5 -2
v -3.7 0.5 -1.9
v -3.9 0.5 -1.9
v -3.9 0.5 -2
v -3 0 -2
v -4 0 -2
v -3.9 0.5 -1.8
v -4 0.5 -1.8
v -4 0.5 -2

vt 0.0292969 0.5
vt 0.0410156 0.5
vt 0.0683594 0.5
vt 0.0839844 0.5

vn 0 1 0
vn 0 -1 0
vn -1 0 0
vn 1 0 0
vn 0 0 -1
vn 0 0 1

usemtl palette
f 1/1/1 2/1/1 4/1/1
f 4/1/1 2/1/1 3/1/1
f 5/1/1 6/1/1 8/1/1
f 8/1/1 6/1/1 7/1/1
f 9/1/1 10/1/1 12/1/1
f 12/1/1 10/1/1 11/1/1
f 13/1/1 14/1/1 16/1/1
f 16/1/1 14/1/1 15/1/1
f 17/1/1 18/1/1 19/1/1
f 19/1/1 18/1/1 4/1/1
f 20/1/1 21/1/1 23/1/1
f 23/1/1 21/1/1 22/1/1
f 24/1/1 25/1/1 26/1/1
f 26/1/1 25/1/1 2/1/1
f 27/2/1 28/2/1 30/2/1
f 30/2/1 28/2/1 29/2/1
f 31/1/1 32/1/1 33/1/1
f 33/1/1 32/1/1 8/1/1
f 34/1/1 35/1/1 37/1/1
f 37/1/1 35/1/1 36/1/1
f 38/1/1 39/1/1 40/1/1
f 40/1/1 39/1/1 6/1/1
f 41/2/1 42/2/1 44/2/1
f 44/2/1 42/2/1 43/2/1
f 45/1/1 46/1/1 47/1/1
f 47/1/1 46/1/1 12/1/1
f 48/1/1 49/1/1 51/1/1
f 51/1/1 49/1/1 50/1/1
f 52/1/1 53/1/1 55/1/1
f 55/1/1 53/1/1 54/1/1
f 56/1/1 57/1/1 59/1/1
f 59/1/1 57/1/1 58/1/1
f 60/1/1 61/1/1 63/1/1
f 63/1/1 61/1/1 62/1/1
f 64/1/1 65/1/1 67/1/1
f 67/1/1 65/1/1 66/1/1
f 68/1/1 69/1/1 71/1/1
f 71/1/1 69/1/1 70/1/1
f 72/1/1 73/1/1 75/1/1
f 75/1/1 73/1/1 74/1/1
f 76/1/1 77/1/1 78/1/1
f 78/1/1 77/1/1 10/1/1
f 79/2/1 80/2/1 82/2/1
f 82/2/1 80/2/1 81/2/1
f 83/1/1 84/1/1 85/1/1
f 85/1/1 84/1/1 16/1/1
f 86/2/1 87/2/1 89/2/1
f 89/2/1 87/2/1 88/2/1
f 90/3/1 91/3/1 17/3/1
f 17/3/1 91/3/1 25/3/1
f 92/3/1 93/3/1 31/3/1
f 31/3/1 93/3/1 39/3/1
f 94/3/1 95/3/1 45/3/1
f 45/3/1 95/3/1 77/3/1
f 96/3/1 97/3/1 83/3/1
f 83/3/1 97/3/1 98/3/1
f 99/1/1 100/1/1 90/1/1
f 90/1/1 100/1/1 91/1/1
f 101/1/1 102/1/1 92/1/1
f 92/1/1 102/1/1 93/1/1
f 103/1/1 104/1/1 94/1/1
f 94/1/1 104/1/1 95/1/1
f 105/1/1 106/1/1 96/1/1
f 96/1/1 106/1/1 97/1/1
f 107/3/1 108/3/1 99/3/1
f 99/3/1 108/3/1 100/3/1
f 109/3/1 110/3/1 101/3/1
f 101/3/1 110/3/1 102/3/1
f 111/3/1 112/3/1 103/3/1
f 103/3/1 112/3/1 104/3/1
f 113/3/1 114/3/1 105/3/1
f 105/3/1 114/3/1 106/3/1
f 115/1/1 116/1/1 107/1/1
f 107/1/1 116/1/1 108/1/1
f 117/1/1 118/1/1 109/1/1
f 109/1/1 118/1/1 110/1/1
f 119/1/1 120/1/1 111/1/1
f 111/1/1 120/1/1 112/1/1
f 121/1/1 122/1/1 113/1/1
f 113/1/1 122/1/1 114/1/1
f 123/3/1 124/3/1 115/3/1
f 115/3/1 124/3/1 116/3/1
f 125/3/1 126/3/1 117/3/1
f 117/3/1 126/3/1 118/3/1
f 127/3/1 128/3/1 119/3/1
f 119/3/1 128/3/1 120/3/1
f 129/3/1 130/3/1 121/3/1
f 121/3/1 130/3/1 122/3/1
f 131/1/1 132/1/1 123/1/1
f 123/1/1 132/1/1 133/1/1
f 132/1/1 134/1/1 136/1/1
f 136/1/1 134/1/1 135/1/1
f 134/1/1 137/1/1 139/1/1
f 139/1/1 137/1/1 138/1/1
f 137/1/1 140/1/1 142/1/1
f 142/1/1 140/1/1 141/1/1
f 140/1/1 143/1/1 144/1/1
f 144/1/1 143/1/1 124/1/1
f 145/2/1 146/2/1 148/2/1
f 148/2/1 146/2/1 147/2/1
f 149/1/1 150/1/1 125/1/1
f 125/1/1 150/1/1 151/1/1
f 150/1/1 152/1/1 154/1/1
f 154/1/1 152/1/1 153/1/1
f 152/1/1 155/1/1 157/1/1
f 157/1/1 155/1/1 156/1/1
f 155/1/1 158/1/1 160/1/1
f 160/1/1 158/1/1 159/1/1
f 158/1/1 161/1/1 162/1/1
f 162/1/1 161/1/1 126/1/1
f 163/2/1 164/2/1 166/2/1
f 166/2/1 164/2/1 165/2/1
f 167/1/1 168/1/1 127/1/1
f 127/1/1 168/1/1 169/1/1
f 168/1/1 170/1/1 172/1/1
f 172/1/1 170/1/1 171/1/1
f 170/1/1 173/1/1 175/1/1
f 175/1/1 173/1/1 174/1/1
f 173/1/1 176/1/1 178/1/1
f 178/1/1 176/1/1 177/1/1
f 176/1/1 179/1/1 181/1/1
f 181/1/1 179/1/1 180/1/1
f 179/1/1 182/1/1 184/1/1
f 184/1/1 182/1/1 183/1/1
f 182/1/1 185/1/1 187/1/1
f 187/1/1 185/1/1 186/1/1
f 185/1/1 188/1/1 190/1/1
f 190/1/1 188/1/1 189/1/1
f 188/1/1 191/1/1 193/1/1
f 193/1/1 191/1/1 192/1/1
f 191/1/1 194/1/1 196/1/1
f 196/1/1 194/1/1 195/1/1
f 194/1/1 197/1/1 199/1/1
f 199/1/1 197/1/1 198/1/1
f 197/1/1 200/1/1 202/1/1
f 202/1/1 200/1/1 201/1/1
f 200/1/1 203/1/1 205/1/1
f 205/1/1 203/1/1 204/1/1
f 203/1/1 206/1/1 208/1/1
f 208/1/1 206/1/1 207/1/1
f 206/1/1 209/1/1 211/1/1
f 211/1/1 209/1/1 210/1/1
f 209/1/1 212/1/1 214/1/1
f 214/1/1 212/1/1 213/1/1
f 212/1/1 215/1/1 216/1/1
f 216/1/1 215/1/1 128/1/1
f 217/2/1 218/2/1 220/2/1
f 220/2/1 218/2/1 219/2/1
f 221/1/1 222/1/1 129/1/1
f 129/1/1 222/1/1 223/1/1
f 222/1/1 224/1/1 226/1/1
f 226/1/1 224/1/1 225/1/1
f 227/2/1 228/2/1 230/2/1
f 230/2/1 228/2/1 229/2/1
f 231/2/2 232/2/2 234/2/2
f 234/2/2 232/2/2 233/2/2
f 235/2/2 236/2/2 238/2/2
f 238/2/2 236/2/2 237/2/2
f 239/2/2 240/2/2 241/2/2
f 241/2/2 240/2/2 89/2/2
f 242/2/2 243/2/2 245/2/2
f 245/2/2 243/2/2 244/2/2
f 246/2/2 247/2/2 248/2/2
f 248/2/2 247/2/2 232/2/2
f 249/2/2 250/2/2 252/2/2
f 252/2/2 250/2/2 251/2/2
f 253/1/2 254/1/2 256/1/2
f 256/1/2 254/1/2 255/1/2
f 257/2/2 258/2/2 259/2/2
f 259/2/2 258/2/2 234/2/2
f 28/2/2 29/2/2 260/2/2
f 260/2/2 29/2/2 236/2/2
f 261/2/2 262/2/2 264/2/2
f 264/2/2 262/2/2 263/2/2
f 25/1/2 3/1/2 266/1/2
f 266/1/2 3/1/2 265/1/2
f 267/2/2 268/2/2 269/2/2
f 269/2/2 268/2/2 238/2/2
f 270/3/2 271/3/2 273/3/2
f 273/3/2 271/3/2 272/3/2
f 42/2/2 43/2/2 274/2/2
f 274/2/2 43/2/2 240/2/2
f 275/2/2 276/2/2 278/2/2
f 278/2/2 276/2/2 277/2/2
f 279/2/2 280/2/2 282/2/2
f 282/2/2 280/2/2 281/2/2
f 283/2/2 284/2/2 286/2/2
f 286/2/2 284/2/2 285/2/2
f 287/2/2 288/2/2 290/2/2
f 290/2/2 288/2/2 289/2/2
f 291/2/2 292/2/2 294/2/2
f 294/2/2 292/2/2 293/2/2
f 295/2/2 296/2/2 298/2/2
f 298/2/2 296/2/2 297/2/2
f 299/2/2 300/2/2 302/2/2
f 302/2/2 300/2/2 301/2/2
f 303/1/2 304/1/2 306/1/2
f 306/1/2 304/1/2 305/1/2
f 307/2/2 308/2/2 86/2/2
f 86/2/2 308/2/2 241/2/2
f 309/3/2 310/3/2 312/3/2
f 312/3/2 310/3/2 311/3/2
f 313/2/2 314/2/2 315/2/2
f 315/2/2 314/2/2 243/2/2
f 316/1/2 317/1/2 319/1/2
f 319/1/2 317/1/2 318/1/2
f 320/3/2 253/3/2 321/3/2
f 321/3/2 253/3/2 256/3/2
f 91/3/2 25/3/2 323/3/2
f 323/3/2 25/3/2 322/3/2
f 93/3/2 39/3/2 96/3/2
f 96/3/2 39/3/2 83/3/2
f 324/3/2 325/3/2 326/3/2
f 326/3/2 325/3/2 319/3/2
f 327/1/2 320/1/2 328/1/2
f 328/1/2 320/1/2 321/1/2
f 100/1/2 91/1/2 329/1/2
f 329/1/2 91/1/2 323/1/2
f 102/1/2 93/1/2 105/1/2
f 105/1/2 93/1/2 96/1/2
f 330/1/2 324/1/2 331/1/2
f 331/1/2 324/1/2 326/1/2
f 332/3/2 327/3/2 333/3/2
f 333/3/2 327/3/2 328/3/2
f 108/3/2 100/3/2 334/3/2
f 334/3/2 100/3/2 329/3/2
f 110/3/2 102/3/2 113/3/2
f 113/3/2 102/3/2 105/3/2
f 335/3/2 330/3/2 336/3/2
f 336/3/2 330/3/2 331/3/2
f 337/1/2 332/1/2 338/1/2
f 338/1/2 332/1/2 333/1/2
f 116/1/2 108/1/2 339/1/2
f 339/1/2 108/1/2 334/1/2
f 118/1/2 110/1/2 121/1/2
f 121/1/2 110/1/2 113/1/2
f 340/1/2 335/1/2 341/1/2
f 341/1/2 335/1/2 336/1/2
f 342/3/2 337/3/2 343/3/2
f 343/3/2 337/3/2 338/3/2
f 124/3/2 116/3/2 344/3/2
f 344/3/2 116/3/2 339/3/2
f 126/3/2 118/3/2 129/3/2
f 129/3/2 118/3/2 121/3/2
f 345/3/2 340/3/2 346/3/2
f 346/3/2 340/3/2 341/3/2
f 347/2/2 348/2/2 350/2/2
f 350/2/2 348/2/2 349/2/2
f 350/2/2 351/2/2 353/2/2
f 353/2/2 351/2/2 352/2/2
f 353/2/2 354/2/2 356/2/2
f 356/2/2 354/2/2 355/2/2
f 356/2/2 357/2/2 359/2/2
f 359/2/2 357/2/2 358/2/2
f 360/1/2 342/1/2 361/1/2
f 361/1/2 342/1/2 343/1/2
f 359/2/2 362/2/2 364/2/2
f 364/2/2 362/2/2 363/2/2
f 146/2/2 147/2/2 366/2/2
f 366/2/2 147/2/2 365/2/2
f 366/2/2 367/2/2 369/2/2
f 369/2/2 367/2/2 368/2/2
f 369/2/2 370/2/2 372/2/2
f 372/2/2 370/2/2 371/2/2
f 143/1/2 124/1/2 374/1/2
f 374/1/2 124/1/2 373/1/2
f 372/2/2 375/2/2 377/2/2
f 377/2/2 375/2/2 376/2/2
f 377/2/2 378/2/2 380/2/2
f 380/2/2 378/2/2 379/2/2
f 381/3/2 382/3/2 384/3/2
f 384/3/2 382/3/2 383/3/2
f 164/2/2 165/2/2 386/2/2
f 386/2/2 165/2/2 385/2/2
f 386/2/2 387/2/2 389/2/2
f 389/2/2 387/2/2 388/2/2
f 389/2/2 390/2/2 392/2/2
f 392/2/2 390/2/2 391/2/2
f 392/2/2 393/2/2 395/2/2
f 395/2/2 393/2/2 394/2/2
f 395/2/2 396/2/2 398/2/2
f 398/2/2 396/2/2 397/2/2
f 398/2/2 399/2/2 401/2/2
f 401/2/2 399/2/2 400/2/2
f 401/2/2 402/2/2 404/2/2
f 404/2/2 402/2/2 403/2/2
f 404/2/2 405/2/2 407/2/2
f 407/2/2 405/2/2 406/2/2
f 407/2/2 408/2/2 410/2/2
f 410/2/2 408/2/2 409/2/2
f 410/2/2 411/2/2 413/2/2
f 413/2/2 411/2/2 412/2/2
f 413/2/2 414/2/2 416/2/2
f 416/2/2 414/2/2 415/2/2
f 416/2/2 417/2/2 419/2/2
f 419/2/2 417/2/2 418/2/2
f 419/2/2 420/2/2 422/2/2
f 422/2/2 420/2/2 421/2/2
f 422/2/2 423/2/2 425/2/2
f 425/2/2 423/2/2 424/2/2
f 425/2/2 426/2/2 428/2/2
f 428/2/2 426/2/2 427/2/2
f 429/1/2 430/1/2 432/1/2
f 432/1/2 430/1/2 431/1/2
f 428/2/2 433/2/2 435/2/2
f 435/2/2 433/2/2 434/2/2
f 435/2/2 436/2/2 227/2/2
f 227/2/2 436/2/2 230/2/2
f 437/3/2 438/3/2 440/3/2
f 440/3/2 438/3/2 439/3/2
f 441/2/2 442/2/2 444/2/2
f 444/2/2 442/2/2 443/2/2
f 445/1/2 446/1/2 447/1/2
f 447/1/2 446/1/2 346/1/2
f 444/2/2 448/2/2 450/2/2
f 450/2/2 448/2/2 449/2/2
f 3/1/3 25/1/3 255/1/3
f 255/1/3 25/1/3 256/1/3
f 317/3/3 316/3/3 311/3/3
f 311/3/3 316/3/3 312/3/3
f 25/3/3 91/3/3 256/3/3
f 256/3/3 91/3/3 321/3/3
f 91/1/3 100/1/3 321/1/3
f 321/1/3 100/1/3 328/1/3
f 100/3/3 108/3/3 328/3/3
f 328/3/3 108/3/3 333/3/3
f 108/1/3 116/1/3 333/1/3
f 333/1/3 116/1/3 338/1/3
f 116/3/3 124/3/3 338/3/3
f 338/3/3 124/3/3 343/3/3
f 124/1/3 143/1/3 343/1/3
f 343/1/3 143/1/3 361/1/3
f 446/3/3 445/3/3 439/3/3
f 439/3/3 445/3/3 440/3/3
f 304/3/3 303/3/3 272/3/3
f 272/3/3 303/3/3 273/3/3
f 39/3/3 93/3/3 322/3/3
f 322/3/3 93/3/3 323/3/3
f 93/1/3 102/1/3 323/1/3
f 323/1/3 102/1/3 329/1/3
f 102/3/3 110/3/3 329/3/3
f 329/3/3 110/3/3 334/3/3
f 110/1/3 118/1/3 334/1/3
f 334/1/3 118/1/3 339/1/3
f 118/3/3 126/3/3 339/3/3
f 339/3/3 126/3/3 344/3/3
f 430/3/3 429/3/3 383/3/3
f 383/3/3 429/3/3 384/3/3
f 11/1/3 77/1/3 85/1/3
f 85/1/3 77/1/3 83/1/3
f 77/3/3 95/3/3 83/3/3
f 83/3/3 95/3/3 96/3/3
f 95/1/3 104/1/3 96/1/3
f 96/1/3 104/1/3 105/1/3
f 104/3/3 112/3/3 105/3/3
f 105/3/3 112/3/3 113/3/3
f 112/1/3 120/1/3 113/1/3
f 113/1/3 120/1/3 121/1/3
f 120/3/3 128/3/3 121/3/3
f 121/3/3 128/3/3 129/3/3
f 128/1/3 215/1/3 129/1/3
f 129/1/3 215/1/3 221/1/3
f 250/4/3 249/4/3 23/4/3
f 23/4/3 249/4/3 20/4/3
f 258/4/3 257/4/3 26/4/3
f 26/4/3 257/4/3 24/4/3
f 354/4/3 352/4/3 139/4/3
f 139/4/3 352/4/3 135/4/3
f 362/4/3 358/4/3 144/4/3
f 144/4/3 358/4/3 141/4/3
f 29/2/3 28/2/3 233/2/3
f 233/2/3 28/2/3 259/2/3
f 262/4/3 261/4/3 37/4/3
f 37/4/3 261/4/3 34/4/3
f 268/4/3 267/4/3 40/4/3
f 40/4/3 267/4/3 38/4/3
f 370/4/3 368/4/3 157/4/3
f 157/4/3 368/4/3 153/4/3
f 378/4/3 376/4/3 162/4/3
f 162/4/3 376/4/3 159/4/3
f 147/2/3 146/2/3 363/2/3
f 363/2/3 146/2/3 364/2/3
f 43/2/3 42/2/3 237/2/3
f 237/2/3 42/2/3 269/2/3
f 276/4/3 275/4/3 51/4/3
f 51/4/3 275/4/3 48/4/3
f 280/4/3 279/4/3 55/4/3
f 55/4/3 279/4/3 52/4/3
f 284/4/3 283/4/3 59/4/3
f 59/4/3 283/4/3 56/4/3
f 288/4/3 287/4/3 63/4/3
f 63/4/3 287/4/3 60/4/3
f 292/4/3 291/4/3 67/4/3
f 67/4/3 291/4/3 64/4/3
f 296/4/3 295/4/3 71/4/3
f 71/4/3 295/4/3 68/4/3
f 300/4/3 299/4/3 75/4/3
f 75/4/3 299/4/3 72/4/3
f 308/4/3 307/4/3 78/4/3
f 78/4/3 307/4/3 76/4/3
f 390/4/3 388/4/3 175/4/3
f 175/4/3 388/4/3 171/4/3
f 396/4/3 394/4/3 181/4/3
f 181/4/3 394/4/3 177/4/3
f 402/4/3 400/4/3 187/4/3
f 187/4/3 400/4/3 183/4/3
f 408/4/3 406/4/3 193/4/3
f 193/4/3 406/4/3 189/4/3
f 414/4/3 412/4/3 199/4/3
f 199/4/3 412/4/3 195/4/3
f 420/4/3 418/4/3 205/4/3
f 205/4/3 418/4/3 201/4/3
f 426/4/3 424/4/3 211/4/3
f 211/4/3 424/4/3 207/4/3
f 436/4/3 434/4/3 216/4/3
f 216/4/3 434/4/3 213/4/3
f 165/2/3 164/2/3 379/2/3
f 379/2/3 164/2/3 380/2/3
f 81/2/3 80/2/3 89/2/3
f 89/2/3 80/2/3 86/2/3
f 219/2/3 218/2/3 230/2/3
f 230/2/3 218/2/3 227/2/3
f 19/1/4 254/1/4 17/1/4
f 17/1/4 254/1/4 253/1/4
f 265/3/4 271/3/4 266/3/4
f 266/3/4 271/3/4 270/3/4
f 17/3/4 253/3/4 90/3/4
f 90/3/4 253/3/4 320/3/4
f 90/1/4 320/1/4 99/1/4
f 99/1/4 320/1/4 327/1/4
f 99/3/4 327/3/4 107/3/4
f 107/3/4 327/3/4 332/3/4
f 107/1/4 332/1/4 115/1/4
f 115/1/4 332/1/4 337/1/4
f 115/3/4 337/3/4 123/3/4
f 123/3/4 337/3/4 342/3/4
f 123/1/4 342/1/4 131/1/4
f 131/1/4 342/1/4 360/1/4
f 373/3/4 382/3/4 374/3/4
f 374/3/4 382/3/4 381/3/4
f 33/1/4 3/1/4 31/1/4
f 31/1/4 3/1/4 25/1/4
f 305/3/4 310/3/4 306/3/4
f 306/3/4 310/3/4 309/3/4
f 31/3/4 25/3/4 92/3/4
f 92/3/4 25/3/4 91/3/4
f 83/3/4 325/3/4 96/3/4
f 96/3/4 325/3/4 324/3/4
f 92/1/4 91/1/4 101/1/4
f 101/1/4 91/1/4 100/1/4
f 96/1/4 324/1/4 105/1/4
f 105/1/4 324/1/4 330/1/4
f 101/3/4 100/3/4 109/3/4
f 109/3/4 100/3/4 108/3/4
f 105/3/4 330/3/4 113/3/4
f 113/3/4 330/3/4 335/3/4
f 109/1/4 108/1/4 117/1/4
f 117/1/4 108/1/4 116/1/4
f 113/1/4 335/1/4 121/1/4
f 121/1/4 335/1/4 340/1/4
f 117/3/4 116/3/4 125/3/4
f 125/3/4 116/3/4 124/3/4
f 121/3/4 340/3/4 129/3/4
f 129/3/4 340/3/4 345/3/4
f 125/1/4 124/1/4 149/1/4
f 149/1/4 124/1/4 143/1/4
f 431/3/4 438/3/4 432/3/4
f 432/3/4 438/3/4 437/3/4
f 47/1/4 7/1/4 45/1/4
f 45/1/4 7/1/4 39/1/4
f 45/3/4 39/3/4 94/3/4
f 94/3/4 39/3/4 93/3/4
f 94/1/4 93/1/4 103/1/4
f 103/1/4 93/1/4 102/1/4
f 103/3/4 102/3/4 111/3/4
f 111/3/4 102/3/4 110/3/4
f 111/1/4 110/1/4 119/1/4
f 119/1/4 110/1/4 118/1/4
f 119/3/4 118/3/4 127/3/4
f 127/3/4 118/3/4 126/3/4
f 127/1/4 126/1/4 167/1/4
f 167/1/4 126/1/4 161/1/4
f 231/4/4 1/4/4 248/4/4
f 248/4/4 1/4/4 18/4/4
f 251/4/4 22/4/4 252/4/4
f 252/4/4 22/4/4 21/4/4
f 349/4/4 133/4/4 351/4/4
f 351/4/4 133/4/4 136/4/4
f 355/4/4 138/4/4 357/4/4
f 357/4/4 138/4/4 142/4/4
f 30/2/4 247/2/4 27/2/4
f 27/2/4 247/2/4 246/2/4
f 235/4/4 5/4/4 260/4/4
f 260/4/4 5/4/4 32/4/4
f 263/4/4 36/4/4 264/4/4
f 264/4/4 36/4/4 35/4/4
f 242/4/4 13/4/4 315/4/4
f 315/4/4 13/4/4 84/4/4
f 365/4/4 151/4/4 367/4/4
f 367/4/4 151/4/4 154/4/4
f 371/4/4 156/4/4 375/4/4
f 375/4/4 156/4/4 160/4/4
f 443/4/4 223/4/4 448/4/4
f 448/4/4 223/4/4 226/4/4
f 148/2/4 348/2/4 145/2/4
f 145/2/4 348/2/4 347/2/4
f 44/2/4 29/2/4 41/2/4
f 41/2/4 29/2/4 28/2/4
f 239/4/4 9/4/4 274/4/4
f 274/4/4 9/4/4 46/4/4
f 277/4/4 50/4/4 278/4/4
f 278/4/4 50/4/4 49/4/4
f 281/4/4 54/4/4 282/4/4
f 282/4/4 54/4/4 53/4/4
f 285/4/4 58/4/4 286/4/4
f 286/4/4 58/4/4 57/4/4
f 289/4/4 62/4/4 290/4/4
f 290/4/4 62/4/4 61/4/4
f 293/4/4 66/4/4 294/4/4
f 294/4/4 66/4/4 65/4/4
f 297/4/4 70/4/4 298/4/4
f 298/4/4 70/4/4 69/4/4
f 301/4/4 74/4/4 302/4/4
f 302/4/4 74/4/4 73/4/4
f 89/2/4 314/2/4 86/2/4
f 86/2/4 314/2/4 313/2/4
f 385/4/4 169/4/4 387/4/4
f 387/4/4 169/4/4 172/4/4
f 391/4/4 174/4/4 393/4/4
f 393/4/4 174/4/4 178/4/4
f 397/4/4 180/4/4 399/4/4
f 399/4/4 180/4/4 184/4/4
f 403/4/4 186/4/4 405/4/4
f 405/4/4 186/4/4 190/4/4
f 409/4/4 192/4/4 411/4/4
f 411/4/4 192/4/4 196/4/4
f 415/4/4 198/4/4 417/4/4
f 417/4/4 198/4/4 202/4/4
f 421/4/4 204/4/4 423/4/4
f 423/4/4 204/4/4 208/4/4
f 427/4/4 210/4/4 433/4/4
f 433/4/4 210/4/4 214/4/4
f 166/2/4 147/2/4 163/2/4
f 163/2/4 147/2/4 146/2/4
f 230/2/4 442/2/4 227/2/4
f 227/2/4 442/2/4 441/2/4
f 82/2/4 43/2/4 79/2/4
f 79/2/4 43/2/4 42/2/4
f 220/2/4 165/2/4 217/2/4
f 217/2/4 165/2/4 164/2/4
f 20/4/5 249/4/5 18/4/5
f 18/4/5 249/4/5 248/4/5
f 135/4/5 352/4/5 136/4/5
f 136/4/5 352/4/5 351/4/5
f 24/4/5 257/4/5 21/4/5
f 21/4/5 257/4/5 252/4/5
f 141/4/5 358/4/5 142/4/5
f 142/4/5 358/4/5 357/4/5
f 361/1/5 143/1/5 360/1/5
f 360/1/5 143/1/5 131/1/5
f 259/2/5 28/2/5 246/2/5
f 246/2/5 28/2/5 27/2/5
f 364/2/5 146/2/5 347/2/5
f 347/2/5 146/2/5 145/2/5
f 34/4/5 261/4/5 32/4/5
f 32/4/5 261/4/5 260/4/5
f 153/4/5 368/4/5 154/4/5
f 154/4/5 368/4/5 367/4/5
f 38/4/5 267/4/5 35/4/5
f 35/4/5 267/4/5 264/4/5
f 159/4/5 376/4/5 160/4/5
f 160/4/5 376/4/5 375/4/5
f 451/1/5 161/1/5 143/1/5
f 143/1/5 161/1/5 149/1/5
f 269/2/5 42/2/5 28/2/5
f 28/2/5 42/2/5 41/2/5
f 380/2/5 164/2/5 146/2/5
f 146/2/5 164/2/5 163/2/5
f 273/3/5 452/3/5 270/3/5
f 270/3/5 452/3/5 266/3/5
f 384/3/5 453/3/5 381/3/5
f 381/3/5 453/3/5 374/3/5
f 452/3/5 303/3/5 322/3/5
f 322/3/5 303/3/5 39/3/5
f 453/3/5 429/3/5 451/3/5
f 451/3/5 429/3/5 161/3/5
f 48/4/5 275/4/5 46/4/5
f 46/4/5 275/4/5 274/4/5
f 171/4/5 388/4/5 172/4/5
f 172/4/5 388/4/5 387/4/5
f 52/4/5 279/4/5 49/4/5
f 49/4/5 279/4/5 278/4/5
f 177/4/5 394/4/5 178/4/5
f 178/4/5 394/4/5 393/4/5
f 56/4/5 283/4/5 53/4/5
f 53/4/5 283/4/5 282/4/5
f 183/4/5 400/4/5 184/4/5
f 184/4/5 400/4/5 399/4/5
f 60/4/5 287/4/5 57/4/5
f 57/4/5 287/4/5 286/4/5
f 189/4/5 406/4/5 190/4/5
f 190/4/5 406/4/5 405/4/5
f 64/4/5 291/4/5 61/4/5
f 61/4/5 291/4/5 290/4/5
f 195/4/5 412/4/5 196/4/5
f 196/4/5 412/4/5 411/4/5
f 68/4/5 295/4/5 65/4/5
f 65/4/5 295/4/5 294/4/5
f 201/4/5 418/4/5 202/4/5
f 202/4/5 418/4/5 417/4/5
f 72/4/5 299/4/5 69/4/5
f 69/4/5 299/4/5 298/4/5
f 207/4/5 424/4/5 208/4/5
f 208/4/5 424/4/5 423/4/5
f 76/4/5 307/4/5 73/4/5
f 73/4/5 307/4/5 302/4/5
f 213/4/5 434/4/5 214/4/5
f 214/4/5 434/4/5 433/4/5
f 325/3/5 83/3/5 454/3/5
f 454/3/5 83/3/5 306/3/5
f 455/3/5 221/3/5 456/3/5
f 456/3/5 221/3/5 432/3/5
f 221/1/5 215/1/5 161/1/5
f 161/1/5 215/1/5 167/1/5
f 86/2/5 80/2/5 42/2/5
f 42/2/5 80/2/5 79/2/5
f 227/2/5 218/2/5 164/2/5
f 164/2/5 218/2/5 217/2/5
f 312/3/5 316/3/5 309/3/5
f 309/3/5 316/3/5 454/3/5
f 440/3/5 445/3/5 437/3/5
f 437/3/5 445/3/5 456/3/5
f 447/1/5 224/1/5 455/1/5
f 455/1/5 224/1/5 221/1/5
f 98/4/5 457/4/5 84/4/5
f 84/4/5 457/4/5 315/4/5
f 225/4/5 449/4/5 226/4/5
f 226/4/5 449/4/5 448/4/5
f 457/2/5 87/2/5 313/2/5
f 313/2/5 87/2/5 86/2/5
f 450/2/5 228/2/5 441/2/5
f 441/2/5 228/2/5 227/2/5
f 23/4/6 1/4/6 250/4/6
f 250/4/6 1/4/6 231/4/6
f 139/4/6 133/4/6 354/4/6
f 354/4/6 133/4/6 349/4/6
f 26/4/6 22/4/6 258/4/6
f 258/4/6 22/4/6 251/4/6
f 144/4/6 138/4/6 362/4/6
f 362/4/6 138/4/6 355/4/6
f 255/1/6 254/1/6 3/1/6
f 3/1/6 254/1/6 19/1/6
f 233/2/6 247/2/6 29/2/6
f 29/2/6 247/2/6 30/2/6
f 363/2/6 348/2/6 147/2/6
f 147/2/6 348/2/6 148/2/6
f 37/4/6 5/4/6 262/4/6
f 262/4/6 5/4/6 235/4/6
f 157/4/6 151/4/6 370/4/6
f 370/4/6 151/4/6 365/4/6
f 40/4/6 36/4/6 268/4/6
f 268/4/6 36/4/6 263/4/6
f 162/4/6 156/4/6 378/4/6
f 378/4/6 156/4/6 371/4/6
f 458/1/6 3/1/6 7/1/6
f 7/1/6 3/1/6 33/1/6
f 237/2/6 29/2/6 43/2/6
f 43/2/6 29/2/6 44/2/6
f 379/2/6 147/2/6 165/2/6
f 165/2/6 147/2/6 166/2/6
f 272/3/6 271/3/6 459/3/6
f 459/3/6 271/3/6 265/3/6
f 383/3/6 382/3/6 460/3/6
f 460/3/6 382/3/6 373/3/6
f 459/3/6 458/3/6 304/3/6
f 304/3/6 458/3/6 7/3/6
f 460/3/6 344/3/6 430/3/6
f 430/3/6 344/3/6 126/3/6
f 51/4/6 9/4/6 276/4/6
f 276/4/6 9/4/6 239/4/6
f 175/4/6 169/4/6 390/4/6
f 390/4/6 169/4/6 385/4/6
f 55/4/6 50/4/6 280/4/6
f 280/4/6 50/4/6 277/4/6
f 181/4/6 174/4/6 396/4/6
f 396/4/6 174/4/6 391/4/6
f 59/4/6 54/4/6 284/4/6
f 284/4/6 54/4/6 281/4/6
f 187/4/6 180/4/6 402/4/6
f 402/4/6 180/4/6 397/4/6
f 63/4/6 58/4/6 288/4/6
f 288/4/6 58/4/6 285/4/6
f 193/4/6 186/4/6 408/4/6
f 408/4/6 186/4/6 403/4/6
f 67/4/6 62/4/6 292/4/6
f 292/4/6 62/4/6 289/4/6
f 199/4/6 192/4/6 414/4/6
f 414/4/6 192/4/6 409/4/6
f 71/4/6 66/4/6 296/4/6
f 296/4/6 66/4/6 293/4/6
f 205/4/6 198/4/6 420/4/6
f 420/4/6 198/4/6 415/4/6
f 75/4/6 70/4/6 300/4/6
f 300/4/6 70/4/6 297/4/6
f 211/4/6 204/4/6 426/4/6
f 426/4/6 204/4/6 421/4/6
f 78/4/6 74/4/6 308/4/6
f 308/4/6 74/4/6 301/4/6
f 216/4/6 210/4/6 436/4/6
f 436/4/6 210/4/6 427/4/6
f 461/3/6 462/3/6 85/3/6
f 85/3/6 462/3/6 305/3/6
f 345/3/6 463/3/6 129/3/6
f 129/3/6 463/3/6 431/3/6
f 85/1/6 7/1/6 11/1/6
f 11/1/6 7/1/6 47/1/6
f 89/2/6 43/2/6 81/2/6
f 81/2/6 43/2/6 82/2/6
f 230/2/6 165/2/6 219/2/6
f 219/2/6 165/2/6 220/2/6
f 311/3/6 310/3/6 317/3/6
f 317/3/6 310/3/6 462/3/6
f 439/3/6 438/3/6 446/3/6
f 446/3/6 438/3/6 463/3/6
f 318/1/6 461/1/6 15/1/6
f 15/1/6 461/1/6 85/1/6
f 14/4/6 13/4/6 245/4/6
f 245/4/6 13/4/6 242/4/6
f 130/4/6 223/4/6 464/4/6
f 464/4/6 223/4/6 443/4/6
f 244/2/6 314/2/6 88/2/6
f 88/2/6 314/2/6 89/2/6
f 464/2/6 442/2/6 229/2/6
f 229/2/6 442/2/6 230/2/6
f 14/1/1 465/1/1 15/1/1
f 15/1/1 465/1/1 466/1/1
f 467/1/1 468/1/1 470/1/1
f 470/1/1 468/1/1 469/1/1
f 471/1/1 472/1/1 474/1/1
f 474/1/1 472/1/1 473/1/1
f 475/1/1 476/1/1 477/1/1
f 477/1/1 476/1/1 465/1/1
f 87/2/1 478/2/1 88/2/1
f 88/2/1 478/2/1 479/2/1
f 480/1/1 481/1/1 482/1/1
f 482/1/1 481/1/1 470/1/1
f 483/1/1 484/1/1 486/1/1
f 486/1/1 484/1/1 485/1/1
f 487/1/1 488/1/1 489/1/1
f 489/1/1 488/1/1 468/1/1
f 490/2/1 491/2/1 493/2/1
f 493/2/1 491/2/1 492/2/1
f 97/3/1 494/3/1 98/3/1
f 98/3/1 494/3/1 476/3/1
f 495/3/1 496/3/1 480/3/1
f 480/3/1 496/3/1 488/3/1
f 106/1/1 497/1/1 97/1/1
f 97/1/1 497/1/1 494/1/1
f 498/1/1 499/1/1 495/1/1
f 495/1/1 499/1/1 496/1/1
f 114/3/1 500/3/1 106/3/1
f 106/3/1 500/3/1 497/3/1
f 501/3/1 502/3/1 498/3/1
f 498/3/1 502/3/1 499/3/1
f 122/1/1 503/1/1 114/1/1
f 114/1/1 503/1/1 500/1/1
f 504/1/1 505/1/1 501/1/1
f 501/1/1 505/1/1 502/1/1
f 130/3/1 506/3/1 122/3/1
f 122/3/1 506/3/1 503/3/1
f 507/3/1 508/3/1 504/3/1
f 504/3/1 508/3/1 505/3/1
f 224/1/1 509/1/1 225/1/1
f 225/1/1 509/1/1 510/1/1
f 509/1/1 511/1/1 513/1/1
f 513/1/1 511/1/1 512/1/1
f 511/1/1 514/1/1 516/1/1
f 516/1/1 514/1/1 515/1/1
f 514/1/1 517/1/1 518/1/1
f 518/1/1 517/1/1 506/1/1
f 228/2/1 519/2/1 229/2/1
f 229/2/1 519/2/1 520/2/1
f 521/1/1 522/1/1 507/1/1
f 507/1/1 522/1/1 523/1/1
f 522/1/1 524/1/1 526/1/1
f 526/1/1 524/1/1 525/1/1
f 524/1/1 527/1/1 529/1/1
f 529/1/1 527/1/1 528/1/1
f 527/1/1 530/1/1 532/1/1
f 532/1/1 530/1/1 531/1/1
f 530/1/1 533/1/1 534/1/1
f 534/1/1 533/1/1 508/1/1
f 535/2/1 536/2/1 538/2/1
f 538/2/1 536/2/1 537/2/1
f 245/2/2 244/2/2 539/2/2
f 539/2/2 244/2/2 493/2/2
f 540/2/2 541/2/2 543/2/2
f 543/2/2 541/2/2 542/2/2
f 544/2/2 545/2/2 547/2/2
f 547/2/2 545/2/2 546/2/2
f 319/1/2 318/1/2 480/1/2
f 480/1/2 318/1/2 482/1/2
f 548/2/2 549/2/2 490/2/2
f 490/2/2 549/2/2 539/2/2
f 550/2/2 551/2/2 552/2/2
f 552/2/2 551/2/2 541/2/2
f 553/2/2 554/2/2 556/2/2
f 556/2/2 554/2/2 555/2/2
f 557/1/2 558/1/2 560/1/2
f 560/1/2 558/1/2 559/1/2
f 561/2/2 562/2/2 563/2/2
f 563/2/2 562/2/2 543/2/2
f 326/3/2 319/3/2 495/3/2
f 495/3/2 319/3/2 480/3/2
f 564/3/2 557/3/2 565/3/2
f 565/3/2 557/3/2 560/3/2
f 331/1/2 326/1/2 498/1/2
f 498/1/2 326/1/2 495/1/2
f 566/1/2 564/1/2 567/1/2
f 567/1/2 564/1/2 565/1/2
f 336/3/2 331/3/2 501/3/2
f 501/3/2 331/3/2 498/3/2
f 568/3/2 566/3/2 569/3/2
f 569/3/2 566/3/2 567/3/2
f 341/1/2 336/1/2 504/1/2
f 504/1/2 336/1/2 501/1/2
f 570/1/2 568/1/2 571/1/2
f 571/1/2 568/1/2 569/1/2
f 346/3/2 341/3/2 507/3/2
f 507/3/2 341/3/2 504/3/2
f 572/3/2 570/3/2 573/3/2
f 573/3/2 570/3/2 571/3/2
f 450/2/2 449/2/2 575/2/2
f 575/2/2 449/2/2 574/2/2
f 575/2/2 576/2/2 578/2/2
f 578/2/2 576/2/2 577/2/2
f 578/2/2 579/2/2 581/2/2
f 581/2/2 579/2/2 580/2/2
f 447/1/2 346/1/2 521/1/2
f 521/1/2 346/1/2 507/1/2
f 581/2/2 582/2/2 535/2/2
f 535/2/2 582/2/2 538/2/2
f 583/2/2 584/2/2 586/2/2
f 586/2/2 584/2/2 585/2/2
f 586/2/2 587/2/2 589/2/2
f 589/2/2 587/2/2 588/2/2
f 589/2/2 590/2/2 592/2/2
f 592/2/2 590/2/2 591/2/2
f 592/2/2 593/2/2 595/2/2
f 595/2/2 593/2/2 594/2/2
f 596/1/2 572/1/2 597/1/2
f 597/1/2 572/1/2 573/1/2
f 595/2/2 598/2/2 600/2/2
f 600/2/2 598/2/2 599/2/2
f 469/1/3 488/1/3 559/1/3
f 559/1/3 488/1/3 560/1/3
f 488/3/3 496/3/3 560/3/3
f 560/3/3 496/3/3 565/3/3
f 496/1/3 499/1/3 565/1/3
f 565/1/3 499/1/3 567/1/3
f 499/3/3 502/3/3 567/3/3
f 567/3/3 502/3/3 569/3/3
f 502/1/3 505/1/3 569/1/3
f 569/1/3 505/1/3 571/1/3
f 505/3/3 508/3/3 571/3/3
f 571/3/3 508/3/3 573/3/3
f 508/1/3 533/1/3 573/1/3
f 573/1/3 533/1/3 597/1/3
f 466/1/3 476/1/3 482/1/3
f 482/1/3 476/1/3 480/1/3
f 476/3/3 494/3/3 480/3/3
f 480/3/3 494/3/3 495/3/3
f 494/1/3 497/1/3 495/1/3
f 495/1/3 497/1/3 498/1/3
f 497/3/3 500/3/3 498/3/3
f 498/3/3 500/3/3 501/3/3
f 500/1/3 503/1/3 501/1/3
f 501/1/3 503/1/3 504/1/3
f 503/3/3 506/3/3 504/3/3
f 504/3/3 506/3/3 507/3/3
f 506/1/3 517/1/3 507/1/3
f 507/1/3 517/1/3 521/1/3
f 554/4/3 553/4/3 486/4/3
f 486/4/3 553/4/3 483/4/3
f 562/4/3 561/4/3 489/4/3
f 489/4/3 561/4/3 487/4/3
f 590/4/3 588/4/3 529/4/3
f 529/4/3 588/4/3 525/4/3
f 598/4/3 594/4/3 534/4/3
f 534/4/3 594/4/3 531/4/3
f 545/4/3 544/4/3 474/4/3
f 474/4/3 544/4/3 471/4/3
f 549/4/3 548/4/3 477/4/3
f 477/4/3 548/4/3 475/4/3
f 492/2/3 491/2/3 542/2/3
f 542/2/3 491/2/3 563/2/3
f 576/4/3 574/4/3 513/4/3
f 513/4/3 574/4/3 510/4/3
f 582/4/3 580/4/3 518/4/3
f 518/4/3 580/4/3 515/4/3
f 537/2/3 536/2/3 599/2/3
f 599/2/3 536/2/3 600/2/3
f 479/2/3 478/2/3 493/2/3
f 493/2/3 478/2/3 490/2/3
f 520/2/3 519/2/3 538/2/3
f 538/2/3 519/2/3 535/2/3
f 482/1/4 558/1/4 480/1/4
f 480/1/4 558/1/4 557/1/4
f 480/3/4 557/3/4 495/3/4
f 495/3/4 557/3/4 564/3/4
f 495/1/4 564/1/4 498/1/4
f 498/1/4 564/1/4 566/1/4
f 498/3/4 566/3/4 501/3/4
f 501/3/4 566/3/4 568/3/4
f 501/1/4 568/1/4 504/1/4
f 504/1/4 568/1/4 570/1/4
f 504/3/4 570/3/4 507/3/4
f 507/3/4 570/3/4 572/3/4
f 507/1/4 572/1/4 521/1/4
f 521/1/4 572/1/4 596/1/4
f 540/4/4 467/4/4 552/4/4
f 552/4/4 467/4/4 481/4/4
f 555/4/4 485/4/4 556/4/4
f 556/4/4 485/4/4 484/4/4
f 585/4/4 523/4/4 587/4/4
f 587/4/4 523/4/4 526/4/4
f 591/4/4 528/4/4 593/4/4
f 593/4/4 528/4/4 532/4/4
f 546/4/4 473/4/4 547/4/4
f 547/4/4 473/4/4 472/4/4
f 493/2/4 551/2/4 490/2/4
f 490/2/4 551/2/4 550/2/4
f 577/4/4 512/4/4 579/4/4
f 579/4/4 512/4/4 516/4/4
f 538/2/4 584/2/4 535/2/4
f 535/2/4 584/2/4 583/2/4
f 471/4/5 544/4/5 98/4/5
f 98/4/5 544/4/5 457/4/5
f 510/4/5 574/4/5 225/4/5
f 225/4/5 574/4/5 449/4/5
f 475/4/5 548/4/5 472/4/5
f 472/4/5 548/4/5 547/4/5
f 515/4/5 580/4/5 516/4/5
f 516/4/5 580/4/5 579/4/5
f 521/1/5 517/1/5 447/1/5
f 447/1/5 517/1/5 224/1/5
f 490/2/5 478/2/5 457/2/5
f 457/2/5 478/2/5 87/2/5
f 535/2/5 519/2/5 450/2/5
f 450/2/5 519/2/5 228/2/5
f 483/4/5 553/4/5 481/4/5
f 481/4/5 553/4/5 552/4/5
f 525/4/5 588/4/5 526/4/5
f 526/4/5 588/4/5 587/4/5
f 487/4/5 561/4/5 484/4/5
f 484/4/5 561/4/5 556/4/5
f 531/4/5 594/4/5 532/4/5
f 532/4/5 594/4/5 593/4/5
f 597/1/5 533/1/5 596/1/5
f 596/1/5 533/1/5 521/1/5
f 563/2/5 491/2/5 550/2/5
f 550/2/5 491/2/5 490/2/5
f 600/2/5 536/2/5 583/2/5
f 583/2/5 536/2/5 535/2/5
f 474/4/6 14/4/6 545/4/6
f 545/4/6 14/4/6 245/4/6
f 513/4/6 130/4/6 576/4/6
f 576/4/6 130/4/6 464/4/6
f 477/4/6 473/4/6 549/4/6
f 549/4/6 473/4/6 546/4/6
f 518/4/6 512/4/6 582/4/6
f 582/4/6 512/4/6 577/4/6
f 482/1/6 318/1/6 466/1/6
f 466/1/6 318/1/6 15/1/6
f 493/2/6 244/2/6 479/2/6
f 479/2/6 244/2/6 88/2/6
f 538/2/6 464/2/6 520/2/6
f 520/2/6 464/2/6 229/2/6
f 486/4/6 467/4/6 554/4/6
f 554/4/6 467/4/6 540/4/6
f 529/4/6 523/4/6 590/4/6
f 590/4/6 523/4/6 585/4/6
f 489/4/6 485/4/6 562/4/6
f 562/4/6 485/4/6 555/4/6
f 534/4/6 528/4/6 598/4/6
f 598/4/6 528/4/6 591/4/6
f 559/1/6 558/1/6 469/1/6
f 469/1/6 558/1/6 482/1/6
f 542/2/6 551/2/6 492/2/6
f 492/2/6 551/2/6 493/2/6
f 599/2/6 584/2/6 537/2/6
f 537/2/6 584/2/6 538/2/6
