# Vengi binary mesh normalized for Tanks of Freedom II

mtllib ../../materials/vox_grass.mtl
o rocks_2_overtile

v -1.5 0.1 2.7
v -1.6 0.1 2.7
v -1.6 0.1 2.8
v -1.5 0.1 2.8
v 2 0.1 2.5
v 1.9 0.1 2.5
v 1.9 0.1 2.6
v 2 0.1 2.6
v 1.5 0.2 2.5
v 1.4 0.2 2.5
v 1.4 0.2 2.6
v 1.5 0.2 2.6
v -1.2 0.1 2.5
v -1.3 0.1 2.5
v -1.3 0.1 2.6
v -1.2 0.1 2.6
v -1.8 0.2 2.5
v -1.9 0.2 2.5
v -1.9 0.2 2.6
v -1.8 0.2 2.6
v 1.3 0.1 2.4
v 1.2 0.1 2.4
v 1.2 0.1 2.5
v 1.3 0.1 2.5
v -1.6 0.1 2.4
v -1.7 0.1 2.4
v -1.7 0.1 2.5
v -1.6 0.1 2.5
v 1.7 0.1 2.3
v 1.6 0.1 2.3
v 1.6 0.1 2.4
v 1.7 0.1 2.4
v 1 0.3 2.3
v 0.9 0.3 2.3
v 0.9 0.3 2.4
v 1 0.3 2.4
v -1.7 0.1 2.3
v -1.8 0.1 2.3
v -1.8 0.1 2.4
v -2 0.1 2.3
v -2.1 0.1 2.3
v -2.1 0.1 2.4
v -2 0.1 2.4
v 1.9 0.2 2.2
v 1.7 0.2 2.2
v 1.7 0.2 2.4
v 1.9 0.2 2.4
v 1.5 0.2 2.2
v 1.5 0.2 2.3
v 1.7 0.2 2.3
v 1.5 0.1 2.2
v 1.4 0.1 2.2
v 1.4 0.1 2.3
v 1.5 0.1 2.3
v -1 0.1 2.2
v -1.1 0.1 2.2
v -1.1 0.1 2.3
v -1 0.1 2.3
v -1.3 0.1 2.2
v -1.4 0.1 2.2
v -1.4 0.1 2.4
v -1.3 0.1 2.4
v -1.5 0.2 2.2
v -1.6 0.2 2.2
v -1.6 0.2 2.5
v -1.5 0.2 2.5
v -1.8 0.1 2.2
v -1.9 0.1 2.2
v -1.9 0.1 2.3
v 1.6 0.1 2.1
v 1.5 0.1 2.1
v 1.6 0.1 2.2
v 1.3 0.2 2.1
v 1.2 0.2 2.1
v 1.2 0.2 2.3
v 1.3 0.2 2.3
v 1.2 0.1 2.1
v 1.1 0.1 2.1
v 1.1 0.1 2.3
v 1.2 0.1 2.3
v 0.8 0.1 2.1
v 0.7 0.1 2.1
v 0.7 0.1 2.2
v 0.8 0.1 2.2
v -1.4 0.2 2.1
v -1.5 0.2 2.1
v -1.5 0.2 2.4
v -1.4 0.2 2.4
v -1.5 0.1 2.1
v -1.6 0.1 2.1
v -1.6 0.1 2.2
v -1.5 0.1 2.2
v -1.6 0.2 2.1
v -1.7 0.2 2.1
v -1.7 0.2 2.4
v -1.6 0.2 2.4
v -1.8 0.2 2.1
v -1.9 0.2 2.1
v -1.9 0.2 2.2
v -1.8 0.2 2.2
v 2.1 0.1 2
v 2 0.1 2
v 2 0.1 2.1
v 2.1 0.1 2.1
v 1.1 0.1 2
v 1 0.1 2
v 1 0.1 2.1
v -1.1 0.1 2
v -1.2 0.1 2
v -1.2 0.1 2.1
v -1.1 0.1 2.1
v -1.4 0.1 2
v -1.5 0.1 2
v -1.4 0.1 2.1
v -1.6 0.1 2
v -1.7 0.1 2
v -1.7 0.1 2.1
v -1.7 0.2 2
v -1.8 0.2 2
v -1.8 0.2 2.3
v -1.7 0.2 2.3
v -1.8 0.1 2
v -1.9 0.1 2
v -1.9 0.1 2.1
v -1.8 0.1 2.1
v 1.5 0.2 1.9
v 1.3 0.2 1.9
v 1.3 0.2 2.2
v 1.3 0.1 1.9
v 1.2 0.1 1.9
v 1.3 0.1 2.1
v -1.7 0.1 1.9
v -1.8 0.1 1.9
v -2.1 0.2 1.9
v -2.2 0.2 1.9
v -2.2 0.2 2
v -2.1 0.2 2
v 1.8 0.1 1.8
v 1.7 0.1 1.8
v 1.7 0.1 1.9
v 1.8 0.1 1.9
v 1.5 0.1 1.8
v 1.3 0.1 1.8
v 1.5 0.1 1.9
v 0.9 0.1 1.8
v 0.8 0.1 1.8
v 0.8 0.1 1.9
v 0.9 0.1 1.9
v 1 0.1 1.7
v 0.9 0.1 1.7
v 1 0.1 1.8
v -1.4 0.2 1.7
v -1.5 0.2 1.7
v -1.5 0.2 1.8
v -1.4 0.2 1.8
v -1.9 0.1 1.7
v -2 0.1 1.7
v -2 0.1 1.8
v -1.9 0.1 1.8
v 1.5 0.2 1.6
v 1.3 0.2 1.6
v 1.3 0.2 1.8
v 1.5 0.2 1.8
v 1.2 0.2 1.6
v 1.1 0.2 1.6
v 1.1 0.2 1.9
v 1.2 0.2 1.9
v 0.7 0.1 1.6
v 0.6 0.1 1.6
v 0.6 0.1 1.7
v 0.7 0.1 1.7
v 2 0.1 1.5
v 1.9 0.1 1.5
v 1.9 0.1 1.6
v 2 0.1 1.6
v 1.5 0.1 1.5
v 1.4 0.1 1.5
v 1.4 0.1 1.6
v 1.5 0.1 1.6
v 1.4 0.2 1.5
v 1.3 0.2 1.5
v 1.4 0.2 1.6
v 1.2 0.1 1.5
v 1 0.1 1.5
v 1 0.1 1.6
v 1.2 0.1 1.6
v 1.6 0.1 1.4
v 1.5 0.1 1.4
v 1.6 0.1 1.9
v 1.5 0.2 1.4
v 1.4 0.2 1.4
v 1.5 0.2 1.5
v 1.4 0.1 1.4
v 1.3 0.1 1.4
v 1.3 0.1 1.5
v 1.3 0.2 1.4
v 1.2 0.2 1.4
v 1 0.2 1.4
v 1 0.2 1.5
v 1.2 0.2 1.5
v 0.9 0.2 1.4
v 0.8 0.2 1.4
v 0.8 0.2 1.6
v 0.9 0.2 1.6
v 1.8 0.1 1.3
v 1.7 0.1 1.3
v 1.7 0.1 1.4
v 1.8 0.1 1.4
v 1.1 0.1 1.3
v 1 0.1 1.3
v 1 0.1 1.4
v 1.1 0.1 1.4
v 1 0.2 1.3
v 0.9 0.2 1.3
v 1 0.2 1.6
v 0.9 0.1 1.3
v 0.8 0.1 1.3
v 0.8 0.1 1.4
v 0.9 0.1 1.4
v 1.8 0.2 1.2
v 1.7 0.2 1.2
v 1.7 0.2 1.3
v 1.8 0.2 1.3
v 1.6 0.2 1.2
v 1.5 0.2 1.2
v 1.6 0.2 1.4
v 1.5 0.1 1.2
v 1.4 0.1 1.2
v 0.8 0.1 1.2
v 0.7 0.1 1.2
v 0.7 0.1 1.3
v 2.1 0.1 1.1
v 2 0.1 1.1
v 2 0.1 1.2
v 2.1 0.1 1.2
v 1.7 0.2 1.1
v 1.6 0.2 1.1
v 1.6 0.2 1.5
v 1.7 0.2 1.5
v 1.6 0.1 1.1
v 1.5 0.1 1.1
v 1.6 0.1 1.2
v 1.4 0.1 1
v 1.3 0.1 1
v 1.3 0.1 1.1
v 1.4 0.1 1.1
v 1.2 0.1 1
v 1.1 0.1 1
v 1.1 0.1 1.1
v 1.2 0.1 1.1
v -0.6 0.1 0
v -0.7 0.1 0
v -0.7 0.1 0.1
v -0.6 0.1 0.1
v -0.8 0.2 -0.1
v -0.9 0.2 -0.1
v -0.9 0.2 0
v -0.8 0.2 0
v -1 0.1 -0.1
v -1.1 0.1 -0.1
v -1.1 0.1 0
v -1 0.1 0
v -0.4 0.1 -0.2
v -0.5 0.1 -0.2
v -0.5 0.1 -0.1
v -0.4 0.1 -0.1
v -1.2 0.2 -0.3
v -1.3 0.2 -0.3
v -1.3 0.2 -0.2
v -1.2 0.2 -0.2
v -0.7 0.1 -0.4
v -0.8 0.1 -0.4
v -0.8 0.1 -0.2
v -0.7 0.1 -0.2
v -0.9 0.1 -0.4
v -1 0.1 -0.4
v -1 0.1 -0.3
v -0.9 0.1 -0.3
v -1.4 0.1 -0.4
v -1.5 0.1 -0.4
v -1.5 0.1 -0.3
v -1.4 0.1 -0.3
v -0.3 0.1 -0.6
v -0.4 0.1 -0.6
v -0.4 0.1 -0.5
v -0.3 0.1 -0.5
v -0.7 0.2 -0.6
v -0.8 0.2 -0.6
v -0.8 0.2 -0.4
v -0.7 0.2 -0.4
v -1.2 0.1 -0.6
v -1.4 0.1 -0.6
v -1.4 0.1 -0.5
v -1.2 0.1 -0.5
v -0.6 0.1 -0.7
v -0.7 0.1 -0.7
v -0.7 0.1 -0.5
v -0.6 0.1 -0.5
v -0.8 0.1 -0.7
v -0.8 0.1 -0.6
v -0.7 0.1 -0.6
v -0.8 0.2 -0.7
v -0.9 0.2 -0.7
v -0.9 0.2 -0.2
v -0.8 0.2 -0.2
v -1 0.2 -0.7
v -1 0.2 -0.4
v -0.9 0.2 -0.4
v -1.1 0.1 -0.7
v -1.2 0.1 -0.7
v -1.1 0.1 -0.6
v -1.3 0.1 -0.7
v -1.4 0.1 -0.7
v -1.3 0.1 -0.6
v -1.5 0.2 -0.7
v -1.6 0.2 -0.7
v -1.6 0.2 -0.6
v -1.5 0.2 -0.6
v -0.8 0.1 -0.8
v -1 0.1 -0.8
v -1 0.1 -0.7
v -1 0.2 -0.8
v -1.1 0.2 -0.8
v -1.1 0.2 -0.5
v -1 0.2 -0.5
v -1.2 0.2 -0.8
v -1.2 0.2 -0.7
v -1.1 0.2 -0.7
v -1.3 0.2 -0.8
v -1.3 0.2 -0.6
v -1.2 0.2 -0.6
v -0.5 0.1 -0.9
v -0.6 0.1 -0.9
v -0.6 0.1 -0.8
v -0.5 0.1 -0.8
v -1.1 0.1 -0.9
v -1.3 0.1 -0.9
v -1.3 0.1 -0.8
v -1.1 0.1 -0.8
v -1.4 0.1 -1
v -1.5 0.1 -1
v -1.5 0.1 -0.9
v -1.4 0.1 -0.9
v -0.8 0.2 -1.1
v -0.9 0.2 -1.1
v -0.9 0.2 -1
v -0.8 0.2 -1
v -1.1 0.3 -1.1
v -1.2 0.3 -1.1
v -1.2 0.3 -1
v -1.1 0.3 -1
v 1.4 0.1 -1.2
v 1.3 0.1 -1.2
v 1.3 0.1 -1.1
v 1.4 0.1 -1.1
v 1.2 0.2 -1.3
v 1.1 0.2 -1.3
v 1.1 0.2 -1.2
v 1.2 0.2 -1.2
v 0.8 0.1 -1.3
v 0.7 0.1 -1.3
v 0.7 0.1 -1.2
v 0.8 0.1 -1.2
v 1.9 0.2 -1.4
v 1.8 0.2 -1.4
v 1.8 0.2 -1.3
v 1.9 0.2 -1.3
v 1.4 0.1 -1.5
v 1.3 0.1 -1.5
v 1.3 0.1 -1.4
v 1.4 0.1 -1.4
v 0.9 0.3 -1.6
v 0.8 0.3 -1.6
v 0.8 0.3 -1.5
v 0.9 0.3 -1.5
v 0.6 0.1 -1.6
v 0.5 0.1 -1.6
v 0.5 0.1 -1.5
v 0.6 0.1 -1.5
v 1.6 0.1 -1.7
v 1.5 0.1 -1.7
v 1.5 0.1 -1.5
v 1.6 0.1 -1.5
v 1.5 0.2 -1.7
v 1.4 0.2 -1.7
v 1.4 0.2 -1.4
v 1.5 0.2 -1.4
v 1.2 0.2 -1.7
v 1.2 0.2 -1.5
v 1.4 0.2 -1.5
v 2.1 0.1 -1.8
v 2 0.1 -1.8
v 2 0.1 -1.7
v 2.1 0.1 -1.7
v 1.4 0.1 -1.8
v 1.2 0.1 -1.8
v 1.2 0.1 -1.7
v 1.4 0.1 -1.7
v 1.1 0.1 -1.8
v 1.1 0.1 -1.5
v 1.2 0.1 -1.5
v 1.8 0.2 -1.9
v 1.7 0.2 -1.9
v 1.7 0.2 -1.8
v 1.8 0.2 -1.8
v 1.1 0.1 -1.9
v 1 0.1 -1.9
v 1 0.1 -1.7
v 1.1 0.1 -1.7
v 0.9 0.1 -1.9
v 0.9 0.1 -1.8
v 1 0.1 -1.8
v 0.7 0.2 -1.9
v 0.6 0.2 -1.9
v 0.6 0.2 -1.8
v 0.7 0.2 -1.8
v 1.1 0.2 -2
v 0.9 0.2 -2
v 0.9 0.2 -1.9
v 1.1 0.2 -1.9
v 0.9 0.1 -2
v 0.8 0.1 -2
v 0.8 0.1 -1.9
v 0.5 0.1 -2
v 0.4 0.1 -2
v 0.4 0.1 -1.9
v 0.5 0.1 -1.9
v 1.5 0.1 -2.1
v 1.4 0.1 -2.1
v 1.5 0.1 -1.8
v 1.4 0.2 -2.1
v 1.1 0.2 -2.1
v 1.1 0.2 -1.8
v 1.4 0.2 -1.8
v 1 0.2 -2.1
v 0.8 0.2 -2.1
v 0.8 0.2 -2
v 1 0.2 -2
v 2 0.1 -2.2
v 1.9 0.1 -2.2
v 1.9 0.1 -2.1
v 2 0.1 -2.1
v 1.7 0.2 -2.2
v 1.5 0.2 -2.2
v 1.5 0.2 -2
v 1.7 0.2 -2
v 1.2 0.2 -2.2
v 1.1 0.2 -2.2
v 1.2 0.2 -2.1
v 1.1 0.1 -2.2
v 1 0.1 -2.2
v 1 0.1 -2
v 1.1 0.1 -2
v -1.5 0 2.7
v -1.5 0 2.8
v -1.6 0 2.8
v -1.6 0 2.7
v 2 0 2.5
v 2 0 2.6
v 1.9 0 2.6
v 1.9 0 2.5
v 1.5 0 2.5
v 1.5 0 2.6
v 1.4 0 2.6
v 1.4 0 2.5
v -1.2 0 2.5
v -1.2 0 2.6
v -1.3 0 2.6
v -1.3 0 2.5
v -1.8 0 2.5
v -1.8 0 2.6
v -1.9 0 2.6
v -1.9 0 2.5
v 1.3 0 2.4
v 1.3 0 2.5
v 1.2 0 2.5
v 1.2 0 2.4
v 1 0 2.3
v 1 0 2.4
v 0.9 0 2.4
v 0.9 0 2.3
v -2 0 2.3
v -2 0 2.4
v -2.1 0 2.4
v -2.1 0 2.3
v 1.9 0 2.2
v 1.9 0 2.4
v 1.6 0 2.4
v 1.6 0 2.2
v -1 0 2.2
v -1 0 2.3
v -1.1 0 2.3
v -1.1 0 2.2
v -1.3 0 2.2
v -1.3 0 2.4
v -1.5 0 2.4
v -1.5 0 2.2
v 1.6 0 2.1
v 1.6 0 2.3
v 1.4 0 2.3
v 1.4 0 2.1
v 1.2 0 2.1
v 1.2 0 2.3
v 1.1 0 2.3
v 1.1 0 2.1
v 0.8 0 2.1
v 0.8 0 2.2
v 0.7 0 2.2
v 0.7 0 2.1
v -1.5 0 2.1
v -1.5 0 2.5
v -1.7 0 2.5
v -1.7 0 2.1
v 2.1 0 2
v 2.1 0 2.1
v 2 0 2.1
v 2 0 2
v 1.1 0 2
v 1 0 2.1
v 1 0 2
v -1.1 0 2
v -1.1 0 2.1
v -1.2 0 2.1
v -1.2 0 2
v -1.4 0 2
v -1.4 0 2.2
v -1.5 0 2
v -1.6 0 2
v -1.6 0 2.1
v -1.7 0 2
v -1.8 0 2
v -1.8 0 2.3
v -1.9 0 2.3
v -1.9 0 2
v -1.7 0 1.9
v -1.7 0 2.4
v -1.8 0 2.4
v -1.8 0 1.9
v -2.1 0 1.9
v -2.1 0 2
v -2.2 0 2
v -2.2 0 1.9
v 1.8 0 1.8
v 1.8 0 1.9
v 1.7 0 1.9
v 1.7 0 1.8
v 0.9 0 1.8
v 0.9 0 1.9
v 0.8 0 1.9
v 0.8 0 1.8
v 1 0 1.7
v 1 0 1.8
v 0.9 0 1.7
v -1.4 0 1.7
v -1.4 0 1.8
v -1.5 0 1.8
v -1.5 0 1.7
v -1.9 0 1.7
v -1.9 0 1.8
v -2 0 1.8
v -2 0 1.7
v 0.7 0 1.6
v 0.7 0 1.7
v 0.6 0 1.7
v 0.6 0 1.6
v 2 0 1.5
v 2 0 1.6
v 1.9 0 1.6
v 1.9 0 1.5
v 1.4 0 1.4
v 1.4 0 2.2
v 1.3 0 2.2
v 1.3 0 1.4
v 1.3 0 2.3
v 1.2 0 1.4
v 1.2 0 1.9
v 1.1 0 1.9
v 1.1 0 1.4
v 1.1 0 1.3
v 1.1 0 1.6
v 0.8 0 1.6
v 0.8 0 1.3
v 1.8 0 1.2
v 1.8 0 1.4
v 1.7 0 1.4
v 1.7 0 1.2
v 1.5 0 1.2
v 1.5 0 2.1
v 1.4 0 1.2
v 0.8 0 1.2
v 0.7 0 1.3
v 0.7 0 1.2
v 2.1 0 1.1
v 2.1 0 1.2
v 2 0 1.2
v 2 0 1.1
v 1.7 0 1.1
v 1.7 0 1.5
v 1.6 0 1.5
v 1.6 0 1.1
v 1.6 0 1.9
v 1.5 0 1.9
v 1.5 0 1.1
v 1.4 0 1
v 1.4 0 1.1
v 1.3 0 1.1
v 1.3 0 1
v 1.2 0 1
v 1.2 0 1.1
v 1.1 0 1.1
v 1.1 0 1
v -0.6 0 0
v -0.6 0 0.1
v -0.7 0 0.1
v -0.7 0 0
v -0.8 0 -0.1
v -0.8 0 0
v -0.9 0 0
v -0.9 0 -0.1
v -1 0 -0.1
v -1 0 0
v -1.1 0 0
v -1.1 0 -0.1
v -0.4 0 -0.2
v -0.4 0 -0.1
v -0.5 0 -0.1
v -0.5 0 -0.2
v -1.2 0 -0.3
v -1.2 0 -0.2
v -1.3 0 -0.2
v -1.3 0 -0.3
v -1.4 0 -0.4
v -1.4 0 -0.3
v -1.5 0 -0.3
v -1.5 0 -0.4
v -0.3 0 -0.6
v -0.3 0 -0.5
v -0.4 0 -0.5
v -0.4 0 -0.6
v -0.6 0 -0.7
v -0.6 0 -0.5
v -0.7 0 -0.5
v -0.7 0 -0.7
v -0.7 0 -0.2
v -0.9 0 -0.2
v -0.9 0 -0.7
v -1.3 0 -0.7
v -1.3 0 -0.5
v -1.4 0 -0.5
v -1.4 0 -0.7
v -1.5 0 -0.7
v -1.5 0 -0.6
v -1.6 0 -0.6
v -1.6 0 -0.7
v -0.8 0 -0.8
v -0.8 0 -0.7
v -0.9 0 -0.8
v -0.9 0 -0.3
v -1 0 -0.3
v -1 0 -0.8
v -1 0 -0.5
v -1.1 0 -0.5
v -1.1 0 -0.8
v -0.5 0 -0.9
v -0.5 0 -0.8
v -0.6 0 -0.8
v -0.6 0 -0.9
v -1.1 0 -0.9
v -1.1 0 -0.6
v -1.2 0 -0.6
v -1.2 0 -0.9
v -1.2 0 -0.5
v -1.3 0 -0.9
v -1.4 0 -1
v -1.4 0 -0.9
v -1.5 0 -0.9
v -1.5 0 -1
v -0.8 0 -1.1
v -0.8 0 -1
v -0.9 0 -1
v -0.9 0 -1.1
v -1.1 0 -1.1
v -1.1 0 -1
v -1.2 0 -1
v -1.2 0 -1.1
v 1.4 0 -1.2
v 1.4 0 -1.1
v 1.3 0 -1.1
v 1.3 0 -1.2
v 1.2 0 -1.3
v 1.2 0 -1.2
v 1.1 0 -1.2
v 1.1 0 -1.3
v 0.8 0 -1.3
v 0.8 0 -1.2
v 0.7 0 -1.2
v 0.7 0 -1.3
v 1.9 0 -1.4
v 1.9 0 -1.3
v 1.8 0 -1.3
v 1.8 0 -1.4
v 0.9 0 -1.6
v 0.9 0 -1.5
v 0.8 0 -1.5
v 0.8 0 -1.6
v 0.6 0 -1.6
v 0.6 0 -1.5
v 0.5 0 -1.5
v 0.5 0 -1.6
v 1.6 0 -1.7
v 1.6 0 -1.5
v 1.5 0 -1.5
v 1.5 0 -1.7
v 1.5 0 -1.4
v 1.3 0 -1.4
v 1.3 0 -1.7
v 2.1 0 -1.8
v 2.1 0 -1.7
v 2 0 -1.7
v 2 0 -1.8
v 1.8 0 -1.9
v 1.8 0 -1.8
v 1.7 0 -1.8
v 1.7 0 -1.9
v 0.7 0 -1.9
v 0.7 0 -1.8
v 0.6 0 -1.8
v 0.6 0 -1.9
v 0.5 0 -2
v 0.5 0 -1.9
v 0.4 0 -1.9
v 0.4 0 -2
v 1.5 0 -2.1
v 1.5 0 -1.8
v 1.4 0 -1.8
v 1.4 0 -2.1
v 1.4 0 -1.7
v 1.3 0 -2.1
v 1.3 0 -1.5
v 1.1 0 -1.5
v 1.1 0 -2.1
v 1 0 -2.1
v 1 0 -1.8
v 0.9 0 -1.8
v 0.9 0 -2.1
v 0.9 0 -1.9
v 0.8 0 -1.9
v 0.8 0 -2.1
v 2 0 -2.2
v 2 0 -2.1
v 1.9 0 -2.1
v 1.9 0 -2.2
v 1.7 0 -2.2
v 1.7 0 -2
v 1.5 0 -2
v 1.5 0 -2.2
v 1.2 0 -2.2
v 1.2 0 -2.1
v 1.1 0 -2.2
v 1.1 0 -1.7
v 1 0 -1.7
v 1 0 -2.2
v 1.1 0.1 1.9
v 1.1 0.1 1.6
v 0.8 0.1 1.6
v -0.9 0.1 -0.2
v -1 0.1 -0.5
v -1.1 0.1 -0.5
v 0.8 0.1 -2.1
v 1.5 0.1 -2.2
v 1 0.1 -2.1
v 1.6 0.1 1.5
v 1.5 0.1 -2
v -1.5 0.1 2.5
v -1.5 0.1 2.4
v 1.9 0.1 2.4
v 1.9 0.1 2.2
v 1.3 0.1 2.3
v 1.3 0.1 2.2
v 1.7 0.1 1.5
v 1.8 0.1 1.2
v 1.7 0.1 1.2
v 1.7 0.1 1.1
v 1.5 0.1 -1.4
v 1.7 0.1 -2
v 1.7 0.1 -2.2
v 1.2 0.1 -2.1
v 1.2 0.1 -2.2
v -2.2 0.1 2.1
v -2.3 0.1 2.1
v -2.3 0.1 2.2
v -2.2 0.1 2.2
v -2.2 0 2.1
v -2.2 0 2.2
v -2.3 0 2.2
v -2.3 0 2.1
v 1.1 0.2 -2.3
v 1 0.2 -2.3
v 1 0.2 -2.2
v 1.3 0.1 -2.4
v 1.2 0.1 -2.4
v 1.2 0.1 -2.3
v 1.3 0.1 -2.3
v 1.2 0.2 -2.4
v 1.1 0.2 -2.4
v 0.7 0.1 -2.4
v 0.6 0.1 -2.4
v 0.6 0.1 -2.3
v 0.7 0.1 -2.3
v 2 0.2 -2.5
v 1.9 0.2 -2.5
v 1.9 0.2 -2.4
v 2 0.2 -2.4
v 0.9 0.1 -2.5
v 0.8 0.1 -2.5
v 0.8 0.1 -2.4
v 0.9 0.1 -2.4
v 1.5 0.2 -2.6
v 1.4 0.2 -2.6
v 1.4 0.2 -2.5
v 1.5 0.2 -2.5
v 1.1 0.1 -2.7
v 1 0.1 -2.7
v 1 0.1 -2.6
v 1.1 0.1 -2.6
v 1.3 0.1 -2.8
v 1.2 0.1 -2.8
v 1.2 0.1 -2.7
v 1.3 0.1 -2.7
v 1.1 0 -2.3
v 1 0 -2.3
v 1.3 0 -2.4
v 1.3 0 -2.3
v 1.2 0 -2.3
v 1.2 0 -2.4
v 1.1 0 -2.4
v 0.7 0 -2.4
v 0.7 0 -2.3
v 0.6 0 -2.3
v 0.6 0 -2.4
v 2 0 -2.5
v 2 0 -2.4
v 1.9 0 -2.4
v 1.9 0 -2.5
v 0.9 0 -2.5
v 0.9 0 -2.4
v 0.8 0 -2.4
v 0.8 0 -2.5
v 1.5 0 -2.6
v 1.5 0 -2.5
v 1.4 0 -2.5
v 1.4 0 -2.6
v 1.1 0 -2.7
v 1.1 0 -2.6
v 1 0 -2.6
v 1 0 -2.7
v 1.3 0 -2.8
v 1.3 0 -2.7
v 1.2 0 -2.7
v 1.2 0 -2.8
v 1 0.1 -2.3
v 1.1 0.1 -2.3
v 1.1 0.1 -2.4

vt 0.0332031 0.5
vt 0.0683594 0.5
vt 0.0996094 0.5

vn 0 1 0
vn 0 -1 0
vn -1 0 0
vn 1 0 0
vn 0 0 -1
vn 0 0 1

usemtl palette
f 1/3/1 2/3/1 4/3/1
f 4/3/1 2/3/1 3/3/1
f 5/3/1 6/3/1 8/3/1
f 8/3/1 6/3/1 7/3/1
f 9/3/1 10/3/1 12/3/1
f 12/3/1 10/3/1 11/3/1
f 13/3/1 14/3/1 16/3/1
f 16/3/1 14/3/1 15/3/1
f 17/3/1 18/3/1 20/3/1
f 20/3/1 18/3/1 19/3/1
f 21/3/1 22/3/1 24/3/1
f 24/3/1 22/3/1 23/3/1
f 25/2/1 26/2/1 28/2/1
f 28/2/1 26/2/1 27/2/1
f 29/2/1 30/2/1 32/2/1
f 32/2/1 30/2/1 31/2/1
f 33/3/1 34/3/1 36/3/1
f 36/3/1 34/3/1 35/3/1
f 37/2/1 38/2/1 26/2/1
f 26/2/1 38/2/1 39/2/1
f 40/3/1 41/3/1 43/3/1
f 43/3/1 41/3/1 42/3/1
f 44/1/1 45/1/1 47/1/1
f 47/1/1 45/1/1 46/1/1
f 45/1/1 48/1/1 50/1/1
f 50/1/1 48/1/1 49/1/1
f 51/2/1 52/2/1 54/2/1
f 54/2/1 52/2/1 53/2/1
f 55/3/1 56/3/1 58/3/1
f 58/3/1 56/3/1 57/3/1
f 59/2/1 60/2/1 62/2/1
f 62/2/1 60/2/1 61/2/1
f 63/1/1 64/1/1 66/1/1
f 66/1/1 64/1/1 65/1/1
f 67/2/1 68/2/1 38/2/1
f 38/2/1 68/2/1 69/2/1
f 70/2/1 71/2/1 72/2/1
f 72/2/1 71/2/1 51/2/1
f 73/1/1 74/1/1 76/1/1
f 76/1/1 74/1/1 75/1/1
f 77/2/1 78/2/1 80/2/1
f 80/2/1 78/2/1 79/2/1
f 81/3/1 82/3/1 84/3/1
f 84/3/1 82/3/1 83/3/1
f 85/1/1 86/1/1 88/1/1
f 88/1/1 86/1/1 87/1/1
f 89/2/1 90/2/1 92/2/1
f 92/2/1 90/2/1 91/2/1
f 93/1/1 94/1/1 96/1/1
f 96/1/1 94/1/1 95/1/1
f 97/1/1 98/1/1 100/1/1
f 100/1/1 98/1/1 99/1/1
f 101/3/1 102/3/1 104/3/1
f 104/3/1 102/3/1 103/3/1
f 105/3/1 106/3/1 78/3/1
f 78/3/1 106/3/1 107/3/1
f 108/3/1 109/3/1 111/3/1
f 111/3/1 109/3/1 110/3/1
f 112/2/1 113/2/1 114/2/1
f 114/2/1 113/2/1 89/2/1
f 115/2/1 116/2/1 90/2/1
f 90/2/1 116/2/1 117/2/1
f 118/1/1 119/1/1 121/1/1
f 121/1/1 119/1/1 120/1/1
f 122/2/1 123/2/1 125/2/1
f 125/2/1 123/2/1 124/2/1
f 126/1/1 127/1/1 48/1/1
f 48/1/1 127/1/1 128/1/1
f 129/2/1 130/2/1 131/2/1
f 131/2/1 130/2/1 77/2/1
f 132/2/1 133/2/1 116/2/1
f 116/2/1 133/2/1 122/2/1
f 134/3/1 135/3/1 137/3/1
f 137/3/1 135/3/1 136/3/1
f 138/3/1 139/3/1 141/3/1
f 141/3/1 139/3/1 140/3/1
f 142/2/1 143/2/1 144/2/1
f 144/2/1 143/2/1 129/2/1
f 145/3/1 146/3/1 148/3/1
f 148/3/1 146/3/1 147/3/1
f 149/3/1 150/3/1 151/3/1
f 151/3/1 150/3/1 145/3/1
f 152/3/1 153/3/1 155/3/1
f 155/3/1 153/3/1 154/3/1
f 156/3/1 157/3/1 159/3/1
f 159/3/1 157/3/1 158/3/1
f 160/1/1 161/1/1 163/1/1
f 163/1/1 161/1/1 162/1/1
f 164/1/1 165/1/1 167/1/1
f 167/1/1 165/1/1 166/1/1
f 168/3/1 169/3/1 171/3/1
f 171/3/1 169/3/1 170/3/1
f 172/3/1 173/3/1 175/3/1
f 175/3/1 173/3/1 174/3/1
f 176/2/1 177/2/1 179/2/1
f 179/2/1 177/2/1 178/2/1
f 180/1/1 181/1/1 182/1/1
f 182/1/1 181/1/1 161/1/1
f 183/2/1 184/2/1 186/2/1
f 186/2/1 184/2/1 185/2/1
f 187/2/1 188/2/1 189/2/1
f 189/2/1 188/2/1 144/2/1
f 190/1/1 191/1/1 192/1/1
f 192/1/1 191/1/1 180/1/1
f 193/2/1 194/2/1 177/2/1
f 177/2/1 194/2/1 195/2/1
f 196/1/1 197/1/1 127/1/1
f 127/1/1 197/1/1 167/1/1
f 197/1/1 198/1/1 200/1/1
f 200/1/1 198/1/1 199/1/1
f 201/1/1 202/1/1 204/1/1
f 204/1/1 202/1/1 203/1/1
f 205/2/1 206/2/1 208/2/1
f 208/2/1 206/2/1 207/2/1
f 209/2/1 210/2/1 212/2/1
f 212/2/1 210/2/1 211/2/1
f 213/1/1 214/1/1 215/1/1
f 215/1/1 214/1/1 204/1/1
f 216/2/1 217/2/1 219/2/1
f 219/2/1 217/2/1 218/2/1
f 220/1/1 221/1/1 223/1/1
f 223/1/1 221/1/1 222/1/1
f 224/1/1 225/1/1 226/1/1
f 226/1/1 225/1/1 190/1/1
f 227/2/1 228/2/1 188/2/1
f 188/2/1 228/2/1 193/2/1
f 229/3/1 230/3/1 217/3/1
f 217/3/1 230/3/1 231/3/1
f 232/3/1 233/3/1 235/3/1
f 235/3/1 233/3/1 234/3/1
f 236/1/1 237/1/1 239/1/1
f 239/1/1 237/1/1 238/1/1
f 240/2/1 241/2/1 242/2/1
f 242/2/1 241/2/1 227/2/1
f 243/3/1 244/3/1 246/3/1
f 246/3/1 244/3/1 245/3/1
f 247/3/1 248/3/1 250/3/1
f 250/3/1 248/3/1 249/3/1
f 251/3/1 252/3/1 254/3/1
f 254/3/1 252/3/1 253/3/1
f 255/3/1 256/3/1 258/3/1
f 258/3/1 256/3/1 257/3/1
f 259/3/1 260/3/1 262/3/1
f 262/3/1 260/3/1 261/3/1
f 263/3/1 264/3/1 266/3/1
f 266/3/1 264/3/1 265/3/1
f 267/3/1 268/3/1 270/3/1
f 270/3/1 268/3/1 269/3/1
f 271/2/1 272/2/1 274/2/1
f 274/2/1 272/2/1 273/2/1
f 275/2/1 276/2/1 278/2/1
f 278/2/1 276/2/1 277/2/1
f 279/3/1 280/3/1 282/3/1
f 282/3/1 280/3/1 281/3/1
f 283/3/1 284/3/1 286/3/1
f 286/3/1 284/3/1 285/3/1
f 287/1/1 288/1/1 290/1/1
f 290/1/1 288/1/1 289/1/1
f 291/2/1 292/2/1 294/2/1
f 294/2/1 292/2/1 293/2/1
f 295/2/1 296/2/1 298/2/1
f 298/2/1 296/2/1 297/2/1
f 296/2/1 299/2/1 301/2/1
f 301/2/1 299/2/1 300/2/1
f 302/1/1 303/1/1 305/1/1
f 305/1/1 303/1/1 304/1/1
f 303/1/1 306/1/1 308/1/1
f 308/1/1 306/1/1 307/1/1
f 309/2/1 310/2/1 311/2/1
f 311/2/1 310/2/1 291/2/1
f 312/2/1 313/2/1 314/2/1
f 314/2/1 313/2/1 292/2/1
f 315/3/1 316/3/1 318/3/1
f 318/3/1 316/3/1 317/3/1
f 319/2/1 320/2/1 299/2/1
f 299/2/1 320/2/1 321/2/1
f 322/1/1 323/1/1 325/1/1
f 325/1/1 323/1/1 324/1/1
f 323/1/1 326/1/1 328/1/1
f 328/1/1 326/1/1 327/1/1
f 326/1/1 329/1/1 331/1/1
f 331/1/1 329/1/1 330/1/1
f 332/3/1 333/3/1 335/3/1
f 335/3/1 333/3/1 334/3/1
f 336/2/1 337/2/1 339/2/1
f 339/2/1 337/2/1 338/2/1
f 340/3/1 341/3/1 343/3/1
f 343/3/1 341/3/1 342/3/1
f 344/3/1 345/3/1 347/3/1
f 347/3/1 345/3/1 346/3/1
f 348/3/1 349/3/1 351/3/1
f 351/3/1 349/3/1 350/3/1
f 352/3/1 353/3/1 355/3/1
f 355/3/1 353/3/1 354/3/1
f 356/3/1 357/3/1 359/3/1
f 359/3/1 357/3/1 358/3/1
f 360/3/1 361/3/1 363/3/1
f 363/3/1 361/3/1 362/3/1
f 364/3/1 365/3/1 367/3/1
f 367/3/1 365/3/1 366/3/1
f 368/2/1 369/2/1 371/2/1
f 371/2/1 369/2/1 370/2/1
f 372/3/1 373/3/1 375/3/1
f 375/3/1 373/3/1 374/3/1
f 376/3/1 377/3/1 379/3/1
f 379/3/1 377/3/1 378/3/1
f 380/2/1 381/2/1 383/2/1
f 383/2/1 381/2/1 382/2/1
f 384/1/1 385/1/1 387/1/1
f 387/1/1 385/1/1 386/1/1
f 385/1/1 388/1/1 390/1/1
f 390/1/1 388/1/1 389/1/1
f 391/3/1 392/3/1 394/3/1
f 394/3/1 392/3/1 393/3/1
f 395/2/1 396/2/1 398/2/1
f 398/2/1 396/2/1 397/2/1
f 396/2/1 399/2/1 401/2/1
f 401/2/1 399/2/1 400/2/1
f 402/3/1 403/3/1 405/3/1
f 405/3/1 403/3/1 404/3/1
f 406/2/1 407/2/1 409/2/1
f 409/2/1 407/2/1 408/2/1
f 407/2/1 410/2/1 412/2/1
f 412/2/1 410/2/1 411/2/1
f 413/3/1 414/3/1 416/3/1
f 416/3/1 414/3/1 415/3/1
f 417/1/1 418/1/1 420/1/1
f 420/1/1 418/1/1 419/1/1
f 421/2/1 422/2/1 410/2/1
f 410/2/1 422/2/1 423/2/1
f 424/3/1 425/3/1 427/3/1
f 427/3/1 425/3/1 426/3/1
f 428/2/1 429/2/1 430/2/1
f 430/2/1 429/2/1 395/2/1
f 431/1/1 432/1/1 434/1/1
f 434/1/1 432/1/1 433/1/1
f 435/1/1 436/1/1 438/1/1
f 438/1/1 436/1/1 437/1/1
f 439/3/1 440/3/1 442/3/1
f 442/3/1 440/3/1 441/3/1
f 443/1/1 444/1/1 446/1/1
f 446/1/1 444/1/1 445/1/1
f 447/1/1 448/1/1 449/1/1
f 449/1/1 448/1/1 432/1/1
f 450/2/1 451/2/1 453/2/1
f 453/2/1 451/2/1 452/2/1
f 454/3/2 455/3/2 457/3/2
f 457/3/2 455/3/2 456/3/2
f 458/3/2 459/3/2 461/3/2
f 461/3/2 459/3/2 460/3/2
f 462/3/2 463/3/2 465/3/2
f 465/3/2 463/3/2 464/3/2
f 466/3/2 467/3/2 469/3/2
f 469/3/2 467/3/2 468/3/2
f 470/3/2 471/3/2 473/3/2
f 473/3/2 471/3/2 472/3/2
f 474/3/2 475/3/2 477/3/2
f 477/3/2 475/3/2 476/3/2
f 478/3/2 479/3/2 481/3/2
f 481/3/2 479/3/2 480/3/2
f 482/3/2 483/3/2 485/3/2
f 485/3/2 483/3/2 484/3/2
f 486/2/2 487/2/2 489/2/2
f 489/2/2 487/2/2 488/2/2
f 490/3/2 491/3/2 493/3/2
f 493/3/2 491/3/2 492/3/2
f 494/2/2 495/2/2 497/2/2
f 497/2/2 495/2/2 496/2/2
f 498/2/2 499/2/2 501/2/2
f 501/2/2 499/2/2 500/2/2
f 502/2/2 503/2/2 505/2/2
f 505/2/2 503/2/2 504/2/2
f 506/3/2 507/3/2 509/3/2
f 509/3/2 507/3/2 508/3/2
f 510/2/2 511/2/2 513/2/2
f 513/2/2 511/2/2 512/2/2
f 514/3/2 515/3/2 517/3/2
f 517/3/2 515/3/2 516/3/2
f 518/3/2 505/3/2 520/3/2
f 520/3/2 505/3/2 519/3/2
f 521/3/2 522/3/2 524/3/2
f 524/3/2 522/3/2 523/3/2
f 525/2/2 526/2/2 527/2/2
f 527/2/2 526/2/2 497/2/2
f 528/2/2 529/2/2 530/2/2
f 530/2/2 529/2/2 513/2/2
f 531/2/2 532/2/2 534/2/2
f 534/2/2 532/2/2 533/2/2
f 535/2/2 536/2/2 538/2/2
f 538/2/2 536/2/2 537/2/2
f 539/3/2 540/3/2 542/3/2
f 542/3/2 540/3/2 541/3/2
f 543/3/2 544/3/2 546/3/2
f 546/3/2 544/3/2 545/3/2
f 547/3/2 548/3/2 550/3/2
f 550/3/2 548/3/2 549/3/2
f 551/3/2 552/3/2 553/3/2
f 553/3/2 552/3/2 547/3/2
f 554/3/2 555/3/2 557/3/2
f 557/3/2 555/3/2 556/3/2
f 558/3/2 559/3/2 561/3/2
f 561/3/2 559/3/2 560/3/2
f 562/3/2 563/3/2 565/3/2
f 565/3/2 563/3/2 564/3/2
f 566/3/2 567/3/2 569/3/2
f 569/3/2 567/3/2 568/3/2
f 570/2/2 571/2/2 573/2/2
f 573/2/2 571/2/2 572/2/2
f 573/2/2 574/2/2 575/2/2
f 575/2/2 574/2/2 503/2/2
f 575/2/2 576/2/2 578/2/2
f 578/2/2 576/2/2 577/2/2
f 579/2/2 580/2/2 582/2/2
f 582/2/2 580/2/2 581/2/2
f 583/2/2 584/2/2 586/2/2
f 586/2/2 584/2/2 585/2/2
f 587/2/2 588/2/2 589/2/2
f 589/2/2 588/2/2 501/2/2
f 590/3/2 582/3/2 592/3/2
f 592/3/2 582/3/2 591/3/2
f 593/3/2 594/3/2 596/3/2
f 596/3/2 594/3/2 595/3/2
f 597/2/2 598/2/2 600/2/2
f 600/2/2 598/2/2 599/2/2
f 600/2/2 601/2/2 603/2/2
f 603/2/2 601/2/2 602/2/2
f 604/3/2 605/3/2 607/3/2
f 607/3/2 605/3/2 606/3/2
f 608/3/2 609/3/2 611/3/2
f 611/3/2 609/3/2 610/3/2
f 612/3/2 613/3/2 615/3/2
f 615/3/2 613/3/2 614/3/2
f 616/3/2 617/3/2 619/3/2
f 619/3/2 617/3/2 618/3/2
f 620/3/2 621/3/2 623/3/2
f 623/3/2 621/3/2 622/3/2
f 624/3/2 625/3/2 627/3/2
f 627/3/2 625/3/2 626/3/2
f 628/3/2 629/3/2 631/3/2
f 631/3/2 629/3/2 630/3/2
f 632/3/2 633/3/2 635/3/2
f 635/3/2 633/3/2 634/3/2
f 636/3/2 637/3/2 639/3/2
f 639/3/2 637/3/2 638/3/2
f 640/2/2 641/2/2 643/2/2
f 643/2/2 641/2/2 642/2/2
f 643/2/2 644/2/2 646/2/2
f 646/2/2 644/2/2 645/2/2
f 647/2/2 648/2/2 650/2/2
f 650/2/2 648/2/2 649/2/2
f 651/3/2 652/3/2 654/3/2
f 654/3/2 652/3/2 653/3/2
f 655/2/2 656/2/2 657/2/2
f 657/2/2 656/2/2 646/2/2
f 657/2/2 658/2/2 660/2/2
f 660/2/2 658/2/2 659/2/2
f 660/2/2 661/2/2 663/2/2
f 663/2/2 661/2/2 662/2/2
f 664/3/2 665/3/2 667/3/2
f 667/3/2 665/3/2 666/3/2
f 668/2/2 669/2/2 671/2/2
f 671/2/2 669/2/2 670/2/2
f 671/2/2 672/2/2 673/2/2
f 673/2/2 672/2/2 648/2/2
f 674/3/2 675/3/2 677/3/2
f 677/3/2 675/3/2 676/3/2
f 678/3/2 679/3/2 681/3/2
f 681/3/2 679/3/2 680/3/2
f 682/3/2 683/3/2 685/3/2
f 685/3/2 683/3/2 684/3/2
f 686/3/2 687/3/2 689/3/2
f 689/3/2 687/3/2 688/3/2
f 690/3/2 691/3/2 693/3/2
f 693/3/2 691/3/2 692/3/2
f 694/3/2 695/3/2 697/3/2
f 697/3/2 695/3/2 696/3/2
f 698/3/2 699/3/2 701/3/2
f 701/3/2 699/3/2 700/3/2
f 702/3/2 703/3/2 705/3/2
f 705/3/2 703/3/2 704/3/2
f 706/3/2 707/3/2 709/3/2
f 709/3/2 707/3/2 708/3/2
f 710/2/2 711/2/2 713/2/2
f 713/2/2 711/2/2 712/2/2
f 713/2/2 714/2/2 716/2/2
f 716/2/2 714/2/2 715/2/2
f 717/3/2 718/3/2 720/3/2
f 720/3/2 718/3/2 719/3/2
f 721/3/2 722/3/2 724/3/2
f 724/3/2 722/3/2 723/3/2
f 725/3/2 726/3/2 728/3/2
f 728/3/2 726/3/2 727/3/2
f 729/3/2 730/3/2 732/3/2
f 732/3/2 730/3/2 731/3/2
f 733/2/2 734/2/2 736/2/2
f 736/2/2 734/2/2 735/2/2
f 736/2/2 737/2/2 738/2/2
f 738/2/2 737/2/2 716/2/2
f 738/2/2 739/2/2 741/2/2
f 741/2/2 739/2/2 740/2/2
f 742/2/2 743/2/2 745/2/2
f 745/2/2 743/2/2 744/2/2
f 745/2/2 746/2/2 748/2/2
f 748/2/2 746/2/2 747/2/2
f 749/3/2 750/3/2 752/3/2
f 752/3/2 750/3/2 751/3/2
f 753/2/2 754/2/2 756/2/2
f 756/2/2 754/2/2 755/2/2
f 757/2/2 758/2/2 759/2/2
f 759/2/2 758/2/2 741/2/2
f 759/2/2 760/2/2 762/2/2
f 762/2/2 760/2/2 761/2/2
f 3/3/3 2/3/3 456/3/3
f 456/3/3 2/3/3 457/3/3
f 7/3/3 6/3/3 460/3/3
f 460/3/3 6/3/3 461/3/3
f 15/3/3 14/3/3 468/3/3
f 468/3/3 14/3/3 469/3/3
f 23/3/3 22/3/3 476/3/3
f 476/3/3 22/3/3 477/3/3
f 27/2/3 26/2/3 512/2/3
f 512/2/3 26/2/3 536/2/3
f 31/2/3 30/2/3 488/2/3
f 488/2/3 30/2/3 499/2/3
f 39/2/3 38/2/3 537/2/3
f 537/2/3 38/2/3 532/2/3
f 42/3/3 41/3/3 484/3/3
f 484/3/3 41/3/3 485/3/3
f 53/2/3 52/2/3 500/2/3
f 500/2/3 52/2/3 571/2/3
f 57/3/3 56/3/3 492/3/3
f 492/3/3 56/3/3 493/3/3
f 79/2/3 78/2/3 504/2/3
f 504/2/3 78/2/3 505/2/3
f 83/3/3 82/3/3 508/3/3
f 508/3/3 82/3/3 509/3/3
f 103/3/3 102/3/3 516/3/3
f 516/3/3 102/3/3 517/3/3
f 107/3/3 106/3/3 519/3/3
f 519/3/3 106/3/3 520/3/3
f 110/3/3 109/3/3 523/3/3
f 523/3/3 109/3/3 524/3/3
f 89/2/3 113/2/3 510/2/3
f 510/2/3 113/2/3 527/2/3
f 69/2/3 123/2/3 533/2/3
f 533/2/3 123/2/3 534/2/3
f 77/2/3 130/2/3 502/2/3
f 502/2/3 130/2/3 576/2/3
f 122/2/3 133/2/3 531/2/3
f 531/2/3 133/2/3 538/2/3
f 140/3/3 139/3/3 545/3/3
f 545/3/3 139/3/3 546/3/3
f 147/3/3 146/3/3 549/3/3
f 549/3/3 146/3/3 550/3/3
f 145/3/3 150/3/3 547/3/3
f 547/3/3 150/3/3 553/3/3
f 158/3/3 157/3/3 560/3/3
f 560/3/3 157/3/3 561/3/3
f 763/2/3 764/2/3 577/2/3
f 577/2/3 764/2/3 580/2/3
f 170/3/3 169/3/3 564/3/3
f 564/3/3 169/3/3 565/3/3
f 174/3/3 173/3/3 568/3/3
f 568/3/3 173/3/3 569/3/3
f 765/2/3 217/2/3 581/2/3
f 581/2/3 217/2/3 582/2/3
f 193/2/3 228/2/3 570/2/3
f 570/2/3 228/2/3 589/2/3
f 231/3/3 230/3/3 591/3/3
f 591/3/3 230/3/3 592/3/3
f 234/3/3 233/3/3 595/3/3
f 595/3/3 233/3/3 596/3/3
f 227/2/3 241/2/3 587/2/3
f 587/2/3 241/2/3 603/2/3
f 245/3/3 244/3/3 606/3/3
f 606/3/3 244/3/3 607/3/3
f 249/3/3 248/3/3 610/3/3
f 610/3/3 248/3/3 611/3/3
f 253/3/3 252/3/3 614/3/3
f 614/3/3 252/3/3 615/3/3
f 261/3/3 260/3/3 622/3/3
f 622/3/3 260/3/3 623/3/3
f 265/3/3 264/3/3 626/3/3
f 626/3/3 264/3/3 627/3/3
f 766/2/3 278/2/3 645/2/3
f 645/2/3 278/2/3 658/2/3
f 281/3/3 280/3/3 634/3/3
f 634/3/3 280/3/3 635/3/3
f 277/2/3 767/2/3 659/2/3
f 659/2/3 767/2/3 661/2/3
f 285/3/3 284/3/3 638/3/3
f 638/3/3 284/3/3 639/3/3
f 768/2/3 311/2/3 662/2/3
f 662/2/3 311/2/3 669/2/3
f 293/2/3 313/2/3 649/2/3
f 649/2/3 313/2/3 650/2/3
f 334/3/3 333/3/3 666/3/3
f 666/3/3 333/3/3 667/3/3
f 312/2/3 337/2/3 647/2/3
f 647/2/3 337/2/3 673/2/3
f 342/3/3 341/3/3 676/3/3
f 676/3/3 341/3/3 677/3/3
f 354/3/3 353/3/3 688/3/3
f 688/3/3 353/3/3 689/3/3
f 362/3/3 361/3/3 696/3/3
f 696/3/3 361/3/3 697/3/3
f 370/2/3 369/2/3 715/2/3
f 715/2/3 369/2/3 739/2/3
f 378/3/3 377/3/3 708/3/3
f 708/3/3 377/3/3 709/3/3
f 400/2/3 409/2/3 740/2/3
f 740/2/3 409/2/3 760/2/3
f 393/3/3 392/3/3 719/3/3
f 719/3/3 392/3/3 720/3/3
f 408/2/3 412/2/3 761/2/3
f 761/2/3 412/2/3 743/2/3
f 411/2/3 410/2/3 744/2/3
f 744/2/3 410/2/3 746/2/3
f 426/3/3 425/3/3 731/3/3
f 731/3/3 425/3/3 732/3/3
f 423/2/3 769/2/3 747/2/3
f 747/2/3 769/2/3 748/2/3
f 441/3/3 440/3/3 751/3/3
f 751/3/3 440/3/3 752/3/3
f 428/2/3 770/2/3 733/2/3
f 733/2/3 770/2/3 756/2/3
f 771/2/3 451/2/3 742/2/3
f 742/2/3 451/2/3 762/2/3
f 11/3/3 10/3/3 464/3/3
f 464/3/3 10/3/3 465/3/3
f 19/3/3 18/3/3 472/3/3
f 472/3/3 18/3/3 473/3/3
f 65/1/3 96/1/3 28/1/3
f 28/1/3 96/1/3 25/1/3
f 46/1/3 50/1/3 32/1/3
f 32/1/3 50/1/3 29/1/3
f 95/1/3 121/1/3 26/1/3
f 26/1/3 121/1/3 37/1/3
f 49/1/3 48/1/3 54/1/3
f 54/1/3 48/1/3 51/1/3
f 120/1/3 100/1/3 38/1/3
f 38/1/3 100/1/3 67/1/3
f 75/1/3 74/1/3 80/1/3
f 80/1/3 74/1/3 77/1/3
f 63/1/3 86/1/3 92/1/3
f 92/1/3 86/1/3 89/1/3
f 99/1/3 98/1/3 68/1/3
f 68/1/3 98/1/3 124/1/3
f 97/1/3 119/1/3 125/1/3
f 125/1/3 119/1/3 122/1/3
f 73/1/3 127/1/3 131/1/3
f 131/1/3 127/1/3 129/1/3
f 136/3/3 135/3/3 541/3/3
f 541/3/3 135/3/3 542/3/3
f 154/3/3 153/3/3 556/3/3
f 556/3/3 153/3/3 557/3/3
f 166/1/3 165/1/3 763/1/3
f 763/1/3 165/1/3 764/1/3
f 164/1/3 200/1/3 186/1/3
f 186/1/3 200/1/3 183/1/3
f 238/1/3 226/1/3 772/1/3
f 772/1/3 226/1/3 187/1/3
f 180/1/3 191/1/3 177/1/3
f 177/1/3 191/1/3 193/1/3
f 203/1/3 202/1/3 765/1/3
f 765/1/3 202/1/3 218/1/3
f 201/1/3 214/1/3 219/1/3
f 219/1/3 214/1/3 216/1/3
f 190/1/3 225/1/3 188/1/3
f 188/1/3 225/1/3 227/1/3
f 224/1/3 237/1/3 242/1/3
f 242/1/3 237/1/3 240/1/3
f 257/3/3 256/3/3 618/3/3
f 618/3/3 256/3/3 619/3/3
f 269/3/3 268/3/3 630/3/3
f 630/3/3 268/3/3 631/3/3
f 304/1/3 308/1/3 766/1/3
f 766/1/3 308/1/3 275/1/3
f 307/1/3 325/1/3 276/1/3
f 276/1/3 325/1/3 767/1/3
f 324/1/3 328/1/3 768/1/3
f 768/1/3 328/1/3 309/1/3
f 317/3/3 316/3/3 653/3/3
f 653/3/3 316/3/3 654/3/3
f 330/1/3 329/1/3 314/1/3
f 314/1/3 329/1/3 338/1/3
f 346/3/3 345/3/3 680/3/3
f 680/3/3 345/3/3 681/3/3
f 358/3/3 357/3/3 692/3/3
f 692/3/3 357/3/3 693/3/3
f 366/3/3 365/3/3 700/3/3
f 700/3/3 365/3/3 701/3/3
f 386/1/3 390/1/3 371/1/3
f 371/1/3 390/1/3 368/1/3
f 389/1/3 388/1/3 401/1/3
f 401/1/3 388/1/3 397/1/3
f 404/3/3 403/3/3 723/3/3
f 723/3/3 403/3/3 724/3/3
f 433/1/3 420/1/3 399/1/3
f 399/1/3 420/1/3 406/1/3
f 415/3/3 414/3/3 727/3/3
f 727/3/3 414/3/3 728/3/3
f 419/1/3 418/1/3 410/1/3
f 410/1/3 418/1/3 421/1/3
f 437/1/3 436/1/3 422/1/3
f 422/1/3 436/1/3 769/1/3
f 445/1/3 444/1/3 773/1/3
f 773/1/3 444/1/3 770/1/3
f 417/1/3 448/1/3 453/1/3
f 453/1/3 448/1/3 450/1/3
f 35/3/3 34/3/3 480/3/3
f 480/3/3 34/3/3 481/3/3
f 350/3/3 349/3/3 684/3/3
f 684/3/3 349/3/3 685/3/3
f 374/3/3 373/3/3 704/3/3
f 704/3/3 373/3/3 705/3/3
f 4/3/4 455/3/4 1/3/4
f 1/3/4 455/3/4 454/3/4
f 8/3/4 459/3/4 5/3/4
f 5/3/4 459/3/4 458/3/4
f 16/3/4 467/3/4 13/3/4
f 13/3/4 467/3/4 466/3/4
f 24/3/4 475/3/4 21/3/4
f 21/3/4 475/3/4 474/3/4
f 774/2/4 511/2/4 775/2/4
f 775/2/4 511/2/4 496/2/4
f 43/3/4 483/3/4 40/3/4
f 40/3/4 483/3/4 482/3/4
f 776/2/4 487/2/4 777/2/4
f 777/2/4 487/2/4 486/2/4
f 778/2/4 574/2/4 779/2/4
f 779/2/4 574/2/4 572/2/4
f 58/3/4 491/3/4 55/3/4
f 55/3/4 491/3/4 490/3/4
f 62/2/4 495/2/4 59/2/4
f 59/2/4 495/2/4 494/2/4
f 72/2/4 489/2/4 70/2/4
f 70/2/4 489/2/4 498/2/4
f 84/3/4 507/3/4 81/3/4
f 81/3/4 507/3/4 506/3/4
f 104/3/4 515/3/4 101/3/4
f 101/3/4 515/3/4 514/3/4
f 78/3/4 505/3/4 105/3/4
f 105/3/4 505/3/4 518/3/4
f 111/3/4 522/3/4 108/3/4
f 108/3/4 522/3/4 521/3/4
f 60/2/4 526/2/4 112/2/4
f 112/2/4 526/2/4 525/2/4
f 90/2/4 529/2/4 115/2/4
f 115/2/4 529/2/4 528/2/4
f 71/2/4 588/2/4 144/2/4
f 144/2/4 588/2/4 602/2/4
f 116/2/4 530/2/4 132/2/4
f 132/2/4 530/2/4 535/2/4
f 141/3/4 544/3/4 138/3/4
f 138/3/4 544/3/4 543/3/4
f 148/3/4 548/3/4 145/3/4
f 145/3/4 548/3/4 547/3/4
f 151/3/4 552/3/4 149/3/4
f 149/3/4 552/3/4 551/3/4
f 159/3/4 559/3/4 156/3/4
f 156/3/4 559/3/4 558/3/4
f 171/3/4 563/3/4 168/3/4
f 168/3/4 563/3/4 562/3/4
f 175/3/4 567/3/4 172/3/4
f 172/3/4 567/3/4 566/3/4
f 189/2/4 601/2/4 772/2/4
f 772/2/4 601/2/4 599/2/4
f 780/2/4 598/2/4 207/2/4
f 207/2/4 598/2/4 585/2/4
f 212/2/4 578/2/4 209/2/4
f 209/2/4 578/2/4 579/2/4
f 208/2/4 584/2/4 781/2/4
f 781/2/4 584/2/4 583/2/4
f 217/3/4 582/3/4 229/3/4
f 229/3/4 582/3/4 590/3/4
f 235/3/4 594/3/4 232/3/4
f 232/3/4 594/3/4 593/3/4
f 782/2/4 586/2/4 783/2/4
f 783/2/4 586/2/4 597/2/4
f 246/3/4 605/3/4 243/3/4
f 243/3/4 605/3/4 604/3/4
f 250/3/4 609/3/4 247/3/4
f 247/3/4 609/3/4 608/3/4
f 254/3/4 613/3/4 251/3/4
f 251/3/4 613/3/4 612/3/4
f 262/3/4 621/3/4 259/3/4
f 259/3/4 621/3/4 620/3/4
f 266/3/4 625/3/4 263/3/4
f 263/3/4 625/3/4 624/3/4
f 282/3/4 633/3/4 279/3/4
f 279/3/4 633/3/4 632/3/4
f 274/2/4 644/2/4 297/2/4
f 297/2/4 644/2/4 642/2/4
f 286/3/4 637/3/4 283/3/4
f 283/3/4 637/3/4 636/3/4
f 294/2/4 672/2/4 291/2/4
f 291/2/4 672/2/4 670/2/4
f 298/2/4 641/2/4 295/2/4
f 295/2/4 641/2/4 640/2/4
f 299/2/4 656/2/4 319/2/4
f 319/2/4 656/2/4 655/2/4
f 335/3/4 665/3/4 332/3/4
f 332/3/4 665/3/4 664/3/4
f 339/2/4 663/2/4 336/2/4
f 336/2/4 663/2/4 668/2/4
f 343/3/4 675/3/4 340/3/4
f 340/3/4 675/3/4 674/3/4
f 355/3/4 687/3/4 352/3/4
f 352/3/4 687/3/4 686/3/4
f 363/3/4 695/3/4 360/3/4
f 360/3/4 695/3/4 694/3/4
f 784/2/4 714/2/4 382/2/4
f 382/2/4 714/2/4 712/2/4
f 379/3/4 707/3/4 376/3/4
f 376/3/4 707/3/4 706/3/4
f 383/2/4 711/2/4 380/2/4
f 380/2/4 711/2/4 710/2/4
f 394/3/4 718/3/4 391/3/4
f 391/3/4 718/3/4 717/3/4
f 398/2/4 737/2/4 395/2/4
f 395/2/4 737/2/4 735/2/4
f 430/2/4 734/2/4 773/2/4
f 773/2/4 734/2/4 755/2/4
f 427/3/4 730/3/4 424/3/4
f 424/3/4 730/3/4 729/3/4
f 442/3/4 750/3/4 439/3/4
f 439/3/4 750/3/4 749/3/4
f 785/2/4 754/2/4 786/2/4
f 786/2/4 754/2/4 753/2/4
f 787/2/4 758/2/4 788/2/4
f 788/2/4 758/2/4 757/2/4
f 12/3/4 463/3/4 9/3/4
f 9/3/4 463/3/4 462/3/4
f 20/3/4 471/3/4 17/3/4
f 17/3/4 471/3/4 470/3/4
f 66/1/4 774/1/4 87/1/4
f 87/1/4 774/1/4 775/1/4
f 47/1/4 776/1/4 44/1/4
f 44/1/4 776/1/4 777/1/4
f 76/1/4 778/1/4 128/1/4
f 128/1/4 778/1/4 779/1/4
f 88/1/4 61/1/4 85/1/4
f 85/1/4 61/1/4 114/1/4
f 64/1/4 91/1/4 93/1/4
f 93/1/4 91/1/4 90/1/4
f 94/1/4 117/1/4 118/1/4
f 118/1/4 117/1/4 116/1/4
f 48/1/4 51/1/4 126/1/4
f 126/1/4 51/1/4 144/1/4
f 137/3/4 540/3/4 134/3/4
f 134/3/4 540/3/4 539/3/4
f 127/1/4 129/1/4 162/1/4
f 162/1/4 129/1/4 143/1/4
f 155/3/4 555/3/4 152/3/4
f 152/3/4 555/3/4 554/3/4
f 163/1/4 142/1/4 160/1/4
f 160/1/4 142/1/4 179/1/4
f 182/1/4 178/1/4 180/1/4
f 180/1/4 178/1/4 177/1/4
f 215/1/4 185/1/4 199/1/4
f 199/1/4 185/1/4 184/1/4
f 192/1/4 176/1/4 190/1/4
f 190/1/4 176/1/4 188/1/4
f 181/1/4 195/1/4 196/1/4
f 196/1/4 195/1/4 194/1/4
f 239/1/4 780/1/4 222/1/4
f 222/1/4 780/1/4 206/1/4
f 198/1/4 211/1/4 213/1/4
f 213/1/4 211/1/4 210/1/4
f 223/1/4 205/1/4 220/1/4
f 220/1/4 205/1/4 781/1/4
f 221/1/4 782/1/4 236/1/4
f 236/1/4 782/1/4 783/1/4
f 258/3/4 617/3/4 255/3/4
f 255/3/4 617/3/4 616/3/4
f 270/3/4 629/3/4 267/3/4
f 267/3/4 629/3/4 628/3/4
f 305/1/4 273/1/4 289/1/4
f 289/1/4 273/1/4 272/1/4
f 290/1/4 271/1/4 287/1/4
f 287/1/4 271/1/4 301/1/4
f 288/1/4 300/1/4 302/1/4
f 302/1/4 300/1/4 299/1/4
f 331/1/4 291/1/4 327/1/4
f 327/1/4 291/1/4 310/1/4
f 318/3/4 652/3/4 315/3/4
f 315/3/4 652/3/4 651/3/4
f 306/1/4 321/1/4 322/1/4
f 322/1/4 321/1/4 320/1/4
f 347/3/4 679/3/4 344/3/4
f 344/3/4 679/3/4 678/3/4
f 359/3/4 691/3/4 356/3/4
f 356/3/4 691/3/4 690/3/4
f 367/3/4 699/3/4 364/3/4
f 364/3/4 699/3/4 698/3/4
f 387/1/4 784/1/4 384/1/4
f 384/1/4 784/1/4 381/1/4
f 405/3/4 722/3/4 402/3/4
f 402/3/4 722/3/4 721/3/4
f 416/3/4 726/3/4 413/3/4
f 413/3/4 726/3/4 725/3/4
f 434/1/4 395/1/4 431/1/4
f 431/1/4 395/1/4 429/1/4
f 438/1/4 452/1/4 435/1/4
f 435/1/4 452/1/4 771/1/4
f 446/1/4 785/1/4 443/1/4
f 443/1/4 785/1/4 786/1/4
f 449/1/4 787/1/4 447/1/4
f 447/1/4 787/1/4 788/1/4
f 36/3/4 479/3/4 33/3/4
f 33/3/4 479/3/4 478/3/4
f 351/3/4 683/3/4 348/3/4
f 348/3/4 683/3/4 682/3/4
f 375/3/4 703/3/4 372/3/4
f 372/3/4 703/3/4 702/3/4
f 517/3/5 102/3/5 514/3/5
f 514/3/5 102/3/5 101/3/5
f 596/3/5 233/3/5 593/3/5
f 593/3/5 233/3/5 232/3/5
f 720/3/5 392/3/5 717/3/5
f 717/3/5 392/3/5 391/3/5
f 461/3/5 6/3/5 458/3/5
f 458/3/5 6/3/5 5/3/5
f 569/3/5 173/3/5 566/3/5
f 566/3/5 173/3/5 172/3/5
f 752/3/5 440/3/5 749/3/5
f 749/3/5 440/3/5 439/3/5
f 701/3/5 365/3/5 698/3/5
f 698/3/5 365/3/5 364/3/5
f 546/3/5 139/3/5 543/3/5
f 543/3/5 139/3/5 138/3/5
f 586/2/5 782/2/5 583/2/5
f 583/2/5 782/2/5 781/2/5
f 782/1/5 221/1/5 781/1/5
f 781/1/5 221/1/5 220/1/5
f 724/3/5 403/3/5 721/3/5
f 721/3/5 403/3/5 402/3/5
f 489/2/5 72/2/5 486/2/5
f 486/2/5 72/2/5 777/2/5
f 240/1/5 237/1/5 783/1/5
f 783/1/5 237/1/5 236/1/5
f 588/2/5 71/2/5 498/2/5
f 498/2/5 71/2/5 70/2/5
f 603/2/5 241/2/5 597/2/5
f 597/2/5 241/2/5 783/2/5
f 756/2/5 770/2/5 753/2/5
f 753/2/5 770/2/5 786/2/5
f 51/1/5 48/1/5 777/1/5
f 777/1/5 48/1/5 44/1/5
f 227/1/5 225/1/5 242/1/5
f 242/1/5 225/1/5 224/1/5
f 770/1/5 444/1/5 786/1/5
f 786/1/5 444/1/5 443/1/5
f 589/2/5 228/2/5 587/2/5
f 587/2/5 228/2/5 227/2/5
f 737/2/5 398/2/5 710/2/5
f 710/2/5 398/2/5 380/2/5
f 465/3/5 10/3/5 462/3/5
f 462/3/5 10/3/5 9/3/5
f 178/1/5 182/1/5 179/1/5
f 179/1/5 182/1/5 160/1/5
f 193/1/5 191/1/5 188/1/5
f 188/1/5 191/1/5 190/1/5
f 607/3/5 244/3/5 604/3/5
f 604/3/5 244/3/5 243/3/5
f 689/3/5 353/3/5 686/3/5
f 686/3/5 353/3/5 352/3/5
f 129/1/5 127/1/5 144/1/5
f 144/1/5 127/1/5 126/1/5
f 195/1/5 181/1/5 177/1/5
f 177/1/5 181/1/5 180/1/5
f 477/3/5 22/3/5 474/3/5
f 474/3/5 22/3/5 21/3/5
f 758/2/5 787/2/5 733/2/5
f 733/2/5 787/2/5 428/2/5
f 77/1/5 74/1/5 131/1/5
f 131/1/5 74/1/5 73/1/5
f 397/1/5 388/1/5 381/1/5
f 381/1/5 388/1/5 384/1/5
f 787/1/5 449/1/5 429/1/5
f 429/1/5 449/1/5 431/1/5
f 505/2/5 78/2/5 502/2/5
f 502/2/5 78/2/5 77/2/5
f 578/2/5 212/2/5 570/2/5
f 570/2/5 212/2/5 193/2/5
f 611/3/5 248/3/5 608/3/5
f 608/3/5 248/3/5 247/3/5
f 764/1/5 165/1/5 186/1/5
f 186/1/5 165/1/5 164/1/5
f 693/3/5 357/3/5 690/3/5
f 690/3/5 357/3/5 356/3/5
f 520/3/5 106/3/5 518/3/5
f 518/3/5 106/3/5 105/3/5
f 211/1/5 198/1/5 194/1/5
f 194/1/5 198/1/5 196/1/5
f 452/1/5 438/1/5 453/1/5
f 453/1/5 438/1/5 417/1/5
f 553/3/5 150/3/5 551/3/5
f 551/3/5 150/3/5 149/3/5
f 216/1/5 214/1/5 210/1/5
f 210/1/5 214/1/5 213/1/5
f 481/3/5 34/3/5 478/3/5
f 478/3/5 34/3/5 33/3/5
f 550/3/5 146/3/5 547/3/5
f 547/3/5 146/3/5 145/3/5
f 582/2/5 217/2/5 579/2/5
f 579/2/5 217/2/5 209/2/5
f 748/2/5 769/2/5 742/2/5
f 742/2/5 769/2/5 771/2/5
f 218/1/5 202/1/5 219/1/5
f 219/1/5 202/1/5 201/1/5
f 769/1/5 436/1/5 771/1/5
f 771/1/5 436/1/5 435/1/5
f 705/3/5 373/3/5 702/3/5
f 702/3/5 373/3/5 372/3/5
f 509/3/5 82/3/5 506/3/5
f 506/3/5 82/3/5 81/3/5
f 592/3/5 230/3/5 590/3/5
f 590/3/5 230/3/5 229/3/5
f 697/3/5 361/3/5 694/3/5
f 694/3/5 361/3/5 360/3/5
f 565/3/5 169/3/5 562/3/5
f 562/3/5 169/3/5 168/3/5
f 728/3/5 414/3/5 725/3/5
f 725/3/5 414/3/5 413/3/5
f 709/3/5 377/3/5 706/3/5
f 706/3/5 377/3/5 376/3/5
f 732/3/5 425/3/5 729/3/5
f 729/3/5 425/3/5 424/3/5
f 639/3/5 284/3/5 636/3/5
f 636/3/5 284/3/5 283/3/5
f 627/3/5 264/3/5 624/3/5
f 624/3/5 264/3/5 263/3/5
f 667/3/5 333/3/5 664/3/5
f 664/3/5 333/3/5 332/3/5
f 615/3/5 252/3/5 612/3/5
f 612/3/5 252/3/5 251/3/5
f 656/2/5 299/2/5 640/2/5
f 640/2/5 299/2/5 295/2/5
f 300/1/5 288/1/5 301/1/5
f 301/1/5 288/1/5 287/1/5
f 619/3/5 256/3/5 616/3/5
f 616/3/5 256/3/5 255/3/5
f 681/3/5 345/3/5 678/3/5
f 678/3/5 345/3/5 344/3/5
f 321/1/5 306/1/5 299/1/5
f 299/1/5 306/1/5 302/1/5
f 493/3/5 56/3/5 490/3/5
f 490/3/5 56/3/5 55/3/5
f 623/3/5 260/3/5 620/3/5
f 620/3/5 260/3/5 259/3/5
f 663/2/5 339/2/5 655/2/5
f 655/2/5 339/2/5 319/2/5
f 524/3/5 109/3/5 521/3/5
f 521/3/5 109/3/5 108/3/5
f 685/3/5 349/3/5 682/3/5
f 682/3/5 349/3/5 348/3/5
f 469/3/5 14/3/5 466/3/5
f 466/3/5 14/3/5 13/3/5
f 673/2/5 337/2/5 668/2/5
f 668/2/5 337/2/5 336/2/5
f 631/3/5 268/3/5 628/3/5
f 628/3/5 268/3/5 267/3/5
f 338/1/5 329/1/5 320/1/5
f 320/1/5 329/1/5 322/1/5
f 526/2/5 60/2/5 494/2/5
f 494/2/5 60/2/5 59/2/5
f 650/2/5 313/2/5 647/2/5
f 647/2/5 313/2/5 312/2/5
f 527/2/5 113/2/5 525/2/5
f 525/2/5 113/2/5 112/2/5
f 635/3/5 280/3/5 632/3/5
f 632/3/5 280/3/5 279/3/5
f 677/3/5 341/3/5 674/3/5
f 674/3/5 341/3/5 340/3/5
f 89/1/5 86/1/5 114/1/5
f 114/1/5 86/1/5 85/1/5
f 557/3/5 153/3/5 554/3/5
f 554/3/5 153/3/5 152/3/5
f 457/3/5 2/3/5 454/3/5
f 454/3/5 2/3/5 1/3/5
f 529/2/5 90/2/5 510/2/5
f 510/2/5 90/2/5 89/2/5
f 91/1/5 64/1/5 92/1/5
f 92/1/5 64/1/5 63/1/5
f 654/3/5 316/3/5 651/3/5
f 651/3/5 316/3/5 315/3/5
f 530/2/5 116/2/5 528/2/5
f 528/2/5 116/2/5 115/2/5
f 117/1/5 94/1/5 90/1/5
f 90/1/5 94/1/5 93/1/5
f 538/2/5 133/2/5 535/2/5
f 535/2/5 133/2/5 132/2/5
f 122/1/5 119/1/5 116/1/5
f 116/1/5 119/1/5 118/1/5
f 534/2/5 123/2/5 531/2/5
f 531/2/5 123/2/5 122/2/5
f 473/3/5 18/3/5 470/3/5
f 470/3/5 18/3/5 17/3/5
f 124/1/5 98/1/5 125/1/5
f 125/1/5 98/1/5 97/1/5
f 561/3/5 157/3/5 558/3/5
f 558/3/5 157/3/5 156/3/5
f 485/3/5 41/3/5 482/3/5
f 482/3/5 41/3/5 40/3/5
f 542/3/5 135/3/5 539/3/5
f 539/3/5 135/3/5 134/3/5
f 516/3/6 515/3/6 103/3/6
f 103/3/6 515/3/6 104/3/6
f 595/3/6 594/3/6 234/3/6
f 234/3/6 594/3/6 235/3/6
f 719/3/6 718/3/6 393/3/6
f 393/3/6 718/3/6 394/3/6
f 460/3/6 459/3/6 7/3/6
f 7/3/6 459/3/6 8/3/6
f 568/3/6 567/3/6 174/3/6
f 174/3/6 567/3/6 175/3/6
f 751/3/6 750/3/6 441/3/6
f 441/3/6 750/3/6 442/3/6
f 700/3/6 699/3/6 366/3/6
f 366/3/6 699/3/6 367/3/6
f 545/3/6 544/3/6 140/3/6
f 140/3/6 544/3/6 141/3/6
f 585/2/6 584/2/6 207/2/6
f 207/2/6 584/2/6 208/2/6
f 32/1/6 776/1/6 46/1/6
f 46/1/6 776/1/6 47/1/6
f 206/1/6 205/1/6 222/1/6
f 222/1/6 205/1/6 223/1/6
f 723/3/6 722/3/6 404/3/6
f 404/3/6 722/3/6 405/3/6
f 488/2/6 487/2/6 31/2/6
f 31/2/6 487/2/6 776/2/6
f 599/2/6 598/2/6 772/2/6
f 772/2/6 598/2/6 780/2/6
f 772/1/6 780/1/6 238/1/6
f 238/1/6 780/1/6 239/1/6
f 602/2/6 601/2/6 144/2/6
f 144/2/6 601/2/6 189/2/6
f 712/2/6 711/2/6 382/2/6
f 382/2/6 711/2/6 383/2/6
f 755/2/6 754/2/6 773/2/6
f 773/2/6 754/2/6 785/2/6
f 54/1/6 29/1/6 49/1/6
f 49/1/6 29/1/6 50/1/6
f 188/1/6 187/1/6 190/1/6
f 190/1/6 187/1/6 226/1/6
f 773/1/6 785/1/6 445/1/6
f 445/1/6 785/1/6 446/1/6
f 500/2/6 499/2/6 53/2/6
f 53/2/6 499/2/6 30/2/6
f 735/2/6 734/2/6 395/2/6
f 395/2/6 734/2/6 430/2/6
f 464/3/6 463/3/6 11/3/6
f 11/3/6 463/3/6 12/3/6
f 177/1/6 176/1/6 180/1/6
f 180/1/6 176/1/6 192/1/6
f 371/1/6 784/1/6 386/1/6
f 386/1/6 784/1/6 387/1/6
f 572/2/6 571/2/6 779/2/6
f 779/2/6 571/2/6 52/2/6
f 606/3/6 605/3/6 245/3/6
f 245/3/6 605/3/6 246/3/6
f 688/3/6 687/3/6 354/3/6
f 354/3/6 687/3/6 355/3/6
f 715/2/6 714/2/6 370/2/6
f 370/2/6 714/2/6 784/2/6
f 779/1/6 51/1/6 128/1/6
f 128/1/6 51/1/6 48/1/6
f 143/1/6 142/1/6 162/1/6
f 162/1/6 142/1/6 163/1/6
f 476/3/6 475/3/6 23/3/6
f 23/3/6 475/3/6 24/3/6
f 80/1/6 778/1/6 75/1/6
f 75/1/6 778/1/6 76/1/6
f 401/1/6 368/1/6 389/1/6
f 389/1/6 368/1/6 390/1/6
f 504/2/6 574/2/6 79/2/6
f 79/2/6 574/2/6 778/2/6
f 577/2/6 576/2/6 763/2/6
f 763/2/6 576/2/6 130/2/6
f 610/3/6 609/3/6 249/3/6
f 249/3/6 609/3/6 250/3/6
f 740/2/6 739/2/6 400/2/6
f 400/2/6 739/2/6 369/2/6
f 763/1/6 129/1/6 166/1/6
f 166/1/6 129/1/6 127/1/6
f 692/3/6 691/3/6 358/3/6
f 358/3/6 691/3/6 359/3/6
f 399/1/6 395/1/6 433/1/6
f 433/1/6 395/1/6 434/1/6
f 519/3/6 505/3/6 107/3/6
f 107/3/6 505/3/6 78/3/6
f 761/2/6 760/2/6 408/2/6
f 408/2/6 760/2/6 409/2/6
f 184/1/6 183/1/6 199/1/6
f 199/1/6 183/1/6 200/1/6
f 547/3/6 552/3/6 145/3/6
f 145/3/6 552/3/6 151/3/6
f 744/2/6 743/2/6 411/2/6
f 411/2/6 743/2/6 412/2/6
f 410/1/6 406/1/6 419/1/6
f 419/1/6 406/1/6 420/1/6
f 480/3/6 479/3/6 35/3/6
f 35/3/6 479/3/6 36/3/6
f 549/3/6 548/3/6 147/3/6
f 147/3/6 548/3/6 148/3/6
f 581/2/6 580/2/6 765/2/6
f 765/2/6 580/2/6 764/2/6
f 747/2/6 746/2/6 423/2/6
f 423/2/6 746/2/6 410/2/6
f 765/1/6 185/1/6 203/1/6
f 203/1/6 185/1/6 215/1/6
f 422/1/6 421/1/6 437/1/6
f 437/1/6 421/1/6 418/1/6
f 704/3/6 703/3/6 374/3/6
f 374/3/6 703/3/6 375/3/6
f 508/3/6 507/3/6 83/3/6
f 83/3/6 507/3/6 84/3/6
f 591/3/6 582/3/6 231/3/6
f 231/3/6 582/3/6 217/3/6
f 696/3/6 695/3/6 362/3/6
f 362/3/6 695/3/6 363/3/6
f 564/3/6 563/3/6 170/3/6
f 170/3/6 563/3/6 171/3/6
f 727/3/6 726/3/6 415/3/6
f 415/3/6 726/3/6 416/3/6
f 708/3/6 707/3/6 378/3/6
f 378/3/6 707/3/6 379/3/6
f 731/3/6 730/3/6 426/3/6
f 426/3/6 730/3/6 427/3/6
f 638/3/6 637/3/6 285/3/6
f 285/3/6 637/3/6 286/3/6
f 626/3/6 625/3/6 265/3/6
f 265/3/6 625/3/6 266/3/6
f 666/3/6 665/3/6 334/3/6
f 334/3/6 665/3/6 335/3/6
f 614/3/6 613/3/6 253/3/6
f 253/3/6 613/3/6 254/3/6
f 642/2/6 641/2/6 297/2/6
f 297/2/6 641/2/6 298/2/6
f 272/1/6 271/1/6 289/1/6
f 289/1/6 271/1/6 290/1/6
f 645/2/6 644/2/6 766/2/6
f 766/2/6 644/2/6 274/2/6
f 618/3/6 617/3/6 257/3/6
f 257/3/6 617/3/6 258/3/6
f 766/1/6 273/1/6 304/1/6
f 304/1/6 273/1/6 305/1/6
f 680/3/6 679/3/6 346/3/6
f 346/3/6 679/3/6 347/3/6
f 659/2/6 658/2/6 277/2/6
f 277/2/6 658/2/6 278/2/6
f 276/1/6 275/1/6 307/1/6
f 307/1/6 275/1/6 308/1/6
f 492/3/6 491/3/6 57/3/6
f 57/3/6 491/3/6 58/3/6
f 622/3/6 621/3/6 261/3/6
f 261/3/6 621/3/6 262/3/6
f 662/2/6 661/2/6 768/2/6
f 768/2/6 661/2/6 767/2/6
f 768/1/6 767/1/6 324/1/6
f 324/1/6 767/1/6 325/1/6
f 523/3/6 522/3/6 110/3/6
f 110/3/6 522/3/6 111/3/6
f 670/2/6 669/2/6 291/2/6
f 291/2/6 669/2/6 311/2/6
f 310/1/6 309/1/6 327/1/6
f 327/1/6 309/1/6 328/1/6
f 684/3/6 683/3/6 350/3/6
f 350/3/6 683/3/6 351/3/6
f 468/3/6 467/3/6 15/3/6
f 15/3/6 467/3/6 16/3/6
f 630/3/6 629/3/6 269/3/6
f 269/3/6 629/3/6 270/3/6
f 314/1/6 291/1/6 330/1/6
f 330/1/6 291/1/6 331/1/6
f 649/2/6 672/2/6 293/2/6
f 293/2/6 672/2/6 294/2/6
f 496/2/6 495/2/6 775/2/6
f 775/2/6 495/2/6 62/2/6
f 634/3/6 633/3/6 281/3/6
f 281/3/6 633/3/6 282/3/6
f 676/3/6 675/3/6 342/3/6
f 342/3/6 675/3/6 343/3/6
f 775/1/6 61/1/6 87/1/6
f 87/1/6 61/1/6 88/1/6
f 556/3/6 555/3/6 154/3/6
f 154/3/6 555/3/6 155/3/6
f 456/3/6 455/3/6 3/3/6
f 3/3/6 455/3/6 4/3/6
f 28/1/6 774/1/6 65/1/6
f 65/1/6 774/1/6 66/1/6
f 653/3/6 652/3/6 317/3/6
f 317/3/6 652/3/6 318/3/6
f 512/2/6 511/2/6 27/2/6
f 27/2/6 511/2/6 774/2/6
f 26/1/6 25/1/6 95/1/6
f 95/1/6 25/1/6 96/1/6
f 537/2/6 536/2/6 39/2/6
f 39/2/6 536/2/6 26/2/6
f 38/1/6 37/1/6 120/1/6
f 120/1/6 37/1/6 121/1/6
f 533/2/6 532/2/6 69/2/6
f 69/2/6 532/2/6 38/2/6
f 472/3/6 471/3/6 19/3/6
f 19/3/6 471/3/6 20/3/6
f 68/1/6 67/1/6 99/1/6
f 99/1/6 67/1/6 100/1/6
f 560/3/6 559/3/6 158/3/6
f 158/3/6 559/3/6 159/3/6
f 484/3/6 483/3/6 42/3/6
f 42/3/6 483/3/6 43/3/6
f 541/3/6 540/3/6 136/3/6
f 136/3/6 540/3/6 137/3/6
f 789/3/1 790/3/1 792/3/1
f 792/3/1 790/3/1 791/3/1
f 793/3/2 794/3/2 796/3/2
f 796/3/2 794/3/2 795/3/2
f 791/3/3 790/3/3 795/3/3
f 795/3/3 790/3/3 796/3/3
f 792/3/4 794/3/4 789/3/4
f 789/3/4 794/3/4 793/3/4
f 796/3/5 790/3/5 793/3/5
f 793/3/5 790/3/5 789/3/5
f 795/3/6 794/3/6 791/3/6
f 791/3/6 794/3/6 792/3/6
f 797/1/1 798/1/1 448/1/1
f 448/1/1 798/1/1 799/1/1
f 800/2/1 801/2/1 803/2/1
f 803/2/1 801/2/1 802/2/1
f 804/1/1 805/1/1 447/1/1
f 447/1/1 805/1/1 448/1/1
f 806/3/1 807/3/1 809/3/1
f 809/3/1 807/3/1 808/3/1
f 810/3/1 811/3/1 813/3/1
f 813/3/1 811/3/1 812/3/1
f 814/3/1 815/3/1 817/3/1
f 817/3/1 815/3/1 816/3/1
f 818/3/1 819/3/1 821/3/1
f 821/3/1 819/3/1 820/3/1
f 822/3/1 823/3/1 825/3/1
f 825/3/1 823/3/1 824/3/1
f 826/3/1 827/3/1 829/3/1
f 829/3/1 827/3/1 828/3/1
f 830/2/2 759/2/2 831/2/2
f 831/2/2 759/2/2 762/2/2
f 832/2/2 833/2/2 835/2/2
f 835/2/2 833/2/2 834/2/2
f 835/2/2 757/2/2 836/2/2
f 836/2/2 757/2/2 759/2/2
f 837/3/2 838/3/2 840/3/2
f 840/3/2 838/3/2 839/3/2
f 841/3/2 842/3/2 844/3/2
f 844/3/2 842/3/2 843/3/2
f 845/3/2 846/3/2 848/3/2
f 848/3/2 846/3/2 847/3/2
f 849/3/2 850/3/2 852/3/2
f 852/3/2 850/3/2 851/3/2
f 853/3/2 854/3/2 856/3/2
f 856/3/2 854/3/2 855/3/2
f 857/3/2 858/3/2 860/3/2
f 860/3/2 858/3/2 859/3/2
f 451/2/3 861/2/3 762/2/3
f 762/2/3 861/2/3 831/2/3
f 862/2/3 863/2/3 830/2/3
f 830/2/3 863/2/3 836/2/3
f 808/3/3 807/3/3 839/3/3
f 839/3/3 807/3/3 840/3/3
f 816/3/3 815/3/3 847/3/3
f 847/3/3 815/3/3 848/3/3
f 824/3/3 823/3/3 855/3/3
f 855/3/3 823/3/3 856/3/3
f 828/3/3 827/3/3 859/3/3
f 859/3/3 827/3/3 860/3/3
f 799/1/3 798/1/3 451/1/3
f 451/1/3 798/1/3 861/1/3
f 797/1/3 805/1/3 862/1/3
f 862/1/3 805/1/3 863/1/3
f 812/3/3 811/3/3 843/3/3
f 843/3/3 811/3/3 844/3/3
f 820/3/3 819/3/3 851/3/3
f 851/3/3 819/3/3 852/3/3
f 788/2/4 757/2/4 802/2/4
f 802/2/4 757/2/4 834/2/4
f 803/2/4 833/2/4 800/2/4
f 800/2/4 833/2/4 832/2/4
f 809/3/4 838/3/4 806/3/4
f 806/3/4 838/3/4 837/3/4
f 817/3/4 846/3/4 814/3/4
f 814/3/4 846/3/4 845/3/4
f 825/3/4 854/3/4 822/3/4
f 822/3/4 854/3/4 853/3/4
f 829/3/4 858/3/4 826/3/4
f 826/3/4 858/3/4 857/3/4
f 447/1/4 788/1/4 804/1/4
f 804/1/4 788/1/4 801/1/4
f 813/3/4 842/3/4 810/3/4
f 810/3/4 842/3/4 841/3/4
f 821/3/4 850/3/4 818/3/4
f 818/3/4 850/3/4 849/3/4
f 844/3/5 811/3/5 841/3/5
f 841/3/5 811/3/5 810/3/5
f 852/3/5 819/3/5 849/3/5
f 849/3/5 819/3/5 818/3/5
f 860/3/5 827/3/5 857/3/5
f 857/3/5 827/3/5 826/3/5
f 836/2/5 863/2/5 832/2/5
f 832/2/5 863/2/5 800/2/5
f 863/1/5 805/1/5 801/1/5
f 801/1/5 805/1/5 804/1/5
f 831/2/5 861/2/5 830/2/5
f 830/2/5 861/2/5 862/2/5
f 856/3/5 823/3/5 853/3/5
f 853/3/5 823/3/5 822/3/5
f 861/1/5 798/1/5 862/1/5
f 862/1/5 798/1/5 797/1/5
f 848/3/5 815/3/5 845/3/5
f 845/3/5 815/3/5 814/3/5
f 840/3/5 807/3/5 837/3/5
f 837/3/5 807/3/5 806/3/5
f 843/3/6 842/3/6 812/3/6
f 812/3/6 842/3/6 813/3/6
f 851/3/6 850/3/6 820/3/6
f 820/3/6 850/3/6 821/3/6
f 834/2/6 833/2/6 802/2/6
f 802/2/6 833/2/6 803/2/6
f 859/3/6 858/3/6 828/3/6
f 828/3/6 858/3/6 829/3/6
f 855/3/6 854/3/6 824/3/6
f 824/3/6 854/3/6 825/3/6
f 451/1/6 450/1/6 799/1/6
f 799/1/6 450/1/6 448/1/6
f 847/3/6 846/3/6 816/3/6
f 816/3/6 846/3/6 817/3/6
f 839/3/6 838/3/6 808/3/6
f 808/3/6 838/3/6 809/3/6
