# Vengi binary mesh normalized for Tanks of Freedom II

mtllib ../../materials/vox_grass.mtl
o rocks_1_overtile

v 0.3 0.1 1.8
v 0.2 0.1 1.8
v 0.2 0.1 1.9
v 0.3 0.1 1.9
v -0.4 0.1 1.8
v -0.5 0.1 1.8
v -0.5 0.1 1.9
v -0.4 0.1 1.9
v 0.1 0.2 1.7
v 0 0.2 1.7
v 0 0.2 1.8
v 0.1 0.2 1.8
v -0.2 0.2 1.6
v -0.3 0.2 1.6
v -0.3 0.2 1.7
v -0.2 0.2 1.7
v 0.8 0.1 1.5
v 0.7 0.1 1.5
v 0.7 0.1 1.6
v 0.8 0.1 1.6
v 0.2 0.1 1.5
v 0.1 0.1 1.5
v 0.1 0.1 1.6
v 0.2 0.1 1.6
v 0.1 0.2 1.5
v -0.1 0.2 1.5
v -0.1 0.2 1.6
v 0.1 0.2 1.6
v -0.2 0.2 1.5
v -0.1 0.2 1.7
v -0.2 0.1 1.5
v -0.3 0.1 1.5
v -0.3 0.1 1.6
v -0.2 0.1 1.6
v 0.1 0.3 1.4
v 0 0.3 1.4
v 0 0.3 1.5
v 0.1 0.3 1.5
v 0 0.2 1.4
v -0.1 0.2 1.4
v 0 0.2 1.5
v -0.1 0.1 1.4
v -0.2 0.1 1.4
v -0.1 0.1 1.5
v 0.3 0.2 1.3
v 0.2 0.2 1.3
v 0.2 0.2 1.5
v 0.3 0.2 1.5
v 0.2 0.3 1.3
v 0.1 0.3 1.3
v 0.2 0.3 1.5
v 0.1 0.2 1.3
v 0 0.2 1.3
v 0.1 0.2 1.4
v 0.2 0.1 1.2
v 0 0.1 1.2
v 0 0.1 1.3
v 0.2 0.1 1.3
v -0.1 0.1 1.2
v 0 0.1 1.4
v -0.2 0.1 1.2
v -0.3 0.1 1.2
v -0.3 0.1 1.3
v -0.2 0.1 1.3
v 0.4 0.1 1
v 0.3 0.1 1
v 0.3 0.1 1.1
v 0.4 0.1 1.1
v 0 0.2 1
v -0.1 0.2 1
v -0.1 0.2 1.1
v 0 0.2 1.1
v 1.5 0.1 0.6
v 1.4 0.1 0.6
v 1.4 0.1 0.7
v 1.5 0.1 0.7
v 0.9 0.2 0.4
v 0.8 0.2 0.4
v 0.8 0.2 0.5
v 0.9 0.2 0.5
v 1.9 0.1 0.3
v 1.8 0.1 0.3
v 1.8 0.1 0.4
v 1.9 0.1 0.4
v 1.6 0.2 0.2
v 1.5 0.2 0.2
v 1.5 0.2 0.3
v 1.6 0.2 0.3
v 1.4 0.1 0.2
v 1.1 0.1 0.2
v 1.1 0.1 0.3
v 1.4 0.1 0.3
v 1.5 0.1 0.1
v 1.4 0.1 0.1
v 1.5 0.1 0.2
v 0.8 0.1 0.1
v 0.7 0.1 0.1
v 0.7 0.1 0.2
v 0.8 0.1 0.2
v 1.5 0.2 0
v 1.4 0.2 0
v 1.4 0.2 0.1
v 1.5 0.2 0.1
v 1.2 0.2 0
v 1.1 0.2 0
v 1.1 0.2 0.2
v 1.2 0.2 0.2
v 1.1 0.1 0
v 1 0.1 0
v 1 0.1 0.2
v 1.5 0.1 -0.1
v 1.4 0.1 -0.1
v 1.4 0.1 0
v 1.5 0.1 0
v 1.4 0.2 -0.1
v 1.2 0.2 -0.1
v 1.4 0.2 0.2
v 1.2 0.1 -0.1
v 1.1 0.1 -0.1
v 1.2 0.1 0
v 1.8 0.1 -0.2
v 1.7 0.1 -0.2
v 1.7 0.1 -0.1
v 1.8 0.1 -0.1
v 1.1 0.1 -0.2
v 1 0.1 -0.2
v 1 0.1 -0.1
v 1.7 0.2 -0.4
v 1.6 0.2 -0.4
v 1.6 0.2 -0.3
v 1.7 0.2 -0.3
v 2.1 0.1 -0.5
v 2 0.1 -0.5
v 2 0.1 -0.4
v 2.1 0.1 -0.4
v 1.3 0.3 -0.5
v 1.2 0.3 -0.5
v 1.2 0.3 -0.4
v 1.3 0.3 -0.4
v -1.7 0.1 -1.1
v -1.8 0.1 -1.1
v -1.8 0.1 -1
v -1.7 0.1 -1
v -1.2 0.1 -1.3
v -1.3 0.1 -1.3
v -1.3 0.1 -1.2
v -1.2 0.1 -1.2
v -1.6 0.3 -1.3
v -1.7 0.3 -1.3
v -1.7 0.3 -1.2
v -1.6 0.3 -1.2
v -1.8 0.2 -1.3
v -2.1 0.2 -1.3
v -2.1 0.2 -1.2
v -1.8 0.2 -1.2
v -2 0.2 -1.4
v -2.1 0.2 -1.4
v -2 0.2 -1.3
v -2.1 0.1 -1.4
v -2.2 0.1 -1.4
v -2.2 0.1 -1.3
v -2.1 0.1 -1.3
v -1.6 0.1 -1.5
v -1.7 0.1 -1.5
v -1.7 0.1 -1.4
v -1.6 0.1 -1.4
v -1.8 0.3 -1.5
v -2 0.3 -1.5
v -2 0.3 -1.3
v -1.8 0.3 -1.3
v -1.2 0.1 -1.6
v -1.3 0.1 -1.6
v -1.3 0.1 -1.5
v -1.2 0.1 -1.5
v -1.5 0.1 -1.6
v -1.6 0.1 -1.6
v -1.5 0.1 -1.4
v -1.6 0.2 -1.6
v -1.7 0.2 -1.6
v -1.7 0.2 -1.5
v -1.6 0.2 -1.5
v -1.8 0.2 -1.6
v -1.8 0.2 -1.4
v -1.7 0.2 -1.4
v -1.9 0.2 -1.6
v -1.9 0.2 -1.5
v -1.8 0.2 -1.5
v -1.9 0.3 -1.7
v -2 0.3 -1.7
v -1.9 0.3 -1.5
v -2.2 0.3 -1.7
v -2.2 0.3 -1.4
v -2 0.3 -1.4
v -1.4 0.2 -1.8
v -1.6 0.2 -1.8
v -1.4 0.2 -1.6
v -1.9 0.2 -1.8
v -2.1 0.2 -1.8
v -2.1 0.2 -1.7
v -1.9 0.2 -1.7
v -2.1 0.1 -1.8
v -2.2 0.1 -1.8
v -2.2 0.1 -1.7
v -2.1 0.1 -1.7
v -1.2 0.1 -1.9
v -1.3 0.1 -1.9
v -1.3 0.1 -1.8
v -1.2 0.1 -1.8
v -1.6 0.1 -1.9
v -1.7 0.1 -1.9
v -1.7 0.1 -1.8
v -1.6 0.1 -1.8
v -1.8 0.1 -1.9
v -1.9 0.1 -1.9
v -1.9 0.1 -1.6
v -1.8 0.1 -1.6
v -2.1 0.1 -1.9
v -1.9 0.1 -1.8
v -1.4 0.1 -2.1
v -1.5 0.1 -2.1
v -1.5 0.1 -2
v -1.4 0.1 -2
v -1.8 0.1 -2.1
v -1.9 0.1 -2.1
v -1.9 0.1 -2
v -1.8 0.1 -2
v -2.1 0.1 -2.1
v -2.2 0.1 -2.1
v -2.2 0.1 -2
v -2.1 0.1 -2
v 0.3 0 1.8
v 0.3 0 1.9
v 0.2 0 1.9
v 0.2 0 1.8
v -0.4 0 1.8
v -0.4 0 1.9
v -0.5 0 1.9
v -0.5 0 1.8
v 0.1 0 1.7
v 0.1 0 1.8
v 0 0 1.8
v 0 0 1.7
v 0.8 0 1.5
v 0.8 0 1.6
v 0.7 0 1.6
v 0.7 0 1.5
v -0.2 0 1.5
v -0.2 0 1.7
v -0.3 0 1.7
v -0.3 0 1.5
v -0.1 0 1.4
v -0.1 0 1.7
v -0.2 0 1.4
v 0.3 0 1.3
v 0.3 0 1.5
v 0.2 0 1.5
v 0.2 0 1.3
v 0.2 0 1.2
v 0.2 0 1.6
v -0.1 0 1.6
v -0.1 0 1.2
v -0.2 0 1.2
v -0.2 0 1.3
v -0.3 0 1.3
v -0.3 0 1.2
v 0.4 0 1
v 0.4 0 1.1
v 0.3 0 1.1
v 0.3 0 1
v 0 0 1
v 0 0 1.1
v -0.1 0 1.1
v -0.1 0 1
v 1.5 0 0.6
v 1.5 0 0.7
v 1.4 0 0.7
v 1.4 0 0.6
v 0.9 0 0.4
v 0.9 0 0.5
v 0.8 0 0.5
v 0.8 0 0.4
v 1.9 0 0.3
v 1.9 0 0.4
v 1.8 0 0.4
v 1.8 0 0.3
v 1.6 0 0.2
v 1.6 0 0.3
v 1.5 0 0.3
v 1.5 0 0.2
v 0.8 0 0.1
v 0.8 0 0.2
v 0.7 0 0.2
v 0.7 0 0.1
v 1.1 0 0
v 1.1 0 0.2
v 1 0 0.2
v 1 0 0
v 1.5 0 -0.1
v 1.4 0 0.2
v 1.4 0 -0.1
v 1.4 0 0.3
v 1.1 0 0.3
v 1.1 0 -0.1
v 1.8 0 -0.2
v 1.8 0 -0.1
v 1.7 0 -0.1
v 1.7 0 -0.2
v 1.1 0 -0.2
v 1 0 -0.1
v 1 0 -0.2
v 1.7 0 -0.4
v 1.7 0 -0.3
v 1.6 0 -0.3
v 1.6 0 -0.4
v 2.1 0 -0.5
v 2.1 0 -0.4
v 2 0 -0.4
v 2 0 -0.5
v 1.3 0 -0.5
v 1.3 0 -0.4
v 1.2 0 -0.4
v 1.2 0 -0.5
v -1.7 0 -1.1
v -1.7 0 -1
v -1.8 0 -1
v -1.8 0 -1.1
v -1.2 0 -1.3
v -1.2 0 -1.2
v -1.3 0 -1.2
v -1.3 0 -1.3
v -1.6 0 -1.3
v -1.6 0 -1.2
v -1.7 0 -1.2
v -1.7 0 -1.3
v -1.2 0 -1.6
v -1.2 0 -1.5
v -1.3 0 -1.5
v -1.3 0 -1.6
v -1.6 0 -1.6
v -1.6 0 -1.4
v -1.8 0 -1.4
v -1.8 0 -1.6
v -1.4 0 -1.8
v -1.4 0 -1.6
v -1.5 0 -1.6
v -1.5 0 -1.8
v -1.5 0 -1.4
v -1.6 0 -1.8
v -2.1 0 -1.8
v -2.1 0 -1.3
v -2.2 0 -1.3
v -2.2 0 -1.8
v -1.2 0 -1.9
v -1.2 0 -1.8
v -1.3 0 -1.8
v -1.3 0 -1.9
v -1.6 0 -1.9
v -1.7 0 -1.8
v -1.7 0 -1.9
v -1.8 0 -1.9
v -1.8 0 -1.2
v -2.1 0 -1.2
v -2.1 0 -1.9
v -1.4 0 -2.1
v -1.4 0 -2
v -1.5 0 -2
v -1.5 0 -2.1
v -1.8 0 -2.1
v -1.8 0 -2
v -1.9 0 -2
v -1.9 0 -2.1
v -2.1 0 -2.1
v -2.1 0 -2
v -2.2 0 -2
v -2.2 0 -2.1
v -0.3 0.1 1.7
v -2.1 0.1 -1.2
v -2.2 0 -1.4
v -2.2 0.2 -1.7
v -2.2 0.2 -1.4
v -0.1 0.1 1.7
v -0.1 0.1 1.6
v -1.8 0.1 -1.2
v -1.8 0.1 -1.4
v -1.4 0.1 -1.6
v -1.4 0.1 -1.8
v 0.1 0.1 1.3
v -2.3 0.1 -1.1
v -2.4 0.1 -1.1
v -2.4 0.1 -1
v -2.3 0.1 -1
v -2.4 0.2 -1.4
v -2.5 0.2 -1.4
v -2.5 0.2 -1.3
v -2.4 0.2 -1.3
v -2.3 0.2 -1.7
v -2.3 0.2 -1.4
v -2.5 0.2 -1.7
v -2.6 0.2 -1.7
v -2.6 0.2 -1.6
v -2.5 0.2 -1.6
v -2.3 0.1 -1.8
v -2.3 0.1 -1.7
v -2.4 0.1 -1.8
v -2.4 0.1 -1.5
v -2.3 0.1 -1.5
v -2.4 0.1 -2
v -2.5 0.1 -2
v -2.5 0.1 -1.9
v -2.4 0.1 -1.9
v -2.3 0 -1.1
v -2.3 0 -1
v -2.4 0 -1
v -2.4 0 -1.1
v -2.4 0 -1.4
v -2.4 0 -1.3
v -2.5 0 -1.3
v -2.5 0 -1.4
v -2.5 0 -1.7
v -2.5 0 -1.6
v -2.6 0 -1.6
v -2.6 0 -1.7
v -2.3 0 -1.4
v -2.3 0 -1.8
v -2.3 0 -1.5
v -2.4 0 -1.5
v -2.4 0 -1.8
v -2.4 0 -2
v -2.4 0 -1.9
v -2.5 0 -1.9
v -2.5 0 -2
v -2.3 0.1 -1.4

vt 0.0332031 0.5
vt 0.0683594 0.5
vt 0.0722656 0.5
vt 0.0996094 0.5

vn 0 1 0
vn 0 -1 0
vn -1 0 0
vn 1 0 0
vn 0 0 -1
vn 0 0 1

usemtl palette
f 1/4/1 2/4/1 4/4/1
f 4/4/1 2/4/1 3/4/1
f 5/4/1 6/4/1 8/4/1
f 8/4/1 6/4/1 7/4/1
f 9/4/1 10/4/1 12/4/1
f 12/4/1 10/4/1 11/4/1
f 13/1/1 14/1/1 16/1/1
f 16/1/1 14/1/1 15/1/1
f 17/4/1 18/4/1 20/4/1
f 20/4/1 18/4/1 19/4/1
f 21/2/1 22/2/1 24/2/1
f 24/2/1 22/2/1 23/2/1
f 25/1/1 26/1/1 28/1/1
f 28/1/1 26/1/1 27/1/1
f 26/1/1 29/1/1 30/1/1
f 30/1/1 29/1/1 16/1/1
f 31/2/1 32/2/1 34/2/1
f 34/2/1 32/2/1 33/2/1
f 35/1/1 36/1/1 38/1/1
f 38/1/1 36/1/1 37/1/1
f 39/1/1 40/1/1 41/1/1
f 41/1/1 40/1/1 26/1/1
f 42/2/1 43/2/1 44/2/1
f 44/2/1 43/2/1 31/2/1
f 45/2/1 46/2/1 48/2/1
f 48/2/1 46/2/1 47/2/1
f 49/1/1 50/1/1 51/1/1
f 51/1/1 50/1/1 38/1/1
f 52/1/1 53/1/1 54/1/1
f 54/1/1 53/1/1 39/1/1
f 55/2/1 56/2/1 58/2/1
f 58/2/1 56/2/1 57/2/1
f 56/2/1 59/2/1 60/2/1
f 60/2/1 59/2/1 42/2/1
f 61/4/1 62/4/1 64/4/1
f 64/4/1 62/4/1 63/4/1
f 65/4/1 66/4/1 68/4/1
f 68/4/1 66/4/1 67/4/1
f 69/4/1 70/4/1 72/4/1
f 72/4/1 70/4/1 71/4/1
f 73/4/1 74/4/1 76/4/1
f 76/4/1 74/4/1 75/4/1
f 77/4/1 78/4/1 80/4/1
f 80/4/1 78/4/1 79/4/1
f 81/4/1 82/4/1 84/4/1
f 84/4/1 82/4/1 83/4/1
f 85/4/1 86/4/1 88/4/1
f 88/4/1 86/4/1 87/4/1
f 89/2/1 90/2/1 92/2/1
f 92/2/1 90/2/1 91/2/1
f 93/2/1 94/2/1 95/2/1
f 95/2/1 94/2/1 89/2/1
f 96/4/1 97/4/1 99/4/1
f 99/4/1 97/4/1 98/4/1
f 100/1/1 101/1/1 103/1/1
f 103/1/1 101/1/1 102/1/1
f 104/1/1 105/1/1 107/1/1
f 107/1/1 105/1/1 106/1/1
f 108/2/1 109/2/1 90/2/1
f 90/2/1 109/2/1 110/2/1
f 111/2/1 112/2/1 114/2/1
f 114/2/1 112/2/1 113/2/1
f 115/1/1 116/1/1 117/1/1
f 117/1/1 116/1/1 107/1/1
f 118/2/1 119/2/1 120/2/1
f 120/2/1 119/2/1 108/2/1
f 121/4/1 122/4/1 124/4/1
f 124/4/1 122/4/1 123/4/1
f 125/4/1 126/4/1 119/4/1
f 119/4/1 126/4/1 127/4/1
f 128/4/1 129/4/1 131/4/1
f 131/4/1 129/4/1 130/4/1
f 132/4/1 133/4/1 135/4/1
f 135/4/1 133/4/1 134/4/1
f 136/4/1 137/4/1 139/4/1
f 139/4/1 137/4/1 138/4/1
f 140/4/1 141/4/1 143/4/1
f 143/4/1 141/4/1 142/4/1
f 144/4/1 145/4/1 147/4/1
f 147/4/1 145/4/1 146/4/1
f 148/4/1 149/4/1 151/4/1
f 151/4/1 149/4/1 150/4/1
f 152/1/1 153/1/1 155/1/1
f 155/1/1 153/1/1 154/1/1
f 156/1/1 157/1/1 158/1/1
f 158/1/1 157/1/1 153/1/1
f 159/2/1 160/2/1 162/2/1
f 162/2/1 160/2/1 161/2/1
f 163/2/1 164/2/1 166/2/1
f 166/2/1 164/2/1 165/2/1
f 167/3/1 168/3/1 170/3/1
f 170/3/1 168/3/1 169/3/1
f 171/4/1 172/4/1 174/4/1
f 174/4/1 172/4/1 173/4/1
f 175/2/1 176/2/1 177/2/1
f 177/2/1 176/2/1 166/2/1
f 178/1/1 179/1/1 181/1/1
f 181/1/1 179/1/1 180/1/1
f 179/1/1 182/1/1 184/1/1
f 184/1/1 182/1/1 183/1/1
f 182/1/1 185/1/1 187/1/1
f 187/1/1 185/1/1 186/1/1
f 188/3/1 189/3/1 190/3/1
f 190/3/1 189/3/1 168/3/1
f 189/3/1 191/3/1 193/3/1
f 193/3/1 191/3/1 192/3/1
f 194/1/1 195/1/1 196/1/1
f 196/1/1 195/1/1 178/1/1
f 197/1/1 198/1/1 200/1/1
f 200/1/1 198/1/1 199/1/1
f 201/2/1 202/2/1 204/2/1
f 204/2/1 202/2/1 203/2/1
f 205/4/1 206/4/1 208/4/1
f 208/4/1 206/4/1 207/4/1
f 209/4/1 210/4/1 212/4/1
f 212/4/1 210/4/1 211/4/1
f 213/2/1 214/2/1 216/2/1
f 216/2/1 214/2/1 215/2/1
f 214/2/1 217/2/1 218/2/1
f 218/2/1 217/2/1 201/2/1
f 219/4/1 220/4/1 222/4/1
f 222/4/1 220/4/1 221/4/1
f 223/4/1 224/4/1 226/4/1
f 226/4/1 224/4/1 225/4/1
f 227/4/1 228/4/1 230/4/1
f 230/4/1 228/4/1 229/4/1
f 231/4/2 232/4/2 234/4/2
f 234/4/2 232/4/2 233/4/2
f 235/4/2 236/4/2 238/4/2
f 238/4/2 236/4/2 237/4/2
f 239/4/2 240/4/2 242/4/2
f 242/4/2 240/4/2 241/4/2
f 243/4/2 244/4/2 246/4/2
f 246/4/2 244/4/2 245/4/2
f 247/2/2 248/2/2 250/2/2
f 250/2/2 248/2/2 249/2/2
f 251/2/2 252/2/2 253/2/2
f 253/2/2 252/2/2 248/2/2
f 254/2/2 255/2/2 257/2/2
f 257/2/2 255/2/2 256/2/2
f 258/2/2 259/2/2 261/2/2
f 261/2/2 259/2/2 260/2/2
f 262/4/2 263/4/2 265/4/2
f 265/4/2 263/4/2 264/4/2
f 266/4/2 267/4/2 269/4/2
f 269/4/2 267/4/2 268/4/2
f 270/4/2 271/4/2 273/4/2
f 273/4/2 271/4/2 272/4/2
f 274/4/2 275/4/2 277/4/2
f 277/4/2 275/4/2 276/4/2
f 278/4/2 279/4/2 281/4/2
f 281/4/2 279/4/2 280/4/2
f 282/4/2 283/4/2 285/4/2
f 285/4/2 283/4/2 284/4/2
f 286/4/2 287/4/2 289/4/2
f 289/4/2 287/4/2 288/4/2
f 290/4/2 291/4/2 293/4/2
f 293/4/2 291/4/2 292/4/2
f 294/2/2 295/2/2 297/2/2
f 297/2/2 295/2/2 296/2/2
f 298/2/2 289/2/2 300/2/2
f 300/2/2 289/2/2 299/2/2
f 300/2/2 301/2/2 303/2/2
f 303/2/2 301/2/2 302/2/2
f 304/4/2 305/4/2 307/4/2
f 307/4/2 305/4/2 306/4/2
f 308/4/2 303/4/2 310/4/2
f 310/4/2 303/4/2 309/4/2
f 311/4/2 312/4/2 314/4/2
f 314/4/2 312/4/2 313/4/2
f 315/4/2 316/4/2 318/4/2
f 318/4/2 316/4/2 317/4/2
f 319/4/2 320/4/2 322/4/2
f 322/4/2 320/4/2 321/4/2
f 323/4/2 324/4/2 326/4/2
f 326/4/2 324/4/2 325/4/2
f 327/4/2 328/4/2 330/4/2
f 330/4/2 328/4/2 329/4/2
f 331/4/2 332/4/2 334/4/2
f 334/4/2 332/4/2 333/4/2
f 335/4/2 336/4/2 338/4/2
f 338/4/2 336/4/2 337/4/2
f 339/2/2 340/2/2 342/2/2
f 342/2/2 340/2/2 341/2/2
f 343/2/2 344/2/2 346/2/2
f 346/2/2 344/2/2 345/2/2
f 346/2/2 347/2/2 348/2/2
f 348/2/2 347/2/2 340/2/2
f 349/2/2 350/2/2 352/2/2
f 352/2/2 350/2/2 351/2/2
f 353/4/2 354/4/2 356/4/2
f 356/4/2 354/4/2 355/4/2
f 357/4/2 348/4/2 359/4/2
f 359/4/2 348/4/2 358/4/2
f 360/2/2 361/2/2 363/2/2
f 363/2/2 361/2/2 362/2/2
f 364/4/2 365/4/2 367/4/2
f 367/4/2 365/4/2 366/4/2
f 368/4/2 369/4/2 371/4/2
f 371/4/2 369/4/2 370/4/2
f 372/4/2 373/4/2 375/4/2
f 375/4/2 373/4/2 374/4/2
f 3/4/3 2/4/3 233/4/3
f 233/4/3 2/4/3 234/4/3
f 7/4/3 6/4/3 237/4/3
f 237/4/3 6/4/3 238/4/3
f 19/4/3 18/4/3 245/4/3
f 245/4/3 18/4/3 246/4/3
f 376/2/3 32/2/3 249/2/3
f 249/2/3 32/2/3 250/2/3
f 31/2/3 43/2/3 247/2/3
f 247/2/3 43/2/3 253/2/3
f 42/2/3 59/2/3 251/2/3
f 251/2/3 59/2/3 261/2/3
f 63/4/3 62/4/3 264/4/3
f 264/4/3 62/4/3 265/4/3
f 67/4/3 66/4/3 268/4/3
f 268/4/3 66/4/3 269/4/3
f 75/4/3 74/4/3 276/4/3
f 276/4/3 74/4/3 277/4/3
f 83/4/3 82/4/3 284/4/3
f 284/4/3 82/4/3 285/4/3
f 91/2/3 90/2/3 302/2/3
f 302/2/3 90/2/3 295/2/3
f 98/4/3 97/4/3 292/4/3
f 292/4/3 97/4/3 293/4/3
f 110/2/3 109/2/3 296/2/3
f 296/2/3 109/2/3 297/2/3
f 108/2/3 119/2/3 294/2/3
f 294/2/3 119/2/3 303/2/3
f 123/4/3 122/4/3 306/4/3
f 306/4/3 122/4/3 307/4/3
f 127/4/3 126/4/3 309/4/3
f 309/4/3 126/4/3 310/4/3
f 134/4/3 133/4/3 317/4/3
f 317/4/3 133/4/3 318/4/3
f 142/4/3 141/4/3 325/4/3
f 325/4/3 141/4/3 326/4/3
f 146/4/3 145/4/3 329/4/3
f 329/4/3 145/4/3 330/4/3
f 377/2/3 162/2/3 362/2/3
f 362/2/3 162/2/3 350/2/3
f 161/2/3 160/2/3 351/2/3
f 351/2/3 160/2/3 378/2/3
f 173/4/3 172/4/3 337/4/3
f 337/4/3 172/4/3 338/4/3
f 176/2/3 212/2/3 339/2/3
f 339/2/3 212/2/3 348/2/3
f 207/4/3 206/4/3 355/4/3
f 355/4/3 206/4/3 356/4/3
f 211/4/3 210/4/3 358/4/3
f 358/4/3 210/4/3 359/4/3
f 201/2/3 217/2/3 349/2/3
f 349/2/3 217/2/3 363/2/3
f 221/4/3 220/4/3 366/4/3
f 366/4/3 220/4/3 367/4/3
f 225/4/3 224/4/3 370/4/3
f 370/4/3 224/4/3 371/4/3
f 229/4/3 228/4/3 374/4/3
f 374/4/3 228/4/3 375/4/3
f 11/4/3 10/4/3 241/4/3
f 241/4/3 10/4/3 242/4/3
f 15/1/3 14/1/3 376/1/3
f 376/1/3 14/1/3 33/1/3
f 13/1/3 29/1/3 34/1/3
f 34/1/3 29/1/3 31/1/3
f 26/1/3 40/1/3 44/1/3
f 44/1/3 40/1/3 42/1/3
f 39/1/3 53/1/3 60/1/3
f 60/1/3 53/1/3 57/1/3
f 71/4/3 70/4/3 272/4/3
f 272/4/3 70/4/3 273/4/3
f 79/4/3 78/4/3 280/4/3
f 280/4/3 78/4/3 281/4/3
f 87/4/3 86/4/3 288/4/3
f 288/4/3 86/4/3 289/4/3
f 106/1/3 105/1/3 90/1/3
f 90/1/3 105/1/3 108/1/3
f 104/1/3 116/1/3 120/1/3
f 120/1/3 116/1/3 118/1/3
f 130/4/3 129/4/3 313/4/3
f 313/4/3 129/4/3 314/4/3
f 154/1/3 157/1/3 377/1/3
f 377/1/3 157/1/3 159/1/3
f 178/1/3 195/1/3 176/1/3
f 176/1/3 195/1/3 212/1/3
f 199/1/3 198/1/3 204/1/3
f 204/1/3 198/1/3 201/1/3
f 37/1/3 36/1/3 41/1/3
f 41/1/3 36/1/3 39/1/3
f 35/1/3 50/1/3 54/1/3
f 54/1/3 50/1/3 52/1/3
f 138/4/3 137/4/3 321/4/3
f 321/4/3 137/4/3 322/4/3
f 150/4/3 149/4/3 333/4/3
f 333/4/3 149/4/3 334/4/3
f 169/3/3 193/3/3 158/3/3
f 158/3/3 193/3/3 156/3/3
f 192/3/3 191/3/3 380/3/3
f 380/3/3 191/3/3 379/3/3
f 4/4/4 232/4/4 1/4/4
f 1/4/4 232/4/4 231/4/4
f 8/4/4 236/4/4 5/4/4
f 5/4/4 236/4/4 235/4/4
f 381/2/4 252/2/4 382/2/4
f 382/2/4 252/2/4 260/2/4
f 20/4/4 244/4/4 17/4/4
f 17/4/4 244/4/4 243/4/4
f 24/2/4 259/2/4 21/2/4
f 21/2/4 259/2/4 256/2/4
f 58/2/4 257/2/4 55/2/4
f 55/2/4 257/2/4 258/2/4
f 64/4/4 263/4/4 61/4/4
f 61/4/4 263/4/4 262/4/4
f 68/4/4 267/4/4 65/4/4
f 65/4/4 267/4/4 266/4/4
f 76/4/4 275/4/4 73/4/4
f 73/4/4 275/4/4 274/4/4
f 84/4/4 283/4/4 81/4/4
f 81/4/4 283/4/4 282/4/4
f 92/2/4 301/2/4 89/2/4
f 89/2/4 301/2/4 299/2/4
f 99/4/4 291/4/4 96/4/4
f 96/4/4 291/4/4 290/4/4
f 95/2/4 289/2/4 111/2/4
f 111/2/4 289/2/4 298/2/4
f 124/4/4 305/4/4 121/4/4
f 121/4/4 305/4/4 304/4/4
f 119/4/4 303/4/4 125/4/4
f 125/4/4 303/4/4 308/4/4
f 135/4/4 316/4/4 132/4/4
f 132/4/4 316/4/4 315/4/4
f 143/4/4 324/4/4 140/4/4
f 140/4/4 324/4/4 323/4/4
f 147/4/4 328/4/4 144/4/4
f 144/4/4 328/4/4 327/4/4
f 383/2/4 361/2/4 384/2/4
f 384/2/4 361/2/4 341/2/4
f 174/4/4 336/4/4 171/4/4
f 171/4/4 336/4/4 335/4/4
f 177/2/4 347/2/4 175/2/4
f 175/2/4 347/2/4 345/2/4
f 385/2/4 344/2/4 386/2/4
f 386/2/4 344/2/4 343/2/4
f 208/4/4 354/4/4 205/4/4
f 205/4/4 354/4/4 353/4/4
f 212/4/4 348/4/4 209/4/4
f 209/4/4 348/4/4 357/4/4
f 216/2/4 342/2/4 213/2/4
f 213/2/4 342/2/4 360/2/4
f 222/4/4 365/4/4 219/4/4
f 219/4/4 365/4/4 364/4/4
f 226/4/4 369/4/4 223/4/4
f 223/4/4 369/4/4 368/4/4
f 230/4/4 373/4/4 227/4/4
f 227/4/4 373/4/4 372/4/4
f 12/4/4 240/4/4 9/4/4
f 9/4/4 240/4/4 239/4/4
f 30/1/4 381/1/4 27/1/4
f 27/1/4 381/1/4 382/1/4
f 28/1/4 23/1/4 25/1/4
f 25/1/4 23/1/4 22/1/4
f 48/2/4 255/2/4 45/2/4
f 45/2/4 255/2/4 254/2/4
f 72/4/4 271/4/4 69/4/4
f 69/4/4 271/4/4 270/4/4
f 80/4/4 279/4/4 77/4/4
f 77/4/4 279/4/4 278/4/4
f 88/4/4 287/4/4 85/4/4
f 85/4/4 287/4/4 286/4/4
f 117/1/4 89/1/4 102/1/4
f 102/1/4 89/1/4 94/1/4
f 103/1/4 93/1/4 100/1/4
f 100/1/4 93/1/4 114/1/4
f 101/1/4 113/1/4 115/1/4
f 115/1/4 113/1/4 112/1/4
f 131/4/4 312/4/4 128/4/4
f 128/4/4 312/4/4 311/4/4
f 155/1/4 383/1/4 183/1/4
f 183/1/4 383/1/4 384/1/4
f 184/1/4 165/1/4 180/1/4
f 180/1/4 165/1/4 164/1/4
f 181/1/4 163/1/4 178/1/4
f 178/1/4 163/1/4 176/1/4
f 196/1/4 385/1/4 194/1/4
f 194/1/4 385/1/4 386/1/4
f 185/1/4 215/1/4 197/1/4
f 197/1/4 215/1/4 218/1/4
f 51/1/4 47/1/4 49/1/4
f 49/1/4 47/1/4 46/1/4
f 139/4/4 320/4/4 136/4/4
f 136/4/4 320/4/4 319/4/4
f 151/4/4 332/4/4 148/4/4
f 148/4/4 332/4/4 331/4/4
f 170/3/4 152/3/4 167/3/4
f 167/3/4 152/3/4 187/3/4
f 190/3/4 186/3/4 188/3/4
f 188/3/4 186/3/4 200/3/4
f 318/4/5 133/4/5 315/4/5
f 315/4/5 133/4/5 132/4/5
f 285/4/5 82/4/5 282/4/5
f 282/4/5 82/4/5 81/4/5
f 307/4/5 122/4/5 304/4/5
f 304/4/5 122/4/5 121/4/5
f 314/4/5 129/4/5 311/4/5
f 311/4/5 129/4/5 128/4/5
f 289/4/5 86/4/5 286/4/5
f 286/4/5 86/4/5 85/4/5
f 277/4/5 74/4/5 274/4/5
f 274/4/5 74/4/5 73/4/5
f 113/1/5 101/1/5 114/1/5
f 114/1/5 101/1/5 100/1/5
f 118/1/5 116/1/5 112/1/5
f 112/1/5 116/1/5 115/1/5
f 322/4/5 137/4/5 319/4/5
f 319/4/5 137/4/5 136/4/5
f 303/2/5 119/2/5 298/2/5
f 298/2/5 119/2/5 111/2/5
f 108/1/5 105/1/5 120/1/5
f 120/1/5 105/1/5 104/1/5
f 297/2/5 109/2/5 294/2/5
f 294/2/5 109/2/5 108/2/5
f 310/4/5 126/4/5 308/4/5
f 308/4/5 126/4/5 125/4/5
f 281/4/5 78/4/5 278/4/5
f 278/4/5 78/4/5 77/4/5
f 246/4/5 18/4/5 243/4/5
f 243/4/5 18/4/5 17/4/5
f 293/4/5 97/4/5 290/4/5
f 290/4/5 97/4/5 96/4/5
f 269/4/5 66/4/5 266/4/5
f 266/4/5 66/4/5 65/4/5
f 234/4/5 2/4/5 231/4/5
f 231/4/5 2/4/5 1/4/5
f 257/2/5 46/2/5 254/2/5
f 254/2/5 46/2/5 45/2/5
f 387/2/5 52/2/5 58/2/5
f 58/2/5 52/2/5 46/2/5
f 52/1/5 50/1/5 46/1/5
f 46/1/5 50/1/5 49/1/5
f 242/4/5 10/4/5 239/4/5
f 239/4/5 10/4/5 9/4/5
f 57/1/5 53/1/5 387/1/5
f 387/1/5 53/1/5 52/1/5
f 39/1/5 36/1/5 54/1/5
f 54/1/5 36/1/5 35/1/5
f 261/2/5 59/2/5 258/2/5
f 258/2/5 59/2/5 55/2/5
f 42/1/5 40/1/5 60/1/5
f 60/1/5 40/1/5 39/1/5
f 273/4/5 70/4/5 270/4/5
f 270/4/5 70/4/5 69/4/5
f 253/2/5 43/2/5 251/2/5
f 251/2/5 43/2/5 42/2/5
f 31/1/5 29/1/5 44/1/5
f 44/1/5 29/1/5 26/1/5
f 250/2/5 32/2/5 247/2/5
f 247/2/5 32/2/5 31/2/5
f 265/4/5 62/4/5 262/4/5
f 262/4/5 62/4/5 61/4/5
f 33/1/5 14/1/5 34/1/5
f 34/1/5 14/1/5 13/1/5
f 238/4/5 6/4/5 235/4/5
f 235/4/5 6/4/5 5/4/5
f 330/4/5 145/4/5 327/4/5
f 327/4/5 145/4/5 144/4/5
f 338/4/5 172/4/5 335/4/5
f 335/4/5 172/4/5 171/4/5
f 356/4/5 206/4/5 353/4/5
f 353/4/5 206/4/5 205/4/5
f 367/4/5 220/4/5 364/4/5
f 364/4/5 220/4/5 219/4/5
f 348/2/5 212/2/5 343/2/5
f 343/2/5 212/2/5 386/2/5
f 212/1/5 195/1/5 386/1/5
f 386/1/5 195/1/5 194/1/5
f 359/4/5 210/4/5 357/4/5
f 357/4/5 210/4/5 209/4/5
f 334/4/5 149/4/5 331/4/5
f 331/4/5 149/4/5 148/4/5
f 326/4/5 141/4/5 323/4/5
f 323/4/5 141/4/5 140/4/5
f 342/2/5 216/2/5 339/2/5
f 339/2/5 216/2/5 176/2/5
f 371/4/5 224/4/5 368/4/5
f 368/4/5 224/4/5 223/4/5
f 215/1/5 185/1/5 176/1/5
f 176/1/5 185/1/5 178/1/5
f 186/3/5 190/3/5 187/3/5
f 187/3/5 190/3/5 167/3/5
f 363/2/5 217/2/5 360/2/5
f 360/2/5 217/2/5 213/2/5
f 201/1/5 198/1/5 218/1/5
f 218/1/5 198/1/5 197/1/5
f 352/2/5 202/2/5 349/2/5
f 349/2/5 202/2/5 201/2/5
f 375/4/5 228/4/5 372/4/5
f 372/4/5 228/4/5 227/4/5
f 203/1/5 379/1/5 204/1/5
f 204/1/5 379/1/5 199/1/5
f 379/3/5 191/3/5 200/3/5
f 200/3/5 191/3/5 188/3/5
f 317/4/6 316/4/6 134/4/6
f 134/4/6 316/4/6 135/4/6
f 284/4/6 283/4/6 83/4/6
f 83/4/6 283/4/6 84/4/6
f 306/4/6 305/4/6 123/4/6
f 123/4/6 305/4/6 124/4/6
f 313/4/6 312/4/6 130/4/6
f 130/4/6 312/4/6 131/4/6
f 288/4/6 287/4/6 87/4/6
f 87/4/6 287/4/6 88/4/6
f 276/4/6 275/4/6 75/4/6
f 75/4/6 275/4/6 76/4/6
f 299/2/6 289/2/6 89/2/6
f 89/2/6 289/2/6 95/2/6
f 94/1/6 93/1/6 102/1/6
f 102/1/6 93/1/6 103/1/6
f 321/4/6 320/4/6 138/4/6
f 138/4/6 320/4/6 139/4/6
f 302/2/6 301/2/6 91/2/6
f 91/2/6 301/2/6 92/2/6
f 90/1/6 89/1/6 106/1/6
f 106/1/6 89/1/6 117/1/6
f 296/2/6 295/2/6 110/2/6
f 110/2/6 295/2/6 90/2/6
f 309/4/6 303/4/6 127/4/6
f 127/4/6 303/4/6 119/4/6
f 280/4/6 279/4/6 79/4/6
f 79/4/6 279/4/6 80/4/6
f 245/4/6 244/4/6 19/4/6
f 19/4/6 244/4/6 20/4/6
f 292/4/6 291/4/6 98/4/6
f 98/4/6 291/4/6 99/4/6
f 268/4/6 267/4/6 67/4/6
f 67/4/6 267/4/6 68/4/6
f 233/4/6 232/4/6 3/4/6
f 3/4/6 232/4/6 4/4/6
f 256/2/6 255/2/6 47/2/6
f 47/2/6 255/2/6 48/2/6
f 22/2/6 21/2/6 25/2/6
f 25/2/6 21/2/6 47/2/6
f 241/4/6 240/4/6 11/4/6
f 11/4/6 240/4/6 12/4/6
f 41/1/6 47/1/6 37/1/6
f 37/1/6 47/1/6 51/1/6
f 260/2/6 259/2/6 382/2/6
f 382/2/6 259/2/6 24/2/6
f 382/1/6 23/1/6 27/1/6
f 27/1/6 23/1/6 28/1/6
f 272/4/6 271/4/6 71/4/6
f 71/4/6 271/4/6 72/4/6
f 249/2/6 252/2/6 376/2/6
f 376/2/6 252/2/6 381/2/6
f 264/4/6 263/4/6 63/4/6
f 63/4/6 263/4/6 64/4/6
f 376/1/6 381/1/6 15/1/6
f 15/1/6 381/1/6 30/1/6
f 237/4/6 236/4/6 7/4/6
f 7/4/6 236/4/6 8/4/6
f 329/4/6 328/4/6 146/4/6
f 146/4/6 328/4/6 147/4/6
f 337/4/6 336/4/6 173/4/6
f 173/4/6 336/4/6 174/4/6
f 355/4/6 354/4/6 207/4/6
f 207/4/6 354/4/6 208/4/6
f 345/2/6 344/2/6 175/2/6
f 175/2/6 344/2/6 385/2/6
f 366/4/6 365/4/6 221/4/6
f 221/4/6 365/4/6 222/4/6
f 176/1/6 385/1/6 178/1/6
f 178/1/6 385/1/6 196/1/6
f 358/4/6 348/4/6 211/4/6
f 211/4/6 348/4/6 212/4/6
f 164/1/6 163/1/6 180/1/6
f 180/1/6 163/1/6 181/1/6
f 333/4/6 332/4/6 150/4/6
f 150/4/6 332/4/6 151/4/6
f 325/4/6 324/4/6 142/4/6
f 142/4/6 324/4/6 143/4/6
f 341/2/6 347/2/6 384/2/6
f 384/2/6 347/2/6 177/2/6
f 384/1/6 165/1/6 183/1/6
f 183/1/6 165/1/6 184/1/6
f 370/4/6 369/4/6 225/4/6
f 225/4/6 369/4/6 226/4/6
f 158/3/6 152/3/6 169/3/6
f 169/3/6 152/3/6 170/3/6
f 362/2/6 361/2/6 377/2/6
f 377/2/6 361/2/6 383/2/6
f 377/1/6 383/1/6 154/1/6
f 154/1/6 383/1/6 155/1/6
f 351/2/6 350/2/6 161/2/6
f 161/2/6 350/2/6 162/2/6
f 374/4/6 373/4/6 229/4/6
f 229/4/6 373/4/6 230/4/6
f 160/1/6 159/1/6 380/1/6
f 380/1/6 159/1/6 157/1/6
f 380/3/6 156/3/6 192/3/6
f 192/3/6 156/3/6 193/3/6
f 388/4/1 389/4/1 391/4/1
f 391/4/1 389/4/1 390/4/1
f 392/4/1 393/4/1 395/4/1
f 395/4/1 393/4/1 394/4/1
f 379/1/1 396/1/1 380/1/1
f 380/1/1 396/1/1 397/1/1
f 398/4/1 399/4/1 401/4/1
f 401/4/1 399/4/1 400/4/1
f 202/2/1 402/2/1 203/2/1
f 203/2/1 402/2/1 403/2/1
f 402/2/1 404/2/1 406/2/1
f 406/2/1 404/2/1 405/2/1
f 407/4/1 408/4/1 410/4/1
f 410/4/1 408/4/1 409/4/1
f 411/4/2 412/4/2 414/4/2
f 414/4/2 412/4/2 413/4/2
f 415/4/2 416/4/2 418/4/2
f 418/4/2 416/4/2 417/4/2
f 419/4/2 420/4/2 422/4/2
f 422/4/2 420/4/2 421/4/2
f 352/2/2 378/2/2 424/2/2
f 424/2/2 378/2/2 423/2/2
f 424/2/2 425/2/2 427/2/2
f 427/2/2 425/2/2 426/2/2
f 428/4/2 429/4/2 431/4/2
f 431/4/2 429/4/2 430/4/2
f 390/4/3 389/4/3 413/4/3
f 413/4/3 389/4/3 414/4/3
f 432/2/3 406/2/3 423/2/3
f 423/2/3 406/2/3 425/2/3
f 405/2/3 404/2/3 426/2/3
f 426/2/3 404/2/3 427/2/3
f 409/4/3 408/4/3 430/4/3
f 430/4/3 408/4/3 431/4/3
f 394/4/3 393/4/3 417/4/3
f 417/4/3 393/4/3 418/4/3
f 397/1/3 396/1/3 432/1/3
f 432/1/3 396/1/3 403/1/3
f 400/4/3 399/4/3 421/4/3
f 421/4/3 399/4/3 422/4/3
f 391/4/4 412/4/4 388/4/4
f 388/4/4 412/4/4 411/4/4
f 410/4/4 429/4/4 407/4/4
f 407/4/4 429/4/4 428/4/4
f 395/4/4 416/4/4 392/4/4
f 392/4/4 416/4/4 415/4/4
f 401/4/4 420/4/4 398/4/4
f 398/4/4 420/4/4 419/4/4
f 403/1/5 396/1/5 203/1/5
f 203/1/5 396/1/5 379/1/5
f 414/4/5 389/4/5 411/4/5
f 411/4/5 389/4/5 388/4/5
f 427/2/5 404/2/5 352/2/5
f 352/2/5 404/2/5 202/2/5
f 431/4/5 408/4/5 428/4/5
f 428/4/5 408/4/5 407/4/5
f 418/4/5 393/4/5 415/4/5
f 415/4/5 393/4/5 392/4/5
f 422/4/5 399/4/5 419/4/5
f 419/4/5 399/4/5 398/4/5
f 423/2/6 378/2/6 432/2/6
f 432/2/6 378/2/6 160/2/6
f 432/1/6 160/1/6 397/1/6
f 397/1/6 160/1/6 380/1/6
f 413/4/6 412/4/6 390/4/6
f 390/4/6 412/4/6 391/4/6
f 426/2/6 425/2/6 405/2/6
f 405/2/6 425/2/6 406/2/6
f 430/4/6 429/4/6 409/4/6
f 409/4/6 429/4/6 410/4/6
f 417/4/6 416/4/6 394/4/6
f 394/4/6 416/4/6 395/4/6
f 421/4/6 420/4/6 400/4/6
f 400/4/6 420/4/6 401/4/6
