# Vengi binary mesh normalized for Tanks of Freedom II

mtllib ../../materials/vox_grass.mtl
o statue_damaged

v -1.9 0.1 2.5
v -2.2 0.1 2.5
v -2.2 0.1 2.6
v -1.9 0.1 2.6
v -2 0.1 2.4
v -2.2 0.1 2.4
v -2 0.1 2.5
v -2.1 0.1 2.2
v -2.2 0.1 2.2
v -2.1 0.1 2.4
v -2.1 0.1 1.7
v -2.2 0.1 1.7
v -2.2 0.1 1.8
v -2.1 0.1 1.8
v -1.7 0.1 1.6
v -2.1 0.1 1.6
v -1.7 0.1 1.7
v -1.9 0.1 1.5
v -2 0.1 1.5
v -2 0.1 1.6
v -1.9 0.1 1.6
v 1.4 0.1 1.4
v 0.3 0.1 1.4
v 0.3 0.1 1.5
v 1.4 0.1 1.5
v 0.2 0.1 1.4
v -1.5 0.1 1.4
v -1.5 0.1 1.5
v 0.2 0.1 1.5
v -1.8 0.1 1.4
v -1.9 0.1 1.4
v -1.8 0.1 1.5
v 1.3 0.2 1.3
v 0.8 0.2 1.3
v 0.8 0.2 1.4
v 1.3 0.2 1.4
v 0.8 0.1 1.3
v 0.7 0.1 1.3
v 0.7 0.1 1.4
v 0.8 0.1 1.4
v 0.7 0.2 1.3
v 0 0.2 1.3
v 0 0.2 1.4
v 0.7 0.2 1.4
v 0 0.1 1.3
v -0.1 0.1 1.3
v -0.1 0.1 1.4
v 0 0.1 1.4
v -0.1 0.2 1.3
v -1.4 0.2 1.3
v -1.4 0.2 1.4
v -0.1 0.2 1.4
v 1.2 0.3 1.2
v 0.3 0.3 1.2
v 0.3 0.3 1.3
v 1.2 0.3 1.3
v 0.3 0.2 1.2
v 0.2 0.2 1.2
v 0.2 0.2 1.3
v 0.3 0.2 1.3
v 0 0.3 1.2
v -1.3 0.3 1.2
v -1.3 0.3 1.3
v 0 0.3 1.3
v 1.1 0.4 1.1
v 0.3 0.4 1.1
v 0.3 0.4 1.2
v 1.1 0.4 1.2
v 0.2 0.1 1.1
v 0 0.1 1.1
v 0.2 0.1 1.3
v 0 0.2 1.1
v -0.1 0.2 1.1
v -0.1 0.2 1.2
v 0 0.2 1.2
v -0.2 0.4 1.1
v -1.2 0.4 1.1
v -1.2 0.4 1.2
v -0.2 0.4 1.2
v 1.2 0.4 1
v 1.1 0.4 1
v 1.2 0.4 1.2
v 0.7 0.4 1
v 0.6 0.4 1
v 0.6 0.4 1.1
v 0.7 0.4 1.1
v 0.3 0.3 1
v 0.2 0.3 1
v 0.2 0.3 1.2
v 0.2 0.2 1
v 0.1 0.2 1
v 0.1 0.2 1.1
v 0.2 0.2 1.1
v 0.1 0.1 1
v -0.1 0.1 1
v -0.1 0.1 1.1
v 0.1 0.1 1.1
v 0 0.5 1
v -0.1 0.5 1
v -0.1 0.5 1.1
v 0 0.5 1.1
v -0.1 0.3 1
v -0.2 0.3 1
v -0.2 0.3 1.2
v -0.1 0.3 1.2
v 1.3 0.3 0.9
v 1.2 0.3 0.9
v 1.3 0.3 1.3
v 1.1 0.3 0.9
v 1.1 0.3 1
v 1.2 0.3 1
v 0.2 0.4 0.9
v 0.1 0.4 0.9
v 0.1 0.4 1
v 0.2 0.4 1
v 0.1 0.3 0.9
v 0 0.3 0.9
v 0 0.3 1
v 0.1 0.3 1
v 0 0.4 0.9
v -0.1 0.4 0.9
v -0.1 0.4 1
v 0 0.4 1
v -0.4 0.5 0.9
v -1.1 0.5 0.9
v -1.1 0.5 1.1
v -0.4 0.5 1.1
v 1.3 0.2 0.8
v 1.2 0.2 0.8
v 1.2 0.2 0.9
v 1.3 0.2 0.9
v 0.7 0.5 0.8
v 0.6 0.5 0.8
v 0.6 0.5 1
v 0.7 0.5 1
v -0.6 0.6 0.8
v -0.7 0.6 0.8
v -0.7 0.6 0.9
v -0.6 0.6 0.9
v -0.8 0.6 0.8
v -0.9 0.6 0.8
v -0.9 0.6 0.9
v -0.8 0.6 0.9
v 0.9 0.5 0.7
v 0.7 0.5 0.7
v 0.7 0.5 1.1
v 0.9 0.5 1.1
v 0.7 0.6 0.7
v 0.6 0.6 0.7
v 0.6 0.6 0.8
v 0.7 0.6 0.8
v -0.4 0.6 0.7
v -0.5 0.6 0.7
v -0.5 0.6 0.9
v -0.4 0.6 0.9
v -0.5 0.5 0.7
v -0.6 0.5 0.7
v -0.6 0.5 0.9
v -0.5 0.5 0.9
v -0.7 0.5 0.7
v -0.8 0.5 0.7
v -0.8 0.5 0.9
v -0.7 0.5 0.9
v -0.9 0.5 0.7
v -0.9 0.5 0.8
v -0.8 0.5 0.8
v -1.1 0.5 0.7
v -0.9 0.5 0.9
v 0.9 0.6 0.6
v 0.7 0.6 0.6
v 0.9 0.6 0.7
v 0.6 0.5 0.6
v 0.3 0.5 0.6
v 0.3 0.5 1.1
v 0.6 0.5 1.1
v 0.2 0.5 0.6
v 0.2 0.5 1
v 0.3 0.5 1
v 0.1 0.5 0.6
v -0.1 0.5 0.6
v -0.1 0.5 0.9
v 0.1 0.5 0.9
v -0.2 0.5 0.6
v -0.4 0.5 0.6
v -0.2 0.5 1.1
v -0.5 0.5 0.6
v -0.4 0.5 0.7
v -0.5 0.6 0.6
v -0.6 0.6 0.6
v -0.6 0.6 0.7
v -0.6 0.5 0.6
v -0.7 0.5 0.6
v -0.7 0.5 0.8
v -0.6 0.5 0.8
v -0.7 0.6 0.6
v -0.8 0.6 0.6
v -0.8 0.6 0.7
v -0.7 0.6 0.7
v -0.8 0.7 0.6
v -0.9 0.7 0.6
v -0.9 0.7 0.7
v -0.8 0.7 0.7
v -0.9 0.6 0.6
v -1 0.6 0.6
v -1 0.6 0.7
v -0.9 0.6 0.7
v 1.3 0.3 0.5
v 1.2 0.3 0.5
v 1.2 0.3 0.8
v 1.3 0.3 0.8
v 0.6 1.3 0.5
v 0.5 1.3 0.5
v 0.5 1.3 0.6
v 0.6 1.3 0.6
v 0.5 0.9 0.5
v 0.4 0.9 0.5
v 0.4 0.9 0.6
v 0.5 0.9 0.6
v 0.5 1.4 0.5
v 0.4 1.4 0.5
v 0.4 1.4 0.6
v 0.5 1.4 0.6
v 0.4 0.5 0.5
v 0.3 0.5 0.5
v 0.4 0.5 0.6
v 0.3 0.9 0.5
v 0.2 0.9 0.5
v 0.2 0.9 0.6
v 0.3 0.9 0.6
v 0.1 0.8 0.5
v 0 0.8 0.5
v 0 0.8 0.6
v 0.1 0.8 0.6
v 0.1 1.4 0.5
v 0 1.4 0.5
v 0 1.4 0.6
v 0.1 1.4 0.6
v 0.1 1.7 0.5
v 0 1.7 0.5
v 0 1.7 0.6
v 0.1 1.7 0.6
v 0 1.6 0.5
v -0.1 1.6 0.5
v -0.1 1.6 0.6
v 0 1.6 0.6
v -0.1 0.5 0.5
v -0.2 0.5 0.5
v -0.2 0.5 1
v -0.2 0.8 0.5
v -0.3 0.8 0.5
v -0.3 0.8 0.6
v -0.2 0.8 0.6
v -0.2 1.4 0.5
v -0.3 1.4 0.5
v -0.3 1.4 0.6
v -0.2 1.4 0.6
v -0.2 1.7 0.5
v -0.3 1.7 0.5
v -0.3 1.7 0.6
v -0.2 1.7 0.6
v -0.3 0.6 0.5
v -0.4 0.6 0.5
v -0.4 0.6 0.6
v -0.3 0.6 0.6
v -0.4 1.6 0.5
v -0.5 1.6 0.5
v -0.5 1.6 0.6
v -0.4 1.6 0.6
v -0.6 0.6 0.5
v -0.7 0.5 0.5
v -0.8 0.5 0.5
v -0.8 0.5 0.6
v -0.8 0.6 0.5
v -0.9 0.6 0.5
v -0.9 0.5 0.5
v -1 0.5 0.5
v -1 0.5 0.6
v -0.9 0.5 0.6
v -1.2 0.3 0.5
v -1.3 0.3 0.5
v -1.2 0.3 1.2
v 1.3 0.2 0.4
v 1.2 0.2 0.4
v 1.2 0.2 0.5
v 1.3 0.2 0.5
v 0.9 0.5 0.4
v 0.7 0.5 0.4
v 0.7 0.5 0.6
v 0.9 0.5 0.6
v 0.6 0.9 0.4
v 0.5 0.9 0.4
v 0.6 0.9 0.5
v 0.6 1.4 0.4
v 0.5 1.4 0.4
v 0.6 1.4 0.5
v 0.5 1.3 0.4
v 0.4 1.3 0.4
v 0.4 1.3 0.5
v 0.7 2.1 0.4
v 0.4 2.1 0.4
v 0.4 2.1 0.7
v 0.7 2.1 0.7
v 0.3 1.5 0.4
v 0.2 1.5 0.4
v 0.2 1.5 0.5
v 0.3 1.5 0.5
v 0.2 0.5 0.4
v 0.1 0.5 0.4
v 0.2 0.5 0.9
v -0.1 1.2 0.4
v -0.2 1.2 0.4
v -0.2 1.2 0.5
v -0.1 1.2 0.5
v -0.1 1.5 0.4
v -0.2 1.5 0.4
v -0.2 1.5 0.5
v -0.1 1.5 0.5
v -0.1 1.7 0.4
v -0.2 1.7 0.4
v -0.1 1.7 0.5
v -0.3 1.8 0.4
v -0.4 1.8 0.4
v -0.4 1.8 0.5
v -0.3 1.8 0.5
v -0.4 0.6 0.4
v -0.5 0.6 0.4
v -0.5 0.6 0.5
v -0.6 0.6 0.4
v -0.5 1.6 0.4
v -0.6 1.6 0.4
v -0.6 1.6 0.5
v -0.7 0.6 0.4
v -0.6 2.1 0.4
v -0.7 2.1 0.4
v -0.7 2.1 0.7
v -0.6 2.1 0.7
v -0.8 0.6 0.4
v -0.7 0.6 0.5
v -0.9 0.6 0.4
v -1 0.6 0.4
v -1 0.6 0.5
v -1.2 0.2 0.4
v -1.3 0.2 0.4
v -1.3 0.2 0.5
v -1.2 0.2 0.5
v 0.9 0.6 0.3
v 0.8 0.6 0.3
v 0.8 0.6 0.4
v 0.9 0.6 0.4
v 0.6 0.5 0.3
v 0.5 0.5 0.3
v 0.5 0.5 0.4
v 0.6 0.5 0.4
v -0.2 2.7 0.3
v -0.3 2.7 0.3
v -0.3 2.7 0.4
v -0.2 2.7 0.4
v -0.2 2.1 0.3
v -0.4 2.1 0.3
v -0.4 2.1 0.6
v -0.2 2.1 0.6
v -0.5 0.5 0.3
v -0.7 0.5 0.3
v -0.7 0.5 0.4
v -0.5 0.5 0.4
v -0.7 0.6 0.3
v -0.8 0.6 0.3
v 0.6 0.7 0.2
v 0.5 0.7 0.2
v 0.5 0.7 0.3
v 0.6 0.7 0.3
v 0.6 1.2 0.2
v 0.5 1.2 0.2
v 0.5 1.2 0.3
v 0.6 1.2 0.3
v 0.6 1.5 0.2
v 0.5 1.5 0.2
v 0.5 1.5 0.3
v 0.6 1.5 0.3
v 0.3 1.5 0.2
v 0.2 1.5 0.2
v 0.2 1.5 0.3
v 0.3 1.5 0.3
v -0.1 0.7 0.2
v -0.2 0.7 0.2
v -0.2 0.7 0.4
v -0.1 0.7 0.4
v -0.2 2.3 0.2
v -0.3 2.3 0.2
v -0.3 2.3 0.3
v -0.2 2.3 0.3
v -0.4 0.7 0.2
v -0.4 0.7 0.5
v -0.2 0.7 0.5
v -0.5 0.7 0.2
v -0.6 0.7 0.2
v -0.6 0.7 0.3
v -0.5 0.7 0.3
v -1 0.5 0.2
v -1.1 0.5 0.2
v -1 0.5 0.7
v 1.1 0.5 0.1
v 0.9 0.5 0.1
v 1.1 0.5 1.1
v 0.6 0.5 0.1
v 0.5 0.5 0.1
v 0.5 0.5 0.2
v 0.6 0.5 0.2
v 0.5 0.7 0.1
v 0.4 0.7 0.1
v 0.4 0.7 0.2
v 0.5 1.1 0.1
v 0.4 1.1 0.1
v 0.4 1.1 0.2
v 0.5 1.1 0.2
v 0.5 1.5 0.1
v 0.4 1.5 0.1
v 0.4 1.5 0.4
v 0.5 1.5 0.4
v 0.3 1.5 0.1
v 0.4 1.5 0.5
v -0.2 0.8 0.1
v -0.3 0.8 0.1
v -0.3 0.8 0.2
v -0.2 0.8 0.2
v -0.2 2.8 0.1
v -0.3 2.8 0.1
v -0.3 2.8 0.2
v -0.2 2.8 0.2
v 0.2 3.2 0.1
v -0.3 3.2 0.1
v -0.3 3.2 0.2
v 0.2 3.2 0.2
v -0.3 0.7 0.1
v -0.4 0.7 0.1
v -0.3 0.7 0.2
v -0.5 0.7 0.1
v -0.5 0.7 0.4
v -0.4 0.7 0.4
v -0.5 0.5 0.1
v -0.6 0.5 0.1
v -0.6 0.5 0.2
v -0.5 0.5 0.2
v -1 0.4 0.1
v -1.1 0.4 0.1
v -1.1 0.4 0.2
v -1 0.4 0.2
v -1.3 0.2 0.1
v -1.4 0.2 0.1
v -1.3 0.2 1.3
v 1.1 0.4 0
v 1 0.4 0
v 1 0.4 0.1
v 1.1 0.4 0.1
v 0.6 1 0
v 0.5 1 0
v 0.5 1 0.1
v 0.6 1 0.1
v 0.6 1.5 0
v 0.5 1.5 0
v 0.6 1.5 0.1
v 0.4 3.1 0
v 0.3 3.1 0
v 0.3 3.1 0.1
v 0.4 3.1 0.1
v 0.3 3.2 0
v 0.2 3.2 0
v 0.3 3.2 0.2
v 0.2 2.1 0
v -0.2 2.1 0
v -0.2 2.1 0.7
v 0.2 2.1 0.7
v 0.2 3.3 0
v -0.2 3.3 0
v -0.2 3.3 0.1
v 0.2 3.3 0.1
v -0.2 3.2 0
v -0.3 3.2 0
v -0.2 3.2 0.1
v -0.3 3.1 0
v -0.4 3.1 0
v -0.4 3.1 0.1
v -0.3 3.1 0.1
v -1.3 0.1 0
v -1.4 0.1 0
v -1.4 0.1 0.1
v -1.3 0.1 0.1
v 0.6 3 -0.1
v 0.5 3 -0.1
v 0.5 3 0
v 0.6 3 0
v 0.5 2.9 -0.1
v 0.4 2.9 -0.1
v 0.4 2.9 0
v 0.5 2.9 0
v 0.5 3.1 -0.1
v 0.4 3.1 -0.1
v 0.5 3.1 0
v 0.4 2.8 -0.1
v 0.3 2.8 -0.1
v 0.3 2.8 0
v 0.4 2.8 0
v 0.4 3.2 -0.1
v 0.3 3.2 -0.1
v 0.4 3.2 0
v 0.3 3.3 -0.1
v 0.2 3.3 -0.1
v 0.3 3.3 0
v 0.2 3.4 -0.1
v -0.2 3.4 -0.1
v -0.2 3.4 0
v 0.2 3.4 0
v -0.2 3.3 -0.1
v -0.3 3.3 -0.1
v -0.3 3.3 0
v -0.3 3.2 -0.1
v -0.4 3.2 -0.1
v -0.4 3.2 0
v -0.5 1.3 -0.1
v -0.6 1.3 -0.1
v -0.6 1.3 0
v -0.5 1.3 0
v -0.5 1.7 -0.1
v -0.6 1.7 -0.1
v -0.6 1.7 0
v -0.5 1.7 0
v -1.1 0.4 -0.1
v -1.2 0.4 -0.1
v -1.1 0.4 1.1
v 0.7 2.1 -0.2
v 0.6 2.1 -0.2
v 0.6 2.1 0.2
v 0.7 2.1 0.2
v 0.6 0.5 -0.2
v 0.5 0.5 -0.2
v 0.5 0.5 -0.1
v 0.6 0.5 -0.1
v 0.5 0.7 -0.2
v 0.4 0.7 -0.2
v 0.4 0.7 -0.1
v 0.5 0.7 -0.1
v 0.5 1.2 -0.2
v 0.4 1.2 -0.2
v 0.4 1.2 -0.1
v 0.5 1.2 -0.1
v 0.4 3.1 -0.2
v 0.3 3.1 -0.2
v 0.3 3.1 -0.1
v 0.2 3.3 -0.2
v -0.2 3.3 -0.2
v -0.3 3.1 -0.2
v -0.4 3.1 -0.2
v -0.4 3.1 -0.1
v -0.3 3.1 -0.1
v -0.5 0.5 -0.2
v -0.6 0.5 -0.2
v -0.6 0.5 -0.1
v -0.5 0.5 -0.1
v -0.6 2.1 -0.2
v -0.7 2.1 -0.2
v -0.7 2.1 0.2
v -0.6 2.1 0.2
v -1.1 0.3 -0.2
v -1.2 0.3 -0.2
v -1.2 0.3 -0.1
v -1.1 0.3 -0.1
v 0.6 0.6 -0.3
v 0.5 0.6 -0.3
v 0.5 0.6 -0.2
v 0.6 0.6 -0.2
v 0.6 1 -0.3
v 0.5 1 -0.3
v 0.5 1 -0.2
v 0.6 1 -0.2
v 0.6 1.4 -0.3
v 0.5 1.4 -0.3
v 0.5 1.4 -0.2
v 0.6 1.4 -0.2
v 0.6 1.8 -0.3
v 0.5 1.8 -0.3
v 0.5 1.8 -0.2
v 0.6 1.8 -0.2
v 0.4 1 -0.3
v 0.4 1 -0.2
v 0.3 3.2 -0.3
v 0.2 3.2 -0.3
v 0.2 3.2 -0.1
v 0.1 3.2 -0.3
v 0.1 3.2 -0.2
v 0.2 3.2 -0.2
v 0.1 3.3 -0.3
v -0.1 3.3 -0.3
v -0.1 3.3 -0.2
v 0.1 3.3 -0.2
v -0.1 3.2 -0.3
v -0.2 3.2 -0.3
v -0.2 3.2 -0.2
v -0.1 3.2 -0.2
v -0.3 3.2 -0.3
v -0.2 3.2 -0.1
v -0.5 0.7 -0.3
v -0.6 0.7 -0.3
v -0.6 0.7 -0.2
v -0.5 0.7 -0.2
v 1.4 0.2 -0.4
v 1.3 0.2 -0.4
v 1.4 0.2 1.4
v 1.2 0.4 -0.4
v 1.1 0.4 -0.4
v 1.1 0.4 0.9
v 1.2 0.4 0.9
v 1.1 0.5 -0.4
v 1 0.5 -0.4
v 1 0.5 0
v 1.1 0.5 0
v 0.6 0.5 -0.4
v 0.5 0.5 -0.4
v 0.5 0.5 -0.3
v 0.6 0.5 -0.3
v 0.5 1.3 -0.4
v 0.4 1.3 -0.4
v 0.4 1.3 -0.3
v 0.5 1.3 -0.3
v -0.4 1.6 -0.4
v -0.5 1.6 -0.4
v -0.5 1.6 -0.3
v -0.4 1.6 -0.3
v -0.5 0.5 -0.4
v -0.6 0.5 -0.4
v -0.6 0.5 -0.3
v -0.5 0.5 -0.3
v 1.4 0.1 -0.5
v 1.3 0.1 -0.5
v 1.3 0.1 -0.4
v 1.4 0.1 -0.4
v 1 0.5 -0.5
v 0.9 0.5 -0.5
v 1 0.5 0.1
v 0.6 0.8 -0.5
v 0.5 0.8 -0.5
v 0.5 0.8 -0.4
v 0.6 0.8 -0.4
v 0.4 1.2 -0.5
v 0.3 1.2 -0.5
v 0.3 1.2 -0.4
v 0.4 1.2 -0.4
v 0.4 0.7 -0.5
v 0.2 0.7 -0.5
v 0.2 0.7 -0.4
v 0.4 0.7 -0.4
v 0.3 1 -0.5
v 0.1 1 -0.5
v 0.1 1 -0.4
v 0.3 1 -0.4
v 0.2 1.4 -0.5
v 0.1 1.4 -0.5
v 0.1 1.4 -0.4
v 0.2 1.4 -0.4
v 0 1.3 -0.5
v -0.1 1.3 -0.5
v -0.1 1.3 -0.4
v 0 1.3 -0.4
v -0.1 1.2 -0.5
v -0.2 1.2 -0.5
v -0.2 1.2 -0.4
v -0.1 1.2 -0.4
v -0.1 1.7 -0.5
v -0.2 1.7 -0.5
v -0.2 1.7 -0.4
v -0.1 1.7 -0.4
v -0.3 0.8 -0.5
v -0.4 0.8 -0.5
v -0.4 0.8 -0.4
v -0.3 0.8 -0.4
v 1.3 0.3 -0.6
v 1.2 0.3 -0.6
v 1.2 0.3 0.4
v 1.3 0.3 0.4
v 1.2 0.2 -0.6
v 1.1 0.2 -0.6
v 1.1 0.2 -0.4
v 1.2 0.2 -0.4
v 1.1 0.3 -0.6
v 1 0.3 -0.6
v 1 0.3 -0.4
v 1.1 0.3 -0.4
v 1 0.4 -0.6
v 0.9 0.4 -0.6
v 0.9 0.4 -0.5
v 1 0.4 -0.5
v 0.6 1.7 -0.6
v 0.5 1.7 -0.6
v 0.5 1.7 -0.5
v 0.6 1.7 -0.5
v 0.5 0.6 -0.6
v 0.4 0.6 -0.6
v 0.4 0.6 -0.5
v 0.5 0.6 -0.5
v 0.5 0.9 -0.6
v 0.4 0.9 -0.6
v 0.4 0.9 -0.5
v 0.5 0.9 -0.5
v 0.5 1.4 -0.6
v 0.4 1.4 -0.6
v 0.4 1.4 -0.5
v 0.5 1.4 -0.5
v 0.3 0.7 -0.6
v 0.2 0.7 -0.6
v 0.3 0.7 -0.5
v 0.3 1 -0.6
v 0.2 1 -0.6
v 0.2 1 -0.5
v 0.4 2.1 -0.6
v 0.2 2.1 -0.6
v 0.2 2.1 0.6
v 0.4 2.1 0.6
v 0.1 0.6 -0.6
v 0 0.6 -0.6
v 0 0.6 -0.5
v 0.1 0.6 -0.5
v 0.1 1.2 -0.6
v 0 1.2 -0.6
v 0 1.2 -0.5
v 0.1 1.2 -0.5
v 0.1 1.5 -0.6
v 0 1.5 -0.6
v 0 1.5 -0.5
v 0.1 1.5 -0.5
v 0.1 1 -0.6
v -0.1 1 -0.6
v -0.1 1 -0.5
v 0 1.3 -0.6
v -0.1 1.3 -0.6
v -0.2 2.1 -0.6
v -0.3 2.1 -0.6
v -0.3 2.1 0.2
v -0.2 2.1 0.2
v -0.4 2.1 -0.6
v -0.3 2.1 0.3
v -0.4 1.1 -0.6
v -0.5 1.1 -0.6
v -0.5 1.1 -0.5
v -0.4 1.1 -0.5
v -0.4 1.5 -0.6
v -0.5 1.5 -0.6
v -0.5 1.5 -0.5
v -0.4 1.5 -0.5
v -0.5 1 -0.6
v -0.6 1 -0.6
v -0.6 1 -0.4
v -0.5 1 -0.4
v -0.5 1.3 -0.6
v -0.6 1.3 -0.6
v -0.6 1.3 -0.5
v -0.5 1.3 -0.5
v -0.5 1.7 -0.6
v -0.6 1.7 -0.6
v -0.6 1.7 -0.5
v -0.5 1.7 -0.5
v 1.5 0.1 -0.7
v 1.4 0.1 -0.7
v 1.5 0.1 1.5
v 1.3 0.1 -0.7
v 1.1 0.1 -0.7
v 1.1 0.1 -0.6
v 1.3 0.1 -0.6
v 1 0.3 -0.7
v 0.9 0.3 -0.7
v 0.9 0.3 -0.6
v 0.7 2.1 -0.7
v 0.6 2.1 -0.7
v 0.6 2.1 -0.4
v 0.7 2.1 -0.4
v 0.4 2.1 -0.7
v 0.6 2.1 0.4
v 0.2 2.1 -0.7
v 0.1 2.1 -0.7
v 0.1 2.1 -0.1
v 0.2 2.1 -0.1
v -0.1 2.1 -0.7
v -0.1 2.1 0
v 0.1 2.1 0
v -0.2 2.1 -0.7
v -0.2 2.1 -0.1
v -0.1 2.1 -0.1
v -0.4 2.1 -0.7
v -0.6 2.1 -0.7
v -0.4 2.1 0.7
v -0.7 2.1 -0.7
v -0.7 2.1 -0.4
v -0.6 2.1 -0.4
v 1.2 0.3 -0.8
v 1.1 0.3 -0.8
v 1.1 0.3 -0.7
v 1.2 0.3 -0.7
v 1.1 0.4 -0.8
v 1 0.4 -0.8
v 1.1 0.4 -0.6
v 0.2 0.5 -0.8
v 0.1 0.5 -0.8
v 0.1 0.5 -0.5
v 0.2 0.5 -0.5
v -1 0.5 -0.8
v -1.1 0.5 -0.8
v -1.1 0.5 0.1
v -1 0.5 0.1
v 0.2 0.4 -0.9
v 0.1 0.4 -0.9
v 0.1 0.4 -0.8
v 0.2 0.4 -0.8
v -0.8 0.5 -0.9
v -0.9 0.5 -0.9
v -1 0.5 -0.9
v -1 0.5 0.4
v -0.9 0.5 0.4
v -1 0.4 -0.9
v -1.1 0.4 -0.9
v -1.1 0.4 -0.8
v -1 0.4 -0.8
v -1.2 0.4 -0.9
v -1.2 0.4 -0.2
v -1.1 0.4 -0.2
v -1.2 0.3 -0.9
v -1.3 0.3 -0.9
v -1.3 0.3 0.4
v -1.2 0.3 0.4
v -1.3 0.2 -0.9
v -1.4 0.2 -0.9
v -1.4 0.2 0
v -1.3 0.2 0
v 0.8 0.5 -1
v 0.7 0.5 -1
v 0.8 0.5 0.4
v -0.8 0.4 -1
v -0.9 0.4 -1
v -0.9 0.4 -0.9
v -0.8 0.4 -0.9
v -0.9 0.2 -1
v -1 0.2 -1
v -1 0.2 -0.9
v -0.9 0.2 -0.9
v 1.1 0.5 -1.1
v 1 0.5 -1.1
v 1 0.5 -0.8
v 1.1 0.5 -0.8
v 0.9 0.5 -1.1
v 0.9 0.5 -0.7
v 1 0.5 -0.7
v 0.8 0.5 -1.1
v 0.8 0.5 0.3
v 0.9 0.5 0.3
v 0.7 0.5 -1.1
v 0.6 0.5 -1.1
v 0.6 0.5 0.7
v 0.4 0.5 -1.1
v 0.4 0.5 -0.6
v 0.6 0.5 -0.6
v 0.3 0.5 -1.1
v 0.3 0.5 -0.5
v 0.4 0.5 -0.5
v 0.2 0.5 -1.1
v 0.2 0.5 -0.6
v 0.3 0.5 -0.6
v 0.1 0.5 -1.1
v 0.1 0.5 -0.9
v 0.2 0.5 -0.9
v -0.1 0.5 -1.1
v -0.1 0.5 -0.6
v 0.1 0.5 -0.6
v -0.2 0.5 -1.1
v -0.2 0.5 -0.5
v -0.1 0.5 -0.5
v -0.3 0.5 -1.1
v -0.3 0.5 -0.6
v -0.2 0.5 -0.6
v -0.4 0.5 -1.1
v -0.4 0.5 -0.5
v -0.3 0.5 -0.5
v -0.6 0.5 -1.1
v -0.6 0.5 -0.6
v -0.4 0.5 -0.6
v -0.8 0.5 -1.1
v -0.8 0.5 0.3
v -0.6 0.5 0.3
v -0.9 0.5 -1.1
v -0.9 0.5 -1
v -0.8 0.5 -1
v -1.3 0.1 -1.1
v -1.4 0.1 -1.1
v -1.4 0.1 -0.9
v -1.3 0.1 -0.9
v 1.2 0.4 -1.2
v 1.1 0.4 -1.2
v 1.2 0.4 -0.8
v 0.8 0.4 -1.2
v 0.8 0.4 -1.1
v 1.1 0.4 -1.1
v 0.7 0.4 -1.2
v 0.7 0.4 -1
v 0.8 0.4 -1
v -0.1 0.4 -1.2
v -0.1 0.4 -1.1
v 0.7 0.4 -1.1
v -0.2 0.4 -1.2
v -0.9 0.4 -1.2
v -0.9 0.4 -1.1
v -0.2 0.4 -1.1
v -0.9 0.3 -1.2
v -1 0.3 -1.2
v -1 0.3 -1
v -0.9 0.3 -1
v -1.1 0.3 -1.2
v -1.1 0.3 -0.9
v -1 0.3 -0.9
v -1.1 0.2 -1.2
v -1.2 0.2 -1.2
v -1.2 0.2 -0.9
v -1.1 0.2 -0.9
v -1.2 0.1 -1.2
v -1.3 0.1 -1.2
v -1.2 0.1 -0.9
v -1.3 0.2 -1.2
v -1.4 0.2 -1.2
v -1.4 0.2 -1.1
v -1.3 0.2 -1.1
v -1.4 0.1 -1.2
v -1.5 0.1 -1.2
v -1.4 0.1 1.4
v 1.3 0.3 -1.3
v 1.2 0.3 -1.3
v 1.3 0.3 -0.7
v 0.5 0.3 -1.3
v 0.5 0.3 -1.2
v 1.2 0.3 -1.2
v 0.4 0.3 -1.3
v -0.1 0.3 -1.3
v -0.1 0.3 -1.2
v 0.4 0.3 -1.2
v -0.2 0.3 -1.3
v -0.2 0.3 -1.1
v -0.1 0.3 -1.1
v -0.5 0.3 -1.3
v -0.5 0.3 -1.2
v -0.2 0.3 -1.2
v -0.6 0.3 -1.3
v -0.9 0.3 -1.3
v -0.6 0.3 -1.2
v -1 0.2 -1.3
v -1.1 0.2 -1.3
v -1 0.2 -1.2
v 1.4 0.2 -1.4
v 1.3 0.2 -1.4
v 1.3 0.2 -0.5
v 1.4 0.2 -0.5
v 1.1 0.2 -1.4
v 1.1 0.2 -1.3
v 1.3 0.2 -1.3
v 1 0.2 -1.4
v 0.5 0.2 -1.4
v 0.5 0.2 -1.3
v 1 0.2 -1.3
v 0.4 0.2 -1.4
v 0.4 0.2 -1.2
v 0.5 0.2 -1.2
v -0.1 0.2 -1.4
v -0.1 0.2 -1.3
v 0.4 0.2 -1.3
v -0.2 0.2 -1.4
v -0.5 0.2 -1.4
v -0.5 0.2 -1.3
v -0.2 0.2 -1.3
v -0.6 0.2 -1.4
v -0.6 0.2 -1.2
v -0.5 0.2 -1.2
v -0.9 0.2 -1.4
v -0.9 0.2 -1.3
v -0.6 0.2 -1.3
v -1 0.2 -1.4
v -0.9 0.2 -1.2
v -1 0.1 -1.4
v -1.1 0.1 -1.4
v -1.1 0.1 -1.3
v -1 0.1 -1.3
v 1.5 0.1 -1.5
v 1.4 0.1 -1.5
v 1.4 0.1 -0.8
v 1.5 0.1 -0.8
v 1.1 0.1 -1.5
v 1.1 0.1 -1.4
v 1.4 0.1 -1.4
v 1 0.1 -1.5
v 1 0.1 -1.3
v 1.1 0.1 -1.3
v -0.1 0.1 -1.5
v -0.1 0.1 -1.4
v 1 0.1 -1.4
v -0.2 0.1 -1.5
v -0.2 0.1 -1.3
v -0.1 0.1 -1.3
v -1 0.1 -1.5
v -0.2 0.1 -1.4
v -1.9 0 2.5
v -1.9 0 2.6
v -2.2 0 2.6
v -2.2 0 2.5
v -2 0 2.4
v -2 0 2.5
v -2.2 0 2.4
v -2.1 0 2.2
v -2.1 0 2.4
v -2.2 0 2.2
v -2.1 0 1.7
v -2.1 0 1.8
v -2.2 0 1.8
v -2.2 0 1.7
v -1.7 0 1.6
v -1.7 0 1.7
v -2.1 0 1.6
v -1.9 0 1.5
v -1.9 0 1.6
v -2 0 1.6
v -2 0 1.5
v -1.8 0 1.4
v -1.8 0 1.5
v -1.9 0 1.4
v 0 0.4 1.1
v -0.1 0.4 1.1
v 0.6 2 0.6
v 0.6 2 0.7
v 0.4 2 0.7
v 0.4 2 0.6
v 0.1 2 0.6
v 0.1 2 0.7
v -0.2 2 0.7
v -0.2 2 0.6
v -0.4 2 0.6
v -0.4 2 0.7
v -0.7 2 0.7
v -0.7 2 0.6
v 0.5 1 0.5
v 0.5 1 0.6
v 0.4 1 0.6
v 0.4 1 0.5
v 0.5 1.8 0.5
v 0.5 1.8 0.6
v 0.4 1.8 0.6
v 0.4 1.8 0.5
v 0.4 2 0.5
v 0.3 2 0.6
v 0.3 2 0.5
v 0.3 1 0.5
v 0.3 1 0.6
v 0.2 1 0.6
v 0.2 1 0.5
v 0.2 2 0.5
v 0.2 2 0.7
v 0.1 2 0.5
v 0.1 0.9 0.5
v 0.1 0.9 0.6
v 0 0.9 0.6
v 0 0.9 0.5
v 0.1 1.5 0.5
v 0.1 1.5 0.6
v 0 1.5 0.6
v 0 1.5 0.5
v 0.1 1.8 0.5
v 0.1 1.8 0.6
v 0 1.8 0.6
v 0 1.8 0.5
v -0.1 1.7 0.6
v -0.1 2 0.5
v -0.1 2 0.6
v -0.2 2 0.5
v -0.2 1 0.5
v -0.2 1 0.6
v -0.3 1 0.6
v -0.3 1 0.5
v -0.2 1.5 0.6
v -0.3 1.5 0.6
v -0.3 1.5 0.5
v -0.2 1.8 0.5
v -0.2 1.8 0.6
v -0.3 1.8 0.6
v -0.3 2 0.5
v -0.3 2 0.6
v -0.4 2 0.5
v -0.4 1.1 0.5
v -0.4 1.1 0.6
v -0.5 1.1 0.6
v -0.5 1.1 0.5
v -0.4 1.7 0.5
v -0.4 1.7 0.6
v -0.5 1.7 0.6
v -0.5 1.7 0.5
v 0.7 2 0.4
v 0.7 2 0.7
v 0.6 2 0.4
v 0.6 1 0.4
v 0.6 1 0.5
v 0.5 1 0.4
v 0.6 1.8 0.4
v 0.6 1.8 0.6
v 0.5 1.8 0.4
v 0.4 1.8 0.4
v 0.3 1.8 0.5
v 0.3 1.8 0.4
v 0.3 1.6 0.4
v 0.3 1.6 0.5
v 0.2 1.6 0.5
v 0.2 1.6 0.4
v 0.2 0.6 0.4
v 0.2 0.6 0.5
v 0.1 0.6 0.5
v 0.1 0.6 0.4
v -0.1 1.3 0.4
v -0.1 1.3 0.5
v -0.2 1.3 0.5
v -0.2 1.3 0.4
v -0.1 1.6 0.4
v -0.2 1.6 0.5
v -0.2 1.6 0.4
v -0.1 1.8 0.4
v -0.1 1.8 0.5
v -0.2 1.8 0.4
v -0.2 0.9 0.4
v -0.2 0.9 0.5
v -0.3 0.9 0.5
v -0.3 0.9 0.4
v -0.3 1.9 0.4
v -0.3 1.9 0.5
v -0.4 1.9 0.5
v -0.4 1.9 0.4
v -0.5 1.2 0.4
v -0.5 1.2 0.6
v -0.6 1.2 0.6
v -0.6 1.2 0.4
v -0.5 1.7 0.4
v -0.6 1.7 0.5
v -0.6 1.7 0.4
v -0.6 2 0.4
v -0.6 2 0.6
v -0.7 2 0.4
v 0.6 2 0.3
v 0.5 2 0.4
v 0.5 2 0.3
v 0.5 1.7 0.3
v 0.5 1.7 0.5
v 0.4 1.7 0.5
v 0.4 1.7 0.3
v -0.2 2.3 0.4
v -0.3 2.3 0.4
v -0.5 2 0.3
v -0.5 2 0.4
v -0.6 2 0.3
v 0.6 0.8 0.2
v 0.6 0.8 0.3
v 0.5 0.8 0.3
v 0.5 0.8 0.2
v 0.6 1.3 0.2
v 0.6 1.3 0.3
v 0.5 1.3 0.3
v 0.5 1.3 0.2
v 0.6 1.7 0.2
v 0.6 1.7 0.3
v 0.5 1.7 0.2
v 0.3 1.7 0.2
v 0.3 1.7 0.3
v 0.2 1.7 0.3
v 0.2 1.7 0.2
v -0.1 0.9 0.2
v -0.1 0.9 0.4
v -0.2 0.9 0.2
v -0.4 1.2 0.2
v -0.4 1.2 0.5
v -0.5 1.2 0.5
v -0.5 1.2 0.2
v -0.5 1.2 0.3
v -0.6 1.2 0.3
v -0.6 1.2 0.2
v 0.6 2 0.1
v 0.6 2 0.2
v 0.5 2 0.2
v 0.5 2 0.1
v 0.5 0.8 0.1
v 0.4 0.8 0.2
v 0.4 0.8 0.1
v 0.5 1.2 0.1
v 0.4 1.2 0.2
v 0.4 1.2 0.1
v 0.5 1.6 0.1
v 0.5 1.6 0.3
v 0.4 1.6 0.3
v 0.4 1.6 0.1
v 0.4 1.7 0.1
v 0.4 1.7 0.4
v 0.3 1.7 0.4
v 0.3 1.7 0.1
v 0.3 2.9 0.1
v 0.3 2.9 0.2
v 0.2 2.9 0.2
v 0.2 2.9 0.1
v 0.2 3.1 0.1
v 0.2 3.1 0.2
v -0.2 3.1 0.2
v -0.2 3.1 0.1
v -0.2 1 0.1
v -0.2 1 0.4
v -0.3 1 0.4
v -0.3 1 0.1
v -0.2 2.9 0.1
v -0.2 2.9 0.2
v -0.3 2.9 0.2
v -0.3 2.9 0.1
v -0.4 1 0.5
v -0.4 1 0.1
v -0.4 0.9 0.1
v -0.4 0.9 0.2
v -0.5 0.9 0.2
v -0.5 0.9 0.1
v -0.5 2 0.1
v -0.5 2 0.2
v -0.7 2 0.2
v -0.7 2 0.1
v 0.6 1.1 0
v 0.6 1.1 0.1
v 0.5 1.1 0
v 0.6 1.6 0
v 0.6 1.6 0.1
v 0.5 1.6 0
v 0.3 2.8 0.1
v 0.2 2.8 0.1
v 0.2 2.8 0
v 0.2 2.4 0
v 0.2 2.4 0.1
v -0.2 2.4 0.1
v -0.2 2.4 0
v 0.6 2.9 -0.1
v 0.6 2.9 0
v 0.5 2.8 -0.1
v 0.5 2.8 0
v 0.4 3 0
v 0.4 3 -0.1
v 0.4 2.7 -0.1
v 0.4 2.7 0
v 0.2 2.7 0
v 0.2 2.7 -0.1
v -0.2 2.7 -0.1
v -0.2 2.7 0.2
v -0.3 2.7 0.2
v -0.3 2.7 -0.1
v -0.5 1.4 -0.1
v -0.5 1.4 0
v -0.6 1.4 0
v -0.6 1.4 -0.1
v -0.5 1.8 -0.1
v -0.5 1.8 0
v -0.6 1.8 0
v -0.6 1.8 -0.1
v 0.7 2 -0.2
v 0.7 2 0.2
v 0.6 2 -0.2
v 0.6 2 -0.1
v 0.5 2 -0.1
v 0.5 2 -0.2
v 0.5 0.8 -0.2
v 0.5 0.8 -0.1
v 0.4 0.8 -0.1
v 0.4 0.8 -0.2
v 0.5 1.3 -0.2
v 0.5 1.3 -0.1
v 0.4 1.3 -0.1
v 0.4 1.3 -0.2
v 0.4 2.9 -0.2
v 0.4 2.9 0.1
v 0.3 2.9 -0.2
v 0.3 2.8 -0.2
v 0.2 2.8 -0.1
v 0.2 2.8 -0.2
v 0.2 2.4 -0.2
v 0.2 2.4 -0.1
v 0.1 2.4 -0.1
v 0.1 2.4 -0.2
v 0.1 2.4 0
v -0.1 2.4 0
v -0.1 2.4 -0.2
v -0.1 2.4 -0.1
v -0.2 2.4 -0.1
v -0.2 2.4 -0.2
v -0.2 2.8 -0.2
v -0.2 2.8 -0.1
v -0.3 2.8 -0.1
v -0.3 2.8 -0.2
v -0.3 2.9 -0.2
v -0.4 2.9 0.1
v -0.4 2.9 -0.2
v -0.5 2 -0.2
v -0.5 2 -0.1
v -0.6 2 -0.1
v -0.6 2 -0.2
v -0.6 2 0.1
v -0.7 2 -0.2
v 0.6 0.7 -0.3
v 0.6 0.7 -0.2
v 0.5 0.7 -0.3
v 0.6 1.1 -0.3
v 0.6 1.1 -0.2
v 0.5 1.1 -0.2
v 0.5 1.1 -0.3
v 0.6 1.5 -0.3
v 0.6 1.5 -0.2
v 0.5 1.5 -0.2
v 0.5 1.5 -0.3
v 0.6 1.9 -0.3
v 0.6 1.9 -0.2
v 0.5 1.9 -0.2
v 0.5 1.9 -0.3
v 0.4 1.1 -0.2
v 0.4 1.1 -0.3
v 0.3 2.9 -0.3
v 0.2 2.9 -0.2
v 0.2 2.9 -0.3
v 0.2 2.8 -0.3
v -0.2 2.8 -0.3
v -0.2 2.9 -0.3
v -0.2 2.9 -0.2
v -0.3 2.9 -0.3
v -0.5 0.9 -0.3
v -0.5 0.9 -0.2
v -0.6 0.9 -0.2
v -0.6 0.9 -0.3
v 0.6 2 -0.4
v 0.6 2 -0.3
v 0.5 2 -0.3
v 0.5 2 -0.4
v 0.5 1.4 -0.4
v 0.4 1.4 -0.3
v 0.4 1.4 -0.4
v -0.4 1.7 -0.4
v -0.4 1.7 -0.3
v -0.5 1.7 -0.3
v -0.5 1.7 -0.4
v -0.5 2 -0.4
v -0.5 2 -0.3
v -0.6 2 -0.3
v -0.6 2 -0.4
v 0.6 0.9 -0.5
v 0.6 0.9 -0.4
v 0.5 0.9 -0.4
v 0.4 1.3 -0.5
v 0.3 1.3 -0.4
v 0.3 1.3 -0.5
v 0.4 0.8 -0.5
v 0.4 0.8 -0.4
v 0.2 0.8 -0.4
v 0.2 0.8 -0.5
v 0.1 1.2 -0.4
v 0.2 1.7 -0.5
v 0.2 1.7 -0.4
v 0.1 1.7 -0.4
v 0.1 1.7 -0.5
v 0 1.4 -0.5
v 0 1.4 -0.4
v -0.1 1.4 -0.4
v -0.1 1.4 -0.5
v -0.2 1.3 -0.4
v -0.2 1.3 -0.5
v -0.1 1.8 -0.5
v -0.1 1.8 -0.4
v -0.2 1.8 -0.4
v -0.2 1.8 -0.5
v -0.3 0.9 -0.5
v -0.3 0.9 -0.4
v -0.4 0.9 -0.4
v -0.4 0.9 -0.5
v 0.6 1.8 -0.6
v 0.6 1.8 -0.5
v 0.5 1.8 -0.5
v 0.5 1.8 -0.6
v 0.5 0.7 -0.6
v 0.5 0.7 -0.5
v 0.4 0.7 -0.6
v 0.5 1 -0.6
v 0.5 1 -0.5
v 0.4 1 -0.5
v 0.4 1 -0.6
v 0.5 1.6 -0.6
v 0.5 1.6 -0.5
v 0.4 1.6 -0.5
v 0.4 1.6 -0.6
v 0.4 2 -0.6
v 0.4 2 -0.5
v 0.3 2 -0.5
v 0.3 2 -0.6
v 0.3 0.8 -0.6
v 0.3 0.8 -0.5
v 0.2 0.8 -0.6
v 0.3 1.2 -0.6
v 0.2 1.2 -0.5
v 0.2 1.2 -0.6
v 0.1 0.8 -0.6
v 0.1 0.8 -0.5
v 0 0.8 -0.5
v 0 0.8 -0.6
v 0.1 1.4 -0.6
v 0 1.4 -0.6
v 0.1 1.1 -0.6
v 0.1 1.1 -0.5
v -0.1 1.1 -0.5
v -0.1 1.1 -0.6
v 0.1 1.6 -0.6
v 0.1 1.6 -0.5
v -0.1 1.6 -0.5
v -0.1 1.6 -0.6
v -0.3 2 -0.6
v -0.3 2 -0.5
v -0.4 2 -0.5
v -0.4 2 -0.6
v -0.4 1.3 -0.6
v -0.4 1.3 -0.5
v -0.4 1.7 -0.6
v -0.4 1.7 -0.5
v -0.5 1.1 -0.4
v -0.6 1.1 -0.4
v -0.6 1.1 -0.6
v -0.5 1.4 -0.6
v -0.5 1.4 -0.5
v -0.6 1.4 -0.5
v -0.6 1.4 -0.6
v -0.5 1.9 -0.6
v -0.5 1.9 -0.5
v -0.6 1.9 -0.5
v -0.6 1.9 -0.6
v 0.7 2 -0.7
v 0.7 2 -0.4
v 0.6 2 -0.7
v 0.6 2 -0.6
v 0.4 2 -0.7
v 1.5 0 -0.7
v 1.5 0 1.5
v 0.3 0 1.5
v 0.3 0 -0.7
v 0.2 2 -0.7
v 0.2 2 -0.5
v 0.1 2 -0.5
v 0.1 2 -0.7
v 0.1 2 -0.6
v -0.1 2 -0.6
v -0.1 2 -0.7
v -0.1 2 -0.5
v -0.2 2 -0.5
v -0.2 2 -0.7
v -0.4 2 -0.7
v -0.6 2 -0.6
v -0.6 2 -0.7
v -0.7 2 -0.4
v -0.7 2 -0.7
v -1.1 0 -1.2
v -1.1 0 1.5
v -1.5 0 1.5
v -1.5 0 -1.2
v -1 0 -1.4
v -1 0 1.5
v -1.1 0 -1.4
v 1.5 0 -1.5
v 1.5 0 -0.8
v 1.4 0 -0.8
v 1.4 0 -1.5
v 1.4 0 -0.7
v 0.3 0 -1.5
v 0.3 0 1.4
v 0.2 0 1.4
v 0.2 0 -1.5
v 0.2 0 1.5
v -1 0 -1.5
v -1.1 0 -1.3
v 1.3 0.2 -0.6
v 1.3 0.2 -0.7
v -1.3 0.3 0.1
v -1.3 0.3 0
v 1.2 0.3 -0.4
v 0.3 0.4 1
v -1.2 0.4 0.5
v -1.2 0.4 0.4
v 1 0.4 -0.7
v -0.9 0.3 -1.1
v -1.1 0.5 -0.1
v -1.1 0.5 -0.2
v 0.2 0.5 0.5
v -0.8 0.5 0.4
v -0.2 1 0.2
v -0.5 1 -0.5
v -0.4 1 0.2
v -0.6 0.5 0
v -0.6 1.1 -0.5
v -0.6 1.2 0.5
v 0.2 2 0.6
v -0.6 2 0.5
v -0.6 2 0.2
v -0.6 2 0
v -0.6 2 -0.5
v 0.2 2 -0.6
v -0.2 2 -0.6
v 0.1 2.2 0
v 0.1 2.2 -0.1
v -0.2 2.2 0
v -0.2 2.2 -0.1
v -0.2 2.7 0.1
v -0.2 2.7 -0.2
v -0.3 3.2 -0.2
v 0 0.1 1.2
v 1.4 0.2 -0.7
v 1.4 0.2 -0.8
v -0.1 0.3 1.1
v 1.3 0.3 -0.4
v 1.3 0.3 -0.5
v -0.2 0.4 1
v 1.2 0.4 0.8
v 1.2 0.4 0.5
v 1.2 0.4 0.4
v 1 0.3 -0.5
v 1.1 0.4 -0.7
v 1.1 0.5 1
v 1.1 0.5 0.9
v 0.9 0.5 -0.6
v 0.1 0.5 0.5
v 0.6 0.8 -0.6
v 0.6 0.5 0.5
v 0.6 1 -0.1
v 0.5 1.3 0.1
v 0.5 1.5 -0.4
v 0.5 1.7 0.1
v 0.5 1.8 0.3
v 0.6 2 0
v 0.6 2 -0.5
v 0.2 2.2 0
v 0.2 2.2 -0.1
v -0.1 2.2 0
v -0.1 2.2 -0.1
v 0.2 2.7 0.1
v 0.2 2.7 -0.2
v 0.4 3 -0.2
v 0.3 3.2 0.1
v 0.3 3.2 -0.2
v 0.6 0.6 -0.6
v 0.4 1.8 -0.6
v 0.3 0.6 -0.5
v 0.3 0.9 -0.5
v 0.3 1.4 -0.5
v 0.3 1.6 -0.5
v -0.1 0.6 -0.6
v -0.1 0.8 -0.6
v -0.1 1.2 -0.6
v -0.2 1 -0.5
v -0.2 1.1 -0.5
v -0.2 1.4 -0.5
v -0.2 1.5 -0.5
v -0.2 1.6 -0.5
v -0.3 0.7 0.5
v -0.4 1 -0.6
v -0.5 2 -0.6
v -0.6 0.5 0.4
v -1.1 0.1 -1.2
v 0.6 0.9 0.6
v 0.3 1.6 0.1
v 0.1 1 0.5
v 0.1 2.9 0.1
v 0.2 3 0.1
v 0.1 3 0.1
v 0.1 1.6 0.6
v 0 2.5 0.1
v 0.2 2.5 0.1
v 0 2.7 0.1
v -0.1 0.2 1
v -0.1 0.3 1.3
v -0.1 0.8 0.6
v -0.1 0.9 0.6
v -0.1 1.4 0.6
v -0.1 1.5 0.6
v -0.1 1.8 0.6
v -0.1 2.5 0.1
v -0.1 2.7 0.1
v -0.1 2.9 0.1
v -0.1 3 0.1
v -0.1 0.8 0.2
v -0.2 2.5 0.1
v -0.2 3 0.1
v -0.3 0.5 0.6
v -0.3 3.1 0.2
v -0.2 0.9 0.1
v -0.4 1.4 0.5
v -0.4 1.5 0.5
v -0.5 0.8 0.1
v -0.6 1.7 0.6
v -2.2 0.1 2
v -2.3 0.1 2
v -2.3 0.1 2.6
v -2.5 0.1 1.9
v -2.6 0.1 1.9
v -2.6 0.1 2.4
v -2.5 0.1 2.4
v -2.7 0.1 1.9
v -2.7 0.1 2.3
v -2.6 0.1 2.3
v -2.8 0.1 1.9
v -2.8 0.1 2.1
v -2.7 0.1 2.1
v -2.3 0.1 1.8
v -2.4 0.1 1.8
v -2.4 0.1 2.7
v -2.3 0.1 2.7
v -2.5 0.1 1.8
v -2.5 0.1 2.8
v -2.4 0.1 2.8
v -2.9 0.1 1.8
v -2.9 0.1 1.9
v -3 0.1 1.8
v -3 0.1 1.9
v -2.5 0.1 1.7
v -2.2 0 2
v -2.3 0 2.6
v -2.3 0 2
v -2.5 0 1.9
v -2.5 0 2.4
v -2.6 0 2.4
v -2.6 0 1.9
v -2.6 0 2.3
v -2.7 0 2.3
v -2.7 0 1.9
v -2.7 0 2.1
v -2.8 0 2.1
v -2.8 0 1.9
v -2.3 0 1.8
v -2.3 0 2.7
v -2.4 0 2.7
v -2.4 0 1.8
v -2.4 0 2.8
v -2.5 0 2.8
v -2.5 0 1.8
v -2.9 0 1.9
v -2.9 0 1.8
v -3 0 1.9
v -3 0 1.8
v -2.5 0 1.7

vt 0.0332031 0.5
vt 0.0371094 0.5
vt 0.0410156 0.5
vt 0.0527344 0.5
vt 0.0683594 0.5
vt 0.0839844 0.5
vt 0.123047 0.5

vn 0 1 0
vn 0 -1 0
vn -1 0 0
vn 1 0 0
vn 0 0 -1
vn 0 0 1

usemtl palette
f 1/3/1 2/3/1 4/3/1
f 4/3/1 2/3/1 3/3/1
f 5/3/1 6/3/1 7/3/1
f 7/3/1 6/3/1 2/3/1
f 8/3/1 9/3/1 10/3/1
f 10/3/1 9/3/1 6/3/1
f 11/2/1 12/2/1 14/2/1
f 14/2/1 12/2/1 13/2/1
f 15/2/1 16/2/1 17/2/1
f 17/2/1 16/2/1 11/2/1
f 18/3/1 19/3/1 21/3/1
f 21/3/1 19/3/1 20/3/1
f 22/2/1 23/2/1 25/2/1
f 25/2/1 23/2/1 24/2/1
f 26/2/1 27/2/1 29/2/1
f 29/2/1 27/2/1 28/2/1
f 30/2/1 31/2/1 32/2/1
f 32/2/1 31/2/1 18/2/1
f 33/2/1 34/2/1 36/2/1
f 36/2/1 34/2/1 35/2/1
f 37/2/1 38/2/1 40/2/1
f 40/2/1 38/2/1 39/2/1
f 41/2/1 42/2/1 44/2/1
f 44/2/1 42/2/1 43/2/1
f 45/2/1 46/2/1 48/2/1
f 48/2/1 46/2/1 47/2/1
f 49/2/1 50/2/1 52/2/1
f 52/2/1 50/2/1 51/2/1
f 53/2/1 54/2/1 56/2/1
f 56/2/1 54/2/1 55/2/1
f 57/2/1 58/2/1 60/2/1
f 60/2/1 58/2/1 59/2/1
f 61/2/1 62/2/1 64/2/1
f 64/2/1 62/2/1 63/2/1
f 65/2/1 66/2/1 68/2/1
f 68/2/1 66/2/1 67/2/1
f 69/2/1 70/2/1 71/2/1
f 71/2/1 70/2/1 45/2/1
f 72/2/1 73/2/1 75/2/1
f 75/2/1 73/2/1 74/2/1
f 76/2/1 77/2/1 79/2/1
f 79/2/1 77/2/1 78/2/1
f 80/2/1 81/2/1 82/2/1
f 82/2/1 81/2/1 68/2/1
f 83/2/1 84/2/1 86/2/1
f 86/2/1 84/2/1 85/2/1
f 87/2/1 88/2/1 54/2/1
f 54/2/1 88/2/1 89/2/1
f 90/2/1 91/2/1 93/2/1
f 93/2/1 91/2/1 92/2/1
f 94/2/1 95/2/1 97/2/1
f 97/2/1 95/2/1 96/2/1
f 98/2/1 99/2/1 101/2/1
f 101/2/1 99/2/1 100/2/1
f 102/2/1 103/2/1 105/2/1
f 105/2/1 103/2/1 104/2/1
f 106/2/1 107/2/1 108/2/1
f 108/2/1 107/2/1 56/2/1
f 107/2/1 109/2/1 111/2/1
f 111/2/1 109/2/1 110/2/1
f 112/2/1 113/2/1 115/2/1
f 115/2/1 113/2/1 114/2/1
f 116/2/1 117/2/1 119/2/1
f 119/2/1 117/2/1 118/2/1
f 120/2/1 121/2/1 123/2/1
f 123/2/1 121/2/1 122/2/1
f 124/2/1 125/2/1 127/2/1
f 127/2/1 125/2/1 126/2/1
f 128/2/1 129/2/1 131/2/1
f 131/2/1 129/2/1 130/2/1
f 132/2/1 133/2/1 135/2/1
f 135/2/1 133/2/1 134/2/1
f 136/1/1 137/1/1 139/1/1
f 139/1/1 137/1/1 138/1/1
f 140/1/1 141/1/1 143/1/1
f 143/1/1 141/1/1 142/1/1
f 144/2/1 145/2/1 147/2/1
f 147/2/1 145/2/1 146/2/1
f 148/1/1 149/1/1 151/1/1
f 151/1/1 149/1/1 150/1/1
f 152/1/1 153/1/1 155/1/1
f 155/1/1 153/1/1 154/1/1
f 156/2/1 157/2/1 159/2/1
f 159/2/1 157/2/1 158/2/1
f 160/2/1 161/2/1 163/2/1
f 163/2/1 161/2/1 162/2/1
f 161/2/1 164/2/1 166/2/1
f 166/2/1 164/2/1 165/2/1
f 164/2/1 167/2/1 168/2/1
f 168/2/1 167/2/1 125/2/1
f 169/1/1 170/1/1 171/1/1
f 171/1/1 170/1/1 148/1/1
f 172/2/1 173/2/1 175/2/1
f 175/2/1 173/2/1 174/2/1
f 173/2/1 176/2/1 178/2/1
f 178/2/1 176/2/1 177/2/1
f 179/2/1 180/2/1 182/2/1
f 182/2/1 180/2/1 181/2/1
f 183/2/1 184/2/1 185/2/1
f 185/2/1 184/2/1 127/2/1
f 184/2/1 186/2/1 187/2/1
f 187/2/1 186/2/1 156/2/1
f 188/5/1 189/5/1 153/5/1
f 153/5/1 189/5/1 190/5/1
f 191/2/1 192/2/1 194/2/1
f 194/2/1 192/2/1 193/2/1
f 195/1/1 196/1/1 198/1/1
f 198/1/1 196/1/1 197/1/1
f 199/1/1 200/1/1 202/1/1
f 202/1/1 200/1/1 201/1/1
f 203/1/1 204/1/1 206/1/1
f 206/1/1 204/1/1 205/1/1
f 207/2/1 208/2/1 210/2/1
f 210/2/1 208/2/1 209/2/1
f 211/1/1 212/1/1 214/1/1
f 214/1/1 212/1/1 213/1/1
f 215/1/1 216/1/1 218/1/1
f 218/1/1 216/1/1 217/1/1
f 219/1/1 220/1/1 222/1/1
f 222/1/1 220/1/1 221/1/1
f 223/2/1 224/2/1 225/2/1
f 225/2/1 224/2/1 173/2/1
f 226/1/1 227/1/1 229/1/1
f 229/1/1 227/1/1 228/1/1
f 230/1/1 231/1/1 233/1/1
f 233/1/1 231/1/1 232/1/1
f 234/1/1 235/1/1 237/1/1
f 237/1/1 235/1/1 236/1/1
f 238/1/1 239/1/1 241/1/1
f 241/1/1 239/1/1 240/1/1
f 242/1/1 243/1/1 245/1/1
f 245/1/1 243/1/1 244/1/1
f 246/2/1 247/2/1 99/2/1
f 99/2/1 247/2/1 248/2/1
f 249/1/1 250/1/1 252/1/1
f 252/1/1 250/1/1 251/1/1
f 253/1/1 254/1/1 256/1/1
f 256/1/1 254/1/1 255/1/1
f 257/1/1 258/1/1 260/1/1
f 260/1/1 258/1/1 259/1/1
f 261/5/1 262/5/1 264/5/1
f 264/5/1 262/5/1 263/5/1
f 265/1/1 266/1/1 268/1/1
f 268/1/1 266/1/1 267/1/1
f 262/1/1 269/1/1 263/1/1
f 263/1/1 269/1/1 189/1/1
f 270/2/1 271/2/1 192/2/1
f 192/2/1 271/2/1 272/2/1
f 273/1/1 274/1/1 196/1/1
f 196/1/1 274/1/1 203/1/1
f 275/2/1 276/2/1 278/2/1
f 278/2/1 276/2/1 277/2/1
f 279/2/1 280/2/1 281/2/1
f 281/2/1 280/2/1 62/2/1
f 282/2/1 283/2/1 285/2/1
f 285/2/1 283/2/1 284/2/1
f 286/2/1 287/2/1 289/2/1
f 289/2/1 287/2/1 288/2/1
f 290/1/1 291/1/1 292/1/1
f 292/1/1 291/1/1 215/1/1
f 293/1/1 294/1/1 295/1/1
f 295/1/1 294/1/1 219/1/1
f 296/5/1 297/5/1 212/5/1
f 212/5/1 297/5/1 298/5/1
f 299/5/1 300/5/1 302/5/1
f 302/5/1 300/5/1 301/5/1
f 303/5/1 304/5/1 306/5/1
f 306/5/1 304/5/1 305/5/1
f 307/2/1 308/2/1 309/2/1
f 309/2/1 308/2/1 182/2/1
f 310/5/1 311/5/1 313/5/1
f 313/5/1 311/5/1 312/5/1
f 314/5/1 315/5/1 317/5/1
f 317/5/1 315/5/1 316/5/1
f 318/5/1 319/5/1 320/5/1
f 320/5/1 319/5/1 257/5/1
f 321/5/1 322/5/1 324/5/1
f 324/5/1 322/5/1 323/5/1
f 325/5/1 326/5/1 262/5/1
f 262/5/1 326/5/1 327/5/1
f 326/1/1 328/1/1 327/1/1
f 327/1/1 328/1/1 269/1/1
f 329/1/1 330/1/1 266/1/1
f 266/1/1 330/1/1 331/1/1
f 328/5/1 332/5/1 189/5/1
f 189/5/1 332/5/1 195/5/1
f 333/5/1 334/5/1 336/5/1
f 336/5/1 334/5/1 335/5/1
f 332/5/1 337/5/1 338/5/1
f 338/5/1 337/5/1 273/5/1
f 339/1/1 340/1/1 274/1/1
f 274/1/1 340/1/1 341/1/1
f 342/2/1 343/2/1 345/2/1
f 345/2/1 343/2/1 344/2/1
f 346/1/1 347/1/1 349/1/1
f 349/1/1 347/1/1 348/1/1
f 350/2/1 351/2/1 353/2/1
f 353/2/1 351/2/1 352/2/1
f 354/2/1 355/2/1 357/2/1
f 357/2/1 355/2/1 356/2/1
f 358/5/1 359/5/1 361/5/1
f 361/5/1 359/5/1 360/5/1
f 362/2/1 363/2/1 365/2/1
f 365/2/1 363/2/1 364/2/1
f 366/1/1 367/1/1 332/1/1
f 332/1/1 367/1/1 337/1/1
f 368/1/1 369/1/1 371/1/1
f 371/1/1 369/1/1 370/1/1
f 372/1/1 373/1/1 375/1/1
f 375/1/1 373/1/1 374/1/1
f 376/1/1 377/1/1 379/1/1
f 379/1/1 377/1/1 378/1/1
f 380/5/1 381/5/1 383/5/1
f 383/5/1 381/5/1 382/5/1
f 384/5/1 385/5/1 387/5/1
f 387/5/1 385/5/1 386/5/1
f 388/2/1 389/2/1 391/2/1
f 391/2/1 389/2/1 390/2/1
f 385/5/1 392/5/1 394/5/1
f 394/5/1 392/5/1 393/5/1
f 395/1/1 396/1/1 398/1/1
f 398/1/1 396/1/1 397/1/1
f 399/2/1 400/2/1 401/2/1
f 401/2/1 400/2/1 167/2/1
f 402/2/1 403/2/1 404/2/1
f 404/2/1 403/2/1 147/2/1
f 405/2/1 406/2/1 408/2/1
f 408/2/1 406/2/1 407/2/1
f 409/5/1 410/5/1 369/5/1
f 369/5/1 410/5/1 411/5/1
f 412/5/1 413/5/1 415/5/1
f 415/5/1 413/5/1 414/5/1
f 416/5/1 417/5/1 419/5/1
f 419/5/1 417/5/1 418/5/1
f 417/5/1 420/5/1 421/5/1
f 421/5/1 420/5/1 306/5/1
f 422/5/1 423/5/1 425/5/1
f 425/5/1 423/5/1 424/5/1
f 426/2/1 427/2/1 429/2/1
f 429/2/1 427/2/1 428/2/1
f 430/2/1 431/2/1 433/2/1
f 433/2/1 431/2/1 432/2/1
f 434/5/1 435/5/1 436/5/1
f 436/5/1 435/5/1 392/5/1
f 435/5/1 437/5/1 439/5/1
f 439/5/1 437/5/1 438/5/1
f 440/2/1 441/2/1 443/2/1
f 443/2/1 441/2/1 442/2/1
f 444/2/1 445/2/1 447/2/1
f 447/2/1 445/2/1 446/2/1
f 448/2/1 449/2/1 450/2/1
f 450/2/1 449/2/1 50/2/1
f 451/2/1 452/2/1 454/2/1
f 454/2/1 452/2/1 453/2/1
f 455/1/1 456/1/1 458/1/1
f 458/1/1 456/1/1 457/1/1
f 459/1/1 460/1/1 461/1/1
f 461/1/1 460/1/1 416/1/1
f 462/2/1 463/2/1 465/2/1
f 465/2/1 463/2/1 464/2/1
f 466/2/1 467/2/1 468/2/1
f 468/2/1 467/2/1 433/2/1
f 469/5/1 470/5/1 472/5/1
f 472/5/1 470/5/1 471/5/1
f 473/2/1 474/2/1 476/2/1
f 476/2/1 474/2/1 475/2/1
f 477/2/1 478/2/1 479/2/1
f 479/2/1 478/2/1 431/2/1
f 480/2/1 481/2/1 483/2/1
f 483/2/1 481/2/1 482/2/1
f 484/2/1 485/2/1 487/2/1
f 487/2/1 485/2/1 486/2/1
f 488/2/1 489/2/1 491/2/1
f 491/2/1 489/2/1 490/2/1
f 492/2/1 493/2/1 495/2/1
f 495/2/1 493/2/1 494/2/1
f 496/3/1 497/3/1 498/3/1
f 498/3/1 497/3/1 462/3/1
f 499/2/1 500/2/1 502/2/1
f 502/2/1 500/2/1 501/2/1
f 503/2/1 504/2/1 505/2/1
f 505/2/1 504/2/1 466/2/1
f 506/2/1 507/2/1 508/2/1
f 508/2/1 507/2/1 473/2/1
f 509/2/1 510/2/1 512/2/1
f 512/2/1 510/2/1 511/2/1
f 513/2/1 514/2/1 474/2/1
f 474/2/1 514/2/1 515/2/1
f 516/2/1 517/2/1 478/2/1
f 478/2/1 517/2/1 518/2/1
f 519/1/1 520/1/1 522/1/1
f 522/1/1 520/1/1 521/1/1
f 523/1/1 524/1/1 526/1/1
f 526/1/1 524/1/1 525/1/1
f 527/2/1 528/2/1 529/2/1
f 529/2/1 528/2/1 77/2/1
f 530/5/1 531/5/1 533/5/1
f 533/5/1 531/5/1 532/5/1
f 534/2/1 535/2/1 537/2/1
f 537/2/1 535/2/1 536/2/1
f 538/5/1 539/5/1 541/5/1
f 541/5/1 539/5/1 540/5/1
f 542/5/1 543/5/1 545/5/1
f 545/5/1 543/5/1 544/5/1
f 546/2/1 547/2/1 497/2/1
f 497/2/1 547/2/1 548/2/1
f 549/2/1 550/2/1 507/2/1
f 507/2/1 550/2/1 513/2/1
f 551/2/1 552/2/1 554/2/1
f 554/2/1 552/2/1 553/2/1
f 555/2/1 556/2/1 558/2/1
f 558/2/1 556/2/1 557/2/1
f 559/5/1 560/5/1 562/5/1
f 562/5/1 560/5/1 561/5/1
f 563/2/1 564/2/1 566/2/1
f 566/2/1 564/2/1 565/2/1
f 567/1/1 568/1/1 570/1/1
f 570/1/1 568/1/1 569/1/1
f 571/1/1 572/1/1 574/1/1
f 574/1/1 572/1/1 573/1/1
f 575/1/1 576/1/1 578/1/1
f 578/1/1 576/1/1 577/1/1
f 579/1/1 580/1/1 582/1/1
f 582/1/1 580/1/1 581/1/1
f 572/5/1 583/5/1 573/5/1
f 573/5/1 583/5/1 584/5/1
f 585/2/1 586/2/1 504/2/1
f 504/2/1 586/2/1 587/2/1
f 586/2/1 588/2/1 590/2/1
f 590/2/1 588/2/1 589/2/1
f 591/2/1 592/2/1 594/2/1
f 594/2/1 592/2/1 593/2/1
f 595/2/1 596/2/1 598/2/1
f 598/2/1 596/2/1 597/2/1
f 596/2/1 599/2/1 600/2/1
f 600/2/1 599/2/1 516/2/1
f 601/1/1 602/1/1 604/1/1
f 604/1/1 602/1/1 603/1/1
f 605/2/1 606/2/1 607/2/1
f 607/2/1 606/2/1 36/2/1
f 608/2/1 609/2/1 611/2/1
f 611/2/1 609/2/1 610/2/1
f 612/2/1 613/2/1 615/2/1
f 615/2/1 613/2/1 614/2/1
f 616/2/1 617/2/1 619/2/1
f 619/2/1 617/2/1 618/2/1
f 620/5/1 621/5/1 623/5/1
f 623/5/1 621/5/1 622/5/1
f 624/5/1 625/5/1 627/5/1
f 627/5/1 625/5/1 626/5/1
f 628/2/1 629/2/1 631/2/1
f 631/2/1 629/2/1 630/2/1
f 632/2/1 633/2/1 635/2/1
f 635/2/1 633/2/1 634/2/1
f 636/2/1 637/2/1 638/2/1
f 638/2/1 637/2/1 403/2/1
f 639/1/1 640/1/1 642/1/1
f 642/1/1 640/1/1 641/1/1
f 643/5/1 644/5/1 646/5/1
f 646/5/1 644/5/1 645/5/1
f 647/5/1 648/5/1 650/5/1
f 650/5/1 648/5/1 649/5/1
f 651/5/1 652/5/1 654/5/1
f 654/5/1 652/5/1 653/5/1
f 655/5/1 656/5/1 658/5/1
f 658/5/1 656/5/1 657/5/1
f 659/5/1 660/5/1 662/5/1
f 662/5/1 660/5/1 661/5/1
f 663/5/1 664/5/1 666/5/1
f 666/5/1 664/5/1 665/5/1
f 667/5/1 668/5/1 670/5/1
f 670/5/1 668/5/1 669/5/1
f 671/5/1 672/5/1 674/5/1
f 674/5/1 672/5/1 673/5/1
f 675/2/1 676/2/1 678/2/1
f 678/2/1 676/2/1 677/2/1
f 679/2/1 680/2/1 682/2/1
f 682/2/1 680/2/1 681/2/1
f 683/2/1 684/2/1 686/2/1
f 686/2/1 684/2/1 685/2/1
f 687/2/1 688/2/1 690/2/1
f 690/2/1 688/2/1 689/2/1
f 691/1/1 692/1/1 694/1/1
f 694/1/1 692/1/1 693/1/1
f 695/1/1 696/1/1 698/1/1
f 698/1/1 696/1/1 697/1/1
f 699/1/1 700/1/1 702/1/1
f 702/1/1 700/1/1 701/1/1
f 703/1/1 704/1/1 706/1/1
f 706/1/1 704/1/1 705/1/1
f 707/1/1 708/1/1 709/1/1
f 709/1/1 708/1/1 648/1/1
f 710/1/1 711/1/1 651/1/1
f 651/1/1 711/1/1 712/1/1
f 713/5/1 714/5/1 716/5/1
f 716/5/1 714/5/1 715/5/1
f 717/1/1 718/1/1 720/1/1
f 720/1/1 718/1/1 719/1/1
f 721/1/1 722/1/1 724/1/1
f 724/1/1 722/1/1 723/1/1
f 725/1/1 726/1/1 728/1/1
f 728/1/1 726/1/1 727/1/1
f 729/1/1 730/1/1 652/1/1
f 652/1/1 730/1/1 731/1/1
f 732/1/1 733/1/1 659/1/1
f 659/1/1 733/1/1 660/1/1
f 734/5/1 735/5/1 737/5/1
f 737/5/1 735/5/1 736/5/1
f 735/5/1 738/5/1 739/5/1
f 739/5/1 738/5/1 359/5/1
f 740/1/1 741/1/1 743/1/1
f 743/1/1 741/1/1 742/1/1
f 744/1/1 745/1/1 747/1/1
f 747/1/1 745/1/1 746/1/1
f 748/1/1 749/1/1 751/1/1
f 751/1/1 749/1/1 750/1/1
f 752/1/1 753/1/1 755/1/1
f 755/1/1 753/1/1 754/1/1
f 756/1/1 757/1/1 759/1/1
f 759/1/1 757/1/1 758/1/1
f 760/2/1 761/2/1 762/2/1
f 762/2/1 761/2/1 25/2/1
f 763/2/1 764/2/1 766/2/1
f 766/2/1 764/2/1 765/2/1
f 767/2/1 768/2/1 684/2/1
f 684/2/1 768/2/1 769/2/1
f 770/5/1 771/5/1 773/5/1
f 773/5/1 771/5/1 772/5/1
f 771/5/1 774/5/1 775/5/1
f 775/5/1 774/5/1 300/5/1
f 776/5/1 777/5/1 779/5/1
f 779/5/1 777/5/1 778/5/1
f 777/5/1 780/5/1 782/5/1
f 782/5/1 780/5/1 781/5/1
f 780/5/1 783/5/1 785/5/1
f 785/5/1 783/5/1 784/5/1
f 786/5/1 787/5/1 788/5/1
f 788/5/1 787/5/1 336/5/1
f 787/5/1 789/5/1 791/5/1
f 791/5/1 789/5/1 790/5/1
f 792/2/1 793/2/1 795/2/1
f 795/2/1 793/2/1 794/2/1
f 796/2/1 797/2/1 798/2/1
f 798/2/1 797/2/1 687/2/1
f 799/2/1 800/2/1 802/2/1
f 802/2/1 800/2/1 801/2/1
f 803/2/1 804/2/1 806/2/1
f 806/2/1 804/2/1 805/2/1
f 807/2/1 808/2/1 810/2/1
f 810/2/1 808/2/1 809/2/1
f 811/2/1 812/2/1 271/2/1
f 271/2/1 812/2/1 275/2/1
f 812/2/1 813/2/1 815/2/1
f 815/2/1 813/2/1 814/2/1
f 816/2/1 817/2/1 819/2/1
f 819/2/1 817/2/1 818/2/1
f 817/2/1 820/2/1 822/2/1
f 822/2/1 820/2/1 821/2/1
f 823/2/1 824/2/1 826/2/1
f 826/2/1 824/2/1 825/2/1
f 827/2/1 828/2/1 830/2/1
f 830/2/1 828/2/1 829/2/1
f 831/2/1 832/2/1 833/2/1
f 833/2/1 832/2/1 287/2/1
f 834/2/1 835/2/1 837/2/1
f 837/2/1 835/2/1 836/2/1
f 838/2/1 839/2/1 841/2/1
f 841/2/1 839/2/1 840/2/1
f 842/2/1 843/2/1 845/2/1
f 845/2/1 843/2/1 844/2/1
f 843/2/1 846/2/1 848/2/1
f 848/2/1 846/2/1 847/2/1
f 846/2/1 849/2/1 851/2/1
f 851/2/1 849/2/1 850/2/1
f 852/2/1 853/2/1 145/2/1
f 145/2/1 853/2/1 854/2/1
f 853/2/1 855/2/1 857/2/1
f 857/2/1 855/2/1 856/2/1
f 855/2/1 858/2/1 860/2/1
f 860/2/1 858/2/1 859/2/1
f 858/2/1 861/2/1 863/2/1
f 863/2/1 861/2/1 862/2/1
f 861/2/1 864/2/1 866/2/1
f 866/2/1 864/2/1 865/2/1
f 864/2/1 867/2/1 869/2/1
f 869/2/1 867/2/1 868/2/1
f 867/2/1 870/2/1 872/2/1
f 872/2/1 870/2/1 871/2/1
f 870/2/1 873/2/1 875/2/1
f 875/2/1 873/2/1 874/2/1
f 873/2/1 876/2/1 878/2/1
f 878/2/1 876/2/1 877/2/1
f 876/2/1 879/2/1 881/2/1
f 881/2/1 879/2/1 880/2/1
f 879/2/1 882/2/1 884/2/1
f 884/2/1 882/2/1 883/2/1
f 882/2/1 885/2/1 887/2/1
f 887/2/1 885/2/1 886/2/1
f 888/2/1 889/2/1 891/2/1
f 891/2/1 889/2/1 890/2/1
f 892/2/1 893/2/1 894/2/1
f 894/2/1 893/2/1 796/2/1
f 893/2/1 895/2/1 897/2/1
f 897/2/1 895/2/1 896/2/1
f 895/2/1 898/2/1 900/2/1
f 900/2/1 898/2/1 899/2/1
f 898/2/1 901/2/1 903/2/1
f 903/2/1 901/2/1 902/2/1
f 904/2/1 905/2/1 907/2/1
f 907/2/1 905/2/1 906/2/1
f 908/2/1 909/2/1 911/2/1
f 911/2/1 909/2/1 910/2/1
f 909/2/1 912/2/1 914/2/1
f 914/2/1 912/2/1 913/2/1
f 915/2/1 916/2/1 918/2/1
f 918/2/1 916/2/1 917/2/1
f 919/2/1 920/2/1 921/2/1
f 921/2/1 920/2/1 891/2/1
f 922/2/1 923/2/1 925/2/1
f 925/2/1 923/2/1 924/2/1
f 926/2/1 927/2/1 928/2/1
f 928/2/1 927/2/1 27/2/1
f 929/2/1 930/2/1 931/2/1
f 931/2/1 930/2/1 795/2/1
f 930/2/1 932/2/1 934/2/1
f 934/2/1 932/2/1 933/2/1
f 935/2/1 936/2/1 938/2/1
f 938/2/1 936/2/1 937/2/1
f 936/2/1 939/2/1 941/2/1
f 941/2/1 939/2/1 940/2/1
f 939/2/1 942/2/1 944/2/1
f 944/2/1 942/2/1 943/2/1
f 945/2/1 946/2/1 947/2/1
f 947/2/1 946/2/1 908/2/1
f 948/2/1 949/2/1 950/2/1
f 950/2/1 949/2/1 915/2/1
f 951/2/1 952/2/1 954/2/1
f 954/2/1 952/2/1 953/2/1
f 952/2/1 955/2/1 957/2/1
f 957/2/1 955/2/1 956/2/1
f 958/2/1 959/2/1 961/2/1
f 961/2/1 959/2/1 960/2/1
f 959/2/1 962/2/1 964/2/1
f 964/2/1 962/2/1 963/2/1
f 962/2/1 965/2/1 967/2/1
f 967/2/1 965/2/1 966/2/1
f 968/2/1 969/2/1 971/2/1
f 971/2/1 969/2/1 970/2/1
f 969/2/1 972/2/1 974/2/1
f 974/2/1 972/2/1 973/2/1
f 972/2/1 975/2/1 977/2/1
f 977/2/1 975/2/1 976/2/1
f 975/2/1 978/2/1 979/2/1
f 979/2/1 978/2/1 950/2/1
f 980/2/1 981/2/1 983/2/1
f 983/2/1 981/2/1 982/2/1
f 984/2/1 985/2/1 987/2/1
f 987/2/1 985/2/1 986/2/1
f 985/2/1 988/2/1 990/2/1
f 990/2/1 988/2/1 989/2/1
f 988/2/1 991/2/1 993/2/1
f 993/2/1 991/2/1 992/2/1
f 991/2/1 994/2/1 996/2/1
f 996/2/1 994/2/1 995/2/1
f 994/2/1 997/2/1 999/2/1
f 999/2/1 997/2/1 998/2/1
f 997/2/1 1000/2/1 1001/2/1
f 1001/2/1 1000/2/1 980/2/1
f 1002/3/2 1003/3/2 1005/3/2
f 1005/3/2 1003/3/2 1004/3/2
f 1006/3/2 1007/3/2 1008/3/2
f 1008/3/2 1007/3/2 1005/3/2
f 1009/3/2 1010/3/2 1011/3/2
f 1011/3/2 1010/3/2 1008/3/2
f 1012/2/2 1013/2/2 1015/2/2
f 1015/2/2 1013/2/2 1014/2/2
f 1016/2/2 1017/2/2 1018/2/2
f 1018/2/2 1017/2/2 1012/2/2
f 1019/3/2 1020/3/2 1022/3/2
f 1022/3/2 1020/3/2 1021/3/2
f 1023/2/2 1024/2/2 1025/2/2
f 1025/2/2 1024/2/2 1019/2/2
f 123/2/2 1026/2/2 122/2/2
f 122/2/2 1026/2/2 1027/2/2
f 1028/5/2 1029/5/2 1031/5/2
f 1031/5/2 1029/5/2 1030/5/2
f 1032/5/2 1033/5/2 1035/5/2
f 1035/5/2 1033/5/2 1034/5/2
f 1036/5/2 1037/5/2 1039/5/2
f 1039/5/2 1037/5/2 1038/5/2
f 1040/1/2 1041/1/2 1043/1/2
f 1043/1/2 1041/1/2 1042/1/2
f 1044/1/2 1045/1/2 1047/1/2
f 1047/1/2 1045/1/2 1046/1/2
f 1048/5/2 1031/5/2 1050/5/2
f 1050/5/2 1031/5/2 1049/5/2
f 1051/1/2 1052/1/2 1054/1/2
f 1054/1/2 1052/1/2 1053/1/2
f 1055/5/2 1056/5/2 1057/5/2
f 1057/5/2 1056/5/2 1033/5/2
f 1058/1/2 1059/1/2 1061/1/2
f 1061/1/2 1059/1/2 1060/1/2
f 1062/1/2 1063/1/2 1065/1/2
f 1065/1/2 1063/1/2 1064/1/2
f 1066/1/2 1067/1/2 1069/1/2
f 1069/1/2 1067/1/2 1068/1/2
f 239/1/2 240/1/2 320/1/2
f 320/1/2 240/1/2 1070/1/2
f 1071/5/2 1072/5/2 1073/5/2
f 1073/5/2 1072/5/2 1035/5/2
f 1074/1/2 1075/1/2 1077/1/2
f 1077/1/2 1075/1/2 1076/1/2
f 316/1/2 1078/1/2 1080/1/2
f 1080/1/2 1078/1/2 1079/1/2
f 1081/1/2 1082/1/2 324/1/2
f 324/1/2 1082/1/2 1083/1/2
f 1084/5/2 1085/5/2 1086/5/2
f 1086/5/2 1085/5/2 1036/5/2
f 1087/1/2 1088/1/2 1090/1/2
f 1090/1/2 1088/1/2 1089/1/2
f 1091/1/2 1092/1/2 1094/1/2
f 1094/1/2 1092/1/2 1093/1/2
f 1095/5/2 1096/5/2 1097/5/2
f 1097/5/2 1096/5/2 1029/5/2
f 1098/1/2 1099/1/2 1100/1/2
f 1100/1/2 1099/1/2 1040/1/2
f 1101/1/2 1102/1/2 1103/1/2
f 1103/1/2 1102/1/2 1045/1/2
f 1104/5/2 1047/5/2 1106/5/2
f 1106/5/2 1047/5/2 1105/5/2
f 1107/5/2 1108/5/2 1110/5/2
f 1110/5/2 1108/5/2 1109/5/2
f 1111/5/2 1112/5/2 1114/5/2
f 1114/5/2 1112/5/2 1113/5/2
f 1115/5/2 1116/5/2 1118/5/2
f 1118/5/2 1116/5/2 1117/5/2
f 1119/5/2 243/5/2 1121/5/2
f 1121/5/2 243/5/2 1120/5/2
f 1122/5/2 1123/5/2 1124/5/2
f 1124/5/2 1123/5/2 1081/5/2
f 1125/5/2 1126/5/2 1128/5/2
f 1128/5/2 1126/5/2 1127/5/2
f 1129/5/2 1130/5/2 1132/5/2
f 1132/5/2 1130/5/2 1131/5/2
f 1133/1/2 1134/1/2 1136/1/2
f 1136/1/2 1134/1/2 1135/1/2
f 1137/1/2 1094/1/2 1139/1/2
f 1139/1/2 1094/1/2 1138/1/2
f 1140/5/2 1141/5/2 1142/5/2
f 1142/5/2 1141/5/2 1039/5/2
f 1143/5/2 1097/5/2 1145/5/2
f 1145/5/2 1097/5/2 1144/5/2
f 1146/5/2 1147/5/2 1149/5/2
f 1149/5/2 1147/5/2 1148/5/2
f 391/2/2 1150/2/2 390/2/2
f 390/2/2 1150/2/2 1151/2/2
f 1152/5/2 1153/5/2 1154/5/2
f 1154/5/2 1153/5/2 1140/5/2
f 1155/1/2 1156/1/2 1158/1/2
f 1158/1/2 1156/1/2 1157/1/2
f 1159/1/2 1160/1/2 1162/1/2
f 1162/1/2 1160/1/2 1161/1/2
f 1163/1/2 1164/1/2 1165/1/2
f 1165/1/2 1164/1/2 1146/1/2
f 1166/5/2 1167/5/2 1169/5/2
f 1169/5/2 1167/5/2 1168/5/2
f 1170/5/2 1171/5/2 1172/5/2
f 1172/5/2 1171/5/2 1125/5/2
f 1173/5/2 1174/5/2 1176/5/2
f 1176/5/2 1174/5/2 1175/5/2
f 1176/1/2 1177/1/2 1179/1/2
f 1179/1/2 1177/1/2 1178/1/2
f 1180/5/2 1181/5/2 1183/5/2
f 1183/5/2 1181/5/2 1182/5/2
f 1184/5/2 1158/5/2 1186/5/2
f 1186/5/2 1158/5/2 1185/5/2
f 1187/5/2 373/5/2 1189/5/2
f 1189/5/2 373/5/2 1188/5/2
f 1190/5/2 1191/5/2 1193/5/2
f 1193/5/2 1191/5/2 1192/5/2
f 1194/5/2 1195/5/2 1197/5/2
f 1197/5/2 1195/5/2 1196/5/2
f 1198/2/2 1199/2/2 1201/2/2
f 1201/2/2 1199/2/2 1200/2/2
f 1202/2/2 1203/2/2 1205/2/2
f 1205/2/2 1203/2/2 1204/2/2
f 1206/5/2 1207/5/2 1209/5/2
f 1209/5/2 1207/5/2 1208/5/2
f 1210/2/2 1211/2/2 1213/2/2
f 1213/2/2 1211/2/2 1212/2/2
f 1209/5/2 1077/5/2 1215/5/2
f 1215/5/2 1077/5/2 1214/5/2
f 1216/5/2 1217/5/2 1219/5/2
f 1219/5/2 1217/5/2 1218/5/2
f 1220/5/2 1221/5/2 1223/5/2
f 1223/5/2 1221/5/2 1222/5/2
f 1224/1/2 1225/1/2 1226/1/2
f 1226/1/2 1225/1/2 412/1/2
f 1227/1/2 1228/1/2 1229/1/2
f 1229/1/2 1228/1/2 1190/1/2
f 501/2/2 1230/2/2 1232/2/2
f 1232/2/2 1230/2/2 1231/2/2
f 1233/2/2 1234/2/2 1236/2/2
f 1236/2/2 1234/2/2 1235/2/2
f 1237/2/2 1238/2/2 492/2/2
f 492/2/2 1238/2/2 495/2/2
f 1239/2/2 1240/2/2 499/2/2
f 499/2/2 1240/2/2 502/2/2
f 489/3/2 490/3/2 1242/3/2
f 1242/3/2 490/3/2 1241/3/2
f 1243/2/2 1244/2/2 1246/2/2
f 1246/2/2 1244/2/2 1245/2/2
f 1247/2/2 1248/2/2 1250/2/2
f 1250/2/2 1248/2/2 1249/2/2
f 1251/1/2 1252/1/2 1254/1/2
f 1254/1/2 1252/1/2 1253/1/2
f 1255/1/2 1256/1/2 1258/1/2
f 1258/1/2 1256/1/2 1257/1/2
f 1259/5/2 1260/5/2 1261/5/2
f 1261/5/2 1260/5/2 1181/5/2
f 1261/5/2 1262/5/2 1264/5/2
f 1264/5/2 1262/5/2 1263/5/2
f 1265/5/2 1266/5/2 1268/5/2
f 1268/5/2 1266/5/2 1267/5/2
f 1269/5/2 1270/5/2 1272/5/2
f 1272/5/2 1270/5/2 1271/5/2
f 1273/2/2 1274/2/2 1275/2/2
f 1275/2/2 1274/2/2 1198/2/2
f 1276/2/2 500/2/2 1278/2/2
f 1278/2/2 500/2/2 1277/2/2
f 1279/2/2 1280/2/2 1282/2/2
f 1282/2/2 1280/2/2 1281/2/2
f 1282/2/2 1283/2/2 1285/2/2
f 1285/2/2 1283/2/2 1284/2/2
f 1285/2/2 1286/2/2 1288/2/2
f 1288/2/2 1286/2/2 1287/2/2
f 1289/2/2 1290/2/2 1292/2/2
f 1292/2/2 1290/2/2 1291/2/2
f 1293/2/2 1213/2/2 1295/2/2
f 1295/2/2 1213/2/2 1294/2/2
f 1296/5/2 1297/5/2 1299/5/2
f 1299/5/2 1297/5/2 1298/5/2
f 1299/5/2 1300/5/2 1301/5/2
f 1301/5/2 1300/5/2 1223/5/2
f 1302/1/2 1303/1/2 1304/1/2
f 1304/1/2 1303/1/2 538/1/2
f 1305/1/2 1306/1/2 1308/1/2
f 1308/1/2 1306/1/2 1307/1/2
f 1309/1/2 1310/1/2 1312/1/2
f 1312/1/2 1310/1/2 1311/1/2
f 1313/1/2 1314/1/2 1316/1/2
f 1316/1/2 1314/1/2 1315/1/2
f 1308/5/2 1307/5/2 1318/5/2
f 1318/5/2 1307/5/2 1317/5/2
f 1319/2/2 1275/2/2 1321/2/2
f 1321/2/2 1275/2/2 1320/2/2
f 1322/2/2 1278/2/2 1323/2/2
f 1323/2/2 1278/2/2 1289/2/2
f 1324/2/2 1325/2/2 1326/2/2
f 1326/2/2 1325/2/2 1293/2/2
f 1327/1/2 1328/1/2 1330/1/2
f 1330/1/2 1328/1/2 1329/1/2
f 1331/5/2 1332/5/2 1334/5/2
f 1334/5/2 1332/5/2 1333/5/2
f 1335/5/2 576/5/2 1337/5/2
f 1337/5/2 576/5/2 1336/5/2
f 1338/5/2 1339/5/2 1341/5/2
f 1341/5/2 1339/5/2 1340/5/2
f 1342/5/2 1343/5/2 1345/5/2
f 1345/5/2 1343/5/2 1344/5/2
f 1346/1/2 1347/1/2 702/1/2
f 702/1/2 1347/1/2 1348/1/2
f 1349/5/2 621/5/2 1351/5/2
f 1351/5/2 621/5/2 1350/5/2
f 1352/5/2 1353/5/2 1355/5/2
f 1355/5/2 1353/5/2 1354/5/2
f 644/5/2 645/5/2 724/5/2
f 724/5/2 645/5/2 1356/5/2
f 1357/5/2 1358/5/2 1360/5/2
f 1360/5/2 1358/5/2 1359/5/2
f 1361/5/2 1362/5/2 1364/5/2
f 1364/5/2 1362/5/2 1363/5/2
f 660/5/2 661/5/2 1366/5/2
f 1366/5/2 661/5/2 1365/5/2
f 1367/5/2 1368/5/2 1370/5/2
f 1370/5/2 1368/5/2 1369/5/2
f 1371/5/2 1372/5/2 1374/5/2
f 1374/5/2 1372/5/2 1373/5/2
f 1375/1/2 1376/1/2 1378/1/2
f 1378/1/2 1376/1/2 1377/1/2
f 1379/1/2 1380/1/2 1381/1/2
f 1381/1/2 1380/1/2 647/1/2
f 1382/1/2 1383/1/2 1385/1/2
f 1385/1/2 1383/1/2 1384/1/2
f 1386/1/2 1387/1/2 1389/1/2
f 1389/1/2 1387/1/2 1388/1/2
f 1390/5/2 1391/5/2 1393/5/2
f 1393/5/2 1391/5/2 1392/5/2
f 1394/1/2 1395/1/2 1396/1/2
f 1396/1/2 1395/1/2 1355/1/2
f 1397/1/2 644/1/2 1399/1/2
f 1399/1/2 644/1/2 1398/1/2
f 1400/1/2 1401/1/2 1403/1/2
f 1403/1/2 1401/1/2 1402/1/2
f 1404/1/2 656/1/2 1405/1/2
f 1405/1/2 656/1/2 1361/1/2
f 1406/1/2 1407/1/2 1409/1/2
f 1409/1/2 1407/1/2 1408/1/2
f 1410/1/2 1411/1/2 1413/1/2
f 1413/1/2 1411/1/2 1412/1/2
f 1414/5/2 1415/5/2 1417/5/2
f 1417/5/2 1415/5/2 1416/5/2
f 1418/1/2 1419/1/2 752/1/2
f 752/1/2 1419/1/2 755/1/2
f 1420/1/2 1421/1/2 756/1/2
f 756/1/2 1421/1/2 759/1/2
f 741/1/2 1422/1/2 1424/1/2
f 1424/1/2 1422/1/2 1423/1/2
f 1425/1/2 1426/1/2 1428/1/2
f 1428/1/2 1426/1/2 1427/1/2
f 1429/1/2 1430/1/2 1432/1/2
f 1432/1/2 1430/1/2 1431/1/2
f 1433/5/2 1434/5/2 1435/5/2
f 1435/5/2 1434/5/2 1331/5/2
f 1435/5/2 1436/5/2 1437/5/2
f 1437/5/2 1436/5/2 1390/5/2
f 1438/2/2 1439/2/2 1441/2/2
f 1441/2/2 1439/2/2 1440/2/2
f 1442/5/2 1443/5/2 1445/5/2
f 1445/5/2 1443/5/2 1444/5/2
f 1445/5/2 1446/5/2 1448/5/2
f 1448/5/2 1446/5/2 1447/5/2
f 1448/5/2 1449/5/2 1451/5/2
f 1451/5/2 1449/5/2 1450/5/2
f 1452/5/2 1417/5/2 1454/5/2
f 1454/5/2 1417/5/2 1453/5/2
f 1454/5/2 1345/5/2 1456/5/2
f 1456/5/2 1345/5/2 1455/5/2
f 1457/2/2 1458/2/2 1460/2/2
f 1460/2/2 1458/2/2 1459/2/2
f 1461/2/2 1462/2/2 1463/2/2
f 1463/2/2 1462/2/2 1458/2/2
f 1464/2/2 1465/2/2 1467/2/2
f 1467/2/2 1465/2/2 1466/2/2
f 1467/2/2 1468/2/2 1469/2/2
f 1469/2/2 1468/2/2 1441/2/2
f 1469/2/2 1470/2/2 1472/2/2
f 1472/2/2 1470/2/2 1471/2/2
f 1472/2/2 1473/2/2 1474/2/2
f 1474/2/2 1473/2/2 1462/2/2
f 11/2/3 16/2/3 1012/2/3
f 1012/2/3 16/2/3 1018/2/3
f 20/3/3 19/3/3 1021/3/3
f 1021/3/3 19/3/3 1022/3/3
f 24/2/3 23/2/3 1440/2/3
f 1440/2/3 23/2/3 1470/2/3
f 18/2/3 31/2/3 1019/2/3
f 1019/2/3 31/2/3 1025/2/3
f 28/2/3 927/2/3 1459/2/3
f 1459/2/3 927/2/3 1460/2/3
f 982/2/3 981/2/3 1475/2/3
f 1475/2/3 981/2/3 1463/2/3
f 980/2/3 1000/2/3 1461/2/3
f 1461/2/3 1000/2/3 1474/2/3
f 35/2/3 34/2/3 40/2/3
f 40/2/3 34/2/3 37/2/3
f 43/2/3 42/2/3 48/2/3
f 48/2/3 42/2/3 45/2/3
f 59/2/3 93/2/3 71/2/3
f 71/2/3 93/2/3 69/2/3
f 92/2/3 91/2/3 97/2/3
f 97/2/3 91/2/3 94/2/3
f 51/2/3 449/2/3 928/2/3
f 928/2/3 449/2/3 486/2/3
f 1476/2/3 1477/2/3 766/2/3
f 766/2/3 1477/2/3 763/2/3
f 829/2/3 828/2/3 485/2/3
f 485/2/3 828/2/3 890/2/3
f 917/2/3 916/2/3 921/2/3
f 921/2/3 916/2/3 919/2/3
f 924/2/3 923/2/3 889/2/3
f 889/2/3 923/2/3 926/2/3
f 915/2/3 949/2/3 1457/2/3
f 1457/2/3 949/2/3 1475/2/3
f 956/2/3 955/2/3 993/2/3
f 993/2/3 955/2/3 989/2/3
f 966/2/3 965/2/3 999/2/3
f 999/2/3 965/2/3 995/2/3
f 948/2/3 978/2/3 983/2/3
f 983/2/3 978/2/3 980/2/3
f 55/2/3 54/2/3 60/2/3
f 60/2/3 54/2/3 57/2/3
f 89/2/3 88/2/3 58/2/3
f 58/2/3 88/2/3 90/2/3
f 63/2/3 280/2/3 450/2/3
f 450/2/3 280/2/3 344/2/3
f 825/2/3 1478/2/3 343/2/3
f 343/2/3 1478/2/3 448/2/3
f 1478/2/3 1479/2/3 487/2/3
f 487/2/3 1479/2/3 484/2/3
f 1480/2/3 676/2/3 682/2/3
f 682/2/3 676/2/3 679/2/3
f 1479/2/3 824/2/3 830/2/3
f 830/2/3 824/2/3 827/2/3
f 913/2/3 912/2/3 918/2/3
f 918/2/3 912/2/3 915/2/3
f 933/2/3 932/2/3 964/2/3
f 964/2/3 932/2/3 960/2/3
f 943/2/3 942/2/3 974/2/3
f 974/2/3 942/2/3 970/2/3
f 908/2/3 946/2/3 979/2/3
f 979/2/3 946/2/3 976/2/3
f 67/2/3 1481/2/3 54/2/3
f 54/2/3 1481/2/3 87/2/3
f 114/2/3 113/2/3 119/2/3
f 119/2/3 113/2/3 116/2/3
f 78/2/3 1482/2/3 281/2/3
f 281/2/3 1482/2/3 279/2/3
f 1482/2/3 1483/2/3 345/2/3
f 345/2/3 1483/2/3 342/2/3
f 1483/2/3 528/2/3 826/2/3
f 826/2/3 528/2/3 565/2/3
f 687/2/3 1484/2/3 684/2/3
f 684/2/3 1484/2/3 767/2/3
f 821/2/3 820/2/3 564/2/3
f 564/2/3 820/2/3 823/2/3
f 836/2/3 835/2/3 841/2/3
f 841/2/3 835/2/3 838/2/3
f 902/2/3 901/2/3 941/2/3
f 941/2/3 901/2/3 937/2/3
f 906/2/3 905/2/3 1485/2/3
f 1485/2/3 905/2/3 908/2/3
f 146/2/3 135/2/3 86/2/3
f 86/2/3 135/2/3 83/2/3
f 174/2/3 178/2/3 66/2/3
f 66/2/3 178/2/3 1481/2/3
f 100/2/3 99/2/3 1027/2/3
f 1027/2/3 99/2/3 122/2/3
f 177/2/3 309/2/3 115/2/3
f 115/2/3 309/2/3 112/2/3
f 126/2/3 400/2/3 529/2/3
f 529/2/3 400/2/3 446/2/3
f 399/2/3 806/2/3 447/2/3
f 447/2/3 806/2/3 444/2/3
f 805/2/3 1486/2/3 445/2/3
f 445/2/3 1486/2/3 527/2/3
f 1486/2/3 1487/2/3 566/2/3
f 566/2/3 1487/2/3 563/2/3
f 1487/2/3 804/2/3 822/2/3
f 822/2/3 804/2/3 818/2/3
f 799/2/3 866/2/3 810/2/3
f 810/2/3 866/2/3 807/2/3
f 803/2/3 813/2/3 819/2/3
f 819/2/3 813/2/3 816/2/3
f 811/2/3 887/2/3 837/2/3
f 837/2/3 887/2/3 834/2/3
f 831/2/3 849/2/3 900/2/3
f 900/2/3 849/2/3 896/2/3
f 886/2/3 885/2/3 911/2/3
f 911/2/3 885/2/3 1485/2/3
f 138/1/3 137/1/3 163/1/3
f 163/1/3 137/1/3 193/1/3
f 142/1/3 141/1/3 168/1/3
f 168/1/3 141/1/3 165/1/3
f 150/1/3 149/1/3 133/1/3
f 133/1/3 149/1/3 854/1/3
f 154/1/3 153/1/3 159/1/3
f 159/1/3 153/1/3 156/1/3
f 148/1/3 170/1/3 145/1/3
f 145/1/3 170/1/3 288/1/3
f 190/5/3 189/5/3 157/5/3
f 157/5/3 189/5/3 191/5/3
f 205/1/3 204/1/3 401/1/3
f 401/1/3 204/1/3 277/1/3
f 195/5/3 338/5/3 192/5/3
f 192/5/3 338/5/3 270/5/3
f 203/1/3 274/1/3 278/1/3
f 278/1/3 274/1/3 275/1/3
f 1112/5/3 1111/5/3 1488/5/3
f 1488/5/3 1111/5/3 307/5/3
f 273/5/3 337/5/3 271/5/3
f 271/5/3 337/5/3 1489/5/3
f 341/1/3 340/1/3 276/1/3
f 276/1/3 340/1/3 814/1/3
f 348/1/3 347/1/3 833/1/3
f 833/1/3 347/1/3 850/1/3
f 337/1/3 367/1/3 1489/1/3
f 1489/1/3 367/1/3 883/1/3
f 697/1/3 696/1/3 860/1/3
f 860/1/3 696/1/3 856/1/3
f 201/1/3 200/1/3 206/1/3
f 206/1/3 200/1/3 203/1/3
f 393/5/3 439/5/3 262/5/3
f 262/5/3 439/5/3 325/5/3
f 438/5/3 398/5/3 365/5/3
f 365/5/3 398/5/3 362/5/3
f 397/1/3 396/1/3 884/1/3
f 884/1/3 396/1/3 442/1/3
f 395/5/3 437/5/3 443/5/3
f 443/5/3 437/5/3 440/5/3
f 603/1/3 602/1/3 556/1/3
f 556/1/3 602/1/3 630/1/3
f 1380/1/3 1379/1/3 698/1/3
f 698/1/3 1379/1/3 695/1/3
f 648/1/3 708/1/3 802/1/3
f 802/1/3 708/1/3 862/1/3
f 251/1/3 250/1/3 264/1/3
f 264/1/3 250/1/3 261/1/3
f 424/5/3 423/5/3 436/5/3
f 436/5/3 423/5/3 434/5/3
f 1353/5/3 1352/5/3 650/5/3
f 650/5/3 1352/5/3 647/5/3
f 217/1/3 216/1/3 225/1/3
f 225/1/3 216/1/3 223/1/3
f 228/1/3 227/1/3 176/1/3
f 176/1/3 227/1/3 1488/1/3
f 1126/5/3 1125/5/3 394/5/3
f 394/5/3 1125/5/3 386/5/3
f 1171/5/3 1170/5/3 387/5/3
f 387/5/3 1170/5/3 384/5/3
f 1328/5/3 1327/5/3 604/5/3
f 604/5/3 1327/5/3 601/5/3
f 1372/5/3 1371/5/3 674/5/3
f 674/5/3 1371/5/3 671/5/3
f 701/1/3 700/1/3 647/1/3
f 647/1/3 700/1/3 1381/1/3
f 1041/1/3 1040/1/3 218/1/3
f 218/1/3 1040/1/3 215/1/3
f 1077/5/3 1208/5/3 1127/5/3
f 1127/5/3 1208/5/3 1128/5/3
f 1207/5/3 1490/5/3 1125/5/3
f 1125/5/3 1490/5/3 1172/5/3
f 1490/5/3 1206/5/3 425/5/3
f 425/5/3 1206/5/3 422/5/3
f 1383/1/3 1382/1/3 702/1/3
f 702/1/3 1382/1/3 699/1/3
f 712/1/3 711/1/3 1355/1/3
f 1355/1/3 711/1/3 1396/1/3
f 731/1/3 730/1/3 872/1/3
f 872/1/3 730/1/3 868/1/3
f 750/1/3 749/1/3 629/1/3
f 629/1/3 749/1/3 880/1/3
f 1422/5/3 742/5/3 751/5/3
f 751/5/3 742/5/3 1491/5/3
f 742/1/3 741/1/3 1491/1/3
f 1491/1/3 741/1/3 748/1/3
f 1134/1/3 1175/1/3 1089/1/3
f 1089/1/3 1175/1/3 1090/1/3
f 1174/5/3 1173/5/3 1214/5/3
f 1214/5/3 1173/5/3 1492/5/3
f 645/5/3 644/5/3 654/5/3
f 654/5/3 644/5/3 651/5/3
f 1116/5/3 1115/5/3 313/5/3
f 313/5/3 1115/5/3 310/5/3
f 521/1/3 520/1/3 1493/1/3
f 1493/1/3 520/1/3 557/1/3
f 621/5/3 1349/5/3 646/5/3
f 646/5/3 1349/5/3 643/5/3
f 661/5/3 660/5/3 666/5/3
f 666/5/3 660/5/3 663/5/3
f 660/1/3 733/1/3 1408/1/3
f 1408/1/3 733/1/3 1409/1/3
f 754/1/3 753/1/3 1494/1/3
f 1494/1/3 753/1/3 1424/1/3
f 221/1/3 220/1/3 1042/1/3
f 1042/1/3 220/1/3 1043/1/3
f 255/1/3 254/1/3 1076/1/3
f 1076/1/3 254/1/3 1077/1/3
f 219/1/3 294/1/3 212/1/3
f 212/1/3 294/1/3 296/1/3
f 1252/5/3 1251/5/3 522/5/3
f 522/5/3 1251/5/3 519/5/3
f 1362/5/3 1361/5/3 662/5/3
f 662/5/3 1361/5/3 659/5/3
f 705/1/3 704/1/3 1384/1/3
f 1384/1/3 704/1/3 1385/1/3
f 1426/1/3 1425/1/3 755/1/3
f 755/1/3 1425/1/3 752/1/3
f 727/1/3 726/1/3 1361/1/3
f 1361/1/3 726/1/3 1405/1/3
f 244/1/3 243/1/3 180/1/3
f 180/1/3 243/1/3 246/1/3
f 243/5/3 1119/5/3 317/5/3
f 317/5/3 1119/5/3 314/5/3
f 331/1/3 330/1/3 1495/1/3
f 1495/1/3 330/1/3 1136/1/3
f 626/5/3 625/5/3 631/5/3
f 631/5/3 625/5/3 628/5/3
f 1387/1/3 1386/1/3 706/1/3
f 706/1/3 1386/1/3 703/1/3
f 240/1/3 239/1/3 245/1/3
f 245/1/3 239/1/3 242/1/3
f 259/1/3 258/1/3 1079/1/3
f 1079/1/3 258/1/3 1080/1/3
f 1094/5/3 1137/5/3 266/5/3
f 266/5/3 1137/5/3 329/5/3
f 1149/5/3 1194/5/3 1192/5/3
f 1192/5/3 1194/5/3 1193/5/3
f 525/1/3 524/1/3 1253/1/3
f 1253/1/3 524/1/3 1254/1/3
f 1339/5/3 1338/5/3 627/5/3
f 627/5/3 1338/5/3 624/5/3
f 1358/5/3 1357/5/3 658/5/3
f 658/5/3 1357/5/3 655/5/3
f 758/1/3 757/1/3 1427/1/3
f 1427/1/3 757/1/3 1428/1/3
f 1047/5/3 1104/5/3 1148/5/3
f 1148/5/3 1104/5/3 1195/5/3
f 1123/5/3 1122/5/3 320/5/3
f 320/5/3 1122/5/3 318/5/3
f 1256/5/3 1255/5/3 526/5/3
f 526/5/3 1255/5/3 523/5/3
f 1368/5/3 1367/5/3 670/5/3
f 670/5/3 1367/5/3 667/5/3
f 1130/5/3 1129/5/3 324/5/3
f 324/5/3 1129/5/3 321/5/3
f 1430/1/3 1429/1/3 759/1/3
f 759/1/3 1429/1/3 756/1/3
f 1031/1/3 1048/1/3 1046/1/3
f 1046/1/3 1048/1/3 1047/1/3
f 1496/1/3 1055/1/3 1053/1/3
f 1053/1/3 1055/1/3 1054/1/3
f 1072/1/3 1071/1/3 1070/1/3
f 1070/1/3 1071/1/3 320/1/3
f 1085/1/3 1084/1/3 1083/1/3
f 1083/1/3 1084/1/3 324/1/3
f 1141/1/3 1497/1/3 1135/1/3
f 1135/1/3 1497/1/3 1495/1/3
f 1497/1/3 1140/1/3 1138/1/3
f 1138/1/3 1140/1/3 1139/1/3
f 1153/5/3 1152/5/3 1133/5/3
f 1133/5/3 1152/5/3 1177/5/3
f 1154/1/3 1498/1/3 1178/1/3
f 1178/1/3 1498/1/3 1179/1/3
f 1221/5/3 1220/5/3 1218/5/3
f 1218/5/3 1220/5/3 1219/5/3
f 1300/1/3 1499/1/3 441/1/3
f 441/1/3 1499/1/3 1493/1/3
f 1499/1/3 1298/1/3 1257/1/3
f 1257/1/3 1298/1/3 1258/1/3
f 1297/5/3 1296/5/3 558/5/3
f 558/5/3 1296/5/3 555/5/3
f 1299/1/3 1344/1/3 1329/1/3
f 1329/1/3 1344/1/3 1330/1/3
f 1343/5/3 1342/5/3 1340/5/3
f 1340/5/3 1342/5/3 1341/5/3
f 1345/1/3 1500/1/3 1423/1/3
f 1423/1/3 1500/1/3 1494/1/3
f 1391/1/3 1390/1/3 1388/1/3
f 1388/1/3 1390/1/3 1389/1/3
f 1443/1/3 1501/1/3 1398/1/3
f 1398/1/3 1501/1/3 1399/1/3
f 1449/1/3 1447/1/3 1412/1/3
f 1412/1/3 1447/1/3 1413/1/3
f 1415/1/3 1414/1/3 878/1/3
f 878/1/3 1414/1/3 874/1/3
f 1500/1/3 1453/1/3 1431/1/3
f 1431/1/3 1453/1/3 1432/1/3
f 301/5/3 716/5/3 1030/5/3
f 1030/5/3 716/5/3 1031/5/3
f 471/5/3 361/5/3 1034/5/3
f 1034/5/3 361/5/3 1035/5/3
f 335/5/3 334/5/3 1038/5/3
f 1038/5/3 334/5/3 1142/5/3
f 333/5/3 562/5/3 1140/5/3
f 1140/5/3 562/5/3 1498/5/3
f 561/5/3 560/5/3 1222/5/3
f 1222/5/3 560/5/3 1301/5/3
f 559/5/3 791/5/3 1299/5/3
f 1299/5/3 791/5/3 1345/5/3
f 713/5/3 774/5/3 1390/5/3
f 1390/5/3 774/5/3 1437/5/3
f 734/5/3 783/5/3 1502/5/3
f 1502/5/3 783/5/3 1451/5/3
f 790/5/3 789/5/3 1455/5/3
f 1455/5/3 789/5/3 1456/5/3
f 1503/2/3 1504/2/3 782/2/3
f 782/2/3 1504/2/3 778/2/3
f 1505/2/3 1506/2/3 470/2/3
f 470/2/3 1506/2/3 784/2/3
f 390/2/3 389/2/3 739/2/3
f 739/2/3 389/2/3 736/2/3
f 1283/3/3 1281/3/3 1503/3/3
f 1503/3/3 1281/3/3 1504/3/3
f 1236/3/3 1287/3/3 1505/3/3
f 1505/3/3 1287/3/3 1506/3/3
f 356/2/3 355/2/3 1151/2/3
f 1151/2/3 355/2/3 390/2/3
f 1507/2/3 1508/2/3 1235/2/3
f 1235/2/3 1508/2/3 1288/2/3
f 428/2/3 1291/2/3 1249/2/3
f 1249/2/3 1291/2/3 1250/2/3
f 1290/3/3 1289/3/3 1247/3/3
f 1247/3/3 1289/3/3 1508/3/3
f 494/2/3 493/2/3 502/2/3
f 502/2/3 493/2/3 499/2/3
f 1213/2/3 1293/2/3 427/2/3
f 427/2/3 1293/2/3 1292/2/3
f 1325/2/3 1324/2/3 1289/2/3
f 1289/2/3 1324/2/3 1323/2/3
f 490/2/3 489/2/3 495/2/3
f 495/2/3 489/2/3 492/2/3
f 1203/2/3 1202/2/3 1200/2/3
f 1200/2/3 1202/2/3 1201/2/3
f 482/2/3 552/2/3 1294/2/3
f 1294/2/3 552/2/3 1295/2/3
f 432/2/3 431/2/3 1212/2/3
f 1212/2/3 431/2/3 1213/2/3
f 431/2/3 478/2/3 483/2/3
f 483/2/3 478/2/3 480/2/3
f 518/2/3 517/2/3 481/2/3
f 481/2/3 517/2/3 553/2/3
f 516/2/3 1509/2/3 554/2/3
f 554/2/3 1509/2/3 551/2/3
f 1509/2/3 599/2/3 1293/2/3
f 1293/2/3 599/2/3 1326/2/3
f 475/2/3 474/2/3 479/2/3
f 479/2/3 474/2/3 477/2/3
f 515/2/3 514/2/3 478/2/3
f 478/2/3 514/2/3 516/2/3
f 513/2/3 550/2/3 600/2/3
f 600/2/3 550/2/3 597/2/3
f 593/2/3 592/2/3 598/2/3
f 598/2/3 592/2/3 595/2/3
f 511/2/3 510/2/3 474/2/3
f 474/2/3 510/2/3 513/2/3
f 4/3/4 1003/3/4 1/3/4
f 1/3/4 1003/3/4 1002/3/4
f 7/3/4 1007/3/4 5/3/4
f 5/3/4 1007/3/4 1006/3/4
f 10/3/4 1010/3/4 8/3/4
f 8/3/4 1010/3/4 1009/3/4
f 14/2/4 1013/2/4 11/2/4
f 11/2/4 1013/2/4 1012/2/4
f 17/2/4 1017/2/4 15/2/4
f 15/2/4 1017/2/4 1016/2/4
f 21/3/4 1020/3/4 18/3/4
f 18/3/4 1020/3/4 1019/3/4
f 29/2/4 1473/2/4 26/2/4
f 26/2/4 1473/2/4 1471/2/4
f 32/2/4 1024/2/4 30/2/4
f 30/2/4 1024/2/4 1023/2/4
f 762/2/4 1439/2/4 760/2/4
f 760/2/4 1439/2/4 1438/2/4
f 987/2/4 1465/2/4 984/2/4
f 984/2/4 1465/2/4 1464/2/4
f 44/2/4 39/2/4 41/2/4
f 41/2/4 39/2/4 38/2/4
f 52/2/4 47/2/4 49/2/4
f 49/2/4 47/2/4 46/2/4
f 75/2/4 1510/2/4 72/2/4
f 72/2/4 1510/2/4 70/2/4
f 607/2/4 22/2/4 605/2/4
f 605/2/4 22/2/4 635/2/4
f 954/2/4 632/2/4 1511/2/4
f 1511/2/4 632/2/4 761/2/4
f 1511/2/4 1468/2/4 1512/2/4
f 1512/2/4 1468/2/4 1466/2/4
f 925/2/4 888/2/4 922/2/4
f 922/2/4 888/2/4 920/2/4
f 1512/2/4 986/2/4 951/2/4
f 951/2/4 986/2/4 990/2/4
f 961/2/4 992/2/4 958/2/4
f 958/2/4 992/2/4 996/2/4
f 971/2/4 998/2/4 968/2/4
f 968/2/4 998/2/4 1001/2/4
f 64/2/4 45/2/4 61/2/4
f 61/2/4 45/2/4 1510/2/4
f 105/2/4 74/2/4 1513/2/4
f 1513/2/4 74/2/4 73/2/4
f 1513/2/4 96/2/4 102/2/4
f 102/2/4 96/2/4 95/2/4
f 108/2/4 33/2/4 106/2/4
f 106/2/4 33/2/4 131/2/4
f 210/2/4 128/2/4 207/2/4
f 207/2/4 128/2/4 285/2/4
f 678/2/4 282/2/4 1514/2/4
f 1514/2/4 282/2/4 606/2/4
f 1514/2/4 634/2/4 1515/2/4
f 1515/2/4 634/2/4 633/2/4
f 1515/2/4 953/2/4 675/2/4
f 675/2/4 953/2/4 1476/2/4
f 686/2/4 681/2/4 683/2/4
f 683/2/4 681/2/4 680/2/4
f 914/2/4 840/2/4 910/2/4
f 910/2/4 840/2/4 839/2/4
f 931/2/4 1477/2/4 929/2/4
f 929/2/4 1477/2/4 957/2/4
f 938/2/4 963/2/4 935/2/4
f 935/2/4 963/2/4 967/2/4
f 947/2/4 973/2/4 945/2/4
f 945/2/4 973/2/4 977/2/4
f 82/2/4 53/2/4 80/2/4
f 80/2/4 53/2/4 111/2/4
f 79/2/4 104/2/4 1516/2/4
f 1516/2/4 104/2/4 103/2/4
f 123/2/4 118/2/4 120/2/4
f 120/2/4 118/2/4 117/2/4
f 611/2/4 130/2/4 1517/2/4
f 1517/2/4 130/2/4 129/2/4
f 1517/2/4 209/2/4 1518/2/4
f 1518/2/4 209/2/4 208/2/4
f 1518/2/4 284/2/4 1519/2/4
f 1519/2/4 284/2/4 283/2/4
f 1519/2/4 677/2/4 608/2/4
f 608/2/4 677/2/4 1480/2/4
f 690/2/4 1520/2/4 687/2/4
f 687/2/4 1520/2/4 684/2/4
f 798/2/4 765/2/4 1521/2/4
f 1521/2/4 765/2/4 764/2/4
f 1521/2/4 794/2/4 796/2/4
f 796/2/4 794/2/4 793/2/4
f 894/2/4 792/2/4 892/2/4
f 892/2/4 792/2/4 934/2/4
f 907/2/4 940/2/4 904/2/4
f 904/2/4 940/2/4 944/2/4
f 404/2/4 65/2/4 1522/2/4
f 1522/2/4 65/2/4 81/2/4
f 175/2/4 85/2/4 134/2/4
f 134/2/4 85/2/4 84/2/4
f 101/2/4 1026/2/4 98/2/4
f 98/2/4 1026/2/4 123/2/4
f 185/2/4 76/2/4 248/2/4
f 248/2/4 76/2/4 1516/2/4
f 1522/2/4 110/2/4 1523/2/4
f 1523/2/4 110/2/4 109/2/4
f 99/2/4 122/2/4 181/2/4
f 181/2/4 122/2/4 121/2/4
f 1523/2/4 610/2/4 402/2/4
f 402/2/4 610/2/4 454/2/4
f 638/2/4 453/2/4 614/2/4
f 614/2/4 453/2/4 452/2/4
f 615/2/4 451/2/4 612/2/4
f 612/2/4 451/2/4 609/2/4
f 613/2/4 685/2/4 636/2/4
f 636/2/4 685/2/4 1520/2/4
f 637/2/4 689/2/4 1524/2/4
f 1524/2/4 689/2/4 688/2/4
f 1524/2/4 769/2/4 847/2/4
f 847/2/4 769/2/4 768/2/4
f 848/2/4 1484/2/4 844/2/4
f 844/2/4 1484/2/4 797/2/4
f 800/2/4 809/2/4 865/2/4
f 865/2/4 809/2/4 808/2/4
f 845/2/4 796/2/4 842/2/4
f 842/2/4 796/2/4 897/2/4
f 832/2/4 899/2/4 852/2/4
f 852/2/4 899/2/4 903/2/4
f 139/1/4 158/1/4 136/1/4
f 136/1/4 158/1/4 194/1/4
f 143/1/4 162/1/4 140/1/4
f 140/1/4 162/1/4 166/1/4
f 151/1/4 132/1/4 148/1/4
f 148/1/4 132/1/4 145/1/4
f 155/1/4 124/1/4 152/1/4
f 152/1/4 124/1/4 187/1/4
f 171/1/4 144/1/4 169/1/4
f 169/1/4 144/1/4 289/1/4
f 153/5/4 156/5/4 188/5/4
f 188/5/4 156/5/4 186/5/4
f 198/1/4 160/1/4 195/1/4
f 195/1/4 160/1/4 192/1/4
f 196/1/4 272/1/4 273/1/4
f 273/1/4 272/1/4 271/1/4
f 1113/5/4 1525/5/4 1114/5/4
f 1114/5/4 1525/5/4 308/5/4
f 274/1/4 275/1/4 339/1/4
f 339/1/4 275/1/4 815/1/4
f 349/1/4 286/1/4 346/1/4
f 346/1/4 286/1/4 851/1/4
f 332/1/4 364/1/4 366/1/4
f 366/1/4 364/1/4 363/1/4
f 570/1/4 534/1/4 567/1/4
f 567/1/4 534/1/4 619/1/4
f 720/1/4 801/1/4 717/1/4
f 717/1/4 801/1/4 869/1/4
f 202/1/4 197/1/4 199/1/4
f 199/1/4 197/1/4 196/1/4
f 371/1/4 350/1/4 368/1/4
f 368/1/4 350/1/4 408/1/4
f 369/5/4 407/5/4 409/5/4
f 409/5/4 407/5/4 406/5/4
f 541/5/4 536/5/4 538/5/4
f 538/5/4 536/5/4 535/5/4
f 538/5/4 569/5/4 1304/5/4
f 1304/5/4 569/5/4 568/5/4
f 709/1/4 859/1/4 707/1/4
f 707/1/4 859/1/4 863/1/4
f 233/1/4 179/1/4 230/1/4
f 230/1/4 179/1/4 1525/1/4
f 252/1/4 183/1/4 249/1/4
f 249/1/4 183/1/4 247/1/4
f 1157/5/4 370/5/4 1158/5/4
f 1158/5/4 370/5/4 369/5/4
f 1185/5/4 411/5/4 1186/5/4
f 1186/5/4 411/5/4 410/5/4
f 1267/5/4 540/5/4 1268/5/4
f 1268/5/4 540/5/4 539/5/4
f 1354/5/4 649/5/4 1355/5/4
f 1355/5/4 649/5/4 648/5/4
f 642/1/4 616/1/4 1526/1/4
f 1526/1/4 616/1/4 857/1/4
f 1402/1/4 719/1/4 1403/1/4
f 1403/1/4 719/1/4 718/1/4
f 229/1/4 173/1/4 226/1/4
f 226/1/4 173/1/4 224/1/4
f 1060/1/4 232/1/4 1061/1/4
f 1061/1/4 232/1/4 231/1/4
f 292/1/4 1527/1/4 290/1/4
f 290/1/4 1527/1/4 353/1/4
f 1348/5/4 641/5/4 702/5/4
f 702/5/4 641/5/4 640/5/4
f 1373/5/4 673/5/4 1374/5/4
f 1374/5/4 673/5/4 672/5/4
f 1040/5/4 215/5/4 1100/5/4
f 1100/5/4 215/5/4 291/5/4
f 1492/5/4 1217/5/4 1215/5/4
f 1215/5/4 1217/5/4 1216/5/4
f 458/1/4 405/1/4 1528/1/4
f 1528/1/4 405/1/4 537/1/4
f 574/1/4 1303/1/4 571/1/4
f 571/1/4 1303/1/4 1302/1/4
f 651/1/4 1395/1/4 710/1/4
f 710/1/4 1395/1/4 1394/1/4
f 652/1/4 1401/1/4 729/1/4
f 729/1/4 1401/1/4 1400/1/4
f 415/5/4 1158/5/4 412/5/4
f 412/5/4 1158/5/4 1184/5/4
f 412/5/4 457/5/4 1226/5/4
f 1226/5/4 457/5/4 456/5/4
f 1317/5/4 584/5/4 1318/5/4
f 1318/5/4 584/5/4 583/5/4
f 743/1/4 877/1/4 740/1/4
f 740/1/4 877/1/4 881/1/4
f 375/1/4 1156/1/4 372/1/4
f 372/1/4 1156/1/4 1155/1/4
f 1188/5/4 414/5/4 1189/5/4
f 1189/5/4 414/5/4 413/5/4
f 545/5/4 1266/5/4 542/5/4
f 542/5/4 1266/5/4 1265/5/4
f 1356/5/4 653/5/4 724/5/4
f 724/5/4 653/5/4 652/5/4
f 724/1/4 1407/1/4 721/1/4
f 721/1/4 1407/1/4 1406/1/4
f 214/1/4 172/1/4 211/1/4
f 211/1/4 172/1/4 1527/1/4
f 1117/5/4 312/5/4 1118/5/4
f 1118/5/4 312/5/4 311/5/4
f 1161/5/4 374/5/4 1529/5/4
f 1529/5/4 374/5/4 1187/5/4
f 1271/5/4 544/5/4 1272/5/4
f 1272/5/4 544/5/4 543/5/4
f 623/5/4 618/5/4 620/5/4
f 620/5/4 618/5/4 617/5/4
f 1350/5/4 645/5/4 1351/5/4
f 1351/5/4 645/5/4 644/5/4
f 1365/5/4 665/5/4 1366/5/4
f 1366/5/4 665/5/4 664/5/4
f 659/1/4 723/1/4 732/1/4
f 732/1/4 723/1/4 722/1/4
f 755/1/4 742/1/4 752/1/4
f 752/1/4 742/1/4 741/1/4
f 222/1/4 213/1/4 219/1/4
f 219/1/4 213/1/4 212/1/4
f 237/1/4 1059/1/4 234/1/4
f 234/1/4 1059/1/4 1058/1/4
f 256/1/4 1075/1/4 253/1/4
f 253/1/4 1075/1/4 1074/1/4
f 295/1/4 1099/1/4 293/1/4
f 293/1/4 1099/1/4 1098/1/4
f 578/1/4 1306/1/4 575/1/4
f 575/1/4 1306/1/4 1305/1/4
f 1336/5/4 622/5/4 1337/5/4
f 1337/5/4 622/5/4 621/5/4
f 1363/5/4 661/5/4 1364/5/4
f 1364/5/4 661/5/4 660/5/4
f 1064/1/4 236/1/4 1065/1/4
f 1065/1/4 236/1/4 235/1/4
f 421/5/4 298/5/4 418/5/4
f 418/5/4 298/5/4 297/5/4
f 419/5/4 352/5/4 378/5/4
f 378/5/4 352/5/4 351/5/4
f 379/1/4 1160/1/4 376/1/4
f 376/1/4 1160/1/4 1159/1/4
f 377/5/4 1162/5/4 416/5/4
f 416/5/4 1162/5/4 1529/5/4
f 461/1/4 1225/1/4 459/1/4
f 459/1/4 1225/1/4 1224/1/4
f 1311/5/4 577/5/4 1530/5/4
f 1530/5/4 577/5/4 1335/5/4
f 728/1/4 656/1/4 725/1/4
f 725/1/4 656/1/4 1404/1/4
f 747/1/4 1419/1/4 744/1/4
f 744/1/4 1419/1/4 1418/1/4
f 268/1/4 1088/1/4 265/1/4
f 265/1/4 1088/1/4 1087/1/4
f 1109/5/4 305/5/4 1110/5/4
f 1110/5/4 305/5/4 304/5/4
f 1120/5/4 316/5/4 1121/5/4
f 1121/5/4 316/5/4 315/5/4
f 1190/5/4 416/5/4 1229/5/4
f 1229/5/4 416/5/4 460/5/4
f 241/1/4 1063/1/4 238/1/4
f 238/1/4 1063/1/4 1062/1/4
f 260/1/4 1078/1/4 257/1/4
f 257/1/4 1078/1/4 316/1/4
f 1093/1/4 267/1/4 1094/1/4
f 1094/1/4 267/1/4 266/1/4
f 1196/5/4 303/5/4 1167/5/4
f 1167/5/4 303/5/4 383/5/4
f 1168/5/4 382/5/4 1169/5/4
f 1169/5/4 382/5/4 381/5/4
f 1146/5/4 1191/5/4 1531/5/4
f 1531/5/4 1191/5/4 1190/5/4
f 1166/5/4 380/5/4 1197/5/4
f 1197/5/4 380/5/4 420/5/4
f 1359/5/4 657/5/4 1360/5/4
f 1360/5/4 657/5/4 656/5/4
f 694/1/4 639/1/4 691/1/4
f 691/1/4 639/1/4 1526/1/4
f 759/1/4 746/1/4 756/1/4
f 756/1/4 746/1/4 745/1/4
f 1068/1/4 240/1/4 1069/1/4
f 1069/1/4 240/1/4 239/1/4
f 1105/5/4 1108/5/4 1106/5/4
f 1106/5/4 1108/5/4 1107/5/4
f 1081/5/4 257/5/4 1124/5/4
f 1124/5/4 257/5/4 319/5/4
f 1044/5/4 1147/5/4 1532/5/4
f 1532/5/4 1147/5/4 1146/5/4
f 582/1/4 1310/1/4 579/1/4
f 579/1/4 1310/1/4 1309/1/4
f 1369/5/4 669/5/4 1370/5/4
f 1370/5/4 669/5/4 668/5/4
f 1377/1/4 693/1/4 1378/1/4
f 1378/1/4 693/1/4 692/1/4
f 1131/5/4 323/5/4 1132/5/4
f 1132/5/4 323/5/4 322/5/4
f 1315/5/4 581/5/4 1316/5/4
f 1316/5/4 581/5/4 580/5/4
f 1049/1/4 1052/1/4 1050/1/4
f 1050/1/4 1052/1/4 1051/1/4
f 1032/1/4 1067/1/4 1057/1/4
f 1057/1/4 1067/1/4 1066/1/4
f 1035/1/4 1082/1/4 1073/1/4
f 1073/1/4 1082/1/4 1081/1/4
f 1036/1/4 1092/1/4 1086/1/4
f 1086/1/4 1092/1/4 1091/1/4
f 1028/1/4 1102/1/4 1097/1/4
f 1097/1/4 1102/1/4 1101/1/4
f 1144/5/4 1103/5/4 1145/5/4
f 1145/5/4 1103/5/4 1532/5/4
f 1143/1/4 1164/1/4 1181/1/4
f 1181/1/4 1164/1/4 1163/1/4
f 1182/5/4 1165/5/4 1183/5/4
f 1183/5/4 1165/5/4 1531/5/4
f 1180/1/4 1228/1/4 1533/1/4
f 1533/1/4 1228/1/4 1227/1/4
f 1533/1/4 455/1/4 1262/1/4
f 1262/1/4 455/1/4 1528/1/4
f 1263/5/4 1270/5/4 1264/5/4
f 1264/5/4 1270/5/4 1269/5/4
f 1261/1/4 1314/1/4 1332/1/4
f 1332/1/4 1314/1/4 1313/1/4
f 1333/5/4 1312/5/4 1334/5/4
f 1334/5/4 1312/5/4 1530/5/4
f 1331/1/4 1347/1/4 1534/1/4
f 1534/1/4 1347/1/4 1346/1/4
f 1534/1/4 1376/1/4 1436/1/4
f 1436/1/4 1376/1/4 1375/1/4
f 1392/1/4 644/1/4 1393/1/4
f 1393/1/4 644/1/4 1397/1/4
f 1444/1/4 1411/1/4 1446/1/4
f 1446/1/4 1411/1/4 1410/1/4
f 1450/1/4 871/1/4 1502/1/4
f 1502/1/4 871/1/4 875/1/4
f 1416/1/4 1421/1/4 1417/1/4
f 1417/1/4 1421/1/4 1420/1/4
f 472/5/4 1056/5/4 715/5/4
f 715/5/4 1056/5/4 1496/5/4
f 788/5/4 1037/5/4 360/5/4
f 360/5/4 1037/5/4 1036/5/4
f 302/5/4 1096/5/4 299/5/4
f 299/5/4 1096/5/4 1095/5/4
f 775/5/4 1097/5/4 532/5/4
f 532/5/4 1097/5/4 1181/5/4
f 533/5/4 1260/5/4 530/5/4
f 530/5/4 1260/5/4 1259/5/4
f 531/5/4 1261/5/4 772/5/4
f 772/5/4 1261/5/4 1331/5/4
f 773/5/4 1434/5/4 770/5/4
f 770/5/4 1434/5/4 1433/5/4
f 714/5/4 1501/5/4 776/5/4
f 776/5/4 1501/5/4 1442/5/4
f 738/5/4 1417/5/4 786/5/4
f 786/5/4 1417/5/4 1452/5/4
f 1535/2/4 469/2/4 1536/2/4
f 1536/2/4 469/2/4 779/2/4
f 1537/2/4 781/2/4 1538/2/4
f 1538/2/4 781/2/4 785/2/4
f 391/2/4 358/2/4 388/2/4
f 388/2/4 358/2/4 737/2/4
f 1233/3/4 1535/3/4 1280/3/4
f 1280/3/4 1535/3/4 1536/3/4
f 1284/3/4 1537/3/4 1286/3/4
f 1286/3/4 1537/3/4 1538/3/4
f 357/2/4 1150/2/4 354/2/4
f 354/2/4 1150/2/4 391/2/4
f 1539/2/4 1234/2/4 1540/2/4
f 1540/2/4 1234/2/4 1279/2/4
f 429/2/4 1248/2/4 426/2/4
f 426/2/4 1248/2/4 1507/2/4
f 1231/3/4 1539/3/4 1232/3/4
f 1232/3/4 1539/3/4 1245/3/4
f 502/2/4 1244/2/4 499/2/4
f 499/2/4 1244/2/4 1243/2/4
f 1277/3/4 1246/3/4 1278/3/4
f 1278/3/4 1246/3/4 1540/3/4
f 495/2/4 1240/2/4 492/2/4
f 492/2/4 1240/2/4 1239/2/4
f 1198/2/4 1230/2/4 1275/2/4
f 1275/2/4 1230/2/4 1276/2/4
f 1320/2/4 1278/2/4 1321/2/4
f 1321/2/4 1278/2/4 1322/2/4
f 491/2/4 1238/2/4 488/2/4
f 488/2/4 1238/2/4 1237/2/4
f 1241/2/4 494/2/4 1541/2/4
f 1541/2/4 494/2/4 1273/2/4
f 1204/2/4 1211/2/4 1205/2/4
f 1205/2/4 1211/2/4 1210/2/4
f 465/2/4 1274/2/4 462/2/4
f 462/2/4 1274/2/4 494/2/4
f 498/3/4 490/3/4 496/3/4
f 496/3/4 490/3/4 489/3/4
f 497/2/4 1242/2/4 546/2/4
f 546/2/4 1242/2/4 1541/2/4
f 468/2/4 1199/2/4 1542/2/4
f 1542/2/4 1199/2/4 1198/2/4
f 1542/2/4 464/2/4 466/2/4
f 466/2/4 464/2/4 463/2/4
f 505/2/4 462/2/4 503/2/4
f 503/2/4 462/2/4 497/2/4
f 504/2/4 548/2/4 1543/2/4
f 1543/2/4 548/2/4 547/2/4
f 1543/2/4 1275/2/4 585/2/4
f 585/2/4 1275/2/4 1319/2/4
f 476/2/4 430/2/4 473/2/4
f 473/2/4 430/2/4 467/2/4
f 508/2/4 466/2/4 506/2/4
f 506/2/4 466/2/4 504/2/4
f 507/2/4 587/2/4 549/2/4
f 549/2/4 587/2/4 590/2/4
f 594/2/4 589/2/4 591/2/4
f 591/2/4 589/2/4 588/2/4
f 512/2/4 473/2/4 509/2/4
f 509/2/4 473/2/4 507/2/4
f 1468/2/5 761/2/5 1438/2/5
f 1438/2/5 761/2/5 760/2/5
f 634/2/5 606/2/5 635/2/5
f 635/2/5 606/2/5 605/2/5
f 130/2/5 107/2/5 131/2/5
f 131/2/5 107/2/5 106/2/5
f 284/2/5 208/2/5 285/2/5
f 285/2/5 208/2/5 207/2/5
f 679/2/5 676/2/5 1476/2/5
f 1476/2/5 676/2/5 675/2/5
f 765/2/5 680/2/5 766/2/5
f 766/2/5 680/2/5 1476/2/5
f 989/2/5 955/2/5 990/2/5
f 990/2/5 955/2/5 951/2/5
f 110/2/5 81/2/5 111/2/5
f 111/2/5 81/2/5 80/2/5
f 681/2/5 609/2/5 682/2/5
f 682/2/5 609/2/5 608/2/5
f 992/2/5 961/2/5 993/2/5
f 993/2/5 961/2/5 956/2/5
f 453/2/5 638/2/5 454/2/5
f 454/2/5 638/2/5 402/2/5
f 685/2/5 613/2/5 686/2/5
f 686/2/5 613/2/5 612/2/5
f 769/2/5 688/2/5 684/2/5
f 684/2/5 688/2/5 687/2/5
f 689/2/5 637/2/5 690/2/5
f 690/2/5 637/2/5 636/2/5
f 896/2/5 849/2/5 897/2/5
f 897/2/5 849/2/5 842/2/5
f 850/1/5 347/1/5 851/1/5
f 851/1/5 347/1/5 346/1/5
f 899/2/5 832/2/5 900/2/5
f 900/2/5 832/2/5 831/2/5
f 288/1/5 170/1/5 289/1/5
f 289/1/5 170/1/5 169/1/5
f 854/1/5 149/1/5 145/1/5
f 145/1/5 149/1/5 148/1/5
f 1097/5/5 775/5/5 1095/5/5
f 1095/5/5 775/5/5 299/5/5
f 1261/5/5 531/5/5 1259/5/5
f 1259/5/5 531/5/5 530/5/5
f 960/2/5 932/2/5 957/2/5
f 957/2/5 932/2/5 929/2/5
f 618/1/5 568/1/5 619/1/5
f 619/1/5 568/1/5 567/1/5
f 407/1/5 369/1/5 408/1/5
f 408/1/5 369/1/5 368/1/5
f 352/1/5 291/1/5 353/1/5
f 353/1/5 291/1/5 290/1/5
f 215/1/5 1040/1/5 292/1/5
f 292/1/5 1040/1/5 1099/1/5
f 1304/1/5 572/1/5 1302/1/5
f 1302/1/5 572/1/5 571/1/5
f 1158/1/5 373/1/5 1155/1/5
f 1155/1/5 373/1/5 372/1/5
f 1100/1/5 294/1/5 1098/1/5
f 1098/1/5 294/1/5 293/1/5
f 1308/1/5 576/1/5 1305/1/5
f 1305/1/5 576/1/5 575/1/5
f 1162/1/5 377/1/5 1159/1/5
f 1159/1/5 377/1/5 376/1/5
f 695/1/5 692/1/5 1544/1/5
f 1544/1/5 692/1/5 691/1/5
f 1312/1/5 580/1/5 1309/1/5
f 1309/1/5 580/1/5 579/1/5
f 693/1/5 1377/1/5 694/1/5
f 694/1/5 1377/1/5 1376/1/5
f 1103/1/5 1144/1/5 1101/1/5
f 1101/1/5 1144/1/5 1097/1/5
f 1165/1/5 1182/1/5 1163/1/5
f 1163/1/5 1182/1/5 1181/1/5
f 536/1/5 1263/1/5 537/1/5
f 537/1/5 1263/1/5 1262/1/5
f 1316/1/5 1333/1/5 1313/1/5
f 1313/1/5 1333/1/5 1332/1/5
f 492/2/5 489/2/5 1237/2/5
f 1237/2/5 489/2/5 488/2/5
f 963/2/5 938/2/5 964/2/5
f 964/2/5 938/2/5 933/2/5
f 856/1/5 696/1/5 857/1/5
f 857/1/5 696/1/5 1544/1/5
f 411/5/5 1185/5/5 369/5/5
f 369/5/5 1185/5/5 1158/5/5
f 540/5/5 1267/5/5 541/5/5
f 541/5/5 1267/5/5 1266/5/5
f 1381/1/5 700/1/5 1379/1/5
f 1379/1/5 700/1/5 699/1/5
f 584/5/5 1317/5/5 573/5/5
f 573/5/5 1317/5/5 1307/5/5
f 414/5/5 1188/5/5 415/5/5
f 415/5/5 1188/5/5 373/5/5
f 544/5/5 1271/5/5 545/5/5
f 545/5/5 1271/5/5 1270/5/5
f 298/1/5 220/1/5 212/1/5
f 212/1/5 220/1/5 219/1/5
f 622/5/5 1336/5/5 623/5/5
f 623/5/5 1336/5/5 576/5/5
f 1385/1/5 704/1/5 1382/1/5
f 1382/1/5 704/1/5 703/1/5
f 1389/1/5 1545/1/5 1386/1/5
f 1386/1/5 1545/1/5 1378/1/5
f 1545/1/5 1390/1/5 1375/1/5
f 1375/1/5 1390/1/5 1436/1/5
f 1437/5/5 774/5/5 1433/5/5
f 1433/5/5 774/5/5 770/5/5
f 499/2/5 493/2/5 1239/2/5
f 1239/2/5 493/2/5 492/2/5
f 1242/3/5 497/3/5 489/3/5
f 489/3/5 497/3/5 496/3/5
f 859/5/5 1546/5/5 860/5/5
f 860/5/5 1546/5/5 697/5/5
f 1546/5/5 709/5/5 698/5/5
f 698/5/5 709/5/5 1380/5/5
f 1395/5/5 1547/5/5 1352/5/5
f 1352/5/5 1547/5/5 701/5/5
f 1547/5/5 651/5/5 702/5/5
f 702/5/5 651/5/5 1383/5/5
f 651/5/5 644/5/5 1384/5/5
f 1384/5/5 644/5/5 643/5/5
f 645/5/5 1350/5/5 646/5/5
f 646/5/5 1350/5/5 621/5/5
f 1351/5/5 1548/5/5 1349/5/5
f 1349/5/5 1548/5/5 705/5/5
f 1548/5/5 1549/5/5 706/5/5
f 706/5/5 1549/5/5 1387/5/5
f 1549/5/5 1392/5/5 1388/5/5
f 1388/5/5 1392/5/5 1391/5/5
f 1275/2/5 547/2/5 1273/2/5
f 1273/2/5 547/2/5 546/2/5
f 548/2/5 504/2/5 497/2/5
f 497/2/5 504/2/5 503/2/5
f 862/1/5 708/1/5 863/1/5
f 863/1/5 708/1/5 707/1/5
f 649/5/5 1354/5/5 650/5/5
f 650/5/5 1354/5/5 1353/5/5
f 1396/1/5 711/1/5 1394/1/5
f 1394/1/5 711/1/5 710/1/5
f 305/1/5 1109/1/5 306/1/5
f 306/1/5 1109/1/5 1108/1/5
f 382/5/5 1168/5/5 383/5/5
f 383/5/5 1168/5/5 1167/5/5
f 1399/1/5 1501/1/5 1397/1/5
f 1397/1/5 1501/1/5 1393/1/5
f 1501/5/5 714/5/5 1390/5/5
f 1390/5/5 714/5/5 713/5/5
f 1246/2/5 1277/2/5 1243/2/5
f 1243/2/5 1277/2/5 499/2/5
f 1278/2/5 1320/2/5 1276/2/5
f 1276/2/5 1320/2/5 1275/2/5
f 587/2/5 507/2/5 504/2/5
f 504/2/5 507/2/5 506/2/5
f 809/2/5 800/2/5 810/2/5
f 810/2/5 800/2/5 799/2/5
f 801/5/5 652/5/5 802/5/5
f 802/5/5 652/5/5 712/5/5
f 653/5/5 1356/5/5 654/5/5
f 654/5/5 1356/5/5 645/5/5
f 657/5/5 1359/5/5 658/5/5
f 658/5/5 1359/5/5 1358/5/5
f 1360/5/5 1444/5/5 1357/5/5
f 1357/5/5 1444/5/5 1443/5/5
f 778/2/5 1504/2/5 779/2/5
f 779/2/5 1504/2/5 1536/2/5
f 1504/3/5 1281/3/5 1536/3/5
f 1536/3/5 1281/3/5 1280/3/5
f 589/2/5 594/2/5 590/2/5
f 590/2/5 594/2/5 549/2/5
f 45/2/5 42/2/5 71/2/5
f 71/2/5 42/2/5 59/2/5
f 719/5/5 1402/5/5 720/5/5
f 720/5/5 1402/5/5 1401/5/5
f 723/5/5 1361/5/5 1398/5/5
f 1398/5/5 1361/5/5 655/5/5
f 1405/1/5 726/1/5 1404/1/5
f 1404/1/5 726/1/5 725/1/5
f 96/2/5 73/2/5 70/2/5
f 70/2/5 73/2/5 72/2/5
f 995/2/5 965/2/5 996/2/5
f 996/2/5 965/2/5 958/2/5
f 74/2/5 105/2/5 75/2/5
f 75/2/5 105/2/5 61/2/5
f 937/2/5 901/2/5 934/2/5
f 934/2/5 901/2/5 892/2/5
f 122/2/5 99/2/5 123/2/5
f 123/2/5 99/2/5 98/2/5
f 868/1/5 1550/1/5 869/1/5
f 869/1/5 1550/1/5 717/1/5
f 1550/1/5 1551/1/5 718/1/5
f 718/1/5 1551/1/5 1403/1/5
f 1551/1/5 730/1/5 1400/1/5
f 1400/1/5 730/1/5 729/1/5
f 1409/1/5 1552/1/5 1406/1/5
f 1406/1/5 1552/1/5 721/1/5
f 1552/1/5 733/1/5 722/1/5
f 722/1/5 733/1/5 732/1/5
f 661/5/5 1363/5/5 662/5/5
f 662/5/5 1363/5/5 1362/5/5
f 1413/1/5 1447/1/5 1410/1/5
f 1410/1/5 1447/1/5 1446/1/5
f 595/2/5 592/2/5 588/2/5
f 588/2/5 592/2/5 591/2/5
f 998/2/5 971/2/5 999/2/5
f 999/2/5 971/2/5 966/2/5
f 940/2/5 907/2/5 941/2/5
f 941/2/5 907/2/5 902/2/5
f 386/5/5 1125/5/5 387/5/5
f 387/5/5 1125/5/5 1171/5/5
f 871/5/5 1553/5/5 872/5/5
f 872/5/5 1553/5/5 731/5/5
f 1553/5/5 1554/5/5 652/5/5
f 652/5/5 1554/5/5 1407/5/5
f 1554/5/5 664/5/5 1408/5/5
f 1408/5/5 664/5/5 663/5/5
f 665/5/5 1365/5/5 666/5/5
f 666/5/5 1365/5/5 661/5/5
f 1366/5/5 1555/5/5 660/5/5
f 660/5/5 1555/5/5 1364/5/5
f 1555/5/5 1556/5/5 1361/5/5
f 1361/5/5 1556/5/5 727/5/5
f 1556/5/5 1557/5/5 728/5/5
f 728/5/5 1557/5/5 1411/5/5
f 1557/5/5 668/5/5 1412/5/5
f 1412/5/5 668/5/5 667/5/5
f 669/5/5 1369/5/5 670/5/5
f 670/5/5 1369/5/5 1368/5/5
f 1370/5/5 1450/5/5 1367/5/5
f 1367/5/5 1450/5/5 1449/5/5
f 1451/5/5 783/5/5 1442/5/5
f 1442/5/5 783/5/5 776/5/5
f 784/2/5 1506/2/5 785/2/5
f 785/2/5 1506/2/5 1538/2/5
f 1506/3/5 1287/3/5 1538/3/5
f 1538/3/5 1287/3/5 1286/3/5
f 1288/2/5 1508/2/5 1279/2/5
f 1279/2/5 1508/2/5 1540/2/5
f 1508/3/5 1289/3/5 1540/3/5
f 1540/3/5 1289/3/5 1278/3/5
f 1323/2/5 1324/2/5 1322/2/5
f 1322/2/5 1324/2/5 1321/2/5
f 597/2/5 550/2/5 598/2/5
f 598/2/5 550/2/5 593/2/5
f 513/2/5 510/2/5 507/2/5
f 507/2/5 510/2/5 509/2/5
f 1558/1/5 250/1/5 394/1/5
f 394/1/5 250/1/5 249/1/5
f 1128/5/5 1208/5/5 1125/5/5
f 1125/5/5 1208/5/5 1207/5/5
f 874/1/5 1414/1/5 875/1/5
f 875/1/5 1414/1/5 1502/1/5
f 736/2/5 389/2/5 737/2/5
f 737/2/5 389/2/5 388/2/5
f 390/2/5 355/2/5 391/2/5
f 391/2/5 355/2/5 354/2/5
f 1250/2/5 1291/2/5 1247/2/5
f 1247/2/5 1291/2/5 1290/2/5
f 1292/2/5 1293/2/5 1289/2/5
f 1289/2/5 1293/2/5 1325/2/5
f 1326/2/5 599/2/5 1319/2/5
f 1319/2/5 599/2/5 585/2/5
f 516/2/5 514/2/5 600/2/5
f 600/2/5 514/2/5 513/2/5
f 877/5/5 672/5/5 878/5/5
f 878/5/5 672/5/5 671/5/5
f 673/5/5 1373/5/5 674/5/5
f 674/5/5 1373/5/5 1372/5/5
f 1374/5/5 1416/5/5 1371/5/5
f 1371/5/5 1416/5/5 1415/5/5
f 1417/5/5 738/5/5 1502/5/5
f 1502/5/5 738/5/5 734/5/5
f 1295/2/5 552/2/5 1293/2/5
f 1293/2/5 552/2/5 551/2/5
f 553/2/5 517/2/5 554/2/5
f 554/2/5 517/2/5 516/2/5
f 970/2/5 942/2/5 967/2/5
f 967/2/5 942/2/5 935/2/5
f 156/1/5 153/1/5 187/1/5
f 187/1/5 153/1/5 152/1/5
f 748/1/5 741/1/5 1559/1/5
f 1559/1/5 741/1/5 740/1/5
f 1090/1/5 1175/1/5 1087/1/5
f 1087/1/5 1175/1/5 1174/1/5
f 742/5/5 755/5/5 743/5/5
f 743/5/5 755/5/5 1419/5/5
f 752/1/5 745/1/5 1418/1/5
f 1418/1/5 745/1/5 744/1/5
f 626/5/5 1340/5/5 627/5/5
f 627/5/5 1340/5/5 1339/5/5
f 746/5/5 759/5/5 747/5/5
f 747/5/5 759/5/5 1421/5/5
f 756/1/5 1560/1/5 1420/1/5
f 1420/1/5 1560/1/5 1417/1/5
f 973/2/5 947/2/5 974/2/5
f 974/2/5 947/2/5 943/2/5
f 1561/1/5 328/1/5 365/1/5
f 365/1/5 328/1/5 326/1/5
f 442/1/5 396/1/5 443/1/5
f 443/1/5 396/1/5 395/1/5
f 630/1/5 602/1/5 631/1/5
f 631/1/5 602/1/5 601/1/5
f 880/1/5 749/1/5 881/1/5
f 881/1/5 749/1/5 1559/1/5
f 557/1/5 520/1/5 558/1/5
f 558/1/5 520/1/5 519/1/5
f 1424/1/5 753/1/5 741/1/5
f 741/1/5 753/1/5 752/1/5
f 521/1/5 1253/1/5 522/1/5
f 522/1/5 1253/1/5 1252/1/5
f 754/1/5 1427/1/5 755/1/5
f 755/1/5 1427/1/5 1426/1/5
f 1136/1/5 330/1/5 1133/1/5
f 1133/1/5 330/1/5 329/1/5
f 331/1/5 1138/1/5 266/1/5
f 266/1/5 1138/1/5 1094/1/5
f 1254/1/5 524/1/5 1251/1/5
f 1251/1/5 524/1/5 523/1/5
f 1428/1/5 757/1/5 1425/1/5
f 1425/1/5 757/1/5 756/1/5
f 525/1/5 1257/1/5 526/1/5
f 526/1/5 1257/1/5 1256/1/5
f 758/1/5 1431/1/5 759/1/5
f 759/1/5 1431/1/5 1430/1/5
f 1139/1/5 1140/1/5 1137/1/5
f 1137/1/5 1140/1/5 1153/1/5
f 1179/1/5 1498/1/5 1176/1/5
f 1176/1/5 1498/1/5 1221/1/5
f 1258/1/5 1298/1/5 1255/1/5
f 1255/1/5 1298/1/5 1297/1/5
f 1330/1/5 1344/1/5 1327/1/5
f 1327/1/5 1344/1/5 1343/1/5
f 1432/1/5 1453/1/5 1429/1/5
f 1429/1/5 1453/1/5 1560/1/5
f 193/1/5 137/1/5 194/1/5
f 194/1/5 137/1/5 136/1/5
f 364/5/5 332/5/5 1561/5/5
f 1561/5/5 332/5/5 328/5/5
f 1142/5/5 334/5/5 1140/5/5
f 1140/5/5 334/5/5 333/5/5
f 1301/5/5 560/5/5 1299/5/5
f 1299/5/5 560/5/5 559/5/5
f 1456/5/5 789/5/5 1452/5/5
f 1452/5/5 789/5/5 786/5/5
f 272/1/5 196/1/5 192/1/5
f 192/1/5 196/1/5 195/1/5
f 883/1/5 367/1/5 363/1/5
f 363/1/5 367/1/5 366/1/5
f 976/2/5 946/2/5 977/2/5
f 977/2/5 946/2/5 945/2/5
f 908/2/5 905/2/5 944/2/5
f 944/2/5 905/2/5 904/2/5
f 906/2/5 885/2/5 903/2/5
f 903/2/5 885/2/5 852/2/5
f 165/1/5 141/1/5 166/1/5
f 166/1/5 141/1/5 140/1/5
f 275/1/5 274/1/5 271/1/5
f 271/1/5 274/1/5 273/1/5
f 203/1/5 200/1/5 196/1/5
f 196/1/5 200/1/5 199/1/5
f 1474/2/5 1000/2/5 1464/2/5
f 1464/2/5 1000/2/5 984/2/5
f 980/2/5 978/2/5 1001/2/5
f 1001/2/5 978/2/5 968/2/5
f 840/2/5 816/2/5 841/2/5
f 841/2/5 816/2/5 836/2/5
f 816/2/5 813/2/5 837/2/5
f 837/2/5 813/2/5 811/2/5
f 277/1/5 204/1/5 278/1/5
f 278/1/5 204/1/5 203/1/5
f 814/1/5 340/1/5 815/1/5
f 815/1/5 340/1/5 339/1/5
f 1463/2/5 981/2/5 1461/2/5
f 1461/2/5 981/2/5 980/2/5
f 982/2/5 949/2/5 983/2/5
f 983/2/5 949/2/5 948/2/5
f 915/2/5 912/2/5 979/2/5
f 979/2/5 912/2/5 908/2/5
f 446/2/5 400/2/5 447/2/5
f 447/2/5 400/2/5 399/2/5
f 818/2/5 804/2/5 819/2/5
f 819/2/5 804/2/5 803/2/5
f 919/2/5 916/2/5 1562/2/5
f 1562/2/5 916/2/5 915/2/5
f 565/2/5 528/2/5 566/2/5
f 566/2/5 528/2/5 527/2/5
f 823/2/5 820/2/5 914/2/5
f 914/2/5 820/2/5 816/2/5
f 344/2/5 280/2/5 345/2/5
f 345/2/5 280/2/5 279/2/5
f 827/2/5 824/2/5 918/2/5
f 918/2/5 824/2/5 913/2/5
f 486/2/5 449/2/5 487/2/5
f 487/2/5 449/2/5 448/2/5
f 890/2/5 828/2/5 921/2/5
f 921/2/5 828/2/5 917/2/5
f 926/2/5 923/2/5 920/2/5
f 920/2/5 923/2/5 922/2/5
f 1460/2/5 927/2/5 1457/2/5
f 1457/2/5 927/2/5 1562/2/5
f 1020/2/5 21/2/5 1016/2/5
f 1016/2/5 21/2/5 15/2/5
f 1025/2/5 31/2/5 1023/2/5
f 1023/2/5 31/2/5 30/2/5
f 1007/3/5 7/3/5 1002/3/5
f 1002/3/5 7/3/5 1/3/5
f 1022/3/5 19/3/5 1019/3/5
f 1019/3/5 19/3/5 18/3/5
f 1010/3/5 10/3/5 1006/3/5
f 1006/3/5 10/3/5 5/3/5
f 1018/2/5 16/2/5 1021/2/5
f 1021/2/5 16/2/5 20/2/5
f 1011/3/5 9/3/5 1009/3/5
f 1009/3/5 9/3/5 8/3/5
f 1015/2/5 12/2/5 1012/2/5
f 1012/2/5 12/2/5 11/2/5
f 1466/2/6 1465/2/6 986/2/6
f 986/2/6 1465/2/6 987/2/6
f 633/2/6 632/2/6 953/2/6
f 953/2/6 632/2/6 954/2/6
f 129/2/6 128/2/6 209/2/6
f 209/2/6 128/2/6 210/2/6
f 283/2/6 282/2/6 677/2/6
f 677/2/6 282/2/6 678/2/6
f 764/2/6 763/2/6 794/2/6
f 794/2/6 763/2/6 931/2/6
f 109/2/6 107/2/6 610/2/6
f 610/2/6 107/2/6 611/2/6
f 793/2/6 792/2/6 796/2/6
f 796/2/6 792/2/6 894/2/6
f 684/2/6 683/2/6 687/2/6
f 687/2/6 683/2/6 798/2/6
f 452/2/6 451/2/6 614/2/6
f 614/2/6 451/2/6 615/2/6
f 797/2/6 796/2/6 844/2/6
f 844/2/6 796/2/6 845/2/6
f 768/2/6 767/2/6 847/2/6
f 847/2/6 767/2/6 848/2/6
f 40/2/6 22/2/6 35/2/6
f 35/2/6 22/2/6 607/2/6
f 833/1/6 286/1/6 348/1/6
f 348/1/6 286/1/6 349/1/6
f 38/2/6 37/2/6 41/2/6
f 41/2/6 37/2/6 34/2/6
f 86/2/6 65/2/6 146/2/6
f 146/2/6 65/2/6 404/2/6
f 145/1/6 144/1/6 148/1/6
f 148/1/6 144/1/6 171/1/6
f 84/2/6 83/2/6 134/2/6
f 134/2/6 83/2/6 135/2/6
f 133/1/6 132/1/6 150/1/6
f 150/1/6 132/1/6 151/1/6
f 1181/5/6 1260/5/6 532/5/6
f 532/5/6 1260/5/6 533/5/6
f 1331/5/6 1434/5/6 772/5/6
f 772/5/6 1434/5/6 773/5/6
f 535/1/6 534/1/6 569/1/6
f 569/1/6 534/1/6 570/1/6
f 351/1/6 350/1/6 370/1/6
f 370/1/6 350/1/6 371/1/6
f 617/1/6 616/1/6 641/1/6
f 641/1/6 616/1/6 642/1/6
f 640/1/6 639/1/6 702/1/6
f 702/1/6 639/1/6 1346/1/6
f 406/1/6 405/1/6 457/1/6
f 457/1/6 405/1/6 458/1/6
f 538/1/6 1303/1/6 573/1/6
f 573/1/6 1303/1/6 574/1/6
f 456/1/6 455/1/6 1226/1/6
f 1226/1/6 455/1/6 1224/1/6
f 1157/1/6 1156/1/6 374/1/6
f 374/1/6 1156/1/6 375/1/6
f 218/1/6 1563/1/6 213/1/6
f 213/1/6 1563/1/6 214/1/6
f 212/1/6 211/1/6 219/1/6
f 219/1/6 211/1/6 295/1/6
f 1307/1/6 1306/1/6 577/1/6
f 577/1/6 1306/1/6 578/1/6
f 1161/1/6 1160/1/6 378/1/6
f 378/1/6 1160/1/6 379/1/6
f 412/1/6 1225/1/6 416/1/6
f 416/1/6 1225/1/6 461/1/6
f 460/1/6 459/1/6 1229/1/6
f 1229/1/6 459/1/6 1227/1/6
f 1311/1/6 1310/1/6 581/1/6
f 581/1/6 1310/1/6 582/1/6
f 1146/1/6 1164/1/6 1145/1/6
f 1145/1/6 1164/1/6 1143/1/6
f 1190/1/6 1228/1/6 1183/1/6
f 1183/1/6 1228/1/6 1180/1/6
f 1315/1/6 1314/1/6 1264/1/6
f 1264/1/6 1314/1/6 1261/1/6
f 1348/1/6 1347/1/6 1334/1/6
f 1334/1/6 1347/1/6 1331/1/6
f 495/2/6 1238/2/6 490/2/6
f 490/2/6 1238/2/6 491/2/6
f 410/5/6 409/5/6 1186/5/6
f 1186/5/6 409/5/6 1184/5/6
f 539/5/6 538/5/6 1268/5/6
f 1268/5/6 538/5/6 1265/5/6
f 225/1/6 172/1/6 217/1/6
f 217/1/6 172/1/6 1563/1/6
f 583/5/6 572/5/6 1318/5/6
f 1318/5/6 572/5/6 1308/5/6
f 413/5/6 412/5/6 1189/5/6
f 1189/5/6 412/5/6 1187/5/6
f 543/5/6 542/5/6 1272/5/6
f 1272/5/6 542/5/6 1269/5/6
f 1042/1/6 1041/1/6 221/1/6
f 221/1/6 1041/1/6 222/1/6
f 621/5/6 620/5/6 1337/5/6
f 1337/5/6 620/5/6 1335/5/6
f 297/5/6 296/5/6 418/5/6
f 418/5/6 296/5/6 419/5/6
f 1192/5/6 1191/5/6 1149/5/6
f 1149/5/6 1191/5/6 1146/5/6
f 1148/5/6 1147/5/6 1047/5/6
f 1047/5/6 1147/5/6 1044/5/6
f 1046/1/6 1102/1/6 1031/1/6
f 1031/1/6 1102/1/6 1028/1/6
f 1030/5/6 1096/5/6 301/5/6
f 301/5/6 1096/5/6 302/5/6
f 502/2/6 1240/2/6 494/2/6
f 494/2/6 1240/2/6 495/2/6
f 1241/3/6 490/3/6 462/3/6
f 462/3/6 490/3/6 498/3/6
f 1440/2/6 1439/2/6 24/2/6
f 24/2/6 1439/2/6 762/2/6
f 60/2/6 33/2/6 55/2/6
f 55/2/6 33/2/6 108/2/6
f 54/2/6 53/2/6 67/2/6
f 67/2/6 53/2/6 82/2/6
f 66/2/6 85/2/6 174/2/6
f 174/2/6 85/2/6 175/2/6
f 224/5/6 223/5/6 226/5/6
f 226/5/6 223/5/6 216/5/6
f 1051/5/6 1043/5/6 306/5/6
f 306/5/6 1043/5/6 421/5/6
f 420/5/6 416/5/6 1564/5/6
f 1564/5/6 416/5/6 1190/5/6
f 1564/5/6 1193/5/6 1197/5/6
f 1197/5/6 1193/5/6 1194/5/6
f 1196/5/6 1195/5/6 1106/5/6
f 1106/5/6 1195/5/6 1104/5/6
f 1105/5/6 1047/5/6 1050/5/6
f 1050/5/6 1047/5/6 1048/5/6
f 1198/2/6 1274/2/6 464/2/6
f 464/2/6 1274/2/6 465/2/6
f 463/2/6 462/2/6 466/2/6
f 466/2/6 462/2/6 505/2/6
f 1471/2/6 1470/2/6 26/2/6
f 26/2/6 1470/2/6 23/2/6
f 58/2/6 57/2/6 89/2/6
f 89/2/6 57/2/6 54/2/6
f 115/2/6 1481/2/6 177/2/6
f 177/2/6 1481/2/6 178/2/6
f 176/1/6 173/1/6 228/1/6
f 228/1/6 173/1/6 229/1/6
f 304/5/6 303/5/6 1110/5/6
f 1110/5/6 303/5/6 1107/5/6
f 381/5/6 380/5/6 1169/5/6
f 1169/5/6 380/5/6 1166/5/6
f 1053/1/6 1052/1/6 1496/1/6
f 1496/1/6 1052/1/6 1049/1/6
f 1496/5/6 1031/5/6 715/5/6
f 715/5/6 1031/5/6 716/5/6
f 1245/2/6 1244/2/6 1232/2/6
f 1232/2/6 1244/2/6 502/2/6
f 1200/2/6 1199/2/6 433/2/6
f 433/2/6 1199/2/6 468/2/6
f 467/2/6 466/2/6 473/2/6
f 473/2/6 466/2/6 508/2/6
f 97/2/6 69/2/6 92/2/6
f 92/2/6 69/2/6 93/2/6
f 119/2/6 87/2/6 114/2/6
f 114/2/6 87/2/6 1481/2/6
f 808/2/6 807/2/6 865/2/6
f 865/2/6 807/2/6 866/2/6
f 308/5/6 307/5/6 1114/5/6
f 1114/5/6 307/5/6 1111/5/6
f 1113/5/6 1112/5/6 1058/5/6
f 1058/5/6 1112/5/6 227/5/6
f 1058/5/6 215/5/6 1565/5/6
f 1565/5/6 215/5/6 1040/5/6
f 1565/5/6 1054/5/6 1057/5/6
f 1057/5/6 1054/5/6 1055/5/6
f 782/2/6 469/2/6 1503/2/6
f 1503/2/6 469/2/6 1535/2/6
f 1503/3/6 1535/3/6 1283/3/6
f 1283/3/6 1535/3/6 1233/3/6
f 1566/3/6 1201/3/6 1568/3/6
f 1568/3/6 1201/3/6 1567/3/6
f 48/2/6 39/2/6 43/2/6
f 43/2/6 39/2/6 44/2/6
f 117/2/6 116/2/6 120/2/6
f 120/2/6 116/2/6 113/2/6
f 231/5/6 230/5/6 1061/5/6
f 1061/5/6 230/5/6 1058/5/6
f 235/5/6 234/5/6 1065/5/6
f 1065/5/6 234/5/6 1062/5/6
f 245/1/6 1569/1/6 240/1/6
f 240/1/6 1569/1/6 241/1/6
f 239/5/6 238/5/6 1069/5/6
f 1069/5/6 238/5/6 1066/5/6
f 1570/2/6 1571/2/6 1572/2/6
f 1572/2/6 1571/2/6 1539/2/6
f 95/2/6 94/2/6 1573/2/6
f 1573/2/6 94/2/6 91/2/6
f 46/2/6 45/2/6 1574/2/6
f 1574/2/6 45/2/6 64/2/6
f 1573/2/6 90/2/6 102/2/6
f 102/2/6 90/2/6 88/2/6
f 1027/2/6 1026/2/6 100/2/6
f 100/2/6 1026/2/6 101/2/6
f 121/2/6 112/2/6 181/2/6
f 181/2/6 112/2/6 309/2/6
f 180/1/6 179/1/6 1575/1/6
f 1575/1/6 179/1/6 233/1/6
f 1575/1/6 232/1/6 1576/1/6
f 1576/1/6 232/1/6 1060/1/6
f 1576/1/6 1059/1/6 1577/1/6
f 1577/1/6 1059/1/6 237/1/6
f 1577/1/6 236/1/6 1578/1/6
f 1578/1/6 236/1/6 1064/1/6
f 1578/1/6 1063/1/6 244/1/6
f 244/1/6 1063/1/6 1569/1/6
f 1070/1/6 240/1/6 1579/1/6
f 1579/1/6 240/1/6 1068/1/6
f 1579/1/6 1067/1/6 1072/1/6
f 1072/1/6 1067/1/6 1032/1/6
f 1580/3/6 1570/3/6 1581/3/6
f 1581/3/6 1570/3/6 1572/3/6
f 1582/2/6 1566/2/6 1583/2/6
f 1583/2/6 1566/2/6 1568/2/6
f 103/2/6 118/2/6 1516/2/6
f 1516/2/6 118/2/6 123/2/6
f 1516/2/6 122/2/6 248/2/6
f 248/2/6 122/2/6 99/2/6
f 425/5/6 1584/5/6 1172/5/6
f 1172/5/6 1584/5/6 1170/5/6
f 247/5/6 246/5/6 312/5/6
f 312/5/6 246/5/6 313/5/6
f 311/5/6 310/5/6 1118/5/6
f 1118/5/6 310/5/6 1115/5/6
f 1117/5/6 1116/5/6 316/5/6
f 316/5/6 1116/5/6 317/5/6
f 315/5/6 314/5/6 1121/5/6
f 1121/5/6 314/5/6 1119/5/6
f 1120/5/6 242/5/6 257/5/6
f 257/5/6 242/5/6 239/5/6
f 319/5/6 318/5/6 1124/5/6
f 1124/5/6 318/5/6 1122/5/6
f 1081/5/6 1123/5/6 1073/5/6
f 1073/5/6 1123/5/6 1071/5/6
f 1034/5/6 1056/5/6 471/5/6
f 471/5/6 1056/5/6 472/5/6
f 470/2/6 781/2/6 1505/2/6
f 1505/2/6 781/2/6 1537/2/6
f 1505/3/6 1537/3/6 1236/3/6
f 1236/3/6 1537/3/6 1284/3/6
f 1235/2/6 1234/2/6 1585/2/6
f 1585/2/6 1234/2/6 1571/2/6
f 1585/2/6 1580/2/6 1507/2/6
f 1507/2/6 1580/2/6 1581/2/6
f 1507/3/6 1539/3/6 426/3/6
f 426/3/6 1539/3/6 1231/3/6
f 1210/3/6 1582/3/6 1586/3/6
f 1586/3/6 1582/3/6 1583/3/6
f 1586/2/6 1567/2/6 1205/2/6
f 1205/2/6 1567/2/6 1202/2/6
f 479/2/6 430/2/6 475/2/6
f 475/2/6 430/2/6 476/2/6
f 474/2/6 473/2/6 511/2/6
f 511/2/6 473/2/6 512/2/6
f 1587/1/6 183/1/6 251/1/6
f 251/1/6 183/1/6 252/1/6
f 436/5/6 384/5/6 424/5/6
f 424/5/6 384/5/6 1584/5/6
f 1127/5/6 1126/5/6 1077/5/6
f 1077/5/6 1126/5/6 1074/5/6
f 1076/1/6 1075/1/6 255/1/6
f 255/1/6 1075/1/6 256/1/6
f 1079/1/6 1078/1/6 259/1/6
f 259/1/6 1078/1/6 260/1/6
f 1083/1/6 1082/1/6 1085/1/6
f 1085/1/6 1082/1/6 1035/1/6
f 739/2/6 358/2/6 390/2/6
f 390/2/6 358/2/6 391/2/6
f 1151/2/6 1150/2/6 356/2/6
f 356/2/6 1150/2/6 357/2/6
f 1249/2/6 1248/2/6 428/2/6
f 428/2/6 1248/2/6 429/2/6
f 427/2/6 1230/2/6 1213/2/6
f 1213/2/6 1230/2/6 1198/2/6
f 1212/2/6 1211/2/6 1588/2/6
f 1588/2/6 1211/2/6 1204/2/6
f 1588/2/6 1203/2/6 432/2/6
f 432/2/6 1203/2/6 433/2/6
f 478/2/6 477/2/6 515/2/6
f 515/2/6 477/2/6 474/2/6
f 184/5/6 1587/5/6 263/5/6
f 263/5/6 1587/5/6 264/5/6
f 262/5/6 261/5/6 393/5/6
f 393/5/6 261/5/6 1558/5/6
f 1216/5/6 1589/5/6 1215/5/6
f 1215/5/6 1589/5/6 1206/5/6
f 1214/5/6 1077/5/6 1590/5/6
f 1590/5/6 1077/5/6 254/5/6
f 1590/5/6 253/5/6 1591/5/6
f 1591/5/6 253/5/6 316/5/6
f 1591/5/6 1080/5/6 1091/5/6
f 1091/5/6 1080/5/6 258/5/6
f 1091/5/6 257/5/6 323/5/6
f 323/5/6 257/5/6 1081/5/6
f 322/5/6 321/5/6 1132/5/6
f 1132/5/6 321/5/6 1129/5/6
f 1131/5/6 1130/5/6 1086/5/6
f 1086/5/6 1130/5/6 1084/5/6
f 1036/5/6 1035/5/6 360/5/6
f 360/5/6 1035/5/6 361/5/6
f 1294/2/6 1213/2/6 482/2/6
f 482/2/6 1213/2/6 483/2/6
f 481/2/6 480/2/6 518/2/6
f 518/2/6 480/2/6 478/2/6
f 159/1/6 124/1/6 154/1/6
f 154/1/6 124/1/6 155/1/6
f 186/1/6 184/1/6 188/1/6
f 188/1/6 184/1/6 263/1/6
f 326/5/6 325/5/6 438/5/6
f 438/5/6 325/5/6 439/5/6
f 437/5/6 434/5/6 1592/5/6
f 1592/5/6 434/5/6 423/5/6
f 1592/5/6 422/5/6 1219/5/6
f 1219/5/6 422/5/6 1589/5/6
f 1218/5/6 1217/5/6 1176/5/6
f 1176/5/6 1217/5/6 1173/5/6
f 1089/1/6 1088/1/6 267/1/6
f 267/1/6 1088/1/6 268/1/6
f 266/5/6 265/5/6 1094/5/6
f 1094/5/6 265/5/6 1091/5/6
f 625/5/6 624/5/6 1341/5/6
f 1341/5/6 624/5/6 1338/5/6
f 157/5/6 156/5/6 190/5/6
f 190/5/6 156/5/6 153/5/6
f 884/1/6 362/1/6 397/1/6
f 397/1/6 362/1/6 398/1/6
f 556/1/6 555/1/6 603/1/6
f 603/1/6 555/1/6 604/1/6
f 629/1/6 628/1/6 750/1/6
f 750/1/6 628/1/6 751/1/6
f 1135/1/6 1134/1/6 1593/1/6
f 1593/1/6 1134/1/6 1093/1/6
f 1593/1/6 1092/1/6 1141/1/6
f 1141/1/6 1092/1/6 1036/1/6
f 1178/1/6 1177/1/6 1154/1/6
f 1154/1/6 1177/1/6 1152/1/6
f 441/1/6 440/1/6 1300/1/6
f 1300/1/6 440/1/6 1220/1/6
f 1329/1/6 1328/1/6 1299/1/6
f 1299/1/6 1328/1/6 1296/1/6
f 1423/1/6 1422/1/6 1345/1/6
f 1345/1/6 1422/1/6 1342/1/6
f 163/1/6 158/1/6 138/1/6
f 138/1/6 158/1/6 139/1/6
f 192/5/6 191/5/6 195/5/6
f 195/5/6 191/5/6 189/5/6
f 1038/5/6 1037/5/6 335/5/6
f 335/5/6 1037/5/6 788/5/6
f 1222/5/6 1498/5/6 561/5/6
f 561/5/6 1498/5/6 562/5/6
f 1455/5/6 1345/5/6 790/5/6
f 790/5/6 1345/5/6 791/5/6
f 271/5/6 270/5/6 273/5/6
f 273/5/6 270/5/6 338/5/6
f 835/2/6 834/2/6 886/2/6
f 886/2/6 834/2/6 887/2/6
f 168/1/6 162/1/6 142/1/6
f 142/1/6 162/1/6 143/1/6
f 206/1/6 197/1/6 201/1/6
f 201/1/6 197/1/6 202/1/6
f 839/2/6 838/2/6 910/2/6
f 910/2/6 838/2/6 911/2/6
f 401/1/6 160/1/6 205/1/6
f 205/1/6 160/1/6 198/1/6
f 276/1/6 275/1/6 341/1/6
f 341/1/6 275/1/6 274/1/6
f 529/2/6 76/2/6 126/2/6
f 126/2/6 76/2/6 185/2/6
f 445/2/6 444/2/6 805/2/6
f 805/2/6 444/2/6 806/2/6
f 281/2/6 104/2/6 78/2/6
f 78/2/6 104/2/6 79/2/6
f 564/2/6 563/2/6 821/2/6
f 821/2/6 563/2/6 822/2/6
f 450/2/6 49/2/6 63/2/6
f 63/2/6 49/2/6 1574/2/6
f 343/2/6 342/2/6 825/2/6
f 825/2/6 342/2/6 826/2/6
f 928/2/6 47/2/6 51/2/6
f 51/2/6 47/2/6 52/2/6
f 485/2/6 484/2/6 829/2/6
f 829/2/6 484/2/6 830/2/6
f 889/2/6 888/2/6 924/2/6
f 924/2/6 888/2/6 925/2/6
f 1459/2/6 1473/2/6 28/2/6
f 28/2/6 1473/2/6 29/2/6
f 1019/2/6 1024/2/6 18/2/6
f 18/2/6 1024/2/6 32/2/6
f 1012/2/6 1017/2/6 11/2/6
f 11/2/6 1017/2/6 17/2/6
f 1004/3/6 1003/3/6 3/3/6
f 3/3/6 1003/3/6 4/3/6
f 1014/2/6 1013/2/6 13/2/6
f 13/2/6 1013/2/6 14/2/6
f 1594/3/1 1595/3/1 3/3/1
f 3/3/1 1595/3/1 1596/3/1
f 1597/3/1 1598/3/1 1600/3/1
f 1600/3/1 1598/3/1 1599/3/1
f 1598/3/1 1601/3/1 1603/3/1
f 1603/3/1 1601/3/1 1602/3/1
f 1601/3/1 1604/3/1 1606/3/1
f 1606/3/1 1604/3/1 1605/3/1
f 1607/3/1 1608/3/1 1610/3/1
f 1610/3/1 1608/3/1 1609/3/1
f 1608/3/1 1611/3/1 1613/3/1
f 1613/3/1 1611/3/1 1612/3/1
f 1611/2/1 1614/2/1 1597/2/1
f 1597/2/1 1614/2/1 1615/2/1
f 1614/3/1 1616/3/1 1615/3/1
f 1615/3/1 1616/3/1 1617/3/1
f 12/2/1 1618/2/1 13/2/1
f 13/2/1 1618/2/1 1611/2/1
f 1619/3/2 1004/3/2 1621/3/2
f 1621/3/2 1004/3/2 1620/3/2
f 1622/3/2 1623/3/2 1625/3/2
f 1625/3/2 1623/3/2 1624/3/2
f 1625/3/2 1626/3/2 1628/3/2
f 1628/3/2 1626/3/2 1627/3/2
f 1628/3/2 1629/3/2 1631/3/2
f 1631/3/2 1629/3/2 1630/3/2
f 1632/3/2 1633/3/2 1635/3/2
f 1635/3/2 1633/3/2 1634/3/2
f 1635/3/2 1636/3/2 1638/3/2
f 1638/3/2 1636/3/2 1637/3/2
f 1638/2/2 1622/2/2 1640/2/2
f 1640/2/2 1622/2/2 1639/2/2
f 1640/3/2 1639/3/2 1642/3/2
f 1642/3/2 1639/3/2 1641/3/2
f 1015/2/2 1014/2/2 1643/2/2
f 1643/2/2 1014/2/2 1638/2/2
f 1612/3/3 1600/3/3 1637/3/3
f 1637/3/3 1600/3/3 1623/3/3
f 1599/3/3 1603/3/3 1624/3/3
f 1624/3/3 1603/3/3 1626/3/3
f 1602/3/3 1606/3/3 1627/3/3
f 1627/3/3 1606/3/3 1629/3/3
f 1605/3/3 1604/3/3 1630/3/3
f 1630/3/3 1604/3/3 1631/3/3
f 1617/3/3 1616/3/3 1641/3/3
f 1641/3/3 1616/3/3 1642/3/3
f 1611/2/3 1618/2/3 1638/2/3
f 1638/2/3 1618/2/3 1643/2/3
f 1613/3/4 1636/3/4 1609/3/4
f 1609/3/4 1636/3/4 1634/3/4
f 1610/3/4 1633/3/4 1596/3/4
f 1596/3/4 1633/3/4 1620/3/4
f 9/3/4 1011/3/4 1594/3/4
f 1594/3/4 1011/3/4 1619/3/4
f 1595/3/4 1621/3/4 1607/3/4
f 1607/3/4 1621/3/4 1632/3/4
f 1621/3/5 1595/3/5 1619/3/5
f 1619/3/5 1595/3/5 1594/3/5
f 1643/2/5 1618/2/5 1015/2/5
f 1015/2/5 1618/2/5 12/2/5
f 1640/2/5 1614/2/5 1638/2/5
f 1638/2/5 1614/2/5 1611/2/5
f 1642/3/5 1616/3/5 1640/3/5
f 1640/3/5 1616/3/5 1614/3/5
f 1620/3/6 1004/3/6 1596/3/6
f 1596/3/6 1004/3/6 3/3/6
f 1632/2/6 1014/2/6 1607/2/6
f 1607/2/6 1014/2/6 13/2/6
f 1634/3/6 1633/3/6 1609/3/6
f 1609/3/6 1633/3/6 1610/3/6
f 1637/3/6 1636/3/6 1612/3/6
f 1612/3/6 1636/3/6 1613/3/6
f 1624/3/6 1623/3/6 1599/3/6
f 1599/3/6 1623/3/6 1600/3/6
f 1627/3/6 1626/3/6 1602/3/6
f 1602/3/6 1626/3/6 1603/3/6
f 1630/3/6 1629/3/6 1605/3/6
f 1605/3/6 1629/3/6 1606/3/6
f 1639/2/6 1631/2/6 1615/2/6
f 1615/2/6 1631/2/6 1604/2/6
f 1641/3/6 1639/3/6 1617/3/6
f 1617/3/6 1639/3/6 1615/3/6
