# Vengi binary mesh normalized for Tanks of Freedom II

mtllib ../../materials/vox_grass.mtl
o statue_overtile

v 1.4 0.1 1.4
v -1.5 0.1 1.4
v -1.5 0.1 1.5
v 1.4 0.1 1.5
v 1.3 0.2 1.3
v -1.4 0.2 1.3
v -1.4 0.2 1.4
v 1.3 0.2 1.4
v -0.2 3.5 1.2
v -0.3 3.5 1.2
v -0.3 3.5 1.6
v -0.2 3.5 1.6
v 1.2 0.3 1.2
v -1.3 0.3 1.2
v -1.3 0.3 1.3
v 1.2 0.3 1.3
v -0.2 3.6 1.1
v -0.3 3.6 1.1
v -0.3 3.6 1.2
v -0.2 3.6 1.2
v 1.1 0.4 1.1
v -1.2 0.4 1.1
v -1.2 0.4 1.2
v 1.1 0.4 1.2
v -0.2 3.7 0.9
v -0.3 3.7 0.9
v -0.3 3.7 1.1
v -0.2 3.7 1.1
v -0.2 3.8 0.7
v -0.3 3.8 0.7
v -0.3 3.8 0.9
v -0.2 3.8 0.9
v -0.2 4 0.6
v -0.3 4 0.6
v -0.3 4 0.7
v -0.2 4 0.7
v 0.6 0.5 0.6
v -1.1 0.5 0.6
v -1.1 0.5 1.1
v 0.6 0.5 1.1
v 0.4 0.5 0.5
v 0.3 0.5 0.5
v 0.3 0.5 0.6
v 0.4 0.5 0.6
v 0.2 0.5 0.5
v 0.1 0.5 0.5
v 0.1 0.5 0.6
v 0.2 0.5 0.6
v -0.1 0.5 0.5
v -0.2 0.5 0.5
v -0.2 0.5 0.6
v -0.1 0.5 0.6
v -0.2 3.5 0.5
v -0.3 3.5 0.5
v -0.3 3.5 0.6
v -0.2 3.5 0.6
v -0.3 0.5 0.5
v -0.4 0.5 0.5
v -0.4 0.5 0.6
v -0.3 0.5 0.6
v 0.7 2.1 0.4
v 0.4 2.1 0.4
v 0.4 2.1 0.7
v 0.7 2.1 0.7
v -0.2 3.1 0.4
v -0.3 3.1 0.4
v -0.3 3.1 0.5
v -0.2 3.1 0.5
v -0.6 2.1 0.4
v -0.7 2.1 0.4
v -0.7 2.1 0.7
v -0.6 2.1 0.7
v 0.6 0.5 0.3
v 0.5 0.5 0.3
v 0.5 0.5 0.4
v 0.6 0.5 0.4
v -0.2 2.7 0.3
v -0.3 2.7 0.3
v -0.3 2.7 0.4
v -0.2 2.7 0.4
v -0.2 3 0.3
v -0.3 3 0.3
v -0.3 3 0.4
v -0.2 3 0.4
v -0.2 2.1 0.3
v -0.4 2.1 0.3
v -0.4 2.1 0.6
v -0.2 2.1 0.6
v -0.5 0.5 0.3
v -0.6 0.5 0.3
v -0.6 0.5 0.4
v -0.5 0.5 0.4
v -0.2 2.3 0.2
v -0.3 2.3 0.2
v -0.3 2.3 0.3
v -0.2 2.3 0.3
v -0.2 2.9 0.2
v -0.3 2.9 0.2
v -0.3 2.9 0.3
v -0.2 2.9 0.3
v 0.6 0.5 0.1
v 0.5 0.5 0.1
v 0.5 0.5 0.2
v 0.6 0.5 0.2
v -0.2 2.8 0.1
v -0.3 2.8 0.1
v -0.3 2.8 0.2
v -0.2 2.8 0.2
v 0.2 3.2 0.1
v -0.3 3.2 0.1
v -0.3 3.2 0.2
v 0.2 3.2 0.2
v -0.5 0.5 0.1
v -0.6 0.5 0.1
v -0.6 0.5 0.2
v -0.5 0.5 0.2
v 0.4 3.1 0
v 0.3 3.1 0
v 0.3 3.1 0.1
v 0.4 3.1 0.1
v 0.3 3.2 0
v 0.2 3.2 0
v 0.3 3.2 0.2
v 0.2 2.1 0
v -0.2 2.1 0
v -0.2 2.1 0.7
v 0.2 2.1 0.7
v 0.2 3.3 0
v -0.2 3.3 0
v -0.2 3.3 0.1
v 0.2 3.3 0.1
v -0.2 3.2 0
v -0.3 3.2 0
v -0.2 3.2 0.1
v -0.3 3.1 0
v -0.4 3.1 0
v -0.4 3.1 0.1
v -0.3 3.1 0.1
v 0.6 3 -0.1
v 0.5 3 -0.1
v 0.5 3 0
v 0.6 3 0
v 0.5 2.9 -0.1
v 0.4 2.9 -0.1
v 0.4 2.9 0
v 0.5 2.9 0
v 0.5 3.1 -0.1
v 0.4 3.1 -0.1
v 0.5 3.1 0
v 0.4 2.8 -0.1
v 0.3 2.8 -0.1
v 0.3 2.8 0
v 0.4 2.8 0
v 0.4 3.2 -0.1
v 0.3 3.2 -0.1
v 0.4 3.2 0
v 0.3 3.3 -0.1
v 0.2 3.3 -0.1
v 0.3 3.3 0
v 0.2 3.4 -0.1
v -0.2 3.4 -0.1
v -0.2 3.4 0
v 0.2 3.4 0
v -0.2 3.3 -0.1
v -0.3 3.3 -0.1
v -0.3 3.3 0
v -0.3 3.2 -0.1
v -0.4 3.2 -0.1
v -0.4 3.2 0
v 0.7 2.1 -0.2
v 0.6 2.1 -0.2
v 0.6 2.1 0.2
v 0.7 2.1 0.2
v 0.6 0.5 -0.2
v 0.5 0.5 -0.2
v 0.5 0.5 -0.1
v 0.6 0.5 -0.1
v 0.4 3.1 -0.2
v 0.3 3.1 -0.2
v 0.3 3.1 -0.1
v 0.2 3.3 -0.2
v -0.2 3.3 -0.2
v -0.3 3.1 -0.2
v -0.4 3.1 -0.2
v -0.4 3.1 -0.1
v -0.3 3.1 -0.1
v -0.5 0.5 -0.2
v -0.6 0.5 -0.2
v -0.6 0.5 -0.1
v -0.5 0.5 -0.1
v -0.6 2.1 -0.2
v -0.7 2.1 -0.2
v -0.7 2.1 0.2
v -0.6 2.1 0.2
v 0.3 3.2 -0.3
v 0.2 3.2 -0.3
v 0.2 3.2 -0.1
v 0.1 3.2 -0.3
v 0.1 3.2 -0.2
v 0.2 3.2 -0.2
v 0.1 3.3 -0.3
v -0.1 3.3 -0.3
v -0.1 3.3 -0.2
v 0.1 3.3 -0.2
v -0.1 3.2 -0.3
v -0.2 3.2 -0.3
v -0.2 3.2 -0.2
v -0.1 3.2 -0.2
v -0.3 3.2 -0.3
v -0.2 3.2 -0.1
v 0.6 0.5 -0.4
v 0.5 0.5 -0.4
v 0.5 0.5 -0.3
v 0.6 0.5 -0.3
v -0.5 0.5 -0.4
v -0.6 0.5 -0.4
v -0.6 0.5 -0.3
v -0.5 0.5 -0.3
v 0.4 2.1 -0.6
v 0.2 2.1 -0.6
v 0.2 2.1 0.6
v 0.4 2.1 0.6
v -0.2 2.1 -0.6
v -0.3 2.1 -0.6
v -0.3 2.1 0.2
v -0.2 2.1 0.2
v -0.4 2.1 -0.6
v -0.3 2.1 0.3
v 0.7 2.1 -0.7
v 0.6 2.1 -0.7
v 0.6 2.1 -0.4
v 0.7 2.1 -0.4
v 0.4 2.1 -0.7
v 0.6 2.1 0.4
v 0.2 2.1 -0.7
v 0.1 2.1 -0.7
v 0.1 2.1 -0.1
v 0.2 2.1 -0.1
v -0.1 2.1 -0.7
v -0.1 2.1 0
v 0.1 2.1 0
v -0.2 2.1 -0.7
v -0.2 2.1 -0.1
v -0.1 2.1 -0.1
v -0.4 2.1 -0.7
v -0.6 2.1 -0.7
v -0.4 2.1 0.7
v -0.7 2.1 -0.7
v -0.7 2.1 -0.4
v -0.6 2.1 -0.4
v 1.1 0.5 -1.1
v 0.6 0.5 -1.1
v 1.1 0.5 1.1
v 0.4 0.5 -1.1
v 0.4 0.5 -0.6
v 0.6 0.5 -0.6
v 0.3 0.5 -1.1
v 0.3 0.5 -0.5
v 0.4 0.5 -0.5
v 0.2 0.5 -1.1
v 0.2 0.5 -0.6
v 0.3 0.5 -0.6
v 0.1 0.5 -1.1
v 0.1 0.5 -0.5
v 0.2 0.5 -0.5
v -0.1 0.5 -1.1
v -0.1 0.5 -0.6
v 0.1 0.5 -0.6
v -0.2 0.5 -1.1
v -0.2 0.5 -0.5
v -0.1 0.5 -0.5
v -0.3 0.5 -1.1
v -0.3 0.5 -0.6
v -0.2 0.5 -0.6
v -0.4 0.5 -1.1
v -0.4 0.5 -0.5
v -0.3 0.5 -0.5
v -0.6 0.5 -1.1
v -0.6 0.5 -0.6
v -0.4 0.5 -0.6
v -1.1 0.5 -1.1
v -0.6 0.5 0.6
v 1.2 0.4 -1.2
v 1.1 0.4 -1.2
v 1.2 0.4 1.2
v -1.1 0.4 -1.2
v -1.1 0.4 -1.1
v 1.1 0.4 -1.1
v -1.2 0.4 -1.2
v -1.1 0.4 1.1
v 1.3 0.3 -1.3
v 1.2 0.3 -1.3
v 1.3 0.3 1.3
v -1.2 0.3 -1.3
v -1.2 0.3 -1.2
v 1.2 0.3 -1.2
v -1.3 0.3 -1.3
v -1.2 0.3 1.2
v 1.4 0.2 -1.4
v 1.3 0.2 -1.4
v 1.4 0.2 1.4
v -1.3 0.2 -1.4
v -1.3 0.2 -1.3
v 1.3 0.2 -1.3
v -1.4 0.2 -1.4
v -1.3 0.2 1.3
v 1.5 0.1 -1.5
v 1.4 0.1 -1.5
v 1.5 0.1 1.5
v -1.4 0.1 -1.5
v -1.4 0.1 -1.4
v 1.4 0.1 -1.4
v -1.5 0.1 -1.5
v -1.4 0.1 1.4
v -0.2 3.4 1.5
v -0.2 3.4 1.6
v -0.3 3.4 1.6
v -0.3 3.4 1.5
v -0.2 3.3 1.4
v -0.2 3.3 1.5
v -0.3 3.3 1.5
v -0.3 3.3 1.4
v -0.2 2.9 1.3
v -0.2 2.9 1.4
v -0.3 2.9 1.4
v -0.3 2.9 1.3
v -0.2 3 1.2
v -0.2 3 1.3
v -0.3 3 1.3
v -0.3 3 1.2
v -0.2 3.1 1
v -0.2 3.1 1.2
v -0.3 3.1 1.2
v -0.3 3.1 1
v -0.2 3.2 0.8
v -0.2 3.2 1
v -0.3 3.2 1
v -0.3 3.2 0.8
v 0.6 2 0.6
v 0.6 2 0.7
v 0.4 2 0.7
v 0.4 2 0.6
v 0.1 2 0.6
v 0.1 2 0.7
v -0.2 2 0.7
v -0.2 2 0.6
v -0.2 3.3 0.6
v -0.2 3.3 0.8
v -0.3 3.3 0.8
v -0.3 3.3 0.6
v -0.4 2 0.6
v -0.4 2 0.7
v -0.7 2 0.7
v -0.7 2 0.6
v 0.4 2 0.5
v 0.3 2 0.6
v 0.3 2 0.5
v 0.2 2 0.5
v 0.2 2 0.7
v 0.1 2 0.5
v -0.1 2 0.5
v -0.1 2 0.6
v -0.2 2 0.5
v -0.2 3.1 0.6
v -0.3 3.1 0.6
v -0.3 2 0.5
v -0.3 2 0.6
v -0.4 2 0.5
v 0.7 2 0.4
v 0.7 2 0.7
v 0.6 2 0.4
v -0.2 2.7 0.5
v -0.3 2.7 0.5
v -0.6 2 0.4
v -0.6 2 0.6
v -0.7 2 0.4
v 0.6 2 0.3
v 0.5 2 0.4
v 0.5 2 0.3
v -0.2 2.3 0.4
v -0.3 2.3 0.4
v -0.2 2.9 0.4
v -0.3 2.9 0.4
v -0.5 2 0.3
v -0.5 2 0.4
v -0.6 2 0.3
v -0.2 2.8 0.3
v -0.3 2.8 0.3
v 0.6 2 0.1
v 0.6 2 0.2
v 0.5 2 0.2
v 0.5 2 0.1
v 0.3 2.9 0.1
v 0.3 2.9 0.2
v 0.2 2.9 0.2
v 0.2 2.9 0.1
v 0.2 3.1 0.1
v 0.2 3.1 0.2
v -0.2 3.1 0.2
v -0.2 3.1 0.1
v -0.2 2.9 0.1
v -0.3 2.9 0.1
v -0.5 2 0.1
v -0.5 2 0.2
v -0.7 2 0.2
v -0.7 2 0.1
v 0.3 2.8 0.1
v 0.2 2.8 0.1
v 0.2 2.8 0
v 0.2 2.4 0
v 0.2 2.4 0.1
v -0.2 2.4 0.1
v -0.2 2.4 0
v 0.6 2.9 -0.1
v 0.6 2.9 0
v 0.5 2.8 -0.1
v 0.5 2.8 0
v 0.4 3 0
v 0.4 3 -0.1
v 0.4 2.7 -0.1
v 0.4 2.7 0
v 0.2 2.7 0
v 0.2 2.7 -0.1
v -0.2 2.7 -0.1
v -0.2 2.7 0.2
v -0.3 2.7 0.2
v -0.3 2.7 -0.1
v 0.7 2 -0.2
v 0.7 2 0.2
v 0.6 2 -0.2
v 0.6 2 -0.1
v 0.5 2 -0.1
v 0.5 2 -0.2
v 0.4 2.9 -0.2
v 0.4 2.9 0.1
v 0.3 2.9 -0.2
v 0.3 2.8 -0.2
v 0.2 2.8 -0.1
v 0.2 2.8 -0.2
v 0.2 2.4 -0.2
v 0.2 2.4 -0.1
v 0.1 2.4 -0.1
v 0.1 2.4 -0.2
v 0.1 2.4 0
v -0.1 2.4 0
v -0.1 2.4 -0.2
v -0.1 2.4 -0.1
v -0.2 2.4 -0.1
v -0.2 2.4 -0.2
v -0.2 2.8 -0.2
v -0.2 2.8 -0.1
v -0.3 2.8 -0.1
v -0.3 2.8 -0.2
v -0.3 2.9 -0.2
v -0.4 2.9 0.1
v -0.4 2.9 -0.2
v -0.5 2 -0.2
v -0.5 2 -0.1
v -0.6 2 -0.1
v -0.6 2 -0.2
v -0.6 2 0.1
v -0.7 2 -0.2
v 0.3 2.9 -0.3
v 0.2 2.9 -0.2
v 0.2 2.9 -0.3
v 0.2 2.8 -0.3
v -0.2 2.8 -0.3
v -0.2 2.9 -0.3
v -0.2 2.9 -0.2
v -0.3 2.9 -0.3
v 0.6 2 -0.4
v 0.6 2 -0.3
v 0.5 2 -0.3
v 0.5 2 -0.4
v -0.5 2 -0.4
v -0.5 2 -0.3
v -0.6 2 -0.3
v -0.6 2 -0.4
v 0.4 2 -0.6
v 0.4 2 -0.5
v 0.3 2 -0.5
v 0.3 2 -0.6
v -0.3 2 -0.6
v -0.3 2 -0.5
v -0.4 2 -0.5
v -0.4 2 -0.6
v 0.7 2 -0.7
v 0.7 2 -0.4
v 0.6 2 -0.7
v 0.6 2 -0.6
v 0.4 2 -0.7
v 0.2 2 -0.7
v 0.2 2 -0.5
v 0.1 2 -0.5
v 0.1 2 -0.7
v 0.1 2 -0.6
v -0.1 2 -0.6
v -0.1 2 -0.7
v -0.1 2 -0.5
v -0.2 2 -0.5
v -0.2 2 -0.7
v -0.4 2 -0.7
v -0.6 2 -0.6
v -0.6 2 -0.7
v -0.7 2 -0.4
v -0.7 2 -0.7
v 1.5 0 -1.5
v 1.5 0 1.5
v -1.5 0 1.5
v -1.5 0 -1.5
v 0.2 2 0.6
v -0.6 2 0.2
v 0.2 2 -0.6
v -0.2 2 -0.6
v 0.1 2.2 0
v 0.1 2.2 -0.1
v -0.2 2.2 0
v -0.2 2.2 -0.1
v -0.2 2.7 0.1
v -0.2 2.7 -0.2
v -0.3 3.2 -0.2
v -0.3 3.5 1.5
v -0.3 3.5 1.4
v -0.3 3.5 1.3
v -0.3 3.5 0.7
v -0.3 3.3 0.7
v -0.3 3.6 1
v -0.3 3.7 1
v -0.3 3.7 0.8
v -0.3 3.8 0.8
v -0.3 3.9 0.7
v -0.3 3.9 0.6
v 0.2 2.2 0
v 0.2 2.2 -0.1
v -0.1 2.2 0
v -0.1 2.2 -0.1
v 0.2 2.7 0.1
v 0.2 2.7 -0.2
v 0.4 3 -0.2
v 0.3 3.2 0.1
v 0.3 3.2 -0.2
v -0.2 3.5 1.5
v -0.2 3.5 1.4
v -0.2 3.5 1.3
v -0.2 3.5 0.7
v -0.2 3.3 0.7
v -0.2 3.6 1
v -0.2 3.7 1
v -0.2 3.7 0.8
v -0.2 3.8 0.8
v -0.2 3.9 0.7
v -0.2 3.9 0.6
v 0.1 2.9 0.1
v 0.2 3 0.1
v 0.1 3 0.1
v 0 2.5 0.1
v 0.2 2.5 0.1
v 0 2.7 0.1
v -0.1 2.5 0.1
v -0.1 2.7 0.1
v -0.1 2.9 0.1
v -0.1 3 0.1
v -0.2 2.5 0.1
v -0.2 3 0.1
v -0.3 3.1 0.2

vt 0.0332031 0.5
vt 0.0371094 0.5
vt 0.0410156 0.5
vt 0.0527344 0.5
vt 0.0683594 0.5
vt 0.0839844 0.5
vt 0.123047 0.5

vn 0 1 0
vn 0 -1 0
vn -1 0 0
vn 1 0 0
vn 0 0 -1
vn 0 0 1

usemtl palette
f 1/2/1 2/2/1 4/2/1
f 4/2/1 2/2/1 3/2/1
f 5/2/1 6/2/1 8/2/1
f 8/2/1 6/2/1 7/2/1
f 9/3/1 10/3/1 12/3/1
f 12/3/1 10/3/1 11/3/1
f 13/2/1 14/2/1 16/2/1
f 16/2/1 14/2/1 15/2/1
f 17/3/1 18/3/1 20/3/1
f 20/3/1 18/3/1 19/3/1
f 21/2/1 22/2/1 24/2/1
f 24/2/1 22/2/1 23/2/1
f 25/3/1 26/3/1 28/3/1
f 28/3/1 26/3/1 27/3/1
f 29/3/1 30/3/1 32/3/1
f 32/3/1 30/3/1 31/3/1
f 33/3/1 34/3/1 36/3/1
f 36/3/1 34/3/1 35/3/1
f 37/2/1 38/2/1 40/2/1
f 40/2/1 38/2/1 39/2/1
f 41/2/1 42/2/1 44/2/1
f 44/2/1 42/2/1 43/2/1
f 45/2/1 46/2/1 48/2/1
f 48/2/1 46/2/1 47/2/1
f 49/2/1 50/2/1 52/2/1
f 52/2/1 50/2/1 51/2/1
f 53/2/1 54/2/1 56/2/1
f 56/2/1 54/2/1 55/2/1
f 57/2/1 58/2/1 60/2/1
f 60/2/1 58/2/1 59/2/1
f 61/5/1 62/5/1 64/5/1
f 64/5/1 62/5/1 63/5/1
f 65/2/1 66/2/1 68/2/1
f 68/2/1 66/2/1 67/2/1
f 69/5/1 70/5/1 72/5/1
f 72/5/1 70/5/1 71/5/1
f 73/2/1 74/2/1 76/2/1
f 76/2/1 74/2/1 75/2/1
f 77/2/1 78/2/1 80/2/1
f 80/2/1 78/2/1 79/2/1
f 81/3/1 82/3/1 84/3/1
f 84/3/1 82/3/1 83/3/1
f 85/5/1 86/5/1 88/5/1
f 88/5/1 86/5/1 87/5/1
f 89/2/1 90/2/1 92/2/1
f 92/2/1 90/2/1 91/2/1
f 93/2/1 94/2/1 96/2/1
f 96/2/1 94/2/1 95/2/1
f 97/2/1 98/2/1 100/2/1
f 100/2/1 98/2/1 99/2/1
f 101/2/1 102/2/1 104/2/1
f 104/2/1 102/2/1 103/2/1
f 105/2/1 106/2/1 108/2/1
f 108/2/1 106/2/1 107/2/1
f 109/2/1 110/2/1 112/2/1
f 112/2/1 110/2/1 111/2/1
f 113/2/1 114/2/1 116/2/1
f 116/2/1 114/2/1 115/2/1
f 117/2/1 118/2/1 120/2/1
f 120/2/1 118/2/1 119/2/1
f 121/2/1 122/2/1 123/2/1
f 123/2/1 122/2/1 112/2/1
f 124/5/1 125/5/1 127/5/1
f 127/5/1 125/5/1 126/5/1
f 128/2/1 129/2/1 131/2/1
f 131/2/1 129/2/1 130/2/1
f 132/2/1 133/2/1 134/2/1
f 134/2/1 133/2/1 110/2/1
f 135/2/1 136/2/1 138/2/1
f 138/2/1 136/2/1 137/2/1
f 139/2/1 140/2/1 142/2/1
f 142/2/1 140/2/1 141/2/1
f 143/2/1 144/2/1 146/2/1
f 146/2/1 144/2/1 145/2/1
f 147/3/1 148/3/1 149/3/1
f 149/3/1 148/3/1 117/3/1
f 150/2/1 151/2/1 153/2/1
f 153/2/1 151/2/1 152/2/1
f 154/2/1 155/2/1 156/2/1
f 156/2/1 155/2/1 121/2/1
f 157/2/1 158/2/1 159/2/1
f 159/2/1 158/2/1 128/2/1
f 160/2/1 161/2/1 163/2/1
f 163/2/1 161/2/1 162/2/1
f 164/2/1 165/2/1 129/2/1
f 129/2/1 165/2/1 166/2/1
f 167/2/1 168/2/1 133/2/1
f 133/2/1 168/2/1 169/2/1
f 170/5/1 171/5/1 173/5/1
f 173/5/1 171/5/1 172/5/1
f 174/2/1 175/2/1 177/2/1
f 177/2/1 175/2/1 176/2/1
f 178/2/1 179/2/1 148/2/1
f 148/2/1 179/2/1 180/2/1
f 181/2/1 182/2/1 158/2/1
f 158/2/1 182/2/1 164/2/1
f 183/2/1 184/2/1 186/2/1
f 186/2/1 184/2/1 185/2/1
f 187/2/1 188/2/1 190/2/1
f 190/2/1 188/2/1 189/2/1
f 191/5/1 192/5/1 194/5/1
f 194/5/1 192/5/1 193/5/1
f 195/2/1 196/2/1 155/2/1
f 155/2/1 196/2/1 197/2/1
f 196/2/1 198/2/1 200/2/1
f 200/2/1 198/2/1 199/2/1
f 201/2/1 202/2/1 204/2/1
f 204/2/1 202/2/1 203/2/1
f 205/2/1 206/2/1 208/2/1
f 208/2/1 206/2/1 207/2/1
f 206/2/1 209/2/1 210/2/1
f 210/2/1 209/2/1 167/2/1
f 211/2/1 212/2/1 214/2/1
f 214/2/1 212/2/1 213/2/1
f 215/2/1 216/2/1 218/2/1
f 218/2/1 216/2/1 217/2/1
f 219/5/1 220/5/1 222/5/1
f 222/5/1 220/5/1 221/5/1
f 223/5/1 224/5/1 226/5/1
f 226/5/1 224/5/1 225/5/1
f 224/5/1 227/5/1 228/5/1
f 228/5/1 227/5/1 86/5/1
f 229/5/1 230/5/1 232/5/1
f 232/5/1 230/5/1 231/5/1
f 230/5/1 233/5/1 234/5/1
f 234/5/1 233/5/1 62/5/1
f 235/5/1 236/5/1 238/5/1
f 238/5/1 236/5/1 237/5/1
f 236/5/1 239/5/1 241/5/1
f 241/5/1 239/5/1 240/5/1
f 239/5/1 242/5/1 244/5/1
f 244/5/1 242/5/1 243/5/1
f 245/5/1 246/5/1 247/5/1
f 247/5/1 246/5/1 72/5/1
f 246/5/1 248/5/1 250/5/1
f 250/5/1 248/5/1 249/5/1
f 251/2/1 252/2/1 253/2/1
f 253/2/1 252/2/1 40/2/1
f 252/2/1 254/2/1 256/2/1
f 256/2/1 254/2/1 255/2/1
f 254/2/1 257/2/1 259/2/1
f 259/2/1 257/2/1 258/2/1
f 257/2/1 260/2/1 262/2/1
f 262/2/1 260/2/1 261/2/1
f 260/2/1 263/2/1 265/2/1
f 265/2/1 263/2/1 264/2/1
f 263/2/1 266/2/1 268/2/1
f 268/2/1 266/2/1 267/2/1
f 266/2/1 269/2/1 271/2/1
f 271/2/1 269/2/1 270/2/1
f 269/2/1 272/2/1 274/2/1
f 274/2/1 272/2/1 273/2/1
f 272/2/1 275/2/1 277/2/1
f 277/2/1 275/2/1 276/2/1
f 275/2/1 278/2/1 280/2/1
f 280/2/1 278/2/1 279/2/1
f 278/2/1 281/2/1 282/2/1
f 282/2/1 281/2/1 38/2/1
f 283/2/1 284/2/1 285/2/1
f 285/2/1 284/2/1 24/2/1
f 284/2/1 286/2/1 288/2/1
f 288/2/1 286/2/1 287/2/1
f 286/2/1 289/2/1 290/2/1
f 290/2/1 289/2/1 22/2/1
f 291/2/1 292/2/1 293/2/1
f 293/2/1 292/2/1 16/2/1
f 292/2/1 294/2/1 296/2/1
f 296/2/1 294/2/1 295/2/1
f 294/2/1 297/2/1 298/2/1
f 298/2/1 297/2/1 14/2/1
f 299/2/1 300/2/1 301/2/1
f 301/2/1 300/2/1 8/2/1
f 300/2/1 302/2/1 304/2/1
f 304/2/1 302/2/1 303/2/1
f 302/2/1 305/2/1 306/2/1
f 306/2/1 305/2/1 6/2/1
f 307/2/1 308/2/1 309/2/1
f 309/2/1 308/2/1 4/2/1
f 308/2/1 310/2/1 312/2/1
f 312/2/1 310/2/1 311/2/1
f 310/2/1 313/2/1 314/2/1
f 314/2/1 313/2/1 2/2/1
f 315/3/2 316/3/2 318/3/2
f 318/3/2 316/3/2 317/3/2
f 319/3/2 320/3/2 322/3/2
f 322/3/2 320/3/2 321/3/2
f 323/3/2 324/3/2 326/3/2
f 326/3/2 324/3/2 325/3/2
f 327/3/2 328/3/2 330/3/2
f 330/3/2 328/3/2 329/3/2
f 331/3/2 332/3/2 334/3/2
f 334/3/2 332/3/2 333/3/2
f 335/3/2 336/3/2 338/3/2
f 338/3/2 336/3/2 337/3/2
f 339/5/2 340/5/2 342/5/2
f 342/5/2 340/5/2 341/5/2
f 343/5/2 344/5/2 346/5/2
f 346/5/2 344/5/2 345/5/2
f 347/3/2 348/3/2 350/3/2
f 350/3/2 348/3/2 349/3/2
f 351/5/2 352/5/2 354/5/2
f 354/5/2 352/5/2 353/5/2
f 355/5/2 342/5/2 357/5/2
f 357/5/2 342/5/2 356/5/2
f 358/5/2 359/5/2 360/5/2
f 360/5/2 359/5/2 344/5/2
f 361/5/2 362/5/2 363/5/2
f 363/5/2 362/5/2 346/5/2
f 68/2/2 364/2/2 67/2/2
f 67/2/2 364/2/2 365/2/2
f 366/5/2 367/5/2 368/5/2
f 368/5/2 367/5/2 351/5/2
f 369/5/2 370/5/2 371/5/2
f 371/5/2 370/5/2 340/5/2
f 80/2/2 372/2/2 79/2/2
f 79/2/2 372/2/2 373/2/2
f 374/5/2 375/5/2 376/5/2
f 376/5/2 375/5/2 354/5/2
f 377/5/2 371/5/2 379/5/2
f 379/5/2 371/5/2 378/5/2
f 96/2/2 380/2/2 95/2/2
f 95/2/2 380/2/2 381/2/2
f 100/3/2 382/3/2 99/3/2
f 99/3/2 382/3/2 383/3/2
f 384/5/2 385/5/2 386/5/2
f 386/5/2 385/5/2 374/5/2
f 108/2/2 387/2/2 107/2/2
f 107/2/2 387/2/2 388/2/2
f 389/5/2 390/5/2 392/5/2
f 392/5/2 390/5/2 391/5/2
f 393/2/2 394/2/2 396/2/2
f 396/2/2 394/2/2 395/2/2
f 397/2/2 398/2/2 400/2/2
f 400/2/2 398/2/2 399/2/2
f 401/2/2 97/2/2 402/2/2
f 402/2/2 97/2/2 98/2/2
f 403/5/2 404/5/2 406/5/2
f 406/5/2 404/5/2 405/5/2
f 152/2/2 407/2/2 409/2/2
f 409/2/2 407/2/2 408/2/2
f 410/2/2 411/2/2 413/2/2
f 413/2/2 411/2/2 412/2/2
f 414/2/2 415/2/2 143/2/2
f 143/2/2 415/2/2 146/2/2
f 416/2/2 417/2/2 150/2/2
f 150/2/2 417/2/2 153/2/2
f 140/3/2 141/3/2 419/3/2
f 419/3/2 141/3/2 418/3/2
f 420/2/2 421/2/2 423/2/2
f 423/2/2 421/2/2 422/2/2
f 424/2/2 425/2/2 427/2/2
f 427/2/2 425/2/2 426/2/2
f 428/5/2 429/5/2 430/5/2
f 430/5/2 429/5/2 390/5/2
f 430/5/2 431/5/2 433/5/2
f 433/5/2 431/5/2 432/5/2
f 434/2/2 435/2/2 436/2/2
f 436/2/2 435/2/2 393/2/2
f 437/2/2 151/2/2 439/2/2
f 439/2/2 151/2/2 438/2/2
f 440/2/2 441/2/2 443/2/2
f 443/2/2 441/2/2 442/2/2
f 443/2/2 444/2/2 446/2/2
f 446/2/2 444/2/2 445/2/2
f 446/2/2 447/2/2 449/2/2
f 449/2/2 447/2/2 448/2/2
f 450/2/2 451/2/2 453/2/2
f 453/2/2 451/2/2 452/2/2
f 454/2/2 402/2/2 456/2/2
f 456/2/2 402/2/2 455/2/2
f 457/5/2 458/5/2 460/5/2
f 460/5/2 458/5/2 459/5/2
f 460/5/2 461/5/2 462/5/2
f 462/5/2 461/5/2 406/5/2
f 463/2/2 436/2/2 465/2/2
f 465/2/2 436/2/2 464/2/2
f 466/2/2 439/2/2 467/2/2
f 467/2/2 439/2/2 450/2/2
f 468/2/2 469/2/2 470/2/2
f 470/2/2 469/2/2 454/2/2
f 471/5/2 472/5/2 474/5/2
f 474/5/2 472/5/2 473/5/2
f 475/5/2 476/5/2 478/5/2
f 478/5/2 476/5/2 477/5/2
f 479/5/2 480/5/2 482/5/2
f 482/5/2 480/5/2 481/5/2
f 483/5/2 484/5/2 486/5/2
f 486/5/2 484/5/2 485/5/2
f 487/5/2 488/5/2 489/5/2
f 489/5/2 488/5/2 471/5/2
f 489/5/2 490/5/2 491/5/2
f 491/5/2 490/5/2 479/5/2
f 492/5/2 493/5/2 495/5/2
f 495/5/2 493/5/2 494/5/2
f 495/5/2 496/5/2 498/5/2
f 498/5/2 496/5/2 497/5/2
f 498/5/2 499/5/2 501/5/2
f 501/5/2 499/5/2 500/5/2
f 502/5/2 486/5/2 504/5/2
f 504/5/2 486/5/2 503/5/2
f 504/5/2 478/5/2 506/5/2
f 506/5/2 478/5/2 505/5/2
f 507/2/2 508/2/2 510/2/2
f 510/2/2 508/2/2 509/2/2
f 3/2/3 313/2/3 509/2/3
f 509/2/3 313/2/3 510/2/3
f 7/2/3 305/2/3 314/2/3
f 314/2/3 305/2/3 311/2/3
f 15/2/3 297/2/3 306/2/3
f 306/2/3 297/2/3 303/2/3
f 23/2/3 289/2/3 298/2/3
f 298/2/3 289/2/3 295/2/3
f 39/2/3 281/2/3 290/2/3
f 290/2/3 281/2/3 287/2/3
f 342/1/3 355/1/3 44/1/3
f 44/1/3 355/1/3 41/1/3
f 511/1/3 358/1/3 48/1/3
f 48/1/3 358/1/3 45/1/3
f 362/1/3 361/1/3 52/1/3
f 52/1/3 361/1/3 49/1/3
f 367/1/3 366/1/3 60/1/3
f 60/1/3 366/1/3 57/1/3
f 375/1/3 374/1/3 282/1/3
f 282/1/3 374/1/3 91/1/3
f 385/5/3 384/5/3 92/5/3
f 92/5/3 384/5/3 89/5/3
f 386/1/3 512/1/3 90/1/3
f 90/1/3 512/1/3 115/1/3
f 404/5/3 403/5/3 116/5/3
f 116/5/3 403/5/3 113/5/3
f 461/1/3 459/1/3 114/1/3
f 114/1/3 459/1/3 189/1/3
f 458/5/3 457/5/3 190/5/3
f 190/5/3 457/5/3 187/5/3
f 460/1/3 477/1/3 188/1/3
f 188/1/3 477/1/3 217/1/3
f 476/5/3 475/5/3 218/5/3
f 218/5/3 475/5/3 215/5/3
f 480/1/3 479/1/3 259/1/3
f 259/1/3 479/1/3 255/1/3
f 493/1/3 513/1/3 265/1/3
f 265/1/3 513/1/3 261/1/3
f 499/1/3 497/1/3 271/1/3
f 271/1/3 497/1/3 267/1/3
f 484/1/3 483/1/3 277/1/3
f 277/1/3 483/1/3 273/1/3
f 478/1/3 503/1/3 216/1/3
f 216/1/3 503/1/3 279/1/3
f 63/5/3 222/5/3 341/5/3
f 341/5/3 222/5/3 342/5/3
f 126/5/3 88/5/3 345/5/3
f 345/5/3 88/5/3 346/5/3
f 71/5/3 70/5/3 353/5/3
f 353/5/3 70/5/3 376/5/3
f 69/5/3 194/5/3 374/5/3
f 374/5/3 194/5/3 512/5/3
f 193/5/3 192/5/3 405/5/3
f 405/5/3 192/5/3 462/5/3
f 191/5/3 250/5/3 460/5/3
f 460/5/3 250/5/3 478/5/3
f 219/5/3 233/5/3 479/5/3
f 479/5/3 233/5/3 491/5/3
f 223/5/3 242/5/3 514/5/3
f 514/5/3 242/5/3 501/5/3
f 249/5/3 248/5/3 505/5/3
f 505/5/3 248/5/3 506/5/3
f 515/2/3 516/2/3 241/2/3
f 241/2/3 516/2/3 237/2/3
f 517/2/3 518/2/3 125/2/3
f 125/2/3 518/2/3 243/2/3
f 95/2/3 94/2/3 228/2/3
f 228/2/3 94/2/3 225/2/3
f 444/3/3 442/3/3 515/3/3
f 515/3/3 442/3/3 516/3/3
f 413/3/3 448/3/3 517/3/3
f 517/3/3 448/3/3 518/3/3
f 79/2/3 78/2/3 381/2/3
f 381/2/3 78/2/3 95/2/3
f 519/2/3 520/2/3 412/2/3
f 412/2/3 520/2/3 449/2/3
f 107/2/3 452/2/3 426/2/3
f 426/2/3 452/2/3 427/2/3
f 451/3/3 450/3/3 424/3/3
f 424/3/3 450/3/3 520/3/3
f 99/2/3 98/2/3 388/2/3
f 388/2/3 98/2/3 107/2/3
f 145/2/3 144/2/3 153/2/3
f 153/2/3 144/2/3 150/2/3
f 402/2/3 454/2/3 106/2/3
f 106/2/3 454/2/3 453/2/3
f 469/2/3 468/2/3 450/2/3
f 450/2/3 468/2/3 467/2/3
f 83/3/3 82/3/3 383/3/3
f 383/3/3 82/3/3 99/3/3
f 141/2/3 140/2/3 146/2/3
f 146/2/3 140/2/3 143/2/3
f 67/2/3 66/2/3 373/2/3
f 373/2/3 66/2/3 79/2/3
f 398/2/3 397/2/3 395/2/3
f 395/2/3 397/2/3 396/2/3
f 137/2/3 184/2/3 455/2/3
f 455/2/3 184/2/3 456/2/3
f 111/2/3 110/2/3 98/2/3
f 98/2/3 110/2/3 402/2/3
f 110/2/3 133/2/3 138/2/3
f 138/2/3 133/2/3 135/2/3
f 169/2/3 168/2/3 136/2/3
f 136/2/3 168/2/3 185/2/3
f 167/2/3 521/2/3 186/2/3
f 186/2/3 521/2/3 183/2/3
f 521/2/3 209/2/3 454/2/3
f 454/2/3 209/2/3 470/2/3
f 130/2/3 129/2/3 134/2/3
f 134/2/3 129/2/3 132/2/3
f 166/2/3 165/2/3 133/2/3
f 133/2/3 165/2/3 167/2/3
f 164/2/3 182/2/3 210/2/3
f 210/2/3 182/2/3 207/2/3
f 203/2/3 202/2/3 208/2/3
f 208/2/3 202/2/3 205/2/3
f 162/2/3 161/2/3 129/2/3
f 129/2/3 161/2/3 164/2/3
f 11/3/3 522/3/3 317/3/3
f 317/3/3 522/3/3 318/3/3
f 522/3/3 523/3/3 321/3/3
f 321/3/3 523/3/3 322/3/3
f 523/3/3 524/3/3 325/3/3
f 325/3/3 524/3/3 326/3/3
f 524/3/3 10/3/3 329/3/3
f 329/3/3 10/3/3 330/3/3
f 525/3/3 55/3/3 526/3/3
f 526/3/3 55/3/3 350/3/3
f 55/2/3 54/2/3 365/2/3
f 365/2/3 54/2/3 67/2/3
f 19/3/3 527/3/3 333/3/3
f 333/3/3 527/3/3 334/3/3
f 27/3/3 528/3/3 18/3/3
f 18/3/3 528/3/3 527/3/3
f 528/3/3 529/3/3 337/3/3
f 337/3/3 529/3/3 338/3/3
f 31/3/3 530/3/3 26/3/3
f 26/3/3 530/3/3 529/3/3
f 530/3/3 30/3/3 349/3/3
f 349/3/3 30/3/3 526/3/3
f 531/2/3 532/2/3 525/2/3
f 525/2/3 532/2/3 55/2/3
f 35/3/3 34/3/3 531/3/3
f 531/3/3 34/3/3 532/3/3
f 309/2/4 508/2/4 307/2/4
f 307/2/4 508/2/4 507/2/4
f 301/2/4 1/2/4 299/2/4
f 299/2/4 1/2/4 312/2/4
f 293/2/4 5/2/4 291/2/4
f 291/2/4 5/2/4 304/2/4
f 285/2/4 13/2/4 283/2/4
f 283/2/4 13/2/4 296/2/4
f 253/2/4 21/2/4 251/2/4
f 251/2/4 21/2/4 288/2/4
f 356/1/4 43/1/4 357/1/4
f 357/1/4 43/1/4 42/1/4
f 343/1/4 47/1/4 360/1/4
f 360/1/4 47/1/4 46/1/4
f 346/1/4 51/1/4 363/1/4
f 363/1/4 51/1/4 50/1/4
f 351/1/4 59/1/4 368/1/4
f 368/1/4 59/1/4 58/1/4
f 339/1/4 37/1/4 371/1/4
f 371/1/4 37/1/4 76/1/4
f 378/5/4 75/5/4 379/5/4
f 379/5/4 75/5/4 74/5/4
f 377/1/4 73/1/4 390/1/4
f 390/1/4 73/1/4 104/1/4
f 391/5/4 103/5/4 392/5/4
f 392/5/4 103/5/4 102/5/4
f 389/1/4 101/1/4 431/1/4
f 431/1/4 101/1/4 177/1/4
f 432/5/4 176/5/4 433/5/4
f 433/5/4 176/5/4 175/5/4
f 430/1/4 174/1/4 472/1/4
f 472/1/4 174/1/4 214/1/4
f 473/5/4 213/5/4 474/5/4
f 474/5/4 213/5/4 212/5/4
f 471/1/4 211/1/4 490/1/4
f 490/1/4 211/1/4 256/1/4
f 481/1/4 258/1/4 482/1/4
f 482/1/4 258/1/4 262/1/4
f 494/1/4 264/1/4 496/1/4
f 496/1/4 264/1/4 268/1/4
f 500/1/4 270/1/4 514/1/4
f 514/1/4 270/1/4 274/1/4
f 485/1/4 276/1/4 486/1/4
f 486/1/4 276/1/4 280/1/4
f 127/5/4 359/5/4 221/5/4
f 221/5/4 359/5/4 511/5/4
f 247/5/4 352/5/4 87/5/4
f 87/5/4 352/5/4 351/5/4
f 64/5/4 370/5/4 61/5/4
f 61/5/4 370/5/4 369/5/4
f 234/5/4 371/5/4 172/5/4
f 172/5/4 371/5/4 390/5/4
f 173/5/4 429/5/4 170/5/4
f 170/5/4 429/5/4 428/5/4
f 171/5/4 430/5/4 231/5/4
f 231/5/4 430/5/4 471/5/4
f 232/5/4 488/5/4 229/5/4
f 229/5/4 488/5/4 487/5/4
f 220/5/4 513/5/4 235/5/4
f 235/5/4 513/5/4 492/5/4
f 227/5/4 486/5/4 245/5/4
f 245/5/4 486/5/4 502/5/4
f 533/2/4 124/2/4 534/2/4
f 534/2/4 124/2/4 238/2/4
f 535/2/4 240/2/4 536/2/4
f 536/2/4 240/2/4 244/2/4
f 96/2/4 85/2/4 93/2/4
f 93/2/4 85/2/4 226/2/4
f 410/3/4 533/3/4 441/3/4
f 441/3/4 533/3/4 534/3/4
f 445/3/4 535/3/4 447/3/4
f 447/3/4 535/3/4 536/3/4
f 80/2/4 380/2/4 77/2/4
f 77/2/4 380/2/4 96/2/4
f 537/2/4 411/2/4 538/2/4
f 538/2/4 411/2/4 440/2/4
f 108/2/4 425/2/4 105/2/4
f 105/2/4 425/2/4 519/2/4
f 408/3/4 537/3/4 409/3/4
f 409/3/4 537/3/4 422/3/4
f 153/2/4 421/2/4 150/2/4
f 150/2/4 421/2/4 420/2/4
f 438/3/4 423/3/4 439/3/4
f 439/3/4 423/3/4 538/3/4
f 100/2/4 387/2/4 97/2/4
f 97/2/4 387/2/4 108/2/4
f 146/2/4 417/2/4 143/2/4
f 143/2/4 417/2/4 416/2/4
f 393/2/4 407/2/4 436/2/4
f 436/2/4 407/2/4 437/2/4
f 464/2/4 439/2/4 465/2/4
f 465/2/4 439/2/4 466/2/4
f 84/3/4 382/3/4 81/3/4
f 81/3/4 382/3/4 100/3/4
f 142/2/4 415/2/4 139/2/4
f 139/2/4 415/2/4 414/2/4
f 418/2/4 145/2/4 539/2/4
f 539/2/4 145/2/4 434/2/4
f 68/2/4 372/2/4 65/2/4
f 65/2/4 372/2/4 80/2/4
f 399/2/4 97/2/4 400/2/4
f 400/2/4 97/2/4 401/2/4
f 120/2/4 435/2/4 117/2/4
f 117/2/4 435/2/4 145/2/4
f 149/3/4 141/3/4 147/3/4
f 147/3/4 141/3/4 140/3/4
f 148/2/4 419/2/4 178/2/4
f 178/2/4 419/2/4 539/2/4
f 123/2/4 394/2/4 540/2/4
f 540/2/4 394/2/4 393/2/4
f 540/2/4 119/2/4 121/2/4
f 121/2/4 119/2/4 118/2/4
f 156/2/4 117/2/4 154/2/4
f 154/2/4 117/2/4 148/2/4
f 155/2/4 180/2/4 541/2/4
f 541/2/4 180/2/4 179/2/4
f 541/2/4 436/2/4 195/2/4
f 195/2/4 436/2/4 463/2/4
f 131/2/4 109/2/4 128/2/4
f 128/2/4 109/2/4 122/2/4
f 159/2/4 121/2/4 157/2/4
f 157/2/4 121/2/4 155/2/4
f 158/2/4 197/2/4 181/2/4
f 181/2/4 197/2/4 200/2/4
f 204/2/4 199/2/4 201/2/4
f 201/2/4 199/2/4 198/2/4
f 163/2/4 128/2/4 160/2/4
f 160/2/4 128/2/4 158/2/4
f 12/3/4 316/3/4 542/3/4
f 542/3/4 316/3/4 315/3/4
f 542/3/4 320/3/4 543/3/4
f 543/3/4 320/3/4 319/3/4
f 543/3/4 324/3/4 544/3/4
f 544/3/4 324/3/4 323/3/4
f 544/3/4 328/3/4 9/3/4
f 9/3/4 328/3/4 327/3/4
f 545/3/4 546/3/4 56/3/4
f 56/3/4 546/3/4 347/3/4
f 56/2/4 364/2/4 53/2/4
f 53/2/4 364/2/4 68/2/4
f 20/3/4 332/3/4 547/3/4
f 547/3/4 332/3/4 331/3/4
f 28/3/4 17/3/4 548/3/4
f 548/3/4 17/3/4 547/3/4
f 548/3/4 336/3/4 549/3/4
f 549/3/4 336/3/4 335/3/4
f 32/3/4 25/3/4 550/3/4
f 550/3/4 25/3/4 549/3/4
f 550/3/4 348/3/4 29/3/4
f 29/3/4 348/3/4 546/3/4
f 551/2/4 545/2/4 552/2/4
f 552/2/4 545/2/4 56/2/4
f 36/3/4 551/3/4 33/3/4
f 33/3/4 551/3/4 552/3/4
f 371/5/5 234/5/5 369/5/5
f 369/5/5 234/5/5 61/5/5
f 430/5/5 171/5/5 428/5/5
f 428/5/5 171/5/5 170/5/5
f 75/1/5 378/1/5 76/1/5
f 76/1/5 378/1/5 371/1/5
f 103/1/5 391/1/5 104/1/5
f 104/1/5 391/1/5 390/1/5
f 176/1/5 432/1/5 177/1/5
f 177/1/5 432/1/5 431/1/5
f 213/1/5 473/1/5 214/1/5
f 214/1/5 473/1/5 472/1/5
f 143/2/5 140/2/5 414/2/5
f 414/2/5 140/2/5 139/2/5
f 255/1/5 479/1/5 256/1/5
f 256/1/5 479/1/5 490/1/5
f 491/5/5 233/5/5 487/5/5
f 487/5/5 233/5/5 229/5/5
f 150/2/5 144/2/5 416/2/5
f 416/2/5 144/2/5 143/2/5
f 419/3/5 148/3/5 140/3/5
f 140/3/5 148/3/5 147/3/5
f 258/5/5 481/5/5 259/5/5
f 259/5/5 481/5/5 480/5/5
f 436/2/5 179/2/5 434/2/5
f 434/2/5 179/2/5 178/2/5
f 180/2/5 155/2/5 148/2/5
f 148/2/5 155/2/5 154/2/5
f 261/1/5 513/1/5 262/1/5
f 262/1/5 513/1/5 482/1/5
f 513/5/5 220/5/5 479/5/5
f 479/5/5 220/5/5 219/5/5
f 423/2/5 438/2/5 420/2/5
f 420/2/5 438/2/5 150/2/5
f 439/2/5 464/2/5 437/2/5
f 437/2/5 464/2/5 436/2/5
f 197/2/5 158/2/5 155/2/5
f 155/2/5 158/2/5 157/2/5
f 264/5/5 494/5/5 265/5/5
f 265/5/5 494/5/5 493/5/5
f 237/2/5 516/2/5 238/2/5
f 238/2/5 516/2/5 534/2/5
f 516/3/5 442/3/5 534/3/5
f 534/3/5 442/3/5 441/3/5
f 199/2/5 204/2/5 200/2/5
f 200/2/5 204/2/5 181/2/5
f 267/1/5 497/1/5 268/1/5
f 268/1/5 497/1/5 496/1/5
f 205/2/5 202/2/5 198/2/5
f 198/2/5 202/2/5 201/2/5
f 270/5/5 500/5/5 271/5/5
f 271/5/5 500/5/5 499/5/5
f 501/5/5 242/5/5 492/5/5
f 492/5/5 242/5/5 235/5/5
f 243/2/5 518/2/5 244/2/5
f 244/2/5 518/2/5 536/2/5
f 518/3/5 448/3/5 536/3/5
f 536/3/5 448/3/5 447/3/5
f 449/2/5 520/2/5 440/2/5
f 440/2/5 520/2/5 538/2/5
f 520/3/5 450/3/5 538/3/5
f 538/3/5 450/3/5 439/3/5
f 467/2/5 468/2/5 466/2/5
f 466/2/5 468/2/5 465/2/5
f 207/2/5 182/2/5 208/2/5
f 208/2/5 182/2/5 203/2/5
f 164/2/5 161/2/5 158/2/5
f 158/2/5 161/2/5 160/2/5
f 273/1/5 483/1/5 274/1/5
f 274/1/5 483/1/5 514/1/5
f 225/2/5 94/2/5 226/2/5
f 226/2/5 94/2/5 93/2/5
f 95/2/5 78/2/5 96/2/5
f 96/2/5 78/2/5 77/2/5
f 427/2/5 452/2/5 424/2/5
f 424/2/5 452/2/5 451/2/5
f 79/2/5 383/2/5 80/2/5
f 80/2/5 383/2/5 382/2/5
f 107/2/5 98/2/5 108/2/5
f 108/2/5 98/2/5 97/2/5
f 453/2/5 454/2/5 450/2/5
f 450/2/5 454/2/5 469/2/5
f 326/3/5 329/3/5 323/3/5
f 323/3/5 329/3/5 328/3/5
f 99/3/5 82/3/5 100/3/5
f 100/3/5 82/3/5 81/3/5
f 330/3/5 333/3/5 327/3/5
f 327/3/5 333/3/5 332/3/5
f 83/2/5 66/2/5 84/2/5
f 84/2/5 66/2/5 65/2/5
f 334/3/5 337/3/5 331/3/5
f 331/3/5 337/3/5 336/3/5
f 470/2/5 209/2/5 463/2/5
f 463/2/5 209/2/5 195/2/5
f 338/3/5 349/3/5 335/3/5
f 335/3/5 349/3/5 348/3/5
f 167/2/5 165/2/5 210/2/5
f 210/2/5 165/2/5 164/2/5
f 67/2/5 54/2/5 68/2/5
f 68/2/5 54/2/5 53/2/5
f 55/2/5 532/2/5 56/2/5
f 56/2/5 532/2/5 552/2/5
f 532/3/5 34/3/5 552/3/5
f 552/3/5 34/3/5 33/3/5
f 276/5/5 485/5/5 277/5/5
f 277/5/5 485/5/5 484/5/5
f 486/5/5 227/5/5 514/5/5
f 514/5/5 227/5/5 223/5/5
f 456/2/5 184/2/5 454/2/5
f 454/2/5 184/2/5 183/2/5
f 185/2/5 168/2/5 186/2/5
f 186/2/5 168/2/5 167/2/5
f 91/1/5 374/1/5 92/1/5
f 92/1/5 374/1/5 385/1/5
f 115/1/5 512/1/5 116/1/5
f 116/1/5 512/1/5 404/1/5
f 189/1/5 459/1/5 190/1/5
f 190/1/5 459/1/5 458/1/5
f 217/1/5 477/1/5 218/1/5
f 218/1/5 477/1/5 476/1/5
f 279/1/5 503/1/5 280/1/5
f 280/1/5 503/1/5 486/1/5
f 376/5/5 70/5/5 374/5/5
f 374/5/5 70/5/5 69/5/5
f 462/5/5 192/5/5 460/5/5
f 460/5/5 192/5/5 191/5/5
f 506/5/5 248/5/5 502/5/5
f 502/5/5 248/5/5 245/5/5
f 287/2/5 281/2/5 288/2/5
f 288/2/5 281/2/5 251/2/5
f 295/2/5 289/2/5 296/2/5
f 296/2/5 289/2/5 283/2/5
f 303/2/5 297/2/5 304/2/5
f 304/2/5 297/2/5 291/2/5
f 311/2/5 305/2/5 312/2/5
f 312/2/5 305/2/5 299/2/5
f 510/2/5 313/2/5 507/2/5
f 507/2/5 313/2/5 307/2/5
f 390/5/6 429/5/6 172/5/6
f 172/5/6 429/5/6 173/5/6
f 471/5/6 488/5/6 231/5/6
f 231/5/6 488/5/6 232/5/6
f 74/1/6 73/1/6 379/1/6
f 379/1/6 73/1/6 377/1/6
f 102/1/6 101/1/6 392/1/6
f 392/1/6 101/1/6 389/1/6
f 175/1/6 174/1/6 433/1/6
f 433/1/6 174/1/6 430/1/6
f 212/1/6 211/1/6 474/1/6
f 474/1/6 211/1/6 471/1/6
f 146/2/6 415/2/6 141/2/6
f 141/2/6 415/2/6 142/2/6
f 44/1/6 37/1/6 342/1/6
f 342/1/6 37/1/6 339/1/6
f 341/5/6 370/5/6 63/5/6
f 63/5/6 370/5/6 64/5/6
f 153/2/6 417/2/6 145/2/6
f 145/2/6 417/2/6 146/2/6
f 418/3/6 141/3/6 117/3/6
f 117/3/6 141/3/6 149/3/6
f 42/5/6 41/5/6 357/5/6
f 357/5/6 41/5/6 355/5/6
f 393/2/6 435/2/6 119/2/6
f 119/2/6 435/2/6 120/2/6
f 118/2/6 117/2/6 121/2/6
f 121/2/6 117/2/6 156/2/6
f 48/1/6 43/1/6 511/1/6
f 511/1/6 43/1/6 356/1/6
f 511/5/6 342/5/6 221/5/6
f 221/5/6 342/5/6 222/5/6
f 422/2/6 421/2/6 409/2/6
f 409/2/6 421/2/6 153/2/6
f 395/2/6 394/2/6 112/2/6
f 112/2/6 394/2/6 123/2/6
f 122/2/6 121/2/6 128/2/6
f 128/2/6 121/2/6 159/2/6
f 46/5/6 45/5/6 360/5/6
f 360/5/6 45/5/6 358/5/6
f 241/2/6 124/2/6 515/2/6
f 515/2/6 124/2/6 533/2/6
f 515/3/6 533/3/6 444/3/6
f 444/3/6 533/3/6 410/3/6
f 553/3/6 396/3/6 555/3/6
f 555/3/6 396/3/6 554/3/6
f 556/2/6 557/2/6 558/2/6
f 558/2/6 557/2/6 537/2/6
f 52/1/6 47/1/6 362/1/6
f 362/1/6 47/1/6 343/1/6
f 559/3/6 556/3/6 560/3/6
f 560/3/6 556/3/6 558/3/6
f 561/2/6 553/2/6 562/2/6
f 562/2/6 553/2/6 555/2/6
f 50/5/6 49/5/6 363/5/6
f 363/5/6 49/5/6 361/5/6
f 345/5/6 359/5/6 126/5/6
f 126/5/6 359/5/6 127/5/6
f 125/2/6 240/2/6 517/2/6
f 517/2/6 240/2/6 535/2/6
f 517/3/6 535/3/6 413/3/6
f 413/3/6 535/3/6 445/3/6
f 412/2/6 411/2/6 563/2/6
f 563/2/6 411/2/6 557/2/6
f 563/2/6 559/2/6 519/2/6
f 519/2/6 559/2/6 560/2/6
f 519/3/6 537/3/6 105/3/6
f 105/3/6 537/3/6 408/3/6
f 401/3/6 561/3/6 564/3/6
f 564/3/6 561/3/6 562/3/6
f 564/2/6 554/2/6 400/2/6
f 400/2/6 554/2/6 397/2/6
f 134/2/6 109/2/6 130/2/6
f 130/2/6 109/2/6 131/2/6
f 129/2/6 128/2/6 162/2/6
f 162/2/6 128/2/6 163/2/6
f 60/1/6 51/1/6 367/1/6
f 367/1/6 51/1/6 346/1/6
f 228/2/6 85/2/6 95/2/6
f 95/2/6 85/2/6 96/2/6
f 381/2/6 380/2/6 79/2/6
f 79/2/6 380/2/6 80/2/6
f 426/2/6 425/2/6 107/2/6
f 107/2/6 425/2/6 108/2/6
f 388/2/6 387/2/6 99/2/6
f 99/2/6 387/2/6 100/2/6
f 106/2/6 407/2/6 402/2/6
f 402/2/6 407/2/6 393/2/6
f 373/2/6 372/2/6 67/2/6
f 67/2/6 372/2/6 68/2/6
f 98/2/6 97/2/6 565/2/6
f 565/2/6 97/2/6 399/2/6
f 565/2/6 398/2/6 111/2/6
f 111/2/6 398/2/6 112/2/6
f 325/3/6 324/3/6 322/3/6
f 322/3/6 324/3/6 319/3/6
f 365/2/6 364/2/6 350/2/6
f 350/2/6 364/2/6 347/2/6
f 133/2/6 132/2/6 166/2/6
f 166/2/6 132/2/6 129/2/6
f 321/3/6 320/3/6 318/3/6
f 318/3/6 320/3/6 315/3/6
f 317/3/6 316/3/6 11/3/6
f 11/3/6 316/3/6 12/3/6
f 10/3/6 9/3/6 19/3/6
f 19/3/6 9/3/6 20/3/6
f 18/3/6 17/3/6 27/3/6
f 27/3/6 17/3/6 28/3/6
f 26/3/6 25/3/6 31/3/6
f 31/3/6 25/3/6 32/3/6
f 30/2/6 29/2/6 531/2/6
f 531/2/6 29/2/6 551/2/6
f 531/3/6 551/3/6 35/3/6
f 35/3/6 551/3/6 36/3/6
f 58/5/6 57/5/6 368/5/6
f 368/5/6 57/5/6 366/5/6
f 351/5/6 346/5/6 87/5/6
f 87/5/6 346/5/6 88/5/6
f 455/2/6 402/2/6 137/2/6
f 137/2/6 402/2/6 138/2/6
f 136/2/6 135/2/6 169/2/6
f 169/2/6 135/2/6 133/2/6
f 282/1/6 59/1/6 375/1/6
f 375/1/6 59/1/6 351/1/6
f 90/1/6 89/1/6 386/1/6
f 386/1/6 89/1/6 384/1/6
f 114/1/6 113/1/6 461/1/6
f 461/1/6 113/1/6 403/1/6
f 188/1/6 187/1/6 460/1/6
f 460/1/6 187/1/6 457/1/6
f 216/1/6 215/1/6 478/1/6
f 478/1/6 215/1/6 475/1/6
f 353/5/6 352/5/6 71/5/6
f 71/5/6 352/5/6 247/5/6
f 405/5/6 512/5/6 193/5/6
f 193/5/6 512/5/6 194/5/6
f 505/5/6 478/5/6 249/5/6
f 249/5/6 478/5/6 250/5/6
f 290/2/6 21/2/6 39/2/6
f 39/2/6 21/2/6 253/2/6
f 298/2/6 13/2/6 23/2/6
f 23/2/6 13/2/6 285/2/6
f 306/2/6 5/2/6 15/2/6
f 15/2/6 5/2/6 293/2/6
f 314/2/6 1/2/6 7/2/6
f 7/2/6 1/2/6 301/2/6
f 509/2/6 508/2/6 3/2/6
f 3/2/6 508/2/6 309/2/6
