# Vengi binary mesh normalized for Tanks of Freedom II

mtllib ../../materials/vox_grass.mtl
o wooden_bridge_overtile

v 3.9 0.1 1.9
v 3 0.1 1.9
v 3 0.1 2
v 3.9 0.1 2
v 2.9 0.2 1.9
v 2 0.2 1.9
v 2 0.2 2
v 2.9 0.2 2
v 1.9 0.3 1.9
v -2 0.3 1.9
v -2 0.3 2
v 1.9 0.3 2
v -2.1 0.2 1.9
v -2.2 0.2 1.9
v -2.2 0.2 2
v -2.1 0.2 2
v 4 0.6 1.8
v 3 0.6 1.8
v 3 0.6 2
v 4 0.6 2
v 3 0.7 1.8
v 2 0.7 1.8
v 2 0.7 2
v 3 0.7 2
v 2 0.8 1.8
v -2 0.8 1.8
v -2 0.8 2
v 2 0.8 2
v -2 0.7 1.8
v -2.2 0.7 1.8
v -2.2 0.7 2
v -2 0.7 2
v 4 0.1 1.7
v 3.9 0.1 1.7
v 4 0.1 2
v 3.7 0.1 1.7
v 3.7 0.1 1.8
v 3.9 0.1 1.8
v 3.6 0.1 1.7
v 3.3 0.1 1.7
v 3.3 0.1 1.9
v 3.6 0.1 1.9
v 3.2 0.1 1.7
v 3.1 0.1 1.7
v 3.1 0.1 1.8
v 3.2 0.1 1.8
v 3 0.1 1.7
v 3.1 0.1 1.9
v 3 0.2 1.7
v 2.9 0.2 1.7
v 3 0.2 2
v 2.8 0.2 1.7
v 2.7 0.2 1.7
v 2.7 0.2 1.8
v 2.8 0.2 1.8
v 2.3 0.2 1.7
v 2.3 0.2 1.9
v 2.7 0.2 1.9
v 2.1 0.2 1.7
v 2.1 0.2 1.8
v 2.3 0.2 1.8
v 2 0.3 1.7
v 1.9 0.3 1.7
v 2 0.3 2
v 1.7 0.3 1.7
v 1.7 0.3 1.8
v 1.9 0.3 1.8
v 1.6 0.3 1.7
v 1.3 0.3 1.7
v 1.3 0.3 1.9
v 1.6 0.3 1.9
v 1.2 0.3 1.7
v 1.1 0.3 1.7
v 1.1 0.3 1.8
v 1.2 0.3 1.8
v 0.9 0.3 1.7
v 0.9 0.3 1.9
v 1.1 0.3 1.9
v 0.8 0.3 1.7
v 0.7 0.3 1.7
v 0.7 0.3 1.8
v 0.8 0.3 1.8
v 0.3 0.3 1.7
v 0.3 0.3 1.9
v 0.7 0.3 1.9
v 0.1 0.3 1.7
v 0.1 0.3 1.8
v 0.3 0.3 1.8
v 0 0.3 1.7
v -0.1 0.3 1.7
v -0.1 0.3 1.9
v 0 0.3 1.9
v -0.3 0.3 1.7
v -0.3 0.3 1.8
v -0.1 0.3 1.8
v -0.4 0.3 1.7
v -0.7 0.3 1.7
v -0.7 0.3 1.9
v -0.4 0.3 1.9
v -0.8 0.3 1.7
v -0.9 0.3 1.7
v -0.9 0.3 1.8
v -0.8 0.3 1.8
v -1.1 0.3 1.7
v -1.1 0.3 1.9
v -0.9 0.3 1.9
v -1.2 0.3 1.7
v -1.3 0.3 1.7
v -1.3 0.3 1.8
v -1.2 0.3 1.8
v -1.7 0.3 1.7
v -1.7 0.3 1.9
v -1.3 0.3 1.9
v -1.9 0.3 1.7
v -1.9 0.3 1.8
v -1.7 0.3 1.8
v -2 0.2 1.7
v -2.1 0.2 1.7
v -2 0.2 2
v -2.2 0.2 1.7
v -2.2 0.2 1.8
v -2.1 0.2 1.8
v 4 0.1 -1.7
v 3.7 0.1 -1.7
v 3.6 0.1 -1.7
v 3.3 0.1 -1.7
v 3.2 0.1 -1.7
v 3 0.1 -1.7
v 3 0.2 -1.7
v 2.9 0.2 -1.7
v 2.8 0.2 -1.7
v 2.5 0.2 -1.7
v 2.5 0.2 1.7
v 2.4 0.2 -1.7
v 2.1 0.2 -1.7
v 2.4 0.2 1.7
v 2 0.3 -1.7
v 1.7 0.3 -1.7
v 1.6 0.3 -1.7
v 1.3 0.3 -1.7
v 1.2 0.3 -1.7
v 0.9 0.3 -1.7
v 0.8 0.3 -1.7
v 0.5 0.3 -1.7
v 0.5 0.3 1.7
v 0.4 0.3 -1.7
v 0.1 0.3 -1.7
v 0.4 0.3 1.7
v 0 0.3 -1.7
v -0.3 0.3 -1.7
v -0.4 0.3 -1.7
v -0.7 0.3 -1.7
v -0.8 0.3 -1.7
v -1.1 0.3 -1.7
v -1.2 0.3 -1.7
v -1.5 0.3 -1.7
v -1.5 0.3 1.7
v -1.6 0.3 -1.7
v -1.9 0.3 -1.7
v -1.6 0.3 1.7
v -2 0.2 -1.7
v -2.2 0.2 -1.7
v 3.9 0.1 -1.8
v 3.7 0.1 -1.8
v 3.9 0.1 -1.7
v 3.3 0.1 -1.8
v 3.2 0.1 -1.8
v 3.3 0.1 1.8
v 3 0.1 -1.8
v 2.9 0.2 -1.8
v 2.8 0.2 -1.8
v 2.9 0.2 1.8
v 2.5 0.2 -1.8
v 2.3 0.2 -1.8
v 2.1 0.2 -1.8
v 2.3 0.2 -1.7
v 1.9 0.3 -1.8
v 1.7 0.3 -1.8
v 1.9 0.3 -1.7
v 1.3 0.3 -1.8
v 1.2 0.3 -1.8
v 1.3 0.3 1.8
v 0.9 0.3 -1.8
v 0.8 0.3 -1.8
v 0.9 0.3 1.8
v 0.5 0.3 -1.8
v 0.3 0.3 -1.8
v 0.1 0.3 -1.8
v 0.3 0.3 -1.7
v -0.1 0.3 -1.8
v -0.3 0.3 -1.8
v -0.1 0.3 -1.7
v -0.7 0.3 -1.8
v -0.8 0.3 -1.8
v -0.7 0.3 1.8
v -1.1 0.3 -1.8
v -1.2 0.3 -1.8
v -1.1 0.3 1.8
v -1.5 0.3 -1.8
v -1.7 0.3 -1.8
v -1.9 0.3 -1.8
v -1.7 0.3 -1.7
v -2.1 0.2 -1.8
v -2.2 0.2 -1.8
v -2.1 0.2 -1.7
v 4 0.1 -2
v 3.9 0.1 -2
v 3.7 0.1 -2
v 3.7 0.1 -1.9
v 3.9 0.1 -1.9
v 3.6 0.1 -2
v 3.7 0.1 1.9
v 3.3 0.1 -2
v 3.1 0.1 -2
v 3.1 0.1 -1.9
v 3.3 0.1 -1.9
v 3 0.1 -2
v 3.1 0.1 -1.8
v 4 0.6 -2
v 3 0.6 -2
v 3 0.6 -1.8
v 4 0.6 -1.8
v 3 0.2 -2
v 2.9 0.2 -2
v 2.7 0.2 -2
v 2.7 0.2 -1.9
v 2.9 0.2 -1.9
v 2.5 0.2 -2
v 2.7 0.2 -1.8
v 2.4 0.2 -2
v 2.3 0.2 -2
v 2.1 0.2 -2
v 2.1 0.2 -1.9
v 2.3 0.2 -1.9
v 2 0.2 -2
v 2.1 0.2 1.9
v 3 0.7 -2
v 2 0.7 -2
v 2 0.7 -1.8
v 3 0.7 -1.8
v 2 0.3 -2
v 1.9 0.3 -2
v 1.7 0.3 -2
v 1.7 0.3 -1.9
v 1.9 0.3 -1.9
v 1.6 0.3 -2
v 1.7 0.3 1.9
v 1.3 0.3 -2
v 1.1 0.3 -2
v 1.1 0.3 -1.9
v 1.3 0.3 -1.9
v 0.9 0.3 -2
v 1.1 0.3 -1.8
v 0.7 0.3 -2
v 0.7 0.3 -1.9
v 0.9 0.3 -1.9
v 0.5 0.3 -2
v 0.7 0.3 -1.8
v 0.4 0.3 -2
v 0.3 0.3 -2
v 0.1 0.3 -2
v 0.1 0.3 -1.9
v 0.3 0.3 -1.9
v 0 0.3 -2
v 0.1 0.3 1.9
v -0.1 0.3 -2
v -0.3 0.3 -2
v -0.3 0.3 -1.9
v -0.1 0.3 -1.9
v -0.4 0.3 -2
v -0.3 0.3 1.9
v -0.7 0.3 -2
v -0.9 0.3 -2
v -0.9 0.3 -1.9
v -0.7 0.3 -1.9
v -1.1 0.3 -2
v -0.9 0.3 -1.8
v -1.3 0.3 -2
v -1.3 0.3 -1.9
v -1.1 0.3 -1.9
v -1.5 0.3 -2
v -1.3 0.3 -1.8
v -1.6 0.3 -2
v -1.7 0.3 -2
v -1.9 0.3 -2
v -1.9 0.3 -1.9
v -1.7 0.3 -1.9
v -2 0.3 -2
v -1.9 0.3 1.9
v 2 0.8 -2
v -2 0.8 -2
v -2 0.8 -1.8
v 2 0.8 -1.8
v -2 0.2 -2
v -2.1 0.2 -2
v -2.2 0.2 -2
v -2.2 0.2 -1.9
v -2.1 0.2 -1.9
v -2 0.7 -2
v -2.2 0.7 -2
v -2.2 0.7 -1.8
v -2 0.7 -1.8
v 3.9 0.5 1.9
v 3.9 0.5 2
v 3 0.5 2
v 3 0.5 1.9
v 2.9 0.6 1.9
v 2.9 0.6 2
v 2 0.6 2
v 2 0.6 1.9
v 1.9 0.7 1.9
v 1.9 0.7 2
v -2 0.7 1.9
v -2.1 0.6 1.9
v -2.1 0.6 2
v -2.2 0.6 2
v -2.2 0.6 1.9
v 4 0.5 1.8
v 4 0.5 2
v 3.9 0.5 1.8
v 3.7 0.5 1.8
v 3.7 0.5 1.9
v 3.3 0.5 1.9
v 3.3 0.5 1.8
v 3.1 0.5 1.8
v 3.1 0.5 1.9
v 3 0.5 1.8
v 2.9 0.6 1.8
v 2.7 0.6 1.8
v 2.7 0.6 1.9
v 2.3 0.6 1.9
v 2.3 0.6 1.8
v 2.1 0.6 1.8
v 2.1 0.6 1.9
v 2 0.6 1.8
v 2.1 0 1.8
v 2.1 0 2
v 1.9 0 2
v 1.9 0 1.8
v 1.9 0.7 1.8
v 1.7 0.7 1.8
v 1.7 0.7 1.9
v 1.3 0.7 1.9
v 1.3 0.7 1.8
v 1.1 0.7 1.8
v 1.1 0.7 1.9
v 0.9 0.7 1.9
v 0.9 0.7 1.8
v 0.7 0.7 1.8
v 0.7 0.7 1.9
v 0.3 0.7 1.9
v 0.3 0.7 1.8
v 0.1 0.7 1.8
v 0.1 0.7 1.9
v -0.1 0.7 1.9
v -0.1 0.7 1.8
v -0.3 0.7 1.8
v -0.3 0.7 1.9
v -0.7 0.7 1.9
v -0.7 0.7 1.8
v -0.9 0.7 1.8
v -0.9 0.7 1.9
v -1.1 0.7 1.9
v -1.1 0.7 1.8
v -1.3 0.7 1.8
v -1.3 0.7 1.9
v -1.7 0.7 1.9
v -1.7 0.7 1.8
v -1.9 0.7 1.8
v -1.9 0.7 1.9
v -1.9 0 1.8
v -1.9 0 2
v -2.1 0 2
v -2.1 0 1.8
v -2 0.6 1.8
v -2 0.6 2
v -2.1 0.6 1.8
v 4 0 1.7
v 4 0 2
v 3 0 2
v 3 0 1.7
v 2.1 0.1 2
v 2.1 0.1 1.7
v 2 0.2 1.7
v 2 0.2 1.8
v 1.9 0.2 1.8
v 1.9 0.2 1.7
v 1.9 0.2 2
v -1.9 0.2 2
v -1.9 0.2 1.7
v -2 0.1 1.7
v -2 0.1 1.8
v -2.1 0.1 1.8
v -2.1 0.1 1.7
v -2.1 0.1 2
v -2.2 0.1 2
v -2.2 0.1 1.7
v 4 0 -1.7
v 3.7 0 1.7
v 3.7 0 -1.7
v 3.6 0 -1.7
v 3.6 0 1.7
v 3.3 0 1.7
v 3.3 0 -1.7
v 3.2 0 -1.7
v 3.2 0 1.7
v 3 0 -1.7
v 2.9 0.1 1.7
v 2.9 0.1 -1.7
v 2.8 0.1 -1.7
v 2.8 0.1 1.7
v 2.5 0.1 1.7
v 2.5 0.1 -1.7
v 2.4 0.1 -1.7
v 2.4 0.1 1.7
v 2.1 0.1 -1.7
v 2 0.2 -1.7
v 1.7 0.2 1.7
v 1.7 0.2 -1.7
v 1.6 0.2 -1.7
v 1.6 0.2 1.7
v 1.3 0.2 1.7
v 1.3 0.2 -1.7
v 1.2 0.2 -1.7
v 1.2 0.2 1.7
v 0.9 0.2 1.7
v 0.9 0.2 -1.7
v 0.8 0.2 -1.7
v 0.8 0.2 1.7
v 0.5 0.2 1.7
v 0.5 0.2 -1.7
v 0.4 0.2 -1.7
v 0.4 0.2 1.7
v 0.1 0.2 1.7
v 0.1 0.2 -1.7
v 0 0.2 -1.7
v 0 0.2 1.7
v -0.3 0.2 1.7
v -0.3 0.2 -1.7
v -0.4 0.2 -1.7
v -0.4 0.2 1.7
v -0.7 0.2 1.7
v -0.7 0.2 -1.7
v -0.8 0.2 -1.7
v -0.8 0.2 1.7
v -1.1 0.2 1.7
v -1.1 0.2 -1.7
v -1.2 0.2 -1.7
v -1.2 0.2 1.7
v -1.5 0.2 1.7
v -1.5 0.2 -1.7
v -1.6 0.2 -1.7
v -1.6 0.2 1.7
v -1.9 0.2 -1.7
v -2 0.1 -1.7
v -2.2 0.1 -1.7
v 2.1 0.1 -1.8
v 2.1 0.1 1.8
v 2 0.1 1.8
v 2 0.1 -1.8
v 2 0.2 -1.8
v 1.7 0.2 -1.8
v -1.9 0.2 -1.8
v -1.9 0.2 1.8
v -2 0.2 1.8
v -2 0.2 -1.8
v -2 0.1 -1.8
v -2.2 0.1 -1.8
v 4 0.5 -2
v 4 0.5 -1.8
v 3.9 0.5 -1.8
v 3.9 0.5 -2
v 4 0 -2
v 3.7 0 -2
v 3.9 0.5 -1.9
v 3.7 0.5 -1.9
v 3.7 0.5 -2
v 3.6 0 -2
v 3.3 0 -2
v 3.7 0.5 -1.8
v 3.3 0.5 -1.8
v 3.3 0.5 -2
v 3.2 0 -2
v 3.3 0.5 -1.9
v 3.1 0.5 -1.9
v 3.1 0.5 -2
v 3 0 -2
v 3.1 0.5 -1.8
v 3 0.5 -1.8
v 3 0.5 -2
v 2.9 0.1 -2
v 2.9 0.6 -1.8
v 2.9 0.6 -2
v 2.8 0.1 -2
v 2.9 0.6 -1.9
v 2.7 0.6 -1.9
v 2.7 0.6 -2
v 2.5 0.1 -2
v 2.4 0.1 -2
v 2.7 0.6 -1.8
v 2.3 0.6 -1.8
v 2.3 0.6 -2
v 2.1 0.1 -2
v 2.3 0.6 -1.9
v 2.1 0.6 -1.9
v 2.1 0.6 -2
v 2.1 0.6 -1.8
v 2 0.6 -1.8
v 2 0.6 -2
v 2.1 0 -2
v 2.1 0 -1.8
v 1.9 0 -1.8
v 1.9 0 -2
v 1.9 0.7 -1.8
v 1.9 0.7 -2
v 1.9 0.2 -2
v 1.9 0.2 -1.8
v 1.7 0.2 -2
v 1.9 0.7 -1.9
v 1.7 0.7 -1.9
v 1.7 0.7 -2
v 1.6 0.2 -2
v 1.3 0.2 -2
v 1.7 0.7 -1.8
v 1.3 0.7 -1.8
v 1.3 0.7 -2
v 1.2 0.2 -2
v 1.3 0.7 -1.9
v 1.1 0.7 -1.9
v 1.1 0.7 -2
v 0.9 0.2 -2
v 1.1 0.7 -1.8
v 0.9 0.7 -1.8
v 0.9 0.7 -2
v 0.8 0.2 -2
v 0.9 0.7 -1.9
v 0.7 0.7 -1.9
v 0.7 0.7 -2
v 0.5 0.2 -2
v 0.4 0.2 -2
v 0.7 0.7 -1.8
v 0.3 0.7 -1.8
v 0.3 0.7 -2
v 0.1 0.2 -2
v 0.3 0.7 -1.9
v 0.1 0.7 -1.9
v 0.1 0.7 -2
v 0 0.2 -2
v 0.1 0.7 -1.8
v -0.1 0.7 -1.8
v -0.1 0.7 -2
v -0.3 0.2 -2
v -0.1 0.7 -1.9
v -0.3 0.7 -1.9
v -0.3 0.7 -2
v -0.4 0.2 -2
v -0.7 0.2 -2
v -0.3 0.7 -1.8
v -0.7 0.7 -1.8
v -0.7 0.7 -2
v -0.8 0.2 -2
v -0.7 0.7 -1.9
v -0.9 0.7 -1.9
v -0.9 0.7 -2
v -1.1 0.2 -2
v -0.9 0.7 -1.8
v -1.1 0.7 -1.8
v -1.1 0.7 -2
v -1.2 0.2 -2
v -1.1 0.7 -1.9
v -1.3 0.7 -1.9
v -1.3 0.7 -2
v -1.5 0.2 -2
v -1.6 0.2 -2
v -1.3 0.7 -1.8
v -1.7 0.7 -1.8
v -1.7 0.7 -2
v -1.9 0.2 -2
v -1.7 0.7 -1.9
v -1.9 0.7 -1.9
v -1.9 0.7 -2
v -1.9 0.7 -1.8
v -1.9 0 -2
v -1.9 0 -1.8
v -2.1 0 -1.8
v -2.1 0 -2
v -2 0.6 -2
v -2 0.6 -1.8
v -2.1 0.6 -1.8
v -2.1 0.6 -2
v -2.1 0.1 -2
v -2.1 0.1 -1.8
v -2.2 0.1 -2
v -2.1 0.6 -1.9
v -2.2 0.6 -1.9
v -2.2 0.6 -2
v 1.9 0.1 1.8
v 1.9 0.1 -2
v -1.9 0.1 1.8
v -2.2 0.6 1.8
v 1.9 0.1 2
v 1.9 0.1 -1.8
v -1.9 0.1 -1.8
v -2.2 0.6 -1.8
v -3 0.2 1.9
v -3 0.2 2
v -3.1 0.1 1.9
v -4 0.1 1.9
v -4 0.1 2
v -3.1 0.1 2
v -3 0.7 1.8
v -3 0.7 2
v -3 0.6 1.8
v -4 0.6 1.8
v -4 0.6 2
v -3 0.6 2
v -2.3 0.2 1.7
v -2.3 0.2 1.8
v -2.4 0.2 1.7
v -2.7 0.2 1.7
v -2.7 0.2 1.9
v -2.4 0.2 1.9
v -2.8 0.2 1.7
v -2.9 0.2 1.7
v -2.9 0.2 1.8
v -2.8 0.2 1.8
v -3 0.2 1.7
v -2.9 0.2 1.9
v -3 0.1 1.7
v -3.1 0.1 1.7
v -3 0.1 2
v -3.2 0.1 1.7
v -3.3 0.1 1.7
v -3.3 0.1 1.8
v -3.2 0.1 1.8
v -3.7 0.1 1.7
v -3.7 0.1 1.9
v -3.3 0.1 1.9
v -3.9 0.1 1.7
v -3.9 0.1 1.8
v -3.7 0.1 1.8
v -2.3 0.2 -1.7
v -2.4 0.2 -1.7
v -2.7 0.2 -1.7
v -2.8 0.2 -1.7
v -3 0.2 -1.7
v -3 0.1 -1.7
v -3.1 0.1 -1.7
v -3.2 0.1 -1.7
v -3.5 0.1 -1.7
v -3.5 0.1 1.7
v -3.6 0.1 -1.7
v -3.9 0.1 -1.7
v -3.6 0.1 1.7
v -2.3 0.2 -1.8
v -2.7 0.2 -1.8
v -2.8 0.2 -1.8
v -2.7 0.2 1.8
v -3 0.2 -1.8
v -3.1 0.1 -1.8
v -3.2 0.1 -1.8
v -3.1 0.1 1.8
v -3.5 0.1 -1.8
v -3.7 0.1 -1.8
v -3.9 0.1 -1.8
v -3.7 0.1 -1.7
v -2.3 0.2 -2
v -2.3 0.2 -1.9
v -2.4 0.2 -2
v -2.3 0.2 1.9
v -2.7 0.2 -2
v -2.9 0.2 -2
v -2.9 0.2 -1.9
v -2.7 0.2 -1.9
v -3 0.2 -2
v -2.9 0.2 -1.8
v -3 0.7 -2
v -3 0.7 -1.8
v -3 0.1 -2
v -3.1 0.1 -2
v -3.3 0.1 -2
v -3.3 0.1 -1.9
v -3.1 0.1 -1.9
v -3.5 0.1 -2
v -3.3 0.1 -1.8
v -3.6 0.1 -2
v -3.7 0.1 -2
v -3.9 0.1 -2
v -3.9 0.1 -1.9
v -3.7 0.1 -1.9
v -4 0.1 -2
v -3.9 0.1 1.9
v -3 0.6 -2
v -4 0.6 -2
v -4 0.6 -1.8
v -3 0.6 -1.8
v -3 0.6 1.9
v -3.1 0.5 1.9
v -3.1 0.5 2
v -4 0.5 2
v -4 0.5 1.9
v -2.3 0.6 1.8
v -2.3 0.6 1.9
v -2.7 0.6 1.9
v -2.7 0.6 1.8
v -2.9 0.6 1.8
v -2.9 0.6 1.9
v -3 0.5 1.8
v -3 0.5 2
v -3.1 0.5 1.8
v -3.3 0.5 1.8
v -3.3 0.5 1.9
v -3.7 0.5 1.9
v -3.7 0.5 1.8
v -3.9 0.5 1.8
v -3.9 0.5 1.9
v -4 0.5 1.8
v -3 0 1.7
v -3 0 2
v -4 0 2
v -4 0 1.7
v -2.3 0.1 1.7
v -2.3 0.1 -1.7
v -2.4 0.1 -1.7
v -2.4 0.1 1.7
v -2.7 0.1 1.7
v -2.7 0.1 -1.7
v -2.8 0.1 -1.7
v -2.8 0.1 1.7
v -3 0 -1.7
v -3.1 0 1.7
v -3.1 0 -1.7
v -3.2 0 -1.7
v -3.2 0 1.7
v -3.5 0 1.7
v -3.5 0 -1.7
v -3.6 0 -1.7
v -3.6 0 1.7
v -3.9 0 1.7
v -3.9 0 -1.7
v -2.3 0.1 -2
v -2.3 0.6 -1.9
v -2.3 0.6 -2
v -2.4 0.1 -2
v -2.7 0.1 -2
v -2.3 0.6 -1.8
v -2.7 0.6 -1.8
v -2.7 0.6 -2
v -2.8 0.1 -2
v -2.7 0.6 -1.9
v -2.9 0.6 -1.9
v -2.9 0.6 -2
v -2.9 0.6 -1.8
v -3 0 -2
v -3.1 0 -2
v -3 0.5 -2
v -3 0.5 -1.8
v -3.1 0.5 -1.8
v -3.1 0.5 -2
v -3.2 0 -2
v -3.1 0.5 -1.9
v -3.3 0.5 -1.9
v -3.3 0.5 -2
v -3.5 0 -2
v -3.6 0 -2
v -3.3 0.5 -1.8
v -3.7 0.5 -1.8
v -3.7 0.5 -2
v -3.9 0 -2
v -3.7 0.5 -1.9
v -3.9 0.5 -1.9
v -3.9 0.5 -2
v -4 0 -2
v -3.9 0.5 -1.8
v -4 0.5 -1.8
v -4 0.5 -2

vt 0.00585938 0.5
vt 0.0839844 0.5

vn 0 1 0
vn 0 -1 0
vn -1 0 0
vn 1 0 0
vn 0 0 -1
vn 0 0 1

usemtl palette
f 1/1/1 2/1/1 4/1/1
f 4/1/1 2/1/1 3/1/1
f 5/1/1 6/1/1 8/1/1
f 8/1/1 6/1/1 7/1/1
f 9/1/1 10/1/1 12/1/1
f 12/1/1 10/1/1 11/1/1
f 13/1/1 14/1/1 16/1/1
f 16/1/1 14/1/1 15/1/1
f 17/1/1 18/1/1 20/1/1
f 20/1/1 18/1/1 19/1/1
f 21/1/1 22/1/1 24/1/1
f 24/1/1 22/1/1 23/1/1
f 25/1/1 26/1/1 28/1/1
f 28/1/1 26/1/1 27/1/1
f 29/1/1 30/1/1 32/1/1
f 32/1/1 30/1/1 31/1/1
f 33/1/1 34/1/1 35/1/1
f 35/1/1 34/1/1 4/1/1
f 34/1/1 36/1/1 38/1/1
f 38/1/1 36/1/1 37/1/1
f 39/1/1 40/1/1 42/1/1
f 42/1/1 40/1/1 41/1/1
f 43/1/1 44/1/1 46/1/1
f 46/1/1 44/1/1 45/1/1
f 44/1/1 47/1/1 48/1/1
f 48/1/1 47/1/1 2/1/1
f 49/1/1 50/1/1 51/1/1
f 51/1/1 50/1/1 8/1/1
f 52/1/1 53/1/1 55/1/1
f 55/1/1 53/1/1 54/1/1
f 53/1/1 56/1/1 58/1/1
f 58/1/1 56/1/1 57/1/1
f 56/1/1 59/1/1 61/1/1
f 61/1/1 59/1/1 60/1/1
f 62/1/1 63/1/1 64/1/1
f 64/1/1 63/1/1 12/1/1
f 63/1/1 65/1/1 67/1/1
f 67/1/1 65/1/1 66/1/1
f 68/1/1 69/1/1 71/1/1
f 71/1/1 69/1/1 70/1/1
f 72/1/1 73/1/1 75/1/1
f 75/1/1 73/1/1 74/1/1
f 73/1/1 76/1/1 78/1/1
f 78/1/1 76/1/1 77/1/1
f 79/1/1 80/1/1 82/1/1
f 82/1/1 80/1/1 81/1/1
f 80/1/1 83/1/1 85/1/1
f 85/1/1 83/1/1 84/1/1
f 83/1/1 86/1/1 88/1/1
f 88/1/1 86/1/1 87/1/1
f 89/1/1 90/1/1 92/1/1
f 92/1/1 90/1/1 91/1/1
f 90/1/1 93/1/1 95/1/1
f 95/1/1 93/1/1 94/1/1
f 96/1/1 97/1/1 99/1/1
f 99/1/1 97/1/1 98/1/1
f 100/1/1 101/1/1 103/1/1
f 103/1/1 101/1/1 102/1/1
f 101/1/1 104/1/1 106/1/1
f 106/1/1 104/1/1 105/1/1
f 107/1/1 108/1/1 110/1/1
f 110/1/1 108/1/1 109/1/1
f 108/1/1 111/1/1 113/1/1
f 113/1/1 111/1/1 112/1/1
f 111/1/1 114/1/1 116/1/1
f 116/1/1 114/1/1 115/1/1
f 117/1/1 118/1/1 119/1/1
f 119/1/1 118/1/1 16/1/1
f 118/1/1 120/1/1 122/1/1
f 122/1/1 120/1/1 121/1/1
f 123/2/1 124/2/1 33/2/1
f 33/2/1 124/2/1 36/2/1
f 125/2/1 126/2/1 39/2/1
f 39/2/1 126/2/1 40/2/1
f 127/2/1 128/2/1 43/2/1
f 43/2/1 128/2/1 47/2/1
f 129/2/1 130/2/1 49/2/1
f 49/2/1 130/2/1 50/2/1
f 131/2/1 132/2/1 52/2/1
f 52/2/1 132/2/1 133/2/1
f 134/2/1 135/2/1 136/2/1
f 136/2/1 135/2/1 59/2/1
f 137/2/1 138/2/1 62/2/1
f 62/2/1 138/2/1 65/2/1
f 139/2/1 140/2/1 68/2/1
f 68/2/1 140/2/1 69/2/1
f 141/2/1 142/2/1 72/2/1
f 72/2/1 142/2/1 76/2/1
f 143/2/1 144/2/1 79/2/1
f 79/2/1 144/2/1 145/2/1
f 146/2/1 147/2/1 148/2/1
f 148/2/1 147/2/1 86/2/1
f 149/2/1 150/2/1 89/2/1
f 89/2/1 150/2/1 93/2/1
f 151/2/1 152/2/1 96/2/1
f 96/2/1 152/2/1 97/2/1
f 153/2/1 154/2/1 100/2/1
f 100/2/1 154/2/1 104/2/1
f 155/2/1 156/2/1 107/2/1
f 107/2/1 156/2/1 157/2/1
f 158/2/1 159/2/1 160/2/1
f 160/2/1 159/2/1 114/2/1
f 161/2/1 162/2/1 117/2/1
f 117/2/1 162/2/1 120/2/1
f 163/1/1 164/1/1 165/1/1
f 165/1/1 164/1/1 124/1/1
f 166/1/1 167/1/1 168/1/1
f 168/1/1 167/1/1 46/1/1
f 167/1/1 169/1/1 127/1/1
f 127/1/1 169/1/1 128/1/1
f 170/1/1 171/1/1 172/1/1
f 172/1/1 171/1/1 55/1/1
f 171/1/1 173/1/1 131/1/1
f 131/1/1 173/1/1 132/1/1
f 174/1/1 175/1/1 176/1/1
f 176/1/1 175/1/1 135/1/1
f 177/1/1 178/1/1 179/1/1
f 179/1/1 178/1/1 138/1/1
f 180/1/1 181/1/1 182/1/1
f 182/1/1 181/1/1 75/1/1
f 181/1/1 183/1/1 141/1/1
f 141/1/1 183/1/1 142/1/1
f 183/1/1 184/1/1 185/1/1
f 185/1/1 184/1/1 82/1/1
f 184/1/1 186/1/1 143/1/1
f 143/1/1 186/1/1 144/1/1
f 187/1/1 188/1/1 189/1/1
f 189/1/1 188/1/1 147/1/1
f 190/1/1 191/1/1 192/1/1
f 192/1/1 191/1/1 150/1/1
f 193/1/1 194/1/1 195/1/1
f 195/1/1 194/1/1 103/1/1
f 194/1/1 196/1/1 153/1/1
f 153/1/1 196/1/1 154/1/1
f 196/1/1 197/1/1 198/1/1
f 198/1/1 197/1/1 110/1/1
f 197/1/1 199/1/1 155/1/1
f 155/1/1 199/1/1 156/1/1
f 200/1/1 201/1/1 202/1/1
f 202/1/1 201/1/1 159/1/1
f 203/1/1 204/1/1 205/1/1
f 205/1/1 204/1/1 162/1/1
f 206/1/1 207/1/1 123/1/1
f 123/1/1 207/1/1 165/1/1
f 207/1/1 208/1/1 210/1/1
f 210/1/1 208/1/1 209/1/1
f 208/1/1 211/1/1 212/1/1
f 212/1/1 211/1/1 42/1/1
f 211/1/1 213/1/1 125/1/1
f 125/1/1 213/1/1 126/1/1
f 213/1/1 214/1/1 216/1/1
f 216/1/1 214/1/1 215/1/1
f 214/1/1 217/1/1 218/1/1
f 218/1/1 217/1/1 169/1/1
f 219/1/1 220/1/1 222/1/1
f 222/1/1 220/1/1 221/1/1
f 223/1/1 224/1/1 129/1/1
f 129/1/1 224/1/1 130/1/1
f 224/1/1 225/1/1 227/1/1
f 227/1/1 225/1/1 226/1/1
f 225/1/1 228/1/1 229/1/1
f 229/1/1 228/1/1 173/1/1
f 228/1/1 230/1/1 133/1/1
f 133/1/1 230/1/1 136/1/1
f 230/1/1 231/1/1 134/1/1
f 134/1/1 231/1/1 176/1/1
f 231/1/1 232/1/1 234/1/1
f 234/1/1 232/1/1 233/1/1
f 232/1/1 235/1/1 236/1/1
f 236/1/1 235/1/1 6/1/1
f 237/1/1 238/1/1 240/1/1
f 240/1/1 238/1/1 239/1/1
f 241/1/1 242/1/1 137/1/1
f 137/1/1 242/1/1 179/1/1
f 242/1/1 243/1/1 245/1/1
f 245/1/1 243/1/1 244/1/1
f 243/1/1 246/1/1 247/1/1
f 247/1/1 246/1/1 71/1/1
f 246/1/1 248/1/1 139/1/1
f 139/1/1 248/1/1 140/1/1
f 248/1/1 249/1/1 251/1/1
f 251/1/1 249/1/1 250/1/1
f 249/1/1 252/1/1 253/1/1
f 253/1/1 252/1/1 183/1/1
f 252/1/1 254/1/1 256/1/1
f 256/1/1 254/1/1 255/1/1
f 254/1/1 257/1/1 258/1/1
f 258/1/1 257/1/1 186/1/1
f 257/1/1 259/1/1 145/1/1
f 145/1/1 259/1/1 148/1/1
f 259/1/1 260/1/1 146/1/1
f 146/1/1 260/1/1 189/1/1
f 260/1/1 261/1/1 263/1/1
f 263/1/1 261/1/1 262/1/1
f 261/1/1 264/1/1 265/1/1
f 265/1/1 264/1/1 92/1/1
f 264/1/1 266/1/1 149/1/1
f 149/1/1 266/1/1 192/1/1
f 266/1/1 267/1/1 269/1/1
f 269/1/1 267/1/1 268/1/1
f 267/1/1 270/1/1 271/1/1
f 271/1/1 270/1/1 99/1/1
f 270/1/1 272/1/1 151/1/1
f 151/1/1 272/1/1 152/1/1
f 272/1/1 273/1/1 275/1/1
f 275/1/1 273/1/1 274/1/1
f 273/1/1 276/1/1 277/1/1
f 277/1/1 276/1/1 196/1/1
f 276/1/1 278/1/1 280/1/1
f 280/1/1 278/1/1 279/1/1
f 278/1/1 281/1/1 282/1/1
f 282/1/1 281/1/1 199/1/1
f 281/1/1 283/1/1 157/1/1
f 157/1/1 283/1/1 160/1/1
f 283/1/1 284/1/1 158/1/1
f 158/1/1 284/1/1 202/1/1
f 284/1/1 285/1/1 287/1/1
f 287/1/1 285/1/1 286/1/1
f 285/1/1 288/1/1 289/1/1
f 289/1/1 288/1/1 10/1/1
f 290/1/1 291/1/1 293/1/1
f 293/1/1 291/1/1 292/1/1
f 294/1/1 295/1/1 161/1/1
f 161/1/1 295/1/1 205/1/1
f 295/1/1 296/1/1 298/1/1
f 298/1/1 296/1/1 297/1/1
f 299/1/1 300/1/1 302/1/1
f 302/1/1 300/1/1 301/1/1
f 303/1/2 304/1/2 306/1/2
f 306/1/2 304/1/2 305/1/2
f 307/1/2 308/1/2 310/1/2
f 310/1/2 308/1/2 309/1/2
f 311/1/2 312/1/2 313/1/2
f 313/1/2 312/1/2 32/1/2
f 314/1/2 315/1/2 317/1/2
f 317/1/2 315/1/2 316/1/2
f 318/1/2 319/1/2 320/1/2
f 320/1/2 319/1/2 304/1/2
f 321/1/2 322/1/2 324/1/2
f 324/1/2 322/1/2 323/1/2
f 325/1/2 326/1/2 327/1/2
f 327/1/2 326/1/2 306/1/2
f 18/1/2 19/1/2 328/1/2
f 328/1/2 19/1/2 308/1/2
f 329/1/2 330/1/2 332/1/2
f 332/1/2 330/1/2 331/1/2
f 333/1/2 334/1/2 335/1/2
f 335/1/2 334/1/2 310/1/2
f 336/1/2 337/1/2 339/1/2
f 339/1/2 337/1/2 338/1/2
f 22/1/2 23/1/2 340/1/2
f 340/1/2 23/1/2 312/1/2
f 341/1/2 342/1/2 344/1/2
f 344/1/2 342/1/2 343/1/2
f 345/1/2 346/1/2 348/1/2
f 348/1/2 346/1/2 347/1/2
f 349/1/2 350/1/2 352/1/2
f 352/1/2 350/1/2 351/1/2
f 353/1/2 354/1/2 356/1/2
f 356/1/2 354/1/2 355/1/2
f 357/1/2 358/1/2 360/1/2
f 360/1/2 358/1/2 359/1/2
f 361/1/2 362/1/2 364/1/2
f 364/1/2 362/1/2 363/1/2
f 365/1/2 366/1/2 368/1/2
f 368/1/2 366/1/2 367/1/2
f 369/1/2 370/1/2 29/1/2
f 29/1/2 370/1/2 313/1/2
f 371/1/2 372/1/2 374/1/2
f 374/1/2 372/1/2 373/1/2
f 375/1/2 376/1/2 377/1/2
f 377/1/2 376/1/2 315/1/2
f 378/1/2 379/1/2 381/1/2
f 381/1/2 379/1/2 380/1/2
f 47/1/2 3/1/2 383/1/2
f 383/1/2 3/1/2 382/1/2
f 384/1/2 385/1/2 387/1/2
f 387/1/2 385/1/2 386/1/2
f 387/1/2 388/1/2 390/1/2
f 390/1/2 388/1/2 389/1/2
f 391/1/2 392/1/2 394/1/2
f 394/1/2 392/1/2 393/1/2
f 394/1/2 395/1/2 397/1/2
f 397/1/2 395/1/2 396/1/2
f 398/2/2 378/2/2 400/2/2
f 400/2/2 378/2/2 399/2/2
f 401/2/2 402/2/2 404/2/2
f 404/2/2 402/2/2 403/2/2
f 405/2/2 406/2/2 407/2/2
f 407/2/2 406/2/2 381/2/2
f 128/2/2 47/2/2 409/2/2
f 409/2/2 47/2/2 408/2/2
f 410/2/2 411/2/2 413/2/2
f 413/2/2 411/2/2 412/2/2
f 414/2/2 415/2/2 416/2/2
f 416/2/2 415/2/2 383/2/2
f 417/2/2 384/2/2 419/2/2
f 419/2/2 384/2/2 418/2/2
f 420/2/2 421/2/2 423/2/2
f 423/2/2 421/2/2 422/2/2
f 424/2/2 425/2/2 427/2/2
f 427/2/2 425/2/2 426/2/2
f 428/2/2 429/2/2 431/2/2
f 431/2/2 429/2/2 430/2/2
f 432/2/2 433/2/2 435/2/2
f 435/2/2 433/2/2 434/2/2
f 436/2/2 437/2/2 439/2/2
f 439/2/2 437/2/2 438/2/2
f 440/2/2 441/2/2 443/2/2
f 443/2/2 441/2/2 442/2/2
f 444/2/2 445/2/2 447/2/2
f 447/2/2 445/2/2 446/2/2
f 448/2/2 449/2/2 451/2/2
f 451/2/2 449/2/2 450/2/2
f 452/2/2 453/2/2 454/2/2
f 454/2/2 453/2/2 390/2/2
f 455/2/2 391/2/2 456/2/2
f 456/2/2 391/2/2 397/2/2
f 457/1/2 458/1/2 460/1/2
f 460/1/2 458/1/2 459/1/2
f 461/1/2 417/1/2 462/1/2
f 462/1/2 417/1/2 419/1/2
f 463/1/2 464/1/2 466/1/2
f 466/1/2 464/1/2 465/1/2
f 467/1/2 455/1/2 468/1/2
f 468/1/2 455/1/2 456/1/2
f 469/1/2 470/1/2 472/1/2
f 472/1/2 470/1/2 471/1/2
f 473/1/2 398/1/2 474/1/2
f 474/1/2 398/1/2 400/1/2
f 472/1/2 475/1/2 477/1/2
f 477/1/2 475/1/2 476/1/2
f 474/1/2 399/1/2 478/1/2
f 478/1/2 399/1/2 402/1/2
f 478/1/2 401/1/2 479/1/2
f 479/1/2 401/1/2 404/1/2
f 477/1/2 480/1/2 482/1/2
f 482/1/2 480/1/2 481/1/2
f 479/1/2 403/1/2 483/1/2
f 483/1/2 403/1/2 406/1/2
f 482/1/2 484/1/2 486/1/2
f 486/1/2 484/1/2 485/1/2
f 483/1/2 405/1/2 487/1/2
f 487/1/2 405/1/2 407/1/2
f 486/1/2 488/1/2 490/1/2
f 490/1/2 488/1/2 489/1/2
f 217/1/2 128/1/2 491/1/2
f 491/1/2 128/1/2 409/1/2
f 220/1/2 221/1/2 493/1/2
f 493/1/2 221/1/2 492/1/2
f 491/1/2 408/1/2 494/1/2
f 494/1/2 408/1/2 411/1/2
f 493/1/2 495/1/2 497/1/2
f 497/1/2 495/1/2 496/1/2
f 494/1/2 410/1/2 498/1/2
f 498/1/2 410/1/2 413/1/2
f 498/1/2 412/1/2 499/1/2
f 499/1/2 412/1/2 415/1/2
f 497/1/2 500/1/2 502/1/2
f 502/1/2 500/1/2 501/1/2
f 499/1/2 414/1/2 503/1/2
f 503/1/2 414/1/2 416/1/2
f 502/1/2 504/1/2 506/1/2
f 506/1/2 504/1/2 505/1/2
f 506/1/2 507/1/2 509/1/2
f 509/1/2 507/1/2 508/1/2
f 510/1/2 511/1/2 513/1/2
f 513/1/2 511/1/2 512/1/2
f 238/1/2 239/1/2 515/1/2
f 515/1/2 239/1/2 514/1/2
f 516/1/2 517/1/2 518/1/2
f 518/1/2 517/1/2 462/1/2
f 515/1/2 519/1/2 521/1/2
f 521/1/2 519/1/2 520/1/2
f 518/1/2 418/1/2 522/1/2
f 522/1/2 418/1/2 421/1/2
f 522/1/2 420/1/2 523/1/2
f 523/1/2 420/1/2 423/1/2
f 521/1/2 524/1/2 526/1/2
f 526/1/2 524/1/2 525/1/2
f 523/1/2 422/1/2 527/1/2
f 527/1/2 422/1/2 425/1/2
f 526/1/2 528/1/2 530/1/2
f 530/1/2 528/1/2 529/1/2
f 527/1/2 424/1/2 531/1/2
f 531/1/2 424/1/2 427/1/2
f 530/1/2 532/1/2 534/1/2
f 534/1/2 532/1/2 533/1/2
f 531/1/2 426/1/2 535/1/2
f 535/1/2 426/1/2 429/1/2
f 534/1/2 536/1/2 538/1/2
f 538/1/2 536/1/2 537/1/2
f 535/1/2 428/1/2 539/1/2
f 539/1/2 428/1/2 431/1/2
f 539/1/2 430/1/2 540/1/2
f 540/1/2 430/1/2 433/1/2
f 538/1/2 541/1/2 543/1/2
f 543/1/2 541/1/2 542/1/2
f 540/1/2 432/1/2 544/1/2
f 544/1/2 432/1/2 435/1/2
f 543/1/2 545/1/2 547/1/2
f 547/1/2 545/1/2 546/1/2
f 544/1/2 434/1/2 548/1/2
f 548/1/2 434/1/2 437/1/2
f 547/1/2 549/1/2 551/1/2
f 551/1/2 549/1/2 550/1/2
f 548/1/2 436/1/2 552/1/2
f 552/1/2 436/1/2 439/1/2
f 551/1/2 553/1/2 555/1/2
f 555/1/2 553/1/2 554/1/2
f 552/1/2 438/1/2 556/1/2
f 556/1/2 438/1/2 441/1/2
f 556/1/2 440/1/2 557/1/2
f 557/1/2 440/1/2 443/1/2
f 555/1/2 558/1/2 560/1/2
f 560/1/2 558/1/2 559/1/2
f 557/1/2 442/1/2 561/1/2
f 561/1/2 442/1/2 445/1/2
f 560/1/2 562/1/2 564/1/2
f 564/1/2 562/1/2 563/1/2
f 561/1/2 444/1/2 565/1/2
f 565/1/2 444/1/2 447/1/2
f 564/1/2 566/1/2 568/1/2
f 568/1/2 566/1/2 567/1/2
f 565/1/2 446/1/2 569/1/2
f 569/1/2 446/1/2 449/1/2
f 568/1/2 570/1/2 572/1/2
f 572/1/2 570/1/2 571/1/2
f 569/1/2 448/1/2 573/1/2
f 573/1/2 448/1/2 451/1/2
f 573/1/2 450/1/2 574/1/2
f 574/1/2 450/1/2 453/1/2
f 572/1/2 575/1/2 577/1/2
f 577/1/2 575/1/2 576/1/2
f 574/1/2 452/1/2 578/1/2
f 578/1/2 452/1/2 454/1/2
f 577/1/2 579/1/2 581/1/2
f 581/1/2 579/1/2 580/1/2
f 581/1/2 582/1/2 299/1/2
f 299/1/2 582/1/2 302/1/2
f 583/1/2 584/1/2 586/1/2
f 586/1/2 584/1/2 585/1/2
f 587/1/2 588/1/2 590/1/2
f 590/1/2 588/1/2 589/1/2
f 591/1/2 592/1/2 593/1/2
f 593/1/2 592/1/2 468/1/2
f 590/1/2 594/1/2 596/1/2
f 596/1/2 594/1/2 595/1/2
f 395/1/3 393/1/3 373/1/3
f 373/1/3 393/1/3 374/1/3
f 3/1/3 47/1/3 380/1/3
f 380/1/3 47/1/3 381/1/3
f 47/2/3 128/2/3 381/2/3
f 381/2/3 128/2/3 407/2/3
f 128/1/3 217/1/3 407/1/3
f 407/1/3 217/1/3 487/1/3
f 592/1/3 591/1/3 585/1/3
f 585/1/3 591/1/3 586/1/3
f 388/1/3 386/1/3 338/1/3
f 338/1/3 386/1/3 339/1/3
f 385/1/3 461/1/3 459/1/3
f 459/1/3 461/1/3 460/1/3
f 517/1/3 516/1/3 512/1/3
f 512/1/3 516/1/3 513/1/3
f 11/1/3 288/1/3 119/1/3
f 119/1/3 288/1/3 294/1/3
f 322/2/3 321/2/3 212/2/3
f 212/2/3 321/2/3 37/2/3
f 326/2/3 325/2/3 48/2/3
f 48/2/3 325/2/3 45/2/3
f 480/2/3 476/2/3 164/2/3
f 164/2/3 476/2/3 209/2/3
f 488/2/3 485/2/3 218/2/3
f 218/2/3 485/2/3 215/2/3
f 19/1/3 18/1/3 305/1/3
f 305/1/3 18/1/3 327/1/3
f 330/2/3 329/2/3 58/2/3
f 58/2/3 329/2/3 54/2/3
f 334/2/3 333/2/3 236/2/3
f 236/2/3 333/2/3 60/2/3
f 500/2/3 496/2/3 229/2/3
f 229/2/3 496/2/3 226/2/3
f 507/2/3 505/2/3 175/2/3
f 175/2/3 505/2/3 233/2/3
f 221/1/3 220/1/3 489/1/3
f 489/1/3 220/1/3 490/1/3
f 23/1/3 22/1/3 309/1/3
f 309/1/3 22/1/3 335/1/3
f 342/2/3 341/2/3 247/2/3
f 247/2/3 341/2/3 66/2/3
f 346/2/3 345/2/3 78/2/3
f 78/2/3 345/2/3 74/2/3
f 350/2/3 349/2/3 85/2/3
f 85/2/3 349/2/3 81/2/3
f 354/2/3 353/2/3 265/2/3
f 265/2/3 353/2/3 87/2/3
f 358/2/3 357/2/3 271/2/3
f 271/2/3 357/2/3 94/2/3
f 362/2/3 361/2/3 106/2/3
f 106/2/3 361/2/3 102/2/3
f 366/2/3 365/2/3 113/2/3
f 113/2/3 365/2/3 109/2/3
f 370/2/3 369/2/3 289/2/3
f 289/2/3 369/2/3 115/2/3
f 524/2/3 520/2/3 178/2/3
f 178/2/3 520/2/3 244/2/3
f 532/2/3 529/2/3 253/2/3
f 253/2/3 529/2/3 250/2/3
f 541/2/3 537/2/3 258/2/3
f 258/2/3 537/2/3 255/2/3
f 549/2/3 546/2/3 188/2/3
f 188/2/3 546/2/3 262/2/3
f 558/2/3 554/2/3 191/2/3
f 191/2/3 554/2/3 268/2/3
f 566/2/3 563/2/3 277/2/3
f 277/2/3 563/2/3 274/2/3
f 575/2/3 571/2/3 282/2/3
f 282/2/3 571/2/3 279/2/3
f 582/2/3 580/2/3 201/2/3
f 201/2/3 580/2/3 286/2/3
f 239/1/3 238/1/3 508/1/3
f 508/1/3 238/1/3 509/1/3
f 27/1/3 26/1/3 32/1/3
f 32/1/3 26/1/3 29/1/3
f 292/1/3 291/1/3 302/1/3
f 302/1/3 291/1/3 299/1/3
f 382/1/4 337/1/4 458/1/4
f 458/1/4 337/1/4 336/1/4
f 35/1/4 379/1/4 33/1/4
f 33/1/4 379/1/4 378/1/4
f 33/2/4 378/2/4 123/2/4
f 123/2/4 378/2/4 398/2/4
f 123/1/4 398/1/4 206/1/4
f 206/1/4 398/1/4 473/1/4
f 457/1/4 511/1/4 503/1/4
f 503/1/4 511/1/4 510/1/4
f 389/1/4 372/1/4 464/1/4
f 464/1/4 372/1/4 371/1/4
f 51/1/4 3/1/4 49/1/4
f 49/1/4 3/1/4 47/1/4
f 465/1/4 392/1/4 117/1/4
f 117/1/4 392/1/4 391/1/4
f 49/2/4 47/2/4 129/2/4
f 129/2/4 47/2/4 128/2/4
f 117/2/4 391/2/4 161/2/4
f 161/2/4 391/2/4 455/2/4
f 161/1/4 455/1/4 466/1/4
f 466/1/4 455/1/4 467/1/4
f 129/1/4 128/1/4 223/1/4
f 223/1/4 128/1/4 217/1/4
f 463/1/4 584/1/4 578/1/4
f 578/1/4 584/1/4 583/1/4
f 64/1/4 7/1/4 62/1/4
f 62/1/4 7/1/4 384/1/4
f 62/2/4 384/2/4 137/2/4
f 137/2/4 384/2/4 417/2/4
f 137/1/4 417/1/4 241/1/4
f 241/1/4 417/1/4 235/1/4
f 303/2/4 1/2/4 320/2/4
f 320/2/4 1/2/4 38/2/4
f 323/2/4 41/2/4 324/2/4
f 324/2/4 41/2/4 168/2/4
f 471/2/4 163/2/4 475/2/4
f 475/2/4 163/2/4 210/2/4
f 481/2/4 166/2/4 484/2/4
f 484/2/4 166/2/4 216/2/4
f 20/1/4 319/1/4 17/1/4
f 17/1/4 319/1/4 318/1/4
f 307/2/4 5/2/4 328/2/4
f 328/2/4 5/2/4 172/2/4
f 331/2/4 57/2/4 332/2/4
f 332/2/4 57/2/4 61/2/4
f 314/2/4 13/2/4 377/2/4
f 377/2/4 13/2/4 122/2/4
f 492/2/4 170/2/4 495/2/4
f 495/2/4 170/2/4 227/2/4
f 501/2/4 174/2/4 504/2/4
f 504/2/4 174/2/4 234/2/4
f 589/2/4 203/2/4 594/2/4
f 594/2/4 203/2/4 298/2/4
f 222/1/4 470/1/4 219/1/4
f 219/1/4 470/1/4 469/1/4
f 24/1/4 19/1/4 21/1/4
f 21/1/4 19/1/4 18/1/4
f 311/2/4 9/2/4 340/2/4
f 340/2/4 9/2/4 67/2/4
f 343/2/4 70/2/4 344/2/4
f 344/2/4 70/2/4 182/2/4
f 347/2/4 77/2/4 348/2/4
f 348/2/4 77/2/4 185/2/4
f 351/2/4 84/2/4 352/2/4
f 352/2/4 84/2/4 88/2/4
f 355/2/4 91/2/4 356/2/4
f 356/2/4 91/2/4 95/2/4
f 359/2/4 98/2/4 360/2/4
f 360/2/4 98/2/4 195/2/4
f 363/2/4 105/2/4 364/2/4
f 364/2/4 105/2/4 198/2/4
f 367/2/4 112/2/4 368/2/4
f 368/2/4 112/2/4 116/2/4
f 32/1/4 376/1/4 29/1/4
f 29/1/4 376/1/4 375/1/4
f 514/2/4 177/2/4 519/2/4
f 519/2/4 177/2/4 245/2/4
f 525/2/4 180/2/4 528/2/4
f 528/2/4 180/2/4 251/2/4
f 533/2/4 183/2/4 536/2/4
f 536/2/4 183/2/4 256/2/4
f 542/2/4 187/2/4 545/2/4
f 545/2/4 187/2/4 263/2/4
f 550/2/4 190/2/4 553/2/4
f 553/2/4 190/2/4 269/2/4
f 559/2/4 193/2/4 562/2/4
f 562/2/4 193/2/4 275/2/4
f 567/2/4 196/2/4 570/2/4
f 570/2/4 196/2/4 280/2/4
f 576/2/4 200/2/4 579/2/4
f 579/2/4 200/2/4 287/2/4
f 240/1/4 221/1/4 237/1/4
f 237/1/4 221/1/4 220/1/4
f 302/1/4 588/1/4 299/1/4
f 299/1/4 588/1/4 587/1/4
f 28/1/4 23/1/4 25/1/4
f 25/1/4 23/1/4 22/1/4
f 293/1/4 239/1/4 290/1/4
f 290/1/4 239/1/4 238/1/4
f 37/2/5 321/2/5 38/2/5
f 38/2/5 321/2/5 320/2/5
f 209/2/5 476/2/5 210/2/5
f 210/2/5 476/2/5 475/2/5
f 45/2/5 325/2/5 168/2/5
f 168/2/5 325/2/5 324/2/5
f 215/2/5 485/2/5 216/2/5
f 216/2/5 485/2/5 484/2/5
f 487/1/5 217/1/5 473/1/5
f 473/1/5 217/1/5 206/1/5
f 327/1/5 18/1/5 318/1/5
f 318/1/5 18/1/5 17/1/5
f 490/1/5 220/1/5 469/1/5
f 469/1/5 220/1/5 219/1/5
f 54/2/5 329/2/5 172/2/5
f 172/2/5 329/2/5 328/2/5
f 226/2/5 496/2/5 227/2/5
f 227/2/5 496/2/5 495/2/5
f 60/2/5 333/2/5 61/2/5
f 61/2/5 333/2/5 332/2/5
f 233/2/5 505/2/5 234/2/5
f 234/2/5 505/2/5 504/2/5
f 335/1/5 22/1/5 18/1/5
f 18/1/5 22/1/5 21/1/5
f 509/1/5 238/1/5 220/1/5
f 220/1/5 238/1/5 237/1/5
f 339/1/5 597/1/5 336/1/5
f 336/1/5 597/1/5 458/1/5
f 513/1/5 598/1/5 510/1/5
f 510/1/5 598/1/5 503/1/5
f 597/1/5 386/1/5 459/1/5
f 459/1/5 386/1/5 385/1/5
f 598/1/5 516/1/5 217/1/5
f 217/1/5 516/1/5 223/1/5
f 66/2/5 341/2/5 67/2/5
f 67/2/5 341/2/5 340/2/5
f 244/2/5 520/2/5 245/2/5
f 245/2/5 520/2/5 519/2/5
f 74/2/5 345/2/5 182/2/5
f 182/2/5 345/2/5 344/2/5
f 250/2/5 529/2/5 251/2/5
f 251/2/5 529/2/5 528/2/5
f 81/2/5 349/2/5 185/2/5
f 185/2/5 349/2/5 348/2/5
f 255/2/5 537/2/5 256/2/5
f 256/2/5 537/2/5 536/2/5
f 87/2/5 353/2/5 88/2/5
f 88/2/5 353/2/5 352/2/5
f 262/2/5 546/2/5 263/2/5
f 263/2/5 546/2/5 545/2/5
f 94/2/5 357/2/5 95/2/5
f 95/2/5 357/2/5 356/2/5
f 268/2/5 554/2/5 269/2/5
f 269/2/5 554/2/5 553/2/5
f 102/2/5 361/2/5 195/2/5
f 195/2/5 361/2/5 360/2/5
f 274/2/5 563/2/5 275/2/5
f 275/2/5 563/2/5 562/2/5
f 109/2/5 365/2/5 198/2/5
f 198/2/5 365/2/5 364/2/5
f 279/2/5 571/2/5 280/2/5
f 280/2/5 571/2/5 570/2/5
f 115/2/5 369/2/5 116/2/5
f 116/2/5 369/2/5 368/2/5
f 286/2/5 580/2/5 287/2/5
f 287/2/5 580/2/5 579/2/5
f 392/1/5 465/1/5 599/1/5
f 599/1/5 465/1/5 464/1/5
f 294/1/5 288/1/5 235/1/5
f 235/1/5 288/1/5 241/1/5
f 29/1/5 26/1/5 22/1/5
f 22/1/5 26/1/5 25/1/5
f 299/1/5 291/1/5 238/1/5
f 238/1/5 291/1/5 290/1/5
f 374/1/5 393/1/5 371/1/5
f 371/1/5 393/1/5 599/1/5
f 586/1/5 295/1/5 583/1/5
f 583/1/5 295/1/5 578/1/5
f 593/1/5 296/1/5 591/1/5
f 591/1/5 296/1/5 295/1/5
f 121/2/5 600/2/5 122/2/5
f 122/2/5 600/2/5 377/2/5
f 297/2/5 595/2/5 298/2/5
f 298/2/5 595/2/5 594/2/5
f 600/1/5 30/1/5 375/1/5
f 375/1/5 30/1/5 29/1/5
f 596/1/5 300/1/5 587/1/5
f 587/1/5 300/1/5 299/1/5
f 212/2/6 1/2/6 322/2/6
f 322/2/6 1/2/6 303/2/6
f 164/2/6 163/2/6 480/2/6
f 480/2/6 163/2/6 471/2/6
f 48/2/6 41/2/6 326/2/6
f 326/2/6 41/2/6 323/2/6
f 218/2/6 166/2/6 488/2/6
f 488/2/6 166/2/6 481/2/6
f 380/1/6 379/1/6 3/1/6
f 3/1/6 379/1/6 35/1/6
f 305/1/6 319/1/6 19/1/6
f 19/1/6 319/1/6 20/1/6
f 489/1/6 470/1/6 221/1/6
f 221/1/6 470/1/6 222/1/6
f 58/2/6 5/2/6 330/2/6
f 330/2/6 5/2/6 307/2/6
f 229/2/6 170/2/6 500/2/6
f 500/2/6 170/2/6 492/2/6
f 236/2/6 57/2/6 334/2/6
f 334/2/6 57/2/6 331/2/6
f 175/2/6 174/2/6 507/2/6
f 507/2/6 174/2/6 501/2/6
f 309/1/6 19/1/6 23/1/6
f 23/1/6 19/1/6 24/1/6
f 508/1/6 221/1/6 239/1/6
f 239/1/6 221/1/6 240/1/6
f 338/1/6 337/1/6 601/1/6
f 601/1/6 337/1/6 382/1/6
f 512/1/6 511/1/6 602/1/6
f 602/1/6 511/1/6 457/1/6
f 601/1/6 3/1/6 388/1/6
f 388/1/6 3/1/6 51/1/6
f 602/1/6 460/1/6 517/1/6
f 517/1/6 460/1/6 461/1/6
f 247/2/6 9/2/6 342/2/6
f 342/2/6 9/2/6 311/2/6
f 178/2/6 177/2/6 524/2/6
f 524/2/6 177/2/6 514/2/6
f 78/2/6 70/2/6 346/2/6
f 346/2/6 70/2/6 343/2/6
f 253/2/6 180/2/6 532/2/6
f 532/2/6 180/2/6 525/2/6
f 85/2/6 77/2/6 350/2/6
f 350/2/6 77/2/6 347/2/6
f 258/2/6 183/2/6 541/2/6
f 541/2/6 183/2/6 533/2/6
f 265/2/6 84/2/6 354/2/6
f 354/2/6 84/2/6 351/2/6
f 188/2/6 187/2/6 549/2/6
f 549/2/6 187/2/6 542/2/6
f 271/2/6 91/2/6 358/2/6
f 358/2/6 91/2/6 355/2/6
f 191/2/6 190/2/6 558/2/6
f 558/2/6 190/2/6 550/2/6
f 106/2/6 98/2/6 362/2/6
f 362/2/6 98/2/6 359/2/6
f 277/2/6 193/2/6 566/2/6
f 566/2/6 193/2/6 559/2/6
f 113/2/6 105/2/6 366/2/6
f 366/2/6 105/2/6 363/2/6
f 282/2/6 196/2/6 575/2/6
f 575/2/6 196/2/6 567/2/6
f 289/2/6 112/2/6 370/2/6
f 370/2/6 112/2/6 367/2/6
f 201/2/6 200/2/6 582/2/6
f 582/2/6 200/2/6 576/2/6
f 467/1/6 603/1/6 466/1/6
f 466/1/6 603/1/6 463/1/6
f 119/1/6 7/1/6 11/1/6
f 11/1/6 7/1/6 64/1/6
f 32/1/6 23/1/6 27/1/6
f 27/1/6 23/1/6 28/1/6
f 302/1/6 239/1/6 292/1/6
f 292/1/6 239/1/6 293/1/6
f 585/1/6 584/1/6 592/1/6
f 592/1/6 584/1/6 603/1/6
f 373/1/6 372/1/6 16/1/6
f 16/1/6 372/1/6 389/1/6
f 396/1/6 395/1/6 15/1/6
f 15/1/6 395/1/6 16/1/6
f 14/2/6 13/2/6 317/2/6
f 317/2/6 13/2/6 314/2/6
f 204/2/6 203/2/6 604/2/6
f 604/2/6 203/2/6 589/2/6
f 316/1/6 376/1/6 31/1/6
f 31/1/6 376/1/6 32/1/6
f 604/1/6 588/1/6 301/1/6
f 301/1/6 588/1/6 302/1/6
f 14/1/1 605/1/1 15/1/1
f 15/1/1 605/1/1 606/1/1
f 607/1/1 608/1/1 610/1/1
f 610/1/1 608/1/1 609/1/1
f 30/1/1 611/1/1 31/1/1
f 31/1/1 611/1/1 612/1/1
f 613/1/1 614/1/1 616/1/1
f 616/1/1 614/1/1 615/1/1
f 120/1/1 617/1/1 121/1/1
f 121/1/1 617/1/1 618/1/1
f 619/1/1 620/1/1 622/1/1
f 622/1/1 620/1/1 621/1/1
f 623/1/1 624/1/1 626/1/1
f 626/1/1 624/1/1 625/1/1
f 624/1/1 627/1/1 628/1/1
f 628/1/1 627/1/1 605/1/1
f 629/1/1 630/1/1 631/1/1
f 631/1/1 630/1/1 610/1/1
f 632/1/1 633/1/1 635/1/1
f 635/1/1 633/1/1 634/1/1
f 633/1/1 636/1/1 638/1/1
f 638/1/1 636/1/1 637/1/1
f 636/1/1 639/1/1 641/1/1
f 641/1/1 639/1/1 640/1/1
f 162/2/1 642/2/1 120/2/1
f 120/2/1 642/2/1 617/2/1
f 643/2/1 644/2/1 619/2/1
f 619/2/1 644/2/1 620/2/1
f 645/2/1 646/2/1 623/2/1
f 623/2/1 646/2/1 627/2/1
f 647/2/1 648/2/1 629/2/1
f 629/2/1 648/2/1 630/2/1
f 649/2/1 650/2/1 632/2/1
f 632/2/1 650/2/1 651/2/1
f 652/2/1 653/2/1 654/2/1
f 654/2/1 653/2/1 639/2/1
f 204/1/1 655/1/1 162/1/1
f 162/1/1 655/1/1 642/1/1
f 656/1/1 657/1/1 658/1/1
f 658/1/1 657/1/1 626/1/1
f 657/1/1 659/1/1 645/1/1
f 645/1/1 659/1/1 646/1/1
f 660/1/1 661/1/1 662/1/1
f 662/1/1 661/1/1 635/1/1
f 661/1/1 663/1/1 649/1/1
f 649/1/1 663/1/1 650/1/1
f 664/1/1 665/1/1 666/1/1
f 666/1/1 665/1/1 653/1/1
f 296/1/1 667/1/1 297/1/1
f 297/1/1 667/1/1 668/1/1
f 667/1/1 669/1/1 670/1/1
f 670/1/1 669/1/1 622/1/1
f 669/1/1 671/1/1 643/1/1
f 643/1/1 671/1/1 644/1/1
f 671/1/1 672/1/1 674/1/1
f 674/1/1 672/1/1 673/1/1
f 672/1/1 675/1/1 676/1/1
f 676/1/1 675/1/1 659/1/1
f 300/1/1 677/1/1 301/1/1
f 301/1/1 677/1/1 678/1/1
f 679/1/1 680/1/1 647/1/1
f 647/1/1 680/1/1 648/1/1
f 680/1/1 681/1/1 683/1/1
f 683/1/1 681/1/1 682/1/1
f 681/1/1 684/1/1 685/1/1
f 685/1/1 684/1/1 663/1/1
f 684/1/1 686/1/1 651/1/1
f 651/1/1 686/1/1 654/1/1
f 686/1/1 687/1/1 652/1/1
f 652/1/1 687/1/1 666/1/1
f 687/1/1 688/1/1 690/1/1
f 690/1/1 688/1/1 689/1/1
f 688/1/1 691/1/1 692/1/1
f 692/1/1 691/1/1 608/1/1
f 693/1/1 694/1/1 696/1/1
f 696/1/1 694/1/1 695/1/1
f 317/1/2 316/1/2 697/1/2
f 697/1/2 316/1/2 616/1/2
f 698/1/2 699/1/2 701/1/2
f 701/1/2 699/1/2 700/1/2
f 702/1/2 703/1/2 705/1/2
f 705/1/2 703/1/2 704/1/2
f 706/1/2 707/1/2 613/1/2
f 613/1/2 707/1/2 697/1/2
f 708/1/2 709/1/2 710/1/2
f 710/1/2 709/1/2 699/1/2
f 711/1/2 712/1/2 714/1/2
f 714/1/2 712/1/2 713/1/2
f 715/1/2 716/1/2 717/1/2
f 717/1/2 716/1/2 701/1/2
f 397/1/2 396/1/2 629/1/2
f 629/1/2 396/1/2 631/1/2
f 718/1/2 719/1/2 721/1/2
f 721/1/2 719/1/2 720/1/2
f 456/2/2 397/2/2 723/2/2
f 723/2/2 397/2/2 722/2/2
f 724/2/2 725/2/2 727/2/2
f 727/2/2 725/2/2 726/2/2
f 728/2/2 729/2/2 647/2/2
f 647/2/2 729/2/2 629/2/2
f 730/2/2 718/2/2 732/2/2
f 732/2/2 718/2/2 731/2/2
f 733/2/2 734/2/2 736/2/2
f 736/2/2 734/2/2 735/2/2
f 737/2/2 738/2/2 740/2/2
f 740/2/2 738/2/2 739/2/2
f 593/1/2 456/1/2 741/1/2
f 741/1/2 456/1/2 723/1/2
f 596/1/2 595/1/2 743/1/2
f 743/1/2 595/1/2 742/1/2
f 741/1/2 722/1/2 744/1/2
f 744/1/2 722/1/2 725/1/2
f 744/1/2 724/1/2 745/1/2
f 745/1/2 724/1/2 727/1/2
f 743/1/2 746/1/2 748/1/2
f 748/1/2 746/1/2 747/1/2
f 745/1/2 726/1/2 749/1/2
f 749/1/2 726/1/2 729/1/2
f 748/1/2 750/1/2 752/1/2
f 752/1/2 750/1/2 751/1/2
f 749/1/2 728/1/2 679/1/2
f 679/1/2 728/1/2 647/1/2
f 752/1/2 753/1/2 693/1/2
f 693/1/2 753/1/2 696/1/2
f 754/1/2 730/1/2 755/1/2
f 755/1/2 730/1/2 732/1/2
f 756/1/2 757/1/2 759/1/2
f 759/1/2 757/1/2 758/1/2
f 755/1/2 731/1/2 760/1/2
f 760/1/2 731/1/2 734/1/2
f 759/1/2 761/1/2 763/1/2
f 763/1/2 761/1/2 762/1/2
f 760/1/2 733/1/2 764/1/2
f 764/1/2 733/1/2 736/1/2
f 764/1/2 735/1/2 765/1/2
f 765/1/2 735/1/2 738/1/2
f 763/1/2 766/1/2 768/1/2
f 768/1/2 766/1/2 767/1/2
f 765/1/2 737/1/2 769/1/2
f 769/1/2 737/1/2 740/1/2
f 768/1/2 770/1/2 772/1/2
f 772/1/2 770/1/2 771/1/2
f 769/1/2 739/1/2 773/1/2
f 773/1/2 739/1/2 721/1/2
f 772/1/2 774/1/2 776/1/2
f 776/1/2 774/1/2 775/1/2
f 609/1/3 691/1/3 720/1/3
f 720/1/3 691/1/3 773/1/3
f 606/1/3 627/1/3 631/1/3
f 631/1/3 627/1/3 629/1/3
f 627/2/3 646/2/3 629/2/3
f 629/2/3 646/2/3 647/2/3
f 646/1/3 675/1/3 647/1/3
f 647/1/3 675/1/3 679/1/3
f 712/2/3 711/2/3 638/2/3
f 638/2/3 711/2/3 634/2/3
f 716/2/3 715/2/3 692/2/3
f 692/2/3 715/2/3 640/2/3
f 766/2/3 762/2/3 685/2/3
f 685/2/3 762/2/3 682/2/3
f 774/2/3 771/2/3 665/2/3
f 665/2/3 771/2/3 689/2/3
f 703/2/3 702/2/3 670/2/3
f 670/2/3 702/2/3 618/2/3
f 707/2/3 706/2/3 628/2/3
f 628/2/3 706/2/3 625/2/3
f 615/1/3 614/1/3 700/1/3
f 700/1/3 614/1/3 717/1/3
f 746/2/3 742/2/3 655/2/3
f 655/2/3 742/2/3 668/2/3
f 753/2/3 751/2/3 676/2/3
f 676/2/3 751/2/3 673/2/3
f 695/1/3 694/1/3 775/1/3
f 775/1/3 694/1/3 776/1/3
f 612/1/3 611/1/3 616/1/3
f 616/1/3 611/1/3 613/1/3
f 678/1/3 677/1/3 696/1/3
f 696/1/3 677/1/3 693/1/3
f 631/1/4 719/1/4 629/1/4
f 629/1/4 719/1/4 718/1/4
f 629/2/4 718/2/4 647/2/4
f 647/2/4 718/2/4 730/2/4
f 647/1/4 730/1/4 679/1/4
f 679/1/4 730/1/4 754/1/4
f 698/2/4 607/2/4 710/2/4
f 710/2/4 607/2/4 662/2/4
f 713/2/4 637/2/4 714/2/4
f 714/2/4 637/2/4 641/2/4
f 758/2/4 660/2/4 761/2/4
f 761/2/4 660/2/4 683/2/4
f 767/2/4 664/2/4 770/2/4
f 770/2/4 664/2/4 690/2/4
f 704/2/4 621/2/4 705/2/4
f 705/2/4 621/2/4 658/2/4
f 616/1/4 709/1/4 613/1/4
f 613/1/4 709/1/4 708/1/4
f 747/2/4 656/2/4 750/2/4
f 750/2/4 656/2/4 674/2/4
f 696/1/4 757/1/4 693/1/4
f 693/1/4 757/1/4 756/1/4
f 618/2/5 702/2/5 121/2/5
f 121/2/5 702/2/5 600/2/5
f 668/2/5 742/2/5 297/2/5
f 297/2/5 742/2/5 595/2/5
f 625/2/5 706/2/5 658/2/5
f 658/2/5 706/2/5 705/2/5
f 673/2/5 751/2/5 674/2/5
f 674/2/5 751/2/5 750/2/5
f 679/1/5 675/1/5 593/1/5
f 593/1/5 675/1/5 296/1/5
f 613/1/5 611/1/5 600/1/5
f 600/1/5 611/1/5 30/1/5
f 693/1/5 677/1/5 596/1/5
f 596/1/5 677/1/5 300/1/5
f 634/2/5 711/2/5 662/2/5
f 662/2/5 711/2/5 710/2/5
f 682/2/5 762/2/5 683/2/5
f 683/2/5 762/2/5 761/2/5
f 640/2/5 715/2/5 641/2/5
f 641/2/5 715/2/5 714/2/5
f 689/2/5 771/2/5 690/2/5
f 690/2/5 771/2/5 770/2/5
f 773/1/5 691/1/5 754/1/5
f 754/1/5 691/1/5 679/1/5
f 717/1/5 614/1/5 708/1/5
f 708/1/5 614/1/5 613/1/5
f 776/1/5 694/1/5 756/1/5
f 756/1/5 694/1/5 693/1/5
f 670/2/6 14/2/6 703/2/6
f 703/2/6 14/2/6 317/2/6
f 655/2/6 204/2/6 746/2/6
f 746/2/6 204/2/6 604/2/6
f 628/2/6 621/2/6 707/2/6
f 707/2/6 621/2/6 704/2/6
f 676/2/6 656/2/6 753/2/6
f 753/2/6 656/2/6 747/2/6
f 631/1/6 396/1/6 606/1/6
f 606/1/6 396/1/6 15/1/6
f 616/1/6 316/1/6 612/1/6
f 612/1/6 316/1/6 31/1/6
f 696/1/6 604/1/6 678/1/6
f 678/1/6 604/1/6 301/1/6
f 638/2/6 607/2/6 712/2/6
f 712/2/6 607/2/6 698/2/6
f 685/2/6 660/2/6 766/2/6
f 766/2/6 660/2/6 758/2/6
f 692/2/6 637/2/6 716/2/6
f 716/2/6 637/2/6 713/2/6
f 665/2/6 664/2/6 774/2/6
f 774/2/6 664/2/6 767/2/6
f 720/1/6 719/1/6 609/1/6
f 609/1/6 719/1/6 631/1/6
f 700/1/6 709/1/6 615/1/6
f 615/1/6 709/1/6 616/1/6
f 775/1/6 757/1/6 695/1/6
f 695/1/6 757/1/6 696/1/6
