# Vengi binary mesh normalized for Tanks of Freedom II

mtllib ../../materials/vox_building.mtl
o coin

v 0.8 0.8 0
v 0.7 0.8 0
v 0.7 0.8 0.1
v 0.8 0.8 0.1
v 0.7 0.6 0
v 0.6 0.6 0
v 0.6 0.6 0.1
v 0.7 0.6 0.1
v 0.6 0.5 0
v 0.5 0.5 0
v 0.5 0.5 0.1
v 0.6 0.5 0.1
v 0.5 0.4 0
v 0.4 0.4 0
v 0.4 0.4 0.1
v 0.5 0.4 0.1
v 0.4 0.3 0
v 0.2 0.3 0
v 0.2 0.3 0.1
v 0.4 0.3 0.1
v 0.2 0.2 0
v -0.2 0.2 0
v -0.2 0.2 0.1
v 0.2 0.2 0.1
v -0.2 0.3 0
v -0.4 0.3 0
v -0.4 0.3 0.1
v -0.2 0.3 0.1
v -0.4 0.4 0
v -0.5 0.4 0
v -0.5 0.4 0.1
v -0.4 0.4 0.1
v -0.5 0.5 0
v -0.6 0.5 0
v -0.6 0.5 0.1
v -0.5 0.5 0.1
v -0.6 0.6 0
v -0.7 0.6 0
v -0.7 0.6 0.1
v -0.6 0.6 0.1
v -0.7 0.7 0
v -0.8 0.7 0
v -0.8 0.7 0.1
v -0.7 0.7 0.1
v 1 1.3 -0.2
v 0.9 1.3 -0.2
v 0.9 1.3 0.1
v 1 1.3 0.1
v 0.9 1.5 -0.2
v 0.8 1.5 -0.2
v 0.8 1.5 0.1
v 0.9 1.5 0.1
v 0.8 0.8 -0.2
v 0.7 0.8 -0.2
v 0.7 0.8 -0.1
v 0.8 0.8 -0.1
v 0.8 1.6 -0.2
v 0.7 1.6 -0.2
v 0.7 1.6 0.1
v 0.8 1.6 0.1
v 0.7 0.6 -0.2
v 0.6 0.6 -0.2
v 0.6 0.6 -0.1
v 0.7 0.6 -0.1
v 0.7 1.7 -0.2
v 0.6 1.7 -0.2
v 0.6 1.7 0.1
v 0.7 1.7 0.1
v 0.6 0.5 -0.2
v 0.5 0.5 -0.2
v 0.5 0.5 -0.1
v 0.6 0.5 -0.1
v 0.6 1.8 -0.2
v 0.5 1.8 -0.2
v 0.5 1.8 0.1
v 0.6 1.8 0.1
v 0.5 0.4 -0.2
v 0.4 0.4 -0.2
v 0.4 0.4 -0.1
v 0.5 0.4 -0.1
v 0.5 1.9 -0.2
v 0.3 1.9 -0.2
v 0.3 1.9 0.1
v 0.5 1.9 0.1
v 0.4 0.3 -0.2
v 0.2 0.3 -0.2
v 0.2 0.3 -0.1
v 0.4 0.3 -0.1
v 0.2 0.2 -0.2
v -0.2 0.2 -0.2
v -0.2 0.2 -0.1
v 0.2 0.2 -0.1
v 0.3 2 -0.2
v -0.3 2 -0.2
v -0.3 2 0.1
v 0.3 2 0.1
v -0.2 0.3 -0.2
v -0.4 0.3 -0.2
v -0.4 0.3 -0.1
v -0.2 0.3 -0.1
v -0.4 0.4 -0.2
v -0.5 0.4 -0.2
v -0.5 0.4 -0.1
v -0.4 0.4 -0.1
v -0.3 1.9 -0.2
v -0.5 1.9 -0.2
v -0.5 1.9 0.1
v -0.3 1.9 0.1
v -0.5 0.5 -0.2
v -0.6 0.5 -0.2
v -0.6 0.5 -0.1
v -0.5 0.5 -0.1
v -0.5 1.8 -0.2
v -0.6 1.8 -0.2
v -0.6 1.8 0.1
v -0.5 1.8 0.1
v -0.6 0.6 -0.2
v -0.7 0.6 -0.2
v -0.7 0.6 -0.1
v -0.6 0.6 -0.1
v -0.6 1.7 -0.2
v -0.7 1.7 -0.2
v -0.7 1.7 0.1
v -0.6 1.7 0.1
v -0.7 0.7 -0.2
v -0.8 0.7 -0.2
v -0.8 0.7 -0.1
v -0.7 0.7 -0.1
v -0.7 1.6 -0.2
v -0.8 1.6 -0.2
v -0.8 1.6 0.1
v -0.7 1.6 0.1
v -0.8 1.5 -0.2
v -0.9 1.5 -0.2
v -0.9 1.5 0.1
v -0.8 1.5 0.1
v -0.9 1.3 -0.2
v -1 1.3 -0.2
v -1 1.3 0.1
v -0.9 1.3 0.1
v 0.8 1.2 0
v 0.8 1.2 0.1
v 0.7 1.2 0.1
v 0.7 1.2 0
v 0.7 1.4 0
v 0.7 1.4 0.1
v 0.6 1.4 0.1
v 0.6 1.4 0
v 0.6 1.5 0
v 0.6 1.5 0.1
v 0.5 1.5 0.1
v 0.5 1.5 0
v 0.5 1.6 0
v 0.5 1.6 0.1
v 0.4 1.6 0.1
v 0.4 1.6 0
v 0.4 1.7 0
v 0.4 1.7 0.1
v 0.2 1.7 0.1
v 0.2 1.7 0
v 0.2 1.8 0
v 0.2 1.8 0.1
v -0.2 1.8 0.1
v -0.2 1.8 0
v -0.2 1.7 0
v -0.2 1.7 0.1
v -0.4 1.7 0.1
v -0.4 1.7 0
v -0.4 1.6 0
v -0.4 1.6 0.1
v -0.5 1.6 0.1
v -0.5 1.6 0
v -0.5 1.5 0
v -0.5 1.5 0.1
v -0.6 1.5 0.1
v -0.6 1.5 0
v -0.6 1.4 0
v -0.6 1.4 0.1
v -0.7 1.4 0.1
v -0.7 1.4 0
v -0.7 1.2 0
v -0.7 1.2 0.1
v -0.8 1.2 0.1
v -0.8 1.2 0
v 1 0.7 -0.2
v 1 0.7 0.1
v 0.9 0.7 0.1
v 0.9 0.7 -0.2
v 0.9 0.5 -0.2
v 0.9 0.5 0.1
v 0.8 0.5 0.1
v 0.8 0.5 -0.2
v 0.8 0.4 -0.2
v 0.8 0.4 0.1
v 0.7 0.4 0.1
v 0.7 0.4 -0.2
v 0.8 1.2 -0.2
v 0.8 1.2 -0.1
v 0.7 1.2 -0.1
v 0.7 1.2 -0.2
v 0.7 0.3 -0.2
v 0.7 0.3 0.1
v 0.6 0.3 0.1
v 0.6 0.3 -0.2
v 0.7 1.4 -0.2
v 0.7 1.4 -0.1
v 0.6 1.4 -0.1
v 0.6 1.4 -0.2
v 0.6 0.2 -0.2
v 0.6 0.2 0.1
v 0.5 0.2 0.1
v 0.5 0.2 -0.2
v 0.6 1.5 -0.2
v 0.6 1.5 -0.1
v 0.5 1.5 -0.1
v 0.5 1.5 -0.2
v 0.5 1.6 -0.2
v 0.5 1.6 -0.1
v 0.4 1.6 -0.1
v 0.4 1.6 -0.2
v 0.5 0.1 -0.2
v 0.5 0.1 0.1
v 0.3 0.1 0.1
v 0.3 0.1 -0.2
v 0.4 1.7 -0.2
v 0.4 1.7 -0.1
v 0.2 1.7 -0.1
v 0.2 1.7 -0.2
v 0.2 1.8 -0.2
v 0.2 1.8 -0.1
v -0.2 1.8 -0.1
v -0.2 1.8 -0.2
v 0.3 0 -0.2
v 0.3 0 0.1
v -0.3 0 0.1
v -0.3 0 -0.2
v -0.2 1.7 -0.2
v -0.2 1.7 -0.1
v -0.4 1.7 -0.1
v -0.4 1.7 -0.2
v -0.3 0.1 -0.2
v -0.3 0.1 0.1
v -0.5 0.1 0.1
v -0.5 0.1 -0.2
v -0.4 1.6 -0.2
v -0.4 1.6 -0.1
v -0.5 1.6 -0.1
v -0.5 1.6 -0.2
v -0.5 0.2 -0.2
v -0.5 0.2 0.1
v -0.6 0.2 0.1
v -0.6 0.2 -0.2
v -0.5 1.5 -0.2
v -0.5 1.5 -0.1
v -0.6 1.5 -0.1
v -0.6 1.5 -0.2
v -0.6 0.3 -0.2
v -0.6 0.3 0.1
v -0.7 0.3 0.1
v -0.7 0.3 -0.2
v -0.6 1.4 -0.2
v -0.6 1.4 -0.1
v -0.7 1.4 -0.1
v -0.7 1.4 -0.2
v -0.7 0.4 -0.2
v -0.7 0.4 0.1
v -0.8 0.4 0.1
v -0.8 0.4 -0.2
v -0.7 1.2 -0.2
v -0.7 1.2 -0.1
v -0.8 1.2 -0.1
v -0.8 1.2 -0.2
v -0.8 0.5 -0.2
v -0.8 0.5 0.1
v -0.9 0.5 0.1
v -0.9 0.5 -0.2
v -0.9 0.7 -0.2
v -0.9 0.7 0.1
v -1 0.7 0.1
v -1 0.7 -0.2
v 0.8 1.3 -0.2
v 1 0.8 -0.2
v 0.7 0.7 -0.2
v 0.9 0.6 -0.2
v 0.7 1 -0.1
v 0.8 1 -0.1
v 0.7 1.3 -0.2
v 0.7 1.5 -0.2
v 0.4 0.6 -0.1
v 0.4 0.8 -0.1
v 0.4 1 -0.1
v 0.4 1.1 -0.1
v 0.4 1.3 -0.1
v 0.7 1.3 -0.1
v 0.7 1.1 -0.1
v 0.3 0.6 -0.1
v 0.3 1 -0.1
v 0.3 1.1 -0.1
v 0.3 1.3 -0.1
v 0.3 1.4 -0.1
v 0.2 0.6 -0.1
v 0.2 1.4 -0.1
v 0.1 0.7 -0.1
v 0.1 1 -0.1
v 0.2 1 -0.1
v 0.2 0.7 -0.1
v -0.1 0.7 -0.1
v -0.1 0.9 -0.1
v 0.1 0.9 -0.1
v -0.2 0.6 -0.1
v -0.2 0.7 -0.1
v -0.2 0.9 -0.1
v -0.2 1 -0.1
v -0.2 1.3 -0.1
v -0.2 1.4 -0.1
v 0.2 1.3 -0.1
v -0.4 0.6 -0.1
v -0.4 1 -0.1
v -0.4 1.3 -0.1
v -0.5 0.6 -0.1
v -0.5 1.3 -0.1
v -0.7 1.3 -0.1
v -0.9 0.6 -0.2
v -0.9 1.4 -0.2
v -0.7 1.3 -0.2
v -1 1.2 -0.2
v 1 0.8 0.1
v 0.8 1.3 0.1
v 0.9 0.6 0.1
v 0.7 0.7 0.1
v 0.7 1 0
v 0.8 1 0
v 0.7 1.3 0.1
v 0.7 1.5 0.1
v 0.4 0.6 0
v 0.4 0.8 0
v 0.4 1 0
v 0.4 1.1 0
v 0.7 1.1 0
v 0.7 1.3 0
v 0.4 1.3 0
v 0.3 0.6 0
v 0.3 1 0
v 0.3 1.1 0
v 0.3 1.3 0
v 0.3 1.4 0
v 0.2 0.6 0
v 0.2 1.4 0
v 0.1 0.7 0
v 0.2 0.7 0
v 0.2 1 0
v 0.1 1 0
v -0.1 0.7 0
v 0.1 0.9 0
v -0.1 0.9 0
v -0.2 0.6 0
v -0.2 0.7 0
v -0.2 0.9 0
v -0.2 1 0
v -0.2 1.3 0
v 0.2 1.3 0
v -0.2 1.4 0
v -0.4 0.6 0
v -0.4 1 0
v -0.4 1.3 0
v -0.5 0.6 0
v -0.5 1.3 0
v -0.7 1.3 0
v -0.9 0.6 0.1
v -0.7 1.3 0.1
v -0.9 1.4 0.1
v -1 1.2 0.1

vt 0.0253906 0.5
vt 0.0957031 0.5

vn 0 1 0
vn 0 -1 0
vn -1 0 0
vn 1 0 0
vn 0 0 -1
vn 0 0 1

usemtl palette
f 1/2/1 2/2/1 4/2/1
f 4/2/1 2/2/1 3/2/1
f 5/2/1 6/2/1 8/2/1
f 8/2/1 6/2/1 7/2/1
f 9/2/1 10/2/1 12/2/1
f 12/2/1 10/2/1 11/2/1
f 13/2/1 14/2/1 16/2/1
f 16/2/1 14/2/1 15/2/1
f 17/2/1 18/2/1 20/2/1
f 20/2/1 18/2/1 19/2/1
f 21/2/1 22/2/1 24/2/1
f 24/2/1 22/2/1 23/2/1
f 25/2/1 26/2/1 28/2/1
f 28/2/1 26/2/1 27/2/1
f 29/2/1 30/2/1 32/2/1
f 32/2/1 30/2/1 31/2/1
f 33/2/1 34/2/1 36/2/1
f 36/2/1 34/2/1 35/2/1
f 37/2/1 38/2/1 40/2/1
f 40/2/1 38/2/1 39/2/1
f 41/2/1 42/2/1 44/2/1
f 44/2/1 42/2/1 43/2/1
f 45/2/1 46/2/1 48/2/1
f 48/2/1 46/2/1 47/2/1
f 49/2/1 50/2/1 52/2/1
f 52/2/1 50/2/1 51/2/1
f 53/2/1 54/2/1 56/2/1
f 56/2/1 54/2/1 55/2/1
f 57/2/1 58/2/1 60/2/1
f 60/2/1 58/2/1 59/2/1
f 61/2/1 62/2/1 64/2/1
f 64/2/1 62/2/1 63/2/1
f 65/2/1 66/2/1 68/2/1
f 68/2/1 66/2/1 67/2/1
f 69/2/1 70/2/1 72/2/1
f 72/2/1 70/2/1 71/2/1
f 73/2/1 74/2/1 76/2/1
f 76/2/1 74/2/1 75/2/1
f 77/2/1 78/2/1 80/2/1
f 80/2/1 78/2/1 79/2/1
f 81/2/1 82/2/1 84/2/1
f 84/2/1 82/2/1 83/2/1
f 85/2/1 86/2/1 88/2/1
f 88/2/1 86/2/1 87/2/1
f 89/2/1 90/2/1 92/2/1
f 92/2/1 90/2/1 91/2/1
f 93/2/1 94/2/1 96/2/1
f 96/2/1 94/2/1 95/2/1
f 97/2/1 98/2/1 100/2/1
f 100/2/1 98/2/1 99/2/1
f 101/2/1 102/2/1 104/2/1
f 104/2/1 102/2/1 103/2/1
f 105/2/1 106/2/1 108/2/1
f 108/2/1 106/2/1 107/2/1
f 109/2/1 110/2/1 112/2/1
f 112/2/1 110/2/1 111/2/1
f 113/2/1 114/2/1 116/2/1
f 116/2/1 114/2/1 115/2/1
f 117/2/1 118/2/1 120/2/1
f 120/2/1 118/2/1 119/2/1
f 121/2/1 122/2/1 124/2/1
f 124/2/1 122/2/1 123/2/1
f 125/2/1 126/2/1 128/2/1
f 128/2/1 126/2/1 127/2/1
f 129/2/1 130/2/1 132/2/1
f 132/2/1 130/2/1 131/2/1
f 133/2/1 134/2/1 136/2/1
f 136/2/1 134/2/1 135/2/1
f 137/2/1 138/2/1 140/2/1
f 140/2/1 138/2/1 139/2/1
f 141/2/2 142/2/2 144/2/2
f 144/2/2 142/2/2 143/2/2
f 145/2/2 146/2/2 148/2/2
f 148/2/2 146/2/2 147/2/2
f 149/2/2 150/2/2 152/2/2
f 152/2/2 150/2/2 151/2/2
f 153/2/2 154/2/2 156/2/2
f 156/2/2 154/2/2 155/2/2
f 157/2/2 158/2/2 160/2/2
f 160/2/2 158/2/2 159/2/2
f 161/2/2 162/2/2 164/2/2
f 164/2/2 162/2/2 163/2/2
f 165/2/2 166/2/2 168/2/2
f 168/2/2 166/2/2 167/2/2
f 169/2/2 170/2/2 172/2/2
f 172/2/2 170/2/2 171/2/2
f 173/2/2 174/2/2 176/2/2
f 176/2/2 174/2/2 175/2/2
f 177/2/2 178/2/2 180/2/2
f 180/2/2 178/2/2 179/2/2
f 181/2/2 182/2/2 184/2/2
f 184/2/2 182/2/2 183/2/2
f 185/2/2 186/2/2 188/2/2
f 188/2/2 186/2/2 187/2/2
f 189/2/2 190/2/2 192/2/2
f 192/2/2 190/2/2 191/2/2
f 193/2/2 194/2/2 196/2/2
f 196/2/2 194/2/2 195/2/2
f 197/2/2 198/2/2 200/2/2
f 200/2/2 198/2/2 199/2/2
f 201/2/2 202/2/2 204/2/2
f 204/2/2 202/2/2 203/2/2
f 205/2/2 206/2/2 208/2/2
f 208/2/2 206/2/2 207/2/2
f 209/2/2 210/2/2 212/2/2
f 212/2/2 210/2/2 211/2/2
f 213/2/2 214/2/2 216/2/2
f 216/2/2 214/2/2 215/2/2
f 217/2/2 218/2/2 220/2/2
f 220/2/2 218/2/2 219/2/2
f 221/2/2 222/2/2 224/2/2
f 224/2/2 222/2/2 223/2/2
f 225/2/2 226/2/2 228/2/2
f 228/2/2 226/2/2 227/2/2
f 229/2/2 230/2/2 232/2/2
f 232/2/2 230/2/2 231/2/2
f 233/2/2 234/2/2 236/2/2
f 236/2/2 234/2/2 235/2/2
f 237/2/2 238/2/2 240/2/2
f 240/2/2 238/2/2 239/2/2
f 241/2/2 242/2/2 244/2/2
f 244/2/2 242/2/2 243/2/2
f 245/2/2 246/2/2 248/2/2
f 248/2/2 246/2/2 247/2/2
f 249/2/2 250/2/2 252/2/2
f 252/2/2 250/2/2 251/2/2
f 253/2/2 254/2/2 256/2/2
f 256/2/2 254/2/2 255/2/2
f 257/2/2 258/2/2 260/2/2
f 260/2/2 258/2/2 259/2/2
f 261/2/2 262/2/2 264/2/2
f 264/2/2 262/2/2 263/2/2
f 265/2/2 266/2/2 268/2/2
f 268/2/2 266/2/2 267/2/2
f 269/2/2 270/2/2 272/2/2
f 272/2/2 270/2/2 271/2/2
f 273/2/2 274/2/2 276/2/2
f 276/2/2 274/2/2 275/2/2
f 277/2/2 278/2/2 280/2/2
f 280/2/2 278/2/2 279/2/2
f 242/2/3 241/2/3 235/2/3
f 235/2/3 241/2/3 236/2/3
f 250/2/3 249/2/3 243/2/3
f 243/2/3 249/2/3 244/2/3
f 19/2/3 18/2/3 24/2/3
f 24/2/3 18/2/3 21/2/3
f 87/2/3 86/2/3 92/2/3
f 92/2/3 86/2/3 89/2/3
f 258/2/3 257/2/3 251/2/3
f 251/2/3 257/2/3 252/2/3
f 15/2/3 14/2/3 20/2/3
f 20/2/3 14/2/3 17/2/3
f 79/2/3 78/2/3 88/2/3
f 88/2/3 78/2/3 85/2/3
f 266/2/3 265/2/3 259/2/3
f 259/2/3 265/2/3 260/2/3
f 11/2/3 10/2/3 16/2/3
f 16/2/3 10/2/3 13/2/3
f 71/2/3 70/2/3 80/2/3
f 80/2/3 70/2/3 77/2/3
f 274/2/3 273/2/3 267/2/3
f 267/2/3 273/2/3 268/2/3
f 7/2/3 6/2/3 12/2/3
f 12/2/3 6/2/3 9/2/3
f 63/2/3 62/2/3 72/2/3
f 72/2/3 62/2/3 69/2/3
f 278/2/3 277/2/3 275/2/3
f 275/2/3 277/2/3 276/2/3
f 3/2/3 2/2/3 8/2/3
f 8/2/3 2/2/3 5/2/3
f 55/2/3 54/2/3 64/2/3
f 64/2/3 54/2/3 61/2/3
f 142/2/3 141/2/3 4/2/3
f 4/2/3 141/2/3 1/2/3
f 198/2/3 197/2/3 56/2/3
f 56/2/3 197/2/3 53/2/3
f 139/2/3 138/2/3 279/2/3
f 279/2/3 138/2/3 280/2/3
f 146/2/3 145/2/3 143/2/3
f 143/2/3 145/2/3 144/2/3
f 206/2/3 205/2/3 199/2/3
f 199/2/3 205/2/3 200/2/3
f 150/2/3 149/2/3 147/2/3
f 147/2/3 149/2/3 148/2/3
f 214/2/3 213/2/3 207/2/3
f 207/2/3 213/2/3 208/2/3
f 135/2/3 134/2/3 140/2/3
f 140/2/3 134/2/3 137/2/3
f 154/2/3 153/2/3 151/2/3
f 151/2/3 153/2/3 152/2/3
f 218/2/3 217/2/3 215/2/3
f 215/2/3 217/2/3 216/2/3
f 131/2/3 130/2/3 136/2/3
f 136/2/3 130/2/3 133/2/3
f 158/2/3 157/2/3 155/2/3
f 155/2/3 157/2/3 156/2/3
f 226/2/3 225/2/3 219/2/3
f 219/2/3 225/2/3 220/2/3
f 123/2/3 122/2/3 132/2/3
f 132/2/3 122/2/3 129/2/3
f 162/2/3 161/2/3 159/2/3
f 159/2/3 161/2/3 160/2/3
f 230/2/3 229/2/3 227/2/3
f 227/2/3 229/2/3 228/2/3
f 115/2/3 114/2/3 124/2/3
f 124/2/3 114/2/3 121/2/3
f 107/2/3 106/2/3 116/2/3
f 116/2/3 106/2/3 113/2/3
f 95/2/3 94/2/3 108/2/3
f 108/2/3 94/2/3 105/2/3
f 223/2/4 234/2/4 224/2/4
f 224/2/4 234/2/4 233/2/4
f 211/2/4 222/2/4 212/2/4
f 212/2/4 222/2/4 221/2/4
f 28/2/4 23/2/4 25/2/4
f 25/2/4 23/2/4 22/2/4
f 203/2/4 210/2/4 204/2/4
f 204/2/4 210/2/4 209/2/4
f 100/2/4 91/2/4 97/2/4
f 97/2/4 91/2/4 90/2/4
f 32/2/4 27/2/4 29/2/4
f 29/2/4 27/2/4 26/2/4
f 195/2/4 202/2/4 196/2/4
f 196/2/4 202/2/4 201/2/4
f 104/2/4 99/2/4 101/2/4
f 101/2/4 99/2/4 98/2/4
f 36/2/4 31/2/4 33/2/4
f 33/2/4 31/2/4 30/2/4
f 191/2/4 194/2/4 192/2/4
f 192/2/4 194/2/4 193/2/4
f 112/2/4 103/2/4 109/2/4
f 109/2/4 103/2/4 102/2/4
f 40/2/4 35/2/4 37/2/4
f 37/2/4 35/2/4 34/2/4
f 120/2/4 111/2/4 117/2/4
f 117/2/4 111/2/4 110/2/4
f 44/2/4 39/2/4 41/2/4
f 41/2/4 39/2/4 38/2/4
f 187/2/4 190/2/4 188/2/4
f 188/2/4 190/2/4 189/2/4
f 128/2/4 119/2/4 125/2/4
f 125/2/4 119/2/4 118/2/4
f 183/2/4 43/2/4 184/2/4
f 184/2/4 43/2/4 42/2/4
f 271/2/4 127/2/4 272/2/4
f 272/2/4 127/2/4 126/2/4
f 48/2/4 186/2/4 45/2/4
f 45/2/4 186/2/4 185/2/4
f 179/2/4 182/2/4 180/2/4
f 180/2/4 182/2/4 181/2/4
f 263/2/4 270/2/4 264/2/4
f 264/2/4 270/2/4 269/2/4
f 175/2/4 178/2/4 176/2/4
f 176/2/4 178/2/4 177/2/4
f 52/2/4 47/2/4 49/2/4
f 49/2/4 47/2/4 46/2/4
f 255/2/4 262/2/4 256/2/4
f 256/2/4 262/2/4 261/2/4
f 171/2/4 174/2/4 172/2/4
f 172/2/4 174/2/4 173/2/4
f 60/2/4 51/2/4 57/2/4
f 57/2/4 51/2/4 50/2/4
f 247/2/4 254/2/4 248/2/4
f 248/2/4 254/2/4 253/2/4
f 167/2/4 170/2/4 168/2/4
f 168/2/4 170/2/4 169/2/4
f 68/2/4 59/2/4 65/2/4
f 65/2/4 59/2/4 58/2/4
f 239/2/4 246/2/4 240/2/4
f 240/2/4 246/2/4 245/2/4
f 163/2/4 166/2/4 164/2/4
f 164/2/4 166/2/4 165/2/4
f 76/2/4 67/2/4 73/2/4
f 73/2/4 67/2/4 66/2/4
f 231/2/4 238/2/4 232/2/4
f 232/2/4 238/2/4 237/2/4
f 84/2/4 75/2/4 81/2/4
f 81/2/4 75/2/4 74/2/4
f 96/2/4 83/2/4 93/2/4
f 93/2/4 83/2/4 82/2/4
f 53/2/5 281/2/5 282/2/5
f 282/2/5 281/2/5 45/2/5
f 61/2/5 283/2/5 284/2/5
f 284/2/5 283/2/5 188/2/5
f 283/2/5 54/2/5 185/2/5
f 185/2/5 54/2/5 282/2/5
f 285/1/5 199/1/5 286/1/5
f 286/1/5 199/1/5 198/1/5
f 200/2/5 287/2/5 197/2/5
f 197/2/5 287/2/5 281/2/5
f 287/2/5 288/2/5 46/2/5
f 46/2/5 288/2/5 49/2/5
f 69/2/5 62/2/5 189/2/5
f 189/2/5 62/2/5 284/2/5
f 208/2/5 213/2/5 205/2/5
f 205/2/5 213/2/5 288/2/5
f 77/2/5 70/2/5 193/2/5
f 193/2/5 70/2/5 192/2/5
f 216/2/5 217/2/5 50/2/5
f 50/2/5 217/2/5 57/2/5
f 85/2/5 78/2/5 201/2/5
f 201/2/5 78/2/5 196/2/5
f 289/1/5 290/1/5 64/1/5
f 64/1/5 290/1/5 55/1/5
f 290/1/5 291/1/5 56/1/5
f 56/1/5 291/1/5 286/1/5
f 292/1/5 293/1/5 295/1/5
f 295/1/5 293/1/5 294/1/5
f 220/2/5 225/2/5 58/2/5
f 58/2/5 225/2/5 65/2/5
f 296/2/5 297/2/5 289/2/5
f 289/2/5 297/2/5 291/2/5
f 297/2/5 298/2/5 285/2/5
f 285/2/5 298/2/5 295/2/5
f 298/2/5 299/2/5 292/2/5
f 292/2/5 299/2/5 293/2/5
f 299/2/5 300/2/5 294/2/5
f 294/2/5 300/2/5 206/2/5
f 89/2/5 86/2/5 209/2/5
f 209/2/5 86/2/5 204/2/5
f 301/1/5 302/1/5 296/1/5
f 296/1/5 302/1/5 300/1/5
f 228/2/5 229/2/5 66/2/5
f 66/2/5 229/2/5 73/2/5
f 303/2/5 304/2/5 306/2/5
f 306/2/5 304/2/5 305/2/5
f 307/1/5 308/1/5 303/1/5
f 303/1/5 308/1/5 309/1/5
f 91/1/5 100/1/5 92/1/5
f 92/1/5 100/1/5 87/1/5
f 310/2/5 311/2/5 301/2/5
f 301/2/5 311/2/5 306/2/5
f 311/2/5 312/2/5 307/2/5
f 307/2/5 312/2/5 308/2/5
f 312/2/5 313/2/5 309/2/5
f 309/2/5 313/2/5 304/2/5
f 314/1/5 315/1/5 316/1/5
f 316/1/5 315/1/5 302/1/5
f 238/1/5 231/1/5 227/1/5
f 227/1/5 231/1/5 230/1/5
f 236/2/5 241/2/5 233/2/5
f 233/2/5 241/2/5 224/2/5
f 105/2/5 94/2/5 82/2/5
f 82/2/5 94/2/5 93/2/5
f 99/1/5 104/1/5 88/1/5
f 88/1/5 104/1/5 79/1/5
f 317/1/5 318/1/5 310/1/5
f 310/1/5 318/1/5 313/1/5
f 318/1/5 319/1/5 305/1/5
f 305/1/5 319/1/5 316/1/5
f 246/1/5 239/1/5 219/1/5
f 219/1/5 239/1/5 226/1/5
f 244/2/5 249/2/5 221/2/5
f 221/2/5 249/2/5 212/2/5
f 103/1/5 112/1/5 80/1/5
f 80/1/5 112/1/5 71/1/5
f 320/2/5 321/2/5 317/2/5
f 317/2/5 321/2/5 319/2/5
f 254/1/5 247/1/5 215/1/5
f 215/1/5 247/1/5 218/1/5
f 113/2/5 106/2/5 74/2/5
f 74/2/5 106/2/5 81/2/5
f 252/2/5 257/2/5 90/2/5
f 90/2/5 257/2/5 97/2/5
f 111/1/5 120/1/5 72/1/5
f 72/1/5 120/1/5 63/1/5
f 262/1/5 255/1/5 207/1/5
f 207/1/5 255/1/5 214/1/5
f 121/2/5 114/2/5 237/2/5
f 237/2/5 114/2/5 232/2/5
f 260/2/5 265/2/5 98/2/5
f 98/2/5 265/2/5 101/2/5
f 119/1/5 322/1/5 320/1/5
f 320/1/5 322/1/5 321/1/5
f 322/2/5 263/2/5 314/2/5
f 314/2/5 263/2/5 315/2/5
f 129/2/5 122/2/5 245/2/5
f 245/2/5 122/2/5 240/2/5
f 268/2/5 273/2/5 102/2/5
f 102/2/5 273/2/5 109/2/5
f 127/1/5 271/1/5 128/1/5
f 128/1/5 271/1/5 270/1/5
f 133/2/5 130/2/5 253/2/5
f 253/2/5 130/2/5 248/2/5
f 276/2/5 323/2/5 110/2/5
f 110/2/5 323/2/5 117/2/5
f 323/2/5 277/2/5 118/2/5
f 118/2/5 277/2/5 125/2/5
f 137/2/5 324/2/5 325/2/5
f 325/2/5 324/2/5 264/2/5
f 324/2/5 134/2/5 261/2/5
f 261/2/5 134/2/5 256/2/5
f 280/2/5 326/2/5 126/2/5
f 126/2/5 326/2/5 272/2/5
f 326/2/5 138/2/5 269/2/5
f 269/2/5 138/2/5 325/2/5
f 4/2/6 327/2/6 328/2/6
f 328/2/6 327/2/6 48/2/6
f 8/2/6 329/2/6 330/2/6
f 330/2/6 329/2/6 187/2/6
f 330/2/6 186/2/6 3/2/6
f 3/2/6 186/2/6 327/2/6
f 331/1/6 332/1/6 144/1/6
f 144/1/6 332/1/6 141/1/6
f 143/2/6 142/2/6 333/2/6
f 333/2/6 142/2/6 328/2/6
f 333/2/6 47/2/6 334/2/6
f 334/2/6 47/2/6 52/2/6
f 12/2/6 190/2/6 7/2/6
f 7/2/6 190/2/6 329/2/6
f 147/2/6 146/2/6 150/2/6
f 150/2/6 146/2/6 334/2/6
f 16/2/6 194/2/6 11/2/6
f 11/2/6 194/2/6 191/2/6
f 151/2/6 51/2/6 154/2/6
f 154/2/6 51/2/6 60/2/6
f 20/2/6 202/2/6 15/2/6
f 15/2/6 202/2/6 195/2/6
f 335/1/6 5/1/6 336/1/6
f 336/1/6 5/1/6 2/1/6
f 336/1/6 1/1/6 337/1/6
f 337/1/6 1/1/6 332/1/6
f 338/1/6 339/1/6 341/1/6
f 341/1/6 339/1/6 340/1/6
f 155/2/6 59/2/6 158/2/6
f 158/2/6 59/2/6 68/2/6
f 342/2/6 335/2/6 343/2/6
f 343/2/6 335/2/6 337/2/6
f 343/2/6 331/2/6 344/2/6
f 344/2/6 331/2/6 339/2/6
f 344/2/6 338/2/6 345/2/6
f 345/2/6 338/2/6 341/2/6
f 345/2/6 340/2/6 346/2/6
f 346/2/6 340/2/6 145/2/6
f 24/2/6 210/2/6 19/2/6
f 19/2/6 210/2/6 203/2/6
f 347/1/6 342/1/6 348/1/6
f 348/1/6 342/1/6 346/1/6
f 159/2/6 67/2/6 162/2/6
f 162/2/6 67/2/6 76/2/6
f 349/2/6 350/2/6 352/2/6
f 352/2/6 350/2/6 351/2/6
f 353/1/6 349/1/6 355/1/6
f 355/1/6 349/1/6 354/1/6
f 22/1/6 21/1/6 25/1/6
f 25/1/6 21/1/6 18/1/6
f 356/2/6 347/2/6 357/2/6
f 357/2/6 347/2/6 350/2/6
f 357/2/6 353/2/6 358/2/6
f 358/2/6 353/2/6 355/2/6
f 358/2/6 354/2/6 359/2/6
f 359/2/6 354/2/6 352/2/6
f 360/1/6 361/1/6 362/1/6
f 362/1/6 361/1/6 348/1/6
f 165/1/6 160/1/6 164/1/6
f 164/1/6 160/1/6 161/1/6
f 235/2/6 234/2/6 242/2/6
f 242/2/6 234/2/6 223/2/6
f 108/2/6 83/2/6 95/2/6
f 95/2/6 83/2/6 96/2/6
f 26/1/6 17/1/6 29/1/6
f 29/1/6 17/1/6 14/1/6
f 363/1/6 356/1/6 364/1/6
f 364/1/6 356/1/6 359/1/6
f 364/1/6 351/1/6 365/1/6
f 365/1/6 351/1/6 361/1/6
f 169/1/6 156/1/6 168/1/6
f 168/1/6 156/1/6 157/1/6
f 243/2/6 222/2/6 250/2/6
f 250/2/6 222/2/6 211/2/6
f 30/1/6 13/1/6 33/1/6
f 33/1/6 13/1/6 10/1/6
f 366/2/6 363/2/6 367/2/6
f 367/2/6 363/2/6 365/2/6
f 173/1/6 152/1/6 172/1/6
f 172/1/6 152/1/6 153/1/6
f 116/2/6 75/2/6 107/2/6
f 107/2/6 75/2/6 84/2/6
f 251/2/6 23/2/6 258/2/6
f 258/2/6 23/2/6 28/2/6
f 34/1/6 9/1/6 37/1/6
f 37/1/6 9/1/6 6/1/6
f 177/1/6 148/1/6 176/1/6
f 176/1/6 148/1/6 149/1/6
f 124/2/6 166/2/6 115/2/6
f 115/2/6 166/2/6 163/2/6
f 259/2/6 27/2/6 266/2/6
f 266/2/6 27/2/6 32/2/6
f 38/1/6 366/1/6 368/1/6
f 368/1/6 366/1/6 367/1/6
f 368/2/6 360/2/6 180/2/6
f 180/2/6 360/2/6 362/2/6
f 132/2/6 170/2/6 123/2/6
f 123/2/6 170/2/6 167/2/6
f 267/2/6 31/2/6 274/2/6
f 274/2/6 31/2/6 36/2/6
f 42/1/6 41/1/6 184/1/6
f 184/1/6 41/1/6 181/1/6
f 136/2/6 174/2/6 131/2/6
f 131/2/6 174/2/6 171/2/6
f 275/2/6 35/2/6 369/2/6
f 369/2/6 35/2/6 40/2/6
f 369/2/6 39/2/6 278/2/6
f 278/2/6 39/2/6 44/2/6
f 140/2/6 370/2/6 371/2/6
f 371/2/6 370/2/6 179/2/6
f 371/2/6 178/2/6 135/2/6
f 135/2/6 178/2/6 175/2/6
f 279/2/6 43/2/6 372/2/6
f 372/2/6 43/2/6 183/2/6
f 372/2/6 182/2/6 139/2/6
f 139/2/6 182/2/6 370/2/6
