# Vengi binary mesh normalized for Tanks of Freedom II

mtllib ../../materials/vox_building.mtl
o star

v 0.8 1 0.1
v 0.7 1 0.1
v 0.7 1 0.2
v 0.8 1 0.2
v 0.7 0.9 0.1
v 0.6 0.9 0.1
v 0.6 0.9 0.2
v 0.7 0.9 0.2
v 0.6 0.8 0.1
v 0.5 0.8 0.1
v 0.5 0.8 0.2
v 0.6 0.8 0.2
v 0.6 0.1 0.1
v 0.4 0.1 0.1
v 0.4 0.1 0.2
v 0.6 0.1 0.2
v 0.5 0.7 0.1
v 0.4 0.7 0.1
v 0.4 0.7 0.2
v 0.5 0.7 0.2
v 0.4 0.2 0.1
v 0.3 0.2 0.1
v 0.3 0.2 0.2
v 0.4 0.2 0.2
v 0.3 0.3 0.1
v 0.1 0.3 0.1
v 0.1 0.3 0.2
v 0.3 0.3 0.2
v 0.1 0.4 0.1
v -0.2 0.4 0.1
v -0.2 0.4 0.2
v 0.1 0.4 0.2
v -0.2 0.3 0.1
v -0.4 0.3 0.1
v -0.4 0.3 0.2
v -0.2 0.3 0.2
v -0.4 0.2 0.1
v -0.5 0.2 0.1
v -0.5 0.2 0.2
v -0.4 0.2 0.2
v -0.5 0.7 0.1
v -0.6 0.7 0.1
v -0.6 0.7 0.2
v -0.5 0.7 0.2
v -0.5 0.1 0.1
v -0.7 0.1 0.1
v -0.7 0.1 0.2
v -0.5 0.1 0.2
v -0.6 0.8 0.1
v -0.7 0.8 0.1
v -0.7 0.8 0.2
v -0.6 0.8 0.2
v -0.7 0.9 0.1
v -0.8 0.9 0.1
v -0.8 0.9 0.2
v -0.7 0.9 0.2
v -0.8 1 0.1
v -0.9 1 0.1
v -0.9 1 0.2
v -0.8 1 0.2
v 0.8 1 -0.1
v 0.7 1 -0.1
v 0.7 1 0
v 0.8 1 0
v 0.7 0.3 -0.1
v 0.6 0.3 -0.1
v 0.6 0.3 0.2
v 0.7 0.3 0.2
v 0.7 0.9 -0.1
v 0.6 0.9 -0.1
v 0.6 0.9 0
v 0.7 0.9 0
v 0.6 0.5 -0.1
v 0.5 0.5 -0.1
v 0.5 0.5 0.2
v 0.6 0.5 0.2
v 0.6 0.8 -0.1
v 0.5 0.8 -0.1
v 0.5 0.8 0
v 0.6 0.8 0
v 0.6 0.1 -0.1
v 0.4 0.1 -0.1
v 0.4 0.1 0
v 0.6 0.1 0
v 0.5 0.7 -0.1
v 0.4 0.7 -0.1
v 0.4 0.7 0
v 0.5 0.7 0
v 0.4 0.2 -0.1
v 0.3 0.2 -0.1
v 0.3 0.2 0
v 0.4 0.2 0
v 0.9 1.2 -0.1
v 0.3 1.2 -0.1
v 0.3 1.2 0.2
v 0.9 1.2 0.2
v 0.3 1.4 -0.1
v 0.2 1.4 -0.1
v 0.2 1.4 0.2
v 0.3 1.4 0.2
v 0.3 0.3 -0.1
v 0.1 0.3 -0.1
v 0.1 0.3 0
v 0.3 0.3 0
v 0.2 1.6 -0.1
v 0.1 1.6 -0.1
v 0.1 1.6 0.2
v 0.2 1.6 0.2
v 0.1 1.7 -0.1
v 0 1.7 -0.1
v 0 1.7 0.2
v 0.1 1.7 0.2
v 0 1.8 -0.1
v -0.1 1.8 -0.1
v -0.1 1.8 0.2
v 0 1.8 0.2
v 0.1 0.4 -0.1
v -0.2 0.4 -0.1
v -0.2 0.4 0
v 0.1 0.4 0
v -0.1 1.7 -0.1
v -0.2 1.7 -0.1
v -0.2 1.7 0.2
v -0.1 1.7 0.2
v -0.2 1.6 -0.1
v -0.3 1.6 -0.1
v -0.3 1.6 0.2
v -0.2 1.6 0.2
v -0.2 0.3 -0.1
v -0.4 0.3 -0.1
v -0.4 0.3 0
v -0.2 0.3 0
v -0.3 1.4 -0.1
v -0.4 1.4 -0.1
v -0.4 1.4 0.2
v -0.3 1.4 0.2
v -0.4 0.2 -0.1
v -0.5 0.2 -0.1
v -0.5 0.2 0
v -0.4 0.2 0
v -0.5 0.7 -0.1
v -0.6 0.7 -0.1
v -0.6 0.7 0
v -0.5 0.7 0
v -0.5 0.1 -0.1
v -0.7 0.1 -0.1
v -0.7 0.1 0
v -0.5 0.1 0
v -0.6 0.5 -0.1
v -0.7 0.5 -0.1
v -0.7 0.5 0.2
v -0.6 0.5 0.2
v -0.6 0.8 -0.1
v -0.7 0.8 -0.1
v -0.7 0.8 0
v -0.6 0.8 0
v -0.7 0.3 -0.1
v -0.8 0.3 -0.1
v -0.8 0.3 0.2
v -0.7 0.3 0.2
v -0.7 0.9 -0.1
v -0.8 0.9 -0.1
v -0.8 0.9 0
v -0.7 0.9 0
v -0.8 1 -0.1
v -0.9 1 -0.1
v -0.9 1 0
v -0.8 1 0
v -0.4 1.2 -0.1
v -1 1.2 -0.1
v -1 1.2 0.2
v -0.4 1.2 0.2
v 0.6 0.3 0.1
v 0.5 0.3 0.2
v 0.5 0.3 0.1
v 0.5 0.5 0.1
v 0.4 0.5 0.2
v 0.4 0.5 0.1
v 0.8 1.1 0.1
v 0.8 1.1 0.2
v 0.3 1.1 0.2
v 0.3 1.1 0.1
v 0.3 1.2 0.1
v 0.2 1.2 0.2
v 0.2 1.2 0.1
v 0.2 1.4 0.1
v 0.1 1.4 0.2
v 0.1 1.4 0.1
v 0.1 1.6 0.1
v 0 1.6 0.2
v 0 1.6 0.1
v 0 1.7 0.1
v -0.1 1.7 0.1
v -0.1 1.6 0.1
v -0.1 1.6 0.2
v -0.2 1.6 0.1
v -0.2 1.4 0.1
v -0.2 1.4 0.2
v -0.3 1.4 0.1
v -0.3 1.2 0.1
v -0.3 1.2 0.2
v -0.4 1.2 0.1
v -0.5 0.5 0.1
v -0.5 0.5 0.2
v -0.6 0.5 0.1
v -0.6 0.3 0.1
v -0.6 0.3 0.2
v -0.7 0.3 0.1
v -0.4 1.1 0.1
v -0.4 1.1 0.2
v -0.9 1.1 0.2
v -0.9 1.1 0.1
v 0.9 1 -0.1
v 0.9 1 0.2
v 0.8 0.9 -0.1
v 0.8 0.9 0.2
v 0.7 0.8 -0.1
v 0.7 0.8 0.2
v 0.6 0.3 0
v 0.5 0.3 0
v 0.5 0.3 -0.1
v 0.6 0.7 -0.1
v 0.6 0.7 0.2
v 0.7 0 -0.1
v 0.7 0 0.2
v 0.4 0 0.2
v 0.4 0 -0.1
v 0.5 0.5 0
v 0.4 0.5 0
v 0.4 0.5 -0.1
v 0.3 0.1 0.2
v 0.3 0.1 -0.1
v 0.8 1.1 -0.1
v 0.8 1.1 0
v 0.3 1.1 0
v 0.3 1.1 -0.1
v 0.3 1.2 0
v 0.2 1.2 0
v 0.2 1.2 -0.1
v 0.1 0.2 0.2
v 0.1 0.2 -0.1
v 0.2 1.4 0
v 0.1 1.4 0
v 0.1 1.4 -0.1
v 0.1 1.6 0
v 0 1.6 0
v 0 1.6 -0.1
v 0 1.7 0
v -0.1 1.7 0
v -0.1 1.6 -0.1
v -0.1 1.6 0
v -0.2 1.6 0
v -0.2 1.4 -0.1
v -0.2 1.4 0
v -0.3 1.4 0
v -0.2 0.2 -0.1
v -0.2 0.2 0.2
v -0.3 1.2 -0.1
v -0.3 1.2 0
v -0.4 1.2 0
v -0.4 0.1 -0.1
v -0.4 0.1 0.2
v -0.5 0.5 -0.1
v -0.5 0.5 0
v -0.6 0.5 0
v -0.6 0.3 -0.1
v -0.6 0.3 0
v -0.7 0.3 0
v -0.7 0.7 0.2
v -0.7 0.7 -0.1
v -0.5 0 -0.1
v -0.5 0 0.2
v -0.8 0 0.2
v -0.8 0 -0.1
v -0.8 0.8 0.2
v -0.8 0.8 -0.1
v -0.9 0.9 0.2
v -0.9 0.9 -0.1
v -0.4 1.1 -0.1
v -0.4 1.1 0
v -0.9 1.1 0
v -0.9 1.1 -0.1
v -1 1 0.2
v -1 1 -0.1
v 0.8 1.2 -0.1
v 0.7 0.1 -0.1
v 0.4 0.3 0
v 0.1 0.5 0
v -0.6 0.4 0
v -0.7 0.2 0
v -0.8 0.1 -0.1
v -1 1.1 -0.1
v 0.8 1.2 0.2
v 0.7 0.1 0.2
v 0.4 0.3 0.1
v 0.1 0.5 0.1
v -0.6 0.4 0.1
v -0.7 0.2 0.1
v -0.8 0.1 0.2
v -1 1.1 0.2

vt 0.0253906 0.5
vt 0.0957031 0.5

vn 0 1 0
vn 0 -1 0
vn -1 0 0
vn 1 0 0
vn 0 0 -1
vn 0 0 1

usemtl palette
f 1/2/1 2/2/1 4/2/1
f 4/2/1 2/2/1 3/2/1
f 5/2/1 6/2/1 8/2/1
f 8/2/1 6/2/1 7/2/1
f 9/2/1 10/2/1 12/2/1
f 12/2/1 10/2/1 11/2/1
f 13/2/1 14/2/1 16/2/1
f 16/2/1 14/2/1 15/2/1
f 17/2/1 18/2/1 20/2/1
f 20/2/1 18/2/1 19/2/1
f 21/2/1 22/2/1 24/2/1
f 24/2/1 22/2/1 23/2/1
f 25/2/1 26/2/1 28/2/1
f 28/2/1 26/2/1 27/2/1
f 29/2/1 30/2/1 32/2/1
f 32/2/1 30/2/1 31/2/1
f 33/2/1 34/2/1 36/2/1
f 36/2/1 34/2/1 35/2/1
f 37/2/1 38/2/1 40/2/1
f 40/2/1 38/2/1 39/2/1
f 41/2/1 42/2/1 44/2/1
f 44/2/1 42/2/1 43/2/1
f 45/2/1 46/2/1 48/2/1
f 48/2/1 46/2/1 47/2/1
f 49/2/1 50/2/1 52/2/1
f 52/2/1 50/2/1 51/2/1
f 53/2/1 54/2/1 56/2/1
f 56/2/1 54/2/1 55/2/1
f 57/2/1 58/2/1 60/2/1
f 60/2/1 58/2/1 59/2/1
f 61/2/1 62/2/1 64/2/1
f 64/2/1 62/2/1 63/2/1
f 65/2/1 66/2/1 68/2/1
f 68/2/1 66/2/1 67/2/1
f 69/2/1 70/2/1 72/2/1
f 72/2/1 70/2/1 71/2/1
f 73/2/1 74/2/1 76/2/1
f 76/2/1 74/2/1 75/2/1
f 77/2/1 78/2/1 80/2/1
f 80/2/1 78/2/1 79/2/1
f 81/2/1 82/2/1 84/2/1
f 84/2/1 82/2/1 83/2/1
f 85/2/1 86/2/1 88/2/1
f 88/2/1 86/2/1 87/2/1
f 89/2/1 90/2/1 92/2/1
f 92/2/1 90/2/1 91/2/1
f 93/2/1 94/2/1 96/2/1
f 96/2/1 94/2/1 95/2/1
f 97/2/1 98/2/1 100/2/1
f 100/2/1 98/2/1 99/2/1
f 101/2/1 102/2/1 104/2/1
f 104/2/1 102/2/1 103/2/1
f 105/2/1 106/2/1 108/2/1
f 108/2/1 106/2/1 107/2/1
f 109/2/1 110/2/1 112/2/1
f 112/2/1 110/2/1 111/2/1
f 113/2/1 114/2/1 116/2/1
f 116/2/1 114/2/1 115/2/1
f 117/2/1 118/2/1 120/2/1
f 120/2/1 118/2/1 119/2/1
f 121/2/1 122/2/1 124/2/1
f 124/2/1 122/2/1 123/2/1
f 125/2/1 126/2/1 128/2/1
f 128/2/1 126/2/1 127/2/1
f 129/2/1 130/2/1 132/2/1
f 132/2/1 130/2/1 131/2/1
f 133/2/1 134/2/1 136/2/1
f 136/2/1 134/2/1 135/2/1
f 137/2/1 138/2/1 140/2/1
f 140/2/1 138/2/1 139/2/1
f 141/2/1 142/2/1 144/2/1
f 144/2/1 142/2/1 143/2/1
f 145/2/1 146/2/1 148/2/1
f 148/2/1 146/2/1 147/2/1
f 149/2/1 150/2/1 152/2/1
f 152/2/1 150/2/1 151/2/1
f 153/2/1 154/2/1 156/2/1
f 156/2/1 154/2/1 155/2/1
f 157/2/1 158/2/1 160/2/1
f 160/2/1 158/2/1 159/2/1
f 161/2/1 162/2/1 164/2/1
f 164/2/1 162/2/1 163/2/1
f 165/2/1 166/2/1 168/2/1
f 168/2/1 166/2/1 167/2/1
f 169/2/1 170/2/1 172/2/1
f 172/2/1 170/2/1 171/2/1
f 173/2/2 67/2/2 175/2/2
f 175/2/2 67/2/2 174/2/2
f 176/2/2 75/2/2 178/2/2
f 178/2/2 75/2/2 177/2/2
f 179/2/2 180/2/2 182/2/2
f 182/2/2 180/2/2 181/2/2
f 183/2/2 95/2/2 185/2/2
f 185/2/2 95/2/2 184/2/2
f 186/2/2 99/2/2 188/2/2
f 188/2/2 99/2/2 187/2/2
f 189/2/2 107/2/2 191/2/2
f 191/2/2 107/2/2 190/2/2
f 192/2/2 111/2/2 193/2/2
f 193/2/2 111/2/2 124/2/2
f 194/2/2 195/2/2 196/2/2
f 196/2/2 195/2/2 128/2/2
f 197/2/2 198/2/2 199/2/2
f 199/2/2 198/2/2 136/2/2
f 200/2/2 201/2/2 202/2/2
f 202/2/2 201/2/2 172/2/2
f 203/2/2 204/2/2 205/2/2
f 205/2/2 204/2/2 152/2/2
f 206/2/2 207/2/2 208/2/2
f 208/2/2 207/2/2 160/2/2
f 209/2/2 210/2/2 212/2/2
f 212/2/2 210/2/2 211/2/2
f 213/2/2 214/2/2 61/2/2
f 61/2/2 214/2/2 4/2/2
f 215/2/2 216/2/2 69/2/2
f 69/2/2 216/2/2 8/2/2
f 217/2/2 218/2/2 77/2/2
f 77/2/2 218/2/2 12/2/2
f 66/2/2 219/2/2 221/2/2
f 221/2/2 219/2/2 220/2/2
f 222/2/2 223/2/2 85/2/2
f 85/2/2 223/2/2 20/2/2
f 224/2/2 225/2/2 227/2/2
f 227/2/2 225/2/2 226/2/2
f 74/2/2 228/2/2 230/2/2
f 230/2/2 228/2/2 229/2/2
f 82/2/2 15/2/2 232/2/2
f 232/2/2 15/2/2 231/2/2
f 233/2/2 234/2/2 236/2/2
f 236/2/2 234/2/2 235/2/2
f 94/2/2 237/2/2 239/2/2
f 239/2/2 237/2/2 238/2/2
f 90/2/2 23/2/2 241/2/2
f 241/2/2 23/2/2 240/2/2
f 98/2/2 242/2/2 244/2/2
f 244/2/2 242/2/2 243/2/2
f 106/2/2 245/2/2 247/2/2
f 247/2/2 245/2/2 246/2/2
f 110/2/2 248/2/2 121/2/2
f 121/2/2 248/2/2 249/2/2
f 102/2/2 27/2/2 129/2/2
f 129/2/2 27/2/2 36/2/2
f 250/2/2 251/2/2 125/2/2
f 125/2/2 251/2/2 252/2/2
f 253/2/2 254/2/2 133/2/2
f 133/2/2 254/2/2 255/2/2
f 256/2/2 257/2/2 137/2/2
f 137/2/2 257/2/2 40/2/2
f 258/2/2 259/2/2 169/2/2
f 169/2/2 259/2/2 260/2/2
f 261/2/2 262/2/2 145/2/2
f 145/2/2 262/2/2 48/2/2
f 263/2/2 264/2/2 149/2/2
f 149/2/2 264/2/2 265/2/2
f 266/2/2 267/2/2 157/2/2
f 157/2/2 267/2/2 268/2/2
f 142/2/2 43/2/2 270/2/2
f 270/2/2 43/2/2 269/2/2
f 271/2/2 272/2/2 274/2/2
f 274/2/2 272/2/2 273/2/2
f 154/2/2 51/2/2 276/2/2
f 276/2/2 51/2/2 275/2/2
f 162/2/2 55/2/2 278/2/2
f 278/2/2 55/2/2 277/2/2
f 279/2/2 280/2/2 282/2/2
f 282/2/2 280/2/2 281/2/2
f 166/2/2 59/2/2 284/2/2
f 284/2/2 59/2/2 283/2/2
f 15/2/3 82/2/3 226/2/3
f 226/2/3 82/2/3 227/2/3
f 39/2/3 38/2/3 48/2/3
f 48/2/3 38/2/3 45/2/3
f 23/2/3 90/2/3 231/2/3
f 231/2/3 90/2/3 232/2/3
f 139/2/3 138/2/3 148/2/3
f 148/2/3 138/2/3 145/2/3
f 67/2/3 173/2/3 16/2/3
f 16/2/3 173/2/3 13/2/3
f 35/2/3 34/2/3 40/2/3
f 40/2/3 34/2/3 37/2/3
f 219/2/3 66/2/3 84/2/3
f 84/2/3 66/2/3 81/2/3
f 27/2/3 102/2/3 240/2/3
f 240/2/3 102/2/3 241/2/3
f 131/2/3 130/2/3 140/2/3
f 140/2/3 130/2/3 137/2/3
f 159/2/3 158/2/3 273/2/3
f 273/2/3 158/2/3 274/2/3
f 31/2/3 30/2/3 36/2/3
f 36/2/3 30/2/3 33/2/3
f 119/2/3 118/2/3 132/2/3
f 132/2/3 118/2/3 129/2/3
f 75/2/3 176/2/3 174/2/3
f 174/2/3 176/2/3 175/2/3
f 228/2/3 74/2/3 220/2/3
f 220/2/3 74/2/3 221/2/3
f 151/2/3 150/2/3 160/2/3
f 160/2/3 150/2/3 157/2/3
f 19/2/3 18/2/3 177/2/3
f 177/2/3 18/2/3 178/2/3
f 87/2/3 86/2/3 229/2/3
f 229/2/3 86/2/3 230/2/3
f 43/2/3 142/2/3 152/2/3
f 152/2/3 142/2/3 149/2/3
f 11/2/3 10/2/3 20/2/3
f 20/2/3 10/2/3 17/2/3
f 79/2/3 78/2/3 88/2/3
f 88/2/3 78/2/3 85/2/3
f 51/2/3 154/2/3 269/2/3
f 269/2/3 154/2/3 270/2/3
f 7/2/3 6/2/3 12/2/3
f 12/2/3 6/2/3 9/2/3
f 71/2/3 70/2/3 80/2/3
f 80/2/3 70/2/3 77/2/3
f 55/2/3 162/2/3 275/2/3
f 275/2/3 162/2/3 276/2/3
f 3/2/3 2/2/3 8/2/3
f 8/2/3 2/2/3 5/2/3
f 63/2/3 62/2/3 72/2/3
f 72/2/3 62/2/3 69/2/3
f 59/2/3 166/2/3 277/2/3
f 277/2/3 166/2/3 278/2/3
f 180/2/3 179/2/3 4/2/3
f 4/2/3 179/2/3 1/2/3
f 234/2/3 233/2/3 64/2/3
f 64/2/3 233/2/3 61/2/3
f 95/2/3 183/2/3 181/2/3
f 181/2/3 183/2/3 182/2/3
f 237/2/3 94/2/3 235/2/3
f 235/2/3 94/2/3 236/2/3
f 171/2/3 170/2/3 283/2/3
f 283/2/3 170/2/3 284/2/3
f 99/2/3 186/2/3 184/2/3
f 184/2/3 186/2/3 185/2/3
f 242/2/3 98/2/3 238/2/3
f 238/2/3 98/2/3 239/2/3
f 135/2/3 134/2/3 172/2/3
f 172/2/3 134/2/3 169/2/3
f 107/2/3 189/2/3 187/2/3
f 187/2/3 189/2/3 188/2/3
f 245/2/3 106/2/3 243/2/3
f 243/2/3 106/2/3 244/2/3
f 127/2/3 126/2/3 136/2/3
f 136/2/3 126/2/3 133/2/3
f 111/2/3 192/2/3 190/2/3
f 190/2/3 192/2/3 191/2/3
f 248/2/3 110/2/3 246/2/3
f 246/2/3 110/2/3 247/2/3
f 123/2/3 122/2/3 128/2/3
f 128/2/3 122/2/3 125/2/3
f 115/2/3 114/2/3 124/2/3
f 124/2/3 114/2/3 121/2/3
f 48/2/4 272/2/4 145/2/4
f 145/2/4 272/2/4 271/2/4
f 24/2/4 15/2/4 21/2/4
f 21/2/4 15/2/4 14/2/4
f 92/2/4 83/2/4 89/2/4
f 89/2/4 83/2/4 82/2/4
f 40/2/4 262/2/4 137/2/4
f 137/2/4 262/2/4 261/2/4
f 28/2/4 23/2/4 25/2/4
f 25/2/4 23/2/4 22/2/4
f 160/2/4 47/2/4 208/2/4
f 208/2/4 47/2/4 46/2/4
f 68/2/4 225/2/4 65/2/4
f 65/2/4 225/2/4 224/2/4
f 104/2/4 91/2/4 101/2/4
f 101/2/4 91/2/4 90/2/4
f 36/2/4 257/2/4 129/2/4
f 129/2/4 257/2/4 256/2/4
f 268/2/4 147/2/4 157/2/4
f 157/2/4 147/2/4 146/2/4
f 32/2/4 27/2/4 29/2/4
f 29/2/4 27/2/4 26/2/4
f 120/2/4 103/2/4 117/2/4
f 117/2/4 103/2/4 102/2/4
f 152/2/4 207/2/4 205/2/4
f 205/2/4 207/2/4 206/2/4
f 76/2/4 67/2/4 73/2/4
f 73/2/4 67/2/4 66/2/4
f 265/2/4 267/2/4 149/2/4
f 149/2/4 267/2/4 266/2/4
f 44/2/4 204/2/4 41/2/4
f 41/2/4 204/2/4 203/2/4
f 20/2/4 75/2/4 85/2/4
f 85/2/4 75/2/4 74/2/4
f 144/2/4 264/2/4 141/2/4
f 141/2/4 264/2/4 263/2/4
f 52/2/4 43/2/4 49/2/4
f 49/2/4 43/2/4 42/2/4
f 12/2/4 223/2/4 77/2/4
f 77/2/4 223/2/4 222/2/4
f 156/2/4 143/2/4 153/2/4
f 153/2/4 143/2/4 142/2/4
f 56/2/4 51/2/4 53/2/4
f 53/2/4 51/2/4 50/2/4
f 8/2/4 218/2/4 69/2/4
f 69/2/4 218/2/4 217/2/4
f 164/2/4 155/2/4 161/2/4
f 161/2/4 155/2/4 154/2/4
f 60/2/4 55/2/4 57/2/4
f 57/2/4 55/2/4 54/2/4
f 4/2/4 216/2/4 61/2/4
f 61/2/4 216/2/4 215/2/4
f 168/2/4 163/2/4 165/2/4
f 165/2/4 163/2/4 162/2/4
f 211/2/4 59/2/4 212/2/4
f 212/2/4 59/2/4 58/2/4
f 281/2/4 167/2/4 282/2/4
f 282/2/4 167/2/4 166/2/4
f 172/2/4 210/2/4 202/2/4
f 202/2/4 210/2/4 209/2/4
f 96/2/4 214/2/4 93/2/4
f 93/2/4 214/2/4 213/2/4
f 260/2/4 280/2/4 169/2/4
f 169/2/4 280/2/4 279/2/4
f 136/2/4 201/2/4 199/2/4
f 199/2/4 201/2/4 200/2/4
f 100/2/4 95/2/4 97/2/4
f 97/2/4 95/2/4 94/2/4
f 255/2/4 259/2/4 133/2/4
f 133/2/4 259/2/4 258/2/4
f 128/2/4 198/2/4 196/2/4
f 196/2/4 198/2/4 197/2/4
f 108/2/4 99/2/4 105/2/4
f 105/2/4 99/2/4 98/2/4
f 252/2/4 254/2/4 125/2/4
f 125/2/4 254/2/4 253/2/4
f 124/2/4 195/2/4 193/2/4
f 193/2/4 195/2/4 194/2/4
f 112/2/4 107/2/4 109/2/4
f 109/2/4 107/2/4 106/2/4
f 249/2/4 251/2/4 121/2/4
f 121/2/4 251/2/4 250/2/4
f 116/2/4 111/2/4 113/2/4
f 113/2/4 111/2/4 110/2/4
f 61/2/5 285/2/5 213/2/5
f 213/2/5 285/2/5 93/2/5
f 69/2/5 62/2/5 215/2/5
f 215/2/5 62/2/5 61/2/5
f 81/2/5 66/2/5 286/2/5
f 286/2/5 66/2/5 65/2/5
f 77/2/5 70/2/5 217/2/5
f 217/2/5 70/2/5 69/2/5
f 221/2/5 74/2/5 66/2/5
f 66/2/5 74/2/5 73/2/5
f 85/2/5 78/2/5 222/2/5
f 222/2/5 78/2/5 77/2/5
f 227/2/5 82/2/5 224/2/5
f 224/2/5 82/2/5 286/2/5
f 83/1/5 287/1/5 84/1/5
f 84/1/5 287/1/5 219/1/5
f 230/2/5 86/2/5 74/2/5
f 74/2/5 86/2/5 85/2/5
f 232/2/5 90/2/5 82/2/5
f 82/2/5 90/2/5 89/2/5
f 91/1/5 104/1/5 92/1/5
f 92/1/5 104/1/5 287/1/5
f 236/2/5 94/2/5 233/2/5
f 233/2/5 94/2/5 285/2/5
f 239/2/5 98/2/5 94/2/5
f 94/2/5 98/2/5 97/2/5
f 241/2/5 102/2/5 90/2/5
f 90/2/5 102/2/5 101/2/5
f 103/1/5 288/1/5 220/1/5
f 220/1/5 288/1/5 228/1/5
f 244/2/5 106/2/5 98/2/5
f 98/2/5 106/2/5 105/2/5
f 247/2/5 110/2/5 106/2/5
f 106/2/5 110/2/5 109/2/5
f 251/1/5 249/1/5 246/1/5
f 246/1/5 249/1/5 248/1/5
f 121/2/5 114/2/5 110/2/5
f 110/2/5 114/2/5 113/2/5
f 129/2/5 118/2/5 102/2/5
f 102/2/5 118/2/5 117/2/5
f 254/1/5 252/1/5 243/1/5
f 243/1/5 252/1/5 245/1/5
f 125/2/5 122/2/5 250/2/5
f 250/2/5 122/2/5 121/2/5
f 259/1/5 255/1/5 238/1/5
f 238/1/5 255/1/5 242/1/5
f 133/2/5 126/2/5 253/2/5
f 253/2/5 126/2/5 125/2/5
f 137/2/5 130/2/5 256/2/5
f 256/2/5 130/2/5 129/2/5
f 280/1/5 260/1/5 235/1/5
f 235/1/5 260/1/5 237/1/5
f 169/2/5 134/2/5 258/2/5
f 258/2/5 134/2/5 133/2/5
f 145/2/5 138/2/5 261/2/5
f 261/2/5 138/2/5 137/2/5
f 264/1/5 144/1/5 229/1/5
f 229/1/5 144/1/5 87/1/5
f 267/1/5 289/1/5 132/1/5
f 132/1/5 289/1/5 119/1/5
f 289/1/5 265/1/5 120/1/5
f 120/1/5 265/1/5 288/1/5
f 149/2/5 142/2/5 263/2/5
f 263/2/5 142/2/5 141/2/5
f 143/1/5 156/1/5 88/1/5
f 88/1/5 156/1/5 79/1/5
f 147/1/5 290/1/5 148/1/5
f 148/1/5 290/1/5 139/1/5
f 290/1/5 268/1/5 140/1/5
f 140/1/5 268/1/5 131/1/5
f 157/2/5 150/2/5 266/2/5
f 266/2/5 150/2/5 149/2/5
f 270/2/5 154/2/5 142/2/5
f 142/2/5 154/2/5 153/2/5
f 155/1/5 164/1/5 80/1/5
f 80/1/5 164/1/5 71/1/5
f 274/2/5 291/2/5 271/2/5
f 271/2/5 291/2/5 145/2/5
f 291/2/5 158/2/5 146/2/5
f 146/2/5 158/2/5 157/2/5
f 276/2/5 162/2/5 154/2/5
f 154/2/5 162/2/5 161/2/5
f 163/1/5 168/1/5 72/1/5
f 72/1/5 168/1/5 63/1/5
f 278/2/5 166/2/5 162/2/5
f 162/2/5 166/2/5 165/2/5
f 167/1/5 281/1/5 64/1/5
f 64/1/5 281/1/5 234/1/5
f 284/2/5 292/2/5 166/2/5
f 166/2/5 292/2/5 282/2/5
f 292/2/5 170/2/5 279/2/5
f 279/2/5 170/2/5 169/2/5
f 4/2/6 214/2/6 293/2/6
f 293/2/6 214/2/6 96/2/6
f 8/2/6 216/2/6 3/2/6
f 3/2/6 216/2/6 4/2/6
f 16/2/6 294/2/6 67/2/6
f 67/2/6 294/2/6 68/2/6
f 12/2/6 218/2/6 7/2/6
f 7/2/6 218/2/6 8/2/6
f 174/2/6 67/2/6 75/2/6
f 75/2/6 67/2/6 76/2/6
f 20/2/6 223/2/6 11/2/6
f 11/2/6 223/2/6 12/2/6
f 226/2/6 225/2/6 15/2/6
f 15/2/6 225/2/6 294/2/6
f 14/1/6 13/1/6 295/1/6
f 295/1/6 13/1/6 173/1/6
f 177/2/6 75/2/6 19/2/6
f 19/2/6 75/2/6 20/2/6
f 231/2/6 15/2/6 23/2/6
f 23/2/6 15/2/6 24/2/6
f 22/1/6 21/1/6 25/1/6
f 25/1/6 21/1/6 295/1/6
f 181/2/6 180/2/6 95/2/6
f 95/2/6 180/2/6 293/2/6
f 184/2/6 95/2/6 99/2/6
f 99/2/6 95/2/6 100/2/6
f 240/2/6 23/2/6 27/2/6
f 27/2/6 23/2/6 28/2/6
f 26/1/6 175/1/6 296/1/6
f 296/1/6 175/1/6 176/1/6
f 187/2/6 99/2/6 107/2/6
f 107/2/6 99/2/6 108/2/6
f 190/2/6 107/2/6 111/2/6
f 111/2/6 107/2/6 112/2/6
f 194/1/6 191/1/6 193/1/6
f 193/1/6 191/1/6 192/1/6
f 124/2/6 111/2/6 115/2/6
f 115/2/6 111/2/6 116/2/6
f 36/2/6 27/2/6 31/2/6
f 31/2/6 27/2/6 32/2/6
f 197/1/6 188/1/6 196/1/6
f 196/1/6 188/1/6 189/1/6
f 128/2/6 195/2/6 123/2/6
f 123/2/6 195/2/6 124/2/6
f 200/1/6 185/1/6 199/1/6
f 199/1/6 185/1/6 186/1/6
f 136/2/6 198/2/6 127/2/6
f 127/2/6 198/2/6 128/2/6
f 40/2/6 257/2/6 35/2/6
f 35/2/6 257/2/6 36/2/6
f 209/1/6 182/1/6 202/1/6
f 202/1/6 182/1/6 183/1/6
f 172/2/6 201/2/6 135/2/6
f 135/2/6 201/2/6 136/2/6
f 48/2/6 262/2/6 39/2/6
f 39/2/6 262/2/6 40/2/6
f 203/1/6 178/1/6 41/1/6
f 41/1/6 178/1/6 18/1/6
f 206/1/6 33/1/6 297/1/6
f 297/1/6 33/1/6 30/1/6
f 297/1/6 29/1/6 205/1/6
f 205/1/6 29/1/6 296/1/6
f 152/2/6 204/2/6 43/2/6
f 43/2/6 204/2/6 44/2/6
f 42/1/6 17/1/6 49/1/6
f 49/1/6 17/1/6 10/1/6
f 46/1/6 45/1/6 298/1/6
f 298/1/6 45/1/6 38/1/6
f 298/1/6 37/1/6 208/1/6
f 208/1/6 37/1/6 34/1/6
f 160/2/6 207/2/6 151/2/6
f 151/2/6 207/2/6 152/2/6
f 269/2/6 43/2/6 51/2/6
f 51/2/6 43/2/6 52/2/6
f 50/1/6 9/1/6 53/1/6
f 53/1/6 9/1/6 6/1/6
f 273/2/6 272/2/6 299/2/6
f 299/2/6 272/2/6 48/2/6
f 299/2/6 47/2/6 159/2/6
f 159/2/6 47/2/6 160/2/6
f 275/2/6 51/2/6 55/2/6
f 55/2/6 51/2/6 56/2/6
f 54/1/6 5/1/6 57/1/6
f 57/1/6 5/1/6 2/1/6
f 277/2/6 55/2/6 59/2/6
f 59/2/6 55/2/6 60/2/6
f 58/1/6 1/1/6 212/1/6
f 212/1/6 1/1/6 179/1/6
f 283/2/6 59/2/6 300/2/6
f 300/2/6 59/2/6 211/2/6
f 300/2/6 210/2/6 171/2/6
f 171/2/6 210/2/6 172/2/6
