# Vengi binary mesh normalized for Tanks of Freedom II

mtllib ../../../materials/vox_grass.mtl
o railway_t

v 1.4 0.1 3.3
v 1 0.1 3.3
v 1 0.1 3.7
v 1.4 0.1 3.7
v 0.7 0.1 3.3
v -0.7 0.1 3.3
v -0.7 0.1 3.7
v 0.7 0.1 3.7
v -1 0.1 3.3
v -1.4 0.1 3.3
v -1.4 0.1 3.7
v -1 0.1 3.7
v 1.4 0.1 2.3
v 1 0.1 2.3
v 1 0.1 2.7
v 1.4 0.1 2.7
v 0.7 0.1 2.3
v -0.7 0.1 2.3
v -0.7 0.1 2.7
v 0.7 0.1 2.7
v -1 0.1 2.3
v -1.4 0.1 2.3
v -1.4 0.1 2.7
v -1 0.1 2.7
v 1 0.1 2.1
v 0.9 0.1 2.1
v 0.9 0.1 4
v 1 0.1 4
v 1.1 0.1 1.8
v 1 0.1 1.8
v 1.1 0.1 2.1
v 1 0.2 1.8
v 0.9 0.2 1.8
v 0.9 0.2 2.1
v 1 0.2 2.1
v 1.2 0.1 1.6
v 1.1 0.1 1.6
v 1.2 0.1 1.8
v 1.1 0.2 1.6
v 1 0.2 1.6
v 1.1 0.2 1.8
v -0.7 0.1 1.6
v -0.8 0.1 1.6
v -0.8 0.1 4
v -0.7 0.1 4
v 1.3 0.1 1.4
v 1.2 0.1 1.4
v 1.3 0.1 1.6
v 1.2 0.2 1.4
v 1.1 0.2 1.4
v 1.2 0.2 1.6
v 1.1 0.1 1.4
v 1 0.1 1.4
v 1 0.1 1.6
v 1.4 0.1 1.3
v 1.3 0.1 1.3
v 1.4 0.1 1.4
v 1.3 0.2 1.3
v 1.2 0.2 1.3
v 1.3 0.2 1.4
v 1.2 0.1 1.3
v 1.1 0.1 1.3
v 1.6 0.1 1.2
v 1.4 0.1 1.2
v 1.6 0.1 1.3
v 1.4 0.2 1.2
v 1.3 0.2 1.2
v 1.4 0.2 1.3
v 1.3 0.1 1.2
v 1.2 0.1 1.2
v -0.6 0.1 1.2
v -0.7 0.1 1.2
v -0.6 0.1 1.6
v -0.7 0.2 1.2
v -0.8 0.2 1.2
v -0.8 0.2 1.6
v -0.7 0.2 1.6
v 1.8 0.1 1.1
v 1.6 0.1 1.1
v 1.8 0.1 1.2
v 1.6 0.2 1.1
v 1.4 0.2 1.1
v 1.6 0.2 1.2
v 1.4 0.1 1.1
v 1.3 0.1 1.1
v 3.7 0.1 1
v 3.3 0.1 1
v 3.3 0.1 1.4
v 3.7 0.1 1.4
v 2.7 0.1 1
v 2.3 0.1 1
v 2.3 0.1 1.4
v 2.7 0.1 1.4
v 2.1 0.1 1
v 1.8 0.1 1
v 2.1 0.1 1.1
v 1.8 0.2 1
v 1.6 0.2 1
v 1.8 0.2 1.1
v 1.6 0.1 1
v 1.4 0.1 1
v 4 0.1 0.9
v 2.1 0.1 0.9
v 4 0.1 1
v 1.8 0.1 0.9
v 1.6 0.1 0.9
v 4 0.2 0.8
v 2.1 0.2 0.8
v 2.1 0.2 0.9
v 4 0.2 0.9
v 1.8 0.2 0.8
v 2.1 0.2 1
v 1.6 0.2 0.8
v 1.6 0.2 0.9
v 1.8 0.2 0.9
v 1.6 0.1 0.8
v 1.2 0.1 0.8
v 1.2 0.1 0.9
v -0.5 0.1 0.8
v -0.6 0.1 0.8
v -0.5 0.1 1.2
v -0.6 0.2 0.8
v -0.7 0.2 0.8
v -0.6 0.2 1.2
v 4 0.1 0.7
v 1.6 0.1 0.7
v 4 0.1 0.8
v 1.6 0.2 0.7
v 1.2 0.2 0.7
v 1.2 0.2 0.8
v 1.2 0.1 0.7
v 1 0.1 0.7
v 1 0.1 0.8
v 0.9 0.1 0.7
v 0.9 0.1 1.8
v 1.6 0.1 0.6
v 1.2 0.1 0.6
v 1.2 0.2 0.6
v 0.9 0.2 0.6
v 0.9 0.2 0.7
v 0.8 0.1 0.6
v 0.7 0.1 0.6
v 0.7 0.1 4
v 0.8 0.1 4
v 0.5 0.1 0.6
v 0.5 0.1 0.7
v 0.7 0.1 0.7
v 1.2 0.1 0.5
v 0.9 0.1 0.5
v 0.9 0.1 0.6
v 0.8 0.2 0.5
v 0.5 0.2 0.5
v 0.5 0.2 0.6
v 0.8 0.2 0.6
v 0.5 0.1 0.5
v 0.3 0.1 0.5
v 0.3 0.1 0.6
v -0.4 0.1 0.5
v -0.5 0.1 0.5
v -0.4 0.1 0.8
v -0.5 0.2 0.5
v -0.6 0.2 0.5
v -0.5 0.2 0.8
v -0.6 0.1 0.5
v -0.7 0.1 0.5
v -0.7 0.1 0.8
v 0.7 0.1 0.4
v 0.5 0.1 0.4
v 0.7 0.1 0.5
v 0.5 0.2 0.4
v 0.3 0.2 0.4
v 0.3 0.2 0.5
v 0.3 0.1 0.4
v 0.1 0.1 0.4
v 0.1 0.1 0.5
v 0.5 0.1 0.3
v 0.3 0.1 0.3
v 0.3 0.2 0.3
v 0.1 0.2 0.3
v 0.1 0.2 0.4
v 0.1 0.1 0.3
v 0 0.1 0.3
v 0 0.1 0.4
v -0.3 0.1 0.3
v -0.4 0.1 0.3
v -0.3 0.1 0.5
v -0.4 0.2 0.3
v -0.5 0.2 0.3
v -0.4 0.2 0.5
v -0.5 0.1 0.3
v -0.6 0.1 0.3
v 0.3 0.1 0.2
v 0.1 0.1 0.2
v 0.1 0.2 0.2
v 0 0.2 0.2
v 0 0.2 0.3
v 0 0.1 0.2
v -0.1 0.1 0.2
v -0.1 0.1 0.3
v 0.1 0.1 0.1
v 0 0.1 0.1
v 0 0.2 0.1
v -0.1 0.2 0.1
v -0.1 0.2 0.2
v -0.1 0.1 0.1
v -0.2 0.1 0.1
v -0.2 0.1 0.2
v -0.3 0.1 0.1
v -0.2 0.1 0.3
v -0.3 0.2 0.1
v -0.4 0.2 0.1
v -0.3 0.2 0.3
v -0.4 0.1 0.1
v -0.5 0.1 0.1
v 0 0.1 -0.1
v -0.1 0.1 -0.1
v -0.1 0.2 -0.1
v -0.3 0.2 -0.1
v -0.3 0.1 -0.1
v -0.4 0.1 -0.1
v 0.1 0.1 -0.2
v 0 0.1 -0.2
v 0.1 0.1 -0.1
v 0 0.2 -0.2
v -0.1 0.2 -0.2
v 0 0.2 -0.1
v -0.1 0.1 -0.2
v -0.3 0.1 -0.2
v 0.3 0.1 -0.3
v 0.1 0.1 -0.3
v 0.3 0.1 -0.2
v 0.1 0.2 -0.3
v 0 0.2 -0.3
v 0.1 0.2 -0.2
v 0 0.1 -0.3
v -0.1 0.1 -0.3
v -0.2 0.1 -0.3
v -0.3 0.1 -0.3
v -0.2 0.1 -0.2
v -0.3 0.2 -0.3
v -0.4 0.2 -0.3
v -0.4 0.2 -0.1
v -0.4 0.1 -0.3
v -0.5 0.1 -0.3
v -0.5 0.1 -0.1
v 0.5 0.1 -0.4
v 0.3 0.1 -0.4
v 0.5 0.1 -0.3
v 0.3 0.2 -0.4
v 0.1 0.2 -0.4
v 0.3 0.2 -0.3
v 0.1 0.1 -0.4
v 0 0.1 -0.4
v 0.8 0.1 -0.5
v 0.7 0.1 -0.5
v 0.8 0.1 0.5
v 0.5 0.1 -0.5
v 0.7 0.1 -0.4
v 0.5 0.2 -0.5
v 0.3 0.2 -0.5
v 0.5 0.2 -0.4
v 0.3 0.1 -0.5
v 0.1 0.1 -0.5
v -0.3 0.1 -0.5
v -0.4 0.1 -0.5
v -0.4 0.2 -0.5
v -0.5 0.2 -0.5
v -0.5 0.2 -0.3
v -0.5 0.1 -0.5
v -0.6 0.1 -0.5
v -0.6 0.1 -0.3
v 1.2 0.1 -0.6
v 1 0.1 -0.6
v 1 0.1 -0.5
v 1.2 0.1 -0.5
v 0.9 0.1 -0.6
v 1 0.1 0.5
v 0.8 0.2 -0.6
v 0.5 0.2 -0.6
v 0.8 0.2 -0.5
v 0.5 0.1 -0.6
v 0.3 0.1 -0.6
v 3.7 0.1 -0.7
v 3.3 0.1 -0.7
v 3.3 0.1 0.7
v 3.7 0.1 0.7
v 2.7 0.1 -0.7
v 2.3 0.1 -0.7
v 2.3 0.1 0.7
v 2.7 0.1 0.7
v 1.6 0.1 -0.7
v 1.2 0.1 -0.7
v 1.6 0.1 -0.6
v 1.2 0.2 -0.7
v 0.9 0.2 -0.7
v 0.9 0.2 -0.6
v 1.2 0.2 -0.6
v 0.7 0.1 -0.7
v 0.5 0.1 -0.7
v 0.7 0.1 -0.6
v 4 0.1 -0.8
v 1.6 0.1 -0.8
v 4 0.1 -0.7
v 1.6 0.2 -0.8
v 1.2 0.2 -0.8
v 1.6 0.2 -0.7
v 1.2 0.1 -0.8
v 0.9 0.1 -0.8
v 0.9 0.1 -0.7
v -0.4 0.1 -0.8
v -0.5 0.1 -0.8
v -0.5 0.2 -0.8
v -0.6 0.2 -0.8
v -0.6 0.2 -0.5
v -0.6 0.1 -0.8
v -0.7 0.1 -0.8
v -0.7 0.1 -0.5
v 4 0.2 -0.9
v 1.6 0.2 -0.9
v 4 0.2 -0.8
v 1.6 0.1 -0.9
v 1.2 0.1 -0.9
v 4 0.1 -1
v 2.1 0.1 -1
v 2.1 0.1 -0.9
v 4 0.1 -0.9
v 2.1 0.2 -1
v 1.8 0.2 -1
v 1.8 0.2 -0.9
v 2.1 0.2 -0.9
v 1.8 0.1 -1
v 1.6 0.1 -1
v 1.8 0.1 -0.9
v 2.1 0.1 -1.1
v 1.8 0.1 -1.1
v 1.8 0.2 -1.1
v 1.6 0.2 -1.1
v 1.6 0.2 -1
v 1.6 0.1 -1.1
v 1.4 0.1 -1.1
v 1.4 0.1 -1
v 1.8 0.1 -1.2
v 1.6 0.1 -1.2
v 1.6 0.2 -1.2
v 1.4 0.2 -1.2
v 1.4 0.2 -1.1
v 1.4 0.1 -1.2
v 1.3 0.1 -1.2
v 1.3 0.1 -1.1
v -0.5 0.1 -1.2
v -0.6 0.1 -1.2
v -0.6 0.2 -1.2
v -0.7 0.2 -1.2
v -0.7 0.2 -0.8
v -0.7 0.1 -1.2
v -0.8 0.1 -1.2
v -0.8 0.1 1.2
v 1.6 0.1 -1.3
v 1.4 0.1 -1.3
v 1.4 0.2 -1.3
v 1.3 0.2 -1.3
v 1.3 0.2 -1.2
v 1.3 0.1 -1.3
v 1.2 0.1 -1.3
v 1.2 0.1 -1.2
v 3.7 0.1 -1.4
v 3.3 0.1 -1.4
v 3.3 0.1 -1
v 3.7 0.1 -1
v 2.7 0.1 -1.4
v 2.3 0.1 -1.4
v 2.3 0.1 -1
v 2.7 0.1 -1
v 1.4 0.1 -1.4
v 1.3 0.1 -1.4
v 1.3 0.2 -1.4
v 1.2 0.2 -1.4
v 1.2 0.2 -1.3
v 1.2 0.1 -1.4
v 1.1 0.1 -1.4
v 1.1 0.1 -1.3
v 1.3 0.1 -1.6
v 1.2 0.1 -1.6
v 1.2 0.2 -1.6
v 1.1 0.2 -1.6
v 1.1 0.2 -1.4
v 1.1 0.1 -1.6
v 1 0.1 -1.6
v 1 0.1 -1.4
v -0.6 0.1 -1.6
v -0.7 0.1 -1.6
v -0.7 0.2 -1.6
v -0.8 0.2 -1.6
v -0.8 0.2 -1.2
v 1.2 0.1 -1.8
v 1.1 0.1 -1.8
v 1.1 0.2 -1.8
v 1 0.2 -1.8
v 1 0.2 -1.6
v 1 0.1 -1.8
v 0.9 0.1 -1.8
v 1 0.1 -0.8
v 1.1 0.1 -2.1
v 1 0.1 -2.1
v 1 0.2 -2.1
v 0.9 0.2 -2.1
v 0.9 0.2 -1.8
v 1 0.1 -2.2
v 0.9 0.1 -2.2
v 0.9 0.1 -2.1
v 0.9 0.2 -2.2
v 0.8 0.2 -2.2
v 0.8 0.2 4
v 0.9 0.2 4
v 0.8 0.1 -2.2
v 0.7 0.1 -2.2
v 0.8 0.1 -0.6
v -0.7 0.1 -2.2
v -0.8 0.1 -2.2
v -0.8 0.1 -1.6
v -0.8 0.2 -2.2
v -0.9 0.2 -2.2
v -0.9 0.2 4
v -0.8 0.2 4
v -0.9 0.1 -2.2
v -1 0.1 -2.2
v -1 0.1 4
v -0.9 0.1 4
v 0.9 0 3.7
v 0.9 0 4
v 0.7 0 4
v 0.7 0 3.7
v -0.8 0 3.7
v -0.8 0 4
v -1 0 4
v -1 0 3.7
v 1.4 0 3.3
v 1.4 0 3.7
v 1 0 3.7
v 1 0 3.3
v 0.9 0 3.3
v 0.8 0 3.7
v 0.8 0 3.3
v 0.7 0 3.3
v -0.7 0 3.7
v -0.7 0 3.3
v -0.8 0.1 3.3
v -0.8 0.1 3.7
v -0.9 0.1 3.7
v -0.9 0.1 3.3
v -1 0 3.3
v -1.4 0 3.7
v -1.4 0 3.3
v 0.9 0 2.7
v 0.8 0 2.7
v -0.8 0 2.7
v -0.8 0 3.3
v -0.9 0 3.3
v -0.9 0 2.7
v 1.4 0 2.3
v 1.4 0 2.7
v 1 0 2.7
v 1 0 2.3
v 0.9 0 2.3
v 0.8 0 2.3
v 0.7 0 2.3
v 0.7 0 2.7
v -0.7 0 2.7
v -0.7 0 2.3
v -0.8 0.1 2.3
v -0.8 0.1 2.7
v -0.9 0.1 2.7
v -0.9 0.1 2.3
v -1 0 2.3
v -1 0 2.7
v -1.4 0 2.7
v -1.4 0 2.3
v 1.1 0 1.4
v 1.1 0 2.1
v 1 0 2.1
v 1 0 1.4
v 1.2 0 1.3
v 1.2 0 1.8
v 1.1 0 1.8
v 1.1 0 1.3
v 1.3 0 1.2
v 1.3 0 1.6
v 1.2 0 1.6
v 1.2 0 1.2
v 1.4 0 1.1
v 1.4 0 1.4
v 1.3 0 1.4
v 1.3 0 1.1
v 3.7 0 1
v 3.7 0 1.4
v 3.3 0 1.4
v 3.3 0 1
v 2.7 0 1
v 2.7 0 1.4
v 2.3 0 1.4
v 2.3 0 1
v 1.6 0 1
v 1.6 0 1.3
v 1.4 0 1.3
v 1.4 0 1
v 3.7 0 0.9
v 2.1 0 1
v 2.1 0 0.9
v 3.7 0.1 0.8
v 3.7 0.1 0.9
v 3.3 0.1 0.9
v 3.3 0.1 0.8
v 2.7 0.1 0.8
v 2.7 0.1 0.9
v 2.3 0.1 0.9
v 2.3 0.1 0.8
v 4 0 0.7
v 4 0 1
v 3.7 0 0.7
v 3.7 0 0.8
v 3.3 0 0.8
v 3.3 0 0.7
v 3.3 0 0.9
v 2.7 0 0.9
v 2.7 0 0.7
v 2.7 0 0.8
v 2.3 0 0.8
v 2.3 0 0.7
v 2.3 0 0.9
v 2.1 0 0.7
v 2.1 0 1.1
v 1.8 0 1.1
v 1.8 0 0.7
v 1.8 0 1.2
v 1.6 0 1.2
v 1.6 0 0.7
v 1.6 0 0.6
v 1.6 0 0.9
v 1.2 0 0.9
v 1.2 0 0.6
v 1.2 0 0.5
v 1.2 0 0.8
v 1 0 0.8
v 1 0 0.5
v -0.6 0 0.5
v -0.6 0 1.6
v -0.7 0 1.6
v -0.7 0 0.5
v 0.7 0 0.4
v 0.7 0 0.7
v 0.5 0 0.7
v 0.5 0 0.4
v 0.5 0 0.3
v 0.5 0 0.6
v 0.3 0 0.6
v 0.3 0 0.3
v -0.5 0 0.3
v -0.5 0 1.2
v -0.6 0 1.2
v -0.6 0 0.3
v 0.3 0 0.2
v 0.3 0 0.5
v 0.1 0 0.5
v 0.1 0 0.2
v 0.1 0 0.1
v 0.1 0 0.4
v 0 0 0.4
v 0 0 0.1
v -0.4 0 0.1
v -0.4 0 0.8
v -0.5 0 0.8
v -0.5 0 0.1
v -0.1 0 -0.2
v -0.1 0 0.2
v -0.2 0 0.2
v -0.2 0 -0.2
v 0 0 -0.3
v 0 0 0.3
v -0.1 0 0.3
v -0.1 0 -0.3
v -0.2 0 -0.3
v -0.2 0 0.3
v -0.3 0 0.3
v -0.3 0 -0.3
v 0.1 0 -0.4
v 0.1 0 -0.1
v 0 0 -0.1
v 0 0 -0.4
v 0.3 0 -0.5
v 0.3 0 -0.2
v 0.1 0 -0.2
v 0.1 0 -0.5
v -0.3 0 -0.5
v -0.3 0 0.5
v -0.4 0 0.5
v -0.4 0 -0.5
v 0.5 0 -0.6
v 0.5 0 -0.3
v 0.3 0 -0.3
v 0.3 0 -0.6
v 3.7 0 -0.7
v 3.3 0 -0.7
v 2.7 0 -0.7
v 2.3 0 -0.7
v 0.7 0 -0.7
v 0.7 0 -0.4
v 0.5 0 -0.4
v 0.5 0 -0.7
v 3.7 0 -0.8
v 1.6 0 -0.7
v 1.6 0 -0.8
v 1.2 0 -0.8
v 1.2 0 -0.5
v 1 0 -0.5
v 1 0 -0.8
v -0.4 0 -0.8
v -0.4 0 -0.1
v -0.5 0 -0.1
v -0.5 0 -0.8
v 3.7 0 -0.9
v 3.3 0 -0.8
v 3.3 0 -0.9
v 2.7 0 -0.9
v 2.7 0 -0.8
v 2.3 0 -0.8
v 2.3 0 -0.9
v 1.6 0 -0.9
v 1.6 0 -0.6
v 1.2 0 -0.6
v 1.2 0 -0.9
v 4 0 -1
v 4 0 -0.7
v 3.7 0 -1
v 3.3 0 -1
v 2.7 0 -1
v 2.3 0 -1
v 1.6 0 -1
v 2.1 0 -1.1
v 2.1 0 -1
v 1.4 0 -1
v 1.4 0 -1.1
v 1.8 0 -1.2
v 1.8 0 -1.1
v 1.3 0 -1.1
v 1.3 0 -1.2
v -0.5 0 -1.2
v -0.5 0 -0.3
v -0.6 0 -0.3
v -0.6 0 -1.2
v 1.6 0 -1.3
v 1.6 0 -1.2
v 1.2 0 -1.2
v 1.2 0 -1.3
v 3.7 0 -1.4
v 3.3 0 -1.4
v 2.7 0 -1.4
v 2.3 0 -1.4
v 1.4 0 -1.4
v 1.4 0 -1.3
v 1.1 0 -1.3
v 1.1 0 -1.4
v 1.3 0 -1.6
v 1.3 0 -1.4
v 1 0 -1.4
v 1 0 -1.6
v -0.6 0 -1.6
v -0.6 0 -0.5
v -0.7 0 -0.5
v -0.7 0 -1.6
v 1.2 0 -1.8
v 1.2 0 -1.6
v 1 0 -1.8
v 1.1 0 -2.1
v 1.1 0 -1.8
v 1 0 -2.1
v 1 0 -2.2
v 1 0 4
v 0.9 0 -2.2
v 0.8 0 -2.2
v 0.7 0 -2.2
v -0.7 0 -2.2
v -0.7 0 4
v -0.8 0 -2.2
v -0.8 0 2.3
v -0.9 0 2.3
v -0.9 0 -2.2
v -0.9 0 3.7
v -1 0 -2.2
v 1.4 0.1 -2.7
v 1 0.1 -2.7
v 1 0.1 -2.3
v 1.4 0.1 -2.3
v 0.7 0.1 -2.7
v -0.7 0.1 -2.7
v -0.7 0.1 -2.3
v 0.7 0.1 -2.3
v -1 0.1 -2.7
v -1.4 0.1 -2.7
v -1.4 0.1 -2.3
v -1 0.1 -2.3
v 1.4 0.1 -3.7
v 1 0.1 -3.7
v 1 0.1 -3.3
v 1.4 0.1 -3.3
v 0.7 0.1 -3.7
v -0.7 0.1 -3.7
v -0.7 0.1 -3.3
v 0.7 0.1 -3.3
v -1 0.1 -3.7
v -1.4 0.1 -3.7
v -1.4 0.1 -3.3
v -1 0.1 -3.3
v 1 0.1 -4
v 0.9 0.1 -4
v 0.9 0.2 -4
v 0.8 0.2 -4
v 0.8 0.1 -4
v 0.7 0.1 -4
v -0.7 0.1 -4
v -0.8 0.1 -4
v -0.8 0.2 -4
v -0.9 0.2 -4
v -0.9 0.1 -4
v -1 0.1 -4
v 0.9 0 -2.3
v 0.7 0 -2.3
v -0.8 0 -2.3
v -1 0 -2.3
v 1.4 0 -2.7
v 1.4 0 -2.3
v 1 0 -2.3
v 1 0 -2.7
v 0.9 0.1 -2.7
v 0.9 0.1 -2.3
v 0.8 0.1 -2.3
v 0.8 0.1 -2.7
v 0.7 0 -2.7
v -0.7 0 -2.3
v -0.7 0 -2.7
v -0.8 0 -2.7
v -0.9 0 -2.3
v -0.9 0 -2.7
v -1 0 -2.7
v -1.4 0 -2.3
v -1.4 0 -2.7
v 0.9 0 -3.3
v 0.9 0 -2.7
v 0.8 0 -2.7
v 0.8 0 -3.3
v -0.8 0 -3.3
v -0.9 0 -3.3
v 1.4 0 -3.7
v 1.4 0 -3.3
v 1 0 -3.3
v 1 0 -3.7
v 0.9 0.1 -3.7
v 0.9 0.1 -3.3
v 0.8 0.1 -3.3
v 0.8 0.1 -3.7
v 0.7 0 -3.7
v 0.7 0 -3.3
v -0.7 0 -3.3
v -0.7 0 -3.7
v -0.8 0 -3.7
v -0.9 0 -3.7
v -1 0 -3.7
v -1 0 -3.3
v -1.4 0 -3.3
v -1.4 0 -3.7
v 1 0 -4
v 0.9 0 -4
v 0.9 0 -3.7
v 0.8 0 -3.7
v 0.8 0 -4
v 0.8 0 -2.3
v 0.7 0 -4
v -0.7 0 -4
v -0.8 0 -4
v -0.9 0 -4
v -1 0 -4

vt 0.00585938 0.5
vt 0.0683594 0.5

vn 0 1 0
vn 0 -1 0
vn -1 0 0
vn 1 0 0
vn 0 0 -1
vn 0 0 1

usemtl palette
f 1/1/1 2/1/1 4/1/1
f 4/1/1 2/1/1 3/1/1
f 5/1/1 6/1/1 8/1/1
f 8/1/1 6/1/1 7/1/1
f 9/1/1 10/1/1 12/1/1
f 12/1/1 10/1/1 11/1/1
f 13/1/1 14/1/1 16/1/1
f 16/1/1 14/1/1 15/1/1
f 17/1/1 18/1/1 20/1/1
f 20/1/1 18/1/1 19/1/1
f 21/1/1 22/1/1 24/1/1
f 24/1/1 22/1/1 23/1/1
f 25/2/1 26/2/1 28/2/1
f 28/2/1 26/2/1 27/2/1
f 29/2/1 30/2/1 31/2/1
f 31/2/1 30/2/1 25/2/1
f 32/2/1 33/2/1 35/2/1
f 35/2/1 33/2/1 34/2/1
f 36/2/1 37/2/1 38/2/1
f 38/2/1 37/2/1 29/2/1
f 39/2/1 40/2/1 41/2/1
f 41/2/1 40/2/1 32/2/1
f 42/2/1 43/2/1 45/2/1
f 45/2/1 43/2/1 44/2/1
f 46/2/1 47/2/1 48/2/1
f 48/2/1 47/2/1 36/2/1
f 49/2/1 50/2/1 51/2/1
f 51/2/1 50/2/1 39/2/1
f 52/2/1 53/2/1 37/2/1
f 37/2/1 53/2/1 54/2/1
f 55/2/1 56/2/1 57/2/1
f 57/2/1 56/2/1 46/2/1
f 58/2/1 59/2/1 60/2/1
f 60/2/1 59/2/1 49/2/1
f 61/2/1 62/2/1 47/2/1
f 47/2/1 62/2/1 52/2/1
f 63/2/1 64/2/1 65/2/1
f 65/2/1 64/2/1 55/2/1
f 66/2/1 67/2/1 68/2/1
f 68/2/1 67/2/1 58/2/1
f 69/2/1 70/2/1 56/2/1
f 56/2/1 70/2/1 61/2/1
f 71/2/1 72/2/1 73/2/1
f 73/2/1 72/2/1 42/2/1
f 74/2/1 75/2/1 77/2/1
f 77/2/1 75/2/1 76/2/1
f 78/2/1 79/2/1 80/2/1
f 80/2/1 79/2/1 63/2/1
f 81/2/1 82/2/1 83/2/1
f 83/2/1 82/2/1 66/2/1
f 84/2/1 85/2/1 64/2/1
f 64/2/1 85/2/1 69/2/1
f 86/1/1 87/1/1 89/1/1
f 89/1/1 87/1/1 88/1/1
f 90/1/1 91/1/1 93/1/1
f 93/1/1 91/1/1 92/1/1
f 94/2/1 95/2/1 96/2/1
f 96/2/1 95/2/1 78/2/1
f 97/2/1 98/2/1 99/2/1
f 99/2/1 98/2/1 81/2/1
f 100/2/1 101/2/1 79/2/1
f 79/2/1 101/2/1 84/2/1
f 102/2/1 103/2/1 104/2/1
f 104/2/1 103/2/1 94/2/1
f 105/2/1 106/2/1 95/2/1
f 95/2/1 106/2/1 100/2/1
f 107/2/1 108/2/1 110/2/1
f 110/2/1 108/2/1 109/2/1
f 108/2/1 111/2/1 112/2/1
f 112/2/1 111/2/1 97/2/1
f 111/2/1 113/2/1 115/2/1
f 115/2/1 113/2/1 114/2/1
f 116/2/1 117/2/1 106/2/1
f 106/2/1 117/2/1 118/2/1
f 119/2/1 120/2/1 121/2/1
f 121/2/1 120/2/1 71/2/1
f 122/2/1 123/2/1 124/2/1
f 124/2/1 123/2/1 74/2/1
f 125/2/1 126/2/1 127/2/1
f 127/2/1 126/2/1 116/2/1
f 128/2/1 129/2/1 113/2/1
f 113/2/1 129/2/1 130/2/1
f 131/2/1 132/2/1 117/2/1
f 117/2/1 132/2/1 133/2/1
f 132/2/1 134/2/1 30/2/1
f 30/2/1 134/2/1 135/2/1
f 136/2/1 137/2/1 126/2/1
f 126/2/1 137/2/1 131/2/1
f 138/2/1 139/2/1 129/2/1
f 129/2/1 139/2/1 140/2/1
f 141/2/1 142/2/1 144/2/1
f 144/2/1 142/2/1 143/2/1
f 142/2/1 145/2/1 147/2/1
f 147/2/1 145/2/1 146/2/1
f 148/2/1 149/2/1 137/2/1
f 137/2/1 149/2/1 150/2/1
f 151/2/1 152/2/1 154/2/1
f 154/2/1 152/2/1 153/2/1
f 155/2/1 156/2/1 145/2/1
f 145/2/1 156/2/1 157/2/1
f 158/2/1 159/2/1 160/2/1
f 160/2/1 159/2/1 119/2/1
f 161/2/1 162/2/1 163/2/1
f 163/2/1 162/2/1 122/2/1
f 164/2/1 165/2/1 120/2/1
f 120/2/1 165/2/1 166/2/1
f 167/2/1 168/2/1 169/2/1
f 169/2/1 168/2/1 155/2/1
f 170/2/1 171/2/1 152/2/1
f 152/2/1 171/2/1 172/2/1
f 173/2/1 174/2/1 156/2/1
f 156/2/1 174/2/1 175/2/1
f 176/2/1 177/2/1 168/2/1
f 168/2/1 177/2/1 173/2/1
f 178/2/1 179/2/1 171/2/1
f 171/2/1 179/2/1 180/2/1
f 181/2/1 182/2/1 174/2/1
f 174/2/1 182/2/1 183/2/1
f 184/2/1 185/2/1 186/2/1
f 186/2/1 185/2/1 158/2/1
f 187/2/1 188/2/1 189/2/1
f 189/2/1 188/2/1 161/2/1
f 190/2/1 191/2/1 159/2/1
f 159/2/1 191/2/1 164/2/1
f 192/2/1 193/2/1 177/2/1
f 177/2/1 193/2/1 181/2/1
f 194/2/1 195/2/1 179/2/1
f 179/2/1 195/2/1 196/2/1
f 197/2/1 198/2/1 182/2/1
f 182/2/1 198/2/1 199/2/1
f 200/2/1 201/2/1 193/2/1
f 193/2/1 201/2/1 197/2/1
f 202/2/1 203/2/1 195/2/1
f 195/2/1 203/2/1 204/2/1
f 205/2/1 206/2/1 198/2/1
f 198/2/1 206/2/1 207/2/1
f 206/2/1 208/2/1 209/2/1
f 209/2/1 208/2/1 184/2/1
f 210/2/1 211/2/1 212/2/1
f 212/2/1 211/2/1 187/2/1
f 213/2/1 214/2/1 185/2/1
f 185/2/1 214/2/1 190/2/1
f 215/2/1 216/2/1 201/2/1
f 201/2/1 216/2/1 205/2/1
f 217/2/1 218/2/1 203/2/1
f 203/2/1 218/2/1 210/2/1
f 219/2/1 220/2/1 208/2/1
f 208/2/1 220/2/1 213/2/1
f 221/2/1 222/2/1 223/2/1
f 223/2/1 222/2/1 215/2/1
f 224/2/1 225/2/1 226/2/1
f 226/2/1 225/2/1 217/2/1
f 227/2/1 228/2/1 216/2/1
f 216/2/1 228/2/1 219/2/1
f 229/2/1 230/2/1 231/2/1
f 231/2/1 230/2/1 221/2/1
f 232/2/1 233/2/1 234/2/1
f 234/2/1 233/2/1 224/2/1
f 235/2/1 236/2/1 222/2/1
f 222/2/1 236/2/1 227/2/1
f 237/2/1 238/2/1 239/2/1
f 239/2/1 238/2/1 228/2/1
f 240/2/1 241/2/1 218/2/1
f 218/2/1 241/2/1 242/2/1
f 243/2/1 244/2/1 220/2/1
f 220/2/1 244/2/1 245/2/1
f 246/2/1 247/2/1 248/2/1
f 248/2/1 247/2/1 229/2/1
f 249/2/1 250/2/1 251/2/1
f 251/2/1 250/2/1 232/2/1
f 252/2/1 253/2/1 230/2/1
f 230/2/1 253/2/1 235/2/1
f 254/2/1 255/2/1 256/2/1
f 256/2/1 255/2/1 169/2/1
f 255/2/1 257/2/1 258/2/1
f 258/2/1 257/2/1 246/2/1
f 259/2/1 260/2/1 261/2/1
f 261/2/1 260/2/1 249/2/1
f 262/2/1 263/2/1 247/2/1
f 247/2/1 263/2/1 252/2/1
f 264/2/1 265/2/1 238/2/1
f 238/2/1 265/2/1 243/2/1
f 266/2/1 267/2/1 241/2/1
f 241/2/1 267/2/1 268/2/1
f 269/2/1 270/2/1 244/2/1
f 244/2/1 270/2/1 271/2/1
f 272/2/1 273/2/1 275/2/1
f 275/2/1 273/2/1 274/2/1
f 273/2/1 276/2/1 277/2/1
f 277/2/1 276/2/1 149/2/1
f 278/2/1 279/2/1 280/2/1
f 280/2/1 279/2/1 259/2/1
f 281/2/1 282/2/1 257/2/1
f 257/2/1 282/2/1 262/2/1
f 283/1/1 284/1/1 286/1/1
f 286/1/1 284/1/1 285/1/1
f 287/1/1 288/1/1 290/1/1
f 290/1/1 288/1/1 289/1/1
f 291/2/1 292/2/1 293/2/1
f 293/2/1 292/2/1 272/2/1
f 294/2/1 295/2/1 297/2/1
f 297/2/1 295/2/1 296/2/1
f 298/2/1 299/2/1 300/2/1
f 300/2/1 299/2/1 281/2/1
f 301/2/1 302/2/1 303/2/1
f 303/2/1 302/2/1 291/2/1
f 304/2/1 305/2/1 306/2/1
f 306/2/1 305/2/1 294/2/1
f 307/2/1 308/2/1 292/2/1
f 292/2/1 308/2/1 309/2/1
f 310/2/1 311/2/1 265/2/1
f 265/2/1 311/2/1 269/2/1
f 312/2/1 313/2/1 267/2/1
f 267/2/1 313/2/1 314/2/1
f 315/2/1 316/2/1 270/2/1
f 270/2/1 316/2/1 317/2/1
f 318/2/1 319/2/1 320/2/1
f 320/2/1 319/2/1 304/2/1
f 321/2/1 322/2/1 302/2/1
f 302/2/1 322/2/1 307/2/1
f 323/2/1 324/2/1 326/2/1
f 326/2/1 324/2/1 325/2/1
f 327/2/1 328/2/1 330/2/1
f 330/2/1 328/2/1 329/2/1
f 331/2/1 332/2/1 333/2/1
f 333/2/1 332/2/1 321/2/1
f 334/2/1 335/2/1 324/2/1
f 324/2/1 335/2/1 331/2/1
f 336/2/1 337/2/1 328/2/1
f 328/2/1 337/2/1 338/2/1
f 339/2/1 340/2/1 332/2/1
f 332/2/1 340/2/1 341/2/1
f 342/2/1 343/2/1 335/2/1
f 335/2/1 343/2/1 339/2/1
f 344/2/1 345/2/1 337/2/1
f 337/2/1 345/2/1 346/2/1
f 347/2/1 348/2/1 340/2/1
f 340/2/1 348/2/1 349/2/1
f 350/2/1 351/2/1 311/2/1
f 311/2/1 351/2/1 315/2/1
f 352/2/1 353/2/1 313/2/1
f 313/2/1 353/2/1 354/2/1
f 355/2/1 356/2/1 72/2/1
f 72/2/1 356/2/1 357/2/1
f 358/2/1 359/2/1 343/2/1
f 343/2/1 359/2/1 347/2/1
f 360/2/1 361/2/1 345/2/1
f 345/2/1 361/2/1 362/2/1
f 363/2/1 364/2/1 348/2/1
f 348/2/1 364/2/1 365/2/1
f 366/1/1 367/1/1 369/1/1
f 369/1/1 367/1/1 368/1/1
f 370/1/1 371/1/1 373/1/1
f 373/1/1 371/1/1 372/1/1
f 374/2/1 375/2/1 359/2/1
f 359/2/1 375/2/1 363/2/1
f 376/2/1 377/2/1 361/2/1
f 361/2/1 377/2/1 378/2/1
f 379/2/1 380/2/1 364/2/1
f 364/2/1 380/2/1 381/2/1
f 382/2/1 383/2/1 375/2/1
f 375/2/1 383/2/1 379/2/1
f 384/2/1 385/2/1 377/2/1
f 377/2/1 385/2/1 386/2/1
f 387/2/1 388/2/1 380/2/1
f 380/2/1 388/2/1 389/2/1
f 390/2/1 391/2/1 351/2/1
f 351/2/1 391/2/1 355/2/1
f 392/2/1 393/2/1 353/2/1
f 353/2/1 393/2/1 394/2/1
f 395/2/1 396/2/1 383/2/1
f 383/2/1 396/2/1 387/2/1
f 397/2/1 398/2/1 385/2/1
f 385/2/1 398/2/1 399/2/1
f 400/2/1 401/2/1 402/2/1
f 402/2/1 401/2/1 308/2/1
f 403/2/1 404/2/1 396/2/1
f 396/2/1 404/2/1 400/2/1
f 405/2/1 406/2/1 398/2/1
f 398/2/1 406/2/1 407/2/1
f 408/2/1 409/2/1 404/2/1
f 404/2/1 409/2/1 410/2/1
f 411/2/1 412/2/1 414/2/1
f 414/2/1 412/2/1 413/2/1
f 415/2/1 416/2/1 417/2/1
f 417/2/1 416/2/1 300/2/1
f 418/2/1 419/2/1 391/2/1
f 391/2/1 419/2/1 420/2/1
f 421/2/1 422/2/1 424/2/1
f 424/2/1 422/2/1 423/2/1
f 425/2/1 426/2/1 428/2/1
f 428/2/1 426/2/1 427/2/1
f 429/2/2 430/2/2 432/2/2
f 432/2/2 430/2/2 431/2/2
f 433/2/2 434/2/2 436/2/2
f 436/2/2 434/2/2 435/2/2
f 437/1/2 438/1/2 440/1/2
f 440/1/2 438/1/2 439/1/2
f 441/1/2 429/1/2 443/1/2
f 443/1/2 429/1/2 442/1/2
f 444/1/2 432/1/2 446/1/2
f 446/1/2 432/1/2 445/1/2
f 447/2/2 448/2/2 450/2/2
f 450/2/2 448/2/2 449/2/2
f 451/1/2 436/1/2 453/1/2
f 453/1/2 436/1/2 452/1/2
f 454/2/2 441/2/2 455/2/2
f 455/2/2 441/2/2 443/2/2
f 456/2/2 457/2/2 459/2/2
f 459/2/2 457/2/2 458/2/2
f 460/1/2 461/1/2 463/1/2
f 463/1/2 461/1/2 462/1/2
f 464/1/2 454/1/2 465/1/2
f 465/1/2 454/1/2 455/1/2
f 466/1/2 467/1/2 469/1/2
f 469/1/2 467/1/2 468/1/2
f 470/2/2 471/2/2 473/2/2
f 473/2/2 471/2/2 472/2/2
f 474/1/2 475/1/2 477/1/2
f 477/1/2 475/1/2 476/1/2
f 478/2/2 479/2/2 481/2/2
f 481/2/2 479/2/2 480/2/2
f 482/2/2 483/2/2 485/2/2
f 485/2/2 483/2/2 484/2/2
f 486/2/2 487/2/2 489/2/2
f 489/2/2 487/2/2 488/2/2
f 490/2/2 491/2/2 493/2/2
f 493/2/2 491/2/2 492/2/2
f 494/1/2 495/1/2 497/1/2
f 497/1/2 495/1/2 496/1/2
f 498/1/2 499/1/2 501/1/2
f 501/1/2 499/1/2 500/1/2
f 502/2/2 503/2/2 505/2/2
f 505/2/2 503/2/2 504/2/2
f 506/2/2 494/2/2 508/2/2
f 508/2/2 494/2/2 507/2/2
f 509/2/2 510/2/2 512/2/2
f 512/2/2 510/2/2 511/2/2
f 513/2/2 514/2/2 516/2/2
f 516/2/2 514/2/2 515/2/2
f 517/2/2 518/2/2 519/2/2
f 519/2/2 518/2/2 494/2/2
f 519/2/2 520/2/2 522/2/2
f 522/2/2 520/2/2 521/2/2
f 522/2/2 523/2/2 525/2/2
f 525/2/2 523/2/2 524/2/2
f 525/2/2 526/2/2 528/2/2
f 528/2/2 526/2/2 527/2/2
f 528/2/2 529/2/2 530/2/2
f 530/2/2 529/2/2 508/2/2
f 530/2/2 531/2/2 533/2/2
f 533/2/2 531/2/2 532/2/2
f 533/2/2 534/2/2 536/2/2
f 536/2/2 534/2/2 535/2/2
f 537/2/2 538/2/2 540/2/2
f 540/2/2 538/2/2 539/2/2
f 541/2/2 542/2/2 544/2/2
f 544/2/2 542/2/2 543/2/2
f 545/2/2 546/2/2 548/2/2
f 548/2/2 546/2/2 547/2/2
f 549/2/2 550/2/2 552/2/2
f 552/2/2 550/2/2 551/2/2
f 553/2/2 554/2/2 556/2/2
f 556/2/2 554/2/2 555/2/2
f 557/2/2 558/2/2 560/2/2
f 560/2/2 558/2/2 559/2/2
f 561/2/2 562/2/2 564/2/2
f 564/2/2 562/2/2 563/2/2
f 565/2/2 566/2/2 568/2/2
f 568/2/2 566/2/2 567/2/2
f 569/2/2 570/2/2 572/2/2
f 572/2/2 570/2/2 571/2/2
f 573/2/2 574/2/2 576/2/2
f 576/2/2 574/2/2 575/2/2
f 577/2/2 578/2/2 580/2/2
f 580/2/2 578/2/2 579/2/2
f 581/2/2 582/2/2 584/2/2
f 584/2/2 582/2/2 583/2/2
f 585/2/2 586/2/2 588/2/2
f 588/2/2 586/2/2 587/2/2
f 589/2/2 590/2/2 592/2/2
f 592/2/2 590/2/2 591/2/2
f 593/2/2 594/2/2 596/2/2
f 596/2/2 594/2/2 595/2/2
f 597/2/2 598/2/2 600/2/2
f 600/2/2 598/2/2 599/2/2
f 601/1/2 519/1/2 602/1/2
f 602/1/2 519/1/2 522/1/2
f 603/1/2 525/1/2 604/1/2
f 604/1/2 525/1/2 528/1/2
f 605/2/2 606/2/2 608/2/2
f 608/2/2 606/2/2 607/2/2
f 609/2/2 601/2/2 611/2/2
f 611/2/2 601/2/2 610/2/2
f 612/2/2 613/2/2 615/2/2
f 615/2/2 613/2/2 614/2/2
f 616/2/2 617/2/2 619/2/2
f 619/2/2 617/2/2 618/2/2
f 620/1/2 609/1/2 622/1/2
f 622/1/2 609/1/2 621/1/2
f 623/1/2 624/1/2 626/1/2
f 626/1/2 624/1/2 625/1/2
f 627/2/2 628/2/2 630/2/2
f 630/2/2 628/2/2 629/2/2
f 631/2/2 632/2/2 633/2/2
f 633/2/2 632/2/2 601/2/2
f 633/2/2 620/2/2 634/2/2
f 634/2/2 620/2/2 622/2/2
f 634/2/2 621/2/2 635/2/2
f 635/2/2 621/2/2 624/2/2
f 635/2/2 623/2/2 636/2/2
f 636/2/2 623/2/2 626/2/2
f 636/2/2 625/2/2 637/2/2
f 637/2/2 625/2/2 611/2/2
f 638/2/2 639/2/2 641/2/2
f 641/2/2 639/2/2 640/2/2
f 642/2/2 643/2/2 645/2/2
f 645/2/2 643/2/2 644/2/2
f 646/2/2 647/2/2 649/2/2
f 649/2/2 647/2/2 648/2/2
f 650/2/2 651/2/2 653/2/2
f 653/2/2 651/2/2 652/2/2
f 654/1/2 633/1/2 655/1/2
f 655/1/2 633/1/2 634/1/2
f 656/1/2 635/1/2 657/1/2
f 657/1/2 635/1/2 636/1/2
f 658/2/2 659/2/2 661/2/2
f 661/2/2 659/2/2 660/2/2
f 662/2/2 663/2/2 665/2/2
f 665/2/2 663/2/2 664/2/2
f 666/2/2 667/2/2 669/2/2
f 669/2/2 667/2/2 668/2/2
f 670/2/2 671/2/2 672/2/2
f 672/2/2 671/2/2 665/2/2
f 673/2/2 674/2/2 675/2/2
f 675/2/2 674/2/2 672/2/2
f 676/2/2 677/2/2 678/2/2
f 678/2/2 677/2/2 430/2/2
f 678/2/2 464/2/2 679/2/2
f 679/2/2 464/2/2 465/2/2
f 679/2/2 442/2/2 680/2/2
f 680/2/2 442/2/2 432/2/2
f 681/2/2 682/2/2 683/2/2
f 683/2/2 682/2/2 434/2/2
f 683/2/2 684/2/2 686/2/2
f 686/2/2 684/2/2 685/2/2
f 686/2/2 687/2/2 688/2/2
f 688/2/2 687/2/2 436/2/2
f 143/2/3 8/2/3 431/2/3
f 431/2/3 8/2/3 432/2/3
f 427/2/3 12/2/3 435/2/3
f 435/2/3 12/2/3 436/2/3
f 448/2/3 447/2/3 433/2/3
f 433/2/3 447/2/3 457/2/3
f 11/1/3 10/1/3 452/1/3
f 452/1/3 10/1/3 453/1/3
f 5/2/3 20/2/3 444/2/3
f 444/2/3 20/2/3 467/2/3
f 9/2/3 24/2/3 451/2/3
f 451/2/3 24/2/3 475/2/3
f 471/2/3 470/2/3 456/2/3
f 456/2/3 470/2/3 684/2/3
f 23/1/3 22/1/3 476/1/3
f 476/1/3 22/1/3 477/1/3
f 52/2/3 62/2/3 478/2/3
f 478/2/3 62/2/3 485/2/3
f 61/2/3 70/2/3 482/2/3
f 482/2/3 70/2/3 489/2/3
f 69/2/3 85/2/3 486/2/3
f 486/2/3 85/2/3 493/2/3
f 88/1/3 87/1/3 496/1/3
f 496/1/3 87/1/3 497/1/3
f 92/1/3 91/1/3 500/1/3
f 500/1/3 91/1/3 501/1/3
f 84/2/3 101/2/3 490/2/3
f 490/2/3 101/2/3 505/2/3
f 100/2/3 106/2/3 502/2/3
f 502/2/3 106/2/3 538/2/3
f 510/2/3 509/2/3 506/2/3
f 506/2/3 509/2/3 520/2/3
f 514/2/3 513/2/3 524/2/3
f 524/2/3 513/2/3 526/2/3
f 118/2/3 117/2/3 539/2/3
f 539/2/3 117/2/3 542/2/3
f 17/2/3 147/2/3 466/2/3
f 466/2/3 147/2/3 550/2/3
f 146/2/3 145/2/3 551/2/3
f 551/2/3 145/2/3 554/2/3
f 157/2/3 156/2/3 555/2/3
f 555/2/3 156/2/3 562/2/3
f 175/2/3 174/2/3 563/2/3
f 563/2/3 174/2/3 566/2/3
f 183/2/3 182/2/3 567/2/3
f 567/2/3 182/2/3 578/2/3
f 164/2/3 191/2/3 545/2/3
f 545/2/3 191/2/3 560/2/3
f 199/2/3 198/2/3 579/2/3
f 579/2/3 198/2/3 574/2/3
f 190/2/3 214/2/3 557/2/3
f 557/2/3 214/2/3 572/2/3
f 213/2/3 220/2/3 569/2/3
f 569/2/3 220/2/3 617/2/3
f 227/2/3 236/2/3 573/2/3
f 573/2/3 236/2/3 580/2/3
f 245/2/3 244/2/3 618/2/3
f 618/2/3 244/2/3 647/2/3
f 167/2/3 258/2/3 549/2/3
f 549/2/3 258/2/3 606/2/3
f 235/2/3 253/2/3 577/2/3
f 577/2/3 253/2/3 588/2/3
f 252/2/3 263/2/3 585/2/3
f 585/2/3 263/2/3 592/2/3
f 271/2/3 270/2/3 648/2/3
f 648/2/3 270/2/3 667/2/3
f 262/2/3 282/2/3 589/2/3
f 589/2/3 282/2/3 600/2/3
f 285/1/3 284/1/3 522/1/3
f 522/1/3 284/1/3 602/1/3
f 289/1/3 288/1/3 528/1/3
f 528/1/3 288/1/3 604/1/3
f 281/2/3 299/2/3 597/2/3
f 597/2/3 299/2/3 608/2/3
f 307/2/3 322/2/3 612/2/3
f 612/2/3 322/2/3 630/2/3
f 321/2/3 332/2/3 627/2/3
f 627/2/3 332/2/3 637/2/3
f 341/2/3 340/2/3 640/2/3
f 640/2/3 340/2/3 641/2/3
f 349/2/3 348/2/3 644/2/3
f 644/2/3 348/2/3 645/2/3
f 365/2/3 364/2/3 652/2/3
f 652/2/3 364/2/3 653/2/3
f 368/1/3 367/1/3 634/1/3
f 634/1/3 367/1/3 655/1/3
f 372/1/3 371/1/3 636/1/3
f 636/1/3 371/1/3 657/1/3
f 381/2/3 380/2/3 660/2/3
f 660/2/3 380/2/3 661/2/3
f 298/2/3 416/2/3 605/2/3
f 605/2/3 416/2/3 680/2/3
f 21/2/3 426/2/3 474/2/3
f 474/2/3 426/2/3 688/2/3
f 32/2/3 40/2/3 30/2/3
f 30/2/3 40/2/3 54/2/3
f 39/2/3 50/2/3 37/2/3
f 37/2/3 50/2/3 52/2/3
f 49/2/3 59/2/3 47/2/3
f 47/2/3 59/2/3 61/2/3
f 58/2/3 67/2/3 56/2/3
f 56/2/3 67/2/3 69/2/3
f 66/2/3 82/2/3 64/2/3
f 64/2/3 82/2/3 84/2/3
f 81/2/3 98/2/3 79/2/3
f 79/2/3 98/2/3 100/2/3
f 97/2/3 115/2/3 95/2/3
f 95/2/3 115/2/3 105/2/3
f 114/2/3 113/2/3 106/2/3
f 106/2/3 113/2/3 116/2/3
f 74/2/3 123/2/3 72/2/3
f 72/2/3 123/2/3 166/2/3
f 130/2/3 129/2/3 117/2/3
f 117/2/3 129/2/3 131/2/3
f 413/2/3 154/2/3 144/2/3
f 144/2/3 154/2/3 141/2/3
f 153/2/3 152/2/3 145/2/3
f 145/2/3 152/2/3 155/2/3
f 122/2/3 162/2/3 120/2/3
f 120/2/3 162/2/3 164/2/3
f 172/2/3 171/2/3 156/2/3
f 156/2/3 171/2/3 173/2/3
f 180/2/3 179/2/3 174/2/3
f 174/2/3 179/2/3 181/2/3
f 161/2/3 188/2/3 159/2/3
f 159/2/3 188/2/3 190/2/3
f 196/2/3 195/2/3 182/2/3
f 182/2/3 195/2/3 197/2/3
f 204/2/3 203/2/3 198/2/3
f 198/2/3 203/2/3 205/2/3
f 187/2/3 211/2/3 185/2/3
f 185/2/3 211/2/3 213/2/3
f 210/2/3 218/2/3 208/2/3
f 208/2/3 218/2/3 219/2/3
f 217/2/3 225/2/3 216/2/3
f 216/2/3 225/2/3 227/2/3
f 224/2/3 233/2/3 222/2/3
f 222/2/3 233/2/3 235/2/3
f 242/2/3 241/2/3 220/2/3
f 220/2/3 241/2/3 243/2/3
f 232/2/3 250/2/3 230/2/3
f 230/2/3 250/2/3 252/2/3
f 151/2/3 280/2/3 256/2/3
f 256/2/3 280/2/3 254/2/3
f 249/2/3 260/2/3 247/2/3
f 247/2/3 260/2/3 262/2/3
f 268/2/3 267/2/3 244/2/3
f 244/2/3 267/2/3 269/2/3
f 259/2/3 279/2/3 257/2/3
f 257/2/3 279/2/3 281/2/3
f 294/2/3 305/2/3 292/2/3
f 292/2/3 305/2/3 307/2/3
f 314/2/3 313/2/3 270/2/3
f 270/2/3 313/2/3 315/2/3
f 304/2/3 319/2/3 302/2/3
f 302/2/3 319/2/3 321/2/3
f 329/2/3 328/2/3 333/2/3
f 333/2/3 328/2/3 331/2/3
f 338/2/3 337/2/3 332/2/3
f 332/2/3 337/2/3 339/2/3
f 346/2/3 345/2/3 340/2/3
f 340/2/3 345/2/3 347/2/3
f 354/2/3 353/2/3 316/2/3
f 316/2/3 353/2/3 355/2/3
f 362/2/3 361/2/3 348/2/3
f 348/2/3 361/2/3 363/2/3
f 378/2/3 377/2/3 364/2/3
f 364/2/3 377/2/3 379/2/3
f 386/2/3 385/2/3 380/2/3
f 380/2/3 385/2/3 387/2/3
f 399/2/3 398/2/3 388/2/3
f 388/2/3 398/2/3 400/2/3
f 278/2/3 412/2/3 417/2/3
f 417/2/3 412/2/3 415/2/3
f 423/2/3 422/2/3 428/2/3
f 428/2/3 422/2/3 425/2/3
f 28/2/4 677/2/4 3/2/4
f 3/2/4 677/2/4 439/2/4
f 45/2/4 682/2/4 7/2/4
f 7/2/4 682/2/4 445/2/4
f 4/1/4 438/1/4 1/1/4
f 1/1/4 438/1/4 437/1/4
f 449/2/4 687/2/4 450/2/4
f 450/2/4 687/2/4 458/2/4
f 2/2/4 440/2/4 15/2/4
f 15/2/4 440/2/4 462/2/4
f 6/2/4 446/2/4 19/2/4
f 19/2/4 446/2/4 468/2/4
f 16/1/4 461/1/4 13/1/4
f 13/1/4 461/1/4 460/1/4
f 472/2/4 459/2/4 473/2/4
f 473/2/4 459/2/4 685/2/4
f 14/2/4 463/2/4 25/2/4
f 25/2/4 463/2/4 480/2/4
f 31/2/4 479/2/4 29/2/4
f 29/2/4 479/2/4 484/2/4
f 38/2/4 483/2/4 36/2/4
f 36/2/4 483/2/4 488/2/4
f 18/2/4 469/2/4 42/2/4
f 42/2/4 469/2/4 547/2/4
f 48/2/4 487/2/4 46/2/4
f 46/2/4 487/2/4 492/2/4
f 57/2/4 491/2/4 55/2/4
f 55/2/4 491/2/4 504/2/4
f 65/2/4 503/2/4 63/2/4
f 63/2/4 503/2/4 535/2/4
f 73/2/4 546/2/4 71/2/4
f 71/2/4 546/2/4 559/2/4
f 80/2/4 534/2/4 78/2/4
f 78/2/4 534/2/4 532/2/4
f 89/1/4 495/1/4 86/1/4
f 86/1/4 495/1/4 494/1/4
f 93/1/4 499/1/4 90/1/4
f 90/1/4 499/1/4 498/1/4
f 96/2/4 531/2/4 94/2/4
f 94/2/4 531/2/4 507/2/4
f 511/2/4 523/2/4 512/2/4
f 512/2/4 523/2/4 521/2/4
f 515/2/4 529/2/4 516/2/4
f 516/2/4 529/2/4 527/2/4
f 53/2/4 481/2/4 133/2/4
f 133/2/4 481/2/4 543/2/4
f 121/2/4 558/2/4 119/2/4
f 119/2/4 558/2/4 571/2/4
f 104/2/4 518/2/4 125/2/4
f 125/2/4 518/2/4 517/2/4
f 126/2/4 536/2/4 136/2/4
f 136/2/4 536/2/4 537/2/4
f 137/2/4 540/2/4 148/2/4
f 148/2/4 540/2/4 541/2/4
f 160/2/4 570/2/4 158/2/4
f 158/2/4 570/2/4 595/2/4
f 168/2/4 552/2/4 176/2/4
f 176/2/4 552/2/4 553/2/4
f 186/2/4 594/2/4 184/2/4
f 184/2/4 594/2/4 583/2/4
f 177/2/4 556/2/4 192/2/4
f 192/2/4 556/2/4 561/2/4
f 209/2/4 582/2/4 207/2/4
f 207/2/4 582/2/4 575/2/4
f 193/2/4 564/2/4 200/2/4
f 200/2/4 564/2/4 565/2/4
f 201/2/4 568/2/4 215/2/4
f 215/2/4 568/2/4 587/2/4
f 223/2/4 586/2/4 221/2/4
f 221/2/4 586/2/4 591/2/4
f 231/2/4 590/2/4 229/2/4
f 229/2/4 590/2/4 599/2/4
f 239/2/4 576/2/4 237/2/4
f 237/2/4 576/2/4 581/2/4
f 248/2/4 598/2/4 246/2/4
f 246/2/4 598/2/4 607/2/4
f 277/2/4 544/2/4 274/2/4
f 274/2/4 544/2/4 614/2/4
f 238/2/4 584/2/4 264/2/4
f 264/2/4 584/2/4 593/2/4
f 165/2/4 548/2/4 317/2/4
f 317/2/4 548/2/4 668/2/4
f 275/2/4 613/2/4 272/2/4
f 272/2/4 613/2/4 629/2/4
f 286/1/4 519/1/4 283/1/4
f 283/1/4 519/1/4 601/1/4
f 290/1/4 525/1/4 287/1/4
f 287/1/4 525/1/4 603/1/4
f 293/2/4 628/2/4 291/2/4
f 291/2/4 628/2/4 610/2/4
f 265/2/4 596/2/4 310/2/4
f 310/2/4 596/2/4 616/2/4
f 303/2/4 632/2/4 323/2/4
f 323/2/4 632/2/4 631/2/4
f 324/2/4 639/2/4 334/2/4
f 334/2/4 639/2/4 638/2/4
f 335/2/4 643/2/4 342/2/4
f 342/2/4 643/2/4 642/2/4
f 311/2/4 619/2/4 350/2/4
f 350/2/4 619/2/4 646/2/4
f 343/2/4 651/2/4 358/2/4
f 358/2/4 651/2/4 650/2/4
f 369/1/4 633/1/4 366/1/4
f 366/1/4 633/1/4 654/1/4
f 373/1/4 635/1/4 370/1/4
f 370/1/4 635/1/4 656/1/4
f 359/2/4 659/2/4 374/2/4
f 374/2/4 659/2/4 658/2/4
f 402/2/4 615/2/4 389/2/4
f 389/2/4 615/2/4 664/2/4
f 375/2/4 663/2/4 382/2/4
f 382/2/4 663/2/4 662/2/4
f 351/2/4 649/2/4 390/2/4
f 390/2/4 649/2/4 666/2/4
f 383/2/4 671/2/4 395/2/4
f 395/2/4 671/2/4 670/2/4
f 396/2/4 674/2/4 403/2/4
f 403/2/4 674/2/4 673/2/4
f 404/2/4 675/2/4 408/2/4
f 408/2/4 675/2/4 676/2/4
f 391/2/4 669/2/4 418/2/4
f 418/2/4 669/2/4 681/2/4
f 414/2/4 27/2/4 34/2/4
f 34/2/4 27/2/4 26/2/4
f 35/2/4 25/2/4 32/2/4
f 32/2/4 25/2/4 30/2/4
f 41/2/4 29/2/4 39/2/4
f 39/2/4 29/2/4 37/2/4
f 424/2/4 44/2/4 76/2/4
f 76/2/4 44/2/4 43/2/4
f 51/2/4 36/2/4 49/2/4
f 49/2/4 36/2/4 47/2/4
f 60/2/4 46/2/4 58/2/4
f 58/2/4 46/2/4 56/2/4
f 68/2/4 55/2/4 66/2/4
f 66/2/4 55/2/4 64/2/4
f 77/2/4 42/2/4 74/2/4
f 74/2/4 42/2/4 72/2/4
f 83/2/4 63/2/4 81/2/4
f 81/2/4 63/2/4 79/2/4
f 99/2/4 78/2/4 97/2/4
f 97/2/4 78/2/4 95/2/4
f 112/2/4 94/2/4 109/2/4
f 109/2/4 94/2/4 103/2/4
f 110/2/4 102/2/4 107/2/4
f 107/2/4 102/2/4 127/2/4
f 124/2/4 71/2/4 122/2/4
f 122/2/4 71/2/4 120/2/4
f 113/2/4 116/2/4 128/2/4
f 128/2/4 116/2/4 126/2/4
f 33/2/4 135/2/4 140/2/4
f 140/2/4 135/2/4 134/2/4
f 129/2/4 131/2/4 138/2/4
f 138/2/4 131/2/4 137/2/4
f 163/2/4 119/2/4 161/2/4
f 161/2/4 119/2/4 159/2/4
f 152/2/4 155/2/4 170/2/4
f 170/2/4 155/2/4 168/2/4
f 171/2/4 173/2/4 178/2/4
f 178/2/4 173/2/4 177/2/4
f 189/2/4 158/2/4 187/2/4
f 187/2/4 158/2/4 185/2/4
f 179/2/4 181/2/4 194/2/4
f 194/2/4 181/2/4 193/2/4
f 195/2/4 197/2/4 202/2/4
f 202/2/4 197/2/4 201/2/4
f 212/2/4 184/2/4 210/2/4
f 210/2/4 184/2/4 208/2/4
f 203/2/4 205/2/4 217/2/4
f 217/2/4 205/2/4 216/2/4
f 226/2/4 215/2/4 224/2/4
f 224/2/4 215/2/4 222/2/4
f 234/2/4 221/2/4 232/2/4
f 232/2/4 221/2/4 230/2/4
f 218/2/4 219/2/4 240/2/4
f 240/2/4 219/2/4 238/2/4
f 251/2/4 229/2/4 249/2/4
f 249/2/4 229/2/4 247/2/4
f 261/2/4 246/2/4 259/2/4
f 259/2/4 246/2/4 257/2/4
f 241/2/4 243/2/4 266/2/4
f 266/2/4 243/2/4 265/2/4
f 139/2/4 150/2/4 296/2/4
f 296/2/4 150/2/4 276/2/4
f 297/2/4 272/2/4 294/2/4
f 294/2/4 272/2/4 292/2/4
f 306/2/4 291/2/4 304/2/4
f 304/2/4 291/2/4 302/2/4
f 267/2/4 269/2/4 312/2/4
f 312/2/4 269/2/4 311/2/4
f 320/2/4 301/2/4 318/2/4
f 318/2/4 301/2/4 326/2/4
f 330/2/4 325/2/4 327/2/4
f 327/2/4 325/2/4 324/2/4
f 328/2/4 331/2/4 336/2/4
f 336/2/4 331/2/4 335/2/4
f 337/2/4 339/2/4 344/2/4
f 344/2/4 339/2/4 343/2/4
f 313/2/4 315/2/4 352/2/4
f 352/2/4 315/2/4 351/2/4
f 75/2/4 357/2/4 394/2/4
f 394/2/4 357/2/4 356/2/4
f 345/2/4 347/2/4 360/2/4
f 360/2/4 347/2/4 359/2/4
f 361/2/4 363/2/4 376/2/4
f 376/2/4 363/2/4 375/2/4
f 377/2/4 379/2/4 384/2/4
f 384/2/4 379/2/4 383/2/4
f 353/2/4 355/2/4 392/2/4
f 392/2/4 355/2/4 391/2/4
f 385/2/4 387/2/4 397/2/4
f 397/2/4 387/2/4 396/2/4
f 295/2/4 309/2/4 407/2/4
f 407/2/4 309/2/4 401/2/4
f 398/2/4 400/2/4 405/2/4
f 405/2/4 400/2/4 404/2/4
f 406/2/4 410/2/4 411/2/4
f 411/2/4 410/2/4 409/2/4
f 393/2/4 420/2/4 421/2/4
f 421/2/4 420/2/4 419/2/4
f 519/2/5 286/2/5 517/2/5
f 517/2/5 286/2/5 125/2/5
f 633/2/5 369/2/5 631/2/5
f 631/2/5 369/2/5 323/2/5
f 523/2/5 511/2/5 506/2/5
f 506/2/5 511/2/5 510/2/5
f 655/1/5 367/1/5 654/1/5
f 654/1/5 367/1/5 366/1/5
f 525/2/5 290/2/5 522/2/5
f 522/2/5 290/2/5 285/2/5
f 635/2/5 373/2/5 634/2/5
f 634/2/5 373/2/5 368/2/5
f 529/2/5 515/2/5 524/2/5
f 524/2/5 515/2/5 514/2/5
f 657/1/5 371/1/5 656/1/5
f 656/1/5 371/1/5 370/1/5
f 639/2/5 324/2/5 636/2/5
f 636/2/5 324/2/5 372/2/5
f 325/2/5 330/2/5 326/2/5
f 326/2/5 330/2/5 318/2/5
f 643/2/5 335/2/5 638/2/5
f 638/2/5 335/2/5 334/2/5
f 331/2/5 328/2/5 324/2/5
f 324/2/5 328/2/5 327/2/5
f 536/2/5 126/2/5 528/2/5
f 528/2/5 126/2/5 289/2/5
f 651/2/5 343/2/5 642/2/5
f 642/2/5 343/2/5 342/2/5
f 100/2/5 98/2/5 95/2/5
f 95/2/5 98/2/5 97/2/5
f 116/2/5 113/2/5 127/2/5
f 127/2/5 113/2/5 107/2/5
f 321/2/5 319/2/5 333/2/5
f 333/2/5 319/2/5 329/2/5
f 339/2/5 337/2/5 335/2/5
f 335/2/5 337/2/5 336/2/5
f 505/2/5 101/2/5 502/2/5
f 502/2/5 101/2/5 100/2/5
f 659/2/5 359/2/5 650/2/5
f 650/2/5 359/2/5 358/2/5
f 84/2/5 82/2/5 79/2/5
f 79/2/5 82/2/5 81/2/5
f 347/2/5 345/2/5 343/2/5
f 343/2/5 345/2/5 344/2/5
f 493/2/5 85/2/5 490/2/5
f 490/2/5 85/2/5 84/2/5
f 663/2/5 375/2/5 658/2/5
f 658/2/5 375/2/5 374/2/5
f 69/2/5 67/2/5 64/2/5
f 64/2/5 67/2/5 66/2/5
f 363/2/5 361/2/5 359/2/5
f 359/2/5 361/2/5 360/2/5
f 489/2/5 70/2/5 486/2/5
f 486/2/5 70/2/5 69/2/5
f 540/2/5 137/2/5 537/2/5
f 537/2/5 137/2/5 136/2/5
f 630/2/5 322/2/5 627/2/5
f 627/2/5 322/2/5 321/2/5
f 671/2/5 383/2/5 662/2/5
f 662/2/5 383/2/5 382/2/5
f 61/2/5 59/2/5 56/2/5
f 56/2/5 59/2/5 58/2/5
f 131/2/5 129/2/5 126/2/5
f 126/2/5 129/2/5 128/2/5
f 307/2/5 305/2/5 302/2/5
f 302/2/5 305/2/5 304/2/5
f 379/2/5 377/2/5 375/2/5
f 375/2/5 377/2/5 376/2/5
f 485/2/5 62/2/5 482/2/5
f 482/2/5 62/2/5 61/2/5
f 674/2/5 396/2/5 670/2/5
f 670/2/5 396/2/5 395/2/5
f 52/2/5 50/2/5 47/2/5
f 47/2/5 50/2/5 49/2/5
f 387/2/5 385/2/5 383/2/5
f 383/2/5 385/2/5 384/2/5
f 440/1/5 2/1/5 437/1/5
f 437/1/5 2/1/5 1/1/5
f 463/1/5 14/1/5 460/1/5
f 460/1/5 14/1/5 13/1/5
f 481/2/5 53/2/5 478/2/5
f 478/2/5 53/2/5 52/2/5
f 544/2/5 277/2/5 541/2/5
f 541/2/5 277/2/5 148/2/5
f 615/2/5 402/2/5 612/2/5
f 612/2/5 402/2/5 307/2/5
f 675/2/5 404/2/5 673/2/5
f 673/2/5 404/2/5 403/2/5
f 54/2/5 40/2/5 37/2/5
f 37/2/5 40/2/5 39/2/5
f 400/2/5 398/2/5 396/2/5
f 396/2/5 398/2/5 397/2/5
f 135/2/5 33/2/5 30/2/5
f 30/2/5 33/2/5 32/2/5
f 150/2/5 139/2/5 137/2/5
f 137/2/5 139/2/5 138/2/5
f 309/2/5 295/2/5 292/2/5
f 292/2/5 295/2/5 294/2/5
f 410/2/5 406/2/5 404/2/5
f 404/2/5 406/2/5 405/2/5
f 552/2/5 168/2/5 549/2/5
f 549/2/5 168/2/5 167/2/5
f 608/2/5 299/2/5 605/2/5
f 605/2/5 299/2/5 298/2/5
f 155/2/5 152/2/5 256/2/5
f 256/2/5 152/2/5 151/2/5
f 281/2/5 279/2/5 417/2/5
f 417/2/5 279/2/5 278/2/5
f 556/2/5 177/2/5 553/2/5
f 553/2/5 177/2/5 176/2/5
f 600/2/5 282/2/5 597/2/5
f 597/2/5 282/2/5 281/2/5
f 173/2/5 171/2/5 168/2/5
f 168/2/5 171/2/5 170/2/5
f 262/2/5 260/2/5 257/2/5
f 257/2/5 260/2/5 259/2/5
f 564/2/5 193/2/5 561/2/5
f 561/2/5 193/2/5 192/2/5
f 592/2/5 263/2/5 589/2/5
f 589/2/5 263/2/5 262/2/5
f 181/2/5 179/2/5 177/2/5
f 177/2/5 179/2/5 178/2/5
f 252/2/5 250/2/5 247/2/5
f 247/2/5 250/2/5 249/2/5
f 568/2/5 201/2/5 565/2/5
f 565/2/5 201/2/5 200/2/5
f 588/2/5 253/2/5 585/2/5
f 585/2/5 253/2/5 252/2/5
f 197/2/5 195/2/5 193/2/5
f 193/2/5 195/2/5 194/2/5
f 235/2/5 233/2/5 230/2/5
f 230/2/5 233/2/5 232/2/5
f 580/2/5 236/2/5 577/2/5
f 577/2/5 236/2/5 235/2/5
f 205/2/5 203/2/5 201/2/5
f 201/2/5 203/2/5 202/2/5
f 227/2/5 225/2/5 222/2/5
f 222/2/5 225/2/5 224/2/5
f 576/2/5 239/2/5 573/2/5
f 573/2/5 239/2/5 227/2/5
f 584/2/5 238/2/5 581/2/5
f 581/2/5 238/2/5 237/2/5
f 219/2/5 218/2/5 216/2/5
f 216/2/5 218/2/5 217/2/5
f 596/2/5 265/2/5 593/2/5
f 593/2/5 265/2/5 264/2/5
f 213/2/5 211/2/5 208/2/5
f 208/2/5 211/2/5 210/2/5
f 243/2/5 241/2/5 238/2/5
f 238/2/5 241/2/5 240/2/5
f 572/2/5 214/2/5 569/2/5
f 569/2/5 214/2/5 213/2/5
f 619/2/5 311/2/5 616/2/5
f 616/2/5 311/2/5 310/2/5
f 190/2/5 188/2/5 185/2/5
f 185/2/5 188/2/5 187/2/5
f 269/2/5 267/2/5 265/2/5
f 265/2/5 267/2/5 266/2/5
f 560/2/5 191/2/5 557/2/5
f 557/2/5 191/2/5 190/2/5
f 649/2/5 351/2/5 646/2/5
f 646/2/5 351/2/5 350/2/5
f 164/2/5 162/2/5 159/2/5
f 159/2/5 162/2/5 161/2/5
f 315/2/5 313/2/5 311/2/5
f 311/2/5 313/2/5 312/2/5
f 446/1/5 6/1/5 444/1/5
f 444/1/5 6/1/5 5/1/5
f 469/1/5 18/1/5 466/1/5
f 466/1/5 18/1/5 17/1/5
f 548/2/5 165/2/5 545/2/5
f 545/2/5 165/2/5 164/2/5
f 669/2/5 391/2/5 666/2/5
f 666/2/5 391/2/5 390/2/5
f 166/2/5 123/2/5 120/2/5
f 120/2/5 123/2/5 122/2/5
f 355/2/5 353/2/5 351/2/5
f 351/2/5 353/2/5 352/2/5
f 357/2/5 75/2/5 72/2/5
f 72/2/5 75/2/5 74/2/5
f 420/2/5 393/2/5 391/2/5
f 391/2/5 393/2/5 392/2/5
f 687/2/5 449/2/5 433/2/5
f 433/2/5 449/2/5 448/2/5
f 459/2/5 472/2/5 456/2/5
f 456/2/5 472/2/5 471/2/5
f 453/1/5 10/1/5 451/1/5
f 451/1/5 10/1/5 9/1/5
f 477/1/5 22/1/5 474/1/5
f 474/1/5 22/1/5 21/1/5
f 494/2/6 518/2/6 86/2/6
f 86/2/6 518/2/6 104/2/6
f 601/2/6 632/2/6 283/2/6
f 283/2/6 632/2/6 303/2/6
f 496/1/6 495/1/6 88/1/6
f 88/1/6 495/1/6 89/1/6
f 521/2/6 520/2/6 512/2/6
f 512/2/6 520/2/6 509/2/6
f 498/2/6 497/2/6 90/2/6
f 90/2/6 497/2/6 87/2/6
f 603/2/6 602/2/6 287/2/6
f 287/2/6 602/2/6 284/2/6
f 500/1/6 499/1/6 92/1/6
f 92/1/6 499/1/6 93/1/6
f 527/2/6 526/2/6 516/2/6
f 516/2/6 526/2/6 513/2/6
f 507/2/6 501/2/6 94/2/6
f 94/2/6 501/2/6 91/2/6
f 103/2/6 102/2/6 109/2/6
f 109/2/6 102/2/6 110/2/6
f 532/2/6 531/2/6 78/2/6
f 78/2/6 531/2/6 96/2/6
f 95/2/6 94/2/6 97/2/6
f 97/2/6 94/2/6 112/2/6
f 535/2/6 534/2/6 63/2/6
f 63/2/6 534/2/6 80/2/6
f 610/2/6 604/2/6 291/2/6
f 291/2/6 604/2/6 288/2/6
f 79/2/6 78/2/6 81/2/6
f 81/2/6 78/2/6 99/2/6
f 106/2/6 105/2/6 114/2/6
f 114/2/6 105/2/6 115/2/6
f 302/2/6 301/2/6 304/2/6
f 304/2/6 301/2/6 320/2/6
f 332/2/6 331/2/6 338/2/6
f 338/2/6 331/2/6 328/2/6
f 504/2/6 503/2/6 55/2/6
f 55/2/6 503/2/6 65/2/6
f 640/2/6 637/2/6 341/2/6
f 341/2/6 637/2/6 332/2/6
f 64/2/6 63/2/6 66/2/6
f 66/2/6 63/2/6 83/2/6
f 340/2/6 339/2/6 346/2/6
f 346/2/6 339/2/6 337/2/6
f 492/2/6 491/2/6 46/2/6
f 46/2/6 491/2/6 57/2/6
f 644/2/6 641/2/6 349/2/6
f 349/2/6 641/2/6 340/2/6
f 56/2/6 55/2/6 58/2/6
f 58/2/6 55/2/6 68/2/6
f 348/2/6 347/2/6 362/2/6
f 362/2/6 347/2/6 345/2/6
f 488/2/6 487/2/6 36/2/6
f 36/2/6 487/2/6 48/2/6
f 539/2/6 538/2/6 118/2/6
f 118/2/6 538/2/6 106/2/6
f 629/2/6 628/2/6 272/2/6
f 272/2/6 628/2/6 293/2/6
f 652/2/6 645/2/6 365/2/6
f 365/2/6 645/2/6 348/2/6
f 47/2/6 46/2/6 49/2/6
f 49/2/6 46/2/6 60/2/6
f 117/2/6 116/2/6 130/2/6
f 130/2/6 116/2/6 113/2/6
f 292/2/6 291/2/6 294/2/6
f 294/2/6 291/2/6 306/2/6
f 364/2/6 363/2/6 378/2/6
f 378/2/6 363/2/6 361/2/6
f 484/2/6 483/2/6 29/2/6
f 29/2/6 483/2/6 38/2/6
f 660/2/6 653/2/6 381/2/6
f 381/2/6 653/2/6 364/2/6
f 37/2/6 36/2/6 39/2/6
f 39/2/6 36/2/6 51/2/6
f 380/2/6 379/2/6 386/2/6
f 386/2/6 379/2/6 377/2/6
f 439/1/6 438/1/6 3/1/6
f 3/1/6 438/1/6 4/1/6
f 462/1/6 461/1/6 15/1/6
f 15/1/6 461/1/6 16/1/6
f 480/2/6 479/2/6 25/2/6
f 25/2/6 479/2/6 31/2/6
f 543/2/6 542/2/6 133/2/6
f 133/2/6 542/2/6 117/2/6
f 614/2/6 613/2/6 274/2/6
f 274/2/6 613/2/6 275/2/6
f 664/2/6 661/2/6 389/2/6
f 389/2/6 661/2/6 380/2/6
f 30/2/6 29/2/6 32/2/6
f 32/2/6 29/2/6 41/2/6
f 388/2/6 387/2/6 399/2/6
f 399/2/6 387/2/6 385/2/6
f 26/2/6 25/2/6 34/2/6
f 34/2/6 25/2/6 35/2/6
f 134/2/6 131/2/6 140/2/6
f 140/2/6 131/2/6 129/2/6
f 276/2/6 272/2/6 296/2/6
f 296/2/6 272/2/6 297/2/6
f 401/2/6 400/2/6 407/2/6
f 407/2/6 400/2/6 398/2/6
f 144/2/6 27/2/6 413/2/6
f 413/2/6 27/2/6 414/2/6
f 431/2/6 677/2/6 143/2/6
f 143/2/6 677/2/6 28/2/6
f 551/2/6 550/2/6 146/2/6
f 146/2/6 550/2/6 147/2/6
f 607/2/6 606/2/6 246/2/6
f 246/2/6 606/2/6 258/2/6
f 145/2/6 141/2/6 153/2/6
f 153/2/6 141/2/6 154/2/6
f 257/2/6 254/2/6 259/2/6
f 259/2/6 254/2/6 280/2/6
f 555/2/6 554/2/6 157/2/6
f 157/2/6 554/2/6 145/2/6
f 599/2/6 598/2/6 229/2/6
f 229/2/6 598/2/6 248/2/6
f 156/2/6 155/2/6 172/2/6
f 172/2/6 155/2/6 152/2/6
f 247/2/6 246/2/6 249/2/6
f 249/2/6 246/2/6 261/2/6
f 563/2/6 562/2/6 175/2/6
f 175/2/6 562/2/6 156/2/6
f 591/2/6 590/2/6 221/2/6
f 221/2/6 590/2/6 231/2/6
f 174/2/6 173/2/6 180/2/6
f 180/2/6 173/2/6 171/2/6
f 230/2/6 229/2/6 232/2/6
f 232/2/6 229/2/6 251/2/6
f 567/2/6 566/2/6 183/2/6
f 183/2/6 566/2/6 174/2/6
f 587/2/6 586/2/6 215/2/6
f 215/2/6 586/2/6 223/2/6
f 182/2/6 181/2/6 196/2/6
f 196/2/6 181/2/6 179/2/6
f 222/2/6 221/2/6 224/2/6
f 224/2/6 221/2/6 234/2/6
f 579/2/6 578/2/6 199/2/6
f 199/2/6 578/2/6 182/2/6
f 198/2/6 197/2/6 204/2/6
f 204/2/6 197/2/6 195/2/6
f 216/2/6 215/2/6 217/2/6
f 217/2/6 215/2/6 226/2/6
f 575/2/6 574/2/6 207/2/6
f 207/2/6 574/2/6 198/2/6
f 583/2/6 582/2/6 184/2/6
f 184/2/6 582/2/6 209/2/6
f 208/2/6 205/2/6 210/2/6
f 210/2/6 205/2/6 203/2/6
f 595/2/6 594/2/6 158/2/6
f 158/2/6 594/2/6 186/2/6
f 185/2/6 184/2/6 187/2/6
f 187/2/6 184/2/6 212/2/6
f 220/2/6 219/2/6 242/2/6
f 242/2/6 219/2/6 218/2/6
f 571/2/6 570/2/6 119/2/6
f 119/2/6 570/2/6 160/2/6
f 618/2/6 617/2/6 245/2/6
f 245/2/6 617/2/6 220/2/6
f 159/2/6 158/2/6 161/2/6
f 161/2/6 158/2/6 189/2/6
f 244/2/6 243/2/6 268/2/6
f 268/2/6 243/2/6 241/2/6
f 559/2/6 558/2/6 71/2/6
f 71/2/6 558/2/6 121/2/6
f 648/2/6 647/2/6 271/2/6
f 271/2/6 647/2/6 244/2/6
f 120/2/6 119/2/6 122/2/6
f 122/2/6 119/2/6 163/2/6
f 270/2/6 269/2/6 314/2/6
f 314/2/6 269/2/6 267/2/6
f 445/1/6 432/1/6 7/1/6
f 7/1/6 432/1/6 8/1/6
f 468/1/6 467/1/6 19/1/6
f 19/1/6 467/1/6 20/1/6
f 547/2/6 546/2/6 42/2/6
f 42/2/6 546/2/6 73/2/6
f 668/2/6 667/2/6 317/2/6
f 317/2/6 667/2/6 270/2/6
f 72/2/6 71/2/6 74/2/6
f 74/2/6 71/2/6 124/2/6
f 316/2/6 315/2/6 354/2/6
f 354/2/6 315/2/6 313/2/6
f 43/2/6 42/2/6 76/2/6
f 76/2/6 42/2/6 77/2/6
f 356/2/6 355/2/6 394/2/6
f 394/2/6 355/2/6 353/2/6
f 458/2/6 457/2/6 450/2/6
f 450/2/6 457/2/6 447/2/6
f 685/2/6 684/2/6 473/2/6
f 473/2/6 684/2/6 470/2/6
f 428/2/6 44/2/6 423/2/6
f 423/2/6 44/2/6 424/2/6
f 435/2/6 682/2/6 427/2/6
f 427/2/6 682/2/6 45/2/6
f 452/1/6 436/1/6 11/1/6
f 11/1/6 436/1/6 12/1/6
f 476/1/6 475/1/6 23/1/6
f 23/1/6 475/1/6 24/1/6
f 689/1/1 690/1/1 692/1/1
f 692/1/1 690/1/1 691/1/1
f 693/1/1 694/1/1 696/1/1
f 696/1/1 694/1/1 695/1/1
f 697/1/1 698/1/1 700/1/1
f 700/1/1 698/1/1 699/1/1
f 701/1/1 702/1/1 704/1/1
f 704/1/1 702/1/1 703/1/1
f 705/1/1 706/1/1 708/1/1
f 708/1/1 706/1/1 707/1/1
f 709/1/1 710/1/1 712/1/1
f 712/1/1 710/1/1 711/1/1
f 713/2/1 714/2/1 408/2/1
f 408/2/1 714/2/1 409/2/1
f 715/2/1 716/2/1 411/2/1
f 411/2/1 716/2/1 412/2/1
f 717/2/1 718/2/1 415/2/1
f 415/2/1 718/2/1 416/2/1
f 719/2/1 720/2/1 418/2/1
f 418/2/1 720/2/1 419/2/1
f 721/2/1 722/2/1 421/2/1
f 421/2/1 722/2/1 422/2/1
f 723/2/1 724/2/1 425/2/1
f 425/2/1 724/2/1 426/2/1
f 725/2/2 678/2/2 726/2/2
f 726/2/2 678/2/2 680/2/2
f 727/2/2 683/2/2 728/2/2
f 728/2/2 683/2/2 688/2/2
f 729/1/2 730/1/2 732/1/2
f 732/1/2 730/1/2 731/1/2
f 733/2/2 734/2/2 736/2/2
f 736/2/2 734/2/2 735/2/2
f 737/1/2 726/1/2 739/1/2
f 739/1/2 726/1/2 738/1/2
f 740/1/2 727/1/2 742/1/2
f 742/1/2 727/1/2 741/1/2
f 743/1/2 728/1/2 745/1/2
f 745/1/2 728/1/2 744/1/2
f 746/2/2 747/2/2 749/2/2
f 749/2/2 747/2/2 748/2/2
f 750/2/2 740/2/2 751/2/2
f 751/2/2 740/2/2 742/2/2
f 752/1/2 753/1/2 755/1/2
f 755/1/2 753/1/2 754/1/2
f 756/2/2 757/2/2 759/2/2
f 759/2/2 757/2/2 758/2/2
f 760/1/2 761/1/2 763/1/2
f 763/1/2 761/1/2 762/1/2
f 764/1/2 750/1/2 765/1/2
f 765/1/2 750/1/2 751/1/2
f 766/1/2 767/1/2 769/1/2
f 769/1/2 767/1/2 768/1/2
f 770/2/2 676/2/2 771/2/2
f 771/2/2 676/2/2 678/2/2
f 771/2/2 772/2/2 774/2/2
f 774/2/2 772/2/2 773/2/2
f 774/2/2 775/2/2 776/2/2
f 776/2/2 775/2/2 726/2/2
f 777/2/2 681/2/2 778/2/2
f 778/2/2 681/2/2 683/2/2
f 778/2/2 764/2/2 779/2/2
f 779/2/2 764/2/2 765/2/2
f 779/2/2 741/2/2 780/2/2
f 780/2/2 741/2/2 728/2/2
f 416/2/3 696/2/3 680/2/3
f 680/2/3 696/2/3 726/2/3
f 426/2/3 700/2/3 688/2/3
f 688/2/3 700/2/3 728/2/3
f 734/2/3 733/2/3 725/2/3
f 725/2/3 733/2/3 747/2/3
f 699/1/3 698/1/3 744/1/3
f 744/1/3 698/1/3 745/1/3
f 693/2/3 708/2/3 737/2/3
f 737/2/3 708/2/3 761/2/3
f 697/2/3 712/2/3 743/2/3
f 743/2/3 712/2/3 767/2/3
f 757/2/3 756/2/3 746/2/3
f 746/2/3 756/2/3 772/2/3
f 711/1/3 710/1/3 768/1/3
f 768/1/3 710/1/3 769/1/3
f 705/2/3 718/2/3 760/2/3
f 760/2/3 718/2/3 776/2/3
f 709/2/3 724/2/3 766/2/3
f 766/2/3 724/2/3 780/2/3
f 412/2/3 716/2/3 415/2/3
f 415/2/3 716/2/3 717/2/3
f 422/2/3 722/2/3 425/2/3
f 425/2/3 722/2/3 723/2/3
f 408/2/4 676/2/4 691/2/4
f 691/2/4 676/2/4 731/2/4
f 418/2/4 681/2/4 695/2/4
f 695/2/4 681/2/4 738/2/4
f 692/1/4 730/1/4 689/1/4
f 689/1/4 730/1/4 729/1/4
f 735/2/4 775/2/4 736/2/4
f 736/2/4 775/2/4 748/2/4
f 690/2/4 732/2/4 703/2/4
f 703/2/4 732/2/4 754/2/4
f 694/2/4 739/2/4 707/2/4
f 707/2/4 739/2/4 762/2/4
f 704/1/4 753/1/4 701/1/4
f 701/1/4 753/1/4 752/1/4
f 758/2/4 749/2/4 759/2/4
f 759/2/4 749/2/4 773/2/4
f 702/2/4 755/2/4 713/2/4
f 713/2/4 755/2/4 770/2/4
f 706/2/4 763/2/4 719/2/4
f 719/2/4 763/2/4 777/2/4
f 411/2/4 409/2/4 715/2/4
f 715/2/4 409/2/4 714/2/4
f 421/2/4 419/2/4 721/2/4
f 721/2/4 419/2/4 720/2/4
f 732/1/5 690/1/5 729/1/5
f 729/1/5 690/1/5 689/1/5
f 755/1/5 702/1/5 752/1/5
f 752/1/5 702/1/5 701/1/5
f 775/2/5 735/2/5 725/2/5
f 725/2/5 735/2/5 734/2/5
f 749/2/5 758/2/5 746/2/5
f 746/2/5 758/2/5 757/2/5
f 717/2/5 716/2/5 714/2/5
f 714/2/5 716/2/5 715/2/5
f 776/2/5 718/2/5 770/2/5
f 770/2/5 718/2/5 713/2/5
f 739/1/5 694/1/5 737/1/5
f 737/1/5 694/1/5 693/1/5
f 763/1/5 706/1/5 760/1/5
f 760/1/5 706/1/5 705/1/5
f 723/2/5 722/2/5 720/2/5
f 720/2/5 722/2/5 721/2/5
f 780/2/5 724/2/5 777/2/5
f 777/2/5 724/2/5 719/2/5
f 745/1/5 698/1/5 743/1/5
f 743/1/5 698/1/5 697/1/5
f 769/1/5 710/1/5 766/1/5
f 766/1/5 710/1/5 709/1/5
f 731/1/6 730/1/6 691/1/6
f 691/1/6 730/1/6 692/1/6
f 754/1/6 753/1/6 703/1/6
f 703/1/6 753/1/6 704/1/6
f 748/2/6 747/2/6 736/2/6
f 736/2/6 747/2/6 733/2/6
f 773/2/6 772/2/6 759/2/6
f 759/2/6 772/2/6 756/2/6
f 738/1/6 726/1/6 695/1/6
f 695/1/6 726/1/6 696/1/6
f 762/1/6 761/1/6 707/1/6
f 707/1/6 761/1/6 708/1/6
f 744/1/6 728/1/6 699/1/6
f 699/1/6 728/1/6 700/1/6
f 768/1/6 767/1/6 711/1/6
f 711/1/6 767/1/6 712/1/6
