# Vengi binary mesh normalized for Tanks of Freedom II

mtllib ../../../materials/vox_grass.mtl
o railway_straight2

v 1.4 0.1 3.7
v 1 0.1 3.7
v 1 0.1 4
v 1.4 0.1 4
v 0.7 0.1 3.7
v -0.7 0.1 3.7
v -0.7 0.1 4
v 0.7 0.1 4
v -1 0.1 3.7
v -1.5 0.1 3.7
v -1.5 0.1 4
v -1 0.1 4
v 1.4 0.2 3.3
v 1 0.2 3.3
v 1 0.2 3.7
v 1.4 0.2 3.7
v 0.7 0.2 3.3
v -0.7 0.2 3.3
v -0.7 0.2 3.7
v 0.7 0.2 3.7
v -0.8 0.1 3.3
v -0.9 0.1 3.3
v -0.9 0.1 3.7
v -0.8 0.1 3.7
v -1 0.2 3.3
v -1.4 0.2 3.3
v -1.4 0.2 3.7
v -1 0.2 3.7
v 1.4 0.1 2.7
v 1 0.1 2.7
v 1 0.1 3.3
v 1.4 0.1 3.3
v 0.7 0.1 2.7
v -0.7 0.1 2.7
v -0.7 0.1 3.3
v 0.7 0.1 3.3
v -1 0.1 2.7
v -1.4 0.1 2.7
v -1.4 0.1 3.3
v -1 0.1 3.3
v 1.4 0.2 2.3
v 1 0.2 2.3
v 1 0.2 2.7
v 1.4 0.2 2.7
v 0.7 0.2 2.3
v -0.7 0.2 2.3
v -0.7 0.2 2.7
v 0.7 0.2 2.7
v -0.8 0.1 2.3
v -0.9 0.1 2.3
v -0.9 0.1 2.7
v -0.8 0.1 2.7
v -1 0.2 2.3
v -1.4 0.2 2.3
v -1.4 0.2 2.7
v -1 0.2 2.7
v 1.4 0.1 1.7
v 1 0.1 1.7
v 1 0.1 2.3
v 1.4 0.1 2.3
v 0.7 0.1 1.7
v -0.7 0.1 1.7
v -0.7 0.1 2.3
v 0.7 0.1 2.3
v -1 0.1 1.7
v -1.4 0.1 1.7
v -1.4 0.1 2.3
v -1 0.1 2.3
v 1.4 0.2 1.3
v 1 0.2 1.3
v 1 0.2 1.7
v 1.4 0.2 1.7
v 0.7 0.2 1.3
v -0.7 0.2 1.3
v -0.7 0.2 1.7
v 0.7 0.2 1.7
v -0.8 0.1 1.3
v -0.9 0.1 1.3
v -0.9 0.1 1.7
v -0.8 0.1 1.7
v -1 0.2 1.3
v -1.4 0.2 1.3
v -1.4 0.2 1.7
v -1 0.2 1.7
v 1.4 0.1 0.7
v 1 0.1 0.7
v 1 0.1 1.3
v 1.4 0.1 1.3
v 0.7 0.1 0.7
v -0.7 0.1 0.7
v -0.7 0.1 1.3
v 0.7 0.1 1.3
v -1 0.1 0.7
v -1.4 0.1 0.7
v -1.4 0.1 1.3
v -1 0.1 1.3
v 1.4 0.2 0.3
v 1 0.2 0.3
v 1 0.2 0.7
v 1.4 0.2 0.7
v 0.7 0.2 0.3
v -0.7 0.2 0.3
v -0.7 0.2 0.7
v 0.7 0.2 0.7
v -0.8 0.1 0.3
v -0.9 0.1 0.3
v -0.9 0.1 0.7
v -0.8 0.1 0.7
v -1 0.2 0.3
v -1.4 0.2 0.3
v -1.4 0.2 0.7
v -1 0.2 0.7
v 1.4 0.1 -0.3
v 1 0.1 -0.3
v 1 0.1 0.3
v 1.4 0.1 0.3
v 0.7 0.1 -0.3
v -0.7 0.1 -0.3
v -0.7 0.1 0.3
v 0.7 0.1 0.3
v -1 0.1 -0.3
v -1.4 0.1 -0.3
v -1.4 0.1 0.3
v -1 0.1 0.3
v 1.4 0.2 -0.7
v 1 0.2 -0.7
v 1 0.2 -0.3
v 1.4 0.2 -0.3
v 0.7 0.2 -0.7
v -0.7 0.2 -0.7
v -0.7 0.2 -0.3
v 0.7 0.2 -0.3
v -0.8 0.1 -0.7
v -0.9 0.1 -0.7
v -0.9 0.1 -0.3
v -0.8 0.1 -0.3
v -1 0.2 -0.7
v -1.4 0.2 -0.7
v -1.4 0.2 -0.3
v -1 0.2 -0.3
v 1.4 0.1 -1.3
v 1 0.1 -1.3
v 1 0.1 -0.7
v 1.4 0.1 -0.7
v 0.7 0.1 -1.3
v -0.7 0.1 -1.3
v -0.7 0.1 -0.7
v 0.7 0.1 -0.7
v -1 0.1 -1.3
v -1.4 0.1 -1.3
v -1.4 0.1 -0.7
v -1 0.1 -0.7
v 1.4 0.2 -1.7
v 1 0.2 -1.7
v 1 0.2 -1.3
v 1.4 0.2 -1.3
v 0.7 0.2 -1.7
v -0.7 0.2 -1.7
v -0.7 0.2 -1.3
v 0.7 0.2 -1.3
v -0.8 0.1 -1.7
v -0.9 0.1 -1.7
v -0.9 0.1 -1.3
v -0.8 0.1 -1.3
v -1 0.2 -1.7
v -1.4 0.2 -1.7
v -1.4 0.2 -1.3
v -1 0.2 -1.3
v 1.5 0.1 -2.2
v 1.4 0.1 -2.2
v 1.5 0.1 4
v 1 0.1 -2.2
v 1 0.1 -1.7
v 1.4 0.1 -1.7
v 1 0.2 -2.2
v 0.9 0.2 -2.2
v 0.9 0.2 4
v 1 0.2 4
v 0.9 0.3 -2.2
v 0.8 0.3 -2.2
v 0.8 0.3 4
v 0.9 0.3 4
v 0.8 0.2 -2.2
v 0.7 0.2 -2.2
v 0.7 0.2 4
v 0.8 0.2 4
v 0.7 0.1 -2.2
v -0.7 0.1 -2.2
v -0.7 0.1 -1.7
v 0.7 0.1 -1.7
v -0.7 0.2 -2.2
v -0.8 0.2 -2.2
v -0.8 0.2 4
v -0.7 0.2 4
v -0.8 0.3 -2.2
v -0.9 0.3 -2.2
v -0.9 0.3 4
v -0.8 0.3 4
v -0.9 0.2 -2.2
v -1 0.2 -2.2
v -1 0.2 4
v -0.9 0.2 4
v -1 0.1 -2.2
v -1.4 0.1 -2.2
v -1.4 0.1 -1.7
v -1 0.1 -1.7
v -1.5 0.1 -2.2
v -1.4 0.1 3.7
v -0.8 0.2 3.3
v -0.8 0.2 3.7
v -0.9 0.2 3.7
v -0.9 0.2 3.3
v -0.8 0.2 2.3
v -0.8 0.2 2.7
v -0.9 0.2 2.7
v -0.9 0.2 2.3
v -0.8 0.2 1.3
v -0.8 0.2 1.7
v -0.9 0.2 1.7
v -0.9 0.2 1.3
v -0.8 0.2 0.3
v -0.8 0.2 0.7
v -0.9 0.2 0.7
v -0.9 0.2 0.3
v -0.8 0.2 -0.7
v -0.8 0.2 -0.3
v -0.9 0.2 -0.3
v -0.9 0.2 -0.7
v -0.8 0.2 -1.7
v -0.8 0.2 -1.3
v -0.9 0.2 -1.3
v -0.9 0.2 -1.7
v 1.5 0 -2.2
v 1.5 0 4
v -1.5 0 4
v -1.5 0 -2.2
v 1.4 0.1 -2.3
v 1 0.1 -2.3
v 0.7 0.1 -2.3
v -0.7 0.1 -2.3
v -1 0.1 -2.3
v -1.5 0.1 -2.3
v 1.4 0.2 -2.7
v 1 0.2 -2.7
v 1 0.2 -2.3
v 1.4 0.2 -2.3
v 0.7 0.2 -2.7
v -0.7 0.2 -2.7
v -0.7 0.2 -2.3
v 0.7 0.2 -2.3
v -0.8 0.1 -2.7
v -0.9 0.1 -2.7
v -0.9 0.1 -2.3
v -0.8 0.1 -2.3
v -1 0.2 -2.7
v -1.4 0.2 -2.7
v -1.4 0.2 -2.3
v -1 0.2 -2.3
v 1.4 0.1 -3.3
v 1 0.1 -3.3
v 1 0.1 -2.7
v 1.4 0.1 -2.7
v 0.7 0.1 -3.3
v -0.7 0.1 -3.3
v -0.7 0.1 -2.7
v 0.7 0.1 -2.7
v -1 0.1 -3.3
v -1.4 0.1 -3.3
v -1.4 0.1 -2.7
v -1 0.1 -2.7
v 1.4 0.2 -3.7
v 1 0.2 -3.7
v 1 0.2 -3.3
v 1.4 0.2 -3.3
v 0.7 0.2 -3.7
v -0.7 0.2 -3.7
v -0.7 0.2 -3.3
v 0.7 0.2 -3.3
v -0.8 0.1 -3.7
v -0.9 0.1 -3.7
v -0.9 0.1 -3.3
v -0.8 0.1 -3.3
v -1 0.2 -3.7
v -1.4 0.2 -3.7
v -1.4 0.2 -3.3
v -1 0.2 -3.3
v 1.5 0.1 -4
v 1.4 0.1 -4
v 1 0.1 -4
v 1 0.1 -3.7
v 1.4 0.1 -3.7
v 1 0.2 -4
v 0.9 0.2 -4
v 0.9 0.3 -4
v 0.8 0.3 -4
v 0.8 0.2 -4
v 0.7 0.2 -4
v 0.7 0.1 -4
v -0.7 0.1 -4
v -0.7 0.1 -3.7
v 0.7 0.1 -3.7
v -0.7 0.2 -4
v -0.8 0.2 -4
v -0.8 0.3 -4
v -0.9 0.3 -4
v -0.9 0.2 -4
v -1 0.2 -4
v -1 0.1 -4
v -1.4 0.1 -4
v -1.4 0.1 -3.7
v -1 0.1 -3.7
v -1.5 0.1 -4
v -1.4 0.1 -2.3
v -0.8 0.2 -2.7
v -0.8 0.2 -2.3
v -0.9 0.2 -2.3
v -0.9 0.2 -2.7
v -0.8 0.2 -3.7
v -0.8 0.2 -3.3
v -0.9 0.2 -3.3
v -0.9 0.2 -3.7
v 1.5 0 -4
v -1.5 0 -4

vt 0.00585938 0.5
vt 0.0683594 0.5
vt 0.0839844 0.5

vn 0 1 0
vn 0 -1 0
vn -1 0 0
vn 1 0 0
vn 0 0 -1
vn 0 0 1

usemtl palette
f 1/3/1 2/3/1 4/3/1
f 4/3/1 2/3/1 3/3/1
f 5/3/1 6/3/1 8/3/1
f 8/3/1 6/3/1 7/3/1
f 9/3/1 10/3/1 12/3/1
f 12/3/1 10/3/1 11/3/1
f 13/1/1 14/1/1 16/1/1
f 16/1/1 14/1/1 15/1/1
f 17/1/1 18/1/1 20/1/1
f 20/1/1 18/1/1 19/1/1
f 21/3/1 22/3/1 24/3/1
f 24/3/1 22/3/1 23/3/1
f 25/1/1 26/1/1 28/1/1
f 28/1/1 26/1/1 27/1/1
f 29/3/1 30/3/1 32/3/1
f 32/3/1 30/3/1 31/3/1
f 33/3/1 34/3/1 36/3/1
f 36/3/1 34/3/1 35/3/1
f 37/3/1 38/3/1 40/3/1
f 40/3/1 38/3/1 39/3/1
f 41/1/1 42/1/1 44/1/1
f 44/1/1 42/1/1 43/1/1
f 45/1/1 46/1/1 48/1/1
f 48/1/1 46/1/1 47/1/1
f 49/3/1 50/3/1 52/3/1
f 52/3/1 50/3/1 51/3/1
f 53/1/1 54/1/1 56/1/1
f 56/1/1 54/1/1 55/1/1
f 57/3/1 58/3/1 60/3/1
f 60/3/1 58/3/1 59/3/1
f 61/3/1 62/3/1 64/3/1
f 64/3/1 62/3/1 63/3/1
f 65/3/1 66/3/1 68/3/1
f 68/3/1 66/3/1 67/3/1
f 69/1/1 70/1/1 72/1/1
f 72/1/1 70/1/1 71/1/1
f 73/1/1 74/1/1 76/1/1
f 76/1/1 74/1/1 75/1/1
f 77/3/1 78/3/1 80/3/1
f 80/3/1 78/3/1 79/3/1
f 81/1/1 82/1/1 84/1/1
f 84/1/1 82/1/1 83/1/1
f 85/3/1 86/3/1 88/3/1
f 88/3/1 86/3/1 87/3/1
f 89/3/1 90/3/1 92/3/1
f 92/3/1 90/3/1 91/3/1
f 93/3/1 94/3/1 96/3/1
f 96/3/1 94/3/1 95/3/1
f 97/1/1 98/1/1 100/1/1
f 100/1/1 98/1/1 99/1/1
f 101/1/1 102/1/1 104/1/1
f 104/1/1 102/1/1 103/1/1
f 105/3/1 106/3/1 108/3/1
f 108/3/1 106/3/1 107/3/1
f 109/1/1 110/1/1 112/1/1
f 112/1/1 110/1/1 111/1/1
f 113/3/1 114/3/1 116/3/1
f 116/3/1 114/3/1 115/3/1
f 117/3/1 118/3/1 120/3/1
f 120/3/1 118/3/1 119/3/1
f 121/3/1 122/3/1 124/3/1
f 124/3/1 122/3/1 123/3/1
f 125/1/1 126/1/1 128/1/1
f 128/1/1 126/1/1 127/1/1
f 129/1/1 130/1/1 132/1/1
f 132/1/1 130/1/1 131/1/1
f 133/3/1 134/3/1 136/3/1
f 136/3/1 134/3/1 135/3/1
f 137/1/1 138/1/1 140/1/1
f 140/1/1 138/1/1 139/1/1
f 141/3/1 142/3/1 144/3/1
f 144/3/1 142/3/1 143/3/1
f 145/3/1 146/3/1 148/3/1
f 148/3/1 146/3/1 147/3/1
f 149/3/1 150/3/1 152/3/1
f 152/3/1 150/3/1 151/3/1
f 153/1/1 154/1/1 156/1/1
f 156/1/1 154/1/1 155/1/1
f 157/1/1 158/1/1 160/1/1
f 160/1/1 158/1/1 159/1/1
f 161/3/1 162/3/1 164/3/1
f 164/3/1 162/3/1 163/3/1
f 165/1/1 166/1/1 168/1/1
f 168/1/1 166/1/1 167/1/1
f 169/3/1 170/3/1 171/3/1
f 171/3/1 170/3/1 4/3/1
f 170/3/1 172/3/1 174/3/1
f 174/3/1 172/3/1 173/3/1
f 175/2/1 176/2/1 178/2/1
f 178/2/1 176/2/1 177/2/1
f 179/2/1 180/2/1 182/2/1
f 182/2/1 180/2/1 181/2/1
f 183/2/1 184/2/1 186/2/1
f 186/2/1 184/2/1 185/2/1
f 187/3/1 188/3/1 190/3/1
f 190/3/1 188/3/1 189/3/1
f 191/2/1 192/2/1 194/2/1
f 194/2/1 192/2/1 193/2/1
f 195/2/1 196/2/1 198/2/1
f 198/2/1 196/2/1 197/2/1
f 199/2/1 200/2/1 202/2/1
f 202/2/1 200/2/1 201/2/1
f 203/3/1 204/3/1 206/3/1
f 206/3/1 204/3/1 205/3/1
f 204/3/1 207/3/1 208/3/1
f 208/3/1 207/3/1 10/3/1
f 209/2/2 210/2/2 212/2/2
f 212/2/2 210/2/2 211/2/2
f 213/2/2 214/2/2 216/2/2
f 216/2/2 214/2/2 215/2/2
f 217/2/2 218/2/2 220/2/2
f 220/2/2 218/2/2 219/2/2
f 221/2/2 222/2/2 224/2/2
f 224/2/2 222/2/2 223/2/2
f 225/2/2 226/2/2 228/2/2
f 228/2/2 226/2/2 227/2/2
f 229/2/2 230/2/2 232/2/2
f 232/2/2 230/2/2 231/2/2
f 233/3/2 234/3/2 236/3/2
f 236/3/2 234/3/2 235/3/2
f 11/3/3 207/3/3 235/3/3
f 235/3/3 207/3/3 236/3/3
f 185/2/3 20/2/3 8/2/3
f 8/2/3 20/2/3 5/2/3
f 201/2/3 28/2/3 12/2/3
f 12/2/3 28/2/3 9/2/3
f 210/2/3 209/2/3 24/2/3
f 24/2/3 209/2/3 21/2/3
f 27/1/3 26/1/3 208/1/3
f 208/1/3 26/1/3 39/1/3
f 17/2/3 48/2/3 36/2/3
f 36/2/3 48/2/3 33/2/3
f 25/2/3 56/2/3 40/2/3
f 40/2/3 56/2/3 37/2/3
f 214/2/3 213/2/3 52/2/3
f 52/2/3 213/2/3 49/2/3
f 55/1/3 54/1/3 38/1/3
f 38/1/3 54/1/3 67/1/3
f 45/2/3 76/2/3 64/2/3
f 64/2/3 76/2/3 61/2/3
f 53/2/3 84/2/3 68/2/3
f 68/2/3 84/2/3 65/2/3
f 218/2/3 217/2/3 80/2/3
f 80/2/3 217/2/3 77/2/3
f 83/1/3 82/1/3 66/1/3
f 66/1/3 82/1/3 95/1/3
f 73/2/3 104/2/3 92/2/3
f 92/2/3 104/2/3 89/2/3
f 81/2/3 112/2/3 96/2/3
f 96/2/3 112/2/3 93/2/3
f 222/2/3 221/2/3 108/2/3
f 108/2/3 221/2/3 105/2/3
f 111/1/3 110/1/3 94/1/3
f 94/1/3 110/1/3 123/1/3
f 101/2/3 132/2/3 120/2/3
f 120/2/3 132/2/3 117/2/3
f 109/2/3 140/2/3 124/2/3
f 124/2/3 140/2/3 121/2/3
f 226/2/3 225/2/3 136/2/3
f 136/2/3 225/2/3 133/2/3
f 139/1/3 138/1/3 122/1/3
f 122/1/3 138/1/3 151/1/3
f 129/2/3 160/2/3 148/2/3
f 148/2/3 160/2/3 145/2/3
f 137/2/3 168/2/3 152/2/3
f 152/2/3 168/2/3 149/2/3
f 230/2/3 229/2/3 164/2/3
f 164/2/3 229/2/3 161/2/3
f 167/1/3 166/1/3 150/1/3
f 150/1/3 166/1/3 205/1/3
f 157/2/3 184/2/3 190/2/3
f 190/2/3 184/2/3 187/2/3
f 165/2/3 200/2/3 206/2/3
f 206/2/3 200/2/3 203/2/3
f 181/2/3 180/2/3 186/2/3
f 186/2/3 180/2/3 183/2/3
f 197/2/3 196/2/3 202/2/3
f 202/2/3 196/2/3 199/2/3
f 171/3/4 234/3/4 169/3/4
f 169/3/4 234/3/4 233/3/4
f 178/2/4 3/2/4 15/2/4
f 15/2/4 3/2/4 2/2/4
f 194/2/4 7/2/4 19/2/4
f 19/2/4 7/2/4 6/2/4
f 16/1/4 1/1/4 13/1/4
f 13/1/4 1/1/4 32/1/4
f 211/2/4 23/2/4 212/2/4
f 212/2/4 23/2/4 22/2/4
f 14/2/4 31/2/4 43/2/4
f 43/2/4 31/2/4 30/2/4
f 18/2/4 35/2/4 47/2/4
f 47/2/4 35/2/4 34/2/4
f 44/1/4 29/1/4 41/1/4
f 41/1/4 29/1/4 60/1/4
f 215/2/4 51/2/4 216/2/4
f 216/2/4 51/2/4 50/2/4
f 42/2/4 59/2/4 71/2/4
f 71/2/4 59/2/4 58/2/4
f 46/2/4 63/2/4 75/2/4
f 75/2/4 63/2/4 62/2/4
f 72/1/4 57/1/4 69/1/4
f 69/1/4 57/1/4 88/1/4
f 219/2/4 79/2/4 220/2/4
f 220/2/4 79/2/4 78/2/4
f 70/2/4 87/2/4 99/2/4
f 99/2/4 87/2/4 86/2/4
f 74/2/4 91/2/4 103/2/4
f 103/2/4 91/2/4 90/2/4
f 100/1/4 85/1/4 97/1/4
f 97/1/4 85/1/4 116/1/4
f 223/2/4 107/2/4 224/2/4
f 224/2/4 107/2/4 106/2/4
f 98/2/4 115/2/4 127/2/4
f 127/2/4 115/2/4 114/2/4
f 102/2/4 119/2/4 131/2/4
f 131/2/4 119/2/4 118/2/4
f 128/1/4 113/1/4 125/1/4
f 125/1/4 113/1/4 144/1/4
f 227/2/4 135/2/4 228/2/4
f 228/2/4 135/2/4 134/2/4
f 126/2/4 143/2/4 155/2/4
f 155/2/4 143/2/4 142/2/4
f 130/2/4 147/2/4 159/2/4
f 159/2/4 147/2/4 146/2/4
f 156/1/4 141/1/4 153/1/4
f 153/1/4 141/1/4 174/1/4
f 231/2/4 163/2/4 232/2/4
f 232/2/4 163/2/4 162/2/4
f 154/2/4 173/2/4 175/2/4
f 175/2/4 173/2/4 172/2/4
f 158/2/4 189/2/4 191/2/4
f 191/2/4 189/2/4 188/2/4
f 182/2/4 177/2/4 179/2/4
f 179/2/4 177/2/4 176/2/4
f 198/2/4 193/2/4 195/2/4
f 195/2/4 193/2/4 192/2/4
f 31/1/5 14/1/5 32/1/5
f 32/1/5 14/1/5 13/1/5
f 59/1/5 42/1/5 60/1/5
f 60/1/5 42/1/5 41/1/5
f 87/1/5 70/1/5 88/1/5
f 88/1/5 70/1/5 69/1/5
f 115/1/5 98/1/5 116/1/5
f 116/1/5 98/1/5 97/1/5
f 143/1/5 126/1/5 144/1/5
f 144/1/5 126/1/5 125/1/5
f 173/1/5 154/1/5 174/1/5
f 174/1/5 154/1/5 153/1/5
f 35/1/5 18/1/5 36/1/5
f 36/1/5 18/1/5 17/1/5
f 63/1/5 46/1/5 64/1/5
f 64/1/5 46/1/5 45/1/5
f 91/1/5 74/1/5 92/1/5
f 92/1/5 74/1/5 73/1/5
f 119/1/5 102/1/5 120/1/5
f 120/1/5 102/1/5 101/1/5
f 147/1/5 130/1/5 148/1/5
f 148/1/5 130/1/5 129/1/5
f 189/1/5 158/1/5 190/1/5
f 190/1/5 158/1/5 157/1/5
f 23/2/5 211/2/5 24/2/5
f 24/2/5 211/2/5 210/2/5
f 51/2/5 215/2/5 52/2/5
f 52/2/5 215/2/5 214/2/5
f 79/2/5 219/2/5 80/2/5
f 80/2/5 219/2/5 218/2/5
f 107/2/5 223/2/5 108/2/5
f 108/2/5 223/2/5 222/2/5
f 135/2/5 227/2/5 136/2/5
f 136/2/5 227/2/5 226/2/5
f 163/2/5 231/2/5 164/2/5
f 164/2/5 231/2/5 230/2/5
f 39/1/5 26/1/5 40/1/5
f 40/1/5 26/1/5 25/1/5
f 67/1/5 54/1/5 68/1/5
f 68/1/5 54/1/5 53/1/5
f 95/1/5 82/1/5 96/1/5
f 96/1/5 82/1/5 81/1/5
f 123/1/5 110/1/5 124/1/5
f 124/1/5 110/1/5 109/1/5
f 151/1/5 138/1/5 152/1/5
f 152/1/5 138/1/5 137/1/5
f 205/1/5 166/1/5 206/1/5
f 206/1/5 166/1/5 165/1/5
f 2/1/6 1/1/6 15/1/6
f 15/1/6 1/1/6 16/1/6
f 30/1/6 29/1/6 43/1/6
f 43/1/6 29/1/6 44/1/6
f 58/1/6 57/1/6 71/1/6
f 71/1/6 57/1/6 72/1/6
f 86/1/6 85/1/6 99/1/6
f 99/1/6 85/1/6 100/1/6
f 114/1/6 113/1/6 127/1/6
f 127/1/6 113/1/6 128/1/6
f 142/1/6 141/1/6 155/1/6
f 155/1/6 141/1/6 156/1/6
f 186/2/6 177/2/6 181/2/6
f 181/2/6 177/2/6 182/2/6
f 8/2/6 3/2/6 185/2/6
f 185/2/6 3/2/6 178/2/6
f 6/1/6 5/1/6 19/1/6
f 19/1/6 5/1/6 20/1/6
f 34/1/6 33/1/6 47/1/6
f 47/1/6 33/1/6 48/1/6
f 62/1/6 61/1/6 75/1/6
f 75/1/6 61/1/6 76/1/6
f 90/1/6 89/1/6 103/1/6
f 103/1/6 89/1/6 104/1/6
f 118/1/6 117/1/6 131/1/6
f 131/1/6 117/1/6 132/1/6
f 146/1/6 145/1/6 159/1/6
f 159/1/6 145/1/6 160/1/6
f 22/2/6 21/2/6 212/2/6
f 212/2/6 21/2/6 209/2/6
f 50/2/6 49/2/6 216/2/6
f 216/2/6 49/2/6 213/2/6
f 78/2/6 77/2/6 220/2/6
f 220/2/6 77/2/6 217/2/6
f 106/2/6 105/2/6 224/2/6
f 224/2/6 105/2/6 221/2/6
f 134/2/6 133/2/6 228/2/6
f 228/2/6 133/2/6 225/2/6
f 162/2/6 161/2/6 232/2/6
f 232/2/6 161/2/6 229/2/6
f 202/2/6 193/2/6 197/2/6
f 197/2/6 193/2/6 198/2/6
f 12/2/6 7/2/6 201/2/6
f 201/2/6 7/2/6 194/2/6
f 208/1/6 9/1/6 27/1/6
f 27/1/6 9/1/6 28/1/6
f 38/1/6 37/1/6 55/1/6
f 55/1/6 37/1/6 56/1/6
f 66/1/6 65/1/6 83/1/6
f 83/1/6 65/1/6 84/1/6
f 94/1/6 93/1/6 111/1/6
f 111/1/6 93/1/6 112/1/6
f 122/1/6 121/1/6 139/1/6
f 139/1/6 121/1/6 140/1/6
f 150/1/6 149/1/6 167/1/6
f 167/1/6 149/1/6 168/1/6
f 235/3/6 234/3/6 11/3/6
f 11/3/6 234/3/6 171/3/6
f 237/3/1 238/3/1 170/3/1
f 170/3/1 238/3/1 172/3/1
f 239/3/1 240/3/1 187/3/1
f 187/3/1 240/3/1 188/3/1
f 241/3/1 242/3/1 203/3/1
f 203/3/1 242/3/1 207/3/1
f 243/1/1 244/1/1 246/1/1
f 246/1/1 244/1/1 245/1/1
f 247/1/1 248/1/1 250/1/1
f 250/1/1 248/1/1 249/1/1
f 251/3/1 252/3/1 254/3/1
f 254/3/1 252/3/1 253/3/1
f 255/1/1 256/1/1 258/1/1
f 258/1/1 256/1/1 257/1/1
f 259/3/1 260/3/1 262/3/1
f 262/3/1 260/3/1 261/3/1
f 263/3/1 264/3/1 266/3/1
f 266/3/1 264/3/1 265/3/1
f 267/3/1 268/3/1 270/3/1
f 270/3/1 268/3/1 269/3/1
f 271/1/1 272/1/1 274/1/1
f 274/1/1 272/1/1 273/1/1
f 275/1/1 276/1/1 278/1/1
f 278/1/1 276/1/1 277/1/1
f 279/3/1 280/3/1 282/3/1
f 282/3/1 280/3/1 281/3/1
f 283/1/1 284/1/1 286/1/1
f 286/1/1 284/1/1 285/1/1
f 287/3/1 288/3/1 169/3/1
f 169/3/1 288/3/1 170/3/1
f 288/3/1 289/3/1 291/3/1
f 291/3/1 289/3/1 290/3/1
f 292/2/1 293/2/1 175/2/1
f 175/2/1 293/2/1 176/2/1
f 294/2/1 295/2/1 179/2/1
f 179/2/1 295/2/1 180/2/1
f 296/2/1 297/2/1 183/2/1
f 183/2/1 297/2/1 184/2/1
f 298/3/1 299/3/1 301/3/1
f 301/3/1 299/3/1 300/3/1
f 302/2/1 303/2/1 191/2/1
f 191/2/1 303/2/1 192/2/1
f 304/2/1 305/2/1 195/2/1
f 195/2/1 305/2/1 196/2/1
f 306/2/1 307/2/1 199/2/1
f 199/2/1 307/2/1 200/2/1
f 308/3/1 309/3/1 311/3/1
f 311/3/1 309/3/1 310/3/1
f 309/3/1 312/3/1 313/3/1
f 313/3/1 312/3/1 242/3/1
f 314/2/2 315/2/2 317/2/2
f 317/2/2 315/2/2 316/2/2
f 318/2/2 319/2/2 321/2/2
f 321/2/2 319/2/2 320/2/2
f 322/3/2 233/3/2 323/3/2
f 323/3/2 233/3/2 236/3/2
f 207/3/3 312/3/3 236/3/3
f 236/3/3 312/3/3 323/3/3
f 184/2/3 250/2/3 187/2/3
f 187/2/3 250/2/3 239/2/3
f 200/2/3 258/2/3 203/2/3
f 203/2/3 258/2/3 241/2/3
f 315/2/3 314/2/3 254/2/3
f 254/2/3 314/2/3 251/2/3
f 257/1/3 256/1/3 313/1/3
f 313/1/3 256/1/3 269/1/3
f 247/2/3 278/2/3 266/2/3
f 266/2/3 278/2/3 263/2/3
f 255/2/3 286/2/3 270/2/3
f 270/2/3 286/2/3 267/2/3
f 319/2/3 318/2/3 282/2/3
f 282/2/3 318/2/3 279/2/3
f 285/1/3 284/1/3 268/1/3
f 268/1/3 284/1/3 310/1/3
f 275/2/3 297/2/3 301/2/3
f 301/2/3 297/2/3 298/2/3
f 283/2/3 307/2/3 311/2/3
f 311/2/3 307/2/3 308/2/3
f 180/2/3 295/2/3 183/2/3
f 183/2/3 295/2/3 296/2/3
f 196/2/3 305/2/3 199/2/3
f 199/2/3 305/2/3 306/2/3
f 169/3/4 233/3/4 287/3/4
f 287/3/4 233/3/4 322/3/4
f 175/2/4 172/2/4 245/2/4
f 245/2/4 172/2/4 238/2/4
f 191/2/4 188/2/4 249/2/4
f 249/2/4 188/2/4 240/2/4
f 246/1/4 237/1/4 243/1/4
f 243/1/4 237/1/4 262/1/4
f 316/2/4 253/2/4 317/2/4
f 317/2/4 253/2/4 252/2/4
f 244/2/4 261/2/4 273/2/4
f 273/2/4 261/2/4 260/2/4
f 248/2/4 265/2/4 277/2/4
f 277/2/4 265/2/4 264/2/4
f 274/1/4 259/1/4 271/1/4
f 271/1/4 259/1/4 291/1/4
f 320/2/4 281/2/4 321/2/4
f 321/2/4 281/2/4 280/2/4
f 272/2/4 290/2/4 292/2/4
f 292/2/4 290/2/4 289/2/4
f 276/2/4 300/2/4 302/2/4
f 302/2/4 300/2/4 299/2/4
f 179/2/4 176/2/4 294/2/4
f 294/2/4 176/2/4 293/2/4
f 195/2/4 192/2/4 304/2/4
f 304/2/4 192/2/4 303/2/4
f 261/1/5 244/1/5 262/1/5
f 262/1/5 244/1/5 243/1/5
f 290/1/5 272/1/5 291/1/5
f 291/1/5 272/1/5 271/1/5
f 296/2/5 295/2/5 293/2/5
f 293/2/5 295/2/5 294/2/5
f 298/2/5 297/2/5 289/2/5
f 289/2/5 297/2/5 292/2/5
f 265/1/5 248/1/5 266/1/5
f 266/1/5 248/1/5 247/1/5
f 300/1/5 276/1/5 301/1/5
f 301/1/5 276/1/5 275/1/5
f 253/2/5 316/2/5 254/2/5
f 254/2/5 316/2/5 315/2/5
f 281/2/5 320/2/5 282/2/5
f 282/2/5 320/2/5 319/2/5
f 306/2/5 305/2/5 303/2/5
f 303/2/5 305/2/5 304/2/5
f 308/2/5 307/2/5 299/2/5
f 299/2/5 307/2/5 302/2/5
f 269/1/5 256/1/5 270/1/5
f 270/1/5 256/1/5 255/1/5
f 310/1/5 284/1/5 311/1/5
f 311/1/5 284/1/5 283/1/5
f 323/3/5 312/3/5 322/3/5
f 322/3/5 312/3/5 287/3/5
f 238/1/6 237/1/6 245/1/6
f 245/1/6 237/1/6 246/1/6
f 260/1/6 259/1/6 273/1/6
f 273/1/6 259/1/6 274/1/6
f 240/1/6 239/1/6 249/1/6
f 249/1/6 239/1/6 250/1/6
f 264/1/6 263/1/6 277/1/6
f 277/1/6 263/1/6 278/1/6
f 252/2/6 251/2/6 317/2/6
f 317/2/6 251/2/6 314/2/6
f 280/2/6 279/2/6 321/2/6
f 321/2/6 279/2/6 318/2/6
f 313/1/6 241/1/6 257/1/6
f 257/1/6 241/1/6 258/1/6
f 268/1/6 267/1/6 285/1/6
f 285/1/6 267/1/6 286/1/6
