# Vengi binary mesh normalized for Tanks of Freedom II

mtllib ../../../materials/vox_grass.mtl
o railway_stop

v 3.4 0.5 1.1
v 2.6 0.5 1.1
v 2.6 0.5 2.8
v 3.4 0.5 2.8
v 3.5 1.6 -0.4
v 3.4 1.6 -0.4
v 3.4 1.6 0.5
v 3.5 1.6 0.5
v 3.5 1.7 -1.3
v 3.4 1.7 -1.3
v 3.4 1.7 -0.6
v 3.5 1.7 -0.6
v 3.4 0.5 -1.3
v 2.6 0.5 -1.3
v 2.6 0.5 0.4
v 3.4 0.5 0.4
v 3.6 1.9 -1.6
v 2.4 1.9 -1.6
v 2.4 1.9 0.7
v 3.6 1.9 0.7
v 3.3 0.4 2.7
v 3.3 0.4 2.8
v 2.6 0.4 2.8
v 2.6 0.4 2.7
v 3.3 0 2.6
v 3.3 0 2.7
v 3.2 0 2.7
v 3.2 0 2.6
v 2.8 0 2.6
v 2.8 0 2.7
v 2.7 0 2.7
v 2.7 0 2.6
v 3.3 0.4 1.3
v 3.3 0.4 2.6
v 3.2 0.4 2.6
v 3.2 0.4 1.3
v 2.8 0.4 1.3
v 2.8 0.4 2.6
v 2.7 0.4 2.6
v 2.7 0.4 1.3
v 3.3 0 1.2
v 3.3 0 1.3
v 3.2 0 1.3
v 3.2 0 1.2
v 2.8 0 1.2
v 2.8 0 1.3
v 2.7 0 1.3
v 2.7 0 1.2
v 3.4 0.4 1.1
v 3.4 0.4 2.8
v 3.3 0.4 1.1
v 3.3 0.4 1.2
v 3.2 0.4 1.2
v 3.2 0.4 1.1
v 3.2 0.4 2.7
v 2.8 0.4 2.7
v 2.8 0.4 1.1
v 2.8 0.4 1.2
v 2.7 0.4 1.2
v 2.7 0.4 1.1
v 2.7 0.4 2.7
v 2.6 0.4 1.1
v 3.6 0 0.6
v 3.6 0 0.7
v 3.5 0 0.7
v 3.5 0 0.6
v 2.5 0 0.6
v 2.5 0 0.7
v 2.4 0 0.7
v 2.4 0 0.6
v 3.3 0.4 0.3
v 3.3 0.4 0.4
v 2.6 0.4 0.4
v 2.6 0.4 0.3
v 3.3 0 0.2
v 3.3 0 0.3
v 3.2 0 0.3
v 3.2 0 0.2
v 2.8 0 0.2
v 2.8 0 0.3
v 2.7 0 0.3
v 2.7 0 0.2
v 3.5 0.8 -0.4
v 3.5 0.8 0.5
v 3.4 0.8 0.5
v 3.4 0.8 -0.4
v 3.3 0.4 -1.1
v 3.3 0.4 0.2
v 3.2 0.4 0.2
v 3.2 0.4 -1.1
v 2.8 0.4 -1.1
v 2.8 0.4 0.2
v 2.7 0.4 0.2
v 2.7 0.4 -1.1
v 3.3 0 -1.2
v 3.3 0 -1.1
v 3.2 0 -1.1
v 3.2 0 -1.2
v 2.8 0 -1.2
v 2.8 0 -1.1
v 2.7 0 -1.1
v 2.7 0 -1.2
v 3.5 0.6 -1.3
v 3.5 0.6 -0.6
v 3.4 0.6 -0.6
v 3.4 0.6 -1.3
v 3.4 0.4 -1.3
v 3.4 0.4 0.4
v 3.3 0.4 -1.3
v 3.3 0.4 -1.2
v 3.2 0.4 -1.2
v 3.2 0.4 -1.3
v 3.2 0.4 0.3
v 2.8 0.4 0.3
v 2.8 0.4 -1.3
v 2.8 0.4 -1.2
v 2.7 0.4 -1.2
v 2.7 0.4 -1.3
v 2.7 0.4 0.3
v 2.6 0.4 -1.3
v 3.6 0.4 -1.5
v 3.6 0.4 0.6
v 3.5 0.4 0.6
v 3.5 0.4 -1.5
v 2.5 1.8 -1.5
v 2.5 1.8 0.6
v 2.4 1.8 0.6
v 2.4 1.8 -1.5
v 3.6 0 -1.6
v 3.6 0 -1.5
v 3.5 0 -1.5
v 3.5 0 -1.6
v 3.5 1.8 -1.6
v 3.5 1.8 0.7
v 2.5 1.8 0.7
v 2.5 1.8 -1.6
v 2.5 0 -1.6
v 2.5 0 -1.5
v 2.4 0 -1.5
v 2.4 0 -1.6
v 3.5 0.6 -1.5
v 3.5 0.4 -0.6
v 3.4 0.7 -0.7
v 3.4 0.7 -1.3
v 3.4 0.6 -0.7
v 3.5 0.8 -0.6
v 3.5 0.4 0.5
v 3.4 0.9 0.4
v 3.4 0.9 -0.4
v 3.4 0.8 0.4
v 3.4 1.5 0.4
v 3.4 1.5 -0.3
v 3.4 0.9 -0.3
v 3.4 1.6 0.4
v 3.4 1.6 -0.3
v 3.4 1.6 -0.7
v 3.4 1.6 -1.2
v 3.4 0.7 -1.2
v 3.4 1.7 -0.7
v 3.4 1.7 -1.2
v 3.5 1.8 0.6
v 2.4 1.8 0.7
v 3.5 1.8 0.5
v 3.5 1.8 -0.4
v 3.5 1.8 -0.6
v 3.5 1.8 -1.3
v 3.5 1.8 -1.5
v 2.4 1.8 -1.6
v 3.6 1.8 0.7
v 3.6 1.8 0.6
v 3.6 1.8 -1.5
v 3.6 1.8 -1.6
v 3.6 2.6 -2.4
v 2.3 2.6 -2.4
v 2.3 2.6 -2.3
v 3.6 2.6 -2.3
v 3.6 0 -2.4
v 3.6 0 -2.3
v 3.5 0 -2.3
v 3.5 0 -2.4
v 3.5 1.7 -2.4
v 3.5 1.7 -2.3
v 2.3 1.7 -2.3
v 2.3 1.7 -2.4
v 3.5 2.6 -2.4
v 3.4 1.9 -2.4
v 3.4 2.5 -2.4
v 3.5 2.5 -2.4
v 3.5 1.9 -2.4
v 3.3 1.9 -2.4
v 3.3 2 -2.4
v 3.4 2 -2.4
v 3.3 2.1 -2.4
v 3.3 2.2 -2.4
v 3.4 2.2 -2.4
v 3.4 2.1 -2.4
v 3.3 2.3 -2.4
v 3.3 2.4 -2.4
v 3.4 2.4 -2.4
v 3.4 2.3 -2.4
v 3.2 1.9 -2.4
v 3.2 2 -2.4
v 3.2 2.1 -2.4
v 3.2 2.2 -2.4
v 3.2 2.3 -2.4
v 3.2 2.4 -2.4
v 3 2.2 -2.4
v 3 2.3 -2.4
v 2.9 2.2 -2.4
v 2.9 2.3 -2.4
v 2.8 2.1 -2.4
v 2.8 2.2 -2.4
v 2.6 1.9 -2.4
v 2.6 2 -2.4
v 2.5 2.3 -2.4
v 2.5 2.4 -2.4
v 2.4 1.8 -2.4
v 2.4 1.9 -2.4
v 3.5 1.8 -2.4
v 2.4 2 -2.4
v 2.4 2.1 -2.4
v 2.4 2.2 -2.4
v 2.4 2.3 -2.4
v 2.4 2.4 -2.4
v 2.4 2.5 -2.4
v 2.3 1.8 -2.4
v 2.3 2.5 -2.4
v 3.5 2.6 -2.3
v 3.4 1.9 -2.3
v 3.5 1.9 -2.3
v 3.5 2.5 -2.3
v 3.4 2.5 -2.3
v 3.3 1.9 -2.3
v 3.4 2 -2.3
v 3.3 2 -2.3
v 3.3 2.1 -2.3
v 3.4 2.1 -2.3
v 3.4 2.2 -2.3
v 3.3 2.2 -2.3
v 3.3 2.3 -2.3
v 3.4 2.3 -2.3
v 3.4 2.4 -2.3
v 3.3 2.4 -2.3
v 3.2 1.9 -2.3
v 3.2 2 -2.3
v 3.2 2.1 -2.3
v 3.2 2.2 -2.3
v 3.2 2.3 -2.3
v 3.2 2.4 -2.3
v 3 2.2 -2.3
v 3 2.3 -2.3
v 2.9 2.2 -2.3
v 2.9 2.3 -2.3
v 2.8 2.1 -2.3
v 2.8 2.2 -2.3
v 2.6 1.9 -2.3
v 2.6 2 -2.3
v 2.5 2.3 -2.3
v 2.5 2.4 -2.3
v 2.4 1.8 -2.3
v 3.5 1.8 -2.3
v 2.4 1.9 -2.3
v 2.4 2 -2.3
v 2.4 2.1 -2.3
v 2.4 2.2 -2.3
v 2.4 2.3 -2.3
v 2.4 2.4 -2.3
v 2.4 2.5 -2.3
v 2.3 1.8 -2.3
v 2.3 2.5 -2.3

vt 0.00195313 0.5
vt 0.00585938 0.5
vt 0.0292969 0.5
vt 0.0371094 0.5
vt 0.0410156 0.5
vt 0.0449219 0.5
vt 0.0605469 0.5
vt 0.0839844 0.5
vt 0.0917969 0.5
vt 0.103516 0.5

vn 0 1 0
vn 0 -1 0
vn -1 0 0
vn 1 0 0
vn 0 0 -1
vn 0 0 1

usemtl palette
f 1/8/1 2/8/1 4/8/1
f 4/8/1 2/8/1 3/8/1
f 5/8/1 6/8/1 8/8/1
f 8/8/1 6/8/1 7/8/1
f 9/2/1 10/2/1 12/2/1
f 12/2/1 10/2/1 11/2/1
f 13/8/1 14/8/1 16/8/1
f 16/8/1 14/8/1 15/8/1
f 17/10/1 18/10/1 20/10/1
f 20/10/1 18/10/1 19/10/1
f 21/8/2 22/8/2 24/8/2
f 24/8/2 22/8/2 23/8/2
f 25/4/2 26/4/2 28/4/2
f 28/4/2 26/4/2 27/4/2
f 29/4/2 30/4/2 32/4/2
f 32/4/2 30/4/2 31/4/2
f 33/8/2 34/8/2 36/8/2
f 36/8/2 34/8/2 35/8/2
f 37/8/2 38/8/2 40/8/2
f 40/8/2 38/8/2 39/8/2
f 41/4/2 42/4/2 44/4/2
f 44/4/2 42/4/2 43/4/2
f 45/4/2 46/4/2 48/4/2
f 48/4/2 46/4/2 47/4/2
f 49/8/2 50/8/2 51/8/2
f 51/8/2 50/8/2 22/8/2
f 51/8/2 52/8/2 54/8/2
f 54/8/2 52/8/2 53/8/2
f 54/8/2 55/8/2 57/8/2
f 57/8/2 55/8/2 56/8/2
f 57/8/2 58/8/2 60/8/2
f 60/8/2 58/8/2 59/8/2
f 60/8/2 61/8/2 62/8/2
f 62/8/2 61/8/2 24/8/2
f 63/5/2 64/5/2 66/5/2
f 66/5/2 64/5/2 65/5/2
f 67/5/2 68/5/2 70/5/2
f 70/5/2 68/5/2 69/5/2
f 71/8/2 72/8/2 74/8/2
f 74/8/2 72/8/2 73/8/2
f 75/4/2 76/4/2 78/4/2
f 78/4/2 76/4/2 77/4/2
f 79/4/2 80/4/2 82/4/2
f 82/4/2 80/4/2 81/4/2
f 83/8/2 84/8/2 86/8/2
f 86/8/2 84/8/2 85/8/2
f 87/8/2 88/8/2 90/8/2
f 90/8/2 88/8/2 89/8/2
f 91/8/2 92/8/2 94/8/2
f 94/8/2 92/8/2 93/8/2
f 95/4/2 96/4/2 98/4/2
f 98/4/2 96/4/2 97/4/2
f 99/4/2 100/4/2 102/4/2
f 102/4/2 100/4/2 101/4/2
f 103/2/2 104/2/2 106/2/2
f 106/2/2 104/2/2 105/2/2
f 107/8/2 108/8/2 109/8/2
f 109/8/2 108/8/2 72/8/2
f 109/8/2 110/8/2 112/8/2
f 112/8/2 110/8/2 111/8/2
f 112/8/2 113/8/2 115/8/2
f 115/8/2 113/8/2 114/8/2
f 115/8/2 116/8/2 118/8/2
f 118/8/2 116/8/2 117/8/2
f 118/8/2 119/8/2 120/8/2
f 120/8/2 119/8/2 74/8/2
f 121/7/2 122/7/2 124/7/2
f 124/7/2 122/7/2 123/7/2
f 125/10/2 126/10/2 128/10/2
f 128/10/2 126/10/2 127/10/2
f 129/5/2 130/5/2 132/5/2
f 132/5/2 130/5/2 131/5/2
f 133/10/2 134/10/2 136/10/2
f 136/10/2 134/10/2 135/10/2
f 137/5/2 138/5/2 140/5/2
f 140/5/2 138/5/2 139/5/2
f 55/4/3 35/4/3 27/4/3
f 27/4/3 35/4/3 28/4/3
f 61/4/3 39/4/3 31/4/3
f 31/4/3 39/4/3 32/4/3
f 36/4/3 53/4/3 43/4/3
f 43/4/3 53/4/3 44/4/3
f 40/4/3 59/4/3 47/4/3
f 47/4/3 59/4/3 48/4/3
f 113/4/3 89/4/3 77/4/3
f 77/4/3 89/4/3 78/4/3
f 119/4/3 93/4/3 81/4/3
f 81/4/3 93/4/3 82/4/3
f 90/4/3 111/4/3 97/4/3
f 97/4/3 111/4/3 98/4/3
f 94/4/3 117/4/3 101/4/3
f 101/4/3 117/4/3 102/4/3
f 3/8/3 2/8/3 23/8/3
f 23/8/3 2/8/3 62/8/3
f 15/8/3 14/8/3 73/8/3
f 73/8/3 14/8/3 120/8/3
f 104/7/3 141/7/3 142/7/3
f 142/7/3 141/7/3 124/7/3
f 143/2/3 144/2/3 145/2/3
f 145/2/3 144/2/3 106/2/3
f 84/7/3 146/7/3 147/7/3
f 147/7/3 146/7/3 142/7/3
f 148/8/3 149/8/3 150/8/3
f 150/8/3 149/8/3 86/8/3
f 151/3/3 152/3/3 148/3/3
f 148/3/3 152/3/3 153/3/3
f 7/8/3 154/8/3 85/8/3
f 85/8/3 154/8/3 150/8/3
f 154/8/3 155/8/3 151/8/3
f 151/8/3 155/8/3 152/8/3
f 155/8/3 6/8/3 153/8/3
f 153/8/3 6/8/3 149/8/3
f 156/3/3 157/3/3 143/3/3
f 143/3/3 157/3/3 158/3/3
f 11/2/3 159/2/3 105/2/3
f 105/2/3 159/2/3 145/2/3
f 159/2/3 160/2/3 156/2/3
f 156/2/3 160/2/3 157/2/3
f 160/2/3 10/2/3 158/2/3
f 158/2/3 10/2/3 144/2/3
f 134/5/3 161/5/3 65/5/3
f 65/5/3 161/5/3 66/5/3
f 162/5/3 127/5/3 69/5/3
f 69/5/3 127/5/3 70/5/3
f 161/7/3 163/7/3 123/7/3
f 123/7/3 163/7/3 147/7/3
f 163/7/3 164/7/3 8/7/3
f 8/7/3 164/7/3 5/7/3
f 164/7/3 165/7/3 83/7/3
f 83/7/3 165/7/3 146/7/3
f 165/7/3 166/7/3 12/7/3
f 12/7/3 166/7/3 9/7/3
f 166/7/3 167/7/3 103/7/3
f 103/7/3 167/7/3 141/7/3
f 167/5/3 133/5/3 131/5/3
f 131/5/3 133/5/3 132/5/3
f 128/5/3 168/5/3 139/5/3
f 139/5/3 168/5/3 140/5/3
f 19/10/3 18/10/3 162/10/3
f 162/10/3 18/10/3 168/10/3
f 21/4/4 26/4/4 34/4/4
f 34/4/4 26/4/4 25/4/4
f 56/4/4 30/4/4 38/4/4
f 38/4/4 30/4/4 29/4/4
f 33/4/4 42/4/4 52/4/4
f 52/4/4 42/4/4 41/4/4
f 37/4/4 46/4/4 58/4/4
f 58/4/4 46/4/4 45/4/4
f 71/4/4 76/4/4 88/4/4
f 88/4/4 76/4/4 75/4/4
f 114/4/4 80/4/4 92/4/4
f 92/4/4 80/4/4 79/4/4
f 87/4/4 96/4/4 110/4/4
f 110/4/4 96/4/4 95/4/4
f 91/4/4 100/4/4 116/4/4
f 116/4/4 100/4/4 99/4/4
f 4/8/4 50/8/4 1/8/4
f 1/8/4 50/8/4 49/8/4
f 16/8/4 108/8/4 13/8/4
f 13/8/4 108/8/4 107/8/4
f 169/5/4 64/5/4 170/5/4
f 170/5/4 64/5/4 63/5/4
f 135/5/4 68/5/4 126/5/4
f 126/5/4 68/5/4 67/5/4
f 170/7/4 122/7/4 171/7/4
f 171/7/4 122/7/4 121/7/4
f 171/5/4 130/5/4 172/5/4
f 172/5/4 130/5/4 129/5/4
f 125/5/4 138/5/4 136/5/4
f 136/5/4 138/5/4 137/5/4
f 20/10/4 169/10/4 17/10/4
f 17/10/4 169/10/4 172/10/4
f 66/5/5 123/5/5 63/5/5
f 63/5/5 123/5/5 122/5/5
f 132/5/5 133/5/5 129/5/5
f 129/5/5 133/5/5 172/5/5
f 86/8/5 6/8/5 83/8/5
f 83/8/5 6/8/5 5/8/5
f 106/2/5 10/2/5 103/2/5
f 103/2/5 10/2/5 9/2/5
f 28/4/5 35/4/5 25/4/5
f 25/4/5 35/4/5 34/4/5
f 44/4/5 53/4/5 41/4/5
f 41/4/5 53/4/5 52/4/5
f 78/4/5 89/4/5 75/4/5
f 75/4/5 89/4/5 88/4/5
f 98/4/5 111/4/5 95/4/5
f 95/4/5 111/4/5 110/4/5
f 32/4/5 39/4/5 29/4/5
f 29/4/5 39/4/5 38/4/5
f 48/4/5 59/4/5 45/4/5
f 45/4/5 59/4/5 58/4/5
f 82/4/5 93/4/5 79/4/5
f 79/4/5 93/4/5 92/4/5
f 102/4/5 117/4/5 99/4/5
f 99/4/5 117/4/5 116/4/5
f 62/8/5 2/8/5 49/8/5
f 49/8/5 2/8/5 1/8/5
f 120/8/5 14/8/5 107/8/5
f 107/8/5 14/8/5 13/8/5
f 70/5/5 127/5/5 67/5/5
f 67/5/5 127/5/5 126/5/5
f 140/5/5 168/5/5 137/5/5
f 137/5/5 168/5/5 136/5/5
f 168/10/5 18/10/5 172/10/5
f 172/10/5 18/10/5 17/10/5
f 131/5/6 130/5/6 124/5/6
f 124/5/6 130/5/6 121/5/6
f 65/5/6 64/5/6 134/5/6
f 134/5/6 64/5/6 169/5/6
f 85/8/6 84/8/6 7/8/6
f 7/8/6 84/8/6 8/8/6
f 105/2/6 104/2/6 11/2/6
f 11/2/6 104/2/6 12/2/6
f 27/4/6 26/4/6 55/4/6
f 55/4/6 26/4/6 21/4/6
f 43/4/6 42/4/6 36/4/6
f 36/4/6 42/4/6 33/4/6
f 77/4/6 76/4/6 113/4/6
f 113/4/6 76/4/6 71/4/6
f 97/4/6 96/4/6 90/4/6
f 90/4/6 96/4/6 87/4/6
f 31/4/6 30/4/6 61/4/6
f 61/4/6 30/4/6 56/4/6
f 47/4/6 46/4/6 40/4/6
f 40/4/6 46/4/6 37/4/6
f 81/4/6 80/4/6 119/4/6
f 119/4/6 80/4/6 114/4/6
f 101/4/6 100/4/6 94/4/6
f 94/4/6 100/4/6 91/4/6
f 23/8/6 50/8/6 3/8/6
f 3/8/6 50/8/6 4/8/6
f 73/8/6 108/8/6 15/8/6
f 15/8/6 108/8/6 16/8/6
f 69/5/6 68/5/6 162/5/6
f 162/5/6 68/5/6 135/5/6
f 139/5/6 138/5/6 128/5/6
f 128/5/6 138/5/6 125/5/6
f 162/10/6 169/10/6 19/10/6
f 19/10/6 169/10/6 20/10/6
f 173/5/1 174/5/1 176/5/1
f 176/5/1 174/5/1 175/5/1
f 177/5/2 178/5/2 180/5/2
f 180/5/2 178/5/2 179/5/2
f 181/5/2 182/5/2 184/5/2
f 184/5/2 182/5/2 183/5/2
f 182/5/3 181/5/3 179/5/3
f 179/5/3 181/5/3 180/5/3
f 175/5/3 174/5/3 183/5/3
f 183/5/3 174/5/3 184/5/3
f 176/5/4 178/5/4 173/5/4
f 173/5/4 178/5/4 177/5/4
f 180/5/5 185/5/5 177/5/5
f 177/5/5 185/5/5 173/5/5
f 186/1/5 187/1/5 189/1/5
f 189/1/5 187/1/5 188/1/5
f 190/9/5 191/9/5 186/9/5
f 186/9/5 191/9/5 192/9/5
f 193/9/5 194/9/5 196/9/5
f 196/9/5 194/9/5 195/9/5
f 197/9/5 198/9/5 200/9/5
f 200/9/5 198/9/5 199/9/5
f 201/1/5 202/1/5 190/1/5
f 190/1/5 202/1/5 191/1/5
f 203/1/5 204/1/5 193/1/5
f 193/1/5 204/1/5 194/1/5
f 205/1/5 206/1/5 197/1/5
f 197/1/5 206/1/5 198/1/5
f 207/1/5 208/1/5 195/1/5
f 195/1/5 208/1/5 200/1/5
f 209/6/5 210/6/5 207/6/5
f 207/6/5 210/6/5 208/6/5
f 211/6/5 212/6/5 203/6/5
f 203/6/5 212/6/5 204/6/5
f 213/6/5 214/6/5 201/6/5
f 201/6/5 214/6/5 202/6/5
f 215/6/5 216/6/5 205/6/5
f 205/6/5 216/6/5 206/6/5
f 217/1/5 218/1/5 219/1/5
f 219/1/5 218/1/5 189/1/5
f 218/1/5 220/1/5 213/1/5
f 213/1/5 220/1/5 214/1/5
f 220/1/5 221/1/5 192/1/5
f 192/1/5 221/1/5 196/1/5
f 221/1/5 222/1/5 211/1/5
f 211/1/5 222/1/5 212/1/5
f 222/1/5 223/1/5 209/1/5
f 209/1/5 223/1/5 210/1/5
f 223/1/5 224/1/5 215/1/5
f 215/1/5 224/1/5 216/1/5
f 224/1/5 225/1/5 199/1/5
f 199/1/5 225/1/5 187/1/5
f 184/5/5 226/5/5 181/5/5
f 181/5/5 226/5/5 219/5/5
f 226/5/5 227/5/5 217/5/5
f 217/5/5 227/5/5 225/5/5
f 227/5/5 174/5/5 188/5/5
f 188/5/5 174/5/5 185/5/5
f 179/5/6 178/5/6 228/5/6
f 228/5/6 178/5/6 176/5/6
f 229/1/6 230/1/6 232/1/6
f 232/1/6 230/1/6 231/1/6
f 233/9/6 229/9/6 235/9/6
f 235/9/6 229/9/6 234/9/6
f 236/9/6 237/9/6 239/9/6
f 239/9/6 237/9/6 238/9/6
f 240/9/6 241/9/6 243/9/6
f 243/9/6 241/9/6 242/9/6
f 244/1/6 233/1/6 245/1/6
f 245/1/6 233/1/6 235/1/6
f 246/1/6 236/1/6 247/1/6
f 247/1/6 236/1/6 239/1/6
f 248/1/6 240/1/6 249/1/6
f 249/1/6 240/1/6 243/1/6
f 250/1/6 238/1/6 251/1/6
f 251/1/6 238/1/6 241/1/6
f 252/6/6 250/6/6 253/6/6
f 253/6/6 250/6/6 251/6/6
f 254/6/6 246/6/6 255/6/6
f 255/6/6 246/6/6 247/6/6
f 256/6/6 244/6/6 257/6/6
f 257/6/6 244/6/6 245/6/6
f 258/6/6 248/6/6 259/6/6
f 259/6/6 248/6/6 249/6/6
f 260/1/6 261/1/6 262/1/6
f 262/1/6 261/1/6 230/1/6
f 262/1/6 256/1/6 263/1/6
f 263/1/6 256/1/6 257/1/6
f 263/1/6 234/1/6 264/1/6
f 264/1/6 234/1/6 237/1/6
f 264/1/6 254/1/6 265/1/6
f 265/1/6 254/1/6 255/1/6
f 265/1/6 252/1/6 266/1/6
f 266/1/6 252/1/6 253/1/6
f 266/1/6 258/1/6 267/1/6
f 267/1/6 258/1/6 259/1/6
f 267/1/6 242/1/6 268/1/6
f 268/1/6 242/1/6 232/1/6
f 183/5/6 182/5/6 269/5/6
f 269/5/6 182/5/6 261/5/6
f 269/5/6 260/5/6 270/5/6
f 270/5/6 260/5/6 268/5/6
f 270/5/6 231/5/6 175/5/6
f 175/5/6 231/5/6 228/5/6
