# Vengi binary mesh normalized for Tanks of Freedom II

mtllib ../../../materials/vox_grass.mtl
o railway_end

v 1.4 0.1 3.3
v 1 0.1 3.3
v 1 0.1 3.7
v 1.4 0.1 3.7
v 0.7 0.1 3.3
v -0.7 0.1 3.3
v -0.7 0.1 3.7
v 0.7 0.1 3.7
v -1 0.1 3.3
v -1.4 0.1 3.3
v -1.4 0.1 3.7
v -1 0.1 3.7
v 1.4 0.1 2.3
v 1 0.1 2.3
v 1 0.1 2.7
v 1.4 0.1 2.7
v 0.7 0.1 2.3
v -0.7 0.1 2.3
v -0.7 0.1 2.7
v 0.7 0.1 2.7
v -1 0.1 2.3
v -1.4 0.1 2.3
v -1.4 0.1 2.7
v -1 0.1 2.7
v 1.4 0.1 1.3
v 1 0.1 1.3
v 1 0.1 1.7
v 1.4 0.1 1.7
v 0.7 0.1 1.3
v -0.7 0.1 1.3
v -0.7 0.1 1.7
v 0.7 0.1 1.7
v -1 0.1 1.3
v -1.4 0.1 1.3
v -1.4 0.1 1.7
v -1 0.1 1.7
v 1.4 0.1 0.3
v 1 0.1 0.3
v 1 0.1 0.7
v 1.4 0.1 0.7
v 0.7 0.1 0.3
v -0.7 0.1 0.3
v -0.7 0.1 0.7
v 0.7 0.1 0.7
v -1 0.1 0.3
v -1.4 0.1 0.3
v -1.4 0.1 0.7
v -1 0.1 0.7
v 1 0.1 0
v 0.9 0.1 0
v 0.9 0.1 4
v 1 0.1 4
v 0.9 0.2 0
v 0.8 0.2 0
v 0.8 0.2 4
v 0.9 0.2 4
v 0.8 0.1 0
v 0.7 0.1 0
v 0.7 0.1 4
v 0.8 0.1 4
v -0.7 0.1 0
v -0.8 0.1 0
v -0.8 0.1 4
v -0.7 0.1 4
v -0.8 0.2 0
v -0.9 0.2 0
v -0.9 0.2 4
v -0.8 0.2 4
v -0.9 0.1 0
v -1 0.1 0
v -1 0.1 4
v -0.9 0.1 4
v 1.3 0.7 0
v -1.3 0.7 0
v -1.3 0.7 0.1
v 1.3 0.7 0.1
v 1.3 1.3 0
v -1.3 1.3 0
v -1.3 1.3 0.1
v 1.3 1.3 0.1
v 0.9 1.4 -0.2
v 0.7 1.4 -0.2
v 0.7 1.4 0
v 0.9 1.4 0
v -0.7 1.4 -0.2
v -0.9 1.4 -0.2
v -0.9 1.4 0
v -0.7 1.4 0
v 0.9 0 3.7
v 0.9 0 4
v 0.7 0 4
v 0.7 0 3.7
v -0.8 0 3.7
v -0.8 0 4
v -1 0 4
v -1 0 3.7
v 1.4 0 3.3
v 1.4 0 3.7
v 1 0 3.7
v 1 0 3.3
v 0.9 0 3.3
v 0.8 0 3.7
v 0.8 0 3.3
v 0.7 0 3.3
v -0.7 0 3.7
v -0.7 0 3.3
v -0.8 0.1 3.3
v -0.8 0.1 3.7
v -0.9 0.1 3.7
v -0.9 0.1 3.3
v -1 0 3.3
v -1.4 0 3.7
v -1.4 0 3.3
v 0.9 0 2.7
v 0.8 0 2.7
v -0.8 0 2.7
v -0.8 0 3.3
v -0.9 0 3.3
v -0.9 0 2.7
v 1.4 0 2.3
v 1.4 0 2.7
v 1 0 2.7
v 1 0 2.3
v 0.9 0 2.3
v 0.8 0 2.3
v 0.7 0 2.3
v 0.7 0 2.7
v -0.7 0 2.7
v -0.7 0 2.3
v -0.8 0.1 2.3
v -0.8 0.1 2.7
v -0.9 0.1 2.7
v -0.9 0.1 2.3
v -1 0 2.3
v -1 0 2.7
v -1.4 0 2.7
v -1.4 0 2.3
v 0.9 0 1.7
v 0.8 0 1.7
v -0.8 0 1.7
v -0.8 0 2.3
v -0.9 0 2.3
v -0.9 0 1.7
v 1.4 0 1.3
v 1.4 0 1.7
v 1 0 1.7
v 1 0 1.3
v 0.9 0 1.3
v 0.8 0 1.3
v 0.7 0 1.3
v 0.7 0 1.7
v -0.7 0 1.7
v -0.7 0 1.3
v -0.8 0.1 1.3
v -0.8 0.1 1.7
v -0.9 0.1 1.7
v -0.9 0.1 1.3
v -1 0 1.3
v -1 0 1.7
v -1.4 0 1.7
v -1.4 0 1.3
v 0.9 0 0.7
v 0.8 0 0.7
v -0.8 0 0.7
v -0.8 0 1.3
v -0.9 0 1.3
v -0.9 0 0.7
v 1.4 0 0.3
v 1.4 0 0.7
v 1 0 0.7
v 1 0 0.3
v 0.9 0 0.3
v 0.8 0 0.3
v 0.7 0 0.3
v 0.7 0 0.7
v -0.7 0 0.7
v -0.7 0 0.3
v -0.8 0.1 0.3
v -0.8 0.1 0.7
v -0.9 0.1 0.7
v -0.9 0.1 0.3
v -1 0 0.3
v -1 0 0.7
v -1.4 0 0.7
v -1.4 0 0.3
v 1 0 0
v 1 0 4
v 0.9 0 0
v 0.8 0 0
v 0.7 0 0
v -0.7 0 0
v -0.7 0 4
v -0.8 0 0
v -0.8 0 0.3
v -0.9 0 0.3
v -0.9 0 0
v -0.9 0 3.7
v -1 0 0
v 1.3 0.3 0
v 1.3 0.3 0.1
v -1.3 0.3 0.1
v -1.3 0.3 0
v 1.3 0.9 0
v 1.3 0.9 0.1
v -1.3 0.9 0.1
v -1.3 0.9 0
v 0.9 0 -0.2
v 0.7 0 -0.2
v -0.7 0 -0.2
v -0.9 0 -0.2
v 0.9 0.3 0
v 0.9 0.7 0
v 0.9 0.9 0
v 0.9 1.3 0
v -0.7 0.3 0
v -0.7 0.7 0
v 0.7 0.7 0
v 0.7 0.3 0
v -0.7 0.9 0
v -0.7 1.3 0
v 0.7 1.3 0
v 0.7 0.9 0
v -0.9 0.7 0
v -0.9 0.3 0
v -0.9 1.3 0
v -0.9 0.9 0
v 0.7 0.2 0
v -0.8 0.3 0

vt 0.00585938 0.5
vt 0.0371094 0.5
vt 0.0683594 0.5
vt 0.0839844 0.5

vn 0 1 0
vn 0 -1 0
vn -1 0 0
vn 1 0 0
vn 0 0 -1
vn 0 0 1

usemtl palette
f 1/1/1 2/1/1 4/1/1
f 4/1/1 2/1/1 3/1/1
f 5/1/1 6/1/1 8/1/1
f 8/1/1 6/1/1 7/1/1
f 9/1/1 10/1/1 12/1/1
f 12/1/1 10/1/1 11/1/1
f 13/1/1 14/1/1 16/1/1
f 16/1/1 14/1/1 15/1/1
f 17/1/1 18/1/1 20/1/1
f 20/1/1 18/1/1 19/1/1
f 21/1/1 22/1/1 24/1/1
f 24/1/1 22/1/1 23/1/1
f 25/1/1 26/1/1 28/1/1
f 28/1/1 26/1/1 27/1/1
f 29/1/1 30/1/1 32/1/1
f 32/1/1 30/1/1 31/1/1
f 33/1/1 34/1/1 36/1/1
f 36/1/1 34/1/1 35/1/1
f 37/1/1 38/1/1 40/1/1
f 40/1/1 38/1/1 39/1/1
f 41/1/1 42/1/1 44/1/1
f 44/1/1 42/1/1 43/1/1
f 45/1/1 46/1/1 48/1/1
f 48/1/1 46/1/1 47/1/1
f 49/3/1 50/3/1 52/3/1
f 52/3/1 50/3/1 51/3/1
f 53/3/1 54/3/1 56/3/1
f 56/3/1 54/3/1 55/3/1
f 57/3/1 58/3/1 60/3/1
f 60/3/1 58/3/1 59/3/1
f 61/3/1 62/3/1 64/3/1
f 64/3/1 62/3/1 63/3/1
f 65/3/1 66/3/1 68/3/1
f 68/3/1 66/3/1 67/3/1
f 69/3/1 70/3/1 72/3/1
f 72/3/1 70/3/1 71/3/1
f 73/4/1 74/4/1 76/4/1
f 76/4/1 74/4/1 75/4/1
f 77/4/1 78/4/1 80/4/1
f 80/4/1 78/4/1 79/4/1
f 81/2/1 82/2/1 84/2/1
f 84/2/1 82/2/1 83/2/1
f 85/2/1 86/2/1 88/2/1
f 88/2/1 86/2/1 87/2/1
f 89/3/2 90/3/2 92/3/2
f 92/3/2 90/3/2 91/3/2
f 93/3/2 94/3/2 96/3/2
f 96/3/2 94/3/2 95/3/2
f 97/1/2 98/1/2 100/1/2
f 100/1/2 98/1/2 99/1/2
f 101/1/2 89/1/2 103/1/2
f 103/1/2 89/1/2 102/1/2
f 104/1/2 92/1/2 106/1/2
f 106/1/2 92/1/2 105/1/2
f 107/3/2 108/3/2 110/3/2
f 110/3/2 108/3/2 109/3/2
f 111/1/2 96/1/2 113/1/2
f 113/1/2 96/1/2 112/1/2
f 114/3/2 101/3/2 115/3/2
f 115/3/2 101/3/2 103/3/2
f 116/3/2 117/3/2 119/3/2
f 119/3/2 117/3/2 118/3/2
f 120/1/2 121/1/2 123/1/2
f 123/1/2 121/1/2 122/1/2
f 124/1/2 114/1/2 125/1/2
f 125/1/2 114/1/2 115/1/2
f 126/1/2 127/1/2 129/1/2
f 129/1/2 127/1/2 128/1/2
f 130/3/2 131/3/2 133/3/2
f 133/3/2 131/3/2 132/3/2
f 134/1/2 135/1/2 137/1/2
f 137/1/2 135/1/2 136/1/2
f 138/3/2 124/3/2 139/3/2
f 139/3/2 124/3/2 125/3/2
f 140/3/2 141/3/2 143/3/2
f 143/3/2 141/3/2 142/3/2
f 144/1/2 145/1/2 147/1/2
f 147/1/2 145/1/2 146/1/2
f 148/1/2 138/1/2 149/1/2
f 149/1/2 138/1/2 139/1/2
f 150/1/2 151/1/2 153/1/2
f 153/1/2 151/1/2 152/1/2
f 154/3/2 155/3/2 157/3/2
f 157/3/2 155/3/2 156/3/2
f 158/1/2 159/1/2 161/1/2
f 161/1/2 159/1/2 160/1/2
f 162/3/2 148/3/2 163/3/2
f 163/3/2 148/3/2 149/3/2
f 164/3/2 165/3/2 167/3/2
f 167/3/2 165/3/2 166/3/2
f 168/1/2 169/1/2 171/1/2
f 171/1/2 169/1/2 170/1/2
f 172/1/2 162/1/2 173/1/2
f 173/1/2 162/1/2 163/1/2
f 174/1/2 175/1/2 177/1/2
f 177/1/2 175/1/2 176/1/2
f 178/3/2 179/3/2 181/3/2
f 181/3/2 179/3/2 180/3/2
f 182/1/2 183/1/2 185/1/2
f 185/1/2 183/1/2 184/1/2
f 186/3/2 187/3/2 188/3/2
f 188/3/2 187/3/2 90/3/2
f 188/3/2 172/3/2 189/3/2
f 189/3/2 172/3/2 173/3/2
f 189/3/2 102/3/2 190/3/2
f 190/3/2 102/3/2 92/3/2
f 191/3/2 192/3/2 193/3/2
f 193/3/2 192/3/2 94/3/2
f 193/3/2 194/3/2 196/3/2
f 196/3/2 194/3/2 195/3/2
f 196/3/2 197/3/2 198/3/2
f 198/3/2 197/3/2 96/3/2
f 199/4/2 200/4/2 202/4/2
f 202/4/2 200/4/2 201/4/2
f 203/4/2 204/4/2 206/4/2
f 206/4/2 204/4/2 205/4/2
f 207/2/2 188/2/2 208/2/2
f 208/2/2 188/2/2 190/2/2
f 209/2/2 191/2/2 210/2/2
f 210/2/2 191/2/2 196/2/2
f 59/3/3 8/3/3 91/3/3
f 91/3/3 8/3/3 92/3/3
f 71/3/3 12/3/3 95/3/3
f 95/3/3 12/3/3 96/3/3
f 108/3/3 107/3/3 93/3/3
f 93/3/3 107/3/3 117/3/3
f 11/1/3 10/1/3 112/1/3
f 112/1/3 10/1/3 113/1/3
f 5/3/3 20/3/3 104/3/3
f 104/3/3 20/3/3 127/3/3
f 9/3/3 24/3/3 111/3/3
f 111/3/3 24/3/3 135/3/3
f 131/3/3 130/3/3 116/3/3
f 116/3/3 130/3/3 141/3/3
f 23/1/3 22/1/3 136/1/3
f 136/1/3 22/1/3 137/1/3
f 17/3/3 32/3/3 126/3/3
f 126/3/3 32/3/3 151/3/3
f 21/3/3 36/3/3 134/3/3
f 134/3/3 36/3/3 159/3/3
f 155/3/3 154/3/3 140/3/3
f 140/3/3 154/3/3 165/3/3
f 35/1/3 34/1/3 160/1/3
f 160/1/3 34/1/3 161/1/3
f 29/3/3 44/3/3 150/3/3
f 150/3/3 44/3/3 175/3/3
f 33/3/3 48/3/3 158/3/3
f 158/3/3 48/3/3 183/3/3
f 179/3/3 178/3/3 164/3/3
f 164/3/3 178/3/3 194/3/3
f 47/1/3 46/1/3 184/1/3
f 184/1/3 46/1/3 185/1/3
f 41/3/3 58/3/3 174/3/3
f 174/3/3 58/3/3 190/3/3
f 45/3/3 70/3/3 182/3/3
f 182/3/3 70/3/3 198/3/3
f 55/3/3 54/3/3 60/3/3
f 60/3/3 54/3/3 57/3/3
f 67/3/3 66/3/3 72/3/3
f 72/3/3 66/3/3 69/3/3
f 75/4/3 74/4/3 201/4/3
f 201/4/3 74/4/3 202/4/3
f 79/4/3 78/4/3 205/4/3
f 205/4/3 78/4/3 206/4/3
f 83/2/3 82/2/3 190/2/3
f 190/2/3 82/2/3 208/2/3
f 87/2/3 86/2/3 196/2/3
f 196/2/3 86/2/3 210/2/3
f 52/3/4 187/3/4 3/3/4
f 3/3/4 187/3/4 99/3/4
f 64/3/4 192/3/4 7/3/4
f 7/3/4 192/3/4 105/3/4
f 4/1/4 98/1/4 1/1/4
f 1/1/4 98/1/4 97/1/4
f 109/3/4 197/3/4 110/3/4
f 110/3/4 197/3/4 118/3/4
f 2/3/4 100/3/4 15/3/4
f 15/3/4 100/3/4 122/3/4
f 6/3/4 106/3/4 19/3/4
f 19/3/4 106/3/4 128/3/4
f 16/1/4 121/1/4 13/1/4
f 13/1/4 121/1/4 120/1/4
f 132/3/4 119/3/4 133/3/4
f 133/3/4 119/3/4 142/3/4
f 14/3/4 123/3/4 27/3/4
f 27/3/4 123/3/4 146/3/4
f 18/3/4 129/3/4 31/3/4
f 31/3/4 129/3/4 152/3/4
f 28/1/4 145/1/4 25/1/4
f 25/1/4 145/1/4 144/1/4
f 156/3/4 143/3/4 157/3/4
f 157/3/4 143/3/4 166/3/4
f 26/3/4 147/3/4 39/3/4
f 39/3/4 147/3/4 170/3/4
f 30/3/4 153/3/4 43/3/4
f 43/3/4 153/3/4 176/3/4
f 40/1/4 169/1/4 37/1/4
f 37/1/4 169/1/4 168/1/4
f 180/3/4 167/3/4 181/3/4
f 181/3/4 167/3/4 195/3/4
f 38/3/4 171/3/4 49/3/4
f 49/3/4 171/3/4 186/3/4
f 42/3/4 177/3/4 61/3/4
f 61/3/4 177/3/4 191/3/4
f 56/3/4 51/3/4 53/3/4
f 53/3/4 51/3/4 50/3/4
f 68/3/4 63/3/4 65/3/4
f 65/3/4 63/3/4 62/3/4
f 76/4/4 200/4/4 73/4/4
f 73/4/4 200/4/4 199/4/4
f 80/4/4 204/4/4 77/4/4
f 77/4/4 204/4/4 203/4/4
f 84/2/4 188/2/4 81/2/4
f 81/2/4 188/2/4 207/2/4
f 88/2/4 191/2/4 85/2/4
f 85/2/4 191/2/4 209/2/4
f 100/1/5 2/1/5 97/1/5
f 97/1/5 2/1/5 1/1/5
f 123/1/5 14/1/5 120/1/5
f 120/1/5 14/1/5 13/1/5
f 147/1/5 26/1/5 144/1/5
f 144/1/5 26/1/5 25/1/5
f 171/1/5 38/1/5 168/1/5
f 168/1/5 38/1/5 37/1/5
f 188/3/5 50/3/5 186/3/5
f 186/3/5 50/3/5 49/3/5
f 211/4/5 212/4/5 199/4/5
f 199/4/5 212/4/5 73/4/5
f 213/4/5 214/4/5 203/4/5
f 203/4/5 214/4/5 77/4/5
f 208/2/5 82/2/5 207/2/5
f 207/2/5 82/2/5 81/2/5
f 106/1/5 6/1/5 104/1/5
f 104/1/5 6/1/5 5/1/5
f 129/1/5 18/1/5 126/1/5
f 126/1/5 18/1/5 17/1/5
f 153/1/5 30/1/5 150/1/5
f 150/1/5 30/1/5 29/1/5
f 177/1/5 42/1/5 174/1/5
f 174/1/5 42/1/5 41/1/5
f 215/4/5 216/4/5 218/4/5
f 218/4/5 216/4/5 217/4/5
f 219/4/5 220/4/5 222/4/5
f 222/4/5 220/4/5 221/4/5
f 197/3/5 109/3/5 93/3/5
f 93/3/5 109/3/5 108/3/5
f 119/3/5 132/3/5 116/3/5
f 116/3/5 132/3/5 131/3/5
f 143/3/5 156/3/5 140/3/5
f 140/3/5 156/3/5 155/3/5
f 167/3/5 180/3/5 164/3/5
f 164/3/5 180/3/5 179/3/5
f 210/2/5 86/2/5 209/2/5
f 209/2/5 86/2/5 85/2/5
f 198/3/5 70/3/5 196/3/5
f 196/3/5 70/3/5 69/3/5
f 202/4/5 74/4/5 224/4/5
f 224/4/5 74/4/5 223/4/5
f 206/4/5 78/4/5 226/4/5
f 226/4/5 78/4/5 225/4/5
f 113/1/5 10/1/5 111/1/5
f 111/1/5 10/1/5 9/1/5
f 137/1/5 22/1/5 134/1/5
f 134/1/5 22/1/5 21/1/5
f 161/1/5 34/1/5 158/1/5
f 158/1/5 34/1/5 33/1/5
f 185/1/5 46/1/5 182/1/5
f 182/1/5 46/1/5 45/1/5
f 99/1/6 98/1/6 3/1/6
f 3/1/6 98/1/6 4/1/6
f 122/1/6 121/1/6 15/1/6
f 15/1/6 121/1/6 16/1/6
f 146/1/6 145/1/6 27/1/6
f 27/1/6 145/1/6 28/1/6
f 170/1/6 169/1/6 39/1/6
f 39/1/6 169/1/6 40/1/6
f 60/3/6 51/3/6 55/3/6
f 55/3/6 51/3/6 56/3/6
f 91/3/6 187/3/6 59/3/6
f 59/3/6 187/3/6 52/3/6
f 58/2/6 57/2/6 227/2/6
f 227/2/6 57/2/6 54/2/6
f 227/2/6 53/2/6 218/2/6
f 218/2/6 53/2/6 211/2/6
f 217/2/6 212/2/6 222/2/6
f 222/2/6 212/2/6 213/2/6
f 221/2/6 214/2/6 83/2/6
f 83/2/6 214/2/6 84/2/6
f 105/1/6 92/1/6 7/1/6
f 7/1/6 92/1/6 8/1/6
f 128/1/6 127/1/6 19/1/6
f 19/1/6 127/1/6 20/1/6
f 152/1/6 151/1/6 31/1/6
f 31/1/6 151/1/6 32/1/6
f 176/1/6 175/1/6 43/1/6
f 43/1/6 175/1/6 44/1/6
f 62/2/6 61/2/6 228/2/6
f 228/2/6 61/2/6 215/2/6
f 118/3/6 117/3/6 110/3/6
f 110/3/6 117/3/6 107/3/6
f 142/3/6 141/3/6 133/3/6
f 133/3/6 141/3/6 130/3/6
f 166/3/6 165/3/6 157/3/6
f 157/3/6 165/3/6 154/3/6
f 195/3/6 194/3/6 181/3/6
f 181/3/6 194/3/6 178/3/6
f 72/3/6 63/3/6 67/3/6
f 67/3/6 63/3/6 68/3/6
f 66/2/6 65/2/6 224/2/6
f 224/2/6 65/2/6 228/2/6
f 223/2/6 216/2/6 226/2/6
f 226/2/6 216/2/6 219/2/6
f 225/2/6 220/2/6 87/2/6
f 87/2/6 220/2/6 88/2/6
f 95/3/6 192/3/6 71/3/6
f 71/3/6 192/3/6 64/3/6
f 201/4/6 200/4/6 75/4/6
f 75/4/6 200/4/6 76/4/6
f 205/4/6 204/4/6 79/4/6
f 79/4/6 204/4/6 80/4/6
f 112/1/6 96/1/6 11/1/6
f 11/1/6 96/1/6 12/1/6
f 136/1/6 135/1/6 23/1/6
f 23/1/6 135/1/6 24/1/6
f 160/1/6 159/1/6 35/1/6
f 35/1/6 159/1/6 36/1/6
f 184/1/6 183/1/6 47/1/6
f 47/1/6 183/1/6 48/1/6
