# Vengi binary mesh normalized for Tanks of Freedom II

mtllib ../../../materials/vox_grass.mtl
o railway_straight

v 1.4 0.1 3.3
v 1 0.1 3.3
v 1 0.1 3.7
v 1.4 0.1 3.7
v 0.7 0.1 3.3
v -0.7 0.1 3.3
v -0.7 0.1 3.7
v 0.7 0.1 3.7
v -1 0.1 3.3
v -1.4 0.1 3.3
v -1.4 0.1 3.7
v -1 0.1 3.7
v 1.4 0.1 2.3
v 1 0.1 2.3
v 1 0.1 2.7
v 1.4 0.1 2.7
v 0.7 0.1 2.3
v -0.7 0.1 2.3
v -0.7 0.1 2.7
v 0.7 0.1 2.7
v -1 0.1 2.3
v -1.4 0.1 2.3
v -1.4 0.1 2.7
v -1 0.1 2.7
v 1.4 0.1 1.3
v 1 0.1 1.3
v 1 0.1 1.7
v 1.4 0.1 1.7
v 0.7 0.1 1.3
v -0.7 0.1 1.3
v -0.7 0.1 1.7
v 0.7 0.1 1.7
v -1 0.1 1.3
v -1.4 0.1 1.3
v -1.4 0.1 1.7
v -1 0.1 1.7
v 1.4 0.1 0.3
v 1 0.1 0.3
v 1 0.1 0.7
v 1.4 0.1 0.7
v 0.7 0.1 0.3
v -0.7 0.1 0.3
v -0.7 0.1 0.7
v 0.7 0.1 0.7
v -1 0.1 0.3
v -1.4 0.1 0.3
v -1.4 0.1 0.7
v -1 0.1 0.7
v 1.4 0.1 -0.7
v 1 0.1 -0.7
v 1 0.1 -0.3
v 1.4 0.1 -0.3
v 0.7 0.1 -0.7
v -0.7 0.1 -0.7
v -0.7 0.1 -0.3
v 0.7 0.1 -0.3
v -1 0.1 -0.7
v -1.4 0.1 -0.7
v -1.4 0.1 -0.3
v -1 0.1 -0.3
v 1.4 0.1 -1.7
v 1 0.1 -1.7
v 1 0.1 -1.3
v 1.4 0.1 -1.3
v 0.7 0.1 -1.7
v -0.7 0.1 -1.7
v -0.7 0.1 -1.3
v 0.7 0.1 -1.3
v -1 0.1 -1.7
v -1.4 0.1 -1.7
v -1.4 0.1 -1.3
v -1 0.1 -1.3
v 1 0.1 -2.2
v 0.9 0.1 -2.2
v 0.9 0.1 4
v 1 0.1 4
v 0.9 0.2 -2.2
v 0.8 0.2 -2.2
v 0.8 0.2 4
v 0.9 0.2 4
v 0.8 0.1 -2.2
v 0.7 0.1 -2.2
v 0.7 0.1 4
v 0.8 0.1 4
v -0.7 0.1 -2.2
v -0.8 0.1 -2.2
v -0.8 0.1 4
v -0.7 0.1 4
v -0.8 0.2 -2.2
v -0.9 0.2 -2.2
v -0.9 0.2 4
v -0.8 0.2 4
v -0.9 0.1 -2.2
v -1 0.1 -2.2
v -1 0.1 4
v -0.9 0.1 4
v 0.9 0 3.7
v 0.9 0 4
v 0.7 0 4
v 0.7 0 3.7
v -0.8 0 3.7
v -0.8 0 4
v -1 0 4
v -1 0 3.7
v 1.4 0 3.3
v 1.4 0 3.7
v 1 0 3.7
v 1 0 3.3
v 0.9 0 3.3
v 0.8 0 3.7
v 0.8 0 3.3
v 0.7 0 3.3
v -0.7 0 3.7
v -0.7 0 3.3
v -0.8 0.1 3.3
v -0.8 0.1 3.7
v -0.9 0.1 3.7
v -0.9 0.1 3.3
v -1 0 3.3
v -1.4 0 3.7
v -1.4 0 3.3
v 0.9 0 2.7
v 0.8 0 2.7
v -0.8 0 2.7
v -0.8 0 3.3
v -0.9 0 3.3
v -0.9 0 2.7
v 1.4 0 2.3
v 1.4 0 2.7
v 1 0 2.7
v 1 0 2.3
v 0.9 0 2.3
v 0.8 0 2.3
v 0.7 0 2.3
v 0.7 0 2.7
v -0.7 0 2.7
v -0.7 0 2.3
v -0.8 0.1 2.3
v -0.8 0.1 2.7
v -0.9 0.1 2.7
v -0.9 0.1 2.3
v -1 0 2.3
v -1 0 2.7
v -1.4 0 2.7
v -1.4 0 2.3
v 0.9 0 1.7
v 0.8 0 1.7
v -0.8 0 1.7
v -0.8 0 2.3
v -0.9 0 2.3
v -0.9 0 1.7
v 1.4 0 1.3
v 1.4 0 1.7
v 1 0 1.7
v 1 0 1.3
v 0.9 0 1.3
v 0.8 0 1.3
v 0.7 0 1.3
v 0.7 0 1.7
v -0.7 0 1.7
v -0.7 0 1.3
v -0.8 0.1 1.3
v -0.8 0.1 1.7
v -0.9 0.1 1.7
v -0.9 0.1 1.3
v -1 0 1.3
v -1 0 1.7
v -1.4 0 1.7
v -1.4 0 1.3
v 0.9 0 0.7
v 0.8 0 0.7
v -0.8 0 0.7
v -0.8 0 1.3
v -0.9 0 1.3
v -0.9 0 0.7
v 1.4 0 0.3
v 1.4 0 0.7
v 1 0 0.7
v 1 0 0.3
v 0.9 0 0.3
v 0.8 0 0.3
v 0.7 0 0.3
v 0.7 0 0.7
v -0.7 0 0.7
v -0.7 0 0.3
v -0.8 0.1 0.3
v -0.8 0.1 0.7
v -0.9 0.1 0.7
v -0.9 0.1 0.3
v -1 0 0.3
v -1 0 0.7
v -1.4 0 0.7
v -1.4 0 0.3
v 0.9 0 -0.3
v 0.8 0 -0.3
v -0.8 0 -0.3
v -0.8 0 0.3
v -0.9 0 0.3
v -0.9 0 -0.3
v 1.4 0 -0.7
v 1.4 0 -0.3
v 1 0 -0.3
v 1 0 -0.7
v 0.9 0 -0.7
v 0.8 0 -0.7
v 0.7 0 -0.7
v 0.7 0 -0.3
v -0.7 0 -0.3
v -0.7 0 -0.7
v -0.8 0.1 -0.7
v -0.8 0.1 -0.3
v -0.9 0.1 -0.3
v -0.9 0.1 -0.7
v -1 0 -0.7
v -1 0 -0.3
v -1.4 0 -0.3
v -1.4 0 -0.7
v 0.9 0 -1.3
v 0.8 0 -1.3
v -0.8 0 -1.3
v -0.8 0 -0.7
v -0.9 0 -0.7
v -0.9 0 -1.3
v 1.4 0 -1.7
v 1.4 0 -1.3
v 1 0 -1.3
v 1 0 -1.7
v 0.9 0 -1.7
v 0.8 0 -1.7
v 0.7 0 -1.7
v 0.7 0 -1.3
v -0.7 0 -1.3
v -0.7 0 -1.7
v -0.8 0.1 -1.7
v -0.8 0.1 -1.3
v -0.9 0.1 -1.3
v -0.9 0.1 -1.7
v -1 0 -1.7
v -1 0 -1.3
v -1.4 0 -1.3
v -1.4 0 -1.7
v 1 0 -2.2
v 1 0 4
v 0.9 0 -2.2
v 0.8 0 -2.2
v 0.7 0 -2.2
v -0.7 0 -2.2
v -0.7 0 4
v -0.8 0 -2.2
v -0.8 0 -1.7
v -0.9 0 -1.7
v -0.9 0 -2.2
v -0.9 0 3.7
v -1 0 -2.2
v 1.4 0.1 -2.7
v 1 0.1 -2.7
v 1 0.1 -2.3
v 1.4 0.1 -2.3
v 0.7 0.1 -2.7
v -0.7 0.1 -2.7
v -0.7 0.1 -2.3
v 0.7 0.1 -2.3
v -1 0.1 -2.7
v -1.4 0.1 -2.7
v -1.4 0.1 -2.3
v -1 0.1 -2.3
v 1.4 0.1 -3.7
v 1 0.1 -3.7
v 1 0.1 -3.3
v 1.4 0.1 -3.3
v 0.7 0.1 -3.7
v -0.7 0.1 -3.7
v -0.7 0.1 -3.3
v 0.7 0.1 -3.3
v -1 0.1 -3.7
v -1.4 0.1 -3.7
v -1.4 0.1 -3.3
v -1 0.1 -3.3
v 1 0.1 -4
v 0.9 0.1 -4
v 0.9 0.2 -4
v 0.8 0.2 -4
v 0.8 0.1 -4
v 0.7 0.1 -4
v -0.7 0.1 -4
v -0.8 0.1 -4
v -0.8 0.2 -4
v -0.9 0.2 -4
v -0.9 0.1 -4
v -1 0.1 -4
v 0.9 0 -2.3
v 0.7 0 -2.3
v -0.8 0 -2.3
v -1 0 -2.3
v 1.4 0 -2.7
v 1.4 0 -2.3
v 1 0 -2.3
v 1 0 -2.7
v 0.9 0 -2.7
v 0.8 0 -2.3
v 0.8 0 -2.7
v 0.7 0 -2.7
v -0.7 0 -2.3
v -0.7 0 -2.7
v -0.8 0.1 -2.7
v -0.8 0.1 -2.3
v -0.9 0.1 -2.3
v -0.9 0.1 -2.7
v -1 0 -2.7
v -1.4 0 -2.3
v -1.4 0 -2.7
v 0.9 0 -3.3
v 0.8 0 -3.3
v -0.8 0 -3.3
v -0.8 0 -2.7
v -0.9 0 -2.7
v -0.9 0 -3.3
v 1.4 0 -3.7
v 1.4 0 -3.3
v 1 0 -3.3
v 1 0 -3.7
v 0.9 0 -3.7
v 0.8 0 -3.7
v 0.7 0 -3.7
v 0.7 0 -3.3
v -0.7 0 -3.3
v -0.7 0 -3.7
v -0.8 0.1 -3.7
v -0.8 0.1 -3.3
v -0.9 0.1 -3.3
v -0.9 0.1 -3.7
v -1 0 -3.7
v -1 0 -3.3
v -1.4 0 -3.3
v -1.4 0 -3.7
v 1 0 -4
v 0.9 0 -4
v 0.8 0 -4
v 0.7 0 -4
v -0.7 0 -4
v -0.8 0 -4
v -0.8 0 -3.7
v -0.9 0 -3.7
v -0.9 0 -4
v -0.9 0 -2.3
v -1 0 -4

vt 0.00585938 0.5
vt 0.0683594 0.5

vn 0 1 0
vn 0 -1 0
vn -1 0 0
vn 1 0 0
vn 0 0 -1
vn 0 0 1

usemtl palette
f 1/1/1 2/1/1 4/1/1
f 4/1/1 2/1/1 3/1/1
f 5/1/1 6/1/1 8/1/1
f 8/1/1 6/1/1 7/1/1
f 9/1/1 10/1/1 12/1/1
f 12/1/1 10/1/1 11/1/1
f 13/1/1 14/1/1 16/1/1
f 16/1/1 14/1/1 15/1/1
f 17/1/1 18/1/1 20/1/1
f 20/1/1 18/1/1 19/1/1
f 21/1/1 22/1/1 24/1/1
f 24/1/1 22/1/1 23/1/1
f 25/1/1 26/1/1 28/1/1
f 28/1/1 26/1/1 27/1/1
f 29/1/1 30/1/1 32/1/1
f 32/1/1 30/1/1 31/1/1
f 33/1/1 34/1/1 36/1/1
f 36/1/1 34/1/1 35/1/1
f 37/1/1 38/1/1 40/1/1
f 40/1/1 38/1/1 39/1/1
f 41/1/1 42/1/1 44/1/1
f 44/1/1 42/1/1 43/1/1
f 45/1/1 46/1/1 48/1/1
f 48/1/1 46/1/1 47/1/1
f 49/1/1 50/1/1 52/1/1
f 52/1/1 50/1/1 51/1/1
f 53/1/1 54/1/1 56/1/1
f 56/1/1 54/1/1 55/1/1
f 57/1/1 58/1/1 60/1/1
f 60/1/1 58/1/1 59/1/1
f 61/1/1 62/1/1 64/1/1
f 64/1/1 62/1/1 63/1/1
f 65/1/1 66/1/1 68/1/1
f 68/1/1 66/1/1 67/1/1
f 69/1/1 70/1/1 72/1/1
f 72/1/1 70/1/1 71/1/1
f 73/2/1 74/2/1 76/2/1
f 76/2/1 74/2/1 75/2/1
f 77/2/1 78/2/1 80/2/1
f 80/2/1 78/2/1 79/2/1
f 81/2/1 82/2/1 84/2/1
f 84/2/1 82/2/1 83/2/1
f 85/2/1 86/2/1 88/2/1
f 88/2/1 86/2/1 87/2/1
f 89/2/1 90/2/1 92/2/1
f 92/2/1 90/2/1 91/2/1
f 93/2/1 94/2/1 96/2/1
f 96/2/1 94/2/1 95/2/1
f 97/2/2 98/2/2 100/2/2
f 100/2/2 98/2/2 99/2/2
f 101/2/2 102/2/2 104/2/2
f 104/2/2 102/2/2 103/2/2
f 105/1/2 106/1/2 108/1/2
f 108/1/2 106/1/2 107/1/2
f 109/1/2 97/1/2 111/1/2
f 111/1/2 97/1/2 110/1/2
f 112/1/2 100/1/2 114/1/2
f 114/1/2 100/1/2 113/1/2
f 115/2/2 116/2/2 118/2/2
f 118/2/2 116/2/2 117/2/2
f 119/1/2 104/1/2 121/1/2
f 121/1/2 104/1/2 120/1/2
f 122/2/2 109/2/2 123/2/2
f 123/2/2 109/2/2 111/2/2
f 124/2/2 125/2/2 127/2/2
f 127/2/2 125/2/2 126/2/2
f 128/1/2 129/1/2 131/1/2
f 131/1/2 129/1/2 130/1/2
f 132/1/2 122/1/2 133/1/2
f 133/1/2 122/1/2 123/1/2
f 134/1/2 135/1/2 137/1/2
f 137/1/2 135/1/2 136/1/2
f 138/2/2 139/2/2 141/2/2
f 141/2/2 139/2/2 140/2/2
f 142/1/2 143/1/2 145/1/2
f 145/1/2 143/1/2 144/1/2
f 146/2/2 132/2/2 147/2/2
f 147/2/2 132/2/2 133/2/2
f 148/2/2 149/2/2 151/2/2
f 151/2/2 149/2/2 150/2/2
f 152/1/2 153/1/2 155/1/2
f 155/1/2 153/1/2 154/1/2
f 156/1/2 146/1/2 157/1/2
f 157/1/2 146/1/2 147/1/2
f 158/1/2 159/1/2 161/1/2
f 161/1/2 159/1/2 160/1/2
f 162/2/2 163/2/2 165/2/2
f 165/2/2 163/2/2 164/2/2
f 166/1/2 167/1/2 169/1/2
f 169/1/2 167/1/2 168/1/2
f 170/2/2 156/2/2 171/2/2
f 171/2/2 156/2/2 157/2/2
f 172/2/2 173/2/2 175/2/2
f 175/2/2 173/2/2 174/2/2
f 176/1/2 177/1/2 179/1/2
f 179/1/2 177/1/2 178/1/2
f 180/1/2 170/1/2 181/1/2
f 181/1/2 170/1/2 171/1/2
f 182/1/2 183/1/2 185/1/2
f 185/1/2 183/1/2 184/1/2
f 186/2/2 187/2/2 189/2/2
f 189/2/2 187/2/2 188/2/2
f 190/1/2 191/1/2 193/1/2
f 193/1/2 191/1/2 192/1/2
f 194/2/2 180/2/2 195/2/2
f 195/2/2 180/2/2 181/2/2
f 196/2/2 197/2/2 199/2/2
f 199/2/2 197/2/2 198/2/2
f 200/1/2 201/1/2 203/1/2
f 203/1/2 201/1/2 202/1/2
f 204/1/2 194/1/2 205/1/2
f 205/1/2 194/1/2 195/1/2
f 206/1/2 207/1/2 209/1/2
f 209/1/2 207/1/2 208/1/2
f 210/2/2 211/2/2 213/2/2
f 213/2/2 211/2/2 212/2/2
f 214/1/2 215/1/2 217/1/2
f 217/1/2 215/1/2 216/1/2
f 218/2/2 204/2/2 219/2/2
f 219/2/2 204/2/2 205/2/2
f 220/2/2 221/2/2 223/2/2
f 223/2/2 221/2/2 222/2/2
f 224/1/2 225/1/2 227/1/2
f 227/1/2 225/1/2 226/1/2
f 228/1/2 218/1/2 229/1/2
f 229/1/2 218/1/2 219/1/2
f 230/1/2 231/1/2 233/1/2
f 233/1/2 231/1/2 232/1/2
f 234/2/2 235/2/2 237/2/2
f 237/2/2 235/2/2 236/2/2
f 238/1/2 239/1/2 241/1/2
f 241/1/2 239/1/2 240/1/2
f 242/2/2 243/2/2 244/2/2
f 244/2/2 243/2/2 98/2/2
f 244/2/2 228/2/2 245/2/2
f 245/2/2 228/2/2 229/2/2
f 245/2/2 110/2/2 246/2/2
f 246/2/2 110/2/2 100/2/2
f 247/2/2 248/2/2 249/2/2
f 249/2/2 248/2/2 102/2/2
f 249/2/2 250/2/2 252/2/2
f 252/2/2 250/2/2 251/2/2
f 252/2/2 253/2/2 254/2/2
f 254/2/2 253/2/2 104/2/2
f 83/2/3 8/2/3 99/2/3
f 99/2/3 8/2/3 100/2/3
f 95/2/3 12/2/3 103/2/3
f 103/2/3 12/2/3 104/2/3
f 116/2/3 115/2/3 101/2/3
f 101/2/3 115/2/3 125/2/3
f 11/1/3 10/1/3 120/1/3
f 120/1/3 10/1/3 121/1/3
f 5/2/3 20/2/3 112/2/3
f 112/2/3 20/2/3 135/2/3
f 9/2/3 24/2/3 119/2/3
f 119/2/3 24/2/3 143/2/3
f 139/2/3 138/2/3 124/2/3
f 124/2/3 138/2/3 149/2/3
f 23/1/3 22/1/3 144/1/3
f 144/1/3 22/1/3 145/1/3
f 17/2/3 32/2/3 134/2/3
f 134/2/3 32/2/3 159/2/3
f 21/2/3 36/2/3 142/2/3
f 142/2/3 36/2/3 167/2/3
f 163/2/3 162/2/3 148/2/3
f 148/2/3 162/2/3 173/2/3
f 35/1/3 34/1/3 168/1/3
f 168/1/3 34/1/3 169/1/3
f 29/2/3 44/2/3 158/2/3
f 158/2/3 44/2/3 183/2/3
f 33/2/3 48/2/3 166/2/3
f 166/2/3 48/2/3 191/2/3
f 187/2/3 186/2/3 172/2/3
f 172/2/3 186/2/3 197/2/3
f 47/1/3 46/1/3 192/1/3
f 192/1/3 46/1/3 193/1/3
f 41/2/3 56/2/3 182/2/3
f 182/2/3 56/2/3 207/2/3
f 45/2/3 60/2/3 190/2/3
f 190/2/3 60/2/3 215/2/3
f 211/2/3 210/2/3 196/2/3
f 196/2/3 210/2/3 221/2/3
f 59/1/3 58/1/3 216/1/3
f 216/1/3 58/1/3 217/1/3
f 53/2/3 68/2/3 206/2/3
f 206/2/3 68/2/3 231/2/3
f 57/2/3 72/2/3 214/2/3
f 214/2/3 72/2/3 239/2/3
f 235/2/3 234/2/3 220/2/3
f 220/2/3 234/2/3 250/2/3
f 71/1/3 70/1/3 240/1/3
f 240/1/3 70/1/3 241/1/3
f 65/2/3 82/2/3 230/2/3
f 230/2/3 82/2/3 246/2/3
f 69/2/3 94/2/3 238/2/3
f 238/2/3 94/2/3 254/2/3
f 79/2/3 78/2/3 84/2/3
f 84/2/3 78/2/3 81/2/3
f 91/2/3 90/2/3 96/2/3
f 96/2/3 90/2/3 93/2/3
f 76/2/4 243/2/4 3/2/4
f 3/2/4 243/2/4 107/2/4
f 88/2/4 248/2/4 7/2/4
f 7/2/4 248/2/4 113/2/4
f 4/1/4 106/1/4 1/1/4
f 1/1/4 106/1/4 105/1/4
f 117/2/4 253/2/4 118/2/4
f 118/2/4 253/2/4 126/2/4
f 2/2/4 108/2/4 15/2/4
f 15/2/4 108/2/4 130/2/4
f 6/2/4 114/2/4 19/2/4
f 19/2/4 114/2/4 136/2/4
f 16/1/4 129/1/4 13/1/4
f 13/1/4 129/1/4 128/1/4
f 140/2/4 127/2/4 141/2/4
f 141/2/4 127/2/4 150/2/4
f 14/2/4 131/2/4 27/2/4
f 27/2/4 131/2/4 154/2/4
f 18/2/4 137/2/4 31/2/4
f 31/2/4 137/2/4 160/2/4
f 28/1/4 153/1/4 25/1/4
f 25/1/4 153/1/4 152/1/4
f 164/2/4 151/2/4 165/2/4
f 165/2/4 151/2/4 174/2/4
f 26/2/4 155/2/4 39/2/4
f 39/2/4 155/2/4 178/2/4
f 30/2/4 161/2/4 43/2/4
f 43/2/4 161/2/4 184/2/4
f 40/1/4 177/1/4 37/1/4
f 37/1/4 177/1/4 176/1/4
f 188/2/4 175/2/4 189/2/4
f 189/2/4 175/2/4 198/2/4
f 38/2/4 179/2/4 51/2/4
f 51/2/4 179/2/4 202/2/4
f 42/2/4 185/2/4 55/2/4
f 55/2/4 185/2/4 208/2/4
f 52/1/4 201/1/4 49/1/4
f 49/1/4 201/1/4 200/1/4
f 212/2/4 199/2/4 213/2/4
f 213/2/4 199/2/4 222/2/4
f 50/2/4 203/2/4 63/2/4
f 63/2/4 203/2/4 226/2/4
f 54/2/4 209/2/4 67/2/4
f 67/2/4 209/2/4 232/2/4
f 64/1/4 225/1/4 61/1/4
f 61/1/4 225/1/4 224/1/4
f 236/2/4 223/2/4 237/2/4
f 237/2/4 223/2/4 251/2/4
f 62/2/4 227/2/4 73/2/4
f 73/2/4 227/2/4 242/2/4
f 66/2/4 233/2/4 85/2/4
f 85/2/4 233/2/4 247/2/4
f 80/2/4 75/2/4 77/2/4
f 77/2/4 75/2/4 74/2/4
f 92/2/4 87/2/4 89/2/4
f 89/2/4 87/2/4 86/2/4
f 108/1/5 2/1/5 105/1/5
f 105/1/5 2/1/5 1/1/5
f 131/1/5 14/1/5 128/1/5
f 128/1/5 14/1/5 13/1/5
f 155/1/5 26/1/5 152/1/5
f 152/1/5 26/1/5 25/1/5
f 179/1/5 38/1/5 176/1/5
f 176/1/5 38/1/5 37/1/5
f 203/1/5 50/1/5 200/1/5
f 200/1/5 50/1/5 49/1/5
f 227/1/5 62/1/5 224/1/5
f 224/1/5 62/1/5 61/1/5
f 114/1/5 6/1/5 112/1/5
f 112/1/5 6/1/5 5/1/5
f 137/1/5 18/1/5 134/1/5
f 134/1/5 18/1/5 17/1/5
f 161/1/5 30/1/5 158/1/5
f 158/1/5 30/1/5 29/1/5
f 185/1/5 42/1/5 182/1/5
f 182/1/5 42/1/5 41/1/5
f 209/1/5 54/1/5 206/1/5
f 206/1/5 54/1/5 53/1/5
f 233/1/5 66/1/5 230/1/5
f 230/1/5 66/1/5 65/1/5
f 253/2/5 117/2/5 101/2/5
f 101/2/5 117/2/5 116/2/5
f 127/2/5 140/2/5 124/2/5
f 124/2/5 140/2/5 139/2/5
f 151/2/5 164/2/5 148/2/5
f 148/2/5 164/2/5 163/2/5
f 175/2/5 188/2/5 172/2/5
f 172/2/5 188/2/5 187/2/5
f 199/2/5 212/2/5 196/2/5
f 196/2/5 212/2/5 211/2/5
f 223/2/5 236/2/5 220/2/5
f 220/2/5 236/2/5 235/2/5
f 121/1/5 10/1/5 119/1/5
f 119/1/5 10/1/5 9/1/5
f 145/1/5 22/1/5 142/1/5
f 142/1/5 22/1/5 21/1/5
f 169/1/5 34/1/5 166/1/5
f 166/1/5 34/1/5 33/1/5
f 193/1/5 46/1/5 190/1/5
f 190/1/5 46/1/5 45/1/5
f 217/1/5 58/1/5 214/1/5
f 214/1/5 58/1/5 57/1/5
f 241/1/5 70/1/5 238/1/5
f 238/1/5 70/1/5 69/1/5
f 107/1/6 106/1/6 3/1/6
f 3/1/6 106/1/6 4/1/6
f 130/1/6 129/1/6 15/1/6
f 15/1/6 129/1/6 16/1/6
f 154/1/6 153/1/6 27/1/6
f 27/1/6 153/1/6 28/1/6
f 178/1/6 177/1/6 39/1/6
f 39/1/6 177/1/6 40/1/6
f 202/1/6 201/1/6 51/1/6
f 51/1/6 201/1/6 52/1/6
f 226/1/6 225/1/6 63/1/6
f 63/1/6 225/1/6 64/1/6
f 84/2/6 75/2/6 79/2/6
f 79/2/6 75/2/6 80/2/6
f 99/2/6 243/2/6 83/2/6
f 83/2/6 243/2/6 76/2/6
f 113/1/6 100/1/6 7/1/6
f 7/1/6 100/1/6 8/1/6
f 136/1/6 135/1/6 19/1/6
f 19/1/6 135/1/6 20/1/6
f 160/1/6 159/1/6 31/1/6
f 31/1/6 159/1/6 32/1/6
f 184/1/6 183/1/6 43/1/6
f 43/1/6 183/1/6 44/1/6
f 208/1/6 207/1/6 55/1/6
f 55/1/6 207/1/6 56/1/6
f 232/1/6 231/1/6 67/1/6
f 67/1/6 231/1/6 68/1/6
f 126/2/6 125/2/6 118/2/6
f 118/2/6 125/2/6 115/2/6
f 150/2/6 149/2/6 141/2/6
f 141/2/6 149/2/6 138/2/6
f 174/2/6 173/2/6 165/2/6
f 165/2/6 173/2/6 162/2/6
f 198/2/6 197/2/6 189/2/6
f 189/2/6 197/2/6 186/2/6
f 222/2/6 221/2/6 213/2/6
f 213/2/6 221/2/6 210/2/6
f 251/2/6 250/2/6 237/2/6
f 237/2/6 250/2/6 234/2/6
f 96/2/6 87/2/6 91/2/6
f 91/2/6 87/2/6 92/2/6
f 103/2/6 248/2/6 95/2/6
f 95/2/6 248/2/6 88/2/6
f 120/1/6 104/1/6 11/1/6
f 11/1/6 104/1/6 12/1/6
f 144/1/6 143/1/6 23/1/6
f 23/1/6 143/1/6 24/1/6
f 168/1/6 167/1/6 35/1/6
f 35/1/6 167/1/6 36/1/6
f 192/1/6 191/1/6 47/1/6
f 47/1/6 191/1/6 48/1/6
f 216/1/6 215/1/6 59/1/6
f 59/1/6 215/1/6 60/1/6
f 240/1/6 239/1/6 71/1/6
f 71/1/6 239/1/6 72/1/6
f 255/1/1 256/1/1 258/1/1
f 258/1/1 256/1/1 257/1/1
f 259/1/1 260/1/1 262/1/1
f 262/1/1 260/1/1 261/1/1
f 263/1/1 264/1/1 266/1/1
f 266/1/1 264/1/1 265/1/1
f 267/1/1 268/1/1 270/1/1
f 270/1/1 268/1/1 269/1/1
f 271/1/1 272/1/1 274/1/1
f 274/1/1 272/1/1 273/1/1
f 275/1/1 276/1/1 278/1/1
f 278/1/1 276/1/1 277/1/1
f 279/2/1 280/2/1 73/2/1
f 73/2/1 280/2/1 74/2/1
f 281/2/1 282/2/1 77/2/1
f 77/2/1 282/2/1 78/2/1
f 283/2/1 284/2/1 81/2/1
f 81/2/1 284/2/1 82/2/1
f 285/2/1 286/2/1 85/2/1
f 85/2/1 286/2/1 86/2/1
f 287/2/1 288/2/1 89/2/1
f 89/2/1 288/2/1 90/2/1
f 289/2/1 290/2/1 93/2/1
f 93/2/1 290/2/1 94/2/1
f 291/2/2 244/2/2 292/2/2
f 292/2/2 244/2/2 246/2/2
f 293/2/2 249/2/2 294/2/2
f 294/2/2 249/2/2 254/2/2
f 295/1/2 296/1/2 298/1/2
f 298/1/2 296/1/2 297/1/2
f 299/1/2 291/1/2 301/1/2
f 301/1/2 291/1/2 300/1/2
f 302/1/2 292/1/2 304/1/2
f 304/1/2 292/1/2 303/1/2
f 305/2/2 306/2/2 308/2/2
f 308/2/2 306/2/2 307/2/2
f 309/1/2 294/1/2 311/1/2
f 311/1/2 294/1/2 310/1/2
f 312/2/2 299/2/2 313/2/2
f 313/2/2 299/2/2 301/2/2
f 314/2/2 315/2/2 317/2/2
f 317/2/2 315/2/2 316/2/2
f 318/1/2 319/1/2 321/1/2
f 321/1/2 319/1/2 320/1/2
f 322/1/2 312/1/2 323/1/2
f 323/1/2 312/1/2 313/1/2
f 324/1/2 325/1/2 327/1/2
f 327/1/2 325/1/2 326/1/2
f 328/2/2 329/2/2 331/2/2
f 331/2/2 329/2/2 330/2/2
f 332/1/2 333/1/2 335/1/2
f 335/1/2 333/1/2 334/1/2
f 336/2/2 242/2/2 337/2/2
f 337/2/2 242/2/2 244/2/2
f 337/2/2 322/2/2 338/2/2
f 338/2/2 322/2/2 323/2/2
f 338/2/2 300/2/2 339/2/2
f 339/2/2 300/2/2 292/2/2
f 340/2/2 247/2/2 341/2/2
f 341/2/2 247/2/2 249/2/2
f 341/2/2 342/2/2 344/2/2
f 344/2/2 342/2/2 343/2/2
f 344/2/2 345/2/2 346/2/2
f 346/2/2 345/2/2 294/2/2
f 82/2/3 262/2/3 246/2/3
f 246/2/3 262/2/3 292/2/3
f 94/2/3 266/2/3 254/2/3
f 254/2/3 266/2/3 294/2/3
f 306/2/3 305/2/3 293/2/3
f 293/2/3 305/2/3 315/2/3
f 265/1/3 264/1/3 310/1/3
f 310/1/3 264/1/3 311/1/3
f 259/2/3 274/2/3 302/2/3
f 302/2/3 274/2/3 325/2/3
f 263/2/3 278/2/3 309/2/3
f 309/2/3 278/2/3 333/2/3
f 329/2/3 328/2/3 314/2/3
f 314/2/3 328/2/3 342/2/3
f 277/1/3 276/1/3 334/1/3
f 334/1/3 276/1/3 335/1/3
f 271/2/3 284/2/3 324/2/3
f 324/2/3 284/2/3 339/2/3
f 275/2/3 290/2/3 332/2/3
f 332/2/3 290/2/3 346/2/3
f 78/2/3 282/2/3 81/2/3
f 81/2/3 282/2/3 283/2/3
f 90/2/3 288/2/3 93/2/3
f 93/2/3 288/2/3 289/2/3
f 73/2/4 242/2/4 257/2/4
f 257/2/4 242/2/4 297/2/4
f 85/2/4 247/2/4 261/2/4
f 261/2/4 247/2/4 303/2/4
f 258/1/4 296/1/4 255/1/4
f 255/1/4 296/1/4 295/1/4
f 307/2/4 345/2/4 308/2/4
f 308/2/4 345/2/4 316/2/4
f 256/2/4 298/2/4 269/2/4
f 269/2/4 298/2/4 320/2/4
f 260/2/4 304/2/4 273/2/4
f 273/2/4 304/2/4 326/2/4
f 270/1/4 319/1/4 267/1/4
f 267/1/4 319/1/4 318/1/4
f 330/2/4 317/2/4 331/2/4
f 331/2/4 317/2/4 343/2/4
f 268/2/4 321/2/4 279/2/4
f 279/2/4 321/2/4 336/2/4
f 272/2/4 327/2/4 285/2/4
f 285/2/4 327/2/4 340/2/4
f 77/2/4 74/2/4 281/2/4
f 281/2/4 74/2/4 280/2/4
f 89/2/4 86/2/4 287/2/4
f 287/2/4 86/2/4 286/2/4
f 298/1/5 256/1/5 295/1/5
f 295/1/5 256/1/5 255/1/5
f 321/1/5 268/1/5 318/1/5
f 318/1/5 268/1/5 267/1/5
f 283/2/5 282/2/5 280/2/5
f 280/2/5 282/2/5 281/2/5
f 339/2/5 284/2/5 336/2/5
f 336/2/5 284/2/5 279/2/5
f 304/1/5 260/1/5 302/1/5
f 302/1/5 260/1/5 259/1/5
f 327/1/5 272/1/5 324/1/5
f 324/1/5 272/1/5 271/1/5
f 345/2/5 307/2/5 293/2/5
f 293/2/5 307/2/5 306/2/5
f 317/2/5 330/2/5 314/2/5
f 314/2/5 330/2/5 329/2/5
f 289/2/5 288/2/5 286/2/5
f 286/2/5 288/2/5 287/2/5
f 346/2/5 290/2/5 340/2/5
f 340/2/5 290/2/5 285/2/5
f 311/1/5 264/1/5 309/1/5
f 309/1/5 264/1/5 263/1/5
f 335/1/5 276/1/5 332/1/5
f 332/1/5 276/1/5 275/1/5
f 297/1/6 296/1/6 257/1/6
f 257/1/6 296/1/6 258/1/6
f 320/1/6 319/1/6 269/1/6
f 269/1/6 319/1/6 270/1/6
f 303/1/6 292/1/6 261/1/6
f 261/1/6 292/1/6 262/1/6
f 326/1/6 325/1/6 273/1/6
f 273/1/6 325/1/6 274/1/6
f 316/2/6 315/2/6 308/2/6
f 308/2/6 315/2/6 305/2/6
f 343/2/6 342/2/6 331/2/6
f 331/2/6 342/2/6 328/2/6
f 310/1/6 294/1/6 265/1/6
f 265/1/6 294/1/6 266/1/6
f 334/1/6 333/1/6 277/1/6
f 277/1/6 333/1/6 278/1/6
