# Vengi binary mesh normalized for Tanks of Freedom II

mtllib ../../../materials/vox_grass.mtl
o railway_turn

v 1.4 0.1 3.3
v 1 0.1 3.3
v 1 0.1 3.7
v 1.4 0.1 3.7
v 0.7 0.1 3.3
v -0.7 0.1 3.3
v -0.7 0.1 3.7
v 0.7 0.1 3.7
v -1 0.1 3.3
v -1.4 0.1 3.3
v -1.4 0.1 3.7
v -1 0.1 3.7
v 1.4 0.1 2.3
v 1 0.1 2.3
v 1 0.1 2.7
v 1.4 0.1 2.7
v 0.7 0.1 2.3
v -0.7 0.1 2.3
v -0.7 0.1 2.7
v 0.7 0.1 2.7
v -1 0.1 2.3
v -1.4 0.1 2.3
v -1.4 0.1 2.7
v -1 0.1 2.7
v 1 0.1 2.1
v 0.9 0.1 2.1
v 0.9 0.1 4
v 1 0.1 4
v 0.9 0.2 2.1
v 0.8 0.2 2.1
v 0.8 0.2 4
v 0.9 0.2 4
v 0.8 0.1 2.1
v 0.7 0.1 2.1
v 0.7 0.1 4
v 0.8 0.1 4
v 1.1 0.1 1.8
v 1 0.1 1.8
v 1.1 0.1 2.1
v 1 0.2 1.8
v 0.9 0.2 1.8
v 1 0.2 2.1
v 0.9 0.1 1.8
v 0.8 0.1 1.8
v 1.2 0.1 1.6
v 1.1 0.1 1.6
v 1.2 0.1 1.8
v 1.1 0.2 1.6
v 1 0.2 1.6
v 1.1 0.2 1.8
v 1 0.1 1.6
v 0.9 0.1 1.6
v -0.7 0.1 1.6
v -0.8 0.1 1.6
v -0.8 0.1 4
v -0.7 0.1 4
v -0.8 0.2 1.6
v -0.9 0.2 1.6
v -0.9 0.2 4
v -0.8 0.2 4
v -0.9 0.1 1.6
v -1 0.1 1.6
v -1 0.1 4
v -0.9 0.1 4
v 1.3 0.1 1.4
v 1.2 0.1 1.4
v 1.3 0.1 1.6
v 1.2 0.2 1.4
v 1.1 0.2 1.4
v 1.2 0.2 1.6
v 1.1 0.1 1.4
v 1 0.1 1.4
v 1.4 0.1 1.3
v 1.3 0.1 1.3
v 1.4 0.1 1.4
v 1.3 0.2 1.3
v 1.2 0.2 1.3
v 1.3 0.2 1.4
v 1.2 0.1 1.3
v 1.1 0.1 1.3
v 1.6 0.1 1.2
v 1.4 0.1 1.2
v 1.6 0.1 1.3
v 1.4 0.2 1.2
v 1.3 0.2 1.2
v 1.4 0.2 1.3
v 1.3 0.1 1.2
v 1.2 0.1 1.2
v -0.6 0.1 1.2
v -0.7 0.1 1.2
v -0.6 0.1 1.6
v -0.7 0.2 1.2
v -0.8 0.2 1.2
v -0.7 0.2 1.6
v -0.8 0.1 1.2
v -0.9 0.1 1.2
v 1.8 0.1 1.1
v 1.6 0.1 1.1
v 1.8 0.1 1.2
v 1.6 0.2 1.1
v 1.4 0.2 1.1
v 1.6 0.2 1.2
v 1.4 0.1 1.1
v 1.3 0.1 1.1
v 3.7 0.1 1
v 3.3 0.1 1
v 3.3 0.1 1.4
v 3.7 0.1 1.4
v 2.7 0.1 1
v 2.3 0.1 1
v 2.3 0.1 1.4
v 2.7 0.1 1.4
v 2.1 0.1 1
v 1.8 0.1 1
v 2.1 0.1 1.1
v 1.8 0.2 1
v 1.6 0.2 1
v 1.8 0.2 1.1
v 1.6 0.1 1
v 1.4 0.1 1
v 4 0.1 0.9
v 2.1 0.1 0.9
v 4 0.1 1
v 2.1 0.2 0.9
v 1.8 0.2 0.9
v 2.1 0.2 1
v 1.8 0.1 0.9
v 1.6 0.1 0.9
v 4 0.2 0.8
v 2.1 0.2 0.8
v 4 0.2 0.9
v 2.1 0.1 0.8
v 1.8 0.1 0.8
v -0.5 0.1 0.8
v -0.6 0.1 0.8
v -0.5 0.1 1.2
v -0.6 0.2 0.8
v -0.7 0.2 0.8
v -0.6 0.2 1.2
v -0.7 0.1 0.8
v -0.8 0.1 0.8
v 4 0.1 0.7
v 2.1 0.1 0.7
v 4 0.1 0.8
v -0.4 0.1 0.5
v -0.5 0.1 0.5
v -0.4 0.1 0.8
v -0.5 0.2 0.5
v -0.6 0.2 0.5
v -0.5 0.2 0.8
v -0.6 0.1 0.5
v -0.7 0.1 0.5
v -0.3 0.1 0.3
v -0.4 0.1 0.3
v -0.3 0.1 0.5
v -0.4 0.2 0.3
v -0.5 0.2 0.3
v -0.4 0.2 0.5
v -0.5 0.1 0.3
v -0.6 0.1 0.3
v -0.2 0.1 0.1
v -0.3 0.1 0.1
v -0.2 0.1 0.3
v -0.3 0.2 0.1
v -0.4 0.2 0.1
v -0.3 0.2 0.3
v -0.4 0.1 0.1
v -0.5 0.1 0.1
v -0.1 0.1 0
v -0.2 0.1 0
v -0.1 0.1 0.1
v -0.2 0.2 0
v -0.3 0.2 0
v -0.2 0.2 0.1
v -0.3 0.1 0
v -0.4 0.1 0
v 0 0.1 -0.1
v -0.1 0.1 -0.1
v 0 0.1 0
v -0.1 0.2 -0.1
v -0.2 0.2 -0.1
v -0.1 0.2 0
v -0.2 0.1 -0.1
v -0.3 0.1 -0.1
v 0.1 0.1 -0.2
v 0 0.1 -0.2
v 0.1 0.1 -0.1
v 0 0.2 -0.2
v -0.1 0.2 -0.2
v 0 0.2 -0.1
v -0.1 0.1 -0.2
v -0.2 0.1 -0.2
v 0.3 0.1 -0.3
v 0.1 0.1 -0.3
v 0.3 0.1 -0.2
v 0.1 0.2 -0.3
v 0 0.2 -0.3
v 0.1 0.2 -0.2
v 0 0.1 -0.3
v -0.1 0.1 -0.3
v 0.5 0.1 -0.4
v 0.3 0.1 -0.4
v 0.5 0.1 -0.3
v 0.3 0.2 -0.4
v 0.1 0.2 -0.4
v 0.3 0.2 -0.3
v 0.1 0.1 -0.4
v 0 0.1 -0.4
v 0.8 0.1 -0.5
v 0.5 0.1 -0.5
v 0.8 0.1 -0.4
v 0.5 0.2 -0.5
v 0.3 0.2 -0.5
v 0.5 0.2 -0.4
v 0.3 0.1 -0.5
v 0.1 0.1 -0.5
v 1.2 0.1 -0.6
v 0.8 0.1 -0.6
v 1.2 0.1 -0.5
v 0.8 0.2 -0.6
v 0.5 0.2 -0.6
v 0.8 0.2 -0.5
v 0.5 0.1 -0.6
v 0.3 0.1 -0.6
v 3.7 0.1 -0.7
v 3.3 0.1 -0.7
v 3.3 0.1 0.7
v 3.7 0.1 0.7
v 2.7 0.1 -0.7
v 2.3 0.1 -0.7
v 2.3 0.1 0.7
v 2.7 0.1 0.7
v 1.6 0.1 -0.7
v 1.2 0.1 -0.7
v 1.6 0.1 -0.6
v 1.2 0.2 -0.7
v 0.8 0.2 -0.7
v 1.2 0.2 -0.6
v 0.8 0.1 -0.7
v 0.5 0.1 -0.7
v 4 0.1 -0.8
v 1.6 0.1 -0.8
v 4 0.1 -0.7
v 1.6 0.2 -0.8
v 1.2 0.2 -0.8
v 1.6 0.2 -0.7
v 1.2 0.1 -0.8
v 0.8 0.1 -0.8
v 4 0.2 -0.9
v 1.6 0.2 -0.9
v 4 0.2 -0.8
v 1.6 0.1 -0.9
v 1.2 0.1 -0.9
v 4 0.1 -1
v 1.6 0.1 -1
v 4 0.1 -0.9
v 3.7 0.1 -1.4
v 3.3 0.1 -1.4
v 3.3 0.1 -1
v 3.7 0.1 -1
v 2.7 0.1 -1.4
v 2.3 0.1 -1.4
v 2.3 0.1 -1
v 2.7 0.1 -1
v 0.9 0 3.7
v 0.9 0 4
v 0.7 0 4
v 0.7 0 3.7
v -0.8 0 3.7
v -0.8 0 4
v -1 0 4
v -1 0 3.7
v 1.4 0 3.3
v 1.4 0 3.7
v 1 0 3.7
v 1 0 3.3
v 0.9 0 3.3
v 0.8 0 3.7
v 0.8 0 3.3
v 0.7 0 3.3
v -0.7 0 3.7
v -0.7 0 3.3
v -0.8 0.1 3.3
v -0.8 0.1 3.7
v -0.9 0.1 3.7
v -0.9 0.1 3.3
v -1 0 3.3
v -1.4 0 3.7
v -1.4 0 3.3
v 0.9 0 2.7
v 0.8 0 2.7
v -0.8 0 2.7
v -0.8 0 3.3
v -0.9 0 3.3
v -0.9 0 2.7
v 1.4 0 2.3
v 1.4 0 2.7
v 1 0 2.7
v 1 0 2.3
v 0.9 0 2.3
v 0.8 0 2.3
v 0.7 0 2.3
v 0.7 0 2.7
v -0.7 0 2.7
v -0.7 0 2.3
v -0.8 0.1 2.3
v -0.8 0.1 2.7
v -0.9 0.1 2.7
v -0.9 0.1 2.3
v -1 0 2.3
v -1 0 2.7
v -1.4 0 2.7
v -1.4 0 2.3
v 0.8 0 2.1
v 0.7 0 2.1
v 0.9 0 1.8
v 0.8 0 1.8
v 1 0 1.6
v 1 0 4
v 0.9 0 1.6
v -0.9 0 1.6
v -0.9 0 3.7
v -1 0 1.6
v 1.1 0 1.4
v 1.1 0 2.1
v 1 0 2.1
v 1 0 1.4
v 1.2 0 1.3
v 1.2 0 1.8
v 1.1 0 1.8
v 1.1 0 1.3
v 1.3 0 1.2
v 1.3 0 1.6
v 1.2 0 1.6
v 1.2 0 1.2
v -0.8 0 1.2
v -0.8 0 2.3
v -0.9 0 2.3
v -0.9 0 1.2
v 1.4 0 1.1
v 1.4 0 1.4
v 1.3 0 1.4
v 1.3 0 1.1
v 3.7 0 1
v 3.7 0 1.4
v 3.3 0 1.4
v 3.3 0 1
v 2.7 0 1
v 2.7 0 1.4
v 2.3 0 1.4
v 2.3 0 1
v 1.6 0 1
v 1.6 0 1.3
v 1.4 0 1.3
v 1.4 0 1
v 3.7 0 0.9
v 2.1 0 1
v 2.1 0 0.9
v 1.8 0 0.9
v 1.8 0 1.2
v 1.6 0 1.2
v 1.6 0 0.9
v 3.7 0.1 0.8
v 3.7 0.1 0.9
v 3.3 0.1 0.9
v 3.3 0.1 0.8
v 2.7 0.1 0.8
v 2.7 0.1 0.9
v 2.3 0.1 0.9
v 2.3 0.1 0.8
v 2.1 0 0.8
v 2.1 0 1.1
v 1.8 0 1.1
v 1.8 0 0.8
v -0.7 0 0.8
v -0.7 0 4
v -0.8 0 0.8
v 4 0 0.7
v 4 0 1
v 3.7 0 0.7
v 3.7 0 0.8
v 3.3 0 0.8
v 3.3 0 0.7
v 3.3 0 0.9
v 2.7 0 0.9
v 2.7 0 0.7
v 2.7 0 0.8
v 2.3 0 0.8
v 2.3 0 0.7
v 2.3 0 0.9
v 2.1 0 0.7
v -0.6 0 0.5
v -0.6 0 1.6
v -0.7 0 1.6
v -0.7 0 0.5
v -0.5 0 0.3
v -0.5 0 1.2
v -0.6 0 1.2
v -0.6 0 0.3
v -0.4 0 0.1
v -0.4 0 0.8
v -0.5 0 0.8
v -0.5 0 0.1
v -0.3 0 0
v -0.3 0 0.5
v -0.4 0 0.5
v -0.4 0 0
v -0.2 0 -0.1
v -0.2 0 0.3
v -0.3 0 0.3
v -0.3 0 -0.1
v -0.1 0 -0.2
v -0.1 0 0.1
v -0.2 0 0.1
v -0.2 0 -0.2
v 0 0 -0.3
v 0 0 0
v -0.1 0 0
v -0.1 0 -0.3
v 0.1 0 -0.4
v 0.1 0 -0.1
v 0 0 -0.1
v 0 0 -0.4
v 0.3 0 -0.5
v 0.3 0 -0.2
v 0.1 0 -0.2
v 0.1 0 -0.5
v 0.5 0 -0.6
v 0.5 0 -0.3
v 0.3 0 -0.3
v 0.3 0 -0.6
v 3.7 0 -0.7
v 3.3 0 -0.7
v 2.7 0 -0.7
v 2.3 0 -0.7
v 0.8 0 -0.7
v 0.8 0 -0.4
v 0.5 0 -0.4
v 0.5 0 -0.7
v 3.7 0 -0.8
v 1.6 0 -0.7
v 1.6 0 -0.8
v 1.2 0 -0.8
v 1.2 0 -0.5
v 0.8 0 -0.5
v 0.8 0 -0.8
v 3.7 0 -0.9
v 3.3 0 -0.8
v 3.3 0 -0.9
v 2.7 0 -0.9
v 2.7 0 -0.8
v 2.3 0 -0.8
v 2.3 0 -0.9
v 1.6 0 -0.9
v 1.6 0 -0.6
v 1.2 0 -0.6
v 1.2 0 -0.9
v 4 0 -1
v 4 0 -0.7
v 3.7 0 -1
v 3.3 0 -1
v 2.7 0 -1
v 2.3 0 -1
v 1.6 0 -1
v 3.7 0 -1.4
v 3.3 0 -1.4
v 2.7 0 -1.4
v 2.3 0 -1.4

vt 0.00585938 0.5
vt 0.0683594 0.5

vn 0 1 0
vn 0 -1 0
vn -1 0 0
vn 1 0 0
vn 0 0 -1
vn 0 0 1

usemtl palette
f 1/1/1 2/1/1 4/1/1
f 4/1/1 2/1/1 3/1/1
f 5/1/1 6/1/1 8/1/1
f 8/1/1 6/1/1 7/1/1
f 9/1/1 10/1/1 12/1/1
f 12/1/1 10/1/1 11/1/1
f 13/1/1 14/1/1 16/1/1
f 16/1/1 14/1/1 15/1/1
f 17/1/1 18/1/1 20/1/1
f 20/1/1 18/1/1 19/1/1
f 21/1/1 22/1/1 24/1/1
f 24/1/1 22/1/1 23/1/1
f 25/2/1 26/2/1 28/2/1
f 28/2/1 26/2/1 27/2/1
f 29/2/1 30/2/1 32/2/1
f 32/2/1 30/2/1 31/2/1
f 33/2/1 34/2/1 36/2/1
f 36/2/1 34/2/1 35/2/1
f 37/2/1 38/2/1 39/2/1
f 39/2/1 38/2/1 25/2/1
f 40/2/1 41/2/1 42/2/1
f 42/2/1 41/2/1 29/2/1
f 43/2/1 44/2/1 26/2/1
f 26/2/1 44/2/1 33/2/1
f 45/2/1 46/2/1 47/2/1
f 47/2/1 46/2/1 37/2/1
f 48/2/1 49/2/1 50/2/1
f 50/2/1 49/2/1 40/2/1
f 51/2/1 52/2/1 38/2/1
f 38/2/1 52/2/1 43/2/1
f 53/2/1 54/2/1 56/2/1
f 56/2/1 54/2/1 55/2/1
f 57/2/1 58/2/1 60/2/1
f 60/2/1 58/2/1 59/2/1
f 61/2/1 62/2/1 64/2/1
f 64/2/1 62/2/1 63/2/1
f 65/2/1 66/2/1 67/2/1
f 67/2/1 66/2/1 45/2/1
f 68/2/1 69/2/1 70/2/1
f 70/2/1 69/2/1 48/2/1
f 71/2/1 72/2/1 46/2/1
f 46/2/1 72/2/1 51/2/1
f 73/2/1 74/2/1 75/2/1
f 75/2/1 74/2/1 65/2/1
f 76/2/1 77/2/1 78/2/1
f 78/2/1 77/2/1 68/2/1
f 79/2/1 80/2/1 66/2/1
f 66/2/1 80/2/1 71/2/1
f 81/2/1 82/2/1 83/2/1
f 83/2/1 82/2/1 73/2/1
f 84/2/1 85/2/1 86/2/1
f 86/2/1 85/2/1 76/2/1
f 87/2/1 88/2/1 74/2/1
f 74/2/1 88/2/1 79/2/1
f 89/2/1 90/2/1 91/2/1
f 91/2/1 90/2/1 53/2/1
f 92/2/1 93/2/1 94/2/1
f 94/2/1 93/2/1 57/2/1
f 95/2/1 96/2/1 54/2/1
f 54/2/1 96/2/1 61/2/1
f 97/2/1 98/2/1 99/2/1
f 99/2/1 98/2/1 81/2/1
f 100/2/1 101/2/1 102/2/1
f 102/2/1 101/2/1 84/2/1
f 103/2/1 104/2/1 82/2/1
f 82/2/1 104/2/1 87/2/1
f 105/1/1 106/1/1 108/1/1
f 108/1/1 106/1/1 107/1/1
f 109/1/1 110/1/1 112/1/1
f 112/1/1 110/1/1 111/1/1
f 113/2/1 114/2/1 115/2/1
f 115/2/1 114/2/1 97/2/1
f 116/2/1 117/2/1 118/2/1
f 118/2/1 117/2/1 100/2/1
f 119/2/1 120/2/1 98/2/1
f 98/2/1 120/2/1 103/2/1
f 121/2/1 122/2/1 123/2/1
f 123/2/1 122/2/1 113/2/1
f 124/2/1 125/2/1 126/2/1
f 126/2/1 125/2/1 116/2/1
f 127/2/1 128/2/1 114/2/1
f 114/2/1 128/2/1 119/2/1
f 129/2/1 130/2/1 131/2/1
f 131/2/1 130/2/1 124/2/1
f 132/2/1 133/2/1 122/2/1
f 122/2/1 133/2/1 127/2/1
f 134/2/1 135/2/1 136/2/1
f 136/2/1 135/2/1 89/2/1
f 137/2/1 138/2/1 139/2/1
f 139/2/1 138/2/1 92/2/1
f 140/2/1 141/2/1 90/2/1
f 90/2/1 141/2/1 95/2/1
f 142/2/1 143/2/1 144/2/1
f 144/2/1 143/2/1 132/2/1
f 145/2/1 146/2/1 147/2/1
f 147/2/1 146/2/1 134/2/1
f 148/2/1 149/2/1 150/2/1
f 150/2/1 149/2/1 137/2/1
f 151/2/1 152/2/1 135/2/1
f 135/2/1 152/2/1 140/2/1
f 153/2/1 154/2/1 155/2/1
f 155/2/1 154/2/1 145/2/1
f 156/2/1 157/2/1 158/2/1
f 158/2/1 157/2/1 148/2/1
f 159/2/1 160/2/1 146/2/1
f 146/2/1 160/2/1 151/2/1
f 161/2/1 162/2/1 163/2/1
f 163/2/1 162/2/1 153/2/1
f 164/2/1 165/2/1 166/2/1
f 166/2/1 165/2/1 156/2/1
f 167/2/1 168/2/1 154/2/1
f 154/2/1 168/2/1 159/2/1
f 169/2/1 170/2/1 171/2/1
f 171/2/1 170/2/1 161/2/1
f 172/2/1 173/2/1 174/2/1
f 174/2/1 173/2/1 164/2/1
f 175/2/1 176/2/1 162/2/1
f 162/2/1 176/2/1 167/2/1
f 177/2/1 178/2/1 179/2/1
f 179/2/1 178/2/1 169/2/1
f 180/2/1 181/2/1 182/2/1
f 182/2/1 181/2/1 172/2/1
f 183/2/1 184/2/1 170/2/1
f 170/2/1 184/2/1 175/2/1
f 185/2/1 186/2/1 187/2/1
f 187/2/1 186/2/1 177/2/1
f 188/2/1 189/2/1 190/2/1
f 190/2/1 189/2/1 180/2/1
f 191/2/1 192/2/1 178/2/1
f 178/2/1 192/2/1 183/2/1
f 193/2/1 194/2/1 195/2/1
f 195/2/1 194/2/1 185/2/1
f 196/2/1 197/2/1 198/2/1
f 198/2/1 197/2/1 188/2/1
f 199/2/1 200/2/1 186/2/1
f 186/2/1 200/2/1 191/2/1
f 201/2/1 202/2/1 203/2/1
f 203/2/1 202/2/1 193/2/1
f 204/2/1 205/2/1 206/2/1
f 206/2/1 205/2/1 196/2/1
f 207/2/1 208/2/1 194/2/1
f 194/2/1 208/2/1 199/2/1
f 209/2/1 210/2/1 211/2/1
f 211/2/1 210/2/1 201/2/1
f 212/2/1 213/2/1 214/2/1
f 214/2/1 213/2/1 204/2/1
f 215/2/1 216/2/1 202/2/1
f 202/2/1 216/2/1 207/2/1
f 217/2/1 218/2/1 219/2/1
f 219/2/1 218/2/1 209/2/1
f 220/2/1 221/2/1 222/2/1
f 222/2/1 221/2/1 212/2/1
f 223/2/1 224/2/1 210/2/1
f 210/2/1 224/2/1 215/2/1
f 225/1/1 226/1/1 228/1/1
f 228/1/1 226/1/1 227/1/1
f 229/1/1 230/1/1 232/1/1
f 232/1/1 230/1/1 231/1/1
f 233/2/1 234/2/1 235/2/1
f 235/2/1 234/2/1 217/2/1
f 236/2/1 237/2/1 238/2/1
f 238/2/1 237/2/1 220/2/1
f 239/2/1 240/2/1 218/2/1
f 218/2/1 240/2/1 223/2/1
f 241/2/1 242/2/1 243/2/1
f 243/2/1 242/2/1 233/2/1
f 244/2/1 245/2/1 246/2/1
f 246/2/1 245/2/1 236/2/1
f 247/2/1 248/2/1 234/2/1
f 234/2/1 248/2/1 239/2/1
f 249/2/1 250/2/1 251/2/1
f 251/2/1 250/2/1 244/2/1
f 252/2/1 253/2/1 242/2/1
f 242/2/1 253/2/1 247/2/1
f 254/2/1 255/2/1 256/2/1
f 256/2/1 255/2/1 252/2/1
f 257/1/1 258/1/1 260/1/1
f 260/1/1 258/1/1 259/1/1
f 261/1/1 262/1/1 264/1/1
f 264/1/1 262/1/1 263/1/1
f 265/2/2 266/2/2 268/2/2
f 268/2/2 266/2/2 267/2/2
f 269/2/2 270/2/2 272/2/2
f 272/2/2 270/2/2 271/2/2
f 273/1/2 274/1/2 276/1/2
f 276/1/2 274/1/2 275/1/2
f 277/1/2 265/1/2 279/1/2
f 279/1/2 265/1/2 278/1/2
f 280/1/2 268/1/2 282/1/2
f 282/1/2 268/1/2 281/1/2
f 283/2/2 284/2/2 286/2/2
f 286/2/2 284/2/2 285/2/2
f 287/1/2 272/1/2 289/1/2
f 289/1/2 272/1/2 288/1/2
f 290/2/2 277/2/2 291/2/2
f 291/2/2 277/2/2 279/2/2
f 292/2/2 293/2/2 295/2/2
f 295/2/2 293/2/2 294/2/2
f 296/1/2 297/1/2 299/1/2
f 299/1/2 297/1/2 298/1/2
f 300/1/2 290/1/2 301/1/2
f 301/1/2 290/1/2 291/1/2
f 302/1/2 303/1/2 305/1/2
f 305/1/2 303/1/2 304/1/2
f 306/2/2 307/2/2 309/2/2
f 309/2/2 307/2/2 308/2/2
f 310/1/2 311/1/2 313/1/2
f 313/1/2 311/1/2 312/1/2
f 314/2/2 278/2/2 315/2/2
f 315/2/2 278/2/2 268/2/2
f 316/2/2 300/2/2 317/2/2
f 317/2/2 300/2/2 301/2/2
f 318/2/2 319/2/2 320/2/2
f 320/2/2 319/2/2 266/2/2
f 321/2/2 322/2/2 323/2/2
f 323/2/2 322/2/2 272/2/2
f 324/2/2 325/2/2 327/2/2
f 327/2/2 325/2/2 326/2/2
f 328/2/2 329/2/2 331/2/2
f 331/2/2 329/2/2 330/2/2
f 332/2/2 333/2/2 335/2/2
f 335/2/2 333/2/2 334/2/2
f 336/2/2 337/2/2 339/2/2
f 339/2/2 337/2/2 338/2/2
f 340/2/2 341/2/2 343/2/2
f 343/2/2 341/2/2 342/2/2
f 344/1/2 345/1/2 347/1/2
f 347/1/2 345/1/2 346/1/2
f 348/1/2 349/1/2 351/1/2
f 351/1/2 349/1/2 350/1/2
f 352/2/2 353/2/2 355/2/2
f 355/2/2 353/2/2 354/2/2
f 356/2/2 344/2/2 358/2/2
f 358/2/2 344/2/2 357/2/2
f 359/2/2 360/2/2 362/2/2
f 362/2/2 360/2/2 361/2/2
f 363/2/2 364/2/2 366/2/2
f 366/2/2 364/2/2 365/2/2
f 367/2/2 368/2/2 370/2/2
f 370/2/2 368/2/2 369/2/2
f 371/2/2 372/2/2 374/2/2
f 374/2/2 372/2/2 373/2/2
f 375/2/2 376/2/2 377/2/2
f 377/2/2 376/2/2 270/2/2
f 378/2/2 379/2/2 380/2/2
f 380/2/2 379/2/2 344/2/2
f 380/2/2 381/2/2 383/2/2
f 383/2/2 381/2/2 382/2/2
f 383/2/2 384/2/2 386/2/2
f 386/2/2 384/2/2 385/2/2
f 386/2/2 387/2/2 389/2/2
f 389/2/2 387/2/2 388/2/2
f 389/2/2 390/2/2 391/2/2
f 391/2/2 390/2/2 358/2/2
f 392/2/2 393/2/2 395/2/2
f 395/2/2 393/2/2 394/2/2
f 396/2/2 397/2/2 399/2/2
f 399/2/2 397/2/2 398/2/2
f 400/2/2 401/2/2 403/2/2
f 403/2/2 401/2/2 402/2/2
f 404/2/2 405/2/2 407/2/2
f 407/2/2 405/2/2 406/2/2
f 408/2/2 409/2/2 411/2/2
f 411/2/2 409/2/2 410/2/2
f 412/2/2 413/2/2 415/2/2
f 415/2/2 413/2/2 414/2/2
f 416/2/2 417/2/2 419/2/2
f 419/2/2 417/2/2 418/2/2
f 420/2/2 421/2/2 423/2/2
f 423/2/2 421/2/2 422/2/2
f 424/2/2 425/2/2 427/2/2
f 427/2/2 425/2/2 426/2/2
f 428/2/2 429/2/2 431/2/2
f 431/2/2 429/2/2 430/2/2
f 432/1/2 380/1/2 433/1/2
f 433/1/2 380/1/2 383/1/2
f 434/1/2 386/1/2 435/1/2
f 435/1/2 386/1/2 389/1/2
f 436/2/2 437/2/2 439/2/2
f 439/2/2 437/2/2 438/2/2
f 440/2/2 432/2/2 442/2/2
f 442/2/2 432/2/2 441/2/2
f 443/2/2 444/2/2 446/2/2
f 446/2/2 444/2/2 445/2/2
f 447/1/2 440/1/2 449/1/2
f 449/1/2 440/1/2 448/1/2
f 450/1/2 451/1/2 453/1/2
f 453/1/2 451/1/2 452/1/2
f 454/2/2 455/2/2 457/2/2
f 457/2/2 455/2/2 456/2/2
f 458/2/2 459/2/2 460/2/2
f 460/2/2 459/2/2 432/2/2
f 460/2/2 447/2/2 461/2/2
f 461/2/2 447/2/2 449/2/2
f 461/2/2 448/2/2 462/2/2
f 462/2/2 448/2/2 451/2/2
f 462/2/2 450/2/2 463/2/2
f 463/2/2 450/2/2 453/2/2
f 463/2/2 452/2/2 464/2/2
f 464/2/2 452/2/2 442/2/2
f 465/1/2 460/1/2 466/1/2
f 466/1/2 460/1/2 461/1/2
f 467/1/2 462/1/2 468/1/2
f 468/1/2 462/1/2 463/1/2
f 35/2/3 8/2/3 267/2/3
f 267/2/3 8/2/3 268/2/3
f 63/2/3 12/2/3 271/2/3
f 271/2/3 12/2/3 272/2/3
f 284/2/3 283/2/3 269/2/3
f 269/2/3 283/2/3 293/2/3
f 11/1/3 10/1/3 288/1/3
f 288/1/3 10/1/3 289/1/3
f 5/2/3 20/2/3 280/2/3
f 280/2/3 20/2/3 303/2/3
f 9/2/3 24/2/3 287/2/3
f 287/2/3 24/2/3 311/2/3
f 307/2/3 306/2/3 292/2/3
f 292/2/3 306/2/3 337/2/3
f 23/1/3 22/1/3 312/1/3
f 312/1/3 22/1/3 313/1/3
f 17/2/3 34/2/3 302/2/3
f 302/2/3 34/2/3 315/2/3
f 33/2/3 44/2/3 314/2/3
f 314/2/3 44/2/3 317/2/3
f 43/2/3 52/2/3 316/2/3
f 316/2/3 52/2/3 320/2/3
f 21/2/3 62/2/3 310/2/3
f 310/2/3 62/2/3 323/2/3
f 51/2/3 72/2/3 318/2/3
f 318/2/3 72/2/3 327/2/3
f 71/2/3 80/2/3 324/2/3
f 324/2/3 80/2/3 331/2/3
f 79/2/3 88/2/3 328/2/3
f 328/2/3 88/2/3 335/2/3
f 61/2/3 96/2/3 321/2/3
f 321/2/3 96/2/3 339/2/3
f 87/2/3 104/2/3 332/2/3
f 332/2/3 104/2/3 343/2/3
f 107/1/3 106/1/3 346/1/3
f 346/1/3 106/1/3 347/1/3
f 111/1/3 110/1/3 350/1/3
f 350/1/3 110/1/3 351/1/3
f 103/2/3 120/2/3 340/2/3
f 340/2/3 120/2/3 355/2/3
f 119/2/3 128/2/3 352/2/3
f 352/2/3 128/2/3 362/2/3
f 364/2/3 363/2/3 356/2/3
f 356/2/3 363/2/3 381/2/3
f 368/2/3 367/2/3 385/2/3
f 385/2/3 367/2/3 387/2/3
f 127/2/3 133/2/3 359/2/3
f 359/2/3 133/2/3 374/2/3
f 95/2/3 141/2/3 336/2/3
f 336/2/3 141/2/3 377/2/3
f 132/2/3 143/2/3 371/2/3
f 371/2/3 143/2/3 391/2/3
f 140/2/3 152/2/3 375/2/3
f 375/2/3 152/2/3 395/2/3
f 151/2/3 160/2/3 392/2/3
f 392/2/3 160/2/3 399/2/3
f 159/2/3 168/2/3 396/2/3
f 396/2/3 168/2/3 403/2/3
f 167/2/3 176/2/3 400/2/3
f 400/2/3 176/2/3 407/2/3
f 175/2/3 184/2/3 404/2/3
f 404/2/3 184/2/3 411/2/3
f 183/2/3 192/2/3 408/2/3
f 408/2/3 192/2/3 415/2/3
f 191/2/3 200/2/3 412/2/3
f 412/2/3 200/2/3 419/2/3
f 199/2/3 208/2/3 416/2/3
f 416/2/3 208/2/3 423/2/3
f 207/2/3 216/2/3 420/2/3
f 420/2/3 216/2/3 427/2/3
f 215/2/3 224/2/3 424/2/3
f 424/2/3 224/2/3 431/2/3
f 227/1/3 226/1/3 383/1/3
f 383/1/3 226/1/3 433/1/3
f 231/1/3 230/1/3 389/1/3
f 389/1/3 230/1/3 435/1/3
f 223/2/3 240/2/3 428/2/3
f 428/2/3 240/2/3 439/2/3
f 239/2/3 248/2/3 436/2/3
f 436/2/3 248/2/3 446/2/3
f 247/2/3 253/2/3 443/2/3
f 443/2/3 253/2/3 457/2/3
f 252/2/3 255/2/3 454/2/3
f 454/2/3 255/2/3 464/2/3
f 259/1/3 258/1/3 461/1/3
f 461/1/3 258/1/3 466/1/3
f 263/1/3 262/1/3 463/1/3
f 463/1/3 262/1/3 468/1/3
f 31/2/3 30/2/3 36/2/3
f 36/2/3 30/2/3 33/2/3
f 29/2/3 41/2/3 26/2/3
f 26/2/3 41/2/3 43/2/3
f 40/2/3 49/2/3 38/2/3
f 38/2/3 49/2/3 51/2/3
f 59/2/3 58/2/3 64/2/3
f 64/2/3 58/2/3 61/2/3
f 48/2/3 69/2/3 46/2/3
f 46/2/3 69/2/3 71/2/3
f 68/2/3 77/2/3 66/2/3
f 66/2/3 77/2/3 79/2/3
f 76/2/3 85/2/3 74/2/3
f 74/2/3 85/2/3 87/2/3
f 57/2/3 93/2/3 54/2/3
f 54/2/3 93/2/3 95/2/3
f 84/2/3 101/2/3 82/2/3
f 82/2/3 101/2/3 103/2/3
f 100/2/3 117/2/3 98/2/3
f 98/2/3 117/2/3 119/2/3
f 116/2/3 125/2/3 114/2/3
f 114/2/3 125/2/3 127/2/3
f 124/2/3 130/2/3 122/2/3
f 122/2/3 130/2/3 132/2/3
f 92/2/3 138/2/3 90/2/3
f 90/2/3 138/2/3 140/2/3
f 137/2/3 149/2/3 135/2/3
f 135/2/3 149/2/3 151/2/3
f 148/2/3 157/2/3 146/2/3
f 146/2/3 157/2/3 159/2/3
f 156/2/3 165/2/3 154/2/3
f 154/2/3 165/2/3 167/2/3
f 164/2/3 173/2/3 162/2/3
f 162/2/3 173/2/3 175/2/3
f 172/2/3 181/2/3 170/2/3
f 170/2/3 181/2/3 183/2/3
f 180/2/3 189/2/3 178/2/3
f 178/2/3 189/2/3 191/2/3
f 188/2/3 197/2/3 186/2/3
f 186/2/3 197/2/3 199/2/3
f 196/2/3 205/2/3 194/2/3
f 194/2/3 205/2/3 207/2/3
f 204/2/3 213/2/3 202/2/3
f 202/2/3 213/2/3 215/2/3
f 212/2/3 221/2/3 210/2/3
f 210/2/3 221/2/3 223/2/3
f 220/2/3 237/2/3 218/2/3
f 218/2/3 237/2/3 239/2/3
f 236/2/3 245/2/3 234/2/3
f 234/2/3 245/2/3 247/2/3
f 244/2/3 250/2/3 242/2/3
f 242/2/3 250/2/3 252/2/3
f 28/2/4 319/2/4 3/2/4
f 3/2/4 319/2/4 275/2/4
f 56/2/4 376/2/4 7/2/4
f 7/2/4 376/2/4 281/2/4
f 4/1/4 274/1/4 1/1/4
f 1/1/4 274/1/4 273/1/4
f 285/2/4 322/2/4 286/2/4
f 286/2/4 322/2/4 294/2/4
f 2/2/4 276/2/4 15/2/4
f 15/2/4 276/2/4 298/2/4
f 6/2/4 282/2/4 19/2/4
f 19/2/4 282/2/4 304/2/4
f 16/1/4 297/1/4 13/1/4
f 13/1/4 297/1/4 296/1/4
f 308/2/4 295/2/4 309/2/4
f 309/2/4 295/2/4 338/2/4
f 14/2/4 299/2/4 25/2/4
f 25/2/4 299/2/4 326/2/4
f 39/2/4 325/2/4 37/2/4
f 37/2/4 325/2/4 330/2/4
f 47/2/4 329/2/4 45/2/4
f 45/2/4 329/2/4 334/2/4
f 18/2/4 305/2/4 53/2/4
f 53/2/4 305/2/4 394/2/4
f 67/2/4 333/2/4 65/2/4
f 65/2/4 333/2/4 342/2/4
f 75/2/4 341/2/4 73/2/4
f 73/2/4 341/2/4 354/2/4
f 83/2/4 353/2/4 81/2/4
f 81/2/4 353/2/4 361/2/4
f 91/2/4 393/2/4 89/2/4
f 89/2/4 393/2/4 398/2/4
f 99/2/4 360/2/4 97/2/4
f 97/2/4 360/2/4 373/2/4
f 108/1/4 345/1/4 105/1/4
f 105/1/4 345/1/4 344/1/4
f 112/1/4 349/1/4 109/1/4
f 109/1/4 349/1/4 348/1/4
f 115/2/4 372/2/4 113/2/4
f 113/2/4 372/2/4 357/2/4
f 365/2/4 384/2/4 366/2/4
f 366/2/4 384/2/4 382/2/4
f 369/2/4 390/2/4 370/2/4
f 370/2/4 390/2/4 388/2/4
f 136/2/4 397/2/4 134/2/4
f 134/2/4 397/2/4 402/2/4
f 123/2/4 379/2/4 142/2/4
f 142/2/4 379/2/4 378/2/4
f 147/2/4 401/2/4 145/2/4
f 145/2/4 401/2/4 406/2/4
f 155/2/4 405/2/4 153/2/4
f 153/2/4 405/2/4 410/2/4
f 163/2/4 409/2/4 161/2/4
f 161/2/4 409/2/4 414/2/4
f 171/2/4 413/2/4 169/2/4
f 169/2/4 413/2/4 418/2/4
f 179/2/4 417/2/4 177/2/4
f 177/2/4 417/2/4 422/2/4
f 187/2/4 421/2/4 185/2/4
f 185/2/4 421/2/4 426/2/4
f 195/2/4 425/2/4 193/2/4
f 193/2/4 425/2/4 430/2/4
f 203/2/4 429/2/4 201/2/4
f 201/2/4 429/2/4 438/2/4
f 211/2/4 437/2/4 209/2/4
f 209/2/4 437/2/4 445/2/4
f 219/2/4 444/2/4 217/2/4
f 217/2/4 444/2/4 456/2/4
f 228/1/4 380/1/4 225/1/4
f 225/1/4 380/1/4 432/1/4
f 232/1/4 386/1/4 229/1/4
f 229/1/4 386/1/4 434/1/4
f 235/2/4 455/2/4 233/2/4
f 233/2/4 455/2/4 441/2/4
f 243/2/4 459/2/4 254/2/4
f 254/2/4 459/2/4 458/2/4
f 260/1/4 460/1/4 257/1/4
f 257/1/4 460/1/4 465/1/4
f 264/1/4 462/1/4 261/1/4
f 261/1/4 462/1/4 467/1/4
f 32/2/4 27/2/4 29/2/4
f 29/2/4 27/2/4 26/2/4
f 42/2/4 25/2/4 40/2/4
f 40/2/4 25/2/4 38/2/4
f 50/2/4 37/2/4 48/2/4
f 48/2/4 37/2/4 46/2/4
f 60/2/4 55/2/4 57/2/4
f 57/2/4 55/2/4 54/2/4
f 70/2/4 45/2/4 68/2/4
f 68/2/4 45/2/4 66/2/4
f 78/2/4 65/2/4 76/2/4
f 76/2/4 65/2/4 74/2/4
f 86/2/4 73/2/4 84/2/4
f 84/2/4 73/2/4 82/2/4
f 94/2/4 53/2/4 92/2/4
f 92/2/4 53/2/4 90/2/4
f 102/2/4 81/2/4 100/2/4
f 100/2/4 81/2/4 98/2/4
f 118/2/4 97/2/4 116/2/4
f 116/2/4 97/2/4 114/2/4
f 126/2/4 113/2/4 124/2/4
f 124/2/4 113/2/4 122/2/4
f 131/2/4 121/2/4 129/2/4
f 129/2/4 121/2/4 144/2/4
f 139/2/4 89/2/4 137/2/4
f 137/2/4 89/2/4 135/2/4
f 150/2/4 134/2/4 148/2/4
f 148/2/4 134/2/4 146/2/4
f 158/2/4 145/2/4 156/2/4
f 156/2/4 145/2/4 154/2/4
f 166/2/4 153/2/4 164/2/4
f 164/2/4 153/2/4 162/2/4
f 174/2/4 161/2/4 172/2/4
f 172/2/4 161/2/4 170/2/4
f 182/2/4 169/2/4 180/2/4
f 180/2/4 169/2/4 178/2/4
f 190/2/4 177/2/4 188/2/4
f 188/2/4 177/2/4 186/2/4
f 198/2/4 185/2/4 196/2/4
f 196/2/4 185/2/4 194/2/4
f 206/2/4 193/2/4 204/2/4
f 204/2/4 193/2/4 202/2/4
f 214/2/4 201/2/4 212/2/4
f 212/2/4 201/2/4 210/2/4
f 222/2/4 209/2/4 220/2/4
f 220/2/4 209/2/4 218/2/4
f 238/2/4 217/2/4 236/2/4
f 236/2/4 217/2/4 234/2/4
f 246/2/4 233/2/4 244/2/4
f 244/2/4 233/2/4 242/2/4
f 251/2/4 241/2/4 249/2/4
f 249/2/4 241/2/4 256/2/4
f 380/2/5 228/2/5 378/2/5
f 378/2/5 228/2/5 142/2/5
f 460/2/5 260/2/5 458/2/5
f 458/2/5 260/2/5 254/2/5
f 384/2/5 365/2/5 356/2/5
f 356/2/5 365/2/5 364/2/5
f 466/1/5 258/1/5 465/1/5
f 465/1/5 258/1/5 257/1/5
f 386/2/5 232/2/5 383/2/5
f 383/2/5 232/2/5 227/2/5
f 462/2/5 264/2/5 461/2/5
f 461/2/5 264/2/5 259/2/5
f 390/2/5 369/2/5 385/2/5
f 385/2/5 369/2/5 368/2/5
f 468/1/5 262/1/5 467/1/5
f 467/1/5 262/1/5 261/1/5
f 391/2/5 143/2/5 389/2/5
f 389/2/5 143/2/5 231/2/5
f 132/2/5 130/2/5 144/2/5
f 144/2/5 130/2/5 129/2/5
f 374/2/5 133/2/5 371/2/5
f 371/2/5 133/2/5 132/2/5
f 127/2/5 125/2/5 122/2/5
f 122/2/5 125/2/5 124/2/5
f 362/2/5 128/2/5 359/2/5
f 359/2/5 128/2/5 127/2/5
f 464/2/5 255/2/5 463/2/5
f 463/2/5 255/2/5 263/2/5
f 119/2/5 117/2/5 114/2/5
f 114/2/5 117/2/5 116/2/5
f 252/2/5 250/2/5 256/2/5
f 256/2/5 250/2/5 249/2/5
f 355/2/5 120/2/5 352/2/5
f 352/2/5 120/2/5 119/2/5
f 103/2/5 101/2/5 98/2/5
f 98/2/5 101/2/5 100/2/5
f 343/2/5 104/2/5 340/2/5
f 340/2/5 104/2/5 103/2/5
f 87/2/5 85/2/5 82/2/5
f 82/2/5 85/2/5 84/2/5
f 335/2/5 88/2/5 332/2/5
f 332/2/5 88/2/5 87/2/5
f 457/2/5 253/2/5 454/2/5
f 454/2/5 253/2/5 252/2/5
f 79/2/5 77/2/5 74/2/5
f 74/2/5 77/2/5 76/2/5
f 247/2/5 245/2/5 242/2/5
f 242/2/5 245/2/5 244/2/5
f 331/2/5 80/2/5 328/2/5
f 328/2/5 80/2/5 79/2/5
f 71/2/5 69/2/5 66/2/5
f 66/2/5 69/2/5 68/2/5
f 276/1/5 2/1/5 273/1/5
f 273/1/5 2/1/5 1/1/5
f 299/1/5 14/1/5 296/1/5
f 296/1/5 14/1/5 13/1/5
f 327/2/5 72/2/5 324/2/5
f 324/2/5 72/2/5 71/2/5
f 51/2/5 49/2/5 46/2/5
f 46/2/5 49/2/5 48/2/5
f 320/2/5 52/2/5 318/2/5
f 318/2/5 52/2/5 51/2/5
f 43/2/5 41/2/5 38/2/5
f 38/2/5 41/2/5 40/2/5
f 317/2/5 44/2/5 316/2/5
f 316/2/5 44/2/5 43/2/5
f 446/2/5 248/2/5 443/2/5
f 443/2/5 248/2/5 247/2/5
f 33/2/5 30/2/5 26/2/5
f 26/2/5 30/2/5 29/2/5
f 239/2/5 237/2/5 234/2/5
f 234/2/5 237/2/5 236/2/5
f 315/2/5 34/2/5 314/2/5
f 314/2/5 34/2/5 33/2/5
f 439/2/5 240/2/5 436/2/5
f 436/2/5 240/2/5 239/2/5
f 223/2/5 221/2/5 218/2/5
f 218/2/5 221/2/5 220/2/5
f 431/2/5 224/2/5 428/2/5
f 428/2/5 224/2/5 223/2/5
f 215/2/5 213/2/5 210/2/5
f 210/2/5 213/2/5 212/2/5
f 427/2/5 216/2/5 424/2/5
f 424/2/5 216/2/5 215/2/5
f 207/2/5 205/2/5 202/2/5
f 202/2/5 205/2/5 204/2/5
f 423/2/5 208/2/5 420/2/5
f 420/2/5 208/2/5 207/2/5
f 199/2/5 197/2/5 194/2/5
f 194/2/5 197/2/5 196/2/5
f 419/2/5 200/2/5 416/2/5
f 416/2/5 200/2/5 199/2/5
f 191/2/5 189/2/5 186/2/5
f 186/2/5 189/2/5 188/2/5
f 415/2/5 192/2/5 412/2/5
f 412/2/5 192/2/5 191/2/5
f 183/2/5 181/2/5 178/2/5
f 178/2/5 181/2/5 180/2/5
f 411/2/5 184/2/5 408/2/5
f 408/2/5 184/2/5 183/2/5
f 175/2/5 173/2/5 170/2/5
f 170/2/5 173/2/5 172/2/5
f 407/2/5 176/2/5 404/2/5
f 404/2/5 176/2/5 175/2/5
f 167/2/5 165/2/5 162/2/5
f 162/2/5 165/2/5 164/2/5
f 403/2/5 168/2/5 400/2/5
f 400/2/5 168/2/5 167/2/5
f 159/2/5 157/2/5 154/2/5
f 154/2/5 157/2/5 156/2/5
f 399/2/5 160/2/5 396/2/5
f 396/2/5 160/2/5 159/2/5
f 151/2/5 149/2/5 146/2/5
f 146/2/5 149/2/5 148/2/5
f 282/1/5 6/1/5 280/1/5
f 280/1/5 6/1/5 5/1/5
f 305/1/5 18/1/5 302/1/5
f 302/1/5 18/1/5 17/1/5
f 395/2/5 152/2/5 392/2/5
f 392/2/5 152/2/5 151/2/5
f 140/2/5 138/2/5 135/2/5
f 135/2/5 138/2/5 137/2/5
f 377/2/5 141/2/5 375/2/5
f 375/2/5 141/2/5 140/2/5
f 95/2/5 93/2/5 90/2/5
f 90/2/5 93/2/5 92/2/5
f 322/2/5 285/2/5 269/2/5
f 269/2/5 285/2/5 284/2/5
f 295/2/5 308/2/5 292/2/5
f 292/2/5 308/2/5 307/2/5
f 339/2/5 96/2/5 336/2/5
f 336/2/5 96/2/5 95/2/5
f 61/2/5 58/2/5 54/2/5
f 54/2/5 58/2/5 57/2/5
f 323/2/5 62/2/5 321/2/5
f 321/2/5 62/2/5 61/2/5
f 289/1/5 10/1/5 287/1/5
f 287/1/5 10/1/5 9/1/5
f 313/1/5 22/1/5 310/1/5
f 310/1/5 22/1/5 21/1/5
f 344/2/6 379/2/6 105/2/6
f 105/2/6 379/2/6 123/2/6
f 432/2/6 459/2/6 225/2/6
f 225/2/6 459/2/6 243/2/6
f 346/1/6 345/1/6 107/1/6
f 107/1/6 345/1/6 108/1/6
f 382/2/6 381/2/6 366/2/6
f 366/2/6 381/2/6 363/2/6
f 348/2/6 347/2/6 109/2/6
f 109/2/6 347/2/6 106/2/6
f 434/2/6 433/2/6 229/2/6
f 229/2/6 433/2/6 226/2/6
f 350/1/6 349/1/6 111/1/6
f 111/1/6 349/1/6 112/1/6
f 388/2/6 387/2/6 370/2/6
f 370/2/6 387/2/6 367/2/6
f 357/2/6 351/2/6 113/2/6
f 113/2/6 351/2/6 110/2/6
f 122/2/6 121/2/6 124/2/6
f 124/2/6 121/2/6 131/2/6
f 373/2/6 372/2/6 97/2/6
f 97/2/6 372/2/6 115/2/6
f 114/2/6 113/2/6 116/2/6
f 116/2/6 113/2/6 126/2/6
f 361/2/6 360/2/6 81/2/6
f 81/2/6 360/2/6 99/2/6
f 441/2/6 435/2/6 233/2/6
f 233/2/6 435/2/6 230/2/6
f 98/2/6 97/2/6 100/2/6
f 100/2/6 97/2/6 118/2/6
f 242/2/6 241/2/6 244/2/6
f 244/2/6 241/2/6 251/2/6
f 354/2/6 353/2/6 73/2/6
f 73/2/6 353/2/6 83/2/6
f 82/2/6 81/2/6 84/2/6
f 84/2/6 81/2/6 102/2/6
f 342/2/6 341/2/6 65/2/6
f 65/2/6 341/2/6 75/2/6
f 74/2/6 73/2/6 76/2/6
f 76/2/6 73/2/6 86/2/6
f 334/2/6 333/2/6 45/2/6
f 45/2/6 333/2/6 67/2/6
f 456/2/6 455/2/6 217/2/6
f 217/2/6 455/2/6 235/2/6
f 66/2/6 65/2/6 68/2/6
f 68/2/6 65/2/6 78/2/6
f 234/2/6 233/2/6 236/2/6
f 236/2/6 233/2/6 246/2/6
f 330/2/6 329/2/6 37/2/6
f 37/2/6 329/2/6 47/2/6
f 46/2/6 45/2/6 48/2/6
f 48/2/6 45/2/6 70/2/6
f 275/1/6 274/1/6 3/1/6
f 3/1/6 274/1/6 4/1/6
f 298/1/6 297/1/6 15/1/6
f 15/1/6 297/1/6 16/1/6
f 326/2/6 325/2/6 25/2/6
f 25/2/6 325/2/6 39/2/6
f 38/2/6 37/2/6 40/2/6
f 40/2/6 37/2/6 50/2/6
f 26/2/6 25/2/6 29/2/6
f 29/2/6 25/2/6 42/2/6
f 445/2/6 444/2/6 209/2/6
f 209/2/6 444/2/6 219/2/6
f 36/2/6 27/2/6 31/2/6
f 31/2/6 27/2/6 32/2/6
f 218/2/6 217/2/6 220/2/6
f 220/2/6 217/2/6 238/2/6
f 267/2/6 319/2/6 35/2/6
f 35/2/6 319/2/6 28/2/6
f 438/2/6 437/2/6 201/2/6
f 201/2/6 437/2/6 211/2/6
f 210/2/6 209/2/6 212/2/6
f 212/2/6 209/2/6 222/2/6
f 430/2/6 429/2/6 193/2/6
f 193/2/6 429/2/6 203/2/6
f 202/2/6 201/2/6 204/2/6
f 204/2/6 201/2/6 214/2/6
f 426/2/6 425/2/6 185/2/6
f 185/2/6 425/2/6 195/2/6
f 194/2/6 193/2/6 196/2/6
f 196/2/6 193/2/6 206/2/6
f 422/2/6 421/2/6 177/2/6
f 177/2/6 421/2/6 187/2/6
f 186/2/6 185/2/6 188/2/6
f 188/2/6 185/2/6 198/2/6
f 418/2/6 417/2/6 169/2/6
f 169/2/6 417/2/6 179/2/6
f 178/2/6 177/2/6 180/2/6
f 180/2/6 177/2/6 190/2/6
f 414/2/6 413/2/6 161/2/6
f 161/2/6 413/2/6 171/2/6
f 170/2/6 169/2/6 172/2/6
f 172/2/6 169/2/6 182/2/6
f 410/2/6 409/2/6 153/2/6
f 153/2/6 409/2/6 163/2/6
f 162/2/6 161/2/6 164/2/6
f 164/2/6 161/2/6 174/2/6
f 406/2/6 405/2/6 145/2/6
f 145/2/6 405/2/6 155/2/6
f 154/2/6 153/2/6 156/2/6
f 156/2/6 153/2/6 166/2/6
f 402/2/6 401/2/6 134/2/6
f 134/2/6 401/2/6 147/2/6
f 146/2/6 145/2/6 148/2/6
f 148/2/6 145/2/6 158/2/6
f 398/2/6 397/2/6 89/2/6
f 89/2/6 397/2/6 136/2/6
f 135/2/6 134/2/6 137/2/6
f 137/2/6 134/2/6 150/2/6
f 281/1/6 268/1/6 7/1/6
f 7/1/6 268/1/6 8/1/6
f 304/1/6 303/1/6 19/1/6
f 19/1/6 303/1/6 20/1/6
f 394/2/6 393/2/6 53/2/6
f 53/2/6 393/2/6 91/2/6
f 90/2/6 89/2/6 92/2/6
f 92/2/6 89/2/6 139/2/6
f 54/2/6 53/2/6 57/2/6
f 57/2/6 53/2/6 94/2/6
f 294/2/6 293/2/6 286/2/6
f 286/2/6 293/2/6 283/2/6
f 338/2/6 337/2/6 309/2/6
f 309/2/6 337/2/6 306/2/6
f 64/2/6 55/2/6 59/2/6
f 59/2/6 55/2/6 60/2/6
f 271/2/6 376/2/6 63/2/6
f 63/2/6 376/2/6 56/2/6
f 288/1/6 272/1/6 11/1/6
f 11/1/6 272/1/6 12/1/6
f 312/1/6 311/1/6 23/1/6
f 23/1/6 311/1/6 24/1/6
